<?xml version="1.0" encoding="utf-8"?>
<svg xmlns="http://www.w3.org/2000/svg" xmlns:xlink="http://www.w3.org/1999/xlink" width="600" height="400" viewBox="0 0 2400 1600">
<defs>
  <clipPath id="clip410">
    <rect x="0" y="0" width="2400" height="1600"/>
  </clipPath>
</defs>
<path clip-path="url(#clip410)" d="M0 1600 L2400 1600 L2400 0 L0 0  Z" fill="#ffffff" fill-rule="evenodd" fill-opacity="1"/>
<defs>
  <clipPath id="clip411">
    <rect x="155" y="47" width="2198" height="1377"/>
  </clipPath>
</defs>
<path clip-path="url(#clip410)" d="M155.765 1423.18 L2352.76 1423.18 L2352.76 47.2441 L155.765 47.2441  Z" fill="#ffffff" fill-rule="evenodd" fill-opacity="1"/>
<polyline clip-path="url(#clip411)" style="stroke:#000000; stroke-linecap:round; stroke-linejoin:round; stroke-width:2; stroke-opacity:0.1; fill:none" points="155.765,1423.18 155.765,47.2441 "/>
<polyline clip-path="url(#clip411)" style="stroke:#000000; stroke-linecap:round; stroke-linejoin:round; stroke-width:2; stroke-opacity:0.1; fill:none" points="595.163,1423.18 595.163,47.2441 "/>
<polyline clip-path="url(#clip411)" style="stroke:#000000; stroke-linecap:round; stroke-linejoin:round; stroke-width:2; stroke-opacity:0.1; fill:none" points="1034.56,1423.18 1034.56,47.2441 "/>
<polyline clip-path="url(#clip411)" style="stroke:#000000; stroke-linecap:round; stroke-linejoin:round; stroke-width:2; stroke-opacity:0.1; fill:none" points="1473.96,1423.18 1473.96,47.2441 "/>
<polyline clip-path="url(#clip411)" style="stroke:#000000; stroke-linecap:round; stroke-linejoin:round; stroke-width:2; stroke-opacity:0.1; fill:none" points="1913.36,1423.18 1913.36,47.2441 "/>
<polyline clip-path="url(#clip411)" style="stroke:#000000; stroke-linecap:round; stroke-linejoin:round; stroke-width:2; stroke-opacity:0.1; fill:none" points="2352.76,1423.18 2352.76,47.2441 "/>
<polyline clip-path="url(#clip411)" style="stroke:#000000; stroke-linecap:round; stroke-linejoin:round; stroke-width:2; stroke-opacity:0.1; fill:none" points="155.765,1187.13 2352.76,1187.13 "/>
<polyline clip-path="url(#clip411)" style="stroke:#000000; stroke-linecap:round; stroke-linejoin:round; stroke-width:2; stroke-opacity:0.1; fill:none" points="155.765,919.306 2352.76,919.306 "/>
<polyline clip-path="url(#clip411)" style="stroke:#000000; stroke-linecap:round; stroke-linejoin:round; stroke-width:2; stroke-opacity:0.1; fill:none" points="155.765,651.479 2352.76,651.479 "/>
<polyline clip-path="url(#clip411)" style="stroke:#000000; stroke-linecap:round; stroke-linejoin:round; stroke-width:2; stroke-opacity:0.1; fill:none" points="155.765,383.653 2352.76,383.653 "/>
<polyline clip-path="url(#clip411)" style="stroke:#000000; stroke-linecap:round; stroke-linejoin:round; stroke-width:2; stroke-opacity:0.1; fill:none" points="155.765,115.827 2352.76,115.827 "/>
<polyline clip-path="url(#clip410)" style="stroke:#000000; stroke-linecap:round; stroke-linejoin:round; stroke-width:4; stroke-opacity:1; fill:none" points="155.765,1423.18 2352.76,1423.18 "/>
<polyline clip-path="url(#clip410)" style="stroke:#000000; stroke-linecap:round; stroke-linejoin:round; stroke-width:4; stroke-opacity:1; fill:none" points="155.765,1423.18 155.765,1404.28 "/>
<polyline clip-path="url(#clip410)" style="stroke:#000000; stroke-linecap:round; stroke-linejoin:round; stroke-width:4; stroke-opacity:1; fill:none" points="595.163,1423.18 595.163,1404.28 "/>
<polyline clip-path="url(#clip410)" style="stroke:#000000; stroke-linecap:round; stroke-linejoin:round; stroke-width:4; stroke-opacity:1; fill:none" points="1034.56,1423.18 1034.56,1404.28 "/>
<polyline clip-path="url(#clip410)" style="stroke:#000000; stroke-linecap:round; stroke-linejoin:round; stroke-width:4; stroke-opacity:1; fill:none" points="1473.96,1423.18 1473.96,1404.28 "/>
<polyline clip-path="url(#clip410)" style="stroke:#000000; stroke-linecap:round; stroke-linejoin:round; stroke-width:4; stroke-opacity:1; fill:none" points="1913.36,1423.18 1913.36,1404.28 "/>
<polyline clip-path="url(#clip410)" style="stroke:#000000; stroke-linecap:round; stroke-linejoin:round; stroke-width:4; stroke-opacity:1; fill:none" points="2352.76,1423.18 2352.76,1404.28 "/>
<path clip-path="url(#clip410)" d="M155.765 1454.1 Q152.154 1454.1 150.325 1457.66 Q148.52 1461.2 148.52 1468.33 Q148.52 1475.44 150.325 1479.01 Q152.154 1482.55 155.765 1482.55 Q159.399 1482.55 161.205 1479.01 Q163.033 1475.44 163.033 1468.33 Q163.033 1461.2 161.205 1457.66 Q159.399 1454.1 155.765 1454.1 M155.765 1450.39 Q161.575 1450.39 164.631 1455 Q167.709 1459.58 167.709 1468.33 Q167.709 1477.06 164.631 1481.67 Q161.575 1486.25 155.765 1486.25 Q149.955 1486.25 146.876 1481.67 Q143.821 1477.06 143.821 1468.33 Q143.821 1459.58 146.876 1455 Q149.955 1450.39 155.765 1450.39 Z" fill="#000000" fill-rule="nonzero" fill-opacity="1" /><path clip-path="url(#clip410)" d="M589.816 1481.64 L606.135 1481.64 L606.135 1485.58 L584.191 1485.58 L584.191 1481.64 Q586.853 1478.89 591.436 1474.26 Q596.043 1469.61 597.223 1468.27 Q599.469 1465.74 600.348 1464.01 Q601.251 1462.25 601.251 1460.56 Q601.251 1457.8 599.307 1456.07 Q597.385 1454.33 594.283 1454.33 Q592.084 1454.33 589.631 1455.09 Q587.2 1455.86 584.422 1457.41 L584.422 1452.69 Q587.246 1451.55 589.7 1450.97 Q592.154 1450.39 594.191 1450.39 Q599.561 1450.39 602.756 1453.08 Q605.95 1455.77 605.95 1460.26 Q605.95 1462.39 605.14 1464.31 Q604.353 1466.2 602.246 1468.8 Q601.668 1469.47 598.566 1472.69 Q595.464 1475.88 589.816 1481.64 Z" fill="#000000" fill-rule="nonzero" fill-opacity="1" /><path clip-path="url(#clip410)" d="M1037.57 1455.09 L1025.77 1473.54 L1037.57 1473.54 L1037.57 1455.09 M1036.34 1451.02 L1042.22 1451.02 L1042.22 1473.54 L1047.15 1473.54 L1047.15 1477.43 L1042.22 1477.43 L1042.22 1485.58 L1037.57 1485.58 L1037.57 1477.43 L1021.97 1477.43 L1021.97 1472.92 L1036.34 1451.02 Z" fill="#000000" fill-rule="nonzero" fill-opacity="1" /><path clip-path="url(#clip410)" d="M1474.36 1466.44 Q1471.22 1466.44 1469.36 1468.59 Q1467.54 1470.74 1467.54 1474.49 Q1467.54 1478.22 1469.36 1480.39 Q1471.22 1482.55 1474.36 1482.55 Q1477.51 1482.55 1479.34 1480.39 Q1481.19 1478.22 1481.19 1474.49 Q1481.19 1470.74 1479.34 1468.59 Q1477.51 1466.44 1474.36 1466.44 M1483.65 1451.78 L1483.65 1456.04 Q1481.89 1455.21 1480.08 1454.77 Q1478.3 1454.33 1476.54 1454.33 Q1471.91 1454.33 1469.46 1457.45 Q1467.03 1460.58 1466.68 1466.9 Q1468.05 1464.89 1470.11 1463.82 Q1472.17 1462.73 1474.64 1462.73 Q1479.85 1462.73 1482.86 1465.9 Q1485.89 1469.05 1485.89 1474.49 Q1485.89 1479.82 1482.74 1483.03 Q1479.6 1486.25 1474.36 1486.25 Q1468.37 1486.25 1465.2 1481.67 Q1462.03 1477.06 1462.03 1468.33 Q1462.03 1460.14 1465.92 1455.28 Q1469.8 1450.39 1476.36 1450.39 Q1478.11 1450.39 1479.9 1450.74 Q1481.7 1451.09 1483.65 1451.78 Z" fill="#000000" fill-rule="nonzero" fill-opacity="1" /><path clip-path="url(#clip410)" d="M1913.36 1469.17 Q1910.02 1469.17 1908.1 1470.95 Q1906.2 1472.73 1906.2 1475.86 Q1906.2 1478.98 1908.1 1480.77 Q1910.02 1482.55 1913.36 1482.55 Q1916.69 1482.55 1918.61 1480.77 Q1920.53 1478.96 1920.53 1475.86 Q1920.53 1472.73 1918.61 1470.95 Q1916.71 1469.17 1913.36 1469.17 M1908.68 1467.18 Q1905.67 1466.44 1903.98 1464.38 Q1902.32 1462.32 1902.32 1459.35 Q1902.32 1455.21 1905.26 1452.8 Q1908.22 1450.39 1913.36 1450.39 Q1918.52 1450.39 1921.46 1452.8 Q1924.4 1455.21 1924.4 1459.35 Q1924.4 1462.32 1922.71 1464.38 Q1921.04 1466.44 1918.06 1467.18 Q1921.44 1467.96 1923.31 1470.26 Q1925.21 1472.55 1925.21 1475.86 Q1925.21 1480.88 1922.13 1483.57 Q1919.08 1486.25 1913.36 1486.25 Q1907.64 1486.25 1904.56 1483.57 Q1901.51 1480.88 1901.51 1475.86 Q1901.51 1472.55 1903.4 1470.26 Q1905.3 1467.96 1908.68 1467.18 M1906.97 1459.79 Q1906.97 1462.48 1908.64 1463.98 Q1910.33 1465.49 1913.36 1465.49 Q1916.37 1465.49 1918.06 1463.98 Q1919.77 1462.48 1919.77 1459.79 Q1919.77 1457.11 1918.06 1455.6 Q1916.37 1454.1 1913.36 1454.1 Q1910.33 1454.1 1908.64 1455.6 Q1906.97 1457.11 1906.97 1459.79 Z" fill="#000000" fill-rule="nonzero" fill-opacity="1" /><path clip-path="url(#clip410)" d="M2327.44 1481.64 L2335.08 1481.64 L2335.08 1455.28 L2326.77 1456.95 L2326.77 1452.69 L2335.04 1451.02 L2339.71 1451.02 L2339.71 1481.64 L2347.35 1481.64 L2347.35 1485.58 L2327.44 1485.58 L2327.44 1481.64 Z" fill="#000000" fill-rule="nonzero" fill-opacity="1" /><path clip-path="url(#clip410)" d="M2366.8 1454.1 Q2363.18 1454.1 2361.36 1457.66 Q2359.55 1461.2 2359.55 1468.33 Q2359.55 1475.44 2361.36 1479.01 Q2363.18 1482.55 2366.8 1482.55 Q2370.43 1482.55 2372.23 1479.01 Q2374.06 1475.44 2374.06 1468.33 Q2374.06 1461.2 2372.23 1457.66 Q2370.43 1454.1 2366.8 1454.1 M2366.8 1450.39 Q2372.61 1450.39 2375.66 1455 Q2378.74 1459.58 2378.74 1468.33 Q2378.74 1477.06 2375.66 1481.67 Q2372.61 1486.25 2366.8 1486.25 Q2360.99 1486.25 2357.91 1481.67 Q2354.85 1477.06 2354.85 1468.33 Q2354.85 1459.58 2357.91 1455 Q2360.99 1450.39 2366.8 1450.39 Z" fill="#000000" fill-rule="nonzero" fill-opacity="1" /><path clip-path="url(#clip410)" d="M1253.32 1522.27 L1253.32 1532.4 L1265.38 1532.4 L1265.38 1536.95 L1253.32 1536.95 L1253.32 1556.3 Q1253.32 1560.66 1254.5 1561.9 Q1255.71 1563.14 1259.37 1563.14 L1265.38 1563.14 L1265.38 1568.04 L1259.37 1568.04 Q1252.59 1568.04 1250.01 1565.53 Q1247.43 1562.98 1247.43 1556.3 L1247.43 1536.95 L1243.14 1536.95 L1243.14 1532.4 L1247.43 1532.4 L1247.43 1522.27 L1253.32 1522.27 Z" fill="#000000" fill-rule="nonzero" fill-opacity="1" /><polyline clip-path="url(#clip410)" style="stroke:#000000; stroke-linecap:round; stroke-linejoin:round; stroke-width:4; stroke-opacity:1; fill:none" points="155.765,1423.18 155.765,47.2441 "/>
<polyline clip-path="url(#clip410)" style="stroke:#000000; stroke-linecap:round; stroke-linejoin:round; stroke-width:4; stroke-opacity:1; fill:none" points="155.765,1187.13 174.663,1187.13 "/>
<polyline clip-path="url(#clip410)" style="stroke:#000000; stroke-linecap:round; stroke-linejoin:round; stroke-width:4; stroke-opacity:1; fill:none" points="155.765,919.306 174.663,919.306 "/>
<polyline clip-path="url(#clip410)" style="stroke:#000000; stroke-linecap:round; stroke-linejoin:round; stroke-width:4; stroke-opacity:1; fill:none" points="155.765,651.479 174.663,651.479 "/>
<polyline clip-path="url(#clip410)" style="stroke:#000000; stroke-linecap:round; stroke-linejoin:round; stroke-width:4; stroke-opacity:1; fill:none" points="155.765,383.653 174.663,383.653 "/>
<polyline clip-path="url(#clip410)" style="stroke:#000000; stroke-linecap:round; stroke-linejoin:round; stroke-width:4; stroke-opacity:1; fill:none" points="155.765,115.827 174.663,115.827 "/>
<path clip-path="url(#clip410)" d="M63.5847 1172.93 Q59.9736 1172.93 58.1449 1176.5 Q56.3393 1180.04 56.3393 1187.17 Q56.3393 1194.27 58.1449 1197.84 Q59.9736 1201.38 63.5847 1201.38 Q67.2189 1201.38 69.0244 1197.84 Q70.8531 1194.27 70.8531 1187.17 Q70.8531 1180.04 69.0244 1176.5 Q67.2189 1172.93 63.5847 1172.93 M63.5847 1169.23 Q69.3948 1169.23 72.4503 1173.83 Q75.529 1178.42 75.529 1187.17 Q75.529 1195.89 72.4503 1200.5 Q69.3948 1205.08 63.5847 1205.08 Q57.7745 1205.08 54.6958 1200.5 Q51.6403 1195.89 51.6403 1187.17 Q51.6403 1178.42 54.6958 1173.83 Q57.7745 1169.23 63.5847 1169.23 Z" fill="#000000" fill-rule="nonzero" fill-opacity="1" /><path clip-path="url(#clip410)" d="M83.7466 1198.53 L88.6308 1198.53 L88.6308 1204.41 L83.7466 1204.41 L83.7466 1198.53 Z" fill="#000000" fill-rule="nonzero" fill-opacity="1" /><path clip-path="url(#clip410)" d="M98.8622 1169.85 L117.219 1169.85 L117.219 1173.79 L103.145 1173.79 L103.145 1182.26 Q104.163 1181.91 105.182 1181.75 Q106.2 1181.56 107.219 1181.56 Q113.006 1181.56 116.385 1184.74 Q119.765 1187.91 119.765 1193.32 Q119.765 1198.9 116.293 1202 Q112.82 1205.08 106.501 1205.08 Q104.325 1205.08 102.057 1204.71 Q99.8113 1204.34 97.4039 1203.6 L97.4039 1198.9 Q99.4872 1200.04 101.709 1200.59 Q103.932 1201.15 106.408 1201.15 Q110.413 1201.15 112.751 1199.04 Q115.089 1196.93 115.089 1193.32 Q115.089 1189.71 112.751 1187.61 Q110.413 1185.5 106.408 1185.5 Q104.534 1185.5 102.659 1185.92 Q100.807 1186.33 98.8622 1187.21 L98.8622 1169.85 Z" fill="#000000" fill-rule="nonzero" fill-opacity="1" /><path clip-path="url(#clip410)" d="M53.3995 932.65 L61.0384 932.65 L61.0384 906.285 L52.7282 907.951 L52.7282 903.692 L60.9921 902.026 L65.668 902.026 L65.668 932.65 L73.3068 932.65 L73.3068 936.586 L53.3995 936.586 L53.3995 932.65 Z" fill="#000000" fill-rule="nonzero" fill-opacity="1" /><path clip-path="url(#clip410)" d="M82.7512 930.706 L87.6354 930.706 L87.6354 936.586 L82.7512 936.586 L82.7512 930.706 Z" fill="#000000" fill-rule="nonzero" fill-opacity="1" /><path clip-path="url(#clip410)" d="M107.821 905.104 Q104.209 905.104 102.381 908.669 Q100.575 912.211 100.575 919.34 Q100.575 926.447 102.381 930.011 Q104.209 933.553 107.821 933.553 Q111.455 933.553 113.26 930.011 Q115.089 926.447 115.089 919.34 Q115.089 912.211 113.26 908.669 Q111.455 905.104 107.821 905.104 M107.821 901.401 Q113.631 901.401 116.686 906.007 Q119.765 910.59 119.765 919.34 Q119.765 928.067 116.686 932.673 Q113.631 937.257 107.821 937.257 Q102.01 937.257 98.9317 932.673 Q95.8761 928.067 95.8761 919.34 Q95.8761 910.59 98.9317 906.007 Q102.01 901.401 107.821 901.401 Z" fill="#000000" fill-rule="nonzero" fill-opacity="1" /><path clip-path="url(#clip410)" d="M54.3949 664.824 L62.0337 664.824 L62.0337 638.459 L53.7236 640.125 L53.7236 635.866 L61.9874 634.199 L66.6633 634.199 L66.6633 664.824 L74.3022 664.824 L74.3022 668.759 L54.3949 668.759 L54.3949 664.824 Z" fill="#000000" fill-rule="nonzero" fill-opacity="1" /><path clip-path="url(#clip410)" d="M83.7466 662.88 L88.6308 662.88 L88.6308 668.759 L83.7466 668.759 L83.7466 662.88 Z" fill="#000000" fill-rule="nonzero" fill-opacity="1" /><path clip-path="url(#clip410)" d="M98.8622 634.199 L117.219 634.199 L117.219 638.134 L103.145 638.134 L103.145 646.607 Q104.163 646.259 105.182 646.097 Q106.2 645.912 107.219 645.912 Q113.006 645.912 116.385 649.083 Q119.765 652.255 119.765 657.671 Q119.765 663.25 116.293 666.352 Q112.82 669.431 106.501 669.431 Q104.325 669.431 102.057 669.06 Q99.8113 668.69 97.4039 667.949 L97.4039 663.25 Q99.4872 664.384 101.709 664.94 Q103.932 665.495 106.408 665.495 Q110.413 665.495 112.751 663.389 Q115.089 661.282 115.089 657.671 Q115.089 654.06 112.751 651.954 Q110.413 649.847 106.408 649.847 Q104.534 649.847 102.659 650.264 Q100.807 650.681 98.8622 651.56 L98.8622 634.199 Z" fill="#000000" fill-rule="nonzero" fill-opacity="1" /><path clip-path="url(#clip410)" d="M56.6171 396.998 L72.9365 396.998 L72.9365 400.933 L50.9921 400.933 L50.9921 396.998 Q53.6541 394.243 58.2375 389.614 Q62.8439 384.961 64.0245 383.618 Q66.2698 381.095 67.1494 379.359 Q68.0522 377.6 68.0522 375.91 Q68.0522 373.155 66.1078 371.419 Q64.1865 369.683 61.0847 369.683 Q58.8856 369.683 56.4319 370.447 Q54.0014 371.211 51.2236 372.762 L51.2236 368.04 Q54.0477 366.905 56.5014 366.327 Q58.955 365.748 60.9921 365.748 Q66.3624 365.748 69.5568 368.433 Q72.7513 371.118 72.7513 375.609 Q72.7513 377.739 71.9411 379.66 Q71.1541 381.558 69.0476 384.151 Q68.4689 384.822 65.367 388.04 Q62.2652 391.234 56.6171 396.998 Z" fill="#000000" fill-rule="nonzero" fill-opacity="1" /><path clip-path="url(#clip410)" d="M82.7512 395.053 L87.6354 395.053 L87.6354 400.933 L82.7512 400.933 L82.7512 395.053 Z" fill="#000000" fill-rule="nonzero" fill-opacity="1" /><path clip-path="url(#clip410)" d="M107.821 369.452 Q104.209 369.452 102.381 373.017 Q100.575 376.558 100.575 383.688 Q100.575 390.794 102.381 394.359 Q104.209 397.901 107.821 397.901 Q111.455 397.901 113.26 394.359 Q115.089 390.794 115.089 383.688 Q115.089 376.558 113.26 373.017 Q111.455 369.452 107.821 369.452 M107.821 365.748 Q113.631 365.748 116.686 370.354 Q119.765 374.938 119.765 383.688 Q119.765 392.415 116.686 397.021 Q113.631 401.604 107.821 401.604 Q102.01 401.604 98.9317 397.021 Q95.8761 392.415 95.8761 383.688 Q95.8761 374.938 98.9317 370.354 Q102.01 365.748 107.821 365.748 Z" fill="#000000" fill-rule="nonzero" fill-opacity="1" /><path clip-path="url(#clip410)" d="M57.6125 129.172 L73.9318 129.172 L73.9318 133.107 L51.9875 133.107 L51.9875 129.172 Q54.6495 126.417 59.2328 121.787 Q63.8393 117.135 65.0198 115.792 Q67.2652 113.269 68.1448 111.533 Q69.0476 109.774 69.0476 108.084 Q69.0476 105.329 67.1032 103.593 Q65.1819 101.857 62.08 101.857 Q59.881 101.857 57.4273 102.621 Q54.9967 103.385 52.219 104.936 L52.219 100.213 Q55.043 99.0792 57.4967 98.5005 Q59.9504 97.9218 61.9874 97.9218 Q67.3578 97.9218 70.5522 100.607 Q73.7466 103.292 73.7466 107.783 Q73.7466 109.912 72.9365 111.834 Q72.1494 113.732 70.0429 116.324 Q69.4642 116.996 66.3624 120.213 Q63.2606 123.408 57.6125 129.172 Z" fill="#000000" fill-rule="nonzero" fill-opacity="1" /><path clip-path="url(#clip410)" d="M83.7466 127.227 L88.6308 127.227 L88.6308 133.107 L83.7466 133.107 L83.7466 127.227 Z" fill="#000000" fill-rule="nonzero" fill-opacity="1" /><path clip-path="url(#clip410)" d="M98.8622 98.5468 L117.219 98.5468 L117.219 102.482 L103.145 102.482 L103.145 110.954 Q104.163 110.607 105.182 110.445 Q106.2 110.26 107.219 110.26 Q113.006 110.26 116.385 113.431 Q119.765 116.602 119.765 122.019 Q119.765 127.598 116.293 130.699 Q112.82 133.778 106.501 133.778 Q104.325 133.778 102.057 133.408 Q99.8113 133.037 97.4039 132.297 L97.4039 127.598 Q99.4872 128.732 101.709 129.287 Q103.932 129.843 106.408 129.843 Q110.413 129.843 112.751 127.736 Q115.089 125.63 115.089 122.019 Q115.089 118.408 112.751 116.301 Q110.413 114.195 106.408 114.195 Q104.534 114.195 102.659 114.612 Q100.807 115.028 98.8622 115.908 L98.8622 98.5468 Z" fill="#000000" fill-rule="nonzero" fill-opacity="1" /><polyline clip-path="url(#clip411)" style="stroke:#009af9; stroke-linecap:round; stroke-linejoin:round; stroke-width:8; stroke-opacity:1; fill:none" points="155.765,1347.83 157.964,1346.75 160.163,1345.66 162.362,1344.56 164.562,1343.45 166.761,1342.33 168.96,1341.2 171.159,1340.05 173.358,1338.9 175.558,1337.73 177.757,1336.55 179.956,1335.36 182.155,1334.15 184.354,1332.94 186.554,1331.71 188.753,1330.47 190.952,1329.22 193.151,1327.95 195.35,1326.68 197.55,1325.39 199.749,1324.08 201.948,1322.77 204.147,1321.44 206.346,1320.09 208.545,1318.74 210.745,1317.37 212.944,1315.98 215.143,1314.58 217.342,1313.17 219.541,1311.74 221.741,1310.3 223.94,1308.85 226.139,1307.38 228.338,1305.89 230.537,1304.39 232.737,1302.88 234.936,1301.35 237.135,1299.8 239.334,1298.24 241.533,1296.67 243.733,1295.07 245.932,1293.47 248.131,1291.84 250.33,1290.2 252.529,1288.54 254.728,1286.87 256.928,1285.18 259.127,1283.47 261.326,1281.74 263.525,1280 265.724,1278.24 267.924,1276.46 270.123,1274.67 272.322,1272.85 274.521,1271.02 276.72,1269.17 278.92,1267.3 281.119,1265.41 283.318,1263.51 285.517,1261.58 287.716,1259.64 289.916,1257.67 292.115,1255.69 294.314,1253.68 296.513,1251.66 298.712,1249.61 300.911,1247.55 303.111,1245.46 305.31,1243.35 307.509,1241.22 309.708,1239.07 311.907,1236.9 314.107,1234.71 316.306,1232.49 318.505,1230.25 320.704,1227.99 322.903,1225.71 325.103,1223.4 327.302,1221.07 329.501,1218.72 331.7,1216.34 333.899,1213.94 336.099,1211.52 338.298,1209.07 340.497,1206.6 342.696,1204.1 344.895,1201.57 347.094,1199.02 349.294,1196.45 351.493,1324.4 353.692,1323.09 355.891,1321.76 358.09,1320.42 360.29,1319.07 362.489,1317.7 364.688,1316.32 366.887,1314.93 369.086,1384.24 371.286,1383.53 373.485,1382.81 375.684,1382.08 377.883,1381.35 380.082,1380.61 382.281,1379.86 384.481,1379.11 386.68,1378.34 388.879,1377.57 391.078,1376.79 393.277,1376.01 395.477,1375.21 397.676,1374.41 399.875,1373.6 402.074,1372.78 404.273,1371.95 406.473,1371.12 408.672,1370.28 410.871,1369.42 413.07,1368.56 415.269,1367.69 417.469,1366.82 419.668,1365.93 421.867,1365.03 424.066,1364.13 426.265,1363.22 428.464,1362.29 430.664,1361.36 432.863,1360.42 435.062,1359.47 437.261,1358.51 439.46,1357.54 441.66,1356.56 443.859,1355.57 446.058,1354.57 448.257,1353.56 450.456,1352.54 452.656,1351.51 454.855,1350.47 457.054,1349.41 459.253,1348.35 461.452,1347.28 463.652,1346.2 465.851,1345.1 468.05,1344 470.249,1342.88 472.448,1341.75 474.647,1340.61 476.847,1339.46 479.046,1338.3 481.245,1337.13 483.444,1335.94 485.643,1334.75 487.843,1333.54 490.042,1332.32 492.241,1331.08 494.44,1329.84 496.639,1328.58 498.839,1327.31 501.038,1326.02 503.237,1324.72 505.436,1323.41 507.635,1322.09 509.835,1320.75 512.034,1319.4 514.233,1318.04 516.432,1316.66 518.631,1315.27 520.83,1313.87 523.03,1312.45 525.229,1311.01 527.428,1309.57 529.627,1308.1 531.826,1306.63 534.026,1305.13 536.225,1303.63 538.424,1302.1 540.623,1300.57 542.822,1299.01 545.022,1297.44 547.221,1295.86 549.42,1294.26 551.619,1292.64 553.818,1291.01 556.018,1289.36 558.217,1287.69 560.416,1286.01 562.615,1284.31 564.814,1282.59 567.013,1280.86 569.213,1279.11 571.412,1277.34 573.611,1275.55 575.81,1273.75 578.009,1271.92 580.209,1270.08 582.408,1268.22 584.607,1266.34 586.806,1264.45 589.005,1262.53 591.205,1260.59 593.404,1258.64 595.603,1256.66 597.802,1254.67 600.001,1252.65 602.201,1250.62 604.4,1248.56 606.599,1246.49 608.798,1244.39 610.997,1242.27 613.196,1240.13 615.396,1237.97 617.595,1235.79 619.794,1233.58 621.993,1231.35 624.192,1229.11 626.392,1226.83 628.591,1224.54 630.79,1222.22 632.989,1219.88 635.188,1217.51 637.388,1215.13 639.587,1212.71 641.786,1210.28 643.985,1207.82 646.184,1205.33 648.384,1202.82 650.583,1200.28 652.782,1197.72 654.981,1195.13 657.18,1192.52 659.379,1189.88 661.579,1187.21 663.778,1184.52 665.977,1181.8 668.176,1179.05 670.375,1176.27 672.575,1173.47 674.774,1170.64 676.973,1167.78 679.172,1164.89 681.371,1161.97 683.571,1159.02 685.77,1156.04 687.969,1153.04 690.168,1150 692.367,1146.93 694.567,1143.83 696.766,1140.7 698.965,1137.54 701.164,1134.35 703.363,1131.12 705.562,1127.86 707.762,1124.57 709.961,1121.25 712.16,1117.89 714.359,1114.5 716.558,1111.07 718.758,1107.61 720.957,1104.12 723.156,1100.59 725.355,1097.03 727.554,1093.42 729.754,1089.79 731.953,1086.11 734.152,1082.4 736.351,1078.65 738.55,1074.87 740.749,1071.04 742.949,1067.18 745.148,1063.28 747.347,1059.34 749.546,1055.36 751.745,1051.34 753.945,1047.28 756.144,1043.18 758.343,1039.04 760.542,1034.86 762.741,1030.63 764.941,1026.36 767.14,1022.05 769.339,1017.7 771.538,1013.3 773.737,1008.85 775.937,1004.37 778.136,999.835 780.335,995.257 782.534,990.633 784.733,985.962 786.932,981.244 789.132,976.479 791.331,971.666 793.53,966.804 795.729,961.894 797.928,956.934 800.128,951.924 802.327,946.864 804.526,941.752 806.725,936.589 808.924,931.374 811.124,926.107 813.323,920.787 815.522,915.413 817.721,909.984 819.92,904.501 822.12,898.963 824.319,893.369 826.518,887.719 828.717,882.012 830.916,876.248 833.115,870.425 835.315,864.544 837.514,858.603 839.713,852.603 841.912,846.542 844.111,840.421 846.311,834.237 848.51,827.992 850.709,821.684 852.908,815.312 855.107,808.877 857.307,802.377 859.506,795.811 861.705,789.18 863.904,782.482 866.103,775.716 868.303,768.883 870.502,761.98 872.701,755.008 874.9,747.966 877.099,740.853 879.298,733.669 881.498,726.412 883.697,719.083 885.896,711.679 888.095,704.202 890.294,696.649 892.494,689.02 894.693,681.315 896.892,673.532 899.091,665.671 901.29,657.731 903.49,649.711 905.689,641.611 907.888,633.429 910.087,625.166 912.286,616.819 914.486,608.388 916.685,599.872 918.884,591.271 921.083,582.584 923.282,573.809 925.481,564.946 927.681,555.994 929.88,546.951 932.079,537.818 934.278,528.593 936.477,519.275 938.677,509.863 940.876,500.357 943.075,490.754 945.274,481.056 947.473,471.259 949.673,461.364 951.872,451.369 954.071,441.273 956.27,431.076 958.469,420.776 960.669,410.373 962.868,399.864 965.067,389.25 967.266,378.529 969.465,367.699 971.664,356.761 973.864,345.712 976.063,334.552 978.262,323.28 980.461,311.894 982.66,300.393 984.86,288.777 987.059,277.043 989.258,265.191 991.457,253.22 993.656,241.129 995.856,228.916 998.055,216.579 1000.25,204.119 1002.45,191.533 1004.65,178.821 1006.85,165.981 1009.05,153.012 1011.25,139.912 1013.45,126.681 1015.65,113.317 1017.85,99.8193 1020.05,86.1857 1022.25,763.688 1024.45,756.733 1026.64,749.709 1028.84,742.614 1031.04,735.447 1033.24,728.209 1035.44,720.898 1037.64,713.513 1039.84,706.053 1042.04,698.519 1044.24,690.909 1046.44,683.223 1048.64,675.459 1050.84,667.617 1053.03,659.696 1055.23,651.696 1057.43,643.615 1059.63,635.453 1061.83,627.208 1064.03,618.881 1066.23,610.47 1068.43,601.975 1070.63,593.394 1072.83,584.726 1075.03,575.972 1077.23,567.129 1079.42,558.197 1081.62,549.176 1083.82,540.064 1086.02,530.859 1088.22,521.563 1090.42,512.173 1092.62,502.688 1094.82,493.108 1097.02,483.431 1099.22,473.657 1101.42,463.785 1103.62,453.813 1105.82,443.741 1108.01,433.568 1110.21,423.292 1112.41,412.913 1114.61,402.43 1116.81,391.841 1119.01,381.145 1121.21,370.342 1123.41,907.214 1125.61,901.704 1127.81,896.138 1130.01,890.516 1132.21,884.837 1134.4,879.102 1136.6,873.308 1138.8,867.457 1141,861.546 1143.2,855.577 1145.4,849.547 1147.6,843.456 1149.8,837.304 1152,831.09 1154.2,824.814 1156.4,818.475 1158.6,812.072 1160.79,805.604 1162.99,799.072 1165.19,792.473 1167.39,785.809 1169.59,779.077 1171.79,772.278 1173.99,765.41 1176.19,758.473 1178.39,751.466 1180.59,744.389 1182.79,737.24 1184.99,730.02 1187.19,722.727 1189.38,715.36 1191.58,707.92 1193.78,700.404 1195.98,692.813 1198.18,685.145 1200.38,677.401 1202.58,669.578 1204.78,661.677 1206.98,653.696 1209.18,645.635 1211.38,637.493 1213.58,1042.13 1215.77,1037.97 1217.97,1033.78 1220.17,1029.54 1222.37,1025.26 1224.57,1020.94 1226.77,1016.57 1228.97,1012.16 1231.17,1007.71 1233.37,1003.21 1235.57,998.664 1237.77,994.074 1239.97,1222.2 1242.16,1219.85 1244.36,1217.49 1246.56,1215.1 1248.76,1212.69 1250.96,1210.25 1253.16,1207.79 1255.36,1205.3 1257.56,1202.79 1259.76,1200.25 1261.96,1197.69 1264.16,1195.1 1266.36,1192.49 1268.56,1189.85 1270.75,1187.18 1272.95,1184.49 1275.15,1181.77 1277.35,1179.02 1279.55,1176.24 1281.75,1173.44 1283.95,1170.61 1286.15,1167.75 1288.35,1164.86 1290.55,1161.94 1292.75,1158.99 1294.95,1156.01 1297.14,1153.01 1299.34,1149.97 1301.54,1146.9 1303.74,1143.8 1305.94,1140.67 1308.14,1137.51 1310.34,1134.32 1312.54,1131.09 1314.74,1127.84 1316.94,1124.55 1319.14,1121.22 1321.34,1117.87 1323.53,1114.48 1325.73,1111.05 1327.93,1107.59 1330.13,1104.1 1332.33,1100.57 1334.53,1097 1336.73,1093.4 1338.93,1089.76 1341.13,1086.09 1343.33,1082.38 1345.53,1078.63 1347.73,1074.84 1349.93,1071.02 1352.12,1067.16 1354.32,1063.26 1356.52,1059.32 1358.72,1055.33 1360.92,1051.31 1363.12,1047.25 1365.32,1043.15 1367.52,1039.01 1369.72,1034.82 1371.92,1030.59 1374.12,1026.32 1376.32,1022.01 1378.51,1017.66 1380.71,1013.26 1382.91,1008.81 1385.11,1004.32 1387.31,999.788 1389.51,995.208 1391.71,990.582 1393.91,985.91 1396.11,981.191 1398.31,976.425 1400.51,971.61 1402.71,966.748 1404.9,961.836 1407.1,956.875 1409.3,951.864 1411.5,946.803 1413.7,941.691 1415.9,936.527 1418.1,931.311 1420.3,926.043 1422.5,920.722 1424.7,915.348 1426.9,909.919 1429.1,904.436 1431.3,898.898 1433.49,893.304 1435.69,887.653 1437.89,881.946 1440.09,876.182 1442.29,870.359 1444.49,864.478 1446.69,858.538 1448.89,852.538 1451.09,846.477 1453.29,840.356 1455.49,834.173 1457.69,827.928 1459.88,821.62 1462.08,815.249 1464.28,808.813 1466.48,802.313 1468.68,795.747 1470.88,789.115 1473.08,782.416 1475.28,775.65 1477.48,768.816 1479.68,761.914 1481.88,754.941 1484.08,747.899 1486.27,740.785 1488.47,733.6 1490.67,726.343 1492.87,719.013 1495.07,711.609 1497.27,704.13 1499.47,696.577 1501.67,688.947 1503.87,1068.13 1506.07,1064.24 1508.27,1060.31 1510.47,1056.34 1512.67,1052.33 1514.86,1048.27 1517.06,1044.18 1519.26,1040.05 1521.46,1035.88 1523.66,1031.66 1525.86,1027.4 1528.06,1023.1 1530.26,1018.76 1532.46,1014.37 1534.66,1009.94 1536.86,1005.46 1539.06,1000.94 1541.25,996.369 1543.45,991.756 1545.65,987.096 1547.85,982.389 1550.05,977.635 1552.25,972.833 1554.45,967.983 1556.65,963.084 1558.85,958.136 1561.05,953.138 1563.25,948.089 1565.45,942.99 1567.65,937.839 1569.84,932.637 1572.04,927.382 1574.24,922.075 1576.44,916.714 1578.64,911.299 1580.84,905.829 1583.04,900.305 1585.24,894.725 1587.44,889.089 1589.64,883.396 1591.84,877.646 1594.04,871.838 1596.23,865.971 1598.43,860.046 1600.63,854.061 1602.83,1151.49 1605.03,1148.43 1607.23,1145.35 1609.43,1142.24 1611.63,1139.09 1613.83,1135.91 1616.03,1132.7 1618.23,1292.21 1620.43,1290.57 1622.62,1288.92 1624.82,1287.25 1627.02,1285.56 1629.22,1283.86 1631.42,1282.13 1633.62,1280.4 1635.82,1278.64 1638.02,1276.87 1640.22,1275.07 1642.42,1273.27 1644.62,1271.44 1646.82,1269.59 1649.02,1267.73 1651.21,1265.84 1653.41,1263.94 1655.61,1262.02 1657.81,1260.08 1660.01,1258.12 1662.21,1256.14 1664.41,1254.14 1666.61,1252.12 1668.81,1250.08 1671.01,1248.01 1673.21,1245.93 1675.41,1243.83 1677.6,1241.71 1679.8,1239.56 1682,1237.39 1684.2,1235.2 1686.4,1232.99 1688.6,1230.76 1690.8,1228.5 1693,1226.23 1695.2,1223.93 1697.4,1221.6 1699.6,1219.25 1701.8,1216.88 1703.99,1334.72 1706.19,1333.51 1708.39,1332.29 1710.59,1331.06 1712.79,1329.81 1714.99,1328.55 1717.19,1327.28 1719.39,1326 1721.59,1324.7 1723.79,1323.39 1725.99,1322.06 1728.19,1320.73 1730.39,1319.38 1732.58,1318.01 1734.78,1316.64 1736.98,1315.24 1739.18,1313.84 1741.38,1312.42 1743.58,1310.98 1745.78,1309.54 1747.98,1308.07 1750.18,1306.6 1752.38,1305.1 1754.58,1303.59 1756.78,1302.07 1758.97,1300.53 1761.17,1298.98 1763.37,1297.41 1765.57,1295.83 1767.77,1294.23 1769.97,1292.61 1772.17,1290.98 1774.37,1289.33 1776.57,1287.66 1778.77,1285.98 1780.97,1284.28 1783.17,1282.56 1785.36,1280.82 1787.56,1279.07 1789.76,1277.3 1791.96,1275.52 1794.16,1273.71 1796.36,1271.89 1798.56,1270.05 1800.76,1268.19 1802.96,1266.31 1805.16,1264.41 1807.36,1262.49 1809.56,1260.56 1811.76,1258.6 1813.95,1256.62 1816.15,1254.63 1818.35,1252.61 1820.55,1250.58 1822.75,1248.52 1824.95,1246.45 1827.15,1244.35 1829.35,1242.23 1831.55,1240.09 1833.75,1237.93 1835.95,1235.74 1838.15,1233.54 1840.34,1231.31 1842.54,1229.06 1844.74,1226.79 1846.94,1224.49 1849.14,1222.17 1851.34,1219.83 1853.54,1217.47 1855.74,1215.08 1857.94,1212.66 1860.14,1210.23 1862.34,1207.77 1864.54,1205.28 1866.73,1202.77 1868.93,1200.23 1871.13,1197.67 1873.33,1195.08 1875.53,1192.46 1877.73,1189.82 1879.93,1187.16 1882.13,1184.46 1884.33,1181.74 1886.53,1178.99 1888.73,1176.21 1890.93,1173.41 1893.13,1170.58 1895.32,1167.72 1897.52,1164.83 1899.72,1161.91 1901.92,1158.96 1904.12,1155.98 1906.32,1152.97 1908.52,1149.94 1910.72,1146.87 1912.92,1143.77 1915.12,1140.64 1917.32,1137.48 1919.52,1134.28 1921.71,1131.06 1923.91,1127.8 1926.11,1124.51 1928.31,1121.18 1930.51,1117.82 1932.71,1114.43 1934.91,1111.01 1937.11,1107.55 1939.31,1104.05 1941.51,1100.52 1943.71,1096.96 1945.91,1093.35 1948.1,1089.72 1950.3,1086.04 1952.5,1082.33 1954.7,1078.58 1956.9,1074.8 1959.1,1070.97 1961.3,1067.11 1963.5,1063.21 1965.7,1059.27 1967.9,1055.29 1970.1,1051.26 1972.3,1047.2 1974.5,1043.1 1976.69,1038.96 1978.89,1034.77 1981.09,1030.54 1983.29,1026.27 1985.49,1021.96 1987.69,1017.61 1989.89,1013.21 1992.09,1008.76 1994.29,1004.27 1996.49,999.738 1998.69,995.158 2000.89,990.533 2003.08,985.86 2005.28,981.141 2007.48,976.374 2009.68,971.559 2011.88,966.696 2014.08,961.784 2016.28,956.822 2018.48,951.811 2020.68,946.749 2022.88,941.636 2025.08,936.472 2027.28,931.256 2029.47,925.987 2031.67,920.665 2033.87,915.29 2036.07,909.861 2038.27,904.378 2040.47,898.839 2042.67,893.245 2044.87,887.594 2047.07,881.887 2049.27,876.122 2051.47,870.299 2053.67,864.418 2055.87,858.477 2058.06,852.477 2060.26,846.416 2062.46,840.295 2064.66,834.112 2066.86,827.866 2069.06,821.558 2071.26,815.187 2073.46,808.751 2075.66,802.25 2077.86,795.684 2080.06,789.052 2082.26,782.353 2084.45,775.587 2086.65,768.752 2088.85,761.849 2091.05,754.876 2093.25,747.833 2095.45,740.719 2097.65,733.533 2099.85,726.275 2102.05,718.944 2104.25,711.54 2106.45,704.06 2108.65,696.505 2110.84,688.875 2113.04,681.167 2115.24,673.382 2117.44,665.518 2119.64,657.576 2121.84,649.553 2124.04,641.45 2126.24,633.265 2128.44,624.998 2130.64,616.648 2132.84,608.214 2135.04,599.695 2137.24,591.091 2139.43,582.4 2141.63,573.622 2143.83,564.756 2146.03,555.8 2148.23,1000.86 2150.43,996.287 2152.63,991.673 2154.83,987.012 2157.03,982.304 2159.23,977.549 2161.43,972.746 2163.63,967.895 2165.82,962.995 2168.02,958.046 2170.22,953.047 2172.42,947.998 2174.62,942.897 2176.82,937.746 2179.02,932.543 2181.22,927.287 2183.42,921.979 2185.62,916.617 2187.82,911.201 2190.02,905.731 2192.22,900.206 2194.41,894.625 2196.61,888.988 2198.81,883.294 2201.01,877.543 2203.21,871.735 2205.41,865.867 2207.61,859.941 2209.81,853.955 2212.01,847.909 2214.21,841.802 2216.41,835.633 2218.61,829.403 2220.8,823.109 2223,816.753 2225.2,810.332 2227.4,803.847 2229.6,797.296 2231.8,790.68 2234,783.997 2236.2,777.247 2238.4,770.429 2240.6,763.542 2242.8,756.586 2245,749.56 2247.19,742.463 2249.39,1095.13 2251.59,1091.51 2253.79,1087.85 2255.99,1084.16 2258.19,1080.43 2260.39,1076.66 2262.59,1072.85 2264.79,1069.01 2266.99,1065.13 2269.19,1061.2 2271.39,1057.24 2273.59,1053.24 2275.78,1049.2 2277.98,1045.12 2280.18,1041 2282.38,1036.83 2284.58,1032.62 2286.78,1028.38 2288.98,1024.08 2291.18,1019.75 2293.38,1015.37 2295.58,1010.95 2297.78,1006.48 2299.98,1001.97 2302.17,997.414 2304.37,992.811 2306.57,988.162 2308.77,983.466 2310.97,978.723 2313.17,973.932 2315.37,969.092 2317.57,964.204 2319.77,959.267 2321.97,954.28 2324.17,949.243 2326.37,944.156 2328.56,939.017 2330.76,933.826 2332.96,928.583 2335.16,923.288 2337.36,917.939 2339.56,912.536 2341.76,907.079 2343.96,901.567 2346.16,896 2348.36,890.376 2350.56,884.696 2352.76,878.959 "/>
<path clip-path="url(#clip410)" d="M1970.73 196.789 L2279.52 196.789 L2279.52 93.1086 L1970.73 93.1086  Z" fill="#ffffff" fill-rule="evenodd" fill-opacity="1"/>
<polyline clip-path="url(#clip410)" style="stroke:#000000; stroke-linecap:round; stroke-linejoin:round; stroke-width:4; stroke-opacity:1; fill:none" points="1970.73,196.789 2279.52,196.789 2279.52,93.1086 1970.73,93.1086 1970.73,196.789 "/>
<polyline clip-path="url(#clip410)" style="stroke:#009af9; stroke-linecap:round; stroke-linejoin:round; stroke-width:8; stroke-opacity:1; fill:none" points="1995.14,144.949 2141.6,144.949 "/>
<path clip-path="url(#clip410)" d="M2166.02 151.997 L2166.02 136.303 L2170.27 136.303 L2170.27 151.835 Q2170.27 155.516 2171.71 157.368 Q2173.14 159.196 2176.02 159.196 Q2179.46 159.196 2181.45 156.997 Q2183.47 154.798 2183.47 151.002 L2183.47 136.303 L2187.73 136.303 L2187.73 162.229 L2183.47 162.229 L2183.47 158.247 Q2181.92 160.608 2179.86 161.766 Q2177.82 162.9 2175.11 162.9 Q2170.64 162.9 2168.33 160.122 Q2166.02 157.344 2166.02 151.997 M2176.73 135.678 L2176.73 135.678 Z" fill="#000000" fill-rule="nonzero" fill-opacity="1" /><path clip-path="url(#clip410)" d="M2196.11 126.21 L2205.92 126.21 L2205.92 129.52 L2200.37 129.52 L2200.37 165.168 L2205.92 165.168 L2205.92 168.479 L2196.11 168.479 L2196.11 126.21 Z" fill="#000000" fill-rule="nonzero" fill-opacity="1" /><path clip-path="url(#clip410)" d="M2216.41 158.293 L2224.05 158.293 L2224.05 131.928 L2215.74 133.595 L2215.74 129.335 L2224 127.669 L2228.68 127.669 L2228.68 158.293 L2236.32 158.293 L2236.32 162.229 L2216.41 162.229 L2216.41 158.293 Z" fill="#000000" fill-rule="nonzero" fill-opacity="1" /><path clip-path="url(#clip410)" d="M2255.11 126.21 L2255.11 168.479 L2245.3 168.479 L2245.3 165.168 L2250.83 165.168 L2250.83 129.52 L2245.3 129.52 L2245.3 126.21 L2255.11 126.21 Z" fill="#000000" fill-rule="nonzero" fill-opacity="1" /></svg>
