<?xml version="1.0" encoding="utf-8"?>
<svg xmlns="http://www.w3.org/2000/svg" xmlns:xlink="http://www.w3.org/1999/xlink" width="600" height="400" viewBox="0 0 2400 1600">
<defs>
  <clipPath id="clip380">
    <rect x="0" y="0" width="2400" height="1600"/>
  </clipPath>
</defs>
<path clip-path="url(#clip380)" d="M0 1600 L2400 1600 L2400 0 L0 0  Z" fill="#ffffff" fill-rule="evenodd" fill-opacity="1"/>
<defs>
  <clipPath id="clip381">
    <rect x="156" y="47" width="2197" height="1377"/>
  </clipPath>
</defs>
<path clip-path="url(#clip380)" d="M156.598 1423.18 L2352.76 1423.18 L2352.76 47.2441 L156.598 47.2441  Z" fill="#ffffff" fill-rule="evenodd" fill-opacity="1"/>
<polyline clip-path="url(#clip381)" style="stroke:#000000; stroke-linecap:round; stroke-linejoin:round; stroke-width:2; stroke-opacity:0.1; fill:none" points="156.598,1423.18 156.598,47.2441 "/>
<polyline clip-path="url(#clip381)" style="stroke:#000000; stroke-linecap:round; stroke-linejoin:round; stroke-width:2; stroke-opacity:0.1; fill:none" points="595.83,1423.18 595.83,47.2441 "/>
<polyline clip-path="url(#clip381)" style="stroke:#000000; stroke-linecap:round; stroke-linejoin:round; stroke-width:2; stroke-opacity:0.1; fill:none" points="1035.06,1423.18 1035.06,47.2441 "/>
<polyline clip-path="url(#clip381)" style="stroke:#000000; stroke-linecap:round; stroke-linejoin:round; stroke-width:2; stroke-opacity:0.1; fill:none" points="1474.29,1423.18 1474.29,47.2441 "/>
<polyline clip-path="url(#clip381)" style="stroke:#000000; stroke-linecap:round; stroke-linejoin:round; stroke-width:2; stroke-opacity:0.1; fill:none" points="1913.52,1423.18 1913.52,47.2441 "/>
<polyline clip-path="url(#clip381)" style="stroke:#000000; stroke-linecap:round; stroke-linejoin:round; stroke-width:2; stroke-opacity:0.1; fill:none" points="2352.76,1423.18 2352.76,47.2441 "/>
<polyline clip-path="url(#clip381)" style="stroke:#000000; stroke-linecap:round; stroke-linejoin:round; stroke-width:2; stroke-opacity:0.1; fill:none" points="156.598,1164.55 2352.76,1164.55 "/>
<polyline clip-path="url(#clip381)" style="stroke:#000000; stroke-linecap:round; stroke-linejoin:round; stroke-width:2; stroke-opacity:0.1; fill:none" points="156.598,840.173 2352.76,840.173 "/>
<polyline clip-path="url(#clip381)" style="stroke:#000000; stroke-linecap:round; stroke-linejoin:round; stroke-width:2; stroke-opacity:0.1; fill:none" points="156.598,515.797 2352.76,515.797 "/>
<polyline clip-path="url(#clip381)" style="stroke:#000000; stroke-linecap:round; stroke-linejoin:round; stroke-width:2; stroke-opacity:0.1; fill:none" points="156.598,191.422 2352.76,191.422 "/>
<polyline clip-path="url(#clip380)" style="stroke:#000000; stroke-linecap:round; stroke-linejoin:round; stroke-width:4; stroke-opacity:1; fill:none" points="156.598,1423.18 2352.76,1423.18 "/>
<polyline clip-path="url(#clip380)" style="stroke:#000000; stroke-linecap:round; stroke-linejoin:round; stroke-width:4; stroke-opacity:1; fill:none" points="156.598,1423.18 156.598,1404.28 "/>
<polyline clip-path="url(#clip380)" style="stroke:#000000; stroke-linecap:round; stroke-linejoin:round; stroke-width:4; stroke-opacity:1; fill:none" points="595.83,1423.18 595.83,1404.28 "/>
<polyline clip-path="url(#clip380)" style="stroke:#000000; stroke-linecap:round; stroke-linejoin:round; stroke-width:4; stroke-opacity:1; fill:none" points="1035.06,1423.18 1035.06,1404.28 "/>
<polyline clip-path="url(#clip380)" style="stroke:#000000; stroke-linecap:round; stroke-linejoin:round; stroke-width:4; stroke-opacity:1; fill:none" points="1474.29,1423.18 1474.29,1404.28 "/>
<polyline clip-path="url(#clip380)" style="stroke:#000000; stroke-linecap:round; stroke-linejoin:round; stroke-width:4; stroke-opacity:1; fill:none" points="1913.52,1423.18 1913.52,1404.28 "/>
<polyline clip-path="url(#clip380)" style="stroke:#000000; stroke-linecap:round; stroke-linejoin:round; stroke-width:4; stroke-opacity:1; fill:none" points="2352.76,1423.18 2352.76,1404.28 "/>
<path clip-path="url(#clip380)" d="M156.598 1454.1 Q152.987 1454.1 151.158 1457.66 Q149.353 1461.2 149.353 1468.33 Q149.353 1475.44 151.158 1479.01 Q152.987 1482.55 156.598 1482.55 Q160.232 1482.55 162.038 1479.01 Q163.867 1475.44 163.867 1468.33 Q163.867 1461.2 162.038 1457.66 Q160.232 1454.1 156.598 1454.1 M156.598 1450.39 Q162.408 1450.39 165.464 1455 Q168.543 1459.58 168.543 1468.33 Q168.543 1477.06 165.464 1481.67 Q162.408 1486.25 156.598 1486.25 Q150.788 1486.25 147.709 1481.67 Q144.654 1477.06 144.654 1468.33 Q144.654 1459.58 147.709 1455 Q150.788 1450.39 156.598 1450.39 Z" fill="#000000" fill-rule="nonzero" fill-opacity="1" /><path clip-path="url(#clip380)" d="M590.483 1481.64 L606.802 1481.64 L606.802 1485.58 L584.858 1485.58 L584.858 1481.64 Q587.52 1478.89 592.103 1474.26 Q596.709 1469.61 597.89 1468.27 Q600.135 1465.74 601.015 1464.01 Q601.918 1462.25 601.918 1460.56 Q601.918 1457.8 599.973 1456.07 Q598.052 1454.33 594.95 1454.33 Q592.751 1454.33 590.297 1455.09 Q587.867 1455.86 585.089 1457.41 L585.089 1452.69 Q587.913 1451.55 590.367 1450.97 Q592.821 1450.39 594.858 1450.39 Q600.228 1450.39 603.422 1453.08 Q606.617 1455.77 606.617 1460.26 Q606.617 1462.39 605.807 1464.31 Q605.02 1466.2 602.913 1468.8 Q602.334 1469.47 599.233 1472.69 Q596.131 1475.88 590.483 1481.64 Z" fill="#000000" fill-rule="nonzero" fill-opacity="1" /><path clip-path="url(#clip380)" d="M1038.07 1455.09 L1026.27 1473.54 L1038.07 1473.54 L1038.07 1455.09 M1036.84 1451.02 L1042.72 1451.02 L1042.72 1473.54 L1047.65 1473.54 L1047.65 1477.43 L1042.72 1477.43 L1042.72 1485.58 L1038.07 1485.58 L1038.07 1477.43 L1022.47 1477.43 L1022.47 1472.92 L1036.84 1451.02 Z" fill="#000000" fill-rule="nonzero" fill-opacity="1" /><path clip-path="url(#clip380)" d="M1474.7 1466.44 Q1471.55 1466.44 1469.7 1468.59 Q1467.87 1470.74 1467.87 1474.49 Q1467.87 1478.22 1469.7 1480.39 Q1471.55 1482.55 1474.7 1482.55 Q1477.85 1482.55 1479.67 1480.39 Q1481.53 1478.22 1481.53 1474.49 Q1481.53 1470.74 1479.67 1468.59 Q1477.85 1466.44 1474.7 1466.44 M1483.98 1451.78 L1483.98 1456.04 Q1482.22 1455.21 1480.42 1454.77 Q1478.63 1454.33 1476.87 1454.33 Q1472.24 1454.33 1469.79 1457.45 Q1467.36 1460.58 1467.01 1466.9 Q1468.38 1464.89 1470.44 1463.82 Q1472.5 1462.73 1474.98 1462.73 Q1480.18 1462.73 1483.19 1465.9 Q1486.23 1469.05 1486.23 1474.49 Q1486.23 1479.82 1483.08 1483.03 Q1479.93 1486.25 1474.7 1486.25 Q1468.7 1486.25 1465.53 1481.67 Q1462.36 1477.06 1462.36 1468.33 Q1462.36 1460.14 1466.25 1455.28 Q1470.14 1450.39 1476.69 1450.39 Q1478.45 1450.39 1480.23 1450.74 Q1482.04 1451.09 1483.98 1451.78 Z" fill="#000000" fill-rule="nonzero" fill-opacity="1" /><path clip-path="url(#clip380)" d="M1913.52 1469.17 Q1910.19 1469.17 1908.27 1470.95 Q1906.37 1472.73 1906.37 1475.86 Q1906.37 1478.98 1908.27 1480.77 Q1910.19 1482.55 1913.52 1482.55 Q1916.86 1482.55 1918.78 1480.77 Q1920.7 1478.96 1920.7 1475.86 Q1920.7 1472.73 1918.78 1470.95 Q1916.88 1469.17 1913.52 1469.17 M1908.85 1467.18 Q1905.84 1466.44 1904.15 1464.38 Q1902.48 1462.32 1902.48 1459.35 Q1902.48 1455.21 1905.42 1452.8 Q1908.39 1450.39 1913.52 1450.39 Q1918.69 1450.39 1921.63 1452.8 Q1924.57 1455.21 1924.57 1459.35 Q1924.57 1462.32 1922.88 1464.38 Q1921.21 1466.44 1918.22 1467.18 Q1921.6 1467.96 1923.48 1470.26 Q1925.38 1472.55 1925.38 1475.86 Q1925.38 1480.88 1922.3 1483.57 Q1919.24 1486.25 1913.52 1486.25 Q1907.81 1486.25 1904.73 1483.57 Q1901.67 1480.88 1901.67 1475.86 Q1901.67 1472.55 1903.57 1470.26 Q1905.47 1467.96 1908.85 1467.18 M1907.14 1459.79 Q1907.14 1462.48 1908.8 1463.98 Q1910.49 1465.49 1913.52 1465.49 Q1916.53 1465.49 1918.22 1463.98 Q1919.94 1462.48 1919.94 1459.79 Q1919.94 1457.11 1918.22 1455.6 Q1916.53 1454.1 1913.52 1454.1 Q1910.49 1454.1 1908.8 1455.6 Q1907.14 1457.11 1907.14 1459.79 Z" fill="#000000" fill-rule="nonzero" fill-opacity="1" /><path clip-path="url(#clip380)" d="M2327.44 1481.64 L2335.08 1481.64 L2335.08 1455.28 L2326.77 1456.95 L2326.77 1452.69 L2335.04 1451.02 L2339.71 1451.02 L2339.71 1481.64 L2347.35 1481.64 L2347.35 1485.58 L2327.44 1485.58 L2327.44 1481.64 Z" fill="#000000" fill-rule="nonzero" fill-opacity="1" /><path clip-path="url(#clip380)" d="M2366.8 1454.1 Q2363.18 1454.1 2361.36 1457.66 Q2359.55 1461.2 2359.55 1468.33 Q2359.55 1475.44 2361.36 1479.01 Q2363.18 1482.55 2366.8 1482.55 Q2370.43 1482.55 2372.23 1479.01 Q2374.06 1475.44 2374.06 1468.33 Q2374.06 1461.2 2372.23 1457.66 Q2370.43 1454.1 2366.8 1454.1 M2366.8 1450.39 Q2372.61 1450.39 2375.66 1455 Q2378.74 1459.58 2378.74 1468.33 Q2378.74 1477.06 2375.66 1481.67 Q2372.61 1486.25 2366.8 1486.25 Q2360.99 1486.25 2357.91 1481.67 Q2354.85 1477.06 2354.85 1468.33 Q2354.85 1459.58 2357.91 1455 Q2360.99 1450.39 2366.8 1450.39 Z" fill="#000000" fill-rule="nonzero" fill-opacity="1" /><path clip-path="url(#clip380)" d="M1253.74 1522.27 L1253.74 1532.4 L1265.8 1532.4 L1265.8 1536.95 L1253.74 1536.95 L1253.74 1556.3 Q1253.74 1560.66 1254.92 1561.9 Q1256.13 1563.14 1259.79 1563.14 L1265.8 1563.14 L1265.8 1568.04 L1259.79 1568.04 Q1253.01 1568.04 1250.43 1565.53 Q1247.85 1562.98 1247.85 1556.3 L1247.85 1536.95 L1243.55 1536.95 L1243.55 1532.4 L1247.85 1532.4 L1247.85 1522.27 L1253.74 1522.27 Z" fill="#000000" fill-rule="nonzero" fill-opacity="1" /><polyline clip-path="url(#clip380)" style="stroke:#000000; stroke-linecap:round; stroke-linejoin:round; stroke-width:4; stroke-opacity:1; fill:none" points="156.598,1423.18 156.598,47.2441 "/>
<polyline clip-path="url(#clip380)" style="stroke:#000000; stroke-linecap:round; stroke-linejoin:round; stroke-width:4; stroke-opacity:1; fill:none" points="156.598,1164.55 175.496,1164.55 "/>
<polyline clip-path="url(#clip380)" style="stroke:#000000; stroke-linecap:round; stroke-linejoin:round; stroke-width:4; stroke-opacity:1; fill:none" points="156.598,840.173 175.496,840.173 "/>
<polyline clip-path="url(#clip380)" style="stroke:#000000; stroke-linecap:round; stroke-linejoin:round; stroke-width:4; stroke-opacity:1; fill:none" points="156.598,515.797 175.496,515.797 "/>
<polyline clip-path="url(#clip380)" style="stroke:#000000; stroke-linecap:round; stroke-linejoin:round; stroke-width:4; stroke-opacity:1; fill:none" points="156.598,191.422 175.496,191.422 "/>
<path clip-path="url(#clip380)" d="M64.6495 1150.35 Q61.0384 1150.35 59.2097 1153.91 Q57.4041 1157.45 57.4041 1164.58 Q57.4041 1171.69 59.2097 1175.25 Q61.0384 1178.8 64.6495 1178.8 Q68.2837 1178.8 70.0892 1175.25 Q71.9179 1171.69 71.9179 1164.58 Q71.9179 1157.45 70.0892 1153.91 Q68.2837 1150.35 64.6495 1150.35 M64.6495 1146.64 Q70.4596 1146.64 73.5152 1151.25 Q76.5938 1155.83 76.5938 1164.58 Q76.5938 1173.31 73.5152 1177.92 Q70.4596 1182.5 64.6495 1182.5 Q58.8393 1182.5 55.7606 1177.92 Q52.7051 1173.31 52.7051 1164.58 Q52.7051 1155.83 55.7606 1151.25 Q58.8393 1146.64 64.6495 1146.64 Z" fill="#000000" fill-rule="nonzero" fill-opacity="1" /><path clip-path="url(#clip380)" d="M84.8114 1175.95 L89.6956 1175.95 L89.6956 1181.83 L84.8114 1181.83 L84.8114 1175.95 Z" fill="#000000" fill-rule="nonzero" fill-opacity="1" /><path clip-path="url(#clip380)" d="M100.691 1177.89 L108.33 1177.89 L108.33 1151.53 L100.02 1153.19 L100.02 1148.93 L108.283 1147.27 L112.959 1147.27 L112.959 1177.89 L120.598 1177.89 L120.598 1181.83 L100.691 1181.83 L100.691 1177.89 Z" fill="#000000" fill-rule="nonzero" fill-opacity="1" /><path clip-path="url(#clip380)" d="M65.0198 825.971 Q61.4087 825.971 59.58 829.536 Q57.7745 833.078 57.7745 840.207 Q57.7745 847.314 59.58 850.879 Q61.4087 854.42 65.0198 854.42 Q68.6541 854.42 70.4596 850.879 Q72.2883 847.314 72.2883 840.207 Q72.2883 833.078 70.4596 829.536 Q68.6541 825.971 65.0198 825.971 M65.0198 822.268 Q70.83 822.268 73.8855 826.874 Q76.9642 831.457 76.9642 840.207 Q76.9642 848.934 73.8855 853.541 Q70.83 858.124 65.0198 858.124 Q59.2097 858.124 56.131 853.541 Q53.0754 848.934 53.0754 840.207 Q53.0754 831.457 56.131 826.874 Q59.2097 822.268 65.0198 822.268 Z" fill="#000000" fill-rule="nonzero" fill-opacity="1" /><path clip-path="url(#clip380)" d="M85.1818 851.573 L90.066 851.573 L90.066 857.453 L85.1818 857.453 L85.1818 851.573 Z" fill="#000000" fill-rule="nonzero" fill-opacity="1" /><path clip-path="url(#clip380)" d="M104.279 853.517 L120.598 853.517 L120.598 857.453 L98.6539 857.453 L98.6539 853.517 Q101.316 850.763 105.899 846.133 Q110.506 841.48 111.686 840.138 Q113.932 837.615 114.811 835.879 Q115.714 834.119 115.714 832.43 Q115.714 829.675 113.77 827.939 Q111.848 826.203 108.746 826.203 Q106.547 826.203 104.094 826.967 Q101.663 827.731 98.8854 829.281 L98.8854 824.559 Q101.709 823.425 104.163 822.846 Q106.617 822.268 108.654 822.268 Q114.024 822.268 117.219 824.953 Q120.413 827.638 120.413 832.129 Q120.413 834.258 119.603 836.18 Q118.816 838.078 116.709 840.67 Q116.131 841.342 113.029 844.559 Q109.927 847.754 104.279 853.517 Z" fill="#000000" fill-rule="nonzero" fill-opacity="1" /><path clip-path="url(#clip380)" d="M64.0708 501.596 Q60.4597 501.596 58.631 505.161 Q56.8254 508.702 56.8254 515.832 Q56.8254 522.939 58.631 526.503 Q60.4597 530.045 64.0708 530.045 Q67.705 530.045 69.5105 526.503 Q71.3392 522.939 71.3392 515.832 Q71.3392 508.702 69.5105 505.161 Q67.705 501.596 64.0708 501.596 M64.0708 497.892 Q69.8809 497.892 72.9365 502.499 Q76.0151 507.082 76.0151 515.832 Q76.0151 524.559 72.9365 529.165 Q69.8809 533.749 64.0708 533.749 Q58.2606 533.749 55.1819 529.165 Q52.1264 524.559 52.1264 515.832 Q52.1264 507.082 55.1819 502.499 Q58.2606 497.892 64.0708 497.892 Z" fill="#000000" fill-rule="nonzero" fill-opacity="1" /><path clip-path="url(#clip380)" d="M84.2327 527.198 L89.1169 527.198 L89.1169 533.077 L84.2327 533.077 L84.2327 527.198 Z" fill="#000000" fill-rule="nonzero" fill-opacity="1" /><path clip-path="url(#clip380)" d="M113.469 514.443 Q116.825 515.161 118.7 517.429 Q120.598 519.698 120.598 523.031 Q120.598 528.147 117.08 530.948 Q113.561 533.749 107.08 533.749 Q104.904 533.749 102.589 533.309 Q100.297 532.892 97.8437 532.036 L97.8437 527.522 Q99.7882 528.656 102.103 529.235 Q104.418 529.813 106.941 529.813 Q111.339 529.813 113.631 528.077 Q115.945 526.341 115.945 523.031 Q115.945 519.976 113.793 518.263 Q111.663 516.527 107.844 516.527 L103.816 516.527 L103.816 512.684 L108.029 512.684 Q111.478 512.684 113.307 511.318 Q115.135 509.929 115.135 507.337 Q115.135 504.675 113.237 503.263 Q111.362 501.828 107.844 501.828 Q105.922 501.828 103.723 502.244 Q101.524 502.661 98.8854 503.54 L98.8854 499.374 Q101.547 498.633 103.862 498.263 Q106.2 497.892 108.26 497.892 Q113.584 497.892 116.686 500.323 Q119.788 502.73 119.788 506.851 Q119.788 509.721 118.145 511.712 Q116.501 513.679 113.469 514.443 Z" fill="#000000" fill-rule="nonzero" fill-opacity="1" /><path clip-path="url(#clip380)" d="M62.9365 177.221 Q59.3254 177.221 57.4967 180.786 Q55.6912 184.327 55.6912 191.457 Q55.6912 198.563 57.4967 202.128 Q59.3254 205.67 62.9365 205.67 Q66.5707 205.67 68.3763 202.128 Q70.205 198.563 70.205 191.457 Q70.205 184.327 68.3763 180.786 Q66.5707 177.221 62.9365 177.221 M62.9365 173.517 Q68.7467 173.517 71.8022 178.124 Q74.8809 182.707 74.8809 191.457 Q74.8809 200.184 71.8022 204.79 Q68.7467 209.373 62.9365 209.373 Q57.1264 209.373 54.0477 204.79 Q50.9921 200.184 50.9921 191.457 Q50.9921 182.707 54.0477 178.124 Q57.1264 173.517 62.9365 173.517 Z" fill="#000000" fill-rule="nonzero" fill-opacity="1" /><path clip-path="url(#clip380)" d="M83.0984 202.823 L87.9827 202.823 L87.9827 208.702 L83.0984 208.702 L83.0984 202.823 Z" fill="#000000" fill-rule="nonzero" fill-opacity="1" /><path clip-path="url(#clip380)" d="M111.015 178.216 L99.2095 196.665 L111.015 196.665 L111.015 178.216 M109.788 174.142 L115.668 174.142 L115.668 196.665 L120.598 196.665 L120.598 200.554 L115.668 200.554 L115.668 208.702 L111.015 208.702 L111.015 200.554 L95.4132 200.554 L95.4132 196.04 L109.788 174.142 Z" fill="#000000" fill-rule="nonzero" fill-opacity="1" /><polyline clip-path="url(#clip381)" style="stroke:#009af9; stroke-linecap:round; stroke-linejoin:round; stroke-width:8; stroke-opacity:1; fill:none" points="156.598,840.173 158.797,833.646 160.995,827.054 163.193,820.395 165.392,813.67 167.59,806.876 169.788,800.015 171.987,793.084 174.185,786.084 176.383,779.013 178.582,771.871 180.78,764.657 182.979,757.371 185.177,750.011 187.375,742.578 189.574,735.069 191.772,727.485 193.97,719.825 196.169,712.088 198.367,704.273 200.565,696.379 202.764,688.406 204.962,680.352 207.16,672.218 209.359,664.001 211.557,655.703 213.755,647.32 215.954,638.853 218.152,630.301 220.351,621.663 222.549,612.939 224.747,604.126 226.946,595.225 229.144,1037.58 231.342,1033.04 233.541,1028.45 235.739,1023.82 237.937,1254.03 240.136,1251.67 242.334,1249.28 244.532,1246.87 246.731,1244.44 248.929,1241.98 251.128,1239.49 253.326,1236.98 255.524,1234.45 257.723,1231.89 259.921,1229.3 262.119,1226.69 264.318,1224.05 266.516,1221.39 268.714,1218.7 270.913,1215.98 273.111,1213.23 275.309,1210.46 277.508,1207.66 279.706,1204.83 281.905,1201.97 284.103,1199.08 286.301,1196.17 288.5,1193.22 290.698,1190.25 292.896,1187.24 295.095,1184.21 297.293,1181.14 299.491,1178.04 301.69,1174.92 303.888,1171.76 306.086,1168.57 308.285,1165.34 310.483,1162.09 312.682,1158.8 314.88,1155.48 317.078,1152.12 319.277,1148.74 321.475,1145.31 323.673,1141.86 325.872,1138.37 328.07,1134.84 330.268,1131.28 332.467,1127.68 334.665,1124.04 336.863,1120.37 339.062,1116.67 341.26,1112.92 343.458,1109.14 345.657,1105.32 347.855,1101.46 350.054,1097.56 352.252,1093.62 354.45,1089.65 356.649,1085.63 358.847,1081.57 361.045,1077.47 363.244,1073.33 365.442,1069.15 367.64,1064.93 369.839,1060.67 372.037,1056.36 374.235,1052.01 376.434,1047.61 378.632,1043.17 380.831,1038.69 383.029,1034.16 385.227,1029.58 387.426,1024.96 389.624,1020.29 391.822,1015.58 394.021,1010.82 396.219,1006.01 398.417,1001.15 400.616,996.241 402.814,991.284 405.012,986.278 407.211,981.221 409.409,976.113 411.608,1229.94 413.806,1227.33 416.004,1224.7 418.203,1222.04 420.401,1219.36 422.599,1216.65 424.798,1213.91 426.996,1211.14 429.194,1208.35 431.393,1205.52 433.591,1202.67 435.789,1199.79 437.988,1196.88 440.186,1193.95 442.385,1190.98 444.583,1187.98 446.781,1184.95 448.98,1181.9 451.178,1178.81 453.376,1175.69 455.575,1172.54 457.773,1169.35 459.971,1166.14 462.17,1162.89 464.368,1159.61 466.566,1156.3 468.765,1152.95 470.963,1149.57 473.162,1146.16 475.36,1142.71 477.558,1139.23 479.757,1135.71 481.955,1132.15 484.153,1128.57 486.352,1124.94 488.55,1121.28 490.748,1117.58 492.947,1301.38 495.145,1299.5 497.343,1297.59 499.542,1295.67 501.74,1293.72 503.938,1291.76 506.137,1289.77 508.335,1287.77 510.534,1285.75 512.732,1283.7 514.93,1281.64 517.129,1384.24 519.327,1383.19 521.525,1382.12 523.724,1381.05 525.922,1379.96 528.12,1378.87 530.319,1377.76 532.517,1376.64 534.715,1375.51 536.914,1374.37 539.112,1373.22 541.311,1372.05 543.509,1370.88 545.707,1369.69 547.906,1368.49 550.104,1367.28 552.302,1366.05 554.501,1364.82 556.699,1363.57 558.897,1362.31 561.096,1361.04 563.294,1359.75 565.492,1358.45 567.691,1357.14 569.889,1355.81 572.088,1354.47 574.286,1353.12 576.484,1351.75 578.683,1350.37 580.881,1348.98 583.079,1347.57 585.278,1346.15 587.476,1344.71 589.674,1343.26 591.873,1341.8 594.071,1340.32 596.269,1338.82 598.468,1337.31 600.666,1335.79 602.865,1334.25 605.063,1332.69 607.261,1331.12 609.46,1329.53 611.658,1327.93 613.856,1326.31 616.055,1324.67 618.253,1323.02 620.451,1321.35 622.65,1319.66 624.848,1317.96 627.046,1316.24 629.245,1314.5 631.443,1312.75 633.641,1310.98 635.84,1309.19 638.038,1307.38 640.237,1305.55 642.435,1303.71 644.633,1301.84 646.832,1299.96 649.03,1298.06 651.228,1296.14 653.427,1294.2 655.625,1292.24 657.823,1290.26 660.022,1288.26 662.22,1286.25 664.418,1284.21 666.617,1282.15 668.815,1280.07 671.014,1277.97 673.212,1275.84 675.41,1273.7 677.609,1271.53 679.807,1269.35 682.005,1267.14 684.204,1264.91 686.402,1262.65 688.6,1260.38 690.799,1258.08 692.997,1255.76 695.195,1253.41 697.394,1251.04 699.592,1248.65 701.791,1246.23 703.989,1243.79 706.187,1241.32 708.386,1238.83 710.584,1236.32 712.782,1233.77 714.981,1231.21 717.179,1228.62 719.377,1226 721.576,1223.35 723.774,1220.68 725.972,1217.98 728.171,1215.26 730.369,1212.5 732.568,1209.72 734.766,1206.91 736.964,1204.08 739.163,1201.21 741.361,1198.32 743.559,1195.39 745.758,1192.44 747.956,1189.46 750.154,1186.44 752.353,1183.4 754.551,1180.33 756.749,1177.22 758.948,1331.5 761.146,1329.92 763.344,1328.32 765.543,1326.71 767.741,1325.07 769.94,1323.43 772.138,1321.76 774.336,1320.08 776.535,1318.38 778.733,1316.66 780.931,1314.93 783.13,1313.18 785.328,1311.41 787.526,1309.63 789.725,1307.82 791.923,1306 794.121,1304.16 796.32,1302.3 798.518,1300.43 800.717,1298.53 802.915,1296.61 805.113,1294.68 807.312,1292.72 809.51,1290.75 811.708,1288.76 813.907,1286.74 816.105,1284.71 818.303,1282.66 820.502,1280.58 822.7,1278.48 824.898,1276.37 827.097,1274.23 829.295,1272.07 831.494,1269.89 833.692,1267.68 835.89,1265.46 838.089,1263.21 840.287,1260.94 842.485,1258.65 844.684,1256.33 846.882,1253.99 849.08,1251.63 851.279,1249.24 853.477,1246.83 855.675,1244.39 857.874,1241.93 860.072,1239.45 862.271,1236.94 864.469,1234.4 866.667,1231.84 868.866,1229.25 871.064,1226.64 873.262,1224 875.461,1221.34 877.659,1218.65 879.857,1215.93 882.056,1213.18 884.254,1210.41 886.452,1207.6 888.651,1204.77 890.849,1201.92 893.048,1199.03 895.246,1196.11 897.444,1193.17 899.643,1190.19 901.841,1187.19 904.039,1184.15 906.238,1181.08 908.436,1177.99 910.634,1174.86 912.833,1171.7 915.031,1168.51 917.229,1165.28 919.428,1162.03 921.626,1158.74 923.824,1155.42 926.023,1152.06 928.221,1148.68 930.42,1145.25 932.618,1141.8 934.816,1138.3 937.015,1134.78 939.213,1131.21 941.411,1127.61 943.61,1123.98 945.808,1120.31 948.006,1116.6 950.205,1112.85 952.403,1109.07 954.601,1105.25 956.8,1101.39 958.998,1097.49 961.197,1093.55 963.395,1089.57 965.593,1085.56 967.792,1081.5 969.99,1077.4 972.188,1073.26 974.387,1069.08 976.585,1064.85 978.783,1060.59 980.982,1056.28 983.18,1051.93 985.378,1047.53 987.577,1266.01 989.775,1263.76 991.974,1261.5 994.172,1259.21 996.37,1256.9 998.569,1254.56 1000.77,1252.21 1002.97,1249.83 1005.16,1247.42 1007.36,1244.99 1009.56,1242.54 1011.76,1240.06 1013.96,1237.55 1016.16,1235.03 1018.35,1232.47 1020.55,1229.89 1022.75,1227.29 1024.95,1224.65 1027.15,1221.99 1029.35,1219.31 1031.54,1216.6 1033.74,1213.86 1035.94,1211.09 1038.14,1208.3 1040.34,1205.47 1042.54,1202.62 1044.73,1199.74 1046.93,1196.83 1049.13,1193.89 1051.33,1190.93 1053.53,1187.93 1055.73,1184.9 1057.92,1181.84 1060.12,1178.75 1062.32,1175.63 1064.52,1172.48 1066.72,1169.3 1068.92,1166.08 1071.11,1162.84 1073.31,1159.55 1075.51,1156.24 1077.71,1152.89 1079.91,1149.51 1082.11,1146.1 1084.3,1142.65 1086.5,1139.17 1088.7,1135.65 1090.9,1132.09 1093.1,1128.5 1095.3,1124.88 1097.49,1121.21 1099.69,1117.52 1101.89,1113.78 1104.09,1110 1106.29,1106.19 1108.49,1102.34 1110.68,1098.45 1112.88,1094.52 1115.08,1090.55 1117.28,1086.55 1119.48,1082.5 1121.68,1078.41 1123.87,1074.28 1126.07,1070.11 1128.27,1065.9 1130.47,1061.64 1132.67,1057.34 1134.87,1053 1137.07,1048.61 1139.26,1044.18 1141.46,1039.71 1143.66,1035.19 1145.86,1030.63 1148.06,1026.02 1150.26,1255.14 1152.45,1252.79 1154.65,1250.41 1156.85,1248.01 1159.05,1245.59 1161.25,1243.14 1163.45,1240.67 1165.64,1238.17 1167.84,1235.65 1170.04,1233.1 1172.24,1230.53 1174.44,1227.93 1176.64,1225.3 1178.83,1222.65 1181.03,1219.97 1183.23,1217.27 1185.43,1214.53 1187.63,1211.77 1189.83,1208.98 1192.02,1206.17 1194.22,1203.32 1196.42,1200.45 1198.62,1197.55 1200.82,1194.62 1203.02,1191.66 1205.21,1188.67 1207.41,1185.65 1209.61,1182.59 1211.81,1179.51 1214.01,1176.4 1216.21,1173.26 1218.4,1170.08 1220.6,1166.87 1222.8,1163.63 1225,1160.36 1227.2,1157.05 1229.4,1153.72 1231.59,1150.34 1233.79,1146.94 1235.99,1143.5 1238.19,1140.02 1240.39,1136.51 1242.59,1132.97 1244.78,1129.38 1246.98,1125.77 1249.18,1122.11 1251.38,1118.42 1253.58,1114.7 1255.78,1110.93 1257.97,1107.13 1260.17,1103.29 1262.37,1099.41 1264.57,1095.49 1266.77,1091.53 1268.97,1087.53 1271.16,1083.5 1273.36,1079.42 1275.56,1075.3 1277.76,1071.14 1279.96,1066.93 1282.16,1062.69 1284.35,1058.4 1286.55,1054.07 1288.75,1049.69 1290.95,1045.28 1293.15,1040.81 1295.35,1036.3 1297.55,1031.75 1299.74,1027.15 1301.94,1022.51 1304.14,1017.81 1306.34,1013.07 1308.54,1008.29 1310.74,1003.45 1312.93,998.568 1315.13,993.634 1317.33,988.652 1319.53,983.619 1321.73,978.535 1323.93,973.4 1326.12,968.214 1328.32,962.976 1330.52,957.684 1332.72,952.34 1334.92,946.942 1337.12,941.489 1339.31,935.982 1341.51,930.419 1343.71,924.8 1345.91,919.125 1348.11,913.392 1350.31,907.602 1352.5,901.754 1354.7,895.847 1356.9,889.881 1359.1,883.854 1361.3,877.767 1363.5,871.619 1365.69,865.409 1367.89,859.137 1370.09,852.801 1372.29,846.402 1374.49,839.938 1376.69,833.409 1378.88,826.815 1381.08,820.154 1383.28,813.427 1385.48,806.631 1387.68,799.767 1389.88,792.834 1392.07,785.832 1394.27,778.758 1396.47,771.614 1398.67,764.398 1400.87,757.109 1403.07,749.746 1405.26,742.31 1407.46,734.799 1409.66,727.212 1411.86,719.549 1414.06,711.808 1416.26,703.99 1418.45,696.093 1420.65,688.117 1422.85,680.06 1425.05,671.923 1427.25,663.703 1429.45,655.401 1431.64,647.015 1433.84,638.545 1436.04,629.99 1438.24,621.349 1440.44,612.621 1442.64,603.805 1444.83,594.9 1447.03,585.906 1449.23,576.821 1451.43,567.645 1453.63,558.377 1455.83,549.015 1458.03,539.559 1460.22,530.008 1462.42,520.362 1464.62,510.618 1466.82,500.776 1469.02,490.835 1471.22,480.794 1473.41,470.652 1475.61,460.408 1477.81,450.061 1480.01,439.611 1482.21,429.054 1484.41,418.392 1486.6,407.623 1488.8,396.745 1491,385.758 1493.2,374.66 1495.4,363.45 1497.6,352.128 1499.79,340.692 1501.99,329.14 1504.19,317.473 1506.39,305.688 1508.59,293.784 1510.79,281.761 1512.98,269.616 1515.18,257.349 1517.38,244.959 1519.58,232.444 1521.78,219.804 1523.98,207.036 1526.17,194.139 1528.37,181.113 1530.57,167.956 1532.77,154.666 1534.97,141.243 1537.17,127.684 1539.36,113.99 1541.56,100.157 1543.76,86.1857 1545.96,780.498 1548.16,773.371 1550.36,766.173 1552.55,758.902 1554.75,751.557 1556.95,744.139 1559.15,736.647 1561.35,729.079 1563.55,721.434 1565.74,713.713 1567.94,705.914 1570.14,698.037 1572.34,690.081 1574.54,682.044 1576.74,673.927 1578.93,665.727 1581.13,657.446 1583.33,649.081 1585.53,640.632 1587.73,632.098 1589.93,1056.2 1592.12,1051.85 1594.32,1047.45 1596.52,1043.01 1598.72,1038.52 1600.92,1033.99 1603.12,1029.41 1605.31,1024.79 1607.51,1020.12 1609.71,1015.41 1611.91,1010.64 1614.11,1005.83 1616.31,1000.97 1618.5,996.062 1620.7,991.104 1622.9,986.096 1625.1,981.037 1627.3,975.928 1629.5,970.767 1631.7,965.554 1633.89,960.289 1636.09,954.971 1638.29,949.599 1640.49,944.174 1642.69,938.694 1644.89,933.158 1647.08,927.567 1649.28,921.92 1651.48,916.216 1653.68,910.454 1655.88,904.634 1658.08,898.756 1660.27,892.819 1662.47,886.822 1664.67,880.765 1666.87,874.646 1669.07,868.466 1671.27,862.224 1673.46,855.919 1675.66,849.551 1677.86,843.119 1680.06,836.622 1682.26,830.059 1684.46,823.431 1686.65,816.736 1688.85,809.973 1691.05,803.143 1693.25,796.244 1695.45,789.275 1697.65,782.236 1699.84,775.127 1702.04,767.946 1704.24,760.693 1706.44,753.366 1708.64,745.966 1710.84,738.492 1713.03,730.943 1715.23,723.317 1717.43,715.615 1719.63,707.836 1721.83,699.978 1724.03,692.041 1726.22,684.024 1728.42,675.927 1730.62,667.748 1732.82,659.487 1735.02,651.143 1737.22,642.714 1739.41,634.201 1741.61,625.603 1743.81,616.917 1746.01,608.145 1748.21,599.284 1750.41,590.334 1752.6,581.294 1754.8,572.163 1757,562.94 1759.2,553.624 1761.4,544.215 1763.6,534.71 1765.79,525.111 1767.99,515.414 1770.19,505.62 1772.39,495.728 1774.59,485.736 1776.79,475.644 1778.98,465.45 1781.18,455.153 1783.38,444.753 1785.58,434.249 1787.78,423.638 1789.98,412.921 1792.18,402.097 1794.37,391.163 1796.57,934.521 1798.77,928.944 1800.97,923.31 1803.17,917.62 1805.37,911.872 1807.56,906.067 1809.76,900.203 1811.96,894.281 1814.16,888.298 1816.36,882.256 1818.56,876.153 1820.75,869.988 1822.95,863.761 1825.15,857.472 1827.35,851.12 1829.55,844.703 1831.75,838.222 1833.94,831.676 1836.14,825.064 1838.34,818.385 1840.54,811.639 1842.74,804.826 1844.94,797.944 1847.13,790.992 1849.33,783.971 1851.53,776.879 1853.73,769.715 1855.93,762.48 1858.13,755.172 1860.32,747.79 1862.52,740.334 1864.72,732.803 1866.92,725.196 1869.12,717.513 1871.32,709.752 1873.51,701.913 1875.71,693.996 1877.91,685.999 1880.11,677.921 1882.31,669.762 1884.51,661.521 1886.7,653.197 1888.9,644.789 1891.1,636.297 1893.3,627.72 1895.5,619.056 1897.7,610.305 1899.89,601.466 1902.09,592.538 1904.29,583.52 1906.49,574.411 1908.69,565.211 1910.89,555.918 1913.08,546.532 1915.28,537.051 1917.48,527.475 1919.68,517.803 1921.88,508.033 1924.08,498.165 1926.27,488.198 1928.47,478.13 1930.67,467.961 1932.87,457.69 1935.07,447.315 1937.27,436.836 1939.46,426.252 1941.66,952.242 1943.86,946.843 1946.06,941.39 1948.26,935.881 1950.46,930.317 1952.66,924.698 1954.85,919.021 1957.05,913.288 1959.25,907.497 1961.45,901.648 1963.65,895.74 1965.85,889.772 1968.04,883.744 1970.24,877.656 1972.44,871.507 1974.64,865.295 1976.84,859.021 1979.04,852.684 1981.23,846.284 1983.43,839.819 1985.63,833.288 1987.83,826.693 1990.03,820.03 1992.23,1151.11 1994.42,1147.71 1996.62,1144.28 1998.82,1140.81 2001.02,1137.31 2003.22,1133.77 2005.42,1130.2 2007.61,1126.59 2009.81,1122.95 2012.01,1119.27 2014.21,1115.55 2016.41,1111.79 2018.61,1108 2020.8,1104.16 2023,1100.29 2025.2,1096.38 2027.4,1092.43 2029.6,1088.45 2031.8,1084.42 2033.99,1080.35 2036.19,1076.24 2038.39,1072.09 2040.59,1067.89 2042.79,1063.66 2044.99,1059.38 2047.18,1055.06 2049.38,1050.69 2051.58,1046.28 2053.78,1041.83 2055.98,1037.33 2058.18,1032.79 2060.37,1028.2 2062.57,1023.57 2064.77,1018.88 2066.97,1014.15 2069.17,1009.38 2071.37,1004.55 2073.56,999.681 2075.76,994.759 2077.96,989.788 2080.16,1236.84 2082.36,1234.31 2084.56,1231.75 2086.75,1229.16 2088.95,1226.55 2091.15,1223.91 2093.35,1221.24 2095.55,1218.55 2097.75,1215.83 2099.94,1213.08 2102.14,1210.31 2104.34,1207.5 2106.54,1204.67 2108.74,1201.81 2110.94,1198.92 2113.14,1196.01 2115.33,1193.06 2117.53,1190.08 2119.73,1187.08 2121.93,1184.04 2124.13,1180.97 2126.33,1177.87 2128.52,1174.75 2130.72,1171.58 2132.92,1168.39 2135.12,1165.17 2137.32,1161.91 2139.52,1158.62 2141.71,1155.3 2143.91,1151.94 2146.11,1148.55 2148.31,1145.13 2150.51,1141.67 2152.71,1138.17 2154.9,1134.65 2157.1,1131.08 2159.3,1127.48 2161.5,1123.85 2163.7,1120.17 2165.9,1116.46 2168.09,1112.72 2170.29,1108.93 2172.49,1105.11 2174.69,1101.25 2176.89,1097.35 2179.09,1093.41 2181.28,1089.43 2183.48,1085.41 2185.68,1081.35 2187.88,1077.25 2190.08,1073.11 2192.28,1068.92 2194.47,1064.7 2196.67,1060.43 2198.87,1056.12 2201.07,1051.77 2203.27,1047.37 2205.47,1042.93 2207.66,1038.44 2209.86,1033.91 2212.06,1029.33 2214.26,1024.71 2216.46,1020.04 2218.66,1015.32 2220.85,1010.56 2223.05,1005.74 2225.25,1244.9 2227.45,1242.45 2229.65,1239.97 2231.85,1237.46 2234.04,1234.93 2236.24,1232.38 2238.44,1229.8 2240.64,1227.19 2242.84,1224.56 2245.04,1221.9 2247.23,1219.21 2249.43,1216.5 2251.63,1213.76 2253.83,1210.99 2256.03,1208.19 2258.23,1205.37 2260.42,1202.52 2262.62,1344.28 2264.82,1342.82 2267.02,1341.35 2269.22,1339.87 2271.42,1338.37 2273.62,1336.86 2275.81,1335.33 2278.01,1333.78 2280.21,1332.22 2282.41,1330.64 2284.61,1329.05 2286.81,1327.44 2289,1325.82 2291.2,1324.18 2293.4,1322.52 2295.6,1320.85 2297.8,1319.15 2300,1317.45 2302.19,1315.72 2304.39,1313.98 2306.59,1312.22 2308.79,1310.44 2310.99,1308.65 2313.19,1306.83 2315.38,1305 2317.58,1303.15 2319.78,1301.28 2321.98,1299.39 2324.18,1297.49 2326.38,1295.56 2328.57,1293.62 2330.77,1291.65 2332.97,1289.67 2335.17,1287.66 2337.37,1285.64 2339.57,1283.59 2341.76,1281.53 2343.96,1279.44 2346.16,1277.33 2348.36,1275.2 2350.56,1380.99 2352.76,1379.9 "/>
<path clip-path="url(#clip380)" d="M1970.84 196.789 L2279.55 196.789 L2279.55 93.1086 L1970.84 93.1086  Z" fill="#ffffff" fill-rule="evenodd" fill-opacity="1"/>
<polyline clip-path="url(#clip380)" style="stroke:#000000; stroke-linecap:round; stroke-linejoin:round; stroke-width:4; stroke-opacity:1; fill:none" points="1970.84,196.789 2279.55,196.789 2279.55,93.1086 1970.84,93.1086 1970.84,196.789 "/>
<polyline clip-path="url(#clip380)" style="stroke:#009af9; stroke-linecap:round; stroke-linejoin:round; stroke-width:8; stroke-opacity:1; fill:none" points="1995.24,144.949 2141.65,144.949 "/>
<path clip-path="url(#clip380)" d="M2166.05 151.997 L2166.05 136.303 L2170.31 136.303 L2170.31 151.835 Q2170.31 155.516 2171.75 157.368 Q2173.18 159.196 2176.05 159.196 Q2179.5 159.196 2181.49 156.997 Q2183.51 154.798 2183.51 151.002 L2183.51 136.303 L2187.76 136.303 L2187.76 162.229 L2183.51 162.229 L2183.51 158.247 Q2181.95 160.608 2179.89 161.766 Q2177.86 162.9 2175.15 162.9 Q2170.68 162.9 2168.37 160.122 Q2166.05 157.344 2166.05 151.997 M2176.77 135.678 L2176.77 135.678 Z" fill="#000000" fill-rule="nonzero" fill-opacity="1" /><path clip-path="url(#clip380)" d="M2196.14 126.21 L2205.96 126.21 L2205.96 129.52 L2200.4 129.52 L2200.4 165.168 L2205.96 165.168 L2205.96 168.479 L2196.14 168.479 L2196.14 126.21 Z" fill="#000000" fill-rule="nonzero" fill-opacity="1" /><path clip-path="url(#clip380)" d="M2216.45 158.293 L2224.08 158.293 L2224.08 131.928 L2215.77 133.595 L2215.77 129.335 L2224.04 127.669 L2228.71 127.669 L2228.71 158.293 L2236.35 158.293 L2236.35 162.229 L2216.45 162.229 L2216.45 158.293 Z" fill="#000000" fill-rule="nonzero" fill-opacity="1" /><path clip-path="url(#clip380)" d="M2255.15 126.21 L2255.15 168.479 L2245.33 168.479 L2245.33 165.168 L2250.87 165.168 L2250.87 129.52 L2245.33 129.52 L2245.33 126.21 L2255.15 126.21 Z" fill="#000000" fill-rule="nonzero" fill-opacity="1" /></svg>
