<?xml version="1.0" encoding="utf-8"?>
<svg xmlns="http://www.w3.org/2000/svg" xmlns:xlink="http://www.w3.org/1999/xlink" width="600" height="400" viewBox="0 0 2400 1600">
<defs>
  <clipPath id="clip240">
    <rect x="0" y="0" width="2400" height="1600"/>
  </clipPath>
</defs>
<path clip-path="url(#clip240)" d="M0 1600 L2400 1600 L2400 0 L0 0  Z" fill="#ffffff" fill-rule="evenodd" fill-opacity="1"/>
<defs>
  <clipPath id="clip241">
    <rect x="480" y="0" width="1681" height="1600"/>
  </clipPath>
</defs>
<path clip-path="url(#clip240)" d="M112.177 1423.18 L2352.76 1423.18 L2352.76 47.2441 L112.177 47.2441  Z" fill="#ffffff" fill-rule="evenodd" fill-opacity="1"/>
<defs>
  <clipPath id="clip242">
    <rect x="112" y="47" width="2242" height="1377"/>
  </clipPath>
</defs>
<polyline clip-path="url(#clip242)" style="stroke:#000000; stroke-linecap:round; stroke-linejoin:round; stroke-width:2; stroke-opacity:0.1; fill:none" points="112.177,1423.18 112.177,47.2441 "/>
<polyline clip-path="url(#clip242)" style="stroke:#000000; stroke-linecap:round; stroke-linejoin:round; stroke-width:2; stroke-opacity:0.1; fill:none" points="560.293,1423.18 560.293,47.2441 "/>
<polyline clip-path="url(#clip242)" style="stroke:#000000; stroke-linecap:round; stroke-linejoin:round; stroke-width:2; stroke-opacity:0.1; fill:none" points="1008.41,1423.18 1008.41,47.2441 "/>
<polyline clip-path="url(#clip242)" style="stroke:#000000; stroke-linecap:round; stroke-linejoin:round; stroke-width:2; stroke-opacity:0.1; fill:none" points="1456.52,1423.18 1456.52,47.2441 "/>
<polyline clip-path="url(#clip242)" style="stroke:#000000; stroke-linecap:round; stroke-linejoin:round; stroke-width:2; stroke-opacity:0.1; fill:none" points="1904.64,1423.18 1904.64,47.2441 "/>
<polyline clip-path="url(#clip242)" style="stroke:#000000; stroke-linecap:round; stroke-linejoin:round; stroke-width:2; stroke-opacity:0.1; fill:none" points="2352.76,1423.18 2352.76,47.2441 "/>
<polyline clip-path="url(#clip242)" style="stroke:#000000; stroke-linecap:round; stroke-linejoin:round; stroke-width:2; stroke-opacity:0.1; fill:none" points="112.177,1116.33 2352.76,1116.33 "/>
<polyline clip-path="url(#clip242)" style="stroke:#000000; stroke-linecap:round; stroke-linejoin:round; stroke-width:2; stroke-opacity:0.1; fill:none" points="112.177,787.368 2352.76,787.368 "/>
<polyline clip-path="url(#clip242)" style="stroke:#000000; stroke-linecap:round; stroke-linejoin:round; stroke-width:2; stroke-opacity:0.1; fill:none" points="112.177,458.408 2352.76,458.408 "/>
<polyline clip-path="url(#clip242)" style="stroke:#000000; stroke-linecap:round; stroke-linejoin:round; stroke-width:2; stroke-opacity:0.1; fill:none" points="112.177,129.447 2352.76,129.447 "/>
<polyline clip-path="url(#clip240)" style="stroke:#000000; stroke-linecap:round; stroke-linejoin:round; stroke-width:4; stroke-opacity:1; fill:none" points="112.177,1423.18 2352.76,1423.18 "/>
<polyline clip-path="url(#clip240)" style="stroke:#000000; stroke-linecap:round; stroke-linejoin:round; stroke-width:4; stroke-opacity:1; fill:none" points="112.177,1423.18 112.177,1404.28 "/>
<polyline clip-path="url(#clip240)" style="stroke:#000000; stroke-linecap:round; stroke-linejoin:round; stroke-width:4; stroke-opacity:1; fill:none" points="560.293,1423.18 560.293,1404.28 "/>
<polyline clip-path="url(#clip240)" style="stroke:#000000; stroke-linecap:round; stroke-linejoin:round; stroke-width:4; stroke-opacity:1; fill:none" points="1008.41,1423.18 1008.41,1404.28 "/>
<polyline clip-path="url(#clip240)" style="stroke:#000000; stroke-linecap:round; stroke-linejoin:round; stroke-width:4; stroke-opacity:1; fill:none" points="1456.52,1423.18 1456.52,1404.28 "/>
<polyline clip-path="url(#clip240)" style="stroke:#000000; stroke-linecap:round; stroke-linejoin:round; stroke-width:4; stroke-opacity:1; fill:none" points="1904.64,1423.18 1904.64,1404.28 "/>
<polyline clip-path="url(#clip240)" style="stroke:#000000; stroke-linecap:round; stroke-linejoin:round; stroke-width:4; stroke-opacity:1; fill:none" points="2352.76,1423.18 2352.76,1404.28 "/>
<path clip-path="url(#clip240)" d="M112.177 1454.1 Q108.566 1454.1 106.737 1457.66 Q104.932 1461.2 104.932 1468.33 Q104.932 1475.44 106.737 1479.01 Q108.566 1482.55 112.177 1482.55 Q115.811 1482.55 117.617 1479.01 Q119.446 1475.44 119.446 1468.33 Q119.446 1461.2 117.617 1457.66 Q115.811 1454.1 112.177 1454.1 M112.177 1450.39 Q117.987 1450.39 121.043 1455 Q124.122 1459.58 124.122 1468.33 Q124.122 1477.06 121.043 1481.67 Q117.987 1486.25 112.177 1486.25 Q106.367 1486.25 103.288 1481.67 Q100.233 1477.06 100.233 1468.33 Q100.233 1459.58 103.288 1455 Q106.367 1450.39 112.177 1450.39 Z" fill="#000000" fill-rule="nonzero" fill-opacity="1" /><path clip-path="url(#clip240)" d="M554.946 1481.64 L571.265 1481.64 L571.265 1485.58 L549.321 1485.58 L549.321 1481.64 Q551.983 1478.89 556.566 1474.26 Q561.173 1469.61 562.353 1468.27 Q564.598 1465.74 565.478 1464.01 Q566.381 1462.25 566.381 1460.56 Q566.381 1457.8 564.436 1456.07 Q562.515 1454.33 559.413 1454.33 Q557.214 1454.33 554.761 1455.09 Q552.33 1455.86 549.552 1457.41 L549.552 1452.69 Q552.376 1451.55 554.83 1450.97 Q557.284 1450.39 559.321 1450.39 Q564.691 1450.39 567.885 1453.08 Q571.08 1455.77 571.08 1460.26 Q571.08 1462.39 570.27 1464.31 Q569.483 1466.2 567.376 1468.8 Q566.798 1469.47 563.696 1472.69 Q560.594 1475.88 554.946 1481.64 Z" fill="#000000" fill-rule="nonzero" fill-opacity="1" /><path clip-path="url(#clip240)" d="M1011.42 1455.09 L999.612 1473.54 L1011.42 1473.54 L1011.42 1455.09 M1010.19 1451.02 L1016.07 1451.02 L1016.07 1473.54 L1021 1473.54 L1021 1477.43 L1016.07 1477.43 L1016.07 1485.58 L1011.42 1485.58 L1011.42 1477.43 L995.816 1477.43 L995.816 1472.92 L1010.19 1451.02 Z" fill="#000000" fill-rule="nonzero" fill-opacity="1" /><path clip-path="url(#clip240)" d="M1456.93 1466.44 Q1453.78 1466.44 1451.93 1468.59 Q1450.1 1470.74 1450.1 1474.49 Q1450.1 1478.22 1451.93 1480.39 Q1453.78 1482.55 1456.93 1482.55 Q1460.08 1482.55 1461.91 1480.39 Q1463.76 1478.22 1463.76 1474.49 Q1463.76 1470.74 1461.91 1468.59 Q1460.08 1466.44 1456.93 1466.44 M1466.21 1451.78 L1466.21 1456.04 Q1464.45 1455.21 1462.65 1454.77 Q1460.86 1454.33 1459.11 1454.33 Q1454.48 1454.33 1452.02 1457.45 Q1449.59 1460.58 1449.24 1466.9 Q1450.61 1464.89 1452.67 1463.82 Q1454.73 1462.73 1457.21 1462.73 Q1462.42 1462.73 1465.42 1465.9 Q1468.46 1469.05 1468.46 1474.49 Q1468.46 1479.82 1465.31 1483.03 Q1462.16 1486.25 1456.93 1486.25 Q1450.93 1486.25 1447.76 1481.67 Q1444.59 1477.06 1444.59 1468.33 Q1444.59 1460.14 1448.48 1455.28 Q1452.37 1450.39 1458.92 1450.39 Q1460.68 1450.39 1462.46 1450.74 Q1464.27 1451.09 1466.21 1451.78 Z" fill="#000000" fill-rule="nonzero" fill-opacity="1" /><path clip-path="url(#clip240)" d="M1904.64 1469.17 Q1901.31 1469.17 1899.39 1470.95 Q1897.49 1472.73 1897.49 1475.86 Q1897.49 1478.98 1899.39 1480.77 Q1901.31 1482.55 1904.64 1482.55 Q1907.97 1482.55 1909.89 1480.77 Q1911.82 1478.96 1911.82 1475.86 Q1911.82 1472.73 1909.89 1470.95 Q1908 1469.17 1904.64 1469.17 M1899.96 1467.18 Q1896.96 1466.44 1895.27 1464.38 Q1893.6 1462.32 1893.6 1459.35 Q1893.6 1455.21 1896.54 1452.8 Q1899.5 1450.39 1904.64 1450.39 Q1909.8 1450.39 1912.74 1452.8 Q1915.68 1455.21 1915.68 1459.35 Q1915.68 1462.32 1913.99 1464.38 Q1912.33 1466.44 1909.34 1467.18 Q1912.72 1467.96 1914.59 1470.26 Q1916.49 1472.55 1916.49 1475.86 Q1916.49 1480.88 1913.41 1483.57 Q1910.36 1486.25 1904.64 1486.25 Q1898.92 1486.25 1895.84 1483.57 Q1892.79 1480.88 1892.79 1475.86 Q1892.79 1472.55 1894.69 1470.26 Q1896.58 1467.96 1899.96 1467.18 M1898.25 1459.79 Q1898.25 1462.48 1899.92 1463.98 Q1901.61 1465.49 1904.64 1465.49 Q1907.65 1465.49 1909.34 1463.98 Q1911.05 1462.48 1911.05 1459.79 Q1911.05 1457.11 1909.34 1455.6 Q1907.65 1454.1 1904.64 1454.1 Q1901.61 1454.1 1899.92 1455.6 Q1898.25 1457.11 1898.25 1459.79 Z" fill="#000000" fill-rule="nonzero" fill-opacity="1" /><path clip-path="url(#clip240)" d="M2327.44 1481.64 L2335.08 1481.64 L2335.08 1455.28 L2326.77 1456.95 L2326.77 1452.69 L2335.04 1451.02 L2339.71 1451.02 L2339.71 1481.64 L2347.35 1481.64 L2347.35 1485.58 L2327.44 1485.58 L2327.44 1481.64 Z" fill="#000000" fill-rule="nonzero" fill-opacity="1" /><path clip-path="url(#clip240)" d="M2366.8 1454.1 Q2363.18 1454.1 2361.36 1457.66 Q2359.55 1461.2 2359.55 1468.33 Q2359.55 1475.44 2361.36 1479.01 Q2363.18 1482.55 2366.8 1482.55 Q2370.43 1482.55 2372.23 1479.01 Q2374.06 1475.44 2374.06 1468.33 Q2374.06 1461.2 2372.23 1457.66 Q2370.43 1454.1 2366.8 1454.1 M2366.8 1450.39 Q2372.61 1450.39 2375.66 1455 Q2378.74 1459.58 2378.74 1468.33 Q2378.74 1477.06 2375.66 1481.67 Q2372.61 1486.25 2366.8 1486.25 Q2360.99 1486.25 2357.91 1481.67 Q2354.85 1477.06 2354.85 1468.33 Q2354.85 1459.58 2357.91 1455 Q2360.99 1450.39 2366.8 1450.39 Z" fill="#000000" fill-rule="nonzero" fill-opacity="1" /><path clip-path="url(#clip240)" d="M1231.53 1522.27 L1231.53 1532.4 L1243.59 1532.4 L1243.59 1536.95 L1231.53 1536.95 L1231.53 1556.3 Q1231.53 1560.66 1232.71 1561.9 Q1233.91 1563.14 1237.58 1563.14 L1243.59 1563.14 L1243.59 1568.04 L1237.58 1568.04 Q1230.8 1568.04 1228.22 1565.53 Q1225.64 1562.98 1225.64 1556.3 L1225.64 1536.95 L1221.34 1536.95 L1221.34 1532.4 L1225.64 1532.4 L1225.64 1522.27 L1231.53 1522.27 Z" fill="#000000" fill-rule="nonzero" fill-opacity="1" /><polyline clip-path="url(#clip240)" style="stroke:#000000; stroke-linecap:round; stroke-linejoin:round; stroke-width:4; stroke-opacity:1; fill:none" points="112.177,1423.18 112.177,47.2441 "/>
<polyline clip-path="url(#clip240)" style="stroke:#000000; stroke-linecap:round; stroke-linejoin:round; stroke-width:4; stroke-opacity:1; fill:none" points="112.177,1116.33 131.075,1116.33 "/>
<polyline clip-path="url(#clip240)" style="stroke:#000000; stroke-linecap:round; stroke-linejoin:round; stroke-width:4; stroke-opacity:1; fill:none" points="112.177,787.368 131.075,787.368 "/>
<polyline clip-path="url(#clip240)" style="stroke:#000000; stroke-linecap:round; stroke-linejoin:round; stroke-width:4; stroke-opacity:1; fill:none" points="112.177,458.408 131.075,458.408 "/>
<polyline clip-path="url(#clip240)" style="stroke:#000000; stroke-linecap:round; stroke-linejoin:round; stroke-width:4; stroke-opacity:1; fill:none" points="112.177,129.447 131.075,129.447 "/>
<path clip-path="url(#clip240)" d="M56.2699 1129.67 L63.9087 1129.67 L63.9087 1103.31 L55.5986 1104.97 L55.5986 1100.71 L63.8624 1099.05 L68.5383 1099.05 L68.5383 1129.67 L76.1772 1129.67 L76.1772 1133.61 L56.2699 1133.61 L56.2699 1129.67 Z" fill="#000000" fill-rule="nonzero" fill-opacity="1" /><path clip-path="url(#clip240)" d="M59.8578 800.713 L76.1772 800.713 L76.1772 804.648 L54.2328 804.648 L54.2328 800.713 Q56.8949 797.958 61.4782 793.329 Q66.0846 788.676 67.2652 787.333 Q69.5105 784.81 70.3902 783.074 Q71.2929 781.315 71.2929 779.625 Q71.2929 776.87 69.3485 775.134 Q67.4272 773.398 64.3254 773.398 Q62.1263 773.398 59.6726 774.162 Q57.2421 774.926 54.4643 776.477 L54.4643 771.755 Q57.2884 770.62 59.7421 770.042 Q62.1958 769.463 64.2328 769.463 Q69.6031 769.463 72.7976 772.148 Q75.992 774.833 75.992 779.324 Q75.992 781.454 75.1818 783.375 Q74.3948 785.273 72.2883 787.866 Q71.7096 788.537 68.6078 791.755 Q65.5059 794.949 59.8578 800.713 Z" fill="#000000" fill-rule="nonzero" fill-opacity="1" /><path clip-path="url(#clip240)" d="M69.0476 457.054 Q72.404 457.771 74.279 460.04 Q76.1772 462.308 76.1772 465.642 Q76.1772 470.757 72.6587 473.558 Q69.1402 476.359 62.6587 476.359 Q60.4828 476.359 58.168 475.919 Q55.8764 475.503 53.4227 474.646 L53.4227 470.132 Q55.3671 471.266 57.6819 471.845 Q59.9967 472.424 62.5198 472.424 Q66.918 472.424 69.2096 470.688 Q71.5244 468.952 71.5244 465.642 Q71.5244 462.586 69.3717 460.873 Q67.242 459.137 63.4226 459.137 L59.3949 459.137 L59.3949 455.294 L63.6078 455.294 Q67.0569 455.294 68.8855 453.929 Q70.7142 452.54 70.7142 449.947 Q70.7142 447.285 68.8161 445.873 Q66.9411 444.438 63.4226 444.438 Q61.5013 444.438 59.3023 444.855 Q57.1032 445.271 54.4643 446.151 L54.4643 441.984 Q57.1264 441.243 59.4412 440.873 Q61.7791 440.503 63.8393 440.503 Q69.1633 440.503 72.2652 442.933 Q75.367 445.341 75.367 449.461 Q75.367 452.331 73.7235 454.322 Q72.08 456.29 69.0476 457.054 Z" fill="#000000" fill-rule="nonzero" fill-opacity="1" /><path clip-path="url(#clip240)" d="M66.5939 116.242 L54.7884 134.69 L66.5939 134.69 L66.5939 116.242 M65.367 112.167 L71.2466 112.167 L71.2466 134.69 L76.1772 134.69 L76.1772 138.579 L71.2466 138.579 L71.2466 146.727 L66.5939 146.727 L66.5939 138.579 L50.9921 138.579 L50.9921 134.065 L65.367 112.167 Z" fill="#000000" fill-rule="nonzero" fill-opacity="1" /><polyline clip-path="url(#clip242)" style="stroke:#009af9; stroke-linecap:round; stroke-linejoin:round; stroke-width:8; stroke-opacity:1; fill:none" points="112.177,1379.5 114.42,1378.83 116.663,1378.17 118.906,1377.49 121.148,1376.81 123.391,1376.12 125.634,1375.42 127.877,1374.72 130.12,1374.01 132.363,1373.29 134.605,1372.57 136.848,1371.84 139.091,1371.1 141.334,1370.35 143.577,1369.6 145.819,1368.84 148.062,1368.07 150.305,1367.29 152.548,1366.51 154.791,1365.71 157.034,1364.91 159.276,1364.11 161.519,1363.29 163.762,1362.46 166.005,1361.63 168.248,1360.79 170.491,1359.94 172.733,1359.08 174.976,1358.21 177.219,1357.34 179.462,1356.45 181.705,1355.56 183.947,1354.66 186.19,1353.74 188.433,1352.82 190.676,1351.89 192.919,1350.95 195.162,1350 197.404,1349.05 199.647,1348.08 201.89,1347.1 204.133,1346.11 206.376,1345.11 208.619,1344.11 210.861,1343.09 213.104,1342.06 215.347,1341.02 217.59,1339.97 219.833,1338.91 222.075,1337.84 224.318,1336.76 226.561,1335.67 228.804,1334.57 231.047,1333.45 233.29,1332.33 235.532,1331.19 237.775,1330.04 240.018,1328.88 242.261,1327.71 244.504,1326.53 246.746,1325.34 248.989,1324.13 251.232,1322.91 253.475,1321.68 255.718,1320.44 257.961,1319.18 260.203,1317.91 262.446,1316.63 264.689,1315.33 266.932,1314.03 269.175,1312.71 271.418,1311.37 273.66,1310.03 275.903,1308.67 278.146,1376.29 280.389,1375.6 282.632,1374.89 284.874,1374.19 287.117,1373.47 289.36,1372.75 291.603,1372.02 293.846,1371.28 296.089,1370.54 298.331,1369.78 300.574,1369.03 302.817,1368.26 305.06,1367.48 307.303,1366.7 309.545,1365.91 311.788,1365.11 314.031,1364.3 316.274,1363.49 318.517,1362.67 320.76,1361.84 323.002,1361 325.245,1360.15 327.488,1359.29 329.731,1358.43 331.974,1357.55 334.217,1356.67 336.459,1355.78 338.702,1354.88 340.945,1353.97 343.188,1353.05 345.431,1352.12 347.673,1351.18 349.916,1350.24 352.159,1349.28 354.402,1348.32 356.645,1347.34 358.888,1346.35 361.13,1345.36 363.373,1344.35 365.616,1343.34 367.859,1342.31 370.102,1341.28 372.344,1340.23 374.587,1339.17 376.83,1338.11 379.073,1337.03 381.316,1335.94 383.559,1334.84 385.801,1333.73 388.044,1332.6 390.287,1331.47 392.53,1330.33 394.773,1329.17 397.016,1328 399.258,1326.82 401.501,1325.63 403.744,1324.43 405.987,1323.21 408.23,1321.98 410.472,1320.74 412.715,1319.49 414.958,1318.22 417.201,1316.95 419.444,1315.65 421.687,1314.35 423.929,1313.03 426.172,1311.7 428.415,1310.36 430.658,1309 432.901,1307.63 435.143,1306.25 437.386,1304.85 439.629,1303.43 441.872,1302.01 444.115,1300.56 446.358,1299.11 448.6,1297.64 450.843,1296.15 453.086,1294.65 455.329,1293.14 457.572,1291.61 459.815,1290.06 462.057,1288.5 464.3,1286.92 466.543,1285.33 468.786,1283.72 471.029,1282.09 473.271,1280.45 475.514,1278.79 477.757,1277.12 480,1275.43 482.243,1273.72 484.486,1271.99 486.728,1270.25 488.971,1268.49 491.214,1266.71 493.457,1264.91 495.7,1263.1 497.942,1261.26 500.185,1259.41 502.428,1257.54 504.671,1255.65 506.914,1253.75 509.157,1251.82 511.399,1249.87 513.642,1247.91 515.885,1245.92 518.128,1243.91 520.371,1241.89 522.614,1239.84 524.856,1237.78 527.099,1235.69 529.342,1233.58 531.585,1231.45 533.828,1229.3 536.07,1227.13 538.313,1224.93 540.556,1222.71 542.799,1220.48 545.042,1218.21 547.285,1215.93 549.527,1213.62 551.77,1211.29 554.013,1208.94 556.256,1206.56 558.499,1204.16 560.741,1201.73 562.984,1199.28 565.227,1196.81 567.47,1194.31 569.713,1191.78 571.956,1189.23 574.198,1186.66 576.441,1184.05 578.684,1181.43 580.927,1178.77 583.17,1176.09 585.413,1173.38 587.655,1170.65 589.898,1167.88 592.141,1165.09 594.384,1162.27 596.627,1159.43 598.869,1156.55 601.112,1153.65 603.355,1150.71 605.598,1147.75 607.841,1144.75 610.084,1141.73 612.326,1138.68 614.569,1135.59 616.812,1132.48 619.055,1129.33 621.298,1126.15 623.54,1122.94 625.783,1119.7 628.026,1116.42 630.269,1113.11 632.512,1109.77 634.755,1106.4 636.997,1102.99 639.24,1099.54 641.483,1096.06 643.726,1092.55 645.969,1089 648.212,1085.42 650.454,1081.8 652.697,1078.14 654.94,1074.45 657.183,1070.72 659.426,1066.95 661.668,1063.14 663.911,1059.3 666.154,1055.42 668.397,1051.49 670.64,1047.53 672.883,1043.53 675.125,1039.49 677.368,1035.41 679.611,1031.28 681.854,1027.12 684.097,1022.91 686.339,1018.66 688.582,1014.37 690.825,1010.04 693.068,1005.66 695.311,1001.23 697.554,996.766 699.796,992.254 702.039,987.696 704.282,983.092 706.525,978.442 708.768,973.746 711.011,969.002 713.253,964.21 715.496,959.37 717.739,954.481 719.982,949.544 722.225,944.556 724.467,1192.41 726.71,1189.86 728.953,1187.29 731.196,1184.7 733.439,1182.08 735.682,1179.43 737.924,1176.75 740.167,1174.05 742.41,1171.32 744.653,1168.57 746.896,1165.78 749.138,1162.97 751.381,1160.13 753.624,1157.26 755.867,1154.36 758.11,1151.44 760.353,1148.48 762.595,1145.5 764.838,1142.48 767.081,1139.43 769.324,1136.36 771.567,1133.25 773.81,1130.11 776.052,1126.94 778.295,1123.74 780.538,1120.5 782.781,1117.24 785.024,1113.94 787.266,1110.6 789.509,1107.24 791.752,1103.84 793.995,1100.4 796.238,1096.93 798.481,1093.43 800.723,1089.89 802.966,1086.31 805.209,1082.7 807.452,1079.05 809.695,1075.37 811.938,1071.65 814.18,1067.89 816.423,1064.09 818.666,1060.26 820.909,1056.38 823.152,1052.47 825.394,1048.52 827.637,1044.53 829.88,1040.5 832.123,1036.42 834.366,1032.31 836.609,1028.16 838.851,1023.96 841.094,1019.72 843.337,1015.44 845.58,1011.11 847.823,1006.74 850.065,1002.33 852.308,997.875 854.551,993.374 856.794,988.827 859.037,984.234 861.28,979.596 863.522,974.911 865.765,970.178 868.008,965.399 870.251,960.571 872.494,955.694 874.737,950.768 876.979,945.793 879.222,940.767 881.465,935.691 883.708,930.564 885.951,925.386 888.193,920.155 890.436,914.872 892.679,909.535 894.922,904.145 897.165,898.701 899.408,893.203 901.65,887.649 903.893,882.039 906.136,876.373 908.379,870.65 910.622,864.87 912.864,859.031 915.107,853.134 917.35,847.178 919.593,841.162 921.836,835.086 924.079,828.948 926.321,822.749 928.564,816.488 930.807,810.164 933.05,803.776 935.293,797.324 937.536,790.807 939.778,784.224 942.021,777.576 944.264,770.86 946.507,764.077 948.75,757.226 950.992,750.306 953.235,743.316 955.478,736.256 957.721,729.124 959.964,721.921 962.207,714.646 964.449,707.297 966.692,699.874 968.935,692.376 971.178,684.802 973.421,677.153 975.663,669.426 977.906,661.621 980.149,653.738 982.392,645.775 984.635,637.732 986.878,629.608 989.12,621.402 991.363,613.113 993.606,604.74 995.849,596.284 998.092,587.741 1000.33,579.113 1002.58,570.398 1004.82,561.595 1007.06,552.703 1009.31,543.722 1011.55,534.65 1013.79,525.487 1016.03,516.231 1018.28,506.882 1020.52,497.439 1022.76,487.901 1025.01,478.267 1027.25,468.536 1029.49,458.708 1031.73,448.78 1033.98,438.753 1036.22,428.624 1038.46,418.395 1040.71,408.062 1042.95,397.626 1045.19,387.085 1047.43,376.438 1049.68,365.684 1051.92,354.823 1054.16,343.853 1056.41,332.772 1058.65,321.58 1060.89,310.275 1063.13,298.856 1065.38,287.323 1067.62,275.673 1069.86,263.907 1072.1,252.022 1074.35,240.017 1076.59,227.892 1078.83,215.645 1081.08,203.274 1083.32,190.779 1085.56,178.158 1087.8,165.411 1090.05,152.535 1092.29,139.529 1094.53,126.393 1096.78,113.124 1099.02,99.7225 1101.26,86.1857 1103.5,758.903 1105.75,751.998 1107.99,745.023 1110.23,737.979 1112.48,730.863 1114.72,723.676 1116.96,716.416 1119.2,709.083 1121.45,701.677 1123.69,694.196 1125.93,686.64 1128.18,679.007 1130.42,671.298 1132.66,663.512 1134.9,655.647 1137.15,647.703 1139.39,639.679 1141.63,631.574 1143.88,623.388 1146.12,1030.2 1148.36,1026.03 1150.6,1021.81 1152.85,1017.55 1155.09,1013.24 1157.33,1008.9 1159.57,1004.51 1161.82,1000.07 1164.06,995.594 1166.3,991.069 1168.55,986.5 1170.79,981.884 1173.03,977.222 1175.27,972.513 1177.52,967.757 1179.76,962.953 1182,958.101 1184.25,953.2 1186.49,948.25 1188.73,943.25 1190.97,938.2 1193.22,933.1 1195.46,927.948 1197.7,922.744 1199.95,917.488 1202.19,912.18 1204.43,906.817 1206.67,901.402 1208.92,895.931 1211.16,890.406 1213.4,884.825 1215.65,879.188 1217.89,873.494 1220.13,867.743 1222.37,861.934 1224.62,856.067 1226.86,850.14 1229.1,844.154 1231.35,838.108 1233.59,832.001 1235.83,825.832 1238.07,819.602 1240.32,813.308 1242.56,806.951 1244.8,800.53 1247.04,794.044 1249.29,787.493 1251.53,780.876 1253.77,774.192 1256.02,767.441 1258.26,760.622 1260.5,753.734 1262.74,746.777 1264.99,739.749 1267.23,732.651 1269.47,725.481 1271.72,718.239 1273.96,710.923 1276.2,703.535 1278.44,696.071 1280.69,688.533 1282.93,680.918 1285.17,673.227 1287.42,665.458 1289.66,657.611 1291.9,649.685 1294.14,641.68 1296.39,633.593 1298.63,625.426 1300.87,617.176 1303.12,608.843 1305.36,600.427 1307.6,591.926 1309.84,583.339 1312.09,574.666 1314.33,565.907 1316.57,557.059 1318.82,548.123 1321.06,539.097 1323.3,529.98 1325.54,520.772 1327.79,511.471 1330.03,502.076 1332.27,492.587 1334.51,483.003 1336.76,959.303 1339,954.414 1341.24,949.476 1343.49,944.488 1345.73,939.449 1347.97,934.36 1350.21,929.22 1352.46,924.028 1354.7,918.784 1356.94,913.487 1359.19,908.137 1361.43,902.733 1363.67,897.275 1365.91,891.762 1368.16,886.193 1370.4,880.569 1372.64,874.888 1374.89,869.15 1377.13,863.354 1379.37,857.5 1381.61,851.587 1383.86,845.615 1386.1,839.582 1388.34,833.489 1390.59,827.335 1392.83,821.118 1395.07,814.84 1397.31,808.498 1399.56,802.092 1401.8,795.622 1404.04,789.086 1406.29,782.485 1408.53,775.818 1410.77,769.083 1413.01,762.28 1415.26,755.409 1417.5,748.469 1419.74,741.459 1421.98,734.379 1424.23,727.227 1426.47,720.003 1428.71,712.706 1430.96,705.336 1433.2,697.892 1435.44,690.372 1437.68,682.777 1439.93,675.106 1442.17,667.357 1444.41,659.53 1446.66,651.625 1448.9,643.64 1451.14,635.574 1453.38,627.428 1455.63,619.199 1457.87,610.888 1460.11,602.493 1462.36,594.014 1464.6,585.449 1466.84,576.799 1469.08,568.061 1471.33,559.236 1473.57,997.84 1475.81,993.338 1478.06,988.791 1480.3,984.198 1482.54,979.559 1484.78,974.874 1487.03,970.141 1489.27,965.361 1491.51,960.532 1493.76,955.655 1496,950.729 1498.24,945.754 1500.48,940.729 1502.73,935.653 1504.97,930.526 1507.21,925.347 1509.46,920.117 1511.7,914.834 1513.94,909.498 1516.18,904.108 1518.43,898.664 1520.67,893.166 1522.91,887.612 1525.15,882.003 1527.4,876.337 1529.64,870.614 1531.88,864.833 1534.13,858.995 1536.37,853.098 1538.61,847.141 1540.85,841.125 1543.1,835.048 1545.34,828.909 1547.58,822.709 1549.83,816.447 1552.07,810.122 1554.31,803.733 1556.55,797.279 1558.8,790.761 1561.04,784.177 1563.28,777.527 1565.53,770.809 1567.77,764.025 1570.01,757.171 1572.25,750.249 1574.5,743.257 1576.74,736.194 1578.98,729.061 1581.23,721.855 1583.47,714.577 1585.71,707.225 1587.95,699.8 1590.2,692.299 1592.44,684.723 1594.68,677.071 1596.93,669.342 1599.17,661.534 1601.41,653.649 1603.65,645.683 1605.9,637.638 1608.14,629.511 1610.38,621.303 1612.62,613.012 1614.87,604.638 1617.11,596.18 1619.35,587.636 1621.6,579.007 1623.84,570.291 1626.08,561.487 1628.32,552.595 1630.57,543.614 1632.81,534.542 1635.05,985.353 1637.3,980.726 1639.54,976.053 1641.78,971.332 1644.02,966.564 1646.27,961.748 1648.51,956.883 1650.75,951.969 1653,947.007 1655.24,941.994 1657.48,936.93 1659.72,931.816 1661.97,926.651 1664.21,921.433 1666.45,916.163 1668.7,910.84 1670.94,905.463 1673.18,900.032 1675.42,894.547 1677.67,889.007 1679.91,883.41 1682.15,877.758 1684.4,872.048 1686.64,866.281 1688.88,860.456 1691.12,854.573 1693.37,848.63 1695.61,842.628 1697.85,836.565 1700.09,830.441 1702.34,824.255 1704.58,818.007 1706.82,811.697 1709.07,805.322 1711.31,798.884 1713.55,792.381 1715.79,785.813 1718.04,779.178 1720.28,772.477 1722.52,765.708 1724.77,1102.1 1727.01,1098.65 1729.25,1095.16 1731.49,1091.64 1733.74,1088.08 1735.98,1084.48 1738.22,1080.85 1740.47,1077.19 1742.71,1073.48 1744.95,1069.74 1747.19,1065.97 1749.44,1062.15 1751.68,1058.3 1753.92,1054.4 1756.17,1050.47 1758.41,1046.5 1760.65,1042.49 1762.89,1038.43 1765.14,1034.34 1767.38,1030.21 1769.62,1026.03 1771.87,1021.82 1774.11,1017.56 1776.35,1013.25 1778.59,1008.91 1780.84,1004.52 1783.08,1000.08 1785.32,995.606 1787.56,991.083 1789.81,986.514 1792.05,981.9 1794.29,977.239 1796.54,972.531 1798.78,967.776 1801.02,962.973 1803.26,958.121 1805.51,953.221 1807.75,948.271 1809.99,943.272 1812.24,938.222 1814.48,933.121 1816.72,927.969 1818.96,922.765 1821.21,917.509 1823.45,912.2 1825.69,906.837 1827.94,901.42 1830.18,895.949 1832.42,890.422 1834.66,884.84 1836.91,879.201 1839.15,873.506 1841.39,867.753 1843.64,861.943 1845.88,856.074 1848.12,850.145 1850.36,844.157 1852.61,838.109 1854.85,832 1857.09,825.829 1859.34,819.596 1861.58,813.3 1863.82,806.941 1866.06,800.518 1868.31,794.031 1870.55,787.478 1872.79,780.859 1875.03,774.174 1877.28,767.422 1879.52,760.601 1881.76,753.713 1884.01,746.755 1886.25,739.727 1888.49,1088.97 1890.73,1085.39 1892.98,1081.77 1895.22,1078.11 1897.46,1259.85 1899.71,1257.99 1901.95,1256.1 1904.19,1254.2 1906.43,1252.28 1908.68,1250.33 1910.92,1248.37 1913.16,1246.39 1915.41,1244.39 1917.65,1242.37 1919.89,1240.33 1922.13,1238.27 1924.38,1236.18 1926.62,1234.08 1928.86,1231.96 1931.11,1229.81 1933.35,1227.64 1935.59,1225.45 1937.83,1223.24 1940.08,1221.01 1942.32,1218.75 1944.56,1216.47 1946.81,1214.17 1949.05,1211.85 1951.29,1209.5 1953.53,1207.13 1955.78,1204.73 1958.02,1202.31 1960.26,1199.87 1962.5,1197.4 1964.75,1194.91 1966.99,1192.39 1969.23,1189.84 1971.48,1187.27 1973.72,1184.68 1975.96,1182.06 1978.2,1179.41 1980.45,1176.74 1982.69,1174.04 1984.93,1171.31 1987.18,1168.55 1989.42,1165.77 1991.66,1162.96 1993.9,1160.12 1996.15,1157.25 1998.39,1154.35 2000.63,1151.42 2002.88,1148.47 2005.12,1145.48 2007.36,1142.47 2009.6,1139.42 2011.85,1136.34 2014.09,1133.23 2016.33,1130.1 2018.58,1126.92 2020.82,1123.72 2023.06,1120.49 2025.3,1117.22 2027.55,1113.92 2029.79,1110.58 2032.03,1107.21 2034.28,1103.81 2036.52,1100.38 2038.76,1096.91 2041,1093.4 2043.25,1089.86 2045.49,1086.28 2047.73,1082.67 2049.97,1079.02 2052.22,1075.34 2054.46,1071.61 2056.7,1067.85 2058.95,1064.06 2061.19,1060.22 2063.43,1056.35 2065.67,1052.43 2067.92,1048.48 2070.16,1044.49 2072.4,1040.45 2074.65,1240.84 2076.89,1238.78 2079.13,1236.7 2081.37,1234.61 2083.62,1232.49 2085.86,1230.35 2088.1,1228.18 2090.35,1226 2092.59,1223.79 2094.83,1221.56 2097.07,1219.31 2099.32,1217.04 2101.56,1214.74 2103.8,1212.43 2106.05,1210.08 2108.29,1207.72 2110.53,1205.33 2112.77,1202.91 2115.02,1200.47 2117.26,1198.01 2119.5,1195.52 2121.75,1193.01 2123.99,1190.47 2126.23,1187.91 2128.47,1185.32 2130.72,1182.7 2132.96,1180.06 2135.2,1177.39 2137.45,1174.7 2139.69,1171.98 2141.93,1169.23 2144.17,1166.45 2146.42,1163.65 2148.66,1160.81 2150.9,1157.95 2153.14,1155.06 2155.39,1152.14 2157.63,1149.19 2159.87,1295.76 2162.12,1294.25 2164.36,1292.73 2166.6,1291.2 2168.84,1289.65 2171.09,1288.08 2173.33,1286.5 2175.57,1284.9 2177.82,1283.29 2180.06,1281.66 2182.3,1280.01 2184.54,1278.35 2186.79,1276.67 2189.03,1274.98 2191.27,1273.26 2193.52,1271.53 2195.76,1269.78 2198,1268.02 2200.24,1266.23 2202.49,1264.43 2204.73,1262.61 2206.97,1260.78 2209.22,1258.92 2211.46,1257.05 2213.7,1255.15 2215.94,1253.24 2218.19,1251.31 2220.43,1249.36 2222.67,1247.38 2224.92,1245.39 2227.16,1243.38 2229.4,1241.35 2231.64,1239.3 2233.89,1237.23 2236.13,1235.13 2238.37,1233.02 2240.61,1230.88 2242.86,1228.73 2245.1,1335.92 2247.34,1334.82 2249.59,1333.71 2251.83,1332.58 2254.07,1331.45 2256.31,1330.31 2258.56,1329.15 2260.8,1327.98 2263.04,1326.8 2265.29,1325.61 2267.53,1324.4 2269.77,1384.24 2272.01,1383.62 2274.26,1383 2276.5,1382.38 2278.74,1381.74 2280.99,1381.1 2283.23,1380.46 2285.47,1379.81 2287.71,1379.15 2289.96,1378.48 2292.2,1377.81 2294.44,1377.13 2296.69,1376.45 2298.93,1375.75 2301.17,1375.05 2303.41,1374.35 2305.66,1373.63 2307.9,1372.91 2310.14,1372.18 2312.39,1371.45 2314.63,1370.71 2316.87,1369.96 2319.11,1369.2 2321.36,1368.43 2323.6,1367.66 2325.84,1366.88 2328.08,1366.09 2330.33,1365.29 2332.57,1364.49 2334.81,1363.68 2337.06,1362.85 2339.3,1362.03 2341.54,1361.19 2343.78,1360.34 2346.03,1359.49 2348.27,1358.62 2350.51,1357.75 2352.76,1356.87 "/>
<path clip-path="url(#clip240)" d="M1964.92 196.789 L2278.07 196.789 L2278.07 93.1086 L1964.92 93.1086  Z" fill="#ffffff" fill-rule="evenodd" fill-opacity="1"/>
<polyline clip-path="url(#clip240)" style="stroke:#000000; stroke-linecap:round; stroke-linejoin:round; stroke-width:4; stroke-opacity:1; fill:none" points="1964.92,196.789 2278.07,196.789 2278.07,93.1086 1964.92,93.1086 1964.92,196.789 "/>
<polyline clip-path="url(#clip240)" style="stroke:#009af9; stroke-linecap:round; stroke-linejoin:round; stroke-width:8; stroke-opacity:1; fill:none" points="1989.81,144.949 2139.18,144.949 "/>
<path clip-path="url(#clip240)" d="M2164.08 151.997 L2164.08 136.303 L2168.34 136.303 L2168.34 151.835 Q2168.34 155.516 2169.77 157.368 Q2171.21 159.196 2174.08 159.196 Q2177.53 159.196 2179.52 156.997 Q2181.53 154.798 2181.53 151.002 L2181.53 136.303 L2185.79 136.303 L2185.79 162.229 L2181.53 162.229 L2181.53 158.247 Q2179.98 160.608 2177.92 161.766 Q2175.88 162.9 2173.18 162.9 Q2168.71 162.9 2166.39 160.122 Q2164.08 157.344 2164.08 151.997 M2174.8 135.678 L2174.8 135.678 Z" fill="#000000" fill-rule="nonzero" fill-opacity="1" /><path clip-path="url(#clip240)" d="M2194.17 126.21 L2203.99 126.21 L2203.99 129.52 L2198.43 129.52 L2198.43 165.168 L2203.99 165.168 L2203.99 168.479 L2194.17 168.479 L2194.17 126.21 Z" fill="#000000" fill-rule="nonzero" fill-opacity="1" /><path clip-path="url(#clip240)" d="M2214.47 158.293 L2222.11 158.293 L2222.11 131.928 L2213.8 133.595 L2213.8 129.335 L2222.06 127.669 L2226.74 127.669 L2226.74 158.293 L2234.38 158.293 L2234.38 162.229 L2214.47 162.229 L2214.47 158.293 Z" fill="#000000" fill-rule="nonzero" fill-opacity="1" /><path clip-path="url(#clip240)" d="M2253.17 126.21 L2253.17 168.479 L2243.36 168.479 L2243.36 165.168 L2248.89 165.168 L2248.89 129.52 L2243.36 129.52 L2243.36 126.21 L2253.17 126.21 Z" fill="#000000" fill-rule="nonzero" fill-opacity="1" /></svg>
