<?xml version="1.0" encoding="utf-8"?>
<svg xmlns="http://www.w3.org/2000/svg" xmlns:xlink="http://www.w3.org/1999/xlink" width="600" height="400" viewBox="0 0 2400 1600">
<defs>
  <clipPath id="clip210">
    <rect x="0" y="0" width="2400" height="1600"/>
  </clipPath>
</defs>
<path clip-path="url(#clip210)" d="M0 1600 L2400 1600 L2400 0 L0 0  Z" fill="#ffffff" fill-rule="evenodd" fill-opacity="1"/>
<defs>
  <clipPath id="clip211">
    <rect x="480" y="0" width="1681" height="1600"/>
  </clipPath>
</defs>
<path clip-path="url(#clip210)" d="M112.177 1423.18 L2352.76 1423.18 L2352.76 47.2441 L112.177 47.2441  Z" fill="#ffffff" fill-rule="evenodd" fill-opacity="1"/>
<defs>
  <clipPath id="clip212">
    <rect x="112" y="47" width="2242" height="1377"/>
  </clipPath>
</defs>
<polyline clip-path="url(#clip212)" style="stroke:#000000; stroke-linecap:round; stroke-linejoin:round; stroke-width:2; stroke-opacity:0.1; fill:none" points="112.177,1423.18 112.177,47.2441 "/>
<polyline clip-path="url(#clip212)" style="stroke:#000000; stroke-linecap:round; stroke-linejoin:round; stroke-width:2; stroke-opacity:0.1; fill:none" points="560.293,1423.18 560.293,47.2441 "/>
<polyline clip-path="url(#clip212)" style="stroke:#000000; stroke-linecap:round; stroke-linejoin:round; stroke-width:2; stroke-opacity:0.1; fill:none" points="1008.41,1423.18 1008.41,47.2441 "/>
<polyline clip-path="url(#clip212)" style="stroke:#000000; stroke-linecap:round; stroke-linejoin:round; stroke-width:2; stroke-opacity:0.1; fill:none" points="1456.52,1423.18 1456.52,47.2441 "/>
<polyline clip-path="url(#clip212)" style="stroke:#000000; stroke-linecap:round; stroke-linejoin:round; stroke-width:2; stroke-opacity:0.1; fill:none" points="1904.64,1423.18 1904.64,47.2441 "/>
<polyline clip-path="url(#clip212)" style="stroke:#000000; stroke-linecap:round; stroke-linejoin:round; stroke-width:2; stroke-opacity:0.1; fill:none" points="2352.76,1423.18 2352.76,47.2441 "/>
<polyline clip-path="url(#clip212)" style="stroke:#000000; stroke-linecap:round; stroke-linejoin:round; stroke-width:2; stroke-opacity:0.1; fill:none" points="112.177,1134.95 2352.76,1134.95 "/>
<polyline clip-path="url(#clip212)" style="stroke:#000000; stroke-linecap:round; stroke-linejoin:round; stroke-width:2; stroke-opacity:0.1; fill:none" points="112.177,823.343 2352.76,823.343 "/>
<polyline clip-path="url(#clip212)" style="stroke:#000000; stroke-linecap:round; stroke-linejoin:round; stroke-width:2; stroke-opacity:0.1; fill:none" points="112.177,511.735 2352.76,511.735 "/>
<polyline clip-path="url(#clip212)" style="stroke:#000000; stroke-linecap:round; stroke-linejoin:round; stroke-width:2; stroke-opacity:0.1; fill:none" points="112.177,200.126 2352.76,200.126 "/>
<polyline clip-path="url(#clip210)" style="stroke:#000000; stroke-linecap:round; stroke-linejoin:round; stroke-width:4; stroke-opacity:1; fill:none" points="112.177,1423.18 2352.76,1423.18 "/>
<polyline clip-path="url(#clip210)" style="stroke:#000000; stroke-linecap:round; stroke-linejoin:round; stroke-width:4; stroke-opacity:1; fill:none" points="112.177,1423.18 112.177,1404.28 "/>
<polyline clip-path="url(#clip210)" style="stroke:#000000; stroke-linecap:round; stroke-linejoin:round; stroke-width:4; stroke-opacity:1; fill:none" points="560.293,1423.18 560.293,1404.28 "/>
<polyline clip-path="url(#clip210)" style="stroke:#000000; stroke-linecap:round; stroke-linejoin:round; stroke-width:4; stroke-opacity:1; fill:none" points="1008.41,1423.18 1008.41,1404.28 "/>
<polyline clip-path="url(#clip210)" style="stroke:#000000; stroke-linecap:round; stroke-linejoin:round; stroke-width:4; stroke-opacity:1; fill:none" points="1456.52,1423.18 1456.52,1404.28 "/>
<polyline clip-path="url(#clip210)" style="stroke:#000000; stroke-linecap:round; stroke-linejoin:round; stroke-width:4; stroke-opacity:1; fill:none" points="1904.64,1423.18 1904.64,1404.28 "/>
<polyline clip-path="url(#clip210)" style="stroke:#000000; stroke-linecap:round; stroke-linejoin:round; stroke-width:4; stroke-opacity:1; fill:none" points="2352.76,1423.18 2352.76,1404.28 "/>
<path clip-path="url(#clip210)" d="M112.177 1454.1 Q108.566 1454.1 106.737 1457.66 Q104.932 1461.2 104.932 1468.33 Q104.932 1475.44 106.737 1479.01 Q108.566 1482.55 112.177 1482.55 Q115.811 1482.55 117.617 1479.01 Q119.446 1475.44 119.446 1468.33 Q119.446 1461.2 117.617 1457.66 Q115.811 1454.1 112.177 1454.1 M112.177 1450.39 Q117.987 1450.39 121.043 1455 Q124.122 1459.58 124.122 1468.33 Q124.122 1477.06 121.043 1481.67 Q117.987 1486.25 112.177 1486.25 Q106.367 1486.25 103.288 1481.67 Q100.233 1477.06 100.233 1468.33 Q100.233 1459.58 103.288 1455 Q106.367 1450.39 112.177 1450.39 Z" fill="#000000" fill-rule="nonzero" fill-opacity="1" /><path clip-path="url(#clip210)" d="M554.946 1481.64 L571.265 1481.64 L571.265 1485.58 L549.321 1485.58 L549.321 1481.64 Q551.983 1478.89 556.566 1474.26 Q561.173 1469.61 562.353 1468.27 Q564.598 1465.74 565.478 1464.01 Q566.381 1462.25 566.381 1460.56 Q566.381 1457.8 564.436 1456.07 Q562.515 1454.33 559.413 1454.33 Q557.214 1454.33 554.761 1455.09 Q552.33 1455.86 549.552 1457.41 L549.552 1452.69 Q552.376 1451.55 554.83 1450.97 Q557.284 1450.39 559.321 1450.39 Q564.691 1450.39 567.885 1453.08 Q571.08 1455.77 571.08 1460.26 Q571.08 1462.39 570.27 1464.31 Q569.483 1466.2 567.376 1468.8 Q566.798 1469.47 563.696 1472.69 Q560.594 1475.88 554.946 1481.64 Z" fill="#000000" fill-rule="nonzero" fill-opacity="1" /><path clip-path="url(#clip210)" d="M1011.42 1455.09 L999.612 1473.54 L1011.42 1473.54 L1011.42 1455.09 M1010.19 1451.02 L1016.07 1451.02 L1016.07 1473.54 L1021 1473.54 L1021 1477.43 L1016.07 1477.43 L1016.07 1485.58 L1011.42 1485.58 L1011.42 1477.43 L995.816 1477.43 L995.816 1472.92 L1010.19 1451.02 Z" fill="#000000" fill-rule="nonzero" fill-opacity="1" /><path clip-path="url(#clip210)" d="M1456.93 1466.44 Q1453.78 1466.44 1451.93 1468.59 Q1450.1 1470.74 1450.1 1474.49 Q1450.1 1478.22 1451.93 1480.39 Q1453.78 1482.55 1456.93 1482.55 Q1460.08 1482.55 1461.91 1480.39 Q1463.76 1478.22 1463.76 1474.49 Q1463.76 1470.74 1461.91 1468.59 Q1460.08 1466.44 1456.93 1466.44 M1466.21 1451.78 L1466.21 1456.04 Q1464.45 1455.21 1462.65 1454.77 Q1460.86 1454.33 1459.11 1454.33 Q1454.48 1454.33 1452.02 1457.45 Q1449.59 1460.58 1449.24 1466.9 Q1450.61 1464.89 1452.67 1463.82 Q1454.73 1462.73 1457.21 1462.73 Q1462.42 1462.73 1465.42 1465.9 Q1468.46 1469.05 1468.46 1474.49 Q1468.46 1479.82 1465.31 1483.03 Q1462.16 1486.25 1456.93 1486.25 Q1450.93 1486.25 1447.76 1481.67 Q1444.59 1477.06 1444.59 1468.33 Q1444.59 1460.14 1448.48 1455.28 Q1452.37 1450.39 1458.92 1450.39 Q1460.68 1450.39 1462.46 1450.74 Q1464.27 1451.09 1466.21 1451.78 Z" fill="#000000" fill-rule="nonzero" fill-opacity="1" /><path clip-path="url(#clip210)" d="M1904.64 1469.17 Q1901.31 1469.17 1899.39 1470.95 Q1897.49 1472.73 1897.49 1475.86 Q1897.49 1478.98 1899.39 1480.77 Q1901.31 1482.55 1904.64 1482.55 Q1907.97 1482.55 1909.89 1480.77 Q1911.82 1478.96 1911.82 1475.86 Q1911.82 1472.73 1909.89 1470.95 Q1908 1469.17 1904.64 1469.17 M1899.96 1467.18 Q1896.96 1466.44 1895.27 1464.38 Q1893.6 1462.32 1893.6 1459.35 Q1893.6 1455.21 1896.54 1452.8 Q1899.5 1450.39 1904.64 1450.39 Q1909.8 1450.39 1912.74 1452.8 Q1915.68 1455.21 1915.68 1459.35 Q1915.68 1462.32 1913.99 1464.38 Q1912.33 1466.44 1909.34 1467.18 Q1912.72 1467.96 1914.59 1470.26 Q1916.49 1472.55 1916.49 1475.86 Q1916.49 1480.88 1913.41 1483.57 Q1910.36 1486.25 1904.64 1486.25 Q1898.92 1486.25 1895.84 1483.57 Q1892.79 1480.88 1892.79 1475.86 Q1892.79 1472.55 1894.69 1470.26 Q1896.58 1467.96 1899.96 1467.18 M1898.25 1459.79 Q1898.25 1462.48 1899.92 1463.98 Q1901.61 1465.49 1904.64 1465.49 Q1907.65 1465.49 1909.34 1463.98 Q1911.05 1462.48 1911.05 1459.79 Q1911.05 1457.11 1909.34 1455.6 Q1907.65 1454.1 1904.64 1454.1 Q1901.61 1454.1 1899.92 1455.6 Q1898.25 1457.11 1898.25 1459.79 Z" fill="#000000" fill-rule="nonzero" fill-opacity="1" /><path clip-path="url(#clip210)" d="M2327.44 1481.64 L2335.08 1481.64 L2335.08 1455.28 L2326.77 1456.95 L2326.77 1452.69 L2335.04 1451.02 L2339.71 1451.02 L2339.71 1481.64 L2347.35 1481.64 L2347.35 1485.58 L2327.44 1485.58 L2327.44 1481.64 Z" fill="#000000" fill-rule="nonzero" fill-opacity="1" /><path clip-path="url(#clip210)" d="M2366.8 1454.1 Q2363.18 1454.1 2361.36 1457.66 Q2359.55 1461.2 2359.55 1468.33 Q2359.55 1475.44 2361.36 1479.01 Q2363.18 1482.55 2366.8 1482.55 Q2370.43 1482.55 2372.23 1479.01 Q2374.06 1475.44 2374.06 1468.33 Q2374.06 1461.2 2372.23 1457.66 Q2370.43 1454.1 2366.8 1454.1 M2366.8 1450.39 Q2372.61 1450.39 2375.66 1455 Q2378.74 1459.58 2378.74 1468.33 Q2378.74 1477.06 2375.66 1481.67 Q2372.61 1486.25 2366.8 1486.25 Q2360.99 1486.25 2357.91 1481.67 Q2354.85 1477.06 2354.85 1468.33 Q2354.85 1459.58 2357.91 1455 Q2360.99 1450.39 2366.8 1450.39 Z" fill="#000000" fill-rule="nonzero" fill-opacity="1" /><path clip-path="url(#clip210)" d="M1231.53 1522.27 L1231.53 1532.4 L1243.59 1532.4 L1243.59 1536.95 L1231.53 1536.95 L1231.53 1556.3 Q1231.53 1560.66 1232.71 1561.9 Q1233.91 1563.14 1237.58 1563.14 L1243.59 1563.14 L1243.59 1568.04 L1237.58 1568.04 Q1230.8 1568.04 1228.22 1565.53 Q1225.64 1562.98 1225.64 1556.3 L1225.64 1536.95 L1221.34 1536.95 L1221.34 1532.4 L1225.64 1532.4 L1225.64 1522.27 L1231.53 1522.27 Z" fill="#000000" fill-rule="nonzero" fill-opacity="1" /><polyline clip-path="url(#clip210)" style="stroke:#000000; stroke-linecap:round; stroke-linejoin:round; stroke-width:4; stroke-opacity:1; fill:none" points="112.177,1423.18 112.177,47.2441 "/>
<polyline clip-path="url(#clip210)" style="stroke:#000000; stroke-linecap:round; stroke-linejoin:round; stroke-width:4; stroke-opacity:1; fill:none" points="112.177,1134.95 131.075,1134.95 "/>
<polyline clip-path="url(#clip210)" style="stroke:#000000; stroke-linecap:round; stroke-linejoin:round; stroke-width:4; stroke-opacity:1; fill:none" points="112.177,823.343 131.075,823.343 "/>
<polyline clip-path="url(#clip210)" style="stroke:#000000; stroke-linecap:round; stroke-linejoin:round; stroke-width:4; stroke-opacity:1; fill:none" points="112.177,511.735 131.075,511.735 "/>
<polyline clip-path="url(#clip210)" style="stroke:#000000; stroke-linecap:round; stroke-linejoin:round; stroke-width:4; stroke-opacity:1; fill:none" points="112.177,200.126 131.075,200.126 "/>
<path clip-path="url(#clip210)" d="M56.2699 1148.3 L63.9087 1148.3 L63.9087 1121.93 L55.5986 1123.6 L55.5986 1119.34 L63.8624 1117.67 L68.5383 1117.67 L68.5383 1148.3 L76.1772 1148.3 L76.1772 1152.23 L56.2699 1152.23 L56.2699 1148.3 Z" fill="#000000" fill-rule="nonzero" fill-opacity="1" /><path clip-path="url(#clip210)" d="M59.8578 836.688 L76.1772 836.688 L76.1772 840.623 L54.2328 840.623 L54.2328 836.688 Q56.8949 833.933 61.4782 829.304 Q66.0846 824.651 67.2652 823.308 Q69.5105 820.785 70.3902 819.049 Q71.2929 817.29 71.2929 815.6 Q71.2929 812.846 69.3485 811.109 Q67.4272 809.373 64.3254 809.373 Q62.1263 809.373 59.6726 810.137 Q57.2421 810.901 54.4643 812.452 L54.4643 807.73 Q57.2884 806.596 59.7421 806.017 Q62.1958 805.438 64.2328 805.438 Q69.6031 805.438 72.7976 808.123 Q75.992 810.808 75.992 815.299 Q75.992 817.429 75.1818 819.35 Q74.3948 821.248 72.2883 823.841 Q71.7096 824.512 68.6078 827.73 Q65.5059 830.924 59.8578 836.688 Z" fill="#000000" fill-rule="nonzero" fill-opacity="1" /><path clip-path="url(#clip210)" d="M69.0476 510.381 Q72.404 511.098 74.279 513.367 Q76.1772 515.635 76.1772 518.968 Q76.1772 524.084 72.6587 526.885 Q69.1402 529.686 62.6587 529.686 Q60.4828 529.686 58.168 529.246 Q55.8764 528.83 53.4227 527.973 L53.4227 523.459 Q55.3671 524.593 57.6819 525.172 Q59.9967 525.751 62.5198 525.751 Q66.918 525.751 69.2096 524.015 Q71.5244 522.279 71.5244 518.968 Q71.5244 515.913 69.3717 514.2 Q67.242 512.464 63.4226 512.464 L59.3949 512.464 L59.3949 508.621 L63.6078 508.621 Q67.0569 508.621 68.8855 507.256 Q70.7142 505.867 70.7142 503.274 Q70.7142 500.612 68.8161 499.2 Q66.9411 497.765 63.4226 497.765 Q61.5013 497.765 59.3023 498.182 Q57.1032 498.598 54.4643 499.478 L54.4643 495.311 Q57.1264 494.57 59.4412 494.2 Q61.7791 493.83 63.8393 493.83 Q69.1633 493.83 72.2652 496.26 Q75.367 498.668 75.367 502.788 Q75.367 505.658 73.7235 507.649 Q72.08 509.617 69.0476 510.381 Z" fill="#000000" fill-rule="nonzero" fill-opacity="1" /><path clip-path="url(#clip210)" d="M66.5939 186.92 L54.7884 205.369 L66.5939 205.369 L66.5939 186.92 M65.367 182.846 L71.2466 182.846 L71.2466 205.369 L76.1772 205.369 L76.1772 209.258 L71.2466 209.258 L71.2466 217.406 L66.5939 217.406 L66.5939 209.258 L50.9921 209.258 L50.9921 204.744 L65.367 182.846 Z" fill="#000000" fill-rule="nonzero" fill-opacity="1" /><polyline clip-path="url(#clip212)" style="stroke:#009af9; stroke-linecap:round; stroke-linejoin:round; stroke-width:8; stroke-opacity:1; fill:none" points="112.177,1384.24 114.42,1383.61 116.663,1382.98 118.906,1382.34 121.148,1381.69 123.391,1381.04 125.634,1380.38 127.877,1379.71 130.12,1379.04 132.363,1378.36 134.605,1377.68 136.848,1376.98 139.091,1376.28 141.334,1375.58 143.577,1374.86 145.819,1374.14 148.062,1373.41 150.305,1372.68 152.548,1371.93 154.791,1371.18 157.034,1370.42 159.276,1369.66 161.519,1368.89 163.762,1368.1 166.005,1367.31 168.248,1366.52 170.491,1365.71 172.733,1364.9 174.976,1364.08 177.219,1363.25 179.462,1362.41 181.705,1361.56 183.947,1360.71 186.19,1359.84 188.433,1358.97 190.676,1358.09 192.919,1357.2 195.162,1356.3 197.404,1355.39 199.647,1354.48 201.89,1353.55 204.133,1352.61 206.376,1351.67 208.619,1350.71 210.861,1349.75 213.104,1348.78 215.347,1347.79 217.59,1346.8 219.833,1345.8 222.075,1344.78 224.318,1343.76 226.561,1342.72 228.804,1341.68 231.047,1340.62 233.29,1339.56 235.532,1338.48 237.775,1337.39 240.018,1336.3 242.261,1335.19 244.504,1334.07 246.746,1332.93 248.989,1331.79 251.232,1330.64 253.475,1329.47 255.718,1328.29 257.961,1327.1 260.203,1325.9 262.446,1324.69 264.689,1323.46 266.932,1322.22 269.175,1320.97 271.418,1319.71 273.66,1318.43 275.903,1317.14 278.146,1315.84 280.389,1314.53 282.632,1313.2 284.874,1311.86 287.117,1310.5 289.36,1309.13 291.603,1307.75 293.846,1306.35 296.089,1304.94 298.331,1303.52 300.574,1302.08 302.817,1300.63 305.06,1299.16 307.303,1297.67 309.545,1296.18 311.788,1294.66 314.031,1293.14 316.274,1291.59 318.517,1290.03 320.76,1288.46 323.002,1286.87 325.245,1285.26 327.488,1283.64 329.731,1282 331.974,1280.34 334.217,1278.67 336.459,1276.98 338.702,1275.28 340.945,1273.55 343.188,1271.81 345.431,1270.06 347.673,1268.28 349.916,1266.49 352.159,1264.67 354.402,1262.84 356.645,1261 358.888,1259.13 361.13,1257.24 363.373,1255.34 365.616,1253.42 367.859,1251.47 370.102,1249.51 372.344,1247.53 374.587,1245.52 376.83,1243.5 379.073,1241.46 381.316,1239.4 383.559,1237.31 385.801,1235.21 388.044,1233.08 390.287,1230.93 392.53,1228.76 394.773,1226.57 397.016,1224.36 399.258,1222.12 401.501,1219.87 403.744,1217.59 405.987,1215.28 408.23,1212.96 410.472,1210.61 412.715,1208.23 414.958,1205.83 417.201,1203.41 419.444,1200.97 421.687,1198.5 423.929,1196 426.172,1193.48 428.415,1190.93 430.658,1188.36 432.901,1185.76 435.143,1183.14 437.386,1180.49 439.629,1177.81 441.872,1175.11 444.115,1172.38 446.358,1169.62 448.6,1166.84 450.843,1164.02 453.086,1161.18 455.329,1158.31 457.572,1155.41 459.815,1152.48 462.057,1149.52 464.3,1146.53 466.543,1143.51 468.786,1140.46 471.029,1137.38 473.271,1134.27 475.514,1131.13 477.757,1127.96 480,1124.75 482.243,1121.52 484.486,1118.25 486.728,1114.94 488.971,1111.61 491.214,1108.24 493.457,1104.83 495.7,1101.4 497.942,1097.92 500.185,1094.42 502.428,1090.87 504.671,1087.29 506.914,1083.68 509.157,1080.03 511.399,1076.34 513.642,1072.62 515.885,1068.86 518.128,1065.06 520.371,1061.22 522.614,1057.34 524.856,1053.43 527.099,1049.47 529.342,1045.48 531.585,1041.44 533.828,1037.37 536.07,1033.25 538.313,1029.09 540.556,1024.89 542.799,1020.65 545.042,1016.36 547.285,1012.04 549.527,1007.66 551.77,1003.25 554.013,998.79 556.256,994.285 558.499,1218.15 560.741,1215.85 562.984,1213.53 565.227,1211.19 567.47,1208.82 569.713,1206.43 571.956,1204.01 574.198,1201.57 576.441,1199.11 578.684,1196.62 580.927,1194.1 583.17,1191.56 585.413,1189 587.655,1186.4 589.898,1183.79 592.141,1181.14 594.384,1178.47 596.627,1175.78 598.869,1173.05 601.112,1170.3 603.355,1167.52 605.598,1164.72 607.841,1161.88 610.084,1159.02 612.326,1156.12 614.569,1153.2 616.812,1150.25 619.055,1147.27 621.298,1144.26 623.54,1141.22 625.783,1138.15 628.026,1135.04 630.269,1131.91 632.512,1128.74 634.755,1125.55 636.997,1122.32 639.24,1119.06 641.483,1115.76 643.726,1112.43 645.969,1109.07 648.212,1105.68 650.454,1102.25 652.697,1098.78 654.94,1095.28 657.183,1091.75 659.426,1088.18 661.668,1084.58 663.911,1080.93 666.154,1077.26 668.397,1073.54 670.64,1069.79 672.883,1066 675.125,1062.17 677.368,1058.3 679.611,1054.39 681.854,1050.45 684.097,1046.46 686.339,1042.44 688.582,1038.37 690.825,1034.27 693.068,1030.12 695.311,1025.93 697.554,1021.7 699.796,1017.42 702.039,1013.11 704.282,1008.75 706.525,1004.34 708.768,999.892 711.011,995.398 713.253,990.859 715.496,986.275 717.739,981.644 719.982,976.967 722.225,972.243 724.467,967.471 726.71,962.651 728.953,957.783 731.196,952.866 733.439,947.899 735.682,942.883 737.924,1192.19 740.167,1189.63 742.41,1187.04 744.653,1184.43 746.896,1181.8 749.138,1179.13 751.381,1176.44 753.624,1173.73 755.867,1170.98 758.11,1168.21 760.353,1165.41 762.595,1162.58 764.838,1159.72 767.081,1156.84 769.324,1153.92 771.567,1298.77 773.81,1297.28 776.052,1371.17 778.295,1370.41 780.538,1369.65 782.781,1368.87 785.024,1368.09 787.266,1367.3 789.509,1366.5 791.752,1365.7 793.995,1364.88 796.238,1364.06 798.481,1363.23 800.723,1362.39 802.966,1361.55 805.209,1360.69 807.452,1359.83 809.695,1358.96 811.938,1358.07 814.18,1357.18 816.423,1356.29 818.666,1355.38 820.909,1354.46 823.152,1353.53 825.394,1352.6 827.637,1351.65 829.88,1350.7 832.123,1349.73 834.366,1348.76 836.609,1347.78 838.851,1346.78 841.094,1345.78 843.337,1344.76 845.58,1343.74 847.823,1342.71 850.065,1341.66 852.308,1340.61 854.551,1339.54 856.794,1338.46 859.037,1337.38 861.28,1336.28 863.522,1335.17 865.765,1334.05 868.008,1332.92 870.251,1331.77 872.494,1330.62 874.737,1329.45 876.979,1328.28 879.222,1327.09 881.465,1325.88 883.708,1324.67 885.951,1323.44 888.193,1322.2 890.436,1320.95 892.679,1319.69 894.922,1318.41 897.165,1317.12 899.408,1315.82 901.65,1314.51 903.893,1313.18 906.136,1311.83 908.379,1310.48 910.622,1309.11 912.864,1307.73 915.107,1306.33 917.35,1304.92 919.593,1303.49 921.836,1302.05 924.079,1300.6 926.321,1299.13 928.564,1297.65 930.807,1296.15 933.05,1294.64 935.293,1293.11 937.536,1291.57 939.778,1290.01 942.021,1288.43 944.264,1286.84 946.507,1285.23 948.75,1283.61 950.992,1281.97 953.235,1280.31 955.478,1278.64 957.721,1276.95 959.964,1275.25 962.207,1273.52 964.449,1271.78 966.692,1270.02 968.935,1268.25 971.178,1266.45 973.421,1264.64 975.663,1262.81 977.906,1260.96 980.149,1259.1 982.392,1257.21 984.635,1255.31 986.878,1253.38 989.12,1251.44 991.363,1249.48 993.606,1247.5 995.849,1245.49 998.092,1243.47 1000.33,1241.43 1002.58,1239.37 1004.82,1237.28 1007.06,1235.18 1009.31,1233.05 1011.55,1230.91 1013.79,1228.74 1016.03,1226.55 1018.28,1224.33 1020.52,1222.1 1022.76,1219.84 1025.01,1217.56 1027.25,1215.26 1029.49,1212.93 1031.73,1210.58 1033.98,1208.21 1036.22,1205.81 1038.46,1203.39 1040.71,1200.94 1042.95,1198.47 1045.19,1195.98 1047.43,1193.46 1049.68,1190.91 1051.92,1188.34 1054.16,1185.74 1056.41,1183.12 1058.65,1180.47 1060.89,1177.79 1063.13,1175.09 1065.38,1172.36 1067.62,1169.6 1069.86,1166.81 1072.1,1163.99 1074.35,1161.15 1076.59,1158.28 1078.83,1155.38 1081.08,1152.45 1083.32,1149.49 1085.56,1146.5 1087.8,1143.48 1090.05,1140.43 1092.29,1137.35 1094.53,1134.24 1096.78,1131.1 1099.02,1127.92 1101.26,1124.71 1103.5,1121.48 1105.75,1118.2 1107.99,1114.9 1110.23,1111.56 1112.48,1108.19 1114.72,1104.79 1116.96,1101.35 1119.2,1097.87 1121.45,1094.37 1123.69,1090.82 1125.93,1087.24 1128.18,1083.63 1130.42,1079.98 1132.66,1076.29 1134.9,1072.56 1137.15,1068.8 1139.39,1065 1141.63,1061.16 1143.88,1057.28 1146.12,1053.37 1148.36,1049.41 1150.6,1045.42 1152.85,1041.38 1155.09,1037.3 1157.33,1033.19 1159.57,1029.03 1161.82,1024.83 1164.06,1020.58 1166.3,1016.3 1168.55,1011.97 1170.79,1007.6 1173.03,1003.19 1175.27,998.725 1177.52,994.221 1179.76,989.672 1182,985.076 1184.25,980.435 1186.49,975.747 1188.73,971.012 1190.97,966.23 1193.22,961.399 1195.46,956.52 1197.7,951.592 1199.95,946.614 1202.19,941.586 1204.43,936.508 1206.67,931.379 1208.92,926.198 1211.16,920.965 1213.4,915.679 1215.65,910.34 1217.89,904.947 1220.13,899.5 1222.37,893.998 1224.62,888.441 1226.86,882.828 1229.1,877.158 1231.35,871.431 1233.59,865.646 1235.83,859.803 1238.07,853.901 1240.32,847.94 1242.56,841.918 1244.8,835.836 1247.04,829.692 1249.29,823.487 1251.53,817.219 1253.77,810.887 1256.02,804.492 1258.26,798.032 1260.5,791.507 1262.74,784.916 1264.99,778.259 1267.23,771.535 1269.47,764.742 1271.72,757.882 1273.96,750.952 1276.2,743.952 1278.44,736.882 1280.69,729.74 1282.93,722.527 1285.17,715.241 1287.42,707.881 1289.66,700.447 1291.9,692.939 1294.14,685.355 1296.39,677.694 1298.63,669.957 1300.87,662.142 1303.12,654.248 1305.36,646.275 1307.6,638.222 1309.84,630.088 1312.09,621.873 1314.33,613.575 1316.57,605.194 1318.82,596.729 1321.06,588.179 1323.3,579.543 1325.54,570.821 1327.79,562.011 1330.03,553.112 1332.27,544.124 1334.51,535.045 1336.76,525.875 1339,516.612 1341.24,507.257 1343.49,497.807 1345.73,488.263 1347.97,478.622 1350.21,468.884 1352.46,459.048 1354.7,449.114 1356.94,439.079 1359.19,937.748 1361.43,932.629 1363.67,1187.01 1365.91,1184.4 1368.16,1181.76 1370.4,1179.1 1372.64,1176.41 1374.89,1173.69 1377.13,1170.94 1379.37,1168.17 1381.61,1165.37 1383.86,1162.54 1386.1,1159.68 1388.34,1156.8 1390.59,1153.88 1392.83,1298.75 1395.07,1297.26 1397.31,1295.76 1399.56,1294.24 1401.8,1292.71 1404.04,1291.16 1406.29,1289.6 1408.53,1288.02 1410.77,1286.42 1413.01,1284.81 1415.26,1283.18 1417.5,1281.54 1419.74,1279.88 1421.98,1278.2 1424.23,1276.51 1426.47,1274.8 1428.71,1273.07 1430.96,1271.33 1433.2,1269.56 1435.44,1267.78 1437.68,1265.99 1439.93,1264.17 1442.17,1262.33 1444.41,1260.48 1446.66,1258.61 1448.9,1256.72 1451.14,1254.81 1453.38,1252.88 1455.63,1250.93 1457.87,1248.97 1460.11,1246.98 1462.36,1244.97 1464.6,1242.95 1466.84,1240.9 1469.08,1238.83 1471.33,1236.74 1473.57,1234.63 1475.81,1232.5 1478.06,1230.35 1480.3,1228.17 1482.54,1225.98 1484.78,1223.76 1487.03,1221.52 1489.27,1219.25 1491.51,1216.97 1493.76,1214.66 1496,1212.33 1498.24,1209.97 1500.48,1207.59 1502.73,1205.19 1504.97,1202.76 1507.21,1200.31 1509.46,1197.83 1511.7,1195.33 1513.94,1192.8 1516.18,1190.25 1518.43,1187.67 1520.67,1185.06 1522.91,1182.43 1525.15,1179.78 1527.4,1177.09 1529.64,1174.38 1531.88,1171.64 1534.13,1168.88 1536.37,1166.08 1538.61,1163.26 1540.85,1160.41 1543.1,1157.53 1545.34,1154.62 1547.58,1151.68 1549.83,1148.72 1552.07,1145.72 1554.31,1142.69 1556.55,1139.63 1558.8,1136.54 1561.04,1133.42 1563.28,1130.27 1565.53,1127.09 1567.77,1123.87 1570.01,1120.63 1572.25,1117.35 1574.5,1114.03 1576.74,1110.69 1578.98,1107.31 1581.23,1103.9 1583.47,1100.45 1585.71,1096.97 1587.95,1093.45 1590.2,1089.9 1592.44,1086.31 1594.68,1082.68 1596.93,1079.02 1599.17,1075.32 1601.41,1071.59 1603.65,1067.82 1605.9,1064.01 1608.14,1060.16 1610.38,1056.27 1612.62,1052.35 1614.87,1048.38 1617.11,1044.37 1619.35,1040.33 1621.6,1036.24 1623.84,1032.11 1626.08,1027.94 1628.32,1023.73 1630.57,1019.48 1632.81,1015.18 1635.05,1010.84 1637.3,1006.46 1639.54,1002.03 1641.78,997.56 1644.02,993.043 1646.27,988.48 1648.51,983.872 1650.75,979.217 1653,974.515 1655.24,969.766 1657.48,964.97 1659.72,960.125 1661.97,955.231 1664.21,950.288 1666.45,945.295 1668.7,940.252 1670.94,935.159 1673.18,930.014 1675.42,924.817 1677.67,919.568 1679.91,914.267 1682.15,908.911 1684.4,1175.06 1686.64,1172.33 1688.88,1169.57 1691.12,1166.78 1693.37,1163.97 1695.61,1161.12 1697.85,1158.25 1700.09,1155.35 1702.34,1152.42 1704.58,1149.46 1706.82,1146.47 1709.07,1143.45 1711.31,1140.4 1713.55,1137.32 1715.79,1134.21 1718.04,1131.07 1720.28,1127.9 1722.52,1124.69 1724.77,1121.45 1727.01,1118.18 1729.25,1114.88 1731.49,1111.54 1733.74,1108.18 1735.98,1104.77 1738.22,1101.33 1740.47,1097.86 1742.71,1094.36 1744.95,1090.81 1747.19,1087.24 1749.44,1083.62 1751.68,1079.98 1753.92,1076.29 1756.17,1072.57 1758.41,1068.81 1760.65,1065.01 1762.89,1061.17 1765.14,1057.3 1767.38,1053.38 1769.62,1049.43 1771.87,1045.44 1774.11,1041.4 1776.35,1037.33 1778.59,1033.22 1780.84,1029.06 1783.08,1024.86 1785.32,1020.62 1787.56,1016.34 1789.81,1012.01 1792.05,1007.64 1794.29,1003.23 1796.54,998.771 1798.78,994.268 1801.02,989.72 1803.26,985.125 1805.51,980.484 1807.75,975.797 1809.99,971.062 1812.24,966.279 1814.48,961.448 1816.72,956.569 1818.96,951.64 1821.21,946.661 1823.45,941.632 1825.69,936.552 1827.94,931.421 1830.18,926.238 1832.42,921.003 1834.66,915.715 1836.91,910.373 1839.15,904.978 1841.39,899.528 1843.64,894.023 1845.88,888.462 1848.12,882.846 1850.36,877.172 1852.61,871.442 1854.85,865.653 1857.09,859.807 1859.34,853.901 1861.58,847.936 1863.82,841.911 1866.06,835.825 1868.31,829.678 1870.55,823.469 1872.79,817.197 1875.03,810.863 1877.28,804.464 1879.52,798.002 1881.76,791.474 1884.01,784.881 1886.25,778.222 1888.49,771.496 1890.73,764.703 1892.98,757.841 1895.22,750.911 1897.46,743.911 1899.71,736.842 1901.95,729.702 1904.19,722.49 1906.43,715.205 1908.68,707.848 1910.92,700.416 1913.16,692.909 1915.41,685.327 1917.65,677.668 1919.89,669.933 1922.13,662.119 1924.38,654.228 1926.62,646.256 1928.86,638.205 1931.11,630.073 1933.35,621.859 1935.59,613.562 1937.83,605.183 1940.08,596.719 1942.32,588.169 1944.56,579.534 1946.81,570.812 1949.05,562.003 1951.29,553.105 1953.53,544.117 1955.78,535.039 1958.02,525.87 1960.26,516.609 1962.5,507.254 1964.75,497.805 1966.99,488.262 1969.23,478.622 1971.48,468.885 1973.72,459.05 1975.96,449.116 1978.2,439.083 1980.45,428.948 1982.69,418.711 1984.93,408.371 1987.18,397.927 1989.42,387.378 1991.66,376.723 1993.9,365.96 1996.15,355.089 1998.39,344.108 2000.63,333.017 2002.88,321.815 2005.12,310.499 2007.36,299.069 2009.6,287.525 2011.85,275.864 2014.09,264.085 2016.33,252.188 2018.58,240.172 2020.82,228.034 2023.06,215.774 2025.3,203.391 2027.55,190.883 2029.79,178.249 2032.03,165.489 2034.28,152.6 2036.52,139.581 2038.76,126.432 2041,113.15 2043.25,99.7353 2045.49,86.1857 2047.73,759.73 2049.97,752.82 2052.22,745.841 2054.46,738.791 2056.7,731.671 2058.95,724.479 2061.19,717.214 2063.43,709.877 2065.67,702.466 2067.92,694.98 2070.16,687.419 2072.4,679.782 2074.65,672.068 2076.89,664.276 2079.13,656.406 2081.37,648.457 2083.62,640.428 2085.86,632.318 2088.1,624.127 2090.35,615.853 2092.59,607.496 2094.83,599.055 2097.07,590.529 2099.32,581.917 2101.56,573.218 2103.8,564.432 2106.05,555.558 2108.29,546.594 2110.53,537.54 2112.77,528.395 2115.02,519.158 2117.26,509.828 2119.5,500.404 2121.75,490.885 2123.99,481.271 2126.23,471.56 2128.47,954.199 2130.72,949.245 2132.96,944.242 2135.2,939.189 2137.45,934.084 2139.69,928.929 2141.93,923.721 2144.17,918.461 2146.42,913.148 2148.66,907.782 2150.9,902.362 2153.14,896.887 2155.39,891.357 2157.63,885.772 2159.87,880.13 2162.12,874.432 2164.36,868.676 2166.6,862.863 2168.84,856.991 2171.09,851.06 2173.33,845.069 2175.57,839.018 2177.82,832.906 2180.06,826.732 2182.3,820.497 2184.54,814.198 2186.79,807.837 2189.03,801.411 2191.27,794.92 2193.52,788.365 2195.76,781.743 2198,775.055 2200.24,768.299 2202.49,761.476 2204.73,754.583 2206.97,747.622 2209.22,740.59 2211.46,733.488 2213.7,726.314 2215.94,719.068 2218.19,711.749 2220.43,1075.5 2222.67,1071.77 2224.92,1068 2227.16,1064.19 2229.4,1060.34 2231.64,1056.45 2233.89,1052.53 2236.13,1048.57 2238.37,1044.56 2240.61,1040.52 2242.86,1036.43 2245.1,1032.31 2247.34,1028.14 2249.59,1023.93 2251.83,1019.68 2254.07,1015.38 2256.31,1011.05 2258.56,1006.66 2260.8,1002.24 2263.04,997.77 2265.29,993.255 2267.53,988.695 2269.77,984.089 2272.01,979.437 2274.26,974.738 2276.5,969.991 2278.74,965.197 2280.99,960.355 2283.23,955.464 2285.47,950.524 2287.71,945.534 2289.96,940.494 2292.2,935.403 2294.44,930.261 2296.69,925.067 2298.93,919.821 2301.17,914.522 2303.41,909.169 2305.66,903.763 2307.9,898.302 2310.14,892.787 2312.39,887.215 2314.63,881.588 2316.87,875.904 2319.11,870.163 2321.36,864.364 2323.6,858.507 2325.84,852.59 2328.08,846.614 2330.33,840.578 2332.57,834.482 2334.81,828.324 2337.06,822.104 2339.3,815.821 2341.54,809.475 2343.78,803.065 2346.03,796.591 2348.27,790.052 2350.51,783.448 2352.76,776.776 "/>
<path clip-path="url(#clip210)" d="M186.863 196.789 L500.018 196.789 L500.018 93.1086 L186.863 93.1086  Z" fill="#ffffff" fill-rule="evenodd" fill-opacity="1"/>
<polyline clip-path="url(#clip210)" style="stroke:#000000; stroke-linecap:round; stroke-linejoin:round; stroke-width:4; stroke-opacity:1; fill:none" points="186.863,196.789 500.018,196.789 500.018,93.1086 186.863,93.1086 186.863,196.789 "/>
<polyline clip-path="url(#clip210)" style="stroke:#009af9; stroke-linecap:round; stroke-linejoin:round; stroke-width:8; stroke-opacity:1; fill:none" points="211.758,144.949 361.13,144.949 "/>
<path clip-path="url(#clip210)" d="M386.026 151.997 L386.026 136.303 L390.285 136.303 L390.285 151.835 Q390.285 155.516 391.72 157.368 Q393.155 159.196 396.026 159.196 Q399.475 159.196 401.465 156.997 Q403.479 154.798 403.479 151.002 L403.479 136.303 L407.739 136.303 L407.739 162.229 L403.479 162.229 L403.479 158.247 Q401.928 160.608 399.868 161.766 Q397.831 162.9 395.123 162.9 Q390.655 162.9 388.34 160.122 Q386.026 157.344 386.026 151.997 M396.743 135.678 L396.743 135.678 Z" fill="#000000" fill-rule="nonzero" fill-opacity="1" /><path clip-path="url(#clip210)" d="M416.118 126.21 L425.933 126.21 L425.933 129.52 L420.377 129.52 L420.377 165.168 L425.933 165.168 L425.933 168.479 L416.118 168.479 L416.118 126.21 Z" fill="#000000" fill-rule="nonzero" fill-opacity="1" /><path clip-path="url(#clip210)" d="M436.419 158.293 L444.058 158.293 L444.058 131.928 L435.748 133.595 L435.748 129.335 L444.011 127.669 L448.687 127.669 L448.687 158.293 L456.326 158.293 L456.326 162.229 L436.419 162.229 L436.419 158.293 Z" fill="#000000" fill-rule="nonzero" fill-opacity="1" /><path clip-path="url(#clip210)" d="M475.122 126.21 L475.122 168.479 L465.308 168.479 L465.308 165.168 L470.84 165.168 L470.84 129.52 L465.308 129.52 L465.308 126.21 L475.122 126.21 Z" fill="#000000" fill-rule="nonzero" fill-opacity="1" /></svg>
