<?xml version="1.0" encoding="utf-8"?>
<svg xmlns="http://www.w3.org/2000/svg" xmlns:xlink="http://www.w3.org/1999/xlink" width="600" height="400" viewBox="0 0 2400 1600">
<defs>
  <clipPath id="clip120">
    <rect x="0" y="0" width="2400" height="1600"/>
  </clipPath>
</defs>
<path clip-path="url(#clip120)" d="M0 1600 L2400 1600 L2400 0 L0 0  Z" fill="#ffffff" fill-rule="evenodd" fill-opacity="1"/>
<defs>
  <clipPath id="clip121">
    <rect x="480" y="0" width="1681" height="1600"/>
  </clipPath>
</defs>
<path clip-path="url(#clip120)" d="M112.177 1423.18 L2352.76 1423.18 L2352.76 47.2441 L112.177 47.2441  Z" fill="#ffffff" fill-rule="evenodd" fill-opacity="1"/>
<defs>
  <clipPath id="clip122">
    <rect x="112" y="47" width="2242" height="1377"/>
  </clipPath>
</defs>
<polyline clip-path="url(#clip122)" style="stroke:#000000; stroke-linecap:round; stroke-linejoin:round; stroke-width:2; stroke-opacity:0.1; fill:none" points="112.177,1423.18 112.177,47.2441 "/>
<polyline clip-path="url(#clip122)" style="stroke:#000000; stroke-linecap:round; stroke-linejoin:round; stroke-width:2; stroke-opacity:0.1; fill:none" points="560.293,1423.18 560.293,47.2441 "/>
<polyline clip-path="url(#clip122)" style="stroke:#000000; stroke-linecap:round; stroke-linejoin:round; stroke-width:2; stroke-opacity:0.1; fill:none" points="1008.41,1423.18 1008.41,47.2441 "/>
<polyline clip-path="url(#clip122)" style="stroke:#000000; stroke-linecap:round; stroke-linejoin:round; stroke-width:2; stroke-opacity:0.1; fill:none" points="1456.52,1423.18 1456.52,47.2441 "/>
<polyline clip-path="url(#clip122)" style="stroke:#000000; stroke-linecap:round; stroke-linejoin:round; stroke-width:2; stroke-opacity:0.1; fill:none" points="1904.64,1423.18 1904.64,47.2441 "/>
<polyline clip-path="url(#clip122)" style="stroke:#000000; stroke-linecap:round; stroke-linejoin:round; stroke-width:2; stroke-opacity:0.1; fill:none" points="2352.76,1423.18 2352.76,47.2441 "/>
<polyline clip-path="url(#clip122)" style="stroke:#000000; stroke-linecap:round; stroke-linejoin:round; stroke-width:2; stroke-opacity:0.1; fill:none" points="112.177,1140.1 2352.76,1140.1 "/>
<polyline clip-path="url(#clip122)" style="stroke:#000000; stroke-linecap:round; stroke-linejoin:round; stroke-width:2; stroke-opacity:0.1; fill:none" points="112.177,834.934 2352.76,834.934 "/>
<polyline clip-path="url(#clip122)" style="stroke:#000000; stroke-linecap:round; stroke-linejoin:round; stroke-width:2; stroke-opacity:0.1; fill:none" points="112.177,529.765 2352.76,529.765 "/>
<polyline clip-path="url(#clip122)" style="stroke:#000000; stroke-linecap:round; stroke-linejoin:round; stroke-width:2; stroke-opacity:0.1; fill:none" points="112.177,224.597 2352.76,224.597 "/>
<polyline clip-path="url(#clip120)" style="stroke:#000000; stroke-linecap:round; stroke-linejoin:round; stroke-width:4; stroke-opacity:1; fill:none" points="112.177,1423.18 2352.76,1423.18 "/>
<polyline clip-path="url(#clip120)" style="stroke:#000000; stroke-linecap:round; stroke-linejoin:round; stroke-width:4; stroke-opacity:1; fill:none" points="112.177,1423.18 112.177,1404.28 "/>
<polyline clip-path="url(#clip120)" style="stroke:#000000; stroke-linecap:round; stroke-linejoin:round; stroke-width:4; stroke-opacity:1; fill:none" points="560.293,1423.18 560.293,1404.28 "/>
<polyline clip-path="url(#clip120)" style="stroke:#000000; stroke-linecap:round; stroke-linejoin:round; stroke-width:4; stroke-opacity:1; fill:none" points="1008.41,1423.18 1008.41,1404.28 "/>
<polyline clip-path="url(#clip120)" style="stroke:#000000; stroke-linecap:round; stroke-linejoin:round; stroke-width:4; stroke-opacity:1; fill:none" points="1456.52,1423.18 1456.52,1404.28 "/>
<polyline clip-path="url(#clip120)" style="stroke:#000000; stroke-linecap:round; stroke-linejoin:round; stroke-width:4; stroke-opacity:1; fill:none" points="1904.64,1423.18 1904.64,1404.28 "/>
<polyline clip-path="url(#clip120)" style="stroke:#000000; stroke-linecap:round; stroke-linejoin:round; stroke-width:4; stroke-opacity:1; fill:none" points="2352.76,1423.18 2352.76,1404.28 "/>
<path clip-path="url(#clip120)" d="M112.177 1454.1 Q108.566 1454.1 106.737 1457.66 Q104.932 1461.2 104.932 1468.33 Q104.932 1475.44 106.737 1479.01 Q108.566 1482.55 112.177 1482.55 Q115.811 1482.55 117.617 1479.01 Q119.446 1475.44 119.446 1468.33 Q119.446 1461.2 117.617 1457.66 Q115.811 1454.1 112.177 1454.1 M112.177 1450.39 Q117.987 1450.39 121.043 1455 Q124.122 1459.58 124.122 1468.33 Q124.122 1477.06 121.043 1481.67 Q117.987 1486.25 112.177 1486.25 Q106.367 1486.25 103.288 1481.67 Q100.233 1477.06 100.233 1468.33 Q100.233 1459.58 103.288 1455 Q106.367 1450.39 112.177 1450.39 Z" fill="#000000" fill-rule="nonzero" fill-opacity="1" /><path clip-path="url(#clip120)" d="M554.946 1481.64 L571.265 1481.64 L571.265 1485.58 L549.321 1485.58 L549.321 1481.64 Q551.983 1478.89 556.566 1474.26 Q561.173 1469.61 562.353 1468.27 Q564.598 1465.74 565.478 1464.01 Q566.381 1462.25 566.381 1460.56 Q566.381 1457.8 564.436 1456.07 Q562.515 1454.33 559.413 1454.33 Q557.214 1454.33 554.761 1455.09 Q552.33 1455.86 549.552 1457.41 L549.552 1452.69 Q552.376 1451.55 554.83 1450.97 Q557.284 1450.39 559.321 1450.39 Q564.691 1450.39 567.885 1453.08 Q571.08 1455.77 571.08 1460.26 Q571.08 1462.39 570.27 1464.31 Q569.483 1466.2 567.376 1468.8 Q566.798 1469.47 563.696 1472.69 Q560.594 1475.88 554.946 1481.64 Z" fill="#000000" fill-rule="nonzero" fill-opacity="1" /><path clip-path="url(#clip120)" d="M1011.42 1455.09 L999.612 1473.54 L1011.42 1473.54 L1011.42 1455.09 M1010.19 1451.02 L1016.07 1451.02 L1016.07 1473.54 L1021 1473.54 L1021 1477.43 L1016.07 1477.43 L1016.07 1485.58 L1011.42 1485.58 L1011.42 1477.43 L995.816 1477.43 L995.816 1472.92 L1010.19 1451.02 Z" fill="#000000" fill-rule="nonzero" fill-opacity="1" /><path clip-path="url(#clip120)" d="M1456.93 1466.44 Q1453.78 1466.44 1451.93 1468.59 Q1450.1 1470.74 1450.1 1474.49 Q1450.1 1478.22 1451.93 1480.39 Q1453.78 1482.55 1456.93 1482.55 Q1460.08 1482.55 1461.91 1480.39 Q1463.76 1478.22 1463.76 1474.49 Q1463.76 1470.74 1461.91 1468.59 Q1460.08 1466.44 1456.93 1466.44 M1466.21 1451.78 L1466.21 1456.04 Q1464.45 1455.21 1462.65 1454.77 Q1460.86 1454.33 1459.11 1454.33 Q1454.48 1454.33 1452.02 1457.45 Q1449.59 1460.58 1449.24 1466.9 Q1450.61 1464.89 1452.67 1463.82 Q1454.73 1462.73 1457.21 1462.73 Q1462.42 1462.73 1465.42 1465.9 Q1468.46 1469.05 1468.46 1474.49 Q1468.46 1479.82 1465.31 1483.03 Q1462.16 1486.25 1456.93 1486.25 Q1450.93 1486.25 1447.76 1481.67 Q1444.59 1477.06 1444.59 1468.33 Q1444.59 1460.14 1448.48 1455.28 Q1452.37 1450.39 1458.92 1450.39 Q1460.68 1450.39 1462.46 1450.74 Q1464.27 1451.09 1466.21 1451.78 Z" fill="#000000" fill-rule="nonzero" fill-opacity="1" /><path clip-path="url(#clip120)" d="M1904.64 1469.17 Q1901.31 1469.17 1899.39 1470.95 Q1897.49 1472.73 1897.49 1475.86 Q1897.49 1478.98 1899.39 1480.77 Q1901.31 1482.55 1904.64 1482.55 Q1907.97 1482.55 1909.89 1480.77 Q1911.82 1478.96 1911.82 1475.86 Q1911.82 1472.73 1909.89 1470.95 Q1908 1469.17 1904.64 1469.17 M1899.96 1467.18 Q1896.96 1466.44 1895.27 1464.38 Q1893.6 1462.32 1893.6 1459.35 Q1893.6 1455.21 1896.54 1452.8 Q1899.5 1450.39 1904.64 1450.39 Q1909.8 1450.39 1912.74 1452.8 Q1915.68 1455.21 1915.68 1459.35 Q1915.68 1462.32 1913.99 1464.38 Q1912.33 1466.44 1909.34 1467.18 Q1912.72 1467.96 1914.59 1470.26 Q1916.49 1472.55 1916.49 1475.86 Q1916.49 1480.88 1913.41 1483.57 Q1910.36 1486.25 1904.64 1486.25 Q1898.92 1486.25 1895.84 1483.57 Q1892.79 1480.88 1892.79 1475.86 Q1892.79 1472.55 1894.69 1470.26 Q1896.58 1467.96 1899.96 1467.18 M1898.25 1459.79 Q1898.25 1462.48 1899.92 1463.98 Q1901.61 1465.49 1904.64 1465.49 Q1907.65 1465.49 1909.34 1463.98 Q1911.05 1462.48 1911.05 1459.79 Q1911.05 1457.11 1909.34 1455.6 Q1907.65 1454.1 1904.64 1454.1 Q1901.61 1454.1 1899.92 1455.6 Q1898.25 1457.11 1898.25 1459.79 Z" fill="#000000" fill-rule="nonzero" fill-opacity="1" /><path clip-path="url(#clip120)" d="M2327.44 1481.64 L2335.08 1481.64 L2335.08 1455.28 L2326.77 1456.95 L2326.77 1452.69 L2335.04 1451.02 L2339.71 1451.02 L2339.71 1481.64 L2347.35 1481.64 L2347.35 1485.58 L2327.44 1485.58 L2327.44 1481.64 Z" fill="#000000" fill-rule="nonzero" fill-opacity="1" /><path clip-path="url(#clip120)" d="M2366.8 1454.1 Q2363.18 1454.1 2361.36 1457.66 Q2359.55 1461.2 2359.55 1468.33 Q2359.55 1475.44 2361.36 1479.01 Q2363.18 1482.55 2366.8 1482.55 Q2370.43 1482.55 2372.23 1479.01 Q2374.06 1475.44 2374.06 1468.33 Q2374.06 1461.2 2372.23 1457.66 Q2370.43 1454.1 2366.8 1454.1 M2366.8 1450.39 Q2372.61 1450.39 2375.66 1455 Q2378.74 1459.58 2378.74 1468.33 Q2378.74 1477.06 2375.66 1481.67 Q2372.61 1486.25 2366.8 1486.25 Q2360.99 1486.25 2357.91 1481.67 Q2354.85 1477.06 2354.85 1468.33 Q2354.85 1459.58 2357.91 1455 Q2360.99 1450.39 2366.8 1450.39 Z" fill="#000000" fill-rule="nonzero" fill-opacity="1" /><path clip-path="url(#clip120)" d="M1231.53 1522.27 L1231.53 1532.4 L1243.59 1532.4 L1243.59 1536.95 L1231.53 1536.95 L1231.53 1556.3 Q1231.53 1560.66 1232.71 1561.9 Q1233.91 1563.14 1237.58 1563.14 L1243.59 1563.14 L1243.59 1568.04 L1237.58 1568.04 Q1230.8 1568.04 1228.22 1565.53 Q1225.64 1562.98 1225.64 1556.3 L1225.64 1536.95 L1221.34 1536.95 L1221.34 1532.4 L1225.64 1532.4 L1225.64 1522.27 L1231.53 1522.27 Z" fill="#000000" fill-rule="nonzero" fill-opacity="1" /><polyline clip-path="url(#clip120)" style="stroke:#000000; stroke-linecap:round; stroke-linejoin:round; stroke-width:4; stroke-opacity:1; fill:none" points="112.177,1423.18 112.177,47.2441 "/>
<polyline clip-path="url(#clip120)" style="stroke:#000000; stroke-linecap:round; stroke-linejoin:round; stroke-width:4; stroke-opacity:1; fill:none" points="112.177,1140.1 131.075,1140.1 "/>
<polyline clip-path="url(#clip120)" style="stroke:#000000; stroke-linecap:round; stroke-linejoin:round; stroke-width:4; stroke-opacity:1; fill:none" points="112.177,834.934 131.075,834.934 "/>
<polyline clip-path="url(#clip120)" style="stroke:#000000; stroke-linecap:round; stroke-linejoin:round; stroke-width:4; stroke-opacity:1; fill:none" points="112.177,529.765 131.075,529.765 "/>
<polyline clip-path="url(#clip120)" style="stroke:#000000; stroke-linecap:round; stroke-linejoin:round; stroke-width:4; stroke-opacity:1; fill:none" points="112.177,224.597 131.075,224.597 "/>
<path clip-path="url(#clip120)" d="M56.2699 1153.45 L63.9087 1153.45 L63.9087 1127.08 L55.5986 1128.75 L55.5986 1124.49 L63.8624 1122.82 L68.5383 1122.82 L68.5383 1153.45 L76.1772 1153.45 L76.1772 1157.38 L56.2699 1157.38 L56.2699 1153.45 Z" fill="#000000" fill-rule="nonzero" fill-opacity="1" /><path clip-path="url(#clip120)" d="M59.8578 848.279 L76.1772 848.279 L76.1772 852.214 L54.2328 852.214 L54.2328 848.279 Q56.8949 845.525 61.4782 840.895 Q66.0846 836.242 67.2652 834.9 Q69.5105 832.376 70.3902 830.64 Q71.2929 828.881 71.2929 827.191 Q71.2929 824.437 69.3485 822.701 Q67.4272 820.964 64.3254 820.964 Q62.1263 820.964 59.6726 821.728 Q57.2421 822.492 54.4643 824.043 L54.4643 819.321 Q57.2884 818.187 59.7421 817.608 Q62.1958 817.029 64.2328 817.029 Q69.6031 817.029 72.7976 819.714 Q75.992 822.4 75.992 826.89 Q75.992 829.02 75.1818 830.941 Q74.3948 832.839 72.2883 835.432 Q71.7096 836.103 68.6078 839.321 Q65.5059 842.515 59.8578 848.279 Z" fill="#000000" fill-rule="nonzero" fill-opacity="1" /><path clip-path="url(#clip120)" d="M69.0476 528.411 Q72.404 529.129 74.279 531.397 Q76.1772 533.666 76.1772 536.999 Q76.1772 542.115 72.6587 544.916 Q69.1402 547.717 62.6587 547.717 Q60.4828 547.717 58.168 547.277 Q55.8764 546.86 53.4227 546.004 L53.4227 541.49 Q55.3671 542.624 57.6819 543.203 Q59.9967 543.782 62.5198 543.782 Q66.918 543.782 69.2096 542.045 Q71.5244 540.309 71.5244 536.999 Q71.5244 533.944 69.3717 532.231 Q67.242 530.495 63.4226 530.495 L59.3949 530.495 L59.3949 526.652 L63.6078 526.652 Q67.0569 526.652 68.8855 525.286 Q70.7142 523.897 70.7142 521.305 Q70.7142 518.643 68.8161 517.231 Q66.9411 515.796 63.4226 515.796 Q61.5013 515.796 59.3023 516.212 Q57.1032 516.629 54.4643 517.509 L54.4643 513.342 Q57.1264 512.601 59.4412 512.231 Q61.7791 511.86 63.8393 511.86 Q69.1633 511.86 72.2652 514.291 Q75.367 516.698 75.367 520.819 Q75.367 523.689 73.7235 525.68 Q72.08 527.647 69.0476 528.411 Z" fill="#000000" fill-rule="nonzero" fill-opacity="1" /><path clip-path="url(#clip120)" d="M66.5939 211.391 L54.7884 229.84 L66.5939 229.84 L66.5939 211.391 M65.367 207.317 L71.2466 207.317 L71.2466 229.84 L76.1772 229.84 L76.1772 233.728 L71.2466 233.728 L71.2466 241.877 L66.5939 241.877 L66.5939 233.728 L50.9921 233.728 L50.9921 229.215 L65.367 207.317 Z" fill="#000000" fill-rule="nonzero" fill-opacity="1" /><polyline clip-path="url(#clip122)" style="stroke:#009af9; stroke-linecap:round; stroke-linejoin:round; stroke-width:8; stroke-opacity:1; fill:none" points="112.177,1384.24 114.42,1383.62 116.663,1383 118.906,1382.38 121.148,1381.74 123.391,1381.11 125.634,1380.46 127.877,1379.81 130.12,1379.15 132.363,1378.48 134.605,1377.81 136.848,1377.13 139.091,1376.45 141.334,1375.76 143.577,1375.06 145.819,1374.35 148.062,1373.64 150.305,1372.92 152.548,1372.19 154.791,1371.45 157.034,1370.71 159.276,1369.96 161.519,1369.2 163.762,1368.44 166.005,1367.66 168.248,1366.88 170.491,1366.09 172.733,1365.3 174.976,1364.49 177.219,1363.68 179.462,1362.86 181.705,1362.03 183.947,1361.19 186.19,1360.35 188.433,1359.49 190.676,1358.63 192.919,1357.76 195.162,1356.88 197.404,1355.99 199.647,1355.09 201.89,1354.18 204.133,1353.27 206.376,1352.34 208.619,1351.41 210.861,1350.46 213.104,1349.51 215.347,1348.55 217.59,1347.57 219.833,1346.59 222.075,1345.6 224.318,1344.59 226.561,1343.58 228.804,1342.56 231.047,1341.52 233.29,1340.48 235.532,1339.43 237.775,1338.36 240.018,1337.29 242.261,1336.2 244.504,1335.1 246.746,1333.99 248.989,1332.88 251.232,1331.74 253.475,1330.6 255.718,1329.45 257.961,1328.28 260.203,1327.11 262.446,1325.92 264.689,1324.72 266.932,1323.5 269.175,1322.28 271.418,1321.04 273.66,1319.79 275.903,1318.53 278.146,1317.25 280.389,1315.97 282.632,1314.67 284.874,1313.35 287.117,1312.02 289.36,1310.68 291.603,1309.33 293.846,1307.96 296.089,1306.58 298.331,1305.19 300.574,1303.78 302.817,1302.35 305.06,1300.92 307.303,1299.46 309.545,1298 311.788,1296.51 314.031,1295.02 316.274,1293.51 318.517,1291.98 320.76,1290.44 323.002,1288.88 325.245,1287.31 327.488,1285.72 329.731,1284.11 331.974,1282.49 334.217,1280.85 336.459,1279.2 338.702,1277.53 340.945,1275.84 343.188,1274.14 345.431,1272.41 347.673,1270.68 349.916,1268.92 352.159,1267.14 354.402,1265.35 356.645,1263.54 358.888,1261.71 361.13,1259.87 363.373,1258 365.616,1256.12 367.859,1254.22 370.102,1252.29 372.344,1250.35 374.587,1248.39 376.83,1246.41 379.073,1244.41 381.316,1242.39 383.559,1240.35 385.801,1238.29 388.044,1236.2 390.287,1234.1 392.53,1231.98 394.773,1229.83 397.016,1227.66 399.258,1225.47 401.501,1223.26 403.744,1221.03 405.987,1218.77 408.23,1216.49 410.472,1214.19 412.715,1211.87 414.958,1209.52 417.201,1207.15 419.444,1204.75 421.687,1202.33 423.929,1322.58 426.172,1321.35 428.415,1320.1 430.658,1318.84 432.901,1317.57 435.143,1316.28 437.386,1314.99 439.629,1313.68 441.872,1312.35 444.115,1311.01 446.358,1309.66 448.6,1308.3 450.843,1306.92 453.086,1305.53 455.329,1304.12 457.572,1302.7 459.815,1301.27 462.057,1299.82 464.3,1298.36 466.543,1296.88 468.786,1295.39 471.029,1293.88 473.271,1292.36 475.514,1290.82 477.757,1289.26 480,1287.69 482.243,1286.11 484.486,1284.51 486.728,1282.89 488.971,1281.26 491.214,1279.61 493.457,1277.94 495.7,1276.26 497.942,1274.56 500.185,1272.84 502.428,1271.1 504.671,1269.35 506.914,1267.58 509.157,1265.79 511.399,1263.99 513.642,1262.17 515.885,1260.32 518.128,1258.46 520.371,1256.58 522.614,1254.68 524.856,1252.77 527.099,1250.83 529.342,1248.87 531.585,1246.9 533.828,1244.9 536.07,1242.89 538.313,1240.85 540.556,1238.79 542.799,1236.72 545.042,1234.62 547.285,1232.5 549.527,1230.36 551.77,1228.2 554.013,1226.01 556.256,1223.81 558.499,1221.58 560.741,1219.33 562.984,1217.06 565.227,1214.76 567.47,1212.44 569.713,1210.1 571.956,1207.73 574.198,1205.34 576.441,1202.93 578.684,1200.49 580.927,1198.03 583.17,1195.54 585.413,1193.03 587.655,1190.49 589.898,1187.93 592.141,1185.34 594.384,1182.73 596.627,1180.09 598.869,1177.42 601.112,1174.72 603.355,1172 605.598,1169.25 607.841,1166.48 610.084,1163.67 612.326,1160.84 614.569,1157.98 616.812,1155.09 619.055,1152.17 621.298,1149.22 623.54,1146.24 625.783,1143.23 628.026,1140.19 630.269,1137.12 632.512,1134.02 634.755,1130.89 636.997,1127.73 639.24,1124.54 641.483,1121.31 643.726,1118.05 645.969,1114.76 648.212,1111.43 650.454,1108.07 652.697,1104.68 654.94,1101.25 657.183,1097.79 659.426,1094.3 661.668,1090.77 663.911,1087.2 666.154,1083.6 668.397,1262.62 670.64,1260.78 672.883,1258.92 675.125,1257.05 677.368,1255.15 679.611,1253.24 681.854,1251.31 684.097,1249.36 686.339,1247.39 688.582,1245.4 690.825,1243.39 693.068,1241.35 695.311,1239.3 697.554,1237.23 699.796,1235.14 702.039,1233.02 704.282,1230.89 706.525,1228.73 708.768,1226.55 711.011,1334.81 713.253,1333.7 715.496,1332.58 717.739,1331.44 719.982,1330.3 722.225,1329.14 724.467,1327.97 726.71,1326.79 728.953,1325.6 731.196,1324.4 733.439,1323.18 735.682,1321.95 737.924,1320.71 740.167,1319.46 742.41,1318.2 744.653,1316.92 746.896,1315.63 749.138,1314.32 751.381,1313 753.624,1311.67 755.867,1310.33 758.11,1308.97 760.353,1307.6 762.595,1306.22 764.838,1304.82 767.081,1303.4 769.324,1301.98 771.567,1300.53 773.81,1299.08 776.052,1297.61 778.295,1296.12 780.538,1294.62 782.781,1293.11 785.024,1291.58 787.266,1290.03 789.509,1288.47 791.752,1286.89 793.995,1285.3 796.238,1364.48 798.481,1363.67 800.723,1362.85 802.966,1362.02 805.209,1361.18 807.452,1360.33 809.695,1359.48 811.938,1358.62 814.18,1357.74 816.423,1356.86 818.666,1355.97 820.909,1355.08 823.152,1354.17 825.394,1353.25 827.637,1352.33 829.88,1351.39 832.123,1350.45 834.366,1349.49 836.609,1348.53 838.851,1347.56 841.094,1346.57 843.337,1345.58 845.58,1344.58 847.823,1343.57 850.065,1342.54 852.308,1341.51 854.551,1340.47 856.794,1339.41 859.037,1338.35 861.28,1337.27 863.522,1336.18 865.765,1335.09 868.008,1333.98 870.251,1332.86 872.494,1331.73 874.737,1330.59 876.979,1329.43 879.222,1328.27 881.465,1327.09 883.708,1325.9 885.951,1324.7 888.193,1323.49 890.436,1322.26 892.679,1321.02 894.922,1319.77 897.165,1318.51 899.408,1317.24 901.65,1315.95 903.893,1314.65 906.136,1313.33 908.379,1312.01 910.622,1310.66 912.864,1309.31 915.107,1307.94 917.35,1306.56 919.593,1305.17 921.836,1303.76 924.079,1302.33 926.321,1300.89 928.564,1299.44 930.807,1297.97 933.05,1296.49 935.293,1294.99 937.536,1293.48 939.778,1291.96 942.021,1290.41 944.264,1288.86 946.507,1287.28 948.75,1285.69 950.992,1284.09 953.235,1282.47 955.478,1280.83 957.721,1279.17 959.964,1277.5 962.207,1275.81 964.449,1274.11 966.692,1272.39 968.935,1270.65 971.178,1268.89 973.421,1267.12 975.663,1265.32 977.906,1263.51 980.149,1261.69 982.392,1259.84 984.635,1257.97 986.878,1256.09 989.12,1254.19 991.363,1252.26 993.606,1250.32 995.849,1248.36 998.092,1246.38 1000.33,1244.38 1002.58,1242.36 1004.82,1240.32 1007.06,1238.26 1009.31,1236.17 1011.55,1234.07 1013.79,1231.95 1016.03,1229.8 1018.28,1227.63 1020.52,1225.44 1022.76,1223.23 1025.01,1221 1027.25,1218.74 1029.49,1216.47 1031.73,1214.16 1033.98,1211.84 1036.22,1209.49 1038.46,1207.12 1040.71,1204.72 1042.95,1202.3 1045.19,1199.86 1047.43,1197.39 1049.68,1194.9 1051.92,1192.38 1054.16,1189.83 1056.41,1187.26 1058.65,1184.67 1060.89,1182.04 1063.13,1179.4 1065.38,1176.72 1067.62,1174.02 1069.86,1171.29 1072.1,1168.53 1074.35,1165.75 1076.59,1162.94 1078.83,1160.1 1081.08,1157.23 1083.32,1154.33 1085.56,1151.4 1087.8,1148.44 1090.05,1145.46 1092.29,1142.44 1094.53,1139.39 1096.78,1136.32 1099.02,1133.21 1101.26,1287.68 1103.5,1286.09 1105.75,1284.49 1107.99,1282.87 1110.23,1281.24 1112.48,1279.59 1114.72,1277.92 1116.96,1276.24 1119.2,1274.54 1121.45,1272.82 1123.69,1271.08 1125.93,1269.33 1128.18,1267.56 1130.42,1265.77 1132.66,1263.97 1134.9,1262.14 1137.15,1260.3 1139.39,1258.44 1141.63,1256.56 1143.88,1254.66 1146.12,1252.75 1148.36,1250.81 1150.6,1248.85 1152.85,1246.88 1155.09,1244.88 1157.33,1242.87 1159.57,1240.83 1161.82,1238.77 1164.06,1236.7 1166.3,1234.6 1168.55,1232.48 1170.79,1230.34 1173.03,1228.18 1175.27,1226 1177.52,1223.79 1179.76,1221.56 1182,1219.31 1184.25,1217.04 1186.49,1214.75 1188.73,1212.43 1190.97,1210.09 1193.22,1207.72 1195.46,1205.33 1197.7,1202.92 1199.95,1200.48 1202.19,1198.02 1204.43,1195.53 1206.67,1193.02 1208.92,1190.48 1211.16,1187.92 1213.4,1185.33 1215.65,1182.71 1217.89,1180.07 1220.13,1177.4 1222.37,1174.71 1224.62,1171.99 1226.86,1169.24 1229.1,1166.46 1231.35,1163.66 1233.59,1160.82 1235.83,1157.96 1238.07,1155.07 1240.32,1152.15 1242.56,1149.2 1244.8,1146.22 1247.04,1143.21 1249.29,1140.17 1251.53,1137.1 1253.77,1134 1256.02,1130.87 1258.26,1127.7 1260.5,1124.51 1262.74,1121.28 1264.99,1118.02 1267.23,1114.73 1269.47,1111.4 1271.72,1108.04 1273.96,1104.65 1276.2,1101.22 1278.44,1097.76 1280.69,1094.26 1282.93,1090.73 1285.17,1087.16 1287.42,1083.56 1289.66,1079.92 1291.9,1076.25 1294.14,1072.54 1296.39,1068.79 1298.63,1065 1300.87,1061.17 1303.12,1057.31 1305.36,1053.4 1307.6,1049.46 1309.84,1045.48 1312.09,1041.46 1314.33,1037.4 1316.57,1033.29 1318.82,1029.15 1321.06,1024.96 1323.3,1020.73 1325.54,1016.46 1327.79,1012.15 1330.03,1007.79 1332.27,1003.39 1334.51,998.945 1336.76,994.455 1339,989.919 1341.24,985.338 1343.49,980.711 1345.73,976.038 1347.97,971.317 1350.21,966.549 1352.46,961.733 1354.7,956.868 1356.94,951.955 1359.19,946.992 1361.43,941.979 1363.67,1191.11 1365.91,1188.55 1368.16,1185.97 1370.4,1183.36 1372.64,1180.72 1374.89,1178.06 1377.13,1175.37 1379.37,1172.66 1381.61,1169.91 1383.86,1167.14 1386.1,1164.35 1388.34,1161.52 1390.59,1158.66 1392.83,1155.78 1395.07,1152.87 1397.31,1149.93 1399.56,1146.96 1401.8,1143.96 1404.04,1140.92 1406.29,1137.86 1408.53,1134.77 1410.77,1131.65 1413.01,1128.49 1415.26,1125.31 1417.5,1122.09 1419.74,1118.84 1421.98,1115.56 1424.23,1112.24 1426.47,1108.89 1428.71,1105.51 1430.96,1102.09 1433.2,1098.64 1435.44,1095.15 1437.68,1091.63 1439.93,1088.08 1442.17,1084.48 1444.41,1080.85 1446.66,1077.19 1448.9,1073.49 1451.14,1069.75 1453.38,1065.97 1455.63,1062.16 1457.87,1058.3 1460.11,1054.41 1462.36,1050.48 1464.6,1046.51 1466.84,1042.5 1469.08,1038.45 1471.33,1034.36 1473.57,1030.22 1475.81,1026.05 1478.06,1021.83 1480.3,1017.57 1482.54,1013.27 1484.78,1008.92 1487.03,1004.53 1489.27,1000.1 1491.51,995.621 1493.76,991.097 1496,986.528 1498.24,981.912 1500.48,977.25 1502.73,972.54 1504.97,967.784 1507.21,962.979 1509.46,958.126 1511.7,953.224 1513.94,948.273 1516.18,943.271 1518.43,938.22 1520.67,933.117 1522.91,927.963 1525.15,922.757 1527.4,917.499 1529.64,912.188 1531.88,906.823 1534.13,901.405 1536.37,895.932 1538.61,890.404 1540.85,884.82 1543.1,879.181 1545.34,873.484 1547.58,867.731 1549.83,861.92 1552.07,856.051 1554.31,850.123 1556.55,1144.71 1558.8,1141.69 1561.04,1138.63 1563.28,1135.55 1565.53,1132.43 1567.77,1129.29 1570.01,1126.11 1572.25,1122.9 1574.5,1119.65 1576.74,1116.38 1578.98,1113.07 1581.23,1109.73 1583.47,1106.35 1585.71,1102.94 1587.95,1099.5 1590.2,1096.02 1592.44,1092.5 1594.68,1088.96 1596.93,1085.37 1599.17,1081.75 1601.41,1078.09 1603.65,1074.4 1605.9,1070.67 1608.14,1066.9 1610.38,1063.1 1612.62,1059.25 1614.87,1055.37 1617.11,1051.45 1619.35,1047.49 1621.6,1043.49 1623.84,1039.45 1626.08,1035.36 1628.32,1031.24 1630.57,1027.08 1632.81,1022.87 1635.05,1018.62 1637.3,1014.33 1639.54,1010 1641.78,1005.62 1644.02,1001.2 1646.27,996.729 1648.51,992.217 1650.75,987.66 1653,983.057 1655.24,978.407 1657.48,973.711 1659.72,968.967 1661.97,964.176 1664.21,959.336 1666.45,954.447 1668.7,949.51 1670.94,944.522 1673.18,939.484 1675.42,934.396 1677.67,929.256 1679.91,924.064 1682.15,918.82 1684.4,913.523 1686.64,908.173 1688.88,902.768 1691.12,897.31 1693.37,891.796 1695.61,886.227 1697.85,880.602 1700.09,874.92 1702.34,869.181 1704.58,863.384 1706.82,857.529 1709.07,851.615 1711.31,845.642 1713.55,839.608 1715.79,833.514 1718.04,827.358 1720.28,821.141 1722.52,814.862 1724.77,808.519 1727.01,802.113 1729.25,1120.48 1731.49,1117.21 1733.74,1113.91 1735.98,1110.58 1738.22,1107.21 1740.47,1103.81 1742.71,1100.38 1744.95,1096.91 1747.19,1093.4 1749.44,1089.86 1751.68,1086.28 1753.92,1082.67 1756.17,1079.02 1758.41,1075.34 1760.65,1071.62 1762.89,1067.86 1765.14,1064.06 1767.38,1060.23 1769.62,1056.35 1771.87,1052.44 1774.11,1048.49 1776.35,1044.5 1778.59,1040.47 1780.84,1036.4 1783.08,1032.29 1785.32,1028.13 1787.56,1023.94 1789.81,1019.7 1792.05,1015.42 1794.29,1011.1 1796.54,1006.73 1798.78,1002.32 1801.02,997.869 1803.26,993.37 1805.51,988.826 1807.75,984.236 1809.99,979.6 1812.24,974.918 1814.48,970.188 1816.72,965.411 1818.96,960.586 1821.21,955.712 1823.45,950.789 1825.69,945.817 1827.94,940.794 1830.18,935.721 1832.42,930.597 1834.66,925.421 1836.91,920.194 1839.15,914.913 1841.39,909.579 1843.64,904.191 1845.88,898.749 1848.12,893.252 1850.36,887.7 1852.61,882.091 1854.85,876.426 1857.09,870.704 1859.34,864.924 1861.58,859.086 1863.82,853.189 1866.06,847.232 1868.31,841.215 1870.55,835.138 1872.79,828.999 1875.03,822.798 1877.28,816.534 1879.52,810.208 1881.76,803.817 1884.01,797.362 1886.25,790.842 1888.49,784.256 1890.73,777.604 1892.98,770.885 1895.22,764.098 1897.46,757.242 1899.71,750.317 1901.95,743.323 1904.19,736.258 1906.43,729.123 1908.68,721.915 1910.92,714.635 1913.16,707.281 1915.41,699.854 1917.65,692.352 1919.89,684.775 1922.13,677.122 1924.38,669.391 1926.62,661.584 1928.86,653.698 1931.11,645.733 1933.35,637.688 1935.59,629.563 1937.83,621.356 1940.08,613.068 1942.32,604.695 1944.56,596.239 1946.81,587.697 1949.05,579.069 1951.29,570.355 1953.53,561.553 1955.78,552.662 1958.02,543.682 1960.26,534.612 1962.5,525.451 1964.75,516.197 1966.99,506.85 1969.23,497.41 1971.48,487.874 1973.72,478.243 1975.96,468.514 1978.2,458.688 1980.45,448.763 1982.69,438.739 1984.93,428.613 1987.18,418.385 1989.42,408.055 1991.66,397.621 1993.9,387.081 1996.15,376.436 1998.39,365.684 2000.63,354.823 2002.88,343.853 2005.12,332.773 2007.36,321.581 2009.6,310.276 2011.85,298.858 2014.09,287.325 2016.33,275.675 2018.58,263.909 2020.82,252.024 2023.06,240.019 2025.3,227.894 2027.55,215.646 2029.79,203.276 2032.03,190.78 2034.28,178.159 2036.52,165.412 2038.76,152.535 2041,139.53 2043.25,126.393 2045.49,113.124 2047.73,99.7224 2049.97,86.1857 2052.22,759.018 2054.46,752.115 2056.7,745.141 2058.95,738.098 2061.19,730.983 2063.43,723.797 2065.67,716.539 2067.92,709.208 2070.16,701.803 2072.4,694.323 2074.65,686.769 2076.89,679.138 2079.13,671.43 2081.37,663.645 2083.62,655.782 2085.86,647.839 2088.1,639.817 2090.35,631.714 2092.59,623.529 2094.83,615.262 2097.07,1026.09 2099.32,1021.87 2101.56,1017.61 2103.8,1013.31 2106.05,1008.96 2108.29,1004.57 2110.53,1000.14 2112.77,995.663 2115.02,1218.2 2117.26,1215.92 2119.5,1213.61 2121.75,1211.28 2123.99,1208.93 2126.23,1206.55 2128.47,1204.15 2130.72,1201.72 2132.96,1199.27 2135.2,1196.79 2137.45,1194.29 2139.69,1191.77 2141.93,1189.22 2144.17,1186.64 2146.42,1184.04 2148.66,1181.41 2150.9,1178.76 2153.14,1176.08 2155.39,1173.37 2157.63,1170.63 2159.87,1167.87 2162.12,1165.08 2164.36,1162.26 2166.6,1159.42 2168.84,1156.54 2171.09,1153.64 2173.33,1150.71 2175.57,1147.75 2177.82,1144.76 2180.06,1141.73 2182.3,1138.68 2184.54,1135.6 2186.79,1132.49 2189.03,1129.34 2191.27,1126.17 2193.52,1122.96 2195.76,1119.72 2198,1116.45 2200.24,1113.14 2202.49,1109.8 2204.73,1106.43 2206.97,1103.02 2209.22,1099.58 2211.46,1096.11 2213.7,1092.6 2215.94,1089.05 2218.19,1085.47 2220.43,1081.85 2222.67,1078.2 2224.92,1074.51 2227.16,1070.78 2229.4,1067.02 2231.64,1063.21 2233.89,1059.37 2236.13,1055.49 2238.37,1051.57 2240.61,1047.61 2242.86,1043.61 2245.1,1039.57 2247.34,1035.49 2249.59,1031.37 2251.83,1027.21 2254.07,1023 2256.31,1018.75 2258.56,1014.46 2260.8,1010.13 2263.04,1005.75 2265.29,1001.33 2267.53,996.864 2269.77,992.352 2272.01,987.794 2274.26,983.191 2276.5,978.541 2278.74,973.844 2280.99,969.099 2283.23,964.307 2285.47,959.466 2287.71,954.577 2289.96,949.638 2292.2,944.649 2294.44,939.61 2296.69,934.52 2298.93,929.379 2301.17,924.185 2303.41,918.94 2305.66,913.642 2307.9,908.29 2310.14,902.884 2312.39,897.425 2314.63,891.91 2316.87,886.339 2319.11,880.713 2321.36,875.03 2323.6,869.291 2325.84,863.493 2328.08,857.638 2330.33,851.723 2332.57,845.75 2334.81,839.717 2337.06,833.623 2339.3,827.469 2341.54,821.252 2343.78,814.974 2346.03,808.633 2348.27,802.229 2350.51,795.759 2352.76,789.225 "/>
<path clip-path="url(#clip120)" d="M186.863 196.789 L500.018 196.789 L500.018 93.1086 L186.863 93.1086  Z" fill="#ffffff" fill-rule="evenodd" fill-opacity="1"/>
<polyline clip-path="url(#clip120)" style="stroke:#000000; stroke-linecap:round; stroke-linejoin:round; stroke-width:4; stroke-opacity:1; fill:none" points="186.863,196.789 500.018,196.789 500.018,93.1086 186.863,93.1086 186.863,196.789 "/>
<polyline clip-path="url(#clip120)" style="stroke:#009af9; stroke-linecap:round; stroke-linejoin:round; stroke-width:8; stroke-opacity:1; fill:none" points="211.758,144.949 361.13,144.949 "/>
<path clip-path="url(#clip120)" d="M386.026 151.997 L386.026 136.303 L390.285 136.303 L390.285 151.835 Q390.285 155.516 391.72 157.368 Q393.155 159.196 396.026 159.196 Q399.475 159.196 401.465 156.997 Q403.479 154.798 403.479 151.002 L403.479 136.303 L407.739 136.303 L407.739 162.229 L403.479 162.229 L403.479 158.247 Q401.928 160.608 399.868 161.766 Q397.831 162.9 395.123 162.9 Q390.655 162.9 388.34 160.122 Q386.026 157.344 386.026 151.997 M396.743 135.678 L396.743 135.678 Z" fill="#000000" fill-rule="nonzero" fill-opacity="1" /><path clip-path="url(#clip120)" d="M416.118 126.21 L425.933 126.21 L425.933 129.52 L420.377 129.52 L420.377 165.168 L425.933 165.168 L425.933 168.479 L416.118 168.479 L416.118 126.21 Z" fill="#000000" fill-rule="nonzero" fill-opacity="1" /><path clip-path="url(#clip120)" d="M436.419 158.293 L444.058 158.293 L444.058 131.928 L435.748 133.595 L435.748 129.335 L444.011 127.669 L448.687 127.669 L448.687 158.293 L456.326 158.293 L456.326 162.229 L436.419 162.229 L436.419 158.293 Z" fill="#000000" fill-rule="nonzero" fill-opacity="1" /><path clip-path="url(#clip120)" d="M475.122 126.21 L475.122 168.479 L465.308 168.479 L465.308 165.168 L470.84 165.168 L470.84 129.52 L465.308 129.52 L465.308 126.21 L475.122 126.21 Z" fill="#000000" fill-rule="nonzero" fill-opacity="1" /></svg>
