<?xml version="1.0" encoding="utf-8"?>
<svg xmlns="http://www.w3.org/2000/svg" xmlns:xlink="http://www.w3.org/1999/xlink" width="600" height="400" viewBox="0 0 2400 1600">
<defs>
  <clipPath id="clip260">
    <rect x="0" y="0" width="2400" height="1600"/>
  </clipPath>
</defs>
<path clip-path="url(#clip260)" d="M0 1600 L2400 1600 L2400 0 L0 0  Z" fill="#ffffff" fill-rule="evenodd" fill-opacity="1"/>
<defs>
  <clipPath id="clip261">
    <rect x="138" y="47" width="2215" height="1377"/>
  </clipPath>
</defs>
<path clip-path="url(#clip260)" d="M138.959 1423.18 L2352.76 1423.18 L2352.76 47.2441 L138.959 47.2441  Z" fill="#ffffff" fill-rule="evenodd" fill-opacity="1"/>
<polyline clip-path="url(#clip261)" style="stroke:#000000; stroke-linecap:round; stroke-linejoin:round; stroke-width:2; stroke-opacity:0.1; fill:none" points="138.959,1423.18 138.959,47.2441 "/>
<polyline clip-path="url(#clip261)" style="stroke:#000000; stroke-linecap:round; stroke-linejoin:round; stroke-width:2; stroke-opacity:0.1; fill:none" points="581.719,1423.18 581.719,47.2441 "/>
<polyline clip-path="url(#clip261)" style="stroke:#000000; stroke-linecap:round; stroke-linejoin:round; stroke-width:2; stroke-opacity:0.1; fill:none" points="1024.48,1423.18 1024.48,47.2441 "/>
<polyline clip-path="url(#clip261)" style="stroke:#000000; stroke-linecap:round; stroke-linejoin:round; stroke-width:2; stroke-opacity:0.1; fill:none" points="1467.24,1423.18 1467.24,47.2441 "/>
<polyline clip-path="url(#clip261)" style="stroke:#000000; stroke-linecap:round; stroke-linejoin:round; stroke-width:2; stroke-opacity:0.1; fill:none" points="1910,1423.18 1910,47.2441 "/>
<polyline clip-path="url(#clip261)" style="stroke:#000000; stroke-linecap:round; stroke-linejoin:round; stroke-width:2; stroke-opacity:0.1; fill:none" points="2352.76,1423.18 2352.76,47.2441 "/>
<polyline clip-path="url(#clip261)" style="stroke:#000000; stroke-linecap:round; stroke-linejoin:round; stroke-width:2; stroke-opacity:0.1; fill:none" points="138.959,1384.24 2352.76,1384.24 "/>
<polyline clip-path="url(#clip261)" style="stroke:#000000; stroke-linecap:round; stroke-linejoin:round; stroke-width:2; stroke-opacity:0.1; fill:none" points="138.959,978.597 2352.76,978.597 "/>
<polyline clip-path="url(#clip261)" style="stroke:#000000; stroke-linecap:round; stroke-linejoin:round; stroke-width:2; stroke-opacity:0.1; fill:none" points="138.959,572.955 2352.76,572.955 "/>
<polyline clip-path="url(#clip261)" style="stroke:#000000; stroke-linecap:round; stroke-linejoin:round; stroke-width:2; stroke-opacity:0.1; fill:none" points="138.959,167.314 2352.76,167.314 "/>
<polyline clip-path="url(#clip260)" style="stroke:#000000; stroke-linecap:round; stroke-linejoin:round; stroke-width:4; stroke-opacity:1; fill:none" points="138.959,1423.18 2352.76,1423.18 "/>
<polyline clip-path="url(#clip260)" style="stroke:#000000; stroke-linecap:round; stroke-linejoin:round; stroke-width:4; stroke-opacity:1; fill:none" points="138.959,1423.18 138.959,1404.28 "/>
<polyline clip-path="url(#clip260)" style="stroke:#000000; stroke-linecap:round; stroke-linejoin:round; stroke-width:4; stroke-opacity:1; fill:none" points="581.719,1423.18 581.719,1404.28 "/>
<polyline clip-path="url(#clip260)" style="stroke:#000000; stroke-linecap:round; stroke-linejoin:round; stroke-width:4; stroke-opacity:1; fill:none" points="1024.48,1423.18 1024.48,1404.28 "/>
<polyline clip-path="url(#clip260)" style="stroke:#000000; stroke-linecap:round; stroke-linejoin:round; stroke-width:4; stroke-opacity:1; fill:none" points="1467.24,1423.18 1467.24,1404.28 "/>
<polyline clip-path="url(#clip260)" style="stroke:#000000; stroke-linecap:round; stroke-linejoin:round; stroke-width:4; stroke-opacity:1; fill:none" points="1910,1423.18 1910,1404.28 "/>
<polyline clip-path="url(#clip260)" style="stroke:#000000; stroke-linecap:round; stroke-linejoin:round; stroke-width:4; stroke-opacity:1; fill:none" points="2352.76,1423.18 2352.76,1404.28 "/>
<path clip-path="url(#clip260)" d="M138.959 1454.1 Q135.348 1454.1 133.52 1457.66 Q131.714 1461.2 131.714 1468.33 Q131.714 1475.44 133.52 1479.01 Q135.348 1482.55 138.959 1482.55 Q142.594 1482.55 144.399 1479.01 Q146.228 1475.44 146.228 1468.33 Q146.228 1461.2 144.399 1457.66 Q142.594 1454.1 138.959 1454.1 M138.959 1450.39 Q144.77 1450.39 147.825 1455 Q150.904 1459.58 150.904 1468.33 Q150.904 1477.06 147.825 1481.67 Q144.77 1486.25 138.959 1486.25 Q133.149 1486.25 130.071 1481.67 Q127.015 1477.06 127.015 1468.33 Q127.015 1459.58 130.071 1455 Q133.149 1450.39 138.959 1450.39 Z" fill="#000000" fill-rule="nonzero" fill-opacity="1" /><path clip-path="url(#clip260)" d="M576.372 1481.64 L592.691 1481.64 L592.691 1485.58 L570.747 1485.58 L570.747 1481.64 Q573.409 1478.89 577.992 1474.26 Q582.598 1469.61 583.779 1468.27 Q586.024 1465.74 586.904 1464.01 Q587.807 1462.25 587.807 1460.56 Q587.807 1457.8 585.862 1456.07 Q583.941 1454.33 580.839 1454.33 Q578.64 1454.33 576.186 1455.09 Q573.756 1455.86 570.978 1457.41 L570.978 1452.69 Q573.802 1451.55 576.256 1450.97 Q578.709 1450.39 580.747 1450.39 Q586.117 1450.39 589.311 1453.08 Q592.506 1455.77 592.506 1460.26 Q592.506 1462.39 591.696 1464.31 Q590.908 1466.2 588.802 1468.8 Q588.223 1469.47 585.121 1472.69 Q582.02 1475.88 576.372 1481.64 Z" fill="#000000" fill-rule="nonzero" fill-opacity="1" /><path clip-path="url(#clip260)" d="M1027.49 1455.09 L1015.68 1473.54 L1027.49 1473.54 L1027.49 1455.09 M1026.26 1451.02 L1032.14 1451.02 L1032.14 1473.54 L1037.07 1473.54 L1037.07 1477.43 L1032.14 1477.43 L1032.14 1485.58 L1027.49 1485.58 L1027.49 1477.43 L1011.89 1477.43 L1011.89 1472.92 L1026.26 1451.02 Z" fill="#000000" fill-rule="nonzero" fill-opacity="1" /><path clip-path="url(#clip260)" d="M1467.64 1466.44 Q1464.49 1466.44 1462.64 1468.59 Q1460.81 1470.74 1460.81 1474.49 Q1460.81 1478.22 1462.64 1480.39 Q1464.49 1482.55 1467.64 1482.55 Q1470.79 1482.55 1472.62 1480.39 Q1474.47 1478.22 1474.47 1474.49 Q1474.47 1470.74 1472.62 1468.59 Q1470.79 1466.44 1467.64 1466.44 M1476.92 1451.78 L1476.92 1456.04 Q1475.17 1455.21 1473.36 1454.77 Q1471.58 1454.33 1469.82 1454.33 Q1465.19 1454.33 1462.74 1457.45 Q1460.3 1460.58 1459.96 1466.9 Q1461.32 1464.89 1463.38 1463.82 Q1465.44 1462.73 1467.92 1462.73 Q1473.13 1462.73 1476.14 1465.9 Q1479.17 1469.05 1479.17 1474.49 Q1479.17 1479.82 1476.02 1483.03 Q1472.87 1486.25 1467.64 1486.25 Q1461.65 1486.25 1458.48 1481.67 Q1455.3 1477.06 1455.3 1468.33 Q1455.3 1460.14 1459.19 1455.28 Q1463.08 1450.39 1469.63 1450.39 Q1471.39 1450.39 1473.17 1450.74 Q1474.98 1451.09 1476.92 1451.78 Z" fill="#000000" fill-rule="nonzero" fill-opacity="1" /><path clip-path="url(#clip260)" d="M1910 1469.17 Q1906.66 1469.17 1904.74 1470.95 Q1902.84 1472.73 1902.84 1475.86 Q1902.84 1478.98 1904.74 1480.77 Q1906.66 1482.55 1910 1482.55 Q1913.33 1482.55 1915.25 1480.77 Q1917.17 1478.96 1917.17 1475.86 Q1917.17 1472.73 1915.25 1470.95 Q1913.35 1469.17 1910 1469.17 M1905.32 1467.18 Q1902.31 1466.44 1900.62 1464.38 Q1898.96 1462.32 1898.96 1459.35 Q1898.96 1455.21 1901.89 1452.8 Q1904.86 1450.39 1910 1450.39 Q1915.16 1450.39 1918.1 1452.8 Q1921.04 1455.21 1921.04 1459.35 Q1921.04 1462.32 1919.35 1464.38 Q1917.68 1466.44 1914.7 1467.18 Q1918.08 1467.96 1919.95 1470.26 Q1921.85 1472.55 1921.85 1475.86 Q1921.85 1480.88 1918.77 1483.57 Q1915.71 1486.25 1910 1486.25 Q1904.28 1486.25 1901.2 1483.57 Q1898.14 1480.88 1898.14 1475.86 Q1898.14 1472.55 1900.04 1470.26 Q1901.94 1467.96 1905.32 1467.18 M1903.61 1459.79 Q1903.61 1462.48 1905.27 1463.98 Q1906.96 1465.49 1910 1465.49 Q1913.01 1465.49 1914.7 1463.98 Q1916.41 1462.48 1916.41 1459.79 Q1916.41 1457.11 1914.7 1455.6 Q1913.01 1454.1 1910 1454.1 Q1906.96 1454.1 1905.27 1455.6 Q1903.61 1457.11 1903.61 1459.79 Z" fill="#000000" fill-rule="nonzero" fill-opacity="1" /><path clip-path="url(#clip260)" d="M2327.44 1481.64 L2335.08 1481.64 L2335.08 1455.28 L2326.77 1456.95 L2326.77 1452.69 L2335.04 1451.02 L2339.71 1451.02 L2339.71 1481.64 L2347.35 1481.64 L2347.35 1485.58 L2327.44 1485.58 L2327.44 1481.64 Z" fill="#000000" fill-rule="nonzero" fill-opacity="1" /><path clip-path="url(#clip260)" d="M2366.8 1454.1 Q2363.18 1454.1 2361.36 1457.66 Q2359.55 1461.2 2359.55 1468.33 Q2359.55 1475.44 2361.36 1479.01 Q2363.18 1482.55 2366.8 1482.55 Q2370.43 1482.55 2372.23 1479.01 Q2374.06 1475.44 2374.06 1468.33 Q2374.06 1461.2 2372.23 1457.66 Q2370.43 1454.1 2366.8 1454.1 M2366.8 1450.39 Q2372.61 1450.39 2375.66 1455 Q2378.74 1459.58 2378.74 1468.33 Q2378.74 1477.06 2375.66 1481.67 Q2372.61 1486.25 2366.8 1486.25 Q2360.99 1486.25 2357.91 1481.67 Q2354.85 1477.06 2354.85 1468.33 Q2354.85 1459.58 2357.91 1455 Q2360.99 1450.39 2366.8 1450.39 Z" fill="#000000" fill-rule="nonzero" fill-opacity="1" /><path clip-path="url(#clip260)" d="M1244.92 1522.27 L1244.92 1532.4 L1256.98 1532.4 L1256.98 1536.95 L1244.92 1536.95 L1244.92 1556.3 Q1244.92 1560.66 1246.1 1561.9 Q1247.31 1563.14 1250.97 1563.14 L1256.98 1563.14 L1256.98 1568.04 L1250.97 1568.04 Q1244.19 1568.04 1241.61 1565.53 Q1239.03 1562.98 1239.03 1556.3 L1239.03 1536.95 L1234.73 1536.95 L1234.73 1532.4 L1239.03 1532.4 L1239.03 1522.27 L1244.92 1522.27 Z" fill="#000000" fill-rule="nonzero" fill-opacity="1" /><polyline clip-path="url(#clip260)" style="stroke:#000000; stroke-linecap:round; stroke-linejoin:round; stroke-width:4; stroke-opacity:1; fill:none" points="138.959,1423.18 138.959,47.2441 "/>
<polyline clip-path="url(#clip260)" style="stroke:#000000; stroke-linecap:round; stroke-linejoin:round; stroke-width:4; stroke-opacity:1; fill:none" points="138.959,1384.24 157.857,1384.24 "/>
<polyline clip-path="url(#clip260)" style="stroke:#000000; stroke-linecap:round; stroke-linejoin:round; stroke-width:4; stroke-opacity:1; fill:none" points="138.959,978.597 157.857,978.597 "/>
<polyline clip-path="url(#clip260)" style="stroke:#000000; stroke-linecap:round; stroke-linejoin:round; stroke-width:4; stroke-opacity:1; fill:none" points="138.959,572.955 157.857,572.955 "/>
<polyline clip-path="url(#clip260)" style="stroke:#000000; stroke-linecap:round; stroke-linejoin:round; stroke-width:4; stroke-opacity:1; fill:none" points="138.959,167.314 157.857,167.314 "/>
<path clip-path="url(#clip260)" d="M91.0151 1370.04 Q87.404 1370.04 85.5753 1373.6 Q83.7697 1377.14 83.7697 1384.27 Q83.7697 1391.38 85.5753 1394.94 Q87.404 1398.49 91.0151 1398.49 Q94.6493 1398.49 96.4548 1394.94 Q98.2835 1391.38 98.2835 1384.27 Q98.2835 1377.14 96.4548 1373.6 Q94.6493 1370.04 91.0151 1370.04 M91.0151 1366.33 Q96.8252 1366.33 99.8808 1370.94 Q102.959 1375.52 102.959 1384.27 Q102.959 1393 99.8808 1397.61 Q96.8252 1402.19 91.0151 1402.19 Q85.2049 1402.19 82.1262 1397.61 Q79.0707 1393 79.0707 1384.27 Q79.0707 1375.52 82.1262 1370.94 Q85.2049 1366.33 91.0151 1366.33 Z" fill="#000000" fill-rule="nonzero" fill-opacity="1" /><path clip-path="url(#clip260)" d="M82.0568 961.317 L100.413 961.317 L100.413 965.252 L86.3392 965.252 L86.3392 973.724 Q87.3577 973.377 88.3762 973.215 Q89.3947 973.03 90.4132 973.03 Q96.2002 973.03 99.5798 976.201 Q102.959 979.372 102.959 984.789 Q102.959 990.368 99.4872 993.469 Q96.015 996.548 89.6956 996.548 Q87.5197 996.548 85.2512 996.178 Q83.0058 995.807 80.5984 995.067 L80.5984 990.368 Q82.6818 991.502 84.904 992.057 Q87.1262 992.613 89.603 992.613 Q93.6076 992.613 95.9456 990.506 Q98.2835 988.4 98.2835 984.789 Q98.2835 981.178 95.9456 979.071 Q93.6076 976.965 89.603 976.965 Q87.728 976.965 85.8531 977.382 Q84.0012 977.798 82.0568 978.678 L82.0568 961.317 Z" fill="#000000" fill-rule="nonzero" fill-opacity="1" /><path clip-path="url(#clip260)" d="M51.6634 586.3 L59.3023 586.3 L59.3023 559.935 L50.9921 561.601 L50.9921 557.342 L59.256 555.675 L63.9319 555.675 L63.9319 586.3 L71.5707 586.3 L71.5707 590.235 L51.6634 590.235 L51.6634 586.3 Z" fill="#000000" fill-rule="nonzero" fill-opacity="1" /><path clip-path="url(#clip260)" d="M91.0151 558.754 Q87.404 558.754 85.5753 562.319 Q83.7697 565.861 83.7697 572.99 Q83.7697 580.097 85.5753 583.661 Q87.404 587.203 91.0151 587.203 Q94.6493 587.203 96.4548 583.661 Q98.2835 580.097 98.2835 572.99 Q98.2835 565.861 96.4548 562.319 Q94.6493 558.754 91.0151 558.754 M91.0151 555.05 Q96.8252 555.05 99.8808 559.657 Q102.959 564.24 102.959 572.99 Q102.959 581.717 99.8808 586.323 Q96.8252 590.907 91.0151 590.907 Q85.2049 590.907 82.1262 586.323 Q79.0707 581.717 79.0707 572.99 Q79.0707 564.24 82.1262 559.657 Q85.2049 555.05 91.0151 555.05 Z" fill="#000000" fill-rule="nonzero" fill-opacity="1" /><path clip-path="url(#clip260)" d="M52.6588 180.659 L60.2976 180.659 L60.2976 154.293 L51.9875 155.96 L51.9875 151.701 L60.2513 150.034 L64.9272 150.034 L64.9272 180.659 L72.5661 180.659 L72.5661 184.594 L52.6588 184.594 L52.6588 180.659 Z" fill="#000000" fill-rule="nonzero" fill-opacity="1" /><path clip-path="url(#clip260)" d="M82.0568 150.034 L100.413 150.034 L100.413 153.969 L86.3392 153.969 L86.3392 162.441 Q87.3577 162.094 88.3762 161.932 Q89.3947 161.747 90.4132 161.747 Q96.2002 161.747 99.5798 164.918 Q102.959 168.089 102.959 173.506 Q102.959 179.085 99.4872 182.187 Q96.015 185.265 89.6956 185.265 Q87.5197 185.265 85.2512 184.895 Q83.0058 184.525 80.5984 183.784 L80.5984 179.085 Q82.6818 180.219 84.904 180.775 Q87.1262 181.33 89.603 181.33 Q93.6076 181.33 95.9456 179.224 Q98.2835 177.117 98.2835 173.506 Q98.2835 169.895 95.9456 167.788 Q93.6076 165.682 89.603 165.682 Q87.728 165.682 85.8531 166.099 Q84.0012 166.515 82.0568 167.395 L82.0568 150.034 Z" fill="#000000" fill-rule="nonzero" fill-opacity="1" /><polyline clip-path="url(#clip261)" style="stroke:#009af9; stroke-linecap:round; stroke-linejoin:round; stroke-width:8; stroke-opacity:1; fill:none" points="138.959,1384.24 140.19,1384.24 141.421,1384.24 142.651,1384.24 143.882,1384.24 145.112,1384.24 146.343,1384.24 147.573,1384.24 148.804,1384.24 150.035,1384.24 151.265,1384.24 152.496,1384.24 153.726,1384.24 154.957,1384.24 156.187,1384.24 157.418,1384.24 158.649,1384.24 159.879,1384.24 161.11,1384.24 162.34,1384.24 163.571,1384.24 164.801,1384.24 166.032,1384.24 167.263,1384.24 168.493,1384.24 169.724,1384.24 170.954,1384.24 172.185,1384.24 173.415,1384.24 174.646,1384.24 175.877,1384.24 177.107,1384.24 178.338,1384.24 179.568,1384.24 180.799,1384.24 182.029,1384.24 183.26,1384.24 184.491,1384.24 185.721,1384.24 186.952,1384.24 188.182,1384.24 189.413,1384.24 190.643,1384.24 191.874,1384.24 193.105,1384.24 194.335,1384.24 195.566,1384.24 196.796,1384.24 198.027,1384.24 199.257,1384.24 200.488,1384.24 201.719,1384.24 202.949,1384.24 204.18,1384.24 205.41,1384.24 206.641,1384.24 207.871,1384.24 209.102,1384.24 210.333,1384.24 211.563,1384.24 212.794,1384.24 214.024,1384.24 215.255,1384.24 216.485,1384.24 217.716,1384.24 218.947,1384.24 220.177,1384.24 221.408,1384.24 222.638,1384.24 223.869,1384.24 225.099,1384.24 226.33,1384.24 227.561,1384.24 228.791,1384.24 230.022,1384.24 231.252,1384.24 232.483,1384.24 233.713,1384.24 234.944,1384.24 236.175,1384.24 237.405,1384.24 238.636,1384.24 239.866,1384.24 241.097,1384.24 242.327,1384.24 243.558,1384.24 244.789,1384.24 246.019,1384.24 247.25,1384.24 248.48,1384.24 249.711,1384.24 250.941,1384.24 252.172,1384.24 253.403,1384.24 254.633,1384.24 255.864,1384.24 257.094,1384.24 258.325,1384.24 259.555,1384.24 260.786,1384.24 262.016,1384.24 263.247,1384.24 264.478,1384.24 265.708,1384.24 266.939,1303.11 268.169,1303.11 269.4,1303.11 270.63,1303.11 271.861,1303.11 273.092,1303.11 274.322,1303.11 275.553,1303.11 276.783,1303.11 278.014,1303.11 279.244,1303.11 280.475,1303.11 281.706,1303.11 282.936,1303.11 284.167,1303.11 285.397,1303.11 286.628,1303.11 287.858,1303.11 289.089,1303.11 290.32,1303.11 291.55,1303.11 292.781,1303.11 294.011,1303.11 295.242,1303.11 296.472,1303.11 297.703,1303.11 298.934,1303.11 300.164,1303.11 301.395,1303.11 302.625,1303.11 303.856,1303.11 305.086,1303.11 306.317,1303.11 307.548,1303.11 308.778,1221.98 310.009,1221.98 311.239,1221.98 312.47,1221.98 313.7,1221.98 314.931,1221.98 316.162,1221.98 317.392,1221.98 318.623,1221.98 319.853,1221.98 321.084,1221.98 322.314,1221.98 323.545,1221.98 324.776,1221.98 326.006,1221.98 327.237,1221.98 328.467,1221.98 329.698,1221.98 330.928,1221.98 332.159,1221.98 333.39,1221.98 334.62,1221.98 335.851,1221.98 337.081,1221.98 338.312,1221.98 339.542,1221.98 340.773,1221.98 342.004,1221.98 343.234,1221.98 344.465,1221.98 345.695,1221.98 346.926,1221.98 348.156,1221.98 349.387,1221.98 350.618,1221.98 351.848,1221.98 353.079,1221.98 354.309,1221.98 355.54,1221.98 356.77,1221.98 358.001,1221.98 359.232,1221.98 360.462,1221.98 361.693,1221.98 362.923,1221.98 364.154,1221.98 365.384,1221.98 366.615,1221.98 367.846,1221.98 369.076,1221.98 370.307,1221.98 371.537,1221.98 372.768,1221.98 373.998,1221.98 375.229,1221.98 376.46,1221.98 377.69,1221.98 378.921,1221.98 380.151,1221.98 381.382,1221.98 382.612,1221.98 383.843,1221.98 385.074,1221.98 386.304,1221.98 387.535,1221.98 388.765,1221.98 389.996,1221.98 391.226,1221.98 392.457,1221.98 393.688,1221.98 394.918,1221.98 396.149,1221.98 397.379,1221.98 398.61,1221.98 399.84,1221.98 401.071,1221.98 402.302,1221.98 403.532,1221.98 404.763,1221.98 405.993,1221.98 407.224,1221.98 408.454,1221.98 409.685,1221.98 410.916,1221.98 412.146,1221.98 413.377,1221.98 414.607,1221.98 415.838,1221.98 417.068,1221.98 418.299,1221.98 419.53,1221.98 420.76,1221.98 421.991,1221.98 423.221,1221.98 424.452,1221.98 425.682,1221.98 426.913,1221.98 428.144,1221.98 429.374,1221.98 430.605,1221.98 431.835,1221.98 433.066,1221.98 434.296,1221.98 435.527,1221.98 436.758,1221.98 437.988,1221.98 439.219,1221.98 440.449,1221.98 441.68,1221.98 442.91,1221.98 444.141,1221.98 445.372,1221.98 446.602,1221.98 447.833,1221.98 449.063,1221.98 450.294,1221.98 451.524,1221.98 452.755,1221.98 453.986,1221.98 455.216,1221.98 456.447,1221.98 457.677,1221.98 458.908,1221.98 460.138,1221.98 461.369,1221.98 462.6,1221.98 463.83,1221.98 465.061,1221.98 466.291,1221.98 467.522,1221.98 468.752,1221.98 469.983,1221.98 471.213,1221.98 472.444,1221.98 473.675,1221.98 474.905,1221.98 476.136,1221.98 477.366,1221.98 478.597,1221.98 479.827,1140.85 481.058,1140.85 482.289,1140.85 483.519,1140.85 484.75,1140.85 485.98,1140.85 487.211,1140.85 488.441,1140.85 489.672,1140.85 490.903,1140.85 492.133,1140.85 493.364,1140.85 494.594,1140.85 495.825,1140.85 497.055,1140.85 498.286,1140.85 499.517,1140.85 500.747,1140.85 501.978,1140.85 503.208,1140.85 504.439,1140.85 505.669,1140.85 506.9,1140.85 508.131,1140.85 509.361,1140.85 510.592,1140.85 511.822,1140.85 513.053,1140.85 514.283,1140.85 515.514,1140.85 516.745,1140.85 517.975,1140.85 519.206,1140.85 520.436,1140.85 521.667,1140.85 522.897,1140.85 524.128,1140.85 525.359,1140.85 526.589,1140.85 527.82,1140.85 529.05,1140.85 530.281,1140.85 531.511,1140.85 532.742,1140.85 533.973,1140.85 535.203,1140.85 536.434,1140.85 537.664,1140.85 538.895,1140.85 540.125,1140.85 541.356,1140.85 542.587,1140.85 543.817,1140.85 545.048,1140.85 546.278,1059.73 547.509,1059.73 548.739,1059.73 549.97,1059.73 551.201,1059.73 552.431,1059.73 553.662,1059.73 554.892,1059.73 556.123,1059.73 557.353,1059.73 558.584,1059.73 559.815,1059.73 561.045,1059.73 562.276,1059.73 563.506,1059.73 564.737,978.597 565.967,978.597 567.198,978.597 568.429,978.597 569.659,978.597 570.89,978.597 572.12,978.597 573.351,978.597 574.581,978.597 575.812,978.597 577.043,978.597 578.273,978.597 579.504,978.597 580.734,978.597 581.965,978.597 583.195,978.597 584.426,978.597 585.657,978.597 586.887,978.597 588.118,978.597 589.348,978.597 590.579,978.597 591.809,978.597 593.04,978.597 594.271,978.597 595.501,978.597 596.732,978.597 597.962,978.597 599.193,978.597 600.423,978.597 601.654,978.597 602.885,978.597 604.115,978.597 605.346,978.597 606.576,978.597 607.807,978.597 609.037,978.597 610.268,897.469 611.499,897.469 612.729,897.469 613.96,897.469 615.19,897.469 616.421,897.469 617.651,897.469 618.882,897.469 620.113,897.469 621.343,897.469 622.574,897.469 623.804,897.469 625.035,897.469 626.265,897.469 627.496,897.469 628.727,897.469 629.957,897.469 631.188,897.469 632.418,897.469 633.649,897.469 634.879,897.469 636.11,897.469 637.341,897.469 638.571,897.469 639.802,897.469 641.032,897.469 642.263,897.469 643.493,897.469 644.724,897.469 645.955,897.469 647.185,897.469 648.416,897.469 649.646,897.469 650.877,897.469 652.107,897.469 653.338,897.469 654.569,897.469 655.799,897.469 657.03,897.469 658.26,897.469 659.491,897.469 660.721,897.469 661.952,897.469 663.183,897.469 664.413,897.469 665.644,897.469 666.874,897.469 668.105,897.469 669.335,897.469 670.566,897.469 671.796,897.469 673.027,897.469 674.258,897.469 675.488,897.469 676.719,897.469 677.949,897.469 679.18,897.469 680.41,897.469 681.641,897.469 682.872,897.469 684.102,897.469 685.333,897.469 686.563,897.469 687.794,897.469 689.024,897.469 690.255,897.469 691.486,897.469 692.716,897.469 693.947,897.469 695.177,897.469 696.408,897.469 697.638,897.469 698.869,897.469 700.1,897.469 701.33,897.469 702.561,897.469 703.791,897.469 705.022,897.469 706.252,897.469 707.483,897.469 708.714,897.469 709.944,897.469 711.175,897.469 712.405,897.469 713.636,897.469 714.866,897.469 716.097,897.469 717.328,897.469 718.558,897.469 719.789,897.469 721.019,897.469 722.25,897.469 723.48,897.469 724.711,897.469 725.942,897.469 727.172,897.469 728.403,897.469 729.633,897.469 730.864,897.469 732.094,897.469 733.325,897.469 734.556,897.469 735.786,897.469 737.017,897.469 738.247,897.469 739.478,897.469 740.708,897.469 741.939,897.469 743.17,897.469 744.4,897.469 745.631,897.469 746.861,897.469 748.092,897.469 749.322,897.469 750.553,897.469 751.784,897.469 753.014,897.469 754.245,897.469 755.475,897.469 756.706,897.469 757.936,897.469 759.167,897.469 760.398,897.469 761.628,897.469 762.859,897.469 764.089,897.469 765.32,897.469 766.55,897.469 767.781,897.469 769.012,897.469 770.242,897.469 771.473,897.469 772.703,897.469 773.934,897.469 775.164,897.469 776.395,897.469 777.626,897.469 778.856,897.469 780.087,897.469 781.317,897.469 782.548,897.469 783.778,897.469 785.009,897.469 786.24,897.469 787.47,897.469 788.701,897.469 789.931,897.469 791.162,897.469 792.392,897.469 793.623,897.469 794.854,897.469 796.084,897.469 797.315,897.469 798.545,897.469 799.776,897.469 801.006,897.469 802.237,897.469 803.468,897.469 804.698,897.469 805.929,897.469 807.159,897.469 808.39,897.469 809.62,897.469 810.851,897.469 812.082,897.469 813.312,897.469 814.543,897.469 815.773,897.469 817.004,897.469 818.234,897.469 819.465,816.34 820.696,816.34 821.926,816.34 823.157,816.34 824.387,816.34 825.618,816.34 826.848,816.34 828.079,816.34 829.31,816.34 830.54,816.34 831.771,816.34 833.001,816.34 834.232,816.34 835.462,816.34 836.693,816.34 837.924,816.34 839.154,816.34 840.385,816.34 841.615,816.34 842.846,816.34 844.076,816.34 845.307,816.34 846.538,816.34 847.768,816.34 848.999,816.34 850.229,816.34 851.46,816.34 852.69,816.34 853.921,816.34 855.152,816.34 856.382,816.34 857.613,816.34 858.843,816.34 860.074,816.34 861.304,816.34 862.535,816.34 863.766,816.34 864.996,816.34 866.227,816.34 867.457,816.34 868.688,816.34 869.918,816.34 871.149,816.34 872.38,816.34 873.61,816.34 874.841,816.34 876.071,816.34 877.302,816.34 878.532,816.34 879.763,816.34 880.993,816.34 882.224,816.34 883.455,816.34 884.685,816.34 885.916,816.34 887.146,816.34 888.377,816.34 889.607,816.34 890.838,816.34 892.069,816.34 893.299,816.34 894.53,816.34 895.76,816.34 896.991,816.34 898.221,816.34 899.452,735.212 900.683,735.212 901.913,735.212 903.144,735.212 904.374,735.212 905.605,735.212 906.835,735.212 908.066,735.212 909.297,735.212 910.527,735.212 911.758,735.212 912.988,735.212 914.219,735.212 915.449,735.212 916.68,735.212 917.911,735.212 919.141,735.212 920.372,735.212 921.602,735.212 922.833,735.212 924.063,735.212 925.294,735.212 926.525,735.212 927.755,735.212 928.986,735.212 930.216,735.212 931.447,735.212 932.677,735.212 933.908,735.212 935.139,735.212 936.369,735.212 937.6,735.212 938.83,735.212 940.061,735.212 941.291,735.212 942.522,735.212 943.753,735.212 944.983,735.212 946.214,735.212 947.444,735.212 948.675,735.212 949.905,735.212 951.136,735.212 952.367,735.212 953.597,735.212 954.828,735.212 956.058,735.212 957.289,735.212 958.519,735.212 959.75,735.212 960.981,735.212 962.211,735.212 963.442,735.212 964.672,735.212 965.903,735.212 967.133,735.212 968.364,735.212 969.595,735.212 970.825,735.212 972.056,735.212 973.286,735.212 974.517,735.212 975.747,735.212 976.978,735.212 978.209,735.212 979.439,735.212 980.67,735.212 981.9,735.212 983.131,735.212 984.361,735.212 985.592,735.212 986.823,735.212 988.053,735.212 989.284,735.212 990.514,735.212 991.745,735.212 992.975,735.212 994.206,735.212 995.437,735.212 996.667,735.212 997.898,735.212 999.128,735.212 1000.36,735.212 1001.59,735.212 1002.82,735.212 1004.05,735.212 1005.28,735.212 1006.51,735.212 1007.74,735.212 1008.97,735.212 1010.2,735.212 1011.43,735.212 1012.66,735.212 1013.9,735.212 1015.13,735.212 1016.36,735.212 1017.59,735.212 1018.82,735.212 1020.05,735.212 1021.28,735.212 1022.51,735.212 1023.74,735.212 1024.97,735.212 1026.2,735.212 1027.43,735.212 1028.66,735.212 1029.89,735.212 1031.12,735.212 1032.35,735.212 1033.58,735.212 1034.81,735.212 1036.05,735.212 1037.28,735.212 1038.51,735.212 1039.74,735.212 1040.97,735.212 1042.2,735.212 1043.43,735.212 1044.66,735.212 1045.89,735.212 1047.12,735.212 1048.35,735.212 1049.58,735.212 1050.81,735.212 1052.04,735.212 1053.27,735.212 1054.5,735.212 1055.73,735.212 1056.97,735.212 1058.2,735.212 1059.43,735.212 1060.66,735.212 1061.89,735.212 1063.12,735.212 1064.35,735.212 1065.58,735.212 1066.81,735.212 1068.04,735.212 1069.27,735.212 1070.5,735.212 1071.73,735.212 1072.96,735.212 1074.19,735.212 1075.42,735.212 1076.65,735.212 1077.88,735.212 1079.12,735.212 1080.35,735.212 1081.58,735.212 1082.81,735.212 1084.04,735.212 1085.27,735.212 1086.5,735.212 1087.73,735.212 1088.96,735.212 1090.19,735.212 1091.42,735.212 1092.65,735.212 1093.88,735.212 1095.11,735.212 1096.34,735.212 1097.57,735.212 1098.8,735.212 1100.04,735.212 1101.27,735.212 1102.5,735.212 1103.73,735.212 1104.96,735.212 1106.19,735.212 1107.42,735.212 1108.65,735.212 1109.88,735.212 1111.11,735.212 1112.34,735.212 1113.57,735.212 1114.8,654.084 1116.03,654.084 1117.26,654.084 1118.49,654.084 1119.72,654.084 1120.95,654.084 1122.19,654.084 1123.42,654.084 1124.65,654.084 1125.88,654.084 1127.11,654.084 1128.34,654.084 1129.57,654.084 1130.8,654.084 1132.03,654.084 1133.26,654.084 1134.49,654.084 1135.72,654.084 1136.95,654.084 1138.18,654.084 1139.41,654.084 1140.64,654.084 1141.87,654.084 1143.11,654.084 1144.34,654.084 1145.57,654.084 1146.8,654.084 1148.03,654.084 1149.26,654.084 1150.49,654.084 1151.72,654.084 1152.95,654.084 1154.18,654.084 1155.41,654.084 1156.64,654.084 1157.87,654.084 1159.1,654.084 1160.33,654.084 1161.56,654.084 1162.79,654.084 1164.02,654.084 1165.26,654.084 1166.49,654.084 1167.72,654.084 1168.95,572.955 1170.18,572.955 1171.41,572.955 1172.64,572.955 1173.87,572.955 1175.1,572.955 1176.33,572.955 1177.56,572.955 1178.79,572.955 1180.02,572.955 1181.25,572.955 1182.48,572.955 1183.71,572.955 1184.94,572.955 1186.17,572.955 1187.41,572.955 1188.64,572.955 1189.87,572.955 1191.1,572.955 1192.33,572.955 1193.56,572.955 1194.79,572.955 1196.02,572.955 1197.25,572.955 1198.48,572.955 1199.71,572.955 1200.94,572.955 1202.17,572.955 1203.4,572.955 1204.63,572.955 1205.86,572.955 1207.09,572.955 1208.33,572.955 1209.56,572.955 1210.79,572.955 1212.02,572.955 1213.25,572.955 1214.48,572.955 1215.71,572.955 1216.94,572.955 1218.17,572.955 1219.4,572.955 1220.63,572.955 1221.86,572.955 1223.09,572.955 1224.32,572.955 1225.55,572.955 1226.78,572.955 1228.01,572.955 1229.24,572.955 1230.48,572.955 1231.71,572.955 1232.94,572.955 1234.17,572.955 1235.4,572.955 1236.63,572.955 1237.86,572.955 1239.09,572.955 1240.32,572.955 1241.55,572.955 1242.78,572.955 1244.01,572.955 1245.24,572.955 1246.47,572.955 1247.7,572.955 1248.93,572.955 1250.16,572.955 1251.4,572.955 1252.63,572.955 1253.86,572.955 1255.09,572.955 1256.32,572.955 1257.55,572.955 1258.78,572.955 1260.01,572.955 1261.24,572.955 1262.47,572.955 1263.7,572.955 1264.93,572.955 1266.16,572.955 1267.39,572.955 1268.62,572.955 1269.85,572.955 1271.08,572.955 1272.31,572.955 1273.55,572.955 1274.78,572.955 1276.01,572.955 1277.24,572.955 1278.47,572.955 1279.7,572.955 1280.93,572.955 1282.16,572.955 1283.39,572.955 1284.62,572.955 1285.85,572.955 1287.08,572.955 1288.31,491.827 1289.54,491.827 1290.77,491.827 1292,491.827 1293.23,491.827 1294.47,491.827 1295.7,491.827 1296.93,491.827 1298.16,491.827 1299.39,491.827 1300.62,491.827 1301.85,491.827 1303.08,491.827 1304.31,491.827 1305.54,491.827 1306.77,491.827 1308,491.827 1309.23,491.827 1310.46,491.827 1311.69,491.827 1312.92,491.827 1314.15,491.827 1315.38,491.827 1316.62,491.827 1317.85,491.827 1319.08,491.827 1320.31,491.827 1321.54,491.827 1322.77,491.827 1324,491.827 1325.23,491.827 1326.46,491.827 1327.69,491.827 1328.92,491.827 1330.15,491.827 1331.38,491.827 1332.61,491.827 1333.84,491.827 1335.07,491.827 1336.3,491.827 1337.54,491.827 1338.77,491.827 1340,491.827 1341.23,491.827 1342.46,491.827 1343.69,491.827 1344.92,491.827 1346.15,491.827 1347.38,491.827 1348.61,491.827 1349.84,491.827 1351.07,491.827 1352.3,491.827 1353.53,491.827 1354.76,491.827 1355.99,491.827 1357.22,491.827 1358.45,491.827 1359.69,491.827 1360.92,491.827 1362.15,491.827 1363.38,491.827 1364.61,491.827 1365.84,491.827 1367.07,491.827 1368.3,491.827 1369.53,491.827 1370.76,491.827 1371.99,491.827 1373.22,491.827 1374.45,491.827 1375.68,491.827 1376.91,491.827 1378.14,491.827 1379.37,491.827 1380.61,491.827 1381.84,491.827 1383.07,491.827 1384.3,491.827 1385.53,491.827 1386.76,491.827 1387.99,491.827 1389.22,491.827 1390.45,491.827 1391.68,491.827 1392.91,491.827 1394.14,491.827 1395.37,491.827 1396.6,491.827 1397.83,491.827 1399.06,491.827 1400.29,491.827 1401.52,491.827 1402.76,491.827 1403.99,491.827 1405.22,491.827 1406.45,491.827 1407.68,491.827 1408.91,491.827 1410.14,491.827 1411.37,491.827 1412.6,491.827 1413.83,491.827 1415.06,491.827 1416.29,491.827 1417.52,491.827 1418.75,491.827 1419.98,491.827 1421.21,491.827 1422.44,491.827 1423.68,491.827 1424.91,491.827 1426.14,491.827 1427.37,491.827 1428.6,491.827 1429.83,491.827 1431.06,491.827 1432.29,491.827 1433.52,491.827 1434.75,491.827 1435.98,491.827 1437.21,491.827 1438.44,491.827 1439.67,491.827 1440.9,491.827 1442.13,491.827 1443.36,491.827 1444.59,491.827 1445.83,491.827 1447.06,491.827 1448.29,491.827 1449.52,491.827 1450.75,491.827 1451.98,491.827 1453.21,491.827 1454.44,491.827 1455.67,491.827 1456.9,491.827 1458.13,491.827 1459.36,491.827 1460.59,491.827 1461.82,491.827 1463.05,491.827 1464.28,491.827 1465.51,491.827 1466.75,491.827 1467.98,491.827 1469.21,491.827 1470.44,491.827 1471.67,491.827 1472.9,491.827 1474.13,491.827 1475.36,491.827 1476.59,491.827 1477.82,491.827 1479.05,491.827 1480.28,491.827 1481.51,491.827 1482.74,491.827 1483.97,491.827 1485.2,491.827 1486.43,491.827 1487.66,491.827 1488.9,491.827 1490.13,491.827 1491.36,491.827 1492.59,491.827 1493.82,491.827 1495.05,491.827 1496.28,491.827 1497.51,491.827 1498.74,491.827 1499.97,491.827 1501.2,491.827 1502.43,491.827 1503.66,491.827 1504.89,491.827 1506.12,491.827 1507.35,491.827 1508.58,491.827 1509.82,491.827 1511.05,491.827 1512.28,491.827 1513.51,491.827 1514.74,491.827 1515.97,491.827 1517.2,491.827 1518.43,491.827 1519.66,491.827 1520.89,491.827 1522.12,491.827 1523.35,491.827 1524.58,491.827 1525.81,491.827 1527.04,491.827 1528.27,491.827 1529.5,491.827 1530.73,491.827 1531.97,491.827 1533.2,491.827 1534.43,491.827 1535.66,491.827 1536.89,491.827 1538.12,491.827 1539.35,491.827 1540.58,491.827 1541.81,491.827 1543.04,491.827 1544.27,491.827 1545.5,491.827 1546.73,491.827 1547.96,491.827 1549.19,491.827 1550.42,491.827 1551.65,491.827 1552.89,491.827 1554.12,491.827 1555.35,491.827 1556.58,491.827 1557.81,491.827 1559.04,491.827 1560.27,491.827 1561.5,491.827 1562.73,491.827 1563.96,491.827 1565.19,491.827 1566.42,491.827 1567.65,491.827 1568.88,491.827 1570.11,491.827 1571.34,491.827 1572.57,491.827 1573.8,491.827 1575.04,491.827 1576.27,491.827 1577.5,491.827 1578.73,491.827 1579.96,491.827 1581.19,491.827 1582.42,491.827 1583.65,491.827 1584.88,491.827 1586.11,491.827 1587.34,491.827 1588.57,491.827 1589.8,491.827 1591.03,491.827 1592.26,491.827 1593.49,491.827 1594.72,491.827 1595.96,491.827 1597.19,491.827 1598.42,491.827 1599.65,491.827 1600.88,491.827 1602.11,491.827 1603.34,491.827 1604.57,491.827 1605.8,491.827 1607.03,491.827 1608.26,491.827 1609.49,491.827 1610.72,491.827 1611.95,491.827 1613.18,491.827 1614.41,491.827 1615.64,491.827 1616.87,491.827 1618.11,491.827 1619.34,491.827 1620.57,491.827 1621.8,491.827 1623.03,491.827 1624.26,491.827 1625.49,491.827 1626.72,491.827 1627.95,491.827 1629.18,491.827 1630.41,491.827 1631.64,491.827 1632.87,491.827 1634.1,491.827 1635.33,491.827 1636.56,491.827 1637.79,491.827 1639.02,491.827 1640.26,491.827 1641.49,491.827 1642.72,491.827 1643.95,491.827 1645.18,491.827 1646.41,491.827 1647.64,491.827 1648.87,491.827 1650.1,491.827 1651.33,491.827 1652.56,491.827 1653.79,491.827 1655.02,491.827 1656.25,491.827 1657.48,491.827 1658.71,491.827 1659.94,491.827 1661.18,491.827 1662.41,491.827 1663.64,491.827 1664.87,491.827 1666.1,491.827 1667.33,491.827 1668.56,491.827 1669.79,491.827 1671.02,491.827 1672.25,491.827 1673.48,491.827 1674.71,491.827 1675.94,491.827 1677.17,491.827 1678.4,491.827 1679.63,491.827 1680.86,491.827 1682.09,491.827 1683.33,491.827 1684.56,491.827 1685.79,491.827 1687.02,491.827 1688.25,491.827 1689.48,491.827 1690.71,491.827 1691.94,491.827 1693.17,491.827 1694.4,491.827 1695.63,491.827 1696.86,491.827 1698.09,491.827 1699.32,491.827 1700.55,491.827 1701.78,491.827 1703.01,491.827 1704.25,491.827 1705.48,491.827 1706.71,491.827 1707.94,491.827 1709.17,491.827 1710.4,491.827 1711.63,491.827 1712.86,491.827 1714.09,491.827 1715.32,491.827 1716.55,491.827 1717.78,491.827 1719.01,491.827 1720.24,491.827 1721.47,491.827 1722.7,491.827 1723.93,491.827 1725.16,491.827 1726.4,491.827 1727.63,491.827 1728.86,491.827 1730.09,491.827 1731.32,491.827 1732.55,491.827 1733.78,491.827 1735.01,491.827 1736.24,491.827 1737.47,491.827 1738.7,491.827 1739.93,491.827 1741.16,491.827 1742.39,491.827 1743.62,491.827 1744.85,491.827 1746.08,491.827 1747.32,491.827 1748.55,491.827 1749.78,491.827 1751.01,491.827 1752.24,491.827 1753.47,491.827 1754.7,491.827 1755.93,491.827 1757.16,491.827 1758.39,491.827 1759.62,491.827 1760.85,491.827 1762.08,491.827 1763.31,491.827 1764.54,491.827 1765.77,491.827 1767,491.827 1768.23,491.827 1769.47,491.827 1770.7,491.827 1771.93,491.827 1773.16,491.827 1774.39,491.827 1775.62,491.827 1776.85,491.827 1778.08,491.827 1779.31,491.827 1780.54,491.827 1781.77,491.827 1783,491.827 1784.23,491.827 1785.46,491.827 1786.69,491.827 1787.92,491.827 1789.15,491.827 1790.39,491.827 1791.62,491.827 1792.85,491.827 1794.08,491.827 1795.31,491.827 1796.54,491.827 1797.77,491.827 1799,491.827 1800.23,491.827 1801.46,491.827 1802.69,491.827 1803.92,491.827 1805.15,491.827 1806.38,491.827 1807.61,491.827 1808.84,491.827 1810.07,491.827 1811.3,491.827 1812.54,491.827 1813.77,491.827 1815,491.827 1816.23,491.827 1817.46,491.827 1818.69,491.827 1819.92,491.827 1821.15,491.827 1822.38,491.827 1823.61,491.827 1824.84,491.827 1826.07,491.827 1827.3,491.827 1828.53,491.827 1829.76,491.827 1830.99,491.827 1832.22,491.827 1833.46,491.827 1834.69,491.827 1835.92,491.827 1837.15,491.827 1838.38,491.827 1839.61,491.827 1840.84,491.827 1842.07,491.827 1843.3,491.827 1844.53,491.827 1845.76,491.827 1846.99,491.827 1848.22,491.827 1849.45,491.827 1850.68,491.827 1851.91,491.827 1853.14,491.827 1854.37,491.827 1855.61,491.827 1856.84,491.827 1858.07,491.827 1859.3,491.827 1860.53,491.827 1861.76,491.827 1862.99,491.827 1864.22,491.827 1865.45,491.827 1866.68,491.827 1867.91,491.827 1869.14,491.827 1870.37,491.827 1871.6,491.827 1872.83,410.699 1874.06,410.699 1875.29,410.699 1876.53,410.699 1877.76,410.699 1878.99,410.699 1880.22,410.699 1881.45,410.699 1882.68,410.699 1883.91,410.699 1885.14,410.699 1886.37,410.699 1887.6,410.699 1888.83,410.699 1890.06,410.699 1891.29,410.699 1892.52,410.699 1893.75,410.699 1894.98,410.699 1896.21,410.699 1897.44,410.699 1898.68,410.699 1899.91,410.699 1901.14,410.699 1902.37,410.699 1903.6,410.699 1904.83,410.699 1906.06,410.699 1907.29,410.699 1908.52,410.699 1909.75,410.699 1910.98,410.699 1912.21,410.699 1913.44,410.699 1914.67,410.699 1915.9,410.699 1917.13,410.699 1918.36,410.699 1919.6,410.699 1920.83,410.699 1922.06,410.699 1923.29,410.699 1924.52,410.699 1925.75,410.699 1926.98,410.699 1928.21,410.699 1929.44,410.699 1930.67,410.699 1931.9,410.699 1933.13,410.699 1934.36,410.699 1935.59,410.699 1936.82,410.699 1938.05,410.699 1939.28,410.699 1940.51,410.699 1941.75,410.699 1942.98,410.699 1944.21,410.699 1945.44,410.699 1946.67,410.699 1947.9,410.699 1949.13,410.699 1950.36,410.699 1951.59,410.699 1952.82,410.699 1954.05,410.699 1955.28,410.699 1956.51,410.699 1957.74,410.699 1958.97,410.699 1960.2,410.699 1961.43,410.699 1962.67,410.699 1963.9,410.699 1965.13,410.699 1966.36,410.699 1967.59,410.699 1968.82,410.699 1970.05,410.699 1971.28,410.699 1972.51,410.699 1973.74,410.699 1974.97,410.699 1976.2,410.699 1977.43,410.699 1978.66,410.699 1979.89,410.699 1981.12,410.699 1982.35,410.699 1983.58,410.699 1984.82,410.699 1986.05,410.699 1987.28,410.699 1988.51,410.699 1989.74,410.699 1990.97,410.699 1992.2,410.699 1993.43,410.699 1994.66,410.699 1995.89,410.699 1997.12,410.699 1998.35,410.699 1999.58,410.699 2000.81,410.699 2002.04,410.699 2003.27,410.699 2004.5,410.699 2005.74,410.699 2006.97,410.699 2008.2,410.699 2009.43,410.699 2010.66,410.699 2011.89,329.571 2013.12,329.571 2014.35,329.571 2015.58,329.571 2016.81,329.571 2018.04,329.571 2019.27,329.571 2020.5,329.571 2021.73,329.571 2022.96,329.571 2024.19,329.571 2025.42,329.571 2026.65,329.571 2027.89,329.571 2029.12,329.571 2030.35,329.571 2031.58,329.571 2032.81,329.571 2034.04,329.571 2035.27,329.571 2036.5,329.571 2037.73,329.571 2038.96,329.571 2040.19,329.571 2041.42,329.571 2042.65,329.571 2043.88,329.571 2045.11,329.571 2046.34,329.571 2047.57,329.571 2048.8,329.571 2050.04,329.571 2051.27,329.571 2052.5,329.571 2053.73,329.571 2054.96,329.571 2056.19,329.571 2057.42,329.571 2058.65,329.571 2059.88,329.571 2061.11,329.571 2062.34,329.571 2063.57,329.571 2064.8,329.571 2066.03,329.571 2067.26,329.571 2068.49,329.571 2069.72,329.571 2070.96,329.571 2072.19,329.571 2073.42,329.571 2074.65,329.571 2075.88,329.571 2077.11,329.571 2078.34,329.571 2079.57,248.442 2080.8,248.442 2082.03,248.442 2083.26,248.442 2084.49,248.442 2085.72,248.442 2086.95,248.442 2088.18,248.442 2089.41,248.442 2090.64,248.442 2091.87,248.442 2093.11,248.442 2094.34,248.442 2095.57,248.442 2096.8,248.442 2098.03,248.442 2099.26,248.442 2100.49,248.442 2101.72,248.442 2102.95,248.442 2104.18,248.442 2105.41,248.442 2106.64,248.442 2107.87,248.442 2109.1,248.442 2110.33,248.442 2111.56,248.442 2112.79,248.442 2114.03,248.442 2115.26,248.442 2116.49,248.442 2117.72,248.442 2118.95,248.442 2120.18,248.442 2121.41,248.442 2122.64,248.442 2123.87,248.442 2125.1,248.442 2126.33,248.442 2127.56,248.442 2128.79,248.442 2130.02,248.442 2131.25,248.442 2132.48,248.442 2133.71,248.442 2134.94,167.314 2136.18,167.314 2137.41,167.314 2138.64,167.314 2139.87,167.314 2141.1,167.314 2142.33,167.314 2143.56,167.314 2144.79,167.314 2146.02,167.314 2147.25,167.314 2148.48,167.314 2149.71,167.314 2150.94,167.314 2152.17,167.314 2153.4,167.314 2154.63,167.314 2155.86,167.314 2157.1,167.314 2158.33,167.314 2159.56,167.314 2160.79,167.314 2162.02,167.314 2163.25,167.314 2164.48,167.314 2165.71,167.314 2166.94,167.314 2168.17,167.314 2169.4,167.314 2170.63,167.314 2171.86,167.314 2173.09,167.314 2174.32,167.314 2175.55,167.314 2176.78,167.314 2178.01,167.314 2179.25,167.314 2180.48,167.314 2181.71,167.314 2182.94,167.314 2184.17,167.314 2185.4,167.314 2186.63,167.314 2187.86,167.314 2189.09,167.314 2190.32,167.314 2191.55,167.314 2192.78,167.314 2194.01,167.314 2195.24,167.314 2196.47,167.314 2197.7,167.314 2198.93,167.314 2200.17,167.314 2201.4,167.314 2202.63,167.314 2203.86,167.314 2205.09,167.314 2206.32,167.314 2207.55,167.314 2208.78,167.314 2210.01,167.314 2211.24,167.314 2212.47,167.314 2213.7,167.314 2214.93,167.314 2216.16,167.314 2217.39,167.314 2218.62,167.314 2219.85,167.314 2221.08,167.314 2222.32,167.314 2223.55,167.314 2224.78,86.1857 2226.01,86.1857 2227.24,86.1857 2228.47,86.1857 2229.7,86.1857 2230.93,86.1857 2232.16,86.1857 2233.39,86.1857 2234.62,86.1857 2235.85,86.1857 2237.08,86.1857 2238.31,86.1857 2239.54,86.1857 2240.77,86.1857 2242,86.1857 2243.24,86.1857 2244.47,86.1857 2245.7,86.1857 2246.93,86.1857 2248.16,86.1857 2249.39,86.1857 2250.62,86.1857 2251.85,86.1857 2253.08,86.1857 2254.31,86.1857 2255.54,86.1857 2256.77,86.1857 2258,86.1857 2259.23,86.1857 2260.46,86.1857 2261.69,86.1857 2262.92,86.1857 2264.15,86.1857 2265.39,86.1857 2266.62,86.1857 2267.85,86.1857 2269.08,86.1857 2270.31,86.1857 2271.54,86.1857 2272.77,86.1857 2274,86.1857 2275.23,86.1857 2276.46,86.1857 2277.69,86.1857 2278.92,86.1857 2280.15,86.1857 2281.38,86.1857 2282.61,86.1857 2283.84,86.1857 2285.07,86.1857 2286.31,86.1857 2287.54,86.1857 2288.77,86.1857 2290,86.1857 2291.23,86.1857 2292.46,86.1857 2293.69,86.1857 2294.92,86.1857 2296.15,86.1857 2297.38,86.1857 2298.61,86.1857 2299.84,86.1857 2301.07,86.1857 2302.3,86.1857 2303.53,86.1857 2304.76,86.1857 2305.99,86.1857 2307.22,86.1857 2308.46,86.1857 2309.69,86.1857 2310.92,86.1857 2312.15,86.1857 2313.38,86.1857 2314.61,86.1857 2315.84,86.1857 2317.07,86.1857 2318.3,86.1857 2319.53,86.1857 2320.76,86.1857 2321.99,86.1857 2323.22,86.1857 2324.45,86.1857 2325.68,86.1857 2326.91,86.1857 2328.14,86.1857 2329.38,86.1857 2330.61,86.1857 2331.84,86.1857 2333.07,86.1857 2334.3,86.1857 2335.53,86.1857 2336.76,86.1857 2337.99,86.1857 2339.22,86.1857 2340.45,86.1857 2341.68,86.1857 2342.91,86.1857 2344.14,86.1857 2345.37,86.1857 2346.6,86.1857 2347.83,86.1857 2349.06,86.1857 2350.29,86.1857 2351.53,86.1857 2352.76,86.1857 "/>
<path clip-path="url(#clip260)" d="M1975.27 1377.32 L2278.96 1377.32 L2278.96 1273.64 L1975.27 1273.64  Z" fill="#ffffff" fill-rule="evenodd" fill-opacity="1"/>
<polyline clip-path="url(#clip260)" style="stroke:#000000; stroke-linecap:round; stroke-linejoin:round; stroke-width:4; stroke-opacity:1; fill:none" points="1975.27,1377.32 2278.96,1377.32 2278.96,1273.64 1975.27,1273.64 1975.27,1377.32 "/>
<polyline clip-path="url(#clip260)" style="stroke:#009af9; stroke-linecap:round; stroke-linejoin:round; stroke-width:8; stroke-opacity:1; fill:none" points="1999.87,1325.48 2147.45,1325.48 "/>
<path clip-path="url(#clip260)" d="M2172.05 1308.2 L2178.35 1308.2 L2193.67 1337.11 L2193.67 1308.2 L2198.21 1308.2 L2198.21 1342.76 L2191.91 1342.76 L2176.59 1313.84 L2176.59 1342.76 L2172.05 1342.76 L2172.05 1308.2 Z" fill="#000000" fill-rule="nonzero" fill-opacity="1" /><path clip-path="url(#clip260)" d="M2217.56 1306.78 Q2214.46 1312.11 2212.95 1317.32 Q2211.45 1322.52 2211.45 1327.87 Q2211.45 1333.22 2212.95 1338.47 Q2214.48 1343.7 2217.56 1349.01 L2213.86 1349.01 Q2210.38 1343.57 2208.65 1338.31 Q2206.93 1333.06 2206.93 1327.87 Q2206.93 1322.71 2208.65 1317.48 Q2210.36 1312.25 2213.86 1306.78 L2217.56 1306.78 Z" fill="#000000" fill-rule="nonzero" fill-opacity="1" /><path clip-path="url(#clip260)" d="M2230.04 1309.47 L2230.04 1316.83 L2238.81 1316.83 L2238.81 1320.14 L2230.04 1320.14 L2230.04 1334.21 Q2230.04 1337.38 2230.89 1338.29 Q2231.77 1339.19 2234.43 1339.19 L2238.81 1339.19 L2238.81 1342.76 L2234.43 1342.76 Q2229.5 1342.76 2227.63 1340.93 Q2225.75 1339.07 2225.75 1334.21 L2225.75 1320.14 L2222.63 1320.14 L2222.63 1316.83 L2225.75 1316.83 L2225.75 1309.47 L2230.04 1309.47 Z" fill="#000000" fill-rule="nonzero" fill-opacity="1" /><path clip-path="url(#clip260)" d="M2243.74 1306.78 L2247.44 1306.78 Q2250.92 1312.25 2252.63 1317.48 Q2254.36 1322.71 2254.36 1327.87 Q2254.36 1333.06 2252.63 1338.31 Q2250.92 1343.57 2247.44 1349.01 L2243.74 1349.01 Q2246.82 1343.7 2248.32 1338.47 Q2249.85 1333.22 2249.85 1327.87 Q2249.85 1322.52 2248.32 1317.32 Q2246.82 1312.11 2243.74 1306.78 Z" fill="#000000" fill-rule="nonzero" fill-opacity="1" /></svg>
