<?xml version="1.0" encoding="utf-8"?>
<svg xmlns="http://www.w3.org/2000/svg" xmlns:xlink="http://www.w3.org/1999/xlink" width="600" height="400" viewBox="0 0 2400 1600">
<defs>
  <clipPath id="clip910">
    <rect x="0" y="0" width="2400" height="1600"/>
  </clipPath>
</defs>
<path clip-path="url(#clip910)" d="M0 1600 L2400 1600 L2400 0 L0 0  Z" fill="#ffffff" fill-rule="evenodd" fill-opacity="1"/>
<defs>
  <clipPath id="clip911">
    <rect x="155" y="47" width="2198" height="1377"/>
  </clipPath>
</defs>
<path clip-path="url(#clip910)" d="M155.765 1423.18 L2352.76 1423.18 L2352.76 47.2441 L155.765 47.2441  Z" fill="#ffffff" fill-rule="evenodd" fill-opacity="1"/>
<polyline clip-path="url(#clip911)" style="stroke:#000000; stroke-linecap:round; stroke-linejoin:round; stroke-width:2; stroke-opacity:0.1; fill:none" points="155.765,1423.18 155.765,47.2441 "/>
<polyline clip-path="url(#clip911)" style="stroke:#000000; stroke-linecap:round; stroke-linejoin:round; stroke-width:2; stroke-opacity:0.1; fill:none" points="595.163,1423.18 595.163,47.2441 "/>
<polyline clip-path="url(#clip911)" style="stroke:#000000; stroke-linecap:round; stroke-linejoin:round; stroke-width:2; stroke-opacity:0.1; fill:none" points="1034.56,1423.18 1034.56,47.2441 "/>
<polyline clip-path="url(#clip911)" style="stroke:#000000; stroke-linecap:round; stroke-linejoin:round; stroke-width:2; stroke-opacity:0.1; fill:none" points="1473.96,1423.18 1473.96,47.2441 "/>
<polyline clip-path="url(#clip911)" style="stroke:#000000; stroke-linecap:round; stroke-linejoin:round; stroke-width:2; stroke-opacity:0.1; fill:none" points="1913.36,1423.18 1913.36,47.2441 "/>
<polyline clip-path="url(#clip911)" style="stroke:#000000; stroke-linecap:round; stroke-linejoin:round; stroke-width:2; stroke-opacity:0.1; fill:none" points="2352.76,1423.18 2352.76,47.2441 "/>
<polyline clip-path="url(#clip911)" style="stroke:#000000; stroke-linecap:round; stroke-linejoin:round; stroke-width:2; stroke-opacity:0.1; fill:none" points="155.765,1160.22 2352.76,1160.22 "/>
<polyline clip-path="url(#clip911)" style="stroke:#000000; stroke-linecap:round; stroke-linejoin:round; stroke-width:2; stroke-opacity:0.1; fill:none" points="155.765,861.071 2352.76,861.071 "/>
<polyline clip-path="url(#clip911)" style="stroke:#000000; stroke-linecap:round; stroke-linejoin:round; stroke-width:2; stroke-opacity:0.1; fill:none" points="155.765,561.921 2352.76,561.921 "/>
<polyline clip-path="url(#clip911)" style="stroke:#000000; stroke-linecap:round; stroke-linejoin:round; stroke-width:2; stroke-opacity:0.1; fill:none" points="155.765,262.77 2352.76,262.77 "/>
<polyline clip-path="url(#clip910)" style="stroke:#000000; stroke-linecap:round; stroke-linejoin:round; stroke-width:4; stroke-opacity:1; fill:none" points="155.765,1423.18 2352.76,1423.18 "/>
<polyline clip-path="url(#clip910)" style="stroke:#000000; stroke-linecap:round; stroke-linejoin:round; stroke-width:4; stroke-opacity:1; fill:none" points="155.765,1423.18 155.765,1404.28 "/>
<polyline clip-path="url(#clip910)" style="stroke:#000000; stroke-linecap:round; stroke-linejoin:round; stroke-width:4; stroke-opacity:1; fill:none" points="595.163,1423.18 595.163,1404.28 "/>
<polyline clip-path="url(#clip910)" style="stroke:#000000; stroke-linecap:round; stroke-linejoin:round; stroke-width:4; stroke-opacity:1; fill:none" points="1034.56,1423.18 1034.56,1404.28 "/>
<polyline clip-path="url(#clip910)" style="stroke:#000000; stroke-linecap:round; stroke-linejoin:round; stroke-width:4; stroke-opacity:1; fill:none" points="1473.96,1423.18 1473.96,1404.28 "/>
<polyline clip-path="url(#clip910)" style="stroke:#000000; stroke-linecap:round; stroke-linejoin:round; stroke-width:4; stroke-opacity:1; fill:none" points="1913.36,1423.18 1913.36,1404.28 "/>
<polyline clip-path="url(#clip910)" style="stroke:#000000; stroke-linecap:round; stroke-linejoin:round; stroke-width:4; stroke-opacity:1; fill:none" points="2352.76,1423.18 2352.76,1404.28 "/>
<path clip-path="url(#clip910)" d="M155.765 1454.1 Q152.154 1454.1 150.325 1457.66 Q148.52 1461.2 148.52 1468.33 Q148.52 1475.44 150.325 1479.01 Q152.154 1482.55 155.765 1482.55 Q159.399 1482.55 161.205 1479.01 Q163.033 1475.44 163.033 1468.33 Q163.033 1461.2 161.205 1457.66 Q159.399 1454.1 155.765 1454.1 M155.765 1450.39 Q161.575 1450.39 164.631 1455 Q167.709 1459.58 167.709 1468.33 Q167.709 1477.06 164.631 1481.67 Q161.575 1486.25 155.765 1486.25 Q149.955 1486.25 146.876 1481.67 Q143.821 1477.06 143.821 1468.33 Q143.821 1459.58 146.876 1455 Q149.955 1450.39 155.765 1450.39 Z" fill="#000000" fill-rule="nonzero" fill-opacity="1" /><path clip-path="url(#clip910)" d="M589.816 1481.64 L606.135 1481.64 L606.135 1485.58 L584.191 1485.58 L584.191 1481.64 Q586.853 1478.89 591.436 1474.26 Q596.043 1469.61 597.223 1468.27 Q599.469 1465.74 600.348 1464.01 Q601.251 1462.25 601.251 1460.56 Q601.251 1457.8 599.307 1456.07 Q597.385 1454.33 594.283 1454.33 Q592.084 1454.33 589.631 1455.09 Q587.2 1455.86 584.422 1457.41 L584.422 1452.69 Q587.246 1451.55 589.7 1450.97 Q592.154 1450.39 594.191 1450.39 Q599.561 1450.39 602.756 1453.08 Q605.95 1455.77 605.95 1460.26 Q605.95 1462.39 605.14 1464.31 Q604.353 1466.2 602.246 1468.8 Q601.668 1469.47 598.566 1472.69 Q595.464 1475.88 589.816 1481.64 Z" fill="#000000" fill-rule="nonzero" fill-opacity="1" /><path clip-path="url(#clip910)" d="M1037.57 1455.09 L1025.77 1473.54 L1037.57 1473.54 L1037.57 1455.09 M1036.34 1451.02 L1042.22 1451.02 L1042.22 1473.54 L1047.15 1473.54 L1047.15 1477.43 L1042.22 1477.43 L1042.22 1485.58 L1037.57 1485.58 L1037.57 1477.43 L1021.97 1477.43 L1021.97 1472.92 L1036.34 1451.02 Z" fill="#000000" fill-rule="nonzero" fill-opacity="1" /><path clip-path="url(#clip910)" d="M1474.36 1466.44 Q1471.22 1466.44 1469.36 1468.59 Q1467.54 1470.74 1467.54 1474.49 Q1467.54 1478.22 1469.36 1480.39 Q1471.22 1482.55 1474.36 1482.55 Q1477.51 1482.55 1479.34 1480.39 Q1481.19 1478.22 1481.19 1474.49 Q1481.19 1470.74 1479.34 1468.59 Q1477.51 1466.44 1474.36 1466.44 M1483.65 1451.78 L1483.65 1456.04 Q1481.89 1455.21 1480.08 1454.77 Q1478.3 1454.33 1476.54 1454.33 Q1471.91 1454.33 1469.46 1457.45 Q1467.03 1460.58 1466.68 1466.9 Q1468.05 1464.89 1470.11 1463.82 Q1472.17 1462.73 1474.64 1462.73 Q1479.85 1462.73 1482.86 1465.9 Q1485.89 1469.05 1485.89 1474.49 Q1485.89 1479.82 1482.74 1483.03 Q1479.6 1486.25 1474.36 1486.25 Q1468.37 1486.25 1465.2 1481.67 Q1462.03 1477.06 1462.03 1468.33 Q1462.03 1460.14 1465.92 1455.28 Q1469.8 1450.39 1476.36 1450.39 Q1478.11 1450.39 1479.9 1450.74 Q1481.7 1451.09 1483.65 1451.78 Z" fill="#000000" fill-rule="nonzero" fill-opacity="1" /><path clip-path="url(#clip910)" d="M1913.36 1469.17 Q1910.02 1469.17 1908.1 1470.95 Q1906.2 1472.73 1906.2 1475.86 Q1906.2 1478.98 1908.1 1480.77 Q1910.02 1482.55 1913.36 1482.55 Q1916.69 1482.55 1918.61 1480.77 Q1920.53 1478.96 1920.53 1475.86 Q1920.53 1472.73 1918.61 1470.95 Q1916.71 1469.17 1913.36 1469.17 M1908.68 1467.18 Q1905.67 1466.44 1903.98 1464.38 Q1902.32 1462.32 1902.32 1459.35 Q1902.32 1455.21 1905.26 1452.8 Q1908.22 1450.39 1913.36 1450.39 Q1918.52 1450.39 1921.46 1452.8 Q1924.4 1455.21 1924.4 1459.35 Q1924.4 1462.32 1922.71 1464.38 Q1921.04 1466.44 1918.06 1467.18 Q1921.44 1467.96 1923.31 1470.26 Q1925.21 1472.55 1925.21 1475.86 Q1925.21 1480.88 1922.13 1483.57 Q1919.08 1486.25 1913.36 1486.25 Q1907.64 1486.25 1904.56 1483.57 Q1901.51 1480.88 1901.51 1475.86 Q1901.51 1472.55 1903.4 1470.26 Q1905.3 1467.96 1908.68 1467.18 M1906.97 1459.79 Q1906.97 1462.48 1908.64 1463.98 Q1910.33 1465.49 1913.36 1465.49 Q1916.37 1465.49 1918.06 1463.98 Q1919.77 1462.48 1919.77 1459.79 Q1919.77 1457.11 1918.06 1455.6 Q1916.37 1454.1 1913.36 1454.1 Q1910.33 1454.1 1908.64 1455.6 Q1906.97 1457.11 1906.97 1459.79 Z" fill="#000000" fill-rule="nonzero" fill-opacity="1" /><path clip-path="url(#clip910)" d="M2327.44 1481.64 L2335.08 1481.64 L2335.08 1455.28 L2326.77 1456.95 L2326.77 1452.69 L2335.04 1451.02 L2339.71 1451.02 L2339.71 1481.64 L2347.35 1481.64 L2347.35 1485.58 L2327.44 1485.58 L2327.44 1481.64 Z" fill="#000000" fill-rule="nonzero" fill-opacity="1" /><path clip-path="url(#clip910)" d="M2366.8 1454.1 Q2363.18 1454.1 2361.36 1457.66 Q2359.55 1461.2 2359.55 1468.33 Q2359.55 1475.44 2361.36 1479.01 Q2363.18 1482.55 2366.8 1482.55 Q2370.43 1482.55 2372.23 1479.01 Q2374.06 1475.44 2374.06 1468.33 Q2374.06 1461.2 2372.23 1457.66 Q2370.43 1454.1 2366.8 1454.1 M2366.8 1450.39 Q2372.61 1450.39 2375.66 1455 Q2378.74 1459.58 2378.74 1468.33 Q2378.74 1477.06 2375.66 1481.67 Q2372.61 1486.25 2366.8 1486.25 Q2360.99 1486.25 2357.91 1481.67 Q2354.85 1477.06 2354.85 1468.33 Q2354.85 1459.58 2357.91 1455 Q2360.99 1450.39 2366.8 1450.39 Z" fill="#000000" fill-rule="nonzero" fill-opacity="1" /><path clip-path="url(#clip910)" d="M1253.32 1522.27 L1253.32 1532.4 L1265.38 1532.4 L1265.38 1536.95 L1253.32 1536.95 L1253.32 1556.3 Q1253.32 1560.66 1254.5 1561.9 Q1255.71 1563.14 1259.37 1563.14 L1265.38 1563.14 L1265.38 1568.04 L1259.37 1568.04 Q1252.59 1568.04 1250.01 1565.53 Q1247.43 1562.98 1247.43 1556.3 L1247.43 1536.95 L1243.14 1536.95 L1243.14 1532.4 L1247.43 1532.4 L1247.43 1522.27 L1253.32 1522.27 Z" fill="#000000" fill-rule="nonzero" fill-opacity="1" /><polyline clip-path="url(#clip910)" style="stroke:#000000; stroke-linecap:round; stroke-linejoin:round; stroke-width:4; stroke-opacity:1; fill:none" points="155.765,1423.18 155.765,47.2441 "/>
<polyline clip-path="url(#clip910)" style="stroke:#000000; stroke-linecap:round; stroke-linejoin:round; stroke-width:4; stroke-opacity:1; fill:none" points="155.765,1160.22 174.663,1160.22 "/>
<polyline clip-path="url(#clip910)" style="stroke:#000000; stroke-linecap:round; stroke-linejoin:round; stroke-width:4; stroke-opacity:1; fill:none" points="155.765,861.071 174.663,861.071 "/>
<polyline clip-path="url(#clip910)" style="stroke:#000000; stroke-linecap:round; stroke-linejoin:round; stroke-width:4; stroke-opacity:1; fill:none" points="155.765,561.921 174.663,561.921 "/>
<polyline clip-path="url(#clip910)" style="stroke:#000000; stroke-linecap:round; stroke-linejoin:round; stroke-width:4; stroke-opacity:1; fill:none" points="155.765,262.77 174.663,262.77 "/>
<path clip-path="url(#clip910)" d="M63.5847 1146.02 Q59.9736 1146.02 58.1449 1149.59 Q56.3393 1153.13 56.3393 1160.26 Q56.3393 1167.36 58.1449 1170.93 Q59.9736 1174.47 63.5847 1174.47 Q67.2189 1174.47 69.0244 1170.93 Q70.8531 1167.36 70.8531 1160.26 Q70.8531 1153.13 69.0244 1149.59 Q67.2189 1146.02 63.5847 1146.02 M63.5847 1142.32 Q69.3948 1142.32 72.4503 1146.92 Q75.529 1151.51 75.529 1160.26 Q75.529 1168.98 72.4503 1173.59 Q69.3948 1178.17 63.5847 1178.17 Q57.7745 1178.17 54.6958 1173.59 Q51.6403 1168.98 51.6403 1160.26 Q51.6403 1151.51 54.6958 1146.92 Q57.7745 1142.32 63.5847 1142.32 Z" fill="#000000" fill-rule="nonzero" fill-opacity="1" /><path clip-path="url(#clip910)" d="M83.7466 1171.62 L88.6308 1171.62 L88.6308 1177.5 L83.7466 1177.5 L83.7466 1171.62 Z" fill="#000000" fill-rule="nonzero" fill-opacity="1" /><path clip-path="url(#clip910)" d="M98.8622 1142.94 L117.219 1142.94 L117.219 1146.88 L103.145 1146.88 L103.145 1155.35 Q104.163 1155 105.182 1154.84 Q106.2 1154.66 107.219 1154.66 Q113.006 1154.66 116.385 1157.83 Q119.765 1161 119.765 1166.41 Q119.765 1171.99 116.293 1175.09 Q112.82 1178.17 106.501 1178.17 Q104.325 1178.17 102.057 1177.8 Q99.8113 1177.43 97.4039 1176.69 L97.4039 1171.99 Q99.4872 1173.13 101.709 1173.68 Q103.932 1174.24 106.408 1174.24 Q110.413 1174.24 112.751 1172.13 Q115.089 1170.03 115.089 1166.41 Q115.089 1162.8 112.751 1160.7 Q110.413 1158.59 106.408 1158.59 Q104.534 1158.59 102.659 1159.01 Q100.807 1159.42 98.8622 1160.3 L98.8622 1142.94 Z" fill="#000000" fill-rule="nonzero" fill-opacity="1" /><path clip-path="url(#clip910)" d="M53.3995 874.416 L61.0384 874.416 L61.0384 848.051 L52.7282 849.717 L52.7282 845.458 L60.9921 843.791 L65.668 843.791 L65.668 874.416 L73.3068 874.416 L73.3068 878.351 L53.3995 878.351 L53.3995 874.416 Z" fill="#000000" fill-rule="nonzero" fill-opacity="1" /><path clip-path="url(#clip910)" d="M82.7512 872.472 L87.6354 872.472 L87.6354 878.351 L82.7512 878.351 L82.7512 872.472 Z" fill="#000000" fill-rule="nonzero" fill-opacity="1" /><path clip-path="url(#clip910)" d="M107.821 846.87 Q104.209 846.87 102.381 850.435 Q100.575 853.977 100.575 861.106 Q100.575 868.213 102.381 871.777 Q104.209 875.319 107.821 875.319 Q111.455 875.319 113.26 871.777 Q115.089 868.213 115.089 861.106 Q115.089 853.977 113.26 850.435 Q111.455 846.87 107.821 846.87 M107.821 843.166 Q113.631 843.166 116.686 847.773 Q119.765 852.356 119.765 861.106 Q119.765 869.833 116.686 874.439 Q113.631 879.023 107.821 879.023 Q102.01 879.023 98.9317 874.439 Q95.8761 869.833 95.8761 861.106 Q95.8761 852.356 98.9317 847.773 Q102.01 843.166 107.821 843.166 Z" fill="#000000" fill-rule="nonzero" fill-opacity="1" /><path clip-path="url(#clip910)" d="M54.3949 575.266 L62.0337 575.266 L62.0337 548.9 L53.7236 550.567 L53.7236 546.307 L61.9874 544.641 L66.6633 544.641 L66.6633 575.266 L74.3022 575.266 L74.3022 579.201 L54.3949 579.201 L54.3949 575.266 Z" fill="#000000" fill-rule="nonzero" fill-opacity="1" /><path clip-path="url(#clip910)" d="M83.7466 573.321 L88.6308 573.321 L88.6308 579.201 L83.7466 579.201 L83.7466 573.321 Z" fill="#000000" fill-rule="nonzero" fill-opacity="1" /><path clip-path="url(#clip910)" d="M98.8622 544.641 L117.219 544.641 L117.219 548.576 L103.145 548.576 L103.145 557.048 Q104.163 556.701 105.182 556.539 Q106.2 556.354 107.219 556.354 Q113.006 556.354 116.385 559.525 Q119.765 562.696 119.765 568.113 Q119.765 573.691 116.293 576.793 Q112.82 579.872 106.501 579.872 Q104.325 579.872 102.057 579.502 Q99.8113 579.131 97.4039 578.391 L97.4039 573.691 Q99.4872 574.826 101.709 575.381 Q103.932 575.937 106.408 575.937 Q110.413 575.937 112.751 573.83 Q115.089 571.724 115.089 568.113 Q115.089 564.502 112.751 562.395 Q110.413 560.289 106.408 560.289 Q104.534 560.289 102.659 560.705 Q100.807 561.122 98.8622 562.002 L98.8622 544.641 Z" fill="#000000" fill-rule="nonzero" fill-opacity="1" /><path clip-path="url(#clip910)" d="M56.6171 276.115 L72.9365 276.115 L72.9365 280.05 L50.9921 280.05 L50.9921 276.115 Q53.6541 273.36 58.2375 268.731 Q62.8439 264.078 64.0245 262.735 Q66.2698 260.212 67.1494 258.476 Q68.0522 256.717 68.0522 255.027 Q68.0522 252.272 66.1078 250.536 Q64.1865 248.8 61.0847 248.8 Q58.8856 248.8 56.4319 249.564 Q54.0014 250.328 51.2236 251.879 L51.2236 247.157 Q54.0477 246.022 56.5014 245.444 Q58.955 244.865 60.9921 244.865 Q66.3624 244.865 69.5568 247.55 Q72.7513 250.235 72.7513 254.726 Q72.7513 256.856 71.9411 258.777 Q71.1541 260.675 69.0476 263.268 Q68.4689 263.939 65.367 267.156 Q62.2652 270.351 56.6171 276.115 Z" fill="#000000" fill-rule="nonzero" fill-opacity="1" /><path clip-path="url(#clip910)" d="M82.7512 274.17 L87.6354 274.17 L87.6354 280.05 L82.7512 280.05 L82.7512 274.17 Z" fill="#000000" fill-rule="nonzero" fill-opacity="1" /><path clip-path="url(#clip910)" d="M107.821 248.569 Q104.209 248.569 102.381 252.133 Q100.575 255.675 100.575 262.805 Q100.575 269.911 102.381 273.476 Q104.209 277.018 107.821 277.018 Q111.455 277.018 113.26 273.476 Q115.089 269.911 115.089 262.805 Q115.089 255.675 113.26 252.133 Q111.455 248.569 107.821 248.569 M107.821 244.865 Q113.631 244.865 116.686 249.471 Q119.765 254.055 119.765 262.805 Q119.765 271.531 116.686 276.138 Q113.631 280.721 107.821 280.721 Q102.01 280.721 98.9317 276.138 Q95.8761 271.531 95.8761 262.805 Q95.8761 254.055 98.9317 249.471 Q102.01 244.865 107.821 244.865 Z" fill="#000000" fill-rule="nonzero" fill-opacity="1" /><polyline clip-path="url(#clip911)" style="stroke:#009af9; stroke-linecap:round; stroke-linejoin:round; stroke-width:8; stroke-opacity:1; fill:none" points="155.765,1339.71 157.964,1338.51 160.163,1337.29 162.362,1336.06 164.562,1334.82 166.761,1333.57 168.96,1332.31 171.159,1331.03 173.358,1329.74 175.558,1328.43 177.757,1327.11 179.956,1325.78 182.155,1324.44 184.354,1323.08 186.554,1321.71 188.753,1320.33 190.952,1318.93 193.151,1317.51 195.35,1316.09 197.55,1314.65 199.749,1313.19 201.948,1311.72 204.147,1310.23 206.346,1308.73 208.545,1307.22 210.745,1305.69 212.944,1304.14 215.143,1302.58 217.342,1301 219.541,1299.41 221.741,1297.8 223.94,1296.17 226.139,1294.53 228.338,1292.87 230.537,1291.2 232.737,1289.51 234.936,1287.8 237.135,1286.07 239.334,1284.33 241.533,1282.57 243.733,1280.79 245.932,1278.99 248.131,1277.18 250.33,1275.35 252.529,1273.49 254.728,1271.62 256.928,1269.73 259.127,1267.83 261.326,1265.9 263.525,1263.95 265.724,1261.99 267.924,1260 270.123,1258 272.322,1357.67 274.521,1356.65 276.72,1355.62 278.92,1354.57 281.119,1353.52 283.318,1352.45 285.517,1351.38 287.716,1350.29 289.916,1349.19 292.115,1348.08 294.314,1346.96 296.513,1345.83 298.712,1344.69 300.911,1343.54 303.111,1342.37 305.31,1341.2 307.509,1340.01 309.708,1338.81 311.907,1337.59 314.107,1336.37 316.306,1335.13 318.505,1333.88 320.704,1332.62 322.903,1331.34 325.103,1330.05 327.302,1328.75 329.501,1327.44 331.7,1326.11 333.899,1324.77 336.099,1323.42 338.298,1322.05 340.497,1320.67 342.696,1319.27 344.895,1317.86 347.094,1316.44 349.294,1315 351.493,1313.55 353.692,1312.08 355.891,1310.6 358.09,1384.24 360.29,1383.48 362.489,1382.72 364.688,1381.95 366.887,1381.17 369.086,1380.38 371.286,1379.59 373.485,1378.78 375.684,1377.97 377.883,1377.16 380.082,1376.33 382.281,1375.49 384.481,1374.65 386.68,1373.8 388.879,1372.94 391.078,1372.07 393.277,1371.19 395.477,1370.3 397.676,1369.4 399.875,1368.5 402.074,1367.58 404.273,1366.66 406.473,1365.73 408.672,1364.79 410.871,1363.84 413.07,1362.87 415.269,1361.9 417.469,1360.92 419.668,1359.93 421.867,1358.93 424.066,1357.92 426.265,1356.9 428.464,1355.87 430.664,1354.83 432.863,1353.78 435.062,1352.71 437.261,1351.64 439.46,1350.56 441.66,1349.46 443.859,1348.36 446.058,1347.24 448.257,1346.11 450.456,1344.97 452.656,1343.82 454.855,1342.66 457.054,1341.49 459.253,1340.3 461.452,1339.1 463.652,1337.89 465.851,1336.67 468.05,1335.43 470.249,1334.19 472.448,1332.93 474.647,1331.66 476.847,1330.37 479.046,1329.07 481.245,1327.76 483.444,1326.44 485.643,1325.1 487.843,1323.75 490.042,1322.39 492.241,1321.01 494.44,1319.62 496.639,1318.21 498.839,1316.79 501.038,1315.36 503.237,1313.91 505.436,1312.44 507.635,1310.97 509.835,1309.47 512.034,1307.96 514.233,1306.44 516.432,1304.9 518.631,1303.35 520.83,1301.78 523.03,1300.19 525.229,1298.59 527.428,1296.97 529.627,1295.34 531.826,1293.69 534.026,1292.02 536.225,1290.34 538.424,1288.64 540.623,1286.92 542.822,1285.19 545.022,1283.43 547.221,1281.66 549.42,1279.88 551.619,1278.07 553.818,1276.25 556.018,1274.4 558.217,1272.54 560.416,1270.66 562.615,1268.77 564.814,1266.85 567.013,1264.91 569.213,1262.95 571.412,1260.98 573.611,1258.98 575.81,1256.97 578.009,1254.93 580.209,1252.87 582.408,1250.8 584.607,1248.7 586.806,1246.58 589.005,1244.44 591.205,1242.28 593.404,1240.09 595.603,1237.89 597.802,1235.66 600.001,1233.41 602.201,1231.13 604.4,1228.84 606.599,1226.52 608.798,1224.18 610.997,1221.81 613.196,1219.42 615.396,1217.01 617.595,1214.57 619.794,1212.11 621.993,1209.62 624.192,1207.11 626.392,1204.57 628.591,1202 630.79,1199.42 632.989,1196.8 635.188,1194.16 637.388,1191.49 639.587,1188.8 641.786,1186.07 643.985,1183.32 646.184,1180.55 648.384,1177.74 650.583,1174.91 652.782,1172.05 654.981,1169.15 657.18,1166.24 659.379,1163.29 661.579,1160.31 663.778,1157.3 665.977,1154.26 668.176,1151.19 670.375,1148.09 672.575,1144.96 674.774,1141.79 676.973,1138.6 679.172,1135.37 681.371,1132.11 683.571,1128.82 685.77,1125.49 687.969,1122.14 690.168,1118.74 692.367,1115.32 694.567,1111.86 696.766,1108.36 698.965,1104.83 701.164,1101.26 703.363,1097.66 705.562,1094.02 707.762,1090.35 709.961,1086.63 712.16,1082.88 714.359,1079.1 716.558,1075.27 718.758,1071.41 720.957,1067.5 723.156,1063.56 725.355,1059.58 727.554,1055.56 729.754,1051.5 731.953,1047.39 734.152,1043.25 736.351,1039.06 738.55,1034.84 740.749,1030.57 742.949,1026.25 745.148,1021.89 747.347,1017.49 749.546,1013.05 751.745,1008.56 753.945,1004.02 756.144,999.442 758.343,994.814 760.542,990.141 762.741,985.42 764.941,980.652 767.14,975.835 769.339,970.97 771.538,966.056 773.737,961.093 775.937,956.08 778.136,951.016 780.335,945.901 782.534,940.735 784.733,935.517 786.932,930.247 789.132,924.923 791.331,919.546 793.53,914.115 795.729,908.629 797.928,903.088 800.128,897.492 802.327,891.839 804.526,886.129 806.725,880.362 808.924,874.537 811.124,868.653 813.323,862.71 815.522,856.707 817.721,850.644 819.92,844.52 822.12,838.334 824.319,832.086 826.518,825.776 828.717,819.401 830.916,812.963 833.115,806.46 835.315,799.892 837.514,793.258 839.713,786.557 841.912,779.789 844.111,772.952 846.311,766.047 848.51,759.073 850.709,752.029 852.908,744.913 855.107,737.726 857.307,730.467 859.506,723.135 861.705,715.729 863.904,708.249 866.103,700.693 868.303,693.061 870.502,685.353 872.701,677.567 874.9,669.702 877.099,661.759 879.298,653.735 881.498,645.631 883.697,637.445 885.896,629.176 888.095,620.825 890.294,612.389 892.494,603.868 894.693,595.261 896.892,586.568 899.091,577.787 901.29,568.918 903.49,559.96 905.689,550.911 907.888,541.771 910.087,532.539 912.286,523.214 914.486,513.795 916.685,504.282 918.884,494.672 921.083,484.966 923.282,475.162 925.481,465.26 927.681,455.258 929.88,445.155 932.079,434.951 934.278,424.644 936.477,414.234 938.677,403.719 940.876,393.098 943.075,382.371 945.274,915.456 947.473,909.984 949.673,904.457 951.872,898.874 954.071,893.235 956.27,887.539 958.469,881.786 960.669,875.976 962.868,870.107 965.067,864.178 967.266,858.19 969.465,852.142 971.664,846.033 973.864,839.863 976.063,833.631 978.262,827.336 980.461,820.978 982.66,814.555 984.86,808.068 987.059,801.516 989.258,794.898 991.457,788.214 993.656,781.462 995.856,774.642 998.055,767.754 1000.25,760.796 1002.45,753.769 1004.65,746.671 1006.85,739.501 1009.05,732.259 1011.25,724.944 1013.45,717.556 1015.65,710.093 1017.85,702.555 1020.05,694.941 1022.25,687.251 1024.45,679.483 1026.64,671.637 1028.84,663.712 1031.04,655.707 1033.24,647.622 1035.44,639.455 1037.64,631.206 1039.84,622.874 1042.04,614.459 1044.24,605.958 1046.44,597.372 1048.64,588.7 1050.84,579.941 1053.03,571.093 1055.23,562.157 1057.43,553.13 1059.63,1001.7 1061.83,997.099 1064.03,992.448 1066.23,987.751 1068.43,983.006 1070.63,978.214 1072.83,973.373 1075.03,968.484 1077.23,963.545 1079.42,958.557 1081.62,953.519 1083.82,948.43 1086.02,943.289 1088.22,1198.73 1090.42,1196.11 1092.62,1193.46 1094.82,1190.79 1097.02,1188.09 1099.22,1185.36 1101.42,1182.6 1103.62,1179.82 1105.82,1177 1108.01,1174.16 1110.21,1171.29 1112.41,1168.4 1114.61,1165.47 1116.81,1162.51 1119.01,1159.53 1121.21,1156.51 1123.41,1153.46 1125.61,1150.38 1127.81,1147.28 1130.01,1144.14 1132.21,1140.96 1134.4,1137.76 1136.6,1134.53 1138.8,1131.26 1141,1127.96 1143.2,1124.62 1145.4,1121.26 1147.6,1117.85 1149.8,1114.42 1152,1110.95 1154.2,1107.44 1156.4,1103.9 1158.6,1100.33 1160.79,1096.71 1162.99,1093.06 1165.19,1089.38 1167.39,1085.66 1169.59,1270.64 1171.79,1268.74 1173.99,1266.82 1176.19,1264.89 1178.39,1262.93 1180.59,1260.95 1182.79,1258.96 1184.99,1256.94 1187.19,1254.9 1189.38,1252.85 1191.58,1250.77 1193.78,1248.67 1195.98,1246.55 1198.18,1244.41 1200.38,1242.25 1202.58,1240.06 1204.78,1237.86 1206.98,1235.63 1209.18,1233.38 1211.38,1231.1 1213.58,1228.81 1215.77,1226.49 1217.97,1224.14 1220.17,1221.78 1222.37,1219.39 1224.57,1216.97 1226.77,1214.54 1228.97,1212.07 1231.17,1209.59 1233.37,1207.07 1235.57,1204.53 1237.77,1201.97 1239.97,1199.38 1242.16,1196.77 1244.36,1194.12 1246.56,1191.46 1248.76,1188.76 1250.96,1186.04 1253.16,1183.29 1255.36,1180.51 1257.56,1177.71 1259.76,1174.87 1261.96,1172.01 1264.16,1169.12 1266.36,1166.2 1268.56,1163.25 1270.75,1160.27 1272.95,1157.26 1275.15,1154.22 1277.35,1151.15 1279.55,1148.05 1281.75,1144.92 1283.95,1141.75 1286.15,1138.56 1288.35,1135.33 1290.55,1132.07 1292.75,1128.78 1294.95,1125.45 1297.14,1122.09 1299.34,1118.7 1301.54,1115.27 1303.74,1285.59 1305.94,1283.84 1308.14,1282.08 1310.34,1280.29 1312.54,1278.49 1314.74,1276.67 1316.94,1274.83 1319.14,1272.98 1321.34,1271.1 1323.53,1269.21 1325.73,1267.29 1327.93,1265.36 1330.13,1263.41 1332.33,1261.44 1334.53,1259.45 1336.73,1257.44 1338.93,1255.4 1341.13,1253.35 1343.33,1251.28 1345.53,1249.19 1347.73,1247.07 1349.93,1244.94 1352.12,1242.78 1354.32,1240.6 1356.52,1238.4 1358.72,1236.18 1360.92,1233.93 1363.12,1231.67 1365.32,1229.38 1367.52,1227.06 1369.72,1224.73 1371.92,1222.37 1374.12,1219.98 1376.32,1217.58 1378.51,1215.14 1380.71,1212.69 1382.91,1210.21 1385.11,1207.7 1387.31,1205.17 1389.51,1202.61 1391.71,1200.03 1393.91,1197.42 1396.11,1194.79 1398.31,1192.13 1400.51,1189.44 1402.71,1186.72 1404.9,1183.98 1407.1,1181.21 1409.3,1178.41 1411.5,1175.58 1413.7,1172.73 1415.9,1169.85 1418.1,1166.93 1420.3,1163.99 1422.5,1161.02 1424.7,1158.02 1426.9,1154.99 1429.1,1151.92 1431.3,1148.83 1433.49,1145.71 1435.69,1142.55 1437.89,1139.36 1440.09,1136.14 1442.29,1132.89 1444.49,1129.6 1446.69,1126.29 1448.89,1122.93 1451.09,1119.55 1453.29,1116.13 1455.49,1112.67 1457.69,1109.19 1459.88,1105.66 1462.08,1102.1 1464.28,1098.51 1466.48,1094.88 1468.68,1091.21 1470.88,1087.51 1473.08,1083.76 1475.28,1079.98 1477.48,1076.17 1479.68,1072.31 1481.88,1068.42 1484.08,1064.48 1486.27,1060.51 1488.47,1056.5 1490.67,1052.45 1492.87,1048.35 1495.07,1044.22 1497.27,1040.04 1499.47,1035.82 1501.67,1031.56 1503.87,1027.26 1506.07,1022.91 1508.27,1018.52 1510.47,1014.08 1512.67,1009.6 1514.86,1005.08 1517.06,1000.51 1519.26,995.893 1521.46,991.231 1523.66,986.521 1525.86,981.764 1528.06,976.959 1530.26,972.106 1532.46,967.204 1534.66,962.253 1536.86,957.251 1539.06,952.2 1541.25,947.098 1543.45,941.944 1545.65,1198.06 1547.85,1195.43 1550.05,1192.78 1552.25,1190.09 1554.45,1187.38 1556.65,1184.65 1558.85,1181.88 1561.05,1179.09 1563.25,1176.27 1565.45,1173.42 1567.65,1170.55 1569.84,1167.64 1572.04,1164.71 1574.24,1161.74 1576.44,1158.75 1578.64,1155.72 1580.84,1152.67 1583.04,1149.58 1585.24,1146.47 1587.44,1143.32 1589.64,1140.14 1591.84,1136.93 1594.04,1133.69 1596.23,1130.41 1598.43,1127.1 1600.63,1123.76 1602.83,1120.38 1605.03,1116.97 1607.23,1113.53 1609.43,1110.05 1611.63,1106.54 1613.83,1102.99 1616.03,1099.41 1618.23,1095.78 1620.43,1092.13 1622.62,1088.43 1624.82,1084.7 1627.02,1080.93 1629.22,1077.13 1631.42,1073.28 1633.62,1069.4 1635.82,1065.48 1638.02,1061.52 1640.22,1057.51 1642.42,1053.47 1644.62,1049.39 1646.82,1045.26 1649.02,1041.1 1651.21,1036.89 1653.41,1032.64 1655.61,1028.35 1657.81,1024.01 1660.01,1019.63 1662.21,1015.21 1664.41,1010.74 1666.61,1006.22 1668.81,1001.66 1671.01,997.059 1673.21,992.408 1675.41,987.709 1677.6,982.963 1679.8,978.17 1682,973.328 1684.2,968.437 1686.4,963.497 1688.6,958.508 1690.8,953.468 1693,948.377 1695.2,943.235 1697.4,938.042 1699.6,932.796 1701.8,927.498 1703.99,922.146 1706.19,916.74 1708.39,911.281 1710.59,905.766 1712.79,900.196 1714.99,894.571 1717.19,888.889 1719.39,883.149 1721.59,877.352 1723.79,871.497 1725.99,865.583 1728.19,859.609 1730.39,853.575 1732.58,847.481 1734.78,841.325 1736.98,835.107 1739.18,828.827 1741.38,822.484 1743.58,816.076 1745.78,809.605 1747.98,803.068 1750.18,1127.92 1752.38,1124.58 1754.58,1121.21 1756.78,1117.81 1758.97,1114.37 1761.17,1110.9 1763.37,1107.4 1765.57,1103.86 1767.77,1100.28 1769.97,1096.67 1772.17,1093.02 1774.37,1089.33 1776.57,1085.61 1778.77,1081.85 1780.97,1078.05 1783.17,1074.21 1785.36,1070.34 1787.56,1066.43 1789.76,1062.47 1791.96,1058.48 1794.16,1054.45 1796.36,1050.38 1798.56,1046.26 1800.76,1042.11 1802.96,1037.91 1805.16,1033.67 1807.36,1029.39 1809.56,1025.07 1811.76,1020.7 1813.95,1016.29 1816.15,1011.83 1818.35,1007.33 1820.55,1002.78 1822.75,998.192 1824.95,993.554 1827.15,988.87 1829.35,984.138 1831.55,979.359 1833.75,974.532 1835.95,969.656 1838.15,964.731 1840.34,959.756 1842.54,954.731 1844.74,949.656 1846.94,944.53 1849.14,939.352 1851.34,934.121 1853.54,928.838 1855.74,923.502 1857.94,918.112 1860.14,912.668 1862.34,907.168 1864.54,901.614 1866.73,896.003 1868.93,890.336 1871.13,884.611 1873.33,878.829 1875.53,872.988 1877.73,867.089 1879.93,861.13 1882.13,855.111 1884.33,849.031 1886.53,842.89 1888.73,836.687 1890.93,830.421 1893.13,824.092 1895.32,817.7 1897.52,811.242 1899.72,804.72 1901.92,798.132 1904.12,791.478 1906.32,784.757 1908.52,777.968 1910.72,771.111 1912.92,764.184 1915.12,757.188 1917.32,750.122 1919.52,742.984 1921.71,735.775 1923.91,728.494 1926.11,721.139 1928.31,713.71 1930.51,706.207 1932.71,698.629 1934.91,690.974 1937.11,683.243 1939.31,675.435 1941.51,667.548 1943.71,659.582 1945.91,651.536 1948.1,643.408 1950.3,635.199 1952.5,626.908 1954.7,618.533 1956.9,610.073 1959.1,601.529 1961.3,592.899 1963.5,584.182 1965.7,575.377 1967.9,566.484 1970.1,557.501 1972.3,548.428 1974.5,539.264 1976.69,530.008 1978.89,520.659 1981.09,511.215 1983.29,501.677 1985.49,492.043 1987.69,482.312 1989.89,472.483 1992.09,462.555 1994.29,452.527 1996.49,442.399 1998.69,432.168 2000.89,421.835 2003.08,411.397 2005.28,400.855 2007.48,390.206 2009.68,379.451 2011.88,368.587 2014.08,357.613 2016.28,346.53 2018.48,335.334 2020.68,324.026 2022.88,312.604 2025.08,301.067 2027.28,289.414 2029.47,277.644 2031.67,265.755 2033.87,253.747 2036.07,241.617 2038.27,229.366 2040.47,216.991 2042.67,204.492 2044.87,191.867 2047.07,179.114 2049.27,166.234 2051.47,153.224 2053.67,140.083 2055.87,126.81 2058.06,113.404 2060.26,99.8629 2062.46,86.1857 2064.66,765.983 2066.86,759.007 2069.06,751.961 2071.26,744.845 2073.46,737.656 2075.66,730.396 2077.86,723.062 2080.06,715.654 2082.26,708.172 2084.45,700.615 2086.65,692.982 2088.85,685.272 2091.05,677.484 2093.25,669.618 2095.45,661.673 2097.65,653.648 2099.85,645.542 2102.05,637.355 2104.25,629.085 2106.45,620.733 2108.65,612.296 2110.84,603.774 2113.04,595.166 2115.24,586.472 2117.44,577.691 2119.64,568.821 2121.84,559.862 2124.04,550.812 2126.24,541.672 2128.44,532.439 2130.64,523.114 2132.84,513.695 2135.04,504.181 2137.24,494.572 2139.43,484.865 2141.63,475.061 2143.83,465.159 2146.03,455.157 2148.23,952.255 2150.43,947.153 2152.63,941.999 2154.83,936.794 2157.03,931.536 2159.23,926.225 2161.43,920.861 2163.63,915.442 2165.82,909.97 2168.02,904.442 2170.22,898.859 2172.42,893.219 2174.62,887.524 2176.82,881.771 2179.02,875.96 2181.22,870.091 2183.42,864.163 2185.62,858.176 2187.82,852.128 2190.02,846.02 2192.22,839.851 2194.41,833.62 2196.61,827.326 2198.81,820.97 2201.01,814.549 2203.21,808.064 2205.41,801.514 2207.61,794.899 2209.81,788.217 2212.01,781.468 2214.21,774.651 2216.41,767.766 2218.61,760.811 2220.8,753.787 2223,746.692 2225.2,739.526 2227.4,732.288 2229.6,724.977 2231.8,717.592 2234,710.134 2236.2,702.6 2238.4,694.99 2240.6,687.304 2242.8,679.54 2245,671.698 2247.19,663.777 2249.39,655.777 2251.59,647.695 2253.79,639.533 2255.99,631.288 2258.19,622.959 2260.39,614.547 2262.59,606.05 2264.79,597.468 2266.99,588.798 2269.19,580.041 2271.39,571.196 2273.59,562.262 2275.78,553.237 2277.98,544.121 2280.18,534.914 2282.38,525.613 2284.58,516.219 2286.78,506.729 2288.98,497.144 2291.18,487.462 2293.38,477.682 2295.58,467.804 2297.78,457.826 2299.98,447.747 2302.17,437.567 2304.37,427.284 2306.57,416.897 2308.77,406.406 2310.97,395.809 2313.17,385.105 2315.37,374.293 2317.57,363.372 2319.77,352.341 2321.97,341.2 2324.17,329.946 2326.37,318.579 2328.56,307.097 2330.76,295.5 2332.96,283.787 2335.16,271.956 2337.36,260.006 2339.56,247.936 2341.76,235.746 2343.96,223.433 2346.16,210.996 2348.36,198.436 2350.56,185.749 2352.76,172.936 "/>
<path clip-path="url(#clip910)" d="M228.998 196.789 L537.794 196.789 L537.794 93.1086 L228.998 93.1086  Z" fill="#ffffff" fill-rule="evenodd" fill-opacity="1"/>
<polyline clip-path="url(#clip910)" style="stroke:#000000; stroke-linecap:round; stroke-linejoin:round; stroke-width:4; stroke-opacity:1; fill:none" points="228.998,196.789 537.794,196.789 537.794,93.1086 228.998,93.1086 228.998,196.789 "/>
<polyline clip-path="url(#clip910)" style="stroke:#009af9; stroke-linecap:round; stroke-linejoin:round; stroke-width:8; stroke-opacity:1; fill:none" points="253.409,144.949 399.875,144.949 "/>
<path clip-path="url(#clip910)" d="M424.286 151.997 L424.286 136.303 L428.545 136.303 L428.545 151.835 Q428.545 155.516 429.98 157.368 Q431.416 159.196 434.286 159.196 Q437.735 159.196 439.726 156.997 Q441.74 154.798 441.74 151.002 L441.74 136.303 L445.999 136.303 L445.999 162.229 L441.74 162.229 L441.74 158.247 Q440.189 160.608 438.129 161.766 Q436.092 162.9 433.383 162.9 Q428.916 162.9 426.601 160.122 Q424.286 157.344 424.286 151.997 M435.004 135.678 L435.004 135.678 Z" fill="#000000" fill-rule="nonzero" fill-opacity="1" /><path clip-path="url(#clip910)" d="M454.378 126.21 L464.193 126.21 L464.193 129.52 L458.638 129.52 L458.638 165.168 L464.193 165.168 L464.193 168.479 L454.378 168.479 L454.378 126.21 Z" fill="#000000" fill-rule="nonzero" fill-opacity="1" /><path clip-path="url(#clip910)" d="M474.679 158.293 L482.318 158.293 L482.318 131.928 L474.008 133.595 L474.008 129.335 L482.272 127.669 L486.948 127.669 L486.948 158.293 L494.587 158.293 L494.587 162.229 L474.679 162.229 L474.679 158.293 Z" fill="#000000" fill-rule="nonzero" fill-opacity="1" /><path clip-path="url(#clip910)" d="M513.383 126.21 L513.383 168.479 L503.568 168.479 L503.568 165.168 L509.1 165.168 L509.1 129.52 L503.568 129.52 L503.568 126.21 L513.383 126.21 Z" fill="#000000" fill-rule="nonzero" fill-opacity="1" /></svg>
