<?xml version="1.0" encoding="utf-8"?>
<svg xmlns="http://www.w3.org/2000/svg" xmlns:xlink="http://www.w3.org/1999/xlink" width="600" height="400" viewBox="0 0 2400 1600">
<defs>
  <clipPath id="clip850">
    <rect x="0" y="0" width="2400" height="1600"/>
  </clipPath>
</defs>
<path clip-path="url(#clip850)" d="M0 1600 L2400 1600 L2400 0 L0 0  Z" fill="#ffffff" fill-rule="evenodd" fill-opacity="1"/>
<defs>
  <clipPath id="clip851">
    <rect x="156" y="47" width="2197" height="1377"/>
  </clipPath>
</defs>
<path clip-path="url(#clip850)" d="M156.598 1423.18 L2352.76 1423.18 L2352.76 47.2441 L156.598 47.2441  Z" fill="#ffffff" fill-rule="evenodd" fill-opacity="1"/>
<polyline clip-path="url(#clip851)" style="stroke:#000000; stroke-linecap:round; stroke-linejoin:round; stroke-width:2; stroke-opacity:0.1; fill:none" points="156.598,1423.18 156.598,47.2441 "/>
<polyline clip-path="url(#clip851)" style="stroke:#000000; stroke-linecap:round; stroke-linejoin:round; stroke-width:2; stroke-opacity:0.1; fill:none" points="595.83,1423.18 595.83,47.2441 "/>
<polyline clip-path="url(#clip851)" style="stroke:#000000; stroke-linecap:round; stroke-linejoin:round; stroke-width:2; stroke-opacity:0.1; fill:none" points="1035.06,1423.18 1035.06,47.2441 "/>
<polyline clip-path="url(#clip851)" style="stroke:#000000; stroke-linecap:round; stroke-linejoin:round; stroke-width:2; stroke-opacity:0.1; fill:none" points="1474.29,1423.18 1474.29,47.2441 "/>
<polyline clip-path="url(#clip851)" style="stroke:#000000; stroke-linecap:round; stroke-linejoin:round; stroke-width:2; stroke-opacity:0.1; fill:none" points="1913.52,1423.18 1913.52,47.2441 "/>
<polyline clip-path="url(#clip851)" style="stroke:#000000; stroke-linecap:round; stroke-linejoin:round; stroke-width:2; stroke-opacity:0.1; fill:none" points="2352.76,1423.18 2352.76,47.2441 "/>
<polyline clip-path="url(#clip851)" style="stroke:#000000; stroke-linecap:round; stroke-linejoin:round; stroke-width:2; stroke-opacity:0.1; fill:none" points="156.598,1384.3 2352.76,1384.3 "/>
<polyline clip-path="url(#clip851)" style="stroke:#000000; stroke-linecap:round; stroke-linejoin:round; stroke-width:2; stroke-opacity:0.1; fill:none" points="156.598,1138.49 2352.76,1138.49 "/>
<polyline clip-path="url(#clip851)" style="stroke:#000000; stroke-linecap:round; stroke-linejoin:round; stroke-width:2; stroke-opacity:0.1; fill:none" points="156.598,892.684 2352.76,892.684 "/>
<polyline clip-path="url(#clip851)" style="stroke:#000000; stroke-linecap:round; stroke-linejoin:round; stroke-width:2; stroke-opacity:0.1; fill:none" points="156.598,646.876 2352.76,646.876 "/>
<polyline clip-path="url(#clip851)" style="stroke:#000000; stroke-linecap:round; stroke-linejoin:round; stroke-width:2; stroke-opacity:0.1; fill:none" points="156.598,401.069 2352.76,401.069 "/>
<polyline clip-path="url(#clip851)" style="stroke:#000000; stroke-linecap:round; stroke-linejoin:round; stroke-width:2; stroke-opacity:0.1; fill:none" points="156.598,155.261 2352.76,155.261 "/>
<polyline clip-path="url(#clip850)" style="stroke:#000000; stroke-linecap:round; stroke-linejoin:round; stroke-width:4; stroke-opacity:1; fill:none" points="156.598,1423.18 2352.76,1423.18 "/>
<polyline clip-path="url(#clip850)" style="stroke:#000000; stroke-linecap:round; stroke-linejoin:round; stroke-width:4; stroke-opacity:1; fill:none" points="156.598,1423.18 156.598,1404.28 "/>
<polyline clip-path="url(#clip850)" style="stroke:#000000; stroke-linecap:round; stroke-linejoin:round; stroke-width:4; stroke-opacity:1; fill:none" points="595.83,1423.18 595.83,1404.28 "/>
<polyline clip-path="url(#clip850)" style="stroke:#000000; stroke-linecap:round; stroke-linejoin:round; stroke-width:4; stroke-opacity:1; fill:none" points="1035.06,1423.18 1035.06,1404.28 "/>
<polyline clip-path="url(#clip850)" style="stroke:#000000; stroke-linecap:round; stroke-linejoin:round; stroke-width:4; stroke-opacity:1; fill:none" points="1474.29,1423.18 1474.29,1404.28 "/>
<polyline clip-path="url(#clip850)" style="stroke:#000000; stroke-linecap:round; stroke-linejoin:round; stroke-width:4; stroke-opacity:1; fill:none" points="1913.52,1423.18 1913.52,1404.28 "/>
<polyline clip-path="url(#clip850)" style="stroke:#000000; stroke-linecap:round; stroke-linejoin:round; stroke-width:4; stroke-opacity:1; fill:none" points="2352.76,1423.18 2352.76,1404.28 "/>
<path clip-path="url(#clip850)" d="M156.598 1454.1 Q152.987 1454.1 151.158 1457.66 Q149.353 1461.2 149.353 1468.33 Q149.353 1475.44 151.158 1479.01 Q152.987 1482.55 156.598 1482.55 Q160.232 1482.55 162.038 1479.01 Q163.867 1475.44 163.867 1468.33 Q163.867 1461.2 162.038 1457.66 Q160.232 1454.1 156.598 1454.1 M156.598 1450.39 Q162.408 1450.39 165.464 1455 Q168.543 1459.58 168.543 1468.33 Q168.543 1477.06 165.464 1481.67 Q162.408 1486.25 156.598 1486.25 Q150.788 1486.25 147.709 1481.67 Q144.654 1477.06 144.654 1468.33 Q144.654 1459.58 147.709 1455 Q150.788 1450.39 156.598 1450.39 Z" fill="#000000" fill-rule="nonzero" fill-opacity="1" /><path clip-path="url(#clip850)" d="M590.483 1481.64 L606.802 1481.64 L606.802 1485.58 L584.858 1485.58 L584.858 1481.64 Q587.52 1478.89 592.103 1474.26 Q596.709 1469.61 597.89 1468.27 Q600.135 1465.74 601.015 1464.01 Q601.918 1462.25 601.918 1460.56 Q601.918 1457.8 599.973 1456.07 Q598.052 1454.33 594.95 1454.33 Q592.751 1454.33 590.297 1455.09 Q587.867 1455.86 585.089 1457.41 L585.089 1452.69 Q587.913 1451.55 590.367 1450.97 Q592.821 1450.39 594.858 1450.39 Q600.228 1450.39 603.422 1453.08 Q606.617 1455.77 606.617 1460.26 Q606.617 1462.39 605.807 1464.31 Q605.02 1466.2 602.913 1468.8 Q602.334 1469.47 599.233 1472.69 Q596.131 1475.88 590.483 1481.64 Z" fill="#000000" fill-rule="nonzero" fill-opacity="1" /><path clip-path="url(#clip850)" d="M1038.07 1455.09 L1026.27 1473.54 L1038.07 1473.54 L1038.07 1455.09 M1036.84 1451.02 L1042.72 1451.02 L1042.72 1473.54 L1047.65 1473.54 L1047.65 1477.43 L1042.72 1477.43 L1042.72 1485.58 L1038.07 1485.58 L1038.07 1477.43 L1022.47 1477.43 L1022.47 1472.92 L1036.84 1451.02 Z" fill="#000000" fill-rule="nonzero" fill-opacity="1" /><path clip-path="url(#clip850)" d="M1474.7 1466.44 Q1471.55 1466.44 1469.7 1468.59 Q1467.87 1470.74 1467.87 1474.49 Q1467.87 1478.22 1469.7 1480.39 Q1471.55 1482.55 1474.7 1482.55 Q1477.85 1482.55 1479.67 1480.39 Q1481.53 1478.22 1481.53 1474.49 Q1481.53 1470.74 1479.67 1468.59 Q1477.85 1466.44 1474.7 1466.44 M1483.98 1451.78 L1483.98 1456.04 Q1482.22 1455.21 1480.42 1454.77 Q1478.63 1454.33 1476.87 1454.33 Q1472.24 1454.33 1469.79 1457.45 Q1467.36 1460.58 1467.01 1466.9 Q1468.38 1464.89 1470.44 1463.82 Q1472.5 1462.73 1474.98 1462.73 Q1480.18 1462.73 1483.19 1465.9 Q1486.23 1469.05 1486.23 1474.49 Q1486.23 1479.82 1483.08 1483.03 Q1479.93 1486.25 1474.7 1486.25 Q1468.7 1486.25 1465.53 1481.67 Q1462.36 1477.06 1462.36 1468.33 Q1462.36 1460.14 1466.25 1455.28 Q1470.14 1450.39 1476.69 1450.39 Q1478.45 1450.39 1480.23 1450.74 Q1482.04 1451.09 1483.98 1451.78 Z" fill="#000000" fill-rule="nonzero" fill-opacity="1" /><path clip-path="url(#clip850)" d="M1913.52 1469.17 Q1910.19 1469.17 1908.27 1470.95 Q1906.37 1472.73 1906.37 1475.86 Q1906.37 1478.98 1908.27 1480.77 Q1910.19 1482.55 1913.52 1482.55 Q1916.86 1482.55 1918.78 1480.77 Q1920.7 1478.96 1920.7 1475.86 Q1920.7 1472.73 1918.78 1470.95 Q1916.88 1469.17 1913.52 1469.17 M1908.85 1467.18 Q1905.84 1466.44 1904.15 1464.38 Q1902.48 1462.32 1902.48 1459.35 Q1902.48 1455.21 1905.42 1452.8 Q1908.39 1450.39 1913.52 1450.39 Q1918.69 1450.39 1921.63 1452.8 Q1924.57 1455.21 1924.57 1459.35 Q1924.57 1462.32 1922.88 1464.38 Q1921.21 1466.44 1918.22 1467.18 Q1921.6 1467.96 1923.48 1470.26 Q1925.38 1472.55 1925.38 1475.86 Q1925.38 1480.88 1922.3 1483.57 Q1919.24 1486.25 1913.52 1486.25 Q1907.81 1486.25 1904.73 1483.57 Q1901.67 1480.88 1901.67 1475.86 Q1901.67 1472.55 1903.57 1470.26 Q1905.47 1467.96 1908.85 1467.18 M1907.14 1459.79 Q1907.14 1462.48 1908.8 1463.98 Q1910.49 1465.49 1913.52 1465.49 Q1916.53 1465.49 1918.22 1463.98 Q1919.94 1462.48 1919.94 1459.79 Q1919.94 1457.11 1918.22 1455.6 Q1916.53 1454.1 1913.52 1454.1 Q1910.49 1454.1 1908.8 1455.6 Q1907.14 1457.11 1907.14 1459.79 Z" fill="#000000" fill-rule="nonzero" fill-opacity="1" /><path clip-path="url(#clip850)" d="M2327.44 1481.64 L2335.08 1481.64 L2335.08 1455.28 L2326.77 1456.95 L2326.77 1452.69 L2335.04 1451.02 L2339.71 1451.02 L2339.71 1481.64 L2347.35 1481.64 L2347.35 1485.58 L2327.44 1485.58 L2327.44 1481.64 Z" fill="#000000" fill-rule="nonzero" fill-opacity="1" /><path clip-path="url(#clip850)" d="M2366.8 1454.1 Q2363.18 1454.1 2361.36 1457.66 Q2359.55 1461.2 2359.55 1468.33 Q2359.55 1475.44 2361.36 1479.01 Q2363.18 1482.55 2366.8 1482.55 Q2370.43 1482.55 2372.23 1479.01 Q2374.06 1475.44 2374.06 1468.33 Q2374.06 1461.2 2372.23 1457.66 Q2370.43 1454.1 2366.8 1454.1 M2366.8 1450.39 Q2372.61 1450.39 2375.66 1455 Q2378.74 1459.58 2378.74 1468.33 Q2378.74 1477.06 2375.66 1481.67 Q2372.61 1486.25 2366.8 1486.25 Q2360.99 1486.25 2357.91 1481.67 Q2354.85 1477.06 2354.85 1468.33 Q2354.85 1459.58 2357.91 1455 Q2360.99 1450.39 2366.8 1450.39 Z" fill="#000000" fill-rule="nonzero" fill-opacity="1" /><path clip-path="url(#clip850)" d="M1253.74 1522.27 L1253.74 1532.4 L1265.8 1532.4 L1265.8 1536.95 L1253.74 1536.95 L1253.74 1556.3 Q1253.74 1560.66 1254.92 1561.9 Q1256.13 1563.14 1259.79 1563.14 L1265.8 1563.14 L1265.8 1568.04 L1259.79 1568.04 Q1253.01 1568.04 1250.43 1565.53 Q1247.85 1562.98 1247.85 1556.3 L1247.85 1536.95 L1243.55 1536.95 L1243.55 1532.4 L1247.85 1532.4 L1247.85 1522.27 L1253.74 1522.27 Z" fill="#000000" fill-rule="nonzero" fill-opacity="1" /><polyline clip-path="url(#clip850)" style="stroke:#000000; stroke-linecap:round; stroke-linejoin:round; stroke-width:4; stroke-opacity:1; fill:none" points="156.598,1423.18 156.598,47.2441 "/>
<polyline clip-path="url(#clip850)" style="stroke:#000000; stroke-linecap:round; stroke-linejoin:round; stroke-width:4; stroke-opacity:1; fill:none" points="156.598,1384.3 175.496,1384.3 "/>
<polyline clip-path="url(#clip850)" style="stroke:#000000; stroke-linecap:round; stroke-linejoin:round; stroke-width:4; stroke-opacity:1; fill:none" points="156.598,1138.49 175.496,1138.49 "/>
<polyline clip-path="url(#clip850)" style="stroke:#000000; stroke-linecap:round; stroke-linejoin:round; stroke-width:4; stroke-opacity:1; fill:none" points="156.598,892.684 175.496,892.684 "/>
<polyline clip-path="url(#clip850)" style="stroke:#000000; stroke-linecap:round; stroke-linejoin:round; stroke-width:4; stroke-opacity:1; fill:none" points="156.598,646.876 175.496,646.876 "/>
<polyline clip-path="url(#clip850)" style="stroke:#000000; stroke-linecap:round; stroke-linejoin:round; stroke-width:4; stroke-opacity:1; fill:none" points="156.598,401.069 175.496,401.069 "/>
<polyline clip-path="url(#clip850)" style="stroke:#000000; stroke-linecap:round; stroke-linejoin:round; stroke-width:4; stroke-opacity:1; fill:none" points="156.598,155.261 175.496,155.261 "/>
<path clip-path="url(#clip850)" d="M63.4226 1370.1 Q59.8115 1370.1 57.9828 1373.66 Q56.1773 1377.2 56.1773 1384.33 Q56.1773 1391.44 57.9828 1395.01 Q59.8115 1398.55 63.4226 1398.55 Q67.0569 1398.55 68.8624 1395.01 Q70.6911 1391.44 70.6911 1384.33 Q70.6911 1377.2 68.8624 1373.66 Q67.0569 1370.1 63.4226 1370.1 M63.4226 1366.39 Q69.2328 1366.39 72.2883 1371 Q75.367 1375.58 75.367 1384.33 Q75.367 1393.06 72.2883 1397.67 Q69.2328 1402.25 63.4226 1402.25 Q57.6125 1402.25 54.5338 1397.67 Q51.4782 1393.06 51.4782 1384.33 Q51.4782 1375.58 54.5338 1371 Q57.6125 1366.39 63.4226 1366.39 Z" fill="#000000" fill-rule="nonzero" fill-opacity="1" /><path clip-path="url(#clip850)" d="M83.5845 1395.7 L88.4688 1395.7 L88.4688 1401.58 L83.5845 1401.58 L83.5845 1395.7 Z" fill="#000000" fill-rule="nonzero" fill-opacity="1" /><path clip-path="url(#clip850)" d="M108.654 1370.1 Q105.043 1370.1 103.214 1373.66 Q101.409 1377.2 101.409 1384.33 Q101.409 1391.44 103.214 1395.01 Q105.043 1398.55 108.654 1398.55 Q112.288 1398.55 114.094 1395.01 Q115.922 1391.44 115.922 1384.33 Q115.922 1377.2 114.094 1373.66 Q112.288 1370.1 108.654 1370.1 M108.654 1366.39 Q114.464 1366.39 117.52 1371 Q120.598 1375.58 120.598 1384.33 Q120.598 1393.06 117.52 1397.67 Q114.464 1402.25 108.654 1402.25 Q102.844 1402.25 99.765 1397.67 Q96.7095 1393.06 96.7095 1384.33 Q96.7095 1375.58 99.765 1371 Q102.844 1366.39 108.654 1366.39 Z" fill="#000000" fill-rule="nonzero" fill-opacity="1" /><path clip-path="url(#clip850)" d="M64.6495 1124.29 Q61.0384 1124.29 59.2097 1127.86 Q57.4041 1131.4 57.4041 1138.53 Q57.4041 1145.63 59.2097 1149.2 Q61.0384 1152.74 64.6495 1152.74 Q68.2837 1152.74 70.0892 1149.2 Q71.9179 1145.63 71.9179 1138.53 Q71.9179 1131.4 70.0892 1127.86 Q68.2837 1124.29 64.6495 1124.29 M64.6495 1120.59 Q70.4596 1120.59 73.5152 1125.19 Q76.5938 1129.78 76.5938 1138.53 Q76.5938 1147.25 73.5152 1151.86 Q70.4596 1156.44 64.6495 1156.44 Q58.8393 1156.44 55.7606 1151.86 Q52.7051 1147.25 52.7051 1138.53 Q52.7051 1129.78 55.7606 1125.19 Q58.8393 1120.59 64.6495 1120.59 Z" fill="#000000" fill-rule="nonzero" fill-opacity="1" /><path clip-path="url(#clip850)" d="M84.8114 1149.89 L89.6956 1149.89 L89.6956 1155.77 L84.8114 1155.77 L84.8114 1149.89 Z" fill="#000000" fill-rule="nonzero" fill-opacity="1" /><path clip-path="url(#clip850)" d="M100.691 1151.84 L108.33 1151.84 L108.33 1125.47 L100.02 1127.14 L100.02 1122.88 L108.283 1121.21 L112.959 1121.21 L112.959 1151.84 L120.598 1151.84 L120.598 1155.77 L100.691 1155.77 L100.691 1151.84 Z" fill="#000000" fill-rule="nonzero" fill-opacity="1" /><path clip-path="url(#clip850)" d="M65.0198 878.483 Q61.4087 878.483 59.58 882.047 Q57.7745 885.589 57.7745 892.719 Q57.7745 899.825 59.58 903.39 Q61.4087 906.932 65.0198 906.932 Q68.6541 906.932 70.4596 903.39 Q72.2883 899.825 72.2883 892.719 Q72.2883 885.589 70.4596 882.047 Q68.6541 878.483 65.0198 878.483 M65.0198 874.779 Q70.83 874.779 73.8855 879.385 Q76.9642 883.969 76.9642 892.719 Q76.9642 901.445 73.8855 906.052 Q70.83 910.635 65.0198 910.635 Q59.2097 910.635 56.131 906.052 Q53.0754 901.445 53.0754 892.719 Q53.0754 883.969 56.131 879.385 Q59.2097 874.779 65.0198 874.779 Z" fill="#000000" fill-rule="nonzero" fill-opacity="1" /><path clip-path="url(#clip850)" d="M85.1818 904.084 L90.066 904.084 L90.066 909.964 L85.1818 909.964 L85.1818 904.084 Z" fill="#000000" fill-rule="nonzero" fill-opacity="1" /><path clip-path="url(#clip850)" d="M104.279 906.029 L120.598 906.029 L120.598 909.964 L98.6539 909.964 L98.6539 906.029 Q101.316 903.274 105.899 898.645 Q110.506 893.992 111.686 892.649 Q113.932 890.126 114.811 888.39 Q115.714 886.631 115.714 884.941 Q115.714 882.186 113.77 880.45 Q111.848 878.714 108.746 878.714 Q106.547 878.714 104.094 879.478 Q101.663 880.242 98.8854 881.793 L98.8854 877.071 Q101.709 875.936 104.163 875.358 Q106.617 874.779 108.654 874.779 Q114.024 874.779 117.219 877.464 Q120.413 880.149 120.413 884.64 Q120.413 886.77 119.603 888.691 Q118.816 890.589 116.709 893.182 Q116.131 893.853 113.029 897.07 Q109.927 900.265 104.279 906.029 Z" fill="#000000" fill-rule="nonzero" fill-opacity="1" /><path clip-path="url(#clip850)" d="M64.0708 632.675 Q60.4597 632.675 58.631 636.24 Q56.8254 639.781 56.8254 646.911 Q56.8254 654.017 58.631 657.582 Q60.4597 661.124 64.0708 661.124 Q67.705 661.124 69.5105 657.582 Q71.3392 654.017 71.3392 646.911 Q71.3392 639.781 69.5105 636.24 Q67.705 632.675 64.0708 632.675 M64.0708 628.971 Q69.8809 628.971 72.9365 633.578 Q76.0151 638.161 76.0151 646.911 Q76.0151 655.638 72.9365 660.244 Q69.8809 664.828 64.0708 664.828 Q58.2606 664.828 55.1819 660.244 Q52.1264 655.638 52.1264 646.911 Q52.1264 638.161 55.1819 633.578 Q58.2606 628.971 64.0708 628.971 Z" fill="#000000" fill-rule="nonzero" fill-opacity="1" /><path clip-path="url(#clip850)" d="M84.2327 658.277 L89.1169 658.277 L89.1169 664.156 L84.2327 664.156 L84.2327 658.277 Z" fill="#000000" fill-rule="nonzero" fill-opacity="1" /><path clip-path="url(#clip850)" d="M113.469 645.522 Q116.825 646.24 118.7 648.508 Q120.598 650.777 120.598 654.11 Q120.598 659.226 117.08 662.027 Q113.561 664.828 107.08 664.828 Q104.904 664.828 102.589 664.388 Q100.297 663.971 97.8437 663.115 L97.8437 658.601 Q99.7882 659.735 102.103 660.314 Q104.418 660.892 106.941 660.892 Q111.339 660.892 113.631 659.156 Q115.945 657.42 115.945 654.11 Q115.945 651.055 113.793 649.342 Q111.663 647.605 107.844 647.605 L103.816 647.605 L103.816 643.763 L108.029 643.763 Q111.478 643.763 113.307 642.397 Q115.135 641.008 115.135 638.416 Q115.135 635.754 113.237 634.342 Q111.362 632.906 107.844 632.906 Q105.922 632.906 103.723 633.323 Q101.524 633.74 98.8854 634.619 L98.8854 630.453 Q101.547 629.712 103.862 629.342 Q106.2 628.971 108.26 628.971 Q113.584 628.971 116.686 631.402 Q119.788 633.809 119.788 637.93 Q119.788 640.8 118.145 642.791 Q116.501 644.758 113.469 645.522 Z" fill="#000000" fill-rule="nonzero" fill-opacity="1" /><path clip-path="url(#clip850)" d="M62.9365 386.867 Q59.3254 386.867 57.4967 390.432 Q55.6912 393.974 55.6912 401.103 Q55.6912 408.21 57.4967 411.775 Q59.3254 415.316 62.9365 415.316 Q66.5707 415.316 68.3763 411.775 Q70.205 408.21 70.205 401.103 Q70.205 393.974 68.3763 390.432 Q66.5707 386.867 62.9365 386.867 M62.9365 383.164 Q68.7467 383.164 71.8022 387.77 Q74.8809 392.353 74.8809 401.103 Q74.8809 409.83 71.8022 414.437 Q68.7467 419.02 62.9365 419.02 Q57.1264 419.02 54.0477 414.437 Q50.9921 409.83 50.9921 401.103 Q50.9921 392.353 54.0477 387.77 Q57.1264 383.164 62.9365 383.164 Z" fill="#000000" fill-rule="nonzero" fill-opacity="1" /><path clip-path="url(#clip850)" d="M83.0984 412.469 L87.9827 412.469 L87.9827 418.349 L83.0984 418.349 L83.0984 412.469 Z" fill="#000000" fill-rule="nonzero" fill-opacity="1" /><path clip-path="url(#clip850)" d="M111.015 387.863 L99.2095 406.312 L111.015 406.312 L111.015 387.863 M109.788 383.789 L115.668 383.789 L115.668 406.312 L120.598 406.312 L120.598 410.201 L115.668 410.201 L115.668 418.349 L111.015 418.349 L111.015 410.201 L95.4132 410.201 L95.4132 405.687 L109.788 383.789 Z" fill="#000000" fill-rule="nonzero" fill-opacity="1" /><path clip-path="url(#clip850)" d="M64.418 141.06 Q60.8069 141.06 58.9782 144.625 Q57.1726 148.166 57.1726 155.296 Q57.1726 162.402 58.9782 165.967 Q60.8069 169.509 64.418 169.509 Q68.0522 169.509 69.8578 165.967 Q71.6865 162.402 71.6865 155.296 Q71.6865 148.166 69.8578 144.625 Q68.0522 141.06 64.418 141.06 M64.418 137.356 Q70.2281 137.356 73.2837 141.962 Q76.3624 146.546 76.3624 155.296 Q76.3624 164.023 73.2837 168.629 Q70.2281 173.212 64.418 173.212 Q58.6078 173.212 55.5291 168.629 Q52.4736 164.023 52.4736 155.296 Q52.4736 146.546 55.5291 141.962 Q58.6078 137.356 64.418 137.356 Z" fill="#000000" fill-rule="nonzero" fill-opacity="1" /><path clip-path="url(#clip850)" d="M84.5799 166.661 L89.4641 166.661 L89.4641 172.541 L84.5799 172.541 L84.5799 166.661 Z" fill="#000000" fill-rule="nonzero" fill-opacity="1" /><path clip-path="url(#clip850)" d="M99.6956 137.981 L118.052 137.981 L118.052 141.916 L103.978 141.916 L103.978 150.388 Q104.996 150.041 106.015 149.879 Q107.033 149.694 108.052 149.694 Q113.839 149.694 117.219 152.865 Q120.598 156.036 120.598 161.453 Q120.598 167.032 117.126 170.134 Q113.654 173.212 107.334 173.212 Q105.159 173.212 102.89 172.842 Q100.645 172.472 98.2372 171.731 L98.2372 167.032 Q100.321 168.166 102.543 168.722 Q104.765 169.277 107.242 169.277 Q111.246 169.277 113.584 167.171 Q115.922 165.064 115.922 161.453 Q115.922 157.842 113.584 155.736 Q111.246 153.629 107.242 153.629 Q105.367 153.629 103.492 154.046 Q101.64 154.462 99.6956 155.342 L99.6956 137.981 Z" fill="#000000" fill-rule="nonzero" fill-opacity="1" /><polyline clip-path="url(#clip851)" style="stroke:#009af9; stroke-linecap:round; stroke-linejoin:round; stroke-width:8; stroke-opacity:1; fill:none" points="156.598,892.684 158.797,887.738 160.995,882.743 163.193,877.697 165.392,872.6 167.59,867.452 169.788,862.253 171.987,857.001 174.185,851.696 176.383,846.338 178.582,840.926 180.78,835.459 182.979,829.938 185.177,824.361 187.375,818.728 189.574,813.038 191.772,807.291 193.97,801.486 196.169,795.623 198.367,789.701 200.565,783.719 202.764,777.677 204.962,771.574 207.16,765.41 209.359,759.184 211.557,752.895 213.755,746.543 215.954,740.127 218.152,733.646 220.351,727.1 222.549,720.489 224.747,713.811 226.946,707.065 229.144,700.252 231.342,693.37 233.541,686.419 235.739,679.399 237.937,672.307 240.136,665.144 242.334,657.909 244.532,650.602 246.731,643.22 248.929,635.765 251.128,628.234 253.326,620.628 255.524,612.945 257.723,605.185 259.921,597.347 262.119,589.43 264.318,581.434 266.516,573.357 268.714,565.199 270.913,556.958 273.111,548.635 275.309,540.228 277.508,531.737 279.706,523.16 281.905,514.496 284.103,505.746 286.301,496.907 288.5,487.98 290.698,478.963 292.896,469.855 295.095,460.655 297.293,451.363 299.491,441.977 301.69,432.497 303.888,422.922 306.086,413.25 308.285,403.481 310.483,393.614 312.682,383.647 314.88,373.58 317.078,363.412 319.277,353.142 321.475,342.768 323.673,332.29 325.872,321.706 328.07,311.016 330.268,300.219 332.467,289.313 334.665,278.297 336.863,267.17 339.062,255.932 341.26,244.58 343.458,233.114 345.657,221.533 347.855,209.835 350.054,198.02 352.252,186.086 354.45,174.031 356.649,161.856 358.847,149.557 361.045,137.136 363.244,124.589 365.442,111.916 367.64,99.115 369.839,86.1857 372.037,728.713 374.235,722.117 376.434,715.456 378.632,708.727 380.831,701.93 383.029,695.065 385.227,688.131 387.426,681.128 389.624,674.054 391.822,666.908 394.021,659.691 396.219,652.401 398.417,645.038 400.616,637.601 402.814,630.089 405.012,622.502 407.211,614.838 409.409,607.097 411.608,599.279 413.806,591.381 416.004,583.404 418.203,575.347 420.401,567.209 422.599,558.989 424.798,550.686 426.996,542.3 429.194,533.829 431.393,525.274 433.591,516.632 435.789,507.903 437.988,499.086 440.186,490.18 442.385,481.185 444.583,472.099 446.781,462.922 448.98,453.653 451.178,444.29 453.376,434.833 455.575,425.281 457.773,415.633 459.971,405.888 462.17,396.045 464.368,386.102 466.566,376.06 468.765,365.917 470.963,355.672 473.162,345.324 475.36,334.871 477.558,324.314 479.757,313.65 481.955,302.879 484.153,292 486.352,281.011 488.55,269.911 490.748,258.7 492.947,247.376 495.145,235.939 497.343,224.386 499.542,212.717 501.74,200.93 503.938,786.662 506.137,780.65 508.335,774.577 510.534,768.443 512.732,762.247 514.93,755.989 517.129,749.668 519.327,743.284 521.525,736.835 523.724,730.321 525.922,723.742 528.12,717.097 530.319,710.385 532.517,703.605 534.715,696.757 536.914,689.84 539.112,1033.58 541.311,1030.05 543.509,1026.48 545.707,1022.88 547.906,1019.25 550.104,1015.58 552.302,1011.87 554.501,1008.12 556.699,1004.34 558.897,1000.51 561.096,996.652 563.294,992.752 565.492,988.813 567.691,984.834 569.889,980.815 572.088,976.756 574.286,972.656 576.484,968.515 578.683,964.332 580.881,960.107 583.079,955.84 585.278,951.529 587.476,947.175 589.674,942.778 591.873,938.336 594.071,933.849 596.269,929.318 598.468,924.741 600.666,920.117 602.865,915.447 605.063,910.731 607.261,905.966 609.46,901.154 611.658,896.294 613.856,891.384 616.055,886.425 618.253,881.416 620.451,876.357 622.65,871.247 624.848,866.086 627.046,860.872 629.245,855.607 631.443,850.288 633.641,844.916 635.84,839.489 638.038,834.008 640.237,828.472 642.435,822.881 644.633,817.233 646.832,811.528 649.03,805.766 651.228,799.946 653.427,794.067 655.625,788.129 657.823,782.131 660.022,776.073 662.22,769.954 664.418,763.774 666.617,757.531 668.815,751.226 671.014,744.857 673.212,738.424 675.41,731.926 677.609,725.363 679.807,718.734 682.005,712.038 684.204,705.275 686.402,698.444 688.6,691.544 690.799,684.574 692.997,677.535 695.195,670.425 697.394,663.243 699.592,655.989 701.791,648.662 703.989,641.261 706.187,633.786 708.386,626.236 710.584,618.609 712.782,610.906 714.981,603.126 717.179,595.267 719.377,985.814 721.576,981.805 723.774,977.756 725.972,973.666 728.171,969.535 730.369,965.362 732.568,961.148 734.766,956.891 736.964,952.591 739.163,948.248 741.361,943.861 743.559,939.43 745.758,934.955 747.956,1157.37 750.154,1155.08 752.353,1152.78 754.551,1150.45 756.749,1148.1 758.948,1145.72 761.146,1143.32 763.344,1140.9 765.543,1138.45 767.741,1135.97 769.94,1133.47 772.138,1130.95 774.336,1128.4 776.535,1125.83 778.733,1123.23 780.931,1120.6 783.13,1117.95 785.328,1115.27 787.526,1112.56 789.725,1109.83 791.923,1107.07 794.121,1104.28 796.32,1101.46 798.518,1098.62 800.717,1095.74 802.915,1092.84 805.113,1089.91 807.312,1086.95 809.51,1083.95 811.708,1080.93 813.907,1077.88 816.105,1074.8 818.303,1071.68 820.502,1226.42 822.7,1224.83 824.898,1223.23 827.097,1221.61 829.295,1219.97 831.494,1218.32 833.692,1216.65 835.89,1214.96 838.089,1213.26 840.287,1211.54 842.485,1209.8 844.684,1208.04 846.882,1295.28 849.08,1294.39 851.279,1293.48 853.477,1292.57 855.675,1291.65 857.874,1290.72 860.072,1289.77 862.271,1288.82 864.469,1287.86 866.667,1286.89 868.866,1285.91 871.064,1284.92 873.262,1283.92 875.461,1333.61 877.659,1333.1 879.857,1332.58 882.056,1332.06 884.254,1331.54 886.452,1331 888.651,1330.47 890.849,1329.93 893.048,1329.38 895.246,1328.83 897.444,1328.27 899.643,1327.71 901.841,1327.14 904.039,1326.56 906.238,1325.98 908.436,1325.39 910.634,1324.8 912.833,1324.2 915.031,1323.6 917.229,1322.99 919.428,1322.37 921.626,1321.75 923.824,1321.12 926.023,1320.48 928.221,1319.84 930.42,1319.19 932.618,1318.54 934.816,1317.87 937.015,1317.21 939.213,1316.53 941.411,1315.85 943.61,1315.16 945.808,1314.47 948.006,1313.76 950.205,1313.05 952.403,1312.34 954.601,1311.61 956.8,1310.88 958.998,1310.14 961.197,1309.4 963.395,1308.64 965.593,1307.88 967.792,1307.11 969.99,1306.34 972.188,1305.55 974.387,1304.76 976.585,1303.96 978.783,1303.15 980.982,1302.34 983.18,1301.51 985.378,1300.68 987.577,1299.84 989.775,1298.99 991.974,1298.13 994.172,1297.26 996.37,1296.39 998.569,1295.5 1000.77,1294.61 1002.97,1293.71 1005.16,1292.8 1007.36,1291.87 1009.56,1290.94 1011.76,1290.01 1013.96,1289.06 1016.16,1288.1 1018.35,1335.72 1020.55,1335.23 1022.75,1334.73 1024.95,1334.23 1027.15,1333.73 1029.35,1333.22 1031.54,1332.71 1033.74,1332.19 1035.94,1331.66 1038.14,1331.14 1040.34,1330.6 1042.54,1330.06 1044.73,1329.51 1046.93,1328.96 1049.13,1328.41 1051.33,1327.84 1053.53,1327.28 1055.73,1326.7 1057.92,1326.12 1060.12,1325.54 1062.32,1324.95 1064.52,1324.35 1066.72,1323.75 1068.92,1323.14 1071.11,1322.52 1073.31,1321.9 1075.51,1321.27 1077.71,1320.64 1079.91,1320 1082.11,1319.35 1084.3,1318.7 1086.5,1318.04 1088.7,1317.37 1090.9,1316.7 1093.1,1316.02 1095.3,1315.33 1097.49,1314.64 1099.69,1313.94 1101.89,1313.23 1104.09,1312.51 1106.29,1311.79 1108.49,1311.06 1110.68,1310.33 1112.88,1309.58 1115.08,1308.83 1117.28,1346.18 1119.48,1345.8 1121.68,1345.41 1123.87,1345.02 1126.07,1344.63 1128.27,1344.23 1130.47,1343.83 1132.67,1343.42 1134.87,1343.01 1137.07,1342.59 1139.26,1342.17 1141.46,1341.75 1143.66,1341.32 1145.86,1340.89 1148.06,1340.45 1150.26,1340.01 1152.45,1339.56 1154.65,1339.11 1156.85,1338.66 1159.05,1338.2 1161.25,1337.74 1163.45,1337.27 1165.64,1336.8 1167.84,1336.32 1170.04,1335.83 1172.24,1335.35 1174.44,1334.85 1176.64,1334.36 1178.83,1333.85 1181.03,1333.35 1183.23,1332.83 1185.43,1332.32 1187.63,1331.79 1189.83,1331.27 1192.02,1330.73 1194.22,1330.19 1196.42,1329.65 1198.62,1329.1 1200.82,1328.54 1203.02,1327.98 1205.21,1327.42 1207.41,1326.84 1209.61,1326.27 1211.81,1325.68 1214.01,1325.09 1216.21,1324.5 1218.4,1323.89 1220.6,1323.29 1222.8,1322.67 1225,1322.05 1227.2,1321.43 1229.4,1320.79 1231.59,1320.16 1233.79,1351.9 1235.99,1351.58 1238.19,1351.25 1240.39,1350.92 1242.59,1350.58 1244.78,1350.24 1246.98,1349.9 1249.18,1349.55 1251.38,1349.2 1253.58,1348.85 1255.78,1348.49 1257.97,1348.13 1260.17,1347.77 1262.37,1347.4 1264.57,1347.03 1266.77,1346.66 1268.97,1346.28 1271.16,1345.9 1273.36,1345.51 1275.56,1345.12 1277.76,1344.72 1279.96,1344.33 1282.16,1343.92 1284.35,1343.52 1286.55,1343.11 1288.75,1342.69 1290.95,1342.28 1293.15,1341.85 1295.35,1341.43 1297.55,1340.99 1299.74,1340.56 1301.94,1340.12 1304.14,1339.67 1306.34,1339.22 1308.54,1338.77 1310.74,1338.31 1312.93,1337.85 1315.13,1337.38 1317.33,1336.91 1319.53,1336.43 1321.73,1335.95 1323.93,1335.47 1326.12,1334.98 1328.32,1334.48 1330.52,1333.98 1332.72,1333.47 1334.92,1332.96 1337.12,1332.44 1339.31,1331.92 1341.51,1331.4 1343.71,1330.86 1345.91,1330.33 1348.11,1329.78 1350.31,1329.23 1352.5,1328.68 1354.7,1328.12 1356.9,1327.56 1359.1,1326.98 1361.3,1326.41 1363.5,1325.83 1365.69,1325.24 1367.89,1324.64 1370.09,1324.04 1372.29,1323.44 1374.49,1322.82 1376.69,1322.21 1378.88,1321.58 1381.08,1320.95 1383.28,1320.31 1385.48,1319.67 1387.68,1319.02 1389.88,1318.36 1392.07,1317.7 1394.27,1317.03 1396.47,1316.35 1398.67,1315.67 1400.87,1314.98 1403.07,1314.28 1405.26,1313.58 1407.46,1312.87 1409.66,1312.15 1411.86,1311.42 1414.06,1310.69 1416.26,1309.95 1418.45,1309.2 1420.65,1308.44 1422.85,1307.68 1425.05,1306.91 1427.25,1306.13 1429.45,1305.34 1431.64,1304.55 1433.84,1303.75 1436.04,1302.94 1438.24,1302.12 1440.44,1301.29 1442.64,1300.46 1444.83,1341.96 1447.03,1341.53 1449.23,1341.1 1451.43,1340.67 1453.63,1340.23 1455.83,1339.78 1458.03,1339.34 1460.22,1338.88 1462.42,1338.43 1464.62,1337.96 1466.82,1337.5 1469.02,1337.03 1471.22,1336.55 1473.41,1336.07 1475.61,1335.59 1477.81,1335.1 1480.01,1334.6 1482.21,1334.1 1484.41,1333.6 1486.6,1333.09 1488.8,1332.57 1491,1332.05 1493.2,1331.53 1495.4,1330.99 1497.6,1330.46 1499.79,1329.92 1501.99,1329.37 1504.19,1328.82 1506.39,1356.28 1508.59,1356 1510.79,1355.71 1512.98,1369.86 1515.18,1369.72 1517.38,1369.57 1519.58,1369.42 1521.78,1369.27 1523.98,1369.12 1526.17,1368.97 1528.37,1368.81 1530.57,1368.66 1532.77,1368.5 1534.97,1368.34 1537.17,1368.18 1539.36,1368.02 1541.56,1367.86 1543.76,1367.69 1545.96,1367.52 1548.16,1367.35 1550.36,1367.18 1552.55,1367.01 1554.75,1366.84 1556.95,1366.66 1559.15,1366.48 1561.35,1366.31 1563.55,1366.12 1565.74,1365.94 1567.94,1365.76 1570.14,1365.57 1572.34,1365.38 1574.54,1365.19 1576.74,1365 1578.93,1364.81 1581.13,1364.61 1583.33,1364.41 1585.53,1364.21 1587.73,1374.15 1589.93,1374.05 1592.12,1373.95 1594.32,1373.84 1596.52,1373.74 1598.72,1373.63 1600.92,1373.53 1603.12,1373.42 1605.31,1373.31 1607.51,1373.2 1609.71,1373.09 1611.91,1372.97 1614.11,1372.86 1616.31,1372.74 1618.5,1372.63 1620.7,1372.51 1622.9,1378.35 1625.1,1378.29 1627.3,1381.26 1629.5,1381.23 1631.7,1381.2 1633.89,1381.17 1636.09,1381.14 1638.29,1381.11 1640.49,1381.07 1642.69,1382.67 1644.89,1382.65 1647.08,1382.64 1649.28,1382.62 1651.48,1382.6 1653.68,1382.59 1655.88,1382.57 1658.08,1382.55 1660.27,1382.53 1662.47,1382.52 1664.67,1382.5 1666.87,1382.48 1669.07,1382.46 1671.27,1382.44 1673.46,1382.43 1675.66,1382.41 1677.86,1382.39 1680.06,1382.37 1682.26,1382.35 1684.46,1382.33 1686.65,1382.31 1688.85,1382.29 1691.05,1382.27 1693.25,1382.25 1695.45,1382.23 1697.65,1382.21 1699.84,1382.19 1702.04,1382.17 1704.24,1382.14 1706.44,1382.12 1708.64,1382.1 1710.84,1382.08 1713.03,1382.06 1715.23,1382.03 1717.43,1382.01 1719.63,1381.99 1721.83,1381.96 1724.03,1381.94 1726.22,1381.92 1728.42,1381.89 1730.62,1381.87 1732.82,1381.84 1735.02,1383.06 1737.22,1383.05 1739.41,1383.03 1741.61,1383.02 1743.81,1383.01 1746.01,1383 1748.21,1382.98 1750.41,1382.97 1752.6,1382.96 1754.8,1382.94 1757,1382.93 1759.2,1382.91 1761.4,1382.9 1763.6,1383.59 1765.79,1383.59 1767.99,1383.58 1770.19,1383.57 1772.39,1383.56 1774.59,1383.56 1776.79,1383.55 1778.98,1383.54 1781.18,1383.53 1783.38,1383.53 1785.58,1383.52 1787.78,1383.51 1789.98,1383.5 1792.18,1383.49 1794.37,1383.49 1796.57,1383.48 1798.77,1383.88 1800.97,1383.88 1803.17,1383.88 1805.37,1383.87 1807.56,1383.87 1809.76,1383.86 1811.96,1383.86 1814.16,1383.85 1816.36,1383.85 1818.56,1383.85 1820.75,1383.84 1822.95,1383.84 1825.15,1383.83 1827.35,1384.06 1829.55,1384.06 1831.75,1384.06 1833.94,1384.06 1836.14,1384.05 1838.34,1384.05 1840.54,1384.05 1842.74,1384.05 1844.94,1384.04 1847.13,1384.04 1849.33,1384.04 1851.53,1384.04 1853.73,1384.03 1855.93,1384.03 1858.13,1384.03 1860.32,1384.02 1862.52,1384.02 1864.72,1384.02 1866.92,1384.02 1869.12,1384.01 1871.32,1384.01 1873.51,1384.01 1875.71,1384.01 1877.91,1384 1880.11,1384 1882.31,1384.15 1884.51,1384.15 1886.7,1384.14 1888.9,1384.14 1891.1,1384.14 1893.3,1384.14 1895.5,1384.14 1897.7,1384.14 1899.89,1384.14 1902.09,1384.13 1904.29,1384.13 1906.49,1384.13 1908.69,1384.13 1910.89,1384.13 1913.08,1384.12 1915.28,1384.12 1917.48,1384.12 1919.68,1384.12 1921.88,1384.12 1924.08,1384.12 1926.27,1384.11 1928.47,1384.11 1930.67,1384.11 1932.87,1384.11 1935.07,1384.11 1937.27,1384.1 1939.46,1384.1 1941.66,1384.1 1943.86,1384.1 1946.06,1384.1 1948.26,1384.09 1950.46,1384.09 1952.66,1384.09 1954.85,1384.09 1957.05,1384.09 1959.25,1384.08 1961.45,1384.08 1963.65,1384.08 1965.85,1384.08 1968.04,1384.08 1970.24,1384.07 1972.44,1384.07 1974.64,1384.07 1976.84,1384.07 1979.04,1384.06 1981.23,1384.06 1983.43,1384.06 1985.63,1384.06 1987.83,1384.05 1990.03,1384.05 1992.23,1384.05 1994.42,1384.05 1996.62,1384.04 1998.82,1384.04 2001.02,1384.04 2003.22,1384.04 2005.42,1384.03 2007.61,1384.03 2009.81,1384.03 2012.01,1384.03 2014.21,1384.02 2016.41,1384.02 2018.61,1384.02 2020.8,1384.01 2023,1384.01 2025.2,1384.01 2027.4,1384.01 2029.6,1384.15 2031.8,1384.15 2033.99,1384.15 2036.19,1384.15 2038.39,1384.14 2040.59,1384.14 2042.79,1384.14 2044.99,1384.14 2047.18,1384.14 2049.38,1384.14 2051.58,1384.14 2053.78,1384.13 2055.98,1384.13 2058.18,1384.13 2060.37,1384.13 2062.57,1384.13 2064.77,1384.13 2066.97,1384.12 2069.17,1384.12 2071.37,1384.12 2073.56,1384.12 2075.76,1384.12 2077.96,1384.11 2080.16,1384.11 2082.36,1384.11 2084.56,1384.11 2086.75,1384.11 2088.95,1384.11 2091.15,1384.1 2093.35,1384.1 2095.55,1384.1 2097.75,1384.1 2099.94,1384.1 2102.14,1384.09 2104.34,1384.09 2106.54,1384.09 2108.74,1384.09 2110.94,1384.08 2113.14,1384.19 2115.33,1384.19 2117.53,1384.19 2119.73,1384.19 2121.93,1384.19 2124.13,1384.19 2126.33,1384.18 2128.52,1384.18 2130.72,1384.18 2132.92,1384.18 2135.12,1384.18 2137.32,1384.18 2139.52,1384.18 2141.71,1384.18 2143.91,1384.17 2146.11,1384.17 2148.31,1384.17 2150.51,1384.17 2152.71,1384.17 2154.9,1384.17 2157.1,1384.17 2159.3,1384.17 2161.5,1384.16 2163.7,1384.16 2165.9,1384.16 2168.09,1384.16 2170.29,1384.16 2172.49,1384.16 2174.69,1384.16 2176.89,1384.15 2179.09,1384.15 2181.28,1384.15 2183.48,1384.15 2185.68,1384.15 2187.88,1384.15 2190.08,1384.15 2192.28,1384.14 2194.47,1384.14 2196.67,1384.14 2198.87,1384.14 2201.07,1384.14 2203.27,1384.14 2205.47,1384.13 2207.66,1384.22 2209.86,1384.22 2212.06,1384.21 2214.26,1384.21 2216.46,1384.21 2218.66,1384.21 2220.85,1384.21 2223.05,1384.21 2225.25,1384.21 2227.45,1384.21 2229.65,1384.21 2231.85,1384.21 2234.04,1384.21 2236.24,1384.2 2238.44,1384.2 2240.64,1384.2 2242.84,1384.2 2245.04,1384.2 2247.23,1384.2 2249.43,1384.2 2251.63,1384.2 2253.83,1384.2 2256.03,1384.2 2258.23,1384.19 2260.42,1384.19 2262.62,1384.19 2264.82,1384.19 2267.02,1384.19 2269.22,1384.19 2271.42,1384.19 2273.62,1384.19 2275.81,1384.19 2278.01,1384.18 2280.21,1384.18 2282.41,1384.18 2284.61,1384.18 2286.81,1384.18 2289,1384.18 2291.2,1384.24 2293.4,1384.24 2295.6,1384.24 2297.8,1384.24 2300,1384.24 2302.19,1384.24 2304.39,1384.23 2306.59,1384.23 2308.79,1384.23 2310.99,1384.23 2313.19,1384.23 2315.38,1384.23 2317.58,1384.23 2319.78,1384.23 2321.98,1384.23 2324.18,1384.23 2326.38,1384.23 2328.57,1384.23 2330.77,1384.23 2332.97,1384.23 2335.17,1384.22 2337.37,1384.22 2339.57,1384.22 2341.76,1384.22 2343.96,1384.22 2346.16,1384.22 2348.36,1384.22 2350.56,1384.22 2352.76,1384.22 "/>
<path clip-path="url(#clip850)" d="M1970.84 196.789 L2279.55 196.789 L2279.55 93.1086 L1970.84 93.1086  Z" fill="#ffffff" fill-rule="evenodd" fill-opacity="1"/>
<polyline clip-path="url(#clip850)" style="stroke:#000000; stroke-linecap:round; stroke-linejoin:round; stroke-width:4; stroke-opacity:1; fill:none" points="1970.84,196.789 2279.55,196.789 2279.55,93.1086 1970.84,93.1086 1970.84,196.789 "/>
<polyline clip-path="url(#clip850)" style="stroke:#009af9; stroke-linecap:round; stroke-linejoin:round; stroke-width:8; stroke-opacity:1; fill:none" points="1995.24,144.949 2141.65,144.949 "/>
<path clip-path="url(#clip850)" d="M2166.05 151.997 L2166.05 136.303 L2170.31 136.303 L2170.31 151.835 Q2170.31 155.516 2171.75 157.368 Q2173.18 159.196 2176.05 159.196 Q2179.5 159.196 2181.49 156.997 Q2183.51 154.798 2183.51 151.002 L2183.51 136.303 L2187.76 136.303 L2187.76 162.229 L2183.51 162.229 L2183.51 158.247 Q2181.95 160.608 2179.89 161.766 Q2177.86 162.9 2175.15 162.9 Q2170.68 162.9 2168.37 160.122 Q2166.05 157.344 2166.05 151.997 M2176.77 135.678 L2176.77 135.678 Z" fill="#000000" fill-rule="nonzero" fill-opacity="1" /><path clip-path="url(#clip850)" d="M2196.14 126.21 L2205.96 126.21 L2205.96 129.52 L2200.4 129.52 L2200.4 165.168 L2205.96 165.168 L2205.96 168.479 L2196.14 168.479 L2196.14 126.21 Z" fill="#000000" fill-rule="nonzero" fill-opacity="1" /><path clip-path="url(#clip850)" d="M2216.45 158.293 L2224.08 158.293 L2224.08 131.928 L2215.77 133.595 L2215.77 129.335 L2224.04 127.669 L2228.71 127.669 L2228.71 158.293 L2236.35 158.293 L2236.35 162.229 L2216.45 162.229 L2216.45 158.293 Z" fill="#000000" fill-rule="nonzero" fill-opacity="1" /><path clip-path="url(#clip850)" d="M2255.15 126.21 L2255.15 168.479 L2245.33 168.479 L2245.33 165.168 L2250.87 165.168 L2250.87 129.52 L2245.33 129.52 L2245.33 126.21 L2255.15 126.21 Z" fill="#000000" fill-rule="nonzero" fill-opacity="1" /></svg>
