<?xml version="1.0" encoding="utf-8"?>
<svg xmlns="http://www.w3.org/2000/svg" xmlns:xlink="http://www.w3.org/1999/xlink" width="600" height="400" viewBox="0 0 2400 1600">
<defs>
  <clipPath id="clip880">
    <rect x="0" y="0" width="2400" height="1600"/>
  </clipPath>
</defs>
<path clip-path="url(#clip880)" d="M0 1600 L2400 1600 L2400 0 L0 0  Z" fill="#ffffff" fill-rule="evenodd" fill-opacity="1"/>
<defs>
  <clipPath id="clip881">
    <rect x="155" y="47" width="2198" height="1377"/>
  </clipPath>
</defs>
<path clip-path="url(#clip880)" d="M155.765 1423.18 L2352.76 1423.18 L2352.76 47.2441 L155.765 47.2441  Z" fill="#ffffff" fill-rule="evenodd" fill-opacity="1"/>
<polyline clip-path="url(#clip881)" style="stroke:#000000; stroke-linecap:round; stroke-linejoin:round; stroke-width:2; stroke-opacity:0.1; fill:none" points="155.765,1423.18 155.765,47.2441 "/>
<polyline clip-path="url(#clip881)" style="stroke:#000000; stroke-linecap:round; stroke-linejoin:round; stroke-width:2; stroke-opacity:0.1; fill:none" points="595.163,1423.18 595.163,47.2441 "/>
<polyline clip-path="url(#clip881)" style="stroke:#000000; stroke-linecap:round; stroke-linejoin:round; stroke-width:2; stroke-opacity:0.1; fill:none" points="1034.56,1423.18 1034.56,47.2441 "/>
<polyline clip-path="url(#clip881)" style="stroke:#000000; stroke-linecap:round; stroke-linejoin:round; stroke-width:2; stroke-opacity:0.1; fill:none" points="1473.96,1423.18 1473.96,47.2441 "/>
<polyline clip-path="url(#clip881)" style="stroke:#000000; stroke-linecap:round; stroke-linejoin:round; stroke-width:2; stroke-opacity:0.1; fill:none" points="1913.36,1423.18 1913.36,47.2441 "/>
<polyline clip-path="url(#clip881)" style="stroke:#000000; stroke-linecap:round; stroke-linejoin:round; stroke-width:2; stroke-opacity:0.1; fill:none" points="2352.76,1423.18 2352.76,47.2441 "/>
<polyline clip-path="url(#clip881)" style="stroke:#000000; stroke-linecap:round; stroke-linejoin:round; stroke-width:2; stroke-opacity:0.1; fill:none" points="155.765,1241.36 2352.76,1241.36 "/>
<polyline clip-path="url(#clip881)" style="stroke:#000000; stroke-linecap:round; stroke-linejoin:round; stroke-width:2; stroke-opacity:0.1; fill:none" points="155.765,1003.24 2352.76,1003.24 "/>
<polyline clip-path="url(#clip881)" style="stroke:#000000; stroke-linecap:round; stroke-linejoin:round; stroke-width:2; stroke-opacity:0.1; fill:none" points="155.765,765.115 2352.76,765.115 "/>
<polyline clip-path="url(#clip881)" style="stroke:#000000; stroke-linecap:round; stroke-linejoin:round; stroke-width:2; stroke-opacity:0.1; fill:none" points="155.765,526.99 2352.76,526.99 "/>
<polyline clip-path="url(#clip881)" style="stroke:#000000; stroke-linecap:round; stroke-linejoin:round; stroke-width:2; stroke-opacity:0.1; fill:none" points="155.765,288.866 2352.76,288.866 "/>
<polyline clip-path="url(#clip881)" style="stroke:#000000; stroke-linecap:round; stroke-linejoin:round; stroke-width:2; stroke-opacity:0.1; fill:none" points="155.765,50.7413 2352.76,50.7413 "/>
<polyline clip-path="url(#clip880)" style="stroke:#000000; stroke-linecap:round; stroke-linejoin:round; stroke-width:4; stroke-opacity:1; fill:none" points="155.765,1423.18 2352.76,1423.18 "/>
<polyline clip-path="url(#clip880)" style="stroke:#000000; stroke-linecap:round; stroke-linejoin:round; stroke-width:4; stroke-opacity:1; fill:none" points="155.765,1423.18 155.765,1404.28 "/>
<polyline clip-path="url(#clip880)" style="stroke:#000000; stroke-linecap:round; stroke-linejoin:round; stroke-width:4; stroke-opacity:1; fill:none" points="595.163,1423.18 595.163,1404.28 "/>
<polyline clip-path="url(#clip880)" style="stroke:#000000; stroke-linecap:round; stroke-linejoin:round; stroke-width:4; stroke-opacity:1; fill:none" points="1034.56,1423.18 1034.56,1404.28 "/>
<polyline clip-path="url(#clip880)" style="stroke:#000000; stroke-linecap:round; stroke-linejoin:round; stroke-width:4; stroke-opacity:1; fill:none" points="1473.96,1423.18 1473.96,1404.28 "/>
<polyline clip-path="url(#clip880)" style="stroke:#000000; stroke-linecap:round; stroke-linejoin:round; stroke-width:4; stroke-opacity:1; fill:none" points="1913.36,1423.18 1913.36,1404.28 "/>
<polyline clip-path="url(#clip880)" style="stroke:#000000; stroke-linecap:round; stroke-linejoin:round; stroke-width:4; stroke-opacity:1; fill:none" points="2352.76,1423.18 2352.76,1404.28 "/>
<path clip-path="url(#clip880)" d="M155.765 1454.1 Q152.154 1454.1 150.325 1457.66 Q148.52 1461.2 148.52 1468.33 Q148.52 1475.44 150.325 1479.01 Q152.154 1482.55 155.765 1482.55 Q159.399 1482.55 161.205 1479.01 Q163.033 1475.44 163.033 1468.33 Q163.033 1461.2 161.205 1457.66 Q159.399 1454.1 155.765 1454.1 M155.765 1450.39 Q161.575 1450.39 164.631 1455 Q167.709 1459.58 167.709 1468.33 Q167.709 1477.06 164.631 1481.67 Q161.575 1486.25 155.765 1486.25 Q149.955 1486.25 146.876 1481.67 Q143.821 1477.06 143.821 1468.33 Q143.821 1459.58 146.876 1455 Q149.955 1450.39 155.765 1450.39 Z" fill="#000000" fill-rule="nonzero" fill-opacity="1" /><path clip-path="url(#clip880)" d="M589.816 1481.64 L606.135 1481.64 L606.135 1485.58 L584.191 1485.58 L584.191 1481.64 Q586.853 1478.89 591.436 1474.26 Q596.043 1469.61 597.223 1468.27 Q599.469 1465.74 600.348 1464.01 Q601.251 1462.25 601.251 1460.56 Q601.251 1457.8 599.307 1456.07 Q597.385 1454.33 594.283 1454.33 Q592.084 1454.33 589.631 1455.09 Q587.2 1455.86 584.422 1457.41 L584.422 1452.69 Q587.246 1451.55 589.7 1450.97 Q592.154 1450.39 594.191 1450.39 Q599.561 1450.39 602.756 1453.08 Q605.95 1455.77 605.95 1460.26 Q605.95 1462.39 605.14 1464.31 Q604.353 1466.2 602.246 1468.8 Q601.668 1469.47 598.566 1472.69 Q595.464 1475.88 589.816 1481.64 Z" fill="#000000" fill-rule="nonzero" fill-opacity="1" /><path clip-path="url(#clip880)" d="M1037.57 1455.09 L1025.77 1473.54 L1037.57 1473.54 L1037.57 1455.09 M1036.34 1451.02 L1042.22 1451.02 L1042.22 1473.54 L1047.15 1473.54 L1047.15 1477.43 L1042.22 1477.43 L1042.22 1485.58 L1037.57 1485.58 L1037.57 1477.43 L1021.97 1477.43 L1021.97 1472.92 L1036.34 1451.02 Z" fill="#000000" fill-rule="nonzero" fill-opacity="1" /><path clip-path="url(#clip880)" d="M1474.36 1466.44 Q1471.22 1466.44 1469.36 1468.59 Q1467.54 1470.74 1467.54 1474.49 Q1467.54 1478.22 1469.36 1480.39 Q1471.22 1482.55 1474.36 1482.55 Q1477.51 1482.55 1479.34 1480.39 Q1481.19 1478.22 1481.19 1474.49 Q1481.19 1470.74 1479.34 1468.59 Q1477.51 1466.44 1474.36 1466.44 M1483.65 1451.78 L1483.65 1456.04 Q1481.89 1455.21 1480.08 1454.77 Q1478.3 1454.33 1476.54 1454.33 Q1471.91 1454.33 1469.46 1457.45 Q1467.03 1460.58 1466.68 1466.9 Q1468.05 1464.89 1470.11 1463.82 Q1472.17 1462.73 1474.64 1462.73 Q1479.85 1462.73 1482.86 1465.9 Q1485.89 1469.05 1485.89 1474.49 Q1485.89 1479.82 1482.74 1483.03 Q1479.6 1486.25 1474.36 1486.25 Q1468.37 1486.25 1465.2 1481.67 Q1462.03 1477.06 1462.03 1468.33 Q1462.03 1460.14 1465.92 1455.28 Q1469.8 1450.39 1476.36 1450.39 Q1478.11 1450.39 1479.9 1450.74 Q1481.7 1451.09 1483.65 1451.78 Z" fill="#000000" fill-rule="nonzero" fill-opacity="1" /><path clip-path="url(#clip880)" d="M1913.36 1469.17 Q1910.02 1469.17 1908.1 1470.95 Q1906.2 1472.73 1906.2 1475.86 Q1906.2 1478.98 1908.1 1480.77 Q1910.02 1482.55 1913.36 1482.55 Q1916.69 1482.55 1918.61 1480.77 Q1920.53 1478.96 1920.53 1475.86 Q1920.53 1472.73 1918.61 1470.95 Q1916.71 1469.17 1913.36 1469.17 M1908.68 1467.18 Q1905.67 1466.44 1903.98 1464.38 Q1902.32 1462.32 1902.32 1459.35 Q1902.32 1455.21 1905.26 1452.8 Q1908.22 1450.39 1913.36 1450.39 Q1918.52 1450.39 1921.46 1452.8 Q1924.4 1455.21 1924.4 1459.35 Q1924.4 1462.32 1922.71 1464.38 Q1921.04 1466.44 1918.06 1467.18 Q1921.44 1467.96 1923.31 1470.26 Q1925.21 1472.55 1925.21 1475.86 Q1925.21 1480.88 1922.13 1483.57 Q1919.08 1486.25 1913.36 1486.25 Q1907.64 1486.25 1904.56 1483.57 Q1901.51 1480.88 1901.51 1475.86 Q1901.51 1472.55 1903.4 1470.26 Q1905.3 1467.96 1908.68 1467.18 M1906.97 1459.79 Q1906.97 1462.48 1908.64 1463.98 Q1910.33 1465.49 1913.36 1465.49 Q1916.37 1465.49 1918.06 1463.98 Q1919.77 1462.48 1919.77 1459.79 Q1919.77 1457.11 1918.06 1455.6 Q1916.37 1454.1 1913.36 1454.1 Q1910.33 1454.1 1908.64 1455.6 Q1906.97 1457.11 1906.97 1459.79 Z" fill="#000000" fill-rule="nonzero" fill-opacity="1" /><path clip-path="url(#clip880)" d="M2327.44 1481.64 L2335.08 1481.64 L2335.08 1455.28 L2326.77 1456.95 L2326.77 1452.69 L2335.04 1451.02 L2339.71 1451.02 L2339.71 1481.64 L2347.35 1481.64 L2347.35 1485.58 L2327.44 1485.58 L2327.44 1481.64 Z" fill="#000000" fill-rule="nonzero" fill-opacity="1" /><path clip-path="url(#clip880)" d="M2366.8 1454.1 Q2363.18 1454.1 2361.36 1457.66 Q2359.55 1461.2 2359.55 1468.33 Q2359.55 1475.44 2361.36 1479.01 Q2363.18 1482.55 2366.8 1482.55 Q2370.43 1482.55 2372.23 1479.01 Q2374.06 1475.44 2374.06 1468.33 Q2374.06 1461.2 2372.23 1457.66 Q2370.43 1454.1 2366.8 1454.1 M2366.8 1450.39 Q2372.61 1450.39 2375.66 1455 Q2378.74 1459.58 2378.74 1468.33 Q2378.74 1477.06 2375.66 1481.67 Q2372.61 1486.25 2366.8 1486.25 Q2360.99 1486.25 2357.91 1481.67 Q2354.85 1477.06 2354.85 1468.33 Q2354.85 1459.58 2357.91 1455 Q2360.99 1450.39 2366.8 1450.39 Z" fill="#000000" fill-rule="nonzero" fill-opacity="1" /><path clip-path="url(#clip880)" d="M1253.32 1522.27 L1253.32 1532.4 L1265.38 1532.4 L1265.38 1536.95 L1253.32 1536.95 L1253.32 1556.3 Q1253.32 1560.66 1254.5 1561.9 Q1255.71 1563.14 1259.37 1563.14 L1265.38 1563.14 L1265.38 1568.04 L1259.37 1568.04 Q1252.59 1568.04 1250.01 1565.53 Q1247.43 1562.98 1247.43 1556.3 L1247.43 1536.95 L1243.14 1536.95 L1243.14 1532.4 L1247.43 1532.4 L1247.43 1522.27 L1253.32 1522.27 Z" fill="#000000" fill-rule="nonzero" fill-opacity="1" /><polyline clip-path="url(#clip880)" style="stroke:#000000; stroke-linecap:round; stroke-linejoin:round; stroke-width:4; stroke-opacity:1; fill:none" points="155.765,1423.18 155.765,47.2441 "/>
<polyline clip-path="url(#clip880)" style="stroke:#000000; stroke-linecap:round; stroke-linejoin:round; stroke-width:4; stroke-opacity:1; fill:none" points="155.765,1241.36 174.663,1241.36 "/>
<polyline clip-path="url(#clip880)" style="stroke:#000000; stroke-linecap:round; stroke-linejoin:round; stroke-width:4; stroke-opacity:1; fill:none" points="155.765,1003.24 174.663,1003.24 "/>
<polyline clip-path="url(#clip880)" style="stroke:#000000; stroke-linecap:round; stroke-linejoin:round; stroke-width:4; stroke-opacity:1; fill:none" points="155.765,765.115 174.663,765.115 "/>
<polyline clip-path="url(#clip880)" style="stroke:#000000; stroke-linecap:round; stroke-linejoin:round; stroke-width:4; stroke-opacity:1; fill:none" points="155.765,526.99 174.663,526.99 "/>
<polyline clip-path="url(#clip880)" style="stroke:#000000; stroke-linecap:round; stroke-linejoin:round; stroke-width:4; stroke-opacity:1; fill:none" points="155.765,288.866 174.663,288.866 "/>
<polyline clip-path="url(#clip880)" style="stroke:#000000; stroke-linecap:round; stroke-linejoin:round; stroke-width:4; stroke-opacity:1; fill:none" points="155.765,50.7413 174.663,50.7413 "/>
<path clip-path="url(#clip880)" d="M63.5847 1227.16 Q59.9736 1227.16 58.1449 1230.73 Q56.3393 1234.27 56.3393 1241.4 Q56.3393 1248.5 58.1449 1252.07 Q59.9736 1255.61 63.5847 1255.61 Q67.2189 1255.61 69.0244 1252.07 Q70.8531 1248.5 70.8531 1241.4 Q70.8531 1234.27 69.0244 1230.73 Q67.2189 1227.16 63.5847 1227.16 M63.5847 1223.46 Q69.3948 1223.46 72.4503 1228.07 Q75.529 1232.65 75.529 1241.4 Q75.529 1250.13 72.4503 1254.73 Q69.3948 1259.31 63.5847 1259.31 Q57.7745 1259.31 54.6958 1254.73 Q51.6403 1250.13 51.6403 1241.4 Q51.6403 1232.65 54.6958 1228.07 Q57.7745 1223.46 63.5847 1223.46 Z" fill="#000000" fill-rule="nonzero" fill-opacity="1" /><path clip-path="url(#clip880)" d="M83.7466 1252.76 L88.6308 1252.76 L88.6308 1258.64 L83.7466 1258.64 L83.7466 1252.76 Z" fill="#000000" fill-rule="nonzero" fill-opacity="1" /><path clip-path="url(#clip880)" d="M98.8622 1224.08 L117.219 1224.08 L117.219 1228.02 L103.145 1228.02 L103.145 1236.49 Q104.163 1236.14 105.182 1235.98 Q106.2 1235.8 107.219 1235.8 Q113.006 1235.8 116.385 1238.97 Q119.765 1242.14 119.765 1247.56 Q119.765 1253.13 116.293 1256.24 Q112.82 1259.31 106.501 1259.31 Q104.325 1259.31 102.057 1258.94 Q99.8113 1258.57 97.4039 1257.83 L97.4039 1253.13 Q99.4872 1254.27 101.709 1254.82 Q103.932 1255.38 106.408 1255.38 Q110.413 1255.38 112.751 1253.27 Q115.089 1251.17 115.089 1247.56 Q115.089 1243.94 112.751 1241.84 Q110.413 1239.73 106.408 1239.73 Q104.534 1239.73 102.659 1240.15 Q100.807 1240.56 98.8622 1241.44 L98.8622 1224.08 Z" fill="#000000" fill-rule="nonzero" fill-opacity="1" /><path clip-path="url(#clip880)" d="M53.3995 1016.58 L61.0384 1016.58 L61.0384 990.218 L52.7282 991.885 L52.7282 987.626 L60.9921 985.959 L65.668 985.959 L65.668 1016.58 L73.3068 1016.58 L73.3068 1020.52 L53.3995 1020.52 L53.3995 1016.58 Z" fill="#000000" fill-rule="nonzero" fill-opacity="1" /><path clip-path="url(#clip880)" d="M82.7512 1014.64 L87.6354 1014.64 L87.6354 1020.52 L82.7512 1020.52 L82.7512 1014.64 Z" fill="#000000" fill-rule="nonzero" fill-opacity="1" /><path clip-path="url(#clip880)" d="M107.821 989.038 Q104.209 989.038 102.381 992.603 Q100.575 996.144 100.575 1003.27 Q100.575 1010.38 102.381 1013.95 Q104.209 1017.49 107.821 1017.49 Q111.455 1017.49 113.26 1013.95 Q115.089 1010.38 115.089 1003.27 Q115.089 996.144 113.26 992.603 Q111.455 989.038 107.821 989.038 M107.821 985.334 Q113.631 985.334 116.686 989.941 Q119.765 994.524 119.765 1003.27 Q119.765 1012 116.686 1016.61 Q113.631 1021.19 107.821 1021.19 Q102.01 1021.19 98.9317 1016.61 Q95.8761 1012 95.8761 1003.27 Q95.8761 994.524 98.9317 989.941 Q102.01 985.334 107.821 985.334 Z" fill="#000000" fill-rule="nonzero" fill-opacity="1" /><path clip-path="url(#clip880)" d="M54.3949 778.46 L62.0337 778.46 L62.0337 752.094 L53.7236 753.761 L53.7236 749.501 L61.9874 747.835 L66.6633 747.835 L66.6633 778.46 L74.3022 778.46 L74.3022 782.395 L54.3949 782.395 L54.3949 778.46 Z" fill="#000000" fill-rule="nonzero" fill-opacity="1" /><path clip-path="url(#clip880)" d="M83.7466 776.515 L88.6308 776.515 L88.6308 782.395 L83.7466 782.395 L83.7466 776.515 Z" fill="#000000" fill-rule="nonzero" fill-opacity="1" /><path clip-path="url(#clip880)" d="M98.8622 747.835 L117.219 747.835 L117.219 751.77 L103.145 751.77 L103.145 760.242 Q104.163 759.895 105.182 759.733 Q106.2 759.548 107.219 759.548 Q113.006 759.548 116.385 762.719 Q119.765 765.89 119.765 771.307 Q119.765 776.885 116.293 779.987 Q112.82 783.066 106.501 783.066 Q104.325 783.066 102.057 782.696 Q99.8113 782.325 97.4039 781.584 L97.4039 776.885 Q99.4872 778.02 101.709 778.575 Q103.932 779.131 106.408 779.131 Q110.413 779.131 112.751 777.024 Q115.089 774.918 115.089 771.307 Q115.089 767.696 112.751 765.589 Q110.413 763.483 106.408 763.483 Q104.534 763.483 102.659 763.899 Q100.807 764.316 98.8622 765.196 L98.8622 747.835 Z" fill="#000000" fill-rule="nonzero" fill-opacity="1" /><path clip-path="url(#clip880)" d="M56.6171 540.335 L72.9365 540.335 L72.9365 544.27 L50.9921 544.27 L50.9921 540.335 Q53.6541 537.58 58.2375 532.951 Q62.8439 528.298 64.0245 526.955 Q66.2698 524.432 67.1494 522.696 Q68.0522 520.937 68.0522 519.247 Q68.0522 516.493 66.1078 514.756 Q64.1865 513.02 61.0847 513.02 Q58.8856 513.02 56.4319 513.784 Q54.0014 514.548 51.2236 516.099 L51.2236 511.377 Q54.0477 510.243 56.5014 509.664 Q58.955 509.085 60.9921 509.085 Q66.3624 509.085 69.5568 511.77 Q72.7513 514.456 72.7513 518.946 Q72.7513 521.076 71.9411 522.997 Q71.1541 524.895 69.0476 527.488 Q68.4689 528.159 65.367 531.377 Q62.2652 534.571 56.6171 540.335 Z" fill="#000000" fill-rule="nonzero" fill-opacity="1" /><path clip-path="url(#clip880)" d="M82.7512 538.391 L87.6354 538.391 L87.6354 544.27 L82.7512 544.27 L82.7512 538.391 Z" fill="#000000" fill-rule="nonzero" fill-opacity="1" /><path clip-path="url(#clip880)" d="M107.821 512.789 Q104.209 512.789 102.381 516.354 Q100.575 519.895 100.575 527.025 Q100.575 534.131 102.381 537.696 Q104.209 541.238 107.821 541.238 Q111.455 541.238 113.26 537.696 Q115.089 534.131 115.089 527.025 Q115.089 519.895 113.26 516.354 Q111.455 512.789 107.821 512.789 M107.821 509.085 Q113.631 509.085 116.686 513.692 Q119.765 518.275 119.765 527.025 Q119.765 535.752 116.686 540.358 Q113.631 544.942 107.821 544.942 Q102.01 544.942 98.9317 540.358 Q95.8761 535.752 95.8761 527.025 Q95.8761 518.275 98.9317 513.692 Q102.01 509.085 107.821 509.085 Z" fill="#000000" fill-rule="nonzero" fill-opacity="1" /><path clip-path="url(#clip880)" d="M57.6125 302.211 L73.9318 302.211 L73.9318 306.146 L51.9875 306.146 L51.9875 302.211 Q54.6495 299.456 59.2328 294.826 Q63.8393 290.174 65.0198 288.831 Q67.2652 286.308 68.1448 284.572 Q69.0476 282.813 69.0476 281.123 Q69.0476 278.368 67.1032 276.632 Q65.1819 274.896 62.08 274.896 Q59.881 274.896 57.4273 275.66 Q54.9967 276.424 52.219 277.975 L52.219 273.252 Q55.043 272.118 57.4967 271.539 Q59.9504 270.961 61.9874 270.961 Q67.3578 270.961 70.5522 273.646 Q73.7466 276.331 73.7466 280.822 Q73.7466 282.951 72.9365 284.873 Q72.1494 286.771 70.0429 289.363 Q69.4642 290.035 66.3624 293.252 Q63.2606 296.447 57.6125 302.211 Z" fill="#000000" fill-rule="nonzero" fill-opacity="1" /><path clip-path="url(#clip880)" d="M83.7466 300.266 L88.6308 300.266 L88.6308 306.146 L83.7466 306.146 L83.7466 300.266 Z" fill="#000000" fill-rule="nonzero" fill-opacity="1" /><path clip-path="url(#clip880)" d="M98.8622 271.586 L117.219 271.586 L117.219 275.521 L103.145 275.521 L103.145 283.993 Q104.163 283.646 105.182 283.484 Q106.2 283.299 107.219 283.299 Q113.006 283.299 116.385 286.47 Q119.765 289.641 119.765 295.058 Q119.765 300.637 116.293 303.738 Q112.82 306.817 106.501 306.817 Q104.325 306.817 102.057 306.447 Q99.8113 306.076 97.4039 305.336 L97.4039 300.637 Q99.4872 301.771 101.709 302.326 Q103.932 302.882 106.408 302.882 Q110.413 302.882 112.751 300.775 Q115.089 298.669 115.089 295.058 Q115.089 291.447 112.751 289.34 Q110.413 287.234 106.408 287.234 Q104.534 287.234 102.659 287.65 Q100.807 288.067 98.8622 288.947 L98.8622 271.586 Z" fill="#000000" fill-rule="nonzero" fill-opacity="1" /><path clip-path="url(#clip880)" d="M66.7559 49.3871 Q70.1124 50.1047 71.9874 52.3732 Q73.8855 54.6417 73.8855 57.9751 Q73.8855 63.0908 70.367 65.8917 Q66.8485 68.6926 60.3671 68.6926 Q58.1912 68.6926 55.8764 68.2528 Q53.5847 67.8361 51.131 66.9796 L51.131 62.4658 Q53.0754 63.6 55.3903 64.1787 Q57.7051 64.7574 60.2282 64.7574 Q64.6263 64.7574 66.918 63.0213 Q69.2328 61.2852 69.2328 57.9751 Q69.2328 54.9195 67.08 53.2066 Q64.9504 51.4705 61.131 51.4705 L57.1032 51.4705 L57.1032 47.6279 L61.3161 47.6279 Q64.7652 47.6279 66.5939 46.2622 Q68.4226 44.8733 68.4226 42.2807 Q68.4226 39.6187 66.5245 38.2066 Q64.6495 36.7715 61.131 36.7715 Q59.2097 36.7715 57.0106 37.1881 Q54.8115 37.6048 52.1727 38.4844 L52.1727 34.3178 Q54.8347 33.577 57.1495 33.2067 Q59.4875 32.8363 61.5476 32.8363 Q66.8717 32.8363 69.9735 35.2668 Q73.0753 37.6742 73.0753 41.7946 Q73.0753 44.6649 71.4318 46.6557 Q69.7883 48.6233 66.7559 49.3871 Z" fill="#000000" fill-rule="nonzero" fill-opacity="1" /><path clip-path="url(#clip880)" d="M82.7512 62.1417 L87.6354 62.1417 L87.6354 68.0213 L82.7512 68.0213 L82.7512 62.1417 Z" fill="#000000" fill-rule="nonzero" fill-opacity="1" /><path clip-path="url(#clip880)" d="M107.821 36.54 Q104.209 36.54 102.381 40.1048 Q100.575 43.6464 100.575 50.776 Q100.575 57.8825 102.381 61.4473 Q104.209 64.9889 107.821 64.9889 Q111.455 64.9889 113.26 61.4473 Q115.089 57.8825 115.089 50.776 Q115.089 43.6464 113.26 40.1048 Q111.455 36.54 107.821 36.54 M107.821 32.8363 Q113.631 32.8363 116.686 37.4428 Q119.765 42.0261 119.765 50.776 Q119.765 59.5028 116.686 64.1093 Q113.631 68.6926 107.821 68.6926 Q102.01 68.6926 98.9317 64.1093 Q95.8761 59.5028 95.8761 50.776 Q95.8761 42.0261 98.9317 37.4428 Q102.01 32.8363 107.821 32.8363 Z" fill="#000000" fill-rule="nonzero" fill-opacity="1" /><polyline clip-path="url(#clip881)" style="stroke:#009af9; stroke-linecap:round; stroke-linejoin:round; stroke-width:8; stroke-opacity:1; fill:none" points="155.765,1384.24 157.964,1383.28 160.163,1382.31 162.362,1381.33 164.562,1380.35 166.761,1379.35 168.96,1378.34 171.159,1377.32 173.358,1376.3 175.558,1375.26 177.757,1374.21 179.956,1373.15 182.155,1372.08 184.354,1371 186.554,1369.91 188.753,1368.81 190.952,1367.69 193.151,1366.57 195.35,1365.43 197.55,1364.29 199.749,1363.13 201.948,1361.96 204.147,1360.77 206.346,1359.58 208.545,1358.37 210.745,1357.15 212.944,1355.92 215.143,1354.68 217.342,1353.42 219.541,1352.16 221.741,1350.88 223.94,1349.58 226.139,1348.27 228.338,1346.95 230.537,1345.62 232.737,1344.27 234.936,1342.91 237.135,1341.54 239.334,1340.15 241.533,1338.75 243.733,1337.34 245.932,1335.91 248.131,1334.46 250.33,1333 252.529,1331.53 254.728,1330.04 256.928,1328.54 259.127,1327.02 261.326,1325.48 263.525,1323.93 265.724,1322.37 267.924,1320.79 270.123,1319.19 272.322,1317.58 274.521,1315.95 276.72,1314.31 278.92,1312.64 281.119,1310.96 283.318,1309.27 285.517,1307.56 287.716,1305.83 289.916,1304.08 292.115,1302.32 294.314,1300.53 296.513,1298.73 298.712,1296.91 300.911,1295.08 303.111,1293.22 305.31,1291.35 307.509,1289.46 309.708,1287.54 311.907,1285.61 314.107,1283.66 316.306,1281.69 318.505,1279.7 320.704,1277.69 322.903,1275.66 325.103,1273.61 327.302,1271.54 329.501,1269.45 331.7,1267.34 333.899,1265.2 336.099,1263.05 338.298,1260.87 340.497,1258.67 342.696,1256.45 344.895,1254.2 347.094,1251.94 349.294,1249.65 351.493,1247.34 353.692,1245 355.891,1242.64 358.09,1240.26 360.29,1237.85 362.489,1235.42 364.688,1232.97 366.887,1230.49 369.086,1227.98 371.286,1225.45 373.485,1222.89 375.684,1220.31 377.883,1217.71 380.082,1215.07 382.281,1212.41 384.481,1209.73 386.68,1207.01 388.879,1204.27 391.078,1201.5 393.277,1198.7 395.477,1195.88 397.676,1193.03 399.875,1190.14 402.074,1187.23 404.273,1184.29 406.473,1181.32 408.672,1178.32 410.871,1175.29 413.07,1172.23 415.269,1169.14 417.469,1166.02 419.668,1162.87 421.867,1159.68 424.066,1156.46 426.265,1153.22 428.464,1149.93 430.664,1146.62 432.863,1143.27 435.062,1139.89 437.261,1136.47 439.46,1133.02 441.66,1129.53 443.859,1126.01 446.058,1122.46 448.257,1118.86 450.456,1115.24 452.656,1111.57 454.855,1107.87 457.054,1104.13 459.253,1100.36 461.452,1096.54 463.652,1092.69 465.851,1088.8 468.05,1084.87 470.249,1080.9 472.448,1076.89 474.647,1072.84 476.847,1068.75 479.046,1064.62 481.245,1060.44 483.444,1056.23 485.643,1051.97 487.843,1047.67 490.042,1043.32 492.241,1038.93 494.44,1034.5 496.639,1030.02 498.839,1025.5 501.038,1020.94 503.237,1247.91 505.436,1245.58 507.635,1243.22 509.835,1240.85 512.034,1238.45 514.233,1236.02 516.432,1233.57 518.631,1231.1 520.83,1228.6 523.03,1226.07 525.229,1223.52 527.428,1220.95 529.627,1218.35 531.826,1215.72 534.026,1213.07 536.225,1210.39 538.424,1207.68 540.623,1204.95 542.822,1202.18 545.022,1199.39 547.221,1196.58 549.42,1193.73 551.619,1190.86 553.818,1187.95 556.018,1185.02 558.217,1182.06 560.416,1179.06 562.615,1176.04 564.814,1172.99 567.013,1169.91 569.213,1166.79 571.412,1163.65 573.611,1160.47 575.81,1157.26 578.009,1154.02 580.209,1150.74 582.408,1147.44 584.607,1144.1 586.806,1140.72 589.005,1137.31 591.205,1133.87 593.404,1130.39 595.603,1126.88 597.802,1123.33 600.001,1119.75 602.201,1116.13 604.4,1112.48 606.599,1108.78 608.798,1105.05 610.997,1101.29 613.196,1288.49 615.396,1286.56 617.595,1284.62 619.794,1282.66 621.993,1280.68 624.192,1278.68 626.392,1276.66 628.591,1274.62 630.79,1272.56 632.989,1270.48 635.188,1373.93 637.388,1372.87 639.587,1371.8 641.786,1370.71 643.985,1369.62 646.184,1368.51 648.384,1367.4 650.583,1366.27 652.782,1365.13 654.981,1363.98 657.18,1362.82 659.379,1361.65 661.579,1360.46 663.778,1359.26 665.977,1358.05 668.176,1356.83 670.375,1355.6 672.575,1354.35 674.774,1353.09 676.973,1351.82 679.172,1350.54 681.371,1349.24 683.571,1347.93 685.77,1346.6 687.969,1345.27 690.168,1343.92 692.367,1342.55 694.567,1341.18 696.766,1339.79 698.965,1338.38 701.164,1336.96 703.363,1335.53 705.562,1334.08 707.762,1332.62 709.961,1331.14 712.16,1329.64 714.359,1328.14 716.558,1326.61 718.758,1325.08 720.957,1323.52 723.156,1321.95 725.355,1320.37 727.554,1318.77 729.754,1317.15 731.953,1315.52 734.152,1313.87 736.351,1312.2 738.55,1310.52 740.749,1308.82 742.949,1307.1 745.148,1305.37 747.347,1303.62 749.546,1301.85 751.745,1300.06 753.945,1298.26 756.144,1296.43 758.343,1294.59 760.542,1292.73 762.741,1290.85 764.941,1288.95 767.14,1287.04 769.339,1285.1 771.538,1283.14 773.737,1281.17 775.937,1279.17 778.136,1277.16 780.335,1275.12 782.534,1273.07 784.733,1270.99 786.932,1268.89 789.132,1266.78 791.331,1264.64 793.53,1262.47 795.729,1260.29 797.928,1258.09 800.128,1255.86 802.327,1253.61 804.526,1251.34 806.725,1249.04 808.924,1246.72 811.124,1244.38 813.323,1242.02 815.522,1239.63 817.721,1237.22 819.92,1234.78 822.12,1232.32 824.319,1229.83 826.518,1227.32 828.717,1224.78 830.916,1222.22 833.115,1219.63 835.315,1217.02 837.514,1214.38 839.713,1211.71 841.912,1209.02 844.111,1206.29 846.311,1203.55 848.51,1200.77 850.709,1197.97 852.908,1195.13 855.107,1192.27 857.307,1189.38 859.506,1186.46 861.705,1183.52 863.904,1180.54 866.103,1177.53 868.303,1174.49 870.502,1171.42 872.701,1168.32 874.9,1165.19 877.099,1320.76 879.298,1319.16 881.498,1317.55 883.697,1315.92 885.896,1314.28 888.095,1312.61 890.294,1310.93 892.494,1309.24 894.693,1307.53 896.892,1305.8 899.091,1304.05 901.29,1302.28 903.49,1300.5 905.689,1298.7 907.888,1296.88 910.087,1295.04 912.286,1293.19 914.486,1291.32 916.685,1289.42 918.884,1287.51 921.083,1285.58 923.282,1283.63 925.481,1281.66 927.681,1279.67 929.88,1277.66 932.079,1275.63 934.278,1273.58 936.477,1271.51 938.677,1269.41 940.876,1267.3 943.075,1265.17 945.274,1263.01 947.473,1260.83 949.673,1258.63 951.872,1256.41 954.071,1254.17 956.27,1251.9 958.469,1249.61 960.669,1247.3 962.868,1244.96 965.067,1242.6 967.266,1240.22 969.465,1237.81 971.664,1235.38 973.864,1232.93 976.063,1230.45 978.262,1227.94 980.461,1225.41 982.66,1222.85 984.86,1220.27 987.059,1217.66 989.258,1215.03 991.457,1212.37 993.656,1209.68 995.856,1206.97 998.055,1204.22 1000.25,1201.45 1002.45,1198.66 1004.65,1195.83 1006.85,1192.98 1009.05,1190.1 1011.25,1187.18 1013.45,1184.24 1015.65,1181.27 1017.85,1178.27 1020.05,1175.24 1022.25,1172.18 1024.45,1169.09 1026.64,1165.97 1028.84,1162.81 1031.04,1159.63 1033.24,1156.41 1035.44,1153.16 1037.64,1149.87 1039.84,1146.56 1042.04,1143.21 1044.24,1139.83 1046.44,1136.41 1048.64,1132.96 1050.84,1129.47 1053.03,1125.95 1055.23,1122.39 1057.43,1118.8 1059.63,1115.17 1061.83,1111.51 1064.03,1107.81 1066.23,1104.07 1068.43,1100.29 1070.63,1096.48 1072.83,1092.63 1075.03,1088.73 1077.23,1084.8 1079.42,1080.83 1081.62,1076.82 1083.82,1072.77 1086.02,1068.68 1088.22,1064.55 1090.42,1060.38 1092.62,1056.16 1094.82,1051.91 1097.02,1047.61 1099.22,1043.26 1101.42,1038.87 1103.62,1034.44 1105.82,1029.97 1108.01,1025.44 1110.21,1020.88 1112.41,1016.27 1114.61,1011.61 1116.81,1006.9 1119.01,1002.15 1121.21,997.344 1123.41,992.494 1125.61,987.595 1127.81,982.647 1130.01,977.648 1132.21,972.6 1134.4,967.5 1136.6,962.35 1138.8,957.147 1141,951.891 1143.2,946.583 1145.4,941.221 1147.6,935.806 1149.8,930.335 1152,924.81 1154.2,919.229 1156.4,913.591 1158.6,907.897 1160.79,902.145 1162.99,896.336 1165.19,890.468 1167.39,884.541 1169.59,878.554 1171.79,872.507 1173.99,866.4 1176.19,860.23 1178.39,853.999 1180.59,847.705 1182.79,841.348 1184.99,834.928 1187.19,828.442 1189.38,821.892 1191.58,815.276 1193.78,808.594 1195.98,801.844 1198.18,1137.26 1200.38,1133.81 1202.58,1130.34 1204.78,1126.82 1206.98,1123.28 1209.18,1119.69 1211.38,1116.07 1213.58,1112.42 1215.77,1108.72 1217.97,1104.99 1220.17,1101.23 1222.37,1097.42 1224.57,1286.53 1226.77,1284.59 1228.97,1282.63 1231.17,1280.65 1233.37,1278.65 1235.57,1276.63 1237.77,1274.59 1239.97,1272.53 1242.16,1270.44 1244.36,1268.34 1246.56,1266.22 1248.76,1264.07 1250.96,1261.9 1253.16,1259.71 1255.36,1257.5 1257.56,1255.27 1259.76,1253.01 1261.96,1250.74 1264.16,1248.44 1266.36,1246.11 1268.56,1243.76 1270.75,1241.39 1272.95,1239 1275.15,1236.58 1277.35,1234.14 1279.55,1231.67 1281.75,1229.17 1283.95,1226.66 1286.15,1224.11 1288.35,1221.55 1290.55,1218.95 1292.75,1216.33 1294.95,1213.68 1297.14,1211.01 1299.34,1208.31 1301.54,1205.58 1303.74,1202.83 1305.94,1200.04 1308.14,1197.23 1310.34,1194.39 1312.54,1191.53 1314.74,1188.63 1316.94,1185.7 1319.14,1182.75 1321.34,1179.76 1323.53,1176.75 1325.73,1173.7 1327.93,1170.63 1330.13,1167.52 1332.33,1164.38 1334.53,1161.21 1336.73,1158.01 1338.93,1154.77 1341.13,1151.51 1343.33,1148.21 1345.53,1144.87 1347.73,1141.51 1349.93,1138.11 1352.12,1134.67 1354.32,1131.2 1356.52,1127.7 1358.72,1124.16 1360.92,1120.58 1363.12,1116.97 1365.32,1113.32 1367.52,1109.64 1369.72,1105.92 1371.92,1102.16 1374.12,1098.36 1376.32,1094.53 1378.51,1090.66 1380.71,1086.74 1382.91,1082.79 1385.11,1078.8 1387.31,1074.77 1389.51,1070.7 1391.71,1066.58 1393.91,1062.43 1396.11,1058.23 1398.31,1054 1400.51,1049.72 1402.71,1045.39 1404.9,1041.02 1407.1,1036.61 1409.3,1032.16 1411.5,1027.66 1413.7,1023.11 1415.9,1018.52 1418.1,1013.88 1420.3,1009.2 1422.5,1004.47 1424.7,999.687 1426.9,994.86 1429.1,989.986 1431.3,985.062 1433.49,980.089 1435.69,975.066 1437.89,969.992 1440.09,964.868 1442.29,959.692 1444.49,954.464 1446.69,949.184 1448.89,943.851 1451.09,938.464 1453.29,933.024 1455.49,927.528 1457.69,921.978 1459.88,916.371 1462.08,910.708 1464.28,904.989 1466.48,899.212 1468.68,893.376 1470.88,887.483 1473.08,881.529 1475.28,875.516 1477.48,869.443 1479.68,863.308 1481.88,857.111 1484.08,850.852 1486.27,844.53 1488.47,838.145 1490.67,831.695 1492.87,825.18 1495.07,818.599 1497.27,811.952 1499.47,805.238 1501.67,798.456 1503.87,791.606 1506.07,784.686 1508.27,777.697 1510.47,770.638 1512.67,763.507 1514.86,756.304 1517.06,749.029 1519.26,741.68 1521.46,734.257 1523.66,726.759 1525.86,719.186 1528.06,711.536 1530.26,703.808 1532.46,696.003 1534.66,688.119 1536.86,680.156 1539.06,672.112 1541.25,663.988 1543.45,655.781 1545.65,647.492 1547.85,639.119 1550.05,630.661 1552.25,622.119 1554.45,613.49 1556.65,604.775 1558.85,595.972 1561.05,587.08 1563.25,578.099 1565.45,569.028 1567.65,559.866 1569.84,550.611 1572.04,541.263 1574.24,531.822 1576.44,522.286 1578.64,512.655 1580.84,502.926 1583.04,493.101 1585.24,483.177 1587.44,473.153 1589.64,463.029 1591.84,452.804 1594.04,442.475 1596.23,432.042 1598.43,421.504 1600.63,410.861 1602.83,400.11 1605.03,389.251 1607.23,378.283 1609.43,367.205 1611.63,356.015 1613.83,344.713 1616.03,333.296 1618.23,321.766 1620.43,310.119 1622.62,298.354 1624.82,286.472 1627.02,274.47 1629.22,262.347 1631.42,250.102 1633.62,237.735 1635.82,225.242 1638.02,212.624 1640.22,199.879 1642.42,187.006 1644.62,174.003 1646.82,160.869 1649.02,147.604 1651.21,134.205 1653.41,120.671 1655.61,107 1657.81,786.364 1660.01,779.391 1662.21,772.348 1664.41,765.234 1666.61,758.048 1668.81,750.79 1671.01,743.459 1673.21,736.055 1675.41,728.575 1677.6,721.021 1679.8,1096.44 1682,1092.58 1684.2,1088.69 1686.4,1084.76 1688.6,1080.79 1690.8,1076.78 1693,1072.72 1695.2,1068.63 1697.4,1064.5 1699.6,1060.32 1701.8,1056.1 1703.99,1051.85 1706.19,1047.54 1708.39,1043.2 1710.59,1038.81 1712.79,1034.38 1714.99,1029.9 1717.19,1025.38 1719.39,1020.81 1721.59,1016.19 1723.79,1011.53 1725.99,1006.83 1728.19,1002.07 1730.39,997.271 1732.58,992.421 1734.78,987.523 1736.98,982.575 1739.18,977.578 1741.38,972.53 1743.58,967.432 1745.78,962.282 1747.98,957.081 1750.18,951.827 1752.38,946.521 1754.58,941.161 1756.78,935.748 1758.97,930.279 1761.17,924.756 1763.37,919.178 1765.57,913.543 1767.77,907.851 1769.97,902.102 1772.17,896.296 1774.37,890.43 1776.57,884.506 1778.77,878.522 1780.97,872.477 1783.17,866.372 1785.36,860.205 1787.56,853.976 1789.76,847.684 1791.96,841.329 1794.16,834.91 1796.36,828.426 1798.56,821.876 1800.76,815.26 1802.96,808.578 1805.16,801.828 1807.36,795.01 1809.56,788.124 1811.76,781.168 1813.95,774.141 1816.15,767.044 1818.35,759.876 1820.55,752.635 1822.75,745.32 1824.95,737.933 1827.15,730.47 1829.35,722.933 1831.55,715.32 1833.75,707.629 1835.95,699.862 1838.15,692.016 1840.34,684.091 1842.54,676.087 1844.74,668.002 1846.94,659.835 1849.14,651.587 1851.34,643.255 1853.54,634.84 1855.74,626.341 1857.94,617.756 1860.14,609.085 1862.34,600.327 1864.54,591.481 1866.73,582.546 1868.93,573.522 1871.13,564.408 1873.33,555.202 1875.53,545.903 1877.73,536.511 1879.93,527.024 1882.13,517.442 1884.33,507.764 1886.53,497.988 1888.73,488.113 1890.93,478.14 1893.13,468.066 1895.32,457.891 1897.52,447.613 1899.72,437.233 1901.92,426.747 1904.12,416.157 1906.32,405.459 1908.52,394.655 1910.72,383.741 1912.92,372.718 1915.12,361.584 1917.32,350.337 1919.52,338.978 1921.71,327.504 1923.91,315.915 1926.11,304.209 1928.31,292.386 1930.51,280.443 1932.71,268.381 1934.91,256.197 1937.11,243.89 1939.31,231.459 1941.51,218.904 1943.71,206.222 1945.91,193.412 1948.1,180.474 1950.3,167.405 1952.5,154.205 1954.7,140.872 1956.9,127.405 1959.1,113.802 1961.3,100.063 1963.5,86.1857 1965.7,775.9 1967.9,768.822 1970.1,761.672 1972.3,754.451 1974.5,747.157 1976.69,739.789 1978.89,732.348 1981.09,724.831 1983.29,717.239 1985.49,709.571 1987.69,701.825 1989.89,1086.74 1992.09,1082.79 1994.29,1078.8 1996.49,1074.77 1998.69,1070.7 2000.89,1066.58 2003.08,1062.43 2005.28,1058.23 2007.48,1054 2009.68,1049.71 2011.88,1045.39 2014.08,1041.02 2016.28,1036.61 2018.48,1032.16 2020.68,1027.66 2022.88,1023.11 2025.08,1018.52 2027.28,1013.88 2029.47,1009.2 2031.67,1004.47 2033.87,999.689 2036.07,994.862 2038.27,989.986 2040.47,1232.28 2042.67,1229.79 2044.87,1227.28 2047.07,1224.74 2049.27,1222.18 2051.47,1219.59 2053.67,1216.97 2055.87,1214.33 2058.06,1211.66 2060.26,1208.97 2062.46,1206.25 2064.66,1203.5 2066.86,1200.72 2069.06,1197.92 2071.26,1195.08 2073.46,1192.22 2075.66,1189.33 2077.86,1186.41 2080.06,1183.47 2082.26,1180.49 2084.45,1177.48 2086.65,1174.44 2088.85,1171.37 2091.05,1168.28 2093.25,1165.15 2095.45,1161.99 2097.65,1158.79 2099.85,1155.57 2102.05,1152.31 2104.25,1149.02 2106.45,1145.7 2108.65,1142.34 2110.84,1138.95 2113.04,1135.53 2115.24,1132.07 2117.44,1128.58 2119.64,1125.05 2121.84,1121.48 2124.04,1117.88 2126.24,1114.25 2128.44,1110.58 2130.64,1106.87 2132.84,1103.12 2135.04,1099.34 2137.24,1095.51 2139.43,1091.65 2141.63,1087.75 2143.83,1083.81 2146.03,1079.84 2148.23,1075.82 2150.43,1071.76 2152.63,1067.66 2154.83,1063.51 2157.03,1059.33 2159.23,1055.11 2161.43,1050.84 2163.63,1046.53 2165.82,1042.17 2168.02,1037.77 2170.22,1033.33 2172.42,1028.84 2174.62,1024.31 2176.82,1019.73 2179.02,1015.1 2181.22,1010.43 2183.42,1005.71 2185.62,1000.94 2187.82,996.127 2190.02,991.263 2192.22,986.35 2194.41,981.388 2196.61,976.375 2198.81,971.312 2201.01,966.198 2203.21,961.032 2205.41,955.814 2207.61,950.543 2209.81,945.22 2212.01,939.842 2214.21,934.411 2216.41,928.924 2218.61,923.383 2220.8,917.786 2223,912.132 2225.2,906.422 2227.4,900.654 2229.6,894.828 2231.8,888.944 2234,883 2236.2,876.997 2238.4,870.934 2240.6,864.81 2242.8,858.625 2245,852.377 2247.19,846.068 2249.39,839.695 2251.59,833.258 2253.79,826.757 2255.99,820.19 2258.19,813.557 2260.39,806.858 2262.59,800.091 2264.79,793.256 2266.99,786.353 2269.19,779.379 2271.39,772.336 2273.59,765.222 2275.78,758.036 2277.98,750.778 2280.18,743.447 2282.38,736.042 2284.58,728.563 2286.78,1100.25 2288.98,1096.43 2291.18,1092.58 2293.38,1088.69 2295.58,1084.76 2297.78,1080.78 2299.98,1076.77 2302.17,1072.72 2304.37,1068.63 2306.57,1064.5 2308.77,1060.32 2310.97,1056.1 2313.17,1051.84 2315.37,1047.54 2317.57,1043.2 2319.77,1038.81 2321.97,1034.37 2324.17,1029.9 2326.37,1025.37 2328.56,1250.15 2330.76,1247.84 2332.96,1245.51 2335.16,1243.16 2337.36,1240.78 2339.56,1238.38 2341.76,1235.95 2343.96,1233.5 2346.16,1231.03 2348.36,1228.53 2350.56,1226 2352.76,1223.45 "/>
<path clip-path="url(#clip880)" d="M228.998 196.789 L537.794 196.789 L537.794 93.1086 L228.998 93.1086  Z" fill="#ffffff" fill-rule="evenodd" fill-opacity="1"/>
<polyline clip-path="url(#clip880)" style="stroke:#000000; stroke-linecap:round; stroke-linejoin:round; stroke-width:4; stroke-opacity:1; fill:none" points="228.998,196.789 537.794,196.789 537.794,93.1086 228.998,93.1086 228.998,196.789 "/>
<polyline clip-path="url(#clip880)" style="stroke:#009af9; stroke-linecap:round; stroke-linejoin:round; stroke-width:8; stroke-opacity:1; fill:none" points="253.409,144.949 399.875,144.949 "/>
<path clip-path="url(#clip880)" d="M424.286 151.997 L424.286 136.303 L428.545 136.303 L428.545 151.835 Q428.545 155.516 429.98 157.368 Q431.416 159.196 434.286 159.196 Q437.735 159.196 439.726 156.997 Q441.74 154.798 441.74 151.002 L441.74 136.303 L445.999 136.303 L445.999 162.229 L441.74 162.229 L441.74 158.247 Q440.189 160.608 438.129 161.766 Q436.092 162.9 433.383 162.9 Q428.916 162.9 426.601 160.122 Q424.286 157.344 424.286 151.997 M435.004 135.678 L435.004 135.678 Z" fill="#000000" fill-rule="nonzero" fill-opacity="1" /><path clip-path="url(#clip880)" d="M454.378 126.21 L464.193 126.21 L464.193 129.52 L458.638 129.52 L458.638 165.168 L464.193 165.168 L464.193 168.479 L454.378 168.479 L454.378 126.21 Z" fill="#000000" fill-rule="nonzero" fill-opacity="1" /><path clip-path="url(#clip880)" d="M474.679 158.293 L482.318 158.293 L482.318 131.928 L474.008 133.595 L474.008 129.335 L482.272 127.669 L486.948 127.669 L486.948 158.293 L494.587 158.293 L494.587 162.229 L474.679 162.229 L474.679 158.293 Z" fill="#000000" fill-rule="nonzero" fill-opacity="1" /><path clip-path="url(#clip880)" d="M513.383 126.21 L513.383 168.479 L503.568 168.479 L503.568 165.168 L509.1 165.168 L509.1 129.52 L503.568 129.52 L503.568 126.21 L513.383 126.21 Z" fill="#000000" fill-rule="nonzero" fill-opacity="1" /></svg>
