<?xml version="1.0" encoding="utf-8"?>
<svg xmlns="http://www.w3.org/2000/svg" xmlns:xlink="http://www.w3.org/1999/xlink" width="600" height="400" viewBox="0 0 2400 1600">
<defs>
  <clipPath id="clip200">
    <rect x="0" y="0" width="2400" height="1600"/>
  </clipPath>
</defs>
<path clip-path="url(#clip200)" d="M0 1600 L2400 1600 L2400 0 L0 0  Z" fill="#ffffff" fill-rule="evenodd" fill-opacity="1"/>
<defs>
  <clipPath id="clip201">
    <rect x="140" y="47" width="2213" height="1377"/>
  </clipPath>
</defs>
<path clip-path="url(#clip200)" d="M140.696 1423.18 L2352.76 1423.18 L2352.76 47.2441 L140.696 47.2441  Z" fill="#ffffff" fill-rule="evenodd" fill-opacity="1"/>
<polyline clip-path="url(#clip201)" style="stroke:#000000; stroke-linecap:round; stroke-linejoin:round; stroke-width:2; stroke-opacity:0.1; fill:none" points="140.696,1423.18 140.696,47.2441 "/>
<polyline clip-path="url(#clip201)" style="stroke:#000000; stroke-linecap:round; stroke-linejoin:round; stroke-width:2; stroke-opacity:0.1; fill:none" points="583.108,1423.18 583.108,47.2441 "/>
<polyline clip-path="url(#clip201)" style="stroke:#000000; stroke-linecap:round; stroke-linejoin:round; stroke-width:2; stroke-opacity:0.1; fill:none" points="1025.52,1423.18 1025.52,47.2441 "/>
<polyline clip-path="url(#clip201)" style="stroke:#000000; stroke-linecap:round; stroke-linejoin:round; stroke-width:2; stroke-opacity:0.1; fill:none" points="1467.93,1423.18 1467.93,47.2441 "/>
<polyline clip-path="url(#clip201)" style="stroke:#000000; stroke-linecap:round; stroke-linejoin:round; stroke-width:2; stroke-opacity:0.1; fill:none" points="1910.34,1423.18 1910.34,47.2441 "/>
<polyline clip-path="url(#clip201)" style="stroke:#000000; stroke-linecap:round; stroke-linejoin:round; stroke-width:2; stroke-opacity:0.1; fill:none" points="2352.76,1423.18 2352.76,47.2441 "/>
<polyline clip-path="url(#clip201)" style="stroke:#000000; stroke-linecap:round; stroke-linejoin:round; stroke-width:2; stroke-opacity:0.1; fill:none" points="140.696,1384.24 2352.76,1384.24 "/>
<polyline clip-path="url(#clip201)" style="stroke:#000000; stroke-linecap:round; stroke-linejoin:round; stroke-width:2; stroke-opacity:0.1; fill:none" points="140.696,1143.86 2352.76,1143.86 "/>
<polyline clip-path="url(#clip201)" style="stroke:#000000; stroke-linecap:round; stroke-linejoin:round; stroke-width:2; stroke-opacity:0.1; fill:none" points="140.696,903.478 2352.76,903.478 "/>
<polyline clip-path="url(#clip201)" style="stroke:#000000; stroke-linecap:round; stroke-linejoin:round; stroke-width:2; stroke-opacity:0.1; fill:none" points="140.696,663.098 2352.76,663.098 "/>
<polyline clip-path="url(#clip201)" style="stroke:#000000; stroke-linecap:round; stroke-linejoin:round; stroke-width:2; stroke-opacity:0.1; fill:none" points="140.696,422.718 2352.76,422.718 "/>
<polyline clip-path="url(#clip201)" style="stroke:#000000; stroke-linecap:round; stroke-linejoin:round; stroke-width:2; stroke-opacity:0.1; fill:none" points="140.696,182.338 2352.76,182.338 "/>
<polyline clip-path="url(#clip200)" style="stroke:#000000; stroke-linecap:round; stroke-linejoin:round; stroke-width:4; stroke-opacity:1; fill:none" points="140.696,1423.18 2352.76,1423.18 "/>
<polyline clip-path="url(#clip200)" style="stroke:#000000; stroke-linecap:round; stroke-linejoin:round; stroke-width:4; stroke-opacity:1; fill:none" points="140.696,1423.18 140.696,1404.28 "/>
<polyline clip-path="url(#clip200)" style="stroke:#000000; stroke-linecap:round; stroke-linejoin:round; stroke-width:4; stroke-opacity:1; fill:none" points="583.108,1423.18 583.108,1404.28 "/>
<polyline clip-path="url(#clip200)" style="stroke:#000000; stroke-linecap:round; stroke-linejoin:round; stroke-width:4; stroke-opacity:1; fill:none" points="1025.52,1423.18 1025.52,1404.28 "/>
<polyline clip-path="url(#clip200)" style="stroke:#000000; stroke-linecap:round; stroke-linejoin:round; stroke-width:4; stroke-opacity:1; fill:none" points="1467.93,1423.18 1467.93,1404.28 "/>
<polyline clip-path="url(#clip200)" style="stroke:#000000; stroke-linecap:round; stroke-linejoin:round; stroke-width:4; stroke-opacity:1; fill:none" points="1910.34,1423.18 1910.34,1404.28 "/>
<polyline clip-path="url(#clip200)" style="stroke:#000000; stroke-linecap:round; stroke-linejoin:round; stroke-width:4; stroke-opacity:1; fill:none" points="2352.76,1423.18 2352.76,1404.28 "/>
<path clip-path="url(#clip200)" d="M140.696 1454.1 Q137.084 1454.1 135.256 1457.66 Q133.45 1461.2 133.45 1468.33 Q133.45 1475.44 135.256 1479.01 Q137.084 1482.55 140.696 1482.55 Q144.33 1482.55 146.135 1479.01 Q147.964 1475.44 147.964 1468.33 Q147.964 1461.2 146.135 1457.66 Q144.33 1454.1 140.696 1454.1 M140.696 1450.39 Q146.506 1450.39 149.561 1455 Q152.64 1459.58 152.64 1468.33 Q152.64 1477.06 149.561 1481.67 Q146.506 1486.25 140.696 1486.25 Q134.885 1486.25 131.807 1481.67 Q128.751 1477.06 128.751 1468.33 Q128.751 1459.58 131.807 1455 Q134.885 1450.39 140.696 1450.39 Z" fill="#000000" fill-rule="nonzero" fill-opacity="1" /><path clip-path="url(#clip200)" d="M577.76 1481.64 L594.08 1481.64 L594.08 1485.58 L572.135 1485.58 L572.135 1481.64 Q574.797 1478.89 579.381 1474.26 Q583.987 1469.61 585.168 1468.27 Q587.413 1465.74 588.293 1464.01 Q589.196 1462.25 589.196 1460.56 Q589.196 1457.8 587.251 1456.07 Q585.33 1454.33 582.228 1454.33 Q580.029 1454.33 577.575 1455.09 Q575.145 1455.86 572.367 1457.41 L572.367 1452.69 Q575.191 1451.55 577.645 1450.97 Q580.098 1450.39 582.135 1450.39 Q587.506 1450.39 590.7 1453.08 Q593.895 1455.77 593.895 1460.26 Q593.895 1462.39 593.084 1464.31 Q592.297 1466.2 590.191 1468.8 Q589.612 1469.47 586.51 1472.69 Q583.409 1475.88 577.76 1481.64 Z" fill="#000000" fill-rule="nonzero" fill-opacity="1" /><path clip-path="url(#clip200)" d="M1028.53 1455.09 L1016.72 1473.54 L1028.53 1473.54 L1028.53 1455.09 M1027.3 1451.02 L1033.18 1451.02 L1033.18 1473.54 L1038.11 1473.54 L1038.11 1477.43 L1033.18 1477.43 L1033.18 1485.58 L1028.53 1485.58 L1028.53 1477.43 L1012.93 1477.43 L1012.93 1472.92 L1027.3 1451.02 Z" fill="#000000" fill-rule="nonzero" fill-opacity="1" /><path clip-path="url(#clip200)" d="M1468.34 1466.44 Q1465.19 1466.44 1463.34 1468.59 Q1461.51 1470.74 1461.51 1474.49 Q1461.51 1478.22 1463.34 1480.39 Q1465.19 1482.55 1468.34 1482.55 Q1471.48 1482.55 1473.31 1480.39 Q1475.17 1478.22 1475.17 1474.49 Q1475.17 1470.74 1473.31 1468.59 Q1471.48 1466.44 1468.34 1466.44 M1477.62 1451.78 L1477.62 1456.04 Q1475.86 1455.21 1474.05 1454.77 Q1472.27 1454.33 1470.51 1454.33 Q1465.88 1454.33 1463.43 1457.45 Q1461 1460.58 1460.65 1466.9 Q1462.02 1464.89 1464.08 1463.82 Q1466.14 1462.73 1468.61 1462.73 Q1473.82 1462.73 1476.83 1465.9 Q1479.86 1469.05 1479.86 1474.49 Q1479.86 1479.82 1476.72 1483.03 Q1473.57 1486.25 1468.34 1486.25 Q1462.34 1486.25 1459.17 1481.67 Q1456 1477.06 1456 1468.33 Q1456 1460.14 1459.89 1455.28 Q1463.78 1450.39 1470.33 1450.39 Q1472.09 1450.39 1473.87 1450.74 Q1475.67 1451.09 1477.62 1451.78 Z" fill="#000000" fill-rule="nonzero" fill-opacity="1" /><path clip-path="url(#clip200)" d="M1910.34 1469.17 Q1907.01 1469.17 1905.09 1470.95 Q1903.19 1472.73 1903.19 1475.86 Q1903.19 1478.98 1905.09 1480.77 Q1907.01 1482.55 1910.34 1482.55 Q1913.68 1482.55 1915.6 1480.77 Q1917.52 1478.96 1917.52 1475.86 Q1917.52 1472.73 1915.6 1470.95 Q1913.7 1469.17 1910.34 1469.17 M1905.67 1467.18 Q1902.66 1466.44 1900.97 1464.38 Q1899.3 1462.32 1899.3 1459.35 Q1899.3 1455.21 1902.24 1452.8 Q1905.2 1450.39 1910.34 1450.39 Q1915.51 1450.39 1918.45 1452.8 Q1921.39 1455.21 1921.39 1459.35 Q1921.39 1462.32 1919.7 1464.38 Q1918.03 1466.44 1915.04 1467.18 Q1918.42 1467.96 1920.3 1470.26 Q1922.2 1472.55 1922.2 1475.86 Q1922.2 1480.88 1919.12 1483.57 Q1916.06 1486.25 1910.34 1486.25 Q1904.63 1486.25 1901.55 1483.57 Q1898.49 1480.88 1898.49 1475.86 Q1898.49 1472.55 1900.39 1470.26 Q1902.29 1467.96 1905.67 1467.18 M1903.95 1459.79 Q1903.95 1462.48 1905.62 1463.98 Q1907.31 1465.49 1910.34 1465.49 Q1913.35 1465.49 1915.04 1463.98 Q1916.76 1462.48 1916.76 1459.79 Q1916.76 1457.11 1915.04 1455.6 Q1913.35 1454.1 1910.34 1454.1 Q1907.31 1454.1 1905.62 1455.6 Q1903.95 1457.11 1903.95 1459.79 Z" fill="#000000" fill-rule="nonzero" fill-opacity="1" /><path clip-path="url(#clip200)" d="M2327.44 1481.64 L2335.08 1481.64 L2335.08 1455.28 L2326.77 1456.95 L2326.77 1452.69 L2335.04 1451.02 L2339.71 1451.02 L2339.71 1481.64 L2347.35 1481.64 L2347.35 1485.58 L2327.44 1485.58 L2327.44 1481.64 Z" fill="#000000" fill-rule="nonzero" fill-opacity="1" /><path clip-path="url(#clip200)" d="M2366.8 1454.1 Q2363.18 1454.1 2361.36 1457.66 Q2359.55 1461.2 2359.55 1468.33 Q2359.55 1475.44 2361.36 1479.01 Q2363.18 1482.55 2366.8 1482.55 Q2370.43 1482.55 2372.23 1479.01 Q2374.06 1475.44 2374.06 1468.33 Q2374.06 1461.2 2372.23 1457.66 Q2370.43 1454.1 2366.8 1454.1 M2366.8 1450.39 Q2372.61 1450.39 2375.66 1455 Q2378.74 1459.58 2378.74 1468.33 Q2378.74 1477.06 2375.66 1481.67 Q2372.61 1486.25 2366.8 1486.25 Q2360.99 1486.25 2357.91 1481.67 Q2354.85 1477.06 2354.85 1468.33 Q2354.85 1459.58 2357.91 1455 Q2360.99 1450.39 2366.8 1450.39 Z" fill="#000000" fill-rule="nonzero" fill-opacity="1" /><path clip-path="url(#clip200)" d="M1245.79 1522.27 L1245.79 1532.4 L1257.85 1532.4 L1257.85 1536.95 L1245.79 1536.95 L1245.79 1556.3 Q1245.79 1560.66 1246.96 1561.9 Q1248.17 1563.14 1251.83 1563.14 L1257.85 1563.14 L1257.85 1568.04 L1251.83 1568.04 Q1245.05 1568.04 1242.48 1565.53 Q1239.9 1562.98 1239.9 1556.3 L1239.9 1536.95 L1235.6 1536.95 L1235.6 1532.4 L1239.9 1532.4 L1239.9 1522.27 L1245.79 1522.27 Z" fill="#000000" fill-rule="nonzero" fill-opacity="1" /><polyline clip-path="url(#clip200)" style="stroke:#000000; stroke-linecap:round; stroke-linejoin:round; stroke-width:4; stroke-opacity:1; fill:none" points="140.696,1423.18 140.696,47.2441 "/>
<polyline clip-path="url(#clip200)" style="stroke:#000000; stroke-linecap:round; stroke-linejoin:round; stroke-width:4; stroke-opacity:1; fill:none" points="140.696,1384.24 159.593,1384.24 "/>
<polyline clip-path="url(#clip200)" style="stroke:#000000; stroke-linecap:round; stroke-linejoin:round; stroke-width:4; stroke-opacity:1; fill:none" points="140.696,1143.86 159.593,1143.86 "/>
<polyline clip-path="url(#clip200)" style="stroke:#000000; stroke-linecap:round; stroke-linejoin:round; stroke-width:4; stroke-opacity:1; fill:none" points="140.696,903.478 159.593,903.478 "/>
<polyline clip-path="url(#clip200)" style="stroke:#000000; stroke-linecap:round; stroke-linejoin:round; stroke-width:4; stroke-opacity:1; fill:none" points="140.696,663.098 159.593,663.098 "/>
<polyline clip-path="url(#clip200)" style="stroke:#000000; stroke-linecap:round; stroke-linejoin:round; stroke-width:4; stroke-opacity:1; fill:none" points="140.696,422.718 159.593,422.718 "/>
<polyline clip-path="url(#clip200)" style="stroke:#000000; stroke-linecap:round; stroke-linejoin:round; stroke-width:4; stroke-opacity:1; fill:none" points="140.696,182.338 159.593,182.338 "/>
<path clip-path="url(#clip200)" d="M92.7512 1370.04 Q89.1401 1370.04 87.3114 1373.6 Q85.5058 1377.14 85.5058 1384.27 Q85.5058 1391.38 87.3114 1394.94 Q89.1401 1398.49 92.7512 1398.49 Q96.3854 1398.49 98.1909 1394.94 Q100.02 1391.38 100.02 1384.27 Q100.02 1377.14 98.1909 1373.6 Q96.3854 1370.04 92.7512 1370.04 M92.7512 1366.33 Q98.5613 1366.33 101.617 1370.94 Q104.696 1375.52 104.696 1384.27 Q104.696 1393 101.617 1397.61 Q98.5613 1402.19 92.7512 1402.19 Q86.941 1402.19 83.8623 1397.61 Q80.8068 1393 80.8068 1384.27 Q80.8068 1375.52 83.8623 1370.94 Q86.941 1366.33 92.7512 1366.33 Z" fill="#000000" fill-rule="nonzero" fill-opacity="1" /><path clip-path="url(#clip200)" d="M83.7929 1126.58 L102.149 1126.58 L102.149 1130.51 L88.0753 1130.51 L88.0753 1138.99 Q89.0938 1138.64 90.1123 1138.48 Q91.1308 1138.29 92.1493 1138.29 Q97.9363 1138.29 101.316 1141.46 Q104.696 1144.63 104.696 1150.05 Q104.696 1155.63 101.223 1158.73 Q97.7511 1161.81 91.4317 1161.81 Q89.2558 1161.81 86.9873 1161.44 Q84.7419 1161.07 82.3346 1160.33 L82.3346 1155.63 Q84.4179 1156.76 86.6401 1157.32 Q88.8623 1157.87 91.3391 1157.87 Q95.3437 1157.87 97.6817 1155.77 Q100.02 1153.66 100.02 1150.05 Q100.02 1146.44 97.6817 1144.33 Q95.3437 1142.23 91.3391 1142.23 Q89.4641 1142.23 87.5892 1142.64 Q85.7373 1143.06 83.7929 1143.94 L83.7929 1126.58 Z" fill="#000000" fill-rule="nonzero" fill-opacity="1" /><path clip-path="url(#clip200)" d="M53.3995 916.823 L61.0384 916.823 L61.0384 890.457 L52.7282 892.124 L52.7282 887.865 L60.9921 886.198 L65.668 886.198 L65.668 916.823 L73.3068 916.823 L73.3068 920.758 L53.3995 920.758 L53.3995 916.823 Z" fill="#000000" fill-rule="nonzero" fill-opacity="1" /><path clip-path="url(#clip200)" d="M92.7512 889.277 Q89.1401 889.277 87.3114 892.842 Q85.5058 896.383 85.5058 903.513 Q85.5058 910.619 87.3114 914.184 Q89.1401 917.726 92.7512 917.726 Q96.3854 917.726 98.1909 914.184 Q100.02 910.619 100.02 903.513 Q100.02 896.383 98.1909 892.842 Q96.3854 889.277 92.7512 889.277 M92.7512 885.573 Q98.5613 885.573 101.617 890.18 Q104.696 894.763 104.696 903.513 Q104.696 912.24 101.617 916.846 Q98.5613 921.429 92.7512 921.429 Q86.941 921.429 83.8623 916.846 Q80.8068 912.24 80.8068 903.513 Q80.8068 894.763 83.8623 890.18 Q86.941 885.573 92.7512 885.573 Z" fill="#000000" fill-rule="nonzero" fill-opacity="1" /><path clip-path="url(#clip200)" d="M54.3949 676.443 L62.0337 676.443 L62.0337 650.077 L53.7236 651.744 L53.7236 647.485 L61.9874 645.818 L66.6633 645.818 L66.6633 676.443 L74.3022 676.443 L74.3022 680.378 L54.3949 680.378 L54.3949 676.443 Z" fill="#000000" fill-rule="nonzero" fill-opacity="1" /><path clip-path="url(#clip200)" d="M83.7929 645.818 L102.149 645.818 L102.149 649.753 L88.0753 649.753 L88.0753 658.225 Q89.0938 657.878 90.1123 657.716 Q91.1308 657.531 92.1493 657.531 Q97.9363 657.531 101.316 660.702 Q104.696 663.873 104.696 669.29 Q104.696 674.869 101.223 677.971 Q97.7511 681.049 91.4317 681.049 Q89.2558 681.049 86.9873 680.679 Q84.7419 680.308 82.3346 679.568 L82.3346 674.869 Q84.4179 676.003 86.6401 676.559 Q88.8623 677.114 91.3391 677.114 Q95.3437 677.114 97.6817 675.008 Q100.02 672.901 100.02 669.29 Q100.02 665.679 97.6817 663.572 Q95.3437 661.466 91.3391 661.466 Q89.4641 661.466 87.5892 661.883 Q85.7373 662.299 83.7929 663.179 L83.7929 645.818 Z" fill="#000000" fill-rule="nonzero" fill-opacity="1" /><path clip-path="url(#clip200)" d="M56.6171 436.063 L72.9365 436.063 L72.9365 439.998 L50.9921 439.998 L50.9921 436.063 Q53.6541 433.308 58.2375 428.678 Q62.8439 424.026 64.0245 422.683 Q66.2698 420.16 67.1494 418.424 Q68.0522 416.665 68.0522 414.975 Q68.0522 412.22 66.1078 410.484 Q64.1865 408.748 61.0847 408.748 Q58.8856 408.748 56.4319 409.512 Q54.0014 410.276 51.2236 411.827 L51.2236 407.104 Q54.0477 405.97 56.5014 405.392 Q58.955 404.813 60.9921 404.813 Q66.3624 404.813 69.5568 407.498 Q72.7513 410.183 72.7513 414.674 Q72.7513 416.804 71.9411 418.725 Q71.1541 420.623 69.0476 423.216 Q68.4689 423.887 65.367 427.104 Q62.2652 430.299 56.6171 436.063 Z" fill="#000000" fill-rule="nonzero" fill-opacity="1" /><path clip-path="url(#clip200)" d="M92.7512 408.517 Q89.1401 408.517 87.3114 412.081 Q85.5058 415.623 85.5058 422.753 Q85.5058 429.859 87.3114 433.424 Q89.1401 436.965 92.7512 436.965 Q96.3854 436.965 98.1909 433.424 Q100.02 429.859 100.02 422.753 Q100.02 415.623 98.1909 412.081 Q96.3854 408.517 92.7512 408.517 M92.7512 404.813 Q98.5613 404.813 101.617 409.419 Q104.696 414.003 104.696 422.753 Q104.696 431.479 101.617 436.086 Q98.5613 440.669 92.7512 440.669 Q86.941 440.669 83.8623 436.086 Q80.8068 431.479 80.8068 422.753 Q80.8068 414.003 83.8623 409.419 Q86.941 404.813 92.7512 404.813 Z" fill="#000000" fill-rule="nonzero" fill-opacity="1" /><path clip-path="url(#clip200)" d="M57.6125 195.683 L73.9318 195.683 L73.9318 199.618 L51.9875 199.618 L51.9875 195.683 Q54.6495 192.928 59.2328 188.298 Q63.8393 183.646 65.0198 182.303 Q67.2652 179.78 68.1448 178.044 Q69.0476 176.285 69.0476 174.595 Q69.0476 171.84 67.1032 170.104 Q65.1819 168.368 62.08 168.368 Q59.881 168.368 57.4273 169.132 Q54.9967 169.896 52.219 171.447 L52.219 166.724 Q55.043 165.59 57.4967 165.011 Q59.9504 164.433 61.9874 164.433 Q67.3578 164.433 70.5522 167.118 Q73.7466 169.803 73.7466 174.294 Q73.7466 176.423 72.9365 178.345 Q72.1494 180.243 70.0429 182.835 Q69.4642 183.507 66.3624 186.724 Q63.2606 189.919 57.6125 195.683 Z" fill="#000000" fill-rule="nonzero" fill-opacity="1" /><path clip-path="url(#clip200)" d="M83.7929 165.058 L102.149 165.058 L102.149 168.993 L88.0753 168.993 L88.0753 177.465 Q89.0938 177.118 90.1123 176.956 Q91.1308 176.771 92.1493 176.771 Q97.9363 176.771 101.316 179.942 Q104.696 183.113 104.696 188.53 Q104.696 194.108 101.223 197.21 Q97.7511 200.289 91.4317 200.289 Q89.2558 200.289 86.9873 199.919 Q84.7419 199.548 82.3346 198.808 L82.3346 194.108 Q84.4179 195.243 86.6401 195.798 Q88.8623 196.354 91.3391 196.354 Q95.3437 196.354 97.6817 194.247 Q100.02 192.141 100.02 188.53 Q100.02 184.919 97.6817 182.812 Q95.3437 180.706 91.3391 180.706 Q89.4641 180.706 87.5892 181.122 Q85.7373 181.539 83.7929 182.419 L83.7929 165.058 Z" fill="#000000" fill-rule="nonzero" fill-opacity="1" /><polyline clip-path="url(#clip201)" style="stroke:#009af9; stroke-linecap:round; stroke-linejoin:round; stroke-width:8; stroke-opacity:1; fill:none" points="140.696,1384.24 142.588,1384.24 144.48,1384.24 146.372,1384.24 148.265,1384.24 150.157,1384.24 152.049,1384.24 153.941,1384.24 155.834,1384.24 157.726,1384.24 159.618,1384.24 161.51,1384.24 163.403,1384.24 165.295,1384.24 167.187,1336.16 169.08,1288.09 170.972,1288.09 172.864,1288.09 174.756,1288.09 176.649,1288.09 178.541,1288.09 180.433,1288.09 182.325,1288.09 184.218,1240.01 186.11,1240.01 188.002,1240.01 189.894,1240.01 191.787,1240.01 193.679,1240.01 195.571,1240.01 197.464,1240.01 199.356,1240.01 201.248,1240.01 203.14,1240.01 205.033,1240.01 206.925,1240.01 208.817,1240.01 210.709,1191.93 212.602,1191.93 214.494,1191.93 216.386,1191.93 218.278,1191.93 220.171,1191.93 222.063,1191.93 223.955,1191.93 225.848,1191.93 227.74,1191.93 229.632,1191.93 231.524,1191.93 233.417,1191.93 235.309,1191.93 237.201,1191.93 239.093,1191.93 240.986,1191.93 242.878,1191.93 244.77,1191.93 246.663,1191.93 248.555,1240.01 250.447,1240.01 252.339,1240.01 254.232,1240.01 256.124,1240.01 258.016,1240.01 259.908,1240.01 261.801,1240.01 263.693,1240.01 265.585,1240.01 267.477,1240.01 269.37,1240.01 271.262,1288.09 273.154,1288.09 275.047,1288.09 276.939,1288.09 278.831,1288.09 280.723,1288.09 282.616,1288.09 284.508,1288.09 286.4,1288.09 288.292,1288.09 290.185,1288.09 292.077,1288.09 293.969,1288.09 295.861,1288.09 297.754,1288.09 299.646,1288.09 301.538,1288.09 303.431,1288.09 305.323,1288.09 307.215,1240.01 309.107,1240.01 311,1240.01 312.892,1240.01 314.784,1240.01 316.676,1240.01 318.569,1240.01 320.461,1240.01 322.353,1240.01 324.245,1240.01 326.138,1240.01 328.03,1240.01 329.922,1240.01 331.815,1240.01 333.707,1240.01 335.599,1240.01 337.491,1240.01 339.384,1240.01 341.276,1240.01 343.168,1240.01 345.06,1240.01 346.953,1240.01 348.845,1240.01 350.737,1240.01 352.629,1240.01 354.522,1240.01 356.414,1240.01 358.306,1240.01 360.199,1240.01 362.091,1240.01 363.983,1240.01 365.875,1240.01 367.768,1240.01 369.66,1240.01 371.552,1240.01 373.444,1240.01 375.337,1240.01 377.229,1240.01 379.121,1240.01 381.013,1240.01 382.906,1240.01 384.798,1240.01 386.69,1240.01 388.583,1240.01 390.475,1240.01 392.367,1240.01 394.259,1288.09 396.152,1288.09 398.044,1288.09 399.936,1288.09 401.828,1288.09 403.721,1288.09 405.613,1288.09 407.505,1288.09 409.397,1288.09 411.29,1288.09 413.182,1288.09 415.074,1288.09 416.967,1288.09 418.859,1288.09 420.751,1288.09 422.643,1288.09 424.536,1288.09 426.428,1288.09 428.32,1240.01 430.212,1240.01 432.105,1240.01 433.997,1240.01 435.889,1240.01 437.781,1240.01 439.674,1240.01 441.566,1240.01 443.458,1240.01 445.351,1240.01 447.243,1240.01 449.135,1240.01 451.027,1240.01 452.92,1240.01 454.812,1240.01 456.704,1240.01 458.596,1240.01 460.489,1240.01 462.381,1240.01 464.273,1240.01 466.166,1240.01 468.058,1240.01 469.95,1240.01 471.842,1240.01 473.735,1240.01 475.627,1240.01 477.519,1240.01 479.411,1288.09 481.304,1288.09 483.196,1288.09 485.088,1288.09 486.98,1288.09 488.873,1288.09 490.765,1288.09 492.657,1288.09 494.55,1288.09 496.442,1288.09 498.334,1288.09 500.226,1288.09 502.119,1288.09 504.011,1288.09 505.903,1288.09 507.795,1288.09 509.688,1288.09 511.58,1288.09 513.472,1288.09 515.364,1288.09 517.257,1288.09 519.149,1288.09 521.041,1288.09 522.934,1288.09 524.826,1288.09 526.718,1288.09 528.61,1240.01 530.503,1240.01 532.395,1288.09 534.287,1288.09 536.179,1288.09 538.072,1288.09 539.964,1288.09 541.856,1288.09 543.748,1288.09 545.641,1288.09 547.533,1288.09 549.425,1288.09 551.318,1288.09 553.21,1288.09 555.102,1288.09 556.994,1288.09 558.887,1288.09 560.779,1288.09 562.671,1288.09 564.563,1288.09 566.456,1288.09 568.348,1288.09 570.24,1288.09 572.132,1288.09 574.025,1288.09 575.917,1288.09 577.809,1288.09 579.702,1240.01 581.594,1240.01 583.486,1288.09 585.378,1288.09 587.271,1288.09 589.163,1288.09 591.055,1288.09 592.947,1288.09 594.84,1288.09 596.732,1288.09 598.624,1288.09 600.516,1288.09 602.409,1336.16 604.301,1336.16 606.193,1336.16 608.086,1336.16 609.978,1336.16 611.87,1336.16 613.762,1336.16 615.655,1336.16 617.547,1336.16 619.439,1336.16 621.331,1336.16 623.224,1336.16 625.116,1336.16 627.008,1336.16 628.9,1336.16 630.793,1336.16 632.685,1336.16 634.577,1336.16 636.47,1336.16 638.362,1336.16 640.254,1336.16 642.146,1336.16 644.039,1336.16 645.931,1336.16 647.823,1336.16 649.715,1336.16 651.608,1336.16 653.5,1336.16 655.392,1336.16 657.284,1336.16 659.177,1336.16 661.069,1336.16 662.961,1336.16 664.854,1336.16 666.746,1336.16 668.638,1336.16 670.53,1336.16 672.423,1336.16 674.315,1336.16 676.207,1336.16 678.099,1336.16 679.992,1336.16 681.884,1336.16 683.776,1336.16 685.668,1336.16 687.561,1336.16 689.453,1336.16 691.345,1336.16 693.238,1336.16 695.13,1336.16 697.022,1336.16 698.914,1336.16 700.807,1336.16 702.699,1336.16 704.591,1336.16 706.483,1336.16 708.376,1336.16 710.268,1336.16 712.16,1336.16 714.053,1336.16 715.945,1336.16 717.837,1336.16 719.729,1336.16 721.622,1336.16 723.514,1336.16 725.406,1336.16 727.298,1336.16 729.191,1336.16 731.083,1336.16 732.975,1336.16 734.867,1336.16 736.76,1336.16 738.652,1336.16 740.544,1336.16 742.437,1336.16 744.329,1336.16 746.221,1336.16 748.113,1336.16 750.006,1336.16 751.898,1336.16 753.79,1336.16 755.682,1336.16 757.575,1336.16 759.467,1336.16 761.359,1336.16 763.251,1336.16 765.144,1336.16 767.036,1336.16 768.928,1336.16 770.821,1336.16 772.713,1336.16 774.605,1336.16 776.497,1336.16 778.39,1336.16 780.282,1336.16 782.174,1336.16 784.066,1336.16 785.959,1336.16 787.851,1336.16 789.743,1336.16 791.635,1384.24 793.528,1384.24 795.42,1384.24 797.312,1384.24 799.205,1384.24 801.097,1384.24 802.989,1384.24 804.881,1384.24 806.774,1384.24 808.666,1384.24 810.558,1384.24 812.45,1384.24 814.343,1384.24 816.235,1384.24 818.127,1384.24 820.019,1384.24 821.912,1384.24 823.804,1384.24 825.696,1384.24 827.589,1384.24 829.481,1384.24 831.373,1384.24 833.265,1384.24 835.158,1384.24 837.05,1384.24 838.942,1384.24 840.834,1384.24 842.727,1384.24 844.619,1384.24 846.511,1384.24 848.403,1384.24 850.296,1384.24 852.188,1384.24 854.08,1384.24 855.973,1384.24 857.865,1384.24 859.757,1384.24 861.649,1384.24 863.542,1384.24 865.434,1384.24 867.326,1384.24 869.218,1384.24 871.111,1384.24 873.003,1384.24 874.895,1384.24 876.787,1384.24 878.68,1384.24 880.572,1384.24 882.464,1384.24 884.357,1384.24 886.249,1384.24 888.141,1384.24 890.033,1384.24 891.926,1384.24 893.818,1384.24 895.71,1384.24 897.602,1384.24 899.495,1384.24 901.387,1384.24 903.279,1384.24 905.171,1384.24 907.064,1384.24 908.956,1384.24 910.848,1384.24 912.741,1384.24 914.633,1384.24 916.525,1384.24 918.417,1384.24 920.31,1384.24 922.202,1384.24 924.094,1336.16 925.986,1336.16 927.879,1336.16 929.771,1336.16 931.663,1336.16 933.556,1336.16 935.448,1336.16 937.34,1336.16 939.232,1336.16 941.125,1336.16 943.017,1336.16 944.909,1336.16 946.801,1336.16 948.694,1384.24 950.586,1384.24 952.478,1384.24 954.37,1384.24 956.263,1384.24 958.155,1384.24 960.047,1336.16 961.94,1336.16 963.832,1336.16 965.724,1336.16 967.616,1336.16 969.509,1336.16 971.401,1336.16 973.293,1336.16 975.185,1336.16 977.078,1336.16 978.97,1336.16 980.862,1336.16 982.754,1336.16 984.647,1336.16 986.539,1336.16 988.431,1336.16 990.324,1336.16 992.216,1336.16 994.108,1336.16 996,1336.16 997.893,1336.16 999.785,1336.16 1001.68,1336.16 1003.57,1336.16 1005.46,1336.16 1007.35,1336.16 1009.25,1336.16 1011.14,1336.16 1013.03,1384.24 1014.92,1384.24 1016.82,1384.24 1018.71,1384.24 1020.6,1384.24 1022.49,1384.24 1024.38,1384.24 1026.28,1384.24 1028.17,1384.24 1030.06,1384.24 1031.95,1384.24 1033.85,1384.24 1035.74,1384.24 1037.63,1384.24 1039.52,1384.24 1041.41,1336.16 1043.31,1336.16 1045.2,1336.16 1047.09,1336.16 1048.98,1336.16 1050.88,1336.16 1052.77,1336.16 1054.66,1336.16 1056.55,1336.16 1058.45,1336.16 1060.34,1336.16 1062.23,1336.16 1064.12,1336.16 1066.01,1336.16 1067.91,1336.16 1069.8,1336.16 1071.69,1336.16 1073.58,1336.16 1075.48,1336.16 1077.37,1336.16 1079.26,1336.16 1081.15,1336.16 1083.04,1336.16 1084.94,1336.16 1086.83,1336.16 1088.72,1336.16 1090.61,1336.16 1092.51,1336.16 1094.4,1336.16 1096.29,1336.16 1098.18,1336.16 1100.08,1336.16 1101.97,1336.16 1103.86,1336.16 1105.75,1336.16 1107.64,1336.16 1109.54,1336.16 1111.43,1336.16 1113.32,1336.16 1115.21,1240.01 1117.11,1240.01 1119,1191.93 1120.89,1191.93 1122.78,1191.93 1124.67,1191.93 1126.57,1191.93 1128.46,1191.93 1130.35,1191.93 1132.24,1191.93 1134.14,1191.93 1136.03,1191.93 1137.92,1191.93 1139.81,1191.93 1141.7,1191.93 1143.6,1191.93 1145.49,1191.93 1147.38,1191.93 1149.27,1191.93 1151.17,1191.93 1153.06,1191.93 1154.95,1191.93 1156.84,1240.01 1158.74,1240.01 1160.63,1240.01 1162.52,1240.01 1164.41,1288.09 1166.3,1288.09 1168.2,1288.09 1170.09,1288.09 1171.98,1288.09 1173.87,1288.09 1175.77,1288.09 1177.66,1288.09 1179.55,1288.09 1181.44,1288.09 1183.33,1288.09 1185.23,1288.09 1187.12,1288.09 1189.01,1288.09 1190.9,1288.09 1192.8,1240.01 1194.69,1240.01 1196.58,1240.01 1198.47,1240.01 1200.37,1240.01 1202.26,1240.01 1204.15,1240.01 1206.04,1240.01 1207.93,1240.01 1209.83,1240.01 1211.72,1240.01 1213.61,1240.01 1215.5,1240.01 1217.4,1240.01 1219.29,1240.01 1221.18,1240.01 1223.07,1240.01 1224.96,1240.01 1226.86,1240.01 1228.75,1240.01 1230.64,1240.01 1232.53,1240.01 1234.43,1240.01 1236.32,1240.01 1238.21,1240.01 1240.1,1240.01 1242,1240.01 1243.89,1240.01 1245.78,1240.01 1247.67,1240.01 1249.56,1240.01 1251.46,1240.01 1253.35,1240.01 1255.24,1240.01 1257.13,1240.01 1259.03,1240.01 1260.92,1240.01 1262.81,1240.01 1264.7,1240.01 1266.59,1240.01 1268.49,1240.01 1270.38,1240.01 1272.27,1240.01 1274.16,1240.01 1276.06,1240.01 1277.95,1240.01 1279.84,1240.01 1281.73,1288.09 1283.62,1288.09 1285.52,1288.09 1287.41,1288.09 1289.3,1288.09 1291.19,1288.09 1293.09,1336.16 1294.98,1336.16 1296.87,1336.16 1298.76,1336.16 1300.66,1336.16 1302.55,1336.16 1304.44,1336.16 1306.33,1336.16 1308.22,1336.16 1310.12,1336.16 1312.01,1336.16 1313.9,1336.16 1315.79,1336.16 1317.69,1336.16 1319.58,1336.16 1321.47,1336.16 1323.36,1336.16 1325.25,1288.09 1327.15,1288.09 1329.04,1288.09 1330.93,1288.09 1332.82,1288.09 1334.72,1288.09 1336.61,1288.09 1338.5,1336.16 1340.39,1336.16 1342.29,1336.16 1344.18,1336.16 1346.07,1336.16 1347.96,1336.16 1349.85,1336.16 1351.75,1336.16 1353.64,1336.16 1355.53,1336.16 1357.42,1336.16 1359.32,1336.16 1361.21,1288.09 1363.1,1240.01 1364.99,1240.01 1366.88,1240.01 1368.78,1240.01 1370.67,1240.01 1372.56,1240.01 1374.45,1240.01 1376.35,1240.01 1378.24,1240.01 1380.13,1240.01 1382.02,1240.01 1383.92,1191.93 1385.81,1191.93 1387.7,1191.93 1389.59,1191.93 1391.48,1191.93 1393.38,1191.93 1395.27,1191.93 1397.16,1191.93 1399.05,1191.93 1400.95,1191.93 1402.84,1240.01 1404.73,1240.01 1406.62,1240.01 1408.51,1240.01 1410.41,1240.01 1412.3,1288.09 1414.19,1288.09 1416.08,1288.09 1417.98,1288.09 1419.87,1288.09 1421.76,1288.09 1423.65,1288.09 1425.54,1288.09 1427.44,1288.09 1429.33,1288.09 1431.22,1288.09 1433.11,1240.01 1435.01,1240.01 1436.9,1240.01 1438.79,1240.01 1440.68,1240.01 1442.58,1240.01 1444.47,1240.01 1446.36,1240.01 1448.25,1240.01 1450.14,1240.01 1452.04,1240.01 1453.93,1240.01 1455.82,1240.01 1457.71,1240.01 1459.61,1240.01 1461.5,1240.01 1463.39,1240.01 1465.28,1240.01 1467.17,1240.01 1469.07,1240.01 1470.96,1240.01 1472.85,1240.01 1474.74,1240.01 1476.64,1240.01 1478.53,1288.09 1480.42,1288.09 1482.31,1288.09 1484.21,1288.09 1486.1,1288.09 1487.99,1336.16 1489.88,1336.16 1491.77,1336.16 1493.67,1336.16 1495.56,1336.16 1497.45,1336.16 1499.34,1336.16 1501.24,1336.16 1503.13,1336.16 1505.02,1336.16 1506.91,1336.16 1508.8,1336.16 1510.7,1336.16 1512.59,1336.16 1514.48,1336.16 1516.37,1336.16 1518.27,1336.16 1520.16,1336.16 1522.05,1336.16 1523.94,1336.16 1525.84,1336.16 1527.73,1336.16 1529.62,1336.16 1531.51,1336.16 1533.4,1336.16 1535.3,1336.16 1537.19,1336.16 1539.08,1336.16 1540.97,1336.16 1542.87,1336.16 1544.76,1336.16 1546.65,1336.16 1548.54,1336.16 1550.43,1336.16 1552.33,1336.16 1554.22,1336.16 1556.11,1336.16 1558,1336.16 1559.9,1336.16 1561.79,1336.16 1563.68,1336.16 1565.57,1336.16 1567.47,1336.16 1569.36,1336.16 1571.25,1336.16 1573.14,1336.16 1575.03,1336.16 1576.93,1336.16 1578.82,1336.16 1580.71,1336.16 1582.6,1384.24 1584.5,1384.24 1586.39,1384.24 1588.28,1384.24 1590.17,1384.24 1592.06,1384.24 1593.96,1384.24 1595.85,1384.24 1597.74,1384.24 1599.63,1384.24 1601.53,1384.24 1603.42,1384.24 1605.31,1384.24 1607.2,1384.24 1609.09,1384.24 1610.99,1384.24 1612.88,1384.24 1614.77,1384.24 1616.66,1384.24 1618.56,1384.24 1620.45,1384.24 1622.34,1384.24 1624.23,1384.24 1626.13,1384.24 1628.02,1384.24 1629.91,1384.24 1631.8,1384.24 1633.69,1384.24 1635.59,1384.24 1637.48,1384.24 1639.37,1384.24 1641.26,1384.24 1643.16,1384.24 1645.05,1384.24 1646.94,1384.24 1648.83,1384.24 1650.72,1384.24 1652.62,1384.24 1654.51,1384.24 1656.4,1384.24 1658.29,1384.24 1660.19,1384.24 1662.08,1384.24 1663.97,1384.24 1665.86,1384.24 1667.76,1384.24 1669.65,1384.24 1671.54,1384.24 1673.43,1384.24 1675.32,1384.24 1677.22,1384.24 1679.11,1384.24 1681,1384.24 1682.89,1384.24 1684.79,1384.24 1686.68,1384.24 1688.57,1384.24 1690.46,1384.24 1692.35,1384.24 1694.25,1384.24 1696.14,1384.24 1698.03,1384.24 1699.92,1384.24 1701.82,1384.24 1703.71,1384.24 1705.6,1384.24 1707.49,1384.24 1709.39,1384.24 1711.28,1384.24 1713.17,1384.24 1715.06,1384.24 1716.95,1384.24 1718.85,1384.24 1720.74,1384.24 1722.63,1384.24 1724.52,1384.24 1726.42,1384.24 1728.31,1384.24 1730.2,1384.24 1732.09,1384.24 1733.98,1384.24 1735.88,1384.24 1737.77,1384.24 1739.66,1336.16 1741.55,1336.16 1743.45,1336.16 1745.34,1336.16 1747.23,1336.16 1749.12,1336.16 1751.01,1336.16 1752.91,1336.16 1754.8,1336.16 1756.69,1336.16 1758.58,1336.16 1760.48,1336.16 1762.37,1336.16 1764.26,1336.16 1766.15,1336.16 1768.05,1336.16 1769.94,1336.16 1771.83,1336.16 1773.72,1336.16 1775.61,1336.16 1777.51,1336.16 1779.4,1336.16 1781.29,1336.16 1783.18,1336.16 1785.08,1336.16 1786.97,1336.16 1788.86,1336.16 1790.75,1336.16 1792.64,1336.16 1794.54,1336.16 1796.43,1336.16 1798.32,1336.16 1800.21,1336.16 1802.11,1336.16 1804,1336.16 1805.89,1336.16 1807.78,1336.16 1809.68,1336.16 1811.57,1336.16 1813.46,1336.16 1815.35,1336.16 1817.24,1336.16 1819.14,1336.16 1821.03,1336.16 1822.92,1336.16 1824.81,1336.16 1826.71,1336.16 1828.6,1336.16 1830.49,1336.16 1832.38,1336.16 1834.27,1336.16 1836.17,1336.16 1838.06,1336.16 1839.95,1336.16 1841.84,1336.16 1843.74,1336.16 1845.63,1336.16 1847.52,1336.16 1849.41,1336.16 1851.31,1336.16 1853.2,1336.16 1855.09,1336.16 1856.98,1336.16 1858.87,1336.16 1860.77,1336.16 1862.66,1336.16 1864.55,1336.16 1866.44,1336.16 1868.34,1336.16 1870.23,1336.16 1872.12,1336.16 1874.01,1336.16 1875.9,1336.16 1877.8,1336.16 1879.69,1336.16 1881.58,1336.16 1883.47,1288.09 1885.37,1288.09 1887.26,1288.09 1889.15,1288.09 1891.04,1288.09 1892.93,1288.09 1894.83,1288.09 1896.72,1288.09 1898.61,1288.09 1900.5,1288.09 1902.4,1288.09 1904.29,1288.09 1906.18,1288.09 1908.07,1288.09 1909.97,1336.16 1911.86,1336.16 1913.75,1336.16 1915.64,1336.16 1917.53,1336.16 1919.43,1336.16 1921.32,1336.16 1923.21,1336.16 1925.1,1336.16 1927,1336.16 1928.89,1336.16 1930.78,1336.16 1932.67,1336.16 1934.56,1336.16 1936.46,1336.16 1938.35,1336.16 1940.24,1336.16 1942.13,1336.16 1944.03,1336.16 1945.92,1336.16 1947.81,1336.16 1949.7,1336.16 1951.6,1336.16 1953.49,1336.16 1955.38,1336.16 1957.27,1336.16 1959.16,1336.16 1961.06,1336.16 1962.95,1336.16 1964.84,1336.16 1966.73,1336.16 1968.63,1336.16 1970.52,1336.16 1972.41,1336.16 1974.3,1336.16 1976.19,1336.16 1978.09,1336.16 1979.98,1288.09 1981.87,1288.09 1983.76,1288.09 1985.66,1288.09 1987.55,1288.09 1989.44,1288.09 1991.33,1288.09 1993.23,1288.09 1995.12,1288.09 1997.01,1288.09 1998.9,1288.09 2000.79,1288.09 2002.69,1288.09 2004.58,1288.09 2006.47,1288.09 2008.36,1288.09 2010.26,1288.09 2012.15,1288.09 2014.04,1336.16 2015.93,1336.16 2017.82,1336.16 2019.72,1336.16 2021.61,1336.16 2023.5,1336.16 2025.39,1336.16 2027.29,1336.16 2029.18,1336.16 2031.07,1336.16 2032.96,1336.16 2034.86,1336.16 2036.75,1336.16 2038.64,1336.16 2040.53,1336.16 2042.42,1336.16 2044.32,1336.16 2046.21,1336.16 2048.1,1336.16 2049.99,1336.16 2051.89,1336.16 2053.78,1336.16 2055.67,1336.16 2057.56,1336.16 2059.45,1336.16 2061.35,1336.16 2063.24,1336.16 2065.13,1336.16 2067.02,1336.16 2068.92,1336.16 2070.81,1336.16 2072.7,1336.16 2074.59,1336.16 2076.48,1336.16 2078.38,1336.16 2080.27,1384.24 2082.16,1384.24 2084.05,1384.24 2085.95,1384.24 2087.84,1384.24 2089.73,1384.24 2091.62,1384.24 2093.52,1384.24 2095.41,1384.24 2097.3,1384.24 2099.19,1384.24 2101.08,1384.24 2102.98,1384.24 2104.87,1384.24 2106.76,1384.24 2108.65,1384.24 2110.55,1384.24 2112.44,1384.24 2114.33,1384.24 2116.22,1384.24 2118.11,1384.24 2120.01,1336.16 2121.9,1336.16 2123.79,1336.16 2125.68,1336.16 2127.58,1336.16 2129.47,1336.16 2131.36,1336.16 2133.25,1336.16 2135.15,1336.16 2137.04,1336.16 2138.93,1336.16 2140.82,1336.16 2142.71,1336.16 2144.61,1336.16 2146.5,1336.16 2148.39,1336.16 2150.28,1336.16 2152.18,1336.16 2154.07,1336.16 2155.96,1336.16 2157.85,1336.16 2159.74,1336.16 2161.64,1336.16 2163.53,1336.16 2165.42,1336.16 2167.31,1336.16 2169.21,1336.16 2171.1,1288.09 2172.99,1288.09 2174.88,1288.09 2176.78,1288.09 2178.67,1288.09 2180.56,1288.09 2182.45,1288.09 2184.34,1288.09 2186.24,1288.09 2188.13,1288.09 2190.02,1288.09 2191.91,1288.09 2193.81,1288.09 2195.7,1288.09 2197.59,1288.09 2199.48,1288.09 2201.37,1288.09 2203.27,1288.09 2205.16,1288.09 2207.05,1288.09 2208.94,1288.09 2210.84,1288.09 2212.73,1288.09 2214.62,1288.09 2216.51,1288.09 2218.4,1288.09 2220.3,1336.16 2222.19,1384.24 2224.08,1384.24 2225.97,1384.24 2227.87,1384.24 2229.76,1336.16 2231.65,1336.16 2233.54,1336.16 2235.44,1336.16 2237.33,1336.16 2239.22,1336.16 2241.11,1336.16 2243,1336.16 2244.9,1336.16 2246.79,1336.16 2248.68,1288.09 2250.57,1288.09 2252.47,1288.09 2254.36,1288.09 2256.25,1288.09 2258.14,1288.09 2260.03,1288.09 2261.93,1288.09 2263.82,1288.09 2265.71,1288.09 2267.6,1288.09 2269.5,1288.09 2271.39,1288.09 2273.28,1288.09 2275.17,1288.09 2277.07,1288.09 2278.96,1288.09 2280.85,1288.09 2282.74,1288.09 2284.63,1288.09 2286.53,1288.09 2288.42,1288.09 2290.31,1288.09 2292.2,1288.09 2294.1,1288.09 2295.99,1288.09 2297.88,1288.09 2299.77,1288.09 2301.66,1288.09 2303.56,1288.09 2305.45,1288.09 2307.34,1288.09 2309.23,1288.09 2311.13,1288.09 2313.02,1288.09 2314.91,1288.09 2316.8,1288.09 2318.7,1288.09 2320.59,1288.09 2322.48,1288.09 2324.37,1288.09 2326.26,1288.09 2328.16,1288.09 2330.05,1288.09 2331.94,1288.09 2333.83,1288.09 2335.73,1288.09 2337.62,1336.16 2339.51,1336.16 2341.4,1336.16 2343.29,1336.16 2345.19,1336.16 2347.08,1336.16 2348.97,1336.16 2350.86,1336.16 2352.76,1336.16 "/>
<polyline clip-path="url(#clip201)" style="stroke:#e26f46; stroke-linecap:round; stroke-linejoin:round; stroke-width:8; stroke-opacity:1; fill:none" points="140.696,1384.24 142.588,1384.24 144.48,1384.24 146.372,1384.24 148.265,1384.24 150.157,1384.24 152.049,1384.24 153.941,1384.24 155.834,1384.24 157.726,1384.24 159.618,1384.24 161.51,1384.24 163.403,1384.24 165.295,1384.24 167.187,1384.24 169.08,1384.24 170.972,1384.24 172.864,1384.24 174.756,1384.24 176.649,1384.24 178.541,1384.24 180.433,1384.24 182.325,1384.24 184.218,1384.24 186.11,1384.24 188.002,1384.24 189.894,1384.24 191.787,1384.24 193.679,1384.24 195.571,1384.24 197.464,1384.24 199.356,1384.24 201.248,1384.24 203.14,1384.24 205.033,1384.24 206.925,1384.24 208.817,1384.24 210.709,1384.24 212.602,1384.24 214.494,1384.24 216.386,1384.24 218.278,1384.24 220.171,1384.24 222.063,1384.24 223.955,1384.24 225.848,1384.24 227.74,1384.24 229.632,1384.24 231.524,1384.24 233.417,1384.24 235.309,1384.24 237.201,1384.24 239.093,1384.24 240.986,1384.24 242.878,1384.24 244.77,1384.24 246.663,1384.24 248.555,1336.16 250.447,1336.16 252.339,1336.16 254.232,1336.16 256.124,1336.16 258.016,1336.16 259.908,1336.16 261.801,1336.16 263.693,1336.16 265.585,1336.16 267.477,1336.16 269.37,1336.16 271.262,1288.09 273.154,1288.09 275.047,1288.09 276.939,1288.09 278.831,1288.09 280.723,1288.09 282.616,1288.09 284.508,1288.09 286.4,1288.09 288.292,1288.09 290.185,1288.09 292.077,1288.09 293.969,1288.09 295.861,1288.09 297.754,1288.09 299.646,1288.09 301.538,1288.09 303.431,1288.09 305.323,1288.09 307.215,1288.09 309.107,1288.09 311,1288.09 312.892,1288.09 314.784,1288.09 316.676,1288.09 318.569,1288.09 320.461,1288.09 322.353,1288.09 324.245,1288.09 326.138,1288.09 328.03,1288.09 329.922,1288.09 331.815,1288.09 333.707,1288.09 335.599,1288.09 337.491,1288.09 339.384,1288.09 341.276,1288.09 343.168,1288.09 345.06,1288.09 346.953,1288.09 348.845,1288.09 350.737,1288.09 352.629,1288.09 354.522,1288.09 356.414,1288.09 358.306,1288.09 360.199,1288.09 362.091,1288.09 363.983,1288.09 365.875,1288.09 367.768,1288.09 369.66,1288.09 371.552,1288.09 373.444,1288.09 375.337,1288.09 377.229,1288.09 379.121,1288.09 381.013,1288.09 382.906,1288.09 384.798,1288.09 386.69,1288.09 388.583,1288.09 390.475,1288.09 392.367,1288.09 394.259,1240.01 396.152,1240.01 398.044,1240.01 399.936,1240.01 401.828,1240.01 403.721,1240.01 405.613,1240.01 407.505,1240.01 409.397,1240.01 411.29,1240.01 413.182,1240.01 415.074,1240.01 416.967,1240.01 418.859,1240.01 420.751,1240.01 422.643,1240.01 424.536,1240.01 426.428,1240.01 428.32,1240.01 430.212,1240.01 432.105,1240.01 433.997,1240.01 435.889,1240.01 437.781,1240.01 439.674,1240.01 441.566,1240.01 443.458,1240.01 445.351,1240.01 447.243,1240.01 449.135,1240.01 451.027,1240.01 452.92,1240.01 454.812,1240.01 456.704,1240.01 458.596,1240.01 460.489,1240.01 462.381,1240.01 464.273,1240.01 466.166,1240.01 468.058,1240.01 469.95,1240.01 471.842,1240.01 473.735,1240.01 475.627,1240.01 477.519,1240.01 479.411,1191.93 481.304,1191.93 483.196,1191.93 485.088,1191.93 486.98,1191.93 488.873,1191.93 490.765,1191.93 492.657,1191.93 494.55,1191.93 496.442,1191.93 498.334,1191.93 500.226,1191.93 502.119,1191.93 504.011,1191.93 505.903,1191.93 507.795,1191.93 509.688,1191.93 511.58,1191.93 513.472,1191.93 515.364,1191.93 517.257,1191.93 519.149,1191.93 521.041,1191.93 522.934,1191.93 524.826,1191.93 526.718,1191.93 528.61,1191.93 530.503,1191.93 532.395,1143.86 534.287,1143.86 536.179,1143.86 538.072,1143.86 539.964,1143.86 541.856,1143.86 543.748,1143.86 545.641,1143.86 547.533,1143.86 549.425,1143.86 551.318,1143.86 553.21,1143.86 555.102,1143.86 556.994,1143.86 558.887,1143.86 560.779,1143.86 562.671,1143.86 564.563,1143.86 566.456,1143.86 568.348,1143.86 570.24,1143.86 572.132,1143.86 574.025,1143.86 575.917,1143.86 577.809,1143.86 579.702,1143.86 581.594,1143.86 583.486,1095.78 585.378,1095.78 587.271,1095.78 589.163,1095.78 591.055,1095.78 592.947,1095.78 594.84,1095.78 596.732,1095.78 598.624,1095.78 600.516,1095.78 602.409,1047.71 604.301,1047.71 606.193,1047.71 608.086,1047.71 609.978,1047.71 611.87,1047.71 613.762,1047.71 615.655,1047.71 617.547,1047.71 619.439,1047.71 621.331,1047.71 623.224,1047.71 625.116,1047.71 627.008,1047.71 628.9,1047.71 630.793,1047.71 632.685,1047.71 634.577,1047.71 636.47,1047.71 638.362,1047.71 640.254,1047.71 642.146,1047.71 644.039,1047.71 645.931,1047.71 647.823,1047.71 649.715,1047.71 651.608,1047.71 653.5,1047.71 655.392,1047.71 657.284,1047.71 659.177,1047.71 661.069,1047.71 662.961,1047.71 664.854,1047.71 666.746,1047.71 668.638,1047.71 670.53,1047.71 672.423,1047.71 674.315,1047.71 676.207,1047.71 678.099,1047.71 679.992,1047.71 681.884,1047.71 683.776,1047.71 685.668,1047.71 687.561,1047.71 689.453,1047.71 691.345,1047.71 693.238,1047.71 695.13,1047.71 697.022,1047.71 698.914,1047.71 700.807,1047.71 702.699,1047.71 704.591,1047.71 706.483,1047.71 708.376,1047.71 710.268,1047.71 712.16,1047.71 714.053,1047.71 715.945,1047.71 717.837,1047.71 719.729,1047.71 721.622,1047.71 723.514,1047.71 725.406,1047.71 727.298,1047.71 729.191,1047.71 731.083,1047.71 732.975,1047.71 734.867,1047.71 736.76,1047.71 738.652,1047.71 740.544,1047.71 742.437,1047.71 744.329,1047.71 746.221,1047.71 748.113,1047.71 750.006,1047.71 751.898,1047.71 753.79,1047.71 755.682,1047.71 757.575,1047.71 759.467,1047.71 761.359,1047.71 763.251,1047.71 765.144,1047.71 767.036,1047.71 768.928,1047.71 770.821,1047.71 772.713,1047.71 774.605,1047.71 776.497,1047.71 778.39,1047.71 780.282,1047.71 782.174,1047.71 784.066,1047.71 785.959,1047.71 787.851,1047.71 789.743,1047.71 791.635,999.63 793.528,999.63 795.42,999.63 797.312,999.63 799.205,999.63 801.097,999.63 802.989,999.63 804.881,999.63 806.774,999.63 808.666,999.63 810.558,999.63 812.45,999.63 814.343,999.63 816.235,999.63 818.127,999.63 820.019,999.63 821.912,999.63 823.804,999.63 825.696,999.63 827.589,999.63 829.481,999.63 831.373,999.63 833.265,999.63 835.158,999.63 837.05,999.63 838.942,999.63 840.834,999.63 842.727,999.63 844.619,999.63 846.511,999.63 848.403,999.63 850.296,999.63 852.188,999.63 854.08,999.63 855.973,999.63 857.865,999.63 859.757,999.63 861.649,999.63 863.542,999.63 865.434,999.63 867.326,999.63 869.218,999.63 871.111,999.63 873.003,999.63 874.895,999.63 876.787,999.63 878.68,999.63 880.572,999.63 882.464,999.63 884.357,999.63 886.249,999.63 888.141,999.63 890.033,999.63 891.926,999.63 893.818,999.63 895.71,999.63 897.602,999.63 899.495,999.63 901.387,999.63 903.279,999.63 905.171,999.63 907.064,999.63 908.956,999.63 910.848,999.63 912.741,999.63 914.633,999.63 916.525,999.63 918.417,999.63 920.31,999.63 922.202,999.63 924.094,999.63 925.986,999.63 927.879,999.63 929.771,999.63 931.663,999.63 933.556,999.63 935.448,999.63 937.34,999.63 939.232,999.63 941.125,999.63 943.017,999.63 944.909,999.63 946.801,999.63 948.694,951.554 950.586,951.554 952.478,951.554 954.37,951.554 956.263,951.554 958.155,951.554 960.047,951.554 961.94,951.554 963.832,951.554 965.724,951.554 967.616,951.554 969.509,951.554 971.401,951.554 973.293,951.554 975.185,951.554 977.078,951.554 978.97,951.554 980.862,951.554 982.754,951.554 984.647,951.554 986.539,951.554 988.431,951.554 990.324,951.554 992.216,951.554 994.108,951.554 996,951.554 997.893,951.554 999.785,951.554 1001.68,951.554 1003.57,951.554 1005.46,951.554 1007.35,951.554 1009.25,951.554 1011.14,951.554 1013.03,903.478 1014.92,903.478 1016.82,903.478 1018.71,903.478 1020.6,903.478 1022.49,903.478 1024.38,903.478 1026.28,903.478 1028.17,903.478 1030.06,903.478 1031.95,903.478 1033.85,903.478 1035.74,903.478 1037.63,903.478 1039.52,903.478 1041.41,903.478 1043.31,903.478 1045.2,903.478 1047.09,903.478 1048.98,903.478 1050.88,903.478 1052.77,903.478 1054.66,903.478 1056.55,903.478 1058.45,855.402 1060.34,855.402 1062.23,855.402 1064.12,855.402 1066.01,855.402 1067.91,855.402 1069.8,855.402 1071.69,855.402 1073.58,855.402 1075.48,855.402 1077.37,855.402 1079.26,855.402 1081.15,855.402 1083.04,855.402 1084.94,855.402 1086.83,855.402 1088.72,855.402 1090.61,855.402 1092.51,855.402 1094.4,855.402 1096.29,855.402 1098.18,855.402 1100.08,855.402 1101.97,855.402 1103.86,855.402 1105.75,855.402 1107.64,855.402 1109.54,855.402 1111.43,855.402 1113.32,855.402 1115.21,855.402 1117.11,855.402 1119,855.402 1120.89,855.402 1122.78,855.402 1124.67,855.402 1126.57,855.402 1128.46,855.402 1130.35,855.402 1132.24,855.402 1134.14,855.402 1136.03,855.402 1137.92,855.402 1139.81,855.402 1141.7,855.402 1143.6,855.402 1145.49,855.402 1147.38,855.402 1149.27,855.402 1151.17,855.402 1153.06,855.402 1154.95,855.402 1156.84,807.326 1158.74,807.326 1160.63,807.326 1162.52,807.326 1164.41,759.25 1166.3,759.25 1168.2,759.25 1170.09,759.25 1171.98,759.25 1173.87,759.25 1175.77,759.25 1177.66,759.25 1179.55,759.25 1181.44,759.25 1183.33,759.25 1185.23,759.25 1187.12,759.25 1189.01,759.25 1190.9,759.25 1192.8,759.25 1194.69,759.25 1196.58,759.25 1198.47,759.25 1200.37,759.25 1202.26,759.25 1204.15,759.25 1206.04,759.25 1207.93,759.25 1209.83,759.25 1211.72,759.25 1213.61,759.25 1215.5,759.25 1217.4,759.25 1219.29,759.25 1221.18,759.25 1223.07,759.25 1224.96,759.25 1226.86,759.25 1228.75,759.25 1230.64,759.25 1232.53,759.25 1234.43,759.25 1236.32,759.25 1238.21,759.25 1240.1,759.25 1242,759.25 1243.89,759.25 1245.78,759.25 1247.67,759.25 1249.56,759.25 1251.46,759.25 1253.35,759.25 1255.24,759.25 1257.13,759.25 1259.03,759.25 1260.92,759.25 1262.81,759.25 1264.7,759.25 1266.59,759.25 1268.49,759.25 1270.38,759.25 1272.27,759.25 1274.16,759.25 1276.06,759.25 1277.95,759.25 1279.84,759.25 1281.73,711.174 1283.62,711.174 1285.52,711.174 1287.41,711.174 1289.3,711.174 1291.19,711.174 1293.09,663.098 1294.98,663.098 1296.87,663.098 1298.76,663.098 1300.66,663.098 1302.55,663.098 1304.44,663.098 1306.33,663.098 1308.22,663.098 1310.12,663.098 1312.01,663.098 1313.9,663.098 1315.79,663.098 1317.69,663.098 1319.58,663.098 1321.47,663.098 1323.36,663.098 1325.25,663.098 1327.15,663.098 1329.04,663.098 1330.93,663.098 1332.82,663.098 1334.72,663.098 1336.61,663.098 1338.5,615.022 1340.39,615.022 1342.29,615.022 1344.18,615.022 1346.07,615.022 1347.96,615.022 1349.85,615.022 1351.75,615.022 1353.64,615.022 1355.53,615.022 1357.42,615.022 1359.32,615.022 1361.21,615.022 1363.1,615.022 1364.99,615.022 1366.88,615.022 1368.78,615.022 1370.67,615.022 1372.56,615.022 1374.45,615.022 1376.35,615.022 1378.24,615.022 1380.13,615.022 1382.02,615.022 1383.92,615.022 1385.81,615.022 1387.7,615.022 1389.59,615.022 1391.48,615.022 1393.38,615.022 1395.27,615.022 1397.16,615.022 1399.05,615.022 1400.95,615.022 1402.84,566.946 1404.73,566.946 1406.62,566.946 1408.51,566.946 1410.41,566.946 1412.3,518.87 1414.19,518.87 1416.08,518.87 1417.98,518.87 1419.87,518.87 1421.76,518.87 1423.65,518.87 1425.54,518.87 1427.44,518.87 1429.33,518.87 1431.22,518.87 1433.11,518.87 1435.01,518.87 1436.9,518.87 1438.79,518.87 1440.68,518.87 1442.58,518.87 1444.47,518.87 1446.36,518.87 1448.25,518.87 1450.14,518.87 1452.04,518.87 1453.93,518.87 1455.82,518.87 1457.71,518.87 1459.61,518.87 1461.5,518.87 1463.39,518.87 1465.28,518.87 1467.17,518.87 1469.07,518.87 1470.96,518.87 1472.85,518.87 1474.74,518.87 1476.64,518.87 1478.53,470.794 1480.42,470.794 1482.31,470.794 1484.21,470.794 1486.1,470.794 1487.99,422.718 1489.88,422.718 1491.77,422.718 1493.67,422.718 1495.56,422.718 1497.45,422.718 1499.34,422.718 1501.24,422.718 1503.13,422.718 1505.02,422.718 1506.91,422.718 1508.8,422.718 1510.7,422.718 1512.59,422.718 1514.48,422.718 1516.37,422.718 1518.27,422.718 1520.16,422.718 1522.05,422.718 1523.94,422.718 1525.84,422.718 1527.73,422.718 1529.62,422.718 1531.51,422.718 1533.4,422.718 1535.3,422.718 1537.19,422.718 1539.08,422.718 1540.97,422.718 1542.87,422.718 1544.76,422.718 1546.65,422.718 1548.54,422.718 1550.43,422.718 1552.33,422.718 1554.22,422.718 1556.11,422.718 1558,422.718 1559.9,422.718 1561.79,422.718 1563.68,422.718 1565.57,422.718 1567.47,422.718 1569.36,422.718 1571.25,422.718 1573.14,422.718 1575.03,422.718 1576.93,422.718 1578.82,422.718 1580.71,422.718 1582.6,374.642 1584.5,374.642 1586.39,374.642 1588.28,374.642 1590.17,374.642 1592.06,374.642 1593.96,374.642 1595.85,374.642 1597.74,374.642 1599.63,374.642 1601.53,374.642 1603.42,374.642 1605.31,374.642 1607.2,374.642 1609.09,374.642 1610.99,374.642 1612.88,374.642 1614.77,374.642 1616.66,374.642 1618.56,374.642 1620.45,374.642 1622.34,374.642 1624.23,374.642 1626.13,374.642 1628.02,374.642 1629.91,374.642 1631.8,374.642 1633.69,374.642 1635.59,374.642 1637.48,374.642 1639.37,374.642 1641.26,374.642 1643.16,374.642 1645.05,374.642 1646.94,374.642 1648.83,374.642 1650.72,374.642 1652.62,374.642 1654.51,374.642 1656.4,374.642 1658.29,374.642 1660.19,374.642 1662.08,374.642 1663.97,374.642 1665.86,374.642 1667.76,374.642 1669.65,374.642 1671.54,374.642 1673.43,374.642 1675.32,374.642 1677.22,374.642 1679.11,374.642 1681,374.642 1682.89,374.642 1684.79,374.642 1686.68,374.642 1688.57,374.642 1690.46,374.642 1692.35,374.642 1694.25,374.642 1696.14,374.642 1698.03,374.642 1699.92,374.642 1701.82,374.642 1703.71,374.642 1705.6,374.642 1707.49,374.642 1709.39,374.642 1711.28,374.642 1713.17,374.642 1715.06,374.642 1716.95,374.642 1718.85,374.642 1720.74,374.642 1722.63,374.642 1724.52,374.642 1726.42,374.642 1728.31,374.642 1730.2,374.642 1732.09,374.642 1733.98,374.642 1735.88,374.642 1737.77,374.642 1739.66,374.642 1741.55,374.642 1743.45,374.642 1745.34,374.642 1747.23,374.642 1749.12,374.642 1751.01,374.642 1752.91,374.642 1754.8,374.642 1756.69,374.642 1758.58,374.642 1760.48,374.642 1762.37,374.642 1764.26,374.642 1766.15,374.642 1768.05,374.642 1769.94,374.642 1771.83,374.642 1773.72,374.642 1775.61,374.642 1777.51,374.642 1779.4,374.642 1781.29,374.642 1783.18,374.642 1785.08,374.642 1786.97,374.642 1788.86,374.642 1790.75,374.642 1792.64,374.642 1794.54,374.642 1796.43,374.642 1798.32,374.642 1800.21,374.642 1802.11,374.642 1804,374.642 1805.89,374.642 1807.78,374.642 1809.68,374.642 1811.57,374.642 1813.46,374.642 1815.35,374.642 1817.24,374.642 1819.14,374.642 1821.03,374.642 1822.92,374.642 1824.81,374.642 1826.71,374.642 1828.6,374.642 1830.49,374.642 1832.38,374.642 1834.27,374.642 1836.17,374.642 1838.06,374.642 1839.95,374.642 1841.84,374.642 1843.74,374.642 1845.63,374.642 1847.52,374.642 1849.41,374.642 1851.31,374.642 1853.2,374.642 1855.09,374.642 1856.98,374.642 1858.87,374.642 1860.77,374.642 1862.66,374.642 1864.55,374.642 1866.44,374.642 1868.34,374.642 1870.23,374.642 1872.12,374.642 1874.01,374.642 1875.9,374.642 1877.8,374.642 1879.69,374.642 1881.58,374.642 1883.47,374.642 1885.37,374.642 1887.26,374.642 1889.15,374.642 1891.04,374.642 1892.93,374.642 1894.83,374.642 1896.72,374.642 1898.61,374.642 1900.5,374.642 1902.4,374.642 1904.29,374.642 1906.18,374.642 1908.07,374.642 1909.97,326.566 1911.86,326.566 1913.75,326.566 1915.64,326.566 1917.53,326.566 1919.43,326.566 1921.32,326.566 1923.21,326.566 1925.1,326.566 1927,326.566 1928.89,326.566 1930.78,326.566 1932.67,326.566 1934.56,326.566 1936.46,326.566 1938.35,326.566 1940.24,326.566 1942.13,326.566 1944.03,326.566 1945.92,326.566 1947.81,326.566 1949.7,326.566 1951.6,326.566 1953.49,326.566 1955.38,326.566 1957.27,326.566 1959.16,326.566 1961.06,326.566 1962.95,326.566 1964.84,326.566 1966.73,326.566 1968.63,326.566 1970.52,326.566 1972.41,326.566 1974.3,326.566 1976.19,326.566 1978.09,326.566 1979.98,326.566 1981.87,326.566 1983.76,326.566 1985.66,326.566 1987.55,326.566 1989.44,326.566 1991.33,326.566 1993.23,326.566 1995.12,326.566 1997.01,326.566 1998.9,326.566 2000.79,326.566 2002.69,326.566 2004.58,326.566 2006.47,326.566 2008.36,326.566 2010.26,326.566 2012.15,326.566 2014.04,278.49 2015.93,278.49 2017.82,278.49 2019.72,278.49 2021.61,278.49 2023.5,278.49 2025.39,278.49 2027.29,278.49 2029.18,278.49 2031.07,278.49 2032.96,278.49 2034.86,278.49 2036.75,278.49 2038.64,278.49 2040.53,278.49 2042.42,278.49 2044.32,278.49 2046.21,278.49 2048.1,278.49 2049.99,278.49 2051.89,278.49 2053.78,278.49 2055.67,278.49 2057.56,278.49 2059.45,278.49 2061.35,278.49 2063.24,278.49 2065.13,278.49 2067.02,278.49 2068.92,278.49 2070.81,278.49 2072.7,278.49 2074.59,278.49 2076.48,278.49 2078.38,278.49 2080.27,230.414 2082.16,230.414 2084.05,230.414 2085.95,230.414 2087.84,230.414 2089.73,230.414 2091.62,230.414 2093.52,230.414 2095.41,230.414 2097.3,230.414 2099.19,230.414 2101.08,230.414 2102.98,230.414 2104.87,230.414 2106.76,230.414 2108.65,230.414 2110.55,230.414 2112.44,230.414 2114.33,230.414 2116.22,230.414 2118.11,230.414 2120.01,230.414 2121.9,230.414 2123.79,230.414 2125.68,230.414 2127.58,230.414 2129.47,230.414 2131.36,230.414 2133.25,230.414 2135.15,230.414 2137.04,230.414 2138.93,230.414 2140.82,230.414 2142.71,230.414 2144.61,230.414 2146.5,230.414 2148.39,230.414 2150.28,230.414 2152.18,230.414 2154.07,230.414 2155.96,230.414 2157.85,230.414 2159.74,230.414 2161.64,230.414 2163.53,230.414 2165.42,230.414 2167.31,230.414 2169.21,230.414 2171.1,230.414 2172.99,230.414 2174.88,230.414 2176.78,230.414 2178.67,230.414 2180.56,230.414 2182.45,230.414 2184.34,230.414 2186.24,230.414 2188.13,230.414 2190.02,230.414 2191.91,230.414 2193.81,230.414 2195.7,230.414 2197.59,230.414 2199.48,230.414 2201.37,230.414 2203.27,230.414 2205.16,230.414 2207.05,230.414 2208.94,230.414 2210.84,230.414 2212.73,230.414 2214.62,230.414 2216.51,230.414 2218.4,230.414 2220.3,182.338 2222.19,134.262 2224.08,134.262 2225.97,134.262 2227.87,134.262 2229.76,134.262 2231.65,134.262 2233.54,134.262 2235.44,134.262 2237.33,134.262 2239.22,134.262 2241.11,134.262 2243,134.262 2244.9,134.262 2246.79,134.262 2248.68,134.262 2250.57,134.262 2252.47,134.262 2254.36,134.262 2256.25,134.262 2258.14,134.262 2260.03,134.262 2261.93,134.262 2263.82,134.262 2265.71,134.262 2267.6,134.262 2269.5,134.262 2271.39,134.262 2273.28,134.262 2275.17,134.262 2277.07,134.262 2278.96,134.262 2280.85,134.262 2282.74,134.262 2284.63,134.262 2286.53,134.262 2288.42,134.262 2290.31,134.262 2292.2,134.262 2294.1,134.262 2295.99,134.262 2297.88,134.262 2299.77,134.262 2301.66,134.262 2303.56,134.262 2305.45,134.262 2307.34,134.262 2309.23,134.262 2311.13,134.262 2313.02,134.262 2314.91,134.262 2316.8,134.262 2318.7,134.262 2320.59,134.262 2322.48,134.262 2324.37,134.262 2326.26,134.262 2328.16,134.262 2330.05,134.262 2331.94,134.262 2333.83,134.262 2335.73,134.262 2337.62,86.1857 2339.51,86.1857 2341.4,86.1857 2343.29,86.1857 2345.19,86.1857 2347.08,86.1857 2348.97,86.1857 2350.86,86.1857 2352.76,86.1857 "/>
<path clip-path="url(#clip200)" d="M214.431 248.629 L518.993 248.629 L518.993 93.1086 L214.431 93.1086  Z" fill="#ffffff" fill-rule="evenodd" fill-opacity="1"/>
<polyline clip-path="url(#clip200)" style="stroke:#000000; stroke-linecap:round; stroke-linejoin:round; stroke-width:4; stroke-opacity:1; fill:none" points="214.431,248.629 518.993,248.629 518.993,93.1086 214.431,93.1086 214.431,248.629 "/>
<polyline clip-path="url(#clip200)" style="stroke:#009af9; stroke-linecap:round; stroke-linejoin:round; stroke-width:8; stroke-opacity:1; fill:none" points="239.009,144.949 386.48,144.949 "/>
<path clip-path="url(#clip200)" d="M411.058 127.669 L417.355 127.669 L432.679 156.581 L432.679 127.669 L437.216 127.669 L437.216 162.229 L430.919 162.229 L415.595 133.317 L415.595 162.229 L411.058 162.229 L411.058 127.669 Z" fill="#000000" fill-rule="nonzero" fill-opacity="1" /><path clip-path="url(#clip200)" d="M456.567 126.257 Q453.466 131.581 451.961 136.789 Q450.456 141.997 450.456 147.344 Q450.456 152.692 451.961 157.946 Q453.489 163.178 456.567 168.479 L452.864 168.479 Q449.392 163.039 447.656 157.784 Q445.943 152.53 445.943 147.344 Q445.943 142.182 447.656 136.951 Q449.368 131.72 452.864 126.257 L456.567 126.257 Z" fill="#000000" fill-rule="nonzero" fill-opacity="1" /><path clip-path="url(#clip200)" d="M469.044 128.942 L469.044 136.303 L477.817 136.303 L477.817 139.613 L469.044 139.613 L469.044 153.687 Q469.044 156.858 469.901 157.761 Q470.78 158.664 473.442 158.664 L477.817 158.664 L477.817 162.229 L473.442 162.229 Q468.512 162.229 466.637 160.4 Q464.762 158.548 464.762 153.687 L464.762 139.613 L461.637 139.613 L461.637 136.303 L464.762 136.303 L464.762 128.942 L469.044 128.942 Z" fill="#000000" fill-rule="nonzero" fill-opacity="1" /><path clip-path="url(#clip200)" d="M482.748 126.257 L486.452 126.257 Q489.924 131.72 491.637 136.951 Q493.373 142.182 493.373 147.344 Q493.373 152.53 491.637 157.784 Q489.924 163.039 486.452 168.479 L482.748 168.479 Q485.827 163.178 487.331 157.946 Q488.859 152.692 488.859 147.344 Q488.859 141.997 487.331 136.789 Q485.827 131.581 482.748 126.257 Z" fill="#000000" fill-rule="nonzero" fill-opacity="1" /><polyline clip-path="url(#clip200)" style="stroke:#e26f46; stroke-linecap:round; stroke-linejoin:round; stroke-width:8; stroke-opacity:1; fill:none" points="239.009,196.789 386.48,196.789 "/>
<path clip-path="url(#clip200)" d="M415.734 183.351 L415.734 210.226 L421.382 210.226 Q428.535 210.226 431.845 206.985 Q435.179 203.745 435.179 196.754 Q435.179 189.809 431.845 186.592 Q428.535 183.351 421.382 183.351 L415.734 183.351 M411.058 179.509 L420.665 179.509 Q430.711 179.509 435.41 183.698 Q440.109 187.865 440.109 196.754 Q440.109 205.689 435.387 209.879 Q430.665 214.069 420.665 214.069 L411.058 214.069 L411.058 179.509 Z" fill="#000000" fill-rule="nonzero" fill-opacity="1" /><path clip-path="url(#clip200)" d="M457.609 178.097 Q454.507 183.421 453.003 188.629 Q451.498 193.837 451.498 199.184 Q451.498 204.532 453.003 209.786 Q454.53 215.018 457.609 220.319 L453.905 220.319 Q450.433 214.879 448.697 209.624 Q446.984 204.37 446.984 199.184 Q446.984 194.022 448.697 188.791 Q450.41 183.56 453.905 178.097 L457.609 178.097 Z" fill="#000000" fill-rule="nonzero" fill-opacity="1" /><path clip-path="url(#clip200)" d="M470.086 180.782 L470.086 188.143 L478.859 188.143 L478.859 191.453 L470.086 191.453 L470.086 205.527 Q470.086 208.698 470.942 209.601 Q471.822 210.504 474.484 210.504 L478.859 210.504 L478.859 214.069 L474.484 214.069 Q469.554 214.069 467.679 212.24 Q465.804 210.388 465.804 205.527 L465.804 191.453 L462.679 191.453 L462.679 188.143 L465.804 188.143 L465.804 180.782 L470.086 180.782 Z" fill="#000000" fill-rule="nonzero" fill-opacity="1" /><path clip-path="url(#clip200)" d="M483.79 178.097 L487.493 178.097 Q490.965 183.56 492.678 188.791 Q494.415 194.022 494.415 199.184 Q494.415 204.37 492.678 209.624 Q490.965 214.879 487.493 220.319 L483.79 220.319 Q486.868 215.018 488.373 209.786 Q489.901 204.532 489.901 199.184 Q489.901 193.837 488.373 188.629 Q486.868 183.421 483.79 178.097 Z" fill="#000000" fill-rule="nonzero" fill-opacity="1" /></svg>
