<?xml version="1.0" encoding="utf-8"?>
<svg xmlns="http://www.w3.org/2000/svg" xmlns:xlink="http://www.w3.org/1999/xlink" width="600" height="400" viewBox="0 0 2400 1600">
<defs>
  <clipPath id="clip090">
    <rect x="0" y="0" width="2400" height="1600"/>
  </clipPath>
</defs>
<path clip-path="url(#clip090)" d="M0 1600 L2400 1600 L2400 0 L0 0  Z" fill="#ffffff" fill-rule="evenodd" fill-opacity="1"/>
<defs>
  <clipPath id="clip091">
    <rect x="112" y="47" width="2242" height="1377"/>
  </clipPath>
</defs>
<path clip-path="url(#clip090)" d="M112.177 1423.18 L2352.76 1423.18 L2352.76 47.2441 L112.177 47.2441  Z" fill="#ffffff" fill-rule="evenodd" fill-opacity="1"/>
<polyline clip-path="url(#clip091)" style="stroke:#000000; stroke-linecap:round; stroke-linejoin:round; stroke-width:2; stroke-opacity:0.1; fill:none" points="112.177,1423.18 112.177,47.2441 "/>
<polyline clip-path="url(#clip091)" style="stroke:#000000; stroke-linecap:round; stroke-linejoin:round; stroke-width:2; stroke-opacity:0.1; fill:none" points="560.293,1423.18 560.293,47.2441 "/>
<polyline clip-path="url(#clip091)" style="stroke:#000000; stroke-linecap:round; stroke-linejoin:round; stroke-width:2; stroke-opacity:0.1; fill:none" points="1008.41,1423.18 1008.41,47.2441 "/>
<polyline clip-path="url(#clip091)" style="stroke:#000000; stroke-linecap:round; stroke-linejoin:round; stroke-width:2; stroke-opacity:0.1; fill:none" points="1456.52,1423.18 1456.52,47.2441 "/>
<polyline clip-path="url(#clip091)" style="stroke:#000000; stroke-linecap:round; stroke-linejoin:round; stroke-width:2; stroke-opacity:0.1; fill:none" points="1904.64,1423.18 1904.64,47.2441 "/>
<polyline clip-path="url(#clip091)" style="stroke:#000000; stroke-linecap:round; stroke-linejoin:round; stroke-width:2; stroke-opacity:0.1; fill:none" points="2352.76,1423.18 2352.76,47.2441 "/>
<polyline clip-path="url(#clip091)" style="stroke:#000000; stroke-linecap:round; stroke-linejoin:round; stroke-width:2; stroke-opacity:0.1; fill:none" points="112.177,1384.24 2352.76,1384.24 "/>
<polyline clip-path="url(#clip091)" style="stroke:#000000; stroke-linecap:round; stroke-linejoin:round; stroke-width:2; stroke-opacity:0.1; fill:none" points="112.177,1095.78 2352.76,1095.78 "/>
<polyline clip-path="url(#clip091)" style="stroke:#000000; stroke-linecap:round; stroke-linejoin:round; stroke-width:2; stroke-opacity:0.1; fill:none" points="112.177,807.326 2352.76,807.326 "/>
<polyline clip-path="url(#clip091)" style="stroke:#000000; stroke-linecap:round; stroke-linejoin:round; stroke-width:2; stroke-opacity:0.1; fill:none" points="112.177,518.87 2352.76,518.87 "/>
<polyline clip-path="url(#clip091)" style="stroke:#000000; stroke-linecap:round; stroke-linejoin:round; stroke-width:2; stroke-opacity:0.1; fill:none" points="112.177,230.414 2352.76,230.414 "/>
<polyline clip-path="url(#clip090)" style="stroke:#000000; stroke-linecap:round; stroke-linejoin:round; stroke-width:4; stroke-opacity:1; fill:none" points="112.177,1423.18 2352.76,1423.18 "/>
<polyline clip-path="url(#clip090)" style="stroke:#000000; stroke-linecap:round; stroke-linejoin:round; stroke-width:4; stroke-opacity:1; fill:none" points="112.177,1423.18 112.177,1404.28 "/>
<polyline clip-path="url(#clip090)" style="stroke:#000000; stroke-linecap:round; stroke-linejoin:round; stroke-width:4; stroke-opacity:1; fill:none" points="560.293,1423.18 560.293,1404.28 "/>
<polyline clip-path="url(#clip090)" style="stroke:#000000; stroke-linecap:round; stroke-linejoin:round; stroke-width:4; stroke-opacity:1; fill:none" points="1008.41,1423.18 1008.41,1404.28 "/>
<polyline clip-path="url(#clip090)" style="stroke:#000000; stroke-linecap:round; stroke-linejoin:round; stroke-width:4; stroke-opacity:1; fill:none" points="1456.52,1423.18 1456.52,1404.28 "/>
<polyline clip-path="url(#clip090)" style="stroke:#000000; stroke-linecap:round; stroke-linejoin:round; stroke-width:4; stroke-opacity:1; fill:none" points="1904.64,1423.18 1904.64,1404.28 "/>
<polyline clip-path="url(#clip090)" style="stroke:#000000; stroke-linecap:round; stroke-linejoin:round; stroke-width:4; stroke-opacity:1; fill:none" points="2352.76,1423.18 2352.76,1404.28 "/>
<path clip-path="url(#clip090)" d="M112.177 1454.1 Q108.566 1454.1 106.737 1457.66 Q104.932 1461.2 104.932 1468.33 Q104.932 1475.44 106.737 1479.01 Q108.566 1482.55 112.177 1482.55 Q115.811 1482.55 117.617 1479.01 Q119.446 1475.44 119.446 1468.33 Q119.446 1461.2 117.617 1457.66 Q115.811 1454.1 112.177 1454.1 M112.177 1450.39 Q117.987 1450.39 121.043 1455 Q124.122 1459.58 124.122 1468.33 Q124.122 1477.06 121.043 1481.67 Q117.987 1486.25 112.177 1486.25 Q106.367 1486.25 103.288 1481.67 Q100.233 1477.06 100.233 1468.33 Q100.233 1459.58 103.288 1455 Q106.367 1450.39 112.177 1450.39 Z" fill="#000000" fill-rule="nonzero" fill-opacity="1" /><path clip-path="url(#clip090)" d="M554.946 1481.64 L571.265 1481.64 L571.265 1485.58 L549.321 1485.58 L549.321 1481.64 Q551.983 1478.89 556.566 1474.26 Q561.173 1469.61 562.353 1468.27 Q564.598 1465.74 565.478 1464.01 Q566.381 1462.25 566.381 1460.56 Q566.381 1457.8 564.436 1456.07 Q562.515 1454.33 559.413 1454.33 Q557.214 1454.33 554.761 1455.09 Q552.33 1455.86 549.552 1457.41 L549.552 1452.69 Q552.376 1451.55 554.83 1450.97 Q557.284 1450.39 559.321 1450.39 Q564.691 1450.39 567.885 1453.08 Q571.08 1455.77 571.08 1460.26 Q571.08 1462.39 570.27 1464.31 Q569.483 1466.2 567.376 1468.8 Q566.798 1469.47 563.696 1472.69 Q560.594 1475.88 554.946 1481.64 Z" fill="#000000" fill-rule="nonzero" fill-opacity="1" /><path clip-path="url(#clip090)" d="M1011.42 1455.09 L999.612 1473.54 L1011.42 1473.54 L1011.42 1455.09 M1010.19 1451.02 L1016.07 1451.02 L1016.07 1473.54 L1021 1473.54 L1021 1477.43 L1016.07 1477.43 L1016.07 1485.58 L1011.42 1485.58 L1011.42 1477.43 L995.816 1477.43 L995.816 1472.92 L1010.19 1451.02 Z" fill="#000000" fill-rule="nonzero" fill-opacity="1" /><path clip-path="url(#clip090)" d="M1456.93 1466.44 Q1453.78 1466.44 1451.93 1468.59 Q1450.1 1470.74 1450.1 1474.49 Q1450.1 1478.22 1451.93 1480.39 Q1453.78 1482.55 1456.93 1482.55 Q1460.08 1482.55 1461.91 1480.39 Q1463.76 1478.22 1463.76 1474.49 Q1463.76 1470.74 1461.91 1468.59 Q1460.08 1466.44 1456.93 1466.44 M1466.21 1451.78 L1466.21 1456.04 Q1464.45 1455.21 1462.65 1454.77 Q1460.86 1454.33 1459.11 1454.33 Q1454.48 1454.33 1452.02 1457.45 Q1449.59 1460.58 1449.24 1466.9 Q1450.61 1464.89 1452.67 1463.82 Q1454.73 1462.73 1457.21 1462.73 Q1462.42 1462.73 1465.42 1465.9 Q1468.46 1469.05 1468.46 1474.49 Q1468.46 1479.82 1465.31 1483.03 Q1462.16 1486.25 1456.93 1486.25 Q1450.93 1486.25 1447.76 1481.67 Q1444.59 1477.06 1444.59 1468.33 Q1444.59 1460.14 1448.48 1455.28 Q1452.37 1450.39 1458.92 1450.39 Q1460.68 1450.39 1462.46 1450.74 Q1464.27 1451.09 1466.21 1451.78 Z" fill="#000000" fill-rule="nonzero" fill-opacity="1" /><path clip-path="url(#clip090)" d="M1904.64 1469.17 Q1901.31 1469.17 1899.39 1470.95 Q1897.49 1472.73 1897.49 1475.86 Q1897.49 1478.98 1899.39 1480.77 Q1901.31 1482.55 1904.64 1482.55 Q1907.97 1482.55 1909.89 1480.77 Q1911.82 1478.96 1911.82 1475.86 Q1911.82 1472.73 1909.89 1470.95 Q1908 1469.17 1904.64 1469.17 M1899.96 1467.18 Q1896.96 1466.44 1895.27 1464.38 Q1893.6 1462.32 1893.6 1459.35 Q1893.6 1455.21 1896.54 1452.8 Q1899.5 1450.39 1904.64 1450.39 Q1909.8 1450.39 1912.74 1452.8 Q1915.68 1455.21 1915.68 1459.35 Q1915.68 1462.32 1913.99 1464.38 Q1912.33 1466.44 1909.34 1467.18 Q1912.72 1467.96 1914.59 1470.26 Q1916.49 1472.55 1916.49 1475.86 Q1916.49 1480.88 1913.41 1483.57 Q1910.36 1486.25 1904.64 1486.25 Q1898.92 1486.25 1895.84 1483.57 Q1892.79 1480.88 1892.79 1475.86 Q1892.79 1472.55 1894.69 1470.26 Q1896.58 1467.96 1899.96 1467.18 M1898.25 1459.79 Q1898.25 1462.48 1899.92 1463.98 Q1901.61 1465.49 1904.64 1465.49 Q1907.65 1465.49 1909.34 1463.98 Q1911.05 1462.48 1911.05 1459.79 Q1911.05 1457.11 1909.34 1455.6 Q1907.65 1454.1 1904.64 1454.1 Q1901.61 1454.1 1899.92 1455.6 Q1898.25 1457.11 1898.25 1459.79 Z" fill="#000000" fill-rule="nonzero" fill-opacity="1" /><path clip-path="url(#clip090)" d="M2327.44 1481.64 L2335.08 1481.64 L2335.08 1455.28 L2326.77 1456.95 L2326.77 1452.69 L2335.04 1451.02 L2339.71 1451.02 L2339.71 1481.64 L2347.35 1481.64 L2347.35 1485.58 L2327.44 1485.58 L2327.44 1481.64 Z" fill="#000000" fill-rule="nonzero" fill-opacity="1" /><path clip-path="url(#clip090)" d="M2366.8 1454.1 Q2363.18 1454.1 2361.36 1457.66 Q2359.55 1461.2 2359.55 1468.33 Q2359.55 1475.44 2361.36 1479.01 Q2363.18 1482.55 2366.8 1482.55 Q2370.43 1482.55 2372.23 1479.01 Q2374.06 1475.44 2374.06 1468.33 Q2374.06 1461.2 2372.23 1457.66 Q2370.43 1454.1 2366.8 1454.1 M2366.8 1450.39 Q2372.61 1450.39 2375.66 1455 Q2378.74 1459.58 2378.74 1468.33 Q2378.74 1477.06 2375.66 1481.67 Q2372.61 1486.25 2366.8 1486.25 Q2360.99 1486.25 2357.91 1481.67 Q2354.85 1477.06 2354.85 1468.33 Q2354.85 1459.58 2357.91 1455 Q2360.99 1450.39 2366.8 1450.39 Z" fill="#000000" fill-rule="nonzero" fill-opacity="1" /><path clip-path="url(#clip090)" d="M1231.53 1522.27 L1231.53 1532.4 L1243.59 1532.4 L1243.59 1536.95 L1231.53 1536.95 L1231.53 1556.3 Q1231.53 1560.66 1232.71 1561.9 Q1233.91 1563.14 1237.58 1563.14 L1243.59 1563.14 L1243.59 1568.04 L1237.58 1568.04 Q1230.8 1568.04 1228.22 1565.53 Q1225.64 1562.98 1225.64 1556.3 L1225.64 1536.95 L1221.34 1536.95 L1221.34 1532.4 L1225.64 1532.4 L1225.64 1522.27 L1231.53 1522.27 Z" fill="#000000" fill-rule="nonzero" fill-opacity="1" /><polyline clip-path="url(#clip090)" style="stroke:#000000; stroke-linecap:round; stroke-linejoin:round; stroke-width:4; stroke-opacity:1; fill:none" points="112.177,1423.18 112.177,47.2441 "/>
<polyline clip-path="url(#clip090)" style="stroke:#000000; stroke-linecap:round; stroke-linejoin:round; stroke-width:4; stroke-opacity:1; fill:none" points="112.177,1384.24 131.075,1384.24 "/>
<polyline clip-path="url(#clip090)" style="stroke:#000000; stroke-linecap:round; stroke-linejoin:round; stroke-width:4; stroke-opacity:1; fill:none" points="112.177,1095.78 131.075,1095.78 "/>
<polyline clip-path="url(#clip090)" style="stroke:#000000; stroke-linecap:round; stroke-linejoin:round; stroke-width:4; stroke-opacity:1; fill:none" points="112.177,807.326 131.075,807.326 "/>
<polyline clip-path="url(#clip090)" style="stroke:#000000; stroke-linecap:round; stroke-linejoin:round; stroke-width:4; stroke-opacity:1; fill:none" points="112.177,518.87 131.075,518.87 "/>
<polyline clip-path="url(#clip090)" style="stroke:#000000; stroke-linecap:round; stroke-linejoin:round; stroke-width:4; stroke-opacity:1; fill:none" points="112.177,230.414 131.075,230.414 "/>
<path clip-path="url(#clip090)" d="M64.2328 1370.04 Q60.6217 1370.04 58.793 1373.6 Q56.9875 1377.14 56.9875 1384.27 Q56.9875 1391.38 58.793 1394.94 Q60.6217 1398.49 64.2328 1398.49 Q67.867 1398.49 69.6726 1394.94 Q71.5013 1391.38 71.5013 1384.27 Q71.5013 1377.14 69.6726 1373.6 Q67.867 1370.04 64.2328 1370.04 M64.2328 1366.33 Q70.0429 1366.33 73.0985 1370.94 Q76.1772 1375.52 76.1772 1384.27 Q76.1772 1393 73.0985 1397.61 Q70.0429 1402.19 64.2328 1402.19 Q58.4226 1402.19 55.344 1397.61 Q52.2884 1393 52.2884 1384.27 Q52.2884 1375.52 55.344 1370.94 Q58.4226 1366.33 64.2328 1366.33 Z" fill="#000000" fill-rule="nonzero" fill-opacity="1" /><path clip-path="url(#clip090)" d="M59.8578 1109.13 L76.1772 1109.13 L76.1772 1113.06 L54.2328 1113.06 L54.2328 1109.13 Q56.8949 1106.37 61.4782 1101.74 Q66.0846 1097.09 67.2652 1095.75 Q69.5105 1093.22 70.3902 1091.49 Q71.2929 1089.73 71.2929 1088.04 Q71.2929 1085.28 69.3485 1083.55 Q67.4272 1081.81 64.3254 1081.81 Q62.1263 1081.81 59.6726 1082.58 Q57.2421 1083.34 54.4643 1084.89 L54.4643 1080.17 Q57.2884 1079.03 59.7421 1078.46 Q62.1958 1077.88 64.2328 1077.88 Q69.6031 1077.88 72.7976 1080.56 Q75.992 1083.25 75.992 1087.74 Q75.992 1089.87 75.1818 1091.79 Q74.3948 1093.69 72.2883 1096.28 Q71.7096 1096.95 68.6078 1100.17 Q65.5059 1103.36 59.8578 1109.13 Z" fill="#000000" fill-rule="nonzero" fill-opacity="1" /><path clip-path="url(#clip090)" d="M66.5939 794.12 L54.7884 812.569 L66.5939 812.569 L66.5939 794.12 M65.367 790.046 L71.2466 790.046 L71.2466 812.569 L76.1772 812.569 L76.1772 816.458 L71.2466 816.458 L71.2466 824.606 L66.5939 824.606 L66.5939 816.458 L50.9921 816.458 L50.9921 811.944 L65.367 790.046 Z" fill="#000000" fill-rule="nonzero" fill-opacity="1" /><path clip-path="url(#clip090)" d="M64.6495 517.006 Q61.5013 517.006 59.6495 519.159 Q57.8208 521.312 57.8208 525.062 Q57.8208 528.789 59.6495 530.965 Q61.5013 533.117 64.6495 533.117 Q67.7976 533.117 69.6263 530.965 Q71.4781 528.789 71.4781 525.062 Q71.4781 521.312 69.6263 519.159 Q67.7976 517.006 64.6495 517.006 M73.9318 502.354 L73.9318 506.613 Q72.1726 505.78 70.367 505.34 Q68.5846 504.9 66.8254 504.9 Q62.1958 504.9 59.7421 508.025 Q57.3115 511.15 56.9643 517.469 Q58.33 515.456 60.3902 514.391 Q62.4504 513.303 64.9272 513.303 Q70.1355 513.303 73.1448 516.474 Q76.1772 519.622 76.1772 525.062 Q76.1772 530.386 73.029 533.604 Q69.8809 536.821 64.6495 536.821 Q58.6541 536.821 55.4828 532.238 Q52.3116 527.631 52.3116 518.905 Q52.3116 510.71 56.2004 505.849 Q60.0893 500.965 66.6402 500.965 Q68.3994 500.965 70.1818 501.312 Q71.9874 501.659 73.9318 502.354 Z" fill="#000000" fill-rule="nonzero" fill-opacity="1" /><path clip-path="url(#clip090)" d="M64.3254 231.282 Q60.9921 231.282 59.0708 233.064 Q57.1726 234.847 57.1726 237.972 Q57.1726 241.097 59.0708 242.879 Q60.9921 244.661 64.3254 244.661 Q67.6587 244.661 69.58 242.879 Q71.5013 241.073 71.5013 237.972 Q71.5013 234.847 69.58 233.064 Q67.6819 231.282 64.3254 231.282 M59.6495 229.291 Q56.6402 228.55 54.9504 226.49 Q53.2838 224.43 53.2838 221.467 Q53.2838 217.324 56.2236 214.916 Q59.1865 212.509 64.3254 212.509 Q69.4874 212.509 72.4272 214.916 Q75.367 217.324 75.367 221.467 Q75.367 224.43 73.6772 226.49 Q72.0105 228.55 69.0244 229.291 Q72.404 230.078 74.279 232.37 Q76.1772 234.661 76.1772 237.972 Q76.1772 242.995 73.0985 245.68 Q70.0429 248.365 64.3254 248.365 Q58.6078 248.365 55.5291 245.68 Q52.4736 242.995 52.4736 237.972 Q52.4736 234.661 54.3717 232.37 Q56.2699 230.078 59.6495 229.291 M57.9365 221.907 Q57.9365 224.592 59.6032 226.097 Q61.293 227.601 64.3254 227.601 Q67.3346 227.601 69.0244 226.097 Q70.7374 224.592 70.7374 221.907 Q70.7374 219.222 69.0244 217.717 Q67.3346 216.212 64.3254 216.212 Q61.293 216.212 59.6032 217.717 Q57.9365 219.222 57.9365 221.907 Z" fill="#000000" fill-rule="nonzero" fill-opacity="1" /><polyline clip-path="url(#clip091)" style="stroke:#009af9; stroke-linecap:round; stroke-linejoin:round; stroke-width:8; stroke-opacity:1; fill:none" points="112.177,1384.24 114.216,1384.24 116.255,1384.24 118.293,1384.24 120.332,1384.24 122.371,1384.24 124.41,1384.24 126.448,1384.24 128.487,1384.24 130.526,1384.24 132.565,1384.24 134.603,1384.24 136.642,1384.24 138.681,1384.24 140.72,1384.24 142.758,1384.24 144.797,1384.24 146.836,1384.24 148.875,1384.24 150.913,1384.24 152.952,1384.24 154.991,1384.24 157.03,1384.24 159.068,1384.24 161.107,1384.24 163.146,1384.24 165.184,1384.24 167.223,1384.24 169.262,1384.24 171.301,1384.24 173.339,1384.24 175.378,1384.24 177.417,1384.24 179.456,1384.24 181.494,1384.24 183.533,1384.24 185.572,1384.24 187.611,1384.24 189.649,1384.24 191.688,1384.24 193.727,1384.24 195.766,1384.24 197.804,1384.24 199.843,1384.24 201.882,1384.24 203.921,1384.24 205.959,1384.24 207.998,1384.24 210.037,1384.24 212.076,1384.24 214.114,1384.24 216.153,1384.24 218.192,1384.24 220.231,1384.24 222.269,1384.24 224.308,1384.24 226.347,1384.24 228.386,1384.24 230.424,1384.24 232.463,1384.24 234.502,1384.24 236.541,1384.24 238.579,1384.24 240.618,1384.24 242.657,1384.24 244.695,1384.24 246.734,1384.24 248.773,1384.24 250.812,1384.24 252.85,1384.24 254.889,1384.24 256.928,1384.24 258.967,1384.24 261.005,1384.24 263.044,1384.24 265.083,1384.24 267.122,1384.24 269.16,1384.24 271.199,1384.24 273.238,1384.24 275.277,1384.24 277.315,1384.24 279.354,1384.24 281.393,1384.24 283.432,1384.24 285.47,1384.24 287.509,1384.24 289.548,1384.24 291.587,1384.24 293.625,1384.24 295.664,1384.24 297.703,1384.24 299.742,1384.24 301.78,1384.24 303.819,1384.24 305.858,1384.24 307.897,1384.24 309.935,1384.24 311.974,1384.24 314.013,1384.24 316.051,1384.24 318.09,1384.24 320.129,1384.24 322.168,1384.24 324.206,1384.24 326.245,1384.24 328.284,1384.24 330.323,1384.24 332.361,1384.24 334.4,1384.24 336.439,1384.24 338.478,1384.24 340.516,1384.24 342.555,1384.24 344.594,1384.24 346.633,1384.24 348.671,1384.24 350.71,1384.24 352.749,1384.24 354.788,1384.24 356.826,1384.24 358.865,1384.24 360.904,1384.24 362.943,1384.24 364.981,1384.24 367.02,1384.24 369.059,1384.24 371.098,1384.24 373.136,1384.24 375.175,1384.24 377.214,1384.24 379.253,1384.24 381.291,1384.24 383.33,1384.24 385.369,1384.24 387.408,1384.24 389.446,1384.24 391.485,1384.24 393.524,1384.24 395.562,1384.24 397.601,1384.24 399.64,1384.24 401.679,1384.24 403.717,1384.24 405.756,1384.24 407.795,1384.24 409.834,1384.24 411.872,1384.24 413.911,1384.24 415.95,1384.24 417.989,1384.24 420.027,1384.24 422.066,1384.24 424.105,1384.24 426.144,1384.24 428.182,1384.24 430.221,1384.24 432.26,1384.24 434.299,1384.24 436.337,1384.24 438.376,1384.24 440.415,1384.24 442.454,1384.24 444.492,1384.24 446.531,1384.24 448.57,1384.24 450.609,1384.24 452.647,1384.24 454.686,1384.24 456.725,1384.24 458.764,1384.24 460.802,1384.24 462.841,1384.24 464.88,1384.24 466.918,1384.24 468.957,1384.24 470.996,1384.24 473.035,1384.24 475.073,1384.24 477.112,1384.24 479.151,1384.24 481.19,1384.24 483.228,1384.24 485.267,1384.24 487.306,1384.24 489.345,1384.24 491.383,1384.24 493.422,1384.24 495.461,1384.24 497.5,1384.24 499.538,1384.24 501.577,1384.24 503.616,1384.24 505.655,1384.24 507.693,1384.24 509.732,1384.24 511.771,1384.24 513.81,1384.24 515.848,1384.24 517.887,1384.24 519.926,1384.24 521.965,1384.24 524.003,1384.24 526.042,1384.24 528.081,1384.24 530.12,1384.24 532.158,1384.24 534.197,1384.24 536.236,1384.24 538.274,1384.24 540.313,1384.24 542.352,1384.24 544.391,1384.24 546.429,1384.24 548.468,1384.24 550.507,1384.24 552.546,1384.24 554.584,1384.24 556.623,1384.24 558.662,1384.24 560.701,1384.24 562.739,1384.24 564.778,1384.24 566.817,1384.24 568.856,1384.24 570.894,1240.01 572.933,1240.01 574.972,1240.01 577.011,1240.01 579.049,1240.01 581.088,1240.01 583.127,1240.01 585.166,1240.01 587.204,1240.01 589.243,1240.01 591.282,1240.01 593.321,1240.01 595.359,1240.01 597.398,1240.01 599.437,1240.01 601.476,1240.01 603.514,1240.01 605.553,1240.01 607.592,1240.01 609.631,1240.01 611.669,1240.01 613.708,1240.01 615.747,1240.01 617.785,1240.01 619.824,1240.01 621.863,1240.01 623.902,1240.01 625.94,1240.01 627.979,1240.01 630.018,1240.01 632.057,1240.01 634.095,1240.01 636.134,1240.01 638.173,1240.01 640.212,1240.01 642.25,1240.01 644.289,1240.01 646.328,1240.01 648.367,1240.01 650.405,1240.01 652.444,1240.01 654.483,1240.01 656.522,1240.01 658.56,1240.01 660.599,1240.01 662.638,1240.01 664.677,1240.01 666.715,1240.01 668.754,1240.01 670.793,1240.01 672.832,1240.01 674.87,1240.01 676.909,1240.01 678.948,1240.01 680.987,1240.01 683.025,1240.01 685.064,1240.01 687.103,1240.01 689.141,1240.01 691.18,1240.01 693.219,1095.78 695.258,1095.78 697.296,1095.78 699.335,1095.78 701.374,1095.78 703.413,1095.78 705.451,1095.78 707.49,1095.78 709.529,1095.78 711.568,1095.78 713.606,1095.78 715.645,1095.78 717.684,1095.78 719.723,1095.78 721.761,1095.78 723.8,1095.78 725.839,1095.78 727.878,1095.78 729.916,1095.78 731.955,1095.78 733.994,1095.78 736.033,1095.78 738.071,1095.78 740.11,1095.78 742.149,1095.78 744.188,1095.78 746.226,1095.78 748.265,1095.78 750.304,951.554 752.343,951.554 754.381,951.554 756.42,951.554 758.459,951.554 760.498,951.554 762.536,951.554 764.575,951.554 766.614,951.554 768.652,951.554 770.691,951.554 772.73,951.554 774.769,951.554 776.807,951.554 778.846,951.554 780.885,951.554 782.924,951.554 784.962,951.554 787.001,951.554 789.04,951.554 791.079,951.554 793.117,951.554 795.156,951.554 797.195,951.554 799.234,951.554 801.272,951.554 803.311,951.554 805.35,951.554 807.389,951.554 809.427,951.554 811.466,951.554 813.505,951.554 815.544,951.554 817.582,951.554 819.621,951.554 821.66,951.554 823.699,951.554 825.737,951.554 827.776,951.554 829.815,951.554 831.854,951.554 833.892,951.554 835.931,951.554 837.97,951.554 840.008,951.554 842.047,951.554 844.086,951.554 846.125,951.554 848.163,951.554 850.202,951.554 852.241,951.554 854.28,951.554 856.318,951.554 858.357,951.554 860.396,951.554 862.435,951.554 864.473,951.554 866.512,951.554 868.551,951.554 870.59,951.554 872.628,951.554 874.667,951.554 876.706,951.554 878.745,951.554 880.783,951.554 882.822,951.554 884.861,951.554 886.9,951.554 888.938,951.554 890.977,951.554 893.016,951.554 895.055,951.554 897.093,951.554 899.132,951.554 901.171,951.554 903.21,951.554 905.248,951.554 907.287,951.554 909.326,951.554 911.364,951.554 913.403,951.554 915.442,951.554 917.481,951.554 919.519,951.554 921.558,951.554 923.597,951.554 925.636,951.554 927.674,951.554 929.713,951.554 931.752,951.554 933.791,951.554 935.829,951.554 937.868,951.554 939.907,951.554 941.946,951.554 943.984,951.554 946.023,951.554 948.062,951.554 950.101,951.554 952.139,951.554 954.178,951.554 956.217,951.554 958.256,951.554 960.294,951.554 962.333,951.554 964.372,951.554 966.411,951.554 968.449,951.554 970.488,951.554 972.527,951.554 974.566,951.554 976.604,951.554 978.643,951.554 980.682,951.554 982.721,951.554 984.759,951.554 986.798,951.554 988.837,951.554 990.875,951.554 992.914,951.554 994.953,951.554 996.992,951.554 999.03,951.554 1001.07,951.554 1003.11,951.554 1005.15,951.554 1007.19,951.554 1009.22,951.554 1011.26,951.554 1013.3,951.554 1015.34,951.554 1017.38,951.554 1019.42,951.554 1021.46,951.554 1023.5,951.554 1025.53,951.554 1027.57,951.554 1029.61,951.554 1031.65,951.554 1033.69,951.554 1035.73,807.326 1037.77,663.098 1039.81,663.098 1041.84,663.098 1043.88,663.098 1045.92,663.098 1047.96,663.098 1050,663.098 1052.04,663.098 1054.08,663.098 1056.12,663.098 1058.15,663.098 1060.19,663.098 1062.23,663.098 1064.27,663.098 1066.31,663.098 1068.35,663.098 1070.39,663.098 1072.43,663.098 1074.46,663.098 1076.5,663.098 1078.54,663.098 1080.58,663.098 1082.62,663.098 1084.66,663.098 1086.7,663.098 1088.74,663.098 1090.77,663.098 1092.81,663.098 1094.85,663.098 1096.89,663.098 1098.93,663.098 1100.97,663.098 1103.01,663.098 1105.05,663.098 1107.08,663.098 1109.12,663.098 1111.16,663.098 1113.2,663.098 1115.24,663.098 1117.28,663.098 1119.32,663.098 1121.36,663.098 1123.39,663.098 1125.43,663.098 1127.47,518.87 1129.51,518.87 1131.55,518.87 1133.59,518.87 1135.63,518.87 1137.66,518.87 1139.7,518.87 1141.74,518.87 1143.78,518.87 1145.82,518.87 1147.86,518.87 1149.9,518.87 1151.94,518.87 1153.97,518.87 1156.01,518.87 1158.05,518.87 1160.09,518.87 1162.13,518.87 1164.17,518.87 1166.21,518.87 1168.25,518.87 1170.28,518.87 1172.32,518.87 1174.36,518.87 1176.4,518.87 1178.44,518.87 1180.48,518.87 1182.52,518.87 1184.56,518.87 1186.59,518.87 1188.63,518.87 1190.67,518.87 1192.71,518.87 1194.75,518.87 1196.79,518.87 1198.83,518.87 1200.87,518.87 1202.9,518.87 1204.94,518.87 1206.98,518.87 1209.02,518.87 1211.06,518.87 1213.1,518.87 1215.14,518.87 1217.18,518.87 1219.21,518.87 1221.25,518.87 1223.29,518.87 1225.33,518.87 1227.37,518.87 1229.41,518.87 1231.45,518.87 1233.49,518.87 1235.52,518.87 1237.56,518.87 1239.6,518.87 1241.64,518.87 1243.68,518.87 1245.72,518.87 1247.76,518.87 1249.8,518.87 1251.83,518.87 1253.87,518.87 1255.91,518.87 1257.95,518.87 1259.99,518.87 1262.03,518.87 1264.07,518.87 1266.11,518.87 1268.14,518.87 1270.18,518.87 1272.22,518.87 1274.26,518.87 1276.3,518.87 1278.34,518.87 1280.38,518.87 1282.42,518.87 1284.45,518.87 1286.49,518.87 1288.53,518.87 1290.57,518.87 1292.61,518.87 1294.65,518.87 1296.69,518.87 1298.73,518.87 1300.76,518.87 1302.8,518.87 1304.84,518.87 1306.88,518.87 1308.92,518.87 1310.96,518.87 1313,518.87 1315.04,518.87 1317.07,518.87 1319.11,518.87 1321.15,518.87 1323.19,518.87 1325.23,518.87 1327.27,518.87 1329.31,518.87 1331.35,518.87 1333.38,518.87 1335.42,518.87 1337.46,518.87 1339.5,518.87 1341.54,518.87 1343.58,518.87 1345.62,518.87 1347.66,518.87 1349.69,518.87 1351.73,518.87 1353.77,518.87 1355.81,518.87 1357.85,518.87 1359.89,518.87 1361.93,518.87 1363.97,518.87 1366,518.87 1368.04,518.87 1370.08,518.87 1372.12,518.87 1374.16,518.87 1376.2,518.87 1378.24,518.87 1380.28,518.87 1382.31,518.87 1384.35,518.87 1386.39,518.87 1388.43,518.87 1390.47,518.87 1392.51,518.87 1394.55,518.87 1396.59,518.87 1398.62,518.87 1400.66,518.87 1402.7,518.87 1404.74,518.87 1406.78,518.87 1408.82,518.87 1410.86,518.87 1412.9,518.87 1414.93,518.87 1416.97,518.87 1419.01,518.87 1421.05,518.87 1423.09,518.87 1425.13,518.87 1427.17,518.87 1429.21,518.87 1431.24,518.87 1433.28,518.87 1435.32,518.87 1437.36,518.87 1439.4,518.87 1441.44,518.87 1443.48,518.87 1445.52,518.87 1447.55,518.87 1449.59,518.87 1451.63,518.87 1453.67,518.87 1455.71,518.87 1457.75,518.87 1459.79,518.87 1461.83,518.87 1463.86,518.87 1465.9,518.87 1467.94,518.87 1469.98,518.87 1472.02,518.87 1474.06,518.87 1476.1,518.87 1478.14,518.87 1480.17,518.87 1482.21,518.87 1484.25,518.87 1486.29,518.87 1488.33,518.87 1490.37,518.87 1492.41,518.87 1494.45,518.87 1496.48,518.87 1498.52,518.87 1500.56,518.87 1502.6,518.87 1504.64,518.87 1506.68,518.87 1508.72,518.87 1510.75,518.87 1512.79,518.87 1514.83,518.87 1516.87,518.87 1518.91,518.87 1520.95,518.87 1522.99,518.87 1525.03,518.87 1527.06,518.87 1529.1,518.87 1531.14,518.87 1533.18,518.87 1535.22,518.87 1537.26,518.87 1539.3,518.87 1541.34,518.87 1543.37,518.87 1545.41,518.87 1547.45,518.87 1549.49,518.87 1551.53,518.87 1553.57,518.87 1555.61,518.87 1557.65,518.87 1559.68,518.87 1561.72,518.87 1563.76,518.87 1565.8,518.87 1567.84,518.87 1569.88,518.87 1571.92,518.87 1573.96,518.87 1575.99,518.87 1578.03,518.87 1580.07,518.87 1582.11,518.87 1584.15,518.87 1586.19,518.87 1588.23,518.87 1590.27,518.87 1592.3,518.87 1594.34,518.87 1596.38,518.87 1598.42,518.87 1600.46,518.87 1602.5,374.642 1604.54,374.642 1606.58,374.642 1608.61,374.642 1610.65,374.642 1612.69,374.642 1614.73,374.642 1616.77,374.642 1618.81,374.642 1620.85,374.642 1622.89,374.642 1624.92,374.642 1626.96,374.642 1629,374.642 1631.04,374.642 1633.08,374.642 1635.12,374.642 1637.16,374.642 1639.2,374.642 1641.23,374.642 1643.27,374.642 1645.31,374.642 1647.35,374.642 1649.39,374.642 1651.43,374.642 1653.47,374.642 1655.51,374.642 1657.54,374.642 1659.58,374.642 1661.62,374.642 1663.66,374.642 1665.7,374.642 1667.74,374.642 1669.78,374.642 1671.82,374.642 1673.85,374.642 1675.89,374.642 1677.93,374.642 1679.97,374.642 1682.01,374.642 1684.05,374.642 1686.09,374.642 1688.13,374.642 1690.16,374.642 1692.2,374.642 1694.24,374.642 1696.28,374.642 1698.32,374.642 1700.36,374.642 1702.4,374.642 1704.44,374.642 1706.47,374.642 1708.51,374.642 1710.55,374.642 1712.59,374.642 1714.63,374.642 1716.67,374.642 1718.71,374.642 1720.75,374.642 1722.78,374.642 1724.82,374.642 1726.86,374.642 1728.9,374.642 1730.94,374.642 1732.98,374.642 1735.02,374.642 1737.06,374.642 1739.09,374.642 1741.13,374.642 1743.17,374.642 1745.21,374.642 1747.25,374.642 1749.29,374.642 1751.33,374.642 1753.37,374.642 1755.4,374.642 1757.44,374.642 1759.48,374.642 1761.52,374.642 1763.56,374.642 1765.6,374.642 1767.64,374.642 1769.68,374.642 1771.71,374.642 1773.75,374.642 1775.79,374.642 1777.83,374.642 1779.87,374.642 1781.91,374.642 1783.95,374.642 1785.99,374.642 1788.02,374.642 1790.06,374.642 1792.1,374.642 1794.14,374.642 1796.18,374.642 1798.22,374.642 1800.26,374.642 1802.3,374.642 1804.33,374.642 1806.37,374.642 1808.41,374.642 1810.45,374.642 1812.49,374.642 1814.53,374.642 1816.57,374.642 1818.61,374.642 1820.64,374.642 1822.68,374.642 1824.72,374.642 1826.76,374.642 1828.8,374.642 1830.84,374.642 1832.88,374.642 1834.92,374.642 1836.95,374.642 1838.99,374.642 1841.03,374.642 1843.07,374.642 1845.11,374.642 1847.15,374.642 1849.19,374.642 1851.23,374.642 1853.26,374.642 1855.3,374.642 1857.34,374.642 1859.38,374.642 1861.42,374.642 1863.46,374.642 1865.5,374.642 1867.54,374.642 1869.57,374.642 1871.61,374.642 1873.65,374.642 1875.69,374.642 1877.73,374.642 1879.77,374.642 1881.81,374.642 1883.84,374.642 1885.88,374.642 1887.92,374.642 1889.96,374.642 1892,374.642 1894.04,374.642 1896.08,374.642 1898.12,374.642 1900.15,374.642 1902.19,374.642 1904.23,374.642 1906.27,374.642 1908.31,374.642 1910.35,374.642 1912.39,374.642 1914.43,374.642 1916.46,374.642 1918.5,374.642 1920.54,374.642 1922.58,374.642 1924.62,374.642 1926.66,374.642 1928.7,374.642 1930.74,374.642 1932.77,374.642 1934.81,374.642 1936.85,374.642 1938.89,374.642 1940.93,374.642 1942.97,374.642 1945.01,374.642 1947.05,374.642 1949.08,374.642 1951.12,374.642 1953.16,374.642 1955.2,374.642 1957.24,374.642 1959.28,374.642 1961.32,374.642 1963.36,374.642 1965.39,374.642 1967.43,374.642 1969.47,374.642 1971.51,374.642 1973.55,374.642 1975.59,374.642 1977.63,374.642 1979.67,374.642 1981.7,374.642 1983.74,374.642 1985.78,374.642 1987.82,374.642 1989.86,374.642 1991.9,374.642 1993.94,374.642 1995.98,374.642 1998.01,374.642 2000.05,374.642 2002.09,374.642 2004.13,374.642 2006.17,374.642 2008.21,374.642 2010.25,374.642 2012.29,374.642 2014.32,374.642 2016.36,374.642 2018.4,374.642 2020.44,374.642 2022.48,374.642 2024.52,374.642 2026.56,374.642 2028.6,374.642 2030.63,374.642 2032.67,374.642 2034.71,374.642 2036.75,374.642 2038.79,374.642 2040.83,374.642 2042.87,374.642 2044.91,374.642 2046.94,374.642 2048.98,374.642 2051.02,374.642 2053.06,374.642 2055.1,374.642 2057.14,374.642 2059.18,374.642 2061.22,374.642 2063.25,374.642 2065.29,374.642 2067.33,374.642 2069.37,374.642 2071.41,374.642 2073.45,374.642 2075.49,374.642 2077.53,374.642 2079.56,230.414 2081.6,230.414 2083.64,230.414 2085.68,230.414 2087.72,230.414 2089.76,230.414 2091.8,230.414 2093.84,230.414 2095.87,230.414 2097.91,230.414 2099.95,230.414 2101.99,230.414 2104.03,230.414 2106.07,230.414 2108.11,230.414 2110.15,230.414 2112.18,230.414 2114.22,230.414 2116.26,230.414 2118.3,230.414 2120.34,230.414 2122.38,230.414 2124.42,230.414 2126.46,230.414 2128.49,230.414 2130.53,230.414 2132.57,230.414 2134.61,230.414 2136.65,230.414 2138.69,230.414 2140.73,230.414 2142.77,230.414 2144.8,230.414 2146.84,230.414 2148.88,230.414 2150.92,230.414 2152.96,230.414 2155,230.414 2157.04,230.414 2159.08,230.414 2161.11,230.414 2163.15,230.414 2165.19,230.414 2167.23,230.414 2169.27,230.414 2171.31,230.414 2173.35,230.414 2175.39,230.414 2177.42,230.414 2179.46,230.414 2181.5,230.414 2183.54,230.414 2185.58,230.414 2187.62,230.414 2189.66,230.414 2191.7,230.414 2193.73,230.414 2195.77,230.414 2197.81,230.414 2199.85,230.414 2201.89,230.414 2203.93,230.414 2205.97,230.414 2208.01,230.414 2210.04,230.414 2212.08,230.414 2214.12,230.414 2216.16,230.414 2218.2,230.414 2220.24,230.414 2222.28,230.414 2224.32,230.414 2226.35,230.414 2228.39,230.414 2230.43,230.414 2232.47,230.414 2234.51,230.414 2236.55,230.414 2238.59,230.414 2240.63,230.414 2242.66,230.414 2244.7,230.414 2246.74,230.414 2248.78,230.414 2250.82,230.414 2252.86,230.414 2254.9,230.414 2256.93,230.414 2258.97,230.414 2261.01,230.414 2263.05,230.414 2265.09,230.414 2267.13,230.414 2269.17,230.414 2271.21,230.414 2273.24,230.414 2275.28,230.414 2277.32,230.414 2279.36,230.414 2281.4,230.414 2283.44,230.414 2285.48,230.414 2287.52,230.414 2289.55,230.414 2291.59,230.414 2293.63,230.414 2295.67,230.414 2297.71,230.414 2299.75,230.414 2301.79,230.414 2303.83,230.414 2305.86,230.414 2307.9,230.414 2309.94,230.414 2311.98,230.414 2314.02,230.414 2316.06,230.414 2318.1,230.414 2320.14,230.414 2322.17,230.414 2324.21,230.414 2326.25,230.414 2328.29,230.414 2330.33,230.414 2332.37,230.414 2334.41,230.414 2336.45,230.414 2338.48,230.414 2340.52,230.414 2342.56,230.414 2344.6,86.1857 2346.64,86.1857 2348.68,86.1857 2350.72,86.1857 2352.76,86.1857 "/>
<path clip-path="url(#clip090)" d="M186.863 196.789 L500.018 196.789 L500.018 93.1086 L186.863 93.1086  Z" fill="#ffffff" fill-rule="evenodd" fill-opacity="1"/>
<polyline clip-path="url(#clip090)" style="stroke:#000000; stroke-linecap:round; stroke-linejoin:round; stroke-width:4; stroke-opacity:1; fill:none" points="186.863,196.789 500.018,196.789 500.018,93.1086 186.863,93.1086 186.863,196.789 "/>
<polyline clip-path="url(#clip090)" style="stroke:#009af9; stroke-linecap:round; stroke-linejoin:round; stroke-width:8; stroke-opacity:1; fill:none" points="211.758,144.949 361.13,144.949 "/>
<path clip-path="url(#clip090)" d="M386.026 151.997 L386.026 136.303 L390.285 136.303 L390.285 151.835 Q390.285 155.516 391.72 157.368 Q393.155 159.196 396.026 159.196 Q399.475 159.196 401.465 156.997 Q403.479 154.798 403.479 151.002 L403.479 136.303 L407.739 136.303 L407.739 162.229 L403.479 162.229 L403.479 158.247 Q401.928 160.608 399.868 161.766 Q397.831 162.9 395.123 162.9 Q390.655 162.9 388.34 160.122 Q386.026 157.344 386.026 151.997 M396.743 135.678 L396.743 135.678 Z" fill="#000000" fill-rule="nonzero" fill-opacity="1" /><path clip-path="url(#clip090)" d="M416.118 126.21 L425.933 126.21 L425.933 129.52 L420.377 129.52 L420.377 165.168 L425.933 165.168 L425.933 168.479 L416.118 168.479 L416.118 126.21 Z" fill="#000000" fill-rule="nonzero" fill-opacity="1" /><path clip-path="url(#clip090)" d="M436.419 158.293 L444.058 158.293 L444.058 131.928 L435.748 133.595 L435.748 129.335 L444.011 127.669 L448.687 127.669 L448.687 158.293 L456.326 158.293 L456.326 162.229 L436.419 162.229 L436.419 158.293 Z" fill="#000000" fill-rule="nonzero" fill-opacity="1" /><path clip-path="url(#clip090)" d="M475.122 126.21 L475.122 168.479 L465.308 168.479 L465.308 165.168 L470.84 165.168 L470.84 129.52 L465.308 129.52 L465.308 126.21 L475.122 126.21 Z" fill="#000000" fill-rule="nonzero" fill-opacity="1" /></svg>
