<?xml version="1.0" encoding="utf-8"?>
<svg xmlns="http://www.w3.org/2000/svg" xmlns:xlink="http://www.w3.org/1999/xlink" width="600" height="400" viewBox="0 0 2400 1600">
<defs>
  <clipPath id="clip300">
    <rect x="0" y="0" width="2400" height="1600"/>
  </clipPath>
</defs>
<path clip-path="url(#clip300)" d="M0 1600 L2400 1600 L2400 0 L0 0  Z" fill="#ffffff" fill-rule="evenodd" fill-opacity="1"/>
<defs>
  <clipPath id="clip301">
    <rect x="480" y="0" width="1681" height="1600"/>
  </clipPath>
</defs>
<path clip-path="url(#clip300)" d="M140.696 1423.18 L2352.76 1423.18 L2352.76 47.2441 L140.696 47.2441  Z" fill="#ffffff" fill-rule="evenodd" fill-opacity="1"/>
<defs>
  <clipPath id="clip302">
    <rect x="140" y="47" width="2213" height="1377"/>
  </clipPath>
</defs>
<polyline clip-path="url(#clip302)" style="stroke:#000000; stroke-linecap:round; stroke-linejoin:round; stroke-width:2; stroke-opacity:0.1; fill:none" points="140.696,1423.18 140.696,47.2441 "/>
<polyline clip-path="url(#clip302)" style="stroke:#000000; stroke-linecap:round; stroke-linejoin:round; stroke-width:2; stroke-opacity:0.1; fill:none" points="583.108,1423.18 583.108,47.2441 "/>
<polyline clip-path="url(#clip302)" style="stroke:#000000; stroke-linecap:round; stroke-linejoin:round; stroke-width:2; stroke-opacity:0.1; fill:none" points="1025.52,1423.18 1025.52,47.2441 "/>
<polyline clip-path="url(#clip302)" style="stroke:#000000; stroke-linecap:round; stroke-linejoin:round; stroke-width:2; stroke-opacity:0.1; fill:none" points="1467.93,1423.18 1467.93,47.2441 "/>
<polyline clip-path="url(#clip302)" style="stroke:#000000; stroke-linecap:round; stroke-linejoin:round; stroke-width:2; stroke-opacity:0.1; fill:none" points="1910.34,1423.18 1910.34,47.2441 "/>
<polyline clip-path="url(#clip302)" style="stroke:#000000; stroke-linecap:round; stroke-linejoin:round; stroke-width:2; stroke-opacity:0.1; fill:none" points="2352.76,1423.18 2352.76,47.2441 "/>
<polyline clip-path="url(#clip302)" style="stroke:#000000; stroke-linecap:round; stroke-linejoin:round; stroke-width:2; stroke-opacity:0.1; fill:none" points="140.696,1384.24 2352.76,1384.24 "/>
<polyline clip-path="url(#clip302)" style="stroke:#000000; stroke-linecap:round; stroke-linejoin:round; stroke-width:2; stroke-opacity:0.1; fill:none" points="140.696,1059.73 2352.76,1059.73 "/>
<polyline clip-path="url(#clip302)" style="stroke:#000000; stroke-linecap:round; stroke-linejoin:round; stroke-width:2; stroke-opacity:0.1; fill:none" points="140.696,735.212 2352.76,735.212 "/>
<polyline clip-path="url(#clip302)" style="stroke:#000000; stroke-linecap:round; stroke-linejoin:round; stroke-width:2; stroke-opacity:0.1; fill:none" points="140.696,410.699 2352.76,410.699 "/>
<polyline clip-path="url(#clip302)" style="stroke:#000000; stroke-linecap:round; stroke-linejoin:round; stroke-width:2; stroke-opacity:0.1; fill:none" points="140.696,86.1857 2352.76,86.1857 "/>
<polyline clip-path="url(#clip300)" style="stroke:#000000; stroke-linecap:round; stroke-linejoin:round; stroke-width:4; stroke-opacity:1; fill:none" points="140.696,1423.18 2352.76,1423.18 "/>
<polyline clip-path="url(#clip300)" style="stroke:#000000; stroke-linecap:round; stroke-linejoin:round; stroke-width:4; stroke-opacity:1; fill:none" points="140.696,1423.18 140.696,1404.28 "/>
<polyline clip-path="url(#clip300)" style="stroke:#000000; stroke-linecap:round; stroke-linejoin:round; stroke-width:4; stroke-opacity:1; fill:none" points="583.108,1423.18 583.108,1404.28 "/>
<polyline clip-path="url(#clip300)" style="stroke:#000000; stroke-linecap:round; stroke-linejoin:round; stroke-width:4; stroke-opacity:1; fill:none" points="1025.52,1423.18 1025.52,1404.28 "/>
<polyline clip-path="url(#clip300)" style="stroke:#000000; stroke-linecap:round; stroke-linejoin:round; stroke-width:4; stroke-opacity:1; fill:none" points="1467.93,1423.18 1467.93,1404.28 "/>
<polyline clip-path="url(#clip300)" style="stroke:#000000; stroke-linecap:round; stroke-linejoin:round; stroke-width:4; stroke-opacity:1; fill:none" points="1910.34,1423.18 1910.34,1404.28 "/>
<polyline clip-path="url(#clip300)" style="stroke:#000000; stroke-linecap:round; stroke-linejoin:round; stroke-width:4; stroke-opacity:1; fill:none" points="2352.76,1423.18 2352.76,1404.28 "/>
<path clip-path="url(#clip300)" d="M140.696 1454.1 Q137.084 1454.1 135.256 1457.66 Q133.45 1461.2 133.45 1468.33 Q133.45 1475.44 135.256 1479.01 Q137.084 1482.55 140.696 1482.55 Q144.33 1482.55 146.135 1479.01 Q147.964 1475.44 147.964 1468.33 Q147.964 1461.2 146.135 1457.66 Q144.33 1454.1 140.696 1454.1 M140.696 1450.39 Q146.506 1450.39 149.561 1455 Q152.64 1459.58 152.64 1468.33 Q152.64 1477.06 149.561 1481.67 Q146.506 1486.25 140.696 1486.25 Q134.885 1486.25 131.807 1481.67 Q128.751 1477.06 128.751 1468.33 Q128.751 1459.58 131.807 1455 Q134.885 1450.39 140.696 1450.39 Z" fill="#000000" fill-rule="nonzero" fill-opacity="1" /><path clip-path="url(#clip300)" d="M577.76 1481.64 L594.08 1481.64 L594.08 1485.58 L572.135 1485.58 L572.135 1481.64 Q574.797 1478.89 579.381 1474.26 Q583.987 1469.61 585.168 1468.27 Q587.413 1465.74 588.293 1464.01 Q589.196 1462.25 589.196 1460.56 Q589.196 1457.8 587.251 1456.07 Q585.33 1454.33 582.228 1454.33 Q580.029 1454.33 577.575 1455.09 Q575.145 1455.86 572.367 1457.41 L572.367 1452.69 Q575.191 1451.55 577.645 1450.97 Q580.098 1450.39 582.135 1450.39 Q587.506 1450.39 590.7 1453.08 Q593.895 1455.77 593.895 1460.26 Q593.895 1462.39 593.084 1464.31 Q592.297 1466.2 590.191 1468.8 Q589.612 1469.47 586.51 1472.69 Q583.409 1475.88 577.76 1481.64 Z" fill="#000000" fill-rule="nonzero" fill-opacity="1" /><path clip-path="url(#clip300)" d="M1028.53 1455.09 L1016.72 1473.54 L1028.53 1473.54 L1028.53 1455.09 M1027.3 1451.02 L1033.18 1451.02 L1033.18 1473.54 L1038.11 1473.54 L1038.11 1477.43 L1033.18 1477.43 L1033.18 1485.58 L1028.53 1485.58 L1028.53 1477.43 L1012.93 1477.43 L1012.93 1472.92 L1027.3 1451.02 Z" fill="#000000" fill-rule="nonzero" fill-opacity="1" /><path clip-path="url(#clip300)" d="M1468.34 1466.44 Q1465.19 1466.44 1463.34 1468.59 Q1461.51 1470.74 1461.51 1474.49 Q1461.51 1478.22 1463.34 1480.39 Q1465.19 1482.55 1468.34 1482.55 Q1471.48 1482.55 1473.31 1480.39 Q1475.17 1478.22 1475.17 1474.49 Q1475.17 1470.74 1473.31 1468.59 Q1471.48 1466.44 1468.34 1466.44 M1477.62 1451.78 L1477.62 1456.04 Q1475.86 1455.21 1474.05 1454.77 Q1472.27 1454.33 1470.51 1454.33 Q1465.88 1454.33 1463.43 1457.45 Q1461 1460.58 1460.65 1466.9 Q1462.02 1464.89 1464.08 1463.82 Q1466.14 1462.73 1468.61 1462.73 Q1473.82 1462.73 1476.83 1465.9 Q1479.86 1469.05 1479.86 1474.49 Q1479.86 1479.82 1476.72 1483.03 Q1473.57 1486.25 1468.34 1486.25 Q1462.34 1486.25 1459.17 1481.67 Q1456 1477.06 1456 1468.33 Q1456 1460.14 1459.89 1455.28 Q1463.78 1450.39 1470.33 1450.39 Q1472.09 1450.39 1473.87 1450.74 Q1475.67 1451.09 1477.62 1451.78 Z" fill="#000000" fill-rule="nonzero" fill-opacity="1" /><path clip-path="url(#clip300)" d="M1910.34 1469.17 Q1907.01 1469.17 1905.09 1470.95 Q1903.19 1472.73 1903.19 1475.86 Q1903.19 1478.98 1905.09 1480.77 Q1907.01 1482.55 1910.34 1482.55 Q1913.68 1482.55 1915.6 1480.77 Q1917.52 1478.96 1917.52 1475.86 Q1917.52 1472.73 1915.6 1470.95 Q1913.7 1469.17 1910.34 1469.17 M1905.67 1467.18 Q1902.66 1466.44 1900.97 1464.38 Q1899.3 1462.32 1899.3 1459.35 Q1899.3 1455.21 1902.24 1452.8 Q1905.2 1450.39 1910.34 1450.39 Q1915.51 1450.39 1918.45 1452.8 Q1921.39 1455.21 1921.39 1459.35 Q1921.39 1462.32 1919.7 1464.38 Q1918.03 1466.44 1915.04 1467.18 Q1918.42 1467.96 1920.3 1470.26 Q1922.2 1472.55 1922.2 1475.86 Q1922.2 1480.88 1919.12 1483.57 Q1916.06 1486.25 1910.34 1486.25 Q1904.63 1486.25 1901.55 1483.57 Q1898.49 1480.88 1898.49 1475.86 Q1898.49 1472.55 1900.39 1470.26 Q1902.29 1467.96 1905.67 1467.18 M1903.95 1459.79 Q1903.95 1462.48 1905.62 1463.98 Q1907.31 1465.49 1910.34 1465.49 Q1913.35 1465.49 1915.04 1463.98 Q1916.76 1462.48 1916.76 1459.79 Q1916.76 1457.11 1915.04 1455.6 Q1913.35 1454.1 1910.34 1454.1 Q1907.31 1454.1 1905.62 1455.6 Q1903.95 1457.11 1903.95 1459.79 Z" fill="#000000" fill-rule="nonzero" fill-opacity="1" /><path clip-path="url(#clip300)" d="M2327.44 1481.64 L2335.08 1481.64 L2335.08 1455.28 L2326.77 1456.95 L2326.77 1452.69 L2335.04 1451.02 L2339.71 1451.02 L2339.71 1481.64 L2347.35 1481.64 L2347.35 1485.58 L2327.44 1485.58 L2327.44 1481.64 Z" fill="#000000" fill-rule="nonzero" fill-opacity="1" /><path clip-path="url(#clip300)" d="M2366.8 1454.1 Q2363.18 1454.1 2361.36 1457.66 Q2359.55 1461.2 2359.55 1468.33 Q2359.55 1475.44 2361.36 1479.01 Q2363.18 1482.55 2366.8 1482.55 Q2370.43 1482.55 2372.23 1479.01 Q2374.06 1475.44 2374.06 1468.33 Q2374.06 1461.2 2372.23 1457.66 Q2370.43 1454.1 2366.8 1454.1 M2366.8 1450.39 Q2372.61 1450.39 2375.66 1455 Q2378.74 1459.58 2378.74 1468.33 Q2378.74 1477.06 2375.66 1481.67 Q2372.61 1486.25 2366.8 1486.25 Q2360.99 1486.25 2357.91 1481.67 Q2354.85 1477.06 2354.85 1468.33 Q2354.85 1459.58 2357.91 1455 Q2360.99 1450.39 2366.8 1450.39 Z" fill="#000000" fill-rule="nonzero" fill-opacity="1" /><path clip-path="url(#clip300)" d="M1245.79 1522.27 L1245.79 1532.4 L1257.85 1532.4 L1257.85 1536.95 L1245.79 1536.95 L1245.79 1556.3 Q1245.79 1560.66 1246.96 1561.9 Q1248.17 1563.14 1251.83 1563.14 L1257.85 1563.14 L1257.85 1568.04 L1251.83 1568.04 Q1245.05 1568.04 1242.48 1565.53 Q1239.9 1562.98 1239.9 1556.3 L1239.9 1536.95 L1235.6 1536.95 L1235.6 1532.4 L1239.9 1532.4 L1239.9 1522.27 L1245.79 1522.27 Z" fill="#000000" fill-rule="nonzero" fill-opacity="1" /><polyline clip-path="url(#clip300)" style="stroke:#000000; stroke-linecap:round; stroke-linejoin:round; stroke-width:4; stroke-opacity:1; fill:none" points="140.696,1423.18 140.696,47.2441 "/>
<polyline clip-path="url(#clip300)" style="stroke:#000000; stroke-linecap:round; stroke-linejoin:round; stroke-width:4; stroke-opacity:1; fill:none" points="140.696,1384.24 159.593,1384.24 "/>
<polyline clip-path="url(#clip300)" style="stroke:#000000; stroke-linecap:round; stroke-linejoin:round; stroke-width:4; stroke-opacity:1; fill:none" points="140.696,1059.73 159.593,1059.73 "/>
<polyline clip-path="url(#clip300)" style="stroke:#000000; stroke-linecap:round; stroke-linejoin:round; stroke-width:4; stroke-opacity:1; fill:none" points="140.696,735.212 159.593,735.212 "/>
<polyline clip-path="url(#clip300)" style="stroke:#000000; stroke-linecap:round; stroke-linejoin:round; stroke-width:4; stroke-opacity:1; fill:none" points="140.696,410.699 159.593,410.699 "/>
<polyline clip-path="url(#clip300)" style="stroke:#000000; stroke-linecap:round; stroke-linejoin:round; stroke-width:4; stroke-opacity:1; fill:none" points="140.696,86.1857 159.593,86.1857 "/>
<path clip-path="url(#clip300)" d="M92.7512 1370.04 Q89.1401 1370.04 87.3114 1373.6 Q85.5058 1377.14 85.5058 1384.27 Q85.5058 1391.38 87.3114 1394.94 Q89.1401 1398.49 92.7512 1398.49 Q96.3854 1398.49 98.1909 1394.94 Q100.02 1391.38 100.02 1384.27 Q100.02 1377.14 98.1909 1373.6 Q96.3854 1370.04 92.7512 1370.04 M92.7512 1366.33 Q98.5613 1366.33 101.617 1370.94 Q104.696 1375.52 104.696 1384.27 Q104.696 1393 101.617 1397.61 Q98.5613 1402.19 92.7512 1402.19 Q86.941 1402.19 83.8623 1397.61 Q80.8068 1393 80.8068 1384.27 Q80.8068 1375.52 83.8623 1370.94 Q86.941 1366.33 92.7512 1366.33 Z" fill="#000000" fill-rule="nonzero" fill-opacity="1" /><path clip-path="url(#clip300)" d="M83.7929 1042.45 L102.149 1042.45 L102.149 1046.38 L88.0753 1046.38 L88.0753 1054.85 Q89.0938 1054.51 90.1123 1054.34 Q91.1308 1054.16 92.1493 1054.16 Q97.9363 1054.16 101.316 1057.33 Q104.696 1060.5 104.696 1065.92 Q104.696 1071.5 101.223 1074.6 Q97.7511 1077.68 91.4317 1077.68 Q89.2558 1077.68 86.9873 1077.31 Q84.7419 1076.94 82.3346 1076.19 L82.3346 1071.5 Q84.4179 1072.63 86.6401 1073.19 Q88.8623 1073.74 91.3391 1073.74 Q95.3437 1073.74 97.6817 1071.63 Q100.02 1069.53 100.02 1065.92 Q100.02 1062.31 97.6817 1060.2 Q95.3437 1058.09 91.3391 1058.09 Q89.4641 1058.09 87.5892 1058.51 Q85.7373 1058.93 83.7929 1059.81 L83.7929 1042.45 Z" fill="#000000" fill-rule="nonzero" fill-opacity="1" /><path clip-path="url(#clip300)" d="M53.3995 748.557 L61.0384 748.557 L61.0384 722.191 L52.7282 723.858 L52.7282 719.599 L60.9921 717.932 L65.668 717.932 L65.668 748.557 L73.3068 748.557 L73.3068 752.492 L53.3995 752.492 L53.3995 748.557 Z" fill="#000000" fill-rule="nonzero" fill-opacity="1" /><path clip-path="url(#clip300)" d="M92.7512 721.011 Q89.1401 721.011 87.3114 724.575 Q85.5058 728.117 85.5058 735.247 Q85.5058 742.353 87.3114 745.918 Q89.1401 749.46 92.7512 749.46 Q96.3854 749.46 98.1909 745.918 Q100.02 742.353 100.02 735.247 Q100.02 728.117 98.1909 724.575 Q96.3854 721.011 92.7512 721.011 M92.7512 717.307 Q98.5613 717.307 101.617 721.913 Q104.696 726.497 104.696 735.247 Q104.696 743.973 101.617 748.58 Q98.5613 753.163 92.7512 753.163 Q86.941 753.163 83.8623 748.58 Q80.8068 743.973 80.8068 735.247 Q80.8068 726.497 83.8623 721.913 Q86.941 717.307 92.7512 717.307 Z" fill="#000000" fill-rule="nonzero" fill-opacity="1" /><path clip-path="url(#clip300)" d="M54.3949 424.044 L62.0337 424.044 L62.0337 397.678 L53.7236 399.345 L53.7236 395.085 L61.9874 393.419 L66.6633 393.419 L66.6633 424.044 L74.3022 424.044 L74.3022 427.979 L54.3949 427.979 L54.3949 424.044 Z" fill="#000000" fill-rule="nonzero" fill-opacity="1" /><path clip-path="url(#clip300)" d="M83.7929 393.419 L102.149 393.419 L102.149 397.354 L88.0753 397.354 L88.0753 405.826 Q89.0938 405.479 90.1123 405.317 Q91.1308 405.132 92.1493 405.132 Q97.9363 405.132 101.316 408.303 Q104.696 411.474 104.696 416.891 Q104.696 422.47 101.223 425.571 Q97.7511 428.65 91.4317 428.65 Q89.2558 428.65 86.9873 428.28 Q84.7419 427.909 82.3346 427.169 L82.3346 422.47 Q84.4179 423.604 86.6401 424.159 Q88.8623 424.715 91.3391 424.715 Q95.3437 424.715 97.6817 422.608 Q100.02 420.502 100.02 416.891 Q100.02 413.28 97.6817 411.173 Q95.3437 409.067 91.3391 409.067 Q89.4641 409.067 87.5892 409.484 Q85.7373 409.9 83.7929 410.78 L83.7929 393.419 Z" fill="#000000" fill-rule="nonzero" fill-opacity="1" /><path clip-path="url(#clip300)" d="M56.6171 99.5305 L72.9365 99.5305 L72.9365 103.466 L50.9921 103.466 L50.9921 99.5305 Q53.6541 96.7759 58.2375 92.1463 Q62.8439 87.4935 64.0245 86.151 Q66.2698 83.6278 67.1494 81.8917 Q68.0522 80.1325 68.0522 78.4427 Q68.0522 75.688 66.1078 73.9519 Q64.1865 72.2158 61.0847 72.2158 Q58.8856 72.2158 56.4319 72.9797 Q54.0014 73.7436 51.2236 75.2945 L51.2236 70.5723 Q54.0477 69.4381 56.5014 68.8594 Q58.955 68.2807 60.9921 68.2807 Q66.3624 68.2807 69.5568 70.9658 Q72.7513 73.651 72.7513 78.1417 Q72.7513 80.2714 71.9411 82.1926 Q71.1541 84.0908 69.0476 86.6834 Q68.4689 87.3546 65.367 90.5722 Q62.2652 93.7667 56.6171 99.5305 Z" fill="#000000" fill-rule="nonzero" fill-opacity="1" /><path clip-path="url(#clip300)" d="M92.7512 71.9844 Q89.1401 71.9844 87.3114 75.5492 Q85.5058 79.0908 85.5058 86.2204 Q85.5058 93.3268 87.3114 96.8916 Q89.1401 100.433 92.7512 100.433 Q96.3854 100.433 98.1909 96.8916 Q100.02 93.3268 100.02 86.2204 Q100.02 79.0908 98.1909 75.5492 Q96.3854 71.9844 92.7512 71.9844 M92.7512 68.2807 Q98.5613 68.2807 101.617 72.8871 Q104.696 77.4704 104.696 86.2204 Q104.696 94.9472 101.617 99.5537 Q98.5613 104.137 92.7512 104.137 Q86.941 104.137 83.8623 99.5537 Q80.8068 94.9472 80.8068 86.2204 Q80.8068 77.4704 83.8623 72.8871 Q86.941 68.2807 92.7512 68.2807 Z" fill="#000000" fill-rule="nonzero" fill-opacity="1" /><polyline clip-path="url(#clip302)" style="stroke:#009af9; stroke-linecap:round; stroke-linejoin:round; stroke-width:8; stroke-opacity:1; fill:none" points="140.696,1384.24 141.701,1384.24 142.707,1384.24 143.713,1384.24 144.719,1384.24 145.725,1384.24 146.731,1384.24 147.737,1384.24 148.743,1384.24 149.749,1384.24 150.755,1384.24 151.761,1384.24 152.767,1384.24 153.773,1384.24 154.779,1384.24 155.785,1384.24 156.791,1384.24 157.797,1384.24 158.802,1384.24 159.808,1384.24 160.814,1384.24 161.82,1384.24 162.826,1384.24 163.832,1384.24 164.838,1384.24 165.844,1384.24 166.85,1384.24 167.856,1384.24 168.862,1384.24 169.868,1384.24 170.874,1384.24 171.88,1384.24 172.886,1384.24 173.892,1384.24 174.897,1384.24 175.903,1384.24 176.909,1384.24 177.915,1384.24 178.921,1384.24 179.927,1384.24 180.933,1384.24 181.939,1384.24 182.945,1384.24 183.951,1384.24 184.957,1384.24 185.963,1384.24 186.969,1384.24 187.975,1384.24 188.981,1384.24 189.987,1384.24 190.993,1384.24 191.998,1384.24 193.004,1384.24 194.01,1384.24 195.016,1384.24 196.022,1384.24 197.028,1384.24 198.034,1384.24 199.04,1384.24 200.046,1384.24 201.052,1384.24 202.058,1384.24 203.064,1384.24 204.07,1384.24 205.076,1384.24 206.082,1384.24 207.088,1384.24 208.093,1384.24 209.099,1384.24 210.105,1384.24 211.111,1384.24 212.117,1384.24 213.123,1384.24 214.129,1384.24 215.135,1384.24 216.141,1384.24 217.147,1384.24 218.153,1384.24 219.159,1384.24 220.165,1384.24 221.171,1384.24 222.177,1384.24 223.183,1384.24 224.188,1384.24 225.194,1384.24 226.2,1384.24 227.206,1384.24 228.212,1384.24 229.218,1384.24 230.224,1384.24 231.23,1384.24 232.236,1384.24 233.242,1384.24 234.248,1384.24 235.254,1384.24 236.26,1384.24 237.266,1384.24 238.272,1384.24 239.278,1384.24 240.284,1384.24 241.289,1384.24 242.295,1384.24 243.301,1384.24 244.307,1384.24 245.313,1384.24 246.319,1384.24 247.325,1384.24 248.331,1384.24 249.337,1384.24 250.343,1384.24 251.349,1384.24 252.355,1384.24 253.361,1384.24 254.367,1384.24 255.373,1384.24 256.379,1384.24 257.384,1384.24 258.39,1384.24 259.396,1384.24 260.402,1384.24 261.408,1384.24 262.414,1384.24 263.42,1384.24 264.426,1384.24 265.432,1384.24 266.438,1384.24 267.444,1384.24 268.45,1384.24 269.456,1384.24 270.462,1384.24 271.468,1384.24 272.474,1384.24 273.48,1384.24 274.485,1384.24 275.491,1384.24 276.497,1384.24 277.503,1384.24 278.509,1384.24 279.515,1384.24 280.521,1384.24 281.527,1384.24 282.533,1384.24 283.539,1384.24 284.545,1384.24 285.551,1384.24 286.557,1384.24 287.563,1384.24 288.569,1384.24 289.575,1384.24 290.58,1384.24 291.586,1384.24 292.592,1384.24 293.598,1384.24 294.604,1384.24 295.61,1384.24 296.616,1384.24 297.622,1384.24 298.628,1384.24 299.634,1384.24 300.64,1384.24 301.646,1384.24 302.652,1384.24 303.658,1384.24 304.664,1384.24 305.67,1384.24 306.676,1384.24 307.681,1384.24 308.687,1384.24 309.693,1384.24 310.699,1384.24 311.705,1384.24 312.711,1384.24 313.717,1384.24 314.723,1384.24 315.729,1384.24 316.735,1384.24 317.741,1384.24 318.747,1384.24 319.753,1384.24 320.759,1384.24 321.765,1384.24 322.771,1384.24 323.776,1384.24 324.782,1384.24 325.788,1384.24 326.794,1384.24 327.8,1384.24 328.806,1384.24 329.812,1384.24 330.818,1384.24 331.824,1384.24 332.83,1384.24 333.836,1384.24 334.842,1384.24 335.848,1384.24 336.854,1384.24 337.86,1384.24 338.866,1384.24 339.872,1384.24 340.877,1384.24 341.883,1384.24 342.889,1384.24 343.895,1384.24 344.901,1384.24 345.907,1384.24 346.913,1384.24 347.919,1384.24 348.925,1384.24 349.931,1384.24 350.937,1384.24 351.943,1384.24 352.949,1384.24 353.955,1384.24 354.961,1384.24 355.967,1384.24 356.972,1384.24 357.978,1384.24 358.984,1384.24 359.99,1384.24 360.996,1384.24 362.002,1384.24 363.008,1384.24 364.014,1384.24 365.02,1384.24 366.026,1384.24 367.032,1384.24 368.038,1384.24 369.044,1384.24 370.05,1384.24 371.056,1384.24 372.062,1384.24 373.068,1384.24 374.073,1384.24 375.079,1384.24 376.085,1384.24 377.091,1384.24 378.097,1384.24 379.103,1384.24 380.109,1384.24 381.115,1384.24 382.121,1384.24 383.127,1384.24 384.133,1384.24 385.139,1384.24 386.145,1384.24 387.151,1384.24 388.157,1384.24 389.163,1384.24 390.168,1384.24 391.174,1384.24 392.18,1384.24 393.186,1384.24 394.192,1384.24 395.198,1384.24 396.204,1384.24 397.21,1384.24 398.216,1384.24 399.222,1384.24 400.228,1384.24 401.234,1384.24 402.24,1384.24 403.246,1384.24 404.252,1384.24 405.258,1384.24 406.263,1384.24 407.269,1384.24 408.275,1384.24 409.281,1384.24 410.287,1384.24 411.293,1384.24 412.299,1384.24 413.305,1384.24 414.311,1384.24 415.317,1384.24 416.323,1384.24 417.329,1384.24 418.335,1384.24 419.341,1384.24 420.347,1384.24 421.353,1384.24 422.359,1384.24 423.364,1384.24 424.37,1384.24 425.376,1384.24 426.382,1384.24 427.388,1384.24 428.394,1384.24 429.4,1384.24 430.406,1384.24 431.412,1384.24 432.418,1384.24 433.424,1384.24 434.43,1384.24 435.436,1384.24 436.442,1384.24 437.448,1384.24 438.454,1384.24 439.459,1384.24 440.465,1384.24 441.471,1384.24 442.477,1384.24 443.483,1384.24 444.489,1384.24 445.495,1384.24 446.501,1384.24 447.507,1384.24 448.513,1384.24 449.519,1384.24 450.525,1384.24 451.531,1384.24 452.537,1384.24 453.543,1384.24 454.549,1384.24 455.555,1384.24 456.56,1384.24 457.566,1384.24 458.572,1384.24 459.578,1384.24 460.584,1384.24 461.59,1384.24 462.596,1384.24 463.602,1384.24 464.608,1384.24 465.614,1384.24 466.62,1384.24 467.626,1384.24 468.632,1384.24 469.638,1384.24 470.644,1384.24 471.65,1384.24 472.655,1384.24 473.661,1384.24 474.667,1384.24 475.673,1384.24 476.679,1384.24 477.685,1384.24 478.691,1384.24 479.697,1384.24 480.703,1384.24 481.709,1384.24 482.715,1384.24 483.721,1384.24 484.727,1384.24 485.733,1384.24 486.739,1384.24 487.745,1384.24 488.751,1384.24 489.756,1384.24 490.762,1384.24 491.768,1384.24 492.774,1384.24 493.78,1384.24 494.786,1384.24 495.792,1384.24 496.798,1384.24 497.804,1384.24 498.81,1384.24 499.816,1384.24 500.822,1384.24 501.828,1384.24 502.834,1384.24 503.84,1319.34 504.846,1319.34 505.851,1319.34 506.857,1319.34 507.863,1319.34 508.869,1319.34 509.875,1319.34 510.881,1319.34 511.887,1319.34 512.893,1319.34 513.899,1319.34 514.905,1319.34 515.911,1319.34 516.917,1319.34 517.923,1319.34 518.929,1319.34 519.935,1319.34 520.941,1319.34 521.947,1319.34 522.952,1319.34 523.958,1319.34 524.964,1319.34 525.97,1319.34 526.976,1319.34 527.982,1319.34 528.988,1319.34 529.994,1319.34 531,1319.34 532.006,1319.34 533.012,1319.34 534.018,1319.34 535.024,1319.34 536.03,1319.34 537.036,1319.34 538.042,1319.34 539.047,1319.34 540.053,1319.34 541.059,1319.34 542.065,1319.34 543.071,1319.34 544.077,1319.34 545.083,1319.34 546.089,1319.34 547.095,1319.34 548.101,1319.34 549.107,1319.34 550.113,1319.34 551.119,1319.34 552.125,1319.34 553.131,1254.43 554.137,1254.43 555.143,1254.43 556.148,1254.43 557.154,1254.43 558.16,1254.43 559.166,1254.43 560.172,1254.43 561.178,1254.43 562.184,1254.43 563.19,1254.43 564.196,1254.43 565.202,1254.43 566.208,1254.43 567.214,1254.43 568.22,1254.43 569.226,1254.43 570.232,1254.43 571.238,1254.43 572.243,1254.43 573.249,1254.43 574.255,1254.43 575.261,1254.43 576.267,1254.43 577.273,1254.43 578.279,1254.43 579.285,1254.43 580.291,1254.43 581.297,1254.43 582.303,1254.43 583.309,1254.43 584.315,1254.43 585.321,1254.43 586.327,1254.43 587.333,1254.43 588.338,1254.43 589.344,1254.43 590.35,1254.43 591.356,1254.43 592.362,1254.43 593.368,1254.43 594.374,1254.43 595.38,1254.43 596.386,1189.53 597.392,1189.53 598.398,1189.53 599.404,1189.53 600.41,1189.53 601.416,1189.53 602.422,1189.53 603.428,1189.53 604.434,1189.53 605.439,1189.53 606.445,1189.53 607.451,1189.53 608.457,1189.53 609.463,1189.53 610.469,1189.53 611.475,1189.53 612.481,1189.53 613.487,1189.53 614.493,1189.53 615.499,1189.53 616.505,1189.53 617.511,1189.53 618.517,1189.53 619.523,1189.53 620.529,1189.53 621.534,1189.53 622.54,1189.53 623.546,1189.53 624.552,1189.53 625.558,1189.53 626.564,1189.53 627.57,1189.53 628.576,1189.53 629.582,1189.53 630.588,1189.53 631.594,1189.53 632.6,1189.53 633.606,1189.53 634.612,1189.53 635.618,1189.53 636.624,1189.53 637.63,1189.53 638.635,1189.53 639.641,1189.53 640.647,1189.53 641.653,1189.53 642.659,1189.53 643.665,1189.53 644.671,1189.53 645.677,1189.53 646.683,1189.53 647.689,1189.53 648.695,1189.53 649.701,1189.53 650.707,1189.53 651.713,1189.53 652.719,1189.53 653.725,1189.53 654.73,1189.53 655.736,1189.53 656.742,1189.53 657.748,1189.53 658.754,1189.53 659.76,1189.53 660.766,1189.53 661.772,1189.53 662.778,1189.53 663.784,1189.53 664.79,1189.53 665.796,1189.53 666.802,1189.53 667.808,1189.53 668.814,1189.53 669.82,1189.53 670.826,1189.53 671.831,1189.53 672.837,1189.53 673.843,1189.53 674.849,1189.53 675.855,1189.53 676.861,1189.53 677.867,1189.53 678.873,1189.53 679.879,1189.53 680.885,1189.53 681.891,1189.53 682.897,1189.53 683.903,1189.53 684.909,1189.53 685.915,1189.53 686.921,1189.53 687.926,1189.53 688.932,1189.53 689.938,1189.53 690.944,1189.53 691.95,1189.53 692.956,1189.53 693.962,1189.53 694.968,1189.53 695.974,1189.53 696.98,1189.53 697.986,1189.53 698.992,1189.53 699.998,1189.53 701.004,1189.53 702.01,1189.53 703.016,1189.53 704.022,1189.53 705.027,1189.53 706.033,1189.53 707.039,1189.53 708.045,1189.53 709.051,1189.53 710.057,1189.53 711.063,1189.53 712.069,1189.53 713.075,1189.53 714.081,1189.53 715.087,1189.53 716.093,1189.53 717.099,1189.53 718.105,1189.53 719.111,1189.53 720.117,1189.53 721.122,1189.53 722.128,1189.53 723.134,1189.53 724.14,1189.53 725.146,1189.53 726.152,1189.53 727.158,1189.53 728.164,1189.53 729.17,1189.53 730.176,1189.53 731.182,1189.53 732.188,1189.53 733.194,1189.53 734.2,1189.53 735.206,1189.53 736.212,1189.53 737.218,1189.53 738.223,1189.53 739.229,1189.53 740.235,1189.53 741.241,1189.53 742.247,1189.53 743.253,1189.53 744.259,1189.53 745.265,1189.53 746.271,1189.53 747.277,1189.53 748.283,1189.53 749.289,1189.53 750.295,1189.53 751.301,1189.53 752.307,1189.53 753.313,1189.53 754.318,1189.53 755.324,1189.53 756.33,1189.53 757.336,1189.53 758.342,1189.53 759.348,1189.53 760.354,1189.53 761.36,1189.53 762.366,1189.53 763.372,1189.53 764.378,1189.53 765.384,1189.53 766.39,1189.53 767.396,1189.53 768.402,1189.53 769.408,1189.53 770.413,1189.53 771.419,1189.53 772.425,1189.53 773.431,1189.53 774.437,1189.53 775.443,1189.53 776.449,1189.53 777.455,1189.53 778.461,1189.53 779.467,1189.53 780.473,1189.53 781.479,1189.53 782.485,1189.53 783.491,1189.53 784.497,1189.53 785.503,1189.53 786.509,1124.63 787.514,1124.63 788.52,1124.63 789.526,1124.63 790.532,1124.63 791.538,1124.63 792.544,1124.63 793.55,1124.63 794.556,1124.63 795.562,1124.63 796.568,1124.63 797.574,1124.63 798.58,1124.63 799.586,1124.63 800.592,1124.63 801.598,1124.63 802.604,1124.63 803.609,1124.63 804.615,1124.63 805.621,1124.63 806.627,1124.63 807.633,1124.63 808.639,1124.63 809.645,1124.63 810.651,1124.63 811.657,1124.63 812.663,1124.63 813.669,1124.63 814.675,1124.63 815.681,1124.63 816.687,1124.63 817.693,1124.63 818.699,1124.63 819.705,1124.63 820.71,1124.63 821.716,1124.63 822.722,1124.63 823.728,1124.63 824.734,1124.63 825.74,1124.63 826.746,1124.63 827.752,1124.63 828.758,1124.63 829.764,1124.63 830.77,1124.63 831.776,1124.63 832.782,1124.63 833.788,1124.63 834.794,1124.63 835.8,1124.63 836.805,1124.63 837.811,1124.63 838.817,1124.63 839.823,1124.63 840.829,1124.63 841.835,1124.63 842.841,1124.63 843.847,1124.63 844.853,1124.63 845.859,1124.63 846.865,1124.63 847.871,1124.63 848.877,1124.63 849.883,1124.63 850.889,1124.63 851.895,1124.63 852.901,1124.63 853.906,1124.63 854.912,1124.63 855.918,1124.63 856.924,1124.63 857.93,1124.63 858.936,1124.63 859.942,1124.63 860.948,1124.63 861.954,1124.63 862.96,1124.63 863.966,1124.63 864.972,1124.63 865.978,1124.63 866.984,1124.63 867.99,1124.63 868.996,1124.63 870.001,1124.63 871.007,1124.63 872.013,1124.63 873.019,1124.63 874.025,1124.63 875.031,1124.63 876.037,1124.63 877.043,1124.63 878.049,1059.73 879.055,1059.73 880.061,1059.73 881.067,1059.73 882.073,1059.73 883.079,1059.73 884.085,1059.73 885.091,1059.73 886.097,1059.73 887.102,1059.73 888.108,1059.73 889.114,1059.73 890.12,1059.73 891.126,1059.73 892.132,1059.73 893.138,1059.73 894.144,1059.73 895.15,1059.73 896.156,1059.73 897.162,1059.73 898.168,1059.73 899.174,1059.73 900.18,1059.73 901.186,1059.73 902.192,1059.73 903.197,1059.73 904.203,1059.73 905.209,1059.73 906.215,1059.73 907.221,1059.73 908.227,1059.73 909.233,1059.73 910.239,1059.73 911.245,1059.73 912.251,1059.73 913.257,1059.73 914.263,1059.73 915.269,1059.73 916.275,1059.73 917.281,1059.73 918.287,1059.73 919.293,1059.73 920.298,1059.73 921.304,1059.73 922.31,1059.73 923.316,1059.73 924.322,1059.73 925.328,1059.73 926.334,1059.73 927.34,1059.73 928.346,1059.73 929.352,1059.73 930.358,1059.73 931.364,1059.73 932.37,1059.73 933.376,1059.73 934.382,1059.73 935.388,1059.73 936.393,1059.73 937.399,1059.73 938.405,1059.73 939.411,1059.73 940.417,1059.73 941.423,1059.73 942.429,1059.73 943.435,1059.73 944.441,1059.73 945.447,1059.73 946.453,1059.73 947.459,1059.73 948.465,1059.73 949.471,1059.73 950.477,1059.73 951.483,1059.73 952.488,1059.73 953.494,1059.73 954.5,1059.73 955.506,1059.73 956.512,1059.73 957.518,1059.73 958.524,1059.73 959.53,1059.73 960.536,1059.73 961.542,1059.73 962.548,1059.73 963.554,1059.73 964.56,1059.73 965.566,1059.73 966.572,1059.73 967.578,1059.73 968.584,1059.73 969.589,1059.73 970.595,1059.73 971.601,1059.73 972.607,1059.73 973.613,1059.73 974.619,1059.73 975.625,994.822 976.631,994.822 977.637,994.822 978.643,994.822 979.649,994.822 980.655,994.822 981.661,994.822 982.667,994.822 983.673,994.822 984.679,994.822 985.684,994.822 986.69,994.822 987.696,994.822 988.702,994.822 989.708,994.822 990.714,994.822 991.72,994.822 992.726,994.822 993.732,994.822 994.738,994.822 995.744,994.822 996.75,994.822 997.756,994.822 998.762,994.822 999.768,994.822 1000.77,994.822 1001.78,994.822 1002.79,994.822 1003.79,994.822 1004.8,994.822 1005.8,994.822 1006.81,994.822 1007.82,994.822 1008.82,994.822 1009.83,994.822 1010.83,994.822 1011.84,994.822 1012.84,994.822 1013.85,994.822 1014.86,994.822 1015.86,994.822 1016.87,994.822 1017.87,929.92 1018.88,929.92 1019.89,929.92 1020.89,929.92 1021.9,929.92 1022.9,929.92 1023.91,929.92 1024.92,929.92 1025.92,929.92 1026.93,929.92 1027.93,929.92 1028.94,929.92 1029.95,929.92 1030.95,929.92 1031.96,929.92 1032.96,929.92 1033.97,929.92 1034.98,929.92 1035.98,929.92 1036.99,929.92 1037.99,929.92 1039,929.92 1040.01,929.92 1041.01,929.92 1042.02,929.92 1043.02,929.92 1044.03,929.92 1045.03,929.92 1046.04,929.92 1047.05,929.92 1048.05,929.92 1049.06,929.92 1050.06,929.92 1051.07,929.92 1052.08,929.92 1053.08,929.92 1054.09,929.92 1055.09,929.92 1056.1,929.92 1057.11,929.92 1058.11,929.92 1059.12,929.92 1060.12,929.92 1061.13,929.92 1062.14,929.92 1063.14,929.92 1064.15,929.92 1065.15,929.92 1066.16,929.92 1067.17,929.92 1068.17,929.92 1069.18,929.92 1070.18,929.92 1071.19,929.92 1072.2,929.92 1073.2,929.92 1074.21,929.92 1075.21,929.92 1076.22,865.017 1077.22,865.017 1078.23,865.017 1079.24,865.017 1080.24,865.017 1081.25,865.017 1082.25,865.017 1083.26,865.017 1084.27,865.017 1085.27,865.017 1086.28,865.017 1087.28,865.017 1088.29,865.017 1089.3,865.017 1090.3,865.017 1091.31,865.017 1092.31,865.017 1093.32,865.017 1094.33,865.017 1095.33,865.017 1096.34,865.017 1097.34,865.017 1098.35,865.017 1099.36,865.017 1100.36,865.017 1101.37,865.017 1102.37,865.017 1103.38,800.115 1104.39,800.115 1105.39,800.115 1106.4,800.115 1107.4,800.115 1108.41,800.115 1109.42,800.115 1110.42,800.115 1111.43,800.115 1112.43,800.115 1113.44,800.115 1114.44,800.115 1115.45,800.115 1116.46,800.115 1117.46,800.115 1118.47,800.115 1119.47,800.115 1120.48,800.115 1121.49,800.115 1122.49,800.115 1123.5,800.115 1124.5,800.115 1125.51,800.115 1126.52,800.115 1127.52,800.115 1128.53,800.115 1129.53,800.115 1130.54,800.115 1131.55,800.115 1132.55,800.115 1133.56,800.115 1134.56,800.115 1135.57,800.115 1136.58,735.212 1137.58,735.212 1138.59,735.212 1139.59,735.212 1140.6,735.212 1141.61,735.212 1142.61,735.212 1143.62,735.212 1144.62,735.212 1145.63,735.212 1146.63,735.212 1147.64,735.212 1148.65,735.212 1149.65,735.212 1150.66,735.212 1151.66,735.212 1152.67,735.212 1153.68,735.212 1154.68,735.212 1155.69,735.212 1156.69,735.212 1157.7,735.212 1158.71,735.212 1159.71,735.212 1160.72,735.212 1161.72,735.212 1162.73,735.212 1163.74,735.212 1164.74,735.212 1165.75,735.212 1166.75,735.212 1167.76,735.212 1168.77,735.212 1169.77,735.212 1170.78,735.212 1171.78,735.212 1172.79,735.212 1173.8,735.212 1174.8,735.212 1175.81,735.212 1176.81,735.212 1177.82,735.212 1178.82,735.212 1179.83,735.212 1180.84,735.212 1181.84,735.212 1182.85,735.212 1183.85,735.212 1184.86,735.212 1185.87,735.212 1186.87,735.212 1187.88,735.212 1188.88,735.212 1189.89,735.212 1190.9,735.212 1191.9,735.212 1192.91,735.212 1193.91,735.212 1194.92,735.212 1195.93,735.212 1196.93,735.212 1197.94,735.212 1198.94,735.212 1199.95,735.212 1200.96,735.212 1201.96,735.212 1202.97,735.212 1203.97,735.212 1204.98,735.212 1205.99,735.212 1206.99,735.212 1208,735.212 1209,735.212 1210.01,735.212 1211.01,735.212 1212.02,735.212 1213.03,735.212 1214.03,735.212 1215.04,735.212 1216.04,735.212 1217.05,735.212 1218.06,735.212 1219.06,735.212 1220.07,735.212 1221.07,735.212 1222.08,735.212 1223.09,735.212 1224.09,735.212 1225.1,735.212 1226.1,735.212 1227.11,735.212 1228.12,735.212 1229.12,735.212 1230.13,735.212 1231.13,735.212 1232.14,735.212 1233.15,735.212 1234.15,735.212 1235.16,735.212 1236.16,735.212 1237.17,735.212 1238.18,735.212 1239.18,735.212 1240.19,735.212 1241.19,735.212 1242.2,735.212 1243.2,735.212 1244.21,735.212 1245.22,735.212 1246.22,735.212 1247.23,735.212 1248.23,735.212 1249.24,735.212 1250.25,735.212 1251.25,735.212 1252.26,735.212 1253.26,735.212 1254.27,735.212 1255.28,735.212 1256.28,735.212 1257.29,735.212 1258.29,735.212 1259.3,735.212 1260.31,735.212 1261.31,735.212 1262.32,735.212 1263.32,735.212 1264.33,735.212 1265.34,735.212 1266.34,735.212 1267.35,735.212 1268.35,735.212 1269.36,735.212 1270.37,735.212 1271.37,735.212 1272.38,735.212 1273.38,735.212 1274.39,735.212 1275.39,735.212 1276.4,735.212 1277.41,735.212 1278.41,735.212 1279.42,735.212 1280.42,735.212 1281.43,735.212 1282.44,735.212 1283.44,735.212 1284.45,735.212 1285.45,735.212 1286.46,735.212 1287.47,735.212 1288.47,735.212 1289.48,735.212 1290.48,735.212 1291.49,735.212 1292.5,735.212 1293.5,735.212 1294.51,735.212 1295.51,735.212 1296.52,735.212 1297.53,735.212 1298.53,735.212 1299.54,735.212 1300.54,735.212 1301.55,735.212 1302.56,735.212 1303.56,735.212 1304.57,735.212 1305.57,735.212 1306.58,735.212 1307.59,735.212 1308.59,735.212 1309.6,735.212 1310.6,735.212 1311.61,735.212 1312.61,735.212 1313.62,735.212 1314.63,735.212 1315.63,735.212 1316.64,735.212 1317.64,735.212 1318.65,735.212 1319.66,735.212 1320.66,735.212 1321.67,735.212 1322.67,735.212 1323.68,735.212 1324.69,735.212 1325.69,735.212 1326.7,735.212 1327.7,735.212 1328.71,735.212 1329.72,735.212 1330.72,735.212 1331.73,735.212 1332.73,735.212 1333.74,735.212 1334.75,735.212 1335.75,735.212 1336.76,735.212 1337.76,735.212 1338.77,735.212 1339.78,735.212 1340.78,735.212 1341.79,735.212 1342.79,735.212 1343.8,735.212 1344.8,735.212 1345.81,735.212 1346.82,735.212 1347.82,735.212 1348.83,735.212 1349.83,735.212 1350.84,735.212 1351.85,735.212 1352.85,735.212 1353.86,735.212 1354.86,735.212 1355.87,735.212 1356.88,735.212 1357.88,735.212 1358.89,735.212 1359.89,735.212 1360.9,735.212 1361.91,735.212 1362.91,735.212 1363.92,735.212 1364.92,735.212 1365.93,735.212 1366.94,735.212 1367.94,735.212 1368.95,735.212 1369.95,735.212 1370.96,735.212 1371.97,735.212 1372.97,735.212 1373.98,735.212 1374.98,735.212 1375.99,735.212 1376.99,735.212 1378,735.212 1379.01,735.212 1380.01,735.212 1381.02,735.212 1382.02,735.212 1383.03,735.212 1384.04,735.212 1385.04,735.212 1386.05,735.212 1387.05,735.212 1388.06,735.212 1389.07,735.212 1390.07,735.212 1391.08,735.212 1392.08,735.212 1393.09,735.212 1394.1,735.212 1395.1,735.212 1396.11,735.212 1397.11,735.212 1398.12,735.212 1399.13,735.212 1400.13,735.212 1401.14,735.212 1402.14,735.212 1403.15,735.212 1404.16,735.212 1405.16,735.212 1406.17,735.212 1407.17,735.212 1408.18,735.212 1409.18,670.309 1410.19,670.309 1411.2,670.309 1412.2,670.309 1413.21,670.309 1414.21,670.309 1415.22,670.309 1416.23,670.309 1417.23,670.309 1418.24,670.309 1419.24,670.309 1420.25,670.309 1421.26,670.309 1422.26,670.309 1423.27,670.309 1424.27,670.309 1425.28,670.309 1426.29,670.309 1427.29,670.309 1428.3,670.309 1429.3,670.309 1430.31,605.407 1431.32,605.407 1432.32,605.407 1433.33,605.407 1434.33,605.407 1435.34,605.407 1436.35,605.407 1437.35,605.407 1438.36,605.407 1439.36,605.407 1440.37,605.407 1441.37,605.407 1442.38,605.407 1443.39,605.407 1444.39,605.407 1445.4,605.407 1446.4,605.407 1447.41,605.407 1448.42,605.407 1449.42,605.407 1450.43,605.407 1451.43,605.407 1452.44,605.407 1453.45,605.407 1454.45,605.407 1455.46,605.407 1456.46,605.407 1457.47,605.407 1458.48,605.407 1459.48,605.407 1460.49,605.407 1461.49,605.407 1462.5,605.407 1463.51,605.407 1464.51,605.407 1465.52,605.407 1466.52,605.407 1467.53,605.407 1468.54,605.407 1469.54,605.407 1470.55,605.407 1471.55,605.407 1472.56,605.407 1473.57,605.407 1474.57,540.504 1475.58,540.504 1476.58,540.504 1477.59,540.504 1478.59,540.504 1479.6,540.504 1480.61,540.504 1481.61,540.504 1482.62,540.504 1483.62,540.504 1484.63,540.504 1485.64,540.504 1486.64,540.504 1487.65,540.504 1488.65,540.504 1489.66,540.504 1490.67,540.504 1491.67,540.504 1492.68,540.504 1493.68,540.504 1494.69,540.504 1495.7,540.504 1496.7,540.504 1497.71,540.504 1498.71,540.504 1499.72,540.504 1500.73,540.504 1501.73,540.504 1502.74,540.504 1503.74,540.504 1504.75,540.504 1505.76,540.504 1506.76,540.504 1507.77,540.504 1508.77,540.504 1509.78,540.504 1510.78,540.504 1511.79,540.504 1512.8,540.504 1513.8,540.504 1514.81,540.504 1515.81,540.504 1516.82,540.504 1517.83,540.504 1518.83,540.504 1519.84,540.504 1520.84,540.504 1521.85,540.504 1522.86,540.504 1523.86,540.504 1524.87,540.504 1525.87,540.504 1526.88,540.504 1527.89,540.504 1528.89,540.504 1529.9,540.504 1530.9,540.504 1531.91,540.504 1532.92,540.504 1533.92,540.504 1534.93,540.504 1535.93,540.504 1536.94,540.504 1537.95,540.504 1538.95,540.504 1539.96,540.504 1540.96,540.504 1541.97,540.504 1542.97,540.504 1543.98,540.504 1544.99,540.504 1545.99,540.504 1547,540.504 1548,540.504 1549.01,540.504 1550.02,540.504 1551.02,540.504 1552.03,540.504 1553.03,540.504 1554.04,540.504 1555.05,540.504 1556.05,540.504 1557.06,540.504 1558.06,540.504 1559.07,540.504 1560.08,540.504 1561.08,540.504 1562.09,540.504 1563.09,540.504 1564.1,540.504 1565.11,540.504 1566.11,540.504 1567.12,540.504 1568.12,540.504 1569.13,540.504 1570.14,540.504 1571.14,540.504 1572.15,540.504 1573.15,540.504 1574.16,540.504 1575.16,540.504 1576.17,540.504 1577.18,540.504 1578.18,540.504 1579.19,540.504 1580.19,540.504 1581.2,540.504 1582.21,540.504 1583.21,540.504 1584.22,540.504 1585.22,540.504 1586.23,540.504 1587.24,540.504 1588.24,540.504 1589.25,540.504 1590.25,540.504 1591.26,540.504 1592.27,540.504 1593.27,540.504 1594.28,540.504 1595.28,540.504 1596.29,540.504 1597.3,540.504 1598.3,540.504 1599.31,540.504 1600.31,540.504 1601.32,540.504 1602.33,540.504 1603.33,540.504 1604.34,540.504 1605.34,540.504 1606.35,540.504 1607.35,540.504 1608.36,540.504 1609.37,540.504 1610.37,540.504 1611.38,540.504 1612.38,540.504 1613.39,540.504 1614.4,540.504 1615.4,540.504 1616.41,540.504 1617.41,540.504 1618.42,540.504 1619.43,540.504 1620.43,540.504 1621.44,540.504 1622.44,540.504 1623.45,540.504 1624.46,540.504 1625.46,540.504 1626.47,540.504 1627.47,540.504 1628.48,540.504 1629.49,540.504 1630.49,540.504 1631.5,540.504 1632.5,540.504 1633.51,540.504 1634.52,540.504 1635.52,540.504 1636.53,540.504 1637.53,540.504 1638.54,540.504 1639.54,540.504 1640.55,540.504 1641.56,540.504 1642.56,540.504 1643.57,540.504 1644.57,540.504 1645.58,540.504 1646.59,540.504 1647.59,540.504 1648.6,540.504 1649.6,540.504 1650.61,540.504 1651.62,540.504 1652.62,540.504 1653.63,540.504 1654.63,540.504 1655.64,540.504 1656.65,540.504 1657.65,540.504 1658.66,540.504 1659.66,540.504 1660.67,540.504 1661.68,540.504 1662.68,540.504 1663.69,540.504 1664.69,540.504 1665.7,540.504 1666.71,540.504 1667.71,540.504 1668.72,540.504 1669.72,540.504 1670.73,540.504 1671.74,540.504 1672.74,540.504 1673.75,540.504 1674.75,540.504 1675.76,540.504 1676.76,540.504 1677.77,540.504 1678.78,540.504 1679.78,540.504 1680.79,540.504 1681.79,540.504 1682.8,540.504 1683.81,540.504 1684.81,540.504 1685.82,540.504 1686.82,540.504 1687.83,540.504 1688.84,540.504 1689.84,540.504 1690.85,540.504 1691.85,540.504 1692.86,540.504 1693.87,540.504 1694.87,540.504 1695.88,540.504 1696.88,540.504 1697.89,540.504 1698.9,540.504 1699.9,540.504 1700.91,540.504 1701.91,540.504 1702.92,540.504 1703.93,540.504 1704.93,540.504 1705.94,540.504 1706.94,540.504 1707.95,540.504 1708.95,540.504 1709.96,540.504 1710.97,540.504 1711.97,540.504 1712.98,540.504 1713.98,540.504 1714.99,540.504 1716,540.504 1717,540.504 1718.01,540.504 1719.01,540.504 1720.02,540.504 1721.03,540.504 1722.03,540.504 1723.04,540.504 1724.04,540.504 1725.05,540.504 1726.06,540.504 1727.06,540.504 1728.07,540.504 1729.07,540.504 1730.08,540.504 1731.09,540.504 1732.09,540.504 1733.1,540.504 1734.1,540.504 1735.11,540.504 1736.12,540.504 1737.12,540.504 1738.13,540.504 1739.13,540.504 1740.14,540.504 1741.14,540.504 1742.15,540.504 1743.16,540.504 1744.16,540.504 1745.17,540.504 1746.17,540.504 1747.18,540.504 1748.19,540.504 1749.19,540.504 1750.2,540.504 1751.2,540.504 1752.21,540.504 1753.22,540.504 1754.22,540.504 1755.23,540.504 1756.23,540.504 1757.24,540.504 1758.25,540.504 1759.25,540.504 1760.26,540.504 1761.26,540.504 1762.27,540.504 1763.28,540.504 1764.28,540.504 1765.29,540.504 1766.29,540.504 1767.3,540.504 1768.31,540.504 1769.31,540.504 1770.32,540.504 1771.32,540.504 1772.33,540.504 1773.33,540.504 1774.34,540.504 1775.35,540.504 1776.35,540.504 1777.36,540.504 1778.36,540.504 1779.37,540.504 1780.38,540.504 1781.38,540.504 1782.39,540.504 1783.39,540.504 1784.4,540.504 1785.41,540.504 1786.41,540.504 1787.42,540.504 1788.42,540.504 1789.43,540.504 1790.44,540.504 1791.44,540.504 1792.45,540.504 1793.45,540.504 1794.46,540.504 1795.47,540.504 1796.47,540.504 1797.48,540.504 1798.48,540.504 1799.49,540.504 1800.5,540.504 1801.5,540.504 1802.51,540.504 1803.51,540.504 1804.52,540.504 1805.52,540.504 1806.53,540.504 1807.54,540.504 1808.54,540.504 1809.55,540.504 1810.55,540.504 1811.56,540.504 1812.57,540.504 1813.57,540.504 1814.58,540.504 1815.58,540.504 1816.59,540.504 1817.6,540.504 1818.6,540.504 1819.61,540.504 1820.61,540.504 1821.62,540.504 1822.63,475.601 1823.63,475.601 1824.64,475.601 1825.64,475.601 1826.65,475.601 1827.66,475.601 1828.66,475.601 1829.67,475.601 1830.67,475.601 1831.68,475.601 1832.69,475.601 1833.69,475.601 1834.7,475.601 1835.7,475.601 1836.71,475.601 1837.72,475.601 1838.72,475.601 1839.73,475.601 1840.73,475.601 1841.74,475.601 1842.74,475.601 1843.75,475.601 1844.76,475.601 1845.76,475.601 1846.77,475.601 1847.77,475.601 1848.78,475.601 1849.79,475.601 1850.79,475.601 1851.8,475.601 1852.8,475.601 1853.81,475.601 1854.82,475.601 1855.82,475.601 1856.83,475.601 1857.83,475.601 1858.84,410.699 1859.85,410.699 1860.85,410.699 1861.86,410.699 1862.86,410.699 1863.87,410.699 1864.88,410.699 1865.88,410.699 1866.89,410.699 1867.89,410.699 1868.9,410.699 1869.91,410.699 1870.91,410.699 1871.92,410.699 1872.92,410.699 1873.93,410.699 1874.93,410.699 1875.94,410.699 1876.95,410.699 1877.95,410.699 1878.96,410.699 1879.96,410.699 1880.97,410.699 1881.98,410.699 1882.98,410.699 1883.99,410.699 1884.99,410.699 1886,410.699 1887.01,410.699 1888.01,410.699 1889.02,410.699 1890.02,410.699 1891.03,410.699 1892.04,410.699 1893.04,410.699 1894.05,410.699 1895.05,410.699 1896.06,410.699 1897.07,410.699 1898.07,410.699 1899.08,410.699 1900.08,410.699 1901.09,410.699 1902.1,410.699 1903.1,410.699 1904.11,410.699 1905.11,410.699 1906.12,410.699 1907.12,410.699 1908.13,410.699 1909.14,410.699 1910.14,410.699 1911.15,410.699 1912.15,410.699 1913.16,410.699 1914.17,410.699 1915.17,410.699 1916.18,410.699 1917.18,410.699 1918.19,410.699 1919.2,410.699 1920.2,410.699 1921.21,410.699 1922.21,410.699 1923.22,410.699 1924.23,410.699 1925.23,410.699 1926.24,410.699 1927.24,410.699 1928.25,410.699 1929.26,410.699 1930.26,410.699 1931.27,410.699 1932.27,410.699 1933.28,410.699 1934.29,410.699 1935.29,410.699 1936.3,410.699 1937.3,410.699 1938.31,410.699 1939.31,410.699 1940.32,410.699 1941.33,410.699 1942.33,410.699 1943.34,410.699 1944.34,410.699 1945.35,410.699 1946.36,410.699 1947.36,410.699 1948.37,410.699 1949.37,410.699 1950.38,410.699 1951.39,410.699 1952.39,410.699 1953.4,410.699 1954.4,410.699 1955.41,410.699 1956.42,410.699 1957.42,410.699 1958.43,410.699 1959.43,410.699 1960.44,410.699 1961.45,410.699 1962.45,410.699 1963.46,410.699 1964.46,410.699 1965.47,410.699 1966.48,410.699 1967.48,410.699 1968.49,410.699 1969.49,410.699 1970.5,410.699 1971.5,410.699 1972.51,410.699 1973.52,410.699 1974.52,410.699 1975.53,410.699 1976.53,410.699 1977.54,410.699 1978.55,410.699 1979.55,410.699 1980.56,345.796 1981.56,345.796 1982.57,345.796 1983.58,345.796 1984.58,345.796 1985.59,345.796 1986.59,345.796 1987.6,345.796 1988.61,345.796 1989.61,345.796 1990.62,345.796 1991.62,345.796 1992.63,345.796 1993.64,345.796 1994.64,345.796 1995.65,345.796 1996.65,345.796 1997.66,345.796 1998.67,345.796 1999.67,345.796 2000.68,345.796 2001.68,345.796 2002.69,345.796 2003.69,345.796 2004.7,345.796 2005.71,345.796 2006.71,345.796 2007.72,345.796 2008.72,345.796 2009.73,345.796 2010.74,345.796 2011.74,345.796 2012.75,345.796 2013.75,345.796 2014.76,280.894 2015.77,280.894 2016.77,280.894 2017.78,280.894 2018.78,280.894 2019.79,280.894 2020.8,280.894 2021.8,280.894 2022.81,280.894 2023.81,280.894 2024.82,280.894 2025.83,280.894 2026.83,280.894 2027.84,280.894 2028.84,280.894 2029.85,280.894 2030.86,280.894 2031.86,280.894 2032.87,280.894 2033.87,280.894 2034.88,280.894 2035.89,280.894 2036.89,280.894 2037.9,280.894 2038.9,280.894 2039.91,280.894 2040.91,280.894 2041.92,280.894 2042.93,280.894 2043.93,280.894 2044.94,280.894 2045.94,280.894 2046.95,280.894 2047.96,280.894 2048.96,280.894 2049.97,280.894 2050.97,280.894 2051.98,280.894 2052.99,280.894 2053.99,280.894 2055,280.894 2056,280.894 2057.01,280.894 2058.02,280.894 2059.02,280.894 2060.03,280.894 2061.03,280.894 2062.04,280.894 2063.05,280.894 2064.05,280.894 2065.06,280.894 2066.06,280.894 2067.07,280.894 2068.08,280.894 2069.08,280.894 2070.09,280.894 2071.09,280.894 2072.1,280.894 2073.1,280.894 2074.11,280.894 2075.12,280.894 2076.12,280.894 2077.13,280.894 2078.13,280.894 2079.14,280.894 2080.15,280.894 2081.15,280.894 2082.16,280.894 2083.16,280.894 2084.17,280.894 2085.18,280.894 2086.18,280.894 2087.19,280.894 2088.19,280.894 2089.2,280.894 2090.21,280.894 2091.21,280.894 2092.22,280.894 2093.22,280.894 2094.23,280.894 2095.24,280.894 2096.24,280.894 2097.25,280.894 2098.25,280.894 2099.26,280.894 2100.27,280.894 2101.27,280.894 2102.28,280.894 2103.28,280.894 2104.29,280.894 2105.29,280.894 2106.3,280.894 2107.31,280.894 2108.31,280.894 2109.32,280.894 2110.32,280.894 2111.33,280.894 2112.34,280.894 2113.34,280.894 2114.35,280.894 2115.35,280.894 2116.36,280.894 2117.37,280.894 2118.37,280.894 2119.38,280.894 2120.38,280.894 2121.39,280.894 2122.4,280.894 2123.4,280.894 2124.41,280.894 2125.41,280.894 2126.42,280.894 2127.43,280.894 2128.43,280.894 2129.44,280.894 2130.44,280.894 2131.45,280.894 2132.46,280.894 2133.46,280.894 2134.47,280.894 2135.47,280.894 2136.48,280.894 2137.48,280.894 2138.49,280.894 2139.5,280.894 2140.5,280.894 2141.51,280.894 2142.51,280.894 2143.52,280.894 2144.53,280.894 2145.53,280.894 2146.54,280.894 2147.54,280.894 2148.55,280.894 2149.56,280.894 2150.56,280.894 2151.57,280.894 2152.57,280.894 2153.58,280.894 2154.59,280.894 2155.59,280.894 2156.6,280.894 2157.6,280.894 2158.61,280.894 2159.62,280.894 2160.62,280.894 2161.63,280.894 2162.63,280.894 2163.64,280.894 2164.65,280.894 2165.65,280.894 2166.66,280.894 2167.66,280.894 2168.67,280.894 2169.67,280.894 2170.68,280.894 2171.69,280.894 2172.69,280.894 2173.7,215.991 2174.7,215.991 2175.71,215.991 2176.72,215.991 2177.72,215.991 2178.73,215.991 2179.73,215.991 2180.74,215.991 2181.75,215.991 2182.75,215.991 2183.76,215.991 2184.76,215.991 2185.77,215.991 2186.78,215.991 2187.78,215.991 2188.79,215.991 2189.79,215.991 2190.8,215.991 2191.81,215.991 2192.81,215.991 2193.82,215.991 2194.82,215.991 2195.83,215.991 2196.84,151.088 2197.84,151.088 2198.85,151.088 2199.85,151.088 2200.86,151.088 2201.87,151.088 2202.87,151.088 2203.88,151.088 2204.88,151.088 2205.89,151.088 2206.89,151.088 2207.9,151.088 2208.91,151.088 2209.91,151.088 2210.92,151.088 2211.92,151.088 2212.93,151.088 2213.94,151.088 2214.94,151.088 2215.95,151.088 2216.95,151.088 2217.96,151.088 2218.97,151.088 2219.97,151.088 2220.98,151.088 2221.98,151.088 2222.99,151.088 2224,151.088 2225,151.088 2226.01,151.088 2227.01,151.088 2228.02,151.088 2229.03,151.088 2230.03,151.088 2231.04,151.088 2232.04,151.088 2233.05,151.088 2234.06,151.088 2235.06,151.088 2236.07,151.088 2237.07,151.088 2238.08,151.088 2239.08,151.088 2240.09,151.088 2241.1,151.088 2242.1,151.088 2243.11,151.088 2244.11,151.088 2245.12,151.088 2246.13,151.088 2247.13,151.088 2248.14,151.088 2249.14,151.088 2250.15,151.088 2251.16,151.088 2252.16,151.088 2253.17,151.088 2254.17,151.088 2255.18,151.088 2256.19,151.088 2257.19,151.088 2258.2,151.088 2259.2,151.088 2260.21,151.088 2261.22,151.088 2262.22,151.088 2263.23,151.088 2264.23,151.088 2265.24,151.088 2266.25,151.088 2267.25,151.088 2268.26,86.1857 2269.26,86.1857 2270.27,86.1857 2271.27,86.1857 2272.28,86.1857 2273.29,86.1857 2274.29,86.1857 2275.3,86.1857 2276.3,86.1857 2277.31,86.1857 2278.32,86.1857 2279.32,86.1857 2280.33,86.1857 2281.33,86.1857 2282.34,86.1857 2283.35,86.1857 2284.35,86.1857 2285.36,86.1857 2286.36,86.1857 2287.37,86.1857 2288.38,86.1857 2289.38,86.1857 2290.39,86.1857 2291.39,86.1857 2292.4,86.1857 2293.41,86.1857 2294.41,86.1857 2295.42,86.1857 2296.42,86.1857 2297.43,86.1857 2298.44,86.1857 2299.44,86.1857 2300.45,86.1857 2301.45,86.1857 2302.46,86.1857 2303.46,86.1857 2304.47,86.1857 2305.48,86.1857 2306.48,86.1857 2307.49,86.1857 2308.49,86.1857 2309.5,86.1857 2310.51,86.1857 2311.51,86.1857 2312.52,86.1857 2313.52,86.1857 2314.53,86.1857 2315.54,86.1857 2316.54,86.1857 2317.55,86.1857 2318.55,86.1857 2319.56,86.1857 2320.57,86.1857 2321.57,86.1857 2322.58,86.1857 2323.58,86.1857 2324.59,86.1857 2325.6,86.1857 2326.6,86.1857 2327.61,86.1857 2328.61,86.1857 2329.62,86.1857 2330.63,86.1857 2331.63,86.1857 2332.64,86.1857 2333.64,86.1857 2334.65,86.1857 2335.65,86.1857 2336.66,86.1857 2337.67,86.1857 2338.67,86.1857 2339.68,86.1857 2340.68,86.1857 2341.69,86.1857 2342.7,86.1857 2343.7,86.1857 2344.71,86.1857 2345.71,86.1857 2346.72,86.1857 2347.73,86.1857 2348.73,86.1857 2349.74,86.1857 2350.74,86.1857 2351.75,86.1857 2352.76,86.1857 "/>
<path clip-path="url(#clip300)" d="M1975.5 1377.32 L2279.02 1377.32 L2279.02 1273.64 L1975.5 1273.64  Z" fill="#ffffff" fill-rule="evenodd" fill-opacity="1"/>
<polyline clip-path="url(#clip300)" style="stroke:#000000; stroke-linecap:round; stroke-linejoin:round; stroke-width:4; stroke-opacity:1; fill:none" points="1975.5,1377.32 2279.02,1377.32 2279.02,1273.64 1975.5,1273.64 1975.5,1377.32 "/>
<polyline clip-path="url(#clip300)" style="stroke:#009af9; stroke-linecap:round; stroke-linejoin:round; stroke-width:8; stroke-opacity:1; fill:none" points="2000.08,1325.48 2147.55,1325.48 "/>
<path clip-path="url(#clip300)" d="M2172.13 1308.2 L2178.42 1308.2 L2193.75 1337.11 L2193.75 1308.2 L2198.29 1308.2 L2198.29 1342.76 L2191.99 1342.76 L2176.66 1313.84 L2176.66 1342.76 L2172.13 1342.76 L2172.13 1308.2 Z" fill="#000000" fill-rule="nonzero" fill-opacity="1" /><path clip-path="url(#clip300)" d="M2217.64 1306.78 Q2214.53 1312.11 2213.03 1317.32 Q2211.53 1322.52 2211.53 1327.87 Q2211.53 1333.22 2213.03 1338.47 Q2214.56 1343.7 2217.64 1349.01 L2213.93 1349.01 Q2210.46 1343.57 2208.72 1338.31 Q2207.01 1333.06 2207.01 1327.87 Q2207.01 1322.71 2208.72 1317.48 Q2210.44 1312.25 2213.93 1306.78 L2217.64 1306.78 Z" fill="#000000" fill-rule="nonzero" fill-opacity="1" /><path clip-path="url(#clip300)" d="M2230.11 1309.47 L2230.11 1316.83 L2238.89 1316.83 L2238.89 1320.14 L2230.11 1320.14 L2230.11 1334.21 Q2230.11 1337.38 2230.97 1338.29 Q2231.85 1339.19 2234.51 1339.19 L2238.89 1339.19 L2238.89 1342.76 L2234.51 1342.76 Q2229.58 1342.76 2227.71 1340.93 Q2225.83 1339.07 2225.83 1334.21 L2225.83 1320.14 L2222.71 1320.14 L2222.71 1316.83 L2225.83 1316.83 L2225.83 1309.47 L2230.11 1309.47 Z" fill="#000000" fill-rule="nonzero" fill-opacity="1" /><path clip-path="url(#clip300)" d="M2243.82 1306.78 L2247.52 1306.78 Q2250.99 1312.25 2252.71 1317.48 Q2254.44 1322.71 2254.44 1327.87 Q2254.44 1333.06 2252.71 1338.31 Q2250.99 1343.57 2247.52 1349.01 L2243.82 1349.01 Q2246.9 1343.7 2248.4 1338.47 Q2249.93 1333.22 2249.93 1327.87 Q2249.93 1322.52 2248.4 1317.32 Q2246.9 1312.11 2243.82 1306.78 Z" fill="#000000" fill-rule="nonzero" fill-opacity="1" /></svg>
