<?xml version="1.0" encoding="utf-8"?>
<svg xmlns="http://www.w3.org/2000/svg" xmlns:xlink="http://www.w3.org/1999/xlink" width="600" height="400" viewBox="0 0 2400 1600">
<defs>
  <clipPath id="clip950">
    <rect x="0" y="0" width="2400" height="1600"/>
  </clipPath>
</defs>
<path clip-path="url(#clip950)" d="M0 1600 L2400 1600 L2400 0 L0 0  Z" fill="#ffffff" fill-rule="evenodd" fill-opacity="1"/>
<defs>
  <clipPath id="clip951">
    <rect x="112" y="47" width="2242" height="1377"/>
  </clipPath>
</defs>
<path clip-path="url(#clip950)" d="M112.177 1423.18 L2352.76 1423.18 L2352.76 47.2441 L112.177 47.2441  Z" fill="#ffffff" fill-rule="evenodd" fill-opacity="1"/>
<polyline clip-path="url(#clip951)" style="stroke:#000000; stroke-linecap:round; stroke-linejoin:round; stroke-width:2; stroke-opacity:0.1; fill:none" points="112.177,1423.18 112.177,47.2441 "/>
<polyline clip-path="url(#clip951)" style="stroke:#000000; stroke-linecap:round; stroke-linejoin:round; stroke-width:2; stroke-opacity:0.1; fill:none" points="560.293,1423.18 560.293,47.2441 "/>
<polyline clip-path="url(#clip951)" style="stroke:#000000; stroke-linecap:round; stroke-linejoin:round; stroke-width:2; stroke-opacity:0.1; fill:none" points="1008.41,1423.18 1008.41,47.2441 "/>
<polyline clip-path="url(#clip951)" style="stroke:#000000; stroke-linecap:round; stroke-linejoin:round; stroke-width:2; stroke-opacity:0.1; fill:none" points="1456.52,1423.18 1456.52,47.2441 "/>
<polyline clip-path="url(#clip951)" style="stroke:#000000; stroke-linecap:round; stroke-linejoin:round; stroke-width:2; stroke-opacity:0.1; fill:none" points="1904.64,1423.18 1904.64,47.2441 "/>
<polyline clip-path="url(#clip951)" style="stroke:#000000; stroke-linecap:round; stroke-linejoin:round; stroke-width:2; stroke-opacity:0.1; fill:none" points="2352.76,1423.18 2352.76,47.2441 "/>
<polyline clip-path="url(#clip951)" style="stroke:#000000; stroke-linecap:round; stroke-linejoin:round; stroke-width:2; stroke-opacity:0.1; fill:none" points="112.177,1416.2 2352.76,1416.2 "/>
<polyline clip-path="url(#clip951)" style="stroke:#000000; stroke-linecap:round; stroke-linejoin:round; stroke-width:2; stroke-opacity:0.1; fill:none" points="112.177,1142.3 2352.76,1142.3 "/>
<polyline clip-path="url(#clip951)" style="stroke:#000000; stroke-linecap:round; stroke-linejoin:round; stroke-width:2; stroke-opacity:0.1; fill:none" points="112.177,868.396 2352.76,868.396 "/>
<polyline clip-path="url(#clip951)" style="stroke:#000000; stroke-linecap:round; stroke-linejoin:round; stroke-width:2; stroke-opacity:0.1; fill:none" points="112.177,594.493 2352.76,594.493 "/>
<polyline clip-path="url(#clip951)" style="stroke:#000000; stroke-linecap:round; stroke-linejoin:round; stroke-width:2; stroke-opacity:0.1; fill:none" points="112.177,320.59 2352.76,320.59 "/>
<polyline clip-path="url(#clip950)" style="stroke:#000000; stroke-linecap:round; stroke-linejoin:round; stroke-width:4; stroke-opacity:1; fill:none" points="112.177,1423.18 2352.76,1423.18 "/>
<polyline clip-path="url(#clip950)" style="stroke:#000000; stroke-linecap:round; stroke-linejoin:round; stroke-width:4; stroke-opacity:1; fill:none" points="112.177,1423.18 112.177,1404.28 "/>
<polyline clip-path="url(#clip950)" style="stroke:#000000; stroke-linecap:round; stroke-linejoin:round; stroke-width:4; stroke-opacity:1; fill:none" points="560.293,1423.18 560.293,1404.28 "/>
<polyline clip-path="url(#clip950)" style="stroke:#000000; stroke-linecap:round; stroke-linejoin:round; stroke-width:4; stroke-opacity:1; fill:none" points="1008.41,1423.18 1008.41,1404.28 "/>
<polyline clip-path="url(#clip950)" style="stroke:#000000; stroke-linecap:round; stroke-linejoin:round; stroke-width:4; stroke-opacity:1; fill:none" points="1456.52,1423.18 1456.52,1404.28 "/>
<polyline clip-path="url(#clip950)" style="stroke:#000000; stroke-linecap:round; stroke-linejoin:round; stroke-width:4; stroke-opacity:1; fill:none" points="1904.64,1423.18 1904.64,1404.28 "/>
<polyline clip-path="url(#clip950)" style="stroke:#000000; stroke-linecap:round; stroke-linejoin:round; stroke-width:4; stroke-opacity:1; fill:none" points="2352.76,1423.18 2352.76,1404.28 "/>
<path clip-path="url(#clip950)" d="M112.177 1454.1 Q108.566 1454.1 106.737 1457.66 Q104.932 1461.2 104.932 1468.33 Q104.932 1475.44 106.737 1479.01 Q108.566 1482.55 112.177 1482.55 Q115.811 1482.55 117.617 1479.01 Q119.446 1475.44 119.446 1468.33 Q119.446 1461.2 117.617 1457.66 Q115.811 1454.1 112.177 1454.1 M112.177 1450.39 Q117.987 1450.39 121.043 1455 Q124.122 1459.58 124.122 1468.33 Q124.122 1477.06 121.043 1481.67 Q117.987 1486.25 112.177 1486.25 Q106.367 1486.25 103.288 1481.67 Q100.233 1477.06 100.233 1468.33 Q100.233 1459.58 103.288 1455 Q106.367 1450.39 112.177 1450.39 Z" fill="#000000" fill-rule="nonzero" fill-opacity="1" /><path clip-path="url(#clip950)" d="M554.946 1481.64 L571.265 1481.64 L571.265 1485.58 L549.321 1485.58 L549.321 1481.64 Q551.983 1478.89 556.566 1474.26 Q561.173 1469.61 562.353 1468.27 Q564.598 1465.74 565.478 1464.01 Q566.381 1462.25 566.381 1460.56 Q566.381 1457.8 564.436 1456.07 Q562.515 1454.33 559.413 1454.33 Q557.214 1454.33 554.761 1455.09 Q552.33 1455.86 549.552 1457.41 L549.552 1452.69 Q552.376 1451.55 554.83 1450.97 Q557.284 1450.39 559.321 1450.39 Q564.691 1450.39 567.885 1453.08 Q571.08 1455.77 571.08 1460.26 Q571.08 1462.39 570.27 1464.31 Q569.483 1466.2 567.376 1468.8 Q566.798 1469.47 563.696 1472.69 Q560.594 1475.88 554.946 1481.64 Z" fill="#000000" fill-rule="nonzero" fill-opacity="1" /><path clip-path="url(#clip950)" d="M1011.42 1455.09 L999.612 1473.54 L1011.42 1473.54 L1011.42 1455.09 M1010.19 1451.02 L1016.07 1451.02 L1016.07 1473.54 L1021 1473.54 L1021 1477.43 L1016.07 1477.43 L1016.07 1485.58 L1011.42 1485.58 L1011.42 1477.43 L995.816 1477.43 L995.816 1472.92 L1010.19 1451.02 Z" fill="#000000" fill-rule="nonzero" fill-opacity="1" /><path clip-path="url(#clip950)" d="M1456.93 1466.44 Q1453.78 1466.44 1451.93 1468.59 Q1450.1 1470.74 1450.1 1474.49 Q1450.1 1478.22 1451.93 1480.39 Q1453.78 1482.55 1456.93 1482.55 Q1460.08 1482.55 1461.91 1480.39 Q1463.76 1478.22 1463.76 1474.49 Q1463.76 1470.74 1461.91 1468.59 Q1460.08 1466.44 1456.93 1466.44 M1466.21 1451.78 L1466.21 1456.04 Q1464.45 1455.21 1462.65 1454.77 Q1460.86 1454.33 1459.11 1454.33 Q1454.48 1454.33 1452.02 1457.45 Q1449.59 1460.58 1449.24 1466.9 Q1450.61 1464.89 1452.67 1463.82 Q1454.73 1462.73 1457.21 1462.73 Q1462.42 1462.73 1465.42 1465.9 Q1468.46 1469.05 1468.46 1474.49 Q1468.46 1479.82 1465.31 1483.03 Q1462.16 1486.25 1456.93 1486.25 Q1450.93 1486.25 1447.76 1481.67 Q1444.59 1477.06 1444.59 1468.33 Q1444.59 1460.14 1448.48 1455.28 Q1452.37 1450.39 1458.92 1450.39 Q1460.68 1450.39 1462.46 1450.74 Q1464.27 1451.09 1466.21 1451.78 Z" fill="#000000" fill-rule="nonzero" fill-opacity="1" /><path clip-path="url(#clip950)" d="M1904.64 1469.17 Q1901.31 1469.17 1899.39 1470.95 Q1897.49 1472.73 1897.49 1475.86 Q1897.49 1478.98 1899.39 1480.77 Q1901.31 1482.55 1904.64 1482.55 Q1907.97 1482.55 1909.89 1480.77 Q1911.82 1478.96 1911.82 1475.86 Q1911.82 1472.73 1909.89 1470.95 Q1908 1469.17 1904.64 1469.17 M1899.96 1467.18 Q1896.96 1466.44 1895.27 1464.38 Q1893.6 1462.32 1893.6 1459.35 Q1893.6 1455.21 1896.54 1452.8 Q1899.5 1450.39 1904.64 1450.39 Q1909.8 1450.39 1912.74 1452.8 Q1915.68 1455.21 1915.68 1459.35 Q1915.68 1462.32 1913.99 1464.38 Q1912.33 1466.44 1909.34 1467.18 Q1912.72 1467.96 1914.59 1470.26 Q1916.49 1472.55 1916.49 1475.86 Q1916.49 1480.88 1913.41 1483.57 Q1910.36 1486.25 1904.64 1486.25 Q1898.92 1486.25 1895.84 1483.57 Q1892.79 1480.88 1892.79 1475.86 Q1892.79 1472.55 1894.69 1470.26 Q1896.58 1467.96 1899.96 1467.18 M1898.25 1459.79 Q1898.25 1462.48 1899.92 1463.98 Q1901.61 1465.49 1904.64 1465.49 Q1907.65 1465.49 1909.34 1463.98 Q1911.05 1462.48 1911.05 1459.79 Q1911.05 1457.11 1909.34 1455.6 Q1907.65 1454.1 1904.64 1454.1 Q1901.61 1454.1 1899.92 1455.6 Q1898.25 1457.11 1898.25 1459.79 Z" fill="#000000" fill-rule="nonzero" fill-opacity="1" /><path clip-path="url(#clip950)" d="M2327.44 1481.64 L2335.08 1481.64 L2335.08 1455.28 L2326.77 1456.95 L2326.77 1452.69 L2335.04 1451.02 L2339.71 1451.02 L2339.71 1481.64 L2347.35 1481.64 L2347.35 1485.58 L2327.44 1485.58 L2327.44 1481.64 Z" fill="#000000" fill-rule="nonzero" fill-opacity="1" /><path clip-path="url(#clip950)" d="M2366.8 1454.1 Q2363.18 1454.1 2361.36 1457.66 Q2359.55 1461.2 2359.55 1468.33 Q2359.55 1475.44 2361.36 1479.01 Q2363.18 1482.55 2366.8 1482.55 Q2370.43 1482.55 2372.23 1479.01 Q2374.06 1475.44 2374.06 1468.33 Q2374.06 1461.2 2372.23 1457.66 Q2370.43 1454.1 2366.8 1454.1 M2366.8 1450.39 Q2372.61 1450.39 2375.66 1455 Q2378.74 1459.58 2378.74 1468.33 Q2378.74 1477.06 2375.66 1481.67 Q2372.61 1486.25 2366.8 1486.25 Q2360.99 1486.25 2357.91 1481.67 Q2354.85 1477.06 2354.85 1468.33 Q2354.85 1459.58 2357.91 1455 Q2360.99 1450.39 2366.8 1450.39 Z" fill="#000000" fill-rule="nonzero" fill-opacity="1" /><path clip-path="url(#clip950)" d="M1231.53 1522.27 L1231.53 1532.4 L1243.59 1532.4 L1243.59 1536.95 L1231.53 1536.95 L1231.53 1556.3 Q1231.53 1560.66 1232.71 1561.9 Q1233.91 1563.14 1237.58 1563.14 L1243.59 1563.14 L1243.59 1568.04 L1237.58 1568.04 Q1230.8 1568.04 1228.22 1565.53 Q1225.64 1562.98 1225.64 1556.3 L1225.64 1536.95 L1221.34 1536.95 L1221.34 1532.4 L1225.64 1532.4 L1225.64 1522.27 L1231.53 1522.27 Z" fill="#000000" fill-rule="nonzero" fill-opacity="1" /><polyline clip-path="url(#clip950)" style="stroke:#000000; stroke-linecap:round; stroke-linejoin:round; stroke-width:4; stroke-opacity:1; fill:none" points="112.177,1423.18 112.177,47.2441 "/>
<polyline clip-path="url(#clip950)" style="stroke:#000000; stroke-linecap:round; stroke-linejoin:round; stroke-width:4; stroke-opacity:1; fill:none" points="112.177,1416.2 131.075,1416.2 "/>
<polyline clip-path="url(#clip950)" style="stroke:#000000; stroke-linecap:round; stroke-linejoin:round; stroke-width:4; stroke-opacity:1; fill:none" points="112.177,1142.3 131.075,1142.3 "/>
<polyline clip-path="url(#clip950)" style="stroke:#000000; stroke-linecap:round; stroke-linejoin:round; stroke-width:4; stroke-opacity:1; fill:none" points="112.177,868.396 131.075,868.396 "/>
<polyline clip-path="url(#clip950)" style="stroke:#000000; stroke-linecap:round; stroke-linejoin:round; stroke-width:4; stroke-opacity:1; fill:none" points="112.177,594.493 131.075,594.493 "/>
<polyline clip-path="url(#clip950)" style="stroke:#000000; stroke-linecap:round; stroke-linejoin:round; stroke-width:4; stroke-opacity:1; fill:none" points="112.177,320.59 131.075,320.59 "/>
<path clip-path="url(#clip950)" d="M64.2328 1402 Q60.6217 1402 58.793 1405.57 Q56.9875 1409.11 56.9875 1416.24 Q56.9875 1423.34 58.793 1426.91 Q60.6217 1430.45 64.2328 1430.45 Q67.867 1430.45 69.6726 1426.91 Q71.5013 1423.34 71.5013 1416.24 Q71.5013 1409.11 69.6726 1405.57 Q67.867 1402 64.2328 1402 M64.2328 1398.3 Q70.0429 1398.3 73.0985 1402.9 Q76.1772 1407.49 76.1772 1416.24 Q76.1772 1424.96 73.0985 1429.57 Q70.0429 1434.15 64.2328 1434.15 Q58.4226 1434.15 55.344 1429.57 Q52.2884 1424.96 52.2884 1416.24 Q52.2884 1407.49 55.344 1402.9 Q58.4226 1398.3 64.2328 1398.3 Z" fill="#000000" fill-rule="nonzero" fill-opacity="1" /><path clip-path="url(#clip950)" d="M56.2699 1155.64 L63.9087 1155.64 L63.9087 1129.28 L55.5986 1130.95 L55.5986 1126.69 L63.8624 1125.02 L68.5383 1125.02 L68.5383 1155.64 L76.1772 1155.64 L76.1772 1159.58 L56.2699 1159.58 L56.2699 1155.64 Z" fill="#000000" fill-rule="nonzero" fill-opacity="1" /><path clip-path="url(#clip950)" d="M59.8578 881.741 L76.1772 881.741 L76.1772 885.676 L54.2328 885.676 L54.2328 881.741 Q56.8949 878.986 61.4782 874.357 Q66.0846 869.704 67.2652 868.361 Q69.5105 865.838 70.3902 864.102 Q71.2929 862.343 71.2929 860.653 Q71.2929 857.898 69.3485 856.162 Q67.4272 854.426 64.3254 854.426 Q62.1263 854.426 59.6726 855.19 Q57.2421 855.954 54.4643 857.505 L54.4643 852.783 Q57.2884 851.648 59.7421 851.07 Q62.1958 850.491 64.2328 850.491 Q69.6031 850.491 72.7976 853.176 Q75.992 855.861 75.992 860.352 Q75.992 862.482 75.1818 864.403 Q74.3948 866.301 72.2883 868.894 Q71.7096 869.565 68.6078 872.783 Q65.5059 875.977 59.8578 881.741 Z" fill="#000000" fill-rule="nonzero" fill-opacity="1" /><path clip-path="url(#clip950)" d="M69.0476 593.139 Q72.404 593.856 74.279 596.125 Q76.1772 598.393 76.1772 601.727 Q76.1772 606.842 72.6587 609.643 Q69.1402 612.444 62.6587 612.444 Q60.4828 612.444 58.168 612.004 Q55.8764 611.588 53.4227 610.731 L53.4227 606.217 Q55.3671 607.352 57.6819 607.93 Q59.9967 608.509 62.5198 608.509 Q66.918 608.509 69.2096 606.773 Q71.5244 605.037 71.5244 601.727 Q71.5244 598.671 69.3717 596.958 Q67.242 595.222 63.4226 595.222 L59.3949 595.222 L59.3949 591.379 L63.6078 591.379 Q67.0569 591.379 68.8855 590.014 Q70.7142 588.625 70.7142 586.032 Q70.7142 583.37 68.8161 581.958 Q66.9411 580.523 63.4226 580.523 Q61.5013 580.523 59.3023 580.94 Q57.1032 581.356 54.4643 582.236 L54.4643 578.069 Q57.1264 577.329 59.4412 576.958 Q61.7791 576.588 63.8393 576.588 Q69.1633 576.588 72.2652 579.018 Q75.367 581.426 75.367 585.546 Q75.367 588.416 73.7235 590.407 Q72.08 592.375 69.0476 593.139 Z" fill="#000000" fill-rule="nonzero" fill-opacity="1" /><path clip-path="url(#clip950)" d="M66.5939 307.384 L54.7884 325.833 L66.5939 325.833 L66.5939 307.384 M65.367 303.31 L71.2466 303.31 L71.2466 325.833 L76.1772 325.833 L76.1772 329.721 L71.2466 329.721 L71.2466 337.87 L66.5939 337.87 L66.5939 329.721 L50.9921 329.721 L50.9921 325.208 L65.367 303.31 Z" fill="#000000" fill-rule="nonzero" fill-opacity="1" /><polyline clip-path="url(#clip951)" style="stroke:#009af9; stroke-linecap:round; stroke-linejoin:round; stroke-width:8; stroke-opacity:1; fill:none" points="112.177,1361.42 112.177,1361.42 112.388,1358.06 112.59,1357.16 112.817,1357.57 113.073,1354.73 113.361,1353.81 113.685,1352.3 114.049,1356.69 114.459,1358.1 114.92,1353.54 115.438,1347.66 116.022,1346.45 116.678,1353.77 117.417,1356.55 118.247,1348.87 119.182,1349.8 120.233,1350.97 121.416,1345.5 122.747,1328.44 124.244,1326.2 125.928,1321.1 127.822,1306.18 129.954,1291.88 132.352,1276.09 135.049,1302.58 138.084,1311.41 141.498,1303.13 145.339,1297.1 149.66,1313.4 154.344,1308.61 159.612,1324.46 165.277,1303.78 171.649,1292.71 178.706,1310.18 185.441,1307.29 193.017,1308.86 201.057,1303.61 210.102,1249.11 219.874,1230.89 228.738,1241.92 236.999,1174.87 246.293,1203 253.629,1227.57 261.458,1236.51 269.536,1247.14 277.605,1202.1 286.516,1148.19 294.383,1005.71 300.525,908.956 305.422,960.322 309.889,1057.63 314.388,1019.32 319.046,910.76 320.5,924.903 324.76,1193.74 329.553,1178.06 334.672,1140 338.842,1120 344.001,1240.96 349.806,1253.55 355.581,1243.16 362.077,1203.34 369.386,1198.62 376.507,1162.5 384.518,1151.19 391.621,1185.63 398.701,1214.86 406.358,1273.51 414.922,1194.89 424.557,1212.91 432.243,1196.73 440.89,1161.69 450.153,1140.33 459.879,1147.8 468.016,1118.36 477.17,1116.28 484.797,1148.22 492.274,1135.33 500.686,1114.25 509.212,1033.9 518.803,985.695 527.127,855.806 536.193,649.758 544.309,441.776 550.455,608.207 555.773,614.164 561.485,325.53 567.086,606.316 571.92,713.037 576.829,873.692 581.763,930.099 586.933,1001.69 592.118,882.547 597.951,882.459 602.895,918.75 608.222,940.474 613.624,876.215 619.565,876.093 624.995,805.07 630.815,781.275 636.185,794.023 641.336,851.321 646.354,825.536 651.74,769.786 656.914,801.794 661.718,801.174 666.612,680.44 671.585,776.827 675.856,923.619 680.487,902.961 685.456,945.348 690.067,946.679 694.969,853.423 700.047,766.299 704.767,840.018 709.061,817.683 713.608,842.028 717.84,950.681 722.111,939.759 726.685,929.703 731.133,878.936 735.6,793.215 739.815,844.922 743.714,875.227 747.674,902.734 751.584,926.686 755.494,881.766 759.49,902.672 763.219,868.386 767.018,817.962 770.579,670.156 773.944,719.453 776.959,840.755 780.038,848.16 783.098,904.749 786.107,820.122 789.168,700.899 791.005,707.172 793.771,1021.17 796.882,1053.69 799.913,1047.56 803.242,1050.57 806.554,1082.82 809.975,1114.77 811.595,1076.78 815.192,1218.19 819.238,1244.15 823.317,1237.49 827.906,1223.33 832.831,1253.56 837.751,1247.46 843.287,1231.63 846.715,1264.23 852.482,1347.98 858.969,1347.72 866.268,1379.76 874.174,1368.18 883.069,1352.11 893.076,1376.39 903.819,1378.43 915.906,1369.88 929.504,1351.23 944.801,1359.97 955.703,1372.61 967.969,1368.64 981.767,1384.24 995.068,1383.5 1010.03,1382.55 1026.86,1376.72 1045.8,1359.64 1067.11,1380.05 1080.86,1363.61 1096.33,1333.02 1113.35,1330.37 1128.8,1328.16 1142.7,1322.45 1158.35,1311.59 1175.94,1333.25 1188.13,1307.88 1201.84,1334.91 1211.06,1322.62 1221.42,1332.76 1229.64,1325.92 1238.88,1297.08 1249.28,1278.59 1260.1,1271.77 1270.05,1277.11 1279.78,1237.32 1290.73,1276.47 1298.31,1273.55 1306.84,1280.05 1314.91,1200.92 1323.99,1179.83 1333.87,1230.27 1341.64,1155.48 1350.37,1172.04 1357.37,1203.31 1364.85,1133.44 1373.27,1176.05 1379.28,1140.55 1386.04,1123.12 1392.43,1142.95 1398.97,1132.11 1406.31,1067.69 1414.56,1074.79 1421.31,1034.14 1428.9,1010.09 1435.78,913.859 1443.26,685.36 1449.9,589.523 1455.77,599.74 1461.09,565.591 1466.28,515.167 1471.1,441.25 1475.65,182.084 1479.8,168.313 1483.41,431.952 1486.91,451.745 1490.42,556.059 1493.75,420.231 1497.18,504.653 1500.26,646.355 1503.43,614.999 1506.69,488.457 1509.82,574.888 1512.73,444.48 1515.71,555.596 1518.44,629.676 1521.22,461.039 1523.99,501.795 1526.52,501.089 1529.06,507.9 1531.51,235.641 1533.81,434.231 1535.94,482.081 1538.14,426.589 1540.25,447.387 1542.28,392.232 1544.23,457.778 1546.11,417.193 1547.96,480.74 1549.47,426.464 1551.26,941.984 1553.27,922.34 1555.53,838.084 1558.08,914.768 1560.68,965.983 1563.6,933.006 1566.88,863.702 1570.58,846.752 1574.45,820.633 1578.55,713.407 1583.15,766.521 1587.29,901.548 1591.82,908.545 1596.67,865.544 1601.87,851.396 1607.09,925.194 1611.92,992.732 1617.26,908.972 1623.27,917.085 1628.51,971.441 1633.97,890.369 1640.12,896.28 1645.43,941.351 1650.83,1004.02 1656.22,935.801 1662.3,918.259 1667.79,901.025 1673.4,898.025 1678.78,988.936 1683.97,932.698 1689.8,896.987 1695.31,891.719 1700.7,721.502 1706.14,587.442 1710.97,405.18 1715.41,254.172 1719.29,350.468 1722.83,270.749 1726.24,188.52 1729.36,289.27 1732.21,86.1857 1734.95,356.369 1737.5,370.736 1740.09,369.341 1742.57,401.628 1744.98,471.465 1747.33,297.558 1749.67,278.693 1751.78,197.728 1753.81,202.706 1755.73,190.168 1757.58,358.689 1759.34,334.938 1761.14,562.836 1762.98,573.204 1764.85,536.545 1766.74,606.218 1768.56,543.569 1768.88,543.847 1770.78,977.622 1772.91,970.378 1775.31,902.901 1778.01,1049.56 1781.05,1096.04 1784.25,1009.79 1787.86,978.73 1791.45,991.856 1795.12,931.632 1799.08,874.788 1802.9,944.091 1806.56,1039.02 1810.53,1076.48 1814.68,1102.05 1819.06,1099.53 1823.74,1106.95 1828.47,1049.57 1833.53,1000.91 1838.28,879.625 1842.75,872.778 1846.76,888.446 1850.65,904.25 1854.42,938.353 1858.13,1025.2 1861.86,882.612 1865.65,882.928 1869,892.576 1871.78,893.541 1875.13,1170.02 1878.89,1232.29 1883.12,1230.34 1887.88,1247.34 1892.82,1298.57 1898.38,1302.87 1904.63,1291.84 1911.67,1316.63 1918.51,1307.27 1926.2,1296.38 1934.66,1308.33 1942.41,1311.38 1951.14,1274.19 1960.95,1217.39 1970.02,1170.88 1978.37,1133.29 1986.06,1102.3 1993.15,1037.64 1999.66,1163.25 2005.92,1180.16 2012.23,1181.81 2017.06,1186.39 2023.38,1316.13 2030.48,1336.73 2038.13,1344.17 2046.74,1347.47 2056.42,1353.87 2066.59,1367.24 2077.96,1364.87 2090.75,1376.21 2103.21,1358.64 2117.24,1356.2 2130.1,1343.75 2144.57,1266.15 2155.56,1268.17 2166.22,1234.82 2177.28,1232.38 2186.65,1258.06 2195.37,1288.66 2204.37,1285.61 2213.99,1217.8 2223.76,1285.99 2234.75,1280.33 2244.71,1267.54 2255.75,1288.94 2265.16,1329.82 2275.74,1293.32 2287.64,1328.53 2297.27,1350.11 2308.11,1361.6 2320.31,1355.85 2334.03,1339.38 2349.46,1319.71 2352.76,1329.86 "/>
<path clip-path="url(#clip950)" d="M1964.92 196.789 L2278.07 196.789 L2278.07 93.1086 L1964.92 93.1086  Z" fill="#ffffff" fill-rule="evenodd" fill-opacity="1"/>
<polyline clip-path="url(#clip950)" style="stroke:#000000; stroke-linecap:round; stroke-linejoin:round; stroke-width:4; stroke-opacity:1; fill:none" points="1964.92,196.789 2278.07,196.789 2278.07,93.1086 1964.92,93.1086 1964.92,196.789 "/>
<polyline clip-path="url(#clip950)" style="stroke:#009af9; stroke-linecap:round; stroke-linejoin:round; stroke-width:8; stroke-opacity:1; fill:none" points="1989.81,144.949 2139.18,144.949 "/>
<path clip-path="url(#clip950)" d="M2164.08 151.997 L2164.08 136.303 L2168.34 136.303 L2168.34 151.835 Q2168.34 155.516 2169.77 157.368 Q2171.21 159.196 2174.08 159.196 Q2177.53 159.196 2179.52 156.997 Q2181.53 154.798 2181.53 151.002 L2181.53 136.303 L2185.79 136.303 L2185.79 162.229 L2181.53 162.229 L2181.53 158.247 Q2179.98 160.608 2177.92 161.766 Q2175.88 162.9 2173.18 162.9 Q2168.71 162.9 2166.39 160.122 Q2164.08 157.344 2164.08 151.997 M2174.8 135.678 L2174.8 135.678 Z" fill="#000000" fill-rule="nonzero" fill-opacity="1" /><path clip-path="url(#clip950)" d="M2194.17 126.21 L2203.99 126.21 L2203.99 129.52 L2198.43 129.52 L2198.43 165.168 L2203.99 165.168 L2203.99 168.479 L2194.17 168.479 L2194.17 126.21 Z" fill="#000000" fill-rule="nonzero" fill-opacity="1" /><path clip-path="url(#clip950)" d="M2214.47 158.293 L2222.11 158.293 L2222.11 131.928 L2213.8 133.595 L2213.8 129.335 L2222.06 127.669 L2226.74 127.669 L2226.74 158.293 L2234.38 158.293 L2234.38 162.229 L2214.47 162.229 L2214.47 158.293 Z" fill="#000000" fill-rule="nonzero" fill-opacity="1" /><path clip-path="url(#clip950)" d="M2253.17 126.21 L2253.17 168.479 L2243.36 168.479 L2243.36 165.168 L2248.89 165.168 L2248.89 129.52 L2243.36 129.52 L2243.36 126.21 L2253.17 126.21 Z" fill="#000000" fill-rule="nonzero" fill-opacity="1" /></svg>
