<?xml version="1.0" encoding="utf-8"?>
<svg xmlns="http://www.w3.org/2000/svg" xmlns:xlink="http://www.w3.org/1999/xlink" width="600" height="400" viewBox="0 0 2400 1600">
<defs>
  <clipPath id="clip760">
    <rect x="0" y="0" width="2400" height="1600"/>
  </clipPath>
</defs>
<path clip-path="url(#clip760)" d="M0 1600 L2400 1600 L2400 0 L0 0  Z" fill="#ffffff" fill-rule="evenodd" fill-opacity="1"/>
<defs>
  <clipPath id="clip761">
    <rect x="155" y="47" width="2198" height="1440"/>
  </clipPath>
</defs>
<path clip-path="url(#clip760)" d="M155.927 1486.45 L2352.76 1486.45 L2352.76 47.2441 L155.927 47.2441  Z" fill="#ffffff" fill-rule="evenodd" fill-opacity="1"/>
<polyline clip-path="url(#clip761)" style="stroke:#000000; stroke-linecap:round; stroke-linejoin:round; stroke-width:2; stroke-opacity:0.1; fill:none" points="216.109,1486.45 216.109,47.2441 "/>
<polyline clip-path="url(#clip761)" style="stroke:#000000; stroke-linecap:round; stroke-linejoin:round; stroke-width:2; stroke-opacity:0.1; fill:none" points="714.301,1486.45 714.301,47.2441 "/>
<polyline clip-path="url(#clip761)" style="stroke:#000000; stroke-linecap:round; stroke-linejoin:round; stroke-width:2; stroke-opacity:0.1; fill:none" points="1212.49,1486.45 1212.49,47.2441 "/>
<polyline clip-path="url(#clip761)" style="stroke:#000000; stroke-linecap:round; stroke-linejoin:round; stroke-width:2; stroke-opacity:0.1; fill:none" points="1710.69,1486.45 1710.69,47.2441 "/>
<polyline clip-path="url(#clip761)" style="stroke:#000000; stroke-linecap:round; stroke-linejoin:round; stroke-width:2; stroke-opacity:0.1; fill:none" points="2208.88,1486.45 2208.88,47.2441 "/>
<polyline clip-path="url(#clip761)" style="stroke:#000000; stroke-linecap:round; stroke-linejoin:round; stroke-width:2; stroke-opacity:0.1; fill:none" points="155.927,1445.72 2352.76,1445.72 "/>
<polyline clip-path="url(#clip761)" style="stroke:#000000; stroke-linecap:round; stroke-linejoin:round; stroke-width:2; stroke-opacity:0.1; fill:none" points="155.927,1058.67 2352.76,1058.67 "/>
<polyline clip-path="url(#clip761)" style="stroke:#000000; stroke-linecap:round; stroke-linejoin:round; stroke-width:2; stroke-opacity:0.1; fill:none" points="155.927,671.618 2352.76,671.618 "/>
<polyline clip-path="url(#clip761)" style="stroke:#000000; stroke-linecap:round; stroke-linejoin:round; stroke-width:2; stroke-opacity:0.1; fill:none" points="155.927,284.569 2352.76,284.569 "/>
<polyline clip-path="url(#clip760)" style="stroke:#000000; stroke-linecap:round; stroke-linejoin:round; stroke-width:4; stroke-opacity:1; fill:none" points="155.927,1486.45 2352.76,1486.45 "/>
<polyline clip-path="url(#clip760)" style="stroke:#000000; stroke-linecap:round; stroke-linejoin:round; stroke-width:4; stroke-opacity:1; fill:none" points="216.109,1486.45 216.109,1467.55 "/>
<polyline clip-path="url(#clip760)" style="stroke:#000000; stroke-linecap:round; stroke-linejoin:round; stroke-width:4; stroke-opacity:1; fill:none" points="714.301,1486.45 714.301,1467.55 "/>
<polyline clip-path="url(#clip760)" style="stroke:#000000; stroke-linecap:round; stroke-linejoin:round; stroke-width:4; stroke-opacity:1; fill:none" points="1212.49,1486.45 1212.49,1467.55 "/>
<polyline clip-path="url(#clip760)" style="stroke:#000000; stroke-linecap:round; stroke-linejoin:round; stroke-width:4; stroke-opacity:1; fill:none" points="1710.69,1486.45 1710.69,1467.55 "/>
<polyline clip-path="url(#clip760)" style="stroke:#000000; stroke-linecap:round; stroke-linejoin:round; stroke-width:4; stroke-opacity:1; fill:none" points="2208.88,1486.45 2208.88,1467.55 "/>
<path clip-path="url(#clip760)" d="M216.109 1517.37 Q212.497 1517.37 210.669 1520.93 Q208.863 1524.47 208.863 1531.6 Q208.863 1538.71 210.669 1542.27 Q212.497 1545.82 216.109 1545.82 Q219.743 1545.82 221.548 1542.27 Q223.377 1538.71 223.377 1531.6 Q223.377 1524.47 221.548 1520.93 Q219.743 1517.37 216.109 1517.37 M216.109 1513.66 Q221.919 1513.66 224.974 1518.27 Q228.053 1522.85 228.053 1531.6 Q228.053 1540.33 224.974 1544.94 Q221.919 1549.52 216.109 1549.52 Q210.298 1549.52 207.22 1544.94 Q204.164 1540.33 204.164 1531.6 Q204.164 1522.85 207.22 1518.27 Q210.298 1513.66 216.109 1513.66 Z" fill="#000000" fill-rule="nonzero" fill-opacity="1" /><path clip-path="url(#clip760)" d="M677.993 1544.91 L694.313 1544.91 L694.313 1548.85 L672.368 1548.85 L672.368 1544.91 Q675.03 1542.16 679.614 1537.53 Q684.22 1532.88 685.401 1531.53 Q687.646 1529.01 688.526 1527.27 Q689.428 1525.51 689.428 1523.82 Q689.428 1521.07 687.484 1519.33 Q685.563 1517.6 682.461 1517.6 Q680.262 1517.6 677.808 1518.36 Q675.378 1519.13 672.6 1520.68 L672.6 1515.95 Q675.424 1514.82 677.878 1514.24 Q680.331 1513.66 682.368 1513.66 Q687.739 1513.66 690.933 1516.35 Q694.127 1519.03 694.127 1523.52 Q694.127 1525.65 693.317 1527.57 Q692.53 1529.47 690.424 1532.07 Q689.845 1532.74 686.743 1535.95 Q683.641 1539.15 677.993 1544.91 Z" fill="#000000" fill-rule="nonzero" fill-opacity="1" /><path clip-path="url(#clip760)" d="M704.174 1514.29 L722.53 1514.29 L722.53 1518.22 L708.456 1518.22 L708.456 1526.7 Q709.475 1526.35 710.493 1526.19 Q711.512 1526 712.53 1526 Q718.317 1526 721.697 1529.17 Q725.076 1532.34 725.076 1537.76 Q725.076 1543.34 721.604 1546.44 Q718.132 1549.52 711.813 1549.52 Q709.637 1549.52 707.368 1549.15 Q705.123 1548.78 702.715 1548.04 L702.715 1543.34 Q704.799 1544.47 707.021 1545.03 Q709.243 1545.58 711.72 1545.58 Q715.725 1545.58 718.062 1543.48 Q720.4 1541.37 720.4 1537.76 Q720.4 1534.15 718.062 1532.04 Q715.725 1529.94 711.72 1529.94 Q709.845 1529.94 707.97 1530.35 Q706.118 1530.77 704.174 1531.65 L704.174 1514.29 Z" fill="#000000" fill-rule="nonzero" fill-opacity="1" /><path clip-path="url(#clip760)" d="M744.289 1517.37 Q740.678 1517.37 738.849 1520.93 Q737.044 1524.47 737.044 1531.6 Q737.044 1538.71 738.849 1542.27 Q740.678 1545.82 744.289 1545.82 Q747.923 1545.82 749.729 1542.27 Q751.558 1538.71 751.558 1531.6 Q751.558 1524.47 749.729 1520.93 Q747.923 1517.37 744.289 1517.37 M744.289 1513.66 Q750.099 1513.66 753.155 1518.27 Q756.234 1522.85 756.234 1531.6 Q756.234 1540.33 753.155 1544.94 Q750.099 1549.52 744.289 1549.52 Q738.479 1549.52 735.4 1544.94 Q732.345 1540.33 732.345 1531.6 Q732.345 1522.85 735.4 1518.27 Q738.479 1513.66 744.289 1513.66 Z" fill="#000000" fill-rule="nonzero" fill-opacity="1" /><path clip-path="url(#clip760)" d="M1172.11 1514.29 L1190.47 1514.29 L1190.47 1518.22 L1176.39 1518.22 L1176.39 1526.7 Q1177.41 1526.35 1178.43 1526.19 Q1179.45 1526 1180.47 1526 Q1186.25 1526 1189.63 1529.17 Q1193.01 1532.34 1193.01 1537.76 Q1193.01 1543.34 1189.54 1546.44 Q1186.07 1549.52 1179.75 1549.52 Q1177.57 1549.52 1175.31 1549.15 Q1173.06 1548.78 1170.65 1548.04 L1170.65 1543.34 Q1172.74 1544.47 1174.96 1545.03 Q1177.18 1545.58 1179.66 1545.58 Q1183.66 1545.58 1186 1543.48 Q1188.34 1541.37 1188.34 1537.76 Q1188.34 1534.15 1186 1532.04 Q1183.66 1529.94 1179.66 1529.94 Q1177.78 1529.94 1175.91 1530.35 Q1174.06 1530.77 1172.11 1531.65 L1172.11 1514.29 Z" fill="#000000" fill-rule="nonzero" fill-opacity="1" /><path clip-path="url(#clip760)" d="M1212.23 1517.37 Q1208.62 1517.37 1206.79 1520.93 Q1204.98 1524.47 1204.98 1531.6 Q1204.98 1538.71 1206.79 1542.27 Q1208.62 1545.82 1212.23 1545.82 Q1215.86 1545.82 1217.67 1542.27 Q1219.5 1538.71 1219.5 1531.6 Q1219.5 1524.47 1217.67 1520.93 Q1215.86 1517.37 1212.23 1517.37 M1212.23 1513.66 Q1218.04 1513.66 1221.09 1518.27 Q1224.17 1522.85 1224.17 1531.6 Q1224.17 1540.33 1221.09 1544.94 Q1218.04 1549.52 1212.23 1549.52 Q1206.42 1549.52 1203.34 1544.94 Q1200.28 1540.33 1200.28 1531.6 Q1200.28 1522.85 1203.34 1518.27 Q1206.42 1513.66 1212.23 1513.66 Z" fill="#000000" fill-rule="nonzero" fill-opacity="1" /><path clip-path="url(#clip760)" d="M1242.39 1517.37 Q1238.78 1517.37 1236.95 1520.93 Q1235.14 1524.47 1235.14 1531.6 Q1235.14 1538.71 1236.95 1542.27 Q1238.78 1545.82 1242.39 1545.82 Q1246.02 1545.82 1247.83 1542.27 Q1249.66 1538.71 1249.66 1531.6 Q1249.66 1524.47 1247.83 1520.93 Q1246.02 1517.37 1242.39 1517.37 M1242.39 1513.66 Q1248.2 1513.66 1251.25 1518.27 Q1254.33 1522.85 1254.33 1531.6 Q1254.33 1540.33 1251.25 1544.94 Q1248.2 1549.52 1242.39 1549.52 Q1236.58 1549.52 1233.5 1544.94 Q1230.44 1540.33 1230.44 1531.6 Q1230.44 1522.85 1233.5 1518.27 Q1236.58 1513.66 1242.39 1513.66 Z" fill="#000000" fill-rule="nonzero" fill-opacity="1" /><path clip-path="url(#clip760)" d="M1668.96 1514.29 L1691.18 1514.29 L1691.18 1516.28 L1678.64 1548.85 L1673.75 1548.85 L1685.56 1518.22 L1668.96 1518.22 L1668.96 1514.29 Z" fill="#000000" fill-rule="nonzero" fill-opacity="1" /><path clip-path="url(#clip760)" d="M1700.35 1514.29 L1718.71 1514.29 L1718.71 1518.22 L1704.63 1518.22 L1704.63 1526.7 Q1705.65 1526.35 1706.67 1526.19 Q1707.69 1526 1708.71 1526 Q1714.49 1526 1717.87 1529.17 Q1721.25 1532.34 1721.25 1537.76 Q1721.25 1543.34 1717.78 1546.44 Q1714.31 1549.52 1707.99 1549.52 Q1705.81 1549.52 1703.54 1549.15 Q1701.3 1548.78 1698.89 1548.04 L1698.89 1543.34 Q1700.98 1544.47 1703.2 1545.03 Q1705.42 1545.58 1707.9 1545.58 Q1711.9 1545.58 1714.24 1543.48 Q1716.58 1541.37 1716.58 1537.76 Q1716.58 1534.15 1714.24 1532.04 Q1711.9 1529.94 1707.9 1529.94 Q1706.02 1529.94 1704.15 1530.35 Q1702.29 1530.77 1700.35 1531.65 L1700.35 1514.29 Z" fill="#000000" fill-rule="nonzero" fill-opacity="1" /><path clip-path="url(#clip760)" d="M1740.47 1517.37 Q1736.85 1517.37 1735.03 1520.93 Q1733.22 1524.47 1733.22 1531.6 Q1733.22 1538.71 1735.03 1542.27 Q1736.85 1545.82 1740.47 1545.82 Q1744.1 1545.82 1745.91 1542.27 Q1747.73 1538.71 1747.73 1531.6 Q1747.73 1524.47 1745.91 1520.93 Q1744.1 1517.37 1740.47 1517.37 M1740.47 1513.66 Q1746.28 1513.66 1749.33 1518.27 Q1752.41 1522.85 1752.41 1531.6 Q1752.41 1540.33 1749.33 1544.94 Q1746.28 1549.52 1740.47 1549.52 Q1734.66 1549.52 1731.58 1544.94 Q1728.52 1540.33 1728.52 1531.6 Q1728.52 1522.85 1731.58 1518.27 Q1734.66 1513.66 1740.47 1513.66 Z" fill="#000000" fill-rule="nonzero" fill-opacity="1" /><path clip-path="url(#clip760)" d="M2153.4 1544.91 L2161.04 1544.91 L2161.04 1518.55 L2152.73 1520.21 L2152.73 1515.95 L2161 1514.29 L2165.67 1514.29 L2165.67 1544.91 L2173.31 1544.91 L2173.31 1548.85 L2153.4 1548.85 L2153.4 1544.91 Z" fill="#000000" fill-rule="nonzero" fill-opacity="1" /><path clip-path="url(#clip760)" d="M2192.76 1517.37 Q2189.14 1517.37 2187.32 1520.93 Q2185.51 1524.47 2185.51 1531.6 Q2185.51 1538.71 2187.32 1542.27 Q2189.14 1545.82 2192.76 1545.82 Q2196.39 1545.82 2198.2 1542.27 Q2200.02 1538.71 2200.02 1531.6 Q2200.02 1524.47 2198.2 1520.93 Q2196.39 1517.37 2192.76 1517.37 M2192.76 1513.66 Q2198.57 1513.66 2201.62 1518.27 Q2204.7 1522.85 2204.7 1531.6 Q2204.7 1540.33 2201.62 1544.94 Q2198.57 1549.52 2192.76 1549.52 Q2186.95 1549.52 2183.87 1544.94 Q2180.81 1540.33 2180.81 1531.6 Q2180.81 1522.85 2183.87 1518.27 Q2186.95 1513.66 2192.76 1513.66 Z" fill="#000000" fill-rule="nonzero" fill-opacity="1" /><path clip-path="url(#clip760)" d="M2222.92 1517.37 Q2219.31 1517.37 2217.48 1520.93 Q2215.67 1524.47 2215.67 1531.6 Q2215.67 1538.71 2217.48 1542.27 Q2219.31 1545.82 2222.92 1545.82 Q2226.55 1545.82 2228.36 1542.27 Q2230.19 1538.71 2230.19 1531.6 Q2230.19 1524.47 2228.36 1520.93 Q2226.55 1517.37 2222.92 1517.37 M2222.92 1513.66 Q2228.73 1513.66 2231.78 1518.27 Q2234.86 1522.85 2234.86 1531.6 Q2234.86 1540.33 2231.78 1544.94 Q2228.73 1549.52 2222.92 1549.52 Q2217.11 1549.52 2214.03 1544.94 Q2210.97 1540.33 2210.97 1531.6 Q2210.97 1522.85 2214.03 1518.27 Q2217.11 1513.66 2222.92 1513.66 Z" fill="#000000" fill-rule="nonzero" fill-opacity="1" /><path clip-path="url(#clip760)" d="M2253.08 1517.37 Q2249.47 1517.37 2247.64 1520.93 Q2245.83 1524.47 2245.83 1531.6 Q2245.83 1538.71 2247.64 1542.27 Q2249.47 1545.82 2253.08 1545.82 Q2256.71 1545.82 2258.52 1542.27 Q2260.35 1538.71 2260.35 1531.6 Q2260.35 1524.47 2258.52 1520.93 Q2256.71 1517.37 2253.08 1517.37 M2253.08 1513.66 Q2258.89 1513.66 2261.94 1518.27 Q2265.02 1522.85 2265.02 1531.6 Q2265.02 1540.33 2261.94 1544.94 Q2258.89 1549.52 2253.08 1549.52 Q2247.27 1549.52 2244.19 1544.94 Q2241.13 1540.33 2241.13 1531.6 Q2241.13 1522.85 2244.19 1518.27 Q2247.27 1513.66 2253.08 1513.66 Z" fill="#000000" fill-rule="nonzero" fill-opacity="1" /><polyline clip-path="url(#clip760)" style="stroke:#000000; stroke-linecap:round; stroke-linejoin:round; stroke-width:4; stroke-opacity:1; fill:none" points="155.927,1486.45 155.927,47.2441 "/>
<polyline clip-path="url(#clip760)" style="stroke:#000000; stroke-linecap:round; stroke-linejoin:round; stroke-width:4; stroke-opacity:1; fill:none" points="155.927,1445.72 174.825,1445.72 "/>
<polyline clip-path="url(#clip760)" style="stroke:#000000; stroke-linecap:round; stroke-linejoin:round; stroke-width:4; stroke-opacity:1; fill:none" points="155.927,1058.67 174.825,1058.67 "/>
<polyline clip-path="url(#clip760)" style="stroke:#000000; stroke-linecap:round; stroke-linejoin:round; stroke-width:4; stroke-opacity:1; fill:none" points="155.927,671.618 174.825,671.618 "/>
<polyline clip-path="url(#clip760)" style="stroke:#000000; stroke-linecap:round; stroke-linejoin:round; stroke-width:4; stroke-opacity:1; fill:none" points="155.927,284.569 174.825,284.569 "/>
<path clip-path="url(#clip760)" d="M52.7977 1428.44 L71.1541 1428.44 L71.1541 1432.37 L57.0801 1432.37 L57.0801 1440.84 Q58.0986 1440.5 59.1171 1440.33 Q60.1356 1440.15 61.1541 1440.15 Q66.9411 1440.15 70.3207 1443.32 Q73.7003 1446.49 73.7003 1451.91 Q73.7003 1457.49 70.2281 1460.59 Q66.7559 1463.67 60.4365 1463.67 Q58.2606 1463.67 55.9921 1463.3 Q53.7467 1462.93 51.3393 1462.19 L51.3393 1457.49 Q53.4227 1458.62 55.6449 1459.18 Q57.8671 1459.73 60.3439 1459.73 Q64.3485 1459.73 66.6865 1457.63 Q69.0244 1455.52 69.0244 1451.91 Q69.0244 1448.3 66.6865 1446.19 Q64.3485 1444.08 60.3439 1444.08 Q58.4689 1444.08 56.5939 1444.5 Q54.7421 1444.92 52.7977 1445.8 L52.7977 1428.44 Z" fill="#000000" fill-rule="nonzero" fill-opacity="1" /><path clip-path="url(#clip760)" d="M82.9133 1457.12 L87.7975 1457.12 L87.7975 1463 L82.9133 1463 L82.9133 1457.12 Z" fill="#000000" fill-rule="nonzero" fill-opacity="1" /><path clip-path="url(#clip760)" d="M107.983 1431.51 Q104.371 1431.51 102.543 1435.08 Q100.737 1438.62 100.737 1445.75 Q100.737 1452.86 102.543 1456.42 Q104.371 1459.96 107.983 1459.96 Q111.617 1459.96 113.422 1456.42 Q115.251 1452.86 115.251 1445.75 Q115.251 1438.62 113.422 1435.08 Q111.617 1431.51 107.983 1431.51 M107.983 1427.81 Q113.793 1427.81 116.848 1432.42 Q119.927 1437 119.927 1445.75 Q119.927 1454.48 116.848 1459.08 Q113.793 1463.67 107.983 1463.67 Q102.172 1463.67 99.0937 1459.08 Q96.0382 1454.48 96.0382 1445.75 Q96.0382 1437 99.0937 1432.42 Q102.172 1427.81 107.983 1427.81 Z" fill="#000000" fill-rule="nonzero" fill-opacity="1" /><path clip-path="url(#clip760)" d="M53.793 1041.39 L72.1494 1041.39 L72.1494 1045.32 L58.0754 1045.32 L58.0754 1053.79 Q59.0939 1053.45 60.1124 1053.28 Q61.131 1053.1 62.1495 1053.1 Q67.9365 1053.1 71.3161 1056.27 Q74.6957 1059.44 74.6957 1064.86 Q74.6957 1070.44 71.2235 1073.54 Q67.7513 1076.62 61.4319 1076.62 Q59.256 1076.62 56.9875 1076.25 Q54.7421 1075.88 52.3347 1075.14 L52.3347 1070.44 Q54.418 1071.57 56.6402 1072.13 Q58.8625 1072.68 61.3393 1072.68 Q65.3439 1072.68 67.6819 1070.58 Q70.0198 1068.47 70.0198 1064.86 Q70.0198 1061.25 67.6819 1059.14 Q65.3439 1057.03 61.3393 1057.03 Q59.4643 1057.03 57.5893 1057.45 Q55.7375 1057.87 53.793 1058.75 L53.793 1041.39 Z" fill="#000000" fill-rule="nonzero" fill-opacity="1" /><path clip-path="url(#clip760)" d="M83.9086 1070.07 L88.7928 1070.07 L88.7928 1075.95 L83.9086 1075.95 L83.9086 1070.07 Z" fill="#000000" fill-rule="nonzero" fill-opacity="1" /><path clip-path="url(#clip760)" d="M99.0243 1041.39 L117.381 1041.39 L117.381 1045.32 L103.307 1045.32 L103.307 1053.79 Q104.325 1053.45 105.344 1053.28 Q106.362 1053.1 107.381 1053.1 Q113.168 1053.1 116.547 1056.27 Q119.927 1059.44 119.927 1064.86 Q119.927 1070.44 116.455 1073.54 Q112.983 1076.62 106.663 1076.62 Q104.487 1076.62 102.219 1076.25 Q99.9733 1075.88 97.566 1075.14 L97.566 1070.44 Q99.6493 1071.57 101.871 1072.13 Q104.094 1072.68 106.571 1072.68 Q110.575 1072.68 112.913 1070.58 Q115.251 1068.47 115.251 1064.86 Q115.251 1061.25 112.913 1059.14 Q110.575 1057.03 106.571 1057.03 Q104.696 1057.03 102.821 1057.45 Q100.969 1057.87 99.0243 1058.75 L99.0243 1041.39 Z" fill="#000000" fill-rule="nonzero" fill-opacity="1" /><path clip-path="url(#clip760)" d="M63.33 669.754 Q60.1819 669.754 58.33 671.907 Q56.5014 674.06 56.5014 677.81 Q56.5014 681.537 58.33 683.713 Q60.1819 685.865 63.33 685.865 Q66.4782 685.865 68.3068 683.713 Q70.1587 681.537 70.1587 677.81 Q70.1587 674.06 68.3068 671.907 Q66.4782 669.754 63.33 669.754 M72.6124 655.102 L72.6124 659.361 Q70.8531 658.528 69.0476 658.088 Q67.2652 657.648 65.5059 657.648 Q60.8763 657.648 58.4226 660.773 Q55.9921 663.898 55.6449 670.217 Q57.0106 668.204 59.0708 667.139 Q61.131 666.051 63.6078 666.051 Q68.8161 666.051 71.8253 669.222 Q74.8577 672.37 74.8577 677.81 Q74.8577 683.134 71.7096 686.352 Q68.5615 689.569 63.33 689.569 Q57.3347 689.569 54.1634 684.986 Q50.9921 680.379 50.9921 671.653 Q50.9921 663.458 54.881 658.597 Q58.7699 653.713 65.3208 653.713 Q67.08 653.713 68.8624 654.06 Q70.6679 654.407 72.6124 655.102 Z" fill="#000000" fill-rule="nonzero" fill-opacity="1" /><path clip-path="url(#clip760)" d="M82.9133 683.018 L87.7975 683.018 L87.7975 688.898 L82.9133 688.898 L82.9133 683.018 Z" fill="#000000" fill-rule="nonzero" fill-opacity="1" /><path clip-path="url(#clip760)" d="M107.983 657.417 Q104.371 657.417 102.543 660.981 Q100.737 664.523 100.737 671.653 Q100.737 678.759 102.543 682.324 Q104.371 685.865 107.983 685.865 Q111.617 685.865 113.422 682.324 Q115.251 678.759 115.251 671.653 Q115.251 664.523 113.422 660.981 Q111.617 657.417 107.983 657.417 M107.983 653.713 Q113.793 653.713 116.848 658.319 Q119.927 662.903 119.927 671.653 Q119.927 680.379 116.848 684.986 Q113.793 689.569 107.983 689.569 Q102.172 689.569 99.0937 684.986 Q96.0382 680.379 96.0382 671.653 Q96.0382 662.903 99.0937 658.319 Q102.172 653.713 107.983 653.713 Z" fill="#000000" fill-rule="nonzero" fill-opacity="1" /><path clip-path="url(#clip760)" d="M64.3254 282.706 Q61.1773 282.706 59.3254 284.858 Q57.4967 287.011 57.4967 290.761 Q57.4967 294.488 59.3254 296.664 Q61.1773 298.817 64.3254 298.817 Q67.4735 298.817 69.3022 296.664 Q71.1541 294.488 71.1541 290.761 Q71.1541 287.011 69.3022 284.858 Q67.4735 282.706 64.3254 282.706 M73.6077 268.053 L73.6077 272.312 Q71.8485 271.479 70.0429 271.039 Q68.2606 270.599 66.5013 270.599 Q61.8717 270.599 59.418 273.724 Q56.9875 276.849 56.6402 283.169 Q58.006 281.155 60.0662 280.09 Q62.1263 279.002 64.6032 279.002 Q69.8115 279.002 72.8207 282.173 Q75.8531 285.321 75.8531 290.761 Q75.8531 296.085 72.705 299.303 Q69.5568 302.52 64.3254 302.52 Q58.33 302.52 55.1588 297.937 Q51.9875 293.331 51.9875 284.604 Q51.9875 276.409 55.8764 271.548 Q59.7652 266.664 66.3161 266.664 Q68.0754 266.664 69.8578 267.011 Q71.6633 267.358 73.6077 268.053 Z" fill="#000000" fill-rule="nonzero" fill-opacity="1" /><path clip-path="url(#clip760)" d="M83.9086 295.969 L88.7928 295.969 L88.7928 301.849 L83.9086 301.849 L83.9086 295.969 Z" fill="#000000" fill-rule="nonzero" fill-opacity="1" /><path clip-path="url(#clip760)" d="M99.0243 267.289 L117.381 267.289 L117.381 271.224 L103.307 271.224 L103.307 279.696 Q104.325 279.349 105.344 279.187 Q106.362 279.002 107.381 279.002 Q113.168 279.002 116.547 282.173 Q119.927 285.344 119.927 290.761 Q119.927 296.34 116.455 299.442 Q112.983 302.52 106.663 302.52 Q104.487 302.52 102.219 302.15 Q99.9733 301.78 97.566 301.039 L97.566 296.34 Q99.6493 297.474 101.871 298.03 Q104.094 298.585 106.571 298.585 Q110.575 298.585 112.913 296.479 Q115.251 294.372 115.251 290.761 Q115.251 287.15 112.913 285.044 Q110.575 282.937 106.571 282.937 Q104.696 282.937 102.821 283.354 Q100.969 283.77 99.0243 284.65 L99.0243 267.289 Z" fill="#000000" fill-rule="nonzero" fill-opacity="1" /><polyline clip-path="url(#clip761)" style="stroke:#009af9; stroke-linecap:round; stroke-linejoin:round; stroke-width:4; stroke-opacity:1; fill:none" points="218.101,1445.72 220.094,1445.72 222.087,1445.72 224.08,1445.72 226.072,1445.72 228.065,1445.72 230.058,1445.72 232.051,1445.72 234.044,1445.72 236.036,1368.31 238.029,1374.52 240.022,1374.52 242.015,1303.53 244.007,1317.77 246,1340.96 247.993,1340.96 249.986,956.715 251.978,956.715 253.971,956.538 255.964,957.013 257.957,957.013 259.95,881.386 261.942,894.332 263.935,994.281 265.928,994.281 267.921,958.326 269.913,1006.33 271.906,1006.33 273.899,664.219 275.892,664.219 277.884,590.331 279.877,590.331 281.87,453.998 283.863,453.998 285.856,308.84 287.848,370.695 289.841,565.563 291.834,565.563 293.827,410.339 295.819,516.744 297.812,685.138 299.805,823.008 301.798,935.885 303.79,935.885 305.783,841.408 307.776,884.53 309.769,884.53 311.762,753.243 313.754,853.952 315.747,961.221 317.74,1049.04 319.733,1120.95 321.725,1120.95 323.718,1077.6 325.711,1109.02 327.704,1170.05 329.696,1170.05 331.689,947.657 333.682,947.657 335.675,858.267 337.668,871.523 339.66,975.607 341.653,1060.82 343.646,1130.59 345.639,1187.71 347.631,1234.48 349.624,1234.48 351.617,1189.38 353.61,1197.95 355.602,1242.86 357.595,1279.63 359.588,1309.74 361.581,1334.39 363.574,1354.57 365.566,1354.57 367.559,1212.46 369.552,1223.79 371.545,1264.02 373.537,1296.95 375.53,1296.95 377.523,1167.84 379.516,1170.69 381.508,1220.54 383.501,1220.54 385.494,1179.56 387.487,1185.75 389.48,1232.88 391.472,1271.46 393.465,1303.04 395.458,1303.04 397.451,1159.17 399.443,1191.62 401.436,1237.68 403.429,1237.68 405.422,1167.01 407.414,1209.89 409.407,1252.64 411.4,1287.64 413.393,1316.29 415.386,1339.75 417.378,1358.96 419.371,1374.69 421.364,1387.56 423.357,1387.56 425.349,1238.45 427.342,1257.55 429.335,1257.55 431.328,1107.26 433.32,1161.78 435.313,1213.25 437.306,1255.39 439.299,1289.89 441.292,1318.13 443.284,1318.13 445.277,1180.02 447.27,1195.41 449.263,1240.78 451.255,1240.78 453.248,1200.06 455.241,1200.73 457.234,1245.14 459.226,1281.5 461.219,1311.26 463.212,1335.64 465.205,1335.64 467.198,1277.64 469.19,1278.64 471.183,1278.64 473.176,1222.2 475.169,1236.45 477.161,1274.39 479.154,1274.39 481.147,1218.75 483.14,1232.84 485.132,1271.43 487.125,1303.02 489.118,1303.02 491.111,1150.94 493.104,1150.94 495.096,928.877 497.089,998.867 499.082,1079.87 501.075,1079.87 503.067,934.37 505.06,934.37 507.053,877.778 509.046,948.319 511.038,1038.48 513.031,1038.48 515.024,1028.5 517.017,1036.35 519.01,1036.35 521.002,913.69 522.995,972.99 524.988,972.99 526.981,644.955 528.973,644.955 530.966,522.969 532.959,545.56 534.952,708.731 536.944,842.324 538.937,951.7 540.93,951.7 542.923,588.475 544.916,708.305 546.908,841.975 548.901,841.975 550.894,753.197 552.887,809.09 554.879,809.09 556.872,845.392 558.865,847.331 560.858,847.331 562.85,839.378 564.843,839.378 566.836,488.268 568.829,503.01 570.822,673.894 572.814,673.894 574.807,675.333 576.8,675.333 578.793,566.211 580.785,593.131 582.778,593.131 584.771,559.851 586.764,599.85 588.756,753.179 590.749,753.179 592.742,640.089 594.735,743.832 596.728,871.062 598.72,975.229 600.713,975.229 602.706,960.794 604.699,987.342 606.691,1070.43 608.684,1138.46 610.677,1138.46 612.67,1070.88 614.662,1070.88 616.655,893.207 618.648,898.807 620.641,898.807 622.634,691.975 624.626,798.552 626.619,915.863 628.612,1011.91 630.605,1011.91 632.597,847.832 634.59,864.974 636.583,970.245 638.576,1056.43 640.568,1127 642.561,1184.77 644.554,1184.77 646.547,1116.96 648.54,1166.27 650.532,1216.93 652.525,1216.93 654.518,851.098 656.511,909.116 658.503,1006.39 660.496,1006.39 662.489,665.398 664.482,732.018 666.474,732.018 668.467,604.671 670.46,729.559 672.453,729.559 674.446,613.193 676.438,725.429 678.431,725.429 680.424,752.853 682.417,781.821 684.409,781.821 686.402,672.65 688.395,766.05 690.388,889.253 692.38,889.253 694.373,763.106 696.366,856.481 698.359,856.481 700.352,694.934 702.344,694.934 704.337,547.623 706.33,601.753 708.323,601.753 710.315,301.043 712.308,401.736 714.301,590.977 716.294,590.977 718.286,618.076 720.279,673.709 722.272,813.65 724.265,813.65 726.258,769.721 728.25,861.301 730.243,861.301 732.236,779.256 734.229,822.453 736.221,935.431 738.214,935.431 740.207,731.693 742.2,731.693 744.192,397.007 746.185,464.364 748.178,642.253 750.171,787.896 752.164,787.896 754.156,803.257 756.149,833.355 758.142,944.357 760.135,1035.24 762.127,1109.65 764.12,1170.56 766.113,1220.44 768.106,1261.28 770.098,1294.71 772.091,1322.08 774.084,1344.49 776.077,1362.84 778.07,1377.86 780.062,1390.16 782.055,1390.16 784.048,1318.25 786.041,1318.25 788.033,1169.85 790.026,1181.75 792.019,1229.6 794.012,1229.6 796.004,868.439 797.997,908.756 799.99,908.756 801.983,786.764 803.976,871.081 805.968,871.081 807.961,866.64 809.954,902.649 811.947,902.649 813.939,879.33 815.932,930.701 817.925,1024.06 819.918,1024.06 821.91,953.784 823.903,953.784 825.896,751.302 827.889,830.168 829.882,941.748 831.874,1033.1 833.867,1107.9 835.86,1169.13 837.853,1219.27 839.845,1260.32 841.838,1293.92 843.831,1321.44 845.824,1343.97 847.816,1343.97 849.809,1198.55 851.802,1222.75 853.795,1263.17 855.788,1296.26 857.78,1323.35 859.773,1345.53 861.766,1363.69 863.759,1378.56 865.751,1390.73 867.744,1390.73 869.737,1243.02 871.73,1255.14 873.722,1255.14 875.715,1031.39 877.708,1031.39 879.701,805.565 881.694,888.589 883.686,989.579 885.679,989.579 887.672,860.349 889.665,937.973 891.657,1030.01 893.65,1105.37 895.643,1167.06 897.636,1217.57 899.628,1217.57 901.621,1156.14 903.614,1190.78 905.607,1236.99 907.6,1236.99 909.592,875.703 911.585,913.316 913.578,913.316 915.571,682.794 917.563,819.079 919.556,819.079 921.549,776.254 923.542,778.329 925.534,899.306 927.527,998.353 929.52,1079.45 931.513,1145.84 933.506,1145.84 935.498,1027.59 937.491,1027.59 939.484,900.106 941.477,901.381 943.469,901.381 945.462,831.422 947.455,831.422 949.448,778.15 951.44,868.91 953.433,973.467 955.426,1059.07 957.419,1129.16 959.412,1129.16 961.404,1015.85 963.397,1040.66 965.39,1040.66 967.383,909.065 969.375,909.065 971.368,746.761 973.361,747.695 975.354,874.225 977.346,977.819 979.339,1062.63 981.332,1062.63 983.325,968.204 985.318,981.598 987.31,1065.73 989.303,1134.61 991.296,1191 993.289,1191 995.281,1061.53 997.274,1096.41 999.267,1096.41 1001.26,944.226 1003.25,944.226 1005.25,575.768 1007.24,700.422 1009.23,700.422 1011.22,550.731 1013.22,550.731 1015.21,214.181 1017.2,369.722 1019.19,369.722 1021.19,260.829 1023.18,432.36 1025.17,432.36 1027.17,333.28 1029.16,333.28 1031.15,295.198 1033.14,412.392 1035.14,412.392 1037.13,442.251 1039.12,528.983 1041.12,695.158 1043.11,831.211 1045.1,942.602 1047.09,942.602 1049.09,901.366 1051.08,965.513 1053.07,1052.56 1055.06,1123.83 1057.06,1123.83 1059.05,1048.9 1061.04,1048.9 1063.04,668.27 1065.03,793.701 1067.02,793.701 1069.01,671.894 1071.01,778.376 1073,899.344 1074.99,998.384 1076.98,998.384 1078.98,799.028 1080.97,874.258 1082.96,874.258 1084.96,882.291 1086.95,903.326 1088.94,1001.64 1090.93,1001.64 1092.93,644.79 1094.92,742.133 1096.91,869.671 1098.91,869.671 1100.9,776.993 1102.89,832.008 1104.88,832.008 1106.88,839.305 1108.87,869.728 1110.86,869.728 1112.85,654.869 1114.85,654.869 1116.84,684.739 1118.83,702.487 1120.83,702.487 1122.82,401.24 1124.81,401.24 1126.8,256.447 1128.8,334.277 1130.79,535.746 1132.78,700.696 1134.78,835.745 1136.77,946.314 1138.76,946.314 1140.75,614.253 1142.75,614.253 1144.74,292.132 1146.73,294.482 1148.72,294.482 1150.72,156.933 1152.71,156.933 1154.7,209.887 1156.7,302.895 1158.69,302.895 1160.68,286.117 1162.67,365.884 1164.67,365.884 1166.66,353.106 1168.65,415.669 1170.65,602.385 1172.64,602.385 1174.63,294.663 1176.62,405.464 1178.62,594.029 1180.61,748.414 1182.6,874.813 1184.59,978.3 1186.59,978.3 1188.58,891.763 1190.57,914.588 1192.57,914.588 1194.56,888.716 1196.55,940.676 1198.54,1032.22 1200.54,1107.18 1202.53,1107.18 1204.52,895.248 1206.51,966.283 1208.51,966.283 1210.5,781.23 1212.49,842.305 1214.49,951.685 1216.48,1041.24 1218.47,1041.24 1220.46,973.964 1222.46,973.964 1224.45,909.558 1226.44,982.7 1228.44,982.7 1230.43,946.383 1232.42,997.08 1234.41,1078.4 1236.41,1144.99 1238.4,1199.5 1240.39,1244.13 1242.38,1280.67 1244.38,1280.67 1246.37,906.458 1248.36,906.458 1250.36,775.284 1252.35,823.231 1254.34,936.069 1256.33,1028.45 1258.33,1028.45 1260.32,876.847 1262.31,976.35 1264.31,1061.43 1266.3,1061.43 1268.29,829.227 1270.28,940.944 1272.28,1032.44 1274.27,1107.36 1276.26,1168.69 1278.25,1218.91 1280.25,1218.91 1282.24,1012.73 1284.23,1012.73 1286.23,634.946 1288.22,679.375 1290.21,679.375 1292.2,672.789 1294.2,672.789 1296.19,606.738 1298.18,677.584 1300.18,816.823 1302.17,816.823 1304.16,765.81 1306.15,765.81 1308.15,615.378 1310.14,731.499 1312.13,731.499 1314.12,501.73 1316.12,670.174 1318.11,810.756 1320.1,925.855 1322.1,1020.09 1324.09,1020.09 1326.08,876.416 1328.07,876.416 1330.07,835.384 1332.06,835.384 1334.05,503.592 1336.04,515.325 1338.04,683.976 1340.03,822.056 1342.02,822.056 1344.02,682.712 1346.01,805.125 1348,805.125 1349.99,721.854 1351.99,778.551 1353.98,899.488 1355.97,998.502 1357.97,998.502 1359.96,874.137 1361.95,943.55 1363.94,943.55 1365.94,564.245 1367.93,564.245 1369.92,315.016 1371.91,331.224 1373.91,533.247 1375.9,698.649 1377.89,834.07 1379.89,834.07 1381.88,790.487 1383.87,877.854 1385.86,877.854 1387.86,824.782 1389.85,824.782 1391.84,825.179 1393.84,838.873 1395.83,948.875 1397.82,1038.94 1399.81,1112.67 1401.81,1173.04 1403.8,1222.47 1405.79,1222.47 1407.78,1087.79 1409.78,1123.61 1411.77,1123.61 1413.76,757.752 1415.76,842.796 1417.75,952.087 1419.74,952.087 1421.73,807.739 1423.73,810.251 1425.72,925.441 1427.71,925.441 1429.71,880.495 1431.7,880.495 1433.69,727.026 1435.68,816.641 1437.68,930.673 1439.67,930.673 1441.66,893.585 1443.65,955.273 1445.65,955.273 1447.64,908.629 1449.63,976.556 1451.63,1061.6 1453.62,1061.6 1455.61,958.301 1457.6,984.838 1459.6,1068.38 1461.59,1068.38 1463.58,970.521 1465.57,987.488 1467.57,1070.55 1469.56,1138.56 1471.55,1138.56 1473.55,1017.28 1475.54,1017.28 1477.53,958.118 1479.52,958.118 1481.52,894.077 1483.51,901.221 1485.5,999.921 1487.5,1080.73 1489.49,1080.73 1491.48,1003.41 1493.47,1083.5 1495.47,1083.5 1497.46,1006.21 1499.45,1085.76 1501.44,1085.76 1503.44,1067.96 1505.43,1075.05 1507.42,1142.24 1509.42,1197.25 1511.41,1242.29 1513.4,1242.29 1515.39,1177.15 1517.39,1211.72 1519.38,1211.72 1521.37,1098.47 1523.37,1100 1525.36,1162.67 1527.35,1162.67 1529.34,1008.74 1531.34,1086.82 1533.33,1151.87 1535.32,1151.87 1537.31,781.171 1539.31,781.171 1541.3,721.29 1543.29,800.655 1545.29,917.584 1547.28,917.584 1549.27,928.577 1551.26,937.199 1553.26,937.199 1555.25,784.472 1557.24,902.098 1559.24,1000.64 1561.23,1081.32 1563.22,1147.37 1565.21,1147.37 1567.21,1105.31 1569.2,1129.56 1571.19,1186.87 1573.18,1233.79 1575.18,1272.2 1577.17,1303.66 1579.16,1329.41 1581.16,1329.41 1583.15,1266.44 1585.14,1278.13 1587.13,1308.51 1589.13,1333.38 1591.12,1333.38 1593.11,1198.7 1595.1,1199.29 1597.1,1243.96 1599.09,1243.96 1601.08,1105.4 1603.08,1142.67 1605.07,1142.67 1607.06,1031.72 1609.05,1049.4 1611.05,1049.4 1613.04,675.962 1615.03,793.073 1617.03,793.073 1619.02,470.246 1621.01,470.246 1623,87.9763 1625,206.697 1626.99,206.697 1628.98,194.927 1630.97,287.993 1632.97,497.853 1634.96,497.853 1636.95,384.75 1638.95,537.08 1640.94,701.788 1642.93,701.788 1644.92,754.482 1646.92,759.828 1648.91,884.158 1650.9,884.158 1652.9,739.802 1654.89,856.789 1656.88,963.544 1658.87,1050.95 1660.87,1050.95 1662.86,999.96 1664.85,1054.58 1666.84,1125.48 1668.84,1183.53 1670.83,1183.53 1672.82,991.395 1674.82,991.395 1676.81,604.899 1678.8,632.047 1680.79,779.541 1682.79,779.541 1684.78,701.702 1686.77,756.981 1688.77,881.827 1690.76,881.827 1692.75,803.336 1694.74,837.444 1696.74,837.444 1698.73,684.836 1700.72,820.486 1702.71,820.486 1704.71,680.489 1706.7,803.988 1708.69,803.988 1710.69,796.002 1712.68,849.247 1714.67,849.247 1716.66,501.099 1718.66,618.371 1720.65,768.343 1722.64,768.343 1724.63,679.852 1726.63,679.852 1728.62,623.262 1730.61,678.395 1732.61,678.395 1734.6,572.936 1736.59,589.724 1738.58,744.889 1740.58,744.889 1742.57,786.555 1744.56,795.577 1746.56,913.427 1748.55,913.427 1750.54,915.062 1752.53,935.484 1754.53,935.484 1756.52,862.318 1758.51,877.068 1760.5,980.147 1762.5,1064.54 1764.49,1133.64 1766.48,1133.64 1768.48,924.262 1770.47,985.048 1772.46,1068.55 1774.45,1068.55 1776.45,1008 1778.44,1008 1780.43,933.135 1782.43,1003.85 1784.42,1003.85 1786.41,931.574 1788.4,1019.82 1790.4,1019.82 1792.39,951.553 1794.38,951.553 1796.37,604.848 1798.37,604.848 1800.36,464.722 1802.35,536.063 1804.35,700.955 1806.34,700.955 1808.33,643.791 1810.32,690.073 1812.32,827.047 1814.31,827.047 1816.3,506.331 1818.3,584.247 1820.29,584.247 1822.28,484.872 1824.27,604.93 1826.27,757.339 1828.26,882.12 1830.25,984.283 1832.24,1067.93 1834.24,1136.41 1836.23,1192.48 1838.22,1192.48 1840.22,1123.4 1842.21,1172.85 1844.2,1172.85 1846.19,1110.06 1848.19,1155.34 1850.18,1207.98 1852.17,1207.98 1854.17,1068.57 1856.16,1115.53 1858.15,1175.38 1860.14,1175.38 1862.14,1102.14 1864.13,1160.01 1866.12,1211.8 1868.11,1254.2 1870.11,1288.92 1872.1,1317.34 1874.09,1340.61 1876.09,1359.66 1878.08,1375.26 1880.07,1388.03 1882.06,1398.49 1884.06,1407.05 1886.05,1407.05 1888.04,1335.46 1890.03,1339.45 1892.03,1358.72 1894.02,1358.72 1896.01,1207.35 1898.01,1242.49 1900,1242.49 1901.99,1098.88 1903.98,1145.18 1905.98,1145.18 1907.97,1015.8 1909.96,1061.18 1911.96,1130.88 1913.95,1130.88 1915.94,1079.75 1917.93,1118.81 1919.93,1178.06 1921.92,1226.58 1923.91,1266.3 1925.9,1266.3 1927.9,1122.46 1929.89,1163.81 1931.88,1214.91 1933.88,1214.91 1935.87,1092.71 1937.86,1109.13 1939.85,1109.13 1941.85,978.863 1943.84,978.863 1945.83,608.215 1947.83,679.134 1949.82,679.134 1951.81,636.694 1953.8,669.562 1955.8,669.562 1957.79,598.033 1959.78,668.261 1961.77,668.261 1963.77,310 1965.76,310 1967.75,202.809 1969.75,342.725 1971.74,542.663 1973.73,542.663 1975.72,453.189 1977.72,480.525 1979.71,655.485 1981.7,798.729 1983.7,916.008 1985.69,916.008 1987.68,863.69 1989.67,863.69 1991.67,742.958 1993.66,804.162 1995.65,920.456 1997.64,920.456 1999.64,803.856 2001.63,878.967 2003.62,878.967 2005.62,742.016 2007.61,742.016 2009.6,632.895 2011.59,710.848 2013.59,710.848 2015.58,346.704 2017.57,516.973 2019.56,685.325 2021.56,823.161 2023.55,936.011 2025.54,936.011 2027.54,565.133 2029.53,701.133 2031.52,836.103 2033.51,946.607 2035.51,946.607 2037.5,824.874 2039.49,901.325 2041.49,901.325 2043.48,914.978 2045.47,923.897 2047.46,1018.49 2049.46,1095.93 2051.45,1095.93 2053.44,750.137 2055.43,800.073 2057.43,917.108 2059.42,1012.93 2061.41,1012.93 2063.41,863.066 2065.4,963.155 2067.39,963.155 2069.38,890.173 2071.38,897.987 2073.37,997.273 2075.36,1078.56 2077.36,1145.12 2079.35,1199.61 2081.34,1244.22 2083.33,1280.74 2085.33,1280.74 2087.32,904.573 2089.31,971.386 2091.3,971.386 2093.3,631.077 2095.29,705.839 2097.28,839.956 2099.28,839.956 2101.27,788.436 2103.26,788.436 2105.25,676.052 2107.25,742 2109.24,742 2111.23,691.428 2113.23,691.428 2115.22,520.532 2117.21,588.503 2119.2,743.89 2121.2,743.89 2123.19,703.495 2125.18,804.203 2127.17,920.489 2129.17,920.489 2131.16,861.389 2133.15,950.03 2135.15,1039.88 2137.14,1039.88 2139.13,886.589 2141.12,886.589 2143.12,712.049 2145.11,773.405 2147.1,895.275 2149.09,895.275 2151.09,899.333 2153.08,920.665 2155.07,1015.84 2157.07,1093.76 2159.06,1157.56 2161.05,1157.56 2163.04,1033.77 2165.04,1067.74 2167.03,1067.74 2169.02,1013.65 2171.02,1013.65 2173.01,897.369 2175,920.397 2176.99,920.397 2178.99,897.361 2180.98,944.926 2182.97,1035.7 2184.96,1035.7 2186.96,899.539 2188.95,977.229 2190.94,977.229 2192.94,854.975 2194.93,925.926 2196.92,1020.15 2198.91,1020.15 2200.91,706.172 2202.9,714.709 2204.89,847.218 2206.89,955.707 2208.88,1044.53 2210.87,1044.53 2212.86,679.011 2214.86,782.395 2216.85,782.395 2218.84,645.299 2220.83,772.399 2222.83,772.399 2224.82,484.621 2226.81,522.762 2228.81,690.065 2230.8,690.065 2232.79,584.52 2234.78,691.443 2236.78,828.17 2238.77,828.17 2240.76,722.373 2242.76,722.373 2244.75,618.804 2246.74,654.242 2248.73,797.712 2250.73,915.175 2252.72,915.175 2254.71,797.994 2256.7,797.994 2258.7,767.301 2260.69,801.391 2262.68,918.187 2264.68,1013.81 2266.67,1013.81 2268.66,1012.18 2270.65,1015.24 2272.65,1015.24 2274.64,939.663 2276.63,1029.62 2278.62,1029.62 2280.62,1018.55 2282.61,1029.65 2284.6,1105.07 2286.6,1105.07 2288.59,975.429 2290.58,1029.94 "/>
<path clip-path="url(#clip760)" d="M229.155 198.898 L501.268 198.898 L501.268 95.2176 L229.155 95.2176  Z" fill="#ffffff" fill-rule="evenodd" fill-opacity="1"/>
<polyline clip-path="url(#clip760)" style="stroke:#000000; stroke-linecap:round; stroke-linejoin:round; stroke-width:4; stroke-opacity:1; fill:none" points="229.155,198.898 501.268,198.898 501.268,95.2176 229.155,95.2176 229.155,198.898 "/>
<polyline clip-path="url(#clip760)" style="stroke:#009af9; stroke-linecap:round; stroke-linejoin:round; stroke-width:4; stroke-opacity:1; fill:none" points="253.564,147.058 400.019,147.058 "/>
<path clip-path="url(#clip760)" d="M438.271 166.745 Q436.465 171.375 434.752 172.787 Q433.039 174.199 430.169 174.199 L426.766 174.199 L426.766 170.634 L429.266 170.634 Q431.025 170.634 431.998 169.8 Q432.97 168.967 434.15 165.865 L434.914 163.921 L424.428 138.412 L428.942 138.412 L437.044 158.689 L445.146 138.412 L449.66 138.412 L438.271 166.745 Z" fill="#000000" fill-rule="nonzero" fill-opacity="1" /><path clip-path="url(#clip760)" d="M456.951 160.402 L464.59 160.402 L464.59 134.037 L456.28 135.703 L456.28 131.444 L464.544 129.778 L469.22 129.778 L469.22 160.402 L476.859 160.402 L476.859 164.338 L456.951 164.338 L456.951 160.402 Z" fill="#000000" fill-rule="nonzero" fill-opacity="1" /></svg>
