<?xml version="1.0" encoding="utf-8"?>
<svg xmlns="http://www.w3.org/2000/svg" xmlns:xlink="http://www.w3.org/1999/xlink" width="600" height="400" viewBox="0 0 2400 1600">
<defs>
  <clipPath id="clip250">
    <rect x="0" y="0" width="2400" height="1600"/>
  </clipPath>
</defs>
<path clip-path="url(#clip250)" d="M0 1600 L2400 1600 L2400 0 L0 0  Z" fill="#ffffff" fill-rule="evenodd" fill-opacity="1"/>
<defs>
  <clipPath id="clip251">
    <rect x="480" y="0" width="1681" height="1600"/>
  </clipPath>
</defs>
<path clip-path="url(#clip250)" d="M140.696 1423.18 L2352.76 1423.18 L2352.76 47.2441 L140.696 47.2441  Z" fill="#ffffff" fill-rule="evenodd" fill-opacity="1"/>
<defs>
  <clipPath id="clip252">
    <rect x="140" y="47" width="2213" height="1377"/>
  </clipPath>
</defs>
<polyline clip-path="url(#clip252)" style="stroke:#000000; stroke-linecap:round; stroke-linejoin:round; stroke-width:2; stroke-opacity:0.1; fill:none" points="140.696,1423.18 140.696,47.2441 "/>
<polyline clip-path="url(#clip252)" style="stroke:#000000; stroke-linecap:round; stroke-linejoin:round; stroke-width:2; stroke-opacity:0.1; fill:none" points="583.108,1423.18 583.108,47.2441 "/>
<polyline clip-path="url(#clip252)" style="stroke:#000000; stroke-linecap:round; stroke-linejoin:round; stroke-width:2; stroke-opacity:0.1; fill:none" points="1025.52,1423.18 1025.52,47.2441 "/>
<polyline clip-path="url(#clip252)" style="stroke:#000000; stroke-linecap:round; stroke-linejoin:round; stroke-width:2; stroke-opacity:0.1; fill:none" points="1467.93,1423.18 1467.93,47.2441 "/>
<polyline clip-path="url(#clip252)" style="stroke:#000000; stroke-linecap:round; stroke-linejoin:round; stroke-width:2; stroke-opacity:0.1; fill:none" points="1910.34,1423.18 1910.34,47.2441 "/>
<polyline clip-path="url(#clip252)" style="stroke:#000000; stroke-linecap:round; stroke-linejoin:round; stroke-width:2; stroke-opacity:0.1; fill:none" points="2352.76,1423.18 2352.76,47.2441 "/>
<polyline clip-path="url(#clip252)" style="stroke:#000000; stroke-linecap:round; stroke-linejoin:round; stroke-width:2; stroke-opacity:0.1; fill:none" points="140.696,1384.24 2352.76,1384.24 "/>
<polyline clip-path="url(#clip252)" style="stroke:#000000; stroke-linecap:round; stroke-linejoin:round; stroke-width:2; stroke-opacity:0.1; fill:none" points="140.696,1075.18 2352.76,1075.18 "/>
<polyline clip-path="url(#clip252)" style="stroke:#000000; stroke-linecap:round; stroke-linejoin:round; stroke-width:2; stroke-opacity:0.1; fill:none" points="140.696,766.118 2352.76,766.118 "/>
<polyline clip-path="url(#clip252)" style="stroke:#000000; stroke-linecap:round; stroke-linejoin:round; stroke-width:2; stroke-opacity:0.1; fill:none" points="140.696,457.058 2352.76,457.058 "/>
<polyline clip-path="url(#clip252)" style="stroke:#000000; stroke-linecap:round; stroke-linejoin:round; stroke-width:2; stroke-opacity:0.1; fill:none" points="140.696,147.998 2352.76,147.998 "/>
<polyline clip-path="url(#clip250)" style="stroke:#000000; stroke-linecap:round; stroke-linejoin:round; stroke-width:4; stroke-opacity:1; fill:none" points="140.696,1423.18 2352.76,1423.18 "/>
<polyline clip-path="url(#clip250)" style="stroke:#000000; stroke-linecap:round; stroke-linejoin:round; stroke-width:4; stroke-opacity:1; fill:none" points="140.696,1423.18 140.696,1404.28 "/>
<polyline clip-path="url(#clip250)" style="stroke:#000000; stroke-linecap:round; stroke-linejoin:round; stroke-width:4; stroke-opacity:1; fill:none" points="583.108,1423.18 583.108,1404.28 "/>
<polyline clip-path="url(#clip250)" style="stroke:#000000; stroke-linecap:round; stroke-linejoin:round; stroke-width:4; stroke-opacity:1; fill:none" points="1025.52,1423.18 1025.52,1404.28 "/>
<polyline clip-path="url(#clip250)" style="stroke:#000000; stroke-linecap:round; stroke-linejoin:round; stroke-width:4; stroke-opacity:1; fill:none" points="1467.93,1423.18 1467.93,1404.28 "/>
<polyline clip-path="url(#clip250)" style="stroke:#000000; stroke-linecap:round; stroke-linejoin:round; stroke-width:4; stroke-opacity:1; fill:none" points="1910.34,1423.18 1910.34,1404.28 "/>
<polyline clip-path="url(#clip250)" style="stroke:#000000; stroke-linecap:round; stroke-linejoin:round; stroke-width:4; stroke-opacity:1; fill:none" points="2352.76,1423.18 2352.76,1404.28 "/>
<path clip-path="url(#clip250)" d="M140.696 1454.1 Q137.084 1454.1 135.256 1457.66 Q133.45 1461.2 133.45 1468.33 Q133.45 1475.44 135.256 1479.01 Q137.084 1482.55 140.696 1482.55 Q144.33 1482.55 146.135 1479.01 Q147.964 1475.44 147.964 1468.33 Q147.964 1461.2 146.135 1457.66 Q144.33 1454.1 140.696 1454.1 M140.696 1450.39 Q146.506 1450.39 149.561 1455 Q152.64 1459.58 152.64 1468.33 Q152.64 1477.06 149.561 1481.67 Q146.506 1486.25 140.696 1486.25 Q134.885 1486.25 131.807 1481.67 Q128.751 1477.06 128.751 1468.33 Q128.751 1459.58 131.807 1455 Q134.885 1450.39 140.696 1450.39 Z" fill="#000000" fill-rule="nonzero" fill-opacity="1" /><path clip-path="url(#clip250)" d="M577.76 1481.64 L594.08 1481.64 L594.08 1485.58 L572.135 1485.58 L572.135 1481.64 Q574.797 1478.89 579.381 1474.26 Q583.987 1469.61 585.168 1468.27 Q587.413 1465.74 588.293 1464.01 Q589.196 1462.25 589.196 1460.56 Q589.196 1457.8 587.251 1456.07 Q585.33 1454.33 582.228 1454.33 Q580.029 1454.33 577.575 1455.09 Q575.145 1455.86 572.367 1457.41 L572.367 1452.69 Q575.191 1451.55 577.645 1450.97 Q580.098 1450.39 582.135 1450.39 Q587.506 1450.39 590.7 1453.08 Q593.895 1455.77 593.895 1460.26 Q593.895 1462.39 593.084 1464.31 Q592.297 1466.2 590.191 1468.8 Q589.612 1469.47 586.51 1472.69 Q583.409 1475.88 577.76 1481.64 Z" fill="#000000" fill-rule="nonzero" fill-opacity="1" /><path clip-path="url(#clip250)" d="M1028.53 1455.09 L1016.72 1473.54 L1028.53 1473.54 L1028.53 1455.09 M1027.3 1451.02 L1033.18 1451.02 L1033.18 1473.54 L1038.11 1473.54 L1038.11 1477.43 L1033.18 1477.43 L1033.18 1485.58 L1028.53 1485.58 L1028.53 1477.43 L1012.93 1477.43 L1012.93 1472.92 L1027.3 1451.02 Z" fill="#000000" fill-rule="nonzero" fill-opacity="1" /><path clip-path="url(#clip250)" d="M1468.34 1466.44 Q1465.19 1466.44 1463.34 1468.59 Q1461.51 1470.74 1461.51 1474.49 Q1461.51 1478.22 1463.34 1480.39 Q1465.19 1482.55 1468.34 1482.55 Q1471.48 1482.55 1473.31 1480.39 Q1475.17 1478.22 1475.17 1474.49 Q1475.17 1470.74 1473.31 1468.59 Q1471.48 1466.44 1468.34 1466.44 M1477.62 1451.78 L1477.62 1456.04 Q1475.86 1455.21 1474.05 1454.77 Q1472.27 1454.33 1470.51 1454.33 Q1465.88 1454.33 1463.43 1457.45 Q1461 1460.58 1460.65 1466.9 Q1462.02 1464.89 1464.08 1463.82 Q1466.14 1462.73 1468.61 1462.73 Q1473.82 1462.73 1476.83 1465.9 Q1479.86 1469.05 1479.86 1474.49 Q1479.86 1479.82 1476.72 1483.03 Q1473.57 1486.25 1468.34 1486.25 Q1462.34 1486.25 1459.17 1481.67 Q1456 1477.06 1456 1468.33 Q1456 1460.14 1459.89 1455.28 Q1463.78 1450.39 1470.33 1450.39 Q1472.09 1450.39 1473.87 1450.74 Q1475.67 1451.09 1477.62 1451.78 Z" fill="#000000" fill-rule="nonzero" fill-opacity="1" /><path clip-path="url(#clip250)" d="M1910.34 1469.17 Q1907.01 1469.17 1905.09 1470.95 Q1903.19 1472.73 1903.19 1475.86 Q1903.19 1478.98 1905.09 1480.77 Q1907.01 1482.55 1910.34 1482.55 Q1913.68 1482.55 1915.6 1480.77 Q1917.52 1478.96 1917.52 1475.86 Q1917.52 1472.73 1915.6 1470.95 Q1913.7 1469.17 1910.34 1469.17 M1905.67 1467.18 Q1902.66 1466.44 1900.97 1464.38 Q1899.3 1462.32 1899.3 1459.35 Q1899.3 1455.21 1902.24 1452.8 Q1905.2 1450.39 1910.34 1450.39 Q1915.51 1450.39 1918.45 1452.8 Q1921.39 1455.21 1921.39 1459.35 Q1921.39 1462.32 1919.7 1464.38 Q1918.03 1466.44 1915.04 1467.18 Q1918.42 1467.96 1920.3 1470.26 Q1922.2 1472.55 1922.2 1475.86 Q1922.2 1480.88 1919.12 1483.57 Q1916.06 1486.25 1910.34 1486.25 Q1904.63 1486.25 1901.55 1483.57 Q1898.49 1480.88 1898.49 1475.86 Q1898.49 1472.55 1900.39 1470.26 Q1902.29 1467.96 1905.67 1467.18 M1903.95 1459.79 Q1903.95 1462.48 1905.62 1463.98 Q1907.31 1465.49 1910.34 1465.49 Q1913.35 1465.49 1915.04 1463.98 Q1916.76 1462.48 1916.76 1459.79 Q1916.76 1457.11 1915.04 1455.6 Q1913.35 1454.1 1910.34 1454.1 Q1907.31 1454.1 1905.62 1455.6 Q1903.95 1457.11 1903.95 1459.79 Z" fill="#000000" fill-rule="nonzero" fill-opacity="1" /><path clip-path="url(#clip250)" d="M2327.44 1481.64 L2335.08 1481.64 L2335.08 1455.28 L2326.77 1456.95 L2326.77 1452.69 L2335.04 1451.02 L2339.71 1451.02 L2339.71 1481.64 L2347.35 1481.64 L2347.35 1485.58 L2327.44 1485.58 L2327.44 1481.64 Z" fill="#000000" fill-rule="nonzero" fill-opacity="1" /><path clip-path="url(#clip250)" d="M2366.8 1454.1 Q2363.18 1454.1 2361.36 1457.66 Q2359.55 1461.2 2359.55 1468.33 Q2359.55 1475.44 2361.36 1479.01 Q2363.18 1482.55 2366.8 1482.55 Q2370.43 1482.55 2372.23 1479.01 Q2374.06 1475.44 2374.06 1468.33 Q2374.06 1461.2 2372.23 1457.66 Q2370.43 1454.1 2366.8 1454.1 M2366.8 1450.39 Q2372.61 1450.39 2375.66 1455 Q2378.74 1459.58 2378.74 1468.33 Q2378.74 1477.06 2375.66 1481.67 Q2372.61 1486.25 2366.8 1486.25 Q2360.99 1486.25 2357.91 1481.67 Q2354.85 1477.06 2354.85 1468.33 Q2354.85 1459.58 2357.91 1455 Q2360.99 1450.39 2366.8 1450.39 Z" fill="#000000" fill-rule="nonzero" fill-opacity="1" /><path clip-path="url(#clip250)" d="M1245.79 1522.27 L1245.79 1532.4 L1257.85 1532.4 L1257.85 1536.95 L1245.79 1536.95 L1245.79 1556.3 Q1245.79 1560.66 1246.96 1561.9 Q1248.17 1563.14 1251.83 1563.14 L1257.85 1563.14 L1257.85 1568.04 L1251.83 1568.04 Q1245.05 1568.04 1242.48 1565.53 Q1239.9 1562.98 1239.9 1556.3 L1239.9 1536.95 L1235.6 1536.95 L1235.6 1532.4 L1239.9 1532.4 L1239.9 1522.27 L1245.79 1522.27 Z" fill="#000000" fill-rule="nonzero" fill-opacity="1" /><polyline clip-path="url(#clip250)" style="stroke:#000000; stroke-linecap:round; stroke-linejoin:round; stroke-width:4; stroke-opacity:1; fill:none" points="140.696,1423.18 140.696,47.2441 "/>
<polyline clip-path="url(#clip250)" style="stroke:#000000; stroke-linecap:round; stroke-linejoin:round; stroke-width:4; stroke-opacity:1; fill:none" points="140.696,1384.24 159.593,1384.24 "/>
<polyline clip-path="url(#clip250)" style="stroke:#000000; stroke-linecap:round; stroke-linejoin:round; stroke-width:4; stroke-opacity:1; fill:none" points="140.696,1075.18 159.593,1075.18 "/>
<polyline clip-path="url(#clip250)" style="stroke:#000000; stroke-linecap:round; stroke-linejoin:round; stroke-width:4; stroke-opacity:1; fill:none" points="140.696,766.118 159.593,766.118 "/>
<polyline clip-path="url(#clip250)" style="stroke:#000000; stroke-linecap:round; stroke-linejoin:round; stroke-width:4; stroke-opacity:1; fill:none" points="140.696,457.058 159.593,457.058 "/>
<polyline clip-path="url(#clip250)" style="stroke:#000000; stroke-linecap:round; stroke-linejoin:round; stroke-width:4; stroke-opacity:1; fill:none" points="140.696,147.998 159.593,147.998 "/>
<path clip-path="url(#clip250)" d="M92.7512 1370.04 Q89.1401 1370.04 87.3114 1373.6 Q85.5058 1377.14 85.5058 1384.27 Q85.5058 1391.38 87.3114 1394.94 Q89.1401 1398.49 92.7512 1398.49 Q96.3854 1398.49 98.1909 1394.94 Q100.02 1391.38 100.02 1384.27 Q100.02 1377.14 98.1909 1373.6 Q96.3854 1370.04 92.7512 1370.04 M92.7512 1366.33 Q98.5613 1366.33 101.617 1370.94 Q104.696 1375.52 104.696 1384.27 Q104.696 1393 101.617 1397.61 Q98.5613 1402.19 92.7512 1402.19 Q86.941 1402.19 83.8623 1397.61 Q80.8068 1393 80.8068 1384.27 Q80.8068 1375.52 83.8623 1370.94 Q86.941 1366.33 92.7512 1366.33 Z" fill="#000000" fill-rule="nonzero" fill-opacity="1" /><path clip-path="url(#clip250)" d="M83.7929 1057.9 L102.149 1057.9 L102.149 1061.83 L88.0753 1061.83 L88.0753 1070.31 Q89.0938 1069.96 90.1123 1069.8 Q91.1308 1069.61 92.1493 1069.61 Q97.9363 1069.61 101.316 1072.78 Q104.696 1075.95 104.696 1081.37 Q104.696 1086.95 101.223 1090.05 Q97.7511 1093.13 91.4317 1093.13 Q89.2558 1093.13 86.9873 1092.76 Q84.7419 1092.39 82.3346 1091.65 L82.3346 1086.95 Q84.4179 1088.08 86.6401 1088.64 Q88.8623 1089.19 91.3391 1089.19 Q95.3437 1089.19 97.6817 1087.09 Q100.02 1084.98 100.02 1081.37 Q100.02 1077.76 97.6817 1075.65 Q95.3437 1073.55 91.3391 1073.55 Q89.4641 1073.55 87.5892 1073.96 Q85.7373 1074.38 83.7929 1075.26 L83.7929 1057.9 Z" fill="#000000" fill-rule="nonzero" fill-opacity="1" /><path clip-path="url(#clip250)" d="M53.3995 779.463 L61.0384 779.463 L61.0384 753.097 L52.7282 754.764 L52.7282 750.505 L60.9921 748.838 L65.668 748.838 L65.668 779.463 L73.3068 779.463 L73.3068 783.398 L53.3995 783.398 L53.3995 779.463 Z" fill="#000000" fill-rule="nonzero" fill-opacity="1" /><path clip-path="url(#clip250)" d="M92.7512 751.917 Q89.1401 751.917 87.3114 755.481 Q85.5058 759.023 85.5058 766.153 Q85.5058 773.259 87.3114 776.824 Q89.1401 780.366 92.7512 780.366 Q96.3854 780.366 98.1909 776.824 Q100.02 773.259 100.02 766.153 Q100.02 759.023 98.1909 755.481 Q96.3854 751.917 92.7512 751.917 M92.7512 748.213 Q98.5613 748.213 101.617 752.819 Q104.696 757.403 104.696 766.153 Q104.696 774.88 101.617 779.486 Q98.5613 784.069 92.7512 784.069 Q86.941 784.069 83.8623 779.486 Q80.8068 774.88 80.8068 766.153 Q80.8068 757.403 83.8623 752.819 Q86.941 748.213 92.7512 748.213 Z" fill="#000000" fill-rule="nonzero" fill-opacity="1" /><path clip-path="url(#clip250)" d="M54.3949 470.403 L62.0337 470.403 L62.0337 444.037 L53.7236 445.704 L53.7236 441.444 L61.9874 439.778 L66.6633 439.778 L66.6633 470.403 L74.3022 470.403 L74.3022 474.338 L54.3949 474.338 L54.3949 470.403 Z" fill="#000000" fill-rule="nonzero" fill-opacity="1" /><path clip-path="url(#clip250)" d="M83.7929 439.778 L102.149 439.778 L102.149 443.713 L88.0753 443.713 L88.0753 452.185 Q89.0938 451.838 90.1123 451.676 Q91.1308 451.491 92.1493 451.491 Q97.9363 451.491 101.316 454.662 Q104.696 457.833 104.696 463.25 Q104.696 468.829 101.223 471.93 Q97.7511 475.009 91.4317 475.009 Q89.2558 475.009 86.9873 474.639 Q84.7419 474.268 82.3346 473.528 L82.3346 468.829 Q84.4179 469.963 86.6401 470.518 Q88.8623 471.074 91.3391 471.074 Q95.3437 471.074 97.6817 468.967 Q100.02 466.861 100.02 463.25 Q100.02 459.639 97.6817 457.532 Q95.3437 455.426 91.3391 455.426 Q89.4641 455.426 87.5892 455.843 Q85.7373 456.259 83.7929 457.139 L83.7929 439.778 Z" fill="#000000" fill-rule="nonzero" fill-opacity="1" /><path clip-path="url(#clip250)" d="M56.6171 161.343 L72.9365 161.343 L72.9365 165.278 L50.9921 165.278 L50.9921 161.343 Q53.6541 158.588 58.2375 153.958 Q62.8439 149.306 64.0245 147.963 Q66.2698 145.44 67.1494 143.704 Q68.0522 141.944 68.0522 140.255 Q68.0522 137.5 66.1078 135.764 Q64.1865 134.028 61.0847 134.028 Q58.8856 134.028 56.4319 134.792 Q54.0014 135.556 51.2236 137.107 L51.2236 132.384 Q54.0477 131.25 56.5014 130.671 Q58.955 130.093 60.9921 130.093 Q66.3624 130.093 69.5568 132.778 Q72.7513 135.463 72.7513 139.954 Q72.7513 142.083 71.9411 144.005 Q71.1541 145.903 69.0476 148.495 Q68.4689 149.167 65.367 152.384 Q62.2652 155.579 56.6171 161.343 Z" fill="#000000" fill-rule="nonzero" fill-opacity="1" /><path clip-path="url(#clip250)" d="M92.7512 133.796 Q89.1401 133.796 87.3114 137.361 Q85.5058 140.903 85.5058 148.032 Q85.5058 155.139 87.3114 158.704 Q89.1401 162.245 92.7512 162.245 Q96.3854 162.245 98.1909 158.704 Q100.02 155.139 100.02 148.032 Q100.02 140.903 98.1909 137.361 Q96.3854 133.796 92.7512 133.796 M92.7512 130.093 Q98.5613 130.093 101.617 134.699 Q104.696 139.282 104.696 148.032 Q104.696 156.759 101.617 161.366 Q98.5613 165.949 92.7512 165.949 Q86.941 165.949 83.8623 161.366 Q80.8068 156.759 80.8068 148.032 Q80.8068 139.282 83.8623 134.699 Q86.941 130.093 92.7512 130.093 Z" fill="#000000" fill-rule="nonzero" fill-opacity="1" /><polyline clip-path="url(#clip252)" style="stroke:#009af9; stroke-linecap:round; stroke-linejoin:round; stroke-width:8; stroke-opacity:1; fill:none" points="140.696,1384.24 141.658,1384.24 142.62,1384.24 143.582,1384.24 144.544,1384.24 145.506,1384.24 146.469,1384.24 147.431,1384.24 148.393,1384.24 149.355,1384.24 150.317,1384.24 151.28,1384.24 152.242,1384.24 153.204,1384.24 154.166,1384.24 155.128,1384.24 156.09,1384.24 157.053,1384.24 158.015,1384.24 158.977,1384.24 159.939,1384.24 160.901,1384.24 161.864,1384.24 162.826,1384.24 163.788,1384.24 164.75,1384.24 165.712,1384.24 166.675,1384.24 167.637,1384.24 168.599,1384.24 169.561,1384.24 170.523,1384.24 171.485,1384.24 172.448,1384.24 173.41,1384.24 174.372,1384.24 175.334,1384.24 176.296,1384.24 177.259,1384.24 178.221,1384.24 179.183,1384.24 180.145,1384.24 181.107,1384.24 182.069,1384.24 183.032,1384.24 183.994,1384.24 184.956,1384.24 185.918,1384.24 186.88,1384.24 187.843,1384.24 188.805,1384.24 189.767,1384.24 190.729,1384.24 191.691,1384.24 192.653,1384.24 193.616,1384.24 194.578,1384.24 195.54,1384.24 196.502,1384.24 197.464,1384.24 198.427,1384.24 199.389,1384.24 200.351,1384.24 201.313,1384.24 202.275,1384.24 203.237,1384.24 204.2,1384.24 205.162,1384.24 206.124,1384.24 207.086,1384.24 208.048,1384.24 209.011,1384.24 209.973,1384.24 210.935,1322.43 211.897,1322.43 212.859,1322.43 213.822,1322.43 214.784,1322.43 215.746,1322.43 216.708,1322.43 217.67,1322.43 218.632,1322.43 219.595,1322.43 220.557,1322.43 221.519,1322.43 222.481,1322.43 223.443,1322.43 224.406,1322.43 225.368,1322.43 226.33,1322.43 227.292,1322.43 228.254,1322.43 229.216,1322.43 230.179,1322.43 231.141,1322.43 232.103,1322.43 233.065,1322.43 234.027,1322.43 234.99,1322.43 235.952,1322.43 236.914,1322.43 237.876,1322.43 238.838,1322.43 239.8,1322.43 240.763,1322.43 241.725,1322.43 242.687,1322.43 243.649,1322.43 244.611,1322.43 245.574,1322.43 246.536,1322.43 247.498,1322.43 248.46,1322.43 249.422,1322.43 250.384,1322.43 251.347,1322.43 252.309,1322.43 253.271,1322.43 254.233,1322.43 255.195,1322.43 256.158,1322.43 257.12,1322.43 258.082,1322.43 259.044,1322.43 260.006,1322.43 260.969,1322.43 261.931,1322.43 262.893,1322.43 263.855,1322.43 264.817,1322.43 265.779,1322.43 266.742,1322.43 267.704,1322.43 268.666,1322.43 269.628,1322.43 270.59,1322.43 271.553,1322.43 272.515,1322.43 273.477,1322.43 274.439,1322.43 275.401,1322.43 276.363,1322.43 277.326,1322.43 278.288,1322.43 279.25,1260.61 280.212,1260.61 281.174,1260.61 282.137,1260.61 283.099,1260.61 284.061,1260.61 285.023,1260.61 285.985,1260.61 286.947,1260.61 287.91,1260.61 288.872,1260.61 289.834,1260.61 290.796,1260.61 291.758,1260.61 292.721,1260.61 293.683,1260.61 294.645,1260.61 295.607,1260.61 296.569,1260.61 297.531,1260.61 298.494,1260.61 299.456,1260.61 300.418,1260.61 301.38,1260.61 302.342,1260.61 303.305,1260.61 304.267,1260.61 305.229,1260.61 306.191,1260.61 307.153,1260.61 308.116,1260.61 309.078,1260.61 310.04,1260.61 311.002,1260.61 311.964,1260.61 312.926,1260.61 313.889,1260.61 314.851,1260.61 315.813,1260.61 316.775,1260.61 317.737,1260.61 318.7,1260.61 319.662,1260.61 320.624,1260.61 321.586,1260.61 322.548,1260.61 323.51,1260.61 324.473,1260.61 325.435,1260.61 326.397,1260.61 327.359,1260.61 328.321,1260.61 329.284,1260.61 330.246,1260.61 331.208,1260.61 332.17,1260.61 333.132,1260.61 334.094,1260.61 335.057,1260.61 336.019,1260.61 336.981,1260.61 337.943,1260.61 338.905,1260.61 339.868,1260.61 340.83,1260.61 341.792,1260.61 342.754,1260.61 343.716,1260.61 344.678,1260.61 345.641,1260.61 346.603,1260.61 347.565,1260.61 348.527,1260.61 349.489,1260.61 350.452,1260.61 351.414,1260.61 352.376,1260.61 353.338,1260.61 354.3,1260.61 355.263,1260.61 356.225,1260.61 357.187,1260.61 358.149,1260.61 359.111,1260.61 360.073,1260.61 361.036,1260.61 361.998,1260.61 362.96,1260.61 363.922,1260.61 364.884,1260.61 365.847,1260.61 366.809,1260.61 367.771,1260.61 368.733,1260.61 369.695,1260.61 370.657,1260.61 371.62,1260.61 372.582,1260.61 373.544,1260.61 374.506,1260.61 375.468,1260.61 376.431,1260.61 377.393,1260.61 378.355,1260.61 379.317,1260.61 380.279,1260.61 381.241,1260.61 382.204,1260.61 383.166,1260.61 384.128,1260.61 385.09,1260.61 386.052,1260.61 387.015,1260.61 387.977,1260.61 388.939,1260.61 389.901,1260.61 390.863,1260.61 391.825,1260.61 392.788,1260.61 393.75,1260.61 394.712,1260.61 395.674,1260.61 396.636,1260.61 397.599,1260.61 398.561,1260.61 399.523,1260.61 400.485,1260.61 401.447,1260.61 402.41,1260.61 403.372,1260.61 404.334,1260.61 405.296,1260.61 406.258,1260.61 407.22,1260.61 408.183,1260.61 409.145,1260.61 410.107,1260.61 411.069,1260.61 412.031,1260.61 412.994,1260.61 413.956,1260.61 414.918,1260.61 415.88,1260.61 416.842,1260.61 417.804,1260.61 418.767,1260.61 419.729,1260.61 420.691,1260.61 421.653,1260.61 422.615,1260.61 423.578,1260.61 424.54,1260.61 425.502,1260.61 426.464,1260.61 427.426,1260.61 428.388,1260.61 429.351,1260.61 430.313,1260.61 431.275,1260.61 432.237,1260.61 433.199,1260.61 434.162,1260.61 435.124,1260.61 436.086,1260.61 437.048,1260.61 438.01,1260.61 438.972,1260.61 439.935,1260.61 440.897,1260.61 441.859,1260.61 442.821,1260.61 443.783,1260.61 444.746,1198.8 445.708,1198.8 446.67,1198.8 447.632,1198.8 448.594,1198.8 449.557,1198.8 450.519,1198.8 451.481,1198.8 452.443,1198.8 453.405,1198.8 454.367,1198.8 455.33,1198.8 456.292,1198.8 457.254,1198.8 458.216,1198.8 459.178,1198.8 460.141,1198.8 461.103,1198.8 462.065,1198.8 463.027,1198.8 463.989,1198.8 464.951,1198.8 465.914,1198.8 466.876,1198.8 467.838,1198.8 468.8,1198.8 469.762,1198.8 470.725,1198.8 471.687,1198.8 472.649,1198.8 473.611,1198.8 474.573,1198.8 475.535,1198.8 476.498,1198.8 477.46,1198.8 478.422,1198.8 479.384,1198.8 480.346,1198.8 481.309,1198.8 482.271,1198.8 483.233,1198.8 484.195,1198.8 485.157,1198.8 486.119,1198.8 487.082,1198.8 488.044,1198.8 489.006,1198.8 489.968,1198.8 490.93,1198.8 491.893,1198.8 492.855,1198.8 493.817,1198.8 494.779,1198.8 495.741,1198.8 496.704,1198.8 497.666,1198.8 498.628,1198.8 499.59,1198.8 500.552,1198.8 501.514,1198.8 502.477,1198.8 503.439,1198.8 504.401,1198.8 505.363,1198.8 506.325,1198.8 507.288,1198.8 508.25,1198.8 509.212,1198.8 510.174,1198.8 511.136,1198.8 512.098,1198.8 513.061,1198.8 514.023,1198.8 514.985,1198.8 515.947,1198.8 516.909,1198.8 517.872,1198.8 518.834,1198.8 519.796,1198.8 520.758,1198.8 521.72,1198.8 522.682,1198.8 523.645,1198.8 524.607,1198.8 525.569,1198.8 526.531,1198.8 527.493,1198.8 528.456,1198.8 529.418,1198.8 530.38,1198.8 531.342,1198.8 532.304,1198.8 533.266,1198.8 534.229,1198.8 535.191,1198.8 536.153,1198.8 537.115,1198.8 538.077,1198.8 539.04,1198.8 540.002,1198.8 540.964,1198.8 541.926,1198.8 542.888,1198.8 543.851,1198.8 544.813,1198.8 545.775,1198.8 546.737,1198.8 547.699,1198.8 548.661,1198.8 549.624,1198.8 550.586,1198.8 551.548,1198.8 552.51,1198.8 553.472,1198.8 554.435,1198.8 555.397,1198.8 556.359,1198.8 557.321,1198.8 558.283,1198.8 559.245,1198.8 560.208,1198.8 561.17,1198.8 562.132,1198.8 563.094,1198.8 564.056,1198.8 565.019,1198.8 565.981,1198.8 566.943,1198.8 567.905,1198.8 568.867,1198.8 569.829,1198.8 570.792,1198.8 571.754,1198.8 572.716,1198.8 573.678,1198.8 574.64,1198.8 575.603,1198.8 576.565,1198.8 577.527,1198.8 578.489,1198.8 579.451,1198.8 580.414,1198.8 581.376,1198.8 582.338,1198.8 583.3,1198.8 584.262,1198.8 585.224,1198.8 586.187,1198.8 587.149,1198.8 588.111,1198.8 589.073,1198.8 590.035,1198.8 590.998,1198.8 591.96,1198.8 592.922,1198.8 593.884,1198.8 594.846,1198.8 595.808,1198.8 596.771,1198.8 597.733,1198.8 598.695,1198.8 599.657,1198.8 600.619,1198.8 601.582,1198.8 602.544,1198.8 603.506,1198.8 604.468,1198.8 605.43,1198.8 606.392,1198.8 607.355,1198.8 608.317,1198.8 609.279,1198.8 610.241,1198.8 611.203,1198.8 612.166,1198.8 613.128,1198.8 614.09,1198.8 615.052,1198.8 616.014,1198.8 616.976,1198.8 617.939,1198.8 618.901,1198.8 619.863,1198.8 620.825,1198.8 621.787,1198.8 622.75,1198.8 623.712,1198.8 624.674,1198.8 625.636,1198.8 626.598,1198.8 627.561,1198.8 628.523,1198.8 629.485,1198.8 630.447,1136.99 631.409,1136.99 632.371,1136.99 633.334,1136.99 634.296,1136.99 635.258,1136.99 636.22,1136.99 637.182,1136.99 638.145,1136.99 639.107,1136.99 640.069,1136.99 641.031,1136.99 641.993,1136.99 642.955,1136.99 643.918,1136.99 644.88,1136.99 645.842,1136.99 646.804,1136.99 647.766,1136.99 648.729,1136.99 649.691,1136.99 650.653,1136.99 651.615,1136.99 652.577,1136.99 653.539,1136.99 654.502,1136.99 655.464,1136.99 656.426,1136.99 657.388,1136.99 658.35,1136.99 659.313,1136.99 660.275,1136.99 661.237,1136.99 662.199,1136.99 663.161,1136.99 664.123,1136.99 665.086,1136.99 666.048,1136.99 667.01,1136.99 667.972,1136.99 668.934,1136.99 669.897,1136.99 670.859,1136.99 671.821,1136.99 672.783,1136.99 673.745,1136.99 674.708,1136.99 675.67,1136.99 676.632,1136.99 677.594,1136.99 678.556,1136.99 679.518,1136.99 680.481,1136.99 681.443,1136.99 682.405,1136.99 683.367,1136.99 684.329,1136.99 685.292,1136.99 686.254,1136.99 687.216,1136.99 688.178,1136.99 689.14,1136.99 690.102,1136.99 691.065,1136.99 692.027,1136.99 692.989,1136.99 693.951,1136.99 694.913,1136.99 695.876,1136.99 696.838,1136.99 697.8,1136.99 698.762,1136.99 699.724,1136.99 700.686,1136.99 701.649,1136.99 702.611,1136.99 703.573,1136.99 704.535,1136.99 705.497,1136.99 706.46,1136.99 707.422,1136.99 708.384,1136.99 709.346,1136.99 710.308,1136.99 711.27,1136.99 712.233,1136.99 713.195,1136.99 714.157,1075.18 715.119,1075.18 716.081,1075.18 717.044,1075.18 718.006,1075.18 718.968,1075.18 719.93,1075.18 720.892,1075.18 721.855,1075.18 722.817,1075.18 723.779,1075.18 724.741,1075.18 725.703,1075.18 726.665,1075.18 727.628,1075.18 728.59,1075.18 729.552,1075.18 730.514,1075.18 731.476,1075.18 732.439,1075.18 733.401,1075.18 734.363,1075.18 735.325,1075.18 736.287,1075.18 737.249,1075.18 738.212,1075.18 739.174,1075.18 740.136,1075.18 741.098,1075.18 742.06,1075.18 743.023,1075.18 743.985,1075.18 744.947,1075.18 745.909,1075.18 746.871,1075.18 747.833,1075.18 748.796,1075.18 749.758,1075.18 750.72,1075.18 751.682,1013.37 752.644,1013.37 753.607,1013.37 754.569,1013.37 755.531,1013.37 756.493,1013.37 757.455,1013.37 758.417,1013.37 759.38,1013.37 760.342,1013.37 761.304,1013.37 762.266,1013.37 763.228,1013.37 764.191,1013.37 765.153,1013.37 766.115,1013.37 767.077,1013.37 768.039,1013.37 769.002,1013.37 769.964,1013.37 770.926,1013.37 771.888,1013.37 772.85,1013.37 773.812,1013.37 774.775,1013.37 775.737,1013.37 776.699,1013.37 777.661,1013.37 778.623,1013.37 779.586,1013.37 780.548,1013.37 781.51,1013.37 782.472,1013.37 783.434,1013.37 784.396,1013.37 785.359,1013.37 786.321,1013.37 787.283,1013.37 788.245,1013.37 789.207,1013.37 790.17,1013.37 791.132,1013.37 792.094,1013.37 793.056,1013.37 794.018,1013.37 794.98,1013.37 795.943,1013.37 796.905,1013.37 797.867,1013.37 798.829,1013.37 799.791,1013.37 800.754,1013.37 801.716,1013.37 802.678,1013.37 803.64,1013.37 804.602,1013.37 805.564,1013.37 806.527,1013.37 807.489,1013.37 808.451,1013.37 809.413,1013.37 810.375,1013.37 811.338,1013.37 812.3,1013.37 813.262,1013.37 814.224,1013.37 815.186,1013.37 816.149,1013.37 817.111,1013.37 818.073,1013.37 819.035,1013.37 819.997,1013.37 820.959,1013.37 821.922,1013.37 822.884,1013.37 823.846,1013.37 824.808,1013.37 825.77,1013.37 826.733,1013.37 827.695,1013.37 828.657,1013.37 829.619,1013.37 830.581,1013.37 831.543,1013.37 832.506,1013.37 833.468,1013.37 834.43,1013.37 835.392,1013.37 836.354,1013.37 837.317,1013.37 838.279,1013.37 839.241,1013.37 840.203,1013.37 841.165,1013.37 842.127,1013.37 843.09,1013.37 844.052,1013.37 845.014,1013.37 845.976,1013.37 846.938,1013.37 847.901,1013.37 848.863,1013.37 849.825,1013.37 850.787,1013.37 851.749,1013.37 852.711,1013.37 853.674,1013.37 854.636,1013.37 855.598,1013.37 856.56,1013.37 857.522,1013.37 858.485,1013.37 859.447,1013.37 860.409,1013.37 861.371,1013.37 862.333,1013.37 863.296,1013.37 864.258,1013.37 865.22,1013.37 866.182,1013.37 867.144,1013.37 868.106,1013.37 869.069,1013.37 870.031,1013.37 870.993,1013.37 871.955,1013.37 872.917,1013.37 873.88,1013.37 874.842,1013.37 875.804,1013.37 876.766,1013.37 877.728,1013.37 878.69,1013.37 879.653,1013.37 880.615,1013.37 881.577,1013.37 882.539,1013.37 883.501,1013.37 884.464,1013.37 885.426,1013.37 886.388,1013.37 887.35,1013.37 888.312,1013.37 889.274,1013.37 890.237,1013.37 891.199,1013.37 892.161,1013.37 893.123,1013.37 894.085,1013.37 895.048,1013.37 896.01,1013.37 896.972,1013.37 897.934,1013.37 898.896,1013.37 899.858,1013.37 900.821,1013.37 901.783,1013.37 902.745,1013.37 903.707,1013.37 904.669,1013.37 905.632,1013.37 906.594,1013.37 907.556,1013.37 908.518,1013.37 909.48,1013.37 910.443,1013.37 911.405,1013.37 912.367,1013.37 913.329,1013.37 914.291,1013.37 915.253,1013.37 916.216,1013.37 917.178,1013.37 918.14,1013.37 919.102,1013.37 920.064,1013.37 921.027,1013.37 921.989,1013.37 922.951,1013.37 923.913,1013.37 924.875,1013.37 925.837,1013.37 926.8,1013.37 927.762,1013.37 928.724,1013.37 929.686,1013.37 930.648,1013.37 931.611,1013.37 932.573,1013.37 933.535,1013.37 934.497,1013.37 935.459,1013.37 936.421,1013.37 937.384,1013.37 938.346,1013.37 939.308,1013.37 940.27,1013.37 941.232,1013.37 942.195,1013.37 943.157,1013.37 944.119,951.554 945.081,951.554 946.043,951.554 947.005,951.554 947.968,951.554 948.93,951.554 949.892,951.554 950.854,951.554 951.816,951.554 952.779,951.554 953.741,951.554 954.703,951.554 955.665,951.554 956.627,951.554 957.59,951.554 958.552,951.554 959.514,951.554 960.476,951.554 961.438,951.554 962.4,951.554 963.363,951.554 964.325,951.554 965.287,951.554 966.249,951.554 967.211,951.554 968.174,951.554 969.136,951.554 970.098,951.554 971.06,951.554 972.022,951.554 972.984,951.554 973.947,951.554 974.909,951.554 975.871,951.554 976.833,951.554 977.795,951.554 978.758,951.554 979.72,951.554 980.682,951.554 981.644,951.554 982.606,951.554 983.568,951.554 984.531,951.554 985.493,951.554 986.455,951.554 987.417,951.554 988.379,951.554 989.342,951.554 990.304,951.554 991.266,951.554 992.228,951.554 993.19,951.554 994.152,951.554 995.115,951.554 996.077,951.554 997.039,889.742 998.001,889.742 998.963,889.742 999.926,889.742 1000.89,889.742 1001.85,889.742 1002.81,889.742 1003.77,889.742 1004.74,889.742 1005.7,889.742 1006.66,889.742 1007.62,889.742 1008.59,889.742 1009.55,889.742 1010.51,889.742 1011.47,889.742 1012.43,889.742 1013.4,889.742 1014.36,889.742 1015.32,889.742 1016.28,889.742 1017.24,889.742 1018.21,889.742 1019.17,889.742 1020.13,889.742 1021.09,889.742 1022.06,889.742 1023.02,889.742 1023.98,889.742 1024.94,889.742 1025.9,889.742 1026.87,889.742 1027.83,889.742 1028.79,889.742 1029.75,889.742 1030.72,889.742 1031.68,889.742 1032.64,889.742 1033.6,889.742 1034.56,889.742 1035.53,889.742 1036.49,889.742 1037.45,889.742 1038.41,889.742 1039.38,889.742 1040.34,889.742 1041.3,889.742 1042.26,889.742 1043.22,889.742 1044.19,889.742 1045.15,889.742 1046.11,889.742 1047.07,889.742 1048.03,889.742 1049,889.742 1049.96,889.742 1050.92,889.742 1051.88,889.742 1052.85,889.742 1053.81,889.742 1054.77,889.742 1055.73,889.742 1056.69,889.742 1057.66,889.742 1058.62,889.742 1059.58,889.742 1060.54,889.742 1061.51,889.742 1062.47,889.742 1063.43,889.742 1064.39,889.742 1065.35,889.742 1066.32,889.742 1067.28,889.742 1068.24,889.742 1069.2,889.742 1070.17,889.742 1071.13,889.742 1072.09,889.742 1073.05,889.742 1074.01,889.742 1074.98,827.93 1075.94,827.93 1076.9,827.93 1077.86,827.93 1078.82,827.93 1079.79,827.93 1080.75,827.93 1081.71,827.93 1082.67,827.93 1083.64,827.93 1084.6,827.93 1085.56,827.93 1086.52,827.93 1087.48,827.93 1088.45,827.93 1089.41,827.93 1090.37,827.93 1091.33,827.93 1092.3,827.93 1093.26,827.93 1094.22,827.93 1095.18,827.93 1096.14,827.93 1097.11,827.93 1098.07,827.93 1099.03,827.93 1099.99,827.93 1100.95,827.93 1101.92,827.93 1102.88,827.93 1103.84,827.93 1104.8,827.93 1105.77,827.93 1106.73,827.93 1107.69,827.93 1108.65,827.93 1109.61,827.93 1110.58,827.93 1111.54,827.93 1112.5,827.93 1113.46,827.93 1114.43,827.93 1115.39,827.93 1116.35,827.93 1117.31,827.93 1118.27,827.93 1119.24,827.93 1120.2,827.93 1121.16,827.93 1122.12,827.93 1123.09,827.93 1124.05,827.93 1125.01,827.93 1125.97,827.93 1126.93,827.93 1127.9,827.93 1128.86,827.93 1129.82,827.93 1130.78,827.93 1131.74,827.93 1132.71,827.93 1133.67,827.93 1134.63,827.93 1135.59,827.93 1136.56,827.93 1137.52,827.93 1138.48,827.93 1139.44,827.93 1140.4,827.93 1141.37,827.93 1142.33,827.93 1143.29,827.93 1144.25,827.93 1145.22,827.93 1146.18,827.93 1147.14,827.93 1148.1,827.93 1149.06,827.93 1150.03,827.93 1150.99,827.93 1151.95,827.93 1152.91,827.93 1153.87,827.93 1154.84,827.93 1155.8,827.93 1156.76,827.93 1157.72,827.93 1158.69,827.93 1159.65,827.93 1160.61,827.93 1161.57,827.93 1162.53,827.93 1163.5,827.93 1164.46,827.93 1165.42,827.93 1166.38,827.93 1167.35,827.93 1168.31,827.93 1169.27,827.93 1170.23,827.93 1171.19,827.93 1172.16,827.93 1173.12,827.93 1174.08,827.93 1175.04,827.93 1176.01,827.93 1176.97,827.93 1177.93,827.93 1178.89,827.93 1179.85,827.93 1180.82,827.93 1181.78,827.93 1182.74,827.93 1183.7,827.93 1184.66,827.93 1185.63,827.93 1186.59,827.93 1187.55,827.93 1188.51,827.93 1189.48,827.93 1190.44,827.93 1191.4,827.93 1192.36,827.93 1193.32,827.93 1194.29,827.93 1195.25,827.93 1196.21,827.93 1197.17,827.93 1198.14,827.93 1199.1,827.93 1200.06,827.93 1201.02,827.93 1201.98,827.93 1202.95,827.93 1203.91,827.93 1204.87,827.93 1205.83,827.93 1206.8,827.93 1207.76,827.93 1208.72,827.93 1209.68,827.93 1210.64,827.93 1211.61,827.93 1212.57,827.93 1213.53,827.93 1214.49,827.93 1215.45,827.93 1216.42,827.93 1217.38,827.93 1218.34,827.93 1219.3,827.93 1220.27,827.93 1221.23,827.93 1222.19,827.93 1223.15,827.93 1224.11,827.93 1225.08,827.93 1226.04,827.93 1227,827.93 1227.96,827.93 1228.93,827.93 1229.89,827.93 1230.85,827.93 1231.81,827.93 1232.77,827.93 1233.74,827.93 1234.7,827.93 1235.66,827.93 1236.62,827.93 1237.58,827.93 1238.55,827.93 1239.51,827.93 1240.47,827.93 1241.43,827.93 1242.4,827.93 1243.36,827.93 1244.32,827.93 1245.28,827.93 1246.24,827.93 1247.21,827.93 1248.17,827.93 1249.13,827.93 1250.09,827.93 1251.06,827.93 1252.02,827.93 1252.98,827.93 1253.94,827.93 1254.9,827.93 1255.87,827.93 1256.83,827.93 1257.79,827.93 1258.75,827.93 1259.72,827.93 1260.68,827.93 1261.64,827.93 1262.6,827.93 1263.56,827.93 1264.53,827.93 1265.49,827.93 1266.45,827.93 1267.41,827.93 1268.37,827.93 1269.34,827.93 1270.3,827.93 1271.26,827.93 1272.22,827.93 1273.19,827.93 1274.15,827.93 1275.11,827.93 1276.07,827.93 1277.03,827.93 1278,827.93 1278.96,827.93 1279.92,827.93 1280.88,827.93 1281.85,827.93 1282.81,827.93 1283.77,827.93 1284.73,827.93 1285.69,827.93 1286.66,827.93 1287.62,827.93 1288.58,827.93 1289.54,827.93 1290.51,827.93 1291.47,827.93 1292.43,827.93 1293.39,827.93 1294.35,827.93 1295.32,827.93 1296.28,827.93 1297.24,827.93 1298.2,827.93 1299.16,827.93 1300.13,827.93 1301.09,827.93 1302.05,827.93 1303.01,827.93 1303.98,827.93 1304.94,827.93 1305.9,827.93 1306.86,827.93 1307.82,827.93 1308.79,827.93 1309.75,827.93 1310.71,827.93 1311.67,827.93 1312.64,827.93 1313.6,827.93 1314.56,827.93 1315.52,827.93 1316.48,827.93 1317.45,827.93 1318.41,827.93 1319.37,827.93 1320.33,827.93 1321.29,827.93 1322.26,827.93 1323.22,827.93 1324.18,827.93 1325.14,827.93 1326.11,827.93 1327.07,827.93 1328.03,827.93 1328.99,827.93 1329.95,827.93 1330.92,827.93 1331.88,827.93 1332.84,827.93 1333.8,827.93 1334.77,827.93 1335.73,827.93 1336.69,827.93 1337.65,827.93 1338.61,827.93 1339.58,827.93 1340.54,827.93 1341.5,827.93 1342.46,827.93 1343.43,827.93 1344.39,827.93 1345.35,827.93 1346.31,827.93 1347.27,827.93 1348.24,827.93 1349.2,827.93 1350.16,827.93 1351.12,827.93 1352.08,827.93 1353.05,827.93 1354.01,827.93 1354.97,827.93 1355.93,827.93 1356.9,827.93 1357.86,827.93 1358.82,827.93 1359.78,827.93 1360.74,827.93 1361.71,827.93 1362.67,827.93 1363.63,827.93 1364.59,827.93 1365.56,827.93 1366.52,827.93 1367.48,827.93 1368.44,827.93 1369.4,827.93 1370.37,827.93 1371.33,827.93 1372.29,827.93 1373.25,827.93 1374.22,827.93 1375.18,827.93 1376.14,827.93 1377.1,827.93 1378.06,827.93 1379.03,827.93 1379.99,827.93 1380.95,827.93 1381.91,827.93 1382.87,827.93 1383.84,827.93 1384.8,827.93 1385.76,827.93 1386.72,827.93 1387.69,827.93 1388.65,827.93 1389.61,827.93 1390.57,827.93 1391.53,827.93 1392.5,827.93 1393.46,827.93 1394.42,827.93 1395.38,827.93 1396.35,827.93 1397.31,827.93 1398.27,827.93 1399.23,827.93 1400.19,827.93 1401.16,827.93 1402.12,827.93 1403.08,827.93 1404.04,827.93 1405,827.93 1405.97,827.93 1406.93,827.93 1407.89,827.93 1408.85,827.93 1409.82,827.93 1410.78,827.93 1411.74,827.93 1412.7,827.93 1413.66,827.93 1414.63,827.93 1415.59,827.93 1416.55,827.93 1417.51,827.93 1418.48,827.93 1419.44,827.93 1420.4,827.93 1421.36,827.93 1422.32,827.93 1423.29,827.93 1424.25,827.93 1425.21,827.93 1426.17,827.93 1427.14,827.93 1428.1,827.93 1429.06,827.93 1430.02,827.93 1430.98,827.93 1431.95,827.93 1432.91,827.93 1433.87,827.93 1434.83,827.93 1435.79,827.93 1436.76,827.93 1437.72,827.93 1438.68,827.93 1439.64,827.93 1440.61,827.93 1441.57,827.93 1442.53,827.93 1443.49,827.93 1444.45,827.93 1445.42,827.93 1446.38,827.93 1447.34,827.93 1448.3,827.93 1449.27,827.93 1450.23,827.93 1451.19,827.93 1452.15,827.93 1453.11,827.93 1454.08,827.93 1455.04,827.93 1456,827.93 1456.96,827.93 1457.93,827.93 1458.89,827.93 1459.85,827.93 1460.81,827.93 1461.77,827.93 1462.74,827.93 1463.7,827.93 1464.66,827.93 1465.62,827.93 1466.58,827.93 1467.55,827.93 1468.51,827.93 1469.47,827.93 1470.43,827.93 1471.4,827.93 1472.36,827.93 1473.32,827.93 1474.28,827.93 1475.24,827.93 1476.21,827.93 1477.17,827.93 1478.13,827.93 1479.09,827.93 1480.06,827.93 1481.02,827.93 1481.98,827.93 1482.94,827.93 1483.9,827.93 1484.87,827.93 1485.83,827.93 1486.79,827.93 1487.75,827.93 1488.71,827.93 1489.68,827.93 1490.64,827.93 1491.6,827.93 1492.56,827.93 1493.53,827.93 1494.49,827.93 1495.45,827.93 1496.41,827.93 1497.37,827.93 1498.34,827.93 1499.3,827.93 1500.26,827.93 1501.22,827.93 1502.19,827.93 1503.15,827.93 1504.11,827.93 1505.07,827.93 1506.03,827.93 1507,827.93 1507.96,827.93 1508.92,827.93 1509.88,827.93 1510.85,827.93 1511.81,827.93 1512.77,827.93 1513.73,827.93 1514.69,827.93 1515.66,827.93 1516.62,827.93 1517.58,827.93 1518.54,827.93 1519.5,827.93 1520.47,827.93 1521.43,827.93 1522.39,827.93 1523.35,827.93 1524.32,827.93 1525.28,827.93 1526.24,827.93 1527.2,827.93 1528.16,827.93 1529.13,827.93 1530.09,827.93 1531.05,827.93 1532.01,827.93 1532.98,827.93 1533.94,827.93 1534.9,827.93 1535.86,827.93 1536.82,827.93 1537.79,827.93 1538.75,827.93 1539.71,827.93 1540.67,827.93 1541.64,827.93 1542.6,827.93 1543.56,827.93 1544.52,827.93 1545.48,827.93 1546.45,827.93 1547.41,827.93 1548.37,827.93 1549.33,827.93 1550.29,827.93 1551.26,827.93 1552.22,827.93 1553.18,827.93 1554.14,827.93 1555.11,827.93 1556.07,827.93 1557.03,827.93 1557.99,827.93 1558.95,827.93 1559.92,827.93 1560.88,827.93 1561.84,827.93 1562.8,827.93 1563.77,827.93 1564.73,827.93 1565.69,827.93 1566.65,827.93 1567.61,827.93 1568.58,827.93 1569.54,827.93 1570.5,827.93 1571.46,827.93 1572.42,827.93 1573.39,827.93 1574.35,827.93 1575.31,827.93 1576.27,827.93 1577.24,827.93 1578.2,827.93 1579.16,827.93 1580.12,827.93 1581.08,827.93 1582.05,827.93 1583.01,827.93 1583.97,827.93 1584.93,827.93 1585.9,827.93 1586.86,827.93 1587.82,827.93 1588.78,827.93 1589.74,827.93 1590.71,827.93 1591.67,827.93 1592.63,827.93 1593.59,827.93 1594.56,827.93 1595.52,827.93 1596.48,827.93 1597.44,827.93 1598.4,827.93 1599.37,827.93 1600.33,827.93 1601.29,827.93 1602.25,827.93 1603.21,827.93 1604.18,827.93 1605.14,766.118 1606.1,766.118 1607.06,766.118 1608.03,766.118 1608.99,766.118 1609.95,766.118 1610.91,766.118 1611.87,766.118 1612.84,766.118 1613.8,766.118 1614.76,766.118 1615.72,766.118 1616.69,766.118 1617.65,766.118 1618.61,766.118 1619.57,766.118 1620.53,766.118 1621.5,766.118 1622.46,766.118 1623.42,766.118 1624.38,766.118 1625.35,766.118 1626.31,766.118 1627.27,766.118 1628.23,766.118 1629.19,766.118 1630.16,766.118 1631.12,766.118 1632.08,766.118 1633.04,766.118 1634,766.118 1634.97,766.118 1635.93,766.118 1636.89,766.118 1637.85,766.118 1638.82,766.118 1639.78,766.118 1640.74,766.118 1641.7,766.118 1642.66,766.118 1643.63,766.118 1644.59,766.118 1645.55,766.118 1646.51,766.118 1647.48,766.118 1648.44,766.118 1649.4,766.118 1650.36,766.118 1651.32,766.118 1652.29,766.118 1653.25,766.118 1654.21,766.118 1655.17,766.118 1656.13,766.118 1657.1,766.118 1658.06,766.118 1659.02,766.118 1659.98,766.118 1660.95,766.118 1661.91,766.118 1662.87,766.118 1663.83,766.118 1664.79,766.118 1665.76,766.118 1666.72,766.118 1667.68,766.118 1668.64,766.118 1669.61,766.118 1670.57,766.118 1671.53,766.118 1672.49,766.118 1673.45,766.118 1674.42,766.118 1675.38,766.118 1676.34,766.118 1677.3,766.118 1678.27,766.118 1679.23,766.118 1680.19,766.118 1681.15,766.118 1682.11,766.118 1683.08,766.118 1684.04,766.118 1685,766.118 1685.96,766.118 1686.92,766.118 1687.89,766.118 1688.85,766.118 1689.81,766.118 1690.77,766.118 1691.74,766.118 1692.7,766.118 1693.66,766.118 1694.62,766.118 1695.58,766.118 1696.55,766.118 1697.51,766.118 1698.47,766.118 1699.43,766.118 1700.4,766.118 1701.36,766.118 1702.32,766.118 1703.28,766.118 1704.24,766.118 1705.21,766.118 1706.17,766.118 1707.13,766.118 1708.09,766.118 1709.05,766.118 1710.02,766.118 1710.98,766.118 1711.94,766.118 1712.9,766.118 1713.87,766.118 1714.83,766.118 1715.79,766.118 1716.75,766.118 1717.71,766.118 1718.68,766.118 1719.64,766.118 1720.6,766.118 1721.56,766.118 1722.53,766.118 1723.49,766.118 1724.45,766.118 1725.41,766.118 1726.37,766.118 1727.34,766.118 1728.3,766.118 1729.26,766.118 1730.22,766.118 1731.19,766.118 1732.15,766.118 1733.11,766.118 1734.07,766.118 1735.03,766.118 1736,766.118 1736.96,766.118 1737.92,766.118 1738.88,766.118 1739.84,766.118 1740.81,766.118 1741.77,766.118 1742.73,766.118 1743.69,766.118 1744.66,766.118 1745.62,766.118 1746.58,766.118 1747.54,766.118 1748.5,766.118 1749.47,766.118 1750.43,766.118 1751.39,766.118 1752.35,766.118 1753.32,766.118 1754.28,766.118 1755.24,766.118 1756.2,766.118 1757.16,766.118 1758.13,766.118 1759.09,766.118 1760.05,766.118 1761.01,766.118 1761.98,766.118 1762.94,766.118 1763.9,766.118 1764.86,766.118 1765.82,766.118 1766.79,766.118 1767.75,766.118 1768.71,766.118 1769.67,766.118 1770.63,766.118 1771.6,766.118 1772.56,766.118 1773.52,766.118 1774.48,766.118 1775.45,766.118 1776.41,766.118 1777.37,766.118 1778.33,766.118 1779.29,766.118 1780.26,766.118 1781.22,766.118 1782.18,766.118 1783.14,766.118 1784.11,766.118 1785.07,766.118 1786.03,766.118 1786.99,766.118 1787.95,766.118 1788.92,766.118 1789.88,766.118 1790.84,766.118 1791.8,766.118 1792.76,766.118 1793.73,766.118 1794.69,766.118 1795.65,766.118 1796.61,766.118 1797.58,766.118 1798.54,766.118 1799.5,766.118 1800.46,766.118 1801.42,766.118 1802.39,766.118 1803.35,766.118 1804.31,766.118 1805.27,766.118 1806.24,766.118 1807.2,766.118 1808.16,766.118 1809.12,766.118 1810.08,766.118 1811.05,766.118 1812.01,766.118 1812.97,766.118 1813.93,766.118 1814.9,766.118 1815.86,766.118 1816.82,766.118 1817.78,766.118 1818.74,766.118 1819.71,766.118 1820.67,766.118 1821.63,766.118 1822.59,766.118 1823.55,766.118 1824.52,766.118 1825.48,766.118 1826.44,766.118 1827.4,766.118 1828.37,766.118 1829.33,766.118 1830.29,766.118 1831.25,766.118 1832.21,766.118 1833.18,766.118 1834.14,766.118 1835.1,766.118 1836.06,766.118 1837.03,766.118 1837.99,766.118 1838.95,766.118 1839.91,704.306 1840.87,704.306 1841.84,704.306 1842.8,704.306 1843.76,704.306 1844.72,704.306 1845.69,704.306 1846.65,704.306 1847.61,704.306 1848.57,704.306 1849.53,704.306 1850.5,704.306 1851.46,704.306 1852.42,704.306 1853.38,704.306 1854.34,704.306 1855.31,704.306 1856.27,704.306 1857.23,704.306 1858.19,704.306 1859.16,704.306 1860.12,704.306 1861.08,704.306 1862.04,704.306 1863,704.306 1863.97,704.306 1864.93,704.306 1865.89,704.306 1866.85,704.306 1867.82,704.306 1868.78,704.306 1869.74,704.306 1870.7,704.306 1871.66,704.306 1872.63,704.306 1873.59,704.306 1874.55,704.306 1875.51,704.306 1876.47,704.306 1877.44,704.306 1878.4,704.306 1879.36,704.306 1880.32,704.306 1881.29,704.306 1882.25,704.306 1883.21,704.306 1884.17,704.306 1885.13,704.306 1886.1,704.306 1887.06,704.306 1888.02,704.306 1888.98,704.306 1889.95,704.306 1890.91,704.306 1891.87,704.306 1892.83,704.306 1893.79,704.306 1894.76,642.494 1895.72,642.494 1896.68,642.494 1897.64,642.494 1898.61,642.494 1899.57,642.494 1900.53,642.494 1901.49,642.494 1902.45,642.494 1903.42,642.494 1904.38,642.494 1905.34,642.494 1906.3,642.494 1907.26,642.494 1908.23,642.494 1909.19,580.682 1910.15,580.682 1911.11,580.682 1912.08,580.682 1913.04,580.682 1914,580.682 1914.96,580.682 1915.92,580.682 1916.89,580.682 1917.85,580.682 1918.81,580.682 1919.77,580.682 1920.74,580.682 1921.7,580.682 1922.66,580.682 1923.62,580.682 1924.58,580.682 1925.55,580.682 1926.51,580.682 1927.47,580.682 1928.43,580.682 1929.4,580.682 1930.36,580.682 1931.32,580.682 1932.28,580.682 1933.24,580.682 1934.21,580.682 1935.17,580.682 1936.13,580.682 1937.09,580.682 1938.05,580.682 1939.02,580.682 1939.98,580.682 1940.94,580.682 1941.9,580.682 1942.87,580.682 1943.83,580.682 1944.79,580.682 1945.75,580.682 1946.71,580.682 1947.68,580.682 1948.64,580.682 1949.6,580.682 1950.56,580.682 1951.53,580.682 1952.49,580.682 1953.45,580.682 1954.41,580.682 1955.37,580.682 1956.34,580.682 1957.3,580.682 1958.26,580.682 1959.22,580.682 1960.18,580.682 1961.15,580.682 1962.11,580.682 1963.07,580.682 1964.03,580.682 1965,580.682 1965.96,580.682 1966.92,580.682 1967.88,580.682 1968.84,580.682 1969.81,580.682 1970.77,580.682 1971.73,580.682 1972.69,580.682 1973.66,580.682 1974.62,580.682 1975.58,580.682 1976.54,580.682 1977.5,580.682 1978.47,580.682 1979.43,580.682 1980.39,580.682 1981.35,580.682 1982.32,580.682 1983.28,580.682 1984.24,580.682 1985.2,580.682 1986.16,580.682 1987.13,580.682 1988.09,580.682 1989.05,580.682 1990.01,580.682 1990.97,580.682 1991.94,580.682 1992.9,580.682 1993.86,580.682 1994.82,580.682 1995.79,580.682 1996.75,580.682 1997.71,580.682 1998.67,580.682 1999.63,580.682 2000.6,580.682 2001.56,580.682 2002.52,580.682 2003.48,580.682 2004.45,580.682 2005.41,580.682 2006.37,580.682 2007.33,580.682 2008.29,580.682 2009.26,580.682 2010.22,580.682 2011.18,580.682 2012.14,580.682 2013.11,580.682 2014.07,580.682 2015.03,580.682 2015.99,580.682 2016.95,580.682 2017.92,580.682 2018.88,580.682 2019.84,580.682 2020.8,580.682 2021.76,580.682 2022.73,580.682 2023.69,580.682 2024.65,580.682 2025.61,580.682 2026.58,580.682 2027.54,580.682 2028.5,580.682 2029.46,580.682 2030.42,580.682 2031.39,580.682 2032.35,580.682 2033.31,580.682 2034.27,580.682 2035.24,580.682 2036.2,580.682 2037.16,580.682 2038.12,580.682 2039.08,580.682 2040.05,580.682 2041.01,580.682 2041.97,580.682 2042.93,580.682 2043.89,580.682 2044.86,580.682 2045.82,580.682 2046.78,580.682 2047.74,580.682 2048.71,580.682 2049.67,580.682 2050.63,580.682 2051.59,580.682 2052.55,580.682 2053.52,580.682 2054.48,580.682 2055.44,580.682 2056.4,580.682 2057.37,580.682 2058.33,580.682 2059.29,580.682 2060.25,580.682 2061.21,580.682 2062.18,580.682 2063.14,580.682 2064.1,580.682 2065.06,580.682 2066.03,580.682 2066.99,580.682 2067.95,580.682 2068.91,580.682 2069.87,580.682 2070.84,580.682 2071.8,580.682 2072.76,580.682 2073.72,580.682 2074.68,580.682 2075.65,580.682 2076.61,580.682 2077.57,580.682 2078.53,580.682 2079.5,580.682 2080.46,580.682 2081.42,580.682 2082.38,580.682 2083.34,580.682 2084.31,580.682 2085.27,580.682 2086.23,580.682 2087.19,580.682 2088.16,580.682 2089.12,580.682 2090.08,580.682 2091.04,580.682 2092,580.682 2092.97,580.682 2093.93,580.682 2094.89,580.682 2095.85,580.682 2096.82,580.682 2097.78,580.682 2098.74,580.682 2099.7,580.682 2100.66,580.682 2101.63,580.682 2102.59,580.682 2103.55,580.682 2104.51,580.682 2105.47,580.682 2106.44,580.682 2107.4,518.87 2108.36,518.87 2109.32,518.87 2110.29,518.87 2111.25,518.87 2112.21,457.058 2113.17,457.058 2114.13,457.058 2115.1,457.058 2116.06,457.058 2117.02,457.058 2117.98,457.058 2118.95,457.058 2119.91,457.058 2120.87,457.058 2121.83,457.058 2122.79,457.058 2123.76,457.058 2124.72,457.058 2125.68,457.058 2126.64,457.058 2127.6,457.058 2128.57,457.058 2129.53,457.058 2130.49,457.058 2131.45,457.058 2132.42,457.058 2133.38,457.058 2134.34,457.058 2135.3,457.058 2136.26,457.058 2137.23,457.058 2138.19,457.058 2139.15,457.058 2140.11,457.058 2141.08,457.058 2142.04,457.058 2143,457.058 2143.96,457.058 2144.92,457.058 2145.89,457.058 2146.85,457.058 2147.81,457.058 2148.77,457.058 2149.74,457.058 2150.7,457.058 2151.66,457.058 2152.62,457.058 2153.58,457.058 2154.55,457.058 2155.51,457.058 2156.47,457.058 2157.43,457.058 2158.39,457.058 2159.36,457.058 2160.32,457.058 2161.28,457.058 2162.24,457.058 2163.21,457.058 2164.17,457.058 2165.13,457.058 2166.09,457.058 2167.05,457.058 2168.02,457.058 2168.98,457.058 2169.94,457.058 2170.9,457.058 2171.87,457.058 2172.83,457.058 2173.79,457.058 2174.75,457.058 2175.71,457.058 2176.68,457.058 2177.64,457.058 2178.6,457.058 2179.56,457.058 2180.53,457.058 2181.49,457.058 2182.45,457.058 2183.41,457.058 2184.37,457.058 2185.34,457.058 2186.3,457.058 2187.26,457.058 2188.22,457.058 2189.18,457.058 2190.15,457.058 2191.11,457.058 2192.07,457.058 2193.03,457.058 2194,457.058 2194.96,457.058 2195.92,457.058 2196.88,457.058 2197.84,457.058 2198.81,395.246 2199.77,395.246 2200.73,395.246 2201.69,395.246 2202.66,395.246 2203.62,395.246 2204.58,395.246 2205.54,395.246 2206.5,395.246 2207.47,395.246 2208.43,395.246 2209.39,395.246 2210.35,395.246 2211.31,395.246 2212.28,333.434 2213.24,333.434 2214.2,333.434 2215.16,333.434 2216.13,333.434 2217.09,333.434 2218.05,333.434 2219.01,333.434 2219.97,333.434 2220.94,333.434 2221.9,333.434 2222.86,333.434 2223.82,333.434 2224.79,333.434 2225.75,333.434 2226.71,333.434 2227.67,333.434 2228.63,333.434 2229.6,333.434 2230.56,271.622 2231.52,271.622 2232.48,271.622 2233.45,271.622 2234.41,271.622 2235.37,271.622 2236.33,271.622 2237.29,271.622 2238.26,271.622 2239.22,271.622 2240.18,271.622 2241.14,271.622 2242.1,271.622 2243.07,271.622 2244.03,271.622 2244.99,271.622 2245.95,271.622 2246.92,271.622 2247.88,271.622 2248.84,271.622 2249.8,271.622 2250.76,271.622 2251.73,209.81 2252.69,209.81 2253.65,209.81 2254.61,209.81 2255.58,209.81 2256.54,147.998 2257.5,147.998 2258.46,147.998 2259.42,147.998 2260.39,147.998 2261.35,147.998 2262.31,147.998 2263.27,147.998 2264.24,147.998 2265.2,147.998 2266.16,147.998 2267.12,147.998 2268.08,147.998 2269.05,147.998 2270.01,147.998 2270.97,147.998 2271.93,147.998 2272.89,147.998 2273.86,147.998 2274.82,147.998 2275.78,147.998 2276.74,147.998 2277.71,147.998 2278.67,147.998 2279.63,147.998 2280.59,147.998 2281.55,147.998 2282.52,147.998 2283.48,147.998 2284.44,147.998 2285.4,147.998 2286.37,147.998 2287.33,147.998 2288.29,147.998 2289.25,147.998 2290.21,147.998 2291.18,147.998 2292.14,147.998 2293.1,147.998 2294.06,147.998 2295.02,86.1857 2295.99,86.1857 2296.95,86.1857 2297.91,86.1857 2298.87,86.1857 2299.84,86.1857 2300.8,86.1857 2301.76,86.1857 2302.72,86.1857 2303.68,86.1857 2304.65,86.1857 2305.61,86.1857 2306.57,86.1857 2307.53,86.1857 2308.5,86.1857 2309.46,86.1857 2310.42,86.1857 2311.38,86.1857 2312.34,86.1857 2313.31,86.1857 2314.27,86.1857 2315.23,86.1857 2316.19,86.1857 2317.16,86.1857 2318.12,86.1857 2319.08,86.1857 2320.04,86.1857 2321,86.1857 2321.97,86.1857 2322.93,86.1857 2323.89,86.1857 2324.85,86.1857 2325.81,86.1857 2326.78,86.1857 2327.74,86.1857 2328.7,86.1857 2329.66,86.1857 2330.63,86.1857 2331.59,86.1857 2332.55,86.1857 2333.51,86.1857 2334.47,86.1857 2335.44,86.1857 2336.4,86.1857 2337.36,86.1857 2338.32,86.1857 2339.29,86.1857 2340.25,86.1857 2341.21,86.1857 2342.17,86.1857 2343.13,86.1857 2344.1,86.1857 2345.06,86.1857 2346.02,86.1857 2346.98,86.1857 2347.94,86.1857 2348.91,86.1857 2349.87,86.1857 2350.83,86.1857 2351.79,86.1857 2352.76,86.1857 "/>
<path clip-path="url(#clip250)" d="M1975.5 1377.32 L2279.02 1377.32 L2279.02 1273.64 L1975.5 1273.64  Z" fill="#ffffff" fill-rule="evenodd" fill-opacity="1"/>
<polyline clip-path="url(#clip250)" style="stroke:#000000; stroke-linecap:round; stroke-linejoin:round; stroke-width:4; stroke-opacity:1; fill:none" points="1975.5,1377.32 2279.02,1377.32 2279.02,1273.64 1975.5,1273.64 1975.5,1377.32 "/>
<polyline clip-path="url(#clip250)" style="stroke:#009af9; stroke-linecap:round; stroke-linejoin:round; stroke-width:8; stroke-opacity:1; fill:none" points="2000.08,1325.48 2147.55,1325.48 "/>
<path clip-path="url(#clip250)" d="M2172.13 1308.2 L2178.42 1308.2 L2193.75 1337.11 L2193.75 1308.2 L2198.29 1308.2 L2198.29 1342.76 L2191.99 1342.76 L2176.66 1313.84 L2176.66 1342.76 L2172.13 1342.76 L2172.13 1308.2 Z" fill="#000000" fill-rule="nonzero" fill-opacity="1" /><path clip-path="url(#clip250)" d="M2217.64 1306.78 Q2214.53 1312.11 2213.03 1317.32 Q2211.53 1322.52 2211.53 1327.87 Q2211.53 1333.22 2213.03 1338.47 Q2214.56 1343.7 2217.64 1349.01 L2213.93 1349.01 Q2210.46 1343.57 2208.72 1338.31 Q2207.01 1333.06 2207.01 1327.87 Q2207.01 1322.71 2208.72 1317.48 Q2210.44 1312.25 2213.93 1306.78 L2217.64 1306.78 Z" fill="#000000" fill-rule="nonzero" fill-opacity="1" /><path clip-path="url(#clip250)" d="M2230.11 1309.47 L2230.11 1316.83 L2238.89 1316.83 L2238.89 1320.14 L2230.11 1320.14 L2230.11 1334.21 Q2230.11 1337.38 2230.97 1338.29 Q2231.85 1339.19 2234.51 1339.19 L2238.89 1339.19 L2238.89 1342.76 L2234.51 1342.76 Q2229.58 1342.76 2227.71 1340.93 Q2225.83 1339.07 2225.83 1334.21 L2225.83 1320.14 L2222.71 1320.14 L2222.71 1316.83 L2225.83 1316.83 L2225.83 1309.47 L2230.11 1309.47 Z" fill="#000000" fill-rule="nonzero" fill-opacity="1" /><path clip-path="url(#clip250)" d="M2243.82 1306.78 L2247.52 1306.78 Q2250.99 1312.25 2252.71 1317.48 Q2254.44 1322.71 2254.44 1327.87 Q2254.44 1333.06 2252.71 1338.31 Q2250.99 1343.57 2247.52 1349.01 L2243.82 1349.01 Q2246.9 1343.7 2248.4 1338.47 Q2249.93 1333.22 2249.93 1327.87 Q2249.93 1322.52 2248.4 1317.32 Q2246.9 1312.11 2243.82 1306.78 Z" fill="#000000" fill-rule="nonzero" fill-opacity="1" /></svg>
