<?xml version="1.0" encoding="utf-8"?>
<svg xmlns="http://www.w3.org/2000/svg" xmlns:xlink="http://www.w3.org/1999/xlink" width="600" height="400" viewBox="0 0 2400 1600">
<defs>
  <clipPath id="clip350">
    <rect x="0" y="0" width="2400" height="1600"/>
  </clipPath>
</defs>
<path clip-path="url(#clip350)" d="M0 1600 L2400 1600 L2400 0 L0 0  Z" fill="#ffffff" fill-rule="evenodd" fill-opacity="1"/>
<defs>
  <clipPath id="clip351">
    <rect x="199" y="47" width="2154" height="1377"/>
  </clipPath>
</defs>
<path clip-path="url(#clip350)" d="M199.283 1423.18 L2352.76 1423.18 L2352.76 47.2441 L199.283 47.2441  Z" fill="#ffffff" fill-rule="evenodd" fill-opacity="1"/>
<polyline clip-path="url(#clip351)" style="stroke:#000000; stroke-linecap:round; stroke-linejoin:round; stroke-width:2; stroke-opacity:0.1; fill:none" points="199.283,1423.18 199.283,47.2441 "/>
<polyline clip-path="url(#clip351)" style="stroke:#000000; stroke-linecap:round; stroke-linejoin:round; stroke-width:2; stroke-opacity:0.1; fill:none" points="629.978,1423.18 629.978,47.2441 "/>
<polyline clip-path="url(#clip351)" style="stroke:#000000; stroke-linecap:round; stroke-linejoin:round; stroke-width:2; stroke-opacity:0.1; fill:none" points="1060.67,1423.18 1060.67,47.2441 "/>
<polyline clip-path="url(#clip351)" style="stroke:#000000; stroke-linecap:round; stroke-linejoin:round; stroke-width:2; stroke-opacity:0.1; fill:none" points="1491.37,1423.18 1491.37,47.2441 "/>
<polyline clip-path="url(#clip351)" style="stroke:#000000; stroke-linecap:round; stroke-linejoin:round; stroke-width:2; stroke-opacity:0.1; fill:none" points="1922.06,1423.18 1922.06,47.2441 "/>
<polyline clip-path="url(#clip351)" style="stroke:#000000; stroke-linecap:round; stroke-linejoin:round; stroke-width:2; stroke-opacity:0.1; fill:none" points="2352.76,1423.18 2352.76,47.2441 "/>
<polyline clip-path="url(#clip351)" style="stroke:#000000; stroke-linecap:round; stroke-linejoin:round; stroke-width:2; stroke-opacity:0.1; fill:none" points="199.283,1384.24 2352.76,1384.24 "/>
<polyline clip-path="url(#clip351)" style="stroke:#000000; stroke-linecap:round; stroke-linejoin:round; stroke-width:2; stroke-opacity:0.1; fill:none" points="199.283,1059.4 2352.76,1059.4 "/>
<polyline clip-path="url(#clip351)" style="stroke:#000000; stroke-linecap:round; stroke-linejoin:round; stroke-width:2; stroke-opacity:0.1; fill:none" points="199.283,734.562 2352.76,734.562 "/>
<polyline clip-path="url(#clip351)" style="stroke:#000000; stroke-linecap:round; stroke-linejoin:round; stroke-width:2; stroke-opacity:0.1; fill:none" points="199.283,409.724 2352.76,409.724 "/>
<polyline clip-path="url(#clip351)" style="stroke:#000000; stroke-linecap:round; stroke-linejoin:round; stroke-width:2; stroke-opacity:0.1; fill:none" points="199.283,84.8863 2352.76,84.8863 "/>
<polyline clip-path="url(#clip350)" style="stroke:#000000; stroke-linecap:round; stroke-linejoin:round; stroke-width:4; stroke-opacity:1; fill:none" points="199.283,1423.18 2352.76,1423.18 "/>
<polyline clip-path="url(#clip350)" style="stroke:#000000; stroke-linecap:round; stroke-linejoin:round; stroke-width:4; stroke-opacity:1; fill:none" points="199.283,1423.18 199.283,1404.28 "/>
<polyline clip-path="url(#clip350)" style="stroke:#000000; stroke-linecap:round; stroke-linejoin:round; stroke-width:4; stroke-opacity:1; fill:none" points="629.978,1423.18 629.978,1404.28 "/>
<polyline clip-path="url(#clip350)" style="stroke:#000000; stroke-linecap:round; stroke-linejoin:round; stroke-width:4; stroke-opacity:1; fill:none" points="1060.67,1423.18 1060.67,1404.28 "/>
<polyline clip-path="url(#clip350)" style="stroke:#000000; stroke-linecap:round; stroke-linejoin:round; stroke-width:4; stroke-opacity:1; fill:none" points="1491.37,1423.18 1491.37,1404.28 "/>
<polyline clip-path="url(#clip350)" style="stroke:#000000; stroke-linecap:round; stroke-linejoin:round; stroke-width:4; stroke-opacity:1; fill:none" points="1922.06,1423.18 1922.06,1404.28 "/>
<polyline clip-path="url(#clip350)" style="stroke:#000000; stroke-linecap:round; stroke-linejoin:round; stroke-width:4; stroke-opacity:1; fill:none" points="2352.76,1423.18 2352.76,1404.28 "/>
<path clip-path="url(#clip350)" d="M199.283 1454.1 Q195.672 1454.1 193.843 1457.66 Q192.038 1461.2 192.038 1468.33 Q192.038 1475.44 193.843 1479.01 Q195.672 1482.55 199.283 1482.55 Q202.917 1482.55 204.723 1479.01 Q206.552 1475.44 206.552 1468.33 Q206.552 1461.2 204.723 1457.66 Q202.917 1454.1 199.283 1454.1 M199.283 1450.39 Q205.093 1450.39 208.149 1455 Q211.228 1459.58 211.228 1468.33 Q211.228 1477.06 208.149 1481.67 Q205.093 1486.25 199.283 1486.25 Q193.473 1486.25 190.394 1481.67 Q187.339 1477.06 187.339 1468.33 Q187.339 1459.58 190.394 1455 Q193.473 1450.39 199.283 1450.39 Z" fill="#000000" fill-rule="nonzero" fill-opacity="1" /><path clip-path="url(#clip350)" d="M604.677 1451.02 L623.033 1451.02 L623.033 1454.96 L608.959 1454.96 L608.959 1463.43 Q609.978 1463.08 610.996 1462.92 Q612.015 1462.73 613.033 1462.73 Q618.82 1462.73 622.2 1465.9 Q625.58 1469.08 625.58 1474.49 Q625.58 1480.07 622.107 1483.17 Q618.635 1486.25 612.316 1486.25 Q610.14 1486.25 607.871 1485.88 Q605.626 1485.51 603.219 1484.77 L603.219 1480.07 Q605.302 1481.2 607.524 1481.76 Q609.746 1482.32 612.223 1482.32 Q616.228 1482.32 618.566 1480.21 Q620.904 1478.1 620.904 1474.49 Q620.904 1470.88 618.566 1468.77 Q616.228 1466.67 612.223 1466.67 Q610.348 1466.67 608.473 1467.08 Q606.621 1467.5 604.677 1468.38 L604.677 1451.02 Z" fill="#000000" fill-rule="nonzero" fill-opacity="1" /><path clip-path="url(#clip350)" d="M644.792 1454.1 Q641.181 1454.1 639.353 1457.66 Q637.547 1461.2 637.547 1468.33 Q637.547 1475.44 639.353 1479.01 Q641.181 1482.55 644.792 1482.55 Q648.427 1482.55 650.232 1479.01 Q652.061 1475.44 652.061 1468.33 Q652.061 1461.2 650.232 1457.66 Q648.427 1454.1 644.792 1454.1 M644.792 1450.39 Q650.603 1450.39 653.658 1455 Q656.737 1459.58 656.737 1468.33 Q656.737 1477.06 653.658 1481.67 Q650.603 1486.25 644.792 1486.25 Q638.982 1486.25 635.904 1481.67 Q632.848 1477.06 632.848 1468.33 Q632.848 1459.58 635.904 1455 Q638.982 1450.39 644.792 1450.39 Z" fill="#000000" fill-rule="nonzero" fill-opacity="1" /><path clip-path="url(#clip350)" d="M1020.28 1481.64 L1027.92 1481.64 L1027.92 1455.28 L1019.61 1456.95 L1019.61 1452.69 L1027.87 1451.02 L1032.55 1451.02 L1032.55 1481.64 L1040.19 1481.64 L1040.19 1485.58 L1020.28 1485.58 L1020.28 1481.64 Z" fill="#000000" fill-rule="nonzero" fill-opacity="1" /><path clip-path="url(#clip350)" d="M1059.63 1454.1 Q1056.02 1454.1 1054.19 1457.66 Q1052.39 1461.2 1052.39 1468.33 Q1052.39 1475.44 1054.19 1479.01 Q1056.02 1482.55 1059.63 1482.55 Q1063.26 1482.55 1065.07 1479.01 Q1066.9 1475.44 1066.9 1468.33 Q1066.9 1461.2 1065.07 1457.66 Q1063.26 1454.1 1059.63 1454.1 M1059.63 1450.39 Q1065.44 1450.39 1068.5 1455 Q1071.57 1459.58 1071.57 1468.33 Q1071.57 1477.06 1068.5 1481.67 Q1065.44 1486.25 1059.63 1486.25 Q1053.82 1486.25 1050.74 1481.67 Q1047.69 1477.06 1047.69 1468.33 Q1047.69 1459.58 1050.74 1455 Q1053.82 1450.39 1059.63 1450.39 Z" fill="#000000" fill-rule="nonzero" fill-opacity="1" /><path clip-path="url(#clip350)" d="M1089.79 1454.1 Q1086.18 1454.1 1084.35 1457.66 Q1082.55 1461.2 1082.55 1468.33 Q1082.55 1475.44 1084.35 1479.01 Q1086.18 1482.55 1089.79 1482.55 Q1093.43 1482.55 1095.23 1479.01 Q1097.06 1475.44 1097.06 1468.33 Q1097.06 1461.2 1095.23 1457.66 Q1093.43 1454.1 1089.79 1454.1 M1089.79 1450.39 Q1095.6 1450.39 1098.66 1455 Q1101.74 1459.58 1101.74 1468.33 Q1101.74 1477.06 1098.66 1481.67 Q1095.6 1486.25 1089.79 1486.25 Q1083.98 1486.25 1080.9 1481.67 Q1077.85 1477.06 1077.85 1468.33 Q1077.85 1459.58 1080.9 1455 Q1083.98 1450.39 1089.79 1450.39 Z" fill="#000000" fill-rule="nonzero" fill-opacity="1" /><path clip-path="url(#clip350)" d="M1450.97 1481.64 L1458.61 1481.64 L1458.61 1455.28 L1450.3 1456.95 L1450.3 1452.69 L1458.57 1451.02 L1463.24 1451.02 L1463.24 1481.64 L1470.88 1481.64 L1470.88 1485.58 L1450.97 1485.58 L1450.97 1481.64 Z" fill="#000000" fill-rule="nonzero" fill-opacity="1" /><path clip-path="url(#clip350)" d="M1480.37 1451.02 L1498.73 1451.02 L1498.73 1454.96 L1484.65 1454.96 L1484.65 1463.43 Q1485.67 1463.08 1486.69 1462.92 Q1487.71 1462.73 1488.73 1462.73 Q1494.51 1462.73 1497.89 1465.9 Q1501.27 1469.08 1501.27 1474.49 Q1501.27 1480.07 1497.8 1483.17 Q1494.33 1486.25 1488.01 1486.25 Q1485.83 1486.25 1483.57 1485.88 Q1481.32 1485.51 1478.91 1484.77 L1478.91 1480.07 Q1481 1481.2 1483.22 1481.76 Q1485.44 1482.32 1487.92 1482.32 Q1491.92 1482.32 1494.26 1480.21 Q1496.6 1478.1 1496.6 1474.49 Q1496.6 1470.88 1494.26 1468.77 Q1491.92 1466.67 1487.92 1466.67 Q1486.04 1466.67 1484.17 1467.08 Q1482.32 1467.5 1480.37 1468.38 L1480.37 1451.02 Z" fill="#000000" fill-rule="nonzero" fill-opacity="1" /><path clip-path="url(#clip350)" d="M1520.49 1454.1 Q1516.88 1454.1 1515.05 1457.66 Q1513.24 1461.2 1513.24 1468.33 Q1513.24 1475.44 1515.05 1479.01 Q1516.88 1482.55 1520.49 1482.55 Q1524.12 1482.55 1525.93 1479.01 Q1527.76 1475.44 1527.76 1468.33 Q1527.76 1461.2 1525.93 1457.66 Q1524.12 1454.1 1520.49 1454.1 M1520.49 1450.39 Q1526.3 1450.39 1529.35 1455 Q1532.43 1459.58 1532.43 1468.33 Q1532.43 1477.06 1529.35 1481.67 Q1526.3 1486.25 1520.49 1486.25 Q1514.68 1486.25 1511.6 1481.67 Q1508.54 1477.06 1508.54 1468.33 Q1508.54 1459.58 1511.6 1455 Q1514.68 1450.39 1520.49 1450.39 Z" fill="#000000" fill-rule="nonzero" fill-opacity="1" /><path clip-path="url(#clip350)" d="M1885.75 1481.64 L1902.07 1481.64 L1902.07 1485.58 L1880.13 1485.58 L1880.13 1481.64 Q1882.79 1478.89 1887.37 1474.26 Q1891.98 1469.61 1893.16 1468.27 Q1895.41 1465.74 1896.29 1464.01 Q1897.19 1462.25 1897.19 1460.56 Q1897.19 1457.8 1895.24 1456.07 Q1893.32 1454.33 1890.22 1454.33 Q1888.02 1454.33 1885.57 1455.09 Q1883.14 1455.86 1880.36 1457.41 L1880.36 1452.69 Q1883.18 1451.55 1885.64 1450.97 Q1888.09 1450.39 1890.13 1450.39 Q1895.5 1450.39 1898.69 1453.08 Q1901.89 1455.77 1901.89 1460.26 Q1901.89 1462.39 1901.08 1464.31 Q1900.29 1466.2 1898.18 1468.8 Q1897.61 1469.47 1894.5 1472.69 Q1891.4 1475.88 1885.75 1481.64 Z" fill="#000000" fill-rule="nonzero" fill-opacity="1" /><path clip-path="url(#clip350)" d="M1921.89 1454.1 Q1918.28 1454.1 1916.45 1457.66 Q1914.64 1461.2 1914.64 1468.33 Q1914.64 1475.44 1916.45 1479.01 Q1918.28 1482.55 1921.89 1482.55 Q1925.52 1482.55 1927.33 1479.01 Q1929.16 1475.44 1929.16 1468.33 Q1929.16 1461.2 1927.33 1457.66 Q1925.52 1454.1 1921.89 1454.1 M1921.89 1450.39 Q1927.7 1450.39 1930.75 1455 Q1933.83 1459.58 1933.83 1468.33 Q1933.83 1477.06 1930.75 1481.67 Q1927.7 1486.25 1921.89 1486.25 Q1916.08 1486.25 1913 1481.67 Q1909.94 1477.06 1909.94 1468.33 Q1909.94 1459.58 1913 1455 Q1916.08 1450.39 1921.89 1450.39 Z" fill="#000000" fill-rule="nonzero" fill-opacity="1" /><path clip-path="url(#clip350)" d="M1952.05 1454.1 Q1948.44 1454.1 1946.61 1457.66 Q1944.8 1461.2 1944.8 1468.33 Q1944.8 1475.44 1946.61 1479.01 Q1948.44 1482.55 1952.05 1482.55 Q1955.68 1482.55 1957.49 1479.01 Q1959.32 1475.44 1959.32 1468.33 Q1959.32 1461.2 1957.49 1457.66 Q1955.68 1454.1 1952.05 1454.1 M1952.05 1450.39 Q1957.86 1450.39 1960.92 1455 Q1963.99 1459.58 1963.99 1468.33 Q1963.99 1477.06 1960.92 1481.67 Q1957.86 1486.25 1952.05 1486.25 Q1946.24 1486.25 1943.16 1481.67 Q1940.11 1477.06 1940.11 1468.33 Q1940.11 1459.58 1943.16 1455 Q1946.24 1450.39 1952.05 1450.39 Z" fill="#000000" fill-rule="nonzero" fill-opacity="1" /><path clip-path="url(#clip350)" d="M2316.45 1481.64 L2332.77 1481.64 L2332.77 1485.58 L2310.82 1485.58 L2310.82 1481.64 Q2313.49 1478.89 2318.07 1474.26 Q2322.68 1469.61 2323.86 1468.27 Q2326.1 1465.74 2326.98 1464.01 Q2327.88 1462.25 2327.88 1460.56 Q2327.88 1457.8 2325.94 1456.07 Q2324.02 1454.33 2320.92 1454.33 Q2318.72 1454.33 2316.26 1455.09 Q2313.83 1455.86 2311.05 1457.41 L2311.05 1452.69 Q2313.88 1451.55 2316.33 1450.97 Q2318.79 1450.39 2320.82 1450.39 Q2326.19 1450.39 2329.39 1453.08 Q2332.58 1455.77 2332.58 1460.26 Q2332.58 1462.39 2331.77 1464.31 Q2330.99 1466.2 2328.88 1468.8 Q2328.3 1469.47 2325.2 1472.69 Q2322.1 1475.88 2316.45 1481.64 Z" fill="#000000" fill-rule="nonzero" fill-opacity="1" /><path clip-path="url(#clip350)" d="M2342.63 1451.02 L2360.99 1451.02 L2360.99 1454.96 L2346.91 1454.96 L2346.91 1463.43 Q2347.93 1463.08 2348.95 1462.92 Q2349.97 1462.73 2350.99 1462.73 Q2356.77 1462.73 2360.15 1465.9 Q2363.53 1469.08 2363.53 1474.49 Q2363.53 1480.07 2360.06 1483.17 Q2356.59 1486.25 2350.27 1486.25 Q2348.09 1486.25 2345.82 1485.88 Q2343.58 1485.51 2341.17 1484.77 L2341.17 1480.07 Q2343.25 1481.2 2345.48 1481.76 Q2347.7 1482.32 2350.17 1482.32 Q2354.18 1482.32 2356.52 1480.21 Q2358.86 1478.1 2358.86 1474.49 Q2358.86 1470.88 2356.52 1468.77 Q2354.18 1466.67 2350.17 1466.67 Q2348.3 1466.67 2346.42 1467.08 Q2344.57 1467.5 2342.63 1468.38 L2342.63 1451.02 Z" fill="#000000" fill-rule="nonzero" fill-opacity="1" /><path clip-path="url(#clip350)" d="M2382.74 1454.1 Q2379.13 1454.1 2377.3 1457.66 Q2375.5 1461.2 2375.5 1468.33 Q2375.5 1475.44 2377.3 1479.01 Q2379.13 1482.55 2382.74 1482.55 Q2386.38 1482.55 2388.18 1479.01 Q2390.01 1475.44 2390.01 1468.33 Q2390.01 1461.2 2388.18 1457.66 Q2386.38 1454.1 2382.74 1454.1 M2382.74 1450.39 Q2388.55 1450.39 2391.61 1455 Q2394.69 1459.58 2394.69 1468.33 Q2394.69 1477.06 2391.61 1481.67 Q2388.55 1486.25 2382.74 1486.25 Q2376.93 1486.25 2373.86 1481.67 Q2370.8 1477.06 2370.8 1468.33 Q2370.8 1459.58 2373.86 1455 Q2376.93 1450.39 2382.74 1450.39 Z" fill="#000000" fill-rule="nonzero" fill-opacity="1" /><path clip-path="url(#clip350)" d="M1275.08 1522.27 L1275.08 1532.4 L1287.14 1532.4 L1287.14 1536.95 L1275.08 1536.95 L1275.08 1556.3 Q1275.08 1560.66 1276.26 1561.9 Q1277.47 1563.14 1281.13 1563.14 L1287.14 1563.14 L1287.14 1568.04 L1281.13 1568.04 Q1274.35 1568.04 1271.77 1565.53 Q1269.19 1562.98 1269.19 1556.3 L1269.19 1536.95 L1264.9 1536.95 L1264.9 1532.4 L1269.19 1532.4 L1269.19 1522.27 L1275.08 1522.27 Z" fill="#000000" fill-rule="nonzero" fill-opacity="1" /><polyline clip-path="url(#clip350)" style="stroke:#000000; stroke-linecap:round; stroke-linejoin:round; stroke-width:4; stroke-opacity:1; fill:none" points="199.283,1423.18 199.283,47.2441 "/>
<polyline clip-path="url(#clip350)" style="stroke:#000000; stroke-linecap:round; stroke-linejoin:round; stroke-width:4; stroke-opacity:1; fill:none" points="199.283,1384.24 218.181,1384.24 "/>
<polyline clip-path="url(#clip350)" style="stroke:#000000; stroke-linecap:round; stroke-linejoin:round; stroke-width:4; stroke-opacity:1; fill:none" points="199.283,1059.4 218.181,1059.4 "/>
<polyline clip-path="url(#clip350)" style="stroke:#000000; stroke-linecap:round; stroke-linejoin:round; stroke-width:4; stroke-opacity:1; fill:none" points="199.283,734.562 218.181,734.562 "/>
<polyline clip-path="url(#clip350)" style="stroke:#000000; stroke-linecap:round; stroke-linejoin:round; stroke-width:4; stroke-opacity:1; fill:none" points="199.283,409.724 218.181,409.724 "/>
<polyline clip-path="url(#clip350)" style="stroke:#000000; stroke-linecap:round; stroke-linejoin:round; stroke-width:4; stroke-opacity:1; fill:none" points="199.283,84.8863 218.181,84.8863 "/>
<path clip-path="url(#clip350)" d="M151.339 1370.04 Q147.728 1370.04 145.899 1373.6 Q144.093 1377.14 144.093 1384.27 Q144.093 1391.38 145.899 1394.94 Q147.728 1398.49 151.339 1398.49 Q154.973 1398.49 156.779 1394.94 Q158.607 1391.38 158.607 1384.27 Q158.607 1377.14 156.779 1373.6 Q154.973 1370.04 151.339 1370.04 M151.339 1366.33 Q157.149 1366.33 160.205 1370.94 Q163.283 1375.52 163.283 1384.27 Q163.283 1393 160.205 1397.61 Q157.149 1402.19 151.339 1402.19 Q145.529 1402.19 142.45 1397.61 Q139.394 1393 139.394 1384.27 Q139.394 1375.52 142.45 1370.94 Q145.529 1366.33 151.339 1366.33 Z" fill="#000000" fill-rule="nonzero" fill-opacity="1" /><path clip-path="url(#clip350)" d="M85.0429 1072.75 L101.362 1072.75 L101.362 1076.68 L79.4179 1076.68 L79.4179 1072.75 Q82.0799 1069.99 86.6632 1065.36 Q91.2697 1060.71 92.4502 1059.37 Q94.6956 1056.84 95.5752 1055.11 Q96.478 1053.35 96.478 1051.66 Q96.478 1048.9 94.5336 1047.17 Q92.6123 1045.43 89.5104 1045.43 Q87.3114 1045.43 84.8577 1046.19 Q82.4271 1046.96 79.6494 1048.51 L79.6494 1043.79 Q82.4734 1042.65 84.9271 1042.07 Q87.3808 1041.5 89.4178 1041.5 Q94.7882 1041.5 97.9826 1044.18 Q101.177 1046.87 101.177 1051.36 Q101.177 1053.49 100.367 1055.41 Q99.5798 1057.31 97.4734 1059.9 Q96.8947 1060.57 93.7928 1063.79 Q90.691 1066.98 85.0429 1072.75 Z" fill="#000000" fill-rule="nonzero" fill-opacity="1" /><path clip-path="url(#clip350)" d="M111.223 1042.12 L129.58 1042.12 L129.58 1046.06 L115.506 1046.06 L115.506 1054.53 Q116.524 1054.18 117.543 1054.02 Q118.561 1053.83 119.58 1053.83 Q125.367 1053.83 128.746 1057 Q132.126 1060.18 132.126 1065.59 Q132.126 1071.17 128.654 1074.27 Q125.182 1077.35 118.862 1077.35 Q116.686 1077.35 114.418 1076.98 Q112.172 1076.61 109.765 1075.87 L109.765 1071.17 Q111.848 1072.31 114.07 1072.86 Q116.293 1073.42 118.77 1073.42 Q122.774 1073.42 125.112 1071.31 Q127.45 1069.2 127.45 1065.59 Q127.45 1061.98 125.112 1059.87 Q122.774 1057.77 118.77 1057.77 Q116.895 1057.77 115.02 1058.19 Q113.168 1058.6 111.223 1059.48 L111.223 1042.12 Z" fill="#000000" fill-rule="nonzero" fill-opacity="1" /><path clip-path="url(#clip350)" d="M151.339 1045.2 Q147.728 1045.2 145.899 1048.76 Q144.093 1052.31 144.093 1059.44 Q144.093 1066.54 145.899 1070.11 Q147.728 1073.65 151.339 1073.65 Q154.973 1073.65 156.779 1070.11 Q158.607 1066.54 158.607 1059.44 Q158.607 1052.31 156.779 1048.76 Q154.973 1045.2 151.339 1045.2 M151.339 1041.5 Q157.149 1041.5 160.205 1046.1 Q163.283 1050.69 163.283 1059.44 Q163.283 1068.16 160.205 1072.77 Q157.149 1077.35 151.339 1077.35 Q145.529 1077.35 142.45 1072.77 Q139.394 1068.16 139.394 1059.44 Q139.394 1050.69 142.45 1046.1 Q145.529 1041.5 151.339 1041.5 Z" fill="#000000" fill-rule="nonzero" fill-opacity="1" /><path clip-path="url(#clip350)" d="M81.0614 717.282 L99.4178 717.282 L99.4178 721.217 L85.3438 721.217 L85.3438 729.69 Q86.3623 729.342 87.3808 729.18 Q88.3993 728.995 89.4178 728.995 Q95.2049 728.995 98.5845 732.166 Q101.964 735.338 101.964 740.754 Q101.964 746.333 98.4919 749.435 Q95.0197 752.514 88.7003 752.514 Q86.5243 752.514 84.2558 752.143 Q82.0105 751.773 79.6031 751.032 L79.6031 746.333 Q81.6864 747.467 83.9086 748.023 Q86.1308 748.578 88.6077 748.578 Q92.6123 748.578 94.9502 746.472 Q97.2882 744.365 97.2882 740.754 Q97.2882 737.143 94.9502 735.037 Q92.6123 732.93 88.6077 732.93 Q86.7327 732.93 84.8577 733.347 Q83.0058 733.764 81.0614 734.643 L81.0614 717.282 Z" fill="#000000" fill-rule="nonzero" fill-opacity="1" /><path clip-path="url(#clip350)" d="M121.177 720.361 Q117.566 720.361 115.737 723.926 Q113.932 727.467 113.932 734.597 Q113.932 741.703 115.737 745.268 Q117.566 748.81 121.177 748.81 Q124.811 748.81 126.617 745.268 Q128.445 741.703 128.445 734.597 Q128.445 727.467 126.617 723.926 Q124.811 720.361 121.177 720.361 M121.177 716.657 Q126.987 716.657 130.043 721.264 Q133.121 725.847 133.121 734.597 Q133.121 743.324 130.043 747.93 Q126.987 752.514 121.177 752.514 Q115.367 752.514 112.288 747.93 Q109.233 743.324 109.233 734.597 Q109.233 725.847 112.288 721.264 Q115.367 716.657 121.177 716.657 Z" fill="#000000" fill-rule="nonzero" fill-opacity="1" /><path clip-path="url(#clip350)" d="M151.339 720.361 Q147.728 720.361 145.899 723.926 Q144.093 727.467 144.093 734.597 Q144.093 741.703 145.899 745.268 Q147.728 748.81 151.339 748.81 Q154.973 748.81 156.779 745.268 Q158.607 741.703 158.607 734.597 Q158.607 727.467 156.779 723.926 Q154.973 720.361 151.339 720.361 M151.339 716.657 Q157.149 716.657 160.205 721.264 Q163.283 725.847 163.283 734.597 Q163.283 743.324 160.205 747.93 Q157.149 752.514 151.339 752.514 Q145.529 752.514 142.45 747.93 Q139.394 743.324 139.394 734.597 Q139.394 725.847 142.45 721.264 Q145.529 716.657 151.339 716.657 Z" fill="#000000" fill-rule="nonzero" fill-opacity="1" /><path clip-path="url(#clip350)" d="M79.8346 392.444 L102.057 392.444 L102.057 394.435 L89.5104 427.004 L84.6262 427.004 L96.4317 396.379 L79.8346 396.379 L79.8346 392.444 Z" fill="#000000" fill-rule="nonzero" fill-opacity="1" /><path clip-path="url(#clip350)" d="M111.223 392.444 L129.58 392.444 L129.58 396.379 L115.506 396.379 L115.506 404.852 Q116.524 404.504 117.543 404.342 Q118.561 404.157 119.58 404.157 Q125.367 404.157 128.746 407.328 Q132.126 410.5 132.126 415.916 Q132.126 421.495 128.654 424.597 Q125.182 427.676 118.862 427.676 Q116.686 427.676 114.418 427.305 Q112.172 426.935 109.765 426.194 L109.765 421.495 Q111.848 422.629 114.07 423.185 Q116.293 423.74 118.77 423.74 Q122.774 423.74 125.112 421.634 Q127.45 419.527 127.45 415.916 Q127.45 412.305 125.112 410.199 Q122.774 408.092 118.77 408.092 Q116.895 408.092 115.02 408.509 Q113.168 408.926 111.223 409.805 L111.223 392.444 Z" fill="#000000" fill-rule="nonzero" fill-opacity="1" /><path clip-path="url(#clip350)" d="M151.339 395.523 Q147.728 395.523 145.899 399.088 Q144.093 402.629 144.093 409.759 Q144.093 416.865 145.899 420.43 Q147.728 423.972 151.339 423.972 Q154.973 423.972 156.779 420.43 Q158.607 416.865 158.607 409.759 Q158.607 402.629 156.779 399.088 Q154.973 395.523 151.339 395.523 M151.339 391.819 Q157.149 391.819 160.205 396.426 Q163.283 401.009 163.283 409.759 Q163.283 418.486 160.205 423.092 Q157.149 427.676 151.339 427.676 Q145.529 427.676 142.45 423.092 Q139.394 418.486 139.394 409.759 Q139.394 401.009 142.45 396.426 Q145.529 391.819 151.339 391.819 Z" fill="#000000" fill-rule="nonzero" fill-opacity="1" /><path clip-path="url(#clip350)" d="M51.6634 98.2312 L59.3023 98.2312 L59.3023 71.8656 L50.9921 73.5322 L50.9921 69.273 L59.256 67.6063 L63.9319 67.6063 L63.9319 98.2312 L71.5707 98.2312 L71.5707 102.166 L51.6634 102.166 L51.6634 98.2312 Z" fill="#000000" fill-rule="nonzero" fill-opacity="1" /><path clip-path="url(#clip350)" d="M91.0151 70.685 Q87.404 70.685 85.5753 74.2498 Q83.7697 77.7915 83.7697 84.921 Q83.7697 92.0275 85.5753 95.5923 Q87.404 99.1339 91.0151 99.1339 Q94.6493 99.1339 96.4548 95.5923 Q98.2835 92.0275 98.2835 84.921 Q98.2835 77.7915 96.4548 74.2498 Q94.6493 70.685 91.0151 70.685 M91.0151 66.9813 Q96.8252 66.9813 99.8808 71.5878 Q102.959 76.1711 102.959 84.921 Q102.959 93.6478 99.8808 98.2543 Q96.8252 102.838 91.0151 102.838 Q85.2049 102.838 82.1262 98.2543 Q79.0707 93.6478 79.0707 84.921 Q79.0707 76.1711 82.1262 71.5878 Q85.2049 66.9813 91.0151 66.9813 Z" fill="#000000" fill-rule="nonzero" fill-opacity="1" /><path clip-path="url(#clip350)" d="M121.177 70.685 Q117.566 70.685 115.737 74.2498 Q113.932 77.7915 113.932 84.921 Q113.932 92.0275 115.737 95.5923 Q117.566 99.1339 121.177 99.1339 Q124.811 99.1339 126.617 95.5923 Q128.445 92.0275 128.445 84.921 Q128.445 77.7915 126.617 74.2498 Q124.811 70.685 121.177 70.685 M121.177 66.9813 Q126.987 66.9813 130.043 71.5878 Q133.121 76.1711 133.121 84.921 Q133.121 93.6478 130.043 98.2543 Q126.987 102.838 121.177 102.838 Q115.367 102.838 112.288 98.2543 Q109.233 93.6478 109.233 84.921 Q109.233 76.1711 112.288 71.5878 Q115.367 66.9813 121.177 66.9813 Z" fill="#000000" fill-rule="nonzero" fill-opacity="1" /><path clip-path="url(#clip350)" d="M151.339 70.685 Q147.728 70.685 145.899 74.2498 Q144.093 77.7915 144.093 84.921 Q144.093 92.0275 145.899 95.5923 Q147.728 99.1339 151.339 99.1339 Q154.973 99.1339 156.779 95.5923 Q158.607 92.0275 158.607 84.921 Q158.607 77.7915 156.779 74.2498 Q154.973 70.685 151.339 70.685 M151.339 66.9813 Q157.149 66.9813 160.205 71.5878 Q163.283 76.1711 163.283 84.921 Q163.283 93.6478 160.205 98.2543 Q157.149 102.838 151.339 102.838 Q145.529 102.838 142.45 98.2543 Q139.394 93.6478 139.394 84.921 Q139.394 76.1711 142.45 71.5878 Q145.529 66.9813 151.339 66.9813 Z" fill="#000000" fill-rule="nonzero" fill-opacity="1" /><polyline clip-path="url(#clip351)" style="stroke:#009af9; stroke-linecap:round; stroke-linejoin:round; stroke-width:8; stroke-opacity:1; fill:none" points="199.283,86.1857 285.422,100.479 371.561,126.466 457.7,192.733 543.839,331.763 629.978,564.347 716.117,850.205 802.256,1071.09 888.394,1194.53 974.533,1284.19 1060.67,1334.86 1146.81,1354.35 1232.95,1366.05 1319.09,1377.74 1405.23,1380.34 1491.37,1382.94 1577.51,1382.94 1663.64,1382.94 1749.78,1382.94 1835.92,1384.24 1922.06,1384.24 2008.2,1384.24 2094.34,1384.24 2180.48,1384.24 2266.62,1384.24 2352.76,1384.24 "/>
<path clip-path="url(#clip351)" d="M199.283 102.186 L187.971 97.4977 L183.283 86.1857 L187.971 74.8737 L199.283 70.1857 L210.595 74.8737 L215.283 86.1857 L210.595 97.4977 Z" fill="#009af9" fill-rule="evenodd" fill-opacity="1" stroke="#000000" stroke-opacity="1" stroke-width="3.2"/>
<path clip-path="url(#clip351)" d="M285.422 116.479 L274.11 111.791 L269.422 100.479 L274.11 89.1665 L285.422 84.4785 L296.734 89.1665 L301.422 100.479 L296.734 111.791 Z" fill="#009af9" fill-rule="evenodd" fill-opacity="1" stroke="#000000" stroke-opacity="1" stroke-width="3.2"/>
<path clip-path="url(#clip351)" d="M371.561 142.466 L360.249 137.778 L355.561 126.466 L360.249 115.154 L371.561 110.466 L382.873 115.154 L387.561 126.466 L382.873 137.778 Z" fill="#009af9" fill-rule="evenodd" fill-opacity="1" stroke="#000000" stroke-opacity="1" stroke-width="3.2"/>
<path clip-path="url(#clip351)" d="M457.7 208.733 L446.388 204.045 L441.7 192.733 L446.388 181.421 L457.7 176.733 L469.012 181.421 L473.7 192.733 L469.012 204.045 Z" fill="#009af9" fill-rule="evenodd" fill-opacity="1" stroke="#000000" stroke-opacity="1" stroke-width="3.2"/>
<path clip-path="url(#clip351)" d="M543.839 347.763 L532.527 343.075 L527.839 331.763 L532.527 320.451 L543.839 315.763 L555.151 320.451 L559.839 331.763 L555.151 343.075 Z" fill="#009af9" fill-rule="evenodd" fill-opacity="1" stroke="#000000" stroke-opacity="1" stroke-width="3.2"/>
<path clip-path="url(#clip351)" d="M629.978 580.347 L618.666 575.659 L613.978 564.347 L618.666 553.035 L629.978 548.347 L641.29 553.035 L645.978 564.347 L641.29 575.659 Z" fill="#009af9" fill-rule="evenodd" fill-opacity="1" stroke="#000000" stroke-opacity="1" stroke-width="3.2"/>
<path clip-path="url(#clip351)" d="M716.117 866.205 L704.805 861.517 L700.117 850.205 L704.805 838.893 L716.117 834.205 L727.429 838.893 L732.117 850.205 L727.429 861.517 Z" fill="#009af9" fill-rule="evenodd" fill-opacity="1" stroke="#000000" stroke-opacity="1" stroke-width="3.2"/>
<path clip-path="url(#clip351)" d="M802.256 1087.09 L790.944 1082.41 L786.256 1071.09 L790.944 1059.78 L802.256 1055.09 L813.568 1059.78 L818.256 1071.09 L813.568 1082.41 Z" fill="#009af9" fill-rule="evenodd" fill-opacity="1" stroke="#000000" stroke-opacity="1" stroke-width="3.2"/>
<path clip-path="url(#clip351)" d="M888.394 1210.53 L877.082 1205.84 L872.394 1194.53 L877.082 1183.22 L888.394 1178.53 L899.706 1183.22 L904.394 1194.53 L899.706 1205.84 Z" fill="#009af9" fill-rule="evenodd" fill-opacity="1" stroke="#000000" stroke-opacity="1" stroke-width="3.2"/>
<path clip-path="url(#clip351)" d="M974.533 1300.19 L963.221 1295.5 L958.533 1284.19 L963.221 1272.88 L974.533 1268.19 L985.845 1272.88 L990.533 1284.19 L985.845 1295.5 Z" fill="#009af9" fill-rule="evenodd" fill-opacity="1" stroke="#000000" stroke-opacity="1" stroke-width="3.2"/>
<path clip-path="url(#clip351)" d="M1060.67 1350.86 L1049.36 1346.17 L1044.67 1334.86 L1049.36 1323.55 L1060.67 1318.86 L1071.98 1323.55 L1076.67 1334.86 L1071.98 1346.17 Z" fill="#009af9" fill-rule="evenodd" fill-opacity="1" stroke="#000000" stroke-opacity="1" stroke-width="3.2"/>
<path clip-path="url(#clip351)" d="M1146.81 1370.35 L1135.5 1365.67 L1130.81 1354.35 L1135.5 1343.04 L1146.81 1338.35 L1158.12 1343.04 L1162.81 1354.35 L1158.12 1365.67 Z" fill="#009af9" fill-rule="evenodd" fill-opacity="1" stroke="#000000" stroke-opacity="1" stroke-width="3.2"/>
<path clip-path="url(#clip351)" d="M1232.95 1382.05 L1221.64 1377.36 L1216.95 1366.05 L1221.64 1354.74 L1232.95 1350.05 L1244.26 1354.74 L1248.95 1366.05 L1244.26 1377.36 Z" fill="#009af9" fill-rule="evenodd" fill-opacity="1" stroke="#000000" stroke-opacity="1" stroke-width="3.2"/>
<path clip-path="url(#clip351)" d="M1319.09 1393.74 L1307.78 1389.05 L1303.09 1377.74 L1307.78 1366.43 L1319.09 1361.74 L1330.4 1366.43 L1335.09 1377.74 L1330.4 1389.05 Z" fill="#009af9" fill-rule="evenodd" fill-opacity="1" stroke="#000000" stroke-opacity="1" stroke-width="3.2"/>
<path clip-path="url(#clip351)" d="M1405.23 1396.34 L1393.92 1391.65 L1389.23 1380.34 L1393.92 1369.03 L1405.23 1364.34 L1416.54 1369.03 L1421.23 1380.34 L1416.54 1391.65 Z" fill="#009af9" fill-rule="evenodd" fill-opacity="1" stroke="#000000" stroke-opacity="1" stroke-width="3.2"/>
<path clip-path="url(#clip351)" d="M1491.37 1398.94 L1480.05 1394.25 L1475.37 1382.94 L1480.05 1371.63 L1491.37 1366.94 L1502.68 1371.63 L1507.37 1382.94 L1502.68 1394.25 Z" fill="#009af9" fill-rule="evenodd" fill-opacity="1" stroke="#000000" stroke-opacity="1" stroke-width="3.2"/>
<path clip-path="url(#clip351)" d="M1577.51 1398.94 L1566.19 1394.25 L1561.51 1382.94 L1566.19 1371.63 L1577.51 1366.94 L1588.82 1371.63 L1593.51 1382.94 L1588.82 1394.25 Z" fill="#009af9" fill-rule="evenodd" fill-opacity="1" stroke="#000000" stroke-opacity="1" stroke-width="3.2"/>
<path clip-path="url(#clip351)" d="M1663.64 1398.94 L1652.33 1394.25 L1647.64 1382.94 L1652.33 1371.63 L1663.64 1366.94 L1674.96 1371.63 L1679.64 1382.94 L1674.96 1394.25 Z" fill="#009af9" fill-rule="evenodd" fill-opacity="1" stroke="#000000" stroke-opacity="1" stroke-width="3.2"/>
<path clip-path="url(#clip351)" d="M1749.78 1398.94 L1738.47 1394.25 L1733.78 1382.94 L1738.47 1371.63 L1749.78 1366.94 L1761.1 1371.63 L1765.78 1382.94 L1761.1 1394.25 Z" fill="#009af9" fill-rule="evenodd" fill-opacity="1" stroke="#000000" stroke-opacity="1" stroke-width="3.2"/>
<path clip-path="url(#clip351)" d="M1835.92 1400.24 L1824.61 1395.55 L1819.92 1384.24 L1824.61 1372.93 L1835.92 1368.24 L1847.23 1372.93 L1851.92 1384.24 L1847.23 1395.55 Z" fill="#009af9" fill-rule="evenodd" fill-opacity="1" stroke="#000000" stroke-opacity="1" stroke-width="3.2"/>
<path clip-path="url(#clip351)" d="M1922.06 1400.24 L1910.75 1395.55 L1906.06 1384.24 L1910.75 1372.93 L1922.06 1368.24 L1933.37 1372.93 L1938.06 1384.24 L1933.37 1395.55 Z" fill="#009af9" fill-rule="evenodd" fill-opacity="1" stroke="#000000" stroke-opacity="1" stroke-width="3.2"/>
<path clip-path="url(#clip351)" d="M2008.2 1400.24 L1996.89 1395.55 L1992.2 1384.24 L1996.89 1372.93 L2008.2 1368.24 L2019.51 1372.93 L2024.2 1384.24 L2019.51 1395.55 Z" fill="#009af9" fill-rule="evenodd" fill-opacity="1" stroke="#000000" stroke-opacity="1" stroke-width="3.2"/>
<path clip-path="url(#clip351)" d="M2094.34 1400.24 L2083.03 1395.55 L2078.34 1384.24 L2083.03 1372.93 L2094.34 1368.24 L2105.65 1372.93 L2110.34 1384.24 L2105.65 1395.55 Z" fill="#009af9" fill-rule="evenodd" fill-opacity="1" stroke="#000000" stroke-opacity="1" stroke-width="3.2"/>
<path clip-path="url(#clip351)" d="M2180.48 1400.24 L2169.17 1395.55 L2164.48 1384.24 L2169.17 1372.93 L2180.48 1368.24 L2191.79 1372.93 L2196.48 1384.24 L2191.79 1395.55 Z" fill="#009af9" fill-rule="evenodd" fill-opacity="1" stroke="#000000" stroke-opacity="1" stroke-width="3.2"/>
<path clip-path="url(#clip351)" d="M2266.62 1400.24 L2255.3 1395.55 L2250.62 1384.24 L2255.3 1372.93 L2266.62 1368.24 L2277.93 1372.93 L2282.62 1384.24 L2277.93 1395.55 Z" fill="#009af9" fill-rule="evenodd" fill-opacity="1" stroke="#000000" stroke-opacity="1" stroke-width="3.2"/>
<path clip-path="url(#clip351)" d="M2352.76 1400.24 L2341.44 1395.55 L2336.76 1384.24 L2341.44 1372.93 L2352.76 1368.24 L2364.07 1372.93 L2368.76 1384.24 L2364.07 1395.55 Z" fill="#009af9" fill-rule="evenodd" fill-opacity="1" stroke="#000000" stroke-opacity="1" stroke-width="3.2"/>
<polyline clip-path="url(#clip351)" style="stroke:#e26f46; stroke-linecap:round; stroke-linejoin:round; stroke-width:8; stroke-opacity:1; fill:none" points="199.283,1371.24 285.422,1359.55 371.561,1336.16 457.7,1276.39 543.839,1152.95 629.978,941.159 716.117,721.569 802.256,596.831 888.394,539.66 974.533,526.666 1060.67,559.15 1146.81,624.117 1232.95,678.69 1319.09,725.467 1405.23,790.434 1491.37,834.612 1577.51,883.988 1663.64,948.955 1749.78,999.63 1835.92,1032.11 1922.06,1062 2008.2,1084.09 2094.34,1117.87 2180.48,1154.25 2266.62,1176.34 2352.76,1191.93 "/>
<path clip-path="url(#clip351)" d="M199.283 1387.24 L187.971 1382.56 L183.283 1371.24 L187.971 1359.93 L199.283 1355.24 L210.595 1359.93 L215.283 1371.24 L210.595 1382.56 Z" fill="#e26f46" fill-rule="evenodd" fill-opacity="1" stroke="#000000" stroke-opacity="1" stroke-width="3.2"/>
<path clip-path="url(#clip351)" d="M285.422 1375.55 L274.11 1370.86 L269.422 1359.55 L274.11 1348.24 L285.422 1343.55 L296.734 1348.24 L301.422 1359.55 L296.734 1370.86 Z" fill="#e26f46" fill-rule="evenodd" fill-opacity="1" stroke="#000000" stroke-opacity="1" stroke-width="3.2"/>
<path clip-path="url(#clip351)" d="M371.561 1352.16 L360.249 1347.47 L355.561 1336.16 L360.249 1324.85 L371.561 1320.16 L382.873 1324.85 L387.561 1336.16 L382.873 1347.47 Z" fill="#e26f46" fill-rule="evenodd" fill-opacity="1" stroke="#000000" stroke-opacity="1" stroke-width="3.2"/>
<path clip-path="url(#clip351)" d="M457.7 1292.39 L446.388 1287.7 L441.7 1276.39 L446.388 1265.08 L457.7 1260.39 L469.012 1265.08 L473.7 1276.39 L469.012 1287.7 Z" fill="#e26f46" fill-rule="evenodd" fill-opacity="1" stroke="#000000" stroke-opacity="1" stroke-width="3.2"/>
<path clip-path="url(#clip351)" d="M543.839 1168.95 L532.527 1164.27 L527.839 1152.95 L532.527 1141.64 L543.839 1136.95 L555.151 1141.64 L559.839 1152.95 L555.151 1164.27 Z" fill="#e26f46" fill-rule="evenodd" fill-opacity="1" stroke="#000000" stroke-opacity="1" stroke-width="3.2"/>
<path clip-path="url(#clip351)" d="M629.978 957.159 L618.666 952.471 L613.978 941.159 L618.666 929.847 L629.978 925.159 L641.29 929.847 L645.978 941.159 L641.29 952.471 Z" fill="#e26f46" fill-rule="evenodd" fill-opacity="1" stroke="#000000" stroke-opacity="1" stroke-width="3.2"/>
<path clip-path="url(#clip351)" d="M716.117 737.569 L704.805 732.881 L700.117 721.569 L704.805 710.257 L716.117 705.569 L727.429 710.257 L732.117 721.569 L727.429 732.881 Z" fill="#e26f46" fill-rule="evenodd" fill-opacity="1" stroke="#000000" stroke-opacity="1" stroke-width="3.2"/>
<path clip-path="url(#clip351)" d="M802.256 612.831 L790.944 608.143 L786.256 596.831 L790.944 585.519 L802.256 580.831 L813.568 585.519 L818.256 596.831 L813.568 608.143 Z" fill="#e26f46" fill-rule="evenodd" fill-opacity="1" stroke="#000000" stroke-opacity="1" stroke-width="3.2"/>
<path clip-path="url(#clip351)" d="M888.394 555.66 L877.082 550.972 L872.394 539.66 L877.082 528.348 L888.394 523.66 L899.706 528.348 L904.394 539.66 L899.706 550.972 Z" fill="#e26f46" fill-rule="evenodd" fill-opacity="1" stroke="#000000" stroke-opacity="1" stroke-width="3.2"/>
<path clip-path="url(#clip351)" d="M974.533 542.666 L963.221 537.978 L958.533 526.666 L963.221 515.354 L974.533 510.666 L985.845 515.354 L990.533 526.666 L985.845 537.978 Z" fill="#e26f46" fill-rule="evenodd" fill-opacity="1" stroke="#000000" stroke-opacity="1" stroke-width="3.2"/>
<path clip-path="url(#clip351)" d="M1060.67 575.15 L1049.36 570.462 L1044.67 559.15 L1049.36 547.838 L1060.67 543.15 L1071.98 547.838 L1076.67 559.15 L1071.98 570.462 Z" fill="#e26f46" fill-rule="evenodd" fill-opacity="1" stroke="#000000" stroke-opacity="1" stroke-width="3.2"/>
<path clip-path="url(#clip351)" d="M1146.81 640.117 L1135.5 635.429 L1130.81 624.117 L1135.5 612.805 L1146.81 608.117 L1158.12 612.805 L1162.81 624.117 L1158.12 635.429 Z" fill="#e26f46" fill-rule="evenodd" fill-opacity="1" stroke="#000000" stroke-opacity="1" stroke-width="3.2"/>
<path clip-path="url(#clip351)" d="M1232.95 694.69 L1221.64 690.002 L1216.95 678.69 L1221.64 667.378 L1232.95 662.69 L1244.26 667.378 L1248.95 678.69 L1244.26 690.002 Z" fill="#e26f46" fill-rule="evenodd" fill-opacity="1" stroke="#000000" stroke-opacity="1" stroke-width="3.2"/>
<path clip-path="url(#clip351)" d="M1319.09 741.467 L1307.78 736.779 L1303.09 725.467 L1307.78 714.155 L1319.09 709.467 L1330.4 714.155 L1335.09 725.467 L1330.4 736.779 Z" fill="#e26f46" fill-rule="evenodd" fill-opacity="1" stroke="#000000" stroke-opacity="1" stroke-width="3.2"/>
<path clip-path="url(#clip351)" d="M1405.23 806.434 L1393.92 801.746 L1389.23 790.434 L1393.92 779.122 L1405.23 774.434 L1416.54 779.122 L1421.23 790.434 L1416.54 801.746 Z" fill="#e26f46" fill-rule="evenodd" fill-opacity="1" stroke="#000000" stroke-opacity="1" stroke-width="3.2"/>
<path clip-path="url(#clip351)" d="M1491.37 850.612 L1480.05 845.924 L1475.37 834.612 L1480.05 823.3 L1491.37 818.612 L1502.68 823.3 L1507.37 834.612 L1502.68 845.924 Z" fill="#e26f46" fill-rule="evenodd" fill-opacity="1" stroke="#000000" stroke-opacity="1" stroke-width="3.2"/>
<path clip-path="url(#clip351)" d="M1577.51 899.988 L1566.19 895.3 L1561.51 883.988 L1566.19 872.676 L1577.51 867.988 L1588.82 872.676 L1593.51 883.988 L1588.82 895.3 Z" fill="#e26f46" fill-rule="evenodd" fill-opacity="1" stroke="#000000" stroke-opacity="1" stroke-width="3.2"/>
<path clip-path="url(#clip351)" d="M1663.64 964.955 L1652.33 960.267 L1647.64 948.955 L1652.33 937.643 L1663.64 932.955 L1674.96 937.643 L1679.64 948.955 L1674.96 960.267 Z" fill="#e26f46" fill-rule="evenodd" fill-opacity="1" stroke="#000000" stroke-opacity="1" stroke-width="3.2"/>
<path clip-path="url(#clip351)" d="M1749.78 1015.63 L1738.47 1010.94 L1733.78 999.63 L1738.47 988.318 L1749.78 983.63 L1761.1 988.318 L1765.78 999.63 L1761.1 1010.94 Z" fill="#e26f46" fill-rule="evenodd" fill-opacity="1" stroke="#000000" stroke-opacity="1" stroke-width="3.2"/>
<path clip-path="url(#clip351)" d="M1835.92 1048.11 L1824.61 1043.43 L1819.92 1032.11 L1824.61 1020.8 L1835.92 1016.11 L1847.23 1020.8 L1851.92 1032.11 L1847.23 1043.43 Z" fill="#e26f46" fill-rule="evenodd" fill-opacity="1" stroke="#000000" stroke-opacity="1" stroke-width="3.2"/>
<path clip-path="url(#clip351)" d="M1922.06 1078 L1910.75 1073.31 L1906.06 1062 L1910.75 1050.69 L1922.06 1046 L1933.37 1050.69 L1938.06 1062 L1933.37 1073.31 Z" fill="#e26f46" fill-rule="evenodd" fill-opacity="1" stroke="#000000" stroke-opacity="1" stroke-width="3.2"/>
<path clip-path="url(#clip351)" d="M2008.2 1100.09 L1996.89 1095.4 L1992.2 1084.09 L1996.89 1072.78 L2008.2 1068.09 L2019.51 1072.78 L2024.2 1084.09 L2019.51 1095.4 Z" fill="#e26f46" fill-rule="evenodd" fill-opacity="1" stroke="#000000" stroke-opacity="1" stroke-width="3.2"/>
<path clip-path="url(#clip351)" d="M2094.34 1133.87 L2083.03 1129.18 L2078.34 1117.87 L2083.03 1106.56 L2094.34 1101.87 L2105.65 1106.56 L2110.34 1117.87 L2105.65 1129.18 Z" fill="#e26f46" fill-rule="evenodd" fill-opacity="1" stroke="#000000" stroke-opacity="1" stroke-width="3.2"/>
<path clip-path="url(#clip351)" d="M2180.48 1170.25 L2169.17 1165.56 L2164.48 1154.25 L2169.17 1142.94 L2180.48 1138.25 L2191.79 1142.94 L2196.48 1154.25 L2191.79 1165.56 Z" fill="#e26f46" fill-rule="evenodd" fill-opacity="1" stroke="#000000" stroke-opacity="1" stroke-width="3.2"/>
<path clip-path="url(#clip351)" d="M2266.62 1192.34 L2255.3 1187.65 L2250.62 1176.34 L2255.3 1165.03 L2266.62 1160.34 L2277.93 1165.03 L2282.62 1176.34 L2277.93 1187.65 Z" fill="#e26f46" fill-rule="evenodd" fill-opacity="1" stroke="#000000" stroke-opacity="1" stroke-width="3.2"/>
<path clip-path="url(#clip351)" d="M2352.76 1207.93 L2341.44 1203.25 L2336.76 1191.93 L2341.44 1180.62 L2352.76 1175.93 L2364.07 1180.62 L2368.76 1191.93 L2364.07 1203.25 Z" fill="#e26f46" fill-rule="evenodd" fill-opacity="1" stroke="#000000" stroke-opacity="1" stroke-width="3.2"/>
<polyline clip-path="url(#clip351)" style="stroke:#3da44d; stroke-linecap:round; stroke-linejoin:round; stroke-width:8; stroke-opacity:1; fill:none" points="199.283,1384.24 285.422,1381.64 371.561,1379.04 457.7,1372.54 543.839,1356.95 629.978,1336.16 716.117,1269.9 802.256,1173.74 888.394,1107.48 974.533,1030.81 1060.67,947.656 1146.81,863.198 1232.95,796.931 1319.09,738.46 1405.23,670.894 1491.37,624.117 1577.51,574.742 1663.64,509.774 1749.78,459.1 1835.92,425.317 1922.06,395.431 2008.2,373.342 2094.34,339.559 2180.48,303.177 2266.62,281.088 2352.76,265.496 "/>
<path clip-path="url(#clip351)" d="M199.283 1400.24 L187.971 1395.55 L183.283 1384.24 L187.971 1372.93 L199.283 1368.24 L210.595 1372.93 L215.283 1384.24 L210.595 1395.55 Z" fill="#3da44d" fill-rule="evenodd" fill-opacity="1" stroke="#000000" stroke-opacity="1" stroke-width="3.2"/>
<path clip-path="url(#clip351)" d="M285.422 1397.64 L274.11 1392.95 L269.422 1381.64 L274.11 1370.33 L285.422 1365.64 L296.734 1370.33 L301.422 1381.64 L296.734 1392.95 Z" fill="#3da44d" fill-rule="evenodd" fill-opacity="1" stroke="#000000" stroke-opacity="1" stroke-width="3.2"/>
<path clip-path="url(#clip351)" d="M371.561 1395.04 L360.249 1390.35 L355.561 1379.04 L360.249 1367.73 L371.561 1363.04 L382.873 1367.73 L387.561 1379.04 L382.873 1390.35 Z" fill="#3da44d" fill-rule="evenodd" fill-opacity="1" stroke="#000000" stroke-opacity="1" stroke-width="3.2"/>
<path clip-path="url(#clip351)" d="M457.7 1388.54 L446.388 1383.86 L441.7 1372.54 L446.388 1361.23 L457.7 1356.54 L469.012 1361.23 L473.7 1372.54 L469.012 1383.86 Z" fill="#3da44d" fill-rule="evenodd" fill-opacity="1" stroke="#000000" stroke-opacity="1" stroke-width="3.2"/>
<path clip-path="url(#clip351)" d="M543.839 1372.95 L532.527 1368.26 L527.839 1356.95 L532.527 1345.64 L543.839 1340.95 L555.151 1345.64 L559.839 1356.95 L555.151 1368.26 Z" fill="#3da44d" fill-rule="evenodd" fill-opacity="1" stroke="#000000" stroke-opacity="1" stroke-width="3.2"/>
<path clip-path="url(#clip351)" d="M629.978 1352.16 L618.666 1347.47 L613.978 1336.16 L618.666 1324.85 L629.978 1320.16 L641.29 1324.85 L645.978 1336.16 L641.29 1347.47 Z" fill="#3da44d" fill-rule="evenodd" fill-opacity="1" stroke="#000000" stroke-opacity="1" stroke-width="3.2"/>
<path clip-path="url(#clip351)" d="M716.117 1285.9 L704.805 1281.21 L700.117 1269.9 L704.805 1258.58 L716.117 1253.9 L727.429 1258.58 L732.117 1269.9 L727.429 1281.21 Z" fill="#3da44d" fill-rule="evenodd" fill-opacity="1" stroke="#000000" stroke-opacity="1" stroke-width="3.2"/>
<path clip-path="url(#clip351)" d="M802.256 1189.74 L790.944 1185.06 L786.256 1173.74 L790.944 1162.43 L802.256 1157.74 L813.568 1162.43 L818.256 1173.74 L813.568 1185.06 Z" fill="#3da44d" fill-rule="evenodd" fill-opacity="1" stroke="#000000" stroke-opacity="1" stroke-width="3.2"/>
<path clip-path="url(#clip351)" d="M888.394 1123.48 L877.082 1118.79 L872.394 1107.48 L877.082 1096.16 L888.394 1091.48 L899.706 1096.16 L904.394 1107.48 L899.706 1118.79 Z" fill="#3da44d" fill-rule="evenodd" fill-opacity="1" stroke="#000000" stroke-opacity="1" stroke-width="3.2"/>
<path clip-path="url(#clip351)" d="M974.533 1046.81 L963.221 1042.13 L958.533 1030.81 L963.221 1019.5 L974.533 1014.81 L985.845 1019.5 L990.533 1030.81 L985.845 1042.13 Z" fill="#3da44d" fill-rule="evenodd" fill-opacity="1" stroke="#000000" stroke-opacity="1" stroke-width="3.2"/>
<path clip-path="url(#clip351)" d="M1060.67 963.656 L1049.36 958.968 L1044.67 947.656 L1049.36 936.344 L1060.67 931.656 L1071.98 936.344 L1076.67 947.656 L1071.98 958.968 Z" fill="#3da44d" fill-rule="evenodd" fill-opacity="1" stroke="#000000" stroke-opacity="1" stroke-width="3.2"/>
<path clip-path="url(#clip351)" d="M1146.81 879.198 L1135.5 874.51 L1130.81 863.198 L1135.5 851.886 L1146.81 847.198 L1158.12 851.886 L1162.81 863.198 L1158.12 874.51 Z" fill="#3da44d" fill-rule="evenodd" fill-opacity="1" stroke="#000000" stroke-opacity="1" stroke-width="3.2"/>
<path clip-path="url(#clip351)" d="M1232.95 812.931 L1221.64 808.243 L1216.95 796.931 L1221.64 785.619 L1232.95 780.931 L1244.26 785.619 L1248.95 796.931 L1244.26 808.243 Z" fill="#3da44d" fill-rule="evenodd" fill-opacity="1" stroke="#000000" stroke-opacity="1" stroke-width="3.2"/>
<path clip-path="url(#clip351)" d="M1319.09 754.46 L1307.78 749.772 L1303.09 738.46 L1307.78 727.148 L1319.09 722.46 L1330.4 727.148 L1335.09 738.46 L1330.4 749.772 Z" fill="#3da44d" fill-rule="evenodd" fill-opacity="1" stroke="#000000" stroke-opacity="1" stroke-width="3.2"/>
<path clip-path="url(#clip351)" d="M1405.23 686.894 L1393.92 682.206 L1389.23 670.894 L1393.92 659.582 L1405.23 654.894 L1416.54 659.582 L1421.23 670.894 L1416.54 682.206 Z" fill="#3da44d" fill-rule="evenodd" fill-opacity="1" stroke="#000000" stroke-opacity="1" stroke-width="3.2"/>
<path clip-path="url(#clip351)" d="M1491.37 640.117 L1480.05 635.429 L1475.37 624.117 L1480.05 612.805 L1491.37 608.117 L1502.68 612.805 L1507.37 624.117 L1502.68 635.429 Z" fill="#3da44d" fill-rule="evenodd" fill-opacity="1" stroke="#000000" stroke-opacity="1" stroke-width="3.2"/>
<path clip-path="url(#clip351)" d="M1577.51 590.742 L1566.19 586.054 L1561.51 574.742 L1566.19 563.43 L1577.51 558.742 L1588.82 563.43 L1593.51 574.742 L1588.82 586.054 Z" fill="#3da44d" fill-rule="evenodd" fill-opacity="1" stroke="#000000" stroke-opacity="1" stroke-width="3.2"/>
<path clip-path="url(#clip351)" d="M1663.64 525.774 L1652.33 521.086 L1647.64 509.774 L1652.33 498.462 L1663.64 493.774 L1674.96 498.462 L1679.64 509.774 L1674.96 521.086 Z" fill="#3da44d" fill-rule="evenodd" fill-opacity="1" stroke="#000000" stroke-opacity="1" stroke-width="3.2"/>
<path clip-path="url(#clip351)" d="M1749.78 475.1 L1738.47 470.412 L1733.78 459.1 L1738.47 447.788 L1749.78 443.1 L1761.1 447.788 L1765.78 459.1 L1761.1 470.412 Z" fill="#3da44d" fill-rule="evenodd" fill-opacity="1" stroke="#000000" stroke-opacity="1" stroke-width="3.2"/>
<path clip-path="url(#clip351)" d="M1835.92 441.317 L1824.61 436.629 L1819.92 425.317 L1824.61 414.005 L1835.92 409.317 L1847.23 414.005 L1851.92 425.317 L1847.23 436.629 Z" fill="#3da44d" fill-rule="evenodd" fill-opacity="1" stroke="#000000" stroke-opacity="1" stroke-width="3.2"/>
<path clip-path="url(#clip351)" d="M1922.06 411.431 L1910.75 406.743 L1906.06 395.431 L1910.75 384.119 L1922.06 379.431 L1933.37 384.119 L1938.06 395.431 L1933.37 406.743 Z" fill="#3da44d" fill-rule="evenodd" fill-opacity="1" stroke="#000000" stroke-opacity="1" stroke-width="3.2"/>
<path clip-path="url(#clip351)" d="M2008.2 389.342 L1996.89 384.654 L1992.2 373.342 L1996.89 362.03 L2008.2 357.342 L2019.51 362.03 L2024.2 373.342 L2019.51 384.654 Z" fill="#3da44d" fill-rule="evenodd" fill-opacity="1" stroke="#000000" stroke-opacity="1" stroke-width="3.2"/>
<path clip-path="url(#clip351)" d="M2094.34 355.559 L2083.03 350.871 L2078.34 339.559 L2083.03 328.247 L2094.34 323.559 L2105.65 328.247 L2110.34 339.559 L2105.65 350.871 Z" fill="#3da44d" fill-rule="evenodd" fill-opacity="1" stroke="#000000" stroke-opacity="1" stroke-width="3.2"/>
<path clip-path="url(#clip351)" d="M2180.48 319.177 L2169.17 314.489 L2164.48 303.177 L2169.17 291.865 L2180.48 287.177 L2191.79 291.865 L2196.48 303.177 L2191.79 314.489 Z" fill="#3da44d" fill-rule="evenodd" fill-opacity="1" stroke="#000000" stroke-opacity="1" stroke-width="3.2"/>
<path clip-path="url(#clip351)" d="M2266.62 297.088 L2255.3 292.4 L2250.62 281.088 L2255.3 269.776 L2266.62 265.088 L2277.93 269.776 L2282.62 281.088 L2277.93 292.4 Z" fill="#3da44d" fill-rule="evenodd" fill-opacity="1" stroke="#000000" stroke-opacity="1" stroke-width="3.2"/>
<path clip-path="url(#clip351)" d="M2352.76 281.496 L2341.44 276.808 L2336.76 265.496 L2341.44 254.184 L2352.76 249.496 L2364.07 254.184 L2368.76 265.496 L2364.07 276.808 Z" fill="#3da44d" fill-rule="evenodd" fill-opacity="1" stroke="#000000" stroke-opacity="1" stroke-width="3.2"/>
<path clip-path="url(#clip350)" d="M1985.83 300.469 L2280.97 300.469 L2280.97 93.1086 L1985.83 93.1086  Z" fill="#ffffff" fill-rule="evenodd" fill-opacity="1"/>
<polyline clip-path="url(#clip350)" style="stroke:#000000; stroke-linecap:round; stroke-linejoin:round; stroke-width:4; stroke-opacity:1; fill:none" points="1985.83,300.469 2280.97,300.469 2280.97,93.1086 1985.83,93.1086 1985.83,300.469 "/>
<polyline clip-path="url(#clip350)" style="stroke:#009af9; stroke-linecap:round; stroke-linejoin:round; stroke-width:8; stroke-opacity:1; fill:none" points="2009.76,144.949 2153.33,144.949 "/>
<path clip-path="url(#clip350)" d="M2081.54 167.104 L2065.88 160.612 L2059.39 144.949 L2065.88 129.285 L2081.54 122.794 L2097.21 129.285 L2103.7 144.949 L2097.21 160.612 Z" fill="#009af9" fill-rule="evenodd" fill-opacity="1" stroke="#000000" stroke-opacity="1" stroke-width="4.55111"/>
<path clip-path="url(#clip350)" d="M2199.5 128.803 L2199.5 133.363 Q2196.84 132.09 2194.48 131.465 Q2192.12 130.84 2189.92 130.84 Q2186.1 130.84 2184.01 132.321 Q2181.95 133.803 2181.95 136.534 Q2181.95 138.826 2183.32 140.007 Q2184.71 141.164 2188.55 141.882 L2191.38 142.46 Q2196.61 143.456 2199.08 145.979 Q2201.58 148.479 2201.58 152.692 Q2201.58 157.715 2198.2 160.307 Q2194.85 162.9 2188.34 162.9 Q2185.89 162.9 2183.11 162.344 Q2180.36 161.789 2177.39 160.701 L2177.39 155.886 Q2180.24 157.483 2182.97 158.293 Q2185.7 159.104 2188.34 159.104 Q2192.35 159.104 2194.52 157.53 Q2196.7 155.956 2196.7 153.039 Q2196.7 150.493 2195.13 149.057 Q2193.57 147.622 2190.01 146.905 L2187.16 146.349 Q2181.93 145.307 2179.59 143.085 Q2177.25 140.863 2177.25 136.905 Q2177.25 132.321 2180.47 129.682 Q2183.71 127.044 2189.38 127.044 Q2191.81 127.044 2194.34 127.483 Q2196.86 127.923 2199.5 128.803 Z" fill="#000000" fill-rule="nonzero" fill-opacity="1" /><path clip-path="url(#clip350)" d="M2218.92 126.257 Q2215.82 131.581 2214.31 136.789 Q2212.81 141.997 2212.81 147.344 Q2212.81 152.692 2214.31 157.946 Q2215.84 163.178 2218.92 168.479 L2215.22 168.479 Q2211.75 163.039 2210.01 157.784 Q2208.3 152.53 2208.3 147.344 Q2208.3 142.182 2210.01 136.951 Q2211.72 131.72 2215.22 126.257 L2218.92 126.257 Z" fill="#000000" fill-rule="nonzero" fill-opacity="1" /><path clip-path="url(#clip350)" d="M2231.4 128.942 L2231.4 136.303 L2240.17 136.303 L2240.17 139.613 L2231.4 139.613 L2231.4 153.687 Q2231.4 156.858 2232.25 157.761 Q2233.13 158.664 2235.8 158.664 L2240.17 158.664 L2240.17 162.229 L2235.8 162.229 Q2230.87 162.229 2228.99 160.4 Q2227.12 158.548 2227.12 153.687 L2227.12 139.613 L2223.99 139.613 L2223.99 136.303 L2227.12 136.303 L2227.12 128.942 L2231.4 128.942 Z" fill="#000000" fill-rule="nonzero" fill-opacity="1" /><path clip-path="url(#clip350)" d="M2245.1 126.257 L2248.81 126.257 Q2252.28 131.72 2253.99 136.951 Q2255.73 142.182 2255.73 147.344 Q2255.73 152.53 2253.99 157.784 Q2252.28 163.039 2248.81 168.479 L2245.1 168.479 Q2248.18 163.178 2249.68 157.946 Q2251.21 152.692 2251.21 147.344 Q2251.21 141.997 2249.68 136.789 Q2248.18 131.581 2245.1 126.257 Z" fill="#000000" fill-rule="nonzero" fill-opacity="1" /><polyline clip-path="url(#clip350)" style="stroke:#e26f46; stroke-linecap:round; stroke-linejoin:round; stroke-width:8; stroke-opacity:1; fill:none" points="2009.76,196.789 2153.33,196.789 "/>
<path clip-path="url(#clip350)" d="M2081.54 218.944 L2065.88 212.452 L2059.39 196.789 L2065.88 181.125 L2081.54 174.634 L2097.21 181.125 L2103.7 196.789 L2097.21 212.452 Z" fill="#e26f46" fill-rule="evenodd" fill-opacity="1" stroke="#000000" stroke-opacity="1" stroke-width="4.55111"/>
<path clip-path="url(#clip350)" d="M2177.25 179.509 L2181.93 179.509 L2181.93 214.069 L2177.25 214.069 L2177.25 179.509 Z" fill="#000000" fill-rule="nonzero" fill-opacity="1" /><path clip-path="url(#clip350)" d="M2201.28 178.097 Q2198.18 183.421 2196.68 188.629 Q2195.17 193.837 2195.17 199.184 Q2195.17 204.532 2196.68 209.786 Q2198.2 215.018 2201.28 220.319 L2197.58 220.319 Q2194.11 214.879 2192.37 209.624 Q2190.66 204.37 2190.66 199.184 Q2190.66 194.022 2192.37 188.791 Q2194.08 183.56 2197.58 178.097 L2201.28 178.097 Z" fill="#000000" fill-rule="nonzero" fill-opacity="1" /><path clip-path="url(#clip350)" d="M2213.76 180.782 L2213.76 188.143 L2222.53 188.143 L2222.53 191.453 L2213.76 191.453 L2213.76 205.527 Q2213.76 208.698 2214.62 209.601 Q2215.5 210.504 2218.16 210.504 L2222.53 210.504 L2222.53 214.069 L2218.16 214.069 Q2213.23 214.069 2211.35 212.24 Q2209.48 210.388 2209.48 205.527 L2209.48 191.453 L2206.35 191.453 L2206.35 188.143 L2209.48 188.143 L2209.48 180.782 L2213.76 180.782 Z" fill="#000000" fill-rule="nonzero" fill-opacity="1" /><path clip-path="url(#clip350)" d="M2227.46 178.097 L2231.17 178.097 Q2234.64 183.56 2236.35 188.791 Q2238.09 194.022 2238.09 199.184 Q2238.09 204.37 2236.35 209.624 Q2234.64 214.879 2231.17 220.319 L2227.46 220.319 Q2230.54 215.018 2232.05 209.786 Q2233.57 204.532 2233.57 199.184 Q2233.57 193.837 2232.05 188.629 Q2230.54 183.421 2227.46 178.097 Z" fill="#000000" fill-rule="nonzero" fill-opacity="1" /><polyline clip-path="url(#clip350)" style="stroke:#3da44d; stroke-linecap:round; stroke-linejoin:round; stroke-width:8; stroke-opacity:1; fill:none" points="2009.76,248.629 2153.33,248.629 "/>
<path clip-path="url(#clip350)" d="M2081.54 270.784 L2065.88 264.292 L2059.39 248.629 L2065.88 232.965 L2081.54 226.474 L2097.21 232.965 L2103.7 248.629 L2097.21 264.292 Z" fill="#3da44d" fill-rule="evenodd" fill-opacity="1" stroke="#000000" stroke-opacity="1" stroke-width="4.55111"/>
<path clip-path="url(#clip350)" d="M2193.64 249.705 Q2195.15 250.214 2196.56 251.881 Q2198 253.548 2199.43 256.464 L2204.18 265.909 L2199.15 265.909 L2194.73 257.043 Q2193.02 253.571 2191.4 252.436 Q2189.8 251.302 2187.02 251.302 L2181.93 251.302 L2181.93 265.909 L2177.25 265.909 L2177.25 231.349 L2187.81 231.349 Q2193.74 231.349 2196.65 233.825 Q2199.57 236.302 2199.57 241.302 Q2199.57 244.566 2198.04 246.719 Q2196.54 248.872 2193.64 249.705 M2181.93 235.191 L2181.93 247.46 L2187.81 247.46 Q2191.19 247.46 2192.9 245.909 Q2194.64 244.335 2194.64 241.302 Q2194.64 238.27 2192.9 236.742 Q2191.19 235.191 2187.81 235.191 L2181.93 235.191 Z" fill="#000000" fill-rule="nonzero" fill-opacity="1" /><path clip-path="url(#clip350)" d="M2220.24 229.937 Q2217.14 235.261 2215.63 240.469 Q2214.13 245.677 2214.13 251.024 Q2214.13 256.372 2215.63 261.626 Q2217.16 266.858 2220.24 272.159 L2216.54 272.159 Q2213.06 266.719 2211.33 261.464 Q2209.62 256.21 2209.62 251.024 Q2209.62 245.862 2211.33 240.631 Q2213.04 235.4 2216.54 229.937 L2220.24 229.937 Z" fill="#000000" fill-rule="nonzero" fill-opacity="1" /><path clip-path="url(#clip350)" d="M2232.72 232.622 L2232.72 239.983 L2241.49 239.983 L2241.49 243.293 L2232.72 243.293 L2232.72 257.367 Q2232.72 260.538 2233.57 261.441 Q2234.45 262.344 2237.12 262.344 L2241.49 262.344 L2241.49 265.909 L2237.12 265.909 Q2232.19 265.909 2230.31 264.08 Q2228.44 262.228 2228.44 257.367 L2228.44 243.293 L2225.31 243.293 L2225.31 239.983 L2228.44 239.983 L2228.44 232.622 L2232.72 232.622 Z" fill="#000000" fill-rule="nonzero" fill-opacity="1" /><path clip-path="url(#clip350)" d="M2246.42 229.937 L2250.12 229.937 Q2253.6 235.4 2255.31 240.631 Q2257.05 245.862 2257.05 251.024 Q2257.05 256.21 2255.31 261.464 Q2253.6 266.719 2250.12 272.159 L2246.42 272.159 Q2249.5 266.858 2251 261.626 Q2252.53 256.372 2252.53 251.024 Q2252.53 245.677 2251 240.469 Q2249.5 235.261 2246.42 229.937 Z" fill="#000000" fill-rule="nonzero" fill-opacity="1" /></svg>
