<?xml version="1.0" encoding="utf-8"?>
<svg xmlns="http://www.w3.org/2000/svg" xmlns:xlink="http://www.w3.org/1999/xlink" width="600" height="400" viewBox="0 0 2400 1600">
<defs>
  <clipPath id="clip740">
    <rect x="0" y="0" width="2400" height="1600"/>
  </clipPath>
</defs>
<path clip-path="url(#clip740)" d="M0 1600 L2400 1600 L2400 0 L0 0  Z" fill="#ffffff" fill-rule="evenodd" fill-opacity="1"/>
<defs>
  <clipPath id="clip741">
    <rect x="138" y="47" width="2215" height="1377"/>
  </clipPath>
</defs>
<path clip-path="url(#clip740)" d="M138.959 1423.18 L2352.76 1423.18 L2352.76 47.2441 L138.959 47.2441  Z" fill="#ffffff" fill-rule="evenodd" fill-opacity="1"/>
<polyline clip-path="url(#clip741)" style="stroke:#000000; stroke-linecap:round; stroke-linejoin:round; stroke-width:2; stroke-opacity:0.1; fill:none" points="138.959,1423.18 138.959,47.2441 "/>
<polyline clip-path="url(#clip741)" style="stroke:#000000; stroke-linecap:round; stroke-linejoin:round; stroke-width:2; stroke-opacity:0.1; fill:none" points="581.719,1423.18 581.719,47.2441 "/>
<polyline clip-path="url(#clip741)" style="stroke:#000000; stroke-linecap:round; stroke-linejoin:round; stroke-width:2; stroke-opacity:0.1; fill:none" points="1024.48,1423.18 1024.48,47.2441 "/>
<polyline clip-path="url(#clip741)" style="stroke:#000000; stroke-linecap:round; stroke-linejoin:round; stroke-width:2; stroke-opacity:0.1; fill:none" points="1467.24,1423.18 1467.24,47.2441 "/>
<polyline clip-path="url(#clip741)" style="stroke:#000000; stroke-linecap:round; stroke-linejoin:round; stroke-width:2; stroke-opacity:0.1; fill:none" points="1910,1423.18 1910,47.2441 "/>
<polyline clip-path="url(#clip741)" style="stroke:#000000; stroke-linecap:round; stroke-linejoin:round; stroke-width:2; stroke-opacity:0.1; fill:none" points="2352.76,1423.18 2352.76,47.2441 "/>
<polyline clip-path="url(#clip741)" style="stroke:#000000; stroke-linecap:round; stroke-linejoin:round; stroke-width:2; stroke-opacity:0.1; fill:none" points="138.959,1384.24 2352.76,1384.24 "/>
<polyline clip-path="url(#clip741)" style="stroke:#000000; stroke-linecap:round; stroke-linejoin:round; stroke-width:2; stroke-opacity:0.1; fill:none" points="138.959,1023.67 2352.76,1023.67 "/>
<polyline clip-path="url(#clip741)" style="stroke:#000000; stroke-linecap:round; stroke-linejoin:round; stroke-width:2; stroke-opacity:0.1; fill:none" points="138.959,663.098 2352.76,663.098 "/>
<polyline clip-path="url(#clip741)" style="stroke:#000000; stroke-linecap:round; stroke-linejoin:round; stroke-width:2; stroke-opacity:0.1; fill:none" points="138.959,302.528 2352.76,302.528 "/>
<polyline clip-path="url(#clip740)" style="stroke:#000000; stroke-linecap:round; stroke-linejoin:round; stroke-width:4; stroke-opacity:1; fill:none" points="138.959,1423.18 2352.76,1423.18 "/>
<polyline clip-path="url(#clip740)" style="stroke:#000000; stroke-linecap:round; stroke-linejoin:round; stroke-width:4; stroke-opacity:1; fill:none" points="138.959,1423.18 138.959,1404.28 "/>
<polyline clip-path="url(#clip740)" style="stroke:#000000; stroke-linecap:round; stroke-linejoin:round; stroke-width:4; stroke-opacity:1; fill:none" points="581.719,1423.18 581.719,1404.28 "/>
<polyline clip-path="url(#clip740)" style="stroke:#000000; stroke-linecap:round; stroke-linejoin:round; stroke-width:4; stroke-opacity:1; fill:none" points="1024.48,1423.18 1024.48,1404.28 "/>
<polyline clip-path="url(#clip740)" style="stroke:#000000; stroke-linecap:round; stroke-linejoin:round; stroke-width:4; stroke-opacity:1; fill:none" points="1467.24,1423.18 1467.24,1404.28 "/>
<polyline clip-path="url(#clip740)" style="stroke:#000000; stroke-linecap:round; stroke-linejoin:round; stroke-width:4; stroke-opacity:1; fill:none" points="1910,1423.18 1910,1404.28 "/>
<polyline clip-path="url(#clip740)" style="stroke:#000000; stroke-linecap:round; stroke-linejoin:round; stroke-width:4; stroke-opacity:1; fill:none" points="2352.76,1423.18 2352.76,1404.28 "/>
<path clip-path="url(#clip740)" d="M138.959 1454.1 Q135.348 1454.1 133.52 1457.66 Q131.714 1461.2 131.714 1468.33 Q131.714 1475.44 133.52 1479.01 Q135.348 1482.55 138.959 1482.55 Q142.594 1482.55 144.399 1479.01 Q146.228 1475.44 146.228 1468.33 Q146.228 1461.2 144.399 1457.66 Q142.594 1454.1 138.959 1454.1 M138.959 1450.39 Q144.77 1450.39 147.825 1455 Q150.904 1459.58 150.904 1468.33 Q150.904 1477.06 147.825 1481.67 Q144.77 1486.25 138.959 1486.25 Q133.149 1486.25 130.071 1481.67 Q127.015 1477.06 127.015 1468.33 Q127.015 1459.58 130.071 1455 Q133.149 1450.39 138.959 1450.39 Z" fill="#000000" fill-rule="nonzero" fill-opacity="1" /><path clip-path="url(#clip740)" d="M576.372 1481.64 L592.691 1481.64 L592.691 1485.58 L570.747 1485.58 L570.747 1481.64 Q573.409 1478.89 577.992 1474.26 Q582.598 1469.61 583.779 1468.27 Q586.024 1465.74 586.904 1464.01 Q587.807 1462.25 587.807 1460.56 Q587.807 1457.8 585.862 1456.07 Q583.941 1454.33 580.839 1454.33 Q578.64 1454.33 576.186 1455.09 Q573.756 1455.86 570.978 1457.41 L570.978 1452.69 Q573.802 1451.55 576.256 1450.97 Q578.709 1450.39 580.747 1450.39 Q586.117 1450.39 589.311 1453.08 Q592.506 1455.77 592.506 1460.26 Q592.506 1462.39 591.696 1464.31 Q590.908 1466.2 588.802 1468.8 Q588.223 1469.47 585.121 1472.69 Q582.02 1475.88 576.372 1481.64 Z" fill="#000000" fill-rule="nonzero" fill-opacity="1" /><path clip-path="url(#clip740)" d="M1027.49 1455.09 L1015.68 1473.54 L1027.49 1473.54 L1027.49 1455.09 M1026.26 1451.02 L1032.14 1451.02 L1032.14 1473.54 L1037.07 1473.54 L1037.07 1477.43 L1032.14 1477.43 L1032.14 1485.58 L1027.49 1485.58 L1027.49 1477.43 L1011.89 1477.43 L1011.89 1472.92 L1026.26 1451.02 Z" fill="#000000" fill-rule="nonzero" fill-opacity="1" /><path clip-path="url(#clip740)" d="M1467.64 1466.44 Q1464.49 1466.44 1462.64 1468.59 Q1460.81 1470.74 1460.81 1474.49 Q1460.81 1478.22 1462.64 1480.39 Q1464.49 1482.55 1467.64 1482.55 Q1470.79 1482.55 1472.62 1480.39 Q1474.47 1478.22 1474.47 1474.49 Q1474.47 1470.74 1472.62 1468.59 Q1470.79 1466.44 1467.64 1466.44 M1476.92 1451.78 L1476.92 1456.04 Q1475.17 1455.21 1473.36 1454.77 Q1471.58 1454.33 1469.82 1454.33 Q1465.19 1454.33 1462.74 1457.45 Q1460.3 1460.58 1459.96 1466.9 Q1461.32 1464.89 1463.38 1463.82 Q1465.44 1462.73 1467.92 1462.73 Q1473.13 1462.73 1476.14 1465.9 Q1479.17 1469.05 1479.17 1474.49 Q1479.17 1479.82 1476.02 1483.03 Q1472.87 1486.25 1467.64 1486.25 Q1461.65 1486.25 1458.48 1481.67 Q1455.3 1477.06 1455.3 1468.33 Q1455.3 1460.14 1459.19 1455.28 Q1463.08 1450.39 1469.63 1450.39 Q1471.39 1450.39 1473.17 1450.74 Q1474.98 1451.09 1476.92 1451.78 Z" fill="#000000" fill-rule="nonzero" fill-opacity="1" /><path clip-path="url(#clip740)" d="M1910 1469.17 Q1906.66 1469.17 1904.74 1470.95 Q1902.84 1472.73 1902.84 1475.86 Q1902.84 1478.98 1904.74 1480.77 Q1906.66 1482.55 1910 1482.55 Q1913.33 1482.55 1915.25 1480.77 Q1917.17 1478.96 1917.17 1475.86 Q1917.17 1472.73 1915.25 1470.95 Q1913.35 1469.17 1910 1469.17 M1905.32 1467.18 Q1902.31 1466.44 1900.62 1464.38 Q1898.96 1462.32 1898.96 1459.35 Q1898.96 1455.21 1901.89 1452.8 Q1904.86 1450.39 1910 1450.39 Q1915.16 1450.39 1918.1 1452.8 Q1921.04 1455.21 1921.04 1459.35 Q1921.04 1462.32 1919.35 1464.38 Q1917.68 1466.44 1914.7 1467.18 Q1918.08 1467.96 1919.95 1470.26 Q1921.85 1472.55 1921.85 1475.86 Q1921.85 1480.88 1918.77 1483.57 Q1915.71 1486.25 1910 1486.25 Q1904.28 1486.25 1901.2 1483.57 Q1898.14 1480.88 1898.14 1475.86 Q1898.14 1472.55 1900.04 1470.26 Q1901.94 1467.96 1905.32 1467.18 M1903.61 1459.79 Q1903.61 1462.48 1905.27 1463.98 Q1906.96 1465.49 1910 1465.49 Q1913.01 1465.49 1914.7 1463.98 Q1916.41 1462.48 1916.41 1459.79 Q1916.41 1457.11 1914.7 1455.6 Q1913.01 1454.1 1910 1454.1 Q1906.96 1454.1 1905.27 1455.6 Q1903.61 1457.11 1903.61 1459.79 Z" fill="#000000" fill-rule="nonzero" fill-opacity="1" /><path clip-path="url(#clip740)" d="M2327.44 1481.64 L2335.08 1481.64 L2335.08 1455.28 L2326.77 1456.95 L2326.77 1452.69 L2335.04 1451.02 L2339.71 1451.02 L2339.71 1481.64 L2347.35 1481.64 L2347.35 1485.58 L2327.44 1485.58 L2327.44 1481.64 Z" fill="#000000" fill-rule="nonzero" fill-opacity="1" /><path clip-path="url(#clip740)" d="M2366.8 1454.1 Q2363.18 1454.1 2361.36 1457.66 Q2359.55 1461.2 2359.55 1468.33 Q2359.55 1475.44 2361.36 1479.01 Q2363.18 1482.55 2366.8 1482.55 Q2370.43 1482.55 2372.23 1479.01 Q2374.06 1475.44 2374.06 1468.33 Q2374.06 1461.2 2372.23 1457.66 Q2370.43 1454.1 2366.8 1454.1 M2366.8 1450.39 Q2372.61 1450.39 2375.66 1455 Q2378.74 1459.58 2378.74 1468.33 Q2378.74 1477.06 2375.66 1481.67 Q2372.61 1486.25 2366.8 1486.25 Q2360.99 1486.25 2357.91 1481.67 Q2354.85 1477.06 2354.85 1468.33 Q2354.85 1459.58 2357.91 1455 Q2360.99 1450.39 2366.8 1450.39 Z" fill="#000000" fill-rule="nonzero" fill-opacity="1" /><path clip-path="url(#clip740)" d="M1244.92 1522.27 L1244.92 1532.4 L1256.98 1532.4 L1256.98 1536.95 L1244.92 1536.95 L1244.92 1556.3 Q1244.92 1560.66 1246.1 1561.9 Q1247.31 1563.14 1250.97 1563.14 L1256.98 1563.14 L1256.98 1568.04 L1250.97 1568.04 Q1244.19 1568.04 1241.61 1565.53 Q1239.03 1562.98 1239.03 1556.3 L1239.03 1536.95 L1234.73 1536.95 L1234.73 1532.4 L1239.03 1532.4 L1239.03 1522.27 L1244.92 1522.27 Z" fill="#000000" fill-rule="nonzero" fill-opacity="1" /><polyline clip-path="url(#clip740)" style="stroke:#000000; stroke-linecap:round; stroke-linejoin:round; stroke-width:4; stroke-opacity:1; fill:none" points="138.959,1423.18 138.959,47.2441 "/>
<polyline clip-path="url(#clip740)" style="stroke:#000000; stroke-linecap:round; stroke-linejoin:round; stroke-width:4; stroke-opacity:1; fill:none" points="138.959,1384.24 157.857,1384.24 "/>
<polyline clip-path="url(#clip740)" style="stroke:#000000; stroke-linecap:round; stroke-linejoin:round; stroke-width:4; stroke-opacity:1; fill:none" points="138.959,1023.67 157.857,1023.67 "/>
<polyline clip-path="url(#clip740)" style="stroke:#000000; stroke-linecap:round; stroke-linejoin:round; stroke-width:4; stroke-opacity:1; fill:none" points="138.959,663.098 157.857,663.098 "/>
<polyline clip-path="url(#clip740)" style="stroke:#000000; stroke-linecap:round; stroke-linejoin:round; stroke-width:4; stroke-opacity:1; fill:none" points="138.959,302.528 157.857,302.528 "/>
<path clip-path="url(#clip740)" d="M91.0151 1370.04 Q87.404 1370.04 85.5753 1373.6 Q83.7697 1377.14 83.7697 1384.27 Q83.7697 1391.38 85.5753 1394.94 Q87.404 1398.49 91.0151 1398.49 Q94.6493 1398.49 96.4548 1394.94 Q98.2835 1391.38 98.2835 1384.27 Q98.2835 1377.14 96.4548 1373.6 Q94.6493 1370.04 91.0151 1370.04 M91.0151 1366.33 Q96.8252 1366.33 99.8808 1370.94 Q102.959 1375.52 102.959 1384.27 Q102.959 1393 99.8808 1397.61 Q96.8252 1402.19 91.0151 1402.19 Q85.2049 1402.19 82.1262 1397.61 Q79.0707 1393 79.0707 1384.27 Q79.0707 1375.52 82.1262 1370.94 Q85.2049 1366.33 91.0151 1366.33 Z" fill="#000000" fill-rule="nonzero" fill-opacity="1" /><path clip-path="url(#clip740)" d="M82.0568 1006.39 L100.413 1006.39 L100.413 1010.32 L86.3392 1010.32 L86.3392 1018.8 Q87.3577 1018.45 88.3762 1018.29 Q89.3947 1018.1 90.4132 1018.1 Q96.2002 1018.1 99.5798 1021.27 Q102.959 1024.44 102.959 1029.86 Q102.959 1035.44 99.4872 1038.54 Q96.015 1041.62 89.6956 1041.62 Q87.5197 1041.62 85.2512 1041.25 Q83.0058 1040.88 80.5984 1040.14 L80.5984 1035.44 Q82.6818 1036.57 84.904 1037.13 Q87.1262 1037.68 89.603 1037.68 Q93.6076 1037.68 95.9456 1035.58 Q98.2835 1033.47 98.2835 1029.86 Q98.2835 1026.25 95.9456 1024.14 Q93.6076 1022.04 89.603 1022.04 Q87.728 1022.04 85.8531 1022.45 Q84.0012 1022.87 82.0568 1023.75 L82.0568 1006.39 Z" fill="#000000" fill-rule="nonzero" fill-opacity="1" /><path clip-path="url(#clip740)" d="M51.6634 676.443 L59.3023 676.443 L59.3023 650.077 L50.9921 651.744 L50.9921 647.485 L59.256 645.818 L63.9319 645.818 L63.9319 676.443 L71.5707 676.443 L71.5707 680.378 L51.6634 680.378 L51.6634 676.443 Z" fill="#000000" fill-rule="nonzero" fill-opacity="1" /><path clip-path="url(#clip740)" d="M91.0151 648.897 Q87.404 648.897 85.5753 652.461 Q83.7697 656.003 83.7697 663.133 Q83.7697 670.239 85.5753 673.804 Q87.404 677.346 91.0151 677.346 Q94.6493 677.346 96.4548 673.804 Q98.2835 670.239 98.2835 663.133 Q98.2835 656.003 96.4548 652.461 Q94.6493 648.897 91.0151 648.897 M91.0151 645.193 Q96.8252 645.193 99.8808 649.799 Q102.959 654.383 102.959 663.133 Q102.959 671.859 99.8808 676.466 Q96.8252 681.049 91.0151 681.049 Q85.2049 681.049 82.1262 676.466 Q79.0707 671.859 79.0707 663.133 Q79.0707 654.383 82.1262 649.799 Q85.2049 645.193 91.0151 645.193 Z" fill="#000000" fill-rule="nonzero" fill-opacity="1" /><path clip-path="url(#clip740)" d="M52.6588 315.873 L60.2976 315.873 L60.2976 289.507 L51.9875 291.174 L51.9875 286.914 L60.2513 285.248 L64.9272 285.248 L64.9272 315.873 L72.5661 315.873 L72.5661 319.808 L52.6588 319.808 L52.6588 315.873 Z" fill="#000000" fill-rule="nonzero" fill-opacity="1" /><path clip-path="url(#clip740)" d="M82.0568 285.248 L100.413 285.248 L100.413 289.183 L86.3392 289.183 L86.3392 297.655 Q87.3577 297.308 88.3762 297.146 Q89.3947 296.961 90.4132 296.961 Q96.2002 296.961 99.5798 300.132 Q102.959 303.303 102.959 308.72 Q102.959 314.299 99.4872 317.4 Q96.015 320.479 89.6956 320.479 Q87.5197 320.479 85.2512 320.109 Q83.0058 319.738 80.5984 318.998 L80.5984 314.299 Q82.6818 315.433 84.904 315.988 Q87.1262 316.544 89.603 316.544 Q93.6076 316.544 95.9456 314.437 Q98.2835 312.331 98.2835 308.72 Q98.2835 305.109 95.9456 303.002 Q93.6076 300.896 89.603 300.896 Q87.728 300.896 85.8531 301.312 Q84.0012 301.729 82.0568 302.609 L82.0568 285.248 Z" fill="#000000" fill-rule="nonzero" fill-opacity="1" /><polyline clip-path="url(#clip741)" style="stroke:#009af9; stroke-linecap:round; stroke-linejoin:round; stroke-width:8; stroke-opacity:1; fill:none" points="138.959,1384.24 140.067,1384.24 141.174,1384.24 142.282,1384.24 143.389,1384.24 144.497,1384.24 145.604,1384.24 146.712,1384.24 147.819,1384.24 148.927,1384.24 150.034,1384.24 151.141,1384.24 152.249,1384.24 153.356,1384.24 154.464,1384.24 155.571,1384.24 156.679,1384.24 157.786,1384.24 158.894,1384.24 160.001,1384.24 161.108,1384.24 162.216,1384.24 163.323,1384.24 164.431,1384.24 165.538,1384.24 166.646,1384.24 167.753,1384.24 168.861,1384.24 169.968,1384.24 171.076,1384.24 172.183,1384.24 173.29,1384.24 174.398,1384.24 175.505,1384.24 176.613,1384.24 177.72,1384.24 178.828,1384.24 179.935,1384.24 181.043,1384.24 182.15,1384.24 183.258,1384.24 184.365,1384.24 185.472,1384.24 186.58,1384.24 187.687,1384.24 188.795,1384.24 189.902,1384.24 191.01,1384.24 192.117,1384.24 193.225,1384.24 194.332,1384.24 195.439,1384.24 196.547,1384.24 197.654,1384.24 198.762,1384.24 199.869,1384.24 200.977,1384.24 202.084,1384.24 203.192,1384.24 204.299,1384.24 205.407,1384.24 206.514,1384.24 207.621,1384.24 208.729,1384.24 209.836,1384.24 210.944,1384.24 212.051,1384.24 213.159,1384.24 214.266,1384.24 215.374,1384.24 216.481,1384.24 217.589,1384.24 218.696,1384.24 219.803,1384.24 220.911,1384.24 222.018,1384.24 223.126,1384.24 224.233,1384.24 225.341,1384.24 226.448,1384.24 227.556,1384.24 228.663,1384.24 229.771,1384.24 230.878,1384.24 231.985,1384.24 233.093,1384.24 234.2,1384.24 235.308,1384.24 236.415,1384.24 237.523,1384.24 238.63,1384.24 239.738,1384.24 240.845,1384.24 241.952,1384.24 243.06,1384.24 244.167,1384.24 245.275,1384.24 246.382,1384.24 247.49,1384.24 248.597,1384.24 249.705,1384.24 250.812,1384.24 251.92,1384.24 253.027,1384.24 254.134,1384.24 255.242,1384.24 256.349,1384.24 257.457,1384.24 258.564,1384.24 259.672,1384.24 260.779,1384.24 261.887,1384.24 262.994,1384.24 264.102,1384.24 265.209,1384.24 266.316,1384.24 267.424,1384.24 268.531,1384.24 269.639,1384.24 270.746,1384.24 271.854,1384.24 272.961,1384.24 274.069,1384.24 275.176,1384.24 276.283,1384.24 277.391,1384.24 278.498,1384.24 279.606,1384.24 280.713,1384.24 281.821,1384.24 282.928,1384.24 284.036,1384.24 285.143,1384.24 286.251,1384.24 287.358,1384.24 288.465,1384.24 289.573,1384.24 290.68,1384.24 291.788,1384.24 292.895,1384.24 294.003,1384.24 295.11,1384.24 296.218,1384.24 297.325,1384.24 298.433,1384.24 299.54,1384.24 300.647,1384.24 301.755,1384.24 302.862,1384.24 303.97,1384.24 305.077,1384.24 306.185,1384.24 307.292,1384.24 308.4,1384.24 309.507,1384.24 310.614,1384.24 311.722,1384.24 312.829,1384.24 313.937,1384.24 315.044,1384.24 316.152,1384.24 317.259,1384.24 318.367,1384.24 319.474,1384.24 320.582,1384.24 321.689,1384.24 322.796,1384.24 323.904,1384.24 325.011,1384.24 326.119,1384.24 327.226,1384.24 328.334,1384.24 329.441,1384.24 330.549,1384.24 331.656,1384.24 332.764,1384.24 333.871,1384.24 334.978,1384.24 336.086,1384.24 337.193,1384.24 338.301,1384.24 339.408,1384.24 340.516,1384.24 341.623,1384.24 342.731,1384.24 343.838,1384.24 344.946,1384.24 346.053,1384.24 347.16,1384.24 348.268,1384.24 349.375,1384.24 350.483,1384.24 351.59,1384.24 352.698,1384.24 353.805,1384.24 354.913,1384.24 356.02,1384.24 357.127,1384.24 358.235,1384.24 359.342,1384.24 360.45,1384.24 361.557,1384.24 362.665,1312.12 363.772,1312.12 364.88,1312.12 365.987,1312.12 367.095,1312.12 368.202,1312.12 369.309,1312.12 370.417,1312.12 371.524,1312.12 372.632,1312.12 373.739,1312.12 374.847,1312.12 375.954,1312.12 377.062,1312.12 378.169,1312.12 379.277,1312.12 380.384,1312.12 381.491,1312.12 382.599,1312.12 383.706,1312.12 384.814,1312.12 385.921,1312.12 387.029,1312.12 388.136,1312.12 389.244,1312.12 390.351,1240.01 391.458,1240.01 392.566,1240.01 393.673,1240.01 394.781,1240.01 395.888,1240.01 396.996,1240.01 398.103,1240.01 399.211,1240.01 400.318,1240.01 401.426,1240.01 402.533,1240.01 403.64,1240.01 404.748,1240.01 405.855,1240.01 406.963,1240.01 408.07,1240.01 409.178,1240.01 410.285,1240.01 411.393,1240.01 412.5,1240.01 413.608,1240.01 414.715,1240.01 415.822,1240.01 416.93,1240.01 418.037,1240.01 419.145,1240.01 420.252,1240.01 421.36,1240.01 422.467,1240.01 423.575,1240.01 424.682,1240.01 425.789,1240.01 426.897,1240.01 428.004,1240.01 429.112,1240.01 430.219,1240.01 431.327,1240.01 432.434,1240.01 433.542,1240.01 434.649,1240.01 435.757,1240.01 436.864,1240.01 437.971,1240.01 439.079,1240.01 440.186,1240.01 441.294,1240.01 442.401,1240.01 443.509,1240.01 444.616,1240.01 445.724,1240.01 446.831,1240.01 447.939,1240.01 449.046,1240.01 450.153,1240.01 451.261,1240.01 452.368,1240.01 453.476,1240.01 454.583,1240.01 455.691,1240.01 456.798,1240.01 457.906,1240.01 459.013,1240.01 460.121,1240.01 461.228,1240.01 462.335,1240.01 463.443,1240.01 464.55,1240.01 465.658,1240.01 466.765,1240.01 467.873,1240.01 468.98,1240.01 470.088,1240.01 471.195,1240.01 472.302,1240.01 473.41,1240.01 474.517,1240.01 475.625,1240.01 476.732,1240.01 477.84,1240.01 478.947,1240.01 480.055,1240.01 481.162,1240.01 482.27,1240.01 483.377,1240.01 484.484,1240.01 485.592,1240.01 486.699,1240.01 487.807,1240.01 488.914,1240.01 490.022,1240.01 491.129,1240.01 492.237,1240.01 493.344,1240.01 494.452,1240.01 495.559,1240.01 496.666,1240.01 497.774,1240.01 498.881,1240.01 499.989,1240.01 501.096,1240.01 502.204,1240.01 503.311,1240.01 504.419,1240.01 505.526,1240.01 506.633,1240.01 507.741,1240.01 508.848,1240.01 509.956,1240.01 511.063,1240.01 512.171,1240.01 513.278,1240.01 514.386,1240.01 515.493,1240.01 516.601,1240.01 517.708,1240.01 518.815,1240.01 519.923,1240.01 521.03,1240.01 522.138,1240.01 523.245,1240.01 524.353,1240.01 525.46,1240.01 526.568,1240.01 527.675,1240.01 528.783,1240.01 529.89,1240.01 530.997,1240.01 532.105,1240.01 533.212,1240.01 534.32,1240.01 535.427,1240.01 536.535,1095.78 537.642,1023.67 538.75,1023.67 539.857,1023.67 540.965,1023.67 542.072,1023.67 543.179,1023.67 544.287,1023.67 545.394,1023.67 546.502,1023.67 547.609,1023.67 548.717,1023.67 549.824,1023.67 550.932,1023.67 552.039,1023.67 553.146,1023.67 554.254,1023.67 555.361,1023.67 556.469,1023.67 557.576,1023.67 558.684,1023.67 559.791,1023.67 560.899,1023.67 562.006,1023.67 563.114,1023.67 564.221,1023.67 565.328,1023.67 566.436,1023.67 567.543,1023.67 568.651,1023.67 569.758,1023.67 570.866,1023.67 571.973,1023.67 573.081,1023.67 574.188,1023.67 575.296,1023.67 576.403,1023.67 577.51,1023.67 578.618,1023.67 579.725,1023.67 580.833,1023.67 581.94,1023.67 583.048,1023.67 584.155,1023.67 585.263,1023.67 586.37,1023.67 587.477,1023.67 588.585,1023.67 589.692,1023.67 590.8,1023.67 591.907,1023.67 593.015,1023.67 594.122,1023.67 595.23,1023.67 596.337,1023.67 597.445,1023.67 598.552,1023.67 599.659,1023.67 600.767,1023.67 601.874,1023.67 602.982,1023.67 604.089,1023.67 605.197,1023.67 606.304,1023.67 607.412,1023.67 608.519,1023.67 609.627,1023.67 610.734,1023.67 611.841,1023.67 612.949,1023.67 614.056,1023.67 615.164,1023.67 616.271,1023.67 617.379,1023.67 618.486,1023.67 619.594,1023.67 620.701,1023.67 621.808,1023.67 622.916,1023.67 624.023,1023.67 625.131,1023.67 626.238,1023.67 627.346,1023.67 628.453,1023.67 629.561,1023.67 630.668,1023.67 631.776,1023.67 632.883,1023.67 633.99,1023.67 635.098,1023.67 636.205,1023.67 637.313,1023.67 638.42,1023.67 639.528,1023.67 640.635,1023.67 641.743,1023.67 642.85,1023.67 643.958,1023.67 645.065,1023.67 646.172,1023.67 647.28,1023.67 648.387,1023.67 649.495,1023.67 650.602,1023.67 651.71,1023.67 652.817,1023.67 653.925,1023.67 655.032,1023.67 656.14,1023.67 657.247,1023.67 658.354,1023.67 659.462,1023.67 660.569,1023.67 661.677,1023.67 662.784,1023.67 663.892,1023.67 664.999,1023.67 666.107,1023.67 667.214,1023.67 668.321,1023.67 669.429,1023.67 670.536,1023.67 671.644,1023.67 672.751,1023.67 673.859,1023.67 674.966,1023.67 676.074,1023.67 677.181,1023.67 678.289,1023.67 679.396,1023.67 680.503,1023.67 681.611,1023.67 682.718,1023.67 683.826,1023.67 684.933,1023.67 686.041,1023.67 687.148,1023.67 688.256,1023.67 689.363,1023.67 690.471,1023.67 691.578,1023.67 692.685,1023.67 693.793,1023.67 694.9,1023.67 696.008,1023.67 697.115,1023.67 698.223,1023.67 699.33,1023.67 700.438,1023.67 701.545,1023.67 702.652,1023.67 703.76,1023.67 704.867,1023.67 705.975,1023.67 707.082,1023.67 708.19,1023.67 709.297,1023.67 710.405,951.554 711.512,951.554 712.62,951.554 713.727,951.554 714.834,951.554 715.942,951.554 717.049,951.554 718.157,951.554 719.264,951.554 720.372,951.554 721.479,951.554 722.587,951.554 723.694,951.554 724.802,951.554 725.909,951.554 727.016,951.554 728.124,951.554 729.231,951.554 730.339,951.554 731.446,951.554 732.554,951.554 733.661,951.554 734.769,951.554 735.876,951.554 736.983,951.554 738.091,951.554 739.198,951.554 740.306,951.554 741.413,951.554 742.521,951.554 743.628,951.554 744.736,951.554 745.843,951.554 746.951,951.554 748.058,951.554 749.165,951.554 750.273,951.554 751.38,951.554 752.488,951.554 753.595,951.554 754.703,951.554 755.81,951.554 756.918,951.554 758.025,951.554 759.133,951.554 760.24,951.554 761.347,951.554 762.455,951.554 763.562,951.554 764.67,951.554 765.777,951.554 766.885,951.554 767.992,951.554 769.1,951.554 770.207,951.554 771.315,951.554 772.422,951.554 773.529,951.554 774.637,951.554 775.744,951.554 776.852,951.554 777.959,951.554 779.067,951.554 780.174,951.554 781.282,951.554 782.389,951.554 783.496,951.554 784.604,951.554 785.711,951.554 786.819,951.554 787.926,951.554 789.034,951.554 790.141,951.554 791.249,951.554 792.356,951.554 793.464,951.554 794.571,951.554 795.678,951.554 796.786,951.554 797.893,951.554 799.001,951.554 800.108,951.554 801.216,951.554 802.323,951.554 803.431,951.554 804.538,951.554 805.646,951.554 806.753,951.554 807.86,951.554 808.968,951.554 810.075,951.554 811.183,951.554 812.29,951.554 813.398,879.44 814.505,879.44 815.613,879.44 816.72,879.44 817.827,879.44 818.935,879.44 820.042,879.44 821.15,879.44 822.257,879.44 823.365,879.44 824.472,879.44 825.58,879.44 826.687,879.44 827.795,879.44 828.902,879.44 830.009,879.44 831.117,879.44 832.224,879.44 833.332,879.44 834.439,879.44 835.547,879.44 836.654,879.44 837.762,879.44 838.869,879.44 839.977,879.44 841.084,879.44 842.191,879.44 843.299,879.44 844.406,879.44 845.514,879.44 846.621,879.44 847.729,879.44 848.836,879.44 849.944,879.44 851.051,879.44 852.159,879.44 853.266,879.44 854.373,879.44 855.481,879.44 856.588,879.44 857.696,879.44 858.803,879.44 859.911,879.44 861.018,879.44 862.126,879.44 863.233,879.44 864.34,879.44 865.448,879.44 866.555,879.44 867.663,879.44 868.77,879.44 869.878,879.44 870.985,879.44 872.093,879.44 873.2,879.44 874.308,879.44 875.415,879.44 876.522,879.44 877.63,879.44 878.737,879.44 879.845,879.44 880.952,879.44 882.06,879.44 883.167,879.44 884.275,879.44 885.382,879.44 886.49,879.44 887.597,879.44 888.704,879.44 889.812,879.44 890.919,879.44 892.027,879.44 893.134,879.44 894.242,879.44 895.349,879.44 896.457,879.44 897.564,879.44 898.671,879.44 899.779,879.44 900.886,879.44 901.994,879.44 903.101,879.44 904.209,879.44 905.316,879.44 906.424,879.44 907.531,879.44 908.639,879.44 909.746,879.44 910.853,879.44 911.961,879.44 913.068,879.44 914.176,879.44 915.283,879.44 916.391,879.44 917.498,879.44 918.606,879.44 919.713,879.44 920.821,879.44 921.928,879.44 923.035,879.44 924.143,879.44 925.25,879.44 926.358,879.44 927.465,879.44 928.573,879.44 929.68,879.44 930.788,879.44 931.895,879.44 933.002,879.44 934.11,879.44 935.217,879.44 936.325,879.44 937.432,879.44 938.54,879.44 939.647,879.44 940.755,879.44 941.862,807.326 942.97,807.326 944.077,807.326 945.184,807.326 946.292,807.326 947.399,807.326 948.507,807.326 949.614,807.326 950.722,807.326 951.829,807.326 952.937,807.326 954.044,807.326 955.152,807.326 956.259,807.326 957.366,807.326 958.474,807.326 959.581,807.326 960.689,807.326 961.796,807.326 962.904,807.326 964.011,807.326 965.119,807.326 966.226,807.326 967.334,807.326 968.441,807.326 969.548,807.326 970.656,807.326 971.763,807.326 972.871,807.326 973.978,807.326 975.086,807.326 976.193,807.326 977.301,807.326 978.408,807.326 979.515,807.326 980.623,735.212 981.73,735.212 982.838,735.212 983.945,735.212 985.053,735.212 986.16,735.212 987.268,735.212 988.375,735.212 989.483,735.212 990.59,735.212 991.697,735.212 992.805,735.212 993.912,735.212 995.02,735.212 996.127,735.212 997.235,735.212 998.342,735.212 999.45,735.212 1000.56,735.212 1001.66,735.212 1002.77,735.212 1003.88,735.212 1004.99,735.212 1006.09,735.212 1007.2,735.212 1008.31,735.212 1009.42,735.212 1010.52,735.212 1011.63,735.212 1012.74,735.212 1013.85,735.212 1014.95,735.212 1016.06,735.212 1017.17,735.212 1018.28,735.212 1019.38,735.212 1020.49,735.212 1021.6,735.212 1022.71,735.212 1023.81,735.212 1024.92,735.212 1026.03,735.212 1027.14,735.212 1028.24,735.212 1029.35,735.212 1030.46,735.212 1031.57,735.212 1032.67,735.212 1033.78,735.212 1034.89,735.212 1036,735.212 1037.1,735.212 1038.21,735.212 1039.32,735.212 1040.43,735.212 1041.53,735.212 1042.64,735.212 1043.75,735.212 1044.86,735.212 1045.96,735.212 1047.07,735.212 1048.18,735.212 1049.28,735.212 1050.39,735.212 1051.5,735.212 1052.61,663.098 1053.71,663.098 1054.82,663.098 1055.93,663.098 1057.04,663.098 1058.14,663.098 1059.25,663.098 1060.36,663.098 1061.47,663.098 1062.57,663.098 1063.68,663.098 1064.79,663.098 1065.9,663.098 1067,663.098 1068.11,663.098 1069.22,663.098 1070.33,663.098 1071.43,663.098 1072.54,663.098 1073.65,663.098 1074.76,663.098 1075.86,663.098 1076.97,663.098 1078.08,663.098 1079.19,663.098 1080.29,663.098 1081.4,663.098 1082.51,663.098 1083.62,663.098 1084.72,663.098 1085.83,663.098 1086.94,663.098 1088.05,663.098 1089.15,663.098 1090.26,663.098 1091.37,663.098 1092.48,663.098 1093.58,663.098 1094.69,663.098 1095.8,663.098 1096.91,663.098 1098.01,663.098 1099.12,663.098 1100.23,663.098 1101.34,663.098 1102.44,663.098 1103.55,663.098 1104.66,663.098 1105.77,663.098 1106.87,663.098 1107.98,663.098 1109.09,663.098 1110.19,663.098 1111.3,663.098 1112.41,663.098 1113.52,663.098 1114.62,663.098 1115.73,663.098 1116.84,663.098 1117.95,663.098 1119.05,663.098 1120.16,663.098 1121.27,663.098 1122.38,663.098 1123.48,663.098 1124.59,663.098 1125.7,663.098 1126.81,663.098 1127.91,663.098 1129.02,663.098 1130.13,663.098 1131.24,663.098 1132.34,663.098 1133.45,663.098 1134.56,663.098 1135.67,663.098 1136.77,663.098 1137.88,663.098 1138.99,663.098 1140.1,663.098 1141.2,663.098 1142.31,663.098 1143.42,663.098 1144.53,663.098 1145.63,663.098 1146.74,663.098 1147.85,663.098 1148.96,663.098 1150.06,663.098 1151.17,663.098 1152.28,663.098 1153.39,663.098 1154.49,663.098 1155.6,663.098 1156.71,663.098 1157.82,663.098 1158.92,663.098 1160.03,663.098 1161.14,663.098 1162.25,663.098 1163.35,663.098 1164.46,663.098 1165.57,663.098 1166.67,663.098 1167.78,663.098 1168.89,663.098 1170,663.098 1171.1,663.098 1172.21,663.098 1173.32,663.098 1174.43,663.098 1175.53,663.098 1176.64,663.098 1177.75,663.098 1178.86,663.098 1179.96,663.098 1181.07,663.098 1182.18,663.098 1183.29,663.098 1184.39,663.098 1185.5,663.098 1186.61,663.098 1187.72,663.098 1188.82,663.098 1189.93,663.098 1191.04,663.098 1192.15,663.098 1193.25,663.098 1194.36,663.098 1195.47,663.098 1196.58,663.098 1197.68,663.098 1198.79,663.098 1199.9,663.098 1201.01,663.098 1202.11,663.098 1203.22,663.098 1204.33,663.098 1205.44,663.098 1206.54,663.098 1207.65,663.098 1208.76,663.098 1209.87,663.098 1210.97,663.098 1212.08,663.098 1213.19,663.098 1214.3,663.098 1215.4,663.098 1216.51,663.098 1217.62,663.098 1218.73,663.098 1219.83,663.098 1220.94,663.098 1222.05,663.098 1223.15,663.098 1224.26,663.098 1225.37,663.098 1226.48,663.098 1227.58,663.098 1228.69,663.098 1229.8,663.098 1230.91,663.098 1232.01,663.098 1233.12,663.098 1234.23,663.098 1235.34,663.098 1236.44,663.098 1237.55,663.098 1238.66,663.098 1239.77,663.098 1240.87,663.098 1241.98,663.098 1243.09,663.098 1244.2,663.098 1245.3,663.098 1246.41,590.984 1247.52,590.984 1248.63,590.984 1249.73,590.984 1250.84,590.984 1251.95,590.984 1253.06,590.984 1254.16,590.984 1255.27,518.87 1256.38,518.87 1257.49,518.87 1258.59,518.87 1259.7,518.87 1260.81,518.87 1261.92,518.87 1263.02,518.87 1264.13,518.87 1265.24,518.87 1266.35,518.87 1267.45,518.87 1268.56,518.87 1269.67,518.87 1270.78,518.87 1271.88,518.87 1272.99,518.87 1274.1,518.87 1275.21,518.87 1276.31,518.87 1277.42,518.87 1278.53,518.87 1279.63,518.87 1280.74,518.87 1281.85,518.87 1282.96,518.87 1284.06,518.87 1285.17,518.87 1286.28,518.87 1287.39,518.87 1288.49,518.87 1289.6,518.87 1290.71,518.87 1291.82,518.87 1292.92,518.87 1294.03,518.87 1295.14,518.87 1296.25,518.87 1297.35,518.87 1298.46,518.87 1299.57,518.87 1300.68,518.87 1301.78,518.87 1302.89,518.87 1304,518.87 1305.11,518.87 1306.21,518.87 1307.32,518.87 1308.43,518.87 1309.54,518.87 1310.64,518.87 1311.75,518.87 1312.86,518.87 1313.97,518.87 1315.07,518.87 1316.18,518.87 1317.29,518.87 1318.4,518.87 1319.5,518.87 1320.61,518.87 1321.72,518.87 1322.83,518.87 1323.93,518.87 1325.04,518.87 1326.15,518.87 1327.26,518.87 1328.36,518.87 1329.47,518.87 1330.58,518.87 1331.69,518.87 1332.79,518.87 1333.9,518.87 1335.01,518.87 1336.12,518.87 1337.22,518.87 1338.33,518.87 1339.44,518.87 1340.54,518.87 1341.65,518.87 1342.76,518.87 1343.87,518.87 1344.97,518.87 1346.08,518.87 1347.19,518.87 1348.3,518.87 1349.4,518.87 1350.51,518.87 1351.62,518.87 1352.73,518.87 1353.83,518.87 1354.94,518.87 1356.05,518.87 1357.16,518.87 1358.26,446.756 1359.37,446.756 1360.48,446.756 1361.59,446.756 1362.69,446.756 1363.8,446.756 1364.91,446.756 1366.02,446.756 1367.12,446.756 1368.23,446.756 1369.34,446.756 1370.45,446.756 1371.55,446.756 1372.66,446.756 1373.77,446.756 1374.88,446.756 1375.98,446.756 1377.09,446.756 1378.2,446.756 1379.31,446.756 1380.41,446.756 1381.52,446.756 1382.63,446.756 1383.74,446.756 1384.84,446.756 1385.95,446.756 1387.06,446.756 1388.17,446.756 1389.27,446.756 1390.38,446.756 1391.49,446.756 1392.6,446.756 1393.7,446.756 1394.81,446.756 1395.92,446.756 1397.02,446.756 1398.13,446.756 1399.24,446.756 1400.35,446.756 1401.45,446.756 1402.56,446.756 1403.67,446.756 1404.78,446.756 1405.88,446.756 1406.99,446.756 1408.1,446.756 1409.21,446.756 1410.31,446.756 1411.42,446.756 1412.53,446.756 1413.64,446.756 1414.74,446.756 1415.85,446.756 1416.96,446.756 1418.07,446.756 1419.17,446.756 1420.28,446.756 1421.39,446.756 1422.5,446.756 1423.6,446.756 1424.71,446.756 1425.82,446.756 1426.93,446.756 1428.03,446.756 1429.14,446.756 1430.25,446.756 1431.36,446.756 1432.46,446.756 1433.57,446.756 1434.68,446.756 1435.79,446.756 1436.89,446.756 1438,446.756 1439.11,446.756 1440.22,446.756 1441.32,446.756 1442.43,446.756 1443.54,446.756 1444.65,446.756 1445.75,446.756 1446.86,446.756 1447.97,446.756 1449.08,446.756 1450.18,446.756 1451.29,446.756 1452.4,446.756 1453.5,446.756 1454.61,446.756 1455.72,446.756 1456.83,446.756 1457.93,446.756 1459.04,446.756 1460.15,446.756 1461.26,446.756 1462.36,446.756 1463.47,446.756 1464.58,446.756 1465.69,446.756 1466.79,446.756 1467.9,446.756 1469.01,446.756 1470.12,446.756 1471.22,446.756 1472.33,446.756 1473.44,446.756 1474.55,446.756 1475.65,446.756 1476.76,446.756 1477.87,446.756 1478.98,446.756 1480.08,446.756 1481.19,446.756 1482.3,446.756 1483.41,446.756 1484.51,446.756 1485.62,446.756 1486.73,446.756 1487.84,446.756 1488.94,446.756 1490.05,446.756 1491.16,446.756 1492.27,446.756 1493.37,446.756 1494.48,446.756 1495.59,446.756 1496.7,446.756 1497.8,446.756 1498.91,446.756 1500.02,446.756 1501.13,446.756 1502.23,446.756 1503.34,446.756 1504.45,446.756 1505.56,446.756 1506.66,446.756 1507.77,446.756 1508.88,446.756 1509.98,446.756 1511.09,446.756 1512.2,446.756 1513.31,446.756 1514.41,446.756 1515.52,446.756 1516.63,446.756 1517.74,446.756 1518.84,446.756 1519.95,446.756 1521.06,446.756 1522.17,446.756 1523.27,446.756 1524.38,446.756 1525.49,446.756 1526.6,446.756 1527.7,446.756 1528.81,446.756 1529.92,446.756 1531.03,446.756 1532.13,446.756 1533.24,446.756 1534.35,446.756 1535.46,446.756 1536.56,446.756 1537.67,446.756 1538.78,446.756 1539.89,446.756 1540.99,446.756 1542.1,446.756 1543.21,446.756 1544.32,446.756 1545.42,446.756 1546.53,446.756 1547.64,446.756 1548.75,446.756 1549.85,446.756 1550.96,446.756 1552.07,446.756 1553.18,446.756 1554.28,446.756 1555.39,446.756 1556.5,446.756 1557.61,446.756 1558.71,446.756 1559.82,446.756 1560.93,446.756 1562.04,446.756 1563.14,446.756 1564.25,446.756 1565.36,446.756 1566.47,446.756 1567.57,446.756 1568.68,446.756 1569.79,446.756 1570.89,446.756 1572,446.756 1573.11,446.756 1574.22,446.756 1575.32,446.756 1576.43,446.756 1577.54,446.756 1578.65,446.756 1579.75,446.756 1580.86,446.756 1581.97,446.756 1583.08,446.756 1584.18,446.756 1585.29,446.756 1586.4,446.756 1587.51,446.756 1588.61,446.756 1589.72,446.756 1590.83,446.756 1591.94,446.756 1593.04,446.756 1594.15,446.756 1595.26,446.756 1596.37,446.756 1597.47,446.756 1598.58,446.756 1599.69,446.756 1600.8,446.756 1601.9,446.756 1603.01,446.756 1604.12,446.756 1605.23,446.756 1606.33,446.756 1607.44,446.756 1608.55,446.756 1609.66,446.756 1610.76,446.756 1611.87,446.756 1612.98,446.756 1614.09,446.756 1615.19,446.756 1616.3,446.756 1617.41,446.756 1618.52,446.756 1619.62,446.756 1620.73,446.756 1621.84,446.756 1622.95,446.756 1624.05,446.756 1625.16,446.756 1626.27,446.756 1627.37,446.756 1628.48,446.756 1629.59,446.756 1630.7,446.756 1631.8,446.756 1632.91,446.756 1634.02,446.756 1635.13,446.756 1636.23,446.756 1637.34,446.756 1638.45,446.756 1639.56,446.756 1640.66,446.756 1641.77,446.756 1642.88,446.756 1643.99,446.756 1645.09,446.756 1646.2,446.756 1647.31,446.756 1648.42,446.756 1649.52,446.756 1650.63,446.756 1651.74,446.756 1652.85,446.756 1653.95,446.756 1655.06,446.756 1656.17,446.756 1657.28,446.756 1658.38,446.756 1659.49,446.756 1660.6,446.756 1661.71,446.756 1662.81,446.756 1663.92,446.756 1665.03,446.756 1666.14,446.756 1667.24,446.756 1668.35,446.756 1669.46,446.756 1670.57,446.756 1671.67,446.756 1672.78,446.756 1673.89,446.756 1675,446.756 1676.1,446.756 1677.21,446.756 1678.32,446.756 1679.43,446.756 1680.53,446.756 1681.64,446.756 1682.75,446.756 1683.85,446.756 1684.96,446.756 1686.07,446.756 1687.18,446.756 1688.28,446.756 1689.39,446.756 1690.5,446.756 1691.61,446.756 1692.71,446.756 1693.82,446.756 1694.93,446.756 1696.04,446.756 1697.14,446.756 1698.25,374.642 1699.36,374.642 1700.47,374.642 1701.57,374.642 1702.68,374.642 1703.79,374.642 1704.9,374.642 1706,374.642 1707.11,374.642 1708.22,374.642 1709.33,374.642 1710.43,374.642 1711.54,374.642 1712.65,374.642 1713.76,374.642 1714.86,374.642 1715.97,374.642 1717.08,374.642 1718.19,374.642 1719.29,374.642 1720.4,374.642 1721.51,374.642 1722.62,374.642 1723.72,374.642 1724.83,374.642 1725.94,374.642 1727.05,374.642 1728.15,374.642 1729.26,374.642 1730.37,374.642 1731.48,374.642 1732.58,374.642 1733.69,374.642 1734.8,374.642 1735.91,374.642 1737.01,374.642 1738.12,374.642 1739.23,374.642 1740.33,374.642 1741.44,374.642 1742.55,374.642 1743.66,374.642 1744.76,374.642 1745.87,374.642 1746.98,374.642 1748.09,374.642 1749.19,374.642 1750.3,374.642 1751.41,374.642 1752.52,374.642 1753.62,374.642 1754.73,374.642 1755.84,374.642 1756.95,302.528 1758.05,302.528 1759.16,302.528 1760.27,302.528 1761.38,302.528 1762.48,302.528 1763.59,302.528 1764.7,302.528 1765.81,302.528 1766.91,302.528 1768.02,302.528 1769.13,302.528 1770.24,302.528 1771.34,302.528 1772.45,302.528 1773.56,302.528 1774.67,302.528 1775.77,302.528 1776.88,302.528 1777.99,302.528 1779.1,302.528 1780.2,302.528 1781.31,302.528 1782.42,302.528 1783.53,302.528 1784.63,302.528 1785.74,302.528 1786.85,302.528 1787.96,302.528 1789.06,302.528 1790.17,302.528 1791.28,302.528 1792.39,302.528 1793.49,302.528 1794.6,302.528 1795.71,302.528 1796.82,302.528 1797.92,302.528 1799.03,302.528 1800.14,302.528 1801.24,302.528 1802.35,302.528 1803.46,302.528 1804.57,302.528 1805.67,302.528 1806.78,302.528 1807.89,302.528 1809,302.528 1810.1,302.528 1811.21,302.528 1812.32,302.528 1813.43,302.528 1814.53,302.528 1815.64,302.528 1816.75,302.528 1817.86,302.528 1818.96,302.528 1820.07,302.528 1821.18,302.528 1822.29,302.528 1823.39,302.528 1824.5,302.528 1825.61,302.528 1826.72,302.528 1827.82,302.528 1828.93,302.528 1830.04,302.528 1831.15,302.528 1832.25,302.528 1833.36,302.528 1834.47,302.528 1835.58,302.528 1836.68,302.528 1837.79,302.528 1838.9,302.528 1840.01,302.528 1841.11,302.528 1842.22,302.528 1843.33,302.528 1844.44,302.528 1845.54,302.528 1846.65,302.528 1847.76,302.528 1848.87,302.528 1849.97,302.528 1851.08,302.528 1852.19,302.528 1853.3,302.528 1854.4,302.528 1855.51,302.528 1856.62,302.528 1857.72,302.528 1858.83,302.528 1859.94,302.528 1861.05,302.528 1862.15,302.528 1863.26,302.528 1864.37,302.528 1865.48,302.528 1866.58,302.528 1867.69,302.528 1868.8,302.528 1869.91,302.528 1871.01,302.528 1872.12,302.528 1873.23,302.528 1874.34,302.528 1875.44,302.528 1876.55,302.528 1877.66,302.528 1878.77,302.528 1879.87,302.528 1880.98,302.528 1882.09,302.528 1883.2,302.528 1884.3,302.528 1885.41,302.528 1886.52,302.528 1887.63,302.528 1888.73,302.528 1889.84,302.528 1890.95,302.528 1892.06,302.528 1893.16,302.528 1894.27,302.528 1895.38,302.528 1896.49,302.528 1897.59,302.528 1898.7,302.528 1899.81,302.528 1900.92,302.528 1902.02,302.528 1903.13,302.528 1904.24,302.528 1905.35,302.528 1906.45,302.528 1907.56,302.528 1908.67,302.528 1909.78,302.528 1910.88,302.528 1911.99,302.528 1913.1,302.528 1914.2,302.528 1915.31,302.528 1916.42,302.528 1917.53,302.528 1918.63,302.528 1919.74,302.528 1920.85,302.528 1921.96,302.528 1923.06,302.528 1924.17,302.528 1925.28,302.528 1926.39,302.528 1927.49,302.528 1928.6,302.528 1929.71,302.528 1930.82,302.528 1931.92,302.528 1933.03,302.528 1934.14,302.528 1935.25,302.528 1936.35,302.528 1937.46,302.528 1938.57,302.528 1939.68,302.528 1940.78,302.528 1941.89,302.528 1943,302.528 1944.11,302.528 1945.21,302.528 1946.32,302.528 1947.43,302.528 1948.54,230.414 1949.64,230.414 1950.75,230.414 1951.86,230.414 1952.97,230.414 1954.07,230.414 1955.18,230.414 1956.29,230.414 1957.4,230.414 1958.5,230.414 1959.61,230.414 1960.72,230.414 1961.83,230.414 1962.93,230.414 1964.04,230.414 1965.15,230.414 1966.26,230.414 1967.36,230.414 1968.47,230.414 1969.58,230.414 1970.68,230.414 1971.79,230.414 1972.9,230.414 1974.01,158.3 1975.11,158.3 1976.22,158.3 1977.33,158.3 1978.44,158.3 1979.54,158.3 1980.65,158.3 1981.76,158.3 1982.87,158.3 1983.97,158.3 1985.08,158.3 1986.19,158.3 1987.3,158.3 1988.4,158.3 1989.51,158.3 1990.62,158.3 1991.73,158.3 1992.83,158.3 1993.94,158.3 1995.05,158.3 1996.16,158.3 1997.26,158.3 1998.37,158.3 1999.48,158.3 2000.59,158.3 2001.69,158.3 2002.8,158.3 2003.91,158.3 2005.02,158.3 2006.12,158.3 2007.23,158.3 2008.34,158.3 2009.45,158.3 2010.55,158.3 2011.66,158.3 2012.77,158.3 2013.88,158.3 2014.98,158.3 2016.09,158.3 2017.2,158.3 2018.31,158.3 2019.41,158.3 2020.52,158.3 2021.63,158.3 2022.74,158.3 2023.84,158.3 2024.95,158.3 2026.06,158.3 2027.17,158.3 2028.27,158.3 2029.38,158.3 2030.49,158.3 2031.59,158.3 2032.7,158.3 2033.81,158.3 2034.92,158.3 2036.02,158.3 2037.13,158.3 2038.24,158.3 2039.35,158.3 2040.45,158.3 2041.56,158.3 2042.67,158.3 2043.78,158.3 2044.88,158.3 2045.99,158.3 2047.1,158.3 2048.21,158.3 2049.31,158.3 2050.42,158.3 2051.53,158.3 2052.64,158.3 2053.74,158.3 2054.85,158.3 2055.96,158.3 2057.07,158.3 2058.17,158.3 2059.28,158.3 2060.39,158.3 2061.5,158.3 2062.6,158.3 2063.71,158.3 2064.82,158.3 2065.93,158.3 2067.03,158.3 2068.14,158.3 2069.25,158.3 2070.36,158.3 2071.46,158.3 2072.57,158.3 2073.68,158.3 2074.79,158.3 2075.89,158.3 2077,158.3 2078.11,158.3 2079.22,158.3 2080.32,158.3 2081.43,158.3 2082.54,158.3 2083.65,158.3 2084.75,158.3 2085.86,158.3 2086.97,158.3 2088.07,158.3 2089.18,158.3 2090.29,158.3 2091.4,158.3 2092.5,158.3 2093.61,158.3 2094.72,158.3 2095.83,158.3 2096.93,158.3 2098.04,158.3 2099.15,158.3 2100.26,158.3 2101.36,158.3 2102.47,158.3 2103.58,158.3 2104.69,158.3 2105.79,158.3 2106.9,158.3 2108.01,158.3 2109.12,158.3 2110.22,158.3 2111.33,158.3 2112.44,158.3 2113.55,158.3 2114.65,158.3 2115.76,158.3 2116.87,158.3 2117.98,158.3 2119.08,158.3 2120.19,158.3 2121.3,158.3 2122.41,158.3 2123.51,158.3 2124.62,158.3 2125.73,158.3 2126.84,158.3 2127.94,158.3 2129.05,158.3 2130.16,158.3 2131.27,158.3 2132.37,158.3 2133.48,158.3 2134.59,158.3 2135.7,158.3 2136.8,158.3 2137.91,158.3 2139.02,158.3 2140.13,158.3 2141.23,158.3 2142.34,158.3 2143.45,158.3 2144.55,158.3 2145.66,158.3 2146.77,158.3 2147.88,158.3 2148.98,158.3 2150.09,158.3 2151.2,158.3 2152.31,158.3 2153.41,158.3 2154.52,158.3 2155.63,158.3 2156.74,158.3 2157.84,158.3 2158.95,158.3 2160.06,158.3 2161.17,158.3 2162.27,158.3 2163.38,158.3 2164.49,158.3 2165.6,158.3 2166.7,158.3 2167.81,158.3 2168.92,158.3 2170.03,158.3 2171.13,158.3 2172.24,158.3 2173.35,158.3 2174.46,158.3 2175.56,158.3 2176.67,158.3 2177.78,158.3 2178.89,158.3 2179.99,158.3 2181.1,158.3 2182.21,158.3 2183.32,158.3 2184.42,158.3 2185.53,158.3 2186.64,158.3 2187.75,158.3 2188.85,158.3 2189.96,158.3 2191.07,158.3 2192.18,158.3 2193.28,158.3 2194.39,158.3 2195.5,158.3 2196.61,158.3 2197.71,158.3 2198.82,158.3 2199.93,158.3 2201.03,158.3 2202.14,158.3 2203.25,158.3 2204.36,158.3 2205.46,158.3 2206.57,158.3 2207.68,158.3 2208.79,158.3 2209.89,158.3 2211,158.3 2212.11,158.3 2213.22,158.3 2214.32,158.3 2215.43,158.3 2216.54,158.3 2217.65,158.3 2218.75,158.3 2219.86,158.3 2220.97,158.3 2222.08,158.3 2223.18,158.3 2224.29,158.3 2225.4,158.3 2226.51,158.3 2227.61,158.3 2228.72,158.3 2229.83,158.3 2230.94,158.3 2232.04,158.3 2233.15,158.3 2234.26,158.3 2235.37,158.3 2236.47,158.3 2237.58,158.3 2238.69,158.3 2239.8,158.3 2240.9,158.3 2242.01,158.3 2243.12,158.3 2244.23,158.3 2245.33,158.3 2246.44,158.3 2247.55,158.3 2248.66,158.3 2249.76,158.3 2250.87,158.3 2251.98,158.3 2253.09,158.3 2254.19,158.3 2255.3,158.3 2256.41,158.3 2257.52,158.3 2258.62,158.3 2259.73,158.3 2260.84,158.3 2261.94,158.3 2263.05,158.3 2264.16,158.3 2265.27,158.3 2266.37,158.3 2267.48,158.3 2268.59,158.3 2269.7,158.3 2270.8,158.3 2271.91,158.3 2273.02,158.3 2274.13,158.3 2275.23,158.3 2276.34,158.3 2277.45,158.3 2278.56,158.3 2279.66,158.3 2280.77,158.3 2281.88,158.3 2282.99,158.3 2284.09,158.3 2285.2,158.3 2286.31,158.3 2287.42,158.3 2288.52,158.3 2289.63,158.3 2290.74,158.3 2291.85,158.3 2292.95,158.3 2294.06,158.3 2295.17,158.3 2296.28,158.3 2297.38,158.3 2298.49,158.3 2299.6,158.3 2300.71,158.3 2301.81,158.3 2302.92,158.3 2304.03,158.3 2305.14,158.3 2306.24,158.3 2307.35,158.3 2308.46,158.3 2309.57,158.3 2310.67,158.3 2311.78,158.3 2312.89,158.3 2314,158.3 2315.1,158.3 2316.21,86.1857 2317.32,86.1857 2318.42,86.1857 2319.53,86.1857 2320.64,86.1857 2321.75,86.1857 2322.85,86.1857 2323.96,86.1857 2325.07,86.1857 2326.18,86.1857 2327.28,86.1857 2328.39,86.1857 2329.5,86.1857 2330.61,86.1857 2331.71,86.1857 2332.82,86.1857 2333.93,86.1857 2335.04,86.1857 2336.14,86.1857 2337.25,86.1857 2338.36,86.1857 2339.47,86.1857 2340.57,86.1857 2341.68,86.1857 2342.79,86.1857 2343.9,86.1857 2345,86.1857 2346.11,86.1857 2347.22,86.1857 2348.33,86.1857 2349.43,86.1857 2350.54,86.1857 2351.65,86.1857 2352.76,86.1857 "/>
<path clip-path="url(#clip740)" d="M1975.27 1377.32 L2278.96 1377.32 L2278.96 1273.64 L1975.27 1273.64  Z" fill="#ffffff" fill-rule="evenodd" fill-opacity="1"/>
<polyline clip-path="url(#clip740)" style="stroke:#000000; stroke-linecap:round; stroke-linejoin:round; stroke-width:4; stroke-opacity:1; fill:none" points="1975.27,1377.32 2278.96,1377.32 2278.96,1273.64 1975.27,1273.64 1975.27,1377.32 "/>
<polyline clip-path="url(#clip740)" style="stroke:#009af9; stroke-linecap:round; stroke-linejoin:round; stroke-width:8; stroke-opacity:1; fill:none" points="1999.87,1325.48 2147.45,1325.48 "/>
<path clip-path="url(#clip740)" d="M2172.05 1308.2 L2178.35 1308.2 L2193.67 1337.11 L2193.67 1308.2 L2198.21 1308.2 L2198.21 1342.76 L2191.91 1342.76 L2176.59 1313.84 L2176.59 1342.76 L2172.05 1342.76 L2172.05 1308.2 Z" fill="#000000" fill-rule="nonzero" fill-opacity="1" /><path clip-path="url(#clip740)" d="M2217.56 1306.78 Q2214.46 1312.11 2212.95 1317.32 Q2211.45 1322.52 2211.45 1327.87 Q2211.45 1333.22 2212.95 1338.47 Q2214.48 1343.7 2217.56 1349.01 L2213.86 1349.01 Q2210.38 1343.57 2208.65 1338.31 Q2206.93 1333.06 2206.93 1327.87 Q2206.93 1322.71 2208.65 1317.48 Q2210.36 1312.25 2213.86 1306.78 L2217.56 1306.78 Z" fill="#000000" fill-rule="nonzero" fill-opacity="1" /><path clip-path="url(#clip740)" d="M2230.04 1309.47 L2230.04 1316.83 L2238.81 1316.83 L2238.81 1320.14 L2230.04 1320.14 L2230.04 1334.21 Q2230.04 1337.38 2230.89 1338.29 Q2231.77 1339.19 2234.43 1339.19 L2238.81 1339.19 L2238.81 1342.76 L2234.43 1342.76 Q2229.5 1342.76 2227.63 1340.93 Q2225.75 1339.07 2225.75 1334.21 L2225.75 1320.14 L2222.63 1320.14 L2222.63 1316.83 L2225.75 1316.83 L2225.75 1309.47 L2230.04 1309.47 Z" fill="#000000" fill-rule="nonzero" fill-opacity="1" /><path clip-path="url(#clip740)" d="M2243.74 1306.78 L2247.44 1306.78 Q2250.92 1312.25 2252.63 1317.48 Q2254.36 1322.71 2254.36 1327.87 Q2254.36 1333.06 2252.63 1338.31 Q2250.92 1343.57 2247.44 1349.01 L2243.74 1349.01 Q2246.82 1343.7 2248.32 1338.47 Q2249.85 1333.22 2249.85 1327.87 Q2249.85 1322.52 2248.32 1317.32 Q2246.82 1312.11 2243.74 1306.78 Z" fill="#000000" fill-rule="nonzero" fill-opacity="1" /></svg>
