<?xml version="1.0" encoding="utf-8"?>
<svg xmlns="http://www.w3.org/2000/svg" xmlns:xlink="http://www.w3.org/1999/xlink" width="600" height="400" viewBox="0 0 2400 1600">
<defs>
  <clipPath id="clip650">
    <rect x="0" y="0" width="2400" height="1600"/>
  </clipPath>
</defs>
<path clip-path="url(#clip650)" d="M0 1600 L2400 1600 L2400 0 L0 0  Z" fill="#ffffff" fill-rule="evenodd" fill-opacity="1"/>
<defs>
  <clipPath id="clip651">
    <rect x="140" y="47" width="2213" height="1377"/>
  </clipPath>
</defs>
<path clip-path="url(#clip650)" d="M140.696 1423.18 L2352.76 1423.18 L2352.76 47.2441 L140.696 47.2441  Z" fill="#ffffff" fill-rule="evenodd" fill-opacity="1"/>
<polyline clip-path="url(#clip651)" style="stroke:#000000; stroke-linecap:round; stroke-linejoin:round; stroke-width:2; stroke-opacity:0.1; fill:none" points="579.749,1423.18 579.749,47.2441 "/>
<polyline clip-path="url(#clip651)" style="stroke:#000000; stroke-linecap:round; stroke-linejoin:round; stroke-width:2; stroke-opacity:0.1; fill:none" points="1025.02,1423.18 1025.02,47.2441 "/>
<polyline clip-path="url(#clip651)" style="stroke:#000000; stroke-linecap:round; stroke-linejoin:round; stroke-width:2; stroke-opacity:0.1; fill:none" points="1470.28,1423.18 1470.28,47.2441 "/>
<polyline clip-path="url(#clip651)" style="stroke:#000000; stroke-linecap:round; stroke-linejoin:round; stroke-width:2; stroke-opacity:0.1; fill:none" points="1915.55,1423.18 1915.55,47.2441 "/>
<polyline clip-path="url(#clip651)" style="stroke:#000000; stroke-linecap:round; stroke-linejoin:round; stroke-width:2; stroke-opacity:0.1; fill:none" points="140.696,1386.9 2352.76,1386.9 "/>
<polyline clip-path="url(#clip651)" style="stroke:#000000; stroke-linecap:round; stroke-linejoin:round; stroke-width:2; stroke-opacity:0.1; fill:none" points="140.696,1005.85 2352.76,1005.85 "/>
<polyline clip-path="url(#clip651)" style="stroke:#000000; stroke-linecap:round; stroke-linejoin:round; stroke-width:2; stroke-opacity:0.1; fill:none" points="140.696,624.809 2352.76,624.809 "/>
<polyline clip-path="url(#clip651)" style="stroke:#000000; stroke-linecap:round; stroke-linejoin:round; stroke-width:2; stroke-opacity:0.1; fill:none" points="140.696,243.765 2352.76,243.765 "/>
<polyline clip-path="url(#clip650)" style="stroke:#000000; stroke-linecap:round; stroke-linejoin:round; stroke-width:4; stroke-opacity:1; fill:none" points="140.696,1423.18 2352.76,1423.18 "/>
<polyline clip-path="url(#clip650)" style="stroke:#000000; stroke-linecap:round; stroke-linejoin:round; stroke-width:4; stroke-opacity:1; fill:none" points="579.749,1423.18 579.749,1404.28 "/>
<polyline clip-path="url(#clip650)" style="stroke:#000000; stroke-linecap:round; stroke-linejoin:round; stroke-width:4; stroke-opacity:1; fill:none" points="1025.02,1423.18 1025.02,1404.28 "/>
<polyline clip-path="url(#clip650)" style="stroke:#000000; stroke-linecap:round; stroke-linejoin:round; stroke-width:4; stroke-opacity:1; fill:none" points="1470.28,1423.18 1470.28,1404.28 "/>
<polyline clip-path="url(#clip650)" style="stroke:#000000; stroke-linecap:round; stroke-linejoin:round; stroke-width:4; stroke-opacity:1; fill:none" points="1915.55,1423.18 1915.55,1404.28 "/>
<path clip-path="url(#clip650)" d="M554.437 1481.64 L562.075 1481.64 L562.075 1455.28 L553.765 1456.95 L553.765 1452.69 L562.029 1451.02 L566.705 1451.02 L566.705 1481.64 L574.344 1481.64 L574.344 1485.58 L554.437 1485.58 L554.437 1481.64 Z" fill="#000000" fill-rule="nonzero" fill-opacity="1" /><path clip-path="url(#clip650)" d="M593.788 1454.1 Q590.177 1454.1 588.348 1457.66 Q586.543 1461.2 586.543 1468.33 Q586.543 1475.44 588.348 1479.01 Q590.177 1482.55 593.788 1482.55 Q597.423 1482.55 599.228 1479.01 Q601.057 1475.44 601.057 1468.33 Q601.057 1461.2 599.228 1457.66 Q597.423 1454.1 593.788 1454.1 M593.788 1450.39 Q599.598 1450.39 602.654 1455 Q605.733 1459.58 605.733 1468.33 Q605.733 1477.06 602.654 1481.67 Q599.598 1486.25 593.788 1486.25 Q587.978 1486.25 584.899 1481.67 Q581.844 1477.06 581.844 1468.33 Q581.844 1459.58 584.899 1455 Q587.978 1450.39 593.788 1450.39 Z" fill="#000000" fill-rule="nonzero" fill-opacity="1" /><path clip-path="url(#clip650)" d="M1003.79 1481.64 L1020.11 1481.64 L1020.11 1485.58 L998.165 1485.58 L998.165 1481.64 Q1000.83 1478.89 1005.41 1474.26 Q1010.02 1469.61 1011.2 1468.27 Q1013.44 1465.74 1014.32 1464.01 Q1015.22 1462.25 1015.22 1460.56 Q1015.22 1457.8 1013.28 1456.07 Q1011.36 1454.33 1008.26 1454.33 Q1006.06 1454.33 1003.6 1455.09 Q1001.17 1455.86 998.396 1457.41 L998.396 1452.69 Q1001.22 1451.55 1003.67 1450.97 Q1006.13 1450.39 1008.16 1450.39 Q1013.53 1450.39 1016.73 1453.08 Q1019.92 1455.77 1019.92 1460.26 Q1019.92 1462.39 1019.11 1464.31 Q1018.33 1466.2 1016.22 1468.8 Q1015.64 1469.47 1012.54 1472.69 Q1009.44 1475.88 1003.79 1481.64 Z" fill="#000000" fill-rule="nonzero" fill-opacity="1" /><path clip-path="url(#clip650)" d="M1039.92 1454.1 Q1036.31 1454.1 1034.48 1457.66 Q1032.68 1461.2 1032.68 1468.33 Q1032.68 1475.44 1034.48 1479.01 Q1036.31 1482.55 1039.92 1482.55 Q1043.56 1482.55 1045.36 1479.01 Q1047.19 1475.44 1047.19 1468.33 Q1047.19 1461.2 1045.36 1457.66 Q1043.56 1454.1 1039.92 1454.1 M1039.92 1450.39 Q1045.73 1450.39 1048.79 1455 Q1051.87 1459.58 1051.87 1468.33 Q1051.87 1477.06 1048.79 1481.67 Q1045.73 1486.25 1039.92 1486.25 Q1034.11 1486.25 1031.03 1481.67 Q1027.98 1477.06 1027.98 1468.33 Q1027.98 1459.58 1031.03 1455 Q1034.11 1450.39 1039.92 1450.39 Z" fill="#000000" fill-rule="nonzero" fill-opacity="1" /><path clip-path="url(#clip650)" d="M1459.13 1466.95 Q1462.48 1467.66 1464.36 1469.93 Q1466.26 1472.2 1466.26 1475.53 Q1466.26 1480.65 1462.74 1483.45 Q1459.22 1486.25 1452.74 1486.25 Q1450.56 1486.25 1448.25 1485.81 Q1445.96 1485.39 1443.5 1484.54 L1443.5 1480.02 Q1445.45 1481.16 1447.76 1481.74 Q1450.08 1482.32 1452.6 1482.32 Q1457 1482.32 1459.29 1480.58 Q1461.6 1478.84 1461.6 1475.53 Q1461.6 1472.48 1459.45 1470.77 Q1457.32 1469.03 1453.5 1469.03 L1449.47 1469.03 L1449.47 1465.19 L1453.69 1465.19 Q1457.14 1465.19 1458.96 1463.82 Q1460.79 1462.43 1460.79 1459.84 Q1460.79 1457.18 1458.89 1455.77 Q1457.02 1454.33 1453.5 1454.33 Q1451.58 1454.33 1449.38 1454.75 Q1447.18 1455.16 1444.54 1456.04 L1444.54 1451.88 Q1447.21 1451.14 1449.52 1450.77 Q1451.86 1450.39 1453.92 1450.39 Q1459.24 1450.39 1462.34 1452.83 Q1465.45 1455.23 1465.45 1459.35 Q1465.45 1462.22 1463.8 1464.21 Q1462.16 1466.18 1459.13 1466.95 Z" fill="#000000" fill-rule="nonzero" fill-opacity="1" /><path clip-path="url(#clip650)" d="M1485.12 1454.1 Q1481.51 1454.1 1479.68 1457.66 Q1477.88 1461.2 1477.88 1468.33 Q1477.88 1475.44 1479.68 1479.01 Q1481.51 1482.55 1485.12 1482.55 Q1488.76 1482.55 1490.56 1479.01 Q1492.39 1475.44 1492.39 1468.33 Q1492.39 1461.2 1490.56 1457.66 Q1488.76 1454.1 1485.12 1454.1 M1485.12 1450.39 Q1490.93 1450.39 1493.99 1455 Q1497.07 1459.58 1497.07 1468.33 Q1497.07 1477.06 1493.99 1481.67 Q1490.93 1486.25 1485.12 1486.25 Q1479.31 1486.25 1476.23 1481.67 Q1473.18 1477.06 1473.18 1468.33 Q1473.18 1459.58 1476.23 1455 Q1479.31 1450.39 1485.12 1450.39 Z" fill="#000000" fill-rule="nonzero" fill-opacity="1" /><path clip-path="url(#clip650)" d="M1903.72 1455.09 L1891.92 1473.54 L1903.72 1473.54 L1903.72 1455.09 M1902.5 1451.02 L1908.38 1451.02 L1908.38 1473.54 L1913.31 1473.54 L1913.31 1477.43 L1908.38 1477.43 L1908.38 1485.58 L1903.72 1485.58 L1903.72 1477.43 L1888.12 1477.43 L1888.12 1472.92 L1902.5 1451.02 Z" fill="#000000" fill-rule="nonzero" fill-opacity="1" /><path clip-path="url(#clip650)" d="M1931.04 1454.1 Q1927.43 1454.1 1925.6 1457.66 Q1923.79 1461.2 1923.79 1468.33 Q1923.79 1475.44 1925.6 1479.01 Q1927.43 1482.55 1931.04 1482.55 Q1934.67 1482.55 1936.48 1479.01 Q1938.31 1475.44 1938.31 1468.33 Q1938.31 1461.2 1936.48 1457.66 Q1934.67 1454.1 1931.04 1454.1 M1931.04 1450.39 Q1936.85 1450.39 1939.9 1455 Q1942.98 1459.58 1942.98 1468.33 Q1942.98 1477.06 1939.9 1481.67 Q1936.85 1486.25 1931.04 1486.25 Q1925.23 1486.25 1922.15 1481.67 Q1919.09 1477.06 1919.09 1468.33 Q1919.09 1459.58 1922.15 1455 Q1925.23 1450.39 1931.04 1450.39 Z" fill="#000000" fill-rule="nonzero" fill-opacity="1" /><path clip-path="url(#clip650)" d="M1245.79 1522.27 L1245.79 1532.4 L1257.85 1532.4 L1257.85 1536.95 L1245.79 1536.95 L1245.79 1556.3 Q1245.79 1560.66 1246.96 1561.9 Q1248.17 1563.14 1251.83 1563.14 L1257.85 1563.14 L1257.85 1568.04 L1251.83 1568.04 Q1245.05 1568.04 1242.48 1565.53 Q1239.9 1562.98 1239.9 1556.3 L1239.9 1536.95 L1235.6 1536.95 L1235.6 1532.4 L1239.9 1532.4 L1239.9 1522.27 L1245.79 1522.27 Z" fill="#000000" fill-rule="nonzero" fill-opacity="1" /><polyline clip-path="url(#clip650)" style="stroke:#000000; stroke-linecap:round; stroke-linejoin:round; stroke-width:4; stroke-opacity:1; fill:none" points="140.696,1423.18 140.696,47.2441 "/>
<polyline clip-path="url(#clip650)" style="stroke:#000000; stroke-linecap:round; stroke-linejoin:round; stroke-width:4; stroke-opacity:1; fill:none" points="140.696,1386.9 159.593,1386.9 "/>
<polyline clip-path="url(#clip650)" style="stroke:#000000; stroke-linecap:round; stroke-linejoin:round; stroke-width:4; stroke-opacity:1; fill:none" points="140.696,1005.85 159.593,1005.85 "/>
<polyline clip-path="url(#clip650)" style="stroke:#000000; stroke-linecap:round; stroke-linejoin:round; stroke-width:4; stroke-opacity:1; fill:none" points="140.696,624.809 159.593,624.809 "/>
<polyline clip-path="url(#clip650)" style="stroke:#000000; stroke-linecap:round; stroke-linejoin:round; stroke-width:4; stroke-opacity:1; fill:none" points="140.696,243.765 159.593,243.765 "/>
<path clip-path="url(#clip650)" d="M92.7512 1372.7 Q89.1401 1372.7 87.3114 1376.26 Q85.5058 1379.8 85.5058 1386.93 Q85.5058 1394.04 87.3114 1397.6 Q89.1401 1401.14 92.7512 1401.14 Q96.3854 1401.14 98.1909 1397.6 Q100.02 1394.04 100.02 1386.93 Q100.02 1379.8 98.1909 1376.26 Q96.3854 1372.7 92.7512 1372.7 M92.7512 1368.99 Q98.5613 1368.99 101.617 1373.6 Q104.696 1378.18 104.696 1386.93 Q104.696 1395.66 101.617 1400.27 Q98.5613 1404.85 92.7512 1404.85 Q86.941 1404.85 83.8623 1400.27 Q80.8068 1395.66 80.8068 1386.93 Q80.8068 1378.18 83.8623 1373.6 Q86.941 1368.99 92.7512 1368.99 Z" fill="#000000" fill-rule="nonzero" fill-opacity="1" /><path clip-path="url(#clip650)" d="M53.3995 1019.2 L61.0384 1019.2 L61.0384 992.832 L52.7282 994.499 L52.7282 990.24 L60.9921 988.573 L65.668 988.573 L65.668 1019.2 L73.3068 1019.2 L73.3068 1023.13 L53.3995 1023.13 L53.3995 1019.2 Z" fill="#000000" fill-rule="nonzero" fill-opacity="1" /><path clip-path="url(#clip650)" d="M92.7512 991.652 Q89.1401 991.652 87.3114 995.217 Q85.5058 998.758 85.5058 1005.89 Q85.5058 1012.99 87.3114 1016.56 Q89.1401 1020.1 92.7512 1020.1 Q96.3854 1020.1 98.1909 1016.56 Q100.02 1012.99 100.02 1005.89 Q100.02 998.758 98.1909 995.217 Q96.3854 991.652 92.7512 991.652 M92.7512 987.948 Q98.5613 987.948 101.617 992.555 Q104.696 997.138 104.696 1005.89 Q104.696 1014.61 101.617 1019.22 Q98.5613 1023.8 92.7512 1023.8 Q86.941 1023.8 83.8623 1019.22 Q80.8068 1014.61 80.8068 1005.89 Q80.8068 997.138 83.8623 992.555 Q86.941 987.948 92.7512 987.948 Z" fill="#000000" fill-rule="nonzero" fill-opacity="1" /><path clip-path="url(#clip650)" d="M56.6171 638.154 L72.9365 638.154 L72.9365 642.089 L50.9921 642.089 L50.9921 638.154 Q53.6541 635.4 58.2375 630.77 Q62.8439 626.117 64.0245 624.775 Q66.2698 622.251 67.1494 620.515 Q68.0522 618.756 68.0522 617.066 Q68.0522 614.312 66.1078 612.576 Q64.1865 610.839 61.0847 610.839 Q58.8856 610.839 56.4319 611.603 Q54.0014 612.367 51.2236 613.918 L51.2236 609.196 Q54.0477 608.062 56.5014 607.483 Q58.955 606.904 60.9921 606.904 Q66.3624 606.904 69.5568 609.589 Q72.7513 612.275 72.7513 616.765 Q72.7513 618.895 71.9411 620.816 Q71.1541 622.714 69.0476 625.307 Q68.4689 625.978 65.367 629.196 Q62.2652 632.39 56.6171 638.154 Z" fill="#000000" fill-rule="nonzero" fill-opacity="1" /><path clip-path="url(#clip650)" d="M92.7512 610.608 Q89.1401 610.608 87.3114 614.173 Q85.5058 617.714 85.5058 624.844 Q85.5058 631.95 87.3114 635.515 Q89.1401 639.057 92.7512 639.057 Q96.3854 639.057 98.1909 635.515 Q100.02 631.95 100.02 624.844 Q100.02 617.714 98.1909 614.173 Q96.3854 610.608 92.7512 610.608 M92.7512 606.904 Q98.5613 606.904 101.617 611.511 Q104.696 616.094 104.696 624.844 Q104.696 633.571 101.617 638.177 Q98.5613 642.761 92.7512 642.761 Q86.941 642.761 83.8623 638.177 Q80.8068 633.571 80.8068 624.844 Q80.8068 616.094 83.8623 611.511 Q86.941 606.904 92.7512 606.904 Z" fill="#000000" fill-rule="nonzero" fill-opacity="1" /><path clip-path="url(#clip650)" d="M66.7559 242.411 Q70.1124 243.129 71.9874 245.397 Q73.8855 247.666 73.8855 250.999 Q73.8855 256.115 70.367 258.916 Q66.8485 261.717 60.3671 261.717 Q58.1912 261.717 55.8764 261.277 Q53.5847 260.86 51.131 260.004 L51.131 255.49 Q53.0754 256.624 55.3903 257.203 Q57.7051 257.782 60.2282 257.782 Q64.6263 257.782 66.918 256.045 Q69.2328 254.309 69.2328 250.999 Q69.2328 247.944 67.08 246.231 Q64.9504 244.495 61.131 244.495 L57.1032 244.495 L57.1032 240.652 L61.3161 240.652 Q64.7652 240.652 66.5939 239.286 Q68.4226 237.897 68.4226 235.305 Q68.4226 232.643 66.5245 231.231 Q64.6495 229.796 61.131 229.796 Q59.2097 229.796 57.0106 230.212 Q54.8115 230.629 52.1727 231.509 L52.1727 227.342 Q54.8347 226.601 57.1495 226.231 Q59.4875 225.86 61.5476 225.86 Q66.8717 225.86 69.9735 228.291 Q73.0753 230.698 73.0753 234.819 Q73.0753 237.689 71.4318 239.68 Q69.7883 241.647 66.7559 242.411 Z" fill="#000000" fill-rule="nonzero" fill-opacity="1" /><path clip-path="url(#clip650)" d="M92.7512 229.564 Q89.1401 229.564 87.3114 233.129 Q85.5058 236.671 85.5058 243.8 Q85.5058 250.907 87.3114 254.471 Q89.1401 258.013 92.7512 258.013 Q96.3854 258.013 98.1909 254.471 Q100.02 250.907 100.02 243.8 Q100.02 236.671 98.1909 233.129 Q96.3854 229.564 92.7512 229.564 M92.7512 225.86 Q98.5613 225.86 101.617 230.467 Q104.696 235.05 104.696 243.8 Q104.696 252.527 101.617 257.133 Q98.5613 261.717 92.7512 261.717 Q86.941 261.717 83.8623 257.133 Q80.8068 252.527 80.8068 243.8 Q80.8068 235.05 83.8623 230.467 Q86.941 225.86 92.7512 225.86 Z" fill="#000000" fill-rule="nonzero" fill-opacity="1" /><polyline clip-path="url(#clip651)" style="stroke:#009af9; stroke-linecap:round; stroke-linejoin:round; stroke-width:4; stroke-opacity:1; fill:none" points="140.696,1384.24 140.696,1384.24 151.587,1379.58 190.281,1361.45 195.806,1359.01 210.171,1351.84 210.369,1351.74 241.395,1337.62 251.151,1333.35 257.679,1330.51 261.949,1328.66 265.513,1327.12 272.845,1323.95 283.386,1319.42 284.634,1318.88 287.5,1317.65 293.043,1315.27 299.183,1312.63 317.109,1304.95 331.721,1298.7 331.982,1298.58 333.21,1298.06 344.621,1292.41 348.799,1290.43 354.37,1287.83 366.896,1282.16 371.782,1279.98 382.184,1274.69 400.567,1266.04 408.294,1261.99 409.191,1261.46 410.036,1260.97 415.822,1257.28 427.488,1250.62 429.202,1249.7 432.314,1248.08 434.641,1246.89 437.708,1245.35 457.371,1236.04 469.579,1230.54 478.262,1226.71 482.969,1224.65 485.814,1223.18 494.029,1219.09 497.395,1217.47 507.869,1211.86 518.945,1205.64 522.115,1203.98 524.901,1202.33 530.511,1198.74 533.529,1196.92 534.586,1196.21 558.116,1182.7 582.906,1170.86 588.271,1168.43 588.489,1168.34 594.121,1165.82 595.42,1165.14 602.288,1161.63 606.677,1159.47 607.518,1159.06 615.93,1155.07 617.482,1154.35 631.582,1147.95 642.078,1143.3 647.206,1141.05 650.305,1139.69 660.137,1135.42 682.986,1124.35 688.361,1121.89 702.923,1115.39 706.047,1114.01 708.161,1113.09 711.497,1111.36 713.769,1110.21 737.595,1098.92 739.738,1097.95 747.872,1094.31 753.139,1091.98 755.288,1090.86 759.664,1088.64 773.322,1082.04 776.093,1080.75 779.211,1079.32 789.575,1073.92 797.721,1069.36 817.888,1059.27 822.203,1057.25 833.816,1051.95 843.09,1047.82 852.884,1042.83 853.858,1042.27 859.439,1038.75 883.056,1026.05 885.443,1024.89 901.639,1017.33 904.268,1016.13 907.443,1014.71 915.346,1011.19 917.952,1009.83 926.691,1005.44 936.037,1000.98 939.558,999.35 942.333,998.075 950.757,994.261 962.174,988.429 963.015,988.017 967.219,985.985 976.001,981.86 976.038,981.843 978.49,980.516 979.915,979.758 981.957,978.688 997.252,970.182 998.71,969.433 999.679,968.858 1002.51,967.215 1004.83,965.722 1006.81,964.486 1009.39,962.715 1015.1,958.609 1022.41,953.365 1023.17,952.852 1025.03,951.637 1028.36,949.538 1028.94,949.181 1031.51,947.434 1039.25,942.554 1041.27,941.366 1048.67,937.227 1066.46,928.261 1073.94,924.742 1075.43,923.931 1090.27,916.357 1095.17,913.625 1102.49,909.775 1136.96,893.571 1143.73,890.072 1147.16,888.088 1159.05,881.722 1163.32,879.247 1171.24,874.942 1172.56,874.143 1174.69,872.883 1177.64,871.188 1182.15,868.354 1183.12,867.764 1183.76,867.385 1189.78,863.916 1193.04,862.13 1197.93,859.175 1198.1,859.077 1225.33,844.96 1230.46,842.552 1234.43,840.41 1243.22,835.287 1248.35,832.119 1260.83,825.17 1265.62,822.705 1271.15,819.96 1300.06,805.227 1301.38,804.609 1319.85,796.234 1334.33,789.865 1344.74,784.628 1351.61,780.834 1363.83,773.8 1376.42,767.348 1386.11,762.708 1396.49,757.217 1398.02,756.445 1398.61,756.105 1403.25,753.465 1405.95,751.774 1420.36,743.619 1420.83,743.368 1426.08,740.272 1435.1,735.351 1435.22,735.287 1448.11,728.002 1458.19,722.867 1458.57,722.647 1467.26,717.872 1467.98,717.494 1482.1,710.441 1484.04,709.514 1491.37,706.084 1515.18,695.4 1528.1,689.758 1529.19,689.197 1537.08,685.235 1539.92,683.629 1541.14,682.952 1566.54,670.23 1566.89,670.038 1569.99,668.354 1574.7,665.887 1581.03,662.703 1586.72,659.938 1597.32,654.257 1604,650.913 1646.54,631.522 1654.49,627.487 1658.18,625.683 1669.94,620.138 1670.76,619.76 1679.79,615.657 1683.08,613.922 1691.31,609.179 1693.56,607.773 1694.51,607.108 1711.55,596.693 1713.47,595.486 1719.81,591.722 1723.66,589.266 1732.61,584.021 1734.09,583.203 1735.49,582.442 1737.57,581.324 1748.92,575.552 1762.94,568.909 1772.63,564.505 1776.69,562.686 1779.63,561.381 1787.59,557.872 1788.37,557.526 1793.87,555.122 1803.61,550.89 1804.26,550.609 1819.79,543.906 1823.87,541.832 1830.81,538.426 1864.29,523.169 1864.65,523.011 1876.59,517.004 1879.94,515.394 1890.38,509.803 1896.46,506.753 1899,505.514 1914.71,498.147 1919.56,495.949 1950.28,481 1955.06,478.837 1958.59,477.254 1995.31,461.207 1995.37,461.18 2001.73,458.438 2010.58,454.009 2010.8,453.9 2014.3,452.213 2021.34,448.896 2022.97,448.143 2025.4,447.025 2027.53,446.051 2045.65,437.954 2056.78,433.083 2057.34,432.795 2057.97,432.468 2062.77,430.035 2068.14,427.398 2083.47,420.22 2087.89,417.874 2111.16,406.569 2120.99,401.422 2128.43,397.756 2130.07,396.836 2136.28,393.475 2146.97,388.064 2159.86,381.954 2162.91,380.549 2171.24,376.186 2196.03,363.111 2197.41,362.447 2206.57,358.147 2208.14,357.421 2210.02,356.561 2215.5,353.662 2220.13,350.948 2220.14,350.944 2222.08,349.69 2225.78,347.393 2246.39,335.051 2246.85,334.767 2259.43,327.599 2266.42,323.461 2267.12,323.008 2270.17,320.836 2290.11,307.686 2326.8,289.419 2339.97,282.657 2340.54,282.379 2346.9,279.317 2352.76,276.577 "/>
<polyline clip-path="url(#clip651)" style="stroke:#e26f46; stroke-linecap:round; stroke-linejoin:round; stroke-width:4; stroke-opacity:1; fill:none" points="140.696,1384.24 140.696,1384.24 151.587,1379.58 190.281,1363.02 195.806,1360.66 210.171,1354.51 210.369,1354.41 241.395,1339.71 251.151,1334.7 257.679,1331.52 261.949,1329.49 265.513,1327.54 272.845,1323.72 283.386,1318.56 284.634,1317.96 287.5,1316.38 293.043,1313.02 299.183,1309.55 317.109,1300.41 331.721,1293.59 331.982,1293.45 333.21,1292.79 344.621,1286.96 348.799,1284.93 354.37,1282.29 366.896,1276.54 371.782,1274.35 382.184,1269.74 400.567,1261.73 408.294,1258.39 409.191,1258 410.036,1257.64 415.822,1255.14 427.488,1250.13 429.202,1249.39 432.314,1248.06 434.641,1246.87 437.708,1245.33 457.371,1236.03 469.579,1229.74 478.262,1225.55 482.969,1223.35 485.814,1222.03 494.029,1218.3 497.395,1216.79 507.869,1212.15 518.945,1207.31 522.115,1205.93 524.901,1204.72 530.511,1202.3 533.529,1200.75 534.586,1200.22 558.116,1189.06 582.906,1178.07 588.271,1175.32 588.489,1175.21 594.121,1172.01 595.42,1171.3 602.288,1167.68 606.677,1165.12 607.518,1164.64 615.93,1159.49 617.482,1158.6 631.582,1150.2 642.078,1144.7 647.206,1141.77 650.305,1140.08 660.137,1134.99 682.986,1124.19 688.361,1121.77 702.923,1115.33 706.047,1113.96 708.161,1113.04 711.497,1111.58 713.769,1110.41 737.595,1097.74 739.738,1096.53 747.872,1092.16 753.139,1089.08 755.288,1087.88 759.664,1085.16 773.322,1077.54 776.093,1075.89 779.211,1074.09 789.575,1068.51 797.721,1064.44 817.888,1053.88 822.203,1051.8 833.816,1045.62 843.09,1040.39 852.884,1035.34 853.858,1034.86 859.439,1032.14 883.056,1021.27 885.443,1020.21 901.639,1013.09 904.268,1011.95 907.443,1010.57 915.346,1007.15 917.952,1006.02 926.691,1002.26 936.037,998.238 939.558,996.447 942.333,995.065 950.757,991 962.174,985.712 963.015,985.259 967.219,982.718 976.001,977.174 976.038,977.149 978.49,975.517 979.915,974.596 981.957,973.144 997.252,963.606 998.71,962.79 999.679,962.255 1002.51,960.718 1004.83,959.49 1006.81,958.298 1009.39,956.787 1015.1,953.592 1022.41,949.751 1023.17,949.361 1025.03,948.425 1028.36,946.508 1028.94,946.131 1031.51,944.508 1039.25,939.368 1041.27,938.126 1048.67,933.825 1066.46,924.635 1073.94,920.519 1075.43,919.735 1090.27,912.348 1095.17,910.033 1102.49,906.121 1136.96,889.794 1143.73,886.785 1147.16,885.271 1159.05,880.071 1163.32,878.217 1171.24,874.79 1172.56,874.22 1174.69,873.3 1177.64,872.027 1182.15,870.086 1183.12,869.585 1183.76,869.209 1189.78,865.759 1193.04,863.981 1197.93,861.413 1198.1,861.312 1225.33,845.618 1230.46,843.075 1234.43,841.158 1243.22,837.034 1248.35,834.683 1260.83,828.268 1265.62,825.941 1271.15,823.323 1300.06,810.3 1301.38,809.719 1319.85,800.612 1334.33,793.971 1344.74,789.335 1351.61,786.315 1363.83,780.99 1376.42,775.547 1386.11,771.376 1396.49,766.915 1398.02,766.132 1398.61,765.836 1403.25,763.517 1405.95,762.2 1420.36,755.432 1420.83,755.213 1426.08,752.831 1435.1,748.169 1435.22,748.107 1448.11,741.887 1458.19,736.553 1458.57,736.359 1467.26,731.463 1467.98,731.076 1482.1,723.908 1484.04,722.97 1491.37,719.506 1515.18,708.766 1528.1,702.273 1529.19,701.751 1537.08,698.023 1539.92,696.71 1541.14,696.047 1566.54,683.489 1566.89,683.328 1569.99,681.898 1574.7,679.755 1581.03,676.911 1586.72,674.379 1597.32,669.723 1604,666.814 1646.54,648.484 1654.49,645.077 1658.18,643.496 1669.94,638.46 1670.76,638.108 1679.79,634.24 1683.08,632.831 1691.31,629.31 1693.56,628.349 1694.51,627.94 1711.55,619.63 1713.47,618.733 1719.81,615.818 1723.66,614.073 1732.61,610.076 1734.09,609.42 1735.49,608.803 1737.57,607.883 1748.92,602.918 1762.94,596.842 1772.63,592.666 1776.69,590.917 1779.63,589.418 1787.59,584.927 1788.37,584.435 1793.87,581.146 1803.61,575.794 1804.26,575.455 1819.79,567.755 1823.87,565.835 1830.81,562.634 1864.29,546.331 1864.65,546.168 1876.59,540.83 1879.94,539.351 1890.38,534.777 1896.46,532.134 1899,530.829 1914.71,523.185 1919.56,520.934 1950.28,507.248 1955.06,505.168 1958.59,503.635 1995.31,487.824 1995.37,487.797 2001.73,484.596 2010.58,480.336 2010.8,480.23 2014.3,478.593 2021.34,474.839 2022.97,474.003 2025.4,472.772 2027.53,471.709 2045.65,463.116 2056.78,457.341 2057.34,457.065 2057.97,456.699 2062.77,454 2068.14,451.127 2083.47,443.518 2087.89,441.436 2111.16,429.677 2120.99,425.123 2128.43,421.761 2130.07,421.029 2136.28,418.271 2146.97,412.85 2159.86,406.732 2162.91,405.326 2171.24,401.554 2196.03,390.635 2197.41,390.035 2206.57,386.069 2208.14,385.388 2210.02,384.577 2215.5,382.216 2220.13,380.223 2220.14,380.22 2222.08,379.385 2225.78,377.501 2246.39,367.686 2246.85,367.475 2259.43,361.814 2266.42,358.725 2267.12,358.418 2270.17,357.079 2290.11,348.413 2326.8,332.644 2339.97,326.999 2340.54,326.708 2346.9,323.519 2352.76,320.691 "/>
<polyline clip-path="url(#clip651)" style="stroke:#3da44d; stroke-linecap:round; stroke-linejoin:round; stroke-width:4; stroke-opacity:1; fill:none" points="140.696,1384.24 140.696,1384.24 151.587,1378.84 190.281,1361.32 195.806,1358.91 210.171,1352.69 210.369,1352.6 241.395,1337.83 251.151,1333.48 257.679,1330.13 261.949,1327.68 265.513,1325.72 272.845,1321.34 283.386,1314.92 284.634,1314.11 287.5,1312.3 293.043,1309 299.183,1305.58 317.109,1296.53 331.721,1289.74 331.982,1289.62 333.21,1289.07 344.621,1283.97 348.799,1281.8 354.37,1279.01 366.896,1272.21 371.782,1269.74 382.184,1264.72 400.567,1255.25 408.294,1251.01 409.191,1250.54 410.036,1250.03 415.822,1246.22 427.488,1238.63 429.202,1237.62 432.314,1235.83 434.641,1234.34 437.708,1232.46 457.371,1220.65 469.579,1213.61 478.262,1209.09 482.969,1206.76 485.814,1205.38 494.029,1201.49 497.395,1199.94 507.869,1195.19 518.945,1190.27 522.115,1188.63 524.901,1186.99 530.511,1183.84 533.529,1181.98 534.586,1181.35 558.116,1168.83 582.906,1156.07 588.271,1153.55 588.489,1153.43 594.121,1150.41 595.42,1149.63 602.288,1145.69 606.677,1142.97 607.518,1142.47 615.93,1137.71 617.482,1136.87 631.582,1128.83 642.078,1122.77 647.206,1120.04 650.305,1118.45 660.137,1113.6 682.986,1101.86 688.361,1099.32 702.923,1092.68 706.047,1091.03 708.161,1089.77 711.497,1087.58 713.769,1085.96 737.595,1071.83 739.738,1070.72 747.872,1066.09 753.139,1062.88 755.288,1061.63 759.664,1058.84 773.322,1051.06 776.093,1049.61 779.211,1048.01 789.575,1042.92 797.721,1038.51 817.888,1027.51 822.203,1025.37 833.816,1019.87 843.09,1015.63 852.884,1011.25 853.858,1010.82 859.439,1008.36 883.056,998.094 885.443,997.064 901.639,989.109 904.268,987.877 907.443,986.152 915.346,981.487 917.952,980.039 926.691,975.43 936.037,970.811 939.558,968.852 942.333,967.355 950.757,963.016 962.174,957.49 963.015,957.095 967.219,955.137 976.001,951.131 976.038,951.111 978.49,949.81 979.915,949.066 981.957,948.015 997.252,939.603 998.71,938.739 999.679,938.092 1002.51,936.255 1004.83,934.62 1006.81,933.113 1009.39,931.022 1015.1,926.328 1022.41,921.053 1023.17,920.538 1025.03,919.317 1028.36,917.209 1028.94,916.85 1031.51,915.097 1039.25,909.641 1041.27,908.334 1048.67,903.299 1066.46,893.084 1073.94,889.272 1075.43,888.538 1090.27,880.572 1095.17,878.135 1102.49,874.62 1136.96,859.094 1143.73,856.142 1147.16,854.651 1159.05,848.719 1163.32,846.684 1171.24,842.43 1172.56,841.639 1174.69,840.389 1177.64,838.471 1182.15,835.348 1183.12,834.621 1183.76,834.103 1189.78,829.491 1193.04,827.203 1197.93,823.998 1198.1,823.878 1225.33,806.366 1230.46,803.274 1234.43,801.012 1243.22,796.311 1248.35,793.715 1260.83,787.712 1265.62,785.491 1271.15,782.969 1300.06,768.811 1301.38,768.206 1319.85,758.872 1334.33,751.237 1344.74,745.484 1351.61,741.46 1363.83,734.157 1376.42,726.724 1386.11,720.957 1396.49,715.404 1398.02,714.626 1398.61,714.283 1403.25,711.625 1405.95,709.926 1420.36,701.739 1420.83,701.447 1426.08,698.352 1435.1,692.799 1435.22,692.727 1448.11,684.888 1458.19,678.803 1458.57,678.554 1467.26,672.637 1467.98,672.182 1482.1,664.041 1484.04,662.851 1491.37,658.615 1515.18,646.574 1528.1,640.619 1529.19,640.13 1537.08,636.028 1539.92,634.382 1541.14,633.588 1566.54,618.157 1566.89,617.974 1569.99,616.372 1574.7,614.008 1581.03,610.461 1586.72,607.446 1597.32,602.163 1604,598.494 1646.54,578.312 1654.49,574.809 1658.18,573.194 1669.94,567.297 1670.76,566.831 1679.79,561.319 1683.08,559.458 1691.31,555.06 1693.56,553.911 1694.51,553.428 1711.55,544.21 1713.47,543.09 1719.81,539.09 1723.66,536.823 1732.61,531.91 1734.09,531.135 1735.49,530.411 1737.57,529.346 1748.92,523.028 1762.94,516.001 1772.63,511.442 1776.69,509.576 1779.63,508.241 1787.59,504.67 1788.37,504.319 1793.87,501.468 1803.61,496.67 1804.26,496.36 1819.79,488.196 1823.87,485.88 1830.81,482.151 1864.29,466.208 1864.65,466.048 1876.59,460.751 1879.94,459.014 1890.38,453.846 1896.46,450.509 1899,448.967 1914.71,439.362 1919.56,436.363 1950.28,418.954 1955.06,416.264 1958.59,414.357 1995.31,395.252 1995.37,395.223 2001.73,391.827 2010.58,387.375 2010.8,387.246 2014.3,385 2021.34,380.277 2022.97,379.258 2025.4,377.776 2027.53,376.514 2045.65,366.824 2056.78,360.704 2057.34,360.368 2057.97,359.935 2062.77,356.789 2068.14,353.109 2083.47,344.027 2087.89,341.678 2111.16,329.128 2120.99,324.422 2128.43,320.439 2130.07,319.597 2136.28,316.486 2146.97,311.373 2159.86,305.474 2162.91,303.86 2171.24,299.647 2196.03,288.073 2197.41,287.338 2206.57,282.668 2208.14,281.762 2210.02,280.702 2215.5,277.727 2220.13,275.32 2220.14,275.316 2222.08,274.173 2225.78,272.062 2246.39,261.49 2246.85,261.23 2259.43,253.73 2266.42,249.989 2267.12,249.569 2270.17,247.53 2290.11,234.917 2326.8,216.949 2339.97,211.07 2340.54,210.771 2346.9,207.512 2352.76,204.635 "/>
<polyline clip-path="url(#clip651)" style="stroke:#c271d2; stroke-linecap:round; stroke-linejoin:round; stroke-width:4; stroke-opacity:1; fill:none" points="140.696,1384.24 140.696,1384.24 151.587,1379.58 190.281,1363.02 195.806,1360.24 210.171,1353.39 210.369,1353.29 241.395,1339.44 251.151,1335.19 257.679,1332.37 261.949,1330.53 265.513,1328.99 272.845,1325.84 283.386,1321.31 284.634,1320.77 287.5,1319.54 293.043,1317.17 299.183,1314.53 317.109,1306.86 331.721,1300.6 331.982,1300.49 333.21,1299.86 344.621,1294.25 348.799,1292.28 354.37,1289.28 366.896,1282.98 371.782,1280.64 382.184,1275.82 400.567,1267.6 408.294,1264.22 409.191,1263.82 410.036,1263.46 415.822,1260.94 427.488,1255.89 429.202,1255.01 432.314,1253.19 434.641,1251.87 437.708,1250.18 457.371,1240.27 469.579,1234.6 478.262,1230.69 482.969,1228.59 485.814,1227.34 494.029,1223.73 497.395,1222.26 507.869,1217.71 518.945,1212.93 522.115,1211.57 524.901,1210.37 530.511,1207.96 533.529,1206.66 534.586,1206.21 558.116,1194.87 582.906,1183.81 588.271,1181.47 588.489,1181.38 594.121,1178.93 595.42,1178.36 602.288,1174.89 606.677,1172.74 607.518,1172.34 615.93,1168.37 617.482,1167.65 631.582,1161.26 642.078,1156.62 647.206,1154.37 650.305,1153.02 660.137,1148.75 682.986,1138.9 688.361,1136.6 702.923,1129.44 706.047,1127.97 708.161,1126.98 711.497,1125.45 713.769,1124.41 737.595,1113.81 739.738,1112.87 747.872,1109.33 753.139,1107.05 755.288,1106.12 759.664,1104.23 773.322,1098.35 776.093,1097.16 779.211,1095.82 789.575,1091.37 797.721,1087.88 817.888,1079.24 822.203,1077.4 833.816,1072.43 843.09,1068.46 852.884,1064.26 853.858,1063.85 859.439,1061.46 883.056,1051.35 885.443,1050.33 901.639,1043.4 904.268,1042.28 907.443,1040.92 915.346,1037.54 917.952,1036.42 926.691,1032.68 936.037,1028.68 939.558,1027.18 942.333,1025.77 950.757,1021.63 962.174,1016.28 963.015,1015.9 967.219,1013.99 976.001,1010.05 976.038,1010.03 978.49,1008.95 979.915,1008.32 981.957,1007.41 997.252,1000.73 998.71,1000.1 999.679,999.675 1002.51,998.221 1004.83,997.052 1006.81,996.068 1009.39,994.803 1015.1,992.059 1022.41,988.65 1023.17,988.232 1025.03,987.082 1028.36,985.089 1028.94,984.748 1031.51,983.277 1039.25,979.061 1041.27,977.847 1048.67,973.628 1066.46,964.552 1073.94,961.006 1075.43,960.314 1090.27,953.577 1095.17,951.397 1102.49,948.174 1136.96,933.238 1143.73,930.328 1147.16,928.854 1159.05,923.752 1163.32,921.922 1171.24,918.529 1172.56,917.964 1174.69,916.877 1177.64,915.398 1182.15,913.19 1183.12,912.72 1183.76,912.416 1189.78,909.112 1193.04,907.398 1197.93,904.909 1198.1,904.825 1225.33,892.037 1230.46,889.743 1234.43,887.983 1243.22,884.122 1248.35,881.882 1260.83,876.471 1265.62,874.402 1271.15,871.601 1300.06,858.107 1301.38,857.516 1319.85,849.39 1334.33,843.111 1344.74,838.623 1351.61,835.669 1363.83,830.42 1376.42,825.024 1386.11,820.873 1396.49,816.426 1398.02,815.771 1398.61,815.523 1403.25,813.533 1405.95,812.379 1420.36,806.213 1420.83,806.008 1426.08,803.761 1435.1,799.904 1435.22,799.851 1448.11,794.335 1458.19,790.022 1458.57,789.858 1467.26,786.143 1467.98,785.835 1482.1,778.899 1484.04,777.982 1491.37,774.586 1515.18,763.959 1528.1,758.33 1529.19,757.86 1537.08,754.445 1539.92,753.22 1541.14,752.693 1566.54,741.779 1566.89,741.63 1569.99,740.299 1574.7,738.282 1581.03,735.57 1586.72,733.129 1597.32,728.591 1604,725.733 1646.54,705.902 1654.49,702.417 1658.18,700.808 1669.94,695.708 1670.76,695.353 1679.79,691.456 1683.08,690.039 1691.31,686.501 1693.56,685.537 1694.51,685.127 1711.55,677.82 1713.47,676.995 1719.81,674.278 1723.66,672.629 1732.61,668.799 1734.09,668.166 1735.49,667.567 1737.57,666.674 1748.92,661.817 1762.94,655.817 1772.63,650.999 1776.69,648.736 1779.63,647.156 1787.59,643.062 1788.37,642.669 1793.87,639.978 1803.61,635.383 1804.26,635.083 1819.79,628.056 1823.87,626.247 1830.81,622.685 1864.29,607.094 1864.65,606.905 1876.59,600.871 1879.94,599.256 1890.38,594.366 1896.46,591.597 1899,590.454 1914.71,583.49 1919.56,581.368 1950.28,568.081 1955.06,566.027 1958.59,564.51 1995.31,548.774 1995.37,548.747 2001.73,546.023 2010.58,542.237 2010.8,542.141 2014.3,540.644 2021.34,537.629 2022.97,536.934 2025.4,535.697 2027.53,534.454 2045.65,524.872 2056.78,519.536 2057.34,519.276 2057.97,518.982 2062.77,516.767 2068.14,514.325 2083.47,506.554 2087.89,504.443 2111.16,493.833 2120.99,489.501 2128.43,486.252 2130.07,485.541 2136.28,482.848 2146.97,478.229 2159.86,472.684 2162.91,471.372 2171.24,467.799 2196.03,457.174 2197.41,456.583 2206.57,452.663 2208.14,451.988 2210.02,451.183 2215.5,448.839 2220.13,446.857 2220.14,446.854 2222.08,446.023 2225.78,444.438 2246.39,435.62 2246.85,435.423 2259.43,430.038 2266.42,427.047 2267.12,426.749 2270.17,425.443 2290.11,416.91 2326.8,401.214 2339.97,395.578 2340.54,395.335 2346.9,392.136 2352.76,389.302 "/>
<polyline clip-path="url(#clip651)" style="stroke:#ac8d18; stroke-linecap:round; stroke-linejoin:round; stroke-width:4; stroke-opacity:1; fill:none" points="140.696,1384.24 140.696,1384.24 151.587,1379.58 190.281,1361.45 195.806,1359.01 210.171,1351.84 210.369,1351.74 241.395,1337.62 251.151,1333.35 257.679,1330.51 261.949,1328.66 265.513,1327.12 272.845,1323.95 283.386,1319.42 284.634,1318.88 287.5,1317.65 293.043,1315.27 299.183,1312.18 317.109,1302.64 331.721,1294.75 331.982,1294.61 333.21,1293.99 344.621,1287.68 348.799,1285.53 354.37,1282.76 366.896,1276.8 371.782,1274.56 382.184,1269.16 400.567,1260.4 408.294,1256.89 409.191,1256.41 410.036,1255.97 415.822,1252.98 427.488,1247.3 429.202,1246.49 432.314,1245.03 434.641,1243.96 437.708,1242.55 457.371,1233.76 469.579,1228.43 478.262,1224.05 482.969,1221.77 485.814,1220.19 494.029,1215.85 497.395,1214.15 507.869,1208.36 518.945,1202.01 522.115,1200.33 524.901,1198.88 530.511,1195.63 533.529,1193.97 534.586,1193.31 558.116,1180.45 582.906,1168.84 588.271,1166.44 588.489,1166.34 594.121,1163.85 595.42,1163.27 602.288,1160.26 606.677,1158.35 607.518,1157.98 615.93,1154.33 617.482,1153.53 631.582,1146.62 642.078,1141.75 647.206,1139.43 650.305,1137.79 660.137,1132.84 682.986,1122.2 688.361,1119.8 702.923,1113.38 706.047,1112.02 708.161,1111.1 711.497,1109.65 713.769,1108.67 737.595,1098.39 739.738,1097.47 747.872,1093.98 753.139,1091.72 755.288,1090.62 759.664,1088.44 773.322,1081.94 776.093,1080.66 779.211,1078.99 789.575,1073.01 797.721,1068.72 817.888,1059.01 822.203,1057.04 833.816,1051.82 843.09,1047.73 852.884,1042.78 853.858,1042.22 859.439,1038.71 883.056,1026.04 885.443,1024.88 901.639,1017.32 904.268,1016.13 907.443,1014.7 915.346,1011.18 917.952,1009.82 926.691,1005.44 936.037,1000.98 939.558,999.349 942.333,998.074 950.757,993.66 962.174,987.305 963.015,986.864 967.219,984.702 976.001,980.374 976.038,980.356 978.49,978.986 979.915,978.086 981.957,976.829 997.252,968.301 998.71,967.549 999.679,967.055 1002.51,965.628 1004.83,964.479 1006.81,963.511 1009.39,962.264 1015.1,959.554 1022.41,955.644 1023.17,955.248 1025.03,954.298 1028.36,952.624 1028.94,952.335 1031.51,951.073 1039.25,947.363 1041.27,946.419 1048.67,943.006 1066.46,934.006 1073.94,930.478 1075.43,929.666 1090.27,922.082 1095.17,919.349 1102.49,915.497 1136.96,899.288 1143.73,895.788 1147.16,893.804 1159.05,887.439 1163.32,884.963 1171.24,880.657 1172.56,879.969 1174.69,878.872 1177.64,877.38 1182.15,875.157 1183.12,874.684 1183.76,874.378 1189.78,871.509 1193.04,869.987 1197.93,867.361 1198.1,867.273 1225.33,854.095 1230.46,851.768 1234.43,849.676 1243.22,844.638 1248.35,841.506 1260.83,834.616 1265.62,831.798 1271.15,828.729 1300.06,814.546 1301.38,813.83 1319.85,804.554 1334.33,797.85 1344.74,793.189 1351.61,790.157 1363.83,784.818 1376.42,779.368 1386.11,775.193 1396.49,770.019 1398.02,769.283 1398.61,769.005 1403.25,766.806 1405.95,765.549 1420.36,758.093 1420.83,757.858 1426.08,754.92 1435.1,750.197 1435.22,750.124 1448.11,743.017 1458.19,737.965 1458.57,737.78 1467.26,733.655 1467.98,733.259 1482.1,725.961 1484.04,725.01 1491.37,720.974 1515.18,708.019 1528.1,701.854 1529.19,701.261 1537.08,697.111 1539.92,695.679 1541.14,695.071 1566.54,683.177 1566.89,682.991 1569.99,681.357 1574.7,678.591 1581.03,675.092 1586.72,671.68 1597.32,665.16 1604,661.459 1646.54,641.199 1654.49,637.119 1658.18,635.298 1669.94,629.717 1670.76,629.337 1679.79,625.217 1683.08,623.477 1691.31,618.725 1693.56,617.317 1694.51,616.652 1711.55,606.227 1713.47,605.178 1719.81,601.845 1723.66,599.596 1732.61,594.085 1734.09,593.233 1735.49,592.325 1737.57,590.834 1748.92,583.547 1762.94,574.949 1772.63,569.759 1776.69,567.699 1779.63,566.245 1787.59,562.419 1788.37,562.047 1793.87,559.488 1803.61,554.385 1804.26,554.003 1819.79,545.595 1823.87,543.557 1830.81,540.199 1864.29,525.045 1864.65,524.888 1876.59,518.892 1879.94,517.284 1890.38,511.699 1896.46,508.651 1899,507.413 1914.71,500.049 1919.56,497.851 1950.28,484.33 1955.06,482.261 1958.59,480.454 1995.31,463.361 1995.37,463.333 2001.73,460.53 2010.58,456.04 2010.8,455.929 2014.3,454.224 2021.34,450.878 2022.97,450.12 2025.4,448.995 2027.53,448.014 2045.65,439.885 2056.78,435.004 2057.34,434.762 2057.97,434.487 2062.77,432.031 2068.14,429.375 2083.47,422.161 2087.89,419.809 2111.16,408.484 2120.99,403.334 2128.43,399.666 2130.07,398.746 2136.28,394.92 2146.97,388.958 2159.86,381.617 2162.91,380.012 2171.24,375.222 2196.03,361.514 2197.41,360.832 2206.57,356.435 2208.14,355.695 2210.02,354.666 2215.5,351.35 2220.13,348.355 2220.14,348.35 2222.08,346.994 2225.78,344.527 2246.39,331.615 2246.85,331.362 2259.43,324.841 2266.42,320.933 2267.12,320.558 2270.17,318.944 2290.11,309.168 2326.8,291.242 2339.97,284.517 2340.54,284.24 2346.9,281.189 2352.76,278.457 "/>
<polyline clip-path="url(#clip651)" style="stroke:#00a9ad; stroke-linecap:round; stroke-linejoin:round; stroke-width:4; stroke-opacity:1; fill:none" points="140.696,1384.24 140.696,1384.24 151.587,1378.84 190.281,1361.32 195.806,1358.91 210.171,1352.69 210.369,1352.6 241.395,1337.83 251.151,1333.48 257.679,1330.13 261.949,1327.68 265.513,1325.72 272.845,1321.34 283.386,1314.92 284.634,1314.11 287.5,1312.3 293.043,1309 299.183,1305.58 317.109,1296.53 331.721,1289.74 331.982,1289.62 333.21,1289.07 344.621,1283.97 348.799,1281.8 354.37,1279.01 366.896,1272.21 371.782,1269.74 382.184,1264.72 400.567,1255.25 408.294,1251.57 409.191,1251.15 410.036,1250.69 415.822,1247.61 427.488,1241 429.202,1240.1 432.314,1238.48 434.641,1237.3 437.708,1235.77 457.371,1225.37 469.579,1219.56 478.262,1215.58 482.969,1213.46 485.814,1212.19 494.029,1208.55 497.395,1207.08 507.869,1202.51 518.945,1197.71 522.115,1196.09 524.901,1194.7 530.511,1191.96 533.529,1190.51 534.586,1190.01 558.116,1179.3 582.906,1167.18 588.271,1164.73 588.489,1164.61 594.121,1161.65 595.42,1160.99 602.288,1157.57 606.677,1155.46 607.518,1155.06 615.93,1151.13 617.482,1150.42 631.582,1144.07 642.078,1138.73 647.206,1136.24 650.305,1134.77 660.137,1130.22 682.986,1120.04 688.361,1117.69 702.923,1111.37 706.047,1109.78 708.161,1108.54 711.497,1106.65 713.769,1105.4 737.595,1093.52 739.738,1092.52 747.872,1088.21 753.139,1085.56 755.288,1084.51 759.664,1082.39 773.322,1076.04 776.093,1074.79 779.211,1073.38 789.575,1068.78 797.721,1065.2 817.888,1056.46 822.203,1054.6 833.816,1049.6 843.09,1045.62 852.884,1041.42 853.858,1041 859.439,1038.61 883.056,1028.5 885.443,1027.47 901.639,1019.56 904.268,1018.33 907.443,1016.61 915.346,1011.95 917.952,1010.51 926.691,1005.9 936.037,1001.29 939.558,999.608 942.333,998.302 950.757,994.417 962.174,989.287 963.015,988.914 967.219,987.055 976.001,983.202 976.038,983.186 978.49,982.116 979.915,981.496 981.957,980.607 997.252,973.988 998.71,973.239 999.679,972.745 1002.51,971.321 1004.83,970.175 1006.81,969.209 1009.39,967.963 1015.1,965.258 1022.41,961.884 1023.17,961.534 1025.03,960.691 1028.36,959.187 1028.94,958.926 1031.51,957.776 1039.25,954.336 1041.27,953.448 1048.67,949.664 1066.46,941.193 1073.94,937.789 1075.43,937.12 1090.27,929.618 1095.17,927.278 1102.49,923.873 1136.96,908.57 1143.73,905.634 1147.16,904.148 1159.05,898.233 1163.32,896.201 1171.24,891.953 1172.56,891.273 1174.69,890.187 1177.64,888.473 1182.15,885.963 1183.12,885.435 1183.76,885.095 1189.78,881.944 1193.04,880.297 1197.93,877.893 1198.1,877.811 1225.33,865.264 1230.46,862.598 1234.43,860.604 1243.22,856.351 1248.35,853.946 1260.83,848.259 1265.62,846.119 1271.15,843.672 1300.06,831.091 1301.38,830.52 1319.85,822.575 1334.33,815.454 1344.74,810.622 1351.61,807.514 1363.83,802.087 1376.42,795.761 1386.11,790.508 1396.49,785.307 1398.02,784.567 1398.61,784.288 1403.25,782.081 1405.95,780.82 1420.36,774.258 1420.83,774.004 1426.08,771.276 1435.1,766.817 1435.22,766.757 1448.11,760.713 1458.19,756.155 1458.57,755.984 1467.26,752.134 1467.98,751.817 1482.1,745.646 1484.04,744.642 1491.37,740.978 1515.18,729.9 1528.1,724.168 1529.19,723.692 1537.08,719.67 1539.92,718.275 1541.14,717.681 1566.54,704.663 1566.89,704.498 1569.99,703.041 1574.7,700.862 1581.03,697.51 1586.72,694.629 1597.32,689.519 1604,685.924 1646.54,665.922 1654.49,662.428 1658.18,660.816 1669.94,654.927 1670.76,654.461 1679.79,648.952 1683.08,647.092 1691.31,642.696 1693.56,641.548 1694.51,641.065 1711.55,632.868 1713.47,631.979 1719.81,628.614 1723.66,626.653 1732.61,622.276 1734.09,621.571 1735.49,620.909 1737.57,619.929 1748.92,613.958 1762.94,607.174 1772.63,602.714 1776.69,600.877 1779.63,599.561 1787.59,596.029 1788.37,595.681 1793.87,592.85 1803.61,588.077 1804.26,587.767 1819.79,579.625 1823.87,577.632 1830.81,574.332 1864.29,559.303 1864.65,559.147 1876.59,553.957 1879.94,552.241 1890.38,547.121 1896.46,543.804 1899,542.474 1914.71,533.757 1919.56,530.928 1950.28,515.466 1955.06,512.903 1958.59,511.073 1995.31,492.332 1995.37,492.303 2001.73,489.402 2010.58,485.441 2010.8,485.322 2014.3,483.221 2021.34,479.245 2022.97,478.368 2025.4,477.079 2027.53,475.97 2045.65,467.127 2056.78,462.022 2057.34,461.772 2057.97,461.487 2062.77,459.338 2068.14,456.545 2083.47,449.084 2087.89,447.03 2111.16,436.585 2120.99,432.286 2128.43,428.512 2130.07,427.707 2136.28,424.715 2146.97,419.742 2159.86,413.944 2162.91,412.347 2171.24,408.168 2196.03,396.646 2197.41,395.913 2206.57,391.25 2208.14,390.345 2210.02,389.287 2215.5,386.315 2220.13,383.909 2220.14,383.906 2222.08,382.763 2225.78,380.654 2246.39,370.086 2246.85,369.865 2259.43,363.172 2266.42,359.717 2267.12,359.379 2270.17,357.917 2290.11,348.755 2326.8,332.709 2339.97,327.035 2340.54,326.791 2346.9,324.056 2352.76,321.544 "/>
<polyline clip-path="url(#clip651)" style="stroke:#ed5d92; stroke-linecap:round; stroke-linejoin:round; stroke-width:4; stroke-opacity:1; fill:none" points="140.696,1384.24 140.696,1384.24 151.587,1379.58 190.281,1361.45 195.806,1359.01 210.171,1352.74 210.369,1352.66 241.395,1339.28 251.151,1335.09 257.679,1332.29 261.949,1330.46 265.513,1328.94 272.845,1325.8 283.386,1321.28 284.634,1320.75 287.5,1319.52 293.043,1317.15 299.183,1314.06 317.109,1304.54 331.721,1296.65 331.982,1296.51 333.21,1295.9 344.621,1289.59 348.799,1287.43 354.37,1284.66 366.896,1278.71 371.782,1276.46 382.184,1271.07 400.567,1262.31 408.294,1258.24 409.191,1257.78 410.036,1257.36 415.822,1254.05 427.488,1247.93 429.202,1247.07 432.314,1245.54 434.641,1244.23 437.708,1242.54 457.371,1232.64 469.579,1226.17 478.262,1221.29 482.969,1218.81 485.814,1217.35 494.029,1213.3 497.395,1211.69 507.869,1206.82 518.945,1201.83 522.115,1200.42 524.901,1198.96 530.511,1196.12 533.529,1194.39 534.586,1193.8 558.116,1181.86 582.906,1170.58 588.271,1168.22 588.489,1168.12 594.121,1165.66 595.42,1164.98 602.288,1161.52 606.677,1159.04 607.518,1158.57 615.93,1154.14 617.482,1153.22 631.582,1144.66 642.078,1139.1 647.206,1136.54 650.305,1134.78 660.137,1129.54 682.986,1117.35 688.361,1114.76 702.923,1108.02 706.047,1106.61 708.161,1105.67 711.497,1103.91 713.769,1102.56 737.595,1090.04 739.738,1089.01 747.872,1085.19 753.139,1082.38 755.288,1081.26 759.664,1078.71 773.322,1071.43 776.093,1070.04 779.211,1068.26 789.575,1062.02 797.721,1057.01 817.888,1045.2 822.203,1042.97 833.816,1037.28 843.09,1032.95 852.884,1027.83 853.858,1027.26 859.439,1024.12 883.056,1012.27 885.443,1011.15 901.639,1003.79 904.268,1002.62 907.443,1001.22 915.346,997.744 917.952,996.605 926.691,992.803 936.037,988.76 939.558,986.962 942.333,985.575 950.757,980.898 962.174,974.312 963.015,973.859 967.219,971.64 976.001,967.222 976.038,967.201 978.49,965.613 979.915,964.598 981.957,963.187 997.252,952.917 998.71,952.054 999.679,951.408 1002.51,949.574 1004.83,947.94 1006.81,946.435 1009.39,944.345 1015.1,939.654 1022.41,934.383 1023.17,933.867 1025.03,932.647 1028.36,930.539 1028.94,930.181 1031.51,928.428 1039.25,922.974 1041.27,921.667 1048.67,917.172 1066.46,906.662 1073.94,902.781 1075.43,901.912 1090.27,893.928 1095.17,891.487 1102.49,887.968 1136.96,872.433 1143.73,868.981 1147.16,867.288 1159.05,861.646 1163.32,859.682 1171.24,856.1 1172.56,855.399 1174.69,854.284 1177.64,852.77 1182.15,850.169 1183.12,849.542 1183.76,849.086 1189.78,844.987 1193.04,842.924 1197.93,840 1198.1,839.889 1225.33,823.179 1230.46,820.548 1234.43,818.577 1243.22,814.36 1248.35,811.578 1260.83,805.268 1265.62,802.599 1271.15,799.666 1300.06,784.45 1301.38,783.712 1319.85,773.155 1334.33,765.978 1344.74,760.412 1351.61,756.471 1363.83,749.266 1376.42,742.713 1386.11,738.026 1396.49,732.503 1398.02,731.728 1398.61,731.386 1403.25,728.737 1405.95,727.041 1420.36,717.962 1420.83,717.689 1426.08,714.784 1435.1,709.469 1435.22,709.389 1448.11,700.926 1458.19,694.551 1458.57,694.294 1467.26,688.215 1467.98,687.689 1482.1,678.529 1484.04,677.402 1491.37,672.825 1515.18,658.958 1528.1,652.584 1529.19,652.07 1537.08,648.385 1539.92,646.856 1541.14,646.108 1566.54,632.528 1566.89,632.36 1569.99,630.868 1574.7,628.284 1581.03,624.975 1586.72,621.695 1597.32,615.345 1604,611.716 1646.54,591.632 1654.49,587.561 1658.18,585.744 1669.94,580.171 1670.76,579.79 1679.79,575.674 1683.08,574.197 1691.31,570.543 1693.56,569.554 1694.51,569.134 1711.55,560.687 1713.47,559.622 1719.81,556.247 1723.66,553.978 1732.61,548.432 1734.09,547.574 1735.49,546.662 1737.57,545.166 1748.92,537.856 1762.94,529.242 1772.63,524.045 1776.69,521.983 1779.63,520.528 1787.59,516.699 1788.37,516.327 1793.87,513.767 1803.61,508.662 1804.26,508.281 1819.79,499.871 1823.87,497.514 1830.81,493.731 1864.29,477.672 1864.65,477.511 1876.59,472.201 1879.94,470.728 1890.38,466.167 1896.46,463.529 1899,462.226 1914.71,454.589 1919.56,452.339 1950.28,437.232 1955.06,435.06 1958.59,433.191 1995.31,415.801 1995.37,415.773 2001.73,412.478 2010.58,407.502 2010.8,407.381 2014.3,405.533 2021.34,401.441 2022.97,400.542 2025.4,399.223 2027.53,398.091 2045.65,389.116 2056.78,383.221 2057.34,382.894 2057.97,382.47 2062.77,379.019 2068.14,375.474 2083.47,366.64 2087.89,364.336 2111.16,351.919 2120.99,346.558 2128.43,342.782 2130.07,341.977 2136.28,338.52 2146.97,332.996 2159.86,325.968 2162.91,324.413 2171.24,319.731 2196.03,306.184 2197.41,305.507 2206.57,301.134 2208.14,300.398 2210.02,299.372 2215.5,296.065 2220.13,293.076 2220.14,293.072 2222.08,291.718 2225.78,289.254 2246.39,277.505 2246.85,277.229 2259.43,270.225 2266.42,266.659 2267.12,266.254 2270.17,264.275 2290.11,251.9 2326.8,232.525 2339.97,225.646 2340.54,225.316 2346.9,221.757 2352.76,218.67 "/>
<polyline clip-path="url(#clip651)" style="stroke:#c68125; stroke-linecap:round; stroke-linejoin:round; stroke-width:4; stroke-opacity:1; fill:none" points="140.696,1384.24 140.696,1384.24 151.587,1378.84 190.281,1361.32 195.806,1358.91 210.171,1351.78 210.369,1351.69 241.395,1336.17 251.151,1331.74 257.679,1328.34 261.949,1326.2 265.513,1324.46 272.845,1320.44 283.386,1315.07 284.634,1314.46 287.5,1313.07 293.043,1310.44 299.183,1307.13 317.109,1297.23 331.721,1289.19 331.982,1289.05 333.21,1288.43 344.621,1282.82 348.799,1280.52 354.37,1277.59 366.896,1271.4 371.782,1269.09 382.184,1264.31 400.567,1256.14 408.294,1252.2 409.191,1251.68 410.036,1251.2 415.822,1247.56 427.488,1240.2 429.202,1239.21 432.314,1237.46 434.641,1236 437.708,1234.15 457.371,1222.47 469.579,1215.46 478.262,1210.35 482.969,1207.77 485.814,1206.04 494.029,1201.36 497.395,1199.56 507.869,1193.52 518.945,1187.02 522.115,1185.3 524.901,1183.61 530.511,1179.94 533.529,1177.85 534.586,1177.05 558.116,1162.37 582.906,1148.83 588.271,1146.22 588.489,1146.12 594.121,1143.46 595.42,1142.75 602.288,1139.12 606.677,1136.55 607.518,1136.08 615.93,1131.53 617.482,1130.59 631.582,1121.93 642.078,1116.31 647.206,1113.74 650.305,1111.97 660.137,1106.71 682.986,1094.5 688.361,1091.91 702.923,1085.17 706.047,1083.51 708.161,1082.24 711.497,1080.03 713.769,1078.41 737.595,1064.23 739.738,1063.12 747.872,1059.07 753.139,1056.13 755.288,1054.81 759.664,1051.87 773.322,1043.79 776.093,1042.3 779.211,1040.41 789.575,1034.6 797.721,1029.83 817.888,1018.32 822.203,1016.13 833.816,1010.5 843.09,1006.21 852.884,1001.8 853.858,1001.36 859.439,998.466 883.056,987.194 885.443,986.11 901.639,977.908 904.268,976.651 907.443,975.152 915.346,970.927 917.952,969.383 926.691,964.522 936.037,959.724 939.558,957.714 942.333,956.183 950.757,951.162 962.174,945.041 963.015,944.613 967.219,942.509 976.001,938.271 976.038,938.251 978.49,936.9 979.915,936.011 981.957,934.768 997.252,925.365 998.71,924.437 999.679,923.75 1002.51,921.806 1004.83,920.093 1006.81,918.525 1009.39,916.363 1015.1,911.536 1022.41,905.603 1023.17,905.03 1025.03,903.678 1028.36,901.36 1028.94,900.968 1031.51,899.077 1039.25,893.29 1041.27,891.914 1048.67,886.673 1066.46,875.123 1073.94,871 1075.43,870.215 1090.27,862.821 1095.17,860.127 1102.49,856.319 1136.96,840.201 1143.73,837.208 1147.16,835.427 1159.05,829.566 1163.32,827.216 1171.24,822.517 1172.56,821.665 1174.69,820.325 1177.64,818.297 1182.15,815.03 1183.12,814.276 1183.76,813.741 1189.78,808.987 1193.04,806.638 1197.93,802.98 1198.1,802.846 1225.33,784.042 1230.46,780.84 1234.43,778.196 1243.22,772.237 1248.35,769.106 1260.83,762.217 1265.62,759.399 1271.15,756.33 1300.06,740.762 1301.38,740.016 1319.85,729.389 1334.33,721.275 1344.74,715.327 1351.61,711.217 1363.83,703.812 1376.42,696.319 1386.11,690.524 1396.49,684.953 1398.02,684.172 1398.61,683.828 1403.25,681.165 1405.95,679.463 1420.36,670.358 1420.83,670.045 1426.08,666.342 1435.1,660.029 1435.22,659.938 1448.11,650.6 1458.19,643.818 1458.57,643.549 1467.26,637.246 1467.98,636.705 1482.1,627.33 1484.04,626.183 1491.37,621.543 1515.18,607.572 1528.1,601.174 1529.19,600.567 1537.08,596.332 1539.92,594.649 1541.14,593.84 1566.54,578.23 1566.89,578.017 1569.99,576.16 1574.7,573.108 1581.03,569.31 1586.72,565.692 1597.32,559.627 1604,556.119 1646.54,536.329 1654.49,532.846 1658.18,531.238 1669.94,525.358 1670.76,524.962 1679.79,520.07 1683.08,518.117 1691.31,512.953 1693.56,511.457 1694.51,510.757 1711.55,498.887 1713.47,497.575 1719.81,493.523 1723.66,491.231 1732.61,485.643 1734.09,484.78 1735.49,483.864 1737.57,482.361 1748.92,474.263 1762.94,465.095 1772.63,459.676 1776.69,457.546 1779.63,456.048 1787.59,452.13 1788.37,451.751 1793.87,448.73 1803.61,443.042 1804.26,442.63 1819.79,433.702 1823.87,431.258 1830.81,427.361 1864.29,411.059 1864.65,410.897 1876.59,404.767 1879.94,402.867 1890.38,396.607 1896.46,392.835 1899,391.143 1914.71,381.876 1919.56,378.942 1950.28,361.731 1955.06,359.053 1958.59,356.875 1995.31,336.493 1995.37,336.463 2001.73,332.992 2010.58,328.465 2010.8,328.335 2014.3,326.068 2021.34,321.309 2022.97,320.283 2025.4,318.793 2027.53,317.524 2045.65,307.793 2056.78,301.661 2057.34,301.325 2057.97,300.891 2062.77,297.373 2068.14,293.768 2083.47,284.825 2087.89,282.158 2111.16,268.67 2120.99,263.781 2128.43,260.247 2130.07,259.351 2136.28,255.601 2146.97,249.729 2159.86,242.453 2162.91,240.614 2171.24,235.923 2196.03,223.641 2197.41,223 2206.57,218.824 2208.14,218.114 2210.02,217.118 2215.5,214.298 2220.13,211.995 2220.14,211.992 2222.08,211.045 2225.78,209.265 2246.39,198.648 2246.85,198.387 2259.43,190.874 2266.42,186.615 2267.12,186.152 2270.17,183.939 2290.11,170.624 2326.8,150.725 2339.97,144.641 2340.54,144.336 2346.9,141.015 2352.76,138.095 "/>
<polyline clip-path="url(#clip651)" style="stroke:#00a98d; stroke-linecap:round; stroke-linejoin:round; stroke-width:4; stroke-opacity:1; fill:none" points="140.696,1384.24 140.696,1384.24 151.587,1379.58 190.281,1363.02 195.806,1360.66 210.171,1354.51 210.369,1354.43 241.395,1341.15 251.151,1336.98 257.679,1334.18 261.949,1332.36 265.513,1330.83 272.845,1327.69 283.386,1323.18 284.634,1322.65 287.5,1321.42 293.043,1319.05 299.183,1316.42 317.109,1308.75 331.721,1302.5 331.982,1302.39 333.21,1301.86 344.621,1296.98 348.799,1295.19 354.37,1292.81 366.896,1287.45 371.782,1284.98 382.184,1279.96 400.567,1271.56 408.294,1268.13 409.191,1267.73 410.036,1267.36 415.822,1264.82 427.488,1259.75 429.202,1259 432.314,1257.66 434.641,1256.46 437.708,1254.67 457.371,1244.36 469.579,1237.77 478.262,1233.45 482.969,1230.83 485.814,1229.3 494.029,1224.5 497.395,1222.39 507.869,1216.36 518.945,1210.62 522.115,1209.05 524.901,1207.7 530.511,1205.04 533.529,1203.39 534.586,1202.82 558.116,1191.21 582.906,1180.05 588.271,1177.7 588.489,1177.6 594.121,1175.15 595.42,1174.58 602.288,1171.6 606.677,1169.36 607.518,1168.87 615.93,1164.19 617.482,1163.37 631.582,1155.41 642.078,1150.11 647.206,1147.63 650.305,1146.17 660.137,1140.94 682.986,1129.99 688.361,1127.15 702.923,1119.95 706.047,1118.48 708.161,1117.49 711.497,1115.95 713.769,1114.72 737.595,1102.97 739.738,1101.98 747.872,1098.28 753.139,1095.51 755.288,1094.42 759.664,1091.9 773.322,1083.81 776.093,1082.31 779.211,1080.67 789.575,1075.48 797.721,1071.61 817.888,1061.31 822.203,1058.93 833.816,1052.95 843.09,1048.47 852.884,1043.94 853.858,1043.49 859.439,1040.97 883.056,1029.31 885.443,1028.01 901.639,1019.82 904.268,1018.35 907.443,1016.63 915.346,1012.53 917.952,1011.23 926.691,1006.39 936.037,1000.96 939.558,998.769 942.333,997.115 950.757,992.403 962.174,986.553 963.015,986.139 967.219,984.102 976.001,979.97 976.038,979.95 978.49,978.622 979.915,977.863 981.957,976.792 997.252,969.229 998.71,968.54 999.679,968.084 1002.51,966.761 1004.83,965.689 1006.81,964.618 1009.39,963.25 1015.1,960.317 1022.41,956.727 1023.17,956.358 1025.03,955.472 1028.36,953.899 1028.94,953.626 1031.51,952.432 1039.25,948.322 1041.27,947.295 1048.67,943.634 1066.46,935.337 1073.94,931.973 1075.43,931.31 1090.27,924.781 1095.17,922.644 1102.49,919.469 1136.96,903.133 1143.73,900.124 1147.16,898.609 1159.05,893.409 1163.32,891.554 1171.24,888.127 1172.56,887.557 1174.69,886.637 1177.64,885.364 1182.15,883.423 1183.12,882.922 1183.76,882.546 1189.78,879.096 1193.04,877.059 1197.93,874.166 1198.1,874.055 1225.33,857.435 1230.46,854.813 1234.43,852.846 1243.22,848.638 1248.35,846.251 1260.83,840.596 1265.62,838.464 1271.15,836.024 1300.06,823.463 1301.38,822.892 1319.85,813.877 1334.33,807.271 1344.74,802.649 1351.61,799.634 1363.83,794.316 1376.42,788.878 1386.11,784.709 1396.49,780.249 1398.02,779.593 1398.61,779.343 1403.25,776.991 1405.95,775.659 1420.36,768.833 1420.83,768.613 1426.08,766.217 1435.1,761.539 1435.22,761.477 1448.11,755.242 1458.19,749.901 1458.57,749.707 1467.26,744.807 1467.98,744.42 1482.1,737.249 1484.04,736.31 1491.37,732.845 1515.18,722.104 1528.1,716.449 1529.19,715.977 1537.08,712.552 1539.92,711.325 1541.14,710.695 1566.54,698.541 1566.89,698.383 1569.99,696.73 1574.7,694.302 1581.03,691.158 1586.72,688.421 1597.32,683.498 1604,680.475 1646.54,661.869 1654.49,658.448 1658.18,656.571 1669.94,650.86 1670.76,650.473 1679.79,646.294 1683.08,644.8 1691.31,641.112 1693.56,640.115 1694.51,639.692 1711.55,631.211 1713.47,630.301 1719.81,627.352 1723.66,625.591 1732.61,621.565 1734.09,620.783 1735.49,620.054 1737.57,618.98 1748.92,613.387 1762.94,606.87 1772.63,602.517 1776.69,600.714 1779.63,599.418 1787.59,595.929 1788.37,595.584 1793.87,593.191 1803.61,588.972 1804.26,588.692 1819.79,581.999 1823.87,580.246 1830.81,577.267 1864.29,562.919 1864.65,562.766 1876.59,557.655 1879.94,556.221 1890.38,551.751 1896.46,549.149 1899,547.858 1914.71,540.274 1919.56,538.034 1950.28,524.384 1955.06,522.306 1958.59,520.774 1995.31,504.97 1995.37,504.937 2001.73,501.264 2010.58,496.537 2010.8,496.421 2014.3,494.646 2021.34,490.672 2022.97,489.661 2025.4,488.19 2027.53,486.936 2045.65,476.23 2056.78,469.792 2057.34,469.491 2057.97,469.097 2062.77,466.211 2068.14,463.171 2083.47,455.257 2087.89,453.12 2111.16,441.197 2120.99,436.612 2128.43,433.233 2130.07,432.499 2136.28,429.732 2146.97,425.025 2159.86,419.418 2162.91,418.095 2171.24,414.501 2196.03,403.844 2197.41,403.251 2206.57,398.684 2208.14,397.922 2210.02,397.021 2215.5,394.44 2220.13,392.298 2220.14,392.295 2222.08,391.406 2225.78,389.724 2246.39,380.582 2246.85,380.38 2259.43,374.905 2266.42,371.882 2267.12,371.581 2270.17,370.264 2290.11,361.688 2326.8,345.968 2339.97,340.329 2340.54,340.038 2346.9,336.851 2352.76,333.584 "/>
<polyline clip-path="url(#clip651)" style="stroke:#8e971d; stroke-linecap:round; stroke-linejoin:round; stroke-width:4; stroke-opacity:1; fill:none" points="140.696,1384.24 140.696,1384.24 151.587,1378.84 190.281,1361.32 195.806,1358.91 210.171,1352.69 210.369,1352.59 241.395,1336.4 251.151,1331.21 257.679,1327.46 261.949,1325.14 265.513,1322.99 272.845,1318.31 283.386,1312.31 284.634,1311.64 287.5,1309.9 293.043,1306.29 299.183,1302.15 317.109,1290.78 331.721,1282.18 331.982,1282.01 333.21,1281.25 344.621,1274.7 348.799,1272.16 354.37,1268.97 366.896,1262.39 371.782,1259.61 382.184,1254.1 400.567,1245.24 408.294,1241.15 409.191,1240.69 410.036,1240.26 415.822,1236.95 427.488,1230.03 429.202,1229.09 432.314,1227.42 434.641,1226.01 437.708,1223.97 457.371,1211.55 469.579,1204.33 478.262,1199.12 482.969,1196.14 485.814,1194.44 494.029,1189.22 497.395,1186.98 507.869,1180.66 518.945,1174.72 522.115,1173.12 524.901,1171.51 530.511,1168.42 533.529,1166.58 534.586,1165.95 558.116,1153.54 582.906,1140.81 588.271,1137.88 588.489,1137.77 594.121,1134.42 595.42,1133.57 602.288,1129.34 606.677,1126.48 607.518,1125.88 615.93,1119.74 617.482,1118.58 631.582,1108.4 642.078,1102.14 647.206,1098.95 650.305,1096.88 660.137,1090.21 682.986,1076.36 688.361,1073.16 702.923,1065.36 706.047,1063.55 708.161,1062.19 711.497,1059.86 713.769,1058.16 737.595,1042.26 739.738,1040.9 747.872,1036.06 753.139,1032.76 755.288,1031.48 759.664,1028.63 773.322,1019.85 776.093,1018.03 779.211,1015.83 789.575,1009.25 797.721,1004.06 817.888,992.014 822.203,989.423 833.816,982.264 843.09,976.557 852.884,971.169 853.858,970.66 859.439,967.812 883.056,955.406 885.443,954.067 901.639,944.702 904.268,943.111 907.443,941.258 915.346,936.345 917.952,934.833 926.691,929.436 936.037,923.603 939.558,921.303 942.333,919.574 950.757,914.081 962.174,907.549 963.015,907.028 967.219,904.179 976.001,898.152 976.038,898.125 978.49,896.389 979.915,895.295 981.957,893.613 997.252,881.939 998.71,880.865 999.679,880.086 1002.51,877.896 1004.83,876.003 1006.81,874.296 1009.39,871.97 1015.1,866.842 1022.41,861.153 1023.17,860.602 1025.03,859.298 1028.36,856.794 1028.94,856.322 1031.51,854.106 1039.25,847.538 1041.27,845.999 1048.67,840.273 1066.46,828.046 1073.94,823.221 1075.43,822.322 1090.27,814.129 1095.17,811.644 1102.49,807.542 1136.96,789.327 1143.73,786.184 1147.16,784.616 1159.05,779.283 1163.32,777.396 1171.24,773.352 1172.56,772.589 1174.69,771.381 1177.64,769.515 1182.15,766.459 1183.12,765.745 1183.76,765.236 1189.78,760.689 1193.04,758.171 1197.93,754.678 1198.1,754.549 1225.33,736.215 1230.46,733.053 1234.43,730.747 1243.22,725.971 1248.35,723.343 1260.83,716.47 1265.62,713.656 1271.15,710.591 1300.06,695.033 1301.38,694.287 1319.85,683.662 1334.33,675.549 1344.74,669.601 1351.61,665.491 1363.83,658.086 1376.42,650.594 1386.11,644.798 1396.49,639.227 1398.02,638.32 1398.61,637.93 1403.25,634.582 1405.95,632.543 1420.36,622.192 1420.83,621.849 1426.08,618.265 1435.1,612.1 1435.22,612.011 1448.11,602.804 1458.19,596.082 1458.57,595.815 1467.26,589.545 1467.98,589.006 1482.1,579.663 1484.04,578.519 1491.37,573.889 1515.18,559.933 1528.1,552.7 1529.19,552.133 1537.08,548.138 1539.92,546.522 1541.14,545.739 1566.54,530.449 1566.89,530.268 1569.99,528.426 1574.7,525.394 1581.03,521.616 1586.72,518.013 1597.32,511.966 1604,508.466 1646.54,488.695 1654.49,485.213 1658.18,483.314 1669.94,476.773 1670.76,476.343 1679.79,471.144 1683.08,469.37 1691.31,465.14 1693.56,464.026 1694.51,463.558 1711.55,454.514 1713.47,453.405 1719.81,449.912 1723.66,447.889 1732.61,442.773 1734.09,441.849 1735.49,440.879 1737.57,439.301 1748.92,430.9 1762.94,421.518 1772.63,416.013 1776.69,413.857 1779.63,412.108 1787.59,407.081 1788.37,406.545 1793.87,402.577 1803.61,395.69 1804.26,395.215 1819.79,385.222 1823.87,382.602 1830.81,378.469 1864.29,360.184 1864.65,360.013 1876.59,354.443 1879.94,352.653 1890.38,347.36 1896.46,343.974 1899,342.415 1914.71,333.703 1919.56,330.875 1950.28,313.99 1955.06,311.334 1958.59,309.168 1995.31,288.848 1995.37,288.813 2001.73,284.873 2010.58,279.882 2010.8,279.742 2014.3,277.337 2021.34,272.36 2022.97,271.159 2025.4,269.429 2027.53,267.97 2045.65,256.128 2056.78,249.334 2057.34,248.972 2057.97,248.511 2062.77,244.805 2068.14,241.034 2083.47,231.786 2087.89,229.407 2111.16,216.768 2120.99,212.044 2128.43,208.594 2130.07,207.847 2136.28,204.576 2146.97,198.546 2159.86,191.157 2162.91,189.299 2171.24,184.568 2196.03,172.228 2197.41,171.586 2206.57,166.758 2208.14,165.961 2210.02,164.867 2215.5,161.809 2220.13,159.345 2220.14,159.341 2222.08,158.336 2225.78,156.167 2246.39,145.4 2246.85,145.137 2259.43,137.583 2266.42,133.822 2267.12,133.4 2270.17,131.355 2290.11,118.716 2326.8,99.1943 2339.97,93.1501 2340.54,92.8464 2346.9,89.5377 2352.76,86.1857 "/>
<path clip-path="url(#clip650)" d="M214.431 663.349 L554.896 663.349 L554.896 93.1086 L214.431 93.1086  Z" fill="#ffffff" fill-rule="evenodd" fill-opacity="1"/>
<polyline clip-path="url(#clip650)" style="stroke:#000000; stroke-linecap:round; stroke-linejoin:round; stroke-width:4; stroke-opacity:1; fill:none" points="214.431,663.349 554.896,663.349 554.896,93.1086 214.431,93.1086 214.431,663.349 "/>
<polyline clip-path="url(#clip650)" style="stroke:#009af9; stroke-linecap:round; stroke-linejoin:round; stroke-width:4; stroke-opacity:1; fill:none" points="239.009,144.949 386.48,144.949 "/>
<path clip-path="url(#clip650)" d="M411.058 151.997 L411.058 136.303 L415.318 136.303 L415.318 151.835 Q415.318 155.516 416.753 157.368 Q418.188 159.196 421.058 159.196 Q424.507 159.196 426.498 156.997 Q428.512 154.798 428.512 151.002 L428.512 136.303 L432.771 136.303 L432.771 162.229 L428.512 162.229 L428.512 158.247 Q426.961 160.608 424.901 161.766 Q422.864 162.9 420.156 162.9 Q415.688 162.9 413.373 160.122 Q411.058 157.344 411.058 151.997 M421.776 135.678 L421.776 135.678 Z" fill="#000000" fill-rule="nonzero" fill-opacity="1" /><path clip-path="url(#clip650)" d="M441.151 126.21 L450.966 126.21 L450.966 129.52 L445.41 129.52 L445.41 165.168 L450.966 165.168 L450.966 168.479 L441.151 168.479 L441.151 126.21 Z" fill="#000000" fill-rule="nonzero" fill-opacity="1" /><path clip-path="url(#clip650)" d="M461.452 158.293 L469.091 158.293 L469.091 131.928 L460.78 133.595 L460.78 129.335 L469.044 127.669 L473.72 127.669 L473.72 158.293 L481.359 158.293 L481.359 162.229 L461.452 162.229 L461.452 158.293 Z" fill="#000000" fill-rule="nonzero" fill-opacity="1" /><path clip-path="url(#clip650)" d="M500.155 126.21 L500.155 168.479 L490.34 168.479 L490.34 165.168 L495.873 165.168 L495.873 129.52 L490.34 129.52 L490.34 126.21 L500.155 126.21 Z" fill="#000000" fill-rule="nonzero" fill-opacity="1" /><polyline clip-path="url(#clip650)" style="stroke:#e26f46; stroke-linecap:round; stroke-linejoin:round; stroke-width:4; stroke-opacity:1; fill:none" points="239.009,196.789 386.48,196.789 "/>
<path clip-path="url(#clip650)" d="M411.058 203.837 L411.058 188.143 L415.318 188.143 L415.318 203.675 Q415.318 207.356 416.753 209.208 Q418.188 211.036 421.058 211.036 Q424.507 211.036 426.498 208.837 Q428.512 206.638 428.512 202.842 L428.512 188.143 L432.771 188.143 L432.771 214.069 L428.512 214.069 L428.512 210.087 Q426.961 212.448 424.901 213.606 Q422.864 214.74 420.156 214.74 Q415.688 214.74 413.373 211.962 Q411.058 209.184 411.058 203.837 M421.776 187.518 L421.776 187.518 Z" fill="#000000" fill-rule="nonzero" fill-opacity="1" /><path clip-path="url(#clip650)" d="M441.151 178.05 L450.966 178.05 L450.966 181.36 L445.41 181.36 L445.41 217.008 L450.966 217.008 L450.966 220.319 L441.151 220.319 L441.151 178.05 Z" fill="#000000" fill-rule="nonzero" fill-opacity="1" /><path clip-path="url(#clip650)" d="M464.669 210.133 L480.989 210.133 L480.989 214.069 L459.044 214.069 L459.044 210.133 Q461.706 207.379 466.29 202.749 Q470.896 198.096 472.077 196.754 Q474.322 194.231 475.202 192.495 Q476.104 190.735 476.104 189.046 Q476.104 186.291 474.16 184.555 Q472.239 182.819 469.137 182.819 Q466.938 182.819 464.484 183.583 Q462.054 184.347 459.276 185.897 L459.276 181.175 Q462.1 180.041 464.554 179.462 Q467.007 178.884 469.044 178.884 Q474.415 178.884 477.609 181.569 Q480.803 184.254 480.803 188.745 Q480.803 190.874 479.993 192.796 Q479.206 194.694 477.1 197.286 Q476.521 197.958 473.419 201.175 Q470.317 204.37 464.669 210.133 Z" fill="#000000" fill-rule="nonzero" fill-opacity="1" /><path clip-path="url(#clip650)" d="M500.155 178.05 L500.155 220.319 L490.34 220.319 L490.34 217.008 L495.873 217.008 L495.873 181.36 L490.34 181.36 L490.34 178.05 L500.155 178.05 Z" fill="#000000" fill-rule="nonzero" fill-opacity="1" /><polyline clip-path="url(#clip650)" style="stroke:#3da44d; stroke-linecap:round; stroke-linejoin:round; stroke-width:4; stroke-opacity:1; fill:none" points="239.009,248.629 386.48,248.629 "/>
<path clip-path="url(#clip650)" d="M411.058 255.677 L411.058 239.983 L415.318 239.983 L415.318 255.515 Q415.318 259.196 416.753 261.048 Q418.188 262.876 421.058 262.876 Q424.507 262.876 426.498 260.677 Q428.512 258.478 428.512 254.682 L428.512 239.983 L432.771 239.983 L432.771 265.909 L428.512 265.909 L428.512 261.927 Q426.961 264.288 424.901 265.446 Q422.864 266.58 420.156 266.58 Q415.688 266.58 413.373 263.802 Q411.058 261.024 411.058 255.677 M421.776 239.358 L421.776 239.358 Z" fill="#000000" fill-rule="nonzero" fill-opacity="1" /><path clip-path="url(#clip650)" d="M441.151 229.89 L450.966 229.89 L450.966 233.2 L445.41 233.2 L445.41 268.848 L450.966 268.848 L450.966 272.159 L441.151 272.159 L441.151 229.89 Z" fill="#000000" fill-rule="nonzero" fill-opacity="1" /><path clip-path="url(#clip650)" d="M474.808 247.274 Q478.165 247.992 480.04 250.261 Q481.938 252.529 481.938 255.862 Q481.938 260.978 478.419 263.779 Q474.901 266.58 468.419 266.58 Q466.243 266.58 463.929 266.14 Q461.637 265.723 459.183 264.867 L459.183 260.353 Q461.128 261.487 463.442 262.066 Q465.757 262.645 468.28 262.645 Q472.679 262.645 474.97 260.909 Q477.285 259.173 477.285 255.862 Q477.285 252.807 475.132 251.094 Q473.003 249.358 469.183 249.358 L465.155 249.358 L465.155 245.515 L469.368 245.515 Q472.817 245.515 474.646 244.149 Q476.475 242.761 476.475 240.168 Q476.475 237.506 474.577 236.094 Q472.702 234.659 469.183 234.659 Q467.262 234.659 465.063 235.075 Q462.864 235.492 460.225 236.372 L460.225 232.205 Q462.887 231.464 465.202 231.094 Q467.54 230.724 469.6 230.724 Q474.924 230.724 478.026 233.154 Q481.128 235.562 481.128 239.682 Q481.128 242.552 479.484 244.543 Q477.841 246.511 474.808 247.274 Z" fill="#000000" fill-rule="nonzero" fill-opacity="1" /><path clip-path="url(#clip650)" d="M500.155 229.89 L500.155 272.159 L490.34 272.159 L490.34 268.848 L495.873 268.848 L495.873 233.2 L490.34 233.2 L490.34 229.89 L500.155 229.89 Z" fill="#000000" fill-rule="nonzero" fill-opacity="1" /><polyline clip-path="url(#clip650)" style="stroke:#c271d2; stroke-linecap:round; stroke-linejoin:round; stroke-width:4; stroke-opacity:1; fill:none" points="239.009,300.469 386.48,300.469 "/>
<path clip-path="url(#clip650)" d="M411.058 307.517 L411.058 291.823 L415.318 291.823 L415.318 307.355 Q415.318 311.036 416.753 312.888 Q418.188 314.716 421.058 314.716 Q424.507 314.716 426.498 312.517 Q428.512 310.318 428.512 306.522 L428.512 291.823 L432.771 291.823 L432.771 317.749 L428.512 317.749 L428.512 313.767 Q426.961 316.128 424.901 317.286 Q422.864 318.42 420.156 318.42 Q415.688 318.42 413.373 315.642 Q411.058 312.864 411.058 307.517 M421.776 291.198 L421.776 291.198 Z" fill="#000000" fill-rule="nonzero" fill-opacity="1" /><path clip-path="url(#clip650)" d="M441.151 281.73 L450.966 281.73 L450.966 285.04 L445.41 285.04 L445.41 320.688 L450.966 320.688 L450.966 323.999 L441.151 323.999 L441.151 281.73 Z" fill="#000000" fill-rule="nonzero" fill-opacity="1" /><path clip-path="url(#clip650)" d="M473.489 287.263 L461.683 305.712 L473.489 305.712 L473.489 287.263 M472.262 283.189 L478.141 283.189 L478.141 305.712 L483.072 305.712 L483.072 309.601 L478.141 309.601 L478.141 317.749 L473.489 317.749 L473.489 309.601 L457.887 309.601 L457.887 305.087 L472.262 283.189 Z" fill="#000000" fill-rule="nonzero" fill-opacity="1" /><path clip-path="url(#clip650)" d="M500.155 281.73 L500.155 323.999 L490.34 323.999 L490.34 320.688 L495.873 320.688 L495.873 285.04 L490.34 285.04 L490.34 281.73 L500.155 281.73 Z" fill="#000000" fill-rule="nonzero" fill-opacity="1" /><polyline clip-path="url(#clip650)" style="stroke:#ac8d18; stroke-linecap:round; stroke-linejoin:round; stroke-width:4; stroke-opacity:1; fill:none" points="239.009,352.309 386.48,352.309 "/>
<path clip-path="url(#clip650)" d="M411.058 359.357 L411.058 343.663 L415.318 343.663 L415.318 359.195 Q415.318 362.876 416.753 364.728 Q418.188 366.556 421.058 366.556 Q424.507 366.556 426.498 364.357 Q428.512 362.158 428.512 358.362 L428.512 343.663 L432.771 343.663 L432.771 369.589 L428.512 369.589 L428.512 365.607 Q426.961 367.968 424.901 369.126 Q422.864 370.26 420.156 370.26 Q415.688 370.26 413.373 367.482 Q411.058 364.704 411.058 359.357 M421.776 343.038 L421.776 343.038 Z" fill="#000000" fill-rule="nonzero" fill-opacity="1" /><path clip-path="url(#clip650)" d="M441.151 333.57 L450.966 333.57 L450.966 336.88 L445.41 336.88 L445.41 372.528 L450.966 372.528 L450.966 375.839 L441.151 375.839 L441.151 333.57 Z" fill="#000000" fill-rule="nonzero" fill-opacity="1" /><path clip-path="url(#clip650)" d="M460.688 335.029 L479.044 335.029 L479.044 338.964 L464.97 338.964 L464.97 347.436 Q465.989 347.089 467.007 346.927 Q468.026 346.742 469.044 346.742 Q474.831 346.742 478.211 349.913 Q481.591 353.084 481.591 358.501 Q481.591 364.079 478.118 367.181 Q474.646 370.26 468.327 370.26 Q466.151 370.26 463.882 369.89 Q461.637 369.519 459.23 368.778 L459.23 364.079 Q461.313 365.214 463.535 365.769 Q465.757 366.325 468.234 366.325 Q472.239 366.325 474.577 364.218 Q476.915 362.112 476.915 358.501 Q476.915 354.89 474.577 352.783 Q472.239 350.677 468.234 350.677 Q466.359 350.677 464.484 351.093 Q462.632 351.51 460.688 352.39 L460.688 335.029 Z" fill="#000000" fill-rule="nonzero" fill-opacity="1" /><path clip-path="url(#clip650)" d="M500.155 333.57 L500.155 375.839 L490.34 375.839 L490.34 372.528 L495.873 372.528 L495.873 336.88 L490.34 336.88 L490.34 333.57 L500.155 333.57 Z" fill="#000000" fill-rule="nonzero" fill-opacity="1" /><polyline clip-path="url(#clip650)" style="stroke:#00a9ad; stroke-linecap:round; stroke-linejoin:round; stroke-width:4; stroke-opacity:1; fill:none" points="239.009,404.149 386.48,404.149 "/>
<path clip-path="url(#clip650)" d="M411.058 411.197 L411.058 395.503 L415.318 395.503 L415.318 411.035 Q415.318 414.716 416.753 416.568 Q418.188 418.396 421.058 418.396 Q424.507 418.396 426.498 416.197 Q428.512 413.998 428.512 410.202 L428.512 395.503 L432.771 395.503 L432.771 421.429 L428.512 421.429 L428.512 417.447 Q426.961 419.808 424.901 420.966 Q422.864 422.1 420.156 422.1 Q415.688 422.1 413.373 419.322 Q411.058 416.544 411.058 411.197 M421.776 394.878 L421.776 394.878 Z" fill="#000000" fill-rule="nonzero" fill-opacity="1" /><path clip-path="url(#clip650)" d="M441.151 385.41 L450.966 385.41 L450.966 388.72 L445.41 388.72 L445.41 424.368 L450.966 424.368 L450.966 427.679 L441.151 427.679 L441.151 385.41 Z" fill="#000000" fill-rule="nonzero" fill-opacity="1" /><path clip-path="url(#clip650)" d="M471.22 402.285 Q468.072 402.285 466.22 404.438 Q464.392 406.591 464.392 410.341 Q464.392 414.068 466.22 416.243 Q468.072 418.396 471.22 418.396 Q474.368 418.396 476.197 416.243 Q478.049 414.068 478.049 410.341 Q478.049 406.591 476.197 404.438 Q474.368 402.285 471.22 402.285 M480.503 387.633 L480.503 391.892 Q478.743 391.058 476.938 390.619 Q475.155 390.179 473.396 390.179 Q468.766 390.179 466.313 393.304 Q463.882 396.429 463.535 402.748 Q464.901 400.734 466.961 399.669 Q469.021 398.582 471.498 398.582 Q476.706 398.582 479.716 401.753 Q482.748 404.901 482.748 410.341 Q482.748 415.665 479.6 418.882 Q476.452 422.1 471.22 422.1 Q465.225 422.1 462.054 417.517 Q458.882 412.91 458.882 404.183 Q458.882 395.989 462.771 391.128 Q466.66 386.244 473.211 386.244 Q474.97 386.244 476.753 386.591 Q478.558 386.938 480.503 387.633 Z" fill="#000000" fill-rule="nonzero" fill-opacity="1" /><path clip-path="url(#clip650)" d="M500.155 385.41 L500.155 427.679 L490.34 427.679 L490.34 424.368 L495.873 424.368 L495.873 388.72 L490.34 388.72 L490.34 385.41 L500.155 385.41 Z" fill="#000000" fill-rule="nonzero" fill-opacity="1" /><polyline clip-path="url(#clip650)" style="stroke:#ed5d92; stroke-linecap:round; stroke-linejoin:round; stroke-width:4; stroke-opacity:1; fill:none" points="239.009,455.989 386.48,455.989 "/>
<path clip-path="url(#clip650)" d="M411.058 463.037 L411.058 447.343 L415.318 447.343 L415.318 462.875 Q415.318 466.556 416.753 468.408 Q418.188 470.236 421.058 470.236 Q424.507 470.236 426.498 468.037 Q428.512 465.838 428.512 462.042 L428.512 447.343 L432.771 447.343 L432.771 473.269 L428.512 473.269 L428.512 469.287 Q426.961 471.648 424.901 472.806 Q422.864 473.94 420.156 473.94 Q415.688 473.94 413.373 471.162 Q411.058 468.384 411.058 463.037 M421.776 446.718 L421.776 446.718 Z" fill="#000000" fill-rule="nonzero" fill-opacity="1" /><path clip-path="url(#clip650)" d="M441.151 437.25 L450.966 437.25 L450.966 440.56 L445.41 440.56 L445.41 476.208 L450.966 476.208 L450.966 479.519 L441.151 479.519 L441.151 437.25 Z" fill="#000000" fill-rule="nonzero" fill-opacity="1" /><path clip-path="url(#clip650)" d="M459.461 438.709 L481.683 438.709 L481.683 440.699 L469.137 473.269 L464.253 473.269 L476.058 442.644 L459.461 442.644 L459.461 438.709 Z" fill="#000000" fill-rule="nonzero" fill-opacity="1" /><path clip-path="url(#clip650)" d="M500.155 437.25 L500.155 479.519 L490.34 479.519 L490.34 476.208 L495.873 476.208 L495.873 440.56 L490.34 440.56 L490.34 437.25 L500.155 437.25 Z" fill="#000000" fill-rule="nonzero" fill-opacity="1" /><polyline clip-path="url(#clip650)" style="stroke:#c68125; stroke-linecap:round; stroke-linejoin:round; stroke-width:4; stroke-opacity:1; fill:none" points="239.009,507.829 386.48,507.829 "/>
<path clip-path="url(#clip650)" d="M411.058 514.877 L411.058 499.183 L415.318 499.183 L415.318 514.715 Q415.318 518.396 416.753 520.248 Q418.188 522.076 421.058 522.076 Q424.507 522.076 426.498 519.877 Q428.512 517.678 428.512 513.882 L428.512 499.183 L432.771 499.183 L432.771 525.109 L428.512 525.109 L428.512 521.127 Q426.961 523.488 424.901 524.646 Q422.864 525.78 420.156 525.78 Q415.688 525.78 413.373 523.002 Q411.058 520.224 411.058 514.877 M421.776 498.558 L421.776 498.558 Z" fill="#000000" fill-rule="nonzero" fill-opacity="1" /><path clip-path="url(#clip650)" d="M441.151 489.09 L450.966 489.09 L450.966 492.4 L445.41 492.4 L445.41 528.048 L450.966 528.048 L450.966 531.359 L441.151 531.359 L441.151 489.09 Z" fill="#000000" fill-rule="nonzero" fill-opacity="1" /><path clip-path="url(#clip650)" d="M470.641 508.697 Q467.308 508.697 465.387 510.479 Q463.489 512.261 463.489 515.386 Q463.489 518.511 465.387 520.294 Q467.308 522.076 470.641 522.076 Q473.975 522.076 475.896 520.294 Q477.817 518.488 477.817 515.386 Q477.817 512.261 475.896 510.479 Q473.998 508.697 470.641 508.697 M465.966 506.706 Q462.956 505.965 461.267 503.905 Q459.6 501.845 459.6 498.882 Q459.6 494.738 462.54 492.331 Q465.503 489.924 470.641 489.924 Q475.803 489.924 478.743 492.331 Q481.683 494.738 481.683 498.882 Q481.683 501.845 479.993 503.905 Q478.327 505.965 475.341 506.706 Q478.72 507.493 480.595 509.785 Q482.493 512.076 482.493 515.386 Q482.493 520.41 479.415 523.095 Q476.359 525.78 470.641 525.78 Q464.924 525.78 461.845 523.095 Q458.79 520.41 458.79 515.386 Q458.79 512.076 460.688 509.785 Q462.586 507.493 465.966 506.706 M464.253 499.322 Q464.253 502.007 465.919 503.512 Q467.609 505.016 470.641 505.016 Q473.651 505.016 475.341 503.512 Q477.053 502.007 477.053 499.322 Q477.053 496.637 475.341 495.132 Q473.651 493.627 470.641 493.627 Q467.609 493.627 465.919 495.132 Q464.253 496.637 464.253 499.322 Z" fill="#000000" fill-rule="nonzero" fill-opacity="1" /><path clip-path="url(#clip650)" d="M500.155 489.09 L500.155 531.359 L490.34 531.359 L490.34 528.048 L495.873 528.048 L495.873 492.4 L490.34 492.4 L490.34 489.09 L500.155 489.09 Z" fill="#000000" fill-rule="nonzero" fill-opacity="1" /><polyline clip-path="url(#clip650)" style="stroke:#00a98d; stroke-linecap:round; stroke-linejoin:round; stroke-width:4; stroke-opacity:1; fill:none" points="239.009,559.669 386.48,559.669 "/>
<path clip-path="url(#clip650)" d="M411.058 566.717 L411.058 551.023 L415.318 551.023 L415.318 566.555 Q415.318 570.236 416.753 572.088 Q418.188 573.916 421.058 573.916 Q424.507 573.916 426.498 571.717 Q428.512 569.518 428.512 565.722 L428.512 551.023 L432.771 551.023 L432.771 576.949 L428.512 576.949 L428.512 572.967 Q426.961 575.328 424.901 576.486 Q422.864 577.62 420.156 577.62 Q415.688 577.62 413.373 574.842 Q411.058 572.064 411.058 566.717 M421.776 550.398 L421.776 550.398 Z" fill="#000000" fill-rule="nonzero" fill-opacity="1" /><path clip-path="url(#clip650)" d="M441.151 540.93 L450.966 540.93 L450.966 544.24 L445.41 544.24 L445.41 579.888 L450.966 579.888 L450.966 583.199 L441.151 583.199 L441.151 540.93 Z" fill="#000000" fill-rule="nonzero" fill-opacity="1" /><path clip-path="url(#clip650)" d="M460.78 576.231 L460.78 571.972 Q462.54 572.805 464.345 573.245 Q466.151 573.685 467.887 573.685 Q472.516 573.685 474.947 570.583 Q477.401 567.458 477.748 561.115 Q476.405 563.106 474.345 564.171 Q472.285 565.236 469.785 565.236 Q464.6 565.236 461.567 562.111 Q458.558 558.963 458.558 553.523 Q458.558 548.199 461.706 544.981 Q464.854 541.764 470.086 541.764 Q476.081 541.764 479.229 546.37 Q482.401 550.953 482.401 559.703 Q482.401 567.875 478.512 572.759 Q474.646 577.62 468.095 577.62 Q466.336 577.62 464.53 577.273 Q462.725 576.925 460.78 576.231 M470.086 561.578 Q473.234 561.578 475.063 559.426 Q476.915 557.273 476.915 553.523 Q476.915 549.796 475.063 547.643 Q473.234 545.467 470.086 545.467 Q466.938 545.467 465.086 547.643 Q463.257 549.796 463.257 553.523 Q463.257 557.273 465.086 559.426 Q466.938 561.578 470.086 561.578 Z" fill="#000000" fill-rule="nonzero" fill-opacity="1" /><path clip-path="url(#clip650)" d="M500.155 540.93 L500.155 583.199 L490.34 583.199 L490.34 579.888 L495.873 579.888 L495.873 544.24 L490.34 544.24 L490.34 540.93 L500.155 540.93 Z" fill="#000000" fill-rule="nonzero" fill-opacity="1" /><polyline clip-path="url(#clip650)" style="stroke:#8e971d; stroke-linecap:round; stroke-linejoin:round; stroke-width:4; stroke-opacity:1; fill:none" points="239.009,611.509 386.48,611.509 "/>
<path clip-path="url(#clip650)" d="M411.058 618.557 L411.058 602.863 L415.318 602.863 L415.318 618.395 Q415.318 622.076 416.753 623.928 Q418.188 625.756 421.058 625.756 Q424.507 625.756 426.498 623.557 Q428.512 621.358 428.512 617.562 L428.512 602.863 L432.771 602.863 L432.771 628.789 L428.512 628.789 L428.512 624.807 Q426.961 627.168 424.901 628.326 Q422.864 629.46 420.156 629.46 Q415.688 629.46 413.373 626.682 Q411.058 623.904 411.058 618.557 M421.776 602.238 L421.776 602.238 Z" fill="#000000" fill-rule="nonzero" fill-opacity="1" /><path clip-path="url(#clip650)" d="M441.151 592.77 L450.966 592.77 L450.966 596.08 L445.41 596.08 L445.41 631.728 L450.966 631.728 L450.966 635.039 L441.151 635.039 L441.151 592.77 Z" fill="#000000" fill-rule="nonzero" fill-opacity="1" /><path clip-path="url(#clip650)" d="M461.452 624.853 L469.091 624.853 L469.091 598.488 L460.78 600.155 L460.78 595.895 L469.044 594.229 L473.72 594.229 L473.72 624.853 L481.359 624.853 L481.359 628.789 L461.452 628.789 L461.452 624.853 Z" fill="#000000" fill-rule="nonzero" fill-opacity="1" /><path clip-path="url(#clip650)" d="M500.803 597.307 Q497.192 597.307 495.364 600.872 Q493.558 604.414 493.558 611.543 Q493.558 618.65 495.364 622.215 Q497.192 625.756 500.803 625.756 Q504.438 625.756 506.243 622.215 Q508.072 618.65 508.072 611.543 Q508.072 604.414 506.243 600.872 Q504.438 597.307 500.803 597.307 M500.803 593.604 Q506.614 593.604 509.669 598.21 Q512.748 602.793 512.748 611.543 Q512.748 620.27 509.669 624.877 Q506.614 629.46 500.803 629.46 Q494.993 629.46 491.915 624.877 Q488.859 620.27 488.859 611.543 Q488.859 602.793 491.915 598.21 Q494.993 593.604 500.803 593.604 Z" fill="#000000" fill-rule="nonzero" fill-opacity="1" /><path clip-path="url(#clip650)" d="M530.317 592.77 L530.317 635.039 L520.502 635.039 L520.502 631.728 L526.035 631.728 L526.035 596.08 L520.502 596.08 L520.502 592.77 L530.317 592.77 Z" fill="#000000" fill-rule="nonzero" fill-opacity="1" /></svg>
