<?xml version="1.0" encoding="utf-8"?>
<svg xmlns="http://www.w3.org/2000/svg" xmlns:xlink="http://www.w3.org/1999/xlink" width="600" height="400" viewBox="0 0 2400 1600">
<defs>
  <clipPath id="clip220">
    <rect x="0" y="0" width="2400" height="1600"/>
  </clipPath>
</defs>
<path clip-path="url(#clip220)" d="M0 1600 L2400 1600 L2400 0 L0 0  Z" fill="#ffffff" fill-rule="evenodd" fill-opacity="1"/>
<defs>
  <clipPath id="clip221">
    <rect x="480" y="0" width="1681" height="1600"/>
  </clipPath>
</defs>
<path clip-path="url(#clip220)" d="M112.177 1423.18 L2352.76 1423.18 L2352.76 47.2441 L112.177 47.2441  Z" fill="#ffffff" fill-rule="evenodd" fill-opacity="1"/>
<defs>
  <clipPath id="clip222">
    <rect x="112" y="47" width="2242" height="1377"/>
  </clipPath>
</defs>
<polyline clip-path="url(#clip222)" style="stroke:#000000; stroke-linecap:round; stroke-linejoin:round; stroke-width:2; stroke-opacity:0.1; fill:none" points="112.177,1423.18 112.177,47.2441 "/>
<polyline clip-path="url(#clip222)" style="stroke:#000000; stroke-linecap:round; stroke-linejoin:round; stroke-width:2; stroke-opacity:0.1; fill:none" points="560.293,1423.18 560.293,47.2441 "/>
<polyline clip-path="url(#clip222)" style="stroke:#000000; stroke-linecap:round; stroke-linejoin:round; stroke-width:2; stroke-opacity:0.1; fill:none" points="1008.41,1423.18 1008.41,47.2441 "/>
<polyline clip-path="url(#clip222)" style="stroke:#000000; stroke-linecap:round; stroke-linejoin:round; stroke-width:2; stroke-opacity:0.1; fill:none" points="1456.52,1423.18 1456.52,47.2441 "/>
<polyline clip-path="url(#clip222)" style="stroke:#000000; stroke-linecap:round; stroke-linejoin:round; stroke-width:2; stroke-opacity:0.1; fill:none" points="1904.64,1423.18 1904.64,47.2441 "/>
<polyline clip-path="url(#clip222)" style="stroke:#000000; stroke-linecap:round; stroke-linejoin:round; stroke-width:2; stroke-opacity:0.1; fill:none" points="2352.76,1423.18 2352.76,47.2441 "/>
<polyline clip-path="url(#clip222)" style="stroke:#000000; stroke-linecap:round; stroke-linejoin:round; stroke-width:2; stroke-opacity:0.1; fill:none" points="112.177,1399.31 2352.76,1399.31 "/>
<polyline clip-path="url(#clip222)" style="stroke:#000000; stroke-linecap:round; stroke-linejoin:round; stroke-width:2; stroke-opacity:0.1; fill:none" points="112.177,1087.64 2352.76,1087.64 "/>
<polyline clip-path="url(#clip222)" style="stroke:#000000; stroke-linecap:round; stroke-linejoin:round; stroke-width:2; stroke-opacity:0.1; fill:none" points="112.177,775.976 2352.76,775.976 "/>
<polyline clip-path="url(#clip222)" style="stroke:#000000; stroke-linecap:round; stroke-linejoin:round; stroke-width:2; stroke-opacity:0.1; fill:none" points="112.177,464.307 2352.76,464.307 "/>
<polyline clip-path="url(#clip222)" style="stroke:#000000; stroke-linecap:round; stroke-linejoin:round; stroke-width:2; stroke-opacity:0.1; fill:none" points="112.177,152.638 2352.76,152.638 "/>
<polyline clip-path="url(#clip220)" style="stroke:#000000; stroke-linecap:round; stroke-linejoin:round; stroke-width:4; stroke-opacity:1; fill:none" points="112.177,1423.18 2352.76,1423.18 "/>
<polyline clip-path="url(#clip220)" style="stroke:#000000; stroke-linecap:round; stroke-linejoin:round; stroke-width:4; stroke-opacity:1; fill:none" points="112.177,1423.18 112.177,1404.28 "/>
<polyline clip-path="url(#clip220)" style="stroke:#000000; stroke-linecap:round; stroke-linejoin:round; stroke-width:4; stroke-opacity:1; fill:none" points="560.293,1423.18 560.293,1404.28 "/>
<polyline clip-path="url(#clip220)" style="stroke:#000000; stroke-linecap:round; stroke-linejoin:round; stroke-width:4; stroke-opacity:1; fill:none" points="1008.41,1423.18 1008.41,1404.28 "/>
<polyline clip-path="url(#clip220)" style="stroke:#000000; stroke-linecap:round; stroke-linejoin:round; stroke-width:4; stroke-opacity:1; fill:none" points="1456.52,1423.18 1456.52,1404.28 "/>
<polyline clip-path="url(#clip220)" style="stroke:#000000; stroke-linecap:round; stroke-linejoin:round; stroke-width:4; stroke-opacity:1; fill:none" points="1904.64,1423.18 1904.64,1404.28 "/>
<polyline clip-path="url(#clip220)" style="stroke:#000000; stroke-linecap:round; stroke-linejoin:round; stroke-width:4; stroke-opacity:1; fill:none" points="2352.76,1423.18 2352.76,1404.28 "/>
<path clip-path="url(#clip220)" d="M112.177 1454.1 Q108.566 1454.1 106.737 1457.66 Q104.932 1461.2 104.932 1468.33 Q104.932 1475.44 106.737 1479.01 Q108.566 1482.55 112.177 1482.55 Q115.811 1482.55 117.617 1479.01 Q119.446 1475.44 119.446 1468.33 Q119.446 1461.2 117.617 1457.66 Q115.811 1454.1 112.177 1454.1 M112.177 1450.39 Q117.987 1450.39 121.043 1455 Q124.122 1459.58 124.122 1468.33 Q124.122 1477.06 121.043 1481.67 Q117.987 1486.25 112.177 1486.25 Q106.367 1486.25 103.288 1481.67 Q100.233 1477.06 100.233 1468.33 Q100.233 1459.58 103.288 1455 Q106.367 1450.39 112.177 1450.39 Z" fill="#000000" fill-rule="nonzero" fill-opacity="1" /><path clip-path="url(#clip220)" d="M554.946 1481.64 L571.265 1481.64 L571.265 1485.58 L549.321 1485.58 L549.321 1481.64 Q551.983 1478.89 556.566 1474.26 Q561.173 1469.61 562.353 1468.27 Q564.598 1465.74 565.478 1464.01 Q566.381 1462.25 566.381 1460.56 Q566.381 1457.8 564.436 1456.07 Q562.515 1454.33 559.413 1454.33 Q557.214 1454.33 554.761 1455.09 Q552.33 1455.86 549.552 1457.41 L549.552 1452.69 Q552.376 1451.55 554.83 1450.97 Q557.284 1450.39 559.321 1450.39 Q564.691 1450.39 567.885 1453.08 Q571.08 1455.77 571.08 1460.26 Q571.08 1462.39 570.27 1464.31 Q569.483 1466.2 567.376 1468.8 Q566.798 1469.47 563.696 1472.69 Q560.594 1475.88 554.946 1481.64 Z" fill="#000000" fill-rule="nonzero" fill-opacity="1" /><path clip-path="url(#clip220)" d="M1011.42 1455.09 L999.612 1473.54 L1011.42 1473.54 L1011.42 1455.09 M1010.19 1451.02 L1016.07 1451.02 L1016.07 1473.54 L1021 1473.54 L1021 1477.43 L1016.07 1477.43 L1016.07 1485.58 L1011.42 1485.58 L1011.42 1477.43 L995.816 1477.43 L995.816 1472.92 L1010.19 1451.02 Z" fill="#000000" fill-rule="nonzero" fill-opacity="1" /><path clip-path="url(#clip220)" d="M1456.93 1466.44 Q1453.78 1466.44 1451.93 1468.59 Q1450.1 1470.74 1450.1 1474.49 Q1450.1 1478.22 1451.93 1480.39 Q1453.78 1482.55 1456.93 1482.55 Q1460.08 1482.55 1461.91 1480.39 Q1463.76 1478.22 1463.76 1474.49 Q1463.76 1470.74 1461.91 1468.59 Q1460.08 1466.44 1456.93 1466.44 M1466.21 1451.78 L1466.21 1456.04 Q1464.45 1455.21 1462.65 1454.77 Q1460.86 1454.33 1459.11 1454.33 Q1454.48 1454.33 1452.02 1457.45 Q1449.59 1460.58 1449.24 1466.9 Q1450.61 1464.89 1452.67 1463.82 Q1454.73 1462.73 1457.21 1462.73 Q1462.42 1462.73 1465.42 1465.9 Q1468.46 1469.05 1468.46 1474.49 Q1468.46 1479.82 1465.31 1483.03 Q1462.16 1486.25 1456.93 1486.25 Q1450.93 1486.25 1447.76 1481.67 Q1444.59 1477.06 1444.59 1468.33 Q1444.59 1460.14 1448.48 1455.28 Q1452.37 1450.39 1458.92 1450.39 Q1460.68 1450.39 1462.46 1450.74 Q1464.27 1451.09 1466.21 1451.78 Z" fill="#000000" fill-rule="nonzero" fill-opacity="1" /><path clip-path="url(#clip220)" d="M1904.64 1469.17 Q1901.31 1469.17 1899.39 1470.95 Q1897.49 1472.73 1897.49 1475.86 Q1897.49 1478.98 1899.39 1480.77 Q1901.31 1482.55 1904.64 1482.55 Q1907.97 1482.55 1909.89 1480.77 Q1911.82 1478.96 1911.82 1475.86 Q1911.82 1472.73 1909.89 1470.95 Q1908 1469.17 1904.64 1469.17 M1899.96 1467.18 Q1896.96 1466.44 1895.27 1464.38 Q1893.6 1462.32 1893.6 1459.35 Q1893.6 1455.21 1896.54 1452.8 Q1899.5 1450.39 1904.64 1450.39 Q1909.8 1450.39 1912.74 1452.8 Q1915.68 1455.21 1915.68 1459.35 Q1915.68 1462.32 1913.99 1464.38 Q1912.33 1466.44 1909.34 1467.18 Q1912.72 1467.96 1914.59 1470.26 Q1916.49 1472.55 1916.49 1475.86 Q1916.49 1480.88 1913.41 1483.57 Q1910.36 1486.25 1904.64 1486.25 Q1898.92 1486.25 1895.84 1483.57 Q1892.79 1480.88 1892.79 1475.86 Q1892.79 1472.55 1894.69 1470.26 Q1896.58 1467.96 1899.96 1467.18 M1898.25 1459.79 Q1898.25 1462.48 1899.92 1463.98 Q1901.61 1465.49 1904.64 1465.49 Q1907.65 1465.49 1909.34 1463.98 Q1911.05 1462.48 1911.05 1459.79 Q1911.05 1457.11 1909.34 1455.6 Q1907.65 1454.1 1904.64 1454.1 Q1901.61 1454.1 1899.92 1455.6 Q1898.25 1457.11 1898.25 1459.79 Z" fill="#000000" fill-rule="nonzero" fill-opacity="1" /><path clip-path="url(#clip220)" d="M2327.44 1481.64 L2335.08 1481.64 L2335.08 1455.28 L2326.77 1456.95 L2326.77 1452.69 L2335.04 1451.02 L2339.71 1451.02 L2339.71 1481.64 L2347.35 1481.64 L2347.35 1485.58 L2327.44 1485.58 L2327.44 1481.64 Z" fill="#000000" fill-rule="nonzero" fill-opacity="1" /><path clip-path="url(#clip220)" d="M2366.8 1454.1 Q2363.18 1454.1 2361.36 1457.66 Q2359.55 1461.2 2359.55 1468.33 Q2359.55 1475.44 2361.36 1479.01 Q2363.18 1482.55 2366.8 1482.55 Q2370.43 1482.55 2372.23 1479.01 Q2374.06 1475.44 2374.06 1468.33 Q2374.06 1461.2 2372.23 1457.66 Q2370.43 1454.1 2366.8 1454.1 M2366.8 1450.39 Q2372.61 1450.39 2375.66 1455 Q2378.74 1459.58 2378.74 1468.33 Q2378.74 1477.06 2375.66 1481.67 Q2372.61 1486.25 2366.8 1486.25 Q2360.99 1486.25 2357.91 1481.67 Q2354.85 1477.06 2354.85 1468.33 Q2354.85 1459.58 2357.91 1455 Q2360.99 1450.39 2366.8 1450.39 Z" fill="#000000" fill-rule="nonzero" fill-opacity="1" /><path clip-path="url(#clip220)" d="M1231.53 1522.27 L1231.53 1532.4 L1243.59 1532.4 L1243.59 1536.95 L1231.53 1536.95 L1231.53 1556.3 Q1231.53 1560.66 1232.71 1561.9 Q1233.91 1563.14 1237.58 1563.14 L1243.59 1563.14 L1243.59 1568.04 L1237.58 1568.04 Q1230.8 1568.04 1228.22 1565.53 Q1225.64 1562.98 1225.64 1556.3 L1225.64 1536.95 L1221.34 1536.95 L1221.34 1532.4 L1225.64 1532.4 L1225.64 1522.27 L1231.53 1522.27 Z" fill="#000000" fill-rule="nonzero" fill-opacity="1" /><polyline clip-path="url(#clip220)" style="stroke:#000000; stroke-linecap:round; stroke-linejoin:round; stroke-width:4; stroke-opacity:1; fill:none" points="112.177,1423.18 112.177,47.2441 "/>
<polyline clip-path="url(#clip220)" style="stroke:#000000; stroke-linecap:round; stroke-linejoin:round; stroke-width:4; stroke-opacity:1; fill:none" points="112.177,1399.31 131.075,1399.31 "/>
<polyline clip-path="url(#clip220)" style="stroke:#000000; stroke-linecap:round; stroke-linejoin:round; stroke-width:4; stroke-opacity:1; fill:none" points="112.177,1087.64 131.075,1087.64 "/>
<polyline clip-path="url(#clip220)" style="stroke:#000000; stroke-linecap:round; stroke-linejoin:round; stroke-width:4; stroke-opacity:1; fill:none" points="112.177,775.976 131.075,775.976 "/>
<polyline clip-path="url(#clip220)" style="stroke:#000000; stroke-linecap:round; stroke-linejoin:round; stroke-width:4; stroke-opacity:1; fill:none" points="112.177,464.307 131.075,464.307 "/>
<polyline clip-path="url(#clip220)" style="stroke:#000000; stroke-linecap:round; stroke-linejoin:round; stroke-width:4; stroke-opacity:1; fill:none" points="112.177,152.638 131.075,152.638 "/>
<path clip-path="url(#clip220)" d="M64.2328 1385.11 Q60.6217 1385.11 58.793 1388.68 Q56.9875 1392.22 56.9875 1399.35 Q56.9875 1406.45 58.793 1410.02 Q60.6217 1413.56 64.2328 1413.56 Q67.867 1413.56 69.6726 1410.02 Q71.5013 1406.45 71.5013 1399.35 Q71.5013 1392.22 69.6726 1388.68 Q67.867 1385.11 64.2328 1385.11 M64.2328 1381.41 Q70.0429 1381.41 73.0985 1386.01 Q76.1772 1390.6 76.1772 1399.35 Q76.1772 1408.08 73.0985 1412.68 Q70.0429 1417.26 64.2328 1417.26 Q58.4226 1417.26 55.344 1412.68 Q52.2884 1408.08 52.2884 1399.35 Q52.2884 1390.6 55.344 1386.01 Q58.4226 1381.41 64.2328 1381.41 Z" fill="#000000" fill-rule="nonzero" fill-opacity="1" /><path clip-path="url(#clip220)" d="M56.2699 1100.99 L63.9087 1100.99 L63.9087 1074.62 L55.5986 1076.29 L55.5986 1072.03 L63.8624 1070.36 L68.5383 1070.36 L68.5383 1100.99 L76.1772 1100.99 L76.1772 1104.92 L56.2699 1104.92 L56.2699 1100.99 Z" fill="#000000" fill-rule="nonzero" fill-opacity="1" /><path clip-path="url(#clip220)" d="M59.8578 789.32 L76.1772 789.32 L76.1772 793.256 L54.2328 793.256 L54.2328 789.32 Q56.8949 786.566 61.4782 781.936 Q66.0846 777.284 67.2652 775.941 Q69.5105 773.418 70.3902 771.682 Q71.2929 769.922 71.2929 768.233 Q71.2929 765.478 69.3485 763.742 Q67.4272 762.006 64.3254 762.006 Q62.1263 762.006 59.6726 762.77 Q57.2421 763.534 54.4643 765.084 L54.4643 760.362 Q57.2884 759.228 59.7421 758.649 Q62.1958 758.071 64.2328 758.071 Q69.6031 758.071 72.7976 760.756 Q75.992 763.441 75.992 767.932 Q75.992 770.061 75.1818 771.983 Q74.3948 773.881 72.2883 776.473 Q71.7096 777.145 68.6078 780.362 Q65.5059 783.557 59.8578 789.32 Z" fill="#000000" fill-rule="nonzero" fill-opacity="1" /><path clip-path="url(#clip220)" d="M69.0476 462.953 Q72.404 463.67 74.279 465.939 Q76.1772 468.207 76.1772 471.54 Q76.1772 476.656 72.6587 479.457 Q69.1402 482.258 62.6587 482.258 Q60.4828 482.258 58.168 481.818 Q55.8764 481.402 53.4227 480.545 L53.4227 476.031 Q55.3671 477.165 57.6819 477.744 Q59.9967 478.323 62.5198 478.323 Q66.918 478.323 69.2096 476.587 Q71.5244 474.851 71.5244 471.54 Q71.5244 468.485 69.3717 466.772 Q67.242 465.036 63.4226 465.036 L59.3949 465.036 L59.3949 461.193 L63.6078 461.193 Q67.0569 461.193 68.8855 459.828 Q70.7142 458.439 70.7142 455.846 Q70.7142 453.184 68.8161 451.772 Q66.9411 450.337 63.4226 450.337 Q61.5013 450.337 59.3023 450.754 Q57.1032 451.17 54.4643 452.05 L54.4643 447.883 Q57.1264 447.142 59.4412 446.772 Q61.7791 446.402 63.8393 446.402 Q69.1633 446.402 72.2652 448.832 Q75.367 451.24 75.367 455.36 Q75.367 458.23 73.7235 460.221 Q72.08 462.189 69.0476 462.953 Z" fill="#000000" fill-rule="nonzero" fill-opacity="1" /><path clip-path="url(#clip220)" d="M66.5939 139.432 L54.7884 157.881 L66.5939 157.881 L66.5939 139.432 M65.367 135.358 L71.2466 135.358 L71.2466 157.881 L76.1772 157.881 L76.1772 161.77 L71.2466 161.77 L71.2466 169.918 L66.5939 169.918 L66.5939 161.77 L50.9921 161.77 L50.9921 157.256 L65.367 135.358 Z" fill="#000000" fill-rule="nonzero" fill-opacity="1" /><polyline clip-path="url(#clip222)" style="stroke:#009af9; stroke-linecap:round; stroke-linejoin:round; stroke-width:8; stroke-opacity:1; fill:none" points="112.177,1336.98 112.321,1338.55 112.471,1338.48 112.64,1339.05 112.831,1336.77 113.045,1336.4 113.286,1334.32 113.557,1335.17 113.862,1339.56 114.205,1338.11 114.591,1338.43 115.026,1341.47 115.514,1343.46 116.064,1345.39 116.682,1347.54 117.378,1345.48 118.161,1339.6 119.041,1338.85 120.032,1341.07 121.146,1338.41 122.4,1337.04 123.81,1339.37 125.397,1341.03 127.181,1346.67 129.19,1354.26 131.449,1354.29 133.99,1366.8 136.849,1362.22 140.066,1365.41 143.684,1360.45 147.755,1355.86 152.335,1349.87 157.487,1355.15 163.284,1337.89 169.805,1319.96 177.141,1330.9 184.32,1326.57 192.396,1316.93 201.482,1309.41 211.257,1297.79 221.627,1299.99 231.765,1271.96 232.71,1270.61 244.116,1328.88 256.947,1337.23 268.98,1349.43 282.517,1356.9 297.746,1333.01 314.879,1328.55 332.531,1327.63 347.937,1339.76 362.471,1319.65 378.821,1327.8 391.213,1335.01 405.153,1312.2 420.837,1320.68 431.64,1321.14 443.794,1274.44 457.468,1209.91 472.278,1253.42 482.085,1210.8 493.119,1212.24 502.526,1172.52 513.109,1151.31 523.399,1177.45 532.376,1171.45 538.021,1250.41 544.372,1318.83 551.516,1319.24 559.553,1335.07 567.336,1328.6 576.091,1328.45 585.94,1334.12 596.161,1299.13 607.66,1299.38 617.412,1281.88 628.383,1284.04 638.224,1244.49 649.294,1231.24 658.818,1225.37 669.16,1255 678.804,1227.11 689.653,1203.74 699.958,1193.32 710.241,1148.02 721.81,1214.63 730.313,1135.23 739.879,1016.21 748.65,992.259 756.408,798.005 764.006,735.589 770.462,596.444 775.867,490.329 780.769,616.006 785.121,600.162 789.551,466.97 793.679,415.458 797.347,528.614 800.773,457.068 804.192,485.618 807.316,534.497 810.36,361.015 813.327,432.949 815.999,217.165 818.601,86.1857 820.864,98.8509 822.962,169.458 824.924,284.757 826.845,284.863 827.836,304.199 829.731,804.938 831.862,755.228 834.152,652.317 836.525,561.818 838.976,546.901 841.367,450.211 843.794,407.674 846.127,417.565 848.441,328.545 850.691,339.121 852.864,465.776 855.03,611.618 857.261,620.336 859.567,590.158 861.89,734.394 864.229,694.234 866.723,759.903 869.139,793.81 871.681,752.169 872.629,771.685 875.21,1080.15 878.114,970.53 880.556,1006.03 883.514,1197.29 886.842,1249.98 890.586,1243.83 894.797,1230.17 899.536,1218.98 904.866,1254.24 910.224,1261.65 916.251,1244.71 923.031,1237.9 930.04,1238.07 937.426,1229.95 945.721,1143.34 954.293,1157.15 961.467,1090.48 969.539,1139.79 976.106,1171.54 983.495,1122.5 991.695,1156.92 998.458,1155.77 1006.07,1175.67 1013.19,1146.45 1021.2,1163.52 1028.2,1101.48 1036.08,1097.83 1042.81,1131.39 1049.44,1120.7 1056.49,1085.85 1063.35,1098.93 1069.62,1150.81 1075.77,1172.74 1082.3,1094.12 1089.19,1089.25 1095.16,1102.74 1101.09,997.131 1104.49,938.112 1110.24,1189.61 1116.7,1113.48 1123.97,1079.2 1130.58,1100.21 1136.78,1153.84 1143.07,1196.87 1149.72,1231.02 1156.78,1221.81 1164.71,1245.24 1172.38,1243.44 1181.01,1223.13 1190.1,1257.06 1198.23,1253.59 1207.39,1188.48 1216.73,1148.96 1225.14,1189.96 1232.58,1243.03 1240.62,1257.29 1249.24,1216.54 1258.81,1272.11 1266.98,1270.14 1276.16,1303.15 1284.75,1301.98 1294.41,1329.81 1304.13,1336.11 1304.73,1336.03 1315.66,1365.5 1327.97,1366.96 1341.81,1359.12 1357.38,1355.2 1374.59,1338.93 1393.95,1302.03 1413.33,1294.29 1429.04,1204.33 1444.94,1139.75 1446.84,941.24 1448.7,925.944 1450.79,928.101 1453.1,918.679 1455.66,925.754 1458.38,956.728 1461.27,1000.73 1464.39,985.783 1467.84,943.321 1471.37,762.711 1474.73,715.449 1477.85,654.376 1480.82,656.275 1483.67,538.364 1486.43,564.202 1488.26,554.771 1490.82,991.313 1493.69,939.754 1496.92,985.223 1500.18,1010.66 1503.85,1009.27 1507.94,1020.01 1512.19,1013.47 1516.74,953.82 1521.76,956.576 1526.37,1080 1531.55,1157.15 1537.03,1137.64 1543.2,1114.98 1549.47,1083.19 1556.01,1143.05 1561.86,1092.17 1568.45,1088.44 1574.41,1032.96 1580.99,918.075 1587.07,996.407 1592.26,953.964 1598.11,1012.26 1603.17,1044.07 1608.59,1064.29 1614,1074.06 1619.56,1070.93 1625.15,1126.47 1630.58,1119.32 1636.64,1152.4 1642.34,1170.39 1648.5,1157.96 1655.08,1107 1661.55,1071.7 1667.73,1092.4 1673.44,1099.32 1679.28,1099.93 1685.01,1153.96 1690.49,1118.24 1693.72,1117.74 1699.9,1265.04 1706.84,1300.86 1714.28,1279.67 1722.66,1266.23 1730.93,1272.08 1739.81,1275.91 1749.58,1307.95 1759.66,1293.54 1771,1296.1 1781.06,1321.4 1791.59,1336 1801.15,1343.14 1811.9,1365.01 1824,1363.14 1837.62,1354.26 1852.93,1370.57 1866.57,1384.1 1881.92,1383.6 1899.18,1363.13 1914.39,1350.96 1931.49,1339.35 1949.75,1346.34 1964.52,1369.69 1981.14,1372.81 1999.84,1366.29 2020.88,1353.44 2044.54,1351.56 2066.15,1364.59 2084.44,1364.96 2105.01,1349.03 2128.15,1354.72 2144.7,1343.96 2163.33,1344 2179.37,1335.37 2197.42,1337.82 2213.32,1327.85 2231.21,1266.19 2247.24,1275.08 2259.76,1297.54 2272.17,1281.04 2286.14,1320.43 2296.72,1305.13 2308.63,1357.25 2322.02,1369.24 2335.84,1384.24 2351.4,1378.96 2352.76,1380.87 "/>
<path clip-path="url(#clip220)" d="M1964.92 196.789 L2278.07 196.789 L2278.07 93.1086 L1964.92 93.1086  Z" fill="#ffffff" fill-rule="evenodd" fill-opacity="1"/>
<polyline clip-path="url(#clip220)" style="stroke:#000000; stroke-linecap:round; stroke-linejoin:round; stroke-width:4; stroke-opacity:1; fill:none" points="1964.92,196.789 2278.07,196.789 2278.07,93.1086 1964.92,93.1086 1964.92,196.789 "/>
<polyline clip-path="url(#clip220)" style="stroke:#009af9; stroke-linecap:round; stroke-linejoin:round; stroke-width:8; stroke-opacity:1; fill:none" points="1989.81,144.949 2139.18,144.949 "/>
<path clip-path="url(#clip220)" d="M2164.08 151.997 L2164.08 136.303 L2168.34 136.303 L2168.34 151.835 Q2168.34 155.516 2169.77 157.368 Q2171.21 159.196 2174.08 159.196 Q2177.53 159.196 2179.52 156.997 Q2181.53 154.798 2181.53 151.002 L2181.53 136.303 L2185.79 136.303 L2185.79 162.229 L2181.53 162.229 L2181.53 158.247 Q2179.98 160.608 2177.92 161.766 Q2175.88 162.9 2173.18 162.9 Q2168.71 162.9 2166.39 160.122 Q2164.08 157.344 2164.08 151.997 M2174.8 135.678 L2174.8 135.678 Z" fill="#000000" fill-rule="nonzero" fill-opacity="1" /><path clip-path="url(#clip220)" d="M2194.17 126.21 L2203.99 126.21 L2203.99 129.52 L2198.43 129.52 L2198.43 165.168 L2203.99 165.168 L2203.99 168.479 L2194.17 168.479 L2194.17 126.21 Z" fill="#000000" fill-rule="nonzero" fill-opacity="1" /><path clip-path="url(#clip220)" d="M2214.47 158.293 L2222.11 158.293 L2222.11 131.928 L2213.8 133.595 L2213.8 129.335 L2222.06 127.669 L2226.74 127.669 L2226.74 158.293 L2234.38 158.293 L2234.38 162.229 L2214.47 162.229 L2214.47 158.293 Z" fill="#000000" fill-rule="nonzero" fill-opacity="1" /><path clip-path="url(#clip220)" d="M2253.17 126.21 L2253.17 168.479 L2243.36 168.479 L2243.36 165.168 L2248.89 165.168 L2248.89 129.52 L2243.36 129.52 L2243.36 126.21 L2253.17 126.21 Z" fill="#000000" fill-rule="nonzero" fill-opacity="1" /></svg>
