<?xml version="1.0" encoding="utf-8"?>
<svg xmlns="http://www.w3.org/2000/svg" xmlns:xlink="http://www.w3.org/1999/xlink" width="600" height="400" viewBox="0 0 2400 1600">
<defs>
  <clipPath id="clip160">
    <rect x="0" y="0" width="2400" height="1600"/>
  </clipPath>
</defs>
<path clip-path="url(#clip160)" d="M0 1600 L2400 1600 L2400 0 L0 0  Z" fill="#ffffff" fill-rule="evenodd" fill-opacity="1"/>
<defs>
  <clipPath id="clip161">
    <rect x="480" y="0" width="1681" height="1600"/>
  </clipPath>
</defs>
<path clip-path="url(#clip160)" d="M112.177 1423.18 L2352.76 1423.18 L2352.76 47.2441 L112.177 47.2441  Z" fill="#ffffff" fill-rule="evenodd" fill-opacity="1"/>
<defs>
  <clipPath id="clip162">
    <rect x="112" y="47" width="2242" height="1377"/>
  </clipPath>
</defs>
<polyline clip-path="url(#clip162)" style="stroke:#000000; stroke-linecap:round; stroke-linejoin:round; stroke-width:2; stroke-opacity:0.1; fill:none" points="112.177,1423.18 112.177,47.2441 "/>
<polyline clip-path="url(#clip162)" style="stroke:#000000; stroke-linecap:round; stroke-linejoin:round; stroke-width:2; stroke-opacity:0.1; fill:none" points="560.293,1423.18 560.293,47.2441 "/>
<polyline clip-path="url(#clip162)" style="stroke:#000000; stroke-linecap:round; stroke-linejoin:round; stroke-width:2; stroke-opacity:0.1; fill:none" points="1008.41,1423.18 1008.41,47.2441 "/>
<polyline clip-path="url(#clip162)" style="stroke:#000000; stroke-linecap:round; stroke-linejoin:round; stroke-width:2; stroke-opacity:0.1; fill:none" points="1456.52,1423.18 1456.52,47.2441 "/>
<polyline clip-path="url(#clip162)" style="stroke:#000000; stroke-linecap:round; stroke-linejoin:round; stroke-width:2; stroke-opacity:0.1; fill:none" points="1904.64,1423.18 1904.64,47.2441 "/>
<polyline clip-path="url(#clip162)" style="stroke:#000000; stroke-linecap:round; stroke-linejoin:round; stroke-width:2; stroke-opacity:0.1; fill:none" points="2352.76,1423.18 2352.76,47.2441 "/>
<polyline clip-path="url(#clip162)" style="stroke:#000000; stroke-linecap:round; stroke-linejoin:round; stroke-width:2; stroke-opacity:0.1; fill:none" points="112.177,1103.69 2352.76,1103.69 "/>
<polyline clip-path="url(#clip162)" style="stroke:#000000; stroke-linecap:round; stroke-linejoin:round; stroke-width:2; stroke-opacity:0.1; fill:none" points="112.177,753.01 2352.76,753.01 "/>
<polyline clip-path="url(#clip162)" style="stroke:#000000; stroke-linecap:round; stroke-linejoin:round; stroke-width:2; stroke-opacity:0.1; fill:none" points="112.177,402.328 2352.76,402.328 "/>
<polyline clip-path="url(#clip162)" style="stroke:#000000; stroke-linecap:round; stroke-linejoin:round; stroke-width:2; stroke-opacity:0.1; fill:none" points="112.177,51.6452 2352.76,51.6452 "/>
<polyline clip-path="url(#clip160)" style="stroke:#000000; stroke-linecap:round; stroke-linejoin:round; stroke-width:4; stroke-opacity:1; fill:none" points="112.177,1423.18 2352.76,1423.18 "/>
<polyline clip-path="url(#clip160)" style="stroke:#000000; stroke-linecap:round; stroke-linejoin:round; stroke-width:4; stroke-opacity:1; fill:none" points="112.177,1423.18 112.177,1404.28 "/>
<polyline clip-path="url(#clip160)" style="stroke:#000000; stroke-linecap:round; stroke-linejoin:round; stroke-width:4; stroke-opacity:1; fill:none" points="560.293,1423.18 560.293,1404.28 "/>
<polyline clip-path="url(#clip160)" style="stroke:#000000; stroke-linecap:round; stroke-linejoin:round; stroke-width:4; stroke-opacity:1; fill:none" points="1008.41,1423.18 1008.41,1404.28 "/>
<polyline clip-path="url(#clip160)" style="stroke:#000000; stroke-linecap:round; stroke-linejoin:round; stroke-width:4; stroke-opacity:1; fill:none" points="1456.52,1423.18 1456.52,1404.28 "/>
<polyline clip-path="url(#clip160)" style="stroke:#000000; stroke-linecap:round; stroke-linejoin:round; stroke-width:4; stroke-opacity:1; fill:none" points="1904.64,1423.18 1904.64,1404.28 "/>
<polyline clip-path="url(#clip160)" style="stroke:#000000; stroke-linecap:round; stroke-linejoin:round; stroke-width:4; stroke-opacity:1; fill:none" points="2352.76,1423.18 2352.76,1404.28 "/>
<path clip-path="url(#clip160)" d="M112.177 1454.1 Q108.566 1454.1 106.737 1457.66 Q104.932 1461.2 104.932 1468.33 Q104.932 1475.44 106.737 1479.01 Q108.566 1482.55 112.177 1482.55 Q115.811 1482.55 117.617 1479.01 Q119.446 1475.44 119.446 1468.33 Q119.446 1461.2 117.617 1457.66 Q115.811 1454.1 112.177 1454.1 M112.177 1450.39 Q117.987 1450.39 121.043 1455 Q124.122 1459.58 124.122 1468.33 Q124.122 1477.06 121.043 1481.67 Q117.987 1486.25 112.177 1486.25 Q106.367 1486.25 103.288 1481.67 Q100.233 1477.06 100.233 1468.33 Q100.233 1459.58 103.288 1455 Q106.367 1450.39 112.177 1450.39 Z" fill="#000000" fill-rule="nonzero" fill-opacity="1" /><path clip-path="url(#clip160)" d="M554.946 1481.64 L571.265 1481.64 L571.265 1485.58 L549.321 1485.58 L549.321 1481.64 Q551.983 1478.89 556.566 1474.26 Q561.173 1469.61 562.353 1468.27 Q564.598 1465.74 565.478 1464.01 Q566.381 1462.25 566.381 1460.56 Q566.381 1457.8 564.436 1456.07 Q562.515 1454.33 559.413 1454.33 Q557.214 1454.33 554.761 1455.09 Q552.33 1455.86 549.552 1457.41 L549.552 1452.69 Q552.376 1451.55 554.83 1450.97 Q557.284 1450.39 559.321 1450.39 Q564.691 1450.39 567.885 1453.08 Q571.08 1455.77 571.08 1460.26 Q571.08 1462.39 570.27 1464.31 Q569.483 1466.2 567.376 1468.8 Q566.798 1469.47 563.696 1472.69 Q560.594 1475.88 554.946 1481.64 Z" fill="#000000" fill-rule="nonzero" fill-opacity="1" /><path clip-path="url(#clip160)" d="M1011.42 1455.09 L999.612 1473.54 L1011.42 1473.54 L1011.42 1455.09 M1010.19 1451.02 L1016.07 1451.02 L1016.07 1473.54 L1021 1473.54 L1021 1477.43 L1016.07 1477.43 L1016.07 1485.58 L1011.42 1485.58 L1011.42 1477.43 L995.816 1477.43 L995.816 1472.92 L1010.19 1451.02 Z" fill="#000000" fill-rule="nonzero" fill-opacity="1" /><path clip-path="url(#clip160)" d="M1456.93 1466.44 Q1453.78 1466.44 1451.93 1468.59 Q1450.1 1470.74 1450.1 1474.49 Q1450.1 1478.22 1451.93 1480.39 Q1453.78 1482.55 1456.93 1482.55 Q1460.08 1482.55 1461.91 1480.39 Q1463.76 1478.22 1463.76 1474.49 Q1463.76 1470.74 1461.91 1468.59 Q1460.08 1466.44 1456.93 1466.44 M1466.21 1451.78 L1466.21 1456.04 Q1464.45 1455.21 1462.65 1454.77 Q1460.86 1454.33 1459.11 1454.33 Q1454.48 1454.33 1452.02 1457.45 Q1449.59 1460.58 1449.24 1466.9 Q1450.61 1464.89 1452.67 1463.82 Q1454.73 1462.73 1457.21 1462.73 Q1462.42 1462.73 1465.42 1465.9 Q1468.46 1469.05 1468.46 1474.49 Q1468.46 1479.82 1465.31 1483.03 Q1462.16 1486.25 1456.93 1486.25 Q1450.93 1486.25 1447.76 1481.67 Q1444.59 1477.06 1444.59 1468.33 Q1444.59 1460.14 1448.48 1455.28 Q1452.37 1450.39 1458.92 1450.39 Q1460.68 1450.39 1462.46 1450.74 Q1464.27 1451.09 1466.21 1451.78 Z" fill="#000000" fill-rule="nonzero" fill-opacity="1" /><path clip-path="url(#clip160)" d="M1904.64 1469.17 Q1901.31 1469.17 1899.39 1470.95 Q1897.49 1472.73 1897.49 1475.86 Q1897.49 1478.98 1899.39 1480.77 Q1901.31 1482.55 1904.64 1482.55 Q1907.97 1482.55 1909.89 1480.77 Q1911.82 1478.96 1911.82 1475.86 Q1911.82 1472.73 1909.89 1470.95 Q1908 1469.17 1904.64 1469.17 M1899.96 1467.18 Q1896.96 1466.44 1895.27 1464.38 Q1893.6 1462.32 1893.6 1459.35 Q1893.6 1455.21 1896.54 1452.8 Q1899.5 1450.39 1904.64 1450.39 Q1909.8 1450.39 1912.74 1452.8 Q1915.68 1455.21 1915.68 1459.35 Q1915.68 1462.32 1913.99 1464.38 Q1912.33 1466.44 1909.34 1467.18 Q1912.72 1467.96 1914.59 1470.26 Q1916.49 1472.55 1916.49 1475.86 Q1916.49 1480.88 1913.41 1483.57 Q1910.36 1486.25 1904.64 1486.25 Q1898.92 1486.25 1895.84 1483.57 Q1892.79 1480.88 1892.79 1475.86 Q1892.79 1472.55 1894.69 1470.26 Q1896.58 1467.96 1899.96 1467.18 M1898.25 1459.79 Q1898.25 1462.48 1899.92 1463.98 Q1901.61 1465.49 1904.64 1465.49 Q1907.65 1465.49 1909.34 1463.98 Q1911.05 1462.48 1911.05 1459.79 Q1911.05 1457.11 1909.34 1455.6 Q1907.65 1454.1 1904.64 1454.1 Q1901.61 1454.1 1899.92 1455.6 Q1898.25 1457.11 1898.25 1459.79 Z" fill="#000000" fill-rule="nonzero" fill-opacity="1" /><path clip-path="url(#clip160)" d="M2327.44 1481.64 L2335.08 1481.64 L2335.08 1455.28 L2326.77 1456.95 L2326.77 1452.69 L2335.04 1451.02 L2339.71 1451.02 L2339.71 1481.64 L2347.35 1481.64 L2347.35 1485.58 L2327.44 1485.58 L2327.44 1481.64 Z" fill="#000000" fill-rule="nonzero" fill-opacity="1" /><path clip-path="url(#clip160)" d="M2366.8 1454.1 Q2363.18 1454.1 2361.36 1457.66 Q2359.55 1461.2 2359.55 1468.33 Q2359.55 1475.44 2361.36 1479.01 Q2363.18 1482.55 2366.8 1482.55 Q2370.43 1482.55 2372.23 1479.01 Q2374.06 1475.44 2374.06 1468.33 Q2374.06 1461.2 2372.23 1457.66 Q2370.43 1454.1 2366.8 1454.1 M2366.8 1450.39 Q2372.61 1450.39 2375.66 1455 Q2378.74 1459.58 2378.74 1468.33 Q2378.74 1477.06 2375.66 1481.67 Q2372.61 1486.25 2366.8 1486.25 Q2360.99 1486.25 2357.91 1481.67 Q2354.85 1477.06 2354.85 1468.33 Q2354.85 1459.58 2357.91 1455 Q2360.99 1450.39 2366.8 1450.39 Z" fill="#000000" fill-rule="nonzero" fill-opacity="1" /><path clip-path="url(#clip160)" d="M1231.53 1522.27 L1231.53 1532.4 L1243.59 1532.4 L1243.59 1536.95 L1231.53 1536.95 L1231.53 1556.3 Q1231.53 1560.66 1232.71 1561.9 Q1233.91 1563.14 1237.58 1563.14 L1243.59 1563.14 L1243.59 1568.04 L1237.58 1568.04 Q1230.8 1568.04 1228.22 1565.53 Q1225.64 1562.98 1225.64 1556.3 L1225.64 1536.95 L1221.34 1536.95 L1221.34 1532.4 L1225.64 1532.4 L1225.64 1522.27 L1231.53 1522.27 Z" fill="#000000" fill-rule="nonzero" fill-opacity="1" /><polyline clip-path="url(#clip160)" style="stroke:#000000; stroke-linecap:round; stroke-linejoin:round; stroke-width:4; stroke-opacity:1; fill:none" points="112.177,1423.18 112.177,47.2441 "/>
<polyline clip-path="url(#clip160)" style="stroke:#000000; stroke-linecap:round; stroke-linejoin:round; stroke-width:4; stroke-opacity:1; fill:none" points="112.177,1103.69 131.075,1103.69 "/>
<polyline clip-path="url(#clip160)" style="stroke:#000000; stroke-linecap:round; stroke-linejoin:round; stroke-width:4; stroke-opacity:1; fill:none" points="112.177,753.01 131.075,753.01 "/>
<polyline clip-path="url(#clip160)" style="stroke:#000000; stroke-linecap:round; stroke-linejoin:round; stroke-width:4; stroke-opacity:1; fill:none" points="112.177,402.328 131.075,402.328 "/>
<polyline clip-path="url(#clip160)" style="stroke:#000000; stroke-linecap:round; stroke-linejoin:round; stroke-width:4; stroke-opacity:1; fill:none" points="112.177,51.6452 131.075,51.6452 "/>
<path clip-path="url(#clip160)" d="M56.2699 1117.04 L63.9087 1117.04 L63.9087 1090.67 L55.5986 1092.34 L55.5986 1088.08 L63.8624 1086.41 L68.5383 1086.41 L68.5383 1117.04 L76.1772 1117.04 L76.1772 1120.97 L56.2699 1120.97 L56.2699 1117.04 Z" fill="#000000" fill-rule="nonzero" fill-opacity="1" /><path clip-path="url(#clip160)" d="M59.8578 766.355 L76.1772 766.355 L76.1772 770.29 L54.2328 770.29 L54.2328 766.355 Q56.8949 763.6 61.4782 758.971 Q66.0846 754.318 67.2652 752.975 Q69.5105 750.452 70.3902 748.716 Q71.2929 746.957 71.2929 745.267 Q71.2929 742.512 69.3485 740.776 Q67.4272 739.04 64.3254 739.04 Q62.1263 739.04 59.6726 739.804 Q57.2421 740.568 54.4643 742.119 L54.4643 737.397 Q57.2884 736.262 59.7421 735.684 Q62.1958 735.105 64.2328 735.105 Q69.6031 735.105 72.7976 737.79 Q75.992 740.475 75.992 744.966 Q75.992 747.096 75.1818 749.017 Q74.3948 750.915 72.2883 753.508 Q71.7096 754.179 68.6078 757.397 Q65.5059 760.591 59.8578 766.355 Z" fill="#000000" fill-rule="nonzero" fill-opacity="1" /><path clip-path="url(#clip160)" d="M69.0476 400.973 Q72.404 401.691 74.279 403.96 Q76.1772 406.228 76.1772 409.561 Q76.1772 414.677 72.6587 417.478 Q69.1402 420.279 62.6587 420.279 Q60.4828 420.279 58.168 419.839 Q55.8764 419.422 53.4227 418.566 L53.4227 414.052 Q55.3671 415.186 57.6819 415.765 Q59.9967 416.344 62.5198 416.344 Q66.918 416.344 69.2096 414.608 Q71.5244 412.872 71.5244 409.561 Q71.5244 406.506 69.3717 404.793 Q67.242 403.057 63.4226 403.057 L59.3949 403.057 L59.3949 399.214 L63.6078 399.214 Q67.0569 399.214 68.8855 397.848 Q70.7142 396.46 70.7142 393.867 Q70.7142 391.205 68.8161 389.793 Q66.9411 388.358 63.4226 388.358 Q61.5013 388.358 59.3023 388.774 Q57.1032 389.191 54.4643 390.071 L54.4643 385.904 Q57.1264 385.163 59.4412 384.793 Q61.7791 384.423 63.8393 384.423 Q69.1633 384.423 72.2652 386.853 Q75.367 389.261 75.367 393.381 Q75.367 396.251 73.7235 398.242 Q72.08 400.21 69.0476 400.973 Z" fill="#000000" fill-rule="nonzero" fill-opacity="1" /><path clip-path="url(#clip160)" d="M66.5939 38.4393 L54.7884 56.8882 L66.5939 56.8882 L66.5939 38.4393 M65.367 34.3652 L71.2466 34.3652 L71.2466 56.8882 L76.1772 56.8882 L76.1772 60.7771 L71.2466 60.7771 L71.2466 68.9252 L66.5939 68.9252 L66.5939 60.7771 L50.9921 60.7771 L50.9921 56.2632 L65.367 34.3652 Z" fill="#000000" fill-rule="nonzero" fill-opacity="1" /><polyline clip-path="url(#clip162)" style="stroke:#009af9; stroke-linecap:round; stroke-linejoin:round; stroke-width:8; stroke-opacity:1; fill:none" points="112.177,1384.24 114.42,1383.53 116.663,1382.82 118.906,1382.1 121.148,1381.37 123.391,1380.64 125.634,1379.9 127.877,1379.15 130.12,1378.39 132.363,1377.63 134.605,1376.85 136.848,1376.07 139.091,1375.29 141.334,1374.49 143.577,1373.69 145.819,1372.88 148.062,1372.06 150.305,1371.23 152.548,1370.39 154.791,1369.55 157.034,1368.69 159.276,1367.83 161.519,1366.96 163.762,1366.08 166.005,1365.19 168.248,1364.3 170.491,1363.39 172.733,1362.47 174.976,1361.55 177.219,1360.62 179.462,1359.67 181.705,1358.72 183.947,1357.76 186.19,1356.78 188.433,1355.8 190.676,1354.81 192.919,1353.81 195.162,1352.8 197.404,1351.78 199.647,1350.74 201.89,1349.7 204.133,1348.65 206.376,1347.58 208.619,1346.51 210.861,1345.43 213.104,1344.33 215.347,1343.22 217.59,1342.1 219.833,1340.97 222.075,1339.83 224.318,1338.68 226.561,1337.52 228.804,1336.34 231.047,1335.15 233.29,1333.96 235.532,1332.74 237.775,1331.52 240.018,1330.28 242.261,1329.04 244.504,1327.77 246.746,1326.5 248.989,1325.21 251.232,1323.92 253.475,1322.6 255.718,1321.28 257.961,1319.94 260.203,1318.59 262.446,1317.22 264.689,1315.84 266.932,1314.45 269.175,1313.04 271.418,1311.62 273.66,1310.18 275.903,1308.73 278.146,1307.26 280.389,1305.78 282.632,1304.29 284.874,1302.78 287.117,1301.25 289.36,1299.71 291.603,1298.16 293.846,1296.59 296.089,1295 298.331,1293.4 300.574,1291.78 302.817,1290.14 305.06,1288.49 307.303,1286.82 309.545,1285.13 311.788,1283.43 314.031,1281.71 316.274,1279.97 318.517,1278.22 320.76,1276.45 323.002,1274.66 325.245,1272.85 327.488,1271.02 329.731,1269.18 331.974,1267.32 334.217,1265.43 336.459,1263.53 338.702,1261.61 340.945,1259.67 343.188,1257.72 345.431,1255.74 347.673,1253.74 349.916,1251.72 352.159,1249.68 354.402,1247.62 356.645,1245.54 358.888,1243.44 361.13,1241.32 363.373,1239.18 365.616,1237.01 367.859,1234.82 370.102,1232.62 372.344,1230.38 374.587,1228.13 376.83,1225.85 379.073,1223.56 381.316,1221.23 383.559,1218.89 385.801,1216.52 388.044,1214.13 390.287,1211.71 392.53,1209.27 394.773,1206.8 397.016,1204.31 399.258,1201.8 401.501,1199.25 403.744,1196.69 405.987,1194.1 408.23,1191.48 410.472,1188.83 412.715,1186.16 414.958,1183.46 417.201,1180.74 419.444,1177.98 421.687,1175.2 423.929,1172.4 426.172,1169.56 428.415,1166.69 430.658,1163.8 432.901,1160.88 435.143,1157.92 437.386,1154.94 439.629,1151.93 441.872,1148.89 444.115,1145.81 446.358,1142.71 448.6,1296.97 450.843,1295.39 453.086,1293.79 455.329,1292.18 457.572,1290.54 459.815,1288.9 462.057,1287.23 464.3,1285.55 466.543,1283.85 468.786,1282.13 471.029,1280.4 473.271,1278.65 475.514,1276.88 477.757,1275.1 480,1273.29 482.243,1271.47 484.486,1269.63 486.728,1267.77 488.971,1265.9 491.214,1264 493.457,1262.09 495.7,1260.15 497.942,1258.2 500.185,1256.22 502.428,1254.23 504.671,1252.22 506.914,1250.18 509.157,1248.13 511.399,1246.05 513.642,1243.96 515.885,1241.84 518.128,1239.7 520.371,1237.54 522.614,1235.36 524.856,1233.16 527.099,1230.93 529.342,1228.69 531.585,1226.42 533.828,1224.12 536.07,1221.81 538.313,1219.47 540.556,1217.1 542.799,1214.72 545.042,1333.34 547.285,1332.12 549.527,1330.89 551.77,1329.65 554.013,1328.4 556.256,1327.13 558.499,1325.85 560.741,1324.55 562.984,1323.25 565.227,1321.93 567.47,1320.6 569.713,1319.25 571.956,1317.89 574.198,1316.52 576.441,1315.13 578.684,1313.73 580.927,1312.32 583.17,1310.89 585.413,1309.44 587.655,1307.99 589.898,1306.51 592.141,1305.03 594.384,1303.52 596.627,1302.01 598.869,1300.47 601.112,1298.92 603.355,1297.36 605.598,1295.78 607.841,1294.19 610.084,1292.57 612.326,1290.95 614.569,1289.3 616.812,1287.64 619.055,1285.96 621.298,1284.27 623.54,1282.56 625.783,1280.83 628.026,1279.08 630.269,1277.32 632.512,1275.54 634.755,1273.74 636.997,1271.92 639.24,1270.09 641.483,1268.23 643.726,1266.36 645.969,1264.47 648.212,1262.56 650.454,1260.63 652.697,1258.68 654.94,1256.71 657.183,1254.72 659.426,1252.71 661.668,1250.68 663.911,1248.64 666.154,1246.57 668.397,1244.48 670.64,1242.36 672.883,1240.23 675.125,1238.08 677.368,1235.9 679.611,1233.7 681.854,1231.48 684.097,1229.24 686.339,1226.98 688.582,1224.69 690.825,1222.38 693.068,1220.04 695.311,1217.69 697.554,1215.3 699.796,1212.9 702.039,1210.47 704.282,1208.02 706.525,1205.54 708.768,1203.03 711.011,1200.51 713.253,1197.95 715.496,1195.37 717.739,1323.57 719.982,1322.25 722.225,1320.93 724.467,1319.58 726.71,1318.23 728.953,1316.86 731.196,1315.47 733.439,1314.08 735.682,1312.66 737.924,1311.24 740.167,1309.8 742.41,1308.34 744.653,1306.88 746.896,1305.39 749.138,1303.89 751.381,1302.38 753.624,1300.85 755.867,1299.31 758.11,1297.75 760.353,1296.17 762.595,1294.58 764.838,1292.97 767.081,1291.35 769.324,1289.71 771.567,1288.05 773.81,1286.38 776.052,1284.69 778.295,1282.98 780.538,1281.26 782.781,1279.51 785.024,1277.75 787.266,1275.98 789.509,1274.18 791.752,1272.37 793.995,1270.54 796.238,1268.69 798.481,1266.82 800.723,1264.94 802.966,1263.03 805.209,1261.1 807.452,1259.16 809.695,1257.2 811.938,1255.21 814.18,1253.21 816.423,1251.18 818.666,1249.14 820.909,1247.08 823.152,1244.99 825.394,1242.88 827.637,1240.76 829.88,1238.61 832.123,1236.44 834.366,1234.24 836.609,1232.03 838.851,1229.79 841.094,1227.53 843.337,1225.25 845.58,1222.95 847.823,1220.62 850.065,1218.27 852.308,1215.89 854.551,1213.49 856.794,1211.07 859.037,1208.62 861.28,1206.15 863.522,1203.65 865.765,1201.13 868.008,1198.58 870.251,1196.01 872.494,1193.41 874.737,1190.78 876.979,1188.13 879.222,1185.45 881.465,1182.75 883.708,1180.02 885.951,1177.26 888.193,1174.47 890.436,1171.65 892.679,1168.81 894.922,1165.93 897.165,1163.03 899.408,1160.1 901.65,1157.14 903.893,1154.15 906.136,1151.13 908.379,1148.08 910.622,1145 912.864,1141.89 915.107,1138.74 917.35,1135.57 919.593,1132.36 921.836,1129.12 924.079,1125.85 926.321,1122.54 928.564,1119.2 930.807,1115.83 933.05,1112.43 935.293,1108.99 937.536,1105.51 939.778,1102 942.021,1098.46 944.264,1094.88 946.507,1091.26 948.75,1087.61 950.992,1083.92 953.235,1080.19 955.478,1076.42 957.721,1072.62 959.964,1068.78 962.207,1064.9 964.449,1060.98 966.692,1057.03 968.935,1053.03 971.178,1048.99 973.421,1044.91 975.663,1040.79 977.906,1036.63 980.149,1032.43 982.392,1028.19 984.635,1023.9 986.878,1019.57 989.12,1015.19 991.363,1010.78 993.606,1006.31 995.849,1001.8 998.092,997.252 1000.33,992.653 1002.58,988.008 1004.82,983.316 1007.06,978.577 1009.31,973.791 1011.55,968.956 1013.79,1209.23 1016.03,1206.76 1018.28,1204.27 1020.52,1201.75 1022.76,1199.21 1025.01,1196.64 1027.25,1194.05 1029.49,1191.43 1031.73,1188.79 1033.98,1186.11 1036.22,1183.42 1038.46,1180.69 1040.71,1177.94 1042.95,1175.16 1045.19,1172.35 1047.43,1169.51 1049.68,1166.64 1051.92,1163.75 1054.16,1160.83 1056.41,1306.12 1058.65,1304.63 1060.89,1303.13 1063.13,1301.6 1065.38,1300.07 1067.62,1298.51 1069.86,1296.95 1072.1,1295.36 1074.35,1293.76 1076.59,1292.15 1078.83,1290.52 1081.08,1288.87 1083.32,1287.2 1085.56,1285.52 1087.8,1283.82 1090.05,1282.11 1092.29,1280.37 1094.53,1278.62 1096.78,1276.85 1099.02,1275.07 1101.26,1273.26 1103.5,1271.44 1105.75,1361.99 1107.99,1361.06 1110.23,1360.12 1112.48,1359.17 1114.72,1358.21 1116.96,1357.25 1119.2,1356.27 1121.45,1355.28 1123.69,1354.29 1125.93,1353.28 1128.18,1352.26 1130.42,1351.23 1132.66,1350.2 1134.9,1349.15 1137.15,1348.09 1139.39,1347.02 1141.63,1345.94 1143.88,1344.85 1146.12,1343.75 1148.36,1342.64 1150.6,1341.51 1152.85,1340.38 1155.09,1339.23 1157.33,1338.07 1159.57,1336.9 1161.82,1335.72 1164.06,1334.52 1166.3,1333.32 1168.55,1332.1 1170.79,1330.87 1173.03,1329.63 1175.27,1328.37 1177.52,1327.11 1179.76,1325.83 1182,1324.53 1184.25,1323.23 1186.49,1321.91 1188.73,1320.57 1190.97,1319.23 1193.22,1317.87 1195.46,1316.49 1197.7,1315.11 1199.95,1313.71 1202.19,1312.29 1204.43,1310.86 1206.67,1309.42 1208.92,1307.96 1211.16,1306.49 1213.4,1305 1215.65,1303.5 1217.89,1301.98 1220.13,1300.45 1222.37,1298.9 1224.62,1297.33 1226.86,1295.75 1229.1,1294.16 1231.35,1292.55 1233.59,1290.92 1235.83,1289.27 1238.07,1287.61 1240.32,1285.93 1242.56,1284.24 1244.8,1282.53 1247.04,1280.8 1249.29,1279.05 1251.53,1277.29 1253.77,1275.51 1256.02,1273.71 1258.26,1271.89 1260.5,1270.06 1262.74,1268.2 1264.99,1266.33 1267.23,1264.44 1269.47,1262.53 1271.72,1260.6 1273.96,1258.65 1276.2,1256.68 1278.44,1254.69 1280.69,1252.68 1282.93,1250.65 1285.17,1248.6 1287.42,1246.53 1289.66,1244.44 1291.9,1242.33 1294.14,1240.19 1296.39,1346.21 1298.63,1345.12 1300.87,1344.02 1303.12,1342.91 1305.36,1341.79 1307.6,1340.66 1309.84,1339.51 1312.09,1338.36 1314.33,1337.19 1316.57,1336.01 1318.82,1334.82 1321.06,1333.62 1323.3,1332.4 1325.54,1331.17 1327.79,1329.93 1330.03,1328.68 1332.27,1327.42 1334.51,1326.14 1336.76,1324.85 1339,1323.55 1341.24,1322.23 1343.49,1320.9 1345.73,1319.56 1347.97,1318.2 1350.21,1316.83 1352.46,1315.45 1354.7,1314.05 1356.94,1312.64 1359.19,1311.21 1361.43,1309.77 1363.67,1308.32 1365.91,1306.85 1368.16,1305.37 1370.4,1303.87 1372.64,1302.35 1374.89,1300.82 1377.13,1299.28 1379.37,1297.72 1381.61,1296.14 1383.86,1294.55 1386.1,1292.94 1388.34,1291.32 1390.59,1289.68 1392.83,1288.02 1395.07,1286.35 1397.31,1284.66 1399.56,1282.95 1401.8,1281.23 1404.04,1279.48 1406.29,1277.72 1408.53,1275.95 1410.77,1274.15 1413.01,1272.34 1415.26,1270.51 1417.5,1268.66 1419.74,1266.79 1421.98,1264.9 1424.23,1263 1426.47,1261.07 1428.71,1259.13 1430.96,1257.16 1433.2,1255.18 1435.44,1253.17 1437.68,1251.15 1439.93,1249.11 1442.17,1247.04 1444.41,1244.95 1446.66,1242.85 1448.9,1240.72 1451.14,1238.57 1453.38,1236.4 1455.63,1234.21 1457.87,1231.99 1460.11,1229.76 1462.36,1227.5 1464.6,1225.21 1466.84,1222.91 1469.08,1220.58 1471.33,1218.23 1473.57,1215.85 1475.81,1213.45 1478.06,1211.03 1480.3,1208.58 1482.54,1206.11 1484.78,1203.61 1487.03,1201.09 1489.27,1198.54 1491.51,1195.97 1493.76,1193.37 1496,1190.74 1498.24,1188.09 1500.48,1185.41 1502.73,1182.7 1504.97,1179.97 1507.21,1177.21 1509.46,1174.42 1511.7,1171.6 1513.94,1168.76 1516.18,1165.88 1518.43,1162.98 1520.67,1160.05 1522.91,1157.09 1525.15,1154.1 1527.4,1151.08 1529.64,1148.03 1531.88,1144.94 1534.13,1141.83 1536.37,1138.69 1538.61,1135.51 1540.85,1132.3 1543.1,1129.06 1545.34,1125.79 1547.58,1122.48 1549.83,1119.15 1552.07,1115.77 1554.31,1112.37 1556.55,1108.93 1558.8,1105.45 1561.04,1101.94 1563.28,1098.39 1565.53,1094.81 1567.77,1091.2 1570.01,1087.54 1572.25,1083.85 1574.5,1080.13 1576.74,1076.36 1578.98,1072.56 1581.23,1068.72 1583.47,1064.84 1585.71,1060.92 1587.95,1056.96 1590.2,1052.96 1592.44,1048.92 1594.68,1044.84 1596.93,1040.72 1599.17,1036.56 1601.41,1032.36 1603.65,1028.11 1605.9,1023.83 1608.14,1019.49 1610.38,1015.12 1612.62,1010.7 1614.87,1006.24 1617.11,1001.73 1619.35,997.173 1621.6,992.574 1623.84,987.928 1626.08,983.235 1628.32,1216.44 1630.57,1214.04 1632.81,1211.63 1635.05,1209.18 1637.3,1206.72 1639.54,1204.23 1641.78,1201.71 1644.02,1199.17 1646.27,1196.6 1648.51,1194.01 1650.75,1191.39 1653,1188.74 1655.24,1186.07 1657.48,1183.37 1659.72,1180.64 1661.97,1177.89 1664.21,1175.11 1666.45,1172.3 1668.7,1169.46 1670.94,1166.6 1673.18,1163.7 1675.42,1160.78 1677.67,1157.82 1679.91,1154.84 1682.15,1151.83 1684.4,1148.78 1686.64,1145.71 1688.88,1142.6 1691.12,1139.47 1693.37,1136.3 1695.61,1133.1 1697.85,1129.87 1700.09,1126.6 1702.34,1123.31 1704.58,1119.98 1706.82,1116.61 1709.07,1113.21 1711.31,1109.78 1713.55,1106.32 1715.79,1102.81 1718.04,1099.28 1720.28,1095.7 1722.52,1092.1 1724.77,1088.45 1727.01,1084.77 1729.25,1081.05 1731.49,1077.3 1733.74,1073.5 1735.98,1069.67 1738.22,1065.8 1740.47,1061.89 1742.71,1057.94 1744.95,1053.95 1747.19,1049.92 1749.44,1045.85 1751.68,1041.74 1753.92,1037.59 1756.17,1033.4 1758.41,1029.16 1760.65,1024.89 1762.89,1020.57 1765.14,1016.2 1767.38,1011.79 1769.62,1007.34 1771.87,1002.84 1774.11,998.301 1776.35,993.713 1778.59,989.078 1780.84,984.397 1783.08,979.669 1785.32,974.894 1787.56,970.07 1789.81,965.198 1792.05,960.276 1794.29,955.306 1796.54,950.285 1798.78,945.214 1801.02,940.092 1803.26,934.918 1805.51,929.692 1807.75,924.414 1809.99,919.082 1812.24,913.697 1814.48,908.258 1816.72,902.764 1818.96,897.215 1821.21,891.61 1823.45,885.948 1825.69,880.23 1827.94,874.454 1830.18,868.62 1832.42,862.727 1834.66,856.775 1836.91,850.763 1839.15,844.69 1841.39,838.556 1843.64,832.361 1845.88,826.103 1848.12,819.782 1850.36,813.398 1852.61,806.95 1854.85,800.436 1857.09,793.857 1859.34,787.212 1861.58,780.5 1863.82,773.721 1866.06,1110.64 1868.31,1107.18 1870.55,1103.69 1872.79,1100.16 1875.03,1096.59 1877.28,1093 1879.52,1089.36 1881.76,1085.69 1884.01,1081.98 1886.25,1078.23 1888.49,1074.45 1890.73,1070.62 1892.98,1066.76 1895.22,1062.86 1897.46,1058.93 1899.71,1054.95 1901.95,1050.93 1904.19,1046.87 1906.43,1042.77 1908.68,1038.63 1910.92,1034.45 1913.16,1030.23 1915.41,1025.96 1917.65,1021.65 1919.89,1017.3 1922.13,1012.9 1924.38,1008.46 1926.62,1003.98 1928.86,999.445 1931.11,994.87 1933.35,990.248 1935.59,985.58 1937.83,980.864 1940.08,976.102 1942.32,971.291 1944.56,966.432 1946.81,961.524 1949.05,956.567 1951.29,951.56 1953.53,946.502 1955.78,941.393 1958.02,936.233 1960.26,931.021 1962.5,925.757 1964.75,920.439 1966.99,915.068 1969.23,909.642 1971.48,904.162 1973.72,898.627 1975.96,893.036 1978.2,887.389 1980.45,881.685 1982.69,875.923 1984.93,870.103 1987.18,864.225 1989.42,858.287 1991.66,852.29 1993.9,846.232 1996.15,840.113 1998.39,833.932 2000.63,827.689 2002.88,821.383 2005.12,815.014 2007.36,808.581 2009.6,802.083 2011.85,795.519 2014.09,788.89 2016.33,782.194 2018.58,775.43 2020.82,768.599 2023.06,761.699 2025.3,754.73 2027.55,747.69 2029.79,740.58 2032.03,733.399 2034.28,726.146 2036.52,718.819 2038.76,711.419 2041,703.945 2043.25,696.395 2045.49,688.769 2047.73,681.067 2049.97,673.287 2052.22,665.428 2054.46,657.491 2056.7,649.474 2058.95,641.377 2061.19,633.198 2063.43,624.936 2065.67,616.592 2067.92,608.164 2070.16,599.651 2072.4,591.053 2074.65,582.368 2076.89,573.596 2079.13,564.736 2081.37,555.787 2083.62,546.747 2085.86,537.617 2088.1,528.395 2090.35,519.08 2092.59,509.672 2094.83,500.169 2097.07,490.57 2099.32,480.875 2101.56,471.082 2103.8,461.191 2106.05,451.2 2108.29,441.109 2110.53,430.916 2112.77,420.62 2115.02,410.221 2117.26,399.717 2119.5,389.107 2121.75,378.39 2123.99,367.566 2126.23,356.633 2128.47,345.589 2130.72,334.434 2132.96,323.167 2135.2,311.786 2137.45,300.291 2139.69,288.68 2141.93,276.952 2144.17,265.106 2146.42,253.141 2148.66,241.056 2150.9,228.848 2153.14,216.518 2155.39,204.064 2157.63,191.484 2159.87,178.778 2162.12,165.944 2164.36,152.981 2166.6,139.888 2168.84,126.663 2171.09,113.305 2173.33,99.8132 2175.57,86.1857 2177.82,763.479 2180.06,756.529 2182.3,749.508 2184.54,742.417 2186.79,735.254 2189.03,728.02 2191.27,720.713 2193.52,713.332 2195.76,705.877 2198,1076.36 2200.24,1072.56 2202.49,1068.71 2204.73,1064.83 2206.97,1060.92 2209.22,1056.96 2211.46,1052.96 2213.7,1048.92 2215.94,1044.84 2218.19,1040.72 2220.43,1036.56 2222.67,1032.36 2224.92,1028.11 2227.16,1023.82 2229.4,1019.49 2231.64,1015.12 2233.89,1010.7 2236.13,1006.23 2238.37,1001.73 2240.61,997.172 2242.86,992.573 2245.1,987.927 2247.34,983.235 2249.59,978.496 2251.83,973.709 2254.07,968.874 2256.31,963.991 2258.56,959.058 2260.8,954.075 2263.04,949.043 2265.29,943.96 2267.53,938.826 2269.77,933.64 2272.01,928.402 2274.26,923.111 2276.5,917.767 2278.74,912.369 2280.99,906.917 2283.23,901.41 2285.47,895.847 2287.71,890.229 2289.96,884.554 2292.2,878.821 2294.44,873.031 2296.69,867.183 2298.93,861.276 2301.17,855.309 2303.41,849.282 2305.66,843.194 2307.9,837.045 2310.14,830.834 2312.39,824.561 2314.63,818.224 2316.87,811.824 2319.11,805.359 2321.36,798.829 2323.6,792.233 2325.84,785.571 2328.08,778.842 2330.33,772.045 2332.57,765.18 2334.81,758.245 2337.06,751.241 2339.3,744.167 2341.54,737.021 2343.78,729.804 2346.03,722.514 2348.27,715.151 2350.51,707.714 2352.76,1077.29 "/>
<path clip-path="url(#clip160)" d="M186.863 196.789 L500.018 196.789 L500.018 93.1086 L186.863 93.1086  Z" fill="#ffffff" fill-rule="evenodd" fill-opacity="1"/>
<polyline clip-path="url(#clip160)" style="stroke:#000000; stroke-linecap:round; stroke-linejoin:round; stroke-width:4; stroke-opacity:1; fill:none" points="186.863,196.789 500.018,196.789 500.018,93.1086 186.863,93.1086 186.863,196.789 "/>
<polyline clip-path="url(#clip160)" style="stroke:#009af9; stroke-linecap:round; stroke-linejoin:round; stroke-width:8; stroke-opacity:1; fill:none" points="211.758,144.949 361.13,144.949 "/>
<path clip-path="url(#clip160)" d="M386.026 151.997 L386.026 136.303 L390.285 136.303 L390.285 151.835 Q390.285 155.516 391.72 157.368 Q393.155 159.196 396.026 159.196 Q399.475 159.196 401.465 156.997 Q403.479 154.798 403.479 151.002 L403.479 136.303 L407.739 136.303 L407.739 162.229 L403.479 162.229 L403.479 158.247 Q401.928 160.608 399.868 161.766 Q397.831 162.9 395.123 162.9 Q390.655 162.9 388.34 160.122 Q386.026 157.344 386.026 151.997 M396.743 135.678 L396.743 135.678 Z" fill="#000000" fill-rule="nonzero" fill-opacity="1" /><path clip-path="url(#clip160)" d="M416.118 126.21 L425.933 126.21 L425.933 129.52 L420.377 129.52 L420.377 165.168 L425.933 165.168 L425.933 168.479 L416.118 168.479 L416.118 126.21 Z" fill="#000000" fill-rule="nonzero" fill-opacity="1" /><path clip-path="url(#clip160)" d="M436.419 158.293 L444.058 158.293 L444.058 131.928 L435.748 133.595 L435.748 129.335 L444.011 127.669 L448.687 127.669 L448.687 158.293 L456.326 158.293 L456.326 162.229 L436.419 162.229 L436.419 158.293 Z" fill="#000000" fill-rule="nonzero" fill-opacity="1" /><path clip-path="url(#clip160)" d="M475.122 126.21 L475.122 168.479 L465.308 168.479 L465.308 165.168 L470.84 165.168 L470.84 129.52 L465.308 129.52 L465.308 126.21 L475.122 126.21 Z" fill="#000000" fill-rule="nonzero" fill-opacity="1" /></svg>
