<?xml version="1.0" encoding="utf-8"?>
<svg xmlns="http://www.w3.org/2000/svg" xmlns:xlink="http://www.w3.org/1999/xlink" width="600" height="400" viewBox="0 0 2400 1600">
<defs>
  <clipPath id="clip030">
    <rect x="0" y="0" width="2400" height="1600"/>
  </clipPath>
</defs>
<path clip-path="url(#clip030)" d="M0 1600 L2400 1600 L2400 0 L0 0  Z" fill="#ffffff" fill-rule="evenodd" fill-opacity="1"/>
<defs>
  <clipPath id="clip031">
    <rect x="112" y="47" width="2242" height="1377"/>
  </clipPath>
</defs>
<path clip-path="url(#clip030)" d="M112.177 1423.18 L2352.76 1423.18 L2352.76 47.2441 L112.177 47.2441  Z" fill="#ffffff" fill-rule="evenodd" fill-opacity="1"/>
<polyline clip-path="url(#clip031)" style="stroke:#000000; stroke-linecap:round; stroke-linejoin:round; stroke-width:2; stroke-opacity:0.1; fill:none" points="112.177,1423.18 112.177,47.2441 "/>
<polyline clip-path="url(#clip031)" style="stroke:#000000; stroke-linecap:round; stroke-linejoin:round; stroke-width:2; stroke-opacity:0.1; fill:none" points="560.293,1423.18 560.293,47.2441 "/>
<polyline clip-path="url(#clip031)" style="stroke:#000000; stroke-linecap:round; stroke-linejoin:round; stroke-width:2; stroke-opacity:0.1; fill:none" points="1008.41,1423.18 1008.41,47.2441 "/>
<polyline clip-path="url(#clip031)" style="stroke:#000000; stroke-linecap:round; stroke-linejoin:round; stroke-width:2; stroke-opacity:0.1; fill:none" points="1456.52,1423.18 1456.52,47.2441 "/>
<polyline clip-path="url(#clip031)" style="stroke:#000000; stroke-linecap:round; stroke-linejoin:round; stroke-width:2; stroke-opacity:0.1; fill:none" points="1904.64,1423.18 1904.64,47.2441 "/>
<polyline clip-path="url(#clip031)" style="stroke:#000000; stroke-linecap:round; stroke-linejoin:round; stroke-width:2; stroke-opacity:0.1; fill:none" points="2352.76,1423.18 2352.76,47.2441 "/>
<polyline clip-path="url(#clip031)" style="stroke:#000000; stroke-linecap:round; stroke-linejoin:round; stroke-width:2; stroke-opacity:0.1; fill:none" points="112.177,1384.24 2352.76,1384.24 "/>
<polyline clip-path="url(#clip031)" style="stroke:#000000; stroke-linecap:round; stroke-linejoin:round; stroke-width:2; stroke-opacity:0.1; fill:none" points="112.177,1167.9 2352.76,1167.9 "/>
<polyline clip-path="url(#clip031)" style="stroke:#000000; stroke-linecap:round; stroke-linejoin:round; stroke-width:2; stroke-opacity:0.1; fill:none" points="112.177,951.554 2352.76,951.554 "/>
<polyline clip-path="url(#clip031)" style="stroke:#000000; stroke-linecap:round; stroke-linejoin:round; stroke-width:2; stroke-opacity:0.1; fill:none" points="112.177,735.212 2352.76,735.212 "/>
<polyline clip-path="url(#clip031)" style="stroke:#000000; stroke-linecap:round; stroke-linejoin:round; stroke-width:2; stroke-opacity:0.1; fill:none" points="112.177,518.87 2352.76,518.87 "/>
<polyline clip-path="url(#clip031)" style="stroke:#000000; stroke-linecap:round; stroke-linejoin:round; stroke-width:2; stroke-opacity:0.1; fill:none" points="112.177,302.528 2352.76,302.528 "/>
<polyline clip-path="url(#clip031)" style="stroke:#000000; stroke-linecap:round; stroke-linejoin:round; stroke-width:2; stroke-opacity:0.1; fill:none" points="112.177,86.1857 2352.76,86.1857 "/>
<polyline clip-path="url(#clip030)" style="stroke:#000000; stroke-linecap:round; stroke-linejoin:round; stroke-width:4; stroke-opacity:1; fill:none" points="112.177,1423.18 2352.76,1423.18 "/>
<polyline clip-path="url(#clip030)" style="stroke:#000000; stroke-linecap:round; stroke-linejoin:round; stroke-width:4; stroke-opacity:1; fill:none" points="112.177,1423.18 112.177,1404.28 "/>
<polyline clip-path="url(#clip030)" style="stroke:#000000; stroke-linecap:round; stroke-linejoin:round; stroke-width:4; stroke-opacity:1; fill:none" points="560.293,1423.18 560.293,1404.28 "/>
<polyline clip-path="url(#clip030)" style="stroke:#000000; stroke-linecap:round; stroke-linejoin:round; stroke-width:4; stroke-opacity:1; fill:none" points="1008.41,1423.18 1008.41,1404.28 "/>
<polyline clip-path="url(#clip030)" style="stroke:#000000; stroke-linecap:round; stroke-linejoin:round; stroke-width:4; stroke-opacity:1; fill:none" points="1456.52,1423.18 1456.52,1404.28 "/>
<polyline clip-path="url(#clip030)" style="stroke:#000000; stroke-linecap:round; stroke-linejoin:round; stroke-width:4; stroke-opacity:1; fill:none" points="1904.64,1423.18 1904.64,1404.28 "/>
<polyline clip-path="url(#clip030)" style="stroke:#000000; stroke-linecap:round; stroke-linejoin:round; stroke-width:4; stroke-opacity:1; fill:none" points="2352.76,1423.18 2352.76,1404.28 "/>
<path clip-path="url(#clip030)" d="M112.177 1454.1 Q108.566 1454.1 106.737 1457.66 Q104.932 1461.2 104.932 1468.33 Q104.932 1475.44 106.737 1479.01 Q108.566 1482.55 112.177 1482.55 Q115.811 1482.55 117.617 1479.01 Q119.446 1475.44 119.446 1468.33 Q119.446 1461.2 117.617 1457.66 Q115.811 1454.1 112.177 1454.1 M112.177 1450.39 Q117.987 1450.39 121.043 1455 Q124.122 1459.58 124.122 1468.33 Q124.122 1477.06 121.043 1481.67 Q117.987 1486.25 112.177 1486.25 Q106.367 1486.25 103.288 1481.67 Q100.233 1477.06 100.233 1468.33 Q100.233 1459.58 103.288 1455 Q106.367 1450.39 112.177 1450.39 Z" fill="#000000" fill-rule="nonzero" fill-opacity="1" /><path clip-path="url(#clip030)" d="M554.946 1481.64 L571.265 1481.64 L571.265 1485.58 L549.321 1485.58 L549.321 1481.64 Q551.983 1478.89 556.566 1474.26 Q561.173 1469.61 562.353 1468.27 Q564.598 1465.74 565.478 1464.01 Q566.381 1462.25 566.381 1460.56 Q566.381 1457.8 564.436 1456.07 Q562.515 1454.33 559.413 1454.33 Q557.214 1454.33 554.761 1455.09 Q552.33 1455.86 549.552 1457.41 L549.552 1452.69 Q552.376 1451.55 554.83 1450.97 Q557.284 1450.39 559.321 1450.39 Q564.691 1450.39 567.885 1453.08 Q571.08 1455.77 571.08 1460.26 Q571.08 1462.39 570.27 1464.31 Q569.483 1466.2 567.376 1468.8 Q566.798 1469.47 563.696 1472.69 Q560.594 1475.88 554.946 1481.64 Z" fill="#000000" fill-rule="nonzero" fill-opacity="1" /><path clip-path="url(#clip030)" d="M1011.42 1455.09 L999.612 1473.54 L1011.42 1473.54 L1011.42 1455.09 M1010.19 1451.02 L1016.07 1451.02 L1016.07 1473.54 L1021 1473.54 L1021 1477.43 L1016.07 1477.43 L1016.07 1485.58 L1011.42 1485.58 L1011.42 1477.43 L995.816 1477.43 L995.816 1472.92 L1010.19 1451.02 Z" fill="#000000" fill-rule="nonzero" fill-opacity="1" /><path clip-path="url(#clip030)" d="M1456.93 1466.44 Q1453.78 1466.44 1451.93 1468.59 Q1450.1 1470.74 1450.1 1474.49 Q1450.1 1478.22 1451.93 1480.39 Q1453.78 1482.55 1456.93 1482.55 Q1460.08 1482.55 1461.91 1480.39 Q1463.76 1478.22 1463.76 1474.49 Q1463.76 1470.74 1461.91 1468.59 Q1460.08 1466.44 1456.93 1466.44 M1466.21 1451.78 L1466.21 1456.04 Q1464.45 1455.21 1462.65 1454.77 Q1460.86 1454.33 1459.11 1454.33 Q1454.48 1454.33 1452.02 1457.45 Q1449.59 1460.58 1449.24 1466.9 Q1450.61 1464.89 1452.67 1463.82 Q1454.73 1462.73 1457.21 1462.73 Q1462.42 1462.73 1465.42 1465.9 Q1468.46 1469.05 1468.46 1474.49 Q1468.46 1479.82 1465.31 1483.03 Q1462.16 1486.25 1456.93 1486.25 Q1450.93 1486.25 1447.76 1481.67 Q1444.59 1477.06 1444.59 1468.33 Q1444.59 1460.14 1448.48 1455.28 Q1452.37 1450.39 1458.92 1450.39 Q1460.68 1450.39 1462.46 1450.74 Q1464.27 1451.09 1466.21 1451.78 Z" fill="#000000" fill-rule="nonzero" fill-opacity="1" /><path clip-path="url(#clip030)" d="M1904.64 1469.17 Q1901.31 1469.17 1899.39 1470.95 Q1897.49 1472.73 1897.49 1475.86 Q1897.49 1478.98 1899.39 1480.77 Q1901.31 1482.55 1904.64 1482.55 Q1907.97 1482.55 1909.89 1480.77 Q1911.82 1478.96 1911.82 1475.86 Q1911.82 1472.73 1909.89 1470.95 Q1908 1469.17 1904.64 1469.17 M1899.96 1467.18 Q1896.96 1466.44 1895.27 1464.38 Q1893.6 1462.32 1893.6 1459.35 Q1893.6 1455.21 1896.54 1452.8 Q1899.5 1450.39 1904.64 1450.39 Q1909.8 1450.39 1912.74 1452.8 Q1915.68 1455.21 1915.68 1459.35 Q1915.68 1462.32 1913.99 1464.38 Q1912.33 1466.44 1909.34 1467.18 Q1912.72 1467.96 1914.59 1470.26 Q1916.49 1472.55 1916.49 1475.86 Q1916.49 1480.88 1913.41 1483.57 Q1910.36 1486.25 1904.64 1486.25 Q1898.92 1486.25 1895.84 1483.57 Q1892.79 1480.88 1892.79 1475.86 Q1892.79 1472.55 1894.69 1470.26 Q1896.58 1467.96 1899.96 1467.18 M1898.25 1459.79 Q1898.25 1462.48 1899.92 1463.98 Q1901.61 1465.49 1904.64 1465.49 Q1907.65 1465.49 1909.34 1463.98 Q1911.05 1462.48 1911.05 1459.79 Q1911.05 1457.11 1909.34 1455.6 Q1907.65 1454.1 1904.64 1454.1 Q1901.61 1454.1 1899.92 1455.6 Q1898.25 1457.11 1898.25 1459.79 Z" fill="#000000" fill-rule="nonzero" fill-opacity="1" /><path clip-path="url(#clip030)" d="M2327.44 1481.64 L2335.08 1481.64 L2335.08 1455.28 L2326.77 1456.95 L2326.77 1452.69 L2335.04 1451.02 L2339.71 1451.02 L2339.71 1481.64 L2347.35 1481.64 L2347.35 1485.58 L2327.44 1485.58 L2327.44 1481.64 Z" fill="#000000" fill-rule="nonzero" fill-opacity="1" /><path clip-path="url(#clip030)" d="M2366.8 1454.1 Q2363.18 1454.1 2361.36 1457.66 Q2359.55 1461.2 2359.55 1468.33 Q2359.55 1475.44 2361.36 1479.01 Q2363.18 1482.55 2366.8 1482.55 Q2370.43 1482.55 2372.23 1479.01 Q2374.06 1475.44 2374.06 1468.33 Q2374.06 1461.2 2372.23 1457.66 Q2370.43 1454.1 2366.8 1454.1 M2366.8 1450.39 Q2372.61 1450.39 2375.66 1455 Q2378.74 1459.58 2378.74 1468.33 Q2378.74 1477.06 2375.66 1481.67 Q2372.61 1486.25 2366.8 1486.25 Q2360.99 1486.25 2357.91 1481.67 Q2354.85 1477.06 2354.85 1468.33 Q2354.85 1459.58 2357.91 1455 Q2360.99 1450.39 2366.8 1450.39 Z" fill="#000000" fill-rule="nonzero" fill-opacity="1" /><path clip-path="url(#clip030)" d="M1231.53 1522.27 L1231.53 1532.4 L1243.59 1532.4 L1243.59 1536.95 L1231.53 1536.95 L1231.53 1556.3 Q1231.53 1560.66 1232.71 1561.9 Q1233.91 1563.14 1237.58 1563.14 L1243.59 1563.14 L1243.59 1568.04 L1237.58 1568.04 Q1230.8 1568.04 1228.22 1565.53 Q1225.64 1562.98 1225.64 1556.3 L1225.64 1536.95 L1221.34 1536.95 L1221.34 1532.4 L1225.64 1532.4 L1225.64 1522.27 L1231.53 1522.27 Z" fill="#000000" fill-rule="nonzero" fill-opacity="1" /><polyline clip-path="url(#clip030)" style="stroke:#000000; stroke-linecap:round; stroke-linejoin:round; stroke-width:4; stroke-opacity:1; fill:none" points="112.177,1423.18 112.177,47.2441 "/>
<polyline clip-path="url(#clip030)" style="stroke:#000000; stroke-linecap:round; stroke-linejoin:round; stroke-width:4; stroke-opacity:1; fill:none" points="112.177,1384.24 131.075,1384.24 "/>
<polyline clip-path="url(#clip030)" style="stroke:#000000; stroke-linecap:round; stroke-linejoin:round; stroke-width:4; stroke-opacity:1; fill:none" points="112.177,1167.9 131.075,1167.9 "/>
<polyline clip-path="url(#clip030)" style="stroke:#000000; stroke-linecap:round; stroke-linejoin:round; stroke-width:4; stroke-opacity:1; fill:none" points="112.177,951.554 131.075,951.554 "/>
<polyline clip-path="url(#clip030)" style="stroke:#000000; stroke-linecap:round; stroke-linejoin:round; stroke-width:4; stroke-opacity:1; fill:none" points="112.177,735.212 131.075,735.212 "/>
<polyline clip-path="url(#clip030)" style="stroke:#000000; stroke-linecap:round; stroke-linejoin:round; stroke-width:4; stroke-opacity:1; fill:none" points="112.177,518.87 131.075,518.87 "/>
<polyline clip-path="url(#clip030)" style="stroke:#000000; stroke-linecap:round; stroke-linejoin:round; stroke-width:4; stroke-opacity:1; fill:none" points="112.177,302.528 131.075,302.528 "/>
<polyline clip-path="url(#clip030)" style="stroke:#000000; stroke-linecap:round; stroke-linejoin:round; stroke-width:4; stroke-opacity:1; fill:none" points="112.177,86.1857 131.075,86.1857 "/>
<path clip-path="url(#clip030)" d="M64.2328 1370.04 Q60.6217 1370.04 58.793 1373.6 Q56.9875 1377.14 56.9875 1384.27 Q56.9875 1391.38 58.793 1394.94 Q60.6217 1398.49 64.2328 1398.49 Q67.867 1398.49 69.6726 1394.94 Q71.5013 1391.38 71.5013 1384.27 Q71.5013 1377.14 69.6726 1373.6 Q67.867 1370.04 64.2328 1370.04 M64.2328 1366.33 Q70.0429 1366.33 73.0985 1370.94 Q76.1772 1375.52 76.1772 1384.27 Q76.1772 1393 73.0985 1397.61 Q70.0429 1402.19 64.2328 1402.19 Q58.4226 1402.19 55.344 1397.61 Q52.2884 1393 52.2884 1384.27 Q52.2884 1375.52 55.344 1370.94 Q58.4226 1366.33 64.2328 1366.33 Z" fill="#000000" fill-rule="nonzero" fill-opacity="1" /><path clip-path="url(#clip030)" d="M56.2699 1181.24 L63.9087 1181.24 L63.9087 1154.88 L55.5986 1156.54 L55.5986 1152.28 L63.8624 1150.62 L68.5383 1150.62 L68.5383 1181.24 L76.1772 1181.24 L76.1772 1185.18 L56.2699 1185.18 L56.2699 1181.24 Z" fill="#000000" fill-rule="nonzero" fill-opacity="1" /><path clip-path="url(#clip030)" d="M59.8578 964.899 L76.1772 964.899 L76.1772 968.834 L54.2328 968.834 L54.2328 964.899 Q56.8949 962.144 61.4782 957.515 Q66.0846 952.862 67.2652 951.519 Q69.5105 948.996 70.3902 947.26 Q71.2929 945.501 71.2929 943.811 Q71.2929 941.056 69.3485 939.32 Q67.4272 937.584 64.3254 937.584 Q62.1263 937.584 59.6726 938.348 Q57.2421 939.112 54.4643 940.663 L54.4643 935.941 Q57.2884 934.806 59.7421 934.228 Q62.1958 933.649 64.2328 933.649 Q69.6031 933.649 72.7976 936.334 Q75.992 939.019 75.992 943.51 Q75.992 945.64 75.1818 947.561 Q74.3948 949.459 72.2883 952.052 Q71.7096 952.723 68.6078 955.941 Q65.5059 959.135 59.8578 964.899 Z" fill="#000000" fill-rule="nonzero" fill-opacity="1" /><path clip-path="url(#clip030)" d="M69.0476 733.858 Q72.404 734.575 74.279 736.844 Q76.1772 739.112 76.1772 742.446 Q76.1772 747.561 72.6587 750.362 Q69.1402 753.163 62.6587 753.163 Q60.4828 753.163 58.168 752.723 Q55.8764 752.307 53.4227 751.45 L53.4227 746.936 Q55.3671 748.071 57.6819 748.649 Q59.9967 749.228 62.5198 749.228 Q66.918 749.228 69.2096 747.492 Q71.5244 745.756 71.5244 742.446 Q71.5244 739.39 69.3717 737.677 Q67.242 735.941 63.4226 735.941 L59.3949 735.941 L59.3949 732.099 L63.6078 732.099 Q67.0569 732.099 68.8855 730.733 Q70.7142 729.344 70.7142 726.751 Q70.7142 724.089 68.8161 722.677 Q66.9411 721.242 63.4226 721.242 Q61.5013 721.242 59.3023 721.659 Q57.1032 722.075 54.4643 722.955 L54.4643 718.788 Q57.1264 718.048 59.4412 717.677 Q61.7791 717.307 63.8393 717.307 Q69.1633 717.307 72.2652 719.738 Q75.367 722.145 75.367 726.265 Q75.367 729.136 73.7235 731.126 Q72.08 733.094 69.0476 733.858 Z" fill="#000000" fill-rule="nonzero" fill-opacity="1" /><path clip-path="url(#clip030)" d="M66.5939 505.664 L54.7884 524.113 L66.5939 524.113 L66.5939 505.664 M65.367 501.59 L71.2466 501.59 L71.2466 524.113 L76.1772 524.113 L76.1772 528.002 L71.2466 528.002 L71.2466 536.15 L66.5939 536.15 L66.5939 528.002 L50.9921 528.002 L50.9921 523.488 L65.367 501.59 Z" fill="#000000" fill-rule="nonzero" fill-opacity="1" /><path clip-path="url(#clip030)" d="M55.2745 285.248 L73.6309 285.248 L73.6309 289.183 L59.5569 289.183 L59.5569 297.655 Q60.5754 297.308 61.5939 297.146 Q62.6124 296.961 63.6309 296.961 Q69.418 296.961 72.7976 300.132 Q76.1772 303.303 76.1772 308.72 Q76.1772 314.299 72.705 317.4 Q69.2328 320.479 62.9134 320.479 Q60.7374 320.479 58.4689 320.109 Q56.2236 319.738 53.8162 318.998 L53.8162 314.299 Q55.8995 315.433 58.1217 315.988 Q60.3439 316.544 62.8208 316.544 Q66.8254 316.544 69.1633 314.437 Q71.5013 312.331 71.5013 308.72 Q71.5013 305.109 69.1633 303.002 Q66.8254 300.896 62.8208 300.896 Q60.9458 300.896 59.0708 301.312 Q57.2189 301.729 55.2745 302.609 L55.2745 285.248 Z" fill="#000000" fill-rule="nonzero" fill-opacity="1" /><path clip-path="url(#clip030)" d="M64.6495 84.3223 Q61.5013 84.3223 59.6495 86.475 Q57.8208 88.6278 57.8208 92.3778 Q57.8208 96.1046 59.6495 98.2805 Q61.5013 100.433 64.6495 100.433 Q67.7976 100.433 69.6263 98.2805 Q71.4781 96.1046 71.4781 92.3778 Q71.4781 88.6278 69.6263 86.475 Q67.7976 84.3223 64.6495 84.3223 M73.9318 69.6696 L73.9318 73.9288 Q72.1726 73.0955 70.367 72.6557 Q68.5846 72.2158 66.8254 72.2158 Q62.1958 72.2158 59.7421 75.3408 Q57.3115 78.4658 56.9643 84.7852 Q58.33 82.7713 60.3902 81.7065 Q62.4504 80.6186 64.9272 80.6186 Q70.1355 80.6186 73.1448 83.7899 Q76.1772 86.938 76.1772 92.3778 Q76.1772 97.7018 73.029 100.919 Q69.8809 104.137 64.6495 104.137 Q58.6541 104.137 55.4828 99.5537 Q52.3116 94.9472 52.3116 86.2204 Q52.3116 78.026 56.2004 73.1649 Q60.0893 68.2807 66.6402 68.2807 Q68.3994 68.2807 70.1818 68.6279 Q71.9874 68.9751 73.9318 69.6696 Z" fill="#000000" fill-rule="nonzero" fill-opacity="1" /><polyline clip-path="url(#clip031)" style="stroke:#009af9; stroke-linecap:round; stroke-linejoin:round; stroke-width:8; stroke-opacity:1; fill:none" points="112.177,1384.24 114.42,1384.24 116.663,1384.24 118.906,1384.24 121.148,1384.24 123.391,1384.24 125.634,1384.24 127.877,1384.24 130.12,1384.24 132.363,1384.24 134.605,1384.24 136.848,1384.24 139.091,1384.24 141.334,1384.24 143.577,1384.24 145.819,1384.24 148.062,1384.24 150.305,1384.24 152.548,1384.24 154.791,1384.24 157.034,1384.24 159.276,1384.24 161.519,1384.24 163.762,1384.24 166.005,1384.24 168.248,1384.24 170.491,1384.24 172.733,1384.24 174.976,1384.24 177.219,1384.24 179.462,1384.24 181.705,1384.24 183.947,1384.24 186.19,1384.24 188.433,1384.24 190.676,1384.24 192.919,1384.24 195.162,1384.24 197.404,1384.24 199.647,1384.24 201.89,1384.24 204.133,1384.24 206.376,1384.24 208.619,1384.24 210.861,1384.24 213.104,1384.24 215.347,1384.24 217.59,1384.24 219.833,1384.24 222.075,1384.24 224.318,1384.24 226.561,1384.24 228.804,1384.24 231.047,1384.24 233.29,1384.24 235.532,1384.24 237.775,1384.24 240.018,1384.24 242.261,1384.24 244.504,1384.24 246.746,1384.24 248.989,1384.24 251.232,1384.24 253.475,1384.24 255.718,1384.24 257.961,1384.24 260.203,1384.24 262.446,1384.24 264.689,1384.24 266.932,1384.24 269.175,1384.24 271.418,1384.24 273.66,1384.24 275.903,1384.24 278.146,1384.24 280.389,1384.24 282.632,1384.24 284.874,1384.24 287.117,1384.24 289.36,1384.24 291.603,1384.24 293.846,1384.24 296.089,1384.24 298.331,1384.24 300.574,1384.24 302.817,1384.24 305.06,1384.24 307.303,1384.24 309.545,1384.24 311.788,1384.24 314.031,1384.24 316.274,1384.24 318.517,1384.24 320.76,1384.24 323.002,1384.24 325.245,1384.24 327.488,1384.24 329.731,1384.24 331.974,1384.24 334.217,1384.24 336.459,1384.24 338.702,1384.24 340.945,1384.24 343.188,1384.24 345.431,1384.24 347.673,1384.24 349.916,1384.24 352.159,1384.24 354.402,1384.24 356.645,1384.24 358.888,1384.24 361.13,1384.24 363.373,1384.24 365.616,1384.24 367.859,1384.24 370.102,1384.24 372.344,1384.24 374.587,1384.24 376.83,1384.24 379.073,1384.24 381.316,1384.24 383.559,1384.24 385.801,1384.24 388.044,1384.24 390.287,1384.24 392.53,1384.24 394.773,1384.24 397.016,1384.24 399.258,1384.24 401.501,1384.24 403.744,1384.24 405.987,1384.24 408.23,1384.24 410.472,1384.24 412.715,1384.24 414.958,1384.24 417.201,1384.24 419.444,1384.24 421.687,1384.24 423.929,1384.24 426.172,1384.24 428.415,1384.24 430.658,1384.24 432.901,1384.24 435.143,1384.24 437.386,1384.24 439.629,1384.24 441.872,1384.24 444.115,1384.24 446.358,1384.24 448.6,1384.24 450.843,1384.24 453.086,1384.24 455.329,1384.24 457.572,1384.24 459.815,1384.24 462.057,1384.24 464.3,1384.24 466.543,1384.24 468.786,1384.24 471.029,1384.24 473.271,1384.24 475.514,1384.24 477.757,1384.24 480,1384.24 482.243,1384.24 484.486,1384.24 486.728,1384.24 488.971,1384.24 491.214,1384.24 493.457,1384.24 495.7,1384.24 497.942,1384.24 500.185,1384.24 502.428,1384.24 504.671,1384.24 506.914,1384.24 509.157,1384.24 511.399,1384.24 513.642,1384.24 515.885,1384.24 518.128,1384.24 520.371,1384.24 522.614,1384.24 524.856,1384.24 527.099,1384.24 529.342,1384.24 531.585,1384.24 533.828,1384.24 536.07,1384.24 538.313,1384.24 540.556,1384.24 542.799,1384.24 545.042,1384.24 547.285,1384.24 549.527,1384.24 551.77,1384.24 554.013,1384.24 556.256,1384.24 558.499,1384.24 560.741,1384.24 562.984,1384.24 565.227,1384.24 567.47,1384.24 569.713,1384.24 571.956,1384.24 574.198,1384.24 576.441,1384.24 578.684,1384.24 580.927,1384.24 583.17,1384.24 585.413,1384.24 587.655,1384.24 589.898,1384.24 592.141,1384.24 594.384,1384.24 596.627,1167.9 598.869,1167.9 601.112,1167.9 603.355,1167.9 605.598,1167.9 607.841,1167.9 610.084,1167.9 612.326,1167.9 614.569,1167.9 616.812,1167.9 619.055,1167.9 621.298,1167.9 623.54,1167.9 625.783,1167.9 628.026,1167.9 630.269,1167.9 632.512,1167.9 634.755,1167.9 636.997,1167.9 639.24,1167.9 641.483,1167.9 643.726,1167.9 645.969,1167.9 648.212,1167.9 650.454,1167.9 652.697,1167.9 654.94,1167.9 657.183,1167.9 659.426,1167.9 661.668,1167.9 663.911,1167.9 666.154,1167.9 668.397,1167.9 670.64,1167.9 672.883,1167.9 675.125,1167.9 677.368,1167.9 679.611,1167.9 681.854,1167.9 684.097,1167.9 686.339,1167.9 688.582,1167.9 690.825,1167.9 693.068,1167.9 695.311,1167.9 697.554,1167.9 699.796,1167.9 702.039,1167.9 704.282,1167.9 706.525,1167.9 708.768,1167.9 711.011,1167.9 713.253,1167.9 715.496,1167.9 717.739,1167.9 719.982,1167.9 722.225,1167.9 724.467,1167.9 726.71,1167.9 728.953,1167.9 731.196,1167.9 733.439,1167.9 735.682,1167.9 737.924,1167.9 740.167,1167.9 742.41,1167.9 744.653,1167.9 746.896,1167.9 749.138,1167.9 751.381,1167.9 753.624,1167.9 755.867,1167.9 758.11,1167.9 760.353,1167.9 762.595,1167.9 764.838,1167.9 767.081,1167.9 769.324,1167.9 771.567,1167.9 773.81,1167.9 776.052,1167.9 778.295,1167.9 780.538,1167.9 782.781,1167.9 785.024,1167.9 787.266,1167.9 789.509,1167.9 791.752,1167.9 793.995,1167.9 796.238,1167.9 798.481,1167.9 800.723,1167.9 802.966,1167.9 805.209,1167.9 807.452,1167.9 809.695,1167.9 811.938,1167.9 814.18,1167.9 816.423,1167.9 818.666,1167.9 820.909,1167.9 823.152,1167.9 825.394,1167.9 827.637,1167.9 829.88,1167.9 832.123,1167.9 834.366,1167.9 836.609,1167.9 838.851,951.554 841.094,951.554 843.337,951.554 845.58,951.554 847.823,951.554 850.065,951.554 852.308,951.554 854.551,951.554 856.794,951.554 859.037,951.554 861.28,951.554 863.522,951.554 865.765,951.554 868.008,951.554 870.251,951.554 872.494,951.554 874.737,951.554 876.979,951.554 879.222,951.554 881.465,951.554 883.708,951.554 885.951,951.554 888.193,951.554 890.436,951.554 892.679,951.554 894.922,951.554 897.165,951.554 899.408,951.554 901.65,951.554 903.893,951.554 906.136,951.554 908.379,951.554 910.622,951.554 912.864,951.554 915.107,951.554 917.35,951.554 919.593,951.554 921.836,951.554 924.079,951.554 926.321,951.554 928.564,951.554 930.807,951.554 933.05,951.554 935.293,951.554 937.536,951.554 939.778,951.554 942.021,951.554 944.264,951.554 946.507,951.554 948.75,951.554 950.992,951.554 953.235,951.554 955.478,951.554 957.721,951.554 959.964,951.554 962.207,951.554 964.449,951.554 966.692,951.554 968.935,951.554 971.178,951.554 973.421,951.554 975.663,951.554 977.906,951.554 980.149,951.554 982.392,951.554 984.635,951.554 986.878,951.554 989.12,735.212 991.363,735.212 993.606,735.212 995.849,735.212 998.092,735.212 1000.33,735.212 1002.58,735.212 1004.82,735.212 1007.06,735.212 1009.31,735.212 1011.55,735.212 1013.79,735.212 1016.03,735.212 1018.28,735.212 1020.52,735.212 1022.76,735.212 1025.01,735.212 1027.25,735.212 1029.49,735.212 1031.73,735.212 1033.98,735.212 1036.22,735.212 1038.46,735.212 1040.71,735.212 1042.95,735.212 1045.19,735.212 1047.43,735.212 1049.68,735.212 1051.92,735.212 1054.16,735.212 1056.41,735.212 1058.65,735.212 1060.89,735.212 1063.13,735.212 1065.38,735.212 1067.62,735.212 1069.86,735.212 1072.1,735.212 1074.35,735.212 1076.59,735.212 1078.83,735.212 1081.08,735.212 1083.32,735.212 1085.56,735.212 1087.8,735.212 1090.05,735.212 1092.29,735.212 1094.53,735.212 1096.78,735.212 1099.02,735.212 1101.26,735.212 1103.5,735.212 1105.75,735.212 1107.99,735.212 1110.23,735.212 1112.48,735.212 1114.72,735.212 1116.96,735.212 1119.2,735.212 1121.45,735.212 1123.69,735.212 1125.93,735.212 1128.18,735.212 1130.42,735.212 1132.66,735.212 1134.9,735.212 1137.15,735.212 1139.39,735.212 1141.63,735.212 1143.88,735.212 1146.12,735.212 1148.36,735.212 1150.6,735.212 1152.85,735.212 1155.09,735.212 1157.33,735.212 1159.57,735.212 1161.82,735.212 1164.06,735.212 1166.3,735.212 1168.55,735.212 1170.79,735.212 1173.03,735.212 1175.27,735.212 1177.52,735.212 1179.76,735.212 1182,735.212 1184.25,735.212 1186.49,735.212 1188.73,735.212 1190.97,735.212 1193.22,735.212 1195.46,735.212 1197.7,735.212 1199.95,735.212 1202.19,735.212 1204.43,735.212 1206.67,735.212 1208.92,735.212 1211.16,735.212 1213.4,735.212 1215.65,735.212 1217.89,735.212 1220.13,735.212 1222.37,735.212 1224.62,735.212 1226.86,735.212 1229.1,735.212 1231.35,735.212 1233.59,518.87 1235.83,518.87 1238.07,518.87 1240.32,518.87 1242.56,518.87 1244.8,518.87 1247.04,518.87 1249.29,518.87 1251.53,518.87 1253.77,518.87 1256.02,518.87 1258.26,302.528 1260.5,302.528 1262.74,302.528 1264.99,302.528 1267.23,302.528 1269.47,302.528 1271.72,302.528 1273.96,302.528 1276.2,302.528 1278.44,302.528 1280.69,302.528 1282.93,302.528 1285.17,302.528 1287.42,302.528 1289.66,302.528 1291.9,302.528 1294.14,302.528 1296.39,302.528 1298.63,302.528 1300.87,302.528 1303.12,302.528 1305.36,302.528 1307.6,302.528 1309.84,302.528 1312.09,302.528 1314.33,302.528 1316.57,302.528 1318.82,302.528 1321.06,302.528 1323.3,302.528 1325.54,302.528 1327.79,302.528 1330.03,302.528 1332.27,302.528 1334.51,302.528 1336.76,302.528 1339,302.528 1341.24,302.528 1343.49,302.528 1345.73,302.528 1347.97,302.528 1350.21,302.528 1352.46,302.528 1354.7,302.528 1356.94,302.528 1359.19,302.528 1361.43,302.528 1363.67,302.528 1365.91,302.528 1368.16,302.528 1370.4,302.528 1372.64,302.528 1374.89,302.528 1377.13,302.528 1379.37,302.528 1381.61,302.528 1383.86,302.528 1386.1,302.528 1388.34,302.528 1390.59,302.528 1392.83,302.528 1395.07,302.528 1397.31,302.528 1399.56,302.528 1401.8,302.528 1404.04,302.528 1406.29,302.528 1408.53,302.528 1410.77,302.528 1413.01,302.528 1415.26,302.528 1417.5,302.528 1419.74,302.528 1421.98,302.528 1424.23,302.528 1426.47,302.528 1428.71,302.528 1430.96,302.528 1433.2,302.528 1435.44,302.528 1437.68,302.528 1439.93,302.528 1442.17,302.528 1444.41,302.528 1446.66,302.528 1448.9,302.528 1451.14,302.528 1453.38,302.528 1455.63,302.528 1457.87,302.528 1460.11,302.528 1462.36,302.528 1464.6,302.528 1466.84,302.528 1469.08,302.528 1471.33,302.528 1473.57,302.528 1475.81,302.528 1478.06,302.528 1480.3,302.528 1482.54,302.528 1484.78,302.528 1487.03,302.528 1489.27,302.528 1491.51,302.528 1493.76,302.528 1496,302.528 1498.24,302.528 1500.48,302.528 1502.73,302.528 1504.97,302.528 1507.21,302.528 1509.46,302.528 1511.7,302.528 1513.94,302.528 1516.18,302.528 1518.43,302.528 1520.67,302.528 1522.91,302.528 1525.15,302.528 1527.4,302.528 1529.64,302.528 1531.88,302.528 1534.13,302.528 1536.37,302.528 1538.61,302.528 1540.85,302.528 1543.1,302.528 1545.34,302.528 1547.58,302.528 1549.83,302.528 1552.07,302.528 1554.31,302.528 1556.55,302.528 1558.8,302.528 1561.04,302.528 1563.28,302.528 1565.53,302.528 1567.77,302.528 1570.01,302.528 1572.25,302.528 1574.5,302.528 1576.74,302.528 1578.98,302.528 1581.23,302.528 1583.47,302.528 1585.71,302.528 1587.95,302.528 1590.2,302.528 1592.44,302.528 1594.68,302.528 1596.93,302.528 1599.17,302.528 1601.41,302.528 1603.65,302.528 1605.9,302.528 1608.14,302.528 1610.38,302.528 1612.62,302.528 1614.87,302.528 1617.11,302.528 1619.35,302.528 1621.6,302.528 1623.84,302.528 1626.08,302.528 1628.32,302.528 1630.57,302.528 1632.81,302.528 1635.05,302.528 1637.3,302.528 1639.54,302.528 1641.78,302.528 1644.02,302.528 1646.27,302.528 1648.51,302.528 1650.75,302.528 1653,302.528 1655.24,302.528 1657.48,302.528 1659.72,302.528 1661.97,302.528 1664.21,302.528 1666.45,302.528 1668.7,302.528 1670.94,302.528 1673.18,302.528 1675.42,302.528 1677.67,302.528 1679.91,302.528 1682.15,302.528 1684.4,302.528 1686.64,302.528 1688.88,302.528 1691.12,302.528 1693.37,302.528 1695.61,302.528 1697.85,302.528 1700.09,302.528 1702.34,302.528 1704.58,302.528 1706.82,302.528 1709.07,302.528 1711.31,302.528 1713.55,302.528 1715.79,302.528 1718.04,302.528 1720.28,302.528 1722.52,302.528 1724.77,302.528 1727.01,302.528 1729.25,302.528 1731.49,302.528 1733.74,302.528 1735.98,302.528 1738.22,302.528 1740.47,302.528 1742.71,302.528 1744.95,302.528 1747.19,302.528 1749.44,302.528 1751.68,302.528 1753.92,302.528 1756.17,302.528 1758.41,302.528 1760.65,302.528 1762.89,302.528 1765.14,302.528 1767.38,302.528 1769.62,302.528 1771.87,302.528 1774.11,302.528 1776.35,302.528 1778.59,302.528 1780.84,302.528 1783.08,302.528 1785.32,302.528 1787.56,302.528 1789.81,302.528 1792.05,302.528 1794.29,302.528 1796.54,302.528 1798.78,302.528 1801.02,302.528 1803.26,302.528 1805.51,302.528 1807.75,302.528 1809.99,302.528 1812.24,302.528 1814.48,302.528 1816.72,302.528 1818.96,302.528 1821.21,302.528 1823.45,302.528 1825.69,302.528 1827.94,302.528 1830.18,302.528 1832.42,302.528 1834.66,302.528 1836.91,302.528 1839.15,302.528 1841.39,302.528 1843.64,302.528 1845.88,302.528 1848.12,302.528 1850.36,302.528 1852.61,302.528 1854.85,302.528 1857.09,302.528 1859.34,302.528 1861.58,302.528 1863.82,302.528 1866.06,302.528 1868.31,302.528 1870.55,302.528 1872.79,302.528 1875.03,302.528 1877.28,302.528 1879.52,302.528 1881.76,302.528 1884.01,302.528 1886.25,302.528 1888.49,302.528 1890.73,302.528 1892.98,302.528 1895.22,302.528 1897.46,302.528 1899.71,302.528 1901.95,302.528 1904.19,302.528 1906.43,302.528 1908.68,302.528 1910.92,302.528 1913.16,302.528 1915.41,302.528 1917.65,302.528 1919.89,302.528 1922.13,302.528 1924.38,302.528 1926.62,86.1857 1928.86,86.1857 1931.11,86.1857 1933.35,86.1857 1935.59,86.1857 1937.83,86.1857 1940.08,86.1857 1942.32,86.1857 1944.56,86.1857 1946.81,86.1857 1949.05,86.1857 1951.29,86.1857 1953.53,86.1857 1955.78,86.1857 1958.02,86.1857 1960.26,86.1857 1962.5,86.1857 1964.75,86.1857 1966.99,86.1857 1969.23,86.1857 1971.48,86.1857 1973.72,86.1857 1975.96,86.1857 1978.2,86.1857 1980.45,86.1857 1982.69,86.1857 1984.93,86.1857 1987.18,86.1857 1989.42,86.1857 1991.66,86.1857 1993.9,86.1857 1996.15,86.1857 1998.39,86.1857 2000.63,86.1857 2002.88,86.1857 2005.12,86.1857 2007.36,86.1857 2009.6,86.1857 2011.85,86.1857 2014.09,86.1857 2016.33,86.1857 2018.58,86.1857 2020.82,86.1857 2023.06,86.1857 2025.3,86.1857 2027.55,86.1857 2029.79,86.1857 2032.03,86.1857 2034.28,86.1857 2036.52,86.1857 2038.76,86.1857 2041,86.1857 2043.25,86.1857 2045.49,86.1857 2047.73,86.1857 2049.97,86.1857 2052.22,86.1857 2054.46,86.1857 2056.7,86.1857 2058.95,86.1857 2061.19,86.1857 2063.43,86.1857 2065.67,86.1857 2067.92,86.1857 2070.16,86.1857 2072.4,86.1857 2074.65,86.1857 2076.89,86.1857 2079.13,86.1857 2081.37,86.1857 2083.62,86.1857 2085.86,86.1857 2088.1,86.1857 2090.35,86.1857 2092.59,86.1857 2094.83,86.1857 2097.07,86.1857 2099.32,86.1857 2101.56,86.1857 2103.8,86.1857 2106.05,86.1857 2108.29,86.1857 2110.53,86.1857 2112.77,86.1857 2115.02,86.1857 2117.26,86.1857 2119.5,86.1857 2121.75,86.1857 2123.99,86.1857 2126.23,86.1857 2128.47,86.1857 2130.72,86.1857 2132.96,86.1857 2135.2,86.1857 2137.45,86.1857 2139.69,86.1857 2141.93,86.1857 2144.17,86.1857 2146.42,86.1857 2148.66,86.1857 2150.9,86.1857 2153.14,86.1857 2155.39,86.1857 2157.63,86.1857 2159.87,86.1857 2162.12,86.1857 2164.36,86.1857 2166.6,86.1857 2168.84,86.1857 2171.09,86.1857 2173.33,86.1857 2175.57,86.1857 2177.82,86.1857 2180.06,86.1857 2182.3,86.1857 2184.54,86.1857 2186.79,86.1857 2189.03,86.1857 2191.27,86.1857 2193.52,86.1857 2195.76,86.1857 2198,86.1857 2200.24,86.1857 2202.49,86.1857 2204.73,86.1857 2206.97,86.1857 2209.22,86.1857 2211.46,86.1857 2213.7,86.1857 2215.94,86.1857 2218.19,86.1857 2220.43,86.1857 2222.67,86.1857 2224.92,86.1857 2227.16,86.1857 2229.4,86.1857 2231.64,86.1857 2233.89,86.1857 2236.13,86.1857 2238.37,86.1857 2240.61,86.1857 2242.86,86.1857 2245.1,86.1857 2247.34,86.1857 2249.59,86.1857 2251.83,86.1857 2254.07,86.1857 2256.31,86.1857 2258.56,86.1857 2260.8,86.1857 2263.04,86.1857 2265.29,86.1857 2267.53,86.1857 2269.77,86.1857 2272.01,86.1857 2274.26,86.1857 2276.5,86.1857 2278.74,86.1857 2280.99,86.1857 2283.23,86.1857 2285.47,86.1857 2287.71,86.1857 2289.96,86.1857 2292.2,86.1857 2294.44,86.1857 2296.69,86.1857 2298.93,86.1857 2301.17,86.1857 2303.41,86.1857 2305.66,86.1857 2307.9,86.1857 2310.14,86.1857 2312.39,86.1857 2314.63,86.1857 2316.87,86.1857 2319.11,86.1857 2321.36,86.1857 2323.6,86.1857 2325.84,86.1857 2328.08,86.1857 2330.33,86.1857 2332.57,86.1857 2334.81,86.1857 2337.06,86.1857 2339.3,86.1857 2341.54,86.1857 2343.78,86.1857 2346.03,86.1857 2348.27,86.1857 2350.51,86.1857 2352.76,86.1857 "/>
<path clip-path="url(#clip030)" d="M186.863 196.789 L500.018 196.789 L500.018 93.1086 L186.863 93.1086  Z" fill="#ffffff" fill-rule="evenodd" fill-opacity="1"/>
<polyline clip-path="url(#clip030)" style="stroke:#000000; stroke-linecap:round; stroke-linejoin:round; stroke-width:4; stroke-opacity:1; fill:none" points="186.863,196.789 500.018,196.789 500.018,93.1086 186.863,93.1086 186.863,196.789 "/>
<polyline clip-path="url(#clip030)" style="stroke:#009af9; stroke-linecap:round; stroke-linejoin:round; stroke-width:8; stroke-opacity:1; fill:none" points="211.758,144.949 361.13,144.949 "/>
<path clip-path="url(#clip030)" d="M386.026 151.997 L386.026 136.303 L390.285 136.303 L390.285 151.835 Q390.285 155.516 391.72 157.368 Q393.155 159.196 396.026 159.196 Q399.475 159.196 401.465 156.997 Q403.479 154.798 403.479 151.002 L403.479 136.303 L407.739 136.303 L407.739 162.229 L403.479 162.229 L403.479 158.247 Q401.928 160.608 399.868 161.766 Q397.831 162.9 395.123 162.9 Q390.655 162.9 388.34 160.122 Q386.026 157.344 386.026 151.997 M396.743 135.678 L396.743 135.678 Z" fill="#000000" fill-rule="nonzero" fill-opacity="1" /><path clip-path="url(#clip030)" d="M416.118 126.21 L425.933 126.21 L425.933 129.52 L420.377 129.52 L420.377 165.168 L425.933 165.168 L425.933 168.479 L416.118 168.479 L416.118 126.21 Z" fill="#000000" fill-rule="nonzero" fill-opacity="1" /><path clip-path="url(#clip030)" d="M436.419 158.293 L444.058 158.293 L444.058 131.928 L435.748 133.595 L435.748 129.335 L444.011 127.669 L448.687 127.669 L448.687 158.293 L456.326 158.293 L456.326 162.229 L436.419 162.229 L436.419 158.293 Z" fill="#000000" fill-rule="nonzero" fill-opacity="1" /><path clip-path="url(#clip030)" d="M475.122 126.21 L475.122 168.479 L465.308 168.479 L465.308 165.168 L470.84 165.168 L470.84 129.52 L465.308 129.52 L465.308 126.21 L475.122 126.21 Z" fill="#000000" fill-rule="nonzero" fill-opacity="1" /></svg>
