<?xml version="1.0" encoding="utf-8"?>
<svg xmlns="http://www.w3.org/2000/svg" xmlns:xlink="http://www.w3.org/1999/xlink" width="600" height="400" viewBox="0 0 2400 1600">
<defs>
  <clipPath id="clip000">
    <rect x="0" y="0" width="2400" height="1600"/>
  </clipPath>
</defs>
<path clip-path="url(#clip000)" d="M0 1600 L2400 1600 L2400 0 L0 0  Z" fill="#ffffff" fill-rule="evenodd" fill-opacity="1"/>
<defs>
  <clipPath id="clip001">
    <rect x="480" y="0" width="1681" height="1600"/>
  </clipPath>
</defs>
<path clip-path="url(#clip000)" d="M112.177 1423.18 L2352.76 1423.18 L2352.76 47.2441 L112.177 47.2441  Z" fill="#ffffff" fill-rule="evenodd" fill-opacity="1"/>
<defs>
  <clipPath id="clip002">
    <rect x="112" y="47" width="2242" height="1377"/>
  </clipPath>
</defs>
<polyline clip-path="url(#clip002)" style="stroke:#000000; stroke-linecap:round; stroke-linejoin:round; stroke-width:2; stroke-opacity:0.1; fill:none" points="112.177,1423.18 112.177,47.2441 "/>
<polyline clip-path="url(#clip002)" style="stroke:#000000; stroke-linecap:round; stroke-linejoin:round; stroke-width:2; stroke-opacity:0.1; fill:none" points="560.293,1423.18 560.293,47.2441 "/>
<polyline clip-path="url(#clip002)" style="stroke:#000000; stroke-linecap:round; stroke-linejoin:round; stroke-width:2; stroke-opacity:0.1; fill:none" points="1008.41,1423.18 1008.41,47.2441 "/>
<polyline clip-path="url(#clip002)" style="stroke:#000000; stroke-linecap:round; stroke-linejoin:round; stroke-width:2; stroke-opacity:0.1; fill:none" points="1456.52,1423.18 1456.52,47.2441 "/>
<polyline clip-path="url(#clip002)" style="stroke:#000000; stroke-linecap:round; stroke-linejoin:round; stroke-width:2; stroke-opacity:0.1; fill:none" points="1904.64,1423.18 1904.64,47.2441 "/>
<polyline clip-path="url(#clip002)" style="stroke:#000000; stroke-linecap:round; stroke-linejoin:round; stroke-width:2; stroke-opacity:0.1; fill:none" points="2352.76,1423.18 2352.76,47.2441 "/>
<polyline clip-path="url(#clip002)" style="stroke:#000000; stroke-linecap:round; stroke-linejoin:round; stroke-width:2; stroke-opacity:0.1; fill:none" points="112.177,1172.23 2352.76,1172.23 "/>
<polyline clip-path="url(#clip002)" style="stroke:#000000; stroke-linecap:round; stroke-linejoin:round; stroke-width:2; stroke-opacity:0.1; fill:none" points="112.177,907.213 2352.76,907.213 "/>
<polyline clip-path="url(#clip002)" style="stroke:#000000; stroke-linecap:round; stroke-linejoin:round; stroke-width:2; stroke-opacity:0.1; fill:none" points="112.177,642.199 2352.76,642.199 "/>
<polyline clip-path="url(#clip002)" style="stroke:#000000; stroke-linecap:round; stroke-linejoin:round; stroke-width:2; stroke-opacity:0.1; fill:none" points="112.177,377.185 2352.76,377.185 "/>
<polyline clip-path="url(#clip002)" style="stroke:#000000; stroke-linecap:round; stroke-linejoin:round; stroke-width:2; stroke-opacity:0.1; fill:none" points="112.177,112.171 2352.76,112.171 "/>
<polyline clip-path="url(#clip000)" style="stroke:#000000; stroke-linecap:round; stroke-linejoin:round; stroke-width:4; stroke-opacity:1; fill:none" points="112.177,1423.18 2352.76,1423.18 "/>
<polyline clip-path="url(#clip000)" style="stroke:#000000; stroke-linecap:round; stroke-linejoin:round; stroke-width:4; stroke-opacity:1; fill:none" points="112.177,1423.18 112.177,1404.28 "/>
<polyline clip-path="url(#clip000)" style="stroke:#000000; stroke-linecap:round; stroke-linejoin:round; stroke-width:4; stroke-opacity:1; fill:none" points="560.293,1423.18 560.293,1404.28 "/>
<polyline clip-path="url(#clip000)" style="stroke:#000000; stroke-linecap:round; stroke-linejoin:round; stroke-width:4; stroke-opacity:1; fill:none" points="1008.41,1423.18 1008.41,1404.28 "/>
<polyline clip-path="url(#clip000)" style="stroke:#000000; stroke-linecap:round; stroke-linejoin:round; stroke-width:4; stroke-opacity:1; fill:none" points="1456.52,1423.18 1456.52,1404.28 "/>
<polyline clip-path="url(#clip000)" style="stroke:#000000; stroke-linecap:round; stroke-linejoin:round; stroke-width:4; stroke-opacity:1; fill:none" points="1904.64,1423.18 1904.64,1404.28 "/>
<polyline clip-path="url(#clip000)" style="stroke:#000000; stroke-linecap:round; stroke-linejoin:round; stroke-width:4; stroke-opacity:1; fill:none" points="2352.76,1423.18 2352.76,1404.28 "/>
<path clip-path="url(#clip000)" d="M112.177 1454.1 Q108.566 1454.1 106.737 1457.66 Q104.932 1461.2 104.932 1468.33 Q104.932 1475.44 106.737 1479.01 Q108.566 1482.55 112.177 1482.55 Q115.811 1482.55 117.617 1479.01 Q119.446 1475.44 119.446 1468.33 Q119.446 1461.2 117.617 1457.66 Q115.811 1454.1 112.177 1454.1 M112.177 1450.39 Q117.987 1450.39 121.043 1455 Q124.122 1459.58 124.122 1468.33 Q124.122 1477.06 121.043 1481.67 Q117.987 1486.25 112.177 1486.25 Q106.367 1486.25 103.288 1481.67 Q100.233 1477.06 100.233 1468.33 Q100.233 1459.58 103.288 1455 Q106.367 1450.39 112.177 1450.39 Z" fill="#000000" fill-rule="nonzero" fill-opacity="1" /><path clip-path="url(#clip000)" d="M554.946 1481.64 L571.265 1481.64 L571.265 1485.58 L549.321 1485.58 L549.321 1481.64 Q551.983 1478.89 556.566 1474.26 Q561.173 1469.61 562.353 1468.27 Q564.598 1465.74 565.478 1464.01 Q566.381 1462.25 566.381 1460.56 Q566.381 1457.8 564.436 1456.07 Q562.515 1454.33 559.413 1454.33 Q557.214 1454.33 554.761 1455.09 Q552.33 1455.86 549.552 1457.41 L549.552 1452.69 Q552.376 1451.55 554.83 1450.97 Q557.284 1450.39 559.321 1450.39 Q564.691 1450.39 567.885 1453.08 Q571.08 1455.77 571.08 1460.26 Q571.08 1462.39 570.27 1464.31 Q569.483 1466.2 567.376 1468.8 Q566.798 1469.47 563.696 1472.69 Q560.594 1475.88 554.946 1481.64 Z" fill="#000000" fill-rule="nonzero" fill-opacity="1" /><path clip-path="url(#clip000)" d="M1011.42 1455.09 L999.612 1473.54 L1011.42 1473.54 L1011.42 1455.09 M1010.19 1451.02 L1016.07 1451.02 L1016.07 1473.54 L1021 1473.54 L1021 1477.43 L1016.07 1477.43 L1016.07 1485.58 L1011.42 1485.58 L1011.42 1477.43 L995.816 1477.43 L995.816 1472.92 L1010.19 1451.02 Z" fill="#000000" fill-rule="nonzero" fill-opacity="1" /><path clip-path="url(#clip000)" d="M1456.93 1466.44 Q1453.78 1466.44 1451.93 1468.59 Q1450.1 1470.74 1450.1 1474.49 Q1450.1 1478.22 1451.93 1480.39 Q1453.78 1482.55 1456.93 1482.55 Q1460.08 1482.55 1461.91 1480.39 Q1463.76 1478.22 1463.76 1474.49 Q1463.76 1470.74 1461.91 1468.59 Q1460.08 1466.44 1456.93 1466.44 M1466.21 1451.78 L1466.21 1456.04 Q1464.45 1455.21 1462.65 1454.77 Q1460.86 1454.33 1459.11 1454.33 Q1454.48 1454.33 1452.02 1457.45 Q1449.59 1460.58 1449.24 1466.9 Q1450.61 1464.89 1452.67 1463.82 Q1454.73 1462.73 1457.21 1462.73 Q1462.42 1462.73 1465.42 1465.9 Q1468.46 1469.05 1468.46 1474.49 Q1468.46 1479.82 1465.31 1483.03 Q1462.16 1486.25 1456.93 1486.25 Q1450.93 1486.25 1447.76 1481.67 Q1444.59 1477.06 1444.59 1468.33 Q1444.59 1460.14 1448.48 1455.28 Q1452.37 1450.39 1458.92 1450.39 Q1460.68 1450.39 1462.46 1450.74 Q1464.27 1451.09 1466.21 1451.78 Z" fill="#000000" fill-rule="nonzero" fill-opacity="1" /><path clip-path="url(#clip000)" d="M1904.64 1469.17 Q1901.31 1469.17 1899.39 1470.95 Q1897.49 1472.73 1897.49 1475.86 Q1897.49 1478.98 1899.39 1480.77 Q1901.31 1482.55 1904.64 1482.55 Q1907.97 1482.55 1909.89 1480.77 Q1911.82 1478.96 1911.82 1475.86 Q1911.82 1472.73 1909.89 1470.95 Q1908 1469.17 1904.64 1469.17 M1899.96 1467.18 Q1896.96 1466.44 1895.27 1464.38 Q1893.6 1462.32 1893.6 1459.35 Q1893.6 1455.21 1896.54 1452.8 Q1899.5 1450.39 1904.64 1450.39 Q1909.8 1450.39 1912.74 1452.8 Q1915.68 1455.21 1915.68 1459.35 Q1915.68 1462.32 1913.99 1464.38 Q1912.33 1466.44 1909.34 1467.18 Q1912.72 1467.96 1914.59 1470.26 Q1916.49 1472.55 1916.49 1475.86 Q1916.49 1480.88 1913.41 1483.57 Q1910.36 1486.25 1904.64 1486.25 Q1898.92 1486.25 1895.84 1483.57 Q1892.79 1480.88 1892.79 1475.86 Q1892.79 1472.55 1894.69 1470.26 Q1896.58 1467.96 1899.96 1467.18 M1898.25 1459.79 Q1898.25 1462.48 1899.92 1463.98 Q1901.61 1465.49 1904.64 1465.49 Q1907.65 1465.49 1909.34 1463.98 Q1911.05 1462.48 1911.05 1459.79 Q1911.05 1457.11 1909.34 1455.6 Q1907.65 1454.1 1904.64 1454.1 Q1901.61 1454.1 1899.92 1455.6 Q1898.25 1457.11 1898.25 1459.79 Z" fill="#000000" fill-rule="nonzero" fill-opacity="1" /><path clip-path="url(#clip000)" d="M2327.44 1481.64 L2335.08 1481.64 L2335.08 1455.28 L2326.77 1456.95 L2326.77 1452.69 L2335.04 1451.02 L2339.71 1451.02 L2339.71 1481.64 L2347.35 1481.64 L2347.35 1485.58 L2327.44 1485.58 L2327.44 1481.64 Z" fill="#000000" fill-rule="nonzero" fill-opacity="1" /><path clip-path="url(#clip000)" d="M2366.8 1454.1 Q2363.18 1454.1 2361.36 1457.66 Q2359.55 1461.2 2359.55 1468.33 Q2359.55 1475.44 2361.36 1479.01 Q2363.18 1482.55 2366.8 1482.55 Q2370.43 1482.55 2372.23 1479.01 Q2374.06 1475.44 2374.06 1468.33 Q2374.06 1461.2 2372.23 1457.66 Q2370.43 1454.1 2366.8 1454.1 M2366.8 1450.39 Q2372.61 1450.39 2375.66 1455 Q2378.74 1459.58 2378.74 1468.33 Q2378.74 1477.06 2375.66 1481.67 Q2372.61 1486.25 2366.8 1486.25 Q2360.99 1486.25 2357.91 1481.67 Q2354.85 1477.06 2354.85 1468.33 Q2354.85 1459.58 2357.91 1455 Q2360.99 1450.39 2366.8 1450.39 Z" fill="#000000" fill-rule="nonzero" fill-opacity="1" /><path clip-path="url(#clip000)" d="M1231.53 1522.27 L1231.53 1532.4 L1243.59 1532.4 L1243.59 1536.95 L1231.53 1536.95 L1231.53 1556.3 Q1231.53 1560.66 1232.71 1561.9 Q1233.91 1563.14 1237.58 1563.14 L1243.59 1563.14 L1243.59 1568.04 L1237.58 1568.04 Q1230.8 1568.04 1228.22 1565.53 Q1225.64 1562.98 1225.64 1556.3 L1225.64 1536.95 L1221.34 1536.95 L1221.34 1532.4 L1225.64 1532.4 L1225.64 1522.27 L1231.53 1522.27 Z" fill="#000000" fill-rule="nonzero" fill-opacity="1" /><polyline clip-path="url(#clip000)" style="stroke:#000000; stroke-linecap:round; stroke-linejoin:round; stroke-width:4; stroke-opacity:1; fill:none" points="112.177,1423.18 112.177,47.2441 "/>
<polyline clip-path="url(#clip000)" style="stroke:#000000; stroke-linecap:round; stroke-linejoin:round; stroke-width:4; stroke-opacity:1; fill:none" points="112.177,1172.23 131.075,1172.23 "/>
<polyline clip-path="url(#clip000)" style="stroke:#000000; stroke-linecap:round; stroke-linejoin:round; stroke-width:4; stroke-opacity:1; fill:none" points="112.177,907.213 131.075,907.213 "/>
<polyline clip-path="url(#clip000)" style="stroke:#000000; stroke-linecap:round; stroke-linejoin:round; stroke-width:4; stroke-opacity:1; fill:none" points="112.177,642.199 131.075,642.199 "/>
<polyline clip-path="url(#clip000)" style="stroke:#000000; stroke-linecap:round; stroke-linejoin:round; stroke-width:4; stroke-opacity:1; fill:none" points="112.177,377.185 131.075,377.185 "/>
<polyline clip-path="url(#clip000)" style="stroke:#000000; stroke-linecap:round; stroke-linejoin:round; stroke-width:4; stroke-opacity:1; fill:none" points="112.177,112.171 131.075,112.171 "/>
<path clip-path="url(#clip000)" d="M56.2699 1185.57 L63.9087 1185.57 L63.9087 1159.21 L55.5986 1160.87 L55.5986 1156.61 L63.8624 1154.95 L68.5383 1154.95 L68.5383 1185.57 L76.1772 1185.57 L76.1772 1189.51 L56.2699 1189.51 L56.2699 1185.57 Z" fill="#000000" fill-rule="nonzero" fill-opacity="1" /><path clip-path="url(#clip000)" d="M59.8578 920.558 L76.1772 920.558 L76.1772 924.493 L54.2328 924.493 L54.2328 920.558 Q56.8949 917.803 61.4782 913.174 Q66.0846 908.521 67.2652 907.178 Q69.5105 904.655 70.3902 902.919 Q71.2929 901.16 71.2929 899.47 Q71.2929 896.715 69.3485 894.979 Q67.4272 893.243 64.3254 893.243 Q62.1263 893.243 59.6726 894.007 Q57.2421 894.771 54.4643 896.322 L54.4643 891.6 Q57.2884 890.465 59.7421 889.887 Q62.1958 889.308 64.2328 889.308 Q69.6031 889.308 72.7976 891.993 Q75.992 894.678 75.992 899.169 Q75.992 901.299 75.1818 903.22 Q74.3948 905.118 72.2883 907.711 Q71.7096 908.382 68.6078 911.599 Q65.5059 914.794 59.8578 920.558 Z" fill="#000000" fill-rule="nonzero" fill-opacity="1" /><path clip-path="url(#clip000)" d="M69.0476 640.845 Q72.404 641.562 74.279 643.831 Q76.1772 646.099 76.1772 649.433 Q76.1772 654.548 72.6587 657.349 Q69.1402 660.15 62.6587 660.15 Q60.4828 660.15 58.168 659.71 Q55.8764 659.294 53.4227 658.437 L53.4227 653.923 Q55.3671 655.058 57.6819 655.636 Q59.9967 656.215 62.5198 656.215 Q66.918 656.215 69.2096 654.479 Q71.5244 652.743 71.5244 649.433 Q71.5244 646.377 69.3717 644.664 Q67.242 642.928 63.4226 642.928 L59.3949 642.928 L59.3949 639.085 L63.6078 639.085 Q67.0569 639.085 68.8855 637.72 Q70.7142 636.331 70.7142 633.738 Q70.7142 631.076 68.8161 629.664 Q66.9411 628.229 63.4226 628.229 Q61.5013 628.229 59.3023 628.646 Q57.1032 629.062 54.4643 629.942 L54.4643 625.775 Q57.1264 625.035 59.4412 624.664 Q61.7791 624.294 63.8393 624.294 Q69.1633 624.294 72.2652 626.724 Q75.367 629.132 75.367 633.252 Q75.367 636.122 73.7235 638.113 Q72.08 640.081 69.0476 640.845 Z" fill="#000000" fill-rule="nonzero" fill-opacity="1" /><path clip-path="url(#clip000)" d="M66.5939 363.979 L54.7884 382.428 L66.5939 382.428 L66.5939 363.979 M65.367 359.905 L71.2466 359.905 L71.2466 382.428 L76.1772 382.428 L76.1772 386.317 L71.2466 386.317 L71.2466 394.465 L66.5939 394.465 L66.5939 386.317 L50.9921 386.317 L50.9921 381.803 L65.367 359.905 Z" fill="#000000" fill-rule="nonzero" fill-opacity="1" /><path clip-path="url(#clip000)" d="M55.2745 94.8906 L73.6309 94.8906 L73.6309 98.8258 L59.5569 98.8258 L59.5569 107.298 Q60.5754 106.951 61.5939 106.789 Q62.6124 106.604 63.6309 106.604 Q69.418 106.604 72.7976 109.775 Q76.1772 112.946 76.1772 118.363 Q76.1772 123.941 72.705 127.043 Q69.2328 130.122 62.9134 130.122 Q60.7374 130.122 58.4689 129.752 Q56.2236 129.381 53.8162 128.64 L53.8162 123.941 Q55.8995 125.076 58.1217 125.631 Q60.3439 126.187 62.8208 126.187 Q66.8254 126.187 69.1633 124.08 Q71.5013 121.974 71.5013 118.363 Q71.5013 114.752 69.1633 112.645 Q66.8254 110.539 62.8208 110.539 Q60.9458 110.539 59.0708 110.955 Q57.2189 111.372 55.2745 112.252 L55.2745 94.8906 Z" fill="#000000" fill-rule="nonzero" fill-opacity="1" /><polyline clip-path="url(#clip002)" style="stroke:#009af9; stroke-linecap:round; stroke-linejoin:round; stroke-width:8; stroke-opacity:1; fill:none" points="112.177,1384.24 114.42,1383.71 116.663,1383.17 118.906,1382.62 121.148,1382.07 123.391,1381.52 125.634,1380.96 127.877,1380.39 130.12,1379.82 132.363,1379.24 134.605,1378.66 136.848,1378.07 139.091,1377.47 141.334,1376.87 143.577,1376.26 145.819,1375.65 148.062,1375.03 150.305,1374.41 152.548,1373.77 154.791,1373.14 157.034,1372.49 159.276,1371.84 161.519,1371.18 163.762,1370.52 166.005,1369.85 168.248,1369.17 170.491,1368.48 172.733,1367.79 174.976,1367.09 177.219,1366.39 179.462,1365.67 181.705,1364.95 183.947,1364.23 186.19,1363.49 188.433,1362.75 190.676,1362 192.919,1361.24 195.162,1360.48 197.404,1359.71 199.647,1358.93 201.89,1358.14 204.133,1357.34 206.376,1356.54 208.619,1355.73 210.861,1354.91 213.104,1354.08 215.347,1353.24 217.59,1352.4 219.833,1351.54 222.075,1350.68 224.318,1349.81 226.561,1348.93 228.804,1348.04 231.047,1347.15 233.29,1346.24 235.532,1345.32 237.775,1344.4 240.018,1343.46 242.261,1342.52 244.504,1341.57 246.746,1340.61 248.989,1339.63 251.232,1338.65 253.475,1337.66 255.718,1336.66 257.961,1335.65 260.203,1334.62 262.446,1333.59 264.689,1332.55 266.932,1331.5 269.175,1330.43 271.418,1329.36 273.66,1328.27 275.903,1327.18 278.146,1326.07 280.389,1324.95 282.632,1323.82 284.874,1322.68 287.117,1321.53 289.36,1320.36 291.603,1319.19 293.846,1318 296.089,1316.8 298.331,1315.59 300.574,1314.36 302.817,1313.13 305.06,1311.88 307.303,1310.62 309.545,1309.34 311.788,1308.06 314.031,1306.76 316.274,1305.45 318.517,1304.12 320.76,1302.78 323.002,1301.43 325.245,1300.06 327.488,1298.68 329.731,1297.29 331.974,1295.88 334.217,1294.46 336.459,1293.02 338.702,1291.57 340.945,1290.1 343.188,1288.62 345.431,1287.13 347.673,1285.62 349.916,1284.09 352.159,1282.55 354.402,1281 356.645,1279.42 358.888,1277.84 361.13,1276.23 363.373,1274.61 365.616,1272.98 367.859,1271.32 370.102,1353.45 372.344,1352.61 374.587,1351.75 376.83,1350.89 379.073,1350.02 381.316,1349.15 383.559,1348.26 385.801,1347.37 388.044,1346.46 390.287,1345.55 392.53,1344.63 394.773,1343.69 397.016,1342.75 399.258,1341.8 401.501,1340.84 403.744,1339.87 405.987,1338.89 408.23,1337.9 410.472,1336.9 412.715,1335.9 414.958,1334.88 417.201,1333.85 419.444,1332.81 421.687,1331.76 423.929,1330.69 426.172,1329.62 428.415,1328.54 430.658,1327.45 432.901,1326.34 435.143,1325.23 437.386,1324.1 439.629,1322.96 441.872,1321.81 444.115,1320.65 446.358,1319.48 448.6,1318.29 450.843,1317.1 453.086,1315.89 455.329,1314.67 457.572,1313.43 459.815,1312.19 462.057,1310.93 464.3,1309.66 466.543,1308.37 468.786,1307.08 471.029,1371.5 473.271,1370.84 475.514,1370.18 477.757,1369.5 480,1368.82 482.243,1368.13 484.486,1367.44 486.728,1366.73 488.971,1366.02 491.214,1365.31 493.457,1364.58 495.7,1363.85 497.942,1363.11 500.185,1362.37 502.428,1361.62 504.671,1360.85 506.914,1360.09 509.157,1359.31 511.399,1358.53 513.642,1357.73 515.885,1356.93 518.128,1356.13 520.371,1355.31 522.614,1354.49 524.856,1353.65 527.099,1352.81 529.342,1351.96 531.585,1351.11 533.828,1350.24 536.07,1349.36 538.313,1348.48 540.556,1347.59 542.799,1346.69 545.042,1345.77 547.285,1344.85 549.527,1343.92 551.77,1342.99 554.013,1342.04 556.256,1341.08 558.499,1340.11 560.741,1339.14 562.984,1338.15 565.227,1337.15 567.47,1336.14 569.713,1335.13 571.956,1334.1 574.198,1333.06 576.441,1332.01 578.684,1330.96 580.927,1329.89 583.17,1328.81 585.413,1327.72 587.655,1326.61 589.898,1325.5 592.141,1324.38 594.384,1323.24 596.627,1322.09 598.869,1320.94 601.112,1319.77 603.355,1318.58 605.598,1317.39 607.841,1316.18 610.084,1314.97 612.326,1313.74 614.569,1312.49 616.812,1311.24 619.055,1309.97 621.298,1308.69 623.54,1307.4 625.783,1306.09 628.026,1304.77 630.269,1303.44 632.512,1302.09 634.755,1300.73 636.997,1299.36 639.24,1297.97 641.483,1296.57 643.726,1295.16 645.969,1293.73 648.212,1292.28 650.454,1290.83 652.697,1289.35 654.94,1287.87 657.183,1286.36 659.426,1284.85 661.668,1283.31 663.911,1281.76 666.154,1280.2 668.397,1278.62 670.64,1277.03 672.883,1275.41 675.125,1273.79 677.368,1272.14 679.611,1270.48 681.854,1268.8 684.097,1267.11 686.339,1265.4 688.582,1263.67 690.825,1261.92 693.068,1260.16 695.311,1258.38 697.554,1256.58 699.796,1254.76 702.039,1252.92 704.282,1251.07 706.525,1249.2 708.768,1247.31 711.011,1245.39 713.253,1243.46 715.496,1241.51 717.739,1239.55 719.982,1237.56 722.225,1235.55 724.467,1233.52 726.71,1231.47 728.953,1229.4 731.196,1227.31 733.439,1225.19 735.682,1223.06 737.924,1220.91 740.167,1218.73 742.41,1216.53 744.653,1214.31 746.896,1212.07 749.138,1209.8 751.381,1207.51 753.624,1205.2 755.867,1202.87 758.11,1200.51 760.353,1198.13 762.595,1195.72 764.838,1193.29 767.081,1190.84 769.324,1188.36 771.567,1185.86 773.81,1183.33 776.052,1180.77 778.295,1178.19 780.538,1175.59 782.781,1172.95 785.024,1170.29 787.266,1167.61 789.509,1164.9 791.752,1162.16 793.995,1159.39 796.238,1156.59 798.481,1153.77 800.723,1150.92 802.966,1148.04 805.209,1145.13 807.452,1142.19 809.695,1139.23 811.938,1136.23 814.18,1133.2 816.423,1130.14 818.666,1127.05 820.909,1123.93 823.152,1120.78 825.394,1117.6 827.637,1114.38 829.88,1111.14 832.123,1107.86 834.366,1104.54 836.609,1101.2 838.851,1097.82 841.094,1094.4 843.337,1090.95 845.58,1087.47 847.823,1083.95 850.065,1080.4 852.308,1076.81 854.551,1073.18 856.794,1069.52 859.037,1065.82 861.28,1062.08 863.522,1058.31 865.765,1054.5 868.008,1050.64 870.251,1046.75 872.494,1042.83 874.737,1038.86 876.979,1034.85 879.222,1030.8 881.465,1026.71 883.708,1022.58 885.951,1018.41 888.193,1014.19 890.436,1009.94 892.679,1005.64 894.922,1001.29 897.165,996.908 899.408,992.478 901.65,988.003 903.893,983.483 906.136,978.917 908.379,974.306 910.622,969.649 912.864,964.944 915.107,960.193 917.35,955.394 919.593,950.546 921.836,945.649 924.079,940.703 926.321,935.708 928.564,930.662 930.807,925.565 933.05,920.417 935.293,915.217 937.536,909.965 939.778,904.661 942.021,899.303 944.264,893.891 946.507,888.425 948.75,882.904 950.992,877.327 953.235,871.695 955.478,866.006 957.721,860.26 959.964,854.456 962.207,848.594 964.449,842.673 966.692,836.693 968.935,830.653 971.178,824.552 973.421,818.389 975.663,812.165 977.906,805.878 980.149,799.528 982.392,793.114 984.635,786.636 986.878,780.092 989.12,773.483 991.363,766.807 993.606,760.064 995.849,753.254 998.092,746.374 1000.33,739.426 1002.58,732.407 1004.82,725.318 1007.06,718.157 1009.31,710.925 1011.55,703.619 1013.79,696.24 1016.03,688.786 1018.28,681.257 1020.52,673.653 1022.76,665.972 1025.01,658.213 1027.25,650.376 1029.49,642.46 1031.73,634.465 1033.98,626.388 1036.22,618.231 1038.46,609.991 1040.71,601.668 1042.95,593.261 1045.19,584.769 1047.43,576.192 1049.68,567.528 1051.92,558.777 1054.16,549.938 1056.41,541.009 1058.65,531.991 1060.89,522.882 1063.13,513.681 1065.38,504.388 1067.62,495.001 1069.86,485.519 1072.1,475.942 1074.35,466.269 1076.59,456.499 1078.83,446.63 1081.08,436.662 1083.32,426.594 1085.56,416.425 1087.8,406.154 1090.05,395.78 1092.29,385.302 1094.53,374.719 1096.78,364.029 1099.02,353.232 1101.26,342.327 1103.5,331.312 1105.75,320.186 1107.99,308.948 1110.23,297.597 1112.48,286.132 1114.72,274.551 1116.96,262.854 1119.2,251.04 1121.45,239.106 1123.69,227.053 1125.93,214.878 1128.18,202.581 1130.42,190.16 1132.66,177.614 1134.9,164.942 1137.15,152.142 1139.39,139.213 1141.63,126.155 1143.88,112.965 1146.12,99.6423 1148.36,86.1857 1150.6,754.921 1152.85,748.057 1155.09,741.124 1157.33,734.12 1159.57,727.047 1161.82,719.902 1164.06,712.685 1166.3,705.396 1168.55,698.034 1170.79,690.597 1173.03,683.085 1175.27,675.498 1177.52,667.835 1179.76,660.095 1182,652.277 1184.25,644.38 1186.49,636.403 1188.73,628.347 1190.97,620.209 1193.22,611.989 1195.46,603.687 1197.7,595.301 1199.95,586.831 1202.19,578.276 1204.43,569.634 1206.67,560.906 1208.92,552.09 1211.16,543.185 1213.4,534.19 1215.65,525.106 1217.89,515.929 1220.13,506.66 1222.37,497.299 1224.62,962.555 1226.86,957.78 1229.1,952.956 1231.35,948.084 1233.59,943.163 1235.83,938.193 1238.07,933.172 1240.32,928.101 1242.56,922.979 1244.8,917.805 1247.04,912.58 1249.29,907.301 1251.53,901.97 1253.77,896.585 1256.02,891.146 1258.26,885.652 1260.5,880.103 1262.74,874.498 1264.99,868.837 1267.23,863.118 1269.47,857.343 1271.72,851.509 1273.96,845.616 1276.2,839.664 1278.44,833.652 1280.69,827.58 1282.93,1129.35 1285.17,1126.25 1287.42,1123.12 1289.66,1119.96 1291.9,1116.77 1294.14,1113.55 1296.39,1110.29 1298.63,1107 1300.87,1103.68 1303.12,1100.32 1305.36,1096.93 1307.6,1093.51 1309.84,1090.05 1312.09,1086.56 1314.33,1083.03 1316.57,1079.47 1318.82,1256.55 1321.06,1254.74 1323.3,1252.9 1325.54,1251.04 1327.79,1249.17 1330.03,1247.28 1332.27,1245.37 1334.51,1243.44 1336.76,1241.49 1339,1239.52 1341.24,1237.53 1343.49,1235.52 1345.73,1233.49 1347.97,1231.44 1350.21,1229.37 1352.46,1227.28 1354.7,1225.17 1356.94,1223.03 1359.19,1220.88 1361.43,1218.7 1363.67,1216.5 1365.91,1214.28 1368.16,1212.04 1370.4,1209.77 1372.64,1207.49 1374.89,1205.18 1377.13,1202.84 1379.37,1200.48 1381.61,1198.1 1383.86,1195.69 1386.1,1193.26 1388.34,1190.81 1390.59,1188.33 1392.83,1185.83 1395.07,1183.3 1397.31,1180.74 1399.56,1178.16 1401.8,1175.56 1404.04,1172.92 1406.29,1170.26 1408.53,1167.58 1410.77,1164.87 1413.01,1162.13 1415.26,1159.36 1417.5,1156.56 1419.74,1153.74 1421.98,1150.89 1424.23,1292.63 1426.47,1291.18 1428.71,1289.71 1430.96,1288.22 1433.2,1286.72 1435.44,1285.21 1437.68,1283.68 1439.93,1282.14 1442.17,1280.57 1444.41,1279 1446.66,1277.41 1448.9,1275.8 1451.14,1274.17 1453.38,1272.53 1455.63,1270.88 1457.87,1269.2 1460.11,1267.51 1462.36,1265.81 1464.6,1264.08 1466.84,1262.34 1469.08,1260.58 1471.33,1258.8 1473.57,1257.01 1475.81,1255.19 1478.06,1253.36 1480.3,1251.51 1482.54,1249.65 1484.78,1247.76 1487.03,1245.85 1489.27,1243.93 1491.51,1241.98 1493.76,1240.02 1496,1238.04 1498.24,1236.03 1500.48,1234.01 1502.73,1231.96 1504.97,1229.9 1507.21,1227.81 1509.46,1225.71 1511.7,1223.58 1513.94,1221.43 1516.18,1219.26 1518.43,1217.07 1520.67,1214.85 1522.91,1212.61 1525.15,1210.35 1527.4,1208.07 1529.64,1205.77 1531.88,1203.44 1534.13,1201.08 1536.37,1198.71 1538.61,1196.31 1540.85,1193.88 1543.1,1191.44 1545.34,1188.96 1547.58,1186.47 1549.83,1183.94 1552.07,1181.39 1554.31,1178.82 1556.55,1176.22 1558.8,1173.59 1561.04,1170.94 1563.28,1168.26 1565.53,1165.55 1567.77,1162.82 1570.01,1160.06 1572.25,1157.27 1574.5,1154.45 1576.74,1151.61 1578.98,1148.73 1581.23,1145.83 1583.47,1142.9 1585.71,1288.59 1587.95,1287.1 1590.2,1285.59 1592.44,1284.06 1594.68,1282.52 1596.93,1280.96 1599.17,1279.39 1601.41,1277.8 1603.65,1276.2 1605.9,1274.58 1608.14,1272.94 1610.38,1271.29 1612.62,1269.62 1614.87,1267.93 1617.11,1266.23 1619.35,1264.51 1621.6,1262.77 1623.84,1261.02 1626.08,1259.25 1628.32,1257.45 1630.57,1255.65 1632.81,1253.82 1635.05,1251.97 1637.3,1250.11 1639.54,1248.23 1641.78,1246.33 1644.02,1244.41 1646.27,1242.47 1648.51,1240.51 1650.75,1238.53 1653,1236.53 1655.24,1234.51 1657.48,1232.48 1659.72,1230.42 1661.97,1228.34 1664.21,1226.23 1666.45,1224.11 1668.7,1221.97 1670.94,1219.8 1673.18,1217.62 1675.42,1215.41 1677.67,1213.18 1679.91,1210.92 1682.15,1208.65 1684.4,1206.35 1686.64,1204.02 1688.88,1201.68 1691.12,1199.31 1693.37,1196.92 1695.61,1194.5 1697.85,1192.06 1700.09,1189.59 1702.34,1187.1 1704.58,1184.58 1706.82,1182.04 1709.07,1179.47 1711.31,1176.88 1713.55,1174.26 1715.79,1171.61 1718.04,1168.94 1720.28,1166.24 1722.52,1163.51 1724.77,1160.76 1727.01,1157.98 1729.25,1155.17 1731.49,1152.33 1733.74,1149.46 1735.98,1146.57 1738.22,1143.64 1740.47,1140.69 1742.71,1137.7 1744.95,1134.69 1747.19,1131.64 1749.44,1128.57 1751.68,1125.46 1753.92,1122.33 1756.17,1119.16 1758.41,1115.96 1760.65,1112.72 1762.89,1109.46 1765.14,1106.16 1767.38,1102.83 1769.62,1099.47 1771.87,1096.07 1774.11,1092.64 1776.35,1089.17 1778.59,1085.67 1780.84,1082.13 1783.08,1078.56 1785.32,1074.95 1787.56,1071.3 1789.81,1067.62 1792.05,1063.9 1794.29,1060.14 1796.54,1056.35 1798.78,1052.52 1801.02,1048.65 1803.26,1044.74 1805.51,1040.79 1807.75,1036.8 1809.99,1032.78 1812.24,1028.71 1814.48,1024.6 1816.72,1020.45 1818.96,1016.26 1821.21,1012.02 1823.45,1007.75 1825.69,1003.43 1827.94,999.065 1830.18,994.659 1832.42,990.208 1834.66,985.713 1836.91,981.173 1839.15,976.587 1841.39,971.955 1843.64,967.277 1845.88,962.551 1848.12,957.778 1850.36,952.957 1852.61,948.088 1854.85,943.17 1857.09,938.202 1859.34,933.184 1861.58,928.116 1863.82,922.997 1866.06,917.826 1868.31,912.603 1870.55,907.327 1872.79,901.999 1875.03,896.616 1877.28,891.179 1879.52,885.688 1881.76,880.141 1884.01,874.538 1886.25,868.879 1888.49,863.162 1890.73,857.388 1892.98,851.556 1895.22,845.665 1897.46,839.714 1899.71,833.703 1901.95,827.632 1904.19,821.499 1906.43,815.304 1908.68,809.047 1910.92,802.727 1913.16,796.342 1915.41,789.894 1917.65,783.38 1919.89,776.8 1922.13,770.154 1924.38,763.441 1926.62,756.661 1928.86,749.812 1931.11,742.893 1933.35,735.905 1935.59,728.847 1937.83,721.717 1940.08,714.516 1942.32,707.242 1944.56,699.894 1946.81,692.473 1949.05,684.977 1951.29,677.406 1953.53,669.758 1955.78,662.034 1958.02,654.231 1960.26,646.351 1962.5,638.391 1964.75,630.352 1966.99,622.231 1969.23,614.03 1971.48,605.746 1973.72,597.379 1975.96,588.929 1978.2,580.393 1980.45,571.773 1982.69,563.066 1984.93,554.272 1987.18,545.389 1989.42,536.416 1991.66,527.354 1993.9,518.2 1996.15,508.954 1998.39,499.616 2000.63,490.183 2002.88,480.655 2005.12,471.032 2007.36,461.311 2009.6,451.493 2011.85,939.404 2014.09,934.395 2016.33,929.337 2018.58,924.227 2020.82,919.066 2023.06,913.853 2025.3,908.587 2027.55,903.269 2029.79,897.897 2032.03,892.471 2034.28,886.99 2036.52,881.455 2038.76,875.864 2041,870.216 2043.25,864.512 2045.49,858.75 2047.73,852.93 2049.97,847.052 2052.22,841.114 2054.46,835.117 2056.7,829.06 2058.95,822.941 2061.19,816.761 2063.43,810.519 2065.67,804.214 2067.92,797.846 2070.16,791.413 2072.4,784.916 2074.65,778.353 2076.89,771.725 2079.13,765.029 2081.37,758.267 2083.62,751.436 2085.86,744.536 2088.1,737.568 2090.35,1083.9 2092.59,1080.35 2094.83,1076.76 2097.07,1073.13 2099.32,1069.47 2101.56,1065.77 2103.8,1062.03 2106.05,1058.26 2108.29,1054.44 2110.53,1050.59 2112.77,1046.7 2115.02,1042.77 2117.26,1038.81 2119.5,1236.02 2121.75,1233.99 2123.99,1231.95 2126.23,1229.88 2128.47,1227.8 2130.72,1225.69 2132.96,1223.56 2135.2,1221.41 2137.45,1219.24 2139.69,1217.05 2141.93,1326.04 2144.17,1324.92 2146.42,1323.79 2148.66,1322.65 2150.9,1321.49 2153.14,1320.33 2155.39,1319.15 2157.63,1317.96 2159.87,1316.76 2162.12,1315.55 2164.36,1314.33 2166.6,1313.09 2168.84,1311.84 2171.09,1310.58 2173.33,1309.31 2175.57,1308.02 2177.82,1306.72 2180.06,1305.41 2182.3,1304.08 2184.54,1302.74 2186.79,1301.39 2189.03,1300.02 2191.27,1298.64 2193.52,1297.25 2195.76,1295.84 2198,1294.42 2200.24,1292.98 2202.49,1291.53 2204.73,1290.06 2206.97,1288.58 2209.22,1287.09 2211.46,1285.58 2213.7,1284.05 2215.94,1282.51 2218.19,1280.96 2220.43,1279.39 2222.67,1277.8 2224.92,1276.19 2227.16,1274.58 2229.4,1272.94 2231.64,1271.29 2233.89,1269.62 2236.13,1267.93 2238.37,1266.23 2240.61,1264.51 2242.86,1262.77 2245.1,1261.02 2247.34,1259.25 2249.59,1257.46 2251.83,1255.65 2254.07,1253.82 2256.31,1251.98 2258.56,1250.11 2260.8,1248.23 2263.04,1246.33 2265.29,1244.41 2267.53,1242.47 2269.77,1240.51 2272.01,1238.53 2274.26,1236.53 2276.5,1234.51 2278.74,1232.47 2280.99,1230.41 2283.23,1228.33 2285.47,1226.23 2287.71,1224.11 2289.96,1221.96 2292.2,1219.8 2294.44,1217.61 2296.69,1215.4 2298.93,1213.16 2301.17,1210.91 2303.41,1208.63 2305.66,1206.33 2307.9,1204.01 2310.14,1201.66 2312.39,1199.29 2314.63,1196.89 2316.87,1194.48 2319.11,1192.03 2321.36,1189.56 2323.6,1187.07 2325.84,1184.55 2328.08,1182.01 2330.33,1179.44 2332.57,1176.85 2334.81,1174.23 2337.06,1171.58 2339.3,1168.91 2341.54,1166.21 2343.78,1163.48 2346.03,1160.73 2348.27,1157.95 2350.51,1155.14 2352.76,1152.3 "/>
<path clip-path="url(#clip000)" d="M1964.92 196.789 L2278.07 196.789 L2278.07 93.1086 L1964.92 93.1086  Z" fill="#ffffff" fill-rule="evenodd" fill-opacity="1"/>
<polyline clip-path="url(#clip000)" style="stroke:#000000; stroke-linecap:round; stroke-linejoin:round; stroke-width:4; stroke-opacity:1; fill:none" points="1964.92,196.789 2278.07,196.789 2278.07,93.1086 1964.92,93.1086 1964.92,196.789 "/>
<polyline clip-path="url(#clip000)" style="stroke:#009af9; stroke-linecap:round; stroke-linejoin:round; stroke-width:8; stroke-opacity:1; fill:none" points="1989.81,144.949 2139.18,144.949 "/>
<path clip-path="url(#clip000)" d="M2164.08 151.997 L2164.08 136.303 L2168.34 136.303 L2168.34 151.835 Q2168.34 155.516 2169.77 157.368 Q2171.21 159.196 2174.08 159.196 Q2177.53 159.196 2179.52 156.997 Q2181.53 154.798 2181.53 151.002 L2181.53 136.303 L2185.79 136.303 L2185.79 162.229 L2181.53 162.229 L2181.53 158.247 Q2179.98 160.608 2177.92 161.766 Q2175.88 162.9 2173.18 162.9 Q2168.71 162.9 2166.39 160.122 Q2164.08 157.344 2164.08 151.997 M2174.8 135.678 L2174.8 135.678 Z" fill="#000000" fill-rule="nonzero" fill-opacity="1" /><path clip-path="url(#clip000)" d="M2194.17 126.21 L2203.99 126.21 L2203.99 129.52 L2198.43 129.52 L2198.43 165.168 L2203.99 165.168 L2203.99 168.479 L2194.17 168.479 L2194.17 126.21 Z" fill="#000000" fill-rule="nonzero" fill-opacity="1" /><path clip-path="url(#clip000)" d="M2214.47 158.293 L2222.11 158.293 L2222.11 131.928 L2213.8 133.595 L2213.8 129.335 L2222.06 127.669 L2226.74 127.669 L2226.74 158.293 L2234.38 158.293 L2234.38 162.229 L2214.47 162.229 L2214.47 158.293 Z" fill="#000000" fill-rule="nonzero" fill-opacity="1" /><path clip-path="url(#clip000)" d="M2253.17 126.21 L2253.17 168.479 L2243.36 168.479 L2243.36 165.168 L2248.89 165.168 L2248.89 129.52 L2243.36 129.52 L2243.36 126.21 L2253.17 126.21 Z" fill="#000000" fill-rule="nonzero" fill-opacity="1" /></svg>
