<?xml version="1.0" encoding="utf-8"?>
<svg xmlns="http://www.w3.org/2000/svg" xmlns:xlink="http://www.w3.org/1999/xlink" width="600" height="400" viewBox="0 0 2400 1600">
<defs>
  <clipPath id="clip940">
    <rect x="0" y="0" width="2400" height="1600"/>
  </clipPath>
</defs>
<path clip-path="url(#clip940)" d="M0 1600 L2400 1600 L2400 0 L0 0  Z" fill="#ffffff" fill-rule="evenodd" fill-opacity="1"/>
<defs>
  <clipPath id="clip941">
    <rect x="480" y="0" width="1681" height="1600"/>
  </clipPath>
</defs>
<path clip-path="url(#clip940)" d="M156.598 1423.18 L2352.76 1423.18 L2352.76 47.2441 L156.598 47.2441  Z" fill="#ffffff" fill-rule="evenodd" fill-opacity="1"/>
<defs>
  <clipPath id="clip942">
    <rect x="156" y="47" width="2197" height="1377"/>
  </clipPath>
</defs>
<polyline clip-path="url(#clip942)" style="stroke:#000000; stroke-linecap:round; stroke-linejoin:round; stroke-width:2; stroke-opacity:0.1; fill:none" points="156.598,1423.18 156.598,47.2441 "/>
<polyline clip-path="url(#clip942)" style="stroke:#000000; stroke-linecap:round; stroke-linejoin:round; stroke-width:2; stroke-opacity:0.1; fill:none" points="595.83,1423.18 595.83,47.2441 "/>
<polyline clip-path="url(#clip942)" style="stroke:#000000; stroke-linecap:round; stroke-linejoin:round; stroke-width:2; stroke-opacity:0.1; fill:none" points="1035.06,1423.18 1035.06,47.2441 "/>
<polyline clip-path="url(#clip942)" style="stroke:#000000; stroke-linecap:round; stroke-linejoin:round; stroke-width:2; stroke-opacity:0.1; fill:none" points="1474.29,1423.18 1474.29,47.2441 "/>
<polyline clip-path="url(#clip942)" style="stroke:#000000; stroke-linecap:round; stroke-linejoin:round; stroke-width:2; stroke-opacity:0.1; fill:none" points="1913.52,1423.18 1913.52,47.2441 "/>
<polyline clip-path="url(#clip942)" style="stroke:#000000; stroke-linecap:round; stroke-linejoin:round; stroke-width:2; stroke-opacity:0.1; fill:none" points="2352.76,1423.18 2352.76,47.2441 "/>
<polyline clip-path="url(#clip942)" style="stroke:#000000; stroke-linecap:round; stroke-linejoin:round; stroke-width:2; stroke-opacity:0.1; fill:none" points="156.598,1409.96 2352.76,1409.96 "/>
<polyline clip-path="url(#clip942)" style="stroke:#000000; stroke-linecap:round; stroke-linejoin:round; stroke-width:2; stroke-opacity:0.1; fill:none" points="156.598,1043.34 2352.76,1043.34 "/>
<polyline clip-path="url(#clip942)" style="stroke:#000000; stroke-linecap:round; stroke-linejoin:round; stroke-width:2; stroke-opacity:0.1; fill:none" points="156.598,676.723 2352.76,676.723 "/>
<polyline clip-path="url(#clip942)" style="stroke:#000000; stroke-linecap:round; stroke-linejoin:round; stroke-width:2; stroke-opacity:0.1; fill:none" points="156.598,310.105 2352.76,310.105 "/>
<polyline clip-path="url(#clip940)" style="stroke:#000000; stroke-linecap:round; stroke-linejoin:round; stroke-width:4; stroke-opacity:1; fill:none" points="156.598,1423.18 2352.76,1423.18 "/>
<polyline clip-path="url(#clip940)" style="stroke:#000000; stroke-linecap:round; stroke-linejoin:round; stroke-width:4; stroke-opacity:1; fill:none" points="156.598,1423.18 156.598,1404.28 "/>
<polyline clip-path="url(#clip940)" style="stroke:#000000; stroke-linecap:round; stroke-linejoin:round; stroke-width:4; stroke-opacity:1; fill:none" points="595.83,1423.18 595.83,1404.28 "/>
<polyline clip-path="url(#clip940)" style="stroke:#000000; stroke-linecap:round; stroke-linejoin:round; stroke-width:4; stroke-opacity:1; fill:none" points="1035.06,1423.18 1035.06,1404.28 "/>
<polyline clip-path="url(#clip940)" style="stroke:#000000; stroke-linecap:round; stroke-linejoin:round; stroke-width:4; stroke-opacity:1; fill:none" points="1474.29,1423.18 1474.29,1404.28 "/>
<polyline clip-path="url(#clip940)" style="stroke:#000000; stroke-linecap:round; stroke-linejoin:round; stroke-width:4; stroke-opacity:1; fill:none" points="1913.52,1423.18 1913.52,1404.28 "/>
<polyline clip-path="url(#clip940)" style="stroke:#000000; stroke-linecap:round; stroke-linejoin:round; stroke-width:4; stroke-opacity:1; fill:none" points="2352.76,1423.18 2352.76,1404.28 "/>
<path clip-path="url(#clip940)" d="M156.598 1454.1 Q152.987 1454.1 151.158 1457.66 Q149.353 1461.2 149.353 1468.33 Q149.353 1475.44 151.158 1479.01 Q152.987 1482.55 156.598 1482.55 Q160.232 1482.55 162.038 1479.01 Q163.867 1475.44 163.867 1468.33 Q163.867 1461.2 162.038 1457.66 Q160.232 1454.1 156.598 1454.1 M156.598 1450.39 Q162.408 1450.39 165.464 1455 Q168.543 1459.58 168.543 1468.33 Q168.543 1477.06 165.464 1481.67 Q162.408 1486.25 156.598 1486.25 Q150.788 1486.25 147.709 1481.67 Q144.654 1477.06 144.654 1468.33 Q144.654 1459.58 147.709 1455 Q150.788 1450.39 156.598 1450.39 Z" fill="#000000" fill-rule="nonzero" fill-opacity="1" /><path clip-path="url(#clip940)" d="M590.483 1481.64 L606.802 1481.64 L606.802 1485.58 L584.858 1485.58 L584.858 1481.64 Q587.52 1478.89 592.103 1474.26 Q596.709 1469.61 597.89 1468.27 Q600.135 1465.74 601.015 1464.01 Q601.918 1462.25 601.918 1460.56 Q601.918 1457.8 599.973 1456.07 Q598.052 1454.33 594.95 1454.33 Q592.751 1454.33 590.297 1455.09 Q587.867 1455.86 585.089 1457.41 L585.089 1452.69 Q587.913 1451.55 590.367 1450.97 Q592.821 1450.39 594.858 1450.39 Q600.228 1450.39 603.422 1453.08 Q606.617 1455.77 606.617 1460.26 Q606.617 1462.39 605.807 1464.31 Q605.02 1466.2 602.913 1468.8 Q602.334 1469.47 599.233 1472.69 Q596.131 1475.88 590.483 1481.64 Z" fill="#000000" fill-rule="nonzero" fill-opacity="1" /><path clip-path="url(#clip940)" d="M1038.07 1455.09 L1026.27 1473.54 L1038.07 1473.54 L1038.07 1455.09 M1036.84 1451.02 L1042.72 1451.02 L1042.72 1473.54 L1047.65 1473.54 L1047.65 1477.43 L1042.72 1477.43 L1042.72 1485.58 L1038.07 1485.58 L1038.07 1477.43 L1022.47 1477.43 L1022.47 1472.92 L1036.84 1451.02 Z" fill="#000000" fill-rule="nonzero" fill-opacity="1" /><path clip-path="url(#clip940)" d="M1474.7 1466.44 Q1471.55 1466.44 1469.7 1468.59 Q1467.87 1470.74 1467.87 1474.49 Q1467.87 1478.22 1469.7 1480.39 Q1471.55 1482.55 1474.7 1482.55 Q1477.85 1482.55 1479.67 1480.39 Q1481.53 1478.22 1481.53 1474.49 Q1481.53 1470.74 1479.67 1468.59 Q1477.85 1466.44 1474.7 1466.44 M1483.98 1451.78 L1483.98 1456.04 Q1482.22 1455.21 1480.42 1454.77 Q1478.63 1454.33 1476.87 1454.33 Q1472.24 1454.33 1469.79 1457.45 Q1467.36 1460.58 1467.01 1466.9 Q1468.38 1464.89 1470.44 1463.82 Q1472.5 1462.73 1474.98 1462.73 Q1480.18 1462.73 1483.19 1465.9 Q1486.23 1469.05 1486.23 1474.49 Q1486.23 1479.82 1483.08 1483.03 Q1479.93 1486.25 1474.7 1486.25 Q1468.7 1486.25 1465.53 1481.67 Q1462.36 1477.06 1462.36 1468.33 Q1462.36 1460.14 1466.25 1455.28 Q1470.14 1450.39 1476.69 1450.39 Q1478.45 1450.39 1480.23 1450.74 Q1482.04 1451.09 1483.98 1451.78 Z" fill="#000000" fill-rule="nonzero" fill-opacity="1" /><path clip-path="url(#clip940)" d="M1913.52 1469.17 Q1910.19 1469.17 1908.27 1470.95 Q1906.37 1472.73 1906.37 1475.86 Q1906.37 1478.98 1908.27 1480.77 Q1910.19 1482.55 1913.52 1482.55 Q1916.86 1482.55 1918.78 1480.77 Q1920.7 1478.96 1920.7 1475.86 Q1920.7 1472.73 1918.78 1470.95 Q1916.88 1469.17 1913.52 1469.17 M1908.85 1467.18 Q1905.84 1466.44 1904.15 1464.38 Q1902.48 1462.32 1902.48 1459.35 Q1902.48 1455.21 1905.42 1452.8 Q1908.39 1450.39 1913.52 1450.39 Q1918.69 1450.39 1921.63 1452.8 Q1924.57 1455.21 1924.57 1459.35 Q1924.57 1462.32 1922.88 1464.38 Q1921.21 1466.44 1918.22 1467.18 Q1921.6 1467.96 1923.48 1470.26 Q1925.38 1472.55 1925.38 1475.86 Q1925.38 1480.88 1922.3 1483.57 Q1919.24 1486.25 1913.52 1486.25 Q1907.81 1486.25 1904.73 1483.57 Q1901.67 1480.88 1901.67 1475.86 Q1901.67 1472.55 1903.57 1470.26 Q1905.47 1467.96 1908.85 1467.18 M1907.14 1459.79 Q1907.14 1462.48 1908.8 1463.98 Q1910.49 1465.49 1913.52 1465.49 Q1916.53 1465.49 1918.22 1463.98 Q1919.94 1462.48 1919.94 1459.79 Q1919.94 1457.11 1918.22 1455.6 Q1916.53 1454.1 1913.52 1454.1 Q1910.49 1454.1 1908.8 1455.6 Q1907.14 1457.11 1907.14 1459.79 Z" fill="#000000" fill-rule="nonzero" fill-opacity="1" /><path clip-path="url(#clip940)" d="M2327.44 1481.64 L2335.08 1481.64 L2335.08 1455.28 L2326.77 1456.95 L2326.77 1452.69 L2335.04 1451.02 L2339.71 1451.02 L2339.71 1481.64 L2347.35 1481.64 L2347.35 1485.58 L2327.44 1485.58 L2327.44 1481.64 Z" fill="#000000" fill-rule="nonzero" fill-opacity="1" /><path clip-path="url(#clip940)" d="M2366.8 1454.1 Q2363.18 1454.1 2361.36 1457.66 Q2359.55 1461.2 2359.55 1468.33 Q2359.55 1475.44 2361.36 1479.01 Q2363.18 1482.55 2366.8 1482.55 Q2370.43 1482.55 2372.23 1479.01 Q2374.06 1475.44 2374.06 1468.33 Q2374.06 1461.2 2372.23 1457.66 Q2370.43 1454.1 2366.8 1454.1 M2366.8 1450.39 Q2372.61 1450.39 2375.66 1455 Q2378.74 1459.58 2378.74 1468.33 Q2378.74 1477.06 2375.66 1481.67 Q2372.61 1486.25 2366.8 1486.25 Q2360.99 1486.25 2357.91 1481.67 Q2354.85 1477.06 2354.85 1468.33 Q2354.85 1459.58 2357.91 1455 Q2360.99 1450.39 2366.8 1450.39 Z" fill="#000000" fill-rule="nonzero" fill-opacity="1" /><path clip-path="url(#clip940)" d="M1253.74 1522.27 L1253.74 1532.4 L1265.8 1532.4 L1265.8 1536.95 L1253.74 1536.95 L1253.74 1556.3 Q1253.74 1560.66 1254.92 1561.9 Q1256.13 1563.14 1259.79 1563.14 L1265.8 1563.14 L1265.8 1568.04 L1259.79 1568.04 Q1253.01 1568.04 1250.43 1565.53 Q1247.85 1562.98 1247.85 1556.3 L1247.85 1536.95 L1243.55 1536.95 L1243.55 1532.4 L1247.85 1532.4 L1247.85 1522.27 L1253.74 1522.27 Z" fill="#000000" fill-rule="nonzero" fill-opacity="1" /><polyline clip-path="url(#clip940)" style="stroke:#000000; stroke-linecap:round; stroke-linejoin:round; stroke-width:4; stroke-opacity:1; fill:none" points="156.598,1423.18 156.598,47.2441 "/>
<polyline clip-path="url(#clip940)" style="stroke:#000000; stroke-linecap:round; stroke-linejoin:round; stroke-width:4; stroke-opacity:1; fill:none" points="156.598,1409.96 175.496,1409.96 "/>
<polyline clip-path="url(#clip940)" style="stroke:#000000; stroke-linecap:round; stroke-linejoin:round; stroke-width:4; stroke-opacity:1; fill:none" points="156.598,1043.34 175.496,1043.34 "/>
<polyline clip-path="url(#clip940)" style="stroke:#000000; stroke-linecap:round; stroke-linejoin:round; stroke-width:4; stroke-opacity:1; fill:none" points="156.598,676.723 175.496,676.723 "/>
<polyline clip-path="url(#clip940)" style="stroke:#000000; stroke-linecap:round; stroke-linejoin:round; stroke-width:4; stroke-opacity:1; fill:none" points="156.598,310.105 175.496,310.105 "/>
<path clip-path="url(#clip940)" d="M63.4226 1395.76 Q59.8115 1395.76 57.9828 1399.32 Q56.1773 1402.86 56.1773 1409.99 Q56.1773 1417.1 57.9828 1420.67 Q59.8115 1424.21 63.4226 1424.21 Q67.0569 1424.21 68.8624 1420.67 Q70.6911 1417.1 70.6911 1409.99 Q70.6911 1402.86 68.8624 1399.32 Q67.0569 1395.76 63.4226 1395.76 M63.4226 1392.05 Q69.2328 1392.05 72.2883 1396.66 Q75.367 1401.24 75.367 1409.99 Q75.367 1418.72 72.2883 1423.33 Q69.2328 1427.91 63.4226 1427.91 Q57.6125 1427.91 54.5338 1423.33 Q51.4782 1418.72 51.4782 1409.99 Q51.4782 1401.24 54.5338 1396.66 Q57.6125 1392.05 63.4226 1392.05 Z" fill="#000000" fill-rule="nonzero" fill-opacity="1" /><path clip-path="url(#clip940)" d="M83.5845 1421.36 L88.4688 1421.36 L88.4688 1427.24 L83.5845 1427.24 L83.5845 1421.36 Z" fill="#000000" fill-rule="nonzero" fill-opacity="1" /><path clip-path="url(#clip940)" d="M108.654 1395.76 Q105.043 1395.76 103.214 1399.32 Q101.409 1402.86 101.409 1409.99 Q101.409 1417.1 103.214 1420.67 Q105.043 1424.21 108.654 1424.21 Q112.288 1424.21 114.094 1420.67 Q115.922 1417.1 115.922 1409.99 Q115.922 1402.86 114.094 1399.32 Q112.288 1395.76 108.654 1395.76 M108.654 1392.05 Q114.464 1392.05 117.52 1396.66 Q120.598 1401.24 120.598 1409.99 Q120.598 1418.72 117.52 1423.33 Q114.464 1427.91 108.654 1427.91 Q102.844 1427.91 99.765 1423.33 Q96.7095 1418.72 96.7095 1409.99 Q96.7095 1401.24 99.765 1396.66 Q102.844 1392.05 108.654 1392.05 Z" fill="#000000" fill-rule="nonzero" fill-opacity="1" /><path clip-path="url(#clip940)" d="M65.0198 1029.14 Q61.4087 1029.14 59.58 1032.7 Q57.7745 1036.25 57.7745 1043.38 Q57.7745 1050.48 59.58 1054.05 Q61.4087 1057.59 65.0198 1057.59 Q68.6541 1057.59 70.4596 1054.05 Q72.2883 1050.48 72.2883 1043.38 Q72.2883 1036.25 70.4596 1032.7 Q68.6541 1029.14 65.0198 1029.14 M65.0198 1025.44 Q70.83 1025.44 73.8855 1030.04 Q76.9642 1034.63 76.9642 1043.38 Q76.9642 1052.1 73.8855 1056.71 Q70.83 1061.29 65.0198 1061.29 Q59.2097 1061.29 56.131 1056.71 Q53.0754 1052.1 53.0754 1043.38 Q53.0754 1034.63 56.131 1030.04 Q59.2097 1025.44 65.0198 1025.44 Z" fill="#000000" fill-rule="nonzero" fill-opacity="1" /><path clip-path="url(#clip940)" d="M85.1818 1054.74 L90.066 1054.74 L90.066 1060.62 L85.1818 1060.62 L85.1818 1054.74 Z" fill="#000000" fill-rule="nonzero" fill-opacity="1" /><path clip-path="url(#clip940)" d="M104.279 1056.69 L120.598 1056.69 L120.598 1060.62 L98.6539 1060.62 L98.6539 1056.69 Q101.316 1053.93 105.899 1049.3 Q110.506 1044.65 111.686 1043.31 Q113.932 1040.78 114.811 1039.05 Q115.714 1037.29 115.714 1035.6 Q115.714 1032.84 113.77 1031.11 Q111.848 1029.37 108.746 1029.37 Q106.547 1029.37 104.094 1030.14 Q101.663 1030.9 98.8854 1032.45 L98.8854 1027.73 Q101.709 1026.59 104.163 1026.01 Q106.617 1025.44 108.654 1025.44 Q114.024 1025.44 117.219 1028.12 Q120.413 1030.81 120.413 1035.3 Q120.413 1037.43 119.603 1039.35 Q118.816 1041.25 116.709 1043.84 Q116.131 1044.51 113.029 1047.73 Q109.927 1050.92 104.279 1056.69 Z" fill="#000000" fill-rule="nonzero" fill-opacity="1" /><path clip-path="url(#clip940)" d="M62.9365 662.521 Q59.3254 662.521 57.4967 666.086 Q55.6912 669.628 55.6912 676.757 Q55.6912 683.864 57.4967 687.429 Q59.3254 690.97 62.9365 690.97 Q66.5707 690.97 68.3763 687.429 Q70.205 683.864 70.205 676.757 Q70.205 669.628 68.3763 666.086 Q66.5707 662.521 62.9365 662.521 M62.9365 658.818 Q68.7467 658.818 71.8022 663.424 Q74.8809 668.008 74.8809 676.757 Q74.8809 685.484 71.8022 690.091 Q68.7467 694.674 62.9365 694.674 Q57.1264 694.674 54.0477 690.091 Q50.9921 685.484 50.9921 676.757 Q50.9921 668.008 54.0477 663.424 Q57.1264 658.818 62.9365 658.818 Z" fill="#000000" fill-rule="nonzero" fill-opacity="1" /><path clip-path="url(#clip940)" d="M83.0984 688.123 L87.9827 688.123 L87.9827 694.003 L83.0984 694.003 L83.0984 688.123 Z" fill="#000000" fill-rule="nonzero" fill-opacity="1" /><path clip-path="url(#clip940)" d="M111.015 663.517 L99.2095 681.966 L111.015 681.966 L111.015 663.517 M109.788 659.443 L115.668 659.443 L115.668 681.966 L120.598 681.966 L120.598 685.855 L115.668 685.855 L115.668 694.003 L111.015 694.003 L111.015 685.855 L95.4132 685.855 L95.4132 681.341 L109.788 659.443 Z" fill="#000000" fill-rule="nonzero" fill-opacity="1" /><path clip-path="url(#clip940)" d="M63.2606 295.903 Q59.6495 295.903 57.8208 299.468 Q56.0152 303.01 56.0152 310.139 Q56.0152 317.246 57.8208 320.81 Q59.6495 324.352 63.2606 324.352 Q66.8948 324.352 68.7004 320.81 Q70.5291 317.246 70.5291 310.139 Q70.5291 303.01 68.7004 299.468 Q66.8948 295.903 63.2606 295.903 M63.2606 292.2 Q69.0707 292.2 72.1263 296.806 Q75.205 301.389 75.205 310.139 Q75.205 318.866 72.1263 323.473 Q69.0707 328.056 63.2606 328.056 Q57.4504 328.056 54.3717 323.473 Q51.3162 318.866 51.3162 310.139 Q51.3162 301.389 54.3717 296.806 Q57.4504 292.2 63.2606 292.2 Z" fill="#000000" fill-rule="nonzero" fill-opacity="1" /><path clip-path="url(#clip940)" d="M83.4225 321.505 L88.3067 321.505 L88.3067 327.385 L83.4225 327.385 L83.4225 321.505 Z" fill="#000000" fill-rule="nonzero" fill-opacity="1" /><path clip-path="url(#clip940)" d="M109.071 308.241 Q105.922 308.241 104.071 310.394 Q102.242 312.547 102.242 316.297 Q102.242 320.023 104.071 322.199 Q105.922 324.352 109.071 324.352 Q112.219 324.352 114.047 322.199 Q115.899 320.023 115.899 316.297 Q115.899 312.547 114.047 310.394 Q112.219 308.241 109.071 308.241 M118.353 293.588 L118.353 297.848 Q116.594 297.014 114.788 296.574 Q113.006 296.135 111.246 296.135 Q106.617 296.135 104.163 299.26 Q101.733 302.385 101.385 308.704 Q102.751 306.69 104.811 305.625 Q106.871 304.537 109.348 304.537 Q114.557 304.537 117.566 307.709 Q120.598 310.857 120.598 316.297 Q120.598 321.621 117.45 324.838 Q114.302 328.056 109.071 328.056 Q103.075 328.056 99.9039 323.473 Q96.7326 318.866 96.7326 310.139 Q96.7326 301.945 100.621 297.084 Q104.51 292.2 111.061 292.2 Q112.82 292.2 114.603 292.547 Q116.408 292.894 118.353 293.588 Z" fill="#000000" fill-rule="nonzero" fill-opacity="1" /><polyline clip-path="url(#clip942)" style="stroke:#009af9; stroke-linecap:round; stroke-linejoin:round; stroke-width:8; stroke-opacity:1; fill:none" points="156.598,1043.34 158.797,1039.65 160.995,1035.93 163.193,1032.16 165.392,1028.36 167.59,1024.52 169.788,1020.65 171.987,1016.73 174.185,1012.77 176.383,1008.78 178.582,1004.74 180.78,1000.67 182.979,996.549 185.177,992.39 187.375,988.189 189.574,983.946 191.772,979.66 193.97,975.331 196.169,970.958 198.367,966.542 200.565,962.081 202.764,957.575 204.962,953.024 207.16,948.427 209.359,943.784 211.557,939.094 213.755,934.357 215.954,929.573 218.152,924.74 220.351,919.858 222.549,914.928 224.747,909.948 226.946,904.917 229.144,899.836 231.342,894.704 233.541,889.521 235.739,884.285 237.937,878.997 240.136,873.655 242.334,868.26 244.532,862.81 246.731,857.305 248.929,851.746 251.128,846.13 253.326,840.458 255.524,834.728 257.723,828.941 259.921,823.096 262.119,817.192 264.318,811.229 266.516,805.205 268.714,799.121 270.913,792.976 273.111,786.769 275.309,780.5 277.508,774.167 279.706,767.771 281.905,761.311 284.103,754.785 286.301,748.194 288.5,741.536 290.698,734.812 292.896,728.019 295.095,721.159 297.293,714.229 299.491,707.23 301.69,700.16 303.888,693.02 306.086,685.807 308.285,678.522 310.483,671.163 312.682,663.731 314.88,656.223 317.078,648.641 319.277,640.982 321.475,633.245 323.673,625.432 325.872,617.539 328.07,609.567 330.268,601.515 332.467,593.382 334.665,585.167 336.863,576.869 339.062,568.488 341.26,560.023 343.458,551.472 345.657,542.835 347.855,534.112 350.054,525.301 352.252,516.401 354.45,507.411 356.649,498.331 358.847,489.16 361.045,479.897 363.244,940.25 365.442,935.524 367.64,930.751 369.839,925.93 372.037,921.061 374.235,916.142 376.434,911.174 378.632,906.156 380.831,901.088 383.029,895.969 385.227,890.798 387.426,885.575 389.624,880.299 391.822,874.971 394.021,869.589 396.219,864.152 398.417,858.662 400.616,853.115 402.814,847.513 405.012,1125.91 407.211,1123.05 409.409,1120.16 411.608,1117.25 413.806,1262.13 416.004,1260.64 418.203,1259.14 420.401,1257.62 422.599,1256.09 424.798,1254.54 426.996,1252.98 429.194,1251.4 431.393,1249.81 433.591,1248.19 435.789,1246.57 437.988,1244.92 440.186,1243.26 442.385,1241.59 444.583,1239.89 446.781,1238.18 448.98,1236.45 451.178,1234.71 453.376,1232.94 455.575,1231.16 457.773,1229.37 459.971,1227.55 462.17,1225.71 464.368,1223.86 466.566,1221.99 468.765,1220.1 470.963,1218.19 473.162,1216.26 475.36,1214.31 477.558,1212.34 479.757,1210.35 481.955,1208.34 484.153,1206.32 486.352,1204.27 488.55,1202.2 490.748,1200.11 492.947,1198 495.145,1195.86 497.343,1193.71 499.542,1191.53 501.74,1189.34 503.938,1187.12 506.137,1184.88 508.335,1182.61 510.534,1180.32 512.732,1178.01 514.93,1175.68 517.129,1173.32 519.327,1170.94 521.525,1168.54 523.724,1166.11 525.922,1163.66 528.12,1161.18 530.319,1158.68 532.517,1156.15 534.715,1153.59 536.914,1151.02 539.112,1148.41 541.311,1145.78 543.509,1143.12 545.707,1140.44 547.906,1137.73 550.104,1134.99 552.302,1132.22 554.501,1129.43 556.699,1126.6 558.897,1123.75 561.096,1120.87 563.294,1117.97 565.492,1115.03 567.691,1112.06 569.889,1109.06 572.088,1106.04 574.286,1102.98 576.484,1099.89 578.683,1096.77 580.881,1093.62 583.079,1090.44 585.278,1087.22 587.476,1083.98 589.674,1080.7 591.873,1077.39 594.071,1074.04 596.269,1070.66 598.468,1067.25 600.666,1063.8 602.865,1060.32 605.063,1056.8 607.261,1053.25 609.46,1049.66 611.658,1046.03 613.856,1042.37 616.055,1038.67 618.253,1034.94 620.451,1031.17 622.65,1027.35 624.848,1023.51 627.046,1019.62 629.245,1015.69 631.443,1011.72 633.641,1007.72 635.84,1003.67 638.038,999.584 640.237,995.456 642.435,991.286 644.633,987.074 646.832,982.82 649.03,978.523 651.228,974.183 653.427,969.799 655.625,965.37 657.823,960.898 660.022,956.38 662.22,951.817 664.418,947.208 666.617,942.552 668.815,937.85 671.014,933.101 673.212,928.303 675.41,923.457 677.609,918.563 679.807,913.619 682.005,908.626 684.204,903.582 686.402,898.488 688.6,893.342 690.799,888.145 692.997,882.895 695.195,877.593 697.394,872.237 699.592,866.827 701.791,861.363 703.989,855.844 706.187,850.269 708.386,844.639 710.584,838.951 712.782,833.207 714.981,827.405 717.179,821.544 719.377,815.624 721.576,809.645 723.774,803.606 725.972,797.506 728.171,791.345 730.369,785.122 732.568,778.836 734.766,772.487 736.964,766.074 739.163,759.596 741.361,753.054 743.559,746.445 745.758,739.771 747.956,733.028 750.154,726.219 752.353,719.34 754.551,712.393 756.749,705.375 758.948,698.287 761.146,691.127 763.344,683.896 765.543,676.592 767.741,669.214 769.94,661.762 772.138,654.234 774.336,646.631 776.535,638.952 778.733,631.195 780.931,623.361 783.13,615.447 785.328,607.454 787.526,599.38 789.725,591.225 791.923,582.988 794.121,574.668 796.32,566.265 798.518,557.777 800.717,549.203 802.915,540.544 805.113,531.797 807.312,522.962 809.51,514.039 811.708,505.026 813.907,495.922 816.105,486.726 818.303,477.438 820.502,468.057 822.7,458.581 824.898,449.01 827.097,439.342 829.295,429.577 831.494,419.715 833.692,409.753 835.89,399.69 838.089,389.527 840.287,379.261 842.485,368.892 844.684,358.419 846.882,347.84 849.08,337.155 851.279,326.363 853.477,315.462 855.675,304.451 857.874,293.329 860.072,282.096 862.271,270.749 864.469,259.288 866.667,247.712 868.866,236.02 871.064,224.21 873.262,212.281 875.461,200.231 877.659,188.061 879.857,175.768 882.056,163.352 884.254,150.811 886.452,138.143 888.651,125.348 890.849,112.424 893.048,99.3706 895.246,86.1857 897.444,741.414 899.643,1072.32 901.841,1068.93 904.039,1065.5 906.238,1062.03 908.436,1058.53 910.634,1054.99 912.833,1051.42 915.031,1047.82 917.229,1044.17 919.428,1040.49 921.626,1036.78 923.824,1033.02 926.023,1029.23 928.221,1025.4 930.42,1021.53 932.618,1017.62 934.816,1013.68 937.015,1009.69 939.213,1005.66 941.411,1001.6 943.61,997.488 945.808,993.338 948.006,989.147 950.205,984.913 952.403,980.637 954.601,976.318 956.8,971.955 958.998,967.549 961.197,963.098 963.395,958.603 965.593,954.062 967.792,949.475 969.99,944.843 972.188,940.164 974.387,935.437 976.585,930.664 978.783,925.842 980.982,920.971 983.18,916.052 985.378,911.083 987.577,906.064 989.775,900.995 991.974,895.875 994.172,890.703 996.37,885.479 998.569,880.203 1000.77,874.873 1002.97,869.49 1005.16,864.053 1007.36,858.561 1009.56,853.013 1011.76,847.41 1013.96,841.751 1016.16,836.035 1018.35,830.261 1020.55,824.429 1022.75,818.538 1024.95,812.588 1027.15,1108.27 1029.35,1105.23 1031.54,1102.17 1033.74,1099.07 1035.94,1095.94 1038.14,1092.79 1040.34,1089.59 1042.54,1086.37 1044.73,1083.12 1046.93,1079.83 1049.13,1076.51 1051.33,1073.15 1053.53,1069.76 1055.73,1066.34 1057.92,1062.88 1060.12,1059.39 1062.32,1055.87 1064.52,1052.3 1066.72,1048.71 1068.92,1045.07 1071.11,1041.4 1073.31,1037.69 1075.51,1033.95 1077.71,1030.16 1079.91,1026.34 1082.11,1022.48 1084.3,1018.59 1086.5,1014.65 1088.7,1010.67 1090.9,1006.66 1093.1,1002.6 1095.3,998.5 1097.49,994.36 1099.69,990.179 1101.89,985.956 1104.09,981.69 1106.29,977.382 1108.49,973.03 1110.68,968.634 1112.88,964.194 1115.08,959.71 1117.28,955.18 1119.48,950.605 1121.68,945.984 1123.87,941.316 1126.07,936.601 1128.27,931.839 1130.47,927.029 1132.67,922.171 1134.87,917.264 1137.07,912.307 1139.26,907.301 1141.46,902.244 1143.66,897.136 1145.86,891.977 1148.06,886.766 1150.26,881.503 1152.45,876.186 1154.65,870.817 1156.85,865.393 1159.05,859.914 1161.25,854.381 1163.45,848.791 1165.64,843.146 1167.84,837.444 1170.04,831.684 1172.24,825.866 1174.44,819.99 1176.64,814.055 1178.83,808.06 1181.03,802.004 1183.23,795.888 1185.43,789.71 1187.63,783.47 1189.83,777.168 1192.02,770.801 1194.22,764.371 1196.42,757.877 1198.62,751.316 1200.82,744.69 1203.02,737.998 1205.21,1070.6 1207.41,1067.18 1209.61,1063.74 1211.81,1060.25 1214.01,1056.73 1216.21,1053.18 1218.4,1049.59 1220.6,1045.97 1222.8,1042.3 1225,1038.61 1227.2,1034.87 1229.4,1031.1 1231.59,1027.28 1233.79,1023.44 1235.99,1019.55 1238.19,1015.62 1240.39,1011.65 1242.59,1007.64 1244.78,1003.6 1246.98,999.509 1249.18,995.38 1251.38,991.209 1253.58,986.996 1255.78,982.741 1257.97,978.443 1260.17,974.102 1262.37,969.717 1264.57,965.288 1266.77,960.815 1268.97,956.296 1271.16,951.732 1273.36,947.122 1275.56,942.466 1277.76,937.763 1279.96,933.013 1282.16,928.214 1284.35,923.368 1286.55,918.473 1288.75,913.528 1290.95,908.534 1293.15,903.489 1295.35,898.394 1297.55,893.248 1299.74,888.05 1301.94,882.799 1304.14,1143.73 1306.34,1141.05 1308.54,1138.34 1310.74,1135.61 1312.93,1132.85 1315.13,1130.06 1317.33,1127.25 1319.53,1124.4 1321.73,1121.53 1323.93,1118.63 1326.12,1115.7 1328.32,1112.74 1330.52,1109.75 1332.72,1106.73 1334.92,1103.68 1337.12,1100.6 1339.31,1097.48 1341.51,1094.34 1343.71,1250.56 1345.91,1248.96 1348.11,1247.34 1350.31,1245.7 1352.5,1244.05 1354.7,1242.38 1356.9,1240.7 1359.1,1238.99 1361.3,1237.27 1363.5,1235.53 1365.69,1233.78 1367.89,1232.01 1370.09,1230.22 1372.29,1228.41 1374.49,1226.58 1376.69,1224.74 1378.88,1222.87 1381.08,1220.99 1383.28,1219.09 1385.48,1217.17 1387.68,1215.23 1389.88,1213.27 1392.07,1211.29 1394.27,1209.3 1396.47,1207.28 1398.67,1205.24 1400.87,1203.18 1403.07,1201.1 1405.26,1199 1407.46,1196.87 1409.66,1194.73 1411.86,1192.57 1414.06,1190.38 1416.26,1188.17 1418.45,1185.94 1420.65,1183.68 1422.85,1181.41 1425.05,1179.11 1427.25,1293.37 1429.45,1292.2 1431.64,1291.02 1433.84,1289.82 1436.04,1288.61 1438.24,1287.39 1440.44,1286.16 1442.64,1284.91 1444.83,1283.65 1447.03,1282.38 1449.23,1281.1 1451.43,1279.8 1453.63,1278.49 1455.83,1277.17 1458.03,1275.83 1460.22,1274.48 1462.42,1273.12 1464.62,1271.75 1466.82,1270.35 1469.02,1268.95 1471.22,1267.53 1473.41,1266.1 1475.61,1264.65 1477.81,1263.19 1480.01,1261.71 1482.21,1260.22 1484.41,1258.72 1486.6,1257.19 1488.8,1255.66 1491,1254.1 1493.2,1252.54 1495.4,1250.95 1497.6,1249.35 1499.79,1247.74 1501.99,1246.11 1504.19,1244.46 1506.39,1242.79 1508.59,1241.11 1510.79,1239.41 1512.98,1237.7 1515.18,1235.96 1517.38,1234.21 1519.58,1232.44 1521.78,1230.66 1523.98,1228.85 1526.17,1227.03 1528.37,1225.19 1530.57,1223.33 1532.77,1221.46 1534.97,1219.56 1537.17,1217.64 1539.36,1215.71 1541.56,1213.76 1543.76,1211.78 1545.96,1209.79 1548.16,1207.77 1550.36,1307.85 1552.55,1306.82 1554.75,1305.78 1556.95,1304.74 1559.15,1303.68 1561.35,1302.61 1563.55,1301.53 1565.74,1300.44 1567.94,1299.34 1570.14,1298.22 1572.34,1297.1 1574.54,1295.96 1576.74,1294.82 1578.93,1293.66 1581.13,1292.49 1583.33,1291.31 1585.53,1290.11 1587.73,1288.91 1589.93,1287.69 1592.12,1286.46 1594.32,1285.22 1596.52,1283.96 1598.72,1282.69 1600.92,1281.41 1603.12,1280.12 1605.31,1278.82 1607.51,1277.5 1609.71,1276.16 1611.91,1274.82 1614.11,1273.46 1616.31,1272.08 1618.5,1270.7 1620.7,1269.3 1622.9,1267.88 1625.1,1266.45 1627.3,1265.01 1629.5,1263.55 1631.7,1262.08 1633.89,1260.59 1636.09,1259.09 1638.29,1257.57 1640.49,1256.04 1642.69,1254.49 1644.89,1252.92 1647.08,1251.34 1649.28,1249.75 1651.48,1248.14 1653.68,1246.51 1655.88,1244.86 1658.08,1243.2 1660.27,1241.52 1662.47,1239.83 1664.67,1238.12 1666.87,1236.39 1669.07,1322.3 1671.27,1321.42 1673.46,1320.53 1675.66,1319.63 1677.86,1318.72 1680.06,1317.8 1682.26,1316.88 1684.46,1315.94 1686.65,1314.99 1688.85,1314.04 1691.05,1313.07 1693.25,1312.1 1695.45,1311.11 1697.65,1310.12 1699.84,1359.54 1702.04,1359.03 1704.24,1384.24 1706.44,1383.98 1708.64,1383.72 1710.84,1383.45 1713.03,1383.19 1715.23,1382.92 1717.43,1382.65 1719.63,1382.37 1721.83,1382.09 1724.03,1381.81 1726.22,1381.53 1728.42,1381.24 1730.62,1380.96 1732.82,1380.66 1735.02,1380.37 1737.22,1380.07 1739.41,1379.77 1741.61,1379.47 1743.81,1379.16 1746.01,1378.85 1748.21,1378.54 1750.41,1378.22 1752.6,1377.9 1754.8,1377.58 1757,1377.25 1759.2,1376.92 1761.4,1376.59 1763.6,1376.26 1765.79,1375.92 1767.99,1375.58 1770.19,1375.23 1772.39,1374.88 1774.59,1374.53 1776.79,1374.17 1778.98,1373.81 1781.18,1373.45 1783.38,1373.08 1785.58,1372.71 1787.78,1372.33 1789.98,1371.96 1792.18,1371.57 1794.37,1371.19 1796.57,1370.8 1798.77,1370.4 1800.97,1370 1803.17,1369.6 1805.37,1369.2 1807.56,1368.79 1809.76,1368.37 1811.96,1367.95 1814.16,1367.53 1816.36,1367.1 1818.56,1366.67 1820.75,1366.24 1822.95,1365.8 1825.15,1365.35 1827.35,1364.9 1829.55,1364.45 1831.75,1363.99 1833.94,1363.53 1836.14,1363.06 1838.34,1362.59 1840.54,1362.12 1842.74,1361.63 1844.94,1361.15 1847.13,1360.66 1849.33,1360.16 1851.53,1359.66 1853.73,1359.15 1855.93,1358.64 1858.13,1358.13 1860.32,1357.61 1862.52,1357.08 1864.72,1356.55 1866.92,1356.01 1869.12,1355.47 1871.32,1354.92 1873.51,1354.37 1875.71,1353.81 1877.91,1353.24 1880.11,1352.67 1882.31,1352.09 1884.51,1351.51 1886.7,1350.92 1888.9,1350.33 1891.1,1349.73 1893.3,1349.12 1895.5,1348.51 1897.7,1347.89 1899.89,1347.27 1902.09,1346.64 1904.29,1346 1906.49,1345.36 1908.69,1344.71 1910.89,1344.05 1913.08,1343.39 1915.28,1342.72 1917.48,1342.04 1919.68,1341.36 1921.88,1340.67 1924.08,1339.97 1926.27,1339.27 1928.47,1338.56 1930.67,1337.84 1932.87,1337.11 1935.07,1336.38 1937.27,1335.64 1939.46,1334.89 1941.66,1334.14 1943.86,1333.37 1946.06,1332.6 1948.26,1331.83 1950.46,1331.04 1952.66,1330.25 1954.85,1329.44 1957.05,1328.63 1959.25,1327.82 1961.45,1326.99 1963.65,1326.15 1965.85,1325.31 1968.04,1324.46 1970.24,1323.6 1972.44,1322.73 1974.64,1321.85 1976.84,1320.97 1979.04,1320.07 1981.23,1319.17 1983.43,1318.25 1985.63,1317.33 1987.83,1316.4 1990.03,1315.46 1992.23,1314.51 1994.42,1313.55 1996.62,1312.58 1998.82,1311.6 2001.02,1310.61 2003.22,1309.61 2005.42,1308.6 2007.61,1307.58 2009.81,1306.55 2012.01,1305.51 2014.21,1304.46 2016.41,1303.4 2018.61,1302.33 2020.8,1301.24 2023,1300.15 2025.2,1299.04 2027.4,1353.94 2029.6,1353.38 2031.8,1352.81 2033.99,1352.24 2036.19,1351.66 2038.39,1351.07 2040.59,1350.48 2042.79,1349.88 2044.99,1349.27 2047.18,1348.66 2049.38,1348.05 2051.58,1347.42 2053.78,1346.79 2055.98,1346.16 2058.18,1345.52 2060.37,1344.87 2062.57,1344.21 2064.77,1343.55 2066.97,1342.88 2069.17,1342.21 2071.37,1341.53 2073.56,1340.84 2075.76,1340.14 2077.96,1339.44 2080.16,1338.73 2082.36,1338.02 2084.56,1337.29 2086.75,1336.56 2088.95,1335.82 2091.15,1335.08 2093.35,1372.14 2095.55,1371.76 2097.75,1371.38 2099.94,1370.99 2102.14,1370.6 2104.34,1370.2 2106.54,1369.8 2108.74,1369.4 2110.94,1368.99 2113.14,1368.58 2115.33,1368.16 2117.53,1367.74 2119.73,1367.31 2121.93,1366.89 2124.13,1366.45 2126.33,1366.01 2128.52,1365.57 2130.72,1365.13 2132.92,1364.67 2135.12,1364.22 2137.32,1363.76 2139.52,1363.29 2141.71,1362.82 2143.91,1362.35 2146.11,1361.87 2148.31,1361.39 2150.51,1360.9 2152.71,1360.41 2154.9,1359.91 2157.1,1359.4 2159.3,1358.9 2161.5,1358.38 2163.7,1357.86 2165.9,1357.34 2168.09,1356.81 2170.29,1356.27 2172.49,1355.73 2174.69,1355.19 2176.89,1354.64 2179.09,1354.08 2181.28,1353.52 2183.48,1352.95 2185.68,1352.38 2187.88,1351.8 2190.08,1351.21 2192.28,1350.62 2194.47,1350.03 2196.67,1349.42 2198.87,1348.81 2201.07,1348.2 2203.27,1347.58 2205.47,1346.95 2207.66,1346.32 2209.86,1345.68 2212.06,1345.03 2214.26,1344.38 2216.46,1343.72 2218.66,1343.05 2220.85,1342.38 2223.05,1341.7 2225.25,1341.01 2227.45,1340.32 2229.65,1339.61 2231.85,1338.91 2234.04,1338.19 2236.24,1337.47 2238.44,1336.74 2240.64,1336 2242.84,1335.26 2245.04,1334.51 2247.23,1371.85 2249.43,1371.47 2251.63,1371.08 2253.83,1370.69 2256.03,1370.3 2258.23,1369.9 2260.42,1369.5 2262.62,1369.09 2264.82,1368.68 2267.02,1368.26 2269.22,1367.84 2271.42,1367.42 2273.62,1366.99 2275.81,1366.56 2278.01,1366.12 2280.21,1365.68 2282.41,1365.24 2284.61,1364.79 2286.81,1364.33 2289,1363.87 2291.2,1363.41 2293.4,1362.94 2295.6,1362.47 2297.8,1361.99 2300,1361.51 2302.19,1361.02 2304.39,1360.53 2306.59,1360.03 2308.79,1359.53 2310.99,1359.02 2313.19,1358.51 2315.38,1357.99 2317.58,1357.47 2319.78,1356.94 2321.98,1356.41 2324.18,1355.87 2326.38,1355.32 2328.57,1354.77 2330.77,1354.22 2332.97,1353.66 2335.17,1353.09 2337.37,1352.52 2339.57,1351.94 2341.76,1351.36 2343.96,1350.77 2346.16,1350.17 2348.36,1349.57 2350.56,1348.96 2352.76,1348.35 "/>
<path clip-path="url(#clip940)" d="M1970.84 196.789 L2279.55 196.789 L2279.55 93.1086 L1970.84 93.1086  Z" fill="#ffffff" fill-rule="evenodd" fill-opacity="1"/>
<polyline clip-path="url(#clip940)" style="stroke:#000000; stroke-linecap:round; stroke-linejoin:round; stroke-width:4; stroke-opacity:1; fill:none" points="1970.84,196.789 2279.55,196.789 2279.55,93.1086 1970.84,93.1086 1970.84,196.789 "/>
<polyline clip-path="url(#clip940)" style="stroke:#009af9; stroke-linecap:round; stroke-linejoin:round; stroke-width:8; stroke-opacity:1; fill:none" points="1995.24,144.949 2141.65,144.949 "/>
<path clip-path="url(#clip940)" d="M2166.05 151.997 L2166.05 136.303 L2170.31 136.303 L2170.31 151.835 Q2170.31 155.516 2171.75 157.368 Q2173.18 159.196 2176.05 159.196 Q2179.5 159.196 2181.49 156.997 Q2183.51 154.798 2183.51 151.002 L2183.51 136.303 L2187.76 136.303 L2187.76 162.229 L2183.51 162.229 L2183.51 158.247 Q2181.95 160.608 2179.89 161.766 Q2177.86 162.9 2175.15 162.9 Q2170.68 162.9 2168.37 160.122 Q2166.05 157.344 2166.05 151.997 M2176.77 135.678 L2176.77 135.678 Z" fill="#000000" fill-rule="nonzero" fill-opacity="1" /><path clip-path="url(#clip940)" d="M2196.14 126.21 L2205.96 126.21 L2205.96 129.52 L2200.4 129.52 L2200.4 165.168 L2205.96 165.168 L2205.96 168.479 L2196.14 168.479 L2196.14 126.21 Z" fill="#000000" fill-rule="nonzero" fill-opacity="1" /><path clip-path="url(#clip940)" d="M2216.45 158.293 L2224.08 158.293 L2224.08 131.928 L2215.77 133.595 L2215.77 129.335 L2224.04 127.669 L2228.71 127.669 L2228.71 158.293 L2236.35 158.293 L2236.35 162.229 L2216.45 162.229 L2216.45 158.293 Z" fill="#000000" fill-rule="nonzero" fill-opacity="1" /><path clip-path="url(#clip940)" d="M2255.15 126.21 L2255.15 168.479 L2245.33 168.479 L2245.33 165.168 L2250.87 165.168 L2250.87 129.52 L2245.33 129.52 L2245.33 126.21 L2255.15 126.21 Z" fill="#000000" fill-rule="nonzero" fill-opacity="1" /></svg>
