<?xml version="1.0" encoding="utf-8"?>
<svg xmlns="http://www.w3.org/2000/svg" xmlns:xlink="http://www.w3.org/1999/xlink" width="600" height="400" viewBox="0 0 2400 1600">
<defs>
  <clipPath id="clip160">
    <rect x="0" y="0" width="2400" height="1600"/>
  </clipPath>
</defs>
<path clip-path="url(#clip160)" d="M0 1600 L2400 1600 L2400 0 L0 0  Z" fill="#ffffff" fill-rule="evenodd" fill-opacity="1"/>
<defs>
  <clipPath id="clip161">
    <rect x="480" y="0" width="1681" height="1600"/>
  </clipPath>
</defs>
<path clip-path="url(#clip160)" d="M155.765 1423.18 L2352.76 1423.18 L2352.76 47.2441 L155.765 47.2441  Z" fill="#ffffff" fill-rule="evenodd" fill-opacity="1"/>
<defs>
  <clipPath id="clip162">
    <rect x="155" y="47" width="2198" height="1377"/>
  </clipPath>
</defs>
<polyline clip-path="url(#clip162)" style="stroke:#000000; stroke-linecap:round; stroke-linejoin:round; stroke-width:2; stroke-opacity:0.1; fill:none" points="155.765,1423.18 155.765,47.2441 "/>
<polyline clip-path="url(#clip162)" style="stroke:#000000; stroke-linecap:round; stroke-linejoin:round; stroke-width:2; stroke-opacity:0.1; fill:none" points="595.163,1423.18 595.163,47.2441 "/>
<polyline clip-path="url(#clip162)" style="stroke:#000000; stroke-linecap:round; stroke-linejoin:round; stroke-width:2; stroke-opacity:0.1; fill:none" points="1034.56,1423.18 1034.56,47.2441 "/>
<polyline clip-path="url(#clip162)" style="stroke:#000000; stroke-linecap:round; stroke-linejoin:round; stroke-width:2; stroke-opacity:0.1; fill:none" points="1473.96,1423.18 1473.96,47.2441 "/>
<polyline clip-path="url(#clip162)" style="stroke:#000000; stroke-linecap:round; stroke-linejoin:round; stroke-width:2; stroke-opacity:0.1; fill:none" points="1913.36,1423.18 1913.36,47.2441 "/>
<polyline clip-path="url(#clip162)" style="stroke:#000000; stroke-linecap:round; stroke-linejoin:round; stroke-width:2; stroke-opacity:0.1; fill:none" points="2352.76,1423.18 2352.76,47.2441 "/>
<polyline clip-path="url(#clip162)" style="stroke:#000000; stroke-linecap:round; stroke-linejoin:round; stroke-width:2; stroke-opacity:0.1; fill:none" points="155.765,1246.24 2352.76,1246.24 "/>
<polyline clip-path="url(#clip162)" style="stroke:#000000; stroke-linecap:round; stroke-linejoin:round; stroke-width:2; stroke-opacity:0.1; fill:none" points="155.765,1016.24 2352.76,1016.24 "/>
<polyline clip-path="url(#clip162)" style="stroke:#000000; stroke-linecap:round; stroke-linejoin:round; stroke-width:2; stroke-opacity:0.1; fill:none" points="155.765,786.234 2352.76,786.234 "/>
<polyline clip-path="url(#clip162)" style="stroke:#000000; stroke-linecap:round; stroke-linejoin:round; stroke-width:2; stroke-opacity:0.1; fill:none" points="155.765,556.233 2352.76,556.233 "/>
<polyline clip-path="url(#clip162)" style="stroke:#000000; stroke-linecap:round; stroke-linejoin:round; stroke-width:2; stroke-opacity:0.1; fill:none" points="155.765,326.231 2352.76,326.231 "/>
<polyline clip-path="url(#clip162)" style="stroke:#000000; stroke-linecap:round; stroke-linejoin:round; stroke-width:2; stroke-opacity:0.1; fill:none" points="155.765,96.2298 2352.76,96.2298 "/>
<polyline clip-path="url(#clip160)" style="stroke:#000000; stroke-linecap:round; stroke-linejoin:round; stroke-width:4; stroke-opacity:1; fill:none" points="155.765,1423.18 2352.76,1423.18 "/>
<polyline clip-path="url(#clip160)" style="stroke:#000000; stroke-linecap:round; stroke-linejoin:round; stroke-width:4; stroke-opacity:1; fill:none" points="155.765,1423.18 155.765,1404.28 "/>
<polyline clip-path="url(#clip160)" style="stroke:#000000; stroke-linecap:round; stroke-linejoin:round; stroke-width:4; stroke-opacity:1; fill:none" points="595.163,1423.18 595.163,1404.28 "/>
<polyline clip-path="url(#clip160)" style="stroke:#000000; stroke-linecap:round; stroke-linejoin:round; stroke-width:4; stroke-opacity:1; fill:none" points="1034.56,1423.18 1034.56,1404.28 "/>
<polyline clip-path="url(#clip160)" style="stroke:#000000; stroke-linecap:round; stroke-linejoin:round; stroke-width:4; stroke-opacity:1; fill:none" points="1473.96,1423.18 1473.96,1404.28 "/>
<polyline clip-path="url(#clip160)" style="stroke:#000000; stroke-linecap:round; stroke-linejoin:round; stroke-width:4; stroke-opacity:1; fill:none" points="1913.36,1423.18 1913.36,1404.28 "/>
<polyline clip-path="url(#clip160)" style="stroke:#000000; stroke-linecap:round; stroke-linejoin:round; stroke-width:4; stroke-opacity:1; fill:none" points="2352.76,1423.18 2352.76,1404.28 "/>
<path clip-path="url(#clip160)" d="M155.765 1454.1 Q152.154 1454.1 150.325 1457.66 Q148.52 1461.2 148.52 1468.33 Q148.52 1475.44 150.325 1479.01 Q152.154 1482.55 155.765 1482.55 Q159.399 1482.55 161.205 1479.01 Q163.033 1475.44 163.033 1468.33 Q163.033 1461.2 161.205 1457.66 Q159.399 1454.1 155.765 1454.1 M155.765 1450.39 Q161.575 1450.39 164.631 1455 Q167.709 1459.58 167.709 1468.33 Q167.709 1477.06 164.631 1481.67 Q161.575 1486.25 155.765 1486.25 Q149.955 1486.25 146.876 1481.67 Q143.821 1477.06 143.821 1468.33 Q143.821 1459.58 146.876 1455 Q149.955 1450.39 155.765 1450.39 Z" fill="#000000" fill-rule="nonzero" fill-opacity="1" /><path clip-path="url(#clip160)" d="M589.816 1481.64 L606.135 1481.64 L606.135 1485.58 L584.191 1485.58 L584.191 1481.64 Q586.853 1478.89 591.436 1474.26 Q596.043 1469.61 597.223 1468.27 Q599.469 1465.74 600.348 1464.01 Q601.251 1462.25 601.251 1460.56 Q601.251 1457.8 599.307 1456.07 Q597.385 1454.33 594.283 1454.33 Q592.084 1454.33 589.631 1455.09 Q587.2 1455.86 584.422 1457.41 L584.422 1452.69 Q587.246 1451.55 589.7 1450.97 Q592.154 1450.39 594.191 1450.39 Q599.561 1450.39 602.756 1453.08 Q605.95 1455.77 605.95 1460.26 Q605.95 1462.39 605.14 1464.31 Q604.353 1466.2 602.246 1468.8 Q601.668 1469.47 598.566 1472.69 Q595.464 1475.88 589.816 1481.64 Z" fill="#000000" fill-rule="nonzero" fill-opacity="1" /><path clip-path="url(#clip160)" d="M1037.57 1455.09 L1025.77 1473.54 L1037.57 1473.54 L1037.57 1455.09 M1036.34 1451.02 L1042.22 1451.02 L1042.22 1473.54 L1047.15 1473.54 L1047.15 1477.43 L1042.22 1477.43 L1042.22 1485.58 L1037.57 1485.58 L1037.57 1477.43 L1021.97 1477.43 L1021.97 1472.92 L1036.34 1451.02 Z" fill="#000000" fill-rule="nonzero" fill-opacity="1" /><path clip-path="url(#clip160)" d="M1474.36 1466.44 Q1471.22 1466.44 1469.36 1468.59 Q1467.54 1470.74 1467.54 1474.49 Q1467.54 1478.22 1469.36 1480.39 Q1471.22 1482.55 1474.36 1482.55 Q1477.51 1482.55 1479.34 1480.39 Q1481.19 1478.22 1481.19 1474.49 Q1481.19 1470.74 1479.34 1468.59 Q1477.51 1466.44 1474.36 1466.44 M1483.65 1451.78 L1483.65 1456.04 Q1481.89 1455.21 1480.08 1454.77 Q1478.3 1454.33 1476.54 1454.33 Q1471.91 1454.33 1469.46 1457.45 Q1467.03 1460.58 1466.68 1466.9 Q1468.05 1464.89 1470.11 1463.82 Q1472.17 1462.73 1474.64 1462.73 Q1479.85 1462.73 1482.86 1465.9 Q1485.89 1469.05 1485.89 1474.49 Q1485.89 1479.82 1482.74 1483.03 Q1479.6 1486.25 1474.36 1486.25 Q1468.37 1486.25 1465.2 1481.67 Q1462.03 1477.06 1462.03 1468.33 Q1462.03 1460.14 1465.92 1455.28 Q1469.8 1450.39 1476.36 1450.39 Q1478.11 1450.39 1479.9 1450.74 Q1481.7 1451.09 1483.65 1451.78 Z" fill="#000000" fill-rule="nonzero" fill-opacity="1" /><path clip-path="url(#clip160)" d="M1913.36 1469.17 Q1910.02 1469.17 1908.1 1470.95 Q1906.2 1472.73 1906.2 1475.86 Q1906.2 1478.98 1908.1 1480.77 Q1910.02 1482.55 1913.36 1482.55 Q1916.69 1482.55 1918.61 1480.77 Q1920.53 1478.96 1920.53 1475.86 Q1920.53 1472.73 1918.61 1470.95 Q1916.71 1469.17 1913.36 1469.17 M1908.68 1467.18 Q1905.67 1466.44 1903.98 1464.38 Q1902.32 1462.32 1902.32 1459.35 Q1902.32 1455.21 1905.26 1452.8 Q1908.22 1450.39 1913.36 1450.39 Q1918.52 1450.39 1921.46 1452.8 Q1924.4 1455.21 1924.4 1459.35 Q1924.4 1462.32 1922.71 1464.38 Q1921.04 1466.44 1918.06 1467.18 Q1921.44 1467.96 1923.31 1470.26 Q1925.21 1472.55 1925.21 1475.86 Q1925.21 1480.88 1922.13 1483.57 Q1919.08 1486.25 1913.36 1486.25 Q1907.64 1486.25 1904.56 1483.57 Q1901.51 1480.88 1901.51 1475.86 Q1901.51 1472.55 1903.4 1470.26 Q1905.3 1467.96 1908.68 1467.18 M1906.97 1459.79 Q1906.97 1462.48 1908.64 1463.98 Q1910.33 1465.49 1913.36 1465.49 Q1916.37 1465.49 1918.06 1463.98 Q1919.77 1462.48 1919.77 1459.79 Q1919.77 1457.11 1918.06 1455.6 Q1916.37 1454.1 1913.36 1454.1 Q1910.33 1454.1 1908.64 1455.6 Q1906.97 1457.11 1906.97 1459.79 Z" fill="#000000" fill-rule="nonzero" fill-opacity="1" /><path clip-path="url(#clip160)" d="M2327.44 1481.64 L2335.08 1481.64 L2335.08 1455.28 L2326.77 1456.95 L2326.77 1452.69 L2335.04 1451.02 L2339.71 1451.02 L2339.71 1481.64 L2347.35 1481.64 L2347.35 1485.58 L2327.44 1485.58 L2327.44 1481.64 Z" fill="#000000" fill-rule="nonzero" fill-opacity="1" /><path clip-path="url(#clip160)" d="M2366.8 1454.1 Q2363.18 1454.1 2361.36 1457.66 Q2359.55 1461.2 2359.55 1468.33 Q2359.55 1475.44 2361.36 1479.01 Q2363.18 1482.55 2366.8 1482.55 Q2370.43 1482.55 2372.23 1479.01 Q2374.06 1475.44 2374.06 1468.33 Q2374.06 1461.2 2372.23 1457.66 Q2370.43 1454.1 2366.8 1454.1 M2366.8 1450.39 Q2372.61 1450.39 2375.66 1455 Q2378.74 1459.58 2378.74 1468.33 Q2378.74 1477.06 2375.66 1481.67 Q2372.61 1486.25 2366.8 1486.25 Q2360.99 1486.25 2357.91 1481.67 Q2354.85 1477.06 2354.85 1468.33 Q2354.85 1459.58 2357.91 1455 Q2360.99 1450.39 2366.8 1450.39 Z" fill="#000000" fill-rule="nonzero" fill-opacity="1" /><path clip-path="url(#clip160)" d="M1253.32 1522.27 L1253.32 1532.4 L1265.38 1532.4 L1265.38 1536.95 L1253.32 1536.95 L1253.32 1556.3 Q1253.32 1560.66 1254.5 1561.9 Q1255.71 1563.14 1259.37 1563.14 L1265.38 1563.14 L1265.38 1568.04 L1259.37 1568.04 Q1252.59 1568.04 1250.01 1565.53 Q1247.43 1562.98 1247.43 1556.3 L1247.43 1536.95 L1243.14 1536.95 L1243.14 1532.4 L1247.43 1532.4 L1247.43 1522.27 L1253.32 1522.27 Z" fill="#000000" fill-rule="nonzero" fill-opacity="1" /><polyline clip-path="url(#clip160)" style="stroke:#000000; stroke-linecap:round; stroke-linejoin:round; stroke-width:4; stroke-opacity:1; fill:none" points="155.765,1423.18 155.765,47.2441 "/>
<polyline clip-path="url(#clip160)" style="stroke:#000000; stroke-linecap:round; stroke-linejoin:round; stroke-width:4; stroke-opacity:1; fill:none" points="155.765,1246.24 174.663,1246.24 "/>
<polyline clip-path="url(#clip160)" style="stroke:#000000; stroke-linecap:round; stroke-linejoin:round; stroke-width:4; stroke-opacity:1; fill:none" points="155.765,1016.24 174.663,1016.24 "/>
<polyline clip-path="url(#clip160)" style="stroke:#000000; stroke-linecap:round; stroke-linejoin:round; stroke-width:4; stroke-opacity:1; fill:none" points="155.765,786.234 174.663,786.234 "/>
<polyline clip-path="url(#clip160)" style="stroke:#000000; stroke-linecap:round; stroke-linejoin:round; stroke-width:4; stroke-opacity:1; fill:none" points="155.765,556.233 174.663,556.233 "/>
<polyline clip-path="url(#clip160)" style="stroke:#000000; stroke-linecap:round; stroke-linejoin:round; stroke-width:4; stroke-opacity:1; fill:none" points="155.765,326.231 174.663,326.231 "/>
<polyline clip-path="url(#clip160)" style="stroke:#000000; stroke-linecap:round; stroke-linejoin:round; stroke-width:4; stroke-opacity:1; fill:none" points="155.765,96.2298 174.663,96.2298 "/>
<path clip-path="url(#clip160)" d="M63.5847 1232.04 Q59.9736 1232.04 58.1449 1235.6 Q56.3393 1239.14 56.3393 1246.27 Q56.3393 1253.38 58.1449 1256.94 Q59.9736 1260.48 63.5847 1260.48 Q67.2189 1260.48 69.0244 1256.94 Q70.8531 1253.38 70.8531 1246.27 Q70.8531 1239.14 69.0244 1235.6 Q67.2189 1232.04 63.5847 1232.04 M63.5847 1228.33 Q69.3948 1228.33 72.4503 1232.94 Q75.529 1237.52 75.529 1246.27 Q75.529 1255 72.4503 1259.61 Q69.3948 1264.19 63.5847 1264.19 Q57.7745 1264.19 54.6958 1259.61 Q51.6403 1255 51.6403 1246.27 Q51.6403 1237.52 54.6958 1232.94 Q57.7745 1228.33 63.5847 1228.33 Z" fill="#000000" fill-rule="nonzero" fill-opacity="1" /><path clip-path="url(#clip160)" d="M83.7466 1257.64 L88.6308 1257.64 L88.6308 1263.52 L83.7466 1263.52 L83.7466 1257.64 Z" fill="#000000" fill-rule="nonzero" fill-opacity="1" /><path clip-path="url(#clip160)" d="M98.8622 1228.96 L117.219 1228.96 L117.219 1232.89 L103.145 1232.89 L103.145 1241.36 Q104.163 1241.02 105.182 1240.86 Q106.2 1240.67 107.219 1240.67 Q113.006 1240.67 116.385 1243.84 Q119.765 1247.01 119.765 1252.43 Q119.765 1258.01 116.293 1261.11 Q112.82 1264.19 106.501 1264.19 Q104.325 1264.19 102.057 1263.82 Q99.8113 1263.45 97.4039 1262.71 L97.4039 1258.01 Q99.4872 1259.14 101.709 1259.7 Q103.932 1260.25 106.408 1260.25 Q110.413 1260.25 112.751 1258.15 Q115.089 1256.04 115.089 1252.43 Q115.089 1248.82 112.751 1246.71 Q110.413 1244.61 106.408 1244.61 Q104.534 1244.61 102.659 1245.02 Q100.807 1245.44 98.8622 1246.32 L98.8622 1228.96 Z" fill="#000000" fill-rule="nonzero" fill-opacity="1" /><path clip-path="url(#clip160)" d="M53.3995 1029.58 L61.0384 1029.58 L61.0384 1003.22 L52.7282 1004.88 L52.7282 1000.62 L60.9921 998.956 L65.668 998.956 L65.668 1029.58 L73.3068 1029.58 L73.3068 1033.52 L53.3995 1033.52 L53.3995 1029.58 Z" fill="#000000" fill-rule="nonzero" fill-opacity="1" /><path clip-path="url(#clip160)" d="M82.7512 1027.64 L87.6354 1027.64 L87.6354 1033.52 L82.7512 1033.52 L82.7512 1027.64 Z" fill="#000000" fill-rule="nonzero" fill-opacity="1" /><path clip-path="url(#clip160)" d="M107.821 1002.03 Q104.209 1002.03 102.381 1005.6 Q100.575 1009.14 100.575 1016.27 Q100.575 1023.38 102.381 1026.94 Q104.209 1030.48 107.821 1030.48 Q111.455 1030.48 113.26 1026.94 Q115.089 1023.38 115.089 1016.27 Q115.089 1009.14 113.26 1005.6 Q111.455 1002.03 107.821 1002.03 M107.821 998.331 Q113.631 998.331 116.686 1002.94 Q119.765 1007.52 119.765 1016.27 Q119.765 1025 116.686 1029.6 Q113.631 1034.19 107.821 1034.19 Q102.01 1034.19 98.9317 1029.6 Q95.8761 1025 95.8761 1016.27 Q95.8761 1007.52 98.9317 1002.94 Q102.01 998.331 107.821 998.331 Z" fill="#000000" fill-rule="nonzero" fill-opacity="1" /><path clip-path="url(#clip160)" d="M54.3949 799.579 L62.0337 799.579 L62.0337 773.214 L53.7236 774.88 L53.7236 770.621 L61.9874 768.954 L66.6633 768.954 L66.6633 799.579 L74.3022 799.579 L74.3022 803.514 L54.3949 803.514 L54.3949 799.579 Z" fill="#000000" fill-rule="nonzero" fill-opacity="1" /><path clip-path="url(#clip160)" d="M83.7466 797.635 L88.6308 797.635 L88.6308 803.514 L83.7466 803.514 L83.7466 797.635 Z" fill="#000000" fill-rule="nonzero" fill-opacity="1" /><path clip-path="url(#clip160)" d="M98.8622 768.954 L117.219 768.954 L117.219 772.889 L103.145 772.889 L103.145 781.362 Q104.163 781.014 105.182 780.852 Q106.2 780.667 107.219 780.667 Q113.006 780.667 116.385 783.839 Q119.765 787.01 119.765 792.426 Q119.765 798.005 116.293 801.107 Q112.82 804.186 106.501 804.186 Q104.325 804.186 102.057 803.815 Q99.8113 803.445 97.4039 802.704 L97.4039 798.005 Q99.4872 799.139 101.709 799.695 Q103.932 800.25 106.408 800.25 Q110.413 800.25 112.751 798.144 Q115.089 796.038 115.089 792.426 Q115.089 788.815 112.751 786.709 Q110.413 784.602 106.408 784.602 Q104.534 784.602 102.659 785.019 Q100.807 785.436 98.8622 786.315 L98.8622 768.954 Z" fill="#000000" fill-rule="nonzero" fill-opacity="1" /><path clip-path="url(#clip160)" d="M56.6171 569.578 L72.9365 569.578 L72.9365 573.513 L50.9921 573.513 L50.9921 569.578 Q53.6541 566.823 58.2375 562.193 Q62.8439 557.541 64.0245 556.198 Q66.2698 553.675 67.1494 551.939 Q68.0522 550.18 68.0522 548.49 Q68.0522 545.735 66.1078 543.999 Q64.1865 542.263 61.0847 542.263 Q58.8856 542.263 56.4319 543.027 Q54.0014 543.791 51.2236 545.342 L51.2236 540.619 Q54.0477 539.485 56.5014 538.907 Q58.955 538.328 60.9921 538.328 Q66.3624 538.328 69.5568 541.013 Q72.7513 543.698 72.7513 548.189 Q72.7513 550.318 71.9411 552.24 Q71.1541 554.138 69.0476 556.731 Q68.4689 557.402 65.367 560.619 Q62.2652 563.814 56.6171 569.578 Z" fill="#000000" fill-rule="nonzero" fill-opacity="1" /><path clip-path="url(#clip160)" d="M82.7512 567.633 L87.6354 567.633 L87.6354 573.513 L82.7512 573.513 L82.7512 567.633 Z" fill="#000000" fill-rule="nonzero" fill-opacity="1" /><path clip-path="url(#clip160)" d="M107.821 542.032 Q104.209 542.032 102.381 545.596 Q100.575 549.138 100.575 556.268 Q100.575 563.374 102.381 566.939 Q104.209 570.48 107.821 570.48 Q111.455 570.48 113.26 566.939 Q115.089 563.374 115.089 556.268 Q115.089 549.138 113.26 545.596 Q111.455 542.032 107.821 542.032 M107.821 538.328 Q113.631 538.328 116.686 542.934 Q119.765 547.518 119.765 556.268 Q119.765 564.994 116.686 569.601 Q113.631 574.184 107.821 574.184 Q102.01 574.184 98.9317 569.601 Q95.8761 564.994 95.8761 556.268 Q95.8761 547.518 98.9317 542.934 Q102.01 538.328 107.821 538.328 Z" fill="#000000" fill-rule="nonzero" fill-opacity="1" /><path clip-path="url(#clip160)" d="M57.6125 339.576 L73.9318 339.576 L73.9318 343.511 L51.9875 343.511 L51.9875 339.576 Q54.6495 336.822 59.2328 332.192 Q63.8393 327.539 65.0198 326.197 Q67.2652 323.673 68.1448 321.937 Q69.0476 320.178 69.0476 318.488 Q69.0476 315.734 67.1032 313.998 Q65.1819 312.261 62.08 312.261 Q59.881 312.261 57.4273 313.025 Q54.9967 313.789 52.219 315.34 L52.219 310.618 Q55.043 309.484 57.4967 308.905 Q59.9504 308.326 61.9874 308.326 Q67.3578 308.326 70.5522 311.011 Q73.7466 313.697 73.7466 318.187 Q73.7466 320.317 72.9365 322.238 Q72.1494 324.136 70.0429 326.729 Q69.4642 327.4 66.3624 330.618 Q63.2606 333.812 57.6125 339.576 Z" fill="#000000" fill-rule="nonzero" fill-opacity="1" /><path clip-path="url(#clip160)" d="M83.7466 337.632 L88.6308 337.632 L88.6308 343.511 L83.7466 343.511 L83.7466 337.632 Z" fill="#000000" fill-rule="nonzero" fill-opacity="1" /><path clip-path="url(#clip160)" d="M98.8622 308.951 L117.219 308.951 L117.219 312.886 L103.145 312.886 L103.145 321.359 Q104.163 321.011 105.182 320.849 Q106.2 320.664 107.219 320.664 Q113.006 320.664 116.385 323.835 Q119.765 327.007 119.765 332.423 Q119.765 338.002 116.293 341.104 Q112.82 344.183 106.501 344.183 Q104.325 344.183 102.057 343.812 Q99.8113 343.442 97.4039 342.701 L97.4039 338.002 Q99.4872 339.136 101.709 339.692 Q103.932 340.247 106.408 340.247 Q110.413 340.247 112.751 338.141 Q115.089 336.034 115.089 332.423 Q115.089 328.812 112.751 326.706 Q110.413 324.599 106.408 324.599 Q104.534 324.599 102.659 325.016 Q100.807 325.433 98.8622 326.312 L98.8622 308.951 Z" fill="#000000" fill-rule="nonzero" fill-opacity="1" /><path clip-path="url(#clip160)" d="M66.7559 94.8756 Q70.1124 95.5932 71.9874 97.8617 Q73.8855 100.13 73.8855 103.464 Q73.8855 108.579 70.367 111.38 Q66.8485 114.181 60.3671 114.181 Q58.1912 114.181 55.8764 113.741 Q53.5847 113.325 51.131 112.468 L51.131 107.954 Q53.0754 109.089 55.3903 109.667 Q57.7051 110.246 60.2282 110.246 Q64.6263 110.246 66.918 108.51 Q69.2328 106.774 69.2328 103.464 Q69.2328 100.408 67.08 98.6951 Q64.9504 96.959 61.131 96.959 L57.1032 96.959 L57.1032 93.1164 L61.3161 93.1164 Q64.7652 93.1164 66.5939 91.7507 Q68.4226 90.3618 68.4226 87.7692 Q68.4226 85.1072 66.5245 83.6951 Q64.6495 82.26 61.131 82.26 Q59.2097 82.26 57.0106 82.6766 Q54.8115 83.0933 52.1727 83.9729 L52.1727 79.8063 Q54.8347 79.0655 57.1495 78.6952 Q59.4875 78.3248 61.5476 78.3248 Q66.8717 78.3248 69.9735 80.7553 Q73.0753 83.1627 73.0753 87.2831 Q73.0753 90.1534 71.4318 92.1442 Q69.7883 94.1118 66.7559 94.8756 Z" fill="#000000" fill-rule="nonzero" fill-opacity="1" /><path clip-path="url(#clip160)" d="M82.7512 107.63 L87.6354 107.63 L87.6354 113.51 L82.7512 113.51 L82.7512 107.63 Z" fill="#000000" fill-rule="nonzero" fill-opacity="1" /><path clip-path="url(#clip160)" d="M107.821 82.0285 Q104.209 82.0285 102.381 85.5933 Q100.575 89.1349 100.575 96.2645 Q100.575 103.371 102.381 106.936 Q104.209 110.477 107.821 110.477 Q111.455 110.477 113.26 106.936 Q115.089 103.371 115.089 96.2645 Q115.089 89.1349 113.26 85.5933 Q111.455 82.0285 107.821 82.0285 M107.821 78.3248 Q113.631 78.3248 116.686 82.9313 Q119.765 87.5146 119.765 96.2645 Q119.765 104.991 116.686 109.598 Q113.631 114.181 107.821 114.181 Q102.01 114.181 98.9317 109.598 Q95.8761 104.991 95.8761 96.2645 Q95.8761 87.5146 98.9317 82.9313 Q102.01 78.3248 107.821 78.3248 Z" fill="#000000" fill-rule="nonzero" fill-opacity="1" /><polyline clip-path="url(#clip162)" style="stroke:#009af9; stroke-linecap:round; stroke-linejoin:round; stroke-width:8; stroke-opacity:1; fill:none" points="155.765,1384.24 157.964,1383.31 160.163,1382.38 162.362,1381.43 164.562,1380.48 166.761,1379.52 168.96,1378.54 171.159,1377.56 173.358,1376.57 175.558,1375.57 177.757,1374.55 179.956,1373.53 182.155,1372.5 184.354,1371.45 186.554,1370.4 188.753,1369.33 190.952,1368.26 193.151,1367.17 195.35,1366.07 197.55,1364.97 199.749,1363.85 201.948,1362.72 204.147,1361.57 206.346,1360.42 208.545,1359.26 210.745,1358.08 212.944,1356.89 215.143,1355.69 217.342,1354.48 219.541,1353.25 221.741,1352.01 223.94,1350.76 226.139,1349.5 228.338,1348.23 230.537,1346.94 232.737,1345.64 234.936,1344.32 237.135,1343 239.334,1341.66 241.533,1340.3 243.733,1338.94 245.932,1337.55 248.131,1336.16 250.33,1334.75 252.529,1333.33 254.728,1331.89 256.928,1330.44 259.127,1328.97 261.326,1327.49 263.525,1325.99 265.724,1324.48 267.924,1322.95 270.123,1321.41 272.322,1319.85 274.521,1318.28 276.72,1316.69 278.92,1315.09 281.119,1313.46 283.318,1311.83 285.517,1310.17 287.716,1308.5 289.916,1306.81 292.115,1305.11 294.314,1303.39 296.513,1301.65 298.712,1299.89 300.911,1298.12 303.111,1296.33 305.31,1294.52 307.509,1292.69 309.708,1290.84 311.907,1288.98 314.107,1287.09 316.306,1285.19 318.505,1283.27 320.704,1281.33 322.903,1279.37 325.103,1277.39 327.302,1275.39 329.501,1273.36 331.7,1271.32 333.899,1269.26 336.099,1267.18 338.298,1265.08 340.497,1262.95 342.696,1260.81 344.895,1258.64 347.094,1256.45 349.294,1254.24 351.493,1252.01 353.692,1249.75 355.891,1247.47 358.09,1245.17 360.29,1242.85 362.489,1240.5 364.688,1238.13 366.887,1235.73 369.086,1233.31 371.286,1230.87 373.485,1228.4 375.684,1225.91 377.883,1223.39 380.082,1220.84 382.281,1218.27 384.481,1215.68 386.68,1213.06 388.879,1210.41 391.078,1207.74 393.277,1205.03 395.477,1202.31 397.676,1199.55 399.875,1196.77 402.074,1193.95 404.273,1191.11 406.473,1188.25 408.672,1185.35 410.871,1182.42 413.07,1179.47 415.269,1176.48 417.469,1173.46 419.668,1170.42 421.867,1167.34 424.066,1164.23 426.265,1161.1 428.464,1157.93 430.664,1154.72 432.863,1151.49 435.062,1148.22 437.261,1144.92 439.46,1141.59 441.66,1138.22 443.859,1134.82 446.058,1131.39 448.257,1127.92 450.456,1124.41 452.656,1120.87 454.855,1117.3 457.054,1113.69 459.253,1110.04 461.452,1106.36 463.652,1102.64 465.851,1098.88 468.05,1095.08 470.249,1091.25 472.448,1087.37 474.647,1083.46 476.847,1079.51 479.046,1075.52 481.245,1071.49 483.444,1067.42 485.643,1063.3 487.843,1059.15 490.042,1054.95 492.241,1050.71 494.44,1046.43 496.639,1042.11 498.839,1037.74 501.038,1033.33 503.237,1028.87 505.436,1024.37 507.635,1019.83 509.835,1015.24 512.034,1010.6 514.233,1005.91 516.432,1001.18 518.631,996.402 520.83,991.575 523.03,986.699 525.229,981.774 527.428,976.8 529.627,971.775 531.826,966.7 534.026,961.574 536.225,956.396 538.424,951.167 540.623,945.884 542.822,940.549 545.022,935.159 547.221,929.716 549.42,924.218 551.619,918.664 553.818,913.055 556.018,907.389 558.217,901.667 560.416,895.886 562.615,890.048 564.814,884.15 567.013,878.194 569.213,872.177 571.412,866.1 573.611,859.962 575.81,853.762 578.009,847.5 580.209,841.175 582.408,834.786 584.607,828.333 586.806,821.814 589.005,1145.74 591.205,1142.41 593.404,1139.05 595.603,1135.66 597.802,1132.23 600.001,1128.77 602.201,1125.28 604.4,1121.75 606.599,1118.18 608.798,1114.58 610.997,1110.94 613.196,1107.27 615.396,1103.55 617.595,1099.8 619.794,1096.02 621.993,1092.19 624.192,1088.33 626.392,1084.43 628.591,1080.48 630.79,1076.5 632.989,1072.48 635.188,1068.42 637.388,1064.32 639.587,1060.17 641.786,1055.99 643.985,1051.76 646.184,1047.49 648.384,1043.18 650.583,1038.82 652.782,1034.42 654.981,1029.97 657.18,1025.48 659.379,1020.95 661.579,1016.37 663.778,1011.74 665.977,1007.07 668.176,1002.35 670.375,997.582 672.575,992.767 674.774,1232.07 676.973,1229.62 679.172,1227.14 681.371,1224.63 683.571,1222.1 685.77,1219.54 687.969,1216.96 690.168,1214.35 692.367,1211.72 694.567,1209.05 696.766,1206.37 698.965,1203.65 701.164,1200.91 703.363,1198.14 705.562,1195.34 707.762,1192.52 709.961,1189.66 712.16,1186.78 714.359,1183.87 716.558,1180.93 718.758,1177.95 720.957,1174.95 723.156,1171.92 725.355,1168.86 727.554,1165.77 729.754,1162.65 731.953,1159.49 734.152,1156.31 736.351,1153.09 738.55,1149.84 740.749,1146.55 742.949,1143.24 745.148,1139.89 747.347,1136.5 749.546,1133.08 751.745,1129.63 753.945,1126.14 756.144,1122.62 758.343,1119.07 760.542,1115.47 762.741,1111.84 764.941,1108.18 767.14,1104.47 769.339,1100.73 771.538,1096.96 773.737,1093.14 775.937,1089.29 778.136,1085.39 780.335,1081.46 782.534,1077.49 784.733,1073.48 786.932,1069.42 789.132,1065.33 791.331,1061.2 793.53,1057.02 795.729,1052.8 797.928,1048.54 800.128,1044.24 802.327,1039.9 804.526,1035.51 806.725,1031.07 808.924,1026.59 811.124,1022.07 813.323,1017.5 815.522,1012.89 817.721,1008.22 819.92,1003.52 822.12,998.761 824.319,993.957 826.518,989.105 828.717,984.205 830.916,979.255 833.115,974.255 835.315,969.205 837.514,964.104 839.713,958.952 841.912,953.748 844.111,948.491 846.311,943.182 848.51,937.819 850.709,1204.32 852.908,1201.59 855.107,1198.82 857.307,1196.03 859.506,1193.21 861.705,1190.37 863.904,1187.49 866.103,1184.58 868.303,1181.65 870.502,1178.69 872.701,1175.69 874.9,1172.67 877.099,1169.62 879.298,1166.53 881.498,1163.42 883.697,1160.27 885.896,1157.09 888.095,1153.88 890.294,1150.64 892.494,1147.36 894.693,1144.05 896.892,1140.71 899.091,1137.34 901.29,1133.93 903.49,1130.48 905.689,1127.01 907.888,1123.49 910.087,1119.94 912.286,1116.36 914.486,1112.74 916.685,1109.08 918.884,1105.39 921.083,1101.66 923.282,1097.89 925.481,1094.09 927.681,1090.24 929.88,1086.36 932.079,1082.44 934.278,1078.48 936.477,1074.48 938.677,1070.43 940.876,1066.35 943.075,1062.23 945.274,1058.06 947.473,1053.86 949.673,1049.61 951.872,1045.32 954.071,1040.98 956.27,1036.6 958.469,1032.18 960.669,1027.71 962.868,1023.2 965.067,1018.64 967.266,1014.04 969.465,1009.39 971.664,1004.69 973.864,999.944 976.063,995.152 978.262,990.311 980.461,985.422 982.66,980.483 984.86,975.495 987.059,970.457 989.258,965.368 991.457,960.228 993.656,955.037 995.856,949.793 998.055,944.496 1000.25,939.146 1002.45,933.743 1004.65,928.285 1006.85,922.772 1009.05,917.204 1011.25,911.58 1013.45,905.898 1015.65,900.16 1017.85,894.364 1020.05,888.51 1022.25,882.597 1024.45,876.624 1026.64,870.591 1028.84,864.498 1031.04,858.344 1033.24,852.128 1035.44,845.849 1037.64,839.508 1039.84,833.102 1042.04,826.633 1044.24,820.099 1046.44,813.499 1048.64,806.832 1050.84,800.099 1053.03,793.299 1055.23,786.43 1057.43,779.492 1059.63,772.484 1061.83,765.406 1064.03,758.257 1066.23,751.036 1068.43,743.743 1070.63,736.376 1072.83,728.936 1075.03,721.42 1077.23,713.829 1079.42,706.162 1081.62,698.417 1083.82,690.595 1086.02,682.693 1088.22,674.713 1090.42,666.652 1092.62,658.509 1094.82,650.285 1097.02,641.978 1099.22,633.588 1101.42,625.112 1103.62,616.552 1105.82,607.905 1108.01,599.171 1110.21,590.349 1112.41,581.438 1114.61,572.437 1116.81,563.345 1119.01,554.162 1121.21,544.886 1123.41,535.516 1125.61,526.052 1127.81,516.493 1130.01,506.837 1132.21,497.083 1134.4,487.232 1136.6,477.281 1138.8,467.229 1141,457.077 1143.2,446.822 1145.4,436.463 1147.6,426 1149.8,415.432 1152,404.757 1154.2,393.975 1156.4,383.084 1158.6,372.083 1160.79,360.972 1162.99,349.749 1165.19,338.412 1167.39,326.962 1169.59,315.397 1171.79,303.715 1173.99,291.916 1176.19,279.999 1178.39,267.962 1180.59,255.804 1182.79,243.524 1184.99,231.121 1187.19,218.593 1189.38,205.94 1191.58,193.161 1193.78,180.253 1195.98,167.215 1198.18,154.046 1200.38,140.744 1202.58,127.308 1204.78,113.738 1206.98,100.031 1209.18,86.1857 1211.38,774.216 1213.58,767.154 1215.77,760.02 1217.97,1114.53 1220.17,1110.89 1222.37,1107.21 1224.57,1103.5 1226.77,1099.75 1228.97,1095.96 1231.17,1092.14 1233.37,1088.27 1235.57,1084.37 1237.77,1080.43 1239.97,1076.44 1242.16,1072.42 1244.36,1068.36 1246.56,1064.26 1248.76,1060.11 1250.96,1055.93 1253.16,1051.7 1255.36,1047.43 1257.56,1043.11 1259.76,1038.76 1261.96,1034.35 1264.16,1029.91 1266.36,1025.42 1268.56,1020.88 1270.75,1016.3 1272.95,1011.67 1275.15,1007 1277.35,1002.28 1279.55,997.512 1281.75,992.696 1283.95,1232.04 1286.15,1229.58 1288.35,1227.1 1290.55,1224.6 1292.75,1222.06 1294.95,1219.51 1297.14,1216.92 1299.34,1214.31 1301.54,1211.68 1303.74,1209.02 1305.94,1206.33 1308.14,1203.61 1310.34,1200.87 1312.54,1198.1 1314.74,1195.3 1316.94,1192.48 1319.14,1189.62 1321.34,1186.74 1323.53,1183.83 1325.73,1180.88 1327.93,1177.91 1330.13,1174.91 1332.33,1171.88 1334.53,1168.82 1336.73,1165.73 1338.93,1162.61 1341.13,1159.45 1343.33,1156.27 1345.53,1153.05 1347.73,1149.8 1349.93,1146.51 1352.12,1143.2 1354.32,1139.85 1356.52,1136.46 1358.72,1133.05 1360.92,1129.6 1363.12,1126.11 1365.32,1122.59 1367.52,1119.03 1369.72,1115.44 1371.92,1111.81 1374.12,1108.14 1376.32,1104.44 1378.51,1100.7 1380.71,1096.92 1382.91,1093.11 1385.11,1089.25 1387.31,1085.36 1389.51,1081.43 1391.71,1077.46 1393.91,1073.45 1396.11,1069.39 1398.31,1065.3 1400.51,1061.17 1402.71,1056.99 1404.9,1052.77 1407.1,1048.51 1409.3,1044.21 1411.5,1039.86 1413.7,1035.47 1415.9,1031.04 1418.1,1026.56 1420.3,1022.03 1422.5,1017.46 1424.7,1012.85 1426.9,1008.18 1429.1,1003.47 1431.3,998.715 1433.49,993.91 1435.69,989.056 1437.89,984.154 1440.09,979.202 1442.29,974.201 1444.49,969.149 1446.69,964.047 1448.89,958.893 1451.09,953.688 1453.29,948.43 1455.49,943.119 1457.69,937.756 1459.88,932.338 1462.08,926.866 1464.28,921.34 1466.48,915.757 1468.68,910.118 1470.88,904.423 1473.08,898.67 1475.28,892.86 1477.48,886.991 1479.68,881.063 1481.88,875.075 1484.08,869.027 1486.27,862.919 1488.47,856.748 1490.67,850.516 1492.87,844.221 1495.07,837.863 1497.27,831.441 1499.47,824.954 1501.67,818.402 1503.87,811.785 1506.07,805.1 1508.27,798.348 1510.47,791.529 1512.67,784.64 1514.86,777.683 1517.06,770.655 1519.26,763.557 1521.46,756.387 1523.66,749.145 1525.86,741.831 1528.06,734.442 1530.26,726.98 1532.46,719.442 1534.66,711.828 1536.86,704.138 1539.06,696.37 1541.25,688.524 1543.45,680.599 1545.65,672.595 1547.85,664.51 1550.05,656.344 1552.25,648.095 1554.45,639.764 1556.65,1053.83 1558.85,1049.58 1561.05,1045.29 1563.25,1040.95 1565.45,1036.58 1567.65,1032.15 1569.84,1027.68 1572.04,1023.17 1574.24,1018.61 1576.44,1014.01 1578.64,1009.36 1580.84,1004.66 1583.04,999.919 1585.24,995.127 1587.44,990.287 1589.64,985.398 1591.84,980.46 1594.04,975.473 1596.23,970.435 1598.43,965.347 1600.63,960.207 1602.83,955.015 1605.03,949.772 1607.23,944.475 1609.43,939.126 1611.63,933.722 1613.83,928.264 1616.03,922.752 1618.23,917.183 1620.43,911.559 1622.62,905.878 1624.82,900.14 1627.02,894.344 1629.22,888.49 1631.42,882.577 1633.62,876.605 1635.82,1173.42 1638.02,1170.38 1640.22,1167.3 1642.42,1164.19 1644.62,1161.05 1646.82,1157.88 1649.02,1154.68 1651.21,1151.44 1653.41,1148.17 1655.61,1144.87 1657.81,1141.54 1660.01,1138.17 1662.21,1134.77 1664.41,1131.34 1666.61,1127.87 1668.81,1124.36 1671.01,1120.82 1673.21,1117.25 1675.41,1113.64 1677.6,1109.99 1679.8,1106.3 1682,1102.58 1684.2,1098.82 1686.4,1095.03 1688.6,1091.2 1690.8,1087.32 1693,1083.41 1695.2,1079.46 1697.4,1075.47 1699.6,1071.44 1701.8,1067.37 1703.99,1063.26 1706.19,1059.11 1708.39,1054.91 1710.59,1050.68 1712.79,1046.4 1714.99,1042.07 1717.19,1037.71 1719.39,1033.3 1721.59,1028.84 1723.79,1024.35 1725.99,1019.8 1728.19,1015.21 1730.39,1010.58 1732.58,1005.89 1734.78,1001.16 1736.98,996.385 1739.18,991.56 1741.38,986.685 1743.58,981.762 1745.78,976.789 1747.98,971.765 1750.18,966.691 1752.38,961.566 1754.58,956.389 1756.78,951.16 1758.97,945.878 1761.17,940.543 1763.37,935.154 1765.57,929.711 1767.77,924.213 1769.97,918.659 1772.17,913.049 1774.37,907.382 1776.57,901.659 1778.77,895.877 1780.97,890.038 1783.17,884.139 1785.36,878.181 1787.56,872.162 1789.76,866.083 1791.96,859.943 1794.16,853.741 1796.36,847.476 1798.56,841.148 1800.76,834.756 1802.96,828.3 1805.16,821.779 1807.36,815.193 1809.56,808.54 1811.76,801.82 1813.95,795.032 1816.15,788.176 1818.35,781.252 1820.55,774.257 1822.75,767.193 1824.95,760.057 1827.15,752.851 1829.35,745.571 1831.55,738.219 1833.75,730.793 1835.95,723.293 1838.15,715.718 1840.34,708.067 1842.54,700.339 1844.74,692.533 1846.94,684.649 1849.14,676.685 1851.34,668.642 1853.54,660.517 1855.74,652.311 1857.94,644.022 1860.14,635.649 1862.34,627.193 1864.54,618.651 1866.73,610.023 1868.93,601.309 1871.13,592.507 1873.33,583.616 1875.53,574.636 1877.73,1020.9 1879.93,1016.32 1882.13,1011.69 1884.33,1007.02 1886.53,1002.3 1888.73,997.527 1890.93,992.711 1893.13,987.847 1895.32,982.933 1897.52,977.971 1899.72,972.958 1901.92,967.895 1904.12,962.781 1906.32,957.615 1908.52,952.398 1910.72,947.128 1912.92,941.805 1915.12,936.428 1917.32,930.998 1919.52,925.513 1921.71,919.972 1923.91,914.376 1926.11,908.724 1928.31,903.015 1930.51,897.248 1932.71,891.423 1934.91,885.54 1937.11,879.597 1939.31,873.595 1941.51,867.532 1943.71,861.409 1945.91,855.223 1948.1,848.976 1950.3,842.665 1952.5,836.291 1954.7,829.853 1956.9,823.35 1959.1,816.782 1961.3,810.147 1963.5,803.446 1965.7,796.677 1967.9,789.841 1970.1,782.935 1972.3,775.96 1974.5,768.915 1976.69,1119.06 1978.89,1115.47 1981.09,1111.84 1983.29,1108.18 1985.49,1104.47 1987.69,1100.73 1989.89,1096.95 1992.09,1093.14 1994.29,1089.29 1996.49,1085.39 1998.69,1081.46 2000.89,1077.49 2003.08,1073.48 2005.28,1069.43 2007.48,1065.33 2009.68,1061.2 2011.88,1057.02 2014.08,1264.52 2016.28,1262.39 2018.48,1260.24 2020.68,1258.07 2022.88,1255.87 2025.08,1253.65 2027.28,1251.41 2029.47,1249.15 2031.67,1246.87 2033.87,1244.56 2036.07,1242.23 2038.27,1239.87 2040.47,1237.49 2042.67,1235.09 2044.87,1232.67 2047.07,1230.22 2049.27,1227.74 2051.47,1225.24 2053.67,1222.72 2055.87,1220.17 2058.06,1217.59 2060.26,1214.99 2062.46,1212.36 2064.66,1209.71 2066.86,1207.03 2069.06,1204.32 2071.26,1201.59 2073.46,1198.83 2075.66,1196.04 2077.86,1193.22 2080.06,1190.37 2082.26,1187.5 2084.45,1184.6 2086.65,1181.66 2088.85,1178.7 2091.05,1175.71 2093.25,1172.69 2095.45,1169.64 2097.65,1166.55 2099.85,1163.44 2102.05,1160.3 2104.25,1157.12 2106.45,1153.91 2108.65,1150.67 2110.84,1147.4 2113.04,1144.09 2115.24,1140.75 2117.44,1137.38 2119.64,1133.97 2121.84,1130.53 2124.04,1127.05 2126.24,1123.54 2128.44,1120 2130.64,1116.41 2132.84,1112.8 2135.04,1109.14 2137.24,1105.45 2139.43,1101.72 2141.63,1097.95 2143.83,1094.15 2146.03,1090.3 2148.23,1086.42 2150.43,1082.5 2152.63,1078.54 2154.83,1074.54 2157.03,1070.5 2159.23,1066.41 2161.43,1062.29 2163.63,1058.13 2165.82,1053.92 2168.02,1049.67 2170.22,1045.38 2172.42,1041.04 2174.62,1036.66 2176.82,1032.24 2179.02,1027.77 2181.22,1023.25 2183.42,1018.7 2185.62,1014.09 2187.82,1009.44 2190.02,1004.74 2192.22,999.994 2194.41,995.201 2196.61,990.359 2198.81,985.468 2201.01,980.528 2203.21,975.538 2205.41,970.498 2207.61,965.408 2209.81,960.266 2212.01,955.073 2214.21,949.827 2216.41,944.529 2218.61,939.178 2220.8,933.773 2223,928.314 2225.2,922.8 2227.4,917.231 2229.6,911.607 2231.8,905.926 2234,900.189 2236.2,894.393 2238.4,888.54 2240.6,882.627 2242.8,876.655 2245,870.623 2247.19,864.53 2249.39,858.376 2251.59,852.16 2253.79,845.882 2255.99,839.54 2258.19,833.135 2260.39,826.665 2262.59,820.13 2264.79,813.53 2266.99,806.863 2269.19,800.129 2271.39,793.327 2273.59,786.457 2275.78,779.518 2277.98,772.509 2280.18,765.43 2282.38,758.28 2284.58,751.057 2286.78,743.762 2288.98,736.393 2291.18,728.951 2293.38,721.433 2295.58,713.84 2297.78,706.17 2299.98,698.423 2302.17,690.599 2304.37,682.695 2306.57,674.712 2308.77,666.648 2310.97,658.504 2313.17,650.277 2315.37,641.968 2317.57,633.575 2319.77,625.097 2321.97,616.534 2324.17,607.885 2326.37,599.149 2328.56,590.325 2330.76,581.412 2332.96,572.409 2335.16,563.316 2337.36,554.131 2339.56,544.854 2341.76,535.484 2343.96,526.019 2346.16,516.459 2348.36,506.803 2350.56,497.05 2352.76,487.199 "/>
<path clip-path="url(#clip160)" d="M1970.73 196.789 L2279.52 196.789 L2279.52 93.1086 L1970.73 93.1086  Z" fill="#ffffff" fill-rule="evenodd" fill-opacity="1"/>
<polyline clip-path="url(#clip160)" style="stroke:#000000; stroke-linecap:round; stroke-linejoin:round; stroke-width:4; stroke-opacity:1; fill:none" points="1970.73,196.789 2279.52,196.789 2279.52,93.1086 1970.73,93.1086 1970.73,196.789 "/>
<polyline clip-path="url(#clip160)" style="stroke:#009af9; stroke-linecap:round; stroke-linejoin:round; stroke-width:8; stroke-opacity:1; fill:none" points="1995.14,144.949 2141.6,144.949 "/>
<path clip-path="url(#clip160)" d="M2166.02 151.997 L2166.02 136.303 L2170.27 136.303 L2170.27 151.835 Q2170.27 155.516 2171.71 157.368 Q2173.14 159.196 2176.02 159.196 Q2179.46 159.196 2181.45 156.997 Q2183.47 154.798 2183.47 151.002 L2183.47 136.303 L2187.73 136.303 L2187.73 162.229 L2183.47 162.229 L2183.47 158.247 Q2181.92 160.608 2179.86 161.766 Q2177.82 162.9 2175.11 162.9 Q2170.64 162.9 2168.33 160.122 Q2166.02 157.344 2166.02 151.997 M2176.73 135.678 L2176.73 135.678 Z" fill="#000000" fill-rule="nonzero" fill-opacity="1" /><path clip-path="url(#clip160)" d="M2196.11 126.21 L2205.92 126.21 L2205.92 129.52 L2200.37 129.52 L2200.37 165.168 L2205.92 165.168 L2205.92 168.479 L2196.11 168.479 L2196.11 126.21 Z" fill="#000000" fill-rule="nonzero" fill-opacity="1" /><path clip-path="url(#clip160)" d="M2216.41 158.293 L2224.05 158.293 L2224.05 131.928 L2215.74 133.595 L2215.74 129.335 L2224 127.669 L2228.68 127.669 L2228.68 158.293 L2236.32 158.293 L2236.32 162.229 L2216.41 162.229 L2216.41 158.293 Z" fill="#000000" fill-rule="nonzero" fill-opacity="1" /><path clip-path="url(#clip160)" d="M2255.11 126.21 L2255.11 168.479 L2245.3 168.479 L2245.3 165.168 L2250.83 165.168 L2250.83 129.52 L2245.3 129.52 L2245.3 126.21 L2255.11 126.21 Z" fill="#000000" fill-rule="nonzero" fill-opacity="1" /></svg>
