<?xml version="1.0" encoding="utf-8"?>
<svg xmlns="http://www.w3.org/2000/svg" xmlns:xlink="http://www.w3.org/1999/xlink" width="600" height="400" viewBox="0 0 2400 1600">
<defs>
  <clipPath id="clip220">
    <rect x="0" y="0" width="2400" height="1600"/>
  </clipPath>
</defs>
<path clip-path="url(#clip220)" d="M0 1600 L2400 1600 L2400 0 L0 0  Z" fill="#ffffff" fill-rule="evenodd" fill-opacity="1"/>
<defs>
  <clipPath id="clip221">
    <rect x="480" y="0" width="1681" height="1600"/>
  </clipPath>
</defs>
<path clip-path="url(#clip220)" d="M156.598 1423.18 L2352.76 1423.18 L2352.76 47.2441 L156.598 47.2441  Z" fill="#ffffff" fill-rule="evenodd" fill-opacity="1"/>
<defs>
  <clipPath id="clip222">
    <rect x="156" y="47" width="2197" height="1377"/>
  </clipPath>
</defs>
<polyline clip-path="url(#clip222)" style="stroke:#000000; stroke-linecap:round; stroke-linejoin:round; stroke-width:2; stroke-opacity:0.1; fill:none" points="156.598,1423.18 156.598,47.2441 "/>
<polyline clip-path="url(#clip222)" style="stroke:#000000; stroke-linecap:round; stroke-linejoin:round; stroke-width:2; stroke-opacity:0.1; fill:none" points="595.83,1423.18 595.83,47.2441 "/>
<polyline clip-path="url(#clip222)" style="stroke:#000000; stroke-linecap:round; stroke-linejoin:round; stroke-width:2; stroke-opacity:0.1; fill:none" points="1035.06,1423.18 1035.06,47.2441 "/>
<polyline clip-path="url(#clip222)" style="stroke:#000000; stroke-linecap:round; stroke-linejoin:round; stroke-width:2; stroke-opacity:0.1; fill:none" points="1474.29,1423.18 1474.29,47.2441 "/>
<polyline clip-path="url(#clip222)" style="stroke:#000000; stroke-linecap:round; stroke-linejoin:round; stroke-width:2; stroke-opacity:0.1; fill:none" points="1913.52,1423.18 1913.52,47.2441 "/>
<polyline clip-path="url(#clip222)" style="stroke:#000000; stroke-linecap:round; stroke-linejoin:round; stroke-width:2; stroke-opacity:0.1; fill:none" points="2352.76,1423.18 2352.76,47.2441 "/>
<polyline clip-path="url(#clip222)" style="stroke:#000000; stroke-linecap:round; stroke-linejoin:round; stroke-width:2; stroke-opacity:0.1; fill:none" points="156.598,1318.69 2352.76,1318.69 "/>
<polyline clip-path="url(#clip222)" style="stroke:#000000; stroke-linecap:round; stroke-linejoin:round; stroke-width:2; stroke-opacity:0.1; fill:none" points="156.598,1037.12 2352.76,1037.12 "/>
<polyline clip-path="url(#clip222)" style="stroke:#000000; stroke-linecap:round; stroke-linejoin:round; stroke-width:2; stroke-opacity:0.1; fill:none" points="156.598,755.555 2352.76,755.555 "/>
<polyline clip-path="url(#clip222)" style="stroke:#000000; stroke-linecap:round; stroke-linejoin:round; stroke-width:2; stroke-opacity:0.1; fill:none" points="156.598,473.986 2352.76,473.986 "/>
<polyline clip-path="url(#clip222)" style="stroke:#000000; stroke-linecap:round; stroke-linejoin:round; stroke-width:2; stroke-opacity:0.1; fill:none" points="156.598,192.417 2352.76,192.417 "/>
<polyline clip-path="url(#clip220)" style="stroke:#000000; stroke-linecap:round; stroke-linejoin:round; stroke-width:4; stroke-opacity:1; fill:none" points="156.598,1423.18 2352.76,1423.18 "/>
<polyline clip-path="url(#clip220)" style="stroke:#000000; stroke-linecap:round; stroke-linejoin:round; stroke-width:4; stroke-opacity:1; fill:none" points="156.598,1423.18 156.598,1404.28 "/>
<polyline clip-path="url(#clip220)" style="stroke:#000000; stroke-linecap:round; stroke-linejoin:round; stroke-width:4; stroke-opacity:1; fill:none" points="595.83,1423.18 595.83,1404.28 "/>
<polyline clip-path="url(#clip220)" style="stroke:#000000; stroke-linecap:round; stroke-linejoin:round; stroke-width:4; stroke-opacity:1; fill:none" points="1035.06,1423.18 1035.06,1404.28 "/>
<polyline clip-path="url(#clip220)" style="stroke:#000000; stroke-linecap:round; stroke-linejoin:round; stroke-width:4; stroke-opacity:1; fill:none" points="1474.29,1423.18 1474.29,1404.28 "/>
<polyline clip-path="url(#clip220)" style="stroke:#000000; stroke-linecap:round; stroke-linejoin:round; stroke-width:4; stroke-opacity:1; fill:none" points="1913.52,1423.18 1913.52,1404.28 "/>
<polyline clip-path="url(#clip220)" style="stroke:#000000; stroke-linecap:round; stroke-linejoin:round; stroke-width:4; stroke-opacity:1; fill:none" points="2352.76,1423.18 2352.76,1404.28 "/>
<path clip-path="url(#clip220)" d="M156.598 1454.1 Q152.987 1454.1 151.158 1457.66 Q149.353 1461.2 149.353 1468.33 Q149.353 1475.44 151.158 1479.01 Q152.987 1482.55 156.598 1482.55 Q160.232 1482.55 162.038 1479.01 Q163.867 1475.44 163.867 1468.33 Q163.867 1461.2 162.038 1457.66 Q160.232 1454.1 156.598 1454.1 M156.598 1450.39 Q162.408 1450.39 165.464 1455 Q168.543 1459.58 168.543 1468.33 Q168.543 1477.06 165.464 1481.67 Q162.408 1486.25 156.598 1486.25 Q150.788 1486.25 147.709 1481.67 Q144.654 1477.06 144.654 1468.33 Q144.654 1459.58 147.709 1455 Q150.788 1450.39 156.598 1450.39 Z" fill="#000000" fill-rule="nonzero" fill-opacity="1" /><path clip-path="url(#clip220)" d="M590.483 1481.64 L606.802 1481.64 L606.802 1485.58 L584.858 1485.58 L584.858 1481.64 Q587.52 1478.89 592.103 1474.26 Q596.709 1469.61 597.89 1468.27 Q600.135 1465.74 601.015 1464.01 Q601.918 1462.25 601.918 1460.56 Q601.918 1457.8 599.973 1456.07 Q598.052 1454.33 594.95 1454.33 Q592.751 1454.33 590.297 1455.09 Q587.867 1455.86 585.089 1457.41 L585.089 1452.69 Q587.913 1451.55 590.367 1450.97 Q592.821 1450.39 594.858 1450.39 Q600.228 1450.39 603.422 1453.08 Q606.617 1455.77 606.617 1460.26 Q606.617 1462.39 605.807 1464.31 Q605.02 1466.2 602.913 1468.8 Q602.334 1469.47 599.233 1472.69 Q596.131 1475.88 590.483 1481.64 Z" fill="#000000" fill-rule="nonzero" fill-opacity="1" /><path clip-path="url(#clip220)" d="M1038.07 1455.09 L1026.27 1473.54 L1038.07 1473.54 L1038.07 1455.09 M1036.84 1451.02 L1042.72 1451.02 L1042.72 1473.54 L1047.65 1473.54 L1047.65 1477.43 L1042.72 1477.43 L1042.72 1485.58 L1038.07 1485.58 L1038.07 1477.43 L1022.47 1477.43 L1022.47 1472.92 L1036.84 1451.02 Z" fill="#000000" fill-rule="nonzero" fill-opacity="1" /><path clip-path="url(#clip220)" d="M1474.7 1466.44 Q1471.55 1466.44 1469.7 1468.59 Q1467.87 1470.74 1467.87 1474.49 Q1467.87 1478.22 1469.7 1480.39 Q1471.55 1482.55 1474.7 1482.55 Q1477.85 1482.55 1479.67 1480.39 Q1481.53 1478.22 1481.53 1474.49 Q1481.53 1470.74 1479.67 1468.59 Q1477.85 1466.44 1474.7 1466.44 M1483.98 1451.78 L1483.98 1456.04 Q1482.22 1455.21 1480.42 1454.77 Q1478.63 1454.33 1476.87 1454.33 Q1472.24 1454.33 1469.79 1457.45 Q1467.36 1460.58 1467.01 1466.9 Q1468.38 1464.89 1470.44 1463.82 Q1472.5 1462.73 1474.98 1462.73 Q1480.18 1462.73 1483.19 1465.9 Q1486.23 1469.05 1486.23 1474.49 Q1486.23 1479.82 1483.08 1483.03 Q1479.93 1486.25 1474.7 1486.25 Q1468.7 1486.25 1465.53 1481.67 Q1462.36 1477.06 1462.36 1468.33 Q1462.36 1460.14 1466.25 1455.28 Q1470.14 1450.39 1476.69 1450.39 Q1478.45 1450.39 1480.23 1450.74 Q1482.04 1451.09 1483.98 1451.78 Z" fill="#000000" fill-rule="nonzero" fill-opacity="1" /><path clip-path="url(#clip220)" d="M1913.52 1469.17 Q1910.19 1469.17 1908.27 1470.95 Q1906.37 1472.73 1906.37 1475.86 Q1906.37 1478.98 1908.27 1480.77 Q1910.19 1482.55 1913.52 1482.55 Q1916.86 1482.55 1918.78 1480.77 Q1920.7 1478.96 1920.7 1475.86 Q1920.7 1472.73 1918.78 1470.95 Q1916.88 1469.17 1913.52 1469.17 M1908.85 1467.18 Q1905.84 1466.44 1904.15 1464.38 Q1902.48 1462.32 1902.48 1459.35 Q1902.48 1455.21 1905.42 1452.8 Q1908.39 1450.39 1913.52 1450.39 Q1918.69 1450.39 1921.63 1452.8 Q1924.57 1455.21 1924.57 1459.35 Q1924.57 1462.32 1922.88 1464.38 Q1921.21 1466.44 1918.22 1467.18 Q1921.6 1467.96 1923.48 1470.26 Q1925.38 1472.55 1925.38 1475.86 Q1925.38 1480.88 1922.3 1483.57 Q1919.24 1486.25 1913.52 1486.25 Q1907.81 1486.25 1904.73 1483.57 Q1901.67 1480.88 1901.67 1475.86 Q1901.67 1472.55 1903.57 1470.26 Q1905.47 1467.96 1908.85 1467.18 M1907.14 1459.79 Q1907.14 1462.48 1908.8 1463.98 Q1910.49 1465.49 1913.52 1465.49 Q1916.53 1465.49 1918.22 1463.98 Q1919.94 1462.48 1919.94 1459.79 Q1919.94 1457.11 1918.22 1455.6 Q1916.53 1454.1 1913.52 1454.1 Q1910.49 1454.1 1908.8 1455.6 Q1907.14 1457.11 1907.14 1459.79 Z" fill="#000000" fill-rule="nonzero" fill-opacity="1" /><path clip-path="url(#clip220)" d="M2327.44 1481.64 L2335.08 1481.64 L2335.08 1455.28 L2326.77 1456.95 L2326.77 1452.69 L2335.04 1451.02 L2339.71 1451.02 L2339.71 1481.64 L2347.35 1481.64 L2347.35 1485.58 L2327.44 1485.58 L2327.44 1481.64 Z" fill="#000000" fill-rule="nonzero" fill-opacity="1" /><path clip-path="url(#clip220)" d="M2366.8 1454.1 Q2363.18 1454.1 2361.36 1457.66 Q2359.55 1461.2 2359.55 1468.33 Q2359.55 1475.44 2361.36 1479.01 Q2363.18 1482.55 2366.8 1482.55 Q2370.43 1482.55 2372.23 1479.01 Q2374.06 1475.44 2374.06 1468.33 Q2374.06 1461.2 2372.23 1457.66 Q2370.43 1454.1 2366.8 1454.1 M2366.8 1450.39 Q2372.61 1450.39 2375.66 1455 Q2378.74 1459.58 2378.74 1468.33 Q2378.74 1477.06 2375.66 1481.67 Q2372.61 1486.25 2366.8 1486.25 Q2360.99 1486.25 2357.91 1481.67 Q2354.85 1477.06 2354.85 1468.33 Q2354.85 1459.58 2357.91 1455 Q2360.99 1450.39 2366.8 1450.39 Z" fill="#000000" fill-rule="nonzero" fill-opacity="1" /><path clip-path="url(#clip220)" d="M1253.74 1522.27 L1253.74 1532.4 L1265.8 1532.4 L1265.8 1536.95 L1253.74 1536.95 L1253.74 1556.3 Q1253.74 1560.66 1254.92 1561.9 Q1256.13 1563.14 1259.79 1563.14 L1265.8 1563.14 L1265.8 1568.04 L1259.79 1568.04 Q1253.01 1568.04 1250.43 1565.53 Q1247.85 1562.98 1247.85 1556.3 L1247.85 1536.95 L1243.55 1536.95 L1243.55 1532.4 L1247.85 1532.4 L1247.85 1522.27 L1253.74 1522.27 Z" fill="#000000" fill-rule="nonzero" fill-opacity="1" /><polyline clip-path="url(#clip220)" style="stroke:#000000; stroke-linecap:round; stroke-linejoin:round; stroke-width:4; stroke-opacity:1; fill:none" points="156.598,1423.18 156.598,47.2441 "/>
<polyline clip-path="url(#clip220)" style="stroke:#000000; stroke-linecap:round; stroke-linejoin:round; stroke-width:4; stroke-opacity:1; fill:none" points="156.598,1318.69 175.496,1318.69 "/>
<polyline clip-path="url(#clip220)" style="stroke:#000000; stroke-linecap:round; stroke-linejoin:round; stroke-width:4; stroke-opacity:1; fill:none" points="156.598,1037.12 175.496,1037.12 "/>
<polyline clip-path="url(#clip220)" style="stroke:#000000; stroke-linecap:round; stroke-linejoin:round; stroke-width:4; stroke-opacity:1; fill:none" points="156.598,755.555 175.496,755.555 "/>
<polyline clip-path="url(#clip220)" style="stroke:#000000; stroke-linecap:round; stroke-linejoin:round; stroke-width:4; stroke-opacity:1; fill:none" points="156.598,473.986 175.496,473.986 "/>
<polyline clip-path="url(#clip220)" style="stroke:#000000; stroke-linecap:round; stroke-linejoin:round; stroke-width:4; stroke-opacity:1; fill:none" points="156.598,192.417 175.496,192.417 "/>
<path clip-path="url(#clip220)" d="M65.0198 1304.49 Q61.4087 1304.49 59.58 1308.06 Q57.7745 1311.6 57.7745 1318.73 Q57.7745 1325.83 59.58 1329.4 Q61.4087 1332.94 65.0198 1332.94 Q68.6541 1332.94 70.4596 1329.4 Q72.2883 1325.83 72.2883 1318.73 Q72.2883 1311.6 70.4596 1308.06 Q68.6541 1304.49 65.0198 1304.49 M65.0198 1300.79 Q70.83 1300.79 73.8855 1305.39 Q76.9642 1309.98 76.9642 1318.73 Q76.9642 1327.45 73.8855 1332.06 Q70.83 1336.64 65.0198 1336.64 Q59.2097 1336.64 56.131 1332.06 Q53.0754 1327.45 53.0754 1318.73 Q53.0754 1309.98 56.131 1305.39 Q59.2097 1300.79 65.0198 1300.79 Z" fill="#000000" fill-rule="nonzero" fill-opacity="1" /><path clip-path="url(#clip220)" d="M85.1818 1330.09 L90.066 1330.09 L90.066 1335.97 L85.1818 1335.97 L85.1818 1330.09 Z" fill="#000000" fill-rule="nonzero" fill-opacity="1" /><path clip-path="url(#clip220)" d="M104.279 1332.04 L120.598 1332.04 L120.598 1335.97 L98.6539 1335.97 L98.6539 1332.04 Q101.316 1329.28 105.899 1324.65 Q110.506 1320 111.686 1318.66 Q113.932 1316.13 114.811 1314.4 Q115.714 1312.64 115.714 1310.95 Q115.714 1308.19 113.77 1306.46 Q111.848 1304.72 108.746 1304.72 Q106.547 1304.72 104.094 1305.49 Q101.663 1306.25 98.8854 1307.8 L98.8854 1303.08 Q101.709 1301.94 104.163 1301.37 Q106.617 1300.79 108.654 1300.79 Q114.024 1300.79 117.219 1303.47 Q120.413 1306.16 120.413 1310.65 Q120.413 1312.78 119.603 1314.7 Q118.816 1316.6 116.709 1319.19 Q116.131 1319.86 113.029 1323.08 Q109.927 1326.27 104.279 1332.04 Z" fill="#000000" fill-rule="nonzero" fill-opacity="1" /><path clip-path="url(#clip220)" d="M62.9365 1022.92 Q59.3254 1022.92 57.4967 1026.49 Q55.6912 1030.03 55.6912 1037.16 Q55.6912 1044.26 57.4967 1047.83 Q59.3254 1051.37 62.9365 1051.37 Q66.5707 1051.37 68.3763 1047.83 Q70.205 1044.26 70.205 1037.16 Q70.205 1030.03 68.3763 1026.49 Q66.5707 1022.92 62.9365 1022.92 M62.9365 1019.22 Q68.7467 1019.22 71.8022 1023.82 Q74.8809 1028.41 74.8809 1037.16 Q74.8809 1045.88 71.8022 1050.49 Q68.7467 1055.07 62.9365 1055.07 Q57.1264 1055.07 54.0477 1050.49 Q50.9921 1045.88 50.9921 1037.16 Q50.9921 1028.41 54.0477 1023.82 Q57.1264 1019.22 62.9365 1019.22 Z" fill="#000000" fill-rule="nonzero" fill-opacity="1" /><path clip-path="url(#clip220)" d="M83.0984 1048.52 L87.9827 1048.52 L87.9827 1054.4 L83.0984 1054.4 L83.0984 1048.52 Z" fill="#000000" fill-rule="nonzero" fill-opacity="1" /><path clip-path="url(#clip220)" d="M111.015 1023.92 L99.2095 1042.37 L111.015 1042.37 L111.015 1023.92 M109.788 1019.84 L115.668 1019.84 L115.668 1042.37 L120.598 1042.37 L120.598 1046.26 L115.668 1046.26 L115.668 1054.4 L111.015 1054.4 L111.015 1046.26 L95.4132 1046.26 L95.4132 1041.74 L109.788 1019.84 Z" fill="#000000" fill-rule="nonzero" fill-opacity="1" /><path clip-path="url(#clip220)" d="M63.2606 741.353 Q59.6495 741.353 57.8208 744.918 Q56.0152 748.46 56.0152 755.589 Q56.0152 762.696 57.8208 766.261 Q59.6495 769.802 63.2606 769.802 Q66.8948 769.802 68.7004 766.261 Q70.5291 762.696 70.5291 755.589 Q70.5291 748.46 68.7004 744.918 Q66.8948 741.353 63.2606 741.353 M63.2606 737.65 Q69.0707 737.65 72.1263 742.256 Q75.205 746.839 75.205 755.589 Q75.205 764.316 72.1263 768.923 Q69.0707 773.506 63.2606 773.506 Q57.4504 773.506 54.3717 768.923 Q51.3162 764.316 51.3162 755.589 Q51.3162 746.839 54.3717 742.256 Q57.4504 737.65 63.2606 737.65 Z" fill="#000000" fill-rule="nonzero" fill-opacity="1" /><path clip-path="url(#clip220)" d="M83.4225 766.955 L88.3067 766.955 L88.3067 772.835 L83.4225 772.835 L83.4225 766.955 Z" fill="#000000" fill-rule="nonzero" fill-opacity="1" /><path clip-path="url(#clip220)" d="M109.071 753.691 Q105.922 753.691 104.071 755.844 Q102.242 757.997 102.242 761.747 Q102.242 765.474 104.071 767.649 Q105.922 769.802 109.071 769.802 Q112.219 769.802 114.047 767.649 Q115.899 765.474 115.899 761.747 Q115.899 757.997 114.047 755.844 Q112.219 753.691 109.071 753.691 M118.353 739.038 L118.353 743.298 Q116.594 742.464 114.788 742.025 Q113.006 741.585 111.246 741.585 Q106.617 741.585 104.163 744.71 Q101.733 747.835 101.385 754.154 Q102.751 752.14 104.811 751.075 Q106.871 749.988 109.348 749.988 Q114.557 749.988 117.566 753.159 Q120.598 756.307 120.598 761.747 Q120.598 767.071 117.45 770.288 Q114.302 773.506 109.071 773.506 Q103.075 773.506 99.9039 768.923 Q96.7326 764.316 96.7326 755.589 Q96.7326 747.395 100.621 742.534 Q104.51 737.65 111.061 737.65 Q112.82 737.65 114.603 737.997 Q116.408 738.344 118.353 739.038 Z" fill="#000000" fill-rule="nonzero" fill-opacity="1" /><path clip-path="url(#clip220)" d="M63.5152 459.785 Q59.9041 459.785 58.0754 463.349 Q56.2699 466.891 56.2699 474.021 Q56.2699 481.127 58.0754 484.692 Q59.9041 488.234 63.5152 488.234 Q67.1494 488.234 68.955 484.692 Q70.7837 481.127 70.7837 474.021 Q70.7837 466.891 68.955 463.349 Q67.1494 459.785 63.5152 459.785 M63.5152 456.081 Q69.3254 456.081 72.3809 460.687 Q75.4596 465.271 75.4596 474.021 Q75.4596 482.747 72.3809 487.354 Q69.3254 491.937 63.5152 491.937 Q57.7051 491.937 54.6264 487.354 Q51.5708 482.747 51.5708 474.021 Q51.5708 465.271 54.6264 460.687 Q57.7051 456.081 63.5152 456.081 Z" fill="#000000" fill-rule="nonzero" fill-opacity="1" /><path clip-path="url(#clip220)" d="M83.6771 485.386 L88.5614 485.386 L88.5614 491.266 L83.6771 491.266 L83.6771 485.386 Z" fill="#000000" fill-rule="nonzero" fill-opacity="1" /><path clip-path="url(#clip220)" d="M108.746 474.854 Q105.413 474.854 103.492 476.636 Q101.594 478.419 101.594 481.544 Q101.594 484.669 103.492 486.451 Q105.413 488.234 108.746 488.234 Q112.08 488.234 114.001 486.451 Q115.922 484.646 115.922 481.544 Q115.922 478.419 114.001 476.636 Q112.103 474.854 108.746 474.854 M104.071 472.863 Q101.061 472.122 99.3715 470.062 Q97.7048 468.002 97.7048 465.039 Q97.7048 460.896 100.645 458.488 Q103.608 456.081 108.746 456.081 Q113.908 456.081 116.848 458.488 Q119.788 460.896 119.788 465.039 Q119.788 468.002 118.098 470.062 Q116.432 472.122 113.445 472.863 Q116.825 473.65 118.7 475.942 Q120.598 478.234 120.598 481.544 Q120.598 486.567 117.52 489.252 Q114.464 491.937 108.746 491.937 Q103.029 491.937 99.9502 489.252 Q96.8947 486.567 96.8947 481.544 Q96.8947 478.234 98.7928 475.942 Q100.691 473.65 104.071 472.863 M102.358 465.479 Q102.358 468.164 104.024 469.669 Q105.714 471.173 108.746 471.173 Q111.756 471.173 113.445 469.669 Q115.158 468.164 115.158 465.479 Q115.158 462.794 113.445 461.289 Q111.756 459.785 108.746 459.785 Q105.714 459.785 104.024 461.289 Q102.358 462.794 102.358 465.479 Z" fill="#000000" fill-rule="nonzero" fill-opacity="1" /><path clip-path="url(#clip220)" d="M54.2328 205.762 L61.8717 205.762 L61.8717 179.396 L53.5616 181.063 L53.5616 176.804 L61.8254 175.137 L66.5013 175.137 L66.5013 205.762 L74.1402 205.762 L74.1402 209.697 L54.2328 209.697 L54.2328 205.762 Z" fill="#000000" fill-rule="nonzero" fill-opacity="1" /><path clip-path="url(#clip220)" d="M83.5845 203.818 L88.4688 203.818 L88.4688 209.697 L83.5845 209.697 L83.5845 203.818 Z" fill="#000000" fill-rule="nonzero" fill-opacity="1" /><path clip-path="url(#clip220)" d="M108.654 178.216 Q105.043 178.216 103.214 181.781 Q101.409 185.322 101.409 192.452 Q101.409 199.558 103.214 203.123 Q105.043 206.665 108.654 206.665 Q112.288 206.665 114.094 203.123 Q115.922 199.558 115.922 192.452 Q115.922 185.322 114.094 181.781 Q112.288 178.216 108.654 178.216 M108.654 174.512 Q114.464 174.512 117.52 179.119 Q120.598 183.702 120.598 192.452 Q120.598 201.179 117.52 205.785 Q114.464 210.369 108.654 210.369 Q102.844 210.369 99.765 205.785 Q96.7095 201.179 96.7095 192.452 Q96.7095 183.702 99.765 179.119 Q102.844 174.512 108.654 174.512 Z" fill="#000000" fill-rule="nonzero" fill-opacity="1" /><polyline clip-path="url(#clip222)" style="stroke:#009af9; stroke-linecap:round; stroke-linejoin:round; stroke-width:8; stroke-opacity:1; fill:none" points="156.598,1318.69 158.797,1315.86 160.995,1313 163.193,1310.11 165.392,1307.19 167.59,1304.24 169.788,1301.26 171.987,1298.25 174.185,1295.22 176.383,1292.15 178.582,1289.05 180.78,1285.92 182.979,1282.75 185.177,1279.56 187.375,1276.33 189.574,1273.08 191.772,1269.78 193.97,1266.46 196.169,1263.1 198.367,1259.71 200.565,1256.28 202.764,1252.82 204.962,1249.33 207.16,1245.8 209.359,1242.23 211.557,1238.63 213.755,1234.99 215.954,1231.32 218.152,1227.6 220.351,1223.86 222.549,1220.07 224.747,1216.24 226.946,1212.38 229.144,1208.48 231.342,1204.54 233.541,1200.56 235.739,1196.53 237.937,1192.47 240.136,1188.37 242.334,1184.23 244.532,1180.04 246.731,1175.81 248.929,1171.54 251.128,1167.23 253.326,1162.87 255.524,1158.47 257.723,1154.03 259.921,1149.54 262.119,1145.01 264.318,1140.43 266.516,1135.8 268.714,1131.13 270.913,1126.41 273.111,1121.64 275.309,1116.83 277.508,1111.96 279.706,1107.05 281.905,1102.09 284.103,1097.08 286.301,1092.01 288.5,1086.9 290.698,1081.74 292.896,1076.52 295.095,1071.25 297.293,1065.93 299.491,1060.55 301.69,1055.12 303.888,1049.64 306.086,1044.1 308.285,1038.51 310.483,1032.85 312.682,1027.15 314.88,1021.38 317.078,1015.56 319.277,1009.67 321.475,1003.73 323.673,997.731 325.872,991.669 328.07,985.546 330.268,979.362 332.467,973.116 334.665,966.806 336.863,960.434 339.062,953.997 341.26,947.495 343.458,940.928 345.657,934.295 347.855,927.596 350.054,920.828 352.252,913.993 354.45,907.089 356.649,900.116 358.847,893.073 361.045,885.958 363.244,878.772 365.442,871.514 367.64,864.183 369.839,856.778 372.037,849.298 374.235,841.743 376.434,834.112 378.632,826.405 380.831,818.619 383.029,810.756 385.227,802.813 387.426,794.791 389.624,786.687 391.822,778.502 394.021,770.235 396.219,761.885 398.417,753.45 400.616,744.931 402.814,736.326 405.012,727.635 407.211,718.856 409.409,709.988 411.608,701.032 413.806,691.985 416.004,682.848 418.203,673.618 420.401,664.296 422.599,654.88 424.798,645.369 426.996,635.763 429.194,626.059 431.393,616.259 433.591,606.359 435.789,596.36 437.988,586.261 440.186,576.06 442.385,565.756 444.583,555.349 446.781,544.837 448.98,534.219 451.178,523.495 453.376,512.663 455.575,501.721 457.773,490.67 459.971,479.507 462.17,468.232 464.368,456.843 466.566,445.34 468.765,433.722 470.963,421.986 473.162,410.132 475.36,398.159 477.558,386.065 479.757,373.85 481.955,361.512 484.153,349.05 486.352,336.462 488.55,323.748 490.748,310.906 492.947,297.934 495.145,284.832 497.343,935.931 499.542,929.248 501.74,922.497 503.938,915.679 506.137,908.792 508.335,901.835 510.534,894.809 512.732,887.712 514.93,880.544 517.129,873.303 519.327,865.99 521.525,858.603 523.724,851.141 525.922,843.605 528.12,835.993 530.319,828.304 532.517,820.538 534.715,812.694 536.914,804.771 539.112,796.768 541.311,788.685 543.509,780.52 545.707,772.274 547.906,763.944 550.104,755.53 552.302,747.032 554.501,738.448 556.699,729.778 558.897,721.021 561.096,712.176 563.294,703.241 565.492,694.217 567.691,685.102 569.889,675.895 572.088,666.595 574.286,657.202 576.484,647.715 578.683,1119.2 580.881,1114.36 583.079,1109.47 585.278,1104.53 587.476,1099.54 589.674,1094.51 591.873,1089.42 594.071,1084.28 596.269,1079.09 598.468,1073.84 600.666,1068.55 602.865,1063.2 605.063,1057.8 607.261,1052.34 609.46,1046.83 611.658,1041.26 613.856,1035.64 616.055,1029.96 618.253,1024.22 620.451,1018.42 622.65,1012.57 624.848,1006.66 627.046,1000.69 629.245,994.655 631.443,988.563 633.641,982.41 635.84,976.194 638.038,969.916 640.237,963.575 642.435,957.17 644.633,950.701 646.832,944.167 649.03,937.566 651.228,930.9 653.427,924.166 655.625,917.364 657.823,910.494 660.022,903.555 662.22,896.546 664.418,889.466 666.617,882.316 668.815,875.093 671.014,867.797 673.212,860.428 675.41,852.985 677.609,845.467 679.807,837.873 682.005,830.203 684.204,822.455 686.402,814.63 688.6,806.726 690.799,798.742 692.997,790.678 695.195,782.533 697.394,774.306 699.592,765.997 701.791,757.604 703.989,749.126 706.187,740.564 708.386,731.915 710.584,723.179 712.782,714.355 714.981,705.443 717.179,696.441 719.377,687.348 721.576,678.164 723.774,668.887 725.972,659.518 728.171,650.053 730.369,640.494 732.568,630.839 734.766,621.086 736.964,611.235 739.163,601.285 741.361,1095.75 743.559,1090.67 745.758,1085.55 747.956,1080.37 750.154,1075.14 752.353,1069.85 754.551,1064.52 756.749,1059.13 758.948,1053.68 761.146,1048.18 763.344,1042.63 765.543,1037.02 767.741,1031.35 769.94,1025.63 772.138,1019.85 774.336,1014.01 776.535,1008.11 778.733,1002.16 780.931,996.14 783.13,990.063 785.328,983.924 787.526,977.724 789.725,971.462 791.923,965.136 794.121,958.747 796.32,952.293 798.518,945.775 800.717,939.191 802.915,932.541 805.113,925.824 807.312,919.039 809.51,912.186 811.708,905.264 813.907,898.272 816.105,891.21 818.303,884.077 820.502,876.872 822.7,869.594 824.898,862.244 827.097,854.819 829.295,847.319 831.494,839.744 833.692,832.093 835.89,824.365 838.089,816.559 840.287,808.674 842.485,800.71 844.684,792.666 846.882,784.541 849.08,776.334 851.279,768.045 853.477,759.672 855.675,751.215 857.874,742.674 860.072,734.046 862.271,725.331 864.469,716.529 866.667,707.639 868.866,698.659 871.064,689.588 873.262,680.427 875.461,671.173 877.659,661.826 879.857,652.385 882.056,642.849 884.254,633.217 886.452,623.489 888.651,613.662 890.849,603.737 893.048,593.711 895.246,583.585 897.444,573.357 899.643,563.026 901.841,552.592 904.039,542.052 906.238,531.406 908.436,520.653 910.634,509.792 912.833,498.821 915.031,487.74 917.229,476.548 919.428,1032.75 921.626,1027.04 923.824,1021.28 926.023,1015.45 928.221,1009.57 930.42,1003.63 932.618,997.623 934.816,991.56 937.015,985.436 939.213,979.251 941.411,973.003 943.61,966.693 945.808,960.319 948.006,953.881 950.205,947.379 952.403,940.811 954.601,934.176 956.8,927.476 958.998,920.707 961.197,913.871 963.395,906.966 965.593,899.991 967.792,892.946 969.99,885.83 972.188,878.643 974.387,871.383 976.585,864.051 978.783,856.644 980.982,849.163 983.18,841.607 985.378,833.975 987.577,826.266 989.775,818.479 991.974,810.614 994.172,802.67 996.37,794.646 998.569,786.541 1000.77,778.355 1002.97,770.086 1005.16,761.734 1007.36,1176.78 1009.56,1172.52 1011.76,1384.24 1013.96,1382.07 1016.16,1379.87 1018.35,1377.65 1020.55,1375.41 1022.75,1373.15 1024.95,1370.87 1027.15,1368.56 1029.35,1366.23 1031.54,1363.87 1033.74,1361.49 1035.94,1359.09 1038.14,1356.67 1040.34,1354.22 1042.54,1351.74 1044.73,1349.24 1046.93,1346.72 1049.13,1344.16 1051.33,1341.59 1053.53,1338.99 1055.73,1336.36 1057.92,1333.7 1060.12,1331.02 1062.32,1328.31 1064.52,1325.58 1066.72,1322.81 1068.92,1320.02 1071.11,1317.2 1073.31,1314.36 1075.51,1311.48 1077.71,1308.57 1079.91,1305.64 1082.11,1302.68 1084.3,1299.68 1086.5,1296.66 1088.7,1293.6 1090.9,1290.52 1093.1,1287.4 1095.3,1284.25 1097.49,1281.08 1099.69,1277.86 1101.89,1274.62 1104.09,1271.34 1106.29,1268.04 1108.49,1264.69 1110.68,1261.32 1112.88,1257.91 1115.08,1254.46 1117.28,1250.98 1119.48,1247.47 1121.68,1243.92 1123.87,1240.34 1126.07,1236.72 1128.27,1233.06 1130.47,1229.36 1132.67,1225.63 1134.87,1221.86 1137.07,1218.06 1139.26,1214.21 1141.46,1210.33 1143.66,1206.41 1145.86,1202.44 1148.06,1198.44 1150.26,1194.4 1152.45,1190.32 1154.65,1186.19 1156.85,1182.03 1159.05,1177.82 1161.25,1173.57 1163.45,1169.28 1165.64,1164.94 1167.84,1160.56 1170.04,1156.14 1172.24,1375.96 1174.44,1373.71 1176.64,1371.43 1178.83,1369.13 1181.03,1366.8 1183.23,1364.45 1185.43,1362.08 1187.63,1359.68 1189.83,1357.26 1192.02,1354.82 1194.22,1352.35 1196.42,1349.86 1198.62,1347.34 1200.82,1344.79 1203.02,1342.22 1205.21,1339.63 1207.41,1337 1209.61,1334.36 1211.81,1331.68 1214.01,1328.98 1216.21,1326.25 1218.4,1323.49 1220.6,1320.71 1222.8,1317.9 1225,1315.06 1227.2,1312.19 1229.4,1309.29 1231.59,1306.36 1233.79,1303.41 1235.99,1300.42 1238.19,1297.4 1240.39,1294.36 1242.59,1291.28 1244.78,1288.17 1246.98,1285.03 1249.18,1281.86 1251.38,1278.66 1253.58,1275.42 1255.78,1272.15 1257.97,1268.85 1260.17,1265.52 1262.37,1262.15 1264.57,1258.75 1266.77,1255.31 1268.97,1251.84 1271.16,1248.34 1273.36,1244.8 1275.56,1241.22 1277.76,1237.61 1279.96,1233.96 1282.16,1230.27 1284.35,1226.55 1286.55,1222.79 1288.75,1218.99 1290.95,1215.16 1293.15,1211.28 1295.35,1207.37 1297.55,1203.42 1299.74,1199.43 1301.94,1195.39 1304.14,1191.32 1306.34,1187.21 1308.54,1183.05 1310.74,1178.85 1312.93,1174.62 1315.13,1170.33 1317.33,1166.01 1319.53,1161.64 1321.73,1157.23 1323.93,1152.77 1326.12,1148.27 1328.32,1143.72 1330.52,1139.13 1332.72,1134.49 1334.92,1129.8 1337.12,1125.07 1339.31,1120.29 1341.51,1115.46 1343.71,1110.59 1345.91,1105.66 1348.11,1100.68 1350.31,1095.66 1352.5,1090.58 1354.7,1085.45 1356.9,1080.27 1359.1,1075.04 1361.3,1069.76 1363.5,1064.42 1365.69,1059.03 1367.89,1053.59 1370.09,1048.09 1372.29,1042.53 1374.49,1036.92 1376.69,1031.25 1378.88,1025.53 1381.08,1019.75 1383.28,1013.91 1385.48,1008.01 1387.68,1002.05 1389.88,996.03 1392.07,989.952 1394.27,983.812 1396.47,977.61 1398.67,971.346 1400.87,965.019 1403.07,958.628 1405.26,952.173 1407.46,945.653 1409.66,939.068 1411.86,932.416 1414.06,925.697 1416.26,918.911 1418.45,912.056 1420.65,905.133 1422.85,898.14 1425.05,891.076 1427.25,883.942 1429.45,876.736 1431.64,869.457 1433.84,862.105 1436.04,854.679 1438.24,847.178 1440.44,839.602 1442.64,831.95 1444.83,824.22 1447.03,816.413 1449.23,808.527 1451.43,800.562 1453.63,792.517 1455.83,784.391 1458.03,776.183 1460.22,767.893 1462.42,759.519 1464.62,751.06 1466.82,742.517 1469.02,733.888 1471.22,725.172 1473.41,716.368 1475.61,707.476 1477.81,1149.38 1480.01,1144.85 1482.21,1140.26 1484.41,1135.64 1486.6,1130.96 1488.8,1126.24 1491,1121.47 1493.2,1116.65 1495.4,1111.79 1497.6,1106.88 1499.79,1101.91 1501.99,1096.9 1504.19,1091.83 1506.39,1086.72 1508.59,1081.55 1510.79,1076.33 1512.98,1071.06 1515.18,1065.74 1517.38,1060.36 1519.58,1054.93 1521.78,1049.45 1523.98,1043.91 1526.17,1038.31 1528.37,1032.66 1530.57,1026.95 1532.77,1021.18 1534.97,1015.35 1537.17,1009.47 1539.36,1003.53 1541.56,997.523 1543.76,991.46 1545.96,985.336 1548.16,979.15 1550.36,972.901 1552.55,966.59 1554.75,960.215 1556.95,953.777 1559.15,947.273 1561.35,940.704 1563.55,934.068 1565.74,927.366 1567.94,920.597 1570.14,913.759 1572.34,906.852 1574.54,899.876 1576.74,892.83 1578.93,885.713 1581.13,878.524 1583.33,871.262 1585.53,863.928 1587.73,856.52 1589.93,849.037 1592.12,841.479 1594.32,833.845 1596.52,826.134 1598.72,818.346 1600.92,810.479 1603.12,802.534 1605.31,794.508 1607.51,786.402 1609.71,778.214 1611.91,769.944 1614.11,761.591 1616.31,753.154 1618.5,744.632 1620.7,736.024 1622.9,727.329 1625.1,718.547 1627.3,709.677 1629.5,700.718 1631.7,691.668 1633.89,682.527 1636.09,673.295 1638.29,663.969 1640.49,654.55 1642.69,645.036 1644.89,635.426 1647.08,625.719 1649.28,615.915 1651.48,1103.14 1653.68,1098.14 1655.88,1093.08 1658.08,1087.98 1660.27,1082.83 1662.47,1077.62 1664.67,1072.36 1666.87,1067.05 1669.07,1061.69 1671.27,1056.27 1673.46,1050.8 1675.66,1045.27 1677.86,1039.69 1680.06,1034.05 1682.26,1028.35 1684.46,1022.6 1686.65,1016.79 1688.85,1010.92 1691.05,1004.99 1693.25,1299.63 1695.45,1296.6 1697.65,1293.55 1699.84,1290.46 1702.04,1287.35 1704.24,1284.2 1706.44,1281.02 1708.64,1277.81 1710.84,1274.56 1713.03,1271.29 1715.23,1267.98 1717.43,1264.63 1719.63,1261.26 1721.83,1257.85 1724.03,1254.4 1726.22,1250.92 1728.42,1247.41 1730.62,1243.86 1732.82,1240.27 1735.02,1236.65 1737.22,1233 1739.41,1229.3 1741.61,1225.57 1743.81,1221.8 1746.01,1217.99 1748.21,1214.15 1750.41,1210.26 1752.6,1206.34 1754.8,1202.38 1757,1198.38 1759.2,1194.33 1761.4,1190.25 1763.6,1186.13 1765.79,1181.96 1767.99,1177.75 1770.19,1173.5 1772.39,1169.21 1774.59,1164.88 1776.79,1160.5 1778.98,1156.07 1781.18,1151.6 1783.38,1147.09 1785.58,1142.53 1787.78,1137.93 1789.98,1133.28 1792.18,1128.58 1794.37,1123.83 1796.57,1119.04 1798.77,1114.2 1800.97,1109.31 1803.17,1104.37 1805.37,1099.38 1807.56,1094.34 1809.76,1089.25 1811.96,1084.11 1814.16,1078.91 1816.36,1073.67 1818.56,1068.37 1820.75,1063.02 1822.95,1057.61 1825.15,1052.15 1827.35,1046.64 1829.55,1041.07 1831.75,1035.44 1833.94,1029.76 1836.14,1024.02 1838.34,1018.22 1840.54,1012.37 1842.74,1006.45 1844.94,1000.48 1847.13,1297.35 1849.33,1294.3 1851.53,1291.23 1853.73,1288.12 1855.93,1284.98 1858.13,1281.8 1860.32,1278.6 1862.52,1275.36 1864.72,1272.09 1866.92,1268.79 1869.12,1265.46 1871.32,1262.09 1873.51,1258.69 1875.71,1255.25 1877.91,1251.78 1880.11,1248.28 1882.31,1244.73 1884.51,1241.16 1886.7,1237.55 1888.9,1233.9 1891.1,1230.21 1893.3,1226.49 1895.5,1222.73 1897.7,1218.93 1899.89,1215.1 1902.09,1211.23 1904.29,1207.31 1906.49,1203.36 1908.69,1199.37 1910.89,1195.34 1913.08,1191.27 1915.28,1187.15 1917.48,1183 1919.68,1178.8 1921.88,1174.56 1924.08,1170.28 1926.27,1165.96 1928.47,1161.59 1930.67,1157.18 1932.87,1152.72 1935.07,1148.22 1937.27,1143.68 1939.46,1139.08 1941.66,1134.45 1943.86,1129.76 1946.06,1125.03 1948.26,1120.25 1950.46,1115.42 1952.66,1110.54 1954.85,1105.62 1957.05,1100.64 1959.25,1095.62 1961.45,1090.54 1963.65,1085.41 1965.85,1080.23 1968.04,1075 1970.24,1069.72 1972.44,1064.38 1974.64,1058.99 1976.84,1053.54 1979.04,1048.04 1981.23,1042.48 1983.43,1036.87 1985.63,1031.2 1987.83,1025.48 1990.03,1019.69 1992.23,1013.85 1994.42,1007.95 1996.62,1001.99 1998.82,995.969 2001.02,989.888 2003.22,983.746 2005.42,977.541 2007.61,971.275 2009.81,964.945 2012.01,958.552 2014.21,952.094 2016.41,945.571 2018.61,938.983 2020.8,932.329 2023,925.607 2025.2,918.819 2027.4,911.962 2029.6,905.037 2031.8,898.042 2033.99,890.977 2036.19,883.841 2038.39,876.634 2040.59,869.354 2042.79,862.001 2044.99,1227.42 2047.18,1223.67 2049.38,1219.88 2051.58,1216.05 2053.78,1212.19 2055.98,1208.28 2058.18,1204.34 2060.37,1200.35 2062.57,1196.33 2064.77,1192.27 2066.97,1188.16 2069.17,1184.02 2071.37,1179.83 2073.56,1175.6 2075.76,1171.33 2077.96,1167.01 2080.16,1162.65 2082.36,1158.25 2084.56,1153.81 2086.75,1149.31 2088.95,1144.78 2091.15,1140.2 2093.35,1135.57 2095.55,1130.89 2097.75,1126.17 2099.94,1121.4 2102.14,1116.58 2104.34,1111.72 2106.54,1106.8 2108.74,1101.84 2110.94,1096.82 2113.14,1091.76 2115.33,1086.64 2117.53,1081.48 2119.73,1076.26 2121.93,1070.98 2124.13,1065.66 2126.33,1060.28 2128.52,1054.85 2130.72,1049.36 2132.92,1043.82 2135.12,1038.22 2137.32,1032.57 2139.52,1026.86 2141.71,1021.09 2143.91,1015.26 2146.11,1009.38 2148.31,1003.43 2150.51,997.428 2152.71,991.364 2154.9,985.238 2157.1,979.051 2159.3,972.801 2161.5,966.489 2163.7,960.113 2165.9,953.673 2168.09,947.168 2170.29,940.598 2172.49,933.961 2174.69,927.258 2176.89,920.488 2179.09,913.649 2181.28,906.741 2183.48,899.764 2185.68,892.717 2187.88,885.599 2190.08,878.409 2192.28,871.147 2194.47,863.812 2196.67,856.403 2198.87,848.919 2201.07,841.361 2203.27,833.726 2205.47,826.014 2207.66,818.225 2209.86,810.357 2212.06,802.411 2214.26,794.384 2216.46,786.277 2218.66,778.088 2220.85,769.817 2223.05,761.462 2225.25,753.024 2227.45,744.501 2229.65,735.892 2231.85,727.196 2234.04,718.413 2236.24,709.542 2238.44,700.581 2240.64,691.53 2242.84,682.388 2245.04,673.155 2247.23,663.828 2249.43,654.407 2251.63,644.892 2253.83,635.281 2256.03,625.573 2258.23,615.767 2260.42,605.863 2262.62,595.859 2264.82,585.754 2267.02,575.548 2269.22,565.239 2271.42,554.826 2273.62,544.309 2275.81,533.685 2278.01,522.955 2280.21,512.117 2282.41,501.169 2284.61,490.112 2286.81,478.943 2289,467.663 2291.2,456.268 2293.4,444.759 2295.6,433.135 2297.8,421.393 2300,409.533 2302.19,397.554 2304.39,385.454 2306.59,373.233 2308.79,360.889 2310.99,348.421 2313.19,335.827 2315.38,323.106 2317.58,310.258 2319.78,297.28 2321.98,284.172 2324.18,270.931 2326.38,257.558 2328.57,244.05 2330.77,230.406 2332.97,216.625 2335.17,202.705 2337.37,188.646 2339.57,174.444 2341.76,160.1 2343.96,145.612 2346.16,130.978 2348.36,116.196 2350.56,101.266 2352.76,86.1857 "/>
<path clip-path="url(#clip220)" d="M229.803 196.789 L538.516 196.789 L538.516 93.1086 L229.803 93.1086  Z" fill="#ffffff" fill-rule="evenodd" fill-opacity="1"/>
<polyline clip-path="url(#clip220)" style="stroke:#000000; stroke-linecap:round; stroke-linejoin:round; stroke-width:4; stroke-opacity:1; fill:none" points="229.803,196.789 538.516,196.789 538.516,93.1086 229.803,93.1086 229.803,196.789 "/>
<polyline clip-path="url(#clip220)" style="stroke:#009af9; stroke-linecap:round; stroke-linejoin:round; stroke-width:8; stroke-opacity:1; fill:none" points="254.205,144.949 400.616,144.949 "/>
<path clip-path="url(#clip220)" d="M425.018 151.997 L425.018 136.303 L429.277 136.303 L429.277 151.835 Q429.277 155.516 430.712 157.368 Q432.147 159.196 435.017 159.196 Q438.467 159.196 440.457 156.997 Q442.471 154.798 442.471 151.002 L442.471 136.303 L446.73 136.303 L446.73 162.229 L442.471 162.229 L442.471 158.247 Q440.92 160.608 438.86 161.766 Q436.823 162.9 434.115 162.9 Q429.647 162.9 427.332 160.122 Q425.018 157.344 425.018 151.997 M435.735 135.678 L435.735 135.678 Z" fill="#000000" fill-rule="nonzero" fill-opacity="1" /><path clip-path="url(#clip220)" d="M455.11 126.21 L464.925 126.21 L464.925 129.52 L459.369 129.52 L459.369 165.168 L464.925 165.168 L464.925 168.479 L455.11 168.479 L455.11 126.21 Z" fill="#000000" fill-rule="nonzero" fill-opacity="1" /><path clip-path="url(#clip220)" d="M475.411 158.293 L483.05 158.293 L483.05 131.928 L474.739 133.595 L474.739 129.335 L483.003 127.669 L487.679 127.669 L487.679 158.293 L495.318 158.293 L495.318 162.229 L475.411 162.229 L475.411 158.293 Z" fill="#000000" fill-rule="nonzero" fill-opacity="1" /><path clip-path="url(#clip220)" d="M514.114 126.21 L514.114 168.479 L504.299 168.479 L504.299 165.168 L509.832 165.168 L509.832 129.52 L504.299 129.52 L504.299 126.21 L514.114 126.21 Z" fill="#000000" fill-rule="nonzero" fill-opacity="1" /></svg>
