<?xml version="1.0" encoding="utf-8"?>
<svg xmlns="http://www.w3.org/2000/svg" xmlns:xlink="http://www.w3.org/1999/xlink" width="600" height="400" viewBox="0 0 2400 1600">
<defs>
  <clipPath id="clip880">
    <rect x="0" y="0" width="2400" height="1600"/>
  </clipPath>
</defs>
<path clip-path="url(#clip880)" d="M0 1600 L2400 1600 L2400 0 L0 0  Z" fill="#ffffff" fill-rule="evenodd" fill-opacity="1"/>
<defs>
  <clipPath id="clip881">
    <rect x="480" y="0" width="1681" height="1600"/>
  </clipPath>
</defs>
<path clip-path="url(#clip880)" d="M184.191 1423.18 L2352.76 1423.18 L2352.76 47.2441 L184.191 47.2441  Z" fill="#ffffff" fill-rule="evenodd" fill-opacity="1"/>
<defs>
  <clipPath id="clip882">
    <rect x="184" y="47" width="2170" height="1377"/>
  </clipPath>
</defs>
<polyline clip-path="url(#clip882)" style="stroke:#000000; stroke-linecap:round; stroke-linejoin:round; stroke-width:2; stroke-opacity:0.1; fill:none" points="184.191,1423.18 184.191,47.2441 "/>
<polyline clip-path="url(#clip882)" style="stroke:#000000; stroke-linecap:round; stroke-linejoin:round; stroke-width:2; stroke-opacity:0.1; fill:none" points="617.904,1423.18 617.904,47.2441 "/>
<polyline clip-path="url(#clip882)" style="stroke:#000000; stroke-linecap:round; stroke-linejoin:round; stroke-width:2; stroke-opacity:0.1; fill:none" points="1051.62,1423.18 1051.62,47.2441 "/>
<polyline clip-path="url(#clip882)" style="stroke:#000000; stroke-linecap:round; stroke-linejoin:round; stroke-width:2; stroke-opacity:0.1; fill:none" points="1485.33,1423.18 1485.33,47.2441 "/>
<polyline clip-path="url(#clip882)" style="stroke:#000000; stroke-linecap:round; stroke-linejoin:round; stroke-width:2; stroke-opacity:0.1; fill:none" points="1919.04,1423.18 1919.04,47.2441 "/>
<polyline clip-path="url(#clip882)" style="stroke:#000000; stroke-linecap:round; stroke-linejoin:round; stroke-width:2; stroke-opacity:0.1; fill:none" points="2352.76,1423.18 2352.76,47.2441 "/>
<polyline clip-path="url(#clip882)" style="stroke:#000000; stroke-linecap:round; stroke-linejoin:round; stroke-width:2; stroke-opacity:0.1; fill:none" points="184.191,1384.24 2352.76,1384.24 "/>
<polyline clip-path="url(#clip882)" style="stroke:#000000; stroke-linecap:round; stroke-linejoin:round; stroke-width:2; stroke-opacity:0.1; fill:none" points="184.191,1089.23 2352.76,1089.23 "/>
<polyline clip-path="url(#clip882)" style="stroke:#000000; stroke-linecap:round; stroke-linejoin:round; stroke-width:2; stroke-opacity:0.1; fill:none" points="184.191,794.214 2352.76,794.214 "/>
<polyline clip-path="url(#clip882)" style="stroke:#000000; stroke-linecap:round; stroke-linejoin:round; stroke-width:2; stroke-opacity:0.1; fill:none" points="184.191,499.202 2352.76,499.202 "/>
<polyline clip-path="url(#clip882)" style="stroke:#000000; stroke-linecap:round; stroke-linejoin:round; stroke-width:2; stroke-opacity:0.1; fill:none" points="184.191,204.19 2352.76,204.19 "/>
<polyline clip-path="url(#clip880)" style="stroke:#000000; stroke-linecap:round; stroke-linejoin:round; stroke-width:4; stroke-opacity:1; fill:none" points="184.191,1423.18 2352.76,1423.18 "/>
<polyline clip-path="url(#clip880)" style="stroke:#000000; stroke-linecap:round; stroke-linejoin:round; stroke-width:4; stroke-opacity:1; fill:none" points="184.191,1423.18 184.191,1404.28 "/>
<polyline clip-path="url(#clip880)" style="stroke:#000000; stroke-linecap:round; stroke-linejoin:round; stroke-width:4; stroke-opacity:1; fill:none" points="617.904,1423.18 617.904,1404.28 "/>
<polyline clip-path="url(#clip880)" style="stroke:#000000; stroke-linecap:round; stroke-linejoin:round; stroke-width:4; stroke-opacity:1; fill:none" points="1051.62,1423.18 1051.62,1404.28 "/>
<polyline clip-path="url(#clip880)" style="stroke:#000000; stroke-linecap:round; stroke-linejoin:round; stroke-width:4; stroke-opacity:1; fill:none" points="1485.33,1423.18 1485.33,1404.28 "/>
<polyline clip-path="url(#clip880)" style="stroke:#000000; stroke-linecap:round; stroke-linejoin:round; stroke-width:4; stroke-opacity:1; fill:none" points="1919.04,1423.18 1919.04,1404.28 "/>
<polyline clip-path="url(#clip880)" style="stroke:#000000; stroke-linecap:round; stroke-linejoin:round; stroke-width:4; stroke-opacity:1; fill:none" points="2352.76,1423.18 2352.76,1404.28 "/>
<path clip-path="url(#clip880)" d="M184.191 1454.1 Q180.58 1454.1 178.751 1457.66 Q176.945 1461.2 176.945 1468.33 Q176.945 1475.44 178.751 1479.01 Q180.58 1482.55 184.191 1482.55 Q187.825 1482.55 189.63 1479.01 Q191.459 1475.44 191.459 1468.33 Q191.459 1461.2 189.63 1457.66 Q187.825 1454.1 184.191 1454.1 M184.191 1450.39 Q190.001 1450.39 193.056 1455 Q196.135 1459.58 196.135 1468.33 Q196.135 1477.06 193.056 1481.67 Q190.001 1486.25 184.191 1486.25 Q178.381 1486.25 175.302 1481.67 Q172.246 1477.06 172.246 1468.33 Q172.246 1459.58 175.302 1455 Q178.381 1450.39 184.191 1450.39 Z" fill="#000000" fill-rule="nonzero" fill-opacity="1" /><path clip-path="url(#clip880)" d="M612.557 1481.64 L628.876 1481.64 L628.876 1485.58 L606.932 1485.58 L606.932 1481.64 Q609.594 1478.89 614.177 1474.26 Q618.783 1469.61 619.964 1468.27 Q622.209 1465.74 623.089 1464.01 Q623.992 1462.25 623.992 1460.56 Q623.992 1457.8 622.047 1456.07 Q620.126 1454.33 617.024 1454.33 Q614.825 1454.33 612.371 1455.09 Q609.941 1455.86 607.163 1457.41 L607.163 1452.69 Q609.987 1451.55 612.441 1450.97 Q614.894 1450.39 616.932 1450.39 Q622.302 1450.39 625.496 1453.08 Q628.691 1455.77 628.691 1460.26 Q628.691 1462.39 627.881 1464.31 Q627.093 1466.2 624.987 1468.8 Q624.408 1469.47 621.306 1472.69 Q618.205 1475.88 612.557 1481.64 Z" fill="#000000" fill-rule="nonzero" fill-opacity="1" /><path clip-path="url(#clip880)" d="M1054.63 1455.09 L1042.82 1473.54 L1054.63 1473.54 L1054.63 1455.09 M1053.4 1451.02 L1059.28 1451.02 L1059.28 1473.54 L1064.21 1473.54 L1064.21 1477.43 L1059.28 1477.43 L1059.28 1485.58 L1054.63 1485.58 L1054.63 1477.43 L1039.02 1477.43 L1039.02 1472.92 L1053.4 1451.02 Z" fill="#000000" fill-rule="nonzero" fill-opacity="1" /><path clip-path="url(#clip880)" d="M1485.73 1466.44 Q1482.59 1466.44 1480.73 1468.59 Q1478.91 1470.74 1478.91 1474.49 Q1478.91 1478.22 1480.73 1480.39 Q1482.59 1482.55 1485.73 1482.55 Q1488.88 1482.55 1490.71 1480.39 Q1492.56 1478.22 1492.56 1474.49 Q1492.56 1470.74 1490.71 1468.59 Q1488.88 1466.44 1485.73 1466.44 M1495.02 1451.78 L1495.02 1456.04 Q1493.26 1455.21 1491.45 1454.77 Q1489.67 1454.33 1487.91 1454.33 Q1483.28 1454.33 1480.83 1457.45 Q1478.4 1460.58 1478.05 1466.9 Q1479.42 1464.89 1481.48 1463.82 Q1483.54 1462.73 1486.01 1462.73 Q1491.22 1462.73 1494.23 1465.9 Q1497.26 1469.05 1497.26 1474.49 Q1497.26 1479.82 1494.11 1483.03 Q1490.97 1486.25 1485.73 1486.25 Q1479.74 1486.25 1476.57 1481.67 Q1473.4 1477.06 1473.4 1468.33 Q1473.4 1460.14 1477.29 1455.28 Q1481.17 1450.39 1487.73 1450.39 Q1489.48 1450.39 1491.27 1450.74 Q1493.07 1451.09 1495.02 1451.78 Z" fill="#000000" fill-rule="nonzero" fill-opacity="1" /><path clip-path="url(#clip880)" d="M1919.04 1469.17 Q1915.71 1469.17 1913.79 1470.95 Q1911.89 1472.73 1911.89 1475.86 Q1911.89 1478.98 1913.79 1480.77 Q1915.71 1482.55 1919.04 1482.55 Q1922.38 1482.55 1924.3 1480.77 Q1926.22 1478.96 1926.22 1475.86 Q1926.22 1472.73 1924.3 1470.95 Q1922.4 1469.17 1919.04 1469.17 M1914.37 1467.18 Q1911.36 1466.44 1909.67 1464.38 Q1908 1462.32 1908 1459.35 Q1908 1455.21 1910.94 1452.8 Q1913.9 1450.39 1919.04 1450.39 Q1924.2 1450.39 1927.14 1452.8 Q1930.08 1455.21 1930.08 1459.35 Q1930.08 1462.32 1928.39 1464.38 Q1926.73 1466.44 1923.74 1467.18 Q1927.12 1467.96 1929 1470.26 Q1930.89 1472.55 1930.89 1475.86 Q1930.89 1480.88 1927.82 1483.57 Q1924.76 1486.25 1919.04 1486.25 Q1913.33 1486.25 1910.25 1483.57 Q1907.19 1480.88 1907.19 1475.86 Q1907.19 1472.55 1909.09 1470.26 Q1910.99 1467.96 1914.37 1467.18 M1912.65 1459.79 Q1912.65 1462.48 1914.32 1463.98 Q1916.01 1465.49 1919.04 1465.49 Q1922.05 1465.49 1923.74 1463.98 Q1925.45 1462.48 1925.45 1459.79 Q1925.45 1457.11 1923.74 1455.6 Q1922.05 1454.1 1919.04 1454.1 Q1916.01 1454.1 1914.32 1455.6 Q1912.65 1457.11 1912.65 1459.79 Z" fill="#000000" fill-rule="nonzero" fill-opacity="1" /><path clip-path="url(#clip880)" d="M2327.44 1481.64 L2335.08 1481.64 L2335.08 1455.28 L2326.77 1456.95 L2326.77 1452.69 L2335.04 1451.02 L2339.71 1451.02 L2339.71 1481.64 L2347.35 1481.64 L2347.35 1485.58 L2327.44 1485.58 L2327.44 1481.64 Z" fill="#000000" fill-rule="nonzero" fill-opacity="1" /><path clip-path="url(#clip880)" d="M2366.8 1454.1 Q2363.18 1454.1 2361.36 1457.66 Q2359.55 1461.2 2359.55 1468.33 Q2359.55 1475.44 2361.36 1479.01 Q2363.18 1482.55 2366.8 1482.55 Q2370.43 1482.55 2372.23 1479.01 Q2374.06 1475.44 2374.06 1468.33 Q2374.06 1461.2 2372.23 1457.66 Q2370.43 1454.1 2366.8 1454.1 M2366.8 1450.39 Q2372.61 1450.39 2375.66 1455 Q2378.74 1459.58 2378.74 1468.33 Q2378.74 1477.06 2375.66 1481.67 Q2372.61 1486.25 2366.8 1486.25 Q2360.99 1486.25 2357.91 1481.67 Q2354.85 1477.06 2354.85 1468.33 Q2354.85 1459.58 2357.91 1455 Q2360.99 1450.39 2366.8 1450.39 Z" fill="#000000" fill-rule="nonzero" fill-opacity="1" /><path clip-path="url(#clip880)" d="M1267.53 1522.27 L1267.53 1532.4 L1279.6 1532.4 L1279.6 1536.95 L1267.53 1536.95 L1267.53 1556.3 Q1267.53 1560.66 1268.71 1561.9 Q1269.92 1563.14 1273.58 1563.14 L1279.6 1563.14 L1279.6 1568.04 L1273.58 1568.04 Q1266.8 1568.04 1264.22 1565.53 Q1261.65 1562.98 1261.65 1556.3 L1261.65 1536.95 L1257.35 1536.95 L1257.35 1532.4 L1261.65 1532.4 L1261.65 1522.27 L1267.53 1522.27 Z" fill="#000000" fill-rule="nonzero" fill-opacity="1" /><polyline clip-path="url(#clip880)" style="stroke:#000000; stroke-linecap:round; stroke-linejoin:round; stroke-width:4; stroke-opacity:1; fill:none" points="184.191,1423.18 184.191,47.2441 "/>
<polyline clip-path="url(#clip880)" style="stroke:#000000; stroke-linecap:round; stroke-linejoin:round; stroke-width:4; stroke-opacity:1; fill:none" points="184.191,1384.24 203.088,1384.24 "/>
<polyline clip-path="url(#clip880)" style="stroke:#000000; stroke-linecap:round; stroke-linejoin:round; stroke-width:4; stroke-opacity:1; fill:none" points="184.191,1089.23 203.088,1089.23 "/>
<polyline clip-path="url(#clip880)" style="stroke:#000000; stroke-linecap:round; stroke-linejoin:round; stroke-width:4; stroke-opacity:1; fill:none" points="184.191,794.214 203.088,794.214 "/>
<polyline clip-path="url(#clip880)" style="stroke:#000000; stroke-linecap:round; stroke-linejoin:round; stroke-width:4; stroke-opacity:1; fill:none" points="184.191,499.202 203.088,499.202 "/>
<polyline clip-path="url(#clip880)" style="stroke:#000000; stroke-linecap:round; stroke-linejoin:round; stroke-width:4; stroke-opacity:1; fill:none" points="184.191,204.19 203.088,204.19 "/>
<path clip-path="url(#clip880)" d="M91.0151 1370.04 Q87.404 1370.04 85.5753 1373.6 Q83.7697 1377.14 83.7697 1384.27 Q83.7697 1391.38 85.5753 1394.94 Q87.404 1398.49 91.0151 1398.49 Q94.6493 1398.49 96.4548 1394.94 Q98.2835 1391.38 98.2835 1384.27 Q98.2835 1377.14 96.4548 1373.6 Q94.6493 1370.04 91.0151 1370.04 M91.0151 1366.33 Q96.8252 1366.33 99.8808 1370.94 Q102.959 1375.52 102.959 1384.27 Q102.959 1393 99.8808 1397.61 Q96.8252 1402.19 91.0151 1402.19 Q85.2049 1402.19 82.1262 1397.61 Q79.0707 1393 79.0707 1384.27 Q79.0707 1375.52 82.1262 1370.94 Q85.2049 1366.33 91.0151 1366.33 Z" fill="#000000" fill-rule="nonzero" fill-opacity="1" /><path clip-path="url(#clip880)" d="M111.177 1395.64 L116.061 1395.64 L116.061 1401.52 L111.177 1401.52 L111.177 1395.64 Z" fill="#000000" fill-rule="nonzero" fill-opacity="1" /><path clip-path="url(#clip880)" d="M136.246 1370.04 Q132.635 1370.04 130.807 1373.6 Q129.001 1377.14 129.001 1384.27 Q129.001 1391.38 130.807 1394.94 Q132.635 1398.49 136.246 1398.49 Q139.881 1398.49 141.686 1394.94 Q143.515 1391.38 143.515 1384.27 Q143.515 1377.14 141.686 1373.6 Q139.881 1370.04 136.246 1370.04 M136.246 1366.33 Q142.056 1366.33 145.112 1370.94 Q148.191 1375.52 148.191 1384.27 Q148.191 1393 145.112 1397.61 Q142.056 1402.19 136.246 1402.19 Q130.436 1402.19 127.357 1397.61 Q124.302 1393 124.302 1384.27 Q124.302 1375.52 127.357 1370.94 Q130.436 1366.33 136.246 1366.33 Z" fill="#000000" fill-rule="nonzero" fill-opacity="1" /><path clip-path="url(#clip880)" d="M86.0382 1102.57 L102.358 1102.57 L102.358 1106.51 L80.4133 1106.51 L80.4133 1102.57 Q83.0753 1099.82 87.6586 1095.19 Q92.2651 1090.53 93.4456 1089.19 Q95.691 1086.67 96.5706 1084.93 Q97.4734 1083.17 97.4734 1081.48 Q97.4734 1078.73 95.5289 1076.99 Q93.6076 1075.26 90.5058 1075.26 Q88.3067 1075.26 85.8531 1076.02 Q83.4225 1076.78 80.6447 1078.34 L80.6447 1073.61 Q83.4688 1072.48 85.9225 1071.9 Q88.3762 1071.32 90.4132 1071.32 Q95.7836 1071.32 98.978 1074.01 Q102.172 1076.69 102.172 1081.18 Q102.172 1083.31 101.362 1085.23 Q100.575 1087.13 98.4687 1089.72 Q97.89 1090.4 94.7882 1093.61 Q91.6864 1096.81 86.0382 1102.57 Z" fill="#000000" fill-rule="nonzero" fill-opacity="1" /><path clip-path="url(#clip880)" d="M112.172 1100.63 L117.057 1100.63 L117.057 1106.51 L112.172 1106.51 L112.172 1100.63 Z" fill="#000000" fill-rule="nonzero" fill-opacity="1" /><path clip-path="url(#clip880)" d="M127.288 1071.95 L145.644 1071.95 L145.644 1075.88 L131.57 1075.88 L131.57 1084.35 Q132.589 1084.01 133.607 1083.84 Q134.626 1083.66 135.644 1083.66 Q141.431 1083.66 144.811 1086.83 Q148.191 1090 148.191 1095.42 Q148.191 1101 144.718 1104.1 Q141.246 1107.18 134.927 1107.18 Q132.751 1107.18 130.482 1106.81 Q128.237 1106.44 125.83 1105.7 L125.83 1101 Q127.913 1102.13 130.135 1102.69 Q132.357 1103.24 134.834 1103.24 Q138.839 1103.24 141.177 1101.14 Q143.515 1099.03 143.515 1095.42 Q143.515 1091.81 141.177 1089.7 Q138.839 1087.59 134.834 1087.59 Q132.959 1087.59 131.084 1088.01 Q129.232 1088.43 127.288 1089.31 L127.288 1071.95 Z" fill="#000000" fill-rule="nonzero" fill-opacity="1" /><path clip-path="url(#clip880)" d="M81.0614 776.934 L99.4178 776.934 L99.4178 780.87 L85.3438 780.87 L85.3438 789.342 Q86.3623 788.994 87.3808 788.832 Q88.3993 788.647 89.4178 788.647 Q95.2049 788.647 98.5845 791.819 Q101.964 794.99 101.964 800.406 Q101.964 805.985 98.4919 809.087 Q95.0197 812.166 88.7003 812.166 Q86.5243 812.166 84.2558 811.795 Q82.0105 811.425 79.6031 810.684 L79.6031 805.985 Q81.6864 807.119 83.9086 807.675 Q86.1308 808.23 88.6077 808.23 Q92.6123 808.23 94.9502 806.124 Q97.2882 804.018 97.2882 800.406 Q97.2882 796.795 94.9502 794.689 Q92.6123 792.582 88.6077 792.582 Q86.7327 792.582 84.8577 792.999 Q83.0058 793.416 81.0614 794.295 L81.0614 776.934 Z" fill="#000000" fill-rule="nonzero" fill-opacity="1" /><path clip-path="url(#clip880)" d="M111.177 805.615 L116.061 805.615 L116.061 811.494 L111.177 811.494 L111.177 805.615 Z" fill="#000000" fill-rule="nonzero" fill-opacity="1" /><path clip-path="url(#clip880)" d="M136.246 780.013 Q132.635 780.013 130.807 783.578 Q129.001 787.119 129.001 794.249 Q129.001 801.356 130.807 804.92 Q132.635 808.462 136.246 808.462 Q139.881 808.462 141.686 804.92 Q143.515 801.356 143.515 794.249 Q143.515 787.119 141.686 783.578 Q139.881 780.013 136.246 780.013 M136.246 776.309 Q142.056 776.309 145.112 780.916 Q148.191 785.499 148.191 794.249 Q148.191 802.976 145.112 807.582 Q142.056 812.166 136.246 812.166 Q130.436 812.166 127.357 807.582 Q124.302 802.976 124.302 794.249 Q124.302 785.499 127.357 780.916 Q130.436 776.309 136.246 776.309 Z" fill="#000000" fill-rule="nonzero" fill-opacity="1" /><path clip-path="url(#clip880)" d="M80.8299 481.922 L103.052 481.922 L103.052 483.913 L90.5058 516.482 L85.6216 516.482 L97.4271 485.858 L80.8299 485.858 L80.8299 481.922 Z" fill="#000000" fill-rule="nonzero" fill-opacity="1" /><path clip-path="url(#clip880)" d="M112.172 510.603 L117.057 510.603 L117.057 516.482 L112.172 516.482 L112.172 510.603 Z" fill="#000000" fill-rule="nonzero" fill-opacity="1" /><path clip-path="url(#clip880)" d="M127.288 481.922 L145.644 481.922 L145.644 485.858 L131.57 485.858 L131.57 494.33 Q132.589 493.983 133.607 493.82 Q134.626 493.635 135.644 493.635 Q141.431 493.635 144.811 496.807 Q148.191 499.978 148.191 505.395 Q148.191 510.973 144.718 514.075 Q141.246 517.154 134.927 517.154 Q132.751 517.154 130.482 516.783 Q128.237 516.413 125.83 515.672 L125.83 510.973 Q127.913 512.107 130.135 512.663 Q132.357 513.219 134.834 513.219 Q138.839 513.219 141.177 511.112 Q143.515 509.006 143.515 505.395 Q143.515 501.783 141.177 499.677 Q138.839 497.57 134.834 497.57 Q132.959 497.57 131.084 497.987 Q129.232 498.404 127.288 499.283 L127.288 481.922 Z" fill="#000000" fill-rule="nonzero" fill-opacity="1" /><path clip-path="url(#clip880)" d="M51.6634 217.535 L59.3023 217.535 L59.3023 191.17 L50.9921 192.836 L50.9921 188.577 L59.256 186.91 L63.9319 186.91 L63.9319 217.535 L71.5707 217.535 L71.5707 221.47 L51.6634 221.47 L51.6634 217.535 Z" fill="#000000" fill-rule="nonzero" fill-opacity="1" /><path clip-path="url(#clip880)" d="M91.0151 189.989 Q87.404 189.989 85.5753 193.554 Q83.7697 197.096 83.7697 204.225 Q83.7697 211.332 85.5753 214.896 Q87.404 218.438 91.0151 218.438 Q94.6493 218.438 96.4548 214.896 Q98.2835 211.332 98.2835 204.225 Q98.2835 197.096 96.4548 193.554 Q94.6493 189.989 91.0151 189.989 M91.0151 186.285 Q96.8252 186.285 99.8808 190.892 Q102.959 195.475 102.959 204.225 Q102.959 212.952 99.8808 217.558 Q96.8252 222.142 91.0151 222.142 Q85.2049 222.142 82.1262 217.558 Q79.0707 212.952 79.0707 204.225 Q79.0707 195.475 82.1262 190.892 Q85.2049 186.285 91.0151 186.285 Z" fill="#000000" fill-rule="nonzero" fill-opacity="1" /><path clip-path="url(#clip880)" d="M111.177 215.591 L116.061 215.591 L116.061 221.47 L111.177 221.47 L111.177 215.591 Z" fill="#000000" fill-rule="nonzero" fill-opacity="1" /><path clip-path="url(#clip880)" d="M136.246 189.989 Q132.635 189.989 130.807 193.554 Q129.001 197.096 129.001 204.225 Q129.001 211.332 130.807 214.896 Q132.635 218.438 136.246 218.438 Q139.881 218.438 141.686 214.896 Q143.515 211.332 143.515 204.225 Q143.515 197.096 141.686 193.554 Q139.881 189.989 136.246 189.989 M136.246 186.285 Q142.056 186.285 145.112 190.892 Q148.191 195.475 148.191 204.225 Q148.191 212.952 145.112 217.558 Q142.056 222.142 136.246 222.142 Q130.436 222.142 127.357 217.558 Q124.302 212.952 124.302 204.225 Q124.302 195.475 127.357 190.892 Q130.436 186.285 136.246 186.285 Z" fill="#000000" fill-rule="nonzero" fill-opacity="1" /><polyline clip-path="url(#clip882)" style="stroke:#009af9; stroke-linecap:round; stroke-linejoin:round; stroke-width:8; stroke-opacity:1; fill:none" points="184.191,1384.24 185.134,1384.24 186.077,1384.24 187.02,1384.24 187.964,1384.24 188.907,1384.24 189.85,1384.24 190.794,1384.24 191.737,1384.24 192.68,1384.24 193.623,1384.24 194.567,1384.24 195.51,1384.24 196.453,1384.24 197.396,1384.24 198.34,1384.24 199.283,1384.24 200.226,1384.24 201.169,1384.24 202.113,1384.24 203.056,1384.24 203.999,1384.24 204.942,1384.24 205.886,1384.24 206.829,1384.24 207.772,1384.24 208.716,1384.24 209.659,1384.24 210.602,1384.24 211.545,1384.24 212.489,1384.24 213.432,1384.24 214.375,1384.24 215.318,1384.24 216.262,1384.24 217.205,1384.24 218.148,1384.24 219.091,1384.24 220.035,1384.24 220.978,1384.24 221.921,1384.24 222.865,1384.24 223.808,1384.24 224.751,1384.24 225.694,1384.24 226.638,1384.24 227.581,1384.24 228.524,1266.23 229.467,1266.23 230.411,1266.23 231.354,1266.23 232.297,1266.23 233.24,1266.23 234.184,1266.23 235.127,1266.23 236.07,1266.23 237.013,1266.23 237.957,1266.23 238.9,1266.23 239.843,1266.23 240.787,1266.23 241.73,1266.23 242.673,1266.23 243.616,1266.23 244.56,1266.23 245.503,1266.23 246.446,1266.23 247.389,1266.23 248.333,1266.23 249.276,1266.23 250.219,1266.23 251.162,1266.23 252.106,1266.23 253.049,1266.23 253.992,1266.23 254.936,1266.23 255.879,1266.23 256.822,1266.23 257.765,1266.23 258.709,1266.23 259.652,1266.23 260.595,1266.23 261.538,1266.23 262.482,1266.23 263.425,1266.23 264.368,1266.23 265.311,1266.23 266.255,1266.23 267.198,1266.23 268.141,1266.23 269.084,1266.23 270.028,1266.23 270.971,1266.23 271.914,1266.23 272.858,1266.23 273.801,1266.23 274.744,1266.23 275.687,1266.23 276.631,1266.23 277.574,1266.23 278.517,1266.23 279.46,1266.23 280.404,1266.23 281.347,1266.23 282.29,1266.23 283.233,1266.23 284.177,1266.23 285.12,1266.23 286.063,1266.23 287.007,1266.23 287.95,1266.23 288.893,1266.23 289.836,1266.23 290.78,1266.23 291.723,1266.23 292.666,1266.23 293.609,1266.23 294.553,1266.23 295.496,1266.23 296.439,1266.23 297.382,1266.23 298.326,1266.23 299.269,1266.23 300.212,1266.23 301.155,1266.23 302.099,1266.23 303.042,1266.23 303.985,1266.23 304.929,1266.23 305.872,1266.23 306.815,1266.23 307.758,1266.23 308.702,1266.23 309.645,1266.23 310.588,1266.23 311.531,1266.23 312.475,1266.23 313.418,1266.23 314.361,1266.23 315.304,1266.23 316.248,1266.23 317.191,1266.23 318.134,1266.23 319.078,1266.23 320.021,1266.23 320.964,1266.23 321.907,1266.23 322.851,1266.23 323.794,1266.23 324.737,1266.23 325.68,1266.23 326.624,1266.23 327.567,1266.23 328.51,1266.23 329.453,1266.23 330.397,1266.23 331.34,1266.23 332.283,1266.23 333.226,1266.23 334.17,1266.23 335.113,1266.23 336.056,1266.23 337,1266.23 337.943,1266.23 338.886,1266.23 339.829,1266.23 340.773,1266.23 341.716,1266.23 342.659,1266.23 343.602,1266.23 344.546,1266.23 345.489,1266.23 346.432,1266.23 347.375,1266.23 348.319,1266.23 349.262,1266.23 350.205,1266.23 351.149,1266.23 352.092,1266.23 353.035,1148.23 353.978,1148.23 354.922,1148.23 355.865,1148.23 356.808,1148.23 357.751,1148.23 358.695,1148.23 359.638,1148.23 360.581,1148.23 361.524,1148.23 362.468,1148.23 363.411,1148.23 364.354,1148.23 365.297,1148.23 366.241,1148.23 367.184,1148.23 368.127,1148.23 369.071,1148.23 370.014,1148.23 370.957,1148.23 371.9,1148.23 372.844,1148.23 373.787,1148.23 374.73,1148.23 375.673,1148.23 376.617,1148.23 377.56,1148.23 378.503,1148.23 379.446,1148.23 380.39,1148.23 381.333,1148.23 382.276,1148.23 383.22,1148.23 384.163,1148.23 385.106,1148.23 386.049,1148.23 386.993,1148.23 387.936,1148.23 388.879,1148.23 389.822,1148.23 390.766,1148.23 391.709,1148.23 392.652,1148.23 393.595,1148.23 394.539,1148.23 395.482,1148.23 396.425,1148.23 397.368,1148.23 398.312,1148.23 399.255,1148.23 400.198,1148.23 401.142,1148.23 402.085,1148.23 403.028,1148.23 403.971,1148.23 404.915,1148.23 405.858,1148.23 406.801,1148.23 407.744,1148.23 408.688,1148.23 409.631,1148.23 410.574,1148.23 411.517,1148.23 412.461,1148.23 413.404,1148.23 414.347,1148.23 415.29,1148.23 416.234,1148.23 417.177,1148.23 418.12,1148.23 419.064,1148.23 420.007,1148.23 420.95,1148.23 421.893,1148.23 422.837,1148.23 423.78,1148.23 424.723,1148.23 425.666,1148.23 426.61,1148.23 427.553,1148.23 428.496,1148.23 429.439,1148.23 430.383,1148.23 431.326,1148.23 432.269,1148.23 433.213,1148.23 434.156,1148.23 435.099,1148.23 436.042,1148.23 436.986,1148.23 437.929,1148.23 438.872,1148.23 439.815,1148.23 440.759,1148.23 441.702,1148.23 442.645,1148.23 443.588,1148.23 444.532,1148.23 445.475,1148.23 446.418,1148.23 447.361,1148.23 448.305,1148.23 449.248,1148.23 450.191,1148.23 451.135,1148.23 452.078,1148.23 453.021,1148.23 453.964,1148.23 454.908,1148.23 455.851,1148.23 456.794,1148.23 457.737,1148.23 458.681,1148.23 459.624,1148.23 460.567,1148.23 461.51,1148.23 462.454,1148.23 463.397,1148.23 464.34,1148.23 465.284,1148.23 466.227,1148.23 467.17,1148.23 468.113,1148.23 469.057,1148.23 470,1148.23 470.943,1148.23 471.886,1148.23 472.83,1148.23 473.773,1148.23 474.716,1148.23 475.659,1148.23 476.603,1148.23 477.546,1148.23 478.489,1148.23 479.432,1148.23 480.376,1148.23 481.319,1148.23 482.262,1148.23 483.206,1148.23 484.149,1148.23 485.092,1148.23 486.035,1148.23 486.979,1148.23 487.922,1148.23 488.865,1148.23 489.808,1148.23 490.752,1148.23 491.695,1148.23 492.638,1148.23 493.581,1148.23 494.525,1148.23 495.468,1148.23 496.411,1148.23 497.355,1148.23 498.298,1148.23 499.241,1148.23 500.184,1148.23 501.128,1148.23 502.071,1148.23 503.014,1148.23 503.957,1148.23 504.901,1148.23 505.844,1148.23 506.787,1148.23 507.73,1148.23 508.674,1148.23 509.617,1148.23 510.56,1148.23 511.503,1148.23 512.447,1148.23 513.39,1148.23 514.333,1148.23 515.277,1148.23 516.22,1148.23 517.163,1148.23 518.106,1148.23 519.05,1148.23 519.993,1148.23 520.936,1148.23 521.879,1148.23 522.823,1148.23 523.766,1148.23 524.709,1148.23 525.652,1148.23 526.596,1148.23 527.539,1148.23 528.482,1148.23 529.426,1148.23 530.369,1148.23 531.312,1148.23 532.255,1148.23 533.199,1148.23 534.142,1148.23 535.085,1148.23 536.028,1148.23 536.972,1148.23 537.915,1148.23 538.858,1148.23 539.801,1148.23 540.745,1148.23 541.688,1148.23 542.631,1148.23 543.574,1148.23 544.518,1148.23 545.461,1148.23 546.404,1148.23 547.348,1148.23 548.291,1148.23 549.234,1148.23 550.177,1148.23 551.121,1148.23 552.064,1148.23 553.007,1148.23 553.95,1148.23 554.894,1148.23 555.837,1148.23 556.78,1148.23 557.723,1148.23 558.667,1148.23 559.61,1148.23 560.553,1148.23 561.497,1148.23 562.44,1148.23 563.383,1148.23 564.326,1148.23 565.27,1148.23 566.213,1148.23 567.156,1148.23 568.099,1148.23 569.043,1148.23 569.986,1148.23 570.929,1148.23 571.872,1148.23 572.816,1148.23 573.759,1148.23 574.702,1148.23 575.645,1148.23 576.589,1148.23 577.532,1148.23 578.475,1148.23 579.419,1148.23 580.362,1148.23 581.305,1148.23 582.248,1148.23 583.192,1148.23 584.135,1148.23 585.078,1148.23 586.021,1148.23 586.965,1148.23 587.908,1148.23 588.851,1148.23 589.794,1148.23 590.738,1148.23 591.681,1148.23 592.624,1148.23 593.567,1148.23 594.511,1148.23 595.454,1148.23 596.397,1148.23 597.341,1148.23 598.284,1030.22 599.227,1030.22 600.17,1030.22 601.114,1030.22 602.057,1030.22 603,1030.22 603.943,1030.22 604.887,1030.22 605.83,1030.22 606.773,1030.22 607.716,1030.22 608.66,1030.22 609.603,1030.22 610.546,1030.22 611.49,1030.22 612.433,1030.22 613.376,1030.22 614.319,1030.22 615.263,1030.22 616.206,1030.22 617.149,1030.22 618.092,1030.22 619.036,1030.22 619.979,1030.22 620.922,1030.22 621.865,1030.22 622.809,1030.22 623.752,1030.22 624.695,1030.22 625.638,1030.22 626.582,1030.22 627.525,1030.22 628.468,1030.22 629.412,1030.22 630.355,1030.22 631.298,1030.22 632.241,1030.22 633.185,1030.22 634.128,1030.22 635.071,1030.22 636.014,1030.22 636.958,1030.22 637.901,1030.22 638.844,1030.22 639.787,1030.22 640.731,1030.22 641.674,1030.22 642.617,1030.22 643.561,1030.22 644.504,1030.22 645.447,1030.22 646.39,1030.22 647.334,1030.22 648.277,1030.22 649.22,1030.22 650.163,1030.22 651.107,1030.22 652.05,1030.22 652.993,1030.22 653.936,1030.22 654.88,1030.22 655.823,1030.22 656.766,1030.22 657.709,1030.22 658.653,1030.22 659.596,1030.22 660.539,1030.22 661.483,1030.22 662.426,1030.22 663.369,1030.22 664.312,1030.22 665.256,1030.22 666.199,1030.22 667.142,1030.22 668.085,1030.22 669.029,1030.22 669.972,1030.22 670.915,1030.22 671.858,1030.22 672.802,1030.22 673.745,1030.22 674.688,1030.22 675.632,1030.22 676.575,1030.22 677.518,1030.22 678.461,1030.22 679.405,1030.22 680.348,1030.22 681.291,1030.22 682.234,1030.22 683.178,1030.22 684.121,1030.22 685.064,1030.22 686.007,1030.22 686.951,1030.22 687.894,1030.22 688.837,1030.22 689.78,1030.22 690.724,1030.22 691.667,1030.22 692.61,1030.22 693.554,1030.22 694.497,1030.22 695.44,1030.22 696.383,1030.22 697.327,1030.22 698.27,1030.22 699.213,1030.22 700.156,1030.22 701.1,1030.22 702.043,1030.22 702.986,1030.22 703.929,1030.22 704.873,1030.22 705.816,1030.22 706.759,1030.22 707.703,1030.22 708.646,1030.22 709.589,1030.22 710.532,1030.22 711.476,1030.22 712.419,1030.22 713.362,1030.22 714.305,1030.22 715.249,912.219 716.192,912.219 717.135,912.219 718.078,912.219 719.022,912.219 719.965,912.219 720.908,912.219 721.851,912.219 722.795,912.219 723.738,912.219 724.681,912.219 725.625,912.219 726.568,912.219 727.511,912.219 728.454,912.219 729.398,912.219 730.341,912.219 731.284,912.219 732.227,912.219 733.171,912.219 734.114,912.219 735.057,912.219 736,912.219 736.944,912.219 737.887,912.219 738.83,912.219 739.774,912.219 740.717,912.219 741.66,912.219 742.603,912.219 743.547,912.219 744.49,912.219 745.433,912.219 746.376,912.219 747.32,912.219 748.263,912.219 749.206,912.219 750.149,912.219 751.093,912.219 752.036,912.219 752.979,912.219 753.922,912.219 754.866,912.219 755.809,912.219 756.752,912.219 757.696,912.219 758.639,912.219 759.582,912.219 760.525,912.219 761.469,912.219 762.412,912.219 763.355,912.219 764.298,912.219 765.242,912.219 766.185,912.219 767.128,912.219 768.071,912.219 769.015,912.219 769.958,912.219 770.901,912.219 771.845,912.219 772.788,912.219 773.731,912.219 774.674,912.219 775.618,912.219 776.561,912.219 777.504,912.219 778.447,912.219 779.391,912.219 780.334,912.219 781.277,912.219 782.22,912.219 783.164,912.219 784.107,912.219 785.05,912.219 785.993,912.219 786.937,912.219 787.88,912.219 788.823,912.219 789.767,912.219 790.71,912.219 791.653,912.219 792.596,912.219 793.54,912.219 794.483,912.219 795.426,912.219 796.369,912.219 797.313,912.219 798.256,912.219 799.199,912.219 800.142,912.219 801.086,912.219 802.029,912.219 802.972,912.219 803.915,912.219 804.859,912.219 805.802,912.219 806.745,912.219 807.689,912.219 808.632,912.219 809.575,912.219 810.518,912.219 811.462,912.219 812.405,912.219 813.348,912.219 814.291,912.219 815.235,912.219 816.178,912.219 817.121,912.219 818.064,912.219 819.008,912.219 819.951,912.219 820.894,912.219 821.838,912.219 822.781,912.219 823.724,912.219 824.667,912.219 825.611,912.219 826.554,912.219 827.497,912.219 828.44,912.219 829.384,912.219 830.327,912.219 831.27,912.219 832.213,912.219 833.157,912.219 834.1,912.219 835.043,912.219 835.986,912.219 836.93,912.219 837.873,912.219 838.816,912.219 839.76,912.219 840.703,912.219 841.646,912.219 842.589,912.219 843.533,912.219 844.476,912.219 845.419,912.219 846.362,912.219 847.306,912.219 848.249,912.219 849.192,912.219 850.135,912.219 851.079,912.219 852.022,912.219 852.965,912.219 853.909,912.219 854.852,912.219 855.795,912.219 856.738,912.219 857.682,912.219 858.625,912.219 859.568,912.219 860.511,912.219 861.455,912.219 862.398,912.219 863.341,912.219 864.284,912.219 865.228,912.219 866.171,912.219 867.114,912.219 868.057,912.219 869.001,912.219 869.944,912.219 870.887,912.219 871.831,912.219 872.774,912.219 873.717,912.219 874.66,912.219 875.604,912.219 876.547,912.219 877.49,912.219 878.433,912.219 879.377,912.219 880.32,912.219 881.263,912.219 882.206,912.219 883.15,912.219 884.093,912.219 885.036,912.219 885.98,912.219 886.923,912.219 887.866,912.219 888.809,912.219 889.753,912.219 890.696,912.219 891.639,912.219 892.582,912.219 893.526,912.219 894.469,912.219 895.412,912.219 896.355,912.219 897.299,912.219 898.242,912.219 899.185,912.219 900.128,912.219 901.072,912.219 902.015,912.219 902.958,912.219 903.902,912.219 904.845,912.219 905.788,912.219 906.731,912.219 907.675,912.219 908.618,912.219 909.561,912.219 910.504,912.219 911.448,912.219 912.391,912.219 913.334,912.219 914.277,912.219 915.221,912.219 916.164,912.219 917.107,912.219 918.051,912.219 918.994,912.219 919.937,912.219 920.88,912.219 921.824,912.219 922.767,912.219 923.71,912.219 924.653,912.219 925.597,912.219 926.54,912.219 927.483,912.219 928.426,912.219 929.37,912.219 930.313,912.219 931.256,912.219 932.199,912.219 933.143,912.219 934.086,912.219 935.029,912.219 935.973,912.219 936.916,912.219 937.859,912.219 938.802,912.219 939.746,912.219 940.689,912.219 941.632,912.219 942.575,912.219 943.519,912.219 944.462,912.219 945.405,912.219 946.348,912.219 947.292,912.219 948.235,912.219 949.178,912.219 950.122,912.219 951.065,912.219 952.008,912.219 952.951,912.219 953.895,912.219 954.838,912.219 955.781,912.219 956.724,912.219 957.668,912.219 958.611,912.219 959.554,912.219 960.497,912.219 961.441,912.219 962.384,912.219 963.327,912.219 964.27,912.219 965.214,912.219 966.157,912.219 967.1,912.219 968.044,912.219 968.987,912.219 969.93,912.219 970.873,912.219 971.817,912.219 972.76,912.219 973.703,912.219 974.646,912.219 975.59,912.219 976.533,912.219 977.476,912.219 978.419,912.219 979.363,912.219 980.306,912.219 981.249,912.219 982.192,912.219 983.136,912.219 984.079,912.219 985.022,912.219 985.966,912.219 986.909,912.219 987.852,912.219 988.795,912.219 989.739,912.219 990.682,912.219 991.625,912.219 992.568,912.219 993.512,912.219 994.455,912.219 995.398,912.219 996.341,912.219 997.285,912.219 998.228,912.219 999.171,912.219 1000.11,912.219 1001.06,912.219 1002,912.219 1002.94,912.219 1003.89,912.219 1004.83,912.219 1005.77,912.219 1006.72,912.219 1007.66,912.219 1008.6,912.219 1009.55,912.219 1010.49,912.219 1011.43,912.219 1012.38,912.219 1013.32,912.219 1014.26,912.219 1015.21,912.219 1016.15,912.219 1017.09,912.219 1018.04,912.219 1018.98,912.219 1019.92,912.219 1020.87,912.219 1021.81,912.219 1022.75,912.219 1023.7,912.219 1024.64,912.219 1025.58,912.219 1026.53,912.219 1027.47,912.219 1028.41,912.219 1029.36,912.219 1030.3,912.219 1031.24,912.219 1032.19,912.219 1033.13,912.219 1034.07,912.219 1035.02,912.219 1035.96,912.219 1036.9,912.219 1037.85,912.219 1038.79,912.219 1039.73,912.219 1040.67,912.219 1041.62,912.219 1042.56,912.219 1043.5,912.219 1044.45,912.219 1045.39,912.219 1046.33,912.219 1047.28,912.219 1048.22,912.219 1049.16,912.219 1050.11,912.219 1051.05,912.219 1051.99,912.219 1052.94,912.219 1053.88,912.219 1054.82,912.219 1055.77,912.219 1056.71,912.219 1057.65,912.219 1058.6,912.219 1059.54,912.219 1060.48,912.219 1061.43,912.219 1062.37,912.219 1063.31,912.219 1064.26,912.219 1065.2,912.219 1066.14,912.219 1067.09,912.219 1068.03,912.219 1068.97,912.219 1069.92,912.219 1070.86,912.219 1071.8,912.219 1072.75,912.219 1073.69,912.219 1074.63,912.219 1075.58,912.219 1076.52,912.219 1077.46,912.219 1078.41,912.219 1079.35,912.219 1080.29,912.219 1081.24,912.219 1082.18,912.219 1083.12,912.219 1084.07,912.219 1085.01,912.219 1085.95,912.219 1086.89,912.219 1087.84,912.219 1088.78,912.219 1089.72,912.219 1090.67,912.219 1091.61,912.219 1092.55,912.219 1093.5,912.219 1094.44,912.219 1095.38,912.219 1096.33,912.219 1097.27,912.219 1098.21,912.219 1099.16,912.219 1100.1,912.219 1101.04,912.219 1101.99,912.219 1102.93,912.219 1103.87,912.219 1104.82,912.219 1105.76,912.219 1106.7,912.219 1107.65,912.219 1108.59,912.219 1109.53,912.219 1110.48,912.219 1111.42,912.219 1112.36,912.219 1113.31,912.219 1114.25,912.219 1115.19,912.219 1116.14,912.219 1117.08,912.219 1118.02,912.219 1118.97,912.219 1119.91,912.219 1120.85,912.219 1121.8,912.219 1122.74,912.219 1123.68,912.219 1124.63,912.219 1125.57,912.219 1126.51,912.219 1127.46,912.219 1128.4,912.219 1129.34,912.219 1130.29,912.219 1131.23,912.219 1132.17,912.219 1133.11,912.219 1134.06,912.219 1135,912.219 1135.94,912.219 1136.89,912.219 1137.83,912.219 1138.77,912.219 1139.72,912.219 1140.66,912.219 1141.6,912.219 1142.55,912.219 1143.49,912.219 1144.43,912.219 1145.38,912.219 1146.32,912.219 1147.26,912.219 1148.21,912.219 1149.15,912.219 1150.09,912.219 1151.04,912.219 1151.98,912.219 1152.92,912.219 1153.87,912.219 1154.81,912.219 1155.75,912.219 1156.7,912.219 1157.64,912.219 1158.58,912.219 1159.53,912.219 1160.47,912.219 1161.41,912.219 1162.36,912.219 1163.3,912.219 1164.24,912.219 1165.19,912.219 1166.13,912.219 1167.07,912.219 1168.02,912.219 1168.96,912.219 1169.9,912.219 1170.85,912.219 1171.79,912.219 1172.73,912.219 1173.68,912.219 1174.62,912.219 1175.56,912.219 1176.5,912.219 1177.45,912.219 1178.39,912.219 1179.33,912.219 1180.28,912.219 1181.22,912.219 1182.16,912.219 1183.11,912.219 1184.05,912.219 1184.99,912.219 1185.94,912.219 1186.88,912.219 1187.82,912.219 1188.77,912.219 1189.71,912.219 1190.65,912.219 1191.6,912.219 1192.54,912.219 1193.48,912.219 1194.43,912.219 1195.37,912.219 1196.31,912.219 1197.26,912.219 1198.2,912.219 1199.14,912.219 1200.09,912.219 1201.03,912.219 1201.97,912.219 1202.92,912.219 1203.86,912.219 1204.8,912.219 1205.75,912.219 1206.69,912.219 1207.63,912.219 1208.58,912.219 1209.52,912.219 1210.46,912.219 1211.41,912.219 1212.35,912.219 1213.29,912.219 1214.24,912.219 1215.18,912.219 1216.12,912.219 1217.07,912.219 1218.01,912.219 1218.95,912.219 1219.9,912.219 1220.84,912.219 1221.78,912.219 1222.72,912.219 1223.67,912.219 1224.61,912.219 1225.55,912.219 1226.5,912.219 1227.44,912.219 1228.38,912.219 1229.33,912.219 1230.27,912.219 1231.21,912.219 1232.16,912.219 1233.1,912.219 1234.04,912.219 1234.99,912.219 1235.93,912.219 1236.87,912.219 1237.82,912.219 1238.76,912.219 1239.7,912.219 1240.65,912.219 1241.59,912.219 1242.53,912.219 1243.48,912.219 1244.42,912.219 1245.36,912.219 1246.31,912.219 1247.25,912.219 1248.19,912.219 1249.14,912.219 1250.08,912.219 1251.02,912.219 1251.97,912.219 1252.91,912.219 1253.85,912.219 1254.8,912.219 1255.74,912.219 1256.68,912.219 1257.63,912.219 1258.57,912.219 1259.51,912.219 1260.46,912.219 1261.4,912.219 1262.34,912.219 1263.29,912.219 1264.23,912.219 1265.17,912.219 1266.12,912.219 1267.06,912.219 1268,912.219 1268.94,912.219 1269.89,912.219 1270.83,912.219 1271.77,912.219 1272.72,912.219 1273.66,912.219 1274.6,912.219 1275.55,912.219 1276.49,912.219 1277.43,912.219 1278.38,912.219 1279.32,912.219 1280.26,912.219 1281.21,912.219 1282.15,912.219 1283.09,912.219 1284.04,912.219 1284.98,912.219 1285.92,912.219 1286.87,912.219 1287.81,912.219 1288.75,912.219 1289.7,912.219 1290.64,912.219 1291.58,912.219 1292.53,912.219 1293.47,912.219 1294.41,912.219 1295.36,912.219 1296.3,912.219 1297.24,912.219 1298.19,912.219 1299.13,912.219 1300.07,912.219 1301.02,912.219 1301.96,912.219 1302.9,912.219 1303.85,912.219 1304.79,912.219 1305.73,912.219 1306.68,912.219 1307.62,912.219 1308.56,912.219 1309.51,912.219 1310.45,912.219 1311.39,912.219 1312.34,912.219 1313.28,912.219 1314.22,912.219 1315.16,912.219 1316.11,912.219 1317.05,912.219 1317.99,912.219 1318.94,912.219 1319.88,912.219 1320.82,912.219 1321.77,912.219 1322.71,912.219 1323.65,912.219 1324.6,912.219 1325.54,912.219 1326.48,912.219 1327.43,912.219 1328.37,912.219 1329.31,912.219 1330.26,912.219 1331.2,912.219 1332.14,912.219 1333.09,912.219 1334.03,912.219 1334.97,912.219 1335.92,912.219 1336.86,912.219 1337.8,912.219 1338.75,912.219 1339.69,912.219 1340.63,912.219 1341.58,912.219 1342.52,912.219 1343.46,912.219 1344.41,912.219 1345.35,912.219 1346.29,912.219 1347.24,912.219 1348.18,912.219 1349.12,912.219 1350.07,912.219 1351.01,912.219 1351.95,912.219 1352.9,912.219 1353.84,912.219 1354.78,912.219 1355.73,912.219 1356.67,912.219 1357.61,912.219 1358.56,912.219 1359.5,912.219 1360.44,912.219 1361.38,912.219 1362.33,912.219 1363.27,912.219 1364.21,912.219 1365.16,912.219 1366.1,912.219 1367.04,912.219 1367.99,912.219 1368.93,912.219 1369.87,912.219 1370.82,912.219 1371.76,912.219 1372.7,912.219 1373.65,912.219 1374.59,912.219 1375.53,912.219 1376.48,912.219 1377.42,912.219 1378.36,912.219 1379.31,912.219 1380.25,912.219 1381.19,912.219 1382.14,912.219 1383.08,912.219 1384.02,912.219 1384.97,912.219 1385.91,912.219 1386.85,912.219 1387.8,912.219 1388.74,912.219 1389.68,912.219 1390.63,912.219 1391.57,912.219 1392.51,912.219 1393.46,912.219 1394.4,912.219 1395.34,912.219 1396.29,912.219 1397.23,912.219 1398.17,912.219 1399.12,912.219 1400.06,912.219 1401,912.219 1401.95,912.219 1402.89,912.219 1403.83,912.219 1404.78,912.219 1405.72,912.219 1406.66,912.219 1407.6,912.219 1408.55,912.219 1409.49,912.219 1410.43,912.219 1411.38,912.219 1412.32,912.219 1413.26,794.214 1414.21,794.214 1415.15,794.214 1416.09,794.214 1417.04,794.214 1417.98,794.214 1418.92,794.214 1419.87,794.214 1420.81,794.214 1421.75,794.214 1422.7,794.214 1423.64,794.214 1424.58,794.214 1425.53,794.214 1426.47,794.214 1427.41,794.214 1428.36,794.214 1429.3,794.214 1430.24,794.214 1431.19,794.214 1432.13,794.214 1433.07,794.214 1434.02,794.214 1434.96,794.214 1435.9,794.214 1436.85,794.214 1437.79,794.214 1438.73,794.214 1439.68,794.214 1440.62,794.214 1441.56,794.214 1442.51,794.214 1443.45,794.214 1444.39,794.214 1445.34,794.214 1446.28,794.214 1447.22,794.214 1448.17,794.214 1449.11,794.214 1450.05,794.214 1450.99,794.214 1451.94,794.214 1452.88,794.214 1453.82,794.214 1454.77,794.214 1455.71,794.214 1456.65,794.214 1457.6,794.214 1458.54,794.214 1459.48,794.214 1460.43,794.214 1461.37,794.214 1462.31,794.214 1463.26,794.214 1464.2,794.214 1465.14,794.214 1466.09,794.214 1467.03,794.214 1467.97,794.214 1468.92,794.214 1469.86,794.214 1470.8,794.214 1471.75,794.214 1472.69,794.214 1473.63,794.214 1474.58,794.214 1475.52,794.214 1476.46,794.214 1477.41,794.214 1478.35,794.214 1479.29,794.214 1480.24,794.214 1481.18,794.214 1482.12,794.214 1483.07,794.214 1484.01,794.214 1484.95,794.214 1485.9,794.214 1486.84,794.214 1487.78,794.214 1488.73,794.214 1489.67,794.214 1490.61,794.214 1491.56,794.214 1492.5,794.214 1493.44,794.214 1494.39,794.214 1495.33,794.214 1496.27,794.214 1497.21,794.214 1498.16,794.214 1499.1,794.214 1500.04,794.214 1500.99,794.214 1501.93,794.214 1502.87,794.214 1503.82,794.214 1504.76,794.214 1505.7,794.214 1506.65,794.214 1507.59,794.214 1508.53,794.214 1509.48,794.214 1510.42,794.214 1511.36,794.214 1512.31,794.214 1513.25,794.214 1514.19,794.214 1515.14,794.214 1516.08,794.214 1517.02,794.214 1517.97,794.214 1518.91,794.214 1519.85,794.214 1520.8,794.214 1521.74,794.214 1522.68,794.214 1523.63,794.214 1524.57,794.214 1525.51,794.214 1526.46,794.214 1527.4,794.214 1528.34,794.214 1529.29,794.214 1530.23,794.214 1531.17,794.214 1532.12,794.214 1533.06,794.214 1534,794.214 1534.95,794.214 1535.89,794.214 1536.83,794.214 1537.78,794.214 1538.72,794.214 1539.66,794.214 1540.61,794.214 1541.55,794.214 1542.49,794.214 1543.43,794.214 1544.38,794.214 1545.32,794.214 1546.26,794.214 1547.21,794.214 1548.15,794.214 1549.09,794.214 1550.04,794.214 1550.98,794.214 1551.92,794.214 1552.87,794.214 1553.81,794.214 1554.75,794.214 1555.7,794.214 1556.64,794.214 1557.58,794.214 1558.53,794.214 1559.47,794.214 1560.41,794.214 1561.36,794.214 1562.3,794.214 1563.24,794.214 1564.19,794.214 1565.13,794.214 1566.07,794.214 1567.02,794.214 1567.96,794.214 1568.9,794.214 1569.85,794.214 1570.79,794.214 1571.73,794.214 1572.68,794.214 1573.62,794.214 1574.56,794.214 1575.51,794.214 1576.45,794.214 1577.39,794.214 1578.34,794.214 1579.28,794.214 1580.22,794.214 1581.17,794.214 1582.11,794.214 1583.05,794.214 1584,794.214 1584.94,794.214 1585.88,676.21 1586.83,676.21 1587.77,676.21 1588.71,676.21 1589.65,676.21 1590.6,676.21 1591.54,676.21 1592.48,676.21 1593.43,676.21 1594.37,676.21 1595.31,676.21 1596.26,676.21 1597.2,676.21 1598.14,676.21 1599.09,676.21 1600.03,676.21 1600.97,676.21 1601.92,676.21 1602.86,676.21 1603.8,676.21 1604.75,676.21 1605.69,676.21 1606.63,676.21 1607.58,676.21 1608.52,676.21 1609.46,676.21 1610.41,676.21 1611.35,676.21 1612.29,676.21 1613.24,676.21 1614.18,676.21 1615.12,676.21 1616.07,676.21 1617.01,676.21 1617.95,676.21 1618.9,676.21 1619.84,676.21 1620.78,676.21 1621.73,676.21 1622.67,676.21 1623.61,676.21 1624.56,676.21 1625.5,676.21 1626.44,676.21 1627.39,676.21 1628.33,676.21 1629.27,676.21 1630.22,676.21 1631.16,676.21 1632.1,676.21 1633.05,676.21 1633.99,676.21 1634.93,676.21 1635.87,676.21 1636.82,676.21 1637.76,676.21 1638.7,676.21 1639.65,676.21 1640.59,676.21 1641.53,676.21 1642.48,676.21 1643.42,676.21 1644.36,676.21 1645.31,676.21 1646.25,676.21 1647.19,676.21 1648.14,676.21 1649.08,676.21 1650.02,676.21 1650.97,676.21 1651.91,676.21 1652.85,676.21 1653.8,676.21 1654.74,676.21 1655.68,676.21 1656.63,676.21 1657.57,676.21 1658.51,676.21 1659.46,676.21 1660.4,676.21 1661.34,676.21 1662.29,676.21 1663.23,676.21 1664.17,676.21 1665.12,676.21 1666.06,676.21 1667,676.21 1667.95,676.21 1668.89,676.21 1669.83,676.21 1670.78,676.21 1671.72,676.21 1672.66,676.21 1673.61,676.21 1674.55,676.21 1675.49,676.21 1676.44,676.21 1677.38,676.21 1678.32,676.21 1679.27,676.21 1680.21,676.21 1681.15,676.21 1682.09,676.21 1683.04,676.21 1683.98,676.21 1684.92,676.21 1685.87,676.21 1686.81,676.21 1687.75,676.21 1688.7,676.21 1689.64,676.21 1690.58,676.21 1691.53,676.21 1692.47,676.21 1693.41,676.21 1694.36,676.21 1695.3,676.21 1696.24,676.21 1697.19,676.21 1698.13,676.21 1699.07,676.21 1700.02,676.21 1700.96,676.21 1701.9,676.21 1702.85,676.21 1703.79,676.21 1704.73,676.21 1705.68,676.21 1706.62,676.21 1707.56,676.21 1708.51,676.21 1709.45,676.21 1710.39,676.21 1711.34,676.21 1712.28,676.21 1713.22,676.21 1714.17,676.21 1715.11,676.21 1716.05,676.21 1717,676.21 1717.94,676.21 1718.88,676.21 1719.83,676.21 1720.77,676.21 1721.71,676.21 1722.66,676.21 1723.6,676.21 1724.54,676.21 1725.48,676.21 1726.43,676.21 1727.37,676.21 1728.31,676.21 1729.26,676.21 1730.2,676.21 1731.14,676.21 1732.09,676.21 1733.03,676.21 1733.97,676.21 1734.92,676.21 1735.86,676.21 1736.8,676.21 1737.75,676.21 1738.69,676.21 1739.63,676.21 1740.58,676.21 1741.52,676.21 1742.46,676.21 1743.41,676.21 1744.35,676.21 1745.29,676.21 1746.24,676.21 1747.18,676.21 1748.12,676.21 1749.07,676.21 1750.01,676.21 1750.95,676.21 1751.9,676.21 1752.84,676.21 1753.78,676.21 1754.73,676.21 1755.67,676.21 1756.61,676.21 1757.56,676.21 1758.5,676.21 1759.44,676.21 1760.39,676.21 1761.33,676.21 1762.27,676.21 1763.22,676.21 1764.16,676.21 1765.1,676.21 1766.05,676.21 1766.99,676.21 1767.93,676.21 1768.88,676.21 1769.82,676.21 1770.76,676.21 1771.7,676.21 1772.65,676.21 1773.59,676.21 1774.53,676.21 1775.48,676.21 1776.42,676.21 1777.36,676.21 1778.31,676.21 1779.25,676.21 1780.19,676.21 1781.14,676.21 1782.08,676.21 1783.02,676.21 1783.97,676.21 1784.91,676.21 1785.85,676.21 1786.8,676.21 1787.74,676.21 1788.68,676.21 1789.63,676.21 1790.57,676.21 1791.51,676.21 1792.46,676.21 1793.4,676.21 1794.34,676.21 1795.29,676.21 1796.23,676.21 1797.17,676.21 1798.12,676.21 1799.06,676.21 1800,676.21 1800.95,676.21 1801.89,676.21 1802.83,676.21 1803.78,676.21 1804.72,676.21 1805.66,676.21 1806.61,676.21 1807.55,676.21 1808.49,676.21 1809.44,676.21 1810.38,676.21 1811.32,676.21 1812.27,676.21 1813.21,676.21 1814.15,676.21 1815.1,676.21 1816.04,676.21 1816.98,676.21 1817.92,676.21 1818.87,676.21 1819.81,676.21 1820.75,676.21 1821.7,676.21 1822.64,676.21 1823.58,676.21 1824.53,676.21 1825.47,676.21 1826.41,676.21 1827.36,676.21 1828.3,676.21 1829.24,676.21 1830.19,676.21 1831.13,676.21 1832.07,676.21 1833.02,676.21 1833.96,676.21 1834.9,676.21 1835.85,676.21 1836.79,676.21 1837.73,676.21 1838.68,676.21 1839.62,676.21 1840.56,676.21 1841.51,676.21 1842.45,676.21 1843.39,676.21 1844.34,676.21 1845.28,676.21 1846.22,676.21 1847.17,676.21 1848.11,676.21 1849.05,676.21 1850,676.21 1850.94,676.21 1851.88,676.21 1852.83,676.21 1853.77,676.21 1854.71,676.21 1855.66,676.21 1856.6,676.21 1857.54,676.21 1858.49,676.21 1859.43,676.21 1860.37,676.21 1861.32,676.21 1862.26,676.21 1863.2,676.21 1864.14,676.21 1865.09,676.21 1866.03,676.21 1866.97,676.21 1867.92,676.21 1868.86,676.21 1869.8,676.21 1870.75,676.21 1871.69,676.21 1872.63,676.21 1873.58,676.21 1874.52,676.21 1875.46,676.21 1876.41,676.21 1877.35,676.21 1878.29,676.21 1879.24,676.21 1880.18,676.21 1881.12,558.205 1882.07,558.205 1883.01,558.205 1883.95,440.2 1884.9,440.2 1885.84,440.2 1886.78,440.2 1887.73,440.2 1888.67,440.2 1889.61,440.2 1890.56,440.2 1891.5,440.2 1892.44,440.2 1893.39,440.2 1894.33,440.2 1895.27,440.2 1896.22,440.2 1897.16,440.2 1898.1,440.2 1899.05,440.2 1899.99,440.2 1900.93,322.195 1901.88,322.195 1902.82,322.195 1903.76,322.195 1904.71,322.195 1905.65,322.195 1906.59,322.195 1907.54,322.195 1908.48,322.195 1909.42,322.195 1910.36,322.195 1911.31,322.195 1912.25,322.195 1913.19,322.195 1914.14,322.195 1915.08,322.195 1916.02,322.195 1916.97,322.195 1917.91,322.195 1918.85,204.19 1919.8,204.19 1920.74,204.19 1921.68,204.19 1922.63,204.19 1923.57,204.19 1924.51,204.19 1925.46,204.19 1926.4,204.19 1927.34,204.19 1928.29,204.19 1929.23,204.19 1930.17,204.19 1931.12,204.19 1932.06,204.19 1933,204.19 1933.95,204.19 1934.89,204.19 1935.83,204.19 1936.78,204.19 1937.72,204.19 1938.66,204.19 1939.61,204.19 1940.55,204.19 1941.49,204.19 1942.44,204.19 1943.38,204.19 1944.32,204.19 1945.27,204.19 1946.21,204.19 1947.15,204.19 1948.1,204.19 1949.04,204.19 1949.98,204.19 1950.93,204.19 1951.87,204.19 1952.81,204.19 1953.75,204.19 1954.7,204.19 1955.64,204.19 1956.58,204.19 1957.53,204.19 1958.47,204.19 1959.41,204.19 1960.36,204.19 1961.3,204.19 1962.24,204.19 1963.19,204.19 1964.13,204.19 1965.07,204.19 1966.02,204.19 1966.96,204.19 1967.9,204.19 1968.85,204.19 1969.79,204.19 1970.73,204.19 1971.68,204.19 1972.62,204.19 1973.56,204.19 1974.51,204.19 1975.45,204.19 1976.39,204.19 1977.34,204.19 1978.28,204.19 1979.22,204.19 1980.17,204.19 1981.11,204.19 1982.05,204.19 1983,204.19 1983.94,204.19 1984.88,204.19 1985.83,204.19 1986.77,204.19 1987.71,204.19 1988.66,204.19 1989.6,204.19 1990.54,204.19 1991.49,204.19 1992.43,204.19 1993.37,204.19 1994.32,204.19 1995.26,204.19 1996.2,204.19 1997.15,204.19 1998.09,204.19 1999.03,204.19 1999.97,204.19 2000.92,204.19 2001.86,204.19 2002.8,204.19 2003.75,204.19 2004.69,204.19 2005.63,204.19 2006.58,204.19 2007.52,204.19 2008.46,204.19 2009.41,204.19 2010.35,204.19 2011.29,204.19 2012.24,204.19 2013.18,204.19 2014.12,204.19 2015.07,204.19 2016.01,204.19 2016.95,204.19 2017.9,204.19 2018.84,204.19 2019.78,204.19 2020.73,204.19 2021.67,204.19 2022.61,204.19 2023.56,204.19 2024.5,204.19 2025.44,204.19 2026.39,204.19 2027.33,204.19 2028.27,204.19 2029.22,204.19 2030.16,204.19 2031.1,204.19 2032.05,204.19 2032.99,204.19 2033.93,204.19 2034.88,204.19 2035.82,204.19 2036.76,204.19 2037.71,204.19 2038.65,204.19 2039.59,204.19 2040.54,204.19 2041.48,204.19 2042.42,204.19 2043.37,204.19 2044.31,204.19 2045.25,204.19 2046.19,204.19 2047.14,204.19 2048.08,204.19 2049.02,204.19 2049.97,204.19 2050.91,204.19 2051.85,204.19 2052.8,204.19 2053.74,204.19 2054.68,204.19 2055.63,204.19 2056.57,204.19 2057.51,204.19 2058.46,204.19 2059.4,204.19 2060.34,204.19 2061.29,204.19 2062.23,204.19 2063.17,204.19 2064.12,204.19 2065.06,204.19 2066,204.19 2066.95,204.19 2067.89,204.19 2068.83,204.19 2069.78,204.19 2070.72,204.19 2071.66,204.19 2072.61,204.19 2073.55,204.19 2074.49,204.19 2075.44,204.19 2076.38,204.19 2077.32,204.19 2078.27,204.19 2079.21,204.19 2080.15,204.19 2081.1,204.19 2082.04,204.19 2082.98,204.19 2083.93,204.19 2084.87,204.19 2085.81,204.19 2086.76,204.19 2087.7,204.19 2088.64,204.19 2089.59,204.19 2090.53,204.19 2091.47,204.19 2092.41,204.19 2093.36,204.19 2094.3,204.19 2095.24,204.19 2096.19,204.19 2097.13,204.19 2098.07,204.19 2099.02,204.19 2099.96,204.19 2100.9,204.19 2101.85,204.19 2102.79,204.19 2103.73,204.19 2104.68,204.19 2105.62,204.19 2106.56,204.19 2107.51,204.19 2108.45,204.19 2109.39,204.19 2110.34,204.19 2111.28,204.19 2112.22,204.19 2113.17,204.19 2114.11,204.19 2115.05,204.19 2116,204.19 2116.94,204.19 2117.88,204.19 2118.83,204.19 2119.77,204.19 2120.71,204.19 2121.66,204.19 2122.6,204.19 2123.54,204.19 2124.49,204.19 2125.43,204.19 2126.37,204.19 2127.32,204.19 2128.26,204.19 2129.2,204.19 2130.15,204.19 2131.09,204.19 2132.03,204.19 2132.98,204.19 2133.92,204.19 2134.86,204.19 2135.81,204.19 2136.75,204.19 2137.69,204.19 2138.63,204.19 2139.58,204.19 2140.52,204.19 2141.46,204.19 2142.41,204.19 2143.35,204.19 2144.29,204.19 2145.24,204.19 2146.18,204.19 2147.12,204.19 2148.07,204.19 2149.01,204.19 2149.95,204.19 2150.9,204.19 2151.84,204.19 2152.78,204.19 2153.73,204.19 2154.67,204.19 2155.61,204.19 2156.56,204.19 2157.5,204.19 2158.44,204.19 2159.39,204.19 2160.33,204.19 2161.27,204.19 2162.22,204.19 2163.16,204.19 2164.1,204.19 2165.05,204.19 2165.99,204.19 2166.93,204.19 2167.88,204.19 2168.82,204.19 2169.76,204.19 2170.71,204.19 2171.65,204.19 2172.59,204.19 2173.54,204.19 2174.48,204.19 2175.42,204.19 2176.37,204.19 2177.31,204.19 2178.25,204.19 2179.2,204.19 2180.14,204.19 2181.08,204.19 2182.03,204.19 2182.97,204.19 2183.91,204.19 2184.85,204.19 2185.8,204.19 2186.74,204.19 2187.68,204.19 2188.63,204.19 2189.57,204.19 2190.51,204.19 2191.46,204.19 2192.4,204.19 2193.34,204.19 2194.29,204.19 2195.23,204.19 2196.17,204.19 2197.12,204.19 2198.06,204.19 2199,204.19 2199.95,204.19 2200.89,204.19 2201.83,204.19 2202.78,204.19 2203.72,204.19 2204.66,204.19 2205.61,204.19 2206.55,204.19 2207.49,204.19 2208.44,204.19 2209.38,204.19 2210.32,204.19 2211.27,204.19 2212.21,204.19 2213.15,204.19 2214.1,204.19 2215.04,204.19 2215.98,204.19 2216.93,204.19 2217.87,204.19 2218.81,204.19 2219.76,204.19 2220.7,204.19 2221.64,204.19 2222.59,204.19 2223.53,204.19 2224.47,204.19 2225.42,204.19 2226.36,204.19 2227.3,204.19 2228.24,204.19 2229.19,204.19 2230.13,204.19 2231.07,204.19 2232.02,204.19 2232.96,204.19 2233.9,204.19 2234.85,204.19 2235.79,204.19 2236.73,204.19 2237.68,204.19 2238.62,204.19 2239.56,204.19 2240.51,204.19 2241.45,204.19 2242.39,204.19 2243.34,204.19 2244.28,204.19 2245.22,204.19 2246.17,204.19 2247.11,204.19 2248.05,204.19 2249,204.19 2249.94,204.19 2250.88,204.19 2251.83,204.19 2252.77,204.19 2253.71,204.19 2254.66,204.19 2255.6,204.19 2256.54,204.19 2257.49,204.19 2258.43,204.19 2259.37,204.19 2260.32,204.19 2261.26,204.19 2262.2,204.19 2263.15,204.19 2264.09,204.19 2265.03,204.19 2265.98,204.19 2266.92,204.19 2267.86,204.19 2268.81,204.19 2269.75,204.19 2270.69,204.19 2271.64,204.19 2272.58,204.19 2273.52,204.19 2274.46,204.19 2275.41,204.19 2276.35,204.19 2277.29,204.19 2278.24,204.19 2279.18,204.19 2280.12,204.19 2281.07,204.19 2282.01,204.19 2282.95,204.19 2283.9,204.19 2284.84,204.19 2285.78,204.19 2286.73,204.19 2287.67,204.19 2288.61,204.19 2289.56,204.19 2290.5,204.19 2291.44,204.19 2292.39,204.19 2293.33,204.19 2294.27,204.19 2295.22,204.19 2296.16,204.19 2297.1,204.19 2298.05,204.19 2298.99,204.19 2299.93,204.19 2300.88,204.19 2301.82,204.19 2302.76,204.19 2303.71,204.19 2304.65,204.19 2305.59,204.19 2306.54,204.19 2307.48,204.19 2308.42,204.19 2309.37,204.19 2310.31,204.19 2311.25,204.19 2312.2,204.19 2313.14,204.19 2314.08,204.19 2315.03,204.19 2315.97,204.19 2316.91,204.19 2317.86,204.19 2318.8,204.19 2319.74,204.19 2320.68,204.19 2321.63,204.19 2322.57,204.19 2323.51,204.19 2324.46,204.19 2325.4,204.19 2326.34,204.19 2327.29,204.19 2328.23,204.19 2329.17,204.19 2330.12,204.19 2331.06,204.19 2332,204.19 2332.95,204.19 2333.89,204.19 2334.83,204.19 2335.78,204.19 2336.72,204.19 2337.66,204.19 2338.61,204.19 2339.55,204.19 2340.49,204.19 2341.44,204.19 2342.38,204.19 2343.32,204.19 2344.27,204.19 2345.21,204.19 2346.15,204.19 2347.1,204.19 2348.04,204.19 2348.98,204.19 2349.93,204.19 2350.87,204.19 2351.81,204.19 2352.76,204.19 "/>
<polyline clip-path="url(#clip882)" style="stroke:#e26f46; stroke-linecap:round; stroke-linejoin:round; stroke-width:8; stroke-opacity:1; fill:none" points="184.191,1384.24 185.134,1384.24 186.077,1384.24 187.02,1384.24 187.964,1384.24 188.907,1384.24 189.85,1384.24 190.794,1384.24 191.737,1384.24 192.68,1384.24 193.623,1384.24 194.567,1384.24 195.51,1384.24 196.453,1384.24 197.396,1384.24 198.34,1384.24 199.283,1384.24 200.226,1384.24 201.169,1384.24 202.113,1384.24 203.056,1384.24 203.999,1384.24 204.942,1384.24 205.886,1384.24 206.829,1384.24 207.772,1384.24 208.716,1384.24 209.659,1384.24 210.602,1384.24 211.545,1384.24 212.489,1384.24 213.432,1384.24 214.375,1384.24 215.318,1384.24 216.262,1384.24 217.205,1384.24 218.148,1384.24 219.091,1384.24 220.035,1384.24 220.978,1384.24 221.921,1384.24 222.865,1384.24 223.808,1384.24 224.751,1384.24 225.694,1384.24 226.638,1384.24 227.581,1384.24 228.524,1384.24 229.467,1384.24 230.411,1384.24 231.354,1384.24 232.297,1384.24 233.24,1384.24 234.184,1384.24 235.127,1384.24 236.07,1384.24 237.013,1384.24 237.957,1384.24 238.9,1384.24 239.843,1384.24 240.787,1384.24 241.73,1384.24 242.673,1384.24 243.616,1384.24 244.56,1384.24 245.503,1384.24 246.446,1384.24 247.389,1384.24 248.333,1384.24 249.276,1384.24 250.219,1384.24 251.162,1384.24 252.106,1384.24 253.049,1384.24 253.992,1384.24 254.936,1384.24 255.879,1384.24 256.822,1384.24 257.765,1384.24 258.709,1384.24 259.652,1384.24 260.595,1384.24 261.538,1384.24 262.482,1384.24 263.425,1384.24 264.368,1384.24 265.311,1384.24 266.255,1384.24 267.198,1384.24 268.141,1384.24 269.084,1384.24 270.028,1384.24 270.971,1384.24 271.914,1384.24 272.858,1384.24 273.801,1384.24 274.744,1384.24 275.687,1384.24 276.631,1384.24 277.574,1384.24 278.517,1384.24 279.46,1384.24 280.404,1384.24 281.347,1384.24 282.29,1384.24 283.233,1384.24 284.177,1384.24 285.12,1384.24 286.063,1384.24 287.007,1384.24 287.95,1384.24 288.893,1384.24 289.836,1384.24 290.78,1384.24 291.723,1384.24 292.666,1384.24 293.609,1384.24 294.553,1384.24 295.496,1384.24 296.439,1384.24 297.382,1384.24 298.326,1384.24 299.269,1384.24 300.212,1384.24 301.155,1384.24 302.099,1384.24 303.042,1384.24 303.985,1384.24 304.929,1384.24 305.872,1384.24 306.815,1384.24 307.758,1384.24 308.702,1384.24 309.645,1384.24 310.588,1384.24 311.531,1384.24 312.475,1384.24 313.418,1384.24 314.361,1384.24 315.304,1384.24 316.248,1384.24 317.191,1384.24 318.134,1384.24 319.078,1384.24 320.021,1384.24 320.964,1384.24 321.907,1384.24 322.851,1384.24 323.794,1384.24 324.737,1384.24 325.68,1384.24 326.624,1384.24 327.567,1384.24 328.51,1384.24 329.453,1384.24 330.397,1384.24 331.34,1384.24 332.283,1384.24 333.226,1384.24 334.17,1384.24 335.113,1384.24 336.056,1384.24 337,1384.24 337.943,1384.24 338.886,1266.23 339.829,1266.23 340.773,1266.23 341.716,1266.23 342.659,1266.23 343.602,1266.23 344.546,1266.23 345.489,1266.23 346.432,1266.23 347.375,1266.23 348.319,1266.23 349.262,1266.23 350.205,1266.23 351.149,1266.23 352.092,1266.23 353.035,1266.23 353.978,1266.23 354.922,1266.23 355.865,1266.23 356.808,1266.23 357.751,1266.23 358.695,1266.23 359.638,1266.23 360.581,1266.23 361.524,1266.23 362.468,1266.23 363.411,1266.23 364.354,1266.23 365.297,1266.23 366.241,1266.23 367.184,1266.23 368.127,1266.23 369.071,1266.23 370.014,1266.23 370.957,1266.23 371.9,1266.23 372.844,1266.23 373.787,1266.23 374.73,1266.23 375.673,1266.23 376.617,1266.23 377.56,1266.23 378.503,1266.23 379.446,1266.23 380.39,1266.23 381.333,1266.23 382.276,1266.23 383.22,1266.23 384.163,1266.23 385.106,1266.23 386.049,1266.23 386.993,1266.23 387.936,1266.23 388.879,1266.23 389.822,1266.23 390.766,1266.23 391.709,1266.23 392.652,1266.23 393.595,1266.23 394.539,1266.23 395.482,1266.23 396.425,1266.23 397.368,1266.23 398.312,1266.23 399.255,1266.23 400.198,1266.23 401.142,1266.23 402.085,1266.23 403.028,1266.23 403.971,1266.23 404.915,1266.23 405.858,1266.23 406.801,1266.23 407.744,1266.23 408.688,1266.23 409.631,1266.23 410.574,1266.23 411.517,1266.23 412.461,1266.23 413.404,1266.23 414.347,1266.23 415.29,1266.23 416.234,1266.23 417.177,1266.23 418.12,1266.23 419.064,1266.23 420.007,1266.23 420.95,1266.23 421.893,1266.23 422.837,1266.23 423.78,1266.23 424.723,1266.23 425.666,1266.23 426.61,1266.23 427.553,1266.23 428.496,1266.23 429.439,1266.23 430.383,1266.23 431.326,1266.23 432.269,1266.23 433.213,1266.23 434.156,1266.23 435.099,1266.23 436.042,1266.23 436.986,1266.23 437.929,1266.23 438.872,1266.23 439.815,1266.23 440.759,1266.23 441.702,1266.23 442.645,1266.23 443.588,1266.23 444.532,1266.23 445.475,1266.23 446.418,1266.23 447.361,1266.23 448.305,1266.23 449.248,1266.23 450.191,1266.23 451.135,1266.23 452.078,1266.23 453.021,1266.23 453.964,1266.23 454.908,1266.23 455.851,1266.23 456.794,1266.23 457.737,1266.23 458.681,1266.23 459.624,1266.23 460.567,1266.23 461.51,1266.23 462.454,1266.23 463.397,1266.23 464.34,1266.23 465.284,1266.23 466.227,1266.23 467.17,1266.23 468.113,1266.23 469.057,1266.23 470,1266.23 470.943,1266.23 471.886,1266.23 472.83,1266.23 473.773,1266.23 474.716,1266.23 475.659,1266.23 476.603,1266.23 477.546,1266.23 478.489,1266.23 479.432,1266.23 480.376,1266.23 481.319,1266.23 482.262,1266.23 483.206,1266.23 484.149,1266.23 485.092,1266.23 486.035,1266.23 486.979,1266.23 487.922,1266.23 488.865,1266.23 489.808,1266.23 490.752,1266.23 491.695,1266.23 492.638,1266.23 493.581,1266.23 494.525,1266.23 495.468,1266.23 496.411,1266.23 497.355,1266.23 498.298,1266.23 499.241,1266.23 500.184,1266.23 501.128,1266.23 502.071,1266.23 503.014,1266.23 503.957,1266.23 504.901,1266.23 505.844,1266.23 506.787,1266.23 507.73,1266.23 508.674,1266.23 509.617,1266.23 510.56,1266.23 511.503,1266.23 512.447,1266.23 513.39,1266.23 514.333,1266.23 515.277,1266.23 516.22,1266.23 517.163,1266.23 518.106,1266.23 519.05,1266.23 519.993,1266.23 520.936,1266.23 521.879,1266.23 522.823,1266.23 523.766,1266.23 524.709,1266.23 525.652,1266.23 526.596,1266.23 527.539,1266.23 528.482,1266.23 529.426,1266.23 530.369,1266.23 531.312,1266.23 532.255,1266.23 533.199,1266.23 534.142,1266.23 535.085,1266.23 536.028,1266.23 536.972,1266.23 537.915,1266.23 538.858,1266.23 539.801,1266.23 540.745,1266.23 541.688,1266.23 542.631,1266.23 543.574,1266.23 544.518,1266.23 545.461,1266.23 546.404,1266.23 547.348,1266.23 548.291,1266.23 549.234,1266.23 550.177,1266.23 551.121,1266.23 552.064,1266.23 553.007,1266.23 553.95,1148.23 554.894,1148.23 555.837,1148.23 556.78,1148.23 557.723,1148.23 558.667,1148.23 559.61,1148.23 560.553,1148.23 561.497,1148.23 562.44,1148.23 563.383,1148.23 564.326,1148.23 565.27,1030.22 566.213,1030.22 567.156,1030.22 568.099,1030.22 569.043,1030.22 569.986,1030.22 570.929,1030.22 571.872,1030.22 572.816,1030.22 573.759,1030.22 574.702,1030.22 575.645,1030.22 576.589,1030.22 577.532,1030.22 578.475,1030.22 579.419,1030.22 580.362,1030.22 581.305,1030.22 582.248,1030.22 583.192,1030.22 584.135,1030.22 585.078,1030.22 586.021,1030.22 586.965,1030.22 587.908,1030.22 588.851,1030.22 589.794,1030.22 590.738,1030.22 591.681,1030.22 592.624,1030.22 593.567,1030.22 594.511,1030.22 595.454,1030.22 596.397,1030.22 597.341,1030.22 598.284,1030.22 599.227,1030.22 600.17,1030.22 601.114,1030.22 602.057,1030.22 603,1030.22 603.943,1030.22 604.887,1030.22 605.83,1030.22 606.773,1030.22 607.716,1030.22 608.66,1030.22 609.603,1030.22 610.546,1030.22 611.49,1030.22 612.433,1030.22 613.376,1030.22 614.319,1030.22 615.263,1030.22 616.206,1030.22 617.149,1030.22 618.092,1030.22 619.036,1030.22 619.979,1030.22 620.922,1030.22 621.865,1030.22 622.809,1030.22 623.752,1030.22 624.695,1030.22 625.638,1030.22 626.582,1030.22 627.525,1030.22 628.468,1030.22 629.412,1030.22 630.355,1030.22 631.298,1030.22 632.241,1030.22 633.185,1030.22 634.128,1030.22 635.071,1030.22 636.014,1030.22 636.958,1030.22 637.901,1030.22 638.844,1030.22 639.787,1030.22 640.731,1030.22 641.674,1030.22 642.617,1030.22 643.561,1030.22 644.504,1030.22 645.447,1030.22 646.39,1030.22 647.334,1030.22 648.277,1030.22 649.22,1030.22 650.163,1030.22 651.107,1030.22 652.05,1030.22 652.993,1030.22 653.936,1030.22 654.88,1030.22 655.823,1030.22 656.766,1030.22 657.709,1030.22 658.653,1030.22 659.596,1030.22 660.539,1030.22 661.483,1030.22 662.426,1030.22 663.369,1030.22 664.312,1030.22 665.256,1030.22 666.199,1030.22 667.142,1030.22 668.085,1030.22 669.029,1030.22 669.972,1030.22 670.915,1030.22 671.858,1030.22 672.802,1030.22 673.745,1030.22 674.688,1030.22 675.632,1030.22 676.575,1030.22 677.518,1030.22 678.461,1030.22 679.405,1030.22 680.348,1030.22 681.291,1030.22 682.234,1030.22 683.178,1030.22 684.121,1030.22 685.064,1030.22 686.007,1030.22 686.951,1030.22 687.894,1030.22 688.837,1030.22 689.78,1030.22 690.724,1030.22 691.667,1030.22 692.61,1030.22 693.554,1030.22 694.497,1030.22 695.44,1030.22 696.383,1030.22 697.327,1030.22 698.27,1030.22 699.213,1030.22 700.156,1030.22 701.1,1030.22 702.043,1030.22 702.986,1030.22 703.929,1030.22 704.873,1030.22 705.816,1030.22 706.759,1030.22 707.703,1030.22 708.646,1030.22 709.589,1030.22 710.532,1030.22 711.476,1030.22 712.419,1030.22 713.362,1030.22 714.305,1030.22 715.249,1030.22 716.192,1030.22 717.135,1030.22 718.078,1030.22 719.022,1030.22 719.965,1030.22 720.908,1030.22 721.851,1030.22 722.795,1030.22 723.738,1030.22 724.681,1030.22 725.625,1030.22 726.568,1030.22 727.511,1030.22 728.454,1030.22 729.398,1030.22 730.341,1030.22 731.284,1030.22 732.227,1030.22 733.171,1030.22 734.114,1030.22 735.057,1030.22 736,1030.22 736.944,1030.22 737.887,1030.22 738.83,1030.22 739.774,1030.22 740.717,1030.22 741.66,1030.22 742.603,1030.22 743.547,1030.22 744.49,1030.22 745.433,1030.22 746.376,1030.22 747.32,1030.22 748.263,1030.22 749.206,1030.22 750.149,1030.22 751.093,1030.22 752.036,1030.22 752.979,1030.22 753.922,1030.22 754.866,1030.22 755.809,1030.22 756.752,1030.22 757.696,1030.22 758.639,1030.22 759.582,1030.22 760.525,1030.22 761.469,1030.22 762.412,1030.22 763.355,1030.22 764.298,1030.22 765.242,1030.22 766.185,1030.22 767.128,1030.22 768.071,1030.22 769.015,1030.22 769.958,1030.22 770.901,1030.22 771.845,1030.22 772.788,1030.22 773.731,1030.22 774.674,1030.22 775.618,1030.22 776.561,1030.22 777.504,1030.22 778.447,1030.22 779.391,1030.22 780.334,1030.22 781.277,1030.22 782.22,1030.22 783.164,1030.22 784.107,1030.22 785.05,1030.22 785.993,1030.22 786.937,1030.22 787.88,1030.22 788.823,1030.22 789.767,1030.22 790.71,1030.22 791.653,1030.22 792.596,1030.22 793.54,1030.22 794.483,1030.22 795.426,1030.22 796.369,1030.22 797.313,1030.22 798.256,1030.22 799.199,1030.22 800.142,1030.22 801.086,1030.22 802.029,1030.22 802.972,1030.22 803.915,1030.22 804.859,1030.22 805.802,1030.22 806.745,1030.22 807.689,1030.22 808.632,1030.22 809.575,1030.22 810.518,1030.22 811.462,1030.22 812.405,1030.22 813.348,1030.22 814.291,1030.22 815.235,912.219 816.178,912.219 817.121,912.219 818.064,912.219 819.008,912.219 819.951,912.219 820.894,912.219 821.838,912.219 822.781,912.219 823.724,912.219 824.667,912.219 825.611,912.219 826.554,912.219 827.497,912.219 828.44,912.219 829.384,912.219 830.327,912.219 831.27,912.219 832.213,912.219 833.157,912.219 834.1,912.219 835.043,912.219 835.986,912.219 836.93,912.219 837.873,912.219 838.816,912.219 839.76,912.219 840.703,912.219 841.646,912.219 842.589,912.219 843.533,912.219 844.476,912.219 845.419,912.219 846.362,912.219 847.306,912.219 848.249,912.219 849.192,912.219 850.135,912.219 851.079,912.219 852.022,912.219 852.965,912.219 853.909,912.219 854.852,912.219 855.795,912.219 856.738,912.219 857.682,912.219 858.625,912.219 859.568,912.219 860.511,912.219 861.455,912.219 862.398,912.219 863.341,912.219 864.284,912.219 865.228,912.219 866.171,912.219 867.114,912.219 868.057,912.219 869.001,912.219 869.944,912.219 870.887,912.219 871.831,912.219 872.774,912.219 873.717,912.219 874.66,912.219 875.604,912.219 876.547,912.219 877.49,912.219 878.433,912.219 879.377,912.219 880.32,912.219 881.263,912.219 882.206,912.219 883.15,912.219 884.093,912.219 885.036,912.219 885.98,912.219 886.923,912.219 887.866,912.219 888.809,912.219 889.753,912.219 890.696,912.219 891.639,912.219 892.582,912.219 893.526,912.219 894.469,912.219 895.412,912.219 896.355,912.219 897.299,912.219 898.242,912.219 899.185,912.219 900.128,912.219 901.072,912.219 902.015,912.219 902.958,912.219 903.902,912.219 904.845,912.219 905.788,912.219 906.731,912.219 907.675,912.219 908.618,912.219 909.561,912.219 910.504,912.219 911.448,912.219 912.391,912.219 913.334,912.219 914.277,912.219 915.221,912.219 916.164,912.219 917.107,912.219 918.051,912.219 918.994,912.219 919.937,912.219 920.88,912.219 921.824,912.219 922.767,912.219 923.71,912.219 924.653,912.219 925.597,912.219 926.54,912.219 927.483,912.219 928.426,912.219 929.37,912.219 930.313,912.219 931.256,912.219 932.199,912.219 933.143,912.219 934.086,912.219 935.029,912.219 935.973,912.219 936.916,912.219 937.859,912.219 938.802,912.219 939.746,912.219 940.689,912.219 941.632,912.219 942.575,912.219 943.519,912.219 944.462,912.219 945.405,912.219 946.348,912.219 947.292,912.219 948.235,912.219 949.178,912.219 950.122,912.219 951.065,912.219 952.008,912.219 952.951,912.219 953.895,912.219 954.838,912.219 955.781,912.219 956.724,912.219 957.668,912.219 958.611,912.219 959.554,912.219 960.497,912.219 961.441,912.219 962.384,912.219 963.327,912.219 964.27,912.219 965.214,912.219 966.157,912.219 967.1,912.219 968.044,912.219 968.987,912.219 969.93,912.219 970.873,912.219 971.817,912.219 972.76,912.219 973.703,912.219 974.646,912.219 975.59,912.219 976.533,912.219 977.476,912.219 978.419,912.219 979.363,912.219 980.306,912.219 981.249,912.219 982.192,912.219 983.136,912.219 984.079,912.219 985.022,912.219 985.966,912.219 986.909,912.219 987.852,912.219 988.795,912.219 989.739,912.219 990.682,912.219 991.625,912.219 992.568,912.219 993.512,912.219 994.455,912.219 995.398,912.219 996.341,912.219 997.285,912.219 998.228,912.219 999.171,912.219 1000.11,912.219 1001.06,912.219 1002,912.219 1002.94,912.219 1003.89,912.219 1004.83,912.219 1005.77,912.219 1006.72,912.219 1007.66,912.219 1008.6,912.219 1009.55,912.219 1010.49,912.219 1011.43,912.219 1012.38,912.219 1013.32,912.219 1014.26,912.219 1015.21,912.219 1016.15,912.219 1017.09,912.219 1018.04,912.219 1018.98,912.219 1019.92,912.219 1020.87,912.219 1021.81,912.219 1022.75,912.219 1023.7,912.219 1024.64,912.219 1025.58,912.219 1026.53,912.219 1027.47,912.219 1028.41,912.219 1029.36,912.219 1030.3,912.219 1031.24,912.219 1032.19,912.219 1033.13,912.219 1034.07,912.219 1035.02,912.219 1035.96,912.219 1036.9,912.219 1037.85,912.219 1038.79,912.219 1039.73,912.219 1040.67,912.219 1041.62,912.219 1042.56,912.219 1043.5,912.219 1044.45,912.219 1045.39,912.219 1046.33,912.219 1047.28,912.219 1048.22,912.219 1049.16,912.219 1050.11,912.219 1051.05,912.219 1051.99,912.219 1052.94,912.219 1053.88,912.219 1054.82,912.219 1055.77,912.219 1056.71,912.219 1057.65,912.219 1058.6,912.219 1059.54,912.219 1060.48,912.219 1061.43,912.219 1062.37,912.219 1063.31,912.219 1064.26,912.219 1065.2,912.219 1066.14,912.219 1067.09,912.219 1068.03,912.219 1068.97,912.219 1069.92,912.219 1070.86,912.219 1071.8,912.219 1072.75,912.219 1073.69,912.219 1074.63,912.219 1075.58,912.219 1076.52,912.219 1077.46,912.219 1078.41,912.219 1079.35,912.219 1080.29,912.219 1081.24,912.219 1082.18,912.219 1083.12,912.219 1084.07,912.219 1085.01,912.219 1085.95,912.219 1086.89,912.219 1087.84,912.219 1088.78,912.219 1089.72,912.219 1090.67,912.219 1091.61,912.219 1092.55,912.219 1093.5,912.219 1094.44,912.219 1095.38,912.219 1096.33,912.219 1097.27,912.219 1098.21,912.219 1099.16,912.219 1100.1,912.219 1101.04,912.219 1101.99,912.219 1102.93,912.219 1103.87,912.219 1104.82,912.219 1105.76,912.219 1106.7,912.219 1107.65,912.219 1108.59,912.219 1109.53,912.219 1110.48,912.219 1111.42,912.219 1112.36,912.219 1113.31,912.219 1114.25,912.219 1115.19,912.219 1116.14,912.219 1117.08,912.219 1118.02,912.219 1118.97,912.219 1119.91,912.219 1120.85,912.219 1121.8,912.219 1122.74,912.219 1123.68,912.219 1124.63,912.219 1125.57,912.219 1126.51,912.219 1127.46,912.219 1128.4,912.219 1129.34,912.219 1130.29,912.219 1131.23,912.219 1132.17,912.219 1133.11,912.219 1134.06,912.219 1135,912.219 1135.94,912.219 1136.89,912.219 1137.83,912.219 1138.77,912.219 1139.72,912.219 1140.66,912.219 1141.6,912.219 1142.55,912.219 1143.49,912.219 1144.43,912.219 1145.38,912.219 1146.32,912.219 1147.26,912.219 1148.21,912.219 1149.15,912.219 1150.09,912.219 1151.04,912.219 1151.98,912.219 1152.92,912.219 1153.87,912.219 1154.81,912.219 1155.75,912.219 1156.7,912.219 1157.64,912.219 1158.58,912.219 1159.53,912.219 1160.47,912.219 1161.41,912.219 1162.36,912.219 1163.3,912.219 1164.24,794.214 1165.19,794.214 1166.13,794.214 1167.07,794.214 1168.02,794.214 1168.96,794.214 1169.9,794.214 1170.85,794.214 1171.79,794.214 1172.73,794.214 1173.68,794.214 1174.62,794.214 1175.56,794.214 1176.5,794.214 1177.45,794.214 1178.39,794.214 1179.33,794.214 1180.28,794.214 1181.22,794.214 1182.16,794.214 1183.11,794.214 1184.05,794.214 1184.99,794.214 1185.94,794.214 1186.88,794.214 1187.82,794.214 1188.77,794.214 1189.71,794.214 1190.65,794.214 1191.6,794.214 1192.54,794.214 1193.48,794.214 1194.43,794.214 1195.37,794.214 1196.31,794.214 1197.26,794.214 1198.2,794.214 1199.14,794.214 1200.09,794.214 1201.03,794.214 1201.97,794.214 1202.92,794.214 1203.86,794.214 1204.8,794.214 1205.75,794.214 1206.69,794.214 1207.63,794.214 1208.58,794.214 1209.52,794.214 1210.46,794.214 1211.41,794.214 1212.35,794.214 1213.29,794.214 1214.24,794.214 1215.18,794.214 1216.12,794.214 1217.07,794.214 1218.01,794.214 1218.95,794.214 1219.9,794.214 1220.84,794.214 1221.78,794.214 1222.72,794.214 1223.67,794.214 1224.61,794.214 1225.55,794.214 1226.5,794.214 1227.44,794.214 1228.38,794.214 1229.33,794.214 1230.27,794.214 1231.21,794.214 1232.16,794.214 1233.1,794.214 1234.04,794.214 1234.99,794.214 1235.93,794.214 1236.87,794.214 1237.82,794.214 1238.76,794.214 1239.7,794.214 1240.65,794.214 1241.59,794.214 1242.53,794.214 1243.48,794.214 1244.42,794.214 1245.36,794.214 1246.31,794.214 1247.25,794.214 1248.19,794.214 1249.14,794.214 1250.08,794.214 1251.02,794.214 1251.97,794.214 1252.91,794.214 1253.85,794.214 1254.8,794.214 1255.74,794.214 1256.68,794.214 1257.63,794.214 1258.57,794.214 1259.51,794.214 1260.46,794.214 1261.4,794.214 1262.34,794.214 1263.29,794.214 1264.23,794.214 1265.17,794.214 1266.12,794.214 1267.06,794.214 1268,794.214 1268.94,794.214 1269.89,794.214 1270.83,794.214 1271.77,794.214 1272.72,794.214 1273.66,794.214 1274.6,794.214 1275.55,794.214 1276.49,794.214 1277.43,794.214 1278.38,794.214 1279.32,794.214 1280.26,794.214 1281.21,794.214 1282.15,794.214 1283.09,794.214 1284.04,794.214 1284.98,794.214 1285.92,794.214 1286.87,794.214 1287.81,794.214 1288.75,794.214 1289.7,794.214 1290.64,794.214 1291.58,794.214 1292.53,794.214 1293.47,794.214 1294.41,794.214 1295.36,794.214 1296.3,794.214 1297.24,794.214 1298.19,794.214 1299.13,794.214 1300.07,794.214 1301.02,794.214 1301.96,794.214 1302.9,794.214 1303.85,794.214 1304.79,794.214 1305.73,794.214 1306.68,794.214 1307.62,794.214 1308.56,794.214 1309.51,794.214 1310.45,794.214 1311.39,794.214 1312.34,794.214 1313.28,794.214 1314.22,794.214 1315.16,794.214 1316.11,794.214 1317.05,794.214 1317.99,794.214 1318.94,794.214 1319.88,794.214 1320.82,794.214 1321.77,794.214 1322.71,794.214 1323.65,794.214 1324.6,794.214 1325.54,794.214 1326.48,794.214 1327.43,794.214 1328.37,794.214 1329.31,794.214 1330.26,794.214 1331.2,794.214 1332.14,794.214 1333.09,794.214 1334.03,794.214 1334.97,794.214 1335.92,794.214 1336.86,794.214 1337.8,794.214 1338.75,794.214 1339.69,794.214 1340.63,794.214 1341.58,794.214 1342.52,794.214 1343.46,794.214 1344.41,794.214 1345.35,794.214 1346.29,794.214 1347.24,794.214 1348.18,794.214 1349.12,794.214 1350.07,794.214 1351.01,794.214 1351.95,794.214 1352.9,794.214 1353.84,794.214 1354.78,794.214 1355.73,794.214 1356.67,794.214 1357.61,794.214 1358.56,794.214 1359.5,794.214 1360.44,794.214 1361.38,794.214 1362.33,794.214 1363.27,794.214 1364.21,794.214 1365.16,794.214 1366.1,794.214 1367.04,794.214 1367.99,794.214 1368.93,794.214 1369.87,794.214 1370.82,794.214 1371.76,794.214 1372.7,794.214 1373.65,794.214 1374.59,794.214 1375.53,794.214 1376.48,794.214 1377.42,794.214 1378.36,794.214 1379.31,794.214 1380.25,794.214 1381.19,794.214 1382.14,794.214 1383.08,794.214 1384.02,794.214 1384.97,794.214 1385.91,794.214 1386.85,794.214 1387.8,794.214 1388.74,794.214 1389.68,794.214 1390.63,794.214 1391.57,794.214 1392.51,794.214 1393.46,794.214 1394.4,794.214 1395.34,794.214 1396.29,794.214 1397.23,794.214 1398.17,794.214 1399.12,794.214 1400.06,794.214 1401,794.214 1401.95,794.214 1402.89,794.214 1403.83,794.214 1404.78,794.214 1405.72,794.214 1406.66,794.214 1407.6,794.214 1408.55,794.214 1409.49,794.214 1410.43,794.214 1411.38,794.214 1412.32,794.214 1413.26,794.214 1414.21,794.214 1415.15,794.214 1416.09,794.214 1417.04,794.214 1417.98,794.214 1418.92,794.214 1419.87,794.214 1420.81,794.214 1421.75,794.214 1422.7,794.214 1423.64,794.214 1424.58,794.214 1425.53,794.214 1426.47,794.214 1427.41,794.214 1428.36,794.214 1429.3,794.214 1430.24,794.214 1431.19,794.214 1432.13,794.214 1433.07,794.214 1434.02,794.214 1434.96,794.214 1435.9,794.214 1436.85,794.214 1437.79,794.214 1438.73,794.214 1439.68,794.214 1440.62,794.214 1441.56,794.214 1442.51,794.214 1443.45,794.214 1444.39,794.214 1445.34,794.214 1446.28,794.214 1447.22,794.214 1448.17,794.214 1449.11,794.214 1450.05,794.214 1450.99,794.214 1451.94,794.214 1452.88,794.214 1453.82,794.214 1454.77,794.214 1455.71,794.214 1456.65,794.214 1457.6,794.214 1458.54,794.214 1459.48,794.214 1460.43,794.214 1461.37,794.214 1462.31,794.214 1463.26,794.214 1464.2,794.214 1465.14,794.214 1466.09,794.214 1467.03,794.214 1467.97,794.214 1468.92,794.214 1469.86,794.214 1470.8,794.214 1471.75,794.214 1472.69,794.214 1473.63,794.214 1474.58,794.214 1475.52,794.214 1476.46,794.214 1477.41,794.214 1478.35,794.214 1479.29,794.214 1480.24,676.21 1481.18,676.21 1482.12,676.21 1483.07,676.21 1484.01,676.21 1484.95,676.21 1485.9,676.21 1486.84,676.21 1487.78,676.21 1488.73,676.21 1489.67,676.21 1490.61,676.21 1491.56,676.21 1492.5,676.21 1493.44,676.21 1494.39,676.21 1495.33,676.21 1496.27,676.21 1497.21,676.21 1498.16,676.21 1499.1,676.21 1500.04,676.21 1500.99,676.21 1501.93,676.21 1502.87,676.21 1503.82,676.21 1504.76,676.21 1505.7,676.21 1506.65,676.21 1507.59,676.21 1508.53,676.21 1509.48,676.21 1510.42,676.21 1511.36,676.21 1512.31,676.21 1513.25,676.21 1514.19,676.21 1515.14,676.21 1516.08,676.21 1517.02,676.21 1517.97,676.21 1518.91,676.21 1519.85,676.21 1520.8,676.21 1521.74,676.21 1522.68,676.21 1523.63,676.21 1524.57,676.21 1525.51,676.21 1526.46,676.21 1527.4,676.21 1528.34,676.21 1529.29,676.21 1530.23,676.21 1531.17,676.21 1532.12,676.21 1533.06,558.205 1534,558.205 1534.95,558.205 1535.89,558.205 1536.83,558.205 1537.78,558.205 1538.72,558.205 1539.66,558.205 1540.61,558.205 1541.55,558.205 1542.49,558.205 1543.43,558.205 1544.38,558.205 1545.32,558.205 1546.26,558.205 1547.21,558.205 1548.15,558.205 1549.09,558.205 1550.04,558.205 1550.98,558.205 1551.92,558.205 1552.87,558.205 1553.81,558.205 1554.75,558.205 1555.7,558.205 1556.64,558.205 1557.58,558.205 1558.53,440.2 1559.47,440.2 1560.41,440.2 1561.36,440.2 1562.3,440.2 1563.24,440.2 1564.19,440.2 1565.13,440.2 1566.07,440.2 1567.02,440.2 1567.96,440.2 1568.9,440.2 1569.85,440.2 1570.79,440.2 1571.73,440.2 1572.68,440.2 1573.62,440.2 1574.56,440.2 1575.51,440.2 1576.45,440.2 1577.39,440.2 1578.34,440.2 1579.28,440.2 1580.22,440.2 1581.17,440.2 1582.11,440.2 1583.05,440.2 1584,440.2 1584.94,440.2 1585.88,440.2 1586.83,440.2 1587.77,440.2 1588.71,440.2 1589.65,440.2 1590.6,440.2 1591.54,440.2 1592.48,440.2 1593.43,440.2 1594.37,440.2 1595.31,440.2 1596.26,440.2 1597.2,440.2 1598.14,440.2 1599.09,440.2 1600.03,440.2 1600.97,440.2 1601.92,440.2 1602.86,440.2 1603.8,440.2 1604.75,440.2 1605.69,440.2 1606.63,440.2 1607.58,440.2 1608.52,440.2 1609.46,440.2 1610.41,440.2 1611.35,440.2 1612.29,440.2 1613.24,322.195 1614.18,322.195 1615.12,322.195 1616.07,322.195 1617.01,322.195 1617.95,322.195 1618.9,322.195 1619.84,322.195 1620.78,322.195 1621.73,322.195 1622.67,322.195 1623.61,322.195 1624.56,322.195 1625.5,322.195 1626.44,322.195 1627.39,322.195 1628.33,322.195 1629.27,322.195 1630.22,322.195 1631.16,322.195 1632.1,322.195 1633.05,322.195 1633.99,322.195 1634.93,322.195 1635.87,322.195 1636.82,322.195 1637.76,322.195 1638.7,322.195 1639.65,322.195 1640.59,322.195 1641.53,322.195 1642.48,322.195 1643.42,322.195 1644.36,322.195 1645.31,322.195 1646.25,322.195 1647.19,322.195 1648.14,322.195 1649.08,322.195 1650.02,322.195 1650.97,322.195 1651.91,322.195 1652.85,322.195 1653.8,322.195 1654.74,322.195 1655.68,322.195 1656.63,322.195 1657.57,322.195 1658.51,322.195 1659.46,322.195 1660.4,322.195 1661.34,322.195 1662.29,322.195 1663.23,322.195 1664.17,322.195 1665.12,322.195 1666.06,322.195 1667,322.195 1667.95,322.195 1668.89,322.195 1669.83,322.195 1670.78,322.195 1671.72,322.195 1672.66,322.195 1673.61,322.195 1674.55,322.195 1675.49,322.195 1676.44,322.195 1677.38,322.195 1678.32,322.195 1679.27,322.195 1680.21,322.195 1681.15,322.195 1682.09,322.195 1683.04,322.195 1683.98,322.195 1684.92,322.195 1685.87,322.195 1686.81,322.195 1687.75,322.195 1688.7,322.195 1689.64,322.195 1690.58,322.195 1691.53,322.195 1692.47,322.195 1693.41,322.195 1694.36,322.195 1695.3,322.195 1696.24,322.195 1697.19,322.195 1698.13,322.195 1699.07,322.195 1700.02,322.195 1700.96,322.195 1701.9,322.195 1702.85,322.195 1703.79,322.195 1704.73,322.195 1705.68,322.195 1706.62,322.195 1707.56,322.195 1708.51,322.195 1709.45,322.195 1710.39,322.195 1711.34,322.195 1712.28,322.195 1713.22,322.195 1714.17,322.195 1715.11,322.195 1716.05,322.195 1717,322.195 1717.94,322.195 1718.88,322.195 1719.83,322.195 1720.77,322.195 1721.71,322.195 1722.66,322.195 1723.6,322.195 1724.54,322.195 1725.48,322.195 1726.43,322.195 1727.37,322.195 1728.31,322.195 1729.26,322.195 1730.2,322.195 1731.14,322.195 1732.09,322.195 1733.03,322.195 1733.97,322.195 1734.92,322.195 1735.86,322.195 1736.8,322.195 1737.75,322.195 1738.69,322.195 1739.63,322.195 1740.58,322.195 1741.52,322.195 1742.46,322.195 1743.41,322.195 1744.35,322.195 1745.29,322.195 1746.24,322.195 1747.18,322.195 1748.12,322.195 1749.07,322.195 1750.01,322.195 1750.95,322.195 1751.9,322.195 1752.84,322.195 1753.78,322.195 1754.73,322.195 1755.67,322.195 1756.61,322.195 1757.56,204.19 1758.5,204.19 1759.44,204.19 1760.39,204.19 1761.33,204.19 1762.27,204.19 1763.22,204.19 1764.16,204.19 1765.1,204.19 1766.05,204.19 1766.99,204.19 1767.93,204.19 1768.88,204.19 1769.82,204.19 1770.76,204.19 1771.7,204.19 1772.65,204.19 1773.59,204.19 1774.53,204.19 1775.48,204.19 1776.42,204.19 1777.36,204.19 1778.31,204.19 1779.25,204.19 1780.19,204.19 1781.14,204.19 1782.08,204.19 1783.02,204.19 1783.97,204.19 1784.91,204.19 1785.85,204.19 1786.8,204.19 1787.74,204.19 1788.68,204.19 1789.63,204.19 1790.57,204.19 1791.51,204.19 1792.46,204.19 1793.4,204.19 1794.34,204.19 1795.29,204.19 1796.23,204.19 1797.17,204.19 1798.12,204.19 1799.06,204.19 1800,204.19 1800.95,204.19 1801.89,204.19 1802.83,204.19 1803.78,204.19 1804.72,204.19 1805.66,204.19 1806.61,204.19 1807.55,204.19 1808.49,204.19 1809.44,204.19 1810.38,204.19 1811.32,204.19 1812.27,204.19 1813.21,204.19 1814.15,204.19 1815.1,204.19 1816.04,204.19 1816.98,204.19 1817.92,204.19 1818.87,204.19 1819.81,204.19 1820.75,204.19 1821.7,204.19 1822.64,204.19 1823.58,204.19 1824.53,204.19 1825.47,204.19 1826.41,204.19 1827.36,204.19 1828.3,204.19 1829.24,204.19 1830.19,204.19 1831.13,204.19 1832.07,204.19 1833.02,204.19 1833.96,204.19 1834.9,204.19 1835.85,204.19 1836.79,204.19 1837.73,204.19 1838.68,204.19 1839.62,204.19 1840.56,204.19 1841.51,204.19 1842.45,204.19 1843.39,204.19 1844.34,204.19 1845.28,204.19 1846.22,204.19 1847.17,86.1857 1848.11,86.1857 1849.05,86.1857 1850,86.1857 1850.94,86.1857 1851.88,86.1857 1852.83,86.1857 1853.77,86.1857 1854.71,86.1857 1855.66,86.1857 1856.6,86.1857 1857.54,86.1857 1858.49,86.1857 1859.43,86.1857 1860.37,86.1857 1861.32,86.1857 1862.26,86.1857 1863.2,86.1857 1864.14,86.1857 1865.09,86.1857 1866.03,86.1857 1866.97,86.1857 1867.92,86.1857 1868.86,86.1857 1869.8,86.1857 1870.75,86.1857 1871.69,86.1857 1872.63,86.1857 1873.58,86.1857 1874.52,86.1857 1875.46,86.1857 1876.41,86.1857 1877.35,86.1857 1878.29,86.1857 1879.24,86.1857 1880.18,86.1857 1881.12,86.1857 1882.07,86.1857 1883.01,86.1857 1883.95,86.1857 1884.9,86.1857 1885.84,86.1857 1886.78,86.1857 1887.73,86.1857 1888.67,86.1857 1889.61,86.1857 1890.56,86.1857 1891.5,86.1857 1892.44,86.1857 1893.39,86.1857 1894.33,86.1857 1895.27,86.1857 1896.22,86.1857 1897.16,86.1857 1898.1,86.1857 1899.05,86.1857 1899.99,86.1857 1900.93,86.1857 1901.88,86.1857 1902.82,86.1857 1903.76,86.1857 1904.71,86.1857 1905.65,86.1857 1906.59,86.1857 1907.54,86.1857 1908.48,86.1857 1909.42,86.1857 1910.36,86.1857 1911.31,86.1857 1912.25,86.1857 1913.19,86.1857 1914.14,86.1857 1915.08,86.1857 1916.02,86.1857 1916.97,86.1857 1917.91,86.1857 1918.85,86.1857 1919.8,86.1857 1920.74,86.1857 1921.68,86.1857 1922.63,86.1857 1923.57,86.1857 1924.51,86.1857 1925.46,86.1857 1926.4,86.1857 1927.34,86.1857 1928.29,86.1857 1929.23,86.1857 1930.17,86.1857 1931.12,86.1857 1932.06,86.1857 1933,86.1857 1933.95,86.1857 1934.89,86.1857 1935.83,86.1857 1936.78,86.1857 1937.72,86.1857 1938.66,86.1857 1939.61,86.1857 1940.55,86.1857 1941.49,86.1857 1942.44,86.1857 1943.38,86.1857 1944.32,86.1857 1945.27,86.1857 1946.21,86.1857 1947.15,86.1857 1948.1,86.1857 1949.04,86.1857 1949.98,86.1857 1950.93,86.1857 1951.87,86.1857 1952.81,86.1857 1953.75,86.1857 1954.7,86.1857 1955.64,86.1857 1956.58,86.1857 1957.53,86.1857 1958.47,86.1857 1959.41,86.1857 1960.36,86.1857 1961.3,86.1857 1962.24,86.1857 1963.19,86.1857 1964.13,86.1857 1965.07,86.1857 1966.02,86.1857 1966.96,86.1857 1967.9,86.1857 1968.85,86.1857 1969.79,86.1857 1970.73,86.1857 1971.68,86.1857 1972.62,86.1857 1973.56,86.1857 1974.51,86.1857 1975.45,86.1857 1976.39,86.1857 1977.34,86.1857 1978.28,86.1857 1979.22,86.1857 1980.17,86.1857 1981.11,86.1857 1982.05,86.1857 1983,86.1857 1983.94,86.1857 1984.88,86.1857 1985.83,86.1857 1986.77,86.1857 1987.71,86.1857 1988.66,86.1857 1989.6,86.1857 1990.54,86.1857 1991.49,86.1857 1992.43,86.1857 1993.37,86.1857 1994.32,86.1857 1995.26,86.1857 1996.2,86.1857 1997.15,86.1857 1998.09,86.1857 1999.03,86.1857 1999.97,86.1857 2000.92,86.1857 2001.86,86.1857 2002.8,86.1857 2003.75,86.1857 2004.69,86.1857 2005.63,86.1857 2006.58,86.1857 2007.52,86.1857 2008.46,86.1857 2009.41,86.1857 2010.35,86.1857 2011.29,86.1857 2012.24,86.1857 2013.18,86.1857 2014.12,86.1857 2015.07,86.1857 2016.01,86.1857 2016.95,86.1857 2017.9,86.1857 2018.84,86.1857 2019.78,86.1857 2020.73,86.1857 2021.67,86.1857 2022.61,86.1857 2023.56,86.1857 2024.5,86.1857 2025.44,86.1857 2026.39,86.1857 2027.33,86.1857 2028.27,86.1857 2029.22,86.1857 2030.16,86.1857 2031.1,86.1857 2032.05,86.1857 2032.99,86.1857 2033.93,86.1857 2034.88,86.1857 2035.82,86.1857 2036.76,86.1857 2037.71,86.1857 2038.65,86.1857 2039.59,86.1857 2040.54,86.1857 2041.48,86.1857 2042.42,86.1857 2043.37,86.1857 2044.31,86.1857 2045.25,86.1857 2046.19,86.1857 2047.14,86.1857 2048.08,86.1857 2049.02,86.1857 2049.97,86.1857 2050.91,86.1857 2051.85,86.1857 2052.8,86.1857 2053.74,86.1857 2054.68,86.1857 2055.63,86.1857 2056.57,86.1857 2057.51,86.1857 2058.46,86.1857 2059.4,86.1857 2060.34,86.1857 2061.29,86.1857 2062.23,86.1857 2063.17,86.1857 2064.12,86.1857 2065.06,86.1857 2066,86.1857 2066.95,86.1857 2067.89,86.1857 2068.83,86.1857 2069.78,86.1857 2070.72,86.1857 2071.66,86.1857 2072.61,86.1857 2073.55,86.1857 2074.49,86.1857 2075.44,86.1857 2076.38,86.1857 2077.32,86.1857 2078.27,86.1857 2079.21,86.1857 2080.15,86.1857 2081.1,86.1857 2082.04,86.1857 2082.98,86.1857 2083.93,86.1857 2084.87,86.1857 2085.81,86.1857 2086.76,86.1857 2087.7,86.1857 2088.64,86.1857 2089.59,86.1857 2090.53,86.1857 2091.47,86.1857 2092.41,86.1857 2093.36,86.1857 2094.3,86.1857 2095.24,86.1857 2096.19,86.1857 2097.13,86.1857 2098.07,86.1857 2099.02,86.1857 2099.96,86.1857 2100.9,86.1857 2101.85,86.1857 2102.79,86.1857 2103.73,86.1857 2104.68,86.1857 2105.62,86.1857 2106.56,86.1857 2107.51,86.1857 2108.45,86.1857 2109.39,86.1857 2110.34,86.1857 2111.28,86.1857 2112.22,86.1857 2113.17,86.1857 2114.11,86.1857 2115.05,86.1857 2116,86.1857 2116.94,86.1857 2117.88,86.1857 2118.83,86.1857 2119.77,86.1857 2120.71,86.1857 2121.66,86.1857 2122.6,86.1857 2123.54,86.1857 2124.49,86.1857 2125.43,86.1857 2126.37,86.1857 2127.32,86.1857 2128.26,86.1857 2129.2,86.1857 2130.15,86.1857 2131.09,86.1857 2132.03,86.1857 2132.98,86.1857 2133.92,86.1857 2134.86,86.1857 2135.81,86.1857 2136.75,86.1857 2137.69,86.1857 2138.63,86.1857 2139.58,86.1857 2140.52,86.1857 2141.46,86.1857 2142.41,86.1857 2143.35,86.1857 2144.29,86.1857 2145.24,86.1857 2146.18,86.1857 2147.12,86.1857 2148.07,86.1857 2149.01,86.1857 2149.95,86.1857 2150.9,86.1857 2151.84,86.1857 2152.78,86.1857 2153.73,86.1857 2154.67,86.1857 2155.61,86.1857 2156.56,86.1857 2157.5,86.1857 2158.44,86.1857 2159.39,86.1857 2160.33,86.1857 2161.27,86.1857 2162.22,86.1857 2163.16,86.1857 2164.1,86.1857 2165.05,86.1857 2165.99,86.1857 2166.93,86.1857 2167.88,86.1857 2168.82,86.1857 2169.76,86.1857 2170.71,86.1857 2171.65,86.1857 2172.59,86.1857 2173.54,86.1857 2174.48,86.1857 2175.42,86.1857 2176.37,86.1857 2177.31,86.1857 2178.25,86.1857 2179.2,86.1857 2180.14,86.1857 2181.08,86.1857 2182.03,86.1857 2182.97,86.1857 2183.91,86.1857 2184.85,86.1857 2185.8,86.1857 2186.74,86.1857 2187.68,86.1857 2188.63,86.1857 2189.57,86.1857 2190.51,86.1857 2191.46,86.1857 2192.4,86.1857 2193.34,86.1857 2194.29,86.1857 2195.23,86.1857 2196.17,86.1857 2197.12,86.1857 2198.06,86.1857 2199,86.1857 2199.95,86.1857 2200.89,86.1857 2201.83,86.1857 2202.78,86.1857 2203.72,86.1857 2204.66,86.1857 2205.61,86.1857 2206.55,86.1857 2207.49,86.1857 2208.44,86.1857 2209.38,86.1857 2210.32,86.1857 2211.27,86.1857 2212.21,86.1857 2213.15,86.1857 2214.1,86.1857 2215.04,86.1857 2215.98,86.1857 2216.93,86.1857 2217.87,86.1857 2218.81,86.1857 2219.76,86.1857 2220.7,86.1857 2221.64,86.1857 2222.59,86.1857 2223.53,86.1857 2224.47,86.1857 2225.42,86.1857 2226.36,86.1857 2227.3,86.1857 2228.24,86.1857 2229.19,86.1857 2230.13,86.1857 2231.07,86.1857 2232.02,86.1857 2232.96,86.1857 2233.9,86.1857 2234.85,86.1857 2235.79,86.1857 2236.73,86.1857 2237.68,86.1857 2238.62,86.1857 2239.56,86.1857 2240.51,86.1857 2241.45,86.1857 2242.39,86.1857 2243.34,86.1857 2244.28,86.1857 2245.22,86.1857 2246.17,86.1857 2247.11,86.1857 2248.05,86.1857 2249,86.1857 2249.94,86.1857 2250.88,86.1857 2251.83,86.1857 2252.77,86.1857 2253.71,86.1857 2254.66,86.1857 2255.6,86.1857 2256.54,86.1857 2257.49,86.1857 2258.43,86.1857 2259.37,86.1857 2260.32,86.1857 2261.26,86.1857 2262.2,86.1857 2263.15,86.1857 2264.09,86.1857 2265.03,86.1857 2265.98,86.1857 2266.92,86.1857 2267.86,86.1857 2268.81,86.1857 2269.75,86.1857 2270.69,86.1857 2271.64,86.1857 2272.58,86.1857 2273.52,86.1857 2274.46,86.1857 2275.41,86.1857 2276.35,86.1857 2277.29,86.1857 2278.24,86.1857 2279.18,86.1857 2280.12,86.1857 2281.07,86.1857 2282.01,86.1857 2282.95,86.1857 2283.9,86.1857 2284.84,86.1857 2285.78,86.1857 2286.73,86.1857 2287.67,86.1857 2288.61,86.1857 2289.56,86.1857 2290.5,86.1857 2291.44,86.1857 2292.39,86.1857 2293.33,86.1857 2294.27,86.1857 2295.22,86.1857 2296.16,86.1857 2297.1,86.1857 2298.05,86.1857 2298.99,86.1857 2299.93,86.1857 2300.88,86.1857 2301.82,86.1857 2302.76,86.1857 2303.71,86.1857 2304.65,86.1857 2305.59,86.1857 2306.54,86.1857 2307.48,86.1857 2308.42,86.1857 2309.37,86.1857 2310.31,86.1857 2311.25,86.1857 2312.2,86.1857 2313.14,86.1857 2314.08,86.1857 2315.03,86.1857 2315.97,86.1857 2316.91,86.1857 2317.86,86.1857 2318.8,86.1857 2319.74,86.1857 2320.68,86.1857 2321.63,86.1857 2322.57,86.1857 2323.51,86.1857 2324.46,86.1857 2325.4,86.1857 2326.34,86.1857 2327.29,86.1857 2328.23,86.1857 2329.17,86.1857 2330.12,86.1857 2331.06,86.1857 2332,86.1857 2332.95,86.1857 2333.89,86.1857 2334.83,86.1857 2335.78,86.1857 2336.72,86.1857 2337.66,86.1857 2338.61,86.1857 2339.55,86.1857 2340.49,86.1857 2341.44,86.1857 2342.38,86.1857 2343.32,86.1857 2344.27,86.1857 2345.21,86.1857 2346.15,86.1857 2347.1,86.1857 2348.04,86.1857 2348.98,86.1857 2349.93,86.1857 2350.87,86.1857 2351.81,86.1857 2352.76,86.1857 "/>
<path clip-path="url(#clip880)" d="M256.476 248.629 L609.513 248.629 L609.513 93.1086 L256.476 93.1086  Z" fill="#ffffff" fill-rule="evenodd" fill-opacity="1"/>
<polyline clip-path="url(#clip880)" style="stroke:#000000; stroke-linecap:round; stroke-linejoin:round; stroke-width:4; stroke-opacity:1; fill:none" points="256.476,248.629 609.513,248.629 609.513,93.1086 256.476,93.1086 256.476,248.629 "/>
<polyline clip-path="url(#clip880)" style="stroke:#009af9; stroke-linecap:round; stroke-linejoin:round; stroke-width:8; stroke-opacity:1; fill:none" points="280.571,144.949 425.142,144.949 "/>
<path clip-path="url(#clip880)" d="M449.238 127.669 L455.534 127.669 L470.858 156.581 L470.858 127.669 L475.395 127.669 L475.395 162.229 L469.099 162.229 L453.775 133.317 L453.775 162.229 L449.238 162.229 L449.238 127.669 Z" fill="#000000" fill-rule="nonzero" fill-opacity="1" /><path clip-path="url(#clip880)" d="M504.214 170.099 L504.214 173.409 L479.585 173.409 L479.585 170.099 L504.214 170.099 Z" fill="#000000" fill-rule="nonzero" fill-opacity="1" /><path clip-path="url(#clip880)" d="M509.631 158.293 L517.27 158.293 L517.27 131.928 L508.959 133.595 L508.959 129.335 L517.223 127.669 L521.899 127.669 L521.899 158.293 L529.538 158.293 L529.538 162.229 L509.631 162.229 L509.631 158.293 Z" fill="#000000" fill-rule="nonzero" fill-opacity="1" /><path clip-path="url(#clip880)" d="M548.612 126.257 Q545.51 131.581 544.006 136.789 Q542.501 141.997 542.501 147.344 Q542.501 152.692 544.006 157.946 Q545.533 163.178 548.612 168.479 L544.908 168.479 Q541.436 163.039 539.7 157.784 Q537.987 152.53 537.987 147.344 Q537.987 142.182 539.7 136.951 Q541.413 131.72 544.908 126.257 L548.612 126.257 Z" fill="#000000" fill-rule="nonzero" fill-opacity="1" /><path clip-path="url(#clip880)" d="M561.089 128.942 L561.089 136.303 L569.862 136.303 L569.862 139.613 L561.089 139.613 L561.089 153.687 Q561.089 156.858 561.945 157.761 Q562.825 158.664 565.487 158.664 L569.862 158.664 L569.862 162.229 L565.487 162.229 Q560.556 162.229 558.681 160.4 Q556.806 158.548 556.806 153.687 L556.806 139.613 L553.681 139.613 L553.681 136.303 L556.806 136.303 L556.806 128.942 L561.089 128.942 Z" fill="#000000" fill-rule="nonzero" fill-opacity="1" /><path clip-path="url(#clip880)" d="M574.792 126.257 L578.496 126.257 Q581.968 131.72 583.681 136.951 Q585.417 142.182 585.417 147.344 Q585.417 152.53 583.681 157.784 Q581.968 163.039 578.496 168.479 L574.792 168.479 Q577.871 163.178 579.376 157.946 Q580.904 152.692 580.904 147.344 Q580.904 141.997 579.376 136.789 Q577.871 131.581 574.792 126.257 Z" fill="#000000" fill-rule="nonzero" fill-opacity="1" /><polyline clip-path="url(#clip880)" style="stroke:#e26f46; stroke-linecap:round; stroke-linejoin:round; stroke-width:8; stroke-opacity:1; fill:none" points="280.571,196.789 425.142,196.789 "/>
<path clip-path="url(#clip880)" d="M449.238 179.509 L455.534 179.509 L470.858 208.421 L470.858 179.509 L475.395 179.509 L475.395 214.069 L469.099 214.069 L453.775 185.157 L453.775 214.069 L449.238 214.069 L449.238 179.509 Z" fill="#000000" fill-rule="nonzero" fill-opacity="1" /><path clip-path="url(#clip880)" d="M504.214 221.939 L504.214 225.249 L479.585 225.249 L479.585 221.939 L504.214 221.939 Z" fill="#000000" fill-rule="nonzero" fill-opacity="1" /><path clip-path="url(#clip880)" d="M512.848 210.133 L529.168 210.133 L529.168 214.069 L507.223 214.069 L507.223 210.133 Q509.885 207.379 514.469 202.749 Q519.075 198.096 520.256 196.754 Q522.501 194.231 523.381 192.495 Q524.283 190.735 524.283 189.046 Q524.283 186.291 522.339 184.555 Q520.418 182.819 517.316 182.819 Q515.117 182.819 512.663 183.583 Q510.233 184.347 507.455 185.897 L507.455 181.175 Q510.279 180.041 512.733 179.462 Q515.186 178.884 517.223 178.884 Q522.594 178.884 525.788 181.569 Q528.982 184.254 528.982 188.745 Q528.982 190.874 528.172 192.796 Q527.385 194.694 525.279 197.286 Q524.7 197.958 521.598 201.175 Q518.496 204.37 512.848 210.133 Z" fill="#000000" fill-rule="nonzero" fill-opacity="1" /><path clip-path="url(#clip880)" d="M548.612 178.097 Q545.51 183.421 544.006 188.629 Q542.501 193.837 542.501 199.184 Q542.501 204.532 544.006 209.786 Q545.533 215.018 548.612 220.319 L544.908 220.319 Q541.436 214.879 539.7 209.624 Q537.987 204.37 537.987 199.184 Q537.987 194.022 539.7 188.791 Q541.413 183.56 544.908 178.097 L548.612 178.097 Z" fill="#000000" fill-rule="nonzero" fill-opacity="1" /><path clip-path="url(#clip880)" d="M561.089 180.782 L561.089 188.143 L569.862 188.143 L569.862 191.453 L561.089 191.453 L561.089 205.527 Q561.089 208.698 561.945 209.601 Q562.825 210.504 565.487 210.504 L569.862 210.504 L569.862 214.069 L565.487 214.069 Q560.556 214.069 558.681 212.24 Q556.806 210.388 556.806 205.527 L556.806 191.453 L553.681 191.453 L553.681 188.143 L556.806 188.143 L556.806 180.782 L561.089 180.782 Z" fill="#000000" fill-rule="nonzero" fill-opacity="1" /><path clip-path="url(#clip880)" d="M574.792 178.097 L578.496 178.097 Q581.968 183.56 583.681 188.791 Q585.417 194.022 585.417 199.184 Q585.417 204.37 583.681 209.624 Q581.968 214.879 578.496 220.319 L574.792 220.319 Q577.871 215.018 579.376 209.786 Q580.904 204.532 580.904 199.184 Q580.904 193.837 579.376 188.629 Q577.871 183.421 574.792 178.097 Z" fill="#000000" fill-rule="nonzero" fill-opacity="1" /></svg>
