<?xml version="1.0" encoding="utf-8"?>
<svg xmlns="http://www.w3.org/2000/svg" xmlns:xlink="http://www.w3.org/1999/xlink" width="600" height="400" viewBox="0 0 2400 1600">
<defs>
  <clipPath id="clip820">
    <rect x="0" y="0" width="2400" height="1600"/>
  </clipPath>
</defs>
<path clip-path="url(#clip820)" d="M0 1600 L2400 1600 L2400 0 L0 0  Z" fill="#ffffff" fill-rule="evenodd" fill-opacity="1"/>
<defs>
  <clipPath id="clip821">
    <rect x="480" y="0" width="1681" height="1600"/>
  </clipPath>
</defs>
<path clip-path="url(#clip820)" d="M112.177 1423.18 L2352.76 1423.18 L2352.76 47.2441 L112.177 47.2441  Z" fill="#ffffff" fill-rule="evenodd" fill-opacity="1"/>
<defs>
  <clipPath id="clip822">
    <rect x="112" y="47" width="2242" height="1377"/>
  </clipPath>
</defs>
<polyline clip-path="url(#clip822)" style="stroke:#000000; stroke-linecap:round; stroke-linejoin:round; stroke-width:2; stroke-opacity:0.1; fill:none" points="112.177,1423.18 112.177,47.2441 "/>
<polyline clip-path="url(#clip822)" style="stroke:#000000; stroke-linecap:round; stroke-linejoin:round; stroke-width:2; stroke-opacity:0.1; fill:none" points="560.293,1423.18 560.293,47.2441 "/>
<polyline clip-path="url(#clip822)" style="stroke:#000000; stroke-linecap:round; stroke-linejoin:round; stroke-width:2; stroke-opacity:0.1; fill:none" points="1008.41,1423.18 1008.41,47.2441 "/>
<polyline clip-path="url(#clip822)" style="stroke:#000000; stroke-linecap:round; stroke-linejoin:round; stroke-width:2; stroke-opacity:0.1; fill:none" points="1456.52,1423.18 1456.52,47.2441 "/>
<polyline clip-path="url(#clip822)" style="stroke:#000000; stroke-linecap:round; stroke-linejoin:round; stroke-width:2; stroke-opacity:0.1; fill:none" points="1904.64,1423.18 1904.64,47.2441 "/>
<polyline clip-path="url(#clip822)" style="stroke:#000000; stroke-linecap:round; stroke-linejoin:round; stroke-width:2; stroke-opacity:0.1; fill:none" points="2352.76,1423.18 2352.76,47.2441 "/>
<polyline clip-path="url(#clip822)" style="stroke:#000000; stroke-linecap:round; stroke-linejoin:round; stroke-width:2; stroke-opacity:0.1; fill:none" points="112.177,1384.24 2352.76,1384.24 "/>
<polyline clip-path="url(#clip822)" style="stroke:#000000; stroke-linecap:round; stroke-linejoin:round; stroke-width:2; stroke-opacity:0.1; fill:none" points="112.177,1013.37 2352.76,1013.37 "/>
<polyline clip-path="url(#clip822)" style="stroke:#000000; stroke-linecap:round; stroke-linejoin:round; stroke-width:2; stroke-opacity:0.1; fill:none" points="112.177,642.494 2352.76,642.494 "/>
<polyline clip-path="url(#clip822)" style="stroke:#000000; stroke-linecap:round; stroke-linejoin:round; stroke-width:2; stroke-opacity:0.1; fill:none" points="112.177,271.622 2352.76,271.622 "/>
<polyline clip-path="url(#clip820)" style="stroke:#000000; stroke-linecap:round; stroke-linejoin:round; stroke-width:4; stroke-opacity:1; fill:none" points="112.177,1423.18 2352.76,1423.18 "/>
<polyline clip-path="url(#clip820)" style="stroke:#000000; stroke-linecap:round; stroke-linejoin:round; stroke-width:4; stroke-opacity:1; fill:none" points="112.177,1423.18 112.177,1404.28 "/>
<polyline clip-path="url(#clip820)" style="stroke:#000000; stroke-linecap:round; stroke-linejoin:round; stroke-width:4; stroke-opacity:1; fill:none" points="560.293,1423.18 560.293,1404.28 "/>
<polyline clip-path="url(#clip820)" style="stroke:#000000; stroke-linecap:round; stroke-linejoin:round; stroke-width:4; stroke-opacity:1; fill:none" points="1008.41,1423.18 1008.41,1404.28 "/>
<polyline clip-path="url(#clip820)" style="stroke:#000000; stroke-linecap:round; stroke-linejoin:round; stroke-width:4; stroke-opacity:1; fill:none" points="1456.52,1423.18 1456.52,1404.28 "/>
<polyline clip-path="url(#clip820)" style="stroke:#000000; stroke-linecap:round; stroke-linejoin:round; stroke-width:4; stroke-opacity:1; fill:none" points="1904.64,1423.18 1904.64,1404.28 "/>
<polyline clip-path="url(#clip820)" style="stroke:#000000; stroke-linecap:round; stroke-linejoin:round; stroke-width:4; stroke-opacity:1; fill:none" points="2352.76,1423.18 2352.76,1404.28 "/>
<path clip-path="url(#clip820)" d="M112.177 1454.1 Q108.566 1454.1 106.737 1457.66 Q104.932 1461.2 104.932 1468.33 Q104.932 1475.44 106.737 1479.01 Q108.566 1482.55 112.177 1482.55 Q115.811 1482.55 117.617 1479.01 Q119.446 1475.44 119.446 1468.33 Q119.446 1461.2 117.617 1457.66 Q115.811 1454.1 112.177 1454.1 M112.177 1450.39 Q117.987 1450.39 121.043 1455 Q124.122 1459.58 124.122 1468.33 Q124.122 1477.06 121.043 1481.67 Q117.987 1486.25 112.177 1486.25 Q106.367 1486.25 103.288 1481.67 Q100.233 1477.06 100.233 1468.33 Q100.233 1459.58 103.288 1455 Q106.367 1450.39 112.177 1450.39 Z" fill="#000000" fill-rule="nonzero" fill-opacity="1" /><path clip-path="url(#clip820)" d="M554.946 1481.64 L571.265 1481.64 L571.265 1485.58 L549.321 1485.58 L549.321 1481.64 Q551.983 1478.89 556.566 1474.26 Q561.173 1469.61 562.353 1468.27 Q564.598 1465.74 565.478 1464.01 Q566.381 1462.25 566.381 1460.56 Q566.381 1457.8 564.436 1456.07 Q562.515 1454.33 559.413 1454.33 Q557.214 1454.33 554.761 1455.09 Q552.33 1455.86 549.552 1457.41 L549.552 1452.69 Q552.376 1451.55 554.83 1450.97 Q557.284 1450.39 559.321 1450.39 Q564.691 1450.39 567.885 1453.08 Q571.08 1455.77 571.08 1460.26 Q571.08 1462.39 570.27 1464.31 Q569.483 1466.2 567.376 1468.8 Q566.798 1469.47 563.696 1472.69 Q560.594 1475.88 554.946 1481.64 Z" fill="#000000" fill-rule="nonzero" fill-opacity="1" /><path clip-path="url(#clip820)" d="M1011.42 1455.09 L999.612 1473.54 L1011.42 1473.54 L1011.42 1455.09 M1010.19 1451.02 L1016.07 1451.02 L1016.07 1473.54 L1021 1473.54 L1021 1477.43 L1016.07 1477.43 L1016.07 1485.58 L1011.42 1485.58 L1011.42 1477.43 L995.816 1477.43 L995.816 1472.92 L1010.19 1451.02 Z" fill="#000000" fill-rule="nonzero" fill-opacity="1" /><path clip-path="url(#clip820)" d="M1456.93 1466.44 Q1453.78 1466.44 1451.93 1468.59 Q1450.1 1470.74 1450.1 1474.49 Q1450.1 1478.22 1451.93 1480.39 Q1453.78 1482.55 1456.93 1482.55 Q1460.08 1482.55 1461.91 1480.39 Q1463.76 1478.22 1463.76 1474.49 Q1463.76 1470.74 1461.91 1468.59 Q1460.08 1466.44 1456.93 1466.44 M1466.21 1451.78 L1466.21 1456.04 Q1464.45 1455.21 1462.65 1454.77 Q1460.86 1454.33 1459.11 1454.33 Q1454.48 1454.33 1452.02 1457.45 Q1449.59 1460.58 1449.24 1466.9 Q1450.61 1464.89 1452.67 1463.82 Q1454.73 1462.73 1457.21 1462.73 Q1462.42 1462.73 1465.42 1465.9 Q1468.46 1469.05 1468.46 1474.49 Q1468.46 1479.82 1465.31 1483.03 Q1462.16 1486.25 1456.93 1486.25 Q1450.93 1486.25 1447.76 1481.67 Q1444.59 1477.06 1444.59 1468.33 Q1444.59 1460.14 1448.48 1455.28 Q1452.37 1450.39 1458.92 1450.39 Q1460.68 1450.39 1462.46 1450.74 Q1464.27 1451.09 1466.21 1451.78 Z" fill="#000000" fill-rule="nonzero" fill-opacity="1" /><path clip-path="url(#clip820)" d="M1904.64 1469.17 Q1901.31 1469.17 1899.39 1470.95 Q1897.49 1472.73 1897.49 1475.86 Q1897.49 1478.98 1899.39 1480.77 Q1901.31 1482.55 1904.64 1482.55 Q1907.97 1482.55 1909.89 1480.77 Q1911.82 1478.96 1911.82 1475.86 Q1911.82 1472.73 1909.89 1470.95 Q1908 1469.17 1904.64 1469.17 M1899.96 1467.18 Q1896.96 1466.44 1895.27 1464.38 Q1893.6 1462.32 1893.6 1459.35 Q1893.6 1455.21 1896.54 1452.8 Q1899.5 1450.39 1904.64 1450.39 Q1909.8 1450.39 1912.74 1452.8 Q1915.68 1455.21 1915.68 1459.35 Q1915.68 1462.32 1913.99 1464.38 Q1912.33 1466.44 1909.34 1467.18 Q1912.72 1467.96 1914.59 1470.26 Q1916.49 1472.55 1916.49 1475.86 Q1916.49 1480.88 1913.41 1483.57 Q1910.36 1486.25 1904.64 1486.25 Q1898.92 1486.25 1895.84 1483.57 Q1892.79 1480.88 1892.79 1475.86 Q1892.79 1472.55 1894.69 1470.26 Q1896.58 1467.96 1899.96 1467.18 M1898.25 1459.79 Q1898.25 1462.48 1899.92 1463.98 Q1901.61 1465.49 1904.64 1465.49 Q1907.65 1465.49 1909.34 1463.98 Q1911.05 1462.48 1911.05 1459.79 Q1911.05 1457.11 1909.34 1455.6 Q1907.65 1454.1 1904.64 1454.1 Q1901.61 1454.1 1899.92 1455.6 Q1898.25 1457.11 1898.25 1459.79 Z" fill="#000000" fill-rule="nonzero" fill-opacity="1" /><path clip-path="url(#clip820)" d="M2327.44 1481.64 L2335.08 1481.64 L2335.08 1455.28 L2326.77 1456.95 L2326.77 1452.69 L2335.04 1451.02 L2339.71 1451.02 L2339.71 1481.64 L2347.35 1481.64 L2347.35 1485.58 L2327.44 1485.58 L2327.44 1481.64 Z" fill="#000000" fill-rule="nonzero" fill-opacity="1" /><path clip-path="url(#clip820)" d="M2366.8 1454.1 Q2363.18 1454.1 2361.36 1457.66 Q2359.55 1461.2 2359.55 1468.33 Q2359.55 1475.44 2361.36 1479.01 Q2363.18 1482.55 2366.8 1482.55 Q2370.43 1482.55 2372.23 1479.01 Q2374.06 1475.44 2374.06 1468.33 Q2374.06 1461.2 2372.23 1457.66 Q2370.43 1454.1 2366.8 1454.1 M2366.8 1450.39 Q2372.61 1450.39 2375.66 1455 Q2378.74 1459.58 2378.74 1468.33 Q2378.74 1477.06 2375.66 1481.67 Q2372.61 1486.25 2366.8 1486.25 Q2360.99 1486.25 2357.91 1481.67 Q2354.85 1477.06 2354.85 1468.33 Q2354.85 1459.58 2357.91 1455 Q2360.99 1450.39 2366.8 1450.39 Z" fill="#000000" fill-rule="nonzero" fill-opacity="1" /><path clip-path="url(#clip820)" d="M1231.53 1522.27 L1231.53 1532.4 L1243.59 1532.4 L1243.59 1536.95 L1231.53 1536.95 L1231.53 1556.3 Q1231.53 1560.66 1232.71 1561.9 Q1233.91 1563.14 1237.58 1563.14 L1243.59 1563.14 L1243.59 1568.04 L1237.58 1568.04 Q1230.8 1568.04 1228.22 1565.53 Q1225.64 1562.98 1225.64 1556.3 L1225.64 1536.95 L1221.34 1536.95 L1221.34 1532.4 L1225.64 1532.4 L1225.64 1522.27 L1231.53 1522.27 Z" fill="#000000" fill-rule="nonzero" fill-opacity="1" /><polyline clip-path="url(#clip820)" style="stroke:#000000; stroke-linecap:round; stroke-linejoin:round; stroke-width:4; stroke-opacity:1; fill:none" points="112.177,1423.18 112.177,47.2441 "/>
<polyline clip-path="url(#clip820)" style="stroke:#000000; stroke-linecap:round; stroke-linejoin:round; stroke-width:4; stroke-opacity:1; fill:none" points="112.177,1384.24 131.075,1384.24 "/>
<polyline clip-path="url(#clip820)" style="stroke:#000000; stroke-linecap:round; stroke-linejoin:round; stroke-width:4; stroke-opacity:1; fill:none" points="112.177,1013.37 131.075,1013.37 "/>
<polyline clip-path="url(#clip820)" style="stroke:#000000; stroke-linecap:round; stroke-linejoin:round; stroke-width:4; stroke-opacity:1; fill:none" points="112.177,642.494 131.075,642.494 "/>
<polyline clip-path="url(#clip820)" style="stroke:#000000; stroke-linecap:round; stroke-linejoin:round; stroke-width:4; stroke-opacity:1; fill:none" points="112.177,271.622 131.075,271.622 "/>
<path clip-path="url(#clip820)" d="M64.2328 1370.04 Q60.6217 1370.04 58.793 1373.6 Q56.9875 1377.14 56.9875 1384.27 Q56.9875 1391.38 58.793 1394.94 Q60.6217 1398.49 64.2328 1398.49 Q67.867 1398.49 69.6726 1394.94 Q71.5013 1391.38 71.5013 1384.27 Q71.5013 1377.14 69.6726 1373.6 Q67.867 1370.04 64.2328 1370.04 M64.2328 1366.33 Q70.0429 1366.33 73.0985 1370.94 Q76.1772 1375.52 76.1772 1384.27 Q76.1772 1393 73.0985 1397.61 Q70.0429 1402.19 64.2328 1402.19 Q58.4226 1402.19 55.344 1397.61 Q52.2884 1393 52.2884 1384.27 Q52.2884 1375.52 55.344 1370.94 Q58.4226 1366.33 64.2328 1366.33 Z" fill="#000000" fill-rule="nonzero" fill-opacity="1" /><path clip-path="url(#clip820)" d="M59.8578 1026.71 L76.1772 1026.71 L76.1772 1030.65 L54.2328 1030.65 L54.2328 1026.71 Q56.8949 1023.96 61.4782 1019.33 Q66.0846 1014.67 67.2652 1013.33 Q69.5105 1010.81 70.3902 1009.07 Q71.2929 1007.31 71.2929 1005.62 Q71.2929 1002.87 69.3485 1001.13 Q67.4272 999.396 64.3254 999.396 Q62.1263 999.396 59.6726 1000.16 Q57.2421 1000.92 54.4643 1002.47 L54.4643 997.753 Q57.2884 996.619 59.7421 996.04 Q62.1958 995.461 64.2328 995.461 Q69.6031 995.461 72.7976 998.146 Q75.992 1000.83 75.992 1005.32 Q75.992 1007.45 75.1818 1009.37 Q74.3948 1011.27 72.2883 1013.86 Q71.7096 1014.54 68.6078 1017.75 Q65.5059 1020.95 59.8578 1026.71 Z" fill="#000000" fill-rule="nonzero" fill-opacity="1" /><path clip-path="url(#clip820)" d="M66.5939 629.288 L54.7884 647.737 L66.5939 647.737 L66.5939 629.288 M65.367 625.214 L71.2466 625.214 L71.2466 647.737 L76.1772 647.737 L76.1772 651.626 L71.2466 651.626 L71.2466 659.774 L66.5939 659.774 L66.5939 651.626 L50.9921 651.626 L50.9921 647.112 L65.367 625.214 Z" fill="#000000" fill-rule="nonzero" fill-opacity="1" /><path clip-path="url(#clip820)" d="M64.6495 269.758 Q61.5013 269.758 59.6495 271.911 Q57.8208 274.064 57.8208 277.814 Q57.8208 281.541 59.6495 283.717 Q61.5013 285.869 64.6495 285.869 Q67.7976 285.869 69.6263 283.717 Q71.4781 281.541 71.4781 277.814 Q71.4781 274.064 69.6263 271.911 Q67.7976 269.758 64.6495 269.758 M73.9318 255.106 L73.9318 259.365 Q72.1726 258.532 70.367 258.092 Q68.5846 257.652 66.8254 257.652 Q62.1958 257.652 59.7421 260.777 Q57.3115 263.902 56.9643 270.221 Q58.33 268.207 60.3902 267.143 Q62.4504 266.055 64.9272 266.055 Q70.1355 266.055 73.1448 269.226 Q76.1772 272.374 76.1772 277.814 Q76.1772 283.138 73.029 286.355 Q69.8809 289.573 64.6495 289.573 Q58.6541 289.573 55.4828 284.99 Q52.3116 280.383 52.3116 271.656 Q52.3116 263.462 56.2004 258.601 Q60.0893 253.717 66.6402 253.717 Q68.3994 253.717 70.1818 254.064 Q71.9874 254.411 73.9318 255.106 Z" fill="#000000" fill-rule="nonzero" fill-opacity="1" /><polyline clip-path="url(#clip822)" style="stroke:#009af9; stroke-linecap:round; stroke-linejoin:round; stroke-width:8; stroke-opacity:1; fill:none" points="112.177,1384.24 114.42,1384.24 116.663,1384.24 118.906,1384.24 121.148,1384.24 123.391,1384.24 125.634,1384.24 127.877,1384.24 130.12,1384.24 132.363,1384.24 134.605,1384.24 136.848,1384.24 139.091,1384.24 141.334,1384.24 143.577,1384.24 145.819,1384.24 148.062,1384.24 150.305,1384.24 152.548,1384.24 154.791,1384.24 157.034,1384.24 159.276,1384.24 161.519,1384.24 163.762,1384.24 166.005,1384.24 168.248,1384.24 170.491,1384.24 172.733,1384.24 174.976,1384.24 177.219,1384.24 179.462,1384.24 181.705,1384.24 183.947,1384.24 186.19,1384.24 188.433,1384.24 190.676,1384.24 192.919,1384.24 195.162,1384.24 197.404,1384.24 199.647,1384.24 201.89,1384.24 204.133,1384.24 206.376,1384.24 208.619,1384.24 210.861,1384.24 213.104,1384.24 215.347,1384.24 217.59,1384.24 219.833,1384.24 222.075,1384.24 224.318,1384.24 226.561,1384.24 228.804,1384.24 231.047,1384.24 233.29,1384.24 235.532,1384.24 237.775,1384.24 240.018,1384.24 242.261,1384.24 244.504,1384.24 246.746,1384.24 248.989,1384.24 251.232,1384.24 253.475,1384.24 255.718,1384.24 257.961,1384.24 260.203,1384.24 262.446,1384.24 264.689,1384.24 266.932,1384.24 269.175,1384.24 271.418,1384.24 273.66,1384.24 275.903,1384.24 278.146,1384.24 280.389,1384.24 282.632,1384.24 284.874,1384.24 287.117,1384.24 289.36,1384.24 291.603,1384.24 293.846,1384.24 296.089,1384.24 298.331,1384.24 300.574,1384.24 302.817,1384.24 305.06,1384.24 307.303,1384.24 309.545,1384.24 311.788,1384.24 314.031,1384.24 316.274,1384.24 318.517,1384.24 320.76,1384.24 323.002,1384.24 325.245,1384.24 327.488,1384.24 329.731,1384.24 331.974,1384.24 334.217,1384.24 336.459,1384.24 338.702,1384.24 340.945,1384.24 343.188,1384.24 345.431,1384.24 347.673,1384.24 349.916,1384.24 352.159,1384.24 354.402,1384.24 356.645,1384.24 358.888,1384.24 361.13,1384.24 363.373,1384.24 365.616,1384.24 367.859,1384.24 370.102,1384.24 372.344,1384.24 374.587,1384.24 376.83,1384.24 379.073,1384.24 381.316,1384.24 383.559,1384.24 385.801,1384.24 388.044,1384.24 390.287,1384.24 392.53,1384.24 394.773,1384.24 397.016,1384.24 399.258,1384.24 401.501,1384.24 403.744,1384.24 405.987,1384.24 408.23,1384.24 410.472,1384.24 412.715,1198.8 414.958,1198.8 417.201,1198.8 419.444,1198.8 421.687,1198.8 423.929,1198.8 426.172,1198.8 428.415,1198.8 430.658,1198.8 432.901,1198.8 435.143,1198.8 437.386,1198.8 439.629,1198.8 441.872,1198.8 444.115,1198.8 446.358,1198.8 448.6,1198.8 450.843,1198.8 453.086,1198.8 455.329,1198.8 457.572,1198.8 459.815,1198.8 462.057,1198.8 464.3,1198.8 466.543,1198.8 468.786,1198.8 471.029,1198.8 473.271,1198.8 475.514,1198.8 477.757,1198.8 480,1198.8 482.243,1198.8 484.486,1198.8 486.728,1198.8 488.971,1198.8 491.214,1198.8 493.457,1198.8 495.7,1198.8 497.942,1198.8 500.185,1198.8 502.428,1198.8 504.671,1198.8 506.914,1198.8 509.157,1198.8 511.399,1198.8 513.642,1198.8 515.885,1198.8 518.128,1198.8 520.371,1198.8 522.614,1198.8 524.856,1198.8 527.099,1198.8 529.342,1198.8 531.585,1198.8 533.828,1198.8 536.07,1198.8 538.313,1198.8 540.556,1198.8 542.799,1198.8 545.042,1198.8 547.285,1198.8 549.527,1198.8 551.77,1198.8 554.013,1198.8 556.256,1198.8 558.499,1198.8 560.741,1198.8 562.984,1198.8 565.227,1198.8 567.47,1198.8 569.713,1198.8 571.956,1198.8 574.198,1198.8 576.441,1198.8 578.684,1198.8 580.927,1198.8 583.17,1198.8 585.413,1198.8 587.655,1198.8 589.898,1198.8 592.141,1198.8 594.384,1198.8 596.627,1198.8 598.869,1198.8 601.112,1198.8 603.355,1198.8 605.598,1198.8 607.841,1198.8 610.084,1198.8 612.326,1198.8 614.569,1198.8 616.812,1198.8 619.055,1198.8 621.298,1198.8 623.54,1198.8 625.783,1198.8 628.026,1198.8 630.269,1198.8 632.512,1198.8 634.755,1198.8 636.997,1198.8 639.24,1198.8 641.483,1198.8 643.726,1198.8 645.969,1198.8 648.212,1198.8 650.454,1198.8 652.697,1198.8 654.94,1198.8 657.183,1198.8 659.426,1198.8 661.668,1198.8 663.911,1198.8 666.154,1198.8 668.397,1198.8 670.64,1198.8 672.883,1198.8 675.125,1198.8 677.368,1198.8 679.611,1198.8 681.854,1198.8 684.097,1198.8 686.339,1198.8 688.582,1198.8 690.825,1198.8 693.068,1198.8 695.311,1198.8 697.554,1198.8 699.796,1198.8 702.039,1198.8 704.282,1198.8 706.525,1198.8 708.768,1198.8 711.011,1198.8 713.253,1198.8 715.496,1198.8 717.739,1198.8 719.982,1198.8 722.225,1198.8 724.467,1198.8 726.71,1198.8 728.953,1198.8 731.196,1198.8 733.439,1198.8 735.682,1198.8 737.924,1198.8 740.167,1198.8 742.41,1198.8 744.653,1198.8 746.896,1198.8 749.138,1198.8 751.381,1198.8 753.624,1198.8 755.867,1198.8 758.11,1198.8 760.353,1198.8 762.595,1198.8 764.838,1198.8 767.081,1198.8 769.324,1198.8 771.567,1198.8 773.81,1198.8 776.052,1198.8 778.295,1198.8 780.538,1198.8 782.781,1198.8 785.024,1198.8 787.266,1198.8 789.509,1198.8 791.752,1198.8 793.995,1198.8 796.238,1198.8 798.481,1198.8 800.723,1198.8 802.966,1198.8 805.209,1198.8 807.452,1198.8 809.695,1198.8 811.938,1198.8 814.18,1198.8 816.423,1198.8 818.666,1198.8 820.909,1198.8 823.152,1198.8 825.394,1198.8 827.637,1198.8 829.88,1198.8 832.123,1198.8 834.366,1198.8 836.609,1198.8 838.851,1198.8 841.094,1198.8 843.337,1198.8 845.58,1198.8 847.823,1198.8 850.065,1198.8 852.308,1198.8 854.551,1198.8 856.794,1198.8 859.037,1198.8 861.28,1198.8 863.522,1198.8 865.765,1198.8 868.008,1198.8 870.251,1198.8 872.494,1198.8 874.737,1198.8 876.979,1198.8 879.222,1198.8 881.465,1198.8 883.708,1198.8 885.951,1198.8 888.193,1198.8 890.436,1198.8 892.679,1198.8 894.922,1198.8 897.165,1198.8 899.408,1198.8 901.65,1198.8 903.893,1198.8 906.136,1198.8 908.379,1198.8 910.622,1198.8 912.864,1198.8 915.107,1198.8 917.35,1198.8 919.593,1198.8 921.836,1198.8 924.079,1198.8 926.321,1198.8 928.564,1198.8 930.807,1198.8 933.05,1198.8 935.293,1198.8 937.536,1198.8 939.778,1198.8 942.021,1198.8 944.264,1198.8 946.507,1198.8 948.75,1198.8 950.992,1198.8 953.235,1198.8 955.478,1198.8 957.721,1198.8 959.964,1198.8 962.207,1198.8 964.449,1198.8 966.692,1198.8 968.935,1198.8 971.178,1198.8 973.421,1198.8 975.663,1198.8 977.906,1198.8 980.149,1198.8 982.392,1198.8 984.635,1198.8 986.878,1198.8 989.12,1198.8 991.363,1198.8 993.606,1198.8 995.849,1198.8 998.092,1198.8 1000.33,1198.8 1002.58,1198.8 1004.82,1198.8 1007.06,1198.8 1009.31,1198.8 1011.55,1198.8 1013.79,1198.8 1016.03,1198.8 1018.28,1198.8 1020.52,1198.8 1022.76,1198.8 1025.01,1198.8 1027.25,1198.8 1029.49,1198.8 1031.73,1198.8 1033.98,1198.8 1036.22,1198.8 1038.46,1198.8 1040.71,1198.8 1042.95,1198.8 1045.19,1198.8 1047.43,1198.8 1049.68,1198.8 1051.92,1198.8 1054.16,1198.8 1056.41,1198.8 1058.65,1198.8 1060.89,1198.8 1063.13,1198.8 1065.38,1198.8 1067.62,1198.8 1069.86,1198.8 1072.1,1198.8 1074.35,1198.8 1076.59,1198.8 1078.83,1198.8 1081.08,1198.8 1083.32,1198.8 1085.56,1198.8 1087.8,1198.8 1090.05,1198.8 1092.29,1198.8 1094.53,1198.8 1096.78,1198.8 1099.02,1198.8 1101.26,1198.8 1103.5,1198.8 1105.75,1198.8 1107.99,1198.8 1110.23,1198.8 1112.48,1198.8 1114.72,1198.8 1116.96,1198.8 1119.2,1198.8 1121.45,1198.8 1123.69,1198.8 1125.93,1198.8 1128.18,1198.8 1130.42,1198.8 1132.66,1198.8 1134.9,1198.8 1137.15,1198.8 1139.39,1198.8 1141.63,1198.8 1143.88,1198.8 1146.12,1198.8 1148.36,1198.8 1150.6,1198.8 1152.85,1198.8 1155.09,1198.8 1157.33,1198.8 1159.57,1198.8 1161.82,1198.8 1164.06,1198.8 1166.3,1198.8 1168.55,1198.8 1170.79,1198.8 1173.03,1198.8 1175.27,1198.8 1177.52,1198.8 1179.76,1198.8 1182,1198.8 1184.25,1198.8 1186.49,1198.8 1188.73,1198.8 1190.97,1198.8 1193.22,1198.8 1195.46,1198.8 1197.7,1198.8 1199.95,1198.8 1202.19,1198.8 1204.43,1198.8 1206.67,1198.8 1208.92,1198.8 1211.16,1198.8 1213.4,1198.8 1215.65,1198.8 1217.89,1198.8 1220.13,1198.8 1222.37,1198.8 1224.62,1198.8 1226.86,1198.8 1229.1,1198.8 1231.35,1198.8 1233.59,1198.8 1235.83,1198.8 1238.07,1198.8 1240.32,1198.8 1242.56,1198.8 1244.8,1198.8 1247.04,1198.8 1249.29,1198.8 1251.53,1198.8 1253.77,1198.8 1256.02,1198.8 1258.26,1198.8 1260.5,1198.8 1262.74,1198.8 1264.99,1013.37 1267.23,1013.37 1269.47,1013.37 1271.72,1013.37 1273.96,1013.37 1276.2,1013.37 1278.44,1013.37 1280.69,1013.37 1282.93,1013.37 1285.17,1013.37 1287.42,1013.37 1289.66,1013.37 1291.9,1013.37 1294.14,1013.37 1296.39,1013.37 1298.63,1013.37 1300.87,1013.37 1303.12,1013.37 1305.36,1013.37 1307.6,1013.37 1309.84,1013.37 1312.09,1013.37 1314.33,1013.37 1316.57,1013.37 1318.82,1013.37 1321.06,1013.37 1323.3,1013.37 1325.54,1013.37 1327.79,1013.37 1330.03,1013.37 1332.27,1013.37 1334.51,1013.37 1336.76,1013.37 1339,1013.37 1341.24,1013.37 1343.49,1013.37 1345.73,1013.37 1347.97,1013.37 1350.21,1013.37 1352.46,1013.37 1354.7,827.93 1356.94,827.93 1359.19,827.93 1361.43,827.93 1363.67,827.93 1365.91,827.93 1368.16,827.93 1370.4,827.93 1372.64,827.93 1374.89,827.93 1377.13,827.93 1379.37,827.93 1381.61,827.93 1383.86,827.93 1386.1,827.93 1388.34,827.93 1390.59,827.93 1392.83,827.93 1395.07,827.93 1397.31,827.93 1399.56,827.93 1401.8,827.93 1404.04,827.93 1406.29,827.93 1408.53,827.93 1410.77,642.494 1413.01,642.494 1415.26,642.494 1417.5,642.494 1419.74,642.494 1421.98,642.494 1424.23,642.494 1426.47,642.494 1428.71,642.494 1430.96,642.494 1433.2,642.494 1435.44,642.494 1437.68,642.494 1439.93,642.494 1442.17,642.494 1444.41,642.494 1446.66,642.494 1448.9,642.494 1451.14,642.494 1453.38,642.494 1455.63,642.494 1457.87,642.494 1460.11,642.494 1462.36,642.494 1464.6,642.494 1466.84,642.494 1469.08,642.494 1471.33,642.494 1473.57,642.494 1475.81,642.494 1478.06,642.494 1480.3,642.494 1482.54,642.494 1484.78,642.494 1487.03,642.494 1489.27,642.494 1491.51,642.494 1493.76,642.494 1496,642.494 1498.24,642.494 1500.48,642.494 1502.73,642.494 1504.97,642.494 1507.21,642.494 1509.46,642.494 1511.7,642.494 1513.94,642.494 1516.18,642.494 1518.43,642.494 1520.67,642.494 1522.91,642.494 1525.15,457.058 1527.4,457.058 1529.64,457.058 1531.88,457.058 1534.13,457.058 1536.37,457.058 1538.61,457.058 1540.85,457.058 1543.1,457.058 1545.34,457.058 1547.58,457.058 1549.83,457.058 1552.07,457.058 1554.31,457.058 1556.55,457.058 1558.8,457.058 1561.04,457.058 1563.28,457.058 1565.53,457.058 1567.77,457.058 1570.01,457.058 1572.25,457.058 1574.5,457.058 1576.74,457.058 1578.98,457.058 1581.23,457.058 1583.47,457.058 1585.71,457.058 1587.95,457.058 1590.2,457.058 1592.44,457.058 1594.68,457.058 1596.93,457.058 1599.17,457.058 1601.41,457.058 1603.65,457.058 1605.9,457.058 1608.14,457.058 1610.38,457.058 1612.62,457.058 1614.87,457.058 1617.11,457.058 1619.35,457.058 1621.6,457.058 1623.84,457.058 1626.08,457.058 1628.32,457.058 1630.57,457.058 1632.81,457.058 1635.05,457.058 1637.3,457.058 1639.54,457.058 1641.78,457.058 1644.02,457.058 1646.27,457.058 1648.51,457.058 1650.75,457.058 1653,457.058 1655.24,457.058 1657.48,457.058 1659.72,457.058 1661.97,457.058 1664.21,457.058 1666.45,457.058 1668.7,457.058 1670.94,457.058 1673.18,457.058 1675.42,457.058 1677.67,457.058 1679.91,457.058 1682.15,457.058 1684.4,457.058 1686.64,457.058 1688.88,271.622 1691.12,271.622 1693.37,271.622 1695.61,271.622 1697.85,271.622 1700.09,271.622 1702.34,271.622 1704.58,271.622 1706.82,271.622 1709.07,271.622 1711.31,271.622 1713.55,271.622 1715.79,271.622 1718.04,271.622 1720.28,271.622 1722.52,271.622 1724.77,271.622 1727.01,271.622 1729.25,271.622 1731.49,271.622 1733.74,271.622 1735.98,271.622 1738.22,271.622 1740.47,271.622 1742.71,271.622 1744.95,271.622 1747.19,271.622 1749.44,271.622 1751.68,271.622 1753.92,271.622 1756.17,271.622 1758.41,271.622 1760.65,271.622 1762.89,271.622 1765.14,271.622 1767.38,271.622 1769.62,271.622 1771.87,271.622 1774.11,271.622 1776.35,271.622 1778.59,271.622 1780.84,271.622 1783.08,271.622 1785.32,271.622 1787.56,271.622 1789.81,271.622 1792.05,271.622 1794.29,271.622 1796.54,271.622 1798.78,271.622 1801.02,271.622 1803.26,271.622 1805.51,271.622 1807.75,271.622 1809.99,271.622 1812.24,271.622 1814.48,271.622 1816.72,271.622 1818.96,271.622 1821.21,271.622 1823.45,271.622 1825.69,271.622 1827.94,271.622 1830.18,271.622 1832.42,271.622 1834.66,271.622 1836.91,271.622 1839.15,271.622 1841.39,271.622 1843.64,271.622 1845.88,271.622 1848.12,271.622 1850.36,271.622 1852.61,271.622 1854.85,271.622 1857.09,271.622 1859.34,271.622 1861.58,271.622 1863.82,271.622 1866.06,271.622 1868.31,271.622 1870.55,271.622 1872.79,271.622 1875.03,271.622 1877.28,271.622 1879.52,271.622 1881.76,271.622 1884.01,271.622 1886.25,271.622 1888.49,271.622 1890.73,271.622 1892.98,271.622 1895.22,271.622 1897.46,271.622 1899.71,271.622 1901.95,271.622 1904.19,271.622 1906.43,271.622 1908.68,271.622 1910.92,271.622 1913.16,271.622 1915.41,271.622 1917.65,271.622 1919.89,271.622 1922.13,271.622 1924.38,271.622 1926.62,271.622 1928.86,271.622 1931.11,271.622 1933.35,271.622 1935.59,271.622 1937.83,271.622 1940.08,271.622 1942.32,271.622 1944.56,271.622 1946.81,271.622 1949.05,271.622 1951.29,271.622 1953.53,271.622 1955.78,271.622 1958.02,271.622 1960.26,271.622 1962.5,271.622 1964.75,271.622 1966.99,271.622 1969.23,271.622 1971.48,271.622 1973.72,271.622 1975.96,271.622 1978.2,271.622 1980.45,271.622 1982.69,271.622 1984.93,86.1857 1987.18,86.1857 1989.42,86.1857 1991.66,86.1857 1993.9,86.1857 1996.15,86.1857 1998.39,86.1857 2000.63,86.1857 2002.88,86.1857 2005.12,86.1857 2007.36,86.1857 2009.6,86.1857 2011.85,86.1857 2014.09,86.1857 2016.33,86.1857 2018.58,86.1857 2020.82,86.1857 2023.06,86.1857 2025.3,86.1857 2027.55,86.1857 2029.79,86.1857 2032.03,86.1857 2034.28,86.1857 2036.52,86.1857 2038.76,86.1857 2041,86.1857 2043.25,86.1857 2045.49,86.1857 2047.73,86.1857 2049.97,86.1857 2052.22,86.1857 2054.46,86.1857 2056.7,86.1857 2058.95,86.1857 2061.19,86.1857 2063.43,86.1857 2065.67,86.1857 2067.92,86.1857 2070.16,86.1857 2072.4,86.1857 2074.65,86.1857 2076.89,86.1857 2079.13,86.1857 2081.37,86.1857 2083.62,86.1857 2085.86,86.1857 2088.1,86.1857 2090.35,86.1857 2092.59,86.1857 2094.83,86.1857 2097.07,86.1857 2099.32,86.1857 2101.56,86.1857 2103.8,86.1857 2106.05,86.1857 2108.29,86.1857 2110.53,86.1857 2112.77,86.1857 2115.02,86.1857 2117.26,86.1857 2119.5,86.1857 2121.75,86.1857 2123.99,86.1857 2126.23,86.1857 2128.47,86.1857 2130.72,86.1857 2132.96,86.1857 2135.2,86.1857 2137.45,86.1857 2139.69,86.1857 2141.93,86.1857 2144.17,86.1857 2146.42,86.1857 2148.66,86.1857 2150.9,86.1857 2153.14,86.1857 2155.39,86.1857 2157.63,86.1857 2159.87,86.1857 2162.12,86.1857 2164.36,86.1857 2166.6,86.1857 2168.84,86.1857 2171.09,86.1857 2173.33,86.1857 2175.57,86.1857 2177.82,86.1857 2180.06,86.1857 2182.3,86.1857 2184.54,86.1857 2186.79,86.1857 2189.03,86.1857 2191.27,86.1857 2193.52,86.1857 2195.76,86.1857 2198,86.1857 2200.24,86.1857 2202.49,86.1857 2204.73,86.1857 2206.97,86.1857 2209.22,86.1857 2211.46,86.1857 2213.7,86.1857 2215.94,86.1857 2218.19,86.1857 2220.43,86.1857 2222.67,86.1857 2224.92,86.1857 2227.16,86.1857 2229.4,86.1857 2231.64,86.1857 2233.89,86.1857 2236.13,86.1857 2238.37,86.1857 2240.61,86.1857 2242.86,86.1857 2245.1,86.1857 2247.34,86.1857 2249.59,86.1857 2251.83,86.1857 2254.07,86.1857 2256.31,86.1857 2258.56,86.1857 2260.8,86.1857 2263.04,86.1857 2265.29,86.1857 2267.53,86.1857 2269.77,86.1857 2272.01,86.1857 2274.26,86.1857 2276.5,86.1857 2278.74,86.1857 2280.99,86.1857 2283.23,86.1857 2285.47,86.1857 2287.71,86.1857 2289.96,86.1857 2292.2,86.1857 2294.44,86.1857 2296.69,86.1857 2298.93,86.1857 2301.17,86.1857 2303.41,86.1857 2305.66,86.1857 2307.9,86.1857 2310.14,86.1857 2312.39,86.1857 2314.63,86.1857 2316.87,86.1857 2319.11,86.1857 2321.36,86.1857 2323.6,86.1857 2325.84,86.1857 2328.08,86.1857 2330.33,86.1857 2332.57,86.1857 2334.81,86.1857 2337.06,86.1857 2339.3,86.1857 2341.54,86.1857 2343.78,86.1857 2346.03,86.1857 2348.27,86.1857 2350.51,86.1857 2352.76,86.1857 "/>
<path clip-path="url(#clip820)" d="M186.863 196.789 L500.018 196.789 L500.018 93.1086 L186.863 93.1086  Z" fill="#ffffff" fill-rule="evenodd" fill-opacity="1"/>
<polyline clip-path="url(#clip820)" style="stroke:#000000; stroke-linecap:round; stroke-linejoin:round; stroke-width:4; stroke-opacity:1; fill:none" points="186.863,196.789 500.018,196.789 500.018,93.1086 186.863,93.1086 186.863,196.789 "/>
<polyline clip-path="url(#clip820)" style="stroke:#009af9; stroke-linecap:round; stroke-linejoin:round; stroke-width:8; stroke-opacity:1; fill:none" points="211.758,144.949 361.13,144.949 "/>
<path clip-path="url(#clip820)" d="M386.026 151.997 L386.026 136.303 L390.285 136.303 L390.285 151.835 Q390.285 155.516 391.72 157.368 Q393.155 159.196 396.026 159.196 Q399.475 159.196 401.465 156.997 Q403.479 154.798 403.479 151.002 L403.479 136.303 L407.739 136.303 L407.739 162.229 L403.479 162.229 L403.479 158.247 Q401.928 160.608 399.868 161.766 Q397.831 162.9 395.123 162.9 Q390.655 162.9 388.34 160.122 Q386.026 157.344 386.026 151.997 M396.743 135.678 L396.743 135.678 Z" fill="#000000" fill-rule="nonzero" fill-opacity="1" /><path clip-path="url(#clip820)" d="M416.118 126.21 L425.933 126.21 L425.933 129.52 L420.377 129.52 L420.377 165.168 L425.933 165.168 L425.933 168.479 L416.118 168.479 L416.118 126.21 Z" fill="#000000" fill-rule="nonzero" fill-opacity="1" /><path clip-path="url(#clip820)" d="M436.419 158.293 L444.058 158.293 L444.058 131.928 L435.748 133.595 L435.748 129.335 L444.011 127.669 L448.687 127.669 L448.687 158.293 L456.326 158.293 L456.326 162.229 L436.419 162.229 L436.419 158.293 Z" fill="#000000" fill-rule="nonzero" fill-opacity="1" /><path clip-path="url(#clip820)" d="M475.122 126.21 L475.122 168.479 L465.308 168.479 L465.308 165.168 L470.84 165.168 L470.84 129.52 L465.308 129.52 L465.308 126.21 L475.122 126.21 Z" fill="#000000" fill-rule="nonzero" fill-opacity="1" /></svg>
