<?xml version="1.0" encoding="utf-8"?>
<svg xmlns="http://www.w3.org/2000/svg" xmlns:xlink="http://www.w3.org/1999/xlink" width="600" height="400" viewBox="0 0 2400 1600">
<defs>
  <clipPath id="clip380">
    <rect x="0" y="0" width="2400" height="1600"/>
  </clipPath>
</defs>
<path clip-path="url(#clip380)" d="M0 1600 L2400 1600 L2400 0 L0 0  Z" fill="#ffffff" fill-rule="evenodd" fill-opacity="1"/>
<defs>
  <clipPath id="clip381">
    <rect x="480" y="0" width="1681" height="1600"/>
  </clipPath>
</defs>
<path clip-path="url(#clip380)" d="M138.959 1423.18 L2352.76 1423.18 L2352.76 47.2441 L138.959 47.2441  Z" fill="#ffffff" fill-rule="evenodd" fill-opacity="1"/>
<defs>
  <clipPath id="clip382">
    <rect x="138" y="47" width="2215" height="1377"/>
  </clipPath>
</defs>
<polyline clip-path="url(#clip382)" style="stroke:#000000; stroke-linecap:round; stroke-linejoin:round; stroke-width:2; stroke-opacity:0.1; fill:none" points="138.959,1423.18 138.959,47.2441 "/>
<polyline clip-path="url(#clip382)" style="stroke:#000000; stroke-linecap:round; stroke-linejoin:round; stroke-width:2; stroke-opacity:0.1; fill:none" points="581.719,1423.18 581.719,47.2441 "/>
<polyline clip-path="url(#clip382)" style="stroke:#000000; stroke-linecap:round; stroke-linejoin:round; stroke-width:2; stroke-opacity:0.1; fill:none" points="1024.48,1423.18 1024.48,47.2441 "/>
<polyline clip-path="url(#clip382)" style="stroke:#000000; stroke-linecap:round; stroke-linejoin:round; stroke-width:2; stroke-opacity:0.1; fill:none" points="1467.24,1423.18 1467.24,47.2441 "/>
<polyline clip-path="url(#clip382)" style="stroke:#000000; stroke-linecap:round; stroke-linejoin:round; stroke-width:2; stroke-opacity:0.1; fill:none" points="1910,1423.18 1910,47.2441 "/>
<polyline clip-path="url(#clip382)" style="stroke:#000000; stroke-linecap:round; stroke-linejoin:round; stroke-width:2; stroke-opacity:0.1; fill:none" points="2352.76,1423.18 2352.76,47.2441 "/>
<polyline clip-path="url(#clip382)" style="stroke:#000000; stroke-linecap:round; stroke-linejoin:round; stroke-width:2; stroke-opacity:0.1; fill:none" points="138.959,1384.24 2352.76,1384.24 "/>
<polyline clip-path="url(#clip382)" style="stroke:#000000; stroke-linecap:round; stroke-linejoin:round; stroke-width:2; stroke-opacity:0.1; fill:none" points="138.959,951.554 2352.76,951.554 "/>
<polyline clip-path="url(#clip382)" style="stroke:#000000; stroke-linecap:round; stroke-linejoin:round; stroke-width:2; stroke-opacity:0.1; fill:none" points="138.959,518.87 2352.76,518.87 "/>
<polyline clip-path="url(#clip382)" style="stroke:#000000; stroke-linecap:round; stroke-linejoin:round; stroke-width:2; stroke-opacity:0.1; fill:none" points="138.959,86.1857 2352.76,86.1857 "/>
<polyline clip-path="url(#clip380)" style="stroke:#000000; stroke-linecap:round; stroke-linejoin:round; stroke-width:4; stroke-opacity:1; fill:none" points="138.959,1423.18 2352.76,1423.18 "/>
<polyline clip-path="url(#clip380)" style="stroke:#000000; stroke-linecap:round; stroke-linejoin:round; stroke-width:4; stroke-opacity:1; fill:none" points="138.959,1423.18 138.959,1404.28 "/>
<polyline clip-path="url(#clip380)" style="stroke:#000000; stroke-linecap:round; stroke-linejoin:round; stroke-width:4; stroke-opacity:1; fill:none" points="581.719,1423.18 581.719,1404.28 "/>
<polyline clip-path="url(#clip380)" style="stroke:#000000; stroke-linecap:round; stroke-linejoin:round; stroke-width:4; stroke-opacity:1; fill:none" points="1024.48,1423.18 1024.48,1404.28 "/>
<polyline clip-path="url(#clip380)" style="stroke:#000000; stroke-linecap:round; stroke-linejoin:round; stroke-width:4; stroke-opacity:1; fill:none" points="1467.24,1423.18 1467.24,1404.28 "/>
<polyline clip-path="url(#clip380)" style="stroke:#000000; stroke-linecap:round; stroke-linejoin:round; stroke-width:4; stroke-opacity:1; fill:none" points="1910,1423.18 1910,1404.28 "/>
<polyline clip-path="url(#clip380)" style="stroke:#000000; stroke-linecap:round; stroke-linejoin:round; stroke-width:4; stroke-opacity:1; fill:none" points="2352.76,1423.18 2352.76,1404.28 "/>
<path clip-path="url(#clip380)" d="M138.959 1454.1 Q135.348 1454.1 133.52 1457.66 Q131.714 1461.2 131.714 1468.33 Q131.714 1475.44 133.52 1479.01 Q135.348 1482.55 138.959 1482.55 Q142.594 1482.55 144.399 1479.01 Q146.228 1475.44 146.228 1468.33 Q146.228 1461.2 144.399 1457.66 Q142.594 1454.1 138.959 1454.1 M138.959 1450.39 Q144.77 1450.39 147.825 1455 Q150.904 1459.58 150.904 1468.33 Q150.904 1477.06 147.825 1481.67 Q144.77 1486.25 138.959 1486.25 Q133.149 1486.25 130.071 1481.67 Q127.015 1477.06 127.015 1468.33 Q127.015 1459.58 130.071 1455 Q133.149 1450.39 138.959 1450.39 Z" fill="#000000" fill-rule="nonzero" fill-opacity="1" /><path clip-path="url(#clip380)" d="M576.372 1481.64 L592.691 1481.64 L592.691 1485.58 L570.747 1485.58 L570.747 1481.64 Q573.409 1478.89 577.992 1474.26 Q582.598 1469.61 583.779 1468.27 Q586.024 1465.74 586.904 1464.01 Q587.807 1462.25 587.807 1460.56 Q587.807 1457.8 585.862 1456.07 Q583.941 1454.33 580.839 1454.33 Q578.64 1454.33 576.186 1455.09 Q573.756 1455.86 570.978 1457.41 L570.978 1452.69 Q573.802 1451.55 576.256 1450.97 Q578.709 1450.39 580.747 1450.39 Q586.117 1450.39 589.311 1453.08 Q592.506 1455.77 592.506 1460.26 Q592.506 1462.39 591.696 1464.31 Q590.908 1466.2 588.802 1468.8 Q588.223 1469.47 585.121 1472.69 Q582.02 1475.88 576.372 1481.64 Z" fill="#000000" fill-rule="nonzero" fill-opacity="1" /><path clip-path="url(#clip380)" d="M1027.49 1455.09 L1015.68 1473.54 L1027.49 1473.54 L1027.49 1455.09 M1026.26 1451.02 L1032.14 1451.02 L1032.14 1473.54 L1037.07 1473.54 L1037.07 1477.43 L1032.14 1477.43 L1032.14 1485.58 L1027.49 1485.58 L1027.49 1477.43 L1011.89 1477.43 L1011.89 1472.92 L1026.26 1451.02 Z" fill="#000000" fill-rule="nonzero" fill-opacity="1" /><path clip-path="url(#clip380)" d="M1467.64 1466.44 Q1464.49 1466.44 1462.64 1468.59 Q1460.81 1470.74 1460.81 1474.49 Q1460.81 1478.22 1462.64 1480.39 Q1464.49 1482.55 1467.64 1482.55 Q1470.79 1482.55 1472.62 1480.39 Q1474.47 1478.22 1474.47 1474.49 Q1474.47 1470.74 1472.62 1468.59 Q1470.79 1466.44 1467.64 1466.44 M1476.92 1451.78 L1476.92 1456.04 Q1475.17 1455.21 1473.36 1454.77 Q1471.58 1454.33 1469.82 1454.33 Q1465.19 1454.33 1462.74 1457.45 Q1460.3 1460.58 1459.96 1466.9 Q1461.32 1464.89 1463.38 1463.82 Q1465.44 1462.73 1467.92 1462.73 Q1473.13 1462.73 1476.14 1465.9 Q1479.17 1469.05 1479.17 1474.49 Q1479.17 1479.82 1476.02 1483.03 Q1472.87 1486.25 1467.64 1486.25 Q1461.65 1486.25 1458.48 1481.67 Q1455.3 1477.06 1455.3 1468.33 Q1455.3 1460.14 1459.19 1455.28 Q1463.08 1450.39 1469.63 1450.39 Q1471.39 1450.39 1473.17 1450.74 Q1474.98 1451.09 1476.92 1451.78 Z" fill="#000000" fill-rule="nonzero" fill-opacity="1" /><path clip-path="url(#clip380)" d="M1910 1469.17 Q1906.66 1469.17 1904.74 1470.95 Q1902.84 1472.73 1902.84 1475.86 Q1902.84 1478.98 1904.74 1480.77 Q1906.66 1482.55 1910 1482.55 Q1913.33 1482.55 1915.25 1480.77 Q1917.17 1478.96 1917.17 1475.86 Q1917.17 1472.73 1915.25 1470.95 Q1913.35 1469.17 1910 1469.17 M1905.32 1467.18 Q1902.31 1466.44 1900.62 1464.38 Q1898.96 1462.32 1898.96 1459.35 Q1898.96 1455.21 1901.89 1452.8 Q1904.86 1450.39 1910 1450.39 Q1915.16 1450.39 1918.1 1452.8 Q1921.04 1455.21 1921.04 1459.35 Q1921.04 1462.32 1919.35 1464.38 Q1917.68 1466.44 1914.7 1467.18 Q1918.08 1467.96 1919.95 1470.26 Q1921.85 1472.55 1921.85 1475.86 Q1921.85 1480.88 1918.77 1483.57 Q1915.71 1486.25 1910 1486.25 Q1904.28 1486.25 1901.2 1483.57 Q1898.14 1480.88 1898.14 1475.86 Q1898.14 1472.55 1900.04 1470.26 Q1901.94 1467.96 1905.32 1467.18 M1903.61 1459.79 Q1903.61 1462.48 1905.27 1463.98 Q1906.96 1465.49 1910 1465.49 Q1913.01 1465.49 1914.7 1463.98 Q1916.41 1462.48 1916.41 1459.79 Q1916.41 1457.11 1914.7 1455.6 Q1913.01 1454.1 1910 1454.1 Q1906.96 1454.1 1905.27 1455.6 Q1903.61 1457.11 1903.61 1459.79 Z" fill="#000000" fill-rule="nonzero" fill-opacity="1" /><path clip-path="url(#clip380)" d="M2327.44 1481.64 L2335.08 1481.64 L2335.08 1455.28 L2326.77 1456.95 L2326.77 1452.69 L2335.04 1451.02 L2339.71 1451.02 L2339.71 1481.64 L2347.35 1481.64 L2347.35 1485.58 L2327.44 1485.58 L2327.44 1481.64 Z" fill="#000000" fill-rule="nonzero" fill-opacity="1" /><path clip-path="url(#clip380)" d="M2366.8 1454.1 Q2363.18 1454.1 2361.36 1457.66 Q2359.55 1461.2 2359.55 1468.33 Q2359.55 1475.44 2361.36 1479.01 Q2363.18 1482.55 2366.8 1482.55 Q2370.43 1482.55 2372.23 1479.01 Q2374.06 1475.44 2374.06 1468.33 Q2374.06 1461.2 2372.23 1457.66 Q2370.43 1454.1 2366.8 1454.1 M2366.8 1450.39 Q2372.61 1450.39 2375.66 1455 Q2378.74 1459.58 2378.74 1468.33 Q2378.74 1477.06 2375.66 1481.67 Q2372.61 1486.25 2366.8 1486.25 Q2360.99 1486.25 2357.91 1481.67 Q2354.85 1477.06 2354.85 1468.33 Q2354.85 1459.58 2357.91 1455 Q2360.99 1450.39 2366.8 1450.39 Z" fill="#000000" fill-rule="nonzero" fill-opacity="1" /><path clip-path="url(#clip380)" d="M1244.92 1522.27 L1244.92 1532.4 L1256.98 1532.4 L1256.98 1536.95 L1244.92 1536.95 L1244.92 1556.3 Q1244.92 1560.66 1246.1 1561.9 Q1247.31 1563.14 1250.97 1563.14 L1256.98 1563.14 L1256.98 1568.04 L1250.97 1568.04 Q1244.19 1568.04 1241.61 1565.53 Q1239.03 1562.98 1239.03 1556.3 L1239.03 1536.95 L1234.73 1536.95 L1234.73 1532.4 L1239.03 1532.4 L1239.03 1522.27 L1244.92 1522.27 Z" fill="#000000" fill-rule="nonzero" fill-opacity="1" /><polyline clip-path="url(#clip380)" style="stroke:#000000; stroke-linecap:round; stroke-linejoin:round; stroke-width:4; stroke-opacity:1; fill:none" points="138.959,1423.18 138.959,47.2441 "/>
<polyline clip-path="url(#clip380)" style="stroke:#000000; stroke-linecap:round; stroke-linejoin:round; stroke-width:4; stroke-opacity:1; fill:none" points="138.959,1384.24 157.857,1384.24 "/>
<polyline clip-path="url(#clip380)" style="stroke:#000000; stroke-linecap:round; stroke-linejoin:round; stroke-width:4; stroke-opacity:1; fill:none" points="138.959,951.554 157.857,951.554 "/>
<polyline clip-path="url(#clip380)" style="stroke:#000000; stroke-linecap:round; stroke-linejoin:round; stroke-width:4; stroke-opacity:1; fill:none" points="138.959,518.87 157.857,518.87 "/>
<polyline clip-path="url(#clip380)" style="stroke:#000000; stroke-linecap:round; stroke-linejoin:round; stroke-width:4; stroke-opacity:1; fill:none" points="138.959,86.1857 157.857,86.1857 "/>
<path clip-path="url(#clip380)" d="M91.0151 1370.04 Q87.404 1370.04 85.5753 1373.6 Q83.7697 1377.14 83.7697 1384.27 Q83.7697 1391.38 85.5753 1394.94 Q87.404 1398.49 91.0151 1398.49 Q94.6493 1398.49 96.4548 1394.94 Q98.2835 1391.38 98.2835 1384.27 Q98.2835 1377.14 96.4548 1373.6 Q94.6493 1370.04 91.0151 1370.04 M91.0151 1366.33 Q96.8252 1366.33 99.8808 1370.94 Q102.959 1375.52 102.959 1384.27 Q102.959 1393 99.8808 1397.61 Q96.8252 1402.19 91.0151 1402.19 Q85.2049 1402.19 82.1262 1397.61 Q79.0707 1393 79.0707 1384.27 Q79.0707 1375.52 82.1262 1370.94 Q85.2049 1366.33 91.0151 1366.33 Z" fill="#000000" fill-rule="nonzero" fill-opacity="1" /><path clip-path="url(#clip380)" d="M82.0568 934.274 L100.413 934.274 L100.413 938.209 L86.3392 938.209 L86.3392 946.681 Q87.3577 946.334 88.3762 946.172 Q89.3947 945.987 90.4132 945.987 Q96.2002 945.987 99.5798 949.158 Q102.959 952.33 102.959 957.746 Q102.959 963.325 99.4872 966.427 Q96.015 969.505 89.6956 969.505 Q87.5197 969.505 85.2512 969.135 Q83.0058 968.765 80.5984 968.024 L80.5984 963.325 Q82.6818 964.459 84.904 965.015 Q87.1262 965.57 89.603 965.57 Q93.6076 965.57 95.9456 963.464 Q98.2835 961.357 98.2835 957.746 Q98.2835 954.135 95.9456 952.029 Q93.6076 949.922 89.603 949.922 Q87.728 949.922 85.8531 950.339 Q84.0012 950.755 82.0568 951.635 L82.0568 934.274 Z" fill="#000000" fill-rule="nonzero" fill-opacity="1" /><path clip-path="url(#clip380)" d="M51.6634 532.215 L59.3023 532.215 L59.3023 505.849 L50.9921 507.516 L50.9921 503.257 L59.256 501.59 L63.9319 501.59 L63.9319 532.215 L71.5707 532.215 L71.5707 536.15 L51.6634 536.15 L51.6634 532.215 Z" fill="#000000" fill-rule="nonzero" fill-opacity="1" /><path clip-path="url(#clip380)" d="M91.0151 504.669 Q87.404 504.669 85.5753 508.233 Q83.7697 511.775 83.7697 518.905 Q83.7697 526.011 85.5753 529.576 Q87.404 533.117 91.0151 533.117 Q94.6493 533.117 96.4548 529.576 Q98.2835 526.011 98.2835 518.905 Q98.2835 511.775 96.4548 508.233 Q94.6493 504.669 91.0151 504.669 M91.0151 500.965 Q96.8252 500.965 99.8808 505.571 Q102.959 510.155 102.959 518.905 Q102.959 527.631 99.8808 532.238 Q96.8252 536.821 91.0151 536.821 Q85.2049 536.821 82.1262 532.238 Q79.0707 527.631 79.0707 518.905 Q79.0707 510.155 82.1262 505.571 Q85.2049 500.965 91.0151 500.965 Z" fill="#000000" fill-rule="nonzero" fill-opacity="1" /><path clip-path="url(#clip380)" d="M52.6588 99.5305 L60.2976 99.5305 L60.2976 73.1649 L51.9875 74.8316 L51.9875 70.5723 L60.2513 68.9057 L64.9272 68.9057 L64.9272 99.5305 L72.5661 99.5305 L72.5661 103.466 L52.6588 103.466 L52.6588 99.5305 Z" fill="#000000" fill-rule="nonzero" fill-opacity="1" /><path clip-path="url(#clip380)" d="M82.0568 68.9057 L100.413 68.9057 L100.413 72.8408 L86.3392 72.8408 L86.3392 81.313 Q87.3577 80.9658 88.3762 80.8038 Q89.3947 80.6186 90.4132 80.6186 Q96.2002 80.6186 99.5798 83.7899 Q102.959 86.9611 102.959 92.3778 Q102.959 97.9564 99.4872 101.058 Q96.015 104.137 89.6956 104.137 Q87.5197 104.137 85.2512 103.767 Q83.0058 103.396 80.5984 102.655 L80.5984 97.9564 Q82.6818 99.0907 84.904 99.6462 Q87.1262 100.202 89.603 100.202 Q93.6076 100.202 95.9456 98.0953 Q98.2835 95.9889 98.2835 92.3778 Q98.2835 88.7667 95.9456 86.6602 Q93.6076 84.5537 89.603 84.5537 Q87.728 84.5537 85.8531 84.9704 Q84.0012 85.3871 82.0568 86.2667 L82.0568 68.9057 Z" fill="#000000" fill-rule="nonzero" fill-opacity="1" /><polyline clip-path="url(#clip382)" style="stroke:#009af9; stroke-linecap:round; stroke-linejoin:round; stroke-width:8; stroke-opacity:1; fill:none" points="138.959,1384.24 139.845,1384.24 140.731,1384.24 141.617,1384.24 142.503,1384.24 143.389,1384.24 144.275,1384.24 145.161,1384.24 146.046,1384.24 146.932,1384.24 147.818,1384.24 148.704,1384.24 149.59,1384.24 150.476,1384.24 151.362,1384.24 152.248,1384.24 153.133,1384.24 154.019,1384.24 154.905,1384.24 155.791,1384.24 156.677,1384.24 157.563,1384.24 158.449,1384.24 159.335,1384.24 160.22,1384.24 161.106,1384.24 161.992,1384.24 162.878,1384.24 163.764,1384.24 164.65,1384.24 165.536,1384.24 166.422,1384.24 167.307,1384.24 168.193,1384.24 169.079,1384.24 169.965,1384.24 170.851,1384.24 171.737,1384.24 172.623,1384.24 173.508,1384.24 174.394,1384.24 175.28,1384.24 176.166,1384.24 177.052,1384.24 177.938,1384.24 178.824,1384.24 179.71,1384.24 180.595,1384.24 181.481,1384.24 182.367,1384.24 183.253,1384.24 184.139,1384.24 185.025,1384.24 185.911,1384.24 186.797,1384.24 187.682,1384.24 188.568,1384.24 189.454,1384.24 190.34,1384.24 191.226,1384.24 192.112,1384.24 192.998,1384.24 193.884,1384.24 194.769,1384.24 195.655,1384.24 196.541,1384.24 197.427,1384.24 198.313,1384.24 199.199,1384.24 200.085,1384.24 200.971,1384.24 201.856,1384.24 202.742,1384.24 203.628,1384.24 204.514,1384.24 205.4,1384.24 206.286,1384.24 207.172,1384.24 208.058,1384.24 208.943,1384.24 209.829,1384.24 210.715,1384.24 211.601,1384.24 212.487,1384.24 213.373,1384.24 214.259,1384.24 215.145,1384.24 216.03,1384.24 216.916,1384.24 217.802,1384.24 218.688,1384.24 219.574,1384.24 220.46,1384.24 221.346,1384.24 222.231,1384.24 223.117,1384.24 224.003,1384.24 224.889,1384.24 225.775,1384.24 226.661,1384.24 227.547,1384.24 228.433,1384.24 229.318,1384.24 230.204,1384.24 231.09,1384.24 231.976,1384.24 232.862,1384.24 233.748,1384.24 234.634,1384.24 235.52,1384.24 236.405,1384.24 237.291,1384.24 238.177,1384.24 239.063,1384.24 239.949,1384.24 240.835,1384.24 241.721,1384.24 242.607,1384.24 243.492,1384.24 244.378,1384.24 245.264,1384.24 246.15,1384.24 247.036,1384.24 247.922,1384.24 248.808,1384.24 249.694,1384.24 250.579,1384.24 251.465,1384.24 252.351,1384.24 253.237,1384.24 254.123,1384.24 255.009,1384.24 255.895,1384.24 256.781,1384.24 257.666,1384.24 258.552,1384.24 259.438,1384.24 260.324,1384.24 261.21,1384.24 262.096,1384.24 262.982,1384.24 263.868,1384.24 264.753,1384.24 265.639,1384.24 266.525,1384.24 267.411,1384.24 268.297,1384.24 269.183,1384.24 270.069,1384.24 270.955,1384.24 271.84,1384.24 272.726,1384.24 273.612,1384.24 274.498,1384.24 275.384,1384.24 276.27,1384.24 277.156,1384.24 278.041,1384.24 278.927,1384.24 279.813,1384.24 280.699,1384.24 281.585,1384.24 282.471,1384.24 283.357,1384.24 284.243,1384.24 285.128,1384.24 286.014,1384.24 286.9,1384.24 287.786,1384.24 288.672,1384.24 289.558,1384.24 290.444,1384.24 291.33,1384.24 292.215,1384.24 293.101,1384.24 293.987,1384.24 294.873,1384.24 295.759,1384.24 296.645,1384.24 297.531,1384.24 298.417,1384.24 299.302,1384.24 300.188,1384.24 301.074,1384.24 301.96,1384.24 302.846,1297.7 303.732,1297.7 304.618,1297.7 305.504,1297.7 306.389,1297.7 307.275,1297.7 308.161,1297.7 309.047,1297.7 309.933,1297.7 310.819,1297.7 311.705,1297.7 312.591,1297.7 313.476,1297.7 314.362,1297.7 315.248,1297.7 316.134,1297.7 317.02,1297.7 317.906,1297.7 318.792,1297.7 319.678,1297.7 320.563,1297.7 321.449,1297.7 322.335,1297.7 323.221,1297.7 324.107,1297.7 324.993,1297.7 325.879,1297.7 326.765,1297.7 327.65,1297.7 328.536,1297.7 329.422,1297.7 330.308,1297.7 331.194,1297.7 332.08,1297.7 332.966,1297.7 333.851,1297.7 334.737,1297.7 335.623,1297.7 336.509,1297.7 337.395,1297.7 338.281,1297.7 339.167,1297.7 340.053,1297.7 340.938,1297.7 341.824,1297.7 342.71,1297.7 343.596,1297.7 344.482,1297.7 345.368,1297.7 346.254,1297.7 347.14,1297.7 348.025,1297.7 348.911,1297.7 349.797,1297.7 350.683,1297.7 351.569,1297.7 352.455,1297.7 353.341,1297.7 354.227,1297.7 355.112,1297.7 355.998,1297.7 356.884,1297.7 357.77,1297.7 358.656,1297.7 359.542,1297.7 360.428,1297.7 361.314,1297.7 362.199,1297.7 363.085,1297.7 363.971,1297.7 364.857,1297.7 365.743,1297.7 366.629,1297.7 367.515,1297.7 368.401,1297.7 369.286,1297.7 370.172,1297.7 371.058,1297.7 371.944,1297.7 372.83,1297.7 373.716,1297.7 374.602,1297.7 375.488,1297.7 376.373,1297.7 377.259,1297.7 378.145,1297.7 379.031,1297.7 379.917,1297.7 380.803,1297.7 381.689,1297.7 382.574,1297.7 383.46,1297.7 384.346,1297.7 385.232,1297.7 386.118,1297.7 387.004,1297.7 387.89,1297.7 388.776,1297.7 389.661,1297.7 390.547,1297.7 391.433,1297.7 392.319,1297.7 393.205,1297.7 394.091,1297.7 394.977,1297.7 395.863,1297.7 396.748,1297.7 397.634,1297.7 398.52,1297.7 399.406,1297.7 400.292,1297.7 401.178,1297.7 402.064,1297.7 402.95,1297.7 403.835,1297.7 404.721,1297.7 405.607,1297.7 406.493,1297.7 407.379,1297.7 408.265,1297.7 409.151,1297.7 410.037,1297.7 410.922,1297.7 411.808,1297.7 412.694,1297.7 413.58,1297.7 414.466,1297.7 415.352,1297.7 416.238,1297.7 417.124,1297.7 418.009,1297.7 418.895,1297.7 419.781,1297.7 420.667,1297.7 421.553,1297.7 422.439,1297.7 423.325,1297.7 424.211,1297.7 425.096,1297.7 425.982,1297.7 426.868,1297.7 427.754,1297.7 428.64,1297.7 429.526,1297.7 430.412,1297.7 431.298,1297.7 432.183,1297.7 433.069,1297.7 433.955,1297.7 434.841,1297.7 435.727,1297.7 436.613,1297.7 437.499,1297.7 438.384,1297.7 439.27,1297.7 440.156,1297.7 441.042,1297.7 441.928,1297.7 442.814,1297.7 443.7,1297.7 444.586,1297.7 445.471,1297.7 446.357,1297.7 447.243,1297.7 448.129,1297.7 449.015,1297.7 449.901,1297.7 450.787,1297.7 451.673,1297.7 452.558,1297.7 453.444,1297.7 454.33,1297.7 455.216,1297.7 456.102,1297.7 456.988,1297.7 457.874,1297.7 458.76,1297.7 459.645,1297.7 460.531,1297.7 461.417,1297.7 462.303,1297.7 463.189,1297.7 464.075,1297.7 464.961,1297.7 465.847,1297.7 466.732,1297.7 467.618,1297.7 468.504,1297.7 469.39,1297.7 470.276,1297.7 471.162,1297.7 472.048,1297.7 472.934,1297.7 473.819,1297.7 474.705,1297.7 475.591,1297.7 476.477,1297.7 477.363,1297.7 478.249,1297.7 479.135,1297.7 480.021,1297.7 480.906,1297.7 481.792,1297.7 482.678,1297.7 483.564,1297.7 484.45,1297.7 485.336,1297.7 486.222,1297.7 487.108,1297.7 487.993,1297.7 488.879,1297.7 489.765,1297.7 490.651,1297.7 491.537,1297.7 492.423,1297.7 493.309,1297.7 494.194,1297.7 495.08,1297.7 495.966,1297.7 496.852,1297.7 497.738,1297.7 498.624,1297.7 499.51,1297.7 500.396,1297.7 501.281,1297.7 502.167,1297.7 503.053,1297.7 503.939,1297.7 504.825,1297.7 505.711,1297.7 506.597,1297.7 507.483,1297.7 508.368,1297.7 509.254,1297.7 510.14,1297.7 511.026,1297.7 511.912,1297.7 512.798,1297.7 513.684,1297.7 514.57,1297.7 515.455,1297.7 516.341,1297.7 517.227,1297.7 518.113,1297.7 518.999,1297.7 519.885,1297.7 520.771,1297.7 521.657,1297.7 522.542,1297.7 523.428,1297.7 524.314,1297.7 525.2,1297.7 526.086,1297.7 526.972,1297.7 527.858,1297.7 528.744,1297.7 529.629,1297.7 530.515,1297.7 531.401,1297.7 532.287,1297.7 533.173,1297.7 534.059,1297.7 534.945,1297.7 535.831,1297.7 536.716,1297.7 537.602,1297.7 538.488,1297.7 539.374,1297.7 540.26,1297.7 541.146,1297.7 542.032,1297.7 542.917,1297.7 543.803,1297.7 544.689,1297.7 545.575,1297.7 546.461,1297.7 547.347,1297.7 548.233,1297.7 549.119,1297.7 550.004,1297.7 550.89,1297.7 551.776,1297.7 552.662,1297.7 553.548,1297.7 554.434,1297.7 555.32,1297.7 556.206,1297.7 557.091,1297.7 557.977,1297.7 558.863,1297.7 559.749,1297.7 560.635,1297.7 561.521,1297.7 562.407,1297.7 563.293,1297.7 564.178,1297.7 565.064,1297.7 565.95,1297.7 566.836,1297.7 567.722,1297.7 568.608,1297.7 569.494,1297.7 570.38,1297.7 571.265,1297.7 572.151,1297.7 573.037,1297.7 573.923,1297.7 574.809,1297.7 575.695,1297.7 576.581,1297.7 577.467,1297.7 578.352,1297.7 579.238,1297.7 580.124,1297.7 581.01,1297.7 581.896,1297.7 582.782,1297.7 583.668,1297.7 584.554,1297.7 585.439,1297.7 586.325,1297.7 587.211,1297.7 588.097,1297.7 588.983,1297.7 589.869,1297.7 590.755,1297.7 591.641,1297.7 592.526,1297.7 593.412,1297.7 594.298,1297.7 595.184,1297.7 596.07,1297.7 596.956,1297.7 597.842,1297.7 598.727,1297.7 599.613,1297.7 600.499,1297.7 601.385,1297.7 602.271,1297.7 603.157,1297.7 604.043,1297.7 604.929,1297.7 605.814,1297.7 606.7,1297.7 607.586,1297.7 608.472,1297.7 609.358,1297.7 610.244,1297.7 611.13,1297.7 612.016,1297.7 612.901,1297.7 613.787,1297.7 614.673,1297.7 615.559,1297.7 616.445,1297.7 617.331,1297.7 618.217,1297.7 619.103,1297.7 619.988,1297.7 620.874,1297.7 621.76,1297.7 622.646,1297.7 623.532,1297.7 624.418,1297.7 625.304,1297.7 626.19,1297.7 627.075,1297.7 627.961,1297.7 628.847,1297.7 629.733,1297.7 630.619,1297.7 631.505,1297.7 632.391,1297.7 633.277,1297.7 634.162,1297.7 635.048,1297.7 635.934,1297.7 636.82,1297.7 637.706,1297.7 638.592,1297.7 639.478,1297.7 640.364,1297.7 641.249,1297.7 642.135,1297.7 643.021,1297.7 643.907,1297.7 644.793,1297.7 645.679,1297.7 646.565,1297.7 647.451,1297.7 648.336,1297.7 649.222,1297.7 650.108,1297.7 650.994,1297.7 651.88,1297.7 652.766,1297.7 653.652,1297.7 654.537,1297.7 655.423,1297.7 656.309,1297.7 657.195,1297.7 658.081,1297.7 658.967,1297.7 659.853,1297.7 660.739,1297.7 661.624,1297.7 662.51,1297.7 663.396,1297.7 664.282,1297.7 665.168,1297.7 666.054,1297.7 666.94,1297.7 667.826,1297.7 668.711,1297.7 669.597,1297.7 670.483,1297.7 671.369,1297.7 672.255,1297.7 673.141,1297.7 674.027,1297.7 674.913,1297.7 675.798,1297.7 676.684,1297.7 677.57,1297.7 678.456,1297.7 679.342,1297.7 680.228,1297.7 681.114,1297.7 682,1297.7 682.885,1297.7 683.771,1297.7 684.657,1297.7 685.543,1297.7 686.429,1297.7 687.315,1297.7 688.201,1297.7 689.087,1297.7 689.972,1297.7 690.858,1297.7 691.744,1297.7 692.63,1297.7 693.516,1297.7 694.402,1297.7 695.288,1297.7 696.174,1297.7 697.059,1297.7 697.945,1297.7 698.831,1297.7 699.717,1297.7 700.603,1297.7 701.489,1297.7 702.375,1297.7 703.26,1297.7 704.146,1297.7 705.032,1297.7 705.918,1297.7 706.804,1297.7 707.69,1297.7 708.576,1297.7 709.462,1297.7 710.347,1297.7 711.233,1297.7 712.119,1297.7 713.005,1297.7 713.891,1297.7 714.777,1297.7 715.663,1297.7 716.549,1297.7 717.434,1297.7 718.32,1297.7 719.206,1297.7 720.092,1297.7 720.978,1297.7 721.864,1297.7 722.75,1297.7 723.636,1297.7 724.521,1297.7 725.407,1297.7 726.293,1297.7 727.179,1297.7 728.065,1297.7 728.951,1297.7 729.837,1297.7 730.723,1297.7 731.608,1297.7 732.494,1297.7 733.38,1297.7 734.266,1297.7 735.152,1297.7 736.038,1297.7 736.924,1297.7 737.81,1297.7 738.695,1297.7 739.581,1297.7 740.467,1297.7 741.353,1297.7 742.239,1297.7 743.125,1297.7 744.011,1297.7 744.897,1297.7 745.782,1297.7 746.668,1297.7 747.554,1297.7 748.44,1297.7 749.326,1297.7 750.212,1297.7 751.098,1297.7 751.984,1297.7 752.869,1297.7 753.755,1297.7 754.641,1297.7 755.527,1297.7 756.413,1297.7 757.299,1297.7 758.185,1297.7 759.07,1297.7 759.956,1297.7 760.842,1297.7 761.728,1297.7 762.614,1297.7 763.5,1297.7 764.386,1297.7 765.272,1297.7 766.157,1297.7 767.043,1297.7 767.929,1297.7 768.815,1297.7 769.701,1297.7 770.587,1297.7 771.473,1297.7 772.359,1297.7 773.244,1297.7 774.13,1297.7 775.016,1297.7 775.902,1297.7 776.788,1297.7 777.674,1297.7 778.56,1297.7 779.446,1297.7 780.331,1297.7 781.217,1297.7 782.103,1297.7 782.989,1297.7 783.875,1297.7 784.761,1297.7 785.647,1297.7 786.533,1297.7 787.418,1297.7 788.304,1297.7 789.19,1297.7 790.076,1297.7 790.962,1297.7 791.848,1297.7 792.734,1297.7 793.62,1297.7 794.505,1297.7 795.391,1297.7 796.277,1297.7 797.163,1297.7 798.049,1297.7 798.935,1297.7 799.821,1297.7 800.707,1297.7 801.592,1297.7 802.478,1297.7 803.364,1297.7 804.25,1297.7 805.136,1297.7 806.022,1297.7 806.908,1297.7 807.794,1297.7 808.679,1297.7 809.565,1297.7 810.451,1297.7 811.337,1297.7 812.223,1297.7 813.109,1297.7 813.995,1297.7 814.88,1297.7 815.766,1297.7 816.652,1297.7 817.538,1297.7 818.424,1297.7 819.31,1297.7 820.196,1297.7 821.082,1297.7 821.967,1297.7 822.853,1297.7 823.739,1297.7 824.625,1297.7 825.511,1297.7 826.397,1297.7 827.283,1297.7 828.169,1297.7 829.054,1297.7 829.94,1297.7 830.826,1297.7 831.712,1297.7 832.598,1297.7 833.484,1297.7 834.37,1297.7 835.256,1297.7 836.141,1297.7 837.027,1297.7 837.913,1297.7 838.799,1297.7 839.685,1297.7 840.571,1297.7 841.457,1297.7 842.343,1297.7 843.228,1297.7 844.114,1297.7 845,1297.7 845.886,1297.7 846.772,1297.7 847.658,1297.7 848.544,1297.7 849.43,1297.7 850.315,1297.7 851.201,1297.7 852.087,1297.7 852.973,1297.7 853.859,1297.7 854.745,1297.7 855.631,1297.7 856.517,1297.7 857.402,1297.7 858.288,1297.7 859.174,1297.7 860.06,1297.7 860.946,1297.7 861.832,1297.7 862.718,1297.7 863.604,1297.7 864.489,1297.7 865.375,1297.7 866.261,1297.7 867.147,1297.7 868.033,1297.7 868.919,1297.7 869.805,1297.7 870.69,1297.7 871.576,1297.7 872.462,1297.7 873.348,1297.7 874.234,1297.7 875.12,1297.7 876.006,1297.7 876.892,1297.7 877.777,1297.7 878.663,1297.7 879.549,1297.7 880.435,1297.7 881.321,1297.7 882.207,1297.7 883.093,1297.7 883.979,1297.7 884.864,1297.7 885.75,1297.7 886.636,1297.7 887.522,1297.7 888.408,1297.7 889.294,1297.7 890.18,1297.7 891.066,1297.7 891.951,1297.7 892.837,1297.7 893.723,1297.7 894.609,1297.7 895.495,1297.7 896.381,1297.7 897.267,1297.7 898.153,1297.7 899.038,1297.7 899.924,1297.7 900.81,1297.7 901.696,1297.7 902.582,1297.7 903.468,1297.7 904.354,1297.7 905.24,1297.7 906.125,1297.7 907.011,1297.7 907.897,1297.7 908.783,1297.7 909.669,1297.7 910.555,1297.7 911.441,1297.7 912.327,1297.7 913.212,1297.7 914.098,1297.7 914.984,1297.7 915.87,1297.7 916.756,1297.7 917.642,1297.7 918.528,1297.7 919.413,1297.7 920.299,1297.7 921.185,1297.7 922.071,1297.7 922.957,1297.7 923.843,1297.7 924.729,1297.7 925.615,1297.7 926.5,1297.7 927.386,1297.7 928.272,1297.7 929.158,1297.7 930.044,1297.7 930.93,1297.7 931.816,1297.7 932.702,1297.7 933.587,1297.7 934.473,1297.7 935.359,1297.7 936.245,1297.7 937.131,1297.7 938.017,1297.7 938.903,1297.7 939.789,1297.7 940.674,1297.7 941.56,1297.7 942.446,1297.7 943.332,1297.7 944.218,1297.7 945.104,1297.7 945.99,1297.7 946.876,1297.7 947.761,1297.7 948.647,1297.7 949.533,1297.7 950.419,1297.7 951.305,1297.7 952.191,1297.7 953.077,1297.7 953.963,1297.7 954.848,1297.7 955.734,1297.7 956.62,1297.7 957.506,1297.7 958.392,1297.7 959.278,1297.7 960.164,1297.7 961.05,1297.7 961.935,1297.7 962.821,1297.7 963.707,1297.7 964.593,1297.7 965.479,1297.7 966.365,1297.7 967.251,1297.7 968.137,1297.7 969.022,1297.7 969.908,1297.7 970.794,1297.7 971.68,1297.7 972.566,1297.7 973.452,1297.7 974.338,1297.7 975.223,1297.7 976.109,1297.7 976.995,1297.7 977.881,1297.7 978.767,1297.7 979.653,1297.7 980.539,1297.7 981.425,1297.7 982.31,1297.7 983.196,1297.7 984.082,1297.7 984.968,1297.7 985.854,1297.7 986.74,1297.7 987.626,1297.7 988.512,1297.7 989.397,1297.7 990.283,1297.7 991.169,1297.7 992.055,1297.7 992.941,1297.7 993.827,1297.7 994.713,1297.7 995.599,1297.7 996.484,1297.7 997.37,1297.7 998.256,1297.7 999.142,1297.7 1000.03,1297.7 1000.91,1297.7 1001.8,1297.7 1002.69,1297.7 1003.57,1297.7 1004.46,1297.7 1005.34,1297.7 1006.23,1297.7 1007.11,1297.7 1008,1297.7 1008.89,1297.7 1009.77,1297.7 1010.66,1297.7 1011.54,1297.7 1012.43,1297.7 1013.32,1297.7 1014.2,1297.7 1015.09,1297.7 1015.97,1297.7 1016.86,1297.7 1017.75,1297.7 1018.63,1297.7 1019.52,1297.7 1020.4,1297.7 1021.29,1297.7 1022.17,1297.7 1023.06,1297.7 1023.95,1297.7 1024.83,1297.7 1025.72,1297.7 1026.6,1297.7 1027.49,1297.7 1028.38,1297.7 1029.26,1297.7 1030.15,1297.7 1031.03,1297.7 1031.92,1297.7 1032.81,1297.7 1033.69,1297.7 1034.58,1297.7 1035.46,1297.7 1036.35,1297.7 1037.23,1297.7 1038.12,1297.7 1039.01,1297.7 1039.89,1297.7 1040.78,1297.7 1041.66,1297.7 1042.55,1297.7 1043.44,1297.7 1044.32,1297.7 1045.21,1297.7 1046.09,1297.7 1046.98,1297.7 1047.87,1297.7 1048.75,1297.7 1049.64,1297.7 1050.52,1297.7 1051.41,1297.7 1052.29,1297.7 1053.18,1297.7 1054.07,1297.7 1054.95,1297.7 1055.84,1297.7 1056.72,1297.7 1057.61,1297.7 1058.5,1297.7 1059.38,1297.7 1060.27,1297.7 1061.15,1297.7 1062.04,1297.7 1062.92,1297.7 1063.81,1297.7 1064.7,1297.7 1065.58,1297.7 1066.47,1297.7 1067.35,1297.7 1068.24,1297.7 1069.13,1297.7 1070.01,1297.7 1070.9,1297.7 1071.78,1297.7 1072.67,1297.7 1073.56,1297.7 1074.44,1297.7 1075.33,1297.7 1076.21,1297.7 1077.1,1297.7 1077.98,1297.7 1078.87,1297.7 1079.76,1297.7 1080.64,1297.7 1081.53,1297.7 1082.41,1297.7 1083.3,1297.7 1084.19,1297.7 1085.07,1297.7 1085.96,1297.7 1086.84,1297.7 1087.73,1297.7 1088.62,1297.7 1089.5,1297.7 1090.39,1297.7 1091.27,1297.7 1092.16,1297.7 1093.04,1297.7 1093.93,1297.7 1094.82,1297.7 1095.7,1297.7 1096.59,1297.7 1097.47,1297.7 1098.36,1297.7 1099.25,1297.7 1100.13,1297.7 1101.02,1297.7 1101.9,1297.7 1102.79,1297.7 1103.68,1297.7 1104.56,1297.7 1105.45,1297.7 1106.33,1297.7 1107.22,1297.7 1108.1,1297.7 1108.99,1297.7 1109.88,1297.7 1110.76,1297.7 1111.65,1297.7 1112.53,1297.7 1113.42,1297.7 1114.31,1297.7 1115.19,1297.7 1116.08,1297.7 1116.96,1297.7 1117.85,1297.7 1118.73,1297.7 1119.62,1297.7 1120.51,1297.7 1121.39,1297.7 1122.28,1297.7 1123.16,1297.7 1124.05,1297.7 1124.94,1297.7 1125.82,1297.7 1126.71,1297.7 1127.59,1297.7 1128.48,1297.7 1129.37,1297.7 1130.25,1297.7 1131.14,1297.7 1132.02,1297.7 1132.91,1297.7 1133.79,1297.7 1134.68,1297.7 1135.57,1297.7 1136.45,1297.7 1137.34,1297.7 1138.22,1297.7 1139.11,1297.7 1140,1297.7 1140.88,1297.7 1141.77,1297.7 1142.65,1297.7 1143.54,1297.7 1144.43,1297.7 1145.31,1297.7 1146.2,1297.7 1147.08,1297.7 1147.97,1297.7 1148.85,1297.7 1149.74,1297.7 1150.63,1297.7 1151.51,1297.7 1152.4,1211.16 1153.28,1211.16 1154.17,1211.16 1155.06,1211.16 1155.94,1211.16 1156.83,1211.16 1157.71,1211.16 1158.6,1211.16 1159.49,1211.16 1160.37,1211.16 1161.26,1211.16 1162.14,1211.16 1163.03,1211.16 1163.91,1211.16 1164.8,1211.16 1165.69,1211.16 1166.57,1211.16 1167.46,1211.16 1168.34,1211.16 1169.23,1211.16 1170.12,1211.16 1171,1211.16 1171.89,1211.16 1172.77,1211.16 1173.66,1211.16 1174.54,1211.16 1175.43,1211.16 1176.32,1211.16 1177.2,1211.16 1178.09,1211.16 1178.97,1211.16 1179.86,1211.16 1180.75,1211.16 1181.63,1211.16 1182.52,1211.16 1183.4,1211.16 1184.29,1211.16 1185.18,1211.16 1186.06,1211.16 1186.95,1211.16 1187.83,1211.16 1188.72,1211.16 1189.6,1211.16 1190.49,1211.16 1191.38,1211.16 1192.26,1211.16 1193.15,1211.16 1194.03,1211.16 1194.92,1211.16 1195.81,1211.16 1196.69,1211.16 1197.58,1211.16 1198.46,1211.16 1199.35,1211.16 1200.24,1211.16 1201.12,1211.16 1202.01,1211.16 1202.89,1211.16 1203.78,1211.16 1204.66,1211.16 1205.55,1211.16 1206.44,1211.16 1207.32,1211.16 1208.21,1211.16 1209.09,1211.16 1209.98,1211.16 1210.87,1211.16 1211.75,1211.16 1212.64,1211.16 1213.52,1211.16 1214.41,1211.16 1215.3,1211.16 1216.18,1211.16 1217.07,1211.16 1217.95,1211.16 1218.84,1211.16 1219.72,1211.16 1220.61,1211.16 1221.5,1211.16 1222.38,1211.16 1223.27,1211.16 1224.15,1211.16 1225.04,1211.16 1225.93,1211.16 1226.81,1211.16 1227.7,1211.16 1228.58,1211.16 1229.47,1211.16 1230.35,1211.16 1231.24,1211.16 1232.13,1211.16 1233.01,1211.16 1233.9,1211.16 1234.78,1211.16 1235.67,1211.16 1236.56,1211.16 1237.44,1211.16 1238.33,1211.16 1239.21,1211.16 1240.1,1211.16 1240.99,1211.16 1241.87,1211.16 1242.76,1211.16 1243.64,1211.16 1244.53,1211.16 1245.41,1211.16 1246.3,1211.16 1247.19,1211.16 1248.07,1211.16 1248.96,1211.16 1249.84,1211.16 1250.73,1211.16 1251.62,1211.16 1252.5,1211.16 1253.39,1211.16 1254.27,1211.16 1255.16,1211.16 1256.05,1211.16 1256.93,1211.16 1257.82,1211.16 1258.7,1211.16 1259.59,1211.16 1260.47,1211.16 1261.36,1211.16 1262.25,1211.16 1263.13,1211.16 1264.02,1211.16 1264.9,1211.16 1265.79,1211.16 1266.68,1211.16 1267.56,1211.16 1268.45,1211.16 1269.33,1211.16 1270.22,1211.16 1271.11,1211.16 1271.99,1211.16 1272.88,1211.16 1273.76,1211.16 1274.65,1211.16 1275.53,1211.16 1276.42,1211.16 1277.31,1211.16 1278.19,1211.16 1279.08,1211.16 1279.96,1211.16 1280.85,1211.16 1281.74,1211.16 1282.62,1211.16 1283.51,1211.16 1284.39,1211.16 1285.28,1211.16 1286.16,1211.16 1287.05,1211.16 1287.94,1211.16 1288.82,1211.16 1289.71,1211.16 1290.59,1211.16 1291.48,1211.16 1292.37,1211.16 1293.25,1211.16 1294.14,1211.16 1295.02,1211.16 1295.91,1211.16 1296.8,1211.16 1297.68,1211.16 1298.57,1211.16 1299.45,1211.16 1300.34,1211.16 1301.22,1211.16 1302.11,1211.16 1303,1211.16 1303.88,1211.16 1304.77,1211.16 1305.65,1211.16 1306.54,1211.16 1307.43,1211.16 1308.31,1211.16 1309.2,1211.16 1310.08,1211.16 1310.97,1211.16 1311.86,1211.16 1312.74,1211.16 1313.63,1211.16 1314.51,1211.16 1315.4,1211.16 1316.28,1211.16 1317.17,1211.16 1318.06,1211.16 1318.94,1211.16 1319.83,1211.16 1320.71,1211.16 1321.6,1211.16 1322.49,1211.16 1323.37,1211.16 1324.26,1211.16 1325.14,1211.16 1326.03,1211.16 1326.92,1211.16 1327.8,1211.16 1328.69,1211.16 1329.57,1211.16 1330.46,1211.16 1331.34,1211.16 1332.23,1211.16 1333.12,1211.16 1334,1211.16 1334.89,1211.16 1335.77,1211.16 1336.66,1211.16 1337.55,1211.16 1338.43,1211.16 1339.32,1211.16 1340.2,1211.16 1341.09,1211.16 1341.97,1211.16 1342.86,1211.16 1343.75,1211.16 1344.63,1211.16 1345.52,1211.16 1346.4,1211.16 1347.29,1211.16 1348.18,1211.16 1349.06,1211.16 1349.95,1211.16 1350.83,1211.16 1351.72,1211.16 1352.61,1211.16 1353.49,1211.16 1354.38,1211.16 1355.26,1211.16 1356.15,1211.16 1357.03,1211.16 1357.92,1211.16 1358.81,1211.16 1359.69,1211.16 1360.58,1211.16 1361.46,1211.16 1362.35,1211.16 1363.24,1211.16 1364.12,1211.16 1365.01,1211.16 1365.89,1211.16 1366.78,1211.16 1367.67,1211.16 1368.55,1211.16 1369.44,1211.16 1370.32,1211.16 1371.21,1211.16 1372.09,1211.16 1372.98,1211.16 1373.87,1211.16 1374.75,1211.16 1375.64,1211.16 1376.52,1211.16 1377.41,1211.16 1378.3,1211.16 1379.18,1211.16 1380.07,1211.16 1380.95,1211.16 1381.84,1211.16 1382.73,1211.16 1383.61,1211.16 1384.5,1211.16 1385.38,1211.16 1386.27,1211.16 1387.15,1211.16 1388.04,1211.16 1388.93,1211.16 1389.81,1211.16 1390.7,1211.16 1391.58,1211.16 1392.47,1211.16 1393.36,1211.16 1394.24,1211.16 1395.13,1211.16 1396.01,1211.16 1396.9,1211.16 1397.78,1211.16 1398.67,1211.16 1399.56,1211.16 1400.44,1211.16 1401.33,1211.16 1402.21,1211.16 1403.1,1211.16 1403.99,1211.16 1404.87,1211.16 1405.76,1211.16 1406.64,1211.16 1407.53,1211.16 1408.42,1211.16 1409.3,1211.16 1410.19,1211.16 1411.07,1211.16 1411.96,1211.16 1412.84,1211.16 1413.73,1211.16 1414.62,1211.16 1415.5,1211.16 1416.39,1211.16 1417.27,1211.16 1418.16,1211.16 1419.05,1211.16 1419.93,1211.16 1420.82,1211.16 1421.7,1211.16 1422.59,1211.16 1423.48,1211.16 1424.36,1211.16 1425.25,1211.16 1426.13,1211.16 1427.02,1211.16 1427.9,1211.16 1428.79,1211.16 1429.68,1211.16 1430.56,1211.16 1431.45,1211.16 1432.33,1211.16 1433.22,1211.16 1434.11,1211.16 1434.99,1211.16 1435.88,1211.16 1436.76,1211.16 1437.65,1211.16 1438.54,1211.16 1439.42,1211.16 1440.31,1211.16 1441.19,1211.16 1442.08,1211.16 1442.96,1211.16 1443.85,1211.16 1444.74,1211.16 1445.62,1211.16 1446.51,1211.16 1447.39,1124.63 1448.28,1124.63 1449.17,1124.63 1450.05,1124.63 1450.94,1124.63 1451.82,1124.63 1452.71,1124.63 1453.59,1124.63 1454.48,1124.63 1455.37,1124.63 1456.25,1124.63 1457.14,1124.63 1458.02,1124.63 1458.91,1124.63 1459.8,1124.63 1460.68,1124.63 1461.57,1124.63 1462.45,1124.63 1463.34,1124.63 1464.23,1124.63 1465.11,1124.63 1466,1124.63 1466.88,1124.63 1467.77,1124.63 1468.65,1124.63 1469.54,1124.63 1470.43,1124.63 1471.31,1124.63 1472.2,1124.63 1473.08,1124.63 1473.97,1124.63 1474.86,1124.63 1475.74,1124.63 1476.63,1124.63 1477.51,1124.63 1478.4,1124.63 1479.29,1124.63 1480.17,1124.63 1481.06,1124.63 1481.94,1124.63 1482.83,1124.63 1483.71,1124.63 1484.6,1124.63 1485.49,1124.63 1486.37,1124.63 1487.26,1124.63 1488.14,1124.63 1489.03,1124.63 1489.92,1124.63 1490.8,1124.63 1491.69,1124.63 1492.57,1124.63 1493.46,1124.63 1494.35,1124.63 1495.23,1124.63 1496.12,1124.63 1497,1124.63 1497.89,1124.63 1498.77,1124.63 1499.66,1124.63 1500.55,1124.63 1501.43,1124.63 1502.32,1124.63 1503.2,1124.63 1504.09,1124.63 1504.98,1124.63 1505.86,1124.63 1506.75,1124.63 1507.63,1124.63 1508.52,1124.63 1509.4,1124.63 1510.29,1124.63 1511.18,1124.63 1512.06,1124.63 1512.95,1124.63 1513.83,1124.63 1514.72,1124.63 1515.61,1124.63 1516.49,1124.63 1517.38,1124.63 1518.26,1124.63 1519.15,1124.63 1520.04,1124.63 1520.92,1124.63 1521.81,1124.63 1522.69,1124.63 1523.58,1124.63 1524.46,1124.63 1525.35,1124.63 1526.24,1124.63 1527.12,1124.63 1528.01,1124.63 1528.89,1124.63 1529.78,1038.09 1530.67,1038.09 1531.55,1038.09 1532.44,1038.09 1533.32,1038.09 1534.21,1038.09 1535.1,1038.09 1535.98,1038.09 1536.87,1038.09 1537.75,1038.09 1538.64,1038.09 1539.52,1038.09 1540.41,1038.09 1541.3,1038.09 1542.18,1038.09 1543.07,1038.09 1543.95,1038.09 1544.84,1038.09 1545.73,1038.09 1546.61,1038.09 1547.5,1038.09 1548.38,1038.09 1549.27,1038.09 1550.16,1038.09 1551.04,1038.09 1551.93,1038.09 1552.81,1038.09 1553.7,1038.09 1554.58,1038.09 1555.47,1038.09 1556.36,1038.09 1557.24,1038.09 1558.13,1038.09 1559.01,1038.09 1559.9,1038.09 1560.79,1038.09 1561.67,1038.09 1562.56,1038.09 1563.44,1038.09 1564.33,1038.09 1565.21,1038.09 1566.1,1038.09 1566.99,1038.09 1567.87,1038.09 1568.76,1038.09 1569.64,1038.09 1570.53,1038.09 1571.42,1038.09 1572.3,1038.09 1573.19,1038.09 1574.07,1038.09 1574.96,1038.09 1575.85,1038.09 1576.73,1038.09 1577.62,1038.09 1578.5,1038.09 1579.39,1038.09 1580.27,1038.09 1581.16,1038.09 1582.05,951.554 1582.93,951.554 1583.82,951.554 1584.7,951.554 1585.59,951.554 1586.48,951.554 1587.36,951.554 1588.25,951.554 1589.13,951.554 1590.02,951.554 1590.91,951.554 1591.79,951.554 1592.68,951.554 1593.56,951.554 1594.45,951.554 1595.33,951.554 1596.22,951.554 1597.11,951.554 1597.99,951.554 1598.88,951.554 1599.76,951.554 1600.65,951.554 1601.54,951.554 1602.42,951.554 1603.31,951.554 1604.19,951.554 1605.08,951.554 1605.97,951.554 1606.85,951.554 1607.74,951.554 1608.62,951.554 1609.51,951.554 1610.39,951.554 1611.28,951.554 1612.17,951.554 1613.05,951.554 1613.94,951.554 1614.82,951.554 1615.71,951.554 1616.6,951.554 1617.48,951.554 1618.37,951.554 1619.25,951.554 1620.14,951.554 1621.02,951.554 1621.91,951.554 1622.8,951.554 1623.68,951.554 1624.57,951.554 1625.45,951.554 1626.34,951.554 1627.23,951.554 1628.11,951.554 1629,951.554 1629.88,951.554 1630.77,951.554 1631.66,951.554 1632.54,951.554 1633.43,951.554 1634.31,951.554 1635.2,951.554 1636.08,951.554 1636.97,951.554 1637.86,951.554 1638.74,951.554 1639.63,951.554 1640.51,951.554 1641.4,951.554 1642.29,951.554 1643.17,951.554 1644.06,951.554 1644.94,951.554 1645.83,951.554 1646.72,951.554 1647.6,951.554 1648.49,951.554 1649.37,951.554 1650.26,951.554 1651.14,951.554 1652.03,951.554 1652.92,951.554 1653.8,951.554 1654.69,951.554 1655.57,951.554 1656.46,951.554 1657.35,951.554 1658.23,951.554 1659.12,951.554 1660,951.554 1660.89,951.554 1661.78,951.554 1662.66,951.554 1663.55,951.554 1664.43,951.554 1665.32,951.554 1666.2,951.554 1667.09,951.554 1667.98,951.554 1668.86,951.554 1669.75,951.554 1670.63,951.554 1671.52,951.554 1672.41,951.554 1673.29,951.554 1674.18,951.554 1675.06,951.554 1675.95,951.554 1676.83,951.554 1677.72,951.554 1678.61,951.554 1679.49,951.554 1680.38,951.554 1681.26,951.554 1682.15,951.554 1683.04,951.554 1683.92,951.554 1684.81,951.554 1685.69,951.554 1686.58,951.554 1687.47,951.554 1688.35,951.554 1689.24,951.554 1690.12,951.554 1691.01,951.554 1691.89,951.554 1692.78,951.554 1693.67,951.554 1694.55,951.554 1695.44,951.554 1696.32,951.554 1697.21,951.554 1698.1,951.554 1698.98,951.554 1699.87,951.554 1700.75,951.554 1701.64,951.554 1702.53,951.554 1703.41,951.554 1704.3,951.554 1705.18,951.554 1706.07,951.554 1706.95,951.554 1707.84,951.554 1708.73,951.554 1709.61,951.554 1710.5,951.554 1711.38,951.554 1712.27,951.554 1713.16,951.554 1714.04,951.554 1714.93,951.554 1715.81,951.554 1716.7,951.554 1717.59,951.554 1718.47,951.554 1719.36,951.554 1720.24,951.554 1721.13,951.554 1722.01,951.554 1722.9,951.554 1723.79,951.554 1724.67,951.554 1725.56,951.554 1726.44,951.554 1727.33,951.554 1728.22,951.554 1729.1,951.554 1729.99,951.554 1730.87,951.554 1731.76,951.554 1732.64,951.554 1733.53,951.554 1734.42,951.554 1735.3,951.554 1736.19,951.554 1737.07,951.554 1737.96,951.554 1738.85,951.554 1739.73,951.554 1740.62,951.554 1741.5,951.554 1742.39,951.554 1743.28,951.554 1744.16,951.554 1745.05,951.554 1745.93,951.554 1746.82,951.554 1747.7,951.554 1748.59,951.554 1749.48,951.554 1750.36,951.554 1751.25,951.554 1752.13,951.554 1753.02,951.554 1753.91,951.554 1754.79,951.554 1755.68,951.554 1756.56,951.554 1757.45,951.554 1758.34,951.554 1759.22,951.554 1760.11,951.554 1760.99,951.554 1761.88,951.554 1762.76,951.554 1763.65,951.554 1764.54,951.554 1765.42,951.554 1766.31,951.554 1767.19,951.554 1768.08,951.554 1768.97,951.554 1769.85,951.554 1770.74,951.554 1771.62,951.554 1772.51,951.554 1773.4,951.554 1774.28,951.554 1775.17,865.017 1776.05,865.017 1776.94,865.017 1777.82,865.017 1778.71,865.017 1779.6,865.017 1780.48,865.017 1781.37,865.017 1782.25,865.017 1783.14,865.017 1784.03,865.017 1784.91,865.017 1785.8,865.017 1786.68,865.017 1787.57,865.017 1788.45,865.017 1789.34,865.017 1790.23,865.017 1791.11,865.017 1792,865.017 1792.88,865.017 1793.77,865.017 1794.66,865.017 1795.54,865.017 1796.43,865.017 1797.31,865.017 1798.2,865.017 1799.09,865.017 1799.97,865.017 1800.86,865.017 1801.74,865.017 1802.63,865.017 1803.51,865.017 1804.4,865.017 1805.29,865.017 1806.17,865.017 1807.06,865.017 1807.94,865.017 1808.83,865.017 1809.72,865.017 1810.6,865.017 1811.49,865.017 1812.37,865.017 1813.26,865.017 1814.15,865.017 1815.03,865.017 1815.92,865.017 1816.8,865.017 1817.69,865.017 1818.57,865.017 1819.46,865.017 1820.35,865.017 1821.23,865.017 1822.12,865.017 1823,865.017 1823.89,865.017 1824.78,865.017 1825.66,865.017 1826.55,865.017 1827.43,865.017 1828.32,865.017 1829.21,865.017 1830.09,865.017 1830.98,865.017 1831.86,865.017 1832.75,865.017 1833.63,865.017 1834.52,865.017 1835.41,865.017 1836.29,865.017 1837.18,865.017 1838.06,865.017 1838.95,865.017 1839.84,865.017 1840.72,865.017 1841.61,865.017 1842.49,865.017 1843.38,865.017 1844.26,865.017 1845.15,865.017 1846.04,865.017 1846.92,865.017 1847.81,865.017 1848.69,865.017 1849.58,865.017 1850.47,865.017 1851.35,865.017 1852.24,865.017 1853.12,865.017 1854.01,865.017 1854.9,865.017 1855.78,865.017 1856.67,865.017 1857.55,865.017 1858.44,865.017 1859.32,865.017 1860.21,865.017 1861.1,865.017 1861.98,865.017 1862.87,865.017 1863.75,865.017 1864.64,865.017 1865.53,865.017 1866.41,865.017 1867.3,865.017 1868.18,865.017 1869.07,865.017 1869.96,865.017 1870.84,865.017 1871.73,865.017 1872.61,865.017 1873.5,865.017 1874.38,865.017 1875.27,865.017 1876.16,865.017 1877.04,865.017 1877.93,865.017 1878.81,865.017 1879.7,865.017 1880.59,865.017 1881.47,865.017 1882.36,865.017 1883.24,865.017 1884.13,865.017 1885.01,865.017 1885.9,865.017 1886.79,865.017 1887.67,865.017 1888.56,865.017 1889.44,865.017 1890.33,865.017 1891.22,865.017 1892.1,865.017 1892.99,865.017 1893.87,865.017 1894.76,865.017 1895.65,865.017 1896.53,865.017 1897.42,865.017 1898.3,865.017 1899.19,865.017 1900.07,865.017 1900.96,865.017 1901.85,865.017 1902.73,865.017 1903.62,865.017 1904.5,865.017 1905.39,865.017 1906.28,865.017 1907.16,865.017 1908.05,865.017 1908.93,865.017 1909.82,865.017 1910.71,865.017 1911.59,865.017 1912.48,865.017 1913.36,865.017 1914.25,865.017 1915.13,865.017 1916.02,865.017 1916.91,865.017 1917.79,865.017 1918.68,865.017 1919.56,865.017 1920.45,865.017 1921.34,865.017 1922.22,865.017 1923.11,865.017 1923.99,865.017 1924.88,865.017 1925.77,865.017 1926.65,865.017 1927.54,865.017 1928.42,865.017 1929.31,865.017 1930.19,865.017 1931.08,865.017 1931.97,865.017 1932.85,865.017 1933.74,865.017 1934.62,865.017 1935.51,865.017 1936.4,865.017 1937.28,865.017 1938.17,865.017 1939.05,865.017 1939.94,865.017 1940.82,865.017 1941.71,865.017 1942.6,865.017 1943.48,865.017 1944.37,865.017 1945.25,865.017 1946.14,865.017 1947.03,865.017 1947.91,865.017 1948.8,865.017 1949.68,865.017 1950.57,865.017 1951.46,865.017 1952.34,865.017 1953.23,865.017 1954.11,865.017 1955,865.017 1955.88,865.017 1956.77,865.017 1957.66,865.017 1958.54,865.017 1959.43,865.017 1960.31,865.017 1961.2,865.017 1962.09,865.017 1962.97,865.017 1963.86,865.017 1964.74,865.017 1965.63,865.017 1966.52,865.017 1967.4,865.017 1968.29,865.017 1969.17,865.017 1970.06,865.017 1970.94,865.017 1971.83,865.017 1972.72,865.017 1973.6,865.017 1974.49,865.017 1975.37,865.017 1976.26,865.017 1977.15,865.017 1978.03,865.017 1978.92,865.017 1979.8,865.017 1980.69,865.017 1981.58,865.017 1982.46,865.017 1983.35,865.017 1984.23,865.017 1985.12,865.017 1986,865.017 1986.89,865.017 1987.78,865.017 1988.66,865.017 1989.55,865.017 1990.43,865.017 1991.32,865.017 1992.21,865.017 1993.09,865.017 1993.98,865.017 1994.86,865.017 1995.75,865.017 1996.63,865.017 1997.52,865.017 1998.41,865.017 1999.29,865.017 2000.18,865.017 2001.06,865.017 2001.95,865.017 2002.84,865.017 2003.72,865.017 2004.61,865.017 2005.49,865.017 2006.38,865.017 2007.27,865.017 2008.15,865.017 2009.04,865.017 2009.92,865.017 2010.81,865.017 2011.69,865.017 2012.58,865.017 2013.47,865.017 2014.35,865.017 2015.24,865.017 2016.12,865.017 2017.01,865.017 2017.9,865.017 2018.78,865.017 2019.67,865.017 2020.55,865.017 2021.44,865.017 2022.33,865.017 2023.21,865.017 2024.1,865.017 2024.98,865.017 2025.87,865.017 2026.75,865.017 2027.64,865.017 2028.53,865.017 2029.41,865.017 2030.3,865.017 2031.18,865.017 2032.07,865.017 2032.96,865.017 2033.84,865.017 2034.73,865.017 2035.61,865.017 2036.5,865.017 2037.39,865.017 2038.27,865.017 2039.16,865.017 2040.04,865.017 2040.93,865.017 2041.81,865.017 2042.7,865.017 2043.59,865.017 2044.47,865.017 2045.36,865.017 2046.24,865.017 2047.13,865.017 2048.02,865.017 2048.9,865.017 2049.79,865.017 2050.67,865.017 2051.56,865.017 2052.44,865.017 2053.33,865.017 2054.22,865.017 2055.1,865.017 2055.99,865.017 2056.87,865.017 2057.76,865.017 2058.65,865.017 2059.53,865.017 2060.42,865.017 2061.3,865.017 2062.19,865.017 2063.08,865.017 2063.96,865.017 2064.85,865.017 2065.73,865.017 2066.62,865.017 2067.5,865.017 2068.39,865.017 2069.28,865.017 2070.16,865.017 2071.05,865.017 2071.93,865.017 2072.82,865.017 2073.71,865.017 2074.59,865.017 2075.48,865.017 2076.36,865.017 2077.25,865.017 2078.14,865.017 2079.02,865.017 2079.91,865.017 2080.79,865.017 2081.68,865.017 2082.56,865.017 2083.45,865.017 2084.34,865.017 2085.22,865.017 2086.11,865.017 2086.99,865.017 2087.88,865.017 2088.77,865.017 2089.65,865.017 2090.54,865.017 2091.42,865.017 2092.31,865.017 2093.2,865.017 2094.08,865.017 2094.97,865.017 2095.85,865.017 2096.74,865.017 2097.62,865.017 2098.51,865.017 2099.4,865.017 2100.28,865.017 2101.17,865.017 2102.05,865.017 2102.94,865.017 2103.83,865.017 2104.71,865.017 2105.6,865.017 2106.48,865.017 2107.37,865.017 2108.25,865.017 2109.14,865.017 2110.03,865.017 2110.91,865.017 2111.8,865.017 2112.68,865.017 2113.57,865.017 2114.46,865.017 2115.34,865.017 2116.23,865.017 2117.11,865.017 2118,865.017 2118.89,865.017 2119.77,865.017 2120.66,865.017 2121.54,865.017 2122.43,865.017 2123.31,865.017 2124.2,865.017 2125.09,865.017 2125.97,865.017 2126.86,865.017 2127.74,865.017 2128.63,865.017 2129.52,865.017 2130.4,865.017 2131.29,865.017 2132.17,865.017 2133.06,865.017 2133.95,865.017 2134.83,865.017 2135.72,865.017 2136.6,865.017 2137.49,865.017 2138.37,865.017 2139.26,865.017 2140.15,865.017 2141.03,865.017 2141.92,865.017 2142.8,865.017 2143.69,865.017 2144.58,865.017 2145.46,865.017 2146.35,865.017 2147.23,865.017 2148.12,865.017 2149.01,865.017 2149.89,865.017 2150.78,865.017 2151.66,865.017 2152.55,865.017 2153.43,865.017 2154.32,865.017 2155.21,865.017 2156.09,865.017 2156.98,865.017 2157.86,865.017 2158.75,865.017 2159.64,865.017 2160.52,865.017 2161.41,865.017 2162.29,865.017 2163.18,865.017 2164.06,865.017 2164.95,865.017 2165.84,865.017 2166.72,865.017 2167.61,865.017 2168.49,865.017 2169.38,865.017 2170.27,865.017 2171.15,865.017 2172.04,865.017 2172.92,865.017 2173.81,865.017 2174.7,865.017 2175.58,865.017 2176.47,865.017 2177.35,865.017 2178.24,865.017 2179.12,865.017 2180.01,865.017 2180.9,865.017 2181.78,865.017 2182.67,865.017 2183.55,865.017 2184.44,865.017 2185.33,865.017 2186.21,865.017 2187.1,865.017 2187.98,865.017 2188.87,865.017 2189.76,865.017 2190.64,865.017 2191.53,865.017 2192.41,865.017 2193.3,865.017 2194.18,865.017 2195.07,865.017 2195.96,865.017 2196.84,865.017 2197.73,865.017 2198.61,865.017 2199.5,865.017 2200.39,865.017 2201.27,865.017 2202.16,865.017 2203.04,865.017 2203.93,865.017 2204.82,865.017 2205.7,865.017 2206.59,865.017 2207.47,865.017 2208.36,865.017 2209.24,865.017 2210.13,865.017 2211.02,865.017 2211.9,865.017 2212.79,865.017 2213.67,865.017 2214.56,865.017 2215.45,865.017 2216.33,865.017 2217.22,865.017 2218.1,865.017 2218.99,865.017 2219.87,865.017 2220.76,865.017 2221.65,865.017 2222.53,865.017 2223.42,865.017 2224.3,865.017 2225.19,865.017 2226.08,865.017 2226.96,865.017 2227.85,865.017 2228.73,865.017 2229.62,865.017 2230.51,865.017 2231.39,865.017 2232.28,865.017 2233.16,865.017 2234.05,865.017 2234.93,865.017 2235.82,865.017 2236.71,865.017 2237.59,865.017 2238.48,865.017 2239.36,865.017 2240.25,865.017 2241.14,865.017 2242.02,865.017 2242.91,865.017 2243.79,865.017 2244.68,865.017 2245.57,865.017 2246.45,865.017 2247.34,865.017 2248.22,865.017 2249.11,865.017 2249.99,865.017 2250.88,865.017 2251.77,865.017 2252.65,865.017 2253.54,865.017 2254.42,865.017 2255.31,865.017 2256.2,865.017 2257.08,865.017 2257.97,865.017 2258.85,865.017 2259.74,865.017 2260.63,865.017 2261.51,865.017 2262.4,865.017 2263.28,865.017 2264.17,865.017 2265.05,865.017 2265.94,865.017 2266.83,865.017 2267.71,865.017 2268.6,865.017 2269.48,865.017 2270.37,865.017 2271.26,865.017 2272.14,865.017 2273.03,865.017 2273.91,865.017 2274.8,865.017 2275.68,865.017 2276.57,865.017 2277.46,865.017 2278.34,778.48 2279.23,778.48 2280.11,778.48 2281,778.48 2281.89,778.48 2282.77,778.48 2283.66,778.48 2284.54,778.48 2285.43,778.48 2286.32,778.48 2287.2,778.48 2288.09,778.48 2288.97,778.48 2289.86,778.48 2290.74,778.48 2291.63,778.48 2292.52,778.48 2293.4,778.48 2294.29,778.48 2295.17,778.48 2296.06,778.48 2296.95,778.48 2297.83,778.48 2298.72,778.48 2299.6,778.48 2300.49,778.48 2301.38,778.48 2302.26,778.48 2303.15,778.48 2304.03,778.48 2304.92,778.48 2305.8,778.48 2306.69,778.48 2307.58,778.48 2308.46,778.48 2309.35,778.48 2310.23,778.48 2311.12,778.48 2312.01,778.48 2312.89,778.48 2313.78,778.48 2314.66,778.48 2315.55,778.48 2316.44,778.48 2317.32,778.48 2318.21,778.48 2319.09,778.48 2319.98,778.48 2320.86,778.48 2321.75,778.48 2322.64,778.48 2323.52,778.48 2324.41,778.48 2325.29,778.48 2326.18,778.48 2327.07,778.48 2327.95,778.48 2328.84,778.48 2329.72,778.48 2330.61,778.48 2331.49,778.48 2332.38,778.48 2333.27,691.944 2334.15,691.944 2335.04,691.944 2335.92,691.944 2336.81,691.944 2337.7,691.944 2338.58,691.944 2339.47,691.944 2340.35,691.944 2341.24,691.944 2342.13,691.944 2343.01,691.944 2343.9,691.944 2344.78,691.944 2345.67,691.944 2346.55,691.944 2347.44,691.944 2348.33,691.944 2349.21,691.944 2350.1,691.944 2350.98,691.944 2351.87,691.944 2352.76,691.944 "/>
<polyline clip-path="url(#clip382)" style="stroke:#e26f46; stroke-linecap:round; stroke-linejoin:round; stroke-width:8; stroke-opacity:1; fill:none" points="138.959,1384.24 139.845,1384.24 140.731,1384.24 141.617,1384.24 142.503,1384.24 143.389,1384.24 144.275,1384.24 145.161,1384.24 146.046,1384.24 146.932,1384.24 147.818,1384.24 148.704,1384.24 149.59,1384.24 150.476,1384.24 151.362,1384.24 152.248,1384.24 153.133,1384.24 154.019,1384.24 154.905,1384.24 155.791,1384.24 156.677,1384.24 157.563,1384.24 158.449,1384.24 159.335,1384.24 160.22,1384.24 161.106,1384.24 161.992,1384.24 162.878,1384.24 163.764,1384.24 164.65,1384.24 165.536,1384.24 166.422,1384.24 167.307,1384.24 168.193,1384.24 169.079,1384.24 169.965,1384.24 170.851,1384.24 171.737,1384.24 172.623,1384.24 173.508,1384.24 174.394,1384.24 175.28,1384.24 176.166,1384.24 177.052,1384.24 177.938,1384.24 178.824,1384.24 179.71,1384.24 180.595,1384.24 181.481,1384.24 182.367,1384.24 183.253,1384.24 184.139,1384.24 185.025,1384.24 185.911,1384.24 186.797,1384.24 187.682,1384.24 188.568,1384.24 189.454,1384.24 190.34,1384.24 191.226,1384.24 192.112,1384.24 192.998,1384.24 193.884,1384.24 194.769,1384.24 195.655,1384.24 196.541,1384.24 197.427,1384.24 198.313,1384.24 199.199,1384.24 200.085,1384.24 200.971,1384.24 201.856,1384.24 202.742,1384.24 203.628,1384.24 204.514,1384.24 205.4,1384.24 206.286,1384.24 207.172,1384.24 208.058,1384.24 208.943,1384.24 209.829,1384.24 210.715,1384.24 211.601,1384.24 212.487,1384.24 213.373,1384.24 214.259,1297.7 215.145,1297.7 216.03,1297.7 216.916,1297.7 217.802,1297.7 218.688,1297.7 219.574,1297.7 220.46,1297.7 221.346,1297.7 222.231,1297.7 223.117,1297.7 224.003,1297.7 224.889,1297.7 225.775,1297.7 226.661,1297.7 227.547,1297.7 228.433,1297.7 229.318,1297.7 230.204,1297.7 231.09,1297.7 231.976,1297.7 232.862,1297.7 233.748,1297.7 234.634,1297.7 235.52,1297.7 236.405,1297.7 237.291,1297.7 238.177,1297.7 239.063,1297.7 239.949,1297.7 240.835,1297.7 241.721,1297.7 242.607,1297.7 243.492,1297.7 244.378,1297.7 245.264,1297.7 246.15,1297.7 247.036,1297.7 247.922,1297.7 248.808,1297.7 249.694,1297.7 250.579,1297.7 251.465,1297.7 252.351,1297.7 253.237,1297.7 254.123,1297.7 255.009,1297.7 255.895,1297.7 256.781,1297.7 257.666,1297.7 258.552,1297.7 259.438,1297.7 260.324,1297.7 261.21,1297.7 262.096,1297.7 262.982,1297.7 263.868,1297.7 264.753,1297.7 265.639,1297.7 266.525,1297.7 267.411,1297.7 268.297,1297.7 269.183,1297.7 270.069,1297.7 270.955,1297.7 271.84,1297.7 272.726,1297.7 273.612,1297.7 274.498,1297.7 275.384,1297.7 276.27,1297.7 277.156,1297.7 278.041,1297.7 278.927,1297.7 279.813,1297.7 280.699,1297.7 281.585,1297.7 282.471,1297.7 283.357,1297.7 284.243,1297.7 285.128,1297.7 286.014,1297.7 286.9,1297.7 287.786,1297.7 288.672,1297.7 289.558,1297.7 290.444,1297.7 291.33,1297.7 292.215,1297.7 293.101,1297.7 293.987,1297.7 294.873,1297.7 295.759,1297.7 296.645,1297.7 297.531,1297.7 298.417,1297.7 299.302,1297.7 300.188,1297.7 301.074,1297.7 301.96,1297.7 302.846,1211.16 303.732,1211.16 304.618,1211.16 305.504,1211.16 306.389,1211.16 307.275,1211.16 308.161,1211.16 309.047,1211.16 309.933,1211.16 310.819,1211.16 311.705,1211.16 312.591,1211.16 313.476,1211.16 314.362,1211.16 315.248,1211.16 316.134,1211.16 317.02,1211.16 317.906,1211.16 318.792,1211.16 319.678,1211.16 320.563,1211.16 321.449,1211.16 322.335,1211.16 323.221,1211.16 324.107,1211.16 324.993,1211.16 325.879,1211.16 326.765,1211.16 327.65,1211.16 328.536,1211.16 329.422,1211.16 330.308,1211.16 331.194,1211.16 332.08,1211.16 332.966,1211.16 333.851,1211.16 334.737,1211.16 335.623,1211.16 336.509,1211.16 337.395,1211.16 338.281,1211.16 339.167,1211.16 340.053,1124.63 340.938,1124.63 341.824,1124.63 342.71,1124.63 343.596,1124.63 344.482,1124.63 345.368,1124.63 346.254,1124.63 347.14,1124.63 348.025,1124.63 348.911,1124.63 349.797,1124.63 350.683,1124.63 351.569,1124.63 352.455,1124.63 353.341,1124.63 354.227,1124.63 355.112,1124.63 355.998,1124.63 356.884,1124.63 357.77,1124.63 358.656,1124.63 359.542,1124.63 360.428,1124.63 361.314,1124.63 362.199,1124.63 363.085,1124.63 363.971,1124.63 364.857,1124.63 365.743,1124.63 366.629,1124.63 367.515,1124.63 368.401,1124.63 369.286,1124.63 370.172,1124.63 371.058,1124.63 371.944,1124.63 372.83,1124.63 373.716,1124.63 374.602,1124.63 375.488,1124.63 376.373,1124.63 377.259,1124.63 378.145,1124.63 379.031,1124.63 379.917,1124.63 380.803,1038.09 381.689,1038.09 382.574,1038.09 383.46,1038.09 384.346,1038.09 385.232,1038.09 386.118,1038.09 387.004,1038.09 387.89,1038.09 388.776,1038.09 389.661,1038.09 390.547,1038.09 391.433,1038.09 392.319,1038.09 393.205,1038.09 394.091,1038.09 394.977,1038.09 395.863,1038.09 396.748,1038.09 397.634,1038.09 398.52,1038.09 399.406,1038.09 400.292,1038.09 401.178,1038.09 402.064,1038.09 402.95,1038.09 403.835,1038.09 404.721,1038.09 405.607,1038.09 406.493,1038.09 407.379,1038.09 408.265,1038.09 409.151,1038.09 410.037,1038.09 410.922,1038.09 411.808,1038.09 412.694,1038.09 413.58,1038.09 414.466,1038.09 415.352,1038.09 416.238,1038.09 417.124,1038.09 418.009,1038.09 418.895,1038.09 419.781,1038.09 420.667,1038.09 421.553,1038.09 422.439,1038.09 423.325,1038.09 424.211,1038.09 425.096,1038.09 425.982,1038.09 426.868,1038.09 427.754,1038.09 428.64,1038.09 429.526,1038.09 430.412,1038.09 431.298,1038.09 432.183,1038.09 433.069,1038.09 433.955,1038.09 434.841,1038.09 435.727,1038.09 436.613,1038.09 437.499,1038.09 438.384,1038.09 439.27,1038.09 440.156,1038.09 441.042,1038.09 441.928,1038.09 442.814,1038.09 443.7,1038.09 444.586,1038.09 445.471,1038.09 446.357,1038.09 447.243,951.554 448.129,951.554 449.015,951.554 449.901,951.554 450.787,951.554 451.673,951.554 452.558,951.554 453.444,951.554 454.33,951.554 455.216,951.554 456.102,951.554 456.988,951.554 457.874,951.554 458.76,951.554 459.645,951.554 460.531,951.554 461.417,951.554 462.303,865.017 463.189,865.017 464.075,865.017 464.961,865.017 465.847,865.017 466.732,865.017 467.618,865.017 468.504,865.017 469.39,865.017 470.276,865.017 471.162,865.017 472.048,865.017 472.934,865.017 473.819,865.017 474.705,865.017 475.591,865.017 476.477,865.017 477.363,865.017 478.249,865.017 479.135,865.017 480.021,865.017 480.906,865.017 481.792,865.017 482.678,865.017 483.564,865.017 484.45,865.017 485.336,865.017 486.222,865.017 487.108,865.017 487.993,865.017 488.879,865.017 489.765,865.017 490.651,865.017 491.537,865.017 492.423,865.017 493.309,865.017 494.194,865.017 495.08,865.017 495.966,865.017 496.852,865.017 497.738,865.017 498.624,865.017 499.51,865.017 500.396,865.017 501.281,865.017 502.167,865.017 503.053,865.017 503.939,865.017 504.825,865.017 505.711,865.017 506.597,865.017 507.483,865.017 508.368,865.017 509.254,865.017 510.14,865.017 511.026,865.017 511.912,865.017 512.798,865.017 513.684,865.017 514.57,865.017 515.455,865.017 516.341,865.017 517.227,865.017 518.113,865.017 518.999,865.017 519.885,865.017 520.771,865.017 521.657,865.017 522.542,865.017 523.428,865.017 524.314,865.017 525.2,865.017 526.086,865.017 526.972,865.017 527.858,865.017 528.744,865.017 529.629,865.017 530.515,865.017 531.401,865.017 532.287,865.017 533.173,865.017 534.059,865.017 534.945,865.017 535.831,865.017 536.716,865.017 537.602,865.017 538.488,865.017 539.374,865.017 540.26,865.017 541.146,865.017 542.032,865.017 542.917,865.017 543.803,865.017 544.689,865.017 545.575,865.017 546.461,865.017 547.347,865.017 548.233,865.017 549.119,865.017 550.004,865.017 550.89,865.017 551.776,865.017 552.662,865.017 553.548,865.017 554.434,865.017 555.32,865.017 556.206,865.017 557.091,865.017 557.977,865.017 558.863,865.017 559.749,865.017 560.635,865.017 561.521,865.017 562.407,865.017 563.293,865.017 564.178,865.017 565.064,865.017 565.95,865.017 566.836,865.017 567.722,865.017 568.608,865.017 569.494,865.017 570.38,865.017 571.265,865.017 572.151,865.017 573.037,865.017 573.923,865.017 574.809,865.017 575.695,865.017 576.581,865.017 577.467,865.017 578.352,865.017 579.238,865.017 580.124,865.017 581.01,865.017 581.896,865.017 582.782,865.017 583.668,865.017 584.554,865.017 585.439,865.017 586.325,865.017 587.211,865.017 588.097,865.017 588.983,865.017 589.869,865.017 590.755,865.017 591.641,865.017 592.526,865.017 593.412,865.017 594.298,865.017 595.184,865.017 596.07,865.017 596.956,865.017 597.842,865.017 598.727,865.017 599.613,865.017 600.499,865.017 601.385,865.017 602.271,865.017 603.157,865.017 604.043,865.017 604.929,865.017 605.814,865.017 606.7,865.017 607.586,865.017 608.472,865.017 609.358,865.017 610.244,865.017 611.13,865.017 612.016,865.017 612.901,865.017 613.787,865.017 614.673,865.017 615.559,865.017 616.445,865.017 617.331,865.017 618.217,865.017 619.103,865.017 619.988,865.017 620.874,865.017 621.76,865.017 622.646,865.017 623.532,865.017 624.418,865.017 625.304,865.017 626.19,865.017 627.075,865.017 627.961,865.017 628.847,865.017 629.733,865.017 630.619,865.017 631.505,865.017 632.391,865.017 633.277,865.017 634.162,865.017 635.048,865.017 635.934,865.017 636.82,865.017 637.706,865.017 638.592,865.017 639.478,865.017 640.364,865.017 641.249,865.017 642.135,865.017 643.021,865.017 643.907,865.017 644.793,865.017 645.679,865.017 646.565,865.017 647.451,865.017 648.336,865.017 649.222,865.017 650.108,865.017 650.994,865.017 651.88,865.017 652.766,865.017 653.652,865.017 654.537,865.017 655.423,865.017 656.309,865.017 657.195,865.017 658.081,865.017 658.967,865.017 659.853,865.017 660.739,865.017 661.624,865.017 662.51,865.017 663.396,865.017 664.282,865.017 665.168,865.017 666.054,865.017 666.94,865.017 667.826,865.017 668.711,865.017 669.597,865.017 670.483,865.017 671.369,865.017 672.255,865.017 673.141,865.017 674.027,865.017 674.913,865.017 675.798,865.017 676.684,865.017 677.57,865.017 678.456,865.017 679.342,865.017 680.228,865.017 681.114,865.017 682,865.017 682.885,865.017 683.771,865.017 684.657,865.017 685.543,865.017 686.429,865.017 687.315,865.017 688.201,865.017 689.087,865.017 689.972,865.017 690.858,865.017 691.744,865.017 692.63,865.017 693.516,865.017 694.402,865.017 695.288,865.017 696.174,865.017 697.059,865.017 697.945,865.017 698.831,865.017 699.717,865.017 700.603,865.017 701.489,865.017 702.375,865.017 703.26,865.017 704.146,865.017 705.032,865.017 705.918,865.017 706.804,865.017 707.69,865.017 708.576,865.017 709.462,865.017 710.347,865.017 711.233,865.017 712.119,778.48 713.005,778.48 713.891,778.48 714.777,778.48 715.663,778.48 716.549,778.48 717.434,778.48 718.32,778.48 719.206,778.48 720.092,778.48 720.978,778.48 721.864,778.48 722.75,778.48 723.636,778.48 724.521,778.48 725.407,778.48 726.293,778.48 727.179,778.48 728.065,778.48 728.951,778.48 729.837,778.48 730.723,778.48 731.608,778.48 732.494,778.48 733.38,778.48 734.266,778.48 735.152,778.48 736.038,778.48 736.924,778.48 737.81,778.48 738.695,778.48 739.581,778.48 740.467,778.48 741.353,778.48 742.239,778.48 743.125,778.48 744.011,778.48 744.897,778.48 745.782,778.48 746.668,778.48 747.554,778.48 748.44,778.48 749.326,778.48 750.212,778.48 751.098,778.48 751.984,778.48 752.869,778.48 753.755,778.48 754.641,778.48 755.527,778.48 756.413,778.48 757.299,778.48 758.185,778.48 759.07,778.48 759.956,778.48 760.842,778.48 761.728,778.48 762.614,778.48 763.5,778.48 764.386,778.48 765.272,778.48 766.157,778.48 767.043,778.48 767.929,778.48 768.815,778.48 769.701,778.48 770.587,778.48 771.473,778.48 772.359,778.48 773.244,778.48 774.13,778.48 775.016,778.48 775.902,778.48 776.788,778.48 777.674,778.48 778.56,778.48 779.446,778.48 780.331,778.48 781.217,778.48 782.103,778.48 782.989,778.48 783.875,778.48 784.761,778.48 785.647,778.48 786.533,778.48 787.418,778.48 788.304,778.48 789.19,778.48 790.076,778.48 790.962,778.48 791.848,778.48 792.734,778.48 793.62,778.48 794.505,778.48 795.391,778.48 796.277,778.48 797.163,778.48 798.049,778.48 798.935,778.48 799.821,778.48 800.707,778.48 801.592,778.48 802.478,778.48 803.364,778.48 804.25,778.48 805.136,778.48 806.022,778.48 806.908,778.48 807.794,778.48 808.679,778.48 809.565,778.48 810.451,778.48 811.337,778.48 812.223,778.48 813.109,778.48 813.995,778.48 814.88,778.48 815.766,778.48 816.652,778.48 817.538,778.48 818.424,778.48 819.31,778.48 820.196,778.48 821.082,778.48 821.967,778.48 822.853,778.48 823.739,778.48 824.625,778.48 825.511,778.48 826.397,778.48 827.283,778.48 828.169,778.48 829.054,778.48 829.94,778.48 830.826,778.48 831.712,778.48 832.598,778.48 833.484,778.48 834.37,778.48 835.256,778.48 836.141,778.48 837.027,778.48 837.913,778.48 838.799,778.48 839.685,778.48 840.571,778.48 841.457,778.48 842.343,778.48 843.228,778.48 844.114,778.48 845,778.48 845.886,778.48 846.772,778.48 847.658,778.48 848.544,778.48 849.43,778.48 850.315,778.48 851.201,778.48 852.087,778.48 852.973,778.48 853.859,778.48 854.745,778.48 855.631,778.48 856.517,778.48 857.402,778.48 858.288,778.48 859.174,778.48 860.06,778.48 860.946,778.48 861.832,778.48 862.718,778.48 863.604,778.48 864.489,778.48 865.375,778.48 866.261,778.48 867.147,778.48 868.033,778.48 868.919,778.48 869.805,778.48 870.69,778.48 871.576,778.48 872.462,778.48 873.348,778.48 874.234,778.48 875.12,778.48 876.006,778.48 876.892,778.48 877.777,778.48 878.663,778.48 879.549,778.48 880.435,778.48 881.321,778.48 882.207,778.48 883.093,778.48 883.979,778.48 884.864,778.48 885.75,778.48 886.636,778.48 887.522,778.48 888.408,778.48 889.294,778.48 890.18,778.48 891.066,778.48 891.951,778.48 892.837,778.48 893.723,778.48 894.609,778.48 895.495,778.48 896.381,778.48 897.267,778.48 898.153,778.48 899.038,778.48 899.924,778.48 900.81,778.48 901.696,778.48 902.582,778.48 903.468,778.48 904.354,778.48 905.24,778.48 906.125,778.48 907.011,778.48 907.897,778.48 908.783,778.48 909.669,778.48 910.555,778.48 911.441,778.48 912.327,778.48 913.212,778.48 914.098,778.48 914.984,778.48 915.87,778.48 916.756,778.48 917.642,778.48 918.528,778.48 919.413,778.48 920.299,778.48 921.185,778.48 922.071,778.48 922.957,778.48 923.843,778.48 924.729,778.48 925.615,778.48 926.5,778.48 927.386,778.48 928.272,778.48 929.158,778.48 930.044,778.48 930.93,778.48 931.816,778.48 932.702,778.48 933.587,778.48 934.473,778.48 935.359,778.48 936.245,778.48 937.131,778.48 938.017,778.48 938.903,778.48 939.789,778.48 940.674,778.48 941.56,778.48 942.446,778.48 943.332,778.48 944.218,778.48 945.104,778.48 945.99,778.48 946.876,778.48 947.761,778.48 948.647,778.48 949.533,778.48 950.419,778.48 951.305,778.48 952.191,778.48 953.077,778.48 953.963,778.48 954.848,778.48 955.734,778.48 956.62,778.48 957.506,778.48 958.392,778.48 959.278,778.48 960.164,778.48 961.05,778.48 961.935,778.48 962.821,778.48 963.707,778.48 964.593,778.48 965.479,778.48 966.365,778.48 967.251,778.48 968.137,778.48 969.022,778.48 969.908,778.48 970.794,778.48 971.68,778.48 972.566,778.48 973.452,778.48 974.338,778.48 975.223,778.48 976.109,778.48 976.995,778.48 977.881,778.48 978.767,778.48 979.653,778.48 980.539,778.48 981.425,778.48 982.31,778.48 983.196,778.48 984.082,778.48 984.968,778.48 985.854,778.48 986.74,778.48 987.626,778.48 988.512,778.48 989.397,778.48 990.283,778.48 991.169,778.48 992.055,778.48 992.941,778.48 993.827,778.48 994.713,778.48 995.599,778.48 996.484,778.48 997.37,778.48 998.256,778.48 999.142,778.48 1000.03,778.48 1000.91,778.48 1001.8,778.48 1002.69,778.48 1003.57,778.48 1004.46,778.48 1005.34,778.48 1006.23,778.48 1007.11,778.48 1008,778.48 1008.89,778.48 1009.77,778.48 1010.66,778.48 1011.54,778.48 1012.43,778.48 1013.32,778.48 1014.2,778.48 1015.09,778.48 1015.97,778.48 1016.86,778.48 1017.75,778.48 1018.63,778.48 1019.52,778.48 1020.4,778.48 1021.29,778.48 1022.17,778.48 1023.06,778.48 1023.95,778.48 1024.83,778.48 1025.72,778.48 1026.6,778.48 1027.49,778.48 1028.38,778.48 1029.26,778.48 1030.15,778.48 1031.03,778.48 1031.92,778.48 1032.81,778.48 1033.69,778.48 1034.58,778.48 1035.46,778.48 1036.35,778.48 1037.23,778.48 1038.12,778.48 1039.01,778.48 1039.89,778.48 1040.78,778.48 1041.66,778.48 1042.55,778.48 1043.44,778.48 1044.32,778.48 1045.21,778.48 1046.09,778.48 1046.98,778.48 1047.87,778.48 1048.75,778.48 1049.64,778.48 1050.52,778.48 1051.41,778.48 1052.29,778.48 1053.18,778.48 1054.07,778.48 1054.95,778.48 1055.84,778.48 1056.72,778.48 1057.61,778.48 1058.5,778.48 1059.38,778.48 1060.27,778.48 1061.15,778.48 1062.04,778.48 1062.92,778.48 1063.81,778.48 1064.7,778.48 1065.58,778.48 1066.47,778.48 1067.35,778.48 1068.24,778.48 1069.13,778.48 1070.01,778.48 1070.9,778.48 1071.78,778.48 1072.67,778.48 1073.56,778.48 1074.44,778.48 1075.33,778.48 1076.21,778.48 1077.1,778.48 1077.98,778.48 1078.87,778.48 1079.76,778.48 1080.64,778.48 1081.53,778.48 1082.41,778.48 1083.3,778.48 1084.19,778.48 1085.07,778.48 1085.96,778.48 1086.84,778.48 1087.73,778.48 1088.62,778.48 1089.5,778.48 1090.39,778.48 1091.27,778.48 1092.16,778.48 1093.04,778.48 1093.93,778.48 1094.82,778.48 1095.7,778.48 1096.59,778.48 1097.47,778.48 1098.36,778.48 1099.25,778.48 1100.13,778.48 1101.02,778.48 1101.9,778.48 1102.79,778.48 1103.68,778.48 1104.56,778.48 1105.45,691.944 1106.33,691.944 1107.22,691.944 1108.1,691.944 1108.99,691.944 1109.88,691.944 1110.76,691.944 1111.65,691.944 1112.53,691.944 1113.42,691.944 1114.31,691.944 1115.19,691.944 1116.08,691.944 1116.96,691.944 1117.85,691.944 1118.73,691.944 1119.62,691.944 1120.51,691.944 1121.39,691.944 1122.28,691.944 1123.16,691.944 1124.05,691.944 1124.94,691.944 1125.82,691.944 1126.71,691.944 1127.59,691.944 1128.48,691.944 1129.37,691.944 1130.25,691.944 1131.14,691.944 1132.02,691.944 1132.91,691.944 1133.79,691.944 1134.68,691.944 1135.57,691.944 1136.45,691.944 1137.34,691.944 1138.22,691.944 1139.11,691.944 1140,691.944 1140.88,691.944 1141.77,691.944 1142.65,691.944 1143.54,691.944 1144.43,691.944 1145.31,691.944 1146.2,691.944 1147.08,691.944 1147.97,691.944 1148.85,691.944 1149.74,691.944 1150.63,691.944 1151.51,691.944 1152.4,691.944 1153.28,691.944 1154.17,691.944 1155.06,691.944 1155.94,691.944 1156.83,691.944 1157.71,691.944 1158.6,691.944 1159.49,691.944 1160.37,691.944 1161.26,691.944 1162.14,691.944 1163.03,691.944 1163.91,691.944 1164.8,691.944 1165.69,691.944 1166.57,691.944 1167.46,691.944 1168.34,691.944 1169.23,691.944 1170.12,691.944 1171,691.944 1171.89,691.944 1172.77,691.944 1173.66,691.944 1174.54,691.944 1175.43,691.944 1176.32,691.944 1177.2,691.944 1178.09,691.944 1178.97,691.944 1179.86,691.944 1180.75,691.944 1181.63,691.944 1182.52,691.944 1183.4,691.944 1184.29,691.944 1185.18,691.944 1186.06,691.944 1186.95,691.944 1187.83,691.944 1188.72,691.944 1189.6,691.944 1190.49,691.944 1191.38,691.944 1192.26,691.944 1193.15,691.944 1194.03,691.944 1194.92,691.944 1195.81,691.944 1196.69,691.944 1197.58,691.944 1198.46,691.944 1199.35,691.944 1200.24,691.944 1201.12,691.944 1202.01,691.944 1202.89,691.944 1203.78,691.944 1204.66,691.944 1205.55,691.944 1206.44,691.944 1207.32,691.944 1208.21,691.944 1209.09,691.944 1209.98,691.944 1210.87,691.944 1211.75,691.944 1212.64,691.944 1213.52,691.944 1214.41,691.944 1215.3,691.944 1216.18,691.944 1217.07,691.944 1217.95,691.944 1218.84,691.944 1219.72,691.944 1220.61,691.944 1221.5,691.944 1222.38,691.944 1223.27,691.944 1224.15,691.944 1225.04,691.944 1225.93,691.944 1226.81,691.944 1227.7,691.944 1228.58,691.944 1229.47,691.944 1230.35,691.944 1231.24,691.944 1232.13,691.944 1233.01,691.944 1233.9,691.944 1234.78,691.944 1235.67,691.944 1236.56,691.944 1237.44,691.944 1238.33,691.944 1239.21,691.944 1240.1,691.944 1240.99,691.944 1241.87,691.944 1242.76,691.944 1243.64,691.944 1244.53,691.944 1245.41,691.944 1246.3,691.944 1247.19,691.944 1248.07,691.944 1248.96,691.944 1249.84,691.944 1250.73,691.944 1251.62,691.944 1252.5,691.944 1253.39,691.944 1254.27,691.944 1255.16,691.944 1256.05,691.944 1256.93,691.944 1257.82,691.944 1258.7,691.944 1259.59,691.944 1260.47,691.944 1261.36,691.944 1262.25,691.944 1263.13,691.944 1264.02,691.944 1264.9,691.944 1265.79,691.944 1266.68,691.944 1267.56,691.944 1268.45,691.944 1269.33,691.944 1270.22,691.944 1271.11,691.944 1271.99,691.944 1272.88,691.944 1273.76,691.944 1274.65,691.944 1275.53,691.944 1276.42,691.944 1277.31,691.944 1278.19,691.944 1279.08,691.944 1279.96,691.944 1280.85,691.944 1281.74,691.944 1282.62,691.944 1283.51,691.944 1284.39,691.944 1285.28,691.944 1286.16,691.944 1287.05,691.944 1287.94,691.944 1288.82,691.944 1289.71,691.944 1290.59,691.944 1291.48,691.944 1292.37,691.944 1293.25,691.944 1294.14,691.944 1295.02,691.944 1295.91,691.944 1296.8,691.944 1297.68,691.944 1298.57,691.944 1299.45,691.944 1300.34,691.944 1301.22,691.944 1302.11,691.944 1303,691.944 1303.88,691.944 1304.77,691.944 1305.65,691.944 1306.54,691.944 1307.43,691.944 1308.31,691.944 1309.2,691.944 1310.08,691.944 1310.97,691.944 1311.86,691.944 1312.74,691.944 1313.63,691.944 1314.51,691.944 1315.4,691.944 1316.28,691.944 1317.17,691.944 1318.06,691.944 1318.94,691.944 1319.83,691.944 1320.71,691.944 1321.6,691.944 1322.49,691.944 1323.37,691.944 1324.26,691.944 1325.14,691.944 1326.03,691.944 1326.92,691.944 1327.8,691.944 1328.69,691.944 1329.57,691.944 1330.46,691.944 1331.34,691.944 1332.23,691.944 1333.12,691.944 1334,691.944 1334.89,691.944 1335.77,691.944 1336.66,691.944 1337.55,691.944 1338.43,691.944 1339.32,691.944 1340.2,691.944 1341.09,691.944 1341.97,691.944 1342.86,691.944 1343.75,691.944 1344.63,691.944 1345.52,691.944 1346.4,691.944 1347.29,691.944 1348.18,691.944 1349.06,691.944 1349.95,691.944 1350.83,691.944 1351.72,691.944 1352.61,691.944 1353.49,691.944 1354.38,691.944 1355.26,691.944 1356.15,691.944 1357.03,691.944 1357.92,691.944 1358.81,691.944 1359.69,691.944 1360.58,691.944 1361.46,691.944 1362.35,691.944 1363.24,691.944 1364.12,691.944 1365.01,691.944 1365.89,691.944 1366.78,691.944 1367.67,691.944 1368.55,691.944 1369.44,691.944 1370.32,691.944 1371.21,691.944 1372.09,691.944 1372.98,691.944 1373.87,691.944 1374.75,691.944 1375.64,691.944 1376.52,691.944 1377.41,691.944 1378.3,691.944 1379.18,691.944 1380.07,691.944 1380.95,691.944 1381.84,691.944 1382.73,691.944 1383.61,691.944 1384.5,691.944 1385.38,691.944 1386.27,691.944 1387.15,691.944 1388.04,691.944 1388.93,691.944 1389.81,691.944 1390.7,691.944 1391.58,691.944 1392.47,691.944 1393.36,691.944 1394.24,691.944 1395.13,691.944 1396.01,691.944 1396.9,691.944 1397.78,691.944 1398.67,691.944 1399.56,691.944 1400.44,691.944 1401.33,691.944 1402.21,691.944 1403.1,691.944 1403.99,691.944 1404.87,691.944 1405.76,691.944 1406.64,691.944 1407.53,691.944 1408.42,691.944 1409.3,691.944 1410.19,691.944 1411.07,691.944 1411.96,691.944 1412.84,691.944 1413.73,691.944 1414.62,691.944 1415.5,691.944 1416.39,691.944 1417.27,691.944 1418.16,691.944 1419.05,691.944 1419.93,691.944 1420.82,691.944 1421.7,691.944 1422.59,691.944 1423.48,691.944 1424.36,691.944 1425.25,691.944 1426.13,691.944 1427.02,691.944 1427.9,691.944 1428.79,691.944 1429.68,691.944 1430.56,691.944 1431.45,691.944 1432.33,691.944 1433.22,691.944 1434.11,691.944 1434.99,691.944 1435.88,691.944 1436.76,691.944 1437.65,691.944 1438.54,691.944 1439.42,691.944 1440.31,691.944 1441.19,691.944 1442.08,691.944 1442.96,691.944 1443.85,691.944 1444.74,691.944 1445.62,691.944 1446.51,691.944 1447.39,691.944 1448.28,691.944 1449.17,691.944 1450.05,691.944 1450.94,691.944 1451.82,691.944 1452.71,691.944 1453.59,691.944 1454.48,691.944 1455.37,691.944 1456.25,691.944 1457.14,691.944 1458.02,691.944 1458.91,691.944 1459.8,691.944 1460.68,691.944 1461.57,691.944 1462.45,691.944 1463.34,691.944 1464.23,691.944 1465.11,691.944 1466,691.944 1466.88,691.944 1467.77,691.944 1468.65,691.944 1469.54,691.944 1470.43,691.944 1471.31,691.944 1472.2,691.944 1473.08,691.944 1473.97,691.944 1474.86,691.944 1475.74,691.944 1476.63,691.944 1477.51,691.944 1478.4,691.944 1479.29,691.944 1480.17,691.944 1481.06,691.944 1481.94,691.944 1482.83,691.944 1483.71,691.944 1484.6,691.944 1485.49,691.944 1486.37,691.944 1487.26,691.944 1488.14,691.944 1489.03,691.944 1489.92,691.944 1490.8,691.944 1491.69,691.944 1492.57,691.944 1493.46,691.944 1494.35,691.944 1495.23,691.944 1496.12,691.944 1497,691.944 1497.89,691.944 1498.77,691.944 1499.66,691.944 1500.55,691.944 1501.43,691.944 1502.32,605.407 1503.2,605.407 1504.09,605.407 1504.98,605.407 1505.86,605.407 1506.75,605.407 1507.63,605.407 1508.52,605.407 1509.4,605.407 1510.29,605.407 1511.18,605.407 1512.06,605.407 1512.95,605.407 1513.83,605.407 1514.72,605.407 1515.61,605.407 1516.49,605.407 1517.38,605.407 1518.26,605.407 1519.15,605.407 1520.04,605.407 1520.92,605.407 1521.81,605.407 1522.69,605.407 1523.58,605.407 1524.46,605.407 1525.35,605.407 1526.24,605.407 1527.12,605.407 1528.01,605.407 1528.89,605.407 1529.78,605.407 1530.67,605.407 1531.55,605.407 1532.44,605.407 1533.32,605.407 1534.21,605.407 1535.1,605.407 1535.98,605.407 1536.87,605.407 1537.75,605.407 1538.64,605.407 1539.52,605.407 1540.41,605.407 1541.3,605.407 1542.18,605.407 1543.07,605.407 1543.95,605.407 1544.84,605.407 1545.73,605.407 1546.61,605.407 1547.5,605.407 1548.38,605.407 1549.27,605.407 1550.16,605.407 1551.04,605.407 1551.93,605.407 1552.81,605.407 1553.7,605.407 1554.58,605.407 1555.47,605.407 1556.36,605.407 1557.24,605.407 1558.13,605.407 1559.01,605.407 1559.9,605.407 1560.79,605.407 1561.67,605.407 1562.56,605.407 1563.44,605.407 1564.33,605.407 1565.21,605.407 1566.1,605.407 1566.99,605.407 1567.87,605.407 1568.76,605.407 1569.64,605.407 1570.53,605.407 1571.42,605.407 1572.3,605.407 1573.19,605.407 1574.07,605.407 1574.96,605.407 1575.85,605.407 1576.73,605.407 1577.62,605.407 1578.5,605.407 1579.39,605.407 1580.27,605.407 1581.16,605.407 1582.05,605.407 1582.93,605.407 1583.82,605.407 1584.7,605.407 1585.59,605.407 1586.48,605.407 1587.36,605.407 1588.25,605.407 1589.13,605.407 1590.02,605.407 1590.91,605.407 1591.79,605.407 1592.68,605.407 1593.56,605.407 1594.45,605.407 1595.33,605.407 1596.22,605.407 1597.11,605.407 1597.99,605.407 1598.88,605.407 1599.76,605.407 1600.65,605.407 1601.54,605.407 1602.42,605.407 1603.31,605.407 1604.19,605.407 1605.08,605.407 1605.97,605.407 1606.85,605.407 1607.74,605.407 1608.62,605.407 1609.51,605.407 1610.39,605.407 1611.28,605.407 1612.17,605.407 1613.05,605.407 1613.94,605.407 1614.82,605.407 1615.71,605.407 1616.6,605.407 1617.48,605.407 1618.37,605.407 1619.25,605.407 1620.14,605.407 1621.02,605.407 1621.91,605.407 1622.8,605.407 1623.68,605.407 1624.57,605.407 1625.45,605.407 1626.34,605.407 1627.23,605.407 1628.11,605.407 1629,605.407 1629.88,605.407 1630.77,605.407 1631.66,605.407 1632.54,605.407 1633.43,605.407 1634.31,605.407 1635.2,605.407 1636.08,605.407 1636.97,605.407 1637.86,605.407 1638.74,605.407 1639.63,605.407 1640.51,605.407 1641.4,605.407 1642.29,605.407 1643.17,605.407 1644.06,605.407 1644.94,605.407 1645.83,605.407 1646.72,605.407 1647.6,605.407 1648.49,605.407 1649.37,605.407 1650.26,605.407 1651.14,605.407 1652.03,605.407 1652.92,605.407 1653.8,605.407 1654.69,605.407 1655.57,605.407 1656.46,605.407 1657.35,605.407 1658.23,605.407 1659.12,605.407 1660,605.407 1660.89,605.407 1661.78,605.407 1662.66,605.407 1663.55,605.407 1664.43,605.407 1665.32,605.407 1666.2,605.407 1667.09,605.407 1667.98,605.407 1668.86,605.407 1669.75,605.407 1670.63,605.407 1671.52,605.407 1672.41,605.407 1673.29,605.407 1674.18,605.407 1675.06,605.407 1675.95,605.407 1676.83,605.407 1677.72,605.407 1678.61,605.407 1679.49,605.407 1680.38,605.407 1681.26,605.407 1682.15,605.407 1683.04,605.407 1683.92,605.407 1684.81,605.407 1685.69,605.407 1686.58,605.407 1687.47,605.407 1688.35,605.407 1689.24,605.407 1690.12,605.407 1691.01,605.407 1691.89,605.407 1692.78,605.407 1693.67,605.407 1694.55,605.407 1695.44,605.407 1696.32,605.407 1697.21,605.407 1698.1,605.407 1698.98,605.407 1699.87,605.407 1700.75,605.407 1701.64,605.407 1702.53,605.407 1703.41,605.407 1704.3,605.407 1705.18,605.407 1706.07,605.407 1706.95,605.407 1707.84,605.407 1708.73,605.407 1709.61,605.407 1710.5,605.407 1711.38,605.407 1712.27,605.407 1713.16,605.407 1714.04,605.407 1714.93,605.407 1715.81,605.407 1716.7,605.407 1717.59,605.407 1718.47,605.407 1719.36,605.407 1720.24,605.407 1721.13,605.407 1722.01,605.407 1722.9,605.407 1723.79,605.407 1724.67,605.407 1725.56,605.407 1726.44,605.407 1727.33,605.407 1728.22,605.407 1729.1,605.407 1729.99,605.407 1730.87,605.407 1731.76,605.407 1732.64,605.407 1733.53,605.407 1734.42,605.407 1735.3,605.407 1736.19,605.407 1737.07,605.407 1737.96,605.407 1738.85,605.407 1739.73,605.407 1740.62,605.407 1741.5,605.407 1742.39,605.407 1743.28,605.407 1744.16,605.407 1745.05,605.407 1745.93,605.407 1746.82,605.407 1747.7,605.407 1748.59,605.407 1749.48,605.407 1750.36,605.407 1751.25,605.407 1752.13,605.407 1753.02,605.407 1753.91,605.407 1754.79,605.407 1755.68,605.407 1756.56,605.407 1757.45,605.407 1758.34,605.407 1759.22,605.407 1760.11,605.407 1760.99,605.407 1761.88,605.407 1762.76,605.407 1763.65,605.407 1764.54,605.407 1765.42,605.407 1766.31,605.407 1767.19,605.407 1768.08,605.407 1768.97,605.407 1769.85,605.407 1770.74,605.407 1771.62,605.407 1772.51,605.407 1773.4,605.407 1774.28,605.407 1775.17,605.407 1776.05,605.407 1776.94,605.407 1777.82,605.407 1778.71,605.407 1779.6,605.407 1780.48,605.407 1781.37,605.407 1782.25,605.407 1783.14,605.407 1784.03,605.407 1784.91,605.407 1785.8,605.407 1786.68,605.407 1787.57,605.407 1788.45,605.407 1789.34,605.407 1790.23,605.407 1791.11,605.407 1792,605.407 1792.88,605.407 1793.77,605.407 1794.66,605.407 1795.54,605.407 1796.43,605.407 1797.31,605.407 1798.2,605.407 1799.09,605.407 1799.97,605.407 1800.86,605.407 1801.74,605.407 1802.63,518.87 1803.51,518.87 1804.4,518.87 1805.29,518.87 1806.17,518.87 1807.06,518.87 1807.94,518.87 1808.83,518.87 1809.72,518.87 1810.6,518.87 1811.49,518.87 1812.37,518.87 1813.26,518.87 1814.15,518.87 1815.03,518.87 1815.92,518.87 1816.8,518.87 1817.69,518.87 1818.57,518.87 1819.46,518.87 1820.35,518.87 1821.23,518.87 1822.12,518.87 1823,518.87 1823.89,518.87 1824.78,518.87 1825.66,518.87 1826.55,518.87 1827.43,518.87 1828.32,518.87 1829.21,518.87 1830.09,518.87 1830.98,518.87 1831.86,518.87 1832.75,518.87 1833.63,518.87 1834.52,518.87 1835.41,518.87 1836.29,518.87 1837.18,518.87 1838.06,518.87 1838.95,518.87 1839.84,518.87 1840.72,518.87 1841.61,518.87 1842.49,518.87 1843.38,518.87 1844.26,518.87 1845.15,518.87 1846.04,518.87 1846.92,518.87 1847.81,518.87 1848.69,518.87 1849.58,518.87 1850.47,518.87 1851.35,518.87 1852.24,518.87 1853.12,518.87 1854.01,518.87 1854.9,518.87 1855.78,518.87 1856.67,518.87 1857.55,518.87 1858.44,518.87 1859.32,518.87 1860.21,518.87 1861.1,518.87 1861.98,518.87 1862.87,518.87 1863.75,518.87 1864.64,518.87 1865.53,518.87 1866.41,518.87 1867.3,518.87 1868.18,518.87 1869.07,432.333 1869.96,432.333 1870.84,432.333 1871.73,432.333 1872.61,432.333 1873.5,432.333 1874.38,432.333 1875.27,432.333 1876.16,432.333 1877.04,432.333 1877.93,432.333 1878.81,432.333 1879.7,432.333 1880.59,345.796 1881.47,345.796 1882.36,345.796 1883.24,345.796 1884.13,345.796 1885.01,345.796 1885.9,345.796 1886.79,345.796 1887.67,345.796 1888.56,345.796 1889.44,345.796 1890.33,345.796 1891.22,345.796 1892.1,345.796 1892.99,345.796 1893.87,345.796 1894.76,345.796 1895.65,345.796 1896.53,345.796 1897.42,345.796 1898.3,345.796 1899.19,345.796 1900.07,345.796 1900.96,345.796 1901.85,259.259 1902.73,259.259 1903.62,259.259 1904.5,259.259 1905.39,259.259 1906.28,259.259 1907.16,259.259 1908.05,259.259 1908.93,259.259 1909.82,259.259 1910.71,259.259 1911.59,259.259 1912.48,259.259 1913.36,259.259 1914.25,259.259 1915.13,259.259 1916.02,259.259 1916.91,259.259 1917.79,259.259 1918.68,259.259 1919.56,259.259 1920.45,259.259 1921.34,259.259 1922.22,259.259 1923.11,259.259 1923.99,259.259 1924.88,259.259 1925.77,259.259 1926.65,259.259 1927.54,259.259 1928.42,259.259 1929.31,259.259 1930.19,259.259 1931.08,259.259 1931.97,259.259 1932.85,259.259 1933.74,259.259 1934.62,259.259 1935.51,259.259 1936.4,259.259 1937.28,259.259 1938.17,259.259 1939.05,259.259 1939.94,259.259 1940.82,259.259 1941.71,259.259 1942.6,259.259 1943.48,259.259 1944.37,259.259 1945.25,259.259 1946.14,259.259 1947.03,259.259 1947.91,259.259 1948.8,259.259 1949.68,259.259 1950.57,259.259 1951.46,259.259 1952.34,259.259 1953.23,259.259 1954.11,259.259 1955,259.259 1955.88,259.259 1956.77,259.259 1957.66,259.259 1958.54,259.259 1959.43,259.259 1960.31,259.259 1961.2,259.259 1962.09,259.259 1962.97,259.259 1963.86,259.259 1964.74,259.259 1965.63,259.259 1966.52,259.259 1967.4,259.259 1968.29,259.259 1969.17,259.259 1970.06,259.259 1970.94,259.259 1971.83,259.259 1972.72,259.259 1973.6,259.259 1974.49,259.259 1975.37,259.259 1976.26,259.259 1977.15,259.259 1978.03,259.259 1978.92,259.259 1979.8,259.259 1980.69,259.259 1981.58,259.259 1982.46,259.259 1983.35,259.259 1984.23,259.259 1985.12,259.259 1986,259.259 1986.89,259.259 1987.78,259.259 1988.66,259.259 1989.55,259.259 1990.43,259.259 1991.32,259.259 1992.21,259.259 1993.09,259.259 1993.98,259.259 1994.86,259.259 1995.75,259.259 1996.63,259.259 1997.52,259.259 1998.41,259.259 1999.29,259.259 2000.18,259.259 2001.06,259.259 2001.95,259.259 2002.84,259.259 2003.72,259.259 2004.61,259.259 2005.49,259.259 2006.38,259.259 2007.27,259.259 2008.15,259.259 2009.04,259.259 2009.92,259.259 2010.81,259.259 2011.69,259.259 2012.58,259.259 2013.47,259.259 2014.35,259.259 2015.24,259.259 2016.12,259.259 2017.01,259.259 2017.9,259.259 2018.78,259.259 2019.67,259.259 2020.55,259.259 2021.44,259.259 2022.33,259.259 2023.21,259.259 2024.1,259.259 2024.98,259.259 2025.87,259.259 2026.75,259.259 2027.64,259.259 2028.53,259.259 2029.41,259.259 2030.3,259.259 2031.18,259.259 2032.07,259.259 2032.96,259.259 2033.84,259.259 2034.73,259.259 2035.61,259.259 2036.5,259.259 2037.39,259.259 2038.27,259.259 2039.16,259.259 2040.04,259.259 2040.93,259.259 2041.81,259.259 2042.7,259.259 2043.59,259.259 2044.47,259.259 2045.36,259.259 2046.24,259.259 2047.13,259.259 2048.02,259.259 2048.9,259.259 2049.79,259.259 2050.67,259.259 2051.56,259.259 2052.44,259.259 2053.33,259.259 2054.22,259.259 2055.1,259.259 2055.99,259.259 2056.87,259.259 2057.76,259.259 2058.65,259.259 2059.53,259.259 2060.42,259.259 2061.3,259.259 2062.19,259.259 2063.08,259.259 2063.96,259.259 2064.85,259.259 2065.73,259.259 2066.62,259.259 2067.5,259.259 2068.39,259.259 2069.28,259.259 2070.16,259.259 2071.05,259.259 2071.93,259.259 2072.82,259.259 2073.71,259.259 2074.59,259.259 2075.48,259.259 2076.36,259.259 2077.25,259.259 2078.14,259.259 2079.02,259.259 2079.91,259.259 2080.79,259.259 2081.68,259.259 2082.56,259.259 2083.45,259.259 2084.34,259.259 2085.22,259.259 2086.11,259.259 2086.99,259.259 2087.88,259.259 2088.77,259.259 2089.65,259.259 2090.54,259.259 2091.42,259.259 2092.31,259.259 2093.2,259.259 2094.08,259.259 2094.97,259.259 2095.85,259.259 2096.74,259.259 2097.62,259.259 2098.51,259.259 2099.4,259.259 2100.28,259.259 2101.17,259.259 2102.05,259.259 2102.94,259.259 2103.83,259.259 2104.71,259.259 2105.6,259.259 2106.48,259.259 2107.37,259.259 2108.25,259.259 2109.14,259.259 2110.03,259.259 2110.91,259.259 2111.8,259.259 2112.68,259.259 2113.57,259.259 2114.46,259.259 2115.34,259.259 2116.23,259.259 2117.11,259.259 2118,259.259 2118.89,259.259 2119.77,259.259 2120.66,259.259 2121.54,259.259 2122.43,259.259 2123.31,259.259 2124.2,259.259 2125.09,259.259 2125.97,259.259 2126.86,259.259 2127.74,259.259 2128.63,259.259 2129.52,259.259 2130.4,259.259 2131.29,259.259 2132.17,259.259 2133.06,259.259 2133.95,259.259 2134.83,259.259 2135.72,259.259 2136.6,259.259 2137.49,259.259 2138.37,259.259 2139.26,259.259 2140.15,259.259 2141.03,259.259 2141.92,259.259 2142.8,259.259 2143.69,259.259 2144.58,259.259 2145.46,259.259 2146.35,259.259 2147.23,259.259 2148.12,259.259 2149.01,259.259 2149.89,259.259 2150.78,259.259 2151.66,259.259 2152.55,259.259 2153.43,259.259 2154.32,259.259 2155.21,259.259 2156.09,259.259 2156.98,259.259 2157.86,259.259 2158.75,259.259 2159.64,259.259 2160.52,259.259 2161.41,259.259 2162.29,259.259 2163.18,259.259 2164.06,259.259 2164.95,259.259 2165.84,259.259 2166.72,259.259 2167.61,259.259 2168.49,259.259 2169.38,259.259 2170.27,259.259 2171.15,259.259 2172.04,259.259 2172.92,259.259 2173.81,259.259 2174.7,259.259 2175.58,259.259 2176.47,259.259 2177.35,259.259 2178.24,259.259 2179.12,259.259 2180.01,259.259 2180.9,259.259 2181.78,259.259 2182.67,259.259 2183.55,259.259 2184.44,259.259 2185.33,259.259 2186.21,259.259 2187.1,259.259 2187.98,259.259 2188.87,259.259 2189.76,259.259 2190.64,259.259 2191.53,259.259 2192.41,259.259 2193.3,259.259 2194.18,259.259 2195.07,259.259 2195.96,259.259 2196.84,259.259 2197.73,259.259 2198.61,259.259 2199.5,259.259 2200.39,259.259 2201.27,259.259 2202.16,259.259 2203.04,259.259 2203.93,259.259 2204.82,259.259 2205.7,259.259 2206.59,259.259 2207.47,259.259 2208.36,259.259 2209.24,259.259 2210.13,259.259 2211.02,259.259 2211.9,259.259 2212.79,259.259 2213.67,259.259 2214.56,259.259 2215.45,259.259 2216.33,259.259 2217.22,259.259 2218.1,259.259 2218.99,259.259 2219.87,259.259 2220.76,259.259 2221.65,259.259 2222.53,259.259 2223.42,259.259 2224.3,259.259 2225.19,259.259 2226.08,259.259 2226.96,259.259 2227.85,259.259 2228.73,259.259 2229.62,259.259 2230.51,259.259 2231.39,259.259 2232.28,259.259 2233.16,259.259 2234.05,259.259 2234.93,259.259 2235.82,259.259 2236.71,259.259 2237.59,259.259 2238.48,259.259 2239.36,259.259 2240.25,259.259 2241.14,259.259 2242.02,259.259 2242.91,259.259 2243.79,259.259 2244.68,259.259 2245.57,259.259 2246.45,259.259 2247.34,259.259 2248.22,259.259 2249.11,259.259 2249.99,259.259 2250.88,259.259 2251.77,259.259 2252.65,259.259 2253.54,259.259 2254.42,259.259 2255.31,259.259 2256.2,259.259 2257.08,259.259 2257.97,259.259 2258.85,259.259 2259.74,259.259 2260.63,259.259 2261.51,259.259 2262.4,259.259 2263.28,259.259 2264.17,259.259 2265.05,259.259 2265.94,259.259 2266.83,259.259 2267.71,259.259 2268.6,259.259 2269.48,259.259 2270.37,259.259 2271.26,259.259 2272.14,259.259 2273.03,259.259 2273.91,259.259 2274.8,259.259 2275.68,259.259 2276.57,259.259 2277.46,259.259 2278.34,259.259 2279.23,259.259 2280.11,259.259 2281,259.259 2281.89,259.259 2282.77,259.259 2283.66,259.259 2284.54,259.259 2285.43,259.259 2286.32,259.259 2287.2,259.259 2288.09,259.259 2288.97,259.259 2289.86,259.259 2290.74,259.259 2291.63,259.259 2292.52,259.259 2293.4,259.259 2294.29,259.259 2295.17,259.259 2296.06,259.259 2296.95,259.259 2297.83,259.259 2298.72,259.259 2299.6,259.259 2300.49,259.259 2301.38,259.259 2302.26,259.259 2303.15,259.259 2304.03,259.259 2304.92,259.259 2305.8,172.723 2306.69,172.723 2307.58,172.723 2308.46,172.723 2309.35,172.723 2310.23,172.723 2311.12,172.723 2312.01,172.723 2312.89,172.723 2313.78,172.723 2314.66,172.723 2315.55,172.723 2316.44,172.723 2317.32,172.723 2318.21,86.1857 2319.09,86.1857 2319.98,86.1857 2320.86,86.1857 2321.75,86.1857 2322.64,86.1857 2323.52,86.1857 2324.41,86.1857 2325.29,86.1857 2326.18,86.1857 2327.07,86.1857 2327.95,86.1857 2328.84,86.1857 2329.72,86.1857 2330.61,86.1857 2331.49,86.1857 2332.38,86.1857 2333.27,86.1857 2334.15,86.1857 2335.04,86.1857 2335.92,86.1857 2336.81,86.1857 2337.7,86.1857 2338.58,86.1857 2339.47,86.1857 2340.35,86.1857 2341.24,86.1857 2342.13,86.1857 2343.01,86.1857 2343.9,86.1857 2344.78,86.1857 2345.67,86.1857 2346.55,86.1857 2347.44,86.1857 2348.33,86.1857 2349.21,86.1857 2350.1,86.1857 2350.98,86.1857 2351.87,86.1857 2352.76,86.1857 "/>
<path clip-path="url(#clip380)" d="M212.753 248.629 L570.312 248.629 L570.312 93.1086 L212.753 93.1086  Z" fill="#ffffff" fill-rule="evenodd" fill-opacity="1"/>
<polyline clip-path="url(#clip380)" style="stroke:#000000; stroke-linecap:round; stroke-linejoin:round; stroke-width:4; stroke-opacity:1; fill:none" points="212.753,248.629 570.312,248.629 570.312,93.1086 212.753,93.1086 212.753,248.629 "/>
<polyline clip-path="url(#clip380)" style="stroke:#009af9; stroke-linecap:round; stroke-linejoin:round; stroke-width:8; stroke-opacity:1; fill:none" points="237.35,144.949 384.937,144.949 "/>
<path clip-path="url(#clip380)" d="M409.535 127.669 L415.831 127.669 L431.155 156.581 L431.155 127.669 L435.692 127.669 L435.692 162.229 L429.396 162.229 L414.072 133.317 L414.072 162.229 L409.535 162.229 L409.535 127.669 Z" fill="#000000" fill-rule="nonzero" fill-opacity="1" /><path clip-path="url(#clip380)" d="M464.511 170.099 L464.511 173.409 L439.882 173.409 L439.882 170.099 L464.511 170.099 Z" fill="#000000" fill-rule="nonzero" fill-opacity="1" /><path clip-path="url(#clip380)" d="M469.928 158.293 L477.567 158.293 L477.567 131.928 L469.256 133.595 L469.256 129.335 L477.52 127.669 L482.196 127.669 L482.196 158.293 L489.835 158.293 L489.835 162.229 L469.928 162.229 L469.928 158.293 Z" fill="#000000" fill-rule="nonzero" fill-opacity="1" /><path clip-path="url(#clip380)" d="M508.909 126.257 Q505.807 131.581 504.303 136.789 Q502.798 141.997 502.798 147.344 Q502.798 152.692 504.303 157.946 Q505.83 163.178 508.909 168.479 L505.205 168.479 Q501.733 163.039 499.997 157.784 Q498.284 152.53 498.284 147.344 Q498.284 142.182 499.997 136.951 Q501.71 131.72 505.205 126.257 L508.909 126.257 Z" fill="#000000" fill-rule="nonzero" fill-opacity="1" /><path clip-path="url(#clip380)" d="M521.386 128.942 L521.386 136.303 L530.159 136.303 L530.159 139.613 L521.386 139.613 L521.386 153.687 Q521.386 156.858 522.242 157.761 Q523.122 158.664 525.784 158.664 L530.159 158.664 L530.159 162.229 L525.784 162.229 Q520.853 162.229 518.978 160.4 Q517.103 158.548 517.103 153.687 L517.103 139.613 L513.978 139.613 L513.978 136.303 L517.103 136.303 L517.103 128.942 L521.386 128.942 Z" fill="#000000" fill-rule="nonzero" fill-opacity="1" /><path clip-path="url(#clip380)" d="M535.089 126.257 L538.793 126.257 Q542.265 131.72 543.978 136.951 Q545.714 142.182 545.714 147.344 Q545.714 152.53 543.978 157.784 Q542.265 163.039 538.793 168.479 L535.089 168.479 Q538.168 163.178 539.673 157.946 Q541.201 152.692 541.201 147.344 Q541.201 141.997 539.673 136.789 Q538.168 131.581 535.089 126.257 Z" fill="#000000" fill-rule="nonzero" fill-opacity="1" /><polyline clip-path="url(#clip380)" style="stroke:#e26f46; stroke-linecap:round; stroke-linejoin:round; stroke-width:8; stroke-opacity:1; fill:none" points="237.35,196.789 384.937,196.789 "/>
<path clip-path="url(#clip380)" d="M409.535 179.509 L415.831 179.509 L431.155 208.421 L431.155 179.509 L435.692 179.509 L435.692 214.069 L429.396 214.069 L414.072 185.157 L414.072 214.069 L409.535 214.069 L409.535 179.509 Z" fill="#000000" fill-rule="nonzero" fill-opacity="1" /><path clip-path="url(#clip380)" d="M464.511 221.939 L464.511 225.249 L439.882 225.249 L439.882 221.939 L464.511 221.939 Z" fill="#000000" fill-rule="nonzero" fill-opacity="1" /><path clip-path="url(#clip380)" d="M473.145 210.133 L489.465 210.133 L489.465 214.069 L467.52 214.069 L467.52 210.133 Q470.182 207.379 474.766 202.749 Q479.372 198.096 480.553 196.754 Q482.798 194.231 483.678 192.495 Q484.58 190.735 484.58 189.046 Q484.58 186.291 482.636 184.555 Q480.715 182.819 477.613 182.819 Q475.414 182.819 472.96 183.583 Q470.53 184.347 467.752 185.897 L467.752 181.175 Q470.576 180.041 473.03 179.462 Q475.483 178.884 477.52 178.884 Q482.891 178.884 486.085 181.569 Q489.28 184.254 489.28 188.745 Q489.28 190.874 488.469 192.796 Q487.682 194.694 485.576 197.286 Q484.997 197.958 481.895 201.175 Q478.793 204.37 473.145 210.133 Z" fill="#000000" fill-rule="nonzero" fill-opacity="1" /><path clip-path="url(#clip380)" d="M508.909 178.097 Q505.807 183.421 504.303 188.629 Q502.798 193.837 502.798 199.184 Q502.798 204.532 504.303 209.786 Q505.83 215.018 508.909 220.319 L505.205 220.319 Q501.733 214.879 499.997 209.624 Q498.284 204.37 498.284 199.184 Q498.284 194.022 499.997 188.791 Q501.71 183.56 505.205 178.097 L508.909 178.097 Z" fill="#000000" fill-rule="nonzero" fill-opacity="1" /><path clip-path="url(#clip380)" d="M521.386 180.782 L521.386 188.143 L530.159 188.143 L530.159 191.453 L521.386 191.453 L521.386 205.527 Q521.386 208.698 522.242 209.601 Q523.122 210.504 525.784 210.504 L530.159 210.504 L530.159 214.069 L525.784 214.069 Q520.853 214.069 518.978 212.24 Q517.103 210.388 517.103 205.527 L517.103 191.453 L513.978 191.453 L513.978 188.143 L517.103 188.143 L517.103 180.782 L521.386 180.782 Z" fill="#000000" fill-rule="nonzero" fill-opacity="1" /><path clip-path="url(#clip380)" d="M535.089 178.097 L538.793 178.097 Q542.265 183.56 543.978 188.791 Q545.714 194.022 545.714 199.184 Q545.714 204.37 543.978 209.624 Q542.265 214.879 538.793 220.319 L535.089 220.319 Q538.168 215.018 539.673 209.786 Q541.201 204.532 541.201 199.184 Q541.201 193.837 539.673 188.629 Q538.168 183.421 535.089 178.097 Z" fill="#000000" fill-rule="nonzero" fill-opacity="1" /></svg>
