<?xml version="1.0" encoding="utf-8"?>
<svg xmlns="http://www.w3.org/2000/svg" xmlns:xlink="http://www.w3.org/1999/xlink" width="600" height="400" viewBox="0 0 2400 1600">
<defs>
  <clipPath id="clip250">
    <rect x="0" y="0" width="2400" height="1600"/>
  </clipPath>
</defs>
<path clip-path="url(#clip250)" d="M0 1600 L2400 1600 L2400 0 L0 0  Z" fill="#ffffff" fill-rule="evenodd" fill-opacity="1"/>
<defs>
  <clipPath id="clip251">
    <rect x="140" y="47" width="2213" height="1377"/>
  </clipPath>
</defs>
<path clip-path="url(#clip250)" d="M140.696 1423.18 L2352.76 1423.18 L2352.76 47.2441 L140.696 47.2441  Z" fill="#ffffff" fill-rule="evenodd" fill-opacity="1"/>
<polyline clip-path="url(#clip251)" style="stroke:#000000; stroke-linecap:round; stroke-linejoin:round; stroke-width:2; stroke-opacity:0.1; fill:none" points="140.696,1423.18 140.696,47.2441 "/>
<polyline clip-path="url(#clip251)" style="stroke:#000000; stroke-linecap:round; stroke-linejoin:round; stroke-width:2; stroke-opacity:0.1; fill:none" points="583.108,1423.18 583.108,47.2441 "/>
<polyline clip-path="url(#clip251)" style="stroke:#000000; stroke-linecap:round; stroke-linejoin:round; stroke-width:2; stroke-opacity:0.1; fill:none" points="1025.52,1423.18 1025.52,47.2441 "/>
<polyline clip-path="url(#clip251)" style="stroke:#000000; stroke-linecap:round; stroke-linejoin:round; stroke-width:2; stroke-opacity:0.1; fill:none" points="1467.93,1423.18 1467.93,47.2441 "/>
<polyline clip-path="url(#clip251)" style="stroke:#000000; stroke-linecap:round; stroke-linejoin:round; stroke-width:2; stroke-opacity:0.1; fill:none" points="1910.34,1423.18 1910.34,47.2441 "/>
<polyline clip-path="url(#clip251)" style="stroke:#000000; stroke-linecap:round; stroke-linejoin:round; stroke-width:2; stroke-opacity:0.1; fill:none" points="2352.76,1423.18 2352.76,47.2441 "/>
<polyline clip-path="url(#clip251)" style="stroke:#000000; stroke-linecap:round; stroke-linejoin:round; stroke-width:2; stroke-opacity:0.1; fill:none" points="140.696,1384.24 2352.76,1384.24 "/>
<polyline clip-path="url(#clip251)" style="stroke:#000000; stroke-linecap:round; stroke-linejoin:round; stroke-width:2; stroke-opacity:0.1; fill:none" points="140.696,1160.44 2352.76,1160.44 "/>
<polyline clip-path="url(#clip251)" style="stroke:#000000; stroke-linecap:round; stroke-linejoin:round; stroke-width:2; stroke-opacity:0.1; fill:none" points="140.696,936.634 2352.76,936.634 "/>
<polyline clip-path="url(#clip251)" style="stroke:#000000; stroke-linecap:round; stroke-linejoin:round; stroke-width:2; stroke-opacity:0.1; fill:none" points="140.696,712.832 2352.76,712.832 "/>
<polyline clip-path="url(#clip251)" style="stroke:#000000; stroke-linecap:round; stroke-linejoin:round; stroke-width:2; stroke-opacity:0.1; fill:none" points="140.696,489.03 2352.76,489.03 "/>
<polyline clip-path="url(#clip251)" style="stroke:#000000; stroke-linecap:round; stroke-linejoin:round; stroke-width:2; stroke-opacity:0.1; fill:none" points="140.696,265.227 2352.76,265.227 "/>
<polyline clip-path="url(#clip250)" style="stroke:#000000; stroke-linecap:round; stroke-linejoin:round; stroke-width:4; stroke-opacity:1; fill:none" points="140.696,1423.18 2352.76,1423.18 "/>
<polyline clip-path="url(#clip250)" style="stroke:#000000; stroke-linecap:round; stroke-linejoin:round; stroke-width:4; stroke-opacity:1; fill:none" points="140.696,1423.18 140.696,1404.28 "/>
<polyline clip-path="url(#clip250)" style="stroke:#000000; stroke-linecap:round; stroke-linejoin:round; stroke-width:4; stroke-opacity:1; fill:none" points="583.108,1423.18 583.108,1404.28 "/>
<polyline clip-path="url(#clip250)" style="stroke:#000000; stroke-linecap:round; stroke-linejoin:round; stroke-width:4; stroke-opacity:1; fill:none" points="1025.52,1423.18 1025.52,1404.28 "/>
<polyline clip-path="url(#clip250)" style="stroke:#000000; stroke-linecap:round; stroke-linejoin:round; stroke-width:4; stroke-opacity:1; fill:none" points="1467.93,1423.18 1467.93,1404.28 "/>
<polyline clip-path="url(#clip250)" style="stroke:#000000; stroke-linecap:round; stroke-linejoin:round; stroke-width:4; stroke-opacity:1; fill:none" points="1910.34,1423.18 1910.34,1404.28 "/>
<polyline clip-path="url(#clip250)" style="stroke:#000000; stroke-linecap:round; stroke-linejoin:round; stroke-width:4; stroke-opacity:1; fill:none" points="2352.76,1423.18 2352.76,1404.28 "/>
<path clip-path="url(#clip250)" d="M140.696 1454.1 Q137.084 1454.1 135.256 1457.66 Q133.45 1461.2 133.45 1468.33 Q133.45 1475.44 135.256 1479.01 Q137.084 1482.55 140.696 1482.55 Q144.33 1482.55 146.135 1479.01 Q147.964 1475.44 147.964 1468.33 Q147.964 1461.2 146.135 1457.66 Q144.33 1454.1 140.696 1454.1 M140.696 1450.39 Q146.506 1450.39 149.561 1455 Q152.64 1459.58 152.64 1468.33 Q152.64 1477.06 149.561 1481.67 Q146.506 1486.25 140.696 1486.25 Q134.885 1486.25 131.807 1481.67 Q128.751 1477.06 128.751 1468.33 Q128.751 1459.58 131.807 1455 Q134.885 1450.39 140.696 1450.39 Z" fill="#000000" fill-rule="nonzero" fill-opacity="1" /><path clip-path="url(#clip250)" d="M577.76 1481.64 L594.08 1481.64 L594.08 1485.58 L572.135 1485.58 L572.135 1481.64 Q574.797 1478.89 579.381 1474.26 Q583.987 1469.61 585.168 1468.27 Q587.413 1465.74 588.293 1464.01 Q589.196 1462.25 589.196 1460.56 Q589.196 1457.8 587.251 1456.07 Q585.33 1454.33 582.228 1454.33 Q580.029 1454.33 577.575 1455.09 Q575.145 1455.86 572.367 1457.41 L572.367 1452.69 Q575.191 1451.55 577.645 1450.97 Q580.098 1450.39 582.135 1450.39 Q587.506 1450.39 590.7 1453.08 Q593.895 1455.77 593.895 1460.26 Q593.895 1462.39 593.084 1464.31 Q592.297 1466.2 590.191 1468.8 Q589.612 1469.47 586.51 1472.69 Q583.409 1475.88 577.76 1481.64 Z" fill="#000000" fill-rule="nonzero" fill-opacity="1" /><path clip-path="url(#clip250)" d="M1028.53 1455.09 L1016.72 1473.54 L1028.53 1473.54 L1028.53 1455.09 M1027.3 1451.02 L1033.18 1451.02 L1033.18 1473.54 L1038.11 1473.54 L1038.11 1477.43 L1033.18 1477.43 L1033.18 1485.58 L1028.53 1485.58 L1028.53 1477.43 L1012.93 1477.43 L1012.93 1472.92 L1027.3 1451.02 Z" fill="#000000" fill-rule="nonzero" fill-opacity="1" /><path clip-path="url(#clip250)" d="M1468.34 1466.44 Q1465.19 1466.44 1463.34 1468.59 Q1461.51 1470.74 1461.51 1474.49 Q1461.51 1478.22 1463.34 1480.39 Q1465.19 1482.55 1468.34 1482.55 Q1471.48 1482.55 1473.31 1480.39 Q1475.17 1478.22 1475.17 1474.49 Q1475.17 1470.74 1473.31 1468.59 Q1471.48 1466.44 1468.34 1466.44 M1477.62 1451.78 L1477.62 1456.04 Q1475.86 1455.21 1474.05 1454.77 Q1472.27 1454.33 1470.51 1454.33 Q1465.88 1454.33 1463.43 1457.45 Q1461 1460.58 1460.65 1466.9 Q1462.02 1464.89 1464.08 1463.82 Q1466.14 1462.73 1468.61 1462.73 Q1473.82 1462.73 1476.83 1465.9 Q1479.86 1469.05 1479.86 1474.49 Q1479.86 1479.82 1476.72 1483.03 Q1473.57 1486.25 1468.34 1486.25 Q1462.34 1486.25 1459.17 1481.67 Q1456 1477.06 1456 1468.33 Q1456 1460.14 1459.89 1455.28 Q1463.78 1450.39 1470.33 1450.39 Q1472.09 1450.39 1473.87 1450.74 Q1475.67 1451.09 1477.62 1451.78 Z" fill="#000000" fill-rule="nonzero" fill-opacity="1" /><path clip-path="url(#clip250)" d="M1910.34 1469.17 Q1907.01 1469.17 1905.09 1470.95 Q1903.19 1472.73 1903.19 1475.86 Q1903.19 1478.98 1905.09 1480.77 Q1907.01 1482.55 1910.34 1482.55 Q1913.68 1482.55 1915.6 1480.77 Q1917.52 1478.96 1917.52 1475.86 Q1917.52 1472.73 1915.6 1470.95 Q1913.7 1469.17 1910.34 1469.17 M1905.67 1467.18 Q1902.66 1466.44 1900.97 1464.38 Q1899.3 1462.32 1899.3 1459.35 Q1899.3 1455.21 1902.24 1452.8 Q1905.2 1450.39 1910.34 1450.39 Q1915.51 1450.39 1918.45 1452.8 Q1921.39 1455.21 1921.39 1459.35 Q1921.39 1462.32 1919.7 1464.38 Q1918.03 1466.44 1915.04 1467.18 Q1918.42 1467.96 1920.3 1470.26 Q1922.2 1472.55 1922.2 1475.86 Q1922.2 1480.88 1919.12 1483.57 Q1916.06 1486.25 1910.34 1486.25 Q1904.63 1486.25 1901.55 1483.57 Q1898.49 1480.88 1898.49 1475.86 Q1898.49 1472.55 1900.39 1470.26 Q1902.29 1467.96 1905.67 1467.18 M1903.95 1459.79 Q1903.95 1462.48 1905.62 1463.98 Q1907.31 1465.49 1910.34 1465.49 Q1913.35 1465.49 1915.04 1463.98 Q1916.76 1462.48 1916.76 1459.79 Q1916.76 1457.11 1915.04 1455.6 Q1913.35 1454.1 1910.34 1454.1 Q1907.31 1454.1 1905.62 1455.6 Q1903.95 1457.11 1903.95 1459.79 Z" fill="#000000" fill-rule="nonzero" fill-opacity="1" /><path clip-path="url(#clip250)" d="M2327.44 1481.64 L2335.08 1481.64 L2335.08 1455.28 L2326.77 1456.95 L2326.77 1452.69 L2335.04 1451.02 L2339.71 1451.02 L2339.71 1481.64 L2347.35 1481.64 L2347.35 1485.58 L2327.44 1485.58 L2327.44 1481.64 Z" fill="#000000" fill-rule="nonzero" fill-opacity="1" /><path clip-path="url(#clip250)" d="M2366.8 1454.1 Q2363.18 1454.1 2361.36 1457.66 Q2359.55 1461.2 2359.55 1468.33 Q2359.55 1475.44 2361.36 1479.01 Q2363.18 1482.55 2366.8 1482.55 Q2370.43 1482.55 2372.23 1479.01 Q2374.06 1475.44 2374.06 1468.33 Q2374.06 1461.2 2372.23 1457.66 Q2370.43 1454.1 2366.8 1454.1 M2366.8 1450.39 Q2372.61 1450.39 2375.66 1455 Q2378.74 1459.58 2378.74 1468.33 Q2378.74 1477.06 2375.66 1481.67 Q2372.61 1486.25 2366.8 1486.25 Q2360.99 1486.25 2357.91 1481.67 Q2354.85 1477.06 2354.85 1468.33 Q2354.85 1459.58 2357.91 1455 Q2360.99 1450.39 2366.8 1450.39 Z" fill="#000000" fill-rule="nonzero" fill-opacity="1" /><path clip-path="url(#clip250)" d="M1245.79 1522.27 L1245.79 1532.4 L1257.85 1532.4 L1257.85 1536.95 L1245.79 1536.95 L1245.79 1556.3 Q1245.79 1560.66 1246.96 1561.9 Q1248.17 1563.14 1251.83 1563.14 L1257.85 1563.14 L1257.85 1568.04 L1251.83 1568.04 Q1245.05 1568.04 1242.48 1565.53 Q1239.9 1562.98 1239.9 1556.3 L1239.9 1536.95 L1235.6 1536.95 L1235.6 1532.4 L1239.9 1532.4 L1239.9 1522.27 L1245.79 1522.27 Z" fill="#000000" fill-rule="nonzero" fill-opacity="1" /><polyline clip-path="url(#clip250)" style="stroke:#000000; stroke-linecap:round; stroke-linejoin:round; stroke-width:4; stroke-opacity:1; fill:none" points="140.696,1423.18 140.696,47.2441 "/>
<polyline clip-path="url(#clip250)" style="stroke:#000000; stroke-linecap:round; stroke-linejoin:round; stroke-width:4; stroke-opacity:1; fill:none" points="140.696,1384.24 159.593,1384.24 "/>
<polyline clip-path="url(#clip250)" style="stroke:#000000; stroke-linecap:round; stroke-linejoin:round; stroke-width:4; stroke-opacity:1; fill:none" points="140.696,1160.44 159.593,1160.44 "/>
<polyline clip-path="url(#clip250)" style="stroke:#000000; stroke-linecap:round; stroke-linejoin:round; stroke-width:4; stroke-opacity:1; fill:none" points="140.696,936.634 159.593,936.634 "/>
<polyline clip-path="url(#clip250)" style="stroke:#000000; stroke-linecap:round; stroke-linejoin:round; stroke-width:4; stroke-opacity:1; fill:none" points="140.696,712.832 159.593,712.832 "/>
<polyline clip-path="url(#clip250)" style="stroke:#000000; stroke-linecap:round; stroke-linejoin:round; stroke-width:4; stroke-opacity:1; fill:none" points="140.696,489.03 159.593,489.03 "/>
<polyline clip-path="url(#clip250)" style="stroke:#000000; stroke-linecap:round; stroke-linejoin:round; stroke-width:4; stroke-opacity:1; fill:none" points="140.696,265.227 159.593,265.227 "/>
<path clip-path="url(#clip250)" d="M92.7512 1370.04 Q89.1401 1370.04 87.3114 1373.6 Q85.5058 1377.14 85.5058 1384.27 Q85.5058 1391.38 87.3114 1394.94 Q89.1401 1398.49 92.7512 1398.49 Q96.3854 1398.49 98.1909 1394.94 Q100.02 1391.38 100.02 1384.27 Q100.02 1377.14 98.1909 1373.6 Q96.3854 1370.04 92.7512 1370.04 M92.7512 1366.33 Q98.5613 1366.33 101.617 1370.94 Q104.696 1375.52 104.696 1384.27 Q104.696 1393 101.617 1397.61 Q98.5613 1402.19 92.7512 1402.19 Q86.941 1402.19 83.8623 1397.61 Q80.8068 1393 80.8068 1384.27 Q80.8068 1375.52 83.8623 1370.94 Q86.941 1366.33 92.7512 1366.33 Z" fill="#000000" fill-rule="nonzero" fill-opacity="1" /><path clip-path="url(#clip250)" d="M83.7929 1143.16 L102.149 1143.16 L102.149 1147.09 L88.0753 1147.09 L88.0753 1155.56 Q89.0938 1155.22 90.1123 1155.05 Q91.1308 1154.87 92.1493 1154.87 Q97.9363 1154.87 101.316 1158.04 Q104.696 1161.21 104.696 1166.63 Q104.696 1172.21 101.223 1175.31 Q97.7511 1178.39 91.4317 1178.39 Q89.2558 1178.39 86.9873 1178.02 Q84.7419 1177.65 82.3346 1176.91 L82.3346 1172.21 Q84.4179 1173.34 86.6401 1173.9 Q88.8623 1174.45 91.3391 1174.45 Q95.3437 1174.45 97.6817 1172.35 Q100.02 1170.24 100.02 1166.63 Q100.02 1163.02 97.6817 1160.91 Q95.3437 1158.8 91.3391 1158.8 Q89.4641 1158.8 87.5892 1159.22 Q85.7373 1159.64 83.7929 1160.52 L83.7929 1143.16 Z" fill="#000000" fill-rule="nonzero" fill-opacity="1" /><path clip-path="url(#clip250)" d="M53.3995 949.979 L61.0384 949.979 L61.0384 923.613 L52.7282 925.28 L52.7282 921.021 L60.9921 919.354 L65.668 919.354 L65.668 949.979 L73.3068 949.979 L73.3068 953.914 L53.3995 953.914 L53.3995 949.979 Z" fill="#000000" fill-rule="nonzero" fill-opacity="1" /><path clip-path="url(#clip250)" d="M92.7512 922.433 Q89.1401 922.433 87.3114 925.997 Q85.5058 929.539 85.5058 936.669 Q85.5058 943.775 87.3114 947.34 Q89.1401 950.882 92.7512 950.882 Q96.3854 950.882 98.1909 947.34 Q100.02 943.775 100.02 936.669 Q100.02 929.539 98.1909 925.997 Q96.3854 922.433 92.7512 922.433 M92.7512 918.729 Q98.5613 918.729 101.617 923.335 Q104.696 927.919 104.696 936.669 Q104.696 945.395 101.617 950.002 Q98.5613 954.585 92.7512 954.585 Q86.941 954.585 83.8623 950.002 Q80.8068 945.395 80.8068 936.669 Q80.8068 927.919 83.8623 923.335 Q86.941 918.729 92.7512 918.729 Z" fill="#000000" fill-rule="nonzero" fill-opacity="1" /><path clip-path="url(#clip250)" d="M54.3949 726.177 L62.0337 726.177 L62.0337 699.811 L53.7236 701.478 L53.7236 697.218 L61.9874 695.552 L66.6633 695.552 L66.6633 726.177 L74.3022 726.177 L74.3022 730.112 L54.3949 730.112 L54.3949 726.177 Z" fill="#000000" fill-rule="nonzero" fill-opacity="1" /><path clip-path="url(#clip250)" d="M83.7929 695.552 L102.149 695.552 L102.149 699.487 L88.0753 699.487 L88.0753 707.959 Q89.0938 707.612 90.1123 707.45 Q91.1308 707.265 92.1493 707.265 Q97.9363 707.265 101.316 710.436 Q104.696 713.607 104.696 719.024 Q104.696 724.603 101.223 727.704 Q97.7511 730.783 91.4317 730.783 Q89.2558 730.783 86.9873 730.413 Q84.7419 730.042 82.3346 729.302 L82.3346 724.603 Q84.4179 725.737 86.6401 726.292 Q88.8623 726.848 91.3391 726.848 Q95.3437 726.848 97.6817 724.741 Q100.02 722.635 100.02 719.024 Q100.02 715.413 97.6817 713.306 Q95.3437 711.2 91.3391 711.2 Q89.4641 711.2 87.5892 711.616 Q85.7373 712.033 83.7929 712.913 L83.7929 695.552 Z" fill="#000000" fill-rule="nonzero" fill-opacity="1" /><path clip-path="url(#clip250)" d="M56.6171 502.374 L72.9365 502.374 L72.9365 506.31 L50.9921 506.31 L50.9921 502.374 Q53.6541 499.62 58.2375 494.99 Q62.8439 490.337 64.0245 488.995 Q66.2698 486.472 67.1494 484.736 Q68.0522 482.976 68.0522 481.287 Q68.0522 478.532 66.1078 476.796 Q64.1865 475.06 61.0847 475.06 Q58.8856 475.06 56.4319 475.824 Q54.0014 476.588 51.2236 478.138 L51.2236 473.416 Q54.0477 472.282 56.5014 471.703 Q58.955 471.125 60.9921 471.125 Q66.3624 471.125 69.5568 473.81 Q72.7513 476.495 72.7513 480.986 Q72.7513 483.115 71.9411 485.037 Q71.1541 486.935 69.0476 489.527 Q68.4689 490.199 65.367 493.416 Q62.2652 496.611 56.6171 502.374 Z" fill="#000000" fill-rule="nonzero" fill-opacity="1" /><path clip-path="url(#clip250)" d="M92.7512 474.828 Q89.1401 474.828 87.3114 478.393 Q85.5058 481.935 85.5058 489.064 Q85.5058 496.171 87.3114 499.736 Q89.1401 503.277 92.7512 503.277 Q96.3854 503.277 98.1909 499.736 Q100.02 496.171 100.02 489.064 Q100.02 481.935 98.1909 478.393 Q96.3854 474.828 92.7512 474.828 M92.7512 471.125 Q98.5613 471.125 101.617 475.731 Q104.696 480.314 104.696 489.064 Q104.696 497.791 101.617 502.398 Q98.5613 506.981 92.7512 506.981 Q86.941 506.981 83.8623 502.398 Q80.8068 497.791 80.8068 489.064 Q80.8068 480.314 83.8623 475.731 Q86.941 471.125 92.7512 471.125 Z" fill="#000000" fill-rule="nonzero" fill-opacity="1" /><path clip-path="url(#clip250)" d="M57.6125 278.572 L73.9318 278.572 L73.9318 282.507 L51.9875 282.507 L51.9875 278.572 Q54.6495 275.818 59.2328 271.188 Q63.8393 266.535 65.0198 265.193 Q67.2652 262.67 68.1448 260.933 Q69.0476 259.174 69.0476 257.484 Q69.0476 254.73 67.1032 252.994 Q65.1819 251.258 62.08 251.258 Q59.881 251.258 57.4273 252.021 Q54.9967 252.785 52.219 254.336 L52.219 249.614 Q55.043 248.48 57.4967 247.901 Q59.9504 247.322 61.9874 247.322 Q67.3578 247.322 70.5522 250.008 Q73.7466 252.693 73.7466 257.183 Q73.7466 259.313 72.9365 261.234 Q72.1494 263.133 70.0429 265.725 Q69.4642 266.396 66.3624 269.614 Q63.2606 272.808 57.6125 278.572 Z" fill="#000000" fill-rule="nonzero" fill-opacity="1" /><path clip-path="url(#clip250)" d="M83.7929 247.947 L102.149 247.947 L102.149 251.883 L88.0753 251.883 L88.0753 260.355 Q89.0938 260.008 90.1123 259.845 Q91.1308 259.66 92.1493 259.66 Q97.9363 259.66 101.316 262.832 Q104.696 266.003 104.696 271.42 Q104.696 276.998 101.223 280.1 Q97.7511 283.179 91.4317 283.179 Q89.2558 283.179 86.9873 282.808 Q84.7419 282.438 82.3346 281.697 L82.3346 276.998 Q84.4179 278.132 86.6401 278.688 Q88.8623 279.244 91.3391 279.244 Q95.3437 279.244 97.6817 277.137 Q100.02 275.031 100.02 271.42 Q100.02 267.808 97.6817 265.702 Q95.3437 263.595 91.3391 263.595 Q89.4641 263.595 87.5892 264.012 Q85.7373 264.429 83.7929 265.308 L83.7929 247.947 Z" fill="#000000" fill-rule="nonzero" fill-opacity="1" /><polyline clip-path="url(#clip251)" style="stroke:#009af9; stroke-linecap:round; stroke-linejoin:round; stroke-width:8; stroke-opacity:1; fill:none" points="140.696,1384.24 141.409,1384.24 142.123,1384.24 142.837,1384.24 143.551,1384.24 144.265,1384.24 144.978,1384.24 145.692,1384.24 146.406,1384.24 147.12,1384.24 147.834,1384.24 148.547,1384.24 149.261,1384.24 149.975,1384.24 150.689,1384.24 151.403,1384.24 152.116,1384.24 152.83,1384.24 153.544,1384.24 154.258,1384.24 154.972,1384.24 155.685,1384.24 156.399,1384.24 157.113,1384.24 157.827,1384.24 158.54,1384.24 159.254,1384.24 159.968,1384.24 160.682,1384.24 161.396,1384.24 162.109,1384.24 162.823,1384.24 163.537,1384.24 164.251,1384.24 164.965,1384.24 165.678,1384.24 166.392,1384.24 167.106,1384.24 167.82,1384.24 168.534,1384.24 169.247,1384.24 169.961,1384.24 170.675,1384.24 171.389,1384.24 172.103,1384.24 172.816,1384.24 173.53,1384.24 174.244,1384.24 174.958,1384.24 175.672,1384.24 176.385,1384.24 177.099,1384.24 177.813,1384.24 178.527,1384.24 179.241,1384.24 179.954,1384.24 180.668,1384.24 181.382,1384.24 182.096,1384.24 182.81,1384.24 183.523,1384.24 184.237,1384.24 184.951,1384.24 185.665,1384.24 186.379,1384.24 187.092,1384.24 187.806,1384.24 188.52,1384.24 189.234,1384.24 189.948,1384.24 190.661,1384.24 191.375,1384.24 192.089,1384.24 192.803,1384.24 193.517,1384.24 194.23,1384.24 194.944,1384.24 195.658,1384.24 196.372,1384.24 197.086,1384.24 197.799,1384.24 198.513,1384.24 199.227,1384.24 199.941,1384.24 200.655,1384.24 201.368,1384.24 202.082,1384.24 202.796,1384.24 203.51,1384.24 204.224,1384.24 204.937,1384.24 205.651,1384.24 206.365,1384.24 207.079,1384.24 207.793,1384.24 208.506,1384.24 209.22,1384.24 209.934,1384.24 210.648,1384.24 211.362,1384.24 212.075,1384.24 212.789,1384.24 213.503,1384.24 214.217,1384.24 214.931,1384.24 215.644,1384.24 216.358,1384.24 217.072,1384.24 217.786,1384.24 218.5,1384.24 219.213,1384.24 219.927,1384.24 220.641,1384.24 221.355,1384.24 222.069,1384.24 222.782,1384.24 223.496,1384.24 224.21,1384.24 224.924,1384.24 225.638,1384.24 226.351,1384.24 227.065,1384.24 227.779,1384.24 228.493,1384.24 229.207,1384.24 229.92,1384.24 230.634,1384.24 231.348,1384.24 232.062,1384.24 232.775,1384.24 233.489,1384.24 234.203,1384.24 234.917,1384.24 235.631,1384.24 236.344,1384.24 237.058,1384.24 237.772,1384.24 238.486,1384.24 239.2,1384.24 239.913,1384.24 240.627,1384.24 241.341,1384.24 242.055,1384.24 242.769,1384.24 243.482,1384.24 244.196,1384.24 244.91,1384.24 245.624,1384.24 246.338,1384.24 247.051,1384.24 247.765,1339.48 248.479,1339.48 249.193,1339.48 249.907,1339.48 250.62,1339.48 251.334,1339.48 252.048,1339.48 252.762,1339.48 253.476,1339.48 254.189,1339.48 254.903,1339.48 255.617,1339.48 256.331,1339.48 257.045,1339.48 257.758,1339.48 258.472,1339.48 259.186,1339.48 259.9,1339.48 260.614,1339.48 261.327,1339.48 262.041,1339.48 262.755,1339.48 263.469,1339.48 264.183,1339.48 264.896,1339.48 265.61,1339.48 266.324,1339.48 267.038,1339.48 267.752,1339.48 268.465,1339.48 269.179,1339.48 269.893,1339.48 270.607,1339.48 271.321,1339.48 272.034,1339.48 272.748,1339.48 273.462,1339.48 274.176,1339.48 274.89,1339.48 275.603,1339.48 276.317,1339.48 277.031,1339.48 277.745,1339.48 278.459,1339.48 279.172,1339.48 279.886,1339.48 280.6,1339.48 281.314,1339.48 282.028,1339.48 282.741,1339.48 283.455,1339.48 284.169,1339.48 284.883,1339.48 285.597,1339.48 286.31,1339.48 287.024,1339.48 287.738,1339.48 288.452,1339.48 289.166,1339.48 289.879,1339.48 290.593,1339.48 291.307,1339.48 292.021,1339.48 292.735,1339.48 293.448,1339.48 294.162,1339.48 294.876,1339.48 295.59,1339.48 296.304,1339.48 297.017,1339.48 297.731,1339.48 298.445,1339.48 299.159,1339.48 299.873,1339.48 300.586,1339.48 301.3,1339.48 302.014,1339.48 302.728,1339.48 303.442,1339.48 304.155,1339.48 304.869,1339.48 305.583,1339.48 306.297,1339.48 307.011,1339.48 307.724,1339.48 308.438,1294.72 309.152,1294.72 309.866,1294.72 310.579,1294.72 311.293,1294.72 312.007,1294.72 312.721,1249.96 313.435,1249.96 314.148,1249.96 314.862,1249.96 315.576,1249.96 316.29,1249.96 317.004,1249.96 317.717,1249.96 318.431,1249.96 319.145,1249.96 319.859,1249.96 320.573,1249.96 321.286,1249.96 322,1249.96 322.714,1249.96 323.428,1249.96 324.142,1249.96 324.855,1249.96 325.569,1249.96 326.283,1249.96 326.997,1249.96 327.711,1249.96 328.424,1249.96 329.138,1249.96 329.852,1249.96 330.566,1249.96 331.28,1249.96 331.993,1249.96 332.707,1249.96 333.421,1249.96 334.135,1249.96 334.849,1249.96 335.562,1249.96 336.276,1249.96 336.99,1249.96 337.704,1249.96 338.418,1249.96 339.131,1249.96 339.845,1249.96 340.559,1249.96 341.273,1249.96 341.987,1249.96 342.7,1249.96 343.414,1249.96 344.128,1249.96 344.842,1249.96 345.556,1249.96 346.269,1249.96 346.983,1249.96 347.697,1249.96 348.411,1249.96 349.125,1249.96 349.838,1249.96 350.552,1249.96 351.266,1249.96 351.98,1249.96 352.694,1249.96 353.407,1249.96 354.121,1249.96 354.835,1249.96 355.549,1249.96 356.263,1249.96 356.976,1249.96 357.69,1249.96 358.404,1249.96 359.118,1249.96 359.832,1249.96 360.545,1249.96 361.259,1249.96 361.973,1249.96 362.687,1249.96 363.401,1249.96 364.114,1249.96 364.828,1249.96 365.542,1249.96 366.256,1205.2 366.97,1205.2 367.683,1205.2 368.397,1205.2 369.111,1205.2 369.825,1205.2 370.539,1205.2 371.252,1205.2 371.966,1205.2 372.68,1205.2 373.394,1205.2 374.108,1205.2 374.821,1205.2 375.535,1205.2 376.249,1205.2 376.963,1205.2 377.677,1205.2 378.39,1205.2 379.104,1205.2 379.818,1205.2 380.532,1205.2 381.246,1205.2 381.959,1205.2 382.673,1205.2 383.387,1205.2 384.101,1205.2 384.814,1205.2 385.528,1205.2 386.242,1205.2 386.956,1205.2 387.67,1205.2 388.383,1205.2 389.097,1205.2 389.811,1205.2 390.525,1205.2 391.239,1205.2 391.952,1205.2 392.666,1205.2 393.38,1205.2 394.094,1205.2 394.808,1205.2 395.521,1205.2 396.235,1205.2 396.949,1205.2 397.663,1205.2 398.377,1205.2 399.09,1205.2 399.804,1205.2 400.518,1205.2 401.232,1160.44 401.946,1160.44 402.659,1160.44 403.373,1160.44 404.087,1160.44 404.801,1160.44 405.515,1160.44 406.228,1160.44 406.942,1160.44 407.656,1160.44 408.37,1160.44 409.084,1160.44 409.797,1160.44 410.511,1160.44 411.225,1160.44 411.939,1160.44 412.653,1160.44 413.366,1160.44 414.08,1160.44 414.794,1160.44 415.508,1160.44 416.222,1160.44 416.935,1160.44 417.649,1115.68 418.363,1115.68 419.077,1115.68 419.791,1115.68 420.504,1115.68 421.218,1115.68 421.932,1115.68 422.646,1115.68 423.36,1115.68 424.073,1115.68 424.787,1115.68 425.501,1115.68 426.215,1115.68 426.929,1115.68 427.642,1115.68 428.356,1115.68 429.07,1115.68 429.784,1115.68 430.498,1115.68 431.211,1115.68 431.925,1115.68 432.639,1115.68 433.353,1115.68 434.067,1115.68 434.78,1115.68 435.494,1115.68 436.208,1115.68 436.922,1115.68 437.636,1115.68 438.349,1115.68 439.063,1115.68 439.777,1115.68 440.491,1115.68 441.205,1115.68 441.918,1115.68 442.632,1115.68 443.346,1115.68 444.06,1115.68 444.774,1115.68 445.487,1115.68 446.201,1115.68 446.915,1115.68 447.629,1115.68 448.343,1115.68 449.056,1115.68 449.77,1115.68 450.484,1115.68 451.198,1115.68 451.912,1115.68 452.625,1115.68 453.339,1115.68 454.053,1115.68 454.767,1115.68 455.481,1115.68 456.194,1115.68 456.908,1115.68 457.622,1115.68 458.336,1115.68 459.05,1115.68 459.763,1115.68 460.477,1115.68 461.191,1115.68 461.905,1115.68 462.618,1115.68 463.332,1115.68 464.046,1115.68 464.76,1115.68 465.474,1115.68 466.187,1115.68 466.901,1115.68 467.615,1115.68 468.329,1115.68 469.043,1115.68 469.756,1115.68 470.47,1115.68 471.184,1115.68 471.898,1115.68 472.612,1115.68 473.325,1115.68 474.039,1115.68 474.753,1115.68 475.467,1115.68 476.181,1115.68 476.894,1115.68 477.608,1115.68 478.322,1115.68 479.036,1115.68 479.75,1115.68 480.463,1115.68 481.177,1115.68 481.891,1115.68 482.605,1115.68 483.319,1115.68 484.032,1115.68 484.746,1115.68 485.46,1115.68 486.174,1115.68 486.888,1115.68 487.601,1115.68 488.315,1115.68 489.029,1115.68 489.743,1115.68 490.457,1115.68 491.17,1115.68 491.884,1115.68 492.598,1115.68 493.312,1115.68 494.026,1115.68 494.739,1115.68 495.453,1115.68 496.167,1115.68 496.881,1115.68 497.595,1115.68 498.308,1115.68 499.022,1115.68 499.736,1115.68 500.45,1115.68 501.164,1115.68 501.877,1115.68 502.591,1115.68 503.305,1115.68 504.019,1115.68 504.733,1115.68 505.446,1115.68 506.16,1115.68 506.874,1115.68 507.588,1115.68 508.302,1115.68 509.015,1115.68 509.729,1115.68 510.443,1115.68 511.157,1115.68 511.871,1115.68 512.584,1115.68 513.298,1115.68 514.012,1115.68 514.726,1115.68 515.44,1115.68 516.153,1115.68 516.867,1115.68 517.581,1115.68 518.295,1115.68 519.009,1115.68 519.722,1115.68 520.436,1115.68 521.15,1115.68 521.864,1115.68 522.578,1115.68 523.291,1115.68 524.005,1115.68 524.719,1115.68 525.433,1115.68 526.147,1115.68 526.86,1115.68 527.574,1115.68 528.288,1115.68 529.002,1115.68 529.716,1115.68 530.429,1115.68 531.143,1115.68 531.857,1115.68 532.571,1115.68 533.285,1115.68 533.998,1115.68 534.712,1115.68 535.426,1115.68 536.14,1115.68 536.853,1115.68 537.567,1115.68 538.281,1115.68 538.995,1115.68 539.709,1115.68 540.422,1115.68 541.136,1115.68 541.85,1115.68 542.564,1115.68 543.278,1115.68 543.991,1115.68 544.705,1115.68 545.419,1115.68 546.133,1115.68 546.847,1115.68 547.56,1115.68 548.274,1115.68 548.988,1115.68 549.702,1115.68 550.416,1115.68 551.129,1115.68 551.843,1115.68 552.557,1115.68 553.271,1115.68 553.985,1115.68 554.698,1115.68 555.412,1115.68 556.126,1115.68 556.84,1115.68 557.554,1115.68 558.267,1115.68 558.981,1115.68 559.695,1115.68 560.409,1115.68 561.123,1115.68 561.836,1115.68 562.55,1115.68 563.264,1115.68 563.978,1115.68 564.692,1115.68 565.405,1115.68 566.119,1115.68 566.833,1115.68 567.547,1115.68 568.261,1115.68 568.974,1115.68 569.688,1115.68 570.402,1115.68 571.116,1115.68 571.83,1115.68 572.543,1115.68 573.257,1115.68 573.971,1115.68 574.685,1115.68 575.399,1115.68 576.112,1115.68 576.826,1115.68 577.54,1115.68 578.254,1115.68 578.968,1115.68 579.681,1115.68 580.395,1115.68 581.109,1115.68 581.823,1115.68 582.537,1115.68 583.25,1115.68 583.964,1070.92 584.678,1070.92 585.392,1070.92 586.106,1070.92 586.819,1070.92 587.533,1070.92 588.247,1070.92 588.961,1070.92 589.675,1070.92 590.388,1070.92 591.102,1070.92 591.816,1070.92 592.53,1070.92 593.244,1070.92 593.957,1070.92 594.671,1070.92 595.385,1070.92 596.099,1070.92 596.813,1070.92 597.526,1070.92 598.24,1070.92 598.954,1070.92 599.668,1070.92 600.382,1070.92 601.095,1070.92 601.809,1070.92 602.523,1070.92 603.237,1070.92 603.951,1070.92 604.664,1070.92 605.378,1070.92 606.092,1070.92 606.806,1070.92 607.52,1070.92 608.233,1070.92 608.947,1070.92 609.661,1070.92 610.375,1070.92 611.089,1070.92 611.802,1070.92 612.516,1070.92 613.23,1070.92 613.944,1070.92 614.657,1070.92 615.371,1070.92 616.085,1070.92 616.799,1070.92 617.513,1070.92 618.226,1070.92 618.94,1070.92 619.654,1070.92 620.368,1070.92 621.082,1070.92 621.795,1070.92 622.509,1070.92 623.223,1070.92 623.937,1070.92 624.651,1070.92 625.364,1070.92 626.078,1070.92 626.792,1070.92 627.506,1070.92 628.22,1070.92 628.933,1070.92 629.647,1070.92 630.361,1070.92 631.075,1070.92 631.789,1070.92 632.502,1070.92 633.216,1070.92 633.93,1070.92 634.644,1070.92 635.358,1070.92 636.071,1070.92 636.785,1070.92 637.499,1070.92 638.213,1070.92 638.927,1070.92 639.64,1070.92 640.354,1070.92 641.068,1070.92 641.782,1070.92 642.496,1070.92 643.209,1070.92 643.923,1070.92 644.637,1070.92 645.351,1070.92 646.065,1070.92 646.778,1070.92 647.492,1070.92 648.206,1070.92 648.92,1070.92 649.634,1070.92 650.347,1070.92 651.061,1070.92 651.775,1070.92 652.489,1070.92 653.203,1070.92 653.916,1070.92 654.63,1070.92 655.344,1070.92 656.058,1070.92 656.772,1070.92 657.485,1070.92 658.199,1070.92 658.913,1070.92 659.627,1070.92 660.341,1070.92 661.054,1070.92 661.768,1070.92 662.482,1070.92 663.196,1070.92 663.91,1070.92 664.623,1070.92 665.337,1070.92 666.051,1070.92 666.765,1070.92 667.479,1070.92 668.192,1070.92 668.906,1070.92 669.62,1070.92 670.334,1070.92 671.048,1070.92 671.761,1070.92 672.475,1070.92 673.189,1070.92 673.903,1070.92 674.617,1070.92 675.33,1070.92 676.044,1070.92 676.758,1070.92 677.472,1070.92 678.186,1070.92 678.899,1070.92 679.613,1070.92 680.327,1070.92 681.041,1070.92 681.755,1070.92 682.468,1070.92 683.182,1070.92 683.896,1070.92 684.61,1070.92 685.324,1070.92 686.037,1070.92 686.751,1070.92 687.465,1070.92 688.179,1026.15 688.892,1026.15 689.606,1026.15 690.32,1026.15 691.034,1026.15 691.748,1026.15 692.461,1026.15 693.175,1026.15 693.889,1026.15 694.603,1026.15 695.317,1026.15 696.03,1026.15 696.744,1026.15 697.458,1026.15 698.172,1026.15 698.886,1026.15 699.599,1026.15 700.313,1026.15 701.027,1026.15 701.741,1026.15 702.455,1026.15 703.168,1026.15 703.882,1026.15 704.596,1026.15 705.31,1026.15 706.024,1026.15 706.737,1026.15 707.451,1026.15 708.165,1026.15 708.879,1026.15 709.593,1026.15 710.306,1026.15 711.02,1026.15 711.734,1026.15 712.448,1026.15 713.162,1026.15 713.875,1026.15 714.589,1026.15 715.303,1026.15 716.017,1026.15 716.731,1026.15 717.444,1026.15 718.158,1026.15 718.872,1026.15 719.586,1026.15 720.3,1026.15 721.013,1026.15 721.727,1026.15 722.441,1026.15 723.155,1026.15 723.869,1026.15 724.582,1026.15 725.296,1026.15 726.01,1026.15 726.724,1026.15 727.438,1026.15 728.151,1026.15 728.865,1026.15 729.579,1026.15 730.293,1026.15 731.007,1026.15 731.72,1026.15 732.434,1026.15 733.148,1026.15 733.862,1026.15 734.576,1026.15 735.289,1026.15 736.003,1026.15 736.717,1026.15 737.431,1026.15 738.145,1026.15 738.858,1026.15 739.572,1026.15 740.286,1026.15 741,1026.15 741.714,1026.15 742.427,1026.15 743.141,1026.15 743.855,1026.15 744.569,1026.15 745.283,1026.15 745.996,1026.15 746.71,1026.15 747.424,1026.15 748.138,1026.15 748.852,1026.15 749.565,1026.15 750.279,1026.15 750.993,1026.15 751.707,1026.15 752.421,1026.15 753.134,1026.15 753.848,1026.15 754.562,1026.15 755.276,1026.15 755.99,1026.15 756.703,1026.15 757.417,1026.15 758.131,1026.15 758.845,1026.15 759.559,1026.15 760.272,1026.15 760.986,1026.15 761.7,1026.15 762.414,1026.15 763.127,1026.15 763.841,1026.15 764.555,1026.15 765.269,1026.15 765.983,1026.15 766.696,1026.15 767.41,1026.15 768.124,1026.15 768.838,1026.15 769.552,1026.15 770.265,1026.15 770.979,1026.15 771.693,1026.15 772.407,1026.15 773.121,1026.15 773.834,1026.15 774.548,1026.15 775.262,1026.15 775.976,1026.15 776.69,1026.15 777.403,1026.15 778.117,1026.15 778.831,1026.15 779.545,1026.15 780.259,1026.15 780.972,1026.15 781.686,1026.15 782.4,1026.15 783.114,1026.15 783.828,1026.15 784.541,1026.15 785.255,1026.15 785.969,1026.15 786.683,1026.15 787.397,1026.15 788.11,1026.15 788.824,1026.15 789.538,1026.15 790.252,1026.15 790.966,1026.15 791.679,1026.15 792.393,1026.15 793.107,1026.15 793.821,1026.15 794.535,1026.15 795.248,1026.15 795.962,1026.15 796.676,1026.15 797.39,1026.15 798.104,1026.15 798.817,1026.15 799.531,1026.15 800.245,1026.15 800.959,1026.15 801.673,1026.15 802.386,1026.15 803.1,1026.15 803.814,1026.15 804.528,1026.15 805.242,1026.15 805.955,1026.15 806.669,1026.15 807.383,1026.15 808.097,1026.15 808.811,1026.15 809.524,1026.15 810.238,1026.15 810.952,1026.15 811.666,1026.15 812.38,1026.15 813.093,1026.15 813.807,1026.15 814.521,1026.15 815.235,1026.15 815.949,1026.15 816.662,1026.15 817.376,1026.15 818.09,1026.15 818.804,1026.15 819.518,1026.15 820.231,1026.15 820.945,1026.15 821.659,1026.15 822.373,1026.15 823.087,1026.15 823.8,1026.15 824.514,1026.15 825.228,1026.15 825.942,1026.15 826.656,1026.15 827.369,1026.15 828.083,1026.15 828.797,1026.15 829.511,1026.15 830.225,1026.15 830.938,1026.15 831.652,1026.15 832.366,1026.15 833.08,1026.15 833.794,1026.15 834.507,1026.15 835.221,1026.15 835.935,1026.15 836.649,1026.15 837.363,1026.15 838.076,981.394 838.79,981.394 839.504,981.394 840.218,981.394 840.931,981.394 841.645,981.394 842.359,981.394 843.073,981.394 843.787,981.394 844.5,981.394 845.214,981.394 845.928,981.394 846.642,981.394 847.356,981.394 848.069,981.394 848.783,981.394 849.497,981.394 850.211,981.394 850.925,981.394 851.638,981.394 852.352,981.394 853.066,981.394 853.78,981.394 854.494,981.394 855.207,981.394 855.921,981.394 856.635,981.394 857.349,981.394 858.063,981.394 858.776,981.394 859.49,981.394 860.204,981.394 860.918,981.394 861.632,981.394 862.345,981.394 863.059,981.394 863.773,981.394 864.487,981.394 865.201,981.394 865.914,981.394 866.628,981.394 867.342,981.394 868.056,981.394 868.77,981.394 869.483,981.394 870.197,981.394 870.911,981.394 871.625,981.394 872.339,981.394 873.052,981.394 873.766,981.394 874.48,981.394 875.194,981.394 875.908,981.394 876.621,981.394 877.335,981.394 878.049,981.394 878.763,981.394 879.477,981.394 880.19,981.394 880.904,981.394 881.618,981.394 882.332,981.394 883.046,981.394 883.759,981.394 884.473,981.394 885.187,981.394 885.901,981.394 886.615,981.394 887.328,981.394 888.042,981.394 888.756,981.394 889.47,981.394 890.184,981.394 890.897,981.394 891.611,981.394 892.325,981.394 893.039,981.394 893.753,981.394 894.466,981.394 895.18,981.394 895.894,981.394 896.608,981.394 897.322,981.394 898.035,981.394 898.749,981.394 899.463,981.394 900.177,981.394 900.891,981.394 901.604,981.394 902.318,936.634 903.032,936.634 903.746,936.634 904.46,936.634 905.173,936.634 905.887,936.634 906.601,936.634 907.315,936.634 908.029,936.634 908.742,936.634 909.456,936.634 910.17,936.634 910.884,936.634 911.598,936.634 912.311,936.634 913.025,936.634 913.739,936.634 914.453,936.634 915.166,936.634 915.88,936.634 916.594,936.634 917.308,936.634 918.022,936.634 918.735,936.634 919.449,936.634 920.163,936.634 920.877,936.634 921.591,936.634 922.304,936.634 923.018,936.634 923.732,936.634 924.446,936.634 925.16,936.634 925.873,936.634 926.587,936.634 927.301,936.634 928.015,936.634 928.729,936.634 929.442,936.634 930.156,936.634 930.87,936.634 931.584,936.634 932.298,936.634 933.011,936.634 933.725,936.634 934.439,936.634 935.153,936.634 935.867,936.634 936.58,936.634 937.294,936.634 938.008,936.634 938.722,936.634 939.436,936.634 940.149,936.634 940.863,936.634 941.577,936.634 942.291,936.634 943.005,936.634 943.718,936.634 944.432,936.634 945.146,936.634 945.86,936.634 946.574,936.634 947.287,936.634 948.001,936.634 948.715,936.634 949.429,936.634 950.143,936.634 950.856,936.634 951.57,936.634 952.284,936.634 952.998,936.634 953.712,936.634 954.425,936.634 955.139,936.634 955.853,936.634 956.567,936.634 957.281,936.634 957.994,936.634 958.708,936.634 959.422,936.634 960.136,936.634 960.85,936.634 961.563,936.634 962.277,936.634 962.991,936.634 963.705,936.634 964.419,936.634 965.132,936.634 965.846,936.634 966.56,936.634 967.274,936.634 967.988,936.634 968.701,936.634 969.415,936.634 970.129,936.634 970.843,936.634 971.557,936.634 972.27,936.634 972.984,936.634 973.698,936.634 974.412,936.634 975.126,936.634 975.839,936.634 976.553,936.634 977.267,936.634 977.981,936.634 978.695,936.634 979.408,936.634 980.122,936.634 980.836,936.634 981.55,936.634 982.264,936.634 982.977,936.634 983.691,936.634 984.405,936.634 985.119,936.634 985.833,936.634 986.546,936.634 987.26,936.634 987.974,936.634 988.688,936.634 989.402,936.634 990.115,936.634 990.829,936.634 991.543,936.634 992.257,936.634 992.97,936.634 993.684,936.634 994.398,936.634 995.112,936.634 995.826,936.634 996.539,936.634 997.253,936.634 997.967,936.634 998.681,936.634 999.395,936.634 1000.11,936.634 1000.82,936.634 1001.54,936.634 1002.25,936.634 1002.96,936.634 1003.68,936.634 1004.39,936.634 1005.11,936.634 1005.82,936.634 1006.53,936.634 1007.25,936.634 1007.96,936.634 1008.67,936.634 1009.39,936.634 1010.1,936.634 1010.82,936.634 1011.53,936.634 1012.24,936.634 1012.96,936.634 1013.67,936.634 1014.38,936.634 1015.1,936.634 1015.81,936.634 1016.53,936.634 1017.24,936.634 1017.95,936.634 1018.67,936.634 1019.38,936.634 1020.09,936.634 1020.81,936.634 1021.52,936.634 1022.24,936.634 1022.95,936.634 1023.66,936.634 1024.38,936.634 1025.09,936.634 1025.81,936.634 1026.52,936.634 1027.23,936.634 1027.95,936.634 1028.66,936.634 1029.37,936.634 1030.09,936.634 1030.8,936.634 1031.52,936.634 1032.23,936.634 1032.94,936.634 1033.66,936.634 1034.37,936.634 1035.08,936.634 1035.8,936.634 1036.51,936.634 1037.23,936.634 1037.94,936.634 1038.65,936.634 1039.37,936.634 1040.08,936.634 1040.79,936.634 1041.51,936.634 1042.22,936.634 1042.94,936.634 1043.65,936.634 1044.36,936.634 1045.08,936.634 1045.79,936.634 1046.51,936.634 1047.22,936.634 1047.93,936.634 1048.65,936.634 1049.36,936.634 1050.07,936.634 1050.79,936.634 1051.5,936.634 1052.22,936.634 1052.93,936.634 1053.64,936.634 1054.36,936.634 1055.07,936.634 1055.78,936.634 1056.5,936.634 1057.21,936.634 1057.93,936.634 1058.64,936.634 1059.35,936.634 1060.07,936.634 1060.78,936.634 1061.5,936.634 1062.21,936.634 1062.92,936.634 1063.64,936.634 1064.35,936.634 1065.06,936.634 1065.78,936.634 1066.49,936.634 1067.21,936.634 1067.92,936.634 1068.63,936.634 1069.35,936.634 1070.06,936.634 1070.77,936.634 1071.49,936.634 1072.2,936.634 1072.92,936.634 1073.63,936.634 1074.34,936.634 1075.06,936.634 1075.77,936.634 1076.48,936.634 1077.2,936.634 1077.91,936.634 1078.63,936.634 1079.34,936.634 1080.05,936.634 1080.77,936.634 1081.48,936.634 1082.2,936.634 1082.91,936.634 1083.62,936.634 1084.34,936.634 1085.05,936.634 1085.76,936.634 1086.48,936.634 1087.19,936.634 1087.91,936.634 1088.62,936.634 1089.33,936.634 1090.05,936.634 1090.76,936.634 1091.47,936.634 1092.19,936.634 1092.9,936.634 1093.62,936.634 1094.33,936.634 1095.04,936.634 1095.76,936.634 1096.47,936.634 1097.19,891.873 1097.9,891.873 1098.61,891.873 1099.33,891.873 1100.04,891.873 1100.75,891.873 1101.47,891.873 1102.18,891.873 1102.9,891.873 1103.61,891.873 1104.32,891.873 1105.04,891.873 1105.75,891.873 1106.46,891.873 1107.18,891.873 1107.89,891.873 1108.61,891.873 1109.32,891.873 1110.03,891.873 1110.75,891.873 1111.46,891.873 1112.17,891.873 1112.89,891.873 1113.6,891.873 1114.32,891.873 1115.03,891.873 1115.74,891.873 1116.46,891.873 1117.17,891.873 1117.89,891.873 1118.6,891.873 1119.31,891.873 1120.03,891.873 1120.74,891.873 1121.45,891.873 1122.17,891.873 1122.88,891.873 1123.6,891.873 1124.31,891.873 1125.02,891.873 1125.74,891.873 1126.45,891.873 1127.16,891.873 1127.88,891.873 1128.59,891.873 1129.31,891.873 1130.02,891.873 1130.73,891.873 1131.45,891.873 1132.16,891.873 1132.87,891.873 1133.59,891.873 1134.3,891.873 1135.02,891.873 1135.73,891.873 1136.44,891.873 1137.16,891.873 1137.87,891.873 1138.59,891.873 1139.3,891.873 1140.01,891.873 1140.73,891.873 1141.44,891.873 1142.15,891.873 1142.87,891.873 1143.58,891.873 1144.3,891.873 1145.01,891.873 1145.72,891.873 1146.44,891.873 1147.15,891.873 1147.86,891.873 1148.58,891.873 1149.29,891.873 1150.01,891.873 1150.72,891.873 1151.43,891.873 1152.15,891.873 1152.86,891.873 1153.58,891.873 1154.29,891.873 1155,891.873 1155.72,891.873 1156.43,891.873 1157.14,891.873 1157.86,891.873 1158.57,891.873 1159.29,891.873 1160,891.873 1160.71,891.873 1161.43,891.873 1162.14,891.873 1162.85,891.873 1163.57,891.873 1164.28,891.873 1165,891.873 1165.71,891.873 1166.42,891.873 1167.14,891.873 1167.85,891.873 1168.56,891.873 1169.28,891.873 1169.99,891.873 1170.71,891.873 1171.42,891.873 1172.13,891.873 1172.85,891.873 1173.56,891.873 1174.28,891.873 1174.99,891.873 1175.7,891.873 1176.42,891.873 1177.13,891.873 1177.84,891.873 1178.56,891.873 1179.27,891.873 1179.99,891.873 1180.7,891.873 1181.41,891.873 1182.13,891.873 1182.84,891.873 1183.55,891.873 1184.27,891.873 1184.98,891.873 1185.7,891.873 1186.41,891.873 1187.12,891.873 1187.84,891.873 1188.55,891.873 1189.26,891.873 1189.98,891.873 1190.69,891.873 1191.41,891.873 1192.12,891.873 1192.83,891.873 1193.55,891.873 1194.26,891.873 1194.98,891.873 1195.69,891.873 1196.4,891.873 1197.12,891.873 1197.83,891.873 1198.54,891.873 1199.26,891.873 1199.97,891.873 1200.69,891.873 1201.4,891.873 1202.11,891.873 1202.83,891.873 1203.54,891.873 1204.25,891.873 1204.97,891.873 1205.68,891.873 1206.4,891.873 1207.11,891.873 1207.82,891.873 1208.54,891.873 1209.25,891.873 1209.97,891.873 1210.68,891.873 1211.39,891.873 1212.11,891.873 1212.82,891.873 1213.53,891.873 1214.25,891.873 1214.96,891.873 1215.68,891.873 1216.39,891.873 1217.1,891.873 1217.82,891.873 1218.53,891.873 1219.24,891.873 1219.96,891.873 1220.67,891.873 1221.39,891.873 1222.1,891.873 1222.81,891.873 1223.53,891.873 1224.24,891.873 1224.95,891.873 1225.67,891.873 1226.38,847.113 1227.1,847.113 1227.81,847.113 1228.52,847.113 1229.24,847.113 1229.95,847.113 1230.67,847.113 1231.38,847.113 1232.09,847.113 1232.81,847.113 1233.52,847.113 1234.23,847.113 1234.95,847.113 1235.66,847.113 1236.38,847.113 1237.09,847.113 1237.8,847.113 1238.52,847.113 1239.23,847.113 1239.94,847.113 1240.66,847.113 1241.37,847.113 1242.09,847.113 1242.8,847.113 1243.51,847.113 1244.23,847.113 1244.94,847.113 1245.66,847.113 1246.37,847.113 1247.08,847.113 1247.8,847.113 1248.51,847.113 1249.22,847.113 1249.94,847.113 1250.65,847.113 1251.37,847.113 1252.08,847.113 1252.79,847.113 1253.51,847.113 1254.22,847.113 1254.93,847.113 1255.65,847.113 1256.36,847.113 1257.08,847.113 1257.79,847.113 1258.5,847.113 1259.22,847.113 1259.93,847.113 1260.64,847.113 1261.36,847.113 1262.07,847.113 1262.79,847.113 1263.5,847.113 1264.21,847.113 1264.93,847.113 1265.64,847.113 1266.36,847.113 1267.07,847.113 1267.78,847.113 1268.5,847.113 1269.21,847.113 1269.92,847.113 1270.64,847.113 1271.35,847.113 1272.07,847.113 1272.78,847.113 1273.49,847.113 1274.21,847.113 1274.92,847.113 1275.63,847.113 1276.35,847.113 1277.06,847.113 1277.78,847.113 1278.49,847.113 1279.2,847.113 1279.92,847.113 1280.63,847.113 1281.34,847.113 1282.06,847.113 1282.77,847.113 1283.49,847.113 1284.2,847.113 1284.91,847.113 1285.63,847.113 1286.34,847.113 1287.06,847.113 1287.77,847.113 1288.48,847.113 1289.2,847.113 1289.91,847.113 1290.62,847.113 1291.34,847.113 1292.05,847.113 1292.77,847.113 1293.48,847.113 1294.19,847.113 1294.91,847.113 1295.62,847.113 1296.33,847.113 1297.05,847.113 1297.76,847.113 1298.48,847.113 1299.19,847.113 1299.9,847.113 1300.62,847.113 1301.33,847.113 1302.05,847.113 1302.76,847.113 1303.47,847.113 1304.19,847.113 1304.9,847.113 1305.61,847.113 1306.33,847.113 1307.04,847.113 1307.76,847.113 1308.47,847.113 1309.18,847.113 1309.9,847.113 1310.61,847.113 1311.32,847.113 1312.04,847.113 1312.75,847.113 1313.47,847.113 1314.18,847.113 1314.89,847.113 1315.61,847.113 1316.32,847.113 1317.03,847.113 1317.75,847.113 1318.46,847.113 1319.18,847.113 1319.89,847.113 1320.6,847.113 1321.32,847.113 1322.03,847.113 1322.75,847.113 1323.46,847.113 1324.17,847.113 1324.89,847.113 1325.6,847.113 1326.31,847.113 1327.03,847.113 1327.74,847.113 1328.46,847.113 1329.17,847.113 1329.88,847.113 1330.6,847.113 1331.31,847.113 1332.02,847.113 1332.74,847.113 1333.45,847.113 1334.17,847.113 1334.88,847.113 1335.59,847.113 1336.31,847.113 1337.02,847.113 1337.73,847.113 1338.45,847.113 1339.16,847.113 1339.88,847.113 1340.59,847.113 1341.3,847.113 1342.02,847.113 1342.73,847.113 1343.45,847.113 1344.16,847.113 1344.87,847.113 1345.59,847.113 1346.3,847.113 1347.01,847.113 1347.73,847.113 1348.44,847.113 1349.16,847.113 1349.87,847.113 1350.58,847.113 1351.3,847.113 1352.01,847.113 1352.72,847.113 1353.44,847.113 1354.15,847.113 1354.87,847.113 1355.58,847.113 1356.29,847.113 1357.01,847.113 1357.72,847.113 1358.44,847.113 1359.15,847.113 1359.86,847.113 1360.58,847.113 1361.29,847.113 1362,847.113 1362.72,847.113 1363.43,847.113 1364.15,847.113 1364.86,847.113 1365.57,847.113 1366.29,847.113 1367,847.113 1367.71,847.113 1368.43,847.113 1369.14,847.113 1369.86,847.113 1370.57,847.113 1371.28,847.113 1372,847.113 1372.71,847.113 1373.42,847.113 1374.14,847.113 1374.85,847.113 1375.57,847.113 1376.28,847.113 1376.99,847.113 1377.71,847.113 1378.42,847.113 1379.14,847.113 1379.85,847.113 1380.56,847.113 1381.28,847.113 1381.99,847.113 1382.7,847.113 1383.42,847.113 1384.13,847.113 1384.85,847.113 1385.56,847.113 1386.27,847.113 1386.99,847.113 1387.7,847.113 1388.41,847.113 1389.13,847.113 1389.84,847.113 1390.56,847.113 1391.27,847.113 1391.98,847.113 1392.7,847.113 1393.41,847.113 1394.13,847.113 1394.84,847.113 1395.55,847.113 1396.27,847.113 1396.98,847.113 1397.69,847.113 1398.41,847.113 1399.12,847.113 1399.84,847.113 1400.55,847.113 1401.26,847.113 1401.98,847.113 1402.69,847.113 1403.4,847.113 1404.12,847.113 1404.83,847.113 1405.55,847.113 1406.26,847.113 1406.97,847.113 1407.69,847.113 1408.4,847.113 1409.11,847.113 1409.83,847.113 1410.54,847.113 1411.26,847.113 1411.97,847.113 1412.68,847.113 1413.4,847.113 1414.11,847.113 1414.83,847.113 1415.54,847.113 1416.25,847.113 1416.97,847.113 1417.68,847.113 1418.39,847.113 1419.11,847.113 1419.82,847.113 1420.54,847.113 1421.25,847.113 1421.96,847.113 1422.68,847.113 1423.39,847.113 1424.1,847.113 1424.82,847.113 1425.53,847.113 1426.25,847.113 1426.96,847.113 1427.67,847.113 1428.39,847.113 1429.1,847.113 1429.81,847.113 1430.53,847.113 1431.24,847.113 1431.96,847.113 1432.67,847.113 1433.38,847.113 1434.1,847.113 1434.81,847.113 1435.53,847.113 1436.24,847.113 1436.95,847.113 1437.67,847.113 1438.38,847.113 1439.09,847.113 1439.81,847.113 1440.52,847.113 1441.24,847.113 1441.95,847.113 1442.66,847.113 1443.38,847.113 1444.09,847.113 1444.8,847.113 1445.52,847.113 1446.23,847.113 1446.95,847.113 1447.66,847.113 1448.37,847.113 1449.09,847.113 1449.8,847.113 1450.52,847.113 1451.23,847.113 1451.94,847.113 1452.66,847.113 1453.37,847.113 1454.08,847.113 1454.8,847.113 1455.51,847.113 1456.23,847.113 1456.94,847.113 1457.65,847.113 1458.37,847.113 1459.08,847.113 1459.79,847.113 1460.51,847.113 1461.22,847.113 1461.94,847.113 1462.65,847.113 1463.36,847.113 1464.08,847.113 1464.79,847.113 1465.5,847.113 1466.22,847.113 1466.93,847.113 1467.65,847.113 1468.36,847.113 1469.07,847.113 1469.79,847.113 1470.5,847.113 1471.22,847.113 1471.93,847.113 1472.64,847.113 1473.36,847.113 1474.07,802.353 1474.78,802.353 1475.5,802.353 1476.21,802.353 1476.93,802.353 1477.64,802.353 1478.35,802.353 1479.07,802.353 1479.78,802.353 1480.49,802.353 1481.21,802.353 1481.92,802.353 1482.64,802.353 1483.35,802.353 1484.06,802.353 1484.78,802.353 1485.49,802.353 1486.2,802.353 1486.92,802.353 1487.63,802.353 1488.35,802.353 1489.06,802.353 1489.77,802.353 1490.49,802.353 1491.2,802.353 1491.92,802.353 1492.63,802.353 1493.34,802.353 1494.06,802.353 1494.77,802.353 1495.48,802.353 1496.2,802.353 1496.91,802.353 1497.63,802.353 1498.34,802.353 1499.05,802.353 1499.77,802.353 1500.48,802.353 1501.19,802.353 1501.91,802.353 1502.62,802.353 1503.34,802.353 1504.05,802.353 1504.76,802.353 1505.48,802.353 1506.19,802.353 1506.91,802.353 1507.62,802.353 1508.33,802.353 1509.05,802.353 1509.76,802.353 1510.47,802.353 1511.19,802.353 1511.9,802.353 1512.62,802.353 1513.33,802.353 1514.04,802.353 1514.76,802.353 1515.47,802.353 1516.18,802.353 1516.9,802.353 1517.61,802.353 1518.33,802.353 1519.04,802.353 1519.75,802.353 1520.47,802.353 1521.18,802.353 1521.89,802.353 1522.61,802.353 1523.32,802.353 1524.04,802.353 1524.75,802.353 1525.46,802.353 1526.18,802.353 1526.89,802.353 1527.61,802.353 1528.32,802.353 1529.03,802.353 1529.75,802.353 1530.46,802.353 1531.17,802.353 1531.89,802.353 1532.6,802.353 1533.32,802.353 1534.03,802.353 1534.74,802.353 1535.46,802.353 1536.17,802.353 1536.88,802.353 1537.6,802.353 1538.31,802.353 1539.03,802.353 1539.74,802.353 1540.45,802.353 1541.17,802.353 1541.88,802.353 1542.6,802.353 1543.31,802.353 1544.02,802.353 1544.74,802.353 1545.45,802.353 1546.16,802.353 1546.88,802.353 1547.59,802.353 1548.31,802.353 1549.02,802.353 1549.73,802.353 1550.45,802.353 1551.16,802.353 1551.87,802.353 1552.59,802.353 1553.3,802.353 1554.02,802.353 1554.73,802.353 1555.44,757.592 1556.16,757.592 1556.87,757.592 1557.58,757.592 1558.3,757.592 1559.01,757.592 1559.73,757.592 1560.44,757.592 1561.15,757.592 1561.87,757.592 1562.58,757.592 1563.3,757.592 1564.01,757.592 1564.72,757.592 1565.44,757.592 1566.15,757.592 1566.86,757.592 1567.58,757.592 1568.29,757.592 1569.01,757.592 1569.72,757.592 1570.43,757.592 1571.15,757.592 1571.86,757.592 1572.57,757.592 1573.29,757.592 1574,757.592 1574.72,757.592 1575.43,757.592 1576.14,757.592 1576.86,757.592 1577.57,757.592 1578.28,757.592 1579,757.592 1579.71,757.592 1580.43,757.592 1581.14,757.592 1581.85,757.592 1582.57,757.592 1583.28,757.592 1584,757.592 1584.71,757.592 1585.42,757.592 1586.14,757.592 1586.85,757.592 1587.56,757.592 1588.28,757.592 1588.99,757.592 1589.71,757.592 1590.42,757.592 1591.13,757.592 1591.85,757.592 1592.56,757.592 1593.27,757.592 1593.99,757.592 1594.7,757.592 1595.42,757.592 1596.13,757.592 1596.84,757.592 1597.56,757.592 1598.27,757.592 1598.99,757.592 1599.7,757.592 1600.41,757.592 1601.13,757.592 1601.84,757.592 1602.55,757.592 1603.27,757.592 1603.98,757.592 1604.7,757.592 1605.41,757.592 1606.12,757.592 1606.84,757.592 1607.55,757.592 1608.26,757.592 1608.98,757.592 1609.69,757.592 1610.41,757.592 1611.12,757.592 1611.83,757.592 1612.55,757.592 1613.26,757.592 1613.97,757.592 1614.69,757.592 1615.4,757.592 1616.12,757.592 1616.83,757.592 1617.54,757.592 1618.26,757.592 1618.97,757.592 1619.69,757.592 1620.4,757.592 1621.11,757.592 1621.83,757.592 1622.54,757.592 1623.25,757.592 1623.97,712.832 1624.68,712.832 1625.4,712.832 1626.11,712.832 1626.82,712.832 1627.54,712.832 1628.25,712.832 1628.96,712.832 1629.68,712.832 1630.39,712.832 1631.11,712.832 1631.82,712.832 1632.53,712.832 1633.25,668.071 1633.96,668.071 1634.68,668.071 1635.39,668.071 1636.1,668.071 1636.82,668.071 1637.53,668.071 1638.24,668.071 1638.96,668.071 1639.67,668.071 1640.39,668.071 1641.1,668.071 1641.81,668.071 1642.53,668.071 1643.24,668.071 1643.95,668.071 1644.67,668.071 1645.38,668.071 1646.1,668.071 1646.81,668.071 1647.52,668.071 1648.24,668.071 1648.95,668.071 1649.66,668.071 1650.38,668.071 1651.09,668.071 1651.81,668.071 1652.52,668.071 1653.23,668.071 1653.95,668.071 1654.66,668.071 1655.38,668.071 1656.09,668.071 1656.8,668.071 1657.52,668.071 1658.23,668.071 1658.94,668.071 1659.66,668.071 1660.37,668.071 1661.09,668.071 1661.8,668.071 1662.51,668.071 1663.23,623.311 1663.94,623.311 1664.65,623.311 1665.37,623.311 1666.08,623.311 1666.8,623.311 1667.51,623.311 1668.22,623.311 1668.94,623.311 1669.65,623.311 1670.36,623.311 1671.08,623.311 1671.79,623.311 1672.51,623.311 1673.22,623.311 1673.93,623.311 1674.65,623.311 1675.36,623.311 1676.08,623.311 1676.79,623.311 1677.5,623.311 1678.22,623.311 1678.93,623.311 1679.64,623.311 1680.36,623.311 1681.07,623.311 1681.79,623.311 1682.5,623.311 1683.21,623.311 1683.93,623.311 1684.64,623.311 1685.35,623.311 1686.07,623.311 1686.78,623.311 1687.5,623.311 1688.21,623.311 1688.92,578.55 1689.64,578.55 1690.35,578.55 1691.07,578.55 1691.78,578.55 1692.49,578.55 1693.21,578.55 1693.92,578.55 1694.63,578.55 1695.35,578.55 1696.06,578.55 1696.78,578.55 1697.49,578.55 1698.2,578.55 1698.92,578.55 1699.63,578.55 1700.34,578.55 1701.06,578.55 1701.77,578.55 1702.49,578.55 1703.2,578.55 1703.91,578.55 1704.63,578.55 1705.34,578.55 1706.05,578.55 1706.77,578.55 1707.48,578.55 1708.2,578.55 1708.91,578.55 1709.62,578.55 1710.34,578.55 1711.05,578.55 1711.77,578.55 1712.48,578.55 1713.19,578.55 1713.91,578.55 1714.62,578.55 1715.33,578.55 1716.05,578.55 1716.76,578.55 1717.48,578.55 1718.19,578.55 1718.9,578.55 1719.62,578.55 1720.33,578.55 1721.04,578.55 1721.76,578.55 1722.47,578.55 1723.19,578.55 1723.9,578.55 1724.61,578.55 1725.33,578.55 1726.04,578.55 1726.75,578.55 1727.47,578.55 1728.18,578.55 1728.9,578.55 1729.61,578.55 1730.32,578.55 1731.04,578.55 1731.75,578.55 1732.47,578.55 1733.18,578.55 1733.89,578.55 1734.61,578.55 1735.32,578.55 1736.03,578.55 1736.75,578.55 1737.46,578.55 1738.18,578.55 1738.89,578.55 1739.6,578.55 1740.32,578.55 1741.03,578.55 1741.74,578.55 1742.46,578.55 1743.17,578.55 1743.89,578.55 1744.6,578.55 1745.31,578.55 1746.03,578.55 1746.74,578.55 1747.46,578.55 1748.17,578.55 1748.88,578.55 1749.6,578.55 1750.31,578.55 1751.02,578.55 1751.74,578.55 1752.45,578.55 1753.17,578.55 1753.88,578.55 1754.59,578.55 1755.31,578.55 1756.02,578.55 1756.73,578.55 1757.45,578.55 1758.16,578.55 1758.88,578.55 1759.59,578.55 1760.3,578.55 1761.02,578.55 1761.73,578.55 1762.44,578.55 1763.16,578.55 1763.87,578.55 1764.59,578.55 1765.3,578.55 1766.01,578.55 1766.73,578.55 1767.44,578.55 1768.16,578.55 1768.87,578.55 1769.58,578.55 1770.3,578.55 1771.01,578.55 1771.72,578.55 1772.44,578.55 1773.15,578.55 1773.87,533.79 1774.58,533.79 1775.29,533.79 1776.01,533.79 1776.72,533.79 1777.43,533.79 1778.15,533.79 1778.86,533.79 1779.58,533.79 1780.29,533.79 1781,533.79 1781.72,533.79 1782.43,533.79 1783.15,533.79 1783.86,533.79 1784.57,533.79 1785.29,533.79 1786,533.79 1786.71,533.79 1787.43,533.79 1788.14,533.79 1788.86,533.79 1789.57,533.79 1790.28,533.79 1791,533.79 1791.71,533.79 1792.42,533.79 1793.14,533.79 1793.85,533.79 1794.57,533.79 1795.28,533.79 1795.99,533.79 1796.71,533.79 1797.42,533.79 1798.13,533.79 1798.85,533.79 1799.56,533.79 1800.28,533.79 1800.99,533.79 1801.7,533.79 1802.42,533.79 1803.13,533.79 1803.85,533.79 1804.56,533.79 1805.27,533.79 1805.99,533.79 1806.7,533.79 1807.41,533.79 1808.13,533.79 1808.84,533.79 1809.56,533.79 1810.27,533.79 1810.98,533.79 1811.7,533.79 1812.41,533.79 1813.12,533.79 1813.84,533.79 1814.55,533.79 1815.27,533.79 1815.98,533.79 1816.69,533.79 1817.41,533.79 1818.12,533.79 1818.83,533.79 1819.55,533.79 1820.26,533.79 1820.98,533.79 1821.69,533.79 1822.4,533.79 1823.12,533.79 1823.83,533.79 1824.55,533.79 1825.26,533.79 1825.97,533.79 1826.69,533.79 1827.4,533.79 1828.11,533.79 1828.83,533.79 1829.54,533.79 1830.26,533.79 1830.97,533.79 1831.68,533.79 1832.4,533.79 1833.11,533.79 1833.82,533.79 1834.54,533.79 1835.25,533.79 1835.97,533.79 1836.68,533.79 1837.39,533.79 1838.11,533.79 1838.82,533.79 1839.54,533.79 1840.25,533.79 1840.96,533.79 1841.68,533.79 1842.39,533.79 1843.1,533.79 1843.82,533.79 1844.53,533.79 1845.25,533.79 1845.96,533.79 1846.67,533.79 1847.39,533.79 1848.1,533.79 1848.81,533.79 1849.53,533.79 1850.24,533.79 1850.96,533.79 1851.67,533.79 1852.38,533.79 1853.1,533.79 1853.81,533.79 1854.52,533.79 1855.24,533.79 1855.95,533.79 1856.67,533.79 1857.38,533.79 1858.09,533.79 1858.81,533.79 1859.52,533.79 1860.24,533.79 1860.95,533.79 1861.66,533.79 1862.38,533.79 1863.09,533.79 1863.8,533.79 1864.52,533.79 1865.23,533.79 1865.95,533.79 1866.66,533.79 1867.37,533.79 1868.09,533.79 1868.8,533.79 1869.51,533.79 1870.23,533.79 1870.94,533.79 1871.66,533.79 1872.37,533.79 1873.08,533.79 1873.8,533.79 1874.51,533.79 1875.22,533.79 1875.94,533.79 1876.65,533.79 1877.37,533.79 1878.08,533.79 1878.79,533.79 1879.51,533.79 1880.22,533.79 1880.94,533.79 1881.65,533.79 1882.36,533.79 1883.08,533.79 1883.79,533.79 1884.5,533.79 1885.22,533.79 1885.93,489.03 1886.65,489.03 1887.36,489.03 1888.07,489.03 1888.79,489.03 1889.5,489.03 1890.21,489.03 1890.93,489.03 1891.64,489.03 1892.36,489.03 1893.07,489.03 1893.78,489.03 1894.5,489.03 1895.21,489.03 1895.93,489.03 1896.64,489.03 1897.35,489.03 1898.07,489.03 1898.78,489.03 1899.49,489.03 1900.21,489.03 1900.92,489.03 1901.64,489.03 1902.35,489.03 1903.06,489.03 1903.78,489.03 1904.49,489.03 1905.2,489.03 1905.92,489.03 1906.63,489.03 1907.35,489.03 1908.06,489.03 1908.77,489.03 1909.49,489.03 1910.2,489.03 1910.91,489.03 1911.63,489.03 1912.34,489.03 1913.06,489.03 1913.77,489.03 1914.48,489.03 1915.2,489.03 1915.91,489.03 1916.63,489.03 1917.34,489.03 1918.05,489.03 1918.77,489.03 1919.48,489.03 1920.19,489.03 1920.91,489.03 1921.62,489.03 1922.34,489.03 1923.05,489.03 1923.76,489.03 1924.48,489.03 1925.19,489.03 1925.9,489.03 1926.62,489.03 1927.33,444.269 1928.05,444.269 1928.76,444.269 1929.47,444.269 1930.19,444.269 1930.9,444.269 1931.62,444.269 1932.33,444.269 1933.04,444.269 1933.76,444.269 1934.47,444.269 1935.18,444.269 1935.9,444.269 1936.61,444.269 1937.33,444.269 1938.04,444.269 1938.75,444.269 1939.47,444.269 1940.18,444.269 1940.89,444.269 1941.61,444.269 1942.32,444.269 1943.04,444.269 1943.75,444.269 1944.46,444.269 1945.18,444.269 1945.89,444.269 1946.6,444.269 1947.32,444.269 1948.03,444.269 1948.75,444.269 1949.46,444.269 1950.17,444.269 1950.89,444.269 1951.6,444.269 1952.32,444.269 1953.03,444.269 1953.74,444.269 1954.46,444.269 1955.17,444.269 1955.88,444.269 1956.6,444.269 1957.31,444.269 1958.03,444.269 1958.74,444.269 1959.45,444.269 1960.17,444.269 1960.88,444.269 1961.59,444.269 1962.31,444.269 1963.02,444.269 1963.74,444.269 1964.45,444.269 1965.16,444.269 1965.88,444.269 1966.59,444.269 1967.3,444.269 1968.02,444.269 1968.73,444.269 1969.45,444.269 1970.16,444.269 1970.87,444.269 1971.59,444.269 1972.3,444.269 1973.02,444.269 1973.73,444.269 1974.44,444.269 1975.16,444.269 1975.87,444.269 1976.58,444.269 1977.3,444.269 1978.01,444.269 1978.73,444.269 1979.44,444.269 1980.15,444.269 1980.87,444.269 1981.58,444.269 1982.29,444.269 1983.01,444.269 1983.72,444.269 1984.44,444.269 1985.15,444.269 1985.86,444.269 1986.58,444.269 1987.29,444.269 1988.01,444.269 1988.72,444.269 1989.43,444.269 1990.15,444.269 1990.86,444.269 1991.57,444.269 1992.29,444.269 1993,444.269 1993.72,444.269 1994.43,444.269 1995.14,444.269 1995.86,444.269 1996.57,444.269 1997.28,444.269 1998,444.269 1998.71,444.269 1999.43,444.269 2000.14,444.269 2000.85,444.269 2001.57,444.269 2002.28,444.269 2002.99,444.269 2003.71,444.269 2004.42,444.269 2005.14,444.269 2005.85,444.269 2006.56,444.269 2007.28,444.269 2007.99,444.269 2008.71,444.269 2009.42,444.269 2010.13,444.269 2010.85,444.269 2011.56,444.269 2012.27,444.269 2012.99,444.269 2013.7,444.269 2014.42,444.269 2015.13,444.269 2015.84,444.269 2016.56,444.269 2017.27,444.269 2017.98,444.269 2018.7,444.269 2019.41,444.269 2020.13,444.269 2020.84,444.269 2021.55,444.269 2022.27,399.509 2022.98,399.509 2023.69,399.509 2024.41,354.748 2025.12,354.748 2025.84,354.748 2026.55,354.748 2027.26,354.748 2027.98,354.748 2028.69,354.748 2029.41,354.748 2030.12,354.748 2030.83,354.748 2031.55,354.748 2032.26,354.748 2032.97,354.748 2033.69,354.748 2034.4,354.748 2035.12,354.748 2035.83,354.748 2036.54,354.748 2037.26,354.748 2037.97,354.748 2038.68,354.748 2039.4,354.748 2040.11,354.748 2040.83,354.748 2041.54,354.748 2042.25,354.748 2042.97,354.748 2043.68,354.748 2044.4,354.748 2045.11,354.748 2045.82,354.748 2046.54,354.748 2047.25,354.748 2047.96,354.748 2048.68,354.748 2049.39,354.748 2050.11,354.748 2050.82,354.748 2051.53,354.748 2052.25,354.748 2052.96,354.748 2053.67,354.748 2054.39,354.748 2055.1,354.748 2055.82,354.748 2056.53,354.748 2057.24,354.748 2057.96,354.748 2058.67,354.748 2059.38,354.748 2060.1,354.748 2060.81,354.748 2061.53,354.748 2062.24,354.748 2062.95,354.748 2063.67,354.748 2064.38,354.748 2065.1,354.748 2065.81,354.748 2066.52,354.748 2067.24,354.748 2067.95,354.748 2068.66,354.748 2069.38,354.748 2070.09,354.748 2070.81,354.748 2071.52,354.748 2072.23,354.748 2072.95,354.748 2073.66,354.748 2074.37,354.748 2075.09,354.748 2075.8,354.748 2076.52,354.748 2077.23,354.748 2077.94,354.748 2078.66,354.748 2079.37,354.748 2080.09,354.748 2080.8,354.748 2081.51,354.748 2082.23,354.748 2082.94,354.748 2083.65,354.748 2084.37,354.748 2085.08,354.748 2085.8,354.748 2086.51,354.748 2087.22,354.748 2087.94,354.748 2088.65,354.748 2089.36,354.748 2090.08,354.748 2090.79,354.748 2091.51,354.748 2092.22,354.748 2092.93,354.748 2093.65,354.748 2094.36,354.748 2095.07,354.748 2095.79,354.748 2096.5,354.748 2097.22,354.748 2097.93,354.748 2098.64,354.748 2099.36,354.748 2100.07,354.748 2100.79,354.748 2101.5,354.748 2102.21,354.748 2102.93,354.748 2103.64,354.748 2104.35,354.748 2105.07,354.748 2105.78,354.748 2106.5,354.748 2107.21,354.748 2107.92,354.748 2108.64,354.748 2109.35,309.988 2110.06,309.988 2110.78,309.988 2111.49,309.988 2112.21,309.988 2112.92,309.988 2113.63,309.988 2114.35,309.988 2115.06,309.988 2115.77,309.988 2116.49,309.988 2117.2,309.988 2117.92,309.988 2118.63,309.988 2119.34,309.988 2120.06,309.988 2120.77,309.988 2121.49,309.988 2122.2,309.988 2122.91,309.988 2123.63,309.988 2124.34,309.988 2125.05,309.988 2125.77,309.988 2126.48,309.988 2127.2,309.988 2127.91,309.988 2128.62,309.988 2129.34,309.988 2130.05,309.988 2130.76,309.988 2131.48,309.988 2132.19,309.988 2132.91,309.988 2133.62,309.988 2134.33,309.988 2135.05,309.988 2135.76,309.988 2136.48,309.988 2137.19,309.988 2137.9,309.988 2138.62,309.988 2139.33,309.988 2140.04,309.988 2140.76,309.988 2141.47,309.988 2142.19,309.988 2142.9,309.988 2143.61,309.988 2144.33,309.988 2145.04,309.988 2145.75,309.988 2146.47,309.988 2147.18,309.988 2147.9,309.988 2148.61,265.227 2149.32,265.227 2150.04,265.227 2150.75,265.227 2151.46,265.227 2152.18,265.227 2152.89,265.227 2153.61,265.227 2154.32,265.227 2155.03,220.467 2155.75,220.467 2156.46,220.467 2157.18,220.467 2157.89,220.467 2158.6,220.467 2159.32,220.467 2160.03,220.467 2160.74,220.467 2161.46,220.467 2162.17,220.467 2162.89,220.467 2163.6,175.707 2164.31,175.707 2165.03,175.707 2165.74,175.707 2166.45,175.707 2167.17,175.707 2167.88,175.707 2168.6,175.707 2169.31,175.707 2170.02,175.707 2170.74,175.707 2171.45,175.707 2172.16,175.707 2172.88,175.707 2173.59,175.707 2174.31,175.707 2175.02,175.707 2175.73,175.707 2176.45,175.707 2177.16,175.707 2177.88,175.707 2178.59,175.707 2179.3,175.707 2180.02,175.707 2180.73,175.707 2181.44,175.707 2182.16,175.707 2182.87,175.707 2183.59,175.707 2184.3,175.707 2185.01,175.707 2185.73,175.707 2186.44,175.707 2187.15,175.707 2187.87,175.707 2188.58,175.707 2189.3,175.707 2190.01,175.707 2190.72,175.707 2191.44,175.707 2192.15,175.707 2192.87,175.707 2193.58,175.707 2194.29,175.707 2195.01,175.707 2195.72,175.707 2196.43,175.707 2197.15,175.707 2197.86,175.707 2198.58,175.707 2199.29,175.707 2200,175.707 2200.72,175.707 2201.43,175.707 2202.14,175.707 2202.86,175.707 2203.57,175.707 2204.29,175.707 2205,175.707 2205.71,175.707 2206.43,175.707 2207.14,175.707 2207.85,175.707 2208.57,175.707 2209.28,175.707 2210,175.707 2210.71,175.707 2211.42,175.707 2212.14,175.707 2212.85,175.707 2213.57,175.707 2214.28,175.707 2214.99,175.707 2215.71,175.707 2216.42,175.707 2217.13,175.707 2217.85,175.707 2218.56,175.707 2219.28,175.707 2219.99,175.707 2220.7,175.707 2221.42,175.707 2222.13,175.707 2222.84,175.707 2223.56,175.707 2224.27,175.707 2224.99,175.707 2225.7,175.707 2226.41,175.707 2227.13,175.707 2227.84,175.707 2228.56,175.707 2229.27,175.707 2229.98,175.707 2230.7,175.707 2231.41,175.707 2232.12,175.707 2232.84,175.707 2233.55,175.707 2234.27,175.707 2234.98,175.707 2235.69,175.707 2236.41,175.707 2237.12,175.707 2237.83,175.707 2238.55,175.707 2239.26,175.707 2239.98,175.707 2240.69,175.707 2241.4,175.707 2242.12,175.707 2242.83,175.707 2243.54,175.707 2244.26,175.707 2244.97,175.707 2245.69,175.707 2246.4,175.707 2247.11,175.707 2247.83,175.707 2248.54,130.946 2249.26,130.946 2249.97,130.946 2250.68,130.946 2251.4,130.946 2252.11,130.946 2252.82,130.946 2253.54,130.946 2254.25,130.946 2254.97,130.946 2255.68,130.946 2256.39,130.946 2257.11,130.946 2257.82,130.946 2258.53,130.946 2259.25,130.946 2259.96,130.946 2260.68,130.946 2261.39,130.946 2262.1,130.946 2262.82,130.946 2263.53,130.946 2264.24,130.946 2264.96,130.946 2265.67,130.946 2266.39,130.946 2267.1,130.946 2267.81,130.946 2268.53,130.946 2269.24,130.946 2269.96,130.946 2270.67,130.946 2271.38,130.946 2272.1,130.946 2272.81,130.946 2273.52,130.946 2274.24,130.946 2274.95,130.946 2275.67,130.946 2276.38,130.946 2277.09,130.946 2277.81,130.946 2278.52,130.946 2279.23,130.946 2279.95,130.946 2280.66,130.946 2281.38,130.946 2282.09,130.946 2282.8,130.946 2283.52,130.946 2284.23,130.946 2284.95,130.946 2285.66,130.946 2286.37,130.946 2287.09,130.946 2287.8,130.946 2288.51,130.946 2289.23,130.946 2289.94,130.946 2290.66,130.946 2291.37,130.946 2292.08,130.946 2292.8,130.946 2293.51,130.946 2294.22,130.946 2294.94,130.946 2295.65,130.946 2296.37,130.946 2297.08,130.946 2297.79,130.946 2298.51,130.946 2299.22,130.946 2299.93,130.946 2300.65,130.946 2301.36,130.946 2302.08,130.946 2302.79,130.946 2303.5,130.946 2304.22,130.946 2304.93,130.946 2305.65,130.946 2306.36,130.946 2307.07,130.946 2307.79,130.946 2308.5,86.1857 2309.21,86.1857 2309.93,86.1857 2310.64,86.1857 2311.36,86.1857 2312.07,86.1857 2312.78,86.1857 2313.5,86.1857 2314.21,86.1857 2314.92,86.1857 2315.64,86.1857 2316.35,86.1857 2317.07,86.1857 2317.78,86.1857 2318.49,86.1857 2319.21,86.1857 2319.92,86.1857 2320.63,86.1857 2321.35,86.1857 2322.06,86.1857 2322.78,86.1857 2323.49,86.1857 2324.2,86.1857 2324.92,86.1857 2325.63,86.1857 2326.35,86.1857 2327.06,86.1857 2327.77,86.1857 2328.49,86.1857 2329.2,86.1857 2329.91,86.1857 2330.63,86.1857 2331.34,86.1857 2332.06,86.1857 2332.77,86.1857 2333.48,86.1857 2334.2,86.1857 2334.91,86.1857 2335.62,86.1857 2336.34,86.1857 2337.05,86.1857 2337.77,86.1857 2338.48,86.1857 2339.19,86.1857 2339.91,86.1857 2340.62,86.1857 2341.34,86.1857 2342.05,86.1857 2342.76,86.1857 2343.48,86.1857 2344.19,86.1857 2344.9,86.1857 2345.62,86.1857 2346.33,86.1857 2347.05,86.1857 2347.76,86.1857 2348.47,86.1857 2349.19,86.1857 2349.9,86.1857 2350.61,86.1857 2351.33,86.1857 2352.04,86.1857 2352.76,86.1857 "/>
<path clip-path="url(#clip250)" d="M1975.5 1377.32 L2279.02 1377.32 L2279.02 1273.64 L1975.5 1273.64  Z" fill="#ffffff" fill-rule="evenodd" fill-opacity="1"/>
<polyline clip-path="url(#clip250)" style="stroke:#000000; stroke-linecap:round; stroke-linejoin:round; stroke-width:4; stroke-opacity:1; fill:none" points="1975.5,1377.32 2279.02,1377.32 2279.02,1273.64 1975.5,1273.64 1975.5,1377.32 "/>
<polyline clip-path="url(#clip250)" style="stroke:#009af9; stroke-linecap:round; stroke-linejoin:round; stroke-width:8; stroke-opacity:1; fill:none" points="2000.08,1325.48 2147.55,1325.48 "/>
<path clip-path="url(#clip250)" d="M2172.13 1308.2 L2178.42 1308.2 L2193.75 1337.11 L2193.75 1308.2 L2198.29 1308.2 L2198.29 1342.76 L2191.99 1342.76 L2176.66 1313.84 L2176.66 1342.76 L2172.13 1342.76 L2172.13 1308.2 Z" fill="#000000" fill-rule="nonzero" fill-opacity="1" /><path clip-path="url(#clip250)" d="M2217.64 1306.78 Q2214.53 1312.11 2213.03 1317.32 Q2211.53 1322.52 2211.53 1327.87 Q2211.53 1333.22 2213.03 1338.47 Q2214.56 1343.7 2217.64 1349.01 L2213.93 1349.01 Q2210.46 1343.57 2208.72 1338.31 Q2207.01 1333.06 2207.01 1327.87 Q2207.01 1322.71 2208.72 1317.48 Q2210.44 1312.25 2213.93 1306.78 L2217.64 1306.78 Z" fill="#000000" fill-rule="nonzero" fill-opacity="1" /><path clip-path="url(#clip250)" d="M2230.11 1309.47 L2230.11 1316.83 L2238.89 1316.83 L2238.89 1320.14 L2230.11 1320.14 L2230.11 1334.21 Q2230.11 1337.38 2230.97 1338.29 Q2231.85 1339.19 2234.51 1339.19 L2238.89 1339.19 L2238.89 1342.76 L2234.51 1342.76 Q2229.58 1342.76 2227.71 1340.93 Q2225.83 1339.07 2225.83 1334.21 L2225.83 1320.14 L2222.71 1320.14 L2222.71 1316.83 L2225.83 1316.83 L2225.83 1309.47 L2230.11 1309.47 Z" fill="#000000" fill-rule="nonzero" fill-opacity="1" /><path clip-path="url(#clip250)" d="M2243.82 1306.78 L2247.52 1306.78 Q2250.99 1312.25 2252.71 1317.48 Q2254.44 1322.71 2254.44 1327.87 Q2254.44 1333.06 2252.71 1338.31 Q2250.99 1343.57 2247.52 1349.01 L2243.82 1349.01 Q2246.9 1343.7 2248.4 1338.47 Q2249.93 1333.22 2249.93 1327.87 Q2249.93 1322.52 2248.4 1317.32 Q2246.9 1312.11 2243.82 1306.78 Z" fill="#000000" fill-rule="nonzero" fill-opacity="1" /></svg>
