<?xml version="1.0" encoding="utf-8"?>
<svg xmlns="http://www.w3.org/2000/svg" xmlns:xlink="http://www.w3.org/1999/xlink" width="600" height="400" viewBox="0 0 2400 1600">
<defs>
  <clipPath id="clip300">
    <rect x="0" y="0" width="2400" height="1600"/>
  </clipPath>
</defs>
<path clip-path="url(#clip300)" d="M0 1600 L2400 1600 L2400 0 L0 0  Z" fill="#ffffff" fill-rule="evenodd" fill-opacity="1"/>
<defs>
  <clipPath id="clip301">
    <rect x="480" y="0" width="1681" height="1600"/>
  </clipPath>
</defs>
<path clip-path="url(#clip300)" d="M155.927 1486.45 L2352.76 1486.45 L2352.76 47.2441 L155.927 47.2441  Z" fill="#ffffff" fill-rule="evenodd" fill-opacity="1"/>
<defs>
  <clipPath id="clip302">
    <rect x="155" y="47" width="2198" height="1440"/>
  </clipPath>
</defs>
<polyline clip-path="url(#clip302)" style="stroke:#000000; stroke-linecap:round; stroke-linejoin:round; stroke-width:2; stroke-opacity:0.1; fill:none" points="216.131,1486.45 216.131,47.2441 "/>
<polyline clip-path="url(#clip302)" style="stroke:#000000; stroke-linecap:round; stroke-linejoin:round; stroke-width:2; stroke-opacity:0.1; fill:none" points="708.641,1486.45 708.641,47.2441 "/>
<polyline clip-path="url(#clip302)" style="stroke:#000000; stroke-linecap:round; stroke-linejoin:round; stroke-width:2; stroke-opacity:0.1; fill:none" points="1201.15,1486.45 1201.15,47.2441 "/>
<polyline clip-path="url(#clip302)" style="stroke:#000000; stroke-linecap:round; stroke-linejoin:round; stroke-width:2; stroke-opacity:0.1; fill:none" points="1693.66,1486.45 1693.66,47.2441 "/>
<polyline clip-path="url(#clip302)" style="stroke:#000000; stroke-linecap:round; stroke-linejoin:round; stroke-width:2; stroke-opacity:0.1; fill:none" points="2186.17,1486.45 2186.17,47.2441 "/>
<polyline clip-path="url(#clip302)" style="stroke:#000000; stroke-linecap:round; stroke-linejoin:round; stroke-width:2; stroke-opacity:0.1; fill:none" points="155.927,1445.72 2352.76,1445.72 "/>
<polyline clip-path="url(#clip302)" style="stroke:#000000; stroke-linecap:round; stroke-linejoin:round; stroke-width:2; stroke-opacity:0.1; fill:none" points="155.927,1162.6 2352.76,1162.6 "/>
<polyline clip-path="url(#clip302)" style="stroke:#000000; stroke-linecap:round; stroke-linejoin:round; stroke-width:2; stroke-opacity:0.1; fill:none" points="155.927,879.482 2352.76,879.482 "/>
<polyline clip-path="url(#clip302)" style="stroke:#000000; stroke-linecap:round; stroke-linejoin:round; stroke-width:2; stroke-opacity:0.1; fill:none" points="155.927,596.366 2352.76,596.366 "/>
<polyline clip-path="url(#clip302)" style="stroke:#000000; stroke-linecap:round; stroke-linejoin:round; stroke-width:2; stroke-opacity:0.1; fill:none" points="155.927,313.249 2352.76,313.249 "/>
<polyline clip-path="url(#clip300)" style="stroke:#000000; stroke-linecap:round; stroke-linejoin:round; stroke-width:4; stroke-opacity:1; fill:none" points="155.927,1486.45 2352.76,1486.45 "/>
<polyline clip-path="url(#clip300)" style="stroke:#000000; stroke-linecap:round; stroke-linejoin:round; stroke-width:4; stroke-opacity:1; fill:none" points="216.131,1486.45 216.131,1467.55 "/>
<polyline clip-path="url(#clip300)" style="stroke:#000000; stroke-linecap:round; stroke-linejoin:round; stroke-width:4; stroke-opacity:1; fill:none" points="708.641,1486.45 708.641,1467.55 "/>
<polyline clip-path="url(#clip300)" style="stroke:#000000; stroke-linecap:round; stroke-linejoin:round; stroke-width:4; stroke-opacity:1; fill:none" points="1201.15,1486.45 1201.15,1467.55 "/>
<polyline clip-path="url(#clip300)" style="stroke:#000000; stroke-linecap:round; stroke-linejoin:round; stroke-width:4; stroke-opacity:1; fill:none" points="1693.66,1486.45 1693.66,1467.55 "/>
<polyline clip-path="url(#clip300)" style="stroke:#000000; stroke-linecap:round; stroke-linejoin:round; stroke-width:4; stroke-opacity:1; fill:none" points="2186.17,1486.45 2186.17,1467.55 "/>
<path clip-path="url(#clip300)" d="M216.131 1517.37 Q212.52 1517.37 210.692 1520.93 Q208.886 1524.47 208.886 1531.6 Q208.886 1538.71 210.692 1542.27 Q212.52 1545.82 216.131 1545.82 Q219.766 1545.82 221.571 1542.27 Q223.4 1538.71 223.4 1531.6 Q223.4 1524.47 221.571 1520.93 Q219.766 1517.37 216.131 1517.37 M216.131 1513.66 Q221.941 1513.66 224.997 1518.27 Q228.076 1522.85 228.076 1531.6 Q228.076 1540.33 224.997 1544.94 Q221.941 1549.52 216.131 1549.52 Q210.321 1549.52 207.242 1544.94 Q204.187 1540.33 204.187 1531.6 Q204.187 1522.85 207.242 1518.27 Q210.321 1513.66 216.131 1513.66 Z" fill="#000000" fill-rule="nonzero" fill-opacity="1" /><path clip-path="url(#clip300)" d="M672.333 1544.91 L688.653 1544.91 L688.653 1548.85 L666.708 1548.85 L666.708 1544.91 Q669.37 1542.16 673.954 1537.53 Q678.56 1532.88 679.741 1531.53 Q681.986 1529.01 682.866 1527.27 Q683.768 1525.51 683.768 1523.82 Q683.768 1521.07 681.824 1519.33 Q679.903 1517.6 676.801 1517.6 Q674.602 1517.6 672.148 1518.36 Q669.717 1519.13 666.94 1520.68 L666.94 1515.95 Q669.764 1514.82 672.217 1514.24 Q674.671 1513.66 676.708 1513.66 Q682.078 1513.66 685.273 1516.35 Q688.467 1519.03 688.467 1523.52 Q688.467 1525.65 687.657 1527.57 Q686.87 1529.47 684.764 1532.07 Q684.185 1532.74 681.083 1535.95 Q677.981 1539.15 672.333 1544.91 Z" fill="#000000" fill-rule="nonzero" fill-opacity="1" /><path clip-path="url(#clip300)" d="M698.514 1514.29 L716.87 1514.29 L716.87 1518.22 L702.796 1518.22 L702.796 1526.7 Q703.814 1526.35 704.833 1526.19 Q705.852 1526 706.87 1526 Q712.657 1526 716.037 1529.17 Q719.416 1532.34 719.416 1537.76 Q719.416 1543.34 715.944 1546.44 Q712.472 1549.52 706.152 1549.52 Q703.977 1549.52 701.708 1549.15 Q699.463 1548.78 697.055 1548.04 L697.055 1543.34 Q699.139 1544.47 701.361 1545.03 Q703.583 1545.58 706.06 1545.58 Q710.064 1545.58 712.402 1543.48 Q714.74 1541.37 714.74 1537.76 Q714.74 1534.15 712.402 1532.04 Q710.064 1529.94 706.06 1529.94 Q704.185 1529.94 702.31 1530.35 Q700.458 1530.77 698.514 1531.65 L698.514 1514.29 Z" fill="#000000" fill-rule="nonzero" fill-opacity="1" /><path clip-path="url(#clip300)" d="M738.629 1517.37 Q735.018 1517.37 733.189 1520.93 Q731.384 1524.47 731.384 1531.6 Q731.384 1538.71 733.189 1542.27 Q735.018 1545.82 738.629 1545.82 Q742.263 1545.82 744.069 1542.27 Q745.898 1538.71 745.898 1531.6 Q745.898 1524.47 744.069 1520.93 Q742.263 1517.37 738.629 1517.37 M738.629 1513.66 Q744.439 1513.66 747.495 1518.27 Q750.573 1522.85 750.573 1531.6 Q750.573 1540.33 747.495 1544.94 Q744.439 1549.52 738.629 1549.52 Q732.819 1549.52 729.74 1544.94 Q726.685 1540.33 726.685 1531.6 Q726.685 1522.85 729.74 1518.27 Q732.819 1513.66 738.629 1513.66 Z" fill="#000000" fill-rule="nonzero" fill-opacity="1" /><path clip-path="url(#clip300)" d="M1160.77 1514.29 L1179.13 1514.29 L1179.13 1518.22 L1165.05 1518.22 L1165.05 1526.7 Q1166.07 1526.35 1167.09 1526.19 Q1168.11 1526 1169.13 1526 Q1174.91 1526 1178.29 1529.17 Q1181.67 1532.34 1181.67 1537.76 Q1181.67 1543.34 1178.2 1546.44 Q1174.73 1549.52 1168.41 1549.52 Q1166.23 1549.52 1163.96 1549.15 Q1161.72 1548.78 1159.31 1548.04 L1159.31 1543.34 Q1161.39 1544.47 1163.62 1545.03 Q1165.84 1545.58 1168.31 1545.58 Q1172.32 1545.58 1174.66 1543.48 Q1177 1541.37 1177 1537.76 Q1177 1534.15 1174.66 1532.04 Q1172.32 1529.94 1168.31 1529.94 Q1166.44 1529.94 1164.56 1530.35 Q1162.71 1530.77 1160.77 1531.65 L1160.77 1514.29 Z" fill="#000000" fill-rule="nonzero" fill-opacity="1" /><path clip-path="url(#clip300)" d="M1200.88 1517.37 Q1197.27 1517.37 1195.44 1520.93 Q1193.64 1524.47 1193.64 1531.6 Q1193.64 1538.71 1195.44 1542.27 Q1197.27 1545.82 1200.88 1545.82 Q1204.52 1545.82 1206.32 1542.27 Q1208.15 1538.71 1208.15 1531.6 Q1208.15 1524.47 1206.32 1520.93 Q1204.52 1517.37 1200.88 1517.37 M1200.88 1513.66 Q1206.69 1513.66 1209.75 1518.27 Q1212.83 1522.85 1212.83 1531.6 Q1212.83 1540.33 1209.75 1544.94 Q1206.69 1549.52 1200.88 1549.52 Q1195.07 1549.52 1192 1544.94 Q1188.94 1540.33 1188.94 1531.6 Q1188.94 1522.85 1192 1518.27 Q1195.07 1513.66 1200.88 1513.66 Z" fill="#000000" fill-rule="nonzero" fill-opacity="1" /><path clip-path="url(#clip300)" d="M1231.05 1517.37 Q1227.43 1517.37 1225.61 1520.93 Q1223.8 1524.47 1223.8 1531.6 Q1223.8 1538.71 1225.61 1542.27 Q1227.43 1545.82 1231.05 1545.82 Q1234.68 1545.82 1236.49 1542.27 Q1238.31 1538.71 1238.31 1531.6 Q1238.31 1524.47 1236.49 1520.93 Q1234.68 1517.37 1231.05 1517.37 M1231.05 1513.66 Q1236.86 1513.66 1239.91 1518.27 Q1242.99 1522.85 1242.99 1531.6 Q1242.99 1540.33 1239.91 1544.94 Q1236.86 1549.52 1231.05 1549.52 Q1225.24 1549.52 1222.16 1544.94 Q1219.1 1540.33 1219.1 1531.6 Q1219.1 1522.85 1222.16 1518.27 Q1225.24 1513.66 1231.05 1513.66 Z" fill="#000000" fill-rule="nonzero" fill-opacity="1" /><path clip-path="url(#clip300)" d="M1651.94 1514.29 L1674.16 1514.29 L1674.16 1516.28 L1661.61 1548.85 L1656.73 1548.85 L1668.53 1518.22 L1651.94 1518.22 L1651.94 1514.29 Z" fill="#000000" fill-rule="nonzero" fill-opacity="1" /><path clip-path="url(#clip300)" d="M1683.32 1514.29 L1701.68 1514.29 L1701.68 1518.22 L1687.61 1518.22 L1687.61 1526.7 Q1688.63 1526.35 1689.64 1526.19 Q1690.66 1526 1691.68 1526 Q1697.47 1526 1700.85 1529.17 Q1704.23 1532.34 1704.23 1537.76 Q1704.23 1543.34 1700.75 1546.44 Q1697.28 1549.52 1690.96 1549.52 Q1688.79 1549.52 1686.52 1549.15 Q1684.27 1548.78 1681.87 1548.04 L1681.87 1543.34 Q1683.95 1544.47 1686.17 1545.03 Q1688.39 1545.58 1690.87 1545.58 Q1694.88 1545.58 1697.21 1543.48 Q1699.55 1541.37 1699.55 1537.76 Q1699.55 1534.15 1697.21 1532.04 Q1694.88 1529.94 1690.87 1529.94 Q1689 1529.94 1687.12 1530.35 Q1685.27 1530.77 1683.32 1531.65 L1683.32 1514.29 Z" fill="#000000" fill-rule="nonzero" fill-opacity="1" /><path clip-path="url(#clip300)" d="M1723.44 1517.37 Q1719.83 1517.37 1718 1520.93 Q1716.19 1524.47 1716.19 1531.6 Q1716.19 1538.71 1718 1542.27 Q1719.83 1545.82 1723.44 1545.82 Q1727.07 1545.82 1728.88 1542.27 Q1730.71 1538.71 1730.71 1531.6 Q1730.71 1524.47 1728.88 1520.93 Q1727.07 1517.37 1723.44 1517.37 M1723.44 1513.66 Q1729.25 1513.66 1732.31 1518.27 Q1735.38 1522.85 1735.38 1531.6 Q1735.38 1540.33 1732.31 1544.94 Q1729.25 1549.52 1723.44 1549.52 Q1717.63 1549.52 1714.55 1544.94 Q1711.5 1540.33 1711.5 1531.6 Q1711.5 1522.85 1714.55 1518.27 Q1717.63 1513.66 1723.44 1513.66 Z" fill="#000000" fill-rule="nonzero" fill-opacity="1" /><path clip-path="url(#clip300)" d="M2130.7 1544.91 L2138.33 1544.91 L2138.33 1518.55 L2130.02 1520.21 L2130.02 1515.95 L2138.29 1514.29 L2142.96 1514.29 L2142.96 1544.91 L2150.6 1544.91 L2150.6 1548.85 L2130.7 1548.85 L2130.7 1544.91 Z" fill="#000000" fill-rule="nonzero" fill-opacity="1" /><path clip-path="url(#clip300)" d="M2170.05 1517.37 Q2166.44 1517.37 2164.61 1520.93 Q2162.8 1524.47 2162.8 1531.6 Q2162.8 1538.71 2164.61 1542.27 Q2166.44 1545.82 2170.05 1545.82 Q2173.68 1545.82 2175.49 1542.27 Q2177.32 1538.71 2177.32 1531.6 Q2177.32 1524.47 2175.49 1520.93 Q2173.68 1517.37 2170.05 1517.37 M2170.05 1513.66 Q2175.86 1513.66 2178.91 1518.27 Q2181.99 1522.85 2181.99 1531.6 Q2181.99 1540.33 2178.91 1544.94 Q2175.86 1549.52 2170.05 1549.52 Q2164.24 1549.52 2161.16 1544.94 Q2158.1 1540.33 2158.1 1531.6 Q2158.1 1522.85 2161.16 1518.27 Q2164.24 1513.66 2170.05 1513.66 Z" fill="#000000" fill-rule="nonzero" fill-opacity="1" /><path clip-path="url(#clip300)" d="M2200.21 1517.37 Q2196.6 1517.37 2194.77 1520.93 Q2192.96 1524.47 2192.96 1531.6 Q2192.96 1538.71 2194.77 1542.27 Q2196.6 1545.82 2200.21 1545.82 Q2203.84 1545.82 2205.65 1542.27 Q2207.48 1538.71 2207.48 1531.6 Q2207.48 1524.47 2205.65 1520.93 Q2203.84 1517.37 2200.21 1517.37 M2200.21 1513.66 Q2206.02 1513.66 2209.07 1518.27 Q2212.15 1522.85 2212.15 1531.6 Q2212.15 1540.33 2209.07 1544.94 Q2206.02 1549.52 2200.21 1549.52 Q2194.4 1549.52 2191.32 1544.94 Q2188.26 1540.33 2188.26 1531.6 Q2188.26 1522.85 2191.32 1518.27 Q2194.4 1513.66 2200.21 1513.66 Z" fill="#000000" fill-rule="nonzero" fill-opacity="1" /><path clip-path="url(#clip300)" d="M2230.37 1517.37 Q2226.76 1517.37 2224.93 1520.93 Q2223.13 1524.47 2223.13 1531.6 Q2223.13 1538.71 2224.93 1542.27 Q2226.76 1545.82 2230.37 1545.82 Q2234 1545.82 2235.81 1542.27 Q2237.64 1538.71 2237.64 1531.6 Q2237.64 1524.47 2235.81 1520.93 Q2234 1517.37 2230.37 1517.37 M2230.37 1513.66 Q2236.18 1513.66 2239.24 1518.27 Q2242.32 1522.85 2242.32 1531.6 Q2242.32 1540.33 2239.24 1544.94 Q2236.18 1549.52 2230.37 1549.52 Q2224.56 1549.52 2221.48 1544.94 Q2218.43 1540.33 2218.43 1531.6 Q2218.43 1522.85 2221.48 1518.27 Q2224.56 1513.66 2230.37 1513.66 Z" fill="#000000" fill-rule="nonzero" fill-opacity="1" /><polyline clip-path="url(#clip300)" style="stroke:#000000; stroke-linecap:round; stroke-linejoin:round; stroke-width:4; stroke-opacity:1; fill:none" points="155.927,1486.45 155.927,47.2441 "/>
<polyline clip-path="url(#clip300)" style="stroke:#000000; stroke-linecap:round; stroke-linejoin:round; stroke-width:4; stroke-opacity:1; fill:none" points="155.927,1445.72 174.825,1445.72 "/>
<polyline clip-path="url(#clip300)" style="stroke:#000000; stroke-linecap:round; stroke-linejoin:round; stroke-width:4; stroke-opacity:1; fill:none" points="155.927,1162.6 174.825,1162.6 "/>
<polyline clip-path="url(#clip300)" style="stroke:#000000; stroke-linecap:round; stroke-linejoin:round; stroke-width:4; stroke-opacity:1; fill:none" points="155.927,879.482 174.825,879.482 "/>
<polyline clip-path="url(#clip300)" style="stroke:#000000; stroke-linecap:round; stroke-linejoin:round; stroke-width:4; stroke-opacity:1; fill:none" points="155.927,596.366 174.825,596.366 "/>
<polyline clip-path="url(#clip300)" style="stroke:#000000; stroke-linecap:round; stroke-linejoin:round; stroke-width:4; stroke-opacity:1; fill:none" points="155.927,313.249 174.825,313.249 "/>
<path clip-path="url(#clip300)" d="M52.7977 1428.44 L71.1541 1428.44 L71.1541 1432.37 L57.0801 1432.37 L57.0801 1440.84 Q58.0986 1440.5 59.1171 1440.33 Q60.1356 1440.15 61.1541 1440.15 Q66.9411 1440.15 70.3207 1443.32 Q73.7003 1446.49 73.7003 1451.91 Q73.7003 1457.49 70.2281 1460.59 Q66.7559 1463.67 60.4365 1463.67 Q58.2606 1463.67 55.9921 1463.3 Q53.7467 1462.93 51.3393 1462.19 L51.3393 1457.49 Q53.4227 1458.62 55.6449 1459.18 Q57.8671 1459.73 60.3439 1459.73 Q64.3485 1459.73 66.6865 1457.63 Q69.0244 1455.52 69.0244 1451.91 Q69.0244 1448.3 66.6865 1446.19 Q64.3485 1444.08 60.3439 1444.08 Q58.4689 1444.08 56.5939 1444.5 Q54.7421 1444.92 52.7977 1445.8 L52.7977 1428.44 Z" fill="#000000" fill-rule="nonzero" fill-opacity="1" /><path clip-path="url(#clip300)" d="M82.9133 1457.12 L87.7975 1457.12 L87.7975 1463 L82.9133 1463 L82.9133 1457.12 Z" fill="#000000" fill-rule="nonzero" fill-opacity="1" /><path clip-path="url(#clip300)" d="M107.983 1431.51 Q104.371 1431.51 102.543 1435.08 Q100.737 1438.62 100.737 1445.75 Q100.737 1452.86 102.543 1456.42 Q104.371 1459.96 107.983 1459.96 Q111.617 1459.96 113.422 1456.42 Q115.251 1452.86 115.251 1445.75 Q115.251 1438.62 113.422 1435.08 Q111.617 1431.51 107.983 1431.51 M107.983 1427.81 Q113.793 1427.81 116.848 1432.42 Q119.927 1437 119.927 1445.75 Q119.927 1454.48 116.848 1459.08 Q113.793 1463.67 107.983 1463.67 Q102.172 1463.67 99.0937 1459.08 Q96.0382 1454.48 96.0382 1445.75 Q96.0382 1437 99.0937 1432.42 Q102.172 1427.81 107.983 1427.81 Z" fill="#000000" fill-rule="nonzero" fill-opacity="1" /><path clip-path="url(#clip300)" d="M53.793 1145.32 L72.1494 1145.32 L72.1494 1149.25 L58.0754 1149.25 L58.0754 1157.73 Q59.0939 1157.38 60.1124 1157.22 Q61.131 1157.03 62.1495 1157.03 Q67.9365 1157.03 71.3161 1160.2 Q74.6957 1163.37 74.6957 1168.79 Q74.6957 1174.37 71.2235 1177.47 Q67.7513 1180.55 61.4319 1180.55 Q59.256 1180.55 56.9875 1180.18 Q54.7421 1179.81 52.3347 1179.07 L52.3347 1174.37 Q54.418 1175.5 56.6402 1176.06 Q58.8625 1176.62 61.3393 1176.62 Q65.3439 1176.62 67.6819 1174.51 Q70.0198 1172.4 70.0198 1168.79 Q70.0198 1165.18 67.6819 1163.07 Q65.3439 1160.97 61.3393 1160.97 Q59.4643 1160.97 57.5893 1161.38 Q55.7375 1161.8 53.793 1162.68 L53.793 1145.32 Z" fill="#000000" fill-rule="nonzero" fill-opacity="1" /><path clip-path="url(#clip300)" d="M83.9086 1174 L88.7928 1174 L88.7928 1179.88 L83.9086 1179.88 L83.9086 1174 Z" fill="#000000" fill-rule="nonzero" fill-opacity="1" /><path clip-path="url(#clip300)" d="M99.0243 1145.32 L117.381 1145.32 L117.381 1149.25 L103.307 1149.25 L103.307 1157.73 Q104.325 1157.38 105.344 1157.22 Q106.362 1157.03 107.381 1157.03 Q113.168 1157.03 116.547 1160.2 Q119.927 1163.37 119.927 1168.79 Q119.927 1174.37 116.455 1177.47 Q112.983 1180.55 106.663 1180.55 Q104.487 1180.55 102.219 1180.18 Q99.9733 1179.81 97.566 1179.07 L97.566 1174.37 Q99.6493 1175.5 101.871 1176.06 Q104.094 1176.62 106.571 1176.62 Q110.575 1176.62 112.913 1174.51 Q115.251 1172.4 115.251 1168.79 Q115.251 1165.18 112.913 1163.07 Q110.575 1160.97 106.571 1160.97 Q104.696 1160.97 102.821 1161.38 Q100.969 1161.8 99.0243 1162.68 L99.0243 1145.32 Z" fill="#000000" fill-rule="nonzero" fill-opacity="1" /><path clip-path="url(#clip300)" d="M63.33 877.619 Q60.1819 877.619 58.33 879.772 Q56.5014 881.925 56.5014 885.675 Q56.5014 889.401 58.33 891.577 Q60.1819 893.73 63.33 893.73 Q66.4782 893.73 68.3068 891.577 Q70.1587 889.401 70.1587 885.675 Q70.1587 881.925 68.3068 879.772 Q66.4782 877.619 63.33 877.619 M72.6124 862.966 L72.6124 867.226 Q70.8531 866.392 69.0476 865.952 Q67.2652 865.513 65.5059 865.513 Q60.8763 865.513 58.4226 868.638 Q55.9921 871.763 55.6449 878.082 Q57.0106 876.068 59.0708 875.003 Q61.131 873.915 63.6078 873.915 Q68.8161 873.915 71.8253 877.087 Q74.8577 880.235 74.8577 885.675 Q74.8577 890.999 71.7096 894.216 Q68.5615 897.434 63.33 897.434 Q57.3347 897.434 54.1634 892.85 Q50.9921 888.244 50.9921 879.517 Q50.9921 871.323 54.881 866.462 Q58.7699 861.577 65.3208 861.577 Q67.08 861.577 68.8624 861.925 Q70.6679 862.272 72.6124 862.966 Z" fill="#000000" fill-rule="nonzero" fill-opacity="1" /><path clip-path="url(#clip300)" d="M82.9133 890.883 L87.7975 890.883 L87.7975 896.762 L82.9133 896.762 L82.9133 890.883 Z" fill="#000000" fill-rule="nonzero" fill-opacity="1" /><path clip-path="url(#clip300)" d="M107.983 865.281 Q104.371 865.281 102.543 868.846 Q100.737 872.388 100.737 879.517 Q100.737 886.624 102.543 890.188 Q104.371 893.73 107.983 893.73 Q111.617 893.73 113.422 890.188 Q115.251 886.624 115.251 879.517 Q115.251 872.388 113.422 868.846 Q111.617 865.281 107.983 865.281 M107.983 861.577 Q113.793 861.577 116.848 866.184 Q119.927 870.767 119.927 879.517 Q119.927 888.244 116.848 892.85 Q113.793 897.434 107.983 897.434 Q102.172 897.434 99.0937 892.85 Q96.0382 888.244 96.0382 879.517 Q96.0382 870.767 99.0937 866.184 Q102.172 861.577 107.983 861.577 Z" fill="#000000" fill-rule="nonzero" fill-opacity="1" /><path clip-path="url(#clip300)" d="M64.3254 594.502 Q61.1773 594.502 59.3254 596.655 Q57.4967 598.808 57.4967 602.558 Q57.4967 606.285 59.3254 608.461 Q61.1773 610.613 64.3254 610.613 Q67.4735 610.613 69.3022 608.461 Q71.1541 606.285 71.1541 602.558 Q71.1541 598.808 69.3022 596.655 Q67.4735 594.502 64.3254 594.502 M73.6077 579.85 L73.6077 584.109 Q71.8485 583.276 70.0429 582.836 Q68.2606 582.396 66.5013 582.396 Q61.8717 582.396 59.418 585.521 Q56.9875 588.646 56.6402 594.965 Q58.006 592.951 60.0662 591.887 Q62.1263 590.799 64.6032 590.799 Q69.8115 590.799 72.8207 593.97 Q75.8531 597.118 75.8531 602.558 Q75.8531 607.882 72.705 611.1 Q69.5568 614.317 64.3254 614.317 Q58.33 614.317 55.1588 609.734 Q51.9875 605.127 51.9875 596.401 Q51.9875 588.206 55.8764 583.345 Q59.7652 578.461 66.3161 578.461 Q68.0754 578.461 69.8578 578.808 Q71.6633 579.155 73.6077 579.85 Z" fill="#000000" fill-rule="nonzero" fill-opacity="1" /><path clip-path="url(#clip300)" d="M83.9086 607.766 L88.7928 607.766 L88.7928 613.646 L83.9086 613.646 L83.9086 607.766 Z" fill="#000000" fill-rule="nonzero" fill-opacity="1" /><path clip-path="url(#clip300)" d="M99.0243 579.086 L117.381 579.086 L117.381 583.021 L103.307 583.021 L103.307 591.493 Q104.325 591.146 105.344 590.984 Q106.362 590.799 107.381 590.799 Q113.168 590.799 116.547 593.97 Q119.927 597.141 119.927 602.558 Q119.927 608.137 116.455 611.238 Q112.983 614.317 106.663 614.317 Q104.487 614.317 102.219 613.947 Q99.9733 613.576 97.566 612.836 L97.566 608.137 Q99.6493 609.271 101.871 609.826 Q104.094 610.382 106.571 610.382 Q110.575 610.382 112.913 608.275 Q115.251 606.169 115.251 602.558 Q115.251 598.947 112.913 596.84 Q110.575 594.734 106.571 594.734 Q104.696 594.734 102.821 595.151 Q100.969 595.567 99.0243 596.447 L99.0243 579.086 Z" fill="#000000" fill-rule="nonzero" fill-opacity="1" /><path clip-path="url(#clip300)" d="M51.5708 295.969 L73.7929 295.969 L73.7929 297.96 L61.2467 330.529 L56.3625 330.529 L68.168 299.904 L51.5708 299.904 L51.5708 295.969 Z" fill="#000000" fill-rule="nonzero" fill-opacity="1" /><path clip-path="url(#clip300)" d="M82.9133 324.65 L87.7975 324.65 L87.7975 330.529 L82.9133 330.529 L82.9133 324.65 Z" fill="#000000" fill-rule="nonzero" fill-opacity="1" /><path clip-path="url(#clip300)" d="M107.983 299.048 Q104.371 299.048 102.543 302.613 Q100.737 306.154 100.737 313.284 Q100.737 320.39 102.543 323.955 Q104.371 327.497 107.983 327.497 Q111.617 327.497 113.422 323.955 Q115.251 320.39 115.251 313.284 Q115.251 306.154 113.422 302.613 Q111.617 299.048 107.983 299.048 M107.983 295.344 Q113.793 295.344 116.848 299.951 Q119.927 304.534 119.927 313.284 Q119.927 322.011 116.848 326.617 Q113.793 331.2 107.983 331.2 Q102.172 331.2 99.0937 326.617 Q96.0382 322.011 96.0382 313.284 Q96.0382 304.534 99.0937 299.951 Q102.172 295.344 107.983 295.344 Z" fill="#000000" fill-rule="nonzero" fill-opacity="1" /><polyline clip-path="url(#clip302)" style="stroke:#009af9; stroke-linecap:round; stroke-linejoin:round; stroke-width:4; stroke-opacity:1; fill:none" points="218.101,1445.72 220.071,1445.72 222.041,1445.72 224.011,1445.72 225.981,1219.22 227.952,1242.45 229.922,1279.3 231.892,1309.46 233.862,1309.46 235.832,1096.95 237.802,1127.52 239.772,1185.2 241.742,1232.42 243.712,1271.09 245.682,1271.09 247.652,1050.45 249.622,1050.45 251.592,940.99 253.562,940.99 255.532,859.125 257.502,910.721 259.472,1007.7 261.442,1087.1 263.412,1152.1 265.382,1205.33 267.352,1248.9 269.322,1248.9 271.292,1037.03 273.262,1037.03 275.232,889.21 277.202,925.46 279.173,1019.77 281.143,1019.77 283.113,899.558 285.083,899.558 287.053,688.135 289.023,723.678 290.993,854.561 292.963,961.719 294.933,1049.45 296.903,1121.28 298.873,1121.28 300.843,944.34 302.813,961.229 304.783,1049.05 306.753,1049.05 308.723,950.88 310.693,951.192 312.663,1040.83 314.633,1114.23 316.603,1174.32 318.573,1223.51 320.543,1263.79 322.513,1263.79 324.483,1172.01 326.453,1172.01 328.423,1073.73 330.394,1080.44 332.364,1146.66 334.334,1146.66 336.304,946.709 338.274,997.365 340.244,1078.64 342.214,1078.64 344.184,983.775 346.154,1047.57 348.124,1119.74 350.094,1178.83 352.064,1227.21 354.034,1266.82 356.004,1299.25 357.974,1325.8 359.944,1347.53 361.914,1365.33 363.884,1379.9 365.854,1391.83 367.824,1401.6 369.794,1409.6 371.764,1416.14 373.734,1416.14 375.704,1251.14 377.674,1255.01 379.644,1255.01 381.615,1044.96 383.585,1086.64 385.555,1086.64 387.525,947.949 389.495,999.432 391.465,999.432 393.435,810.818 395.405,877.693 397.375,980.658 399.345,1064.96 401.315,1133.98 403.285,1190.49 405.255,1190.49 407.225,1034.95 409.195,1089.4 411.165,1153.99 413.135,1206.87 415.105,1250.16 417.075,1285.61 419.045,1285.61 421.015,1201.12 422.985,1201.62 424.955,1201.62 426.925,1047.81 428.895,1096.99 430.865,1160.2 432.836,1160.2 434.806,933.906 436.776,933.906 438.746,783.781 440.716,881.631 442.686,881.631 444.656,794.414 446.626,886.678 448.596,988.015 450.566,988.015 452.536,899.076 454.506,902.03 456.476,902.03 458.446,805.46 460.416,839.833 462.386,839.833 464.356,766.131 466.326,850.468 468.296,850.468 470.266,739.317 472.236,739.317 474.206,628.49 476.176,628.49 478.146,467.168 480.116,476.522 482.086,652.207 484.056,652.207 486.027,550.404 487.997,576.037 489.967,576.037 491.937,477.642 493.907,477.642 495.877,344.921 497.847,358.44 499.817,358.44 501.787,266.624 503.757,266.624 505.727,87.9763 507.697,197.467 509.667,197.467 511.637,219.664 513.607,259.367 515.577,259.367 517.547,354.62 519.517,361.927 521.487,361.927 523.457,374.105 525.427,391.229 527.397,391.229 529.367,400.362 531.337,477.483 533.307,652.994 535.277,796.69 537.248,914.339 539.218,914.339 541.188,804.594 543.158,804.594 545.128,706.638 547.098,821.713 549.068,934.826 551.038,1027.43 553.008,1103.26 554.978,1103.26 556.948,980.232 558.918,1004.22 560.888,1004.22 562.858,918.464 564.828,918.464 566.798,746.48 568.768,764.816 570.738,888.242 572.708,989.295 574.678,1072.03 576.648,1072.03 578.618,886.267 580.588,931.646 582.558,1024.83 584.528,1101.12 586.498,1101.12 588.469,929.124 590.439,943.319 592.409,1034.39 594.379,1108.95 596.349,1169.99 598.319,1169.99 600.289,1083.85 602.259,1117.15 604.229,1176.71 606.199,1225.47 608.169,1265.39 610.139,1265.39 612.109,1178.62 614.079,1189.41 616.049,1189.41 618.019,1039.49 619.989,1085.06 621.959,1150.43 623.929,1203.96 625.899,1247.78 627.869,1247.78 629.839,1138.05 631.809,1138.05 633.779,1045.47 635.749,1088.07 637.719,1152.9 639.69,1152.9 641.66,1013.88 643.63,1013.88 645.6,909.172 647.57,909.172 649.54,773.706 651.51,775.347 653.48,896.864 655.45,896.864 657.42,790.962 659.39,790.962 661.36,700.983 663.33,730.111 665.3,730.111 667.27,622.479 669.24,766.376 671.21,766.376 673.18,598.691 675.15,686.509 677.12,824.13 679.09,936.804 681.06,1029.05 683.03,1104.58 685,1166.42 686.97,1166.42 688.94,1080.12 690.911,1080.12 692.881,886.292 694.851,889.052 696.821,889.052 698.791,776.739 700.761,834.842 702.731,834.842 704.701,805.935 706.671,838.005 708.641,838.005 710.611,693.433 712.581,693.433 714.551,617.368 716.521,637.253 718.491,637.253 720.461,483.64 722.431,483.64 724.401,481.176 726.371,534.936 728.341,534.936 730.311,423.836 732.281,487.692 734.251,661.352 736.221,803.533 738.191,919.941 740.161,1015.25 742.131,1093.28 744.102,1157.16 746.072,1209.47 748.042,1252.29 750.012,1287.36 751.982,1316.06 753.952,1339.56 755.922,1339.56 757.892,1188.72 759.862,1189.37 761.832,1189.37 763.802,1103.91 765.772,1131.84 767.742,1188.74 769.712,1188.74 771.682,1019.25 773.652,1019.25 775.622,876.96 777.592,947.122 779.562,1037.5 781.532,1037.5 783.502,925.691 785.472,949.36 787.442,949.36 789.412,867.616 791.382,940.332 793.352,940.332 795.323,763.312 797.293,826.382 799.263,826.382 801.233,698.432 803.203,698.432 805.173,487.654 807.143,586.302 809.113,586.302 811.083,482.694 813.053,648.317 815.023,648.317 816.993,540.422 818.963,699.516 820.933,834.779 822.903,945.523 824.873,1036.19 826.843,1036.19 828.813,869.684 830.783,869.684 832.753,652.667 834.723,780.098 836.693,900.754 838.663,999.539 840.633,1080.42 842.603,1146.63 844.573,1146.63 846.544,999.29 848.514,999.29 850.484,810.522 852.454,810.522 854.424,653.849 856.394,663.616 858.364,663.616 860.334,550.187 862.304,588.612 864.274,743.978 866.244,871.182 868.214,975.327 870.184,975.327 872.154,808.299 874.124,808.299 876.094,769.486 878.064,815.056 880.034,929.375 882.004,1022.97 883.974,1099.6 885.944,1099.6 887.914,933.749 889.884,1021.63 891.854,1021.63 893.824,873.56 895.794,951.89 897.765,951.89 899.735,815.225 901.705,892.302 903.675,892.302 905.645,821.66 907.615,892.167 909.585,892.167 911.555,744.095 913.525,847.73 915.495,956.126 917.465,956.126 919.435,901.348 921.405,939.581 923.375,939.581 925.345,724.664 927.315,724.664 929.285,641.089 931.255,679.866 933.225,818.691 935.195,932.352 937.165,932.352 939.135,872.787 941.105,872.787 943.075,767.968 945.045,767.968 947.015,548.492 948.986,604.387 950.956,756.894 952.926,756.894 954.896,633.757 956.866,732.556 958.836,861.83 960.806,861.83 962.776,837.703 964.746,858.251 966.716,858.251 968.686,812.401 970.656,860.006 972.626,966.177 974.596,1053.1 976.566,1124.27 978.536,1182.54 980.506,1230.25 982.476,1269.3 984.446,1269.3 986.416,1109.66 988.386,1153.64 990.356,1153.64 992.326,1066.46 994.296,1104.78 996.266,1104.78 998.236,1030.24 1000.21,1061.99 1002.18,1061.99 1004.15,973.651 1006.12,1032.4 1008.09,1032.4 1010.06,965.647 1012.03,1002.85 1014,1083.12 1015.97,1148.85 1017.94,1148.85 1019.91,1068.52 1021.88,1098.38 1023.85,1161.34 1025.82,1212.89 1027.79,1255.1 1029.76,1289.65 1031.73,1317.94 1033.7,1341.1 1035.67,1341.1 1037.64,1234.56 1039.61,1234.56 1041.58,1085.77 1043.55,1095.91 1045.52,1095.91 1047.49,993.87 1049.46,1063.53 1051.43,1063.53 1053.4,926.073 1055.37,980.846 1057.34,1065.11 1059.31,1134.1 1061.28,1190.59 1063.25,1236.84 1065.22,1274.7 1067.19,1305.7 1069.16,1331.08 1071.13,1351.86 1073.1,1351.86 1075.07,1255.19 1077.04,1256.27 1079.01,1290.61 1080.98,1318.73 1082.95,1341.75 1084.92,1360.59 1086.89,1376.02 1088.86,1376.02 1090.83,1214.12 1092.8,1231.64 1094.77,1231.64 1096.74,1067.93 1098.71,1127.25 1100.68,1184.98 1102.65,1184.98 1104.62,1117.98 1106.59,1119.53 1108.56,1178.66 1110.53,1178.66 1112.5,1044.66 1114.47,1066.41 1116.44,1066.41 1118.41,876.014 1120.38,930.226 1122.35,1023.67 1124.32,1100.17 1126.29,1162.81 1128.26,1214.09 1130.23,1256.08 1132.2,1290.45 1134.17,1318.6 1136.14,1341.64 1138.11,1360.51 1140.08,1360.51 1142.05,1258.88 1144.02,1268.6 1145.99,1300.7 1147.96,1326.99 1149.93,1326.99 1151.9,1227.71 1153.87,1243.43 1155.84,1280.1 1157.81,1310.12 1159.78,1334.7 1161.75,1354.82 1163.72,1371.3 1165.69,1384.79 1167.66,1395.83 1169.63,1404.87 1171.6,1412.28 1173.57,1418.34 1175.54,1423.3 1177.51,1427.36 1179.48,1427.36 1181.45,1260.18 1183.42,1267.76 1185.39,1300.02 1187.36,1300.02 1189.33,1199.13 1191.3,1199.13 1193.27,1086.38 1195.24,1123.59 1197.21,1181.98 1199.18,1181.98 1201.15,1100.65 1203.12,1124.31 1205.09,1182.57 1207.06,1182.57 1209.03,1025.56 1211,1084.05 1212.97,1149.61 1214.94,1203.28 1216.91,1203.28 1218.88,1016.25 1220.85,1025.74 1222.82,1101.87 1224.79,1101.87 1226.76,1010.97 1228.73,1065.03 1230.7,1065.03 1232.67,871.551 1234.64,930.993 1236.61,930.993 1238.58,716.34 1240.55,716.34 1242.52,612.377 1244.49,612.377 1246.46,428.964 1248.43,535.638 1250.4,700.607 1252.37,835.672 1254.34,946.255 1256.31,946.255 1258.28,849.394 1260.25,873.903 1262.22,977.555 1264.19,1062.42 1266.16,1062.42 1268.13,837.048 1270.1,837.048 1272.07,729.272 1274.04,729.272 1276.01,511.242 1277.98,580.997 1279.95,580.997 1281.92,465.816 1283.89,589.277 1285.86,589.277 1287.83,481.936 1289.8,529.117 1291.77,529.117 1293.74,313.593 1295.71,507.585 1297.68,677.639 1299.65,816.868 1301.62,930.859 1303.59,1024.19 1305.56,1100.6 1307.53,1163.16 1309.5,1163.16 1311.47,995.817 1313.44,1074.04 1315.41,1141.41 1317.38,1196.57 1319.35,1196.57 1321.32,1032.04 1323.29,1032.04 1325.26,885.721 1327.23,948.917 1329.2,948.917 1331.17,835.653 1333.14,835.653 1335.11,653.302 1337.08,656.401 1339.05,656.401 1341.02,637.819 1342.99,694.126 1344.96,830.366 1346.93,941.91 1348.9,941.91 1350.87,840.348 1352.84,938.314 1354.81,938.314 1356.78,902.936 1358.75,920.764 1360.72,920.764 1362.69,784.362 1364.66,867.373 1366.63,972.208 1368.6,972.208 1370.57,840.34 1372.54,906.827 1374.51,906.827 1376.48,778.844 1378.45,853.712 1380.42,961.024 1382.39,1048.88 1384.36,1120.82 1386.33,1120.82 1388.3,1021.55 1390.27,1082.82 1392.24,1082.82 1394.21,878.633 1396.18,951.026 1398.15,951.026 1400.12,884.979 1402.09,884.979 1404.06,708.695 1406.03,713.042 1408,713.042 1409.97,730.516 1411.94,733 1413.91,862.194 1415.88,967.968 1417.85,967.968 1419.82,776.646 1421.79,776.646 1423.76,649.709 1425.73,693.971 1427.7,693.971 1429.67,688.744 1431.64,721.962 1433.61,721.962 1435.58,567.565 1437.55,567.565 1439.53,398.653 1441.5,398.653 1443.47,192.246 1445.44,192.246 1447.41,181.645 1449.38,181.645 1451.35,110.204 1453.32,161.106 1455.29,393.966 1457.26,393.966 1459.23,395.769 1461.2,395.769 1463.17,300.337 1465.14,312.434 1467.11,517.863 1469.08,686.054 1471.05,823.757 1473.02,823.757 1474.99,708.505 1476.96,708.505 1478.93,659.861 1480.9,672.625 1482.87,672.625 1484.84,560.476 1486.81,719.912 1488.78,851.478 1490.75,851.478 1492.72,755.595 1494.69,863.686 1496.66,969.19 1498.63,1055.57 1500.6,1126.29 1502.57,1126.29 1504.54,1040.46 1506.51,1082.77 1508.48,1082.77 1510.45,992.85 1512.42,1049.47 1514.39,1049.47 1516.36,866.455 1518.33,913.01 1520.3,1009.57 1522.27,1009.57 1524.24,806.038 1526.21,806.038 1528.18,722.87 1530.15,722.87 1532.12,568.761 1534.09,632.71 1536.06,780.083 1538.03,900.741 1540,999.528 1541.97,1080.41 1543.94,1146.63 1545.91,1146.63 1547.88,982.544 1549.85,1059.02 1551.82,1129.12 1553.79,1186.51 1555.76,1233.49 1557.73,1233.49 1559.7,1080.41 1561.67,1080.41 1563.64,928.82 1565.61,961.963 1567.58,1049.65 1569.55,1049.65 1571.52,851.19 1573.49,921.886 1575.46,921.886 1577.43,799.925 1579.4,863.762 1581.37,969.252 1583.34,969.252 1585.31,906.28 1587.28,906.28 1589.25,765.558 1591.22,787.6 1593.19,787.6 1595.16,744.015 1597.13,803.201 1599.1,919.669 1601.07,1015.03 1603.04,1015.03 1605.01,929.176 1606.98,929.176 1608.95,871.403 1610.92,883.148 1612.89,883.148 1614.86,850.51 1616.83,876.899 1618.8,980.008 1620.77,980.008 1622.74,882.48 1624.71,968.469 1626.68,1054.98 1628.65,1125.81 1630.62,1125.81 1632.59,1032.45 1634.56,1084.93 1636.53,1084.93 1638.5,941.297 1640.47,1000.35 1642.44,1000.35 1644.41,930.979 1646.38,978.228 1648.35,1062.97 1650.32,1062.97 1652.29,931.981 1654.26,977.545 1656.23,977.545 1658.2,918.75 1660.17,957.488 1662.14,1045.99 1664.11,1118.45 1666.08,1177.77 1668.05,1226.34 1670.02,1266.11 1671.99,1298.66 1673.96,1325.32 1675.93,1325.32 1677.9,1156.93 1679.87,1206.34 1681.84,1206.34 1683.81,1000.34 1685.78,1000.34 1687.75,900.145 1689.72,942.467 1691.69,1033.69 1693.66,1033.69 1695.63,870.014 1697.6,870.014 1699.57,780.332 1701.54,869.027 1703.51,869.027 1705.48,645.042 1707.45,787.316 1709.42,906.663 1711.39,1004.38 1713.36,1004.38 1715.33,933.96 1717.3,981.695 1719.27,981.695 1721.24,888.3 1723.21,968.945 1725.18,1055.37 1727.15,1126.13 1729.12,1126.13 1731.09,967.628 1733.06,1039.85 1735.03,1113.42 1737,1113.42 1738.97,1002.19 1740.94,1080.37 1742.91,1146.6 1744.88,1200.82 1746.85,1245.21 1748.82,1245.21 1750.79,1078.4 1752.76,1078.4 1754.73,899.213 1756.7,924.172 1758.67,1018.71 1760.64,1096.11 1762.61,1096.11 1764.58,961.353 1766.55,1004.88 1768.52,1084.79 1770.49,1084.79 1772.46,938.834 1774.43,1001.27 1776.4,1001.27 1778.37,894.55 1780.34,987.734 1782.31,987.734 1784.28,791.524 1786.25,872.185 1788.22,872.185 1790.19,759.089 1792.16,759.089 1794.13,712.211 1796.1,713.935 1798.07,846.585 1800.04,955.189 1802.01,955.189 1803.98,828.197 1805.95,828.197 1807.92,665.928 1809.89,737.408 1811.86,737.408 1813.83,595.371 1815.8,721.036 1817.77,852.398 1819.74,852.398 1821.71,756.307 1823.68,756.307 1825.65,677.851 1827.62,699.356 1829.59,699.356 1831.56,618.935 1833.53,676.633 1835.5,676.633 1837.47,577.509 1839.44,662.877 1841.41,662.877 1843.38,510.543 1845.35,599.94 1847.32,599.94 1849.29,484.133 1851.26,604.678 1853.23,604.678 1855.2,513.957 1857.17,661.862 1859.14,803.951 1861.11,920.283 1863.08,1015.53 1865.05,1093.51 1867.02,1157.35 1868.99,1209.62 1870.96,1252.42 1872.93,1252.42 1874.9,1092.45 1876.87,1140.87 1878.84,1140.87 1880.81,1043.56 1882.78,1098.3 1884.75,1161.27 1886.72,1212.84 1888.69,1255.05 1890.66,1289.61 1892.63,1317.91 1894.6,1341.08 1896.57,1360.04 1898.54,1375.57 1900.51,1375.57 1902.48,1266.15 1904.45,1266.15 1906.42,1171.42 1908.39,1180.88 1910.36,1228.88 1912.33,1268.19 1914.3,1300.37 1916.27,1300.37 1918.24,1139.98 1920.21,1177.93 1922.18,1226.47 1924.15,1266.21 1926.12,1266.21 1928.09,1155.08 1930.06,1204.93 1932.03,1248.58 1934,1248.58 1935.97,1110.37 1937.94,1118.62 1939.91,1118.62 1941.88,942.428 1943.85,942.428 1945.82,729.431 1947.79,733.598 1949.76,862.683 1951.73,968.369 1953.7,1054.9 1955.68,1125.74 1957.65,1183.74 1959.62,1231.23 1961.59,1270.11 1963.56,1301.94 1965.53,1301.94 1967.5,1141.79 1969.47,1178.84 1971.44,1227.22 1973.41,1227.22 1975.38,1001.68 1977.35,1080.58 1979.32,1080.58 1981.29,1016.65 1983.26,1039.57 1985.23,1113.19 1987.2,1173.47 1989.17,1173.47 1991.14,958.136 1993.11,1029.45 1995.08,1029.45 1997.05,904.249 1999.02,904.249 2000.99,770.615 2002.96,782.142 2004.93,902.427 2006.9,1000.91 2008.87,1081.54 2010.84,1081.54 2012.81,944.556 2014.78,944.556 2016.75,775.066 2018.72,841.669 2020.69,951.164 2022.66,1040.81 2024.63,1040.81 2026.6,890.439 2028.57,968.094 2030.54,1054.67 2032.51,1125.56 2034.48,1125.56 2036.45,967.724 2038.42,967.724 2040.39,804.138 2042.36,892.644 2044.33,992.899 2046.3,1074.98 2048.27,1142.18 2050.24,1197.2 2052.21,1197.2 2054.18,1119.57 2056.15,1134.02 2058.12,1190.52 2060.09,1236.78 2062.06,1274.66 2064.03,1274.66 2066,1067.06 2067.97,1067.06 2069.94,983.668 2071.91,984.031 2073.88,984.031 2075.85,761.667 2077.82,880.61 2079.79,880.61 2081.76,716.352 2083.73,842.573 2085.7,842.573 2087.67,769.965 2089.64,769.965 2091.61,663.628 2093.58,687.886 2095.55,687.886 2097.52,538.246 2099.49,538.246 2101.46,312.41 2103.43,491.704 2105.4,664.637 2107.37,664.637 2109.34,525.912 2111.31,525.912 2113.28,491.021 2115.25,491.602 2117.22,664.554 2119.19,664.554 2121.16,617.248 2123.13,704.888 2125.1,839.177 2127.07,949.124 2129.04,1039.14 2131.01,1039.14 2132.98,986.547 2134.95,1003.86 2136.92,1003.86 2138.89,909.009 2140.86,916.441 2142.83,916.441 2144.8,753.512 2146.77,801.635 2148.74,801.635 2150.71,619.51 2152.68,719.231 2154.65,719.231 2156.62,618.429 2158.59,756.586 2160.56,756.586 2162.53,578.417 2164.5,682.082 2166.47,682.082 2168.44,560.269 2170.41,560.269 2172.38,436.083 2174.35,448.345 2176.32,448.345 2178.29,313.371 2180.26,485.018 2182.23,659.163 2184.2,659.163 2186.17,603.636 2188.14,701.679 2190.11,701.679 2192.08,498.539 2194.05,645.104 2196.02,790.231 2197.99,909.05 2199.96,909.05 2201.93,841.862 2203.9,841.862 2205.87,678.219 2207.84,678.219 2209.81,635.63 2211.78,638.317 2213.75,638.317 2215.72,591.292 2217.69,591.292 2219.66,552.897 2221.63,572.97 2223.6,572.97 2225.57,483.135 2227.54,511.308 2229.51,511.308 2231.48,370.919 2233.45,476.428 2235.42,652.13 2237.39,652.13 2239.36,628.747 2241.33,691.424 2243.3,828.154 2245.27,940.099 2247.24,1031.75 2249.21,1106.79 2251.18,1168.23 2253.15,1168.23 2255.12,1079.89 2257.09,1079.89 2259.06,973.432 2261.03,1012.88 2263,1012.88 2264.97,851.908 2266.94,851.908 2268.91,716.606 2270.88,798.566 2272.85,798.566 2274.82,734.361 2276.79,734.361 2278.76,701.264 2280.73,702.493 2282.7,837.217 2284.67,837.217 2286.64,730.913 2288.61,792.218 2290.58,910.677 "/>
<path clip-path="url(#clip300)" d="M2007.42 198.898 L2279.53 198.898 L2279.53 95.2176 L2007.42 95.2176  Z" fill="#ffffff" fill-rule="evenodd" fill-opacity="1"/>
<polyline clip-path="url(#clip300)" style="stroke:#000000; stroke-linecap:round; stroke-linejoin:round; stroke-width:4; stroke-opacity:1; fill:none" points="2007.42,198.898 2279.53,198.898 2279.53,95.2176 2007.42,95.2176 2007.42,198.898 "/>
<polyline clip-path="url(#clip300)" style="stroke:#009af9; stroke-linecap:round; stroke-linejoin:round; stroke-width:4; stroke-opacity:1; fill:none" points="2031.82,147.058 2178.28,147.058 "/>
<path clip-path="url(#clip300)" d="M2216.53 166.745 Q2214.73 171.375 2213.01 172.787 Q2211.3 174.199 2208.43 174.199 L2205.03 174.199 L2205.03 170.634 L2207.53 170.634 Q2209.29 170.634 2210.26 169.8 Q2211.23 168.967 2212.41 165.865 L2213.17 163.921 L2202.69 138.412 L2207.2 138.412 L2215.3 158.689 L2223.41 138.412 L2227.92 138.412 L2216.53 166.745 Z" fill="#000000" fill-rule="nonzero" fill-opacity="1" /><path clip-path="url(#clip300)" d="M2235.21 160.402 L2242.85 160.402 L2242.85 134.037 L2234.54 135.703 L2234.54 131.444 L2242.8 129.778 L2247.48 129.778 L2247.48 160.402 L2255.12 160.402 L2255.12 164.338 L2235.21 164.338 L2235.21 160.402 Z" fill="#000000" fill-rule="nonzero" fill-opacity="1" /></svg>
