<?xml version="1.0" encoding="utf-8"?>
<svg xmlns="http://www.w3.org/2000/svg" xmlns:xlink="http://www.w3.org/1999/xlink" width="600" height="400" viewBox="0 0 2400 1600">
<defs>
  <clipPath id="clip020">
    <rect x="0" y="0" width="2400" height="1600"/>
  </clipPath>
</defs>
<path clip-path="url(#clip020)" d="M0 1600 L2400 1600 L2400 0 L0 0  Z" fill="#ffffff" fill-rule="evenodd" fill-opacity="1"/>
<defs>
  <clipPath id="clip021">
    <rect x="480" y="0" width="1681" height="1600"/>
  </clipPath>
</defs>
<path clip-path="url(#clip020)" d="M140.696 1423.18 L2352.76 1423.18 L2352.76 47.2441 L140.696 47.2441  Z" fill="#ffffff" fill-rule="evenodd" fill-opacity="1"/>
<defs>
  <clipPath id="clip022">
    <rect x="140" y="47" width="2213" height="1377"/>
  </clipPath>
</defs>
<polyline clip-path="url(#clip022)" style="stroke:#000000; stroke-linecap:round; stroke-linejoin:round; stroke-width:2; stroke-opacity:0.1; fill:none" points="582.949,1423.18 582.949,47.2441 "/>
<polyline clip-path="url(#clip022)" style="stroke:#000000; stroke-linecap:round; stroke-linejoin:round; stroke-width:2; stroke-opacity:0.1; fill:none" points="1026.02,1423.18 1026.02,47.2441 "/>
<polyline clip-path="url(#clip022)" style="stroke:#000000; stroke-linecap:round; stroke-linejoin:round; stroke-width:2; stroke-opacity:0.1; fill:none" points="1469.1,1423.18 1469.1,47.2441 "/>
<polyline clip-path="url(#clip022)" style="stroke:#000000; stroke-linecap:round; stroke-linejoin:round; stroke-width:2; stroke-opacity:0.1; fill:none" points="1912.17,1423.18 1912.17,47.2441 "/>
<polyline clip-path="url(#clip022)" style="stroke:#000000; stroke-linecap:round; stroke-linejoin:round; stroke-width:2; stroke-opacity:0.1; fill:none" points="140.696,1384.63 2352.76,1384.63 "/>
<polyline clip-path="url(#clip022)" style="stroke:#000000; stroke-linecap:round; stroke-linejoin:round; stroke-width:2; stroke-opacity:0.1; fill:none" points="140.696,958.597 2352.76,958.597 "/>
<polyline clip-path="url(#clip022)" style="stroke:#000000; stroke-linecap:round; stroke-linejoin:round; stroke-width:2; stroke-opacity:0.1; fill:none" points="140.696,532.56 2352.76,532.56 "/>
<polyline clip-path="url(#clip022)" style="stroke:#000000; stroke-linecap:round; stroke-linejoin:round; stroke-width:2; stroke-opacity:0.1; fill:none" points="140.696,106.523 2352.76,106.523 "/>
<polyline clip-path="url(#clip020)" style="stroke:#000000; stroke-linecap:round; stroke-linejoin:round; stroke-width:4; stroke-opacity:1; fill:none" points="140.696,1423.18 2352.76,1423.18 "/>
<polyline clip-path="url(#clip020)" style="stroke:#000000; stroke-linecap:round; stroke-linejoin:round; stroke-width:4; stroke-opacity:1; fill:none" points="582.949,1423.18 582.949,1404.28 "/>
<polyline clip-path="url(#clip020)" style="stroke:#000000; stroke-linecap:round; stroke-linejoin:round; stroke-width:4; stroke-opacity:1; fill:none" points="1026.02,1423.18 1026.02,1404.28 "/>
<polyline clip-path="url(#clip020)" style="stroke:#000000; stroke-linecap:round; stroke-linejoin:round; stroke-width:4; stroke-opacity:1; fill:none" points="1469.1,1423.18 1469.1,1404.28 "/>
<polyline clip-path="url(#clip020)" style="stroke:#000000; stroke-linecap:round; stroke-linejoin:round; stroke-width:4; stroke-opacity:1; fill:none" points="1912.17,1423.18 1912.17,1404.28 "/>
<path clip-path="url(#clip020)" d="M557.636 1481.64 L565.275 1481.64 L565.275 1455.28 L556.965 1456.95 L556.965 1452.69 L565.229 1451.02 L569.905 1451.02 L569.905 1481.64 L577.544 1481.64 L577.544 1485.58 L557.636 1485.58 L557.636 1481.64 Z" fill="#000000" fill-rule="nonzero" fill-opacity="1" /><path clip-path="url(#clip020)" d="M596.988 1454.1 Q593.377 1454.1 591.548 1457.66 Q589.743 1461.2 589.743 1468.33 Q589.743 1475.44 591.548 1479.01 Q593.377 1482.55 596.988 1482.55 Q600.622 1482.55 602.428 1479.01 Q604.257 1475.44 604.257 1468.33 Q604.257 1461.2 602.428 1457.66 Q600.622 1454.1 596.988 1454.1 M596.988 1450.39 Q602.798 1450.39 605.854 1455 Q608.932 1459.58 608.932 1468.33 Q608.932 1477.06 605.854 1481.67 Q602.798 1486.25 596.988 1486.25 Q591.178 1486.25 588.099 1481.67 Q585.044 1477.06 585.044 1468.33 Q585.044 1459.58 588.099 1455 Q591.178 1450.39 596.988 1450.39 Z" fill="#000000" fill-rule="nonzero" fill-opacity="1" /><path clip-path="url(#clip020)" d="M1004.8 1481.64 L1021.12 1481.64 L1021.12 1485.58 L999.172 1485.58 L999.172 1481.64 Q1001.83 1478.89 1006.42 1474.26 Q1011.02 1469.61 1012.2 1468.27 Q1014.45 1465.74 1015.33 1464.01 Q1016.23 1462.25 1016.23 1460.56 Q1016.23 1457.8 1014.29 1456.07 Q1012.37 1454.33 1009.26 1454.33 Q1007.07 1454.33 1004.61 1455.09 Q1002.18 1455.86 999.404 1457.41 L999.404 1452.69 Q1002.23 1451.55 1004.68 1450.97 Q1007.14 1450.39 1009.17 1450.39 Q1014.54 1450.39 1017.74 1453.08 Q1020.93 1455.77 1020.93 1460.26 Q1020.93 1462.39 1020.12 1464.31 Q1019.33 1466.2 1017.23 1468.8 Q1016.65 1469.47 1013.55 1472.69 Q1010.45 1475.88 1004.8 1481.64 Z" fill="#000000" fill-rule="nonzero" fill-opacity="1" /><path clip-path="url(#clip020)" d="M1040.93 1454.1 Q1037.32 1454.1 1035.49 1457.66 Q1033.69 1461.2 1033.69 1468.33 Q1033.69 1475.44 1035.49 1479.01 Q1037.32 1482.55 1040.93 1482.55 Q1044.57 1482.55 1046.37 1479.01 Q1048.2 1475.44 1048.2 1468.33 Q1048.2 1461.2 1046.37 1457.66 Q1044.57 1454.1 1040.93 1454.1 M1040.93 1450.39 Q1046.74 1450.39 1049.8 1455 Q1052.88 1459.58 1052.88 1468.33 Q1052.88 1477.06 1049.8 1481.67 Q1046.74 1486.25 1040.93 1486.25 Q1035.12 1486.25 1032.04 1481.67 Q1028.99 1477.06 1028.99 1468.33 Q1028.99 1459.58 1032.04 1455 Q1035.12 1450.39 1040.93 1450.39 Z" fill="#000000" fill-rule="nonzero" fill-opacity="1" /><path clip-path="url(#clip020)" d="M1457.94 1466.95 Q1461.3 1467.66 1463.17 1469.93 Q1465.07 1472.2 1465.07 1475.53 Q1465.07 1480.65 1461.55 1483.45 Q1458.03 1486.25 1451.55 1486.25 Q1449.38 1486.25 1447.06 1485.81 Q1444.77 1485.39 1442.32 1484.54 L1442.32 1480.02 Q1444.26 1481.16 1446.58 1481.74 Q1448.89 1482.32 1451.41 1482.32 Q1455.81 1482.32 1458.1 1480.58 Q1460.42 1478.84 1460.42 1475.53 Q1460.42 1472.48 1458.27 1470.77 Q1456.14 1469.03 1452.32 1469.03 L1448.29 1469.03 L1448.29 1465.19 L1452.5 1465.19 Q1455.95 1465.19 1457.78 1463.82 Q1459.61 1462.43 1459.61 1459.84 Q1459.61 1457.18 1457.71 1455.77 Q1455.84 1454.33 1452.32 1454.33 Q1450.4 1454.33 1448.2 1454.75 Q1446 1455.16 1443.36 1456.04 L1443.36 1451.88 Q1446.02 1451.14 1448.34 1450.77 Q1450.67 1450.39 1452.73 1450.39 Q1458.06 1450.39 1461.16 1452.83 Q1464.26 1455.23 1464.26 1459.35 Q1464.26 1462.22 1462.62 1464.21 Q1460.97 1466.18 1457.94 1466.95 Z" fill="#000000" fill-rule="nonzero" fill-opacity="1" /><path clip-path="url(#clip020)" d="M1483.94 1454.1 Q1480.33 1454.1 1478.5 1457.66 Q1476.69 1461.2 1476.69 1468.33 Q1476.69 1475.44 1478.5 1479.01 Q1480.33 1482.55 1483.94 1482.55 Q1487.57 1482.55 1489.38 1479.01 Q1491.21 1475.44 1491.21 1468.33 Q1491.21 1461.2 1489.38 1457.66 Q1487.57 1454.1 1483.94 1454.1 M1483.94 1450.39 Q1489.75 1450.39 1492.8 1455 Q1495.88 1459.58 1495.88 1468.33 Q1495.88 1477.06 1492.8 1481.67 Q1489.75 1486.25 1483.94 1486.25 Q1478.13 1486.25 1475.05 1481.67 Q1471.99 1477.06 1471.99 1468.33 Q1471.99 1459.58 1475.05 1455 Q1478.13 1450.39 1483.94 1450.39 Z" fill="#000000" fill-rule="nonzero" fill-opacity="1" /><path clip-path="url(#clip020)" d="M1900.35 1455.09 L1888.54 1473.54 L1900.35 1473.54 L1900.35 1455.09 M1899.12 1451.02 L1905 1451.02 L1905 1473.54 L1909.93 1473.54 L1909.93 1477.43 L1905 1477.43 L1905 1485.58 L1900.35 1485.58 L1900.35 1477.43 L1884.74 1477.43 L1884.74 1472.92 L1899.12 1451.02 Z" fill="#000000" fill-rule="nonzero" fill-opacity="1" /><path clip-path="url(#clip020)" d="M1927.66 1454.1 Q1924.05 1454.1 1922.22 1457.66 Q1920.41 1461.2 1920.41 1468.33 Q1920.41 1475.44 1922.22 1479.01 Q1924.05 1482.55 1927.66 1482.55 Q1931.29 1482.55 1933.1 1479.01 Q1934.93 1475.44 1934.93 1468.33 Q1934.93 1461.2 1933.1 1457.66 Q1931.29 1454.1 1927.66 1454.1 M1927.66 1450.39 Q1933.47 1450.39 1936.53 1455 Q1939.6 1459.58 1939.6 1468.33 Q1939.6 1477.06 1936.53 1481.67 Q1933.47 1486.25 1927.66 1486.25 Q1921.85 1486.25 1918.77 1481.67 Q1915.72 1477.06 1915.72 1468.33 Q1915.72 1459.58 1918.77 1455 Q1921.85 1450.39 1927.66 1450.39 Z" fill="#000000" fill-rule="nonzero" fill-opacity="1" /><path clip-path="url(#clip020)" d="M1245.79 1522.27 L1245.79 1532.4 L1257.85 1532.4 L1257.85 1536.95 L1245.79 1536.95 L1245.79 1556.3 Q1245.79 1560.66 1246.96 1561.9 Q1248.17 1563.14 1251.83 1563.14 L1257.85 1563.14 L1257.85 1568.04 L1251.83 1568.04 Q1245.05 1568.04 1242.48 1565.53 Q1239.9 1562.98 1239.9 1556.3 L1239.9 1536.95 L1235.6 1536.95 L1235.6 1532.4 L1239.9 1532.4 L1239.9 1522.27 L1245.79 1522.27 Z" fill="#000000" fill-rule="nonzero" fill-opacity="1" /><polyline clip-path="url(#clip020)" style="stroke:#000000; stroke-linecap:round; stroke-linejoin:round; stroke-width:4; stroke-opacity:1; fill:none" points="140.696,1423.18 140.696,47.2441 "/>
<polyline clip-path="url(#clip020)" style="stroke:#000000; stroke-linecap:round; stroke-linejoin:round; stroke-width:4; stroke-opacity:1; fill:none" points="140.696,1384.63 159.593,1384.63 "/>
<polyline clip-path="url(#clip020)" style="stroke:#000000; stroke-linecap:round; stroke-linejoin:round; stroke-width:4; stroke-opacity:1; fill:none" points="140.696,958.597 159.593,958.597 "/>
<polyline clip-path="url(#clip020)" style="stroke:#000000; stroke-linecap:round; stroke-linejoin:round; stroke-width:4; stroke-opacity:1; fill:none" points="140.696,532.56 159.593,532.56 "/>
<polyline clip-path="url(#clip020)" style="stroke:#000000; stroke-linecap:round; stroke-linejoin:round; stroke-width:4; stroke-opacity:1; fill:none" points="140.696,106.523 159.593,106.523 "/>
<path clip-path="url(#clip020)" d="M92.7512 1370.43 Q89.1401 1370.43 87.3114 1374 Q85.5058 1377.54 85.5058 1384.67 Q85.5058 1391.77 87.3114 1395.34 Q89.1401 1398.88 92.7512 1398.88 Q96.3854 1398.88 98.1909 1395.34 Q100.02 1391.77 100.02 1384.67 Q100.02 1377.54 98.1909 1374 Q96.3854 1370.43 92.7512 1370.43 M92.7512 1366.73 Q98.5613 1366.73 101.617 1371.33 Q104.696 1375.92 104.696 1384.67 Q104.696 1393.39 101.617 1398 Q98.5613 1402.58 92.7512 1402.58 Q86.941 1402.58 83.8623 1398 Q80.8068 1393.39 80.8068 1384.67 Q80.8068 1375.92 83.8623 1371.33 Q86.941 1366.73 92.7512 1366.73 Z" fill="#000000" fill-rule="nonzero" fill-opacity="1" /><path clip-path="url(#clip020)" d="M53.3995 971.942 L61.0384 971.942 L61.0384 945.576 L52.7282 947.243 L52.7282 942.983 L60.9921 941.317 L65.668 941.317 L65.668 971.942 L73.3068 971.942 L73.3068 975.877 L53.3995 975.877 L53.3995 971.942 Z" fill="#000000" fill-rule="nonzero" fill-opacity="1" /><path clip-path="url(#clip020)" d="M92.7512 944.395 Q89.1401 944.395 87.3114 947.96 Q85.5058 951.502 85.5058 958.631 Q85.5058 965.738 87.3114 969.303 Q89.1401 972.844 92.7512 972.844 Q96.3854 972.844 98.1909 969.303 Q100.02 965.738 100.02 958.631 Q100.02 951.502 98.1909 947.96 Q96.3854 944.395 92.7512 944.395 M92.7512 940.692 Q98.5613 940.692 101.617 945.298 Q104.696 949.881 104.696 958.631 Q104.696 967.358 101.617 971.965 Q98.5613 976.548 92.7512 976.548 Q86.941 976.548 83.8623 971.965 Q80.8068 967.358 80.8068 958.631 Q80.8068 949.881 83.8623 945.298 Q86.941 940.692 92.7512 940.692 Z" fill="#000000" fill-rule="nonzero" fill-opacity="1" /><path clip-path="url(#clip020)" d="M56.6171 545.905 L72.9365 545.905 L72.9365 549.84 L50.9921 549.84 L50.9921 545.905 Q53.6541 543.15 58.2375 538.521 Q62.8439 533.868 64.0245 532.525 Q66.2698 530.002 67.1494 528.266 Q68.0522 526.507 68.0522 524.817 Q68.0522 522.062 66.1078 520.326 Q64.1865 518.59 61.0847 518.59 Q58.8856 518.59 56.4319 519.354 Q54.0014 520.118 51.2236 521.669 L51.2236 516.947 Q54.0477 515.812 56.5014 515.234 Q58.955 514.655 60.9921 514.655 Q66.3624 514.655 69.5568 517.34 Q72.7513 520.025 72.7513 524.516 Q72.7513 526.646 71.9411 528.567 Q71.1541 530.465 69.0476 533.058 Q68.4689 533.729 65.367 536.947 Q62.2652 540.141 56.6171 545.905 Z" fill="#000000" fill-rule="nonzero" fill-opacity="1" /><path clip-path="url(#clip020)" d="M92.7512 518.359 Q89.1401 518.359 87.3114 521.923 Q85.5058 525.465 85.5058 532.595 Q85.5058 539.701 87.3114 543.266 Q89.1401 546.808 92.7512 546.808 Q96.3854 546.808 98.1909 543.266 Q100.02 539.701 100.02 532.595 Q100.02 525.465 98.1909 521.923 Q96.3854 518.359 92.7512 518.359 M92.7512 514.655 Q98.5613 514.655 101.617 519.261 Q104.696 523.845 104.696 532.595 Q104.696 541.322 101.617 545.928 Q98.5613 550.511 92.7512 550.511 Q86.941 550.511 83.8623 545.928 Q80.8068 541.322 80.8068 532.595 Q80.8068 523.845 83.8623 519.261 Q86.941 514.655 92.7512 514.655 Z" fill="#000000" fill-rule="nonzero" fill-opacity="1" /><path clip-path="url(#clip020)" d="M66.7559 105.169 Q70.1124 105.887 71.9874 108.155 Q73.8855 110.424 73.8855 113.757 Q73.8855 118.873 70.367 121.674 Q66.8485 124.475 60.3671 124.475 Q58.1912 124.475 55.8764 124.035 Q53.5847 123.618 51.131 122.762 L51.131 118.248 Q53.0754 119.382 55.3903 119.961 Q57.7051 120.539 60.2282 120.539 Q64.6263 120.539 66.918 118.803 Q69.2328 117.067 69.2328 113.757 Q69.2328 110.702 67.08 108.989 Q64.9504 107.252 61.131 107.252 L57.1032 107.252 L57.1032 103.41 L61.3161 103.41 Q64.7652 103.41 66.5939 102.044 Q68.4226 100.655 68.4226 98.0627 Q68.4226 95.4007 66.5245 93.9886 Q64.6495 92.5535 61.131 92.5535 Q59.2097 92.5535 57.0106 92.9701 Q54.8115 93.3868 52.1727 94.2664 L52.1727 90.0998 Q54.8347 89.359 57.1495 88.9887 Q59.4875 88.6183 61.5476 88.6183 Q66.8717 88.6183 69.9735 91.0488 Q73.0753 93.4562 73.0753 97.5766 Q73.0753 100.447 71.4318 102.438 Q69.7883 104.405 66.7559 105.169 Z" fill="#000000" fill-rule="nonzero" fill-opacity="1" /><path clip-path="url(#clip020)" d="M92.7512 92.322 Q89.1401 92.322 87.3114 95.8868 Q85.5058 99.4284 85.5058 106.558 Q85.5058 113.664 87.3114 117.229 Q89.1401 120.771 92.7512 120.771 Q96.3854 120.771 98.1909 117.229 Q100.02 113.664 100.02 106.558 Q100.02 99.4284 98.1909 95.8868 Q96.3854 92.322 92.7512 92.322 M92.7512 88.6183 Q98.5613 88.6183 101.617 93.2248 Q104.696 97.8081 104.696 106.558 Q104.696 115.285 101.617 119.891 Q98.5613 124.475 92.7512 124.475 Q86.941 124.475 83.8623 119.891 Q80.8068 115.285 80.8068 106.558 Q80.8068 97.8081 83.8623 93.2248 Q86.941 88.6183 92.7512 88.6183 Z" fill="#000000" fill-rule="nonzero" fill-opacity="1" /><polyline clip-path="url(#clip022)" style="stroke:#009af9; stroke-linecap:round; stroke-linejoin:round; stroke-width:4; stroke-opacity:1; fill:none" points="140.696,1384.24 140.696,1384.24 153.356,1378.15 162.425,1373.79 171.464,1369.45 175.704,1367.04 181.549,1363.82 186.456,1361.19 188.932,1359.66 189.734,1359.1 191.4,1357.95 201.011,1351.75 204.498,1349.65 208.95,1347.06 248.313,1326.45 261.445,1319.98 267.475,1317.04 283.502,1309.26 285.238,1308.26 285.543,1308.09 288.807,1306.24 310.954,1294.5 315.514,1292.19 339.977,1280.08 360.841,1269.94 368.384,1266.3 371.839,1264.63 381.211,1259.38 406.392,1246.3 445.271,1227.23 448.156,1225.84 449.602,1225.14 464.88,1217.76 468.877,1215.83 473.753,1213.48 487.838,1206.7 502.199,1199.79 502.248,1199.77 509.281,1196.39 514.401,1193.92 515.253,1193.51 518.683,1191.86 533.431,1184.77 538.42,1182.37 553.123,1175.3 568.219,1168.05 576.581,1163.36 600.453,1150.92 612.08,1145.12 624.446,1139.05 642.637,1129.02 645.971,1127.27 653.377,1123.47 664.458,1117.89 666.803,1116.73 667.705,1116.28 670.156,1115.07 683.99,1108.28 714.497,1093.5 733.476,1083.12 733.704,1083.01 734.277,1082.71 739.487,1079.57 750.446,1072.54 752.287,1071.26 762.398,1063.98 765.908,1061.36 772.864,1056.56 785.595,1047.79 822.417,1025.59 827.067,1022.75 842.167,1014.21 871.378,997.652 872.381,997.129 889.778,988.287 890.807,987.774 899.305,983.567 904.517,981.006 911.066,977.805 911.123,977.777 911.62,977.535 933.41,966.965 940.433,962.995 946.555,959.153 948.151,958.189 955.547,953.887 962.391,950.097 965.43,948.459 969.204,946.456 988.082,935.575 993.99,932.421 1002,928.258 1004.95,926.483 1021.96,915.83 1023.54,914.923 1033.97,909.159 1055.82,897.874 1066.36,892.63 1068.01,891.812 1083.64,883.084 1088.64,880.012 1089.1,879.738 1090.92,878.49 1109.62,867.019 1111.14,866.022 1121.25,859.794 1133.27,853.025 1137.67,850.66 1138.71,850.111 1154.05,842.198 1162.7,837.864 1166.6,835.93 1181.43,827.612 1194.96,820.538 1221.62,805.758 1227.01,802.982 1233.34,799.776 1255.46,788.827 1259.78,786.72 1262.97,784.879 1281.3,774.955 1288.27,771.371 1290.46,770.259 1295.44,767.318 1308.73,759.958 1323.75,751.104 1342.71,739.795 1374.1,723.477 1375.42,722.818 1378.63,721.225 1383.01,719.064 1385.38,717.9 1385.64,717.772 1388.78,716.23 1390.51,715.22 1393.11,713.735 1393.62,713.442 1418.37,698.849 1430.5,691.57 1438.94,686.881 1442.93,684.735 1443.05,684.674 1454.23,678.008 1462.89,672.519 1465.44,670.756 1468.4,668.792 1472.02,666.473 1485.89,657.3 1499.84,649.253 1502.14,647.788 1517.84,637.478 1530.74,630.097 1532.54,629.113 1536.54,626.614 1548.11,619.858 1552.16,617.621 1564.1,611.282 1579.12,603.644 1586.14,600.151 1597.61,594.509 1627.93,578.208 1643.25,570.548 1647,568.697 1652.62,565.465 1663.22,558.858 1669.05,555.483 1678.53,550.264 1679.94,549.512 1693.6,541.428 1699.41,538.225 1703.12,535.903 1707.12,533.495 1707.7,533.152 1728.8,520.221 1749.39,507.971 1772.62,495.813 1782.19,491.019 1782.74,490.746 1782.74,490.746 1809.58,477.604 1835.33,465.156 1851,457.606 1853.48,456.413 1866.46,450.168 1881.71,442.831 1890.06,438.814 1892.05,437.855 1893.56,437.132 1894.81,436.531 1898.48,434.763 1901.86,433.142 1905.31,431.482 1906.77,430.779 1911.98,427.827 1912.63,427.465 1917.01,425.067 1927.36,419.591 1934.18,416.089 1939.85,413.225 1942.45,411.921 1957.28,404.583 1978.05,394.463 1980.9,393.085 1981.75,392.67 1996.97,384.261 2000.89,382.193 2008.55,378.241 2009.53,377.741 2037.23,363.977 2052.85,355.298 2061.68,350.676 2085.85,338.549 2088.7,337.146 2097.31,332.932 2098.98,332.118 2102.52,330.397 2107.78,327.844 2116.86,322.726 2124.07,318.852 2152.41,304.458 2153.05,304.141 2155.08,303.139 2158.74,301.339 2164.66,297.942 2164.87,297.803 2165.88,297.048 2186.51,282.354 2192.7,278.617 2193.35,278.241 2194.58,277.525 2202.55,272.398 2203.63,271.733 2204.78,270.929 2209.82,267.544 2211.66,266.19 2218.91,261.192 2235.95,250.897 2237.83,249.673 2251.91,241.2 2266.55,233.232 2287.31,222.649 2299.41,215.774 2315.71,206.068 2319.79,203.814 2324.18,201.063 2326.82,199.467 2334.32,195.119 2336.34,193.798 2339.98,191.498 2342.69,189.842 2352.76,183.23 "/>
<polyline clip-path="url(#clip022)" style="stroke:#e26f46; stroke-linecap:round; stroke-linejoin:round; stroke-width:4; stroke-opacity:1; fill:none" points="140.696,1384.24 140.696,1384.24 153.356,1378.15 162.425,1373.79 171.464,1369.45 175.704,1367.41 181.549,1364.1 186.456,1361.42 188.932,1360.09 189.734,1359.66 191.4,1358.63 201.011,1352.19 204.498,1350.03 208.95,1347.37 248.313,1326.5 261.445,1319.06 267.475,1315.32 283.502,1306.23 285.238,1305.3 285.543,1305.14 288.807,1303.4 310.954,1292.11 315.514,1289.45 339.977,1276.32 360.841,1265.88 368.384,1262.18 371.839,1260.49 381.211,1255.93 406.392,1242.3 445.271,1223.02 448.156,1221.36 449.602,1220.54 464.88,1211.21 468.877,1208.95 473.753,1205.86 487.838,1197.65 502.199,1188.96 502.248,1188.94 509.281,1184.44 514.401,1180.93 515.253,1180.37 518.683,1178.16 533.431,1169.44 538.42,1166.27 553.123,1157.71 568.219,1149.67 576.581,1145.4 600.453,1132.16 612.08,1125.33 624.446,1117.7 642.637,1107.69 645.971,1105.95 653.377,1102.15 664.458,1096.58 666.803,1095.42 667.705,1094.97 670.156,1093.54 683.99,1085.87 714.497,1070.32 733.476,1061.03 733.704,1060.92 734.277,1060.64 739.487,1058.11 750.446,1052.8 752.287,1051.91 762.398,1047.03 765.908,1045.34 772.864,1041.99 785.595,1035.86 822.417,1018.14 827.067,1015.91 842.167,1008.65 871.378,994.603 872.381,994.121 889.778,985.757 890.807,985.262 899.305,981.176 904.517,978.67 911.066,975.522 911.123,975.494 911.62,975.255 933.41,964.779 940.433,961.403 946.555,958.46 948.151,957.692 955.547,954.136 962.391,950.846 965.43,949.385 969.204,947.571 988.082,938.494 993.99,935.155 1002,930.809 1004.95,929.247 1021.96,920.538 1023.54,919.747 1033.97,914.571 1055.82,902.564 1066.36,897.158 1068.01,896.321 1083.64,888.545 1088.64,886.091 1089.1,885.867 1090.92,884.976 1109.62,875.88 1111.14,875.143 1121.25,870.255 1133.27,864.458 1137.67,862.336 1138.71,861.838 1154.05,853.387 1162.7,848.879 1166.6,846.887 1181.43,839.458 1194.96,832.811 1221.62,819.878 1227.01,816.812 1233.34,812.817 1255.46,800.358 1259.78,798.095 1262.97,796.443 1281.3,786.006 1288.27,782.314 1290.46,780.973 1295.44,778.02 1308.73,770.637 1323.75,762.818 1342.71,753.348 1374.1,736.445 1375.42,735.776 1378.63,734.158 1383.01,731.97 1385.38,730.578 1385.64,730.426 1388.78,728.619 1390.51,727.639 1393.11,725.959 1393.62,725.629 1418.37,711.436 1430.5,705.137 1438.94,700.874 1442.93,698.528 1443.05,698.461 1454.23,692.241 1462.89,687.661 1465.44,686.337 1468.4,684.821 1472.02,682.976 1485.89,676.037 1499.84,668.193 1502.14,666.96 1517.84,658.814 1530.74,652.358 1532.54,651.3 1536.54,649.006 1548.11,641.807 1552.16,639.461 1564.1,632.011 1579.12,623.606 1586.14,619.899 1597.61,613.163 1627.93,597.248 1643.25,589.654 1647,587.813 1652.62,585.071 1663.22,579.918 1669.05,577.093 1678.53,572.508 1679.94,571.699 1693.6,564.188 1699.41,561.14 1703.12,559.226 1707.12,557.188 1707.7,556.893 1728.8,546.389 1749.39,536.352 1772.62,523.746 1782.19,518.12 1782.74,517.81 1782.74,517.81 1809.58,502.118 1835.33,488.927 1851,480.125 1853.48,478.577 1866.46,471.005 1881.71,461.78 1890.06,457.163 1892.05,456.092 1893.56,455.29 1894.81,454.628 1898.48,452.699 1901.86,450.952 1905.31,448.873 1906.77,448.012 1911.98,445.02 1912.63,444.654 1917.01,442.229 1927.36,435.914 1934.18,431.473 1939.85,427.54 1942.45,425.594 1957.28,415.742 1978.05,404.017 1980.9,402.514 1981.75,401.984 1996.97,393.181 2000.89,391.048 2008.55,386.376 2009.53,385.8 2037.23,370.846 2052.85,363.003 2061.68,358.649 2085.85,346.886 2088.7,345.505 2097.31,341.343 2098.98,340.537 2102.52,338.516 2107.78,335.598 2116.86,330.739 2124.07,326.414 2152.41,309.637 2153.05,309.294 2155.08,308.214 2158.74,306.289 2164.66,303.23 2164.87,303.122 2165.88,302.605 2186.51,292.288 2192.7,288.726 2193.35,288.365 2194.58,287.678 2202.55,283.345 2203.63,282.767 2204.78,282.159 2209.82,279.524 2211.66,278.573 2218.91,274.28 2235.95,263.82 2237.83,262.758 2251.91,255.144 2266.55,247.644 2287.31,236.069 2299.41,229.821 2315.71,221.675 2319.79,219.304 2324.18,216.832 2326.82,215.379 2334.32,211.355 2336.34,210.291 2339.98,208.397 2342.69,207.002 2352.76,201.902 "/>
<polyline clip-path="url(#clip022)" style="stroke:#3da44d; stroke-linecap:round; stroke-linejoin:round; stroke-width:4; stroke-opacity:1; fill:none" points="140.696,1384.24 140.696,1384.24 153.356,1378.15 162.425,1373.79 171.464,1369.45 175.704,1367.41 181.549,1364.6 186.456,1362.24 188.932,1361.05 189.734,1360.66 191.4,1359.86 201.011,1355.24 204.498,1353.56 208.95,1351.04 248.313,1330.66 261.445,1324.22 267.475,1321.28 283.502,1313.51 285.238,1312.67 285.543,1312.52 288.807,1310.95 310.954,1300.27 315.514,1298.07 339.977,1286.3 360.841,1276.27 368.384,1272.03 371.839,1269.84 381.211,1264.26 406.392,1250.76 445.271,1229.77 448.156,1228.32 449.602,1227.6 464.88,1220.06 468.877,1218.1 473.753,1215.73 487.838,1207.89 502.199,1200.41 502.248,1200.39 509.281,1196.84 514.401,1194.28 515.253,1193.78 518.683,1191.48 533.431,1181.47 538.42,1178.45 553.123,1170.18 568.219,1161.24 576.581,1156.68 600.453,1144.43 612.08,1138.68 624.446,1132.63 642.637,1123.81 645.971,1122.2 653.377,1118.62 664.458,1113.28 666.803,1111.93 667.705,1111.34 670.156,1109.75 683.99,1100.49 714.497,1083.57 733.476,1074.01 733.704,1073.87 734.277,1073.53 739.487,1070.53 750.446,1064.53 752.287,1063.56 762.398,1058.31 765.908,1056.53 772.864,1053.03 785.595,1046.73 822.417,1028.84 827.067,1026.59 842.167,1019.32 871.378,1005.26 872.381,1004.78 889.778,995.251 890.807,994.615 899.305,989.586 904.517,986.657 911.066,982.555 911.123,982.514 911.62,982.167 933.41,968.698 940.433,964.836 946.555,961.578 948.151,960.742 955.547,956.925 962.391,953.459 965.43,951.936 969.204,950.056 988.082,940.776 993.99,937.9 1002,934.014 1004.95,932.584 1021.96,924.37 1023.54,923.608 1033.97,918.582 1055.82,908.067 1066.36,902.19 1068.01,901.144 1083.64,892.005 1088.64,889.283 1089.1,889.037 1090.92,888.063 1109.62,878.422 1111.14,877.657 1121.25,871.849 1133.27,865.385 1137.67,863.095 1138.71,862.562 1154.05,854.814 1162.7,850.533 1166.6,848.618 1181.43,841.384 1194.96,834.831 1221.62,821.975 1227.01,819.377 1233.34,816.332 1255.46,804.344 1259.78,801.753 1262.97,799.895 1281.3,789.913 1288.27,786.316 1290.46,785.201 1295.44,782.683 1308.73,776.079 1323.75,768.728 1342.71,759.534 1374.1,744.4 1375.42,743.764 1378.63,742.218 1383.01,740.112 1385.38,738.974 1385.64,738.849 1388.78,737.055 1390.51,736.081 1393.11,734.645 1393.62,734.361 1418.37,721.459 1430.5,715.425 1438.94,711.277 1442.93,709.324 1443.05,709.267 1454.23,703.83 1462.89,699.636 1465.44,698.399 1468.4,696.973 1472.02,695.223 1485.89,688.532 1499.84,681.817 1502.14,680.711 1517.84,673.154 1530.74,666.01 1532.54,665.05 1536.54,662.948 1548.11,657.01 1552.16,654.972 1564.1,649.047 1579.12,641.694 1586.14,637.702 1597.61,631.519 1627.93,616.212 1643.25,608.722 1647,606.566 1652.62,603.44 1663.22,597.783 1669.05,594.767 1678.53,589.22 1679.94,588.431 1693.6,581.063 1699.41,578.054 1703.12,576.159 1707.12,574.139 1707.7,573.847 1728.8,563.397 1749.39,553.38 1772.62,542.167 1782.19,537.553 1782.74,537.288 1782.74,537.288 1809.58,524.373 1835.33,511.991 1851,504.456 1853.48,503.264 1866.46,497.025 1881.71,489.692 1890.06,485.676 1892.05,484.534 1893.56,483.544 1894.81,482.734 1898.48,480.416 1901.86,478.064 1905.31,475.761 1906.77,474.816 1911.98,471.564 1912.63,471.107 1917.01,467.759 1927.36,460.661 1934.18,456.436 1939.85,453.12 1942.45,451.644 1957.28,443.633 1978.05,433.084 1980.9,431.672 1981.75,431.248 1996.97,423.781 2000.89,421.868 2008.55,418.15 2009.53,417.674 2037.23,404.296 2052.85,396.774 2061.68,392.523 2085.85,379.484 2088.7,377.769 2097.31,372.82 2098.98,371.894 2102.52,369.961 2107.78,367.151 2116.86,362.426 2124.07,358.767 2152.41,344.777 2153.05,344.464 2155.08,343.476 2158.74,341.372 2164.66,338.078 2164.87,337.963 2165.88,337.412 2186.51,326.657 2192.7,323.545 2193.35,323.224 2194.58,322.495 2202.55,317.941 2203.63,317.338 2204.78,316.706 2209.82,313.976 2211.66,312.995 2218.91,309.202 2235.95,300.579 2237.83,299.646 2251.91,291.714 2266.55,283.012 2287.31,271.951 2299.41,265.843 2315.71,257.797 2319.79,255.8 2324.18,253.66 2326.82,252.138 2334.32,247.347 2336.34,246.115 2339.98,243.635 2342.69,241.618 2352.76,234.768 "/>
<polyline clip-path="url(#clip022)" style="stroke:#c271d2; stroke-linecap:round; stroke-linejoin:round; stroke-width:4; stroke-opacity:1; fill:none" points="140.696,1384.24 140.696,1384.24 153.356,1378.15 162.425,1373.79 171.464,1368.73 175.704,1366.45 181.549,1363.37 186.456,1360.4 188.932,1358.96 189.734,1358.49 191.4,1357.54 201.011,1352.24 204.498,1350.07 208.95,1347.4 248.313,1326.51 261.445,1320.02 267.475,1317.06 283.502,1308.18 285.238,1307.26 285.543,1307.07 288.807,1304.78 310.954,1289.92 315.514,1287.27 339.977,1272.76 360.841,1260.59 368.384,1256.57 371.839,1254.77 381.211,1249.98 406.392,1237.5 445.271,1218.67 448.156,1217.27 449.602,1216.44 464.88,1208.09 468.877,1205.65 473.753,1202.79 487.838,1195.03 502.199,1187.59 502.248,1187.56 509.281,1183.44 514.401,1180.57 515.253,1180.1 518.683,1178.24 533.431,1170.52 538.42,1167.99 553.123,1159.63 568.219,1151.7 576.581,1147.46 600.453,1135.67 612.08,1130.01 624.446,1124.03 642.637,1115.25 645.971,1113.64 653.377,1109.47 664.458,1102.7 666.803,1101.35 667.705,1100.84 670.156,1099.46 683.99,1092.01 714.497,1075.06 733.476,1065.49 733.704,1065.38 734.277,1065.09 739.487,1062.52 750.446,1057.16 752.287,1056.26 762.398,1051.35 765.908,1049.65 772.864,1045.71 785.595,1038.88 822.417,1020.44 827.067,1018.18 842.167,1009.79 871.378,994.91 872.381,994.32 889.778,984.689 890.807,984.145 899.305,979.058 904.517,975.657 911.066,971.644 911.123,971.61 911.62,971.315 933.41,957.972 940.433,954.13 946.555,950.885 948.151,949.904 955.547,944.931 962.391,940.69 965.43,938.619 969.204,935.822 988.082,923.71 993.99,920.342 1002,915.32 1004.95,913.564 1021.96,904.127 1023.54,903.146 1033.97,896.205 1055.82,883.693 1066.36,878.173 1068.01,877.322 1083.64,869.459 1088.64,866.988 1089.1,866.719 1090.92,865.657 1109.62,854.216 1111.14,853.362 1121.25,847.869 1133.27,840.743 1137.67,837.904 1138.71,837.159 1154.05,827.202 1162.7,821.518 1166.6,818.785 1181.43,809.477 1194.96,801.929 1221.62,788.247 1227.01,785.572 1233.34,782.458 1255.46,771.684 1259.78,769.594 1262.97,768.05 1281.3,759.206 1288.27,755.848 1290.46,754.793 1295.44,752.393 1308.73,745.04 1323.75,737.238 1342.71,727.778 1374.1,712.495 1375.42,711.856 1378.63,710.304 1383.01,707.81 1385.38,706.491 1385.64,706.322 1388.78,704.322 1390.51,703.247 1393.11,701.673 1393.62,701.313 1418.37,686.282 1430.5,679.811 1438.94,675.473 1442.93,673.452 1443.05,673.394 1454.23,667.822 1462.89,663.561 1465.44,662.309 1468.4,660.602 1472.02,658.234 1485.89,649.921 1499.84,642.336 1502.14,641.132 1517.84,633.121 1530.74,626.723 1532.54,625.837 1536.54,623.878 1548.11,618.236 1552.16,616.27 1564.1,610.494 1579.12,603.244 1586.14,599.86 1597.61,594.336 1627.93,579.752 1643.25,572.385 1647,570.58 1652.62,567.88 1663.22,562.784 1669.05,559.487 1678.53,554.357 1679.94,553.616 1693.6,546.585 1699.41,543.175 1703.12,541.075 1707.12,538.517 1707.7,538.099 1728.8,524.746 1749.39,513.626 1772.62,501.946 1782.19,497.243 1782.74,496.922 1782.74,496.922 1809.58,480.939 1835.33,466.2 1851,458.121 1853.48,456.873 1866.46,450.424 1881.71,442.96 1890.06,438.233 1892.05,437.141 1893.56,436.325 1894.81,435.534 1898.48,432.942 1901.86,430.676 1905.31,428.449 1906.77,427.533 1911.98,424.368 1912.63,423.983 1917.01,421.445 1927.36,415.732 1934.18,412.123 1939.85,409.192 1942.45,407.863 1957.28,399.387 1978.05,388.541 1980.9,386.849 1981.75,386.347 1996.97,377.905 2000.89,375.486 2008.55,371.004 2009.53,370.356 2037.23,354.262 2052.85,346.187 2061.68,341.059 2085.85,328.245 2088.7,326.801 2097.31,321.802 2098.98,320.868 2102.52,318.921 2107.78,315.642 2116.86,310.33 2124.07,306.349 2152.41,291.755 2153.05,291.374 2155.08,289.998 2158.74,287.604 2164.66,283.931 2164.87,283.804 2165.88,283.198 2186.51,271.733 2192.7,268.508 2193.35,268.117 2194.58,267.373 2202.55,262.739 2203.63,262.128 2204.78,261.486 2209.82,258.289 2211.66,257.163 2218.91,252.901 2235.95,243.626 2237.83,242.647 2251.91,235.475 2266.55,228.215 2287.31,218.092 2299.41,212.238 2315.71,204.374 2319.79,202.406 2324.18,200.291 2326.82,199.021 2334.32,195.413 2336.34,194.438 2339.98,192.687 2342.69,191.384 2352.76,186.542 "/>
<polyline clip-path="url(#clip022)" style="stroke:#ac8d18; stroke-linecap:round; stroke-linejoin:round; stroke-width:4; stroke-opacity:1; fill:none" points="140.696,1384.24 140.696,1384.24 153.356,1378.15 162.425,1373.79 171.464,1369.45 175.704,1367.41 181.549,1364.6 186.456,1362.24 188.932,1361.05 189.734,1360.66 191.4,1359.86 201.011,1355.24 204.498,1353.25 208.95,1350.39 248.313,1328.78 261.445,1322.23 267.475,1319.26 283.502,1310.34 285.238,1309.41 285.543,1309.25 288.807,1307.54 310.954,1296.32 315.514,1294.07 339.977,1280.7 360.841,1268.89 368.384,1264.32 371.839,1262.01 381.211,1256.19 406.392,1242.39 445.271,1221.27 448.156,1219.82 449.602,1219.1 464.88,1211.55 468.877,1209.24 473.753,1206.51 487.838,1198 502.199,1190.16 502.248,1190.13 509.281,1185.89 514.401,1182.96 515.253,1182.4 518.683,1179.9 533.431,1169.3 538.42,1166.16 553.123,1156.62 568.219,1147.02 576.581,1142.24 600.453,1129.68 612.08,1123.86 624.446,1117.77 642.637,1108.92 645.971,1107.3 653.377,1103.12 664.458,1097.17 666.803,1095.73 667.705,1095.1 670.156,1093.43 683.99,1083.83 714.497,1065.03 733.476,1055.1 733.704,1054.97 734.277,1054.62 739.487,1051.57 750.446,1045.49 752.287,1044.5 762.398,1039.21 765.908,1037.42 772.864,1033.9 785.595,1027.58 822.417,1009.67 827.067,1007.42 842.167,999.093 871.378,984.245 872.381,983.656 889.778,972.873 890.807,972.189 899.305,966.839 904.517,963.766 911.066,959.526 911.123,959.484 911.62,959.128 933.41,944.079 940.433,939.96 946.555,936.537 948.151,935.665 955.547,931.105 962.391,927.142 965.43,925.443 969.204,923.375 988.082,913.515 993.99,910.538 1002,906.552 1004.95,905.093 1021.96,896.77 1023.54,895.856 1033.97,890.052 1055.82,878.727 1066.36,872.667 1068.01,871.599 1083.64,862.32 1088.64,859.57 1089.1,859.321 1090.92,858.339 1109.62,848.641 1111.14,847.874 1121.25,842.051 1133.27,835.576 1137.67,833.285 1138.71,832.751 1154.05,824.997 1162.7,820.714 1166.6,818.455 1181.43,810.348 1194.96,803.375 1221.62,790.171 1227.01,787.541 1233.34,784.467 1255.46,772.424 1259.78,769.826 1262.97,767.965 1281.3,757.97 1288.27,754.371 1290.46,753.254 1295.44,750.735 1308.73,744.129 1323.75,736.776 1342.71,727.582 1374.1,712.447 1375.42,711.811 1378.63,710.265 1383.01,707.778 1385.38,706.462 1385.64,706.319 1388.78,704.319 1390.51,703.244 1393.11,701.67 1393.62,701.311 1418.37,686.281 1430.5,679.81 1438.94,675.473 1442.93,673.452 1443.05,673.394 1454.23,667.822 1462.89,663.561 1465.44,662.309 1468.4,660.602 1472.02,658.555 1485.89,651.084 1499.84,643.951 1502.14,642.798 1517.84,635.022 1530.74,627.785 1532.54,626.816 1536.54,624.695 1548.11,618.72 1552.16,616.673 1564.1,610.729 1579.12,603.363 1586.14,599.368 1597.61,593.182 1627.93,577.87 1643.25,570.379 1647,568.223 1652.62,565.097 1663.22,559.439 1669.05,556.423 1678.53,550.876 1679.94,550.087 1693.6,542.72 1699.41,539.71 1703.12,537.815 1707.12,535.444 1707.7,535.051 1728.8,522.262 1749.39,511.356 1772.62,499.766 1782.19,495.08 1782.74,494.813 1782.74,494.813 1809.58,480.311 1835.33,466.003 1851,458.024 1853.48,456.786 1866.46,450.376 1881.71,442.936 1890.06,438.217 1892.05,436.942 1893.56,435.86 1894.81,434.978 1898.48,432.471 1901.86,429.97 1905.31,427.538 1906.77,426.544 1911.98,423.139 1912.63,422.667 1917.01,419.219 1927.36,411.951 1934.18,407.651 1939.85,404.287 1942.45,402.794 1957.28,394.712 1978.05,384.118 1980.9,382.703 1981.75,382.277 1996.97,374.798 2000.89,372.538 2008.55,368.295 2009.53,367.764 2037.23,353.519 2052.85,345.821 2061.68,340.813 2085.85,326.748 2088.7,324.97 2097.31,319.188 2098.98,318.134 2102.52,315.962 2107.78,312.408 2116.86,306.751 2124.07,302.581 2152.41,287.631 2153.05,287.246 2155.08,286.046 2158.74,283.604 2164.66,279.87 2164.87,279.741 2165.88,279.127 2186.51,267.547 2192.7,264.304 2193.35,263.911 2194.58,263.049 2202.55,257.791 2203.63,257.11 2204.78,256.4 2209.82,253.371 2211.66,252.297 2218.91,248.203 2235.95,239.163 2237.83,238.201 2251.91,230.114 2266.55,221.326 2287.31,210.21 2299.41,204.087 2315.71,196.031 2319.79,194.032 2324.18,191.891 2326.82,190.368 2334.32,185.575 2336.34,184.343 2339.98,181.862 2342.69,179.845 2352.76,172.993 "/>
<polyline clip-path="url(#clip022)" style="stroke:#00a9ad; stroke-linecap:round; stroke-linejoin:round; stroke-width:4; stroke-opacity:1; fill:none" points="140.696,1384.24 140.696,1384.24 153.356,1378.15 162.425,1373.79 171.464,1368.73 175.704,1366.45 181.549,1363.37 186.456,1360.4 188.932,1358.96 189.734,1358.49 191.4,1357.39 201.011,1350.64 204.498,1348.08 208.95,1345 248.313,1322.56 261.445,1315.93 267.475,1312.43 283.502,1302.64 285.238,1301.65 285.543,1301.45 288.807,1299.06 310.954,1283.78 315.514,1280.69 339.977,1264.88 360.841,1252.32 368.384,1248.23 371.839,1246.4 381.211,1241.56 406.392,1229.01 445.271,1210.15 448.156,1208.76 449.602,1207.93 464.88,1198.51 468.877,1195.89 473.753,1192.85 487.838,1184.75 502.199,1177.14 502.248,1177.11 509.281,1172.93 514.401,1170.04 515.253,1169.56 518.683,1167.38 533.431,1157.69 538.42,1154.74 553.123,1145.58 568.219,1136.17 576.581,1131.45 600.453,1117.57 612.08,1111.48 624.446,1104.31 642.637,1094.65 645.971,1092.94 653.377,1088.6 664.458,1081.66 666.803,1080.07 667.705,1079.47 670.156,1077.87 683.99,1068.57 714.497,1050.03 733.476,1040.16 733.704,1040.02 734.277,1039.67 739.487,1036.63 750.446,1030.56 752.287,1029.57 762.398,1024.29 765.908,1022.5 772.864,1018.41 785.595,1011.41 822.417,992.794 827.067,990.517 842.167,982.12 871.378,967.222 872.381,966.631 889.778,955.839 890.807,955.155 899.305,949.124 904.517,945.299 911.066,940.878 911.123,940.835 911.62,940.467 933.41,925.099 940.433,920.928 946.555,917.47 948.151,916.443 955.547,911.293 962.391,906.934 965.43,904.821 969.204,901.98 988.082,889.73 993.99,886.337 1002,881.291 1004.95,879.529 1021.96,870.066 1023.54,869.083 1033.97,862.134 1055.82,849.615 1066.36,843.286 1068.01,842.186 1083.64,832.699 1088.64,829.908 1089.1,829.613 1090.92,828.454 1109.62,816.363 1111.14,815.476 1121.25,809.035 1133.27,801.222 1137.67,798.211 1138.71,797.431 1154.05,787.101 1162.7,781.297 1166.6,778.523 1181.43,769.112 1194.96,761.514 1221.62,747.79 1227.01,744.651 1233.34,741.119 1255.46,728.2 1259.78,725.889 1262.97,724.207 1281.3,714.861 1288.27,711.399 1290.46,710.116 1295.44,707.275 1308.73,699.134 1323.75,690.861 1342.71,681.121 1374.1,665.68 1375.42,665.038 1378.63,663.48 1383.01,660.979 1385.38,659.441 1385.64,659.25 1388.78,656.714 1390.51,655.373 1393.11,653.44 1393.62,653.014 1418.37,636.081 1430.5,629.221 1438.94,624.714 1442.93,622.632 1443.05,622.573 1454.23,616.88 1462.89,612.56 1465.44,611.295 1468.4,609.574 1472.02,607.191 1485.89,598.84 1499.84,591.234 1502.14,590.028 1517.84,582.006 1530.74,575.604 1532.54,574.551 1536.54,572.267 1548.11,565.956 1552.16,563.827 1564.1,556.826 1579.12,548.73 1586.14,545.109 1597.61,538.467 1627.93,522.656 1643.25,515.079 1647,513.242 1652.62,510.502 1663.22,505.354 1669.05,502.037 1678.53,496.142 1679.94,495.313 1693.6,487.664 1699.41,484.087 1703.12,481.901 1707.12,479.265 1707.7,478.837 1728.8,465.249 1749.39,454.039 1772.62,440.937 1782.19,435.217 1782.74,434.85 1782.74,434.85 1809.58,416.083 1835.33,400.532 1851,391.186 1853.48,389.582 1866.46,381.801 1881.71,372.444 1890.06,367.117 1892.05,365.912 1893.56,364.877 1894.81,363.916 1898.48,360.875 1901.86,357.956 1905.31,355.157 1906.77,354.023 1911.98,350.192 1912.63,349.735 1917.01,346.378 1927.36,338.47 1934.18,333.884 1939.85,329.861 1942.45,328.117 1957.28,318.015 1978.05,306.131 1980.9,304.359 1981.75,303.753 1996.97,294.012 2000.89,291.379 2008.55,285.953 2009.53,285.206 2037.23,267.55 2052.85,259.159 2061.68,253.928 2085.85,240.976 2088.7,239.524 2097.31,234.505 2098.98,233.568 2102.52,231.301 2107.78,227.632 2116.86,221.829 2124.07,217.579 2152.41,202.48 2153.05,202.094 2155.08,200.702 2158.74,197.956 2164.66,193.826 2164.87,193.685 2165.88,193.014 2186.51,180.692 2192.7,176.811 2193.35,176.361 2194.58,175.511 2202.55,170.313 2203.63,169.639 2204.78,168.935 2209.82,165.498 2211.66,164.298 2218.91,159.794 2235.95,150.185 2237.83,149.183 2251.91,140.884 2266.55,131.981 2287.31,120.79 2299.41,114.647 2315.71,106.575 2319.79,104.575 2324.18,102.432 2326.82,101.147 2334.32,96.8939 2336.34,95.7793 2339.98,93.8066 2342.69,92.1168 2352.76,86.1857 "/>
<polyline clip-path="url(#clip022)" style="stroke:#ed5d92; stroke-linecap:round; stroke-linejoin:round; stroke-width:4; stroke-opacity:1; fill:none" points="140.696,1384.24 140.696,1384.24 153.356,1377.22 162.425,1371.74 171.464,1366.66 175.704,1364.36 181.549,1361.27 186.456,1358.73 188.932,1357.46 189.734,1357.05 191.4,1356.2 201.011,1351.37 204.498,1349.63 208.95,1347.43 248.313,1326.51 261.445,1320.02 267.475,1317.07 283.502,1309.27 285.238,1308.43 285.543,1308.28 288.807,1306.71 310.954,1296.02 315.514,1293.82 339.977,1282.05 360.841,1272.01 368.384,1268.38 371.839,1266.72 381.211,1262.22 406.392,1250.11 445.271,1231.42 448.156,1230.03 449.602,1229.33 464.88,1221.99 468.877,1220.07 473.753,1217.72 487.838,1210.95 502.199,1204.05 502.248,1204.02 509.281,1200.64 514.401,1198.18 515.253,1197.77 518.683,1196.12 533.431,1189.03 538.42,1186.63 553.123,1179.56 568.219,1172.31 576.581,1168.29 600.453,1156.81 612.08,1151.22 624.446,1145.27 642.637,1136.53 645.971,1134.63 653.377,1130.55 664.458,1124.7 666.803,1123.5 667.705,1123.03 670.156,1121.78 683.99,1114.85 714.497,1099.93 733.476,1090.76 733.704,1090.65 734.277,1090.32 739.487,1087.37 750.446,1081.45 752.287,1080.49 762.398,1075.28 765.908,1073.51 772.864,1070.03 785.595,1063.75 822.417,1045.87 827.067,1043.63 842.167,1036.36 871.378,1022.3 872.381,1021.82 889.778,1013.45 890.807,1012.96 899.305,1008.87 904.517,1006.36 911.066,1003.22 911.123,1003.19 911.62,1002.9 933.41,991.121 940.433,987.533 946.555,984.453 948.151,983.655 955.547,979.986 962.391,976.053 965.43,974.364 969.204,972.308 988.082,962.483 993.99,959.513 1002,955.532 1004.95,954.075 1021.96,945.759 1023.54,944.992 1033.97,939.935 1055.82,929.389 1066.36,924.311 1068.01,923.513 1083.64,915.99 1088.64,913.586 1089.1,913.366 1090.92,912.49 1109.62,903.496 1111.14,902.764 1121.25,897.903 1133.27,892.125 1137.67,890.007 1138.71,889.51 1154.05,882.134 1162.7,877.974 1166.6,876.099 1181.43,868.969 1194.96,861.491 1221.62,847.867 1227.01,845.198 1233.34,842.088 1255.46,831.324 1259.78,829.235 1262.97,827.692 1281.3,818.85 1288.27,814.918 1290.46,813.716 1295.44,811.033 1308.73,804.133 1323.75,796.603 1342.71,787.305 1374.1,772.111 1375.42,771.351 1378.63,769.245 1383.01,766.495 1385.38,765.058 1385.64,764.901 1388.78,763.043 1390.51,762.037 1393.11,760.557 1393.62,760.265 1418.37,747.133 1430.5,741.052 1438.94,736.209 1442.93,734.008 1443.05,733.934 1454.23,727.163 1462.89,722.312 1465.44,720.925 1468.4,719.347 1472.02,717.435 1485.89,710.321 1499.84,703.379 1502.14,702.247 1517.84,694.571 1530.74,688.317 1532.54,687.445 1536.54,685.514 1548.11,679.928 1552.16,677.62 1564.1,671.134 1579.12,662.346 1586.14,658.53 1597.61,652.539 1627.93,637.443 1643.25,628.925 1647,626.94 1652.62,624.022 1663.22,618.638 1669.05,615.726 1678.53,611.04 1679.94,610.35 1693.6,603.679 1699.41,600.858 1703.12,599.06 1707.12,597.127 1707.7,596.847 1728.8,586.662 1749.39,576.747 1772.62,565.576 1782.19,560.97 1782.74,560.706 1782.74,560.706 1809.58,547.801 1835.33,535.422 1851,527.888 1853.48,526.696 1866.46,519.513 1881.71,511.59 1890.06,507.387 1892.05,506.393 1893.56,505.645 1894.81,505.025 1898.48,503.208 1901.86,501.547 1905.31,499.852 1906.77,499.001 1911.98,496.037 1912.63,495.674 1917.01,493.268 1927.36,487.78 1934.18,484.272 1939.85,481.404 1942.45,480.099 1957.28,472.755 1978.05,461.336 1980.9,459.857 1981.75,459.414 1996.97,451.712 2000.89,449.761 2008.55,445.983 2009.53,445.502 2037.23,430.507 2052.85,422.657 2061.68,418.3 2085.85,406.533 2088.7,405.153 2097.31,400.99 2098.98,400.029 2102.52,398.031 2107.78,395.141 2116.86,390.316 2124.07,386.602 2152.41,372.509 2153.05,372.195 2155.08,371.203 2158.74,369.419 2164.66,366.541 2164.87,366.439 2165.88,365.948 2186.51,355.973 2192.7,352.984 2193.35,352.674 2194.58,352.081 2202.55,348.242 2203.63,347.616 2204.78,346.961 2209.82,344.143 2211.66,343.135 2218.91,339.254 2235.95,330.508 2237.83,329.566 2251.91,322.591 2266.55,315.439 2287.31,305.386 2299.41,299.55 2315.71,291.7 2319.79,289.734 2324.18,287.621 2326.82,286.352 2334.32,282.746 2336.34,281.771 2339.98,280.021 2342.69,278.719 2352.76,273.878 "/>
<polyline clip-path="url(#clip022)" style="stroke:#c68125; stroke-linecap:round; stroke-linejoin:round; stroke-width:4; stroke-opacity:1; fill:none" points="140.696,1384.24 140.696,1384.24 153.356,1378.15 162.425,1373.79 171.464,1369.45 175.704,1367.41 181.549,1364.1 186.456,1361.42 188.932,1360.09 189.734,1359.66 191.4,1358.63 201.011,1352.19 204.498,1349.72 208.95,1346.73 248.313,1324.62 261.445,1317.07 267.475,1313.3 283.502,1303.06 285.238,1302.04 285.543,1301.87 288.807,1300 310.954,1288.16 315.514,1285.45 339.977,1270.73 360.841,1258.5 368.384,1254.47 371.839,1252.66 381.211,1247.86 406.392,1233.93 445.271,1214.52 448.156,1212.86 449.602,1212.04 464.88,1202.7 468.877,1200.09 473.753,1196.64 487.838,1187.76 502.199,1178.71 502.248,1178.68 509.281,1173.5 514.401,1169.6 515.253,1168.99 518.683,1166.58 533.431,1157.28 538.42,1153.98 553.123,1144.15 568.219,1135.45 576.581,1130.96 600.453,1117.41 612.08,1110.51 624.446,1102.84 642.637,1092.81 645.971,1091.06 653.377,1086.65 664.458,1080.48 666.803,1079.22 667.705,1078.74 670.156,1077.22 683.99,1069.21 714.497,1051.79 733.476,1042.13 733.704,1042.01 734.277,1041.73 739.487,1039.14 750.446,1033.76 752.287,1032.86 762.398,1027.93 765.908,1026.23 772.864,1022.86 785.595,1016.71 822.417,998.977 827.067,996.74 842.167,988.425 871.378,973.589 872.381,973 889.778,963.379 890.807,962.836 899.305,958.43 904.517,955.78 911.066,952.493 911.123,952.464 911.62,952.216 933.41,940.161 940.433,936.528 946.555,933.418 948.151,932.615 955.547,928.317 962.391,924.528 965.43,922.891 969.204,920.889 988.082,911.233 993.99,907.793 1002,903.347 1004.95,901.756 1021.96,892.939 1023.54,891.995 1033.97,886.041 1055.82,873.224 1066.36,867.635 1068.01,866.776 1083.64,858.859 1088.64,856.378 1089.1,856.152 1090.92,855.252 1109.62,846.099 1111.14,845.359 1121.25,840.458 1133.27,834.65 1137.67,832.525 1138.71,832.026 1154.05,823.57 1162.7,819.06 1166.6,816.723 1181.43,808.422 1194.96,801.356 1221.62,788.074 1227.01,784.976 1233.34,780.952 1255.46,768.438 1259.78,766.169 1262.97,764.513 1281.3,754.063 1288.27,750.368 1290.46,749.027 1295.44,746.072 1308.73,738.687 1323.75,730.867 1342.71,721.396 1374.1,704.492 1375.42,703.823 1378.63,702.206 1383.01,699.635 1385.38,698.066 1385.64,697.896 1388.78,695.884 1390.51,694.802 1393.11,692.984 1393.62,692.579 1418.37,676.258 1430.5,669.522 1438.94,665.07 1442.93,662.656 1443.05,662.588 1454.23,656.233 1462.89,651.586 1465.44,650.247 1468.4,648.45 1472.02,646.308 1485.89,638.589 1499.84,630.327 1502.14,629.047 1517.84,620.682 1530.74,614.133 1532.54,613.065 1536.54,610.753 1548.11,603.517 1552.16,601.163 1564.1,593.694 1579.12,585.276 1586.14,581.565 1597.61,574.825 1627.93,558.906 1643.25,551.311 1647,549.47 1652.62,546.727 1663.22,541.575 1669.05,538.749 1678.53,534.164 1679.94,533.355 1693.6,525.845 1699.41,522.797 1703.12,520.882 1707.12,518.493 1707.7,518.097 1728.8,505.254 1749.39,494.328 1772.62,481.346 1782.19,475.648 1782.74,475.335 1782.74,475.335 1809.58,458.056 1835.33,442.939 1851,433.693 1853.48,432.099 1866.46,424.356 1881.71,415.023 1890.06,409.704 1892.05,408.5 1893.56,407.607 1894.81,406.872 1898.48,404.754 1901.86,402.858 1905.31,400.649 1906.77,399.74 1911.98,396.596 1912.63,396.213 1917.01,393.689 1927.36,387.204 1934.18,382.687 1939.85,378.708 1942.45,376.744 1957.28,366.821 1978.05,355.051 1980.9,353.545 1981.75,353.013 1996.97,344.198 2000.89,341.718 2008.55,336.521 2009.53,335.891 2037.23,320.069 2052.85,312.05 2061.68,306.939 2085.85,294.149 2088.7,292.706 2097.31,287.711 2098.98,286.777 2102.52,284.517 2107.78,280.856 2116.86,275.063 2124.07,270.228 2152.41,252.492 2153.05,252.076 2155.08,250.784 2158.74,248.522 2164.66,245.022 2164.87,244.9 2165.88,244.32 2186.51,233.179 2192.7,229.485 2193.35,229.052 2194.58,228.232 2202.55,223.195 2203.63,222.539 2204.78,221.853 2209.82,218.918 2211.66,217.874 2218.91,213.281 2235.95,202.404 2237.83,201.313 2251.91,193.543 2266.55,185.958 2287.31,174.328 2299.41,168.066 2315.71,159.909 2319.79,157.536 2324.18,155.063 2326.82,153.609 2334.32,149.583 2336.34,148.518 2339.98,146.624 2342.69,145.229 2352.76,140.128 "/>
<polyline clip-path="url(#clip022)" style="stroke:#00a98d; stroke-linecap:round; stroke-linejoin:round; stroke-width:4; stroke-opacity:1; fill:none" points="140.696,1384.24 140.696,1384.24 153.356,1378.15 162.425,1373.79 171.464,1369.45 175.704,1367.04 181.549,1363.82 186.456,1361.19 188.932,1359.89 189.734,1359.39 191.4,1358.37 201.011,1352.78 204.498,1350.84 208.95,1348.42 248.313,1328.45 261.445,1322.04 267.475,1319.12 283.502,1311.36 285.238,1310.37 285.543,1310.19 288.807,1308.35 310.954,1296.62 315.514,1294.31 339.977,1282.21 360.841,1272.07 368.384,1268.43 371.839,1266.76 381.211,1262.24 406.392,1250.12 445.271,1231.42 448.156,1230.03 449.602,1229.34 464.88,1221.99 468.877,1220.07 473.753,1217.72 487.838,1210.95 502.199,1204.05 502.248,1204.02 509.281,1200.64 514.401,1198.18 515.253,1197.77 518.683,1196.12 533.431,1189.03 538.42,1186.63 553.123,1179.56 568.219,1172.31 576.581,1167.62 600.453,1155.18 612.08,1149.38 624.446,1143.31 642.637,1134.47 645.971,1132.86 653.377,1129.28 664.458,1123.93 666.803,1122.8 667.705,1122.37 670.156,1121.19 683.99,1114.53 714.497,1099.85 733.476,1089.5 733.704,1089.38 734.277,1089.08 739.487,1086.4 750.446,1080.03 752.287,1079 762.398,1072.78 765.908,1070.44 772.864,1066.06 785.595,1057.79 822.417,1036.11 827.067,1033.3 842.167,1024.81 871.378,1008.29 872.381,1007.77 889.778,998.932 890.807,998.42 899.305,994.214 904.517,991.654 911.066,988.454 911.123,988.426 911.62,988.184 933.41,977.616 940.433,974.224 946.555,970.757 948.151,969.875 955.547,965.884 962.391,962.302 965.43,960.738 969.204,958.814 988.082,948.176 993.99,945.064 1002,940.943 1004.95,939.18 1021.96,929.714 1023.54,928.878 1033.97,923.473 1055.82,912.563 1066.36,907.403 1068.01,906.595 1083.64,897.932 1088.64,894.873 1089.1,894.6 1090.92,893.356 1109.62,881.911 1111.14,880.915 1121.25,874.693 1133.27,867.93 1137.67,865.566 1138.71,865.018 1154.05,857.107 1162.7,852.773 1166.6,850.84 1181.43,842.522 1194.96,835.449 1221.62,820.67 1227.01,817.893 1233.34,814.688 1255.46,803.739 1259.78,801.631 1262.97,799.79 1281.3,789.867 1288.27,786.283 1290.46,785.17 1295.44,782.229 1308.73,774.87 1323.75,767.065 1342.71,757.602 1374.1,742.318 1375.42,741.679 1378.63,740.127 1383.01,738.014 1385.38,736.873 1385.64,736.747 1388.78,735.231 1390.51,734.395 1393.11,733.145 1393.62,732.895 1418.37,720.979 1430.5,714.249 1438.94,709.799 1442.93,707.738 1443.05,707.679 1454.23,701.183 1462.89,695.777 1465.44,694.265 1468.4,692.557 1472.02,690.51 1485.89,682.047 1499.84,674.381 1502.14,673.168 1517.84,665.115 1530.74,658.698 1532.54,657.81 1536.54,655.497 1548.11,649.124 1552.16,646.98 1564.1,640.834 1579.12,633.329 1586.14,629.874 1597.61,624.272 1627.93,608.016 1643.25,600.363 1647,598.514 1652.62,595.76 1663.22,589.783 1669.05,586.646 1678.53,581.702 1679.94,580.982 1693.6,574.101 1699.41,571.224 1703.12,569.068 1707.12,566.812 1707.7,566.489 1728.8,554.016 1749.39,543.23 1772.62,531.692 1782.19,527.015 1782.74,526.748 1782.74,526.748 1809.58,513.755 1835.33,501.35 1851,493.81 1853.48,492.618 1866.46,486.377 1881.71,479.042 1890.06,475.026 1892.05,474.067 1893.56,473.344 1894.81,472.743 1898.48,470.976 1901.86,469.355 1905.31,467.694 1906.77,466.992 1911.98,464.04 1912.63,463.678 1917.01,461.28 1927.36,455.805 1934.18,452.302 1939.85,449.438 1942.45,448.134 1957.28,440.796 1978.05,430.677 1980.9,429.299 1981.75,428.883 1996.97,420.474 2000.89,418.407 2008.55,414.455 2009.53,413.955 2037.23,400.191 2052.85,392.59 2061.68,388.313 2085.85,376.655 2088.7,375.282 2097.31,371.134 2098.98,370.331 2102.52,368.629 2107.78,366.099 2116.86,361.012 2124.07,357.154 2152.41,342.79 2153.05,342.473 2155.08,341.473 2158.74,339.674 2164.66,336.279 2164.87,336.14 2165.88,335.386 2186.51,321.986 2192.7,318.455 2193.35,318.096 2194.58,317.414 2202.55,312.464 2203.63,311.818 2204.78,311.034 2209.82,307.724 2211.66,306.394 2218.91,301.471 2235.95,291.281 2237.83,290.238 2251.91,282.723 2266.55,275.278 2287.31,265.034 2299.41,258.251 2315.71,248.612 2319.79,246.368 2324.18,243.626 2326.82,242.035 2334.32,237.697 2336.34,236.564 2339.98,234.563 2342.69,233.099 2352.76,227.026 "/>
<polyline clip-path="url(#clip022)" style="stroke:#8e971d; stroke-linecap:round; stroke-linejoin:round; stroke-width:4; stroke-opacity:1; fill:none" points="140.696,1384.24 140.696,1384.24 153.356,1378.15 162.425,1373.79 171.464,1369.45 175.704,1367.04 181.549,1363.82 186.456,1361.19 188.932,1359.66 189.734,1359.1 191.4,1357.95 201.011,1351.75 204.498,1349.65 208.95,1347.06 248.313,1326.45 261.445,1319.98 267.475,1317.04 283.502,1309.26 285.238,1308.42 285.543,1308.27 288.807,1306.7 310.954,1296.01 315.514,1293.82 339.977,1282.04 360.841,1272.01 368.384,1268.38 371.839,1266.72 381.211,1261.48 406.392,1248.43 445.271,1229.36 448.156,1227.97 449.602,1227.27 464.88,1219.89 468.877,1217.96 473.753,1215.61 487.838,1208.83 502.199,1201.92 502.248,1201.9 509.281,1198.52 514.401,1196.05 515.253,1195.64 518.683,1193.99 533.431,1186.9 538.42,1184.5 553.123,1177.43 568.219,1170.18 576.581,1166.16 600.453,1154.68 612.08,1149.09 624.446,1143.14 642.637,1133.2 645.971,1131.47 653.377,1127.68 664.458,1122.13 666.803,1120.96 667.705,1120.52 670.156,1119.31 683.99,1112.53 714.497,1097.76 733.476,1088.61 733.704,1088.5 734.277,1088.22 739.487,1085.27 750.446,1079.34 752.287,1078.2 762.398,1071.49 765.908,1069.34 772.864,1065.26 785.595,1058.27 822.417,1039.66 827.067,1036.98 842.167,1028.78 871.378,1012.47 872.381,1011.95 889.778,1003.16 890.807,1002.65 899.305,998.452 904.517,995.897 911.066,992.701 911.123,992.673 911.62,992.431 933.41,981.871 940.433,977.902 946.555,974.576 948.151,973.725 955.547,969.85 962.391,966.347 965.43,964.81 969.204,962.915 988.082,953.59 993.99,950.707 1002,946.813 1004.95,945.381 1021.96,936.016 1023.54,935.186 1033.97,929.812 1055.82,918.934 1066.36,913.782 1068.01,912.975 1083.64,904.317 1088.64,901.259 1089.1,900.986 1090.92,899.91 1109.62,889.587 1111.14,888.788 1121.25,883.584 1133.27,877.558 1137.67,875.378 1138.71,874.868 1154.05,867.357 1162.7,863.153 1166.6,861.264 1181.43,853.057 1194.96,846.036 1221.62,832.792 1227.01,830.158 1233.34,827.081 1255.46,816.377 1259.78,814.295 1262.97,812.755 1281.3,803.927 1288.27,800.573 1290.46,799.519 1295.44,797.121 1308.73,790.731 1323.75,782.458 1342.71,771.494 1374.1,755.368 1375.42,754.713 1378.63,753.127 1383.01,750.975 1385.38,749.816 1385.64,749.688 1388.78,748.151 1390.51,747.144 1393.11,745.662 1393.62,745.369 1418.37,730.794 1430.5,724.416 1438.94,720.119 1442.93,718.113 1443.05,718.055 1454.23,711.668 1462.89,707.005 1465.44,705.43 1468.4,703.658 1472.02,701.543 1485.89,693.893 1499.84,686.664 1502.14,685.29 1517.84,675.408 1530.74,668.209 1532.54,667.244 1536.54,664.78 1548.11,658.096 1552.16,655.877 1564.1,649.575 1579.12,641.962 1586.14,638.476 1597.61,632.841 1627.93,616.549 1643.25,608.89 1647,607.04 1652.62,603.808 1663.22,597.201 1669.05,593.826 1678.53,588.607 1679.94,587.856 1693.6,579.772 1699.41,576.569 1703.12,574.246 1707.12,571.838 1707.7,571.496 1728.8,559.873 1749.39,548.121 1772.62,536.173 1782.19,531.419 1782.74,531.148 1782.74,531.148 1809.58,518.057 1835.33,505.623 1851,498.077 1853.48,496.884 1866.46,490.64 1881.71,483.304 1890.06,479.287 1892.05,478.328 1893.56,477.605 1894.81,477.004 1898.48,475.237 1901.86,473.616 1905.31,471.955 1906.77,471.253 1911.98,468.301 1912.63,467.939 1917.01,465.541 1927.36,460.065 1934.18,456.563 1939.85,453.698 1942.45,452.395 1957.28,445.057 1978.05,434.937 1980.9,433.559 1981.75,433.144 1996.97,424.735 2000.89,422.667 2008.55,418.715 2009.53,418.215 2037.23,404.451 2052.85,395.772 2061.68,391.15 2085.85,379.023 2088.7,377.62 2097.31,373.406 2098.98,372.592 2102.52,370.87 2107.78,368.318 2116.86,363.2 2124.07,359.326 2152.41,344.932 2153.05,344.615 2155.08,343.613 2158.74,341.813 2164.66,338.416 2164.87,338.277 2165.88,337.522 2186.51,322.828 2192.7,319.091 2193.35,318.715 2194.58,317.999 2202.55,313.516 2203.63,312.921 2204.78,312.297 2209.82,309.597 2211.66,308.456 2218.91,304.147 2235.95,294.807 2237.83,293.65 2251.91,285.533 2266.55,277.759 2287.31,267.302 2299.41,261.357 2315.71,253.428 2319.79,251.45 2324.18,249.326 2326.82,248.052 2334.32,244.433 2336.34,243.27 2339.98,241.22 2342.69,239.726 2352.76,234.344 "/>
<path clip-path="url(#clip020)" d="M214.431 663.349 L554.896 663.349 L554.896 93.1086 L214.431 93.1086  Z" fill="#ffffff" fill-rule="evenodd" fill-opacity="1"/>
<polyline clip-path="url(#clip020)" style="stroke:#000000; stroke-linecap:round; stroke-linejoin:round; stroke-width:4; stroke-opacity:1; fill:none" points="214.431,663.349 554.896,663.349 554.896,93.1086 214.431,93.1086 214.431,663.349 "/>
<polyline clip-path="url(#clip020)" style="stroke:#009af9; stroke-linecap:round; stroke-linejoin:round; stroke-width:4; stroke-opacity:1; fill:none" points="239.009,144.949 386.48,144.949 "/>
<path clip-path="url(#clip020)" d="M411.058 151.997 L411.058 136.303 L415.318 136.303 L415.318 151.835 Q415.318 155.516 416.753 157.368 Q418.188 159.196 421.058 159.196 Q424.507 159.196 426.498 156.997 Q428.512 154.798 428.512 151.002 L428.512 136.303 L432.771 136.303 L432.771 162.229 L428.512 162.229 L428.512 158.247 Q426.961 160.608 424.901 161.766 Q422.864 162.9 420.156 162.9 Q415.688 162.9 413.373 160.122 Q411.058 157.344 411.058 151.997 M421.776 135.678 L421.776 135.678 Z" fill="#000000" fill-rule="nonzero" fill-opacity="1" /><path clip-path="url(#clip020)" d="M441.151 126.21 L450.966 126.21 L450.966 129.52 L445.41 129.52 L445.41 165.168 L450.966 165.168 L450.966 168.479 L441.151 168.479 L441.151 126.21 Z" fill="#000000" fill-rule="nonzero" fill-opacity="1" /><path clip-path="url(#clip020)" d="M461.452 158.293 L469.091 158.293 L469.091 131.928 L460.78 133.595 L460.78 129.335 L469.044 127.669 L473.72 127.669 L473.72 158.293 L481.359 158.293 L481.359 162.229 L461.452 162.229 L461.452 158.293 Z" fill="#000000" fill-rule="nonzero" fill-opacity="1" /><path clip-path="url(#clip020)" d="M500.155 126.21 L500.155 168.479 L490.34 168.479 L490.34 165.168 L495.873 165.168 L495.873 129.52 L490.34 129.52 L490.34 126.21 L500.155 126.21 Z" fill="#000000" fill-rule="nonzero" fill-opacity="1" /><polyline clip-path="url(#clip020)" style="stroke:#e26f46; stroke-linecap:round; stroke-linejoin:round; stroke-width:4; stroke-opacity:1; fill:none" points="239.009,196.789 386.48,196.789 "/>
<path clip-path="url(#clip020)" d="M411.058 203.837 L411.058 188.143 L415.318 188.143 L415.318 203.675 Q415.318 207.356 416.753 209.208 Q418.188 211.036 421.058 211.036 Q424.507 211.036 426.498 208.837 Q428.512 206.638 428.512 202.842 L428.512 188.143 L432.771 188.143 L432.771 214.069 L428.512 214.069 L428.512 210.087 Q426.961 212.448 424.901 213.606 Q422.864 214.74 420.156 214.74 Q415.688 214.74 413.373 211.962 Q411.058 209.184 411.058 203.837 M421.776 187.518 L421.776 187.518 Z" fill="#000000" fill-rule="nonzero" fill-opacity="1" /><path clip-path="url(#clip020)" d="M441.151 178.05 L450.966 178.05 L450.966 181.36 L445.41 181.36 L445.41 217.008 L450.966 217.008 L450.966 220.319 L441.151 220.319 L441.151 178.05 Z" fill="#000000" fill-rule="nonzero" fill-opacity="1" /><path clip-path="url(#clip020)" d="M464.669 210.133 L480.989 210.133 L480.989 214.069 L459.044 214.069 L459.044 210.133 Q461.706 207.379 466.29 202.749 Q470.896 198.096 472.077 196.754 Q474.322 194.231 475.202 192.495 Q476.104 190.735 476.104 189.046 Q476.104 186.291 474.16 184.555 Q472.239 182.819 469.137 182.819 Q466.938 182.819 464.484 183.583 Q462.054 184.347 459.276 185.897 L459.276 181.175 Q462.1 180.041 464.554 179.462 Q467.007 178.884 469.044 178.884 Q474.415 178.884 477.609 181.569 Q480.803 184.254 480.803 188.745 Q480.803 190.874 479.993 192.796 Q479.206 194.694 477.1 197.286 Q476.521 197.958 473.419 201.175 Q470.317 204.37 464.669 210.133 Z" fill="#000000" fill-rule="nonzero" fill-opacity="1" /><path clip-path="url(#clip020)" d="M500.155 178.05 L500.155 220.319 L490.34 220.319 L490.34 217.008 L495.873 217.008 L495.873 181.36 L490.34 181.36 L490.34 178.05 L500.155 178.05 Z" fill="#000000" fill-rule="nonzero" fill-opacity="1" /><polyline clip-path="url(#clip020)" style="stroke:#3da44d; stroke-linecap:round; stroke-linejoin:round; stroke-width:4; stroke-opacity:1; fill:none" points="239.009,248.629 386.48,248.629 "/>
<path clip-path="url(#clip020)" d="M411.058 255.677 L411.058 239.983 L415.318 239.983 L415.318 255.515 Q415.318 259.196 416.753 261.048 Q418.188 262.876 421.058 262.876 Q424.507 262.876 426.498 260.677 Q428.512 258.478 428.512 254.682 L428.512 239.983 L432.771 239.983 L432.771 265.909 L428.512 265.909 L428.512 261.927 Q426.961 264.288 424.901 265.446 Q422.864 266.58 420.156 266.58 Q415.688 266.58 413.373 263.802 Q411.058 261.024 411.058 255.677 M421.776 239.358 L421.776 239.358 Z" fill="#000000" fill-rule="nonzero" fill-opacity="1" /><path clip-path="url(#clip020)" d="M441.151 229.89 L450.966 229.89 L450.966 233.2 L445.41 233.2 L445.41 268.848 L450.966 268.848 L450.966 272.159 L441.151 272.159 L441.151 229.89 Z" fill="#000000" fill-rule="nonzero" fill-opacity="1" /><path clip-path="url(#clip020)" d="M474.808 247.274 Q478.165 247.992 480.04 250.261 Q481.938 252.529 481.938 255.862 Q481.938 260.978 478.419 263.779 Q474.901 266.58 468.419 266.58 Q466.243 266.58 463.929 266.14 Q461.637 265.723 459.183 264.867 L459.183 260.353 Q461.128 261.487 463.442 262.066 Q465.757 262.645 468.28 262.645 Q472.679 262.645 474.97 260.909 Q477.285 259.173 477.285 255.862 Q477.285 252.807 475.132 251.094 Q473.003 249.358 469.183 249.358 L465.155 249.358 L465.155 245.515 L469.368 245.515 Q472.817 245.515 474.646 244.149 Q476.475 242.761 476.475 240.168 Q476.475 237.506 474.577 236.094 Q472.702 234.659 469.183 234.659 Q467.262 234.659 465.063 235.075 Q462.864 235.492 460.225 236.372 L460.225 232.205 Q462.887 231.464 465.202 231.094 Q467.54 230.724 469.6 230.724 Q474.924 230.724 478.026 233.154 Q481.128 235.562 481.128 239.682 Q481.128 242.552 479.484 244.543 Q477.841 246.511 474.808 247.274 Z" fill="#000000" fill-rule="nonzero" fill-opacity="1" /><path clip-path="url(#clip020)" d="M500.155 229.89 L500.155 272.159 L490.34 272.159 L490.34 268.848 L495.873 268.848 L495.873 233.2 L490.34 233.2 L490.34 229.89 L500.155 229.89 Z" fill="#000000" fill-rule="nonzero" fill-opacity="1" /><polyline clip-path="url(#clip020)" style="stroke:#c271d2; stroke-linecap:round; stroke-linejoin:round; stroke-width:4; stroke-opacity:1; fill:none" points="239.009,300.469 386.48,300.469 "/>
<path clip-path="url(#clip020)" d="M411.058 307.517 L411.058 291.823 L415.318 291.823 L415.318 307.355 Q415.318 311.036 416.753 312.888 Q418.188 314.716 421.058 314.716 Q424.507 314.716 426.498 312.517 Q428.512 310.318 428.512 306.522 L428.512 291.823 L432.771 291.823 L432.771 317.749 L428.512 317.749 L428.512 313.767 Q426.961 316.128 424.901 317.286 Q422.864 318.42 420.156 318.42 Q415.688 318.42 413.373 315.642 Q411.058 312.864 411.058 307.517 M421.776 291.198 L421.776 291.198 Z" fill="#000000" fill-rule="nonzero" fill-opacity="1" /><path clip-path="url(#clip020)" d="M441.151 281.73 L450.966 281.73 L450.966 285.04 L445.41 285.04 L445.41 320.688 L450.966 320.688 L450.966 323.999 L441.151 323.999 L441.151 281.73 Z" fill="#000000" fill-rule="nonzero" fill-opacity="1" /><path clip-path="url(#clip020)" d="M473.489 287.263 L461.683 305.712 L473.489 305.712 L473.489 287.263 M472.262 283.189 L478.141 283.189 L478.141 305.712 L483.072 305.712 L483.072 309.601 L478.141 309.601 L478.141 317.749 L473.489 317.749 L473.489 309.601 L457.887 309.601 L457.887 305.087 L472.262 283.189 Z" fill="#000000" fill-rule="nonzero" fill-opacity="1" /><path clip-path="url(#clip020)" d="M500.155 281.73 L500.155 323.999 L490.34 323.999 L490.34 320.688 L495.873 320.688 L495.873 285.04 L490.34 285.04 L490.34 281.73 L500.155 281.73 Z" fill="#000000" fill-rule="nonzero" fill-opacity="1" /><polyline clip-path="url(#clip020)" style="stroke:#ac8d18; stroke-linecap:round; stroke-linejoin:round; stroke-width:4; stroke-opacity:1; fill:none" points="239.009,352.309 386.48,352.309 "/>
<path clip-path="url(#clip020)" d="M411.058 359.357 L411.058 343.663 L415.318 343.663 L415.318 359.195 Q415.318 362.876 416.753 364.728 Q418.188 366.556 421.058 366.556 Q424.507 366.556 426.498 364.357 Q428.512 362.158 428.512 358.362 L428.512 343.663 L432.771 343.663 L432.771 369.589 L428.512 369.589 L428.512 365.607 Q426.961 367.968 424.901 369.126 Q422.864 370.26 420.156 370.26 Q415.688 370.26 413.373 367.482 Q411.058 364.704 411.058 359.357 M421.776 343.038 L421.776 343.038 Z" fill="#000000" fill-rule="nonzero" fill-opacity="1" /><path clip-path="url(#clip020)" d="M441.151 333.57 L450.966 333.57 L450.966 336.88 L445.41 336.88 L445.41 372.528 L450.966 372.528 L450.966 375.839 L441.151 375.839 L441.151 333.57 Z" fill="#000000" fill-rule="nonzero" fill-opacity="1" /><path clip-path="url(#clip020)" d="M460.688 335.029 L479.044 335.029 L479.044 338.964 L464.97 338.964 L464.97 347.436 Q465.989 347.089 467.007 346.927 Q468.026 346.742 469.044 346.742 Q474.831 346.742 478.211 349.913 Q481.591 353.084 481.591 358.501 Q481.591 364.079 478.118 367.181 Q474.646 370.26 468.327 370.26 Q466.151 370.26 463.882 369.89 Q461.637 369.519 459.23 368.778 L459.23 364.079 Q461.313 365.214 463.535 365.769 Q465.757 366.325 468.234 366.325 Q472.239 366.325 474.577 364.218 Q476.915 362.112 476.915 358.501 Q476.915 354.89 474.577 352.783 Q472.239 350.677 468.234 350.677 Q466.359 350.677 464.484 351.093 Q462.632 351.51 460.688 352.39 L460.688 335.029 Z" fill="#000000" fill-rule="nonzero" fill-opacity="1" /><path clip-path="url(#clip020)" d="M500.155 333.57 L500.155 375.839 L490.34 375.839 L490.34 372.528 L495.873 372.528 L495.873 336.88 L490.34 336.88 L490.34 333.57 L500.155 333.57 Z" fill="#000000" fill-rule="nonzero" fill-opacity="1" /><polyline clip-path="url(#clip020)" style="stroke:#00a9ad; stroke-linecap:round; stroke-linejoin:round; stroke-width:4; stroke-opacity:1; fill:none" points="239.009,404.149 386.48,404.149 "/>
<path clip-path="url(#clip020)" d="M411.058 411.197 L411.058 395.503 L415.318 395.503 L415.318 411.035 Q415.318 414.716 416.753 416.568 Q418.188 418.396 421.058 418.396 Q424.507 418.396 426.498 416.197 Q428.512 413.998 428.512 410.202 L428.512 395.503 L432.771 395.503 L432.771 421.429 L428.512 421.429 L428.512 417.447 Q426.961 419.808 424.901 420.966 Q422.864 422.1 420.156 422.1 Q415.688 422.1 413.373 419.322 Q411.058 416.544 411.058 411.197 M421.776 394.878 L421.776 394.878 Z" fill="#000000" fill-rule="nonzero" fill-opacity="1" /><path clip-path="url(#clip020)" d="M441.151 385.41 L450.966 385.41 L450.966 388.72 L445.41 388.72 L445.41 424.368 L450.966 424.368 L450.966 427.679 L441.151 427.679 L441.151 385.41 Z" fill="#000000" fill-rule="nonzero" fill-opacity="1" /><path clip-path="url(#clip020)" d="M471.22 402.285 Q468.072 402.285 466.22 404.438 Q464.392 406.591 464.392 410.341 Q464.392 414.068 466.22 416.243 Q468.072 418.396 471.22 418.396 Q474.368 418.396 476.197 416.243 Q478.049 414.068 478.049 410.341 Q478.049 406.591 476.197 404.438 Q474.368 402.285 471.22 402.285 M480.503 387.633 L480.503 391.892 Q478.743 391.058 476.938 390.619 Q475.155 390.179 473.396 390.179 Q468.766 390.179 466.313 393.304 Q463.882 396.429 463.535 402.748 Q464.901 400.734 466.961 399.669 Q469.021 398.582 471.498 398.582 Q476.706 398.582 479.716 401.753 Q482.748 404.901 482.748 410.341 Q482.748 415.665 479.6 418.882 Q476.452 422.1 471.22 422.1 Q465.225 422.1 462.054 417.517 Q458.882 412.91 458.882 404.183 Q458.882 395.989 462.771 391.128 Q466.66 386.244 473.211 386.244 Q474.97 386.244 476.753 386.591 Q478.558 386.938 480.503 387.633 Z" fill="#000000" fill-rule="nonzero" fill-opacity="1" /><path clip-path="url(#clip020)" d="M500.155 385.41 L500.155 427.679 L490.34 427.679 L490.34 424.368 L495.873 424.368 L495.873 388.72 L490.34 388.72 L490.34 385.41 L500.155 385.41 Z" fill="#000000" fill-rule="nonzero" fill-opacity="1" /><polyline clip-path="url(#clip020)" style="stroke:#ed5d92; stroke-linecap:round; stroke-linejoin:round; stroke-width:4; stroke-opacity:1; fill:none" points="239.009,455.989 386.48,455.989 "/>
<path clip-path="url(#clip020)" d="M411.058 463.037 L411.058 447.343 L415.318 447.343 L415.318 462.875 Q415.318 466.556 416.753 468.408 Q418.188 470.236 421.058 470.236 Q424.507 470.236 426.498 468.037 Q428.512 465.838 428.512 462.042 L428.512 447.343 L432.771 447.343 L432.771 473.269 L428.512 473.269 L428.512 469.287 Q426.961 471.648 424.901 472.806 Q422.864 473.94 420.156 473.94 Q415.688 473.94 413.373 471.162 Q411.058 468.384 411.058 463.037 M421.776 446.718 L421.776 446.718 Z" fill="#000000" fill-rule="nonzero" fill-opacity="1" /><path clip-path="url(#clip020)" d="M441.151 437.25 L450.966 437.25 L450.966 440.56 L445.41 440.56 L445.41 476.208 L450.966 476.208 L450.966 479.519 L441.151 479.519 L441.151 437.25 Z" fill="#000000" fill-rule="nonzero" fill-opacity="1" /><path clip-path="url(#clip020)" d="M459.461 438.709 L481.683 438.709 L481.683 440.699 L469.137 473.269 L464.253 473.269 L476.058 442.644 L459.461 442.644 L459.461 438.709 Z" fill="#000000" fill-rule="nonzero" fill-opacity="1" /><path clip-path="url(#clip020)" d="M500.155 437.25 L500.155 479.519 L490.34 479.519 L490.34 476.208 L495.873 476.208 L495.873 440.56 L490.34 440.56 L490.34 437.25 L500.155 437.25 Z" fill="#000000" fill-rule="nonzero" fill-opacity="1" /><polyline clip-path="url(#clip020)" style="stroke:#c68125; stroke-linecap:round; stroke-linejoin:round; stroke-width:4; stroke-opacity:1; fill:none" points="239.009,507.829 386.48,507.829 "/>
<path clip-path="url(#clip020)" d="M411.058 514.877 L411.058 499.183 L415.318 499.183 L415.318 514.715 Q415.318 518.396 416.753 520.248 Q418.188 522.076 421.058 522.076 Q424.507 522.076 426.498 519.877 Q428.512 517.678 428.512 513.882 L428.512 499.183 L432.771 499.183 L432.771 525.109 L428.512 525.109 L428.512 521.127 Q426.961 523.488 424.901 524.646 Q422.864 525.78 420.156 525.78 Q415.688 525.78 413.373 523.002 Q411.058 520.224 411.058 514.877 M421.776 498.558 L421.776 498.558 Z" fill="#000000" fill-rule="nonzero" fill-opacity="1" /><path clip-path="url(#clip020)" d="M441.151 489.09 L450.966 489.09 L450.966 492.4 L445.41 492.4 L445.41 528.048 L450.966 528.048 L450.966 531.359 L441.151 531.359 L441.151 489.09 Z" fill="#000000" fill-rule="nonzero" fill-opacity="1" /><path clip-path="url(#clip020)" d="M470.641 508.697 Q467.308 508.697 465.387 510.479 Q463.489 512.261 463.489 515.386 Q463.489 518.511 465.387 520.294 Q467.308 522.076 470.641 522.076 Q473.975 522.076 475.896 520.294 Q477.817 518.488 477.817 515.386 Q477.817 512.261 475.896 510.479 Q473.998 508.697 470.641 508.697 M465.966 506.706 Q462.956 505.965 461.267 503.905 Q459.6 501.845 459.6 498.882 Q459.6 494.738 462.54 492.331 Q465.503 489.924 470.641 489.924 Q475.803 489.924 478.743 492.331 Q481.683 494.738 481.683 498.882 Q481.683 501.845 479.993 503.905 Q478.327 505.965 475.341 506.706 Q478.72 507.493 480.595 509.785 Q482.493 512.076 482.493 515.386 Q482.493 520.41 479.415 523.095 Q476.359 525.78 470.641 525.78 Q464.924 525.78 461.845 523.095 Q458.79 520.41 458.79 515.386 Q458.79 512.076 460.688 509.785 Q462.586 507.493 465.966 506.706 M464.253 499.322 Q464.253 502.007 465.919 503.512 Q467.609 505.016 470.641 505.016 Q473.651 505.016 475.341 503.512 Q477.053 502.007 477.053 499.322 Q477.053 496.637 475.341 495.132 Q473.651 493.627 470.641 493.627 Q467.609 493.627 465.919 495.132 Q464.253 496.637 464.253 499.322 Z" fill="#000000" fill-rule="nonzero" fill-opacity="1" /><path clip-path="url(#clip020)" d="M500.155 489.09 L500.155 531.359 L490.34 531.359 L490.34 528.048 L495.873 528.048 L495.873 492.4 L490.34 492.4 L490.34 489.09 L500.155 489.09 Z" fill="#000000" fill-rule="nonzero" fill-opacity="1" /><polyline clip-path="url(#clip020)" style="stroke:#00a98d; stroke-linecap:round; stroke-linejoin:round; stroke-width:4; stroke-opacity:1; fill:none" points="239.009,559.669 386.48,559.669 "/>
<path clip-path="url(#clip020)" d="M411.058 566.717 L411.058 551.023 L415.318 551.023 L415.318 566.555 Q415.318 570.236 416.753 572.088 Q418.188 573.916 421.058 573.916 Q424.507 573.916 426.498 571.717 Q428.512 569.518 428.512 565.722 L428.512 551.023 L432.771 551.023 L432.771 576.949 L428.512 576.949 L428.512 572.967 Q426.961 575.328 424.901 576.486 Q422.864 577.62 420.156 577.62 Q415.688 577.62 413.373 574.842 Q411.058 572.064 411.058 566.717 M421.776 550.398 L421.776 550.398 Z" fill="#000000" fill-rule="nonzero" fill-opacity="1" /><path clip-path="url(#clip020)" d="M441.151 540.93 L450.966 540.93 L450.966 544.24 L445.41 544.24 L445.41 579.888 L450.966 579.888 L450.966 583.199 L441.151 583.199 L441.151 540.93 Z" fill="#000000" fill-rule="nonzero" fill-opacity="1" /><path clip-path="url(#clip020)" d="M460.78 576.231 L460.78 571.972 Q462.54 572.805 464.345 573.245 Q466.151 573.685 467.887 573.685 Q472.516 573.685 474.947 570.583 Q477.401 567.458 477.748 561.115 Q476.405 563.106 474.345 564.171 Q472.285 565.236 469.785 565.236 Q464.6 565.236 461.567 562.111 Q458.558 558.963 458.558 553.523 Q458.558 548.199 461.706 544.981 Q464.854 541.764 470.086 541.764 Q476.081 541.764 479.229 546.37 Q482.401 550.953 482.401 559.703 Q482.401 567.875 478.512 572.759 Q474.646 577.62 468.095 577.62 Q466.336 577.62 464.53 577.273 Q462.725 576.925 460.78 576.231 M470.086 561.578 Q473.234 561.578 475.063 559.426 Q476.915 557.273 476.915 553.523 Q476.915 549.796 475.063 547.643 Q473.234 545.467 470.086 545.467 Q466.938 545.467 465.086 547.643 Q463.257 549.796 463.257 553.523 Q463.257 557.273 465.086 559.426 Q466.938 561.578 470.086 561.578 Z" fill="#000000" fill-rule="nonzero" fill-opacity="1" /><path clip-path="url(#clip020)" d="M500.155 540.93 L500.155 583.199 L490.34 583.199 L490.34 579.888 L495.873 579.888 L495.873 544.24 L490.34 544.24 L490.34 540.93 L500.155 540.93 Z" fill="#000000" fill-rule="nonzero" fill-opacity="1" /><polyline clip-path="url(#clip020)" style="stroke:#8e971d; stroke-linecap:round; stroke-linejoin:round; stroke-width:4; stroke-opacity:1; fill:none" points="239.009,611.509 386.48,611.509 "/>
<path clip-path="url(#clip020)" d="M411.058 618.557 L411.058 602.863 L415.318 602.863 L415.318 618.395 Q415.318 622.076 416.753 623.928 Q418.188 625.756 421.058 625.756 Q424.507 625.756 426.498 623.557 Q428.512 621.358 428.512 617.562 L428.512 602.863 L432.771 602.863 L432.771 628.789 L428.512 628.789 L428.512 624.807 Q426.961 627.168 424.901 628.326 Q422.864 629.46 420.156 629.46 Q415.688 629.46 413.373 626.682 Q411.058 623.904 411.058 618.557 M421.776 602.238 L421.776 602.238 Z" fill="#000000" fill-rule="nonzero" fill-opacity="1" /><path clip-path="url(#clip020)" d="M441.151 592.77 L450.966 592.77 L450.966 596.08 L445.41 596.08 L445.41 631.728 L450.966 631.728 L450.966 635.039 L441.151 635.039 L441.151 592.77 Z" fill="#000000" fill-rule="nonzero" fill-opacity="1" /><path clip-path="url(#clip020)" d="M461.452 624.853 L469.091 624.853 L469.091 598.488 L460.78 600.155 L460.78 595.895 L469.044 594.229 L473.72 594.229 L473.72 624.853 L481.359 624.853 L481.359 628.789 L461.452 628.789 L461.452 624.853 Z" fill="#000000" fill-rule="nonzero" fill-opacity="1" /><path clip-path="url(#clip020)" d="M500.803 597.307 Q497.192 597.307 495.364 600.872 Q493.558 604.414 493.558 611.543 Q493.558 618.65 495.364 622.215 Q497.192 625.756 500.803 625.756 Q504.438 625.756 506.243 622.215 Q508.072 618.65 508.072 611.543 Q508.072 604.414 506.243 600.872 Q504.438 597.307 500.803 597.307 M500.803 593.604 Q506.614 593.604 509.669 598.21 Q512.748 602.793 512.748 611.543 Q512.748 620.27 509.669 624.877 Q506.614 629.46 500.803 629.46 Q494.993 629.46 491.915 624.877 Q488.859 620.27 488.859 611.543 Q488.859 602.793 491.915 598.21 Q494.993 593.604 500.803 593.604 Z" fill="#000000" fill-rule="nonzero" fill-opacity="1" /><path clip-path="url(#clip020)" d="M530.317 592.77 L530.317 635.039 L520.502 635.039 L520.502 631.728 L526.035 631.728 L526.035 596.08 L520.502 596.08 L520.502 592.77 L530.317 592.77 Z" fill="#000000" fill-rule="nonzero" fill-opacity="1" /></svg>
