<?xml version="1.0" encoding="utf-8"?>
<svg xmlns="http://www.w3.org/2000/svg" xmlns:xlink="http://www.w3.org/1999/xlink" width="600" height="400" viewBox="0 0 2400 1600">
<defs>
  <clipPath id="clip170">
    <rect x="0" y="0" width="2400" height="1600"/>
  </clipPath>
</defs>
<path clip-path="url(#clip170)" d="M0 1600 L2400 1600 L2400 0 L0 0  Z" fill="#ffffff" fill-rule="evenodd" fill-opacity="1"/>
<defs>
  <clipPath id="clip171">
    <rect x="480" y="0" width="1681" height="1600"/>
  </clipPath>
</defs>
<path clip-path="url(#clip170)" d="M155.927 1486.45 L2352.76 1486.45 L2352.76 47.2441 L155.927 47.2441  Z" fill="#ffffff" fill-rule="evenodd" fill-opacity="1"/>
<defs>
  <clipPath id="clip172">
    <rect x="155" y="47" width="2198" height="1440"/>
  </clipPath>
</defs>
<polyline clip-path="url(#clip172)" style="stroke:#000000; stroke-linecap:round; stroke-linejoin:round; stroke-width:2; stroke-opacity:0.1; fill:none" points="216.15,1486.45 216.15,47.2441 "/>
<polyline clip-path="url(#clip172)" style="stroke:#000000; stroke-linecap:round; stroke-linejoin:round; stroke-width:2; stroke-opacity:0.1; fill:none" points="704.022,1486.45 704.022,47.2441 "/>
<polyline clip-path="url(#clip172)" style="stroke:#000000; stroke-linecap:round; stroke-linejoin:round; stroke-width:2; stroke-opacity:0.1; fill:none" points="1191.89,1486.45 1191.89,47.2441 "/>
<polyline clip-path="url(#clip172)" style="stroke:#000000; stroke-linecap:round; stroke-linejoin:round; stroke-width:2; stroke-opacity:0.1; fill:none" points="1679.77,1486.45 1679.77,47.2441 "/>
<polyline clip-path="url(#clip172)" style="stroke:#000000; stroke-linecap:round; stroke-linejoin:round; stroke-width:2; stroke-opacity:0.1; fill:none" points="2167.64,1486.45 2167.64,47.2441 "/>
<polyline clip-path="url(#clip172)" style="stroke:#000000; stroke-linecap:round; stroke-linejoin:round; stroke-width:2; stroke-opacity:0.1; fill:none" points="155.927,1445.72 2352.76,1445.72 "/>
<polyline clip-path="url(#clip172)" style="stroke:#000000; stroke-linecap:round; stroke-linejoin:round; stroke-width:2; stroke-opacity:0.1; fill:none" points="155.927,1208.92 2352.76,1208.92 "/>
<polyline clip-path="url(#clip172)" style="stroke:#000000; stroke-linecap:round; stroke-linejoin:round; stroke-width:2; stroke-opacity:0.1; fill:none" points="155.927,972.133 2352.76,972.133 "/>
<polyline clip-path="url(#clip172)" style="stroke:#000000; stroke-linecap:round; stroke-linejoin:round; stroke-width:2; stroke-opacity:0.1; fill:none" points="155.927,735.341 2352.76,735.341 "/>
<polyline clip-path="url(#clip172)" style="stroke:#000000; stroke-linecap:round; stroke-linejoin:round; stroke-width:2; stroke-opacity:0.1; fill:none" points="155.927,498.55 2352.76,498.55 "/>
<polyline clip-path="url(#clip172)" style="stroke:#000000; stroke-linecap:round; stroke-linejoin:round; stroke-width:2; stroke-opacity:0.1; fill:none" points="155.927,261.758 2352.76,261.758 "/>
<polyline clip-path="url(#clip170)" style="stroke:#000000; stroke-linecap:round; stroke-linejoin:round; stroke-width:4; stroke-opacity:1; fill:none" points="155.927,1486.45 2352.76,1486.45 "/>
<polyline clip-path="url(#clip170)" style="stroke:#000000; stroke-linecap:round; stroke-linejoin:round; stroke-width:4; stroke-opacity:1; fill:none" points="216.15,1486.45 216.15,1467.55 "/>
<polyline clip-path="url(#clip170)" style="stroke:#000000; stroke-linecap:round; stroke-linejoin:round; stroke-width:4; stroke-opacity:1; fill:none" points="704.022,1486.45 704.022,1467.55 "/>
<polyline clip-path="url(#clip170)" style="stroke:#000000; stroke-linecap:round; stroke-linejoin:round; stroke-width:4; stroke-opacity:1; fill:none" points="1191.89,1486.45 1191.89,1467.55 "/>
<polyline clip-path="url(#clip170)" style="stroke:#000000; stroke-linecap:round; stroke-linejoin:round; stroke-width:4; stroke-opacity:1; fill:none" points="1679.77,1486.45 1679.77,1467.55 "/>
<polyline clip-path="url(#clip170)" style="stroke:#000000; stroke-linecap:round; stroke-linejoin:round; stroke-width:4; stroke-opacity:1; fill:none" points="2167.64,1486.45 2167.64,1467.55 "/>
<path clip-path="url(#clip170)" d="M216.15 1517.37 Q212.539 1517.37 210.71 1520.93 Q208.905 1524.47 208.905 1531.6 Q208.905 1538.71 210.71 1542.27 Q212.539 1545.82 216.15 1545.82 Q219.784 1545.82 221.59 1542.27 Q223.418 1538.71 223.418 1531.6 Q223.418 1524.47 221.59 1520.93 Q219.784 1517.37 216.15 1517.37 M216.15 1513.66 Q221.96 1513.66 225.016 1518.27 Q228.094 1522.85 228.094 1531.6 Q228.094 1540.33 225.016 1544.94 Q221.96 1549.52 216.15 1549.52 Q210.34 1549.52 207.261 1544.94 Q204.205 1540.33 204.205 1531.6 Q204.205 1522.85 207.261 1518.27 Q210.34 1513.66 216.15 1513.66 Z" fill="#000000" fill-rule="nonzero" fill-opacity="1" /><path clip-path="url(#clip170)" d="M667.714 1544.91 L684.034 1544.91 L684.034 1548.85 L662.089 1548.85 L662.089 1544.91 Q664.751 1542.16 669.335 1537.53 Q673.941 1532.88 675.122 1531.53 Q677.367 1529.01 678.247 1527.27 Q679.149 1525.51 679.149 1523.82 Q679.149 1521.07 677.205 1519.33 Q675.284 1517.6 672.182 1517.6 Q669.983 1517.6 667.529 1518.36 Q665.098 1519.13 662.321 1520.68 L662.321 1515.95 Q665.145 1514.82 667.598 1514.24 Q670.052 1513.66 672.089 1513.66 Q677.459 1513.66 680.654 1516.35 Q683.848 1519.03 683.848 1523.52 Q683.848 1525.65 683.038 1527.57 Q682.251 1529.47 680.145 1532.07 Q679.566 1532.74 676.464 1535.95 Q673.362 1539.15 667.714 1544.91 Z" fill="#000000" fill-rule="nonzero" fill-opacity="1" /><path clip-path="url(#clip170)" d="M693.895 1514.29 L712.251 1514.29 L712.251 1518.22 L698.177 1518.22 L698.177 1526.7 Q699.195 1526.35 700.214 1526.19 Q701.232 1526 702.251 1526 Q708.038 1526 711.418 1529.17 Q714.797 1532.34 714.797 1537.76 Q714.797 1543.34 711.325 1546.44 Q707.853 1549.52 701.533 1549.52 Q699.358 1549.52 697.089 1549.15 Q694.844 1548.78 692.436 1548.04 L692.436 1543.34 Q694.52 1544.47 696.742 1545.03 Q698.964 1545.58 701.441 1545.58 Q705.445 1545.58 707.783 1543.48 Q710.121 1541.37 710.121 1537.76 Q710.121 1534.15 707.783 1532.04 Q705.445 1529.94 701.441 1529.94 Q699.566 1529.94 697.691 1530.35 Q695.839 1530.77 693.895 1531.65 L693.895 1514.29 Z" fill="#000000" fill-rule="nonzero" fill-opacity="1" /><path clip-path="url(#clip170)" d="M734.01 1517.37 Q730.399 1517.37 728.57 1520.93 Q726.765 1524.47 726.765 1531.6 Q726.765 1538.71 728.57 1542.27 Q730.399 1545.82 734.01 1545.82 Q737.644 1545.82 739.45 1542.27 Q741.279 1538.71 741.279 1531.6 Q741.279 1524.47 739.45 1520.93 Q737.644 1517.37 734.01 1517.37 M734.01 1513.66 Q739.82 1513.66 742.876 1518.27 Q745.954 1522.85 745.954 1531.6 Q745.954 1540.33 742.876 1544.94 Q739.82 1549.52 734.01 1549.52 Q728.2 1549.52 725.121 1544.94 Q722.066 1540.33 722.066 1531.6 Q722.066 1522.85 725.121 1518.27 Q728.2 1513.66 734.01 1513.66 Z" fill="#000000" fill-rule="nonzero" fill-opacity="1" /><path clip-path="url(#clip170)" d="M1151.51 1514.29 L1169.87 1514.29 L1169.87 1518.22 L1155.79 1518.22 L1155.79 1526.7 Q1156.81 1526.35 1157.83 1526.19 Q1158.85 1526 1159.87 1526 Q1165.66 1526 1169.04 1529.17 Q1172.41 1532.34 1172.41 1537.76 Q1172.41 1543.34 1168.94 1546.44 Q1165.47 1549.52 1159.15 1549.52 Q1156.98 1549.52 1154.71 1549.15 Q1152.46 1548.78 1150.05 1548.04 L1150.05 1543.34 Q1152.14 1544.47 1154.36 1545.03 Q1156.58 1545.58 1159.06 1545.58 Q1163.06 1545.58 1165.4 1543.48 Q1167.74 1541.37 1167.74 1537.76 Q1167.74 1534.15 1165.4 1532.04 Q1163.06 1529.94 1159.06 1529.94 Q1157.18 1529.94 1155.31 1530.35 Q1153.46 1530.77 1151.51 1531.65 L1151.51 1514.29 Z" fill="#000000" fill-rule="nonzero" fill-opacity="1" /><path clip-path="url(#clip170)" d="M1191.63 1517.37 Q1188.02 1517.37 1186.19 1520.93 Q1184.38 1524.47 1184.38 1531.6 Q1184.38 1538.71 1186.19 1542.27 Q1188.02 1545.82 1191.63 1545.82 Q1195.26 1545.82 1197.07 1542.27 Q1198.9 1538.71 1198.9 1531.6 Q1198.9 1524.47 1197.07 1520.93 Q1195.26 1517.37 1191.63 1517.37 M1191.63 1513.66 Q1197.44 1513.66 1200.49 1518.27 Q1203.57 1522.85 1203.57 1531.6 Q1203.57 1540.33 1200.49 1544.94 Q1197.44 1549.52 1191.63 1549.52 Q1185.82 1549.52 1182.74 1544.94 Q1179.68 1540.33 1179.68 1531.6 Q1179.68 1522.85 1182.74 1518.27 Q1185.82 1513.66 1191.63 1513.66 Z" fill="#000000" fill-rule="nonzero" fill-opacity="1" /><path clip-path="url(#clip170)" d="M1221.79 1517.37 Q1218.18 1517.37 1216.35 1520.93 Q1214.54 1524.47 1214.54 1531.6 Q1214.54 1538.71 1216.35 1542.27 Q1218.18 1545.82 1221.79 1545.82 Q1225.42 1545.82 1227.23 1542.27 Q1229.06 1538.71 1229.06 1531.6 Q1229.06 1524.47 1227.23 1520.93 Q1225.42 1517.37 1221.79 1517.37 M1221.79 1513.66 Q1227.6 1513.66 1230.66 1518.27 Q1233.73 1522.85 1233.73 1531.6 Q1233.73 1540.33 1230.66 1544.94 Q1227.6 1549.52 1221.79 1549.52 Q1215.98 1549.52 1212.9 1544.94 Q1209.85 1540.33 1209.85 1531.6 Q1209.85 1522.85 1212.9 1518.27 Q1215.98 1513.66 1221.79 1513.66 Z" fill="#000000" fill-rule="nonzero" fill-opacity="1" /><path clip-path="url(#clip170)" d="M1638.04 1514.29 L1660.26 1514.29 L1660.26 1516.28 L1647.72 1548.85 L1642.83 1548.85 L1654.64 1518.22 L1638.04 1518.22 L1638.04 1514.29 Z" fill="#000000" fill-rule="nonzero" fill-opacity="1" /><path clip-path="url(#clip170)" d="M1669.43 1514.29 L1687.79 1514.29 L1687.79 1518.22 L1673.71 1518.22 L1673.71 1526.7 Q1674.73 1526.35 1675.75 1526.19 Q1676.77 1526 1677.79 1526 Q1683.57 1526 1686.95 1529.17 Q1690.33 1532.34 1690.33 1537.76 Q1690.33 1543.34 1686.86 1546.44 Q1683.39 1549.52 1677.07 1549.52 Q1674.89 1549.52 1672.62 1549.15 Q1670.38 1548.78 1667.97 1548.04 L1667.97 1543.34 Q1670.06 1544.47 1672.28 1545.03 Q1674.5 1545.58 1676.98 1545.58 Q1680.98 1545.58 1683.32 1543.48 Q1685.66 1541.37 1685.66 1537.76 Q1685.66 1534.15 1683.32 1532.04 Q1680.98 1529.94 1676.98 1529.94 Q1675.1 1529.94 1673.23 1530.35 Q1671.37 1530.77 1669.43 1531.65 L1669.43 1514.29 Z" fill="#000000" fill-rule="nonzero" fill-opacity="1" /><path clip-path="url(#clip170)" d="M1709.55 1517.37 Q1705.93 1517.37 1704.11 1520.93 Q1702.3 1524.47 1702.3 1531.6 Q1702.3 1538.71 1704.11 1542.27 Q1705.93 1545.82 1709.55 1545.82 Q1713.18 1545.82 1714.99 1542.27 Q1716.81 1538.71 1716.81 1531.6 Q1716.81 1524.47 1714.99 1520.93 Q1713.18 1517.37 1709.55 1517.37 M1709.55 1513.66 Q1715.36 1513.66 1718.41 1518.27 Q1721.49 1522.85 1721.49 1531.6 Q1721.49 1540.33 1718.41 1544.94 Q1715.36 1549.52 1709.55 1549.52 Q1703.74 1549.52 1700.66 1544.94 Q1697.6 1540.33 1697.6 1531.6 Q1697.6 1522.85 1700.66 1518.27 Q1703.74 1513.66 1709.55 1513.66 Z" fill="#000000" fill-rule="nonzero" fill-opacity="1" /><path clip-path="url(#clip170)" d="M2112.16 1544.91 L2119.8 1544.91 L2119.8 1518.55 L2111.49 1520.21 L2111.49 1515.95 L2119.76 1514.29 L2124.43 1514.29 L2124.43 1544.91 L2132.07 1544.91 L2132.07 1548.85 L2112.16 1548.85 L2112.16 1544.91 Z" fill="#000000" fill-rule="nonzero" fill-opacity="1" /><path clip-path="url(#clip170)" d="M2151.52 1517.37 Q2147.9 1517.37 2146.08 1520.93 Q2144.27 1524.47 2144.27 1531.6 Q2144.27 1538.71 2146.08 1542.27 Q2147.9 1545.82 2151.52 1545.82 Q2155.15 1545.82 2156.95 1542.27 Q2158.78 1538.71 2158.78 1531.6 Q2158.78 1524.47 2156.95 1520.93 Q2155.15 1517.37 2151.52 1517.37 M2151.52 1513.66 Q2157.33 1513.66 2160.38 1518.27 Q2163.46 1522.85 2163.46 1531.6 Q2163.46 1540.33 2160.38 1544.94 Q2157.33 1549.52 2151.52 1549.52 Q2145.71 1549.52 2142.63 1544.94 Q2139.57 1540.33 2139.57 1531.6 Q2139.57 1522.85 2142.63 1518.27 Q2145.71 1513.66 2151.52 1513.66 Z" fill="#000000" fill-rule="nonzero" fill-opacity="1" /><path clip-path="url(#clip170)" d="M2181.68 1517.37 Q2178.07 1517.37 2176.24 1520.93 Q2174.43 1524.47 2174.43 1531.6 Q2174.43 1538.71 2176.24 1542.27 Q2178.07 1545.82 2181.68 1545.82 Q2185.31 1545.82 2187.12 1542.27 Q2188.95 1538.71 2188.95 1531.6 Q2188.95 1524.47 2187.12 1520.93 Q2185.31 1517.37 2181.68 1517.37 M2181.68 1513.66 Q2187.49 1513.66 2190.54 1518.27 Q2193.62 1522.85 2193.62 1531.6 Q2193.62 1540.33 2190.54 1544.94 Q2187.49 1549.52 2181.68 1549.52 Q2175.87 1549.52 2172.79 1544.94 Q2169.73 1540.33 2169.73 1531.6 Q2169.73 1522.85 2172.79 1518.27 Q2175.87 1513.66 2181.68 1513.66 Z" fill="#000000" fill-rule="nonzero" fill-opacity="1" /><path clip-path="url(#clip170)" d="M2211.84 1517.37 Q2208.23 1517.37 2206.4 1520.93 Q2204.59 1524.47 2204.59 1531.6 Q2204.59 1538.71 2206.4 1542.27 Q2208.23 1545.82 2211.84 1545.82 Q2215.47 1545.82 2217.28 1542.27 Q2219.11 1538.71 2219.11 1531.6 Q2219.11 1524.47 2217.28 1520.93 Q2215.47 1517.37 2211.84 1517.37 M2211.84 1513.66 Q2217.65 1513.66 2220.7 1518.27 Q2223.78 1522.85 2223.78 1531.6 Q2223.78 1540.33 2220.7 1544.94 Q2217.65 1549.52 2211.84 1549.52 Q2206.03 1549.52 2202.95 1544.94 Q2199.89 1540.33 2199.89 1531.6 Q2199.89 1522.85 2202.95 1518.27 Q2206.03 1513.66 2211.84 1513.66 Z" fill="#000000" fill-rule="nonzero" fill-opacity="1" /><polyline clip-path="url(#clip170)" style="stroke:#000000; stroke-linecap:round; stroke-linejoin:round; stroke-width:4; stroke-opacity:1; fill:none" points="155.927,1486.45 155.927,47.2441 "/>
<polyline clip-path="url(#clip170)" style="stroke:#000000; stroke-linecap:round; stroke-linejoin:round; stroke-width:4; stroke-opacity:1; fill:none" points="155.927,1445.72 174.825,1445.72 "/>
<polyline clip-path="url(#clip170)" style="stroke:#000000; stroke-linecap:round; stroke-linejoin:round; stroke-width:4; stroke-opacity:1; fill:none" points="155.927,1208.92 174.825,1208.92 "/>
<polyline clip-path="url(#clip170)" style="stroke:#000000; stroke-linecap:round; stroke-linejoin:round; stroke-width:4; stroke-opacity:1; fill:none" points="155.927,972.133 174.825,972.133 "/>
<polyline clip-path="url(#clip170)" style="stroke:#000000; stroke-linecap:round; stroke-linejoin:round; stroke-width:4; stroke-opacity:1; fill:none" points="155.927,735.341 174.825,735.341 "/>
<polyline clip-path="url(#clip170)" style="stroke:#000000; stroke-linecap:round; stroke-linejoin:round; stroke-width:4; stroke-opacity:1; fill:none" points="155.927,498.55 174.825,498.55 "/>
<polyline clip-path="url(#clip170)" style="stroke:#000000; stroke-linecap:round; stroke-linejoin:round; stroke-width:4; stroke-opacity:1; fill:none" points="155.927,261.758 174.825,261.758 "/>
<path clip-path="url(#clip170)" d="M52.7977 1428.44 L71.1541 1428.44 L71.1541 1432.37 L57.0801 1432.37 L57.0801 1440.84 Q58.0986 1440.5 59.1171 1440.33 Q60.1356 1440.15 61.1541 1440.15 Q66.9411 1440.15 70.3207 1443.32 Q73.7003 1446.49 73.7003 1451.91 Q73.7003 1457.49 70.2281 1460.59 Q66.7559 1463.67 60.4365 1463.67 Q58.2606 1463.67 55.9921 1463.3 Q53.7467 1462.93 51.3393 1462.19 L51.3393 1457.49 Q53.4227 1458.62 55.6449 1459.18 Q57.8671 1459.73 60.3439 1459.73 Q64.3485 1459.73 66.6865 1457.63 Q69.0244 1455.52 69.0244 1451.91 Q69.0244 1448.3 66.6865 1446.19 Q64.3485 1444.08 60.3439 1444.08 Q58.4689 1444.08 56.5939 1444.5 Q54.7421 1444.92 52.7977 1445.8 L52.7977 1428.44 Z" fill="#000000" fill-rule="nonzero" fill-opacity="1" /><path clip-path="url(#clip170)" d="M82.9133 1457.12 L87.7975 1457.12 L87.7975 1463 L82.9133 1463 L82.9133 1457.12 Z" fill="#000000" fill-rule="nonzero" fill-opacity="1" /><path clip-path="url(#clip170)" d="M107.983 1431.51 Q104.371 1431.51 102.543 1435.08 Q100.737 1438.62 100.737 1445.75 Q100.737 1452.86 102.543 1456.42 Q104.371 1459.96 107.983 1459.96 Q111.617 1459.96 113.422 1456.42 Q115.251 1452.86 115.251 1445.75 Q115.251 1438.62 113.422 1435.08 Q111.617 1431.51 107.983 1431.51 M107.983 1427.81 Q113.793 1427.81 116.848 1432.42 Q119.927 1437 119.927 1445.75 Q119.927 1454.48 116.848 1459.08 Q113.793 1463.67 107.983 1463.67 Q102.172 1463.67 99.0937 1459.08 Q96.0382 1454.48 96.0382 1445.75 Q96.0382 1437 99.0937 1432.42 Q102.172 1427.81 107.983 1427.81 Z" fill="#000000" fill-rule="nonzero" fill-opacity="1" /><path clip-path="url(#clip170)" d="M53.793 1191.64 L72.1494 1191.64 L72.1494 1195.58 L58.0754 1195.58 L58.0754 1204.05 Q59.0939 1203.7 60.1124 1203.54 Q61.131 1203.36 62.1495 1203.36 Q67.9365 1203.36 71.3161 1206.53 Q74.6957 1209.7 74.6957 1215.12 Q74.6957 1220.69 71.2235 1223.8 Q67.7513 1226.88 61.4319 1226.88 Q59.256 1226.88 56.9875 1226.51 Q54.7421 1226.13 52.3347 1225.39 L52.3347 1220.69 Q54.418 1221.83 56.6402 1222.38 Q58.8625 1222.94 61.3393 1222.94 Q65.3439 1222.94 67.6819 1220.83 Q70.0198 1218.73 70.0198 1215.12 Q70.0198 1211.51 67.6819 1209.4 Q65.3439 1207.29 61.3393 1207.29 Q59.4643 1207.29 57.5893 1207.71 Q55.7375 1208.13 53.793 1209.01 L53.793 1191.64 Z" fill="#000000" fill-rule="nonzero" fill-opacity="1" /><path clip-path="url(#clip170)" d="M83.9086 1220.32 L88.7928 1220.32 L88.7928 1226.2 L83.9086 1226.2 L83.9086 1220.32 Z" fill="#000000" fill-rule="nonzero" fill-opacity="1" /><path clip-path="url(#clip170)" d="M99.0243 1191.64 L117.381 1191.64 L117.381 1195.58 L103.307 1195.58 L103.307 1204.05 Q104.325 1203.7 105.344 1203.54 Q106.362 1203.36 107.381 1203.36 Q113.168 1203.36 116.547 1206.53 Q119.927 1209.7 119.927 1215.12 Q119.927 1220.69 116.455 1223.8 Q112.983 1226.88 106.663 1226.88 Q104.487 1226.88 102.219 1226.51 Q99.9733 1226.13 97.566 1225.39 L97.566 1220.69 Q99.6493 1221.83 101.871 1222.38 Q104.094 1222.94 106.571 1222.94 Q110.575 1222.94 112.913 1220.83 Q115.251 1218.73 115.251 1215.12 Q115.251 1211.51 112.913 1209.4 Q110.575 1207.29 106.571 1207.29 Q104.696 1207.29 102.821 1207.71 Q100.969 1208.13 99.0243 1209.01 L99.0243 1191.64 Z" fill="#000000" fill-rule="nonzero" fill-opacity="1" /><path clip-path="url(#clip170)" d="M63.33 970.269 Q60.1819 970.269 58.33 972.422 Q56.5014 974.575 56.5014 978.325 Q56.5014 982.052 58.33 984.228 Q60.1819 986.38 63.33 986.38 Q66.4782 986.38 68.3068 984.228 Q70.1587 982.052 70.1587 978.325 Q70.1587 974.575 68.3068 972.422 Q66.4782 970.269 63.33 970.269 M72.6124 955.617 L72.6124 959.876 Q70.8531 959.043 69.0476 958.603 Q67.2652 958.163 65.5059 958.163 Q60.8763 958.163 58.4226 961.288 Q55.9921 964.413 55.6449 970.732 Q57.0106 968.718 59.0708 967.654 Q61.131 966.566 63.6078 966.566 Q68.8161 966.566 71.8253 969.737 Q74.8577 972.885 74.8577 978.325 Q74.8577 983.649 71.7096 986.866 Q68.5615 990.084 63.33 990.084 Q57.3347 990.084 54.1634 985.501 Q50.9921 980.894 50.9921 972.167 Q50.9921 963.973 54.881 959.112 Q58.7699 954.228 65.3208 954.228 Q67.08 954.228 68.8624 954.575 Q70.6679 954.922 72.6124 955.617 Z" fill="#000000" fill-rule="nonzero" fill-opacity="1" /><path clip-path="url(#clip170)" d="M82.9133 983.533 L87.7975 983.533 L87.7975 989.413 L82.9133 989.413 L82.9133 983.533 Z" fill="#000000" fill-rule="nonzero" fill-opacity="1" /><path clip-path="url(#clip170)" d="M107.983 957.931 Q104.371 957.931 102.543 961.496 Q100.737 965.038 100.737 972.167 Q100.737 979.274 102.543 982.839 Q104.371 986.38 107.983 986.38 Q111.617 986.38 113.422 982.839 Q115.251 979.274 115.251 972.167 Q115.251 965.038 113.422 961.496 Q111.617 957.931 107.983 957.931 M107.983 954.228 Q113.793 954.228 116.848 958.834 Q119.927 963.417 119.927 972.167 Q119.927 980.894 116.848 985.501 Q113.793 990.084 107.983 990.084 Q102.172 990.084 99.0937 985.501 Q96.0382 980.894 96.0382 972.167 Q96.0382 963.417 99.0937 958.834 Q102.172 954.228 107.983 954.228 Z" fill="#000000" fill-rule="nonzero" fill-opacity="1" /><path clip-path="url(#clip170)" d="M64.3254 733.478 Q61.1773 733.478 59.3254 735.631 Q57.4967 737.783 57.4967 741.533 Q57.4967 745.26 59.3254 747.436 Q61.1773 749.589 64.3254 749.589 Q67.4735 749.589 69.3022 747.436 Q71.1541 745.26 71.1541 741.533 Q71.1541 737.783 69.3022 735.631 Q67.4735 733.478 64.3254 733.478 M73.6077 718.825 L73.6077 723.084 Q71.8485 722.251 70.0429 721.811 Q68.2606 721.371 66.5013 721.371 Q61.8717 721.371 59.418 724.496 Q56.9875 727.621 56.6402 733.941 Q58.006 731.927 60.0662 730.862 Q62.1263 729.774 64.6032 729.774 Q69.8115 729.774 72.8207 732.945 Q75.8531 736.094 75.8531 741.533 Q75.8531 746.857 72.705 750.075 Q69.5568 753.293 64.3254 753.293 Q58.33 753.293 55.1588 748.709 Q51.9875 744.103 51.9875 735.376 Q51.9875 727.182 55.8764 722.32 Q59.7652 717.436 66.3161 717.436 Q68.0754 717.436 69.8578 717.783 Q71.6633 718.131 73.6077 718.825 Z" fill="#000000" fill-rule="nonzero" fill-opacity="1" /><path clip-path="url(#clip170)" d="M83.9086 746.742 L88.7928 746.742 L88.7928 752.621 L83.9086 752.621 L83.9086 746.742 Z" fill="#000000" fill-rule="nonzero" fill-opacity="1" /><path clip-path="url(#clip170)" d="M99.0243 718.061 L117.381 718.061 L117.381 721.996 L103.307 721.996 L103.307 730.469 Q104.325 730.121 105.344 729.959 Q106.362 729.774 107.381 729.774 Q113.168 729.774 116.547 732.945 Q119.927 736.117 119.927 741.533 Q119.927 747.112 116.455 750.214 Q112.983 753.293 106.663 753.293 Q104.487 753.293 102.219 752.922 Q99.9733 752.552 97.566 751.811 L97.566 747.112 Q99.6493 748.246 101.871 748.802 Q104.094 749.357 106.571 749.357 Q110.575 749.357 112.913 747.251 Q115.251 745.144 115.251 741.533 Q115.251 737.922 112.913 735.816 Q110.575 733.709 106.571 733.709 Q104.696 733.709 102.821 734.126 Q100.969 734.543 99.0243 735.422 L99.0243 718.061 Z" fill="#000000" fill-rule="nonzero" fill-opacity="1" /><path clip-path="url(#clip170)" d="M51.5708 481.27 L73.7929 481.27 L73.7929 483.26 L61.2467 515.83 L56.3625 515.83 L68.168 485.205 L51.5708 485.205 L51.5708 481.27 Z" fill="#000000" fill-rule="nonzero" fill-opacity="1" /><path clip-path="url(#clip170)" d="M82.9133 509.95 L87.7975 509.95 L87.7975 515.83 L82.9133 515.83 L82.9133 509.95 Z" fill="#000000" fill-rule="nonzero" fill-opacity="1" /><path clip-path="url(#clip170)" d="M107.983 484.348 Q104.371 484.348 102.543 487.913 Q100.737 491.455 100.737 498.584 Q100.737 505.691 102.543 509.256 Q104.371 512.797 107.983 512.797 Q111.617 512.797 113.422 509.256 Q115.251 505.691 115.251 498.584 Q115.251 491.455 113.422 487.913 Q111.617 484.348 107.983 484.348 M107.983 480.645 Q113.793 480.645 116.848 485.251 Q119.927 489.835 119.927 498.584 Q119.927 507.311 116.848 511.918 Q113.793 516.501 107.983 516.501 Q102.172 516.501 99.0937 511.918 Q96.0382 507.311 96.0382 498.584 Q96.0382 489.835 99.0937 485.251 Q102.172 480.645 107.983 480.645 Z" fill="#000000" fill-rule="nonzero" fill-opacity="1" /><path clip-path="url(#clip170)" d="M52.5662 244.478 L74.7883 244.478 L74.7883 246.469 L62.2421 279.038 L57.3578 279.038 L69.1633 248.413 L52.5662 248.413 L52.5662 244.478 Z" fill="#000000" fill-rule="nonzero" fill-opacity="1" /><path clip-path="url(#clip170)" d="M83.9086 273.159 L88.7928 273.159 L88.7928 279.038 L83.9086 279.038 L83.9086 273.159 Z" fill="#000000" fill-rule="nonzero" fill-opacity="1" /><path clip-path="url(#clip170)" d="M99.0243 244.478 L117.381 244.478 L117.381 248.413 L103.307 248.413 L103.307 256.886 Q104.325 256.538 105.344 256.376 Q106.362 256.191 107.381 256.191 Q113.168 256.191 116.547 259.362 Q119.927 262.534 119.927 267.95 Q119.927 273.529 116.455 276.631 Q112.983 279.71 106.663 279.71 Q104.487 279.71 102.219 279.339 Q99.9733 278.969 97.566 278.228 L97.566 273.529 Q99.6493 274.663 101.871 275.219 Q104.094 275.774 106.571 275.774 Q110.575 275.774 112.913 273.668 Q115.251 271.561 115.251 267.95 Q115.251 264.339 112.913 262.233 Q110.575 260.126 106.571 260.126 Q104.696 260.126 102.821 260.543 Q100.969 260.96 99.0243 261.839 L99.0243 244.478 Z" fill="#000000" fill-rule="nonzero" fill-opacity="1" /><polyline clip-path="url(#clip172)" style="stroke:#009af9; stroke-linecap:round; stroke-linejoin:round; stroke-width:4; stroke-opacity:1; fill:none" points="218.101,1445.72 220.053,1445.72 222.004,1445.72 223.956,1445.72 225.907,1351 227.859,1354.27 229.81,1354.27 231.762,1172.01 233.713,1202.54 235.665,1246.62 237.616,1282.71 239.568,1312.26 241.519,1336.45 243.471,1336.45 245.422,1147.12 247.374,1201.02 249.325,1245.37 251.277,1281.69 253.228,1311.42 255.18,1335.77 257.131,1355.7 259.083,1372.01 261.034,1385.37 262.986,1396.31 264.937,1396.31 266.889,1207.44 268.84,1248.39 270.792,1284.16 272.743,1313.45 274.694,1313.45 276.646,1124.41 278.597,1181.87 280.549,1229.69 282.5,1268.85 284.452,1300.91 286.403,1300.91 288.355,1206.37 290.306,1249.52 292.258,1249.52 294.209,1165.27 296.161,1203.17 298.112,1247.13 300.064,1283.13 302.015,1283.13 303.967,1203.86 305.918,1226.91 307.87,1266.58 309.821,1299.05 311.773,1325.63 313.724,1347.4 315.676,1365.22 317.627,1379.81 319.579,1379.81 321.53,1248.14 323.482,1248.14 325.433,1061.94 327.385,1066.39 329.336,1135.15 331.288,1191.45 333.239,1237.54 335.191,1275.27 337.142,1275.27 339.094,1142.94 341.045,1182.8 342.997,1230.46 344.948,1269.48 346.9,1269.48 348.851,1088.37 350.803,1088.37 352.754,928.73 354.705,961.049 356.657,1048.9 358.608,1120.83 360.56,1179.73 362.511,1227.94 364.463,1267.42 366.414,1299.74 368.366,1299.74 370.317,1134.01 372.269,1141.03 374.22,1196.26 376.172,1196.26 378.123,1031.21 380.075,1069.58 382.026,1069.58 383.978,1019.27 385.929,1049.84 387.881,1121.6 389.832,1180.35 391.784,1228.45 393.735,1228.45 395.687,1067.93 397.638,1067.93 399.59,885.161 401.541,906.815 403.493,906.815 405.444,821.804 407.396,821.804 409.347,706.331 411.299,801.801 413.25,918.523 415.202,918.523 417.153,859.44 419.105,930.918 421.056,1024.24 423.008,1024.24 424.959,851.968 426.911,938.957 428.862,1030.82 430.814,1106.03 432.765,1167.6 434.717,1167.6 436.668,1020.85 438.619,1034.8 440.571,1109.29 442.522,1170.27 444.474,1220.2 446.425,1220.2 448.377,1078.47 450.328,1144.58 452.28,1199.17 454.231,1243.86 456.183,1243.86 458.134,1177.33 460.086,1177.33 462.037,995.774 463.989,995.774 465.94,714.958 467.892,714.958 469.843,534.062 471.795,534.638 473.746,534.638 475.698,358.475 477.649,358.475 479.601,254.371 481.552,254.371 483.504,244.72 485.455,282.481 487.407,282.481 489.358,173.768 491.31,219.38 493.261,441.677 495.213,623.678 497.164,623.678 499.116,377.972 501.067,528.633 503.019,528.633 504.97,392.723 506.922,577.763 508.873,735.096 510.825,863.91 512.776,969.373 514.728,1055.72 516.679,1126.41 518.63,1184.29 520.582,1231.68 522.533,1231.68 524.485,1139.93 526.436,1191.84 528.388,1237.86 530.339,1275.54 532.291,1275.54 534.242,1210.99 536.194,1212.13 538.145,1212.13 540.097,1140.67 542.048,1168.35 544,1218.63 545.951,1259.79 547.903,1293.49 549.854,1321.09 551.806,1343.68 553.757,1362.17 555.709,1362.17 557.66,1078.52 559.612,1143.28 561.563,1143.28 563.515,963.274 565.466,963.274 567.418,877.618 569.369,956.44 571.321,956.44 573.272,898.104 575.224,898.104 577.175,709.466 579.127,793.557 581.078,911.773 583.03,911.773 584.981,848.212 586.933,926.208 588.884,926.208 590.836,749.599 592.787,861.359 594.739,967.285 596.69,1054.01 598.641,1125.01 600.593,1183.15 602.544,1230.74 604.496,1269.71 606.447,1269.71 608.399,1127.75 610.35,1127.75 612.302,1066.31 614.253,1098.55 616.205,1098.55 618.156,1042.07 620.108,1074.33 622.059,1074.33 624.011,946.324 625.962,1020.75 627.914,1020.75 629.865,924.347 631.817,967.459 633.768,1054.15 635.72,1054.15 637.671,964.103 639.623,964.103 641.574,871.027 643.526,901.251 645.477,999.946 647.429,999.946 649.38,870.785 651.332,870.785 653.283,752.377 655.235,778.724 657.186,778.724 659.138,623.301 661.089,623.301 663.041,406.466 664.992,469.205 666.944,646.216 668.895,646.216 670.847,637.648 672.798,651.502 674.75,651.502 676.701,585.134 678.652,666.891 680.604,808.068 682.555,808.068 684.507,656.134 686.458,758.868 688.41,883.373 690.361,985.308 692.313,1068.77 694.264,1068.77 696.216,976.087 698.167,1059.13 700.119,1129.2 702.07,1129.2 704.022,1085.71 705.973,1094.05 707.925,1157.8 709.876,1209.99 711.828,1209.99 713.779,961.53 715.731,978.572 717.682,978.572 719.634,918.354 721.585,979.52 723.537,1064.03 725.488,1064.03 727.44,973.225 729.391,973.225 731.343,788.274 733.294,817.966 735.246,931.757 737.197,931.757 739.149,878.169 741.1,884.409 743.052,986.157 745.003,986.157 746.955,863.546 748.906,887.977 750.858,989.078 752.809,1071.85 754.761,1139.62 756.712,1195.11 758.663,1195.11 760.615,1038.06 762.566,1062.42 764.518,1131.9 766.469,1188.79 768.421,1235.36 770.372,1273.49 772.324,1304.71 774.275,1304.71 776.227,1115.95 778.178,1174.43 780.13,1223.61 782.081,1263.87 784.033,1296.83 785.984,1296.83 787.936,1126.37 789.887,1146.08 791.839,1200.39 793.79,1244.86 795.742,1281.27 797.693,1311.08 799.645,1335.49 801.596,1335.49 803.548,1208.41 805.499,1208.41 807.451,1067.1 809.402,1085.75 811.354,1151 813.305,1204.42 815.257,1204.42 817.208,1046.31 819.16,1069.93 821.111,1138.05 823.063,1138.05 825.014,979.243 826.966,979.243 828.917,716.261 830.869,716.261 832.82,543.016 834.772,566.411 836.723,725.802 838.675,856.3 840.626,856.3 842.577,766.399 844.529,776.537 846.48,776.537 848.432,794.188 850.383,804.641 852.335,920.849 854.286,1015.99 856.238,1015.99 858.189,869.993 860.141,921.353 862.092,921.353 864.044,771.276 865.995,848.723 867.947,956.94 869.898,1045.54 871.85,1118.08 873.801,1177.47 875.753,1177.47 877.704,1108.75 879.656,1140.22 881.607,1140.22 883.559,1000.38 885.51,1010.45 887.462,1089.35 889.413,1089.35 891.365,1036.57 893.316,1066.06 895.268,1066.06 897.219,942.923 899.171,946.973 901.122,1037.38 903.074,1037.38 905.025,897.427 906.977,994.47 908.928,1076.27 910.88,1143.24 912.831,1198.07 914.783,1242.96 916.734,1242.96 918.686,1153.04 920.637,1200.28 922.588,1244.77 924.54,1244.77 926.491,1085.4 928.443,1098.82 930.394,1161.7 932.346,1161.7 934.297,993.526 936.249,1045.54 938.2,1045.54 940.152,889.16 942.103,889.16 944.055,845.102 946.006,856.034 947.958,856.034 949.909,817.732 951.861,877.174 953.812,980.233 955.764,980.233 957.715,902.744 959.667,929.55 961.618,1023.11 963.57,1099.72 965.521,1162.44 967.473,1162.44 969.424,1067.98 971.376,1136.17 973.327,1136.17 975.279,1061.56 977.23,1061.56 979.182,918.071 981.133,920.942 983.085,920.942 985.036,779.365 986.988,845.41 988.939,845.41 990.891,841.229 992.842,862.907 994.794,968.552 996.745,1055.05 998.697,1055.05 1000.65,1000.56 1002.6,1039.41 1004.55,1039.41 1006.5,854.871 1008.45,854.871 1010.41,773.426 1012.36,824.879 1014.31,824.879 1016.26,744.007 1018.21,749.455 1020.16,875.666 1022.11,978.998 1024.07,1063.6 1026.02,1063.6 1027.97,986.749 1029.92,992.603 1031.87,1074.74 1033.82,1074.74 1035.77,791.766 1037.73,908.602 1039.68,908.602 1041.63,739.054 1043.58,844.907 1045.53,953.815 1047.48,1042.98 1049.44,1042.98 1051.39,877.05 1053.34,877.05 1055.29,851.769 1057.24,857.471 1059.19,964.102 1061.14,1051.4 1063.1,1122.88 1065.05,1181.4 1067,1229.31 1068.95,1229.31 1070.9,1164.78 1072.85,1178.42 1074.8,1226.88 1076.76,1266.54 1078.71,1299.02 1080.66,1325.61 1082.61,1325.61 1084.56,1186.9 1086.51,1227.72 1088.46,1267.23 1090.42,1267.23 1092.37,1096.21 1094.32,1126.66 1096.27,1184.49 1098.22,1184.49 1100.17,1113.88 1102.13,1146.41 1104.08,1200.67 1106.03,1245.09 1107.98,1281.46 1109.93,1281.46 1111.88,1093.5 1113.83,1093.5 1115.79,963.134 1117.74,963.134 1119.69,842.659 1121.64,844.436 1123.59,953.429 1125.54,1042.67 1127.49,1115.73 1129.45,1115.73 1131.4,889.046 1133.35,893.841 1135.3,893.841 1137.25,891.417 1139.2,900.758 1141.16,999.542 1143.11,1080.42 1145.06,1080.42 1147.01,986.326 1148.96,1012.73 1150.91,1012.73 1152.86,889.225 1154.82,889.225 1156.77,833.756 1158.72,882.509 1160.67,984.601 1162.62,984.601 1164.57,923.641 1166.52,984.514 1168.48,984.514 1170.43,814.847 1172.38,814.847 1174.33,781.818 1176.28,816.276 1178.23,930.374 1180.18,930.374 1182.14,724.679 1184.09,749.371 1186.04,875.597 1187.99,978.942 1189.94,1063.55 1191.89,1132.83 1193.85,1189.54 1195.8,1189.54 1197.75,1051.94 1199.7,1051.94 1201.65,971.708 1203.6,1035.65 1205.55,1109.99 1207.51,1170.84 1209.46,1220.67 1211.41,1261.46 1213.36,1294.86 1215.31,1322.21 1217.26,1344.6 1219.21,1344.6 1221.17,1257.63 1223.12,1278.94 1225.07,1278.94 1227.02,1111.19 1228.97,1130.89 1230.92,1130.89 1232.88,968.766 1234.83,1018.14 1236.78,1018.14 1238.73,972.956 1240.68,972.956 1242.63,908.514 1244.58,914.224 1246.54,1010.57 1248.49,1010.57 1250.44,872.613 1252.39,872.613 1254.34,748.285 1256.29,777.396 1258.24,898.542 1260.2,898.542 1262.15,840.147 1264.1,860.406 1266.05,966.505 1268,966.505 1269.95,827.821 1271.9,936.221 1273.86,1028.58 1275.81,1104.19 1277.76,1104.19 1279.71,938.225 1281.66,999.561 1283.61,1080.44 1285.57,1080.44 1287.52,930.745 1289.47,972.62 1291.42,972.62 1293.37,838.058 1295.32,838.058 1297.27,747.059 1299.23,747.059 1301.18,528.029 1303.13,598.596 1305.08,752.152 1307.03,877.874 1308.98,877.874 1310.93,754.289 1312.89,805.367 1314.84,921.443 1316.79,921.443 1318.74,781.558 1320.69,845.195 1322.64,954.051 1324.59,954.051 1326.55,816.225 1328.5,816.225 1330.45,644.02 1332.4,644.02 1334.35,501.032 1336.3,502.616 1338.26,673.571 1340.21,673.571 1342.16,616.41 1344.11,682.843 1346.06,821.129 1348.01,934.347 1349.96,1027.04 1351.92,1027.04 1353.87,908.792 1355.82,979.596 1357.77,1064.09 1359.72,1133.27 1361.67,1189.9 1363.62,1189.9 1365.58,1107.43 1367.53,1154.83 1369.48,1207.56 1371.43,1207.56 1373.38,938.324 1375.33,938.324 1377.29,808.856 1379.24,808.856 1381.19,662.404 1383.14,693.338 1385.09,829.721 1387.04,829.721 1388.99,626.983 1390.95,673.31 1392.9,673.31 1394.85,454.776 1396.8,559.084 1398.75,719.803 1400.7,851.389 1402.65,959.122 1404.61,1047.33 1406.56,1119.54 1408.51,1178.67 1410.46,1227.07 1412.41,1266.71 1414.36,1266.71 1416.31,1100.47 1418.27,1120.97 1420.22,1120.97 1422.17,990.028 1424.12,990.028 1426.07,947.413 1428.02,968.725 1429.98,968.725 1431.93,900.291 1433.88,973.119 1435.83,1058.79 1437.78,1128.92 1439.73,1186.35 1441.68,1186.35 1443.64,1035.24 1445.59,1051.38 1447.54,1051.38 1449.49,938.412 1451.44,938.412 1453.39,852.259 1455.34,856.12 1457.3,962.996 1459.25,962.996 1461.2,819.61 1463.15,879.048 1465.1,981.768 1467.05,1065.87 1469.01,1065.87 1470.96,903.302 1472.91,967.822 1474.86,1054.45 1476.81,1125.37 1478.76,1183.44 1480.71,1230.98 1482.67,1230.98 1484.62,1057.28 1486.57,1102.55 1488.52,1102.55 1490.47,967.985 1492.42,980.145 1494.37,980.145 1496.33,898.536 1498.28,898.536 1500.23,783.583 1502.18,783.583 1504.13,596.944 1506.08,601.865 1508.03,754.83 1509.99,880.066 1511.94,982.601 1513.89,1066.55 1515.84,1135.28 1517.79,1135.28 1519.74,989.706 1521.7,1010.94 1523.65,1089.75 1525.6,1089.75 1527.55,1007.67 1529.5,1073.88 1531.45,1073.88 1533.4,918.497 1535.36,918.497 1537.31,825.357 1539.26,884.929 1541.21,884.929 1543.16,720.227 1545.11,720.227 1547.06,631.464 1549.02,692.993 1550.97,692.993 1552.92,606.445 1554.87,606.445 1556.82,560.642 1558.77,561.87 1560.73,722.084 1562.68,722.084 1564.63,668.037 1566.58,720.826 1568.53,852.226 1570.48,852.226 1572.43,808.287 1574.39,875.004 1576.34,978.457 1578.29,978.457 1580.24,836.447 1582.19,890.543 1584.14,991.178 1586.09,991.178 1588.05,808.816 1590,916.026 1591.95,1012.04 1593.9,1090.65 1595.85,1155.02 1597.8,1155.02 1599.75,1039.16 1601.71,1079.86 1603.66,1146.18 1605.61,1146.18 1607.56,1087.52 1609.51,1112.31 1611.46,1172.75 1613.42,1222.23 1615.37,1222.23 1617.32,1094.25 1619.27,1138.59 1621.22,1194.26 1623.17,1239.84 1625.12,1277.16 1627.08,1307.72 1629.03,1332.73 1630.98,1353.21 1632.93,1353.21 1634.88,1171.93 1636.83,1171.93 1638.78,1048.03 1640.74,1063.26 1642.69,1132.59 1644.64,1132.59 1646.59,1046.78 1648.54,1047.54 1650.49,1119.72 1652.44,1119.72 1654.4,1006.51 1656.35,1006.51 1658.3,876.398 1660.25,919.996 1662.2,919.996 1664.15,781.192 1666.11,843.67 1668.06,952.803 1670.01,1042.15 1671.96,1115.31 1673.91,1115.31 1675.86,1031.31 1677.81,1034.07 1679.77,1034.07 1681.72,984.817 1683.67,1021.51 1685.62,1098.41 1687.57,1161.36 1689.52,1212.91 1691.47,1212.91 1693.43,1028.61 1695.38,1028.61 1697.33,896.309 1699.28,912.747 1701.23,912.747 1703.18,732.194 1705.14,851.635 1707.09,851.635 1709.04,764.976 1710.99,831.036 1712.94,831.036 1714.89,734.107 1716.84,816.917 1718.8,816.917 1720.75,706.36 1722.7,706.36 1724.65,652.492 1726.6,722.026 1728.55,853.208 1730.5,853.208 1732.46,678.997 1734.41,678.997 1736.36,511.339 1738.31,511.339 1740.26,428.702 1742.21,452.61 1744.16,452.61 1746.12,449.154 1748.07,449.154 1750.02,423.322 1751.97,455.5 1753.92,455.5 1755.87,393.573 1757.83,393.573 1759.78,251.269 1761.73,386.863 1763.68,578.801 1765.63,578.801 1767.58,612.824 1769.53,612.824 1771.49,340.536 1773.44,367.711 1775.39,367.711 1777.34,284.326 1779.29,391.103 1781.24,582.272 1783.19,582.272 1785.15,557.338 1787.1,604.209 1789.05,604.209 1791,425.552 1792.95,425.552 1794.9,364.357 1796.86,364.357 1798.81,121.166 1800.76,265.16 1802.71,479.158 1804.66,479.158 1806.61,314.819 1808.56,388.805 1810.52,580.391 1812.47,580.391 1814.42,623.286 1816.37,645.036 1818.32,645.036 1820.27,452.509 1822.22,527.471 1824.18,693.92 1826.13,830.198 1828.08,941.772 1830.03,1033.12 1831.98,1033.12 1833.93,872.717 1835.88,941.08 1837.84,1032.55 1839.79,1107.45 1841.74,1168.77 1843.69,1218.97 1845.64,1218.97 1847.59,1089.06 1849.55,1137.15 1851.5,1137.15 1853.45,982.105 1855.4,1018.54 1857.35,1095.97 1859.3,1095.97 1861.25,1002.73 1863.21,1002.73 1865.16,871.524 1867.11,902.173 1869.06,1000.7 1871.01,1081.37 1872.96,1147.41 1874.91,1147.41 1876.87,963.601 1878.82,1043.41 1880.77,1116.34 1882.72,1176.04 1884.67,1224.93 1886.62,1224.93 1888.57,1064.26 1890.53,1064.26 1892.48,876.598 1894.43,907.455 1896.38,907.455 1898.33,727.898 1900.28,847.031 1902.24,955.555 1904.19,955.555 1906.14,822.466 1908.09,822.466 1910.04,771.317 1911.99,787.179 1913.94,787.179 1915.9,703.508 1917.85,827.681 1919.8,827.681 1921.75,838.412 1923.7,846.212 1925.65,954.883 1927.6,1043.86 1929.56,1116.7 1931.51,1176.34 1933.46,1176.34 1935.41,1064.33 1937.36,1094.24 1939.31,1094.24 1941.27,949.169 1943.22,949.169 1945.17,831.002 1947.12,840.589 1949.07,950.28 1951.02,1040.09 1952.97,1040.09 1954.93,941.733 1956.88,983.242 1958.83,983.242 1960.78,890.164 1962.73,989.251 1964.68,1071.99 1966.63,1071.99 1968.59,921.988 1970.54,966.351 1972.49,966.351 1974.44,881.529 1976.39,974.064 1978.34,974.064 1980.29,959.908 1982.25,966.038 1984.2,1052.99 1986.15,1052.99 1988.1,922.371 1990.05,922.371 1992,781.822 1993.96,828.147 1995.91,828.147 1997.86,752.787 1999.81,752.787 2001.76,621.196 2003.71,621.196 2005.66,594.072 2007.62,594.072 2009.57,469.39 2011.52,513.975 2013.47,513.975 2015.42,522.7 2017.37,522.7 2019.32,495.708 2021.28,501.5 2023.23,501.5 2025.18,427.562 2027.13,495.948 2029.08,495.948 2031.03,466.003 2032.99,481.716 2034.94,656.46 2036.89,656.46 2038.84,389.514 2040.79,389.514 2042.74,261.888 2044.69,282.499 2046.65,282.499 2048.6,137.827 2050.55,137.827 2052.5,87.9763 2054.45,151.479 2056.4,386.085 2058.35,386.085 2060.31,297.127 2062.26,297.127 2064.21,291.47 2066.16,313.95 2068.11,519.104 2070.06,519.104 2072.01,391.022 2073.97,568.966 2075.92,568.966 2077.87,395.787 2079.82,461.539 2081.77,639.94 2083.72,639.94 2085.68,558.325 2087.63,558.325 2089.58,410.118 2091.53,484.4 2093.48,484.4 2095.43,370.228 2097.38,490.388 2099.34,490.388 2101.29,356.205 2103.24,546.27 2105.19,546.27 2107.14,503.559 2109.09,503.559 2111.04,377.492 2113,391.616 2114.95,582.692 2116.9,582.692 2118.85,543.817 2120.8,551.262 2122.75,713.399 2124.71,713.399 2126.66,532.339 2128.61,689.257 2130.56,689.257 2132.51,510.779 2134.46,510.779 2136.41,408.869 2138.37,408.869 2140.32,331.541 2142.27,356.483 2144.22,356.483 2146.17,182.75 2148.12,396.565 2150.07,586.743 2152.03,742.449 2153.98,869.929 2155.93,974.302 2157.88,1059.75 2159.83,1129.72 2161.78,1129.72 2163.73,1047.12 2165.69,1047.12 2167.64,864.922 2169.59,942.098 2171.54,1033.39 2173.49,1108.13 2175.44,1169.32 2177.4,1219.43 2179.35,1219.43 2181.3,1078.84 2183.25,1078.84 2185.2,1021.74 2187.15,1021.74 2189.1,905.521 2191.06,917.434 2193.01,917.434 2194.96,780.942 2196.91,895.632 2198.86,895.632 2200.81,747.32 2202.76,747.32 2204.72,601.933 2206.67,601.933 2208.62,427.338 2210.57,466.7 2212.52,644.165 2214.47,789.462 2216.42,908.42 2218.38,1005.82 2220.33,1005.82 2222.28,874.642 2224.23,874.642 2226.18,789.247 2228.13,789.247 2230.09,619.831 2232.04,628.463 2233.99,776.606 2235.94,897.895 2237.89,897.895 2239.84,747.278 2241.79,747.278 2243.75,532.358 2245.7,552.343 2247.65,714.284 2249.6,846.87 2251.55,955.423 2253.5,1044.3 2255.45,1044.3 2257.41,883.733 2259.36,949.949 2261.31,949.949 2263.26,818.902 2265.21,864.018 2267.16,969.462 2269.12,969.462 2271.07,914.51 2273.02,971.18 2274.97,1057.2 2276.92,1127.63 2278.87,1127.63 2280.82,1065.74 2282.78,1098.81 2284.73,1098.81 2286.68,966.574 2288.63,975.982 2290.58,1061.13 "/>
<path clip-path="url(#clip170)" d="M229.155 198.898 L501.268 198.898 L501.268 95.2176 L229.155 95.2176  Z" fill="#ffffff" fill-rule="evenodd" fill-opacity="1"/>
<polyline clip-path="url(#clip170)" style="stroke:#000000; stroke-linecap:round; stroke-linejoin:round; stroke-width:4; stroke-opacity:1; fill:none" points="229.155,198.898 501.268,198.898 501.268,95.2176 229.155,95.2176 229.155,198.898 "/>
<polyline clip-path="url(#clip170)" style="stroke:#009af9; stroke-linecap:round; stroke-linejoin:round; stroke-width:4; stroke-opacity:1; fill:none" points="253.564,147.058 400.019,147.058 "/>
<path clip-path="url(#clip170)" d="M438.271 166.745 Q436.465 171.375 434.752 172.787 Q433.039 174.199 430.169 174.199 L426.766 174.199 L426.766 170.634 L429.266 170.634 Q431.025 170.634 431.998 169.8 Q432.97 168.967 434.15 165.865 L434.914 163.921 L424.428 138.412 L428.942 138.412 L437.044 158.689 L445.146 138.412 L449.66 138.412 L438.271 166.745 Z" fill="#000000" fill-rule="nonzero" fill-opacity="1" /><path clip-path="url(#clip170)" d="M456.951 160.402 L464.59 160.402 L464.59 134.037 L456.28 135.703 L456.28 131.444 L464.544 129.778 L469.22 129.778 L469.22 160.402 L476.859 160.402 L476.859 164.338 L456.951 164.338 L456.951 160.402 Z" fill="#000000" fill-rule="nonzero" fill-opacity="1" /></svg>
