<?xml version="1.0" encoding="utf-8"?>
<svg xmlns="http://www.w3.org/2000/svg" xmlns:xlink="http://www.w3.org/1999/xlink" width="600" height="400" viewBox="0 0 2400 1600">
<defs>
  <clipPath id="clip460">
    <rect x="0" y="0" width="2400" height="1600"/>
  </clipPath>
</defs>
<path clip-path="url(#clip460)" d="M0 1600 L2400 1600 L2400 0 L0 0  Z" fill="#ffffff" fill-rule="evenodd" fill-opacity="1"/>
<defs>
  <clipPath id="clip461">
    <rect x="140" y="47" width="2213" height="1377"/>
  </clipPath>
</defs>
<path clip-path="url(#clip460)" d="M140.696 1423.18 L2352.76 1423.18 L2352.76 47.2441 L140.696 47.2441  Z" fill="#ffffff" fill-rule="evenodd" fill-opacity="1"/>
<polyline clip-path="url(#clip461)" style="stroke:#000000; stroke-linecap:round; stroke-linejoin:round; stroke-width:2; stroke-opacity:0.1; fill:none" points="565.69,1423.18 565.69,47.2441 "/>
<polyline clip-path="url(#clip461)" style="stroke:#000000; stroke-linecap:round; stroke-linejoin:round; stroke-width:2; stroke-opacity:0.1; fill:none" points="1013.55,1423.18 1013.55,47.2441 "/>
<polyline clip-path="url(#clip461)" style="stroke:#000000; stroke-linecap:round; stroke-linejoin:round; stroke-width:2; stroke-opacity:0.1; fill:none" points="1461.41,1423.18 1461.41,47.2441 "/>
<polyline clip-path="url(#clip461)" style="stroke:#000000; stroke-linecap:round; stroke-linejoin:round; stroke-width:2; stroke-opacity:0.1; fill:none" points="1909.27,1423.18 1909.27,47.2441 "/>
<polyline clip-path="url(#clip461)" style="stroke:#000000; stroke-linecap:round; stroke-linejoin:round; stroke-width:2; stroke-opacity:0.1; fill:none" points="140.696,1394.71 2352.76,1394.71 "/>
<polyline clip-path="url(#clip461)" style="stroke:#000000; stroke-linecap:round; stroke-linejoin:round; stroke-width:2; stroke-opacity:0.1; fill:none" points="140.696,984.583 2352.76,984.583 "/>
<polyline clip-path="url(#clip461)" style="stroke:#000000; stroke-linecap:round; stroke-linejoin:round; stroke-width:2; stroke-opacity:0.1; fill:none" points="140.696,574.459 2352.76,574.459 "/>
<polyline clip-path="url(#clip461)" style="stroke:#000000; stroke-linecap:round; stroke-linejoin:round; stroke-width:2; stroke-opacity:0.1; fill:none" points="140.696,164.335 2352.76,164.335 "/>
<polyline clip-path="url(#clip460)" style="stroke:#000000; stroke-linecap:round; stroke-linejoin:round; stroke-width:4; stroke-opacity:1; fill:none" points="140.696,1423.18 2352.76,1423.18 "/>
<polyline clip-path="url(#clip460)" style="stroke:#000000; stroke-linecap:round; stroke-linejoin:round; stroke-width:4; stroke-opacity:1; fill:none" points="565.69,1423.18 565.69,1404.28 "/>
<polyline clip-path="url(#clip460)" style="stroke:#000000; stroke-linecap:round; stroke-linejoin:round; stroke-width:4; stroke-opacity:1; fill:none" points="1013.55,1423.18 1013.55,1404.28 "/>
<polyline clip-path="url(#clip460)" style="stroke:#000000; stroke-linecap:round; stroke-linejoin:round; stroke-width:4; stroke-opacity:1; fill:none" points="1461.41,1423.18 1461.41,1404.28 "/>
<polyline clip-path="url(#clip460)" style="stroke:#000000; stroke-linecap:round; stroke-linejoin:round; stroke-width:4; stroke-opacity:1; fill:none" points="1909.27,1423.18 1909.27,1404.28 "/>
<path clip-path="url(#clip460)" d="M540.378 1481.64 L548.017 1481.64 L548.017 1455.28 L539.707 1456.95 L539.707 1452.69 L547.971 1451.02 L552.647 1451.02 L552.647 1481.64 L560.285 1481.64 L560.285 1485.58 L540.378 1485.58 L540.378 1481.64 Z" fill="#000000" fill-rule="nonzero" fill-opacity="1" /><path clip-path="url(#clip460)" d="M579.73 1454.1 Q576.119 1454.1 574.29 1457.66 Q572.484 1461.2 572.484 1468.33 Q572.484 1475.44 574.29 1479.01 Q576.119 1482.55 579.73 1482.55 Q583.364 1482.55 585.17 1479.01 Q586.998 1475.44 586.998 1468.33 Q586.998 1461.2 585.17 1457.66 Q583.364 1454.1 579.73 1454.1 M579.73 1450.39 Q585.54 1450.39 588.595 1455 Q591.674 1459.58 591.674 1468.33 Q591.674 1477.06 588.595 1481.67 Q585.54 1486.25 579.73 1486.25 Q573.92 1486.25 570.841 1481.67 Q567.785 1477.06 567.785 1468.33 Q567.785 1459.58 570.841 1455 Q573.92 1450.39 579.73 1450.39 Z" fill="#000000" fill-rule="nonzero" fill-opacity="1" /><path clip-path="url(#clip460)" d="M992.322 1481.64 L1008.64 1481.64 L1008.64 1485.58 L986.697 1485.58 L986.697 1481.64 Q989.359 1478.89 993.942 1474.26 Q998.549 1469.61 999.729 1468.27 Q1001.97 1465.74 1002.85 1464.01 Q1003.76 1462.25 1003.76 1460.56 Q1003.76 1457.8 1001.81 1456.07 Q999.892 1454.33 996.79 1454.33 Q994.591 1454.33 992.137 1455.09 Q989.706 1455.86 986.929 1457.41 L986.929 1452.69 Q989.753 1451.55 992.206 1450.97 Q994.66 1450.39 996.697 1450.39 Q1002.07 1450.39 1005.26 1453.08 Q1008.46 1455.77 1008.46 1460.26 Q1008.46 1462.39 1007.65 1464.31 Q1006.86 1466.2 1004.75 1468.8 Q1004.17 1469.47 1001.07 1472.69 Q997.97 1475.88 992.322 1481.64 Z" fill="#000000" fill-rule="nonzero" fill-opacity="1" /><path clip-path="url(#clip460)" d="M1028.46 1454.1 Q1024.85 1454.1 1023.02 1457.66 Q1021.21 1461.2 1021.21 1468.33 Q1021.21 1475.44 1023.02 1479.01 Q1024.85 1482.55 1028.46 1482.55 Q1032.09 1482.55 1033.9 1479.01 Q1035.72 1475.44 1035.72 1468.33 Q1035.72 1461.2 1033.9 1457.66 Q1032.09 1454.1 1028.46 1454.1 M1028.46 1450.39 Q1034.27 1450.39 1037.32 1455 Q1040.4 1459.58 1040.4 1468.33 Q1040.4 1477.06 1037.32 1481.67 Q1034.27 1486.25 1028.46 1486.25 Q1022.65 1486.25 1019.57 1481.67 Q1016.51 1477.06 1016.51 1468.33 Q1016.51 1459.58 1019.57 1455 Q1022.65 1450.39 1028.46 1450.39 Z" fill="#000000" fill-rule="nonzero" fill-opacity="1" /><path clip-path="url(#clip460)" d="M1450.25 1466.95 Q1453.61 1467.66 1455.48 1469.93 Q1457.38 1472.2 1457.38 1475.53 Q1457.38 1480.65 1453.86 1483.45 Q1450.34 1486.25 1443.86 1486.25 Q1441.69 1486.25 1439.37 1485.81 Q1437.08 1485.39 1434.62 1484.54 L1434.62 1480.02 Q1436.57 1481.16 1438.88 1481.74 Q1441.2 1482.32 1443.72 1482.32 Q1448.12 1482.32 1450.41 1480.58 Q1452.73 1478.84 1452.73 1475.53 Q1452.73 1472.48 1450.57 1470.77 Q1448.44 1469.03 1444.62 1469.03 L1440.6 1469.03 L1440.6 1465.19 L1444.81 1465.19 Q1448.26 1465.19 1450.09 1463.82 Q1451.92 1462.43 1451.92 1459.84 Q1451.92 1457.18 1450.02 1455.77 Q1448.14 1454.33 1444.62 1454.33 Q1442.7 1454.33 1440.5 1454.75 Q1438.31 1455.16 1435.67 1456.04 L1435.67 1451.88 Q1438.33 1451.14 1440.64 1450.77 Q1442.98 1450.39 1445.04 1450.39 Q1450.37 1450.39 1453.47 1452.83 Q1456.57 1455.23 1456.57 1459.35 Q1456.57 1462.22 1454.93 1464.21 Q1453.28 1466.18 1450.25 1466.95 Z" fill="#000000" fill-rule="nonzero" fill-opacity="1" /><path clip-path="url(#clip460)" d="M1476.25 1454.1 Q1472.63 1454.1 1470.81 1457.66 Q1469 1461.2 1469 1468.33 Q1469 1475.44 1470.81 1479.01 Q1472.63 1482.55 1476.25 1482.55 Q1479.88 1482.55 1481.68 1479.01 Q1483.51 1475.44 1483.51 1468.33 Q1483.51 1461.2 1481.68 1457.66 Q1479.88 1454.1 1476.25 1454.1 M1476.25 1450.39 Q1482.06 1450.39 1485.11 1455 Q1488.19 1459.58 1488.19 1468.33 Q1488.19 1477.06 1485.11 1481.67 Q1482.06 1486.25 1476.25 1486.25 Q1470.43 1486.25 1467.36 1481.67 Q1464.3 1477.06 1464.3 1468.33 Q1464.3 1459.58 1467.36 1455 Q1470.43 1450.39 1476.25 1450.39 Z" fill="#000000" fill-rule="nonzero" fill-opacity="1" /><path clip-path="url(#clip460)" d="M1897.44 1455.09 L1885.63 1473.54 L1897.44 1473.54 L1897.44 1455.09 M1896.21 1451.02 L1902.09 1451.02 L1902.09 1473.54 L1907.02 1473.54 L1907.02 1477.43 L1902.09 1477.43 L1902.09 1485.58 L1897.44 1485.58 L1897.44 1477.43 L1881.84 1477.43 L1881.84 1472.92 L1896.21 1451.02 Z" fill="#000000" fill-rule="nonzero" fill-opacity="1" /><path clip-path="url(#clip460)" d="M1924.75 1454.1 Q1921.14 1454.1 1919.31 1457.66 Q1917.51 1461.2 1917.51 1468.33 Q1917.51 1475.44 1919.31 1479.01 Q1921.14 1482.55 1924.75 1482.55 Q1928.39 1482.55 1930.19 1479.01 Q1932.02 1475.44 1932.02 1468.33 Q1932.02 1461.2 1930.19 1457.66 Q1928.39 1454.1 1924.75 1454.1 M1924.75 1450.39 Q1930.56 1450.39 1933.62 1455 Q1936.7 1459.58 1936.7 1468.33 Q1936.7 1477.06 1933.62 1481.67 Q1930.56 1486.25 1924.75 1486.25 Q1918.94 1486.25 1915.86 1481.67 Q1912.81 1477.06 1912.81 1468.33 Q1912.81 1459.58 1915.86 1455 Q1918.94 1450.39 1924.75 1450.39 Z" fill="#000000" fill-rule="nonzero" fill-opacity="1" /><path clip-path="url(#clip460)" d="M1245.79 1522.27 L1245.79 1532.4 L1257.85 1532.4 L1257.85 1536.95 L1245.79 1536.95 L1245.79 1556.3 Q1245.79 1560.66 1246.96 1561.9 Q1248.17 1563.14 1251.83 1563.14 L1257.85 1563.14 L1257.85 1568.04 L1251.83 1568.04 Q1245.05 1568.04 1242.48 1565.53 Q1239.9 1562.98 1239.9 1556.3 L1239.9 1536.95 L1235.6 1536.95 L1235.6 1532.4 L1239.9 1532.4 L1239.9 1522.27 L1245.79 1522.27 Z" fill="#000000" fill-rule="nonzero" fill-opacity="1" /><polyline clip-path="url(#clip460)" style="stroke:#000000; stroke-linecap:round; stroke-linejoin:round; stroke-width:4; stroke-opacity:1; fill:none" points="140.696,1423.18 140.696,47.2441 "/>
<polyline clip-path="url(#clip460)" style="stroke:#000000; stroke-linecap:round; stroke-linejoin:round; stroke-width:4; stroke-opacity:1; fill:none" points="140.696,1394.71 159.593,1394.71 "/>
<polyline clip-path="url(#clip460)" style="stroke:#000000; stroke-linecap:round; stroke-linejoin:round; stroke-width:4; stroke-opacity:1; fill:none" points="140.696,984.583 159.593,984.583 "/>
<polyline clip-path="url(#clip460)" style="stroke:#000000; stroke-linecap:round; stroke-linejoin:round; stroke-width:4; stroke-opacity:1; fill:none" points="140.696,574.459 159.593,574.459 "/>
<polyline clip-path="url(#clip460)" style="stroke:#000000; stroke-linecap:round; stroke-linejoin:round; stroke-width:4; stroke-opacity:1; fill:none" points="140.696,164.335 159.593,164.335 "/>
<path clip-path="url(#clip460)" d="M92.7512 1380.51 Q89.1401 1380.51 87.3114 1384.07 Q85.5058 1387.61 85.5058 1394.74 Q85.5058 1401.85 87.3114 1405.41 Q89.1401 1408.95 92.7512 1408.95 Q96.3854 1408.95 98.1909 1405.41 Q100.02 1401.85 100.02 1394.74 Q100.02 1387.61 98.1909 1384.07 Q96.3854 1380.51 92.7512 1380.51 M92.7512 1376.8 Q98.5613 1376.8 101.617 1381.41 Q104.696 1385.99 104.696 1394.74 Q104.696 1403.47 101.617 1408.07 Q98.5613 1412.66 92.7512 1412.66 Q86.941 1412.66 83.8623 1408.07 Q80.8068 1403.47 80.8068 1394.74 Q80.8068 1385.99 83.8623 1381.41 Q86.941 1376.8 92.7512 1376.8 Z" fill="#000000" fill-rule="nonzero" fill-opacity="1" /><path clip-path="url(#clip460)" d="M53.3995 997.928 L61.0384 997.928 L61.0384 971.562 L52.7282 973.229 L52.7282 968.97 L60.9921 967.303 L65.668 967.303 L65.668 997.928 L73.3068 997.928 L73.3068 1001.86 L53.3995 1001.86 L53.3995 997.928 Z" fill="#000000" fill-rule="nonzero" fill-opacity="1" /><path clip-path="url(#clip460)" d="M92.7512 970.382 Q89.1401 970.382 87.3114 973.946 Q85.5058 977.488 85.5058 984.618 Q85.5058 991.724 87.3114 995.289 Q89.1401 998.83 92.7512 998.83 Q96.3854 998.83 98.1909 995.289 Q100.02 991.724 100.02 984.618 Q100.02 977.488 98.1909 973.946 Q96.3854 970.382 92.7512 970.382 M92.7512 966.678 Q98.5613 966.678 101.617 971.284 Q104.696 975.868 104.696 984.618 Q104.696 993.344 101.617 997.951 Q98.5613 1002.53 92.7512 1002.53 Q86.941 1002.53 83.8623 997.951 Q80.8068 993.344 80.8068 984.618 Q80.8068 975.868 83.8623 971.284 Q86.941 966.678 92.7512 966.678 Z" fill="#000000" fill-rule="nonzero" fill-opacity="1" /><path clip-path="url(#clip460)" d="M56.6171 587.804 L72.9365 587.804 L72.9365 591.739 L50.9921 591.739 L50.9921 587.804 Q53.6541 585.049 58.2375 580.42 Q62.8439 575.767 64.0245 574.424 Q66.2698 571.901 67.1494 570.165 Q68.0522 568.406 68.0522 566.716 Q68.0522 563.961 66.1078 562.225 Q64.1865 560.489 61.0847 560.489 Q58.8856 560.489 56.4319 561.253 Q54.0014 562.017 51.2236 563.568 L51.2236 558.846 Q54.0477 557.711 56.5014 557.133 Q58.955 556.554 60.9921 556.554 Q66.3624 556.554 69.5568 559.239 Q72.7513 561.924 72.7513 566.415 Q72.7513 568.545 71.9411 570.466 Q71.1541 572.364 69.0476 574.957 Q68.4689 575.628 65.367 578.845 Q62.2652 582.04 56.6171 587.804 Z" fill="#000000" fill-rule="nonzero" fill-opacity="1" /><path clip-path="url(#clip460)" d="M92.7512 560.258 Q89.1401 560.258 87.3114 563.822 Q85.5058 567.364 85.5058 574.494 Q85.5058 581.6 87.3114 585.165 Q89.1401 588.707 92.7512 588.707 Q96.3854 588.707 98.1909 585.165 Q100.02 581.6 100.02 574.494 Q100.02 567.364 98.1909 563.822 Q96.3854 560.258 92.7512 560.258 M92.7512 556.554 Q98.5613 556.554 101.617 561.16 Q104.696 565.744 104.696 574.494 Q104.696 583.22 101.617 587.827 Q98.5613 592.41 92.7512 592.41 Q86.941 592.41 83.8623 587.827 Q80.8068 583.22 80.8068 574.494 Q80.8068 565.744 83.8623 561.16 Q86.941 556.554 92.7512 556.554 Z" fill="#000000" fill-rule="nonzero" fill-opacity="1" /><path clip-path="url(#clip460)" d="M66.7559 162.981 Q70.1124 163.698 71.9874 165.967 Q73.8855 168.235 73.8855 171.569 Q73.8855 176.684 70.367 179.485 Q66.8485 182.286 60.3671 182.286 Q58.1912 182.286 55.8764 181.846 Q53.5847 181.43 51.131 180.573 L51.131 176.059 Q53.0754 177.194 55.3903 177.772 Q57.7051 178.351 60.2282 178.351 Q64.6263 178.351 66.918 176.615 Q69.2328 174.879 69.2328 171.569 Q69.2328 168.513 67.08 166.8 Q64.9504 165.064 61.131 165.064 L57.1032 165.064 L57.1032 161.222 L61.3161 161.222 Q64.7652 161.222 66.5939 159.856 Q68.4226 158.467 68.4226 155.874 Q68.4226 153.212 66.5245 151.8 Q64.6495 150.365 61.131 150.365 Q59.2097 150.365 57.0106 150.782 Q54.8115 151.199 52.1727 152.078 L52.1727 147.911 Q54.8347 147.171 57.1495 146.8 Q59.4875 146.43 61.5476 146.43 Q66.8717 146.43 69.9735 148.861 Q73.0753 151.268 73.0753 155.388 Q73.0753 158.259 71.4318 160.249 Q69.7883 162.217 66.7559 162.981 Z" fill="#000000" fill-rule="nonzero" fill-opacity="1" /><path clip-path="url(#clip460)" d="M92.7512 150.134 Q89.1401 150.134 87.3114 153.698 Q85.5058 157.24 85.5058 164.37 Q85.5058 171.476 87.3114 175.041 Q89.1401 178.583 92.7512 178.583 Q96.3854 178.583 98.1909 175.041 Q100.02 171.476 100.02 164.37 Q100.02 157.24 98.1909 153.698 Q96.3854 150.134 92.7512 150.134 M92.7512 146.43 Q98.5613 146.43 101.617 151.036 Q104.696 155.62 104.696 164.37 Q104.696 173.097 101.617 177.703 Q98.5613 182.286 92.7512 182.286 Q86.941 182.286 83.8623 177.703 Q80.8068 173.097 80.8068 164.37 Q80.8068 155.62 83.8623 151.036 Q86.941 146.43 92.7512 146.43 Z" fill="#000000" fill-rule="nonzero" fill-opacity="1" /><polyline clip-path="url(#clip461)" style="stroke:#009af9; stroke-linecap:round; stroke-linejoin:round; stroke-width:4; stroke-opacity:1; fill:none" points="140.696,1384.24 140.696,1384.24 141.769,1383.75 143.552,1382.93 152.284,1378.93 155.836,1377.31 161.407,1374.76 169.964,1370.84 174.048,1368.97 178.476,1366.57 178.739,1366.43 182.924,1364.23 185.738,1362.78 191.237,1360 193.155,1359.04 193.813,1358.71 204.7,1353.4 209.311,1351.2 212.001,1349.68 214.365,1348.18 214.609,1348.02 217.766,1346.08 236.151,1335.82 261.201,1323.38 272.66,1317.95 273.153,1317.71 277.487,1315.68 295.338,1307.38 309.606,1299.84 317.116,1296.07 318.372,1295.45 319.721,1294.79 325.691,1291.89 331.138,1288.83 334.705,1286.9 345.158,1281.46 382.991,1263.25 389.413,1260.26 391.178,1259.44 403.587,1253.69 414.624,1248.61 424.471,1244.08 425.401,1243.66 429.66,1241.7 430.371,1241.38 436.751,1238.45 448.567,1232.19 455.648,1228.62 461.301,1225.83 473.032,1220.18 480.374,1216.13 496.607,1207.78 500.997,1205.62 508.163,1202.14 515.998,1197.8 524.749,1192.54 529.99,1189.17 534.654,1186.34 538.062,1184.36 556.703,1174.37 562.503,1171.46 571.763,1166.93 606.484,1150.58 610.124,1148.9 614.439,1146.9 632.724,1138.48 640.963,1134.7 642.49,1134 642.94,1133.75 648.187,1130.92 650.499,1129.71 653.547,1128.13 659.421,1124.67 667.527,1120.19 680.842,1112.37 681.068,1112.25 684.732,1110.26 684.815,1110.21 685.41,1109.89 696.922,1103.93 701.757,1101.52 704.678,1100.08 713.81,1095.65 731.285,1087.39 738.574,1083.99 744.556,1081.21 760.03,1074.07 778.943,1065.37 783.672,1063.2 797.432,1056.89 804.389,1053.7 808.401,1051.86 816.634,1048.09 818.22,1047.36 820.601,1046.07 822.924,1044.82 829.801,1041.23 831.323,1040.46 832.571,1039.71 832.655,1039.66 834.767,1038.24 840.101,1034.82 842.88,1033.12 846.577,1030.94 854.102,1026.72 868.174,1019.37 875.909,1015.53 879.426,1013.51 895.288,1005.04 901.91,1001.71 913.293,996.151 916.543,994.315 921.836,991.422 922.926,990.84 927.123,988.632 940.468,981.899 940.664,981.802 944.164,980.09 947.171,978.374 951.953,975.73 962.493,970.188 964.049,969.396 964.3,969.269 991.832,954.435 1010.86,944.022 1016.27,941.27 1024.45,937.218 1027.07,935.947 1034.55,932.343 1036.03,931.51 1048.04,925.041 1059.59,919.203 1060.37,918.82 1063.5,917.283 1071.25,913.532 1072.01,913.171 1077.78,910.419 1124.25,888.828 1125.25,888.367 1126.69,887.704 1126.81,887.651 1134.48,884.128 1135.11,883.839 1139.08,882.014 1139.89,881.643 1151.13,876.49 1164.86,870.194 1165.71,869.804 1171.38,867.206 1179.32,863.57 1179.68,863.372 1179.82,863.299 1181.78,862.232 1206.17,849.84 1207.19,849.347 1217.15,844.575 1232.28,837.461 1233.07,837.093 1237.82,834.88 1240.62,833.582 1251.74,828.437 1266.68,821.557 1266.73,821.537 1274.81,817.823 1278.3,816.223 1298.64,805.669 1303.15,803.45 1310.14,800.065 1315.58,797.029 1317.13,796.181 1321.6,793.429 1321.85,793.28 1322.47,792.907 1323.32,792.403 1325.98,790.853 1337.06,784.75 1345.2,780.529 1360.66,772.894 1372.76,767.122 1381.19,762.514 1404.83,750.626 1405.18,750.46 1409.26,748.497 1414.02,746.229 1424.98,740.271 1426.86,739.289 1431.48,736.537 1432.77,735.789 1432.89,735.72 1438.58,732.531 1443.79,729.722 1457.08,722.006 1458.93,720.996 1477.09,711.648 1481.93,709.27 1486.47,706.693 1489.24,705.169 1494.42,702.388 1496.41,701.349 1499.65,699.397 1508.52,694.351 1512.83,692.026 1525.86,685.324 1526.94,684.786 1550.89,673.233 1557.9,669.94 1559.03,669.314 1565.96,665.566 1597,648.627 1607.86,643.301 1610.74,641.918 1615.49,639.647 1618.9,638.028 1620.69,637.184 1622.88,635.958 1623.28,635.739 1634.7,629.671 1639.31,626.939 1642.47,625.137 1654.99,618.4 1657.4,617.161 1670.74,610.514 1672.63,609.428 1676.45,607.289 1676.64,607.183 1680.55,604.73 1682.62,603.476 1682.93,603.264 1687.13,600.461 1690.99,598.015 1691.88,597.47 1696.56,594.678 1701.04,592.116 1713.76,585.302 1716.82,583.731 1720.33,581.961 1742.14,571.371 1745.03,570.002 1748.32,568.456 1764.57,560.872 1770.11,557.857 1773.6,556.009 1783.32,550.326 1786.48,548.581 1786.48,548.58 1794.55,544.283 1795.11,543.995 1795.65,543.666 1804.57,538.496 1805.13,538.182 1813.11,533.876 1816.88,531.917 1818.33,531.175 1820.88,529.654 1823.31,528.245 1829.36,524.856 1840.29,519.082 1846.48,515.954 1869.92,504.623 1877.79,500.317 1878.78,499.788 1903.11,486.231 1916.21,479.689 1920.78,477.468 1922.15,476.805 1925.94,474.988 1933.12,471.579 1949.22,462.991 1949.93,462.63 1955.13,460.018 1962.27,455.948 1963.02,455.53 1965.44,454 1978.76,446.247 2003.81,432.024 2007.1,430.334 2008.61,429.437 2009.65,428.733 2022.17,420.933 2030.88,416.06 2051.49,405.5 2057.69,401.986 2058.74,401.405 2059.17,401.136 2061.82,399.248 2064.05,397.712 2067.96,395.145 2078.34,388.88 2081.73,386.968 2098.37,377.112 2102.09,375.101 2102.71,374.77 2106.5,372.454 2109.01,370.974 2109.12,370.908 2110.97,369.842 2114.74,367.399 2115.17,367.124 2124.31,361.66 2125.14,361.112 2132.56,356.462 2137.42,353.617 2138.23,353.152 2154.39,344.489 2155.57,343.887 2156.21,343.558 2159.11,342.1 2161.53,340.892 2166.67,338.358 2168.02,337.697 2181.04,331.451 2181.33,331.31 2193.75,325.472 2196.64,323.873 2210.98,315.4 2216.98,312.156 2235.8,302.611 2238.38,301.354 2247.49,296.972 2250.83,295.386 2268.18,287.248 2275.53,283.838 2277.67,282.847 2279.68,281.743 2281.91,280.535 2289.82,276.382 2298.94,271.785 2299.23,271.64 2308.29,267.218 2308.7,266.983 2318.08,261.813 2321.37,260.078 2327.03,257.164 2347.69,247.025 2348.71,246.538 2352.76,244.615 "/>
<polyline clip-path="url(#clip461)" style="stroke:#e26f46; stroke-linecap:round; stroke-linejoin:round; stroke-width:4; stroke-opacity:1; fill:none" points="140.696,1384.24 140.696,1384.24 141.769,1383.65 143.552,1382.53 152.284,1377.34 155.836,1375.34 161.407,1372.32 169.964,1367.22 174.048,1364.59 178.476,1361.87 178.739,1361.72 182.924,1359.27 185.738,1357.44 191.237,1354.03 193.155,1352.89 193.813,1352.51 204.7,1346.43 209.311,1343.61 212.001,1342.03 214.365,1340.67 214.609,1340.53 217.766,1338.77 236.151,1329.16 261.201,1315.68 272.66,1310.05 273.153,1309.76 277.487,1307.32 295.338,1296.86 309.606,1289.44 317.116,1285.72 318.372,1285.1 319.721,1284.45 325.691,1281.08 331.138,1278.15 334.705,1276.28 345.158,1270.98 382.991,1251.28 389.413,1247.69 391.178,1246.74 403.587,1240.29 414.624,1234.04 424.471,1228.13 425.401,1227.6 429.66,1225.23 430.371,1224.84 436.751,1221.44 448.567,1215.43 455.648,1211.95 461.301,1208.77 473.032,1202.54 480.374,1198.84 496.607,1190.95 500.997,1188.86 508.163,1185.48 515.998,1181.82 524.749,1177.75 529.99,1175.33 534.654,1173.18 538.062,1171.6 556.703,1161.87 562.503,1158.54 571.763,1153.52 606.484,1134.81 610.124,1133.03 614.439,1130.58 632.724,1120.97 640.963,1116.27 642.49,1115.43 642.94,1115.18 648.187,1111.95 650.499,1110.38 653.547,1108.13 659.421,1104.09 667.527,1098.38 680.842,1090.23 681.068,1090.08 684.732,1087.41 684.815,1087.34 685.41,1086.82 696.922,1077.77 701.757,1074.46 704.678,1072.57 713.81,1067.05 731.285,1057.62 738.574,1053.94 744.556,1050.52 760.03,1042.32 778.943,1033.02 783.672,1030.76 797.432,1024.28 804.389,1020.49 808.401,1018.38 816.634,1014.19 818.22,1013.39 820.601,1012.21 822.924,1011.07 829.801,1007.73 831.323,1007 832.571,1006.4 832.655,1006.36 834.767,1005.35 840.101,1002.38 842.88,1000.88 846.577,998.927 854.102,995.065 868.174,987.177 875.909,983.153 879.426,981.373 895.288,973.603 901.91,970.445 913.293,965.087 916.543,963.57 921.836,960.674 922.926,960.091 927.123,957.881 940.468,950.223 940.664,950.099 944.164,947.633 947.171,945.615 951.953,942.567 962.493,935.618 964.049,934.669 964.3,934.517 991.832,919.606 1010.86,910.349 1016.27,907.342 1024.45,902.377 1027.07,900.878 1034.55,896.75 1036.03,895.964 1048.04,888.928 1059.59,881.943 1060.37,881.501 1063.5,879.749 1071.25,875.58 1072.01,875.186 1077.78,872.211 1124.25,849.961 1125.25,849.495 1126.69,848.699 1126.81,848.636 1134.48,844.534 1135.11,844.206 1139.08,842.156 1139.89,841.672 1151.13,835.298 1164.86,827.204 1165.71,826.734 1171.38,823.68 1179.32,819.57 1179.68,819.387 1179.82,819.319 1181.78,818.329 1206.17,806.495 1207.19,805.923 1217.15,800.544 1232.28,791.891 1233.07,791.468 1237.82,788.568 1240.62,786.929 1251.74,779.978 1266.68,771.731 1266.73,771.704 1274.81,766.314 1278.3,763.862 1298.64,751.514 1303.15,749.073 1310.14,745.423 1315.58,742.672 1317.13,741.894 1321.6,739.689 1321.85,739.567 1322.47,739.205 1323.32,738.639 1325.98,736.909 1337.06,730.251 1345.2,725.765 1360.66,717.83 1372.76,711.076 1381.19,706.681 1404.83,693.759 1405.18,693.585 1409.26,691.532 1414.02,689.177 1424.98,683.871 1426.86,682.973 1431.48,680.78 1432.77,680.169 1432.89,680.112 1438.58,677.436 1443.79,674.571 1457.08,667.675 1458.93,666.746 1477.09,657.917 1481.93,655.22 1486.47,652.778 1489.24,651.324 1494.42,648.652 1496.41,647.649 1499.65,646.025 1508.52,640.997 1512.83,638.679 1525.86,631.99 1526.94,631.453 1550.89,619.911 1557.9,616.619 1559.03,616.094 1565.96,612.866 1597,598.54 1607.86,593.55 1610.74,592.231 1615.49,589.658 1618.9,587.859 1620.69,586.931 1622.88,585.802 1623.28,585.563 1634.7,578.241 1639.31,575.539 1642.47,573.755 1654.99,567.068 1657.4,565.836 1670.74,559.215 1672.63,558.299 1676.45,556.459 1676.64,556.367 1680.55,554.499 1682.62,553.335 1682.93,553.163 1687.13,550.512 1690.99,548.182 1691.88,547.661 1696.56,544.981 1701.04,542.135 1713.76,533.875 1716.82,531.8 1720.33,529.235 1742.14,514.448 1745.03,512.771 1748.32,510.919 1764.57,502.338 1770.11,499.568 1773.6,497.846 1783.32,493.147 1786.48,491.64 1786.48,491.64 1794.55,487.819 1795.11,487.558 1795.65,487.303 1804.57,482.46 1805.13,482.112 1813.11,477.402 1816.88,474.979 1818.33,473.951 1820.88,472.188 1823.31,470.573 1829.36,466.759 1840.29,460.455 1846.48,457.124 1869.92,445.379 1877.79,441.613 1878.78,441.141 1903.11,429.758 1916.21,423.706 1920.78,421.599 1922.15,420.966 1925.94,419.222 1933.12,415.923 1949.22,408.534 1949.93,408.209 1955.13,405.826 1962.27,402.554 1963.02,402.207 1965.44,401.098 1978.76,394.079 2003.81,381.844 2007.1,380.286 2008.61,379.577 2009.65,379.087 2022.17,373.229 2030.88,369.191 2051.49,359.686 2057.69,356.838 2058.74,356.259 2059.17,356.028 2061.82,354.597 2064.05,353.212 2067.96,350.547 2078.34,343.33 2081.73,340.903 2098.37,330.47 2102.09,328.38 2102.71,328.037 2106.5,325.973 2109.01,324.638 2109.12,324.578 2110.97,323.608 2114.74,321.656 2115.17,321.433 2124.31,316.849 2125.14,316.44 2132.56,312.822 2137.42,310.489 2138.23,310.101 2154.39,302.485 2155.57,301.934 2156.21,301.573 2159.11,299.984 2161.53,298.679 2166.67,295.551 2168.02,294.754 2181.04,286.647 2181.33,286.475 2193.75,279.646 2196.64,278.133 2210.98,270.926 2216.98,268.013 2235.8,257.916 2238.38,256.613 2247.49,251.421 2250.83,249.327 2268.18,239.487 2275.53,235.671 2277.67,234.584 2279.68,233.574 2281.91,232.461 2289.82,228.579 2298.94,224.196 2299.23,224.03 2308.29,219.074 2308.7,218.857 2318.08,214.016 2321.37,212.367 2327.03,209.118 2347.69,197.039 2348.71,196.495 2352.76,194.369 "/>
<polyline clip-path="url(#clip461)" style="stroke:#3da44d; stroke-linecap:round; stroke-linejoin:round; stroke-width:4; stroke-opacity:1; fill:none" points="140.696,1384.24 140.696,1384.24 141.769,1383.75 143.552,1382.77 152.284,1378.16 155.836,1376.35 161.407,1373.56 169.964,1368.72 174.048,1366.18 178.476,1363.54 178.739,1363.39 182.924,1360.66 185.738,1358.91 191.237,1355.18 193.155,1353.95 193.813,1353.53 204.7,1346.27 209.311,1343.48 212.001,1341.68 214.365,1340.15 214.609,1339.97 217.766,1337.74 236.151,1326.41 261.201,1313.4 272.66,1307.86 273.153,1307.58 277.487,1304.8 295.338,1293.47 309.606,1284.75 317.116,1280.61 318.372,1279.94 319.721,1279.1 325.691,1275.55 331.138,1272.48 334.705,1270.54 345.158,1265.08 382.991,1246.85 389.413,1243.34 391.178,1242.25 403.587,1235.1 414.624,1229.27 424.471,1224.33 425.401,1223.87 429.66,1221.44 430.371,1221.04 436.751,1217.05 448.567,1210.32 455.648,1206.56 461.301,1203.2 473.032,1195.91 480.374,1191.19 496.607,1181.96 500.997,1179.28 508.163,1175.16 515.998,1170.3 524.749,1164.66 529.99,1161.54 534.654,1158.51 538.062,1156.4 556.703,1145.99 562.503,1143 571.763,1138.39 606.484,1120.29 610.124,1118.23 614.439,1115.86 632.724,1105.31 640.963,1100.38 642.49,1099.5 642.94,1099.21 648.187,1095.89 650.499,1094.29 653.547,1092.25 659.421,1088.56 667.527,1083.21 680.842,1074.51 681.068,1074.37 684.732,1072.21 684.815,1072.17 685.41,1071.82 696.922,1065.5 701.757,1062.98 704.678,1061.24 713.81,1056.09 731.285,1045.93 738.574,1041.51 744.556,1038.12 760.03,1029.96 778.943,1020.69 783.672,1018.05 797.432,1010.81 804.389,1007.34 808.401,1005.37 816.634,1000.76 818.22,999.762 820.601,998.303 822.924,996.711 829.801,992.288 831.323,991.358 832.571,990.607 832.655,990.549 834.767,988.932 840.101,985.098 842.88,982.983 846.577,980.319 854.102,975.329 868.174,966.125 875.909,961.662 879.426,959.428 895.288,949.266 901.91,944.989 913.293,938.335 916.543,936.553 921.836,933.733 922.926,933.164 927.123,931 940.468,924.363 940.664,924.267 944.164,922.572 947.171,920.869 951.953,918.242 962.493,912.727 964.049,911.8 964.3,911.652 991.832,895.508 1010.86,884.785 1016.27,881.984 1024.45,877.876 1027.07,876.591 1034.55,872.372 1036.03,871.441 1048.04,864.37 1059.59,858.191 1060.37,857.72 1063.5,855.86 1071.25,850.881 1072.01,850.354 1077.78,846.031 1124.25,817.983 1125.25,817.391 1126.69,816.551 1126.81,816.474 1134.48,810.995 1135.11,810.573 1139.08,807.657 1139.89,807.087 1151.13,798.986 1164.86,790.617 1165.71,790.059 1171.38,786.034 1179.32,780.308 1179.68,780.031 1179.82,779.928 1181.78,778.459 1206.17,763.145 1207.19,762.495 1217.15,756.511 1232.28,748.334 1233.07,747.857 1237.82,744.67 1240.62,742.888 1251.74,735.517 1266.68,726.952 1266.73,726.925 1274.81,722.055 1278.3,720.07 1298.64,708.157 1303.15,705.396 1310.14,701.361 1315.58,697.941 1317.13,696.862 1321.6,693.53 1321.85,693.329 1322.47,692.829 1323.32,692.157 1325.98,689.892 1337.06,681.575 1345.2,676.299 1360.66,667.467 1372.76,661.192 1381.19,657.007 1404.83,645.721 1405.18,645.53 1409.26,643.283 1414.02,640.743 1424.98,634.341 1426.86,633.137 1431.48,630.296 1432.77,629.526 1432.89,629.455 1438.58,626.183 1443.79,623.315 1457.08,616.415 1458.93,615.486 1477.09,606.653 1481.93,603.956 1486.47,601.137 1489.24,599.488 1494.42,596.087 1496.41,594.672 1499.65,592.45 1508.52,586.836 1512.83,583.948 1525.86,576.074 1526.94,575.466 1550.89,562.984 1557.9,559.561 1559.03,558.918 1565.96,555.079 1597,537.955 1607.86,532.605 1610.74,531.217 1615.49,528.94 1618.9,527.318 1620.69,526.314 1622.88,525.101 1623.28,524.884 1634.7,518.864 1639.31,516.145 1642.47,514.351 1654.99,507.637 1657.4,506.4 1670.74,499.765 1672.63,498.681 1676.45,496.544 1676.64,496.421 1680.55,493.972 1682.62,492.72 1682.93,492.508 1687.13,489.709 1690.99,486.941 1691.88,486.329 1696.56,482.841 1701.04,479.735 1713.76,471.857 1716.82,470.109 1720.33,467.866 1742.14,455.538 1745.03,454.042 1748.32,452.09 1764.57,443.179 1770.11,440.341 1773.6,438.584 1783.32,433.813 1786.48,432.288 1786.48,432.287 1794.55,427.811 1795.11,427.462 1795.65,427.124 1804.57,421.168 1805.13,420.763 1813.11,414.772 1816.88,412.204 1818.33,411.254 1820.88,409.398 1823.31,407.492 1829.36,403.076 1840.29,396.024 1846.48,392.405 1869.92,378.745 1877.79,374.672 1878.78,374.168 1903.11,360.963 1916.21,353.593 1920.78,351.179 1922.15,350.466 1925.94,348.524 1933.12,344.93 1949.22,336.091 1949.93,335.722 1955.13,333.062 1962.27,329.501 1963.02,329.061 1965.44,327.462 1978.76,318.521 2003.81,303.312 2007.1,301.557 2008.61,300.767 2009.65,300.225 2022.17,293.89 2030.88,289.647 2051.49,279.883 2057.69,276.498 2058.74,275.935 2059.17,275.711 2061.82,274.089 2064.05,272.56 2067.96,270.003 2078.34,263.758 2081.73,261.563 2098.37,251.873 2102.09,249.571 2102.71,249.141 2106.5,246.27 2109.01,244.254 2109.12,244.155 2110.97,242.41 2114.74,239.059 2115.17,238.649 2124.31,230.198 2125.14,229.435 2132.56,223.171 2137.42,219.126 2138.23,218.412 2154.39,206.278 2155.57,205.403 2156.21,204.929 2159.11,202.876 2161.53,201.015 2166.67,196.888 2168.02,195.864 2181.04,187.056 2181.33,186.872 2193.75,178.797 2196.64,176.831 2210.98,167.103 2216.98,163.531 2235.8,152.21 2238.38,150.807 2247.49,145.339 2250.83,143.168 2268.18,133.073 2275.53,129.195 2277.67,128.094 2279.68,126.896 2281.91,125.593 2289.82,121.17 2298.94,116.361 2299.23,116.184 2308.29,110.95 2308.7,110.685 2318.08,104.967 2321.37,103.088 2327.03,99.9715 2347.69,89.4074 2348.71,88.8164 2352.76,86.1857 "/>
<polyline clip-path="url(#clip461)" style="stroke:#c271d2; stroke-linecap:round; stroke-linejoin:round; stroke-width:4; stroke-opacity:1; fill:none" points="140.696,1384.24 140.696,1384.24 141.769,1383.75 143.552,1382.93 152.284,1378.93 155.836,1377.01 161.407,1374.07 169.964,1369.72 174.048,1367.69 178.476,1365.53 178.739,1365.37 182.924,1363 185.738,1361.46 191.237,1358.07 193.155,1356.93 193.813,1356.49 204.7,1348.88 209.311,1345.98 212.001,1344.37 214.365,1342.98 214.609,1342.84 217.766,1340.77 236.151,1330.04 261.201,1317.35 272.66,1311.87 273.153,1311.63 277.487,1309.23 295.338,1299.97 309.606,1293.02 317.116,1288.86 318.372,1288.19 319.721,1287.47 325.691,1284.36 331.138,1281.6 334.705,1279.82 345.158,1273.97 382.991,1255.17 389.413,1252.15 391.178,1251.32 403.587,1244.67 414.624,1239.11 424.471,1234.31 425.401,1233.78 429.66,1231.41 430.371,1231.02 436.751,1227.61 448.567,1221.59 455.648,1217.56 461.301,1214.49 473.032,1208.44 480.374,1204.81 496.607,1197.01 500.997,1194.58 508.163,1190.76 515.998,1186.75 524.749,1182.41 529.99,1179.87 534.654,1177.25 538.062,1175.39 556.703,1165.84 562.503,1163 571.763,1157.86 606.484,1140.58 610.124,1138.55 614.439,1136.21 632.724,1126.89 640.963,1122.89 642.49,1122.02 642.94,1121.77 648.187,1118.87 650.499,1117.63 653.547,1116.02 659.421,1112.99 667.527,1108.94 680.842,1102.49 681.068,1102.38 684.732,1100.64 684.815,1100.6 685.41,1100.32 696.922,1094.08 701.757,1091.19 704.678,1089.26 713.81,1083.65 731.285,1073 738.574,1069.04 744.556,1065.92 760.03,1057.2 778.943,1046.43 783.672,1043.96 797.432,1037.07 804.389,1033.7 808.401,1031.44 816.634,1027.01 818.22,1026.04 820.601,1024.62 822.924,1023.27 829.801,1019.41 831.323,1018.45 832.571,1017.68 832.655,1017.62 834.767,1016.15 840.101,1012.63 842.88,1010.65 846.577,1008.15 854.102,1003.41 868.174,995.455 875.909,991.409 879.426,989.621 895.288,981.828 901.91,978.139 913.293,971.35 916.543,969.54 921.836,966.683 922.926,966.009 927.123,963.138 940.468,954.961 940.664,954.849 944.164,952.883 947.171,951.236 951.953,948.29 962.493,942.272 964.049,941.427 964.3,941.291 991.832,927.391 1010.86,918.372 1016.27,915.845 1024.45,912.043 1027.07,910.608 1034.55,906.629 1036.03,905.867 1048.04,899.828 1059.59,894.234 1060.37,893.793 1063.5,892.043 1071.25,887.877 1072.01,887.483 1077.78,884.043 1124.25,858.619 1125.25,858.134 1126.69,857.438 1126.81,857.372 1134.48,852.521 1135.11,852.142 1139.08,849.802 1139.89,849.337 1151.13,843.176 1164.86,836.17 1165.71,835.673 1171.38,832.454 1179.32,828.173 1179.68,827.984 1179.82,827.913 1181.78,826.891 1206.17,813.457 1207.19,812.94 1217.15,807.251 1232.28,799.332 1233.07,798.936 1237.82,796.569 1240.62,794.953 1251.74,788.875 1266.68,781.288 1266.73,781.267 1274.81,777.329 1278.3,775.653 1298.64,766.059 1303.15,763.958 1310.14,760.166 1315.58,757.331 1317.13,756.395 1321.6,753.792 1321.85,753.651 1322.47,753.296 1323.32,752.816 1325.98,751.336 1337.06,745.449 1345.2,740.706 1360.66,732.478 1372.76,726.457 1381.19,722.384 1404.83,711.257 1405.18,711.066 1409.26,708.492 1414.02,705.246 1424.98,698.482 1426.86,697.398 1431.48,694.81 1432.77,693.987 1432.89,693.9 1438.58,689.512 1443.79,685.842 1457.08,677.574 1458.93,676.347 1477.09,664.462 1481.93,661.689 1486.47,659.188 1489.24,657.466 1494.42,653.949 1496.41,652.67 1499.65,650.646 1508.52,645.448 1512.83,643.069 1525.86,635.348 1526.94,634.652 1550.89,619.662 1557.9,615.886 1559.03,615.296 1565.96,611.188 1597,595.045 1607.86,589.033 1610.74,587.27 1615.49,584.469 1618.9,582.245 1620.69,580.961 1622.88,579.432 1623.28,579.161 1634.7,571.939 1639.31,569.265 1642.47,567.227 1654.99,558.944 1657.4,557.286 1670.74,548.981 1672.63,547.897 1676.45,545.438 1676.64,545.3 1680.55,542.576 1682.62,541.197 1682.93,540.996 1687.13,538.321 1690.99,535.648 1691.88,534.977 1696.56,531.209 1701.04,527.885 1713.76,519.58 1716.82,517.76 1720.33,515.744 1742.14,504.249 1745.03,502.565 1748.32,500.428 1764.57,489.854 1770.11,486.673 1773.6,484.741 1783.32,479.602 1786.48,477.719 1786.48,477.718 1794.55,472.525 1795.11,472.186 1795.65,471.857 1804.57,466.699 1805.13,466.386 1813.11,462.087 1816.88,460.131 1818.33,459.39 1820.88,458.092 1823.31,456.661 1829.36,452.742 1840.29,446.308 1846.48,442.431 1869.92,429.575 1877.79,425.632 1878.78,425.052 1903.11,412.1 1916.21,404.787 1920.78,402.008 1922.15,401.198 1925.94,399.02 1933.12,395.075 1949.22,386.81 1949.93,386.394 1955.13,383.008 1962.27,378.688 1963.02,378.249 1965.44,376.863 1978.76,369.677 2003.81,357.303 2007.1,355.456 2008.61,354.628 2009.65,354.061 2022.17,347.504 2030.88,342.504 2051.49,330.549 2057.69,327.309 2058.74,326.767 2059.17,326.551 2061.82,325.206 2064.05,324.081 2067.96,322.14 2078.34,317.093 2081.73,315.471 2098.37,307.622 2102.09,305.889 2102.71,305.6 2106.5,303.837 2109.01,302.457 2109.12,302.385 2110.97,301.224 2114.74,298.928 2115.17,298.669 2124.31,292.78 2125.14,292.277 2132.56,287.376 2137.42,284.407 2138.23,283.925 2154.39,275.007 2155.57,274.288 2156.21,273.897 2159.11,271.935 2161.53,270.142 2166.67,266.557 2168.02,265.537 2181.04,256.75 2181.33,256.54 2193.75,247.615 2196.64,245.758 2210.98,237.376 2216.98,234.155 2235.8,224.654 2238.38,223.177 2247.49,218.195 2250.83,216.442 2268.18,206.643 2275.53,202.836 2277.67,201.564 2279.68,200.396 2281.91,198.93 2289.82,193.431 2298.94,187.772 2299.23,187.6 2308.29,181.802 2308.7,181.554 2318.08,175.443 2321.37,173.181 2327.03,169.524 2347.69,157.826 2348.71,157.293 2352.76,155.207 "/>
<polyline clip-path="url(#clip461)" style="stroke:#ac8d18; stroke-linecap:round; stroke-linejoin:round; stroke-width:4; stroke-opacity:1; fill:none" points="140.696,1384.24 140.696,1384.24 141.769,1383.65 143.552,1382.53 152.284,1377.34 155.836,1375.34 161.407,1372.32 169.964,1367.22 174.048,1364.59 178.476,1361.87 178.739,1361.72 182.924,1358.92 185.738,1357.13 191.237,1353.79 193.155,1352.67 193.813,1352.29 204.7,1346.3 209.311,1343.88 212.001,1342.5 214.365,1341.3 214.609,1341.16 217.766,1339.31 236.151,1329.4 261.201,1317.14 272.66,1311.74 273.153,1311.47 277.487,1309.09 295.338,1298.78 309.606,1291.42 317.116,1287.72 318.372,1287.11 319.721,1286.33 325.691,1282.53 331.138,1279.28 334.705,1277.24 345.158,1271.58 382.991,1251.39 389.413,1247.78 391.178,1246.66 403.587,1239.37 414.624,1232.68 424.471,1226.53 425.401,1225.98 429.66,1223.18 430.371,1222.73 436.751,1218.32 448.567,1211.07 455.648,1207.1 461.301,1203.63 473.032,1196.16 480.374,1191.94 496.607,1183.38 500.997,1181.18 508.163,1177.66 515.998,1173.88 524.749,1169.73 529.99,1167.27 534.654,1165.09 538.062,1163.5 556.703,1154.87 562.503,1152.2 571.763,1147.94 606.484,1130.4 610.124,1128.66 614.439,1126.26 632.724,1115.63 640.963,1110.67 642.49,1109.8 642.94,1109.54 648.187,1106.2 650.499,1104.6 653.547,1102.3 659.421,1098.18 667.527,1092.4 680.842,1084.17 681.068,1084.02 684.732,1081.65 684.815,1081.59 685.41,1081.22 696.922,1074.42 701.757,1071.76 704.678,1070.2 713.81,1065.48 731.285,1056.9 738.574,1052.85 744.556,1049.2 760.03,1040.63 778.943,1031.12 783.672,1028.45 797.432,1021.15 804.389,1017.65 808.401,1015.67 816.634,1011.04 818.22,1010.19 820.601,1008.92 822.924,1007.49 829.801,1003.47 831.323,1002.62 832.571,1001.92 832.655,1001.87 834.767,1000.71 840.101,997.86 842.88,996.41 846.577,994.511 854.102,990.738 868.174,982.956 875.909,978.967 879.426,977.199 895.288,968.425 901.91,965.018 913.293,959.371 916.543,957.795 921.836,954.82 922.926,954.223 927.123,951.965 940.468,945.122 940.664,945.024 944.164,943.292 947.171,941.82 951.953,939.502 962.493,934.474 964.049,933.601 964.3,933.461 991.832,919.297 1010.86,910.216 1016.27,907.238 1024.45,902.933 1027.07,901.598 1034.55,897.265 1036.03,896.447 1048.04,890.062 1059.59,883.446 1060.37,883.023 1063.5,881.34 1071.25,876.705 1072.01,876.206 1077.78,872.533 1124.25,848.208 1125.25,847.64 1126.69,846.831 1126.81,846.767 1134.48,842.612 1135.11,842.281 1139.08,839.877 1139.89,839.401 1151.13,832.305 1164.86,823.702 1165.71,823.211 1171.38,819.568 1179.32,814.238 1179.68,814.009 1179.82,813.924 1181.78,812.698 1206.17,799.157 1207.19,798.547 1217.15,792.872 1232.28,784.965 1233.07,784.498 1237.82,781.363 1240.62,779.606 1251.74,772.311 1266.68,763.803 1266.73,763.776 1274.81,758.303 1278.3,756.119 1298.64,744.721 1303.15,742.023 1310.14,738.064 1315.58,735.131 1317.13,734.309 1321.6,731.992 1321.85,731.841 1322.47,731.466 1323.32,730.883 1325.98,728.874 1337.06,721.35 1345.2,716.452 1360.66,708.048 1372.76,701.953 1381.19,697.847 1404.83,686.674 1405.18,686.514 1409.26,684.614 1414.02,682.406 1424.98,677.34 1426.86,676.307 1431.48,673.828 1432.77,673.146 1432.89,673.083 1438.58,670.144 1443.79,667.516 1457.08,661.024 1458.93,660.135 1477.09,651.561 1481.93,648.904 1486.47,646.492 1489.24,645.053 1494.42,642.406 1496.41,641.237 1499.65,639.372 1508.52,633.837 1512.83,630.978 1525.86,623.163 1526.94,622.559 1550.89,610.124 1557.9,606.707 1559.03,606.165 1565.96,602.851 1597,588.347 1607.86,583.333 1610.74,582.01 1615.49,579.431 1618.9,577.628 1620.69,576.698 1622.88,575.567 1623.28,575.328 1634.7,567.999 1639.31,565.295 1642.47,563.509 1654.99,556.819 1657.4,555.586 1670.74,548.964 1672.63,548.048 1676.45,546.208 1676.64,546.116 1680.55,544.247 1682.62,543.264 1682.93,543.118 1687.13,540.782 1690.99,538.694 1691.88,538.223 1696.56,535.776 1701.04,533.112 1713.76,525.208 1716.82,523.455 1720.33,521.208 1742.14,507.588 1745.03,505.997 1748.32,504.23 1764.57,495.926 1770.11,493.213 1773.6,491.521 1783.32,486.883 1786.48,485.391 1786.48,485.39 1794.55,480.978 1795.11,480.633 1795.65,480.299 1804.57,474.389 1805.13,473.986 1813.11,468.023 1816.88,465.466 1818.33,464.391 1820.88,462.554 1823.31,460.875 1829.36,456.929 1840.29,450.462 1846.48,447.068 1869.92,433.864 1877.79,429.865 1878.78,429.369 1903.11,417.633 1916.21,411.502 1920.78,409.376 1922.15,408.739 1925.94,406.983 1933.12,403.666 1949.22,396.253 1949.93,395.927 1955.13,393.54 1962.27,390.263 1963.02,389.848 1965.44,388.534 1978.76,380.712 2003.81,367.812 2007.1,366.211 2008.61,365.483 2009.65,364.982 2022.17,359.017 2030.88,354.933 2051.49,345.37 2057.69,342.513 2058.74,342.026 2059.17,341.832 2061.82,340.612 2064.05,339.387 2067.96,336.965 2078.34,330.983 2081.73,328.85 2098.37,319.361 2102.09,317.088 2102.71,316.661 2106.5,314.134 2109.01,312.532 2109.12,312.461 2110.97,311.152 2114.74,308.588 2115.17,308.261 2124.31,301.907 2125.14,301.37 2132.56,296.797 2137.42,293.59 2138.23,292.999 2154.39,282.58 2155.57,281.893 2156.21,281.46 2159.11,279.576 2161.53,278.051 2166.67,274.526 2168.02,273.64 2181.04,264.897 2181.33,264.715 2193.75,257.547 2196.64,255.978 2210.98,248.581 2216.98,245.619 2235.8,235.429 2238.38,234.119 2247.49,228.906 2250.83,226.806 2268.18,216.947 2275.53,213.126 2277.67,212.038 2279.68,211.027 2281.91,209.913 2289.82,206.028 2298.94,201.643 2299.23,201.477 2308.29,196.52 2308.7,196.303 2318.08,191.461 2321.37,189.812 2327.03,187.02 2347.69,177.136 2348.71,176.565 2352.76,174.005 "/>
<polyline clip-path="url(#clip461)" style="stroke:#00a9ad; stroke-linecap:round; stroke-linejoin:round; stroke-width:4; stroke-opacity:1; fill:none" points="140.696,1384.24 140.696,1384.24 141.769,1383.75 143.552,1382.93 152.284,1378.93 155.836,1377.31 161.407,1374.76 169.964,1370.84 174.048,1368.97 178.476,1366.57 178.739,1366.43 182.924,1363.88 185.738,1362.23 191.237,1359.12 193.155,1358.07 193.813,1357.71 204.7,1352 209.311,1349.67 212.001,1348.1 214.365,1346.54 214.609,1346.36 217.766,1344.1 236.151,1332.66 261.201,1319.59 272.66,1314.03 273.153,1313.79 277.487,1311.73 295.338,1303.35 309.606,1295.77 317.116,1292 318.372,1291.38 319.721,1290.59 325.691,1287.23 331.138,1283.85 334.705,1281.74 345.158,1275.94 382.991,1257.21 389.413,1254.19 391.178,1253.21 403.587,1246.63 414.624,1241.1 424.471,1236.33 425.401,1235.88 429.66,1233.5 430.371,1233.11 436.751,1229.18 448.567,1221.68 455.648,1217.62 461.301,1214.54 473.032,1207.64 480.374,1203.08 496.607,1194.06 500.997,1191.78 508.163,1188.17 515.998,1183.71 524.749,1178.37 529.99,1174.96 534.654,1172.11 538.062,1170.11 556.703,1160.06 562.503,1157.14 571.763,1152.6 606.484,1136.23 610.124,1134.55 614.439,1132.55 632.724,1122.99 640.963,1118.92 642.49,1118.18 642.94,1117.92 648.187,1114.97 650.499,1113.71 653.547,1112.08 659.421,1108.54 667.527,1103.97 680.842,1096.07 681.068,1095.95 684.732,1093.94 684.815,1093.89 685.41,1093.57 696.922,1087.58 701.757,1085.15 704.678,1083.71 713.81,1079.27 731.285,1070.99 738.574,1067.02 744.556,1063.9 760.03,1056.18 778.943,1047.16 783.672,1044.55 797.432,1037.39 804.389,1033.93 808.401,1031.97 816.634,1027.38 818.22,1026.53 820.601,1025.06 822.924,1023.46 829.801,1019.01 831.323,1018.08 832.571,1017.21 832.655,1017.15 834.767,1015.54 840.101,1011.72 842.88,1009.85 846.577,1007.46 854.102,1002.92 868.174,995.194 875.909,991.225 879.426,989.165 895.288,979.522 901.91,975.899 913.293,970.002 916.543,968.098 921.836,965.112 922.926,964.513 927.123,962.249 940.468,955.392 940.664,955.294 944.164,953.56 947.171,951.828 951.953,949.163 962.493,943.587 964.049,942.653 964.3,942.504 991.832,926.294 1010.86,915.556 1016.27,912.752 1024.45,908.642 1027.07,907.356 1034.55,903.135 1036.03,902.204 1048.04,895.131 1059.59,888.951 1060.37,888.551 1063.5,886.949 1071.25,882.473 1072.01,881.987 1077.78,878.398 1124.25,854.324 1125.25,853.757 1126.69,852.95 1126.81,852.887 1134.48,848.741 1135.11,848.41 1139.08,846.01 1139.89,845.535 1151.13,838.446 1164.86,830.789 1165.71,830.339 1171.38,826.937 1179.32,821.855 1179.68,821.602 1179.82,821.509 1181.78,820.163 1206.17,805.751 1207.19,805.212 1217.15,800.089 1232.28,792.666 1233.07,792.217 1237.82,789.566 1240.62,788.05 1251.74,782.266 1266.68,774.902 1266.73,774.881 1274.81,771.014 1278.3,769.362 1298.64,758.627 1303.15,756.011 1310.14,752.15 1315.58,748.833 1317.13,747.917 1321.6,744.994 1321.85,744.813 1322.47,744.363 1323.32,743.758 1325.98,741.685 1337.06,733.963 1345.2,728.97 1360.66,720.459 1372.76,714.319 1381.19,709.55 1404.83,697.432 1405.18,697.264 1409.26,695.282 1414.02,692.994 1424.98,687.004 1426.86,685.853 1431.48,682.742 1432.77,681.905 1432.89,681.828 1438.58,678.308 1443.79,675.261 1457.08,667.14 1458.93,666.09 1477.09,656.486 1481.93,654.068 1486.47,651.46 1489.24,649.921 1494.42,647.116 1496.41,645.895 1499.65,643.678 1508.52,638.077 1512.83,635.193 1525.86,627.328 1526.94,626.721 1550.89,614.246 1557.9,610.824 1559.03,610.181 1565.96,606.343 1597,589.22 1607.86,583.871 1610.74,582.483 1615.49,580.205 1618.9,578.583 1620.69,577.737 1622.88,576.509 1623.28,576.29 1634.7,570.214 1639.31,567.48 1642.47,565.676 1654.99,558.936 1657.4,557.697 1670.74,551.048 1672.63,549.962 1676.45,547.823 1676.64,547.717 1680.55,545.263 1682.62,544.009 1682.93,543.797 1687.13,540.994 1690.99,538.548 1691.88,538.003 1696.56,535.211 1701.04,532.649 1713.76,525.834 1716.82,524.263 1720.33,522.493 1742.14,511.903 1745.03,510.534 1748.32,508.988 1764.57,501.403 1770.11,498.388 1773.6,496.541 1783.32,490.858 1786.48,489.113 1786.48,489.112 1794.55,484.194 1795.11,483.82 1795.65,483.41 1804.57,477.152 1805.13,476.782 1813.11,471.211 1816.88,468.794 1818.33,467.896 1820.88,466.123 1823.31,464.499 1829.36,460.666 1840.29,454.34 1846.48,450.999 1869.92,437.906 1877.79,433.317 1878.78,432.76 1903.11,418.777 1916.21,412.139 1920.78,409.896 1922.15,409.227 1925.94,407.396 1933.12,403.965 1949.22,395.348 1949.93,394.986 1955.13,392.368 1962.27,388.292 1963.02,387.806 1965.44,386.072 1978.76,377.515 2003.81,362.625 2007.1,360.892 2008.61,359.977 2009.65,359.26 2022.17,351.354 2030.88,346.435 2051.49,335.817 2057.69,332.294 2058.74,331.712 2059.17,331.442 2061.82,329.551 2064.05,328.012 2067.96,325.442 2078.34,319.17 2081.73,317.256 2098.37,307.395 2102.09,305.07 2102.71,304.636 2106.5,301.745 2109.01,299.935 2109.12,299.855 2110.97,298.408 2114.74,295.277 2115.17,294.89 2124.31,287.52 2125.14,286.835 2132.56,281.155 2137.42,277.4 2138.23,276.728 2154.39,265.186 2155.57,264.445 2156.21,264.042 2159.11,262.28 2161.53,260.846 2166.67,257.907 2168.02,257.153 2181.04,250.254 2181.33,250.102 2193.75,243.917 2196.64,242.26 2210.98,233.592 2216.98,230.297 2235.8,220.657 2238.38,219.392 2247.49,214.99 2250.83,213.397 2268.18,205.239 2275.53,201.825 2277.67,200.833 2279.68,199.727 2281.91,198.519 2289.82,194.363 2298.94,189.764 2299.23,189.619 2308.29,185.196 2308.7,184.961 2318.08,179.79 2321.37,178.054 2327.03,175.14 2347.69,165.001 2348.71,164.422 2352.76,161.836 "/>
<polyline clip-path="url(#clip461)" style="stroke:#ed5d92; stroke-linecap:round; stroke-linejoin:round; stroke-width:4; stroke-opacity:1; fill:none" points="140.696,1384.24 140.696,1384.24 141.769,1383.65 143.552,1382.68 152.284,1378.1 155.836,1376.3 161.407,1373.52 169.964,1369.34 174.048,1367.38 178.476,1365.27 178.739,1365.14 182.924,1363.16 185.738,1361.6 191.237,1358.62 193.155,1357.61 193.813,1357.27 204.7,1351.72 209.311,1349.07 212.001,1347.56 214.365,1346.27 214.609,1346.13 217.766,1344.44 236.151,1335.1 261.201,1321.77 272.66,1316.16 273.153,1315.92 277.487,1313.84 295.338,1305.43 309.606,1298.8 317.116,1295.33 318.372,1294.75 319.721,1294.13 325.691,1290.9 331.138,1288.06 334.705,1286.24 345.158,1281.05 382.991,1261.5 389.413,1258.43 391.178,1257.6 403.587,1251.76 414.624,1245.83 424.471,1240.11 425.401,1239.59 429.66,1237.27 430.371,1236.89 436.751,1233.55 448.567,1227.62 455.648,1224.17 461.301,1221.46 473.032,1215.92 480.374,1212.49 496.607,1204.96 500.997,1202.93 508.163,1199.63 515.998,1196.03 524.749,1192.01 529.99,1189.61 534.654,1187.47 538.062,1185.9 556.703,1176.2 562.503,1172.87 571.763,1167.86 606.484,1150.78 610.124,1149.07 614.439,1146.68 632.724,1137.24 640.963,1133.21 642.49,1132.47 642.94,1132.25 648.187,1129.31 650.499,1128.05 653.547,1126.16 659.421,1122.69 667.527,1118.18 680.842,1111.27 681.068,1111.13 684.732,1108.69 684.815,1108.63 685.41,1108.13 696.922,1099.58 701.757,1096.42 704.678,1094.6 713.81,1089.26 731.285,1080.02 738.574,1076.39 744.556,1072.99 760.03,1064.83 778.943,1055.55 783.672,1053.3 797.432,1046.83 804.389,1043.04 808.401,1040.93 816.634,1036.74 818.22,1035.95 820.601,1034.77 822.924,1033.62 829.801,1030.29 831.323,1029.55 832.571,1028.95 832.655,1028.91 834.767,1027.91 840.101,1024.94 842.88,1023.44 846.577,1021.48 854.102,1017.62 868.174,1010.69 875.909,1006.99 879.426,1005.32 895.288,997.885 901.91,994.81 913.293,989.549 916.543,988.051 921.836,985.182 922.926,984.604 927.123,982.41 940.468,974.787 940.664,974.663 944.164,972.204 947.171,970.191 951.953,967.149 962.493,960.21 964.049,959.262 964.3,959.11 991.832,944.209 1010.86,934.954 1016.27,931.948 1024.45,926.984 1027.07,925.484 1034.55,921.357 1036.03,920.571 1048.04,913.535 1059.59,906.55 1060.37,906.108 1063.5,904.357 1071.25,900.188 1072.01,899.793 1077.78,896.819 1124.25,874.568 1125.25,874.103 1126.69,873.306 1126.81,873.244 1134.48,869.141 1135.11,868.813 1139.08,866.764 1139.89,866.279 1151.13,859.906 1164.86,851.811 1165.71,851.342 1171.38,848.287 1179.32,844.178 1179.68,843.995 1179.82,843.926 1181.78,842.937 1206.17,831.102 1207.19,830.621 1217.15,825.946 1232.28,817.91 1233.07,817.509 1237.82,815.12 1240.62,813.734 1251.74,808.331 1266.68,801.256 1266.73,801.235 1274.81,796.839 1278.3,794.716 1298.64,783.536 1303.15,781.239 1310.14,777.762 1315.58,775.112 1317.13,774.359 1321.6,772.216 1321.85,772.097 1322.47,771.743 1323.32,771.187 1325.98,769.487 1337.06,762.919 1345.2,758.476 1360.66,750.59 1372.76,743.857 1381.19,739.471 1404.83,726.562 1405.18,726.388 1409.26,724.337 1414.02,721.983 1424.98,716.678 1426.86,715.78 1431.48,713.588 1432.77,712.977 1432.89,712.92 1438.58,710.245 1443.79,707.38 1457.08,700.485 1458.93,699.556 1477.09,690.726 1481.93,688.429 1486.47,686.29 1489.24,684.992 1494.42,682.567 1496.41,681.644 1499.65,680.136 1508.52,675.354 1512.83,673.124 1525.86,666.618 1526.94,666.092 1550.89,654.696 1557.9,651.425 1559.03,650.902 1565.96,647.688 1597,633.391 1607.86,628.404 1610.74,627.086 1615.49,624.514 1618.9,622.716 1620.69,621.788 1622.88,620.659 1623.28,620.421 1634.7,613.1 1639.31,610.398 1642.47,608.614 1654.99,601.928 1657.4,600.696 1670.74,594.076 1672.63,593.159 1676.45,591.32 1676.64,591.228 1680.55,589.359 1682.62,588.195 1682.93,588.024 1687.13,585.372 1690.99,583.043 1691.88,582.522 1696.56,579.842 1701.04,576.995 1713.76,568.736 1716.82,566.661 1720.33,564.393 1742.14,550.697 1745.03,549.101 1748.32,547.328 1764.57,539.007 1770.11,536.289 1773.6,534.595 1783.32,529.953 1786.48,528.46 1786.48,528.46 1794.55,524.667 1795.11,524.407 1795.65,524.154 1804.57,520.004 1805.13,519.742 1813.11,516.047 1816.88,513.99 1818.33,513.087 1820.88,511.527 1823.31,510.084 1829.36,506.625 1840.29,500.764 1846.48,497.603 1869.92,486.204 1877.79,482.494 1878.78,482.028 1903.11,470.728 1916.21,464.694 1920.78,462.592 1922.15,461.96 1925.94,460.219 1933.12,456.924 1949.22,449.541 1949.93,449.216 1955.13,446.834 1962.27,443.564 1963.02,443.217 1965.44,442.108 1978.76,436.009 2003.81,424.537 2007.1,423.03 2008.61,422.341 2009.65,421.865 2022.17,416.129 2030.88,412.143 2051.49,402.706 2057.69,399.868 2058.74,399.29 2059.17,399.06 2061.82,397.633 2064.05,396.445 2067.96,394.081 2078.34,387.45 2081.73,385.451 2098.37,376.391 2102.09,374.49 2102.71,374.176 2106.5,372.272 2109.01,371.028 2109.12,370.972 2110.97,370.063 2114.74,368.222 2115.17,368.01 2124.31,363.623 2125.14,363.228 2132.56,359.716 2137.42,357.436 2138.23,357.055 2154.39,349.547 2155.57,349.002 2156.21,348.643 2159.11,347.066 2161.53,345.77 2166.67,343.077 2168.02,342.38 2181.04,334.973 2181.33,334.813 2193.75,328.357 2196.64,326.905 2210.98,319.908 2216.98,317.05 2235.8,308.22 2238.38,307.022 2247.49,302.802 2250.83,301.26 2268.18,293.272 2275.53,289.898 2277.67,288.915 2279.68,287.994 2281.91,286.971 2289.82,283.343 2298.94,279.162 2299.23,279.028 2308.29,274.877 2308.7,274.689 2318.08,270.391 2321.37,268.885 2327.03,265.836 2347.69,254.179 2348.71,253.647 2352.76,251.565 "/>
<polyline clip-path="url(#clip461)" style="stroke:#c68125; stroke-linecap:round; stroke-linejoin:round; stroke-width:4; stroke-opacity:1; fill:none" points="140.696,1384.24 140.696,1384.24 141.769,1383.75 143.552,1382.93 152.284,1378.93 155.836,1377.31 161.407,1374.76 169.964,1370.84 174.048,1368.97 178.476,1366.94 178.739,1366.8 182.924,1364.18 185.738,1362.5 191.237,1358.88 193.155,1357.68 193.813,1357.27 204.7,1350.15 209.311,1347.4 212.001,1345.86 214.365,1344.53 214.609,1344.37 217.766,1342.1 236.151,1330.63 261.201,1317.54 272.66,1311.98 273.153,1311.75 277.487,1309.32 295.338,1300.01 309.606,1293.04 317.116,1289.46 318.372,1288.86 319.721,1288.11 325.691,1284.85 331.138,1281.98 334.705,1280.15 345.158,1274.94 382.991,1257.03 389.413,1254.05 391.178,1253.08 403.587,1246.55 414.624,1241.06 424.471,1236.3 425.401,1235.77 429.66,1233.05 430.371,1232.61 436.751,1228.3 448.567,1221.16 455.648,1217.24 461.301,1214.25 473.032,1207.46 480.374,1203.53 496.607,1195.33 500.997,1192.83 508.163,1188.93 515.998,1184.85 524.749,1180.47 529.99,1177.91 534.654,1175.27 538.062,1173.4 556.703,1163.81 562.503,1160.97 571.763,1155.82 606.484,1138.53 610.124,1136.5 614.439,1134.16 632.724,1123.7 640.963,1119.42 642.49,1118.64 642.94,1118.41 648.187,1115.79 650.499,1114.65 653.547,1113.16 659.421,1110.32 667.527,1106.46 680.842,1100.2 681.068,1100.1 684.732,1098.39 684.815,1098.35 685.41,1098.07 696.922,1091.92 701.757,1089.45 704.678,1087.73 713.81,1082.63 731.285,1072.53 738.574,1068.13 744.556,1064.75 760.03,1056.61 778.943,1047.34 783.672,1044.7 797.432,1037.47 804.389,1033.99 808.401,1031.69 816.634,1026.55 818.22,1025.47 820.601,1023.9 822.924,1022.21 829.801,1017.55 831.323,1016.58 832.571,1015.8 832.655,1015.74 834.767,1014.25 840.101,1010.7 842.88,1008.71 846.577,1006.19 854.102,1001.42 868.174,993.439 875.909,989.383 879.426,987.591 895.288,978.747 901.91,974.797 913.293,968.522 916.543,966.818 921.836,964.102 922.926,963.453 927.123,961.019 940.468,953.794 940.664,953.692 944.164,951.893 947.171,950.371 951.953,947.986 962.493,942.852 964.049,941.968 964.3,941.826 991.832,927.547 1010.86,918.439 1016.27,915.897 1024.45,912.08 1027.07,910.641 1034.55,906.069 1036.03,905.213 1048.04,898.594 1059.59,892.671 1060.37,892.214 1063.5,890.402 1071.25,885.516 1072.01,884.996 1077.78,880.723 1124.25,852.823 1125.25,852.232 1126.69,851.392 1126.81,851.316 1134.48,845.842 1135.11,845.421 1139.08,842.506 1139.89,841.937 1151.13,833.84 1164.86,825.474 1165.71,824.916 1171.38,820.893 1179.32,815.167 1179.68,814.923 1179.82,814.832 1181.78,813.531 1206.17,799.437 1207.19,798.906 1217.15,793.838 1232.28,786.464 1233.07,786.016 1237.82,783.375 1240.62,781.864 1251.74,776.093 1266.68,768.739 1266.73,768.718 1274.81,764.854 1278.3,763.204 1298.64,753.697 1303.15,751.232 1310.14,747.003 1315.58,743.911 1317.13,742.913 1321.6,740.152 1321.85,739.98 1322.47,739.55 1323.32,738.971 1325.98,736.975 1337.06,729.49 1345.2,724.611 1360.66,716.229 1372.76,710.143 1381.19,706.041 1404.83,694.874 1405.18,694.683 1409.26,692.105 1414.02,688.855 1424.98,682.086 1426.86,680.836 1431.48,677.895 1432.77,676.985 1432.89,676.891 1438.58,672.638 1443.79,669.065 1457.08,660.963 1458.93,659.916 1477.09,650.324 1481.93,647.908 1486.47,645.678 1489.24,644.334 1494.42,641.412 1496.41,640.153 1499.65,638.158 1508.52,633.02 1512.83,630.304 1525.86,621.882 1526.94,621.241 1550.89,608.325 1557.9,604.84 1559.03,604.29 1565.96,600.382 1597,584.654 1607.86,578.695 1610.74,577.189 1615.49,574.748 1618.9,572.738 1620.69,571.554 1622.88,570.137 1623.28,569.886 1634.7,563.092 1639.31,560.538 1642.47,558.569 1654.99,550.482 1657.4,549.059 1670.74,541.685 1672.63,540.693 1676.45,538.399 1676.64,538.269 1680.55,535.686 1682.62,534.372 1682.93,534.18 1687.13,531.619 1690.99,529.033 1691.88,528.38 1696.56,524.696 1701.04,521.437 1713.76,513.261 1716.82,511.462 1720.33,509.467 1742.14,498.05 1745.03,496.372 1748.32,494.24 1764.57,484.742 1770.11,481.784 1773.6,479.965 1783.32,475.064 1786.48,473.238 1786.48,473.237 1794.55,468.159 1795.11,467.776 1795.65,467.406 1804.57,461.689 1805.13,461.348 1813.11,456.1 1816.88,453.801 1818.33,452.943 1820.88,451.455 1823.31,449.864 1829.36,445.612 1840.29,438.763 1846.48,435.223 1869.92,421.722 1877.79,417.675 1878.78,417.084 1903.11,403.977 1916.21,396.628 1920.78,393.841 1922.15,393.029 1925.94,390.846 1933.12,386.893 1949.22,378.618 1949.93,378.266 1955.13,375.714 1962.27,372.265 1963.02,371.835 1965.44,370.476 1978.76,363.395 2003.81,351.109 2007.1,349.548 2008.61,348.837 2009.65,348.347 2022.17,342.481 2030.88,338.439 2051.49,328.93 2057.69,326.081 2058.74,325.596 2059.17,325.402 2061.82,324.185 2064.05,323.157 2067.96,321.364 2078.34,316.604 2081.73,315.051 2098.37,307.422 2102.09,305.406 2102.71,305.019 2106.5,302.708 2109.01,301.013 2109.12,300.927 2110.97,299.395 2114.74,296.429 2115.17,296.06 2124.31,288.298 2125.14,287.659 2132.56,281.747 2137.42,277.876 2138.23,277.187 2154.39,265.409 2155.57,264.552 2156.21,264.087 2159.11,261.823 2161.53,259.806 2166.67,255.817 2168.02,254.826 2181.04,246.241 2181.33,246.061 2193.75,238.105 2196.64,236.407 2210.98,228.568 2216.98,225.489 2235.8,216.251 2238.38,215.02 2247.49,210.708 2250.83,209.14 2268.18,201.066 2275.53,197.672 2277.67,196.684 2279.68,195.759 2281.91,194.538 2289.82,190.346 2298.94,185.719 2299.23,185.574 2308.29,180.45 2308.7,180.226 2318.08,174.57 2321.37,172.707 2327.03,169.614 2347.69,159.097 2348.71,158.508 2352.76,155.882 "/>
<polyline clip-path="url(#clip461)" style="stroke:#00a98d; stroke-linecap:round; stroke-linejoin:round; stroke-width:4; stroke-opacity:1; fill:none" points="140.696,1384.24 140.696,1384.24 141.769,1383.75 143.552,1382.93 152.284,1378.27 155.836,1376.44 161.407,1373.18 169.964,1368.46 174.048,1366.3 178.476,1364.02 178.739,1363.88 182.924,1361.77 185.738,1360.36 191.237,1357.66 193.155,1356.56 193.813,1356.19 204.7,1350.27 209.311,1347.88 212.001,1346.51 214.365,1345.32 214.609,1345.2 217.766,1343.63 236.151,1333.6 261.201,1321.27 272.66,1315.04 273.153,1314.78 277.487,1312.54 295.338,1303.72 309.606,1296.93 317.116,1293.41 318.372,1292.71 319.721,1291.97 325.691,1288.77 331.138,1285.94 334.705,1283.83 345.158,1278.01 382.991,1259.26 389.413,1256.24 391.178,1255.42 403.587,1249.64 414.624,1244.54 424.471,1240 425.401,1239.57 429.66,1237.61 430.371,1237.22 436.751,1233.8 448.567,1227.77 455.648,1224.28 461.301,1221.55 473.032,1215.97 480.374,1212.52 496.607,1203.92 500.997,1201.71 508.163,1197.62 515.998,1193.4 524.749,1188.91 529.99,1186.29 534.654,1184.01 538.062,1182.06 556.703,1172.21 562.503,1169.33 571.763,1164.82 606.484,1148.52 610.124,1146.84 614.439,1144.84 632.724,1136.43 640.963,1132.65 642.49,1131.95 642.94,1131.74 648.187,1129.33 650.499,1128.27 653.547,1126.87 659.421,1124.18 667.527,1120.47 680.842,1114.37 681.068,1114.26 684.732,1112.59 684.815,1112.55 685.41,1112.27 696.922,1107 701.757,1104.79 704.678,1103.45 713.81,1098.58 731.285,1089.84 738.574,1086.33 744.556,1083.49 760.03,1076.23 778.943,1067.47 783.672,1065.29 797.432,1058.02 804.389,1054.53 808.401,1052.56 816.634,1048.57 818.22,1047.81 820.601,1046.68 822.924,1045.57 829.801,1041.78 831.323,1040.97 832.571,1040.31 832.655,1040.27 834.767,1039.16 840.101,1036.41 842.88,1035.01 846.577,1032.85 854.102,1028.09 868.174,1020.1 875.909,1015.44 879.426,1013.44 895.288,1005.01 901.91,1001.68 913.293,996.135 916.543,994.579 921.836,992.062 922.926,991.547 927.123,989.569 940.468,983.335 940.664,983.244 944.164,981.62 947.171,980.227 951.953,978.016 962.493,973.156 964.049,972.44 964.3,972.301 991.832,958.223 1010.86,949.163 1016.27,946.629 1024.45,942.82 1027.07,941.609 1034.55,938.144 1036.03,937.464 1048.04,931.929 1059.59,926.621 1060.37,926.264 1063.5,924.558 1071.25,920.478 1072.01,920.091 1077.78,917.164 1124.25,895.055 1125.25,894.59 1126.69,893.922 1126.81,893.87 1134.48,890.327 1135.11,889.98 1139.08,887.823 1139.89,887.392 1151.13,881.588 1164.86,874.835 1165.71,874.425 1171.38,871.711 1179.32,867.955 1179.68,867.785 1179.82,867.709 1181.78,866.445 1206.17,852.618 1207.19,852.093 1217.15,847.071 1232.28,839.738 1233.07,839.363 1237.82,837.108 1240.62,835.789 1251.74,830.583 1266.68,822.658 1266.73,822.635 1274.81,818.589 1278.3,816.878 1298.64,807.157 1303.15,805.041 1310.14,801.78 1315.58,799.257 1317.13,798.535 1321.6,796.47 1321.85,796.355 1322.47,796.066 1323.32,795.674 1325.98,794.446 1337.06,788.541 1345.2,784.415 1360.66,775.865 1372.76,769.709 1381.19,765.576 1404.83,754.365 1405.18,754.205 1409.26,752.302 1414.02,750.09 1424.98,745.019 1426.86,744.15 1431.48,742.021 1432.77,741.426 1432.89,741.37 1438.58,738.753 1443.79,736.356 1457.08,730.259 1458.93,729.408 1477.09,721.083 1481.93,718.864 1486.47,716.784 1489.24,715.517 1494.42,713.141 1496.41,712.233 1499.65,710.749 1508.52,706.685 1512.83,704.714 1525.86,698.747 1526.94,698.252 1550.89,687.283 1557.9,683.52 1559.03,682.932 1565.96,679.38 1597,664.384 1607.86,659.308 1610.74,657.972 1615.49,655.768 1618.9,654.19 1620.69,653.364 1622.88,652.351 1623.28,652.168 1634.7,646.909 1639.31,644.786 1642.47,643.334 1654.99,637.586 1657.4,636.482 1670.74,629.446 1672.63,628.488 1676.45,626.576 1676.64,626.481 1680.55,624.549 1682.62,623.537 1682.93,623.387 1687.13,621.351 1690.99,619.494 1691.88,619.071 1696.56,616.846 1701.04,614.727 1713.76,608.777 1716.82,607.352 1720.33,605.725 1742.14,595.66 1745.03,594.33 1748.32,592.822 1764.57,585.362 1770.11,582.822 1773.6,580.923 1783.32,575.854 1786.48,574.257 1786.48,574.257 1794.55,570.257 1795.11,569.985 1795.65,569.721 1804.57,565.423 1805.13,565.153 1813.11,561.368 1816.88,559.598 1818.33,558.92 1820.88,557.724 1823.31,556.591 1829.36,553.774 1840.29,547.919 1846.48,544.76 1869.92,533.366 1877.79,529.657 1878.78,529.19 1903.11,517.892 1916.21,511.859 1920.78,509.756 1922.15,509.002 1925.94,506.642 1933.12,501.863 1949.22,492.467 1949.93,492.082 1955.13,489.316 1962.27,485.645 1963.02,485.263 1965.44,484.048 1978.76,477.533 2003.81,465.717 2007.1,464.187 2008.61,463.489 2009.65,463.007 2022.17,456.337 2030.88,451.95 2051.49,442.004 2057.69,439.085 2058.74,438.59 2059.17,438.392 2061.82,437.152 2064.05,436.107 2067.96,434.287 2078.34,429.476 2081.73,427.911 2098.37,420.242 2102.09,418.535 2102.71,418.25 2106.5,416.508 2109.01,415.357 2109.12,415.305 2110.97,414.458 2114.74,412.728 2115.17,412.528 2124.31,408.34 2125.14,407.959 2132.56,404.556 2137.42,402.33 2138.23,401.956 2154.39,393.504 2155.57,392.913 2156.21,392.589 2159.11,391.153 2161.53,389.962 2166.67,387.458 2168.02,386.804 2181.04,380.605 2181.33,380.465 2193.75,374.653 2196.64,373.306 2210.98,366.67 2216.98,363.425 2235.8,353.878 2238.38,352.621 2247.49,348.239 2250.83,346.652 2268.18,338.514 2275.53,334.531 2277.67,333.405 2279.68,332.361 2281.91,331.215 2289.82,327.236 2298.94,322.091 2299.23,321.932 2308.29,317.152 2308.7,316.941 2318.08,312.219 2321.37,310.601 2327.03,307.853 2347.69,298.062 2348.71,297.585 2352.76,295.698 "/>
<polyline clip-path="url(#clip461)" style="stroke:#8e971d; stroke-linecap:round; stroke-linejoin:round; stroke-width:4; stroke-opacity:1; fill:none" points="140.696,1384.24 140.696,1384.24 141.769,1383.75 143.552,1382.93 152.284,1378.93 155.836,1377.01 161.407,1374.07 169.964,1369.72 174.048,1367.69 178.476,1365.53 178.739,1365.37 182.924,1363 185.738,1361.46 191.237,1358.52 193.155,1357.51 193.813,1357.11 204.7,1350.84 209.311,1348.34 212.001,1346.92 214.365,1345.69 214.609,1345.57 217.766,1343.68 236.151,1333.62 261.201,1321.28 272.66,1315.87 273.153,1315.63 277.487,1313.61 295.338,1305.32 309.606,1298.74 317.116,1294.71 318.372,1294.05 319.721,1293.35 325.691,1290.3 331.138,1287.59 334.705,1285.84 345.158,1280.03 382.991,1261.31 389.413,1258.29 391.178,1257.47 403.587,1250.82 414.624,1245.26 424.471,1240.46 425.401,1239.93 429.66,1237.56 430.371,1237.17 436.751,1233.76 448.567,1227.74 455.648,1223.71 461.301,1220.64 473.032,1214.6 480.374,1210.96 496.607,1203.16 500.997,1201.09 508.163,1197.73 515.998,1194.09 524.749,1190.03 529.99,1187.61 534.654,1185.46 538.062,1183.89 556.703,1175.33 562.503,1172.67 571.763,1167.73 606.484,1150.75 610.124,1149.04 614.439,1147.02 632.724,1138.54 640.963,1134.74 642.49,1133.9 642.94,1133.65 648.187,1130.85 650.499,1129.64 653.547,1128.07 659.421,1125.1 667.527,1121.1 680.842,1114.72 681.068,1114.61 684.732,1112.88 684.815,1112.84 685.41,1112.56 696.922,1106.35 701.757,1103.47 704.678,1101.79 713.81,1096.79 731.285,1087.91 738.574,1084.37 744.556,1081.5 760.03,1073.19 778.943,1062.65 783.672,1060.22 797.432,1053.4 804.389,1050.05 808.401,1047.8 816.634,1043.38 818.22,1042.56 820.601,1041.33 822.924,1040.15 829.801,1036.71 831.323,1035.83 832.571,1035.11 832.655,1035.06 834.767,1033.87 840.101,1030.94 842.88,1029.46 846.577,1027.52 854.102,1023.69 868.174,1016.8 875.909,1013.11 879.426,1011.44 895.288,1004.02 901.91,1000.95 913.293,994.878 916.543,993.214 921.836,990.553 922.926,989.915 927.123,987.164 940.468,979.248 940.664,979.139 944.164,977.219 947.171,975.606 951.953,972.706 962.493,966.76 964.049,965.923 964.3,965.788 991.832,951.966 1010.86,942.966 1016.27,940.441 1024.45,936.643 1027.07,935.209 1034.55,931.232 1036.03,930.47 1048.04,924.433 1059.59,918.84 1060.37,918.469 1063.5,916.978 1071.25,913.316 1072.01,912.962 1077.78,910.257 1124.25,888.808 1125.25,888.347 1126.69,887.685 1126.81,887.633 1134.48,884.115 1135.11,883.827 1139.08,882.004 1139.89,881.633 1151.13,876.483 1164.86,870.19 1165.71,869.8 1171.38,867.204 1179.32,863.569 1179.68,863.403 1179.82,863.342 1181.78,862.443 1206.17,849.911 1207.19,849.415 1217.15,843.883 1232.28,836.101 1233.07,835.71 1237.82,833.369 1240.62,831.767 1251.74,825.727 1266.68,818.169 1266.73,818.148 1274.81,814.219 1278.3,812.547 1298.64,802.963 1303.15,800.863 1310.14,797.073 1315.58,794.239 1317.13,793.441 1321.6,791.184 1321.85,791.06 1322.47,790.748 1323.32,790.324 1325.98,789.007 1337.06,783.624 1345.2,779.121 1360.66,771.166 1372.76,765.259 1381.19,761.236 1404.83,750.181 1405.18,750.022 1409.26,747.791 1414.02,744.872 1424.98,738.646 1426.86,737.63 1431.48,735.187 1432.77,734.4 1432.89,734.316 1438.58,730.062 1443.79,726.488 1457.08,718.384 1458.93,717.173 1477.09,705.392 1481.93,702.635 1486.47,700.146 1489.24,698.43 1494.42,695.347 1496.41,694.21 1499.65,692.39 1508.52,687.624 1512.83,685.4 1525.86,678.002 1526.94,677.326 1550.89,662.591 1557.9,658.851 1559.03,658.266 1565.96,654.184 1597,638.091 1607.86,632.086 1610.74,630.324 1615.49,627.525 1618.9,625.302 1620.69,624.175 1622.88,622.824 1623.28,622.583 1634.7,616.036 1639.31,613.552 1642.47,611.623 1654.99,603.648 1657.4,602.031 1670.74,593.891 1672.63,592.824 1676.45,590.394 1676.64,590.275 1680.55,587.902 1682.62,586.685 1682.93,586.507 1687.13,584.115 1690.99,581.985 1691.88,581.425 1696.56,578.565 1701.04,575.951 1713.76,569.032 1716.82,567.444 1720.33,565.657 1742.14,555.004 1745.03,553.383 1748.32,551.586 1764.57,542.125 1770.11,539.174 1773.6,537.359 1783.32,532.466 1786.48,530.643 1786.48,530.642 1794.55,525.567 1795.11,525.235 1795.65,524.913 1804.57,519.841 1805.13,519.532 1813.11,515.284 1816.88,513.346 1818.33,512.612 1820.88,511.324 1823.31,510.112 1829.36,506.647 1840.29,500.777 1846.48,497.118 1869.92,484.703 1877.79,480.831 1878.78,480.258 1903.11,467.413 1916.21,461.032 1920.78,458.469 1922.15,457.717 1925.94,455.679 1933.12,451.941 1949.22,443.959 1949.93,443.552 1955.13,440.22 1962.27,435.956 1963.02,435.522 1965.44,434.151 1978.76,427.022 2003.81,414.698 2007.1,412.854 2008.61,412.027 2009.65,411.461 2022.17,404.911 2030.88,399.915 2051.49,387.964 2057.69,384.724 2058.74,384.183 2059.17,383.967 2061.82,382.622 2064.05,381.497 2067.96,379.556 2078.34,374.509 2081.73,372.888 2098.37,365.039 2102.09,363.306 2102.71,363.018 2106.5,361.255 2109.01,360.092 2109.12,360.04 2110.97,359.184 2114.74,357.44 2115.17,357.238 2124.31,353.024 2125.14,352.642 2132.56,348.646 2137.42,346.125 2138.23,345.709 2154.39,337.709 2155.57,337.14 2156.21,336.827 2159.11,335.191 2161.53,333.85 2166.67,331.079 2168.02,330.243 2181.04,322.763 2181.33,322.575 2193.75,315.218 2196.64,313.619 2210.98,306.116 2216.98,303.126 2235.8,294.051 2238.38,292.61 2247.49,287.724 2250.83,285.998 2268.18,276.288 2275.53,272.502 2277.67,271.236 2279.68,270.072 2281.91,268.61 2289.82,263.124 2298.94,257.474 2299.23,257.302 2308.29,251.511 2308.7,251.263 2318.08,245.157 2321.37,242.895 2327.03,239.24 2347.69,227.545 2348.71,227.012 2352.76,224.927 "/>
<path clip-path="url(#clip460)" d="M214.431 663.349 L554.896 663.349 L554.896 93.1086 L214.431 93.1086  Z" fill="#ffffff" fill-rule="evenodd" fill-opacity="1"/>
<polyline clip-path="url(#clip460)" style="stroke:#000000; stroke-linecap:round; stroke-linejoin:round; stroke-width:4; stroke-opacity:1; fill:none" points="214.431,663.349 554.896,663.349 554.896,93.1086 214.431,93.1086 214.431,663.349 "/>
<polyline clip-path="url(#clip460)" style="stroke:#009af9; stroke-linecap:round; stroke-linejoin:round; stroke-width:4; stroke-opacity:1; fill:none" points="239.009,144.949 386.48,144.949 "/>
<path clip-path="url(#clip460)" d="M411.058 151.997 L411.058 136.303 L415.318 136.303 L415.318 151.835 Q415.318 155.516 416.753 157.368 Q418.188 159.196 421.058 159.196 Q424.507 159.196 426.498 156.997 Q428.512 154.798 428.512 151.002 L428.512 136.303 L432.771 136.303 L432.771 162.229 L428.512 162.229 L428.512 158.247 Q426.961 160.608 424.901 161.766 Q422.864 162.9 420.156 162.9 Q415.688 162.9 413.373 160.122 Q411.058 157.344 411.058 151.997 M421.776 135.678 L421.776 135.678 Z" fill="#000000" fill-rule="nonzero" fill-opacity="1" /><path clip-path="url(#clip460)" d="M441.151 126.21 L450.966 126.21 L450.966 129.52 L445.41 129.52 L445.41 165.168 L450.966 165.168 L450.966 168.479 L441.151 168.479 L441.151 126.21 Z" fill="#000000" fill-rule="nonzero" fill-opacity="1" /><path clip-path="url(#clip460)" d="M461.452 158.293 L469.091 158.293 L469.091 131.928 L460.78 133.595 L460.78 129.335 L469.044 127.669 L473.72 127.669 L473.72 158.293 L481.359 158.293 L481.359 162.229 L461.452 162.229 L461.452 158.293 Z" fill="#000000" fill-rule="nonzero" fill-opacity="1" /><path clip-path="url(#clip460)" d="M500.155 126.21 L500.155 168.479 L490.34 168.479 L490.34 165.168 L495.873 165.168 L495.873 129.52 L490.34 129.52 L490.34 126.21 L500.155 126.21 Z" fill="#000000" fill-rule="nonzero" fill-opacity="1" /><polyline clip-path="url(#clip460)" style="stroke:#e26f46; stroke-linecap:round; stroke-linejoin:round; stroke-width:4; stroke-opacity:1; fill:none" points="239.009,196.789 386.48,196.789 "/>
<path clip-path="url(#clip460)" d="M411.058 203.837 L411.058 188.143 L415.318 188.143 L415.318 203.675 Q415.318 207.356 416.753 209.208 Q418.188 211.036 421.058 211.036 Q424.507 211.036 426.498 208.837 Q428.512 206.638 428.512 202.842 L428.512 188.143 L432.771 188.143 L432.771 214.069 L428.512 214.069 L428.512 210.087 Q426.961 212.448 424.901 213.606 Q422.864 214.74 420.156 214.74 Q415.688 214.74 413.373 211.962 Q411.058 209.184 411.058 203.837 M421.776 187.518 L421.776 187.518 Z" fill="#000000" fill-rule="nonzero" fill-opacity="1" /><path clip-path="url(#clip460)" d="M441.151 178.05 L450.966 178.05 L450.966 181.36 L445.41 181.36 L445.41 217.008 L450.966 217.008 L450.966 220.319 L441.151 220.319 L441.151 178.05 Z" fill="#000000" fill-rule="nonzero" fill-opacity="1" /><path clip-path="url(#clip460)" d="M464.669 210.133 L480.989 210.133 L480.989 214.069 L459.044 214.069 L459.044 210.133 Q461.706 207.379 466.29 202.749 Q470.896 198.096 472.077 196.754 Q474.322 194.231 475.202 192.495 Q476.104 190.735 476.104 189.046 Q476.104 186.291 474.16 184.555 Q472.239 182.819 469.137 182.819 Q466.938 182.819 464.484 183.583 Q462.054 184.347 459.276 185.897 L459.276 181.175 Q462.1 180.041 464.554 179.462 Q467.007 178.884 469.044 178.884 Q474.415 178.884 477.609 181.569 Q480.803 184.254 480.803 188.745 Q480.803 190.874 479.993 192.796 Q479.206 194.694 477.1 197.286 Q476.521 197.958 473.419 201.175 Q470.317 204.37 464.669 210.133 Z" fill="#000000" fill-rule="nonzero" fill-opacity="1" /><path clip-path="url(#clip460)" d="M500.155 178.05 L500.155 220.319 L490.34 220.319 L490.34 217.008 L495.873 217.008 L495.873 181.36 L490.34 181.36 L490.34 178.05 L500.155 178.05 Z" fill="#000000" fill-rule="nonzero" fill-opacity="1" /><polyline clip-path="url(#clip460)" style="stroke:#3da44d; stroke-linecap:round; stroke-linejoin:round; stroke-width:4; stroke-opacity:1; fill:none" points="239.009,248.629 386.48,248.629 "/>
<path clip-path="url(#clip460)" d="M411.058 255.677 L411.058 239.983 L415.318 239.983 L415.318 255.515 Q415.318 259.196 416.753 261.048 Q418.188 262.876 421.058 262.876 Q424.507 262.876 426.498 260.677 Q428.512 258.478 428.512 254.682 L428.512 239.983 L432.771 239.983 L432.771 265.909 L428.512 265.909 L428.512 261.927 Q426.961 264.288 424.901 265.446 Q422.864 266.58 420.156 266.58 Q415.688 266.58 413.373 263.802 Q411.058 261.024 411.058 255.677 M421.776 239.358 L421.776 239.358 Z" fill="#000000" fill-rule="nonzero" fill-opacity="1" /><path clip-path="url(#clip460)" d="M441.151 229.89 L450.966 229.89 L450.966 233.2 L445.41 233.2 L445.41 268.848 L450.966 268.848 L450.966 272.159 L441.151 272.159 L441.151 229.89 Z" fill="#000000" fill-rule="nonzero" fill-opacity="1" /><path clip-path="url(#clip460)" d="M474.808 247.274 Q478.165 247.992 480.04 250.261 Q481.938 252.529 481.938 255.862 Q481.938 260.978 478.419 263.779 Q474.901 266.58 468.419 266.58 Q466.243 266.58 463.929 266.14 Q461.637 265.723 459.183 264.867 L459.183 260.353 Q461.128 261.487 463.442 262.066 Q465.757 262.645 468.28 262.645 Q472.679 262.645 474.97 260.909 Q477.285 259.173 477.285 255.862 Q477.285 252.807 475.132 251.094 Q473.003 249.358 469.183 249.358 L465.155 249.358 L465.155 245.515 L469.368 245.515 Q472.817 245.515 474.646 244.149 Q476.475 242.761 476.475 240.168 Q476.475 237.506 474.577 236.094 Q472.702 234.659 469.183 234.659 Q467.262 234.659 465.063 235.075 Q462.864 235.492 460.225 236.372 L460.225 232.205 Q462.887 231.464 465.202 231.094 Q467.54 230.724 469.6 230.724 Q474.924 230.724 478.026 233.154 Q481.128 235.562 481.128 239.682 Q481.128 242.552 479.484 244.543 Q477.841 246.511 474.808 247.274 Z" fill="#000000" fill-rule="nonzero" fill-opacity="1" /><path clip-path="url(#clip460)" d="M500.155 229.89 L500.155 272.159 L490.34 272.159 L490.34 268.848 L495.873 268.848 L495.873 233.2 L490.34 233.2 L490.34 229.89 L500.155 229.89 Z" fill="#000000" fill-rule="nonzero" fill-opacity="1" /><polyline clip-path="url(#clip460)" style="stroke:#c271d2; stroke-linecap:round; stroke-linejoin:round; stroke-width:4; stroke-opacity:1; fill:none" points="239.009,300.469 386.48,300.469 "/>
<path clip-path="url(#clip460)" d="M411.058 307.517 L411.058 291.823 L415.318 291.823 L415.318 307.355 Q415.318 311.036 416.753 312.888 Q418.188 314.716 421.058 314.716 Q424.507 314.716 426.498 312.517 Q428.512 310.318 428.512 306.522 L428.512 291.823 L432.771 291.823 L432.771 317.749 L428.512 317.749 L428.512 313.767 Q426.961 316.128 424.901 317.286 Q422.864 318.42 420.156 318.42 Q415.688 318.42 413.373 315.642 Q411.058 312.864 411.058 307.517 M421.776 291.198 L421.776 291.198 Z" fill="#000000" fill-rule="nonzero" fill-opacity="1" /><path clip-path="url(#clip460)" d="M441.151 281.73 L450.966 281.73 L450.966 285.04 L445.41 285.04 L445.41 320.688 L450.966 320.688 L450.966 323.999 L441.151 323.999 L441.151 281.73 Z" fill="#000000" fill-rule="nonzero" fill-opacity="1" /><path clip-path="url(#clip460)" d="M473.489 287.263 L461.683 305.712 L473.489 305.712 L473.489 287.263 M472.262 283.189 L478.141 283.189 L478.141 305.712 L483.072 305.712 L483.072 309.601 L478.141 309.601 L478.141 317.749 L473.489 317.749 L473.489 309.601 L457.887 309.601 L457.887 305.087 L472.262 283.189 Z" fill="#000000" fill-rule="nonzero" fill-opacity="1" /><path clip-path="url(#clip460)" d="M500.155 281.73 L500.155 323.999 L490.34 323.999 L490.34 320.688 L495.873 320.688 L495.873 285.04 L490.34 285.04 L490.34 281.73 L500.155 281.73 Z" fill="#000000" fill-rule="nonzero" fill-opacity="1" /><polyline clip-path="url(#clip460)" style="stroke:#ac8d18; stroke-linecap:round; stroke-linejoin:round; stroke-width:4; stroke-opacity:1; fill:none" points="239.009,352.309 386.48,352.309 "/>
<path clip-path="url(#clip460)" d="M411.058 359.357 L411.058 343.663 L415.318 343.663 L415.318 359.195 Q415.318 362.876 416.753 364.728 Q418.188 366.556 421.058 366.556 Q424.507 366.556 426.498 364.357 Q428.512 362.158 428.512 358.362 L428.512 343.663 L432.771 343.663 L432.771 369.589 L428.512 369.589 L428.512 365.607 Q426.961 367.968 424.901 369.126 Q422.864 370.26 420.156 370.26 Q415.688 370.26 413.373 367.482 Q411.058 364.704 411.058 359.357 M421.776 343.038 L421.776 343.038 Z" fill="#000000" fill-rule="nonzero" fill-opacity="1" /><path clip-path="url(#clip460)" d="M441.151 333.57 L450.966 333.57 L450.966 336.88 L445.41 336.88 L445.41 372.528 L450.966 372.528 L450.966 375.839 L441.151 375.839 L441.151 333.57 Z" fill="#000000" fill-rule="nonzero" fill-opacity="1" /><path clip-path="url(#clip460)" d="M460.688 335.029 L479.044 335.029 L479.044 338.964 L464.97 338.964 L464.97 347.436 Q465.989 347.089 467.007 346.927 Q468.026 346.742 469.044 346.742 Q474.831 346.742 478.211 349.913 Q481.591 353.084 481.591 358.501 Q481.591 364.079 478.118 367.181 Q474.646 370.26 468.327 370.26 Q466.151 370.26 463.882 369.89 Q461.637 369.519 459.23 368.778 L459.23 364.079 Q461.313 365.214 463.535 365.769 Q465.757 366.325 468.234 366.325 Q472.239 366.325 474.577 364.218 Q476.915 362.112 476.915 358.501 Q476.915 354.89 474.577 352.783 Q472.239 350.677 468.234 350.677 Q466.359 350.677 464.484 351.093 Q462.632 351.51 460.688 352.39 L460.688 335.029 Z" fill="#000000" fill-rule="nonzero" fill-opacity="1" /><path clip-path="url(#clip460)" d="M500.155 333.57 L500.155 375.839 L490.34 375.839 L490.34 372.528 L495.873 372.528 L495.873 336.88 L490.34 336.88 L490.34 333.57 L500.155 333.57 Z" fill="#000000" fill-rule="nonzero" fill-opacity="1" /><polyline clip-path="url(#clip460)" style="stroke:#00a9ad; stroke-linecap:round; stroke-linejoin:round; stroke-width:4; stroke-opacity:1; fill:none" points="239.009,404.149 386.48,404.149 "/>
<path clip-path="url(#clip460)" d="M411.058 411.197 L411.058 395.503 L415.318 395.503 L415.318 411.035 Q415.318 414.716 416.753 416.568 Q418.188 418.396 421.058 418.396 Q424.507 418.396 426.498 416.197 Q428.512 413.998 428.512 410.202 L428.512 395.503 L432.771 395.503 L432.771 421.429 L428.512 421.429 L428.512 417.447 Q426.961 419.808 424.901 420.966 Q422.864 422.1 420.156 422.1 Q415.688 422.1 413.373 419.322 Q411.058 416.544 411.058 411.197 M421.776 394.878 L421.776 394.878 Z" fill="#000000" fill-rule="nonzero" fill-opacity="1" /><path clip-path="url(#clip460)" d="M441.151 385.41 L450.966 385.41 L450.966 388.72 L445.41 388.72 L445.41 424.368 L450.966 424.368 L450.966 427.679 L441.151 427.679 L441.151 385.41 Z" fill="#000000" fill-rule="nonzero" fill-opacity="1" /><path clip-path="url(#clip460)" d="M471.22 402.285 Q468.072 402.285 466.22 404.438 Q464.392 406.591 464.392 410.341 Q464.392 414.068 466.22 416.243 Q468.072 418.396 471.22 418.396 Q474.368 418.396 476.197 416.243 Q478.049 414.068 478.049 410.341 Q478.049 406.591 476.197 404.438 Q474.368 402.285 471.22 402.285 M480.503 387.633 L480.503 391.892 Q478.743 391.058 476.938 390.619 Q475.155 390.179 473.396 390.179 Q468.766 390.179 466.313 393.304 Q463.882 396.429 463.535 402.748 Q464.901 400.734 466.961 399.669 Q469.021 398.582 471.498 398.582 Q476.706 398.582 479.716 401.753 Q482.748 404.901 482.748 410.341 Q482.748 415.665 479.6 418.882 Q476.452 422.1 471.22 422.1 Q465.225 422.1 462.054 417.517 Q458.882 412.91 458.882 404.183 Q458.882 395.989 462.771 391.128 Q466.66 386.244 473.211 386.244 Q474.97 386.244 476.753 386.591 Q478.558 386.938 480.503 387.633 Z" fill="#000000" fill-rule="nonzero" fill-opacity="1" /><path clip-path="url(#clip460)" d="M500.155 385.41 L500.155 427.679 L490.34 427.679 L490.34 424.368 L495.873 424.368 L495.873 388.72 L490.34 388.72 L490.34 385.41 L500.155 385.41 Z" fill="#000000" fill-rule="nonzero" fill-opacity="1" /><polyline clip-path="url(#clip460)" style="stroke:#ed5d92; stroke-linecap:round; stroke-linejoin:round; stroke-width:4; stroke-opacity:1; fill:none" points="239.009,455.989 386.48,455.989 "/>
<path clip-path="url(#clip460)" d="M411.058 463.037 L411.058 447.343 L415.318 447.343 L415.318 462.875 Q415.318 466.556 416.753 468.408 Q418.188 470.236 421.058 470.236 Q424.507 470.236 426.498 468.037 Q428.512 465.838 428.512 462.042 L428.512 447.343 L432.771 447.343 L432.771 473.269 L428.512 473.269 L428.512 469.287 Q426.961 471.648 424.901 472.806 Q422.864 473.94 420.156 473.94 Q415.688 473.94 413.373 471.162 Q411.058 468.384 411.058 463.037 M421.776 446.718 L421.776 446.718 Z" fill="#000000" fill-rule="nonzero" fill-opacity="1" /><path clip-path="url(#clip460)" d="M441.151 437.25 L450.966 437.25 L450.966 440.56 L445.41 440.56 L445.41 476.208 L450.966 476.208 L450.966 479.519 L441.151 479.519 L441.151 437.25 Z" fill="#000000" fill-rule="nonzero" fill-opacity="1" /><path clip-path="url(#clip460)" d="M459.461 438.709 L481.683 438.709 L481.683 440.699 L469.137 473.269 L464.253 473.269 L476.058 442.644 L459.461 442.644 L459.461 438.709 Z" fill="#000000" fill-rule="nonzero" fill-opacity="1" /><path clip-path="url(#clip460)" d="M500.155 437.25 L500.155 479.519 L490.34 479.519 L490.34 476.208 L495.873 476.208 L495.873 440.56 L490.34 440.56 L490.34 437.25 L500.155 437.25 Z" fill="#000000" fill-rule="nonzero" fill-opacity="1" /><polyline clip-path="url(#clip460)" style="stroke:#c68125; stroke-linecap:round; stroke-linejoin:round; stroke-width:4; stroke-opacity:1; fill:none" points="239.009,507.829 386.48,507.829 "/>
<path clip-path="url(#clip460)" d="M411.058 514.877 L411.058 499.183 L415.318 499.183 L415.318 514.715 Q415.318 518.396 416.753 520.248 Q418.188 522.076 421.058 522.076 Q424.507 522.076 426.498 519.877 Q428.512 517.678 428.512 513.882 L428.512 499.183 L432.771 499.183 L432.771 525.109 L428.512 525.109 L428.512 521.127 Q426.961 523.488 424.901 524.646 Q422.864 525.78 420.156 525.78 Q415.688 525.78 413.373 523.002 Q411.058 520.224 411.058 514.877 M421.776 498.558 L421.776 498.558 Z" fill="#000000" fill-rule="nonzero" fill-opacity="1" /><path clip-path="url(#clip460)" d="M441.151 489.09 L450.966 489.09 L450.966 492.4 L445.41 492.4 L445.41 528.048 L450.966 528.048 L450.966 531.359 L441.151 531.359 L441.151 489.09 Z" fill="#000000" fill-rule="nonzero" fill-opacity="1" /><path clip-path="url(#clip460)" d="M470.641 508.697 Q467.308 508.697 465.387 510.479 Q463.489 512.261 463.489 515.386 Q463.489 518.511 465.387 520.294 Q467.308 522.076 470.641 522.076 Q473.975 522.076 475.896 520.294 Q477.817 518.488 477.817 515.386 Q477.817 512.261 475.896 510.479 Q473.998 508.697 470.641 508.697 M465.966 506.706 Q462.956 505.965 461.267 503.905 Q459.6 501.845 459.6 498.882 Q459.6 494.738 462.54 492.331 Q465.503 489.924 470.641 489.924 Q475.803 489.924 478.743 492.331 Q481.683 494.738 481.683 498.882 Q481.683 501.845 479.993 503.905 Q478.327 505.965 475.341 506.706 Q478.72 507.493 480.595 509.785 Q482.493 512.076 482.493 515.386 Q482.493 520.41 479.415 523.095 Q476.359 525.78 470.641 525.78 Q464.924 525.78 461.845 523.095 Q458.79 520.41 458.79 515.386 Q458.79 512.076 460.688 509.785 Q462.586 507.493 465.966 506.706 M464.253 499.322 Q464.253 502.007 465.919 503.512 Q467.609 505.016 470.641 505.016 Q473.651 505.016 475.341 503.512 Q477.053 502.007 477.053 499.322 Q477.053 496.637 475.341 495.132 Q473.651 493.627 470.641 493.627 Q467.609 493.627 465.919 495.132 Q464.253 496.637 464.253 499.322 Z" fill="#000000" fill-rule="nonzero" fill-opacity="1" /><path clip-path="url(#clip460)" d="M500.155 489.09 L500.155 531.359 L490.34 531.359 L490.34 528.048 L495.873 528.048 L495.873 492.4 L490.34 492.4 L490.34 489.09 L500.155 489.09 Z" fill="#000000" fill-rule="nonzero" fill-opacity="1" /><polyline clip-path="url(#clip460)" style="stroke:#00a98d; stroke-linecap:round; stroke-linejoin:round; stroke-width:4; stroke-opacity:1; fill:none" points="239.009,559.669 386.48,559.669 "/>
<path clip-path="url(#clip460)" d="M411.058 566.717 L411.058 551.023 L415.318 551.023 L415.318 566.555 Q415.318 570.236 416.753 572.088 Q418.188 573.916 421.058 573.916 Q424.507 573.916 426.498 571.717 Q428.512 569.518 428.512 565.722 L428.512 551.023 L432.771 551.023 L432.771 576.949 L428.512 576.949 L428.512 572.967 Q426.961 575.328 424.901 576.486 Q422.864 577.62 420.156 577.62 Q415.688 577.62 413.373 574.842 Q411.058 572.064 411.058 566.717 M421.776 550.398 L421.776 550.398 Z" fill="#000000" fill-rule="nonzero" fill-opacity="1" /><path clip-path="url(#clip460)" d="M441.151 540.93 L450.966 540.93 L450.966 544.24 L445.41 544.24 L445.41 579.888 L450.966 579.888 L450.966 583.199 L441.151 583.199 L441.151 540.93 Z" fill="#000000" fill-rule="nonzero" fill-opacity="1" /><path clip-path="url(#clip460)" d="M460.78 576.231 L460.78 571.972 Q462.54 572.805 464.345 573.245 Q466.151 573.685 467.887 573.685 Q472.516 573.685 474.947 570.583 Q477.401 567.458 477.748 561.115 Q476.405 563.106 474.345 564.171 Q472.285 565.236 469.785 565.236 Q464.6 565.236 461.567 562.111 Q458.558 558.963 458.558 553.523 Q458.558 548.199 461.706 544.981 Q464.854 541.764 470.086 541.764 Q476.081 541.764 479.229 546.37 Q482.401 550.953 482.401 559.703 Q482.401 567.875 478.512 572.759 Q474.646 577.62 468.095 577.62 Q466.336 577.62 464.53 577.273 Q462.725 576.925 460.78 576.231 M470.086 561.578 Q473.234 561.578 475.063 559.426 Q476.915 557.273 476.915 553.523 Q476.915 549.796 475.063 547.643 Q473.234 545.467 470.086 545.467 Q466.938 545.467 465.086 547.643 Q463.257 549.796 463.257 553.523 Q463.257 557.273 465.086 559.426 Q466.938 561.578 470.086 561.578 Z" fill="#000000" fill-rule="nonzero" fill-opacity="1" /><path clip-path="url(#clip460)" d="M500.155 540.93 L500.155 583.199 L490.34 583.199 L490.34 579.888 L495.873 579.888 L495.873 544.24 L490.34 544.24 L490.34 540.93 L500.155 540.93 Z" fill="#000000" fill-rule="nonzero" fill-opacity="1" /><polyline clip-path="url(#clip460)" style="stroke:#8e971d; stroke-linecap:round; stroke-linejoin:round; stroke-width:4; stroke-opacity:1; fill:none" points="239.009,611.509 386.48,611.509 "/>
<path clip-path="url(#clip460)" d="M411.058 618.557 L411.058 602.863 L415.318 602.863 L415.318 618.395 Q415.318 622.076 416.753 623.928 Q418.188 625.756 421.058 625.756 Q424.507 625.756 426.498 623.557 Q428.512 621.358 428.512 617.562 L428.512 602.863 L432.771 602.863 L432.771 628.789 L428.512 628.789 L428.512 624.807 Q426.961 627.168 424.901 628.326 Q422.864 629.46 420.156 629.46 Q415.688 629.46 413.373 626.682 Q411.058 623.904 411.058 618.557 M421.776 602.238 L421.776 602.238 Z" fill="#000000" fill-rule="nonzero" fill-opacity="1" /><path clip-path="url(#clip460)" d="M441.151 592.77 L450.966 592.77 L450.966 596.08 L445.41 596.08 L445.41 631.728 L450.966 631.728 L450.966 635.039 L441.151 635.039 L441.151 592.77 Z" fill="#000000" fill-rule="nonzero" fill-opacity="1" /><path clip-path="url(#clip460)" d="M461.452 624.853 L469.091 624.853 L469.091 598.488 L460.78 600.155 L460.78 595.895 L469.044 594.229 L473.72 594.229 L473.72 624.853 L481.359 624.853 L481.359 628.789 L461.452 628.789 L461.452 624.853 Z" fill="#000000" fill-rule="nonzero" fill-opacity="1" /><path clip-path="url(#clip460)" d="M500.803 597.307 Q497.192 597.307 495.364 600.872 Q493.558 604.414 493.558 611.543 Q493.558 618.65 495.364 622.215 Q497.192 625.756 500.803 625.756 Q504.438 625.756 506.243 622.215 Q508.072 618.65 508.072 611.543 Q508.072 604.414 506.243 600.872 Q504.438 597.307 500.803 597.307 M500.803 593.604 Q506.614 593.604 509.669 598.21 Q512.748 602.793 512.748 611.543 Q512.748 620.27 509.669 624.877 Q506.614 629.46 500.803 629.46 Q494.993 629.46 491.915 624.877 Q488.859 620.27 488.859 611.543 Q488.859 602.793 491.915 598.21 Q494.993 593.604 500.803 593.604 Z" fill="#000000" fill-rule="nonzero" fill-opacity="1" /><path clip-path="url(#clip460)" d="M530.317 592.77 L530.317 635.039 L520.502 635.039 L520.502 631.728 L526.035 631.728 L526.035 596.08 L520.502 596.08 L520.502 592.77 L530.317 592.77 Z" fill="#000000" fill-rule="nonzero" fill-opacity="1" /></svg>
