<?xml version="1.0" encoding="utf-8"?>
<svg xmlns="http://www.w3.org/2000/svg" xmlns:xlink="http://www.w3.org/1999/xlink" width="600" height="400" viewBox="0 0 2400 1600">
<defs>
  <clipPath id="clip500">
    <rect x="0" y="0" width="2400" height="1600"/>
  </clipPath>
</defs>
<path clip-path="url(#clip500)" d="M0 1600 L2400 1600 L2400 0 L0 0  Z" fill="#ffffff" fill-rule="evenodd" fill-opacity="1"/>
<defs>
  <clipPath id="clip501">
    <rect x="140" y="47" width="2213" height="1377"/>
  </clipPath>
</defs>
<path clip-path="url(#clip500)" d="M140.696 1423.18 L2352.76 1423.18 L2352.76 47.2441 L140.696 47.2441  Z" fill="#ffffff" fill-rule="evenodd" fill-opacity="1"/>
<polyline clip-path="url(#clip501)" style="stroke:#000000; stroke-linecap:round; stroke-linejoin:round; stroke-width:2; stroke-opacity:0.1; fill:none" points="573.807,1423.18 573.807,47.2441 "/>
<polyline clip-path="url(#clip501)" style="stroke:#000000; stroke-linecap:round; stroke-linejoin:round; stroke-width:2; stroke-opacity:0.1; fill:none" points="1020.55,1423.18 1020.55,47.2441 "/>
<polyline clip-path="url(#clip501)" style="stroke:#000000; stroke-linecap:round; stroke-linejoin:round; stroke-width:2; stroke-opacity:0.1; fill:none" points="1467.29,1423.18 1467.29,47.2441 "/>
<polyline clip-path="url(#clip501)" style="stroke:#000000; stroke-linecap:round; stroke-linejoin:round; stroke-width:2; stroke-opacity:0.1; fill:none" points="1914.04,1423.18 1914.04,47.2441 "/>
<polyline clip-path="url(#clip501)" style="stroke:#000000; stroke-linecap:round; stroke-linejoin:round; stroke-width:2; stroke-opacity:0.1; fill:none" points="140.696,1389.97 2352.76,1389.97 "/>
<polyline clip-path="url(#clip501)" style="stroke:#000000; stroke-linecap:round; stroke-linejoin:round; stroke-width:2; stroke-opacity:0.1; fill:none" points="140.696,1014.47 2352.76,1014.47 "/>
<polyline clip-path="url(#clip501)" style="stroke:#000000; stroke-linecap:round; stroke-linejoin:round; stroke-width:2; stroke-opacity:0.1; fill:none" points="140.696,638.979 2352.76,638.979 "/>
<polyline clip-path="url(#clip501)" style="stroke:#000000; stroke-linecap:round; stroke-linejoin:round; stroke-width:2; stroke-opacity:0.1; fill:none" points="140.696,263.485 2352.76,263.485 "/>
<polyline clip-path="url(#clip500)" style="stroke:#000000; stroke-linecap:round; stroke-linejoin:round; stroke-width:4; stroke-opacity:1; fill:none" points="140.696,1423.18 2352.76,1423.18 "/>
<polyline clip-path="url(#clip500)" style="stroke:#000000; stroke-linecap:round; stroke-linejoin:round; stroke-width:4; stroke-opacity:1; fill:none" points="573.807,1423.18 573.807,1404.28 "/>
<polyline clip-path="url(#clip500)" style="stroke:#000000; stroke-linecap:round; stroke-linejoin:round; stroke-width:4; stroke-opacity:1; fill:none" points="1020.55,1423.18 1020.55,1404.28 "/>
<polyline clip-path="url(#clip500)" style="stroke:#000000; stroke-linecap:round; stroke-linejoin:round; stroke-width:4; stroke-opacity:1; fill:none" points="1467.29,1423.18 1467.29,1404.28 "/>
<polyline clip-path="url(#clip500)" style="stroke:#000000; stroke-linecap:round; stroke-linejoin:round; stroke-width:4; stroke-opacity:1; fill:none" points="1914.04,1423.18 1914.04,1404.28 "/>
<path clip-path="url(#clip500)" d="M548.495 1481.64 L556.134 1481.64 L556.134 1455.28 L547.824 1456.95 L547.824 1452.69 L556.088 1451.02 L560.763 1451.02 L560.763 1481.64 L568.402 1481.64 L568.402 1485.58 L548.495 1485.58 L548.495 1481.64 Z" fill="#000000" fill-rule="nonzero" fill-opacity="1" /><path clip-path="url(#clip500)" d="M587.847 1454.1 Q584.236 1454.1 582.407 1457.66 Q580.601 1461.2 580.601 1468.33 Q580.601 1475.44 582.407 1479.01 Q584.236 1482.55 587.847 1482.55 Q591.481 1482.55 593.286 1479.01 Q595.115 1475.44 595.115 1468.33 Q595.115 1461.2 593.286 1457.66 Q591.481 1454.1 587.847 1454.1 M587.847 1450.39 Q593.657 1450.39 596.712 1455 Q599.791 1459.58 599.791 1468.33 Q599.791 1477.06 596.712 1481.67 Q593.657 1486.25 587.847 1486.25 Q582.036 1486.25 578.958 1481.67 Q575.902 1477.06 575.902 1468.33 Q575.902 1459.58 578.958 1455 Q582.036 1450.39 587.847 1450.39 Z" fill="#000000" fill-rule="nonzero" fill-opacity="1" /><path clip-path="url(#clip500)" d="M999.323 1481.64 L1015.64 1481.64 L1015.64 1485.58 L993.699 1485.58 L993.699 1481.64 Q996.361 1478.89 1000.94 1474.26 Q1005.55 1469.61 1006.73 1468.27 Q1008.98 1465.74 1009.86 1464.01 Q1010.76 1462.25 1010.76 1460.56 Q1010.76 1457.8 1008.81 1456.07 Q1006.89 1454.33 1003.79 1454.33 Q1001.59 1454.33 999.138 1455.09 Q996.708 1455.86 993.93 1457.41 L993.93 1452.69 Q996.754 1451.55 999.208 1450.97 Q1001.66 1450.39 1003.7 1450.39 Q1009.07 1450.39 1012.26 1453.08 Q1015.46 1455.77 1015.46 1460.26 Q1015.46 1462.39 1014.65 1464.31 Q1013.86 1466.2 1011.75 1468.8 Q1011.18 1469.47 1008.07 1472.69 Q1004.97 1475.88 999.323 1481.64 Z" fill="#000000" fill-rule="nonzero" fill-opacity="1" /><path clip-path="url(#clip500)" d="M1035.46 1454.1 Q1031.85 1454.1 1030.02 1457.66 Q1028.21 1461.2 1028.21 1468.33 Q1028.21 1475.44 1030.02 1479.01 Q1031.85 1482.55 1035.46 1482.55 Q1039.09 1482.55 1040.9 1479.01 Q1042.73 1475.44 1042.73 1468.33 Q1042.73 1461.2 1040.9 1457.66 Q1039.09 1454.1 1035.46 1454.1 M1035.46 1450.39 Q1041.27 1450.39 1044.32 1455 Q1047.4 1459.58 1047.4 1468.33 Q1047.4 1477.06 1044.32 1481.67 Q1041.27 1486.25 1035.46 1486.25 Q1029.65 1486.25 1026.57 1481.67 Q1023.51 1477.06 1023.51 1468.33 Q1023.51 1459.58 1026.57 1455 Q1029.65 1450.39 1035.46 1450.39 Z" fill="#000000" fill-rule="nonzero" fill-opacity="1" /><path clip-path="url(#clip500)" d="M1456.14 1466.95 Q1459.49 1467.66 1461.37 1469.93 Q1463.27 1472.2 1463.27 1475.53 Q1463.27 1480.65 1459.75 1483.45 Q1456.23 1486.25 1449.75 1486.25 Q1447.57 1486.25 1445.26 1485.81 Q1442.96 1485.39 1440.51 1484.54 L1440.51 1480.02 Q1442.46 1481.16 1444.77 1481.74 Q1447.08 1482.32 1449.61 1482.32 Q1454.01 1482.32 1456.3 1480.58 Q1458.61 1478.84 1458.61 1475.53 Q1458.61 1472.48 1456.46 1470.77 Q1454.33 1469.03 1450.51 1469.03 L1446.48 1469.03 L1446.48 1465.19 L1450.7 1465.19 Q1454.15 1465.19 1455.97 1463.82 Q1457.8 1462.43 1457.8 1459.84 Q1457.8 1457.18 1455.9 1455.77 Q1454.03 1454.33 1450.51 1454.33 Q1448.59 1454.33 1446.39 1454.75 Q1444.19 1455.16 1441.55 1456.04 L1441.55 1451.88 Q1444.21 1451.14 1446.53 1450.77 Q1448.87 1450.39 1450.93 1450.39 Q1456.25 1450.39 1459.35 1452.83 Q1462.46 1455.23 1462.46 1459.35 Q1462.46 1462.22 1460.81 1464.21 Q1459.17 1466.18 1456.14 1466.95 Z" fill="#000000" fill-rule="nonzero" fill-opacity="1" /><path clip-path="url(#clip500)" d="M1482.13 1454.1 Q1478.52 1454.1 1476.69 1457.66 Q1474.89 1461.2 1474.89 1468.33 Q1474.89 1475.44 1476.69 1479.01 Q1478.52 1482.55 1482.13 1482.55 Q1485.77 1482.55 1487.57 1479.01 Q1489.4 1475.44 1489.4 1468.33 Q1489.4 1461.2 1487.57 1457.66 Q1485.77 1454.1 1482.13 1454.1 M1482.13 1450.39 Q1487.94 1450.39 1491 1455 Q1494.08 1459.58 1494.08 1468.33 Q1494.08 1477.06 1491 1481.67 Q1487.94 1486.25 1482.13 1486.25 Q1476.32 1486.25 1473.24 1481.67 Q1470.19 1477.06 1470.19 1468.33 Q1470.19 1459.58 1473.24 1455 Q1476.32 1450.39 1482.13 1450.39 Z" fill="#000000" fill-rule="nonzero" fill-opacity="1" /><path clip-path="url(#clip500)" d="M1902.21 1455.09 L1890.4 1473.54 L1902.21 1473.54 L1902.21 1455.09 M1900.98 1451.02 L1906.86 1451.02 L1906.86 1473.54 L1911.79 1473.54 L1911.79 1477.43 L1906.86 1477.43 L1906.86 1485.58 L1902.21 1485.58 L1902.21 1477.43 L1886.61 1477.43 L1886.61 1472.92 L1900.98 1451.02 Z" fill="#000000" fill-rule="nonzero" fill-opacity="1" /><path clip-path="url(#clip500)" d="M1929.52 1454.1 Q1925.91 1454.1 1924.08 1457.66 Q1922.28 1461.2 1922.28 1468.33 Q1922.28 1475.44 1924.08 1479.01 Q1925.91 1482.55 1929.52 1482.55 Q1933.16 1482.55 1934.96 1479.01 Q1936.79 1475.44 1936.79 1468.33 Q1936.79 1461.2 1934.96 1457.66 Q1933.16 1454.1 1929.52 1454.1 M1929.52 1450.39 Q1935.33 1450.39 1938.39 1455 Q1941.47 1459.58 1941.47 1468.33 Q1941.47 1477.06 1938.39 1481.67 Q1935.33 1486.25 1929.52 1486.25 Q1923.71 1486.25 1920.63 1481.67 Q1917.58 1477.06 1917.58 1468.33 Q1917.58 1459.58 1920.63 1455 Q1923.71 1450.39 1929.52 1450.39 Z" fill="#000000" fill-rule="nonzero" fill-opacity="1" /><path clip-path="url(#clip500)" d="M1245.79 1522.27 L1245.79 1532.4 L1257.85 1532.4 L1257.85 1536.95 L1245.79 1536.95 L1245.79 1556.3 Q1245.79 1560.66 1246.96 1561.9 Q1248.17 1563.14 1251.83 1563.14 L1257.85 1563.14 L1257.85 1568.04 L1251.83 1568.04 Q1245.05 1568.04 1242.48 1565.53 Q1239.9 1562.98 1239.9 1556.3 L1239.9 1536.95 L1235.6 1536.95 L1235.6 1532.4 L1239.9 1532.4 L1239.9 1522.27 L1245.79 1522.27 Z" fill="#000000" fill-rule="nonzero" fill-opacity="1" /><polyline clip-path="url(#clip500)" style="stroke:#000000; stroke-linecap:round; stroke-linejoin:round; stroke-width:4; stroke-opacity:1; fill:none" points="140.696,1423.18 140.696,47.2441 "/>
<polyline clip-path="url(#clip500)" style="stroke:#000000; stroke-linecap:round; stroke-linejoin:round; stroke-width:4; stroke-opacity:1; fill:none" points="140.696,1389.97 159.593,1389.97 "/>
<polyline clip-path="url(#clip500)" style="stroke:#000000; stroke-linecap:round; stroke-linejoin:round; stroke-width:4; stroke-opacity:1; fill:none" points="140.696,1014.47 159.593,1014.47 "/>
<polyline clip-path="url(#clip500)" style="stroke:#000000; stroke-linecap:round; stroke-linejoin:round; stroke-width:4; stroke-opacity:1; fill:none" points="140.696,638.979 159.593,638.979 "/>
<polyline clip-path="url(#clip500)" style="stroke:#000000; stroke-linecap:round; stroke-linejoin:round; stroke-width:4; stroke-opacity:1; fill:none" points="140.696,263.485 159.593,263.485 "/>
<path clip-path="url(#clip500)" d="M92.7512 1375.77 Q89.1401 1375.77 87.3114 1379.33 Q85.5058 1382.87 85.5058 1390 Q85.5058 1397.11 87.3114 1400.67 Q89.1401 1404.21 92.7512 1404.21 Q96.3854 1404.21 98.1909 1400.67 Q100.02 1397.11 100.02 1390 Q100.02 1382.87 98.1909 1379.33 Q96.3854 1375.77 92.7512 1375.77 M92.7512 1372.06 Q98.5613 1372.06 101.617 1376.67 Q104.696 1381.25 104.696 1390 Q104.696 1398.73 101.617 1403.33 Q98.5613 1407.92 92.7512 1407.92 Q86.941 1407.92 83.8623 1403.33 Q80.8068 1398.73 80.8068 1390 Q80.8068 1381.25 83.8623 1376.67 Q86.941 1372.06 92.7512 1372.06 Z" fill="#000000" fill-rule="nonzero" fill-opacity="1" /><path clip-path="url(#clip500)" d="M53.3995 1027.82 L61.0384 1027.82 L61.0384 1001.45 L52.7282 1003.12 L52.7282 998.859 L60.9921 997.193 L65.668 997.193 L65.668 1027.82 L73.3068 1027.82 L73.3068 1031.75 L53.3995 1031.75 L53.3995 1027.82 Z" fill="#000000" fill-rule="nonzero" fill-opacity="1" /><path clip-path="url(#clip500)" d="M92.7512 1000.27 Q89.1401 1000.27 87.3114 1003.84 Q85.5058 1007.38 85.5058 1014.51 Q85.5058 1021.61 87.3114 1025.18 Q89.1401 1028.72 92.7512 1028.72 Q96.3854 1028.72 98.1909 1025.18 Q100.02 1021.61 100.02 1014.51 Q100.02 1007.38 98.1909 1003.84 Q96.3854 1000.27 92.7512 1000.27 M92.7512 996.568 Q98.5613 996.568 101.617 1001.17 Q104.696 1005.76 104.696 1014.51 Q104.696 1023.23 101.617 1027.84 Q98.5613 1032.42 92.7512 1032.42 Q86.941 1032.42 83.8623 1027.84 Q80.8068 1023.23 80.8068 1014.51 Q80.8068 1005.76 83.8623 1001.17 Q86.941 996.568 92.7512 996.568 Z" fill="#000000" fill-rule="nonzero" fill-opacity="1" /><path clip-path="url(#clip500)" d="M56.6171 652.324 L72.9365 652.324 L72.9365 656.259 L50.9921 656.259 L50.9921 652.324 Q53.6541 649.569 58.2375 644.939 Q62.8439 640.287 64.0245 638.944 Q66.2698 636.421 67.1494 634.685 Q68.0522 632.926 68.0522 631.236 Q68.0522 628.481 66.1078 626.745 Q64.1865 625.009 61.0847 625.009 Q58.8856 625.009 56.4319 625.773 Q54.0014 626.537 51.2236 628.088 L51.2236 623.365 Q54.0477 622.231 56.5014 621.652 Q58.955 621.074 60.9921 621.074 Q66.3624 621.074 69.5568 623.759 Q72.7513 626.444 72.7513 630.935 Q72.7513 633.064 71.9411 634.986 Q71.1541 636.884 69.0476 639.476 Q68.4689 640.148 65.367 643.365 Q62.2652 646.56 56.6171 652.324 Z" fill="#000000" fill-rule="nonzero" fill-opacity="1" /><path clip-path="url(#clip500)" d="M92.7512 624.777 Q89.1401 624.777 87.3114 628.342 Q85.5058 631.884 85.5058 639.014 Q85.5058 646.12 87.3114 649.685 Q89.1401 653.226 92.7512 653.226 Q96.3854 653.226 98.1909 649.685 Q100.02 646.12 100.02 639.014 Q100.02 631.884 98.1909 628.342 Q96.3854 624.777 92.7512 624.777 M92.7512 621.074 Q98.5613 621.074 101.617 625.68 Q104.696 630.264 104.696 639.014 Q104.696 647.74 101.617 652.347 Q98.5613 656.93 92.7512 656.93 Q86.941 656.93 83.8623 652.347 Q80.8068 647.74 80.8068 639.014 Q80.8068 630.264 83.8623 625.68 Q86.941 621.074 92.7512 621.074 Z" fill="#000000" fill-rule="nonzero" fill-opacity="1" /><path clip-path="url(#clip500)" d="M66.7559 262.131 Q70.1124 262.848 71.9874 265.117 Q73.8855 267.385 73.8855 270.719 Q73.8855 275.834 70.367 278.635 Q66.8485 281.436 60.3671 281.436 Q58.1912 281.436 55.8764 280.996 Q53.5847 280.58 51.131 279.723 L51.131 275.209 Q53.0754 276.343 55.3903 276.922 Q57.7051 277.501 60.2282 277.501 Q64.6263 277.501 66.918 275.765 Q69.2328 274.029 69.2328 270.719 Q69.2328 267.663 67.08 265.95 Q64.9504 264.214 61.131 264.214 L57.1032 264.214 L57.1032 260.371 L61.3161 260.371 Q64.7652 260.371 66.5939 259.006 Q68.4226 257.617 68.4226 255.024 Q68.4226 252.362 66.5245 250.95 Q64.6495 249.515 61.131 249.515 Q59.2097 249.515 57.0106 249.932 Q54.8115 250.348 52.1727 251.228 L52.1727 247.061 Q54.8347 246.321 57.1495 245.95 Q59.4875 245.58 61.5476 245.58 Q66.8717 245.58 69.9735 248.01 Q73.0753 250.418 73.0753 254.538 Q73.0753 257.408 71.4318 259.399 Q69.7883 261.367 66.7559 262.131 Z" fill="#000000" fill-rule="nonzero" fill-opacity="1" /><path clip-path="url(#clip500)" d="M92.7512 249.283 Q89.1401 249.283 87.3114 252.848 Q85.5058 256.39 85.5058 263.519 Q85.5058 270.626 87.3114 274.191 Q89.1401 277.732 92.7512 277.732 Q96.3854 277.732 98.1909 274.191 Q100.02 270.626 100.02 263.519 Q100.02 256.39 98.1909 252.848 Q96.3854 249.283 92.7512 249.283 M92.7512 245.58 Q98.5613 245.58 101.617 250.186 Q104.696 254.77 104.696 263.519 Q104.696 272.246 101.617 276.853 Q98.5613 281.436 92.7512 281.436 Q86.941 281.436 83.8623 276.853 Q80.8068 272.246 80.8068 263.519 Q80.8068 254.77 83.8623 250.186 Q86.941 245.58 92.7512 245.58 Z" fill="#000000" fill-rule="nonzero" fill-opacity="1" /><polyline clip-path="url(#clip501)" style="stroke:#009af9; stroke-linecap:round; stroke-linejoin:round; stroke-width:4; stroke-opacity:1; fill:none" points="140.696,1384.24 140.696,1384.24 142.693,1383.4 148.156,1381.1 148.213,1381.08 160.736,1375.82 174.384,1370.08 194.936,1360.31 195.203,1360.19 205.615,1355.54 208.257,1354.17 233.631,1340.82 249.891,1333.33 256.314,1330.48 256.609,1330.35 257.315,1330.04 264.099,1327.07 268.35,1325.23 269.748,1324.62 281,1319.79 322.057,1302.41 326.593,1300.5 328.122,1299.73 332.942,1297.36 333.066,1297.29 340.484,1293.25 351.753,1287.58 354.807,1286.11 363.924,1281.23 366.011,1280.17 380.824,1272.12 384.306,1270.38 398.97,1263.42 401.408,1262.3 404.748,1260.53 414.158,1255.79 414.582,1255.55 421.066,1251.99 448.477,1237.39 449.01,1237.14 453.879,1234.85 463.933,1230.26 478.919,1223.65 480.103,1223.13 486.806,1219.75 491.106,1217.66 567.296,1184.35 568.29,1183.93 569.649,1183.35 574.132,1181.46 576.446,1180.3 604.253,1166.05 610.671,1163.1 611.695,1162.63 613.836,1161.67 627.528,1155.6 629.674,1154.67 646.723,1147.32 664.388,1138.79 669.177,1136.6 669.767,1136.33 676.198,1133.45 688.623,1127.99 696.191,1124.72 702.117,1122.18 705.13,1120.89 709.553,1119.01 711.159,1118.33 724.347,1112.73 726.947,1111.63 729.782,1110.44 740.938,1105.73 742.992,1104.86 746.4,1103.16 747.649,1102.44 752.758,1099.62 757.425,1097.16 761.171,1095.25 761.79,1094.94 761.838,1094.92 768.309,1091.28 773.397,1088.59 780.336,1084.6 789.019,1079.99 799.459,1074.85 800.936,1074.15 801.679,1073.74 801.932,1073.6 809.094,1069.79 829.897,1059.76 831.549,1059.01 843.651,1053.6 858.134,1047.29 865.75,1043.48 869.556,1041.35 885.959,1032 888.885,1030.49 889.032,1030.4 897.906,1025.42 898.402,1025.15 907.203,1020.63 913.517,1017.09 921.745,1012.23 925.288,1010 934.782,1004.52 935.766,1003.9 939.641,1001.56 957.547,990.916 957.786,990.789 962.593,987.919 981.838,977.789 995.187,971.507 1012.12,963.954 1017.71,961.521 1026.03,957.929 1031.83,955.443 1037.38,953.076 1038.6,952.458 1044.77,949.408 1046.64,948.506 1057.95,943.227 1059.78,942.248 1062.44,940.642 1063.53,940 1066.92,938.06 1067.95,937.487 1071.98,935.294 1075.15,933.628 1078.67,931.834 1084.82,928.8 1089.26,926.679 1097.7,922.768 1097.92,922.666 1105.35,919.319 1106.61,918.758 1113.47,915.735 1116.49,914.417 1117.68,913.899 1133.18,907.222 1141.52,903.665 1145.52,901.965 1179.57,887.583 1180.99,886.986 1186.64,884.187 1190.13,882.506 1191.34,881.933 1196.84,879.364 1200.4,877.452 1203.15,876.016 1203.5,875.838 1204.55,875.303 1204.57,875.29 1209.35,872.535 1210.7,871.784 1219.59,867.083 1222.34,865.699 1222.7,865.494 1224.92,864.222 1226.43,863.374 1226.99,863.068 1228.56,862.209 1235.89,858.359 1236.13,858.237 1239.04,856.776 1239.47,856.563 1241.22,855.557 1248.73,851.462 1251.78,849.883 1260.74,845.437 1268.47,841.786 1273.89,839.301 1289.77,832.239 1290.85,831.766 1295.03,829.948 1296.59,829.146 1299.6,827.628 1308.89,823.121 1309.84,822.672 1329.09,813.936 1344.45,807.244 1345.99,806.582 1353.29,803.45 1363.05,799.292 1365.84,798.108 1377.32,793.248 1378.49,792.752 1380.39,791.799 1383.66,789.927 1392.19,785.342 1413.19,775.206 1425.46,769.694 1452.72,757.894 1456.44,756.307 1465.25,752.566 1471.87,749.28 1494.03,739.051 1504.32,734.529 1516.26,729.37 1517.77,728.724 1523.15,726.423 1538.63,719.841 1546.43,716.544 1555.94,712.527 1556.23,712.384 1561.4,709.817 1574.8,703.511 1584.4,699.19 1601.05,691.914 1606.09,689.366 1606.67,689.076 1608.09,688.265 1609.61,687.405 1611.02,686.626 1630.93,676.541 1641.03,671.861 1649.95,667.861 1653.68,666.218 1661.33,662.879 1667.79,660.086 1667.79,660.084 1672.52,657.698 1677.1,655.106 1677.58,654.841 1683.15,651.873 1685.19,650.656 1685.74,650.333 1695.48,644.947 1698.08,643.596 1710.26,637.594 1721.1,632.568 1727.52,629.686 1746.64,621.325 1780.55,606.89 1781.09,606.659 1799.69,598.812 1808.07,595.286 1820.83,589.915 1834.01,583.535 1834.84,583.083 1842.45,579.068 1853.14,573.1 1870.78,564.377 1871.33,564.115 1874.84,562.487 1875.76,561.991 1887.1,555.41 1900.01,547.955 1905.35,545.162 1916.94,539.467 1926.14,535.189 1929.19,533.806 1933.91,531.687 1959.39,520.595 1966.18,517.694 1967.31,517.21 1970.26,515.956 1971.61,515.383 1994.86,505.543 1998.57,503.69 2007.85,499.238 2025.06,491.433 2034.06,487.485 2035.32,486.937 2043.22,483.522 2047.81,481.555 2050.66,480.334 2050.84,480.257 2062.19,474.678 2066.66,472.238 2069.96,470.246 2085.85,461.624 2088.26,460.23 2089.87,459.323 2099.62,454.117 2109.21,449.377 2124.07,442.495 2124.09,442.485 2125.1,442.028 2131.06,439.374 2157.1,428.092 2158.8,427.364 2161.56,425.971 2167.07,423.265 2171.01,421.08 2171.81,420.645 2176,418.111 2176.22,417.982 2177.58,417.191 2177.98,416.96 2179.56,416.062 2185.58,412.778 2240.87,385.586 2243.53,384.427 2274.22,371.286 2279.03,369.248 2284.41,366.975 2285.84,366.37 2291.19,364.112 2291.95,363.792 2297.85,360.868 2301.03,359.334 2308.49,355.838 2310.34,354.986 2318.07,351.492 2319.85,350.699 2322.35,349.592 2332.19,345.279 2341.69,340.528 2352.56,335.408 2352.76,335.302 "/>
<polyline clip-path="url(#clip501)" style="stroke:#e26f46; stroke-linecap:round; stroke-linejoin:round; stroke-width:4; stroke-opacity:1; fill:none" points="140.696,1384.24 140.696,1384.24 142.693,1383.24 148.156,1380.57 148.213,1380.54 160.736,1373.9 174.384,1366.46 194.936,1356.61 195.203,1356.49 205.615,1351.82 208.257,1350.66 233.631,1339.69 249.891,1332.78 256.314,1330.07 256.609,1329.94 257.315,1329.64 264.099,1326.78 268.35,1324.66 269.748,1323.87 281,1317.85 322.057,1298.94 326.593,1296.98 328.122,1296.32 332.942,1294.25 333.066,1294.2 340.484,1290.49 351.753,1285.17 354.807,1283.53 363.924,1278.89 366.011,1277.87 380.824,1270.94 384.306,1269.36 398.97,1261.99 401.408,1260.83 404.748,1259.26 414.158,1254.96 414.582,1254.77 421.066,1251.88 448.477,1240.01 449.01,1239.74 453.879,1236.94 463.933,1231.59 478.919,1224.33 480.103,1223.69 486.806,1220.16 491.106,1218 567.296,1182.54 568.29,1182.12 569.649,1181.54 574.132,1179.64 576.446,1178.66 604.253,1166.92 610.671,1164.21 611.695,1163.78 613.836,1162.88 627.528,1157.12 629.674,1156.22 646.723,1148.05 664.388,1140.14 669.177,1138.05 669.767,1137.8 676.198,1135.02 688.623,1129.69 696.191,1126.48 702.117,1123.96 705.13,1122.69 709.553,1120.82 711.159,1120.14 724.347,1113.74 726.947,1112.53 729.782,1111.22 740.938,1106.21 742.992,1105.3 746.4,1103.8 747.649,1103.25 752.758,1101.03 757.425,1099.01 761.171,1097.11 761.79,1096.75 761.838,1096.72 768.309,1092.63 773.397,1089.28 780.336,1085.1 789.019,1079.73 799.459,1073.99 800.936,1073.22 801.679,1072.84 801.932,1072.71 809.094,1069.14 829.897,1058.37 831.549,1057.58 843.651,1051.98 858.134,1045.55 865.75,1042.24 869.556,1040.6 885.959,1033.59 888.885,1032.12 889.032,1032.05 897.906,1027.75 898.402,1027.52 907.203,1023.45 913.517,1020.61 921.745,1016.97 925.288,1015.42 934.782,1010.66 935.766,1010.19 939.641,1008.34 957.547,1000.17 957.786,1000.06 962.593,997.943 981.838,989.614 995.187,983.924 1012.12,975.759 1017.71,973.206 1026.03,969.483 1031.83,966.932 1037.38,964.102 1038.6,963.497 1044.77,960.049 1046.64,959.045 1057.95,953.309 1059.78,952.423 1062.44,951.15 1063.53,950.544 1066.92,948.705 1067.95,948.076 1071.98,945.685 1075.15,943.886 1078.67,941.692 1084.82,938.093 1089.26,935.65 1097.7,931.279 1097.92,931.168 1105.35,927.54 1106.61,926.94 1113.47,923.739 1116.49,922.121 1117.68,921.496 1133.18,913.835 1141.52,909.973 1145.52,907.855 1179.57,891.803 1180.99,891.177 1186.64,888.7 1190.13,886.91 1191.34,886.302 1196.84,883.599 1200.4,881.893 1203.15,880.596 1203.5,880.405 1204.55,879.833 1204.57,879.821 1209.35,877.278 1210.7,876.47 1219.59,871.463 1222.34,870.006 1222.7,869.822 1224.92,868.673 1226.43,867.903 1226.99,867.624 1228.56,866.838 1235.89,863.269 1236.13,863.154 1239.04,861.781 1239.47,861.58 1241.22,860.762 1248.73,856.789 1251.78,855.249 1260.74,850.891 1268.47,847.292 1273.89,844.834 1289.77,837.823 1290.85,837.353 1295.03,835.542 1296.59,834.869 1299.6,833.34 1308.89,828.166 1309.84,827.664 1329.09,818.213 1344.45,810.327 1345.99,809.461 1353.29,805.526 1363.05,799.969 1365.84,798.485 1377.32,791.964 1378.49,791.343 1380.39,790.352 1383.66,788.676 1392.19,783.892 1413.19,773.496 1425.46,767.913 1452.72,756.045 1456.44,754.165 1465.25,749.899 1471.87,746.815 1494.03,736.956 1504.32,732.514 1516.26,727.412 1517.77,726.771 1523.15,724.486 1538.63,717.934 1546.43,714.646 1555.94,710.636 1556.23,710.516 1561.4,708.336 1574.8,701.851 1584.4,696.798 1601.05,687.82 1606.09,685.34 1606.67,685.009 1608.09,684.217 1609.61,683.376 1611.02,682.5 1630.93,671.526 1641.03,666.621 1649.95,662.492 1653.68,660.809 1661.33,657.405 1667.79,654.572 1667.79,654.57 1672.52,652.519 1677.1,650.54 1677.58,650.332 1683.15,647.944 1685.19,647.07 1685.74,646.79 1695.48,641.992 1698.08,640.554 1710.26,634.252 1721.1,629.067 1727.52,625.653 1746.64,616.372 1780.55,599.94 1781.09,599.65 1799.69,589.398 1808.07,585.293 1820.83,579.368 1834.01,573.505 1834.84,573.144 1842.45,569.288 1853.14,564.184 1870.78,555.204 1871.33,554.936 1874.84,553.005 1875.76,552.512 1887.1,546.715 1900.01,540.605 1905.35,538.177 1916.94,533.03 1926.14,529.023 1929.19,527.708 1933.91,525.678 1959.39,513.564 1966.18,510.538 1967.31,510.036 1970.26,508.74 1971.61,508.151 1994.86,498.131 1998.57,496.55 2007.85,492.61 2025.06,485.34 2034.06,481.545 2035.32,481.013 2043.22,477.685 2047.81,475.756 2050.66,474.555 2050.84,474.479 2062.19,469.705 2066.66,467.827 2069.96,466.44 2085.85,459.756 2088.26,458.745 2089.87,458.07 2099.62,453.307 2109.21,448.85 2124.07,442.223 2124.09,442.212 2125.1,441.601 2131.06,438.168 2157.1,425.131 2158.8,424.345 2161.56,423.085 2167.07,420.599 2171.01,418.845 2171.81,418.489 2176,416.644 2176.22,416.549 2177.58,415.842 2177.98,415.635 2179.56,414.828 2185.58,411.391 2240.87,385.469 2243.53,384.323 2274.22,371.26 2279.03,369.227 2284.41,366.958 2285.84,366.238 2291.19,363.208 2291.95,362.793 2297.85,359.665 2301.03,358.042 2308.49,354.379 2310.34,353.494 2318.07,349.887 2319.85,349.074 2322.35,347.939 2332.19,343.546 2341.69,339.395 2352.56,334.712 2352.76,334.628 "/>
<polyline clip-path="url(#clip501)" style="stroke:#3da44d; stroke-linecap:round; stroke-linejoin:round; stroke-width:4; stroke-opacity:1; fill:none" points="140.696,1384.24 140.696,1384.24 142.693,1383.4 148.156,1380.7 148.213,1380.66 160.736,1373.97 174.384,1367.36 194.936,1356.97 195.203,1356.82 205.615,1350.63 208.257,1348.97 233.631,1335.33 249.891,1326.79 256.314,1323.23 256.609,1323.04 257.315,1322.55 264.099,1317.61 268.35,1314.81 269.748,1313.92 281,1306.64 322.057,1286.11 326.593,1283.74 328.122,1282.97 332.942,1280.21 333.066,1280.13 340.484,1275.63 351.753,1268.76 354.807,1267.06 363.924,1262.27 366.011,1261.06 380.824,1253.17 384.306,1251.18 398.97,1243.52 401.408,1242.13 404.748,1240.29 414.158,1234.77 414.582,1234.53 421.066,1230.59 448.477,1216.52 449.01,1216.27 453.879,1214.02 463.933,1208.82 478.919,1200.76 480.103,1200.17 486.806,1196.41 491.106,1193.8 567.296,1158.14 568.29,1157.64 569.649,1156.84 574.132,1153.97 576.446,1152.37 604.253,1135.29 610.671,1131.57 611.695,1130.92 613.836,1129.42 627.528,1120.07 629.674,1118.6 646.723,1108.46 664.388,1098.59 669.177,1095.83 669.767,1095.45 676.198,1091.05 688.623,1082.86 696.191,1077.99 702.117,1074.09 705.13,1072 709.553,1068.78 711.159,1067.54 724.347,1058.64 726.947,1056.88 729.782,1054.83 740.938,1047.62 742.992,1046.25 746.4,1043.81 747.649,1042.85 752.758,1038.77 757.425,1035.4 761.171,1032.88 761.79,1032.48 761.838,1032.45 768.309,1028.47 773.397,1025.57 780.336,1021.86 789.019,1017.51 799.459,1011.86 800.936,1010.99 801.679,1010.55 801.932,1010.39 809.094,1005.37 829.897,993.422 831.549,992.445 843.651,985.033 858.134,977.404 865.75,973.173 869.556,970.881 885.959,961.074 888.885,959.515 889.032,959.438 897.906,954.94 898.402,954.656 907.203,949.246 913.517,945.259 921.745,940.542 925.288,938.363 934.782,932.983 935.766,932.457 939.641,930.129 957.547,920.57 957.786,920.431 962.593,917.371 981.838,905.697 995.187,898.062 1012.12,889.63 1017.71,886.61 1026.03,881.791 1031.83,878.255 1037.38,875.108 1038.6,874.343 1044.77,870.662 1046.64,869.449 1057.95,862.013 1059.78,860.777 1062.44,858.832 1063.53,858.062 1066.92,855.499 1067.95,854.755 1071.98,851.963 1075.15,849.647 1078.67,847.233 1084.82,842.871 1089.26,839.655 1097.7,833.589 1097.92,833.423 1105.35,827.701 1106.61,826.707 1113.47,821.217 1116.49,819.031 1117.68,818.105 1133.18,806.751 1141.52,801.155 1145.52,798.716 1179.57,779.919 1180.99,779.13 1186.64,776.099 1190.13,774.302 1191.34,773.593 1196.84,770.085 1200.4,767.676 1203.15,765.907 1203.5,765.69 1204.55,764.955 1204.57,764.937 1209.35,761.016 1210.7,759.979 1219.59,753.151 1222.34,751.045 1222.7,750.783 1224.92,748.995 1226.43,747.701 1226.99,747.194 1228.56,745.662 1235.89,738.7 1236.13,738.47 1239.04,735.587 1239.47,735.143 1241.22,733.381 1248.73,726.647 1251.78,723.986 1260.74,717.093 1268.47,711.442 1273.89,707.512 1289.77,696.815 1290.85,696.088 1295.03,693.072 1296.59,692.005 1299.6,690.025 1308.89,684.426 1309.84,683.811 1329.09,671.78 1344.45,663.889 1345.99,663.147 1353.29,659.176 1363.05,654.25 1365.84,652.681 1377.32,646.658 1378.49,645.978 1380.39,644.747 1383.66,642.446 1392.19,636.998 1413.19,624.588 1425.46,617.667 1452.72,603.185 1456.44,601.426 1465.25,596.764 1471.87,592.989 1494.03,581.868 1504.32,576.46 1516.26,569.896 1517.77,568.997 1523.15,565.52 1538.63,555.842 1546.43,551.08 1555.94,545.194 1556.23,545.03 1561.4,541.74 1574.8,534.182 1584.4,529.33 1601.05,521.533 1606.09,519.269 1606.67,519.009 1608.09,518.38 1609.61,517.58 1611.02,516.853 1630.93,506.132 1641.03,500.608 1649.95,495.505 1653.68,493.228 1661.33,488.331 1667.79,484.108 1667.79,484.105 1672.52,480.55 1677.1,477.385 1677.58,477.026 1683.15,473.109 1685.19,471.599 1685.74,471.202 1695.48,464.097 1698.08,462.402 1710.26,454.434 1721.1,447.644 1727.52,444.057 1746.64,433.397 1780.55,417.636 1781.09,417.396 1799.69,409.345 1808.07,405.182 1820.83,399.202 1834.01,392.47 1834.84,392.002 1842.45,387.865 1853.14,381.783 1870.78,372.959 1871.33,372.694 1874.84,371.055 1875.76,370.63 1887.1,365.488 1900.01,359.812 1905.35,357.103 1916.94,350.774 1926.14,345.547 1929.19,343.687 1933.91,340.589 1959.39,326.666 1966.18,322.925 1967.31,322.231 1970.26,320.246 1971.61,319.261 1994.86,303.907 1998.57,301.593 2007.85,296.274 2025.06,286.558 2034.06,281.441 2035.32,280.66 2043.22,275.493 2047.81,272.76 2050.66,270.911 2050.84,270.782 2062.19,263.387 2066.66,260.45 2069.96,258.151 2085.85,247.586 2088.26,246.192 2089.87,245.155 2099.62,239.333 2109.21,233.544 2124.07,224.8 2124.09,224.788 2125.1,224.244 2131.06,220.71 2157.1,206.154 2158.8,205.179 2161.56,203.426 2167.07,199.707 2171.01,196.938 2171.81,196.328 2176,193.305 2176.22,193.135 2177.58,192.096 2177.98,191.761 2179.56,190.343 2185.58,185.384 2240.87,154.953 2243.53,153.55 2274.22,137.564 2279.03,134.976 2284.41,131.811 2285.84,131.003 2291.19,128.091 2291.95,127.627 2297.85,123.739 2301.03,121.532 2308.49,116.255 2310.34,114.897 2318.07,109.139 2319.85,107.928 2322.35,106.087 2332.19,98.8941 2341.69,92.9933 2352.56,86.3142 2352.76,86.1857 "/>
<polyline clip-path="url(#clip501)" style="stroke:#c271d2; stroke-linecap:round; stroke-linejoin:round; stroke-width:4; stroke-opacity:1; fill:none" points="140.696,1384.24 140.696,1384.24 142.693,1383.4 148.156,1380.7 148.213,1380.66 160.736,1373.97 174.384,1367.36 194.936,1358.1 195.203,1357.96 205.615,1352.74 208.257,1351.47 233.631,1339.95 249.891,1332.91 256.314,1329.69 256.609,1329.52 257.315,1329.06 264.099,1324.39 268.35,1321.71 269.748,1320.86 281,1314.55 322.057,1295.26 326.593,1293.29 328.122,1292.62 332.942,1290.17 333.066,1290.11 340.484,1286.5 351.753,1281.27 354.807,1279.89 363.924,1275.84 366.011,1274.93 380.824,1268.51 384.306,1266.74 398.97,1259.72 401.408,1258.41 404.748,1256.66 414.158,1251.96 414.582,1251.75 421.066,1248.68 448.477,1236.42 449.01,1236.19 453.879,1234.09 463.933,1229.09 478.919,1222.14 480.103,1221.6 486.806,1218.62 491.106,1216.72 567.296,1184.32 568.29,1183.82 569.649,1183.14 574.132,1180.6 576.446,1179.34 604.253,1165.78 610.671,1162.89 611.695,1162.43 613.836,1161.49 627.528,1155.5 629.674,1154.58 646.723,1147.28 664.388,1139.8 669.177,1137.41 669.767,1137.12 676.198,1133.57 688.623,1127.26 696.191,1123.13 702.117,1120.08 705.13,1118.58 709.553,1116.44 711.159,1115.54 724.347,1108.68 726.947,1107.2 729.782,1105.64 740.938,1099.86 742.992,1098.69 746.4,1096.8 747.649,1096.12 752.758,1093.43 757.425,1091.08 761.171,1089.24 761.79,1088.94 761.838,1088.92 768.309,1085.85 773.397,1083.5 780.336,1080.36 789.019,1076.52 799.459,1071.27 800.936,1070.44 801.679,1070.03 801.932,1069.89 809.094,1065.55 829.897,1054.68 831.549,1053.88 843.651,1047.47 858.134,1040.51 865.75,1037.03 869.556,1035.32 885.959,1028.13 888.885,1026.87 889.032,1026.8 897.906,1023 898.402,1022.78 907.203,1018.42 913.517,1015.43 921.745,1011.65 925.288,1010.06 934.782,1005.86 935.766,1005.43 939.641,1003.44 957.547,994.866 957.786,994.736 962.593,992.193 981.838,981.764 995.187,975.382 1012.12,967.765 1017.71,964.905 1026.03,960.26 1031.83,957.241 1037.38,954.478 1038.6,953.886 1044.77,950.944 1046.64,949.919 1057.95,943.332 1059.78,942.345 1062.44,940.939 1063.53,940.372 1066.92,938.644 1067.95,938.129 1071.98,936.141 1075.15,934.362 1078.67,932.462 1084.82,929.277 1089.26,926.731 1097.7,921.622 1097.92,921.477 1105.35,916.871 1106.61,916.032 1113.47,911.249 1116.49,909.311 1117.68,908.474 1133.18,897.934 1141.52,892.592 1145.52,890.244 1179.57,873.282 1180.99,872.525 1186.64,869.601 1190.13,867.858 1191.34,867.166 1196.84,863.723 1200.4,861.626 1203.15,860.066 1203.5,859.873 1204.55,859.21 1204.57,859.196 1209.35,855.925 1210.7,855.047 1219.59,849.06 1222.34,847.153 1222.7,846.915 1224.92,845.447 1226.43,844.353 1226.99,843.916 1228.56,842.573 1235.89,836.862 1236.13,836.668 1239.04,834.173 1239.47,833.818 1241.22,832.403 1248.73,826.879 1251.78,824.843 1260.74,819.365 1268.47,815.103 1273.89,812.3 1289.77,804.647 1290.85,804.147 1295.03,801.916 1296.59,801.105 1299.6,799.572 1308.89,795.028 1309.84,794.498 1329.09,783.6 1344.45,776.121 1345.99,775.407 1353.29,771.545 1363.05,766.718 1365.84,765.17 1377.32,759.211 1378.49,758.536 1380.39,757.465 1383.66,755.666 1392.19,751.229 1413.19,740.143 1425.46,733.581 1452.72,720.768 1456.44,719.116 1465.25,714.646 1471.87,711.455 1494.03,701.4 1504.32,696.223 1516.26,690.6 1517.77,689.788 1523.15,686.98 1538.63,679.467 1546.43,675.896 1555.94,671 1556.23,670.859 1561.4,668.339 1574.8,662.11 1584.4,657.823 1601.05,650.58 1606.09,648.417 1606.67,648.166 1608.09,647.562 1609.61,646.785 1611.02,646.08 1630.93,636.654 1641.03,632.141 1649.95,627.62 1653.68,625.814 1661.33,621.669 1667.79,617.909 1667.79,617.905 1672.52,614.971 1677.1,612.295 1677.58,612.022 1683.15,608.973 1685.19,607.896 1685.74,607.609 1695.48,602.061 1698.08,600.678 1710.26,594.565 1721.1,588.758 1727.52,585.564 1746.64,575.584 1780.55,560.215 1781.09,559.978 1799.69,551.986 1808.07,548.426 1820.83,543.021 1834.01,537.459 1834.84,537.112 1842.45,533.902 1853.14,529.403 1870.78,521.986 1871.33,521.751 1874.84,520.277 1875.76,519.892 1887.1,515.123 1900.01,509.695 1905.35,507.451 1916.94,501.822 1926.14,497.576 1929.19,496.201 1933.91,493.735 1959.39,481.639 1966.18,478.615 1967.31,478.021 1970.26,476.505 1971.61,475.714 1994.86,463.601 1998.57,461.846 2007.85,457.577 2025.06,449.963 2034.06,445.448 2035.32,444.733 2043.22,439.908 2047.81,437.324 2050.66,435.554 2050.84,435.429 2062.19,428.262 2066.66,425.728 2069.96,423.935 2085.85,414.994 2088.26,413.761 2089.87,412.821 2099.62,407.461 2109.21,402.623 2124.07,394.74 2124.09,394.729 2125.1,394.225 2131.06,391.334 2157.1,378.227 2158.8,377.3 2161.56,375.835 2167.07,373.007 2171.01,371.056 2171.81,370.597 2176,368.273 2176.22,368.137 2177.58,367.296 2177.98,367.017 2179.56,365.811 2185.58,361.536 2240.87,333.128 2243.53,331.746 2274.22,317.286 2279.03,314.798 2284.41,311.722 2285.84,310.935 2291.19,308.087 2291.95,307.694 2297.85,304.718 2301.03,302.912 2308.49,298.377 2310.34,297.167 2318.07,291.913 2319.85,290.795 2322.35,289.073 2332.19,282.24 2341.69,276.563 2352.56,270.771 2352.76,270.671 "/>
<polyline clip-path="url(#clip501)" style="stroke:#ac8d18; stroke-linecap:round; stroke-linejoin:round; stroke-width:4; stroke-opacity:1; fill:none" points="140.696,1384.24 140.696,1384.24 142.693,1383.4 148.156,1380.7 148.213,1380.66 160.736,1373.97 174.384,1367.36 194.936,1358.1 195.203,1357.96 205.615,1352.74 208.257,1351.47 233.631,1339.95 249.891,1331.94 256.314,1328.5 256.609,1328.32 257.315,1327.84 264.099,1322.99 268.35,1319.9 269.748,1318.94 281,1311.16 322.057,1289.99 326.593,1287.94 328.122,1287.26 332.942,1284.76 333.066,1284.7 340.484,1281.03 351.753,1275.74 354.807,1274.34 363.924,1270.26 366.011,1269.34 380.824,1262.9 384.306,1261.13 398.97,1254.1 401.408,1252.79 404.748,1251.03 414.158,1245.69 414.582,1245.46 421.066,1241.6 448.477,1227.71 449.01,1227.42 453.879,1224.83 463.933,1219.11 478.919,1211.52 480.103,1210.86 486.806,1207.25 491.106,1205.05 567.296,1169.41 568.29,1168.9 569.649,1168.11 574.132,1165.23 576.446,1163.82 604.253,1149.28 610.671,1145.82 611.695,1145.29 613.836,1144.19 627.528,1137.53 629.674,1136.36 646.723,1126.76 664.388,1118.18 669.177,1115.62 669.767,1115.31 676.198,1111.58 688.623,1105.04 696.191,1100.81 702.117,1097.28 705.13,1095.35 709.553,1092.32 711.159,1091.14 724.347,1082.6 726.947,1080.89 729.782,1078.88 740.938,1071.82 742.992,1070.47 746.4,1068.32 747.649,1067.56 752.758,1064.19 757.425,1061.33 761.171,1058.87 761.79,1058.42 761.838,1058.39 768.309,1054.03 773.397,1050.51 780.336,1046.15 789.019,1040.63 799.459,1034.06 800.936,1033.09 801.679,1032.61 801.932,1032.44 809.094,1027.56 829.897,1015.82 831.549,1014.98 843.651,1008.35 858.134,1001.24 865.75,997.718 869.556,995.993 885.959,988.75 888.885,987.25 889.032,987.176 897.906,982.817 898.402,982.58 907.203,977.86 913.517,974.686 921.745,970.736 925.288,969.085 934.782,964.119 935.766,963.626 939.641,961.418 957.547,952.205 957.786,952.07 962.593,949.426 981.838,938.757 995.187,932.297 1012.12,923.631 1017.71,920.565 1026.03,915.696 1031.83,912.135 1037.38,908.556 1038.6,907.81 1044.77,904.208 1046.64,903.015 1057.95,895.669 1059.78,894.592 1062.44,893.067 1063.53,892.455 1066.92,890.336 1067.95,889.714 1071.98,887.35 1075.15,885.32 1078.67,882.906 1084.82,878.543 1089.26,875.328 1097.7,869.261 1097.92,869.095 1105.35,863.905 1106.61,862.985 1113.47,857.831 1116.49,855.526 1117.68,854.557 1133.18,842.813 1141.52,837.095 1145.52,834.612 1179.57,817.108 1180.99,816.342 1186.64,813.386 1190.13,811.356 1191.34,810.574 1196.84,806.78 1200.4,804.497 1203.15,802.813 1203.5,802.576 1204.55,801.786 1204.57,801.769 1209.35,797.987 1210.7,796.983 1219.59,790.335 1222.34,788.271 1222.7,788.014 1224.92,786.256 1226.43,784.981 1226.99,784.48 1228.56,782.967 1235.89,776.073 1236.13,775.845 1239.04,772.983 1239.47,772.578 1241.22,770.967 1248.73,764.222 1251.78,761.797 1260.74,755.438 1268.47,750.653 1273.89,747.174 1289.77,738.268 1290.85,737.622 1295.03,734.888 1296.59,733.913 1299.6,732.094 1308.89,726.873 1309.84,726.289 1329.09,714.664 1344.45,706.922 1345.99,706.19 1353.29,702.258 1363.05,696.703 1365.84,694.999 1377.32,688.569 1378.49,687.858 1380.39,686.733 1383.66,684.85 1392.19,679.65 1413.19,667.563 1425.46,660.729 1452.72,647.655 1456.44,645.698 1465.25,640.681 1471.87,637.199 1494.03,626.613 1504.32,621.321 1516.26,615.616 1517.77,614.797 1523.15,611.965 1538.63,603.472 1546.43,599.059 1555.94,593.463 1556.23,593.305 1561.4,590.127 1574.8,581.915 1584.4,576.785 1601.05,568.716 1606.09,566.402 1606.67,566.137 1608.09,565.497 1609.61,564.684 1611.02,563.833 1630.93,553.086 1641.03,547.556 1649.95,542.449 1653.68,540.459 1661.33,536.022 1667.79,532.081 1667.79,532.078 1672.52,529.041 1677.1,526.284 1677.58,525.964 1683.15,522.434 1685.19,521.208 1685.74,520.837 1695.48,514.106 1698.08,512.279 1710.26,504.654 1721.1,498.045 1727.52,494.531 1746.64,483.997 1780.55,466.842 1781.09,466.547 1799.69,456.183 1808.07,452.051 1820.83,446.101 1834.01,440.223 1834.84,439.861 1842.45,436 1853.14,430.89 1870.78,421.906 1871.33,421.639 1874.84,419.98 1875.76,419.551 1887.1,414.367 1900.01,408.663 1905.35,405.945 1916.94,399.606 1926.14,395.007 1929.19,393.543 1933.91,390.962 1959.39,378.534 1966.18,375.468 1967.31,374.869 1970.26,373.339 1971.61,372.543 1994.86,359.157 1998.57,357.295 2007.85,352.826 2025.06,343.996 2034.06,339.132 2035.32,338.379 2043.22,333.357 2047.81,330.686 2050.66,328.87 2050.84,328.743 2062.19,321.444 2066.66,318.874 2069.96,317.059 2085.85,308.047 2088.26,306.806 2089.87,305.862 2099.62,300.482 2109.21,294.975 2124.07,286.486 2124.09,286.473 2125.1,285.774 2131.06,281.901 2157.1,266.58 2158.8,265.58 2161.56,264.007 2167.07,260.999 2171.01,258.944 2171.81,258.466 2176,256.054 2176.22,255.913 2177.58,255.047 2177.98,254.761 2179.56,253.529 2185.58,249.167 2240.87,220.503 2243.53,219.117 2274.22,204.642 2279.03,202.153 2284.41,199.076 2285.84,198.172 2291.19,194.949 2291.95,194.51 2297.85,191.222 2301.03,189.279 2308.49,184.49 2310.34,183.23 2318.07,177.803 2319.85,176.653 2322.35,174.891 2332.19,167.935 2341.69,162.181 2352.56,156.333 2352.76,156.233 "/>
<polyline clip-path="url(#clip501)" style="stroke:#00a9ad; stroke-linecap:round; stroke-linejoin:round; stroke-width:4; stroke-opacity:1; fill:none" points="140.696,1384.24 140.696,1384.24 142.693,1383.24 148.156,1380.57 148.213,1380.54 160.736,1373.09 174.384,1365.17 194.936,1354.97 195.203,1354.84 205.615,1350.09 208.257,1348.91 233.631,1337.85 249.891,1330.93 256.314,1327.74 256.609,1327.59 257.315,1327.19 264.099,1323.5 268.35,1320.97 269.748,1320.06 281,1313.32 322.057,1293.49 326.593,1291.49 328.122,1290.82 332.942,1288.73 333.066,1288.67 340.484,1284.94 351.753,1279.58 354.807,1277.94 363.924,1273.29 366.011,1272.26 380.824,1265.32 384.306,1263.47 398.97,1255.31 401.408,1254.07 404.748,1252.4 414.158,1247.87 414.582,1247.67 421.066,1244.68 448.477,1232.6 449.01,1232.32 453.879,1229.5 463.933,1224.13 478.919,1216.85 480.103,1216.2 486.806,1212.66 491.106,1210.5 567.296,1175.03 568.29,1174.53 569.649,1173.85 574.132,1171.64 576.446,1170.52 604.253,1157.89 610.671,1155.1 611.695,1154.65 613.836,1153.73 627.528,1147.86 629.674,1146.95 646.723,1138.71 664.388,1130.78 669.177,1128.32 669.767,1128.03 676.198,1124.87 688.623,1119.07 696.191,1115.67 702.117,1113.05 705.13,1111.73 709.553,1109.8 711.159,1108.98 724.347,1101.69 726.947,1100.36 729.782,1098.94 740.938,1093.59 742.992,1092.47 746.4,1090.66 747.649,1090.01 752.758,1087.42 757.425,1085.14 761.171,1083.06 761.79,1082.67 761.838,1082.64 768.309,1078.32 773.397,1074.82 780.336,1070.49 789.019,1064.99 799.459,1058.44 800.936,1057.47 801.679,1056.99 801.932,1056.83 809.094,1051.95 829.897,1039.08 831.549,1038.19 843.651,1031.28 858.134,1023.98 865.75,1020.39 869.556,1018.65 885.959,1011.34 888.885,1009.83 889.032,1009.76 897.906,1005.38 898.402,1005.14 907.203,1001.02 913.517,998.156 921.745,994.495 925.288,992.939 934.782,988.165 935.766,987.687 939.641,985.534 957.547,976.481 957.786,976.368 962.593,974.109 981.838,965.449 995.187,959.65 1012.12,951.414 1017.71,948.432 1026.03,944.239 1031.83,941.45 1037.38,938.443 1038.6,937.805 1044.77,934.214 1046.64,933.174 1057.95,927.273 1059.78,926.368 1062.44,925.069 1063.53,924.453 1066.92,922.587 1067.95,921.95 1071.98,919.533 1075.15,917.717 1078.67,915.506 1084.82,911.883 1089.26,909.426 1097.7,905.036 1097.92,904.925 1105.35,901.285 1106.61,900.683 1113.47,897.475 1116.49,895.854 1117.68,895.131 1133.18,885.632 1141.52,880.612 1145.52,878.074 1179.57,860.351 1180.99,859.696 1186.64,857.122 1190.13,855.283 1191.34,854.561 1196.84,851.41 1200.4,849.468 1203.15,848.012 1203.5,847.802 1204.55,847.176 1204.57,847.162 1209.35,844.401 1210.7,843.538 1219.59,837.632 1222.34,835.961 1222.7,835.751 1224.92,834.451 1226.43,833.463 1226.99,833.108 1228.56,832.116 1235.89,827.756 1236.13,827.599 1239.04,825.753 1239.47,825.487 1241.22,824.417 1248.73,819.565 1251.78,817.744 1260.74,812.751 1268.47,808.775 1273.89,806.122 1289.77,798.747 1290.85,798.26 1295.03,796.392 1296.59,795.701 1299.6,794.139 1308.89,788.888 1309.84,788.38 1329.09,777.762 1344.45,769.452 1345.99,768.557 1353.29,764.51 1363.05,758.851 1365.84,757.345 1377.32,750.758 1378.49,750.036 1380.39,748.892 1383.66,746.982 1392.19,741.726 1413.19,730.71 1425.46,724.96 1452.72,712.93 1456.44,711.04 1465.25,706.755 1471.87,703.662 1494.03,693.785 1504.32,689.339 1516.26,684.234 1517.77,683.593 1523.15,681.307 1538.63,674.754 1546.43,671.465 1555.94,667.455 1556.23,667.335 1561.4,665.155 1574.8,658.669 1584.4,653.617 1601.05,644.638 1606.09,642.158 1606.67,641.827 1608.09,641.035 1609.61,640.194 1611.02,639.318 1630.93,628.344 1641.03,623.439 1649.95,619.31 1653.68,617.627 1661.33,614.223 1667.79,611.39 1667.79,611.388 1672.52,609.337 1677.1,607.358 1677.58,607.15 1683.15,604.762 1685.19,603.889 1685.74,603.608 1695.48,598.81 1698.08,597.372 1710.26,591.07 1721.1,585.163 1727.52,581.46 1746.64,570.601 1780.55,553.258 1781.09,552.962 1799.69,542.569 1808.07,538.431 1820.83,532.474 1834.01,526.591 1834.84,526.23 1842.45,522.367 1853.14,517.256 1870.78,508.271 1871.33,508.003 1874.84,506.072 1875.76,505.579 1887.1,499.78 1900.01,493.669 1905.35,491.241 1916.94,485.333 1926.14,480.949 1929.19,479.539 1933.91,477.386 1959.39,464.917 1966.18,461.846 1967.31,461.246 1970.26,459.715 1971.61,459.028 1994.86,447.993 1998.57,446.327 2007.85,442.228 2025.06,434.791 2034.06,430.949 2035.32,430.412 2043.22,426.497 2047.81,424.311 2050.66,422.751 2050.84,422.654 2062.19,416.836 2066.66,414.671 2069.96,413.107 2085.85,405.856 2088.26,404.788 2089.87,404.08 2099.62,399.156 2109.21,394.596 2124.07,387.875 2124.09,387.864 2125.1,387.248 2131.06,383.793 2157.1,369.415 2158.8,368.584 2161.56,367.258 2167.07,364.664 2171.01,362.847 2171.81,362.479 2176,360.581 2176.22,360.482 2177.58,359.761 2177.98,359.549 2179.56,358.597 2185.58,354.695 2240.87,327.394 2243.53,326.023 2274.22,311.63 2279.03,309.146 2284.41,306.476 2285.84,305.665 2291.19,302.34 2291.95,301.889 2297.85,298.516 2301.03,296.786 2308.49,292.924 2310.34,291.999 2318.07,287.707 2319.85,286.768 2322.35,285.472 2332.19,279.922 2341.69,275.048 2352.56,269.839 2352.76,269.747 "/>
<polyline clip-path="url(#clip501)" style="stroke:#ed5d92; stroke-linecap:round; stroke-linejoin:round; stroke-width:4; stroke-opacity:1; fill:none" points="140.696,1384.24 140.696,1384.24 142.693,1383.4 148.156,1380.7 148.213,1380.66 160.736,1373.97 174.384,1367.36 194.936,1358.1 195.203,1357.96 205.615,1352.04 208.257,1350.64 233.631,1338.41 249.891,1330.23 256.314,1326.74 256.609,1326.59 257.315,1326.16 264.099,1321.75 268.35,1319.2 269.748,1318.39 281,1311.57 322.057,1291.63 326.593,1289.29 328.122,1288.51 332.942,1286.14 333.066,1286.08 340.484,1282.55 351.753,1276.65 354.807,1275.14 363.924,1270.8 366.011,1269.66 380.824,1262.15 384.306,1260.22 398.97,1252.73 401.408,1251.36 404.748,1249.54 414.158,1244.06 414.582,1243.83 421.066,1239.91 448.477,1225.89 449.01,1225.64 453.879,1223.4 463.933,1218.2 478.919,1210.14 480.103,1209.55 486.806,1206.28 491.106,1203.92 567.296,1169.37 568.29,1168.87 569.649,1168.07 574.132,1165.21 576.446,1163.8 604.253,1149.27 610.671,1145.82 611.695,1145.2 613.836,1143.77 627.528,1134.72 629.674,1133.29 646.723,1123.33 664.388,1114.57 669.177,1111.98 669.767,1111.62 676.198,1107.4 688.623,1099.44 696.191,1094.67 702.117,1090.82 705.13,1088.75 709.553,1085.56 711.159,1084.33 724.347,1075.48 726.947,1073.93 729.782,1072.08 740.938,1065.47 742.992,1064.19 746.4,1062.13 747.649,1061.4 752.758,1058.14 757.425,1055.36 761.171,1053.24 761.79,1052.9 761.838,1052.87 768.309,1049.42 773.397,1046.84 780.336,1043.47 789.019,1039.41 799.459,1034 800.936,1033.15 801.679,1032.73 801.932,1032.57 809.094,1027.65 829.897,1015.85 831.549,1014.88 843.651,1007.51 858.134,999.906 865.75,996.225 869.556,994.44 885.959,987.028 888.885,985.739 889.032,985.675 897.906,981.808 898.402,981.553 907.203,976.555 913.517,973.24 921.745,969.157 925.288,967.463 934.782,963.058 935.766,962.611 939.641,960.564 957.547,951.822 957.786,951.691 962.593,949.121 981.838,938.628 995.187,931.381 1012.12,923.202 1017.71,920.231 1026.03,915.466 1031.83,911.957 1037.38,908.831 1038.6,908.17 1044.77,904.934 1046.64,903.984 1057.95,897.746 1059.78,896.8 1062.44,895.449 1063.53,894.902 1066.92,892.967 1067.95,892.396 1071.98,890.209 1075.15,888.546 1078.67,886.756 1084.82,883.274 1089.26,880.56 1097.7,875.21 1097.92,875.059 1105.35,869.775 1106.61,868.945 1113.47,864.697 1116.49,862.948 1117.68,862.179 1133.18,852.258 1141.52,847.107 1145.52,844.83 1179.57,826.676 1180.99,826.014 1186.64,823.415 1190.13,821.835 1191.34,821.193 1196.84,817.95 1200.4,815.958 1203.15,814.469 1203.5,814.284 1204.55,813.731 1204.57,813.719 1209.35,810.89 1210.7,810.121 1219.59,804.707 1222.34,802.936 1222.7,802.714 1224.92,801.164 1226.43,800.02 1226.99,799.564 1228.56,798.301 1235.89,792.37 1236.13,792.169 1239.04,789.606 1239.47,789.206 1241.22,787.615 1248.73,781.477 1251.78,779.007 1260.74,772.544 1268.47,767.149 1273.89,763.352 1289.77,752.902 1290.85,752.185 1295.03,749.209 1296.59,748.154 1299.6,746.197 1308.89,740.649 1309.84,740.116 1329.09,729.18 1344.45,721.688 1345.99,720.973 1353.29,717.631 1363.05,713.28 1365.84,711.834 1377.32,706.183 1378.49,705.532 1380.39,704.496 1383.66,702.751 1392.19,698.424 1413.19,687.482 1425.46,681.751 1452.72,668.417 1456.44,666.731 1465.25,662.202 1471.87,658.979 1494.03,648.865 1504.32,644.368 1516.26,638.449 1517.77,637.61 1523.15,634.316 1538.63,624.973 1546.43,620.31 1555.94,615.158 1556.23,615.011 1561.4,612.003 1574.8,604.933 1584.4,600.288 1601.05,592.694 1606.09,590.467 1606.67,590.21 1608.09,589.591 1609.61,588.799 1611.02,588.08 1630.93,577.428 1641.03,571.922 1649.95,566.829 1653.68,564.555 1661.33,559.663 1667.79,555.915 1667.79,555.912 1672.52,552.984 1677.1,550.314 1677.58,550.001 1683.15,546.553 1685.19,545.352 1685.74,545.033 1695.48,539.04 1698.08,537.568 1710.26,530.361 1721.1,523.974 1727.52,520.549 1746.64,510.168 1780.55,494.568 1781.09,494.329 1799.69,486.302 1808.07,482.146 1820.83,476.172 1834.01,470.28 1834.84,469.918 1842.45,466.594 1853.14,461.988 1870.78,454.476 1871.33,454.239 1874.84,452.754 1875.76,452.366 1887.1,447.572 1900.01,442.126 1905.35,439.48 1916.94,433.245 1926.14,428.065 1929.19,426.216 1933.91,423.133 1959.39,409.255 1966.18,405.519 1967.31,404.825 1970.26,402.842 1971.61,401.858 1994.86,386.512 1998.57,384.486 2007.85,379.709 2025.06,370.557 2034.06,365.602 2035.32,364.942 2043.22,360.396 2047.81,357.934 2050.66,356.228 2050.84,356.123 2062.19,349.883 2066.66,347.603 2069.96,345.968 2085.85,338.488 2088.26,337.398 2089.87,336.546 2099.62,331.602 2109.21,326.374 2124.07,318.137 2124.09,318.126 2125.1,317.605 2131.06,314.191 2157.1,299.906 2158.8,299.078 2161.56,297.757 2167.07,294.76 2171.01,292.71 2171.81,292.3 2176,290.202 2176.22,290.094 2177.58,289.427 2177.98,289.198 2179.56,288.178 2185.58,284.501 2240.87,257.866 2243.53,256.502 2274.22,240.748 2279.03,238.174 2284.41,235.425 2285.84,234.712 2291.19,232.104 2291.95,231.677 2297.85,228.478 2301.03,226.574 2308.49,222.39 2310.34,221.252 2318.07,216.236 2319.85,215.163 2322.35,213.497 2332.19,206.834 2341.69,201.263 2352.56,194.825 2352.76,194.716 "/>
<polyline clip-path="url(#clip501)" style="stroke:#c68125; stroke-linecap:round; stroke-linejoin:round; stroke-width:4; stroke-opacity:1; fill:none" points="140.696,1384.24 140.696,1384.24 142.693,1383.4 148.156,1381.1 148.213,1381.08 160.736,1375.82 174.384,1370.08 194.936,1361.44 195.203,1361.33 205.615,1356.96 208.257,1355.85 233.631,1345.18 249.891,1338.35 256.314,1335.65 256.609,1335.52 257.315,1335.23 264.099,1332.38 268.35,1330.59 269.748,1330 281,1325.27 322.057,1306.44 326.593,1304.48 328.122,1303.82 332.942,1301.75 333.066,1301.7 340.484,1298.53 351.753,1293.74 354.807,1292.45 363.924,1288.59 366.011,1287.71 380.824,1281.47 384.306,1280 398.97,1273.83 401.408,1272.8 404.748,1271.4 414.158,1267.44 414.582,1267.26 421.066,1264.54 448.477,1253.01 449.01,1252.79 453.879,1250.74 463.933,1246.52 478.919,1240.22 480.103,1239.72 486.806,1236.91 491.106,1235.1 567.296,1203.08 568.29,1202.66 569.649,1202.09 574.132,1200.21 576.446,1199.23 604.253,1187.55 610.671,1184.85 611.695,1184.42 613.836,1183.52 627.528,1177.77 629.674,1176.86 646.723,1169.7 664.388,1162.28 669.177,1160.26 669.767,1160.01 676.198,1157.31 688.623,1152.09 696.191,1148.91 702.117,1146.42 705.13,1145.15 709.553,1143.29 711.159,1142.62 724.347,1137.08 726.947,1135.98 729.782,1134.79 740.938,1129.37 742.992,1128.4 746.4,1126.82 747.649,1126.25 752.758,1123.93 757.425,1121.49 761.171,1119.6 761.79,1119.29 761.838,1119.26 768.309,1116.12 773.397,1113.72 780.336,1110.53 789.019,1106.65 799.459,1102.07 800.936,1101.43 801.679,1101.11 801.932,1101 809.094,1097.91 829.897,1089.04 831.549,1088.34 843.651,1083.23 858.134,1076.22 865.75,1072.73 869.556,1071.02 885.959,1063.81 888.885,1062.55 889.032,1062.49 897.906,1058.06 898.402,1057.82 907.203,1053.66 913.517,1050.78 921.745,1047.1 925.288,1045.54 934.782,1041.4 935.766,1040.98 939.641,1039.31 957.547,1031.66 957.786,1031.56 962.593,1029.52 981.838,1021.39 995.187,1015.76 1012.12,1008.64 1017.71,1006.29 1026.03,1002.79 1031.83,1000.35 1037.38,998.014 1038.6,997.502 1044.77,994.909 1046.64,994.122 1057.95,989.368 1059.78,988.599 1062.44,987.481 1063.53,987.022 1066.92,985.598 1067.95,985.167 1071.98,983.162 1075.15,981.621 1078.67,979.947 1084.82,977.082 1089.26,975.056 1097.7,971.283 1097.92,971.184 1105.35,967.921 1106.61,967.372 1113.47,964.402 1116.49,963.102 1117.68,962.591 1133.18,955.975 1141.52,952.438 1145.52,950.745 1179.57,936.39 1180.99,935.793 1186.64,933.415 1190.13,931.947 1191.34,931.439 1196.84,929.129 1200.4,927.63 1203.15,926.254 1203.5,926.083 1204.55,925.569 1204.57,925.557 1209.35,923.247 1210.7,922.605 1219.59,918.478 1222.34,917.229 1222.7,917.07 1224.92,916.07 1226.43,915.393 1226.99,915.146 1228.56,914.448 1235.89,911.216 1236.13,911.11 1239.04,909.842 1239.47,909.655 1241.22,908.893 1248.73,905.651 1251.78,904.344 1260.74,899.894 1268.47,896.24 1273.89,893.753 1289.77,886.689 1290.85,886.216 1295.03,884.397 1296.59,883.721 1299.6,882.424 1308.89,878.436 1309.84,878.03 1329.09,869.852 1344.45,863.363 1345.99,862.715 1353.29,859.637 1363.05,855.527 1365.84,854.354 1377.32,849.525 1378.49,849.032 1380.39,848.235 1383.66,846.859 1392.19,843.273 1413.19,834.446 1425.46,829.289 1452.72,817.83 1456.44,816.265 1465.25,812.564 1471.87,809.781 1494.03,799.287 1504.32,794.707 1516.26,789.508 1517.77,788.857 1523.15,786.544 1538.63,779.942 1546.43,776.639 1555.94,772.616 1556.23,772.496 1561.4,770.312 1574.8,764.665 1584.4,760.625 1601.05,753.623 1606.09,751.504 1606.67,751.258 1608.09,750.664 1609.61,750.022 1611.02,749.432 1630.93,741.061 1641.03,736.814 1649.95,733.065 1653.68,731.5 1661.33,728.285 1667.79,725.569 1667.79,725.567 1672.52,723.582 1677.1,721.655 1677.58,721.453 1683.15,718.7 1685.19,717.714 1685.74,717.45 1695.48,712.894 1698.08,711.71 1710.26,706.277 1721.1,701.552 1727.52,698.79 1746.64,690.638 1780.55,676.323 1781.09,676.093 1799.69,668.265 1808.07,664.743 1820.83,658.559 1834.01,652.546 1834.84,652.179 1842.45,648.813 1853.14,644.167 1870.78,636.621 1871.33,636.336 1874.84,634.581 1875.76,634.13 1887.1,628.728 1900.01,622.88 1905.35,620.522 1916.94,615.482 1926.14,611.529 1929.19,610.227 1933.91,608.214 1959.39,597.428 1966.18,594.564 1967.31,594.086 1970.26,592.844 1971.61,592.277 1994.86,582.49 1998.57,580.929 2007.85,576.388 2025.06,568.49 2034.06,564.516 2035.32,563.964 2043.22,560.535 2047.81,558.212 2050.66,556.805 2050.84,556.717 2062.19,551.343 2066.66,549.3 2069.96,547.812 2085.85,540.802 2088.26,539.758 2089.87,539.065 2099.62,534.873 2109.21,530.781 2124.07,524.484 2124.09,524.474 2125.1,524.045 2131.06,521.53 2157.1,510.56 2158.8,509.842 2161.56,508.683 2167.07,506.365 2171.01,504.708 2171.81,504.369 2176,502.607 2176.22,502.515 2177.58,501.944 2177.98,501.775 2179.56,501.11 2185.58,498.58 2240.87,475.342 2243.53,474.224 2274.22,461.324 2279.03,459.302 2284.41,457.043 2285.84,456.441 2291.19,454.193 2291.95,453.874 2297.85,451.395 2301.03,450.056 2308.49,446.922 2310.34,446.143 2318.07,442.894 2319.85,442.004 2322.35,440.771 2332.19,436.08 2341.69,431.743 2352.56,426.925 2352.76,426.839 "/>
<polyline clip-path="url(#clip501)" style="stroke:#00a98d; stroke-linecap:round; stroke-linejoin:round; stroke-width:4; stroke-opacity:1; fill:none" points="140.696,1384.24 140.696,1384.24 142.693,1383.4 148.156,1380.7 148.213,1380.67 160.736,1374.78 174.384,1368.66 194.936,1358.62 195.203,1358.47 205.615,1353.06 208.257,1351.55 233.631,1337.43 249.891,1329.75 256.314,1326.85 256.609,1326.72 257.315,1326.41 264.099,1322.92 268.35,1320.82 269.748,1320.14 281,1314.86 322.057,1296.89 326.593,1294.96 328.122,1294.18 332.942,1291.8 333.066,1291.73 340.484,1287.66 351.753,1281.97 354.807,1280.5 363.924,1275.62 366.011,1274.55 380.824,1266.5 384.306,1264.75 398.97,1257.79 401.408,1256.48 404.748,1254.47 414.158,1249.23 414.582,1248.97 421.066,1245.18 448.477,1230.09 449.01,1229.83 453.879,1227.5 463.933,1222.17 478.919,1214.93 480.103,1214.38 486.806,1210.83 491.106,1208.66 567.296,1174.97 568.29,1174.55 569.649,1173.98 574.132,1171.74 576.446,1170.43 604.253,1155.19 610.671,1152.13 611.695,1151.66 613.836,1150.66 627.528,1144.48 629.674,1143.53 646.723,1136.12 664.388,1127.55 669.177,1125.36 669.767,1125.09 676.198,1121.73 688.623,1115.67 696.191,1111.62 702.117,1108.63 705.13,1107.16 709.553,1105.04 711.159,1104.29 724.347,1098.26 726.947,1097.1 729.782,1095.84 740.938,1090.97 742.992,1090.08 746.4,1088.34 747.649,1087.62 752.758,1084.75 757.425,1082.26 761.171,1080.34 761.79,1080.02 761.838,1080 768.309,1076.34 773.397,1073.63 780.336,1069.62 789.019,1065 799.459,1059.85 800.936,1059.15 801.679,1058.74 801.932,1058.6 809.094,1054.78 829.897,1044.75 831.549,1043.99 843.651,1038.58 858.134,1032.28 865.75,1028.46 869.556,1026.33 885.959,1016.98 888.885,1015.47 889.032,1015.39 897.906,1010.4 898.402,1010.13 907.203,1005 913.517,1001.15 921.745,995.989 925.288,993.663 934.782,987.988 935.766,987.357 939.641,984.957 957.547,974.152 957.786,974.003 962.593,970.748 981.838,958.608 995.187,951.664 1012.12,943.681 1017.71,941.164 1026.03,936.896 1031.83,934.068 1037.38,931.447 1038.6,930.781 1044.77,927.525 1046.64,926.571 1057.95,920.31 1059.78,919.214 1062.44,917.454 1063.53,916.753 1066.92,914.65 1067.95,914.032 1071.98,911.682 1075.15,909.911 1078.67,908.017 1084.82,904.841 1089.26,902.3 1097.7,897.198 1097.92,897.053 1105.35,892.453 1106.61,891.717 1113.47,887.902 1116.49,886.304 1117.68,885.687 1133.18,878.095 1141.52,874.254 1145.52,872.451 1179.57,857.658 1180.99,857.053 1186.64,854.23 1190.13,852.538 1191.34,851.961 1196.84,848.968 1200.4,846.832 1203.15,845.246 1203.5,845.049 1204.55,844.463 1204.57,844.449 1209.35,841.125 1210.7,840.234 1219.59,834.796 1222.34,833.019 1222.7,832.767 1224.92,831.216 1226.43,830.194 1226.99,829.781 1228.56,828.633 1235.89,823.671 1236.13,823.517 1239.04,821.482 1239.47,821.19 1241.22,819.878 1248.73,814.713 1251.78,812.793 1260.74,807.574 1268.47,803.466 1273.89,800.743 1289.77,793.239 1290.85,792.746 1295.03,790.537 1296.59,789.608 1299.6,787.868 1308.89,782.835 1309.84,782.343 1329.09,773.043 1344.45,766.146 1345.99,765.471 1353.29,762.285 1363.05,758.078 1365.84,756.663 1377.32,751.105 1378.49,750.556 1380.39,749.523 1383.66,747.527 1392.19,742.694 1413.19,731.089 1425.46,725.179 1452.72,712.995 1456.44,711.383 1465.25,706.986 1471.87,703.352 1494.03,692.488 1504.32,687.829 1516.26,682.572 1517.77,681.794 1523.15,679.089 1538.63,671.767 1546.43,668.252 1555.94,664.054 1556.23,663.906 1561.4,661.27 1574.8,654.843 1584.4,650.471 1601.05,643.145 1606.09,640.587 1606.67,640.297 1608.09,639.484 1609.61,638.497 1611.02,637.61 1630.93,626.536 1641.03,621.606 1649.95,616.845 1653.68,614.963 1661.33,610.698 1667.79,607.336 1667.79,607.333 1672.52,604.266 1677.1,601.138 1677.58,600.823 1683.15,597.345 1685.19,595.972 1685.74,595.609 1695.48,588.993 1698.08,587.396 1710.26,580.552 1721.1,575.08 1727.52,572.02 1746.64,563.351 1780.55,548.738 1781.09,548.506 1799.69,540.632 1808.07,537.099 1820.83,531.722 1834.01,525.338 1834.84,524.886 1842.45,520.869 1853.14,514.9 1870.78,506.176 1871.33,505.914 1874.84,504.286 1875.76,503.789 1887.1,497.208 1900.01,489.754 1905.35,486.96 1916.94,481.266 1926.14,476.987 1929.19,475.604 1933.91,473.127 1959.39,461.001 1966.18,457.973 1967.31,457.471 1970.26,456.175 1971.61,455.475 1994.86,444.31 1998.57,442.346 2007.85,437.685 2025.06,429.663 2034.06,425.031 2035.32,424.407 2043.22,420.603 2047.81,418.466 2050.66,417.156 2050.84,417.074 2062.19,411.235 2066.66,408.724 2069.96,406.689 2085.85,397.926 2088.26,396.518 2089.87,395.472 2099.62,389.608 2109.21,384.448 2124.07,376.273 2124.09,376.262 2125.1,375.745 2131.06,372.785 2157.1,360.814 2158.8,360.064 2161.56,358.638 2167.07,355.875 2171.01,353.658 2171.81,353.217 2176,350.655 2176.22,350.525 2177.58,349.727 2177.98,349.46 2179.56,348.428 2185.58,344.71 2240.87,316.237 2243.53,315.065 2274.22,301.846 2279.03,299.803 2284.41,297.525 2285.84,296.919 2291.19,294.658 2291.95,294.337 2297.85,291.41 2301.03,289.626 2308.49,285.665 2310.34,284.571 2318.07,280.255 2319.85,279.311 2322.35,277.811 2332.19,272.315 2341.69,266.825 2352.56,261.167 2352.76,261.053 "/>
<polyline clip-path="url(#clip501)" style="stroke:#8e971d; stroke-linecap:round; stroke-linejoin:round; stroke-width:4; stroke-opacity:1; fill:none" points="140.696,1384.24 140.696,1384.24 142.693,1383.4 148.156,1380.7 148.213,1380.67 160.736,1374.78 174.384,1368.66 194.936,1359.75 195.203,1359.61 205.615,1353.78 208.257,1352.39 233.631,1340.25 249.891,1332.08 256.314,1329.07 256.609,1328.94 257.315,1328.61 264.099,1325.03 268.35,1322.89 269.748,1322.2 281,1316.1 322.057,1297.09 326.593,1294.78 328.122,1294.01 332.942,1291.66 333.066,1291.6 340.484,1288.1 351.753,1282.24 354.807,1280.74 363.924,1276.4 366.011,1275.27 380.824,1267.77 384.306,1266.12 398.97,1259.4 401.408,1258.12 404.748,1256.41 414.158,1251.15 414.582,1250.92 421.066,1247.11 448.477,1233.31 449.01,1233.06 453.879,1230.83 463.933,1225.66 478.919,1217.63 480.103,1217.04 486.806,1213.77 491.106,1211.41 567.296,1176.88 568.29,1176.46 569.649,1175.77 574.132,1173.21 576.446,1171.94 604.253,1158.3 610.671,1154.93 611.695,1154.33 613.836,1152.92 627.528,1143.98 629.674,1142.56 646.723,1132.66 664.388,1123.93 669.177,1121.71 669.767,1121.39 676.198,1117.55 688.623,1110.07 696.191,1105.47 702.117,1101.73 705.13,1099.71 709.553,1096.57 711.159,1095.49 724.347,1087.52 726.947,1086.1 729.782,1084.36 740.938,1078.09 742.992,1077.02 746.4,1075.27 747.649,1074.64 752.758,1071.74 757.425,1069.23 761.171,1067.29 761.79,1066.97 761.838,1066.95 768.309,1063.74 773.397,1061.3 780.336,1058.07 789.019,1054.15 799.459,1049.55 800.936,1048.9 801.679,1048.58 801.932,1048.45 809.094,1044.84 829.897,1035.14 831.549,1034.27 843.651,1028.21 858.134,1021.48 865.75,1018.07 869.556,1016.4 885.959,1009.28 888.885,1008.03 889.032,1007.96 897.906,1004.18 898.402,1003.92 907.203,998.979 913.517,995.69 921.745,991.631 925.288,989.945 934.782,985.557 935.766,985.112 939.641,983.368 957.547,975.51 957.786,975.387 962.593,972.954 981.838,962.793 995.187,955.655 1012.12,947.546 1017.71,945.005 1026.03,940.71 1031.83,937.439 1037.38,934.489 1038.6,933.862 1044.77,930.769 1046.64,929.855 1057.95,923.781 1059.78,922.855 1062.44,921.529 1063.53,920.993 1066.92,919.085 1067.95,918.521 1071.98,916.36 1075.15,914.715 1078.67,912.942 1084.82,909.484 1089.26,906.783 1097.7,901.452 1097.92,901.302 1105.35,896.03 1106.61,895.202 1113.47,890.961 1116.49,889.215 1117.68,888.544 1133.18,880.462 1141.52,876.468 1145.52,874.61 1179.57,858.128 1180.99,857.495 1186.64,854.993 1190.13,853.462 1191.34,852.935 1196.84,850.138 1200.4,848.383 1203.15,847.053 1203.5,846.887 1204.55,846.388 1204.57,846.378 1209.35,843.768 1210.7,843.052 1219.59,838.538 1222.34,836.98 1222.7,836.784 1224.92,835.386 1226.43,834.46 1226.99,834.08 1228.56,833.023 1235.89,827.883 1236.13,827.724 1239.04,825.634 1239.47,825.299 1241.22,823.96 1248.73,818.702 1251.78,816.512 1260.74,810.685 1268.47,805.666 1273.89,802.065 1289.77,791.978 1290.85,791.278 1295.03,788.359 1296.59,787.322 1299.6,785.398 1308.89,779.927 1309.84,779.401 1329.09,769.631 1344.45,762.564 1345.99,761.877 1353.29,758.646 1363.05,754.398 1365.84,752.974 1377.32,747.389 1378.49,746.839 1380.39,745.955 1383.66,744.445 1392.19,740.59 1413.19,730.267 1425.46,724.704 1452.72,711.531 1456.44,709.856 1465.25,705.345 1471.87,702.132 1494.03,692.036 1504.32,687.543 1516.26,681.627 1517.77,680.788 1523.15,677.495 1538.63,668.154 1546.43,663.491 1555.94,658.339 1556.23,658.192 1561.4,655.185 1574.8,648.115 1584.4,643.47 1601.05,635.876 1606.09,633.649 1606.67,633.392 1608.09,632.773 1609.61,631.981 1611.02,631.262 1630.93,620.61 1641.03,615.104 1649.95,610.01 1653.68,607.737 1661.33,602.845 1667.79,599.097 1667.79,599.094 1672.52,596.166 1677.1,593.496 1677.58,593.183 1683.15,589.735 1685.19,588.534 1685.74,588.215 1695.48,582.222 1698.08,580.75 1710.26,573.543 1721.1,567.878 1727.52,564.741 1746.64,555.939 1780.55,541.249 1781.09,541.017 1799.69,533.131 1808.07,529.008 1820.83,523.066 1834.01,517.193 1834.84,516.832 1842.45,513.515 1853.14,508.915 1870.78,501.408 1871.33,501.171 1874.84,499.687 1875.76,499.299 1887.1,494.506 1900.01,489.062 1905.35,486.416 1916.94,480.942 1926.14,476.139 1929.19,474.385 1933.91,471.425 1959.39,457.902 1966.18,454.21 1967.31,453.616 1970.26,451.868 1971.61,450.981 1994.86,436.65 1998.57,434.709 2007.85,430.092 2025.06,421.106 2034.06,416.198 2035.32,415.544 2043.22,411.584 2047.81,409.378 2050.66,408.032 2050.84,407.948 2062.19,402.753 2066.66,400.759 2069.96,399.301 2085.85,392.388 2088.26,391.354 2089.87,390.536 2099.62,385.753 2109.21,380.629 2124.07,372.485 2124.09,372.474 2125.1,371.958 2131.06,368.566 2157.1,355.623 2158.8,354.839 2161.56,353.584 2167.07,350.695 2171.01,348.709 2171.81,348.309 2176,346.266 2176.22,346.161 2177.58,345.509 2177.98,345.284 2179.56,344.408 2185.58,341.197 2240.87,315.941 2243.53,314.802 2274.22,300.377 2279.03,298.255 2284.41,295.907 2285.84,295.285 2291.19,292.972 2291.95,292.582 2297.85,289.627 2301.03,287.83 2308.49,283.846 2310.34,282.747 2318.07,278.416 2319.85,277.469 2322.35,275.965 2332.19,270.458 2341.69,265.611 2352.56,259.698 2352.76,259.596 "/>
<path clip-path="url(#clip500)" d="M214.431 663.349 L554.896 663.349 L554.896 93.1086 L214.431 93.1086  Z" fill="#ffffff" fill-rule="evenodd" fill-opacity="1"/>
<polyline clip-path="url(#clip500)" style="stroke:#000000; stroke-linecap:round; stroke-linejoin:round; stroke-width:4; stroke-opacity:1; fill:none" points="214.431,663.349 554.896,663.349 554.896,93.1086 214.431,93.1086 214.431,663.349 "/>
<polyline clip-path="url(#clip500)" style="stroke:#009af9; stroke-linecap:round; stroke-linejoin:round; stroke-width:4; stroke-opacity:1; fill:none" points="239.009,144.949 386.48,144.949 "/>
<path clip-path="url(#clip500)" d="M411.058 151.997 L411.058 136.303 L415.318 136.303 L415.318 151.835 Q415.318 155.516 416.753 157.368 Q418.188 159.196 421.058 159.196 Q424.507 159.196 426.498 156.997 Q428.512 154.798 428.512 151.002 L428.512 136.303 L432.771 136.303 L432.771 162.229 L428.512 162.229 L428.512 158.247 Q426.961 160.608 424.901 161.766 Q422.864 162.9 420.156 162.9 Q415.688 162.9 413.373 160.122 Q411.058 157.344 411.058 151.997 M421.776 135.678 L421.776 135.678 Z" fill="#000000" fill-rule="nonzero" fill-opacity="1" /><path clip-path="url(#clip500)" d="M441.151 126.21 L450.966 126.21 L450.966 129.52 L445.41 129.52 L445.41 165.168 L450.966 165.168 L450.966 168.479 L441.151 168.479 L441.151 126.21 Z" fill="#000000" fill-rule="nonzero" fill-opacity="1" /><path clip-path="url(#clip500)" d="M461.452 158.293 L469.091 158.293 L469.091 131.928 L460.78 133.595 L460.78 129.335 L469.044 127.669 L473.72 127.669 L473.72 158.293 L481.359 158.293 L481.359 162.229 L461.452 162.229 L461.452 158.293 Z" fill="#000000" fill-rule="nonzero" fill-opacity="1" /><path clip-path="url(#clip500)" d="M500.155 126.21 L500.155 168.479 L490.34 168.479 L490.34 165.168 L495.873 165.168 L495.873 129.52 L490.34 129.52 L490.34 126.21 L500.155 126.21 Z" fill="#000000" fill-rule="nonzero" fill-opacity="1" /><polyline clip-path="url(#clip500)" style="stroke:#e26f46; stroke-linecap:round; stroke-linejoin:round; stroke-width:4; stroke-opacity:1; fill:none" points="239.009,196.789 386.48,196.789 "/>
<path clip-path="url(#clip500)" d="M411.058 203.837 L411.058 188.143 L415.318 188.143 L415.318 203.675 Q415.318 207.356 416.753 209.208 Q418.188 211.036 421.058 211.036 Q424.507 211.036 426.498 208.837 Q428.512 206.638 428.512 202.842 L428.512 188.143 L432.771 188.143 L432.771 214.069 L428.512 214.069 L428.512 210.087 Q426.961 212.448 424.901 213.606 Q422.864 214.74 420.156 214.74 Q415.688 214.74 413.373 211.962 Q411.058 209.184 411.058 203.837 M421.776 187.518 L421.776 187.518 Z" fill="#000000" fill-rule="nonzero" fill-opacity="1" /><path clip-path="url(#clip500)" d="M441.151 178.05 L450.966 178.05 L450.966 181.36 L445.41 181.36 L445.41 217.008 L450.966 217.008 L450.966 220.319 L441.151 220.319 L441.151 178.05 Z" fill="#000000" fill-rule="nonzero" fill-opacity="1" /><path clip-path="url(#clip500)" d="M464.669 210.133 L480.989 210.133 L480.989 214.069 L459.044 214.069 L459.044 210.133 Q461.706 207.379 466.29 202.749 Q470.896 198.096 472.077 196.754 Q474.322 194.231 475.202 192.495 Q476.104 190.735 476.104 189.046 Q476.104 186.291 474.16 184.555 Q472.239 182.819 469.137 182.819 Q466.938 182.819 464.484 183.583 Q462.054 184.347 459.276 185.897 L459.276 181.175 Q462.1 180.041 464.554 179.462 Q467.007 178.884 469.044 178.884 Q474.415 178.884 477.609 181.569 Q480.803 184.254 480.803 188.745 Q480.803 190.874 479.993 192.796 Q479.206 194.694 477.1 197.286 Q476.521 197.958 473.419 201.175 Q470.317 204.37 464.669 210.133 Z" fill="#000000" fill-rule="nonzero" fill-opacity="1" /><path clip-path="url(#clip500)" d="M500.155 178.05 L500.155 220.319 L490.34 220.319 L490.34 217.008 L495.873 217.008 L495.873 181.36 L490.34 181.36 L490.34 178.05 L500.155 178.05 Z" fill="#000000" fill-rule="nonzero" fill-opacity="1" /><polyline clip-path="url(#clip500)" style="stroke:#3da44d; stroke-linecap:round; stroke-linejoin:round; stroke-width:4; stroke-opacity:1; fill:none" points="239.009,248.629 386.48,248.629 "/>
<path clip-path="url(#clip500)" d="M411.058 255.677 L411.058 239.983 L415.318 239.983 L415.318 255.515 Q415.318 259.196 416.753 261.048 Q418.188 262.876 421.058 262.876 Q424.507 262.876 426.498 260.677 Q428.512 258.478 428.512 254.682 L428.512 239.983 L432.771 239.983 L432.771 265.909 L428.512 265.909 L428.512 261.927 Q426.961 264.288 424.901 265.446 Q422.864 266.58 420.156 266.58 Q415.688 266.58 413.373 263.802 Q411.058 261.024 411.058 255.677 M421.776 239.358 L421.776 239.358 Z" fill="#000000" fill-rule="nonzero" fill-opacity="1" /><path clip-path="url(#clip500)" d="M441.151 229.89 L450.966 229.89 L450.966 233.2 L445.41 233.2 L445.41 268.848 L450.966 268.848 L450.966 272.159 L441.151 272.159 L441.151 229.89 Z" fill="#000000" fill-rule="nonzero" fill-opacity="1" /><path clip-path="url(#clip500)" d="M474.808 247.274 Q478.165 247.992 480.04 250.261 Q481.938 252.529 481.938 255.862 Q481.938 260.978 478.419 263.779 Q474.901 266.58 468.419 266.58 Q466.243 266.58 463.929 266.14 Q461.637 265.723 459.183 264.867 L459.183 260.353 Q461.128 261.487 463.442 262.066 Q465.757 262.645 468.28 262.645 Q472.679 262.645 474.97 260.909 Q477.285 259.173 477.285 255.862 Q477.285 252.807 475.132 251.094 Q473.003 249.358 469.183 249.358 L465.155 249.358 L465.155 245.515 L469.368 245.515 Q472.817 245.515 474.646 244.149 Q476.475 242.761 476.475 240.168 Q476.475 237.506 474.577 236.094 Q472.702 234.659 469.183 234.659 Q467.262 234.659 465.063 235.075 Q462.864 235.492 460.225 236.372 L460.225 232.205 Q462.887 231.464 465.202 231.094 Q467.54 230.724 469.6 230.724 Q474.924 230.724 478.026 233.154 Q481.128 235.562 481.128 239.682 Q481.128 242.552 479.484 244.543 Q477.841 246.511 474.808 247.274 Z" fill="#000000" fill-rule="nonzero" fill-opacity="1" /><path clip-path="url(#clip500)" d="M500.155 229.89 L500.155 272.159 L490.34 272.159 L490.34 268.848 L495.873 268.848 L495.873 233.2 L490.34 233.2 L490.34 229.89 L500.155 229.89 Z" fill="#000000" fill-rule="nonzero" fill-opacity="1" /><polyline clip-path="url(#clip500)" style="stroke:#c271d2; stroke-linecap:round; stroke-linejoin:round; stroke-width:4; stroke-opacity:1; fill:none" points="239.009,300.469 386.48,300.469 "/>
<path clip-path="url(#clip500)" d="M411.058 307.517 L411.058 291.823 L415.318 291.823 L415.318 307.355 Q415.318 311.036 416.753 312.888 Q418.188 314.716 421.058 314.716 Q424.507 314.716 426.498 312.517 Q428.512 310.318 428.512 306.522 L428.512 291.823 L432.771 291.823 L432.771 317.749 L428.512 317.749 L428.512 313.767 Q426.961 316.128 424.901 317.286 Q422.864 318.42 420.156 318.42 Q415.688 318.42 413.373 315.642 Q411.058 312.864 411.058 307.517 M421.776 291.198 L421.776 291.198 Z" fill="#000000" fill-rule="nonzero" fill-opacity="1" /><path clip-path="url(#clip500)" d="M441.151 281.73 L450.966 281.73 L450.966 285.04 L445.41 285.04 L445.41 320.688 L450.966 320.688 L450.966 323.999 L441.151 323.999 L441.151 281.73 Z" fill="#000000" fill-rule="nonzero" fill-opacity="1" /><path clip-path="url(#clip500)" d="M473.489 287.263 L461.683 305.712 L473.489 305.712 L473.489 287.263 M472.262 283.189 L478.141 283.189 L478.141 305.712 L483.072 305.712 L483.072 309.601 L478.141 309.601 L478.141 317.749 L473.489 317.749 L473.489 309.601 L457.887 309.601 L457.887 305.087 L472.262 283.189 Z" fill="#000000" fill-rule="nonzero" fill-opacity="1" /><path clip-path="url(#clip500)" d="M500.155 281.73 L500.155 323.999 L490.34 323.999 L490.34 320.688 L495.873 320.688 L495.873 285.04 L490.34 285.04 L490.34 281.73 L500.155 281.73 Z" fill="#000000" fill-rule="nonzero" fill-opacity="1" /><polyline clip-path="url(#clip500)" style="stroke:#ac8d18; stroke-linecap:round; stroke-linejoin:round; stroke-width:4; stroke-opacity:1; fill:none" points="239.009,352.309 386.48,352.309 "/>
<path clip-path="url(#clip500)" d="M411.058 359.357 L411.058 343.663 L415.318 343.663 L415.318 359.195 Q415.318 362.876 416.753 364.728 Q418.188 366.556 421.058 366.556 Q424.507 366.556 426.498 364.357 Q428.512 362.158 428.512 358.362 L428.512 343.663 L432.771 343.663 L432.771 369.589 L428.512 369.589 L428.512 365.607 Q426.961 367.968 424.901 369.126 Q422.864 370.26 420.156 370.26 Q415.688 370.26 413.373 367.482 Q411.058 364.704 411.058 359.357 M421.776 343.038 L421.776 343.038 Z" fill="#000000" fill-rule="nonzero" fill-opacity="1" /><path clip-path="url(#clip500)" d="M441.151 333.57 L450.966 333.57 L450.966 336.88 L445.41 336.88 L445.41 372.528 L450.966 372.528 L450.966 375.839 L441.151 375.839 L441.151 333.57 Z" fill="#000000" fill-rule="nonzero" fill-opacity="1" /><path clip-path="url(#clip500)" d="M460.688 335.029 L479.044 335.029 L479.044 338.964 L464.97 338.964 L464.97 347.436 Q465.989 347.089 467.007 346.927 Q468.026 346.742 469.044 346.742 Q474.831 346.742 478.211 349.913 Q481.591 353.084 481.591 358.501 Q481.591 364.079 478.118 367.181 Q474.646 370.26 468.327 370.26 Q466.151 370.26 463.882 369.89 Q461.637 369.519 459.23 368.778 L459.23 364.079 Q461.313 365.214 463.535 365.769 Q465.757 366.325 468.234 366.325 Q472.239 366.325 474.577 364.218 Q476.915 362.112 476.915 358.501 Q476.915 354.89 474.577 352.783 Q472.239 350.677 468.234 350.677 Q466.359 350.677 464.484 351.093 Q462.632 351.51 460.688 352.39 L460.688 335.029 Z" fill="#000000" fill-rule="nonzero" fill-opacity="1" /><path clip-path="url(#clip500)" d="M500.155 333.57 L500.155 375.839 L490.34 375.839 L490.34 372.528 L495.873 372.528 L495.873 336.88 L490.34 336.88 L490.34 333.57 L500.155 333.57 Z" fill="#000000" fill-rule="nonzero" fill-opacity="1" /><polyline clip-path="url(#clip500)" style="stroke:#00a9ad; stroke-linecap:round; stroke-linejoin:round; stroke-width:4; stroke-opacity:1; fill:none" points="239.009,404.149 386.48,404.149 "/>
<path clip-path="url(#clip500)" d="M411.058 411.197 L411.058 395.503 L415.318 395.503 L415.318 411.035 Q415.318 414.716 416.753 416.568 Q418.188 418.396 421.058 418.396 Q424.507 418.396 426.498 416.197 Q428.512 413.998 428.512 410.202 L428.512 395.503 L432.771 395.503 L432.771 421.429 L428.512 421.429 L428.512 417.447 Q426.961 419.808 424.901 420.966 Q422.864 422.1 420.156 422.1 Q415.688 422.1 413.373 419.322 Q411.058 416.544 411.058 411.197 M421.776 394.878 L421.776 394.878 Z" fill="#000000" fill-rule="nonzero" fill-opacity="1" /><path clip-path="url(#clip500)" d="M441.151 385.41 L450.966 385.41 L450.966 388.72 L445.41 388.72 L445.41 424.368 L450.966 424.368 L450.966 427.679 L441.151 427.679 L441.151 385.41 Z" fill="#000000" fill-rule="nonzero" fill-opacity="1" /><path clip-path="url(#clip500)" d="M471.22 402.285 Q468.072 402.285 466.22 404.438 Q464.392 406.591 464.392 410.341 Q464.392 414.068 466.22 416.243 Q468.072 418.396 471.22 418.396 Q474.368 418.396 476.197 416.243 Q478.049 414.068 478.049 410.341 Q478.049 406.591 476.197 404.438 Q474.368 402.285 471.22 402.285 M480.503 387.633 L480.503 391.892 Q478.743 391.058 476.938 390.619 Q475.155 390.179 473.396 390.179 Q468.766 390.179 466.313 393.304 Q463.882 396.429 463.535 402.748 Q464.901 400.734 466.961 399.669 Q469.021 398.582 471.498 398.582 Q476.706 398.582 479.716 401.753 Q482.748 404.901 482.748 410.341 Q482.748 415.665 479.6 418.882 Q476.452 422.1 471.22 422.1 Q465.225 422.1 462.054 417.517 Q458.882 412.91 458.882 404.183 Q458.882 395.989 462.771 391.128 Q466.66 386.244 473.211 386.244 Q474.97 386.244 476.753 386.591 Q478.558 386.938 480.503 387.633 Z" fill="#000000" fill-rule="nonzero" fill-opacity="1" /><path clip-path="url(#clip500)" d="M500.155 385.41 L500.155 427.679 L490.34 427.679 L490.34 424.368 L495.873 424.368 L495.873 388.72 L490.34 388.72 L490.34 385.41 L500.155 385.41 Z" fill="#000000" fill-rule="nonzero" fill-opacity="1" /><polyline clip-path="url(#clip500)" style="stroke:#ed5d92; stroke-linecap:round; stroke-linejoin:round; stroke-width:4; stroke-opacity:1; fill:none" points="239.009,455.989 386.48,455.989 "/>
<path clip-path="url(#clip500)" d="M411.058 463.037 L411.058 447.343 L415.318 447.343 L415.318 462.875 Q415.318 466.556 416.753 468.408 Q418.188 470.236 421.058 470.236 Q424.507 470.236 426.498 468.037 Q428.512 465.838 428.512 462.042 L428.512 447.343 L432.771 447.343 L432.771 473.269 L428.512 473.269 L428.512 469.287 Q426.961 471.648 424.901 472.806 Q422.864 473.94 420.156 473.94 Q415.688 473.94 413.373 471.162 Q411.058 468.384 411.058 463.037 M421.776 446.718 L421.776 446.718 Z" fill="#000000" fill-rule="nonzero" fill-opacity="1" /><path clip-path="url(#clip500)" d="M441.151 437.25 L450.966 437.25 L450.966 440.56 L445.41 440.56 L445.41 476.208 L450.966 476.208 L450.966 479.519 L441.151 479.519 L441.151 437.25 Z" fill="#000000" fill-rule="nonzero" fill-opacity="1" /><path clip-path="url(#clip500)" d="M459.461 438.709 L481.683 438.709 L481.683 440.699 L469.137 473.269 L464.253 473.269 L476.058 442.644 L459.461 442.644 L459.461 438.709 Z" fill="#000000" fill-rule="nonzero" fill-opacity="1" /><path clip-path="url(#clip500)" d="M500.155 437.25 L500.155 479.519 L490.34 479.519 L490.34 476.208 L495.873 476.208 L495.873 440.56 L490.34 440.56 L490.34 437.25 L500.155 437.25 Z" fill="#000000" fill-rule="nonzero" fill-opacity="1" /><polyline clip-path="url(#clip500)" style="stroke:#c68125; stroke-linecap:round; stroke-linejoin:round; stroke-width:4; stroke-opacity:1; fill:none" points="239.009,507.829 386.48,507.829 "/>
<path clip-path="url(#clip500)" d="M411.058 514.877 L411.058 499.183 L415.318 499.183 L415.318 514.715 Q415.318 518.396 416.753 520.248 Q418.188 522.076 421.058 522.076 Q424.507 522.076 426.498 519.877 Q428.512 517.678 428.512 513.882 L428.512 499.183 L432.771 499.183 L432.771 525.109 L428.512 525.109 L428.512 521.127 Q426.961 523.488 424.901 524.646 Q422.864 525.78 420.156 525.78 Q415.688 525.78 413.373 523.002 Q411.058 520.224 411.058 514.877 M421.776 498.558 L421.776 498.558 Z" fill="#000000" fill-rule="nonzero" fill-opacity="1" /><path clip-path="url(#clip500)" d="M441.151 489.09 L450.966 489.09 L450.966 492.4 L445.41 492.4 L445.41 528.048 L450.966 528.048 L450.966 531.359 L441.151 531.359 L441.151 489.09 Z" fill="#000000" fill-rule="nonzero" fill-opacity="1" /><path clip-path="url(#clip500)" d="M470.641 508.697 Q467.308 508.697 465.387 510.479 Q463.489 512.261 463.489 515.386 Q463.489 518.511 465.387 520.294 Q467.308 522.076 470.641 522.076 Q473.975 522.076 475.896 520.294 Q477.817 518.488 477.817 515.386 Q477.817 512.261 475.896 510.479 Q473.998 508.697 470.641 508.697 M465.966 506.706 Q462.956 505.965 461.267 503.905 Q459.6 501.845 459.6 498.882 Q459.6 494.738 462.54 492.331 Q465.503 489.924 470.641 489.924 Q475.803 489.924 478.743 492.331 Q481.683 494.738 481.683 498.882 Q481.683 501.845 479.993 503.905 Q478.327 505.965 475.341 506.706 Q478.72 507.493 480.595 509.785 Q482.493 512.076 482.493 515.386 Q482.493 520.41 479.415 523.095 Q476.359 525.78 470.641 525.78 Q464.924 525.78 461.845 523.095 Q458.79 520.41 458.79 515.386 Q458.79 512.076 460.688 509.785 Q462.586 507.493 465.966 506.706 M464.253 499.322 Q464.253 502.007 465.919 503.512 Q467.609 505.016 470.641 505.016 Q473.651 505.016 475.341 503.512 Q477.053 502.007 477.053 499.322 Q477.053 496.637 475.341 495.132 Q473.651 493.627 470.641 493.627 Q467.609 493.627 465.919 495.132 Q464.253 496.637 464.253 499.322 Z" fill="#000000" fill-rule="nonzero" fill-opacity="1" /><path clip-path="url(#clip500)" d="M500.155 489.09 L500.155 531.359 L490.34 531.359 L490.34 528.048 L495.873 528.048 L495.873 492.4 L490.34 492.4 L490.34 489.09 L500.155 489.09 Z" fill="#000000" fill-rule="nonzero" fill-opacity="1" /><polyline clip-path="url(#clip500)" style="stroke:#00a98d; stroke-linecap:round; stroke-linejoin:round; stroke-width:4; stroke-opacity:1; fill:none" points="239.009,559.669 386.48,559.669 "/>
<path clip-path="url(#clip500)" d="M411.058 566.717 L411.058 551.023 L415.318 551.023 L415.318 566.555 Q415.318 570.236 416.753 572.088 Q418.188 573.916 421.058 573.916 Q424.507 573.916 426.498 571.717 Q428.512 569.518 428.512 565.722 L428.512 551.023 L432.771 551.023 L432.771 576.949 L428.512 576.949 L428.512 572.967 Q426.961 575.328 424.901 576.486 Q422.864 577.62 420.156 577.62 Q415.688 577.62 413.373 574.842 Q411.058 572.064 411.058 566.717 M421.776 550.398 L421.776 550.398 Z" fill="#000000" fill-rule="nonzero" fill-opacity="1" /><path clip-path="url(#clip500)" d="M441.151 540.93 L450.966 540.93 L450.966 544.24 L445.41 544.24 L445.41 579.888 L450.966 579.888 L450.966 583.199 L441.151 583.199 L441.151 540.93 Z" fill="#000000" fill-rule="nonzero" fill-opacity="1" /><path clip-path="url(#clip500)" d="M460.78 576.231 L460.78 571.972 Q462.54 572.805 464.345 573.245 Q466.151 573.685 467.887 573.685 Q472.516 573.685 474.947 570.583 Q477.401 567.458 477.748 561.115 Q476.405 563.106 474.345 564.171 Q472.285 565.236 469.785 565.236 Q464.6 565.236 461.567 562.111 Q458.558 558.963 458.558 553.523 Q458.558 548.199 461.706 544.981 Q464.854 541.764 470.086 541.764 Q476.081 541.764 479.229 546.37 Q482.401 550.953 482.401 559.703 Q482.401 567.875 478.512 572.759 Q474.646 577.62 468.095 577.62 Q466.336 577.62 464.53 577.273 Q462.725 576.925 460.78 576.231 M470.086 561.578 Q473.234 561.578 475.063 559.426 Q476.915 557.273 476.915 553.523 Q476.915 549.796 475.063 547.643 Q473.234 545.467 470.086 545.467 Q466.938 545.467 465.086 547.643 Q463.257 549.796 463.257 553.523 Q463.257 557.273 465.086 559.426 Q466.938 561.578 470.086 561.578 Z" fill="#000000" fill-rule="nonzero" fill-opacity="1" /><path clip-path="url(#clip500)" d="M500.155 540.93 L500.155 583.199 L490.34 583.199 L490.34 579.888 L495.873 579.888 L495.873 544.24 L490.34 544.24 L490.34 540.93 L500.155 540.93 Z" fill="#000000" fill-rule="nonzero" fill-opacity="1" /><polyline clip-path="url(#clip500)" style="stroke:#8e971d; stroke-linecap:round; stroke-linejoin:round; stroke-width:4; stroke-opacity:1; fill:none" points="239.009,611.509 386.48,611.509 "/>
<path clip-path="url(#clip500)" d="M411.058 618.557 L411.058 602.863 L415.318 602.863 L415.318 618.395 Q415.318 622.076 416.753 623.928 Q418.188 625.756 421.058 625.756 Q424.507 625.756 426.498 623.557 Q428.512 621.358 428.512 617.562 L428.512 602.863 L432.771 602.863 L432.771 628.789 L428.512 628.789 L428.512 624.807 Q426.961 627.168 424.901 628.326 Q422.864 629.46 420.156 629.46 Q415.688 629.46 413.373 626.682 Q411.058 623.904 411.058 618.557 M421.776 602.238 L421.776 602.238 Z" fill="#000000" fill-rule="nonzero" fill-opacity="1" /><path clip-path="url(#clip500)" d="M441.151 592.77 L450.966 592.77 L450.966 596.08 L445.41 596.08 L445.41 631.728 L450.966 631.728 L450.966 635.039 L441.151 635.039 L441.151 592.77 Z" fill="#000000" fill-rule="nonzero" fill-opacity="1" /><path clip-path="url(#clip500)" d="M461.452 624.853 L469.091 624.853 L469.091 598.488 L460.78 600.155 L460.78 595.895 L469.044 594.229 L473.72 594.229 L473.72 624.853 L481.359 624.853 L481.359 628.789 L461.452 628.789 L461.452 624.853 Z" fill="#000000" fill-rule="nonzero" fill-opacity="1" /><path clip-path="url(#clip500)" d="M500.803 597.307 Q497.192 597.307 495.364 600.872 Q493.558 604.414 493.558 611.543 Q493.558 618.65 495.364 622.215 Q497.192 625.756 500.803 625.756 Q504.438 625.756 506.243 622.215 Q508.072 618.65 508.072 611.543 Q508.072 604.414 506.243 600.872 Q504.438 597.307 500.803 597.307 M500.803 593.604 Q506.614 593.604 509.669 598.21 Q512.748 602.793 512.748 611.543 Q512.748 620.27 509.669 624.877 Q506.614 629.46 500.803 629.46 Q494.993 629.46 491.915 624.877 Q488.859 620.27 488.859 611.543 Q488.859 602.793 491.915 598.21 Q494.993 593.604 500.803 593.604 Z" fill="#000000" fill-rule="nonzero" fill-opacity="1" /><path clip-path="url(#clip500)" d="M530.317 592.77 L530.317 635.039 L520.502 635.039 L520.502 631.728 L526.035 631.728 L526.035 596.08 L520.502 596.08 L520.502 592.77 L530.317 592.77 Z" fill="#000000" fill-rule="nonzero" fill-opacity="1" /></svg>
