<?xml version="1.0" encoding="utf-8"?>
<svg xmlns="http://www.w3.org/2000/svg" xmlns:xlink="http://www.w3.org/1999/xlink" width="600" height="400" viewBox="0 0 2400 1600">
<defs>
  <clipPath id="clip610">
    <rect x="0" y="0" width="2400" height="1600"/>
  </clipPath>
</defs>
<path clip-path="url(#clip610)" d="M0 1600 L2400 1600 L2400 0 L0 0  Z" fill="#ffffff" fill-rule="evenodd" fill-opacity="1"/>
<defs>
  <clipPath id="clip611">
    <rect x="110" y="47" width="2243" height="1440"/>
  </clipPath>
</defs>
<path clip-path="url(#clip610)" d="M110.858 1486.45 L2352.76 1486.45 L2352.76 47.2441 L110.858 47.2441  Z" fill="#ffffff" fill-rule="evenodd" fill-opacity="1"/>
<polyline clip-path="url(#clip611)" style="stroke:#000000; stroke-linecap:round; stroke-linejoin:round; stroke-width:2; stroke-opacity:0.1; fill:none" points="172.5,1486.45 172.5,47.2441 "/>
<polyline clip-path="url(#clip611)" style="stroke:#000000; stroke-linecap:round; stroke-linejoin:round; stroke-width:2; stroke-opacity:0.1; fill:none" points="624.423,1486.45 624.423,47.2441 "/>
<polyline clip-path="url(#clip611)" style="stroke:#000000; stroke-linecap:round; stroke-linejoin:round; stroke-width:2; stroke-opacity:0.1; fill:none" points="1076.35,1486.45 1076.35,47.2441 "/>
<polyline clip-path="url(#clip611)" style="stroke:#000000; stroke-linecap:round; stroke-linejoin:round; stroke-width:2; stroke-opacity:0.1; fill:none" points="1528.27,1486.45 1528.27,47.2441 "/>
<polyline clip-path="url(#clip611)" style="stroke:#000000; stroke-linecap:round; stroke-linejoin:round; stroke-width:2; stroke-opacity:0.1; fill:none" points="1980.19,1486.45 1980.19,47.2441 "/>
<polyline clip-path="url(#clip611)" style="stroke:#000000; stroke-linecap:round; stroke-linejoin:round; stroke-width:2; stroke-opacity:0.1; fill:none" points="110.858,1445.72 2352.76,1445.72 "/>
<polyline clip-path="url(#clip611)" style="stroke:#000000; stroke-linecap:round; stroke-linejoin:round; stroke-width:2; stroke-opacity:0.1; fill:none" points="110.858,1050.31 2352.76,1050.31 "/>
<polyline clip-path="url(#clip611)" style="stroke:#000000; stroke-linecap:round; stroke-linejoin:round; stroke-width:2; stroke-opacity:0.1; fill:none" points="110.858,654.913 2352.76,654.913 "/>
<polyline clip-path="url(#clip611)" style="stroke:#000000; stroke-linecap:round; stroke-linejoin:round; stroke-width:2; stroke-opacity:0.1; fill:none" points="110.858,259.512 2352.76,259.512 "/>
<polyline clip-path="url(#clip610)" style="stroke:#000000; stroke-linecap:round; stroke-linejoin:round; stroke-width:4; stroke-opacity:1; fill:none" points="110.858,1486.45 2352.76,1486.45 "/>
<polyline clip-path="url(#clip610)" style="stroke:#000000; stroke-linecap:round; stroke-linejoin:round; stroke-width:4; stroke-opacity:1; fill:none" points="172.5,1486.45 172.5,1467.55 "/>
<polyline clip-path="url(#clip610)" style="stroke:#000000; stroke-linecap:round; stroke-linejoin:round; stroke-width:4; stroke-opacity:1; fill:none" points="624.423,1486.45 624.423,1467.55 "/>
<polyline clip-path="url(#clip610)" style="stroke:#000000; stroke-linecap:round; stroke-linejoin:round; stroke-width:4; stroke-opacity:1; fill:none" points="1076.35,1486.45 1076.35,1467.55 "/>
<polyline clip-path="url(#clip610)" style="stroke:#000000; stroke-linecap:round; stroke-linejoin:round; stroke-width:4; stroke-opacity:1; fill:none" points="1528.27,1486.45 1528.27,1467.55 "/>
<polyline clip-path="url(#clip610)" style="stroke:#000000; stroke-linecap:round; stroke-linejoin:round; stroke-width:4; stroke-opacity:1; fill:none" points="1980.19,1486.45 1980.19,1467.55 "/>
<path clip-path="url(#clip610)" d="M172.5 1517.37 Q168.889 1517.37 167.06 1520.93 Q165.255 1524.47 165.255 1531.6 Q165.255 1538.71 167.06 1542.27 Q168.889 1545.82 172.5 1545.82 Q176.134 1545.82 177.94 1542.27 Q179.768 1538.71 179.768 1531.6 Q179.768 1524.47 177.94 1520.93 Q176.134 1517.37 172.5 1517.37 M172.5 1513.66 Q178.31 1513.66 181.366 1518.27 Q184.444 1522.85 184.444 1531.6 Q184.444 1540.33 181.366 1544.94 Q178.31 1549.52 172.5 1549.52 Q166.69 1549.52 163.611 1544.94 Q160.556 1540.33 160.556 1531.6 Q160.556 1522.85 163.611 1518.27 Q166.69 1513.66 172.5 1513.66 Z" fill="#000000" fill-rule="nonzero" fill-opacity="1" /><path clip-path="url(#clip610)" d="M588.115 1544.91 L604.434 1544.91 L604.434 1548.85 L582.49 1548.85 L582.49 1544.91 Q585.152 1542.16 589.735 1537.53 Q594.342 1532.88 595.522 1531.53 Q597.768 1529.01 598.647 1527.27 Q599.55 1525.51 599.55 1523.82 Q599.55 1521.07 597.606 1519.33 Q595.684 1517.6 592.583 1517.6 Q590.384 1517.6 587.93 1518.36 Q585.499 1519.13 582.722 1520.68 L582.722 1515.95 Q585.546 1514.82 587.999 1514.24 Q590.453 1513.66 592.49 1513.66 Q597.86 1513.66 601.055 1516.35 Q604.249 1519.03 604.249 1523.52 Q604.249 1525.65 603.439 1527.57 Q602.652 1529.47 600.546 1532.07 Q599.967 1532.74 596.865 1535.95 Q593.763 1539.15 588.115 1544.91 Z" fill="#000000" fill-rule="nonzero" fill-opacity="1" /><path clip-path="url(#clip610)" d="M614.295 1514.29 L632.652 1514.29 L632.652 1518.22 L618.578 1518.22 L618.578 1526.7 Q619.596 1526.35 620.615 1526.19 Q621.633 1526 622.652 1526 Q628.439 1526 631.818 1529.17 Q635.198 1532.34 635.198 1537.76 Q635.198 1543.34 631.726 1546.44 Q628.254 1549.52 621.934 1549.52 Q619.758 1549.52 617.49 1549.15 Q615.245 1548.78 612.837 1548.04 L612.837 1543.34 Q614.92 1544.47 617.143 1545.03 Q619.365 1545.58 621.842 1545.58 Q625.846 1545.58 628.184 1543.48 Q630.522 1541.37 630.522 1537.76 Q630.522 1534.15 628.184 1532.04 Q625.846 1529.94 621.842 1529.94 Q619.967 1529.94 618.092 1530.35 Q616.24 1530.77 614.295 1531.65 L614.295 1514.29 Z" fill="#000000" fill-rule="nonzero" fill-opacity="1" /><path clip-path="url(#clip610)" d="M654.411 1517.37 Q650.8 1517.37 648.971 1520.93 Q647.166 1524.47 647.166 1531.6 Q647.166 1538.71 648.971 1542.27 Q650.8 1545.82 654.411 1545.82 Q658.045 1545.82 659.851 1542.27 Q661.679 1538.71 661.679 1531.6 Q661.679 1524.47 659.851 1520.93 Q658.045 1517.37 654.411 1517.37 M654.411 1513.66 Q660.221 1513.66 663.277 1518.27 Q666.355 1522.85 666.355 1531.6 Q666.355 1540.33 663.277 1544.94 Q660.221 1549.52 654.411 1549.52 Q648.601 1549.52 645.522 1544.94 Q642.467 1540.33 642.467 1531.6 Q642.467 1522.85 645.522 1518.27 Q648.601 1513.66 654.411 1513.66 Z" fill="#000000" fill-rule="nonzero" fill-opacity="1" /><path clip-path="url(#clip610)" d="M1035.96 1514.29 L1054.32 1514.29 L1054.32 1518.22 L1040.25 1518.22 L1040.25 1526.7 Q1041.26 1526.35 1042.28 1526.19 Q1043.3 1526 1044.32 1526 Q1050.11 1526 1053.49 1529.17 Q1056.87 1532.34 1056.87 1537.76 Q1056.87 1543.34 1053.39 1546.44 Q1049.92 1549.52 1043.6 1549.52 Q1041.43 1549.52 1039.16 1549.15 Q1036.91 1548.78 1034.51 1548.04 L1034.51 1543.34 Q1036.59 1544.47 1038.81 1545.03 Q1041.03 1545.58 1043.51 1545.58 Q1047.51 1545.58 1049.85 1543.48 Q1052.19 1541.37 1052.19 1537.76 Q1052.19 1534.15 1049.85 1532.04 Q1047.51 1529.94 1043.51 1529.94 Q1041.63 1529.94 1039.76 1530.35 Q1037.91 1530.77 1035.96 1531.65 L1035.96 1514.29 Z" fill="#000000" fill-rule="nonzero" fill-opacity="1" /><path clip-path="url(#clip610)" d="M1076.08 1517.37 Q1072.47 1517.37 1070.64 1520.93 Q1068.83 1524.47 1068.83 1531.6 Q1068.83 1538.71 1070.64 1542.27 Q1072.47 1545.82 1076.08 1545.82 Q1079.71 1545.82 1081.52 1542.27 Q1083.35 1538.71 1083.35 1531.6 Q1083.35 1524.47 1081.52 1520.93 Q1079.71 1517.37 1076.08 1517.37 M1076.08 1513.66 Q1081.89 1513.66 1084.94 1518.27 Q1088.02 1522.85 1088.02 1531.6 Q1088.02 1540.33 1084.94 1544.94 Q1081.89 1549.52 1076.08 1549.52 Q1070.27 1549.52 1067.19 1544.94 Q1064.13 1540.33 1064.13 1531.6 Q1064.13 1522.85 1067.19 1518.27 Q1070.27 1513.66 1076.08 1513.66 Z" fill="#000000" fill-rule="nonzero" fill-opacity="1" /><path clip-path="url(#clip610)" d="M1106.24 1517.37 Q1102.63 1517.37 1100.8 1520.93 Q1099 1524.47 1099 1531.6 Q1099 1538.71 1100.8 1542.27 Q1102.63 1545.82 1106.24 1545.82 Q1109.88 1545.82 1111.68 1542.27 Q1113.51 1538.71 1113.51 1531.6 Q1113.51 1524.47 1111.68 1520.93 Q1109.88 1517.37 1106.24 1517.37 M1106.24 1513.66 Q1112.05 1513.66 1115.11 1518.27 Q1118.19 1522.85 1118.19 1531.6 Q1118.19 1540.33 1115.11 1544.94 Q1112.05 1549.52 1106.24 1549.52 Q1100.43 1549.52 1097.35 1544.94 Q1094.3 1540.33 1094.3 1531.6 Q1094.3 1522.85 1097.35 1518.27 Q1100.43 1513.66 1106.24 1513.66 Z" fill="#000000" fill-rule="nonzero" fill-opacity="1" /><path clip-path="url(#clip610)" d="M1486.54 1514.29 L1508.77 1514.29 L1508.77 1516.28 L1496.22 1548.85 L1491.34 1548.85 L1503.14 1518.22 L1486.54 1518.22 L1486.54 1514.29 Z" fill="#000000" fill-rule="nonzero" fill-opacity="1" /><path clip-path="url(#clip610)" d="M1517.93 1514.29 L1536.29 1514.29 L1536.29 1518.22 L1522.21 1518.22 L1522.21 1526.7 Q1523.23 1526.35 1524.25 1526.19 Q1525.27 1526 1526.29 1526 Q1532.08 1526 1535.46 1529.17 Q1538.84 1532.34 1538.84 1537.76 Q1538.84 1543.34 1535.36 1546.44 Q1531.89 1549.52 1525.57 1549.52 Q1523.4 1549.52 1521.13 1549.15 Q1518.88 1548.78 1516.47 1548.04 L1516.47 1543.34 Q1518.56 1544.47 1520.78 1545.03 Q1523 1545.58 1525.48 1545.58 Q1529.48 1545.58 1531.82 1543.48 Q1534.16 1541.37 1534.16 1537.76 Q1534.16 1534.15 1531.82 1532.04 Q1529.48 1529.94 1525.48 1529.94 Q1523.6 1529.94 1521.73 1530.35 Q1519.88 1530.77 1517.93 1531.65 L1517.93 1514.29 Z" fill="#000000" fill-rule="nonzero" fill-opacity="1" /><path clip-path="url(#clip610)" d="M1558.05 1517.37 Q1554.44 1517.37 1552.61 1520.93 Q1550.8 1524.47 1550.8 1531.6 Q1550.8 1538.71 1552.61 1542.27 Q1554.44 1545.82 1558.05 1545.82 Q1561.68 1545.82 1563.49 1542.27 Q1565.32 1538.71 1565.32 1531.6 Q1565.32 1524.47 1563.49 1520.93 Q1561.68 1517.37 1558.05 1517.37 M1558.05 1513.66 Q1563.86 1513.66 1566.91 1518.27 Q1569.99 1522.85 1569.99 1531.6 Q1569.99 1540.33 1566.91 1544.94 Q1563.86 1549.52 1558.05 1549.52 Q1552.24 1549.52 1549.16 1544.94 Q1546.1 1540.33 1546.1 1531.6 Q1546.1 1522.85 1549.16 1518.27 Q1552.24 1513.66 1558.05 1513.66 Z" fill="#000000" fill-rule="nonzero" fill-opacity="1" /><path clip-path="url(#clip610)" d="M1924.72 1544.91 L1932.36 1544.91 L1932.36 1518.55 L1924.05 1520.21 L1924.05 1515.95 L1932.31 1514.29 L1936.99 1514.29 L1936.99 1544.91 L1944.62 1544.91 L1944.62 1548.85 L1924.72 1548.85 L1924.72 1544.91 Z" fill="#000000" fill-rule="nonzero" fill-opacity="1" /><path clip-path="url(#clip610)" d="M1964.07 1517.37 Q1960.46 1517.37 1958.63 1520.93 Q1956.82 1524.47 1956.82 1531.6 Q1956.82 1538.71 1958.63 1542.27 Q1960.46 1545.82 1964.07 1545.82 Q1967.7 1545.82 1969.51 1542.27 Q1971.34 1538.71 1971.34 1531.6 Q1971.34 1524.47 1969.51 1520.93 Q1967.7 1517.37 1964.07 1517.37 M1964.07 1513.66 Q1969.88 1513.66 1972.93 1518.27 Q1976.01 1522.85 1976.01 1531.6 Q1976.01 1540.33 1972.93 1544.94 Q1969.88 1549.52 1964.07 1549.52 Q1958.26 1549.52 1955.18 1544.94 Q1952.12 1540.33 1952.12 1531.6 Q1952.12 1522.85 1955.18 1518.27 Q1958.26 1513.66 1964.07 1513.66 Z" fill="#000000" fill-rule="nonzero" fill-opacity="1" /><path clip-path="url(#clip610)" d="M1994.23 1517.37 Q1990.62 1517.37 1988.79 1520.93 Q1986.98 1524.47 1986.98 1531.6 Q1986.98 1538.71 1988.79 1542.27 Q1990.62 1545.82 1994.23 1545.82 Q1997.86 1545.82 1999.67 1542.27 Q2001.5 1538.71 2001.5 1531.6 Q2001.5 1524.47 1999.67 1520.93 Q1997.86 1517.37 1994.23 1517.37 M1994.23 1513.66 Q2000.04 1513.66 2003.1 1518.27 Q2006.17 1522.85 2006.17 1531.6 Q2006.17 1540.33 2003.1 1544.94 Q2000.04 1549.52 1994.23 1549.52 Q1988.42 1549.52 1985.34 1544.94 Q1982.29 1540.33 1982.29 1531.6 Q1982.29 1522.85 1985.34 1518.27 Q1988.42 1513.66 1994.23 1513.66 Z" fill="#000000" fill-rule="nonzero" fill-opacity="1" /><path clip-path="url(#clip610)" d="M2024.39 1517.37 Q2020.78 1517.37 2018.95 1520.93 Q2017.15 1524.47 2017.15 1531.6 Q2017.15 1538.71 2018.95 1542.27 Q2020.78 1545.82 2024.39 1545.82 Q2028.03 1545.82 2029.83 1542.27 Q2031.66 1538.71 2031.66 1531.6 Q2031.66 1524.47 2029.83 1520.93 Q2028.03 1517.37 2024.39 1517.37 M2024.39 1513.66 Q2030.2 1513.66 2033.26 1518.27 Q2036.34 1522.85 2036.34 1531.6 Q2036.34 1540.33 2033.26 1544.94 Q2030.2 1549.52 2024.39 1549.52 Q2018.58 1549.52 2015.5 1544.94 Q2012.45 1540.33 2012.45 1531.6 Q2012.45 1522.85 2015.5 1518.27 Q2018.58 1513.66 2024.39 1513.66 Z" fill="#000000" fill-rule="nonzero" fill-opacity="1" /><polyline clip-path="url(#clip610)" style="stroke:#000000; stroke-linecap:round; stroke-linejoin:round; stroke-width:4; stroke-opacity:1; fill:none" points="110.858,1486.45 110.858,47.2441 "/>
<polyline clip-path="url(#clip610)" style="stroke:#000000; stroke-linecap:round; stroke-linejoin:round; stroke-width:4; stroke-opacity:1; fill:none" points="110.858,1445.72 129.755,1445.72 "/>
<polyline clip-path="url(#clip610)" style="stroke:#000000; stroke-linecap:round; stroke-linejoin:round; stroke-width:4; stroke-opacity:1; fill:none" points="110.858,1050.31 129.755,1050.31 "/>
<polyline clip-path="url(#clip610)" style="stroke:#000000; stroke-linecap:round; stroke-linejoin:round; stroke-width:4; stroke-opacity:1; fill:none" points="110.858,654.913 129.755,654.913 "/>
<polyline clip-path="url(#clip610)" style="stroke:#000000; stroke-linecap:round; stroke-linejoin:round; stroke-width:4; stroke-opacity:1; fill:none" points="110.858,259.512 129.755,259.512 "/>
<path clip-path="url(#clip610)" d="M53.9551 1428.44 L72.3115 1428.44 L72.3115 1432.37 L58.2375 1432.37 L58.2375 1440.84 Q59.256 1440.5 60.2745 1440.33 Q61.293 1440.15 62.3115 1440.15 Q68.0985 1440.15 71.4781 1443.32 Q74.8577 1446.49 74.8577 1451.91 Q74.8577 1457.49 71.3855 1460.59 Q67.9133 1463.67 61.5939 1463.67 Q59.418 1463.67 57.1495 1463.3 Q54.9041 1462.93 52.4967 1462.19 L52.4967 1457.49 Q54.5801 1458.62 56.8023 1459.18 Q59.0245 1459.73 61.5013 1459.73 Q65.5059 1459.73 67.8439 1457.63 Q70.1818 1455.52 70.1818 1451.91 Q70.1818 1448.3 67.8439 1446.19 Q65.5059 1444.08 61.5013 1444.08 Q59.6263 1444.08 57.7513 1444.5 Q55.8995 1444.92 53.9551 1445.8 L53.9551 1428.44 Z" fill="#000000" fill-rule="nonzero" fill-opacity="1" /><path clip-path="url(#clip610)" d="M63.33 1048.45 Q60.1819 1048.45 58.33 1050.6 Q56.5014 1052.76 56.5014 1056.51 Q56.5014 1060.23 58.33 1062.41 Q60.1819 1064.56 63.33 1064.56 Q66.4782 1064.56 68.3068 1062.41 Q70.1587 1060.23 70.1587 1056.51 Q70.1587 1052.76 68.3068 1050.6 Q66.4782 1048.45 63.33 1048.45 M72.6124 1033.8 L72.6124 1038.06 Q70.8531 1037.22 69.0476 1036.78 Q67.2652 1036.34 65.5059 1036.34 Q60.8763 1036.34 58.4226 1039.47 Q55.9921 1042.59 55.6449 1048.91 Q57.0106 1046.9 59.0708 1045.84 Q61.131 1044.75 63.6078 1044.75 Q68.8161 1044.75 71.8253 1047.92 Q74.8577 1051.07 74.8577 1056.51 Q74.8577 1061.83 71.7096 1065.05 Q68.5615 1068.27 63.33 1068.27 Q57.3347 1068.27 54.1634 1063.68 Q50.9921 1059.08 50.9921 1050.35 Q50.9921 1042.15 54.881 1037.29 Q58.7699 1032.41 65.3208 1032.41 Q67.08 1032.41 68.8624 1032.76 Q70.6679 1033.1 72.6124 1033.8 Z" fill="#000000" fill-rule="nonzero" fill-opacity="1" /><path clip-path="url(#clip610)" d="M52.6356 637.633 L74.8577 637.633 L74.8577 639.624 L62.3115 672.193 L57.4273 672.193 L69.2328 641.568 L52.6356 641.568 L52.6356 637.633 Z" fill="#000000" fill-rule="nonzero" fill-opacity="1" /><path clip-path="url(#clip610)" d="M63.006 260.38 Q59.6726 260.38 57.7513 262.163 Q55.8532 263.945 55.8532 267.07 Q55.8532 270.195 57.7513 271.977 Q59.6726 273.76 63.006 273.76 Q66.3393 273.76 68.2606 271.977 Q70.1818 270.172 70.1818 267.07 Q70.1818 263.945 68.2606 262.163 Q66.3624 260.38 63.006 260.38 M58.33 258.389 Q55.3208 257.649 53.631 255.589 Q51.9643 253.528 51.9643 250.565 Q51.9643 246.422 54.9041 244.015 Q57.8671 241.607 63.006 241.607 Q68.168 241.607 71.1078 244.015 Q74.0476 246.422 74.0476 250.565 Q74.0476 253.528 72.3578 255.589 Q70.6911 257.649 67.705 258.389 Q71.0846 259.177 72.9596 261.468 Q74.8577 263.76 74.8577 267.07 Q74.8577 272.093 71.7791 274.778 Q68.7235 277.463 63.006 277.463 Q57.2884 277.463 54.2097 274.778 Q51.1542 272.093 51.1542 267.07 Q51.1542 263.76 53.0523 261.468 Q54.9504 259.177 58.33 258.389 M56.6171 251.005 Q56.6171 253.69 58.2838 255.195 Q59.9736 256.7 63.006 256.7 Q66.0152 256.7 67.705 255.195 Q69.418 253.69 69.418 251.005 Q69.418 248.32 67.705 246.815 Q66.0152 245.311 63.006 245.311 Q59.9736 245.311 58.2838 246.815 Q56.6171 248.32 56.6171 251.005 Z" fill="#000000" fill-rule="nonzero" fill-opacity="1" /><polyline clip-path="url(#clip611)" style="stroke:#009af9; stroke-linecap:round; stroke-linejoin:round; stroke-width:4; stroke-opacity:1; fill:none" points="174.308,1445.72 176.115,1445.72 177.923,1445.72 179.731,1248.02 181.538,1261.3 183.346,1261.3 185.154,1144.82 186.962,1196.47 188.769,1241.65 190.577,1241.65 192.385,1050.01 194.192,1111.82 196,1111.82 197.808,1013.99 199.615,1013.99 201.423,861.783 203.231,875.837 205.038,979.139 206.846,979.139 208.654,875.2 210.462,963.441 212.269,1050.86 214.077,1050.86 215.885,884.378 217.692,946.679 219.5,1037.14 221.308,1111.2 223.115,1171.84 224.923,1221.48 226.731,1221.48 228.538,1024.25 230.346,1099.93 232.154,1162.61 233.961,1162.61 235.769,972.789 237.577,980.608 239.385,980.608 241.192,841.757 243,879.606 244.808,982.225 246.615,982.225 248.423,861.055 250.231,925.519 252.038,1019.82 253.846,1019.82 255.654,937.363 257.461,939.532 259.269,1031.29 261.077,1031.29 262.885,946.498 264.692,946.498 266.5,860.872 268.308,887.425 270.115,887.425 271.923,762.495 273.731,802.502 275.538,919.097 277.346,1014.56 279.154,1014.56 280.961,1004.48 282.769,1057.97 284.577,1128.25 286.385,1128.25 288.192,895.84 290,988.563 291.808,1071.43 293.615,1139.28 295.423,1194.83 297.231,1240.3 299.038,1277.54 300.846,1277.54 302.654,1227.31 304.461,1229.87 306.269,1229.87 308.077,1046.14 309.884,1095.93 311.692,1095.93 313.5,973.798 315.308,1014.98 317.115,1093.06 318.923,1093.06 320.731,977.794 322.538,1009.56 324.346,1009.56 326.154,883.119 327.961,895.152 329.769,895.152 331.577,800.621 333.384,848.541 335.192,848.541 337,702.55 338.808,702.55 340.615,623.691 342.423,667.247 344.231,667.247 346.038,673.492 347.846,673.492 349.654,533.946 351.461,539.05 353.269,703.401 355.077,837.959 356.884,837.959 358.692,680.905 360.5,680.905 362.308,509.926 364.115,509.926 365.923,358.251 367.731,473.649 369.538,473.649 371.346,407.803 373.154,407.803 374.961,256.031 376.769,256.031 378.577,251.198 380.384,254.843 382.192,470.712 384,470.712 385.808,298.868 387.615,439.249 389.423,439.249 391.231,326.845 393.038,486.032 394.846,659.993 396.654,802.421 398.461,802.421 400.269,798.041 402.077,845.779 403.884,954.529 405.692,954.529 407.5,797.498 409.307,797.498 411.115,710.611 412.923,755.755 414.731,880.823 416.538,983.221 418.346,983.221 420.154,824.789 421.961,890.175 423.769,890.175 425.577,783.982 427.384,891.537 429.192,891.537 431,752.521 432.807,810.959 434.615,810.959 436.423,754.397 438.231,858.894 440.038,965.267 441.846,1052.36 443.654,1052.36 445.461,940.48 447.269,940.48 449.077,899.99 450.884,899.99 452.692,862.811 454.5,868.829 456.307,973.401 458.115,1059.02 459.923,1059.02 461.731,1049.27 463.538,1050.22 465.346,1050.22 467.154,980.743 468.961,980.743 470.769,880.765 472.577,895.49 474.384,995.229 476.192,995.229 478,932.926 479.807,1009.64 481.615,1009.64 483.423,777.776 485.231,777.776 487.038,714.751 488.846,714.751 490.654,736.192 492.461,746.977 494.269,746.977 496.077,618.912 497.884,693.857 499.692,830.146 501.5,830.146 503.307,741.157 505.115,745.149 506.923,872.14 508.73,872.14 510.538,683.404 512.346,763.933 514.154,887.519 515.961,988.703 517.769,988.703 519.577,798.797 521.384,854.867 523.192,961.969 525,1049.66 526.807,1121.45 528.615,1180.23 530.423,1228.35 532.23,1267.76 534.038,1267.76 535.846,1213.28 537.654,1213.28 539.461,985 541.269,990.442 543.077,1072.97 544.884,1072.97 546.692,1084.47 548.5,1084.47 550.307,974.764 552.115,974.764 553.923,780.201 555.73,794.074 557.538,912.197 559.346,912.197 561.154,762.324 562.961,831.104 564.769,831.104 566.577,678.778 568.384,767.749 570.192,767.749 572,576.37 573.807,576.37 575.615,406.925 577.423,514.608 579.23,683.389 581.038,683.389 582.846,586.857 584.654,634.944 586.461,781.912 588.269,781.912 590.077,684.136 591.884,711.692 593.692,844.748 595.5,953.685 597.307,1042.87 599.115,1042.87 600.923,1059.04 602.73,1059.04 604.538,944.202 606.346,964.514 608.153,1051.74 609.961,1051.74 611.769,1007.31 613.577,1007.31 615.384,836.062 617.192,863.299 619,968.873 620.807,1055.31 622.615,1126.08 624.423,1184.02 626.23,1231.46 628.038,1270.3 629.846,1302.09 631.653,1302.09 633.461,1125.6 635.269,1138.23 637.077,1193.97 638.884,1193.97 640.692,1031.21 642.5,1051.65 644.307,1051.65 646.115,879.559 647.923,890.367 649.73,991.035 651.538,991.035 653.346,914.794 655.153,915.506 656.961,1011.62 658.769,1090.31 660.577,1154.73 662.384,1154.73 664.192,1144.78 666,1171.44 667.807,1221.16 669.615,1221.16 671.423,1118.79 673.23,1157.17 675.038,1209.47 676.846,1252.3 678.653,1252.3 680.461,1068.64 682.269,1112.82 684.077,1173.17 685.884,1222.57 687.692,1222.57 689.5,1125.16 691.307,1155.7 693.115,1208.27 694.923,1251.31 696.73,1251.31 698.538,1069.51 700.346,1069.51 702.153,839.248 703.961,894.735 705.769,894.735 707.576,704.134 709.384,704.134 711.192,692.291 713,692.291 714.807,503.601 716.615,503.601 718.423,445.897 720.23,469.786 722.038,469.786 723.846,404.637 725.653,404.637 727.461,317.028 729.269,350.022 731.076,350.022 732.884,272.607 734.692,272.607 736.5,174.742 738.307,263.034 740.115,477.418 741.923,477.418 743.73,423.091 745.538,548.915 747.346,711.477 749.153,844.572 750.961,844.572 752.769,714.731 754.576,714.731 756.384,565.994 758.192,565.994 760,417.215 761.807,417.387 763.615,417.387 765.423,465.866 767.23,487.83 769.038,487.83 770.846,420.055 772.653,474.202 774.461,474.202 776.269,468.823 778.076,580.247 779.884,737.13 781.692,737.13 783.499,735.958 785.307,831.349 787.115,831.349 788.923,734.494 790.73,798.87 792.538,798.87 794.346,716.059 796.153,716.059 797.961,679.296 799.769,679.786 801.576,679.786 803.384,610.37 805.192,610.37 806.999,578.043 808.807,719.981 810.615,719.981 812.423,556.244 814.23,681.724 816.038,681.724 817.846,726.1 819.653,726.1 821.461,528.595 823.269,549.874 825.076,549.874 826.884,530.241 828.692,642.916 830.499,642.916 832.307,476.629 834.115,619.983 835.923,619.983 837.73,478.146 839.538,637.561 841.346,784.055 843.153,784.055 844.961,609.054 846.769,609.054 848.576,536.889 850.384,629.899 852.192,777.781 853.999,777.781 855.807,647.646 857.615,647.646 859.423,492.056 861.23,574.248 863.038,732.219 864.846,732.219 866.653,666.055 868.461,712.895 870.269,712.895 872.076,595.332 873.884,663.996 875.692,805.697 877.499,921.713 879.307,1016.7 881.115,1094.47 882.922,1094.47 884.73,1069.48 886.538,1069.48 888.346,911.59 890.153,935.523 891.961,935.523 893.769,812.092 895.576,838.564 897.384,948.622 899.192,948.622 900.999,891.574 902.807,891.574 904.615,856.401 906.422,897.403 908.23,996.796 910.038,996.796 911.846,866.501 913.653,887.709 915.461,887.709 917.269,739.194 919.076,811.348 920.884,926.34 922.692,1020.49 924.499,1097.57 926.307,1160.68 928.115,1212.34 929.922,1212.34 931.73,999.464 933.538,1037.77 935.346,1037.77 937.153,857.149 938.961,942.786 940.769,942.786 942.576,749.68 944.384,749.68 946.192,595.111 947.999,631.875 949.807,631.875 951.615,453.778 953.422,613.54 955.23,764.388 957.038,887.892 958.846,887.892 960.653,737.824 962.461,812.032 964.269,926.9 966.076,1020.95 967.884,1020.95 969.692,883.767 971.499,909.185 973.307,909.185 975.115,840.159 976.922,899.432 978.73,899.432 980.538,768.46 982.345,768.46 984.153,741.635 985.961,776.487 987.769,776.487 989.576,667.462 991.384,758.046 993.192,758.046 994.999,678.219 996.807,687.351 998.615,824.819 1000.42,937.369 1002.23,1029.52 1004.04,1029.52 1005.85,935.973 1007.65,951.671 1009.46,951.671 1011.27,794.955 1013.08,809.166 1014.88,809.166 1016.69,651.135 1018.5,651.135 1020.31,579.524 1022.11,691.789 1023.92,691.789 1025.73,478.232 1027.54,478.232 1029.35,386.009 1031.15,386.009 1032.96,211.215 1034.77,211.215 1036.58,130.411 1038.38,144.709 1040.19,144.709 1042,159.863 1043.81,310.741 1045.61,310.741 1047.42,271.972 1049.23,328.256 1051.04,530.817 1052.85,696.66 1054.65,832.441 1056.46,832.441 1058.27,740.976 1060.08,747.831 1061.88,747.831 1063.69,561.513 1065.5,561.513 1067.31,430.656 1069.11,430.656 1070.92,307.978 1072.73,307.978 1074.54,131.404 1076.35,143.728 1078.15,143.728 1079.96,87.9763 1081.77,239.193 1083.58,457.899 1085.38,457.899 1087.19,392.797 1089,534.278 1090.81,534.278 1092.61,528.768 1094.42,588.615 1096.23,743.981 1098.04,871.184 1099.85,975.329 1101.65,975.329 1103.46,930.574 1105.27,930.574 1107.08,798.133 1108.88,843.729 1110.69,843.729 1112.5,735.127 1114.31,854.089 1116.11,854.089 1117.92,778.788 1119.73,856.542 1121.54,963.341 1123.35,1050.78 1125.15,1050.78 1126.96,1006.34 1128.77,1051.4 1130.58,1122.88 1132.38,1122.88 1134.19,915.953 1136,967.032 1137.81,967.032 1139.61,739.59 1141.42,855.507 1143.23,855.507 1145.04,723.286 1146.85,726.215 1148.65,726.215 1150.46,626.914 1152.27,626.914 1154.08,508.011 1155.88,520.554 1157.69,520.554 1159.5,323.026 1161.31,526.364 1163.11,526.364 1164.92,503.416 1166.73,584.615 1168.54,584.615 1170.35,524.729 1172.15,636.479 1173.96,783.169 1175.77,783.169 1177.58,777.084 1179.38,830.506 1181.19,942.025 1183,942.025 1184.81,844.648 1186.61,844.648 1188.42,696.517 1190.23,747.754 1192.04,747.754 1193.85,560.421 1195.65,709.969 1197.46,709.969 1199.27,530.813 1201.08,530.813 1202.88,449.588 1204.69,573.413 1206.5,573.413 1208.31,537.088 1210.11,537.088 1211.92,395.837 1213.73,524.705 1215.54,691.656 1217.35,691.656 1219.15,582.904 1220.96,582.904 1222.77,491.371 1224.58,582.477 1226.38,738.956 1228.19,867.07 1230,971.96 1231.81,1057.84 1233.61,1128.15 1235.42,1185.71 1237.23,1232.84 1239.04,1232.84 1240.85,1183.43 1242.65,1196.2 1244.46,1196.2 1246.27,1090.78 1248.08,1090.78 1249.88,862.381 1251.69,928.558 1253.5,928.558 1255.31,705.853 1257.11,822.449 1258.92,935.428 1260.73,1027.93 1262.54,1103.66 1264.35,1103.66 1266.15,963.722 1267.96,970.913 1269.77,970.913 1271.58,806.941 1273.38,827.301 1275.19,939.401 1277,1031.18 1278.81,1031.18 1280.61,881.038 1282.42,923.482 1284.23,923.482 1286.04,767.956 1287.85,767.956 1289.65,620.794 1291.46,620.794 1293.27,470.981 1295.08,525.581 1296.88,525.581 1298.69,379.366 1300.5,520.916 1302.31,688.554 1304.11,825.804 1305.92,938.175 1307.73,1030.18 1309.54,1030.18 1311.35,913.292 1313.15,1007.98 1314.96,1087.32 1316.77,1152.29 1318.58,1205.48 1320.38,1249.03 1322.19,1249.03 1324,1156.28 1325.81,1172.85 1327.61,1222.31 1329.42,1262.81 1331.23,1262.81 1333.04,1070.87 1334.85,1128.84 1336.65,1186.28 1338.46,1186.28 1340.27,1068.51 1342.08,1079.94 1343.88,1079.94 1345.69,1028.76 1347.5,1076.15 1349.31,1143.14 1351.11,1143.14 1352.92,985.855 1354.73,1011.18 1356.54,1011.18 1358.35,863.914 1360.15,957.124 1361.96,957.124 1363.77,898.931 1365.58,934.866 1367.38,934.866 1369.19,883.25 1371,883.25 1372.81,691.893 1374.61,786.032 1376.42,905.612 1378.23,905.612 1380.04,791.398 1381.85,905.599 1383.65,905.599 1385.46,874.284 1387.27,970.633 1389.08,1056.75 1390.88,1056.75 1392.69,820.406 1394.5,932.573 1396.31,1025.59 1398.11,1025.59 1399.92,906.085 1401.73,959.134 1403.54,959.134 1405.35,934.84 1407.15,974.376 1408.96,1059.82 1410.77,1059.82 1412.58,885.198 1414.38,957.605 1416.19,957.605 1418,722.935 1419.81,850.82 1421.61,850.82 1423.42,666.255 1425.23,793.138 1427.04,911.431 1428.85,1008.28 1430.65,1008.28 1432.46,785.646 1434.27,785.646 1436.08,623.882 1437.88,709.531 1439.69,709.531 1441.5,531.695 1443.31,676.626 1445.11,816.038 1446.92,930.18 1448.73,1023.63 1450.54,1100.14 1452.35,1162.78 1454.15,1162.78 1455.96,1011.2 1457.77,1020.68 1459.58,1097.73 1461.38,1097.73 1463.19,962.793 1465,963.326 1466.81,1050.77 1468.61,1122.36 1470.42,1180.97 1472.23,1180.97 1474.04,1045.97 1475.85,1087.06 1477.65,1087.06 1479.46,951.139 1481.27,1014.02 1483.08,1092.28 1484.88,1092.28 1486.69,1017.94 1488.5,1017.94 1490.31,969.921 1492.11,1019.95 1493.92,1097.13 1495.73,1097.13 1497.54,1026.2 1499.35,1026.2 1501.15,957.875 1502.96,981.034 1504.77,981.034 1506.58,958.82 1508.38,1031.64 1510.19,1031.64 1512,1035.82 1513.81,1070.5 1515.61,1138.52 1517.42,1194.2 1519.23,1194.2 1521.04,1060.21 1522.85,1096.54 1524.65,1159.84 1526.46,1211.66 1528.27,1211.66 1530.08,1038.02 1531.88,1073.67 1533.69,1073.67 1535.5,930.879 1537.31,951.225 1539.11,1040.86 1540.92,1114.25 1542.73,1174.33 1544.54,1223.53 1546.35,1263.8 1548.15,1296.78 1549.96,1296.78 1551.77,1147.44 1553.58,1147.44 1555.38,1065.68 1557.19,1068.34 1559,1136.75 1560.81,1192.76 1562.61,1238.61 1564.42,1238.61 1566.23,1191.76 1568.04,1199.47 1569.85,1244.11 1571.65,1244.11 1573.46,1140.58 1575.27,1175.68 1577.08,1175.68 1578.88,1097.4 1580.69,1110.45 1582.5,1171.23 1584.31,1220.98 1586.11,1261.72 1587.92,1295.07 1589.73,1322.38 1591.54,1344.74 1593.34,1363.04 1595.15,1378.03 1596.96,1378.03 1598.77,1190.43 1600.58,1200.03 1602.38,1244.57 1604.19,1244.57 1606,1076.9 1607.81,1090.76 1609.61,1090.76 1611.42,1054.08 1613.23,1122.46 1615.04,1181.06 1616.84,1181.06 1618.65,996.323 1620.46,1058.83 1622.27,1128.96 1624.08,1128.96 1625.88,961.716 1627.69,961.716 1629.5,916.416 1631.31,930.29 1633.11,1023.72 1634.92,1023.72 1636.73,847.965 1638.54,847.965 1640.34,727.537 1642.15,783.675 1643.96,783.675 1645.77,628.25 1647.58,628.25 1649.38,544.917 1651.19,622.355 1653,622.355 1654.81,468.291 1656.61,600.683 1658.42,753.861 1660.23,753.861 1662.04,672.322 1663.84,684.749 1665.65,684.749 1667.46,574.113 1669.27,639.914 1671.08,639.914 1672.88,599.047 1674.69,634.43 1676.5,634.43 1678.31,540.571 1680.11,640.853 1681.92,786.75 1683.73,786.75 1685.54,797.132 1687.34,831.284 1689.15,831.284 1690.96,679.655 1692.77,679.655 1694.58,562.338 1696.38,662.508 1698.19,662.508 1700,552.489 1701.81,666.508 1703.61,666.508 1705.42,494.14 1707.23,494.14 1709.04,478.382 1710.84,527.904 1712.65,527.904 1714.46,612.607 1716.27,656.834 1718.08,656.834 1719.88,629.611 1721.69,689.99 1723.5,826.98 1725.31,826.98 1727.11,815.903 1728.92,821.588 1730.73,934.723 1732.54,1027.35 1734.34,1103.19 1736.15,1103.19 1737.96,961.05 1739.77,972.073 1741.58,972.073 1743.38,811.351 1745.19,811.351 1747,755.25 1748.81,765.499 1750.61,765.499 1752.42,676.054 1754.23,696.302 1756.04,832.147 1757.84,832.147 1759.65,769.986 1761.46,769.986 1763.27,655.733 1765.08,686.882 1766.88,686.882 1768.69,571.133 1770.5,571.133 1772.31,467.481 1774.11,467.481 1775.92,354.68 1777.73,354.68 1779.54,200.305 1781.34,245.814 1783.15,463.319 1784.96,463.319 1786.77,418.142 1788.58,495.079 1790.38,667.4 1792.19,808.485 1794,808.485 1795.81,662.227 1797.61,662.227 1799.42,457.112 1801.23,457.112 1803.04,505.262 1804.84,506.682 1806.65,676.9 1808.46,676.9 1810.27,513.188 1812.08,601.485 1813.88,601.485 1815.69,501.387 1817.5,615.464 1819.31,765.963 1821.11,765.963 1822.92,584.772 1824.73,584.772 1826.54,425.275 1828.34,425.275 1830.15,411.498 1831.96,475.507 1833.77,651.376 1835.58,795.365 1837.38,795.365 1839.19,705.176 1841,719.333 1842.81,851.003 1844.61,958.806 1846.42,958.806 1848.23,751.023 1850.04,840.324 1851.84,950.063 1853.65,1039.91 1855.46,1113.47 1857.27,1173.7 1859.08,1223 1860.88,1223 1862.69,1055.63 1864.5,1075.99 1866.31,1075.99 1868.11,1084.64 1869.92,1105.79 1871.73,1105.79 1873.54,937.972 1875.34,989.944 1877.15,1072.56 1878.96,1140.2 1880.77,1195.58 1882.58,1240.92 1884.38,1278.05 1886.19,1308.44 1888,1333.32 1889.81,1353.7 1891.61,1370.38 1893.42,1370.38 1895.23,1173.98 1897.04,1219.32 1898.84,1260.35 1900.65,1260.35 1902.46,1070.13 1904.27,1125.29 1906.08,1183.37 1907.88,1230.93 1909.69,1230.93 1911.5,1006.87 1913.31,1006.87 1915.11,857.302 1916.92,869.228 1918.73,973.728 1920.54,1059.28 1922.34,1059.28 1924.15,1003.19 1925.96,1060.49 1927.77,1130.32 1929.58,1187.49 1931.38,1234.3 1933.19,1272.62 1935,1304 1936.81,1304 1938.61,1083.77 1940.42,1083.77 1942.23,988.918 1944.04,990.826 1945.84,990.826 1947.65,839.233 1949.46,893.163 1951.27,993.324 1953.08,1075.33 1954.88,1075.33 1956.69,909.562 1958.5,965.333 1960.31,1052.41 1962.11,1052.41 1963.92,1020.26 1965.73,1050.19 1967.54,1050.19 1969.34,859.123 1971.15,859.123 1972.96,856.588 1974.77,862.857 1976.58,862.857 1978.38,736.823 1980.19,783.955 1982,903.912 1983.81,1002.12 1985.61,1002.12 1987.42,886.052 1989.23,939.469 1991.04,1031.24 1992.84,1031.24 1994.65,1009.04 1996.46,1072.58 1998.27,1140.22 2000.08,1140.22 2001.88,979.819 2003.69,1011.22 2005.5,1011.22 2007.31,938.039 2009.11,938.039 2010.92,838.001 2012.73,922.15 2014.54,1017.06 2016.34,1017.06 2018.15,838.148 2019.96,925.474 2021.77,1019.78 2023.58,1019.78 2025.38,905.164 2027.19,952.75 2029,952.75 2030.81,914.152 2032.61,914.152 2034.42,736.718 2036.23,788.237 2038.04,907.418 2039.84,1004.99 2041.65,1004.99 2043.46,778.643 2045.27,885.727 2047.08,885.727 2048.88,698.945 2050.69,822.153 2052.5,935.186 2054.31,935.186 2056.11,812.516 2057.92,837.978 2059.73,837.978 2061.54,662.131 2063.34,780.241 2065.15,780.241 2066.96,798.745 2068.77,865.405 2070.58,865.405 2072.38,735.781 2074.19,787.223 2076,906.587 2077.81,1004.31 2079.61,1084.33 2081.42,1149.84 2083.23,1203.47 2085.04,1247.38 2086.84,1247.38 2088.65,1145.02 2090.46,1177.54 2092.27,1226.15 2094.08,1226.15 2095.88,1034.28 2097.69,1034.28 2099.5,835.823 2101.31,879.379 2103.11,982.039 2104.92,982.039 2106.73,899.156 2108.54,911.501 2110.34,1008.34 2112.15,1008.34 2113.96,915.131 2115.77,915.131 2117.58,850.898 2119.38,913.793 2121.19,1010.21 2123,1010.21 2124.81,853.716 2126.61,910.38 2128.42,1007.42 2130.23,1007.42 2132.04,940.224 2133.84,976.842 2135.65,1061.83 2137.46,1131.42 2139.27,1188.39 2141.08,1188.39 2142.88,1077.3 2144.69,1077.3 2146.5,1033.55 2148.31,1061.22 2150.11,1061.22 2151.92,981.356 2153.73,981.356 2155.54,791.419 2157.34,839.843 2159.15,839.843 2160.96,681.237 2162.77,776.641 2164.58,897.924 2166.38,897.924 2168.19,750.164 2170,865.225 2171.81,970.45 2173.61,970.45 2175.42,978.401 2177.23,978.401 2179.04,790.87 2180.84,836.8 2182.65,836.8 2184.46,653.2 2186.27,781.477 2188.08,781.477 2189.88,651.37 2191.69,670.294 2193.5,670.294 2195.31,477.17 2197.11,648.03 2198.92,648.03 2200.73,451.561 2202.54,451.561 2204.34,413.413 2206.15,413.413 2207.96,307.669 2209.77,320.079 2211.58,524.123 2213.38,691.179 2215.19,691.179 2217,582.845 2218.81,582.845 2220.61,436.98 2222.42,448.998 2224.23,629.672 2226.04,629.672 2227.84,452.978 2229.65,452.978 2231.46,312.717 2233.27,382.221 2235.08,575 2236.88,575 2238.69,529.042 2240.5,529.042 2242.31,359.996 2244.11,392.385 2245.92,583.321 2247.73,739.647 2249.54,867.636 2251.34,972.424 2253.15,1058.22 2254.96,1058.22 2256.77,883.501 2258.58,883.501 2260.38,699.215 2262.19,780.113 2264,780.113 2265.81,693.417 2267.61,693.417 2269.42,626.207 2271.23,644.036 2273.04,644.036 2274.84,481.372 2276.65,481.372 2278.46,344.087 2280.27,439.521 2282.08,621.913 2283.88,771.243 2285.69,893.504 2287.5,893.504 2289.31,774.703 "/>
<path clip-path="url(#clip610)" d="M2001.41 198.898 L2278.03 198.898 L2278.03 95.2176 L2001.41 95.2176  Z" fill="#ffffff" fill-rule="evenodd" fill-opacity="1"/>
<polyline clip-path="url(#clip610)" style="stroke:#000000; stroke-linecap:round; stroke-linejoin:round; stroke-width:4; stroke-opacity:1; fill:none" points="2001.41,198.898 2278.03,198.898 2278.03,95.2176 2001.41,95.2176 2001.41,198.898 "/>
<polyline clip-path="url(#clip610)" style="stroke:#009af9; stroke-linecap:round; stroke-linejoin:round; stroke-width:4; stroke-opacity:1; fill:none" points="2026.32,147.058 2175.78,147.058 "/>
<path clip-path="url(#clip610)" d="M2214.53 166.745 Q2212.72 171.375 2211.01 172.787 Q2209.3 174.199 2206.43 174.199 L2203.02 174.199 L2203.02 170.634 L2205.52 170.634 Q2207.28 170.634 2208.26 169.8 Q2209.23 168.967 2210.41 165.865 L2211.17 163.921 L2200.69 138.412 L2205.2 138.412 L2213.3 158.689 L2221.4 138.412 L2225.92 138.412 L2214.53 166.745 Z" fill="#000000" fill-rule="nonzero" fill-opacity="1" /><path clip-path="url(#clip610)" d="M2233.21 160.402 L2240.85 160.402 L2240.85 134.037 L2232.54 135.703 L2232.54 131.444 L2240.8 129.778 L2245.48 129.778 L2245.48 160.402 L2253.12 160.402 L2253.12 164.338 L2233.21 164.338 L2233.21 160.402 Z" fill="#000000" fill-rule="nonzero" fill-opacity="1" /></svg>
