<?xml version="1.0" encoding="utf-8"?>
<svg xmlns="http://www.w3.org/2000/svg" xmlns:xlink="http://www.w3.org/1999/xlink" width="600" height="400" viewBox="0 0 2400 1600">
<defs>
  <clipPath id="clip630">
    <rect x="0" y="0" width="2400" height="1600"/>
  </clipPath>
</defs>
<path clip-path="url(#clip630)" d="M0 1600 L2400 1600 L2400 0 L0 0  Z" fill="#ffffff" fill-rule="evenodd" fill-opacity="1"/>
<defs>
  <clipPath id="clip631">
    <rect x="140" y="47" width="2213" height="1377"/>
  </clipPath>
</defs>
<path clip-path="url(#clip630)" d="M140.696 1423.18 L2352.76 1423.18 L2352.76 47.2441 L140.696 47.2441  Z" fill="#ffffff" fill-rule="evenodd" fill-opacity="1"/>
<polyline clip-path="url(#clip631)" style="stroke:#000000; stroke-linecap:round; stroke-linejoin:round; stroke-width:2; stroke-opacity:0.1; fill:none" points="581.715,1423.18 581.715,47.2441 "/>
<polyline clip-path="url(#clip631)" style="stroke:#000000; stroke-linecap:round; stroke-linejoin:round; stroke-width:2; stroke-opacity:0.1; fill:none" points="1025.32,1423.18 1025.32,47.2441 "/>
<polyline clip-path="url(#clip631)" style="stroke:#000000; stroke-linecap:round; stroke-linejoin:round; stroke-width:2; stroke-opacity:0.1; fill:none" points="1468.93,1423.18 1468.93,47.2441 "/>
<polyline clip-path="url(#clip631)" style="stroke:#000000; stroke-linecap:round; stroke-linejoin:round; stroke-width:2; stroke-opacity:0.1; fill:none" points="1912.54,1423.18 1912.54,47.2441 "/>
<polyline clip-path="url(#clip631)" style="stroke:#000000; stroke-linecap:round; stroke-linejoin:round; stroke-width:2; stroke-opacity:0.1; fill:none" points="140.696,1385.49 2352.76,1385.49 "/>
<polyline clip-path="url(#clip631)" style="stroke:#000000; stroke-linecap:round; stroke-linejoin:round; stroke-width:2; stroke-opacity:0.1; fill:none" points="140.696,957.554 2352.76,957.554 "/>
<polyline clip-path="url(#clip631)" style="stroke:#000000; stroke-linecap:round; stroke-linejoin:round; stroke-width:2; stroke-opacity:0.1; fill:none" points="140.696,529.623 2352.76,529.623 "/>
<polyline clip-path="url(#clip631)" style="stroke:#000000; stroke-linecap:round; stroke-linejoin:round; stroke-width:2; stroke-opacity:0.1; fill:none" points="140.696,101.691 2352.76,101.691 "/>
<polyline clip-path="url(#clip630)" style="stroke:#000000; stroke-linecap:round; stroke-linejoin:round; stroke-width:4; stroke-opacity:1; fill:none" points="140.696,1423.18 2352.76,1423.18 "/>
<polyline clip-path="url(#clip630)" style="stroke:#000000; stroke-linecap:round; stroke-linejoin:round; stroke-width:4; stroke-opacity:1; fill:none" points="581.715,1423.18 581.715,1404.28 "/>
<polyline clip-path="url(#clip630)" style="stroke:#000000; stroke-linecap:round; stroke-linejoin:round; stroke-width:4; stroke-opacity:1; fill:none" points="1025.32,1423.18 1025.32,1404.28 "/>
<polyline clip-path="url(#clip630)" style="stroke:#000000; stroke-linecap:round; stroke-linejoin:round; stroke-width:4; stroke-opacity:1; fill:none" points="1468.93,1423.18 1468.93,1404.28 "/>
<polyline clip-path="url(#clip630)" style="stroke:#000000; stroke-linecap:round; stroke-linejoin:round; stroke-width:4; stroke-opacity:1; fill:none" points="1912.54,1423.18 1912.54,1404.28 "/>
<path clip-path="url(#clip630)" d="M556.403 1481.64 L564.042 1481.64 L564.042 1455.28 L555.732 1456.95 L555.732 1452.69 L563.996 1451.02 L568.672 1451.02 L568.672 1481.64 L576.31 1481.64 L576.31 1485.58 L556.403 1485.58 L556.403 1481.64 Z" fill="#000000" fill-rule="nonzero" fill-opacity="1" /><path clip-path="url(#clip630)" d="M595.755 1454.1 Q592.144 1454.1 590.315 1457.66 Q588.509 1461.2 588.509 1468.33 Q588.509 1475.44 590.315 1479.01 Q592.144 1482.55 595.755 1482.55 Q599.389 1482.55 601.195 1479.01 Q603.023 1475.44 603.023 1468.33 Q603.023 1461.2 601.195 1457.66 Q599.389 1454.1 595.755 1454.1 M595.755 1450.39 Q601.565 1450.39 604.62 1455 Q607.699 1459.58 607.699 1468.33 Q607.699 1477.06 604.62 1481.67 Q601.565 1486.25 595.755 1486.25 Q589.945 1486.25 586.866 1481.67 Q583.81 1477.06 583.81 1468.33 Q583.81 1459.58 586.866 1455 Q589.945 1450.39 595.755 1450.39 Z" fill="#000000" fill-rule="nonzero" fill-opacity="1" /><path clip-path="url(#clip630)" d="M1004.1 1481.64 L1020.41 1481.64 L1020.41 1485.58 L998.471 1485.58 L998.471 1481.64 Q1001.13 1478.89 1005.72 1474.26 Q1010.32 1469.61 1011.5 1468.27 Q1013.75 1465.74 1014.63 1464.01 Q1015.53 1462.25 1015.53 1460.56 Q1015.53 1457.8 1013.59 1456.07 Q1011.66 1454.33 1008.56 1454.33 Q1006.36 1454.33 1003.91 1455.09 Q1001.48 1455.86 998.702 1457.41 L998.702 1452.69 Q1001.53 1451.55 1003.98 1450.97 Q1006.43 1450.39 1008.47 1450.39 Q1013.84 1450.39 1017.04 1453.08 Q1020.23 1455.77 1020.23 1460.26 Q1020.23 1462.39 1019.42 1464.31 Q1018.63 1466.2 1016.53 1468.8 Q1015.95 1469.47 1012.85 1472.69 Q1009.74 1475.88 1004.1 1481.64 Z" fill="#000000" fill-rule="nonzero" fill-opacity="1" /><path clip-path="url(#clip630)" d="M1040.23 1454.1 Q1036.62 1454.1 1034.79 1457.66 Q1032.98 1461.2 1032.98 1468.33 Q1032.98 1475.44 1034.79 1479.01 Q1036.62 1482.55 1040.23 1482.55 Q1043.86 1482.55 1045.67 1479.01 Q1047.5 1475.44 1047.5 1468.33 Q1047.5 1461.2 1045.67 1457.66 Q1043.86 1454.1 1040.23 1454.1 M1040.23 1450.39 Q1046.04 1450.39 1049.1 1455 Q1052.17 1459.58 1052.17 1468.33 Q1052.17 1477.06 1049.1 1481.67 Q1046.04 1486.25 1040.23 1486.25 Q1034.42 1486.25 1031.34 1481.67 Q1028.29 1477.06 1028.29 1468.33 Q1028.29 1459.58 1031.34 1455 Q1034.42 1450.39 1040.23 1450.39 Z" fill="#000000" fill-rule="nonzero" fill-opacity="1" /><path clip-path="url(#clip630)" d="M1457.77 1466.95 Q1461.13 1467.66 1463 1469.93 Q1464.9 1472.2 1464.9 1475.53 Q1464.9 1480.65 1461.38 1483.45 Q1457.86 1486.25 1451.38 1486.25 Q1449.21 1486.25 1446.89 1485.81 Q1444.6 1485.39 1442.15 1484.54 L1442.15 1480.02 Q1444.09 1481.16 1446.41 1481.74 Q1448.72 1482.32 1451.24 1482.32 Q1455.64 1482.32 1457.93 1480.58 Q1460.25 1478.84 1460.25 1475.53 Q1460.25 1472.48 1458.1 1470.77 Q1455.97 1469.03 1452.15 1469.03 L1448.12 1469.03 L1448.12 1465.19 L1452.33 1465.19 Q1455.78 1465.19 1457.61 1463.82 Q1459.44 1462.43 1459.44 1459.84 Q1459.44 1457.18 1457.54 1455.77 Q1455.67 1454.33 1452.15 1454.33 Q1450.23 1454.33 1448.03 1454.75 Q1445.83 1455.16 1443.19 1456.04 L1443.19 1451.88 Q1445.85 1451.14 1448.17 1450.77 Q1450.5 1450.39 1452.56 1450.39 Q1457.89 1450.39 1460.99 1452.83 Q1464.09 1455.23 1464.09 1459.35 Q1464.09 1462.22 1462.45 1464.21 Q1460.8 1466.18 1457.77 1466.95 Z" fill="#000000" fill-rule="nonzero" fill-opacity="1" /><path clip-path="url(#clip630)" d="M1483.77 1454.1 Q1480.16 1454.1 1478.33 1457.66 Q1476.52 1461.2 1476.52 1468.33 Q1476.52 1475.44 1478.33 1479.01 Q1480.16 1482.55 1483.77 1482.55 Q1487.4 1482.55 1489.21 1479.01 Q1491.04 1475.44 1491.04 1468.33 Q1491.04 1461.2 1489.21 1457.66 Q1487.4 1454.1 1483.77 1454.1 M1483.77 1450.39 Q1489.58 1450.39 1492.63 1455 Q1495.71 1459.58 1495.71 1468.33 Q1495.71 1477.06 1492.63 1481.67 Q1489.58 1486.25 1483.77 1486.25 Q1477.96 1486.25 1474.88 1481.67 Q1471.82 1477.06 1471.82 1468.33 Q1471.82 1459.58 1474.88 1455 Q1477.96 1450.39 1483.77 1450.39 Z" fill="#000000" fill-rule="nonzero" fill-opacity="1" /><path clip-path="url(#clip630)" d="M1900.71 1455.09 L1888.9 1473.54 L1900.71 1473.54 L1900.71 1455.09 M1899.48 1451.02 L1905.36 1451.02 L1905.36 1473.54 L1910.29 1473.54 L1910.29 1477.43 L1905.36 1477.43 L1905.36 1485.58 L1900.71 1485.58 L1900.71 1477.43 L1885.11 1477.43 L1885.11 1472.92 L1899.48 1451.02 Z" fill="#000000" fill-rule="nonzero" fill-opacity="1" /><path clip-path="url(#clip630)" d="M1928.02 1454.1 Q1924.41 1454.1 1922.58 1457.66 Q1920.78 1461.2 1920.78 1468.33 Q1920.78 1475.44 1922.58 1479.01 Q1924.41 1482.55 1928.02 1482.55 Q1931.66 1482.55 1933.46 1479.01 Q1935.29 1475.44 1935.29 1468.33 Q1935.29 1461.2 1933.46 1457.66 Q1931.66 1454.1 1928.02 1454.1 M1928.02 1450.39 Q1933.83 1450.39 1936.89 1455 Q1939.97 1459.58 1939.97 1468.33 Q1939.97 1477.06 1936.89 1481.67 Q1933.83 1486.25 1928.02 1486.25 Q1922.21 1486.25 1919.13 1481.67 Q1916.08 1477.06 1916.08 1468.33 Q1916.08 1459.58 1919.13 1455 Q1922.21 1450.39 1928.02 1450.39 Z" fill="#000000" fill-rule="nonzero" fill-opacity="1" /><path clip-path="url(#clip630)" d="M1245.79 1522.27 L1245.79 1532.4 L1257.85 1532.4 L1257.85 1536.95 L1245.79 1536.95 L1245.79 1556.3 Q1245.79 1560.66 1246.96 1561.9 Q1248.17 1563.14 1251.83 1563.14 L1257.85 1563.14 L1257.85 1568.04 L1251.83 1568.04 Q1245.05 1568.04 1242.48 1565.53 Q1239.9 1562.98 1239.9 1556.3 L1239.9 1536.95 L1235.6 1536.95 L1235.6 1532.4 L1239.9 1532.4 L1239.9 1522.27 L1245.79 1522.27 Z" fill="#000000" fill-rule="nonzero" fill-opacity="1" /><polyline clip-path="url(#clip630)" style="stroke:#000000; stroke-linecap:round; stroke-linejoin:round; stroke-width:4; stroke-opacity:1; fill:none" points="140.696,1423.18 140.696,47.2441 "/>
<polyline clip-path="url(#clip630)" style="stroke:#000000; stroke-linecap:round; stroke-linejoin:round; stroke-width:4; stroke-opacity:1; fill:none" points="140.696,1385.49 159.593,1385.49 "/>
<polyline clip-path="url(#clip630)" style="stroke:#000000; stroke-linecap:round; stroke-linejoin:round; stroke-width:4; stroke-opacity:1; fill:none" points="140.696,957.554 159.593,957.554 "/>
<polyline clip-path="url(#clip630)" style="stroke:#000000; stroke-linecap:round; stroke-linejoin:round; stroke-width:4; stroke-opacity:1; fill:none" points="140.696,529.623 159.593,529.623 "/>
<polyline clip-path="url(#clip630)" style="stroke:#000000; stroke-linecap:round; stroke-linejoin:round; stroke-width:4; stroke-opacity:1; fill:none" points="140.696,101.691 159.593,101.691 "/>
<path clip-path="url(#clip630)" d="M92.7512 1371.28 Q89.1401 1371.28 87.3114 1374.85 Q85.5058 1378.39 85.5058 1385.52 Q85.5058 1392.63 87.3114 1396.19 Q89.1401 1399.73 92.7512 1399.73 Q96.3854 1399.73 98.1909 1396.19 Q100.02 1392.63 100.02 1385.52 Q100.02 1378.39 98.1909 1374.85 Q96.3854 1371.28 92.7512 1371.28 M92.7512 1367.58 Q98.5613 1367.58 101.617 1372.19 Q104.696 1376.77 104.696 1385.52 Q104.696 1394.25 101.617 1398.85 Q98.5613 1403.44 92.7512 1403.44 Q86.941 1403.44 83.8623 1398.85 Q80.8068 1394.25 80.8068 1385.52 Q80.8068 1376.77 83.8623 1372.19 Q86.941 1367.58 92.7512 1367.58 Z" fill="#000000" fill-rule="nonzero" fill-opacity="1" /><path clip-path="url(#clip630)" d="M53.3995 970.899 L61.0384 970.899 L61.0384 944.534 L52.7282 946.2 L52.7282 941.941 L60.9921 940.274 L65.668 940.274 L65.668 970.899 L73.3068 970.899 L73.3068 974.834 L53.3995 974.834 L53.3995 970.899 Z" fill="#000000" fill-rule="nonzero" fill-opacity="1" /><path clip-path="url(#clip630)" d="M92.7512 943.353 Q89.1401 943.353 87.3114 946.918 Q85.5058 950.46 85.5058 957.589 Q85.5058 964.696 87.3114 968.26 Q89.1401 971.802 92.7512 971.802 Q96.3854 971.802 98.1909 968.26 Q100.02 964.696 100.02 957.589 Q100.02 950.46 98.1909 946.918 Q96.3854 943.353 92.7512 943.353 M92.7512 939.649 Q98.5613 939.649 101.617 944.256 Q104.696 948.839 104.696 957.589 Q104.696 966.316 101.617 970.922 Q98.5613 975.506 92.7512 975.506 Q86.941 975.506 83.8623 970.922 Q80.8068 966.316 80.8068 957.589 Q80.8068 948.839 83.8623 944.256 Q86.941 939.649 92.7512 939.649 Z" fill="#000000" fill-rule="nonzero" fill-opacity="1" /><path clip-path="url(#clip630)" d="M56.6171 542.968 L72.9365 542.968 L72.9365 546.903 L50.9921 546.903 L50.9921 542.968 Q53.6541 540.213 58.2375 535.584 Q62.8439 530.931 64.0245 529.588 Q66.2698 527.065 67.1494 525.329 Q68.0522 523.57 68.0522 521.88 Q68.0522 519.125 66.1078 517.389 Q64.1865 515.653 61.0847 515.653 Q58.8856 515.653 56.4319 516.417 Q54.0014 517.181 51.2236 518.732 L51.2236 514.01 Q54.0477 512.875 56.5014 512.297 Q58.955 511.718 60.9921 511.718 Q66.3624 511.718 69.5568 514.403 Q72.7513 517.088 72.7513 521.579 Q72.7513 523.709 71.9411 525.63 Q71.1541 527.528 69.0476 530.121 Q68.4689 530.792 65.367 534.009 Q62.2652 537.204 56.6171 542.968 Z" fill="#000000" fill-rule="nonzero" fill-opacity="1" /><path clip-path="url(#clip630)" d="M92.7512 515.422 Q89.1401 515.422 87.3114 518.986 Q85.5058 522.528 85.5058 529.658 Q85.5058 536.764 87.3114 540.329 Q89.1401 543.871 92.7512 543.871 Q96.3854 543.871 98.1909 540.329 Q100.02 536.764 100.02 529.658 Q100.02 522.528 98.1909 518.986 Q96.3854 515.422 92.7512 515.422 M92.7512 511.718 Q98.5613 511.718 101.617 516.324 Q104.696 520.908 104.696 529.658 Q104.696 538.384 101.617 542.991 Q98.5613 547.574 92.7512 547.574 Q86.941 547.574 83.8623 542.991 Q80.8068 538.384 80.8068 529.658 Q80.8068 520.908 83.8623 516.324 Q86.941 511.718 92.7512 511.718 Z" fill="#000000" fill-rule="nonzero" fill-opacity="1" /><path clip-path="url(#clip630)" d="M66.7559 100.337 Q70.1124 101.055 71.9874 103.323 Q73.8855 105.592 73.8855 108.925 Q73.8855 114.041 70.367 116.842 Q66.8485 119.643 60.3671 119.643 Q58.1912 119.643 55.8764 119.203 Q53.5847 118.786 51.131 117.93 L51.131 113.416 Q53.0754 114.55 55.3903 115.129 Q57.7051 115.708 60.2282 115.708 Q64.6263 115.708 66.918 113.971 Q69.2328 112.235 69.2328 108.925 Q69.2328 105.87 67.08 104.157 Q64.9504 102.421 61.131 102.421 L57.1032 102.421 L57.1032 98.578 L61.3161 98.578 Q64.7652 98.578 66.5939 97.2122 Q68.4226 95.8234 68.4226 93.2308 Q68.4226 90.5688 66.5245 89.1567 Q64.6495 87.7215 61.131 87.7215 Q59.2097 87.7215 57.0106 88.1382 Q54.8115 88.5549 52.1727 89.4345 L52.1727 85.2679 Q54.8347 84.5271 57.1495 84.1567 Q59.4875 83.7864 61.5476 83.7864 Q66.8717 83.7864 69.9735 86.2169 Q73.0753 88.6243 73.0753 92.7447 Q73.0753 95.615 71.4318 97.6058 Q69.7883 99.5733 66.7559 100.337 Z" fill="#000000" fill-rule="nonzero" fill-opacity="1" /><path clip-path="url(#clip630)" d="M92.7512 87.4901 Q89.1401 87.4901 87.3114 91.0549 Q85.5058 94.5965 85.5058 101.726 Q85.5058 108.833 87.3114 112.397 Q89.1401 115.939 92.7512 115.939 Q96.3854 115.939 98.1909 112.397 Q100.02 108.833 100.02 101.726 Q100.02 94.5965 98.1909 91.0549 Q96.3854 87.4901 92.7512 87.4901 M92.7512 83.7864 Q98.5613 83.7864 101.617 88.3928 Q104.696 92.9761 104.696 101.726 Q104.696 110.453 101.617 115.059 Q98.5613 119.643 92.7512 119.643 Q86.941 119.643 83.8623 115.059 Q80.8068 110.453 80.8068 101.726 Q80.8068 92.9761 83.8623 88.3928 Q86.941 83.7864 92.7512 83.7864 Z" fill="#000000" fill-rule="nonzero" fill-opacity="1" /><polyline clip-path="url(#clip631)" style="stroke:#009af9; stroke-linecap:round; stroke-linejoin:round; stroke-width:4; stroke-opacity:1; fill:none" points="140.696,1384.24 140.696,1384.24 142.272,1383.48 164.586,1371.36 209.546,1348.99 253.83,1325.69 262.119,1321.6 271.027,1316.53 285.18,1307.95 287.127,1306.85 293.453,1303.35 303.356,1298.09 307.057,1295.84 307.357,1295.66 313.598,1292.04 320.986,1287.33 324.099,1285.17 329.964,1281.33 334.034,1278.8 334.058,1278.79 342.578,1273.79 351.356,1268.23 364.664,1260.59 365.146,1260.32 399.519,1240.91 401.74,1239.76 404.097,1238.56 407.894,1236.63 410.56,1235.04 438.249,1220 445.906,1215.48 451.137,1212.54 455.378,1210.22 457.993,1208.58 467.571,1202.89 469.773,1201.64 477.72,1197.26 497.545,1186.96 508.416,1181.51 527.166,1172.29 536.511,1167 549.218,1160.22 567.895,1150.73 569.072,1150.15 589.394,1140.14 598.52,1135.69 611.428,1129.42 629.175,1120.84 632.713,1119.13 634.426,1118.3 635.296,1117.88 646.803,1112.32 656.969,1107.41 669.563,1101.34 670.136,1101.06 676.253,1098.11 687.532,1092.67 687.877,1092.5 698.486,1087.38 702.649,1085.37 709.198,1082.22 715.316,1079.26 723.613,1075.26 782.382,1046.92 786.047,1045.15 788.098,1044.16 790.643,1042.93 795.82,1040.43 811.335,1032.95 854.342,1012.21 866.416,1006.38 876.495,1000.74 905.041,985.99 924.994,976.143 925.321,975.952 926.154,975.388 930.561,972.499 933.067,970.919 947.748,961.3 954.844,957.137 970.005,948.852 972.477,947.556 977.034,944.795 990.262,937.308 1004.71,928.663 1008.94,926.307 1013.27,923.954 1013.94,923.594 1041.29,909.547 1044.64,907.885 1050.28,905.094 1063.9,898.42 1072.48,893.553 1075.43,891.938 1076.86,891.035 1087.18,884.841 1087.98,884.377 1088.05,884.34 1096.47,879.654 1099.81,877.853 1110.07,872.478 1116.03,869.428 1118.7,867.836 1132.78,859.922 1146.24,852.849 1148.19,851.67 1150.91,850.06 1160.44,844.662 1181.99,833.343 1193.83,827.394 1223.2,812.987 1224.66,812.279 1228.06,810.323 1233.95,807.035 1265.78,790.569 1272.05,787.458 1327.28,758.619 1334.22,754.644 1337.96,752.572 1366.35,737.834 1371.19,735.423 1374.73,733.67 1377.47,732.068 1377.69,731.936 1382.38,729.272 1388.16,726.095 1389.51,725.237 1391.41,723.881 1393.23,722.608 1402.3,716.702 1415.38,709.049 1415.88,708.77 1422.22,705.303 1425.44,703.581 1430.08,701.142 1455.53,688.274 1456.55,687.769 1457.32,687.32 1469.41,679.612 1476.48,675.494 1480.5,672.894 1497.29,663.014 1501.15,660.898 1505.98,657.891 1507.53,656.816 1526.05,645.283 1541.17,635.944 1558.08,626.673 1562.34,624.45 1569.02,620.46 1587.53,610.3 1595.79,605.357 1597.99,604.095 1599.26,603.373 1604.37,600.535 1617.64,593.487 1619.3,592.629 1621.01,591.748 1639.5,582.445 1643.92,579.872 1655.42,573.517 1659.17,571.524 1661.43,570.337 1662.03,570.023 1690.29,555.758 1691.66,555.082 1694.91,553.481 1695.56,553.166 1700.49,550.746 1719.58,540.215 1720.91,539.517 1721.98,538.857 1729.9,534.163 1733.87,531.916 1738.51,529.357 1742.69,527.102 1743.39,526.727 1744.8,525.982 1750.72,522.881 1757.08,519.617 1763.57,516.333 1767.26,514.485 1771.29,512.48 1771.85,512.201 1775.35,510.468 1780.36,507.999 1790.23,503.164 1796.66,500.025 1801.21,497.813 1804.34,496.293 1806,495.487 1812.13,492.515 1818.5,489.43 1818.53,489.413 1854.89,471.847 1860.92,468.43 1867.15,465.024 1874.71,461.022 1877.64,459.495 1879.16,458.715 1885.67,455.392 1888.73,453.843 1904.46,446.022 1908.88,443.845 1912.14,442.249 1916.87,439.936 1935.96,430.652 1959.03,419.488 1973.06,412.714 1975.73,411.424 1982.78,407.442 1999.67,398.46 2016.19,390.105 2019.75,388.337 2023.06,386.7 2030.64,382.973 2048.8,374.11 2054.54,370.839 2059.62,368.034 2060.44,367.514 2085.89,351.476 2103.43,342.055 2111.63,337.198 2119.13,332.38 2137.54,321.828 2145.18,317.763 2145.4,317.648 2147.75,316.207 2155.85,310.811 2156.7,310.19 2158.52,308.894 2171.92,300.207 2176.56,297.464 2180.35,295.296 2188.02,291.06 2189.93,289.856 2194.47,287.084 2197.38,285.102 2201.5,282.409 2205.25,280.069 2220.08,271.507 2234.15,264.024 2234.81,263.618 2239.84,260.612 2243.93,258.262 2250.29,254.724 2254.67,252.359 2264.59,247.152 2290.38,234.205 2294.64,232.112 2316.69,221.356 2318.23,220.609 2321.18,219.177 2327.89,215.924 2329.34,215.085 2339.63,209.364 2352.76,202.459 "/>
<polyline clip-path="url(#clip631)" style="stroke:#e26f46; stroke-linecap:round; stroke-linejoin:round; stroke-width:4; stroke-opacity:1; fill:none" points="140.696,1384.24 140.696,1384.24 142.272,1383.48 164.586,1372.72 209.546,1351.03 253.83,1329.67 262.119,1325.67 271.027,1321.38 285.18,1314.55 287.127,1313.43 293.453,1309.89 303.356,1303.81 307.057,1301.67 307.357,1301.47 313.598,1296.95 320.986,1292.06 324.099,1290.12 329.964,1286.62 334.034,1284.28 334.058,1284.27 342.578,1278.2 351.356,1272.6 364.664,1264.92 365.146,1264.65 399.519,1246.88 401.74,1245.78 404.097,1244.61 407.894,1242.74 410.56,1241.43 438.249,1227.94 445.906,1224.23 451.137,1221.25 455.378,1218.9 457.993,1217.48 467.571,1211.67 469.773,1210.4 477.72,1205.32 497.545,1194.05 508.416,1187.51 527.166,1177.31 536.511,1172.5 549.218,1166.12 567.895,1155.71 569.072,1155.09 589.394,1144.68 598.52,1140.15 611.428,1132.86 629.175,1123.56 632.713,1121.76 634.426,1120.9 635.296,1120.46 646.803,1114.72 656.969,1109.72 669.563,1102.64 670.136,1102.33 676.253,1099.08 687.532,1093.25 687.877,1093.04 698.486,1086.9 702.649,1084.25 709.198,1080.28 715.316,1076.77 723.613,1072.21 782.382,1042.72 786.047,1040.94 788.098,1039.95 790.643,1038.71 795.82,1036.2 811.335,1027.62 854.342,1005.95 866.416,1000.06 876.495,995.162 905.041,979.802 924.994,969.818 925.321,969.657 926.154,969.246 930.561,967.078 933.067,965.849 947.748,958.685 954.844,955.238 970.005,947.893 972.477,946.472 977.034,943.913 990.262,936.822 1004.71,929.434 1008.94,927.316 1013.27,925.163 1013.94,924.767 1041.29,908.372 1044.64,906.575 1050.28,903.598 1063.9,896.629 1072.48,892.337 1075.43,890.873 1076.86,890.169 1087.18,885.093 1087.98,884.697 1088.05,884.659 1096.47,879.872 1099.81,877.742 1110.07,871.615 1116.03,868.265 1118.7,866.804 1132.78,858.369 1146.24,851.029 1148.19,850.003 1150.91,848.585 1160.44,842.955 1181.99,831.367 1193.83,825.351 1223.2,810.873 1224.66,810.163 1228.06,808.508 1233.95,805.644 1265.78,790.238 1272.05,786.681 1327.28,758.554 1334.22,755.171 1337.96,753.35 1366.35,738.05 1371.19,735.597 1374.73,733.503 1377.47,731.92 1377.69,731.789 1382.38,729.153 1388.16,726.004 1389.51,725.278 1391.41,724.269 1393.23,723.304 1402.3,718.601 1415.38,712.008 1415.88,711.758 1422.22,708.612 1425.44,707.022 1430.08,704.741 1455.53,692.338 1456.55,691.842 1457.32,691.472 1469.41,685.616 1476.48,682.196 1480.5,680.257 1497.29,672.148 1501.15,669.94 1505.98,667.257 1507.53,666.416 1526.05,656.716 1541.17,649.13 1558.08,640.815 1562.34,638.737 1569.02,635.484 1587.53,626.509 1595.79,622.514 1597.99,621.248 1599.26,620.524 1604.37,617.239 1617.64,608.451 1619.3,607.44 1621.01,606.412 1639.5,594.866 1643.92,592.369 1655.42,586.152 1659.17,584.191 1661.43,583.02 1662.03,582.71 1690.29,567.013 1691.66,566.304 1694.91,564.34 1695.56,563.898 1700.49,560.617 1719.58,549.329 1720.91,548.474 1721.98,547.795 1729.9,542.344 1733.87,539.809 1738.51,536.973 1742.69,534.144 1743.39,533.683 1744.8,532.773 1750.72,529.083 1757.08,525.34 1763.57,521.69 1767.26,519.677 1771.29,517.521 1771.85,517.169 1775.35,515.023 1780.36,512.066 1790.23,506.539 1796.66,503.089 1801.21,500.705 1804.34,499.087 1806,498.079 1812.13,494.481 1818.5,490.905 1818.53,490.886 1854.89,472.133 1860.92,469.157 1867.15,466.097 1874.71,462.403 1877.64,460.705 1879.16,459.845 1885.67,456.235 1888.73,454.3 1904.46,445.161 1908.88,442.753 1912.14,440.721 1916.87,437.879 1935.96,427.313 1959.03,414.157 1973.06,406.873 1975.73,405.517 1982.78,401.978 1999.67,393.627 2016.19,384.439 2019.75,382.559 2023.06,380.834 2030.64,376.947 2048.8,367.864 2054.54,365.041 2059.62,362.109 2060.44,361.649 2085.89,348.153 2103.43,339.379 2111.63,335.348 2119.13,331.676 2137.54,322.728 2145.18,319.024 2145.4,318.918 2147.75,317.78 2155.85,313.865 2156.7,313.452 2158.52,312.573 2171.92,306.099 2176.56,303.456 2180.35,301.355 2188.02,297.224 2189.93,296.218 2194.47,293.457 2197.38,291.743 2201.5,289.013 2205.25,286.644 2220.08,278.006 2234.15,269.48 2234.81,269.103 2239.84,266.287 2243.93,264.062 2250.29,260.145 2254.67,257.575 2264.59,252.03 2290.38,237.201 2294.64,234.585 2316.69,222.271 2318.23,221.462 2321.18,219.924 2327.89,216.476 2329.34,215.738 2339.63,210.569 2352.76,204.081 "/>
<polyline clip-path="url(#clip631)" style="stroke:#3da44d; stroke-linecap:round; stroke-linejoin:round; stroke-width:4; stroke-opacity:1; fill:none" points="140.696,1384.24 140.696,1384.24 142.272,1383.33 164.586,1371.3 209.546,1348.99 253.83,1327.54 262.119,1322.87 271.027,1318.09 285.18,1310.79 287.127,1309.81 293.453,1306.64 303.356,1301.73 307.057,1299.91 307.357,1299.77 313.598,1296.71 320.986,1293.1 324.099,1291.59 329.964,1288.74 334.034,1286.76 334.058,1286.75 342.578,1282.62 351.356,1278.38 364.664,1271.95 365.146,1271.71 399.519,1255.12 401.74,1253.85 404.097,1252.52 407.894,1250.07 410.56,1248.42 438.249,1232.99 445.906,1229.06 451.137,1226.41 455.378,1224.28 457.993,1222.98 467.571,1218.24 469.773,1216.95 477.72,1212.48 497.545,1202.03 508.416,1196.55 527.166,1187.29 536.511,1182.73 549.218,1175.62 567.895,1165.89 569.072,1165.3 589.394,1155.19 598.52,1150.71 611.428,1144.43 629.175,1135.83 632.713,1134.11 634.426,1133.13 635.296,1132.63 646.803,1125.43 656.969,1118.85 669.563,1111.53 670.136,1111.15 676.253,1107.32 687.532,1100.76 687.877,1100.57 698.486,1094.83 702.649,1092.64 709.198,1088.72 715.316,1085.23 723.613,1080.7 782.382,1049.29 786.047,1047.49 788.098,1046.29 790.643,1044.6 795.82,1040.86 811.335,1031.01 854.342,1008.27 866.416,1002.3 876.495,997.367 905.041,983.509 924.994,973.865 925.321,973.707 926.154,973.305 930.561,971.176 933.067,969.966 947.748,962.881 954.844,959.457 970.005,952.142 972.477,950.95 977.034,948.751 990.262,941.409 1004.71,933.874 1008.94,931.728 1013.27,929.552 1013.94,929.216 1041.29,915.734 1044.64,914.104 1050.28,911.359 1063.9,904.755 1072.48,900.602 1075.43,899.175 1076.86,898.487 1087.18,893.5 1087.98,893.033 1088.05,892.996 1096.47,887.603 1099.81,885.588 1110.07,879.725 1116.03,876.481 1118.7,875.059 1132.78,867.772 1146.24,860.048 1148.19,858.983 1150.91,857.27 1160.44,851.596 1181.99,838.627 1193.83,832.263 1223.2,817.423 1224.66,816.705 1228.06,815.033 1233.95,811.644 1265.78,793.297 1272.05,790.041 1327.28,762.757 1334.22,759.395 1337.96,757.582 1366.35,743.861 1371.19,741.109 1374.73,739.147 1377.47,737.655 1377.69,737.509 1382.38,734.599 1388.16,731.182 1389.51,730.403 1391.41,729.325 1393.23,728.129 1402.3,722.525 1415.38,714.184 1415.88,713.886 1422.22,710.211 1425.44,708.404 1430.08,705.458 1455.53,691.105 1456.55,690.568 1457.32,690.169 1469.41,683.962 1476.48,680.409 1480.5,678.412 1497.29,670.146 1501.15,668.258 1505.98,665.905 1507.53,665.154 1526.05,656.168 1541.17,648.853 1558.08,640.685 1562.34,638.631 1569.02,635.405 1587.53,625.264 1595.79,620.991 1597.99,619.869 1599.26,619.222 1604.37,616.645 1617.64,610.05 1619.3,609.233 1621.01,608.23 1639.5,598.077 1643.92,595.772 1655.42,589.91 1659.17,587.697 1661.43,586.394 1662.03,586.051 1690.29,571.029 1691.66,570.208 1694.91,568.295 1695.56,567.924 1700.49,565.121 1719.58,554.937 1720.91,554.255 1721.98,553.706 1729.9,549.693 1733.87,547.356 1738.51,544.307 1742.69,541.688 1743.39,541.192 1744.8,540.216 1750.72,535.785 1757.08,531.438 1763.57,527.326 1767.26,525.106 1771.29,522.758 1771.85,522.436 1775.35,520.458 1780.36,517.268 1790.23,511.409 1796.66,507.272 1801.21,504.509 1804.34,502.672 1806,501.714 1812.13,497.755 1818.5,493.896 1818.53,493.876 1854.89,474.437 1860.92,471.423 1867.15,468.331 1874.71,464.61 1877.64,463.169 1879.16,462.288 1885.67,458.057 1888.73,456.163 1904.46,446.078 1908.88,443.504 1912.14,441.662 1916.87,439.05 1935.96,427.808 1959.03,415.716 1973.06,407.702 1975.73,406.252 1982.78,402.513 1999.67,392.736 2016.19,384.016 2019.75,382.199 2023.06,380.523 2030.64,376.107 2048.8,366.297 2054.54,363.344 2059.62,360.76 2060.44,360.348 2085.89,347.74 2103.43,339.192 2111.63,335.219 2119.13,331.584 2137.54,322.687 2145.18,318.371 2145.4,318.251 2147.75,316.965 2155.85,312.645 2156.7,312.197 2158.52,311.08 2171.92,303.343 2176.56,300.816 2180.35,298.793 2188.02,294.786 2189.93,293.804 2194.47,291.49 2197.38,290.018 2201.5,287.944 2205.25,285.741 2220.08,277.543 2234.15,270.24 2234.81,269.903 2239.84,267.359 2243.93,265.314 2250.29,262.152 2254.67,259.989 2264.59,255.117 2290.38,242.578 2294.64,240.517 2316.69,229.858 2318.23,228.971 2321.18,227.031 2327.89,222.285 2329.34,221.314 2339.63,214.076 2352.76,206.022 "/>
<polyline clip-path="url(#clip631)" style="stroke:#c271d2; stroke-linecap:round; stroke-linejoin:round; stroke-width:4; stroke-opacity:1; fill:none" points="140.696,1384.24 140.696,1384.24 142.272,1383.48 164.586,1372.72 209.546,1349.17 253.83,1327.57 262.119,1323.56 271.027,1319.25 285.18,1312.42 287.127,1311.48 293.453,1307.89 303.356,1302.54 307.057,1300.59 307.357,1300.44 313.598,1297.21 320.986,1293.47 324.099,1291.9 329.964,1288.48 334.034,1285.83 334.058,1285.82 342.578,1280.62 351.356,1275.63 364.664,1267.54 365.146,1267.22 399.519,1247.43 401.74,1246.27 404.097,1244.84 407.894,1242.6 410.56,1241.06 438.249,1226.3 445.906,1222.45 451.137,1219.84 455.378,1217.74 457.993,1216.45 467.571,1211.75 469.773,1210.67 477.72,1206.8 497.545,1195.92 508.416,1190.32 527.166,1180.95 536.511,1176.36 549.218,1170.17 567.895,1161.11 569.072,1160.43 589.394,1148.1 598.52,1142.41 611.428,1135.07 629.175,1125.73 632.713,1123.93 634.426,1123.06 635.296,1122.62 646.803,1116.88 656.969,1111.87 669.563,1105.72 670.136,1105.44 676.253,1101.95 687.532,1094.98 687.877,1094.77 698.486,1088.79 702.649,1086.54 709.198,1083.08 715.316,1079.41 723.613,1074.03 782.382,1042.85 786.047,1041.05 788.098,1040.05 790.643,1038.8 795.82,1036.27 811.335,1028.73 854.342,1006.1 866.416,999.251 876.495,993.869 905.041,979.445 924.994,968.403 925.321,968.231 926.154,967.794 930.561,965.503 933.067,964.213 947.748,956.805 954.844,952.701 970.005,944.494 972.477,943.205 977.034,940.856 990.262,934.177 1004.71,927.031 1008.94,924.587 1013.27,921.78 1013.94,921.358 1041.29,905.862 1044.64,903.818 1050.28,900.018 1063.9,891.746 1072.48,886.961 1075.43,885.367 1076.86,884.607 1087.18,878.416 1087.98,877.952 1088.05,877.916 1096.47,873.231 1099.81,871.431 1110.07,866.056 1116.03,862.503 1118.7,860.968 1132.78,853.265 1146.24,846.3 1148.19,845.312 1150.91,843.941 1160.44,839.186 1181.99,828.611 1193.83,822.849 1223.2,808.636 1224.66,807.933 1228.06,806.291 1233.95,803.445 1265.78,788.084 1272.05,785.058 1327.28,758.42 1334.22,755.073 1337.96,753.267 1366.35,739.572 1371.19,737.24 1374.73,735.534 1377.47,734.212 1377.69,734.102 1382.38,731.841 1388.16,729.056 1389.51,728.403 1391.41,727.489 1393.23,726.607 1402.3,722.232 1415.38,715.927 1415.88,715.686 1422.22,712.095 1425.44,710.323 1430.08,707.823 1455.53,694.776 1456.55,694.171 1457.32,693.722 1469.41,686.92 1476.48,682.56 1480.5,680.207 1497.29,669.852 1501.15,667.669 1505.98,665.012 1507.53,664.178 1526.05,654.533 1541.17,646.968 1558.08,637.523 1562.34,635.273 1569.02,631.808 1587.53,622.491 1595.79,618.415 1597.99,617.334 1599.26,616.59 1604.37,613.674 1617.64,606.49 1619.3,605.621 1621.01,604.728 1639.5,595.345 1643.92,593.147 1655.42,586.616 1659.17,584.582 1661.43,583.374 1662.03,582.997 1690.29,567.093 1691.66,566.379 1694.91,564.696 1695.56,564.367 1700.49,561.846 1719.58,552.318 1720.91,551.663 1721.98,551.136 1729.9,547.252 1733.87,545.315 1738.51,543.054 1742.69,541.019 1743.39,540.677 1744.8,539.995 1750.72,537.12 1757.08,534.04 1763.57,530.897 1767.26,529.113 1771.29,527.166 1771.85,526.894 1775.35,525.202 1780.36,522.783 1790.23,518.017 1796.66,514.91 1801.21,512.714 1804.34,511.205 1806,510.403 1812.13,507.446 1818.5,504.373 1818.53,504.356 1854.89,486.818 1860.92,483.911 1867.15,480.906 1874.71,477.26 1877.64,475.843 1879.16,475.113 1885.67,471.974 1888.73,470.493 1904.46,462.91 1908.88,460.388 1912.14,458.577 1916.87,455.594 1935.96,444.682 1959.03,432.747 1973.06,425.776 1975.73,424.46 1982.78,421.006 1999.67,412.777 2016.19,404.769 2019.75,402.73 2023.06,400.581 2030.64,395.934 2048.8,384.609 2054.54,381.383 2059.62,378.61 2060.44,378.172 2085.89,365.082 2103.43,355.241 2111.63,350.937 2119.13,347.089 2137.54,336.689 2145.18,332.657 2145.4,332.544 2147.75,331.326 2155.85,327.195 2156.7,326.763 2158.52,325.847 2171.92,318.205 2176.56,315.7 2180.35,313.356 2188.02,308.844 2189.93,307.762 2194.47,305.24 2197.38,303.656 2201.5,301.446 2205.25,299.473 2220.08,291.882 2234.15,284.879 2234.81,284.552 2239.84,282.075 2243.93,279.714 2250.29,276.162 2254.67,273.789 2264.59,267.798 2290.38,253.896 2294.64,251.727 2316.69,239.397 2318.23,238.588 2321.18,237.049 2327.89,233.599 2329.34,232.86 2339.63,227.689 2352.76,221.2 "/>
<polyline clip-path="url(#clip631)" style="stroke:#ac8d18; stroke-linecap:round; stroke-linejoin:round; stroke-width:4; stroke-opacity:1; fill:none" points="140.696,1384.24 140.696,1384.24 142.272,1383.48 164.586,1372.72 209.546,1351.03 253.83,1327.82 262.119,1323.73 271.027,1318.66 285.18,1311.1 287.127,1309.91 293.453,1306.18 303.356,1300.67 307.057,1298.36 307.357,1298.17 313.598,1293.93 320.986,1288.69 324.099,1286.63 329.964,1282.94 334.034,1280.51 334.058,1280.49 342.578,1274.95 351.356,1269.71 364.664,1262.36 365.146,1262.11 399.519,1242.97 401.74,1241.83 404.097,1240.63 407.894,1238.71 410.56,1237.38 438.249,1222.2 445.906,1217.66 451.137,1214.71 455.378,1212.02 457.993,1210.41 467.571,1204.83 469.773,1203.59 477.72,1198.63 497.545,1187.52 508.416,1181.86 527.166,1171.22 536.511,1166.3 549.218,1159.82 567.895,1150.56 569.072,1149.98 589.394,1140.07 598.52,1135.65 611.428,1129.4 629.175,1119.65 632.713,1117.48 634.426,1116.46 635.296,1115.86 646.803,1108.52 656.969,1102.65 669.563,1095.86 670.136,1095.56 676.253,1092.38 687.532,1086.67 687.877,1086.46 698.486,1079.57 702.649,1076.7 709.198,1072.48 715.316,1068.78 723.613,1064.04 782.382,1034.19 786.047,1032.08 788.098,1030.92 790.643,1029.51 795.82,1026.69 811.335,1017.51 854.342,995.331 866.416,989.407 876.495,983.713 905.041,967.348 924.994,957.136 925.321,956.941 926.154,956.447 930.561,953.501 933.067,951.665 947.748,942.045 954.844,937.881 970.005,928.536 972.477,927.125 977.034,924.186 990.262,916.345 1004.71,907.492 1008.94,905.097 1013.27,902.711 1013.94,902.283 1041.29,885.142 1044.64,883.302 1050.28,880.266 1063.9,872.221 1072.48,867.522 1075.43,865.684 1076.86,864.685 1087.18,857.945 1087.98,857.448 1088.05,857.409 1096.47,852.443 1099.81,850.259 1110.07,843.217 1116.03,839.499 1118.7,837.904 1132.78,828.973 1146.24,821.378 1148.19,820.146 1150.91,818.471 1160.44,812.149 1181.99,799.76 1193.83,792.656 1223.2,775.477 1224.66,774.57 1228.06,772.5 1233.95,769.05 1265.78,752.181 1272.05,749.039 1327.28,720.112 1334.22,716.135 1337.96,713.73 1366.35,696.138 1371.19,693.513 1374.73,691.314 1377.47,689.661 1377.69,689.525 1382.38,686.38 1388.16,682.245 1389.51,681.323 1391.41,679.884 1393.23,678.537 1402.3,671.623 1415.38,663.082 1415.88,662.73 1422.22,658.474 1425.44,656.141 1430.08,652.963 1455.53,636.469 1456.55,635.887 1457.32,635.384 1469.41,627.022 1476.48,622.658 1480.5,619.949 1497.29,609.779 1501.15,607.279 1505.98,603.878 1507.53,602.839 1526.05,590.369 1541.17,580.675 1558.08,571.21 1562.34,568.584 1569.02,564.099 1587.53,553.141 1595.79,548.673 1597.99,547.51 1599.26,546.842 1604.37,544.188 1617.64,537.462 1619.3,536.478 1621.01,535.476 1639.5,524.115 1643.92,521.643 1655.42,515.474 1659.17,513.523 1661.43,512.151 1662.03,511.791 1690.29,496.316 1691.66,495.613 1694.91,493.659 1695.56,493.281 1700.49,490.002 1719.58,477.482 1720.91,476.575 1721.98,475.856 1729.9,470.162 1733.87,467.534 1738.51,464.608 1742.69,461.713 1743.39,461.242 1744.8,460.182 1750.72,455.954 1757.08,451.239 1763.57,446.303 1767.26,443.383 1771.29,440.039 1771.85,439.591 1775.35,436.588 1780.36,432.618 1790.23,424.886 1796.66,420.445 1801.21,417.118 1804.34,414.674 1806,413.427 1812.13,409.087 1818.5,404.394 1818.53,404.367 1854.89,379.467 1860.92,375.631 1867.15,371.37 1874.71,365.99 1877.64,363.777 1879.16,362.677 1885.67,358.204 1888.73,355.941 1904.46,345.682 1908.88,343.077 1912.14,340.924 1916.87,337.935 1935.96,327.01 1959.03,315.069 1973.06,308.096 1975.73,306.537 1982.78,301.984 1999.67,292.188 2016.19,283.459 2019.75,281.641 2023.06,279.964 2030.64,276.165 2048.8,267.203 2054.54,263.915 2059.62,260.66 2060.44,260.154 2085.89,244.372 2103.43,235.017 2111.63,230.837 2119.13,227.069 2137.54,217.987 2145.18,214.253 2145.4,214.125 2147.75,212.766 2155.85,208.249 2156.7,207.785 2158.52,206.802 2171.92,199.778 2176.56,197.414 2180.35,195.5 2188.02,191.039 2189.93,189.791 2194.47,186.927 2197.38,185.157 2201.5,182.359 2205.25,179.939 2220.08,170.122 2234.15,161.014 2234.81,160.554 2239.84,156.752 2243.93,153.877 2250.29,149.158 2254.67,145.771 2264.59,138.878 2290.38,122.405 2294.64,119.659 2316.69,106.956 2318.23,106.133 2321.18,104.568 2327.89,101.071 2329.34,100.188 2339.63,94.2276 2352.76,86.1857 "/>
<polyline clip-path="url(#clip631)" style="stroke:#00a9ad; stroke-linecap:round; stroke-linejoin:round; stroke-width:4; stroke-opacity:1; fill:none" points="140.696,1384.24 140.696,1384.24 142.272,1383.33 164.586,1371.3 209.546,1348.99 253.83,1327.54 262.119,1322.87 271.027,1318.09 285.18,1310.79 287.127,1309.63 293.453,1305.97 303.356,1300.54 307.057,1298.57 307.357,1298.41 313.598,1294.64 320.986,1290.41 324.099,1288.68 329.964,1285.52 334.034,1283.36 334.058,1283.35 342.578,1278.26 351.356,1273.34 364.664,1266.29 365.146,1266.04 399.519,1248.86 401.74,1247.57 404.097,1246.23 407.894,1243.76 410.56,1242.09 438.249,1226.6 445.906,1222.66 451.137,1220.01 455.378,1217.5 457.993,1216 467.571,1210.71 469.773,1209.33 477.72,1203.92 497.545,1192.21 508.416,1186.39 527.166,1176.83 536.511,1172.18 549.218,1165.01 567.895,1155.23 569.072,1154.63 589.394,1144.5 598.52,1140.03 611.428,1133.73 629.175,1125.13 632.713,1123.42 634.426,1122.43 635.296,1121.93 646.803,1114.73 656.969,1108.15 669.563,1100.83 670.136,1100.46 676.253,1096.62 687.532,1090.07 687.877,1089.84 698.486,1082.48 702.649,1079.48 709.198,1074.55 715.316,1070.35 723.613,1065.12 782.382,1032.28 786.047,1030.46 788.098,1029.26 790.643,1027.56 795.82,1023.81 811.335,1012.85 854.342,989.165 866.416,983.134 876.495,978.168 905.041,962.719 924.994,952.715 925.321,952.553 926.154,952.142 930.561,949.972 933.067,948.741 947.748,941.572 954.844,938.124 970.005,929.718 972.477,928.409 977.034,926.025 990.262,918.319 1004.71,910.57 1008.94,908.383 1013.27,906.173 1013.94,905.769 1041.29,889.19 1044.64,887.383 1050.28,884.391 1063.9,877.399 1072.48,873.098 1075.43,871.632 1076.86,870.927 1087.18,865.845 1087.98,865.372 1088.05,865.335 1096.47,859.893 1099.81,857.564 1110.07,850.986 1116.03,847.455 1118.7,845.928 1132.78,837.248 1146.24,828.809 1148.19,827.672 1150.91,825.868 1160.44,819.205 1181.99,805.091 1193.83,797.551 1223.2,779.92 1224.66,779.138 1228.06,777.331 1233.95,773.753 1265.78,754.931 1272.05,751.638 1327.28,724.252 1334.22,720.887 1337.96,719.074 1366.35,703.803 1371.19,700.934 1374.73,698.587 1377.47,696.835 1377.69,696.669 1382.38,692.979 1388.16,688.802 1389.51,687.872 1391.41,686.598 1393.23,685.227 1402.3,678.223 1415.38,668.648 1415.88,668.316 1422.22,664.267 1425.44,662.018 1430.08,658.539 1455.53,642.62 1456.55,642.051 1457.32,641.628 1469.41,635.138 1476.48,631.479 1480.5,629.435 1497.29,621.044 1501.15,618.797 1505.98,616.073 1507.53,615.22 1526.05,604.22 1541.17,596.141 1558.08,587.557 1562.34,585.066 1569.02,581.302 1587.53,570.296 1595.79,565.816 1597.99,564.651 1599.26,563.981 1604.37,561.324 1617.64,554.589 1619.3,553.605 1621.01,552.443 1639.5,539.957 1643.92,537.329 1655.42,530.873 1659.17,528.524 1661.43,527.149 1662.03,526.789 1690.29,511.3 1691.66,510.468 1694.91,508.239 1695.56,507.811 1700.49,504.621 1719.58,493.543 1720.91,492.697 1721.98,492.025 1729.9,486.616 1733.87,483.746 1738.51,480.183 1742.69,476.818 1743.39,476.209 1744.8,475.019 1750.72,469.821 1757.08,464.317 1763.57,458.777 1767.26,455.585 1771.29,452.346 1771.85,451.912 1775.35,448.985 1780.36,444.671 1790.23,437.221 1796.66,432.368 1801.21,428.814 1804.34,426.52 1806,425.345 1812.13,420.71 1818.5,415.787 1818.53,415.758 1854.89,392.025 1860.92,388.764 1867.15,385.479 1874.71,381.586 1877.64,379.827 1879.16,378.798 1885.67,374.033 1888.73,371.661 1904.46,359.938 1908.88,357.077 1912.14,354.766 1916.87,351.584 1935.96,338.956 1959.03,326.208 1973.06,318.026 1975.73,316.311 1982.78,312.01 1999.67,301.432 2016.19,292.343 2019.75,290.477 2023.06,288.762 2030.64,284.275 2048.8,274.368 2054.54,271.397 2059.62,268.362 2060.44,267.887 2085.89,254.129 2103.43,245.288 2111.63,241.241 2119.13,237.557 2137.54,228.594 2145.18,224.262 2145.4,224.121 2147.75,222.617 2155.85,217.705 2156.7,217.207 2158.52,215.987 2171.92,207.709 2176.56,205.059 2180.35,202.954 2188.02,198.19 2189.93,197.058 2194.47,194.432 2197.38,192.792 2201.5,190.151 2205.25,187.518 2220.08,178.178 2234.15,169.307 2234.81,168.918 2239.84,165.59 2243.93,163.027 2250.29,158.694 2254.67,155.899 2264.59,149.984 2290.38,134.702 2294.64,132.05 2316.69,119.629 2318.23,118.673 2321.18,116.612 2327.89,111.646 2329.34,110.636 2339.63,103.18 2352.76,94.9624 "/>
<polyline clip-path="url(#clip631)" style="stroke:#ed5d92; stroke-linecap:round; stroke-linejoin:round; stroke-width:4; stroke-opacity:1; fill:none" points="140.696,1384.24 140.696,1384.24 142.272,1383.33 164.586,1371.3 209.546,1348.99 253.83,1327.54 262.119,1322.87 271.027,1318.09 285.18,1310.79 287.127,1309.81 293.453,1306.64 303.356,1301.73 307.057,1299.91 307.357,1299.77 313.598,1296.71 320.986,1293.1 324.099,1291.59 329.964,1288.74 334.034,1286.76 334.058,1286.75 342.578,1282.62 351.356,1278.38 364.664,1271.95 365.146,1271.71 399.519,1255.12 401.74,1254.05 404.097,1252.91 407.894,1251.08 410.56,1249.8 438.249,1234.91 445.906,1231.04 451.137,1228.43 455.378,1225.95 457.993,1224.46 467.571,1219.2 469.773,1218.03 477.72,1213.87 497.545,1203.87 508.416,1198.5 527.166,1188.13 536.511,1183.28 549.218,1176.87 567.895,1167.65 569.072,1167.07 589.394,1157.18 598.52,1152.76 611.428,1146.51 629.175,1136.76 632.713,1134.6 634.426,1133.57 635.296,1132.98 646.803,1125.64 656.969,1118.98 669.563,1111.6 670.136,1111.23 676.253,1107.37 687.532,1100.8 687.877,1100.6 698.486,1094.03 702.649,1091.62 709.198,1087.41 715.316,1083.72 723.613,1079 782.382,1049.17 786.047,1047.06 788.098,1045.71 790.643,1043.85 795.82,1040.27 811.335,1030.72 854.342,1008.22 866.416,1002.28 876.495,997.352 905.041,983.505 924.994,973.863 925.321,973.705 926.154,973.303 930.561,970.79 933.067,969.164 947.748,960.395 954.844,956.48 970.005,947.461 972.477,946.085 977.034,943.598 990.262,935.688 1004.71,927.818 1008.94,925.609 1013.27,923.38 1013.94,923.037 1041.29,909.384 1044.64,907.745 1050.28,904.986 1063.9,897.38 1072.48,892.847 1075.43,891.053 1076.86,890.205 1087.18,884.319 1087.98,883.798 1088.05,883.757 1096.47,878.578 1099.81,876.629 1110.07,870.123 1116.03,866.619 1118.7,865.103 1132.78,857.468 1146.24,849.564 1148.19,848.481 1150.91,846.992 1160.44,841.919 1181.99,830.975 1193.83,824.235 1223.2,807.435 1224.66,806.537 1228.06,804.485 1233.95,800.562 1265.78,780.877 1272.05,777.518 1327.28,749.945 1334.22,746.576 1337.96,744.428 1366.35,729.39 1371.19,726.958 1374.73,725.19 1377.47,723.827 1377.69,723.692 1382.38,720.56 1388.16,716.438 1389.51,715.518 1391.41,714.258 1393.23,712.9 1402.3,705.943 1415.38,697.364 1415.88,697.011 1422.22,692.744 1425.44,690.406 1430.08,687.222 1455.53,670.712 1456.55,670.13 1457.32,669.698 1469.41,663.101 1476.48,659.402 1480.5,657.34 1497.29,648.902 1501.15,646.99 1505.98,644.611 1507.53,643.854 1526.05,633.602 1541.17,625.807 1558.08,617.378 1562.34,614.91 1569.02,611.175 1587.53,600.216 1595.79,595.747 1597.99,594.584 1599.26,593.916 1604.37,591.262 1617.64,584.536 1619.3,583.552 1621.01,582.55 1639.5,572.399 1643.92,570.094 1655.42,564.233 1659.17,562.353 1661.43,561.018 1662.03,560.667 1690.29,545.435 1691.66,544.737 1694.91,543.088 1695.56,542.764 1700.49,539.858 1719.58,529.436 1720.91,528.743 1721.98,528.187 1729.9,524.127 1733.87,522.122 1738.51,519.797 1742.69,517.714 1743.39,517.365 1744.8,516.537 1750.72,512.641 1757.08,508.197 1763.57,503.467 1767.26,500.64 1771.29,497.381 1771.85,496.945 1775.35,494.003 1780.36,490.104 1790.23,482.475 1796.66,478.08 1801.21,474.779 1804.34,472.349 1806,471.109 1812.13,466.79 1818.5,462.115 1818.53,462.087 1854.89,437.229 1860.92,433.904 1867.15,430.045 1874.71,425.022 1877.64,423.184 1879.16,422.117 1885.67,417.763 1888.73,415.823 1904.46,406.665 1908.88,404.254 1912.14,402.512 1916.87,400.023 1935.96,390.311 1959.03,378.945 1973.06,372.119 1975.73,370.579 1982.78,366.649 1999.67,357.741 2016.19,349.421 2019.75,347.657 2023.06,346.024 2030.64,342.303 2048.8,333.449 2054.54,330.667 2059.62,328.202 2060.44,327.807 2085.89,315.504 2103.43,307.033 2111.63,303.08 2119.13,299.457 2137.54,290.579 2145.18,286.89 2145.4,286.764 2147.75,285.416 2155.85,280.93 2156.7,280.468 2158.52,279.49 2171.92,272.494 2176.56,270.136 2180.35,268.227 2188.02,263.773 2189.93,262.702 2194.47,260.203 2197.38,258.632 2201.5,256.438 2205.25,254.476 2220.08,245.873 2234.15,238.371 2234.81,238.027 2239.84,235.004 2243.93,232.643 2250.29,229.091 2254.67,226.334 2264.59,220.482 2290.38,206.747 2294.64,204.592 2316.69,193.65 2318.23,192.895 2321.18,191.184 2327.89,187.419 2329.34,186.623 2339.63,181.142 2352.76,173.463 "/>
<polyline clip-path="url(#clip631)" style="stroke:#c68125; stroke-linecap:round; stroke-linejoin:round; stroke-width:4; stroke-opacity:1; fill:none" points="140.696,1384.24 140.696,1384.24 142.272,1383.33 164.586,1371.3 209.546,1348.99 253.83,1327.54 262.119,1322.87 271.027,1318.09 285.18,1310.79 287.127,1309.63 293.453,1305.97 303.356,1299.77 307.057,1297.59 307.357,1297.39 313.598,1292.81 320.986,1287.89 324.099,1285.94 329.964,1282.41 334.034,1280.06 334.058,1280.05 342.578,1273.96 351.356,1268.35 364.664,1260.65 365.146,1260.39 399.519,1242.61 401.74,1241.5 404.097,1240.34 407.894,1238.46 410.56,1237.15 438.249,1222.13 445.906,1218.24 451.137,1215.17 455.378,1212.77 457.993,1211.31 467.571,1205.41 469.773,1204.13 477.72,1199 497.545,1187.67 508.416,1181.12 527.166,1169.68 536.511,1164.55 549.218,1157.91 567.895,1147.3 569.072,1146.67 589.394,1136.18 598.52,1131.62 611.428,1124.32 629.175,1113.83 632.713,1111.58 634.426,1110.51 635.296,1109.9 646.803,1102.38 656.969,1095.62 669.563,1087.24 670.136,1086.83 676.253,1082.67 687.532,1075.7 687.877,1075.47 698.486,1068.69 702.649,1065.85 709.198,1061.12 715.316,1057.07 723.613,1051.98 782.382,1021.41 786.047,1019.29 788.098,1017.94 790.643,1016.07 795.82,1012.49 811.335,1001.84 854.342,978.422 866.416,972.41 876.495,967.454 905.041,952.016 924.994,942.015 925.321,941.853 926.154,941.442 930.561,938.886 933.067,937.24 947.748,928.388 954.844,924.449 970.005,916.458 972.477,914.967 977.034,912.298 990.262,904.031 1004.71,895.952 1008.94,893.703 1013.27,891.44 1013.94,891.029 1041.29,874.282 1044.64,872.465 1050.28,869.46 1063.9,861.465 1072.48,856.784 1075.43,854.951 1076.86,854.087 1087.18,848.106 1087.98,847.578 1088.05,847.531 1096.47,841.629 1099.81,839.162 1110.07,831.476 1116.03,827.499 1118.7,825.809 1132.78,816.529 1146.24,807.781 1148.19,806.613 1150.91,805.018 1160.44,798.911 1181.99,786.771 1193.83,780.615 1223.2,765.992 1224.66,765.144 1228.06,763.197 1233.95,759.422 1265.78,740.107 1272.05,736.25 1327.28,707.278 1334.22,703.875 1337.96,701.713 1366.35,685.074 1371.19,682.52 1374.73,680.364 1377.47,678.74 1377.69,678.585 1382.38,675.486 1388.16,671.396 1389.51,670.483 1391.41,669.23 1393.23,667.88 1402.3,661.671 1415.38,653.75 1415.88,653.416 1422.22,649.348 1425.44,647.381 1430.08,644.645 1455.53,629.447 1456.55,628.893 1457.32,628.481 1469.41,622.121 1476.48,618.511 1480.5,616.488 1497.29,608.155 1501.15,605.916 1505.98,603.2 1507.53,602.35 1526.05,592.58 1541.17,584.967 1558.08,576.637 1562.34,574.558 1569.02,571.301 1587.53,561.111 1595.79,556.826 1597.99,555.5 1599.26,554.743 1604.37,551.345 1617.64,542.361 1619.3,541.332 1621.01,540.288 1639.5,528.626 1643.92,526.112 1655.42,519.866 1659.17,517.898 1661.43,516.516 1662.03,516.154 1690.29,499.078 1691.66,498.337 1694.91,496.304 1695.56,495.85 1700.49,492.058 1719.58,479.586 1720.91,478.682 1721.98,477.964 1729.9,472.28 1733.87,469.655 1738.51,466.733 1742.69,463.84 1743.39,463.37 1744.8,462.31 1750.72,457.584 1757.08,452.996 1763.57,448.7 1767.26,446.397 1771.29,443.618 1771.85,443.188 1775.35,440.597 1780.36,437.114 1790.23,430.073 1796.66,425.942 1801.21,423.183 1804.34,421.067 1806,419.822 1812.13,415.487 1818.5,411.334 1818.53,411.312 1854.89,389.437 1860.92,386.283 1867.15,382.558 1874.71,377.655 1877.64,375.588 1879.16,374.414 1885.67,369.676 1888.73,367.314 1904.46,356.712 1908.88,354.048 1912.14,351.858 1916.87,348.823 1935.96,337.789 1959.03,324.412 1973.06,317.071 1975.73,315.708 1982.78,312.153 1999.67,303.78 2016.19,294.582 2019.75,292.701 2023.06,290.974 2030.64,287.085 2048.8,278 2054.54,275.176 2059.62,272.244 2060.44,271.784 2085.89,258.287 2103.43,249.513 2111.63,245.482 2119.13,241.81 2137.54,232.861 2145.18,229.157 2145.4,229.052 2147.75,227.913 2155.85,223.999 2156.7,223.586 2158.52,222.707 2171.92,216.233 2176.56,213.59 2180.35,211.488 2188.02,207.358 2189.93,206.351 2194.47,203.59 2197.38,201.876 2201.5,199.146 2205.25,196.777 2220.08,187.096 2234.15,178.056 2234.81,177.661 2239.84,174.731 2243.93,172.43 2250.29,168.42 2254.67,165.416 2264.59,159.155 2290.38,143.452 2294.64,140.767 2316.69,128.246 2318.23,127.43 2321.18,125.611 2327.89,121.648 2329.34,120.817 2339.63,115.141 2352.76,107.315 "/>
<polyline clip-path="url(#clip631)" style="stroke:#00a98d; stroke-linecap:round; stroke-linejoin:round; stroke-width:4; stroke-opacity:1; fill:none" points="140.696,1384.24 140.696,1384.24 142.272,1383.48 164.586,1371.36 209.546,1348.99 253.83,1325.69 262.119,1321.6 271.027,1316.53 285.18,1307.95 287.127,1306.85 293.453,1303.35 303.356,1298.09 307.057,1295.84 307.357,1295.66 313.598,1292.04 320.986,1287.33 324.099,1285.17 329.964,1281.33 334.034,1278.8 334.058,1278.79 342.578,1273.79 351.356,1268.23 364.664,1260.59 365.146,1260.32 399.519,1240.91 401.74,1239.76 404.097,1238.56 407.894,1236.63 410.56,1235.04 438.249,1218.47 445.906,1213.78 451.137,1210.75 455.378,1208.37 457.993,1206.69 467.571,1200.91 469.773,1199.64 477.72,1195.22 497.545,1184.86 508.416,1179.4 527.166,1168.94 536.511,1163.33 549.218,1156.29 567.895,1146.6 569.072,1146.01 589.394,1135.92 598.52,1131.45 611.428,1125.17 629.175,1115.39 632.713,1113.22 634.426,1112.19 635.296,1111.6 646.803,1104.25 656.969,1098.38 669.563,1091.58 670.136,1091.28 676.253,1088.11 687.532,1082.39 687.877,1082.22 698.486,1076.94 702.649,1074.89 709.198,1071.68 715.316,1068.69 723.613,1064.65 782.382,1036.22 786.047,1034.13 788.098,1032.98 790.643,1031.57 795.82,1028.77 811.335,1020.7 854.342,999.453 866.416,993.595 876.495,987.934 905.041,973.16 924.994,963.309 925.321,963.117 926.154,962.553 930.561,959.278 933.067,957.282 947.748,945.978 954.844,941.324 970.005,932.393 972.477,931.027 977.034,928.157 990.262,920.455 1004.71,911.683 1008.94,909.303 1013.27,906.93 1013.94,906.568 1041.29,892.456 1044.64,890.79 1050.28,887.995 1063.9,880.331 1072.48,875.089 1075.43,873.109 1076.86,872.046 1087.18,864.956 1087.98,864.438 1088.05,864.397 1096.47,859.251 1099.81,857.312 1110.07,850.828 1116.03,847.333 1118.7,845.578 1132.78,837.063 1146.24,829.682 1148.19,828.471 1150.91,826.822 1160.44,821.32 1181.99,809.88 1193.83,803.901 1223.2,789.462 1224.66,788.618 1228.06,786.376 1233.95,782.684 1265.78,765.208 1272.05,762.02 1327.28,732.962 1334.22,728.982 1337.96,726.576 1366.35,710.524 1371.19,708.014 1374.73,706.201 1377.47,704.558 1377.69,704.423 1382.38,701.701 1388.16,697.978 1389.51,697.011 1391.41,695.514 1393.23,694.115 1402.3,687.718 1415.38,679.632 1415.88,679.293 1422.22,675.175 1425.44,673.188 1430.08,670.427 1455.53,655.157 1456.55,654.601 1457.32,654.116 1469.41,645.975 1476.48,641.694 1480.5,639.022 1497.29,628.949 1501.15,626.806 1505.98,623.771 1507.53,622.689 1526.05,611.095 1541.17,601.733 1558.08,592.449 1562.34,590.224 1569.02,586.232 1587.53,576.068 1595.79,571.125 1597.99,569.862 1599.26,569.14 1604.37,566.302 1617.64,559.253 1619.3,558.395 1621.01,557.514 1639.5,548.21 1643.92,545.637 1655.42,539.283 1659.17,537.29 1661.43,535.895 1662.03,535.529 1690.29,519.909 1691.66,519.203 1694.91,517.534 1695.56,517.207 1700.49,514.277 1719.58,502.565 1720.91,501.817 1721.98,501.119 1729.9,496.192 1733.87,493.856 1738.51,491.212 1742.69,488.893 1743.39,488.509 1744.8,487.614 1750.72,483.977 1757.08,480.277 1763.57,476.66 1767.26,474.662 1771.29,472.164 1771.85,471.823 1775.35,469.737 1780.36,466.851 1790.23,460.657 1796.66,456.907 1801.21,454.358 1804.34,452.363 1806,451.329 1812.13,447.653 1818.5,444.016 1818.53,443.997 1854.89,423.371 1860.92,419.779 1867.15,415.711 1874.71,410.502 1877.64,408.607 1879.16,407.655 1885.67,403.714 1888.73,401.93 1904.46,393.308 1908.88,390.99 1912.14,389.307 1916.87,386.888 1935.96,377.348 1959.03,366.063 1973.06,359.258 1975.73,357.963 1982.78,353.973 1999.67,344.978 2016.19,336.618 2019.75,334.849 2023.06,333.212 2030.64,329.484 2048.8,320.619 2054.54,317.348 2059.62,314.543 2060.44,314.023 2085.89,297.984 2103.43,288.563 2111.63,283.706 2119.13,278.888 2137.54,268.336 2145.18,264.271 2145.4,264.157 2147.75,262.715 2155.85,257.319 2156.7,256.698 2158.52,255.402 2171.92,246.715 2176.56,243.973 2180.35,241.804 2188.02,237.568 2189.93,236.365 2194.47,233.593 2197.38,231.61 2201.5,228.917 2205.25,226.577 2220.08,216.972 2234.15,208.974 2234.81,208.551 2239.84,205.431 2243.93,203.005 2250.29,199.374 2254.67,196.574 2264.59,190.651 2290.38,176.831 2294.64,174.668 2316.69,163.706 2318.23,162.951 2321.18,161.505 2327.89,158.226 2329.34,157.382 2339.63,151.636 2352.76,143.756 "/>
<polyline clip-path="url(#clip631)" style="stroke:#8e971d; stroke-linecap:round; stroke-linejoin:round; stroke-width:4; stroke-opacity:1; fill:none" points="140.696,1384.24 140.696,1384.24 142.272,1383.48 164.586,1372.72 209.546,1349.17 253.83,1327.57 262.119,1323.56 271.027,1319.25 285.18,1312.42 287.127,1311.48 293.453,1307.89 303.356,1302.54 307.057,1300.59 307.357,1300.44 313.598,1297.21 320.986,1293.47 324.099,1291.9 329.964,1288.48 334.034,1285.83 334.058,1285.82 342.578,1280.62 351.356,1275.63 364.664,1267.54 365.146,1267.22 399.519,1247.43 401.74,1246.27 404.097,1244.84 407.894,1242.6 410.56,1241.06 438.249,1226.3 445.906,1222.45 451.137,1219.84 455.378,1217.74 457.993,1216.45 467.571,1211.75 469.773,1210.67 477.72,1206.8 497.545,1195.92 508.416,1190.32 527.166,1180.95 536.511,1176.36 549.218,1170.17 567.895,1161.11 569.072,1160.43 589.394,1148.1 598.52,1142.41 611.428,1135.07 629.175,1125.73 632.713,1123.93 634.426,1123.06 635.296,1122.62 646.803,1116.88 656.969,1111.87 669.563,1105.72 670.136,1105.44 676.253,1101.95 687.532,1094.98 687.877,1094.77 698.486,1088.79 702.649,1086.54 709.198,1083.08 715.316,1079.41 723.613,1074.03 782.382,1042.85 786.047,1041.05 788.098,1040.05 790.643,1038.8 795.82,1036.27 811.335,1028.73 854.342,1006.1 866.416,999.251 876.495,993.869 905.041,979.445 924.994,968.403 925.321,968.231 926.154,967.794 930.561,965.503 933.067,964.213 947.748,956.805 954.844,952.701 970.005,944.494 972.477,943.205 977.034,940.856 990.262,934.177 1004.71,927.031 1008.94,924.587 1013.27,921.78 1013.94,921.358 1041.29,905.862 1044.64,903.818 1050.28,900.018 1063.9,891.746 1072.48,886.961 1075.43,885.367 1076.86,884.607 1087.18,878.416 1087.98,877.952 1088.05,877.916 1096.47,873.231 1099.81,871.431 1110.07,866.056 1116.03,862.503 1118.7,860.968 1132.78,853.265 1146.24,846.3 1148.19,845.312 1150.91,843.941 1160.44,839.186 1181.99,828.611 1193.83,822.849 1223.2,808.636 1224.66,807.933 1228.06,806.291 1233.95,803.445 1265.78,788.084 1272.05,785.058 1327.28,758.42 1334.22,755.073 1337.96,753.267 1366.35,739.572 1371.19,737.24 1374.73,735.534 1377.47,734.212 1377.69,734.102 1382.38,731.841 1388.16,729.056 1389.51,728.403 1391.41,727.489 1393.23,726.607 1402.3,722.232 1415.38,715.927 1415.88,715.686 1422.22,712.095 1425.44,710.323 1430.08,707.823 1455.53,694.776 1456.55,694.171 1457.32,693.722 1469.41,686.92 1476.48,682.56 1480.5,680.207 1497.29,669.852 1501.15,667.669 1505.98,665.012 1507.53,664.178 1526.05,654.533 1541.17,646.968 1558.08,637.523 1562.34,635.273 1569.02,631.808 1587.53,622.491 1595.79,618.415 1597.99,617.334 1599.26,616.59 1604.37,613.674 1617.64,606.49 1619.3,605.621 1621.01,604.728 1639.5,595.345 1643.92,593.147 1655.42,586.616 1659.17,584.582 1661.43,583.374 1662.03,582.997 1690.29,567.093 1691.66,566.379 1694.91,564.696 1695.56,564.367 1700.49,561.846 1719.58,552.318 1720.91,551.663 1721.98,551.136 1729.9,547.252 1733.87,545.315 1738.51,543.054 1742.69,541.019 1743.39,540.677 1744.8,539.995 1750.72,537.12 1757.08,534.04 1763.57,530.897 1767.26,529.113 1771.29,527.166 1771.85,526.894 1775.35,525.202 1780.36,522.783 1790.23,518.017 1796.66,514.91 1801.21,512.714 1804.34,511.205 1806,510.403 1812.13,507.446 1818.5,504.373 1818.53,504.356 1854.89,486.818 1860.92,483.911 1867.15,480.906 1874.71,477.26 1877.64,475.843 1879.16,475.113 1885.67,471.974 1888.73,470.493 1904.46,462.91 1908.88,460.388 1912.14,458.577 1916.87,455.594 1935.96,444.682 1959.03,432.747 1973.06,425.776 1975.73,424.46 1982.78,421.006 1999.67,412.777 2016.19,404.769 2019.75,402.73 2023.06,400.581 2030.64,395.934 2048.8,384.609 2054.54,381.383 2059.62,378.61 2060.44,378.172 2085.89,365.082 2103.43,355.241 2111.63,350.937 2119.13,347.089 2137.54,336.689 2145.18,332.657 2145.4,332.544 2147.75,331.326 2155.85,327.195 2156.7,326.763 2158.52,325.847 2171.92,318.205 2176.56,315.7 2180.35,313.356 2188.02,308.844 2189.93,307.762 2194.47,305.24 2197.38,303.656 2201.5,301.446 2205.25,299.473 2220.08,291.882 2234.15,284.879 2234.81,284.552 2239.84,282.075 2243.93,279.714 2250.29,276.162 2254.67,273.789 2264.59,267.798 2290.38,253.896 2294.64,251.727 2316.69,239.397 2318.23,238.588 2321.18,237.049 2327.89,233.599 2329.34,232.86 2339.63,227.689 2352.76,221.2 "/>
<path clip-path="url(#clip630)" d="M214.431 663.349 L554.896 663.349 L554.896 93.1086 L214.431 93.1086  Z" fill="#ffffff" fill-rule="evenodd" fill-opacity="1"/>
<polyline clip-path="url(#clip630)" style="stroke:#000000; stroke-linecap:round; stroke-linejoin:round; stroke-width:4; stroke-opacity:1; fill:none" points="214.431,663.349 554.896,663.349 554.896,93.1086 214.431,93.1086 214.431,663.349 "/>
<polyline clip-path="url(#clip630)" style="stroke:#009af9; stroke-linecap:round; stroke-linejoin:round; stroke-width:4; stroke-opacity:1; fill:none" points="239.009,144.949 386.48,144.949 "/>
<path clip-path="url(#clip630)" d="M411.058 151.997 L411.058 136.303 L415.318 136.303 L415.318 151.835 Q415.318 155.516 416.753 157.368 Q418.188 159.196 421.058 159.196 Q424.507 159.196 426.498 156.997 Q428.512 154.798 428.512 151.002 L428.512 136.303 L432.771 136.303 L432.771 162.229 L428.512 162.229 L428.512 158.247 Q426.961 160.608 424.901 161.766 Q422.864 162.9 420.156 162.9 Q415.688 162.9 413.373 160.122 Q411.058 157.344 411.058 151.997 M421.776 135.678 L421.776 135.678 Z" fill="#000000" fill-rule="nonzero" fill-opacity="1" /><path clip-path="url(#clip630)" d="M441.151 126.21 L450.966 126.21 L450.966 129.52 L445.41 129.52 L445.41 165.168 L450.966 165.168 L450.966 168.479 L441.151 168.479 L441.151 126.21 Z" fill="#000000" fill-rule="nonzero" fill-opacity="1" /><path clip-path="url(#clip630)" d="M461.452 158.293 L469.091 158.293 L469.091 131.928 L460.78 133.595 L460.78 129.335 L469.044 127.669 L473.72 127.669 L473.72 158.293 L481.359 158.293 L481.359 162.229 L461.452 162.229 L461.452 158.293 Z" fill="#000000" fill-rule="nonzero" fill-opacity="1" /><path clip-path="url(#clip630)" d="M500.155 126.21 L500.155 168.479 L490.34 168.479 L490.34 165.168 L495.873 165.168 L495.873 129.52 L490.34 129.52 L490.34 126.21 L500.155 126.21 Z" fill="#000000" fill-rule="nonzero" fill-opacity="1" /><polyline clip-path="url(#clip630)" style="stroke:#e26f46; stroke-linecap:round; stroke-linejoin:round; stroke-width:4; stroke-opacity:1; fill:none" points="239.009,196.789 386.48,196.789 "/>
<path clip-path="url(#clip630)" d="M411.058 203.837 L411.058 188.143 L415.318 188.143 L415.318 203.675 Q415.318 207.356 416.753 209.208 Q418.188 211.036 421.058 211.036 Q424.507 211.036 426.498 208.837 Q428.512 206.638 428.512 202.842 L428.512 188.143 L432.771 188.143 L432.771 214.069 L428.512 214.069 L428.512 210.087 Q426.961 212.448 424.901 213.606 Q422.864 214.74 420.156 214.74 Q415.688 214.74 413.373 211.962 Q411.058 209.184 411.058 203.837 M421.776 187.518 L421.776 187.518 Z" fill="#000000" fill-rule="nonzero" fill-opacity="1" /><path clip-path="url(#clip630)" d="M441.151 178.05 L450.966 178.05 L450.966 181.36 L445.41 181.36 L445.41 217.008 L450.966 217.008 L450.966 220.319 L441.151 220.319 L441.151 178.05 Z" fill="#000000" fill-rule="nonzero" fill-opacity="1" /><path clip-path="url(#clip630)" d="M464.669 210.133 L480.989 210.133 L480.989 214.069 L459.044 214.069 L459.044 210.133 Q461.706 207.379 466.29 202.749 Q470.896 198.096 472.077 196.754 Q474.322 194.231 475.202 192.495 Q476.104 190.735 476.104 189.046 Q476.104 186.291 474.16 184.555 Q472.239 182.819 469.137 182.819 Q466.938 182.819 464.484 183.583 Q462.054 184.347 459.276 185.897 L459.276 181.175 Q462.1 180.041 464.554 179.462 Q467.007 178.884 469.044 178.884 Q474.415 178.884 477.609 181.569 Q480.803 184.254 480.803 188.745 Q480.803 190.874 479.993 192.796 Q479.206 194.694 477.1 197.286 Q476.521 197.958 473.419 201.175 Q470.317 204.37 464.669 210.133 Z" fill="#000000" fill-rule="nonzero" fill-opacity="1" /><path clip-path="url(#clip630)" d="M500.155 178.05 L500.155 220.319 L490.34 220.319 L490.34 217.008 L495.873 217.008 L495.873 181.36 L490.34 181.36 L490.34 178.05 L500.155 178.05 Z" fill="#000000" fill-rule="nonzero" fill-opacity="1" /><polyline clip-path="url(#clip630)" style="stroke:#3da44d; stroke-linecap:round; stroke-linejoin:round; stroke-width:4; stroke-opacity:1; fill:none" points="239.009,248.629 386.48,248.629 "/>
<path clip-path="url(#clip630)" d="M411.058 255.677 L411.058 239.983 L415.318 239.983 L415.318 255.515 Q415.318 259.196 416.753 261.048 Q418.188 262.876 421.058 262.876 Q424.507 262.876 426.498 260.677 Q428.512 258.478 428.512 254.682 L428.512 239.983 L432.771 239.983 L432.771 265.909 L428.512 265.909 L428.512 261.927 Q426.961 264.288 424.901 265.446 Q422.864 266.58 420.156 266.58 Q415.688 266.58 413.373 263.802 Q411.058 261.024 411.058 255.677 M421.776 239.358 L421.776 239.358 Z" fill="#000000" fill-rule="nonzero" fill-opacity="1" /><path clip-path="url(#clip630)" d="M441.151 229.89 L450.966 229.89 L450.966 233.2 L445.41 233.2 L445.41 268.848 L450.966 268.848 L450.966 272.159 L441.151 272.159 L441.151 229.89 Z" fill="#000000" fill-rule="nonzero" fill-opacity="1" /><path clip-path="url(#clip630)" d="M474.808 247.274 Q478.165 247.992 480.04 250.261 Q481.938 252.529 481.938 255.862 Q481.938 260.978 478.419 263.779 Q474.901 266.58 468.419 266.58 Q466.243 266.58 463.929 266.14 Q461.637 265.723 459.183 264.867 L459.183 260.353 Q461.128 261.487 463.442 262.066 Q465.757 262.645 468.28 262.645 Q472.679 262.645 474.97 260.909 Q477.285 259.173 477.285 255.862 Q477.285 252.807 475.132 251.094 Q473.003 249.358 469.183 249.358 L465.155 249.358 L465.155 245.515 L469.368 245.515 Q472.817 245.515 474.646 244.149 Q476.475 242.761 476.475 240.168 Q476.475 237.506 474.577 236.094 Q472.702 234.659 469.183 234.659 Q467.262 234.659 465.063 235.075 Q462.864 235.492 460.225 236.372 L460.225 232.205 Q462.887 231.464 465.202 231.094 Q467.54 230.724 469.6 230.724 Q474.924 230.724 478.026 233.154 Q481.128 235.562 481.128 239.682 Q481.128 242.552 479.484 244.543 Q477.841 246.511 474.808 247.274 Z" fill="#000000" fill-rule="nonzero" fill-opacity="1" /><path clip-path="url(#clip630)" d="M500.155 229.89 L500.155 272.159 L490.34 272.159 L490.34 268.848 L495.873 268.848 L495.873 233.2 L490.34 233.2 L490.34 229.89 L500.155 229.89 Z" fill="#000000" fill-rule="nonzero" fill-opacity="1" /><polyline clip-path="url(#clip630)" style="stroke:#c271d2; stroke-linecap:round; stroke-linejoin:round; stroke-width:4; stroke-opacity:1; fill:none" points="239.009,300.469 386.48,300.469 "/>
<path clip-path="url(#clip630)" d="M411.058 307.517 L411.058 291.823 L415.318 291.823 L415.318 307.355 Q415.318 311.036 416.753 312.888 Q418.188 314.716 421.058 314.716 Q424.507 314.716 426.498 312.517 Q428.512 310.318 428.512 306.522 L428.512 291.823 L432.771 291.823 L432.771 317.749 L428.512 317.749 L428.512 313.767 Q426.961 316.128 424.901 317.286 Q422.864 318.42 420.156 318.42 Q415.688 318.42 413.373 315.642 Q411.058 312.864 411.058 307.517 M421.776 291.198 L421.776 291.198 Z" fill="#000000" fill-rule="nonzero" fill-opacity="1" /><path clip-path="url(#clip630)" d="M441.151 281.73 L450.966 281.73 L450.966 285.04 L445.41 285.04 L445.41 320.688 L450.966 320.688 L450.966 323.999 L441.151 323.999 L441.151 281.73 Z" fill="#000000" fill-rule="nonzero" fill-opacity="1" /><path clip-path="url(#clip630)" d="M473.489 287.263 L461.683 305.712 L473.489 305.712 L473.489 287.263 M472.262 283.189 L478.141 283.189 L478.141 305.712 L483.072 305.712 L483.072 309.601 L478.141 309.601 L478.141 317.749 L473.489 317.749 L473.489 309.601 L457.887 309.601 L457.887 305.087 L472.262 283.189 Z" fill="#000000" fill-rule="nonzero" fill-opacity="1" /><path clip-path="url(#clip630)" d="M500.155 281.73 L500.155 323.999 L490.34 323.999 L490.34 320.688 L495.873 320.688 L495.873 285.04 L490.34 285.04 L490.34 281.73 L500.155 281.73 Z" fill="#000000" fill-rule="nonzero" fill-opacity="1" /><polyline clip-path="url(#clip630)" style="stroke:#ac8d18; stroke-linecap:round; stroke-linejoin:round; stroke-width:4; stroke-opacity:1; fill:none" points="239.009,352.309 386.48,352.309 "/>
<path clip-path="url(#clip630)" d="M411.058 359.357 L411.058 343.663 L415.318 343.663 L415.318 359.195 Q415.318 362.876 416.753 364.728 Q418.188 366.556 421.058 366.556 Q424.507 366.556 426.498 364.357 Q428.512 362.158 428.512 358.362 L428.512 343.663 L432.771 343.663 L432.771 369.589 L428.512 369.589 L428.512 365.607 Q426.961 367.968 424.901 369.126 Q422.864 370.26 420.156 370.26 Q415.688 370.26 413.373 367.482 Q411.058 364.704 411.058 359.357 M421.776 343.038 L421.776 343.038 Z" fill="#000000" fill-rule="nonzero" fill-opacity="1" /><path clip-path="url(#clip630)" d="M441.151 333.57 L450.966 333.57 L450.966 336.88 L445.41 336.88 L445.41 372.528 L450.966 372.528 L450.966 375.839 L441.151 375.839 L441.151 333.57 Z" fill="#000000" fill-rule="nonzero" fill-opacity="1" /><path clip-path="url(#clip630)" d="M460.688 335.029 L479.044 335.029 L479.044 338.964 L464.97 338.964 L464.97 347.436 Q465.989 347.089 467.007 346.927 Q468.026 346.742 469.044 346.742 Q474.831 346.742 478.211 349.913 Q481.591 353.084 481.591 358.501 Q481.591 364.079 478.118 367.181 Q474.646 370.26 468.327 370.26 Q466.151 370.26 463.882 369.89 Q461.637 369.519 459.23 368.778 L459.23 364.079 Q461.313 365.214 463.535 365.769 Q465.757 366.325 468.234 366.325 Q472.239 366.325 474.577 364.218 Q476.915 362.112 476.915 358.501 Q476.915 354.89 474.577 352.783 Q472.239 350.677 468.234 350.677 Q466.359 350.677 464.484 351.093 Q462.632 351.51 460.688 352.39 L460.688 335.029 Z" fill="#000000" fill-rule="nonzero" fill-opacity="1" /><path clip-path="url(#clip630)" d="M500.155 333.57 L500.155 375.839 L490.34 375.839 L490.34 372.528 L495.873 372.528 L495.873 336.88 L490.34 336.88 L490.34 333.57 L500.155 333.57 Z" fill="#000000" fill-rule="nonzero" fill-opacity="1" /><polyline clip-path="url(#clip630)" style="stroke:#00a9ad; stroke-linecap:round; stroke-linejoin:round; stroke-width:4; stroke-opacity:1; fill:none" points="239.009,404.149 386.48,404.149 "/>
<path clip-path="url(#clip630)" d="M411.058 411.197 L411.058 395.503 L415.318 395.503 L415.318 411.035 Q415.318 414.716 416.753 416.568 Q418.188 418.396 421.058 418.396 Q424.507 418.396 426.498 416.197 Q428.512 413.998 428.512 410.202 L428.512 395.503 L432.771 395.503 L432.771 421.429 L428.512 421.429 L428.512 417.447 Q426.961 419.808 424.901 420.966 Q422.864 422.1 420.156 422.1 Q415.688 422.1 413.373 419.322 Q411.058 416.544 411.058 411.197 M421.776 394.878 L421.776 394.878 Z" fill="#000000" fill-rule="nonzero" fill-opacity="1" /><path clip-path="url(#clip630)" d="M441.151 385.41 L450.966 385.41 L450.966 388.72 L445.41 388.72 L445.41 424.368 L450.966 424.368 L450.966 427.679 L441.151 427.679 L441.151 385.41 Z" fill="#000000" fill-rule="nonzero" fill-opacity="1" /><path clip-path="url(#clip630)" d="M471.22 402.285 Q468.072 402.285 466.22 404.438 Q464.392 406.591 464.392 410.341 Q464.392 414.068 466.22 416.243 Q468.072 418.396 471.22 418.396 Q474.368 418.396 476.197 416.243 Q478.049 414.068 478.049 410.341 Q478.049 406.591 476.197 404.438 Q474.368 402.285 471.22 402.285 M480.503 387.633 L480.503 391.892 Q478.743 391.058 476.938 390.619 Q475.155 390.179 473.396 390.179 Q468.766 390.179 466.313 393.304 Q463.882 396.429 463.535 402.748 Q464.901 400.734 466.961 399.669 Q469.021 398.582 471.498 398.582 Q476.706 398.582 479.716 401.753 Q482.748 404.901 482.748 410.341 Q482.748 415.665 479.6 418.882 Q476.452 422.1 471.22 422.1 Q465.225 422.1 462.054 417.517 Q458.882 412.91 458.882 404.183 Q458.882 395.989 462.771 391.128 Q466.66 386.244 473.211 386.244 Q474.97 386.244 476.753 386.591 Q478.558 386.938 480.503 387.633 Z" fill="#000000" fill-rule="nonzero" fill-opacity="1" /><path clip-path="url(#clip630)" d="M500.155 385.41 L500.155 427.679 L490.34 427.679 L490.34 424.368 L495.873 424.368 L495.873 388.72 L490.34 388.72 L490.34 385.41 L500.155 385.41 Z" fill="#000000" fill-rule="nonzero" fill-opacity="1" /><polyline clip-path="url(#clip630)" style="stroke:#ed5d92; stroke-linecap:round; stroke-linejoin:round; stroke-width:4; stroke-opacity:1; fill:none" points="239.009,455.989 386.48,455.989 "/>
<path clip-path="url(#clip630)" d="M411.058 463.037 L411.058 447.343 L415.318 447.343 L415.318 462.875 Q415.318 466.556 416.753 468.408 Q418.188 470.236 421.058 470.236 Q424.507 470.236 426.498 468.037 Q428.512 465.838 428.512 462.042 L428.512 447.343 L432.771 447.343 L432.771 473.269 L428.512 473.269 L428.512 469.287 Q426.961 471.648 424.901 472.806 Q422.864 473.94 420.156 473.94 Q415.688 473.94 413.373 471.162 Q411.058 468.384 411.058 463.037 M421.776 446.718 L421.776 446.718 Z" fill="#000000" fill-rule="nonzero" fill-opacity="1" /><path clip-path="url(#clip630)" d="M441.151 437.25 L450.966 437.25 L450.966 440.56 L445.41 440.56 L445.41 476.208 L450.966 476.208 L450.966 479.519 L441.151 479.519 L441.151 437.25 Z" fill="#000000" fill-rule="nonzero" fill-opacity="1" /><path clip-path="url(#clip630)" d="M459.461 438.709 L481.683 438.709 L481.683 440.699 L469.137 473.269 L464.253 473.269 L476.058 442.644 L459.461 442.644 L459.461 438.709 Z" fill="#000000" fill-rule="nonzero" fill-opacity="1" /><path clip-path="url(#clip630)" d="M500.155 437.25 L500.155 479.519 L490.34 479.519 L490.34 476.208 L495.873 476.208 L495.873 440.56 L490.34 440.56 L490.34 437.25 L500.155 437.25 Z" fill="#000000" fill-rule="nonzero" fill-opacity="1" /><polyline clip-path="url(#clip630)" style="stroke:#c68125; stroke-linecap:round; stroke-linejoin:round; stroke-width:4; stroke-opacity:1; fill:none" points="239.009,507.829 386.48,507.829 "/>
<path clip-path="url(#clip630)" d="M411.058 514.877 L411.058 499.183 L415.318 499.183 L415.318 514.715 Q415.318 518.396 416.753 520.248 Q418.188 522.076 421.058 522.076 Q424.507 522.076 426.498 519.877 Q428.512 517.678 428.512 513.882 L428.512 499.183 L432.771 499.183 L432.771 525.109 L428.512 525.109 L428.512 521.127 Q426.961 523.488 424.901 524.646 Q422.864 525.78 420.156 525.78 Q415.688 525.78 413.373 523.002 Q411.058 520.224 411.058 514.877 M421.776 498.558 L421.776 498.558 Z" fill="#000000" fill-rule="nonzero" fill-opacity="1" /><path clip-path="url(#clip630)" d="M441.151 489.09 L450.966 489.09 L450.966 492.4 L445.41 492.4 L445.41 528.048 L450.966 528.048 L450.966 531.359 L441.151 531.359 L441.151 489.09 Z" fill="#000000" fill-rule="nonzero" fill-opacity="1" /><path clip-path="url(#clip630)" d="M470.641 508.697 Q467.308 508.697 465.387 510.479 Q463.489 512.261 463.489 515.386 Q463.489 518.511 465.387 520.294 Q467.308 522.076 470.641 522.076 Q473.975 522.076 475.896 520.294 Q477.817 518.488 477.817 515.386 Q477.817 512.261 475.896 510.479 Q473.998 508.697 470.641 508.697 M465.966 506.706 Q462.956 505.965 461.267 503.905 Q459.6 501.845 459.6 498.882 Q459.6 494.738 462.54 492.331 Q465.503 489.924 470.641 489.924 Q475.803 489.924 478.743 492.331 Q481.683 494.738 481.683 498.882 Q481.683 501.845 479.993 503.905 Q478.327 505.965 475.341 506.706 Q478.72 507.493 480.595 509.785 Q482.493 512.076 482.493 515.386 Q482.493 520.41 479.415 523.095 Q476.359 525.78 470.641 525.78 Q464.924 525.78 461.845 523.095 Q458.79 520.41 458.79 515.386 Q458.79 512.076 460.688 509.785 Q462.586 507.493 465.966 506.706 M464.253 499.322 Q464.253 502.007 465.919 503.512 Q467.609 505.016 470.641 505.016 Q473.651 505.016 475.341 503.512 Q477.053 502.007 477.053 499.322 Q477.053 496.637 475.341 495.132 Q473.651 493.627 470.641 493.627 Q467.609 493.627 465.919 495.132 Q464.253 496.637 464.253 499.322 Z" fill="#000000" fill-rule="nonzero" fill-opacity="1" /><path clip-path="url(#clip630)" d="M500.155 489.09 L500.155 531.359 L490.34 531.359 L490.34 528.048 L495.873 528.048 L495.873 492.4 L490.34 492.4 L490.34 489.09 L500.155 489.09 Z" fill="#000000" fill-rule="nonzero" fill-opacity="1" /><polyline clip-path="url(#clip630)" style="stroke:#00a98d; stroke-linecap:round; stroke-linejoin:round; stroke-width:4; stroke-opacity:1; fill:none" points="239.009,559.669 386.48,559.669 "/>
<path clip-path="url(#clip630)" d="M411.058 566.717 L411.058 551.023 L415.318 551.023 L415.318 566.555 Q415.318 570.236 416.753 572.088 Q418.188 573.916 421.058 573.916 Q424.507 573.916 426.498 571.717 Q428.512 569.518 428.512 565.722 L428.512 551.023 L432.771 551.023 L432.771 576.949 L428.512 576.949 L428.512 572.967 Q426.961 575.328 424.901 576.486 Q422.864 577.62 420.156 577.62 Q415.688 577.62 413.373 574.842 Q411.058 572.064 411.058 566.717 M421.776 550.398 L421.776 550.398 Z" fill="#000000" fill-rule="nonzero" fill-opacity="1" /><path clip-path="url(#clip630)" d="M441.151 540.93 L450.966 540.93 L450.966 544.24 L445.41 544.24 L445.41 579.888 L450.966 579.888 L450.966 583.199 L441.151 583.199 L441.151 540.93 Z" fill="#000000" fill-rule="nonzero" fill-opacity="1" /><path clip-path="url(#clip630)" d="M460.78 576.231 L460.78 571.972 Q462.54 572.805 464.345 573.245 Q466.151 573.685 467.887 573.685 Q472.516 573.685 474.947 570.583 Q477.401 567.458 477.748 561.115 Q476.405 563.106 474.345 564.171 Q472.285 565.236 469.785 565.236 Q464.6 565.236 461.567 562.111 Q458.558 558.963 458.558 553.523 Q458.558 548.199 461.706 544.981 Q464.854 541.764 470.086 541.764 Q476.081 541.764 479.229 546.37 Q482.401 550.953 482.401 559.703 Q482.401 567.875 478.512 572.759 Q474.646 577.62 468.095 577.62 Q466.336 577.62 464.53 577.273 Q462.725 576.925 460.78 576.231 M470.086 561.578 Q473.234 561.578 475.063 559.426 Q476.915 557.273 476.915 553.523 Q476.915 549.796 475.063 547.643 Q473.234 545.467 470.086 545.467 Q466.938 545.467 465.086 547.643 Q463.257 549.796 463.257 553.523 Q463.257 557.273 465.086 559.426 Q466.938 561.578 470.086 561.578 Z" fill="#000000" fill-rule="nonzero" fill-opacity="1" /><path clip-path="url(#clip630)" d="M500.155 540.93 L500.155 583.199 L490.34 583.199 L490.34 579.888 L495.873 579.888 L495.873 544.24 L490.34 544.24 L490.34 540.93 L500.155 540.93 Z" fill="#000000" fill-rule="nonzero" fill-opacity="1" /><polyline clip-path="url(#clip630)" style="stroke:#8e971d; stroke-linecap:round; stroke-linejoin:round; stroke-width:4; stroke-opacity:1; fill:none" points="239.009,611.509 386.48,611.509 "/>
<path clip-path="url(#clip630)" d="M411.058 618.557 L411.058 602.863 L415.318 602.863 L415.318 618.395 Q415.318 622.076 416.753 623.928 Q418.188 625.756 421.058 625.756 Q424.507 625.756 426.498 623.557 Q428.512 621.358 428.512 617.562 L428.512 602.863 L432.771 602.863 L432.771 628.789 L428.512 628.789 L428.512 624.807 Q426.961 627.168 424.901 628.326 Q422.864 629.46 420.156 629.46 Q415.688 629.46 413.373 626.682 Q411.058 623.904 411.058 618.557 M421.776 602.238 L421.776 602.238 Z" fill="#000000" fill-rule="nonzero" fill-opacity="1" /><path clip-path="url(#clip630)" d="M441.151 592.77 L450.966 592.77 L450.966 596.08 L445.41 596.08 L445.41 631.728 L450.966 631.728 L450.966 635.039 L441.151 635.039 L441.151 592.77 Z" fill="#000000" fill-rule="nonzero" fill-opacity="1" /><path clip-path="url(#clip630)" d="M461.452 624.853 L469.091 624.853 L469.091 598.488 L460.78 600.155 L460.78 595.895 L469.044 594.229 L473.72 594.229 L473.72 624.853 L481.359 624.853 L481.359 628.789 L461.452 628.789 L461.452 624.853 Z" fill="#000000" fill-rule="nonzero" fill-opacity="1" /><path clip-path="url(#clip630)" d="M500.803 597.307 Q497.192 597.307 495.364 600.872 Q493.558 604.414 493.558 611.543 Q493.558 618.65 495.364 622.215 Q497.192 625.756 500.803 625.756 Q504.438 625.756 506.243 622.215 Q508.072 618.65 508.072 611.543 Q508.072 604.414 506.243 600.872 Q504.438 597.307 500.803 597.307 M500.803 593.604 Q506.614 593.604 509.669 598.21 Q512.748 602.793 512.748 611.543 Q512.748 620.27 509.669 624.877 Q506.614 629.46 500.803 629.46 Q494.993 629.46 491.915 624.877 Q488.859 620.27 488.859 611.543 Q488.859 602.793 491.915 598.21 Q494.993 593.604 500.803 593.604 Z" fill="#000000" fill-rule="nonzero" fill-opacity="1" /><path clip-path="url(#clip630)" d="M530.317 592.77 L530.317 635.039 L520.502 635.039 L520.502 631.728 L526.035 631.728 L526.035 596.08 L520.502 596.08 L520.502 592.77 L530.317 592.77 Z" fill="#000000" fill-rule="nonzero" fill-opacity="1" /></svg>
