<?xml version="1.0" encoding="utf-8"?>
<svg xmlns="http://www.w3.org/2000/svg" xmlns:xlink="http://www.w3.org/1999/xlink" width="600" height="400" viewBox="0 0 2400 1600">
<defs>
  <clipPath id="clip640">
    <rect x="0" y="0" width="2400" height="1600"/>
  </clipPath>
</defs>
<path clip-path="url(#clip640)" d="M0 1600 L2400 1600 L2400 0 L0 0  Z" fill="#ffffff" fill-rule="evenodd" fill-opacity="1"/>
<defs>
  <clipPath id="clip641">
    <rect x="140" y="47" width="2213" height="1377"/>
  </clipPath>
</defs>
<path clip-path="url(#clip640)" d="M140.696 1423.18 L2352.76 1423.18 L2352.76 47.2441 L140.696 47.2441  Z" fill="#ffffff" fill-rule="evenodd" fill-opacity="1"/>
<polyline clip-path="url(#clip641)" style="stroke:#000000; stroke-linecap:round; stroke-linejoin:round; stroke-width:2; stroke-opacity:0.1; fill:none" points="140.696,1423.18 140.696,47.2441 "/>
<polyline clip-path="url(#clip641)" style="stroke:#000000; stroke-linecap:round; stroke-linejoin:round; stroke-width:2; stroke-opacity:0.1; fill:none" points="583.108,1423.18 583.108,47.2441 "/>
<polyline clip-path="url(#clip641)" style="stroke:#000000; stroke-linecap:round; stroke-linejoin:round; stroke-width:2; stroke-opacity:0.1; fill:none" points="1025.52,1423.18 1025.52,47.2441 "/>
<polyline clip-path="url(#clip641)" style="stroke:#000000; stroke-linecap:round; stroke-linejoin:round; stroke-width:2; stroke-opacity:0.1; fill:none" points="1467.93,1423.18 1467.93,47.2441 "/>
<polyline clip-path="url(#clip641)" style="stroke:#000000; stroke-linecap:round; stroke-linejoin:round; stroke-width:2; stroke-opacity:0.1; fill:none" points="1910.34,1423.18 1910.34,47.2441 "/>
<polyline clip-path="url(#clip641)" style="stroke:#000000; stroke-linecap:round; stroke-linejoin:round; stroke-width:2; stroke-opacity:0.1; fill:none" points="2352.76,1423.18 2352.76,47.2441 "/>
<polyline clip-path="url(#clip641)" style="stroke:#000000; stroke-linecap:round; stroke-linejoin:round; stroke-width:2; stroke-opacity:0.1; fill:none" points="140.696,1384.24 2352.76,1384.24 "/>
<polyline clip-path="url(#clip641)" style="stroke:#000000; stroke-linecap:round; stroke-linejoin:round; stroke-width:2; stroke-opacity:0.1; fill:none" points="140.696,1113.81 2352.76,1113.81 "/>
<polyline clip-path="url(#clip641)" style="stroke:#000000; stroke-linecap:round; stroke-linejoin:round; stroke-width:2; stroke-opacity:0.1; fill:none" points="140.696,843.383 2352.76,843.383 "/>
<polyline clip-path="url(#clip641)" style="stroke:#000000; stroke-linecap:round; stroke-linejoin:round; stroke-width:2; stroke-opacity:0.1; fill:none" points="140.696,572.955 2352.76,572.955 "/>
<polyline clip-path="url(#clip641)" style="stroke:#000000; stroke-linecap:round; stroke-linejoin:round; stroke-width:2; stroke-opacity:0.1; fill:none" points="140.696,302.528 2352.76,302.528 "/>
<polyline clip-path="url(#clip640)" style="stroke:#000000; stroke-linecap:round; stroke-linejoin:round; stroke-width:4; stroke-opacity:1; fill:none" points="140.696,1423.18 2352.76,1423.18 "/>
<polyline clip-path="url(#clip640)" style="stroke:#000000; stroke-linecap:round; stroke-linejoin:round; stroke-width:4; stroke-opacity:1; fill:none" points="140.696,1423.18 140.696,1404.28 "/>
<polyline clip-path="url(#clip640)" style="stroke:#000000; stroke-linecap:round; stroke-linejoin:round; stroke-width:4; stroke-opacity:1; fill:none" points="583.108,1423.18 583.108,1404.28 "/>
<polyline clip-path="url(#clip640)" style="stroke:#000000; stroke-linecap:round; stroke-linejoin:round; stroke-width:4; stroke-opacity:1; fill:none" points="1025.52,1423.18 1025.52,1404.28 "/>
<polyline clip-path="url(#clip640)" style="stroke:#000000; stroke-linecap:round; stroke-linejoin:round; stroke-width:4; stroke-opacity:1; fill:none" points="1467.93,1423.18 1467.93,1404.28 "/>
<polyline clip-path="url(#clip640)" style="stroke:#000000; stroke-linecap:round; stroke-linejoin:round; stroke-width:4; stroke-opacity:1; fill:none" points="1910.34,1423.18 1910.34,1404.28 "/>
<polyline clip-path="url(#clip640)" style="stroke:#000000; stroke-linecap:round; stroke-linejoin:round; stroke-width:4; stroke-opacity:1; fill:none" points="2352.76,1423.18 2352.76,1404.28 "/>
<path clip-path="url(#clip640)" d="M140.696 1454.1 Q137.084 1454.1 135.256 1457.66 Q133.45 1461.2 133.45 1468.33 Q133.45 1475.44 135.256 1479.01 Q137.084 1482.55 140.696 1482.55 Q144.33 1482.55 146.135 1479.01 Q147.964 1475.44 147.964 1468.33 Q147.964 1461.2 146.135 1457.66 Q144.33 1454.1 140.696 1454.1 M140.696 1450.39 Q146.506 1450.39 149.561 1455 Q152.64 1459.58 152.64 1468.33 Q152.64 1477.06 149.561 1481.67 Q146.506 1486.25 140.696 1486.25 Q134.885 1486.25 131.807 1481.67 Q128.751 1477.06 128.751 1468.33 Q128.751 1459.58 131.807 1455 Q134.885 1450.39 140.696 1450.39 Z" fill="#000000" fill-rule="nonzero" fill-opacity="1" /><path clip-path="url(#clip640)" d="M577.76 1481.64 L594.08 1481.64 L594.08 1485.58 L572.135 1485.58 L572.135 1481.64 Q574.797 1478.89 579.381 1474.26 Q583.987 1469.61 585.168 1468.27 Q587.413 1465.74 588.293 1464.01 Q589.196 1462.25 589.196 1460.56 Q589.196 1457.8 587.251 1456.07 Q585.33 1454.33 582.228 1454.33 Q580.029 1454.33 577.575 1455.09 Q575.145 1455.86 572.367 1457.41 L572.367 1452.69 Q575.191 1451.55 577.645 1450.97 Q580.098 1450.39 582.135 1450.39 Q587.506 1450.39 590.7 1453.08 Q593.895 1455.77 593.895 1460.26 Q593.895 1462.39 593.084 1464.31 Q592.297 1466.2 590.191 1468.8 Q589.612 1469.47 586.51 1472.69 Q583.409 1475.88 577.76 1481.64 Z" fill="#000000" fill-rule="nonzero" fill-opacity="1" /><path clip-path="url(#clip640)" d="M1028.53 1455.09 L1016.72 1473.54 L1028.53 1473.54 L1028.53 1455.09 M1027.3 1451.02 L1033.18 1451.02 L1033.18 1473.54 L1038.11 1473.54 L1038.11 1477.43 L1033.18 1477.43 L1033.18 1485.58 L1028.53 1485.58 L1028.53 1477.43 L1012.93 1477.43 L1012.93 1472.92 L1027.3 1451.02 Z" fill="#000000" fill-rule="nonzero" fill-opacity="1" /><path clip-path="url(#clip640)" d="M1468.34 1466.44 Q1465.19 1466.44 1463.34 1468.59 Q1461.51 1470.74 1461.51 1474.49 Q1461.51 1478.22 1463.34 1480.39 Q1465.19 1482.55 1468.34 1482.55 Q1471.48 1482.55 1473.31 1480.39 Q1475.17 1478.22 1475.17 1474.49 Q1475.17 1470.74 1473.31 1468.59 Q1471.48 1466.44 1468.34 1466.44 M1477.62 1451.78 L1477.62 1456.04 Q1475.86 1455.21 1474.05 1454.77 Q1472.27 1454.33 1470.51 1454.33 Q1465.88 1454.33 1463.43 1457.45 Q1461 1460.58 1460.65 1466.9 Q1462.02 1464.89 1464.08 1463.82 Q1466.14 1462.73 1468.61 1462.73 Q1473.82 1462.73 1476.83 1465.9 Q1479.86 1469.05 1479.86 1474.49 Q1479.86 1479.82 1476.72 1483.03 Q1473.57 1486.25 1468.34 1486.25 Q1462.34 1486.25 1459.17 1481.67 Q1456 1477.06 1456 1468.33 Q1456 1460.14 1459.89 1455.28 Q1463.78 1450.39 1470.33 1450.39 Q1472.09 1450.39 1473.87 1450.74 Q1475.67 1451.09 1477.62 1451.78 Z" fill="#000000" fill-rule="nonzero" fill-opacity="1" /><path clip-path="url(#clip640)" d="M1910.34 1469.17 Q1907.01 1469.17 1905.09 1470.95 Q1903.19 1472.73 1903.19 1475.86 Q1903.19 1478.98 1905.09 1480.77 Q1907.01 1482.55 1910.34 1482.55 Q1913.68 1482.55 1915.6 1480.77 Q1917.52 1478.96 1917.52 1475.86 Q1917.52 1472.73 1915.6 1470.95 Q1913.7 1469.17 1910.34 1469.17 M1905.67 1467.18 Q1902.66 1466.44 1900.97 1464.38 Q1899.3 1462.32 1899.3 1459.35 Q1899.3 1455.21 1902.24 1452.8 Q1905.2 1450.39 1910.34 1450.39 Q1915.51 1450.39 1918.45 1452.8 Q1921.39 1455.21 1921.39 1459.35 Q1921.39 1462.32 1919.7 1464.38 Q1918.03 1466.44 1915.04 1467.18 Q1918.42 1467.96 1920.3 1470.26 Q1922.2 1472.55 1922.2 1475.86 Q1922.2 1480.88 1919.12 1483.57 Q1916.06 1486.25 1910.34 1486.25 Q1904.63 1486.25 1901.55 1483.57 Q1898.49 1480.88 1898.49 1475.86 Q1898.49 1472.55 1900.39 1470.26 Q1902.29 1467.96 1905.67 1467.18 M1903.95 1459.79 Q1903.95 1462.48 1905.62 1463.98 Q1907.31 1465.49 1910.34 1465.49 Q1913.35 1465.49 1915.04 1463.98 Q1916.76 1462.48 1916.76 1459.79 Q1916.76 1457.11 1915.04 1455.6 Q1913.35 1454.1 1910.34 1454.1 Q1907.31 1454.1 1905.62 1455.6 Q1903.95 1457.11 1903.95 1459.79 Z" fill="#000000" fill-rule="nonzero" fill-opacity="1" /><path clip-path="url(#clip640)" d="M2327.44 1481.64 L2335.08 1481.64 L2335.08 1455.28 L2326.77 1456.95 L2326.77 1452.69 L2335.04 1451.02 L2339.71 1451.02 L2339.71 1481.64 L2347.35 1481.64 L2347.35 1485.58 L2327.44 1485.58 L2327.44 1481.64 Z" fill="#000000" fill-rule="nonzero" fill-opacity="1" /><path clip-path="url(#clip640)" d="M2366.8 1454.1 Q2363.18 1454.1 2361.36 1457.66 Q2359.55 1461.2 2359.55 1468.33 Q2359.55 1475.44 2361.36 1479.01 Q2363.18 1482.55 2366.8 1482.55 Q2370.43 1482.55 2372.23 1479.01 Q2374.06 1475.44 2374.06 1468.33 Q2374.06 1461.2 2372.23 1457.66 Q2370.43 1454.1 2366.8 1454.1 M2366.8 1450.39 Q2372.61 1450.39 2375.66 1455 Q2378.74 1459.58 2378.74 1468.33 Q2378.74 1477.06 2375.66 1481.67 Q2372.61 1486.25 2366.8 1486.25 Q2360.99 1486.25 2357.91 1481.67 Q2354.85 1477.06 2354.85 1468.33 Q2354.85 1459.58 2357.91 1455 Q2360.99 1450.39 2366.8 1450.39 Z" fill="#000000" fill-rule="nonzero" fill-opacity="1" /><path clip-path="url(#clip640)" d="M1245.79 1522.27 L1245.79 1532.4 L1257.85 1532.4 L1257.85 1536.95 L1245.79 1536.95 L1245.79 1556.3 Q1245.79 1560.66 1246.96 1561.9 Q1248.17 1563.14 1251.83 1563.14 L1257.85 1563.14 L1257.85 1568.04 L1251.83 1568.04 Q1245.05 1568.04 1242.48 1565.53 Q1239.9 1562.98 1239.9 1556.3 L1239.9 1536.95 L1235.6 1536.95 L1235.6 1532.4 L1239.9 1532.4 L1239.9 1522.27 L1245.79 1522.27 Z" fill="#000000" fill-rule="nonzero" fill-opacity="1" /><polyline clip-path="url(#clip640)" style="stroke:#000000; stroke-linecap:round; stroke-linejoin:round; stroke-width:4; stroke-opacity:1; fill:none" points="140.696,1423.18 140.696,47.2441 "/>
<polyline clip-path="url(#clip640)" style="stroke:#000000; stroke-linecap:round; stroke-linejoin:round; stroke-width:4; stroke-opacity:1; fill:none" points="140.696,1384.24 159.593,1384.24 "/>
<polyline clip-path="url(#clip640)" style="stroke:#000000; stroke-linecap:round; stroke-linejoin:round; stroke-width:4; stroke-opacity:1; fill:none" points="140.696,1113.81 159.593,1113.81 "/>
<polyline clip-path="url(#clip640)" style="stroke:#000000; stroke-linecap:round; stroke-linejoin:round; stroke-width:4; stroke-opacity:1; fill:none" points="140.696,843.383 159.593,843.383 "/>
<polyline clip-path="url(#clip640)" style="stroke:#000000; stroke-linecap:round; stroke-linejoin:round; stroke-width:4; stroke-opacity:1; fill:none" points="140.696,572.955 159.593,572.955 "/>
<polyline clip-path="url(#clip640)" style="stroke:#000000; stroke-linecap:round; stroke-linejoin:round; stroke-width:4; stroke-opacity:1; fill:none" points="140.696,302.528 159.593,302.528 "/>
<path clip-path="url(#clip640)" d="M92.7512 1370.04 Q89.1401 1370.04 87.3114 1373.6 Q85.5058 1377.14 85.5058 1384.27 Q85.5058 1391.38 87.3114 1394.94 Q89.1401 1398.49 92.7512 1398.49 Q96.3854 1398.49 98.1909 1394.94 Q100.02 1391.38 100.02 1384.27 Q100.02 1377.14 98.1909 1373.6 Q96.3854 1370.04 92.7512 1370.04 M92.7512 1366.33 Q98.5613 1366.33 101.617 1370.94 Q104.696 1375.52 104.696 1384.27 Q104.696 1393 101.617 1397.61 Q98.5613 1402.19 92.7512 1402.19 Q86.941 1402.19 83.8623 1397.61 Q80.8068 1393 80.8068 1384.27 Q80.8068 1375.52 83.8623 1370.94 Q86.941 1366.33 92.7512 1366.33 Z" fill="#000000" fill-rule="nonzero" fill-opacity="1" /><path clip-path="url(#clip640)" d="M83.7929 1096.53 L102.149 1096.53 L102.149 1100.47 L88.0753 1100.47 L88.0753 1108.94 Q89.0938 1108.59 90.1123 1108.43 Q91.1308 1108.24 92.1493 1108.24 Q97.9363 1108.24 101.316 1111.41 Q104.696 1114.59 104.696 1120 Q104.696 1125.58 101.223 1128.68 Q97.7511 1131.76 91.4317 1131.76 Q89.2558 1131.76 86.9873 1131.39 Q84.7419 1131.02 82.3346 1130.28 L82.3346 1125.58 Q84.4179 1126.72 86.6401 1127.27 Q88.8623 1127.83 91.3391 1127.83 Q95.3437 1127.83 97.6817 1125.72 Q100.02 1123.61 100.02 1120 Q100.02 1116.39 97.6817 1114.29 Q95.3437 1112.18 91.3391 1112.18 Q89.4641 1112.18 87.5892 1112.6 Q85.7373 1113.01 83.7929 1113.89 L83.7929 1096.53 Z" fill="#000000" fill-rule="nonzero" fill-opacity="1" /><path clip-path="url(#clip640)" d="M53.3995 856.728 L61.0384 856.728 L61.0384 830.362 L52.7282 832.029 L52.7282 827.77 L60.9921 826.103 L65.668 826.103 L65.668 856.728 L73.3068 856.728 L73.3068 860.663 L53.3995 860.663 L53.3995 856.728 Z" fill="#000000" fill-rule="nonzero" fill-opacity="1" /><path clip-path="url(#clip640)" d="M92.7512 829.182 Q89.1401 829.182 87.3114 832.747 Q85.5058 836.288 85.5058 843.418 Q85.5058 850.524 87.3114 854.089 Q89.1401 857.631 92.7512 857.631 Q96.3854 857.631 98.1909 854.089 Q100.02 850.524 100.02 843.418 Q100.02 836.288 98.1909 832.747 Q96.3854 829.182 92.7512 829.182 M92.7512 825.478 Q98.5613 825.478 101.617 830.084 Q104.696 834.668 104.696 843.418 Q104.696 852.145 101.617 856.751 Q98.5613 861.334 92.7512 861.334 Q86.941 861.334 83.8623 856.751 Q80.8068 852.145 80.8068 843.418 Q80.8068 834.668 83.8623 830.084 Q86.941 825.478 92.7512 825.478 Z" fill="#000000" fill-rule="nonzero" fill-opacity="1" /><path clip-path="url(#clip640)" d="M54.3949 586.3 L62.0337 586.3 L62.0337 559.935 L53.7236 561.601 L53.7236 557.342 L61.9874 555.675 L66.6633 555.675 L66.6633 586.3 L74.3022 586.3 L74.3022 590.235 L54.3949 590.235 L54.3949 586.3 Z" fill="#000000" fill-rule="nonzero" fill-opacity="1" /><path clip-path="url(#clip640)" d="M83.7929 555.675 L102.149 555.675 L102.149 559.611 L88.0753 559.611 L88.0753 568.083 Q89.0938 567.736 90.1123 567.573 Q91.1308 567.388 92.1493 567.388 Q97.9363 567.388 101.316 570.56 Q104.696 573.731 104.696 579.147 Q104.696 584.726 101.223 587.828 Q97.7511 590.907 91.4317 590.907 Q89.2558 590.907 86.9873 590.536 Q84.7419 590.166 82.3346 589.425 L82.3346 584.726 Q84.4179 585.86 86.6401 586.416 Q88.8623 586.972 91.3391 586.972 Q95.3437 586.972 97.6817 584.865 Q100.02 582.759 100.02 579.147 Q100.02 575.536 97.6817 573.43 Q95.3437 571.323 91.3391 571.323 Q89.4641 571.323 87.5892 571.74 Q85.7373 572.157 83.7929 573.036 L83.7929 555.675 Z" fill="#000000" fill-rule="nonzero" fill-opacity="1" /><path clip-path="url(#clip640)" d="M56.6171 315.873 L72.9365 315.873 L72.9365 319.808 L50.9921 319.808 L50.9921 315.873 Q53.6541 313.118 58.2375 308.488 Q62.8439 303.836 64.0245 302.493 Q66.2698 299.97 67.1494 298.234 Q68.0522 296.475 68.0522 294.785 Q68.0522 292.03 66.1078 290.294 Q64.1865 288.558 61.0847 288.558 Q58.8856 288.558 56.4319 289.322 Q54.0014 290.086 51.2236 291.637 L51.2236 286.914 Q54.0477 285.78 56.5014 285.201 Q58.955 284.623 60.9921 284.623 Q66.3624 284.623 69.5568 287.308 Q72.7513 289.993 72.7513 294.484 Q72.7513 296.613 71.9411 298.535 Q71.1541 300.433 69.0476 303.025 Q68.4689 303.697 65.367 306.914 Q62.2652 310.109 56.6171 315.873 Z" fill="#000000" fill-rule="nonzero" fill-opacity="1" /><path clip-path="url(#clip640)" d="M92.7512 288.326 Q89.1401 288.326 87.3114 291.891 Q85.5058 295.433 85.5058 302.562 Q85.5058 309.669 87.3114 313.234 Q89.1401 316.775 92.7512 316.775 Q96.3854 316.775 98.1909 313.234 Q100.02 309.669 100.02 302.562 Q100.02 295.433 98.1909 291.891 Q96.3854 288.326 92.7512 288.326 M92.7512 284.623 Q98.5613 284.623 101.617 289.229 Q104.696 293.813 104.696 302.562 Q104.696 311.289 101.617 315.896 Q98.5613 320.479 92.7512 320.479 Q86.941 320.479 83.8623 315.896 Q80.8068 311.289 80.8068 302.562 Q80.8068 293.813 83.8623 289.229 Q86.941 284.623 92.7512 284.623 Z" fill="#000000" fill-rule="nonzero" fill-opacity="1" /><polyline clip-path="url(#clip641)" style="stroke:#009af9; stroke-linecap:round; stroke-linejoin:round; stroke-width:8; stroke-opacity:1; fill:none" points="140.696,1384.24 141.547,1384.24 142.398,1384.24 143.249,1384.24 144.1,1384.24 144.951,1384.24 145.802,1384.24 146.653,1384.24 147.505,1384.24 148.356,1384.24 149.207,1384.24 150.058,1384.24 150.909,1384.24 151.76,1384.24 152.611,1384.24 153.462,1384.24 154.313,1384.24 155.165,1384.24 156.016,1384.24 156.867,1384.24 157.718,1384.24 158.569,1384.24 159.42,1384.24 160.271,1384.24 161.122,1384.24 161.974,1384.24 162.825,1384.24 163.676,1384.24 164.527,1384.24 165.378,1384.24 166.229,1384.24 167.08,1384.24 167.931,1384.24 168.782,1384.24 169.634,1384.24 170.485,1384.24 171.336,1384.24 172.187,1384.24 173.038,1384.24 173.889,1384.24 174.74,1384.24 175.591,1384.24 176.443,1384.24 177.294,1384.24 178.145,1384.24 178.996,1384.24 179.847,1384.24 180.698,1384.24 181.549,1384.24 182.4,1384.24 183.252,1384.24 184.103,1384.24 184.954,1384.24 185.805,1384.24 186.656,1384.24 187.507,1384.24 188.358,1384.24 189.209,1384.24 190.06,1384.24 190.912,1384.24 191.763,1384.24 192.614,1384.24 193.465,1384.24 194.316,1384.24 195.167,1384.24 196.018,1384.24 196.869,1384.24 197.721,1330.15 198.572,1330.15 199.423,1330.15 200.274,1330.15 201.125,1330.15 201.976,1330.15 202.827,1330.15 203.678,1330.15 204.53,1276.07 205.381,1276.07 206.232,1276.07 207.083,1276.07 207.934,1276.07 208.785,1276.07 209.636,1276.07 210.487,1276.07 211.338,1276.07 212.19,1276.07 213.041,1276.07 213.892,1276.07 214.743,1276.07 215.594,1276.07 216.445,1276.07 217.296,1276.07 218.147,1276.07 218.999,1276.07 219.85,1276.07 220.701,1276.07 221.552,1276.07 222.403,1276.07 223.254,1276.07 224.105,1276.07 224.956,1276.07 225.808,1276.07 226.659,1276.07 227.51,1276.07 228.361,1276.07 229.212,1276.07 230.063,1276.07 230.914,1276.07 231.765,1276.07 232.616,1276.07 233.468,1276.07 234.319,1276.07 235.17,1276.07 236.021,1276.07 236.872,1276.07 237.723,1276.07 238.574,1276.07 239.425,1276.07 240.277,1276.07 241.128,1276.07 241.979,1276.07 242.83,1276.07 243.681,1276.07 244.532,1276.07 245.383,1276.07 246.234,1276.07 247.086,1276.07 247.937,1276.07 248.788,1276.07 249.639,1276.07 250.49,1276.07 251.341,1276.07 252.192,1276.07 253.043,1276.07 253.894,1276.07 254.746,1276.07 255.597,1276.07 256.448,1276.07 257.299,1276.07 258.15,1276.07 259.001,1276.07 259.852,1276.07 260.703,1276.07 261.555,1276.07 262.406,1276.07 263.257,1276.07 264.108,1276.07 264.959,1276.07 265.81,1276.07 266.661,1276.07 267.512,1276.07 268.364,1276.07 269.215,1276.07 270.066,1276.07 270.917,1276.07 271.768,1276.07 272.619,1276.07 273.47,1276.07 274.321,1276.07 275.172,1276.07 276.024,1276.07 276.875,1276.07 277.726,1276.07 278.577,1276.07 279.428,1276.07 280.279,1276.07 281.13,1276.07 281.981,1276.07 282.833,1276.07 283.684,1276.07 284.535,1276.07 285.386,1276.07 286.237,1276.07 287.088,1276.07 287.939,1276.07 288.79,1276.07 289.642,1276.07 290.493,1276.07 291.344,1276.07 292.195,1276.07 293.046,1276.07 293.897,1276.07 294.748,1276.07 295.599,1276.07 296.45,1276.07 297.302,1276.07 298.153,1276.07 299.004,1276.07 299.855,1276.07 300.706,1276.07 301.557,1276.07 302.408,1276.07 303.259,1276.07 304.111,1276.07 304.962,1276.07 305.813,1276.07 306.664,1276.07 307.515,1276.07 308.366,1276.07 309.217,1276.07 310.068,1276.07 310.92,1276.07 311.771,1276.07 312.622,1276.07 313.473,1276.07 314.324,1276.07 315.175,1276.07 316.026,1276.07 316.877,1276.07 317.728,1276.07 318.58,1276.07 319.431,1276.07 320.282,1276.07 321.133,1276.07 321.984,1276.07 322.835,1276.07 323.686,1276.07 324.537,1276.07 325.389,1276.07 326.24,1276.07 327.091,1276.07 327.942,1276.07 328.793,1276.07 329.644,1276.07 330.495,1276.07 331.346,1276.07 332.197,1276.07 333.049,1276.07 333.9,1276.07 334.751,1276.07 335.602,1276.07 336.453,1276.07 337.304,1276.07 338.155,1276.07 339.006,1276.07 339.858,1276.07 340.709,1276.07 341.56,1276.07 342.411,1276.07 343.262,1276.07 344.113,1276.07 344.964,1276.07 345.815,1276.07 346.667,1276.07 347.518,1276.07 348.369,1276.07 349.22,1276.07 350.071,1276.07 350.922,1276.07 351.773,1276.07 352.624,1276.07 353.475,1276.07 354.327,1276.07 355.178,1276.07 356.029,1276.07 356.88,1276.07 357.731,1276.07 358.582,1276.07 359.433,1276.07 360.284,1276.07 361.136,1276.07 361.987,1276.07 362.838,1276.07 363.689,1276.07 364.54,1276.07 365.391,1276.07 366.242,1276.07 367.093,1276.07 367.945,1276.07 368.796,1276.07 369.647,1276.07 370.498,1276.07 371.349,1276.07 372.2,1276.07 373.051,1276.07 373.902,1221.98 374.753,1221.98 375.605,1221.98 376.456,1221.98 377.307,1221.98 378.158,1221.98 379.009,1221.98 379.86,1221.98 380.711,1221.98 381.562,1221.98 382.414,1221.98 383.265,1221.98 384.116,1221.98 384.967,1221.98 385.818,1221.98 386.669,1221.98 387.52,1221.98 388.371,1221.98 389.223,1221.98 390.074,1221.98 390.925,1221.98 391.776,1221.98 392.627,1221.98 393.478,1221.98 394.329,1221.98 395.18,1221.98 396.031,1221.98 396.883,1221.98 397.734,1221.98 398.585,1221.98 399.436,1221.98 400.287,1221.98 401.138,1221.98 401.989,1221.98 402.84,1221.98 403.692,1221.98 404.543,1221.98 405.394,1221.98 406.245,1221.98 407.096,1221.98 407.947,1221.98 408.798,1221.98 409.649,1221.98 410.501,1221.98 411.352,1221.98 412.203,1221.98 413.054,1221.98 413.905,1221.98 414.756,1221.98 415.607,1221.98 416.458,1221.98 417.309,1221.98 418.161,1221.98 419.012,1221.98 419.863,1221.98 420.714,1221.98 421.565,1221.98 422.416,1221.98 423.267,1221.98 424.118,1221.98 424.97,1221.98 425.821,1221.98 426.672,1221.98 427.523,1221.98 428.374,1221.98 429.225,1221.98 430.076,1221.98 430.927,1221.98 431.779,1221.98 432.63,1221.98 433.481,1221.98 434.332,1221.98 435.183,1221.98 436.034,1221.98 436.885,1221.98 437.736,1221.98 438.587,1221.98 439.439,1221.98 440.29,1221.98 441.141,1221.98 441.992,1221.98 442.843,1221.98 443.694,1221.98 444.545,1221.98 445.396,1221.98 446.248,1221.98 447.099,1221.98 447.95,1221.98 448.801,1221.98 449.652,1221.98 450.503,1221.98 451.354,1221.98 452.205,1221.98 453.057,1221.98 453.908,1221.98 454.759,1221.98 455.61,1221.98 456.461,1221.98 457.312,1221.98 458.163,1221.98 459.014,1221.98 459.865,1221.98 460.717,1221.98 461.568,1221.98 462.419,1221.98 463.27,1221.98 464.121,1221.98 464.972,1221.98 465.823,1221.98 466.674,1221.98 467.526,1221.98 468.377,1221.98 469.228,1221.98 470.079,1221.98 470.93,1221.98 471.781,1221.98 472.632,1221.98 473.483,1221.98 474.335,1221.98 475.186,1221.98 476.037,1221.98 476.888,1221.98 477.739,1221.98 478.59,1221.98 479.441,1221.98 480.292,1221.98 481.143,1221.98 481.995,1221.98 482.846,1221.98 483.697,1221.98 484.548,1221.98 485.399,1221.98 486.25,1221.98 487.101,1221.98 487.952,1221.98 488.804,1221.98 489.655,1221.98 490.506,1221.98 491.357,1221.98 492.208,1221.98 493.059,1221.98 493.91,1221.98 494.761,1221.98 495.612,1221.98 496.464,1167.9 497.315,1167.9 498.166,1167.9 499.017,1167.9 499.868,1167.9 500.719,1167.9 501.57,1167.9 502.421,1167.9 503.273,1167.9 504.124,1167.9 504.975,1167.9 505.826,1167.9 506.677,1167.9 507.528,1167.9 508.379,1167.9 509.23,1167.9 510.082,1167.9 510.933,1167.9 511.784,1167.9 512.635,1167.9 513.486,1167.9 514.337,1167.9 515.188,1167.9 516.039,1167.9 516.89,1167.9 517.742,1167.9 518.593,1167.9 519.444,1167.9 520.295,1167.9 521.146,1167.9 521.997,1167.9 522.848,1167.9 523.699,1167.9 524.551,1167.9 525.402,1167.9 526.253,1167.9 527.104,1167.9 527.955,1167.9 528.806,1167.9 529.657,1167.9 530.508,1167.9 531.36,1167.9 532.211,1167.9 533.062,1167.9 533.913,1167.9 534.764,1167.9 535.615,1167.9 536.466,1167.9 537.317,1167.9 538.168,1167.9 539.02,1167.9 539.871,1167.9 540.722,1167.9 541.573,1167.9 542.424,1167.9 543.275,1167.9 544.126,1167.9 544.977,1167.9 545.829,1167.9 546.68,1167.9 547.531,1167.9 548.382,1167.9 549.233,1167.9 550.084,1167.9 550.935,1167.9 551.786,1167.9 552.638,1167.9 553.489,1167.9 554.34,1167.9 555.191,1167.9 556.042,1113.81 556.893,1113.81 557.744,1113.81 558.595,1113.81 559.446,1113.81 560.298,1113.81 561.149,1113.81 562,1113.81 562.851,1113.81 563.702,1113.81 564.553,1113.81 565.404,1113.81 566.255,1113.81 567.107,1113.81 567.958,1113.81 568.809,1113.81 569.66,1113.81 570.511,1113.81 571.362,1113.81 572.213,1113.81 573.064,1113.81 573.916,1113.81 574.767,1113.81 575.618,1113.81 576.469,1113.81 577.32,1113.81 578.171,1113.81 579.022,1113.81 579.873,1113.81 580.724,1113.81 581.576,1113.81 582.427,1113.81 583.278,1113.81 584.129,1113.81 584.98,1113.81 585.831,1113.81 586.682,1113.81 587.533,1113.81 588.385,1113.81 589.236,1113.81 590.087,1113.81 590.938,1113.81 591.789,1113.81 592.64,1113.81 593.491,1113.81 594.342,1113.81 595.194,1113.81 596.045,1113.81 596.896,1113.81 597.747,1113.81 598.598,1113.81 599.449,1113.81 600.3,1113.81 601.151,1113.81 602.002,1113.81 602.854,1113.81 603.705,1113.81 604.556,1113.81 605.407,1113.81 606.258,1113.81 607.109,1113.81 607.96,1113.81 608.811,1113.81 609.663,1113.81 610.514,1113.81 611.365,1113.81 612.216,1113.81 613.067,1113.81 613.918,1113.81 614.769,1113.81 615.62,1113.81 616.472,1113.81 617.323,1113.81 618.174,1113.81 619.025,1113.81 619.876,1113.81 620.727,1113.81 621.578,1113.81 622.429,1113.81 623.28,1113.81 624.132,1113.81 624.983,1113.81 625.834,1113.81 626.685,1113.81 627.536,1113.81 628.387,1113.81 629.238,1113.81 630.089,1113.81 630.941,1113.81 631.792,1113.81 632.643,1113.81 633.494,1113.81 634.345,1113.81 635.196,1113.81 636.047,1113.81 636.898,1113.81 637.75,1113.81 638.601,1113.81 639.452,1113.81 640.303,1113.81 641.154,1113.81 642.005,1113.81 642.856,1113.81 643.707,1113.81 644.558,1113.81 645.41,1113.81 646.261,1113.81 647.112,1113.81 647.963,1113.81 648.814,1113.81 649.665,1113.81 650.516,1113.81 651.367,1113.81 652.219,1113.81 653.07,1113.81 653.921,1113.81 654.772,1113.81 655.623,1113.81 656.474,1113.81 657.325,1113.81 658.176,1113.81 659.028,1113.81 659.879,1113.81 660.73,1113.81 661.581,1113.81 662.432,1113.81 663.283,1113.81 664.134,1113.81 664.985,1113.81 665.836,1113.81 666.688,1113.81 667.539,1113.81 668.39,1113.81 669.241,1113.81 670.092,1113.81 670.943,1113.81 671.794,1113.81 672.645,1113.81 673.497,1113.81 674.348,1113.81 675.199,1113.81 676.05,1113.81 676.901,1113.81 677.752,1113.81 678.603,1113.81 679.454,1113.81 680.305,1113.81 681.157,1113.81 682.008,1113.81 682.859,1113.81 683.71,1113.81 684.561,1113.81 685.412,1113.81 686.263,1113.81 687.114,1113.81 687.966,1113.81 688.817,1113.81 689.668,1113.81 690.519,1113.81 691.37,1113.81 692.221,1113.81 693.072,1113.81 693.923,1059.73 694.775,1059.73 695.626,1059.73 696.477,1059.73 697.328,1059.73 698.179,1059.73 699.03,1059.73 699.881,1059.73 700.732,1059.73 701.583,1059.73 702.435,1059.73 703.286,1059.73 704.137,1059.73 704.988,1059.73 705.839,1059.73 706.69,1059.73 707.541,1059.73 708.392,1059.73 709.244,1059.73 710.095,1059.73 710.946,1059.73 711.797,1059.73 712.648,1059.73 713.499,1059.73 714.35,1059.73 715.201,1059.73 716.053,1059.73 716.904,1059.73 717.755,1059.73 718.606,1059.73 719.457,1059.73 720.308,1059.73 721.159,1059.73 722.01,1059.73 722.861,1059.73 723.713,1059.73 724.564,1059.73 725.415,1059.73 726.266,1059.73 727.117,1059.73 727.968,1059.73 728.819,1059.73 729.67,1059.73 730.522,1059.73 731.373,1059.73 732.224,1059.73 733.075,1059.73 733.926,1059.73 734.777,1059.73 735.628,1059.73 736.479,1059.73 737.331,1059.73 738.182,1059.73 739.033,1059.73 739.884,1059.73 740.735,1059.73 741.586,1059.73 742.437,1059.73 743.288,1059.73 744.139,1059.73 744.991,1059.73 745.842,1059.73 746.693,1059.73 747.544,1059.73 748.395,1059.73 749.246,1059.73 750.097,1059.73 750.948,1059.73 751.8,1059.73 752.651,1059.73 753.502,1059.73 754.353,1059.73 755.204,1059.73 756.055,1059.73 756.906,1059.73 757.757,1059.73 758.609,1005.64 759.46,1005.64 760.311,1005.64 761.162,1005.64 762.013,1005.64 762.864,1005.64 763.715,1005.64 764.566,1005.64 765.417,1005.64 766.269,1005.64 767.12,1005.64 767.971,1005.64 768.822,1005.64 769.673,1005.64 770.524,1005.64 771.375,1005.64 772.226,1005.64 773.078,1005.64 773.929,1005.64 774.78,1005.64 775.631,1005.64 776.482,1005.64 777.333,1005.64 778.184,1005.64 779.035,1005.64 779.887,1005.64 780.738,1005.64 781.589,1005.64 782.44,1005.64 783.291,1005.64 784.142,1005.64 784.993,1005.64 785.844,1005.64 786.695,1005.64 787.547,1005.64 788.398,1005.64 789.249,1005.64 790.1,1005.64 790.951,951.554 791.802,951.554 792.653,951.554 793.504,951.554 794.356,951.554 795.207,951.554 796.058,951.554 796.909,951.554 797.76,951.554 798.611,951.554 799.462,951.554 800.313,951.554 801.165,951.554 802.016,951.554 802.867,951.554 803.718,951.554 804.569,951.554 805.42,951.554 806.271,951.554 807.122,951.554 807.973,951.554 808.825,951.554 809.676,951.554 810.527,951.554 811.378,951.554 812.229,951.554 813.08,951.554 813.931,951.554 814.782,951.554 815.634,951.554 816.485,951.554 817.336,951.554 818.187,951.554 819.038,951.554 819.889,951.554 820.74,951.554 821.591,951.554 822.443,951.554 823.294,951.554 824.145,951.554 824.996,951.554 825.847,951.554 826.698,951.554 827.549,951.554 828.4,951.554 829.251,951.554 830.103,951.554 830.954,951.554 831.805,951.554 832.656,951.554 833.507,951.554 834.358,951.554 835.209,951.554 836.06,951.554 836.912,951.554 837.763,951.554 838.614,951.554 839.465,951.554 840.316,951.554 841.167,951.554 842.018,951.554 842.869,951.554 843.72,951.554 844.572,951.554 845.423,951.554 846.274,951.554 847.125,951.554 847.976,951.554 848.827,951.554 849.678,951.554 850.529,951.554 851.381,951.554 852.232,951.554 853.083,951.554 853.934,951.554 854.785,951.554 855.636,951.554 856.487,951.554 857.338,951.554 858.19,951.554 859.041,951.554 859.892,951.554 860.743,951.554 861.594,951.554 862.445,951.554 863.296,951.554 864.147,951.554 864.998,951.554 865.85,951.554 866.701,951.554 867.552,951.554 868.403,951.554 869.254,951.554 870.105,951.554 870.956,951.554 871.807,951.554 872.659,951.554 873.51,951.554 874.361,951.554 875.212,951.554 876.063,951.554 876.914,951.554 877.765,951.554 878.616,951.554 879.468,951.554 880.319,951.554 881.17,951.554 882.021,951.554 882.872,951.554 883.723,951.554 884.574,951.554 885.425,951.554 886.276,951.554 887.128,951.554 887.979,951.554 888.83,951.554 889.681,951.554 890.532,951.554 891.383,951.554 892.234,951.554 893.085,951.554 893.937,951.554 894.788,951.554 895.639,951.554 896.49,951.554 897.341,951.554 898.192,951.554 899.043,951.554 899.894,951.554 900.746,951.554 901.597,951.554 902.448,951.554 903.299,951.554 904.15,951.554 905.001,951.554 905.852,951.554 906.703,951.554 907.554,951.554 908.406,951.554 909.257,951.554 910.108,951.554 910.959,951.554 911.81,951.554 912.661,951.554 913.512,951.554 914.363,951.554 915.215,951.554 916.066,951.554 916.917,951.554 917.768,951.554 918.619,951.554 919.47,951.554 920.321,951.554 921.172,951.554 922.024,951.554 922.875,951.554 923.726,951.554 924.577,951.554 925.428,951.554 926.279,951.554 927.13,951.554 927.981,951.554 928.832,951.554 929.684,951.554 930.535,951.554 931.386,951.554 932.237,951.554 933.088,951.554 933.939,951.554 934.79,951.554 935.641,951.554 936.493,951.554 937.344,951.554 938.195,951.554 939.046,951.554 939.897,951.554 940.748,951.554 941.599,951.554 942.45,951.554 943.302,951.554 944.153,951.554 945.004,951.554 945.855,951.554 946.706,951.554 947.557,951.554 948.408,951.554 949.259,951.554 950.11,951.554 950.962,951.554 951.813,951.554 952.664,951.554 953.515,951.554 954.366,951.554 955.217,951.554 956.068,951.554 956.919,951.554 957.771,951.554 958.622,951.554 959.473,951.554 960.324,951.554 961.175,951.554 962.026,951.554 962.877,951.554 963.728,951.554 964.58,951.554 965.431,951.554 966.282,951.554 967.133,951.554 967.984,951.554 968.835,951.554 969.686,951.554 970.537,951.554 971.388,951.554 972.24,951.554 973.091,951.554 973.942,951.554 974.793,951.554 975.644,951.554 976.495,951.554 977.346,951.554 978.197,951.554 979.049,951.554 979.9,951.554 980.751,951.554 981.602,951.554 982.453,951.554 983.304,951.554 984.155,951.554 985.006,951.554 985.858,951.554 986.709,951.554 987.56,951.554 988.411,951.554 989.262,951.554 990.113,951.554 990.964,951.554 991.815,951.554 992.666,951.554 993.518,951.554 994.369,951.554 995.22,951.554 996.071,951.554 996.922,951.554 997.773,951.554 998.624,951.554 999.475,951.554 1000.33,951.554 1001.18,951.554 1002.03,951.554 1002.88,951.554 1003.73,951.554 1004.58,951.554 1005.43,951.554 1006.28,951.554 1007.14,951.554 1007.99,951.554 1008.84,951.554 1009.69,951.554 1010.54,951.554 1011.39,951.554 1012.24,951.554 1013.09,951.554 1013.94,951.554 1014.8,951.554 1015.65,951.554 1016.5,951.554 1017.35,951.554 1018.2,951.554 1019.05,951.554 1019.9,951.554 1020.75,951.554 1021.6,951.554 1022.46,951.554 1023.31,951.554 1024.16,951.554 1025.01,951.554 1025.86,951.554 1026.71,951.554 1027.56,951.554 1028.41,951.554 1029.26,951.554 1030.12,951.554 1030.97,951.554 1031.82,951.554 1032.67,951.554 1033.52,951.554 1034.37,951.554 1035.22,951.554 1036.07,951.554 1036.92,951.554 1037.78,951.554 1038.63,951.554 1039.48,951.554 1040.33,951.554 1041.18,951.554 1042.03,951.554 1042.88,951.554 1043.73,951.554 1044.58,951.554 1045.44,951.554 1046.29,951.554 1047.14,951.554 1047.99,951.554 1048.84,951.554 1049.69,951.554 1050.54,951.554 1051.39,951.554 1052.24,951.554 1053.1,951.554 1053.95,951.554 1054.8,951.554 1055.65,951.554 1056.5,951.554 1057.35,951.554 1058.2,951.554 1059.05,951.554 1059.9,951.554 1060.76,951.554 1061.61,951.554 1062.46,951.554 1063.31,951.554 1064.16,951.554 1065.01,951.554 1065.86,951.554 1066.71,951.554 1067.57,951.554 1068.42,951.554 1069.27,951.554 1070.12,951.554 1070.97,951.554 1071.82,951.554 1072.67,951.554 1073.52,951.554 1074.37,951.554 1075.23,951.554 1076.08,951.554 1076.93,951.554 1077.78,951.554 1078.63,951.554 1079.48,951.554 1080.33,951.554 1081.18,951.554 1082.03,951.554 1082.89,951.554 1083.74,951.554 1084.59,951.554 1085.44,951.554 1086.29,951.554 1087.14,951.554 1087.99,951.554 1088.84,951.554 1089.69,951.554 1090.55,951.554 1091.4,951.554 1092.25,951.554 1093.1,951.554 1093.95,951.554 1094.8,951.554 1095.65,951.554 1096.5,951.554 1097.35,951.554 1098.21,951.554 1099.06,951.554 1099.91,951.554 1100.76,951.554 1101.61,951.554 1102.46,951.554 1103.31,951.554 1104.16,951.554 1105.01,951.554 1105.87,951.554 1106.72,951.554 1107.57,951.554 1108.42,951.554 1109.27,951.554 1110.12,951.554 1110.97,951.554 1111.82,951.554 1112.67,951.554 1113.53,951.554 1114.38,951.554 1115.23,951.554 1116.08,951.554 1116.93,951.554 1117.78,951.554 1118.63,951.554 1119.48,951.554 1120.33,951.554 1121.19,951.554 1122.04,951.554 1122.89,951.554 1123.74,951.554 1124.59,951.554 1125.44,951.554 1126.29,951.554 1127.14,951.554 1127.99,951.554 1128.85,951.554 1129.7,951.554 1130.55,951.554 1131.4,951.554 1132.25,951.554 1133.1,951.554 1133.95,951.554 1134.8,951.554 1135.65,951.554 1136.51,951.554 1137.36,951.554 1138.21,951.554 1139.06,951.554 1139.91,951.554 1140.76,951.554 1141.61,951.554 1142.46,951.554 1143.31,951.554 1144.17,951.554 1145.02,897.469 1145.87,897.469 1146.72,897.469 1147.57,897.469 1148.42,897.469 1149.27,897.469 1150.12,897.469 1150.97,897.469 1151.83,897.469 1152.68,897.469 1153.53,897.469 1154.38,897.469 1155.23,897.469 1156.08,897.469 1156.93,897.469 1157.78,897.469 1158.63,897.469 1159.49,897.469 1160.34,897.469 1161.19,897.469 1162.04,897.469 1162.89,897.469 1163.74,897.469 1164.59,897.469 1165.44,897.469 1166.29,897.469 1167.15,897.469 1168,897.469 1168.85,897.469 1169.7,897.469 1170.55,897.469 1171.4,897.469 1172.25,897.469 1173.1,897.469 1173.95,897.469 1174.81,897.469 1175.66,897.469 1176.51,897.469 1177.36,897.469 1178.21,897.469 1179.06,897.469 1179.91,897.469 1180.76,897.469 1181.62,897.469 1182.47,897.469 1183.32,897.469 1184.17,843.383 1185.02,843.383 1185.87,843.383 1186.72,843.383 1187.57,843.383 1188.42,843.383 1189.28,843.383 1190.13,843.383 1190.98,843.383 1191.83,843.383 1192.68,843.383 1193.53,843.383 1194.38,843.383 1195.23,843.383 1196.08,843.383 1196.94,843.383 1197.79,843.383 1198.64,843.383 1199.49,843.383 1200.34,843.383 1201.19,843.383 1202.04,843.383 1202.89,843.383 1203.74,843.383 1204.6,843.383 1205.45,843.383 1206.3,843.383 1207.15,843.383 1208,843.383 1208.85,843.383 1209.7,843.383 1210.55,843.383 1211.4,843.383 1212.26,843.383 1213.11,843.383 1213.96,843.383 1214.81,843.383 1215.66,843.383 1216.51,843.383 1217.36,843.383 1218.21,843.383 1219.06,843.383 1219.92,843.383 1220.77,843.383 1221.62,843.383 1222.47,843.383 1223.32,843.383 1224.17,843.383 1225.02,843.383 1225.87,843.383 1226.72,843.383 1227.58,843.383 1228.43,843.383 1229.28,843.383 1230.13,843.383 1230.98,843.383 1231.83,843.383 1232.68,843.383 1233.53,843.383 1234.38,843.383 1235.24,843.383 1236.09,843.383 1236.94,843.383 1237.79,843.383 1238.64,843.383 1239.49,843.383 1240.34,843.383 1241.19,843.383 1242.04,843.383 1242.9,843.383 1243.75,843.383 1244.6,843.383 1245.45,843.383 1246.3,843.383 1247.15,843.383 1248,843.383 1248.85,843.383 1249.7,843.383 1250.56,843.383 1251.41,843.383 1252.26,843.383 1253.11,843.383 1253.96,843.383 1254.81,843.383 1255.66,843.383 1256.51,843.383 1257.36,843.383 1258.22,843.383 1259.07,843.383 1259.92,843.383 1260.77,843.383 1261.62,843.383 1262.47,843.383 1263.32,843.383 1264.17,843.383 1265.02,843.383 1265.88,843.383 1266.73,843.383 1267.58,843.383 1268.43,843.383 1269.28,843.383 1270.13,843.383 1270.98,843.383 1271.83,843.383 1272.68,843.383 1273.54,843.383 1274.39,843.383 1275.24,843.383 1276.09,843.383 1276.94,843.383 1277.79,843.383 1278.64,843.383 1279.49,843.383 1280.34,843.383 1281.2,843.383 1282.05,843.383 1282.9,843.383 1283.75,843.383 1284.6,843.383 1285.45,843.383 1286.3,843.383 1287.15,843.383 1288.01,843.383 1288.86,843.383 1289.71,843.383 1290.56,843.383 1291.41,843.383 1292.26,843.383 1293.11,843.383 1293.96,843.383 1294.81,843.383 1295.67,843.383 1296.52,843.383 1297.37,843.383 1298.22,843.383 1299.07,843.383 1299.92,843.383 1300.77,843.383 1301.62,843.383 1302.47,843.383 1303.33,843.383 1304.18,843.383 1305.03,843.383 1305.88,843.383 1306.73,843.383 1307.58,843.383 1308.43,843.383 1309.28,843.383 1310.13,843.383 1310.99,843.383 1311.84,843.383 1312.69,843.383 1313.54,843.383 1314.39,843.383 1315.24,843.383 1316.09,843.383 1316.94,843.383 1317.79,843.383 1318.65,843.383 1319.5,843.383 1320.35,843.383 1321.2,843.383 1322.05,843.383 1322.9,843.383 1323.75,843.383 1324.6,843.383 1325.45,843.383 1326.31,843.383 1327.16,843.383 1328.01,843.383 1328.86,843.383 1329.71,843.383 1330.56,843.383 1331.41,843.383 1332.26,843.383 1333.11,843.383 1333.97,843.383 1334.82,843.383 1335.67,843.383 1336.52,843.383 1337.37,843.383 1338.22,843.383 1339.07,843.383 1339.92,843.383 1340.77,843.383 1341.63,843.383 1342.48,843.383 1343.33,843.383 1344.18,843.383 1345.03,843.383 1345.88,843.383 1346.73,843.383 1347.58,843.383 1348.43,843.383 1349.29,843.383 1350.14,843.383 1350.99,843.383 1351.84,843.383 1352.69,843.383 1353.54,843.383 1354.39,843.383 1355.24,843.383 1356.09,843.383 1356.95,843.383 1357.8,789.297 1358.65,789.297 1359.5,789.297 1360.35,789.297 1361.2,789.297 1362.05,789.297 1362.9,789.297 1363.75,789.297 1364.61,789.297 1365.46,789.297 1366.31,789.297 1367.16,789.297 1368.01,789.297 1368.86,789.297 1369.71,789.297 1370.56,789.297 1371.41,789.297 1372.27,789.297 1373.12,789.297 1373.97,789.297 1374.82,789.297 1375.67,789.297 1376.52,789.297 1377.37,789.297 1378.22,789.297 1379.07,789.297 1379.93,789.297 1380.78,789.297 1381.63,789.297 1382.48,789.297 1383.33,789.297 1384.18,789.297 1385.03,789.297 1385.88,789.297 1386.73,789.297 1387.59,789.297 1388.44,789.297 1389.29,789.297 1390.14,789.297 1390.99,789.297 1391.84,789.297 1392.69,789.297 1393.54,789.297 1394.4,789.297 1395.25,789.297 1396.1,789.297 1396.95,789.297 1397.8,789.297 1398.65,789.297 1399.5,789.297 1400.35,789.297 1401.2,789.297 1402.06,789.297 1402.91,789.297 1403.76,789.297 1404.61,789.297 1405.46,789.297 1406.31,789.297 1407.16,789.297 1408.01,789.297 1408.86,789.297 1409.72,789.297 1410.57,789.297 1411.42,789.297 1412.27,789.297 1413.12,789.297 1413.97,789.297 1414.82,789.297 1415.67,789.297 1416.52,789.297 1417.38,789.297 1418.23,789.297 1419.08,789.297 1419.93,789.297 1420.78,789.297 1421.63,789.297 1422.48,789.297 1423.33,789.297 1424.18,789.297 1425.04,789.297 1425.89,789.297 1426.74,789.297 1427.59,789.297 1428.44,789.297 1429.29,789.297 1430.14,789.297 1430.99,789.297 1431.84,789.297 1432.7,789.297 1433.55,789.297 1434.4,789.297 1435.25,789.297 1436.1,789.297 1436.95,789.297 1437.8,789.297 1438.65,789.297 1439.5,789.297 1440.36,789.297 1441.21,789.297 1442.06,789.297 1442.91,789.297 1443.76,789.297 1444.61,789.297 1445.46,789.297 1446.31,789.297 1447.16,789.297 1448.02,789.297 1448.87,789.297 1449.72,789.297 1450.57,789.297 1451.42,789.297 1452.27,789.297 1453.12,789.297 1453.97,789.297 1454.82,789.297 1455.68,789.297 1456.53,789.297 1457.38,789.297 1458.23,789.297 1459.08,789.297 1459.93,789.297 1460.78,789.297 1461.63,789.297 1462.48,789.297 1463.34,789.297 1464.19,789.297 1465.04,789.297 1465.89,789.297 1466.74,789.297 1467.59,789.297 1468.44,789.297 1469.29,789.297 1470.14,789.297 1471,789.297 1471.85,789.297 1472.7,789.297 1473.55,789.297 1474.4,789.297 1475.25,789.297 1476.1,789.297 1476.95,789.297 1477.8,789.297 1478.66,789.297 1479.51,789.297 1480.36,789.297 1481.21,789.297 1482.06,789.297 1482.91,789.297 1483.76,789.297 1484.61,789.297 1485.46,789.297 1486.32,789.297 1487.17,789.297 1488.02,789.297 1488.87,789.297 1489.72,789.297 1490.57,789.297 1491.42,789.297 1492.27,789.297 1493.12,789.297 1493.98,789.297 1494.83,789.297 1495.68,789.297 1496.53,789.297 1497.38,789.297 1498.23,789.297 1499.08,789.297 1499.93,735.212 1500.78,735.212 1501.64,735.212 1502.49,735.212 1503.34,735.212 1504.19,735.212 1505.04,735.212 1505.89,681.126 1506.74,681.126 1507.59,681.126 1508.45,681.126 1509.3,681.126 1510.15,681.126 1511,681.126 1511.85,681.126 1512.7,681.126 1513.55,681.126 1514.4,681.126 1515.25,681.126 1516.11,681.126 1516.96,681.126 1517.81,681.126 1518.66,681.126 1519.51,681.126 1520.36,681.126 1521.21,681.126 1522.06,681.126 1522.91,681.126 1523.77,681.126 1524.62,681.126 1525.47,681.126 1526.32,681.126 1527.17,681.126 1528.02,681.126 1528.87,681.126 1529.72,681.126 1530.57,681.126 1531.43,681.126 1532.28,681.126 1533.13,681.126 1533.98,681.126 1534.83,681.126 1535.68,681.126 1536.53,681.126 1537.38,681.126 1538.23,681.126 1539.09,681.126 1539.94,681.126 1540.79,681.126 1541.64,681.126 1542.49,681.126 1543.34,681.126 1544.19,681.126 1545.04,681.126 1545.89,681.126 1546.75,681.126 1547.6,681.126 1548.45,681.126 1549.3,681.126 1550.15,681.126 1551,681.126 1551.85,681.126 1552.7,681.126 1553.55,681.126 1554.41,681.126 1555.26,681.126 1556.11,681.126 1556.96,681.126 1557.81,681.126 1558.66,681.126 1559.51,681.126 1560.36,681.126 1561.21,681.126 1562.07,681.126 1562.92,681.126 1563.77,681.126 1564.62,681.126 1565.47,681.126 1566.32,681.126 1567.17,681.126 1568.02,681.126 1568.87,681.126 1569.73,681.126 1570.58,681.126 1571.43,681.126 1572.28,681.126 1573.13,681.126 1573.98,681.126 1574.83,681.126 1575.68,681.126 1576.53,681.126 1577.39,681.126 1578.24,681.126 1579.09,681.126 1579.94,681.126 1580.79,681.126 1581.64,681.126 1582.49,681.126 1583.34,627.041 1584.19,627.041 1585.05,627.041 1585.9,627.041 1586.75,627.041 1587.6,627.041 1588.45,627.041 1589.3,627.041 1590.15,627.041 1591,627.041 1591.85,627.041 1592.71,627.041 1593.56,627.041 1594.41,627.041 1595.26,627.041 1596.11,627.041 1596.96,627.041 1597.81,627.041 1598.66,627.041 1599.51,627.041 1600.37,627.041 1601.22,627.041 1602.07,627.041 1602.92,627.041 1603.77,627.041 1604.62,627.041 1605.47,627.041 1606.32,627.041 1607.17,627.041 1608.03,627.041 1608.88,627.041 1609.73,627.041 1610.58,627.041 1611.43,627.041 1612.28,627.041 1613.13,627.041 1613.98,627.041 1614.84,627.041 1615.69,627.041 1616.54,627.041 1617.39,627.041 1618.24,627.041 1619.09,627.041 1619.94,572.955 1620.79,572.955 1621.64,572.955 1622.5,572.955 1623.35,572.955 1624.2,572.955 1625.05,572.955 1625.9,572.955 1626.75,572.955 1627.6,572.955 1628.45,572.955 1629.3,572.955 1630.16,572.955 1631.01,572.955 1631.86,572.955 1632.71,572.955 1633.56,572.955 1634.41,572.955 1635.26,572.955 1636.11,572.955 1636.96,572.955 1637.82,572.955 1638.67,572.955 1639.52,572.955 1640.37,572.955 1641.22,572.955 1642.07,572.955 1642.92,572.955 1643.77,572.955 1644.62,572.955 1645.48,572.955 1646.33,572.955 1647.18,572.955 1648.03,572.955 1648.88,572.955 1649.73,572.955 1650.58,572.955 1651.43,572.955 1652.28,572.955 1653.14,572.955 1653.99,572.955 1654.84,572.955 1655.69,572.955 1656.54,572.955 1657.39,572.955 1658.24,572.955 1659.09,572.955 1659.94,572.955 1660.8,572.955 1661.65,572.955 1662.5,572.955 1663.35,572.955 1664.2,572.955 1665.05,572.955 1665.9,572.955 1666.75,572.955 1667.6,518.87 1668.46,518.87 1669.31,518.87 1670.16,518.87 1671.01,518.87 1671.86,518.87 1672.71,518.87 1673.56,518.87 1674.41,518.87 1675.26,518.87 1676.12,518.87 1676.97,518.87 1677.82,518.87 1678.67,518.87 1679.52,518.87 1680.37,518.87 1681.22,518.87 1682.07,518.87 1682.92,518.87 1683.78,518.87 1684.63,518.87 1685.48,518.87 1686.33,518.87 1687.18,518.87 1688.03,518.87 1688.88,518.87 1689.73,518.87 1690.58,518.87 1691.44,518.87 1692.29,518.87 1693.14,518.87 1693.99,518.87 1694.84,518.87 1695.69,518.87 1696.54,518.87 1697.39,518.87 1698.24,518.87 1699.1,518.87 1699.95,518.87 1700.8,518.87 1701.65,518.87 1702.5,518.87 1703.35,518.87 1704.2,518.87 1705.05,518.87 1705.9,518.87 1706.76,518.87 1707.61,518.87 1708.46,518.87 1709.31,518.87 1710.16,464.784 1711.01,464.784 1711.86,464.784 1712.71,464.784 1713.56,464.784 1714.42,464.784 1715.27,464.784 1716.12,464.784 1716.97,464.784 1717.82,464.784 1718.67,464.784 1719.52,464.784 1720.37,464.784 1721.23,464.784 1722.08,464.784 1722.93,464.784 1723.78,464.784 1724.63,464.784 1725.48,464.784 1726.33,464.784 1727.18,464.784 1728.03,464.784 1728.89,464.784 1729.74,464.784 1730.59,464.784 1731.44,464.784 1732.29,464.784 1733.14,464.784 1733.99,464.784 1734.84,464.784 1735.69,464.784 1736.55,464.784 1737.4,464.784 1738.25,464.784 1739.1,464.784 1739.95,464.784 1740.8,464.784 1741.65,464.784 1742.5,464.784 1743.35,464.784 1744.21,464.784 1745.06,464.784 1745.91,464.784 1746.76,464.784 1747.61,464.784 1748.46,464.784 1749.31,464.784 1750.16,464.784 1751.01,464.784 1751.87,464.784 1752.72,464.784 1753.57,464.784 1754.42,464.784 1755.27,464.784 1756.12,464.784 1756.97,464.784 1757.82,464.784 1758.67,464.784 1759.53,464.784 1760.38,464.784 1761.23,464.784 1762.08,464.784 1762.93,464.784 1763.78,464.784 1764.63,464.784 1765.48,464.784 1766.33,464.784 1767.19,464.784 1768.04,464.784 1768.89,464.784 1769.74,464.784 1770.59,464.784 1771.44,464.784 1772.29,464.784 1773.14,464.784 1773.99,464.784 1774.85,464.784 1775.7,464.784 1776.55,464.784 1777.4,464.784 1778.25,464.784 1779.1,464.784 1779.95,464.784 1780.8,464.784 1781.65,464.784 1782.51,464.784 1783.36,464.784 1784.21,464.784 1785.06,464.784 1785.91,464.784 1786.76,464.784 1787.61,464.784 1788.46,464.784 1789.31,464.784 1790.17,464.784 1791.02,464.784 1791.87,464.784 1792.72,464.784 1793.57,464.784 1794.42,464.784 1795.27,464.784 1796.12,410.699 1796.97,410.699 1797.83,410.699 1798.68,410.699 1799.53,410.699 1800.38,410.699 1801.23,410.699 1802.08,410.699 1802.93,410.699 1803.78,410.699 1804.63,410.699 1805.49,410.699 1806.34,410.699 1807.19,410.699 1808.04,410.699 1808.89,410.699 1809.74,410.699 1810.59,410.699 1811.44,410.699 1812.29,410.699 1813.15,410.699 1814,410.699 1814.85,410.699 1815.7,410.699 1816.55,410.699 1817.4,410.699 1818.25,410.699 1819.1,410.699 1819.95,410.699 1820.81,410.699 1821.66,410.699 1822.51,410.699 1823.36,410.699 1824.21,410.699 1825.06,410.699 1825.91,410.699 1826.76,410.699 1827.61,410.699 1828.47,410.699 1829.32,410.699 1830.17,410.699 1831.02,410.699 1831.87,410.699 1832.72,410.699 1833.57,410.699 1834.42,410.699 1835.28,410.699 1836.13,410.699 1836.98,410.699 1837.83,410.699 1838.68,410.699 1839.53,410.699 1840.38,410.699 1841.23,410.699 1842.08,410.699 1842.94,410.699 1843.79,410.699 1844.64,410.699 1845.49,410.699 1846.34,410.699 1847.19,410.699 1848.04,410.699 1848.89,410.699 1849.74,410.699 1850.6,410.699 1851.45,410.699 1852.3,410.699 1853.15,410.699 1854,410.699 1854.85,410.699 1855.7,410.699 1856.55,410.699 1857.4,410.699 1858.26,410.699 1859.11,410.699 1859.96,410.699 1860.81,410.699 1861.66,410.699 1862.51,410.699 1863.36,410.699 1864.21,410.699 1865.06,410.699 1865.92,410.699 1866.77,410.699 1867.62,410.699 1868.47,410.699 1869.32,410.699 1870.17,410.699 1871.02,410.699 1871.87,410.699 1872.72,410.699 1873.58,410.699 1874.43,410.699 1875.28,410.699 1876.13,410.699 1876.98,410.699 1877.83,410.699 1878.68,410.699 1879.53,410.699 1880.38,410.699 1881.24,410.699 1882.09,410.699 1882.94,410.699 1883.79,410.699 1884.64,410.699 1885.49,410.699 1886.34,410.699 1887.19,410.699 1888.04,410.699 1888.9,410.699 1889.75,410.699 1890.6,410.699 1891.45,410.699 1892.3,410.699 1893.15,410.699 1894,410.699 1894.85,410.699 1895.7,410.699 1896.56,410.699 1897.41,410.699 1898.26,410.699 1899.11,410.699 1899.96,356.613 1900.81,356.613 1901.66,356.613 1902.51,356.613 1903.36,356.613 1904.22,356.613 1905.07,356.613 1905.92,356.613 1906.77,356.613 1907.62,356.613 1908.47,356.613 1909.32,356.613 1910.17,356.613 1911.02,356.613 1911.88,356.613 1912.73,356.613 1913.58,356.613 1914.43,356.613 1915.28,356.613 1916.13,356.613 1916.98,356.613 1917.83,356.613 1918.68,356.613 1919.54,356.613 1920.39,356.613 1921.24,356.613 1922.09,356.613 1922.94,356.613 1923.79,356.613 1924.64,356.613 1925.49,356.613 1926.34,356.613 1927.2,356.613 1928.05,356.613 1928.9,356.613 1929.75,302.528 1930.6,302.528 1931.45,302.528 1932.3,302.528 1933.15,302.528 1934,302.528 1934.86,248.442 1935.71,248.442 1936.56,248.442 1937.41,248.442 1938.26,248.442 1939.11,248.442 1939.96,248.442 1940.81,248.442 1941.67,248.442 1942.52,248.442 1943.37,248.442 1944.22,248.442 1945.07,248.442 1945.92,248.442 1946.77,248.442 1947.62,248.442 1948.47,248.442 1949.33,248.442 1950.18,248.442 1951.03,248.442 1951.88,248.442 1952.73,248.442 1953.58,248.442 1954.43,248.442 1955.28,248.442 1956.13,248.442 1956.99,248.442 1957.84,248.442 1958.69,248.442 1959.54,248.442 1960.39,248.442 1961.24,248.442 1962.09,248.442 1962.94,248.442 1963.79,248.442 1964.65,248.442 1965.5,248.442 1966.35,248.442 1967.2,248.442 1968.05,248.442 1968.9,248.442 1969.75,248.442 1970.6,248.442 1971.45,248.442 1972.31,248.442 1973.16,248.442 1974.01,248.442 1974.86,248.442 1975.71,248.442 1976.56,248.442 1977.41,248.442 1978.26,248.442 1979.11,248.442 1979.97,248.442 1980.82,248.442 1981.67,248.442 1982.52,248.442 1983.37,248.442 1984.22,248.442 1985.07,248.442 1985.92,248.442 1986.77,248.442 1987.63,248.442 1988.48,248.442 1989.33,248.442 1990.18,248.442 1991.03,248.442 1991.88,248.442 1992.73,248.442 1993.58,248.442 1994.43,248.442 1995.29,248.442 1996.14,248.442 1996.99,248.442 1997.84,248.442 1998.69,248.442 1999.54,248.442 2000.39,248.442 2001.24,248.442 2002.09,248.442 2002.95,248.442 2003.8,248.442 2004.65,248.442 2005.5,248.442 2006.35,248.442 2007.2,248.442 2008.05,248.442 2008.9,248.442 2009.75,248.442 2010.61,248.442 2011.46,248.442 2012.31,248.442 2013.16,248.442 2014.01,248.442 2014.86,248.442 2015.71,248.442 2016.56,248.442 2017.41,248.442 2018.27,248.442 2019.12,248.442 2019.97,248.442 2020.82,248.442 2021.67,248.442 2022.52,248.442 2023.37,248.442 2024.22,248.442 2025.07,248.442 2025.93,248.442 2026.78,248.442 2027.63,248.442 2028.48,248.442 2029.33,248.442 2030.18,248.442 2031.03,248.442 2031.88,248.442 2032.73,248.442 2033.59,248.442 2034.44,248.442 2035.29,248.442 2036.14,248.442 2036.99,248.442 2037.84,248.442 2038.69,248.442 2039.54,248.442 2040.39,248.442 2041.25,248.442 2042.1,248.442 2042.95,248.442 2043.8,248.442 2044.65,248.442 2045.5,248.442 2046.35,248.442 2047.2,248.442 2048.06,248.442 2048.91,248.442 2049.76,248.442 2050.61,248.442 2051.46,248.442 2052.31,248.442 2053.16,248.442 2054.01,248.442 2054.86,248.442 2055.72,248.442 2056.57,248.442 2057.42,248.442 2058.27,248.442 2059.12,194.357 2059.97,194.357 2060.82,194.357 2061.67,194.357 2062.52,194.357 2063.38,194.357 2064.23,194.357 2065.08,194.357 2065.93,194.357 2066.78,194.357 2067.63,194.357 2068.48,194.357 2069.33,194.357 2070.18,194.357 2071.04,194.357 2071.89,194.357 2072.74,194.357 2073.59,194.357 2074.44,194.357 2075.29,194.357 2076.14,194.357 2076.99,194.357 2077.84,194.357 2078.7,194.357 2079.55,194.357 2080.4,194.357 2081.25,194.357 2082.1,194.357 2082.95,194.357 2083.8,194.357 2084.65,194.357 2085.5,194.357 2086.36,194.357 2087.21,194.357 2088.06,194.357 2088.91,194.357 2089.76,194.357 2090.61,194.357 2091.46,194.357 2092.31,194.357 2093.16,194.357 2094.02,194.357 2094.87,194.357 2095.72,194.357 2096.57,194.357 2097.42,194.357 2098.27,194.357 2099.12,194.357 2099.97,194.357 2100.82,194.357 2101.68,194.357 2102.53,194.357 2103.38,194.357 2104.23,194.357 2105.08,194.357 2105.93,194.357 2106.78,194.357 2107.63,194.357 2108.48,194.357 2109.34,194.357 2110.19,194.357 2111.04,194.357 2111.89,194.357 2112.74,194.357 2113.59,194.357 2114.44,194.357 2115.29,194.357 2116.14,194.357 2117,194.357 2117.85,194.357 2118.7,194.357 2119.55,194.357 2120.4,194.357 2121.25,194.357 2122.1,194.357 2122.95,194.357 2123.8,194.357 2124.66,194.357 2125.51,194.357 2126.36,194.357 2127.21,194.357 2128.06,194.357 2128.91,194.357 2129.76,194.357 2130.61,194.357 2131.46,194.357 2132.32,194.357 2133.17,194.357 2134.02,194.357 2134.87,194.357 2135.72,194.357 2136.57,194.357 2137.42,194.357 2138.27,194.357 2139.12,194.357 2139.98,194.357 2140.83,194.357 2141.68,194.357 2142.53,194.357 2143.38,194.357 2144.23,194.357 2145.08,194.357 2145.93,194.357 2146.78,194.357 2147.64,194.357 2148.49,194.357 2149.34,194.357 2150.19,194.357 2151.04,194.357 2151.89,194.357 2152.74,194.357 2153.59,194.357 2154.44,194.357 2155.3,194.357 2156.15,194.357 2157,194.357 2157.85,194.357 2158.7,194.357 2159.55,194.357 2160.4,194.357 2161.25,194.357 2162.11,194.357 2162.96,194.357 2163.81,194.357 2164.66,194.357 2165.51,194.357 2166.36,194.357 2167.21,194.357 2168.06,194.357 2168.91,194.357 2169.77,194.357 2170.62,194.357 2171.47,194.357 2172.32,194.357 2173.17,194.357 2174.02,194.357 2174.87,194.357 2175.72,194.357 2176.57,194.357 2177.43,194.357 2178.28,194.357 2179.13,194.357 2179.98,194.357 2180.83,194.357 2181.68,194.357 2182.53,194.357 2183.38,194.357 2184.23,194.357 2185.09,194.357 2185.94,194.357 2186.79,194.357 2187.64,194.357 2188.49,194.357 2189.34,194.357 2190.19,194.357 2191.04,194.357 2191.89,194.357 2192.75,194.357 2193.6,194.357 2194.45,194.357 2195.3,194.357 2196.15,194.357 2197,194.357 2197.85,194.357 2198.7,194.357 2199.55,194.357 2200.41,194.357 2201.26,194.357 2202.11,194.357 2202.96,194.357 2203.81,194.357 2204.66,194.357 2205.51,194.357 2206.36,194.357 2207.21,194.357 2208.07,194.357 2208.92,194.357 2209.77,194.357 2210.62,194.357 2211.47,194.357 2212.32,194.357 2213.17,194.357 2214.02,194.357 2214.87,194.357 2215.73,194.357 2216.58,194.357 2217.43,194.357 2218.28,194.357 2219.13,194.357 2219.98,194.357 2220.83,194.357 2221.68,194.357 2222.53,194.357 2223.39,194.357 2224.24,194.357 2225.09,194.357 2225.94,194.357 2226.79,194.357 2227.64,194.357 2228.49,194.357 2229.34,194.357 2230.19,194.357 2231.05,194.357 2231.9,194.357 2232.75,194.357 2233.6,194.357 2234.45,194.357 2235.3,194.357 2236.15,194.357 2237,194.357 2237.85,194.357 2238.71,194.357 2239.56,194.357 2240.41,194.357 2241.26,194.357 2242.11,194.357 2242.96,194.357 2243.81,194.357 2244.66,194.357 2245.51,194.357 2246.37,194.357 2247.22,194.357 2248.07,194.357 2248.92,194.357 2249.77,194.357 2250.62,194.357 2251.47,194.357 2252.32,194.357 2253.17,194.357 2254.03,194.357 2254.88,194.357 2255.73,194.357 2256.58,194.357 2257.43,194.357 2258.28,194.357 2259.13,194.357 2259.98,194.357 2260.83,194.357 2261.69,194.357 2262.54,194.357 2263.39,194.357 2264.24,194.357 2265.09,194.357 2265.94,194.357 2266.79,194.357 2267.64,194.357 2268.5,194.357 2269.35,194.357 2270.2,194.357 2271.05,194.357 2271.9,194.357 2272.75,194.357 2273.6,194.357 2274.45,140.271 2275.3,140.271 2276.16,140.271 2277.01,140.271 2277.86,140.271 2278.71,140.271 2279.56,86.1857 2280.41,86.1857 2281.26,86.1857 2282.11,86.1857 2282.96,86.1857 2283.82,86.1857 2284.67,86.1857 2285.52,86.1857 2286.37,86.1857 2287.22,86.1857 2288.07,86.1857 2288.92,86.1857 2289.77,86.1857 2290.62,86.1857 2291.48,86.1857 2292.33,86.1857 2293.18,86.1857 2294.03,86.1857 2294.88,86.1857 2295.73,86.1857 2296.58,86.1857 2297.43,86.1857 2298.28,86.1857 2299.14,86.1857 2299.99,86.1857 2300.84,86.1857 2301.69,86.1857 2302.54,86.1857 2303.39,86.1857 2304.24,86.1857 2305.09,86.1857 2305.94,86.1857 2306.8,86.1857 2307.65,86.1857 2308.5,86.1857 2309.35,86.1857 2310.2,86.1857 2311.05,86.1857 2311.9,86.1857 2312.75,86.1857 2313.6,86.1857 2314.46,86.1857 2315.31,86.1857 2316.16,86.1857 2317.01,86.1857 2317.86,86.1857 2318.71,86.1857 2319.56,86.1857 2320.41,86.1857 2321.26,86.1857 2322.12,86.1857 2322.97,86.1857 2323.82,86.1857 2324.67,86.1857 2325.52,86.1857 2326.37,86.1857 2327.22,86.1857 2328.07,86.1857 2328.92,86.1857 2329.78,86.1857 2330.63,86.1857 2331.48,86.1857 2332.33,86.1857 2333.18,86.1857 2334.03,86.1857 2334.88,86.1857 2335.73,86.1857 2336.58,86.1857 2337.44,86.1857 2338.29,86.1857 2339.14,86.1857 2339.99,86.1857 2340.84,86.1857 2341.69,86.1857 2342.54,86.1857 2343.39,86.1857 2344.24,86.1857 2345.1,86.1857 2345.95,86.1857 2346.8,86.1857 2347.65,86.1857 2348.5,86.1857 2349.35,86.1857 2350.2,86.1857 2351.05,86.1857 2351.9,86.1857 2352.76,86.1857 "/>
<path clip-path="url(#clip640)" d="M1975.5 1377.32 L2279.02 1377.32 L2279.02 1273.64 L1975.5 1273.64  Z" fill="#ffffff" fill-rule="evenodd" fill-opacity="1"/>
<polyline clip-path="url(#clip640)" style="stroke:#000000; stroke-linecap:round; stroke-linejoin:round; stroke-width:4; stroke-opacity:1; fill:none" points="1975.5,1377.32 2279.02,1377.32 2279.02,1273.64 1975.5,1273.64 1975.5,1377.32 "/>
<polyline clip-path="url(#clip640)" style="stroke:#009af9; stroke-linecap:round; stroke-linejoin:round; stroke-width:8; stroke-opacity:1; fill:none" points="2000.08,1325.48 2147.55,1325.48 "/>
<path clip-path="url(#clip640)" d="M2172.13 1308.2 L2178.42 1308.2 L2193.75 1337.11 L2193.75 1308.2 L2198.29 1308.2 L2198.29 1342.76 L2191.99 1342.76 L2176.66 1313.84 L2176.66 1342.76 L2172.13 1342.76 L2172.13 1308.2 Z" fill="#000000" fill-rule="nonzero" fill-opacity="1" /><path clip-path="url(#clip640)" d="M2217.64 1306.78 Q2214.53 1312.11 2213.03 1317.32 Q2211.53 1322.52 2211.53 1327.87 Q2211.53 1333.22 2213.03 1338.47 Q2214.56 1343.7 2217.64 1349.01 L2213.93 1349.01 Q2210.46 1343.57 2208.72 1338.31 Q2207.01 1333.06 2207.01 1327.87 Q2207.01 1322.71 2208.72 1317.48 Q2210.44 1312.25 2213.93 1306.78 L2217.64 1306.78 Z" fill="#000000" fill-rule="nonzero" fill-opacity="1" /><path clip-path="url(#clip640)" d="M2230.11 1309.47 L2230.11 1316.83 L2238.89 1316.83 L2238.89 1320.14 L2230.11 1320.14 L2230.11 1334.21 Q2230.11 1337.38 2230.97 1338.29 Q2231.85 1339.19 2234.51 1339.19 L2238.89 1339.19 L2238.89 1342.76 L2234.51 1342.76 Q2229.58 1342.76 2227.71 1340.93 Q2225.83 1339.07 2225.83 1334.21 L2225.83 1320.14 L2222.71 1320.14 L2222.71 1316.83 L2225.83 1316.83 L2225.83 1309.47 L2230.11 1309.47 Z" fill="#000000" fill-rule="nonzero" fill-opacity="1" /><path clip-path="url(#clip640)" d="M2243.82 1306.78 L2247.52 1306.78 Q2250.99 1312.25 2252.71 1317.48 Q2254.44 1322.71 2254.44 1327.87 Q2254.44 1333.06 2252.71 1338.31 Q2250.99 1343.57 2247.52 1349.01 L2243.82 1349.01 Q2246.9 1343.7 2248.4 1338.47 Q2249.93 1333.22 2249.93 1327.87 Q2249.93 1322.52 2248.4 1317.32 Q2246.9 1312.11 2243.82 1306.78 Z" fill="#000000" fill-rule="nonzero" fill-opacity="1" /></svg>
