<?xml version="1.0" encoding="utf-8"?>
<svg xmlns="http://www.w3.org/2000/svg" xmlns:xlink="http://www.w3.org/1999/xlink" width="600" height="400" viewBox="0 0 2400 1600">
<defs>
  <clipPath id="clip090">
    <rect x="0" y="0" width="2400" height="1600"/>
  </clipPath>
</defs>
<path clip-path="url(#clip090)" d="M0 1600 L2400 1600 L2400 0 L0 0  Z" fill="#ffffff" fill-rule="evenodd" fill-opacity="1"/>
<defs>
  <clipPath id="clip091">
    <rect x="480" y="0" width="1681" height="1600"/>
  </clipPath>
</defs>
<path clip-path="url(#clip090)" d="M184.191 1423.18 L2352.76 1423.18 L2352.76 47.2441 L184.191 47.2441  Z" fill="#ffffff" fill-rule="evenodd" fill-opacity="1"/>
<defs>
  <clipPath id="clip092">
    <rect x="184" y="47" width="2170" height="1377"/>
  </clipPath>
</defs>
<polyline clip-path="url(#clip092)" style="stroke:#000000; stroke-linecap:round; stroke-linejoin:round; stroke-width:2; stroke-opacity:0.1; fill:none" points="184.191,1423.18 184.191,47.2441 "/>
<polyline clip-path="url(#clip092)" style="stroke:#000000; stroke-linecap:round; stroke-linejoin:round; stroke-width:2; stroke-opacity:0.1; fill:none" points="617.904,1423.18 617.904,47.2441 "/>
<polyline clip-path="url(#clip092)" style="stroke:#000000; stroke-linecap:round; stroke-linejoin:round; stroke-width:2; stroke-opacity:0.1; fill:none" points="1051.62,1423.18 1051.62,47.2441 "/>
<polyline clip-path="url(#clip092)" style="stroke:#000000; stroke-linecap:round; stroke-linejoin:round; stroke-width:2; stroke-opacity:0.1; fill:none" points="1485.33,1423.18 1485.33,47.2441 "/>
<polyline clip-path="url(#clip092)" style="stroke:#000000; stroke-linecap:round; stroke-linejoin:round; stroke-width:2; stroke-opacity:0.1; fill:none" points="1919.04,1423.18 1919.04,47.2441 "/>
<polyline clip-path="url(#clip092)" style="stroke:#000000; stroke-linecap:round; stroke-linejoin:round; stroke-width:2; stroke-opacity:0.1; fill:none" points="2352.76,1423.18 2352.76,47.2441 "/>
<polyline clip-path="url(#clip092)" style="stroke:#000000; stroke-linecap:round; stroke-linejoin:round; stroke-width:2; stroke-opacity:0.1; fill:none" points="184.191,1384.24 2352.76,1384.24 "/>
<polyline clip-path="url(#clip092)" style="stroke:#000000; stroke-linecap:round; stroke-linejoin:round; stroke-width:2; stroke-opacity:0.1; fill:none" points="184.191,1089.23 2352.76,1089.23 "/>
<polyline clip-path="url(#clip092)" style="stroke:#000000; stroke-linecap:round; stroke-linejoin:round; stroke-width:2; stroke-opacity:0.1; fill:none" points="184.191,794.214 2352.76,794.214 "/>
<polyline clip-path="url(#clip092)" style="stroke:#000000; stroke-linecap:round; stroke-linejoin:round; stroke-width:2; stroke-opacity:0.1; fill:none" points="184.191,499.202 2352.76,499.202 "/>
<polyline clip-path="url(#clip092)" style="stroke:#000000; stroke-linecap:round; stroke-linejoin:round; stroke-width:2; stroke-opacity:0.1; fill:none" points="184.191,204.19 2352.76,204.19 "/>
<polyline clip-path="url(#clip090)" style="stroke:#000000; stroke-linecap:round; stroke-linejoin:round; stroke-width:4; stroke-opacity:1; fill:none" points="184.191,1423.18 2352.76,1423.18 "/>
<polyline clip-path="url(#clip090)" style="stroke:#000000; stroke-linecap:round; stroke-linejoin:round; stroke-width:4; stroke-opacity:1; fill:none" points="184.191,1423.18 184.191,1404.28 "/>
<polyline clip-path="url(#clip090)" style="stroke:#000000; stroke-linecap:round; stroke-linejoin:round; stroke-width:4; stroke-opacity:1; fill:none" points="617.904,1423.18 617.904,1404.28 "/>
<polyline clip-path="url(#clip090)" style="stroke:#000000; stroke-linecap:round; stroke-linejoin:round; stroke-width:4; stroke-opacity:1; fill:none" points="1051.62,1423.18 1051.62,1404.28 "/>
<polyline clip-path="url(#clip090)" style="stroke:#000000; stroke-linecap:round; stroke-linejoin:round; stroke-width:4; stroke-opacity:1; fill:none" points="1485.33,1423.18 1485.33,1404.28 "/>
<polyline clip-path="url(#clip090)" style="stroke:#000000; stroke-linecap:round; stroke-linejoin:round; stroke-width:4; stroke-opacity:1; fill:none" points="1919.04,1423.18 1919.04,1404.28 "/>
<polyline clip-path="url(#clip090)" style="stroke:#000000; stroke-linecap:round; stroke-linejoin:round; stroke-width:4; stroke-opacity:1; fill:none" points="2352.76,1423.18 2352.76,1404.28 "/>
<path clip-path="url(#clip090)" d="M184.191 1454.1 Q180.58 1454.1 178.751 1457.66 Q176.945 1461.2 176.945 1468.33 Q176.945 1475.44 178.751 1479.01 Q180.58 1482.55 184.191 1482.55 Q187.825 1482.55 189.63 1479.01 Q191.459 1475.44 191.459 1468.33 Q191.459 1461.2 189.63 1457.66 Q187.825 1454.1 184.191 1454.1 M184.191 1450.39 Q190.001 1450.39 193.056 1455 Q196.135 1459.58 196.135 1468.33 Q196.135 1477.06 193.056 1481.67 Q190.001 1486.25 184.191 1486.25 Q178.381 1486.25 175.302 1481.67 Q172.246 1477.06 172.246 1468.33 Q172.246 1459.58 175.302 1455 Q178.381 1450.39 184.191 1450.39 Z" fill="#000000" fill-rule="nonzero" fill-opacity="1" /><path clip-path="url(#clip090)" d="M612.557 1481.64 L628.876 1481.64 L628.876 1485.58 L606.932 1485.58 L606.932 1481.64 Q609.594 1478.89 614.177 1474.26 Q618.783 1469.61 619.964 1468.27 Q622.209 1465.74 623.089 1464.01 Q623.992 1462.25 623.992 1460.56 Q623.992 1457.8 622.047 1456.07 Q620.126 1454.33 617.024 1454.33 Q614.825 1454.33 612.371 1455.09 Q609.941 1455.86 607.163 1457.41 L607.163 1452.69 Q609.987 1451.55 612.441 1450.97 Q614.894 1450.39 616.932 1450.39 Q622.302 1450.39 625.496 1453.08 Q628.691 1455.77 628.691 1460.26 Q628.691 1462.39 627.881 1464.31 Q627.093 1466.2 624.987 1468.8 Q624.408 1469.47 621.306 1472.69 Q618.205 1475.88 612.557 1481.64 Z" fill="#000000" fill-rule="nonzero" fill-opacity="1" /><path clip-path="url(#clip090)" d="M1054.63 1455.09 L1042.82 1473.54 L1054.63 1473.54 L1054.63 1455.09 M1053.4 1451.02 L1059.28 1451.02 L1059.28 1473.54 L1064.21 1473.54 L1064.21 1477.43 L1059.28 1477.43 L1059.28 1485.58 L1054.63 1485.58 L1054.63 1477.43 L1039.02 1477.43 L1039.02 1472.92 L1053.4 1451.02 Z" fill="#000000" fill-rule="nonzero" fill-opacity="1" /><path clip-path="url(#clip090)" d="M1485.73 1466.44 Q1482.59 1466.44 1480.73 1468.59 Q1478.91 1470.74 1478.91 1474.49 Q1478.91 1478.22 1480.73 1480.39 Q1482.59 1482.55 1485.73 1482.55 Q1488.88 1482.55 1490.71 1480.39 Q1492.56 1478.22 1492.56 1474.49 Q1492.56 1470.74 1490.71 1468.59 Q1488.88 1466.44 1485.73 1466.44 M1495.02 1451.78 L1495.02 1456.04 Q1493.26 1455.21 1491.45 1454.77 Q1489.67 1454.33 1487.91 1454.33 Q1483.28 1454.33 1480.83 1457.45 Q1478.4 1460.58 1478.05 1466.9 Q1479.42 1464.89 1481.48 1463.82 Q1483.54 1462.73 1486.01 1462.73 Q1491.22 1462.73 1494.23 1465.9 Q1497.26 1469.05 1497.26 1474.49 Q1497.26 1479.82 1494.11 1483.03 Q1490.97 1486.25 1485.73 1486.25 Q1479.74 1486.25 1476.57 1481.67 Q1473.4 1477.06 1473.4 1468.33 Q1473.4 1460.14 1477.29 1455.28 Q1481.17 1450.39 1487.73 1450.39 Q1489.48 1450.39 1491.27 1450.74 Q1493.07 1451.09 1495.02 1451.78 Z" fill="#000000" fill-rule="nonzero" fill-opacity="1" /><path clip-path="url(#clip090)" d="M1919.04 1469.17 Q1915.71 1469.17 1913.79 1470.95 Q1911.89 1472.73 1911.89 1475.86 Q1911.89 1478.98 1913.79 1480.77 Q1915.71 1482.55 1919.04 1482.55 Q1922.38 1482.55 1924.3 1480.77 Q1926.22 1478.96 1926.22 1475.86 Q1926.22 1472.73 1924.3 1470.95 Q1922.4 1469.17 1919.04 1469.17 M1914.37 1467.18 Q1911.36 1466.44 1909.67 1464.38 Q1908 1462.32 1908 1459.35 Q1908 1455.21 1910.94 1452.8 Q1913.9 1450.39 1919.04 1450.39 Q1924.2 1450.39 1927.14 1452.8 Q1930.08 1455.21 1930.08 1459.35 Q1930.08 1462.32 1928.39 1464.38 Q1926.73 1466.44 1923.74 1467.18 Q1927.12 1467.96 1929 1470.26 Q1930.89 1472.55 1930.89 1475.86 Q1930.89 1480.88 1927.82 1483.57 Q1924.76 1486.25 1919.04 1486.25 Q1913.33 1486.25 1910.25 1483.57 Q1907.19 1480.88 1907.19 1475.86 Q1907.19 1472.55 1909.09 1470.26 Q1910.99 1467.96 1914.37 1467.18 M1912.65 1459.79 Q1912.65 1462.48 1914.32 1463.98 Q1916.01 1465.49 1919.04 1465.49 Q1922.05 1465.49 1923.74 1463.98 Q1925.45 1462.48 1925.45 1459.79 Q1925.45 1457.11 1923.74 1455.6 Q1922.05 1454.1 1919.04 1454.1 Q1916.01 1454.1 1914.32 1455.6 Q1912.65 1457.11 1912.65 1459.79 Z" fill="#000000" fill-rule="nonzero" fill-opacity="1" /><path clip-path="url(#clip090)" d="M2327.44 1481.64 L2335.08 1481.64 L2335.08 1455.28 L2326.77 1456.95 L2326.77 1452.69 L2335.04 1451.02 L2339.71 1451.02 L2339.71 1481.64 L2347.35 1481.64 L2347.35 1485.58 L2327.44 1485.58 L2327.44 1481.64 Z" fill="#000000" fill-rule="nonzero" fill-opacity="1" /><path clip-path="url(#clip090)" d="M2366.8 1454.1 Q2363.18 1454.1 2361.36 1457.66 Q2359.55 1461.2 2359.55 1468.33 Q2359.55 1475.44 2361.36 1479.01 Q2363.18 1482.55 2366.8 1482.55 Q2370.43 1482.55 2372.23 1479.01 Q2374.06 1475.44 2374.06 1468.33 Q2374.06 1461.2 2372.23 1457.66 Q2370.43 1454.1 2366.8 1454.1 M2366.8 1450.39 Q2372.61 1450.39 2375.66 1455 Q2378.74 1459.58 2378.74 1468.33 Q2378.74 1477.06 2375.66 1481.67 Q2372.61 1486.25 2366.8 1486.25 Q2360.99 1486.25 2357.91 1481.67 Q2354.85 1477.06 2354.85 1468.33 Q2354.85 1459.58 2357.91 1455 Q2360.99 1450.39 2366.8 1450.39 Z" fill="#000000" fill-rule="nonzero" fill-opacity="1" /><path clip-path="url(#clip090)" d="M1267.53 1522.27 L1267.53 1532.4 L1279.6 1532.4 L1279.6 1536.95 L1267.53 1536.95 L1267.53 1556.3 Q1267.53 1560.66 1268.71 1561.9 Q1269.92 1563.14 1273.58 1563.14 L1279.6 1563.14 L1279.6 1568.04 L1273.58 1568.04 Q1266.8 1568.04 1264.22 1565.53 Q1261.65 1562.98 1261.65 1556.3 L1261.65 1536.95 L1257.35 1536.95 L1257.35 1532.4 L1261.65 1532.4 L1261.65 1522.27 L1267.53 1522.27 Z" fill="#000000" fill-rule="nonzero" fill-opacity="1" /><polyline clip-path="url(#clip090)" style="stroke:#000000; stroke-linecap:round; stroke-linejoin:round; stroke-width:4; stroke-opacity:1; fill:none" points="184.191,1423.18 184.191,47.2441 "/>
<polyline clip-path="url(#clip090)" style="stroke:#000000; stroke-linecap:round; stroke-linejoin:round; stroke-width:4; stroke-opacity:1; fill:none" points="184.191,1384.24 203.088,1384.24 "/>
<polyline clip-path="url(#clip090)" style="stroke:#000000; stroke-linecap:round; stroke-linejoin:round; stroke-width:4; stroke-opacity:1; fill:none" points="184.191,1089.23 203.088,1089.23 "/>
<polyline clip-path="url(#clip090)" style="stroke:#000000; stroke-linecap:round; stroke-linejoin:round; stroke-width:4; stroke-opacity:1; fill:none" points="184.191,794.214 203.088,794.214 "/>
<polyline clip-path="url(#clip090)" style="stroke:#000000; stroke-linecap:round; stroke-linejoin:round; stroke-width:4; stroke-opacity:1; fill:none" points="184.191,499.202 203.088,499.202 "/>
<polyline clip-path="url(#clip090)" style="stroke:#000000; stroke-linecap:round; stroke-linejoin:round; stroke-width:4; stroke-opacity:1; fill:none" points="184.191,204.19 203.088,204.19 "/>
<path clip-path="url(#clip090)" d="M91.0151 1370.04 Q87.404 1370.04 85.5753 1373.6 Q83.7697 1377.14 83.7697 1384.27 Q83.7697 1391.38 85.5753 1394.94 Q87.404 1398.49 91.0151 1398.49 Q94.6493 1398.49 96.4548 1394.94 Q98.2835 1391.38 98.2835 1384.27 Q98.2835 1377.14 96.4548 1373.6 Q94.6493 1370.04 91.0151 1370.04 M91.0151 1366.33 Q96.8252 1366.33 99.8808 1370.94 Q102.959 1375.52 102.959 1384.27 Q102.959 1393 99.8808 1397.61 Q96.8252 1402.19 91.0151 1402.19 Q85.2049 1402.19 82.1262 1397.61 Q79.0707 1393 79.0707 1384.27 Q79.0707 1375.52 82.1262 1370.94 Q85.2049 1366.33 91.0151 1366.33 Z" fill="#000000" fill-rule="nonzero" fill-opacity="1" /><path clip-path="url(#clip090)" d="M111.177 1395.64 L116.061 1395.64 L116.061 1401.52 L111.177 1401.52 L111.177 1395.64 Z" fill="#000000" fill-rule="nonzero" fill-opacity="1" /><path clip-path="url(#clip090)" d="M136.246 1370.04 Q132.635 1370.04 130.807 1373.6 Q129.001 1377.14 129.001 1384.27 Q129.001 1391.38 130.807 1394.94 Q132.635 1398.49 136.246 1398.49 Q139.881 1398.49 141.686 1394.94 Q143.515 1391.38 143.515 1384.27 Q143.515 1377.14 141.686 1373.6 Q139.881 1370.04 136.246 1370.04 M136.246 1366.33 Q142.056 1366.33 145.112 1370.94 Q148.191 1375.52 148.191 1384.27 Q148.191 1393 145.112 1397.61 Q142.056 1402.19 136.246 1402.19 Q130.436 1402.19 127.357 1397.61 Q124.302 1393 124.302 1384.27 Q124.302 1375.52 127.357 1370.94 Q130.436 1366.33 136.246 1366.33 Z" fill="#000000" fill-rule="nonzero" fill-opacity="1" /><path clip-path="url(#clip090)" d="M86.0382 1102.57 L102.358 1102.57 L102.358 1106.51 L80.4133 1106.51 L80.4133 1102.57 Q83.0753 1099.82 87.6586 1095.19 Q92.2651 1090.53 93.4456 1089.19 Q95.691 1086.67 96.5706 1084.93 Q97.4734 1083.17 97.4734 1081.48 Q97.4734 1078.73 95.5289 1076.99 Q93.6076 1075.26 90.5058 1075.26 Q88.3067 1075.26 85.8531 1076.02 Q83.4225 1076.78 80.6447 1078.34 L80.6447 1073.61 Q83.4688 1072.48 85.9225 1071.9 Q88.3762 1071.32 90.4132 1071.32 Q95.7836 1071.32 98.978 1074.01 Q102.172 1076.69 102.172 1081.18 Q102.172 1083.31 101.362 1085.23 Q100.575 1087.13 98.4687 1089.72 Q97.89 1090.4 94.7882 1093.61 Q91.6864 1096.81 86.0382 1102.57 Z" fill="#000000" fill-rule="nonzero" fill-opacity="1" /><path clip-path="url(#clip090)" d="M112.172 1100.63 L117.057 1100.63 L117.057 1106.51 L112.172 1106.51 L112.172 1100.63 Z" fill="#000000" fill-rule="nonzero" fill-opacity="1" /><path clip-path="url(#clip090)" d="M127.288 1071.95 L145.644 1071.95 L145.644 1075.88 L131.57 1075.88 L131.57 1084.35 Q132.589 1084.01 133.607 1083.84 Q134.626 1083.66 135.644 1083.66 Q141.431 1083.66 144.811 1086.83 Q148.191 1090 148.191 1095.42 Q148.191 1101 144.718 1104.1 Q141.246 1107.18 134.927 1107.18 Q132.751 1107.18 130.482 1106.81 Q128.237 1106.44 125.83 1105.7 L125.83 1101 Q127.913 1102.13 130.135 1102.69 Q132.357 1103.24 134.834 1103.24 Q138.839 1103.24 141.177 1101.14 Q143.515 1099.03 143.515 1095.42 Q143.515 1091.81 141.177 1089.7 Q138.839 1087.59 134.834 1087.59 Q132.959 1087.59 131.084 1088.01 Q129.232 1088.43 127.288 1089.31 L127.288 1071.95 Z" fill="#000000" fill-rule="nonzero" fill-opacity="1" /><path clip-path="url(#clip090)" d="M81.0614 776.934 L99.4178 776.934 L99.4178 780.87 L85.3438 780.87 L85.3438 789.342 Q86.3623 788.994 87.3808 788.832 Q88.3993 788.647 89.4178 788.647 Q95.2049 788.647 98.5845 791.819 Q101.964 794.99 101.964 800.406 Q101.964 805.985 98.4919 809.087 Q95.0197 812.166 88.7003 812.166 Q86.5243 812.166 84.2558 811.795 Q82.0105 811.425 79.6031 810.684 L79.6031 805.985 Q81.6864 807.119 83.9086 807.675 Q86.1308 808.23 88.6077 808.23 Q92.6123 808.23 94.9502 806.124 Q97.2882 804.018 97.2882 800.406 Q97.2882 796.795 94.9502 794.689 Q92.6123 792.582 88.6077 792.582 Q86.7327 792.582 84.8577 792.999 Q83.0058 793.416 81.0614 794.295 L81.0614 776.934 Z" fill="#000000" fill-rule="nonzero" fill-opacity="1" /><path clip-path="url(#clip090)" d="M111.177 805.615 L116.061 805.615 L116.061 811.494 L111.177 811.494 L111.177 805.615 Z" fill="#000000" fill-rule="nonzero" fill-opacity="1" /><path clip-path="url(#clip090)" d="M136.246 780.013 Q132.635 780.013 130.807 783.578 Q129.001 787.119 129.001 794.249 Q129.001 801.356 130.807 804.92 Q132.635 808.462 136.246 808.462 Q139.881 808.462 141.686 804.92 Q143.515 801.356 143.515 794.249 Q143.515 787.119 141.686 783.578 Q139.881 780.013 136.246 780.013 M136.246 776.309 Q142.056 776.309 145.112 780.916 Q148.191 785.499 148.191 794.249 Q148.191 802.976 145.112 807.582 Q142.056 812.166 136.246 812.166 Q130.436 812.166 127.357 807.582 Q124.302 802.976 124.302 794.249 Q124.302 785.499 127.357 780.916 Q130.436 776.309 136.246 776.309 Z" fill="#000000" fill-rule="nonzero" fill-opacity="1" /><path clip-path="url(#clip090)" d="M80.8299 481.922 L103.052 481.922 L103.052 483.913 L90.5058 516.482 L85.6216 516.482 L97.4271 485.858 L80.8299 485.858 L80.8299 481.922 Z" fill="#000000" fill-rule="nonzero" fill-opacity="1" /><path clip-path="url(#clip090)" d="M112.172 510.603 L117.057 510.603 L117.057 516.482 L112.172 516.482 L112.172 510.603 Z" fill="#000000" fill-rule="nonzero" fill-opacity="1" /><path clip-path="url(#clip090)" d="M127.288 481.922 L145.644 481.922 L145.644 485.858 L131.57 485.858 L131.57 494.33 Q132.589 493.983 133.607 493.82 Q134.626 493.635 135.644 493.635 Q141.431 493.635 144.811 496.807 Q148.191 499.978 148.191 505.395 Q148.191 510.973 144.718 514.075 Q141.246 517.154 134.927 517.154 Q132.751 517.154 130.482 516.783 Q128.237 516.413 125.83 515.672 L125.83 510.973 Q127.913 512.107 130.135 512.663 Q132.357 513.219 134.834 513.219 Q138.839 513.219 141.177 511.112 Q143.515 509.006 143.515 505.395 Q143.515 501.783 141.177 499.677 Q138.839 497.57 134.834 497.57 Q132.959 497.57 131.084 497.987 Q129.232 498.404 127.288 499.283 L127.288 481.922 Z" fill="#000000" fill-rule="nonzero" fill-opacity="1" /><path clip-path="url(#clip090)" d="M51.6634 217.535 L59.3023 217.535 L59.3023 191.17 L50.9921 192.836 L50.9921 188.577 L59.256 186.91 L63.9319 186.91 L63.9319 217.535 L71.5707 217.535 L71.5707 221.47 L51.6634 221.47 L51.6634 217.535 Z" fill="#000000" fill-rule="nonzero" fill-opacity="1" /><path clip-path="url(#clip090)" d="M91.0151 189.989 Q87.404 189.989 85.5753 193.554 Q83.7697 197.096 83.7697 204.225 Q83.7697 211.332 85.5753 214.896 Q87.404 218.438 91.0151 218.438 Q94.6493 218.438 96.4548 214.896 Q98.2835 211.332 98.2835 204.225 Q98.2835 197.096 96.4548 193.554 Q94.6493 189.989 91.0151 189.989 M91.0151 186.285 Q96.8252 186.285 99.8808 190.892 Q102.959 195.475 102.959 204.225 Q102.959 212.952 99.8808 217.558 Q96.8252 222.142 91.0151 222.142 Q85.2049 222.142 82.1262 217.558 Q79.0707 212.952 79.0707 204.225 Q79.0707 195.475 82.1262 190.892 Q85.2049 186.285 91.0151 186.285 Z" fill="#000000" fill-rule="nonzero" fill-opacity="1" /><path clip-path="url(#clip090)" d="M111.177 215.591 L116.061 215.591 L116.061 221.47 L111.177 221.47 L111.177 215.591 Z" fill="#000000" fill-rule="nonzero" fill-opacity="1" /><path clip-path="url(#clip090)" d="M136.246 189.989 Q132.635 189.989 130.807 193.554 Q129.001 197.096 129.001 204.225 Q129.001 211.332 130.807 214.896 Q132.635 218.438 136.246 218.438 Q139.881 218.438 141.686 214.896 Q143.515 211.332 143.515 204.225 Q143.515 197.096 141.686 193.554 Q139.881 189.989 136.246 189.989 M136.246 186.285 Q142.056 186.285 145.112 190.892 Q148.191 195.475 148.191 204.225 Q148.191 212.952 145.112 217.558 Q142.056 222.142 136.246 222.142 Q130.436 222.142 127.357 217.558 Q124.302 212.952 124.302 204.225 Q124.302 195.475 127.357 190.892 Q130.436 186.285 136.246 186.285 Z" fill="#000000" fill-rule="nonzero" fill-opacity="1" /><polyline clip-path="url(#clip092)" style="stroke:#009af9; stroke-linecap:round; stroke-linejoin:round; stroke-width:8; stroke-opacity:1; fill:none" points="184.191,1384.24 186.361,1384.24 188.532,1384.24 190.703,1384.24 192.874,1384.24 195.044,1384.24 197.215,1384.24 199.386,1384.24 201.557,1384.24 203.727,1384.24 205.898,1384.24 208.069,1384.24 210.24,1384.24 212.41,1384.24 214.581,1384.24 216.752,1384.24 218.922,1384.24 221.093,1384.24 223.264,1384.24 225.435,1384.24 227.605,1384.24 229.776,1384.24 231.947,1384.24 234.118,1384.24 236.288,1384.24 238.459,1384.24 240.63,1384.24 242.801,1384.24 244.971,1384.24 247.142,1384.24 249.313,1384.24 251.483,1384.24 253.654,1384.24 255.825,1384.24 257.996,1384.24 260.166,1384.24 262.337,1384.24 264.508,1384.24 266.679,1384.24 268.849,1384.24 271.02,1384.24 273.191,1384.24 275.362,1384.24 277.532,1384.24 279.703,1384.24 281.874,1384.24 284.045,1384.24 286.215,1384.24 288.386,1384.24 290.557,1384.24 292.727,1384.24 294.898,1384.24 297.069,1384.24 299.24,1384.24 301.41,1384.24 303.581,1384.24 305.752,1384.24 307.923,1384.24 310.093,1384.24 312.264,1384.24 314.435,1384.24 316.606,1384.24 318.776,1384.24 320.947,1384.24 323.118,1384.24 325.289,1384.24 327.459,1384.24 329.63,1384.24 331.801,1384.24 333.971,1384.24 336.142,1384.24 338.313,1384.24 340.484,1384.24 342.654,1384.24 344.825,1384.24 346.996,1384.24 349.167,1384.24 351.337,1384.24 353.508,1384.24 355.679,1384.24 357.85,1384.24 360.02,1384.24 362.191,1384.24 364.362,1384.24 366.533,1384.24 368.703,1384.24 370.874,1384.24 373.045,1384.24 375.215,1384.24 377.386,1384.24 379.557,1384.24 381.728,1384.24 383.898,1384.24 386.069,1384.24 388.24,1384.24 390.411,1384.24 392.581,1384.24 394.752,1384.24 396.923,1384.24 399.094,1384.24 401.264,1384.24 403.435,1266.23 405.606,1266.23 407.776,1266.23 409.947,1266.23 412.118,1148.23 414.289,1148.23 416.459,1148.23 418.63,1148.23 420.801,1148.23 422.972,1148.23 425.142,1148.23 427.313,1148.23 429.484,1148.23 431.655,1148.23 433.825,1148.23 435.996,1148.23 438.167,1148.23 440.338,1148.23 442.508,1148.23 444.679,1148.23 446.85,1148.23 449.02,1148.23 451.191,1148.23 453.362,1148.23 455.533,1148.23 457.703,1148.23 459.874,1148.23 462.045,1148.23 464.216,1148.23 466.386,1148.23 468.557,1148.23 470.728,1148.23 472.899,1148.23 475.069,1148.23 477.24,1148.23 479.411,1148.23 481.582,1148.23 483.752,1148.23 485.923,1148.23 488.094,1148.23 490.264,1148.23 492.435,1148.23 494.606,1148.23 496.777,1148.23 498.947,1148.23 501.118,1148.23 503.289,1148.23 505.46,1148.23 507.63,1148.23 509.801,1148.23 511.972,1148.23 514.143,1148.23 516.313,1148.23 518.484,1148.23 520.655,1148.23 522.825,1148.23 524.996,1148.23 527.167,1148.23 529.338,1148.23 531.508,1148.23 533.679,1148.23 535.85,1148.23 538.021,1148.23 540.191,1148.23 542.362,1148.23 544.533,1148.23 546.704,1148.23 548.874,1148.23 551.045,1148.23 553.216,1148.23 555.387,1148.23 557.557,1148.23 559.728,1148.23 561.899,1148.23 564.069,1148.23 566.24,1148.23 568.411,1148.23 570.582,1148.23 572.752,1148.23 574.923,1148.23 577.094,1148.23 579.265,1148.23 581.435,1148.23 583.606,1148.23 585.777,1148.23 587.948,1148.23 590.118,1266.23 592.289,1266.23 594.46,1266.23 596.631,1266.23 598.801,1266.23 600.972,1384.24 603.143,1384.24 605.313,1384.24 607.484,1384.24 609.655,1384.24 611.826,1384.24 613.996,1384.24 616.167,1384.24 618.338,1384.24 620.509,1384.24 622.679,1384.24 624.85,1384.24 627.021,1384.24 629.192,1384.24 631.362,1384.24 633.533,1384.24 635.704,1384.24 637.874,1384.24 640.045,1384.24 642.216,1384.24 644.387,1384.24 646.557,1384.24 648.728,1384.24 650.899,1384.24 653.07,1384.24 655.24,1384.24 657.411,1384.24 659.582,1266.23 661.753,1266.23 663.923,1266.23 666.094,1266.23 668.265,1266.23 670.436,1266.23 672.606,1266.23 674.777,1266.23 676.948,1266.23 679.118,1266.23 681.289,1266.23 683.46,1266.23 685.631,1266.23 687.801,1266.23 689.972,1266.23 692.143,1266.23 694.314,1266.23 696.484,1266.23 698.655,1266.23 700.826,1266.23 702.997,1266.23 705.167,1266.23 707.338,1266.23 709.509,1266.23 711.68,1266.23 713.85,1266.23 716.021,1266.23 718.192,1266.23 720.362,1266.23 722.533,1266.23 724.704,1266.23 726.875,1266.23 729.045,1266.23 731.216,1266.23 733.387,1266.23 735.558,1266.23 737.728,1266.23 739.899,1266.23 742.07,1266.23 744.241,1266.23 746.411,1148.23 748.582,1148.23 750.753,1148.23 752.924,1148.23 755.094,1148.23 757.265,1148.23 759.436,1148.23 761.606,1148.23 763.777,1148.23 765.948,1148.23 768.119,1148.23 770.289,1148.23 772.46,1148.23 774.631,1148.23 776.802,1148.23 778.972,1148.23 781.143,1148.23 783.314,1148.23 785.485,1148.23 787.655,1148.23 789.826,1148.23 791.997,1148.23 794.167,1148.23 796.338,1148.23 798.509,1148.23 800.68,1148.23 802.85,1148.23 805.021,1148.23 807.192,1148.23 809.363,1148.23 811.533,1148.23 813.704,1148.23 815.875,1148.23 818.046,1148.23 820.216,1148.23 822.387,1148.23 824.558,1148.23 826.729,1148.23 828.899,1148.23 831.07,1148.23 833.241,1148.23 835.411,1148.23 837.582,1148.23 839.753,1148.23 841.924,1148.23 844.094,1148.23 846.265,1266.23 848.436,1266.23 850.607,1266.23 852.777,1266.23 854.948,1266.23 857.119,1266.23 859.29,1266.23 861.46,1266.23 863.631,1266.23 865.802,1266.23 867.973,1266.23 870.143,1266.23 872.314,1266.23 874.485,1266.23 876.655,1266.23 878.826,1266.23 880.997,1266.23 883.168,1266.23 885.338,1266.23 887.509,1266.23 889.68,1266.23 891.851,1266.23 894.021,1266.23 896.192,1266.23 898.363,1266.23 900.534,1266.23 902.704,1266.23 904.875,1266.23 907.046,1266.23 909.216,1266.23 911.387,1266.23 913.558,1266.23 915.729,1266.23 917.899,1266.23 920.07,1266.23 922.241,1266.23 924.412,1266.23 926.582,1266.23 928.753,1266.23 930.924,1266.23 933.095,1266.23 935.265,1266.23 937.436,1266.23 939.607,1266.23 941.778,1266.23 943.948,1266.23 946.119,1266.23 948.29,1266.23 950.46,1266.23 952.631,1266.23 954.802,1266.23 956.973,1266.23 959.143,1266.23 961.314,1266.23 963.485,1266.23 965.656,1266.23 967.826,1266.23 969.997,1266.23 972.168,1266.23 974.339,1266.23 976.509,1266.23 978.68,1266.23 980.851,1266.23 983.022,1266.23 985.192,1266.23 987.363,1266.23 989.534,1266.23 991.704,1266.23 993.875,1266.23 996.046,1266.23 998.217,1266.23 1000.39,1266.23 1002.56,1266.23 1004.73,1266.23 1006.9,1266.23 1009.07,1266.23 1011.24,1266.23 1013.41,1266.23 1015.58,1266.23 1017.75,1266.23 1019.92,1266.23 1022.09,1266.23 1024.27,1266.23 1026.44,1266.23 1028.61,1266.23 1030.78,1266.23 1032.95,1266.23 1035.12,1266.23 1037.29,1266.23 1039.46,1266.23 1041.63,1266.23 1043.8,1266.23 1045.97,1266.23 1048.14,1266.23 1050.31,1266.23 1052.49,1266.23 1054.66,1266.23 1056.83,1266.23 1059,1266.23 1061.17,1266.23 1063.34,1266.23 1065.51,1266.23 1067.68,1266.23 1069.85,1266.23 1072.02,1266.23 1074.19,1266.23 1076.36,1266.23 1078.53,1266.23 1080.7,1266.23 1082.88,1266.23 1085.05,1266.23 1087.22,1266.23 1089.39,1266.23 1091.56,1266.23 1093.73,1266.23 1095.9,1266.23 1098.07,1266.23 1100.24,1266.23 1102.41,1266.23 1104.58,1266.23 1106.75,1266.23 1108.92,1266.23 1111.09,1266.23 1113.27,1266.23 1115.44,1266.23 1117.61,1266.23 1119.78,1266.23 1121.95,1266.23 1124.12,1266.23 1126.29,1266.23 1128.46,1266.23 1130.63,1266.23 1132.8,1266.23 1134.97,1266.23 1137.14,1266.23 1139.31,1266.23 1141.49,1266.23 1143.66,1266.23 1145.83,1266.23 1148,1266.23 1150.17,1266.23 1152.34,1266.23 1154.51,1266.23 1156.68,1148.23 1158.85,1148.23 1161.02,1148.23 1163.19,1148.23 1165.36,1148.23 1167.53,1030.22 1169.7,1030.22 1171.88,1030.22 1174.05,1030.22 1176.22,1030.22 1178.39,1030.22 1180.56,1030.22 1182.73,1148.23 1184.9,1030.22 1187.07,1030.22 1189.24,1030.22 1191.41,1030.22 1193.58,1030.22 1195.75,1030.22 1197.92,1030.22 1200.1,1030.22 1202.27,1030.22 1204.44,1030.22 1206.61,1030.22 1208.78,1030.22 1210.95,1148.23 1213.12,1148.23 1215.29,1148.23 1217.46,1148.23 1219.63,1148.23 1221.8,1148.23 1223.97,1148.23 1226.14,1266.23 1228.31,1266.23 1230.49,1266.23 1232.66,1266.23 1234.83,1266.23 1237,1266.23 1239.17,1266.23 1241.34,1266.23 1243.51,1266.23 1245.68,1266.23 1247.85,1266.23 1250.02,1148.23 1252.19,1148.23 1254.36,1148.23 1256.53,1148.23 1258.7,1148.23 1260.88,1148.23 1263.05,1266.23 1265.22,1266.23 1267.39,1266.23 1269.56,1266.23 1271.73,1266.23 1273.9,1266.23 1276.07,1266.23 1278.24,1266.23 1280.41,1266.23 1282.58,1384.24 1284.75,1384.24 1286.92,1384.24 1289.1,1384.24 1291.27,1384.24 1293.44,1384.24 1295.61,1384.24 1297.78,1384.24 1299.95,1384.24 1302.12,1384.24 1304.29,1384.24 1306.46,1384.24 1308.63,1384.24 1310.8,1384.24 1312.97,1384.24 1315.14,1384.24 1317.31,1384.24 1319.49,1384.24 1321.66,1384.24 1323.83,1384.24 1326,1384.24 1328.17,1384.24 1330.34,1384.24 1332.51,1384.24 1334.68,1384.24 1336.85,1384.24 1339.02,1384.24 1341.19,1384.24 1343.36,1384.24 1345.53,1384.24 1347.71,1384.24 1349.88,1384.24 1352.05,1384.24 1354.22,1384.24 1356.39,1384.24 1358.56,1384.24 1360.73,1384.24 1362.9,1384.24 1365.07,1384.24 1367.24,1384.24 1369.41,1384.24 1371.58,1384.24 1373.75,1384.24 1375.92,1384.24 1378.1,1384.24 1380.27,1384.24 1382.44,1384.24 1384.61,1384.24 1386.78,1384.24 1388.95,1384.24 1391.12,1384.24 1393.29,1384.24 1395.46,1384.24 1397.63,1384.24 1399.8,1384.24 1401.97,1384.24 1404.14,1384.24 1406.32,1384.24 1408.49,1384.24 1410.66,1384.24 1412.83,1384.24 1415,1384.24 1417.17,1384.24 1419.34,1384.24 1421.51,1384.24 1423.68,1384.24 1425.85,1384.24 1428.02,1384.24 1430.19,1384.24 1432.36,1384.24 1434.53,1384.24 1436.71,1384.24 1438.88,1384.24 1441.05,1384.24 1443.22,1384.24 1445.39,1384.24 1447.56,1384.24 1449.73,1384.24 1451.9,1384.24 1454.07,1384.24 1456.24,1384.24 1458.41,1384.24 1460.58,1384.24 1462.75,1384.24 1464.92,1384.24 1467.1,1384.24 1469.27,1384.24 1471.44,1384.24 1473.61,1384.24 1475.78,1384.24 1477.95,1384.24 1480.12,1384.24 1482.29,1384.24 1484.46,1384.24 1486.63,1384.24 1488.8,1384.24 1490.97,1384.24 1493.14,1384.24 1495.32,1384.24 1497.49,1384.24 1499.66,1384.24 1501.83,1384.24 1504,1384.24 1506.17,1384.24 1508.34,1384.24 1510.51,1384.24 1512.68,1384.24 1514.85,1384.24 1517.02,1384.24 1519.19,1384.24 1521.36,1384.24 1523.53,1384.24 1525.71,1384.24 1527.88,1384.24 1530.05,1384.24 1532.22,1384.24 1534.39,1384.24 1536.56,1384.24 1538.73,1384.24 1540.9,1384.24 1543.07,1384.24 1545.24,1384.24 1547.41,1384.24 1549.58,1384.24 1551.75,1384.24 1553.93,1384.24 1556.1,1384.24 1558.27,1384.24 1560.44,1384.24 1562.61,1384.24 1564.78,1384.24 1566.95,1384.24 1569.12,1384.24 1571.29,1384.24 1573.46,1384.24 1575.63,1384.24 1577.8,1384.24 1579.97,1384.24 1582.14,1384.24 1584.32,1384.24 1586.49,1384.24 1588.66,1384.24 1590.83,1384.24 1593,1384.24 1595.17,1384.24 1597.34,1384.24 1599.51,1384.24 1601.68,1384.24 1603.85,1384.24 1606.02,1384.24 1608.19,1384.24 1610.36,1384.24 1612.53,1384.24 1614.71,1384.24 1616.88,1384.24 1619.05,1384.24 1621.22,1384.24 1623.39,1384.24 1625.56,1384.24 1627.73,1384.24 1629.9,1384.24 1632.07,1384.24 1634.24,1384.24 1636.41,1384.24 1638.58,1384.24 1640.75,1384.24 1642.93,1384.24 1645.1,1384.24 1647.27,1384.24 1649.44,1384.24 1651.61,1384.24 1653.78,1384.24 1655.95,1384.24 1658.12,1384.24 1660.29,1384.24 1662.46,1384.24 1664.63,1384.24 1666.8,1384.24 1668.97,1384.24 1671.14,1384.24 1673.32,1384.24 1675.49,1384.24 1677.66,1384.24 1679.83,1384.24 1682,1384.24 1684.17,1384.24 1686.34,1384.24 1688.51,1384.24 1690.68,1384.24 1692.85,1384.24 1695.02,1384.24 1697.19,1384.24 1699.36,1384.24 1701.54,1384.24 1703.71,1384.24 1705.88,1384.24 1708.05,1384.24 1710.22,1384.24 1712.39,1384.24 1714.56,1384.24 1716.73,1384.24 1718.9,1384.24 1721.07,1384.24 1723.24,1384.24 1725.41,1384.24 1727.58,1384.24 1729.75,1384.24 1731.93,1384.24 1734.1,1384.24 1736.27,1384.24 1738.44,1384.24 1740.61,1384.24 1742.78,1384.24 1744.95,1384.24 1747.12,1384.24 1749.29,1384.24 1751.46,1384.24 1753.63,1384.24 1755.8,1384.24 1757.97,1384.24 1760.14,1384.24 1762.32,1384.24 1764.49,1384.24 1766.66,1384.24 1768.83,1384.24 1771,1384.24 1773.17,1384.24 1775.34,1384.24 1777.51,1384.24 1779.68,1384.24 1781.85,1384.24 1784.02,1384.24 1786.19,1384.24 1788.36,1384.24 1790.54,1384.24 1792.71,1384.24 1794.88,1384.24 1797.05,1384.24 1799.22,1384.24 1801.39,1384.24 1803.56,1384.24 1805.73,1384.24 1807.9,1384.24 1810.07,1384.24 1812.24,1384.24 1814.41,1384.24 1816.58,1384.24 1818.75,1384.24 1820.93,1384.24 1823.1,1384.24 1825.27,1384.24 1827.44,1384.24 1829.61,1384.24 1831.78,1384.24 1833.95,1384.24 1836.12,1384.24 1838.29,1384.24 1840.46,1384.24 1842.63,1384.24 1844.8,1384.24 1846.97,1384.24 1849.15,1384.24 1851.32,1384.24 1853.49,1384.24 1855.66,1384.24 1857.83,1384.24 1860,1384.24 1862.17,1384.24 1864.34,1384.24 1866.51,1384.24 1868.68,1384.24 1870.85,1384.24 1873.02,1384.24 1875.19,1384.24 1877.36,1384.24 1879.54,1384.24 1881.71,1384.24 1883.88,1384.24 1886.05,1384.24 1888.22,1384.24 1890.39,1384.24 1892.56,1384.24 1894.73,1384.24 1896.9,1384.24 1899.07,1384.24 1901.24,1384.24 1903.41,1384.24 1905.58,1384.24 1907.76,1384.24 1909.93,1384.24 1912.1,1384.24 1914.27,1384.24 1916.44,1384.24 1918.61,1384.24 1920.78,1384.24 1922.95,1384.24 1925.12,1384.24 1927.29,1384.24 1929.46,1384.24 1931.63,1384.24 1933.8,1384.24 1935.97,1384.24 1938.15,1384.24 1940.32,1384.24 1942.49,1384.24 1944.66,1384.24 1946.83,1384.24 1949,1384.24 1951.17,1384.24 1953.34,1384.24 1955.51,1384.24 1957.68,1384.24 1959.85,1384.24 1962.02,1384.24 1964.19,1384.24 1966.36,1384.24 1968.54,1384.24 1970.71,1384.24 1972.88,1384.24 1975.05,1384.24 1977.22,1384.24 1979.39,1384.24 1981.56,1384.24 1983.73,1384.24 1985.9,1384.24 1988.07,1384.24 1990.24,1384.24 1992.41,1384.24 1994.58,1384.24 1996.76,1384.24 1998.93,1384.24 2001.1,1384.24 2003.27,1384.24 2005.44,1384.24 2007.61,1384.24 2009.78,1384.24 2011.95,1384.24 2014.12,1384.24 2016.29,1384.24 2018.46,1384.24 2020.63,1384.24 2022.8,1384.24 2024.97,1384.24 2027.15,1384.24 2029.32,1384.24 2031.49,1384.24 2033.66,1384.24 2035.83,1384.24 2038,1384.24 2040.17,1266.23 2042.34,1266.23 2044.51,1266.23 2046.68,1266.23 2048.85,1266.23 2051.02,1266.23 2053.19,1266.23 2055.37,1266.23 2057.54,1266.23 2059.71,1266.23 2061.88,1266.23 2064.05,1266.23 2066.22,1266.23 2068.39,1266.23 2070.56,1266.23 2072.73,1266.23 2074.9,1384.24 2077.07,1384.24 2079.24,1384.24 2081.41,1384.24 2083.58,1384.24 2085.76,1384.24 2087.93,1384.24 2090.1,1384.24 2092.27,1384.24 2094.44,1266.23 2096.61,1266.23 2098.78,1266.23 2100.95,1266.23 2103.12,1266.23 2105.29,1266.23 2107.46,1266.23 2109.63,1266.23 2111.8,1266.23 2113.97,1266.23 2116.15,1266.23 2118.32,1266.23 2120.49,1266.23 2122.66,1266.23 2124.83,1384.24 2127,1384.24 2129.17,1384.24 2131.34,1384.24 2133.51,1384.24 2135.68,1384.24 2137.85,1384.24 2140.02,1384.24 2142.19,1384.24 2144.37,1384.24 2146.54,1384.24 2148.71,1384.24 2150.88,1384.24 2153.05,1384.24 2155.22,1384.24 2157.39,1266.23 2159.56,1266.23 2161.73,1266.23 2163.9,1266.23 2166.07,1266.23 2168.24,1266.23 2170.41,1266.23 2172.58,1266.23 2174.76,1266.23 2176.93,1266.23 2179.1,1266.23 2181.27,1266.23 2183.44,1266.23 2185.61,1266.23 2187.78,1266.23 2189.95,1266.23 2192.12,1266.23 2194.29,1266.23 2196.46,1266.23 2198.63,1266.23 2200.8,1266.23 2202.98,1266.23 2205.15,1266.23 2207.32,1384.24 2209.49,1384.24 2211.66,1384.24 2213.83,1384.24 2216,1384.24 2218.17,1384.24 2220.34,1384.24 2222.51,1384.24 2224.68,1384.24 2226.85,1384.24 2229.02,1384.24 2231.19,1384.24 2233.37,1384.24 2235.54,1384.24 2237.71,1384.24 2239.88,1384.24 2242.05,1384.24 2244.22,1384.24 2246.39,1384.24 2248.56,1384.24 2250.73,1384.24 2252.9,1384.24 2255.07,1384.24 2257.24,1384.24 2259.41,1266.23 2261.58,1266.23 2263.76,1266.23 2265.93,1266.23 2268.1,1266.23 2270.27,1266.23 2272.44,1266.23 2274.61,1266.23 2276.78,1266.23 2278.95,1266.23 2281.12,1266.23 2283.29,1266.23 2285.46,1266.23 2287.63,1266.23 2289.8,1266.23 2291.98,1266.23 2294.15,1266.23 2296.32,1266.23 2298.49,1266.23 2300.66,1266.23 2302.83,1266.23 2305,1266.23 2307.17,1266.23 2309.34,1266.23 2311.51,1266.23 2313.68,1266.23 2315.85,1266.23 2318.02,1266.23 2320.19,1266.23 2322.37,1266.23 2324.54,1266.23 2326.71,1266.23 2328.88,1266.23 2331.05,1266.23 2333.22,1266.23 2335.39,1266.23 2337.56,1266.23 2339.73,1266.23 2341.9,1266.23 2344.07,1266.23 2346.24,1266.23 2348.41,1266.23 2350.59,1266.23 2352.76,1266.23 "/>
<polyline clip-path="url(#clip092)" style="stroke:#e26f46; stroke-linecap:round; stroke-linejoin:round; stroke-width:8; stroke-opacity:1; fill:none" points="184.191,1384.24 186.361,1384.24 188.532,1384.24 190.703,1384.24 192.874,1384.24 195.044,1384.24 197.215,1384.24 199.386,1384.24 201.557,1384.24 203.727,1384.24 205.898,1384.24 208.069,1384.24 210.24,1384.24 212.41,1384.24 214.581,1384.24 216.752,1384.24 218.922,1384.24 221.093,1384.24 223.264,1384.24 225.435,1384.24 227.605,1384.24 229.776,1384.24 231.947,1384.24 234.118,1384.24 236.288,1384.24 238.459,1384.24 240.63,1384.24 242.801,1384.24 244.971,1384.24 247.142,1384.24 249.313,1384.24 251.483,1384.24 253.654,1384.24 255.825,1384.24 257.996,1384.24 260.166,1384.24 262.337,1384.24 264.508,1384.24 266.679,1384.24 268.849,1384.24 271.02,1384.24 273.191,1384.24 275.362,1384.24 277.532,1384.24 279.703,1384.24 281.874,1384.24 284.045,1384.24 286.215,1384.24 288.386,1384.24 290.557,1384.24 292.727,1384.24 294.898,1384.24 297.069,1384.24 299.24,1384.24 301.41,1384.24 303.581,1384.24 305.752,1384.24 307.923,1384.24 310.093,1384.24 312.264,1384.24 314.435,1384.24 316.606,1384.24 318.776,1384.24 320.947,1384.24 323.118,1384.24 325.289,1384.24 327.459,1384.24 329.63,1384.24 331.801,1384.24 333.971,1384.24 336.142,1384.24 338.313,1384.24 340.484,1384.24 342.654,1384.24 344.825,1384.24 346.996,1384.24 349.167,1384.24 351.337,1384.24 353.508,1384.24 355.679,1384.24 357.85,1384.24 360.02,1384.24 362.191,1384.24 364.362,1384.24 366.533,1384.24 368.703,1384.24 370.874,1384.24 373.045,1384.24 375.215,1384.24 377.386,1384.24 379.557,1384.24 381.728,1384.24 383.898,1384.24 386.069,1384.24 388.24,1384.24 390.411,1384.24 392.581,1384.24 394.752,1384.24 396.923,1384.24 399.094,1384.24 401.264,1384.24 403.435,1384.24 405.606,1384.24 407.776,1384.24 409.947,1384.24 412.118,1384.24 414.289,1384.24 416.459,1384.24 418.63,1384.24 420.801,1384.24 422.972,1384.24 425.142,1384.24 427.313,1384.24 429.484,1384.24 431.655,1384.24 433.825,1384.24 435.996,1384.24 438.167,1384.24 440.338,1384.24 442.508,1384.24 444.679,1384.24 446.85,1384.24 449.02,1384.24 451.191,1384.24 453.362,1384.24 455.533,1384.24 457.703,1384.24 459.874,1384.24 462.045,1384.24 464.216,1384.24 466.386,1384.24 468.557,1384.24 470.728,1384.24 472.899,1384.24 475.069,1384.24 477.24,1384.24 479.411,1384.24 481.582,1384.24 483.752,1384.24 485.923,1384.24 488.094,1384.24 490.264,1384.24 492.435,1384.24 494.606,1384.24 496.777,1384.24 498.947,1384.24 501.118,1384.24 503.289,1384.24 505.46,1384.24 507.63,1384.24 509.801,1384.24 511.972,1384.24 514.143,1384.24 516.313,1384.24 518.484,1384.24 520.655,1384.24 522.825,1384.24 524.996,1384.24 527.167,1384.24 529.338,1384.24 531.508,1384.24 533.679,1384.24 535.85,1384.24 538.021,1384.24 540.191,1384.24 542.362,1384.24 544.533,1384.24 546.704,1384.24 548.874,1384.24 551.045,1384.24 553.216,1384.24 555.387,1384.24 557.557,1384.24 559.728,1384.24 561.899,1384.24 564.069,1384.24 566.24,1384.24 568.411,1384.24 570.582,1384.24 572.752,1384.24 574.923,1384.24 577.094,1384.24 579.265,1384.24 581.435,1384.24 583.606,1384.24 585.777,1384.24 587.948,1384.24 590.118,1266.23 592.289,1266.23 594.46,1266.23 596.631,1266.23 598.801,1266.23 600.972,1148.23 603.143,1148.23 605.313,1148.23 607.484,1148.23 609.655,1148.23 611.826,1148.23 613.996,1148.23 616.167,1148.23 618.338,1148.23 620.509,1148.23 622.679,1148.23 624.85,1148.23 627.021,1148.23 629.192,1148.23 631.362,1148.23 633.533,1148.23 635.704,1148.23 637.874,1148.23 640.045,1148.23 642.216,1148.23 644.387,1148.23 646.557,1148.23 648.728,1148.23 650.899,1148.23 653.07,1148.23 655.24,1148.23 657.411,1148.23 659.582,1148.23 661.753,1148.23 663.923,1148.23 666.094,1148.23 668.265,1148.23 670.436,1148.23 672.606,1148.23 674.777,1148.23 676.948,1148.23 679.118,1148.23 681.289,1148.23 683.46,1148.23 685.631,1148.23 687.801,1148.23 689.972,1148.23 692.143,1148.23 694.314,1148.23 696.484,1148.23 698.655,1148.23 700.826,1148.23 702.997,1148.23 705.167,1148.23 707.338,1148.23 709.509,1148.23 711.68,1148.23 713.85,1148.23 716.021,1148.23 718.192,1148.23 720.362,1148.23 722.533,1148.23 724.704,1148.23 726.875,1148.23 729.045,1148.23 731.216,1148.23 733.387,1148.23 735.558,1148.23 737.728,1148.23 739.899,1148.23 742.07,1148.23 744.241,1148.23 746.411,1148.23 748.582,1148.23 750.753,1148.23 752.924,1148.23 755.094,1148.23 757.265,1148.23 759.436,1148.23 761.606,1148.23 763.777,1148.23 765.948,1148.23 768.119,1148.23 770.289,1148.23 772.46,1148.23 774.631,1148.23 776.802,1148.23 778.972,1148.23 781.143,1148.23 783.314,1148.23 785.485,1148.23 787.655,1148.23 789.826,1148.23 791.997,1148.23 794.167,1148.23 796.338,1148.23 798.509,1148.23 800.68,1148.23 802.85,1148.23 805.021,1148.23 807.192,1148.23 809.363,1148.23 811.533,1148.23 813.704,1148.23 815.875,1148.23 818.046,1148.23 820.216,1148.23 822.387,1148.23 824.558,1148.23 826.729,1148.23 828.899,1148.23 831.07,1148.23 833.241,1148.23 835.411,1148.23 837.582,1148.23 839.753,1148.23 841.924,1148.23 844.094,1148.23 846.265,1030.22 848.436,1030.22 850.607,1030.22 852.777,1030.22 854.948,1030.22 857.119,1030.22 859.29,1030.22 861.46,1030.22 863.631,1030.22 865.802,1030.22 867.973,1030.22 870.143,1030.22 872.314,1030.22 874.485,1030.22 876.655,1030.22 878.826,1030.22 880.997,1030.22 883.168,1030.22 885.338,1030.22 887.509,1030.22 889.68,1030.22 891.851,1030.22 894.021,1030.22 896.192,1030.22 898.363,1030.22 900.534,1030.22 902.704,1030.22 904.875,1030.22 907.046,1030.22 909.216,1030.22 911.387,1030.22 913.558,1030.22 915.729,1030.22 917.899,1030.22 920.07,1030.22 922.241,1030.22 924.412,1030.22 926.582,1030.22 928.753,1030.22 930.924,1030.22 933.095,1030.22 935.265,1030.22 937.436,1030.22 939.607,1030.22 941.778,1030.22 943.948,1030.22 946.119,1030.22 948.29,1030.22 950.46,1030.22 952.631,1030.22 954.802,1030.22 956.973,1030.22 959.143,1030.22 961.314,1030.22 963.485,1030.22 965.656,1030.22 967.826,1030.22 969.997,1030.22 972.168,1030.22 974.339,1030.22 976.509,1030.22 978.68,1030.22 980.851,1030.22 983.022,1030.22 985.192,1030.22 987.363,1030.22 989.534,1030.22 991.704,1030.22 993.875,1030.22 996.046,1030.22 998.217,1030.22 1000.39,1030.22 1002.56,1030.22 1004.73,1030.22 1006.9,1030.22 1009.07,1030.22 1011.24,1030.22 1013.41,1030.22 1015.58,1030.22 1017.75,1030.22 1019.92,1030.22 1022.09,1030.22 1024.27,1030.22 1026.44,1030.22 1028.61,1030.22 1030.78,1030.22 1032.95,1030.22 1035.12,1030.22 1037.29,1030.22 1039.46,1030.22 1041.63,1030.22 1043.8,1030.22 1045.97,1030.22 1048.14,1030.22 1050.31,1030.22 1052.49,1030.22 1054.66,1030.22 1056.83,1030.22 1059,1030.22 1061.17,1030.22 1063.34,1030.22 1065.51,1030.22 1067.68,1030.22 1069.85,1030.22 1072.02,1030.22 1074.19,1030.22 1076.36,1030.22 1078.53,1030.22 1080.7,1030.22 1082.88,1030.22 1085.05,1030.22 1087.22,1030.22 1089.39,1030.22 1091.56,1030.22 1093.73,1030.22 1095.9,1030.22 1098.07,1030.22 1100.24,1030.22 1102.41,1030.22 1104.58,1030.22 1106.75,1030.22 1108.92,1030.22 1111.09,1030.22 1113.27,1030.22 1115.44,1030.22 1117.61,1030.22 1119.78,1030.22 1121.95,1030.22 1124.12,1030.22 1126.29,1030.22 1128.46,1030.22 1130.63,1030.22 1132.8,1030.22 1134.97,1030.22 1137.14,1030.22 1139.31,1030.22 1141.49,1030.22 1143.66,1030.22 1145.83,1030.22 1148,1030.22 1150.17,1030.22 1152.34,1030.22 1154.51,1030.22 1156.68,1030.22 1158.85,1030.22 1161.02,1030.22 1163.19,1030.22 1165.36,1030.22 1167.53,1030.22 1169.7,1030.22 1171.88,1030.22 1174.05,1030.22 1176.22,1030.22 1178.39,1030.22 1180.56,1030.22 1182.73,912.219 1184.9,912.219 1187.07,912.219 1189.24,912.219 1191.41,912.219 1193.58,912.219 1195.75,912.219 1197.92,912.219 1200.1,912.219 1202.27,912.219 1204.44,912.219 1206.61,912.219 1208.78,912.219 1210.95,794.214 1213.12,794.214 1215.29,794.214 1217.46,794.214 1219.63,794.214 1221.8,794.214 1223.97,794.214 1226.14,676.21 1228.31,676.21 1230.49,676.21 1232.66,676.21 1234.83,676.21 1237,676.21 1239.17,676.21 1241.34,676.21 1243.51,676.21 1245.68,676.21 1247.85,676.21 1250.02,676.21 1252.19,676.21 1254.36,676.21 1256.53,676.21 1258.7,676.21 1260.88,676.21 1263.05,558.205 1265.22,558.205 1267.39,558.205 1269.56,558.205 1271.73,558.205 1273.9,558.205 1276.07,558.205 1278.24,558.205 1280.41,558.205 1282.58,440.2 1284.75,440.2 1286.92,440.2 1289.1,440.2 1291.27,440.2 1293.44,440.2 1295.61,440.2 1297.78,440.2 1299.95,440.2 1302.12,440.2 1304.29,440.2 1306.46,440.2 1308.63,440.2 1310.8,440.2 1312.97,440.2 1315.14,440.2 1317.31,440.2 1319.49,440.2 1321.66,440.2 1323.83,440.2 1326,440.2 1328.17,440.2 1330.34,440.2 1332.51,440.2 1334.68,440.2 1336.85,440.2 1339.02,440.2 1341.19,440.2 1343.36,440.2 1345.53,440.2 1347.71,440.2 1349.88,440.2 1352.05,440.2 1354.22,440.2 1356.39,440.2 1358.56,440.2 1360.73,440.2 1362.9,440.2 1365.07,440.2 1367.24,440.2 1369.41,440.2 1371.58,440.2 1373.75,440.2 1375.92,440.2 1378.1,440.2 1380.27,440.2 1382.44,440.2 1384.61,440.2 1386.78,440.2 1388.95,440.2 1391.12,440.2 1393.29,440.2 1395.46,440.2 1397.63,440.2 1399.8,440.2 1401.97,440.2 1404.14,440.2 1406.32,440.2 1408.49,440.2 1410.66,440.2 1412.83,440.2 1415,440.2 1417.17,440.2 1419.34,440.2 1421.51,440.2 1423.68,440.2 1425.85,440.2 1428.02,440.2 1430.19,440.2 1432.36,440.2 1434.53,440.2 1436.71,440.2 1438.88,440.2 1441.05,440.2 1443.22,440.2 1445.39,440.2 1447.56,440.2 1449.73,440.2 1451.9,440.2 1454.07,440.2 1456.24,440.2 1458.41,440.2 1460.58,440.2 1462.75,440.2 1464.92,440.2 1467.1,440.2 1469.27,440.2 1471.44,440.2 1473.61,440.2 1475.78,440.2 1477.95,440.2 1480.12,440.2 1482.29,440.2 1484.46,440.2 1486.63,440.2 1488.8,440.2 1490.97,440.2 1493.14,440.2 1495.32,440.2 1497.49,440.2 1499.66,440.2 1501.83,440.2 1504,440.2 1506.17,440.2 1508.34,440.2 1510.51,440.2 1512.68,440.2 1514.85,440.2 1517.02,440.2 1519.19,440.2 1521.36,440.2 1523.53,440.2 1525.71,440.2 1527.88,440.2 1530.05,440.2 1532.22,440.2 1534.39,440.2 1536.56,440.2 1538.73,440.2 1540.9,440.2 1543.07,440.2 1545.24,440.2 1547.41,440.2 1549.58,440.2 1551.75,440.2 1553.93,440.2 1556.1,440.2 1558.27,440.2 1560.44,440.2 1562.61,440.2 1564.78,440.2 1566.95,440.2 1569.12,440.2 1571.29,440.2 1573.46,440.2 1575.63,440.2 1577.8,440.2 1579.97,440.2 1582.14,440.2 1584.32,440.2 1586.49,440.2 1588.66,440.2 1590.83,440.2 1593,440.2 1595.17,440.2 1597.34,440.2 1599.51,440.2 1601.68,440.2 1603.85,440.2 1606.02,440.2 1608.19,440.2 1610.36,440.2 1612.53,440.2 1614.71,440.2 1616.88,440.2 1619.05,440.2 1621.22,440.2 1623.39,440.2 1625.56,440.2 1627.73,440.2 1629.9,440.2 1632.07,440.2 1634.24,440.2 1636.41,440.2 1638.58,440.2 1640.75,440.2 1642.93,440.2 1645.1,440.2 1647.27,440.2 1649.44,440.2 1651.61,440.2 1653.78,440.2 1655.95,440.2 1658.12,440.2 1660.29,440.2 1662.46,440.2 1664.63,440.2 1666.8,440.2 1668.97,440.2 1671.14,440.2 1673.32,440.2 1675.49,440.2 1677.66,440.2 1679.83,440.2 1682,440.2 1684.17,440.2 1686.34,440.2 1688.51,440.2 1690.68,440.2 1692.85,440.2 1695.02,440.2 1697.19,440.2 1699.36,440.2 1701.54,440.2 1703.71,440.2 1705.88,440.2 1708.05,440.2 1710.22,440.2 1712.39,440.2 1714.56,440.2 1716.73,440.2 1718.9,440.2 1721.07,440.2 1723.24,440.2 1725.41,440.2 1727.58,440.2 1729.75,440.2 1731.93,440.2 1734.1,440.2 1736.27,440.2 1738.44,440.2 1740.61,440.2 1742.78,440.2 1744.95,440.2 1747.12,440.2 1749.29,440.2 1751.46,440.2 1753.63,440.2 1755.8,440.2 1757.97,440.2 1760.14,440.2 1762.32,440.2 1764.49,440.2 1766.66,440.2 1768.83,440.2 1771,440.2 1773.17,440.2 1775.34,440.2 1777.51,440.2 1779.68,440.2 1781.85,440.2 1784.02,440.2 1786.19,440.2 1788.36,440.2 1790.54,440.2 1792.71,440.2 1794.88,440.2 1797.05,440.2 1799.22,440.2 1801.39,440.2 1803.56,440.2 1805.73,440.2 1807.9,440.2 1810.07,440.2 1812.24,440.2 1814.41,440.2 1816.58,440.2 1818.75,440.2 1820.93,440.2 1823.1,440.2 1825.27,440.2 1827.44,440.2 1829.61,440.2 1831.78,440.2 1833.95,440.2 1836.12,440.2 1838.29,440.2 1840.46,440.2 1842.63,440.2 1844.8,440.2 1846.97,440.2 1849.15,440.2 1851.32,440.2 1853.49,440.2 1855.66,440.2 1857.83,440.2 1860,440.2 1862.17,440.2 1864.34,440.2 1866.51,440.2 1868.68,440.2 1870.85,440.2 1873.02,440.2 1875.19,440.2 1877.36,440.2 1879.54,440.2 1881.71,440.2 1883.88,440.2 1886.05,440.2 1888.22,440.2 1890.39,440.2 1892.56,440.2 1894.73,440.2 1896.9,440.2 1899.07,440.2 1901.24,440.2 1903.41,440.2 1905.58,440.2 1907.76,440.2 1909.93,440.2 1912.1,440.2 1914.27,440.2 1916.44,440.2 1918.61,440.2 1920.78,440.2 1922.95,440.2 1925.12,440.2 1927.29,440.2 1929.46,440.2 1931.63,440.2 1933.8,440.2 1935.97,440.2 1938.15,440.2 1940.32,440.2 1942.49,440.2 1944.66,440.2 1946.83,440.2 1949,440.2 1951.17,440.2 1953.34,440.2 1955.51,440.2 1957.68,440.2 1959.85,440.2 1962.02,440.2 1964.19,440.2 1966.36,440.2 1968.54,440.2 1970.71,440.2 1972.88,440.2 1975.05,440.2 1977.22,440.2 1979.39,440.2 1981.56,440.2 1983.73,440.2 1985.9,440.2 1988.07,440.2 1990.24,440.2 1992.41,440.2 1994.58,440.2 1996.76,440.2 1998.93,440.2 2001.1,440.2 2003.27,440.2 2005.44,440.2 2007.61,440.2 2009.78,440.2 2011.95,440.2 2014.12,440.2 2016.29,440.2 2018.46,440.2 2020.63,440.2 2022.8,440.2 2024.97,440.2 2027.15,440.2 2029.32,440.2 2031.49,440.2 2033.66,440.2 2035.83,440.2 2038,440.2 2040.17,440.2 2042.34,440.2 2044.51,440.2 2046.68,440.2 2048.85,440.2 2051.02,440.2 2053.19,440.2 2055.37,440.2 2057.54,440.2 2059.71,440.2 2061.88,440.2 2064.05,440.2 2066.22,440.2 2068.39,440.2 2070.56,440.2 2072.73,440.2 2074.9,322.195 2077.07,322.195 2079.24,322.195 2081.41,322.195 2083.58,322.195 2085.76,322.195 2087.93,322.195 2090.1,322.195 2092.27,322.195 2094.44,322.195 2096.61,322.195 2098.78,322.195 2100.95,322.195 2103.12,322.195 2105.29,322.195 2107.46,322.195 2109.63,322.195 2111.8,322.195 2113.97,322.195 2116.15,322.195 2118.32,322.195 2120.49,322.195 2122.66,322.195 2124.83,204.19 2127,204.19 2129.17,204.19 2131.34,204.19 2133.51,204.19 2135.68,204.19 2137.85,204.19 2140.02,204.19 2142.19,204.19 2144.37,204.19 2146.54,204.19 2148.71,204.19 2150.88,204.19 2153.05,204.19 2155.22,204.19 2157.39,204.19 2159.56,204.19 2161.73,204.19 2163.9,204.19 2166.07,204.19 2168.24,204.19 2170.41,204.19 2172.58,204.19 2174.76,204.19 2176.93,204.19 2179.1,204.19 2181.27,204.19 2183.44,204.19 2185.61,204.19 2187.78,204.19 2189.95,204.19 2192.12,204.19 2194.29,204.19 2196.46,204.19 2198.63,204.19 2200.8,204.19 2202.98,204.19 2205.15,204.19 2207.32,86.1857 2209.49,86.1857 2211.66,86.1857 2213.83,86.1857 2216,86.1857 2218.17,86.1857 2220.34,86.1857 2222.51,86.1857 2224.68,86.1857 2226.85,86.1857 2229.02,86.1857 2231.19,86.1857 2233.37,86.1857 2235.54,86.1857 2237.71,86.1857 2239.88,86.1857 2242.05,86.1857 2244.22,86.1857 2246.39,86.1857 2248.56,86.1857 2250.73,86.1857 2252.9,86.1857 2255.07,86.1857 2257.24,86.1857 2259.41,86.1857 2261.58,86.1857 2263.76,86.1857 2265.93,86.1857 2268.1,86.1857 2270.27,86.1857 2272.44,86.1857 2274.61,86.1857 2276.78,86.1857 2278.95,86.1857 2281.12,86.1857 2283.29,86.1857 2285.46,86.1857 2287.63,86.1857 2289.8,86.1857 2291.98,86.1857 2294.15,86.1857 2296.32,86.1857 2298.49,86.1857 2300.66,86.1857 2302.83,86.1857 2305,86.1857 2307.17,86.1857 2309.34,86.1857 2311.51,86.1857 2313.68,86.1857 2315.85,86.1857 2318.02,86.1857 2320.19,86.1857 2322.37,86.1857 2324.54,86.1857 2326.71,86.1857 2328.88,86.1857 2331.05,86.1857 2333.22,86.1857 2335.39,86.1857 2337.56,86.1857 2339.73,86.1857 2341.9,86.1857 2344.07,86.1857 2346.24,86.1857 2348.41,86.1857 2350.59,86.1857 2352.76,86.1857 "/>
<path clip-path="url(#clip090)" d="M256.476 248.629 L556.689 248.629 L556.689 93.1086 L256.476 93.1086  Z" fill="#ffffff" fill-rule="evenodd" fill-opacity="1"/>
<polyline clip-path="url(#clip090)" style="stroke:#000000; stroke-linecap:round; stroke-linejoin:round; stroke-width:4; stroke-opacity:1; fill:none" points="256.476,248.629 556.689,248.629 556.689,93.1086 256.476,93.1086 256.476,248.629 "/>
<polyline clip-path="url(#clip090)" style="stroke:#009af9; stroke-linecap:round; stroke-linejoin:round; stroke-width:8; stroke-opacity:1; fill:none" points="280.571,144.949 425.142,144.949 "/>
<path clip-path="url(#clip090)" d="M449.238 127.669 L455.534 127.669 L470.858 156.581 L470.858 127.669 L475.395 127.669 L475.395 162.229 L469.099 162.229 L453.775 133.317 L453.775 162.229 L449.238 162.229 L449.238 127.669 Z" fill="#000000" fill-rule="nonzero" fill-opacity="1" /><path clip-path="url(#clip090)" d="M494.747 126.257 Q491.645 131.581 490.14 136.789 Q488.635 141.997 488.635 147.344 Q488.635 152.692 490.14 157.946 Q491.668 163.178 494.747 168.479 L491.043 168.479 Q487.571 163.039 485.835 157.784 Q484.122 152.53 484.122 147.344 Q484.122 142.182 485.835 136.951 Q487.548 131.72 491.043 126.257 L494.747 126.257 Z" fill="#000000" fill-rule="nonzero" fill-opacity="1" /><path clip-path="url(#clip090)" d="M507.223 128.942 L507.223 136.303 L515.996 136.303 L515.996 139.613 L507.223 139.613 L507.223 153.687 Q507.223 156.858 508.08 157.761 Q508.959 158.664 511.621 158.664 L515.996 158.664 L515.996 162.229 L511.621 162.229 Q506.691 162.229 504.816 160.4 Q502.941 158.548 502.941 153.687 L502.941 139.613 L499.816 139.613 L499.816 136.303 L502.941 136.303 L502.941 128.942 L507.223 128.942 Z" fill="#000000" fill-rule="nonzero" fill-opacity="1" /><path clip-path="url(#clip090)" d="M520.927 126.257 L524.631 126.257 Q528.103 131.72 529.816 136.951 Q531.552 142.182 531.552 147.344 Q531.552 152.53 529.816 157.784 Q528.103 163.039 524.631 168.479 L520.927 168.479 Q524.006 163.178 525.51 157.946 Q527.038 152.692 527.038 147.344 Q527.038 141.997 525.51 136.789 Q524.006 131.581 520.927 126.257 Z" fill="#000000" fill-rule="nonzero" fill-opacity="1" /><polyline clip-path="url(#clip090)" style="stroke:#e26f46; stroke-linecap:round; stroke-linejoin:round; stroke-width:8; stroke-opacity:1; fill:none" points="280.571,196.789 425.142,196.789 "/>
<path clip-path="url(#clip090)" d="M453.913 183.351 L453.913 210.226 L459.562 210.226 Q466.714 210.226 470.024 206.985 Q473.358 203.745 473.358 196.754 Q473.358 189.809 470.024 186.592 Q466.714 183.351 459.562 183.351 L453.913 183.351 M449.238 179.509 L458.844 179.509 Q468.89 179.509 473.589 183.698 Q478.288 187.865 478.288 196.754 Q478.288 205.689 473.566 209.879 Q468.844 214.069 458.844 214.069 L449.238 214.069 L449.238 179.509 Z" fill="#000000" fill-rule="nonzero" fill-opacity="1" /><path clip-path="url(#clip090)" d="M495.788 178.097 Q492.686 183.421 491.182 188.629 Q489.677 193.837 489.677 199.184 Q489.677 204.532 491.182 209.786 Q492.71 215.018 495.788 220.319 L492.085 220.319 Q488.612 214.879 486.876 209.624 Q485.163 204.37 485.163 199.184 Q485.163 194.022 486.876 188.791 Q488.589 183.56 492.085 178.097 L495.788 178.097 Z" fill="#000000" fill-rule="nonzero" fill-opacity="1" /><path clip-path="url(#clip090)" d="M508.265 180.782 L508.265 188.143 L517.038 188.143 L517.038 191.453 L508.265 191.453 L508.265 205.527 Q508.265 208.698 509.121 209.601 Q510.001 210.504 512.663 210.504 L517.038 210.504 L517.038 214.069 L512.663 214.069 Q507.733 214.069 505.858 212.24 Q503.983 210.388 503.983 205.527 L503.983 191.453 L500.858 191.453 L500.858 188.143 L503.983 188.143 L503.983 180.782 L508.265 180.782 Z" fill="#000000" fill-rule="nonzero" fill-opacity="1" /><path clip-path="url(#clip090)" d="M521.969 178.097 L525.672 178.097 Q529.145 183.56 530.857 188.791 Q532.594 194.022 532.594 199.184 Q532.594 204.37 530.857 209.624 Q529.145 214.879 525.672 220.319 L521.969 220.319 Q525.047 215.018 526.552 209.786 Q528.08 204.532 528.08 199.184 Q528.08 193.837 526.552 188.629 Q525.047 183.421 521.969 178.097 Z" fill="#000000" fill-rule="nonzero" fill-opacity="1" /></svg>
