<?xml version="1.0" encoding="utf-8"?>
<svg xmlns="http://www.w3.org/2000/svg" xmlns:xlink="http://www.w3.org/1999/xlink" width="600" height="400" viewBox="0 0 2400 1600">
<defs>
  <clipPath id="clip910">
    <rect x="0" y="0" width="2400" height="1600"/>
  </clipPath>
</defs>
<path clip-path="url(#clip910)" d="M0 1600 L2400 1600 L2400 0 L0 0  Z" fill="#ffffff" fill-rule="evenodd" fill-opacity="1"/>
<defs>
  <clipPath id="clip911">
    <rect x="480" y="0" width="1681" height="1600"/>
  </clipPath>
</defs>
<path clip-path="url(#clip910)" d="M140.696 1423.18 L2352.76 1423.18 L2352.76 47.2441 L140.696 47.2441  Z" fill="#ffffff" fill-rule="evenodd" fill-opacity="1"/>
<defs>
  <clipPath id="clip912">
    <rect x="140" y="47" width="2213" height="1377"/>
  </clipPath>
</defs>
<polyline clip-path="url(#clip912)" style="stroke:#000000; stroke-linecap:round; stroke-linejoin:round; stroke-width:2; stroke-opacity:0.1; fill:none" points="140.696,1423.18 140.696,47.2441 "/>
<polyline clip-path="url(#clip912)" style="stroke:#000000; stroke-linecap:round; stroke-linejoin:round; stroke-width:2; stroke-opacity:0.1; fill:none" points="583.108,1423.18 583.108,47.2441 "/>
<polyline clip-path="url(#clip912)" style="stroke:#000000; stroke-linecap:round; stroke-linejoin:round; stroke-width:2; stroke-opacity:0.1; fill:none" points="1025.52,1423.18 1025.52,47.2441 "/>
<polyline clip-path="url(#clip912)" style="stroke:#000000; stroke-linecap:round; stroke-linejoin:round; stroke-width:2; stroke-opacity:0.1; fill:none" points="1467.93,1423.18 1467.93,47.2441 "/>
<polyline clip-path="url(#clip912)" style="stroke:#000000; stroke-linecap:round; stroke-linejoin:round; stroke-width:2; stroke-opacity:0.1; fill:none" points="1910.34,1423.18 1910.34,47.2441 "/>
<polyline clip-path="url(#clip912)" style="stroke:#000000; stroke-linecap:round; stroke-linejoin:round; stroke-width:2; stroke-opacity:0.1; fill:none" points="2352.76,1423.18 2352.76,47.2441 "/>
<polyline clip-path="url(#clip912)" style="stroke:#000000; stroke-linecap:round; stroke-linejoin:round; stroke-width:2; stroke-opacity:0.1; fill:none" points="140.696,1384.24 2352.76,1384.24 "/>
<polyline clip-path="url(#clip912)" style="stroke:#000000; stroke-linecap:round; stroke-linejoin:round; stroke-width:2; stroke-opacity:0.1; fill:none" points="140.696,1059.73 2352.76,1059.73 "/>
<polyline clip-path="url(#clip912)" style="stroke:#000000; stroke-linecap:round; stroke-linejoin:round; stroke-width:2; stroke-opacity:0.1; fill:none" points="140.696,735.212 2352.76,735.212 "/>
<polyline clip-path="url(#clip912)" style="stroke:#000000; stroke-linecap:round; stroke-linejoin:round; stroke-width:2; stroke-opacity:0.1; fill:none" points="140.696,410.699 2352.76,410.699 "/>
<polyline clip-path="url(#clip912)" style="stroke:#000000; stroke-linecap:round; stroke-linejoin:round; stroke-width:2; stroke-opacity:0.1; fill:none" points="140.696,86.1857 2352.76,86.1857 "/>
<polyline clip-path="url(#clip910)" style="stroke:#000000; stroke-linecap:round; stroke-linejoin:round; stroke-width:4; stroke-opacity:1; fill:none" points="140.696,1423.18 2352.76,1423.18 "/>
<polyline clip-path="url(#clip910)" style="stroke:#000000; stroke-linecap:round; stroke-linejoin:round; stroke-width:4; stroke-opacity:1; fill:none" points="140.696,1423.18 140.696,1404.28 "/>
<polyline clip-path="url(#clip910)" style="stroke:#000000; stroke-linecap:round; stroke-linejoin:round; stroke-width:4; stroke-opacity:1; fill:none" points="583.108,1423.18 583.108,1404.28 "/>
<polyline clip-path="url(#clip910)" style="stroke:#000000; stroke-linecap:round; stroke-linejoin:round; stroke-width:4; stroke-opacity:1; fill:none" points="1025.52,1423.18 1025.52,1404.28 "/>
<polyline clip-path="url(#clip910)" style="stroke:#000000; stroke-linecap:round; stroke-linejoin:round; stroke-width:4; stroke-opacity:1; fill:none" points="1467.93,1423.18 1467.93,1404.28 "/>
<polyline clip-path="url(#clip910)" style="stroke:#000000; stroke-linecap:round; stroke-linejoin:round; stroke-width:4; stroke-opacity:1; fill:none" points="1910.34,1423.18 1910.34,1404.28 "/>
<polyline clip-path="url(#clip910)" style="stroke:#000000; stroke-linecap:round; stroke-linejoin:round; stroke-width:4; stroke-opacity:1; fill:none" points="2352.76,1423.18 2352.76,1404.28 "/>
<path clip-path="url(#clip910)" d="M140.696 1454.1 Q137.084 1454.1 135.256 1457.66 Q133.45 1461.2 133.45 1468.33 Q133.45 1475.44 135.256 1479.01 Q137.084 1482.55 140.696 1482.55 Q144.33 1482.55 146.135 1479.01 Q147.964 1475.44 147.964 1468.33 Q147.964 1461.2 146.135 1457.66 Q144.33 1454.1 140.696 1454.1 M140.696 1450.39 Q146.506 1450.39 149.561 1455 Q152.64 1459.58 152.64 1468.33 Q152.64 1477.06 149.561 1481.67 Q146.506 1486.25 140.696 1486.25 Q134.885 1486.25 131.807 1481.67 Q128.751 1477.06 128.751 1468.33 Q128.751 1459.58 131.807 1455 Q134.885 1450.39 140.696 1450.39 Z" fill="#000000" fill-rule="nonzero" fill-opacity="1" /><path clip-path="url(#clip910)" d="M577.76 1481.64 L594.08 1481.64 L594.08 1485.58 L572.135 1485.58 L572.135 1481.64 Q574.797 1478.89 579.381 1474.26 Q583.987 1469.61 585.168 1468.27 Q587.413 1465.74 588.293 1464.01 Q589.196 1462.25 589.196 1460.56 Q589.196 1457.8 587.251 1456.07 Q585.33 1454.33 582.228 1454.33 Q580.029 1454.33 577.575 1455.09 Q575.145 1455.86 572.367 1457.41 L572.367 1452.69 Q575.191 1451.55 577.645 1450.97 Q580.098 1450.39 582.135 1450.39 Q587.506 1450.39 590.7 1453.08 Q593.895 1455.77 593.895 1460.26 Q593.895 1462.39 593.084 1464.31 Q592.297 1466.2 590.191 1468.8 Q589.612 1469.47 586.51 1472.69 Q583.409 1475.88 577.76 1481.64 Z" fill="#000000" fill-rule="nonzero" fill-opacity="1" /><path clip-path="url(#clip910)" d="M1028.53 1455.09 L1016.72 1473.54 L1028.53 1473.54 L1028.53 1455.09 M1027.3 1451.02 L1033.18 1451.02 L1033.18 1473.54 L1038.11 1473.54 L1038.11 1477.43 L1033.18 1477.43 L1033.18 1485.58 L1028.53 1485.58 L1028.53 1477.43 L1012.93 1477.43 L1012.93 1472.92 L1027.3 1451.02 Z" fill="#000000" fill-rule="nonzero" fill-opacity="1" /><path clip-path="url(#clip910)" d="M1468.34 1466.44 Q1465.19 1466.44 1463.34 1468.59 Q1461.51 1470.74 1461.51 1474.49 Q1461.51 1478.22 1463.34 1480.39 Q1465.19 1482.55 1468.34 1482.55 Q1471.48 1482.55 1473.31 1480.39 Q1475.17 1478.22 1475.17 1474.49 Q1475.17 1470.74 1473.31 1468.59 Q1471.48 1466.44 1468.34 1466.44 M1477.62 1451.78 L1477.62 1456.04 Q1475.86 1455.21 1474.05 1454.77 Q1472.27 1454.33 1470.51 1454.33 Q1465.88 1454.33 1463.43 1457.45 Q1461 1460.58 1460.65 1466.9 Q1462.02 1464.89 1464.08 1463.82 Q1466.14 1462.73 1468.61 1462.73 Q1473.82 1462.73 1476.83 1465.9 Q1479.86 1469.05 1479.86 1474.49 Q1479.86 1479.82 1476.72 1483.03 Q1473.57 1486.25 1468.34 1486.25 Q1462.34 1486.25 1459.17 1481.67 Q1456 1477.06 1456 1468.33 Q1456 1460.14 1459.89 1455.28 Q1463.78 1450.39 1470.33 1450.39 Q1472.09 1450.39 1473.87 1450.74 Q1475.67 1451.09 1477.62 1451.78 Z" fill="#000000" fill-rule="nonzero" fill-opacity="1" /><path clip-path="url(#clip910)" d="M1910.34 1469.17 Q1907.01 1469.17 1905.09 1470.95 Q1903.19 1472.73 1903.19 1475.86 Q1903.19 1478.98 1905.09 1480.77 Q1907.01 1482.55 1910.34 1482.55 Q1913.68 1482.55 1915.6 1480.77 Q1917.52 1478.96 1917.52 1475.86 Q1917.52 1472.73 1915.6 1470.95 Q1913.7 1469.17 1910.34 1469.17 M1905.67 1467.18 Q1902.66 1466.44 1900.97 1464.38 Q1899.3 1462.32 1899.3 1459.35 Q1899.3 1455.21 1902.24 1452.8 Q1905.2 1450.39 1910.34 1450.39 Q1915.51 1450.39 1918.45 1452.8 Q1921.39 1455.21 1921.39 1459.35 Q1921.39 1462.32 1919.7 1464.38 Q1918.03 1466.44 1915.04 1467.18 Q1918.42 1467.96 1920.3 1470.26 Q1922.2 1472.55 1922.2 1475.86 Q1922.2 1480.88 1919.12 1483.57 Q1916.06 1486.25 1910.34 1486.25 Q1904.63 1486.25 1901.55 1483.57 Q1898.49 1480.88 1898.49 1475.86 Q1898.49 1472.55 1900.39 1470.26 Q1902.29 1467.96 1905.67 1467.18 M1903.95 1459.79 Q1903.95 1462.48 1905.62 1463.98 Q1907.31 1465.49 1910.34 1465.49 Q1913.35 1465.49 1915.04 1463.98 Q1916.76 1462.48 1916.76 1459.79 Q1916.76 1457.11 1915.04 1455.6 Q1913.35 1454.1 1910.34 1454.1 Q1907.31 1454.1 1905.62 1455.6 Q1903.95 1457.11 1903.95 1459.79 Z" fill="#000000" fill-rule="nonzero" fill-opacity="1" /><path clip-path="url(#clip910)" d="M2327.44 1481.64 L2335.08 1481.64 L2335.08 1455.28 L2326.77 1456.95 L2326.77 1452.69 L2335.04 1451.02 L2339.71 1451.02 L2339.71 1481.64 L2347.35 1481.64 L2347.35 1485.58 L2327.44 1485.58 L2327.44 1481.64 Z" fill="#000000" fill-rule="nonzero" fill-opacity="1" /><path clip-path="url(#clip910)" d="M2366.8 1454.1 Q2363.18 1454.1 2361.36 1457.66 Q2359.55 1461.2 2359.55 1468.33 Q2359.55 1475.44 2361.36 1479.01 Q2363.18 1482.55 2366.8 1482.55 Q2370.43 1482.55 2372.23 1479.01 Q2374.06 1475.44 2374.06 1468.33 Q2374.06 1461.2 2372.23 1457.66 Q2370.43 1454.1 2366.8 1454.1 M2366.8 1450.39 Q2372.61 1450.39 2375.66 1455 Q2378.74 1459.58 2378.74 1468.33 Q2378.74 1477.06 2375.66 1481.67 Q2372.61 1486.25 2366.8 1486.25 Q2360.99 1486.25 2357.91 1481.67 Q2354.85 1477.06 2354.85 1468.33 Q2354.85 1459.58 2357.91 1455 Q2360.99 1450.39 2366.8 1450.39 Z" fill="#000000" fill-rule="nonzero" fill-opacity="1" /><path clip-path="url(#clip910)" d="M1245.79 1522.27 L1245.79 1532.4 L1257.85 1532.4 L1257.85 1536.95 L1245.79 1536.95 L1245.79 1556.3 Q1245.79 1560.66 1246.96 1561.9 Q1248.17 1563.14 1251.83 1563.14 L1257.85 1563.14 L1257.85 1568.04 L1251.83 1568.04 Q1245.05 1568.04 1242.48 1565.53 Q1239.9 1562.98 1239.9 1556.3 L1239.9 1536.95 L1235.6 1536.95 L1235.6 1532.4 L1239.9 1532.4 L1239.9 1522.27 L1245.79 1522.27 Z" fill="#000000" fill-rule="nonzero" fill-opacity="1" /><polyline clip-path="url(#clip910)" style="stroke:#000000; stroke-linecap:round; stroke-linejoin:round; stroke-width:4; stroke-opacity:1; fill:none" points="140.696,1423.18 140.696,47.2441 "/>
<polyline clip-path="url(#clip910)" style="stroke:#000000; stroke-linecap:round; stroke-linejoin:round; stroke-width:4; stroke-opacity:1; fill:none" points="140.696,1384.24 159.593,1384.24 "/>
<polyline clip-path="url(#clip910)" style="stroke:#000000; stroke-linecap:round; stroke-linejoin:round; stroke-width:4; stroke-opacity:1; fill:none" points="140.696,1059.73 159.593,1059.73 "/>
<polyline clip-path="url(#clip910)" style="stroke:#000000; stroke-linecap:round; stroke-linejoin:round; stroke-width:4; stroke-opacity:1; fill:none" points="140.696,735.212 159.593,735.212 "/>
<polyline clip-path="url(#clip910)" style="stroke:#000000; stroke-linecap:round; stroke-linejoin:round; stroke-width:4; stroke-opacity:1; fill:none" points="140.696,410.699 159.593,410.699 "/>
<polyline clip-path="url(#clip910)" style="stroke:#000000; stroke-linecap:round; stroke-linejoin:round; stroke-width:4; stroke-opacity:1; fill:none" points="140.696,86.1857 159.593,86.1857 "/>
<path clip-path="url(#clip910)" d="M92.7512 1370.04 Q89.1401 1370.04 87.3114 1373.6 Q85.5058 1377.14 85.5058 1384.27 Q85.5058 1391.38 87.3114 1394.94 Q89.1401 1398.49 92.7512 1398.49 Q96.3854 1398.49 98.1909 1394.94 Q100.02 1391.38 100.02 1384.27 Q100.02 1377.14 98.1909 1373.6 Q96.3854 1370.04 92.7512 1370.04 M92.7512 1366.33 Q98.5613 1366.33 101.617 1370.94 Q104.696 1375.52 104.696 1384.27 Q104.696 1393 101.617 1397.61 Q98.5613 1402.19 92.7512 1402.19 Q86.941 1402.19 83.8623 1397.61 Q80.8068 1393 80.8068 1384.27 Q80.8068 1375.52 83.8623 1370.94 Q86.941 1366.33 92.7512 1366.33 Z" fill="#000000" fill-rule="nonzero" fill-opacity="1" /><path clip-path="url(#clip910)" d="M83.7929 1042.45 L102.149 1042.45 L102.149 1046.38 L88.0753 1046.38 L88.0753 1054.85 Q89.0938 1054.51 90.1123 1054.34 Q91.1308 1054.16 92.1493 1054.16 Q97.9363 1054.16 101.316 1057.33 Q104.696 1060.5 104.696 1065.92 Q104.696 1071.5 101.223 1074.6 Q97.7511 1077.68 91.4317 1077.68 Q89.2558 1077.68 86.9873 1077.31 Q84.7419 1076.94 82.3346 1076.19 L82.3346 1071.5 Q84.4179 1072.63 86.6401 1073.19 Q88.8623 1073.74 91.3391 1073.74 Q95.3437 1073.74 97.6817 1071.63 Q100.02 1069.53 100.02 1065.92 Q100.02 1062.31 97.6817 1060.2 Q95.3437 1058.09 91.3391 1058.09 Q89.4641 1058.09 87.5892 1058.51 Q85.7373 1058.93 83.7929 1059.81 L83.7929 1042.45 Z" fill="#000000" fill-rule="nonzero" fill-opacity="1" /><path clip-path="url(#clip910)" d="M53.3995 748.557 L61.0384 748.557 L61.0384 722.191 L52.7282 723.858 L52.7282 719.599 L60.9921 717.932 L65.668 717.932 L65.668 748.557 L73.3068 748.557 L73.3068 752.492 L53.3995 752.492 L53.3995 748.557 Z" fill="#000000" fill-rule="nonzero" fill-opacity="1" /><path clip-path="url(#clip910)" d="M92.7512 721.011 Q89.1401 721.011 87.3114 724.575 Q85.5058 728.117 85.5058 735.247 Q85.5058 742.353 87.3114 745.918 Q89.1401 749.46 92.7512 749.46 Q96.3854 749.46 98.1909 745.918 Q100.02 742.353 100.02 735.247 Q100.02 728.117 98.1909 724.575 Q96.3854 721.011 92.7512 721.011 M92.7512 717.307 Q98.5613 717.307 101.617 721.913 Q104.696 726.497 104.696 735.247 Q104.696 743.973 101.617 748.58 Q98.5613 753.163 92.7512 753.163 Q86.941 753.163 83.8623 748.58 Q80.8068 743.973 80.8068 735.247 Q80.8068 726.497 83.8623 721.913 Q86.941 717.307 92.7512 717.307 Z" fill="#000000" fill-rule="nonzero" fill-opacity="1" /><path clip-path="url(#clip910)" d="M54.3949 424.044 L62.0337 424.044 L62.0337 397.678 L53.7236 399.345 L53.7236 395.085 L61.9874 393.419 L66.6633 393.419 L66.6633 424.044 L74.3022 424.044 L74.3022 427.979 L54.3949 427.979 L54.3949 424.044 Z" fill="#000000" fill-rule="nonzero" fill-opacity="1" /><path clip-path="url(#clip910)" d="M83.7929 393.419 L102.149 393.419 L102.149 397.354 L88.0753 397.354 L88.0753 405.826 Q89.0938 405.479 90.1123 405.317 Q91.1308 405.132 92.1493 405.132 Q97.9363 405.132 101.316 408.303 Q104.696 411.474 104.696 416.891 Q104.696 422.47 101.223 425.571 Q97.7511 428.65 91.4317 428.65 Q89.2558 428.65 86.9873 428.28 Q84.7419 427.909 82.3346 427.169 L82.3346 422.47 Q84.4179 423.604 86.6401 424.159 Q88.8623 424.715 91.3391 424.715 Q95.3437 424.715 97.6817 422.608 Q100.02 420.502 100.02 416.891 Q100.02 413.28 97.6817 411.173 Q95.3437 409.067 91.3391 409.067 Q89.4641 409.067 87.5892 409.484 Q85.7373 409.9 83.7929 410.78 L83.7929 393.419 Z" fill="#000000" fill-rule="nonzero" fill-opacity="1" /><path clip-path="url(#clip910)" d="M56.6171 99.5305 L72.9365 99.5305 L72.9365 103.466 L50.9921 103.466 L50.9921 99.5305 Q53.6541 96.7759 58.2375 92.1463 Q62.8439 87.4935 64.0245 86.151 Q66.2698 83.6278 67.1494 81.8917 Q68.0522 80.1325 68.0522 78.4427 Q68.0522 75.688 66.1078 73.9519 Q64.1865 72.2158 61.0847 72.2158 Q58.8856 72.2158 56.4319 72.9797 Q54.0014 73.7436 51.2236 75.2945 L51.2236 70.5723 Q54.0477 69.4381 56.5014 68.8594 Q58.955 68.2807 60.9921 68.2807 Q66.3624 68.2807 69.5568 70.9658 Q72.7513 73.651 72.7513 78.1417 Q72.7513 80.2714 71.9411 82.1926 Q71.1541 84.0908 69.0476 86.6834 Q68.4689 87.3546 65.367 90.5722 Q62.2652 93.7667 56.6171 99.5305 Z" fill="#000000" fill-rule="nonzero" fill-opacity="1" /><path clip-path="url(#clip910)" d="M92.7512 71.9844 Q89.1401 71.9844 87.3114 75.5492 Q85.5058 79.0908 85.5058 86.2204 Q85.5058 93.3268 87.3114 96.8916 Q89.1401 100.433 92.7512 100.433 Q96.3854 100.433 98.1909 96.8916 Q100.02 93.3268 100.02 86.2204 Q100.02 79.0908 98.1909 75.5492 Q96.3854 71.9844 92.7512 71.9844 M92.7512 68.2807 Q98.5613 68.2807 101.617 72.8871 Q104.696 77.4704 104.696 86.2204 Q104.696 94.9472 101.617 99.5537 Q98.5613 104.137 92.7512 104.137 Q86.941 104.137 83.8623 99.5537 Q80.8068 94.9472 80.8068 86.2204 Q80.8068 77.4704 83.8623 72.8871 Q86.941 68.2807 92.7512 68.2807 Z" fill="#000000" fill-rule="nonzero" fill-opacity="1" /><polyline clip-path="url(#clip912)" style="stroke:#009af9; stroke-linecap:round; stroke-linejoin:round; stroke-width:8; stroke-opacity:1; fill:none" points="140.696,1384.24 141.701,1384.24 142.707,1384.24 143.713,1384.24 144.719,1384.24 145.725,1384.24 146.731,1384.24 147.737,1384.24 148.743,1384.24 149.749,1384.24 150.755,1384.24 151.761,1384.24 152.767,1384.24 153.773,1384.24 154.779,1384.24 155.785,1384.24 156.791,1384.24 157.797,1384.24 158.802,1384.24 159.808,1384.24 160.814,1384.24 161.82,1384.24 162.826,1384.24 163.832,1384.24 164.838,1384.24 165.844,1384.24 166.85,1384.24 167.856,1384.24 168.862,1384.24 169.868,1384.24 170.874,1384.24 171.88,1384.24 172.886,1384.24 173.892,1384.24 174.897,1384.24 175.903,1384.24 176.909,1384.24 177.915,1384.24 178.921,1384.24 179.927,1384.24 180.933,1384.24 181.939,1384.24 182.945,1384.24 183.951,1384.24 184.957,1384.24 185.963,1384.24 186.969,1384.24 187.975,1384.24 188.981,1384.24 189.987,1384.24 190.993,1384.24 191.998,1384.24 193.004,1384.24 194.01,1384.24 195.016,1384.24 196.022,1384.24 197.028,1384.24 198.034,1384.24 199.04,1384.24 200.046,1384.24 201.052,1384.24 202.058,1384.24 203.064,1384.24 204.07,1384.24 205.076,1384.24 206.082,1384.24 207.088,1384.24 208.093,1384.24 209.099,1384.24 210.105,1384.24 211.111,1384.24 212.117,1384.24 213.123,1384.24 214.129,1384.24 215.135,1384.24 216.141,1384.24 217.147,1384.24 218.153,1384.24 219.159,1384.24 220.165,1384.24 221.171,1384.24 222.177,1384.24 223.183,1384.24 224.188,1384.24 225.194,1384.24 226.2,1384.24 227.206,1384.24 228.212,1384.24 229.218,1384.24 230.224,1384.24 231.23,1384.24 232.236,1384.24 233.242,1384.24 234.248,1384.24 235.254,1384.24 236.26,1384.24 237.266,1384.24 238.272,1384.24 239.278,1384.24 240.284,1384.24 241.289,1384.24 242.295,1384.24 243.301,1384.24 244.307,1384.24 245.313,1384.24 246.319,1384.24 247.325,1384.24 248.331,1384.24 249.337,1384.24 250.343,1384.24 251.349,1384.24 252.355,1384.24 253.361,1384.24 254.367,1384.24 255.373,1384.24 256.379,1384.24 257.384,1384.24 258.39,1384.24 259.396,1384.24 260.402,1384.24 261.408,1384.24 262.414,1384.24 263.42,1319.34 264.426,1319.34 265.432,1319.34 266.438,1319.34 267.444,1319.34 268.45,1319.34 269.456,1319.34 270.462,1319.34 271.468,1319.34 272.474,1319.34 273.48,1319.34 274.485,1319.34 275.491,1319.34 276.497,1319.34 277.503,1319.34 278.509,1319.34 279.515,1319.34 280.521,1319.34 281.527,1319.34 282.533,1319.34 283.539,1319.34 284.545,1319.34 285.551,1319.34 286.557,1319.34 287.563,1319.34 288.569,1319.34 289.575,1319.34 290.58,1319.34 291.586,1319.34 292.592,1319.34 293.598,1319.34 294.604,1319.34 295.61,1319.34 296.616,1319.34 297.622,1319.34 298.628,1319.34 299.634,1319.34 300.64,1319.34 301.646,1319.34 302.652,1319.34 303.658,1319.34 304.664,1319.34 305.67,1319.34 306.676,1319.34 307.681,1319.34 308.687,1319.34 309.693,1319.34 310.699,1319.34 311.705,1319.34 312.711,1319.34 313.717,1319.34 314.723,1319.34 315.729,1319.34 316.735,1319.34 317.741,1319.34 318.747,1319.34 319.753,1319.34 320.759,1319.34 321.765,1319.34 322.771,1319.34 323.776,1319.34 324.782,1319.34 325.788,1319.34 326.794,1319.34 327.8,1319.34 328.806,1319.34 329.812,1319.34 330.818,1319.34 331.824,1319.34 332.83,1319.34 333.836,1319.34 334.842,1319.34 335.848,1319.34 336.854,1319.34 337.86,1319.34 338.866,1319.34 339.872,1319.34 340.877,1319.34 341.883,1319.34 342.889,1319.34 343.895,1319.34 344.901,1319.34 345.907,1319.34 346.913,1319.34 347.919,1319.34 348.925,1319.34 349.931,1319.34 350.937,1319.34 351.943,1319.34 352.949,1319.34 353.955,1319.34 354.961,1319.34 355.967,1319.34 356.972,1319.34 357.978,1319.34 358.984,1319.34 359.99,1319.34 360.996,1319.34 362.002,1319.34 363.008,1319.34 364.014,1319.34 365.02,1319.34 366.026,1319.34 367.032,1319.34 368.038,1319.34 369.044,1319.34 370.05,1319.34 371.056,1319.34 372.062,1319.34 373.068,1319.34 374.073,1319.34 375.079,1319.34 376.085,1319.34 377.091,1319.34 378.097,1319.34 379.103,1319.34 380.109,1319.34 381.115,1319.34 382.121,1319.34 383.127,1319.34 384.133,1319.34 385.139,1319.34 386.145,1319.34 387.151,1319.34 388.157,1319.34 389.163,1319.34 390.168,1319.34 391.174,1319.34 392.18,1319.34 393.186,1319.34 394.192,1319.34 395.198,1319.34 396.204,1319.34 397.21,1319.34 398.216,1319.34 399.222,1319.34 400.228,1319.34 401.234,1319.34 402.24,1319.34 403.246,1319.34 404.252,1319.34 405.258,1319.34 406.263,1319.34 407.269,1319.34 408.275,1319.34 409.281,1319.34 410.287,1319.34 411.293,1319.34 412.299,1319.34 413.305,1319.34 414.311,1319.34 415.317,1319.34 416.323,1319.34 417.329,1319.34 418.335,1319.34 419.341,1319.34 420.347,1319.34 421.353,1319.34 422.359,1319.34 423.364,1319.34 424.37,1319.34 425.376,1319.34 426.382,1319.34 427.388,1319.34 428.394,1319.34 429.4,1319.34 430.406,1319.34 431.412,1319.34 432.418,1319.34 433.424,1319.34 434.43,1319.34 435.436,1319.34 436.442,1319.34 437.448,1319.34 438.454,1319.34 439.459,1319.34 440.465,1319.34 441.471,1319.34 442.477,1319.34 443.483,1319.34 444.489,1319.34 445.495,1319.34 446.501,1319.34 447.507,1319.34 448.513,1319.34 449.519,1319.34 450.525,1319.34 451.531,1319.34 452.537,1319.34 453.543,1319.34 454.549,1319.34 455.555,1319.34 456.56,1319.34 457.566,1319.34 458.572,1319.34 459.578,1319.34 460.584,1319.34 461.59,1319.34 462.596,1319.34 463.602,1319.34 464.608,1319.34 465.614,1319.34 466.62,1319.34 467.626,1319.34 468.632,1254.43 469.638,1254.43 470.644,1254.43 471.65,1254.43 472.655,1254.43 473.661,1254.43 474.667,1254.43 475.673,1254.43 476.679,1254.43 477.685,1254.43 478.691,1254.43 479.697,1254.43 480.703,1254.43 481.709,1254.43 482.715,1254.43 483.721,1254.43 484.727,1254.43 485.733,1254.43 486.739,1254.43 487.745,1254.43 488.751,1254.43 489.756,1254.43 490.762,1254.43 491.768,1254.43 492.774,1254.43 493.78,1254.43 494.786,1254.43 495.792,1254.43 496.798,1254.43 497.804,1254.43 498.81,1254.43 499.816,1254.43 500.822,1254.43 501.828,1254.43 502.834,1254.43 503.84,1254.43 504.846,1254.43 505.851,1254.43 506.857,1254.43 507.863,1254.43 508.869,1254.43 509.875,1254.43 510.881,1254.43 511.887,1254.43 512.893,1254.43 513.899,1254.43 514.905,1254.43 515.911,1254.43 516.917,1189.53 517.923,1189.53 518.929,1189.53 519.935,1189.53 520.941,1189.53 521.947,1189.53 522.952,1189.53 523.958,1189.53 524.964,1189.53 525.97,1189.53 526.976,1189.53 527.982,1189.53 528.988,1189.53 529.994,1189.53 531,1189.53 532.006,1189.53 533.012,1189.53 534.018,1189.53 535.024,1189.53 536.03,1189.53 537.036,1189.53 538.042,1189.53 539.047,1189.53 540.053,1189.53 541.059,1189.53 542.065,1189.53 543.071,1189.53 544.077,1189.53 545.083,1189.53 546.089,1189.53 547.095,1189.53 548.101,1189.53 549.107,1189.53 550.113,1189.53 551.119,1189.53 552.125,1189.53 553.131,1189.53 554.137,1189.53 555.143,1189.53 556.148,1189.53 557.154,1189.53 558.16,1189.53 559.166,1189.53 560.172,1189.53 561.178,1189.53 562.184,1189.53 563.19,1189.53 564.196,1189.53 565.202,1189.53 566.208,1189.53 567.214,1189.53 568.22,1189.53 569.226,1189.53 570.232,1189.53 571.238,1189.53 572.243,1189.53 573.249,1189.53 574.255,1189.53 575.261,1189.53 576.267,1189.53 577.273,1189.53 578.279,1189.53 579.285,1189.53 580.291,1189.53 581.297,1189.53 582.303,1189.53 583.309,1189.53 584.315,1189.53 585.321,1189.53 586.327,1189.53 587.333,1189.53 588.338,1189.53 589.344,1189.53 590.35,1189.53 591.356,1189.53 592.362,1189.53 593.368,1189.53 594.374,1189.53 595.38,1189.53 596.386,1189.53 597.392,1189.53 598.398,1189.53 599.404,1189.53 600.41,1189.53 601.416,1189.53 602.422,1189.53 603.428,1189.53 604.434,1189.53 605.439,1189.53 606.445,1189.53 607.451,1189.53 608.457,1189.53 609.463,1189.53 610.469,1189.53 611.475,1189.53 612.481,1189.53 613.487,1189.53 614.493,1189.53 615.499,1189.53 616.505,1189.53 617.511,1189.53 618.517,1189.53 619.523,1189.53 620.529,1189.53 621.534,1124.63 622.54,1124.63 623.546,1124.63 624.552,1124.63 625.558,1124.63 626.564,1124.63 627.57,1124.63 628.576,1124.63 629.582,1124.63 630.588,1124.63 631.594,1124.63 632.6,1124.63 633.606,1124.63 634.612,1124.63 635.618,1124.63 636.624,1124.63 637.63,1124.63 638.635,1124.63 639.641,1124.63 640.647,1124.63 641.653,1124.63 642.659,1124.63 643.665,1124.63 644.671,1124.63 645.677,1124.63 646.683,1124.63 647.689,1124.63 648.695,1124.63 649.701,1124.63 650.707,1124.63 651.713,1124.63 652.719,1124.63 653.725,1124.63 654.73,1124.63 655.736,1124.63 656.742,1124.63 657.748,1124.63 658.754,1124.63 659.76,1124.63 660.766,1124.63 661.772,1124.63 662.778,1124.63 663.784,1124.63 664.79,1124.63 665.796,1124.63 666.802,1124.63 667.808,1124.63 668.814,1124.63 669.82,1124.63 670.826,1124.63 671.831,1124.63 672.837,1124.63 673.843,1124.63 674.849,1124.63 675.855,1124.63 676.861,1124.63 677.867,1124.63 678.873,1124.63 679.879,1124.63 680.885,1124.63 681.891,1124.63 682.897,1124.63 683.903,1124.63 684.909,1124.63 685.915,1124.63 686.921,1124.63 687.926,1124.63 688.932,1124.63 689.938,1124.63 690.944,1124.63 691.95,1124.63 692.956,1124.63 693.962,1124.63 694.968,1124.63 695.974,1124.63 696.98,1124.63 697.986,1124.63 698.992,1124.63 699.998,1124.63 701.004,1124.63 702.01,1124.63 703.016,1124.63 704.022,1124.63 705.027,1124.63 706.033,1124.63 707.039,1124.63 708.045,1124.63 709.051,1124.63 710.057,1124.63 711.063,1124.63 712.069,1124.63 713.075,1124.63 714.081,1124.63 715.087,1124.63 716.093,1124.63 717.099,1124.63 718.105,1124.63 719.111,1124.63 720.117,1124.63 721.122,1124.63 722.128,1124.63 723.134,1124.63 724.14,1124.63 725.146,1124.63 726.152,1124.63 727.158,1124.63 728.164,1124.63 729.17,1124.63 730.176,1124.63 731.182,1124.63 732.188,1124.63 733.194,1124.63 734.2,1124.63 735.206,1124.63 736.212,1124.63 737.218,1124.63 738.223,1124.63 739.229,1124.63 740.235,1124.63 741.241,1124.63 742.247,1124.63 743.253,1124.63 744.259,1124.63 745.265,1124.63 746.271,1124.63 747.277,1124.63 748.283,1124.63 749.289,1124.63 750.295,1124.63 751.301,1124.63 752.307,1124.63 753.313,1124.63 754.318,1124.63 755.324,1124.63 756.33,1124.63 757.336,1124.63 758.342,1124.63 759.348,1124.63 760.354,1124.63 761.36,1124.63 762.366,1124.63 763.372,1124.63 764.378,1124.63 765.384,1124.63 766.39,1124.63 767.396,1124.63 768.402,1124.63 769.408,1124.63 770.413,1124.63 771.419,1124.63 772.425,1124.63 773.431,1124.63 774.437,1124.63 775.443,1124.63 776.449,1124.63 777.455,1124.63 778.461,1124.63 779.467,1124.63 780.473,1124.63 781.479,1124.63 782.485,1124.63 783.491,1124.63 784.497,1124.63 785.503,1124.63 786.509,1124.63 787.514,1124.63 788.52,1124.63 789.526,1124.63 790.532,1124.63 791.538,1124.63 792.544,1124.63 793.55,1124.63 794.556,1124.63 795.562,1124.63 796.568,1124.63 797.574,1124.63 798.58,1124.63 799.586,1124.63 800.592,1124.63 801.598,1124.63 802.604,1124.63 803.609,1124.63 804.615,1124.63 805.621,1124.63 806.627,1124.63 807.633,1124.63 808.639,1124.63 809.645,1124.63 810.651,1124.63 811.657,1124.63 812.663,1124.63 813.669,1124.63 814.675,1124.63 815.681,1124.63 816.687,1124.63 817.693,1124.63 818.699,1124.63 819.705,1124.63 820.71,1124.63 821.716,1124.63 822.722,1124.63 823.728,1124.63 824.734,1124.63 825.74,1124.63 826.746,1124.63 827.752,1124.63 828.758,1124.63 829.764,1124.63 830.77,1124.63 831.776,1124.63 832.782,1124.63 833.788,1124.63 834.794,1124.63 835.8,1124.63 836.805,1124.63 837.811,1124.63 838.817,1124.63 839.823,1124.63 840.829,1124.63 841.835,1124.63 842.841,1124.63 843.847,1124.63 844.853,1124.63 845.859,1124.63 846.865,1124.63 847.871,1124.63 848.877,1124.63 849.883,1124.63 850.889,1124.63 851.895,1124.63 852.901,1124.63 853.906,1124.63 854.912,1124.63 855.918,1124.63 856.924,1124.63 857.93,1124.63 858.936,1124.63 859.942,1124.63 860.948,1124.63 861.954,1124.63 862.96,1124.63 863.966,1124.63 864.972,1124.63 865.978,1124.63 866.984,1124.63 867.99,1124.63 868.996,1124.63 870.001,1124.63 871.007,1124.63 872.013,1124.63 873.019,1124.63 874.025,1124.63 875.031,1124.63 876.037,1124.63 877.043,1124.63 878.049,1124.63 879.055,1124.63 880.061,1124.63 881.067,1124.63 882.073,1124.63 883.079,1124.63 884.085,1124.63 885.091,1124.63 886.097,1124.63 887.102,1124.63 888.108,1124.63 889.114,1124.63 890.12,1124.63 891.126,1124.63 892.132,1124.63 893.138,1124.63 894.144,1124.63 895.15,1124.63 896.156,1124.63 897.162,1124.63 898.168,1124.63 899.174,1124.63 900.18,1124.63 901.186,1124.63 902.192,1124.63 903.197,1124.63 904.203,1124.63 905.209,1124.63 906.215,1124.63 907.221,1124.63 908.227,1124.63 909.233,1124.63 910.239,1124.63 911.245,1124.63 912.251,1124.63 913.257,1124.63 914.263,1124.63 915.269,1124.63 916.275,1124.63 917.281,1124.63 918.287,1124.63 919.293,1124.63 920.298,1124.63 921.304,1124.63 922.31,1124.63 923.316,1124.63 924.322,1124.63 925.328,1124.63 926.334,1124.63 927.34,1124.63 928.346,1124.63 929.352,1124.63 930.358,1124.63 931.364,1124.63 932.37,1124.63 933.376,1124.63 934.382,1124.63 935.388,1124.63 936.393,1124.63 937.399,1124.63 938.405,1124.63 939.411,1124.63 940.417,1124.63 941.423,1124.63 942.429,1124.63 943.435,1124.63 944.441,1124.63 945.447,1124.63 946.453,1124.63 947.459,1124.63 948.465,1124.63 949.471,1124.63 950.477,1124.63 951.483,1124.63 952.488,1124.63 953.494,1124.63 954.5,1124.63 955.506,1124.63 956.512,1124.63 957.518,1124.63 958.524,1124.63 959.53,1124.63 960.536,1124.63 961.542,1124.63 962.548,1124.63 963.554,1124.63 964.56,1124.63 965.566,1124.63 966.572,1124.63 967.578,1124.63 968.584,1124.63 969.589,1124.63 970.595,1124.63 971.601,1124.63 972.607,1124.63 973.613,1124.63 974.619,1124.63 975.625,1124.63 976.631,1124.63 977.637,1124.63 978.643,1124.63 979.649,1124.63 980.655,1124.63 981.661,1124.63 982.667,1124.63 983.673,1124.63 984.679,1124.63 985.684,1124.63 986.69,1124.63 987.696,1124.63 988.702,1124.63 989.708,1124.63 990.714,1124.63 991.72,1124.63 992.726,1124.63 993.732,1124.63 994.738,1124.63 995.744,1124.63 996.75,1124.63 997.756,1124.63 998.762,1124.63 999.768,1124.63 1000.77,1124.63 1001.78,1124.63 1002.79,1124.63 1003.79,1124.63 1004.8,1124.63 1005.8,1124.63 1006.81,1124.63 1007.82,1124.63 1008.82,1124.63 1009.83,1124.63 1010.83,1124.63 1011.84,1124.63 1012.84,1124.63 1013.85,1124.63 1014.86,1124.63 1015.86,1059.73 1016.87,1059.73 1017.87,1059.73 1018.88,1059.73 1019.89,1059.73 1020.89,1059.73 1021.9,1059.73 1022.9,1059.73 1023.91,1059.73 1024.92,1059.73 1025.92,1059.73 1026.93,1059.73 1027.93,1059.73 1028.94,1059.73 1029.95,1059.73 1030.95,1059.73 1031.96,1059.73 1032.96,1059.73 1033.97,1059.73 1034.98,1059.73 1035.98,1059.73 1036.99,1059.73 1037.99,1059.73 1039,1059.73 1040.01,1059.73 1041.01,1059.73 1042.02,1059.73 1043.02,1059.73 1044.03,1059.73 1045.03,1059.73 1046.04,1059.73 1047.05,1059.73 1048.05,1059.73 1049.06,1059.73 1050.06,1059.73 1051.07,1059.73 1052.08,1059.73 1053.08,1059.73 1054.09,1059.73 1055.09,1059.73 1056.1,1059.73 1057.11,1059.73 1058.11,1059.73 1059.12,1059.73 1060.12,1059.73 1061.13,1059.73 1062.14,1059.73 1063.14,1059.73 1064.15,1059.73 1065.15,1059.73 1066.16,1059.73 1067.17,1059.73 1068.17,1059.73 1069.18,1059.73 1070.18,1059.73 1071.19,1059.73 1072.2,1059.73 1073.2,1059.73 1074.21,1059.73 1075.21,1059.73 1076.22,1059.73 1077.22,1059.73 1078.23,1059.73 1079.24,1059.73 1080.24,1059.73 1081.25,1059.73 1082.25,1059.73 1083.26,1059.73 1084.27,1059.73 1085.27,1059.73 1086.28,1059.73 1087.28,1059.73 1088.29,1059.73 1089.3,1059.73 1090.3,1059.73 1091.31,1059.73 1092.31,1059.73 1093.32,1059.73 1094.33,1059.73 1095.33,1059.73 1096.34,1059.73 1097.34,1059.73 1098.35,1059.73 1099.36,1059.73 1100.36,1059.73 1101.37,1059.73 1102.37,1059.73 1103.38,1059.73 1104.39,1059.73 1105.39,1059.73 1106.4,1059.73 1107.4,1059.73 1108.41,1059.73 1109.42,1059.73 1110.42,1059.73 1111.43,1059.73 1112.43,1059.73 1113.44,1059.73 1114.44,1059.73 1115.45,1059.73 1116.46,1059.73 1117.46,1059.73 1118.47,1059.73 1119.47,1059.73 1120.48,1059.73 1121.49,1059.73 1122.49,1059.73 1123.5,1059.73 1124.5,1059.73 1125.51,1059.73 1126.52,1059.73 1127.52,1059.73 1128.53,1059.73 1129.53,1059.73 1130.54,1059.73 1131.55,1059.73 1132.55,994.822 1133.56,994.822 1134.56,994.822 1135.57,994.822 1136.58,994.822 1137.58,994.822 1138.59,994.822 1139.59,994.822 1140.6,994.822 1141.61,994.822 1142.61,994.822 1143.62,994.822 1144.62,994.822 1145.63,994.822 1146.63,994.822 1147.64,994.822 1148.65,994.822 1149.65,994.822 1150.66,994.822 1151.66,994.822 1152.67,994.822 1153.68,994.822 1154.68,994.822 1155.69,994.822 1156.69,994.822 1157.7,994.822 1158.71,994.822 1159.71,994.822 1160.72,994.822 1161.72,994.822 1162.73,994.822 1163.74,994.822 1164.74,994.822 1165.75,994.822 1166.75,994.822 1167.76,994.822 1168.77,994.822 1169.77,994.822 1170.78,994.822 1171.78,994.822 1172.79,994.822 1173.8,994.822 1174.8,994.822 1175.81,994.822 1176.81,994.822 1177.82,994.822 1178.82,994.822 1179.83,994.822 1180.84,994.822 1181.84,994.822 1182.85,994.822 1183.85,994.822 1184.86,994.822 1185.87,994.822 1186.87,994.822 1187.88,994.822 1188.88,994.822 1189.89,994.822 1190.9,994.822 1191.9,994.822 1192.91,994.822 1193.91,994.822 1194.92,994.822 1195.93,994.822 1196.93,994.822 1197.94,994.822 1198.94,994.822 1199.95,994.822 1200.96,994.822 1201.96,994.822 1202.97,994.822 1203.97,994.822 1204.98,994.822 1205.99,994.822 1206.99,994.822 1208,994.822 1209,994.822 1210.01,994.822 1211.01,994.822 1212.02,994.822 1213.03,994.822 1214.03,994.822 1215.04,994.822 1216.04,994.822 1217.05,994.822 1218.06,994.822 1219.06,994.822 1220.07,994.822 1221.07,994.822 1222.08,994.822 1223.09,994.822 1224.09,994.822 1225.1,994.822 1226.1,994.822 1227.11,994.822 1228.12,994.822 1229.12,994.822 1230.13,994.822 1231.13,994.822 1232.14,994.822 1233.15,994.822 1234.15,994.822 1235.16,994.822 1236.16,994.822 1237.17,994.822 1238.18,929.92 1239.18,929.92 1240.19,929.92 1241.19,929.92 1242.2,929.92 1243.2,929.92 1244.21,929.92 1245.22,929.92 1246.22,929.92 1247.23,929.92 1248.23,929.92 1249.24,929.92 1250.25,929.92 1251.25,929.92 1252.26,929.92 1253.26,929.92 1254.27,929.92 1255.28,929.92 1256.28,929.92 1257.29,929.92 1258.29,929.92 1259.3,929.92 1260.31,865.017 1261.31,865.017 1262.32,865.017 1263.32,865.017 1264.33,865.017 1265.34,865.017 1266.34,865.017 1267.35,865.017 1268.35,865.017 1269.36,865.017 1270.37,865.017 1271.37,865.017 1272.38,865.017 1273.38,865.017 1274.39,865.017 1275.39,865.017 1276.4,865.017 1277.41,865.017 1278.41,865.017 1279.42,865.017 1280.42,865.017 1281.43,865.017 1282.44,865.017 1283.44,865.017 1284.45,865.017 1285.45,865.017 1286.46,865.017 1287.47,865.017 1288.47,865.017 1289.48,865.017 1290.48,865.017 1291.49,865.017 1292.5,865.017 1293.5,865.017 1294.51,865.017 1295.51,865.017 1296.52,865.017 1297.53,865.017 1298.53,865.017 1299.54,865.017 1300.54,865.017 1301.55,865.017 1302.56,800.115 1303.56,800.115 1304.57,800.115 1305.57,800.115 1306.58,800.115 1307.59,800.115 1308.59,800.115 1309.6,800.115 1310.6,800.115 1311.61,800.115 1312.61,800.115 1313.62,800.115 1314.63,800.115 1315.63,800.115 1316.64,800.115 1317.64,800.115 1318.65,800.115 1319.66,800.115 1320.66,800.115 1321.67,800.115 1322.67,800.115 1323.68,800.115 1324.69,800.115 1325.69,800.115 1326.7,800.115 1327.7,800.115 1328.71,800.115 1329.72,800.115 1330.72,800.115 1331.73,800.115 1332.73,800.115 1333.74,800.115 1334.75,800.115 1335.75,800.115 1336.76,735.212 1337.76,735.212 1338.77,735.212 1339.78,735.212 1340.78,735.212 1341.79,735.212 1342.79,735.212 1343.8,735.212 1344.8,735.212 1345.81,735.212 1346.82,735.212 1347.82,735.212 1348.83,735.212 1349.83,735.212 1350.84,670.309 1351.85,670.309 1352.85,670.309 1353.86,670.309 1354.86,670.309 1355.87,670.309 1356.88,670.309 1357.88,605.407 1358.89,605.407 1359.89,605.407 1360.9,605.407 1361.91,605.407 1362.91,605.407 1363.92,605.407 1364.92,605.407 1365.93,605.407 1366.94,605.407 1367.94,605.407 1368.95,605.407 1369.95,605.407 1370.96,605.407 1371.97,605.407 1372.97,605.407 1373.98,605.407 1374.98,605.407 1375.99,605.407 1376.99,605.407 1378,605.407 1379.01,605.407 1380.01,605.407 1381.02,605.407 1382.02,605.407 1383.03,605.407 1384.04,605.407 1385.04,605.407 1386.05,605.407 1387.05,605.407 1388.06,605.407 1389.07,605.407 1390.07,605.407 1391.08,605.407 1392.08,605.407 1393.09,605.407 1394.1,605.407 1395.1,605.407 1396.11,605.407 1397.11,605.407 1398.12,605.407 1399.13,605.407 1400.13,605.407 1401.14,605.407 1402.14,605.407 1403.15,605.407 1404.16,605.407 1405.16,605.407 1406.17,605.407 1407.17,605.407 1408.18,605.407 1409.18,605.407 1410.19,605.407 1411.2,605.407 1412.2,605.407 1413.21,605.407 1414.21,605.407 1415.22,605.407 1416.23,605.407 1417.23,605.407 1418.24,605.407 1419.24,605.407 1420.25,605.407 1421.26,605.407 1422.26,605.407 1423.27,605.407 1424.27,605.407 1425.28,540.504 1426.29,540.504 1427.29,540.504 1428.3,540.504 1429.3,540.504 1430.31,540.504 1431.32,540.504 1432.32,540.504 1433.33,540.504 1434.33,540.504 1435.34,540.504 1436.35,540.504 1437.35,540.504 1438.36,540.504 1439.36,540.504 1440.37,540.504 1441.37,540.504 1442.38,540.504 1443.39,540.504 1444.39,540.504 1445.4,540.504 1446.4,540.504 1447.41,540.504 1448.42,540.504 1449.42,540.504 1450.43,540.504 1451.43,540.504 1452.44,540.504 1453.45,540.504 1454.45,540.504 1455.46,540.504 1456.46,540.504 1457.47,540.504 1458.48,540.504 1459.48,540.504 1460.49,540.504 1461.49,540.504 1462.5,540.504 1463.51,540.504 1464.51,540.504 1465.52,540.504 1466.52,540.504 1467.53,540.504 1468.54,540.504 1469.54,540.504 1470.55,540.504 1471.55,540.504 1472.56,540.504 1473.57,540.504 1474.57,540.504 1475.58,540.504 1476.58,540.504 1477.59,475.601 1478.59,475.601 1479.6,475.601 1480.61,475.601 1481.61,475.601 1482.62,475.601 1483.62,475.601 1484.63,475.601 1485.64,475.601 1486.64,475.601 1487.65,410.699 1488.65,410.699 1489.66,410.699 1490.67,410.699 1491.67,410.699 1492.68,410.699 1493.68,410.699 1494.69,410.699 1495.7,410.699 1496.7,410.699 1497.71,410.699 1498.71,410.699 1499.72,410.699 1500.73,410.699 1501.73,410.699 1502.74,410.699 1503.74,410.699 1504.75,410.699 1505.76,410.699 1506.76,410.699 1507.77,410.699 1508.77,410.699 1509.78,410.699 1510.78,410.699 1511.79,410.699 1512.8,410.699 1513.8,410.699 1514.81,410.699 1515.81,410.699 1516.82,410.699 1517.83,410.699 1518.83,410.699 1519.84,410.699 1520.84,410.699 1521.85,410.699 1522.86,410.699 1523.86,410.699 1524.87,410.699 1525.87,410.699 1526.88,410.699 1527.89,410.699 1528.89,410.699 1529.9,410.699 1530.9,410.699 1531.91,410.699 1532.92,410.699 1533.92,410.699 1534.93,410.699 1535.93,410.699 1536.94,410.699 1537.95,410.699 1538.95,410.699 1539.96,410.699 1540.96,410.699 1541.97,410.699 1542.97,410.699 1543.98,410.699 1544.99,410.699 1545.99,410.699 1547,410.699 1548,410.699 1549.01,410.699 1550.02,410.699 1551.02,410.699 1552.03,410.699 1553.03,410.699 1554.04,410.699 1555.05,410.699 1556.05,410.699 1557.06,410.699 1558.06,410.699 1559.07,410.699 1560.08,410.699 1561.08,410.699 1562.09,410.699 1563.09,410.699 1564.1,410.699 1565.11,410.699 1566.11,410.699 1567.12,410.699 1568.12,410.699 1569.13,410.699 1570.14,410.699 1571.14,410.699 1572.15,410.699 1573.15,410.699 1574.16,410.699 1575.16,410.699 1576.17,410.699 1577.18,410.699 1578.18,410.699 1579.19,410.699 1580.19,410.699 1581.2,410.699 1582.21,410.699 1583.21,410.699 1584.22,410.699 1585.22,410.699 1586.23,410.699 1587.24,410.699 1588.24,410.699 1589.25,410.699 1590.25,410.699 1591.26,410.699 1592.27,410.699 1593.27,410.699 1594.28,410.699 1595.28,410.699 1596.29,410.699 1597.3,410.699 1598.3,410.699 1599.31,410.699 1600.31,410.699 1601.32,410.699 1602.33,410.699 1603.33,410.699 1604.34,410.699 1605.34,410.699 1606.35,410.699 1607.35,410.699 1608.36,410.699 1609.37,410.699 1610.37,410.699 1611.38,410.699 1612.38,410.699 1613.39,410.699 1614.4,410.699 1615.4,410.699 1616.41,410.699 1617.41,410.699 1618.42,410.699 1619.43,410.699 1620.43,410.699 1621.44,410.699 1622.44,410.699 1623.45,410.699 1624.46,410.699 1625.46,410.699 1626.47,410.699 1627.47,410.699 1628.48,410.699 1629.49,410.699 1630.49,410.699 1631.5,410.699 1632.5,410.699 1633.51,410.699 1634.52,410.699 1635.52,410.699 1636.53,410.699 1637.53,410.699 1638.54,410.699 1639.54,410.699 1640.55,410.699 1641.56,410.699 1642.56,410.699 1643.57,410.699 1644.57,410.699 1645.58,410.699 1646.59,410.699 1647.59,410.699 1648.6,410.699 1649.6,410.699 1650.61,410.699 1651.62,410.699 1652.62,410.699 1653.63,410.699 1654.63,410.699 1655.64,410.699 1656.65,410.699 1657.65,410.699 1658.66,410.699 1659.66,410.699 1660.67,410.699 1661.68,410.699 1662.68,410.699 1663.69,410.699 1664.69,410.699 1665.7,410.699 1666.71,410.699 1667.71,345.796 1668.72,345.796 1669.72,345.796 1670.73,345.796 1671.74,345.796 1672.74,345.796 1673.75,345.796 1674.75,345.796 1675.76,345.796 1676.76,345.796 1677.77,345.796 1678.78,345.796 1679.78,345.796 1680.79,345.796 1681.79,345.796 1682.8,345.796 1683.81,345.796 1684.81,345.796 1685.82,345.796 1686.82,345.796 1687.83,345.796 1688.84,345.796 1689.84,345.796 1690.85,345.796 1691.85,345.796 1692.86,345.796 1693.87,345.796 1694.87,345.796 1695.88,345.796 1696.88,345.796 1697.89,345.796 1698.9,345.796 1699.9,345.796 1700.91,345.796 1701.91,345.796 1702.92,345.796 1703.93,345.796 1704.93,345.796 1705.94,345.796 1706.94,345.796 1707.95,345.796 1708.95,345.796 1709.96,345.796 1710.97,345.796 1711.97,345.796 1712.98,345.796 1713.98,345.796 1714.99,345.796 1716,345.796 1717,345.796 1718.01,345.796 1719.01,345.796 1720.02,345.796 1721.03,345.796 1722.03,345.796 1723.04,345.796 1724.04,345.796 1725.05,345.796 1726.06,345.796 1727.06,345.796 1728.07,345.796 1729.07,345.796 1730.08,345.796 1731.09,345.796 1732.09,345.796 1733.1,345.796 1734.1,345.796 1735.11,345.796 1736.12,345.796 1737.12,345.796 1738.13,345.796 1739.13,345.796 1740.14,345.796 1741.14,345.796 1742.15,345.796 1743.16,280.894 1744.16,280.894 1745.17,280.894 1746.17,280.894 1747.18,280.894 1748.19,280.894 1749.19,280.894 1750.2,280.894 1751.2,280.894 1752.21,280.894 1753.22,280.894 1754.22,280.894 1755.23,280.894 1756.23,280.894 1757.24,280.894 1758.25,280.894 1759.25,280.894 1760.26,280.894 1761.26,280.894 1762.27,280.894 1763.28,280.894 1764.28,280.894 1765.29,280.894 1766.29,280.894 1767.3,280.894 1768.31,280.894 1769.31,280.894 1770.32,280.894 1771.32,280.894 1772.33,280.894 1773.33,280.894 1774.34,280.894 1775.35,280.894 1776.35,215.991 1777.36,215.991 1778.36,215.991 1779.37,215.991 1780.38,215.991 1781.38,215.991 1782.39,215.991 1783.39,215.991 1784.4,215.991 1785.41,215.991 1786.41,215.991 1787.42,215.991 1788.42,215.991 1789.43,215.991 1790.44,215.991 1791.44,215.991 1792.45,215.991 1793.45,215.991 1794.46,215.991 1795.47,215.991 1796.47,215.991 1797.48,215.991 1798.48,215.991 1799.49,215.991 1800.5,215.991 1801.5,215.991 1802.51,215.991 1803.51,215.991 1804.52,215.991 1805.52,215.991 1806.53,215.991 1807.54,215.991 1808.54,215.991 1809.55,215.991 1810.55,215.991 1811.56,215.991 1812.57,215.991 1813.57,215.991 1814.58,215.991 1815.58,215.991 1816.59,215.991 1817.6,215.991 1818.6,215.991 1819.61,215.991 1820.61,215.991 1821.62,215.991 1822.63,215.991 1823.63,215.991 1824.64,215.991 1825.64,215.991 1826.65,215.991 1827.66,215.991 1828.66,215.991 1829.67,215.991 1830.67,215.991 1831.68,215.991 1832.69,215.991 1833.69,215.991 1834.7,215.991 1835.7,215.991 1836.71,215.991 1837.72,215.991 1838.72,215.991 1839.73,215.991 1840.73,215.991 1841.74,215.991 1842.74,215.991 1843.75,215.991 1844.76,215.991 1845.76,215.991 1846.77,215.991 1847.77,215.991 1848.78,215.991 1849.79,215.991 1850.79,215.991 1851.8,215.991 1852.8,215.991 1853.81,215.991 1854.82,215.991 1855.82,215.991 1856.83,215.991 1857.83,215.991 1858.84,215.991 1859.85,215.991 1860.85,215.991 1861.86,215.991 1862.86,215.991 1863.87,215.991 1864.88,215.991 1865.88,215.991 1866.89,215.991 1867.89,215.991 1868.9,215.991 1869.91,215.991 1870.91,215.991 1871.92,215.991 1872.92,215.991 1873.93,215.991 1874.93,215.991 1875.94,215.991 1876.95,215.991 1877.95,215.991 1878.96,151.088 1879.96,151.088 1880.97,151.088 1881.98,151.088 1882.98,151.088 1883.99,151.088 1884.99,151.088 1886,151.088 1887.01,151.088 1888.01,151.088 1889.02,151.088 1890.02,151.088 1891.03,151.088 1892.04,151.088 1893.04,151.088 1894.05,151.088 1895.05,151.088 1896.06,151.088 1897.07,151.088 1898.07,151.088 1899.08,151.088 1900.08,151.088 1901.09,151.088 1902.1,151.088 1903.1,151.088 1904.11,151.088 1905.11,151.088 1906.12,151.088 1907.12,151.088 1908.13,151.088 1909.14,151.088 1910.14,151.088 1911.15,151.088 1912.15,151.088 1913.16,151.088 1914.17,151.088 1915.17,151.088 1916.18,151.088 1917.18,151.088 1918.19,151.088 1919.2,151.088 1920.2,151.088 1921.21,151.088 1922.21,151.088 1923.22,151.088 1924.23,151.088 1925.23,151.088 1926.24,151.088 1927.24,151.088 1928.25,151.088 1929.26,151.088 1930.26,151.088 1931.27,151.088 1932.27,151.088 1933.28,151.088 1934.29,151.088 1935.29,151.088 1936.3,151.088 1937.3,151.088 1938.31,151.088 1939.31,151.088 1940.32,151.088 1941.33,151.088 1942.33,151.088 1943.34,151.088 1944.34,151.088 1945.35,151.088 1946.36,151.088 1947.36,151.088 1948.37,151.088 1949.37,151.088 1950.38,151.088 1951.39,151.088 1952.39,151.088 1953.4,151.088 1954.4,151.088 1955.41,151.088 1956.42,151.088 1957.42,151.088 1958.43,151.088 1959.43,151.088 1960.44,151.088 1961.45,151.088 1962.45,151.088 1963.46,151.088 1964.46,151.088 1965.47,151.088 1966.48,151.088 1967.48,151.088 1968.49,151.088 1969.49,151.088 1970.5,151.088 1971.5,151.088 1972.51,151.088 1973.52,151.088 1974.52,151.088 1975.53,151.088 1976.53,151.088 1977.54,151.088 1978.55,151.088 1979.55,151.088 1980.56,151.088 1981.56,151.088 1982.57,151.088 1983.58,151.088 1984.58,151.088 1985.59,151.088 1986.59,151.088 1987.6,151.088 1988.61,151.088 1989.61,151.088 1990.62,151.088 1991.62,151.088 1992.63,151.088 1993.64,151.088 1994.64,151.088 1995.65,151.088 1996.65,151.088 1997.66,151.088 1998.67,151.088 1999.67,151.088 2000.68,151.088 2001.68,151.088 2002.69,151.088 2003.69,151.088 2004.7,151.088 2005.71,151.088 2006.71,151.088 2007.72,151.088 2008.72,151.088 2009.73,151.088 2010.74,151.088 2011.74,151.088 2012.75,151.088 2013.75,151.088 2014.76,151.088 2015.77,151.088 2016.77,151.088 2017.78,151.088 2018.78,151.088 2019.79,151.088 2020.8,151.088 2021.8,151.088 2022.81,151.088 2023.81,151.088 2024.82,151.088 2025.83,151.088 2026.83,151.088 2027.84,151.088 2028.84,151.088 2029.85,151.088 2030.86,151.088 2031.86,151.088 2032.87,151.088 2033.87,151.088 2034.88,151.088 2035.89,151.088 2036.89,151.088 2037.9,151.088 2038.9,151.088 2039.91,151.088 2040.91,151.088 2041.92,151.088 2042.93,151.088 2043.93,151.088 2044.94,151.088 2045.94,151.088 2046.95,151.088 2047.96,151.088 2048.96,151.088 2049.97,151.088 2050.97,151.088 2051.98,151.088 2052.99,151.088 2053.99,151.088 2055,151.088 2056,151.088 2057.01,151.088 2058.02,151.088 2059.02,151.088 2060.03,151.088 2061.03,151.088 2062.04,151.088 2063.05,151.088 2064.05,151.088 2065.06,151.088 2066.06,151.088 2067.07,151.088 2068.08,151.088 2069.08,151.088 2070.09,151.088 2071.09,151.088 2072.1,151.088 2073.1,151.088 2074.11,151.088 2075.12,151.088 2076.12,151.088 2077.13,151.088 2078.13,151.088 2079.14,151.088 2080.15,151.088 2081.15,151.088 2082.16,151.088 2083.16,151.088 2084.17,151.088 2085.18,151.088 2086.18,151.088 2087.19,151.088 2088.19,151.088 2089.2,151.088 2090.21,151.088 2091.21,151.088 2092.22,151.088 2093.22,151.088 2094.23,151.088 2095.24,151.088 2096.24,151.088 2097.25,151.088 2098.25,151.088 2099.26,151.088 2100.27,151.088 2101.27,151.088 2102.28,151.088 2103.28,151.088 2104.29,151.088 2105.29,151.088 2106.3,151.088 2107.31,151.088 2108.31,151.088 2109.32,151.088 2110.32,151.088 2111.33,151.088 2112.34,151.088 2113.34,151.088 2114.35,151.088 2115.35,151.088 2116.36,151.088 2117.37,151.088 2118.37,151.088 2119.38,151.088 2120.38,151.088 2121.39,151.088 2122.4,151.088 2123.4,151.088 2124.41,151.088 2125.41,151.088 2126.42,151.088 2127.43,151.088 2128.43,151.088 2129.44,151.088 2130.44,151.088 2131.45,151.088 2132.46,151.088 2133.46,151.088 2134.47,151.088 2135.47,151.088 2136.48,151.088 2137.48,151.088 2138.49,151.088 2139.5,151.088 2140.5,151.088 2141.51,151.088 2142.51,151.088 2143.52,151.088 2144.53,151.088 2145.53,151.088 2146.54,151.088 2147.54,151.088 2148.55,151.088 2149.56,151.088 2150.56,151.088 2151.57,151.088 2152.57,151.088 2153.58,151.088 2154.59,151.088 2155.59,151.088 2156.6,151.088 2157.6,151.088 2158.61,151.088 2159.62,151.088 2160.62,151.088 2161.63,151.088 2162.63,151.088 2163.64,151.088 2164.65,151.088 2165.65,151.088 2166.66,151.088 2167.66,151.088 2168.67,151.088 2169.67,151.088 2170.68,151.088 2171.69,151.088 2172.69,151.088 2173.7,151.088 2174.7,151.088 2175.71,151.088 2176.72,151.088 2177.72,151.088 2178.73,151.088 2179.73,151.088 2180.74,151.088 2181.75,151.088 2182.75,151.088 2183.76,151.088 2184.76,151.088 2185.77,151.088 2186.78,151.088 2187.78,151.088 2188.79,151.088 2189.79,151.088 2190.8,151.088 2191.81,151.088 2192.81,151.088 2193.82,151.088 2194.82,151.088 2195.83,151.088 2196.84,151.088 2197.84,151.088 2198.85,151.088 2199.85,151.088 2200.86,151.088 2201.87,151.088 2202.87,151.088 2203.88,151.088 2204.88,151.088 2205.89,151.088 2206.89,151.088 2207.9,151.088 2208.91,151.088 2209.91,151.088 2210.92,151.088 2211.92,151.088 2212.93,151.088 2213.94,151.088 2214.94,151.088 2215.95,151.088 2216.95,151.088 2217.96,151.088 2218.97,151.088 2219.97,151.088 2220.98,151.088 2221.98,151.088 2222.99,151.088 2224,151.088 2225,151.088 2226.01,151.088 2227.01,151.088 2228.02,151.088 2229.03,151.088 2230.03,151.088 2231.04,151.088 2232.04,151.088 2233.05,151.088 2234.06,151.088 2235.06,151.088 2236.07,151.088 2237.07,151.088 2238.08,151.088 2239.08,151.088 2240.09,151.088 2241.1,151.088 2242.1,151.088 2243.11,151.088 2244.11,151.088 2245.12,151.088 2246.13,151.088 2247.13,151.088 2248.14,151.088 2249.14,151.088 2250.15,151.088 2251.16,151.088 2252.16,151.088 2253.17,151.088 2254.17,151.088 2255.18,151.088 2256.19,151.088 2257.19,151.088 2258.2,151.088 2259.2,151.088 2260.21,151.088 2261.22,151.088 2262.22,151.088 2263.23,151.088 2264.23,151.088 2265.24,151.088 2266.25,151.088 2267.25,151.088 2268.26,151.088 2269.26,151.088 2270.27,151.088 2271.27,151.088 2272.28,151.088 2273.29,151.088 2274.29,151.088 2275.3,151.088 2276.3,151.088 2277.31,151.088 2278.32,151.088 2279.32,151.088 2280.33,151.088 2281.33,151.088 2282.34,151.088 2283.35,151.088 2284.35,151.088 2285.36,151.088 2286.36,151.088 2287.37,151.088 2288.38,151.088 2289.38,151.088 2290.39,151.088 2291.39,151.088 2292.4,151.088 2293.41,151.088 2294.41,151.088 2295.42,151.088 2296.42,151.088 2297.43,151.088 2298.44,151.088 2299.44,151.088 2300.45,151.088 2301.45,151.088 2302.46,151.088 2303.46,151.088 2304.47,151.088 2305.48,151.088 2306.48,151.088 2307.49,151.088 2308.49,151.088 2309.5,151.088 2310.51,151.088 2311.51,151.088 2312.52,151.088 2313.52,86.1857 2314.53,86.1857 2315.54,86.1857 2316.54,86.1857 2317.55,86.1857 2318.55,86.1857 2319.56,86.1857 2320.57,86.1857 2321.57,86.1857 2322.58,86.1857 2323.58,86.1857 2324.59,86.1857 2325.6,86.1857 2326.6,86.1857 2327.61,86.1857 2328.61,86.1857 2329.62,86.1857 2330.63,86.1857 2331.63,86.1857 2332.64,86.1857 2333.64,86.1857 2334.65,86.1857 2335.65,86.1857 2336.66,86.1857 2337.67,86.1857 2338.67,86.1857 2339.68,86.1857 2340.68,86.1857 2341.69,86.1857 2342.7,86.1857 2343.7,86.1857 2344.71,86.1857 2345.71,86.1857 2346.72,86.1857 2347.73,86.1857 2348.73,86.1857 2349.74,86.1857 2350.74,86.1857 2351.75,86.1857 2352.76,86.1857 "/>
<path clip-path="url(#clip910)" d="M1975.5 1377.32 L2279.02 1377.32 L2279.02 1273.64 L1975.5 1273.64  Z" fill="#ffffff" fill-rule="evenodd" fill-opacity="1"/>
<polyline clip-path="url(#clip910)" style="stroke:#000000; stroke-linecap:round; stroke-linejoin:round; stroke-width:4; stroke-opacity:1; fill:none" points="1975.5,1377.32 2279.02,1377.32 2279.02,1273.64 1975.5,1273.64 1975.5,1377.32 "/>
<polyline clip-path="url(#clip910)" style="stroke:#009af9; stroke-linecap:round; stroke-linejoin:round; stroke-width:8; stroke-opacity:1; fill:none" points="2000.08,1325.48 2147.55,1325.48 "/>
<path clip-path="url(#clip910)" d="M2172.13 1308.2 L2178.42 1308.2 L2193.75 1337.11 L2193.75 1308.2 L2198.29 1308.2 L2198.29 1342.76 L2191.99 1342.76 L2176.66 1313.84 L2176.66 1342.76 L2172.13 1342.76 L2172.13 1308.2 Z" fill="#000000" fill-rule="nonzero" fill-opacity="1" /><path clip-path="url(#clip910)" d="M2217.64 1306.78 Q2214.53 1312.11 2213.03 1317.32 Q2211.53 1322.52 2211.53 1327.87 Q2211.53 1333.22 2213.03 1338.47 Q2214.56 1343.7 2217.64 1349.01 L2213.93 1349.01 Q2210.46 1343.57 2208.72 1338.31 Q2207.01 1333.06 2207.01 1327.87 Q2207.01 1322.71 2208.72 1317.48 Q2210.44 1312.25 2213.93 1306.78 L2217.64 1306.78 Z" fill="#000000" fill-rule="nonzero" fill-opacity="1" /><path clip-path="url(#clip910)" d="M2230.11 1309.47 L2230.11 1316.83 L2238.89 1316.83 L2238.89 1320.14 L2230.11 1320.14 L2230.11 1334.21 Q2230.11 1337.38 2230.97 1338.29 Q2231.85 1339.19 2234.51 1339.19 L2238.89 1339.19 L2238.89 1342.76 L2234.51 1342.76 Q2229.58 1342.76 2227.71 1340.93 Q2225.83 1339.07 2225.83 1334.21 L2225.83 1320.14 L2222.71 1320.14 L2222.71 1316.83 L2225.83 1316.83 L2225.83 1309.47 L2230.11 1309.47 Z" fill="#000000" fill-rule="nonzero" fill-opacity="1" /><path clip-path="url(#clip910)" d="M2243.82 1306.78 L2247.52 1306.78 Q2250.99 1312.25 2252.71 1317.48 Q2254.44 1322.71 2254.44 1327.87 Q2254.44 1333.06 2252.71 1338.31 Q2250.99 1343.57 2247.52 1349.01 L2243.82 1349.01 Q2246.9 1343.7 2248.4 1338.47 Q2249.93 1333.22 2249.93 1327.87 Q2249.93 1322.52 2248.4 1317.32 Q2246.9 1312.11 2243.82 1306.78 Z" fill="#000000" fill-rule="nonzero" fill-opacity="1" /></svg>
