<?xml version="1.0" encoding="utf-8"?>
<svg xmlns="http://www.w3.org/2000/svg" xmlns:xlink="http://www.w3.org/1999/xlink" width="600" height="400" viewBox="0 0 2400 1600">
<defs>
  <clipPath id="clip620">
    <rect x="0" y="0" width="2400" height="1600"/>
  </clipPath>
</defs>
<path clip-path="url(#clip620)" d="M0 1600 L2400 1600 L2400 0 L0 0  Z" fill="#ffffff" fill-rule="evenodd" fill-opacity="1"/>
<defs>
  <clipPath id="clip621">
    <rect x="138" y="47" width="2215" height="1377"/>
  </clipPath>
</defs>
<path clip-path="url(#clip620)" d="M138.959 1423.18 L2352.76 1423.18 L2352.76 47.2441 L138.959 47.2441  Z" fill="#ffffff" fill-rule="evenodd" fill-opacity="1"/>
<polyline clip-path="url(#clip621)" style="stroke:#000000; stroke-linecap:round; stroke-linejoin:round; stroke-width:2; stroke-opacity:0.1; fill:none" points="138.959,1423.18 138.959,47.2441 "/>
<polyline clip-path="url(#clip621)" style="stroke:#000000; stroke-linecap:round; stroke-linejoin:round; stroke-width:2; stroke-opacity:0.1; fill:none" points="581.719,1423.18 581.719,47.2441 "/>
<polyline clip-path="url(#clip621)" style="stroke:#000000; stroke-linecap:round; stroke-linejoin:round; stroke-width:2; stroke-opacity:0.1; fill:none" points="1024.48,1423.18 1024.48,47.2441 "/>
<polyline clip-path="url(#clip621)" style="stroke:#000000; stroke-linecap:round; stroke-linejoin:round; stroke-width:2; stroke-opacity:0.1; fill:none" points="1467.24,1423.18 1467.24,47.2441 "/>
<polyline clip-path="url(#clip621)" style="stroke:#000000; stroke-linecap:round; stroke-linejoin:round; stroke-width:2; stroke-opacity:0.1; fill:none" points="1910,1423.18 1910,47.2441 "/>
<polyline clip-path="url(#clip621)" style="stroke:#000000; stroke-linecap:round; stroke-linejoin:round; stroke-width:2; stroke-opacity:0.1; fill:none" points="2352.76,1423.18 2352.76,47.2441 "/>
<polyline clip-path="url(#clip621)" style="stroke:#000000; stroke-linecap:round; stroke-linejoin:round; stroke-width:2; stroke-opacity:0.1; fill:none" points="138.959,1384.24 2352.76,1384.24 "/>
<polyline clip-path="url(#clip621)" style="stroke:#000000; stroke-linecap:round; stroke-linejoin:round; stroke-width:2; stroke-opacity:0.1; fill:none" points="138.959,1002.46 2352.76,1002.46 "/>
<polyline clip-path="url(#clip621)" style="stroke:#000000; stroke-linecap:round; stroke-linejoin:round; stroke-width:2; stroke-opacity:0.1; fill:none" points="138.959,620.678 2352.76,620.678 "/>
<polyline clip-path="url(#clip621)" style="stroke:#000000; stroke-linecap:round; stroke-linejoin:round; stroke-width:2; stroke-opacity:0.1; fill:none" points="138.959,238.898 2352.76,238.898 "/>
<polyline clip-path="url(#clip620)" style="stroke:#000000; stroke-linecap:round; stroke-linejoin:round; stroke-width:4; stroke-opacity:1; fill:none" points="138.959,1423.18 2352.76,1423.18 "/>
<polyline clip-path="url(#clip620)" style="stroke:#000000; stroke-linecap:round; stroke-linejoin:round; stroke-width:4; stroke-opacity:1; fill:none" points="138.959,1423.18 138.959,1404.28 "/>
<polyline clip-path="url(#clip620)" style="stroke:#000000; stroke-linecap:round; stroke-linejoin:round; stroke-width:4; stroke-opacity:1; fill:none" points="581.719,1423.18 581.719,1404.28 "/>
<polyline clip-path="url(#clip620)" style="stroke:#000000; stroke-linecap:round; stroke-linejoin:round; stroke-width:4; stroke-opacity:1; fill:none" points="1024.48,1423.18 1024.48,1404.28 "/>
<polyline clip-path="url(#clip620)" style="stroke:#000000; stroke-linecap:round; stroke-linejoin:round; stroke-width:4; stroke-opacity:1; fill:none" points="1467.24,1423.18 1467.24,1404.28 "/>
<polyline clip-path="url(#clip620)" style="stroke:#000000; stroke-linecap:round; stroke-linejoin:round; stroke-width:4; stroke-opacity:1; fill:none" points="1910,1423.18 1910,1404.28 "/>
<polyline clip-path="url(#clip620)" style="stroke:#000000; stroke-linecap:round; stroke-linejoin:round; stroke-width:4; stroke-opacity:1; fill:none" points="2352.76,1423.18 2352.76,1404.28 "/>
<path clip-path="url(#clip620)" d="M138.959 1454.1 Q135.348 1454.1 133.52 1457.66 Q131.714 1461.2 131.714 1468.33 Q131.714 1475.44 133.52 1479.01 Q135.348 1482.55 138.959 1482.55 Q142.594 1482.55 144.399 1479.01 Q146.228 1475.44 146.228 1468.33 Q146.228 1461.2 144.399 1457.66 Q142.594 1454.1 138.959 1454.1 M138.959 1450.39 Q144.77 1450.39 147.825 1455 Q150.904 1459.58 150.904 1468.33 Q150.904 1477.06 147.825 1481.67 Q144.77 1486.25 138.959 1486.25 Q133.149 1486.25 130.071 1481.67 Q127.015 1477.06 127.015 1468.33 Q127.015 1459.58 130.071 1455 Q133.149 1450.39 138.959 1450.39 Z" fill="#000000" fill-rule="nonzero" fill-opacity="1" /><path clip-path="url(#clip620)" d="M576.372 1481.64 L592.691 1481.64 L592.691 1485.58 L570.747 1485.58 L570.747 1481.64 Q573.409 1478.89 577.992 1474.26 Q582.598 1469.61 583.779 1468.27 Q586.024 1465.74 586.904 1464.01 Q587.807 1462.25 587.807 1460.56 Q587.807 1457.8 585.862 1456.07 Q583.941 1454.33 580.839 1454.33 Q578.64 1454.33 576.186 1455.09 Q573.756 1455.86 570.978 1457.41 L570.978 1452.69 Q573.802 1451.55 576.256 1450.97 Q578.709 1450.39 580.747 1450.39 Q586.117 1450.39 589.311 1453.08 Q592.506 1455.77 592.506 1460.26 Q592.506 1462.39 591.696 1464.31 Q590.908 1466.2 588.802 1468.8 Q588.223 1469.47 585.121 1472.69 Q582.02 1475.88 576.372 1481.64 Z" fill="#000000" fill-rule="nonzero" fill-opacity="1" /><path clip-path="url(#clip620)" d="M1027.49 1455.09 L1015.68 1473.54 L1027.49 1473.54 L1027.49 1455.09 M1026.26 1451.02 L1032.14 1451.02 L1032.14 1473.54 L1037.07 1473.54 L1037.07 1477.43 L1032.14 1477.43 L1032.14 1485.58 L1027.49 1485.58 L1027.49 1477.43 L1011.89 1477.43 L1011.89 1472.92 L1026.26 1451.02 Z" fill="#000000" fill-rule="nonzero" fill-opacity="1" /><path clip-path="url(#clip620)" d="M1467.64 1466.44 Q1464.49 1466.44 1462.64 1468.59 Q1460.81 1470.74 1460.81 1474.49 Q1460.81 1478.22 1462.64 1480.39 Q1464.49 1482.55 1467.64 1482.55 Q1470.79 1482.55 1472.62 1480.39 Q1474.47 1478.22 1474.47 1474.49 Q1474.47 1470.74 1472.62 1468.59 Q1470.79 1466.44 1467.64 1466.44 M1476.92 1451.78 L1476.92 1456.04 Q1475.17 1455.21 1473.36 1454.77 Q1471.58 1454.33 1469.82 1454.33 Q1465.19 1454.33 1462.74 1457.45 Q1460.3 1460.58 1459.96 1466.9 Q1461.32 1464.89 1463.38 1463.82 Q1465.44 1462.73 1467.92 1462.73 Q1473.13 1462.73 1476.14 1465.9 Q1479.17 1469.05 1479.17 1474.49 Q1479.17 1479.82 1476.02 1483.03 Q1472.87 1486.25 1467.64 1486.25 Q1461.65 1486.25 1458.48 1481.67 Q1455.3 1477.06 1455.3 1468.33 Q1455.3 1460.14 1459.19 1455.28 Q1463.08 1450.39 1469.63 1450.39 Q1471.39 1450.39 1473.17 1450.74 Q1474.98 1451.09 1476.92 1451.78 Z" fill="#000000" fill-rule="nonzero" fill-opacity="1" /><path clip-path="url(#clip620)" d="M1910 1469.17 Q1906.66 1469.17 1904.74 1470.95 Q1902.84 1472.73 1902.84 1475.86 Q1902.84 1478.98 1904.74 1480.77 Q1906.66 1482.55 1910 1482.55 Q1913.33 1482.55 1915.25 1480.77 Q1917.17 1478.96 1917.17 1475.86 Q1917.17 1472.73 1915.25 1470.95 Q1913.35 1469.17 1910 1469.17 M1905.32 1467.18 Q1902.31 1466.44 1900.62 1464.38 Q1898.96 1462.32 1898.96 1459.35 Q1898.96 1455.21 1901.89 1452.8 Q1904.86 1450.39 1910 1450.39 Q1915.16 1450.39 1918.1 1452.8 Q1921.04 1455.21 1921.04 1459.35 Q1921.04 1462.32 1919.35 1464.38 Q1917.68 1466.44 1914.7 1467.18 Q1918.08 1467.96 1919.95 1470.26 Q1921.85 1472.55 1921.85 1475.86 Q1921.85 1480.88 1918.77 1483.57 Q1915.71 1486.25 1910 1486.25 Q1904.28 1486.25 1901.2 1483.57 Q1898.14 1480.88 1898.14 1475.86 Q1898.14 1472.55 1900.04 1470.26 Q1901.94 1467.96 1905.32 1467.18 M1903.61 1459.79 Q1903.61 1462.48 1905.27 1463.98 Q1906.96 1465.49 1910 1465.49 Q1913.01 1465.49 1914.7 1463.98 Q1916.41 1462.48 1916.41 1459.79 Q1916.41 1457.11 1914.7 1455.6 Q1913.01 1454.1 1910 1454.1 Q1906.96 1454.1 1905.27 1455.6 Q1903.61 1457.11 1903.61 1459.79 Z" fill="#000000" fill-rule="nonzero" fill-opacity="1" /><path clip-path="url(#clip620)" d="M2327.44 1481.64 L2335.08 1481.64 L2335.08 1455.28 L2326.77 1456.95 L2326.77 1452.69 L2335.04 1451.02 L2339.71 1451.02 L2339.71 1481.64 L2347.35 1481.64 L2347.35 1485.58 L2327.44 1485.58 L2327.44 1481.64 Z" fill="#000000" fill-rule="nonzero" fill-opacity="1" /><path clip-path="url(#clip620)" d="M2366.8 1454.1 Q2363.18 1454.1 2361.36 1457.66 Q2359.55 1461.2 2359.55 1468.33 Q2359.55 1475.44 2361.36 1479.01 Q2363.18 1482.55 2366.8 1482.55 Q2370.43 1482.55 2372.23 1479.01 Q2374.06 1475.44 2374.06 1468.33 Q2374.06 1461.2 2372.23 1457.66 Q2370.43 1454.1 2366.8 1454.1 M2366.8 1450.39 Q2372.61 1450.39 2375.66 1455 Q2378.74 1459.58 2378.74 1468.33 Q2378.74 1477.06 2375.66 1481.67 Q2372.61 1486.25 2366.8 1486.25 Q2360.99 1486.25 2357.91 1481.67 Q2354.85 1477.06 2354.85 1468.33 Q2354.85 1459.58 2357.91 1455 Q2360.99 1450.39 2366.8 1450.39 Z" fill="#000000" fill-rule="nonzero" fill-opacity="1" /><path clip-path="url(#clip620)" d="M1244.92 1522.27 L1244.92 1532.4 L1256.98 1532.4 L1256.98 1536.95 L1244.92 1536.95 L1244.92 1556.3 Q1244.92 1560.66 1246.1 1561.9 Q1247.31 1563.14 1250.97 1563.14 L1256.98 1563.14 L1256.98 1568.04 L1250.97 1568.04 Q1244.19 1568.04 1241.61 1565.53 Q1239.03 1562.98 1239.03 1556.3 L1239.03 1536.95 L1234.73 1536.95 L1234.73 1532.4 L1239.03 1532.4 L1239.03 1522.27 L1244.92 1522.27 Z" fill="#000000" fill-rule="nonzero" fill-opacity="1" /><polyline clip-path="url(#clip620)" style="stroke:#000000; stroke-linecap:round; stroke-linejoin:round; stroke-width:4; stroke-opacity:1; fill:none" points="138.959,1423.18 138.959,47.2441 "/>
<polyline clip-path="url(#clip620)" style="stroke:#000000; stroke-linecap:round; stroke-linejoin:round; stroke-width:4; stroke-opacity:1; fill:none" points="138.959,1384.24 157.857,1384.24 "/>
<polyline clip-path="url(#clip620)" style="stroke:#000000; stroke-linecap:round; stroke-linejoin:round; stroke-width:4; stroke-opacity:1; fill:none" points="138.959,1002.46 157.857,1002.46 "/>
<polyline clip-path="url(#clip620)" style="stroke:#000000; stroke-linecap:round; stroke-linejoin:round; stroke-width:4; stroke-opacity:1; fill:none" points="138.959,620.678 157.857,620.678 "/>
<polyline clip-path="url(#clip620)" style="stroke:#000000; stroke-linecap:round; stroke-linejoin:round; stroke-width:4; stroke-opacity:1; fill:none" points="138.959,238.898 157.857,238.898 "/>
<path clip-path="url(#clip620)" d="M91.0151 1370.04 Q87.404 1370.04 85.5753 1373.6 Q83.7697 1377.14 83.7697 1384.27 Q83.7697 1391.38 85.5753 1394.94 Q87.404 1398.49 91.0151 1398.49 Q94.6493 1398.49 96.4548 1394.94 Q98.2835 1391.38 98.2835 1384.27 Q98.2835 1377.14 96.4548 1373.6 Q94.6493 1370.04 91.0151 1370.04 M91.0151 1366.33 Q96.8252 1366.33 99.8808 1370.94 Q102.959 1375.52 102.959 1384.27 Q102.959 1393 99.8808 1397.61 Q96.8252 1402.19 91.0151 1402.19 Q85.2049 1402.19 82.1262 1397.61 Q79.0707 1393 79.0707 1384.27 Q79.0707 1375.52 82.1262 1370.94 Q85.2049 1366.33 91.0151 1366.33 Z" fill="#000000" fill-rule="nonzero" fill-opacity="1" /><path clip-path="url(#clip620)" d="M82.0568 985.178 L100.413 985.178 L100.413 989.113 L86.3392 989.113 L86.3392 997.585 Q87.3577 997.238 88.3762 997.076 Q89.3947 996.891 90.4132 996.891 Q96.2002 996.891 99.5798 1000.06 Q102.959 1003.23 102.959 1008.65 Q102.959 1014.23 99.4872 1017.33 Q96.015 1020.41 89.6956 1020.41 Q87.5197 1020.41 85.2512 1020.04 Q83.0058 1019.67 80.5984 1018.93 L80.5984 1014.23 Q82.6818 1015.36 84.904 1015.92 Q87.1262 1016.47 89.603 1016.47 Q93.6076 1016.47 95.9456 1014.37 Q98.2835 1012.26 98.2835 1008.65 Q98.2835 1005.04 95.9456 1002.93 Q93.6076 1000.83 89.603 1000.83 Q87.728 1000.83 85.8531 1001.24 Q84.0012 1001.66 82.0568 1002.54 L82.0568 985.178 Z" fill="#000000" fill-rule="nonzero" fill-opacity="1" /><path clip-path="url(#clip620)" d="M51.6634 634.023 L59.3023 634.023 L59.3023 607.657 L50.9921 609.324 L50.9921 605.065 L59.256 603.398 L63.9319 603.398 L63.9319 634.023 L71.5707 634.023 L71.5707 637.958 L51.6634 637.958 L51.6634 634.023 Z" fill="#000000" fill-rule="nonzero" fill-opacity="1" /><path clip-path="url(#clip620)" d="M91.0151 606.477 Q87.404 606.477 85.5753 610.041 Q83.7697 613.583 83.7697 620.713 Q83.7697 627.819 85.5753 631.384 Q87.404 634.926 91.0151 634.926 Q94.6493 634.926 96.4548 631.384 Q98.2835 627.819 98.2835 620.713 Q98.2835 613.583 96.4548 610.041 Q94.6493 606.477 91.0151 606.477 M91.0151 602.773 Q96.8252 602.773 99.8808 607.379 Q102.959 611.963 102.959 620.713 Q102.959 629.439 99.8808 634.046 Q96.8252 638.629 91.0151 638.629 Q85.2049 638.629 82.1262 634.046 Q79.0707 629.439 79.0707 620.713 Q79.0707 611.963 82.1262 607.379 Q85.2049 602.773 91.0151 602.773 Z" fill="#000000" fill-rule="nonzero" fill-opacity="1" /><path clip-path="url(#clip620)" d="M52.6588 252.243 L60.2976 252.243 L60.2976 225.877 L51.9875 227.544 L51.9875 223.284 L60.2513 221.618 L64.9272 221.618 L64.9272 252.243 L72.5661 252.243 L72.5661 256.178 L52.6588 256.178 L52.6588 252.243 Z" fill="#000000" fill-rule="nonzero" fill-opacity="1" /><path clip-path="url(#clip620)" d="M82.0568 221.618 L100.413 221.618 L100.413 225.553 L86.3392 225.553 L86.3392 234.025 Q87.3577 233.678 88.3762 233.516 Q89.3947 233.331 90.4132 233.331 Q96.2002 233.331 99.5798 236.502 Q102.959 239.673 102.959 245.09 Q102.959 250.669 99.4872 253.77 Q96.015 256.849 89.6956 256.849 Q87.5197 256.849 85.2512 256.479 Q83.0058 256.108 80.5984 255.368 L80.5984 250.669 Q82.6818 251.803 84.904 252.358 Q87.1262 252.914 89.603 252.914 Q93.6076 252.914 95.9456 250.807 Q98.2835 248.701 98.2835 245.09 Q98.2835 241.479 95.9456 239.372 Q93.6076 237.266 89.603 237.266 Q87.728 237.266 85.8531 237.682 Q84.0012 238.099 82.0568 238.979 L82.0568 221.618 Z" fill="#000000" fill-rule="nonzero" fill-opacity="1" /><polyline clip-path="url(#clip621)" style="stroke:#009af9; stroke-linecap:round; stroke-linejoin:round; stroke-width:8; stroke-opacity:1; fill:none" points="138.959,1384.24 141.175,1384.24 143.391,1384.24 145.607,1384.24 147.823,1384.24 150.04,1384.24 152.256,1384.24 154.472,1384.24 156.688,1384.24 158.904,1384.24 161.12,1384.24 163.336,1384.24 165.552,1384.24 167.768,1384.24 169.984,1384.24 172.2,1384.24 174.416,1384.24 176.632,1384.24 178.848,1384.24 181.064,1384.24 183.28,1384.24 185.496,1384.24 187.712,1384.24 189.928,1384.24 192.144,1384.24 194.36,1384.24 196.576,1384.24 198.792,1384.24 201.008,1384.24 203.224,1384.24 205.44,1384.24 207.656,1384.24 209.872,1384.24 212.088,1384.24 214.304,1384.24 216.52,1384.24 218.736,1384.24 220.952,1384.24 223.168,1384.24 225.384,1384.24 227.6,1384.24 229.816,1384.24 232.032,1384.24 234.248,1384.24 236.464,1384.24 238.68,1384.24 240.896,1384.24 243.112,1384.24 245.328,1384.24 247.544,1384.24 249.76,1384.24 251.976,1384.24 254.192,1384.24 256.408,1384.24 258.624,1384.24 260.84,1384.24 263.056,1384.24 265.272,1384.24 267.488,1384.24 269.704,1307.88 271.92,1307.88 274.136,1307.88 276.352,1307.88 278.568,1307.88 280.784,1307.88 283,1307.88 285.216,1307.88 287.432,1307.88 289.648,1307.88 291.864,1307.88 294.08,1307.88 296.296,1307.88 298.512,1307.88 300.728,1307.88 302.944,1307.88 305.16,1307.88 307.376,1307.88 309.592,1307.88 311.808,1307.88 314.024,1307.88 316.24,1307.88 318.456,1307.88 320.672,1307.88 322.888,1307.88 325.104,1307.88 327.321,1307.88 329.537,1307.88 331.753,1307.88 333.969,1307.88 336.185,1307.88 338.401,1307.88 340.617,1307.88 342.833,1307.88 345.049,1307.88 347.265,1307.88 349.481,1307.88 351.697,1307.88 353.913,1307.88 356.129,1307.88 358.345,1307.88 360.561,1307.88 362.777,1307.88 364.993,1307.88 367.209,1307.88 369.425,1231.53 371.641,1231.53 373.857,1231.53 376.073,1231.53 378.289,1231.53 380.505,1231.53 382.721,1231.53 384.937,1231.53 387.153,1231.53 389.369,1231.53 391.585,1231.53 393.801,1231.53 396.017,1231.53 398.233,1155.17 400.449,1155.17 402.665,1155.17 404.881,1078.81 407.097,1078.81 409.313,1078.81 411.529,1078.81 413.745,1078.81 415.961,1078.81 418.177,1078.81 420.393,1078.81 422.609,1078.81 424.825,1078.81 427.041,1078.81 429.257,1078.81 431.473,1078.81 433.689,1078.81 435.905,1078.81 438.121,1002.46 440.337,1002.46 442.553,1002.46 444.769,1002.46 446.985,1002.46 449.201,1002.46 451.417,1002.46 453.633,1002.46 455.849,1078.81 458.065,1078.81 460.281,1155.17 462.497,1155.17 464.713,1155.17 466.929,1078.81 469.145,1078.81 471.361,1078.81 473.577,1078.81 475.793,1078.81 478.009,1078.81 480.225,1078.81 482.441,1078.81 484.657,1078.81 486.873,1078.81 489.089,1078.81 491.305,1078.81 493.521,1155.17 495.737,1231.53 497.953,1231.53 500.169,1231.53 502.385,1231.53 504.601,1231.53 506.818,1231.53 509.034,1231.53 511.25,1231.53 513.466,1231.53 515.682,1231.53 517.898,1231.53 520.114,1231.53 522.33,1231.53 524.546,1231.53 526.762,1231.53 528.978,1231.53 531.194,1231.53 533.41,1231.53 535.626,1231.53 537.842,1231.53 540.058,1231.53 542.274,1231.53 544.49,1231.53 546.706,1231.53 548.922,1231.53 551.138,1231.53 553.354,1231.53 555.57,1231.53 557.786,1231.53 560.002,1231.53 562.218,1231.53 564.434,1231.53 566.65,1231.53 568.866,1231.53 571.082,1231.53 573.298,1231.53 575.514,1231.53 577.73,1231.53 579.946,1231.53 582.162,1231.53 584.378,1231.53 586.594,1231.53 588.81,1231.53 591.026,1231.53 593.242,1231.53 595.458,1231.53 597.674,1231.53 599.89,1231.53 602.106,1231.53 604.322,1231.53 606.538,1231.53 608.754,1231.53 610.97,1231.53 613.186,1231.53 615.402,1231.53 617.618,1231.53 619.834,1231.53 622.05,1307.88 624.266,1307.88 626.482,1307.88 628.698,1307.88 630.914,1307.88 633.13,1384.24 635.346,1384.24 637.562,1384.24 639.778,1384.24 641.994,1384.24 644.21,1384.24 646.426,1384.24 648.642,1384.24 650.858,1384.24 653.074,1384.24 655.29,1384.24 657.506,1384.24 659.722,1384.24 661.938,1384.24 664.154,1384.24 666.37,1384.24 668.586,1384.24 670.802,1384.24 673.018,1384.24 675.234,1384.24 677.45,1384.24 679.666,1384.24 681.882,1384.24 684.099,1384.24 686.315,1384.24 688.531,1384.24 690.747,1384.24 692.963,1384.24 695.179,1384.24 697.395,1384.24 699.611,1384.24 701.827,1384.24 704.043,1384.24 706.259,1384.24 708.475,1384.24 710.691,1384.24 712.907,1384.24 715.123,1384.24 717.339,1384.24 719.555,1384.24 721.771,1384.24 723.987,1384.24 726.203,1384.24 728.419,1384.24 730.635,1384.24 732.851,1384.24 735.067,1384.24 737.283,1384.24 739.499,1384.24 741.715,1384.24 743.931,1384.24 746.147,1384.24 748.363,1384.24 750.579,1384.24 752.795,1384.24 755.011,1384.24 757.227,1384.24 759.443,1384.24 761.659,1384.24 763.875,1384.24 766.091,1384.24 768.307,1384.24 770.523,1384.24 772.739,1384.24 774.955,1384.24 777.171,1384.24 779.387,1384.24 781.603,1384.24 783.819,1384.24 786.035,1384.24 788.251,1384.24 790.467,1384.24 792.683,1384.24 794.899,1384.24 797.115,1384.24 799.331,1384.24 801.547,1384.24 803.763,1384.24 805.979,1384.24 808.195,1384.24 810.411,1384.24 812.627,1384.24 814.843,1384.24 817.059,1384.24 819.275,1384.24 821.491,1384.24 823.707,1384.24 825.923,1384.24 828.139,1384.24 830.355,1384.24 832.571,1384.24 834.787,1384.24 837.003,1384.24 839.219,1384.24 841.435,1384.24 843.651,1384.24 845.867,1384.24 848.083,1384.24 850.299,1384.24 852.515,1384.24 854.731,1384.24 856.947,1384.24 859.163,1384.24 861.38,1384.24 863.596,1384.24 865.812,1384.24 868.028,1384.24 870.244,1384.24 872.46,1384.24 874.676,1384.24 876.892,1384.24 879.108,1384.24 881.324,1384.24 883.54,1384.24 885.756,1384.24 887.972,1384.24 890.188,1384.24 892.404,1384.24 894.62,1384.24 896.836,1384.24 899.052,1384.24 901.268,1384.24 903.484,1384.24 905.7,1384.24 907.916,1384.24 910.132,1384.24 912.348,1384.24 914.564,1384.24 916.78,1384.24 918.996,1384.24 921.212,1384.24 923.428,1384.24 925.644,1384.24 927.86,1384.24 930.076,1384.24 932.292,1384.24 934.508,1384.24 936.724,1384.24 938.94,1384.24 941.156,1384.24 943.372,1384.24 945.588,1384.24 947.804,1384.24 950.02,1384.24 952.236,1384.24 954.452,1307.88 956.668,1307.88 958.884,1307.88 961.1,1307.88 963.316,1307.88 965.532,1307.88 967.748,1307.88 969.964,1307.88 972.18,1307.88 974.396,1307.88 976.612,1307.88 978.828,1307.88 981.044,1307.88 983.26,1307.88 985.476,1231.53 987.692,1231.53 989.908,1231.53 992.124,1231.53 994.34,1231.53 996.556,1231.53 998.772,1231.53 1000.99,1231.53 1003.2,1231.53 1005.42,1231.53 1007.64,1231.53 1009.85,1231.53 1012.07,1231.53 1014.28,1231.53 1016.5,1231.53 1018.72,1231.53 1020.93,1231.53 1023.15,1231.53 1025.36,1231.53 1027.58,1231.53 1029.8,1231.53 1032.01,1231.53 1034.23,1231.53 1036.44,1231.53 1038.66,1231.53 1040.88,1231.53 1043.09,1231.53 1045.31,1231.53 1047.52,1231.53 1049.74,1231.53 1051.96,1231.53 1054.17,1231.53 1056.39,1231.53 1058.6,1231.53 1060.82,1231.53 1063.04,1231.53 1065.25,1231.53 1067.47,1231.53 1069.68,1231.53 1071.9,1231.53 1074.12,1231.53 1076.33,1231.53 1078.55,1155.17 1080.76,1155.17 1082.98,1155.17 1085.2,1231.53 1087.41,1231.53 1089.63,1231.53 1091.84,1231.53 1094.06,1231.53 1096.28,1231.53 1098.49,1231.53 1100.71,1231.53 1102.92,1231.53 1105.14,1231.53 1107.36,1231.53 1109.57,1231.53 1111.79,1231.53 1114,1231.53 1116.22,1231.53 1118.44,1231.53 1120.65,1231.53 1122.87,1231.53 1125.08,1307.88 1127.3,1307.88 1129.52,1307.88 1131.73,1307.88 1133.95,1307.88 1136.17,1307.88 1138.38,1307.88 1140.6,1307.88 1142.81,1307.88 1145.03,1307.88 1147.25,1307.88 1149.46,1384.24 1151.68,1384.24 1153.89,1384.24 1156.11,1384.24 1158.33,1384.24 1160.54,1384.24 1162.76,1384.24 1164.97,1384.24 1167.19,1384.24 1169.41,1384.24 1171.62,1384.24 1173.84,1384.24 1176.05,1384.24 1178.27,1384.24 1180.49,1384.24 1182.7,1384.24 1184.92,1384.24 1187.13,1384.24 1189.35,1384.24 1191.57,1384.24 1193.78,1384.24 1196,1384.24 1198.21,1384.24 1200.43,1384.24 1202.65,1384.24 1204.86,1384.24 1207.08,1384.24 1209.29,1384.24 1211.51,1384.24 1213.73,1384.24 1215.94,1384.24 1218.16,1384.24 1220.37,1384.24 1222.59,1384.24 1224.81,1384.24 1227.02,1384.24 1229.24,1384.24 1231.45,1307.88 1233.67,1307.88 1235.89,1307.88 1238.1,1307.88 1240.32,1307.88 1242.53,1307.88 1244.75,1307.88 1246.97,1307.88 1249.18,1307.88 1251.4,1307.88 1253.61,1307.88 1255.83,1307.88 1258.05,1307.88 1260.26,1307.88 1262.48,1307.88 1264.69,1307.88 1266.91,1307.88 1269.13,1307.88 1271.34,1307.88 1273.56,1307.88 1275.77,1307.88 1277.99,1307.88 1280.21,1307.88 1282.42,1307.88 1284.64,1307.88 1286.85,1307.88 1289.07,1307.88 1291.29,1307.88 1293.5,1307.88 1295.72,1307.88 1297.93,1307.88 1300.15,1307.88 1302.37,1307.88 1304.58,1307.88 1306.8,1307.88 1309.01,1307.88 1311.23,1307.88 1313.45,1307.88 1315.66,1307.88 1317.88,1307.88 1320.09,1307.88 1322.31,1307.88 1324.53,1307.88 1326.74,1231.53 1328.96,1231.53 1331.17,1231.53 1333.39,1231.53 1335.61,1231.53 1337.82,1231.53 1340.04,1231.53 1342.25,1231.53 1344.47,1231.53 1346.69,1231.53 1348.9,1231.53 1351.12,1231.53 1353.33,1231.53 1355.55,1231.53 1357.77,1231.53 1359.98,1231.53 1362.2,1231.53 1364.41,1231.53 1366.63,1231.53 1368.85,1231.53 1371.06,1231.53 1373.28,1231.53 1375.49,1231.53 1377.71,1231.53 1379.93,1231.53 1382.14,1231.53 1384.36,1231.53 1386.57,1231.53 1388.79,1231.53 1391.01,1231.53 1393.22,1231.53 1395.44,1231.53 1397.65,1231.53 1399.87,1231.53 1402.09,1231.53 1404.3,1231.53 1406.52,1231.53 1408.73,1231.53 1410.95,1231.53 1413.17,1231.53 1415.38,1231.53 1417.6,1231.53 1419.81,1231.53 1422.03,1231.53 1424.25,1231.53 1426.46,1231.53 1428.68,1231.53 1430.89,1231.53 1433.11,1231.53 1435.33,1231.53 1437.54,1231.53 1439.76,1231.53 1441.97,1231.53 1444.19,1231.53 1446.41,1231.53 1448.62,1231.53 1450.84,1231.53 1453.05,1231.53 1455.27,1231.53 1457.49,1231.53 1459.7,1231.53 1461.92,1231.53 1464.13,1231.53 1466.35,1231.53 1468.57,1231.53 1470.78,1231.53 1473,1231.53 1475.21,1231.53 1477.43,1231.53 1479.65,1231.53 1481.86,1231.53 1484.08,1231.53 1486.3,1231.53 1488.51,1231.53 1490.73,1231.53 1492.94,1231.53 1495.16,1231.53 1497.38,1231.53 1499.59,1231.53 1501.81,1231.53 1504.02,1231.53 1506.24,1231.53 1508.46,1231.53 1510.67,1231.53 1512.89,1231.53 1515.1,1155.17 1517.32,1155.17 1519.54,1155.17 1521.75,1155.17 1523.97,1155.17 1526.18,1155.17 1528.4,1155.17 1530.62,1155.17 1532.83,1155.17 1535.05,1155.17 1537.26,1155.17 1539.48,1155.17 1541.7,1155.17 1543.91,1155.17 1546.13,1155.17 1548.34,1155.17 1550.56,1155.17 1552.78,1078.81 1554.99,1078.81 1557.21,1078.81 1559.42,1078.81 1561.64,1078.81 1563.86,1078.81 1566.07,1078.81 1568.29,1078.81 1570.5,1078.81 1572.72,1078.81 1574.94,1078.81 1577.15,1078.81 1579.37,1078.81 1581.58,1155.17 1583.8,1155.17 1586.02,1155.17 1588.23,1155.17 1590.45,1155.17 1592.66,1155.17 1594.88,1155.17 1597.1,1155.17 1599.31,1155.17 1601.53,1155.17 1603.74,1155.17 1605.96,1155.17 1608.18,1155.17 1610.39,1155.17 1612.61,1155.17 1614.82,1078.81 1617.04,1078.81 1619.26,1078.81 1621.47,1078.81 1623.69,1078.81 1625.9,1078.81 1628.12,1078.81 1630.34,1078.81 1632.55,1078.81 1634.77,1078.81 1636.98,1078.81 1639.2,1078.81 1641.42,1078.81 1643.63,1078.81 1645.85,1078.81 1648.06,1078.81 1650.28,1078.81 1652.5,1155.17 1654.71,1155.17 1656.93,1155.17 1659.14,1155.17 1661.36,1155.17 1663.58,1155.17 1665.79,1155.17 1668.01,1155.17 1670.22,1155.17 1672.44,1155.17 1674.66,1155.17 1676.87,1155.17 1679.09,1155.17 1681.3,1155.17 1683.52,1231.53 1685.74,1231.53 1687.95,1231.53 1690.17,1231.53 1692.38,1231.53 1694.6,1231.53 1696.82,1231.53 1699.03,1231.53 1701.25,1231.53 1703.46,1231.53 1705.68,1231.53 1707.9,1231.53 1710.11,1231.53 1712.33,1231.53 1714.54,1231.53 1716.76,1231.53 1718.98,1231.53 1721.19,1231.53 1723.41,1231.53 1725.62,1231.53 1727.84,1231.53 1730.06,1231.53 1732.27,1231.53 1734.49,1231.53 1736.7,1231.53 1738.92,1307.88 1741.14,1307.88 1743.35,1307.88 1745.57,1307.88 1747.78,1307.88 1750,1307.88 1752.22,1307.88 1754.43,1307.88 1756.65,1307.88 1758.86,1307.88 1761.08,1307.88 1763.3,1307.88 1765.51,1307.88 1767.73,1307.88 1769.94,1307.88 1772.16,1307.88 1774.38,1307.88 1776.59,1307.88 1778.81,1307.88 1781.02,1307.88 1783.24,1307.88 1785.46,1307.88 1787.67,1307.88 1789.89,1307.88 1792.1,1307.88 1794.32,1307.88 1796.54,1307.88 1798.75,1307.88 1800.97,1307.88 1803.18,1307.88 1805.4,1307.88 1807.62,1307.88 1809.83,1307.88 1812.05,1307.88 1814.26,1307.88 1816.48,1307.88 1818.7,1307.88 1820.91,1307.88 1823.13,1307.88 1825.34,1307.88 1827.56,1307.88 1829.78,1307.88 1831.99,1307.88 1834.21,1307.88 1836.42,1307.88 1838.64,1307.88 1840.86,1307.88 1843.07,1307.88 1845.29,1307.88 1847.51,1307.88 1849.72,1307.88 1851.94,1307.88 1854.15,1307.88 1856.37,1307.88 1858.59,1307.88 1860.8,1307.88 1863.02,1307.88 1865.23,1307.88 1867.45,1307.88 1869.67,1307.88 1871.88,1307.88 1874.1,1307.88 1876.31,1307.88 1878.53,1307.88 1880.75,1307.88 1882.96,1307.88 1885.18,1307.88 1887.39,1307.88 1889.61,1307.88 1891.83,1307.88 1894.04,1307.88 1896.26,1307.88 1898.47,1307.88 1900.69,1384.24 1902.91,1384.24 1905.12,1384.24 1907.34,1384.24 1909.55,1384.24 1911.77,1384.24 1913.99,1384.24 1916.2,1384.24 1918.42,1384.24 1920.63,1384.24 1922.85,1384.24 1925.07,1384.24 1927.28,1384.24 1929.5,1384.24 1931.71,1384.24 1933.93,1384.24 1936.15,1384.24 1938.36,1384.24 1940.58,1384.24 1942.79,1384.24 1945.01,1384.24 1947.23,1384.24 1949.44,1384.24 1951.66,1384.24 1953.87,1384.24 1956.09,1384.24 1958.31,1384.24 1960.52,1384.24 1962.74,1384.24 1964.95,1384.24 1967.17,1384.24 1969.39,1384.24 1971.6,1384.24 1973.82,1384.24 1976.03,1384.24 1978.25,1384.24 1980.47,1384.24 1982.68,1384.24 1984.9,1384.24 1987.11,1384.24 1989.33,1384.24 1991.55,1384.24 1993.76,1384.24 1995.98,1384.24 1998.19,1384.24 2000.41,1384.24 2002.63,1384.24 2004.84,1384.24 2007.06,1384.24 2009.27,1384.24 2011.49,1384.24 2013.71,1384.24 2015.92,1384.24 2018.14,1384.24 2020.35,1384.24 2022.57,1384.24 2024.79,1384.24 2027,1384.24 2029.22,1384.24 2031.43,1384.24 2033.65,1384.24 2035.87,1384.24 2038.08,1384.24 2040.3,1307.88 2042.51,1307.88 2044.73,1307.88 2046.95,1307.88 2049.16,1307.88 2051.38,1307.88 2053.59,1307.88 2055.81,1307.88 2058.03,1231.53 2060.24,1231.53 2062.46,1231.53 2064.67,1231.53 2066.89,1231.53 2069.11,1231.53 2071.32,1307.88 2073.54,1307.88 2075.75,1307.88 2077.97,1307.88 2080.19,1307.88 2082.4,1307.88 2084.62,1307.88 2086.83,1307.88 2089.05,1307.88 2091.27,1307.88 2093.48,1307.88 2095.7,1307.88 2097.91,1307.88 2100.13,1307.88 2102.35,1307.88 2104.56,1307.88 2106.78,1307.88 2108.99,1307.88 2111.21,1307.88 2113.43,1307.88 2115.64,1307.88 2117.86,1307.88 2120.07,1307.88 2122.29,1307.88 2124.51,1307.88 2126.72,1307.88 2128.94,1307.88 2131.15,1307.88 2133.37,1307.88 2135.59,1307.88 2137.8,1307.88 2140.02,1307.88 2142.23,1307.88 2144.45,1307.88 2146.67,1307.88 2148.88,1307.88 2151.1,1307.88 2153.31,1307.88 2155.53,1307.88 2157.75,1307.88 2159.96,1307.88 2162.18,1307.88 2164.39,1307.88 2166.61,1307.88 2168.83,1307.88 2171.04,1307.88 2173.26,1307.88 2175.47,1307.88 2177.69,1307.88 2179.91,1307.88 2182.12,1307.88 2184.34,1307.88 2186.55,1307.88 2188.77,1307.88 2190.99,1307.88 2193.2,1307.88 2195.42,1307.88 2197.64,1307.88 2199.85,1307.88 2202.07,1307.88 2204.28,1307.88 2206.5,1307.88 2208.72,1307.88 2210.93,1307.88 2213.15,1307.88 2215.36,1307.88 2217.58,1231.53 2219.8,1231.53 2222.01,1307.88 2224.23,1307.88 2226.44,1307.88 2228.66,1384.24 2230.88,1384.24 2233.09,1384.24 2235.31,1384.24 2237.52,1384.24 2239.74,1384.24 2241.96,1384.24 2244.17,1384.24 2246.39,1384.24 2248.6,1384.24 2250.82,1384.24 2253.04,1384.24 2255.25,1384.24 2257.47,1384.24 2259.68,1384.24 2261.9,1384.24 2264.12,1384.24 2266.33,1384.24 2268.55,1384.24 2270.76,1384.24 2272.98,1384.24 2275.2,1384.24 2277.41,1384.24 2279.63,1384.24 2281.84,1384.24 2284.06,1384.24 2286.28,1384.24 2288.49,1384.24 2290.71,1384.24 2292.92,1384.24 2295.14,1384.24 2297.36,1384.24 2299.57,1384.24 2301.79,1384.24 2304,1384.24 2306.22,1384.24 2308.44,1384.24 2310.65,1384.24 2312.87,1384.24 2315.08,1384.24 2317.3,1384.24 2319.52,1384.24 2321.73,1384.24 2323.95,1384.24 2326.16,1384.24 2328.38,1307.88 2330.6,1307.88 2332.81,1307.88 2335.03,1307.88 2337.24,1307.88 2339.46,1307.88 2341.68,1307.88 2343.89,1307.88 2346.11,1307.88 2348.32,1307.88 2350.54,1307.88 2352.76,1307.88 "/>
<polyline clip-path="url(#clip621)" style="stroke:#e26f46; stroke-linecap:round; stroke-linejoin:round; stroke-width:8; stroke-opacity:1; fill:none" points="138.959,1384.24 141.175,1384.24 143.391,1384.24 145.607,1384.24 147.823,1384.24 150.04,1384.24 152.256,1384.24 154.472,1384.24 156.688,1384.24 158.904,1384.24 161.12,1384.24 163.336,1384.24 165.552,1384.24 167.768,1384.24 169.984,1384.24 172.2,1384.24 174.416,1384.24 176.632,1384.24 178.848,1384.24 181.064,1384.24 183.28,1384.24 185.496,1384.24 187.712,1384.24 189.928,1384.24 192.144,1384.24 194.36,1384.24 196.576,1384.24 198.792,1384.24 201.008,1384.24 203.224,1384.24 205.44,1384.24 207.656,1384.24 209.872,1384.24 212.088,1384.24 214.304,1384.24 216.52,1384.24 218.736,1384.24 220.952,1384.24 223.168,1384.24 225.384,1384.24 227.6,1384.24 229.816,1384.24 232.032,1384.24 234.248,1384.24 236.464,1384.24 238.68,1384.24 240.896,1384.24 243.112,1384.24 245.328,1384.24 247.544,1384.24 249.76,1384.24 251.976,1384.24 254.192,1384.24 256.408,1384.24 258.624,1384.24 260.84,1384.24 263.056,1384.24 265.272,1384.24 267.488,1384.24 269.704,1384.24 271.92,1384.24 274.136,1384.24 276.352,1384.24 278.568,1384.24 280.784,1384.24 283,1384.24 285.216,1384.24 287.432,1384.24 289.648,1384.24 291.864,1384.24 294.08,1384.24 296.296,1384.24 298.512,1384.24 300.728,1384.24 302.944,1384.24 305.16,1384.24 307.376,1384.24 309.592,1384.24 311.808,1384.24 314.024,1384.24 316.24,1384.24 318.456,1384.24 320.672,1384.24 322.888,1384.24 325.104,1384.24 327.321,1384.24 329.537,1384.24 331.753,1384.24 333.969,1384.24 336.185,1384.24 338.401,1384.24 340.617,1384.24 342.833,1384.24 345.049,1384.24 347.265,1384.24 349.481,1384.24 351.697,1384.24 353.913,1384.24 356.129,1384.24 358.345,1384.24 360.561,1384.24 362.777,1384.24 364.993,1384.24 367.209,1384.24 369.425,1384.24 371.641,1384.24 373.857,1384.24 376.073,1384.24 378.289,1384.24 380.505,1384.24 382.721,1384.24 384.937,1384.24 387.153,1384.24 389.369,1384.24 391.585,1384.24 393.801,1384.24 396.017,1384.24 398.233,1384.24 400.449,1384.24 402.665,1384.24 404.881,1384.24 407.097,1384.24 409.313,1384.24 411.529,1384.24 413.745,1384.24 415.961,1384.24 418.177,1384.24 420.393,1384.24 422.609,1384.24 424.825,1384.24 427.041,1384.24 429.257,1384.24 431.473,1384.24 433.689,1384.24 435.905,1384.24 438.121,1384.24 440.337,1384.24 442.553,1384.24 444.769,1384.24 446.985,1384.24 449.201,1384.24 451.417,1384.24 453.633,1384.24 455.849,1307.88 458.065,1307.88 460.281,1231.53 462.497,1231.53 464.713,1231.53 466.929,1231.53 469.145,1231.53 471.361,1231.53 473.577,1231.53 475.793,1231.53 478.009,1231.53 480.225,1231.53 482.441,1231.53 484.657,1231.53 486.873,1231.53 489.089,1231.53 491.305,1231.53 493.521,1155.17 495.737,1078.81 497.953,1078.81 500.169,1078.81 502.385,1078.81 504.601,1078.81 506.818,1078.81 509.034,1078.81 511.25,1078.81 513.466,1078.81 515.682,1078.81 517.898,1078.81 520.114,1078.81 522.33,1078.81 524.546,1078.81 526.762,1078.81 528.978,1078.81 531.194,1078.81 533.41,1078.81 535.626,1078.81 537.842,1078.81 540.058,1078.81 542.274,1078.81 544.49,1078.81 546.706,1078.81 548.922,1078.81 551.138,1078.81 553.354,1078.81 555.57,1078.81 557.786,1078.81 560.002,1078.81 562.218,1078.81 564.434,1078.81 566.65,1078.81 568.866,1078.81 571.082,1078.81 573.298,1078.81 575.514,1078.81 577.73,1078.81 579.946,1078.81 582.162,1078.81 584.378,1078.81 586.594,1078.81 588.81,1078.81 591.026,1078.81 593.242,1078.81 595.458,1078.81 597.674,1078.81 599.89,1078.81 602.106,1078.81 604.322,1078.81 606.538,1078.81 608.754,1078.81 610.97,1078.81 613.186,1078.81 615.402,1078.81 617.618,1078.81 619.834,1078.81 622.05,1002.46 624.266,1002.46 626.482,1002.46 628.698,1002.46 630.914,1002.46 633.13,926.102 635.346,926.102 637.562,926.102 639.778,926.102 641.994,926.102 644.21,926.102 646.426,926.102 648.642,926.102 650.858,926.102 653.074,926.102 655.29,926.102 657.506,926.102 659.722,926.102 661.938,926.102 664.154,926.102 666.37,926.102 668.586,926.102 670.802,926.102 673.018,926.102 675.234,926.102 677.45,926.102 679.666,926.102 681.882,926.102 684.099,926.102 686.315,926.102 688.531,926.102 690.747,926.102 692.963,926.102 695.179,926.102 697.395,926.102 699.611,926.102 701.827,926.102 704.043,926.102 706.259,926.102 708.475,926.102 710.691,926.102 712.907,926.102 715.123,926.102 717.339,926.102 719.555,926.102 721.771,926.102 723.987,926.102 726.203,926.102 728.419,926.102 730.635,926.102 732.851,926.102 735.067,926.102 737.283,926.102 739.499,926.102 741.715,926.102 743.931,926.102 746.147,926.102 748.363,926.102 750.579,926.102 752.795,926.102 755.011,926.102 757.227,926.102 759.443,926.102 761.659,926.102 763.875,926.102 766.091,926.102 768.307,926.102 770.523,926.102 772.739,926.102 774.955,926.102 777.171,926.102 779.387,926.102 781.603,926.102 783.819,926.102 786.035,926.102 788.251,926.102 790.467,926.102 792.683,926.102 794.899,926.102 797.115,926.102 799.331,926.102 801.547,926.102 803.763,926.102 805.979,926.102 808.195,926.102 810.411,926.102 812.627,926.102 814.843,926.102 817.059,926.102 819.275,926.102 821.491,926.102 823.707,926.102 825.923,926.102 828.139,926.102 830.355,926.102 832.571,926.102 834.787,926.102 837.003,926.102 839.219,926.102 841.435,926.102 843.651,926.102 845.867,926.102 848.083,926.102 850.299,926.102 852.515,926.102 854.731,926.102 856.947,926.102 859.163,926.102 861.38,926.102 863.596,926.102 865.812,926.102 868.028,926.102 870.244,926.102 872.46,926.102 874.676,926.102 876.892,926.102 879.108,926.102 881.324,926.102 883.54,926.102 885.756,926.102 887.972,926.102 890.188,926.102 892.404,926.102 894.62,926.102 896.836,926.102 899.052,926.102 901.268,926.102 903.484,926.102 905.7,926.102 907.916,926.102 910.132,926.102 912.348,926.102 914.564,926.102 916.78,926.102 918.996,926.102 921.212,926.102 923.428,926.102 925.644,926.102 927.86,926.102 930.076,926.102 932.292,926.102 934.508,926.102 936.724,926.102 938.94,926.102 941.156,926.102 943.372,926.102 945.588,926.102 947.804,926.102 950.02,926.102 952.236,926.102 954.452,926.102 956.668,926.102 958.884,926.102 961.1,926.102 963.316,926.102 965.532,926.102 967.748,926.102 969.964,926.102 972.18,926.102 974.396,926.102 976.612,926.102 978.828,926.102 981.044,926.102 983.26,926.102 985.476,926.102 987.692,926.102 989.908,926.102 992.124,926.102 994.34,926.102 996.556,926.102 998.772,926.102 1000.99,926.102 1003.2,926.102 1005.42,926.102 1007.64,926.102 1009.85,926.102 1012.07,926.102 1014.28,926.102 1016.5,926.102 1018.72,926.102 1020.93,926.102 1023.15,926.102 1025.36,926.102 1027.58,926.102 1029.8,926.102 1032.01,926.102 1034.23,926.102 1036.44,926.102 1038.66,926.102 1040.88,926.102 1043.09,926.102 1045.31,926.102 1047.52,926.102 1049.74,926.102 1051.96,926.102 1054.17,926.102 1056.39,926.102 1058.6,926.102 1060.82,926.102 1063.04,926.102 1065.25,926.102 1067.47,926.102 1069.68,926.102 1071.9,926.102 1074.12,926.102 1076.33,926.102 1078.55,926.102 1080.76,926.102 1082.98,926.102 1085.2,849.746 1087.41,849.746 1089.63,849.746 1091.84,849.746 1094.06,849.746 1096.28,849.746 1098.49,849.746 1100.71,849.746 1102.92,849.746 1105.14,849.746 1107.36,849.746 1109.57,849.746 1111.79,849.746 1114,849.746 1116.22,849.746 1118.44,849.746 1120.65,849.746 1122.87,849.746 1125.08,773.39 1127.3,773.39 1129.52,773.39 1131.73,773.39 1133.95,773.39 1136.17,773.39 1138.38,773.39 1140.6,773.39 1142.81,773.39 1145.03,773.39 1147.25,773.39 1149.46,697.034 1151.68,697.034 1153.89,697.034 1156.11,697.034 1158.33,697.034 1160.54,697.034 1162.76,697.034 1164.97,697.034 1167.19,697.034 1169.41,697.034 1171.62,697.034 1173.84,697.034 1176.05,697.034 1178.27,697.034 1180.49,697.034 1182.7,697.034 1184.92,697.034 1187.13,697.034 1189.35,697.034 1191.57,697.034 1193.78,697.034 1196,697.034 1198.21,697.034 1200.43,697.034 1202.65,697.034 1204.86,697.034 1207.08,697.034 1209.29,697.034 1211.51,697.034 1213.73,697.034 1215.94,697.034 1218.16,697.034 1220.37,697.034 1222.59,697.034 1224.81,697.034 1227.02,697.034 1229.24,697.034 1231.45,697.034 1233.67,697.034 1235.89,697.034 1238.1,697.034 1240.32,697.034 1242.53,697.034 1244.75,697.034 1246.97,697.034 1249.18,697.034 1251.4,697.034 1253.61,697.034 1255.83,697.034 1258.05,697.034 1260.26,697.034 1262.48,697.034 1264.69,697.034 1266.91,697.034 1269.13,697.034 1271.34,697.034 1273.56,697.034 1275.77,697.034 1277.99,697.034 1280.21,697.034 1282.42,697.034 1284.64,697.034 1286.85,697.034 1289.07,697.034 1291.29,697.034 1293.5,697.034 1295.72,697.034 1297.93,697.034 1300.15,697.034 1302.37,697.034 1304.58,697.034 1306.8,697.034 1309.01,697.034 1311.23,697.034 1313.45,697.034 1315.66,697.034 1317.88,697.034 1320.09,697.034 1322.31,697.034 1324.53,697.034 1326.74,697.034 1328.96,697.034 1331.17,697.034 1333.39,697.034 1335.61,697.034 1337.82,697.034 1340.04,697.034 1342.25,697.034 1344.47,697.034 1346.69,697.034 1348.9,697.034 1351.12,697.034 1353.33,697.034 1355.55,697.034 1357.77,697.034 1359.98,697.034 1362.2,697.034 1364.41,697.034 1366.63,697.034 1368.85,697.034 1371.06,697.034 1373.28,697.034 1375.49,697.034 1377.71,697.034 1379.93,697.034 1382.14,697.034 1384.36,697.034 1386.57,697.034 1388.79,697.034 1391.01,697.034 1393.22,697.034 1395.44,697.034 1397.65,697.034 1399.87,697.034 1402.09,697.034 1404.3,697.034 1406.52,697.034 1408.73,697.034 1410.95,697.034 1413.17,697.034 1415.38,697.034 1417.6,697.034 1419.81,697.034 1422.03,697.034 1424.25,697.034 1426.46,697.034 1428.68,697.034 1430.89,697.034 1433.11,697.034 1435.33,697.034 1437.54,697.034 1439.76,697.034 1441.97,697.034 1444.19,697.034 1446.41,697.034 1448.62,697.034 1450.84,697.034 1453.05,697.034 1455.27,697.034 1457.49,697.034 1459.7,697.034 1461.92,697.034 1464.13,697.034 1466.35,697.034 1468.57,697.034 1470.78,697.034 1473,697.034 1475.21,697.034 1477.43,697.034 1479.65,697.034 1481.86,697.034 1484.08,697.034 1486.3,697.034 1488.51,697.034 1490.73,697.034 1492.94,697.034 1495.16,697.034 1497.38,697.034 1499.59,697.034 1501.81,697.034 1504.02,697.034 1506.24,697.034 1508.46,697.034 1510.67,697.034 1512.89,697.034 1515.1,697.034 1517.32,697.034 1519.54,697.034 1521.75,697.034 1523.97,697.034 1526.18,697.034 1528.4,697.034 1530.62,697.034 1532.83,697.034 1535.05,697.034 1537.26,697.034 1539.48,697.034 1541.7,697.034 1543.91,697.034 1546.13,697.034 1548.34,697.034 1550.56,697.034 1552.78,697.034 1554.99,697.034 1557.21,697.034 1559.42,697.034 1561.64,697.034 1563.86,697.034 1566.07,697.034 1568.29,697.034 1570.5,697.034 1572.72,697.034 1574.94,697.034 1577.15,697.034 1579.37,697.034 1581.58,620.678 1583.8,620.678 1586.02,620.678 1588.23,620.678 1590.45,620.678 1592.66,620.678 1594.88,620.678 1597.1,620.678 1599.31,620.678 1601.53,620.678 1603.74,620.678 1605.96,620.678 1608.18,620.678 1610.39,620.678 1612.61,620.678 1614.82,620.678 1617.04,620.678 1619.26,620.678 1621.47,620.678 1623.69,620.678 1625.9,620.678 1628.12,620.678 1630.34,620.678 1632.55,620.678 1634.77,620.678 1636.98,620.678 1639.2,620.678 1641.42,620.678 1643.63,620.678 1645.85,620.678 1648.06,620.678 1650.28,620.678 1652.5,544.322 1654.71,544.322 1656.93,544.322 1659.14,544.322 1661.36,544.322 1663.58,544.322 1665.79,544.322 1668.01,544.322 1670.22,544.322 1672.44,544.322 1674.66,544.322 1676.87,544.322 1679.09,544.322 1681.3,544.322 1683.52,467.966 1685.74,467.966 1687.95,467.966 1690.17,467.966 1692.38,467.966 1694.6,467.966 1696.82,467.966 1699.03,467.966 1701.25,467.966 1703.46,467.966 1705.68,467.966 1707.9,467.966 1710.11,467.966 1712.33,467.966 1714.54,467.966 1716.76,467.966 1718.98,467.966 1721.19,467.966 1723.41,467.966 1725.62,467.966 1727.84,467.966 1730.06,467.966 1732.27,467.966 1734.49,467.966 1736.7,467.966 1738.92,391.61 1741.14,391.61 1743.35,391.61 1745.57,391.61 1747.78,391.61 1750,391.61 1752.22,391.61 1754.43,391.61 1756.65,391.61 1758.86,391.61 1761.08,391.61 1763.3,391.61 1765.51,391.61 1767.73,391.61 1769.94,391.61 1772.16,391.61 1774.38,391.61 1776.59,391.61 1778.81,391.61 1781.02,391.61 1783.24,391.61 1785.46,391.61 1787.67,391.61 1789.89,391.61 1792.1,391.61 1794.32,391.61 1796.54,391.61 1798.75,391.61 1800.97,391.61 1803.18,391.61 1805.4,391.61 1807.62,391.61 1809.83,391.61 1812.05,391.61 1814.26,391.61 1816.48,391.61 1818.7,391.61 1820.91,391.61 1823.13,391.61 1825.34,391.61 1827.56,391.61 1829.78,391.61 1831.99,391.61 1834.21,391.61 1836.42,391.61 1838.64,391.61 1840.86,391.61 1843.07,391.61 1845.29,391.61 1847.51,391.61 1849.72,391.61 1851.94,391.61 1854.15,391.61 1856.37,391.61 1858.59,391.61 1860.8,391.61 1863.02,391.61 1865.23,391.61 1867.45,391.61 1869.67,391.61 1871.88,391.61 1874.1,391.61 1876.31,391.61 1878.53,391.61 1880.75,391.61 1882.96,391.61 1885.18,391.61 1887.39,391.61 1889.61,391.61 1891.83,391.61 1894.04,391.61 1896.26,391.61 1898.47,391.61 1900.69,315.254 1902.91,315.254 1905.12,315.254 1907.34,315.254 1909.55,315.254 1911.77,315.254 1913.99,315.254 1916.2,315.254 1918.42,315.254 1920.63,315.254 1922.85,315.254 1925.07,315.254 1927.28,315.254 1929.5,315.254 1931.71,315.254 1933.93,315.254 1936.15,315.254 1938.36,315.254 1940.58,315.254 1942.79,315.254 1945.01,315.254 1947.23,315.254 1949.44,315.254 1951.66,315.254 1953.87,315.254 1956.09,315.254 1958.31,315.254 1960.52,315.254 1962.74,315.254 1964.95,315.254 1967.17,315.254 1969.39,315.254 1971.6,315.254 1973.82,315.254 1976.03,315.254 1978.25,315.254 1980.47,315.254 1982.68,315.254 1984.9,315.254 1987.11,315.254 1989.33,315.254 1991.55,315.254 1993.76,315.254 1995.98,315.254 1998.19,315.254 2000.41,315.254 2002.63,315.254 2004.84,315.254 2007.06,315.254 2009.27,315.254 2011.49,315.254 2013.71,315.254 2015.92,315.254 2018.14,315.254 2020.35,315.254 2022.57,315.254 2024.79,315.254 2027,315.254 2029.22,315.254 2031.43,315.254 2033.65,315.254 2035.87,315.254 2038.08,315.254 2040.3,315.254 2042.51,315.254 2044.73,315.254 2046.95,315.254 2049.16,315.254 2051.38,315.254 2053.59,315.254 2055.81,315.254 2058.03,315.254 2060.24,315.254 2062.46,315.254 2064.67,315.254 2066.89,315.254 2069.11,315.254 2071.32,238.898 2073.54,238.898 2075.75,238.898 2077.97,238.898 2080.19,238.898 2082.4,238.898 2084.62,238.898 2086.83,238.898 2089.05,238.898 2091.27,238.898 2093.48,238.898 2095.7,238.898 2097.91,238.898 2100.13,238.898 2102.35,238.898 2104.56,238.898 2106.78,238.898 2108.99,238.898 2111.21,238.898 2113.43,238.898 2115.64,238.898 2117.86,238.898 2120.07,238.898 2122.29,238.898 2124.51,238.898 2126.72,238.898 2128.94,238.898 2131.15,238.898 2133.37,238.898 2135.59,238.898 2137.8,238.898 2140.02,238.898 2142.23,238.898 2144.45,238.898 2146.67,238.898 2148.88,238.898 2151.1,238.898 2153.31,238.898 2155.53,238.898 2157.75,238.898 2159.96,238.898 2162.18,238.898 2164.39,238.898 2166.61,238.898 2168.83,238.898 2171.04,238.898 2173.26,238.898 2175.47,238.898 2177.69,238.898 2179.91,238.898 2182.12,238.898 2184.34,238.898 2186.55,238.898 2188.77,238.898 2190.99,238.898 2193.2,238.898 2195.42,238.898 2197.64,238.898 2199.85,238.898 2202.07,238.898 2204.28,238.898 2206.5,238.898 2208.72,238.898 2210.93,238.898 2213.15,238.898 2215.36,238.898 2217.58,238.898 2219.8,238.898 2222.01,162.542 2224.23,162.542 2226.44,162.542 2228.66,86.1857 2230.88,86.1857 2233.09,86.1857 2235.31,86.1857 2237.52,86.1857 2239.74,86.1857 2241.96,86.1857 2244.17,86.1857 2246.39,86.1857 2248.6,86.1857 2250.82,86.1857 2253.04,86.1857 2255.25,86.1857 2257.47,86.1857 2259.68,86.1857 2261.9,86.1857 2264.12,86.1857 2266.33,86.1857 2268.55,86.1857 2270.76,86.1857 2272.98,86.1857 2275.2,86.1857 2277.41,86.1857 2279.63,86.1857 2281.84,86.1857 2284.06,86.1857 2286.28,86.1857 2288.49,86.1857 2290.71,86.1857 2292.92,86.1857 2295.14,86.1857 2297.36,86.1857 2299.57,86.1857 2301.79,86.1857 2304,86.1857 2306.22,86.1857 2308.44,86.1857 2310.65,86.1857 2312.87,86.1857 2315.08,86.1857 2317.3,86.1857 2319.52,86.1857 2321.73,86.1857 2323.95,86.1857 2326.16,86.1857 2328.38,86.1857 2330.6,86.1857 2332.81,86.1857 2335.03,86.1857 2337.24,86.1857 2339.46,86.1857 2341.68,86.1857 2343.89,86.1857 2346.11,86.1857 2348.32,86.1857 2350.54,86.1857 2352.76,86.1857 "/>
<path clip-path="url(#clip620)" d="M212.753 248.629 L517.488 248.629 L517.488 93.1086 L212.753 93.1086  Z" fill="#ffffff" fill-rule="evenodd" fill-opacity="1"/>
<polyline clip-path="url(#clip620)" style="stroke:#000000; stroke-linecap:round; stroke-linejoin:round; stroke-width:4; stroke-opacity:1; fill:none" points="212.753,248.629 517.488,248.629 517.488,93.1086 212.753,93.1086 212.753,248.629 "/>
<polyline clip-path="url(#clip620)" style="stroke:#009af9; stroke-linecap:round; stroke-linejoin:round; stroke-width:8; stroke-opacity:1; fill:none" points="237.35,144.949 384.937,144.949 "/>
<path clip-path="url(#clip620)" d="M409.535 127.669 L415.831 127.669 L431.155 156.581 L431.155 127.669 L435.692 127.669 L435.692 162.229 L429.396 162.229 L414.072 133.317 L414.072 162.229 L409.535 162.229 L409.535 127.669 Z" fill="#000000" fill-rule="nonzero" fill-opacity="1" /><path clip-path="url(#clip620)" d="M455.044 126.257 Q451.942 131.581 450.437 136.789 Q448.933 141.997 448.933 147.344 Q448.933 152.692 450.437 157.946 Q451.965 163.178 455.044 168.479 L451.34 168.479 Q447.868 163.039 446.132 157.784 Q444.419 152.53 444.419 147.344 Q444.419 142.182 446.132 136.951 Q447.845 131.72 451.34 126.257 L455.044 126.257 Z" fill="#000000" fill-rule="nonzero" fill-opacity="1" /><path clip-path="url(#clip620)" d="M467.52 128.942 L467.52 136.303 L476.293 136.303 L476.293 139.613 L467.52 139.613 L467.52 153.687 Q467.52 156.858 468.377 157.761 Q469.256 158.664 471.918 158.664 L476.293 158.664 L476.293 162.229 L471.918 162.229 Q466.988 162.229 465.113 160.4 Q463.238 158.548 463.238 153.687 L463.238 139.613 L460.113 139.613 L460.113 136.303 L463.238 136.303 L463.238 128.942 L467.52 128.942 Z" fill="#000000" fill-rule="nonzero" fill-opacity="1" /><path clip-path="url(#clip620)" d="M481.224 126.257 L484.928 126.257 Q488.4 131.72 490.113 136.951 Q491.849 142.182 491.849 147.344 Q491.849 152.53 490.113 157.784 Q488.4 163.039 484.928 168.479 L481.224 168.479 Q484.303 163.178 485.807 157.946 Q487.335 152.692 487.335 147.344 Q487.335 141.997 485.807 136.789 Q484.303 131.581 481.224 126.257 Z" fill="#000000" fill-rule="nonzero" fill-opacity="1" /><polyline clip-path="url(#clip620)" style="stroke:#e26f46; stroke-linecap:round; stroke-linejoin:round; stroke-width:8; stroke-opacity:1; fill:none" points="237.35,196.789 384.937,196.789 "/>
<path clip-path="url(#clip620)" d="M414.21 183.351 L414.21 210.226 L419.859 210.226 Q427.011 210.226 430.321 206.985 Q433.655 203.745 433.655 196.754 Q433.655 189.809 430.321 186.592 Q427.011 183.351 419.859 183.351 L414.21 183.351 M409.535 179.509 L419.141 179.509 Q429.187 179.509 433.886 183.698 Q438.585 187.865 438.585 196.754 Q438.585 205.689 433.863 209.879 Q429.141 214.069 419.141 214.069 L409.535 214.069 L409.535 179.509 Z" fill="#000000" fill-rule="nonzero" fill-opacity="1" /><path clip-path="url(#clip620)" d="M456.085 178.097 Q452.983 183.421 451.479 188.629 Q449.974 193.837 449.974 199.184 Q449.974 204.532 451.479 209.786 Q453.007 215.018 456.085 220.319 L452.382 220.319 Q448.909 214.879 447.173 209.624 Q445.46 204.37 445.46 199.184 Q445.46 194.022 447.173 188.791 Q448.886 183.56 452.382 178.097 L456.085 178.097 Z" fill="#000000" fill-rule="nonzero" fill-opacity="1" /><path clip-path="url(#clip620)" d="M468.562 180.782 L468.562 188.143 L477.335 188.143 L477.335 191.453 L468.562 191.453 L468.562 205.527 Q468.562 208.698 469.419 209.601 Q470.298 210.504 472.96 210.504 L477.335 210.504 L477.335 214.069 L472.96 214.069 Q468.03 214.069 466.155 212.24 Q464.28 210.388 464.28 205.527 L464.28 191.453 L461.155 191.453 L461.155 188.143 L464.28 188.143 L464.28 180.782 L468.562 180.782 Z" fill="#000000" fill-rule="nonzero" fill-opacity="1" /><path clip-path="url(#clip620)" d="M482.266 178.097 L485.969 178.097 Q489.442 183.56 491.154 188.791 Q492.891 194.022 492.891 199.184 Q492.891 204.37 491.154 209.624 Q489.442 214.879 485.969 220.319 L482.266 220.319 Q485.344 215.018 486.849 209.786 Q488.377 204.532 488.377 199.184 Q488.377 193.837 486.849 188.629 Q485.344 183.421 482.266 178.097 Z" fill="#000000" fill-rule="nonzero" fill-opacity="1" /></svg>
