<?xml version="1.0" encoding="utf-8"?>
<svg xmlns="http://www.w3.org/2000/svg" xmlns:xlink="http://www.w3.org/1999/xlink" width="600" height="400" viewBox="0 0 2400 1600">
<defs>
  <clipPath id="clip530">
    <rect x="0" y="0" width="2400" height="1600"/>
  </clipPath>
</defs>
<path clip-path="url(#clip530)" d="M0 1600 L2400 1600 L2400 0 L0 0  Z" fill="#ffffff" fill-rule="evenodd" fill-opacity="1"/>
<defs>
  <clipPath id="clip531">
    <rect x="184" y="47" width="2170" height="1377"/>
  </clipPath>
</defs>
<path clip-path="url(#clip530)" d="M184.191 1423.18 L2352.76 1423.18 L2352.76 47.2441 L184.191 47.2441  Z" fill="#ffffff" fill-rule="evenodd" fill-opacity="1"/>
<polyline clip-path="url(#clip531)" style="stroke:#000000; stroke-linecap:round; stroke-linejoin:round; stroke-width:2; stroke-opacity:0.1; fill:none" points="184.191,1423.18 184.191,47.2441 "/>
<polyline clip-path="url(#clip531)" style="stroke:#000000; stroke-linecap:round; stroke-linejoin:round; stroke-width:2; stroke-opacity:0.1; fill:none" points="617.904,1423.18 617.904,47.2441 "/>
<polyline clip-path="url(#clip531)" style="stroke:#000000; stroke-linecap:round; stroke-linejoin:round; stroke-width:2; stroke-opacity:0.1; fill:none" points="1051.62,1423.18 1051.62,47.2441 "/>
<polyline clip-path="url(#clip531)" style="stroke:#000000; stroke-linecap:round; stroke-linejoin:round; stroke-width:2; stroke-opacity:0.1; fill:none" points="1485.33,1423.18 1485.33,47.2441 "/>
<polyline clip-path="url(#clip531)" style="stroke:#000000; stroke-linecap:round; stroke-linejoin:round; stroke-width:2; stroke-opacity:0.1; fill:none" points="1919.04,1423.18 1919.04,47.2441 "/>
<polyline clip-path="url(#clip531)" style="stroke:#000000; stroke-linecap:round; stroke-linejoin:round; stroke-width:2; stroke-opacity:0.1; fill:none" points="2352.76,1423.18 2352.76,47.2441 "/>
<polyline clip-path="url(#clip531)" style="stroke:#000000; stroke-linecap:round; stroke-linejoin:round; stroke-width:2; stroke-opacity:0.1; fill:none" points="184.191,1384.24 2352.76,1384.24 "/>
<polyline clip-path="url(#clip531)" style="stroke:#000000; stroke-linecap:round; stroke-linejoin:round; stroke-width:2; stroke-opacity:0.1; fill:none" points="184.191,1113.81 2352.76,1113.81 "/>
<polyline clip-path="url(#clip531)" style="stroke:#000000; stroke-linecap:round; stroke-linejoin:round; stroke-width:2; stroke-opacity:0.1; fill:none" points="184.191,843.383 2352.76,843.383 "/>
<polyline clip-path="url(#clip531)" style="stroke:#000000; stroke-linecap:round; stroke-linejoin:round; stroke-width:2; stroke-opacity:0.1; fill:none" points="184.191,572.955 2352.76,572.955 "/>
<polyline clip-path="url(#clip531)" style="stroke:#000000; stroke-linecap:round; stroke-linejoin:round; stroke-width:2; stroke-opacity:0.1; fill:none" points="184.191,302.528 2352.76,302.528 "/>
<polyline clip-path="url(#clip530)" style="stroke:#000000; stroke-linecap:round; stroke-linejoin:round; stroke-width:4; stroke-opacity:1; fill:none" points="184.191,1423.18 2352.76,1423.18 "/>
<polyline clip-path="url(#clip530)" style="stroke:#000000; stroke-linecap:round; stroke-linejoin:round; stroke-width:4; stroke-opacity:1; fill:none" points="184.191,1423.18 184.191,1404.28 "/>
<polyline clip-path="url(#clip530)" style="stroke:#000000; stroke-linecap:round; stroke-linejoin:round; stroke-width:4; stroke-opacity:1; fill:none" points="617.904,1423.18 617.904,1404.28 "/>
<polyline clip-path="url(#clip530)" style="stroke:#000000; stroke-linecap:round; stroke-linejoin:round; stroke-width:4; stroke-opacity:1; fill:none" points="1051.62,1423.18 1051.62,1404.28 "/>
<polyline clip-path="url(#clip530)" style="stroke:#000000; stroke-linecap:round; stroke-linejoin:round; stroke-width:4; stroke-opacity:1; fill:none" points="1485.33,1423.18 1485.33,1404.28 "/>
<polyline clip-path="url(#clip530)" style="stroke:#000000; stroke-linecap:round; stroke-linejoin:round; stroke-width:4; stroke-opacity:1; fill:none" points="1919.04,1423.18 1919.04,1404.28 "/>
<polyline clip-path="url(#clip530)" style="stroke:#000000; stroke-linecap:round; stroke-linejoin:round; stroke-width:4; stroke-opacity:1; fill:none" points="2352.76,1423.18 2352.76,1404.28 "/>
<path clip-path="url(#clip530)" d="M184.191 1454.1 Q180.58 1454.1 178.751 1457.66 Q176.945 1461.2 176.945 1468.33 Q176.945 1475.44 178.751 1479.01 Q180.58 1482.55 184.191 1482.55 Q187.825 1482.55 189.63 1479.01 Q191.459 1475.44 191.459 1468.33 Q191.459 1461.2 189.63 1457.66 Q187.825 1454.1 184.191 1454.1 M184.191 1450.39 Q190.001 1450.39 193.056 1455 Q196.135 1459.58 196.135 1468.33 Q196.135 1477.06 193.056 1481.67 Q190.001 1486.25 184.191 1486.25 Q178.381 1486.25 175.302 1481.67 Q172.246 1477.06 172.246 1468.33 Q172.246 1459.58 175.302 1455 Q178.381 1450.39 184.191 1450.39 Z" fill="#000000" fill-rule="nonzero" fill-opacity="1" /><path clip-path="url(#clip530)" d="M612.557 1481.64 L628.876 1481.64 L628.876 1485.58 L606.932 1485.58 L606.932 1481.64 Q609.594 1478.89 614.177 1474.26 Q618.783 1469.61 619.964 1468.27 Q622.209 1465.74 623.089 1464.01 Q623.992 1462.25 623.992 1460.56 Q623.992 1457.8 622.047 1456.07 Q620.126 1454.33 617.024 1454.33 Q614.825 1454.33 612.371 1455.09 Q609.941 1455.86 607.163 1457.41 L607.163 1452.69 Q609.987 1451.55 612.441 1450.97 Q614.894 1450.39 616.932 1450.39 Q622.302 1450.39 625.496 1453.08 Q628.691 1455.77 628.691 1460.26 Q628.691 1462.39 627.881 1464.31 Q627.093 1466.2 624.987 1468.8 Q624.408 1469.47 621.306 1472.69 Q618.205 1475.88 612.557 1481.64 Z" fill="#000000" fill-rule="nonzero" fill-opacity="1" /><path clip-path="url(#clip530)" d="M1054.63 1455.09 L1042.82 1473.54 L1054.63 1473.54 L1054.63 1455.09 M1053.4 1451.02 L1059.28 1451.02 L1059.28 1473.54 L1064.21 1473.54 L1064.21 1477.43 L1059.28 1477.43 L1059.28 1485.58 L1054.63 1485.58 L1054.63 1477.43 L1039.02 1477.43 L1039.02 1472.92 L1053.4 1451.02 Z" fill="#000000" fill-rule="nonzero" fill-opacity="1" /><path clip-path="url(#clip530)" d="M1485.73 1466.44 Q1482.59 1466.44 1480.73 1468.59 Q1478.91 1470.74 1478.91 1474.49 Q1478.91 1478.22 1480.73 1480.39 Q1482.59 1482.55 1485.73 1482.55 Q1488.88 1482.55 1490.71 1480.39 Q1492.56 1478.22 1492.56 1474.49 Q1492.56 1470.74 1490.71 1468.59 Q1488.88 1466.44 1485.73 1466.44 M1495.02 1451.78 L1495.02 1456.04 Q1493.26 1455.21 1491.45 1454.77 Q1489.67 1454.33 1487.91 1454.33 Q1483.28 1454.33 1480.83 1457.45 Q1478.4 1460.58 1478.05 1466.9 Q1479.42 1464.89 1481.48 1463.82 Q1483.54 1462.73 1486.01 1462.73 Q1491.22 1462.73 1494.23 1465.9 Q1497.26 1469.05 1497.26 1474.49 Q1497.26 1479.82 1494.11 1483.03 Q1490.97 1486.25 1485.73 1486.25 Q1479.74 1486.25 1476.57 1481.67 Q1473.4 1477.06 1473.4 1468.33 Q1473.4 1460.14 1477.29 1455.28 Q1481.17 1450.39 1487.73 1450.39 Q1489.48 1450.39 1491.27 1450.74 Q1493.07 1451.09 1495.02 1451.78 Z" fill="#000000" fill-rule="nonzero" fill-opacity="1" /><path clip-path="url(#clip530)" d="M1919.04 1469.17 Q1915.71 1469.17 1913.79 1470.95 Q1911.89 1472.73 1911.89 1475.86 Q1911.89 1478.98 1913.79 1480.77 Q1915.71 1482.55 1919.04 1482.55 Q1922.38 1482.55 1924.3 1480.77 Q1926.22 1478.96 1926.22 1475.86 Q1926.22 1472.73 1924.3 1470.95 Q1922.4 1469.17 1919.04 1469.17 M1914.37 1467.18 Q1911.36 1466.44 1909.67 1464.38 Q1908 1462.32 1908 1459.35 Q1908 1455.21 1910.94 1452.8 Q1913.9 1450.39 1919.04 1450.39 Q1924.2 1450.39 1927.14 1452.8 Q1930.08 1455.21 1930.08 1459.35 Q1930.08 1462.32 1928.39 1464.38 Q1926.73 1466.44 1923.74 1467.18 Q1927.12 1467.96 1929 1470.26 Q1930.89 1472.55 1930.89 1475.86 Q1930.89 1480.88 1927.82 1483.57 Q1924.76 1486.25 1919.04 1486.25 Q1913.33 1486.25 1910.25 1483.57 Q1907.19 1480.88 1907.19 1475.86 Q1907.19 1472.55 1909.09 1470.26 Q1910.99 1467.96 1914.37 1467.18 M1912.65 1459.79 Q1912.65 1462.48 1914.32 1463.98 Q1916.01 1465.49 1919.04 1465.49 Q1922.05 1465.49 1923.74 1463.98 Q1925.45 1462.48 1925.45 1459.79 Q1925.45 1457.11 1923.74 1455.6 Q1922.05 1454.1 1919.04 1454.1 Q1916.01 1454.1 1914.32 1455.6 Q1912.65 1457.11 1912.65 1459.79 Z" fill="#000000" fill-rule="nonzero" fill-opacity="1" /><path clip-path="url(#clip530)" d="M2327.44 1481.64 L2335.08 1481.64 L2335.08 1455.28 L2326.77 1456.95 L2326.77 1452.69 L2335.04 1451.02 L2339.71 1451.02 L2339.71 1481.64 L2347.35 1481.64 L2347.35 1485.58 L2327.44 1485.58 L2327.44 1481.64 Z" fill="#000000" fill-rule="nonzero" fill-opacity="1" /><path clip-path="url(#clip530)" d="M2366.8 1454.1 Q2363.18 1454.1 2361.36 1457.66 Q2359.55 1461.2 2359.55 1468.33 Q2359.55 1475.44 2361.36 1479.01 Q2363.18 1482.55 2366.8 1482.55 Q2370.43 1482.55 2372.23 1479.01 Q2374.06 1475.44 2374.06 1468.33 Q2374.06 1461.2 2372.23 1457.66 Q2370.43 1454.1 2366.8 1454.1 M2366.8 1450.39 Q2372.61 1450.39 2375.66 1455 Q2378.74 1459.58 2378.74 1468.33 Q2378.74 1477.06 2375.66 1481.67 Q2372.61 1486.25 2366.8 1486.25 Q2360.99 1486.25 2357.91 1481.67 Q2354.85 1477.06 2354.85 1468.33 Q2354.85 1459.58 2357.91 1455 Q2360.99 1450.39 2366.8 1450.39 Z" fill="#000000" fill-rule="nonzero" fill-opacity="1" /><path clip-path="url(#clip530)" d="M1267.53 1522.27 L1267.53 1532.4 L1279.6 1532.4 L1279.6 1536.95 L1267.53 1536.95 L1267.53 1556.3 Q1267.53 1560.66 1268.71 1561.9 Q1269.92 1563.14 1273.58 1563.14 L1279.6 1563.14 L1279.6 1568.04 L1273.58 1568.04 Q1266.8 1568.04 1264.22 1565.53 Q1261.65 1562.98 1261.65 1556.3 L1261.65 1536.95 L1257.35 1536.95 L1257.35 1532.4 L1261.65 1532.4 L1261.65 1522.27 L1267.53 1522.27 Z" fill="#000000" fill-rule="nonzero" fill-opacity="1" /><polyline clip-path="url(#clip530)" style="stroke:#000000; stroke-linecap:round; stroke-linejoin:round; stroke-width:4; stroke-opacity:1; fill:none" points="184.191,1423.18 184.191,47.2441 "/>
<polyline clip-path="url(#clip530)" style="stroke:#000000; stroke-linecap:round; stroke-linejoin:round; stroke-width:4; stroke-opacity:1; fill:none" points="184.191,1384.24 203.088,1384.24 "/>
<polyline clip-path="url(#clip530)" style="stroke:#000000; stroke-linecap:round; stroke-linejoin:round; stroke-width:4; stroke-opacity:1; fill:none" points="184.191,1113.81 203.088,1113.81 "/>
<polyline clip-path="url(#clip530)" style="stroke:#000000; stroke-linecap:round; stroke-linejoin:round; stroke-width:4; stroke-opacity:1; fill:none" points="184.191,843.383 203.088,843.383 "/>
<polyline clip-path="url(#clip530)" style="stroke:#000000; stroke-linecap:round; stroke-linejoin:round; stroke-width:4; stroke-opacity:1; fill:none" points="184.191,572.955 203.088,572.955 "/>
<polyline clip-path="url(#clip530)" style="stroke:#000000; stroke-linecap:round; stroke-linejoin:round; stroke-width:4; stroke-opacity:1; fill:none" points="184.191,302.528 203.088,302.528 "/>
<path clip-path="url(#clip530)" d="M91.0151 1370.04 Q87.404 1370.04 85.5753 1373.6 Q83.7697 1377.14 83.7697 1384.27 Q83.7697 1391.38 85.5753 1394.94 Q87.404 1398.49 91.0151 1398.49 Q94.6493 1398.49 96.4548 1394.94 Q98.2835 1391.38 98.2835 1384.27 Q98.2835 1377.14 96.4548 1373.6 Q94.6493 1370.04 91.0151 1370.04 M91.0151 1366.33 Q96.8252 1366.33 99.8808 1370.94 Q102.959 1375.52 102.959 1384.27 Q102.959 1393 99.8808 1397.61 Q96.8252 1402.19 91.0151 1402.19 Q85.2049 1402.19 82.1262 1397.61 Q79.0707 1393 79.0707 1384.27 Q79.0707 1375.52 82.1262 1370.94 Q85.2049 1366.33 91.0151 1366.33 Z" fill="#000000" fill-rule="nonzero" fill-opacity="1" /><path clip-path="url(#clip530)" d="M111.177 1395.64 L116.061 1395.64 L116.061 1401.52 L111.177 1401.52 L111.177 1395.64 Z" fill="#000000" fill-rule="nonzero" fill-opacity="1" /><path clip-path="url(#clip530)" d="M136.246 1370.04 Q132.635 1370.04 130.807 1373.6 Q129.001 1377.14 129.001 1384.27 Q129.001 1391.38 130.807 1394.94 Q132.635 1398.49 136.246 1398.49 Q139.881 1398.49 141.686 1394.94 Q143.515 1391.38 143.515 1384.27 Q143.515 1377.14 141.686 1373.6 Q139.881 1370.04 136.246 1370.04 M136.246 1366.33 Q142.056 1366.33 145.112 1370.94 Q148.191 1375.52 148.191 1384.27 Q148.191 1393 145.112 1397.61 Q142.056 1402.19 136.246 1402.19 Q130.436 1402.19 127.357 1397.61 Q124.302 1393 124.302 1384.27 Q124.302 1375.52 127.357 1370.94 Q130.436 1366.33 136.246 1366.33 Z" fill="#000000" fill-rule="nonzero" fill-opacity="1" /><path clip-path="url(#clip530)" d="M86.0382 1127.16 L102.358 1127.16 L102.358 1131.09 L80.4133 1131.09 L80.4133 1127.16 Q83.0753 1124.4 87.6586 1119.77 Q92.2651 1115.12 93.4456 1113.78 Q95.691 1111.25 96.5706 1109.52 Q97.4734 1107.76 97.4734 1106.07 Q97.4734 1103.31 95.5289 1101.58 Q93.6076 1099.84 90.5058 1099.84 Q88.3067 1099.84 85.8531 1100.6 Q83.4225 1101.37 80.6447 1102.92 L80.6447 1098.2 Q83.4688 1097.06 85.9225 1096.48 Q88.3762 1095.91 90.4132 1095.91 Q95.7836 1095.91 98.978 1098.59 Q102.172 1101.28 102.172 1105.77 Q102.172 1107.9 101.362 1109.82 Q100.575 1111.72 98.4687 1114.31 Q97.89 1114.98 94.7882 1118.2 Q91.6864 1121.39 86.0382 1127.16 Z" fill="#000000" fill-rule="nonzero" fill-opacity="1" /><path clip-path="url(#clip530)" d="M112.172 1125.21 L117.057 1125.21 L117.057 1131.09 L112.172 1131.09 L112.172 1125.21 Z" fill="#000000" fill-rule="nonzero" fill-opacity="1" /><path clip-path="url(#clip530)" d="M127.288 1096.53 L145.644 1096.53 L145.644 1100.47 L131.57 1100.47 L131.57 1108.94 Q132.589 1108.59 133.607 1108.43 Q134.626 1108.24 135.644 1108.24 Q141.431 1108.24 144.811 1111.41 Q148.191 1114.59 148.191 1120 Q148.191 1125.58 144.718 1128.68 Q141.246 1131.76 134.927 1131.76 Q132.751 1131.76 130.482 1131.39 Q128.237 1131.02 125.83 1130.28 L125.83 1125.58 Q127.913 1126.72 130.135 1127.27 Q132.357 1127.83 134.834 1127.83 Q138.839 1127.83 141.177 1125.72 Q143.515 1123.61 143.515 1120 Q143.515 1116.39 141.177 1114.29 Q138.839 1112.18 134.834 1112.18 Q132.959 1112.18 131.084 1112.6 Q129.232 1113.01 127.288 1113.89 L127.288 1096.53 Z" fill="#000000" fill-rule="nonzero" fill-opacity="1" /><path clip-path="url(#clip530)" d="M81.0614 826.103 L99.4178 826.103 L99.4178 830.038 L85.3438 830.038 L85.3438 838.51 Q86.3623 838.163 87.3808 838.001 Q88.3993 837.816 89.4178 837.816 Q95.2049 837.816 98.5845 840.987 Q101.964 844.158 101.964 849.575 Q101.964 855.154 98.4919 858.256 Q95.0197 861.334 88.7003 861.334 Q86.5243 861.334 84.2558 860.964 Q82.0105 860.594 79.6031 859.853 L79.6031 855.154 Q81.6864 856.288 83.9086 856.844 Q86.1308 857.399 88.6077 857.399 Q92.6123 857.399 94.9502 855.293 Q97.2882 853.186 97.2882 849.575 Q97.2882 845.964 94.9502 843.858 Q92.6123 841.751 88.6077 841.751 Q86.7327 841.751 84.8577 842.168 Q83.0058 842.584 81.0614 843.464 L81.0614 826.103 Z" fill="#000000" fill-rule="nonzero" fill-opacity="1" /><path clip-path="url(#clip530)" d="M111.177 854.783 L116.061 854.783 L116.061 860.663 L111.177 860.663 L111.177 854.783 Z" fill="#000000" fill-rule="nonzero" fill-opacity="1" /><path clip-path="url(#clip530)" d="M136.246 829.182 Q132.635 829.182 130.807 832.747 Q129.001 836.288 129.001 843.418 Q129.001 850.524 130.807 854.089 Q132.635 857.631 136.246 857.631 Q139.881 857.631 141.686 854.089 Q143.515 850.524 143.515 843.418 Q143.515 836.288 141.686 832.747 Q139.881 829.182 136.246 829.182 M136.246 825.478 Q142.056 825.478 145.112 830.084 Q148.191 834.668 148.191 843.418 Q148.191 852.145 145.112 856.751 Q142.056 861.334 136.246 861.334 Q130.436 861.334 127.357 856.751 Q124.302 852.145 124.302 843.418 Q124.302 834.668 127.357 830.084 Q130.436 825.478 136.246 825.478 Z" fill="#000000" fill-rule="nonzero" fill-opacity="1" /><path clip-path="url(#clip530)" d="M80.8299 555.675 L103.052 555.675 L103.052 557.666 L90.5058 590.235 L85.6216 590.235 L97.4271 559.611 L80.8299 559.611 L80.8299 555.675 Z" fill="#000000" fill-rule="nonzero" fill-opacity="1" /><path clip-path="url(#clip530)" d="M112.172 584.356 L117.057 584.356 L117.057 590.235 L112.172 590.235 L112.172 584.356 Z" fill="#000000" fill-rule="nonzero" fill-opacity="1" /><path clip-path="url(#clip530)" d="M127.288 555.675 L145.644 555.675 L145.644 559.611 L131.57 559.611 L131.57 568.083 Q132.589 567.736 133.607 567.573 Q134.626 567.388 135.644 567.388 Q141.431 567.388 144.811 570.56 Q148.191 573.731 148.191 579.147 Q148.191 584.726 144.718 587.828 Q141.246 590.907 134.927 590.907 Q132.751 590.907 130.482 590.536 Q128.237 590.166 125.83 589.425 L125.83 584.726 Q127.913 585.86 130.135 586.416 Q132.357 586.972 134.834 586.972 Q138.839 586.972 141.177 584.865 Q143.515 582.759 143.515 579.147 Q143.515 575.536 141.177 573.43 Q138.839 571.323 134.834 571.323 Q132.959 571.323 131.084 571.74 Q129.232 572.157 127.288 573.036 L127.288 555.675 Z" fill="#000000" fill-rule="nonzero" fill-opacity="1" /><path clip-path="url(#clip530)" d="M51.6634 315.873 L59.3023 315.873 L59.3023 289.507 L50.9921 291.174 L50.9921 286.914 L59.256 285.248 L63.9319 285.248 L63.9319 315.873 L71.5707 315.873 L71.5707 319.808 L51.6634 319.808 L51.6634 315.873 Z" fill="#000000" fill-rule="nonzero" fill-opacity="1" /><path clip-path="url(#clip530)" d="M91.0151 288.326 Q87.404 288.326 85.5753 291.891 Q83.7697 295.433 83.7697 302.562 Q83.7697 309.669 85.5753 313.234 Q87.404 316.775 91.0151 316.775 Q94.6493 316.775 96.4548 313.234 Q98.2835 309.669 98.2835 302.562 Q98.2835 295.433 96.4548 291.891 Q94.6493 288.326 91.0151 288.326 M91.0151 284.623 Q96.8252 284.623 99.8808 289.229 Q102.959 293.813 102.959 302.562 Q102.959 311.289 99.8808 315.896 Q96.8252 320.479 91.0151 320.479 Q85.2049 320.479 82.1262 315.896 Q79.0707 311.289 79.0707 302.562 Q79.0707 293.813 82.1262 289.229 Q85.2049 284.623 91.0151 284.623 Z" fill="#000000" fill-rule="nonzero" fill-opacity="1" /><path clip-path="url(#clip530)" d="M111.177 313.928 L116.061 313.928 L116.061 319.808 L111.177 319.808 L111.177 313.928 Z" fill="#000000" fill-rule="nonzero" fill-opacity="1" /><path clip-path="url(#clip530)" d="M136.246 288.326 Q132.635 288.326 130.807 291.891 Q129.001 295.433 129.001 302.562 Q129.001 309.669 130.807 313.234 Q132.635 316.775 136.246 316.775 Q139.881 316.775 141.686 313.234 Q143.515 309.669 143.515 302.562 Q143.515 295.433 141.686 291.891 Q139.881 288.326 136.246 288.326 M136.246 284.623 Q142.056 284.623 145.112 289.229 Q148.191 293.813 148.191 302.562 Q148.191 311.289 145.112 315.896 Q142.056 320.479 136.246 320.479 Q130.436 320.479 127.357 315.896 Q124.302 311.289 124.302 302.562 Q124.302 293.813 127.357 289.229 Q130.436 284.623 136.246 284.623 Z" fill="#000000" fill-rule="nonzero" fill-opacity="1" /><polyline clip-path="url(#clip531)" style="stroke:#009af9; stroke-linecap:round; stroke-linejoin:round; stroke-width:8; stroke-opacity:1; fill:none" points="184.191,1384.24 185.741,1384.24 187.291,1384.24 188.841,1384.24 190.391,1384.24 191.941,1384.24 193.491,1384.24 195.041,1384.24 196.591,1384.24 198.141,1384.24 199.692,1384.24 201.242,1384.24 202.792,1384.24 204.342,1384.24 205.892,1384.24 207.442,1384.24 208.992,1384.24 210.542,1384.24 212.092,1384.24 213.642,1384.24 215.192,1384.24 216.742,1384.24 218.292,1384.24 219.843,1384.24 221.393,1384.24 222.943,1384.24 224.493,1384.24 226.043,1384.24 227.593,1384.24 229.143,1384.24 230.693,1384.24 232.243,1384.24 233.793,1384.24 235.343,1384.24 236.893,1384.24 238.444,1384.24 239.994,1384.24 241.544,1384.24 243.094,1384.24 244.644,1384.24 246.194,1384.24 247.744,1384.24 249.294,1384.24 250.844,1384.24 252.394,1384.24 253.944,1384.24 255.494,1384.24 257.045,1384.24 258.595,1384.24 260.145,1384.24 261.695,1384.24 263.245,1384.24 264.795,1384.24 266.345,1384.24 267.895,1384.24 269.445,1384.24 270.995,1384.24 272.545,1384.24 274.095,1384.24 275.646,1384.24 277.196,1384.24 278.746,1384.24 280.296,1384.24 281.846,1384.24 283.396,1384.24 284.946,1384.24 286.496,1384.24 288.046,1384.24 289.596,1384.24 291.146,1384.24 292.696,1384.24 294.247,1384.24 295.797,1384.24 297.347,1384.24 298.897,1384.24 300.447,1384.24 301.997,1384.24 303.547,1384.24 305.097,1384.24 306.647,1384.24 308.197,1384.24 309.747,1384.24 311.297,1384.24 312.848,1384.24 314.398,1384.24 315.948,1384.24 317.498,1384.24 319.048,1384.24 320.598,1384.24 322.148,1384.24 323.698,1384.24 325.248,1384.24 326.798,1384.24 328.348,1384.24 329.898,1384.24 331.449,1384.24 332.999,1384.24 334.549,1384.24 336.099,1384.24 337.649,1384.24 339.199,1384.24 340.749,1384.24 342.299,1384.24 343.849,1384.24 345.399,1384.24 346.949,1384.24 348.499,1384.24 350.049,1384.24 351.6,1384.24 353.15,1384.24 354.7,1384.24 356.25,1384.24 357.8,1384.24 359.35,1384.24 360.9,1384.24 362.45,1384.24 364,1384.24 365.55,1384.24 367.1,1384.24 368.65,1384.24 370.201,1384.24 371.751,1384.24 373.301,1384.24 374.851,1384.24 376.401,1384.24 377.951,1384.24 379.501,1384.24 381.051,1384.24 382.601,1384.24 384.151,1384.24 385.701,1384.24 387.251,1384.24 388.802,1384.24 390.352,1384.24 391.902,1384.24 393.452,1384.24 395.002,1384.24 396.552,1384.24 398.102,1384.24 399.652,1384.24 401.202,1384.24 402.752,1384.24 404.302,1384.24 405.852,1276.07 407.403,1276.07 408.953,1276.07 410.503,1276.07 412.053,1276.07 413.603,1276.07 415.153,1276.07 416.703,1276.07 418.253,1276.07 419.803,1276.07 421.353,1276.07 422.903,1276.07 424.453,1276.07 426.004,1276.07 427.554,1276.07 429.104,1276.07 430.654,1276.07 432.204,1276.07 433.754,1276.07 435.304,1276.07 436.854,1276.07 438.404,1276.07 439.954,1276.07 441.504,1276.07 443.054,1276.07 444.605,1276.07 446.155,1276.07 447.705,1276.07 449.255,1276.07 450.805,1276.07 452.355,1276.07 453.905,1276.07 455.455,1276.07 457.005,1276.07 458.555,1276.07 460.105,1276.07 461.655,1276.07 463.206,1276.07 464.756,1276.07 466.306,1276.07 467.856,1276.07 469.406,1276.07 470.956,1276.07 472.506,1276.07 474.056,1167.9 475.606,1167.9 477.156,1167.9 478.706,1167.9 480.256,1167.9 481.806,1167.9 483.357,1167.9 484.907,1167.9 486.457,1167.9 488.007,1167.9 489.557,1167.9 491.107,1167.9 492.657,1167.9 494.207,1167.9 495.757,1167.9 497.307,1167.9 498.857,1167.9 500.407,1167.9 501.958,1167.9 503.508,1167.9 505.058,1167.9 506.608,1167.9 508.158,1167.9 509.708,1167.9 511.258,1167.9 512.808,1167.9 514.358,1167.9 515.908,1167.9 517.458,1167.9 519.008,1167.9 520.559,1167.9 522.109,1167.9 523.659,1167.9 525.209,1167.9 526.759,1167.9 528.309,1167.9 529.859,1167.9 531.409,1167.9 532.959,1059.73 534.509,1059.73 536.059,1059.73 537.609,1059.73 539.16,1059.73 540.71,1059.73 542.26,1059.73 543.81,1059.73 545.36,1059.73 546.91,1059.73 548.46,1059.73 550.01,1059.73 551.56,1059.73 553.11,1059.73 554.66,1059.73 556.21,1059.73 557.761,1059.73 559.311,1059.73 560.861,1059.73 562.411,1059.73 563.961,1059.73 565.511,1059.73 567.061,1059.73 568.611,1059.73 570.161,1059.73 571.711,1059.73 573.261,1059.73 574.811,1059.73 576.362,1059.73 577.912,1059.73 579.462,1059.73 581.012,1059.73 582.562,1059.73 584.112,1059.73 585.662,1059.73 587.212,1059.73 588.762,1059.73 590.312,1059.73 591.862,1059.73 593.412,1059.73 594.963,1059.73 596.513,1059.73 598.063,1059.73 599.613,1059.73 601.163,1059.73 602.713,1059.73 604.263,1059.73 605.813,1059.73 607.363,1059.73 608.913,1059.73 610.463,1059.73 612.013,1059.73 613.563,1059.73 615.114,1059.73 616.664,1059.73 618.214,1059.73 619.764,1059.73 621.314,1059.73 622.864,1059.73 624.414,1059.73 625.964,1059.73 627.514,1059.73 629.064,1059.73 630.614,1059.73 632.164,1059.73 633.715,1059.73 635.265,1059.73 636.815,1059.73 638.365,1059.73 639.915,1059.73 641.465,1059.73 643.015,1059.73 644.565,1059.73 646.115,1059.73 647.665,1059.73 649.215,1059.73 650.765,1059.73 652.316,1059.73 653.866,1059.73 655.416,1059.73 656.966,1059.73 658.516,1059.73 660.066,1059.73 661.616,1059.73 663.166,1059.73 664.716,1059.73 666.266,1059.73 667.816,1059.73 669.366,1059.73 670.917,1059.73 672.467,1059.73 674.017,1059.73 675.567,1059.73 677.117,1059.73 678.667,1059.73 680.217,1059.73 681.767,1059.73 683.317,1059.73 684.867,1059.73 686.417,1059.73 687.967,1059.73 689.518,1059.73 691.068,1059.73 692.618,1059.73 694.168,1059.73 695.718,1059.73 697.268,1059.73 698.818,1059.73 700.368,1059.73 701.918,1059.73 703.468,1059.73 705.018,1059.73 706.568,1059.73 708.119,1059.73 709.669,1059.73 711.219,1059.73 712.769,1059.73 714.319,1059.73 715.869,1059.73 717.419,1059.73 718.969,1059.73 720.519,1059.73 722.069,1059.73 723.619,1059.73 725.169,1059.73 726.72,1059.73 728.27,1059.73 729.82,1059.73 731.37,1059.73 732.92,1059.73 734.47,1059.73 736.02,1059.73 737.57,1059.73 739.12,1059.73 740.67,1059.73 742.22,1059.73 743.77,1059.73 745.32,1059.73 746.871,1059.73 748.421,1059.73 749.971,1059.73 751.521,1059.73 753.071,1059.73 754.621,1059.73 756.171,1059.73 757.721,1059.73 759.271,1059.73 760.821,1059.73 762.371,1059.73 763.921,1059.73 765.472,1059.73 767.022,1059.73 768.572,1059.73 770.122,1059.73 771.672,1059.73 773.222,1059.73 774.772,1059.73 776.322,1059.73 777.872,1059.73 779.422,1059.73 780.972,1059.73 782.522,1059.73 784.073,1059.73 785.623,1059.73 787.173,1059.73 788.723,1059.73 790.273,1059.73 791.823,1059.73 793.373,1059.73 794.923,1059.73 796.473,1059.73 798.023,1059.73 799.573,1059.73 801.123,1059.73 802.674,1059.73 804.224,1059.73 805.774,1059.73 807.324,1059.73 808.874,1059.73 810.424,1059.73 811.974,1059.73 813.524,1059.73 815.074,1059.73 816.624,1059.73 818.174,1059.73 819.724,1059.73 821.275,1059.73 822.825,1059.73 824.375,1059.73 825.925,1059.73 827.475,1059.73 829.025,1059.73 830.575,1059.73 832.125,1059.73 833.675,1059.73 835.225,1059.73 836.775,1059.73 838.325,1059.73 839.876,1059.73 841.426,1059.73 842.976,1059.73 844.526,1059.73 846.076,1059.73 847.626,1059.73 849.176,1059.73 850.726,1059.73 852.276,1059.73 853.826,1059.73 855.376,1059.73 856.926,1059.73 858.477,1059.73 860.027,1059.73 861.577,1059.73 863.127,1059.73 864.677,1059.73 866.227,951.554 867.777,951.554 869.327,951.554 870.877,951.554 872.427,951.554 873.977,951.554 875.527,951.554 877.077,951.554 878.628,951.554 880.178,951.554 881.728,951.554 883.278,951.554 884.828,951.554 886.378,951.554 887.928,951.554 889.478,951.554 891.028,951.554 892.578,951.554 894.128,951.554 895.678,951.554 897.229,951.554 898.779,951.554 900.329,951.554 901.879,951.554 903.429,951.554 904.979,951.554 906.529,951.554 908.079,951.554 909.629,951.554 911.179,951.554 912.729,951.554 914.279,951.554 915.83,951.554 917.38,951.554 918.93,951.554 920.48,951.554 922.03,951.554 923.58,951.554 925.13,951.554 926.68,951.554 928.23,951.554 929.78,951.554 931.33,951.554 932.88,951.554 934.431,951.554 935.981,951.554 937.531,951.554 939.081,951.554 940.631,951.554 942.181,951.554 943.731,951.554 945.281,951.554 946.831,951.554 948.381,951.554 949.931,951.554 951.481,951.554 953.032,951.554 954.582,951.554 956.132,951.554 957.682,843.383 959.232,843.383 960.782,843.383 962.332,843.383 963.882,843.383 965.432,843.383 966.982,843.383 968.532,843.383 970.082,843.383 971.633,843.383 973.183,843.383 974.733,843.383 976.283,843.383 977.833,843.383 979.383,843.383 980.933,843.383 982.483,843.383 984.033,843.383 985.583,843.383 987.133,843.383 988.683,843.383 990.234,843.383 991.784,843.383 993.334,843.383 994.884,843.383 996.434,843.383 997.984,843.383 999.534,843.383 1001.08,843.383 1002.63,843.383 1004.18,843.383 1005.73,843.383 1007.28,843.383 1008.83,843.383 1010.38,843.383 1011.93,843.383 1013.48,843.383 1015.03,843.383 1016.58,843.383 1018.13,843.383 1019.69,843.383 1021.24,843.383 1022.79,843.383 1024.34,843.383 1025.89,843.383 1027.44,843.383 1028.99,843.383 1030.54,843.383 1032.09,843.383 1033.64,843.383 1035.19,843.383 1036.74,843.383 1038.29,843.383 1039.84,843.383 1041.39,843.383 1042.94,843.383 1044.49,843.383 1046.04,843.383 1047.59,843.383 1049.14,843.383 1050.69,843.383 1052.24,843.383 1053.79,843.383 1055.34,843.383 1056.89,843.383 1058.44,843.383 1059.99,843.383 1061.54,843.383 1063.09,843.383 1064.64,843.383 1066.19,843.383 1067.74,843.383 1069.29,843.383 1070.84,843.383 1072.39,843.383 1073.94,843.383 1075.49,843.383 1077.04,843.383 1078.59,843.383 1080.14,843.383 1081.69,735.212 1083.24,735.212 1084.79,735.212 1086.34,735.212 1087.89,735.212 1089.44,735.212 1090.99,735.212 1092.54,735.212 1094.09,735.212 1095.64,735.212 1097.19,735.212 1098.74,735.212 1100.29,735.212 1101.84,735.212 1103.39,735.212 1104.94,735.212 1106.49,735.212 1108.04,735.212 1109.59,735.212 1111.14,735.212 1112.69,735.212 1114.24,735.212 1115.79,735.212 1117.34,735.212 1118.89,735.212 1120.44,735.212 1121.99,735.212 1123.54,735.212 1125.09,735.212 1126.64,735.212 1128.19,735.212 1129.74,735.212 1131.29,735.212 1132.84,735.212 1134.39,735.212 1135.94,735.212 1137.49,735.212 1139.04,735.212 1140.59,735.212 1142.14,735.212 1143.69,735.212 1145.24,735.212 1146.79,735.212 1148.34,735.212 1149.89,735.212 1151.44,735.212 1152.99,735.212 1154.54,735.212 1156.09,735.212 1157.64,735.212 1159.19,735.212 1160.74,735.212 1162.29,735.212 1163.84,735.212 1165.39,735.212 1166.94,735.212 1168.49,735.212 1170.04,735.212 1171.59,735.212 1173.14,735.212 1174.69,735.212 1176.24,735.212 1177.79,735.212 1179.34,735.212 1180.89,735.212 1182.44,735.212 1183.99,735.212 1185.54,735.212 1187.09,735.212 1188.64,735.212 1190.19,735.212 1191.74,735.212 1193.29,735.212 1194.84,735.212 1196.39,735.212 1197.94,735.212 1199.49,735.212 1201.04,735.212 1202.59,735.212 1204.14,735.212 1205.69,735.212 1207.25,735.212 1208.8,735.212 1210.35,735.212 1211.9,735.212 1213.45,735.212 1215,735.212 1216.55,735.212 1218.1,735.212 1219.65,735.212 1221.2,735.212 1222.75,735.212 1224.3,735.212 1225.85,735.212 1227.4,735.212 1228.95,735.212 1230.5,735.212 1232.05,735.212 1233.6,735.212 1235.15,735.212 1236.7,735.212 1238.25,735.212 1239.8,735.212 1241.35,735.212 1242.9,735.212 1244.45,735.212 1246,627.041 1247.55,627.041 1249.1,627.041 1250.65,627.041 1252.2,627.041 1253.75,627.041 1255.3,627.041 1256.85,627.041 1258.4,627.041 1259.95,627.041 1261.5,627.041 1263.05,627.041 1264.6,627.041 1266.15,627.041 1267.7,627.041 1269.25,627.041 1270.8,627.041 1272.35,627.041 1273.9,627.041 1275.45,627.041 1277,627.041 1278.55,627.041 1280.1,627.041 1281.65,627.041 1283.2,627.041 1284.75,627.041 1286.3,627.041 1287.85,627.041 1289.4,627.041 1290.95,627.041 1292.5,627.041 1294.05,627.041 1295.6,627.041 1297.15,627.041 1298.7,627.041 1300.25,627.041 1301.8,627.041 1303.35,627.041 1304.9,627.041 1306.45,627.041 1308,627.041 1309.55,627.041 1311.1,627.041 1312.65,627.041 1314.2,627.041 1315.75,627.041 1317.3,627.041 1318.85,627.041 1320.4,627.041 1321.95,627.041 1323.5,627.041 1325.05,627.041 1326.6,627.041 1328.15,627.041 1329.7,627.041 1331.25,627.041 1332.8,627.041 1334.35,627.041 1335.9,627.041 1337.45,627.041 1339,627.041 1340.55,627.041 1342.1,627.041 1343.65,627.041 1345.2,627.041 1346.75,627.041 1348.3,627.041 1349.85,627.041 1351.4,627.041 1352.95,627.041 1354.5,627.041 1356.05,627.041 1357.6,627.041 1359.15,627.041 1360.7,627.041 1362.25,627.041 1363.8,627.041 1365.35,627.041 1366.9,627.041 1368.45,627.041 1370,627.041 1371.55,627.041 1373.1,627.041 1374.65,627.041 1376.2,627.041 1377.75,627.041 1379.3,627.041 1380.85,627.041 1382.4,627.041 1383.95,518.87 1385.5,518.87 1387.05,518.87 1388.6,518.87 1390.15,518.87 1391.7,518.87 1393.25,518.87 1394.81,518.87 1396.36,518.87 1397.91,518.87 1399.46,518.87 1401.01,518.87 1402.56,518.87 1404.11,518.87 1405.66,518.87 1407.21,518.87 1408.76,518.87 1410.31,518.87 1411.86,518.87 1413.41,518.87 1414.96,518.87 1416.51,518.87 1418.06,518.87 1419.61,518.87 1421.16,518.87 1422.71,518.87 1424.26,518.87 1425.81,518.87 1427.36,518.87 1428.91,518.87 1430.46,518.87 1432.01,518.87 1433.56,518.87 1435.11,518.87 1436.66,518.87 1438.21,518.87 1439.76,518.87 1441.31,518.87 1442.86,518.87 1444.41,518.87 1445.96,518.87 1447.51,518.87 1449.06,518.87 1450.61,518.87 1452.16,518.87 1453.71,518.87 1455.26,518.87 1456.81,518.87 1458.36,518.87 1459.91,518.87 1461.46,518.87 1463.01,518.87 1464.56,518.87 1466.11,518.87 1467.66,518.87 1469.21,518.87 1470.76,518.87 1472.31,518.87 1473.86,518.87 1475.41,518.87 1476.96,518.87 1478.51,518.87 1480.06,518.87 1481.61,518.87 1483.16,518.87 1484.71,518.87 1486.26,518.87 1487.81,518.87 1489.36,518.87 1490.91,518.87 1492.46,518.87 1494.01,518.87 1495.56,518.87 1497.11,518.87 1498.66,518.87 1500.21,518.87 1501.76,518.87 1503.31,518.87 1504.86,518.87 1506.41,518.87 1507.96,518.87 1509.51,518.87 1511.06,518.87 1512.61,518.87 1514.16,518.87 1515.71,518.87 1517.26,518.87 1518.81,518.87 1520.36,518.87 1521.91,518.87 1523.46,518.87 1525.01,518.87 1526.56,518.87 1528.11,518.87 1529.66,518.87 1531.21,518.87 1532.76,518.87 1534.31,518.87 1535.86,518.87 1537.41,518.87 1538.96,518.87 1540.51,518.87 1542.06,518.87 1543.61,518.87 1545.16,518.87 1546.71,518.87 1548.26,518.87 1549.81,518.87 1551.36,518.87 1552.91,518.87 1554.46,518.87 1556.01,518.87 1557.56,518.87 1559.11,518.87 1560.66,518.87 1562.21,518.87 1563.76,518.87 1565.31,518.87 1566.86,518.87 1568.41,518.87 1569.96,518.87 1571.51,518.87 1573.06,518.87 1574.61,518.87 1576.16,518.87 1577.71,518.87 1579.26,518.87 1580.81,518.87 1582.36,518.87 1583.92,518.87 1585.47,518.87 1587.02,518.87 1588.57,518.87 1590.12,518.87 1591.67,518.87 1593.22,518.87 1594.77,518.87 1596.32,518.87 1597.87,518.87 1599.42,518.87 1600.97,518.87 1602.52,518.87 1604.07,518.87 1605.62,410.699 1607.17,410.699 1608.72,410.699 1610.27,410.699 1611.82,410.699 1613.37,410.699 1614.92,410.699 1616.47,410.699 1618.02,410.699 1619.57,410.699 1621.12,410.699 1622.67,410.699 1624.22,410.699 1625.77,410.699 1627.32,410.699 1628.87,410.699 1630.42,410.699 1631.97,410.699 1633.52,410.699 1635.07,410.699 1636.62,410.699 1638.17,410.699 1639.72,410.699 1641.27,410.699 1642.82,410.699 1644.37,410.699 1645.92,410.699 1647.47,410.699 1649.02,410.699 1650.57,410.699 1652.12,410.699 1653.67,410.699 1655.22,410.699 1656.77,410.699 1658.32,410.699 1659.87,410.699 1661.42,410.699 1662.97,410.699 1664.52,410.699 1666.07,410.699 1667.62,410.699 1669.17,410.699 1670.72,410.699 1672.27,410.699 1673.82,410.699 1675.37,410.699 1676.92,410.699 1678.47,410.699 1680.02,410.699 1681.57,410.699 1683.12,410.699 1684.67,410.699 1686.22,410.699 1687.77,410.699 1689.32,410.699 1690.87,410.699 1692.42,410.699 1693.97,410.699 1695.52,410.699 1697.07,410.699 1698.62,410.699 1700.17,410.699 1701.72,410.699 1703.27,410.699 1704.82,410.699 1706.37,410.699 1707.92,410.699 1709.47,410.699 1711.02,410.699 1712.57,410.699 1714.12,410.699 1715.67,410.699 1717.22,410.699 1718.77,410.699 1720.32,410.699 1721.87,410.699 1723.42,410.699 1724.97,410.699 1726.52,410.699 1728.07,410.699 1729.62,410.699 1731.17,410.699 1732.72,410.699 1734.27,410.699 1735.82,410.699 1737.37,410.699 1738.92,410.699 1740.47,410.699 1742.02,410.699 1743.57,410.699 1745.12,410.699 1746.67,410.699 1748.22,410.699 1749.77,410.699 1751.32,410.699 1752.87,410.699 1754.42,410.699 1755.97,410.699 1757.52,410.699 1759.07,410.699 1760.62,410.699 1762.17,410.699 1763.72,410.699 1765.27,410.699 1766.82,410.699 1768.37,410.699 1769.92,410.699 1771.48,410.699 1773.03,410.699 1774.58,410.699 1776.13,410.699 1777.68,410.699 1779.23,410.699 1780.78,410.699 1782.33,410.699 1783.88,410.699 1785.43,410.699 1786.98,410.699 1788.53,410.699 1790.08,410.699 1791.63,410.699 1793.18,410.699 1794.73,410.699 1796.28,410.699 1797.83,410.699 1799.38,410.699 1800.93,410.699 1802.48,410.699 1804.03,410.699 1805.58,410.699 1807.13,410.699 1808.68,410.699 1810.23,410.699 1811.78,410.699 1813.33,410.699 1814.88,410.699 1816.43,410.699 1817.98,410.699 1819.53,410.699 1821.08,410.699 1822.63,410.699 1824.18,410.699 1825.73,410.699 1827.28,410.699 1828.83,410.699 1830.38,410.699 1831.93,410.699 1833.48,410.699 1835.03,410.699 1836.58,410.699 1838.13,410.699 1839.68,410.699 1841.23,410.699 1842.78,410.699 1844.33,410.699 1845.88,410.699 1847.43,410.699 1848.98,410.699 1850.53,410.699 1852.08,410.699 1853.63,410.699 1855.18,410.699 1856.73,410.699 1858.28,410.699 1859.83,410.699 1861.38,410.699 1862.93,410.699 1864.48,410.699 1866.03,410.699 1867.58,410.699 1869.13,410.699 1870.68,410.699 1872.23,410.699 1873.78,302.528 1875.33,302.528 1876.88,302.528 1878.43,302.528 1879.98,302.528 1881.53,302.528 1883.08,302.528 1884.63,302.528 1886.18,302.528 1887.73,302.528 1889.28,302.528 1890.83,302.528 1892.38,302.528 1893.93,302.528 1895.48,302.528 1897.03,302.528 1898.58,302.528 1900.13,302.528 1901.68,302.528 1903.23,302.528 1904.78,302.528 1906.33,302.528 1907.88,302.528 1909.43,302.528 1910.98,302.528 1912.53,302.528 1914.08,302.528 1915.63,302.528 1917.18,302.528 1918.73,302.528 1920.28,302.528 1921.83,302.528 1923.38,302.528 1924.93,302.528 1926.48,302.528 1928.03,302.528 1929.58,302.528 1931.13,302.528 1932.68,302.528 1934.23,302.528 1935.78,302.528 1937.33,302.528 1938.88,302.528 1940.43,302.528 1941.98,302.528 1943.53,302.528 1945.08,302.528 1946.63,302.528 1948.18,302.528 1949.73,302.528 1951.28,302.528 1952.83,302.528 1954.38,302.528 1955.93,302.528 1957.48,302.528 1959.03,302.528 1960.59,302.528 1962.14,302.528 1963.69,302.528 1965.24,302.528 1966.79,302.528 1968.34,302.528 1969.89,302.528 1971.44,302.528 1972.99,302.528 1974.54,302.528 1976.09,302.528 1977.64,302.528 1979.19,302.528 1980.74,302.528 1982.29,302.528 1983.84,302.528 1985.39,302.528 1986.94,302.528 1988.49,302.528 1990.04,302.528 1991.59,302.528 1993.14,302.528 1994.69,302.528 1996.24,302.528 1997.79,302.528 1999.34,302.528 2000.89,302.528 2002.44,302.528 2003.99,302.528 2005.54,302.528 2007.09,302.528 2008.64,302.528 2010.19,302.528 2011.74,302.528 2013.29,302.528 2014.84,302.528 2016.39,302.528 2017.94,302.528 2019.49,302.528 2021.04,302.528 2022.59,302.528 2024.14,302.528 2025.69,194.357 2027.24,194.357 2028.79,194.357 2030.34,194.357 2031.89,194.357 2033.44,194.357 2034.99,194.357 2036.54,194.357 2038.09,194.357 2039.64,194.357 2041.19,194.357 2042.74,194.357 2044.29,194.357 2045.84,194.357 2047.39,194.357 2048.94,194.357 2050.49,194.357 2052.04,194.357 2053.59,194.357 2055.14,194.357 2056.69,194.357 2058.24,194.357 2059.79,194.357 2061.34,194.357 2062.89,194.357 2064.44,194.357 2065.99,194.357 2067.54,194.357 2069.09,194.357 2070.64,194.357 2072.19,194.357 2073.74,194.357 2075.29,194.357 2076.84,194.357 2078.39,194.357 2079.94,194.357 2081.49,194.357 2083.04,194.357 2084.59,194.357 2086.14,194.357 2087.69,194.357 2089.24,194.357 2090.79,194.357 2092.34,194.357 2093.89,194.357 2095.44,194.357 2096.99,194.357 2098.54,194.357 2100.09,194.357 2101.64,194.357 2103.19,194.357 2104.74,194.357 2106.29,194.357 2107.84,194.357 2109.39,194.357 2110.94,194.357 2112.49,194.357 2114.04,194.357 2115.59,194.357 2117.14,194.357 2118.69,194.357 2120.24,194.357 2121.79,194.357 2123.34,194.357 2124.89,194.357 2126.44,194.357 2127.99,194.357 2129.54,194.357 2131.09,194.357 2132.64,194.357 2134.19,194.357 2135.74,194.357 2137.29,194.357 2138.84,194.357 2140.39,194.357 2141.94,194.357 2143.49,194.357 2145.04,194.357 2146.59,194.357 2148.15,194.357 2149.7,194.357 2151.25,194.357 2152.8,194.357 2154.35,194.357 2155.9,194.357 2157.45,194.357 2159,194.357 2160.55,194.357 2162.1,194.357 2163.65,194.357 2165.2,194.357 2166.75,194.357 2168.3,194.357 2169.85,194.357 2171.4,194.357 2172.95,194.357 2174.5,194.357 2176.05,194.357 2177.6,194.357 2179.15,194.357 2180.7,194.357 2182.25,194.357 2183.8,194.357 2185.35,194.357 2186.9,194.357 2188.45,194.357 2190,194.357 2191.55,194.357 2193.1,194.357 2194.65,194.357 2196.2,194.357 2197.75,194.357 2199.3,194.357 2200.85,194.357 2202.4,194.357 2203.95,194.357 2205.5,194.357 2207.05,194.357 2208.6,194.357 2210.15,194.357 2211.7,194.357 2213.25,194.357 2214.8,194.357 2216.35,194.357 2217.9,194.357 2219.45,194.357 2221,194.357 2222.55,194.357 2224.1,194.357 2225.65,194.357 2227.2,194.357 2228.75,194.357 2230.3,194.357 2231.85,194.357 2233.4,194.357 2234.95,194.357 2236.5,194.357 2238.05,194.357 2239.6,194.357 2241.15,194.357 2242.7,194.357 2244.25,194.357 2245.8,194.357 2247.35,194.357 2248.9,194.357 2250.45,194.357 2252,194.357 2253.55,194.357 2255.1,194.357 2256.65,194.357 2258.2,194.357 2259.75,194.357 2261.3,194.357 2262.85,194.357 2264.4,194.357 2265.95,194.357 2267.5,194.357 2269.05,194.357 2270.6,194.357 2272.15,194.357 2273.7,194.357 2275.25,194.357 2276.8,194.357 2278.35,194.357 2279.9,194.357 2281.45,194.357 2283,194.357 2284.55,194.357 2286.1,194.357 2287.65,194.357 2289.2,194.357 2290.75,194.357 2292.3,194.357 2293.85,194.357 2295.4,194.357 2296.95,194.357 2298.5,194.357 2300.05,194.357 2301.6,194.357 2303.15,194.357 2304.7,194.357 2306.25,194.357 2307.8,194.357 2309.35,194.357 2310.9,194.357 2312.45,194.357 2314,194.357 2315.55,194.357 2317.1,194.357 2318.65,194.357 2320.2,194.357 2321.75,194.357 2323.3,194.357 2324.85,194.357 2326.4,194.357 2327.95,194.357 2329.5,194.357 2331.05,194.357 2332.6,194.357 2334.15,194.357 2335.7,194.357 2337.26,194.357 2338.81,194.357 2340.36,194.357 2341.91,194.357 2343.46,194.357 2345.01,194.357 2346.56,194.357 2348.11,194.357 2349.66,194.357 2351.21,86.1857 2352.76,86.1857 "/>
<path clip-path="url(#clip530)" d="M1981.3 1377.32 L2280.47 1377.32 L2280.47 1273.64 L1981.3 1273.64  Z" fill="#ffffff" fill-rule="evenodd" fill-opacity="1"/>
<polyline clip-path="url(#clip530)" style="stroke:#000000; stroke-linecap:round; stroke-linejoin:round; stroke-width:4; stroke-opacity:1; fill:none" points="1981.3,1377.32 2280.47,1377.32 2280.47,1273.64 1981.3,1273.64 1981.3,1377.32 "/>
<polyline clip-path="url(#clip530)" style="stroke:#009af9; stroke-linecap:round; stroke-linejoin:round; stroke-width:8; stroke-opacity:1; fill:none" points="2005.39,1325.48 2149.97,1325.48 "/>
<path clip-path="url(#clip530)" d="M2174.06 1308.2 L2180.36 1308.2 L2195.68 1337.11 L2195.68 1308.2 L2200.22 1308.2 L2200.22 1342.76 L2193.92 1342.76 L2178.6 1313.84 L2178.6 1342.76 L2174.06 1342.76 L2174.06 1308.2 Z" fill="#000000" fill-rule="nonzero" fill-opacity="1" /><path clip-path="url(#clip530)" d="M2219.57 1306.78 Q2216.47 1312.11 2214.96 1317.32 Q2213.46 1322.52 2213.46 1327.87 Q2213.46 1333.22 2214.96 1338.47 Q2216.49 1343.7 2219.57 1349.01 L2215.87 1349.01 Q2212.39 1343.57 2210.66 1338.31 Q2208.94 1333.06 2208.94 1327.87 Q2208.94 1322.71 2210.66 1317.48 Q2212.37 1312.25 2215.87 1306.78 L2219.57 1306.78 Z" fill="#000000" fill-rule="nonzero" fill-opacity="1" /><path clip-path="url(#clip530)" d="M2232.05 1309.47 L2232.05 1316.83 L2240.82 1316.83 L2240.82 1320.14 L2232.05 1320.14 L2232.05 1334.21 Q2232.05 1337.38 2232.9 1338.29 Q2233.78 1339.19 2236.44 1339.19 L2240.82 1339.19 L2240.82 1342.76 L2236.44 1342.76 Q2231.51 1342.76 2229.64 1340.93 Q2227.76 1339.07 2227.76 1334.21 L2227.76 1320.14 L2224.64 1320.14 L2224.64 1316.83 L2227.76 1316.83 L2227.76 1309.47 L2232.05 1309.47 Z" fill="#000000" fill-rule="nonzero" fill-opacity="1" /><path clip-path="url(#clip530)" d="M2245.75 1306.78 L2249.45 1306.78 Q2252.93 1312.25 2254.64 1317.48 Q2256.38 1322.71 2256.38 1327.87 Q2256.38 1333.06 2254.64 1338.31 Q2252.93 1343.57 2249.45 1349.01 L2245.75 1349.01 Q2248.83 1343.7 2250.33 1338.47 Q2251.86 1333.22 2251.86 1327.87 Q2251.86 1322.52 2250.33 1317.32 Q2248.83 1312.11 2245.75 1306.78 Z" fill="#000000" fill-rule="nonzero" fill-opacity="1" /></svg>
