<?xml version="1.0" encoding="utf-8"?>
<svg xmlns="http://www.w3.org/2000/svg" xmlns:xlink="http://www.w3.org/1999/xlink" width="600" height="400" viewBox="0 0 2400 1600">
<defs>
  <clipPath id="clip060">
    <rect x="0" y="0" width="2400" height="1600"/>
  </clipPath>
</defs>
<path clip-path="url(#clip060)" d="M0 1600 L2400 1600 L2400 0 L0 0  Z" fill="#ffffff" fill-rule="evenodd" fill-opacity="1"/>
<defs>
  <clipPath id="clip061">
    <rect x="480" y="0" width="1681" height="1600"/>
  </clipPath>
</defs>
<path clip-path="url(#clip060)" d="M140.696 1423.18 L2352.76 1423.18 L2352.76 47.2441 L140.696 47.2441  Z" fill="#ffffff" fill-rule="evenodd" fill-opacity="1"/>
<defs>
  <clipPath id="clip062">
    <rect x="140" y="47" width="2213" height="1377"/>
  </clipPath>
</defs>
<polyline clip-path="url(#clip062)" style="stroke:#000000; stroke-linecap:round; stroke-linejoin:round; stroke-width:2; stroke-opacity:0.1; fill:none" points="140.696,1423.18 140.696,47.2441 "/>
<polyline clip-path="url(#clip062)" style="stroke:#000000; stroke-linecap:round; stroke-linejoin:round; stroke-width:2; stroke-opacity:0.1; fill:none" points="583.108,1423.18 583.108,47.2441 "/>
<polyline clip-path="url(#clip062)" style="stroke:#000000; stroke-linecap:round; stroke-linejoin:round; stroke-width:2; stroke-opacity:0.1; fill:none" points="1025.52,1423.18 1025.52,47.2441 "/>
<polyline clip-path="url(#clip062)" style="stroke:#000000; stroke-linecap:round; stroke-linejoin:round; stroke-width:2; stroke-opacity:0.1; fill:none" points="1467.93,1423.18 1467.93,47.2441 "/>
<polyline clip-path="url(#clip062)" style="stroke:#000000; stroke-linecap:round; stroke-linejoin:round; stroke-width:2; stroke-opacity:0.1; fill:none" points="1910.34,1423.18 1910.34,47.2441 "/>
<polyline clip-path="url(#clip062)" style="stroke:#000000; stroke-linecap:round; stroke-linejoin:round; stroke-width:2; stroke-opacity:0.1; fill:none" points="2352.76,1423.18 2352.76,47.2441 "/>
<polyline clip-path="url(#clip062)" style="stroke:#000000; stroke-linecap:round; stroke-linejoin:round; stroke-width:2; stroke-opacity:0.1; fill:none" points="140.696,1384.24 2352.76,1384.24 "/>
<polyline clip-path="url(#clip062)" style="stroke:#000000; stroke-linecap:round; stroke-linejoin:round; stroke-width:2; stroke-opacity:0.1; fill:none" points="140.696,1089.23 2352.76,1089.23 "/>
<polyline clip-path="url(#clip062)" style="stroke:#000000; stroke-linecap:round; stroke-linejoin:round; stroke-width:2; stroke-opacity:0.1; fill:none" points="140.696,794.214 2352.76,794.214 "/>
<polyline clip-path="url(#clip062)" style="stroke:#000000; stroke-linecap:round; stroke-linejoin:round; stroke-width:2; stroke-opacity:0.1; fill:none" points="140.696,499.202 2352.76,499.202 "/>
<polyline clip-path="url(#clip062)" style="stroke:#000000; stroke-linecap:round; stroke-linejoin:round; stroke-width:2; stroke-opacity:0.1; fill:none" points="140.696,204.19 2352.76,204.19 "/>
<polyline clip-path="url(#clip060)" style="stroke:#000000; stroke-linecap:round; stroke-linejoin:round; stroke-width:4; stroke-opacity:1; fill:none" points="140.696,1423.18 2352.76,1423.18 "/>
<polyline clip-path="url(#clip060)" style="stroke:#000000; stroke-linecap:round; stroke-linejoin:round; stroke-width:4; stroke-opacity:1; fill:none" points="140.696,1423.18 140.696,1404.28 "/>
<polyline clip-path="url(#clip060)" style="stroke:#000000; stroke-linecap:round; stroke-linejoin:round; stroke-width:4; stroke-opacity:1; fill:none" points="583.108,1423.18 583.108,1404.28 "/>
<polyline clip-path="url(#clip060)" style="stroke:#000000; stroke-linecap:round; stroke-linejoin:round; stroke-width:4; stroke-opacity:1; fill:none" points="1025.52,1423.18 1025.52,1404.28 "/>
<polyline clip-path="url(#clip060)" style="stroke:#000000; stroke-linecap:round; stroke-linejoin:round; stroke-width:4; stroke-opacity:1; fill:none" points="1467.93,1423.18 1467.93,1404.28 "/>
<polyline clip-path="url(#clip060)" style="stroke:#000000; stroke-linecap:round; stroke-linejoin:round; stroke-width:4; stroke-opacity:1; fill:none" points="1910.34,1423.18 1910.34,1404.28 "/>
<polyline clip-path="url(#clip060)" style="stroke:#000000; stroke-linecap:round; stroke-linejoin:round; stroke-width:4; stroke-opacity:1; fill:none" points="2352.76,1423.18 2352.76,1404.28 "/>
<path clip-path="url(#clip060)" d="M140.696 1454.1 Q137.084 1454.1 135.256 1457.66 Q133.45 1461.2 133.45 1468.33 Q133.45 1475.44 135.256 1479.01 Q137.084 1482.55 140.696 1482.55 Q144.33 1482.55 146.135 1479.01 Q147.964 1475.44 147.964 1468.33 Q147.964 1461.2 146.135 1457.66 Q144.33 1454.1 140.696 1454.1 M140.696 1450.39 Q146.506 1450.39 149.561 1455 Q152.64 1459.58 152.64 1468.33 Q152.64 1477.06 149.561 1481.67 Q146.506 1486.25 140.696 1486.25 Q134.885 1486.25 131.807 1481.67 Q128.751 1477.06 128.751 1468.33 Q128.751 1459.58 131.807 1455 Q134.885 1450.39 140.696 1450.39 Z" fill="#000000" fill-rule="nonzero" fill-opacity="1" /><path clip-path="url(#clip060)" d="M577.76 1481.64 L594.08 1481.64 L594.08 1485.58 L572.135 1485.58 L572.135 1481.64 Q574.797 1478.89 579.381 1474.26 Q583.987 1469.61 585.168 1468.27 Q587.413 1465.74 588.293 1464.01 Q589.196 1462.25 589.196 1460.56 Q589.196 1457.8 587.251 1456.07 Q585.33 1454.33 582.228 1454.33 Q580.029 1454.33 577.575 1455.09 Q575.145 1455.86 572.367 1457.41 L572.367 1452.69 Q575.191 1451.55 577.645 1450.97 Q580.098 1450.39 582.135 1450.39 Q587.506 1450.39 590.7 1453.08 Q593.895 1455.77 593.895 1460.26 Q593.895 1462.39 593.084 1464.31 Q592.297 1466.2 590.191 1468.8 Q589.612 1469.47 586.51 1472.69 Q583.409 1475.88 577.76 1481.64 Z" fill="#000000" fill-rule="nonzero" fill-opacity="1" /><path clip-path="url(#clip060)" d="M1028.53 1455.09 L1016.72 1473.54 L1028.53 1473.54 L1028.53 1455.09 M1027.3 1451.02 L1033.18 1451.02 L1033.18 1473.54 L1038.11 1473.54 L1038.11 1477.43 L1033.18 1477.43 L1033.18 1485.58 L1028.53 1485.58 L1028.53 1477.43 L1012.93 1477.43 L1012.93 1472.92 L1027.3 1451.02 Z" fill="#000000" fill-rule="nonzero" fill-opacity="1" /><path clip-path="url(#clip060)" d="M1468.34 1466.44 Q1465.19 1466.44 1463.34 1468.59 Q1461.51 1470.74 1461.51 1474.49 Q1461.51 1478.22 1463.34 1480.39 Q1465.19 1482.55 1468.34 1482.55 Q1471.48 1482.55 1473.31 1480.39 Q1475.17 1478.22 1475.17 1474.49 Q1475.17 1470.74 1473.31 1468.59 Q1471.48 1466.44 1468.34 1466.44 M1477.62 1451.78 L1477.62 1456.04 Q1475.86 1455.21 1474.05 1454.77 Q1472.27 1454.33 1470.51 1454.33 Q1465.88 1454.33 1463.43 1457.45 Q1461 1460.58 1460.65 1466.9 Q1462.02 1464.89 1464.08 1463.82 Q1466.14 1462.73 1468.61 1462.73 Q1473.82 1462.73 1476.83 1465.9 Q1479.86 1469.05 1479.86 1474.49 Q1479.86 1479.82 1476.72 1483.03 Q1473.57 1486.25 1468.34 1486.25 Q1462.34 1486.25 1459.17 1481.67 Q1456 1477.06 1456 1468.33 Q1456 1460.14 1459.89 1455.28 Q1463.78 1450.39 1470.33 1450.39 Q1472.09 1450.39 1473.87 1450.74 Q1475.67 1451.09 1477.62 1451.78 Z" fill="#000000" fill-rule="nonzero" fill-opacity="1" /><path clip-path="url(#clip060)" d="M1910.34 1469.17 Q1907.01 1469.17 1905.09 1470.95 Q1903.19 1472.73 1903.19 1475.86 Q1903.19 1478.98 1905.09 1480.77 Q1907.01 1482.55 1910.34 1482.55 Q1913.68 1482.55 1915.6 1480.77 Q1917.52 1478.96 1917.52 1475.86 Q1917.52 1472.73 1915.6 1470.95 Q1913.7 1469.17 1910.34 1469.17 M1905.67 1467.18 Q1902.66 1466.44 1900.97 1464.38 Q1899.3 1462.32 1899.3 1459.35 Q1899.3 1455.21 1902.24 1452.8 Q1905.2 1450.39 1910.34 1450.39 Q1915.51 1450.39 1918.45 1452.8 Q1921.39 1455.21 1921.39 1459.35 Q1921.39 1462.32 1919.7 1464.38 Q1918.03 1466.44 1915.04 1467.18 Q1918.42 1467.96 1920.3 1470.26 Q1922.2 1472.55 1922.2 1475.86 Q1922.2 1480.88 1919.12 1483.57 Q1916.06 1486.25 1910.34 1486.25 Q1904.63 1486.25 1901.55 1483.57 Q1898.49 1480.88 1898.49 1475.86 Q1898.49 1472.55 1900.39 1470.26 Q1902.29 1467.96 1905.67 1467.18 M1903.95 1459.79 Q1903.95 1462.48 1905.62 1463.98 Q1907.31 1465.49 1910.34 1465.49 Q1913.35 1465.49 1915.04 1463.98 Q1916.76 1462.48 1916.76 1459.79 Q1916.76 1457.11 1915.04 1455.6 Q1913.35 1454.1 1910.34 1454.1 Q1907.31 1454.1 1905.62 1455.6 Q1903.95 1457.11 1903.95 1459.79 Z" fill="#000000" fill-rule="nonzero" fill-opacity="1" /><path clip-path="url(#clip060)" d="M2327.44 1481.64 L2335.08 1481.64 L2335.08 1455.28 L2326.77 1456.95 L2326.77 1452.69 L2335.04 1451.02 L2339.71 1451.02 L2339.71 1481.64 L2347.35 1481.64 L2347.35 1485.58 L2327.44 1485.58 L2327.44 1481.64 Z" fill="#000000" fill-rule="nonzero" fill-opacity="1" /><path clip-path="url(#clip060)" d="M2366.8 1454.1 Q2363.18 1454.1 2361.36 1457.66 Q2359.55 1461.2 2359.55 1468.33 Q2359.55 1475.44 2361.36 1479.01 Q2363.18 1482.55 2366.8 1482.55 Q2370.43 1482.55 2372.23 1479.01 Q2374.06 1475.44 2374.06 1468.33 Q2374.06 1461.2 2372.23 1457.66 Q2370.43 1454.1 2366.8 1454.1 M2366.8 1450.39 Q2372.61 1450.39 2375.66 1455 Q2378.74 1459.58 2378.74 1468.33 Q2378.74 1477.06 2375.66 1481.67 Q2372.61 1486.25 2366.8 1486.25 Q2360.99 1486.25 2357.91 1481.67 Q2354.85 1477.06 2354.85 1468.33 Q2354.85 1459.58 2357.91 1455 Q2360.99 1450.39 2366.8 1450.39 Z" fill="#000000" fill-rule="nonzero" fill-opacity="1" /><path clip-path="url(#clip060)" d="M1245.79 1522.27 L1245.79 1532.4 L1257.85 1532.4 L1257.85 1536.95 L1245.79 1536.95 L1245.79 1556.3 Q1245.79 1560.66 1246.96 1561.9 Q1248.17 1563.14 1251.83 1563.14 L1257.85 1563.14 L1257.85 1568.04 L1251.83 1568.04 Q1245.05 1568.04 1242.48 1565.53 Q1239.9 1562.98 1239.9 1556.3 L1239.9 1536.95 L1235.6 1536.95 L1235.6 1532.4 L1239.9 1532.4 L1239.9 1522.27 L1245.79 1522.27 Z" fill="#000000" fill-rule="nonzero" fill-opacity="1" /><polyline clip-path="url(#clip060)" style="stroke:#000000; stroke-linecap:round; stroke-linejoin:round; stroke-width:4; stroke-opacity:1; fill:none" points="140.696,1423.18 140.696,47.2441 "/>
<polyline clip-path="url(#clip060)" style="stroke:#000000; stroke-linecap:round; stroke-linejoin:round; stroke-width:4; stroke-opacity:1; fill:none" points="140.696,1384.24 159.593,1384.24 "/>
<polyline clip-path="url(#clip060)" style="stroke:#000000; stroke-linecap:round; stroke-linejoin:round; stroke-width:4; stroke-opacity:1; fill:none" points="140.696,1089.23 159.593,1089.23 "/>
<polyline clip-path="url(#clip060)" style="stroke:#000000; stroke-linecap:round; stroke-linejoin:round; stroke-width:4; stroke-opacity:1; fill:none" points="140.696,794.214 159.593,794.214 "/>
<polyline clip-path="url(#clip060)" style="stroke:#000000; stroke-linecap:round; stroke-linejoin:round; stroke-width:4; stroke-opacity:1; fill:none" points="140.696,499.202 159.593,499.202 "/>
<polyline clip-path="url(#clip060)" style="stroke:#000000; stroke-linecap:round; stroke-linejoin:round; stroke-width:4; stroke-opacity:1; fill:none" points="140.696,204.19 159.593,204.19 "/>
<path clip-path="url(#clip060)" d="M92.7512 1370.04 Q89.1401 1370.04 87.3114 1373.6 Q85.5058 1377.14 85.5058 1384.27 Q85.5058 1391.38 87.3114 1394.94 Q89.1401 1398.49 92.7512 1398.49 Q96.3854 1398.49 98.1909 1394.94 Q100.02 1391.38 100.02 1384.27 Q100.02 1377.14 98.1909 1373.6 Q96.3854 1370.04 92.7512 1370.04 M92.7512 1366.33 Q98.5613 1366.33 101.617 1370.94 Q104.696 1375.52 104.696 1384.27 Q104.696 1393 101.617 1397.61 Q98.5613 1402.19 92.7512 1402.19 Q86.941 1402.19 83.8623 1397.61 Q80.8068 1393 80.8068 1384.27 Q80.8068 1375.52 83.8623 1370.94 Q86.941 1366.33 92.7512 1366.33 Z" fill="#000000" fill-rule="nonzero" fill-opacity="1" /><path clip-path="url(#clip060)" d="M83.7929 1071.95 L102.149 1071.95 L102.149 1075.88 L88.0753 1075.88 L88.0753 1084.35 Q89.0938 1084.01 90.1123 1083.84 Q91.1308 1083.66 92.1493 1083.66 Q97.9363 1083.66 101.316 1086.83 Q104.696 1090 104.696 1095.42 Q104.696 1101 101.223 1104.1 Q97.7511 1107.18 91.4317 1107.18 Q89.2558 1107.18 86.9873 1106.81 Q84.7419 1106.44 82.3346 1105.7 L82.3346 1101 Q84.4179 1102.13 86.6401 1102.69 Q88.8623 1103.24 91.3391 1103.24 Q95.3437 1103.24 97.6817 1101.14 Q100.02 1099.03 100.02 1095.42 Q100.02 1091.81 97.6817 1089.7 Q95.3437 1087.59 91.3391 1087.59 Q89.4641 1087.59 87.5892 1088.01 Q85.7373 1088.43 83.7929 1089.31 L83.7929 1071.95 Z" fill="#000000" fill-rule="nonzero" fill-opacity="1" /><path clip-path="url(#clip060)" d="M53.3995 807.559 L61.0384 807.559 L61.0384 781.194 L52.7282 782.86 L52.7282 778.601 L60.9921 776.934 L65.668 776.934 L65.668 807.559 L73.3068 807.559 L73.3068 811.494 L53.3995 811.494 L53.3995 807.559 Z" fill="#000000" fill-rule="nonzero" fill-opacity="1" /><path clip-path="url(#clip060)" d="M92.7512 780.013 Q89.1401 780.013 87.3114 783.578 Q85.5058 787.119 85.5058 794.249 Q85.5058 801.356 87.3114 804.92 Q89.1401 808.462 92.7512 808.462 Q96.3854 808.462 98.1909 804.92 Q100.02 801.356 100.02 794.249 Q100.02 787.119 98.1909 783.578 Q96.3854 780.013 92.7512 780.013 M92.7512 776.309 Q98.5613 776.309 101.617 780.916 Q104.696 785.499 104.696 794.249 Q104.696 802.976 101.617 807.582 Q98.5613 812.166 92.7512 812.166 Q86.941 812.166 83.8623 807.582 Q80.8068 802.976 80.8068 794.249 Q80.8068 785.499 83.8623 780.916 Q86.941 776.309 92.7512 776.309 Z" fill="#000000" fill-rule="nonzero" fill-opacity="1" /><path clip-path="url(#clip060)" d="M54.3949 512.547 L62.0337 512.547 L62.0337 486.182 L53.7236 487.848 L53.7236 483.589 L61.9874 481.922 L66.6633 481.922 L66.6633 512.547 L74.3022 512.547 L74.3022 516.482 L54.3949 516.482 L54.3949 512.547 Z" fill="#000000" fill-rule="nonzero" fill-opacity="1" /><path clip-path="url(#clip060)" d="M83.7929 481.922 L102.149 481.922 L102.149 485.858 L88.0753 485.858 L88.0753 494.33 Q89.0938 493.983 90.1123 493.82 Q91.1308 493.635 92.1493 493.635 Q97.9363 493.635 101.316 496.807 Q104.696 499.978 104.696 505.395 Q104.696 510.973 101.223 514.075 Q97.7511 517.154 91.4317 517.154 Q89.2558 517.154 86.9873 516.783 Q84.7419 516.413 82.3346 515.672 L82.3346 510.973 Q84.4179 512.107 86.6401 512.663 Q88.8623 513.219 91.3391 513.219 Q95.3437 513.219 97.6817 511.112 Q100.02 509.006 100.02 505.395 Q100.02 501.783 97.6817 499.677 Q95.3437 497.57 91.3391 497.57 Q89.4641 497.57 87.5892 497.987 Q85.7373 498.404 83.7929 499.283 L83.7929 481.922 Z" fill="#000000" fill-rule="nonzero" fill-opacity="1" /><path clip-path="url(#clip060)" d="M56.6171 217.535 L72.9365 217.535 L72.9365 221.47 L50.9921 221.47 L50.9921 217.535 Q53.6541 214.781 58.2375 210.151 Q62.8439 205.498 64.0245 204.156 Q66.2698 201.633 67.1494 199.896 Q68.0522 198.137 68.0522 196.447 Q68.0522 193.693 66.1078 191.957 Q64.1865 190.221 61.0847 190.221 Q58.8856 190.221 56.4319 190.985 Q54.0014 191.748 51.2236 193.299 L51.2236 188.577 Q54.0477 187.443 56.5014 186.864 Q58.955 186.285 60.9921 186.285 Q66.3624 186.285 69.5568 188.971 Q72.7513 191.656 72.7513 196.147 Q72.7513 198.276 71.9411 200.197 Q71.1541 202.096 69.0476 204.688 Q68.4689 205.359 65.367 208.577 Q62.2652 211.771 56.6171 217.535 Z" fill="#000000" fill-rule="nonzero" fill-opacity="1" /><path clip-path="url(#clip060)" d="M92.7512 189.989 Q89.1401 189.989 87.3114 193.554 Q85.5058 197.096 85.5058 204.225 Q85.5058 211.332 87.3114 214.896 Q89.1401 218.438 92.7512 218.438 Q96.3854 218.438 98.1909 214.896 Q100.02 211.332 100.02 204.225 Q100.02 197.096 98.1909 193.554 Q96.3854 189.989 92.7512 189.989 M92.7512 186.285 Q98.5613 186.285 101.617 190.892 Q104.696 195.475 104.696 204.225 Q104.696 212.952 101.617 217.558 Q98.5613 222.142 92.7512 222.142 Q86.941 222.142 83.8623 217.558 Q80.8068 212.952 80.8068 204.225 Q80.8068 195.475 83.8623 190.892 Q86.941 186.285 92.7512 186.285 Z" fill="#000000" fill-rule="nonzero" fill-opacity="1" /><polyline clip-path="url(#clip062)" style="stroke:#009af9; stroke-linecap:round; stroke-linejoin:round; stroke-width:8; stroke-opacity:1; fill:none" points="140.696,1384.24 141.618,1384.24 142.54,1384.24 143.462,1384.24 144.384,1384.24 145.306,1384.24 146.228,1384.24 147.15,1384.24 148.072,1384.24 148.994,1384.24 149.916,1384.24 150.838,1384.24 151.76,1384.24 152.683,1384.24 153.605,1384.24 154.527,1384.24 155.449,1384.24 156.371,1384.24 157.293,1384.24 158.215,1384.24 159.137,1384.24 160.059,1384.24 160.981,1384.24 161.903,1384.24 162.825,1384.24 163.747,1384.24 164.67,1384.24 165.592,1384.24 166.514,1384.24 167.436,1384.24 168.358,1325.24 169.28,1325.24 170.202,1325.24 171.124,1325.24 172.046,1325.24 172.968,1325.24 173.89,1325.24 174.812,1325.24 175.734,1325.24 176.657,1325.24 177.579,1325.24 178.501,1325.24 179.423,1325.24 180.345,1325.24 181.267,1325.24 182.189,1325.24 183.111,1325.24 184.033,1325.24 184.955,1325.24 185.877,1325.24 186.799,1325.24 187.721,1325.24 188.643,1325.24 189.566,1325.24 190.488,1325.24 191.41,1325.24 192.332,1325.24 193.254,1325.24 194.176,1325.24 195.098,1325.24 196.02,1325.24 196.942,1325.24 197.864,1325.24 198.786,1325.24 199.708,1325.24 200.63,1325.24 201.553,1325.24 202.475,1325.24 203.397,1325.24 204.319,1325.24 205.241,1325.24 206.163,1325.24 207.085,1325.24 208.007,1325.24 208.929,1325.24 209.851,1325.24 210.773,1325.24 211.695,1325.24 212.617,1325.24 213.54,1325.24 214.462,1325.24 215.384,1325.24 216.306,1325.24 217.228,1325.24 218.15,1325.24 219.072,1325.24 219.994,1325.24 220.916,1325.24 221.838,1325.24 222.76,1325.24 223.682,1325.24 224.604,1325.24 225.527,1325.24 226.449,1325.24 227.371,1325.24 228.293,1325.24 229.215,1325.24 230.137,1325.24 231.059,1325.24 231.981,1325.24 232.903,1325.24 233.825,1325.24 234.747,1325.24 235.669,1325.24 236.591,1325.24 237.514,1325.24 238.436,1325.24 239.358,1325.24 240.28,1325.24 241.202,1325.24 242.124,1325.24 243.046,1325.24 243.968,1325.24 244.89,1325.24 245.812,1325.24 246.734,1325.24 247.656,1325.24 248.578,1325.24 249.501,1325.24 250.423,1325.24 251.345,1325.24 252.267,1325.24 253.189,1325.24 254.111,1325.24 255.033,1325.24 255.955,1325.24 256.877,1325.24 257.799,1325.24 258.721,1325.24 259.643,1325.24 260.565,1325.24 261.488,1325.24 262.41,1325.24 263.332,1325.24 264.254,1325.24 265.176,1325.24 266.098,1325.24 267.02,1325.24 267.942,1325.24 268.864,1325.24 269.786,1325.24 270.708,1325.24 271.63,1325.24 272.552,1325.24 273.474,1325.24 274.397,1325.24 275.319,1325.24 276.241,1325.24 277.163,1325.24 278.085,1325.24 279.007,1325.24 279.929,1325.24 280.851,1325.24 281.773,1325.24 282.695,1266.23 283.617,1266.23 284.539,1266.23 285.461,1266.23 286.384,1266.23 287.306,1266.23 288.228,1266.23 289.15,1266.23 290.072,1266.23 290.994,1266.23 291.916,1266.23 292.838,1266.23 293.76,1266.23 294.682,1266.23 295.604,1266.23 296.526,1266.23 297.448,1266.23 298.371,1266.23 299.293,1266.23 300.215,1266.23 301.137,1266.23 302.059,1266.23 302.981,1266.23 303.903,1266.23 304.825,1266.23 305.747,1266.23 306.669,1266.23 307.591,1266.23 308.513,1266.23 309.435,1266.23 310.358,1266.23 311.28,1266.23 312.202,1266.23 313.124,1266.23 314.046,1266.23 314.968,1266.23 315.89,1266.23 316.812,1266.23 317.734,1266.23 318.656,1266.23 319.578,1266.23 320.5,1266.23 321.422,1266.23 322.345,1266.23 323.267,1266.23 324.189,1266.23 325.111,1266.23 326.033,1266.23 326.955,1266.23 327.877,1266.23 328.799,1266.23 329.721,1266.23 330.643,1266.23 331.565,1266.23 332.487,1266.23 333.409,1266.23 334.332,1266.23 335.254,1266.23 336.176,1266.23 337.098,1266.23 338.02,1266.23 338.942,1266.23 339.864,1266.23 340.786,1266.23 341.708,1266.23 342.63,1266.23 343.552,1266.23 344.474,1266.23 345.396,1266.23 346.318,1266.23 347.241,1266.23 348.163,1266.23 349.085,1266.23 350.007,1266.23 350.929,1266.23 351.851,1266.23 352.773,1266.23 353.695,1266.23 354.617,1266.23 355.539,1266.23 356.461,1266.23 357.383,1266.23 358.305,1266.23 359.228,1266.23 360.15,1207.23 361.072,1207.23 361.994,1207.23 362.916,1207.23 363.838,1207.23 364.76,1207.23 365.682,1207.23 366.604,1207.23 367.526,1207.23 368.448,1207.23 369.37,1207.23 370.292,1207.23 371.215,1207.23 372.137,1207.23 373.059,1207.23 373.981,1207.23 374.903,1207.23 375.825,1207.23 376.747,1207.23 377.669,1207.23 378.591,1207.23 379.513,1207.23 380.435,1207.23 381.357,1207.23 382.279,1207.23 383.202,1207.23 384.124,1207.23 385.046,1207.23 385.968,1207.23 386.89,1207.23 387.812,1207.23 388.734,1207.23 389.656,1207.23 390.578,1207.23 391.5,1207.23 392.422,1207.23 393.344,1207.23 394.266,1207.23 395.189,1207.23 396.111,1207.23 397.033,1207.23 397.955,1207.23 398.877,1207.23 399.799,1207.23 400.721,1207.23 401.643,1207.23 402.565,1207.23 403.487,1207.23 404.409,1207.23 405.331,1207.23 406.253,1207.23 407.176,1207.23 408.098,1207.23 409.02,1207.23 409.942,1207.23 410.864,1207.23 411.786,1207.23 412.708,1207.23 413.63,1207.23 414.552,1207.23 415.474,1207.23 416.396,1207.23 417.318,1207.23 418.24,1207.23 419.162,1207.23 420.085,1207.23 421.007,1207.23 421.929,1207.23 422.851,1207.23 423.773,1207.23 424.695,1207.23 425.617,1207.23 426.539,1207.23 427.461,1207.23 428.383,1207.23 429.305,1207.23 430.227,1207.23 431.149,1207.23 432.072,1207.23 432.994,1207.23 433.916,1207.23 434.838,1207.23 435.76,1207.23 436.682,1207.23 437.604,1207.23 438.526,1207.23 439.448,1207.23 440.37,1207.23 441.292,1207.23 442.214,1207.23 443.136,1207.23 444.059,1207.23 444.981,1207.23 445.903,1207.23 446.825,1207.23 447.747,1207.23 448.669,1207.23 449.591,1207.23 450.513,1207.23 451.435,1207.23 452.357,1207.23 453.279,1207.23 454.201,1207.23 455.123,1207.23 456.046,1207.23 456.968,1207.23 457.89,1207.23 458.812,1207.23 459.734,1207.23 460.656,1207.23 461.578,1207.23 462.5,1207.23 463.422,1207.23 464.344,1207.23 465.266,1207.23 466.188,1207.23 467.11,1207.23 468.033,1207.23 468.955,1207.23 469.877,1207.23 470.799,1207.23 471.721,1207.23 472.643,1207.23 473.565,1207.23 474.487,1207.23 475.409,1207.23 476.331,1207.23 477.253,1207.23 478.175,1148.23 479.097,1148.23 480.02,1148.23 480.942,1148.23 481.864,1148.23 482.786,1148.23 483.708,1148.23 484.63,1148.23 485.552,1148.23 486.474,1148.23 487.396,1148.23 488.318,1148.23 489.24,1148.23 490.162,1148.23 491.084,1148.23 492.007,1148.23 492.929,1148.23 493.851,1148.23 494.773,1148.23 495.695,1148.23 496.617,1148.23 497.539,1148.23 498.461,1148.23 499.383,1148.23 500.305,1148.23 501.227,1148.23 502.149,1148.23 503.071,1148.23 503.993,1148.23 504.916,1148.23 505.838,1148.23 506.76,1148.23 507.682,1148.23 508.604,1148.23 509.526,1148.23 510.448,1148.23 511.37,1148.23 512.292,1148.23 513.214,1148.23 514.136,1148.23 515.058,1148.23 515.98,1148.23 516.903,1148.23 517.825,1148.23 518.747,1148.23 519.669,1148.23 520.591,1148.23 521.513,1148.23 522.435,1148.23 523.357,1148.23 524.279,1148.23 525.201,1148.23 526.123,1148.23 527.045,1148.23 527.967,1148.23 528.89,1148.23 529.812,1148.23 530.734,1148.23 531.656,1148.23 532.578,1148.23 533.5,1148.23 534.422,1148.23 535.344,1148.23 536.266,1148.23 537.188,1148.23 538.11,1148.23 539.032,1148.23 539.954,1148.23 540.877,1148.23 541.799,1148.23 542.721,1148.23 543.643,1148.23 544.565,1148.23 545.487,1148.23 546.409,1148.23 547.331,1148.23 548.253,1148.23 549.175,1148.23 550.097,1148.23 551.019,1148.23 551.941,1148.23 552.864,1148.23 553.786,1148.23 554.708,1148.23 555.63,1148.23 556.552,1148.23 557.474,1148.23 558.396,1148.23 559.318,1148.23 560.24,1148.23 561.162,1148.23 562.084,1148.23 563.006,1148.23 563.928,1148.23 564.851,1148.23 565.773,1148.23 566.695,1148.23 567.617,1148.23 568.539,1148.23 569.461,1148.23 570.383,1148.23 571.305,1148.23 572.227,1148.23 573.149,1148.23 574.071,1148.23 574.993,1148.23 575.915,1148.23 576.837,1148.23 577.76,1148.23 578.682,1148.23 579.604,1148.23 580.526,1148.23 581.448,1148.23 582.37,1148.23 583.292,1148.23 584.214,1148.23 585.136,1148.23 586.058,1148.23 586.98,1148.23 587.902,1148.23 588.824,1148.23 589.747,1148.23 590.669,1148.23 591.591,1148.23 592.513,1148.23 593.435,1148.23 594.357,1148.23 595.279,1148.23 596.201,1148.23 597.123,1148.23 598.045,1148.23 598.967,1148.23 599.889,1148.23 600.811,1148.23 601.734,1148.23 602.656,1148.23 603.578,1148.23 604.5,1148.23 605.422,1148.23 606.344,1148.23 607.266,1148.23 608.188,1148.23 609.11,1148.23 610.032,1148.23 610.954,1148.23 611.876,1148.23 612.798,1148.23 613.721,1148.23 614.643,1148.23 615.565,1148.23 616.487,1148.23 617.409,1148.23 618.331,1148.23 619.253,1148.23 620.175,1148.23 621.097,1148.23 622.019,1148.23 622.941,1148.23 623.863,1148.23 624.785,1148.23 625.708,1148.23 626.63,1148.23 627.552,1148.23 628.474,1148.23 629.396,1148.23 630.318,1148.23 631.24,1148.23 632.162,1148.23 633.084,1148.23 634.006,1148.23 634.928,1148.23 635.85,1148.23 636.772,1148.23 637.695,1148.23 638.617,1148.23 639.539,1148.23 640.461,1148.23 641.383,1148.23 642.305,1148.23 643.227,1148.23 644.149,1148.23 645.071,1148.23 645.993,1148.23 646.915,1148.23 647.837,1148.23 648.759,1148.23 649.682,1148.23 650.604,1148.23 651.526,1148.23 652.448,1148.23 653.37,1148.23 654.292,1148.23 655.214,1148.23 656.136,1148.23 657.058,1148.23 657.98,1148.23 658.902,1148.23 659.824,1148.23 660.746,1148.23 661.668,1148.23 662.591,1148.23 663.513,1148.23 664.435,1148.23 665.357,1148.23 666.279,1148.23 667.201,1148.23 668.123,1148.23 669.045,1148.23 669.967,1148.23 670.889,1148.23 671.811,1148.23 672.733,1148.23 673.655,1148.23 674.578,1148.23 675.5,1148.23 676.422,1148.23 677.344,1148.23 678.266,1148.23 679.188,1148.23 680.11,1148.23 681.032,1148.23 681.954,1148.23 682.876,1148.23 683.798,1148.23 684.72,1148.23 685.642,1148.23 686.565,1148.23 687.487,1148.23 688.409,1148.23 689.331,1148.23 690.253,1148.23 691.175,1148.23 692.097,1148.23 693.019,1148.23 693.941,1148.23 694.863,1148.23 695.785,1148.23 696.707,1148.23 697.629,1148.23 698.552,1148.23 699.474,1148.23 700.396,1148.23 701.318,1148.23 702.24,1148.23 703.162,1148.23 704.084,1148.23 705.006,1148.23 705.928,1089.23 706.85,1089.23 707.772,1089.23 708.694,1089.23 709.616,1089.23 710.539,1089.23 711.461,1089.23 712.383,1089.23 713.305,1089.23 714.227,1089.23 715.149,1089.23 716.071,1089.23 716.993,1089.23 717.915,1089.23 718.837,1089.23 719.759,1089.23 720.681,1089.23 721.603,1089.23 722.526,1089.23 723.448,1089.23 724.37,1089.23 725.292,1089.23 726.214,1089.23 727.136,1089.23 728.058,1089.23 728.98,1089.23 729.902,1089.23 730.824,1089.23 731.746,1089.23 732.668,1089.23 733.59,1089.23 734.512,1089.23 735.435,1089.23 736.357,1089.23 737.279,1089.23 738.201,1089.23 739.123,1089.23 740.045,1089.23 740.967,1089.23 741.889,1089.23 742.811,1089.23 743.733,1089.23 744.655,1089.23 745.577,1089.23 746.499,1089.23 747.422,1089.23 748.344,1089.23 749.266,1089.23 750.188,1089.23 751.11,1089.23 752.032,1089.23 752.954,1089.23 753.876,1089.23 754.798,1089.23 755.72,1089.23 756.642,1089.23 757.564,1089.23 758.486,1089.23 759.409,1089.23 760.331,1089.23 761.253,1089.23 762.175,1089.23 763.097,1089.23 764.019,1089.23 764.941,1089.23 765.863,1089.23 766.785,1089.23 767.707,1089.23 768.629,1089.23 769.551,1089.23 770.473,1089.23 771.396,1089.23 772.318,1089.23 773.24,1089.23 774.162,1089.23 775.084,1089.23 776.006,1089.23 776.928,1089.23 777.85,1089.23 778.772,1089.23 779.694,1089.23 780.616,1089.23 781.538,1089.23 782.46,1089.23 783.383,1089.23 784.305,1089.23 785.227,1089.23 786.149,1089.23 787.071,1089.23 787.993,1089.23 788.915,1089.23 789.837,1089.23 790.759,1089.23 791.681,1089.23 792.603,1089.23 793.525,1089.23 794.447,1089.23 795.37,1089.23 796.292,1089.23 797.214,1089.23 798.136,1089.23 799.058,1089.23 799.98,1089.23 800.902,1089.23 801.824,1089.23 802.746,1089.23 803.668,1089.23 804.59,1089.23 805.512,1089.23 806.434,1089.23 807.357,1089.23 808.279,1089.23 809.201,1089.23 810.123,1089.23 811.045,1089.23 811.967,1089.23 812.889,1089.23 813.811,1089.23 814.733,1089.23 815.655,1089.23 816.577,1089.23 817.499,1089.23 818.421,1089.23 819.343,1089.23 820.266,1089.23 821.188,1089.23 822.11,1089.23 823.032,1089.23 823.954,1089.23 824.876,1089.23 825.798,1089.23 826.72,1089.23 827.642,1089.23 828.564,1089.23 829.486,1089.23 830.408,1089.23 831.33,1089.23 832.253,1089.23 833.175,1089.23 834.097,1089.23 835.019,1089.23 835.941,1089.23 836.863,1089.23 837.785,1089.23 838.707,1089.23 839.629,1089.23 840.551,1089.23 841.473,1089.23 842.395,1089.23 843.317,1089.23 844.24,1089.23 845.162,1089.23 846.084,1089.23 847.006,1089.23 847.928,1089.23 848.85,1089.23 849.772,1089.23 850.694,1089.23 851.616,1089.23 852.538,1089.23 853.46,1089.23 854.382,1089.23 855.304,1089.23 856.227,1089.23 857.149,1089.23 858.071,1089.23 858.993,1089.23 859.915,1089.23 860.837,1030.22 861.759,1030.22 862.681,1030.22 863.603,1030.22 864.525,1030.22 865.447,1030.22 866.369,1030.22 867.291,1030.22 868.214,1030.22 869.136,1030.22 870.058,1030.22 870.98,1030.22 871.902,1030.22 872.824,1030.22 873.746,1030.22 874.668,1030.22 875.59,1030.22 876.512,1030.22 877.434,1030.22 878.356,1030.22 879.278,1030.22 880.201,1030.22 881.123,1030.22 882.045,1030.22 882.967,1030.22 883.889,1030.22 884.811,1030.22 885.733,1030.22 886.655,1030.22 887.577,1030.22 888.499,1030.22 889.421,1030.22 890.343,1030.22 891.265,1030.22 892.187,1030.22 893.11,1030.22 894.032,1030.22 894.954,1030.22 895.876,1030.22 896.798,1030.22 897.72,1030.22 898.642,1030.22 899.564,1030.22 900.486,1030.22 901.408,1030.22 902.33,1030.22 903.252,1030.22 904.174,1030.22 905.097,1030.22 906.019,1030.22 906.941,1030.22 907.863,1030.22 908.785,1030.22 909.707,1030.22 910.629,1030.22 911.551,1030.22 912.473,1030.22 913.395,1030.22 914.317,1030.22 915.239,1030.22 916.161,1030.22 917.084,1030.22 918.006,1030.22 918.928,1030.22 919.85,1030.22 920.772,1030.22 921.694,1030.22 922.616,1030.22 923.538,1030.22 924.46,1030.22 925.382,1030.22 926.304,1030.22 927.226,1030.22 928.148,1030.22 929.071,1030.22 929.993,1030.22 930.915,1030.22 931.837,1030.22 932.759,1030.22 933.681,1030.22 934.603,1030.22 935.525,1030.22 936.447,1030.22 937.369,1030.22 938.291,1030.22 939.213,1030.22 940.135,1030.22 941.058,1030.22 941.98,1030.22 942.902,1030.22 943.824,1030.22 944.746,1030.22 945.668,1030.22 946.59,1030.22 947.512,1030.22 948.434,1030.22 949.356,1030.22 950.278,1030.22 951.2,1030.22 952.122,1030.22 953.045,1030.22 953.967,1030.22 954.889,1030.22 955.811,1030.22 956.733,1030.22 957.655,1030.22 958.577,1030.22 959.499,1030.22 960.421,1030.22 961.343,1030.22 962.265,1030.22 963.187,1030.22 964.109,1030.22 965.032,1030.22 965.954,1030.22 966.876,1030.22 967.798,1030.22 968.72,1030.22 969.642,1030.22 970.564,1030.22 971.486,1030.22 972.408,1030.22 973.33,1030.22 974.252,1030.22 975.174,1030.22 976.096,1030.22 977.018,1030.22 977.941,1030.22 978.863,1030.22 979.785,1030.22 980.707,1030.22 981.629,1030.22 982.551,1030.22 983.473,1030.22 984.395,1030.22 985.317,1030.22 986.239,1030.22 987.161,1030.22 988.083,1030.22 989.005,1030.22 989.928,1030.22 990.85,1030.22 991.772,1030.22 992.694,1030.22 993.616,1030.22 994.538,1030.22 995.46,1030.22 996.382,1030.22 997.304,1030.22 998.226,1030.22 999.148,1030.22 1000.07,1030.22 1000.99,1030.22 1001.91,1030.22 1002.84,1030.22 1003.76,1030.22 1004.68,1030.22 1005.6,1030.22 1006.52,1030.22 1007.45,1030.22 1008.37,1030.22 1009.29,1030.22 1010.21,1030.22 1011.14,1030.22 1012.06,1030.22 1012.98,1030.22 1013.9,1030.22 1014.82,1030.22 1015.75,1030.22 1016.67,1030.22 1017.59,1030.22 1018.51,1030.22 1019.43,1030.22 1020.36,1030.22 1021.28,1030.22 1022.2,1030.22 1023.12,1030.22 1024.04,1030.22 1024.97,1030.22 1025.89,1030.22 1026.81,1030.22 1027.73,1030.22 1028.65,1030.22 1029.58,1030.22 1030.5,1030.22 1031.42,1030.22 1032.34,1030.22 1033.27,1030.22 1034.19,1030.22 1035.11,1030.22 1036.03,1030.22 1036.95,1030.22 1037.88,1030.22 1038.8,1030.22 1039.72,1030.22 1040.64,1030.22 1041.56,1030.22 1042.49,1030.22 1043.41,1030.22 1044.33,1030.22 1045.25,1030.22 1046.17,1030.22 1047.1,1030.22 1048.02,1030.22 1048.94,1030.22 1049.86,1030.22 1050.78,1030.22 1051.71,1030.22 1052.63,1030.22 1053.55,1030.22 1054.47,1030.22 1055.39,1030.22 1056.32,1030.22 1057.24,1030.22 1058.16,1030.22 1059.08,1030.22 1060.01,1030.22 1060.93,1030.22 1061.85,1030.22 1062.77,1030.22 1063.69,1030.22 1064.62,1030.22 1065.54,1030.22 1066.46,1030.22 1067.38,1030.22 1068.3,1030.22 1069.23,1030.22 1070.15,1030.22 1071.07,1030.22 1071.99,1030.22 1072.91,1030.22 1073.84,1030.22 1074.76,1030.22 1075.68,1030.22 1076.6,1030.22 1077.52,971.222 1078.45,971.222 1079.37,971.222 1080.29,971.222 1081.21,971.222 1082.14,971.222 1083.06,971.222 1083.98,971.222 1084.9,971.222 1085.82,971.222 1086.75,971.222 1087.67,971.222 1088.59,971.222 1089.51,971.222 1090.43,971.222 1091.36,971.222 1092.28,971.222 1093.2,971.222 1094.12,971.222 1095.04,971.222 1095.97,971.222 1096.89,971.222 1097.81,971.222 1098.73,971.222 1099.65,971.222 1100.58,971.222 1101.5,971.222 1102.42,971.222 1103.34,971.222 1104.26,912.219 1105.19,912.219 1106.11,912.219 1107.03,912.219 1107.95,912.219 1108.88,912.219 1109.8,912.219 1110.72,912.219 1111.64,912.219 1112.56,912.219 1113.49,912.219 1114.41,912.219 1115.33,912.219 1116.25,912.219 1117.17,912.219 1118.1,912.219 1119.02,912.219 1119.94,912.219 1120.86,912.219 1121.78,912.219 1122.71,912.219 1123.63,912.219 1124.55,912.219 1125.47,912.219 1126.39,912.219 1127.32,912.219 1128.24,912.219 1129.16,912.219 1130.08,912.219 1131.01,912.219 1131.93,912.219 1132.85,912.219 1133.77,912.219 1134.69,912.219 1135.62,912.219 1136.54,912.219 1137.46,912.219 1138.38,912.219 1139.3,912.219 1140.23,912.219 1141.15,912.219 1142.07,912.219 1142.99,912.219 1143.91,912.219 1144.84,912.219 1145.76,912.219 1146.68,912.219 1147.6,912.219 1148.52,912.219 1149.45,912.219 1150.37,912.219 1151.29,912.219 1152.21,912.219 1153.14,912.219 1154.06,912.219 1154.98,912.219 1155.9,912.219 1156.82,912.219 1157.75,912.219 1158.67,912.219 1159.59,912.219 1160.51,912.219 1161.43,912.219 1162.36,912.219 1163.28,912.219 1164.2,912.219 1165.12,912.219 1166.04,912.219 1166.97,912.219 1167.89,912.219 1168.81,912.219 1169.73,912.219 1170.65,912.219 1171.58,853.217 1172.5,853.217 1173.42,853.217 1174.34,853.217 1175.26,853.217 1176.19,853.217 1177.11,853.217 1178.03,853.217 1178.95,853.217 1179.88,853.217 1180.8,853.217 1181.72,853.217 1182.64,853.217 1183.56,853.217 1184.49,853.217 1185.41,853.217 1186.33,853.217 1187.25,853.217 1188.17,853.217 1189.1,853.217 1190.02,853.217 1190.94,853.217 1191.86,853.217 1192.78,853.217 1193.71,853.217 1194.63,853.217 1195.55,853.217 1196.47,853.217 1197.39,853.217 1198.32,853.217 1199.24,853.217 1200.16,853.217 1201.08,853.217 1202.01,853.217 1202.93,853.217 1203.85,853.217 1204.77,853.217 1205.69,853.217 1206.62,853.217 1207.54,853.217 1208.46,853.217 1209.38,853.217 1210.3,853.217 1211.23,853.217 1212.15,853.217 1213.07,853.217 1213.99,853.217 1214.91,853.217 1215.84,853.217 1216.76,853.217 1217.68,853.217 1218.6,853.217 1219.52,853.217 1220.45,853.217 1221.37,853.217 1222.29,853.217 1223.21,853.217 1224.13,853.217 1225.06,853.217 1225.98,853.217 1226.9,853.217 1227.82,853.217 1228.75,853.217 1229.67,853.217 1230.59,853.217 1231.51,853.217 1232.43,853.217 1233.36,853.217 1234.28,853.217 1235.2,853.217 1236.12,853.217 1237.04,853.217 1237.97,853.217 1238.89,853.217 1239.81,853.217 1240.73,853.217 1241.65,853.217 1242.58,853.217 1243.5,853.217 1244.42,853.217 1245.34,853.217 1246.26,853.217 1247.19,853.217 1248.11,853.217 1249.03,853.217 1249.95,853.217 1250.88,853.217 1251.8,853.217 1252.72,853.217 1253.64,853.217 1254.56,853.217 1255.49,853.217 1256.41,853.217 1257.33,853.217 1258.25,853.217 1259.17,853.217 1260.1,853.217 1261.02,853.217 1261.94,853.217 1262.86,853.217 1263.78,853.217 1264.71,853.217 1265.63,853.217 1266.55,853.217 1267.47,853.217 1268.39,853.217 1269.32,853.217 1270.24,853.217 1271.16,853.217 1272.08,853.217 1273,853.217 1273.93,853.217 1274.85,853.217 1275.77,853.217 1276.69,853.217 1277.62,853.217 1278.54,853.217 1279.46,853.217 1280.38,853.217 1281.3,853.217 1282.23,853.217 1283.15,853.217 1284.07,853.217 1284.99,853.217 1285.91,853.217 1286.84,853.217 1287.76,853.217 1288.68,853.217 1289.6,853.217 1290.52,853.217 1291.45,853.217 1292.37,853.217 1293.29,853.217 1294.21,853.217 1295.13,853.217 1296.06,853.217 1296.98,853.217 1297.9,853.217 1298.82,853.217 1299.75,853.217 1300.67,853.217 1301.59,853.217 1302.51,853.217 1303.43,853.217 1304.36,853.217 1305.28,853.217 1306.2,853.217 1307.12,853.217 1308.04,853.217 1308.97,853.217 1309.89,853.217 1310.81,853.217 1311.73,853.217 1312.65,853.217 1313.58,853.217 1314.5,853.217 1315.42,853.217 1316.34,853.217 1317.26,853.217 1318.19,853.217 1319.11,853.217 1320.03,853.217 1320.95,853.217 1321.87,853.217 1322.8,853.217 1323.72,853.217 1324.64,853.217 1325.56,853.217 1326.49,853.217 1327.41,853.217 1328.33,853.217 1329.25,853.217 1330.17,853.217 1331.1,853.217 1332.02,853.217 1332.94,853.217 1333.86,853.217 1334.78,853.217 1335.71,853.217 1336.63,853.217 1337.55,853.217 1338.47,853.217 1339.39,853.217 1340.32,853.217 1341.24,853.217 1342.16,853.217 1343.08,853.217 1344,853.217 1344.93,853.217 1345.85,853.217 1346.77,853.217 1347.69,853.217 1348.62,853.217 1349.54,853.217 1350.46,853.217 1351.38,853.217 1352.3,853.217 1353.23,853.217 1354.15,853.217 1355.07,853.217 1355.99,853.217 1356.91,853.217 1357.84,853.217 1358.76,853.217 1359.68,853.217 1360.6,853.217 1361.52,853.217 1362.45,853.217 1363.37,853.217 1364.29,853.217 1365.21,853.217 1366.13,853.217 1367.06,853.217 1367.98,853.217 1368.9,853.217 1369.82,853.217 1370.74,853.217 1371.67,853.217 1372.59,853.217 1373.51,853.217 1374.43,853.217 1375.36,853.217 1376.28,853.217 1377.2,853.217 1378.12,853.217 1379.04,853.217 1379.97,853.217 1380.89,853.217 1381.81,853.217 1382.73,794.214 1383.65,794.214 1384.58,794.214 1385.5,794.214 1386.42,794.214 1387.34,794.214 1388.26,794.214 1389.19,794.214 1390.11,794.214 1391.03,794.214 1391.95,794.214 1392.87,794.214 1393.8,794.214 1394.72,794.214 1395.64,794.214 1396.56,794.214 1397.49,794.214 1398.41,794.214 1399.33,794.214 1400.25,794.214 1401.17,794.214 1402.1,794.214 1403.02,794.214 1403.94,794.214 1404.86,794.214 1405.78,794.214 1406.71,794.214 1407.63,794.214 1408.55,794.214 1409.47,794.214 1410.39,794.214 1411.32,794.214 1412.24,794.214 1413.16,794.214 1414.08,794.214 1415,794.214 1415.93,794.214 1416.85,794.214 1417.77,794.214 1418.69,794.214 1419.61,794.214 1420.54,794.214 1421.46,794.214 1422.38,794.214 1423.3,794.214 1424.23,794.214 1425.15,794.214 1426.07,794.214 1426.99,794.214 1427.91,794.214 1428.84,794.214 1429.76,794.214 1430.68,794.214 1431.6,794.214 1432.52,794.214 1433.45,794.214 1434.37,794.214 1435.29,794.214 1436.21,794.214 1437.13,794.214 1438.06,794.214 1438.98,794.214 1439.9,794.214 1440.82,794.214 1441.74,794.214 1442.67,794.214 1443.59,794.214 1444.51,794.214 1445.43,794.214 1446.36,794.214 1447.28,794.214 1448.2,794.214 1449.12,794.214 1450.04,794.214 1450.97,794.214 1451.89,794.214 1452.81,794.214 1453.73,794.214 1454.65,794.214 1455.58,794.214 1456.5,794.214 1457.42,794.214 1458.34,794.214 1459.26,794.214 1460.19,794.214 1461.11,794.214 1462.03,794.214 1462.95,794.214 1463.87,794.214 1464.8,794.214 1465.72,794.214 1466.64,794.214 1467.56,794.214 1468.49,794.214 1469.41,794.214 1470.33,794.214 1471.25,794.214 1472.17,794.214 1473.1,794.214 1474.02,794.214 1474.94,794.214 1475.86,794.214 1476.78,794.214 1477.71,794.214 1478.63,794.214 1479.55,794.214 1480.47,794.214 1481.39,794.214 1482.32,794.214 1483.24,794.214 1484.16,794.214 1485.08,794.214 1486,794.214 1486.93,794.214 1487.85,794.214 1488.77,794.214 1489.69,794.214 1490.61,794.214 1491.54,794.214 1492.46,794.214 1493.38,794.214 1494.3,794.214 1495.23,794.214 1496.15,794.214 1497.07,794.214 1497.99,794.214 1498.91,794.214 1499.84,794.214 1500.76,794.214 1501.68,794.214 1502.6,794.214 1503.52,794.214 1504.45,794.214 1505.37,794.214 1506.29,794.214 1507.21,794.214 1508.13,794.214 1509.06,794.214 1509.98,794.214 1510.9,794.214 1511.82,794.214 1512.74,794.214 1513.67,794.214 1514.59,794.214 1515.51,794.214 1516.43,794.214 1517.36,794.214 1518.28,794.214 1519.2,794.214 1520.12,794.214 1521.04,794.214 1521.97,794.214 1522.89,794.214 1523.81,794.214 1524.73,794.214 1525.65,794.214 1526.58,794.214 1527.5,794.214 1528.42,794.214 1529.34,794.214 1530.26,794.214 1531.19,794.214 1532.11,794.214 1533.03,794.214 1533.95,794.214 1534.87,794.214 1535.8,794.214 1536.72,794.214 1537.64,794.214 1538.56,794.214 1539.48,794.214 1540.41,794.214 1541.33,794.214 1542.25,794.214 1543.17,794.214 1544.1,794.214 1545.02,794.214 1545.94,794.214 1546.86,794.214 1547.78,794.214 1548.71,794.214 1549.63,794.214 1550.55,794.214 1551.47,794.214 1552.39,794.214 1553.32,794.214 1554.24,794.214 1555.16,794.214 1556.08,794.214 1557,794.214 1557.93,794.214 1558.85,794.214 1559.77,794.214 1560.69,794.214 1561.61,794.214 1562.54,794.214 1563.46,794.214 1564.38,794.214 1565.3,794.214 1566.23,794.214 1567.15,794.214 1568.07,794.214 1568.99,794.214 1569.91,794.214 1570.84,794.214 1571.76,794.214 1572.68,794.214 1573.6,794.214 1574.52,794.214 1575.45,794.214 1576.37,794.214 1577.29,794.214 1578.21,794.214 1579.13,794.214 1580.06,794.214 1580.98,794.214 1581.9,794.214 1582.82,794.214 1583.74,794.214 1584.67,794.214 1585.59,794.214 1586.51,794.214 1587.43,794.214 1588.35,794.214 1589.28,794.214 1590.2,794.214 1591.12,794.214 1592.04,794.214 1592.97,794.214 1593.89,794.214 1594.81,794.214 1595.73,794.214 1596.65,794.214 1597.58,794.214 1598.5,794.214 1599.42,794.214 1600.34,794.214 1601.26,794.214 1602.19,794.214 1603.11,794.214 1604.03,794.214 1604.95,794.214 1605.87,794.214 1606.8,794.214 1607.72,794.214 1608.64,794.214 1609.56,794.214 1610.48,794.214 1611.41,794.214 1612.33,794.214 1613.25,794.214 1614.17,794.214 1615.1,794.214 1616.02,794.214 1616.94,794.214 1617.86,794.214 1618.78,794.214 1619.71,794.214 1620.63,794.214 1621.55,794.214 1622.47,794.214 1623.39,794.214 1624.32,794.214 1625.24,794.214 1626.16,794.214 1627.08,735.212 1628,735.212 1628.93,735.212 1629.85,735.212 1630.77,735.212 1631.69,735.212 1632.61,735.212 1633.54,735.212 1634.46,735.212 1635.38,735.212 1636.3,735.212 1637.22,735.212 1638.15,735.212 1639.07,735.212 1639.99,676.21 1640.91,676.21 1641.84,676.21 1642.76,676.21 1643.68,676.21 1644.6,676.21 1645.52,676.21 1646.45,676.21 1647.37,617.207 1648.29,617.207 1649.21,617.207 1650.13,617.207 1651.06,617.207 1651.98,617.207 1652.9,617.207 1653.82,617.207 1654.74,617.207 1655.67,617.207 1656.59,617.207 1657.51,617.207 1658.43,617.207 1659.35,617.207 1660.28,617.207 1661.2,617.207 1662.12,617.207 1663.04,617.207 1663.97,617.207 1664.89,617.207 1665.81,617.207 1666.73,617.207 1667.65,617.207 1668.58,617.207 1669.5,617.207 1670.42,617.207 1671.34,617.207 1672.26,617.207 1673.19,617.207 1674.11,617.207 1675.03,617.207 1675.95,617.207 1676.87,617.207 1677.8,617.207 1678.72,617.207 1679.64,617.207 1680.56,617.207 1681.48,617.207 1682.41,617.207 1683.33,617.207 1684.25,617.207 1685.17,617.207 1686.09,617.207 1687.02,617.207 1687.94,617.207 1688.86,617.207 1689.78,617.207 1690.71,617.207 1691.63,617.207 1692.55,617.207 1693.47,617.207 1694.39,617.207 1695.32,617.207 1696.24,617.207 1697.16,617.207 1698.08,617.207 1699,617.207 1699.93,617.207 1700.85,617.207 1701.77,617.207 1702.69,617.207 1703.61,617.207 1704.54,617.207 1705.46,617.207 1706.38,617.207 1707.3,617.207 1708.22,617.207 1709.15,617.207 1710.07,617.207 1710.99,617.207 1711.91,617.207 1712.84,617.207 1713.76,617.207 1714.68,558.205 1715.6,558.205 1716.52,499.202 1717.45,499.202 1718.37,499.202 1719.29,499.202 1720.21,499.202 1721.13,499.202 1722.06,499.202 1722.98,499.202 1723.9,499.202 1724.82,499.202 1725.74,499.202 1726.67,499.202 1727.59,499.202 1728.51,499.202 1729.43,499.202 1730.35,499.202 1731.28,499.202 1732.2,499.202 1733.12,499.202 1734.04,499.202 1734.96,499.202 1735.89,499.202 1736.81,499.202 1737.73,499.202 1738.65,499.202 1739.58,499.202 1740.5,499.202 1741.42,499.202 1742.34,499.202 1743.26,499.202 1744.19,499.202 1745.11,499.202 1746.03,499.202 1746.95,499.202 1747.87,499.202 1748.8,499.202 1749.72,499.202 1750.64,499.202 1751.56,499.202 1752.48,499.202 1753.41,499.202 1754.33,499.202 1755.25,499.202 1756.17,499.202 1757.09,499.202 1758.02,499.202 1758.94,499.202 1759.86,499.202 1760.78,499.202 1761.71,499.202 1762.63,499.202 1763.55,499.202 1764.47,499.202 1765.39,499.202 1766.32,499.202 1767.24,499.202 1768.16,499.202 1769.08,499.202 1770,499.202 1770.93,499.202 1771.85,499.202 1772.77,499.202 1773.69,499.202 1774.61,499.202 1775.54,499.202 1776.46,499.202 1777.38,499.202 1778.3,499.202 1779.22,499.202 1780.15,499.202 1781.07,499.202 1781.99,499.202 1782.91,499.202 1783.84,499.202 1784.76,499.202 1785.68,499.202 1786.6,499.202 1787.52,499.202 1788.45,499.202 1789.37,499.202 1790.29,499.202 1791.21,499.202 1792.13,499.202 1793.06,499.202 1793.98,499.202 1794.9,499.202 1795.82,499.202 1796.74,499.202 1797.67,499.202 1798.59,499.202 1799.51,499.202 1800.43,499.202 1801.35,499.202 1802.28,499.202 1803.2,499.202 1804.12,499.202 1805.04,499.202 1805.96,499.202 1806.89,499.202 1807.81,499.202 1808.73,499.202 1809.65,499.202 1810.58,499.202 1811.5,499.202 1812.42,499.202 1813.34,499.202 1814.26,499.202 1815.19,499.202 1816.11,499.202 1817.03,499.202 1817.95,499.202 1818.87,499.202 1819.8,499.202 1820.72,499.202 1821.64,499.202 1822.56,499.202 1823.48,499.202 1824.41,499.202 1825.33,499.202 1826.25,499.202 1827.17,499.202 1828.09,499.202 1829.02,499.202 1829.94,499.202 1830.86,499.202 1831.78,499.202 1832.71,499.202 1833.63,499.202 1834.55,499.202 1835.47,499.202 1836.39,499.202 1837.32,499.202 1838.24,499.202 1839.16,499.202 1840.08,499.202 1841,499.202 1841.93,499.202 1842.85,499.202 1843.77,499.202 1844.69,499.202 1845.61,499.202 1846.54,499.202 1847.46,499.202 1848.38,499.202 1849.3,499.202 1850.22,499.202 1851.15,499.202 1852.07,499.202 1852.99,499.202 1853.91,499.202 1854.83,499.202 1855.76,499.202 1856.68,499.202 1857.6,499.202 1858.52,499.202 1859.45,499.202 1860.37,499.202 1861.29,499.202 1862.21,499.202 1863.13,499.202 1864.06,499.202 1864.98,499.202 1865.9,499.202 1866.82,499.202 1867.74,499.202 1868.67,499.202 1869.59,499.202 1870.51,499.202 1871.43,499.202 1872.35,499.202 1873.28,499.202 1874.2,499.202 1875.12,499.202 1876.04,499.202 1876.96,499.202 1877.89,499.202 1878.81,499.202 1879.73,499.202 1880.65,499.202 1881.58,499.202 1882.5,499.202 1883.42,499.202 1884.34,499.202 1885.26,499.202 1886.19,499.202 1887.11,499.202 1888.03,499.202 1888.95,499.202 1889.87,499.202 1890.8,499.202 1891.72,499.202 1892.64,499.202 1893.56,499.202 1894.48,499.202 1895.41,499.202 1896.33,499.202 1897.25,499.202 1898.17,499.202 1899.09,499.202 1900.02,499.202 1900.94,499.202 1901.86,499.202 1902.78,499.202 1903.7,499.202 1904.63,499.202 1905.55,499.202 1906.47,499.202 1907.39,499.202 1908.32,499.202 1909.24,499.202 1910.16,499.202 1911.08,499.202 1912,499.202 1912.93,499.202 1913.85,499.202 1914.77,499.202 1915.69,499.202 1916.61,499.202 1917.54,499.202 1918.46,499.202 1919.38,499.202 1920.3,499.202 1921.22,499.202 1922.15,499.202 1923.07,499.202 1923.99,499.202 1924.91,499.202 1925.83,499.202 1926.76,499.202 1927.68,499.202 1928.6,499.202 1929.52,499.202 1930.45,499.202 1931.37,499.202 1932.29,499.202 1933.21,499.202 1934.13,499.202 1935.06,499.202 1935.98,499.202 1936.9,499.202 1937.82,499.202 1938.74,499.202 1939.67,499.202 1940.59,499.202 1941.51,499.202 1942.43,499.202 1943.35,499.202 1944.28,499.202 1945.2,499.202 1946.12,499.202 1947.04,499.202 1947.96,499.202 1948.89,499.202 1949.81,499.202 1950.73,499.202 1951.65,499.202 1952.57,499.202 1953.5,499.202 1954.42,499.202 1955.34,499.202 1956.26,499.202 1957.19,499.202 1958.11,499.202 1959.03,499.202 1959.95,499.202 1960.87,499.202 1961.8,499.202 1962.72,499.202 1963.64,499.202 1964.56,499.202 1965.48,499.202 1966.41,499.202 1967.33,499.202 1968.25,499.202 1969.17,499.202 1970.09,499.202 1971.02,499.202 1971.94,499.202 1972.86,499.202 1973.78,499.202 1974.7,499.202 1975.63,499.202 1976.55,499.202 1977.47,499.202 1978.39,499.202 1979.32,499.202 1980.24,499.202 1981.16,499.202 1982.08,499.202 1983,499.202 1983.93,499.202 1984.85,499.202 1985.77,499.202 1986.69,499.202 1987.61,499.202 1988.54,499.202 1989.46,499.202 1990.38,499.202 1991.3,499.202 1992.22,499.202 1993.15,499.202 1994.07,499.202 1994.99,499.202 1995.91,499.202 1996.83,499.202 1997.76,499.202 1998.68,499.202 1999.6,499.202 2000.52,499.202 2001.44,499.202 2002.37,499.202 2003.29,499.202 2004.21,499.202 2005.13,499.202 2006.06,499.202 2006.98,499.202 2007.9,499.202 2008.82,499.202 2009.74,499.202 2010.67,499.202 2011.59,499.202 2012.51,499.202 2013.43,499.202 2014.35,499.202 2015.28,499.202 2016.2,499.202 2017.12,499.202 2018.04,499.202 2018.96,499.202 2019.89,499.202 2020.81,440.2 2021.73,440.2 2022.65,440.2 2023.57,440.2 2024.5,440.2 2025.42,440.2 2026.34,440.2 2027.26,440.2 2028.19,440.2 2029.11,440.2 2030.03,440.2 2030.95,440.2 2031.87,440.2 2032.8,440.2 2033.72,440.2 2034.64,440.2 2035.56,440.2 2036.48,440.2 2037.41,440.2 2038.33,440.2 2039.25,440.2 2040.17,440.2 2041.09,440.2 2042.02,440.2 2042.94,440.2 2043.86,440.2 2044.78,440.2 2045.7,440.2 2046.63,440.2 2047.55,440.2 2048.47,440.2 2049.39,440.2 2050.31,440.2 2051.24,440.2 2052.16,440.2 2053.08,440.2 2054,440.2 2054.93,440.2 2055.85,440.2 2056.77,440.2 2057.69,440.2 2058.61,440.2 2059.54,440.2 2060.46,440.2 2061.38,440.2 2062.3,440.2 2063.22,440.2 2064.15,440.2 2065.07,440.2 2065.99,440.2 2066.91,440.2 2067.83,440.2 2068.76,440.2 2069.68,440.2 2070.6,381.198 2071.52,381.198 2072.44,381.198 2073.37,381.198 2074.29,381.198 2075.21,381.198 2076.13,381.198 2077.06,381.198 2077.98,381.198 2078.9,381.198 2079.82,381.198 2080.74,381.198 2081.67,381.198 2082.59,381.198 2083.51,381.198 2084.43,381.198 2085.35,381.198 2086.28,381.198 2087.2,381.198 2088.12,381.198 2089.04,381.198 2089.96,381.198 2090.89,381.198 2091.81,381.198 2092.73,381.198 2093.65,381.198 2094.57,381.198 2095.5,381.198 2096.42,381.198 2097.34,381.198 2098.26,381.198 2099.19,381.198 2100.11,381.198 2101.03,381.198 2101.95,381.198 2102.87,381.198 2103.8,381.198 2104.72,381.198 2105.64,381.198 2106.56,381.198 2107.48,381.198 2108.41,381.198 2109.33,381.198 2110.25,381.198 2111.17,381.198 2112.09,381.198 2113.02,381.198 2113.94,381.198 2114.86,381.198 2115.78,381.198 2116.7,381.198 2117.63,381.198 2118.55,381.198 2119.47,381.198 2120.39,381.198 2121.31,381.198 2122.24,381.198 2123.16,322.195 2124.08,322.195 2125,322.195 2125.93,322.195 2126.85,322.195 2127.77,322.195 2128.69,322.195 2129.61,322.195 2130.54,322.195 2131.46,322.195 2132.38,322.195 2133.3,322.195 2134.22,322.195 2135.15,322.195 2136.07,322.195 2136.99,322.195 2137.91,322.195 2138.83,322.195 2139.76,322.195 2140.68,322.195 2141.6,322.195 2142.52,322.195 2143.44,322.195 2144.37,322.195 2145.29,322.195 2146.21,322.195 2147.13,322.195 2148.06,322.195 2148.98,322.195 2149.9,322.195 2150.82,322.195 2151.74,322.195 2152.67,322.195 2153.59,322.195 2154.51,322.195 2155.43,322.195 2156.35,322.195 2157.28,322.195 2158.2,322.195 2159.12,322.195 2160.04,322.195 2160.96,322.195 2161.89,322.195 2162.81,322.195 2163.73,322.195 2164.65,322.195 2165.57,322.195 2166.5,322.195 2167.42,322.195 2168.34,322.195 2169.26,322.195 2170.18,322.195 2171.11,322.195 2172.03,322.195 2172.95,322.195 2173.87,322.195 2174.8,322.195 2175.72,322.195 2176.64,322.195 2177.56,322.195 2178.48,322.195 2179.41,322.195 2180.33,322.195 2181.25,322.195 2182.17,322.195 2183.09,322.195 2184.02,322.195 2184.94,322.195 2185.86,322.195 2186.78,322.195 2187.7,322.195 2188.63,322.195 2189.55,322.195 2190.47,322.195 2191.39,322.195 2192.31,322.195 2193.24,322.195 2194.16,322.195 2195.08,322.195 2196,322.195 2196.93,322.195 2197.85,322.195 2198.77,322.195 2199.69,322.195 2200.61,322.195 2201.54,322.195 2202.46,322.195 2203.38,322.195 2204.3,322.195 2205.22,322.195 2206.15,322.195 2207.07,322.195 2207.99,322.195 2208.91,322.195 2209.83,322.195 2210.76,322.195 2211.68,322.195 2212.6,322.195 2213.52,322.195 2214.44,322.195 2215.37,322.195 2216.29,322.195 2217.21,322.195 2218.13,322.195 2219.05,322.195 2219.98,322.195 2220.9,263.193 2221.82,263.193 2222.74,263.193 2223.67,263.193 2224.59,263.193 2225.51,263.193 2226.43,263.193 2227.35,263.193 2228.28,263.193 2229.2,263.193 2230.12,263.193 2231.04,263.193 2231.96,263.193 2232.89,263.193 2233.81,263.193 2234.73,263.193 2235.65,263.193 2236.57,263.193 2237.5,263.193 2238.42,263.193 2239.34,263.193 2240.26,263.193 2241.18,263.193 2242.11,263.193 2243.03,263.193 2243.95,263.193 2244.87,263.193 2245.8,263.193 2246.72,263.193 2247.64,263.193 2248.56,263.193 2249.48,263.193 2250.41,204.19 2251.33,204.19 2252.25,204.19 2253.17,204.19 2254.09,204.19 2255.02,204.19 2255.94,204.19 2256.86,204.19 2257.78,204.19 2258.7,204.19 2259.63,204.19 2260.55,204.19 2261.47,204.19 2262.39,204.19 2263.31,204.19 2264.24,204.19 2265.16,204.19 2266.08,204.19 2267,204.19 2267.92,204.19 2268.85,204.19 2269.77,204.19 2270.69,204.19 2271.61,204.19 2272.54,204.19 2273.46,204.19 2274.38,204.19 2275.3,204.19 2276.22,204.19 2277.15,204.19 2278.07,204.19 2278.99,204.19 2279.91,204.19 2280.83,204.19 2281.76,204.19 2282.68,204.19 2283.6,204.19 2284.52,204.19 2285.44,204.19 2286.37,204.19 2287.29,204.19 2288.21,204.19 2289.13,204.19 2290.05,204.19 2290.98,204.19 2291.9,204.19 2292.82,145.188 2293.74,145.188 2294.67,145.188 2295.59,145.188 2296.51,145.188 2297.43,145.188 2298.35,145.188 2299.28,86.1857 2300.2,86.1857 2301.12,86.1857 2302.04,86.1857 2302.96,86.1857 2303.89,86.1857 2304.81,86.1857 2305.73,86.1857 2306.65,86.1857 2307.57,86.1857 2308.5,86.1857 2309.42,86.1857 2310.34,86.1857 2311.26,86.1857 2312.18,86.1857 2313.11,86.1857 2314.03,86.1857 2314.95,86.1857 2315.87,86.1857 2316.79,86.1857 2317.72,86.1857 2318.64,86.1857 2319.56,86.1857 2320.48,86.1857 2321.41,86.1857 2322.33,86.1857 2323.25,86.1857 2324.17,86.1857 2325.09,86.1857 2326.02,86.1857 2326.94,86.1857 2327.86,86.1857 2328.78,86.1857 2329.7,86.1857 2330.63,86.1857 2331.55,86.1857 2332.47,86.1857 2333.39,86.1857 2334.31,86.1857 2335.24,86.1857 2336.16,86.1857 2337.08,86.1857 2338,86.1857 2338.92,86.1857 2339.85,86.1857 2340.77,86.1857 2341.69,86.1857 2342.61,86.1857 2343.54,86.1857 2344.46,86.1857 2345.38,86.1857 2346.3,86.1857 2347.22,86.1857 2348.15,86.1857 2349.07,86.1857 2349.99,86.1857 2350.91,86.1857 2351.83,86.1857 2352.76,86.1857 "/>
<path clip-path="url(#clip060)" d="M1975.5 1377.32 L2279.02 1377.32 L2279.02 1273.64 L1975.5 1273.64  Z" fill="#ffffff" fill-rule="evenodd" fill-opacity="1"/>
<polyline clip-path="url(#clip060)" style="stroke:#000000; stroke-linecap:round; stroke-linejoin:round; stroke-width:4; stroke-opacity:1; fill:none" points="1975.5,1377.32 2279.02,1377.32 2279.02,1273.64 1975.5,1273.64 1975.5,1377.32 "/>
<polyline clip-path="url(#clip060)" style="stroke:#009af9; stroke-linecap:round; stroke-linejoin:round; stroke-width:8; stroke-opacity:1; fill:none" points="2000.08,1325.48 2147.55,1325.48 "/>
<path clip-path="url(#clip060)" d="M2172.13 1308.2 L2178.42 1308.2 L2193.75 1337.11 L2193.75 1308.2 L2198.29 1308.2 L2198.29 1342.76 L2191.99 1342.76 L2176.66 1313.84 L2176.66 1342.76 L2172.13 1342.76 L2172.13 1308.2 Z" fill="#000000" fill-rule="nonzero" fill-opacity="1" /><path clip-path="url(#clip060)" d="M2217.64 1306.78 Q2214.53 1312.11 2213.03 1317.32 Q2211.53 1322.52 2211.53 1327.87 Q2211.53 1333.22 2213.03 1338.47 Q2214.56 1343.7 2217.64 1349.01 L2213.93 1349.01 Q2210.46 1343.57 2208.72 1338.31 Q2207.01 1333.06 2207.01 1327.87 Q2207.01 1322.71 2208.72 1317.48 Q2210.44 1312.25 2213.93 1306.78 L2217.64 1306.78 Z" fill="#000000" fill-rule="nonzero" fill-opacity="1" /><path clip-path="url(#clip060)" d="M2230.11 1309.47 L2230.11 1316.83 L2238.89 1316.83 L2238.89 1320.14 L2230.11 1320.14 L2230.11 1334.21 Q2230.11 1337.38 2230.97 1338.29 Q2231.85 1339.19 2234.51 1339.19 L2238.89 1339.19 L2238.89 1342.76 L2234.51 1342.76 Q2229.58 1342.76 2227.71 1340.93 Q2225.83 1339.07 2225.83 1334.21 L2225.83 1320.14 L2222.71 1320.14 L2222.71 1316.83 L2225.83 1316.83 L2225.83 1309.47 L2230.11 1309.47 Z" fill="#000000" fill-rule="nonzero" fill-opacity="1" /><path clip-path="url(#clip060)" d="M2243.82 1306.78 L2247.52 1306.78 Q2250.99 1312.25 2252.71 1317.48 Q2254.44 1322.71 2254.44 1327.87 Q2254.44 1333.06 2252.71 1338.31 Q2250.99 1343.57 2247.52 1349.01 L2243.82 1349.01 Q2246.9 1343.7 2248.4 1338.47 Q2249.93 1333.22 2249.93 1327.87 Q2249.93 1322.52 2248.4 1317.32 Q2246.9 1312.11 2243.82 1306.78 Z" fill="#000000" fill-rule="nonzero" fill-opacity="1" /></svg>
