<?xml version="1.0" encoding="utf-8"?>
<svg xmlns="http://www.w3.org/2000/svg" xmlns:xlink="http://www.w3.org/1999/xlink" width="600" height="400" viewBox="0 0 2400 1600">
<defs>
  <clipPath id="clip960">
    <rect x="0" y="0" width="2400" height="1600"/>
  </clipPath>
</defs>
<path clip-path="url(#clip960)" d="M0 1600 L2400 1600 L2400 0 L0 0  Z" fill="#ffffff" fill-rule="evenodd" fill-opacity="1"/>
<defs>
  <clipPath id="clip961">
    <rect x="480" y="0" width="1681" height="1600"/>
  </clipPath>
</defs>
<path clip-path="url(#clip960)" d="M223.103 1486.45 L2352.76 1486.45 L2352.76 47.2441 L223.103 47.2441  Z" fill="#ffffff" fill-rule="evenodd" fill-opacity="1"/>
<defs>
  <clipPath id="clip962">
    <rect x="223" y="47" width="2131" height="1440"/>
  </clipPath>
</defs>
<polyline clip-path="url(#clip962)" style="stroke:#000000; stroke-linecap:round; stroke-linejoin:round; stroke-width:2; stroke-opacity:0.1; fill:none" points="433.544,1486.45 433.544,47.2441 "/>
<polyline clip-path="url(#clip962)" style="stroke:#000000; stroke-linecap:round; stroke-linejoin:round; stroke-width:2; stroke-opacity:0.1; fill:none" points="686.091,1486.45 686.091,47.2441 "/>
<polyline clip-path="url(#clip962)" style="stroke:#000000; stroke-linecap:round; stroke-linejoin:round; stroke-width:2; stroke-opacity:0.1; fill:none" points="938.638,1486.45 938.638,47.2441 "/>
<polyline clip-path="url(#clip962)" style="stroke:#000000; stroke-linecap:round; stroke-linejoin:round; stroke-width:2; stroke-opacity:0.1; fill:none" points="1191.18,1486.45 1191.18,47.2441 "/>
<polyline clip-path="url(#clip962)" style="stroke:#000000; stroke-linecap:round; stroke-linejoin:round; stroke-width:2; stroke-opacity:0.1; fill:none" points="1443.73,1486.45 1443.73,47.2441 "/>
<polyline clip-path="url(#clip962)" style="stroke:#000000; stroke-linecap:round; stroke-linejoin:round; stroke-width:2; stroke-opacity:0.1; fill:none" points="1696.28,1486.45 1696.28,47.2441 "/>
<polyline clip-path="url(#clip962)" style="stroke:#000000; stroke-linecap:round; stroke-linejoin:round; stroke-width:2; stroke-opacity:0.1; fill:none" points="1948.82,1486.45 1948.82,47.2441 "/>
<polyline clip-path="url(#clip962)" style="stroke:#000000; stroke-linecap:round; stroke-linejoin:round; stroke-width:2; stroke-opacity:0.1; fill:none" points="2201.37,1486.45 2201.37,47.2441 "/>
<polyline clip-path="url(#clip962)" style="stroke:#000000; stroke-linecap:round; stroke-linejoin:round; stroke-width:2; stroke-opacity:0.1; fill:none" points="223.103,1340.87 2352.76,1340.87 "/>
<polyline clip-path="url(#clip962)" style="stroke:#000000; stroke-linecap:round; stroke-linejoin:round; stroke-width:2; stroke-opacity:0.1; fill:none" points="223.103,1125.43 2352.76,1125.43 "/>
<polyline clip-path="url(#clip962)" style="stroke:#000000; stroke-linecap:round; stroke-linejoin:round; stroke-width:2; stroke-opacity:0.1; fill:none" points="223.103,909.985 2352.76,909.985 "/>
<polyline clip-path="url(#clip962)" style="stroke:#000000; stroke-linecap:round; stroke-linejoin:round; stroke-width:2; stroke-opacity:0.1; fill:none" points="223.103,694.541 2352.76,694.541 "/>
<polyline clip-path="url(#clip962)" style="stroke:#000000; stroke-linecap:round; stroke-linejoin:round; stroke-width:2; stroke-opacity:0.1; fill:none" points="223.103,479.096 2352.76,479.096 "/>
<polyline clip-path="url(#clip962)" style="stroke:#000000; stroke-linecap:round; stroke-linejoin:round; stroke-width:2; stroke-opacity:0.1; fill:none" points="223.103,263.651 2352.76,263.651 "/>
<polyline clip-path="url(#clip962)" style="stroke:#000000; stroke-linecap:round; stroke-linejoin:round; stroke-width:2; stroke-opacity:0.1; fill:none" points="223.103,48.2069 2352.76,48.2069 "/>
<polyline clip-path="url(#clip960)" style="stroke:#000000; stroke-linecap:round; stroke-linejoin:round; stroke-width:4; stroke-opacity:1; fill:none" points="223.103,1486.45 2352.76,1486.45 "/>
<polyline clip-path="url(#clip960)" style="stroke:#000000; stroke-linecap:round; stroke-linejoin:round; stroke-width:4; stroke-opacity:1; fill:none" points="433.544,1486.45 433.544,1467.55 "/>
<polyline clip-path="url(#clip960)" style="stroke:#000000; stroke-linecap:round; stroke-linejoin:round; stroke-width:4; stroke-opacity:1; fill:none" points="686.091,1486.45 686.091,1467.55 "/>
<polyline clip-path="url(#clip960)" style="stroke:#000000; stroke-linecap:round; stroke-linejoin:round; stroke-width:4; stroke-opacity:1; fill:none" points="938.638,1486.45 938.638,1467.55 "/>
<polyline clip-path="url(#clip960)" style="stroke:#000000; stroke-linecap:round; stroke-linejoin:round; stroke-width:4; stroke-opacity:1; fill:none" points="1191.18,1486.45 1191.18,1467.55 "/>
<polyline clip-path="url(#clip960)" style="stroke:#000000; stroke-linecap:round; stroke-linejoin:round; stroke-width:4; stroke-opacity:1; fill:none" points="1443.73,1486.45 1443.73,1467.55 "/>
<polyline clip-path="url(#clip960)" style="stroke:#000000; stroke-linecap:round; stroke-linejoin:round; stroke-width:4; stroke-opacity:1; fill:none" points="1696.28,1486.45 1696.28,1467.55 "/>
<polyline clip-path="url(#clip960)" style="stroke:#000000; stroke-linecap:round; stroke-linejoin:round; stroke-width:4; stroke-opacity:1; fill:none" points="1948.82,1486.45 1948.82,1467.55 "/>
<polyline clip-path="url(#clip960)" style="stroke:#000000; stroke-linecap:round; stroke-linejoin:round; stroke-width:4; stroke-opacity:1; fill:none" points="2201.37,1486.45 2201.37,1467.55 "/>
<path clip-path="url(#clip960)" d="M380.871 1532.02 L410.547 1532.02 L410.547 1535.95 L380.871 1535.95 L380.871 1532.02 Z" fill="#000000" fill-rule="nonzero" fill-opacity="1" /><path clip-path="url(#clip960)" d="M430.639 1517.37 Q427.028 1517.37 425.199 1520.93 Q423.394 1524.47 423.394 1531.6 Q423.394 1538.71 425.199 1542.27 Q427.028 1545.82 430.639 1545.82 Q434.273 1545.82 436.079 1542.27 Q437.908 1538.71 437.908 1531.6 Q437.908 1524.47 436.079 1520.93 Q434.273 1517.37 430.639 1517.37 M430.639 1513.66 Q436.449 1513.66 439.505 1518.27 Q442.584 1522.85 442.584 1531.6 Q442.584 1540.33 439.505 1544.94 Q436.449 1549.52 430.639 1549.52 Q424.829 1549.52 421.75 1544.94 Q418.695 1540.33 418.695 1531.6 Q418.695 1522.85 421.75 1518.27 Q424.829 1513.66 430.639 1513.66 Z" fill="#000000" fill-rule="nonzero" fill-opacity="1" /><path clip-path="url(#clip960)" d="M450.801 1542.97 L455.685 1542.97 L455.685 1548.85 L450.801 1548.85 L450.801 1542.97 Z" fill="#000000" fill-rule="nonzero" fill-opacity="1" /><path clip-path="url(#clip960)" d="M469.898 1544.91 L486.218 1544.91 L486.218 1548.85 L464.273 1548.85 L464.273 1544.91 Q466.935 1542.16 471.519 1537.53 Q476.125 1532.88 477.306 1531.53 Q479.551 1529.01 480.431 1527.27 Q481.333 1525.51 481.333 1523.82 Q481.333 1521.07 479.389 1519.33 Q477.468 1517.6 474.366 1517.6 Q472.167 1517.6 469.713 1518.36 Q467.283 1519.13 464.505 1520.68 L464.505 1515.95 Q467.329 1514.82 469.782 1514.24 Q472.236 1513.66 474.273 1513.66 Q479.644 1513.66 482.838 1516.35 Q486.032 1519.03 486.032 1523.52 Q486.032 1525.65 485.222 1527.57 Q484.435 1529.47 482.329 1532.07 Q481.75 1532.74 478.648 1535.95 Q475.546 1539.15 469.898 1544.91 Z" fill="#000000" fill-rule="nonzero" fill-opacity="1" /><path clip-path="url(#clip960)" d="M663.475 1517.37 Q659.864 1517.37 658.036 1520.93 Q656.23 1524.47 656.23 1531.6 Q656.23 1538.71 658.036 1542.27 Q659.864 1545.82 663.475 1545.82 Q667.11 1545.82 668.915 1542.27 Q670.744 1538.71 670.744 1531.6 Q670.744 1524.47 668.915 1520.93 Q667.11 1517.37 663.475 1517.37 M663.475 1513.66 Q669.285 1513.66 672.341 1518.27 Q675.42 1522.85 675.42 1531.6 Q675.42 1540.33 672.341 1544.94 Q669.285 1549.52 663.475 1549.52 Q657.665 1549.52 654.586 1544.94 Q651.531 1540.33 651.531 1531.6 Q651.531 1522.85 654.586 1518.27 Q657.665 1513.66 663.475 1513.66 Z" fill="#000000" fill-rule="nonzero" fill-opacity="1" /><path clip-path="url(#clip960)" d="M683.637 1542.97 L688.521 1542.97 L688.521 1548.85 L683.637 1548.85 L683.637 1542.97 Z" fill="#000000" fill-rule="nonzero" fill-opacity="1" /><path clip-path="url(#clip960)" d="M708.707 1517.37 Q705.095 1517.37 703.267 1520.93 Q701.461 1524.47 701.461 1531.6 Q701.461 1538.71 703.267 1542.27 Q705.095 1545.82 708.707 1545.82 Q712.341 1545.82 714.146 1542.27 Q715.975 1538.71 715.975 1531.6 Q715.975 1524.47 714.146 1520.93 Q712.341 1517.37 708.707 1517.37 M708.707 1513.66 Q714.517 1513.66 717.572 1518.27 Q720.651 1522.85 720.651 1531.6 Q720.651 1540.33 717.572 1544.94 Q714.517 1549.52 708.707 1549.52 Q702.896 1549.52 699.818 1544.94 Q696.762 1540.33 696.762 1531.6 Q696.762 1522.85 699.818 1518.27 Q702.896 1513.66 708.707 1513.66 Z" fill="#000000" fill-rule="nonzero" fill-opacity="1" /><path clip-path="url(#clip960)" d="M916.821 1517.37 Q913.209 1517.37 911.381 1520.93 Q909.575 1524.47 909.575 1531.6 Q909.575 1538.71 911.381 1542.27 Q913.209 1545.82 916.821 1545.82 Q920.455 1545.82 922.26 1542.27 Q924.089 1538.71 924.089 1531.6 Q924.089 1524.47 922.26 1520.93 Q920.455 1517.37 916.821 1517.37 M916.821 1513.66 Q922.631 1513.66 925.686 1518.27 Q928.765 1522.85 928.765 1531.6 Q928.765 1540.33 925.686 1544.94 Q922.631 1549.52 916.821 1549.52 Q911.01 1549.52 907.932 1544.94 Q904.876 1540.33 904.876 1531.6 Q904.876 1522.85 907.932 1518.27 Q911.01 1513.66 916.821 1513.66 Z" fill="#000000" fill-rule="nonzero" fill-opacity="1" /><path clip-path="url(#clip960)" d="M936.982 1542.97 L941.867 1542.97 L941.867 1548.85 L936.982 1548.85 L936.982 1542.97 Z" fill="#000000" fill-rule="nonzero" fill-opacity="1" /><path clip-path="url(#clip960)" d="M956.08 1544.91 L972.399 1544.91 L972.399 1548.85 L950.455 1548.85 L950.455 1544.91 Q953.117 1542.16 957.7 1537.53 Q962.306 1532.88 963.487 1531.53 Q965.732 1529.01 966.612 1527.27 Q967.515 1525.51 967.515 1523.82 Q967.515 1521.07 965.57 1519.33 Q963.649 1517.6 960.547 1517.6 Q958.348 1517.6 955.894 1518.36 Q953.464 1519.13 950.686 1520.68 L950.686 1515.95 Q953.51 1514.82 955.964 1514.24 Q958.418 1513.66 960.455 1513.66 Q965.825 1513.66 969.019 1516.35 Q972.214 1519.03 972.214 1523.52 Q972.214 1525.65 971.404 1527.57 Q970.617 1529.47 968.51 1532.07 Q967.931 1532.74 964.83 1535.95 Q961.728 1539.15 956.08 1544.91 Z" fill="#000000" fill-rule="nonzero" fill-opacity="1" /><path clip-path="url(#clip960)" d="M1168.33 1517.37 Q1164.71 1517.37 1162.89 1520.93 Q1161.08 1524.47 1161.08 1531.6 Q1161.08 1538.71 1162.89 1542.27 Q1164.71 1545.82 1168.33 1545.82 Q1171.96 1545.82 1173.77 1542.27 Q1175.59 1538.71 1175.59 1531.6 Q1175.59 1524.47 1173.77 1520.93 Q1171.96 1517.37 1168.33 1517.37 M1168.33 1513.66 Q1174.14 1513.66 1177.19 1518.27 Q1180.27 1522.85 1180.27 1531.6 Q1180.27 1540.33 1177.19 1544.94 Q1174.14 1549.52 1168.33 1549.52 Q1162.52 1549.52 1159.44 1544.94 Q1156.38 1540.33 1156.38 1531.6 Q1156.38 1522.85 1159.44 1518.27 Q1162.52 1513.66 1168.33 1513.66 Z" fill="#000000" fill-rule="nonzero" fill-opacity="1" /><path clip-path="url(#clip960)" d="M1188.49 1542.97 L1193.37 1542.97 L1193.37 1548.85 L1188.49 1548.85 L1188.49 1542.97 Z" fill="#000000" fill-rule="nonzero" fill-opacity="1" /><path clip-path="url(#clip960)" d="M1216.4 1518.36 L1204.6 1536.81 L1216.4 1536.81 L1216.4 1518.36 M1215.18 1514.29 L1221.06 1514.29 L1221.06 1536.81 L1225.99 1536.81 L1225.99 1540.7 L1221.06 1540.7 L1221.06 1548.85 L1216.4 1548.85 L1216.4 1540.7 L1200.8 1540.7 L1200.8 1536.19 L1215.18 1514.29 Z" fill="#000000" fill-rule="nonzero" fill-opacity="1" /><path clip-path="url(#clip960)" d="M1421.03 1517.37 Q1417.42 1517.37 1415.59 1520.93 Q1413.79 1524.47 1413.79 1531.6 Q1413.79 1538.71 1415.59 1542.27 Q1417.42 1545.82 1421.03 1545.82 Q1424.67 1545.82 1426.47 1542.27 Q1428.3 1538.71 1428.3 1531.6 Q1428.3 1524.47 1426.47 1520.93 Q1424.67 1517.37 1421.03 1517.37 M1421.03 1513.66 Q1426.84 1513.66 1429.9 1518.27 Q1432.98 1522.85 1432.98 1531.6 Q1432.98 1540.33 1429.9 1544.94 Q1426.84 1549.52 1421.03 1549.52 Q1415.22 1549.52 1412.15 1544.94 Q1409.09 1540.33 1409.09 1531.6 Q1409.09 1522.85 1412.15 1518.27 Q1415.22 1513.66 1421.03 1513.66 Z" fill="#000000" fill-rule="nonzero" fill-opacity="1" /><path clip-path="url(#clip960)" d="M1441.2 1542.97 L1446.08 1542.97 L1446.08 1548.85 L1441.2 1548.85 L1441.2 1542.97 Z" fill="#000000" fill-rule="nonzero" fill-opacity="1" /><path clip-path="url(#clip960)" d="M1466.84 1529.7 Q1463.7 1529.7 1461.84 1531.86 Q1460.02 1534.01 1460.02 1537.76 Q1460.02 1541.49 1461.84 1543.66 Q1463.7 1545.82 1466.84 1545.82 Q1469.99 1545.82 1471.82 1543.66 Q1473.67 1541.49 1473.67 1537.76 Q1473.67 1534.01 1471.82 1531.86 Q1469.99 1529.7 1466.84 1529.7 M1476.13 1515.05 L1476.13 1519.31 Q1474.37 1518.48 1472.56 1518.04 Q1470.78 1517.6 1469.02 1517.6 Q1464.39 1517.6 1461.94 1520.72 Q1459.51 1523.85 1459.16 1530.17 Q1460.52 1528.15 1462.58 1527.09 Q1464.65 1526 1467.12 1526 Q1472.33 1526 1475.34 1529.17 Q1478.37 1532.32 1478.37 1537.76 Q1478.37 1543.08 1475.22 1546.3 Q1472.08 1549.52 1466.84 1549.52 Q1460.85 1549.52 1457.68 1544.94 Q1454.51 1540.33 1454.51 1531.6 Q1454.51 1523.41 1458.4 1518.55 Q1462.28 1513.66 1468.83 1513.66 Q1470.59 1513.66 1472.38 1514.01 Q1474.18 1514.36 1476.13 1515.05 Z" fill="#000000" fill-rule="nonzero" fill-opacity="1" /><path clip-path="url(#clip960)" d="M1673.71 1517.37 Q1670.1 1517.37 1668.27 1520.93 Q1666.46 1524.47 1666.46 1531.6 Q1666.46 1538.71 1668.27 1542.27 Q1670.1 1545.82 1673.71 1545.82 Q1677.34 1545.82 1679.15 1542.27 Q1680.98 1538.71 1680.98 1531.6 Q1680.98 1524.47 1679.15 1520.93 Q1677.34 1517.37 1673.71 1517.37 M1673.71 1513.66 Q1679.52 1513.66 1682.57 1518.27 Q1685.65 1522.85 1685.65 1531.6 Q1685.65 1540.33 1682.57 1544.94 Q1679.52 1549.52 1673.71 1549.52 Q1667.9 1549.52 1664.82 1544.94 Q1661.76 1540.33 1661.76 1531.6 Q1661.76 1522.85 1664.82 1518.27 Q1667.9 1513.66 1673.71 1513.66 Z" fill="#000000" fill-rule="nonzero" fill-opacity="1" /><path clip-path="url(#clip960)" d="M1693.87 1542.97 L1698.75 1542.97 L1698.75 1548.85 L1693.87 1548.85 L1693.87 1542.97 Z" fill="#000000" fill-rule="nonzero" fill-opacity="1" /><path clip-path="url(#clip960)" d="M1718.94 1532.44 Q1715.61 1532.44 1713.68 1534.22 Q1711.79 1536 1711.79 1539.13 Q1711.79 1542.25 1713.68 1544.03 Q1715.61 1545.82 1718.94 1545.82 Q1722.27 1545.82 1724.19 1544.03 Q1726.12 1542.23 1726.12 1539.13 Q1726.12 1536 1724.19 1534.22 Q1722.3 1532.44 1718.94 1532.44 M1714.26 1530.45 Q1711.25 1529.7 1709.56 1527.64 Q1707.9 1525.58 1707.9 1522.62 Q1707.9 1518.48 1710.84 1516.07 Q1713.8 1513.66 1718.94 1513.66 Q1724.1 1513.66 1727.04 1516.07 Q1729.98 1518.48 1729.98 1522.62 Q1729.98 1525.58 1728.29 1527.64 Q1726.62 1529.7 1723.64 1530.45 Q1727.02 1531.23 1728.89 1533.52 Q1730.79 1535.82 1730.79 1539.13 Q1730.79 1544.15 1727.71 1546.83 Q1724.66 1549.52 1718.94 1549.52 Q1713.22 1549.52 1710.14 1546.83 Q1707.09 1544.15 1707.09 1539.13 Q1707.09 1535.82 1708.99 1533.52 Q1710.88 1531.23 1714.26 1530.45 M1712.55 1523.06 Q1712.55 1525.75 1714.22 1527.25 Q1715.91 1528.76 1718.94 1528.76 Q1721.95 1528.76 1723.64 1527.25 Q1725.35 1525.75 1725.35 1523.06 Q1725.35 1520.38 1723.64 1518.87 Q1721.95 1517.37 1718.94 1517.37 Q1715.91 1517.37 1714.22 1518.87 Q1712.55 1520.38 1712.55 1523.06 Z" fill="#000000" fill-rule="nonzero" fill-opacity="1" /><path clip-path="url(#clip960)" d="M1915.98 1544.91 L1923.62 1544.91 L1923.62 1518.55 L1915.31 1520.21 L1915.31 1515.95 L1923.57 1514.29 L1928.25 1514.29 L1928.25 1544.91 L1935.88 1544.91 L1935.88 1548.85 L1915.98 1548.85 L1915.98 1544.91 Z" fill="#000000" fill-rule="nonzero" fill-opacity="1" /><path clip-path="url(#clip960)" d="M1945.33 1542.97 L1950.21 1542.97 L1950.21 1548.85 L1945.33 1548.85 L1945.33 1542.97 Z" fill="#000000" fill-rule="nonzero" fill-opacity="1" /><path clip-path="url(#clip960)" d="M1970.4 1517.37 Q1966.79 1517.37 1964.96 1520.93 Q1963.15 1524.47 1963.15 1531.6 Q1963.15 1538.71 1964.96 1542.27 Q1966.79 1545.82 1970.4 1545.82 Q1974.03 1545.82 1975.84 1542.27 Q1977.67 1538.71 1977.67 1531.6 Q1977.67 1524.47 1975.84 1520.93 Q1974.03 1517.37 1970.4 1517.37 M1970.4 1513.66 Q1976.21 1513.66 1979.26 1518.27 Q1982.34 1522.85 1982.34 1531.6 Q1982.34 1540.33 1979.26 1544.94 Q1976.21 1549.52 1970.4 1549.52 Q1964.59 1549.52 1961.51 1544.94 Q1958.45 1540.33 1958.45 1531.6 Q1958.45 1522.85 1961.51 1518.27 Q1964.59 1513.66 1970.4 1513.66 Z" fill="#000000" fill-rule="nonzero" fill-opacity="1" /><path clip-path="url(#clip960)" d="M2169.32 1544.91 L2176.96 1544.91 L2176.96 1518.55 L2168.65 1520.21 L2168.65 1515.95 L2176.91 1514.29 L2181.59 1514.29 L2181.59 1544.91 L2189.23 1544.91 L2189.23 1548.85 L2169.32 1548.85 L2169.32 1544.91 Z" fill="#000000" fill-rule="nonzero" fill-opacity="1" /><path clip-path="url(#clip960)" d="M2198.67 1542.97 L2203.56 1542.97 L2203.56 1548.85 L2198.67 1548.85 L2198.67 1542.97 Z" fill="#000000" fill-rule="nonzero" fill-opacity="1" /><path clip-path="url(#clip960)" d="M2217.77 1544.91 L2234.09 1544.91 L2234.09 1548.85 L2212.15 1548.85 L2212.15 1544.91 Q2214.81 1542.16 2219.39 1537.53 Q2224 1532.88 2225.18 1531.53 Q2227.42 1529.01 2228.3 1527.27 Q2229.21 1525.51 2229.21 1523.82 Q2229.21 1521.07 2227.26 1519.33 Q2225.34 1517.6 2222.24 1517.6 Q2220.04 1517.6 2217.59 1518.36 Q2215.16 1519.13 2212.38 1520.68 L2212.38 1515.95 Q2215.2 1514.82 2217.66 1514.24 Q2220.11 1513.66 2222.15 1513.66 Q2227.52 1513.66 2230.71 1516.35 Q2233.91 1519.03 2233.91 1523.52 Q2233.91 1525.65 2233.1 1527.57 Q2232.31 1529.47 2230.2 1532.07 Q2229.62 1532.74 2226.52 1535.95 Q2223.42 1539.15 2217.77 1544.91 Z" fill="#000000" fill-rule="nonzero" fill-opacity="1" /><polyline clip-path="url(#clip960)" style="stroke:#000000; stroke-linecap:round; stroke-linejoin:round; stroke-width:4; stroke-opacity:1; fill:none" points="223.103,1486.45 223.103,47.2441 "/>
<polyline clip-path="url(#clip960)" style="stroke:#000000; stroke-linecap:round; stroke-linejoin:round; stroke-width:4; stroke-opacity:1; fill:none" points="223.103,1340.87 242,1340.87 "/>
<polyline clip-path="url(#clip960)" style="stroke:#000000; stroke-linecap:round; stroke-linejoin:round; stroke-width:4; stroke-opacity:1; fill:none" points="223.103,1125.43 242,1125.43 "/>
<polyline clip-path="url(#clip960)" style="stroke:#000000; stroke-linecap:round; stroke-linejoin:round; stroke-width:4; stroke-opacity:1; fill:none" points="223.103,909.985 242,909.985 "/>
<polyline clip-path="url(#clip960)" style="stroke:#000000; stroke-linecap:round; stroke-linejoin:round; stroke-width:4; stroke-opacity:1; fill:none" points="223.103,694.541 242,694.541 "/>
<polyline clip-path="url(#clip960)" style="stroke:#000000; stroke-linecap:round; stroke-linejoin:round; stroke-width:4; stroke-opacity:1; fill:none" points="223.103,479.096 242,479.096 "/>
<polyline clip-path="url(#clip960)" style="stroke:#000000; stroke-linecap:round; stroke-linejoin:round; stroke-width:4; stroke-opacity:1; fill:none" points="223.103,263.651 242,263.651 "/>
<polyline clip-path="url(#clip960)" style="stroke:#000000; stroke-linecap:round; stroke-linejoin:round; stroke-width:4; stroke-opacity:1; fill:none" points="223.103,48.2069 242,48.2069 "/>
<path clip-path="url(#clip960)" d="M50.9921 1341.33 L80.6679 1341.33 L80.6679 1345.26 L50.9921 1345.26 L50.9921 1341.33 Z" fill="#000000" fill-rule="nonzero" fill-opacity="1" /><path clip-path="url(#clip960)" d="M100.76 1326.67 Q97.1493 1326.67 95.3206 1330.24 Q93.515 1333.78 93.515 1340.91 Q93.515 1348.02 95.3206 1351.58 Q97.1493 1355.12 100.76 1355.12 Q104.395 1355.12 106.2 1351.58 Q108.029 1348.02 108.029 1340.91 Q108.029 1333.78 106.2 1330.24 Q104.395 1326.67 100.76 1326.67 M100.76 1322.97 Q106.571 1322.97 109.626 1327.58 Q112.705 1332.16 112.705 1340.91 Q112.705 1349.64 109.626 1354.24 Q106.571 1358.83 100.76 1358.83 Q94.9502 1358.83 91.8715 1354.24 Q88.816 1349.64 88.816 1340.91 Q88.816 1332.16 91.8715 1327.58 Q94.9502 1322.97 100.76 1322.97 Z" fill="#000000" fill-rule="nonzero" fill-opacity="1" /><path clip-path="url(#clip960)" d="M120.922 1352.27 L125.807 1352.27 L125.807 1358.15 L120.922 1358.15 L120.922 1352.27 Z" fill="#000000" fill-rule="nonzero" fill-opacity="1" /><path clip-path="url(#clip960)" d="M140.019 1354.22 L156.339 1354.22 L156.339 1358.15 L134.394 1358.15 L134.394 1354.22 Q137.056 1351.46 141.64 1346.83 Q146.246 1342.18 147.427 1340.84 Q149.672 1338.32 150.552 1336.58 Q151.455 1334.82 151.455 1333.13 Q151.455 1330.38 149.51 1328.64 Q147.589 1326.9 144.487 1326.9 Q142.288 1326.9 139.834 1327.67 Q137.404 1328.43 134.626 1329.98 L134.626 1325.26 Q137.45 1324.13 139.904 1323.55 Q142.357 1322.97 144.394 1322.97 Q149.765 1322.97 152.959 1325.65 Q156.154 1328.34 156.154 1332.83 Q156.154 1334.96 155.343 1336.88 Q154.556 1338.78 152.45 1341.37 Q151.871 1342.04 148.769 1345.26 Q145.668 1348.46 140.019 1354.22 Z" fill="#000000" fill-rule="nonzero" fill-opacity="1" /><path clip-path="url(#clip960)" d="M166.2 1323.59 L184.556 1323.59 L184.556 1327.53 L170.482 1327.53 L170.482 1336 Q171.501 1335.65 172.519 1335.49 Q173.538 1335.31 174.556 1335.31 Q180.343 1335.31 183.723 1338.48 Q187.103 1341.65 187.103 1347.07 Q187.103 1352.65 183.63 1355.75 Q180.158 1358.83 173.839 1358.83 Q171.663 1358.83 169.394 1358.46 Q167.149 1358.08 164.742 1357.34 L164.742 1352.65 Q166.825 1353.78 169.047 1354.33 Q171.269 1354.89 173.746 1354.89 Q177.751 1354.89 180.089 1352.78 Q182.427 1350.68 182.427 1347.07 Q182.427 1343.46 180.089 1341.35 Q177.751 1339.24 173.746 1339.24 Q171.871 1339.24 169.996 1339.66 Q168.144 1340.08 166.2 1340.96 L166.2 1323.59 Z" fill="#000000" fill-rule="nonzero" fill-opacity="1" /><path clip-path="url(#clip960)" d="M99.765 1111.23 Q96.1539 1111.23 94.3252 1114.79 Q92.5197 1118.33 92.5197 1125.46 Q92.5197 1132.57 94.3252 1136.14 Q96.1539 1139.68 99.765 1139.68 Q103.399 1139.68 105.205 1136.14 Q107.033 1132.57 107.033 1125.46 Q107.033 1118.33 105.205 1114.79 Q103.399 1111.23 99.765 1111.23 M99.765 1107.52 Q105.575 1107.52 108.631 1112.13 Q111.709 1116.71 111.709 1125.46 Q111.709 1134.19 108.631 1138.8 Q105.575 1143.38 99.765 1143.38 Q93.9549 1143.38 90.8762 1138.8 Q87.8206 1134.19 87.8206 1125.46 Q87.8206 1116.71 90.8762 1112.13 Q93.9549 1107.52 99.765 1107.52 Z" fill="#000000" fill-rule="nonzero" fill-opacity="1" /><path clip-path="url(#clip960)" d="M119.927 1136.83 L124.811 1136.83 L124.811 1142.71 L119.927 1142.71 L119.927 1136.83 Z" fill="#000000" fill-rule="nonzero" fill-opacity="1" /><path clip-path="url(#clip960)" d="M144.996 1111.23 Q141.385 1111.23 139.556 1114.79 Q137.751 1118.33 137.751 1125.46 Q137.751 1132.57 139.556 1136.14 Q141.385 1139.68 144.996 1139.68 Q148.63 1139.68 150.436 1136.14 Q152.265 1132.57 152.265 1125.46 Q152.265 1118.33 150.436 1114.79 Q148.63 1111.23 144.996 1111.23 M144.996 1107.52 Q150.806 1107.52 153.862 1112.13 Q156.941 1116.71 156.941 1125.46 Q156.941 1134.19 153.862 1138.8 Q150.806 1143.38 144.996 1143.38 Q139.186 1143.38 136.107 1138.8 Q133.052 1134.19 133.052 1125.46 Q133.052 1116.71 136.107 1112.13 Q139.186 1107.52 144.996 1107.52 Z" fill="#000000" fill-rule="nonzero" fill-opacity="1" /><path clip-path="url(#clip960)" d="M175.158 1111.23 Q171.547 1111.23 169.718 1114.79 Q167.913 1118.33 167.913 1125.46 Q167.913 1132.57 169.718 1136.14 Q171.547 1139.68 175.158 1139.68 Q178.792 1139.68 180.598 1136.14 Q182.427 1132.57 182.427 1125.46 Q182.427 1118.33 180.598 1114.79 Q178.792 1111.23 175.158 1111.23 M175.158 1107.52 Q180.968 1107.52 184.024 1112.13 Q187.103 1116.71 187.103 1125.46 Q187.103 1134.19 184.024 1138.8 Q180.968 1143.38 175.158 1143.38 Q169.348 1143.38 166.269 1138.8 Q163.214 1134.19 163.214 1125.46 Q163.214 1116.71 166.269 1112.13 Q169.348 1107.52 175.158 1107.52 Z" fill="#000000" fill-rule="nonzero" fill-opacity="1" /><path clip-path="url(#clip960)" d="M100.76 895.784 Q97.1493 895.784 95.3206 899.349 Q93.515 902.89 93.515 910.02 Q93.515 917.126 95.3206 920.691 Q97.1493 924.233 100.76 924.233 Q104.395 924.233 106.2 920.691 Q108.029 917.126 108.029 910.02 Q108.029 902.89 106.2 899.349 Q104.395 895.784 100.76 895.784 M100.76 892.08 Q106.571 892.08 109.626 896.687 Q112.705 901.27 112.705 910.02 Q112.705 918.747 109.626 923.353 Q106.571 927.936 100.76 927.936 Q94.9502 927.936 91.8715 923.353 Q88.816 918.747 88.816 910.02 Q88.816 901.27 91.8715 896.687 Q94.9502 892.08 100.76 892.08 Z" fill="#000000" fill-rule="nonzero" fill-opacity="1" /><path clip-path="url(#clip960)" d="M120.922 921.386 L125.807 921.386 L125.807 927.265 L120.922 927.265 L120.922 921.386 Z" fill="#000000" fill-rule="nonzero" fill-opacity="1" /><path clip-path="url(#clip960)" d="M140.019 923.33 L156.339 923.33 L156.339 927.265 L134.394 927.265 L134.394 923.33 Q137.056 920.575 141.64 915.946 Q146.246 911.293 147.427 909.95 Q149.672 907.427 150.552 905.691 Q151.455 903.932 151.455 902.242 Q151.455 899.488 149.51 897.751 Q147.589 896.015 144.487 896.015 Q142.288 896.015 139.834 896.779 Q137.404 897.543 134.626 899.094 L134.626 894.372 Q137.45 893.238 139.904 892.659 Q142.357 892.08 144.394 892.08 Q149.765 892.08 152.959 894.765 Q156.154 897.451 156.154 901.941 Q156.154 904.071 155.343 905.992 Q154.556 907.89 152.45 910.483 Q151.871 911.154 148.769 914.372 Q145.668 917.566 140.019 923.33 Z" fill="#000000" fill-rule="nonzero" fill-opacity="1" /><path clip-path="url(#clip960)" d="M166.2 892.705 L184.556 892.705 L184.556 896.64 L170.482 896.64 L170.482 905.113 Q171.501 904.765 172.519 904.603 Q173.538 904.418 174.556 904.418 Q180.343 904.418 183.723 907.589 Q187.103 910.761 187.103 916.177 Q187.103 921.756 183.63 924.858 Q180.158 927.936 173.839 927.936 Q171.663 927.936 169.394 927.566 Q167.149 927.196 164.742 926.455 L164.742 921.756 Q166.825 922.89 169.047 923.446 Q171.269 924.001 173.746 924.001 Q177.751 924.001 180.089 921.895 Q182.427 919.788 182.427 916.177 Q182.427 912.566 180.089 910.46 Q177.751 908.353 173.746 908.353 Q171.871 908.353 169.996 908.77 Q168.144 909.187 166.2 910.066 L166.2 892.705 Z" fill="#000000" fill-rule="nonzero" fill-opacity="1" /><path clip-path="url(#clip960)" d="M99.765 680.339 Q96.1539 680.339 94.3252 683.904 Q92.5197 687.446 92.5197 694.575 Q92.5197 701.682 94.3252 705.247 Q96.1539 708.788 99.765 708.788 Q103.399 708.788 105.205 705.247 Q107.033 701.682 107.033 694.575 Q107.033 687.446 105.205 683.904 Q103.399 680.339 99.765 680.339 M99.765 676.636 Q105.575 676.636 108.631 681.242 Q111.709 685.825 111.709 694.575 Q111.709 703.302 108.631 707.909 Q105.575 712.492 99.765 712.492 Q93.9549 712.492 90.8762 707.909 Q87.8206 703.302 87.8206 694.575 Q87.8206 685.825 90.8762 681.242 Q93.9549 676.636 99.765 676.636 Z" fill="#000000" fill-rule="nonzero" fill-opacity="1" /><path clip-path="url(#clip960)" d="M119.927 705.941 L124.811 705.941 L124.811 711.821 L119.927 711.821 L119.927 705.941 Z" fill="#000000" fill-rule="nonzero" fill-opacity="1" /><path clip-path="url(#clip960)" d="M135.043 677.261 L153.399 677.261 L153.399 681.196 L139.325 681.196 L139.325 689.668 Q140.343 689.321 141.362 689.159 Q142.381 688.974 143.399 688.974 Q149.186 688.974 152.566 692.145 Q155.945 695.316 155.945 700.733 Q155.945 706.311 152.473 709.413 Q149.001 712.492 142.681 712.492 Q140.506 712.492 138.237 712.122 Q135.992 711.751 133.584 711.01 L133.584 706.311 Q135.668 707.446 137.89 708.001 Q140.112 708.557 142.589 708.557 Q146.593 708.557 148.931 706.45 Q151.269 704.344 151.269 700.733 Q151.269 697.122 148.931 695.015 Q146.593 692.909 142.589 692.909 Q140.714 692.909 138.839 693.325 Q136.987 693.742 135.043 694.622 L135.043 677.261 Z" fill="#000000" fill-rule="nonzero" fill-opacity="1" /><path clip-path="url(#clip960)" d="M175.158 680.339 Q171.547 680.339 169.718 683.904 Q167.913 687.446 167.913 694.575 Q167.913 701.682 169.718 705.247 Q171.547 708.788 175.158 708.788 Q178.792 708.788 180.598 705.247 Q182.427 701.682 182.427 694.575 Q182.427 687.446 180.598 683.904 Q178.792 680.339 175.158 680.339 M175.158 676.636 Q180.968 676.636 184.024 681.242 Q187.103 685.825 187.103 694.575 Q187.103 703.302 184.024 707.909 Q180.968 712.492 175.158 712.492 Q169.348 712.492 166.269 707.909 Q163.214 703.302 163.214 694.575 Q163.214 685.825 166.269 681.242 Q169.348 676.636 175.158 676.636 Z" fill="#000000" fill-rule="nonzero" fill-opacity="1" /><path clip-path="url(#clip960)" d="M100.76 464.895 Q97.1493 464.895 95.3206 468.46 Q93.515 472.001 93.515 479.131 Q93.515 486.237 95.3206 489.802 Q97.1493 493.344 100.76 493.344 Q104.395 493.344 106.2 489.802 Q108.029 486.237 108.029 479.131 Q108.029 472.001 106.2 468.46 Q104.395 464.895 100.76 464.895 M100.76 461.191 Q106.571 461.191 109.626 465.798 Q112.705 470.381 112.705 479.131 Q112.705 487.858 109.626 492.464 Q106.571 497.047 100.76 497.047 Q94.9502 497.047 91.8715 492.464 Q88.816 487.858 88.816 479.131 Q88.816 470.381 91.8715 465.798 Q94.9502 461.191 100.76 461.191 Z" fill="#000000" fill-rule="nonzero" fill-opacity="1" /><path clip-path="url(#clip960)" d="M120.922 490.496 L125.807 490.496 L125.807 496.376 L120.922 496.376 L120.922 490.496 Z" fill="#000000" fill-rule="nonzero" fill-opacity="1" /><path clip-path="url(#clip960)" d="M134.811 461.816 L157.033 461.816 L157.033 463.807 L144.487 496.376 L139.603 496.376 L151.408 465.751 L134.811 465.751 L134.811 461.816 Z" fill="#000000" fill-rule="nonzero" fill-opacity="1" /><path clip-path="url(#clip960)" d="M166.2 461.816 L184.556 461.816 L184.556 465.751 L170.482 465.751 L170.482 474.223 Q171.501 473.876 172.519 473.714 Q173.538 473.529 174.556 473.529 Q180.343 473.529 183.723 476.7 Q187.103 479.872 187.103 485.288 Q187.103 490.867 183.63 493.969 Q180.158 497.047 173.839 497.047 Q171.663 497.047 169.394 496.677 Q167.149 496.307 164.742 495.566 L164.742 490.867 Q166.825 492.001 169.047 492.557 Q171.269 493.112 173.746 493.112 Q177.751 493.112 180.089 491.006 Q182.427 488.899 182.427 485.288 Q182.427 481.677 180.089 479.571 Q177.751 477.464 173.746 477.464 Q171.871 477.464 169.996 477.881 Q168.144 478.297 166.2 479.177 L166.2 461.816 Z" fill="#000000" fill-rule="nonzero" fill-opacity="1" /><path clip-path="url(#clip960)" d="M90.5752 276.996 L98.2141 276.996 L98.2141 250.631 L89.904 252.297 L89.904 248.038 L98.1678 246.371 L102.844 246.371 L102.844 276.996 L110.483 276.996 L110.483 280.931 L90.5752 280.931 L90.5752 276.996 Z" fill="#000000" fill-rule="nonzero" fill-opacity="1" /><path clip-path="url(#clip960)" d="M119.927 275.052 L124.811 275.052 L124.811 280.931 L119.927 280.931 L119.927 275.052 Z" fill="#000000" fill-rule="nonzero" fill-opacity="1" /><path clip-path="url(#clip960)" d="M144.996 249.45 Q141.385 249.45 139.556 253.015 Q137.751 256.557 137.751 263.686 Q137.751 270.793 139.556 274.357 Q141.385 277.899 144.996 277.899 Q148.63 277.899 150.436 274.357 Q152.265 270.793 152.265 263.686 Q152.265 256.557 150.436 253.015 Q148.63 249.45 144.996 249.45 M144.996 245.747 Q150.806 245.747 153.862 250.353 Q156.941 254.936 156.941 263.686 Q156.941 272.413 153.862 277.019 Q150.806 281.603 144.996 281.603 Q139.186 281.603 136.107 277.019 Q133.052 272.413 133.052 263.686 Q133.052 254.936 136.107 250.353 Q139.186 245.747 144.996 245.747 Z" fill="#000000" fill-rule="nonzero" fill-opacity="1" /><path clip-path="url(#clip960)" d="M175.158 249.45 Q171.547 249.45 169.718 253.015 Q167.913 256.557 167.913 263.686 Q167.913 270.793 169.718 274.357 Q171.547 277.899 175.158 277.899 Q178.792 277.899 180.598 274.357 Q182.427 270.793 182.427 263.686 Q182.427 256.557 180.598 253.015 Q178.792 249.45 175.158 249.45 M175.158 245.747 Q180.968 245.747 184.024 250.353 Q187.103 254.936 187.103 263.686 Q187.103 272.413 184.024 277.019 Q180.968 281.603 175.158 281.603 Q169.348 281.603 166.269 277.019 Q163.214 272.413 163.214 263.686 Q163.214 254.936 166.269 250.353 Q169.348 245.747 175.158 245.747 Z" fill="#000000" fill-rule="nonzero" fill-opacity="1" /><path clip-path="url(#clip960)" d="M91.5706 61.5518 L99.2095 61.5518 L99.2095 35.1862 L90.8993 36.8528 L90.8993 32.5936 L99.1632 30.9269 L103.839 30.9269 L103.839 61.5518 L111.478 61.5518 L111.478 65.4869 L91.5706 65.4869 L91.5706 61.5518 Z" fill="#000000" fill-rule="nonzero" fill-opacity="1" /><path clip-path="url(#clip960)" d="M120.922 59.6073 L125.807 59.6073 L125.807 65.4869 L120.922 65.4869 L120.922 59.6073 Z" fill="#000000" fill-rule="nonzero" fill-opacity="1" /><path clip-path="url(#clip960)" d="M140.019 61.5518 L156.339 61.5518 L156.339 65.4869 L134.394 65.4869 L134.394 61.5518 Q137.056 58.7972 141.64 54.1676 Q146.246 49.5148 147.427 48.1722 Q149.672 45.6491 150.552 43.913 Q151.455 42.1537 151.455 40.4639 Q151.455 37.7093 149.51 35.9732 Q147.589 34.2371 144.487 34.2371 Q142.288 34.2371 139.834 35.001 Q137.404 35.7649 134.626 37.3158 L134.626 32.5936 Q137.45 31.4593 139.904 30.8806 Q142.357 30.3019 144.394 30.3019 Q149.765 30.3019 152.959 32.9871 Q156.154 35.6723 156.154 40.163 Q156.154 42.2926 155.343 44.2139 Q154.556 46.112 152.45 48.7046 Q151.871 49.3759 148.769 52.5935 Q145.668 55.7879 140.019 61.5518 Z" fill="#000000" fill-rule="nonzero" fill-opacity="1" /><path clip-path="url(#clip960)" d="M166.2 30.9269 L184.556 30.9269 L184.556 34.8621 L170.482 34.8621 L170.482 43.3343 Q171.501 42.9871 172.519 42.825 Q173.538 42.6398 174.556 42.6398 Q180.343 42.6398 183.723 45.8111 Q187.103 48.9824 187.103 54.399 Q187.103 59.9777 183.63 63.0795 Q180.158 66.1582 173.839 66.1582 Q171.663 66.1582 169.394 65.7879 Q167.149 65.4175 164.742 64.6768 L164.742 59.9777 Q166.825 61.112 169.047 61.6675 Q171.269 62.2231 173.746 62.2231 Q177.751 62.2231 180.089 60.1166 Q182.427 58.0101 182.427 54.399 Q182.427 50.7879 180.089 48.6815 Q177.751 46.575 173.746 46.575 Q171.871 46.575 169.996 46.9917 Q168.144 47.4083 166.2 48.288 L166.2 30.9269 Z" fill="#000000" fill-rule="nonzero" fill-opacity="1" /><circle clip-path="url(#clip962)" cx="704.024" cy="529.49" r="14.4" fill="#009af9" fill-rule="evenodd" fill-opacity="1" stroke="#000000" stroke-opacity="1" stroke-width="3.2"/>
<circle clip-path="url(#clip962)" cx="1383.86" cy="760.699" r="14.4" fill="#009af9" fill-rule="evenodd" fill-opacity="1" stroke="#000000" stroke-opacity="1" stroke-width="3.2"/>
<circle clip-path="url(#clip962)" cx="1269.18" cy="523.591" r="14.4" fill="#009af9" fill-rule="evenodd" fill-opacity="1" stroke="#000000" stroke-opacity="1" stroke-width="3.2"/>
<circle clip-path="url(#clip962)" cx="1687.88" cy="257.127" r="14.4" fill="#009af9" fill-rule="evenodd" fill-opacity="1" stroke="#000000" stroke-opacity="1" stroke-width="3.2"/>
<circle clip-path="url(#clip962)" cx="1266.39" cy="521.856" r="14.4" fill="#009af9" fill-rule="evenodd" fill-opacity="1" stroke="#000000" stroke-opacity="1" stroke-width="3.2"/>
<circle clip-path="url(#clip962)" cx="1563.27" cy="1091.16" r="14.4" fill="#009af9" fill-rule="evenodd" fill-opacity="1" stroke="#000000" stroke-opacity="1" stroke-width="3.2"/>
<circle clip-path="url(#clip962)" cx="1534.96" cy="645.011" r="14.4" fill="#009af9" fill-rule="evenodd" fill-opacity="1" stroke="#000000" stroke-opacity="1" stroke-width="3.2"/>
<circle clip-path="url(#clip962)" cx="1256.95" cy="527.508" r="14.4" fill="#009af9" fill-rule="evenodd" fill-opacity="1" stroke="#000000" stroke-opacity="1" stroke-width="3.2"/>
<circle clip-path="url(#clip962)" cx="1537.34" cy="661.085" r="14.4" fill="#009af9" fill-rule="evenodd" fill-opacity="1" stroke="#000000" stroke-opacity="1" stroke-width="3.2"/>
<circle clip-path="url(#clip962)" cx="582.792" cy="608.216" r="14.4" fill="#009af9" fill-rule="evenodd" fill-opacity="1" stroke="#000000" stroke-opacity="1" stroke-width="3.2"/>
<circle clip-path="url(#clip962)" cx="1776.7" cy="395.539" r="14.4" fill="#009af9" fill-rule="evenodd" fill-opacity="1" stroke="#000000" stroke-opacity="1" stroke-width="3.2"/>
<circle clip-path="url(#clip962)" cx="1584.74" cy="1097.81" r="14.4" fill="#009af9" fill-rule="evenodd" fill-opacity="1" stroke="#000000" stroke-opacity="1" stroke-width="3.2"/>
<circle clip-path="url(#clip962)" cx="1701.85" cy="266.033" r="14.4" fill="#009af9" fill-rule="evenodd" fill-opacity="1" stroke="#000000" stroke-opacity="1" stroke-width="3.2"/>
<circle clip-path="url(#clip962)" cx="2089.34" cy="505.9" r="14.4" fill="#009af9" fill-rule="evenodd" fill-opacity="1" stroke="#000000" stroke-opacity="1" stroke-width="3.2"/>
<circle clip-path="url(#clip962)" cx="1592.97" cy="673.459" r="14.4" fill="#009af9" fill-rule="evenodd" fill-opacity="1" stroke="#000000" stroke-opacity="1" stroke-width="3.2"/>
<circle clip-path="url(#clip962)" cx="283.376" cy="757.727" r="14.4" fill="#009af9" fill-rule="evenodd" fill-opacity="1" stroke="#000000" stroke-opacity="1" stroke-width="3.2"/>
<circle clip-path="url(#clip962)" cx="1932.13" cy="453.388" r="14.4" fill="#009af9" fill-rule="evenodd" fill-opacity="1" stroke="#000000" stroke-opacity="1" stroke-width="3.2"/>
<circle clip-path="url(#clip962)" cx="1393.82" cy="761.719" r="14.4" fill="#009af9" fill-rule="evenodd" fill-opacity="1" stroke="#000000" stroke-opacity="1" stroke-width="3.2"/>
<circle clip-path="url(#clip962)" cx="1977.82" cy="566.051" r="14.4" fill="#009af9" fill-rule="evenodd" fill-opacity="1" stroke="#000000" stroke-opacity="1" stroke-width="3.2"/>
<circle clip-path="url(#clip962)" cx="1259.06" cy="538.319" r="14.4" fill="#009af9" fill-rule="evenodd" fill-opacity="1" stroke="#000000" stroke-opacity="1" stroke-width="3.2"/>
<circle clip-path="url(#clip962)" cx="1417.02" cy="1251.33" r="14.4" fill="#009af9" fill-rule="evenodd" fill-opacity="1" stroke="#000000" stroke-opacity="1" stroke-width="3.2"/>
<circle clip-path="url(#clip962)" cx="1923.94" cy="457.694" r="14.4" fill="#009af9" fill-rule="evenodd" fill-opacity="1" stroke="#000000" stroke-opacity="1" stroke-width="3.2"/>
<circle clip-path="url(#clip962)" cx="515.219" cy="329.904" r="14.4" fill="#009af9" fill-rule="evenodd" fill-opacity="1" stroke="#000000" stroke-opacity="1" stroke-width="3.2"/>
<circle clip-path="url(#clip962)" cx="1935.06" cy="526.352" r="14.4" fill="#009af9" fill-rule="evenodd" fill-opacity="1" stroke="#000000" stroke-opacity="1" stroke-width="3.2"/>
<circle clip-path="url(#clip962)" cx="1702.17" cy="259.068" r="14.4" fill="#009af9" fill-rule="evenodd" fill-opacity="1" stroke="#000000" stroke-opacity="1" stroke-width="3.2"/>
<circle clip-path="url(#clip962)" cx="1686.26" cy="262.496" r="14.4" fill="#009af9" fill-rule="evenodd" fill-opacity="1" stroke="#000000" stroke-opacity="1" stroke-width="3.2"/>
<circle clip-path="url(#clip962)" cx="1932.02" cy="467.697" r="14.4" fill="#009af9" fill-rule="evenodd" fill-opacity="1" stroke="#000000" stroke-opacity="1" stroke-width="3.2"/>
<circle clip-path="url(#clip962)" cx="1734.91" cy="813.728" r="14.4" fill="#009af9" fill-rule="evenodd" fill-opacity="1" stroke="#000000" stroke-opacity="1" stroke-width="3.2"/>
<circle clip-path="url(#clip962)" cx="1422.71" cy="780.384" r="14.4" fill="#009af9" fill-rule="evenodd" fill-opacity="1" stroke="#000000" stroke-opacity="1" stroke-width="3.2"/>
<circle clip-path="url(#clip962)" cx="1268.75" cy="513.327" r="14.4" fill="#009af9" fill-rule="evenodd" fill-opacity="1" stroke="#000000" stroke-opacity="1" stroke-width="3.2"/>
<circle clip-path="url(#clip962)" cx="1152.79" cy="695.088" r="14.4" fill="#009af9" fill-rule="evenodd" fill-opacity="1" stroke="#000000" stroke-opacity="1" stroke-width="3.2"/>
<circle clip-path="url(#clip962)" cx="1578.57" cy="1097.85" r="14.4" fill="#009af9" fill-rule="evenodd" fill-opacity="1" stroke="#000000" stroke-opacity="1" stroke-width="3.2"/>
<circle clip-path="url(#clip962)" cx="1520.4" cy="643.881" r="14.4" fill="#009af9" fill-rule="evenodd" fill-opacity="1" stroke="#000000" stroke-opacity="1" stroke-width="3.2"/>
<circle clip-path="url(#clip962)" cx="1864.17" cy="581.077" r="14.4" fill="#009af9" fill-rule="evenodd" fill-opacity="1" stroke="#000000" stroke-opacity="1" stroke-width="3.2"/>
<circle clip-path="url(#clip962)" cx="949.888" cy="725.263" r="14.4" fill="#009af9" fill-rule="evenodd" fill-opacity="1" stroke="#000000" stroke-opacity="1" stroke-width="3.2"/>
<circle clip-path="url(#clip962)" cx="974.596" cy="1002.56" r="14.4" fill="#009af9" fill-rule="evenodd" fill-opacity="1" stroke="#000000" stroke-opacity="1" stroke-width="3.2"/>
<circle clip-path="url(#clip962)" cx="1540.35" cy="648.304" r="14.4" fill="#009af9" fill-rule="evenodd" fill-opacity="1" stroke="#000000" stroke-opacity="1" stroke-width="3.2"/>
<circle clip-path="url(#clip962)" cx="1592.17" cy="610.893" r="14.4" fill="#009af9" fill-rule="evenodd" fill-opacity="1" stroke="#000000" stroke-opacity="1" stroke-width="3.2"/>
<circle clip-path="url(#clip962)" cx="1693.03" cy="784.457" r="14.4" fill="#009af9" fill-rule="evenodd" fill-opacity="1" stroke="#000000" stroke-opacity="1" stroke-width="3.2"/>
<circle clip-path="url(#clip962)" cx="1549.23" cy="652.522" r="14.4" fill="#009af9" fill-rule="evenodd" fill-opacity="1" stroke="#000000" stroke-opacity="1" stroke-width="3.2"/>
<circle clip-path="url(#clip962)" cx="1639.13" cy="1095.07" r="14.4" fill="#009af9" fill-rule="evenodd" fill-opacity="1" stroke="#000000" stroke-opacity="1" stroke-width="3.2"/>
<circle clip-path="url(#clip962)" cx="1091.83" cy="282.3" r="14.4" fill="#009af9" fill-rule="evenodd" fill-opacity="1" stroke="#000000" stroke-opacity="1" stroke-width="3.2"/>
<circle clip-path="url(#clip962)" cx="1405.96" cy="755.265" r="14.4" fill="#009af9" fill-rule="evenodd" fill-opacity="1" stroke="#000000" stroke-opacity="1" stroke-width="3.2"/>
<circle clip-path="url(#clip962)" cx="1427.13" cy="750.429" r="14.4" fill="#009af9" fill-rule="evenodd" fill-opacity="1" stroke="#000000" stroke-opacity="1" stroke-width="3.2"/>
<circle clip-path="url(#clip962)" cx="608.741" cy="305.019" r="14.4" fill="#009af9" fill-rule="evenodd" fill-opacity="1" stroke="#000000" stroke-opacity="1" stroke-width="3.2"/>
<circle clip-path="url(#clip962)" cx="1181.61" cy="425.749" r="14.4" fill="#009af9" fill-rule="evenodd" fill-opacity="1" stroke="#000000" stroke-opacity="1" stroke-width="3.2"/>
<circle clip-path="url(#clip962)" cx="901.8" cy="809.062" r="14.4" fill="#009af9" fill-rule="evenodd" fill-opacity="1" stroke="#000000" stroke-opacity="1" stroke-width="3.2"/>
<circle clip-path="url(#clip962)" cx="425.411" cy="336.611" r="14.4" fill="#009af9" fill-rule="evenodd" fill-opacity="1" stroke="#000000" stroke-opacity="1" stroke-width="3.2"/>
<circle clip-path="url(#clip962)" cx="1262.42" cy="352.082" r="14.4" fill="#009af9" fill-rule="evenodd" fill-opacity="1" stroke="#000000" stroke-opacity="1" stroke-width="3.2"/>
<circle clip-path="url(#clip962)" cx="1395.7" cy="764.573" r="14.4" fill="#009af9" fill-rule="evenodd" fill-opacity="1" stroke="#000000" stroke-opacity="1" stroke-width="3.2"/>
<circle clip-path="url(#clip962)" cx="1543.61" cy="687.572" r="14.4" fill="#009af9" fill-rule="evenodd" fill-opacity="1" stroke="#000000" stroke-opacity="1" stroke-width="3.2"/>
<circle clip-path="url(#clip962)" cx="878.165" cy="518.872" r="14.4" fill="#009af9" fill-rule="evenodd" fill-opacity="1" stroke="#000000" stroke-opacity="1" stroke-width="3.2"/>
<circle clip-path="url(#clip962)" cx="1121.27" cy="483.47" r="14.4" fill="#009af9" fill-rule="evenodd" fill-opacity="1" stroke="#000000" stroke-opacity="1" stroke-width="3.2"/>
<circle clip-path="url(#clip962)" cx="1169.99" cy="434.4" r="14.4" fill="#009af9" fill-rule="evenodd" fill-opacity="1" stroke="#000000" stroke-opacity="1" stroke-width="3.2"/>
<circle clip-path="url(#clip962)" cx="1884.53" cy="491.699" r="14.4" fill="#009af9" fill-rule="evenodd" fill-opacity="1" stroke="#000000" stroke-opacity="1" stroke-width="3.2"/>
<circle clip-path="url(#clip962)" cx="1264.8" cy="518.431" r="14.4" fill="#009af9" fill-rule="evenodd" fill-opacity="1" stroke="#000000" stroke-opacity="1" stroke-width="3.2"/>
<circle clip-path="url(#clip962)" cx="1256.46" cy="545.969" r="14.4" fill="#009af9" fill-rule="evenodd" fill-opacity="1" stroke="#000000" stroke-opacity="1" stroke-width="3.2"/>
<circle clip-path="url(#clip962)" cx="1408.78" cy="785.089" r="14.4" fill="#009af9" fill-rule="evenodd" fill-opacity="1" stroke="#000000" stroke-opacity="1" stroke-width="3.2"/>
<circle clip-path="url(#clip962)" cx="1423.86" cy="739.951" r="14.4" fill="#009af9" fill-rule="evenodd" fill-opacity="1" stroke="#000000" stroke-opacity="1" stroke-width="3.2"/>
<circle clip-path="url(#clip962)" cx="1686.75" cy="1001.37" r="14.4" fill="#009af9" fill-rule="evenodd" fill-opacity="1" stroke="#000000" stroke-opacity="1" stroke-width="3.2"/>
<circle clip-path="url(#clip962)" cx="717.212" cy="539.279" r="14.4" fill="#009af9" fill-rule="evenodd" fill-opacity="1" stroke="#000000" stroke-opacity="1" stroke-width="3.2"/>
<circle clip-path="url(#clip962)" cx="1743.27" cy="737.2" r="14.4" fill="#009af9" fill-rule="evenodd" fill-opacity="1" stroke="#000000" stroke-opacity="1" stroke-width="3.2"/>
<circle clip-path="url(#clip962)" cx="1715.93" cy="510.298" r="14.4" fill="#009af9" fill-rule="evenodd" fill-opacity="1" stroke="#000000" stroke-opacity="1" stroke-width="3.2"/>
<circle clip-path="url(#clip962)" cx="1859.37" cy="504.256" r="14.4" fill="#009af9" fill-rule="evenodd" fill-opacity="1" stroke="#000000" stroke-opacity="1" stroke-width="3.2"/>
<circle clip-path="url(#clip962)" cx="940.771" cy="467.737" r="14.4" fill="#009af9" fill-rule="evenodd" fill-opacity="1" stroke="#000000" stroke-opacity="1" stroke-width="3.2"/>
<circle clip-path="url(#clip962)" cx="1793.89" cy="339.581" r="14.4" fill="#009af9" fill-rule="evenodd" fill-opacity="1" stroke="#000000" stroke-opacity="1" stroke-width="3.2"/>
<circle clip-path="url(#clip962)" cx="1305.16" cy="402.806" r="14.4" fill="#009af9" fill-rule="evenodd" fill-opacity="1" stroke="#000000" stroke-opacity="1" stroke-width="3.2"/>
<circle clip-path="url(#clip962)" cx="2052.07" cy="615.413" r="14.4" fill="#009af9" fill-rule="evenodd" fill-opacity="1" stroke="#000000" stroke-opacity="1" stroke-width="3.2"/>
<circle clip-path="url(#clip962)" cx="713.034" cy="425.369" r="14.4" fill="#009af9" fill-rule="evenodd" fill-opacity="1" stroke="#000000" stroke-opacity="1" stroke-width="3.2"/>
<circle clip-path="url(#clip962)" cx="2084.56" cy="502.285" r="14.4" fill="#009af9" fill-rule="evenodd" fill-opacity="1" stroke="#000000" stroke-opacity="1" stroke-width="3.2"/>
<circle clip-path="url(#clip962)" cx="1721.85" cy="262.813" r="14.4" fill="#009af9" fill-rule="evenodd" fill-opacity="1" stroke="#000000" stroke-opacity="1" stroke-width="3.2"/>
<circle clip-path="url(#clip962)" cx="1726.88" cy="1343.02" r="14.4" fill="#009af9" fill-rule="evenodd" fill-opacity="1" stroke="#000000" stroke-opacity="1" stroke-width="3.2"/>
<circle clip-path="url(#clip962)" cx="1040.41" cy="322.615" r="14.4" fill="#009af9" fill-rule="evenodd" fill-opacity="1" stroke="#000000" stroke-opacity="1" stroke-width="3.2"/>
<circle clip-path="url(#clip962)" cx="731.483" cy="532.454" r="14.4" fill="#009af9" fill-rule="evenodd" fill-opacity="1" stroke="#000000" stroke-opacity="1" stroke-width="3.2"/>
<circle clip-path="url(#clip962)" cx="1008.11" cy="182.374" r="14.4" fill="#009af9" fill-rule="evenodd" fill-opacity="1" stroke="#000000" stroke-opacity="1" stroke-width="3.2"/>
<circle clip-path="url(#clip962)" cx="1707.8" cy="272.078" r="14.4" fill="#009af9" fill-rule="evenodd" fill-opacity="1" stroke="#000000" stroke-opacity="1" stroke-width="3.2"/>
<circle clip-path="url(#clip962)" cx="1149.17" cy="370.541" r="14.4" fill="#009af9" fill-rule="evenodd" fill-opacity="1" stroke="#000000" stroke-opacity="1" stroke-width="3.2"/>
<circle clip-path="url(#clip962)" cx="866.782" cy="709.022" r="14.4" fill="#009af9" fill-rule="evenodd" fill-opacity="1" stroke="#000000" stroke-opacity="1" stroke-width="3.2"/>
<circle clip-path="url(#clip962)" cx="570.851" cy="697.579" r="14.4" fill="#009af9" fill-rule="evenodd" fill-opacity="1" stroke="#000000" stroke-opacity="1" stroke-width="3.2"/>
<circle clip-path="url(#clip962)" cx="934.711" cy="803.514" r="14.4" fill="#009af9" fill-rule="evenodd" fill-opacity="1" stroke="#000000" stroke-opacity="1" stroke-width="3.2"/>
<circle clip-path="url(#clip962)" cx="722.998" cy="514.381" r="14.4" fill="#009af9" fill-rule="evenodd" fill-opacity="1" stroke="#000000" stroke-opacity="1" stroke-width="3.2"/>
<circle clip-path="url(#clip962)" cx="1064.67" cy="970.367" r="14.4" fill="#009af9" fill-rule="evenodd" fill-opacity="1" stroke="#000000" stroke-opacity="1" stroke-width="3.2"/>
<circle clip-path="url(#clip962)" cx="1731.71" cy="933.897" r="14.4" fill="#009af9" fill-rule="evenodd" fill-opacity="1" stroke="#000000" stroke-opacity="1" stroke-width="3.2"/>
<circle clip-path="url(#clip962)" cx="1668.47" cy="725.429" r="14.4" fill="#009af9" fill-rule="evenodd" fill-opacity="1" stroke="#000000" stroke-opacity="1" stroke-width="3.2"/>
<circle clip-path="url(#clip962)" cx="1276.38" cy="982.798" r="14.4" fill="#009af9" fill-rule="evenodd" fill-opacity="1" stroke="#000000" stroke-opacity="1" stroke-width="3.2"/>
<circle clip-path="url(#clip962)" cx="1525.07" cy="650.943" r="14.4" fill="#009af9" fill-rule="evenodd" fill-opacity="1" stroke="#000000" stroke-opacity="1" stroke-width="3.2"/>
<circle clip-path="url(#clip962)" cx="1709.18" cy="625.914" r="14.4" fill="#009af9" fill-rule="evenodd" fill-opacity="1" stroke="#000000" stroke-opacity="1" stroke-width="3.2"/>
<circle clip-path="url(#clip962)" cx="1878.98" cy="501.416" r="14.4" fill="#009af9" fill-rule="evenodd" fill-opacity="1" stroke="#000000" stroke-opacity="1" stroke-width="3.2"/>
<circle clip-path="url(#clip962)" cx="2011.56" cy="706.873" r="14.4" fill="#009af9" fill-rule="evenodd" fill-opacity="1" stroke="#000000" stroke-opacity="1" stroke-width="3.2"/>
<circle clip-path="url(#clip962)" cx="1484.08" cy="87.9763" r="14.4" fill="#009af9" fill-rule="evenodd" fill-opacity="1" stroke="#000000" stroke-opacity="1" stroke-width="3.2"/>
<circle clip-path="url(#clip962)" cx="1112.41" cy="1002.77" r="14.4" fill="#009af9" fill-rule="evenodd" fill-opacity="1" stroke="#000000" stroke-opacity="1" stroke-width="3.2"/>
<circle clip-path="url(#clip962)" cx="1256.68" cy="519.449" r="14.4" fill="#009af9" fill-rule="evenodd" fill-opacity="1" stroke="#000000" stroke-opacity="1" stroke-width="3.2"/>
<circle clip-path="url(#clip962)" cx="1599.78" cy="559.449" r="14.4" fill="#009af9" fill-rule="evenodd" fill-opacity="1" stroke="#000000" stroke-opacity="1" stroke-width="3.2"/>
<circle clip-path="url(#clip962)" cx="1454.88" cy="511.902" r="14.4" fill="#009af9" fill-rule="evenodd" fill-opacity="1" stroke="#000000" stroke-opacity="1" stroke-width="3.2"/>
<circle clip-path="url(#clip962)" cx="1529.39" cy="650.484" r="14.4" fill="#009af9" fill-rule="evenodd" fill-opacity="1" stroke="#000000" stroke-opacity="1" stroke-width="3.2"/>
<circle clip-path="url(#clip962)" cx="1817.01" cy="1240.19" r="14.4" fill="#009af9" fill-rule="evenodd" fill-opacity="1" stroke="#000000" stroke-opacity="1" stroke-width="3.2"/>
<circle clip-path="url(#clip962)" cx="1462.04" cy="1041.41" r="14.4" fill="#009af9" fill-rule="evenodd" fill-opacity="1" stroke="#000000" stroke-opacity="1" stroke-width="3.2"/>
<circle clip-path="url(#clip962)" cx="1369.53" cy="1022.96" r="14.4" fill="#009af9" fill-rule="evenodd" fill-opacity="1" stroke="#000000" stroke-opacity="1" stroke-width="3.2"/>
<circle clip-path="url(#clip962)" cx="1676.49" cy="1032.41" r="14.4" fill="#009af9" fill-rule="evenodd" fill-opacity="1" stroke="#000000" stroke-opacity="1" stroke-width="3.2"/>
<circle clip-path="url(#clip962)" cx="1555.8" cy="1082" r="14.4" fill="#009af9" fill-rule="evenodd" fill-opacity="1" stroke="#000000" stroke-opacity="1" stroke-width="3.2"/>
<circle clip-path="url(#clip962)" cx="1044.64" cy="182.825" r="14.4" fill="#009af9" fill-rule="evenodd" fill-opacity="1" stroke="#000000" stroke-opacity="1" stroke-width="3.2"/>
<circle clip-path="url(#clip962)" cx="744.419" cy="671.275" r="14.4" fill="#009af9" fill-rule="evenodd" fill-opacity="1" stroke="#000000" stroke-opacity="1" stroke-width="3.2"/>
<circle clip-path="url(#clip962)" cx="1944.06" cy="457.864" r="14.4" fill="#009af9" fill-rule="evenodd" fill-opacity="1" stroke="#000000" stroke-opacity="1" stroke-width="3.2"/>
<circle clip-path="url(#clip962)" cx="1407.83" cy="751.075" r="14.4" fill="#009af9" fill-rule="evenodd" fill-opacity="1" stroke="#000000" stroke-opacity="1" stroke-width="3.2"/>
<circle clip-path="url(#clip962)" cx="768.766" cy="255.271" r="14.4" fill="#009af9" fill-rule="evenodd" fill-opacity="1" stroke="#000000" stroke-opacity="1" stroke-width="3.2"/>
<circle clip-path="url(#clip962)" cx="1899.21" cy="694.541" r="14.4" fill="#009af9" fill-rule="evenodd" fill-opacity="1" stroke="#000000" stroke-opacity="1" stroke-width="3.2"/>
<circle clip-path="url(#clip962)" cx="1873.82" cy="428.957" r="14.4" fill="#009af9" fill-rule="evenodd" fill-opacity="1" stroke="#000000" stroke-opacity="1" stroke-width="3.2"/>
<circle clip-path="url(#clip962)" cx="1401.46" cy="750.871" r="14.4" fill="#009af9" fill-rule="evenodd" fill-opacity="1" stroke="#000000" stroke-opacity="1" stroke-width="3.2"/>
<circle clip-path="url(#clip962)" cx="1293.12" cy="1203.43" r="14.4" fill="#009af9" fill-rule="evenodd" fill-opacity="1" stroke="#000000" stroke-opacity="1" stroke-width="3.2"/>
<circle clip-path="url(#clip962)" cx="1358.56" cy="1035.18" r="14.4" fill="#009af9" fill-rule="evenodd" fill-opacity="1" stroke="#000000" stroke-opacity="1" stroke-width="3.2"/>
<circle clip-path="url(#clip962)" cx="1211.22" cy="634.79" r="14.4" fill="#009af9" fill-rule="evenodd" fill-opacity="1" stroke="#000000" stroke-opacity="1" stroke-width="3.2"/>
<circle clip-path="url(#clip962)" cx="1420.5" cy="770.364" r="14.4" fill="#009af9" fill-rule="evenodd" fill-opacity="1" stroke="#000000" stroke-opacity="1" stroke-width="3.2"/>
<circle clip-path="url(#clip962)" cx="1460.24" cy="589.483" r="14.4" fill="#009af9" fill-rule="evenodd" fill-opacity="1" stroke="#000000" stroke-opacity="1" stroke-width="3.2"/>
<circle clip-path="url(#clip962)" cx="2292.48" cy="367.804" r="14.4" fill="#009af9" fill-rule="evenodd" fill-opacity="1" stroke="#000000" stroke-opacity="1" stroke-width="3.2"/>
<circle clip-path="url(#clip962)" cx="1525.38" cy="645.75" r="14.4" fill="#009af9" fill-rule="evenodd" fill-opacity="1" stroke="#000000" stroke-opacity="1" stroke-width="3.2"/>
<circle clip-path="url(#clip962)" cx="1265.5" cy="519.249" r="14.4" fill="#009af9" fill-rule="evenodd" fill-opacity="1" stroke="#000000" stroke-opacity="1" stroke-width="3.2"/>
<circle clip-path="url(#clip962)" cx="1937.32" cy="451.689" r="14.4" fill="#009af9" fill-rule="evenodd" fill-opacity="1" stroke="#000000" stroke-opacity="1" stroke-width="3.2"/>
<circle clip-path="url(#clip962)" cx="1720.34" cy="772.765" r="14.4" fill="#009af9" fill-rule="evenodd" fill-opacity="1" stroke="#000000" stroke-opacity="1" stroke-width="3.2"/>
<circle clip-path="url(#clip962)" cx="1554.43" cy="1103.04" r="14.4" fill="#009af9" fill-rule="evenodd" fill-opacity="1" stroke="#000000" stroke-opacity="1" stroke-width="3.2"/>
<circle clip-path="url(#clip962)" cx="1471.4" cy="1327.28" r="14.4" fill="#009af9" fill-rule="evenodd" fill-opacity="1" stroke="#000000" stroke-opacity="1" stroke-width="3.2"/>
<circle clip-path="url(#clip962)" cx="869.335" cy="457.667" r="14.4" fill="#009af9" fill-rule="evenodd" fill-opacity="1" stroke="#000000" stroke-opacity="1" stroke-width="3.2"/>
<circle clip-path="url(#clip962)" cx="460.942" cy="611.162" r="14.4" fill="#009af9" fill-rule="evenodd" fill-opacity="1" stroke="#000000" stroke-opacity="1" stroke-width="3.2"/>
<circle clip-path="url(#clip962)" cx="697.688" cy="512.388" r="14.4" fill="#009af9" fill-rule="evenodd" fill-opacity="1" stroke="#000000" stroke-opacity="1" stroke-width="3.2"/>
<circle clip-path="url(#clip962)" cx="1351.73" cy="1031.26" r="14.4" fill="#009af9" fill-rule="evenodd" fill-opacity="1" stroke="#000000" stroke-opacity="1" stroke-width="3.2"/>
<circle clip-path="url(#clip962)" cx="1384.95" cy="1038.34" r="14.4" fill="#009af9" fill-rule="evenodd" fill-opacity="1" stroke="#000000" stroke-opacity="1" stroke-width="3.2"/>
<circle clip-path="url(#clip962)" cx="659.965" cy="737.386" r="14.4" fill="#009af9" fill-rule="evenodd" fill-opacity="1" stroke="#000000" stroke-opacity="1" stroke-width="3.2"/>
<circle clip-path="url(#clip962)" cx="727.988" cy="515.897" r="14.4" fill="#009af9" fill-rule="evenodd" fill-opacity="1" stroke="#000000" stroke-opacity="1" stroke-width="3.2"/>
<circle clip-path="url(#clip962)" cx="1665.27" cy="952.057" r="14.4" fill="#009af9" fill-rule="evenodd" fill-opacity="1" stroke="#000000" stroke-opacity="1" stroke-width="3.2"/>
<circle clip-path="url(#clip962)" cx="752.649" cy="668.758" r="14.4" fill="#009af9" fill-rule="evenodd" fill-opacity="1" stroke="#000000" stroke-opacity="1" stroke-width="3.2"/>
<circle clip-path="url(#clip962)" cx="1706.82" cy="267.615" r="14.4" fill="#009af9" fill-rule="evenodd" fill-opacity="1" stroke="#000000" stroke-opacity="1" stroke-width="3.2"/>
<circle clip-path="url(#clip962)" cx="743.121" cy="673.826" r="14.4" fill="#009af9" fill-rule="evenodd" fill-opacity="1" stroke="#000000" stroke-opacity="1" stroke-width="3.2"/>
<circle clip-path="url(#clip962)" cx="719.173" cy="311.135" r="14.4" fill="#009af9" fill-rule="evenodd" fill-opacity="1" stroke="#000000" stroke-opacity="1" stroke-width="3.2"/>
<circle clip-path="url(#clip962)" cx="723.31" cy="519.736" r="14.4" fill="#009af9" fill-rule="evenodd" fill-opacity="1" stroke="#000000" stroke-opacity="1" stroke-width="3.2"/>
<circle clip-path="url(#clip962)" cx="1983.13" cy="619.797" r="14.4" fill="#009af9" fill-rule="evenodd" fill-opacity="1" stroke="#000000" stroke-opacity="1" stroke-width="3.2"/>
<circle clip-path="url(#clip962)" cx="1742.03" cy="296.235" r="14.4" fill="#009af9" fill-rule="evenodd" fill-opacity="1" stroke="#000000" stroke-opacity="1" stroke-width="3.2"/>
<circle clip-path="url(#clip962)" cx="2226.13" cy="880.445" r="14.4" fill="#009af9" fill-rule="evenodd" fill-opacity="1" stroke="#000000" stroke-opacity="1" stroke-width="3.2"/>
<circle clip-path="url(#clip962)" cx="1346.45" cy="876.917" r="14.4" fill="#009af9" fill-rule="evenodd" fill-opacity="1" stroke="#000000" stroke-opacity="1" stroke-width="3.2"/>
<circle clip-path="url(#clip962)" cx="1492.8" cy="1056.32" r="14.4" fill="#009af9" fill-rule="evenodd" fill-opacity="1" stroke="#000000" stroke-opacity="1" stroke-width="3.2"/>
<circle clip-path="url(#clip962)" cx="738.901" cy="668.903" r="14.4" fill="#009af9" fill-rule="evenodd" fill-opacity="1" stroke="#000000" stroke-opacity="1" stroke-width="3.2"/>
<circle clip-path="url(#clip962)" cx="1166.92" cy="895.819" r="14.4" fill="#009af9" fill-rule="evenodd" fill-opacity="1" stroke="#000000" stroke-opacity="1" stroke-width="3.2"/>
<circle clip-path="url(#clip962)" cx="1527.3" cy="631.755" r="14.4" fill="#009af9" fill-rule="evenodd" fill-opacity="1" stroke="#000000" stroke-opacity="1" stroke-width="3.2"/>
<circle clip-path="url(#clip962)" cx="1933.83" cy="463.081" r="14.4" fill="#009af9" fill-rule="evenodd" fill-opacity="1" stroke="#000000" stroke-opacity="1" stroke-width="3.2"/>
<circle clip-path="url(#clip962)" cx="1274.24" cy="533.422" r="14.4" fill="#009af9" fill-rule="evenodd" fill-opacity="1" stroke="#000000" stroke-opacity="1" stroke-width="3.2"/>
<circle clip-path="url(#clip962)" cx="1387.03" cy="754.165" r="14.4" fill="#009af9" fill-rule="evenodd" fill-opacity="1" stroke="#000000" stroke-opacity="1" stroke-width="3.2"/>
<circle clip-path="url(#clip962)" cx="733.339" cy="675.091" r="14.4" fill="#009af9" fill-rule="evenodd" fill-opacity="1" stroke="#000000" stroke-opacity="1" stroke-width="3.2"/>
<circle clip-path="url(#clip962)" cx="735.759" cy="672.44" r="14.4" fill="#009af9" fill-rule="evenodd" fill-opacity="1" stroke="#000000" stroke-opacity="1" stroke-width="3.2"/>
<circle clip-path="url(#clip962)" cx="948.586" cy="589.029" r="14.4" fill="#009af9" fill-rule="evenodd" fill-opacity="1" stroke="#000000" stroke-opacity="1" stroke-width="3.2"/>
<circle clip-path="url(#clip962)" cx="771.322" cy="679.216" r="14.4" fill="#009af9" fill-rule="evenodd" fill-opacity="1" stroke="#000000" stroke-opacity="1" stroke-width="3.2"/>
<circle clip-path="url(#clip962)" cx="1278.5" cy="523.174" r="14.4" fill="#009af9" fill-rule="evenodd" fill-opacity="1" stroke="#000000" stroke-opacity="1" stroke-width="3.2"/>
<circle clip-path="url(#clip962)" cx="1945.93" cy="449.92" r="14.4" fill="#009af9" fill-rule="evenodd" fill-opacity="1" stroke="#000000" stroke-opacity="1" stroke-width="3.2"/>
<circle clip-path="url(#clip962)" cx="640.498" cy="433.412" r="14.4" fill="#009af9" fill-rule="evenodd" fill-opacity="1" stroke="#000000" stroke-opacity="1" stroke-width="3.2"/>
<circle clip-path="url(#clip962)" cx="705.345" cy="522.375" r="14.4" fill="#009af9" fill-rule="evenodd" fill-opacity="1" stroke="#000000" stroke-opacity="1" stroke-width="3.2"/>
<circle clip-path="url(#clip962)" cx="943.727" cy="852.735" r="14.4" fill="#009af9" fill-rule="evenodd" fill-opacity="1" stroke="#000000" stroke-opacity="1" stroke-width="3.2"/>
<circle clip-path="url(#clip962)" cx="1396.08" cy="741.718" r="14.4" fill="#009af9" fill-rule="evenodd" fill-opacity="1" stroke="#000000" stroke-opacity="1" stroke-width="3.2"/>
<circle clip-path="url(#clip962)" cx="714.559" cy="525.995" r="14.4" fill="#009af9" fill-rule="evenodd" fill-opacity="1" stroke="#000000" stroke-opacity="1" stroke-width="3.2"/>
<circle clip-path="url(#clip962)" cx="1216.17" cy="701.925" r="14.4" fill="#009af9" fill-rule="evenodd" fill-opacity="1" stroke="#000000" stroke-opacity="1" stroke-width="3.2"/>
<circle clip-path="url(#clip962)" cx="1227.36" cy="974.832" r="14.4" fill="#009af9" fill-rule="evenodd" fill-opacity="1" stroke="#000000" stroke-opacity="1" stroke-width="3.2"/>
<circle clip-path="url(#clip962)" cx="1417.9" cy="742.563" r="14.4" fill="#009af9" fill-rule="evenodd" fill-opacity="1" stroke="#000000" stroke-opacity="1" stroke-width="3.2"/>
<circle clip-path="url(#clip962)" cx="1941.25" cy="475.668" r="14.4" fill="#009af9" fill-rule="evenodd" fill-opacity="1" stroke="#000000" stroke-opacity="1" stroke-width="3.2"/>
<circle clip-path="url(#clip962)" cx="1418.29" cy="754.202" r="14.4" fill="#009af9" fill-rule="evenodd" fill-opacity="1" stroke="#000000" stroke-opacity="1" stroke-width="3.2"/>
<circle clip-path="url(#clip962)" cx="730.946" cy="415.468" r="14.4" fill="#009af9" fill-rule="evenodd" fill-opacity="1" stroke="#000000" stroke-opacity="1" stroke-width="3.2"/>
<circle clip-path="url(#clip962)" cx="2116.21" cy="516.398" r="14.4" fill="#009af9" fill-rule="evenodd" fill-opacity="1" stroke="#000000" stroke-opacity="1" stroke-width="3.2"/>
<circle clip-path="url(#clip962)" cx="1942.89" cy="466.446" r="14.4" fill="#009af9" fill-rule="evenodd" fill-opacity="1" stroke="#000000" stroke-opacity="1" stroke-width="3.2"/>
<circle clip-path="url(#clip962)" cx="1717.71" cy="379.647" r="14.4" fill="#009af9" fill-rule="evenodd" fill-opacity="1" stroke="#000000" stroke-opacity="1" stroke-width="3.2"/>
<circle clip-path="url(#clip962)" cx="1697.95" cy="275.984" r="14.4" fill="#009af9" fill-rule="evenodd" fill-opacity="1" stroke="#000000" stroke-opacity="1" stroke-width="3.2"/>
<circle clip-path="url(#clip962)" cx="1765.27" cy="613.852" r="14.4" fill="#009af9" fill-rule="evenodd" fill-opacity="1" stroke="#000000" stroke-opacity="1" stroke-width="3.2"/>
<circle clip-path="url(#clip962)" cx="1711.47" cy="270.53" r="14.4" fill="#009af9" fill-rule="evenodd" fill-opacity="1" stroke="#000000" stroke-opacity="1" stroke-width="3.2"/>
<circle clip-path="url(#clip962)" cx="1580.79" cy="1119.24" r="14.4" fill="#009af9" fill-rule="evenodd" fill-opacity="1" stroke="#000000" stroke-opacity="1" stroke-width="3.2"/>
<circle clip-path="url(#clip962)" cx="740.7" cy="683.44" r="14.4" fill="#009af9" fill-rule="evenodd" fill-opacity="1" stroke="#000000" stroke-opacity="1" stroke-width="3.2"/>
<circle clip-path="url(#clip962)" cx="1526.98" cy="653.914" r="14.4" fill="#009af9" fill-rule="evenodd" fill-opacity="1" stroke="#000000" stroke-opacity="1" stroke-width="3.2"/>
<circle clip-path="url(#clip962)" cx="1288.6" cy="937.858" r="14.4" fill="#009af9" fill-rule="evenodd" fill-opacity="1" stroke="#000000" stroke-opacity="1" stroke-width="3.2"/>
<circle clip-path="url(#clip962)" cx="1917.34" cy="764.278" r="14.4" fill="#009af9" fill-rule="evenodd" fill-opacity="1" stroke="#000000" stroke-opacity="1" stroke-width="3.2"/>
<circle clip-path="url(#clip962)" cx="1395.52" cy="759.228" r="14.4" fill="#009af9" fill-rule="evenodd" fill-opacity="1" stroke="#000000" stroke-opacity="1" stroke-width="3.2"/>
<circle clip-path="url(#clip962)" cx="1835.48" cy="621.743" r="14.4" fill="#009af9" fill-rule="evenodd" fill-opacity="1" stroke="#000000" stroke-opacity="1" stroke-width="3.2"/>
<circle clip-path="url(#clip962)" cx="2279.19" cy="582.858" r="14.4" fill="#009af9" fill-rule="evenodd" fill-opacity="1" stroke="#000000" stroke-opacity="1" stroke-width="3.2"/>
<circle clip-path="url(#clip962)" cx="2145.18" cy="380.732" r="14.4" fill="#009af9" fill-rule="evenodd" fill-opacity="1" stroke="#000000" stroke-opacity="1" stroke-width="3.2"/>
<circle clip-path="url(#clip962)" cx="657.771" cy="732.452" r="14.4" fill="#009af9" fill-rule="evenodd" fill-opacity="1" stroke="#000000" stroke-opacity="1" stroke-width="3.2"/>
<circle clip-path="url(#clip962)" cx="1260.44" cy="516.454" r="14.4" fill="#009af9" fill-rule="evenodd" fill-opacity="1" stroke="#000000" stroke-opacity="1" stroke-width="3.2"/>
<circle clip-path="url(#clip962)" cx="1545.56" cy="1104.8" r="14.4" fill="#009af9" fill-rule="evenodd" fill-opacity="1" stroke="#000000" stroke-opacity="1" stroke-width="3.2"/>
<circle clip-path="url(#clip962)" cx="1684.22" cy="275.139" r="14.4" fill="#009af9" fill-rule="evenodd" fill-opacity="1" stroke="#000000" stroke-opacity="1" stroke-width="3.2"/>
<circle clip-path="url(#clip962)" cx="1549.97" cy="1102.99" r="14.4" fill="#009af9" fill-rule="evenodd" fill-opacity="1" stroke="#000000" stroke-opacity="1" stroke-width="3.2"/>
<circle clip-path="url(#clip962)" cx="1849.3" cy="229.577" r="14.4" fill="#009af9" fill-rule="evenodd" fill-opacity="1" stroke="#000000" stroke-opacity="1" stroke-width="3.2"/>
<circle clip-path="url(#clip962)" cx="875.158" cy="571.467" r="14.4" fill="#009af9" fill-rule="evenodd" fill-opacity="1" stroke="#000000" stroke-opacity="1" stroke-width="3.2"/>
<circle clip-path="url(#clip962)" cx="1396.53" cy="763.467" r="14.4" fill="#009af9" fill-rule="evenodd" fill-opacity="1" stroke="#000000" stroke-opacity="1" stroke-width="3.2"/>
<circle clip-path="url(#clip962)" cx="1420.07" cy="756.151" r="14.4" fill="#009af9" fill-rule="evenodd" fill-opacity="1" stroke="#000000" stroke-opacity="1" stroke-width="3.2"/>
<circle clip-path="url(#clip962)" cx="1758.68" cy="1445.72" r="14.4" fill="#009af9" fill-rule="evenodd" fill-opacity="1" stroke="#000000" stroke-opacity="1" stroke-width="3.2"/>
<circle clip-path="url(#clip962)" cx="1268.39" cy="504.129" r="14.4" fill="#009af9" fill-rule="evenodd" fill-opacity="1" stroke="#000000" stroke-opacity="1" stroke-width="3.2"/>
<circle clip-path="url(#clip962)" cx="1268.34" cy="519.382" r="14.4" fill="#009af9" fill-rule="evenodd" fill-opacity="1" stroke="#000000" stroke-opacity="1" stroke-width="3.2"/>
<circle clip-path="url(#clip962)" cx="1192.02" cy="753.968" r="14.4" fill="#009af9" fill-rule="evenodd" fill-opacity="1" stroke="#000000" stroke-opacity="1" stroke-width="3.2"/>
<circle clip-path="url(#clip962)" cx="1421.33" cy="725.887" r="14.4" fill="#009af9" fill-rule="evenodd" fill-opacity="1" stroke="#000000" stroke-opacity="1" stroke-width="3.2"/>
<circle clip-path="url(#clip962)" cx="1702.91" cy="269.135" r="14.4" fill="#009af9" fill-rule="evenodd" fill-opacity="1" stroke="#000000" stroke-opacity="1" stroke-width="3.2"/>
<circle clip-path="url(#clip962)" cx="989.147" cy="551.579" r="14.4" fill="#009af9" fill-rule="evenodd" fill-opacity="1" stroke="#000000" stroke-opacity="1" stroke-width="3.2"/>
<circle clip-path="url(#clip962)" cx="1712.69" cy="1118.37" r="14.4" fill="#009af9" fill-rule="evenodd" fill-opacity="1" stroke="#000000" stroke-opacity="1" stroke-width="3.2"/>
<circle clip-path="url(#clip962)" cx="749.302" cy="681.944" r="14.4" fill="#009af9" fill-rule="evenodd" fill-opacity="1" stroke="#000000" stroke-opacity="1" stroke-width="3.2"/>
<circle clip-path="url(#clip962)" cx="1267.52" cy="464.194" r="14.4" fill="#009af9" fill-rule="evenodd" fill-opacity="1" stroke="#000000" stroke-opacity="1" stroke-width="3.2"/>
<circle clip-path="url(#clip962)" cx="1518.96" cy="308.502" r="14.4" fill="#009af9" fill-rule="evenodd" fill-opacity="1" stroke="#000000" stroke-opacity="1" stroke-width="3.2"/>
<circle clip-path="url(#clip962)" cx="692.52" cy="665.563" r="14.4" fill="#009af9" fill-rule="evenodd" fill-opacity="1" stroke="#000000" stroke-opacity="1" stroke-width="3.2"/>
<circle clip-path="url(#clip962)" cx="1895.07" cy="342.779" r="14.4" fill="#009af9" fill-rule="evenodd" fill-opacity="1" stroke="#000000" stroke-opacity="1" stroke-width="3.2"/>
<circle clip-path="url(#clip962)" cx="1405.18" cy="763.91" r="14.4" fill="#009af9" fill-rule="evenodd" fill-opacity="1" stroke="#000000" stroke-opacity="1" stroke-width="3.2"/>
<circle clip-path="url(#clip962)" cx="1938.64" cy="448.875" r="14.4" fill="#009af9" fill-rule="evenodd" fill-opacity="1" stroke="#000000" stroke-opacity="1" stroke-width="3.2"/>
<circle clip-path="url(#clip962)" cx="1335.68" cy="1229.63" r="14.4" fill="#009af9" fill-rule="evenodd" fill-opacity="1" stroke="#000000" stroke-opacity="1" stroke-width="3.2"/>
<circle clip-path="url(#clip962)" cx="1280.24" cy="522.627" r="14.4" fill="#009af9" fill-rule="evenodd" fill-opacity="1" stroke="#000000" stroke-opacity="1" stroke-width="3.2"/>
<circle clip-path="url(#clip962)" cx="2126.3" cy="723.593" r="14.4" fill="#009af9" fill-rule="evenodd" fill-opacity="1" stroke="#000000" stroke-opacity="1" stroke-width="3.2"/>
<circle clip-path="url(#clip962)" cx="1672.09" cy="1172.71" r="14.4" fill="#009af9" fill-rule="evenodd" fill-opacity="1" stroke="#000000" stroke-opacity="1" stroke-width="3.2"/>
<circle clip-path="url(#clip962)" cx="1609.97" cy="736.324" r="14.4" fill="#009af9" fill-rule="evenodd" fill-opacity="1" stroke="#000000" stroke-opacity="1" stroke-width="3.2"/>
<circle clip-path="url(#clip962)" cx="1975.38" cy="402.488" r="14.4" fill="#009af9" fill-rule="evenodd" fill-opacity="1" stroke="#000000" stroke-opacity="1" stroke-width="3.2"/>
<circle clip-path="url(#clip962)" cx="1148.08" cy="408.266" r="14.4" fill="#009af9" fill-rule="evenodd" fill-opacity="1" stroke="#000000" stroke-opacity="1" stroke-width="3.2"/>
<circle clip-path="url(#clip962)" cx="716.964" cy="677.387" r="14.4" fill="#009af9" fill-rule="evenodd" fill-opacity="1" stroke="#000000" stroke-opacity="1" stroke-width="3.2"/>
<circle clip-path="url(#clip962)" cx="1704.72" cy="279.724" r="14.4" fill="#009af9" fill-rule="evenodd" fill-opacity="1" stroke="#000000" stroke-opacity="1" stroke-width="3.2"/>
<circle clip-path="url(#clip962)" cx="1274.47" cy="530.186" r="14.4" fill="#009af9" fill-rule="evenodd" fill-opacity="1" stroke="#000000" stroke-opacity="1" stroke-width="3.2"/>
<circle clip-path="url(#clip962)" cx="1701.68" cy="271.17" r="14.4" fill="#009af9" fill-rule="evenodd" fill-opacity="1" stroke="#000000" stroke-opacity="1" stroke-width="3.2"/>
<circle clip-path="url(#clip962)" cx="1266.08" cy="528.056" r="14.4" fill="#009af9" fill-rule="evenodd" fill-opacity="1" stroke="#000000" stroke-opacity="1" stroke-width="3.2"/>
<circle clip-path="url(#clip962)" cx="1696.97" cy="472.953" r="14.4" fill="#009af9" fill-rule="evenodd" fill-opacity="1" stroke="#000000" stroke-opacity="1" stroke-width="3.2"/>
<circle clip-path="url(#clip962)" cx="972.144" cy="415.806" r="14.4" fill="#009af9" fill-rule="evenodd" fill-opacity="1" stroke="#000000" stroke-opacity="1" stroke-width="3.2"/>
<circle clip-path="url(#clip962)" cx="1275.76" cy="524.545" r="14.4" fill="#009af9" fill-rule="evenodd" fill-opacity="1" stroke="#000000" stroke-opacity="1" stroke-width="3.2"/>
<circle clip-path="url(#clip962)" cx="711.878" cy="523.84" r="14.4" fill="#009af9" fill-rule="evenodd" fill-opacity="1" stroke="#000000" stroke-opacity="1" stroke-width="3.2"/>
<circle clip-path="url(#clip962)" cx="1242.99" cy="1016.77" r="14.4" fill="#009af9" fill-rule="evenodd" fill-opacity="1" stroke="#000000" stroke-opacity="1" stroke-width="3.2"/>
<circle clip-path="url(#clip962)" cx="1393.98" cy="571.747" r="14.4" fill="#009af9" fill-rule="evenodd" fill-opacity="1" stroke="#000000" stroke-opacity="1" stroke-width="3.2"/>
<circle clip-path="url(#clip962)" cx="663.324" cy="443.349" r="14.4" fill="#009af9" fill-rule="evenodd" fill-opacity="1" stroke="#000000" stroke-opacity="1" stroke-width="3.2"/>
<circle clip-path="url(#clip962)" cx="1846.2" cy="533.007" r="14.4" fill="#009af9" fill-rule="evenodd" fill-opacity="1" stroke="#000000" stroke-opacity="1" stroke-width="3.2"/>
<circle clip-path="url(#clip962)" cx="716.587" cy="529.559" r="14.4" fill="#009af9" fill-rule="evenodd" fill-opacity="1" stroke="#000000" stroke-opacity="1" stroke-width="3.2"/>
<circle clip-path="url(#clip962)" cx="1143.55" cy="765.786" r="14.4" fill="#009af9" fill-rule="evenodd" fill-opacity="1" stroke="#000000" stroke-opacity="1" stroke-width="3.2"/>
<circle clip-path="url(#clip962)" cx="1648.31" cy="690.824" r="14.4" fill="#009af9" fill-rule="evenodd" fill-opacity="1" stroke="#000000" stroke-opacity="1" stroke-width="3.2"/>
<circle clip-path="url(#clip962)" cx="1933.11" cy="463.021" r="14.4" fill="#009af9" fill-rule="evenodd" fill-opacity="1" stroke="#000000" stroke-opacity="1" stroke-width="3.2"/>
<circle clip-path="url(#clip962)" cx="720.572" cy="680.315" r="14.4" fill="#009af9" fill-rule="evenodd" fill-opacity="1" stroke="#000000" stroke-opacity="1" stroke-width="3.2"/>
<circle clip-path="url(#clip962)" cx="1947.96" cy="442.412" r="14.4" fill="#009af9" fill-rule="evenodd" fill-opacity="1" stroke="#000000" stroke-opacity="1" stroke-width="3.2"/>
<circle clip-path="url(#clip962)" cx="2066.88" cy="483.179" r="14.4" fill="#009af9" fill-rule="evenodd" fill-opacity="1" stroke="#000000" stroke-opacity="1" stroke-width="3.2"/>
<circle clip-path="url(#clip962)" cx="1406.88" cy="740.629" r="14.4" fill="#009af9" fill-rule="evenodd" fill-opacity="1" stroke="#000000" stroke-opacity="1" stroke-width="3.2"/>
<circle clip-path="url(#clip962)" cx="1262.28" cy="518.7" r="14.4" fill="#009af9" fill-rule="evenodd" fill-opacity="1" stroke="#000000" stroke-opacity="1" stroke-width="3.2"/>
<circle clip-path="url(#clip962)" cx="1186.14" cy="632.835" r="14.4" fill="#009af9" fill-rule="evenodd" fill-opacity="1" stroke="#000000" stroke-opacity="1" stroke-width="3.2"/>
<circle clip-path="url(#clip962)" cx="1103.14" cy="505.626" r="14.4" fill="#009af9" fill-rule="evenodd" fill-opacity="1" stroke="#000000" stroke-opacity="1" stroke-width="3.2"/>
<circle clip-path="url(#clip962)" cx="1943.42" cy="614.85" r="14.4" fill="#009af9" fill-rule="evenodd" fill-opacity="1" stroke="#000000" stroke-opacity="1" stroke-width="3.2"/>
<circle clip-path="url(#clip962)" cx="709.881" cy="526.117" r="14.4" fill="#009af9" fill-rule="evenodd" fill-opacity="1" stroke="#000000" stroke-opacity="1" stroke-width="3.2"/>
<circle clip-path="url(#clip962)" cx="1934.88" cy="491.908" r="14.4" fill="#009af9" fill-rule="evenodd" fill-opacity="1" stroke="#000000" stroke-opacity="1" stroke-width="3.2"/>
<circle clip-path="url(#clip962)" cx="1716.81" cy="258.319" r="14.4" fill="#009af9" fill-rule="evenodd" fill-opacity="1" stroke="#000000" stroke-opacity="1" stroke-width="3.2"/>
<circle clip-path="url(#clip962)" cx="729.386" cy="521.399" r="14.4" fill="#009af9" fill-rule="evenodd" fill-opacity="1" stroke="#000000" stroke-opacity="1" stroke-width="3.2"/>
<circle clip-path="url(#clip962)" cx="1705.08" cy="271.554" r="14.4" fill="#009af9" fill-rule="evenodd" fill-opacity="1" stroke="#000000" stroke-opacity="1" stroke-width="3.2"/>
<circle clip-path="url(#clip962)" cx="1413.28" cy="767.491" r="14.4" fill="#009af9" fill-rule="evenodd" fill-opacity="1" stroke="#000000" stroke-opacity="1" stroke-width="3.2"/>
<circle clip-path="url(#clip962)" cx="699.997" cy="523.117" r="14.4" fill="#009af9" fill-rule="evenodd" fill-opacity="1" stroke="#000000" stroke-opacity="1" stroke-width="3.2"/>
<circle clip-path="url(#clip962)" cx="1832.26" cy="892.507" r="14.4" fill="#009af9" fill-rule="evenodd" fill-opacity="1" stroke="#000000" stroke-opacity="1" stroke-width="3.2"/>
<circle clip-path="url(#clip962)" cx="2151.49" cy="607.377" r="14.4" fill="#009af9" fill-rule="evenodd" fill-opacity="1" stroke="#000000" stroke-opacity="1" stroke-width="3.2"/>
<circle clip-path="url(#clip962)" cx="731.355" cy="671.118" r="14.4" fill="#009af9" fill-rule="evenodd" fill-opacity="1" stroke="#000000" stroke-opacity="1" stroke-width="3.2"/>
<circle clip-path="url(#clip962)" cx="1256.13" cy="524.333" r="14.4" fill="#009af9" fill-rule="evenodd" fill-opacity="1" stroke="#000000" stroke-opacity="1" stroke-width="3.2"/>
<circle clip-path="url(#clip962)" cx="1431.39" cy="1086.43" r="14.4" fill="#009af9" fill-rule="evenodd" fill-opacity="1" stroke="#000000" stroke-opacity="1" stroke-width="3.2"/>
<circle clip-path="url(#clip962)" cx="1511.02" cy="895.088" r="14.4" fill="#009af9" fill-rule="evenodd" fill-opacity="1" stroke="#000000" stroke-opacity="1" stroke-width="3.2"/>
<circle clip-path="url(#clip962)" cx="819.166" cy="408.992" r="14.4" fill="#009af9" fill-rule="evenodd" fill-opacity="1" stroke="#000000" stroke-opacity="1" stroke-width="3.2"/>
<circle clip-path="url(#clip962)" cx="747.596" cy="517.719" r="14.4" fill="#009af9" fill-rule="evenodd" fill-opacity="1" stroke="#000000" stroke-opacity="1" stroke-width="3.2"/>
<circle clip-path="url(#clip962)" cx="2043.63" cy="745.433" r="14.4" fill="#009af9" fill-rule="evenodd" fill-opacity="1" stroke="#000000" stroke-opacity="1" stroke-width="3.2"/>
<circle clip-path="url(#clip962)" cx="913.607" cy="704.698" r="14.4" fill="#009af9" fill-rule="evenodd" fill-opacity="1" stroke="#000000" stroke-opacity="1" stroke-width="3.2"/>
<circle clip-path="url(#clip962)" cx="723.016" cy="533.217" r="14.4" fill="#009af9" fill-rule="evenodd" fill-opacity="1" stroke="#000000" stroke-opacity="1" stroke-width="3.2"/>
<circle clip-path="url(#clip962)" cx="1543.6" cy="1128.18" r="14.4" fill="#009af9" fill-rule="evenodd" fill-opacity="1" stroke="#000000" stroke-opacity="1" stroke-width="3.2"/>
<circle clip-path="url(#clip962)" cx="1557.63" cy="444.815" r="14.4" fill="#009af9" fill-rule="evenodd" fill-opacity="1" stroke="#000000" stroke-opacity="1" stroke-width="3.2"/>
<circle clip-path="url(#clip962)" cx="689.025" cy="520.655" r="14.4" fill="#009af9" fill-rule="evenodd" fill-opacity="1" stroke="#000000" stroke-opacity="1" stroke-width="3.2"/>
<circle clip-path="url(#clip962)" cx="1284.89" cy="1037.33" r="14.4" fill="#009af9" fill-rule="evenodd" fill-opacity="1" stroke="#000000" stroke-opacity="1" stroke-width="3.2"/>
<circle clip-path="url(#clip962)" cx="932.033" cy="632.299" r="14.4" fill="#009af9" fill-rule="evenodd" fill-opacity="1" stroke="#000000" stroke-opacity="1" stroke-width="3.2"/>
<circle clip-path="url(#clip962)" cx="726.172" cy="679.789" r="14.4" fill="#009af9" fill-rule="evenodd" fill-opacity="1" stroke="#000000" stroke-opacity="1" stroke-width="3.2"/>
<circle clip-path="url(#clip962)" cx="752.266" cy="674.322" r="14.4" fill="#009af9" fill-rule="evenodd" fill-opacity="1" stroke="#000000" stroke-opacity="1" stroke-width="3.2"/>
<circle clip-path="url(#clip962)" cx="1697.79" cy="265.85" r="14.4" fill="#009af9" fill-rule="evenodd" fill-opacity="1" stroke="#000000" stroke-opacity="1" stroke-width="3.2"/>
<circle clip-path="url(#clip962)" cx="366.903" cy="579.566" r="14.4" fill="#009af9" fill-rule="evenodd" fill-opacity="1" stroke="#000000" stroke-opacity="1" stroke-width="3.2"/>
<circle clip-path="url(#clip962)" cx="1381.58" cy="696.714" r="14.4" fill="#009af9" fill-rule="evenodd" fill-opacity="1" stroke="#000000" stroke-opacity="1" stroke-width="3.2"/>
<circle clip-path="url(#clip962)" cx="754.49" cy="675.602" r="14.4" fill="#009af9" fill-rule="evenodd" fill-opacity="1" stroke="#000000" stroke-opacity="1" stroke-width="3.2"/>
<circle clip-path="url(#clip962)" cx="1836.81" cy="436.71" r="14.4" fill="#009af9" fill-rule="evenodd" fill-opacity="1" stroke="#000000" stroke-opacity="1" stroke-width="3.2"/>
<circle clip-path="url(#clip962)" cx="1398.18" cy="756.665" r="14.4" fill="#009af9" fill-rule="evenodd" fill-opacity="1" stroke="#000000" stroke-opacity="1" stroke-width="3.2"/>
<circle clip-path="url(#clip962)" cx="1417.59" cy="761.512" r="14.4" fill="#009af9" fill-rule="evenodd" fill-opacity="1" stroke="#000000" stroke-opacity="1" stroke-width="3.2"/>
<circle clip-path="url(#clip962)" cx="1255.48" cy="530.471" r="14.4" fill="#009af9" fill-rule="evenodd" fill-opacity="1" stroke="#000000" stroke-opacity="1" stroke-width="3.2"/>
<circle clip-path="url(#clip962)" cx="2205.17" cy="551.975" r="14.4" fill="#009af9" fill-rule="evenodd" fill-opacity="1" stroke="#000000" stroke-opacity="1" stroke-width="3.2"/>
<circle clip-path="url(#clip962)" cx="444.839" cy="490.085" r="14.4" fill="#009af9" fill-rule="evenodd" fill-opacity="1" stroke="#000000" stroke-opacity="1" stroke-width="3.2"/>
<circle clip-path="url(#clip962)" cx="1877.36" cy="504.693" r="14.4" fill="#009af9" fill-rule="evenodd" fill-opacity="1" stroke="#000000" stroke-opacity="1" stroke-width="3.2"/>
<circle clip-path="url(#clip962)" cx="1140.8" cy="427.053" r="14.4" fill="#009af9" fill-rule="evenodd" fill-opacity="1" stroke="#000000" stroke-opacity="1" stroke-width="3.2"/>
<circle clip-path="url(#clip962)" cx="1674.94" cy="454.053" r="14.4" fill="#009af9" fill-rule="evenodd" fill-opacity="1" stroke="#000000" stroke-opacity="1" stroke-width="3.2"/>
<circle clip-path="url(#clip962)" cx="1877.11" cy="501.27" r="14.4" fill="#e26f46" fill-rule="evenodd" fill-opacity="1" stroke="#000000" stroke-opacity="1" stroke-width="3.2"/>
<circle clip-path="url(#clip962)" cx="738.035" cy="674.961" r="14.4" fill="#e26f46" fill-rule="evenodd" fill-opacity="1" stroke="#000000" stroke-opacity="1" stroke-width="3.2"/>
<circle clip-path="url(#clip962)" cx="1407.88" cy="756.89" r="14.4" fill="#e26f46" fill-rule="evenodd" fill-opacity="1" stroke="#000000" stroke-opacity="1" stroke-width="3.2"/>
<circle clip-path="url(#clip962)" cx="1940.7" cy="459.663" r="14.4" fill="#e26f46" fill-rule="evenodd" fill-opacity="1" stroke="#000000" stroke-opacity="1" stroke-width="3.2"/>
<circle clip-path="url(#clip962)" cx="1556.59" cy="1098.04" r="14.4" fill="#e26f46" fill-rule="evenodd" fill-opacity="1" stroke="#000000" stroke-opacity="1" stroke-width="3.2"/>
<circle clip-path="url(#clip962)" cx="1375.79" cy="1030.96" r="14.4" fill="#e26f46" fill-rule="evenodd" fill-opacity="1" stroke="#000000" stroke-opacity="1" stroke-width="3.2"/>
<circle clip-path="url(#clip962)" cx="715.233" cy="526.002" r="14.4" fill="#e26f46" fill-rule="evenodd" fill-opacity="1" stroke="#000000" stroke-opacity="1" stroke-width="3.2"/>
<circle clip-path="url(#clip962)" cx="1270.9" cy="522.119" r="14.4" fill="#e26f46" fill-rule="evenodd" fill-opacity="1" stroke="#000000" stroke-opacity="1" stroke-width="3.2"/>
<circle clip-path="url(#clip962)" cx="1533.65" cy="646.229" r="14.4" fill="#e26f46" fill-rule="evenodd" fill-opacity="1" stroke="#000000" stroke-opacity="1" stroke-width="3.2"/>
<circle clip-path="url(#clip962)" cx="1697.02" cy="269.489" r="14.4" fill="#e26f46" fill-rule="evenodd" fill-opacity="1" stroke="#000000" stroke-opacity="1" stroke-width="3.2"/>
<path clip-path="url(#clip960)" d="M1673.73 1438.47 L2281.77 1438.47 L2281.77 1282.95 L1673.73 1282.95  Z" fill="#ffffff" fill-rule="evenodd" fill-opacity="1"/>
<polyline clip-path="url(#clip960)" style="stroke:#000000; stroke-linecap:round; stroke-linejoin:round; stroke-width:4; stroke-opacity:1; fill:none" points="1673.73,1438.47 2281.77,1438.47 2281.77,1282.95 1673.73,1282.95 1673.73,1438.47 "/>
<circle clip-path="url(#clip960)" cx="1768.39" cy="1334.79" r="20.48" fill="#009af9" fill-rule="evenodd" fill-opacity="1" stroke="#000000" stroke-opacity="1" stroke-width="4.55111"/>
<path clip-path="url(#clip960)" d="M1887.06 1338.05 L1887.06 1340.13 L1867.48 1340.13 Q1867.76 1344.53 1870.12 1346.84 Q1872.5 1349.13 1876.74 1349.13 Q1879.19 1349.13 1881.49 1348.53 Q1883.8 1347.93 1886.07 1346.73 L1886.07 1350.75 Q1883.78 1351.73 1881.37 1352.24 Q1878.96 1352.75 1876.49 1352.75 Q1870.28 1352.75 1866.65 1349.13 Q1863.04 1345.52 1863.04 1339.37 Q1863.04 1333 1866.46 1329.27 Q1869.91 1325.52 1875.75 1325.52 Q1880.98 1325.52 1884.01 1328.9 Q1887.06 1332.26 1887.06 1338.05 M1882.81 1336.8 Q1882.76 1333.3 1880.84 1331.22 Q1878.94 1329.13 1875.79 1329.13 Q1872.23 1329.13 1870.07 1331.15 Q1867.94 1333.16 1867.62 1336.82 L1882.81 1336.8 Z" fill="#000000" fill-rule="nonzero" fill-opacity="1" /><path clip-path="url(#clip960)" d="M1891 1326.15 L1895.51 1326.15 L1903.62 1347.91 L1911.72 1326.15 L1916.23 1326.15 L1906.51 1352.07 L1900.72 1352.07 L1891 1326.15 Z" fill="#000000" fill-rule="nonzero" fill-opacity="1" /><path clip-path="url(#clip960)" d="M1944.29 1338.05 L1944.29 1340.13 L1924.7 1340.13 Q1924.98 1344.53 1927.34 1346.84 Q1929.73 1349.13 1933.96 1349.13 Q1936.42 1349.13 1938.71 1348.53 Q1941.02 1347.93 1943.29 1346.73 L1943.29 1350.75 Q1941 1351.73 1938.59 1352.24 Q1936.19 1352.75 1933.71 1352.75 Q1927.5 1352.75 1923.87 1349.13 Q1920.26 1345.52 1920.26 1339.37 Q1920.26 1333 1923.69 1329.27 Q1927.13 1325.52 1932.97 1325.52 Q1938.2 1325.52 1941.23 1328.9 Q1944.29 1332.26 1944.29 1338.05 M1940.03 1336.8 Q1939.98 1333.3 1938.06 1331.22 Q1936.16 1329.13 1933.01 1329.13 Q1929.45 1329.13 1927.3 1331.15 Q1925.17 1333.16 1924.84 1336.82 L1940.03 1336.8 Z" fill="#000000" fill-rule="nonzero" fill-opacity="1" /><path clip-path="url(#clip960)" d="M1972.83 1336.43 L1972.83 1352.07 L1968.57 1352.07 L1968.57 1336.57 Q1968.57 1332.88 1967.13 1331.06 Q1965.7 1329.23 1962.83 1329.23 Q1959.38 1329.23 1957.39 1331.43 Q1955.4 1333.63 1955.4 1337.42 L1955.4 1352.07 L1951.12 1352.07 L1951.12 1326.15 L1955.4 1326.15 L1955.4 1330.18 Q1956.93 1327.84 1958.99 1326.68 Q1961.07 1325.52 1963.78 1325.52 Q1968.25 1325.52 1970.54 1328.3 Q1972.83 1331.06 1972.83 1336.43 Z" fill="#000000" fill-rule="nonzero" fill-opacity="1" /><path clip-path="url(#clip960)" d="M1985.54 1318.79 L1985.54 1326.15 L1994.31 1326.15 L1994.31 1329.46 L1985.54 1329.46 L1985.54 1343.53 Q1985.54 1346.7 1986.39 1347.61 Q1987.27 1348.51 1989.93 1348.51 L1994.31 1348.51 L1994.31 1352.07 L1989.93 1352.07 Q1985 1352.07 1983.13 1350.25 Q1981.25 1348.39 1981.25 1343.53 L1981.25 1329.46 L1978.13 1329.46 L1978.13 1326.15 L1981.25 1326.15 L1981.25 1318.79 L1985.54 1318.79 Z" fill="#000000" fill-rule="nonzero" fill-opacity="1" /><path clip-path="url(#clip960)" d="M2016.44 1326.91 L2016.44 1330.94 Q2014.63 1330.01 2012.69 1329.55 Q2010.74 1329.09 2008.66 1329.09 Q2005.49 1329.09 2003.89 1330.06 Q2002.32 1331.03 2002.32 1332.98 Q2002.32 1334.46 2003.45 1335.32 Q2004.59 1336.15 2008.01 1336.91 L2009.47 1337.24 Q2014.01 1338.21 2015.91 1339.99 Q2017.83 1341.75 2017.83 1344.92 Q2017.83 1348.53 2014.96 1350.64 Q2012.11 1352.75 2007.11 1352.75 Q2005.03 1352.75 2002.76 1352.33 Q2000.51 1351.94 1998.01 1351.13 L1998.01 1346.73 Q2000.37 1347.95 2002.67 1348.58 Q2004.96 1349.18 2007.2 1349.18 Q2010.21 1349.18 2011.83 1348.16 Q2013.45 1347.12 2013.45 1345.25 Q2013.45 1343.51 2012.27 1342.58 Q2011.12 1341.66 2007.16 1340.8 L2005.68 1340.45 Q2001.72 1339.62 1999.96 1337.91 Q1998.2 1336.17 1998.2 1333.16 Q1998.2 1329.51 2000.79 1327.51 Q2003.38 1325.52 2008.15 1325.52 Q2010.51 1325.52 2012.6 1325.87 Q2014.68 1326.22 2016.44 1326.91 Z" fill="#000000" fill-rule="nonzero" fill-opacity="1" /><circle clip-path="url(#clip960)" cx="1768.39" cy="1386.63" r="20.48" fill="#e26f46" fill-rule="evenodd" fill-opacity="1" stroke="#000000" stroke-opacity="1" stroke-width="4.55111"/>
<path clip-path="url(#clip960)" d="M1883.55 1378.98 L1883.55 1382.97 Q1881.74 1381.97 1879.91 1381.48 Q1878.11 1380.97 1876.25 1380.97 Q1872.11 1380.97 1869.82 1383.61 Q1867.53 1386.23 1867.53 1390.97 Q1867.53 1395.72 1869.82 1398.36 Q1872.11 1400.97 1876.25 1400.97 Q1878.11 1400.97 1879.91 1400.49 Q1881.74 1399.98 1883.55 1398.98 L1883.55 1402.92 Q1881.76 1403.75 1879.84 1404.17 Q1877.94 1404.59 1875.79 1404.59 Q1869.94 1404.59 1866.49 1400.91 Q1863.04 1397.22 1863.04 1390.97 Q1863.04 1384.63 1866.51 1381 Q1870 1377.36 1876.07 1377.36 Q1878.04 1377.36 1879.91 1377.78 Q1881.79 1378.17 1883.55 1378.98 Z" fill="#000000" fill-rule="nonzero" fill-opacity="1" /><path clip-path="url(#clip960)" d="M1890.95 1367.9 L1895.21 1367.9 L1895.21 1403.91 L1890.95 1403.91 L1890.95 1367.9 Z" fill="#000000" fill-rule="nonzero" fill-opacity="1" /><path clip-path="url(#clip960)" d="M1903.69 1393.68 L1903.69 1377.99 L1907.94 1377.99 L1907.94 1393.52 Q1907.94 1397.2 1909.38 1399.05 Q1910.81 1400.88 1913.69 1400.88 Q1917.13 1400.88 1919.12 1398.68 Q1921.14 1396.48 1921.14 1392.69 L1921.14 1377.99 L1925.4 1377.99 L1925.4 1403.91 L1921.14 1403.91 L1921.14 1399.93 Q1919.59 1402.29 1917.53 1403.45 Q1915.49 1404.59 1912.78 1404.59 Q1908.31 1404.59 1906 1401.81 Q1903.69 1399.03 1903.69 1393.68 M1914.4 1377.36 L1914.4 1377.36 Z" fill="#000000" fill-rule="nonzero" fill-opacity="1" /><path clip-path="url(#clip960)" d="M1950.7 1378.75 L1950.7 1382.78 Q1948.89 1381.85 1946.95 1381.39 Q1945 1380.93 1942.92 1380.93 Q1939.75 1380.93 1938.15 1381.9 Q1936.58 1382.87 1936.58 1384.82 Q1936.58 1386.3 1937.71 1387.16 Q1938.85 1387.99 1942.27 1388.75 L1943.73 1389.08 Q1948.27 1390.05 1950.17 1391.83 Q1952.09 1393.59 1952.09 1396.76 Q1952.09 1400.37 1949.22 1402.48 Q1946.37 1404.59 1941.37 1404.59 Q1939.29 1404.59 1937.02 1404.17 Q1934.77 1403.78 1932.27 1402.97 L1932.27 1398.57 Q1934.63 1399.79 1936.93 1400.42 Q1939.22 1401.02 1941.46 1401.02 Q1944.47 1401.02 1946.09 1400 Q1947.71 1398.96 1947.71 1397.09 Q1947.71 1395.35 1946.53 1394.42 Q1945.37 1393.5 1941.42 1392.64 L1939.94 1392.29 Q1935.98 1391.46 1934.22 1389.75 Q1932.46 1388.01 1932.46 1385 Q1932.46 1381.35 1935.05 1379.35 Q1937.64 1377.36 1942.41 1377.36 Q1944.77 1377.36 1946.86 1377.71 Q1948.94 1378.06 1950.7 1378.75 Z" fill="#000000" fill-rule="nonzero" fill-opacity="1" /><path clip-path="url(#clip960)" d="M1963.08 1370.63 L1963.08 1377.99 L1971.86 1377.99 L1971.86 1381.3 L1963.08 1381.3 L1963.08 1395.37 Q1963.08 1398.54 1963.94 1399.45 Q1964.82 1400.35 1967.48 1400.35 L1971.86 1400.35 L1971.86 1403.91 L1967.48 1403.91 Q1962.55 1403.91 1960.68 1402.09 Q1958.8 1400.23 1958.8 1395.37 L1958.8 1381.3 L1955.68 1381.3 L1955.68 1377.99 L1958.8 1377.99 L1958.8 1370.63 L1963.08 1370.63 Z" fill="#000000" fill-rule="nonzero" fill-opacity="1" /><path clip-path="url(#clip960)" d="M1999.63 1389.89 L1999.63 1391.97 L1980.05 1391.97 Q1980.33 1396.37 1982.69 1398.68 Q1985.07 1400.97 1989.31 1400.97 Q1991.76 1400.97 1994.06 1400.37 Q1996.37 1399.77 1998.64 1398.57 L1998.64 1402.59 Q1996.35 1403.57 1993.94 1404.08 Q1991.53 1404.59 1989.06 1404.59 Q1982.85 1404.59 1979.22 1400.97 Q1975.61 1397.36 1975.61 1391.21 Q1975.61 1384.84 1979.03 1381.11 Q1982.48 1377.36 1988.31 1377.36 Q1993.55 1377.36 1996.58 1380.74 Q1999.63 1384.1 1999.63 1389.89 M1995.37 1388.64 Q1995.33 1385.14 1993.41 1383.06 Q1991.51 1380.97 1988.36 1380.97 Q1984.8 1380.97 1982.64 1382.99 Q1980.51 1385 1980.19 1388.66 L1995.37 1388.64 Z" fill="#000000" fill-rule="nonzero" fill-opacity="1" /><path clip-path="url(#clip960)" d="M2021.65 1381.97 Q2020.93 1381.55 2020.07 1381.37 Q2019.24 1381.16 2018.22 1381.16 Q2014.61 1381.16 2012.67 1383.52 Q2010.74 1385.86 2010.74 1390.26 L2010.74 1403.91 L2006.46 1403.91 L2006.46 1377.99 L2010.74 1377.99 L2010.74 1382.02 Q2012.09 1379.66 2014.24 1378.52 Q2016.39 1377.36 2019.47 1377.36 Q2019.91 1377.36 2020.44 1377.43 Q2020.98 1377.48 2021.62 1377.6 L2021.65 1381.97 Z" fill="#000000" fill-rule="nonzero" fill-opacity="1" /><path clip-path="url(#clip960)" d="M2063.36 1389.89 L2063.36 1391.97 L2043.78 1391.97 Q2044.05 1396.37 2046.42 1398.68 Q2048.8 1400.97 2053.04 1400.97 Q2055.49 1400.97 2057.78 1400.37 Q2060.1 1399.77 2062.36 1398.57 L2062.36 1402.59 Q2060.07 1403.57 2057.67 1404.08 Q2055.26 1404.59 2052.78 1404.59 Q2046.58 1404.59 2042.94 1400.97 Q2039.33 1397.36 2039.33 1391.21 Q2039.33 1384.84 2042.76 1381.11 Q2046.21 1377.36 2052.04 1377.36 Q2057.27 1377.36 2060.3 1380.74 Q2063.36 1384.1 2063.36 1389.89 M2059.1 1388.64 Q2059.05 1385.14 2057.13 1383.06 Q2055.24 1380.97 2052.09 1380.97 Q2048.52 1380.97 2046.37 1382.99 Q2044.24 1385 2043.92 1388.66 L2059.1 1388.64 Z" fill="#000000" fill-rule="nonzero" fill-opacity="1" /><path clip-path="url(#clip960)" d="M2074.47 1400.03 L2074.47 1413.78 L2070.19 1413.78 L2070.19 1377.99 L2074.47 1377.99 L2074.47 1381.92 Q2075.81 1379.61 2077.85 1378.5 Q2079.91 1377.36 2082.76 1377.36 Q2087.48 1377.36 2090.42 1381.11 Q2093.38 1384.86 2093.38 1390.97 Q2093.38 1397.09 2090.42 1400.84 Q2087.48 1404.59 2082.76 1404.59 Q2079.91 1404.59 2077.85 1403.47 Q2075.81 1402.34 2074.47 1400.03 M2088.96 1390.97 Q2088.96 1386.28 2087.02 1383.61 Q2085.1 1380.93 2081.72 1380.93 Q2078.34 1380.93 2076.39 1383.61 Q2074.47 1386.28 2074.47 1390.97 Q2074.47 1395.67 2076.39 1398.36 Q2078.34 1401.02 2081.72 1401.02 Q2085.1 1401.02 2087.02 1398.36 Q2088.96 1395.67 2088.96 1390.97 Z" fill="#000000" fill-rule="nonzero" fill-opacity="1" /><path clip-path="url(#clip960)" d="M2100.44 1377.99 L2104.7 1377.99 L2104.7 1403.91 L2100.44 1403.91 L2100.44 1377.99 M2100.44 1367.9 L2104.7 1367.9 L2104.7 1373.29 L2100.44 1373.29 L2100.44 1367.9 Z" fill="#000000" fill-rule="nonzero" fill-opacity="1" /><path clip-path="url(#clip960)" d="M2132.27 1378.98 L2132.27 1382.97 Q2130.47 1381.97 2128.64 1381.48 Q2126.83 1380.97 2124.98 1380.97 Q2120.84 1380.97 2118.55 1383.61 Q2116.25 1386.23 2116.25 1390.97 Q2116.25 1395.72 2118.55 1398.36 Q2120.84 1400.97 2124.98 1400.97 Q2126.83 1400.97 2128.64 1400.49 Q2130.47 1399.98 2132.27 1398.98 L2132.27 1402.92 Q2130.49 1403.75 2128.57 1404.17 Q2126.67 1404.59 2124.52 1404.59 Q2118.66 1404.59 2115.21 1400.91 Q2111.76 1397.22 2111.76 1390.97 Q2111.76 1384.63 2115.24 1381 Q2118.73 1377.36 2124.8 1377.36 Q2126.76 1377.36 2128.64 1377.78 Q2130.51 1378.17 2132.27 1378.98 Z" fill="#000000" fill-rule="nonzero" fill-opacity="1" /><path clip-path="url(#clip960)" d="M2161.86 1389.89 L2161.86 1391.97 L2142.27 1391.97 Q2142.55 1396.37 2144.91 1398.68 Q2147.3 1400.97 2151.53 1400.97 Q2153.98 1400.97 2156.28 1400.37 Q2158.59 1399.77 2160.86 1398.57 L2160.86 1402.59 Q2158.57 1403.57 2156.16 1404.08 Q2153.75 1404.59 2151.28 1404.59 Q2145.07 1404.59 2141.44 1400.97 Q2137.83 1397.36 2137.83 1391.21 Q2137.83 1384.84 2141.25 1381.11 Q2144.7 1377.36 2150.54 1377.36 Q2155.77 1377.36 2158.8 1380.74 Q2161.86 1384.1 2161.86 1389.89 M2157.6 1388.64 Q2157.55 1385.14 2155.63 1383.06 Q2153.73 1380.97 2150.58 1380.97 Q2147.02 1380.97 2144.86 1382.99 Q2142.73 1385 2142.41 1388.66 L2157.6 1388.64 Z" fill="#000000" fill-rule="nonzero" fill-opacity="1" /><path clip-path="url(#clip960)" d="M2190.4 1388.27 L2190.4 1403.91 L2186.14 1403.91 L2186.14 1388.41 Q2186.14 1384.72 2184.7 1382.9 Q2183.27 1381.07 2180.4 1381.07 Q2176.95 1381.07 2174.96 1383.27 Q2172.97 1385.47 2172.97 1389.26 L2172.97 1403.91 L2168.68 1403.91 L2168.68 1377.99 L2172.97 1377.99 L2172.97 1382.02 Q2174.49 1379.68 2176.55 1378.52 Q2178.64 1377.36 2181.35 1377.36 Q2185.81 1377.36 2188.11 1380.14 Q2190.4 1382.9 2190.4 1388.27 Z" fill="#000000" fill-rule="nonzero" fill-opacity="1" /><path clip-path="url(#clip960)" d="M2203.1 1370.63 L2203.1 1377.99 L2211.88 1377.99 L2211.88 1381.3 L2203.1 1381.3 L2203.1 1395.37 Q2203.1 1398.54 2203.96 1399.45 Q2204.84 1400.35 2207.5 1400.35 L2211.88 1400.35 L2211.88 1403.91 L2207.5 1403.91 Q2202.57 1403.91 2200.7 1402.09 Q2198.82 1400.23 2198.82 1395.37 L2198.82 1381.3 L2195.7 1381.3 L2195.7 1377.99 L2198.82 1377.99 L2198.82 1370.63 L2203.1 1370.63 Z" fill="#000000" fill-rule="nonzero" fill-opacity="1" /><path clip-path="url(#clip960)" d="M2232.5 1381.97 Q2231.79 1381.55 2230.93 1381.37 Q2230.1 1381.16 2229.08 1381.16 Q2225.47 1381.16 2223.52 1383.52 Q2221.6 1385.86 2221.6 1390.26 L2221.6 1403.91 L2217.32 1403.91 L2217.32 1377.99 L2221.6 1377.99 L2221.6 1382.02 Q2222.94 1379.66 2225.1 1378.52 Q2227.25 1377.36 2230.33 1377.36 Q2230.77 1377.36 2231.3 1377.43 Q2231.83 1377.48 2232.48 1377.6 L2232.5 1381.97 Z" fill="#000000" fill-rule="nonzero" fill-opacity="1" /><path clip-path="url(#clip960)" d="M2258.1 1389.89 L2258.1 1391.97 L2238.52 1391.97 Q2238.8 1396.37 2241.16 1398.68 Q2243.54 1400.97 2247.78 1400.97 Q2250.23 1400.97 2252.53 1400.37 Q2254.84 1399.77 2257.11 1398.57 L2257.11 1402.59 Q2254.82 1403.57 2252.41 1404.08 Q2250 1404.59 2247.53 1404.59 Q2241.32 1404.59 2237.69 1400.97 Q2234.08 1397.36 2234.08 1391.21 Q2234.08 1384.84 2237.5 1381.11 Q2240.95 1377.36 2246.79 1377.36 Q2252.02 1377.36 2255.05 1380.74 Q2258.1 1384.1 2258.1 1389.89 M2253.85 1388.64 Q2253.8 1385.14 2251.88 1383.06 Q2249.98 1380.97 2246.83 1380.97 Q2243.27 1380.97 2241.11 1382.99 Q2238.98 1385 2238.66 1388.66 L2253.85 1388.64 Z" fill="#000000" fill-rule="nonzero" fill-opacity="1" /></svg>
