<?xml version="1.0" encoding="utf-8"?>
<svg xmlns="http://www.w3.org/2000/svg" xmlns:xlink="http://www.w3.org/1999/xlink" width="600" height="400" viewBox="0 0 2400 1600">
<defs>
  <clipPath id="clip140">
    <rect x="0" y="0" width="2400" height="1600"/>
  </clipPath>
</defs>
<path clip-path="url(#clip140)" d="M0 1600 L2400 1600 L2400 0 L0 0  Z" fill="#ffffff" fill-rule="evenodd" fill-opacity="1"/>
<defs>
  <clipPath id="clip141">
    <rect x="480" y="0" width="1681" height="1600"/>
  </clipPath>
</defs>
<path clip-path="url(#clip140)" d="M140.696 1423.18 L2352.76 1423.18 L2352.76 47.2441 L140.696 47.2441  Z" fill="#ffffff" fill-rule="evenodd" fill-opacity="1"/>
<defs>
  <clipPath id="clip142">
    <rect x="140" y="47" width="2213" height="1377"/>
  </clipPath>
</defs>
<polyline clip-path="url(#clip142)" style="stroke:#000000; stroke-linecap:round; stroke-linejoin:round; stroke-width:2; stroke-opacity:0.1; fill:none" points="583.214,1423.18 583.214,47.2441 "/>
<polyline clip-path="url(#clip142)" style="stroke:#000000; stroke-linecap:round; stroke-linejoin:round; stroke-width:2; stroke-opacity:0.1; fill:none" points="1027.92,1423.18 1027.92,47.2441 "/>
<polyline clip-path="url(#clip142)" style="stroke:#000000; stroke-linecap:round; stroke-linejoin:round; stroke-width:2; stroke-opacity:0.1; fill:none" points="1472.63,1423.18 1472.63,47.2441 "/>
<polyline clip-path="url(#clip142)" style="stroke:#000000; stroke-linecap:round; stroke-linejoin:round; stroke-width:2; stroke-opacity:0.1; fill:none" points="1917.34,1423.18 1917.34,47.2441 "/>
<polyline clip-path="url(#clip142)" style="stroke:#000000; stroke-linecap:round; stroke-linejoin:round; stroke-width:2; stroke-opacity:0.1; fill:none" points="140.696,1385.28 2352.76,1385.28 "/>
<polyline clip-path="url(#clip142)" style="stroke:#000000; stroke-linecap:round; stroke-linejoin:round; stroke-width:2; stroke-opacity:0.1; fill:none" points="140.696,963.939 2352.76,963.939 "/>
<polyline clip-path="url(#clip142)" style="stroke:#000000; stroke-linecap:round; stroke-linejoin:round; stroke-width:2; stroke-opacity:0.1; fill:none" points="140.696,542.602 2352.76,542.602 "/>
<polyline clip-path="url(#clip142)" style="stroke:#000000; stroke-linecap:round; stroke-linejoin:round; stroke-width:2; stroke-opacity:0.1; fill:none" points="140.696,121.266 2352.76,121.266 "/>
<polyline clip-path="url(#clip140)" style="stroke:#000000; stroke-linecap:round; stroke-linejoin:round; stroke-width:4; stroke-opacity:1; fill:none" points="140.696,1423.18 2352.76,1423.18 "/>
<polyline clip-path="url(#clip140)" style="stroke:#000000; stroke-linecap:round; stroke-linejoin:round; stroke-width:4; stroke-opacity:1; fill:none" points="583.214,1423.18 583.214,1404.28 "/>
<polyline clip-path="url(#clip140)" style="stroke:#000000; stroke-linecap:round; stroke-linejoin:round; stroke-width:4; stroke-opacity:1; fill:none" points="1027.92,1423.18 1027.92,1404.28 "/>
<polyline clip-path="url(#clip140)" style="stroke:#000000; stroke-linecap:round; stroke-linejoin:round; stroke-width:4; stroke-opacity:1; fill:none" points="1472.63,1423.18 1472.63,1404.28 "/>
<polyline clip-path="url(#clip140)" style="stroke:#000000; stroke-linecap:round; stroke-linejoin:round; stroke-width:4; stroke-opacity:1; fill:none" points="1917.34,1423.18 1917.34,1404.28 "/>
<path clip-path="url(#clip140)" d="M557.902 1481.64 L565.541 1481.64 L565.541 1455.28 L557.23 1456.95 L557.23 1452.69 L565.494 1451.02 L570.17 1451.02 L570.17 1481.64 L577.809 1481.64 L577.809 1485.58 L557.902 1485.58 L557.902 1481.64 Z" fill="#000000" fill-rule="nonzero" fill-opacity="1" /><path clip-path="url(#clip140)" d="M597.253 1454.1 Q593.642 1454.1 591.814 1457.66 Q590.008 1461.2 590.008 1468.33 Q590.008 1475.44 591.814 1479.01 Q593.642 1482.55 597.253 1482.55 Q600.888 1482.55 602.693 1479.01 Q604.522 1475.44 604.522 1468.33 Q604.522 1461.2 602.693 1457.66 Q600.888 1454.1 597.253 1454.1 M597.253 1450.39 Q603.063 1450.39 606.119 1455 Q609.198 1459.58 609.198 1468.33 Q609.198 1477.06 606.119 1481.67 Q603.063 1486.25 597.253 1486.25 Q591.443 1486.25 588.364 1481.67 Q585.309 1477.06 585.309 1468.33 Q585.309 1459.58 588.364 1455 Q591.443 1450.39 597.253 1450.39 Z" fill="#000000" fill-rule="nonzero" fill-opacity="1" /><path clip-path="url(#clip140)" d="M1006.7 1481.64 L1023.01 1481.64 L1023.01 1485.58 L1001.07 1485.58 L1001.07 1481.64 Q1003.73 1478.89 1008.32 1474.26 Q1012.92 1469.61 1014.1 1468.27 Q1016.35 1465.74 1017.23 1464.01 Q1018.13 1462.25 1018.13 1460.56 Q1018.13 1457.8 1016.19 1456.07 Q1014.26 1454.33 1011.16 1454.33 Q1008.96 1454.33 1006.51 1455.09 Q1004.08 1455.86 1001.3 1457.41 L1001.3 1452.69 Q1004.13 1451.55 1006.58 1450.97 Q1009.03 1450.39 1011.07 1450.39 Q1016.44 1450.39 1019.64 1453.08 Q1022.83 1455.77 1022.83 1460.26 Q1022.83 1462.39 1022.02 1464.31 Q1021.23 1466.2 1019.13 1468.8 Q1018.55 1469.47 1015.45 1472.69 Q1012.34 1475.88 1006.7 1481.64 Z" fill="#000000" fill-rule="nonzero" fill-opacity="1" /><path clip-path="url(#clip140)" d="M1042.83 1454.1 Q1039.22 1454.1 1037.39 1457.66 Q1035.58 1461.2 1035.58 1468.33 Q1035.58 1475.44 1037.39 1479.01 Q1039.22 1482.55 1042.83 1482.55 Q1046.46 1482.55 1048.27 1479.01 Q1050.1 1475.44 1050.1 1468.33 Q1050.1 1461.2 1048.27 1457.66 Q1046.46 1454.1 1042.83 1454.1 M1042.83 1450.39 Q1048.64 1450.39 1051.7 1455 Q1054.77 1459.58 1054.77 1468.33 Q1054.77 1477.06 1051.7 1481.67 Q1048.64 1486.25 1042.83 1486.25 Q1037.02 1486.25 1033.94 1481.67 Q1030.89 1477.06 1030.89 1468.33 Q1030.89 1459.58 1033.94 1455 Q1037.02 1450.39 1042.83 1450.39 Z" fill="#000000" fill-rule="nonzero" fill-opacity="1" /><path clip-path="url(#clip140)" d="M1461.47 1466.95 Q1464.83 1467.66 1466.7 1469.93 Q1468.6 1472.2 1468.6 1475.53 Q1468.6 1480.65 1465.08 1483.45 Q1461.57 1486.25 1455.08 1486.25 Q1452.91 1486.25 1450.59 1485.81 Q1448.3 1485.39 1445.85 1484.54 L1445.85 1480.02 Q1447.79 1481.16 1450.11 1481.74 Q1452.42 1482.32 1454.95 1482.32 Q1459.34 1482.32 1461.63 1480.58 Q1463.95 1478.84 1463.95 1475.53 Q1463.95 1472.48 1461.8 1470.77 Q1459.67 1469.03 1455.85 1469.03 L1451.82 1469.03 L1451.82 1465.19 L1456.03 1465.19 Q1459.48 1465.19 1461.31 1463.82 Q1463.14 1462.43 1463.14 1459.84 Q1463.14 1457.18 1461.24 1455.77 Q1459.37 1454.33 1455.85 1454.33 Q1453.93 1454.33 1451.73 1454.75 Q1449.53 1455.16 1446.89 1456.04 L1446.89 1451.88 Q1449.55 1451.14 1451.87 1450.77 Q1454.2 1450.39 1456.26 1450.39 Q1461.59 1450.39 1464.69 1452.83 Q1467.79 1455.23 1467.79 1459.35 Q1467.79 1462.22 1466.15 1464.21 Q1464.51 1466.18 1461.47 1466.95 Z" fill="#000000" fill-rule="nonzero" fill-opacity="1" /><path clip-path="url(#clip140)" d="M1487.47 1454.1 Q1483.86 1454.1 1482.03 1457.66 Q1480.22 1461.2 1480.22 1468.33 Q1480.22 1475.44 1482.03 1479.01 Q1483.86 1482.55 1487.47 1482.55 Q1491.1 1482.55 1492.91 1479.01 Q1494.74 1475.44 1494.74 1468.33 Q1494.74 1461.2 1492.91 1457.66 Q1491.1 1454.1 1487.47 1454.1 M1487.47 1450.39 Q1493.28 1450.39 1496.33 1455 Q1499.41 1459.58 1499.41 1468.33 Q1499.41 1477.06 1496.33 1481.67 Q1493.28 1486.25 1487.47 1486.25 Q1481.66 1486.25 1478.58 1481.67 Q1475.52 1477.06 1475.52 1468.33 Q1475.52 1459.58 1478.58 1455 Q1481.66 1450.39 1487.47 1450.39 Z" fill="#000000" fill-rule="nonzero" fill-opacity="1" /><path clip-path="url(#clip140)" d="M1905.51 1455.09 L1893.7 1473.54 L1905.51 1473.54 L1905.51 1455.09 M1904.28 1451.02 L1910.16 1451.02 L1910.16 1473.54 L1915.09 1473.54 L1915.09 1477.43 L1910.16 1477.43 L1910.16 1485.58 L1905.51 1485.58 L1905.51 1477.43 L1889.91 1477.43 L1889.91 1472.92 L1904.28 1451.02 Z" fill="#000000" fill-rule="nonzero" fill-opacity="1" /><path clip-path="url(#clip140)" d="M1932.82 1454.1 Q1929.21 1454.1 1927.38 1457.66 Q1925.58 1461.2 1925.58 1468.33 Q1925.58 1475.44 1927.38 1479.01 Q1929.21 1482.55 1932.82 1482.55 Q1936.46 1482.55 1938.26 1479.01 Q1940.09 1475.44 1940.09 1468.33 Q1940.09 1461.2 1938.26 1457.66 Q1936.46 1454.1 1932.82 1454.1 M1932.82 1450.39 Q1938.63 1450.39 1941.69 1455 Q1944.77 1459.58 1944.77 1468.33 Q1944.77 1477.06 1941.69 1481.67 Q1938.63 1486.25 1932.82 1486.25 Q1927.01 1486.25 1923.94 1481.67 Q1920.88 1477.06 1920.88 1468.33 Q1920.88 1459.58 1923.94 1455 Q1927.01 1450.39 1932.82 1450.39 Z" fill="#000000" fill-rule="nonzero" fill-opacity="1" /><path clip-path="url(#clip140)" d="M1245.79 1522.27 L1245.79 1532.4 L1257.85 1532.4 L1257.85 1536.95 L1245.79 1536.95 L1245.79 1556.3 Q1245.79 1560.66 1246.96 1561.9 Q1248.17 1563.14 1251.83 1563.14 L1257.85 1563.14 L1257.85 1568.04 L1251.83 1568.04 Q1245.05 1568.04 1242.48 1565.53 Q1239.9 1562.98 1239.9 1556.3 L1239.9 1536.95 L1235.6 1536.95 L1235.6 1532.4 L1239.9 1532.4 L1239.9 1522.27 L1245.79 1522.27 Z" fill="#000000" fill-rule="nonzero" fill-opacity="1" /><polyline clip-path="url(#clip140)" style="stroke:#000000; stroke-linecap:round; stroke-linejoin:round; stroke-width:4; stroke-opacity:1; fill:none" points="140.696,1423.18 140.696,47.2441 "/>
<polyline clip-path="url(#clip140)" style="stroke:#000000; stroke-linecap:round; stroke-linejoin:round; stroke-width:4; stroke-opacity:1; fill:none" points="140.696,1385.28 159.593,1385.28 "/>
<polyline clip-path="url(#clip140)" style="stroke:#000000; stroke-linecap:round; stroke-linejoin:round; stroke-width:4; stroke-opacity:1; fill:none" points="140.696,963.939 159.593,963.939 "/>
<polyline clip-path="url(#clip140)" style="stroke:#000000; stroke-linecap:round; stroke-linejoin:round; stroke-width:4; stroke-opacity:1; fill:none" points="140.696,542.602 159.593,542.602 "/>
<polyline clip-path="url(#clip140)" style="stroke:#000000; stroke-linecap:round; stroke-linejoin:round; stroke-width:4; stroke-opacity:1; fill:none" points="140.696,121.266 159.593,121.266 "/>
<path clip-path="url(#clip140)" d="M92.7512 1371.07 Q89.1401 1371.07 87.3114 1374.64 Q85.5058 1378.18 85.5058 1385.31 Q85.5058 1392.42 87.3114 1395.98 Q89.1401 1399.52 92.7512 1399.52 Q96.3854 1399.52 98.1909 1395.98 Q100.02 1392.42 100.02 1385.31 Q100.02 1378.18 98.1909 1374.64 Q96.3854 1371.07 92.7512 1371.07 M92.7512 1367.37 Q98.5613 1367.37 101.617 1371.98 Q104.696 1376.56 104.696 1385.31 Q104.696 1394.04 101.617 1398.64 Q98.5613 1403.23 92.7512 1403.23 Q86.941 1403.23 83.8623 1398.64 Q80.8068 1394.04 80.8068 1385.31 Q80.8068 1376.56 83.8623 1371.98 Q86.941 1367.37 92.7512 1367.37 Z" fill="#000000" fill-rule="nonzero" fill-opacity="1" /><path clip-path="url(#clip140)" d="M53.3995 977.284 L61.0384 977.284 L61.0384 950.918 L52.7282 952.585 L52.7282 948.326 L60.9921 946.659 L65.668 946.659 L65.668 977.284 L73.3068 977.284 L73.3068 981.219 L53.3995 981.219 L53.3995 977.284 Z" fill="#000000" fill-rule="nonzero" fill-opacity="1" /><path clip-path="url(#clip140)" d="M92.7512 949.738 Q89.1401 949.738 87.3114 953.302 Q85.5058 956.844 85.5058 963.974 Q85.5058 971.08 87.3114 974.645 Q89.1401 978.187 92.7512 978.187 Q96.3854 978.187 98.1909 974.645 Q100.02 971.08 100.02 963.974 Q100.02 956.844 98.1909 953.302 Q96.3854 949.738 92.7512 949.738 M92.7512 946.034 Q98.5613 946.034 101.617 950.64 Q104.696 955.224 104.696 963.974 Q104.696 972.701 101.617 977.307 Q98.5613 981.89 92.7512 981.89 Q86.941 981.89 83.8623 977.307 Q80.8068 972.701 80.8068 963.974 Q80.8068 955.224 83.8623 950.64 Q86.941 946.034 92.7512 946.034 Z" fill="#000000" fill-rule="nonzero" fill-opacity="1" /><path clip-path="url(#clip140)" d="M56.6171 555.947 L72.9365 555.947 L72.9365 559.882 L50.9921 559.882 L50.9921 555.947 Q53.6541 553.193 58.2375 548.563 Q62.8439 543.91 64.0245 542.568 Q66.2698 540.045 67.1494 538.308 Q68.0522 536.549 68.0522 534.859 Q68.0522 532.105 66.1078 530.369 Q64.1865 528.633 61.0847 528.633 Q58.8856 528.633 56.4319 529.397 Q54.0014 530.16 51.2236 531.711 L51.2236 526.989 Q54.0477 525.855 56.5014 525.276 Q58.955 524.697 60.9921 524.697 Q66.3624 524.697 69.5568 527.383 Q72.7513 530.068 72.7513 534.559 Q72.7513 536.688 71.9411 538.609 Q71.1541 540.508 69.0476 543.1 Q68.4689 543.771 65.367 546.989 Q62.2652 550.183 56.6171 555.947 Z" fill="#000000" fill-rule="nonzero" fill-opacity="1" /><path clip-path="url(#clip140)" d="M92.7512 528.401 Q89.1401 528.401 87.3114 531.966 Q85.5058 535.508 85.5058 542.637 Q85.5058 549.744 87.3114 553.308 Q89.1401 556.85 92.7512 556.85 Q96.3854 556.85 98.1909 553.308 Q100.02 549.744 100.02 542.637 Q100.02 535.508 98.1909 531.966 Q96.3854 528.401 92.7512 528.401 M92.7512 524.697 Q98.5613 524.697 101.617 529.304 Q104.696 533.887 104.696 542.637 Q104.696 551.364 101.617 555.97 Q98.5613 560.554 92.7512 560.554 Q86.941 560.554 83.8623 555.97 Q80.8068 551.364 80.8068 542.637 Q80.8068 533.887 83.8623 529.304 Q86.941 524.697 92.7512 524.697 Z" fill="#000000" fill-rule="nonzero" fill-opacity="1" /><path clip-path="url(#clip140)" d="M66.7559 119.912 Q70.1124 120.629 71.9874 122.898 Q73.8855 125.166 73.8855 128.5 Q73.8855 133.615 70.367 136.416 Q66.8485 139.217 60.3671 139.217 Q58.1912 139.217 55.8764 138.777 Q53.5847 138.361 51.131 137.504 L51.131 132.99 Q53.0754 134.125 55.3903 134.703 Q57.7051 135.282 60.2282 135.282 Q64.6263 135.282 66.918 133.546 Q69.2328 131.81 69.2328 128.5 Q69.2328 125.444 67.08 123.731 Q64.9504 121.995 61.131 121.995 L57.1032 121.995 L57.1032 118.153 L61.3161 118.153 Q64.7652 118.153 66.5939 116.787 Q68.4226 115.398 68.4226 112.805 Q68.4226 110.143 66.5245 108.731 Q64.6495 107.296 61.131 107.296 Q59.2097 107.296 57.0106 107.713 Q54.8115 108.129 52.1727 109.009 L52.1727 104.842 Q54.8347 104.102 57.1495 103.731 Q59.4875 103.361 61.5476 103.361 Q66.8717 103.361 69.9735 105.791 Q73.0753 108.199 73.0753 112.319 Q73.0753 115.19 71.4318 117.18 Q69.7883 119.148 66.7559 119.912 Z" fill="#000000" fill-rule="nonzero" fill-opacity="1" /><path clip-path="url(#clip140)" d="M92.7512 107.065 Q89.1401 107.065 87.3114 110.629 Q85.5058 114.171 85.5058 121.301 Q85.5058 128.407 87.3114 131.972 Q89.1401 135.514 92.7512 135.514 Q96.3854 135.514 98.1909 131.972 Q100.02 128.407 100.02 121.301 Q100.02 114.171 98.1909 110.629 Q96.3854 107.065 92.7512 107.065 M92.7512 103.361 Q98.5613 103.361 101.617 107.967 Q104.696 112.551 104.696 121.301 Q104.696 130.027 101.617 134.634 Q98.5613 139.217 92.7512 139.217 Q86.941 139.217 83.8623 134.634 Q80.8068 130.027 80.8068 121.301 Q80.8068 112.551 83.8623 107.967 Q86.941 103.361 92.7512 103.361 Z" fill="#000000" fill-rule="nonzero" fill-opacity="1" /><polyline clip-path="url(#clip142)" style="stroke:#009af9; stroke-linecap:round; stroke-linejoin:round; stroke-width:4; stroke-opacity:1; fill:none" points="140.696,1384.24 140.696,1384.24 166.406,1372.06 168.072,1371.27 186.015,1362.77 188.867,1361.42 190.353,1360.71 195.95,1358.06 200.703,1355.81 204.446,1354.04 218.963,1347.16 221.316,1346.05 223.949,1344.8 232.918,1340.55 240.409,1337 244.72,1334.96 247.084,1333.84 259.823,1327.8 260.343,1327.56 278.85,1318.79 279.302,1318.58 280.841,1317.85 282.898,1316.87 286.144,1315.34 287.958,1314.48 288.868,1314.05 295.955,1310.69 302.491,1307.59 331.862,1293.68 340.568,1289.55 343.832,1288.01 362.238,1279.29 377.796,1271.92 378.736,1271.47 414.088,1254.73 416.057,1253.61 469.428,1226.58 471.133,1225.76 471.438,1225.61 498.179,1212.83 499.858,1212.03 502.66,1210.45 510.196,1206.34 511.378,1205.71 512.514,1205.1 536.566,1192.9 538.302,1192.05 547.058,1187.78 566.327,1178.5 570.657,1176.43 572.164,1175.71 583.236,1170.43 588.962,1167.23 594.971,1163.99 600.284,1161.2 609.029,1156.73 610.37,1155.94 615.479,1152.98 617.878,1151.63 624.032,1148.26 660.745,1129.72 676.033,1122.35 686.807,1117.19 697.865,1111.92 707.483,1106.61 722.721,1097.65 735.441,1090.85 739.009,1088.7 741.783,1087.08 749.154,1082.93 751.088,1081.87 752.01,1081.29 762.207,1075.17 772.55,1069.45 787.41,1061.73 812.746,1049.25 824.72,1043.48 826.314,1042.72 838.793,1036.75 855.153,1028.96 855.666,1028.72 856.111,1028.51 859.719,1026.79 860.428,1026.46 870.327,1021.76 873.367,1020.32 881.228,1016.59 888.775,1013.01 891.197,1011.64 900.971,1005.59 913.588,998.497 915.978,997.216 923.342,993.357 928.094,990.925 932.002,988.61 932.743,988.181 957.25,975.017 963.277,971.979 967.125,970.062 969.762,968.757 970.244,968.519 986.771,960.464 992.701,957.607 992.94,957.492 1004.95,951.738 1044.98,932.699 1046.44,932.005 1075.51,916.691 1078.61,915.147 1110.42,899.695 1126.4,892.065 1144.56,883.43 1157.63,877.227 1192.05,860.909 1192.28,860.801 1196.03,859.024 1202.9,855.77 1211.25,851.811 1226.08,844.787 1228.34,843.718 1229.94,842.957 1230.4,842.739 1233.83,841.115 1236.17,840.005 1247.32,834.726 1247.65,834.57 1271.19,823.418 1279.35,819.552 1281.99,818.3 1285.41,816.681 1291.43,813.829 1293,813.084 1305.31,807.255 1317.84,801.316 1318.16,801.167 1322.95,798.897 1327.04,796.962 1327.62,796.633 1350.04,784.706 1355.14,782.138 1356.82,781.296 1363.99,777.748 1364.12,777.687 1365.23,777.142 1365.54,776.989 1373.81,772.952 1378.52,770.674 1387.15,766.52 1394.36,763.062 1398.52,761.075 1401.5,759.651 1409.34,755.916 1414.74,753.346 1416.46,752.53 1423.94,748.976 1424.56,748.68 1428.82,746.658 1440.41,741.16 1453.16,735.113 1467.43,728.353 1468.75,727.727 1478.87,722.928 1483.75,720.616 1490.09,717.091 1497.87,712.939 1500.94,711.34 1521.52,701.004 1522.23,700.655 1546.68,688.824 1554.09,685.276 1559.67,682.612 1564.6,680.263 1567.22,679.016 1573.7,675.934 1580.12,672.882 1597.03,664.859 1612.55,656.443 1627.11,649.038 1630.47,647.37 1633.43,645.906 1635.35,644.964 1640.61,642.394 1659.45,633.297 1692.45,615.937 1693.77,615.281 1707.73,608.448 1719.17,602.925 1743.6,591.248 1747.75,589.274 1755.9,585.403 1757.58,584.603 1758.78,584.036 1767.91,579.699 1789.21,569.6 1789.6,569.414 1794.9,566.902 1822.54,553.803 1829.7,550.411 1838.37,546.305 1842.73,544.238 1844.65,543.328 1844.67,543.32 1853.4,539.186 1855.7,538.093 1864.37,533.309 1870.5,530.058 1872.93,528.798 1903.76,511.883 1908.42,509.529 1915.26,506.124 1916.44,505.541 1922.54,502.548 1926.12,500.803 1929.56,499.133 1949.37,488.363 1956.23,484.859 1956.63,484.656 1965.42,480.266 1967.35,479.311 1971.74,477.157 1973.64,476.228 1981.73,471.656 1986.36,469.142 1996.78,463.693 1999.18,462.47 2009.07,457.509 2019.73,452.269 2023.84,450.269 2028.44,447.649 2029.39,447.121 2043.95,439.338 2047.04,437.751 2049.85,436.319 2054.71,433.872 2056.17,433.146 2059.33,431.573 2059.82,431.334 2059.89,431.301 2068.69,426.977 2071.38,425.669 2086.17,418.523 2095.17,414.216 2097.58,413.063 2102.35,410.787 2114.98,404.775 2115.46,404.545 2142.6,391.663 2144.91,390.565 2168.38,379.44 2172.66,377.411 2175.62,376.011 2179.04,374.39 2186.68,370.768 2188.17,370.066 2190.95,368.745 2208.83,360.278 2215.12,357.298 2228.62,350.902 2237.68,346.609 2240.7,345.178 2242.64,344.259 2242.81,344.178 2272.71,330.013 2293.3,320.261 2304.7,314.858 2306.84,313.844 2321.45,306.923 2331.17,301.573 2344.64,294.573 2351.11,290.79 2352.76,289.859 "/>
<polyline clip-path="url(#clip142)" style="stroke:#e26f46; stroke-linecap:round; stroke-linejoin:round; stroke-width:4; stroke-opacity:1; fill:none" points="140.696,1384.24 140.696,1384.24 166.406,1372.06 168.072,1371.12 186.015,1360.37 188.867,1358.8 190.353,1357.86 195.95,1353.97 200.703,1350.88 204.446,1348.24 218.963,1339.09 221.316,1337.52 223.949,1335.81 232.918,1329.65 240.409,1325 244.72,1322.48 247.084,1321.13 259.823,1313.29 260.343,1312.94 278.85,1301.72 279.302,1301.42 280.841,1300.29 282.898,1298.64 286.144,1295.86 287.958,1294.38 288.868,1293.57 295.955,1287.75 302.491,1282.98 331.862,1263.94 340.568,1259.22 343.832,1257.5 362.238,1246.98 377.796,1238.91 378.736,1238.34 414.088,1219.46 416.057,1218.48 469.428,1190.83 471.133,1189.85 471.438,1189.67 498.179,1175.51 499.858,1174.51 502.66,1172.88 510.196,1168.67 511.378,1167.91 512.514,1167.2 536.566,1153.6 538.302,1152.69 547.058,1147.52 566.327,1135.93 570.657,1133.57 572.164,1132.62 583.236,1126.06 588.962,1122.89 594.971,1119.17 600.284,1115.61 609.029,1110.21 610.37,1109.43 615.479,1106.07 617.878,1104.35 624.032,1100.19 660.745,1079.64 676.033,1070.98 686.807,1065.32 697.865,1059.74 707.483,1054.99 722.721,1047.6 735.441,1040.58 739.009,1038.7 741.783,1037.26 749.154,1032.9 751.088,1031.8 752.01,1031.28 762.207,1025.73 772.55,1020.38 787.41,1011.94 812.746,998.93 824.72,992.185 826.314,991.325 838.793,984.812 855.153,975.548 855.666,975.274 856.111,975.036 859.719,973.127 860.428,972.755 870.327,967.671 873.367,966.142 881.228,961.607 888.775,957.482 891.197,956.194 900.971,951.131 913.588,943.901 915.978,942.602 923.342,938.698 928.094,935.838 932.002,933.574 932.743,933.153 957.25,920.159 963.277,916.64 967.125,914.478 969.762,913.029 970.244,912.721 986.771,901.889 992.701,897.949 992.94,897.774 1004.95,888.808 1044.98,866.026 1046.44,865.285 1075.51,851.001 1078.61,849.233 1110.42,832.639 1126.4,824.826 1144.56,816.093 1157.63,808.92 1192.05,791.646 1192.28,791.535 1196.03,789.719 1202.9,786.408 1211.25,781.739 1226.08,772.932 1228.34,771.479 1229.94,770.32 1230.4,769.993 1233.83,767.325 1236.17,765.589 1247.32,758.087 1247.65,757.882 1271.19,744.531 1279.35,740.306 1281.99,738.964 1285.41,736.942 1291.43,733.015 1293,732.036 1305.31,723.943 1317.84,716.684 1318.16,716.51 1322.95,713.498 1327.04,711.046 1327.62,710.706 1350.04,698.495 1355.14,695.462 1356.82,694.335 1363.99,689.787 1364.12,689.711 1365.23,688.936 1365.54,688.691 1373.81,682.633 1378.52,679.099 1387.15,672.553 1394.36,667.111 1398.52,663.883 1401.5,661.438 1409.34,654.961 1414.74,650.992 1416.46,649.799 1423.94,644.899 1424.56,644.51 1428.82,641.918 1440.41,635.323 1453.16,628.576 1467.43,621.387 1468.75,620.613 1478.87,614.924 1483.75,612.308 1490.09,608.997 1497.87,604.416 1500.94,602.685 1521.52,591.81 1522.23,591.384 1546.68,577.963 1554.09,573.593 1559.67,570 1564.6,567.003 1567.22,565.233 1573.7,561.091 1580.12,557.253 1597.03,547.981 1612.55,540.072 1627.11,532.909 1630.47,530.982 1633.43,529.057 1635.35,527.673 1640.61,524.073 1659.45,511.562 1692.45,493.852 1693.77,493.19 1707.73,486.312 1719.17,480.768 1743.6,467.666 1747.75,465.211 1755.9,459.976 1757.58,458.952 1758.78,458.125 1767.91,452.204 1789.21,438.883 1789.6,438.626 1794.9,434.811 1822.54,416.766 1829.7,412.822 1838.37,408.247 1842.73,405.63 1844.65,404.509 1844.67,404.498 1853.4,398.241 1855.7,396.506 1864.37,390.504 1870.5,386.128 1872.93,384.502 1903.76,366.787 1908.42,363.985 1915.26,359.512 1916.44,358.777 1922.54,354.604 1926.12,352.303 1929.56,349.875 1949.37,337.675 1956.23,333.908 1956.63,333.653 1965.42,328.354 1967.35,327.242 1971.74,324.781 1973.64,323.737 1981.73,319.411 1986.36,317.003 1996.78,311.725 1999.18,310.532 2009.07,304.906 2019.73,298.411 2023.84,295.712 2028.44,292.842 2029.39,292.268 2043.95,282.972 2047.04,281.173 2049.85,279.572 2054.71,276.878 2056.17,276.088 2059.33,274.111 2059.82,273.815 2059.89,273.774 2068.69,268.606 2071.38,267.1 2086.17,259.206 2095.17,253.935 2097.58,252.366 2102.35,248.984 2114.98,240.055 2115.46,239.697 2142.6,222.73 2144.91,221.463 2168.38,209.334 2172.66,207.211 2175.62,205.756 2179.04,204.08 2186.68,199.748 2188.17,198.798 2190.95,197.055 2208.83,185.676 2215.12,181.596 2228.62,172.709 2237.68,166.712 2240.7,164.851 2242.64,163.686 2242.81,163.567 2272.71,144.311 2293.3,132.204 2304.7,126.181 2306.84,125.082 2321.45,116.741 2331.17,111.596 2344.64,104.766 2351.11,101.566 2352.76,100.609 "/>
<polyline clip-path="url(#clip142)" style="stroke:#3da44d; stroke-linecap:round; stroke-linejoin:round; stroke-width:4; stroke-opacity:1; fill:none" points="140.696,1384.24 140.696,1384.24 166.406,1372.06 168.072,1371.12 186.015,1360.37 188.867,1358.8 190.353,1357.86 195.95,1354.43 200.703,1351.66 204.446,1349.23 218.963,1340.62 221.316,1339.31 223.949,1337.88 232.918,1333.13 240.409,1329.29 244.72,1327.12 247.084,1325.94 259.823,1319.68 260.343,1319.38 278.85,1308.09 279.302,1307.79 280.841,1306.66 282.898,1305.18 286.144,1302.66 287.958,1301.31 288.868,1300.56 295.955,1295.13 302.491,1290.63 331.862,1272.16 340.568,1267.5 343.832,1265.51 362.238,1254.04 377.796,1245.59 378.736,1245.1 414.088,1227.55 416.057,1226.6 469.428,1201.14 471.133,1200.33 471.438,1200.19 498.179,1186.03 499.858,1185.19 502.66,1183.8 510.196,1180.08 511.378,1179.39 512.514,1178.63 536.566,1163.04 538.302,1162.06 547.058,1156.58 566.327,1145.85 570.657,1143.59 572.164,1142.68 583.236,1135.48 588.962,1132.08 594.971,1128.19 600.284,1124.5 609.029,1118.95 610.37,1118.15 615.479,1114.73 617.878,1112.98 624.032,1108.26 660.745,1084.59 676.033,1076.61 686.807,1071.22 697.865,1065.8 707.483,1061.15 722.721,1053.84 735.441,1047.77 739.009,1046.07 741.783,1044.75 749.154,1040.66 751.088,1039.61 752.01,1039.12 762.207,1033.79 772.55,1028.57 787.41,1020.24 812.746,1007.32 824.72,1000.59 826.314,999.731 838.793,993.227 855.153,985.067 855.666,984.815 856.111,984.555 859.719,982.482 860.428,982.082 870.327,976.675 873.367,974.802 881.228,970.198 888.775,966.026 891.197,964.726 900.971,959.625 913.588,952.366 915.978,951.063 923.342,947.149 928.094,944.285 932.002,942.018 932.743,941.596 957.25,928.591 963.277,925.571 967.125,923.664 969.762,922.365 970.244,922.128 986.771,914.096 992.701,910.751 992.94,910.619 1004.95,903.326 1044.98,880.735 1046.44,879.996 1075.51,865.738 1078.61,863.972 1110.42,845.781 1126.4,837.71 1144.56,828.841 1157.63,821.62 1192.05,802.64 1192.28,802.503 1196.03,800.292 1202.9,796.411 1211.25,791.248 1226.08,781.915 1228.34,780.611 1229.94,779.696 1230.4,779.436 1233.83,777.225 1236.17,775.763 1247.32,769.233 1247.65,769.05 1271.19,756.66 1279.35,752.593 1281.99,751.29 1285.41,749.613 1291.43,746.679 1293,745.916 1305.31,739.983 1317.84,733.982 1318.16,733.832 1322.95,731.138 1327.04,728.907 1327.62,728.595 1350.04,717.064 1355.14,714.543 1356.82,713.714 1363.99,710.212 1364.12,710.152 1365.23,709.51 1365.54,709.301 1373.81,703.385 1378.52,700.313 1387.15,695.074 1394.36,690.397 1398.52,687.868 1401.5,685.85 1409.34,680.257 1414.74,676.739 1416.46,675.667 1423.94,670.599 1424.56,670.141 1428.82,667.121 1440.41,659.701 1453.16,652.428 1467.43,643.921 1468.75,643.062 1478.87,636.096 1483.75,633.044 1490.09,629.293 1497.87,624.318 1500.94,622.466 1521.52,611.095 1522.23,610.659 1546.68,597.028 1554.09,593.225 1559.67,590.418 1564.6,587.969 1567.22,586.444 1573.7,582.266 1580.12,577.872 1597.03,567.717 1612.55,559.419 1627.11,552.069 1630.47,550.41 1633.43,548.689 1635.35,547.598 1640.61,544.682 1659.45,534.841 1692.45,518.678 1693.77,517.921 1707.73,509.335 1719.17,502.156 1743.6,488.84 1747.75,486.367 1755.9,481.105 1757.58,479.923 1758.78,478.991 1767.91,472.427 1789.21,458.328 1789.6,458.099 1794.9,455.068 1822.54,439.098 1829.7,435.386 1838.37,431.008 1842.73,428.464 1844.65,427.197 1844.67,427.184 1853.4,421.086 1855.7,419.383 1864.37,413.477 1870.5,409.657 1872.93,408.212 1903.76,391.675 1908.42,388.947 1915.26,385.117 1916.44,384.473 1922.54,380.706 1926.12,378.596 1929.56,376.325 1949.37,364.678 1956.23,361.012 1956.63,360.763 1965.42,355.554 1967.35,354.458 1971.74,352.027 1973.64,350.994 1981.73,346.708 1986.36,344.317 1996.78,338.278 1999.18,336.955 2009.07,330.919 2019.73,324.948 2023.84,322.392 2028.44,319.654 2029.39,319.016 2043.95,309.015 2047.04,307.117 2049.85,305.437 2054.71,302.629 2056.17,301.809 2059.33,299.773 2059.82,299.469 2059.89,299.426 2068.69,294.137 2071.38,292.362 2086.17,283.453 2095.17,278.526 2097.58,277.027 2102.35,274.172 2114.98,266.195 2115.46,265.91 2142.6,249.771 2144.91,248.538 2168.38,236.612 2172.66,234.509 2175.62,233.064 2179.04,231.4 2186.68,227.7 2188.17,226.85 2190.95,225.276 2208.83,215.764 2215.12,212.575 2228.62,205.888 2237.68,201.479 2240.7,200.018 2242.64,199.083 2242.81,198.983 2272.71,183.137 2293.3,171.755 2304.7,165.078 2306.84,163.696 2321.45,154.007 2331.17,148.347 2344.64,141.092 2351.11,137.762 2352.76,136.778 "/>
<polyline clip-path="url(#clip142)" style="stroke:#c271d2; stroke-linecap:round; stroke-linejoin:round; stroke-width:4; stroke-opacity:1; fill:none" points="140.696,1384.24 140.696,1384.24 166.406,1372.06 168.072,1371.27 186.015,1362.77 188.867,1361.42 190.353,1360.71 195.95,1358.06 200.703,1355.81 204.446,1354.04 218.963,1347.16 221.316,1345.84 223.949,1344.38 232.918,1339.57 240.409,1335.7 244.72,1333.51 247.084,1332.33 259.823,1325.11 260.343,1324.78 278.85,1312.82 279.302,1312.52 280.841,1311.49 282.898,1310.15 286.144,1307.81 287.958,1306.55 288.868,1305.93 295.955,1301.33 302.491,1297.4 331.862,1280.15 340.568,1275.63 343.832,1273.68 362.238,1263.54 377.796,1255.61 378.736,1255.15 414.088,1237.98 416.057,1237.04 469.428,1209.75 471.133,1208.93 471.438,1208.78 498.179,1194.51 499.858,1193.67 502.66,1192.26 510.196,1188.53 511.378,1187.95 512.514,1187.29 536.566,1172.94 538.302,1172 547.058,1167.4 566.327,1156.5 570.657,1154.22 572.164,1153.44 583.236,1146.98 588.962,1143.84 594.971,1140.65 600.284,1137.9 609.029,1133.47 610.37,1132.8 615.479,1130.27 617.878,1129.09 624.032,1125.57 660.745,1104.94 676.033,1097.32 686.807,1092.06 697.865,1086.73 707.483,1082.13 722.721,1074.86 735.441,1067.9 739.009,1066.03 741.783,1064.59 749.154,1060.25 751.088,1059.15 752.01,1058.63 762.207,1053.1 772.55,1047.75 787.41,1040.34 812.746,1028.08 824.72,1022.35 826.314,1021.59 838.793,1015.65 855.153,1006.78 855.666,1006.52 856.111,1006.25 859.719,1004.08 860.428,1003.66 870.327,998.07 873.367,996.156 881.228,991.466 888.775,987.236 891.197,985.922 900.971,980.775 913.588,973.48 915.978,972.172 923.342,968.246 928.094,965.781 932.002,963.785 932.743,963.409 957.25,951.313 963.277,948.4 967.125,946.548 969.762,945.281 970.244,945.05 986.771,937.15 992.701,934.326 992.94,934.19 1004.95,926.731 1044.98,903.946 1046.44,903.206 1075.51,888.922 1078.61,887.154 1110.42,868.956 1126.4,860.885 1144.56,852.015 1157.63,845.73 1192.05,827.672 1192.28,827.537 1196.03,825.364 1202.9,821.538 1211.25,817.083 1226.08,808.505 1228.34,807.278 1229.94,806.414 1230.4,806.168 1233.83,804.351 1236.17,803.126 1247.32,797.436 1247.65,797.271 1271.19,785.713 1279.35,781.781 1281.99,780.512 1285.41,778.874 1291.43,775.495 1293,774.635 1305.31,767.24 1317.84,760.387 1318.16,760.222 1322.95,757.312 1327.04,754.932 1327.62,754.6 1350.04,742.609 1355.14,740.034 1356.82,739.036 1363.99,734.942 1364.12,734.873 1365.23,734.155 1365.54,733.956 1373.81,728.234 1378.52,724.842 1387.15,718.49 1394.36,713.746 1398.52,710.828 1401.5,708.837 1409.34,703.299 1414.74,699.809 1416.46,698.745 1423.94,693.705 1424.56,693.248 1428.82,690.24 1440.41,682.842 1453.16,675.584 1467.43,667.085 1468.75,666.226 1478.87,659.264 1483.75,656.213 1490.09,652.463 1497.87,647.489 1500.94,645.637 1521.52,634.268 1522.23,633.832 1546.68,620.201 1554.09,616.399 1559.67,613.124 1564.6,610.349 1567.22,608.912 1573.7,604.913 1580.12,600.651 1597.03,590.706 1612.55,582.5 1627.11,575.195 1630.47,573.247 1633.43,571.569 1635.35,570.502 1640.61,567.643 1659.45,557.923 1692.45,541.831 1693.77,541.075 1707.73,532.498 1719.17,525.324 1743.6,512.012 1747.75,509.898 1755.9,505.818 1757.58,504.831 1758.78,504.139 1767.91,499.039 1789.21,488.015 1789.6,487.819 1794.9,484.74 1822.54,470.142 1829.7,466.583 1838.37,462.336 1842.73,459.84 1844.65,458.592 1844.67,458.579 1853.4,452.547 1855.7,451.066 1864.37,445.813 1870.5,442.324 1872.93,440.986 1903.76,425.149 1908.42,422.863 1915.26,418.978 1916.44,418.326 1922.54,415.029 1926.12,413.141 1929.56,411.354 1949.37,401.412 1956.23,398.061 1956.63,397.865 1965.42,393.612 1967.35,392.679 1971.74,390.572 1973.64,389.66 1981.73,385.789 1986.36,383.576 1996.78,377.825 1999.18,376.55 2009.07,370.67 2019.73,364.001 2023.84,361.254 2028.44,358.34 2029.39,357.671 2043.95,348.329 2047.04,346.523 2049.85,344.917 2054.71,342.216 2056.17,341.424 2059.33,339.443 2059.82,339.146 2059.89,339.105 2068.69,333.93 2071.38,332.182 2086.17,323.373 2095.17,318.482 2097.58,316.991 2102.35,313.741 2114.98,305.963 2115.46,305.683 2142.6,289.723 2144.91,288.498 2168.38,276.616 2172.66,274.516 2175.62,273.074 2179.04,271.412 2186.68,267.717 2188.17,266.868 2190.95,265.295 2208.83,255.787 2215.12,252.08 2228.62,243.714 2237.68,237.925 2240.7,236.117 2242.64,234.982 2242.81,234.866 2272.71,215.853 2293.3,203.797 2304.7,196.943 2306.84,195.537 2321.45,186.746 2331.17,181.43 2344.64,174.458 2351.11,171.215 2352.76,170.398 "/>
<polyline clip-path="url(#clip142)" style="stroke:#ac8d18; stroke-linecap:round; stroke-linejoin:round; stroke-width:4; stroke-opacity:1; fill:none" points="140.696,1384.24 140.696,1384.24 166.406,1372.06 168.072,1371.27 186.015,1362.77 188.867,1361.42 190.353,1360.71 195.95,1357.59 200.703,1354.62 204.446,1352.38 218.963,1343.27 221.316,1341.7 223.949,1340 232.918,1333.84 240.409,1329.2 244.72,1326.68 247.084,1325.12 259.823,1316.46 260.343,1316.13 278.85,1305.49 279.302,1305.25 280.841,1304.42 282.898,1303.14 286.144,1301.18 287.958,1300.11 288.868,1299.58 295.955,1295.57 302.491,1292.03 331.862,1277.17 340.568,1272.93 343.832,1271.36 362.238,1262.52 377.796,1254.05 378.736,1253.47 414.088,1232.61 416.057,1231.59 469.428,1203.51 471.133,1202.52 471.438,1202.32 498.179,1186.68 499.858,1185.63 502.66,1183.93 510.196,1179.57 511.378,1178.91 512.514,1178.28 536.566,1165.71 538.302,1164.84 547.058,1160.51 566.327,1149.94 570.657,1147.71 572.164,1146.94 583.236,1141.38 588.962,1138.55 594.971,1135.62 600.284,1133.04 609.029,1128.82 610.37,1128.18 615.479,1125.73 617.878,1124.58 624.032,1121.64 660.745,1104.19 676.033,1095.89 686.807,1090.38 697.865,1084.06 707.483,1078.91 722.721,1071.15 735.441,1063.97 739.009,1062.05 741.783,1060.59 749.154,1056.78 751.088,1055.8 752.01,1055.33 762.207,1050.24 772.55,1045.17 787.41,1037.99 812.746,1025.89 824.72,1020.2 826.314,1019.44 838.793,1013.52 855.153,1004.67 855.666,1004.4 856.111,1004.17 859.719,1002.31 860.428,1001.95 870.327,996.218 873.367,994.54 881.228,989.705 888.775,984.769 891.197,983.274 900.971,977.57 913.588,970.75 915.978,969.506 923.342,965.738 928.094,963.35 932.002,961.406 932.743,960.97 957.25,946.282 963.277,942.563 967.125,940.299 969.762,938.789 970.244,938.471 986.771,927.392 992.701,923.893 992.94,923.734 1004.95,916.243 1044.98,895.179 1046.44,894.46 1075.51,880.409 1078.61,878.926 1110.42,863.783 1126.4,856.204 1144.56,847.595 1157.63,841.402 1192.05,825.093 1192.28,824.984 1196.03,822.881 1202.9,818.595 1211.25,813.743 1226.08,805.765 1228.34,804.396 1229.94,803.292 1230.4,802.98 1233.83,800.716 1236.17,799.222 1247.32,792.58 1247.65,792.394 1271.19,779.893 1279.35,775.807 1281.99,774.5 1285.41,772.518 1291.43,768.648 1293,767.68 1305.31,759.66 1317.84,752.442 1318.16,752.27 1322.95,749.677 1327.04,747.517 1327.62,747.214 1350.04,734.562 1355.14,731.477 1356.82,730.335 1363.99,725.736 1364.12,725.648 1365.23,724.867 1365.54,724.65 1373.81,719.201 1378.52,715.925 1387.15,709.731 1394.36,705.079 1398.52,702.202 1401.5,700.236 1409.34,695.375 1414.74,692.232 1416.46,691.261 1423.94,687.155 1424.56,686.821 1428.82,684.566 1440.41,677.762 1453.16,670.881 1467.43,663.612 1468.75,662.954 1478.87,657.959 1483.75,655.581 1490.09,652.51 1497.87,648.766 1500.94,647.292 1521.52,637.468 1522.23,637.129 1546.68,625.515 1554.09,621.4 1559.67,617.951 1564.6,614.635 1567.22,612.956 1573.7,608.999 1580.12,605.298 1597.03,596.244 1612.55,588.431 1627.11,581.313 1630.47,579.393 1633.43,577.737 1635.35,576.509 1640.61,573.272 1659.45,561.539 1692.45,544.28 1693.77,543.626 1707.73,536.806 1719.17,531.289 1743.6,518.213 1747.75,516.12 1755.9,512.07 1757.58,511.242 1758.78,510.655 1767.91,506.199 1789.21,495.955 1789.6,495.731 1794.9,492.315 1822.54,476.825 1829.7,473.166 1838.37,468.833 1842.73,466.682 1844.65,465.739 1844.67,465.731 1853.4,460.797 1855.7,459.54 1864.37,454.952 1870.5,451.291 1872.93,449.68 1903.76,432.063 1908.42,429.665 1915.26,425.652 1916.44,424.982 1922.54,421.604 1926.12,419.678 1929.56,417.86 1949.37,407.809 1956.23,404.438 1956.63,404.241 1965.42,399.969 1967.35,399.033 1971.74,396.543 1973.64,395.488 1981.73,391.124 1986.36,388.7 1996.78,383.396 1999.18,381.983 2009.07,376.421 2019.73,369.969 2023.84,367.638 2028.44,365.105 2029.39,364.593 2043.95,356.986 2047.04,355.424 2049.85,354.012 2054.71,351.18 2056.17,350.354 2059.33,348.586 2059.82,348.319 2059.89,348.282 2068.69,343.55 2071.38,342.146 2086.17,334.638 2095.17,329.503 2097.58,328.179 2102.35,325.209 2114.98,317.939 2115.46,317.628 2142.6,302.158 2144.91,300.953 2168.38,289.191 2172.66,286.735 2175.62,285.083 2179.04,283.211 2186.68,278.534 2188.17,277.667 2190.95,276.063 2208.83,265.262 2215.12,261.297 2228.62,252.571 2237.68,246.639 2240.7,244.794 2242.64,243.638 2242.81,243.536 2272.71,225.901 2293.3,215.411 2304.7,209.813 2306.84,208.773 2321.45,201.725 2331.17,197.072 2344.64,190.651 2351.11,187.574 2352.76,186.793 "/>
<polyline clip-path="url(#clip142)" style="stroke:#00a9ad; stroke-linecap:round; stroke-linejoin:round; stroke-width:4; stroke-opacity:1; fill:none" points="140.696,1384.24 140.696,1384.24 166.406,1372.06 168.072,1371.27 186.015,1362.77 188.867,1361.42 190.353,1360.71 195.95,1358.06 200.703,1355.81 204.446,1354.04 218.963,1347.16 221.316,1346.05 223.949,1344.8 232.918,1340.55 240.409,1337 244.72,1334.96 247.084,1333.84 259.823,1327.8 260.343,1327.56 278.85,1318.79 279.302,1318.58 280.841,1317.85 282.898,1316.87 286.144,1315.34 287.958,1314.48 288.868,1314.05 295.955,1310.69 302.491,1307.59 331.862,1293.68 340.568,1288.87 343.832,1287.13 362.238,1277.72 377.796,1270.08 378.736,1269.62 414.088,1252.67 416.057,1251.73 469.428,1226.41 471.133,1225.6 471.438,1225.46 498.179,1212.78 499.858,1211.99 502.66,1210.66 510.196,1206.49 511.378,1205.85 512.514,1205.24 536.566,1192.95 538.302,1192.09 547.058,1187.81 566.327,1178.51 570.657,1176.44 572.164,1175.72 583.236,1170.44 588.962,1167.71 594.971,1164.86 600.284,1162.33 609.029,1158.18 610.37,1157.55 615.479,1155.12 617.878,1153.98 624.032,1151.07 660.745,1133.67 676.033,1126.42 686.807,1121.32 697.865,1116.08 707.483,1111.53 722.721,1104.31 735.441,1098.28 739.009,1096.59 741.783,1095.28 749.154,1091.78 751.088,1090.87 752.01,1090.43 762.207,1085.6 772.55,1079.92 787.41,1072.23 812.746,1059.77 824.72,1054.01 826.314,1053.24 838.793,1047.28 855.153,1039.5 855.666,1039.25 856.111,1039.04 859.719,1037.33 860.428,1036.92 870.327,1031.49 873.367,1029.88 881.228,1025.82 888.775,1022.01 891.197,1020.8 900.971,1015.99 913.588,1009.86 915.978,1008.71 923.342,1004.58 928.094,1002.02 932.002,999.952 932.743,999.565 957.25,987.24 963.277,984.301 967.125,982.1 969.762,980.391 970.244,980.085 986.771,970.384 992.701,967.177 992.94,967.05 1004.95,960.824 1044.98,941.235 1046.44,940.534 1075.51,926.682 1078.61,925.209 1110.42,910.115 1126.4,901.464 1144.56,891.11 1157.63,884.303 1192.05,867.39 1192.28,867.28 1196.03,865.478 1202.9,862.189 1211.25,858.199 1226.08,851.142 1228.34,850.069 1229.94,849.306 1230.4,849.044 1233.83,847.122 1236.17,845.833 1247.32,839.917 1247.65,839.716 1271.19,825.203 1279.35,820.788 1281.99,819.398 1285.41,817.623 1291.43,814.547 1293,813.754 1305.31,807.64 1317.84,801.535 1318.16,801.383 1322.95,799.07 1327.04,797.106 1327.62,796.828 1350.04,786.116 1355.14,783.691 1356.82,782.889 1363.99,778.902 1364.12,778.834 1365.23,778.233 1365.54,778.065 1373.81,773.693 1378.52,771.274 1387.15,766.927 1394.36,763.356 1398.52,761.319 1401.5,759.865 1409.34,756.066 1414.74,753.464 1416.46,752.639 1423.94,749.054 1424.56,748.756 1428.82,746.721 1440.41,741.197 1453.16,734.214 1467.43,726.882 1468.75,726.22 1478.87,721.202 1483.75,718.815 1490.09,715.736 1497.87,711.984 1500.94,710.508 1521.52,700.675 1522.23,700.336 1546.68,688.718 1554.09,685.2 1559.67,682.553 1564.6,680.215 1567.22,678.974 1573.7,675.903 1580.12,672.858 1597.03,664.848 1612.55,657.496 1627.11,650.597 1630.47,649.006 1633.43,647.601 1635.35,646.692 1640.61,644.203 1659.45,635.276 1692.45,619.644 1693.77,619.017 1707.73,612.407 1719.17,606.986 1743.6,595.411 1747.75,593.445 1755.9,589.587 1757.58,588.789 1758.78,588.224 1767.91,583.896 1789.21,573.806 1789.6,573.621 1794.9,571.111 1822.54,558.015 1829.7,554.623 1838.37,550.518 1842.73,548.451 1844.65,547.541 1844.67,547.533 1853.4,543.399 1855.7,542.307 1864.37,538.203 1870.5,535.295 1872.93,534.147 1903.76,519.541 1908.42,517.332 1915.26,514.092 1916.44,513.533 1922.54,510.644 1926.12,508.948 1929.56,507.319 1949.37,497.934 1956.23,494.685 1956.63,494.495 1965.42,490.332 1967.35,489.24 1971.74,486.817 1973.64,485.788 1981.73,481.512 1986.36,479.125 1996.78,473.882 1999.18,472.695 2009.07,467.845 2019.73,462.68 2023.84,460.701 2028.44,458.494 2029.39,458.04 2043.95,451.084 2047.04,449.34 2049.85,447.783 2054.71,445.153 2056.17,444.38 2059.33,442.714 2059.82,442.462 2059.89,442.427 2068.69,437.91 2071.38,436.555 2086.17,429.238 2095.17,424.871 2097.58,423.705 2102.35,421.409 2114.98,415.358 2115.46,415.127 2142.6,402.21 2144.91,401.111 2168.38,389.978 2172.66,387.948 2175.62,386.547 2179.04,384.927 2186.68,381.303 2188.17,380.601 2190.95,379.28 2208.83,370.812 2215.12,367.832 2228.62,361.436 2237.68,357.143 2240.7,355.712 2242.64,354.793 2242.81,354.712 2272.71,340.547 2293.3,330.794 2304.7,325.392 2306.84,324.378 2321.45,317.457 2331.17,312.852 2344.64,306.471 2351.11,303.407 2352.76,302.628 "/>
<polyline clip-path="url(#clip142)" style="stroke:#ed5d92; stroke-linecap:round; stroke-linejoin:round; stroke-width:4; stroke-opacity:1; fill:none" points="140.696,1384.24 140.696,1384.24 166.406,1370.61 168.072,1369.78 186.015,1360.94 188.867,1359.55 190.353,1358.83 195.95,1356.13 200.703,1353.85 204.446,1352.05 218.963,1345.12 221.316,1344 223.949,1342.74 232.918,1338.48 240.409,1334.92 244.72,1332.87 247.084,1331.75 259.823,1325.71 260.343,1325.46 278.85,1316.69 279.302,1316.47 280.841,1315.75 282.898,1314.77 286.144,1313.23 287.958,1312.21 288.868,1311.7 295.955,1307.83 302.491,1304.39 331.862,1289.73 340.568,1285.52 343.832,1283.95 362.238,1275.14 377.796,1267.74 378.736,1267.29 414.088,1250.52 416.057,1249.59 469.428,1224.3 471.133,1223.49 471.438,1223.35 498.179,1210.68 499.858,1209.88 502.66,1208.55 510.196,1204.98 511.378,1204.42 512.514,1203.89 536.566,1192.49 538.302,1191.51 547.058,1186.73 566.327,1176.84 570.657,1174.32 572.164,1173.46 583.236,1167.41 588.962,1164.42 594.971,1161.34 600.284,1158.67 609.029,1153.66 610.37,1152.91 615.479,1150.14 617.878,1148.87 624.032,1145.66 660.745,1127.52 676.033,1120.19 686.807,1114.25 697.865,1108.48 707.483,1103.63 722.721,1096.15 735.441,1090.01 739.009,1088.29 741.783,1086.96 749.154,1083.44 751.088,1082.34 752.01,1081.82 762.207,1076.28 772.55,1070.93 787.41,1063.52 812.746,1049.82 824.72,1043.81 826.314,1043.03 838.793,1036.02 855.153,1027.52 855.666,1027.21 856.111,1026.95 859.719,1024.52 860.428,1024.06 870.327,1017.95 873.367,1016.19 881.228,1011.81 888.775,1007.78 891.197,1006.52 900.971,1001.54 913.588,995.289 915.978,994.12 923.342,990.54 928.094,988.244 932.002,986.362 932.743,986.006 957.25,974.295 963.277,971.428 967.125,969.599 969.762,968.346 970.244,968.117 986.771,960.273 992.701,957.461 992.94,957.347 1004.95,951.654 1044.98,932.685 1046.44,931.858 1075.51,916.651 1078.61,915.113 1110.42,899.686 1126.4,892.061 1144.56,883.428 1157.63,877.226 1192.05,860.909 1192.28,860.8 1196.03,859.024 1202.9,855.77 1211.25,851.811 1226.08,844.787 1228.34,843.718 1229.94,842.957 1230.4,842.739 1233.83,841.115 1236.17,839.795 1247.32,832.937 1247.65,832.746 1271.19,820.033 1279.35,815.265 1281.99,813.55 1285.41,811.407 1291.43,807.807 1293,806.898 1305.31,800.117 1317.84,792.714 1318.16,792.509 1322.95,789.466 1327.04,786.993 1327.62,786.649 1350.04,774.373 1355.14,771.764 1356.82,770.911 1363.99,767.322 1364.12,767.26 1365.23,766.71 1365.54,766.555 1373.81,762.487 1378.52,760.197 1387.15,756.025 1394.36,752.556 1398.52,750.564 1401.5,749.138 1409.34,745.396 1414.74,742.369 1416.46,741.274 1423.94,736.722 1424.56,736.357 1428.82,733.546 1440.41,726.528 1453.16,719.512 1467.43,712.159 1468.75,711.495 1478.87,706.469 1483.75,703.664 1490.09,700.163 1497.87,696.033 1500.94,694.441 1521.52,684.133 1522.23,683.784 1546.68,671.965 1554.09,668.418 1559.67,665.755 1564.6,663.407 1567.22,662.16 1573.7,659.079 1580.12,656.027 1597.03,648.005 1612.55,640.648 1627.11,633.746 1630.47,632.155 1633.43,630.749 1635.35,629.841 1640.61,627.351 1659.45,618.423 1692.45,602.791 1693.77,602.164 1707.73,595.554 1719.17,590.133 1743.6,578.558 1747.75,576.592 1755.9,572.733 1757.58,571.936 1758.78,571.37 1767.91,567.042 1789.21,556.953 1789.6,556.767 1794.9,554.257 1822.54,541.161 1829.7,537.77 1838.37,532.985 1842.73,530.663 1844.65,529.656 1844.67,529.647 1853.4,525.165 1855.7,524.001 1864.37,519.686 1870.5,516.671 1872.93,515.488 1903.76,500.656 1908.42,498.433 1915.26,495.177 1916.44,494.616 1922.54,491.717 1926.12,490.016 1929.56,488.382 1949.37,478.983 1956.23,475.173 1956.63,474.955 1965.42,469.606 1967.35,468.485 1971.74,466.007 1973.64,464.784 1981.73,459.846 1986.36,456.78 1996.78,450.439 1999.18,449.064 2009.07,443.622 2019.73,438.054 2023.84,435.965 2028.44,433.656 2029.39,433.183 2043.95,426.024 2047.04,424.524 2049.85,422.912 2054.71,420.202 2056.17,419.274 2059.33,417.306 2059.82,417.011 2059.89,416.964 2068.69,411.129 2071.38,409.466 2086.17,399.956 2095.17,394.818 2097.58,393.493 2102.35,390.929 2114.98,384.393 2115.46,384.148 2142.6,370.794 2144.91,369.468 2168.38,355.615 2172.66,353.332 2175.62,351.52 2179.04,349.186 2186.68,344.315 2188.17,343.417 2190.95,341.513 2208.83,330.633 2215.12,327.172 2228.62,320.105 2237.68,315.543 2240.7,314.044 2242.64,312.911 2242.81,312.811 2272.71,296.916 2293.3,286.795 2304.7,281.296 2306.84,280.269 2321.45,273.284 2331.17,268.656 2344.64,261.297 2351.11,257.937 2352.76,257.096 "/>
<polyline clip-path="url(#clip142)" style="stroke:#c68125; stroke-linecap:round; stroke-linejoin:round; stroke-width:4; stroke-opacity:1; fill:none" points="140.696,1384.24 140.696,1384.24 166.406,1372.06 168.072,1371.12 186.015,1360.37 188.867,1358.55 190.353,1357.48 195.95,1353.67 200.703,1350.65 204.446,1348.04 218.963,1338.99 221.316,1337.43 223.949,1335.49 232.918,1329.44 240.409,1324.25 244.72,1321.11 247.084,1319.48 259.823,1310.52 260.343,1310.18 278.85,1298.14 279.302,1297.88 280.841,1296.84 282.898,1295.49 286.144,1293.42 287.958,1292.3 288.868,1291.66 295.955,1286.36 302.491,1281.41 331.862,1263.53 340.568,1258.93 343.832,1256.96 362.238,1245.56 377.796,1237.14 378.736,1236.65 414.088,1219.11 416.057,1218.17 469.428,1190.8 471.133,1189.97 471.438,1189.83 498.179,1175.55 499.858,1174.71 502.66,1173.3 510.196,1169.57 511.378,1168.88 512.514,1168.12 536.566,1152.52 538.302,1151.53 547.058,1146.05 566.327,1134.1 570.657,1131.68 572.164,1130.72 583.236,1123.26 588.962,1119.77 594.971,1115.79 600.284,1112.05 609.029,1106.44 610.37,1105.63 615.479,1102.19 617.878,1100.43 624.032,1095.69 660.745,1071.97 676.033,1063.98 686.807,1058.58 697.865,1053.16 707.483,1048.51 722.721,1041.2 735.441,1034.21 739.009,1032.34 741.783,1030.65 749.154,1026.38 751.088,1025.29 752.01,1024.78 762.207,1018.53 772.55,1012.72 787.41,1003.9 812.746,990.629 824.72,983.831 826.314,982.821 838.793,975.436 855.153,965.569 855.666,965.282 856.111,964.992 859.719,962.694 860.428,962.253 870.327,956.401 873.367,954.427 881.228,949.617 888.775,945.305 891.197,943.969 900.971,938.758 913.588,932.324 915.978,930.917 923.342,926.744 928.094,923.752 932.002,921.399 932.743,920.962 957.25,907.668 963.277,904.614 967.125,902.689 969.762,901.38 970.244,901.142 986.771,893.067 992.701,889.713 992.94,889.559 1004.95,882.263 1044.98,859.668 1046.44,858.93 1075.51,844.672 1078.61,843.179 1110.42,826.382 1126.4,818.536 1144.56,809.786 1157.63,802.607 1192.05,783.669 1192.28,783.532 1196.03,781.323 1202.9,777.444 1211.25,772.283 1226.08,763.977 1228.34,762.778 1229.94,761.932 1230.4,761.691 1233.83,759.607 1236.17,758.221 1247.32,751.963 1247.65,751.785 1271.19,739.664 1279.35,735.64 1281.99,734.349 1285.41,732.685 1291.43,729.268 1293,728.256 1305.31,719.979 1317.84,712.612 1318.16,712.437 1322.95,709.806 1327.04,707.267 1327.62,706.915 1350.04,694.436 1355.14,691.803 1356.82,690.789 1363.99,686.638 1364.12,686.568 1365.23,685.946 1365.54,685.743 1373.81,679.946 1378.52,676.522 1387.15,670.127 1394.36,664.774 1398.52,661.585 1401.5,659.164 1409.34,653.362 1414.74,649.738 1416.46,648.638 1423.94,643.468 1424.56,643.002 1428.82,639.939 1440.41,632.436 1453.16,625.11 1467.43,616.57 1468.75,615.83 1478.87,609.579 1483.75,606.771 1490.09,603.266 1497.87,599.133 1500.94,597.268 1521.52,584.576 1522.23,584.178 1546.68,569.943 1554.09,566.054 1559.67,562.732 1564.6,559.924 1567.22,558.238 1573.7,553.734 1580.12,549.099 1597.03,537.439 1612.55,528.476 1627.11,519.798 1630.47,517.642 1633.43,515.541 1635.35,514.23 1640.61,510.356 1659.45,498.46 1692.45,481.107 1693.77,480.329 1707.73,471.59 1719.17,464.341 1743.6,450.954 1747.75,448.476 1755.9,443.204 1757.58,442.021 1758.78,441.088 1767.91,433.808 1789.21,418.841 1789.6,418.603 1794.9,415.013 1822.54,397.564 1829.7,393.106 1838.37,388.096 1842.73,385.69 1844.65,384.476 1844.67,384.466 1853.4,379.241 1855.7,377.717 1864.37,372.339 1870.5,368.787 1872.93,367.43 1903.76,351.459 1908.42,348.767 1915.26,344.419 1916.44,343.592 1922.54,339.019 1926.12,336.216 1929.56,333.376 1949.37,319.725 1956.23,315.689 1956.63,315.422 1965.42,309.884 1967.35,308.732 1971.74,306.19 1973.64,305.115 1981.73,300.686 1986.36,298.233 1996.78,292.096 1999.18,290.756 2009.07,285.423 2019.73,279.127 2023.84,276.839 2028.44,274.346 2029.39,273.753 2043.95,264.243 2047.04,262.413 2049.85,260.789 2054.71,258.06 2056.17,257.261 2059.33,255.546 2059.82,255.241 2059.89,255.199 2068.69,249.216 2071.38,247.279 2086.17,237.755 2095.17,232.612 2097.58,231.286 2102.35,228.313 2114.98,220.125 2115.46,219.833 2142.6,203.503 2144.91,202.263 2168.38,190.29 2172.66,188.182 2175.62,186.735 2179.04,185.068 2186.68,181.364 2188.17,180.649 2190.95,179.306 2208.83,170.749 2215.12,167.232 2228.62,159.129 2237.68,153.447 2240.7,151.398 2242.64,150.124 2242.81,150.013 2272.71,131.433 2293.3,120.741 2304.7,114.246 2306.84,112.889 2321.45,103.318 2331.17,97.7042 2344.64,90.4861 2351.11,87.1681 2352.76,86.1857 "/>
<polyline clip-path="url(#clip142)" style="stroke:#00a98d; stroke-linecap:round; stroke-linejoin:round; stroke-width:4; stroke-opacity:1; fill:none" points="140.696,1384.24 140.696,1384.24 166.406,1372.06 168.072,1371.27 186.015,1362.77 188.867,1361.42 190.353,1360.71 195.95,1357.59 200.703,1354.62 204.446,1352.38 218.963,1343.27 221.316,1341.91 223.949,1340.42 232.918,1334.83 240.409,1330.5 244.72,1328.12 247.084,1326.63 259.823,1319.15 260.343,1318.86 278.85,1309.05 279.302,1308.82 280.841,1308.04 282.898,1306.82 286.144,1304.93 287.958,1303.9 288.868,1303.38 295.955,1299.48 302.491,1296.02 331.862,1281.32 340.568,1277.11 343.832,1275.53 362.238,1266.72 377.796,1258.25 378.736,1257.68 414.088,1236.82 416.057,1235.8 469.428,1209.64 471.133,1208.67 471.438,1208.47 498.179,1192.94 499.858,1191.91 502.66,1190.21 510.196,1185.86 511.378,1185.2 512.514,1184.57 536.566,1172.02 538.302,1171.15 547.058,1166.82 566.327,1157.48 570.657,1155.4 572.164,1154.68 583.236,1149.39 588.962,1146.66 594.971,1143.8 600.284,1141.27 609.029,1137.12 610.37,1136.48 615.479,1134.06 617.878,1132.92 624.032,1130 660.745,1112.6 676.033,1104.31 686.807,1098.8 697.865,1092.48 707.483,1087.33 722.721,1079.57 735.441,1073.31 739.009,1071.57 741.783,1070.23 749.154,1066.67 751.088,1065.74 752.01,1065.3 762.207,1060.41 772.55,1055.48 787.41,1048.41 812.746,1036.39 824.72,1030.71 826.314,1029.96 838.793,1024.04 855.153,1016.29 855.666,1016.05 856.111,1015.84 859.719,1014.13 860.428,1013.79 870.327,1008.35 873.367,1006.73 881.228,1002.03 888.775,997.185 891.197,995.713 900.971,990.081 913.588,983.317 915.978,982.08 923.342,978.331 928.094,975.952 932.002,974.014 932.743,973.58 957.25,958.912 963.277,955.196 967.125,952.933 969.762,951.423 970.244,951.106 986.771,940.03 992.701,936.532 992.94,936.394 1004.95,929.774 1044.98,909.725 1046.44,909.019 1075.51,895.105 1078.61,893.629 1110.42,878.52 1126.4,870.945 1144.56,862.34 1157.63,856.148 1192.05,839.84 1192.28,839.731 1196.03,837.628 1202.9,833.342 1211.25,828.489 1226.08,820.512 1228.34,819.143 1229.94,818.039 1230.4,817.727 1233.83,815.463 1236.17,813.969 1247.32,807.327 1247.65,807.141 1271.19,794.64 1279.35,790.554 1281.99,789.247 1285.41,787.265 1291.43,783.894 1293,783.036 1305.31,776.548 1317.84,770.223 1318.16,770.067 1322.95,767.7 1327.04,765.697 1327.62,765.414 1350.04,753.245 1355.14,750.217 1356.82,749.245 1363.99,745.24 1364.12,745.161 1365.23,744.455 1365.54,744.259 1373.81,739.263 1378.52,736.581 1387.15,731.874 1394.36,728.091 1398.52,725.96 1401.5,724.45 1409.34,720.532 1414.74,717.87 1416.46,717.029 1423.94,713.385 1424.56,713.083 1428.82,711.024 1440.41,704.597 1453.16,697.958 1467.43,690.835 1468.75,690.186 1478.87,685.249 1483.75,682.889 1490.09,679.838 1497.87,676.111 1500.94,674.643 1521.52,664.841 1522.23,664.503 1546.68,652.897 1554.09,648.784 1559.67,645.803 1564.6,642.814 1567.22,641.281 1573.7,637.62 1580.12,634.137 1597.03,625.432 1612.55,617.773 1627.11,610.728 1630.47,609.114 1633.43,607.693 1635.35,606.6 1640.61,603.681 1659.45,592.629 1692.45,575.765 1693.77,575.117 1707.73,568.348 1719.17,562.854 1743.6,549.802 1747.75,547.711 1755.9,543.664 1757.58,542.836 1758.78,542.25 1767.91,537.796 1789.21,527.554 1789.6,527.33 1794.9,524.361 1822.54,510.053 1829.7,506.526 1838.37,502.305 1842.73,500.195 1844.65,499.269 1844.67,499.261 1853.4,494.384 1855.7,493.139 1864.37,488.586 1870.5,484.943 1872.93,483.338 1903.76,465.757 1908.42,463.362 1915.26,459.909 1916.44,459.32 1922.54,456.296 1926.12,454.537 1929.56,452.856 1949.37,443.287 1956.23,440.005 1956.63,439.812 1965.42,435.62 1967.35,434.698 1971.74,432.234 1973.64,431.189 1981.73,426.86 1986.36,424.45 1996.78,419.17 1999.18,417.761 2009.07,412.212 2019.73,406.571 2023.84,404.462 2028.44,402.135 2029.39,401.66 2043.95,394.463 2047.04,392.958 2049.85,391.592 2054.71,388.827 2056.17,388.019 2059.33,386.284 2059.82,386.022 2059.89,385.986 2068.69,381.325 2071.38,379.937 2086.17,372.492 2095.17,367.379 2097.58,366.06 2102.35,363.504 2114.98,356.985 2115.46,356.695 2142.6,341.902 2144.91,340.725 2168.38,329.13 2172.66,326.689 2175.62,325.046 2179.04,323.183 2186.68,318.523 2188.17,317.657 2190.95,316.058 2208.83,305.275 2215.12,301.832 2228.62,294.793 2237.68,290.241 2240.7,288.745 2242.64,287.789 2242.81,287.704 2272.71,273.239 2293.3,263.422 2304.7,258.003 2306.84,256.987 2321.45,250.054 2331.17,245.446 2344.64,239.061 2351.11,235.996 2352.76,235.217 "/>
<polyline clip-path="url(#clip142)" style="stroke:#8e971d; stroke-linecap:round; stroke-linejoin:round; stroke-width:4; stroke-opacity:1; fill:none" points="140.696,1384.24 140.696,1384.24 166.406,1372.06 168.072,1371.12 186.015,1360.37 188.867,1358.55 190.353,1357.48 195.95,1353.67 200.703,1350.65 204.446,1348.04 218.963,1338.99 221.316,1337.64 223.949,1335.92 232.918,1330.42 240.409,1325.55 244.72,1322.56 247.084,1320.99 259.823,1313.21 260.343,1312.91 278.85,1302.9 279.302,1302.66 280.841,1301.73 282.898,1300.5 286.144,1298.62 287.958,1297.58 288.868,1296.98 295.955,1291.96 302.491,1287.19 331.862,1269.7 340.568,1265.15 343.832,1263.49 362.238,1253.15 377.796,1245.15 378.736,1244.68 414.088,1227.46 416.057,1226.52 469.428,1201.13 471.133,1200.32 471.438,1200.18 498.179,1187.51 499.858,1186.71 502.66,1185.38 510.196,1181.81 511.378,1181.14 512.514,1180.51 536.566,1167.86 538.302,1166.98 547.058,1161.96 566.327,1151.77 570.657,1149.59 572.164,1148.69 583.236,1142.44 588.962,1139.38 594.971,1135.75 600.284,1132.25 609.029,1126.92 610.37,1126.14 615.479,1122.81 617.878,1121.1 624.032,1116.96 660.745,1096.48 676.033,1088.87 686.807,1083.63 697.865,1078.3 707.483,1073.69 722.721,1066.43 735.441,1060.39 739.009,1058.69 741.783,1057.13 749.154,1053.11 751.088,1052.08 752.01,1051.59 762.207,1045.55 772.55,1039.87 787.41,1031.17 812.746,1017.98 824.72,1011.2 826.314,1010.19 838.793,1002.81 855.153,994.048 855.666,993.784 856.111,993.555 859.719,991.712 860.428,991.353 870.327,986.399 873.367,984.899 881.228,981.053 888.775,977.394 891.197,976.226 900.971,971.53 913.588,965.502 915.978,964.148 923.342,960.109 928.094,957.183 932.002,954.874 932.743,954.446 957.25,941.301 963.277,938.265 967.125,936.349 969.762,935.045 970.244,934.807 986.771,926.755 992.701,923.405 992.94,923.273 1004.95,916.853 1044.98,897.039 1046.44,896.335 1075.51,882.453 1078.61,880.978 1110.42,865.877 1126.4,858.304 1144.56,849.699 1157.63,842.571 1192.05,825.342 1192.28,825.231 1196.03,823.416 1202.9,820.108 1211.25,815.441 1226.08,807.662 1228.34,806.517 1229.94,805.705 1230.4,805.474 1233.83,803.455 1236.17,802.109 1247.32,795.99 1247.65,795.815 1271.19,783.832 1279.35,779.83 1281.99,778.545 1285.41,776.887 1291.43,773.979 1293,773.079 1305.31,766.345 1317.84,759.878 1318.16,759.72 1322.95,757.316 1327.04,754.935 1327.62,754.603 1350.04,742.61 1355.14,740.035 1356.82,739.191 1363.99,735.635 1364.12,735.573 1365.23,735.027 1365.54,734.845 1373.81,730.156 1378.52,727.603 1387.15,723.073 1394.36,718.811 1398.52,716.466 1401.5,714.56 1409.34,709.826 1414.74,706.746 1416.46,705.793 1423.94,701.748 1424.56,701.418 1428.82,699.189 1440.41,693.291 1453.16,686.989 1467.43,680.073 1468.75,679.437 1478.87,674.578 1483.75,672.246 1490.09,669.222 1497.87,665.52 1500.94,663.787 1521.52,651.636 1522.23,651.249 1546.68,637.243 1554.09,633.387 1559.67,630.55 1564.6,628.081 1567.22,626.546 1573.7,622.882 1580.12,619.397 1597.03,609.567 1612.55,601.411 1627.11,593.117 1630.47,591.315 1633.43,589.485 1635.35,588.33 1640.61,584.822 1659.45,573.713 1692.45,556.814 1693.77,556.166 1707.73,549.393 1719.17,543.897 1743.6,532.248 1747.75,529.917 1755.9,524.867 1757.58,523.873 1758.78,523.066 1767.91,516.558 1789.21,502.527 1789.6,502.298 1794.9,499.277 1822.54,483.33 1829.7,479.04 1838.37,474.172 1842.73,471.819 1844.65,470.8 1844.67,470.791 1853.4,466.266 1855.7,464.886 1864.37,459.932 1870.5,456.594 1872.93,455.306 1903.76,439.79 1908.42,437.126 1915.26,433.368 1916.44,432.626 1922.54,428.426 1926.12,425.798 1929.56,423.103 1949.37,409.96 1956.23,406.018 1956.63,405.755 1965.42,400.301 1967.35,399.162 1971.74,396.649 1973.64,395.585 1981.73,391.192 1986.36,388.755 1996.78,383.431 1999.18,382.229 2009.07,377.335 2019.73,372.14 2023.84,370.153 2028.44,367.938 2029.39,367.483 2043.95,359.5 2047.04,357.885 2049.85,356.431 2054.71,353.951 2056.17,353.217 2059.33,351.628 2059.82,351.341 2059.89,351.301 2068.69,345.582 2071.38,343.946 2086.17,335.564 2095.17,330.822 2097.58,329.578 2102.35,327.152 2114.98,319.953 2115.46,319.689 2142.6,305.736 2144.91,304.594 2168.38,293.206 2172.66,291.153 2175.62,289.738 2179.04,288.103 2186.68,284.455 2188.17,283.749 2190.95,282.421 2208.83,273.926 2215.12,270.941 2228.62,264.537 2237.68,260.241 2240.7,258.542 2242.64,257.469 2242.81,257.374 2272.71,241.969 2293.3,231.953 2304.7,226.481 2306.84,225.458 2321.45,217.476 2331.17,212.468 2344.64,205.752 2351.11,202.586 2352.76,201.636 "/>
<path clip-path="url(#clip140)" d="M214.431 663.349 L554.896 663.349 L554.896 93.1086 L214.431 93.1086  Z" fill="#ffffff" fill-rule="evenodd" fill-opacity="1"/>
<polyline clip-path="url(#clip140)" style="stroke:#000000; stroke-linecap:round; stroke-linejoin:round; stroke-width:4; stroke-opacity:1; fill:none" points="214.431,663.349 554.896,663.349 554.896,93.1086 214.431,93.1086 214.431,663.349 "/>
<polyline clip-path="url(#clip140)" style="stroke:#009af9; stroke-linecap:round; stroke-linejoin:round; stroke-width:4; stroke-opacity:1; fill:none" points="239.009,144.949 386.48,144.949 "/>
<path clip-path="url(#clip140)" d="M411.058 151.997 L411.058 136.303 L415.318 136.303 L415.318 151.835 Q415.318 155.516 416.753 157.368 Q418.188 159.196 421.058 159.196 Q424.507 159.196 426.498 156.997 Q428.512 154.798 428.512 151.002 L428.512 136.303 L432.771 136.303 L432.771 162.229 L428.512 162.229 L428.512 158.247 Q426.961 160.608 424.901 161.766 Q422.864 162.9 420.156 162.9 Q415.688 162.9 413.373 160.122 Q411.058 157.344 411.058 151.997 M421.776 135.678 L421.776 135.678 Z" fill="#000000" fill-rule="nonzero" fill-opacity="1" /><path clip-path="url(#clip140)" d="M441.151 126.21 L450.966 126.21 L450.966 129.52 L445.41 129.52 L445.41 165.168 L450.966 165.168 L450.966 168.479 L441.151 168.479 L441.151 126.21 Z" fill="#000000" fill-rule="nonzero" fill-opacity="1" /><path clip-path="url(#clip140)" d="M461.452 158.293 L469.091 158.293 L469.091 131.928 L460.78 133.595 L460.78 129.335 L469.044 127.669 L473.72 127.669 L473.72 158.293 L481.359 158.293 L481.359 162.229 L461.452 162.229 L461.452 158.293 Z" fill="#000000" fill-rule="nonzero" fill-opacity="1" /><path clip-path="url(#clip140)" d="M500.155 126.21 L500.155 168.479 L490.34 168.479 L490.34 165.168 L495.873 165.168 L495.873 129.52 L490.34 129.52 L490.34 126.21 L500.155 126.21 Z" fill="#000000" fill-rule="nonzero" fill-opacity="1" /><polyline clip-path="url(#clip140)" style="stroke:#e26f46; stroke-linecap:round; stroke-linejoin:round; stroke-width:4; stroke-opacity:1; fill:none" points="239.009,196.789 386.48,196.789 "/>
<path clip-path="url(#clip140)" d="M411.058 203.837 L411.058 188.143 L415.318 188.143 L415.318 203.675 Q415.318 207.356 416.753 209.208 Q418.188 211.036 421.058 211.036 Q424.507 211.036 426.498 208.837 Q428.512 206.638 428.512 202.842 L428.512 188.143 L432.771 188.143 L432.771 214.069 L428.512 214.069 L428.512 210.087 Q426.961 212.448 424.901 213.606 Q422.864 214.74 420.156 214.74 Q415.688 214.74 413.373 211.962 Q411.058 209.184 411.058 203.837 M421.776 187.518 L421.776 187.518 Z" fill="#000000" fill-rule="nonzero" fill-opacity="1" /><path clip-path="url(#clip140)" d="M441.151 178.05 L450.966 178.05 L450.966 181.36 L445.41 181.36 L445.41 217.008 L450.966 217.008 L450.966 220.319 L441.151 220.319 L441.151 178.05 Z" fill="#000000" fill-rule="nonzero" fill-opacity="1" /><path clip-path="url(#clip140)" d="M464.669 210.133 L480.989 210.133 L480.989 214.069 L459.044 214.069 L459.044 210.133 Q461.706 207.379 466.29 202.749 Q470.896 198.096 472.077 196.754 Q474.322 194.231 475.202 192.495 Q476.104 190.735 476.104 189.046 Q476.104 186.291 474.16 184.555 Q472.239 182.819 469.137 182.819 Q466.938 182.819 464.484 183.583 Q462.054 184.347 459.276 185.897 L459.276 181.175 Q462.1 180.041 464.554 179.462 Q467.007 178.884 469.044 178.884 Q474.415 178.884 477.609 181.569 Q480.803 184.254 480.803 188.745 Q480.803 190.874 479.993 192.796 Q479.206 194.694 477.1 197.286 Q476.521 197.958 473.419 201.175 Q470.317 204.37 464.669 210.133 Z" fill="#000000" fill-rule="nonzero" fill-opacity="1" /><path clip-path="url(#clip140)" d="M500.155 178.05 L500.155 220.319 L490.34 220.319 L490.34 217.008 L495.873 217.008 L495.873 181.36 L490.34 181.36 L490.34 178.05 L500.155 178.05 Z" fill="#000000" fill-rule="nonzero" fill-opacity="1" /><polyline clip-path="url(#clip140)" style="stroke:#3da44d; stroke-linecap:round; stroke-linejoin:round; stroke-width:4; stroke-opacity:1; fill:none" points="239.009,248.629 386.48,248.629 "/>
<path clip-path="url(#clip140)" d="M411.058 255.677 L411.058 239.983 L415.318 239.983 L415.318 255.515 Q415.318 259.196 416.753 261.048 Q418.188 262.876 421.058 262.876 Q424.507 262.876 426.498 260.677 Q428.512 258.478 428.512 254.682 L428.512 239.983 L432.771 239.983 L432.771 265.909 L428.512 265.909 L428.512 261.927 Q426.961 264.288 424.901 265.446 Q422.864 266.58 420.156 266.58 Q415.688 266.58 413.373 263.802 Q411.058 261.024 411.058 255.677 M421.776 239.358 L421.776 239.358 Z" fill="#000000" fill-rule="nonzero" fill-opacity="1" /><path clip-path="url(#clip140)" d="M441.151 229.89 L450.966 229.89 L450.966 233.2 L445.41 233.2 L445.41 268.848 L450.966 268.848 L450.966 272.159 L441.151 272.159 L441.151 229.89 Z" fill="#000000" fill-rule="nonzero" fill-opacity="1" /><path clip-path="url(#clip140)" d="M474.808 247.274 Q478.165 247.992 480.04 250.261 Q481.938 252.529 481.938 255.862 Q481.938 260.978 478.419 263.779 Q474.901 266.58 468.419 266.58 Q466.243 266.58 463.929 266.14 Q461.637 265.723 459.183 264.867 L459.183 260.353 Q461.128 261.487 463.442 262.066 Q465.757 262.645 468.28 262.645 Q472.679 262.645 474.97 260.909 Q477.285 259.173 477.285 255.862 Q477.285 252.807 475.132 251.094 Q473.003 249.358 469.183 249.358 L465.155 249.358 L465.155 245.515 L469.368 245.515 Q472.817 245.515 474.646 244.149 Q476.475 242.761 476.475 240.168 Q476.475 237.506 474.577 236.094 Q472.702 234.659 469.183 234.659 Q467.262 234.659 465.063 235.075 Q462.864 235.492 460.225 236.372 L460.225 232.205 Q462.887 231.464 465.202 231.094 Q467.54 230.724 469.6 230.724 Q474.924 230.724 478.026 233.154 Q481.128 235.562 481.128 239.682 Q481.128 242.552 479.484 244.543 Q477.841 246.511 474.808 247.274 Z" fill="#000000" fill-rule="nonzero" fill-opacity="1" /><path clip-path="url(#clip140)" d="M500.155 229.89 L500.155 272.159 L490.34 272.159 L490.34 268.848 L495.873 268.848 L495.873 233.2 L490.34 233.2 L490.34 229.89 L500.155 229.89 Z" fill="#000000" fill-rule="nonzero" fill-opacity="1" /><polyline clip-path="url(#clip140)" style="stroke:#c271d2; stroke-linecap:round; stroke-linejoin:round; stroke-width:4; stroke-opacity:1; fill:none" points="239.009,300.469 386.48,300.469 "/>
<path clip-path="url(#clip140)" d="M411.058 307.517 L411.058 291.823 L415.318 291.823 L415.318 307.355 Q415.318 311.036 416.753 312.888 Q418.188 314.716 421.058 314.716 Q424.507 314.716 426.498 312.517 Q428.512 310.318 428.512 306.522 L428.512 291.823 L432.771 291.823 L432.771 317.749 L428.512 317.749 L428.512 313.767 Q426.961 316.128 424.901 317.286 Q422.864 318.42 420.156 318.42 Q415.688 318.42 413.373 315.642 Q411.058 312.864 411.058 307.517 M421.776 291.198 L421.776 291.198 Z" fill="#000000" fill-rule="nonzero" fill-opacity="1" /><path clip-path="url(#clip140)" d="M441.151 281.73 L450.966 281.73 L450.966 285.04 L445.41 285.04 L445.41 320.688 L450.966 320.688 L450.966 323.999 L441.151 323.999 L441.151 281.73 Z" fill="#000000" fill-rule="nonzero" fill-opacity="1" /><path clip-path="url(#clip140)" d="M473.489 287.263 L461.683 305.712 L473.489 305.712 L473.489 287.263 M472.262 283.189 L478.141 283.189 L478.141 305.712 L483.072 305.712 L483.072 309.601 L478.141 309.601 L478.141 317.749 L473.489 317.749 L473.489 309.601 L457.887 309.601 L457.887 305.087 L472.262 283.189 Z" fill="#000000" fill-rule="nonzero" fill-opacity="1" /><path clip-path="url(#clip140)" d="M500.155 281.73 L500.155 323.999 L490.34 323.999 L490.34 320.688 L495.873 320.688 L495.873 285.04 L490.34 285.04 L490.34 281.73 L500.155 281.73 Z" fill="#000000" fill-rule="nonzero" fill-opacity="1" /><polyline clip-path="url(#clip140)" style="stroke:#ac8d18; stroke-linecap:round; stroke-linejoin:round; stroke-width:4; stroke-opacity:1; fill:none" points="239.009,352.309 386.48,352.309 "/>
<path clip-path="url(#clip140)" d="M411.058 359.357 L411.058 343.663 L415.318 343.663 L415.318 359.195 Q415.318 362.876 416.753 364.728 Q418.188 366.556 421.058 366.556 Q424.507 366.556 426.498 364.357 Q428.512 362.158 428.512 358.362 L428.512 343.663 L432.771 343.663 L432.771 369.589 L428.512 369.589 L428.512 365.607 Q426.961 367.968 424.901 369.126 Q422.864 370.26 420.156 370.26 Q415.688 370.26 413.373 367.482 Q411.058 364.704 411.058 359.357 M421.776 343.038 L421.776 343.038 Z" fill="#000000" fill-rule="nonzero" fill-opacity="1" /><path clip-path="url(#clip140)" d="M441.151 333.57 L450.966 333.57 L450.966 336.88 L445.41 336.88 L445.41 372.528 L450.966 372.528 L450.966 375.839 L441.151 375.839 L441.151 333.57 Z" fill="#000000" fill-rule="nonzero" fill-opacity="1" /><path clip-path="url(#clip140)" d="M460.688 335.029 L479.044 335.029 L479.044 338.964 L464.97 338.964 L464.97 347.436 Q465.989 347.089 467.007 346.927 Q468.026 346.742 469.044 346.742 Q474.831 346.742 478.211 349.913 Q481.591 353.084 481.591 358.501 Q481.591 364.079 478.118 367.181 Q474.646 370.26 468.327 370.26 Q466.151 370.26 463.882 369.89 Q461.637 369.519 459.23 368.778 L459.23 364.079 Q461.313 365.214 463.535 365.769 Q465.757 366.325 468.234 366.325 Q472.239 366.325 474.577 364.218 Q476.915 362.112 476.915 358.501 Q476.915 354.89 474.577 352.783 Q472.239 350.677 468.234 350.677 Q466.359 350.677 464.484 351.093 Q462.632 351.51 460.688 352.39 L460.688 335.029 Z" fill="#000000" fill-rule="nonzero" fill-opacity="1" /><path clip-path="url(#clip140)" d="M500.155 333.57 L500.155 375.839 L490.34 375.839 L490.34 372.528 L495.873 372.528 L495.873 336.88 L490.34 336.88 L490.34 333.57 L500.155 333.57 Z" fill="#000000" fill-rule="nonzero" fill-opacity="1" /><polyline clip-path="url(#clip140)" style="stroke:#00a9ad; stroke-linecap:round; stroke-linejoin:round; stroke-width:4; stroke-opacity:1; fill:none" points="239.009,404.149 386.48,404.149 "/>
<path clip-path="url(#clip140)" d="M411.058 411.197 L411.058 395.503 L415.318 395.503 L415.318 411.035 Q415.318 414.716 416.753 416.568 Q418.188 418.396 421.058 418.396 Q424.507 418.396 426.498 416.197 Q428.512 413.998 428.512 410.202 L428.512 395.503 L432.771 395.503 L432.771 421.429 L428.512 421.429 L428.512 417.447 Q426.961 419.808 424.901 420.966 Q422.864 422.1 420.156 422.1 Q415.688 422.1 413.373 419.322 Q411.058 416.544 411.058 411.197 M421.776 394.878 L421.776 394.878 Z" fill="#000000" fill-rule="nonzero" fill-opacity="1" /><path clip-path="url(#clip140)" d="M441.151 385.41 L450.966 385.41 L450.966 388.72 L445.41 388.72 L445.41 424.368 L450.966 424.368 L450.966 427.679 L441.151 427.679 L441.151 385.41 Z" fill="#000000" fill-rule="nonzero" fill-opacity="1" /><path clip-path="url(#clip140)" d="M471.22 402.285 Q468.072 402.285 466.22 404.438 Q464.392 406.591 464.392 410.341 Q464.392 414.068 466.22 416.243 Q468.072 418.396 471.22 418.396 Q474.368 418.396 476.197 416.243 Q478.049 414.068 478.049 410.341 Q478.049 406.591 476.197 404.438 Q474.368 402.285 471.22 402.285 M480.503 387.633 L480.503 391.892 Q478.743 391.058 476.938 390.619 Q475.155 390.179 473.396 390.179 Q468.766 390.179 466.313 393.304 Q463.882 396.429 463.535 402.748 Q464.901 400.734 466.961 399.669 Q469.021 398.582 471.498 398.582 Q476.706 398.582 479.716 401.753 Q482.748 404.901 482.748 410.341 Q482.748 415.665 479.6 418.882 Q476.452 422.1 471.22 422.1 Q465.225 422.1 462.054 417.517 Q458.882 412.91 458.882 404.183 Q458.882 395.989 462.771 391.128 Q466.66 386.244 473.211 386.244 Q474.97 386.244 476.753 386.591 Q478.558 386.938 480.503 387.633 Z" fill="#000000" fill-rule="nonzero" fill-opacity="1" /><path clip-path="url(#clip140)" d="M500.155 385.41 L500.155 427.679 L490.34 427.679 L490.34 424.368 L495.873 424.368 L495.873 388.72 L490.34 388.72 L490.34 385.41 L500.155 385.41 Z" fill="#000000" fill-rule="nonzero" fill-opacity="1" /><polyline clip-path="url(#clip140)" style="stroke:#ed5d92; stroke-linecap:round; stroke-linejoin:round; stroke-width:4; stroke-opacity:1; fill:none" points="239.009,455.989 386.48,455.989 "/>
<path clip-path="url(#clip140)" d="M411.058 463.037 L411.058 447.343 L415.318 447.343 L415.318 462.875 Q415.318 466.556 416.753 468.408 Q418.188 470.236 421.058 470.236 Q424.507 470.236 426.498 468.037 Q428.512 465.838 428.512 462.042 L428.512 447.343 L432.771 447.343 L432.771 473.269 L428.512 473.269 L428.512 469.287 Q426.961 471.648 424.901 472.806 Q422.864 473.94 420.156 473.94 Q415.688 473.94 413.373 471.162 Q411.058 468.384 411.058 463.037 M421.776 446.718 L421.776 446.718 Z" fill="#000000" fill-rule="nonzero" fill-opacity="1" /><path clip-path="url(#clip140)" d="M441.151 437.25 L450.966 437.25 L450.966 440.56 L445.41 440.56 L445.41 476.208 L450.966 476.208 L450.966 479.519 L441.151 479.519 L441.151 437.25 Z" fill="#000000" fill-rule="nonzero" fill-opacity="1" /><path clip-path="url(#clip140)" d="M459.461 438.709 L481.683 438.709 L481.683 440.699 L469.137 473.269 L464.253 473.269 L476.058 442.644 L459.461 442.644 L459.461 438.709 Z" fill="#000000" fill-rule="nonzero" fill-opacity="1" /><path clip-path="url(#clip140)" d="M500.155 437.25 L500.155 479.519 L490.34 479.519 L490.34 476.208 L495.873 476.208 L495.873 440.56 L490.34 440.56 L490.34 437.25 L500.155 437.25 Z" fill="#000000" fill-rule="nonzero" fill-opacity="1" /><polyline clip-path="url(#clip140)" style="stroke:#c68125; stroke-linecap:round; stroke-linejoin:round; stroke-width:4; stroke-opacity:1; fill:none" points="239.009,507.829 386.48,507.829 "/>
<path clip-path="url(#clip140)" d="M411.058 514.877 L411.058 499.183 L415.318 499.183 L415.318 514.715 Q415.318 518.396 416.753 520.248 Q418.188 522.076 421.058 522.076 Q424.507 522.076 426.498 519.877 Q428.512 517.678 428.512 513.882 L428.512 499.183 L432.771 499.183 L432.771 525.109 L428.512 525.109 L428.512 521.127 Q426.961 523.488 424.901 524.646 Q422.864 525.78 420.156 525.78 Q415.688 525.78 413.373 523.002 Q411.058 520.224 411.058 514.877 M421.776 498.558 L421.776 498.558 Z" fill="#000000" fill-rule="nonzero" fill-opacity="1" /><path clip-path="url(#clip140)" d="M441.151 489.09 L450.966 489.09 L450.966 492.4 L445.41 492.4 L445.41 528.048 L450.966 528.048 L450.966 531.359 L441.151 531.359 L441.151 489.09 Z" fill="#000000" fill-rule="nonzero" fill-opacity="1" /><path clip-path="url(#clip140)" d="M470.641 508.697 Q467.308 508.697 465.387 510.479 Q463.489 512.261 463.489 515.386 Q463.489 518.511 465.387 520.294 Q467.308 522.076 470.641 522.076 Q473.975 522.076 475.896 520.294 Q477.817 518.488 477.817 515.386 Q477.817 512.261 475.896 510.479 Q473.998 508.697 470.641 508.697 M465.966 506.706 Q462.956 505.965 461.267 503.905 Q459.6 501.845 459.6 498.882 Q459.6 494.738 462.54 492.331 Q465.503 489.924 470.641 489.924 Q475.803 489.924 478.743 492.331 Q481.683 494.738 481.683 498.882 Q481.683 501.845 479.993 503.905 Q478.327 505.965 475.341 506.706 Q478.72 507.493 480.595 509.785 Q482.493 512.076 482.493 515.386 Q482.493 520.41 479.415 523.095 Q476.359 525.78 470.641 525.78 Q464.924 525.78 461.845 523.095 Q458.79 520.41 458.79 515.386 Q458.79 512.076 460.688 509.785 Q462.586 507.493 465.966 506.706 M464.253 499.322 Q464.253 502.007 465.919 503.512 Q467.609 505.016 470.641 505.016 Q473.651 505.016 475.341 503.512 Q477.053 502.007 477.053 499.322 Q477.053 496.637 475.341 495.132 Q473.651 493.627 470.641 493.627 Q467.609 493.627 465.919 495.132 Q464.253 496.637 464.253 499.322 Z" fill="#000000" fill-rule="nonzero" fill-opacity="1" /><path clip-path="url(#clip140)" d="M500.155 489.09 L500.155 531.359 L490.34 531.359 L490.34 528.048 L495.873 528.048 L495.873 492.4 L490.34 492.4 L490.34 489.09 L500.155 489.09 Z" fill="#000000" fill-rule="nonzero" fill-opacity="1" /><polyline clip-path="url(#clip140)" style="stroke:#00a98d; stroke-linecap:round; stroke-linejoin:round; stroke-width:4; stroke-opacity:1; fill:none" points="239.009,559.669 386.48,559.669 "/>
<path clip-path="url(#clip140)" d="M411.058 566.717 L411.058 551.023 L415.318 551.023 L415.318 566.555 Q415.318 570.236 416.753 572.088 Q418.188 573.916 421.058 573.916 Q424.507 573.916 426.498 571.717 Q428.512 569.518 428.512 565.722 L428.512 551.023 L432.771 551.023 L432.771 576.949 L428.512 576.949 L428.512 572.967 Q426.961 575.328 424.901 576.486 Q422.864 577.62 420.156 577.62 Q415.688 577.62 413.373 574.842 Q411.058 572.064 411.058 566.717 M421.776 550.398 L421.776 550.398 Z" fill="#000000" fill-rule="nonzero" fill-opacity="1" /><path clip-path="url(#clip140)" d="M441.151 540.93 L450.966 540.93 L450.966 544.24 L445.41 544.24 L445.41 579.888 L450.966 579.888 L450.966 583.199 L441.151 583.199 L441.151 540.93 Z" fill="#000000" fill-rule="nonzero" fill-opacity="1" /><path clip-path="url(#clip140)" d="M460.78 576.231 L460.78 571.972 Q462.54 572.805 464.345 573.245 Q466.151 573.685 467.887 573.685 Q472.516 573.685 474.947 570.583 Q477.401 567.458 477.748 561.115 Q476.405 563.106 474.345 564.171 Q472.285 565.236 469.785 565.236 Q464.6 565.236 461.567 562.111 Q458.558 558.963 458.558 553.523 Q458.558 548.199 461.706 544.981 Q464.854 541.764 470.086 541.764 Q476.081 541.764 479.229 546.37 Q482.401 550.953 482.401 559.703 Q482.401 567.875 478.512 572.759 Q474.646 577.62 468.095 577.62 Q466.336 577.62 464.53 577.273 Q462.725 576.925 460.78 576.231 M470.086 561.578 Q473.234 561.578 475.063 559.426 Q476.915 557.273 476.915 553.523 Q476.915 549.796 475.063 547.643 Q473.234 545.467 470.086 545.467 Q466.938 545.467 465.086 547.643 Q463.257 549.796 463.257 553.523 Q463.257 557.273 465.086 559.426 Q466.938 561.578 470.086 561.578 Z" fill="#000000" fill-rule="nonzero" fill-opacity="1" /><path clip-path="url(#clip140)" d="M500.155 540.93 L500.155 583.199 L490.34 583.199 L490.34 579.888 L495.873 579.888 L495.873 544.24 L490.34 544.24 L490.34 540.93 L500.155 540.93 Z" fill="#000000" fill-rule="nonzero" fill-opacity="1" /><polyline clip-path="url(#clip140)" style="stroke:#8e971d; stroke-linecap:round; stroke-linejoin:round; stroke-width:4; stroke-opacity:1; fill:none" points="239.009,611.509 386.48,611.509 "/>
<path clip-path="url(#clip140)" d="M411.058 618.557 L411.058 602.863 L415.318 602.863 L415.318 618.395 Q415.318 622.076 416.753 623.928 Q418.188 625.756 421.058 625.756 Q424.507 625.756 426.498 623.557 Q428.512 621.358 428.512 617.562 L428.512 602.863 L432.771 602.863 L432.771 628.789 L428.512 628.789 L428.512 624.807 Q426.961 627.168 424.901 628.326 Q422.864 629.46 420.156 629.46 Q415.688 629.46 413.373 626.682 Q411.058 623.904 411.058 618.557 M421.776 602.238 L421.776 602.238 Z" fill="#000000" fill-rule="nonzero" fill-opacity="1" /><path clip-path="url(#clip140)" d="M441.151 592.77 L450.966 592.77 L450.966 596.08 L445.41 596.08 L445.41 631.728 L450.966 631.728 L450.966 635.039 L441.151 635.039 L441.151 592.77 Z" fill="#000000" fill-rule="nonzero" fill-opacity="1" /><path clip-path="url(#clip140)" d="M461.452 624.853 L469.091 624.853 L469.091 598.488 L460.78 600.155 L460.78 595.895 L469.044 594.229 L473.72 594.229 L473.72 624.853 L481.359 624.853 L481.359 628.789 L461.452 628.789 L461.452 624.853 Z" fill="#000000" fill-rule="nonzero" fill-opacity="1" /><path clip-path="url(#clip140)" d="M500.803 597.307 Q497.192 597.307 495.364 600.872 Q493.558 604.414 493.558 611.543 Q493.558 618.65 495.364 622.215 Q497.192 625.756 500.803 625.756 Q504.438 625.756 506.243 622.215 Q508.072 618.65 508.072 611.543 Q508.072 604.414 506.243 600.872 Q504.438 597.307 500.803 597.307 M500.803 593.604 Q506.614 593.604 509.669 598.21 Q512.748 602.793 512.748 611.543 Q512.748 620.27 509.669 624.877 Q506.614 629.46 500.803 629.46 Q494.993 629.46 491.915 624.877 Q488.859 620.27 488.859 611.543 Q488.859 602.793 491.915 598.21 Q494.993 593.604 500.803 593.604 Z" fill="#000000" fill-rule="nonzero" fill-opacity="1" /><path clip-path="url(#clip140)" d="M530.317 592.77 L530.317 635.039 L520.502 635.039 L520.502 631.728 L526.035 631.728 L526.035 596.08 L520.502 596.08 L520.502 592.77 L530.317 592.77 Z" fill="#000000" fill-rule="nonzero" fill-opacity="1" /></svg>
