<?xml version="1.0" encoding="utf-8"?>
<svg xmlns="http://www.w3.org/2000/svg" xmlns:xlink="http://www.w3.org/1999/xlink" width="600" height="400" viewBox="0 0 2400 1600">
<defs>
  <clipPath id="clip030">
    <rect x="0" y="0" width="2400" height="1600"/>
  </clipPath>
</defs>
<path clip-path="url(#clip030)" d="M0 1600 L2400 1600 L2400 0 L0 0  Z" fill="#ffffff" fill-rule="evenodd" fill-opacity="1"/>
<defs>
  <clipPath id="clip031">
    <rect x="480" y="0" width="1681" height="1600"/>
  </clipPath>
</defs>
<path clip-path="url(#clip030)" d="M140.696 1423.18 L2352.76 1423.18 L2352.76 47.2441 L140.696 47.2441  Z" fill="#ffffff" fill-rule="evenodd" fill-opacity="1"/>
<defs>
  <clipPath id="clip032">
    <rect x="140" y="47" width="2213" height="1377"/>
  </clipPath>
</defs>
<polyline clip-path="url(#clip032)" style="stroke:#000000; stroke-linecap:round; stroke-linejoin:round; stroke-width:2; stroke-opacity:0.1; fill:none" points="140.696,1423.18 140.696,47.2441 "/>
<polyline clip-path="url(#clip032)" style="stroke:#000000; stroke-linecap:round; stroke-linejoin:round; stroke-width:2; stroke-opacity:0.1; fill:none" points="583.108,1423.18 583.108,47.2441 "/>
<polyline clip-path="url(#clip032)" style="stroke:#000000; stroke-linecap:round; stroke-linejoin:round; stroke-width:2; stroke-opacity:0.1; fill:none" points="1025.52,1423.18 1025.52,47.2441 "/>
<polyline clip-path="url(#clip032)" style="stroke:#000000; stroke-linecap:round; stroke-linejoin:round; stroke-width:2; stroke-opacity:0.1; fill:none" points="1467.93,1423.18 1467.93,47.2441 "/>
<polyline clip-path="url(#clip032)" style="stroke:#000000; stroke-linecap:round; stroke-linejoin:round; stroke-width:2; stroke-opacity:0.1; fill:none" points="1910.34,1423.18 1910.34,47.2441 "/>
<polyline clip-path="url(#clip032)" style="stroke:#000000; stroke-linecap:round; stroke-linejoin:round; stroke-width:2; stroke-opacity:0.1; fill:none" points="2352.76,1423.18 2352.76,47.2441 "/>
<polyline clip-path="url(#clip032)" style="stroke:#000000; stroke-linecap:round; stroke-linejoin:round; stroke-width:2; stroke-opacity:0.1; fill:none" points="140.696,1384.24 2352.76,1384.24 "/>
<polyline clip-path="url(#clip032)" style="stroke:#000000; stroke-linecap:round; stroke-linejoin:round; stroke-width:2; stroke-opacity:0.1; fill:none" points="140.696,1102.05 2352.76,1102.05 "/>
<polyline clip-path="url(#clip032)" style="stroke:#000000; stroke-linecap:round; stroke-linejoin:round; stroke-width:2; stroke-opacity:0.1; fill:none" points="140.696,819.868 2352.76,819.868 "/>
<polyline clip-path="url(#clip032)" style="stroke:#000000; stroke-linecap:round; stroke-linejoin:round; stroke-width:2; stroke-opacity:0.1; fill:none" points="140.696,537.682 2352.76,537.682 "/>
<polyline clip-path="url(#clip032)" style="stroke:#000000; stroke-linecap:round; stroke-linejoin:round; stroke-width:2; stroke-opacity:0.1; fill:none" points="140.696,255.497 2352.76,255.497 "/>
<polyline clip-path="url(#clip030)" style="stroke:#000000; stroke-linecap:round; stroke-linejoin:round; stroke-width:4; stroke-opacity:1; fill:none" points="140.696,1423.18 2352.76,1423.18 "/>
<polyline clip-path="url(#clip030)" style="stroke:#000000; stroke-linecap:round; stroke-linejoin:round; stroke-width:4; stroke-opacity:1; fill:none" points="140.696,1423.18 140.696,1404.28 "/>
<polyline clip-path="url(#clip030)" style="stroke:#000000; stroke-linecap:round; stroke-linejoin:round; stroke-width:4; stroke-opacity:1; fill:none" points="583.108,1423.18 583.108,1404.28 "/>
<polyline clip-path="url(#clip030)" style="stroke:#000000; stroke-linecap:round; stroke-linejoin:round; stroke-width:4; stroke-opacity:1; fill:none" points="1025.52,1423.18 1025.52,1404.28 "/>
<polyline clip-path="url(#clip030)" style="stroke:#000000; stroke-linecap:round; stroke-linejoin:round; stroke-width:4; stroke-opacity:1; fill:none" points="1467.93,1423.18 1467.93,1404.28 "/>
<polyline clip-path="url(#clip030)" style="stroke:#000000; stroke-linecap:round; stroke-linejoin:round; stroke-width:4; stroke-opacity:1; fill:none" points="1910.34,1423.18 1910.34,1404.28 "/>
<polyline clip-path="url(#clip030)" style="stroke:#000000; stroke-linecap:round; stroke-linejoin:round; stroke-width:4; stroke-opacity:1; fill:none" points="2352.76,1423.18 2352.76,1404.28 "/>
<path clip-path="url(#clip030)" d="M140.696 1454.1 Q137.084 1454.1 135.256 1457.66 Q133.45 1461.2 133.45 1468.33 Q133.45 1475.44 135.256 1479.01 Q137.084 1482.55 140.696 1482.55 Q144.33 1482.55 146.135 1479.01 Q147.964 1475.44 147.964 1468.33 Q147.964 1461.2 146.135 1457.66 Q144.33 1454.1 140.696 1454.1 M140.696 1450.39 Q146.506 1450.39 149.561 1455 Q152.64 1459.58 152.64 1468.33 Q152.64 1477.06 149.561 1481.67 Q146.506 1486.25 140.696 1486.25 Q134.885 1486.25 131.807 1481.67 Q128.751 1477.06 128.751 1468.33 Q128.751 1459.58 131.807 1455 Q134.885 1450.39 140.696 1450.39 Z" fill="#000000" fill-rule="nonzero" fill-opacity="1" /><path clip-path="url(#clip030)" d="M577.76 1481.64 L594.08 1481.64 L594.08 1485.58 L572.135 1485.58 L572.135 1481.64 Q574.797 1478.89 579.381 1474.26 Q583.987 1469.61 585.168 1468.27 Q587.413 1465.74 588.293 1464.01 Q589.196 1462.25 589.196 1460.56 Q589.196 1457.8 587.251 1456.07 Q585.33 1454.33 582.228 1454.33 Q580.029 1454.33 577.575 1455.09 Q575.145 1455.86 572.367 1457.41 L572.367 1452.69 Q575.191 1451.55 577.645 1450.97 Q580.098 1450.39 582.135 1450.39 Q587.506 1450.39 590.7 1453.08 Q593.895 1455.77 593.895 1460.26 Q593.895 1462.39 593.084 1464.31 Q592.297 1466.2 590.191 1468.8 Q589.612 1469.47 586.51 1472.69 Q583.409 1475.88 577.76 1481.64 Z" fill="#000000" fill-rule="nonzero" fill-opacity="1" /><path clip-path="url(#clip030)" d="M1028.53 1455.09 L1016.72 1473.54 L1028.53 1473.54 L1028.53 1455.09 M1027.3 1451.02 L1033.18 1451.02 L1033.18 1473.54 L1038.11 1473.54 L1038.11 1477.43 L1033.18 1477.43 L1033.18 1485.58 L1028.53 1485.58 L1028.53 1477.43 L1012.93 1477.43 L1012.93 1472.92 L1027.3 1451.02 Z" fill="#000000" fill-rule="nonzero" fill-opacity="1" /><path clip-path="url(#clip030)" d="M1468.34 1466.44 Q1465.19 1466.44 1463.34 1468.59 Q1461.51 1470.74 1461.51 1474.49 Q1461.51 1478.22 1463.34 1480.39 Q1465.19 1482.55 1468.34 1482.55 Q1471.48 1482.55 1473.31 1480.39 Q1475.17 1478.22 1475.17 1474.49 Q1475.17 1470.74 1473.31 1468.59 Q1471.48 1466.44 1468.34 1466.44 M1477.62 1451.78 L1477.62 1456.04 Q1475.86 1455.21 1474.05 1454.77 Q1472.27 1454.33 1470.51 1454.33 Q1465.88 1454.33 1463.43 1457.45 Q1461 1460.58 1460.65 1466.9 Q1462.02 1464.89 1464.08 1463.82 Q1466.14 1462.73 1468.61 1462.73 Q1473.82 1462.73 1476.83 1465.9 Q1479.86 1469.05 1479.86 1474.49 Q1479.86 1479.82 1476.72 1483.03 Q1473.57 1486.25 1468.34 1486.25 Q1462.34 1486.25 1459.17 1481.67 Q1456 1477.06 1456 1468.33 Q1456 1460.14 1459.89 1455.28 Q1463.78 1450.39 1470.33 1450.39 Q1472.09 1450.39 1473.87 1450.74 Q1475.67 1451.09 1477.62 1451.78 Z" fill="#000000" fill-rule="nonzero" fill-opacity="1" /><path clip-path="url(#clip030)" d="M1910.34 1469.17 Q1907.01 1469.17 1905.09 1470.95 Q1903.19 1472.73 1903.19 1475.86 Q1903.19 1478.98 1905.09 1480.77 Q1907.01 1482.55 1910.34 1482.55 Q1913.68 1482.55 1915.6 1480.77 Q1917.52 1478.96 1917.52 1475.86 Q1917.52 1472.73 1915.6 1470.95 Q1913.7 1469.17 1910.34 1469.17 M1905.67 1467.18 Q1902.66 1466.44 1900.97 1464.38 Q1899.3 1462.32 1899.3 1459.35 Q1899.3 1455.21 1902.24 1452.8 Q1905.2 1450.39 1910.34 1450.39 Q1915.51 1450.39 1918.45 1452.8 Q1921.39 1455.21 1921.39 1459.35 Q1921.39 1462.32 1919.7 1464.38 Q1918.03 1466.44 1915.04 1467.18 Q1918.42 1467.96 1920.3 1470.26 Q1922.2 1472.55 1922.2 1475.86 Q1922.2 1480.88 1919.12 1483.57 Q1916.06 1486.25 1910.34 1486.25 Q1904.63 1486.25 1901.55 1483.57 Q1898.49 1480.88 1898.49 1475.86 Q1898.49 1472.55 1900.39 1470.26 Q1902.29 1467.96 1905.67 1467.18 M1903.95 1459.79 Q1903.95 1462.48 1905.62 1463.98 Q1907.31 1465.49 1910.34 1465.49 Q1913.35 1465.49 1915.04 1463.98 Q1916.76 1462.48 1916.76 1459.79 Q1916.76 1457.11 1915.04 1455.6 Q1913.35 1454.1 1910.34 1454.1 Q1907.31 1454.1 1905.62 1455.6 Q1903.95 1457.11 1903.95 1459.79 Z" fill="#000000" fill-rule="nonzero" fill-opacity="1" /><path clip-path="url(#clip030)" d="M2327.44 1481.64 L2335.08 1481.64 L2335.08 1455.28 L2326.77 1456.95 L2326.77 1452.69 L2335.04 1451.02 L2339.71 1451.02 L2339.71 1481.64 L2347.35 1481.64 L2347.35 1485.58 L2327.44 1485.58 L2327.44 1481.64 Z" fill="#000000" fill-rule="nonzero" fill-opacity="1" /><path clip-path="url(#clip030)" d="M2366.8 1454.1 Q2363.18 1454.1 2361.36 1457.66 Q2359.55 1461.2 2359.55 1468.33 Q2359.55 1475.44 2361.36 1479.01 Q2363.18 1482.55 2366.8 1482.55 Q2370.43 1482.55 2372.23 1479.01 Q2374.06 1475.44 2374.06 1468.33 Q2374.06 1461.2 2372.23 1457.66 Q2370.43 1454.1 2366.8 1454.1 M2366.8 1450.39 Q2372.61 1450.39 2375.66 1455 Q2378.74 1459.58 2378.74 1468.33 Q2378.74 1477.06 2375.66 1481.67 Q2372.61 1486.25 2366.8 1486.25 Q2360.99 1486.25 2357.91 1481.67 Q2354.85 1477.06 2354.85 1468.33 Q2354.85 1459.58 2357.91 1455 Q2360.99 1450.39 2366.8 1450.39 Z" fill="#000000" fill-rule="nonzero" fill-opacity="1" /><path clip-path="url(#clip030)" d="M1245.79 1522.27 L1245.79 1532.4 L1257.85 1532.4 L1257.85 1536.95 L1245.79 1536.95 L1245.79 1556.3 Q1245.79 1560.66 1246.96 1561.9 Q1248.17 1563.14 1251.83 1563.14 L1257.85 1563.14 L1257.85 1568.04 L1251.83 1568.04 Q1245.05 1568.04 1242.48 1565.53 Q1239.9 1562.98 1239.9 1556.3 L1239.9 1536.95 L1235.6 1536.95 L1235.6 1532.4 L1239.9 1532.4 L1239.9 1522.27 L1245.79 1522.27 Z" fill="#000000" fill-rule="nonzero" fill-opacity="1" /><polyline clip-path="url(#clip030)" style="stroke:#000000; stroke-linecap:round; stroke-linejoin:round; stroke-width:4; stroke-opacity:1; fill:none" points="140.696,1423.18 140.696,47.2441 "/>
<polyline clip-path="url(#clip030)" style="stroke:#000000; stroke-linecap:round; stroke-linejoin:round; stroke-width:4; stroke-opacity:1; fill:none" points="140.696,1384.24 159.593,1384.24 "/>
<polyline clip-path="url(#clip030)" style="stroke:#000000; stroke-linecap:round; stroke-linejoin:round; stroke-width:4; stroke-opacity:1; fill:none" points="140.696,1102.05 159.593,1102.05 "/>
<polyline clip-path="url(#clip030)" style="stroke:#000000; stroke-linecap:round; stroke-linejoin:round; stroke-width:4; stroke-opacity:1; fill:none" points="140.696,819.868 159.593,819.868 "/>
<polyline clip-path="url(#clip030)" style="stroke:#000000; stroke-linecap:round; stroke-linejoin:round; stroke-width:4; stroke-opacity:1; fill:none" points="140.696,537.682 159.593,537.682 "/>
<polyline clip-path="url(#clip030)" style="stroke:#000000; stroke-linecap:round; stroke-linejoin:round; stroke-width:4; stroke-opacity:1; fill:none" points="140.696,255.497 159.593,255.497 "/>
<path clip-path="url(#clip030)" d="M92.7512 1370.04 Q89.1401 1370.04 87.3114 1373.6 Q85.5058 1377.14 85.5058 1384.27 Q85.5058 1391.38 87.3114 1394.94 Q89.1401 1398.49 92.7512 1398.49 Q96.3854 1398.49 98.1909 1394.94 Q100.02 1391.38 100.02 1384.27 Q100.02 1377.14 98.1909 1373.6 Q96.3854 1370.04 92.7512 1370.04 M92.7512 1366.33 Q98.5613 1366.33 101.617 1370.94 Q104.696 1375.52 104.696 1384.27 Q104.696 1393 101.617 1397.61 Q98.5613 1402.19 92.7512 1402.19 Q86.941 1402.19 83.8623 1397.61 Q80.8068 1393 80.8068 1384.27 Q80.8068 1375.52 83.8623 1370.94 Q86.941 1366.33 92.7512 1366.33 Z" fill="#000000" fill-rule="nonzero" fill-opacity="1" /><path clip-path="url(#clip030)" d="M83.7929 1084.77 L102.149 1084.77 L102.149 1088.71 L88.0753 1088.71 L88.0753 1097.18 Q89.0938 1096.83 90.1123 1096.67 Q91.1308 1096.49 92.1493 1096.49 Q97.9363 1096.49 101.316 1099.66 Q104.696 1102.83 104.696 1108.25 Q104.696 1113.82 101.223 1116.93 Q97.7511 1120 91.4317 1120 Q89.2558 1120 86.9873 1119.63 Q84.7419 1119.26 82.3346 1118.52 L82.3346 1113.82 Q84.4179 1114.96 86.6401 1115.51 Q88.8623 1116.07 91.3391 1116.07 Q95.3437 1116.07 97.6817 1113.96 Q100.02 1111.86 100.02 1108.25 Q100.02 1104.63 97.6817 1102.53 Q95.3437 1100.42 91.3391 1100.42 Q89.4641 1100.42 87.5892 1100.84 Q85.7373 1101.25 83.7929 1102.13 L83.7929 1084.77 Z" fill="#000000" fill-rule="nonzero" fill-opacity="1" /><path clip-path="url(#clip030)" d="M53.3995 833.212 L61.0384 833.212 L61.0384 806.847 L52.7282 808.513 L52.7282 804.254 L60.9921 802.588 L65.668 802.588 L65.668 833.212 L73.3068 833.212 L73.3068 837.148 L53.3995 837.148 L53.3995 833.212 Z" fill="#000000" fill-rule="nonzero" fill-opacity="1" /><path clip-path="url(#clip030)" d="M92.7512 805.666 Q89.1401 805.666 87.3114 809.231 Q85.5058 812.773 85.5058 819.902 Q85.5058 827.009 87.3114 830.574 Q89.1401 834.115 92.7512 834.115 Q96.3854 834.115 98.1909 830.574 Q100.02 827.009 100.02 819.902 Q100.02 812.773 98.1909 809.231 Q96.3854 805.666 92.7512 805.666 M92.7512 801.963 Q98.5613 801.963 101.617 806.569 Q104.696 811.152 104.696 819.902 Q104.696 828.629 101.617 833.236 Q98.5613 837.819 92.7512 837.819 Q86.941 837.819 83.8623 833.236 Q80.8068 828.629 80.8068 819.902 Q80.8068 811.152 83.8623 806.569 Q86.941 801.963 92.7512 801.963 Z" fill="#000000" fill-rule="nonzero" fill-opacity="1" /><path clip-path="url(#clip030)" d="M54.3949 551.027 L62.0337 551.027 L62.0337 524.661 L53.7236 526.328 L53.7236 522.069 L61.9874 520.402 L66.6633 520.402 L66.6633 551.027 L74.3022 551.027 L74.3022 554.962 L54.3949 554.962 L54.3949 551.027 Z" fill="#000000" fill-rule="nonzero" fill-opacity="1" /><path clip-path="url(#clip030)" d="M83.7929 520.402 L102.149 520.402 L102.149 524.337 L88.0753 524.337 L88.0753 532.81 Q89.0938 532.462 90.1123 532.3 Q91.1308 532.115 92.1493 532.115 Q97.9363 532.115 101.316 535.286 Q104.696 538.458 104.696 543.874 Q104.696 549.453 101.223 552.555 Q97.7511 555.634 91.4317 555.634 Q89.2558 555.634 86.9873 555.263 Q84.7419 554.893 82.3346 554.152 L82.3346 549.453 Q84.4179 550.587 86.6401 551.143 Q88.8623 551.698 91.3391 551.698 Q95.3437 551.698 97.6817 549.592 Q100.02 547.485 100.02 543.874 Q100.02 540.263 97.6817 538.157 Q95.3437 536.05 91.3391 536.05 Q89.4641 536.05 87.5892 536.467 Q85.7373 536.884 83.7929 537.763 L83.7929 520.402 Z" fill="#000000" fill-rule="nonzero" fill-opacity="1" /><path clip-path="url(#clip030)" d="M56.6171 268.842 L72.9365 268.842 L72.9365 272.777 L50.9921 272.777 L50.9921 268.842 Q53.6541 266.087 58.2375 261.457 Q62.8439 256.805 64.0245 255.462 Q66.2698 252.939 67.1494 251.203 Q68.0522 249.444 68.0522 247.754 Q68.0522 244.999 66.1078 243.263 Q64.1865 241.527 61.0847 241.527 Q58.8856 241.527 56.4319 242.291 Q54.0014 243.055 51.2236 244.606 L51.2236 239.884 Q54.0477 238.749 56.5014 238.171 Q58.955 237.592 60.9921 237.592 Q66.3624 237.592 69.5568 240.277 Q72.7513 242.962 72.7513 247.453 Q72.7513 249.583 71.9411 251.504 Q71.1541 253.402 69.0476 255.995 Q68.4689 256.666 65.367 259.883 Q62.2652 263.078 56.6171 268.842 Z" fill="#000000" fill-rule="nonzero" fill-opacity="1" /><path clip-path="url(#clip030)" d="M92.7512 241.296 Q89.1401 241.296 87.3114 244.86 Q85.5058 248.402 85.5058 255.532 Q85.5058 262.638 87.3114 266.203 Q89.1401 269.744 92.7512 269.744 Q96.3854 269.744 98.1909 266.203 Q100.02 262.638 100.02 255.532 Q100.02 248.402 98.1909 244.86 Q96.3854 241.296 92.7512 241.296 M92.7512 237.592 Q98.5613 237.592 101.617 242.198 Q104.696 246.782 104.696 255.532 Q104.696 264.258 101.617 268.865 Q98.5613 273.448 92.7512 273.448 Q86.941 273.448 83.8623 268.865 Q80.8068 264.258 80.8068 255.532 Q80.8068 246.782 83.8623 242.198 Q86.941 237.592 92.7512 237.592 Z" fill="#000000" fill-rule="nonzero" fill-opacity="1" /><polyline clip-path="url(#clip032)" style="stroke:#009af9; stroke-linecap:round; stroke-linejoin:round; stroke-width:8; stroke-opacity:1; fill:none" points="140.696,1384.24 142.888,1384.24 145.08,1384.24 147.273,1384.24 149.465,1384.24 151.657,1384.24 153.85,1384.24 156.042,1384.24 158.234,1384.24 160.427,1384.24 162.619,1384.24 164.811,1384.24 167.003,1384.24 169.196,1384.24 171.388,1384.24 173.58,1384.24 175.773,1384.24 177.965,1384.24 180.157,1384.24 182.35,1384.24 184.542,1384.24 186.734,1384.24 188.927,1384.24 191.119,1384.24 193.311,1384.24 195.504,1384.24 197.696,1384.24 199.888,1384.24 202.081,1384.24 204.273,1384.24 206.465,1384.24 208.658,1384.24 210.85,1327.8 213.042,1327.8 215.235,1327.8 217.427,1327.8 219.619,1327.8 221.812,1327.8 224.004,1327.8 226.196,1327.8 228.389,1327.8 230.581,1327.8 232.773,1327.8 234.966,1327.8 237.158,1327.8 239.35,1327.8 241.543,1327.8 243.735,1327.8 245.927,1327.8 248.12,1327.8 250.312,1327.8 252.504,1327.8 254.697,1327.8 256.889,1327.8 259.081,1271.36 261.274,1271.36 263.466,1271.36 265.658,1271.36 267.851,1271.36 270.043,1271.36 272.235,1271.36 274.428,1271.36 276.62,1271.36 278.812,1271.36 281.005,1271.36 283.197,1271.36 285.389,1271.36 287.582,1271.36 289.774,1271.36 291.966,1271.36 294.159,1271.36 296.351,1271.36 298.543,1271.36 300.736,1271.36 302.928,1271.36 305.12,1271.36 307.313,1271.36 309.505,1271.36 311.697,1271.36 313.89,1271.36 316.082,1271.36 318.274,1271.36 320.467,1271.36 322.659,1271.36 324.851,1271.36 327.044,1271.36 329.236,1271.36 331.428,1271.36 333.621,1271.36 335.813,1271.36 338.005,1271.36 340.198,1271.36 342.39,1271.36 344.582,1271.36 346.775,1214.93 348.967,1214.93 351.159,1214.93 353.351,1214.93 355.544,1214.93 357.736,1214.93 359.928,1214.93 362.121,1214.93 364.313,1214.93 366.505,1214.93 368.698,1214.93 370.89,1214.93 373.082,1214.93 375.275,1158.49 377.467,1045.62 379.659,1045.62 381.852,1045.62 384.044,1045.62 386.236,1045.62 388.429,1045.62 390.621,989.179 392.813,989.179 395.006,989.179 397.198,1045.62 399.39,1045.62 401.583,1045.62 403.775,1045.62 405.967,1045.62 408.16,1158.49 410.352,1158.49 412.544,1158.49 414.737,1158.49 416.929,1158.49 419.121,1158.49 421.314,1158.49 423.506,1102.05 425.698,1102.05 427.891,1045.62 430.083,1102.05 432.275,1102.05 434.468,1102.05 436.66,1102.05 438.852,1102.05 441.045,1102.05 443.237,1102.05 445.429,1158.49 447.622,1158.49 449.814,1158.49 452.006,1158.49 454.199,1102.05 456.391,1102.05 458.583,1102.05 460.776,1102.05 462.968,1102.05 465.16,1102.05 467.353,1102.05 469.545,1102.05 471.737,1102.05 473.93,1102.05 476.122,1102.05 478.314,1102.05 480.507,1102.05 482.699,1102.05 484.891,1214.93 487.084,1214.93 489.276,1214.93 491.468,1214.93 493.661,1214.93 495.853,1214.93 498.045,1214.93 500.238,1214.93 502.43,1271.36 504.622,1271.36 506.815,1271.36 509.007,1214.93 511.199,1214.93 513.392,1214.93 515.584,1214.93 517.776,1214.93 519.969,1214.93 522.161,1214.93 524.353,1214.93 526.546,1214.93 528.738,1214.93 530.93,1214.93 533.123,1214.93 535.315,1214.93 537.507,1271.36 539.699,1271.36 541.892,1271.36 544.084,1271.36 546.276,1271.36 548.469,1271.36 550.661,1271.36 552.853,1271.36 555.046,1271.36 557.238,1271.36 559.43,1271.36 561.623,1271.36 563.815,1271.36 566.007,1271.36 568.2,1271.36 570.392,1271.36 572.584,1271.36 574.777,1271.36 576.969,1271.36 579.161,1271.36 581.354,1271.36 583.546,1271.36 585.738,1271.36 587.931,1271.36 590.123,1271.36 592.315,1271.36 594.508,1271.36 596.7,1271.36 598.892,1271.36 601.085,1271.36 603.277,1271.36 605.469,1271.36 607.662,1271.36 609.854,1271.36 612.046,1271.36 614.239,1271.36 616.431,1271.36 618.623,1271.36 620.816,1271.36 623.008,1271.36 625.2,1271.36 627.393,1271.36 629.585,1271.36 631.777,1271.36 633.97,1271.36 636.162,1271.36 638.354,1271.36 640.547,1271.36 642.739,1271.36 644.931,1271.36 647.124,1271.36 649.316,1271.36 651.508,1271.36 653.701,1271.36 655.893,1271.36 658.085,1271.36 660.278,1271.36 662.47,1271.36 664.662,1214.93 666.855,1214.93 669.047,1214.93 671.239,1214.93 673.432,1214.93 675.624,1271.36 677.816,1271.36 680.009,1327.8 682.201,1327.8 684.393,1327.8 686.586,1327.8 688.778,1327.8 690.97,1327.8 693.163,1327.8 695.355,1327.8 697.547,1327.8 699.74,1384.24 701.932,1384.24 704.124,1384.24 706.317,1384.24 708.509,1384.24 710.701,1384.24 712.894,1384.24 715.086,1384.24 717.278,1384.24 719.471,1384.24 721.663,1384.24 723.855,1384.24 726.047,1384.24 728.24,1384.24 730.432,1384.24 732.624,1384.24 734.817,1384.24 737.009,1384.24 739.201,1384.24 741.394,1384.24 743.586,1384.24 745.778,1384.24 747.971,1384.24 750.163,1384.24 752.355,1384.24 754.548,1384.24 756.74,1384.24 758.932,1384.24 761.125,1384.24 763.317,1384.24 765.509,1384.24 767.702,1384.24 769.894,1384.24 772.086,1384.24 774.279,1384.24 776.471,1384.24 778.663,1384.24 780.856,1384.24 783.048,1384.24 785.24,1384.24 787.433,1384.24 789.625,1384.24 791.817,1384.24 794.01,1384.24 796.202,1384.24 798.394,1384.24 800.587,1384.24 802.779,1384.24 804.971,1384.24 807.164,1384.24 809.356,1384.24 811.548,1384.24 813.741,1384.24 815.933,1384.24 818.125,1384.24 820.318,1384.24 822.51,1384.24 824.702,1384.24 826.895,1384.24 829.087,1384.24 831.279,1384.24 833.472,1384.24 835.664,1384.24 837.856,1384.24 840.049,1384.24 842.241,1384.24 844.433,1384.24 846.626,1384.24 848.818,1384.24 851.01,1384.24 853.203,1384.24 855.395,1384.24 857.587,1384.24 859.78,1384.24 861.972,1384.24 864.164,1384.24 866.357,1384.24 868.549,1384.24 870.741,1384.24 872.934,1384.24 875.126,1384.24 877.318,1384.24 879.511,1384.24 881.703,1384.24 883.895,1384.24 886.088,1384.24 888.28,1384.24 890.472,1384.24 892.665,1384.24 894.857,1384.24 897.049,1384.24 899.242,1327.8 901.434,1327.8 903.626,1327.8 905.819,1327.8 908.011,1327.8 910.203,1327.8 912.395,1327.8 914.588,1327.8 916.78,1327.8 918.972,1327.8 921.165,1327.8 923.357,1327.8 925.549,1327.8 927.742,1327.8 929.934,1327.8 932.126,1327.8 934.319,1327.8 936.511,1327.8 938.703,1327.8 940.896,1327.8 943.088,1327.8 945.28,1327.8 947.473,1327.8 949.665,1327.8 951.857,1327.8 954.05,1327.8 956.242,1327.8 958.434,1327.8 960.627,1327.8 962.819,1327.8 965.011,1327.8 967.204,1327.8 969.396,1327.8 971.588,1327.8 973.781,1327.8 975.973,1327.8 978.165,1327.8 980.358,1327.8 982.55,1327.8 984.742,1327.8 986.935,1327.8 989.127,1327.8 991.319,1327.8 993.512,1327.8 995.704,1327.8 997.896,1327.8 1000.09,1327.8 1002.28,1327.8 1004.47,1327.8 1006.67,1327.8 1008.86,1327.8 1011.05,1327.8 1013.24,1327.8 1015.43,1327.8 1017.63,1327.8 1019.82,1327.8 1022.01,1327.8 1024.2,1327.8 1026.4,1327.8 1028.59,1327.8 1030.78,1327.8 1032.97,1327.8 1035.17,1327.8 1037.36,1327.8 1039.55,1327.8 1041.74,1327.8 1043.94,1327.8 1046.13,1327.8 1048.32,1327.8 1050.51,1327.8 1052.7,1327.8 1054.9,1327.8 1057.09,1327.8 1059.28,1327.8 1061.47,1327.8 1063.67,1327.8 1065.86,1327.8 1068.05,1327.8 1070.24,1327.8 1072.44,1327.8 1074.63,1327.8 1076.82,1327.8 1079.01,1327.8 1081.2,1327.8 1083.4,1327.8 1085.59,1327.8 1087.78,1327.8 1089.97,1327.8 1092.17,1327.8 1094.36,1327.8 1096.55,1327.8 1098.74,1327.8 1100.94,1327.8 1103.13,1327.8 1105.32,1327.8 1107.51,1327.8 1109.71,1271.36 1111.9,1271.36 1114.09,1271.36 1116.28,1271.36 1118.47,1271.36 1120.67,1271.36 1122.86,1271.36 1125.05,1271.36 1127.24,1271.36 1129.44,1271.36 1131.63,1214.93 1133.82,1214.93 1136.01,1214.93 1138.21,1214.93 1140.4,1214.93 1142.59,1214.93 1144.78,1214.93 1146.97,1214.93 1149.17,1214.93 1151.36,1214.93 1153.55,1214.93 1155.74,1214.93 1157.94,1271.36 1160.13,1271.36 1162.32,1271.36 1164.51,1271.36 1166.71,1271.36 1168.9,1271.36 1171.09,1271.36 1173.28,1271.36 1175.48,1327.8 1177.67,1271.36 1179.86,1271.36 1182.05,1271.36 1184.24,1271.36 1186.44,1271.36 1188.63,1271.36 1190.82,1271.36 1193.01,1271.36 1195.21,1271.36 1197.4,1271.36 1199.59,1271.36 1201.78,1271.36 1203.98,1327.8 1206.17,1327.8 1208.36,1327.8 1210.55,1327.8 1212.74,1327.8 1214.94,1327.8 1217.13,1271.36 1219.32,1271.36 1221.51,1271.36 1223.71,1271.36 1225.9,1271.36 1228.09,1271.36 1230.28,1271.36 1232.48,1271.36 1234.67,1271.36 1236.86,1271.36 1239.05,1271.36 1241.24,1271.36 1243.44,1271.36 1245.63,1271.36 1247.82,1271.36 1250.01,1271.36 1252.21,1271.36 1254.4,1271.36 1256.59,1271.36 1258.78,1271.36 1260.98,1271.36 1263.17,1271.36 1265.36,1271.36 1267.55,1271.36 1269.75,1271.36 1271.94,1271.36 1274.13,1271.36 1276.32,1271.36 1278.51,1271.36 1280.71,1271.36 1282.9,1271.36 1285.09,1271.36 1287.28,1271.36 1289.48,1271.36 1291.67,1271.36 1293.86,1271.36 1296.05,1327.8 1298.25,1327.8 1300.44,1327.8 1302.63,1327.8 1304.82,1327.8 1307.01,1327.8 1309.21,1327.8 1311.4,1327.8 1313.59,1327.8 1315.78,1327.8 1317.98,1327.8 1320.17,1327.8 1322.36,1327.8 1324.55,1327.8 1326.75,1327.8 1328.94,1327.8 1331.13,1327.8 1333.32,1327.8 1335.52,1327.8 1337.71,1327.8 1339.9,1327.8 1342.09,1327.8 1344.28,1327.8 1346.48,1327.8 1348.67,1327.8 1350.86,1327.8 1353.05,1327.8 1355.25,1327.8 1357.44,1327.8 1359.63,1327.8 1361.82,1327.8 1364.02,1327.8 1366.21,1327.8 1368.4,1327.8 1370.59,1271.36 1372.78,1271.36 1374.98,1271.36 1377.17,1214.93 1379.36,1214.93 1381.55,1214.93 1383.75,1214.93 1385.94,1214.93 1388.13,1214.93 1390.32,1214.93 1392.52,1214.93 1394.71,1214.93 1396.9,1214.93 1399.09,1214.93 1401.28,1214.93 1403.48,1271.36 1405.67,1271.36 1407.86,1271.36 1410.05,1271.36 1412.25,1271.36 1414.44,1271.36 1416.63,1271.36 1418.82,1271.36 1421.02,1271.36 1423.21,1271.36 1425.4,1271.36 1427.59,1271.36 1429.79,1271.36 1431.98,1271.36 1434.17,1271.36 1436.36,1271.36 1438.55,1271.36 1440.75,1271.36 1442.94,1271.36 1445.13,1271.36 1447.32,1271.36 1449.52,1271.36 1451.71,1271.36 1453.9,1271.36 1456.09,1271.36 1458.29,1271.36 1460.48,1271.36 1462.67,1271.36 1464.86,1271.36 1467.05,1271.36 1469.25,1271.36 1471.44,1271.36 1473.63,1271.36 1475.82,1271.36 1478.02,1271.36 1480.21,1271.36 1482.4,1271.36 1484.59,1271.36 1486.79,1271.36 1488.98,1271.36 1491.17,1271.36 1493.36,1271.36 1495.56,1271.36 1497.75,1327.8 1499.94,1327.8 1502.13,1327.8 1504.32,1271.36 1506.52,1271.36 1508.71,1271.36 1510.9,1271.36 1513.09,1271.36 1515.29,1271.36 1517.48,1271.36 1519.67,1271.36 1521.86,1327.8 1524.06,1327.8 1526.25,1327.8 1528.44,1327.8 1530.63,1327.8 1532.82,1327.8 1535.02,1327.8 1537.21,1327.8 1539.4,1327.8 1541.59,1327.8 1543.79,1327.8 1545.98,1327.8 1548.17,1327.8 1550.36,1327.8 1552.56,1327.8 1554.75,1327.8 1556.94,1327.8 1559.13,1327.8 1561.32,1327.8 1563.52,1327.8 1565.71,1327.8 1567.9,1327.8 1570.09,1327.8 1572.29,1327.8 1574.48,1327.8 1576.67,1327.8 1578.86,1327.8 1581.06,1327.8 1583.25,1327.8 1585.44,1327.8 1587.63,1327.8 1589.83,1327.8 1592.02,1384.24 1594.21,1384.24 1596.4,1384.24 1598.59,1384.24 1600.79,1384.24 1602.98,1384.24 1605.17,1384.24 1607.36,1384.24 1609.56,1384.24 1611.75,1384.24 1613.94,1384.24 1616.13,1384.24 1618.33,1384.24 1620.52,1384.24 1622.71,1384.24 1624.9,1384.24 1627.09,1384.24 1629.29,1384.24 1631.48,1384.24 1633.67,1384.24 1635.86,1384.24 1638.06,1384.24 1640.25,1384.24 1642.44,1384.24 1644.63,1384.24 1646.83,1384.24 1649.02,1384.24 1651.21,1384.24 1653.4,1384.24 1655.6,1384.24 1657.79,1384.24 1659.98,1384.24 1662.17,1384.24 1664.36,1384.24 1666.56,1384.24 1668.75,1384.24 1670.94,1384.24 1673.13,1384.24 1675.33,1384.24 1677.52,1384.24 1679.71,1384.24 1681.9,1384.24 1684.1,1384.24 1686.29,1384.24 1688.48,1384.24 1690.67,1384.24 1692.86,1384.24 1695.06,1384.24 1697.25,1384.24 1699.44,1384.24 1701.63,1384.24 1703.83,1384.24 1706.02,1384.24 1708.21,1384.24 1710.4,1384.24 1712.6,1384.24 1714.79,1384.24 1716.98,1384.24 1719.17,1384.24 1721.37,1384.24 1723.56,1384.24 1725.75,1384.24 1727.94,1384.24 1730.13,1384.24 1732.33,1384.24 1734.52,1384.24 1736.71,1384.24 1738.9,1384.24 1741.1,1384.24 1743.29,1384.24 1745.48,1384.24 1747.67,1384.24 1749.87,1384.24 1752.06,1384.24 1754.25,1384.24 1756.44,1384.24 1758.63,1384.24 1760.83,1384.24 1763.02,1384.24 1765.21,1384.24 1767.4,1384.24 1769.6,1384.24 1771.79,1384.24 1773.98,1384.24 1776.17,1384.24 1778.37,1384.24 1780.56,1384.24 1782.75,1384.24 1784.94,1384.24 1787.13,1384.24 1789.33,1384.24 1791.52,1384.24 1793.71,1384.24 1795.9,1384.24 1798.1,1384.24 1800.29,1384.24 1802.48,1384.24 1804.67,1384.24 1806.87,1384.24 1809.06,1384.24 1811.25,1384.24 1813.44,1384.24 1815.64,1384.24 1817.83,1384.24 1820.02,1384.24 1822.21,1384.24 1824.4,1384.24 1826.6,1384.24 1828.79,1384.24 1830.98,1384.24 1833.17,1384.24 1835.37,1384.24 1837.56,1384.24 1839.75,1384.24 1841.94,1384.24 1844.14,1384.24 1846.33,1384.24 1848.52,1384.24 1850.71,1384.24 1852.9,1384.24 1855.1,1384.24 1857.29,1384.24 1859.48,1384.24 1861.67,1384.24 1863.87,1384.24 1866.06,1384.24 1868.25,1384.24 1870.44,1384.24 1872.64,1384.24 1874.83,1384.24 1877.02,1384.24 1879.21,1384.24 1881.41,1384.24 1883.6,1384.24 1885.79,1384.24 1887.98,1384.24 1890.17,1384.24 1892.37,1384.24 1894.56,1384.24 1896.75,1384.24 1898.94,1384.24 1901.14,1384.24 1903.33,1384.24 1905.52,1384.24 1907.71,1384.24 1909.91,1384.24 1912.1,1384.24 1914.29,1384.24 1916.48,1384.24 1918.67,1384.24 1920.87,1384.24 1923.06,1384.24 1925.25,1384.24 1927.44,1384.24 1929.64,1384.24 1931.83,1384.24 1934.02,1384.24 1936.21,1384.24 1938.41,1384.24 1940.6,1384.24 1942.79,1384.24 1944.98,1384.24 1947.17,1384.24 1949.37,1384.24 1951.56,1384.24 1953.75,1384.24 1955.94,1384.24 1958.14,1384.24 1960.33,1384.24 1962.52,1384.24 1964.71,1384.24 1966.91,1384.24 1969.1,1384.24 1971.29,1384.24 1973.48,1384.24 1975.68,1384.24 1977.87,1384.24 1980.06,1384.24 1982.25,1384.24 1984.44,1384.24 1986.64,1384.24 1988.83,1384.24 1991.02,1384.24 1993.21,1384.24 1995.41,1384.24 1997.6,1384.24 1999.79,1384.24 2001.98,1384.24 2004.18,1384.24 2006.37,1384.24 2008.56,1384.24 2010.75,1384.24 2012.94,1384.24 2015.14,1384.24 2017.33,1384.24 2019.52,1384.24 2021.71,1384.24 2023.91,1384.24 2026.1,1384.24 2028.29,1384.24 2030.48,1384.24 2032.68,1384.24 2034.87,1384.24 2037.06,1384.24 2039.25,1384.24 2041.45,1384.24 2043.64,1384.24 2045.83,1384.24 2048.02,1384.24 2050.21,1384.24 2052.41,1384.24 2054.6,1384.24 2056.79,1384.24 2058.98,1384.24 2061.18,1384.24 2063.37,1384.24 2065.56,1384.24 2067.75,1384.24 2069.95,1384.24 2072.14,1384.24 2074.33,1384.24 2076.52,1384.24 2078.71,1384.24 2080.91,1384.24 2083.1,1384.24 2085.29,1327.8 2087.48,1327.8 2089.68,1327.8 2091.87,1327.8 2094.06,1327.8 2096.25,1327.8 2098.45,1327.8 2100.64,1327.8 2102.83,1327.8 2105.02,1327.8 2107.22,1327.8 2109.41,1327.8 2111.6,1327.8 2113.79,1327.8 2115.98,1327.8 2118.18,1327.8 2120.37,1327.8 2122.56,1327.8 2124.75,1327.8 2126.95,1327.8 2129.14,1327.8 2131.33,1271.36 2133.52,1271.36 2135.72,1327.8 2137.91,1327.8 2140.1,1384.24 2142.29,1384.24 2144.48,1384.24 2146.68,1384.24 2148.87,1384.24 2151.06,1384.24 2153.25,1384.24 2155.45,1384.24 2157.64,1384.24 2159.83,1384.24 2162.02,1384.24 2164.22,1384.24 2166.41,1384.24 2168.6,1384.24 2170.79,1384.24 2172.98,1384.24 2175.18,1384.24 2177.37,1384.24 2179.56,1384.24 2181.75,1384.24 2183.95,1384.24 2186.14,1384.24 2188.33,1384.24 2190.52,1384.24 2192.72,1384.24 2194.91,1384.24 2197.1,1384.24 2199.29,1384.24 2201.49,1384.24 2203.68,1384.24 2205.87,1384.24 2208.06,1384.24 2210.25,1384.24 2212.45,1384.24 2214.64,1384.24 2216.83,1384.24 2219.02,1384.24 2221.22,1384.24 2223.41,1384.24 2225.6,1384.24 2227.79,1384.24 2229.99,1384.24 2232.18,1384.24 2234.37,1384.24 2236.56,1384.24 2238.75,1384.24 2240.95,1384.24 2243.14,1384.24 2245.33,1384.24 2247.52,1384.24 2249.72,1384.24 2251.91,1384.24 2254.1,1384.24 2256.29,1384.24 2258.49,1384.24 2260.68,1384.24 2262.87,1384.24 2265.06,1384.24 2267.26,1384.24 2269.45,1384.24 2271.64,1384.24 2273.83,1384.24 2276.02,1384.24 2278.22,1384.24 2280.41,1384.24 2282.6,1384.24 2284.79,1384.24 2286.99,1384.24 2289.18,1384.24 2291.37,1384.24 2293.56,1384.24 2295.76,1384.24 2297.95,1384.24 2300.14,1384.24 2302.33,1384.24 2304.52,1384.24 2306.72,1384.24 2308.91,1384.24 2311.1,1384.24 2313.29,1384.24 2315.49,1384.24 2317.68,1384.24 2319.87,1384.24 2322.06,1384.24 2324.26,1384.24 2326.45,1384.24 2328.64,1384.24 2330.83,1384.24 2333.02,1384.24 2335.22,1384.24 2337.41,1384.24 2339.6,1384.24 2341.79,1384.24 2343.99,1384.24 2346.18,1384.24 2348.37,1384.24 2350.56,1384.24 2352.76,1384.24 "/>
<polyline clip-path="url(#clip032)" style="stroke:#e26f46; stroke-linecap:round; stroke-linejoin:round; stroke-width:8; stroke-opacity:1; fill:none" points="140.696,1384.24 142.888,1384.24 145.08,1384.24 147.273,1384.24 149.465,1384.24 151.657,1384.24 153.85,1384.24 156.042,1384.24 158.234,1384.24 160.427,1384.24 162.619,1384.24 164.811,1384.24 167.003,1384.24 169.196,1384.24 171.388,1384.24 173.58,1384.24 175.773,1384.24 177.965,1384.24 180.157,1384.24 182.35,1384.24 184.542,1384.24 186.734,1384.24 188.927,1384.24 191.119,1384.24 193.311,1384.24 195.504,1384.24 197.696,1384.24 199.888,1384.24 202.081,1384.24 204.273,1384.24 206.465,1384.24 208.658,1384.24 210.85,1384.24 213.042,1384.24 215.235,1384.24 217.427,1384.24 219.619,1384.24 221.812,1384.24 224.004,1384.24 226.196,1384.24 228.389,1384.24 230.581,1384.24 232.773,1384.24 234.966,1384.24 237.158,1384.24 239.35,1384.24 241.543,1384.24 243.735,1384.24 245.927,1384.24 248.12,1384.24 250.312,1384.24 252.504,1384.24 254.697,1384.24 256.889,1384.24 259.081,1384.24 261.274,1384.24 263.466,1384.24 265.658,1384.24 267.851,1384.24 270.043,1384.24 272.235,1384.24 274.428,1384.24 276.62,1384.24 278.812,1384.24 281.005,1384.24 283.197,1384.24 285.389,1384.24 287.582,1384.24 289.774,1384.24 291.966,1384.24 294.159,1384.24 296.351,1384.24 298.543,1384.24 300.736,1384.24 302.928,1384.24 305.12,1384.24 307.313,1384.24 309.505,1384.24 311.697,1384.24 313.89,1384.24 316.082,1384.24 318.274,1384.24 320.467,1384.24 322.659,1384.24 324.851,1384.24 327.044,1384.24 329.236,1384.24 331.428,1384.24 333.621,1384.24 335.813,1384.24 338.005,1384.24 340.198,1384.24 342.39,1384.24 344.582,1384.24 346.775,1384.24 348.967,1384.24 351.159,1384.24 353.351,1384.24 355.544,1384.24 357.736,1384.24 359.928,1384.24 362.121,1384.24 364.313,1384.24 366.505,1384.24 368.698,1384.24 370.89,1384.24 373.082,1384.24 375.275,1384.24 377.467,1384.24 379.659,1384.24 381.852,1384.24 384.044,1384.24 386.236,1384.24 388.429,1384.24 390.621,1384.24 392.813,1384.24 395.006,1384.24 397.198,1327.8 399.39,1327.8 401.583,1327.8 403.775,1327.8 405.967,1327.8 408.16,1214.93 410.352,1214.93 412.544,1214.93 414.737,1214.93 416.929,1214.93 419.121,1214.93 421.314,1214.93 423.506,1214.93 425.698,1214.93 427.891,1214.93 430.083,1158.49 432.275,1158.49 434.468,1158.49 436.66,1158.49 438.852,1158.49 441.045,1158.49 443.237,1158.49 445.429,1102.05 447.622,1102.05 449.814,1102.05 452.006,1102.05 454.199,1102.05 456.391,1102.05 458.583,1102.05 460.776,1102.05 462.968,1102.05 465.16,1102.05 467.353,1102.05 469.545,1102.05 471.737,1102.05 473.93,1102.05 476.122,1102.05 478.314,1102.05 480.507,1102.05 482.699,1102.05 484.891,989.179 487.084,989.179 489.276,989.179 491.468,989.179 493.661,989.179 495.853,989.179 498.045,989.179 500.238,989.179 502.43,932.742 504.622,932.742 506.815,932.742 509.007,932.742 511.199,932.742 513.392,876.305 515.584,876.305 517.776,876.305 519.969,876.305 522.161,876.305 524.353,876.305 526.546,876.305 528.738,876.305 530.93,876.305 533.123,876.305 535.315,876.305 537.507,819.868 539.699,819.868 541.892,819.868 544.084,819.868 546.276,819.868 548.469,819.868 550.661,819.868 552.853,819.868 555.046,819.868 557.238,819.868 559.43,819.868 561.623,819.868 563.815,819.868 566.007,819.868 568.2,819.868 570.392,819.868 572.584,819.868 574.777,819.868 576.969,819.868 579.161,819.868 581.354,819.868 583.546,819.868 585.738,819.868 587.931,819.868 590.123,819.868 592.315,819.868 594.508,819.868 596.7,819.868 598.892,819.868 601.085,819.868 603.277,819.868 605.469,819.868 607.662,819.868 609.854,819.868 612.046,819.868 614.239,819.868 616.431,819.868 618.623,819.868 620.816,819.868 623.008,819.868 625.2,819.868 627.393,819.868 629.585,819.868 631.777,819.868 633.97,819.868 636.162,819.868 638.354,819.868 640.547,819.868 642.739,819.868 644.931,819.868 647.124,819.868 649.316,819.868 651.508,819.868 653.701,819.868 655.893,819.868 658.085,819.868 660.278,819.868 662.47,819.868 664.662,819.868 666.855,819.868 669.047,819.868 671.239,819.868 673.432,819.868 675.624,763.431 677.816,763.431 680.009,706.993 682.201,706.993 684.393,706.993 686.586,706.993 688.778,706.993 690.97,706.993 693.163,706.993 695.355,706.993 697.547,706.993 699.74,650.556 701.932,650.556 704.124,650.556 706.317,650.556 708.509,650.556 710.701,650.556 712.894,650.556 715.086,650.556 717.278,650.556 719.471,650.556 721.663,650.556 723.855,650.556 726.047,650.556 728.24,650.556 730.432,650.556 732.624,650.556 734.817,650.556 737.009,650.556 739.201,650.556 741.394,650.556 743.586,650.556 745.778,650.556 747.971,650.556 750.163,650.556 752.355,650.556 754.548,650.556 756.74,650.556 758.932,650.556 761.125,650.556 763.317,650.556 765.509,650.556 767.702,650.556 769.894,650.556 772.086,650.556 774.279,650.556 776.471,650.556 778.663,650.556 780.856,650.556 783.048,650.556 785.24,650.556 787.433,650.556 789.625,650.556 791.817,650.556 794.01,650.556 796.202,650.556 798.394,650.556 800.587,650.556 802.779,650.556 804.971,650.556 807.164,650.556 809.356,650.556 811.548,650.556 813.741,650.556 815.933,650.556 818.125,650.556 820.318,650.556 822.51,650.556 824.702,650.556 826.895,650.556 829.087,650.556 831.279,650.556 833.472,650.556 835.664,650.556 837.856,650.556 840.049,650.556 842.241,650.556 844.433,650.556 846.626,650.556 848.818,650.556 851.01,650.556 853.203,650.556 855.395,650.556 857.587,650.556 859.78,650.556 861.972,650.556 864.164,650.556 866.357,650.556 868.549,650.556 870.741,650.556 872.934,650.556 875.126,650.556 877.318,650.556 879.511,650.556 881.703,650.556 883.895,650.556 886.088,650.556 888.28,650.556 890.472,650.556 892.665,650.556 894.857,650.556 897.049,650.556 899.242,650.556 901.434,650.556 903.626,650.556 905.819,650.556 908.011,650.556 910.203,650.556 912.395,650.556 914.588,650.556 916.78,650.556 918.972,650.556 921.165,650.556 923.357,650.556 925.549,650.556 927.742,650.556 929.934,650.556 932.126,650.556 934.319,650.556 936.511,650.556 938.703,650.556 940.896,650.556 943.088,650.556 945.28,650.556 947.473,650.556 949.665,650.556 951.857,650.556 954.05,650.556 956.242,650.556 958.434,650.556 960.627,650.556 962.819,650.556 965.011,650.556 967.204,650.556 969.396,650.556 971.588,650.556 973.781,650.556 975.973,650.556 978.165,650.556 980.358,650.556 982.55,650.556 984.742,650.556 986.935,650.556 989.127,650.556 991.319,650.556 993.512,650.556 995.704,650.556 997.896,650.556 1000.09,650.556 1002.28,650.556 1004.47,650.556 1006.67,650.556 1008.86,650.556 1011.05,650.556 1013.24,650.556 1015.43,650.556 1017.63,650.556 1019.82,650.556 1022.01,650.556 1024.2,650.556 1026.4,650.556 1028.59,650.556 1030.78,650.556 1032.97,650.556 1035.17,650.556 1037.36,650.556 1039.55,650.556 1041.74,650.556 1043.94,650.556 1046.13,650.556 1048.32,650.556 1050.51,650.556 1052.7,650.556 1054.9,650.556 1057.09,650.556 1059.28,650.556 1061.47,650.556 1063.67,650.556 1065.86,650.556 1068.05,650.556 1070.24,650.556 1072.44,650.556 1074.63,650.556 1076.82,650.556 1079.01,650.556 1081.2,650.556 1083.4,650.556 1085.59,650.556 1087.78,650.556 1089.97,650.556 1092.17,650.556 1094.36,650.556 1096.55,650.556 1098.74,650.556 1100.94,650.556 1103.13,650.556 1105.32,650.556 1107.51,650.556 1109.71,650.556 1111.9,650.556 1114.09,650.556 1116.28,650.556 1118.47,650.556 1120.67,650.556 1122.86,650.556 1125.05,650.556 1127.24,650.556 1129.44,650.556 1131.63,650.556 1133.82,650.556 1136.01,650.556 1138.21,650.556 1140.4,650.556 1142.59,650.556 1144.78,650.556 1146.97,650.556 1149.17,650.556 1151.36,650.556 1153.55,650.556 1155.74,650.556 1157.94,594.119 1160.13,594.119 1162.32,594.119 1164.51,594.119 1166.71,594.119 1168.9,594.119 1171.09,594.119 1173.28,594.119 1175.48,537.682 1177.67,537.682 1179.86,537.682 1182.05,537.682 1184.24,537.682 1186.44,537.682 1188.63,537.682 1190.82,537.682 1193.01,537.682 1195.21,537.682 1197.4,537.682 1199.59,537.682 1201.78,537.682 1203.98,481.245 1206.17,481.245 1208.36,481.245 1210.55,481.245 1212.74,481.245 1214.94,481.245 1217.13,481.245 1219.32,481.245 1221.51,481.245 1223.71,481.245 1225.9,481.245 1228.09,481.245 1230.28,481.245 1232.48,481.245 1234.67,481.245 1236.86,481.245 1239.05,481.245 1241.24,481.245 1243.44,481.245 1245.63,481.245 1247.82,481.245 1250.01,481.245 1252.21,481.245 1254.4,481.245 1256.59,481.245 1258.78,481.245 1260.98,481.245 1263.17,481.245 1265.36,481.245 1267.55,481.245 1269.75,481.245 1271.94,481.245 1274.13,481.245 1276.32,481.245 1278.51,481.245 1280.71,481.245 1282.9,481.245 1285.09,481.245 1287.28,481.245 1289.48,481.245 1291.67,481.245 1293.86,481.245 1296.05,424.808 1298.25,424.808 1300.44,424.808 1302.63,424.808 1304.82,424.808 1307.01,424.808 1309.21,424.808 1311.4,424.808 1313.59,424.808 1315.78,424.808 1317.98,424.808 1320.17,424.808 1322.36,424.808 1324.55,424.808 1326.75,424.808 1328.94,424.808 1331.13,424.808 1333.32,424.808 1335.52,424.808 1337.71,424.808 1339.9,424.808 1342.09,424.808 1344.28,424.808 1346.48,424.808 1348.67,424.808 1350.86,424.808 1353.05,424.808 1355.25,424.808 1357.44,424.808 1359.63,424.808 1361.82,424.808 1364.02,424.808 1366.21,424.808 1368.4,424.808 1370.59,424.808 1372.78,424.808 1374.98,424.808 1377.17,424.808 1379.36,424.808 1381.55,424.808 1383.75,424.808 1385.94,424.808 1388.13,424.808 1390.32,424.808 1392.52,424.808 1394.71,424.808 1396.9,424.808 1399.09,424.808 1401.28,424.808 1403.48,368.371 1405.67,368.371 1407.86,368.371 1410.05,368.371 1412.25,368.371 1414.44,368.371 1416.63,368.371 1418.82,368.371 1421.02,368.371 1423.21,368.371 1425.4,368.371 1427.59,368.371 1429.79,368.371 1431.98,368.371 1434.17,368.371 1436.36,368.371 1438.55,368.371 1440.75,368.371 1442.94,368.371 1445.13,368.371 1447.32,368.371 1449.52,368.371 1451.71,368.371 1453.9,368.371 1456.09,368.371 1458.29,368.371 1460.48,368.371 1462.67,368.371 1464.86,368.371 1467.05,368.371 1469.25,368.371 1471.44,368.371 1473.63,368.371 1475.82,368.371 1478.02,368.371 1480.21,368.371 1482.4,368.371 1484.59,368.371 1486.79,368.371 1488.98,368.371 1491.17,368.371 1493.36,368.371 1495.56,368.371 1497.75,311.934 1499.94,311.934 1502.13,311.934 1504.32,311.934 1506.52,311.934 1508.71,311.934 1510.9,311.934 1513.09,311.934 1515.29,311.934 1517.48,311.934 1519.67,311.934 1521.86,255.497 1524.06,255.497 1526.25,255.497 1528.44,255.497 1530.63,255.497 1532.82,255.497 1535.02,255.497 1537.21,255.497 1539.4,255.497 1541.59,255.497 1543.79,255.497 1545.98,255.497 1548.17,255.497 1550.36,255.497 1552.56,255.497 1554.75,255.497 1556.94,255.497 1559.13,255.497 1561.32,255.497 1563.52,255.497 1565.71,255.497 1567.9,255.497 1570.09,255.497 1572.29,255.497 1574.48,255.497 1576.67,255.497 1578.86,255.497 1581.06,255.497 1583.25,255.497 1585.44,255.497 1587.63,255.497 1589.83,255.497 1592.02,199.06 1594.21,199.06 1596.4,199.06 1598.59,199.06 1600.79,199.06 1602.98,199.06 1605.17,199.06 1607.36,199.06 1609.56,199.06 1611.75,199.06 1613.94,199.06 1616.13,199.06 1618.33,199.06 1620.52,199.06 1622.71,199.06 1624.9,199.06 1627.09,199.06 1629.29,199.06 1631.48,199.06 1633.67,199.06 1635.86,199.06 1638.06,199.06 1640.25,199.06 1642.44,199.06 1644.63,199.06 1646.83,199.06 1649.02,199.06 1651.21,199.06 1653.4,199.06 1655.6,199.06 1657.79,199.06 1659.98,199.06 1662.17,199.06 1664.36,199.06 1666.56,199.06 1668.75,199.06 1670.94,199.06 1673.13,199.06 1675.33,199.06 1677.52,199.06 1679.71,199.06 1681.9,199.06 1684.1,199.06 1686.29,199.06 1688.48,199.06 1690.67,199.06 1692.86,199.06 1695.06,199.06 1697.25,199.06 1699.44,199.06 1701.63,199.06 1703.83,199.06 1706.02,199.06 1708.21,199.06 1710.4,199.06 1712.6,199.06 1714.79,199.06 1716.98,199.06 1719.17,199.06 1721.37,199.06 1723.56,199.06 1725.75,199.06 1727.94,199.06 1730.13,199.06 1732.33,199.06 1734.52,199.06 1736.71,199.06 1738.9,199.06 1741.1,199.06 1743.29,199.06 1745.48,199.06 1747.67,199.06 1749.87,199.06 1752.06,199.06 1754.25,199.06 1756.44,199.06 1758.63,199.06 1760.83,199.06 1763.02,199.06 1765.21,199.06 1767.4,199.06 1769.6,199.06 1771.79,199.06 1773.98,199.06 1776.17,199.06 1778.37,199.06 1780.56,199.06 1782.75,199.06 1784.94,199.06 1787.13,199.06 1789.33,199.06 1791.52,199.06 1793.71,199.06 1795.9,199.06 1798.1,199.06 1800.29,199.06 1802.48,199.06 1804.67,199.06 1806.87,199.06 1809.06,199.06 1811.25,199.06 1813.44,199.06 1815.64,199.06 1817.83,199.06 1820.02,199.06 1822.21,199.06 1824.4,199.06 1826.6,199.06 1828.79,199.06 1830.98,199.06 1833.17,199.06 1835.37,199.06 1837.56,199.06 1839.75,199.06 1841.94,199.06 1844.14,199.06 1846.33,199.06 1848.52,199.06 1850.71,199.06 1852.9,199.06 1855.1,199.06 1857.29,199.06 1859.48,199.06 1861.67,199.06 1863.87,199.06 1866.06,199.06 1868.25,199.06 1870.44,199.06 1872.64,199.06 1874.83,199.06 1877.02,199.06 1879.21,199.06 1881.41,199.06 1883.6,199.06 1885.79,199.06 1887.98,199.06 1890.17,199.06 1892.37,199.06 1894.56,199.06 1896.75,199.06 1898.94,199.06 1901.14,199.06 1903.33,199.06 1905.52,199.06 1907.71,199.06 1909.91,199.06 1912.1,199.06 1914.29,199.06 1916.48,199.06 1918.67,199.06 1920.87,199.06 1923.06,199.06 1925.25,199.06 1927.44,199.06 1929.64,199.06 1931.83,199.06 1934.02,199.06 1936.21,199.06 1938.41,199.06 1940.6,199.06 1942.79,199.06 1944.98,199.06 1947.17,199.06 1949.37,199.06 1951.56,199.06 1953.75,199.06 1955.94,199.06 1958.14,199.06 1960.33,199.06 1962.52,199.06 1964.71,199.06 1966.91,199.06 1969.1,199.06 1971.29,199.06 1973.48,199.06 1975.68,199.06 1977.87,199.06 1980.06,199.06 1982.25,199.06 1984.44,199.06 1986.64,199.06 1988.83,199.06 1991.02,199.06 1993.21,199.06 1995.41,199.06 1997.6,199.06 1999.79,199.06 2001.98,199.06 2004.18,199.06 2006.37,199.06 2008.56,199.06 2010.75,199.06 2012.94,199.06 2015.14,199.06 2017.33,199.06 2019.52,199.06 2021.71,199.06 2023.91,199.06 2026.1,199.06 2028.29,199.06 2030.48,199.06 2032.68,199.06 2034.87,199.06 2037.06,199.06 2039.25,199.06 2041.45,199.06 2043.64,199.06 2045.83,199.06 2048.02,199.06 2050.21,199.06 2052.41,199.06 2054.6,199.06 2056.79,199.06 2058.98,199.06 2061.18,199.06 2063.37,199.06 2065.56,199.06 2067.75,199.06 2069.95,199.06 2072.14,199.06 2074.33,199.06 2076.52,199.06 2078.71,199.06 2080.91,199.06 2083.1,199.06 2085.29,199.06 2087.48,199.06 2089.68,199.06 2091.87,199.06 2094.06,199.06 2096.25,199.06 2098.45,199.06 2100.64,199.06 2102.83,199.06 2105.02,199.06 2107.22,199.06 2109.41,199.06 2111.6,199.06 2113.79,199.06 2115.98,199.06 2118.18,199.06 2120.37,199.06 2122.56,199.06 2124.75,199.06 2126.95,199.06 2129.14,199.06 2131.33,199.06 2133.52,199.06 2135.72,142.623 2137.91,142.623 2140.1,86.1857 2142.29,86.1857 2144.48,86.1857 2146.68,86.1857 2148.87,86.1857 2151.06,86.1857 2153.25,86.1857 2155.45,86.1857 2157.64,86.1857 2159.83,86.1857 2162.02,86.1857 2164.22,86.1857 2166.41,86.1857 2168.6,86.1857 2170.79,86.1857 2172.98,86.1857 2175.18,86.1857 2177.37,86.1857 2179.56,86.1857 2181.75,86.1857 2183.95,86.1857 2186.14,86.1857 2188.33,86.1857 2190.52,86.1857 2192.72,86.1857 2194.91,86.1857 2197.1,86.1857 2199.29,86.1857 2201.49,86.1857 2203.68,86.1857 2205.87,86.1857 2208.06,86.1857 2210.25,86.1857 2212.45,86.1857 2214.64,86.1857 2216.83,86.1857 2219.02,86.1857 2221.22,86.1857 2223.41,86.1857 2225.6,86.1857 2227.79,86.1857 2229.99,86.1857 2232.18,86.1857 2234.37,86.1857 2236.56,86.1857 2238.75,86.1857 2240.95,86.1857 2243.14,86.1857 2245.33,86.1857 2247.52,86.1857 2249.72,86.1857 2251.91,86.1857 2254.1,86.1857 2256.29,86.1857 2258.49,86.1857 2260.68,86.1857 2262.87,86.1857 2265.06,86.1857 2267.26,86.1857 2269.45,86.1857 2271.64,86.1857 2273.83,86.1857 2276.02,86.1857 2278.22,86.1857 2280.41,86.1857 2282.6,86.1857 2284.79,86.1857 2286.99,86.1857 2289.18,86.1857 2291.37,86.1857 2293.56,86.1857 2295.76,86.1857 2297.95,86.1857 2300.14,86.1857 2302.33,86.1857 2304.52,86.1857 2306.72,86.1857 2308.91,86.1857 2311.1,86.1857 2313.29,86.1857 2315.49,86.1857 2317.68,86.1857 2319.87,86.1857 2322.06,86.1857 2324.26,86.1857 2326.45,86.1857 2328.64,86.1857 2330.83,86.1857 2333.02,86.1857 2335.22,86.1857 2337.41,86.1857 2339.6,86.1857 2341.79,86.1857 2343.99,86.1857 2346.18,86.1857 2348.37,86.1857 2350.56,86.1857 2352.76,86.1857 "/>
<path clip-path="url(#clip030)" d="M214.431 248.629 L518.993 248.629 L518.993 93.1086 L214.431 93.1086  Z" fill="#ffffff" fill-rule="evenodd" fill-opacity="1"/>
<polyline clip-path="url(#clip030)" style="stroke:#000000; stroke-linecap:round; stroke-linejoin:round; stroke-width:4; stroke-opacity:1; fill:none" points="214.431,248.629 518.993,248.629 518.993,93.1086 214.431,93.1086 214.431,248.629 "/>
<polyline clip-path="url(#clip030)" style="stroke:#009af9; stroke-linecap:round; stroke-linejoin:round; stroke-width:8; stroke-opacity:1; fill:none" points="239.009,144.949 386.48,144.949 "/>
<path clip-path="url(#clip030)" d="M411.058 127.669 L417.355 127.669 L432.679 156.581 L432.679 127.669 L437.216 127.669 L437.216 162.229 L430.919 162.229 L415.595 133.317 L415.595 162.229 L411.058 162.229 L411.058 127.669 Z" fill="#000000" fill-rule="nonzero" fill-opacity="1" /><path clip-path="url(#clip030)" d="M456.567 126.257 Q453.466 131.581 451.961 136.789 Q450.456 141.997 450.456 147.344 Q450.456 152.692 451.961 157.946 Q453.489 163.178 456.567 168.479 L452.864 168.479 Q449.392 163.039 447.656 157.784 Q445.943 152.53 445.943 147.344 Q445.943 142.182 447.656 136.951 Q449.368 131.72 452.864 126.257 L456.567 126.257 Z" fill="#000000" fill-rule="nonzero" fill-opacity="1" /><path clip-path="url(#clip030)" d="M469.044 128.942 L469.044 136.303 L477.817 136.303 L477.817 139.613 L469.044 139.613 L469.044 153.687 Q469.044 156.858 469.901 157.761 Q470.78 158.664 473.442 158.664 L477.817 158.664 L477.817 162.229 L473.442 162.229 Q468.512 162.229 466.637 160.4 Q464.762 158.548 464.762 153.687 L464.762 139.613 L461.637 139.613 L461.637 136.303 L464.762 136.303 L464.762 128.942 L469.044 128.942 Z" fill="#000000" fill-rule="nonzero" fill-opacity="1" /><path clip-path="url(#clip030)" d="M482.748 126.257 L486.452 126.257 Q489.924 131.72 491.637 136.951 Q493.373 142.182 493.373 147.344 Q493.373 152.53 491.637 157.784 Q489.924 163.039 486.452 168.479 L482.748 168.479 Q485.827 163.178 487.331 157.946 Q488.859 152.692 488.859 147.344 Q488.859 141.997 487.331 136.789 Q485.827 131.581 482.748 126.257 Z" fill="#000000" fill-rule="nonzero" fill-opacity="1" /><polyline clip-path="url(#clip030)" style="stroke:#e26f46; stroke-linecap:round; stroke-linejoin:round; stroke-width:8; stroke-opacity:1; fill:none" points="239.009,196.789 386.48,196.789 "/>
<path clip-path="url(#clip030)" d="M415.734 183.351 L415.734 210.226 L421.382 210.226 Q428.535 210.226 431.845 206.985 Q435.179 203.745 435.179 196.754 Q435.179 189.809 431.845 186.592 Q428.535 183.351 421.382 183.351 L415.734 183.351 M411.058 179.509 L420.665 179.509 Q430.711 179.509 435.41 183.698 Q440.109 187.865 440.109 196.754 Q440.109 205.689 435.387 209.879 Q430.665 214.069 420.665 214.069 L411.058 214.069 L411.058 179.509 Z" fill="#000000" fill-rule="nonzero" fill-opacity="1" /><path clip-path="url(#clip030)" d="M457.609 178.097 Q454.507 183.421 453.003 188.629 Q451.498 193.837 451.498 199.184 Q451.498 204.532 453.003 209.786 Q454.53 215.018 457.609 220.319 L453.905 220.319 Q450.433 214.879 448.697 209.624 Q446.984 204.37 446.984 199.184 Q446.984 194.022 448.697 188.791 Q450.41 183.56 453.905 178.097 L457.609 178.097 Z" fill="#000000" fill-rule="nonzero" fill-opacity="1" /><path clip-path="url(#clip030)" d="M470.086 180.782 L470.086 188.143 L478.859 188.143 L478.859 191.453 L470.086 191.453 L470.086 205.527 Q470.086 208.698 470.942 209.601 Q471.822 210.504 474.484 210.504 L478.859 210.504 L478.859 214.069 L474.484 214.069 Q469.554 214.069 467.679 212.24 Q465.804 210.388 465.804 205.527 L465.804 191.453 L462.679 191.453 L462.679 188.143 L465.804 188.143 L465.804 180.782 L470.086 180.782 Z" fill="#000000" fill-rule="nonzero" fill-opacity="1" /><path clip-path="url(#clip030)" d="M483.79 178.097 L487.493 178.097 Q490.965 183.56 492.678 188.791 Q494.415 194.022 494.415 199.184 Q494.415 204.37 492.678 209.624 Q490.965 214.879 487.493 220.319 L483.79 220.319 Q486.868 215.018 488.373 209.786 Q489.901 204.532 489.901 199.184 Q489.901 193.837 488.373 188.629 Q486.868 183.421 483.79 178.097 Z" fill="#000000" fill-rule="nonzero" fill-opacity="1" /></svg>
