<?xml version="1.0" encoding="utf-8"?>
<svg xmlns="http://www.w3.org/2000/svg" xmlns:xlink="http://www.w3.org/1999/xlink" width="600" height="400" viewBox="0 0 2400 1600">
<defs>
  <clipPath id="clip410">
    <rect x="0" y="0" width="2400" height="1600"/>
  </clipPath>
</defs>
<path clip-path="url(#clip410)" d="M0 1600 L2400 1600 L2400 0 L0 0  Z" fill="#ffffff" fill-rule="evenodd" fill-opacity="1"/>
<defs>
  <clipPath id="clip411">
    <rect x="155" y="47" width="2198" height="1377"/>
  </clipPath>
</defs>
<path clip-path="url(#clip410)" d="M155.765 1423.18 L2352.76 1423.18 L2352.76 47.2441 L155.765 47.2441  Z" fill="#ffffff" fill-rule="evenodd" fill-opacity="1"/>
<polyline clip-path="url(#clip411)" style="stroke:#000000; stroke-linecap:round; stroke-linejoin:round; stroke-width:2; stroke-opacity:0.1; fill:none" points="155.765,1423.18 155.765,47.2441 "/>
<polyline clip-path="url(#clip411)" style="stroke:#000000; stroke-linecap:round; stroke-linejoin:round; stroke-width:2; stroke-opacity:0.1; fill:none" points="595.163,1423.18 595.163,47.2441 "/>
<polyline clip-path="url(#clip411)" style="stroke:#000000; stroke-linecap:round; stroke-linejoin:round; stroke-width:2; stroke-opacity:0.1; fill:none" points="1034.56,1423.18 1034.56,47.2441 "/>
<polyline clip-path="url(#clip411)" style="stroke:#000000; stroke-linecap:round; stroke-linejoin:round; stroke-width:2; stroke-opacity:0.1; fill:none" points="1473.96,1423.18 1473.96,47.2441 "/>
<polyline clip-path="url(#clip411)" style="stroke:#000000; stroke-linecap:round; stroke-linejoin:round; stroke-width:2; stroke-opacity:0.1; fill:none" points="1913.36,1423.18 1913.36,47.2441 "/>
<polyline clip-path="url(#clip411)" style="stroke:#000000; stroke-linecap:round; stroke-linejoin:round; stroke-width:2; stroke-opacity:0.1; fill:none" points="2352.76,1423.18 2352.76,47.2441 "/>
<polyline clip-path="url(#clip411)" style="stroke:#000000; stroke-linecap:round; stroke-linejoin:round; stroke-width:2; stroke-opacity:0.1; fill:none" points="155.765,1193.7 2352.76,1193.7 "/>
<polyline clip-path="url(#clip411)" style="stroke:#000000; stroke-linecap:round; stroke-linejoin:round; stroke-width:2; stroke-opacity:0.1; fill:none" points="155.765,876.139 2352.76,876.139 "/>
<polyline clip-path="url(#clip411)" style="stroke:#000000; stroke-linecap:round; stroke-linejoin:round; stroke-width:2; stroke-opacity:0.1; fill:none" points="155.765,558.576 2352.76,558.576 "/>
<polyline clip-path="url(#clip411)" style="stroke:#000000; stroke-linecap:round; stroke-linejoin:round; stroke-width:2; stroke-opacity:0.1; fill:none" points="155.765,241.014 2352.76,241.014 "/>
<polyline clip-path="url(#clip410)" style="stroke:#000000; stroke-linecap:round; stroke-linejoin:round; stroke-width:4; stroke-opacity:1; fill:none" points="155.765,1423.18 2352.76,1423.18 "/>
<polyline clip-path="url(#clip410)" style="stroke:#000000; stroke-linecap:round; stroke-linejoin:round; stroke-width:4; stroke-opacity:1; fill:none" points="155.765,1423.18 155.765,1404.28 "/>
<polyline clip-path="url(#clip410)" style="stroke:#000000; stroke-linecap:round; stroke-linejoin:round; stroke-width:4; stroke-opacity:1; fill:none" points="595.163,1423.18 595.163,1404.28 "/>
<polyline clip-path="url(#clip410)" style="stroke:#000000; stroke-linecap:round; stroke-linejoin:round; stroke-width:4; stroke-opacity:1; fill:none" points="1034.56,1423.18 1034.56,1404.28 "/>
<polyline clip-path="url(#clip410)" style="stroke:#000000; stroke-linecap:round; stroke-linejoin:round; stroke-width:4; stroke-opacity:1; fill:none" points="1473.96,1423.18 1473.96,1404.28 "/>
<polyline clip-path="url(#clip410)" style="stroke:#000000; stroke-linecap:round; stroke-linejoin:round; stroke-width:4; stroke-opacity:1; fill:none" points="1913.36,1423.18 1913.36,1404.28 "/>
<polyline clip-path="url(#clip410)" style="stroke:#000000; stroke-linecap:round; stroke-linejoin:round; stroke-width:4; stroke-opacity:1; fill:none" points="2352.76,1423.18 2352.76,1404.28 "/>
<path clip-path="url(#clip410)" d="M155.765 1454.1 Q152.154 1454.1 150.325 1457.66 Q148.52 1461.2 148.52 1468.33 Q148.52 1475.44 150.325 1479.01 Q152.154 1482.55 155.765 1482.55 Q159.399 1482.55 161.205 1479.01 Q163.033 1475.44 163.033 1468.33 Q163.033 1461.2 161.205 1457.66 Q159.399 1454.1 155.765 1454.1 M155.765 1450.39 Q161.575 1450.39 164.631 1455 Q167.709 1459.58 167.709 1468.33 Q167.709 1477.06 164.631 1481.67 Q161.575 1486.25 155.765 1486.25 Q149.955 1486.25 146.876 1481.67 Q143.821 1477.06 143.821 1468.33 Q143.821 1459.58 146.876 1455 Q149.955 1450.39 155.765 1450.39 Z" fill="#000000" fill-rule="nonzero" fill-opacity="1" /><path clip-path="url(#clip410)" d="M589.816 1481.64 L606.135 1481.64 L606.135 1485.58 L584.191 1485.58 L584.191 1481.64 Q586.853 1478.89 591.436 1474.26 Q596.043 1469.61 597.223 1468.27 Q599.469 1465.74 600.348 1464.01 Q601.251 1462.25 601.251 1460.56 Q601.251 1457.8 599.307 1456.07 Q597.385 1454.33 594.283 1454.33 Q592.084 1454.33 589.631 1455.09 Q587.2 1455.86 584.422 1457.41 L584.422 1452.69 Q587.246 1451.55 589.7 1450.97 Q592.154 1450.39 594.191 1450.39 Q599.561 1450.39 602.756 1453.08 Q605.95 1455.77 605.95 1460.26 Q605.95 1462.39 605.14 1464.31 Q604.353 1466.2 602.246 1468.8 Q601.668 1469.47 598.566 1472.69 Q595.464 1475.88 589.816 1481.64 Z" fill="#000000" fill-rule="nonzero" fill-opacity="1" /><path clip-path="url(#clip410)" d="M1037.57 1455.09 L1025.77 1473.54 L1037.57 1473.54 L1037.57 1455.09 M1036.34 1451.02 L1042.22 1451.02 L1042.22 1473.54 L1047.15 1473.54 L1047.15 1477.43 L1042.22 1477.43 L1042.22 1485.58 L1037.57 1485.58 L1037.57 1477.43 L1021.97 1477.43 L1021.97 1472.92 L1036.34 1451.02 Z" fill="#000000" fill-rule="nonzero" fill-opacity="1" /><path clip-path="url(#clip410)" d="M1474.36 1466.44 Q1471.22 1466.44 1469.36 1468.59 Q1467.54 1470.74 1467.54 1474.49 Q1467.54 1478.22 1469.36 1480.39 Q1471.22 1482.55 1474.36 1482.55 Q1477.51 1482.55 1479.34 1480.39 Q1481.19 1478.22 1481.19 1474.49 Q1481.19 1470.74 1479.34 1468.59 Q1477.51 1466.44 1474.36 1466.44 M1483.65 1451.78 L1483.65 1456.04 Q1481.89 1455.21 1480.08 1454.77 Q1478.3 1454.33 1476.54 1454.33 Q1471.91 1454.33 1469.46 1457.45 Q1467.03 1460.58 1466.68 1466.9 Q1468.05 1464.89 1470.11 1463.82 Q1472.17 1462.73 1474.64 1462.73 Q1479.85 1462.73 1482.86 1465.9 Q1485.89 1469.05 1485.89 1474.49 Q1485.89 1479.82 1482.74 1483.03 Q1479.6 1486.25 1474.36 1486.25 Q1468.37 1486.25 1465.2 1481.67 Q1462.03 1477.06 1462.03 1468.33 Q1462.03 1460.14 1465.92 1455.28 Q1469.8 1450.39 1476.36 1450.39 Q1478.11 1450.39 1479.9 1450.74 Q1481.7 1451.09 1483.65 1451.78 Z" fill="#000000" fill-rule="nonzero" fill-opacity="1" /><path clip-path="url(#clip410)" d="M1913.36 1469.17 Q1910.02 1469.17 1908.1 1470.95 Q1906.2 1472.73 1906.2 1475.86 Q1906.2 1478.98 1908.1 1480.77 Q1910.02 1482.55 1913.36 1482.55 Q1916.69 1482.55 1918.61 1480.77 Q1920.53 1478.96 1920.53 1475.86 Q1920.53 1472.73 1918.61 1470.95 Q1916.71 1469.17 1913.36 1469.17 M1908.68 1467.18 Q1905.67 1466.44 1903.98 1464.38 Q1902.32 1462.32 1902.32 1459.35 Q1902.32 1455.21 1905.26 1452.8 Q1908.22 1450.39 1913.36 1450.39 Q1918.52 1450.39 1921.46 1452.8 Q1924.4 1455.21 1924.4 1459.35 Q1924.4 1462.32 1922.71 1464.38 Q1921.04 1466.44 1918.06 1467.18 Q1921.44 1467.96 1923.31 1470.26 Q1925.21 1472.55 1925.21 1475.86 Q1925.21 1480.88 1922.13 1483.57 Q1919.08 1486.25 1913.36 1486.25 Q1907.64 1486.25 1904.56 1483.57 Q1901.51 1480.88 1901.51 1475.86 Q1901.51 1472.55 1903.4 1470.26 Q1905.3 1467.96 1908.68 1467.18 M1906.97 1459.79 Q1906.97 1462.48 1908.64 1463.98 Q1910.33 1465.49 1913.36 1465.49 Q1916.37 1465.49 1918.06 1463.98 Q1919.77 1462.48 1919.77 1459.79 Q1919.77 1457.11 1918.06 1455.6 Q1916.37 1454.1 1913.36 1454.1 Q1910.33 1454.1 1908.64 1455.6 Q1906.97 1457.11 1906.97 1459.79 Z" fill="#000000" fill-rule="nonzero" fill-opacity="1" /><path clip-path="url(#clip410)" d="M2327.44 1481.64 L2335.08 1481.64 L2335.08 1455.28 L2326.77 1456.95 L2326.77 1452.69 L2335.04 1451.02 L2339.71 1451.02 L2339.71 1481.64 L2347.35 1481.64 L2347.35 1485.58 L2327.44 1485.58 L2327.44 1481.64 Z" fill="#000000" fill-rule="nonzero" fill-opacity="1" /><path clip-path="url(#clip410)" d="M2366.8 1454.1 Q2363.18 1454.1 2361.36 1457.66 Q2359.55 1461.2 2359.55 1468.33 Q2359.55 1475.44 2361.36 1479.01 Q2363.18 1482.55 2366.8 1482.55 Q2370.43 1482.55 2372.23 1479.01 Q2374.06 1475.44 2374.06 1468.33 Q2374.06 1461.2 2372.23 1457.66 Q2370.43 1454.1 2366.8 1454.1 M2366.8 1450.39 Q2372.61 1450.39 2375.66 1455 Q2378.74 1459.58 2378.74 1468.33 Q2378.74 1477.06 2375.66 1481.67 Q2372.61 1486.25 2366.8 1486.25 Q2360.99 1486.25 2357.91 1481.67 Q2354.85 1477.06 2354.85 1468.33 Q2354.85 1459.58 2357.91 1455 Q2360.99 1450.39 2366.8 1450.39 Z" fill="#000000" fill-rule="nonzero" fill-opacity="1" /><path clip-path="url(#clip410)" d="M1253.32 1522.27 L1253.32 1532.4 L1265.38 1532.4 L1265.38 1536.95 L1253.32 1536.95 L1253.32 1556.3 Q1253.32 1560.66 1254.5 1561.9 Q1255.71 1563.14 1259.37 1563.14 L1265.38 1563.14 L1265.38 1568.04 L1259.37 1568.04 Q1252.59 1568.04 1250.01 1565.53 Q1247.43 1562.98 1247.43 1556.3 L1247.43 1536.95 L1243.14 1536.95 L1243.14 1532.4 L1247.43 1532.4 L1247.43 1522.27 L1253.32 1522.27 Z" fill="#000000" fill-rule="nonzero" fill-opacity="1" /><polyline clip-path="url(#clip410)" style="stroke:#000000; stroke-linecap:round; stroke-linejoin:round; stroke-width:4; stroke-opacity:1; fill:none" points="155.765,1423.18 155.765,47.2441 "/>
<polyline clip-path="url(#clip410)" style="stroke:#000000; stroke-linecap:round; stroke-linejoin:round; stroke-width:4; stroke-opacity:1; fill:none" points="155.765,1193.7 174.663,1193.7 "/>
<polyline clip-path="url(#clip410)" style="stroke:#000000; stroke-linecap:round; stroke-linejoin:round; stroke-width:4; stroke-opacity:1; fill:none" points="155.765,876.139 174.663,876.139 "/>
<polyline clip-path="url(#clip410)" style="stroke:#000000; stroke-linecap:round; stroke-linejoin:round; stroke-width:4; stroke-opacity:1; fill:none" points="155.765,558.576 174.663,558.576 "/>
<polyline clip-path="url(#clip410)" style="stroke:#000000; stroke-linecap:round; stroke-linejoin:round; stroke-width:4; stroke-opacity:1; fill:none" points="155.765,241.014 174.663,241.014 "/>
<path clip-path="url(#clip410)" d="M63.5847 1179.5 Q59.9736 1179.5 58.1449 1183.06 Q56.3393 1186.61 56.3393 1193.74 Q56.3393 1200.84 58.1449 1204.41 Q59.9736 1207.95 63.5847 1207.95 Q67.2189 1207.95 69.0244 1204.41 Q70.8531 1200.84 70.8531 1193.74 Q70.8531 1186.61 69.0244 1183.06 Q67.2189 1179.5 63.5847 1179.5 M63.5847 1175.8 Q69.3948 1175.8 72.4503 1180.4 Q75.529 1184.99 75.529 1193.74 Q75.529 1202.46 72.4503 1207.07 Q69.3948 1211.65 63.5847 1211.65 Q57.7745 1211.65 54.6958 1207.07 Q51.6403 1202.46 51.6403 1193.74 Q51.6403 1184.99 54.6958 1180.4 Q57.7745 1175.8 63.5847 1175.8 Z" fill="#000000" fill-rule="nonzero" fill-opacity="1" /><path clip-path="url(#clip410)" d="M83.7466 1205.1 L88.6308 1205.1 L88.6308 1210.98 L83.7466 1210.98 L83.7466 1205.1 Z" fill="#000000" fill-rule="nonzero" fill-opacity="1" /><path clip-path="url(#clip410)" d="M98.8622 1176.42 L117.219 1176.42 L117.219 1180.36 L103.145 1180.36 L103.145 1188.83 Q104.163 1188.48 105.182 1188.32 Q106.2 1188.13 107.219 1188.13 Q113.006 1188.13 116.385 1191.31 Q119.765 1194.48 119.765 1199.89 Q119.765 1205.47 116.293 1208.57 Q112.82 1211.65 106.501 1211.65 Q104.325 1211.65 102.057 1211.28 Q99.8113 1210.91 97.4039 1210.17 L97.4039 1205.47 Q99.4872 1206.61 101.709 1207.16 Q103.932 1207.72 106.408 1207.72 Q110.413 1207.72 112.751 1205.61 Q115.089 1203.5 115.089 1199.89 Q115.089 1196.28 112.751 1194.18 Q110.413 1192.07 106.408 1192.07 Q104.534 1192.07 102.659 1192.49 Q100.807 1192.9 98.8622 1193.78 L98.8622 1176.42 Z" fill="#000000" fill-rule="nonzero" fill-opacity="1" /><path clip-path="url(#clip410)" d="M53.3995 889.483 L61.0384 889.483 L61.0384 863.118 L52.7282 864.784 L52.7282 860.525 L60.9921 858.859 L65.668 858.859 L65.668 889.483 L73.3068 889.483 L73.3068 893.419 L53.3995 893.419 L53.3995 889.483 Z" fill="#000000" fill-rule="nonzero" fill-opacity="1" /><path clip-path="url(#clip410)" d="M82.7512 887.539 L87.6354 887.539 L87.6354 893.419 L82.7512 893.419 L82.7512 887.539 Z" fill="#000000" fill-rule="nonzero" fill-opacity="1" /><path clip-path="url(#clip410)" d="M107.821 861.937 Q104.209 861.937 102.381 865.502 Q100.575 869.044 100.575 876.173 Q100.575 883.28 102.381 886.844 Q104.209 890.386 107.821 890.386 Q111.455 890.386 113.26 886.844 Q115.089 883.28 115.089 876.173 Q115.089 869.044 113.26 865.502 Q111.455 861.937 107.821 861.937 M107.821 858.234 Q113.631 858.234 116.686 862.84 Q119.765 867.423 119.765 876.173 Q119.765 884.9 116.686 889.506 Q113.631 894.09 107.821 894.09 Q102.01 894.09 98.9317 889.506 Q95.8761 884.9 95.8761 876.173 Q95.8761 867.423 98.9317 862.84 Q102.01 858.234 107.821 858.234 Z" fill="#000000" fill-rule="nonzero" fill-opacity="1" /><path clip-path="url(#clip410)" d="M54.3949 571.921 L62.0337 571.921 L62.0337 545.555 L53.7236 547.222 L53.7236 542.963 L61.9874 541.296 L66.6633 541.296 L66.6633 571.921 L74.3022 571.921 L74.3022 575.856 L54.3949 575.856 L54.3949 571.921 Z" fill="#000000" fill-rule="nonzero" fill-opacity="1" /><path clip-path="url(#clip410)" d="M83.7466 569.977 L88.6308 569.977 L88.6308 575.856 L83.7466 575.856 L83.7466 569.977 Z" fill="#000000" fill-rule="nonzero" fill-opacity="1" /><path clip-path="url(#clip410)" d="M98.8622 541.296 L117.219 541.296 L117.219 545.231 L103.145 545.231 L103.145 553.703 Q104.163 553.356 105.182 553.194 Q106.2 553.009 107.219 553.009 Q113.006 553.009 116.385 556.18 Q119.765 559.352 119.765 564.768 Q119.765 570.347 116.293 573.449 Q112.82 576.527 106.501 576.527 Q104.325 576.527 102.057 576.157 Q99.8113 575.787 97.4039 575.046 L97.4039 570.347 Q99.4872 571.481 101.709 572.037 Q103.932 572.592 106.408 572.592 Q110.413 572.592 112.751 570.486 Q115.089 568.379 115.089 564.768 Q115.089 561.157 112.751 559.051 Q110.413 556.944 106.408 556.944 Q104.534 556.944 102.659 557.361 Q100.807 557.778 98.8622 558.657 L98.8622 541.296 Z" fill="#000000" fill-rule="nonzero" fill-opacity="1" /><path clip-path="url(#clip410)" d="M56.6171 254.359 L72.9365 254.359 L72.9365 258.294 L50.9921 258.294 L50.9921 254.359 Q53.6541 251.604 58.2375 246.974 Q62.8439 242.322 64.0245 240.979 Q66.2698 238.456 67.1494 236.72 Q68.0522 234.961 68.0522 233.271 Q68.0522 230.516 66.1078 228.78 Q64.1865 227.044 61.0847 227.044 Q58.8856 227.044 56.4319 227.808 Q54.0014 228.572 51.2236 230.123 L51.2236 225.4 Q54.0477 224.266 56.5014 223.688 Q58.955 223.109 60.9921 223.109 Q66.3624 223.109 69.5568 225.794 Q72.7513 228.479 72.7513 232.97 Q72.7513 235.099 71.9411 237.021 Q71.1541 238.919 69.0476 241.511 Q68.4689 242.183 65.367 245.4 Q62.2652 248.595 56.6171 254.359 Z" fill="#000000" fill-rule="nonzero" fill-opacity="1" /><path clip-path="url(#clip410)" d="M82.7512 252.414 L87.6354 252.414 L87.6354 258.294 L82.7512 258.294 L82.7512 252.414 Z" fill="#000000" fill-rule="nonzero" fill-opacity="1" /><path clip-path="url(#clip410)" d="M107.821 226.812 Q104.209 226.812 102.381 230.377 Q100.575 233.919 100.575 241.049 Q100.575 248.155 102.381 251.72 Q104.209 255.261 107.821 255.261 Q111.455 255.261 113.26 251.72 Q115.089 248.155 115.089 241.049 Q115.089 233.919 113.26 230.377 Q111.455 226.812 107.821 226.812 M107.821 223.109 Q113.631 223.109 116.686 227.715 Q119.765 232.299 119.765 241.049 Q119.765 249.775 116.686 254.382 Q113.631 258.965 107.821 258.965 Q102.01 258.965 98.9317 254.382 Q95.8761 249.775 95.8761 241.049 Q95.8761 232.299 98.9317 227.715 Q102.01 223.109 107.821 223.109 Z" fill="#000000" fill-rule="nonzero" fill-opacity="1" /><polyline clip-path="url(#clip411)" style="stroke:#009af9; stroke-linecap:round; stroke-linejoin:round; stroke-width:8; stroke-opacity:1; fill:none" points="155.765,1384.24 157.964,1382.96 160.163,1381.67 162.362,1380.37 164.562,1379.05 166.761,1377.72 168.96,1376.38 171.159,1375.02 173.358,1373.65 175.558,1372.26 177.757,1370.86 179.956,1369.45 182.155,1368.03 184.354,1366.58 186.554,1365.13 188.753,1363.66 190.952,1362.17 193.151,1360.67 195.35,1359.16 197.55,1357.63 199.749,1356.08 201.948,1354.52 204.147,1352.95 206.346,1351.35 208.545,1349.74 210.745,1348.12 212.944,1346.48 215.143,1344.82 217.342,1343.15 219.541,1341.45 221.741,1339.75 223.94,1338.02 226.139,1336.28 228.338,1334.52 230.537,1332.74 232.737,1330.94 234.936,1329.13 237.135,1327.3 239.334,1325.45 241.533,1323.58 243.733,1321.69 245.932,1319.78 248.131,1317.85 250.33,1315.91 252.529,1313.94 254.728,1311.96 256.928,1309.95 259.127,1307.93 261.326,1305.88 263.525,1303.82 265.724,1301.73 267.924,1299.62 270.123,1297.49 272.322,1295.34 274.521,1293.17 276.72,1290.98 278.92,1288.76 281.119,1286.52 283.318,1284.26 285.517,1281.98 287.716,1279.67 289.916,1277.34 292.115,1274.99 294.314,1272.61 296.513,1270.21 298.712,1267.78 300.911,1265.33 303.111,1262.86 305.31,1260.36 307.509,1257.84 309.708,1255.29 311.907,1252.71 314.107,1250.11 316.306,1247.48 318.505,1244.83 320.704,1242.15 322.903,1239.44 325.103,1236.71 327.302,1233.95 329.501,1231.16 331.7,1228.34 333.899,1225.49 336.099,1222.62 338.298,1219.71 340.497,1216.78 342.696,1213.82 344.895,1210.82 347.094,1207.8 349.294,1204.75 351.493,1201.67 353.692,1198.55 355.891,1195.4 358.09,1192.23 360.29,1189.02 362.489,1185.78 364.688,1182.5 366.887,1179.19 369.086,1175.85 371.286,1172.48 373.485,1169.07 375.684,1165.63 377.883,1162.15 380.082,1158.64 382.281,1155.09 384.481,1151.51 386.68,1147.89 388.879,1144.23 391.078,1140.54 393.277,1136.81 395.477,1133.04 397.676,1129.24 399.875,1125.4 402.074,1121.51 404.273,1117.59 406.473,1113.63 408.672,1109.63 410.871,1105.59 413.07,1101.51 415.269,1097.39 417.469,1093.22 419.668,1089.02 421.867,1084.77 424.066,1080.48 426.265,1076.15 428.464,1071.77 430.664,1067.35 432.863,1062.88 435.062,1058.37 437.261,1053.81 439.46,1049.21 441.66,1044.56 443.859,1039.87 446.058,1035.13 448.257,1030.34 450.456,1025.5 452.656,1020.61 454.855,1015.68 457.054,1260.98 459.253,1258.46 461.452,1255.92 463.652,1253.35 465.851,1381.01 468.05,1379.7 470.249,1378.37 472.448,1377.04 474.647,1375.69 476.847,1374.32 479.046,1372.94 481.245,1371.55 483.444,1370.15 485.643,1368.73 487.843,1367.29 490.042,1365.85 492.241,1364.38 494.44,1362.9 496.639,1361.41 498.839,1359.9 501.038,1358.38 503.237,1356.84 505.436,1355.29 507.635,1353.72 509.835,1352.14 512.034,1350.54 514.233,1348.92 516.432,1347.29 518.631,1345.64 520.83,1343.97 523.03,1342.29 525.229,1340.59 527.428,1338.87 529.627,1337.14 531.826,1335.38 534.026,1333.61 536.225,1331.83 538.424,1330.02 540.623,1328.2 542.822,1326.36 545.022,1324.5 547.221,1322.62 549.42,1320.72 551.619,1318.8 553.818,1316.87 556.018,1314.91 558.217,1312.94 560.416,1310.94 562.615,1308.93 564.814,1306.89 567.013,1304.83 569.213,1302.76 571.412,1300.66 573.611,1298.54 575.81,1296.4 578.009,1294.24 580.209,1292.06 582.408,1289.85 584.607,1287.62 586.806,1285.37 589.005,1283.1 591.205,1280.8 593.404,1278.49 595.603,1276.14 597.802,1273.78 600.001,1271.39 602.201,1268.98 604.4,1266.54 606.599,1264.08 608.798,1261.59 610.997,1259.08 613.196,1256.54 615.396,1253.98 617.595,1251.39 619.794,1248.78 621.993,1246.14 624.192,1243.47 626.392,1240.78 628.591,1238.06 630.79,1235.31 632.989,1232.53 635.188,1229.73 637.388,1226.9 639.587,1224.03 641.786,1221.15 643.985,1218.23 646.184,1215.28 648.384,1212.3 650.583,1209.29 652.782,1206.26 654.981,1203.19 657.18,1200.09 659.379,1196.96 661.579,1193.8 663.778,1190.6 665.977,1187.38 668.176,1184.12 670.375,1180.83 672.575,1177.5 674.774,1174.15 676.973,1170.75 679.172,1167.33 681.371,1163.87 683.571,1160.37 685.77,1156.84 687.969,1153.28 690.168,1149.67 692.367,1146.04 694.567,1142.36 696.766,1138.65 698.965,1134.9 701.164,1131.11 703.363,1127.29 705.562,1123.43 707.762,1119.52 709.961,1115.58 712.16,1111.6 714.359,1107.58 716.558,1103.52 718.758,1099.42 720.957,1095.27 723.156,1091.09 725.355,1086.86 727.554,1082.59 729.754,1078.28 731.953,1073.92 734.152,1069.52 736.351,1065.08 738.55,1060.59 740.749,1056.06 742.949,1051.48 745.148,1046.85 747.347,1042.18 749.546,1037.46 751.745,1032.7 753.945,1027.88 756.144,1023.02 758.343,1018.11 760.542,1013.15 762.741,1008.14 764.941,1003.07 767.14,997.963 769.339,992.8 771.538,987.584 773.737,982.317 775.937,976.996 778.136,971.622 780.335,966.193 782.534,960.71 784.733,955.172 786.932,949.578 789.132,943.928 791.331,938.221 793.53,932.457 795.729,926.634 797.928,920.753 800.128,914.812 802.327,908.812 804.526,902.752 806.725,896.63 808.924,890.446 811.124,884.201 813.323,877.892 815.522,871.52 817.721,865.084 819.92,858.583 822.12,852.016 824.319,845.383 826.518,838.684 828.717,831.917 830.916,825.082 833.115,818.178 835.315,811.205 837.514,804.161 839.713,797.047 841.912,789.861 844.111,782.603 846.311,775.271 848.51,767.866 850.709,760.387 852.908,752.833 855.107,745.202 857.307,737.495 859.506,729.711 861.705,721.848 863.904,713.906 866.103,705.885 868.303,697.782 870.502,689.599 872.701,681.332 874.9,672.983 877.099,1087.91 879.298,1083.65 881.498,1079.34 883.697,1075 885.896,1070.61 888.095,1066.18 890.294,1061.7 892.494,1057.18 894.693,1052.61 896.892,1047.99 899.091,1043.33 901.29,1038.63 903.49,1033.87 905.689,1029.07 907.888,1024.22 910.087,1019.32 912.286,1014.37 914.486,1009.37 916.685,1004.32 918.884,999.22 921.083,994.069 923.282,988.866 925.481,983.61 927.681,978.302 929.88,1242.1 932.079,1239.4 934.278,1236.66 936.477,1233.9 938.677,1231.11 940.876,1228.29 943.075,1225.44 945.274,1222.57 947.473,1219.66 949.673,1216.73 951.872,1213.76 954.071,1210.77 956.27,1207.75 958.469,1204.7 960.669,1201.61 962.868,1198.5 965.067,1195.35 967.266,1192.17 969.465,1188.96 971.664,1185.72 973.864,1182.44 976.063,1179.14 978.262,1175.8 980.461,1172.42 982.66,1169.01 984.86,1165.57 987.059,1162.09 989.258,1158.58 991.457,1155.03 993.656,1151.45 995.856,1147.83 998.055,1144.17 1000.25,1140.48 1002.45,1136.75 1004.65,1132.98 1006.85,1129.18 1009.05,1125.34 1011.25,1121.45 1013.45,1117.53 1015.65,1113.57 1017.85,1109.57 1020.05,1105.53 1022.25,1101.45 1024.45,1097.33 1026.64,1093.16 1028.84,1088.95 1031.04,1084.71 1033.24,1080.41 1035.44,1076.08 1037.64,1071.7 1039.84,1067.28 1042.04,1062.81 1044.24,1058.3 1046.44,1053.74 1048.64,1049.14 1050.84,1044.49 1053.03,1039.79 1055.23,1035.05 1057.43,1030.26 1059.63,1025.42 1061.83,1020.53 1064.03,1015.59 1066.23,1010.61 1068.43,1005.57 1070.63,1000.48 1072.83,995.343 1075.03,990.153 1077.23,1248.09 1079.42,1245.44 1081.62,1242.77 1083.82,1240.06 1086.02,1237.34 1088.22,1234.58 1090.42,1231.8 1092.62,1228.98 1094.82,1226.14 1097.02,1223.28 1099.22,1220.38 1101.42,1217.45 1103.62,1214.5 1105.82,1211.51 1108.01,1208.5 1110.21,1205.45 1112.41,1202.37 1114.61,1199.27 1116.81,1196.13 1119.01,1192.96 1121.21,1189.76 1123.41,1186.52 1125.61,1183.25 1127.81,1179.96 1130.01,1176.62 1132.21,1173.26 1134.4,1169.86 1136.6,1166.42 1138.8,1162.95 1141,1159.45 1143.2,1155.91 1145.4,1152.34 1147.6,1148.73 1149.8,1145.08 1152,1141.4 1154.2,1137.68 1156.4,1133.92 1158.6,1130.12 1160.79,1126.29 1162.99,1122.42 1165.19,1118.5 1167.39,1114.55 1169.59,1110.56 1171.79,1106.53 1173.99,1102.46 1176.19,1098.35 1178.39,1094.19 1180.59,1090 1182.79,1085.76 1184.99,1081.48 1187.19,1077.15 1189.38,1072.79 1191.58,1068.37 1193.78,1063.92 1195.98,1059.42 1198.18,1054.87 1200.38,1050.28 1202.58,1045.64 1204.78,1040.96 1206.98,1036.22 1209.18,1031.44 1211.38,1026.62 1213.58,1021.74 1215.77,1016.82 1217.97,1011.84 1220.17,1006.82 1222.37,1001.74 1224.57,996.614 1226.77,991.436 1228.97,986.207 1231.17,980.924 1233.37,975.589 1235.57,970.2 1237.77,964.757 1239.97,959.259 1242.16,1232.48 1244.36,1229.68 1246.56,1226.85 1248.76,1223.98 1250.96,1221.09 1253.16,1218.17 1255.36,1215.23 1257.56,1212.25 1259.76,1209.24 1261.96,1206.2 1264.16,1203.13 1266.36,1200.03 1268.56,1196.9 1270.75,1193.74 1272.95,1190.54 1275.15,1187.32 1277.35,1184.06 1279.55,1180.77 1281.75,1177.44 1283.95,1174.08 1286.15,1170.69 1288.35,1167.27 1290.55,1163.81 1292.75,1160.31 1294.95,1156.78 1297.14,1153.22 1299.34,1149.62 1301.54,1145.98 1303.74,1142.3 1305.94,1138.59 1308.14,1134.84 1310.34,1131.06 1312.54,1127.23 1314.74,1123.37 1316.94,1119.47 1319.14,1115.53 1321.34,1111.55 1323.53,1107.53 1325.73,1103.47 1327.93,1099.37 1330.13,1095.22 1332.33,1091.04 1334.53,1086.81 1336.73,1082.54 1338.93,1078.23 1341.13,1073.87 1343.33,1069.47 1345.53,1065.03 1347.73,1060.54 1349.93,1056.01 1352.12,1051.43 1354.32,1046.8 1356.52,1042.13 1358.72,1037.41 1360.92,1032.64 1363.12,1027.82 1365.32,1022.96 1367.52,1018.05 1369.72,1013.08 1371.92,1008.07 1374.12,1003.01 1376.32,997.893 1378.51,992.728 1380.71,987.51 1382.91,982.24 1385.11,976.917 1387.31,971.54 1389.51,966.109 1391.71,960.624 1393.91,955.083 1396.11,949.487 1398.31,943.834 1400.51,938.125 1402.71,932.359 1404.9,926.534 1407.1,920.651 1409.3,914.709 1411.5,908.708 1413.7,902.646 1415.9,896.522 1418.1,890.338 1420.3,884.09 1422.5,877.78 1424.7,871.407 1426.9,864.969 1429.1,858.467 1431.3,851.899 1433.49,845.266 1435.69,838.565 1437.89,831.798 1440.09,824.962 1442.29,818.058 1444.49,811.084 1446.69,804.041 1448.89,796.927 1451.09,789.741 1453.29,782.483 1455.49,775.152 1457.69,767.748 1459.88,760.27 1462.08,752.716 1464.28,745.086 1466.48,737.38 1468.68,729.596 1470.88,721.734 1473.08,713.793 1475.28,705.773 1477.48,697.671 1479.68,689.489 1481.88,681.224 1484.08,672.875 1486.27,664.443 1488.47,655.926 1490.67,647.323 1492.87,638.634 1495.07,629.857 1497.27,620.992 1499.47,612.038 1501.67,602.993 1503.87,593.857 1506.07,584.629 1508.27,575.309 1510.47,565.894 1512.67,556.385 1514.86,546.779 1517.06,537.077 1519.26,527.277 1521.46,517.378 1523.66,507.38 1525.86,497.28 1528.06,487.079 1530.26,476.775 1532.46,466.367 1534.66,455.854 1536.86,445.235 1539.06,434.51 1541.25,423.676 1543.45,412.732 1545.65,401.679 1547.85,390.514 1550.05,379.237 1552.25,367.846 1554.45,356.34 1556.65,344.719 1558.85,332.98 1561.05,321.124 1563.25,309.148 1565.45,297.051 1567.65,284.833 1569.84,272.493 1572.04,260.028 1574.24,247.438 1576.44,234.721 1578.64,221.877 1580.84,208.904 1583.04,195.8 1585.24,182.566 1587.44,840.255 1589.64,833.505 1591.84,826.686 1594.04,819.799 1596.23,812.843 1598.43,805.816 1600.63,798.719 1602.83,791.551 1605.03,784.31 1607.23,776.997 1609.43,769.61 1611.63,762.149 1613.83,754.613 1616.03,747.001 1618.23,739.312 1620.43,731.546 1622.62,723.702 1624.82,715.779 1627.02,707.776 1629.22,699.693 1631.42,691.529 1633.62,683.282 1635.82,674.953 1638.02,666.54 1640.22,658.042 1642.42,649.458 1644.62,640.788 1646.82,632.031 1649.02,623.186 1651.21,614.252 1653.41,605.228 1655.61,596.113 1657.81,586.906 1660.01,577.607 1662.21,568.214 1664.41,558.726 1666.61,549.143 1668.81,539.464 1671.01,529.687 1673.21,519.812 1675.41,509.838 1677.6,499.763 1679.8,489.587 1682,479.308 1684.2,468.926 1686.4,458.44 1688.6,447.848 1690.8,974.256 1693,968.853 1695.2,963.396 1697.4,957.885 1699.6,952.317 1701.8,946.694 1703.99,941.015 1706.19,935.278 1708.39,929.483 1710.59,923.63 1712.79,917.719 1714.99,911.747 1717.19,905.716 1719.39,899.624 1721.59,893.471 1723.79,887.256 1725.99,1353.69 1728.19,1352.11 1730.39,1350.5 1732.58,1348.89 1734.78,1347.25 1736.98,1345.6 1739.18,1343.94 1741.38,1342.25 1743.58,1340.55 1745.78,1338.83 1747.98,1337.1 1750.18,1335.35 1752.38,1333.58 1754.58,1331.79 1756.78,1329.98 1758.97,1328.16 1761.17,1326.32 1763.37,1324.46 1765.57,1322.58 1767.77,1320.68 1769.97,1318.76 1772.17,1316.83 1774.37,1314.87 1776.57,1312.9 1778.77,1310.9 1780.97,1308.89 1783.17,1306.85 1785.36,1304.8 1787.56,1302.72 1789.76,1300.62 1791.96,1298.5 1794.16,1296.36 1796.36,1294.2 1798.56,1292.02 1800.76,1289.82 1802.96,1287.59 1805.16,1285.34 1807.36,1283.07 1809.56,1280.77 1811.76,1278.46 1813.95,1276.11 1816.15,1273.75 1818.35,1271.36 1820.55,1268.95 1822.75,1266.51 1824.95,1264.05 1827.15,1261.56 1829.35,1259.05 1831.55,1256.52 1833.75,1253.95 1835.95,1251.37 1838.15,1248.75 1840.34,1246.11 1842.54,1243.44 1844.74,1240.75 1846.94,1238.03 1849.14,1235.28 1851.34,1232.5 1853.54,1229.7 1855.74,1226.87 1857.94,1224.01 1860.14,1221.12 1862.34,1218.2 1864.54,1215.25 1866.73,1212.27 1868.93,1209.26 1871.13,1206.22 1873.33,1203.15 1875.53,1200.05 1877.73,1196.92 1879.93,1193.76 1882.13,1190.56 1884.33,1187.33 1886.53,1184.07 1888.73,1180.78 1890.93,1177.45 1893.13,1174.1 1895.32,1170.7 1897.52,1167.27 1899.72,1163.81 1901.92,1160.32 1904.12,1156.78 1906.32,1153.22 1908.52,1149.61 1910.72,1145.97 1912.92,1142.3 1915.12,1138.59 1917.32,1134.84 1919.52,1131.05 1921.71,1127.22 1923.91,1123.36 1926.11,1119.46 1928.31,1115.52 1930.51,1111.53 1932.71,1107.51 1934.91,1103.45 1937.11,1099.35 1939.31,1095.2 1941.51,1091.02 1943.71,1086.79 1945.91,1082.52 1948.1,1078.2 1950.3,1073.85 1952.5,1069.44 1954.7,1065 1956.9,1060.51 1959.1,1055.98 1961.3,1051.4 1963.5,1046.77 1965.7,1042.1 1967.9,1037.38 1970.1,1032.61 1972.3,1027.8 1974.5,1022.94 1976.69,1018.03 1978.89,1013.07 1981.09,1008.06 1983.29,1003 1985.49,997.888 1987.69,992.726 1989.89,987.513 1992.09,982.247 1994.29,976.929 1996.49,971.557 1998.69,966.131 2000.89,960.65 2003.08,955.115 2005.28,949.524 2007.48,943.877 2009.68,938.173 2011.88,932.411 2014.08,926.592 2016.28,920.714 2018.48,914.777 2020.68,908.781 2022.88,902.724 2025.08,896.606 2027.28,890.426 2029.47,884.184 2031.67,877.879 2033.87,871.51 2036.07,865.078 2038.27,858.58 2040.47,852.017 2042.67,845.388 2044.87,838.691 2047.07,831.927 2049.27,825.095 2051.47,818.194 2053.67,811.223 2055.87,804.182 2058.06,797.07 2060.26,789.886 2062.46,782.629 2064.66,775.299 2066.86,767.895 2069.06,760.416 2071.26,752.861 2073.46,745.23 2075.66,737.522 2077.86,729.737 2080.06,721.872 2082.26,713.928 2084.45,705.904 2086.65,697.799 2088.85,689.612 2091.05,681.342 2093.25,672.989 2095.45,664.552 2097.65,656.029 2099.85,647.421 2102.05,638.726 2104.25,629.943 2106.45,621.071 2108.65,612.111 2110.84,603.06 2113.04,593.918 2115.24,584.683 2117.44,575.356 2119.64,565.936 2121.84,556.42 2124.04,546.809 2126.24,537.102 2128.44,527.297 2130.64,517.394 2132.84,507.391 2135.04,497.289 2137.24,487.085 2139.43,476.779 2141.63,466.37 2143.83,455.857 2146.03,445.239 2148.23,434.515 2150.43,423.682 2152.63,412.741 2154.83,401.689 2157.03,390.527 2159.23,379.252 2161.43,367.863 2163.63,356.36 2165.82,344.742 2168.02,333.006 2170.22,321.153 2172.42,309.18 2174.62,297.087 2176.82,284.872 2179.02,272.534 2181.22,260.072 2183.42,247.485 2185.62,234.771 2187.82,221.929 2190.02,208.958 2192.22,195.856 2194.41,182.623 2196.61,169.257 2198.81,155.756 2201.01,142.119 2203.21,128.345 2205.41,114.432 2207.61,100.38 2209.81,86.1857 2212.01,791.578 2214.21,784.338 2216.41,777.024 2218.61,769.638 2220.8,762.176 2223,754.64 2225.2,747.028 2227.4,739.339 2229.6,731.573 2231.8,723.729 2234,715.806 2236.2,707.804 2238.4,699.721 2240.6,691.556 2242.8,683.31 2245,674.981 2247.19,666.568 2249.39,658.071 2251.59,649.488 2253.79,640.819 2255.99,632.062 2258.19,623.218 2260.39,614.285 2262.59,605.262 2264.79,596.148 2266.99,586.943 2269.19,577.645 2271.39,568.253 2273.59,558.767 2275.78,549.186 2277.98,539.508 2280.18,529.733 2282.38,519.859 2284.58,509.886 2286.78,499.813 2288.98,489.638 2291.18,479.361 2293.38,468.98 2295.58,458.495 2297.78,447.904 2299.98,437.207 2302.17,426.402 2304.37,415.488 2306.57,404.464 2308.77,393.329 2310.97,382.082 2313.17,370.722 2315.37,359.247 2317.57,347.657 2319.77,335.95 2321.97,324.125 2324.17,312.181 2326.37,300.117 2328.56,287.931 2330.76,275.623 2332.96,263.191 2335.16,250.634 2337.36,237.951 2339.56,225.14 2341.76,212.2 2343.96,199.13 2346.16,185.929 2348.36,172.595 2350.56,159.127 2352.76,145.524 "/>
<path clip-path="url(#clip410)" d="M228.998 196.789 L537.794 196.789 L537.794 93.1086 L228.998 93.1086  Z" fill="#ffffff" fill-rule="evenodd" fill-opacity="1"/>
<polyline clip-path="url(#clip410)" style="stroke:#000000; stroke-linecap:round; stroke-linejoin:round; stroke-width:4; stroke-opacity:1; fill:none" points="228.998,196.789 537.794,196.789 537.794,93.1086 228.998,93.1086 228.998,196.789 "/>
<polyline clip-path="url(#clip410)" style="stroke:#009af9; stroke-linecap:round; stroke-linejoin:round; stroke-width:8; stroke-opacity:1; fill:none" points="253.409,144.949 399.875,144.949 "/>
<path clip-path="url(#clip410)" d="M424.286 151.997 L424.286 136.303 L428.545 136.303 L428.545 151.835 Q428.545 155.516 429.98 157.368 Q431.416 159.196 434.286 159.196 Q437.735 159.196 439.726 156.997 Q441.74 154.798 441.74 151.002 L441.74 136.303 L445.999 136.303 L445.999 162.229 L441.74 162.229 L441.74 158.247 Q440.189 160.608 438.129 161.766 Q436.092 162.9 433.383 162.9 Q428.916 162.9 426.601 160.122 Q424.286 157.344 424.286 151.997 M435.004 135.678 L435.004 135.678 Z" fill="#000000" fill-rule="nonzero" fill-opacity="1" /><path clip-path="url(#clip410)" d="M454.378 126.21 L464.193 126.21 L464.193 129.52 L458.638 129.52 L458.638 165.168 L464.193 165.168 L464.193 168.479 L454.378 168.479 L454.378 126.21 Z" fill="#000000" fill-rule="nonzero" fill-opacity="1" /><path clip-path="url(#clip410)" d="M474.679 158.293 L482.318 158.293 L482.318 131.928 L474.008 133.595 L474.008 129.335 L482.272 127.669 L486.948 127.669 L486.948 158.293 L494.587 158.293 L494.587 162.229 L474.679 162.229 L474.679 158.293 Z" fill="#000000" fill-rule="nonzero" fill-opacity="1" /><path clip-path="url(#clip410)" d="M513.383 126.21 L513.383 168.479 L503.568 168.479 L503.568 165.168 L509.1 165.168 L509.1 129.52 L503.568 129.52 L503.568 126.21 L513.383 126.21 Z" fill="#000000" fill-rule="nonzero" fill-opacity="1" /></svg>
