<?xml version="1.0" encoding="utf-8"?>
<svg xmlns="http://www.w3.org/2000/svg" xmlns:xlink="http://www.w3.org/1999/xlink" width="600" height="400" viewBox="0 0 2400 1600">
<defs>
  <clipPath id="clip080">
    <rect x="0" y="0" width="2400" height="1600"/>
  </clipPath>
</defs>
<path clip-path="url(#clip080)" d="M0 1600 L2400 1600 L2400 0 L0 0  Z" fill="#ffffff" fill-rule="evenodd" fill-opacity="1"/>
<defs>
  <clipPath id="clip081">
    <rect x="155" y="47" width="2198" height="1440"/>
  </clipPath>
</defs>
<path clip-path="url(#clip080)" d="M155.927 1486.45 L2352.76 1486.45 L2352.76 47.2441 L155.927 47.2441  Z" fill="#ffffff" fill-rule="evenodd" fill-opacity="1"/>
<polyline clip-path="url(#clip081)" style="stroke:#000000; stroke-linecap:round; stroke-linejoin:round; stroke-width:2; stroke-opacity:0.1; fill:none" points="216.21,1486.45 216.21,47.2441 "/>
<polyline clip-path="url(#clip081)" style="stroke:#000000; stroke-linecap:round; stroke-linejoin:round; stroke-width:2; stroke-opacity:0.1; fill:none" points="688.948,1486.45 688.948,47.2441 "/>
<polyline clip-path="url(#clip081)" style="stroke:#000000; stroke-linecap:round; stroke-linejoin:round; stroke-width:2; stroke-opacity:0.1; fill:none" points="1161.68,1486.45 1161.68,47.2441 "/>
<polyline clip-path="url(#clip081)" style="stroke:#000000; stroke-linecap:round; stroke-linejoin:round; stroke-width:2; stroke-opacity:0.1; fill:none" points="1634.42,1486.45 1634.42,47.2441 "/>
<polyline clip-path="url(#clip081)" style="stroke:#000000; stroke-linecap:round; stroke-linejoin:round; stroke-width:2; stroke-opacity:0.1; fill:none" points="2107.16,1486.45 2107.16,47.2441 "/>
<polyline clip-path="url(#clip081)" style="stroke:#000000; stroke-linecap:round; stroke-linejoin:round; stroke-width:2; stroke-opacity:0.1; fill:none" points="155.927,1445.72 2352.76,1445.72 "/>
<polyline clip-path="url(#clip081)" style="stroke:#000000; stroke-linecap:round; stroke-linejoin:round; stroke-width:2; stroke-opacity:0.1; fill:none" points="155.927,1123.43 2352.76,1123.43 "/>
<polyline clip-path="url(#clip081)" style="stroke:#000000; stroke-linecap:round; stroke-linejoin:round; stroke-width:2; stroke-opacity:0.1; fill:none" points="155.927,801.15 2352.76,801.15 "/>
<polyline clip-path="url(#clip081)" style="stroke:#000000; stroke-linecap:round; stroke-linejoin:round; stroke-width:2; stroke-opacity:0.1; fill:none" points="155.927,478.867 2352.76,478.867 "/>
<polyline clip-path="url(#clip081)" style="stroke:#000000; stroke-linecap:round; stroke-linejoin:round; stroke-width:2; stroke-opacity:0.1; fill:none" points="155.927,156.584 2352.76,156.584 "/>
<polyline clip-path="url(#clip080)" style="stroke:#000000; stroke-linecap:round; stroke-linejoin:round; stroke-width:4; stroke-opacity:1; fill:none" points="155.927,1486.45 2352.76,1486.45 "/>
<polyline clip-path="url(#clip080)" style="stroke:#000000; stroke-linecap:round; stroke-linejoin:round; stroke-width:4; stroke-opacity:1; fill:none" points="216.21,1486.45 216.21,1467.55 "/>
<polyline clip-path="url(#clip080)" style="stroke:#000000; stroke-linecap:round; stroke-linejoin:round; stroke-width:4; stroke-opacity:1; fill:none" points="688.948,1486.45 688.948,1467.55 "/>
<polyline clip-path="url(#clip080)" style="stroke:#000000; stroke-linecap:round; stroke-linejoin:round; stroke-width:4; stroke-opacity:1; fill:none" points="1161.68,1486.45 1161.68,1467.55 "/>
<polyline clip-path="url(#clip080)" style="stroke:#000000; stroke-linecap:round; stroke-linejoin:round; stroke-width:4; stroke-opacity:1; fill:none" points="1634.42,1486.45 1634.42,1467.55 "/>
<polyline clip-path="url(#clip080)" style="stroke:#000000; stroke-linecap:round; stroke-linejoin:round; stroke-width:4; stroke-opacity:1; fill:none" points="2107.16,1486.45 2107.16,1467.55 "/>
<path clip-path="url(#clip080)" d="M216.21 1517.37 Q212.599 1517.37 210.771 1520.93 Q208.965 1524.47 208.965 1531.6 Q208.965 1538.71 210.771 1542.27 Q212.599 1545.82 216.21 1545.82 Q219.845 1545.82 221.65 1542.27 Q223.479 1538.71 223.479 1531.6 Q223.479 1524.47 221.65 1520.93 Q219.845 1517.37 216.21 1517.37 M216.21 1513.66 Q222.021 1513.66 225.076 1518.27 Q228.155 1522.85 228.155 1531.6 Q228.155 1540.33 225.076 1544.94 Q222.021 1549.52 216.21 1549.52 Q210.4 1549.52 207.322 1544.94 Q204.266 1540.33 204.266 1531.6 Q204.266 1522.85 207.322 1518.27 Q210.4 1513.66 216.21 1513.66 Z" fill="#000000" fill-rule="nonzero" fill-opacity="1" /><path clip-path="url(#clip080)" d="M652.64 1544.91 L668.959 1544.91 L668.959 1548.85 L647.015 1548.85 L647.015 1544.91 Q649.677 1542.16 654.26 1537.53 Q658.867 1532.88 660.047 1531.53 Q662.293 1529.01 663.172 1527.27 Q664.075 1525.51 664.075 1523.82 Q664.075 1521.07 662.131 1519.33 Q660.209 1517.6 657.108 1517.6 Q654.908 1517.6 652.455 1518.36 Q650.024 1519.13 647.246 1520.68 L647.246 1515.95 Q650.071 1514.82 652.524 1514.24 Q654.978 1513.66 657.015 1513.66 Q662.385 1513.66 665.58 1516.35 Q668.774 1519.03 668.774 1523.52 Q668.774 1525.65 667.964 1527.57 Q667.177 1529.47 665.07 1532.07 Q664.492 1532.74 661.39 1535.95 Q658.288 1539.15 652.64 1544.91 Z" fill="#000000" fill-rule="nonzero" fill-opacity="1" /><path clip-path="url(#clip080)" d="M678.82 1514.29 L697.177 1514.29 L697.177 1518.22 L683.103 1518.22 L683.103 1526.7 Q684.121 1526.35 685.14 1526.19 Q686.158 1526 687.177 1526 Q692.964 1526 696.343 1529.17 Q699.723 1532.34 699.723 1537.76 Q699.723 1543.34 696.251 1546.44 Q692.779 1549.52 686.459 1549.52 Q684.283 1549.52 682.015 1549.15 Q679.769 1548.78 677.362 1548.04 L677.362 1543.34 Q679.445 1544.47 681.668 1545.03 Q683.89 1545.58 686.367 1545.58 Q690.371 1545.58 692.709 1543.48 Q695.047 1541.37 695.047 1537.76 Q695.047 1534.15 692.709 1532.04 Q690.371 1529.94 686.367 1529.94 Q684.492 1529.94 682.617 1530.35 Q680.765 1530.77 678.82 1531.65 L678.82 1514.29 Z" fill="#000000" fill-rule="nonzero" fill-opacity="1" /><path clip-path="url(#clip080)" d="M718.936 1517.37 Q715.325 1517.37 713.496 1520.93 Q711.691 1524.47 711.691 1531.6 Q711.691 1538.71 713.496 1542.27 Q715.325 1545.82 718.936 1545.82 Q722.57 1545.82 724.376 1542.27 Q726.204 1538.71 726.204 1531.6 Q726.204 1524.47 724.376 1520.93 Q722.57 1517.37 718.936 1517.37 M718.936 1513.66 Q724.746 1513.66 727.802 1518.27 Q730.88 1522.85 730.88 1531.6 Q730.88 1540.33 727.802 1544.94 Q724.746 1549.52 718.936 1549.52 Q713.126 1549.52 710.047 1544.94 Q706.992 1540.33 706.992 1531.6 Q706.992 1522.85 710.047 1518.27 Q713.126 1513.66 718.936 1513.66 Z" fill="#000000" fill-rule="nonzero" fill-opacity="1" /><path clip-path="url(#clip080)" d="M1121.3 1514.29 L1139.66 1514.29 L1139.66 1518.22 L1125.59 1518.22 L1125.59 1526.7 Q1126.6 1526.35 1127.62 1526.19 Q1128.64 1526 1129.66 1526 Q1135.45 1526 1138.83 1529.17 Q1142.21 1532.34 1142.21 1537.76 Q1142.21 1543.34 1138.73 1546.44 Q1135.26 1549.52 1128.94 1549.52 Q1126.77 1549.52 1124.5 1549.15 Q1122.25 1548.78 1119.84 1548.04 L1119.84 1543.34 Q1121.93 1544.47 1124.15 1545.03 Q1126.37 1545.58 1128.85 1545.58 Q1132.85 1545.58 1135.19 1543.48 Q1137.53 1541.37 1137.53 1537.76 Q1137.53 1534.15 1135.19 1532.04 Q1132.85 1529.94 1128.85 1529.94 Q1126.97 1529.94 1125.1 1530.35 Q1123.25 1530.77 1121.3 1531.65 L1121.3 1514.29 Z" fill="#000000" fill-rule="nonzero" fill-opacity="1" /><path clip-path="url(#clip080)" d="M1161.42 1517.37 Q1157.81 1517.37 1155.98 1520.93 Q1154.17 1524.47 1154.17 1531.6 Q1154.17 1538.71 1155.98 1542.27 Q1157.81 1545.82 1161.42 1545.82 Q1165.05 1545.82 1166.86 1542.27 Q1168.69 1538.71 1168.69 1531.6 Q1168.69 1524.47 1166.86 1520.93 Q1165.05 1517.37 1161.42 1517.37 M1161.42 1513.66 Q1167.23 1513.66 1170.28 1518.27 Q1173.36 1522.85 1173.36 1531.6 Q1173.36 1540.33 1170.28 1544.94 Q1167.23 1549.52 1161.42 1549.52 Q1155.61 1549.52 1152.53 1544.94 Q1149.47 1540.33 1149.47 1531.6 Q1149.47 1522.85 1152.53 1518.27 Q1155.61 1513.66 1161.42 1513.66 Z" fill="#000000" fill-rule="nonzero" fill-opacity="1" /><path clip-path="url(#clip080)" d="M1191.58 1517.37 Q1187.97 1517.37 1186.14 1520.93 Q1184.34 1524.47 1184.34 1531.6 Q1184.34 1538.71 1186.14 1542.27 Q1187.97 1545.82 1191.58 1545.82 Q1195.21 1545.82 1197.02 1542.27 Q1198.85 1538.71 1198.85 1531.6 Q1198.85 1524.47 1197.02 1520.93 Q1195.21 1517.37 1191.58 1517.37 M1191.58 1513.66 Q1197.39 1513.66 1200.45 1518.27 Q1203.52 1522.85 1203.52 1531.6 Q1203.52 1540.33 1200.45 1544.94 Q1197.39 1549.52 1191.58 1549.52 Q1185.77 1549.52 1182.69 1544.94 Q1179.64 1540.33 1179.64 1531.6 Q1179.64 1522.85 1182.69 1518.27 Q1185.77 1513.66 1191.58 1513.66 Z" fill="#000000" fill-rule="nonzero" fill-opacity="1" /><path clip-path="url(#clip080)" d="M1592.7 1514.29 L1614.92 1514.29 L1614.92 1516.28 L1602.37 1548.85 L1597.49 1548.85 L1609.3 1518.22 L1592.7 1518.22 L1592.7 1514.29 Z" fill="#000000" fill-rule="nonzero" fill-opacity="1" /><path clip-path="url(#clip080)" d="M1624.09 1514.29 L1642.44 1514.29 L1642.44 1518.22 L1628.37 1518.22 L1628.37 1526.7 Q1629.39 1526.35 1630.41 1526.19 Q1631.42 1526 1632.44 1526 Q1638.23 1526 1641.61 1529.17 Q1644.99 1532.34 1644.99 1537.76 Q1644.99 1543.34 1641.52 1546.44 Q1638.04 1549.52 1631.73 1549.52 Q1629.55 1549.52 1627.28 1549.15 Q1625.04 1548.78 1622.63 1548.04 L1622.63 1543.34 Q1624.71 1544.47 1626.93 1545.03 Q1629.16 1545.58 1631.63 1545.58 Q1635.64 1545.58 1637.98 1543.48 Q1640.31 1541.37 1640.31 1537.76 Q1640.31 1534.15 1637.98 1532.04 Q1635.64 1529.94 1631.63 1529.94 Q1629.76 1529.94 1627.88 1530.35 Q1626.03 1530.77 1624.09 1531.65 L1624.09 1514.29 Z" fill="#000000" fill-rule="nonzero" fill-opacity="1" /><path clip-path="url(#clip080)" d="M1664.2 1517.37 Q1660.59 1517.37 1658.76 1520.93 Q1656.96 1524.47 1656.96 1531.6 Q1656.96 1538.71 1658.76 1542.27 Q1660.59 1545.82 1664.2 1545.82 Q1667.84 1545.82 1669.64 1542.27 Q1671.47 1538.71 1671.47 1531.6 Q1671.47 1524.47 1669.64 1520.93 Q1667.84 1517.37 1664.2 1517.37 M1664.2 1513.66 Q1670.01 1513.66 1673.07 1518.27 Q1676.15 1522.85 1676.15 1531.6 Q1676.15 1540.33 1673.07 1544.94 Q1670.01 1549.52 1664.2 1549.52 Q1658.39 1549.52 1655.31 1544.94 Q1652.26 1540.33 1652.26 1531.6 Q1652.26 1522.85 1655.31 1518.27 Q1658.39 1513.66 1664.2 1513.66 Z" fill="#000000" fill-rule="nonzero" fill-opacity="1" /><path clip-path="url(#clip080)" d="M2051.69 1544.91 L2059.32 1544.91 L2059.32 1518.55 L2051.01 1520.21 L2051.01 1515.95 L2059.28 1514.29 L2063.95 1514.29 L2063.95 1544.91 L2071.59 1544.91 L2071.59 1548.85 L2051.69 1548.85 L2051.69 1544.91 Z" fill="#000000" fill-rule="nonzero" fill-opacity="1" /><path clip-path="url(#clip080)" d="M2091.04 1517.37 Q2087.43 1517.37 2085.6 1520.93 Q2083.79 1524.47 2083.79 1531.6 Q2083.79 1538.71 2085.6 1542.27 Q2087.43 1545.82 2091.04 1545.82 Q2094.67 1545.82 2096.48 1542.27 Q2098.31 1538.71 2098.31 1531.6 Q2098.31 1524.47 2096.48 1520.93 Q2094.67 1517.37 2091.04 1517.37 M2091.04 1513.66 Q2096.85 1513.66 2099.9 1518.27 Q2102.98 1522.85 2102.98 1531.6 Q2102.98 1540.33 2099.9 1544.94 Q2096.85 1549.52 2091.04 1549.52 Q2085.23 1549.52 2082.15 1544.94 Q2079.09 1540.33 2079.09 1531.6 Q2079.09 1522.85 2082.15 1518.27 Q2085.23 1513.66 2091.04 1513.66 Z" fill="#000000" fill-rule="nonzero" fill-opacity="1" /><path clip-path="url(#clip080)" d="M2121.2 1517.37 Q2117.59 1517.37 2115.76 1520.93 Q2113.95 1524.47 2113.95 1531.6 Q2113.95 1538.71 2115.76 1542.27 Q2117.59 1545.82 2121.2 1545.82 Q2124.83 1545.82 2126.64 1542.27 Q2128.47 1538.71 2128.47 1531.6 Q2128.47 1524.47 2126.64 1520.93 Q2124.83 1517.37 2121.2 1517.37 M2121.2 1513.66 Q2127.01 1513.66 2130.06 1518.27 Q2133.14 1522.85 2133.14 1531.6 Q2133.14 1540.33 2130.06 1544.94 Q2127.01 1549.52 2121.2 1549.52 Q2115.39 1549.52 2112.31 1544.94 Q2109.25 1540.33 2109.25 1531.6 Q2109.25 1522.85 2112.31 1518.27 Q2115.39 1513.66 2121.2 1513.66 Z" fill="#000000" fill-rule="nonzero" fill-opacity="1" /><path clip-path="url(#clip080)" d="M2151.36 1517.37 Q2147.75 1517.37 2145.92 1520.93 Q2144.12 1524.47 2144.12 1531.6 Q2144.12 1538.71 2145.92 1542.27 Q2147.75 1545.82 2151.36 1545.82 Q2154.99 1545.82 2156.8 1542.27 Q2158.63 1538.71 2158.63 1531.6 Q2158.63 1524.47 2156.8 1520.93 Q2154.99 1517.37 2151.36 1517.37 M2151.36 1513.66 Q2157.17 1513.66 2160.23 1518.27 Q2163.3 1522.85 2163.3 1531.6 Q2163.3 1540.33 2160.23 1544.94 Q2157.17 1549.52 2151.36 1549.52 Q2145.55 1549.52 2142.47 1544.94 Q2139.42 1540.33 2139.42 1531.6 Q2139.42 1522.85 2142.47 1518.27 Q2145.55 1513.66 2151.36 1513.66 Z" fill="#000000" fill-rule="nonzero" fill-opacity="1" /><polyline clip-path="url(#clip080)" style="stroke:#000000; stroke-linecap:round; stroke-linejoin:round; stroke-width:4; stroke-opacity:1; fill:none" points="155.927,1486.45 155.927,47.2441 "/>
<polyline clip-path="url(#clip080)" style="stroke:#000000; stroke-linecap:round; stroke-linejoin:round; stroke-width:4; stroke-opacity:1; fill:none" points="155.927,1445.72 174.825,1445.72 "/>
<polyline clip-path="url(#clip080)" style="stroke:#000000; stroke-linecap:round; stroke-linejoin:round; stroke-width:4; stroke-opacity:1; fill:none" points="155.927,1123.43 174.825,1123.43 "/>
<polyline clip-path="url(#clip080)" style="stroke:#000000; stroke-linecap:round; stroke-linejoin:round; stroke-width:4; stroke-opacity:1; fill:none" points="155.927,801.15 174.825,801.15 "/>
<polyline clip-path="url(#clip080)" style="stroke:#000000; stroke-linecap:round; stroke-linejoin:round; stroke-width:4; stroke-opacity:1; fill:none" points="155.927,478.867 174.825,478.867 "/>
<polyline clip-path="url(#clip080)" style="stroke:#000000; stroke-linecap:round; stroke-linejoin:round; stroke-width:4; stroke-opacity:1; fill:none" points="155.927,156.584 174.825,156.584 "/>
<path clip-path="url(#clip080)" d="M52.7977 1428.44 L71.1541 1428.44 L71.1541 1432.37 L57.0801 1432.37 L57.0801 1440.84 Q58.0986 1440.5 59.1171 1440.33 Q60.1356 1440.15 61.1541 1440.15 Q66.9411 1440.15 70.3207 1443.32 Q73.7003 1446.49 73.7003 1451.91 Q73.7003 1457.49 70.2281 1460.59 Q66.7559 1463.67 60.4365 1463.67 Q58.2606 1463.67 55.9921 1463.3 Q53.7467 1462.93 51.3393 1462.19 L51.3393 1457.49 Q53.4227 1458.62 55.6449 1459.18 Q57.8671 1459.73 60.3439 1459.73 Q64.3485 1459.73 66.6865 1457.63 Q69.0244 1455.52 69.0244 1451.91 Q69.0244 1448.3 66.6865 1446.19 Q64.3485 1444.08 60.3439 1444.08 Q58.4689 1444.08 56.5939 1444.5 Q54.7421 1444.92 52.7977 1445.8 L52.7977 1428.44 Z" fill="#000000" fill-rule="nonzero" fill-opacity="1" /><path clip-path="url(#clip080)" d="M82.9133 1457.12 L87.7975 1457.12 L87.7975 1463 L82.9133 1463 L82.9133 1457.12 Z" fill="#000000" fill-rule="nonzero" fill-opacity="1" /><path clip-path="url(#clip080)" d="M107.983 1431.51 Q104.371 1431.51 102.543 1435.08 Q100.737 1438.62 100.737 1445.75 Q100.737 1452.86 102.543 1456.42 Q104.371 1459.96 107.983 1459.96 Q111.617 1459.96 113.422 1456.42 Q115.251 1452.86 115.251 1445.75 Q115.251 1438.62 113.422 1435.08 Q111.617 1431.51 107.983 1431.51 M107.983 1427.81 Q113.793 1427.81 116.848 1432.42 Q119.927 1437 119.927 1445.75 Q119.927 1454.48 116.848 1459.08 Q113.793 1463.67 107.983 1463.67 Q102.172 1463.67 99.0937 1459.08 Q96.0382 1454.48 96.0382 1445.75 Q96.0382 1437 99.0937 1432.42 Q102.172 1427.81 107.983 1427.81 Z" fill="#000000" fill-rule="nonzero" fill-opacity="1" /><path clip-path="url(#clip080)" d="M53.793 1106.15 L72.1494 1106.15 L72.1494 1110.09 L58.0754 1110.09 L58.0754 1118.56 Q59.0939 1118.21 60.1124 1118.05 Q61.131 1117.87 62.1495 1117.87 Q67.9365 1117.87 71.3161 1121.04 Q74.6957 1124.21 74.6957 1129.62 Q74.6957 1135.2 71.2235 1138.31 Q67.7513 1141.38 61.4319 1141.38 Q59.256 1141.38 56.9875 1141.01 Q54.7421 1140.64 52.3347 1139.9 L52.3347 1135.2 Q54.418 1136.34 56.6402 1136.89 Q58.8625 1137.45 61.3393 1137.45 Q65.3439 1137.45 67.6819 1135.34 Q70.0198 1133.24 70.0198 1129.62 Q70.0198 1126.01 67.6819 1123.91 Q65.3439 1121.8 61.3393 1121.8 Q59.4643 1121.8 57.5893 1122.22 Q55.7375 1122.63 53.793 1123.51 L53.793 1106.15 Z" fill="#000000" fill-rule="nonzero" fill-opacity="1" /><path clip-path="url(#clip080)" d="M83.9086 1134.83 L88.7928 1134.83 L88.7928 1140.71 L83.9086 1140.71 L83.9086 1134.83 Z" fill="#000000" fill-rule="nonzero" fill-opacity="1" /><path clip-path="url(#clip080)" d="M99.0243 1106.15 L117.381 1106.15 L117.381 1110.09 L103.307 1110.09 L103.307 1118.56 Q104.325 1118.21 105.344 1118.05 Q106.362 1117.87 107.381 1117.87 Q113.168 1117.87 116.547 1121.04 Q119.927 1124.21 119.927 1129.62 Q119.927 1135.2 116.455 1138.31 Q112.983 1141.38 106.663 1141.38 Q104.487 1141.38 102.219 1141.01 Q99.9733 1140.64 97.566 1139.9 L97.566 1135.2 Q99.6493 1136.34 101.871 1136.89 Q104.094 1137.45 106.571 1137.45 Q110.575 1137.45 112.913 1135.34 Q115.251 1133.24 115.251 1129.62 Q115.251 1126.01 112.913 1123.91 Q110.575 1121.8 106.571 1121.8 Q104.696 1121.8 102.821 1122.22 Q100.969 1122.63 99.0243 1123.51 L99.0243 1106.15 Z" fill="#000000" fill-rule="nonzero" fill-opacity="1" /><path clip-path="url(#clip080)" d="M63.33 799.286 Q60.1819 799.286 58.33 801.439 Q56.5014 803.592 56.5014 807.342 Q56.5014 811.069 58.33 813.245 Q60.1819 815.397 63.33 815.397 Q66.4782 815.397 68.3068 813.245 Q70.1587 811.069 70.1587 807.342 Q70.1587 803.592 68.3068 801.439 Q66.4782 799.286 63.33 799.286 M72.6124 784.634 L72.6124 788.893 Q70.8531 788.06 69.0476 787.62 Q67.2652 787.18 65.5059 787.18 Q60.8763 787.18 58.4226 790.305 Q55.9921 793.43 55.6449 799.749 Q57.0106 797.736 59.0708 796.671 Q61.131 795.583 63.6078 795.583 Q68.8161 795.583 71.8253 798.754 Q74.8577 801.902 74.8577 807.342 Q74.8577 812.666 71.7096 815.884 Q68.5615 819.101 63.33 819.101 Q57.3347 819.101 54.1634 814.518 Q50.9921 809.911 50.9921 801.185 Q50.9921 792.99 54.881 788.129 Q58.7699 783.245 65.3208 783.245 Q67.08 783.245 68.8624 783.592 Q70.6679 783.939 72.6124 784.634 Z" fill="#000000" fill-rule="nonzero" fill-opacity="1" /><path clip-path="url(#clip080)" d="M82.9133 812.55 L87.7975 812.55 L87.7975 818.43 L82.9133 818.43 L82.9133 812.55 Z" fill="#000000" fill-rule="nonzero" fill-opacity="1" /><path clip-path="url(#clip080)" d="M107.983 786.949 Q104.371 786.949 102.543 790.513 Q100.737 794.055 100.737 801.185 Q100.737 808.291 102.543 811.856 Q104.371 815.397 107.983 815.397 Q111.617 815.397 113.422 811.856 Q115.251 808.291 115.251 801.185 Q115.251 794.055 113.422 790.513 Q111.617 786.949 107.983 786.949 M107.983 783.245 Q113.793 783.245 116.848 787.851 Q119.927 792.435 119.927 801.185 Q119.927 809.911 116.848 814.518 Q113.793 819.101 107.983 819.101 Q102.172 819.101 99.0937 814.518 Q96.0382 809.911 96.0382 801.185 Q96.0382 792.435 99.0937 787.851 Q102.172 783.245 107.983 783.245 Z" fill="#000000" fill-rule="nonzero" fill-opacity="1" /><path clip-path="url(#clip080)" d="M64.3254 477.004 Q61.1773 477.004 59.3254 479.156 Q57.4967 481.309 57.4967 485.059 Q57.4967 488.786 59.3254 490.962 Q61.1773 493.115 64.3254 493.115 Q67.4735 493.115 69.3022 490.962 Q71.1541 488.786 71.1541 485.059 Q71.1541 481.309 69.3022 479.156 Q67.4735 477.004 64.3254 477.004 M73.6077 462.351 L73.6077 466.61 Q71.8485 465.777 70.0429 465.337 Q68.2606 464.897 66.5013 464.897 Q61.8717 464.897 59.418 468.022 Q56.9875 471.147 56.6402 477.466 Q58.006 475.453 60.0662 474.388 Q62.1263 473.3 64.6032 473.3 Q69.8115 473.3 72.8207 476.471 Q75.8531 479.619 75.8531 485.059 Q75.8531 490.383 72.705 493.601 Q69.5568 496.818 64.3254 496.818 Q58.33 496.818 55.1588 492.235 Q51.9875 487.628 51.9875 478.902 Q51.9875 470.707 55.8764 465.846 Q59.7652 460.962 66.3161 460.962 Q68.0754 460.962 69.8578 461.309 Q71.6633 461.656 73.6077 462.351 Z" fill="#000000" fill-rule="nonzero" fill-opacity="1" /><path clip-path="url(#clip080)" d="M83.9086 490.267 L88.7928 490.267 L88.7928 496.147 L83.9086 496.147 L83.9086 490.267 Z" fill="#000000" fill-rule="nonzero" fill-opacity="1" /><path clip-path="url(#clip080)" d="M99.0243 461.587 L117.381 461.587 L117.381 465.522 L103.307 465.522 L103.307 473.994 Q104.325 473.647 105.344 473.485 Q106.362 473.3 107.381 473.3 Q113.168 473.3 116.547 476.471 Q119.927 479.642 119.927 485.059 Q119.927 490.638 116.455 493.74 Q112.983 496.818 106.663 496.818 Q104.487 496.818 102.219 496.448 Q99.9733 496.077 97.566 495.337 L97.566 490.638 Q99.6493 491.772 101.871 492.328 Q104.094 492.883 106.571 492.883 Q110.575 492.883 112.913 490.777 Q115.251 488.67 115.251 485.059 Q115.251 481.448 112.913 479.341 Q110.575 477.235 106.571 477.235 Q104.696 477.235 102.821 477.652 Q100.969 478.068 99.0243 478.948 L99.0243 461.587 Z" fill="#000000" fill-rule="nonzero" fill-opacity="1" /><path clip-path="url(#clip080)" d="M51.5708 139.304 L73.7929 139.304 L73.7929 141.295 L61.2467 173.864 L56.3625 173.864 L68.168 143.239 L51.5708 143.239 L51.5708 139.304 Z" fill="#000000" fill-rule="nonzero" fill-opacity="1" /><path clip-path="url(#clip080)" d="M82.9133 167.984 L87.7975 167.984 L87.7975 173.864 L82.9133 173.864 L82.9133 167.984 Z" fill="#000000" fill-rule="nonzero" fill-opacity="1" /><path clip-path="url(#clip080)" d="M107.983 142.383 Q104.371 142.383 102.543 145.948 Q100.737 149.489 100.737 156.619 Q100.737 163.725 102.543 167.29 Q104.371 170.832 107.983 170.832 Q111.617 170.832 113.422 167.29 Q115.251 163.725 115.251 156.619 Q115.251 149.489 113.422 145.948 Q111.617 142.383 107.983 142.383 M107.983 138.679 Q113.793 138.679 116.848 143.285 Q119.927 147.869 119.927 156.619 Q119.927 165.346 116.848 169.952 Q113.793 174.535 107.983 174.535 Q102.172 174.535 99.0937 169.952 Q96.0382 165.346 96.0382 156.619 Q96.0382 147.869 99.0937 143.285 Q102.172 138.679 107.983 138.679 Z" fill="#000000" fill-rule="nonzero" fill-opacity="1" /><polyline clip-path="url(#clip081)" style="stroke:#009af9; stroke-linecap:round; stroke-linejoin:round; stroke-width:4; stroke-opacity:1; fill:none" points="218.101,1445.72 219.992,1445.72 221.883,1445.72 223.774,1381.26 225.665,1391.66 227.556,1401.46 229.447,1409.48 231.338,1409.48 233.229,1351.39 235.12,1352.04 237.011,1352.04 238.902,1239.93 240.793,1240.39 242.684,1240.39 244.575,996.768 246.466,1050.84 248.357,1122.42 250.247,1181.02 252.138,1229 254.029,1229 255.92,1201.2 257.811,1204.77 259.702,1248.45 261.593,1248.45 263.484,1084.34 265.375,1098.31 267.266,1098.31 269.157,843.163 271.048,948.558 272.939,1038.68 274.83,1038.68 276.721,932.98 278.612,932.98 280.503,771.113 282.394,821.648 284.285,934.772 286.176,934.772 288.066,845.632 289.957,912.936 291.848,912.936 293.739,892.584 295.63,951.977 297.521,1041.48 299.412,1114.75 301.303,1114.75 303.194,989.222 305.085,989.222 306.976,943.617 308.867,1012.5 310.758,1012.5 312.649,837.107 314.54,925.854 316.431,925.854 318.322,861.977 320.213,899.451 322.104,899.451 323.994,810.573 325.885,884.58 327.776,884.58 329.667,766.764 331.558,766.764 333.449,713.902 335.34,823.849 337.231,936.575 339.122,936.575 341.013,915.242 342.904,971.21 344.795,971.21 346.686,752.36 348.577,752.36 350.468,691.399 352.359,699.757 354.25,699.757 356.141,618.479 358.032,618.479 359.923,433.43 361.813,474.991 363.704,650.954 365.595,795.02 367.486,912.971 369.377,912.971 371.268,907.244 373.159,907.244 375.05,848.053 376.941,890.333 378.832,890.333 380.723,859.234 382.614,934.862 384.505,934.862 386.396,688.448 388.287,688.448 390.178,465.389 392.069,585.247 393.96,585.247 395.851,488.858 397.742,488.858 399.632,338.898 401.523,375.888 403.414,569.815 405.305,569.815 407.196,383.423 409.087,498.755 410.978,670.409 412.869,670.409 414.76,556.496 416.651,703.321 418.542,837.895 420.433,837.895 422.324,876.493 424.215,884.527 426.106,986.253 427.997,1069.54 429.888,1137.73 431.779,1137.73 433.67,1121.39 435.56,1131.01 437.451,1188.06 439.342,1188.06 441.233,1080.76 443.124,1080.76 445.015,852.781 446.906,868.607 448.797,973.219 450.688,1058.87 452.579,1128.99 454.47,1186.4 456.361,1186.4 458.252,1071.74 460.143,1071.74 462.034,1045.85 463.925,1059.46 465.816,1059.46 467.707,1047.66 469.598,1068.38 471.489,1136.78 473.379,1192.78 475.27,1238.63 477.161,1238.63 479.052,1074.11 480.943,1092.22 482.834,1156.3 484.725,1156.3 486.616,1053.84 488.507,1053.84 490.398,930.707 492.289,930.707 494.18,814.245 496.071,853.869 497.962,853.869 499.853,638.82 501.744,733.617 503.635,862.699 505.526,968.382 507.417,968.382 509.307,917.819 511.198,1000.55 513.089,1000.55 514.98,913.029 516.871,964.883 518.762,964.883 520.653,969.937 522.544,990.352 524.435,990.352 526.326,871.956 528.217,871.956 530.108,689.607 531.999,799.621 533.89,799.621 535.781,645.655 537.672,748.138 539.563,748.138 541.454,735.502 543.345,747.93 545.236,874.417 547.126,977.976 549.017,1062.76 550.908,1062.76 552.799,999.972 554.69,1079.18 556.581,1145.62 558.472,1200.02 560.363,1244.56 562.254,1281.02 564.145,1310.87 566.036,1310.87 567.927,1141.7 569.818,1142.38 571.709,1197.36 573.6,1242.38 575.491,1279.24 577.382,1279.24 579.273,1244.28 581.164,1245.28 583.055,1281.61 584.945,1311.36 586.836,1311.36 588.727,1184.74 590.618,1228.34 592.509,1228.34 594.4,1067.03 596.291,1082.03 598.182,1082.03 600.073,1075.33 601.964,1085.21 603.855,1150.56 605.746,1150.56 607.637,900.118 609.528,900.118 611.419,645.347 613.31,645.347 615.201,648.516 617.092,710.379 618.983,710.379 620.873,677.433 622.764,677.433 624.655,421.481 626.546,421.481 628.437,446.695 630.328,506.884 632.219,677.065 634.11,816.398 636.001,930.474 637.892,930.474 639.783,911.034 641.674,966.047 643.565,1053 645.456,1053 647.347,936.841 649.238,1015.09 651.129,1093.15 653.02,1093.15 654.911,903.115 656.802,903.115 658.692,842.416 660.583,875.36 662.474,875.36 664.365,695.99 666.256,695.99 668.147,540.189 670.038,645.583 671.929,645.583 673.82,590.368 675.711,590.368 677.602,505.711 679.493,551.773 681.384,551.773 683.275,511.887 685.166,511.887 687.057,360.984 688.948,360.984 690.839,186.878 692.73,186.878 694.621,87.9763 696.511,116.373 698.402,357.342 700.293,554.631 702.184,716.157 704.075,848.403 705.966,956.678 707.857,1045.33 709.748,1117.9 711.639,1177.33 713.53,1177.33 715.421,1132.49 717.312,1169.04 719.203,1169.04 721.094,983.421 722.985,1056.31 724.876,1126.9 726.767,1184.69 728.658,1232.01 730.549,1270.75 732.439,1270.75 734.33,1231.06 736.221,1240.99 738.112,1240.99 740.003,1195.37 741.894,1219.98 743.785,1219.98 745.676,1193.82 747.567,1197.34 749.458,1197.34 751.349,1104.25 753.24,1119.03 755.131,1119.03 757.022,938.203 758.913,938.203 760.804,928.409 762.695,952.109 764.586,952.109 766.477,973.671 768.368,977.675 770.258,1062.52 772.149,1062.52 774.04,911.925 775.931,953.766 777.822,1042.94 779.713,1115.95 781.604,1175.73 783.495,1175.73 785.386,1155.25 787.277,1155.25 789.168,1032.64 791.059,1032.75 792.95,1107.61 794.841,1107.61 796.732,1069.89 798.623,1111.59 800.514,1172.16 802.405,1172.16 804.296,1072.17 806.186,1072.17 808.077,947.024 809.968,984.492 811.859,1068.1 813.75,1068.1 815.641,1015.09 817.532,1082.13 819.423,1148.03 821.314,1201.99 823.205,1246.17 825.096,1246.17 826.987,1215.06 828.878,1218.99 830.769,1260.08 832.66,1293.73 834.551,1321.28 836.442,1343.84 838.333,1343.84 840.224,1290.06 842.115,1303.36 844.005,1329.16 845.896,1350.29 847.787,1367.59 849.678,1381.75 851.569,1381.75 853.46,1326 855.351,1332.26 857.242,1332.26 859.133,1277.49 861.024,1277.49 862.915,1158.45 864.806,1172.53 866.697,1222.05 868.588,1262.59 870.479,1262.59 872.37,1082.57 874.261,1082.57 876.152,1049.65 878.043,1062.69 879.934,1132.12 881.824,1188.97 883.715,1188.97 885.606,1021.88 887.497,1021.88 889.388,772.068 891.279,819.438 893.17,932.963 895.061,932.963 896.952,804.856 898.843,920.198 900.734,1015.46 902.625,1093.45 904.516,1093.45 906.407,962.258 908.298,965.054 910.189,1052.18 912.08,1123.52 913.971,1123.52 915.862,1069.76 917.752,1069.76 919.643,951.254 921.534,1015.06 923.425,1015.06 925.316,835.004 927.207,835.004 929.098,729.787 930.989,738.83 932.88,866.966 934.771,971.876 936.662,1057.77 938.553,1128.09 940.444,1185.67 942.335,1185.67 944.226,1138.22 946.117,1176.34 948.008,1225.17 949.899,1265.15 951.79,1297.88 953.681,1297.88 955.571,1246.91 957.462,1266.61 959.353,1299.07 961.244,1299.07 963.135,1241.58 965.026,1270.25 966.917,1270.25 968.808,1218.73 970.699,1245.09 972.59,1245.09 974.481,1064.88 976.372,1112.02 978.263,1172.51 980.154,1222.03 982.045,1222.03 983.936,1035.36 985.827,1035.36 987.718,1033.87 989.609,1035.11 991.5,1035.11 993.39,989.206 995.281,989.206 997.172,772.885 999.063,811.082 1000.95,926.122 1002.85,926.122 1004.74,790.718 1006.63,790.718 1008.52,680.159 1010.41,719.887 1012.3,851.458 1014.19,959.178 1016.08,1047.37 1017.97,1119.58 1019.86,1178.7 1021.75,1178.7 1023.65,1135.72 1025.54,1135.72 1027.43,967.506 1029.32,982.339 1031.21,982.339 1033.1,792.745 1034.99,792.745 1036.88,622.863 1038.77,626.212 1040.66,626.212 1042.56,425.397 1044.45,425.397 1046.34,467.548 1048.23,484.553 1050.12,658.782 1052.01,658.782 1053.9,575.435 1055.79,689.397 1057.68,826.494 1059.57,938.74 1061.46,1030.64 1063.36,1105.88 1065.25,1167.48 1067.14,1217.92 1069.03,1259.21 1070.92,1259.21 1072.81,1088.81 1074.7,1112.46 1076.59,1172.87 1078.48,1172.87 1080.37,1045.05 1082.27,1116.36 1084.16,1176.06 1086.05,1176.06 1087.94,1126.69 1089.83,1126.69 1091.72,1102.84 1093.61,1104.98 1095.5,1166.75 1097.39,1166.75 1099.28,1084.48 1101.17,1090.58 1103.07,1154.96 1104.96,1207.66 1106.85,1250.81 1108.74,1286.14 1110.63,1315.07 1112.52,1315.07 1114.41,1254.87 1116.3,1284.2 1118.19,1313.48 1120.08,1337.45 1121.97,1337.45 1123.87,1160.9 1125.76,1169.64 1127.65,1169.64 1129.54,1085.21 1131.43,1093.87 1133.32,1157.65 1135.21,1209.87 1137.1,1209.87 1138.99,1104.83 1140.88,1135.18 1142.78,1135.18 1144.67,1056.4 1146.56,1065.61 1148.45,1065.61 1150.34,1005.9 1152.23,1005.9 1154.12,871.67 1156.01,895.842 1157.9,995.517 1159.79,995.517 1161.68,867.998 1163.58,971.251 1165.47,1057.26 1167.36,1057.26 1169.25,801.987 1171.14,801.987 1173.03,755.053 1174.92,860.575 1176.81,966.643 1178.7,966.643 1180.59,839.336 1182.49,947.584 1184.38,947.584 1186.27,922.428 1188.16,922.428 1190.05,864.856 1191.94,864.856 1193.83,788.143 1195.72,794.953 1197.61,794.953 1199.5,828.183 1201.39,850.822 1203.29,850.822 1205.18,883.884 1207.07,895.539 1208.96,995.269 1210.85,995.269 1212.74,934.638 1214.63,952.518 1216.52,1041.92 1218.41,1041.92 1220.3,939.7 1222.2,939.7 1224.09,835.533 1225.98,883.271 1227.87,883.271 1229.76,771.259 1231.65,800.134 1233.54,917.158 1235.43,917.158 1237.32,704.159 1239.21,782.317 1241.1,902.571 1243,902.571 1244.89,869.52 1246.78,945.015 1248.67,1035.78 1250.56,1110.09 1252.45,1110.09 1254.34,998.673 1256.23,998.673 1258.12,986.514 1260.01,996.523 1261.91,996.523 1263.8,935.337 1265.69,935.337 1267.58,917.604 1269.47,966.271 1271.36,1053.18 1273.25,1053.18 1275.14,1007.18 1277.03,1068.96 1278.92,1137.25 1280.81,1193.17 1282.71,1238.95 1284.6,1238.95 1286.49,1178.57 1288.38,1222.59 1290.27,1222.59 1292.16,1161.46 1294.05,1161.46 1295.94,923.987 1297.83,978.661 1299.72,1063.32 1301.62,1063.32 1303.51,959.422 1305.4,1019.71 1307.29,1096.93 1309.18,1160.15 1311.07,1160.15 1312.96,1121.52 1314.85,1153.9 1316.74,1153.9 1318.63,1071.11 1320.52,1081.43 1322.42,1147.47 1324.31,1201.53 1326.2,1245.79 1328.09,1282.03 1329.98,1282.03 1331.87,1110.69 1333.76,1110.69 1335.65,1058.65 1337.54,1065.45 1339.43,1134.38 1341.33,1190.81 1343.22,1190.81 1345.11,1023.72 1347,1060.51 1348.89,1060.51 1350.78,856.826 1352.67,884.719 1354.56,986.41 1356.45,986.41 1358.34,970.932 1360.23,970.932 1362.13,722.389 1364.02,769.597 1365.91,769.597 1367.8,742.539 1369.69,742.539 1371.58,700.925 1373.47,778.556 1375.36,899.491 1377.25,998.505 1379.14,998.505 1381.04,929.398 1382.93,957.731 1384.82,1046.19 1386.71,1046.19 1388.6,963.918 1390.49,999.114 1392.38,999.114 1394.27,979.549 1396.16,1021.4 1398.05,1021.4 1399.94,830.971 1401.84,847.364 1403.73,955.826 1405.62,955.826 1407.51,853.374 1409.4,933.057 1411.29,933.057 1413.18,708.221 1415.07,800.377 1416.96,917.357 1418.85,1013.13 1420.74,1091.55 1422.64,1155.75 1424.53,1155.75 1426.42,1060.86 1428.31,1088.73 1430.2,1153.44 1432.09,1206.42 1433.98,1206.42 1435.87,1152.91 1437.76,1152.91 1439.65,1038.4 1441.55,1078.17 1443.44,1144.8 1445.33,1144.8 1447.22,1052.34 1449.11,1079.25 1451,1145.68 1452.89,1200.07 1454.78,1244.59 1456.67,1281.05 1458.56,1310.9 1460.45,1335.34 1462.35,1355.35 1464.24,1371.73 1466.13,1385.14 1468.02,1385.14 1469.91,1331.48 1471.8,1331.91 1473.69,1331.91 1475.58,1285.76 1477.47,1289.65 1479.36,1317.94 1481.26,1317.94 1483.15,1193.66 1485.04,1193.66 1486.93,1163.21 1488.82,1168.28 1490.71,1168.28 1492.6,1001.69 1494.49,1001.69 1496.38,873.244 1498.27,926.396 1500.16,1020.53 1502.06,1097.61 1503.95,1160.71 1505.84,1212.37 1507.73,1254.67 1509.62,1289.3 1511.51,1317.65 1513.4,1317.65 1515.29,1136.27 1517.18,1136.27 1519.07,1007.58 1520.97,1049.67 1522.86,1049.67 1524.75,1009.01 1526.64,1065.32 1528.53,1134.27 1530.42,1134.27 1532.31,1071.27 1534.2,1137.71 1536.09,1193.54 1537.98,1239.25 1539.87,1239.25 1541.77,1177.37 1543.66,1223.24 1545.55,1263.57 1547.44,1263.57 1549.33,1073.83 1551.22,1135.04 1553.11,1191.36 1555,1237.47 1556.89,1275.22 1558.78,1306.12 1560.68,1306.12 1562.57,1264 1564.46,1268.6 1566.35,1300.71 1568.24,1300.71 1570.13,1239.07 1572.02,1273.18 1573.91,1304.45 1575.8,1330.06 1577.69,1330.06 1579.58,1211.58 1581.48,1235.01 1583.37,1273.2 1585.26,1304.48 1587.15,1330.08 1589.04,1351.04 1590.93,1368.2 1592.82,1382.25 1594.71,1393.76 1596.6,1393.76 1598.49,1330.74 1600.39,1348.89 1602.28,1366.44 1604.17,1366.44 1606.06,1175.24 1607.95,1175.24 1609.84,1069.53 1611.73,1099.36 1613.62,1099.36 1615.51,1078.79 1617.4,1101.71 1619.29,1164.07 1621.19,1164.07 1623.08,1127.71 1624.97,1156.5 1626.86,1156.5 1628.75,908.555 1630.64,990.375 1632.53,990.375 1634.42,744.446 1636.31,856.16 1638.2,963.029 1640.1,1050.53 1641.99,1050.53 1643.88,923.704 1645.77,931.784 1647.66,931.784 1649.55,920.703 1651.44,920.703 1653.33,772.107 1655.22,772.919 1657.11,894.876 1659,994.726 1660.9,994.726 1662.79,967.175 1664.68,1019 1666.57,1096.35 1668.46,1159.68 1670.35,1159.68 1672.24,1129.66 1674.13,1151.54 1676.02,1151.54 1677.91,1048.15 1679.8,1048.15 1681.7,948.63 1683.59,948.63 1685.48,704.468 1687.37,707.831 1689.26,841.587 1691.15,841.587 1693.04,681.597 1694.93,699.216 1696.82,834.533 1698.71,834.533 1700.61,807.29 1702.5,889.128 1704.39,990.02 1706.28,1072.62 1708.17,1072.62 1710.06,827.822 1711.95,827.822 1713.84,726.673 1715.73,807.019 1717.62,807.019 1719.51,747.282 1721.41,747.282 1723.3,686.105 1725.19,751.879 1727.08,877.65 1728.97,980.623 1730.86,1064.93 1732.75,1064.93 1734.64,848.483 1736.53,897.129 1738.42,996.571 1740.32,1077.99 1742.21,1144.65 1744.1,1144.65 1745.99,891.345 1747.88,984.908 1749.77,984.908 1751.66,944.76 1753.55,1012.73 1755.44,1091.21 1757.33,1155.47 1759.22,1155.47 1761.12,1096.56 1763.01,1096.56 1764.9,1067.23 1766.79,1094.47 1768.68,1158.14 1770.57,1158.14 1772.46,987.645 1774.35,1038.27 1776.24,1112.13 1778.13,1172.59 1780.03,1172.59 1781.92,1136.06 1783.81,1163.32 1785.7,1214.51 1787.59,1214.51 1789.48,1150.36 1791.37,1203.58 1793.26,1203.58 1795.15,979.52 1797.04,1002.17 1798.93,1082.57 1800.83,1082.57 1802.72,937.46 1804.61,965.821 1806.5,965.821 1808.39,789.488 1810.28,888.666 1812.17,989.642 1814.06,989.642 1815.95,855.239 1817.84,855.239 1819.74,800.487 1821.63,828.866 1823.52,828.866 1825.41,637.711 1827.3,781.793 1829.19,781.793 1831.08,790.821 1832.97,790.821 1834.86,701.635 1836.75,716.456 1838.64,848.649 1840.54,848.649 1842.43,762.138 1844.32,764.049 1846.21,887.615 1848.1,887.615 1849.99,829.066 1851.88,935.444 1853.77,935.444 1855.66,781.844 1857.55,781.844 1859.45,546.368 1861.34,619.332 1863.23,769.13 1865.12,891.774 1867.01,992.187 1868.9,1074.4 1870.79,1141.71 1872.68,1141.71 1874.57,1095.39 1876.46,1095.39 1878.35,981.202 1880.25,1023.52 1882.14,1023.52 1884.03,775.665 1885.92,883.86 1887.81,985.707 1889.7,985.707 1891.59,862.387 1893.48,962.248 1895.37,1049.89 1897.26,1121.64 1899.16,1180.38 1901.05,1228.48 1902.94,1267.86 1904.83,1267.86 1906.72,1219.94 1908.61,1219.94 1910.5,1108.85 1912.39,1115.57 1914.28,1115.57 1916.17,1056.8 1918.06,1121.72 1919.96,1121.72 1921.85,1081.58 1923.74,1081.58 1925.63,842.802 1927.52,882.581 1929.41,984.66 1931.3,984.66 1933.19,868.645 1935.08,959.652 1936.97,959.652 1938.86,895.116 1940.76,926.102 1942.65,1020.29 1944.54,1097.41 1946.43,1097.41 1948.32,846.262 1950.21,945.328 1952.1,945.328 1953.99,819.211 1955.88,819.211 1957.77,642.862 1959.67,665.126 1961.56,806.623 1963.45,806.623 1965.34,798.007 1967.23,798.007 1969.12,713.807 1971.01,740.42 1972.9,740.42 1974.79,692.288 1976.68,814.245 1978.57,814.245 1980.47,755.705 1982.36,875.44 1984.25,875.44 1986.14,901.308 1988.03,916.109 1989.92,916.109 1991.81,888.811 1993.7,955.356 1995.59,1044.24 1997.48,1044.24 1999.38,973.842 2001.27,993.466 2003.16,993.466 2005.05,783.599 2006.94,783.599 2008.83,660.184 2010.72,720.259 2012.61,851.762 2014.5,851.762 2016.39,759.928 2018.28,759.928 2020.18,738.14 2022.07,786.834 2023.96,906.269 2025.85,1004.05 2027.74,1084.11 2029.63,1084.11 2031.52,1006.89 2033.41,1026.51 2035.3,1102.5 2037.19,1164.71 2039.09,1215.65 2040.98,1257.35 2042.87,1291.5 2044.76,1319.45 2046.65,1342.34 2048.54,1342.34 2050.43,1149.41 2052.32,1202.09 2054.21,1246.25 2056.1,1246.25 2057.99,1053.43 2059.89,1053.43 2061.78,1032.75 2063.67,1032.75 2065.56,796.498 2067.45,812.691 2069.34,927.439 2071.23,1021.39 2073.12,1098.3 2075.01,1098.3 2076.9,868.439 2078.8,931.712 2080.69,1024.89 2082.58,1101.17 2084.47,1101.17 2086.36,952.408 2088.25,981.761 2090.14,1065.86 2092.03,1065.86 2093.92,1020.03 2095.81,1079.22 2097.7,1145.66 2099.6,1200.05 2101.49,1244.58 2103.38,1244.58 2105.27,1211.51 2107.16,1218.51 2109.05,1259.7 2110.94,1293.41 2112.83,1293.41 2114.72,1253.69 2116.61,1258.02 2118.51,1292.04 2120.4,1319.9 2122.29,1319.9 2124.18,1268.56 2126.07,1283.79 2127.96,1313.14 2129.85,1337.18 2131.74,1337.18 2133.63,1153.57 2135.52,1182.87 2137.41,1182.87 2139.31,1147.16 2141.2,1147.16 2143.09,1036.85 2144.98,1044.89 2146.87,1117.55 2148.76,1117.55 2150.65,963.705 2152.54,997.037 2154.43,997.037 2156.32,923.6 2158.22,957.932 2160.11,1046.35 2162,1118.74 2163.89,1178.01 2165.78,1178.01 2167.67,1118.63 2169.56,1172.75 2171.45,1172.75 2173.34,992.721 2175.23,992.721 2177.12,914.079 2179.02,930.956 2180.91,930.956 2182.8,877.31 2184.69,970.362 2186.58,1056.53 2188.47,1127.08 2190.36,1127.08 2192.25,1030.56 2194.14,1067.35 2196.03,1067.35 2197.92,1037.45 2199.82,1077.85 2201.71,1144.54 2203.6,1144.54 2205.49,951.762 2207.38,951.762 2209.27,953.131 2211.16,979.493 2213.05,979.493 2214.94,923.09 2216.83,939.021 2218.73,1030.87 2220.62,1106.07 2222.51,1167.64 2224.4,1167.64 2226.29,1130.08 2228.18,1159.62 2230.07,1211.48 2231.96,1253.94 2233.85,1253.94 2235.74,1139.81 2237.63,1174.34 2239.53,1174.34 2241.42,1113.49 2243.31,1170.05 2245.2,1170.05 2247.09,1045.88 2248.98,1112.63 2250.87,1112.63 2252.76,919.817 2254.65,1014.42 2256.54,1092.6 2258.44,1156.61 2260.33,1156.61 2262.22,1110.81 2264.11,1152.6 2266,1152.6 2267.89,976.703 2269.78,976.703 2271.67,964.583 2273.56,974.217 2275.45,974.217 2277.34,938.356 2279.24,938.356 2281.13,871.14 2283.02,875.591 2284.91,875.591 2286.8,832.198 2288.69,832.198 2290.58,701.693 "/>
<path clip-path="url(#clip080)" d="M2007.42 198.898 L2279.53 198.898 L2279.53 95.2176 L2007.42 95.2176  Z" fill="#ffffff" fill-rule="evenodd" fill-opacity="1"/>
<polyline clip-path="url(#clip080)" style="stroke:#000000; stroke-linecap:round; stroke-linejoin:round; stroke-width:4; stroke-opacity:1; fill:none" points="2007.42,198.898 2279.53,198.898 2279.53,95.2176 2007.42,95.2176 2007.42,198.898 "/>
<polyline clip-path="url(#clip080)" style="stroke:#009af9; stroke-linecap:round; stroke-linejoin:round; stroke-width:4; stroke-opacity:1; fill:none" points="2031.82,147.058 2178.28,147.058 "/>
<path clip-path="url(#clip080)" d="M2216.53 166.745 Q2214.73 171.375 2213.01 172.787 Q2211.3 174.199 2208.43 174.199 L2205.03 174.199 L2205.03 170.634 L2207.53 170.634 Q2209.29 170.634 2210.26 169.8 Q2211.23 168.967 2212.41 165.865 L2213.17 163.921 L2202.69 138.412 L2207.2 138.412 L2215.3 158.689 L2223.41 138.412 L2227.92 138.412 L2216.53 166.745 Z" fill="#000000" fill-rule="nonzero" fill-opacity="1" /><path clip-path="url(#clip080)" d="M2235.21 160.402 L2242.85 160.402 L2242.85 134.037 L2234.54 135.703 L2234.54 131.444 L2242.8 129.778 L2247.48 129.778 L2247.48 160.402 L2255.12 160.402 L2255.12 164.338 L2235.21 164.338 L2235.21 160.402 Z" fill="#000000" fill-rule="nonzero" fill-opacity="1" /></svg>
