<?xml version="1.0" encoding="utf-8"?>
<svg xmlns="http://www.w3.org/2000/svg" xmlns:xlink="http://www.w3.org/1999/xlink" width="600" height="400" viewBox="0 0 2400 1600">
<defs>
  <clipPath id="clip240">
    <rect x="0" y="0" width="2400" height="1600"/>
  </clipPath>
</defs>
<path clip-path="url(#clip240)" d="M0 1600 L2400 1600 L2400 0 L0 0  Z" fill="#ffffff" fill-rule="evenodd" fill-opacity="1"/>
<defs>
  <clipPath id="clip241">
    <rect x="156" y="47" width="2198" height="1377"/>
  </clipPath>
</defs>
<path clip-path="url(#clip240)" d="M156.112 1423.18 L2352.76 1423.18 L2352.76 47.2441 L156.112 47.2441  Z" fill="#ffffff" fill-rule="evenodd" fill-opacity="1"/>
<polyline clip-path="url(#clip241)" style="stroke:#000000; stroke-linecap:round; stroke-linejoin:round; stroke-width:2; stroke-opacity:0.1; fill:none" points="156.112,1423.18 156.112,47.2441 "/>
<polyline clip-path="url(#clip241)" style="stroke:#000000; stroke-linecap:round; stroke-linejoin:round; stroke-width:2; stroke-opacity:0.1; fill:none" points="595.441,1423.18 595.441,47.2441 "/>
<polyline clip-path="url(#clip241)" style="stroke:#000000; stroke-linecap:round; stroke-linejoin:round; stroke-width:2; stroke-opacity:0.1; fill:none" points="1034.77,1423.18 1034.77,47.2441 "/>
<polyline clip-path="url(#clip241)" style="stroke:#000000; stroke-linecap:round; stroke-linejoin:round; stroke-width:2; stroke-opacity:0.1; fill:none" points="1474.1,1423.18 1474.1,47.2441 "/>
<polyline clip-path="url(#clip241)" style="stroke:#000000; stroke-linecap:round; stroke-linejoin:round; stroke-width:2; stroke-opacity:0.1; fill:none" points="1913.43,1423.18 1913.43,47.2441 "/>
<polyline clip-path="url(#clip241)" style="stroke:#000000; stroke-linecap:round; stroke-linejoin:round; stroke-width:2; stroke-opacity:0.1; fill:none" points="2352.76,1423.18 2352.76,47.2441 "/>
<polyline clip-path="url(#clip241)" style="stroke:#000000; stroke-linecap:round; stroke-linejoin:round; stroke-width:2; stroke-opacity:0.1; fill:none" points="156.112,1398.29 2352.76,1398.29 "/>
<polyline clip-path="url(#clip241)" style="stroke:#000000; stroke-linecap:round; stroke-linejoin:round; stroke-width:2; stroke-opacity:0.1; fill:none" points="156.112,954.281 2352.76,954.281 "/>
<polyline clip-path="url(#clip241)" style="stroke:#000000; stroke-linecap:round; stroke-linejoin:round; stroke-width:2; stroke-opacity:0.1; fill:none" points="156.112,510.268 2352.76,510.268 "/>
<polyline clip-path="url(#clip241)" style="stroke:#000000; stroke-linecap:round; stroke-linejoin:round; stroke-width:2; stroke-opacity:0.1; fill:none" points="156.112,66.2562 2352.76,66.2562 "/>
<polyline clip-path="url(#clip240)" style="stroke:#000000; stroke-linecap:round; stroke-linejoin:round; stroke-width:4; stroke-opacity:1; fill:none" points="156.112,1423.18 2352.76,1423.18 "/>
<polyline clip-path="url(#clip240)" style="stroke:#000000; stroke-linecap:round; stroke-linejoin:round; stroke-width:4; stroke-opacity:1; fill:none" points="156.112,1423.18 156.112,1404.28 "/>
<polyline clip-path="url(#clip240)" style="stroke:#000000; stroke-linecap:round; stroke-linejoin:round; stroke-width:4; stroke-opacity:1; fill:none" points="595.441,1423.18 595.441,1404.28 "/>
<polyline clip-path="url(#clip240)" style="stroke:#000000; stroke-linecap:round; stroke-linejoin:round; stroke-width:4; stroke-opacity:1; fill:none" points="1034.77,1423.18 1034.77,1404.28 "/>
<polyline clip-path="url(#clip240)" style="stroke:#000000; stroke-linecap:round; stroke-linejoin:round; stroke-width:4; stroke-opacity:1; fill:none" points="1474.1,1423.18 1474.1,1404.28 "/>
<polyline clip-path="url(#clip240)" style="stroke:#000000; stroke-linecap:round; stroke-linejoin:round; stroke-width:4; stroke-opacity:1; fill:none" points="1913.43,1423.18 1913.43,1404.28 "/>
<polyline clip-path="url(#clip240)" style="stroke:#000000; stroke-linecap:round; stroke-linejoin:round; stroke-width:4; stroke-opacity:1; fill:none" points="2352.76,1423.18 2352.76,1404.28 "/>
<path clip-path="url(#clip240)" d="M156.112 1454.1 Q152.501 1454.1 150.672 1457.66 Q148.867 1461.2 148.867 1468.33 Q148.867 1475.44 150.672 1479.01 Q152.501 1482.55 156.112 1482.55 Q159.746 1482.55 161.552 1479.01 Q163.381 1475.44 163.381 1468.33 Q163.381 1461.2 161.552 1457.66 Q159.746 1454.1 156.112 1454.1 M156.112 1450.39 Q161.922 1450.39 164.978 1455 Q168.057 1459.58 168.057 1468.33 Q168.057 1477.06 164.978 1481.67 Q161.922 1486.25 156.112 1486.25 Q150.302 1486.25 147.223 1481.67 Q144.168 1477.06 144.168 1468.33 Q144.168 1459.58 147.223 1455 Q150.302 1450.39 156.112 1450.39 Z" fill="#000000" fill-rule="nonzero" fill-opacity="1" /><path clip-path="url(#clip240)" d="M590.094 1481.64 L606.413 1481.64 L606.413 1485.58 L584.469 1485.58 L584.469 1481.64 Q587.131 1478.89 591.714 1474.26 Q596.321 1469.61 597.501 1468.27 Q599.746 1465.74 600.626 1464.01 Q601.529 1462.25 601.529 1460.56 Q601.529 1457.8 599.584 1456.07 Q597.663 1454.33 594.561 1454.33 Q592.362 1454.33 589.909 1455.09 Q587.478 1455.86 584.7 1457.41 L584.7 1452.69 Q587.524 1451.55 589.978 1450.97 Q592.432 1450.39 594.469 1450.39 Q599.839 1450.39 603.033 1453.08 Q606.228 1455.77 606.228 1460.26 Q606.228 1462.39 605.418 1464.31 Q604.631 1466.2 602.524 1468.8 Q601.945 1469.47 598.844 1472.69 Q595.742 1475.88 590.094 1481.64 Z" fill="#000000" fill-rule="nonzero" fill-opacity="1" /><path clip-path="url(#clip240)" d="M1037.78 1455.09 L1025.97 1473.54 L1037.78 1473.54 L1037.78 1455.09 M1036.55 1451.02 L1042.43 1451.02 L1042.43 1473.54 L1047.36 1473.54 L1047.36 1477.43 L1042.43 1477.43 L1042.43 1485.58 L1037.78 1485.58 L1037.78 1477.43 L1022.18 1477.43 L1022.18 1472.92 L1036.55 1451.02 Z" fill="#000000" fill-rule="nonzero" fill-opacity="1" /><path clip-path="url(#clip240)" d="M1474.5 1466.44 Q1471.36 1466.44 1469.5 1468.59 Q1467.67 1470.74 1467.67 1474.49 Q1467.67 1478.22 1469.5 1480.39 Q1471.36 1482.55 1474.5 1482.55 Q1477.65 1482.55 1479.48 1480.39 Q1481.33 1478.22 1481.33 1474.49 Q1481.33 1470.74 1479.48 1468.59 Q1477.65 1466.44 1474.5 1466.44 M1483.79 1451.78 L1483.79 1456.04 Q1482.03 1455.21 1480.22 1454.77 Q1478.44 1454.33 1476.68 1454.33 Q1472.05 1454.33 1469.6 1457.45 Q1467.17 1460.58 1466.82 1466.9 Q1468.18 1464.89 1470.24 1463.82 Q1472.3 1462.73 1474.78 1462.73 Q1479.99 1462.73 1483 1465.9 Q1486.03 1469.05 1486.03 1474.49 Q1486.03 1479.82 1482.88 1483.03 Q1479.73 1486.25 1474.5 1486.25 Q1468.51 1486.25 1465.34 1481.67 Q1462.17 1477.06 1462.17 1468.33 Q1462.17 1460.14 1466.05 1455.28 Q1469.94 1450.39 1476.49 1450.39 Q1478.25 1450.39 1480.04 1450.74 Q1481.84 1451.09 1483.79 1451.78 Z" fill="#000000" fill-rule="nonzero" fill-opacity="1" /><path clip-path="url(#clip240)" d="M1913.43 1469.17 Q1910.09 1469.17 1908.17 1470.95 Q1906.27 1472.73 1906.27 1475.86 Q1906.27 1478.98 1908.17 1480.77 Q1910.09 1482.55 1913.43 1482.55 Q1916.76 1482.55 1918.68 1480.77 Q1920.6 1478.96 1920.6 1475.86 Q1920.6 1472.73 1918.68 1470.95 Q1916.78 1469.17 1913.43 1469.17 M1908.75 1467.18 Q1905.74 1466.44 1904.05 1464.38 Q1902.39 1462.32 1902.39 1459.35 Q1902.39 1455.21 1905.33 1452.8 Q1908.29 1450.39 1913.43 1450.39 Q1918.59 1450.39 1921.53 1452.8 Q1924.47 1455.21 1924.47 1459.35 Q1924.47 1462.32 1922.78 1464.38 Q1921.11 1466.44 1918.13 1467.18 Q1921.51 1467.96 1923.38 1470.26 Q1925.28 1472.55 1925.28 1475.86 Q1925.28 1480.88 1922.2 1483.57 Q1919.14 1486.25 1913.43 1486.25 Q1907.71 1486.25 1904.63 1483.57 Q1901.58 1480.88 1901.58 1475.86 Q1901.58 1472.55 1903.47 1470.26 Q1905.37 1467.96 1908.75 1467.18 M1907.04 1459.79 Q1907.04 1462.48 1908.7 1463.98 Q1910.39 1465.49 1913.43 1465.49 Q1916.44 1465.49 1918.13 1463.98 Q1919.84 1462.48 1919.84 1459.79 Q1919.84 1457.11 1918.13 1455.6 Q1916.44 1454.1 1913.43 1454.1 Q1910.39 1454.1 1908.7 1455.6 Q1907.04 1457.11 1907.04 1459.79 Z" fill="#000000" fill-rule="nonzero" fill-opacity="1" /><path clip-path="url(#clip240)" d="M2327.44 1481.64 L2335.08 1481.64 L2335.08 1455.28 L2326.77 1456.95 L2326.77 1452.69 L2335.04 1451.02 L2339.71 1451.02 L2339.71 1481.64 L2347.35 1481.64 L2347.35 1485.58 L2327.44 1485.58 L2327.44 1481.64 Z" fill="#000000" fill-rule="nonzero" fill-opacity="1" /><path clip-path="url(#clip240)" d="M2366.8 1454.1 Q2363.18 1454.1 2361.36 1457.66 Q2359.55 1461.2 2359.55 1468.33 Q2359.55 1475.44 2361.36 1479.01 Q2363.18 1482.55 2366.8 1482.55 Q2370.43 1482.55 2372.23 1479.01 Q2374.06 1475.44 2374.06 1468.33 Q2374.06 1461.2 2372.23 1457.66 Q2370.43 1454.1 2366.8 1454.1 M2366.8 1450.39 Q2372.61 1450.39 2375.66 1455 Q2378.74 1459.58 2378.74 1468.33 Q2378.74 1477.06 2375.66 1481.67 Q2372.61 1486.25 2366.8 1486.25 Q2360.99 1486.25 2357.91 1481.67 Q2354.85 1477.06 2354.85 1468.33 Q2354.85 1459.58 2357.91 1455 Q2360.99 1450.39 2366.8 1450.39 Z" fill="#000000" fill-rule="nonzero" fill-opacity="1" /><path clip-path="url(#clip240)" d="M1253.5 1522.27 L1253.5 1532.4 L1265.56 1532.4 L1265.56 1536.95 L1253.5 1536.95 L1253.5 1556.3 Q1253.5 1560.66 1254.67 1561.9 Q1255.88 1563.14 1259.54 1563.14 L1265.56 1563.14 L1265.56 1568.04 L1259.54 1568.04 Q1252.76 1568.04 1250.18 1565.53 Q1247.61 1562.98 1247.61 1556.3 L1247.61 1536.95 L1243.31 1536.95 L1243.31 1532.4 L1247.61 1532.4 L1247.61 1522.27 L1253.5 1522.27 Z" fill="#000000" fill-rule="nonzero" fill-opacity="1" /><polyline clip-path="url(#clip240)" style="stroke:#000000; stroke-linecap:round; stroke-linejoin:round; stroke-width:4; stroke-opacity:1; fill:none" points="156.112,1423.18 156.112,47.2441 "/>
<polyline clip-path="url(#clip240)" style="stroke:#000000; stroke-linecap:round; stroke-linejoin:round; stroke-width:4; stroke-opacity:1; fill:none" points="156.112,1398.29 175.01,1398.29 "/>
<polyline clip-path="url(#clip240)" style="stroke:#000000; stroke-linecap:round; stroke-linejoin:round; stroke-width:4; stroke-opacity:1; fill:none" points="156.112,954.281 175.01,954.281 "/>
<polyline clip-path="url(#clip240)" style="stroke:#000000; stroke-linecap:round; stroke-linejoin:round; stroke-width:4; stroke-opacity:1; fill:none" points="156.112,510.268 175.01,510.268 "/>
<polyline clip-path="url(#clip240)" style="stroke:#000000; stroke-linecap:round; stroke-linejoin:round; stroke-width:4; stroke-opacity:1; fill:none" points="156.112,66.2562 175.01,66.2562 "/>
<path clip-path="url(#clip240)" d="M62.9365 1384.09 Q59.3254 1384.09 57.4967 1387.66 Q55.6912 1391.2 55.6912 1398.33 Q55.6912 1405.43 57.4967 1409 Q59.3254 1412.54 62.9365 1412.54 Q66.5707 1412.54 68.3763 1409 Q70.205 1405.43 70.205 1398.33 Q70.205 1391.2 68.3763 1387.66 Q66.5707 1384.09 62.9365 1384.09 M62.9365 1380.39 Q68.7467 1380.39 71.8022 1384.99 Q74.8809 1389.58 74.8809 1398.33 Q74.8809 1407.05 71.8022 1411.66 Q68.7467 1416.24 62.9365 1416.24 Q57.1264 1416.24 54.0477 1411.66 Q50.9921 1407.05 50.9921 1398.33 Q50.9921 1389.58 54.0477 1384.99 Q57.1264 1380.39 62.9365 1380.39 Z" fill="#000000" fill-rule="nonzero" fill-opacity="1" /><path clip-path="url(#clip240)" d="M83.0984 1409.69 L87.9827 1409.69 L87.9827 1415.57 L83.0984 1415.57 L83.0984 1409.69 Z" fill="#000000" fill-rule="nonzero" fill-opacity="1" /><path clip-path="url(#clip240)" d="M108.168 1384.09 Q104.557 1384.09 102.728 1387.66 Q100.922 1391.2 100.922 1398.33 Q100.922 1405.43 102.728 1409 Q104.557 1412.54 108.168 1412.54 Q111.802 1412.54 113.608 1409 Q115.436 1405.43 115.436 1398.33 Q115.436 1391.2 113.608 1387.66 Q111.802 1384.09 108.168 1384.09 M108.168 1380.39 Q113.978 1380.39 117.033 1384.99 Q120.112 1389.58 120.112 1398.33 Q120.112 1407.05 117.033 1411.66 Q113.978 1416.24 108.168 1416.24 Q102.358 1416.24 99.2789 1411.66 Q96.2234 1407.05 96.2234 1398.33 Q96.2234 1389.58 99.2789 1384.99 Q102.358 1380.39 108.168 1380.39 Z" fill="#000000" fill-rule="nonzero" fill-opacity="1" /><path clip-path="url(#clip240)" d="M64.1634 940.079 Q60.5523 940.079 58.7236 943.644 Q56.918 947.186 56.918 954.315 Q56.918 961.422 58.7236 964.987 Q60.5523 968.528 64.1634 968.528 Q67.7976 968.528 69.6031 964.987 Q71.4318 961.422 71.4318 954.315 Q71.4318 947.186 69.6031 943.644 Q67.7976 940.079 64.1634 940.079 M64.1634 936.376 Q69.9735 936.376 73.029 940.982 Q76.1077 945.565 76.1077 954.315 Q76.1077 963.042 73.029 967.649 Q69.9735 972.232 64.1634 972.232 Q58.3532 972.232 55.2745 967.649 Q52.219 963.042 52.219 954.315 Q52.219 945.565 55.2745 940.982 Q58.3532 936.376 64.1634 936.376 Z" fill="#000000" fill-rule="nonzero" fill-opacity="1" /><path clip-path="url(#clip240)" d="M84.3253 965.681 L89.2095 965.681 L89.2095 971.561 L84.3253 971.561 L84.3253 965.681 Z" fill="#000000" fill-rule="nonzero" fill-opacity="1" /><path clip-path="url(#clip240)" d="M100.205 967.625 L107.844 967.625 L107.844 941.26 L99.5335 942.927 L99.5335 938.667 L107.797 937.001 L112.473 937.001 L112.473 967.625 L120.112 967.625 L120.112 971.561 L100.205 971.561 L100.205 967.625 Z" fill="#000000" fill-rule="nonzero" fill-opacity="1" /><path clip-path="url(#clip240)" d="M64.5337 496.067 Q60.9226 496.067 59.0939 499.632 Q57.2884 503.174 57.2884 510.303 Q57.2884 517.41 59.0939 520.974 Q60.9226 524.516 64.5337 524.516 Q68.168 524.516 69.9735 520.974 Q71.8022 517.41 71.8022 510.303 Q71.8022 503.174 69.9735 499.632 Q68.168 496.067 64.5337 496.067 M64.5337 492.363 Q70.3439 492.363 73.3994 496.97 Q76.4781 501.553 76.4781 510.303 Q76.4781 519.03 73.3994 523.636 Q70.3439 528.22 64.5337 528.22 Q58.7236 528.22 55.6449 523.636 Q52.5893 519.03 52.5893 510.303 Q52.5893 501.553 55.6449 496.97 Q58.7236 492.363 64.5337 492.363 Z" fill="#000000" fill-rule="nonzero" fill-opacity="1" /><path clip-path="url(#clip240)" d="M84.6956 521.669 L89.5799 521.669 L89.5799 527.548 L84.6956 527.548 L84.6956 521.669 Z" fill="#000000" fill-rule="nonzero" fill-opacity="1" /><path clip-path="url(#clip240)" d="M103.793 523.613 L120.112 523.613 L120.112 527.548 L98.1678 527.548 L98.1678 523.613 Q100.83 520.859 105.413 516.229 Q110.02 511.576 111.2 510.234 Q113.445 507.711 114.325 505.974 Q115.228 504.215 115.228 502.525 Q115.228 499.771 113.283 498.035 Q111.362 496.299 108.26 496.299 Q106.061 496.299 103.608 497.062 Q101.177 497.826 98.3993 499.377 L98.3993 494.655 Q101.223 493.521 103.677 492.942 Q106.131 492.363 108.168 492.363 Q113.538 492.363 116.733 495.049 Q119.927 497.734 119.927 502.224 Q119.927 504.354 119.117 506.275 Q118.33 508.174 116.223 510.766 Q115.645 511.437 112.543 514.655 Q109.441 517.849 103.793 523.613 Z" fill="#000000" fill-rule="nonzero" fill-opacity="1" /><path clip-path="url(#clip240)" d="M63.5847 52.0549 Q59.9736 52.0549 58.1449 55.6197 Q56.3393 59.1613 56.3393 66.2909 Q56.3393 73.3974 58.1449 76.9621 Q59.9736 80.5038 63.5847 80.5038 Q67.2189 80.5038 69.0244 76.9621 Q70.8531 73.3974 70.8531 66.2909 Q70.8531 59.1613 69.0244 55.6197 Q67.2189 52.0549 63.5847 52.0549 M63.5847 48.3512 Q69.3948 48.3512 72.4503 52.9576 Q75.529 57.541 75.529 66.2909 Q75.529 75.0177 72.4503 79.6242 Q69.3948 84.2075 63.5847 84.2075 Q57.7745 84.2075 54.6958 79.6242 Q51.6403 75.0177 51.6403 66.2909 Q51.6403 57.541 54.6958 52.9576 Q57.7745 48.3512 63.5847 48.3512 Z" fill="#000000" fill-rule="nonzero" fill-opacity="1" /><path clip-path="url(#clip240)" d="M83.7466 77.6566 L88.6308 77.6566 L88.6308 83.5362 L83.7466 83.5362 L83.7466 77.6566 Z" fill="#000000" fill-rule="nonzero" fill-opacity="1" /><path clip-path="url(#clip240)" d="M112.983 64.902 Q116.339 65.6196 118.214 67.8881 Q120.112 70.1566 120.112 73.4899 Q120.112 78.6057 116.594 81.4066 Q113.075 84.2075 106.594 84.2075 Q104.418 84.2075 102.103 83.7677 Q99.8113 83.351 97.3576 82.4945 L97.3576 77.9807 Q99.3021 79.1149 101.617 79.6936 Q103.932 80.2723 106.455 80.2723 Q110.853 80.2723 113.145 78.5362 Q115.459 76.8001 115.459 73.4899 Q115.459 70.4344 113.307 68.7215 Q111.177 66.9853 107.358 66.9853 L103.33 66.9853 L103.33 63.1428 L107.543 63.1428 Q110.992 63.1428 112.82 61.777 Q114.649 60.3882 114.649 57.7956 Q114.649 55.1336 112.751 53.7215 Q110.876 52.2864 107.358 52.2864 Q105.436 52.2864 103.237 52.703 Q101.038 53.1197 98.3993 53.9993 L98.3993 49.8327 Q101.061 49.0919 103.376 48.7216 Q105.714 48.3512 107.774 48.3512 Q113.098 48.3512 116.2 50.7817 Q119.302 53.1891 119.302 57.3095 Q119.302 60.1798 117.658 62.1706 Q116.015 64.1381 112.983 64.902 Z" fill="#000000" fill-rule="nonzero" fill-opacity="1" /><polyline clip-path="url(#clip241)" style="stroke:#009af9; stroke-linecap:round; stroke-linejoin:round; stroke-width:8; stroke-opacity:1; fill:none" points="156.112,510.268 158.311,501.335 160.51,492.311 162.709,483.197 164.907,473.99 167.106,464.692 169.305,455.299 171.504,445.813 173.703,436.23 175.902,426.552 178.101,416.776 180.299,406.901 182.498,396.928 184.697,386.854 186.896,376.678 189.095,366.401 191.294,356.02 193.492,345.534 195.691,334.943 197.89,324.245 200.089,313.44 202.288,302.526 204.487,291.503 206.686,280.368 208.884,269.121 211.083,257.762 213.282,246.288 215.481,234.698 217.68,222.992 219.879,211.168 222.077,199.225 224.276,187.162 226.475,174.978 228.674,162.671 230.873,150.24 233.072,137.685 235.27,125.003 237.469,112.193 239.668,99.2544 241.867,86.1857 244.066,735.639 246.265,728.973 248.464,722.239 250.662,715.438 252.861,708.568 255.06,701.629 257.259,694.621 259.458,687.542 261.657,680.391 263.855,673.169 266.054,665.874 268.253,658.506 270.452,651.063 272.651,643.546 274.85,635.953 277.048,628.284 279.247,620.537 281.446,612.713 283.645,604.809 285.844,596.827 288.043,588.764 290.242,580.62 292.44,572.394 294.639,564.085 296.838,555.692 299.037,547.216 301.236,538.654 303.435,530.005 305.633,521.27 307.832,512.447 310.031,503.535 312.23,494.534 314.429,485.442 316.628,476.258 318.826,466.982 321.025,457.613 323.224,448.15 325.423,438.591 327.622,428.936 329.821,419.184 332.02,409.334 334.218,399.385 336.417,389.336 338.616,379.185 340.815,368.933 343.014,358.577 345.213,348.117 347.411,337.552 349.61,326.881 351.809,316.102 354.008,305.215 356.207,294.218 358.406,283.111 360.604,835.092 362.803,829.426 365.002,823.703 367.201,817.923 369.4,812.084 371.599,806.187 373.798,800.23 375.996,794.213 378.195,788.136 380.394,781.998 382.593,775.797 384.792,769.535 386.991,763.21 389.189,756.821 391.388,750.367 393.587,743.849 395.786,737.265 397.985,730.615 400.184,723.898 402.382,717.114 404.581,710.261 406.78,703.339 408.979,696.348 411.178,689.286 413.377,682.153 415.576,674.949 417.774,667.672 419.973,660.321 422.172,652.897 424.371,645.398 426.57,637.824 428.769,630.173 430.967,622.446 433.166,614.64 435.365,606.756 437.564,598.793 439.763,590.75 441.962,582.626 444.161,574.42 446.359,566.132 448.558,557.76 450.757,549.304 452.956,540.763 455.155,532.136 457.354,523.422 459.552,514.621 461.751,505.731 463.95,496.751 466.149,487.681 468.348,478.52 470.547,469.267 472.745,459.921 474.944,450.481 477.143,440.946 479.342,914.804 481.541,909.94 483.74,905.027 485.939,900.064 488.137,895.052 490.336,889.989 492.535,1141.58 494.734,1139 496.933,1136.39 499.132,1133.76 501.33,1131.1 503.529,1128.41 505.728,1125.69 507.927,1122.95 510.126,1120.18 512.325,1117.38 514.523,1114.56 516.722,1111.7 518.921,1108.82 521.12,1105.91 523.319,1102.97 525.518,1100 527.717,1096.99 529.915,1093.96 532.114,1090.9 534.313,1087.81 536.512,1084.69 538.711,1081.53 540.91,1078.34 543.108,1075.12 545.307,1071.87 547.506,1068.59 549.705,1065.27 551.904,1061.92 554.103,1058.54 556.301,1055.12 558.5,1051.67 560.699,1048.18 562.898,1044.66 565.097,1041.1 567.296,1037.51 569.495,1033.88 571.693,1030.21 573.892,1026.51 576.091,1022.77 578.29,1018.99 580.489,1015.18 582.688,1011.32 584.886,1007.43 587.085,1003.5 589.284,999.524 591.483,995.512 593.682,991.46 595.881,987.367 598.079,983.233 600.278,979.058 602.477,974.84 604.676,970.58 606.875,966.277 609.074,961.931 611.273,957.541 613.471,953.107 615.67,948.628 617.869,944.104 620.068,939.535 622.267,934.92 624.466,930.258 626.664,925.55 628.863,920.794 631.062,915.99 633.261,911.138 635.46,906.237 637.659,901.287 639.858,896.287 642.056,891.236 644.255,886.135 646.454,880.983 648.653,875.778 650.852,870.522 653.051,865.212 655.249,859.849 657.448,1126.36 659.647,1123.63 661.846,1120.86 664.045,1118.07 666.244,1115.25 668.442,1112.41 670.641,1109.53 672.84,1106.62 675.039,1103.69 677.238,1100.73 679.437,1097.73 681.636,1094.71 683.834,1091.66 686.033,1088.57 688.232,1085.45 690.431,1082.31 692.63,1079.13 694.829,1075.92 697.027,1072.67 699.226,1069.4 701.425,1066.09 703.624,1062.75 705.823,1059.37 708.022,1055.96 710.22,1052.52 712.419,1049.04 714.618,1045.53 716.817,1041.98 719.016,1038.39 721.215,1034.77 723.414,1031.12 725.612,1027.42 727.811,1023.69 730.01,1019.92 732.209,1016.12 734.408,1012.27 736.607,1008.39 738.805,1004.46 741.004,1000.5 743.203,996.5 745.402,992.458 747.601,988.375 749.8,984.252 751.998,1189.19 754.197,1187.09 756.396,1184.96 758.595,1182.81 760.794,1180.65 762.993,1178.46 765.192,1176.25 767.39,1174.01 769.589,1171.76 771.788,1169.48 773.987,1167.17 776.186,1164.85 778.385,1162.5 780.583,1160.13 782.782,1157.73 784.981,1155.31 787.18,1152.87 789.379,1150.4 791.578,1147.91 793.776,1145.39 795.975,1142.84 798.174,1140.27 800.373,1137.68 802.572,1135.05 804.771,1132.41 806.97,1129.73 809.168,1127.03 811.367,1124.3 813.566,1121.54 815.765,1118.76 817.964,1115.95 820.163,1113.11 822.361,1110.24 824.56,1107.34 826.759,1104.41 828.958,1101.46 831.157,1248.38 833.356,1246.87 835.554,1245.35 837.753,1243.81 839.952,1242.26 842.151,1240.69 844.35,1239.1 846.549,1237.5 848.748,1235.88 850.946,1234.25 853.145,1315.45 855.344,1314.61 857.543,1313.77 859.742,1312.92 861.941,1312.06 864.139,1311.19 866.338,1310.32 868.537,1309.43 870.736,1308.54 872.935,1307.64 875.134,1306.72 877.333,1305.8 879.531,1304.87 881.73,1303.93 883.929,1302.98 886.128,1302.02 888.327,1301.06 890.526,1300.08 892.724,1299.09 894.923,1298.09 897.122,1297.08 899.321,1296.06 901.52,1295.04 903.719,1294 905.917,1292.95 908.116,1291.89 910.315,1290.82 912.514,1289.74 914.713,1288.64 916.912,1287.54 919.111,1286.43 921.309,1285.3 923.508,1284.17 925.707,1283.02 927.906,1281.86 930.105,1280.69 932.304,1279.5 934.502,1278.31 936.701,1277.1 938.9,1275.88 941.099,1274.65 943.298,1273.41 945.497,1272.15 947.695,1270.88 949.894,1269.6 952.093,1268.3 954.292,1267 956.491,1265.68 958.69,1264.34 960.889,1262.99 963.087,1261.63 965.286,1260.26 967.485,1258.87 969.684,1257.47 971.883,1256.05 974.082,1326.46 976.28,1325.73 978.479,1325 980.678,1324.27 982.877,1323.52 985.076,1322.77 987.275,1322.01 989.473,1321.24 991.672,1320.47 993.871,1319.68 996.07,1318.89 998.269,1318.09 1000.47,1317.29 1002.67,1316.47 1004.87,1315.65 1007.06,1314.82 1009.26,1313.98 1011.46,1313.13 1013.66,1312.27 1015.86,1311.41 1018.06,1310.53 1020.26,1309.65 1022.46,1308.76 1024.65,1307.86 1026.85,1306.95 1029.05,1306.03 1031.25,1305.1 1033.45,1304.16 1035.65,1303.22 1037.85,1302.26 1040.05,1301.29 1042.25,1300.32 1044.44,1299.33 1046.64,1298.34 1048.84,1297.33 1051.04,1296.32 1053.24,1295.29 1055.44,1294.25 1057.64,1293.21 1059.84,1292.15 1062.04,1291.08 1064.23,1290 1066.43,1288.91 1068.63,1287.81 1070.83,1286.7 1073.03,1285.58 1075.23,1284.45 1077.43,1283.3 1079.63,1282.14 1081.82,1280.97 1084.02,1279.79 1086.22,1278.6 1088.42,1277.4 1090.62,1276.18 1092.82,1274.95 1095.02,1273.71 1097.22,1272.46 1099.42,1271.19 1101.61,1269.91 1103.81,1268.62 1106.01,1267.32 1108.21,1266 1110.41,1264.67 1112.61,1263.33 1114.81,1261.97 1117.01,1260.6 1119.21,1259.21 1121.4,1257.81 1123.6,1256.4 1125.8,1254.97 1128,1253.53 1130.2,1252.07 1132.4,1250.6 1134.6,1249.12 1136.8,1247.62 1138.99,1246.1 1141.19,1244.57 1143.39,1243.02 1145.59,1241.46 1147.79,1319.09 1149.99,1318.29 1152.19,1317.49 1154.39,1316.67 1156.59,1315.85 1158.78,1315.02 1160.98,1314.18 1163.18,1313.34 1165.38,1312.48 1167.58,1311.62 1169.78,1310.75 1171.98,1309.87 1174.18,1308.98 1176.38,1308.08 1178.57,1307.17 1180.77,1306.26 1182.97,1305.33 1185.17,1351.34 1187.37,1350.87 1189.57,1350.39 1191.77,1349.91 1193.97,1349.43 1196.16,1348.93 1198.36,1348.44 1200.56,1347.94 1202.76,1347.43 1204.96,1346.92 1207.16,1346.4 1209.36,1345.88 1211.56,1345.35 1213.76,1371.56 1215.95,1371.29 1218.15,1371.02 1220.35,1370.74 1222.55,1370.46 1224.75,1384.24 1226.95,1384.1 1229.15,1383.95 1231.35,1383.81 1233.55,1383.66 1235.74,1383.52 1237.94,1383.37 1240.14,1383.22 1242.34,1383.07 1244.54,1382.91 1246.74,1382.76 1248.94,1382.6 1251.14,1382.44 1253.33,1382.29 1255.53,1382.12 1257.73,1381.96 1259.93,1381.8 1262.13,1381.63 1264.33,1381.46 1266.53,1381.29 1268.73,1381.12 1270.93,1380.95 1273.12,1380.78 1275.32,1380.6 1277.52,1380.42 1279.72,1380.24 1281.92,1380.06 1284.12,1379.88 1286.32,1379.69 1288.52,1379.5 1290.71,1379.32 1292.91,1379.12 1295.11,1378.93 1297.31,1378.74 1299.51,1378.54 1301.71,1378.34 1303.91,1378.14 1306.11,1377.94 1308.31,1377.73 1310.5,1377.53 1312.7,1377.32 1314.9,1377.11 1317.1,1376.89 1319.3,1376.68 1321.5,1376.46 1323.7,1376.24 1325.9,1376.02 1328.1,1375.8 1330.29,1375.57 1332.49,1375.34 1334.69,1375.11 1336.89,1374.88 1339.09,1374.64 1341.29,1374.4 1343.49,1374.16 1345.69,1373.92 1347.88,1373.67 1350.08,1373.43 1352.28,1373.18 1354.48,1372.92 1356.68,1372.67 1358.88,1372.41 1361.08,1372.15 1363.28,1371.89 1365.48,1371.62 1367.67,1371.35 1369.87,1371.08 1372.07,1370.81 1374.27,1370.53 1376.47,1370.25 1378.67,1369.97 1380.87,1369.69 1383.07,1369.4 1385.27,1369.11 1387.46,1368.81 1389.66,1368.52 1391.86,1368.22 1394.06,1367.91 1396.26,1367.61 1398.46,1367.3 1400.66,1366.99 1402.86,1366.67 1405.05,1366.36 1407.25,1366.03 1409.45,1365.71 1411.65,1365.38 1413.85,1365.05 1416.05,1364.72 1418.25,1364.38 1420.45,1364.04 1422.65,1363.69 1424.84,1363.34 1427.04,1362.99 1429.24,1362.64 1431.44,1362.28 1433.64,1361.92 1435.84,1361.55 1438.04,1361.18 1440.24,1360.81 1442.44,1360.43 1444.63,1360.05 1446.83,1359.67 1449.03,1359.28 1451.23,1358.88 1453.43,1358.49 1455.63,1358.09 1457.83,1357.68 1460.03,1357.27 1462.22,1356.86 1464.42,1356.44 1466.62,1356.02 1468.82,1355.6 1471.02,1355.17 1473.22,1354.74 1475.42,1354.3 1477.62,1353.85 1479.82,1353.41 1482.01,1352.96 1484.21,1352.5 1486.41,1352.04 1488.61,1351.57 1490.81,1351.1 1493.01,1350.63 1495.21,1350.15 1497.41,1349.67 1499.6,1349.18 1501.8,1348.68 1504,1348.18 1506.2,1347.68 1508.4,1347.17 1510.6,1346.66 1512.8,1346.14 1515,1345.61 1517.2,1345.08 1519.39,1344.55 1521.59,1344 1523.79,1343.46 1525.99,1342.91 1528.19,1342.35 1530.39,1341.79 1532.59,1341.22 1534.79,1340.64 1536.99,1340.06 1539.18,1339.48 1541.38,1338.89 1543.58,1338.29 1545.78,1337.69 1547.98,1337.08 1550.18,1336.46 1552.38,1335.84 1554.58,1335.21 1556.77,1334.58 1558.97,1333.93 1561.17,1333.29 1563.37,1332.63 1565.57,1331.97 1567.77,1331.31 1569.97,1330.63 1572.17,1329.95 1574.37,1329.26 1576.56,1328.57 1578.76,1327.87 1580.96,1327.16 1583.16,1326.44 1585.36,1325.72 1587.56,1324.99 1589.76,1324.25 1591.96,1323.51 1594.16,1322.76 1596.35,1322 1598.55,1321.23 1600.75,1320.45 1602.95,1319.67 1605.15,1318.88 1607.35,1318.08 1609.55,1317.27 1611.75,1316.46 1613.94,1315.63 1616.14,1314.8 1618.34,1313.96 1620.54,1313.11 1622.74,1312.26 1624.94,1311.39 1627.14,1310.52 1629.34,1309.63 1631.54,1308.74 1633.73,1307.84 1635.93,1306.93 1638.13,1306.01 1640.33,1305.08 1642.53,1304.15 1644.73,1303.2 1646.93,1302.24 1649.13,1301.28 1651.33,1300.3 1653.52,1299.31 1655.72,1298.32 1657.92,1297.31 1660.12,1296.3 1662.32,1295.27 1664.52,1294.23 1666.72,1293.19 1668.92,1292.13 1671.11,1291.06 1673.31,1289.98 1675.51,1288.89 1677.71,1287.79 1679.91,1286.68 1682.11,1285.56 1684.31,1284.42 1686.51,1283.28 1688.71,1282.12 1690.9,1280.95 1693.1,1279.77 1695.3,1278.58 1697.5,1277.38 1699.7,1276.16 1701.9,1274.93 1704.1,1273.69 1706.3,1272.44 1708.5,1271.17 1710.69,1269.89 1712.89,1268.6 1715.09,1267.3 1717.29,1265.98 1719.49,1264.65 1721.69,1263.3 1723.89,1261.94 1726.09,1260.57 1728.28,1259.19 1730.48,1257.79 1732.68,1256.38 1734.88,1254.95 1737.08,1253.51 1739.28,1252.05 1741.48,1250.58 1743.68,1249.09 1745.88,1247.59 1748.07,1246.07 1750.27,1244.54 1752.47,1243 1754.67,1241.43 1756.87,1239.86 1759.07,1238.26 1761.27,1236.65 1763.47,1235.02 1765.66,1233.38 1767.86,1231.72 1770.06,1230.05 1772.26,1228.35 1774.46,1226.64 1776.66,1224.92 1778.86,1223.17 1781.06,1221.41 1783.26,1219.63 1785.45,1217.83 1787.65,1216.02 1789.85,1214.19 1792.05,1212.33 1794.25,1210.46 1796.45,1208.57 1798.65,1206.66 1800.85,1204.74 1803.05,1202.79 1805.24,1200.82 1807.44,1198.84 1809.64,1196.83 1811.84,1194.8 1814.04,1192.76 1816.24,1190.69 1818.44,1188.6 1820.64,1186.49 1822.83,1184.36 1825.03,1182.21 1827.23,1180.03 1829.43,1177.84 1831.63,1175.62 1833.83,1173.38 1836.03,1171.12 1838.23,1168.83 1840.43,1166.52 1842.62,1281.24 1844.82,1280.06 1847.02,1278.87 1849.22,1277.67 1851.42,1276.46 1853.62,1275.23 1855.82,1274 1858.02,1272.75 1860.22,1271.48 1862.41,1270.21 1864.61,1268.92 1866.81,1267.62 1869.01,1266.3 1871.21,1264.97 1873.41,1263.63 1875.61,1262.28 1877.81,1260.91 1880,1259.53 1882.2,1258.13 1884.4,1256.72 1886.6,1255.3 1888.8,1253.86 1891,1252.41 1893.2,1250.94 1895.4,1249.46 1897.6,1247.96 1899.79,1246.45 1901.99,1244.92 1904.19,1243.38 1906.39,1241.82 1908.59,1240.24 1910.79,1318.47 1912.99,1317.67 1915.19,1316.86 1917.39,1316.04 1919.58,1315.21 1921.78,1314.38 1923.98,1313.53 1926.18,1312.68 1928.38,1311.82 1930.58,1310.95 1932.78,1310.07 1934.98,1309.18 1937.17,1308.29 1939.37,1307.38 1941.57,1306.47 1943.77,1305.54 1945.97,1304.61 1948.17,1303.67 1950.37,1302.71 1952.57,1301.75 1954.77,1300.78 1956.96,1299.8 1959.16,1298.81 1961.36,1297.81 1963.56,1296.8 1965.76,1295.78 1967.96,1294.74 1970.16,1293.7 1972.36,1292.65 1974.55,1291.59 1976.75,1290.51 1978.95,1289.43 1981.15,1288.34 1983.35,1287.23 1985.55,1286.11 1987.75,1284.98 1989.95,1283.84 1992.15,1282.69 1994.34,1281.53 1996.54,1280.35 1998.74,1279.17 2000.94,1277.97 2003.14,1276.76 2005.34,1275.54 2007.54,1274.3 2009.74,1273.05 2011.94,1271.79 2014.13,1270.52 2016.33,1269.24 2018.53,1267.94 2020.73,1266.63 2022.93,1265.3 2025.13,1263.96 2027.33,1262.61 2029.53,1261.25 2031.72,1259.87 2033.92,1258.48 2036.12,1257.07 2038.32,1255.65 2040.52,1254.21 2042.72,1252.76 2044.92,1251.3 2047.12,1249.82 2049.32,1248.33 2051.51,1246.82 2053.71,1245.3 2055.91,1243.76 2058.11,1242.2 2060.31,1240.63 2062.51,1239.04 2064.71,1237.44 2066.91,1235.82 2069.11,1234.19 2071.3,1232.54 2073.5,1230.87 2075.7,1229.19 2077.9,1227.49 2080.1,1225.77 2082.3,1224.03 2084.5,1222.28 2086.7,1220.51 2088.89,1218.72 2091.09,1216.91 2093.29,1215.09 2095.49,1213.24 2097.69,1211.38 2099.89,1209.5 2102.09,1207.6 2104.29,1205.69 2106.49,1203.75 2108.68,1201.79 2110.88,1199.81 2113.08,1197.82 2115.28,1195.8 2117.48,1193.76 2119.68,1191.71 2121.88,1189.63 2124.08,1187.53 2126.28,1185.41 2128.47,1183.27 2130.67,1181.1 2132.87,1178.92 2135.07,1176.71 2137.27,1174.48 2139.47,1172.23 2141.67,1169.96 2143.87,1167.66 2146.06,1165.34 2148.26,1162.99 2150.46,1160.63 2152.66,1158.24 2154.86,1155.82 2157.06,1153.38 2159.26,1150.92 2161.46,1148.43 2163.66,1145.92 2165.85,1143.38 2168.05,1140.81 2170.25,1138.22 2172.45,1135.61 2174.65,1132.96 2176.85,1130.29 2179.05,1127.6 2181.25,1124.87 2183.45,1260.21 2185.64,1258.82 2187.84,1257.42 2190.04,1256 2192.24,1254.57 2194.44,1253.12 2196.64,1251.66 2198.84,1250.19 2201.04,1248.7 2203.23,1247.19 2205.43,1245.67 2207.63,1244.13 2209.83,1242.58 2212.03,1241.02 2214.23,1239.44 2216.43,1237.84 2218.63,1236.22 2220.83,1234.59 2223.02,1232.95 2225.22,1231.28 2227.42,1229.6 2229.62,1227.91 2231.82,1226.19 2234.02,1224.46 2236.22,1222.71 2238.42,1220.94 2240.61,1219.16 2242.81,1217.36 2245.01,1215.54 2247.21,1213.7 2249.41,1211.84 2251.61,1209.97 2253.81,1208.07 2256.01,1206.16 2258.21,1204.23 2260.4,1202.27 2262.6,1200.3 2264.8,1198.31 2267,1196.3 2269.2,1194.27 2271.4,1192.21 2273.6,1190.14 2275.8,1188.05 2278,1185.93 2280.19,1183.79 2282.39,1181.64 2284.59,1179.46 2286.79,1177.25 2288.99,1175.03 2291.19,1172.78 2293.39,1170.52 2295.59,1168.22 2297.78,1165.91 2299.98,1163.57 2302.18,1161.21 2304.38,1158.83 2306.58,1156.42 2308.78,1153.98 2310.98,1151.52 2313.18,1149.04 2315.38,1146.53 2317.57,1271.15 2319.77,1269.87 2321.97,1268.58 2324.17,1267.27 2326.37,1265.95 2328.57,1264.62 2330.77,1263.28 2332.97,1261.92 2335.17,1260.55 2337.36,1259.16 2339.56,1257.76 2341.76,1256.35 2343.96,1254.92 2346.16,1253.48 2348.36,1252.02 2350.56,1250.55 2352.76,1249.06 "/>
<path clip-path="url(#clip240)" d="M1970.77 196.789 L2279.53 196.789 L2279.53 93.1086 L1970.77 93.1086  Z" fill="#ffffff" fill-rule="evenodd" fill-opacity="1"/>
<polyline clip-path="url(#clip240)" style="stroke:#000000; stroke-linecap:round; stroke-linejoin:round; stroke-width:4; stroke-opacity:1; fill:none" points="1970.77,196.789 2279.53,196.789 2279.53,93.1086 1970.77,93.1086 1970.77,196.789 "/>
<polyline clip-path="url(#clip240)" style="stroke:#009af9; stroke-linecap:round; stroke-linejoin:round; stroke-width:8; stroke-opacity:1; fill:none" points="1995.18,144.949 2141.62,144.949 "/>
<path clip-path="url(#clip240)" d="M2166.03 151.997 L2166.03 136.303 L2170.29 136.303 L2170.29 151.835 Q2170.29 155.516 2171.72 157.368 Q2173.16 159.196 2176.03 159.196 Q2179.48 159.196 2181.47 156.997 Q2183.48 154.798 2183.48 151.002 L2183.48 136.303 L2187.74 136.303 L2187.74 162.229 L2183.48 162.229 L2183.48 158.247 Q2181.93 160.608 2179.87 161.766 Q2177.84 162.9 2175.13 162.9 Q2170.66 162.9 2168.35 160.122 Q2166.03 157.344 2166.03 151.997 M2176.75 135.678 L2176.75 135.678 Z" fill="#000000" fill-rule="nonzero" fill-opacity="1" /><path clip-path="url(#clip240)" d="M2196.12 126.21 L2205.94 126.21 L2205.94 129.52 L2200.38 129.52 L2200.38 165.168 L2205.94 165.168 L2205.94 168.479 L2196.12 168.479 L2196.12 126.21 Z" fill="#000000" fill-rule="nonzero" fill-opacity="1" /><path clip-path="url(#clip240)" d="M2216.42 158.293 L2224.06 158.293 L2224.06 131.928 L2215.75 133.595 L2215.75 129.335 L2224.02 127.669 L2228.69 127.669 L2228.69 158.293 L2236.33 158.293 L2236.33 162.229 L2216.42 162.229 L2216.42 158.293 Z" fill="#000000" fill-rule="nonzero" fill-opacity="1" /><path clip-path="url(#clip240)" d="M2255.13 126.21 L2255.13 168.479 L2245.31 168.479 L2245.31 165.168 L2250.84 165.168 L2250.84 129.52 L2245.31 129.52 L2245.31 126.21 L2255.13 126.21 Z" fill="#000000" fill-rule="nonzero" fill-opacity="1" /></svg>
