<?xml version="1.0" encoding="utf-8"?>
<svg xmlns="http://www.w3.org/2000/svg" xmlns:xlink="http://www.w3.org/1999/xlink" width="600" height="400" viewBox="0 0 2400 1600">
<defs>
  <clipPath id="clip410">
    <rect x="0" y="0" width="2400" height="1600"/>
  </clipPath>
</defs>
<path clip-path="url(#clip410)" d="M0 1600 L2400 1600 L2400 0 L0 0  Z" fill="#ffffff" fill-rule="evenodd" fill-opacity="1"/>
<defs>
  <clipPath id="clip411">
    <rect x="156" y="47" width="2197" height="1377"/>
  </clipPath>
</defs>
<path clip-path="url(#clip410)" d="M156.598 1423.18 L2352.76 1423.18 L2352.76 47.2441 L156.598 47.2441  Z" fill="#ffffff" fill-rule="evenodd" fill-opacity="1"/>
<polyline clip-path="url(#clip411)" style="stroke:#000000; stroke-linecap:round; stroke-linejoin:round; stroke-width:2; stroke-opacity:0.1; fill:none" points="156.598,1423.18 156.598,47.2441 "/>
<polyline clip-path="url(#clip411)" style="stroke:#000000; stroke-linecap:round; stroke-linejoin:round; stroke-width:2; stroke-opacity:0.1; fill:none" points="595.83,1423.18 595.83,47.2441 "/>
<polyline clip-path="url(#clip411)" style="stroke:#000000; stroke-linecap:round; stroke-linejoin:round; stroke-width:2; stroke-opacity:0.1; fill:none" points="1035.06,1423.18 1035.06,47.2441 "/>
<polyline clip-path="url(#clip411)" style="stroke:#000000; stroke-linecap:round; stroke-linejoin:round; stroke-width:2; stroke-opacity:0.1; fill:none" points="1474.29,1423.18 1474.29,47.2441 "/>
<polyline clip-path="url(#clip411)" style="stroke:#000000; stroke-linecap:round; stroke-linejoin:round; stroke-width:2; stroke-opacity:0.1; fill:none" points="1913.52,1423.18 1913.52,47.2441 "/>
<polyline clip-path="url(#clip411)" style="stroke:#000000; stroke-linecap:round; stroke-linejoin:round; stroke-width:2; stroke-opacity:0.1; fill:none" points="2352.76,1423.18 2352.76,47.2441 "/>
<polyline clip-path="url(#clip411)" style="stroke:#000000; stroke-linecap:round; stroke-linejoin:round; stroke-width:2; stroke-opacity:0.1; fill:none" points="156.598,1386.34 2352.76,1386.34 "/>
<polyline clip-path="url(#clip411)" style="stroke:#000000; stroke-linecap:round; stroke-linejoin:round; stroke-width:2; stroke-opacity:0.1; fill:none" points="156.598,1081.8 2352.76,1081.8 "/>
<polyline clip-path="url(#clip411)" style="stroke:#000000; stroke-linecap:round; stroke-linejoin:round; stroke-width:2; stroke-opacity:0.1; fill:none" points="156.598,777.269 2352.76,777.269 "/>
<polyline clip-path="url(#clip411)" style="stroke:#000000; stroke-linecap:round; stroke-linejoin:round; stroke-width:2; stroke-opacity:0.1; fill:none" points="156.598,472.734 2352.76,472.734 "/>
<polyline clip-path="url(#clip411)" style="stroke:#000000; stroke-linecap:round; stroke-linejoin:round; stroke-width:2; stroke-opacity:0.1; fill:none" points="156.598,168.199 2352.76,168.199 "/>
<polyline clip-path="url(#clip410)" style="stroke:#000000; stroke-linecap:round; stroke-linejoin:round; stroke-width:4; stroke-opacity:1; fill:none" points="156.598,1423.18 2352.76,1423.18 "/>
<polyline clip-path="url(#clip410)" style="stroke:#000000; stroke-linecap:round; stroke-linejoin:round; stroke-width:4; stroke-opacity:1; fill:none" points="156.598,1423.18 156.598,1404.28 "/>
<polyline clip-path="url(#clip410)" style="stroke:#000000; stroke-linecap:round; stroke-linejoin:round; stroke-width:4; stroke-opacity:1; fill:none" points="595.83,1423.18 595.83,1404.28 "/>
<polyline clip-path="url(#clip410)" style="stroke:#000000; stroke-linecap:round; stroke-linejoin:round; stroke-width:4; stroke-opacity:1; fill:none" points="1035.06,1423.18 1035.06,1404.28 "/>
<polyline clip-path="url(#clip410)" style="stroke:#000000; stroke-linecap:round; stroke-linejoin:round; stroke-width:4; stroke-opacity:1; fill:none" points="1474.29,1423.18 1474.29,1404.28 "/>
<polyline clip-path="url(#clip410)" style="stroke:#000000; stroke-linecap:round; stroke-linejoin:round; stroke-width:4; stroke-opacity:1; fill:none" points="1913.52,1423.18 1913.52,1404.28 "/>
<polyline clip-path="url(#clip410)" style="stroke:#000000; stroke-linecap:round; stroke-linejoin:round; stroke-width:4; stroke-opacity:1; fill:none" points="2352.76,1423.18 2352.76,1404.28 "/>
<path clip-path="url(#clip410)" d="M156.598 1454.1 Q152.987 1454.1 151.158 1457.66 Q149.353 1461.2 149.353 1468.33 Q149.353 1475.44 151.158 1479.01 Q152.987 1482.55 156.598 1482.55 Q160.232 1482.55 162.038 1479.01 Q163.867 1475.44 163.867 1468.33 Q163.867 1461.2 162.038 1457.66 Q160.232 1454.1 156.598 1454.1 M156.598 1450.39 Q162.408 1450.39 165.464 1455 Q168.543 1459.58 168.543 1468.33 Q168.543 1477.06 165.464 1481.67 Q162.408 1486.25 156.598 1486.25 Q150.788 1486.25 147.709 1481.67 Q144.654 1477.06 144.654 1468.33 Q144.654 1459.58 147.709 1455 Q150.788 1450.39 156.598 1450.39 Z" fill="#000000" fill-rule="nonzero" fill-opacity="1" /><path clip-path="url(#clip410)" d="M590.483 1481.64 L606.802 1481.64 L606.802 1485.58 L584.858 1485.58 L584.858 1481.64 Q587.52 1478.89 592.103 1474.26 Q596.709 1469.61 597.89 1468.27 Q600.135 1465.74 601.015 1464.01 Q601.918 1462.25 601.918 1460.56 Q601.918 1457.8 599.973 1456.07 Q598.052 1454.33 594.95 1454.33 Q592.751 1454.33 590.297 1455.09 Q587.867 1455.86 585.089 1457.41 L585.089 1452.69 Q587.913 1451.55 590.367 1450.97 Q592.821 1450.39 594.858 1450.39 Q600.228 1450.39 603.422 1453.08 Q606.617 1455.77 606.617 1460.26 Q606.617 1462.39 605.807 1464.31 Q605.02 1466.2 602.913 1468.8 Q602.334 1469.47 599.233 1472.69 Q596.131 1475.88 590.483 1481.64 Z" fill="#000000" fill-rule="nonzero" fill-opacity="1" /><path clip-path="url(#clip410)" d="M1038.07 1455.09 L1026.27 1473.54 L1038.07 1473.54 L1038.07 1455.09 M1036.84 1451.02 L1042.72 1451.02 L1042.72 1473.54 L1047.65 1473.54 L1047.65 1477.43 L1042.72 1477.43 L1042.72 1485.58 L1038.07 1485.58 L1038.07 1477.43 L1022.47 1477.43 L1022.47 1472.92 L1036.84 1451.02 Z" fill="#000000" fill-rule="nonzero" fill-opacity="1" /><path clip-path="url(#clip410)" d="M1474.7 1466.44 Q1471.55 1466.44 1469.7 1468.59 Q1467.87 1470.74 1467.87 1474.49 Q1467.87 1478.22 1469.7 1480.39 Q1471.55 1482.55 1474.7 1482.55 Q1477.85 1482.55 1479.67 1480.39 Q1481.53 1478.22 1481.53 1474.49 Q1481.53 1470.74 1479.67 1468.59 Q1477.85 1466.44 1474.7 1466.44 M1483.98 1451.78 L1483.98 1456.04 Q1482.22 1455.21 1480.42 1454.77 Q1478.63 1454.33 1476.87 1454.33 Q1472.24 1454.33 1469.79 1457.45 Q1467.36 1460.58 1467.01 1466.9 Q1468.38 1464.89 1470.44 1463.82 Q1472.5 1462.73 1474.98 1462.73 Q1480.18 1462.73 1483.19 1465.9 Q1486.23 1469.05 1486.23 1474.49 Q1486.23 1479.82 1483.08 1483.03 Q1479.93 1486.25 1474.7 1486.25 Q1468.7 1486.25 1465.53 1481.67 Q1462.36 1477.06 1462.36 1468.33 Q1462.36 1460.14 1466.25 1455.28 Q1470.14 1450.39 1476.69 1450.39 Q1478.45 1450.39 1480.23 1450.74 Q1482.04 1451.09 1483.98 1451.78 Z" fill="#000000" fill-rule="nonzero" fill-opacity="1" /><path clip-path="url(#clip410)" d="M1913.52 1469.17 Q1910.19 1469.17 1908.27 1470.95 Q1906.37 1472.73 1906.37 1475.86 Q1906.37 1478.98 1908.27 1480.77 Q1910.19 1482.55 1913.52 1482.55 Q1916.86 1482.55 1918.78 1480.77 Q1920.7 1478.96 1920.7 1475.86 Q1920.7 1472.73 1918.78 1470.95 Q1916.88 1469.17 1913.52 1469.17 M1908.85 1467.18 Q1905.84 1466.44 1904.15 1464.38 Q1902.48 1462.32 1902.48 1459.35 Q1902.48 1455.21 1905.42 1452.8 Q1908.39 1450.39 1913.52 1450.39 Q1918.69 1450.39 1921.63 1452.8 Q1924.57 1455.21 1924.57 1459.35 Q1924.57 1462.32 1922.88 1464.38 Q1921.21 1466.44 1918.22 1467.18 Q1921.6 1467.96 1923.48 1470.26 Q1925.38 1472.55 1925.38 1475.86 Q1925.38 1480.88 1922.3 1483.57 Q1919.24 1486.25 1913.52 1486.25 Q1907.81 1486.25 1904.73 1483.57 Q1901.67 1480.88 1901.67 1475.86 Q1901.67 1472.55 1903.57 1470.26 Q1905.47 1467.96 1908.85 1467.18 M1907.14 1459.79 Q1907.14 1462.48 1908.8 1463.98 Q1910.49 1465.49 1913.52 1465.49 Q1916.53 1465.49 1918.22 1463.98 Q1919.94 1462.48 1919.94 1459.79 Q1919.94 1457.11 1918.22 1455.6 Q1916.53 1454.1 1913.52 1454.1 Q1910.49 1454.1 1908.8 1455.6 Q1907.14 1457.11 1907.14 1459.79 Z" fill="#000000" fill-rule="nonzero" fill-opacity="1" /><path clip-path="url(#clip410)" d="M2327.44 1481.64 L2335.08 1481.64 L2335.08 1455.28 L2326.77 1456.95 L2326.77 1452.69 L2335.04 1451.02 L2339.71 1451.02 L2339.71 1481.64 L2347.35 1481.64 L2347.35 1485.58 L2327.44 1485.58 L2327.44 1481.64 Z" fill="#000000" fill-rule="nonzero" fill-opacity="1" /><path clip-path="url(#clip410)" d="M2366.8 1454.1 Q2363.18 1454.1 2361.36 1457.66 Q2359.55 1461.2 2359.55 1468.33 Q2359.55 1475.44 2361.36 1479.01 Q2363.18 1482.55 2366.8 1482.55 Q2370.43 1482.55 2372.23 1479.01 Q2374.06 1475.44 2374.06 1468.33 Q2374.06 1461.2 2372.23 1457.66 Q2370.43 1454.1 2366.8 1454.1 M2366.8 1450.39 Q2372.61 1450.39 2375.66 1455 Q2378.74 1459.58 2378.74 1468.33 Q2378.74 1477.06 2375.66 1481.67 Q2372.61 1486.25 2366.8 1486.25 Q2360.99 1486.25 2357.91 1481.67 Q2354.85 1477.06 2354.85 1468.33 Q2354.85 1459.58 2357.91 1455 Q2360.99 1450.39 2366.8 1450.39 Z" fill="#000000" fill-rule="nonzero" fill-opacity="1" /><path clip-path="url(#clip410)" d="M1253.74 1522.27 L1253.74 1532.4 L1265.8 1532.4 L1265.8 1536.95 L1253.74 1536.95 L1253.74 1556.3 Q1253.74 1560.66 1254.92 1561.9 Q1256.13 1563.14 1259.79 1563.14 L1265.8 1563.14 L1265.8 1568.04 L1259.79 1568.04 Q1253.01 1568.04 1250.43 1565.53 Q1247.85 1562.98 1247.85 1556.3 L1247.85 1536.95 L1243.55 1536.95 L1243.55 1532.4 L1247.85 1532.4 L1247.85 1522.27 L1253.74 1522.27 Z" fill="#000000" fill-rule="nonzero" fill-opacity="1" /><polyline clip-path="url(#clip410)" style="stroke:#000000; stroke-linecap:round; stroke-linejoin:round; stroke-width:4; stroke-opacity:1; fill:none" points="156.598,1423.18 156.598,47.2441 "/>
<polyline clip-path="url(#clip410)" style="stroke:#000000; stroke-linecap:round; stroke-linejoin:round; stroke-width:4; stroke-opacity:1; fill:none" points="156.598,1386.34 175.496,1386.34 "/>
<polyline clip-path="url(#clip410)" style="stroke:#000000; stroke-linecap:round; stroke-linejoin:round; stroke-width:4; stroke-opacity:1; fill:none" points="156.598,1081.8 175.496,1081.8 "/>
<polyline clip-path="url(#clip410)" style="stroke:#000000; stroke-linecap:round; stroke-linejoin:round; stroke-width:4; stroke-opacity:1; fill:none" points="156.598,777.269 175.496,777.269 "/>
<polyline clip-path="url(#clip410)" style="stroke:#000000; stroke-linecap:round; stroke-linejoin:round; stroke-width:4; stroke-opacity:1; fill:none" points="156.598,472.734 175.496,472.734 "/>
<polyline clip-path="url(#clip410)" style="stroke:#000000; stroke-linecap:round; stroke-linejoin:round; stroke-width:4; stroke-opacity:1; fill:none" points="156.598,168.199 175.496,168.199 "/>
<path clip-path="url(#clip410)" d="M63.4226 1372.14 Q59.8115 1372.14 57.9828 1375.7 Q56.1773 1379.24 56.1773 1386.37 Q56.1773 1393.48 57.9828 1397.04 Q59.8115 1400.59 63.4226 1400.59 Q67.0569 1400.59 68.8624 1397.04 Q70.6911 1393.48 70.6911 1386.37 Q70.6911 1379.24 68.8624 1375.7 Q67.0569 1372.14 63.4226 1372.14 M63.4226 1368.43 Q69.2328 1368.43 72.2883 1373.04 Q75.367 1377.62 75.367 1386.37 Q75.367 1395.1 72.2883 1399.71 Q69.2328 1404.29 63.4226 1404.29 Q57.6125 1404.29 54.5338 1399.71 Q51.4782 1395.1 51.4782 1386.37 Q51.4782 1377.62 54.5338 1373.04 Q57.6125 1368.43 63.4226 1368.43 Z" fill="#000000" fill-rule="nonzero" fill-opacity="1" /><path clip-path="url(#clip410)" d="M83.5845 1397.74 L88.4688 1397.74 L88.4688 1403.62 L83.5845 1403.62 L83.5845 1397.74 Z" fill="#000000" fill-rule="nonzero" fill-opacity="1" /><path clip-path="url(#clip410)" d="M108.654 1372.14 Q105.043 1372.14 103.214 1375.7 Q101.409 1379.24 101.409 1386.37 Q101.409 1393.48 103.214 1397.04 Q105.043 1400.59 108.654 1400.59 Q112.288 1400.59 114.094 1397.04 Q115.922 1393.48 115.922 1386.37 Q115.922 1379.24 114.094 1375.7 Q112.288 1372.14 108.654 1372.14 M108.654 1368.43 Q114.464 1368.43 117.52 1373.04 Q120.598 1377.62 120.598 1386.37 Q120.598 1395.1 117.52 1399.71 Q114.464 1404.29 108.654 1404.29 Q102.844 1404.29 99.765 1399.71 Q96.7095 1395.1 96.7095 1386.37 Q96.7095 1377.62 99.765 1373.04 Q102.844 1368.43 108.654 1368.43 Z" fill="#000000" fill-rule="nonzero" fill-opacity="1" /><path clip-path="url(#clip410)" d="M65.0198 1067.6 Q61.4087 1067.6 59.58 1071.17 Q57.7745 1074.71 57.7745 1081.84 Q57.7745 1088.95 59.58 1092.51 Q61.4087 1096.05 65.0198 1096.05 Q68.6541 1096.05 70.4596 1092.51 Q72.2883 1088.95 72.2883 1081.84 Q72.2883 1074.71 70.4596 1071.17 Q68.6541 1067.6 65.0198 1067.6 M65.0198 1063.9 Q70.83 1063.9 73.8855 1068.51 Q76.9642 1073.09 76.9642 1081.84 Q76.9642 1090.57 73.8855 1095.17 Q70.83 1099.76 65.0198 1099.76 Q59.2097 1099.76 56.131 1095.17 Q53.0754 1090.57 53.0754 1081.84 Q53.0754 1073.09 56.131 1068.51 Q59.2097 1063.9 65.0198 1063.9 Z" fill="#000000" fill-rule="nonzero" fill-opacity="1" /><path clip-path="url(#clip410)" d="M85.1818 1093.2 L90.066 1093.2 L90.066 1099.08 L85.1818 1099.08 L85.1818 1093.2 Z" fill="#000000" fill-rule="nonzero" fill-opacity="1" /><path clip-path="url(#clip410)" d="M104.279 1095.15 L120.598 1095.15 L120.598 1099.08 L98.6539 1099.08 L98.6539 1095.15 Q101.316 1092.39 105.899 1087.76 Q110.506 1083.11 111.686 1081.77 Q113.932 1079.25 114.811 1077.51 Q115.714 1075.75 115.714 1074.06 Q115.714 1071.31 113.77 1069.57 Q111.848 1067.83 108.746 1067.83 Q106.547 1067.83 104.094 1068.6 Q101.663 1069.36 98.8854 1070.91 L98.8854 1066.19 Q101.709 1065.06 104.163 1064.48 Q106.617 1063.9 108.654 1063.9 Q114.024 1063.9 117.219 1066.58 Q120.413 1069.27 120.413 1073.76 Q120.413 1075.89 119.603 1077.81 Q118.816 1079.71 116.709 1082.3 Q116.131 1082.97 113.029 1086.19 Q109.927 1089.38 104.279 1095.15 Z" fill="#000000" fill-rule="nonzero" fill-opacity="1" /><path clip-path="url(#clip410)" d="M62.9365 763.068 Q59.3254 763.068 57.4967 766.632 Q55.6912 770.174 55.6912 777.304 Q55.6912 784.41 57.4967 787.975 Q59.3254 791.516 62.9365 791.516 Q66.5707 791.516 68.3763 787.975 Q70.205 784.41 70.205 777.304 Q70.205 770.174 68.3763 766.632 Q66.5707 763.068 62.9365 763.068 M62.9365 759.364 Q68.7467 759.364 71.8022 763.97 Q74.8809 768.554 74.8809 777.304 Q74.8809 786.03 71.8022 790.637 Q68.7467 795.22 62.9365 795.22 Q57.1264 795.22 54.0477 790.637 Q50.9921 786.03 50.9921 777.304 Q50.9921 768.554 54.0477 763.97 Q57.1264 759.364 62.9365 759.364 Z" fill="#000000" fill-rule="nonzero" fill-opacity="1" /><path clip-path="url(#clip410)" d="M83.0984 788.669 L87.9827 788.669 L87.9827 794.549 L83.0984 794.549 L83.0984 788.669 Z" fill="#000000" fill-rule="nonzero" fill-opacity="1" /><path clip-path="url(#clip410)" d="M111.015 764.063 L99.2095 782.512 L111.015 782.512 L111.015 764.063 M109.788 759.989 L115.668 759.989 L115.668 782.512 L120.598 782.512 L120.598 786.401 L115.668 786.401 L115.668 794.549 L111.015 794.549 L111.015 786.401 L95.4132 786.401 L95.4132 781.887 L109.788 759.989 Z" fill="#000000" fill-rule="nonzero" fill-opacity="1" /><path clip-path="url(#clip410)" d="M63.2606 458.532 Q59.6495 458.532 57.8208 462.097 Q56.0152 465.639 56.0152 472.769 Q56.0152 479.875 57.8208 483.44 Q59.6495 486.981 63.2606 486.981 Q66.8948 486.981 68.7004 483.44 Q70.5291 479.875 70.5291 472.769 Q70.5291 465.639 68.7004 462.097 Q66.8948 458.532 63.2606 458.532 M63.2606 454.829 Q69.0707 454.829 72.1263 459.435 Q75.205 464.019 75.205 472.769 Q75.205 481.495 72.1263 486.102 Q69.0707 490.685 63.2606 490.685 Q57.4504 490.685 54.3717 486.102 Q51.3162 481.495 51.3162 472.769 Q51.3162 464.019 54.3717 459.435 Q57.4504 454.829 63.2606 454.829 Z" fill="#000000" fill-rule="nonzero" fill-opacity="1" /><path clip-path="url(#clip410)" d="M83.4225 484.134 L88.3067 484.134 L88.3067 490.014 L83.4225 490.014 L83.4225 484.134 Z" fill="#000000" fill-rule="nonzero" fill-opacity="1" /><path clip-path="url(#clip410)" d="M109.071 470.87 Q105.922 470.87 104.071 473.023 Q102.242 475.176 102.242 478.926 Q102.242 482.653 104.071 484.829 Q105.922 486.981 109.071 486.981 Q112.219 486.981 114.047 484.829 Q115.899 482.653 115.899 478.926 Q115.899 475.176 114.047 473.023 Q112.219 470.87 109.071 470.87 M118.353 456.218 L118.353 460.477 Q116.594 459.644 114.788 459.204 Q113.006 458.764 111.246 458.764 Q106.617 458.764 104.163 461.889 Q101.733 465.014 101.385 471.333 Q102.751 469.319 104.811 468.255 Q106.871 467.167 109.348 467.167 Q114.557 467.167 117.566 470.338 Q120.598 473.486 120.598 478.926 Q120.598 484.25 117.45 487.468 Q114.302 490.685 109.071 490.685 Q103.075 490.685 99.9039 486.102 Q96.7326 481.495 96.7326 472.769 Q96.7326 464.574 100.621 459.713 Q104.51 454.829 111.061 454.829 Q112.82 454.829 114.603 455.176 Q116.408 455.523 118.353 456.218 Z" fill="#000000" fill-rule="nonzero" fill-opacity="1" /><path clip-path="url(#clip410)" d="M63.5152 153.997 Q59.9041 153.997 58.0754 157.562 Q56.2699 161.104 56.2699 168.233 Q56.2699 175.34 58.0754 178.905 Q59.9041 182.446 63.5152 182.446 Q67.1494 182.446 68.955 178.905 Q70.7837 175.34 70.7837 168.233 Q70.7837 161.104 68.955 157.562 Q67.1494 153.997 63.5152 153.997 M63.5152 150.294 Q69.3254 150.294 72.3809 154.9 Q75.4596 159.483 75.4596 168.233 Q75.4596 176.96 72.3809 181.567 Q69.3254 186.15 63.5152 186.15 Q57.7051 186.15 54.6264 181.567 Q51.5708 176.96 51.5708 168.233 Q51.5708 159.483 54.6264 154.9 Q57.7051 150.294 63.5152 150.294 Z" fill="#000000" fill-rule="nonzero" fill-opacity="1" /><path clip-path="url(#clip410)" d="M83.6771 179.599 L88.5614 179.599 L88.5614 185.479 L83.6771 185.479 L83.6771 179.599 Z" fill="#000000" fill-rule="nonzero" fill-opacity="1" /><path clip-path="url(#clip410)" d="M108.746 169.067 Q105.413 169.067 103.492 170.849 Q101.594 172.632 101.594 175.757 Q101.594 178.882 103.492 180.664 Q105.413 182.446 108.746 182.446 Q112.08 182.446 114.001 180.664 Q115.922 178.858 115.922 175.757 Q115.922 172.632 114.001 170.849 Q112.103 169.067 108.746 169.067 M104.071 167.076 Q101.061 166.335 99.3715 164.275 Q97.7048 162.215 97.7048 159.252 Q97.7048 155.109 100.645 152.701 Q103.608 150.294 108.746 150.294 Q113.908 150.294 116.848 152.701 Q119.788 155.109 119.788 159.252 Q119.788 162.215 118.098 164.275 Q116.432 166.335 113.445 167.076 Q116.825 167.863 118.7 170.155 Q120.598 172.446 120.598 175.757 Q120.598 180.78 117.52 183.465 Q114.464 186.15 108.746 186.15 Q103.029 186.15 99.9502 183.465 Q96.8947 180.78 96.8947 175.757 Q96.8947 172.446 98.7928 170.155 Q100.691 167.863 104.071 167.076 M102.358 159.692 Q102.358 162.377 104.024 163.882 Q105.714 165.386 108.746 165.386 Q111.756 165.386 113.445 163.882 Q115.158 162.377 115.158 159.692 Q115.158 157.007 113.445 155.502 Q111.756 153.997 108.746 153.997 Q105.714 153.997 104.024 155.502 Q102.358 157.007 102.358 159.692 Z" fill="#000000" fill-rule="nonzero" fill-opacity="1" /><polyline clip-path="url(#clip411)" style="stroke:#009af9; stroke-linecap:round; stroke-linejoin:round; stroke-width:8; stroke-opacity:1; fill:none" points="156.598,1081.8 158.797,1078.74 160.995,1075.65 163.193,1072.52 165.392,1069.36 167.59,1066.17 169.788,1062.95 171.987,1059.7 174.185,1056.41 176.383,1053.09 178.582,1049.74 180.78,1046.36 182.979,1042.94 185.177,1039.48 187.375,1035.99 189.574,1032.47 191.772,1028.91 193.97,1025.31 196.169,1021.68 198.367,1018.01 200.565,1014.3 202.764,1010.56 204.962,1006.78 207.16,1002.96 209.359,999.106 211.557,995.21 213.755,991.276 215.954,987.301 218.152,983.287 220.351,979.232 222.549,975.136 224.747,970.999 226.946,966.821 229.144,962.6 231.342,958.338 233.541,954.032 235.739,949.683 237.937,945.29 240.136,940.853 242.334,936.371 244.532,931.844 246.731,927.272 248.929,922.653 251.128,917.988 253.326,913.277 255.524,908.518 257.723,903.711 259.921,898.855 262.119,893.951 264.318,888.998 266.516,883.994 268.714,878.941 270.913,873.836 273.111,868.68 275.309,863.472 277.508,858.212 279.706,852.899 281.905,847.533 284.103,842.112 286.301,836.637 288.5,831.107 290.698,825.521 292.896,819.879 295.095,814.18 297.293,808.424 299.491,802.61 301.69,796.738 303.888,790.806 306.086,784.815 308.285,778.763 310.483,772.651 312.682,766.477 314.88,760.241 317.078,753.942 319.277,747.58 321.475,741.154 323.673,734.663 325.872,728.107 328.07,721.485 330.268,714.796 332.467,708.04 334.665,701.217 336.863,694.324 339.062,687.362 341.26,680.331 343.458,673.228 345.657,666.054 347.855,658.808 350.054,651.489 352.252,644.096 354.45,636.629 356.649,629.087 358.847,621.469 361.045,613.774 363.244,606.002 365.442,598.152 367.64,590.222 369.839,582.213 372.037,574.123 374.235,565.952 376.434,557.699 378.632,549.362 380.831,540.942 383.029,532.437 385.227,523.846 387.426,515.169 389.624,506.405 391.822,497.552 394.021,488.611 396.219,479.58 398.417,470.457 400.616,461.243 402.814,451.936 405.012,442.536 407.211,433.041 409.409,423.451 411.608,413.764 413.806,403.979 416.004,394.096 418.203,384.114 420.401,374.032 422.599,363.848 424.798,353.561 426.996,343.171 429.194,332.677 431.393,322.077 433.591,311.37 435.789,300.556 437.988,289.632 440.186,278.599 442.385,267.455 444.583,256.199 446.781,244.83 448.98,233.346 451.178,221.746 453.376,210.03 455.575,198.196 457.773,186.243 459.971,174.17 462.17,161.975 464.368,149.657 466.566,137.216 468.765,124.649 470.963,111.956 473.162,99.1353 475.36,86.1857 477.558,729.722 479.757,723.117 481.955,716.444 484.153,709.705 486.352,702.898 488.55,696.022 490.748,689.077 492.947,682.062 495.145,674.977 497.343,667.82 499.542,660.592 501.74,653.291 503.938,645.916 506.137,638.467 508.335,630.944 510.534,623.344 512.732,615.669 514.93,607.916 517.129,600.085 519.327,592.175 521.525,584.186 523.724,576.116 525.922,567.965 528.12,559.733 530.319,551.417 532.517,543.018 534.715,534.534 536.914,525.965 539.112,517.309 541.311,508.567 543.509,499.737 545.707,490.817 547.906,481.808 550.104,472.708 552.302,463.517 554.501,454.233 556.699,444.856 558.897,435.384 561.096,425.817 563.294,416.153 565.492,406.393 567.691,396.534 569.889,386.576 572.088,376.518 574.286,366.358 576.484,356.097 578.683,345.732 580.881,335.263 583.079,324.688 585.278,314.008 587.476,303.22 589.674,292.323 591.873,281.317 594.071,270.2 596.269,822.655 598.468,816.985 600.666,811.257 602.865,805.471 605.063,799.628 607.261,793.725 609.46,787.763 611.658,781.741 613.856,775.659 616.055,769.515 618.253,763.31 620.451,757.042 622.65,750.711 624.848,744.317 627.046,737.858 629.245,731.334 631.443,724.744 633.641,718.088 635.84,711.366 638.038,704.575 640.237,697.716 642.435,690.789 644.633,1035.07 646.832,1031.53 649.03,1027.96 651.228,1024.36 653.427,1020.71 655.625,1017.04 657.823,1013.32 660.022,1009.57 662.22,1005.78 664.418,1001.95 666.617,998.082 668.815,994.177 671.014,990.231 673.212,986.246 675.41,982.221 677.609,978.156 679.807,974.049 682.005,969.902 684.204,965.712 686.402,961.48 688.6,957.206 690.799,952.889 692.997,948.528 695.195,944.124 697.394,939.675 699.592,1160.76 701.791,1158.49 703.989,1156.2 706.187,1153.88 708.386,1151.54 710.584,1149.18 712.782,1146.8 714.981,1144.39 717.179,1141.95 719.377,1139.49 721.576,1137.01 723.774,1134.5 725.972,1131.97 728.171,1129.41 730.369,1126.83 732.568,1124.21 734.766,1121.58 736.964,1118.91 739.163,1116.22 741.361,1113.51 743.559,1110.76 745.758,1107.99 747.956,1105.19 750.154,1102.36 752.353,1099.5 754.551,1096.62 756.749,1093.7 758.948,1090.76 761.146,1087.79 763.344,1084.78 765.543,1081.75 767.741,1078.68 769.94,1075.59 772.138,1072.46 774.336,1069.3 776.535,1066.12 778.733,1062.89 780.931,1059.64 783.13,1056.35 785.328,1053.03 787.526,1049.68 789.725,1046.29 791.923,1042.87 794.121,1039.42 796.32,1035.93 798.518,1032.4 800.717,1028.84 802.915,1025.24 805.113,1021.61 807.312,1017.94 809.51,1014.24 811.708,1010.49 813.907,1006.71 816.105,1002.89 818.303,999.035 820.502,995.139 822.7,991.203 824.898,987.228 827.097,1184.78 829.295,1182.75 831.494,1180.7 833.692,1178.63 835.89,1176.54 838.089,1174.43 840.287,1172.3 842.485,1170.15 844.684,1167.97 846.882,1165.77 849.08,1163.55 851.279,1161.31 853.477,1159.05 855.675,1156.76 857.874,1154.45 860.072,1152.12 862.271,1149.76 864.469,1147.38 866.667,1144.98 868.866,1142.55 871.064,1140.1 873.262,1137.62 875.461,1135.12 877.659,1132.59 879.857,1130.04 882.056,1127.46 884.254,1124.86 886.452,1122.23 888.651,1119.57 890.849,1116.89 893.048,1114.18 895.246,1111.44 897.444,1247.51 899.643,1246.11 901.841,1244.7 904.039,1243.27 906.238,1241.83 908.436,1240.38 910.634,1238.91 912.833,1237.43 915.031,1235.93 917.229,1234.42 919.428,1232.89 921.626,1231.35 923.824,1229.79 926.023,1228.21 928.221,1226.62 930.42,1225.01 932.618,1223.39 934.816,1221.75 937.015,1220.1 939.213,1218.42 941.411,1301.54 943.61,1343.51 945.808,1343.08 948.006,1342.64 950.205,1342.21 952.403,1341.76 954.601,1341.31 956.8,1340.86 958.998,1340.4 961.197,1339.94 963.395,1339.47 965.593,1339 967.792,1338.53 969.99,1338.04 972.188,1337.56 974.387,1337.07 976.585,1336.57 978.783,1336.07 980.982,1335.57 983.18,1335.06 985.378,1334.54 987.577,1334.02 989.775,1333.49 991.974,1332.96 994.172,1332.42 996.37,1331.88 998.569,1331.33 1000.77,1330.78 1002.97,1330.22 1005.16,1329.66 1007.36,1329.09 1009.56,1328.51 1011.76,1327.93 1013.96,1327.34 1016.16,1326.75 1018.35,1326.15 1020.55,1325.54 1022.75,1324.93 1024.95,1324.31 1027.15,1323.69 1029.35,1323.06 1031.54,1322.42 1033.74,1354.06 1035.94,1353.73 1038.14,1353.41 1040.34,1353.07 1042.54,1352.74 1044.73,1369.37 1046.93,1369.2 1049.13,1369.03 1051.33,1368.85 1053.53,1368.68 1055.73,1368.5 1057.92,1368.32 1060.12,1368.14 1062.32,1367.96 1064.52,1367.77 1066.72,1367.58 1068.92,1367.4 1071.11,1367.2 1073.31,1367.01 1075.51,1366.82 1077.71,1366.62 1079.91,1366.42 1082.11,1366.22 1084.3,1366.02 1086.5,1365.82 1088.7,1365.61 1090.9,1365.4 1093.1,1365.19 1095.3,1364.98 1097.49,1364.76 1099.69,1364.55 1101.89,1364.33 1104.09,1364.1 1106.29,1363.88 1108.49,1363.66 1110.68,1363.43 1112.88,1363.2 1115.08,1362.96 1117.28,1362.73 1119.48,1362.49 1121.68,1362.25 1123.87,1362.01 1126.07,1361.76 1128.27,1361.52 1130.47,1361.27 1132.67,1380.01 1134.87,1379.94 1137.07,1379.88 1139.26,1379.81 1141.46,1383.04 1143.66,1383.01 1145.86,1382.98 1148.06,1382.94 1150.26,1382.91 1152.45,1382.88 1154.65,1382.84 1156.85,1382.8 1159.05,1382.77 1161.25,1382.73 1163.45,1382.7 1165.64,1382.66 1167.84,1382.62 1170.04,1382.59 1172.24,1382.55 1174.44,1382.51 1176.64,1382.47 1178.83,1382.43 1181.03,1382.39 1183.23,1382.35 1185.43,1382.31 1187.63,1382.27 1189.83,1382.23 1192.02,1382.19 1194.22,1382.15 1196.42,1382.11 1198.62,1382.06 1200.82,1382.02 1203.02,1381.98 1205.21,1381.93 1207.41,1381.89 1209.61,1381.85 1211.81,1381.8 1214.01,1381.75 1216.21,1381.71 1218.4,1381.66 1220.6,1381.61 1222.8,1381.57 1225,1381.52 1227.2,1381.47 1229.4,1381.42 1231.59,1381.37 1233.79,1381.32 1235.99,1381.27 1238.19,1381.22 1240.39,1381.17 1242.59,1381.12 1244.78,1381.06 1246.98,1381.01 1249.18,1380.96 1251.38,1380.9 1253.58,1380.85 1255.78,1380.79 1257.97,1380.74 1260.17,1380.68 1262.37,1380.63 1264.57,1380.57 1266.77,1380.51 1268.97,1380.45 1271.16,1380.39 1273.36,1380.33 1275.56,1380.27 1277.76,1380.21 1279.96,1380.15 1282.16,1380.09 1284.35,1380.02 1286.55,1379.96 1288.75,1379.9 1290.95,1379.83 1293.15,1379.77 1295.35,1379.7 1297.55,1379.63 1299.74,1379.57 1301.94,1379.5 1304.14,1379.43 1306.34,1379.36 1308.54,1379.29 1310.74,1379.22 1312.93,1379.15 1315.13,1379.07 1317.33,1379 1319.53,1378.93 1321.73,1378.85 1323.93,1378.78 1326.12,1378.7 1328.32,1378.62 1330.52,1378.55 1332.72,1378.47 1334.92,1378.39 1337.12,1378.31 1339.31,1378.23 1341.51,1378.15 1343.71,1378.06 1345.91,1377.98 1348.11,1377.9 1350.31,1377.81 1352.5,1377.73 1354.7,1377.64 1356.9,1377.55 1359.1,1377.46 1361.3,1377.37 1363.5,1377.28 1365.69,1377.19 1367.89,1377.1 1370.09,1377.01 1372.29,1376.91 1374.49,1376.82 1376.69,1376.72 1378.88,1376.63 1381.08,1376.53 1383.28,1376.43 1385.48,1376.33 1387.68,1376.23 1389.88,1376.13 1392.07,1376.03 1394.27,1375.92 1396.47,1375.82 1398.67,1375.71 1400.87,1375.6 1403.07,1375.5 1405.26,1375.39 1407.46,1375.28 1409.66,1375.17 1411.86,1375.05 1414.06,1374.94 1416.26,1374.82 1418.45,1374.71 1420.65,1374.59 1422.85,1374.47 1425.05,1374.35 1427.25,1374.23 1429.45,1374.11 1431.64,1373.99 1433.84,1373.86 1436.04,1373.74 1438.24,1373.61 1440.44,1373.48 1442.64,1373.35 1444.83,1373.22 1447.03,1373.09 1449.23,1372.96 1451.43,1372.82 1453.63,1372.69 1455.83,1372.55 1458.03,1372.41 1460.22,1372.27 1462.42,1372.13 1464.62,1371.99 1466.82,1371.84 1469.02,1371.7 1471.22,1371.55 1473.41,1371.4 1475.61,1371.25 1477.81,1371.1 1480.01,1370.95 1482.21,1370.79 1484.41,1370.63 1486.6,1370.48 1488.8,1370.32 1491,1370.16 1493.2,1369.99 1495.4,1369.83 1497.6,1369.66 1499.79,1369.5 1501.99,1369.33 1504.19,1369.15 1506.39,1368.98 1508.59,1368.81 1510.79,1368.63 1512.98,1368.45 1515.18,1368.27 1517.38,1368.09 1519.58,1367.91 1521.78,1367.72 1523.98,1367.53 1526.17,1367.35 1528.37,1367.15 1530.57,1366.96 1532.77,1366.77 1534.97,1366.57 1537.17,1366.37 1539.36,1366.17 1541.56,1365.97 1543.76,1365.76 1545.96,1365.55 1548.16,1365.35 1550.36,1365.13 1552.55,1364.92 1554.75,1364.71 1556.95,1364.49 1559.15,1364.27 1561.35,1364.05 1563.55,1363.82 1565.74,1363.6 1567.94,1363.37 1570.14,1363.14 1572.34,1362.9 1574.54,1362.67 1576.74,1362.43 1578.93,1362.19 1581.13,1361.94 1583.33,1361.7 1585.53,1361.45 1587.73,1361.2 1589.93,1360.95 1592.12,1360.69 1594.32,1360.43 1596.52,1360.17 1598.72,1359.91 1600.92,1359.64 1603.12,1359.38 1605.31,1359.1 1607.51,1372.58 1609.71,1372.45 1611.91,1372.31 1614.11,1372.17 1616.31,1372.02 1618.5,1371.88 1620.7,1371.73 1622.9,1371.59 1625.1,1371.44 1627.3,1371.29 1629.5,1371.14 1631.7,1370.98 1633.89,1370.83 1636.09,1370.67 1638.29,1370.52 1640.49,1370.36 1642.69,1370.2 1644.89,1370.03 1647.08,1369.87 1649.28,1369.7 1651.48,1369.54 1653.68,1369.37 1655.88,1369.2 1658.08,1369.02 1660.27,1368.85 1662.47,1368.67 1664.67,1368.5 1666.87,1368.32 1669.07,1368.14 1671.27,1367.95 1673.46,1367.77 1675.66,1367.58 1677.86,1367.39 1680.06,1367.2 1682.26,1367.01 1684.46,1366.81 1686.65,1366.62 1688.85,1366.42 1691.05,1366.22 1693.25,1366.02 1695.45,1365.81 1697.65,1365.61 1699.84,1365.4 1702.04,1365.19 1704.24,1364.97 1706.44,1364.76 1708.64,1364.54 1710.84,1364.32 1713.03,1364.1 1715.23,1363.88 1717.43,1363.65 1719.63,1363.42 1721.83,1363.19 1724.03,1362.96 1726.22,1374.53 1728.42,1374.41 1730.62,1374.29 1732.82,1374.17 1735.02,1374.05 1737.22,1373.93 1739.41,1373.8 1741.61,1373.67 1743.81,1373.55 1746.01,1373.42 1748.21,1373.29 1750.41,1373.16 1752.6,1373.02 1754.8,1372.89 1757,1372.76 1759.2,1372.62 1761.4,1372.48 1763.6,1372.34 1765.79,1372.2 1767.99,1372.06 1770.19,1371.91 1772.39,1371.77 1774.59,1371.62 1776.79,1371.47 1778.98,1371.33 1781.18,1371.17 1783.38,1371.02 1785.58,1370.87 1787.78,1370.71 1789.98,1370.55 1792.18,1378.37 1794.37,1378.29 1796.57,1378.21 1798.77,1378.12 1800.97,1378.04 1803.17,1377.96 1805.37,1377.87 1807.56,1377.79 1809.76,1377.7 1811.96,1377.62 1814.16,1377.53 1816.36,1377.44 1818.56,1377.35 1820.75,1377.26 1822.95,1377.17 1825.15,1377.08 1827.35,1376.98 1829.55,1376.89 1831.75,1381.57 1833.94,1381.52 1836.14,1381.47 1838.34,1381.42 1840.54,1381.37 1842.74,1381.32 1844.94,1381.27 1847.13,1381.22 1849.33,1381.17 1851.53,1381.12 1853.73,1381.06 1855.93,1381.01 1858.13,1380.96 1860.32,1380.9 1862.52,1380.85 1864.72,1380.79 1866.92,1380.74 1869.12,1380.68 1871.32,1380.62 1873.51,1380.57 1875.71,1380.51 1877.91,1380.45 1880.11,1380.39 1882.31,1380.33 1884.51,1380.27 1886.7,1380.21 1888.9,1380.15 1891.1,1380.09 1893.3,1380.02 1895.5,1379.96 1897.7,1379.89 1899.89,1379.83 1902.09,1379.76 1904.29,1379.7 1906.49,1379.63 1908.69,1379.56 1910.89,1379.5 1913.08,1379.43 1915.28,1379.36 1917.48,1379.29 1919.68,1379.22 1921.88,1379.14 1924.08,1379.07 1926.27,1379 1928.47,1378.93 1930.67,1378.85 1932.87,1378.78 1935.07,1378.7 1937.27,1378.62 1939.46,1378.54 1941.66,1378.47 1943.86,1378.39 1946.06,1378.31 1948.26,1378.23 1950.46,1378.14 1952.66,1378.06 1954.85,1377.98 1957.05,1377.89 1959.25,1377.81 1961.45,1377.72 1963.65,1377.64 1965.85,1381.94 1968.04,1381.9 1970.24,1381.86 1972.44,1381.81 1974.64,1384.05 1976.84,1384.03 1979.04,1384.01 1981.23,1383.98 1983.43,1383.96 1985.63,1383.93 1987.83,1383.91 1990.03,1383.89 1992.23,1383.86 1994.42,1383.84 1996.62,1383.81 1998.82,1383.79 2001.02,1383.76 2003.22,1383.73 2005.42,1383.71 2007.61,1383.68 2009.81,1383.65 2012.01,1383.63 2014.21,1383.6 2016.41,1383.57 2018.61,1383.54 2020.8,1383.52 2023,1383.49 2025.2,1383.46 2027.4,1383.43 2029.6,1383.4 2031.8,1383.37 2033.99,1383.34 2036.19,1383.31 2038.39,1383.28 2040.59,1383.25 2042.79,1383.22 2044.99,1383.19 2047.18,1383.16 2049.38,1383.12 2051.58,1383.09 2053.78,1383.06 2055.98,1383.03 2058.18,1382.99 2060.37,1382.96 2062.57,1382.93 2064.77,1382.89 2066.97,1382.86 2069.17,1382.82 2071.37,1382.79 2073.56,1382.75 2075.76,1382.71 2077.96,1382.68 2080.16,1382.64 2082.36,1382.6 2084.56,1382.57 2086.75,1382.53 2088.95,1382.49 2091.15,1382.45 2093.35,1382.41 2095.55,1382.37 2097.75,1382.33 2099.94,1382.29 2102.14,1382.25 2104.34,1382.21 2106.54,1382.17 2108.74,1382.13 2110.94,1382.08 2113.14,1382.04 2115.33,1382 2117.53,1381.96 2119.73,1381.91 2121.93,1381.87 2124.13,1381.82 2126.33,1381.78 2128.52,1381.73 2130.72,1381.68 2132.92,1383.99 2135.12,1383.96 2137.32,1383.94 2139.52,1383.92 2141.71,1383.89 2143.91,1383.87 2146.11,1383.84 2148.31,1383.82 2150.51,1383.79 2152.71,1383.77 2154.9,1383.74 2157.1,1383.71 2159.3,1383.69 2161.5,1383.66 2163.7,1383.63 2165.9,1383.61 2168.09,1383.58 2170.29,1383.55 2172.49,1383.52 2174.69,1383.5 2176.89,1383.47 2179.09,1383.44 2181.28,1383.41 2183.48,1383.38 2185.68,1383.35 2187.88,1383.32 2190.08,1383.29 2192.28,1383.26 2194.47,1383.23 2196.67,1383.2 2198.87,1383.16 2201.07,1383.13 2203.27,1383.1 2205.47,1383.07 2207.66,1383.03 2209.86,1383 2212.06,1382.97 2214.26,1382.93 2216.46,1382.9 2218.66,1382.87 2220.85,1382.83 2223.05,1382.79 2225.25,1382.76 2227.45,1382.72 2229.65,1382.69 2231.85,1382.65 2234.04,1382.61 2236.24,1382.58 2238.44,1382.54 2240.64,1382.5 2242.84,1382.46 2245.04,1382.42 2247.23,1382.38 2249.43,1382.34 2251.63,1382.3 2253.83,1382.26 2256.03,1382.22 2258.23,1382.18 2260.42,1384.24 2262.62,1384.22 2264.82,1384.2 2267.02,1384.17 2269.22,1384.15 2271.42,1384.13 2273.62,1384.11 2275.81,1384.09 2278.01,1384.06 2280.21,1384.04 2282.41,1384.02 2284.61,1383.99 2286.81,1383.97 2289,1383.95 2291.2,1383.92 2293.4,1383.9 2295.6,1383.87 2297.8,1383.85 2300,1383.82 2302.19,1383.8 2304.39,1383.77 2306.59,1383.75 2308.79,1383.72 2310.99,1383.69 2313.19,1383.67 2315.38,1383.64 2317.58,1383.61 2319.78,1383.59 2321.98,1383.56 2324.18,1383.53 2326.38,1383.5 2328.57,1383.47 2330.77,1383.45 2332.97,1383.42 2335.17,1383.39 2337.37,1383.36 2339.57,1383.33 2341.76,1383.3 2343.96,1383.27 2346.16,1383.24 2348.36,1383.2 2350.56,1383.17 2352.76,1383.14 "/>
<path clip-path="url(#clip410)" d="M1970.84 196.789 L2279.55 196.789 L2279.55 93.1086 L1970.84 93.1086  Z" fill="#ffffff" fill-rule="evenodd" fill-opacity="1"/>
<polyline clip-path="url(#clip410)" style="stroke:#000000; stroke-linecap:round; stroke-linejoin:round; stroke-width:4; stroke-opacity:1; fill:none" points="1970.84,196.789 2279.55,196.789 2279.55,93.1086 1970.84,93.1086 1970.84,196.789 "/>
<polyline clip-path="url(#clip410)" style="stroke:#009af9; stroke-linecap:round; stroke-linejoin:round; stroke-width:8; stroke-opacity:1; fill:none" points="1995.24,144.949 2141.65,144.949 "/>
<path clip-path="url(#clip410)" d="M2166.05 151.997 L2166.05 136.303 L2170.31 136.303 L2170.31 151.835 Q2170.31 155.516 2171.75 157.368 Q2173.18 159.196 2176.05 159.196 Q2179.5 159.196 2181.49 156.997 Q2183.51 154.798 2183.51 151.002 L2183.51 136.303 L2187.76 136.303 L2187.76 162.229 L2183.51 162.229 L2183.51 158.247 Q2181.95 160.608 2179.89 161.766 Q2177.86 162.9 2175.15 162.9 Q2170.68 162.9 2168.37 160.122 Q2166.05 157.344 2166.05 151.997 M2176.77 135.678 L2176.77 135.678 Z" fill="#000000" fill-rule="nonzero" fill-opacity="1" /><path clip-path="url(#clip410)" d="M2196.14 126.21 L2205.96 126.21 L2205.96 129.52 L2200.4 129.52 L2200.4 165.168 L2205.96 165.168 L2205.96 168.479 L2196.14 168.479 L2196.14 126.21 Z" fill="#000000" fill-rule="nonzero" fill-opacity="1" /><path clip-path="url(#clip410)" d="M2216.45 158.293 L2224.08 158.293 L2224.08 131.928 L2215.77 133.595 L2215.77 129.335 L2224.04 127.669 L2228.71 127.669 L2228.71 158.293 L2236.35 158.293 L2236.35 162.229 L2216.45 162.229 L2216.45 158.293 Z" fill="#000000" fill-rule="nonzero" fill-opacity="1" /><path clip-path="url(#clip410)" d="M2255.15 126.21 L2255.15 168.479 L2245.33 168.479 L2245.33 165.168 L2250.87 165.168 L2250.87 129.52 L2245.33 129.52 L2245.33 126.21 L2255.15 126.21 Z" fill="#000000" fill-rule="nonzero" fill-opacity="1" /></svg>
