<?xml version="1.0" encoding="utf-8"?>
<svg xmlns="http://www.w3.org/2000/svg" xmlns:xlink="http://www.w3.org/1999/xlink" width="600" height="400" viewBox="0 0 2400 1600">
<defs>
  <clipPath id="clip010">
    <rect x="0" y="0" width="2400" height="1600"/>
  </clipPath>
</defs>
<path clip-path="url(#clip010)" d="M0 1600 L2400 1600 L2400 0 L0 0  Z" fill="#ffffff" fill-rule="evenodd" fill-opacity="1"/>
<defs>
  <clipPath id="clip011">
    <rect x="480" y="0" width="1681" height="1600"/>
  </clipPath>
</defs>
<path clip-path="url(#clip010)" d="M138.959 1423.18 L2352.76 1423.18 L2352.76 47.2441 L138.959 47.2441  Z" fill="#ffffff" fill-rule="evenodd" fill-opacity="1"/>
<defs>
  <clipPath id="clip012">
    <rect x="138" y="47" width="2215" height="1377"/>
  </clipPath>
</defs>
<polyline clip-path="url(#clip012)" style="stroke:#000000; stroke-linecap:round; stroke-linejoin:round; stroke-width:2; stroke-opacity:0.1; fill:none" points="138.959,1423.18 138.959,47.2441 "/>
<polyline clip-path="url(#clip012)" style="stroke:#000000; stroke-linecap:round; stroke-linejoin:round; stroke-width:2; stroke-opacity:0.1; fill:none" points="581.719,1423.18 581.719,47.2441 "/>
<polyline clip-path="url(#clip012)" style="stroke:#000000; stroke-linecap:round; stroke-linejoin:round; stroke-width:2; stroke-opacity:0.1; fill:none" points="1024.48,1423.18 1024.48,47.2441 "/>
<polyline clip-path="url(#clip012)" style="stroke:#000000; stroke-linecap:round; stroke-linejoin:round; stroke-width:2; stroke-opacity:0.1; fill:none" points="1467.24,1423.18 1467.24,47.2441 "/>
<polyline clip-path="url(#clip012)" style="stroke:#000000; stroke-linecap:round; stroke-linejoin:round; stroke-width:2; stroke-opacity:0.1; fill:none" points="1910,1423.18 1910,47.2441 "/>
<polyline clip-path="url(#clip012)" style="stroke:#000000; stroke-linecap:round; stroke-linejoin:round; stroke-width:2; stroke-opacity:0.1; fill:none" points="2352.76,1423.18 2352.76,47.2441 "/>
<polyline clip-path="url(#clip012)" style="stroke:#000000; stroke-linecap:round; stroke-linejoin:round; stroke-width:2; stroke-opacity:0.1; fill:none" points="138.959,1384.24 2352.76,1384.24 "/>
<polyline clip-path="url(#clip012)" style="stroke:#000000; stroke-linecap:round; stroke-linejoin:round; stroke-width:2; stroke-opacity:0.1; fill:none" points="138.959,951.554 2352.76,951.554 "/>
<polyline clip-path="url(#clip012)" style="stroke:#000000; stroke-linecap:round; stroke-linejoin:round; stroke-width:2; stroke-opacity:0.1; fill:none" points="138.959,518.87 2352.76,518.87 "/>
<polyline clip-path="url(#clip012)" style="stroke:#000000; stroke-linecap:round; stroke-linejoin:round; stroke-width:2; stroke-opacity:0.1; fill:none" points="138.959,86.1857 2352.76,86.1857 "/>
<polyline clip-path="url(#clip010)" style="stroke:#000000; stroke-linecap:round; stroke-linejoin:round; stroke-width:4; stroke-opacity:1; fill:none" points="138.959,1423.18 2352.76,1423.18 "/>
<polyline clip-path="url(#clip010)" style="stroke:#000000; stroke-linecap:round; stroke-linejoin:round; stroke-width:4; stroke-opacity:1; fill:none" points="138.959,1423.18 138.959,1404.28 "/>
<polyline clip-path="url(#clip010)" style="stroke:#000000; stroke-linecap:round; stroke-linejoin:round; stroke-width:4; stroke-opacity:1; fill:none" points="581.719,1423.18 581.719,1404.28 "/>
<polyline clip-path="url(#clip010)" style="stroke:#000000; stroke-linecap:round; stroke-linejoin:round; stroke-width:4; stroke-opacity:1; fill:none" points="1024.48,1423.18 1024.48,1404.28 "/>
<polyline clip-path="url(#clip010)" style="stroke:#000000; stroke-linecap:round; stroke-linejoin:round; stroke-width:4; stroke-opacity:1; fill:none" points="1467.24,1423.18 1467.24,1404.28 "/>
<polyline clip-path="url(#clip010)" style="stroke:#000000; stroke-linecap:round; stroke-linejoin:round; stroke-width:4; stroke-opacity:1; fill:none" points="1910,1423.18 1910,1404.28 "/>
<polyline clip-path="url(#clip010)" style="stroke:#000000; stroke-linecap:round; stroke-linejoin:round; stroke-width:4; stroke-opacity:1; fill:none" points="2352.76,1423.18 2352.76,1404.28 "/>
<path clip-path="url(#clip010)" d="M138.959 1454.1 Q135.348 1454.1 133.52 1457.66 Q131.714 1461.2 131.714 1468.33 Q131.714 1475.44 133.52 1479.01 Q135.348 1482.55 138.959 1482.55 Q142.594 1482.55 144.399 1479.01 Q146.228 1475.44 146.228 1468.33 Q146.228 1461.2 144.399 1457.66 Q142.594 1454.1 138.959 1454.1 M138.959 1450.39 Q144.77 1450.39 147.825 1455 Q150.904 1459.58 150.904 1468.33 Q150.904 1477.06 147.825 1481.67 Q144.77 1486.25 138.959 1486.25 Q133.149 1486.25 130.071 1481.67 Q127.015 1477.06 127.015 1468.33 Q127.015 1459.58 130.071 1455 Q133.149 1450.39 138.959 1450.39 Z" fill="#000000" fill-rule="nonzero" fill-opacity="1" /><path clip-path="url(#clip010)" d="M576.372 1481.64 L592.691 1481.64 L592.691 1485.58 L570.747 1485.58 L570.747 1481.64 Q573.409 1478.89 577.992 1474.26 Q582.598 1469.61 583.779 1468.27 Q586.024 1465.74 586.904 1464.01 Q587.807 1462.25 587.807 1460.56 Q587.807 1457.8 585.862 1456.07 Q583.941 1454.33 580.839 1454.33 Q578.64 1454.33 576.186 1455.09 Q573.756 1455.86 570.978 1457.41 L570.978 1452.69 Q573.802 1451.55 576.256 1450.97 Q578.709 1450.39 580.747 1450.39 Q586.117 1450.39 589.311 1453.08 Q592.506 1455.77 592.506 1460.26 Q592.506 1462.39 591.696 1464.31 Q590.908 1466.2 588.802 1468.8 Q588.223 1469.47 585.121 1472.69 Q582.02 1475.88 576.372 1481.64 Z" fill="#000000" fill-rule="nonzero" fill-opacity="1" /><path clip-path="url(#clip010)" d="M1027.49 1455.09 L1015.68 1473.54 L1027.49 1473.54 L1027.49 1455.09 M1026.26 1451.02 L1032.14 1451.02 L1032.14 1473.54 L1037.07 1473.54 L1037.07 1477.43 L1032.14 1477.43 L1032.14 1485.58 L1027.49 1485.58 L1027.49 1477.43 L1011.89 1477.43 L1011.89 1472.92 L1026.26 1451.02 Z" fill="#000000" fill-rule="nonzero" fill-opacity="1" /><path clip-path="url(#clip010)" d="M1467.64 1466.44 Q1464.49 1466.44 1462.64 1468.59 Q1460.81 1470.74 1460.81 1474.49 Q1460.81 1478.22 1462.64 1480.39 Q1464.49 1482.55 1467.64 1482.55 Q1470.79 1482.55 1472.62 1480.39 Q1474.47 1478.22 1474.47 1474.49 Q1474.47 1470.74 1472.62 1468.59 Q1470.79 1466.44 1467.64 1466.44 M1476.92 1451.78 L1476.92 1456.04 Q1475.17 1455.21 1473.36 1454.77 Q1471.58 1454.33 1469.82 1454.33 Q1465.19 1454.33 1462.74 1457.45 Q1460.3 1460.58 1459.96 1466.9 Q1461.32 1464.89 1463.38 1463.82 Q1465.44 1462.73 1467.92 1462.73 Q1473.13 1462.73 1476.14 1465.9 Q1479.17 1469.05 1479.17 1474.49 Q1479.17 1479.82 1476.02 1483.03 Q1472.87 1486.25 1467.64 1486.25 Q1461.65 1486.25 1458.48 1481.67 Q1455.3 1477.06 1455.3 1468.33 Q1455.3 1460.14 1459.19 1455.28 Q1463.08 1450.39 1469.63 1450.39 Q1471.39 1450.39 1473.17 1450.74 Q1474.98 1451.09 1476.92 1451.78 Z" fill="#000000" fill-rule="nonzero" fill-opacity="1" /><path clip-path="url(#clip010)" d="M1910 1469.17 Q1906.66 1469.17 1904.74 1470.95 Q1902.84 1472.73 1902.84 1475.86 Q1902.84 1478.98 1904.74 1480.77 Q1906.66 1482.55 1910 1482.55 Q1913.33 1482.55 1915.25 1480.77 Q1917.17 1478.96 1917.17 1475.86 Q1917.17 1472.73 1915.25 1470.95 Q1913.35 1469.17 1910 1469.17 M1905.32 1467.18 Q1902.31 1466.44 1900.62 1464.38 Q1898.96 1462.32 1898.96 1459.35 Q1898.96 1455.21 1901.89 1452.8 Q1904.86 1450.39 1910 1450.39 Q1915.16 1450.39 1918.1 1452.8 Q1921.04 1455.21 1921.04 1459.35 Q1921.04 1462.32 1919.35 1464.38 Q1917.68 1466.44 1914.7 1467.18 Q1918.08 1467.96 1919.95 1470.26 Q1921.85 1472.55 1921.85 1475.86 Q1921.85 1480.88 1918.77 1483.57 Q1915.71 1486.25 1910 1486.25 Q1904.28 1486.25 1901.2 1483.57 Q1898.14 1480.88 1898.14 1475.86 Q1898.14 1472.55 1900.04 1470.26 Q1901.94 1467.96 1905.32 1467.18 M1903.61 1459.79 Q1903.61 1462.48 1905.27 1463.98 Q1906.96 1465.49 1910 1465.49 Q1913.01 1465.49 1914.7 1463.98 Q1916.41 1462.48 1916.41 1459.79 Q1916.41 1457.11 1914.7 1455.6 Q1913.01 1454.1 1910 1454.1 Q1906.96 1454.1 1905.27 1455.6 Q1903.61 1457.11 1903.61 1459.79 Z" fill="#000000" fill-rule="nonzero" fill-opacity="1" /><path clip-path="url(#clip010)" d="M2327.44 1481.64 L2335.08 1481.64 L2335.08 1455.28 L2326.77 1456.95 L2326.77 1452.69 L2335.04 1451.02 L2339.71 1451.02 L2339.71 1481.64 L2347.35 1481.64 L2347.35 1485.58 L2327.44 1485.58 L2327.44 1481.64 Z" fill="#000000" fill-rule="nonzero" fill-opacity="1" /><path clip-path="url(#clip010)" d="M2366.8 1454.1 Q2363.18 1454.1 2361.36 1457.66 Q2359.55 1461.2 2359.55 1468.33 Q2359.55 1475.44 2361.36 1479.01 Q2363.18 1482.55 2366.8 1482.55 Q2370.43 1482.55 2372.23 1479.01 Q2374.06 1475.44 2374.06 1468.33 Q2374.06 1461.2 2372.23 1457.66 Q2370.43 1454.1 2366.8 1454.1 M2366.8 1450.39 Q2372.61 1450.39 2375.66 1455 Q2378.74 1459.58 2378.74 1468.33 Q2378.74 1477.06 2375.66 1481.67 Q2372.61 1486.25 2366.8 1486.25 Q2360.99 1486.25 2357.91 1481.67 Q2354.85 1477.06 2354.85 1468.33 Q2354.85 1459.58 2357.91 1455 Q2360.99 1450.39 2366.8 1450.39 Z" fill="#000000" fill-rule="nonzero" fill-opacity="1" /><path clip-path="url(#clip010)" d="M1244.92 1522.27 L1244.92 1532.4 L1256.98 1532.4 L1256.98 1536.95 L1244.92 1536.95 L1244.92 1556.3 Q1244.92 1560.66 1246.1 1561.9 Q1247.31 1563.14 1250.97 1563.14 L1256.98 1563.14 L1256.98 1568.04 L1250.97 1568.04 Q1244.19 1568.04 1241.61 1565.53 Q1239.03 1562.98 1239.03 1556.3 L1239.03 1536.95 L1234.73 1536.95 L1234.73 1532.4 L1239.03 1532.4 L1239.03 1522.27 L1244.92 1522.27 Z" fill="#000000" fill-rule="nonzero" fill-opacity="1" /><polyline clip-path="url(#clip010)" style="stroke:#000000; stroke-linecap:round; stroke-linejoin:round; stroke-width:4; stroke-opacity:1; fill:none" points="138.959,1423.18 138.959,47.2441 "/>
<polyline clip-path="url(#clip010)" style="stroke:#000000; stroke-linecap:round; stroke-linejoin:round; stroke-width:4; stroke-opacity:1; fill:none" points="138.959,1384.24 157.857,1384.24 "/>
<polyline clip-path="url(#clip010)" style="stroke:#000000; stroke-linecap:round; stroke-linejoin:round; stroke-width:4; stroke-opacity:1; fill:none" points="138.959,951.554 157.857,951.554 "/>
<polyline clip-path="url(#clip010)" style="stroke:#000000; stroke-linecap:round; stroke-linejoin:round; stroke-width:4; stroke-opacity:1; fill:none" points="138.959,518.87 157.857,518.87 "/>
<polyline clip-path="url(#clip010)" style="stroke:#000000; stroke-linecap:round; stroke-linejoin:round; stroke-width:4; stroke-opacity:1; fill:none" points="138.959,86.1857 157.857,86.1857 "/>
<path clip-path="url(#clip010)" d="M91.0151 1370.04 Q87.404 1370.04 85.5753 1373.6 Q83.7697 1377.14 83.7697 1384.27 Q83.7697 1391.38 85.5753 1394.94 Q87.404 1398.49 91.0151 1398.49 Q94.6493 1398.49 96.4548 1394.94 Q98.2835 1391.38 98.2835 1384.27 Q98.2835 1377.14 96.4548 1373.6 Q94.6493 1370.04 91.0151 1370.04 M91.0151 1366.33 Q96.8252 1366.33 99.8808 1370.94 Q102.959 1375.52 102.959 1384.27 Q102.959 1393 99.8808 1397.61 Q96.8252 1402.19 91.0151 1402.19 Q85.2049 1402.19 82.1262 1397.61 Q79.0707 1393 79.0707 1384.27 Q79.0707 1375.52 82.1262 1370.94 Q85.2049 1366.33 91.0151 1366.33 Z" fill="#000000" fill-rule="nonzero" fill-opacity="1" /><path clip-path="url(#clip010)" d="M82.0568 934.274 L100.413 934.274 L100.413 938.209 L86.3392 938.209 L86.3392 946.681 Q87.3577 946.334 88.3762 946.172 Q89.3947 945.987 90.4132 945.987 Q96.2002 945.987 99.5798 949.158 Q102.959 952.33 102.959 957.746 Q102.959 963.325 99.4872 966.427 Q96.015 969.505 89.6956 969.505 Q87.5197 969.505 85.2512 969.135 Q83.0058 968.765 80.5984 968.024 L80.5984 963.325 Q82.6818 964.459 84.904 965.015 Q87.1262 965.57 89.603 965.57 Q93.6076 965.57 95.9456 963.464 Q98.2835 961.357 98.2835 957.746 Q98.2835 954.135 95.9456 952.029 Q93.6076 949.922 89.603 949.922 Q87.728 949.922 85.8531 950.339 Q84.0012 950.755 82.0568 951.635 L82.0568 934.274 Z" fill="#000000" fill-rule="nonzero" fill-opacity="1" /><path clip-path="url(#clip010)" d="M51.6634 532.215 L59.3023 532.215 L59.3023 505.849 L50.9921 507.516 L50.9921 503.257 L59.256 501.59 L63.9319 501.59 L63.9319 532.215 L71.5707 532.215 L71.5707 536.15 L51.6634 536.15 L51.6634 532.215 Z" fill="#000000" fill-rule="nonzero" fill-opacity="1" /><path clip-path="url(#clip010)" d="M91.0151 504.669 Q87.404 504.669 85.5753 508.233 Q83.7697 511.775 83.7697 518.905 Q83.7697 526.011 85.5753 529.576 Q87.404 533.117 91.0151 533.117 Q94.6493 533.117 96.4548 529.576 Q98.2835 526.011 98.2835 518.905 Q98.2835 511.775 96.4548 508.233 Q94.6493 504.669 91.0151 504.669 M91.0151 500.965 Q96.8252 500.965 99.8808 505.571 Q102.959 510.155 102.959 518.905 Q102.959 527.631 99.8808 532.238 Q96.8252 536.821 91.0151 536.821 Q85.2049 536.821 82.1262 532.238 Q79.0707 527.631 79.0707 518.905 Q79.0707 510.155 82.1262 505.571 Q85.2049 500.965 91.0151 500.965 Z" fill="#000000" fill-rule="nonzero" fill-opacity="1" /><path clip-path="url(#clip010)" d="M52.6588 99.5305 L60.2976 99.5305 L60.2976 73.1649 L51.9875 74.8316 L51.9875 70.5723 L60.2513 68.9057 L64.9272 68.9057 L64.9272 99.5305 L72.5661 99.5305 L72.5661 103.466 L52.6588 103.466 L52.6588 99.5305 Z" fill="#000000" fill-rule="nonzero" fill-opacity="1" /><path clip-path="url(#clip010)" d="M82.0568 68.9057 L100.413 68.9057 L100.413 72.8408 L86.3392 72.8408 L86.3392 81.313 Q87.3577 80.9658 88.3762 80.8038 Q89.3947 80.6186 90.4132 80.6186 Q96.2002 80.6186 99.5798 83.7899 Q102.959 86.9611 102.959 92.3778 Q102.959 97.9564 99.4872 101.058 Q96.015 104.137 89.6956 104.137 Q87.5197 104.137 85.2512 103.767 Q83.0058 103.396 80.5984 102.655 L80.5984 97.9564 Q82.6818 99.0907 84.904 99.6462 Q87.1262 100.202 89.603 100.202 Q93.6076 100.202 95.9456 98.0953 Q98.2835 95.9889 98.2835 92.3778 Q98.2835 88.7667 95.9456 86.6602 Q93.6076 84.5537 89.603 84.5537 Q87.728 84.5537 85.8531 84.9704 Q84.0012 85.3871 82.0568 86.2667 L82.0568 68.9057 Z" fill="#000000" fill-rule="nonzero" fill-opacity="1" /><polyline clip-path="url(#clip012)" style="stroke:#009af9; stroke-linecap:round; stroke-linejoin:round; stroke-width:8; stroke-opacity:1; fill:none" points="138.959,1384.24 139.882,1384.24 140.805,1384.24 141.728,1384.24 142.651,1384.24 143.573,1384.24 144.496,1384.24 145.419,1384.24 146.342,1384.24 147.265,1384.24 148.187,1384.24 149.11,1384.24 150.033,1384.24 150.956,1384.24 151.879,1384.24 152.801,1384.24 153.724,1384.24 154.647,1384.24 155.57,1384.24 156.493,1384.24 157.415,1384.24 158.338,1384.24 159.261,1384.24 160.184,1384.24 161.107,1384.24 162.029,1384.24 162.952,1384.24 163.875,1384.24 164.798,1384.24 165.721,1384.24 166.643,1384.24 167.566,1384.24 168.489,1384.24 169.412,1384.24 170.335,1384.24 171.257,1384.24 172.18,1384.24 173.103,1384.24 174.026,1384.24 174.949,1384.24 175.871,1384.24 176.794,1384.24 177.717,1384.24 178.64,1384.24 179.563,1384.24 180.485,1384.24 181.408,1384.24 182.331,1384.24 183.254,1384.24 184.177,1384.24 185.099,1384.24 186.022,1384.24 186.945,1384.24 187.868,1384.24 188.791,1384.24 189.713,1384.24 190.636,1384.24 191.559,1384.24 192.482,1384.24 193.405,1384.24 194.327,1384.24 195.25,1384.24 196.173,1384.24 197.096,1384.24 198.019,1384.24 198.941,1384.24 199.864,1384.24 200.787,1384.24 201.71,1384.24 202.633,1384.24 203.555,1384.24 204.478,1384.24 205.401,1384.24 206.324,1384.24 207.247,1384.24 208.169,1384.24 209.092,1384.24 210.015,1384.24 210.938,1384.24 211.861,1384.24 212.783,1384.24 213.706,1384.24 214.629,1384.24 215.552,1384.24 216.475,1384.24 217.397,1384.24 218.32,1384.24 219.243,1384.24 220.166,1384.24 221.089,1384.24 222.011,1384.24 222.934,1384.24 223.857,1384.24 224.78,1384.24 225.703,1384.24 226.625,1384.24 227.548,1384.24 228.471,1384.24 229.394,1384.24 230.317,1384.24 231.239,1384.24 232.162,1384.24 233.085,1384.24 234.008,1384.24 234.931,1384.24 235.853,1384.24 236.776,1384.24 237.699,1384.24 238.622,1384.24 239.545,1384.24 240.467,1384.24 241.39,1384.24 242.313,1384.24 243.236,1384.24 244.159,1384.24 245.081,1384.24 246.004,1384.24 246.927,1384.24 247.85,1384.24 248.773,1384.24 249.695,1384.24 250.618,1384.24 251.541,1384.24 252.464,1384.24 253.387,1384.24 254.309,1384.24 255.232,1384.24 256.155,1384.24 257.078,1384.24 258.001,1384.24 258.923,1384.24 259.846,1384.24 260.769,1384.24 261.692,1384.24 262.615,1384.24 263.537,1384.24 264.46,1384.24 265.383,1384.24 266.306,1384.24 267.229,1384.24 268.151,1384.24 269.074,1384.24 269.997,1384.24 270.92,1384.24 271.843,1384.24 272.765,1384.24 273.688,1384.24 274.611,1384.24 275.534,1384.24 276.457,1384.24 277.379,1384.24 278.302,1384.24 279.225,1384.24 280.148,1384.24 281.071,1384.24 281.993,1384.24 282.916,1384.24 283.839,1384.24 284.762,1384.24 285.685,1384.24 286.607,1384.24 287.53,1384.24 288.453,1384.24 289.376,1384.24 290.299,1384.24 291.221,1384.24 292.144,1384.24 293.067,1384.24 293.99,1384.24 294.913,1384.24 295.835,1384.24 296.758,1384.24 297.681,1384.24 298.604,1384.24 299.527,1384.24 300.449,1384.24 301.372,1384.24 302.295,1384.24 303.218,1384.24 304.141,1384.24 305.063,1384.24 305.986,1384.24 306.909,1384.24 307.832,1384.24 308.755,1384.24 309.677,1384.24 310.6,1384.24 311.523,1384.24 312.446,1384.24 313.369,1384.24 314.291,1384.24 315.214,1384.24 316.137,1384.24 317.06,1384.24 317.983,1384.24 318.905,1384.24 319.828,1384.24 320.751,1384.24 321.674,1384.24 322.597,1384.24 323.519,1384.24 324.442,1384.24 325.365,1384.24 326.288,1384.24 327.211,1384.24 328.133,1384.24 329.056,1384.24 329.979,1384.24 330.902,1384.24 331.825,1384.24 332.747,1384.24 333.67,1384.24 334.593,1384.24 335.516,1384.24 336.439,1384.24 337.361,1384.24 338.284,1384.24 339.207,1384.24 340.13,1384.24 341.053,1384.24 341.975,1384.24 342.898,1384.24 343.821,1384.24 344.744,1384.24 345.667,1384.24 346.589,1384.24 347.512,1384.24 348.435,1384.24 349.358,1384.24 350.281,1384.24 351.203,1384.24 352.126,1384.24 353.049,1384.24 353.972,1384.24 354.895,1384.24 355.817,1384.24 356.74,1384.24 357.663,1384.24 358.586,1384.24 359.509,1384.24 360.431,1384.24 361.354,1384.24 362.277,1384.24 363.2,1384.24 364.123,1384.24 365.045,1384.24 365.968,1384.24 366.891,1384.24 367.814,1384.24 368.737,1384.24 369.659,1384.24 370.582,1384.24 371.505,1384.24 372.428,1384.24 373.351,1384.24 374.273,1384.24 375.196,1384.24 376.119,1384.24 377.042,1384.24 377.965,1384.24 378.887,1384.24 379.81,1384.24 380.733,1384.24 381.656,1384.24 382.579,1384.24 383.501,1384.24 384.424,1384.24 385.347,1384.24 386.27,1384.24 387.193,1384.24 388.115,1384.24 389.038,1384.24 389.961,1384.24 390.884,1384.24 391.807,1384.24 392.729,1384.24 393.652,1384.24 394.575,1384.24 395.498,1384.24 396.421,1384.24 397.343,1384.24 398.266,1384.24 399.189,1384.24 400.112,1384.24 401.035,1384.24 401.957,1384.24 402.88,1384.24 403.803,1384.24 404.726,1384.24 405.649,1384.24 406.571,1384.24 407.494,1384.24 408.417,1384.24 409.34,1384.24 410.263,1384.24 411.185,1384.24 412.108,1384.24 413.031,1384.24 413.954,1384.24 414.877,1384.24 415.799,1384.24 416.722,1384.24 417.645,1384.24 418.568,1384.24 419.491,1384.24 420.413,1384.24 421.336,1384.24 422.259,1384.24 423.182,1384.24 424.105,1384.24 425.027,1384.24 425.95,1384.24 426.873,1384.24 427.796,1384.24 428.719,1384.24 429.641,1384.24 430.564,1384.24 431.487,1384.24 432.41,1384.24 433.333,1384.24 434.255,1384.24 435.178,1384.24 436.101,1384.24 437.024,1384.24 437.947,1384.24 438.869,1384.24 439.792,1384.24 440.715,1384.24 441.638,1384.24 442.561,1384.24 443.483,1384.24 444.406,1384.24 445.329,1384.24 446.252,1384.24 447.175,1384.24 448.097,1384.24 449.02,1384.24 449.943,1384.24 450.866,1384.24 451.789,1384.24 452.711,1384.24 453.634,1384.24 454.557,1384.24 455.48,1384.24 456.403,1384.24 457.325,1384.24 458.248,1384.24 459.171,1384.24 460.094,1384.24 461.017,1384.24 461.939,1384.24 462.862,1384.24 463.785,1384.24 464.708,1384.24 465.631,1384.24 466.553,1384.24 467.476,1384.24 468.399,1384.24 469.322,1384.24 470.245,1384.24 471.167,1384.24 472.09,1384.24 473.013,1384.24 473.936,1384.24 474.859,1384.24 475.781,1384.24 476.704,1384.24 477.627,1384.24 478.55,1384.24 479.473,1384.24 480.395,1384.24 481.318,1384.24 482.241,1384.24 483.164,1384.24 484.087,1384.24 485.009,1384.24 485.932,1384.24 486.855,1384.24 487.778,1384.24 488.701,1384.24 489.623,1384.24 490.546,1384.24 491.469,1384.24 492.392,1384.24 493.315,1384.24 494.237,1384.24 495.16,1384.24 496.083,1384.24 497.006,1384.24 497.929,1384.24 498.851,1384.24 499.774,1384.24 500.697,1384.24 501.62,1384.24 502.543,1384.24 503.465,1384.24 504.388,1384.24 505.311,1384.24 506.234,1384.24 507.157,1384.24 508.079,1384.24 509.002,1384.24 509.925,1384.24 510.848,1384.24 511.771,1384.24 512.693,1384.24 513.616,1384.24 514.539,1384.24 515.462,1384.24 516.385,1384.24 517.307,1384.24 518.23,1384.24 519.153,1384.24 520.076,1384.24 520.999,1384.24 521.921,1384.24 522.844,1384.24 523.767,1384.24 524.69,1384.24 525.613,1384.24 526.535,1384.24 527.458,1384.24 528.381,1384.24 529.304,1384.24 530.227,1384.24 531.149,1384.24 532.072,1384.24 532.995,1384.24 533.918,1384.24 534.841,1384.24 535.763,1384.24 536.686,1384.24 537.609,1384.24 538.532,1384.24 539.455,1384.24 540.377,1384.24 541.3,1384.24 542.223,1384.24 543.146,1384.24 544.069,1384.24 544.991,1384.24 545.914,1384.24 546.837,1384.24 547.76,1384.24 548.683,1384.24 549.605,1384.24 550.528,1384.24 551.451,1384.24 552.374,1384.24 553.297,1384.24 554.219,1384.24 555.142,1384.24 556.065,1384.24 556.988,1384.24 557.911,1384.24 558.833,1384.24 559.756,1384.24 560.679,1384.24 561.602,1384.24 562.524,1384.24 563.447,1384.24 564.37,1384.24 565.293,1384.24 566.216,1384.24 567.138,1384.24 568.061,1384.24 568.984,1384.24 569.907,1384.24 570.83,1384.24 571.752,1384.24 572.675,1384.24 573.598,1384.24 574.521,1384.24 575.444,1384.24 576.366,1384.24 577.289,1384.24 578.212,1384.24 579.135,1384.24 580.058,1384.24 580.98,1384.24 581.903,1384.24 582.826,1384.24 583.749,1384.24 584.672,1384.24 585.594,1384.24 586.517,1384.24 587.44,1384.24 588.363,1384.24 589.286,1384.24 590.208,1384.24 591.131,1384.24 592.054,1384.24 592.977,1384.24 593.9,1384.24 594.822,1384.24 595.745,1384.24 596.668,1384.24 597.591,1384.24 598.514,1384.24 599.436,1384.24 600.359,1384.24 601.282,1384.24 602.205,1384.24 603.128,1384.24 604.05,1384.24 604.973,1384.24 605.896,1384.24 606.819,1384.24 607.742,1384.24 608.664,1384.24 609.587,1384.24 610.51,1384.24 611.433,1384.24 612.356,1384.24 613.278,1384.24 614.201,1384.24 615.124,1384.24 616.047,1384.24 616.97,1384.24 617.892,1384.24 618.815,1384.24 619.738,1384.24 620.661,1384.24 621.584,1384.24 622.506,1384.24 623.429,1384.24 624.352,1384.24 625.275,1384.24 626.198,1384.24 627.12,1384.24 628.043,1384.24 628.966,1384.24 629.889,1384.24 630.812,1384.24 631.734,1384.24 632.657,1384.24 633.58,1384.24 634.503,1384.24 635.426,1384.24 636.348,1384.24 637.271,1384.24 638.194,1384.24 639.117,1384.24 640.04,1384.24 640.962,1384.24 641.885,1384.24 642.808,1384.24 643.731,1384.24 644.654,1384.24 645.576,1384.24 646.499,1384.24 647.422,1384.24 648.345,1384.24 649.268,1384.24 650.19,1384.24 651.113,1384.24 652.036,1384.24 652.959,1384.24 653.882,1384.24 654.804,1384.24 655.727,1384.24 656.65,1384.24 657.573,1384.24 658.496,1384.24 659.418,1384.24 660.341,1384.24 661.264,1384.24 662.187,1384.24 663.11,1384.24 664.032,1384.24 664.955,1384.24 665.878,1384.24 666.801,1384.24 667.724,1384.24 668.646,1384.24 669.569,1384.24 670.492,1384.24 671.415,1384.24 672.338,1384.24 673.26,1384.24 674.183,1384.24 675.106,1384.24 676.029,1384.24 676.952,1384.24 677.874,1384.24 678.797,1384.24 679.72,1384.24 680.643,1384.24 681.566,1384.24 682.488,1384.24 683.411,1384.24 684.334,1384.24 685.257,1384.24 686.18,1384.24 687.102,1384.24 688.025,1384.24 688.948,1384.24 689.871,1384.24 690.794,1384.24 691.716,1384.24 692.639,1384.24 693.562,1384.24 694.485,1384.24 695.408,1384.24 696.33,1384.24 697.253,1384.24 698.176,1384.24 699.099,1384.24 700.022,1384.24 700.944,1384.24 701.867,1384.24 702.79,1384.24 703.713,1384.24 704.636,1384.24 705.558,1384.24 706.481,1384.24 707.404,1384.24 708.327,1384.24 709.25,1384.24 710.172,1384.24 711.095,1384.24 712.018,1384.24 712.941,1384.24 713.864,1384.24 714.786,1384.24 715.709,1384.24 716.632,1384.24 717.555,1384.24 718.478,1384.24 719.4,1384.24 720.323,1384.24 721.246,1384.24 722.169,1384.24 723.092,1384.24 724.014,1384.24 724.937,1384.24 725.86,1384.24 726.783,1384.24 727.706,1384.24 728.628,1384.24 729.551,1384.24 730.474,1384.24 731.397,1384.24 732.32,1384.24 733.242,1384.24 734.165,1384.24 735.088,1384.24 736.011,1384.24 736.934,1384.24 737.856,1384.24 738.779,1384.24 739.702,1384.24 740.625,1384.24 741.548,1384.24 742.47,1384.24 743.393,1384.24 744.316,1384.24 745.239,1384.24 746.162,1384.24 747.084,1384.24 748.007,1384.24 748.93,1384.24 749.853,1384.24 750.776,1384.24 751.698,1384.24 752.621,1384.24 753.544,1384.24 754.467,1384.24 755.39,1384.24 756.312,1384.24 757.235,1384.24 758.158,1384.24 759.081,1384.24 760.004,1384.24 760.926,1384.24 761.849,1384.24 762.772,1384.24 763.695,1384.24 764.618,1384.24 765.54,1384.24 766.463,1384.24 767.386,1384.24 768.309,1384.24 769.232,1384.24 770.154,1384.24 771.077,1384.24 772,1384.24 772.923,1384.24 773.846,1384.24 774.768,1384.24 775.691,1384.24 776.614,1384.24 777.537,1384.24 778.46,1384.24 779.382,1384.24 780.305,1384.24 781.228,1384.24 782.151,1384.24 783.074,1384.24 783.996,1384.24 784.919,1384.24 785.842,1384.24 786.765,1384.24 787.688,1384.24 788.61,1384.24 789.533,1384.24 790.456,1384.24 791.379,1384.24 792.302,1384.24 793.224,1384.24 794.147,1384.24 795.07,1384.24 795.993,1384.24 796.916,1384.24 797.838,1384.24 798.761,1384.24 799.684,1384.24 800.607,1384.24 801.53,1384.24 802.452,1384.24 803.375,1384.24 804.298,1384.24 805.221,1384.24 806.144,1384.24 807.066,1384.24 807.989,1384.24 808.912,1384.24 809.835,1384.24 810.758,1384.24 811.68,1384.24 812.603,1384.24 813.526,1384.24 814.449,1384.24 815.372,1384.24 816.294,1384.24 817.217,1384.24 818.14,1384.24 819.063,1384.24 819.986,1384.24 820.908,1384.24 821.831,1384.24 822.754,1384.24 823.677,1384.24 824.6,1384.24 825.522,1384.24 826.445,1384.24 827.368,1384.24 828.291,1384.24 829.214,1384.24 830.136,1384.24 831.059,1384.24 831.982,1384.24 832.905,1384.24 833.828,1384.24 834.75,1384.24 835.673,1384.24 836.596,1384.24 837.519,1384.24 838.442,1384.24 839.364,1384.24 840.287,1384.24 841.21,1384.24 842.133,1384.24 843.056,1384.24 843.978,1384.24 844.901,1384.24 845.824,1384.24 846.747,1384.24 847.67,1384.24 848.592,1384.24 849.515,1384.24 850.438,1384.24 851.361,1384.24 852.284,1384.24 853.206,1384.24 854.129,1384.24 855.052,1384.24 855.975,1384.24 856.898,1384.24 857.82,1384.24 858.743,1384.24 859.666,1384.24 860.589,1384.24 861.512,1384.24 862.434,1384.24 863.357,1384.24 864.28,1384.24 865.203,1384.24 866.126,1384.24 867.048,1384.24 867.971,1384.24 868.894,1384.24 869.817,1384.24 870.74,1384.24 871.662,1384.24 872.585,1384.24 873.508,1384.24 874.431,1384.24 875.354,1384.24 876.276,1384.24 877.199,1384.24 878.122,1384.24 879.045,1384.24 879.968,1384.24 880.89,1384.24 881.813,1384.24 882.736,1384.24 883.659,1384.24 884.582,1384.24 885.504,1384.24 886.427,1384.24 887.35,1384.24 888.273,1384.24 889.196,1384.24 890.118,1384.24 891.041,1384.24 891.964,1384.24 892.887,1384.24 893.81,1384.24 894.732,1384.24 895.655,1384.24 896.578,1384.24 897.501,1384.24 898.424,1384.24 899.346,1384.24 900.269,1384.24 901.192,1384.24 902.115,1384.24 903.038,1384.24 903.96,1384.24 904.883,1384.24 905.806,1384.24 906.729,1384.24 907.652,1384.24 908.574,1384.24 909.497,1384.24 910.42,1384.24 911.343,1384.24 912.266,1384.24 913.188,1384.24 914.111,1384.24 915.034,1384.24 915.957,1384.24 916.88,1384.24 917.802,1384.24 918.725,1384.24 919.648,1384.24 920.571,1384.24 921.494,1384.24 922.416,1384.24 923.339,1384.24 924.262,1384.24 925.185,1384.24 926.108,1384.24 927.03,1384.24 927.953,1384.24 928.876,1384.24 929.799,1384.24 930.722,1384.24 931.644,1384.24 932.567,1384.24 933.49,1384.24 934.413,1384.24 935.336,1384.24 936.258,1384.24 937.181,1384.24 938.104,1384.24 939.027,1384.24 939.95,1384.24 940.872,1384.24 941.795,1384.24 942.718,1384.24 943.641,1384.24 944.564,1384.24 945.486,1384.24 946.409,1297.7 947.332,1297.7 948.255,1297.7 949.178,1297.7 950.1,1297.7 951.023,1297.7 951.946,1297.7 952.869,1297.7 953.792,1297.7 954.714,1297.7 955.637,1297.7 956.56,1297.7 957.483,1297.7 958.406,1297.7 959.328,1297.7 960.251,1297.7 961.174,1297.7 962.097,1297.7 963.02,1297.7 963.942,1297.7 964.865,1297.7 965.788,1297.7 966.711,1297.7 967.634,1297.7 968.556,1297.7 969.479,1297.7 970.402,1297.7 971.325,1297.7 972.248,1297.7 973.17,1297.7 974.093,1297.7 975.016,1297.7 975.939,1297.7 976.862,1297.7 977.784,1297.7 978.707,1297.7 979.63,1297.7 980.553,1297.7 981.476,1297.7 982.398,1297.7 983.321,1297.7 984.244,1297.7 985.167,1297.7 986.09,1297.7 987.012,1297.7 987.935,1297.7 988.858,1297.7 989.781,1297.7 990.704,1297.7 991.626,1297.7 992.549,1297.7 993.472,1297.7 994.395,1297.7 995.318,1297.7 996.24,1297.7 997.163,1297.7 998.086,1297.7 999.009,1297.7 999.932,1297.7 1000.85,1297.7 1001.78,1297.7 1002.7,1297.7 1003.62,1297.7 1004.55,1297.7 1005.47,1297.7 1006.39,1297.7 1007.31,1297.7 1008.24,1297.7 1009.16,1297.7 1010.08,1297.7 1011.01,1297.7 1011.93,1297.7 1012.85,1297.7 1013.77,1297.7 1014.7,1297.7 1015.62,1297.7 1016.54,1297.7 1017.46,1297.7 1018.39,1297.7 1019.31,1297.7 1020.23,1297.7 1021.16,1297.7 1022.08,1297.7 1023,1297.7 1023.92,1297.7 1024.85,1297.7 1025.77,1297.7 1026.69,1297.7 1027.62,1297.7 1028.54,1297.7 1029.46,1297.7 1030.38,1297.7 1031.31,1297.7 1032.23,1297.7 1033.15,1297.7 1034.08,1297.7 1035,1297.7 1035.92,1297.7 1036.84,1297.7 1037.77,1297.7 1038.69,1297.7 1039.61,1297.7 1040.53,1297.7 1041.46,1297.7 1042.38,1297.7 1043.3,1297.7 1044.23,1297.7 1045.15,1297.7 1046.07,1297.7 1046.99,1297.7 1047.92,1297.7 1048.84,1297.7 1049.76,1297.7 1050.69,1297.7 1051.61,1297.7 1052.53,1297.7 1053.45,1297.7 1054.38,1211.16 1055.3,1211.16 1056.22,1211.16 1057.15,1211.16 1058.07,1211.16 1058.99,1211.16 1059.91,1211.16 1060.84,1211.16 1061.76,1211.16 1062.68,1211.16 1063.6,1211.16 1064.53,1211.16 1065.45,1211.16 1066.37,1211.16 1067.3,1211.16 1068.22,1211.16 1069.14,1211.16 1070.06,1211.16 1070.99,1211.16 1071.91,1211.16 1072.83,1211.16 1073.76,1211.16 1074.68,1211.16 1075.6,1211.16 1076.52,1211.16 1077.45,1211.16 1078.37,1211.16 1079.29,1211.16 1080.22,1211.16 1081.14,1211.16 1082.06,1211.16 1082.98,1211.16 1083.91,1211.16 1084.83,1211.16 1085.75,1211.16 1086.67,1211.16 1087.6,1211.16 1088.52,1211.16 1089.44,1211.16 1090.37,1211.16 1091.29,1211.16 1092.21,1211.16 1093.13,1211.16 1094.06,1211.16 1094.98,1211.16 1095.9,1211.16 1096.83,1211.16 1097.75,1211.16 1098.67,1211.16 1099.59,1211.16 1100.52,1211.16 1101.44,1211.16 1102.36,1211.16 1103.29,1211.16 1104.21,1211.16 1105.13,1211.16 1106.05,1211.16 1106.98,1211.16 1107.9,1211.16 1108.82,1211.16 1109.74,1211.16 1110.67,1211.16 1111.59,1211.16 1112.51,1211.16 1113.44,1211.16 1114.36,1211.16 1115.28,1211.16 1116.2,1211.16 1117.13,1211.16 1118.05,1211.16 1118.97,1211.16 1119.9,1211.16 1120.82,1211.16 1121.74,1211.16 1122.66,1211.16 1123.59,1211.16 1124.51,1211.16 1125.43,1211.16 1126.36,1211.16 1127.28,1211.16 1128.2,1211.16 1129.12,1211.16 1130.05,1211.16 1130.97,1211.16 1131.89,1211.16 1132.81,1211.16 1133.74,1211.16 1134.66,1211.16 1135.58,1211.16 1136.51,1211.16 1137.43,1211.16 1138.35,1211.16 1139.27,1211.16 1140.2,1211.16 1141.12,1211.16 1142.04,1211.16 1142.97,1211.16 1143.89,1211.16 1144.81,1211.16 1145.73,1211.16 1146.66,1211.16 1147.58,1211.16 1148.5,1211.16 1149.43,1211.16 1150.35,1211.16 1151.27,1211.16 1152.19,1211.16 1153.12,1211.16 1154.04,1211.16 1154.96,1211.16 1155.88,1211.16 1156.81,1211.16 1157.73,1211.16 1158.65,1211.16 1159.58,1211.16 1160.5,1211.16 1161.42,1211.16 1162.34,1211.16 1163.27,1211.16 1164.19,1211.16 1165.11,1211.16 1166.04,1211.16 1166.96,1211.16 1167.88,1211.16 1168.8,1211.16 1169.73,1211.16 1170.65,1211.16 1171.57,1211.16 1172.5,1211.16 1173.42,1211.16 1174.34,1211.16 1175.26,1211.16 1176.19,1211.16 1177.11,1211.16 1178.03,1211.16 1178.95,1211.16 1179.88,1211.16 1180.8,1211.16 1181.72,1211.16 1182.65,1211.16 1183.57,1211.16 1184.49,1211.16 1185.41,1211.16 1186.34,1211.16 1187.26,1211.16 1188.18,1211.16 1189.11,1211.16 1190.03,1211.16 1190.95,1211.16 1191.87,1211.16 1192.8,1211.16 1193.72,1211.16 1194.64,1211.16 1195.57,1211.16 1196.49,1211.16 1197.41,1211.16 1198.33,1211.16 1199.26,1211.16 1200.18,1211.16 1201.1,1211.16 1202.02,1211.16 1202.95,1211.16 1203.87,1211.16 1204.79,1211.16 1205.72,1211.16 1206.64,1211.16 1207.56,1211.16 1208.48,1211.16 1209.41,1211.16 1210.33,1211.16 1211.25,1211.16 1212.18,1211.16 1213.1,1211.16 1214.02,1211.16 1214.94,1211.16 1215.87,1211.16 1216.79,1211.16 1217.71,1211.16 1218.64,1211.16 1219.56,1211.16 1220.48,1211.16 1221.4,1211.16 1222.33,1211.16 1223.25,1211.16 1224.17,1211.16 1225.09,1211.16 1226.02,1211.16 1226.94,1211.16 1227.86,1211.16 1228.79,1211.16 1229.71,1211.16 1230.63,1211.16 1231.55,1211.16 1232.48,1211.16 1233.4,1211.16 1234.32,1211.16 1235.25,1211.16 1236.17,1211.16 1237.09,1211.16 1238.01,1211.16 1238.94,1211.16 1239.86,1211.16 1240.78,1211.16 1241.71,1211.16 1242.63,1211.16 1243.55,1211.16 1244.47,1211.16 1245.4,1211.16 1246.32,1211.16 1247.24,1211.16 1248.16,1211.16 1249.09,1211.16 1250.01,1211.16 1250.93,1211.16 1251.86,1211.16 1252.78,1211.16 1253.7,1211.16 1254.62,1211.16 1255.55,1211.16 1256.47,1211.16 1257.39,1211.16 1258.32,1211.16 1259.24,1211.16 1260.16,1211.16 1261.08,1211.16 1262.01,1211.16 1262.93,1211.16 1263.85,1211.16 1264.78,1211.16 1265.7,1211.16 1266.62,1211.16 1267.54,1211.16 1268.47,1211.16 1269.39,1211.16 1270.31,1211.16 1271.23,1211.16 1272.16,1211.16 1273.08,1211.16 1274,1211.16 1274.93,1211.16 1275.85,1211.16 1276.77,1211.16 1277.69,1211.16 1278.62,1211.16 1279.54,1211.16 1280.46,1211.16 1281.39,1211.16 1282.31,1211.16 1283.23,1211.16 1284.15,1211.16 1285.08,1211.16 1286,1211.16 1286.92,1211.16 1287.85,1211.16 1288.77,1211.16 1289.69,1211.16 1290.61,1211.16 1291.54,1211.16 1292.46,1211.16 1293.38,1211.16 1294.3,1211.16 1295.23,1211.16 1296.15,1211.16 1297.07,1211.16 1298,1211.16 1298.92,1211.16 1299.84,1211.16 1300.76,1211.16 1301.69,1211.16 1302.61,1211.16 1303.53,1211.16 1304.46,1211.16 1305.38,1211.16 1306.3,1211.16 1307.22,1211.16 1308.15,1211.16 1309.07,1211.16 1309.99,1211.16 1310.92,1211.16 1311.84,1211.16 1312.76,1211.16 1313.68,1211.16 1314.61,1211.16 1315.53,1211.16 1316.45,1211.16 1317.37,1211.16 1318.3,1211.16 1319.22,1211.16 1320.14,1211.16 1321.07,1211.16 1321.99,1211.16 1322.91,1211.16 1323.83,1211.16 1324.76,1211.16 1325.68,1211.16 1326.6,1211.16 1327.53,1211.16 1328.45,1211.16 1329.37,1211.16 1330.29,1211.16 1331.22,1211.16 1332.14,1211.16 1333.06,1211.16 1333.99,1211.16 1334.91,1211.16 1335.83,1211.16 1336.75,1211.16 1337.68,1211.16 1338.6,1211.16 1339.52,1211.16 1340.44,1211.16 1341.37,1211.16 1342.29,1211.16 1343.21,1211.16 1344.14,1211.16 1345.06,1211.16 1345.98,1211.16 1346.9,1211.16 1347.83,1211.16 1348.75,1211.16 1349.67,1211.16 1350.6,1211.16 1351.52,1211.16 1352.44,1211.16 1353.36,1211.16 1354.29,1211.16 1355.21,1211.16 1356.13,1211.16 1357.06,1211.16 1357.98,1211.16 1358.9,1211.16 1359.82,1211.16 1360.75,1211.16 1361.67,1211.16 1362.59,1211.16 1363.51,1211.16 1364.44,1211.16 1365.36,1211.16 1366.28,1211.16 1367.21,1211.16 1368.13,1211.16 1369.05,1211.16 1369.97,1211.16 1370.9,1211.16 1371.82,1211.16 1372.74,1211.16 1373.67,1211.16 1374.59,1211.16 1375.51,1211.16 1376.43,1211.16 1377.36,1211.16 1378.28,1211.16 1379.2,1211.16 1380.13,1211.16 1381.05,1211.16 1381.97,1211.16 1382.89,1211.16 1383.82,1211.16 1384.74,1211.16 1385.66,1211.16 1386.58,1211.16 1387.51,1211.16 1388.43,1211.16 1389.35,1211.16 1390.28,1211.16 1391.2,1211.16 1392.12,1211.16 1393.04,1211.16 1393.97,1211.16 1394.89,1211.16 1395.81,1211.16 1396.74,1211.16 1397.66,1211.16 1398.58,1211.16 1399.5,1211.16 1400.43,1124.63 1401.35,1124.63 1402.27,1124.63 1403.2,1124.63 1404.12,1124.63 1405.04,1124.63 1405.96,1124.63 1406.89,1124.63 1407.81,1124.63 1408.73,1124.63 1409.65,1124.63 1410.58,1124.63 1411.5,1124.63 1412.42,1124.63 1413.35,1124.63 1414.27,1124.63 1415.19,1124.63 1416.11,1124.63 1417.04,1124.63 1417.96,1124.63 1418.88,1124.63 1419.81,1124.63 1420.73,1124.63 1421.65,1124.63 1422.57,1124.63 1423.5,1124.63 1424.42,1124.63 1425.34,1124.63 1426.27,1124.63 1427.19,1124.63 1428.11,1124.63 1429.03,1124.63 1429.96,1124.63 1430.88,1124.63 1431.8,1124.63 1432.72,1124.63 1433.65,1124.63 1434.57,1124.63 1435.49,1124.63 1436.42,1124.63 1437.34,1124.63 1438.26,1124.63 1439.18,1124.63 1440.11,1124.63 1441.03,1124.63 1441.95,1124.63 1442.88,1124.63 1443.8,1124.63 1444.72,1124.63 1445.64,1124.63 1446.57,1124.63 1447.49,1124.63 1448.41,1124.63 1449.34,1124.63 1450.26,1124.63 1451.18,1124.63 1452.1,1124.63 1453.03,1124.63 1453.95,1124.63 1454.87,1124.63 1455.79,1124.63 1456.72,1124.63 1457.64,1124.63 1458.56,1124.63 1459.49,1124.63 1460.41,1124.63 1461.33,1124.63 1462.25,1124.63 1463.18,1124.63 1464.1,1124.63 1465.02,1124.63 1465.95,1124.63 1466.87,1124.63 1467.79,1124.63 1468.71,1124.63 1469.64,1124.63 1470.56,1124.63 1471.48,1124.63 1472.4,1124.63 1473.33,1124.63 1474.25,1124.63 1475.17,1124.63 1476.1,1124.63 1477.02,1124.63 1477.94,1124.63 1478.86,1124.63 1479.79,1124.63 1480.71,1124.63 1481.63,1124.63 1482.56,1124.63 1483.48,1124.63 1484.4,1124.63 1485.32,1124.63 1486.25,1124.63 1487.17,1124.63 1488.09,1124.63 1489.02,1124.63 1489.94,1124.63 1490.86,1124.63 1491.78,1124.63 1492.71,1124.63 1493.63,1124.63 1494.55,1124.63 1495.47,1124.63 1496.4,1124.63 1497.32,1124.63 1498.24,1124.63 1499.17,1124.63 1500.09,1124.63 1501.01,1124.63 1501.93,1124.63 1502.86,1124.63 1503.78,1124.63 1504.7,1124.63 1505.63,1038.09 1506.55,1038.09 1507.47,1038.09 1508.39,1038.09 1509.32,1038.09 1510.24,1038.09 1511.16,1038.09 1512.09,1038.09 1513.01,1038.09 1513.93,1038.09 1514.85,1038.09 1515.78,1038.09 1516.7,1038.09 1517.62,1038.09 1518.54,1038.09 1519.47,1038.09 1520.39,1038.09 1521.31,1038.09 1522.24,1038.09 1523.16,1038.09 1524.08,1038.09 1525,1038.09 1525.93,1038.09 1526.85,1038.09 1527.77,1038.09 1528.7,1038.09 1529.62,1038.09 1530.54,1038.09 1531.46,1038.09 1532.39,1038.09 1533.31,1038.09 1534.23,1038.09 1535.16,1038.09 1536.08,1038.09 1537,1038.09 1537.92,1038.09 1538.85,1038.09 1539.77,1038.09 1540.69,1038.09 1541.61,1038.09 1542.54,1038.09 1543.46,1038.09 1544.38,1038.09 1545.31,1038.09 1546.23,1038.09 1547.15,1038.09 1548.07,1038.09 1549,1038.09 1549.92,1038.09 1550.84,1038.09 1551.77,1038.09 1552.69,1038.09 1553.61,1038.09 1554.53,1038.09 1555.46,1038.09 1556.38,1038.09 1557.3,1038.09 1558.23,1038.09 1559.15,1038.09 1560.07,1038.09 1560.99,1038.09 1561.92,1038.09 1562.84,1038.09 1563.76,1038.09 1564.68,1038.09 1565.61,1038.09 1566.53,1038.09 1567.45,1038.09 1568.38,1038.09 1569.3,1038.09 1570.22,1038.09 1571.14,1038.09 1572.07,1038.09 1572.99,1038.09 1573.91,1038.09 1574.84,1038.09 1575.76,1038.09 1576.68,1038.09 1577.6,1038.09 1578.53,1038.09 1579.45,1038.09 1580.37,1038.09 1581.3,1038.09 1582.22,1038.09 1583.14,1038.09 1584.06,1038.09 1584.99,1038.09 1585.91,1038.09 1586.83,1038.09 1587.75,1038.09 1588.68,1038.09 1589.6,1038.09 1590.52,1038.09 1591.45,1038.09 1592.37,1038.09 1593.29,1038.09 1594.21,1038.09 1595.14,1038.09 1596.06,1038.09 1596.98,1038.09 1597.91,1038.09 1598.83,1038.09 1599.75,1038.09 1600.67,1038.09 1601.6,1038.09 1602.52,1038.09 1603.44,1038.09 1604.37,1038.09 1605.29,1038.09 1606.21,1038.09 1607.13,1038.09 1608.06,1038.09 1608.98,1038.09 1609.9,1038.09 1610.82,1038.09 1611.75,1038.09 1612.67,1038.09 1613.59,1038.09 1614.52,1038.09 1615.44,1038.09 1616.36,1038.09 1617.28,1038.09 1618.21,1038.09 1619.13,1038.09 1620.05,1038.09 1620.98,1038.09 1621.9,1038.09 1622.82,1038.09 1623.74,1038.09 1624.67,1038.09 1625.59,1038.09 1626.51,1038.09 1627.44,1038.09 1628.36,1038.09 1629.28,1038.09 1630.2,1038.09 1631.13,1038.09 1632.05,1038.09 1632.97,1038.09 1633.89,1038.09 1634.82,1038.09 1635.74,1038.09 1636.66,1038.09 1637.59,1038.09 1638.51,1038.09 1639.43,1038.09 1640.35,1038.09 1641.28,1038.09 1642.2,1038.09 1643.12,1038.09 1644.05,1038.09 1644.97,1038.09 1645.89,1038.09 1646.81,1038.09 1647.74,1038.09 1648.66,1038.09 1649.58,1038.09 1650.51,1038.09 1651.43,1038.09 1652.35,1038.09 1653.27,1038.09 1654.2,1038.09 1655.12,1038.09 1656.04,1038.09 1656.96,1038.09 1657.89,1038.09 1658.81,1038.09 1659.73,1038.09 1660.66,1038.09 1661.58,1038.09 1662.5,1038.09 1663.42,1038.09 1664.35,1038.09 1665.27,1038.09 1666.19,1038.09 1667.12,1038.09 1668.04,1038.09 1668.96,1038.09 1669.88,1038.09 1670.81,1038.09 1671.73,1038.09 1672.65,1038.09 1673.58,1038.09 1674.5,1038.09 1675.42,1038.09 1676.34,1038.09 1677.27,1038.09 1678.19,1038.09 1679.11,1038.09 1680.03,1038.09 1680.96,1038.09 1681.88,1038.09 1682.8,1038.09 1683.73,1038.09 1684.65,1038.09 1685.57,1038.09 1686.49,1038.09 1687.42,1038.09 1688.34,1038.09 1689.26,1038.09 1690.19,1038.09 1691.11,1038.09 1692.03,1038.09 1692.95,1038.09 1693.88,1038.09 1694.8,1038.09 1695.72,1038.09 1696.65,1038.09 1697.57,1038.09 1698.49,1038.09 1699.41,1038.09 1700.34,1038.09 1701.26,1038.09 1702.18,1038.09 1703.1,1038.09 1704.03,1038.09 1704.95,1038.09 1705.87,1038.09 1706.8,1038.09 1707.72,1038.09 1708.64,1038.09 1709.56,1038.09 1710.49,1038.09 1711.41,1038.09 1712.33,1038.09 1713.26,1038.09 1714.18,1038.09 1715.1,1038.09 1716.02,1038.09 1716.95,1038.09 1717.87,1038.09 1718.79,1038.09 1719.72,1038.09 1720.64,1038.09 1721.56,1038.09 1722.48,1038.09 1723.41,1038.09 1724.33,1038.09 1725.25,1038.09 1726.17,1038.09 1727.1,1038.09 1728.02,1038.09 1728.94,1038.09 1729.87,1038.09 1730.79,1038.09 1731.71,1038.09 1732.63,1038.09 1733.56,1038.09 1734.48,1038.09 1735.4,1038.09 1736.33,1038.09 1737.25,1038.09 1738.17,1038.09 1739.09,1038.09 1740.02,1038.09 1740.94,1038.09 1741.86,1038.09 1742.79,1038.09 1743.71,1038.09 1744.63,1038.09 1745.55,1038.09 1746.48,1038.09 1747.4,1038.09 1748.32,1038.09 1749.24,1038.09 1750.17,1038.09 1751.09,1038.09 1752.01,1038.09 1752.94,1038.09 1753.86,1038.09 1754.78,1038.09 1755.7,1038.09 1756.63,1038.09 1757.55,1038.09 1758.47,1038.09 1759.4,1038.09 1760.32,1038.09 1761.24,1038.09 1762.16,1038.09 1763.09,1038.09 1764.01,1038.09 1764.93,1038.09 1765.86,1038.09 1766.78,1038.09 1767.7,1038.09 1768.62,1038.09 1769.55,1038.09 1770.47,1038.09 1771.39,1038.09 1772.31,1038.09 1773.24,1038.09 1774.16,1038.09 1775.08,1038.09 1776.01,1038.09 1776.93,1038.09 1777.85,1038.09 1778.77,1038.09 1779.7,1038.09 1780.62,1038.09 1781.54,1038.09 1782.47,1038.09 1783.39,1038.09 1784.31,1038.09 1785.23,1038.09 1786.16,1038.09 1787.08,1038.09 1788,1038.09 1788.93,1038.09 1789.85,1038.09 1790.77,1038.09 1791.69,1038.09 1792.62,1038.09 1793.54,1038.09 1794.46,1038.09 1795.38,1038.09 1796.31,1038.09 1797.23,1038.09 1798.15,1038.09 1799.08,1038.09 1800,1038.09 1800.92,1038.09 1801.84,1038.09 1802.77,1038.09 1803.69,1038.09 1804.61,1038.09 1805.54,1038.09 1806.46,1038.09 1807.38,1038.09 1808.3,1038.09 1809.23,1038.09 1810.15,1038.09 1811.07,1038.09 1812,1038.09 1812.92,1038.09 1813.84,1038.09 1814.76,1038.09 1815.69,1038.09 1816.61,1038.09 1817.53,1038.09 1818.45,1038.09 1819.38,1038.09 1820.3,1038.09 1821.22,1038.09 1822.15,1038.09 1823.07,1038.09 1823.99,1038.09 1824.91,1038.09 1825.84,1038.09 1826.76,1038.09 1827.68,1038.09 1828.61,1038.09 1829.53,1038.09 1830.45,1038.09 1831.37,1038.09 1832.3,1038.09 1833.22,1038.09 1834.14,1038.09 1835.07,1038.09 1835.99,1038.09 1836.91,1038.09 1837.83,1038.09 1838.76,1038.09 1839.68,1038.09 1840.6,1038.09 1841.52,1038.09 1842.45,1038.09 1843.37,1038.09 1844.29,1038.09 1845.22,1038.09 1846.14,1038.09 1847.06,1038.09 1847.98,1038.09 1848.91,1038.09 1849.83,1038.09 1850.75,1038.09 1851.68,1038.09 1852.6,1038.09 1853.52,1038.09 1854.44,1038.09 1855.37,1038.09 1856.29,1038.09 1857.21,1038.09 1858.14,1038.09 1859.06,1038.09 1859.98,1038.09 1860.9,1038.09 1861.83,1038.09 1862.75,1038.09 1863.67,1038.09 1864.59,1038.09 1865.52,1038.09 1866.44,1038.09 1867.36,1038.09 1868.29,1038.09 1869.21,1038.09 1870.13,1038.09 1871.05,1038.09 1871.98,1038.09 1872.9,1038.09 1873.82,1038.09 1874.75,1038.09 1875.67,1038.09 1876.59,1038.09 1877.51,1038.09 1878.44,1038.09 1879.36,1038.09 1880.28,1038.09 1881.21,1038.09 1882.13,1038.09 1883.05,1038.09 1883.97,1038.09 1884.9,1038.09 1885.82,1038.09 1886.74,1038.09 1887.66,1038.09 1888.59,1038.09 1889.51,1038.09 1890.43,1038.09 1891.36,1038.09 1892.28,1038.09 1893.2,1038.09 1894.12,1038.09 1895.05,1038.09 1895.97,1038.09 1896.89,1038.09 1897.82,1038.09 1898.74,1038.09 1899.66,1038.09 1900.58,1038.09 1901.51,1038.09 1902.43,1038.09 1903.35,1038.09 1904.28,1038.09 1905.2,1038.09 1906.12,1038.09 1907.04,1038.09 1907.97,1038.09 1908.89,1038.09 1909.81,1038.09 1910.73,1038.09 1911.66,1038.09 1912.58,1038.09 1913.5,1038.09 1914.43,1038.09 1915.35,1038.09 1916.27,1038.09 1917.19,1038.09 1918.12,1038.09 1919.04,1038.09 1919.96,1038.09 1920.89,1038.09 1921.81,1038.09 1922.73,1038.09 1923.65,1038.09 1924.58,1038.09 1925.5,1038.09 1926.42,1038.09 1927.35,1038.09 1928.27,1038.09 1929.19,1038.09 1930.11,1038.09 1931.04,1038.09 1931.96,1038.09 1932.88,1038.09 1933.8,1038.09 1934.73,1038.09 1935.65,1038.09 1936.57,1038.09 1937.5,1038.09 1938.42,1038.09 1939.34,1038.09 1940.26,1038.09 1941.19,1038.09 1942.11,1038.09 1943.03,1038.09 1943.96,1038.09 1944.88,1038.09 1945.8,1038.09 1946.72,1038.09 1947.65,1038.09 1948.57,1038.09 1949.49,1038.09 1950.42,1038.09 1951.34,1038.09 1952.26,1038.09 1953.18,1038.09 1954.11,1038.09 1955.03,1038.09 1955.95,1038.09 1956.87,1038.09 1957.8,1038.09 1958.72,1038.09 1959.64,1038.09 1960.57,1038.09 1961.49,1038.09 1962.41,1038.09 1963.33,1038.09 1964.26,1038.09 1965.18,1038.09 1966.1,1038.09 1967.03,1038.09 1967.95,1038.09 1968.87,1038.09 1969.79,1038.09 1970.72,1038.09 1971.64,1038.09 1972.56,1038.09 1973.49,1038.09 1974.41,1038.09 1975.33,1038.09 1976.25,1038.09 1977.18,1038.09 1978.1,1038.09 1979.02,1038.09 1979.94,1038.09 1980.87,1038.09 1981.79,1038.09 1982.71,1038.09 1983.64,1038.09 1984.56,1038.09 1985.48,1038.09 1986.4,1038.09 1987.33,1038.09 1988.25,1038.09 1989.17,1038.09 1990.1,1038.09 1991.02,1038.09 1991.94,1038.09 1992.86,1038.09 1993.79,1038.09 1994.71,1038.09 1995.63,1038.09 1996.56,1038.09 1997.48,1038.09 1998.4,1038.09 1999.32,1038.09 2000.25,1038.09 2001.17,1038.09 2002.09,1038.09 2003.01,1038.09 2003.94,1038.09 2004.86,1038.09 2005.78,1038.09 2006.71,1038.09 2007.63,1038.09 2008.55,1038.09 2009.47,1038.09 2010.4,1038.09 2011.32,1038.09 2012.24,1038.09 2013.17,1038.09 2014.09,1038.09 2015.01,1038.09 2015.93,1038.09 2016.86,1038.09 2017.78,1038.09 2018.7,1038.09 2019.63,1038.09 2020.55,1038.09 2021.47,1038.09 2022.39,1038.09 2023.32,1038.09 2024.24,1038.09 2025.16,1038.09 2026.08,1038.09 2027.01,1038.09 2027.93,1038.09 2028.85,1038.09 2029.78,1038.09 2030.7,1038.09 2031.62,1038.09 2032.54,1038.09 2033.47,1038.09 2034.39,1038.09 2035.31,1038.09 2036.24,1038.09 2037.16,1038.09 2038.08,1038.09 2039,1038.09 2039.93,1038.09 2040.85,1038.09 2041.77,1038.09 2042.7,1038.09 2043.62,1038.09 2044.54,1038.09 2045.46,1038.09 2046.39,1038.09 2047.31,1038.09 2048.23,1038.09 2049.15,1038.09 2050.08,1038.09 2051,1038.09 2051.92,1038.09 2052.85,1038.09 2053.77,1038.09 2054.69,1038.09 2055.61,1038.09 2056.54,1038.09 2057.46,1038.09 2058.38,1038.09 2059.31,1038.09 2060.23,1038.09 2061.15,1038.09 2062.07,1038.09 2063,1038.09 2063.92,1038.09 2064.84,1038.09 2065.77,1038.09 2066.69,1038.09 2067.61,1038.09 2068.53,1038.09 2069.46,1038.09 2070.38,1038.09 2071.3,1038.09 2072.22,1038.09 2073.15,1038.09 2074.07,1038.09 2074.99,1038.09 2075.92,1038.09 2076.84,1038.09 2077.76,1038.09 2078.68,1038.09 2079.61,1038.09 2080.53,1038.09 2081.45,1038.09 2082.38,1038.09 2083.3,1038.09 2084.22,1038.09 2085.14,1038.09 2086.07,1038.09 2086.99,1038.09 2087.91,1038.09 2088.84,1038.09 2089.76,1038.09 2090.68,1038.09 2091.6,1038.09 2092.53,1038.09 2093.45,1038.09 2094.37,1038.09 2095.29,1038.09 2096.22,1038.09 2097.14,1038.09 2098.06,1038.09 2098.99,1038.09 2099.91,1038.09 2100.83,1038.09 2101.75,1038.09 2102.68,1038.09 2103.6,1038.09 2104.52,1038.09 2105.45,1038.09 2106.37,1038.09 2107.29,1038.09 2108.21,1038.09 2109.14,1038.09 2110.06,1038.09 2110.98,1038.09 2111.91,1038.09 2112.83,1038.09 2113.75,1038.09 2114.67,1038.09 2115.6,1038.09 2116.52,1038.09 2117.44,1038.09 2118.36,1038.09 2119.29,1038.09 2120.21,1038.09 2121.13,1038.09 2122.06,1038.09 2122.98,1038.09 2123.9,1038.09 2124.82,1038.09 2125.75,1038.09 2126.67,1038.09 2127.59,1038.09 2128.52,1038.09 2129.44,1038.09 2130.36,1038.09 2131.28,1038.09 2132.21,1038.09 2133.13,1038.09 2134.05,1038.09 2134.98,1038.09 2135.9,1038.09 2136.82,1038.09 2137.74,1038.09 2138.67,1038.09 2139.59,1038.09 2140.51,1038.09 2141.43,1038.09 2142.36,1038.09 2143.28,1038.09 2144.2,1038.09 2145.13,1038.09 2146.05,1038.09 2146.97,1038.09 2147.89,1038.09 2148.82,1038.09 2149.74,1038.09 2150.66,1038.09 2151.59,1038.09 2152.51,1038.09 2153.43,1038.09 2154.35,1038.09 2155.28,1038.09 2156.2,1038.09 2157.12,1038.09 2158.05,1038.09 2158.97,1038.09 2159.89,1038.09 2160.81,1038.09 2161.74,1038.09 2162.66,1038.09 2163.58,1038.09 2164.5,1038.09 2165.43,1038.09 2166.35,1038.09 2167.27,1038.09 2168.2,1038.09 2169.12,1038.09 2170.04,1038.09 2170.96,1038.09 2171.89,1038.09 2172.81,1038.09 2173.73,1038.09 2174.66,1038.09 2175.58,1038.09 2176.5,1038.09 2177.42,1038.09 2178.35,1038.09 2179.27,1038.09 2180.19,1038.09 2181.12,1038.09 2182.04,1038.09 2182.96,1038.09 2183.88,1038.09 2184.81,1038.09 2185.73,1038.09 2186.65,1038.09 2187.57,1038.09 2188.5,1038.09 2189.42,1038.09 2190.34,1038.09 2191.27,1038.09 2192.19,1038.09 2193.11,1038.09 2194.03,1038.09 2194.96,1038.09 2195.88,1038.09 2196.8,1038.09 2197.73,1038.09 2198.65,1038.09 2199.57,1038.09 2200.49,1038.09 2201.42,1038.09 2202.34,1038.09 2203.26,1038.09 2204.19,1038.09 2205.11,1038.09 2206.03,1038.09 2206.95,1038.09 2207.88,1038.09 2208.8,1038.09 2209.72,1038.09 2210.64,1038.09 2211.57,1038.09 2212.49,1038.09 2213.41,1038.09 2214.34,1038.09 2215.26,1038.09 2216.18,1038.09 2217.1,1038.09 2218.03,1038.09 2218.95,1038.09 2219.87,1038.09 2220.8,1038.09 2221.72,1038.09 2222.64,1038.09 2223.56,1038.09 2224.49,1038.09 2225.41,1038.09 2226.33,1038.09 2227.26,1038.09 2228.18,1038.09 2229.1,1038.09 2230.02,1038.09 2230.95,1038.09 2231.87,1038.09 2232.79,1038.09 2233.71,1038.09 2234.64,1038.09 2235.56,1038.09 2236.48,1038.09 2237.41,1038.09 2238.33,1038.09 2239.25,1038.09 2240.17,1038.09 2241.1,1038.09 2242.02,1038.09 2242.94,1038.09 2243.87,1038.09 2244.79,1038.09 2245.71,1038.09 2246.63,1038.09 2247.56,1038.09 2248.48,1038.09 2249.4,1038.09 2250.33,1038.09 2251.25,1038.09 2252.17,1038.09 2253.09,1038.09 2254.02,1038.09 2254.94,1038.09 2255.86,1038.09 2256.78,1038.09 2257.71,1038.09 2258.63,1038.09 2259.55,1038.09 2260.48,1038.09 2261.4,1038.09 2262.32,1038.09 2263.24,1038.09 2264.17,1038.09 2265.09,951.554 2266.01,951.554 2266.94,951.554 2267.86,951.554 2268.78,951.554 2269.7,951.554 2270.63,951.554 2271.55,951.554 2272.47,951.554 2273.4,865.017 2274.32,865.017 2275.24,865.017 2276.16,865.017 2277.09,865.017 2278.01,865.017 2278.93,865.017 2279.85,865.017 2280.78,865.017 2281.7,865.017 2282.62,778.48 2283.55,778.48 2284.47,778.48 2285.39,778.48 2286.31,778.48 2287.24,778.48 2288.16,778.48 2289.08,778.48 2290.01,778.48 2290.93,778.48 2291.85,778.48 2292.77,778.48 2293.7,778.48 2294.62,778.48 2295.54,778.48 2296.47,778.48 2297.39,778.48 2298.31,778.48 2299.23,778.48 2300.16,778.48 2301.08,778.48 2302,778.48 2302.92,778.48 2303.85,778.48 2304.77,778.48 2305.69,778.48 2306.62,778.48 2307.54,778.48 2308.46,778.48 2309.38,778.48 2310.31,778.48 2311.23,778.48 2312.15,778.48 2313.08,778.48 2314,778.48 2314.92,778.48 2315.84,778.48 2316.77,778.48 2317.69,778.48 2318.61,778.48 2319.54,778.48 2320.46,778.48 2321.38,778.48 2322.3,778.48 2323.23,778.48 2324.15,778.48 2325.07,778.48 2325.99,778.48 2326.92,778.48 2327.84,778.48 2328.76,778.48 2329.69,778.48 2330.61,778.48 2331.53,778.48 2332.45,778.48 2333.38,778.48 2334.3,778.48 2335.22,778.48 2336.15,778.48 2337.07,778.48 2337.99,778.48 2338.91,778.48 2339.84,778.48 2340.76,778.48 2341.68,778.48 2342.61,778.48 2343.53,778.48 2344.45,778.48 2345.37,778.48 2346.3,778.48 2347.22,778.48 2348.14,778.48 2349.06,778.48 2349.99,778.48 2350.91,778.48 2351.83,778.48 2352.76,778.48 "/>
<polyline clip-path="url(#clip012)" style="stroke:#e26f46; stroke-linecap:round; stroke-linejoin:round; stroke-width:8; stroke-opacity:1; fill:none" points="138.959,1384.24 139.882,1384.24 140.805,1384.24 141.728,1384.24 142.651,1384.24 143.573,1384.24 144.496,1384.24 145.419,1384.24 146.342,1384.24 147.265,1384.24 148.187,1384.24 149.11,1384.24 150.033,1384.24 150.956,1384.24 151.879,1384.24 152.801,1384.24 153.724,1384.24 154.647,1297.7 155.57,1297.7 156.493,1297.7 157.415,1297.7 158.338,1297.7 159.261,1297.7 160.184,1297.7 161.107,1297.7 162.029,1297.7 162.952,1297.7 163.875,1297.7 164.798,1297.7 165.721,1297.7 166.643,1297.7 167.566,1297.7 168.489,1297.7 169.412,1297.7 170.335,1297.7 171.257,1297.7 172.18,1297.7 173.103,1297.7 174.026,1297.7 174.949,1297.7 175.871,1297.7 176.794,1297.7 177.717,1297.7 178.64,1297.7 179.563,1297.7 180.485,1297.7 181.408,1297.7 182.331,1297.7 183.254,1297.7 184.177,1297.7 185.099,1297.7 186.022,1297.7 186.945,1297.7 187.868,1297.7 188.791,1297.7 189.713,1297.7 190.636,1297.7 191.559,1297.7 192.482,1297.7 193.405,1297.7 194.327,1297.7 195.25,1297.7 196.173,1297.7 197.096,1297.7 198.019,1297.7 198.941,1297.7 199.864,1297.7 200.787,1297.7 201.71,1297.7 202.633,1297.7 203.555,1297.7 204.478,1297.7 205.401,1297.7 206.324,1297.7 207.247,1297.7 208.169,1297.7 209.092,1297.7 210.015,1297.7 210.938,1297.7 211.861,1297.7 212.783,1297.7 213.706,1297.7 214.629,1297.7 215.552,1297.7 216.475,1297.7 217.397,1297.7 218.32,1297.7 219.243,1297.7 220.166,1297.7 221.089,1297.7 222.011,1297.7 222.934,1297.7 223.857,1297.7 224.78,1297.7 225.703,1297.7 226.625,1297.7 227.548,1297.7 228.471,1297.7 229.394,1297.7 230.317,1297.7 231.239,1297.7 232.162,1297.7 233.085,1297.7 234.008,1297.7 234.931,1297.7 235.853,1297.7 236.776,1297.7 237.699,1297.7 238.622,1297.7 239.545,1297.7 240.467,1297.7 241.39,1297.7 242.313,1297.7 243.236,1297.7 244.159,1297.7 245.081,1297.7 246.004,1297.7 246.927,1297.7 247.85,1297.7 248.773,1297.7 249.695,1297.7 250.618,1297.7 251.541,1297.7 252.464,1297.7 253.387,1297.7 254.309,1297.7 255.232,1297.7 256.155,1297.7 257.078,1297.7 258.001,1297.7 258.923,1297.7 259.846,1297.7 260.769,1297.7 261.692,1297.7 262.615,1297.7 263.537,1297.7 264.46,1297.7 265.383,1297.7 266.306,1297.7 267.229,1297.7 268.151,1297.7 269.074,1297.7 269.997,1297.7 270.92,1211.16 271.843,1211.16 272.765,1211.16 273.688,1211.16 274.611,1211.16 275.534,1211.16 276.457,1211.16 277.379,1211.16 278.302,1211.16 279.225,1211.16 280.148,1211.16 281.071,1211.16 281.993,1211.16 282.916,1211.16 283.839,1211.16 284.762,1211.16 285.685,1211.16 286.607,1211.16 287.53,1211.16 288.453,1211.16 289.376,1211.16 290.299,1211.16 291.221,1211.16 292.144,1211.16 293.067,1211.16 293.99,1211.16 294.913,1211.16 295.835,1211.16 296.758,1211.16 297.681,1211.16 298.604,1211.16 299.527,1211.16 300.449,1211.16 301.372,1211.16 302.295,1211.16 303.218,1211.16 304.141,1211.16 305.063,1211.16 305.986,1211.16 306.909,1211.16 307.832,1211.16 308.755,1211.16 309.677,1211.16 310.6,1211.16 311.523,1211.16 312.446,1211.16 313.369,1124.63 314.291,1124.63 315.214,1124.63 316.137,1124.63 317.06,1124.63 317.983,1124.63 318.905,1124.63 319.828,1124.63 320.751,1124.63 321.674,1124.63 322.597,1124.63 323.519,1124.63 324.442,1124.63 325.365,1124.63 326.288,1124.63 327.211,1124.63 328.133,1124.63 329.056,1124.63 329.979,1124.63 330.902,1124.63 331.825,1124.63 332.747,1124.63 333.67,1124.63 334.593,1124.63 335.516,1124.63 336.439,1124.63 337.361,1124.63 338.284,1124.63 339.207,1124.63 340.13,1124.63 341.053,1124.63 341.975,1124.63 342.898,1124.63 343.821,1124.63 344.744,1124.63 345.667,1124.63 346.589,1124.63 347.512,1124.63 348.435,1124.63 349.358,1124.63 350.281,1124.63 351.203,1124.63 352.126,1124.63 353.049,1124.63 353.972,1124.63 354.895,1124.63 355.817,1124.63 356.74,1124.63 357.663,1038.09 358.586,1038.09 359.509,1038.09 360.431,1038.09 361.354,1038.09 362.277,1038.09 363.2,1038.09 364.123,1038.09 365.045,1038.09 365.968,1038.09 366.891,1038.09 367.814,1038.09 368.737,1038.09 369.659,1038.09 370.582,1038.09 371.505,1038.09 372.428,1038.09 373.351,1038.09 374.273,1038.09 375.196,1038.09 376.119,1038.09 377.042,1038.09 377.965,1038.09 378.887,1038.09 379.81,1038.09 380.733,1038.09 381.656,1038.09 382.579,1038.09 383.501,1038.09 384.424,1038.09 385.347,1038.09 386.27,1038.09 387.193,1038.09 388.115,1038.09 389.038,1038.09 389.961,1038.09 390.884,1038.09 391.807,1038.09 392.729,1038.09 393.652,1038.09 394.575,1038.09 395.498,1038.09 396.421,1038.09 397.343,1038.09 398.266,1038.09 399.189,1038.09 400.112,1038.09 401.035,1038.09 401.957,1038.09 402.88,1038.09 403.803,1038.09 404.726,1038.09 405.649,1038.09 406.571,1038.09 407.494,1038.09 408.417,1038.09 409.34,1038.09 410.263,1038.09 411.185,1038.09 412.108,1038.09 413.031,1038.09 413.954,1038.09 414.877,1038.09 415.799,1038.09 416.722,1038.09 417.645,1038.09 418.568,1038.09 419.491,1038.09 420.413,1038.09 421.336,1038.09 422.259,1038.09 423.182,1038.09 424.105,1038.09 425.027,1038.09 425.95,1038.09 426.873,1038.09 427.796,1038.09 428.719,1038.09 429.641,1038.09 430.564,1038.09 431.487,1038.09 432.41,1038.09 433.333,1038.09 434.255,1038.09 435.178,1038.09 436.101,1038.09 437.024,1038.09 437.947,1038.09 438.869,1038.09 439.792,1038.09 440.715,1038.09 441.638,1038.09 442.561,1038.09 443.483,1038.09 444.406,1038.09 445.329,1038.09 446.252,1038.09 447.175,1038.09 448.097,1038.09 449.02,1038.09 449.943,1038.09 450.866,1038.09 451.789,1038.09 452.711,1038.09 453.634,1038.09 454.557,1038.09 455.48,1038.09 456.403,1038.09 457.325,1038.09 458.248,1038.09 459.171,1038.09 460.094,1038.09 461.017,1038.09 461.939,1038.09 462.862,1038.09 463.785,1038.09 464.708,1038.09 465.631,1038.09 466.553,1038.09 467.476,1038.09 468.399,1038.09 469.322,1038.09 470.245,1038.09 471.167,1038.09 472.09,1038.09 473.013,1038.09 473.936,1038.09 474.859,1038.09 475.781,1038.09 476.704,1038.09 477.627,1038.09 478.55,1038.09 479.473,1038.09 480.395,1038.09 481.318,1038.09 482.241,1038.09 483.164,1038.09 484.087,1038.09 485.009,1038.09 485.932,1038.09 486.855,1038.09 487.778,1038.09 488.701,1038.09 489.623,1038.09 490.546,1038.09 491.469,1038.09 492.392,1038.09 493.315,1038.09 494.237,1038.09 495.16,1038.09 496.083,1038.09 497.006,1038.09 497.929,1038.09 498.851,1038.09 499.774,1038.09 500.697,1038.09 501.62,1038.09 502.543,1038.09 503.465,1038.09 504.388,1038.09 505.311,1038.09 506.234,1038.09 507.157,1038.09 508.079,1038.09 509.002,1038.09 509.925,1038.09 510.848,1038.09 511.771,1038.09 512.693,1038.09 513.616,1038.09 514.539,1038.09 515.462,1038.09 516.385,1038.09 517.307,1038.09 518.23,1038.09 519.153,1038.09 520.076,1038.09 520.999,1038.09 521.921,1038.09 522.844,1038.09 523.767,1038.09 524.69,1038.09 525.613,1038.09 526.535,1038.09 527.458,1038.09 528.381,1038.09 529.304,1038.09 530.227,1038.09 531.149,1038.09 532.072,1038.09 532.995,1038.09 533.918,1038.09 534.841,1038.09 535.763,1038.09 536.686,1038.09 537.609,1038.09 538.532,1038.09 539.455,1038.09 540.377,1038.09 541.3,1038.09 542.223,1038.09 543.146,1038.09 544.069,1038.09 544.991,1038.09 545.914,1038.09 546.837,1038.09 547.76,1038.09 548.683,1038.09 549.605,1038.09 550.528,1038.09 551.451,1038.09 552.374,1038.09 553.297,1038.09 554.219,1038.09 555.142,1038.09 556.065,1038.09 556.988,1038.09 557.911,1038.09 558.833,1038.09 559.756,1038.09 560.679,1038.09 561.602,1038.09 562.524,1038.09 563.447,1038.09 564.37,1038.09 565.293,1038.09 566.216,1038.09 567.138,1038.09 568.061,1038.09 568.984,1038.09 569.907,1038.09 570.83,1038.09 571.752,1038.09 572.675,1038.09 573.598,1038.09 574.521,1038.09 575.444,1038.09 576.366,1038.09 577.289,1038.09 578.212,1038.09 579.135,1038.09 580.058,1038.09 580.98,1038.09 581.903,1038.09 582.826,1038.09 583.749,1038.09 584.672,1038.09 585.594,1038.09 586.517,1038.09 587.44,1038.09 588.363,1038.09 589.286,1038.09 590.208,1038.09 591.131,1038.09 592.054,1038.09 592.977,1038.09 593.9,1038.09 594.822,1038.09 595.745,1038.09 596.668,1038.09 597.591,1038.09 598.514,1038.09 599.436,1038.09 600.359,1038.09 601.282,951.554 602.205,951.554 603.128,951.554 604.05,951.554 604.973,951.554 605.896,951.554 606.819,951.554 607.742,951.554 608.664,951.554 609.587,951.554 610.51,951.554 611.433,951.554 612.356,951.554 613.278,951.554 614.201,951.554 615.124,951.554 616.047,951.554 616.97,951.554 617.892,951.554 618.815,951.554 619.738,951.554 620.661,951.554 621.584,951.554 622.506,951.554 623.429,951.554 624.352,951.554 625.275,951.554 626.198,951.554 627.12,865.017 628.043,865.017 628.966,865.017 629.889,865.017 630.812,865.017 631.734,865.017 632.657,865.017 633.58,865.017 634.503,865.017 635.426,865.017 636.348,865.017 637.271,865.017 638.194,865.017 639.117,865.017 640.04,865.017 640.962,865.017 641.885,865.017 642.808,865.017 643.731,865.017 644.654,865.017 645.576,865.017 646.499,865.017 647.422,865.017 648.345,865.017 649.268,865.017 650.19,865.017 651.113,865.017 652.036,865.017 652.959,865.017 653.882,865.017 654.804,865.017 655.727,865.017 656.65,865.017 657.573,865.017 658.496,865.017 659.418,865.017 660.341,865.017 661.264,865.017 662.187,865.017 663.11,865.017 664.032,865.017 664.955,865.017 665.878,865.017 666.801,865.017 667.724,865.017 668.646,865.017 669.569,865.017 670.492,865.017 671.415,865.017 672.338,865.017 673.26,865.017 674.183,865.017 675.106,865.017 676.029,865.017 676.952,865.017 677.874,865.017 678.797,865.017 679.72,865.017 680.643,865.017 681.566,865.017 682.488,778.48 683.411,778.48 684.334,778.48 685.257,778.48 686.18,778.48 687.102,778.48 688.025,778.48 688.948,778.48 689.871,778.48 690.794,778.48 691.716,778.48 692.639,778.48 693.562,778.48 694.485,778.48 695.408,778.48 696.33,778.48 697.253,778.48 698.176,778.48 699.099,778.48 700.022,778.48 700.944,778.48 701.867,778.48 702.79,778.48 703.713,778.48 704.636,778.48 705.558,778.48 706.481,778.48 707.404,778.48 708.327,778.48 709.25,778.48 710.172,778.48 711.095,778.48 712.018,778.48 712.941,778.48 713.864,778.48 714.786,778.48 715.709,778.48 716.632,778.48 717.555,778.48 718.478,778.48 719.4,778.48 720.323,778.48 721.246,778.48 722.169,778.48 723.092,778.48 724.014,778.48 724.937,778.48 725.86,778.48 726.783,778.48 727.706,778.48 728.628,778.48 729.551,778.48 730.474,778.48 731.397,778.48 732.32,778.48 733.242,778.48 734.165,778.48 735.088,778.48 736.011,778.48 736.934,778.48 737.856,778.48 738.779,778.48 739.702,778.48 740.625,778.48 741.548,778.48 742.47,778.48 743.393,778.48 744.316,778.48 745.239,778.48 746.162,778.48 747.084,778.48 748.007,778.48 748.93,778.48 749.853,778.48 750.776,778.48 751.698,778.48 752.621,778.48 753.544,778.48 754.467,778.48 755.39,778.48 756.312,778.48 757.235,778.48 758.158,778.48 759.081,778.48 760.004,778.48 760.926,778.48 761.849,778.48 762.772,778.48 763.695,778.48 764.618,778.48 765.54,778.48 766.463,778.48 767.386,778.48 768.309,778.48 769.232,778.48 770.154,778.48 771.077,778.48 772,778.48 772.923,778.48 773.846,778.48 774.768,778.48 775.691,778.48 776.614,778.48 777.537,778.48 778.46,778.48 779.382,778.48 780.305,778.48 781.228,778.48 782.151,778.48 783.074,778.48 783.996,778.48 784.919,778.48 785.842,778.48 786.765,778.48 787.688,778.48 788.61,778.48 789.533,778.48 790.456,778.48 791.379,778.48 792.302,778.48 793.224,778.48 794.147,778.48 795.07,778.48 795.993,778.48 796.916,778.48 797.838,778.48 798.761,778.48 799.684,778.48 800.607,778.48 801.53,778.48 802.452,778.48 803.375,778.48 804.298,778.48 805.221,778.48 806.144,778.48 807.066,778.48 807.989,778.48 808.912,778.48 809.835,778.48 810.758,778.48 811.68,778.48 812.603,778.48 813.526,778.48 814.449,778.48 815.372,778.48 816.294,778.48 817.217,778.48 818.14,778.48 819.063,778.48 819.986,778.48 820.908,778.48 821.831,778.48 822.754,778.48 823.677,778.48 824.6,778.48 825.522,778.48 826.445,778.48 827.368,778.48 828.291,778.48 829.214,778.48 830.136,778.48 831.059,778.48 831.982,778.48 832.905,778.48 833.828,778.48 834.75,778.48 835.673,778.48 836.596,778.48 837.519,778.48 838.442,778.48 839.364,778.48 840.287,778.48 841.21,778.48 842.133,778.48 843.056,778.48 843.978,778.48 844.901,778.48 845.824,778.48 846.747,778.48 847.67,778.48 848.592,778.48 849.515,778.48 850.438,778.48 851.361,778.48 852.284,778.48 853.206,778.48 854.129,778.48 855.052,778.48 855.975,778.48 856.898,778.48 857.82,778.48 858.743,778.48 859.666,778.48 860.589,778.48 861.512,778.48 862.434,778.48 863.357,778.48 864.28,778.48 865.203,778.48 866.126,778.48 867.048,778.48 867.971,778.48 868.894,778.48 869.817,778.48 870.74,778.48 871.662,778.48 872.585,778.48 873.508,778.48 874.431,778.48 875.354,778.48 876.276,778.48 877.199,778.48 878.122,778.48 879.045,778.48 879.968,778.48 880.89,778.48 881.813,778.48 882.736,778.48 883.659,778.48 884.582,778.48 885.504,778.48 886.427,778.48 887.35,778.48 888.273,778.48 889.196,778.48 890.118,778.48 891.041,778.48 891.964,778.48 892.887,778.48 893.81,778.48 894.732,778.48 895.655,778.48 896.578,778.48 897.501,778.48 898.424,778.48 899.346,778.48 900.269,778.48 901.192,778.48 902.115,778.48 903.038,778.48 903.96,778.48 904.883,778.48 905.806,778.48 906.729,778.48 907.652,778.48 908.574,778.48 909.497,778.48 910.42,778.48 911.343,778.48 912.266,778.48 913.188,778.48 914.111,778.48 915.034,778.48 915.957,778.48 916.88,778.48 917.802,778.48 918.725,778.48 919.648,778.48 920.571,778.48 921.494,778.48 922.416,778.48 923.339,778.48 924.262,778.48 925.185,778.48 926.108,778.48 927.03,778.48 927.953,778.48 928.876,778.48 929.799,778.48 930.722,778.48 931.644,778.48 932.567,778.48 933.49,778.48 934.413,778.48 935.336,778.48 936.258,778.48 937.181,778.48 938.104,778.48 939.027,778.48 939.95,778.48 940.872,778.48 941.795,778.48 942.718,778.48 943.641,778.48 944.564,778.48 945.486,778.48 946.409,778.48 947.332,778.48 948.255,778.48 949.178,778.48 950.1,778.48 951.023,778.48 951.946,778.48 952.869,778.48 953.792,778.48 954.714,778.48 955.637,778.48 956.56,778.48 957.483,778.48 958.406,778.48 959.328,778.48 960.251,778.48 961.174,778.48 962.097,778.48 963.02,778.48 963.942,778.48 964.865,778.48 965.788,778.48 966.711,778.48 967.634,778.48 968.556,778.48 969.479,778.48 970.402,778.48 971.325,778.48 972.248,778.48 973.17,778.48 974.093,778.48 975.016,778.48 975.939,778.48 976.862,778.48 977.784,778.48 978.707,778.48 979.63,778.48 980.553,778.48 981.476,778.48 982.398,778.48 983.321,778.48 984.244,778.48 985.167,778.48 986.09,691.944 987.012,691.944 987.935,691.944 988.858,691.944 989.781,691.944 990.704,691.944 991.626,691.944 992.549,691.944 993.472,691.944 994.395,691.944 995.318,691.944 996.24,691.944 997.163,691.944 998.086,691.944 999.009,691.944 999.932,691.944 1000.85,691.944 1001.78,691.944 1002.7,691.944 1003.62,691.944 1004.55,691.944 1005.47,691.944 1006.39,691.944 1007.31,691.944 1008.24,691.944 1009.16,691.944 1010.08,691.944 1011.01,691.944 1011.93,691.944 1012.85,691.944 1013.77,691.944 1014.7,691.944 1015.62,691.944 1016.54,691.944 1017.46,691.944 1018.39,691.944 1019.31,691.944 1020.23,691.944 1021.16,691.944 1022.08,691.944 1023,691.944 1023.92,691.944 1024.85,691.944 1025.77,691.944 1026.69,691.944 1027.62,691.944 1028.54,691.944 1029.46,691.944 1030.38,691.944 1031.31,691.944 1032.23,691.944 1033.15,691.944 1034.08,691.944 1035,691.944 1035.92,691.944 1036.84,691.944 1037.77,691.944 1038.69,691.944 1039.61,691.944 1040.53,691.944 1041.46,691.944 1042.38,691.944 1043.3,691.944 1044.23,691.944 1045.15,691.944 1046.07,691.944 1046.99,691.944 1047.92,691.944 1048.84,691.944 1049.76,691.944 1050.69,691.944 1051.61,691.944 1052.53,691.944 1053.45,691.944 1054.38,691.944 1055.3,691.944 1056.22,691.944 1057.15,691.944 1058.07,691.944 1058.99,691.944 1059.91,691.944 1060.84,691.944 1061.76,691.944 1062.68,691.944 1063.6,691.944 1064.53,691.944 1065.45,691.944 1066.37,691.944 1067.3,691.944 1068.22,691.944 1069.14,691.944 1070.06,691.944 1070.99,691.944 1071.91,691.944 1072.83,691.944 1073.76,691.944 1074.68,691.944 1075.6,691.944 1076.52,691.944 1077.45,691.944 1078.37,691.944 1079.29,691.944 1080.22,691.944 1081.14,691.944 1082.06,691.944 1082.98,691.944 1083.91,691.944 1084.83,691.944 1085.75,691.944 1086.67,691.944 1087.6,691.944 1088.52,691.944 1089.44,691.944 1090.37,691.944 1091.29,691.944 1092.21,691.944 1093.13,691.944 1094.06,691.944 1094.98,691.944 1095.9,691.944 1096.83,691.944 1097.75,691.944 1098.67,691.944 1099.59,691.944 1100.52,691.944 1101.44,691.944 1102.36,691.944 1103.29,691.944 1104.21,691.944 1105.13,691.944 1106.05,691.944 1106.98,691.944 1107.9,691.944 1108.82,691.944 1109.74,691.944 1110.67,691.944 1111.59,691.944 1112.51,691.944 1113.44,691.944 1114.36,691.944 1115.28,691.944 1116.2,691.944 1117.13,691.944 1118.05,691.944 1118.97,691.944 1119.9,691.944 1120.82,691.944 1121.74,691.944 1122.66,691.944 1123.59,691.944 1124.51,691.944 1125.43,691.944 1126.36,691.944 1127.28,691.944 1128.2,691.944 1129.12,691.944 1130.05,691.944 1130.97,691.944 1131.89,691.944 1132.81,691.944 1133.74,691.944 1134.66,691.944 1135.58,691.944 1136.51,691.944 1137.43,691.944 1138.35,691.944 1139.27,691.944 1140.2,691.944 1141.12,691.944 1142.04,691.944 1142.97,691.944 1143.89,691.944 1144.81,691.944 1145.73,691.944 1146.66,691.944 1147.58,691.944 1148.5,691.944 1149.43,691.944 1150.35,691.944 1151.27,691.944 1152.19,691.944 1153.12,691.944 1154.04,691.944 1154.96,691.944 1155.88,691.944 1156.81,691.944 1157.73,691.944 1158.65,691.944 1159.58,691.944 1160.5,691.944 1161.42,691.944 1162.34,691.944 1163.27,691.944 1164.19,691.944 1165.11,691.944 1166.04,691.944 1166.96,691.944 1167.88,691.944 1168.8,691.944 1169.73,691.944 1170.65,691.944 1171.57,691.944 1172.5,691.944 1173.42,691.944 1174.34,691.944 1175.26,691.944 1176.19,691.944 1177.11,691.944 1178.03,691.944 1178.95,691.944 1179.88,691.944 1180.8,691.944 1181.72,691.944 1182.65,691.944 1183.57,691.944 1184.49,691.944 1185.41,691.944 1186.34,691.944 1187.26,691.944 1188.18,691.944 1189.11,691.944 1190.03,691.944 1190.95,691.944 1191.87,691.944 1192.8,691.944 1193.72,691.944 1194.64,691.944 1195.57,691.944 1196.49,691.944 1197.41,691.944 1198.33,691.944 1199.26,691.944 1200.18,691.944 1201.1,691.944 1202.02,691.944 1202.95,691.944 1203.87,691.944 1204.79,691.944 1205.72,691.944 1206.64,691.944 1207.56,691.944 1208.48,691.944 1209.41,691.944 1210.33,691.944 1211.25,691.944 1212.18,691.944 1213.1,691.944 1214.02,691.944 1214.94,691.944 1215.87,691.944 1216.79,691.944 1217.71,691.944 1218.64,691.944 1219.56,691.944 1220.48,691.944 1221.4,691.944 1222.33,691.944 1223.25,691.944 1224.17,691.944 1225.09,691.944 1226.02,691.944 1226.94,691.944 1227.86,691.944 1228.79,691.944 1229.71,691.944 1230.63,691.944 1231.55,691.944 1232.48,691.944 1233.4,691.944 1234.32,691.944 1235.25,691.944 1236.17,691.944 1237.09,691.944 1238.01,691.944 1238.94,691.944 1239.86,691.944 1240.78,691.944 1241.71,691.944 1242.63,691.944 1243.55,691.944 1244.47,691.944 1245.4,691.944 1246.32,691.944 1247.24,691.944 1248.16,691.944 1249.09,691.944 1250.01,691.944 1250.93,691.944 1251.86,691.944 1252.78,691.944 1253.7,691.944 1254.62,691.944 1255.55,691.944 1256.47,691.944 1257.39,691.944 1258.32,691.944 1259.24,691.944 1260.16,691.944 1261.08,691.944 1262.01,691.944 1262.93,691.944 1263.85,691.944 1264.78,691.944 1265.7,691.944 1266.62,691.944 1267.54,691.944 1268.47,691.944 1269.39,691.944 1270.31,691.944 1271.23,691.944 1272.16,691.944 1273.08,691.944 1274,691.944 1274.93,691.944 1275.85,691.944 1276.77,691.944 1277.69,691.944 1278.62,691.944 1279.54,691.944 1280.46,691.944 1281.39,691.944 1282.31,691.944 1283.23,691.944 1284.15,691.944 1285.08,691.944 1286,691.944 1286.92,691.944 1287.85,691.944 1288.77,691.944 1289.69,691.944 1290.61,691.944 1291.54,691.944 1292.46,691.944 1293.38,691.944 1294.3,691.944 1295.23,691.944 1296.15,691.944 1297.07,691.944 1298,691.944 1298.92,691.944 1299.84,691.944 1300.76,691.944 1301.69,691.944 1302.61,691.944 1303.53,691.944 1304.46,691.944 1305.38,691.944 1306.3,691.944 1307.22,691.944 1308.15,691.944 1309.07,691.944 1309.99,691.944 1310.92,691.944 1311.84,691.944 1312.76,691.944 1313.68,691.944 1314.61,691.944 1315.53,691.944 1316.45,691.944 1317.37,691.944 1318.3,691.944 1319.22,691.944 1320.14,691.944 1321.07,691.944 1321.99,691.944 1322.91,691.944 1323.83,691.944 1324.76,691.944 1325.68,691.944 1326.6,691.944 1327.53,691.944 1328.45,691.944 1329.37,691.944 1330.29,691.944 1331.22,691.944 1332.14,691.944 1333.06,691.944 1333.99,691.944 1334.91,691.944 1335.83,691.944 1336.75,691.944 1337.68,691.944 1338.6,605.407 1339.52,605.407 1340.44,605.407 1341.37,605.407 1342.29,605.407 1343.21,605.407 1344.14,605.407 1345.06,605.407 1345.98,605.407 1346.9,605.407 1347.83,605.407 1348.75,605.407 1349.67,605.407 1350.6,605.407 1351.52,605.407 1352.44,605.407 1353.36,518.87 1354.29,518.87 1355.21,518.87 1356.13,518.87 1357.06,518.87 1357.98,518.87 1358.9,518.87 1359.82,518.87 1360.75,518.87 1361.67,518.87 1362.59,518.87 1363.51,518.87 1364.44,518.87 1365.36,518.87 1366.28,518.87 1367.21,518.87 1368.13,518.87 1369.05,518.87 1369.97,518.87 1370.9,518.87 1371.82,518.87 1372.74,518.87 1373.67,518.87 1374.59,518.87 1375.51,518.87 1376.43,518.87 1377.36,518.87 1378.28,518.87 1379.2,518.87 1380.13,518.87 1381.05,518.87 1381.97,518.87 1382.89,518.87 1383.82,518.87 1384.74,518.87 1385.66,518.87 1386.58,518.87 1387.51,518.87 1388.43,518.87 1389.35,518.87 1390.28,518.87 1391.2,518.87 1392.12,518.87 1393.04,518.87 1393.97,518.87 1394.89,518.87 1395.81,518.87 1396.74,518.87 1397.66,518.87 1398.58,518.87 1399.5,518.87 1400.43,518.87 1401.35,518.87 1402.27,518.87 1403.2,518.87 1404.12,518.87 1405.04,518.87 1405.96,518.87 1406.89,518.87 1407.81,518.87 1408.73,518.87 1409.65,518.87 1410.58,518.87 1411.5,518.87 1412.42,518.87 1413.35,518.87 1414.27,518.87 1415.19,518.87 1416.11,518.87 1417.04,518.87 1417.96,518.87 1418.88,518.87 1419.81,518.87 1420.73,518.87 1421.65,518.87 1422.57,518.87 1423.5,518.87 1424.42,518.87 1425.34,518.87 1426.27,518.87 1427.19,518.87 1428.11,518.87 1429.03,518.87 1429.96,518.87 1430.88,518.87 1431.8,518.87 1432.72,518.87 1433.65,518.87 1434.57,518.87 1435.49,518.87 1436.42,518.87 1437.34,518.87 1438.26,518.87 1439.18,518.87 1440.11,518.87 1441.03,518.87 1441.95,518.87 1442.88,518.87 1443.8,518.87 1444.72,518.87 1445.64,518.87 1446.57,518.87 1447.49,518.87 1448.41,518.87 1449.34,518.87 1450.26,518.87 1451.18,518.87 1452.1,518.87 1453.03,518.87 1453.95,518.87 1454.87,518.87 1455.79,518.87 1456.72,518.87 1457.64,518.87 1458.56,518.87 1459.49,518.87 1460.41,518.87 1461.33,518.87 1462.25,518.87 1463.18,518.87 1464.1,518.87 1465.02,518.87 1465.95,518.87 1466.87,518.87 1467.79,518.87 1468.71,518.87 1469.64,518.87 1470.56,518.87 1471.48,518.87 1472.4,518.87 1473.33,518.87 1474.25,518.87 1475.17,518.87 1476.1,518.87 1477.02,518.87 1477.94,518.87 1478.86,518.87 1479.79,518.87 1480.71,518.87 1481.63,518.87 1482.56,518.87 1483.48,518.87 1484.4,518.87 1485.32,518.87 1486.25,518.87 1487.17,518.87 1488.09,518.87 1489.02,518.87 1489.94,518.87 1490.86,518.87 1491.78,518.87 1492.71,518.87 1493.63,518.87 1494.55,518.87 1495.47,518.87 1496.4,518.87 1497.32,518.87 1498.24,518.87 1499.17,518.87 1500.09,518.87 1501.01,518.87 1501.93,518.87 1502.86,518.87 1503.78,518.87 1504.7,518.87 1505.63,518.87 1506.55,518.87 1507.47,518.87 1508.39,518.87 1509.32,518.87 1510.24,518.87 1511.16,518.87 1512.09,518.87 1513.01,518.87 1513.93,518.87 1514.85,518.87 1515.78,518.87 1516.7,518.87 1517.62,518.87 1518.54,518.87 1519.47,518.87 1520.39,518.87 1521.31,518.87 1522.24,518.87 1523.16,518.87 1524.08,518.87 1525,518.87 1525.93,518.87 1526.85,518.87 1527.77,518.87 1528.7,518.87 1529.62,518.87 1530.54,518.87 1531.46,518.87 1532.39,518.87 1533.31,518.87 1534.23,518.87 1535.16,518.87 1536.08,518.87 1537,518.87 1537.92,518.87 1538.85,518.87 1539.77,518.87 1540.69,518.87 1541.61,518.87 1542.54,518.87 1543.46,518.87 1544.38,518.87 1545.31,518.87 1546.23,518.87 1547.15,518.87 1548.07,518.87 1549,518.87 1549.92,518.87 1550.84,518.87 1551.77,518.87 1552.69,518.87 1553.61,518.87 1554.53,518.87 1555.46,518.87 1556.38,518.87 1557.3,518.87 1558.23,518.87 1559.15,518.87 1560.07,518.87 1560.99,518.87 1561.92,518.87 1562.84,518.87 1563.76,518.87 1564.68,518.87 1565.61,518.87 1566.53,518.87 1567.45,518.87 1568.38,518.87 1569.3,518.87 1570.22,518.87 1571.14,518.87 1572.07,518.87 1572.99,518.87 1573.91,518.87 1574.84,518.87 1575.76,518.87 1576.68,518.87 1577.6,518.87 1578.53,518.87 1579.45,518.87 1580.37,518.87 1581.3,518.87 1582.22,518.87 1583.14,518.87 1584.06,518.87 1584.99,518.87 1585.91,518.87 1586.83,518.87 1587.75,518.87 1588.68,518.87 1589.6,518.87 1590.52,518.87 1591.45,518.87 1592.37,518.87 1593.29,518.87 1594.21,518.87 1595.14,518.87 1596.06,518.87 1596.98,518.87 1597.91,518.87 1598.83,518.87 1599.75,518.87 1600.67,518.87 1601.6,518.87 1602.52,518.87 1603.44,518.87 1604.37,518.87 1605.29,518.87 1606.21,518.87 1607.13,518.87 1608.06,518.87 1608.98,518.87 1609.9,518.87 1610.82,518.87 1611.75,518.87 1612.67,518.87 1613.59,518.87 1614.52,518.87 1615.44,518.87 1616.36,518.87 1617.28,518.87 1618.21,518.87 1619.13,518.87 1620.05,518.87 1620.98,518.87 1621.9,518.87 1622.82,518.87 1623.74,518.87 1624.67,518.87 1625.59,518.87 1626.51,518.87 1627.44,518.87 1628.36,518.87 1629.28,518.87 1630.2,518.87 1631.13,518.87 1632.05,518.87 1632.97,518.87 1633.89,518.87 1634.82,518.87 1635.74,518.87 1636.66,518.87 1637.59,518.87 1638.51,518.87 1639.43,518.87 1640.35,518.87 1641.28,518.87 1642.2,518.87 1643.12,518.87 1644.05,518.87 1644.97,518.87 1645.89,518.87 1646.81,518.87 1647.74,518.87 1648.66,518.87 1649.58,518.87 1650.51,518.87 1651.43,518.87 1652.35,518.87 1653.27,518.87 1654.2,518.87 1655.12,518.87 1656.04,518.87 1656.96,518.87 1657.89,518.87 1658.81,518.87 1659.73,518.87 1660.66,518.87 1661.58,518.87 1662.5,518.87 1663.42,518.87 1664.35,518.87 1665.27,518.87 1666.19,518.87 1667.12,518.87 1668.04,518.87 1668.96,518.87 1669.88,518.87 1670.81,518.87 1671.73,518.87 1672.65,518.87 1673.58,518.87 1674.5,518.87 1675.42,518.87 1676.34,518.87 1677.27,518.87 1678.19,432.333 1679.11,432.333 1680.03,432.333 1680.96,432.333 1681.88,432.333 1682.8,432.333 1683.73,432.333 1684.65,432.333 1685.57,432.333 1686.49,432.333 1687.42,432.333 1688.34,432.333 1689.26,432.333 1690.19,432.333 1691.11,432.333 1692.03,432.333 1692.95,432.333 1693.88,432.333 1694.8,432.333 1695.72,432.333 1696.65,432.333 1697.57,432.333 1698.49,432.333 1699.41,432.333 1700.34,432.333 1701.26,432.333 1702.18,432.333 1703.1,432.333 1704.03,432.333 1704.95,432.333 1705.87,432.333 1706.8,432.333 1707.72,432.333 1708.64,432.333 1709.56,432.333 1710.49,432.333 1711.41,432.333 1712.33,432.333 1713.26,432.333 1714.18,432.333 1715.1,432.333 1716.02,432.333 1716.95,432.333 1717.87,432.333 1718.79,432.333 1719.72,432.333 1720.64,432.333 1721.56,432.333 1722.48,432.333 1723.41,432.333 1724.33,432.333 1725.25,432.333 1726.17,432.333 1727.1,432.333 1728.02,432.333 1728.94,432.333 1729.87,432.333 1730.79,432.333 1731.71,432.333 1732.63,432.333 1733.56,432.333 1734.48,432.333 1735.4,432.333 1736.33,432.333 1737.25,432.333 1738.17,432.333 1739.09,432.333 1740.02,432.333 1740.94,432.333 1741.86,432.333 1742.79,432.333 1743.71,432.333 1744.63,432.333 1745.55,432.333 1746.48,432.333 1747.4,432.333 1748.32,432.333 1749.24,432.333 1750.17,432.333 1751.09,432.333 1752.01,432.333 1752.94,432.333 1753.86,432.333 1754.78,432.333 1755.7,432.333 1756.63,432.333 1757.55,432.333 1758.47,432.333 1759.4,432.333 1760.32,432.333 1761.24,432.333 1762.16,432.333 1763.09,432.333 1764.01,432.333 1764.93,432.333 1765.86,432.333 1766.78,432.333 1767.7,432.333 1768.62,432.333 1769.55,432.333 1770.47,432.333 1771.39,432.333 1772.31,432.333 1773.24,432.333 1774.16,432.333 1775.08,432.333 1776.01,432.333 1776.93,432.333 1777.85,432.333 1778.77,432.333 1779.7,432.333 1780.62,432.333 1781.54,432.333 1782.47,432.333 1783.39,432.333 1784.31,432.333 1785.23,432.333 1786.16,432.333 1787.08,432.333 1788,432.333 1788.93,432.333 1789.85,432.333 1790.77,432.333 1791.69,432.333 1792.62,432.333 1793.54,432.333 1794.46,432.333 1795.38,432.333 1796.31,432.333 1797.23,432.333 1798.15,432.333 1799.08,432.333 1800,432.333 1800.92,432.333 1801.84,432.333 1802.77,432.333 1803.69,432.333 1804.61,432.333 1805.54,432.333 1806.46,432.333 1807.38,432.333 1808.3,432.333 1809.23,432.333 1810.15,432.333 1811.07,432.333 1812,432.333 1812.92,432.333 1813.84,432.333 1814.76,432.333 1815.69,432.333 1816.61,432.333 1817.53,432.333 1818.45,432.333 1819.38,432.333 1820.3,432.333 1821.22,432.333 1822.15,432.333 1823.07,432.333 1823.99,432.333 1824.91,432.333 1825.84,432.333 1826.76,432.333 1827.68,432.333 1828.61,432.333 1829.53,432.333 1830.45,432.333 1831.37,432.333 1832.3,432.333 1833.22,432.333 1834.14,432.333 1835.07,432.333 1835.99,432.333 1836.91,432.333 1837.83,432.333 1838.76,432.333 1839.68,432.333 1840.6,432.333 1841.52,432.333 1842.45,432.333 1843.37,432.333 1844.29,432.333 1845.22,432.333 1846.14,432.333 1847.06,432.333 1847.98,432.333 1848.91,432.333 1849.83,432.333 1850.75,432.333 1851.68,432.333 1852.6,432.333 1853.52,432.333 1854.44,432.333 1855.37,432.333 1856.29,432.333 1857.21,432.333 1858.14,432.333 1859.06,432.333 1859.98,432.333 1860.9,432.333 1861.83,432.333 1862.75,432.333 1863.67,432.333 1864.59,432.333 1865.52,432.333 1866.44,432.333 1867.36,432.333 1868.29,432.333 1869.21,432.333 1870.13,432.333 1871.05,432.333 1871.98,432.333 1872.9,432.333 1873.82,432.333 1874.75,432.333 1875.67,432.333 1876.59,432.333 1877.51,432.333 1878.44,432.333 1879.36,432.333 1880.28,432.333 1881.21,432.333 1882.13,432.333 1883.05,432.333 1883.97,432.333 1884.9,432.333 1885.82,432.333 1886.74,432.333 1887.66,432.333 1888.59,432.333 1889.51,432.333 1890.43,432.333 1891.36,432.333 1892.28,432.333 1893.2,432.333 1894.12,432.333 1895.05,432.333 1895.97,432.333 1896.89,432.333 1897.82,432.333 1898.74,432.333 1899.66,432.333 1900.58,432.333 1901.51,432.333 1902.43,432.333 1903.35,432.333 1904.28,432.333 1905.2,432.333 1906.12,432.333 1907.04,432.333 1907.97,432.333 1908.89,432.333 1909.81,432.333 1910.73,432.333 1911.66,432.333 1912.58,432.333 1913.5,432.333 1914.43,432.333 1915.35,432.333 1916.27,432.333 1917.19,432.333 1918.12,432.333 1919.04,432.333 1919.96,432.333 1920.89,432.333 1921.81,432.333 1922.73,432.333 1923.65,432.333 1924.58,432.333 1925.5,432.333 1926.42,432.333 1927.35,432.333 1928.27,432.333 1929.19,432.333 1930.11,432.333 1931.04,432.333 1931.96,432.333 1932.88,432.333 1933.8,432.333 1934.73,432.333 1935.65,432.333 1936.57,432.333 1937.5,432.333 1938.42,432.333 1939.34,432.333 1940.26,432.333 1941.19,432.333 1942.11,432.333 1943.03,345.796 1943.96,345.796 1944.88,345.796 1945.8,345.796 1946.72,345.796 1947.65,345.796 1948.57,345.796 1949.49,345.796 1950.42,345.796 1951.34,345.796 1952.26,345.796 1953.18,345.796 1954.11,345.796 1955.03,345.796 1955.95,345.796 1956.87,345.796 1957.8,345.796 1958.72,345.796 1959.64,345.796 1960.57,345.796 1961.49,345.796 1962.41,345.796 1963.33,345.796 1964.26,345.796 1965.18,345.796 1966.1,345.796 1967.03,345.796 1967.95,345.796 1968.87,345.796 1969.79,345.796 1970.72,345.796 1971.64,345.796 1972.56,345.796 1973.49,345.796 1974.41,345.796 1975.33,345.796 1976.25,345.796 1977.18,345.796 1978.1,345.796 1979.02,345.796 1979.94,345.796 1980.87,345.796 1981.79,345.796 1982.71,345.796 1983.64,345.796 1984.56,345.796 1985.48,345.796 1986.4,345.796 1987.33,345.796 1988.25,345.796 1989.17,345.796 1990.1,345.796 1991.02,345.796 1991.94,345.796 1992.86,345.796 1993.79,345.796 1994.71,345.796 1995.63,345.796 1996.56,345.796 1997.48,345.796 1998.4,345.796 1999.32,345.796 2000.25,345.796 2001.17,345.796 2002.09,345.796 2003.01,345.796 2003.94,345.796 2004.86,345.796 2005.78,345.796 2006.71,345.796 2007.63,345.796 2008.55,345.796 2009.47,345.796 2010.4,345.796 2011.32,345.796 2012.24,345.796 2013.17,345.796 2014.09,345.796 2015.01,345.796 2015.93,345.796 2016.86,345.796 2017.78,345.796 2018.7,345.796 2019.63,345.796 2020.55,345.796 2021.47,345.796 2022.39,345.796 2023.32,345.796 2024.24,345.796 2025.16,345.796 2026.08,345.796 2027.01,345.796 2027.93,345.796 2028.85,345.796 2029.78,345.796 2030.7,345.796 2031.62,345.796 2032.54,345.796 2033.47,345.796 2034.39,345.796 2035.31,345.796 2036.24,345.796 2037.16,345.796 2038.08,345.796 2039,345.796 2039.93,345.796 2040.85,345.796 2041.77,345.796 2042.7,345.796 2043.62,345.796 2044.54,345.796 2045.46,345.796 2046.39,345.796 2047.31,345.796 2048.23,345.796 2049.15,345.796 2050.08,345.796 2051,345.796 2051.92,345.796 2052.85,345.796 2053.77,345.796 2054.69,345.796 2055.61,345.796 2056.54,345.796 2057.46,345.796 2058.38,345.796 2059.31,345.796 2060.23,345.796 2061.15,345.796 2062.07,345.796 2063,345.796 2063.92,345.796 2064.84,345.796 2065.77,345.796 2066.69,345.796 2067.61,345.796 2068.53,345.796 2069.46,345.796 2070.38,345.796 2071.3,345.796 2072.22,345.796 2073.15,345.796 2074.07,345.796 2074.99,345.796 2075.92,345.796 2076.84,345.796 2077.76,345.796 2078.68,345.796 2079.61,345.796 2080.53,345.796 2081.45,345.796 2082.38,345.796 2083.3,345.796 2084.22,345.796 2085.14,345.796 2086.07,345.796 2086.99,345.796 2087.91,345.796 2088.84,345.796 2089.76,345.796 2090.68,345.796 2091.6,345.796 2092.53,345.796 2093.45,345.796 2094.37,345.796 2095.29,345.796 2096.22,345.796 2097.14,345.796 2098.06,345.796 2098.99,345.796 2099.91,259.259 2100.83,259.259 2101.75,259.259 2102.68,259.259 2103.6,259.259 2104.52,259.259 2105.45,259.259 2106.37,259.259 2107.29,259.259 2108.21,259.259 2109.14,259.259 2110.06,259.259 2110.98,259.259 2111.91,259.259 2112.83,259.259 2113.75,259.259 2114.67,259.259 2115.6,259.259 2116.52,259.259 2117.44,259.259 2118.36,259.259 2119.29,259.259 2120.21,259.259 2121.13,259.259 2122.06,259.259 2122.98,259.259 2123.9,259.259 2124.82,259.259 2125.75,259.259 2126.67,259.259 2127.59,259.259 2128.52,259.259 2129.44,259.259 2130.36,259.259 2131.28,259.259 2132.21,259.259 2133.13,259.259 2134.05,259.259 2134.98,259.259 2135.9,259.259 2136.82,259.259 2137.74,259.259 2138.67,259.259 2139.59,259.259 2140.51,259.259 2141.43,259.259 2142.36,259.259 2143.28,259.259 2144.2,259.259 2145.13,259.259 2146.05,259.259 2146.97,259.259 2147.89,259.259 2148.82,259.259 2149.74,259.259 2150.66,259.259 2151.59,259.259 2152.51,259.259 2153.43,259.259 2154.35,259.259 2155.28,259.259 2156.2,259.259 2157.12,259.259 2158.05,259.259 2158.97,259.259 2159.89,259.259 2160.81,259.259 2161.74,259.259 2162.66,259.259 2163.58,259.259 2164.5,259.259 2165.43,259.259 2166.35,259.259 2167.27,259.259 2168.2,259.259 2169.12,259.259 2170.04,259.259 2170.96,259.259 2171.89,259.259 2172.81,259.259 2173.73,259.259 2174.66,259.259 2175.58,259.259 2176.5,172.723 2177.42,172.723 2178.35,172.723 2179.27,172.723 2180.19,172.723 2181.12,172.723 2182.04,172.723 2182.96,172.723 2183.88,172.723 2184.81,172.723 2185.73,172.723 2186.65,172.723 2187.57,172.723 2188.5,172.723 2189.42,172.723 2190.34,172.723 2191.27,172.723 2192.19,172.723 2193.11,172.723 2194.03,172.723 2194.96,172.723 2195.88,172.723 2196.8,172.723 2197.73,172.723 2198.65,172.723 2199.57,172.723 2200.49,172.723 2201.42,172.723 2202.34,172.723 2203.26,172.723 2204.19,172.723 2205.11,172.723 2206.03,172.723 2206.95,172.723 2207.88,172.723 2208.8,172.723 2209.72,172.723 2210.64,172.723 2211.57,172.723 2212.49,172.723 2213.41,172.723 2214.34,172.723 2215.26,172.723 2216.18,172.723 2217.1,172.723 2218.03,172.723 2218.95,172.723 2219.87,172.723 2220.8,172.723 2221.72,172.723 2222.64,172.723 2223.56,172.723 2224.49,172.723 2225.41,172.723 2226.33,172.723 2227.26,172.723 2228.18,172.723 2229.1,172.723 2230.02,172.723 2230.95,172.723 2231.87,172.723 2232.79,172.723 2233.71,172.723 2234.64,172.723 2235.56,172.723 2236.48,172.723 2237.41,172.723 2238.33,172.723 2239.25,172.723 2240.17,172.723 2241.1,172.723 2242.02,172.723 2242.94,172.723 2243.87,172.723 2244.79,172.723 2245.71,172.723 2246.63,172.723 2247.56,172.723 2248.48,172.723 2249.4,172.723 2250.33,172.723 2251.25,172.723 2252.17,172.723 2253.09,172.723 2254.02,172.723 2254.94,172.723 2255.86,172.723 2256.78,172.723 2257.71,172.723 2258.63,172.723 2259.55,172.723 2260.48,172.723 2261.4,172.723 2262.32,172.723 2263.24,172.723 2264.17,172.723 2265.09,172.723 2266.01,172.723 2266.94,172.723 2267.86,172.723 2268.78,172.723 2269.7,172.723 2270.63,172.723 2271.55,172.723 2272.47,172.723 2273.4,172.723 2274.32,172.723 2275.24,86.1857 2276.16,86.1857 2277.09,86.1857 2278.01,86.1857 2278.93,86.1857 2279.85,86.1857 2280.78,86.1857 2281.7,86.1857 2282.62,86.1857 2283.55,86.1857 2284.47,86.1857 2285.39,86.1857 2286.31,86.1857 2287.24,86.1857 2288.16,86.1857 2289.08,86.1857 2290.01,86.1857 2290.93,86.1857 2291.85,86.1857 2292.77,86.1857 2293.7,86.1857 2294.62,86.1857 2295.54,86.1857 2296.47,86.1857 2297.39,86.1857 2298.31,86.1857 2299.23,86.1857 2300.16,86.1857 2301.08,86.1857 2302,86.1857 2302.92,86.1857 2303.85,86.1857 2304.77,86.1857 2305.69,86.1857 2306.62,86.1857 2307.54,86.1857 2308.46,86.1857 2309.38,86.1857 2310.31,86.1857 2311.23,86.1857 2312.15,86.1857 2313.08,86.1857 2314,86.1857 2314.92,86.1857 2315.84,86.1857 2316.77,86.1857 2317.69,86.1857 2318.61,86.1857 2319.54,86.1857 2320.46,86.1857 2321.38,86.1857 2322.3,86.1857 2323.23,86.1857 2324.15,86.1857 2325.07,86.1857 2325.99,86.1857 2326.92,86.1857 2327.84,86.1857 2328.76,86.1857 2329.69,86.1857 2330.61,86.1857 2331.53,86.1857 2332.45,86.1857 2333.38,86.1857 2334.3,86.1857 2335.22,86.1857 2336.15,86.1857 2337.07,86.1857 2337.99,86.1857 2338.91,86.1857 2339.84,86.1857 2340.76,86.1857 2341.68,86.1857 2342.61,86.1857 2343.53,86.1857 2344.45,86.1857 2345.37,86.1857 2346.3,86.1857 2347.22,86.1857 2348.14,86.1857 2349.06,86.1857 2349.99,86.1857 2350.91,86.1857 2351.83,86.1857 2352.76,86.1857 "/>
<path clip-path="url(#clip010)" d="M212.753 248.629 L570.312 248.629 L570.312 93.1086 L212.753 93.1086  Z" fill="#ffffff" fill-rule="evenodd" fill-opacity="1"/>
<polyline clip-path="url(#clip010)" style="stroke:#000000; stroke-linecap:round; stroke-linejoin:round; stroke-width:4; stroke-opacity:1; fill:none" points="212.753,248.629 570.312,248.629 570.312,93.1086 212.753,93.1086 212.753,248.629 "/>
<polyline clip-path="url(#clip010)" style="stroke:#009af9; stroke-linecap:round; stroke-linejoin:round; stroke-width:8; stroke-opacity:1; fill:none" points="237.35,144.949 384.937,144.949 "/>
<path clip-path="url(#clip010)" d="M409.535 127.669 L415.831 127.669 L431.155 156.581 L431.155 127.669 L435.692 127.669 L435.692 162.229 L429.396 162.229 L414.072 133.317 L414.072 162.229 L409.535 162.229 L409.535 127.669 Z" fill="#000000" fill-rule="nonzero" fill-opacity="1" /><path clip-path="url(#clip010)" d="M464.511 170.099 L464.511 173.409 L439.882 173.409 L439.882 170.099 L464.511 170.099 Z" fill="#000000" fill-rule="nonzero" fill-opacity="1" /><path clip-path="url(#clip010)" d="M469.928 158.293 L477.567 158.293 L477.567 131.928 L469.256 133.595 L469.256 129.335 L477.52 127.669 L482.196 127.669 L482.196 158.293 L489.835 158.293 L489.835 162.229 L469.928 162.229 L469.928 158.293 Z" fill="#000000" fill-rule="nonzero" fill-opacity="1" /><path clip-path="url(#clip010)" d="M508.909 126.257 Q505.807 131.581 504.303 136.789 Q502.798 141.997 502.798 147.344 Q502.798 152.692 504.303 157.946 Q505.83 163.178 508.909 168.479 L505.205 168.479 Q501.733 163.039 499.997 157.784 Q498.284 152.53 498.284 147.344 Q498.284 142.182 499.997 136.951 Q501.71 131.72 505.205 126.257 L508.909 126.257 Z" fill="#000000" fill-rule="nonzero" fill-opacity="1" /><path clip-path="url(#clip010)" d="M521.386 128.942 L521.386 136.303 L530.159 136.303 L530.159 139.613 L521.386 139.613 L521.386 153.687 Q521.386 156.858 522.242 157.761 Q523.122 158.664 525.784 158.664 L530.159 158.664 L530.159 162.229 L525.784 162.229 Q520.853 162.229 518.978 160.4 Q517.103 158.548 517.103 153.687 L517.103 139.613 L513.978 139.613 L513.978 136.303 L517.103 136.303 L517.103 128.942 L521.386 128.942 Z" fill="#000000" fill-rule="nonzero" fill-opacity="1" /><path clip-path="url(#clip010)" d="M535.089 126.257 L538.793 126.257 Q542.265 131.72 543.978 136.951 Q545.714 142.182 545.714 147.344 Q545.714 152.53 543.978 157.784 Q542.265 163.039 538.793 168.479 L535.089 168.479 Q538.168 163.178 539.673 157.946 Q541.201 152.692 541.201 147.344 Q541.201 141.997 539.673 136.789 Q538.168 131.581 535.089 126.257 Z" fill="#000000" fill-rule="nonzero" fill-opacity="1" /><polyline clip-path="url(#clip010)" style="stroke:#e26f46; stroke-linecap:round; stroke-linejoin:round; stroke-width:8; stroke-opacity:1; fill:none" points="237.35,196.789 384.937,196.789 "/>
<path clip-path="url(#clip010)" d="M409.535 179.509 L415.831 179.509 L431.155 208.421 L431.155 179.509 L435.692 179.509 L435.692 214.069 L429.396 214.069 L414.072 185.157 L414.072 214.069 L409.535 214.069 L409.535 179.509 Z" fill="#000000" fill-rule="nonzero" fill-opacity="1" /><path clip-path="url(#clip010)" d="M464.511 221.939 L464.511 225.249 L439.882 225.249 L439.882 221.939 L464.511 221.939 Z" fill="#000000" fill-rule="nonzero" fill-opacity="1" /><path clip-path="url(#clip010)" d="M473.145 210.133 L489.465 210.133 L489.465 214.069 L467.52 214.069 L467.52 210.133 Q470.182 207.379 474.766 202.749 Q479.372 198.096 480.553 196.754 Q482.798 194.231 483.678 192.495 Q484.58 190.735 484.58 189.046 Q484.58 186.291 482.636 184.555 Q480.715 182.819 477.613 182.819 Q475.414 182.819 472.96 183.583 Q470.53 184.347 467.752 185.897 L467.752 181.175 Q470.576 180.041 473.03 179.462 Q475.483 178.884 477.52 178.884 Q482.891 178.884 486.085 181.569 Q489.28 184.254 489.28 188.745 Q489.28 190.874 488.469 192.796 Q487.682 194.694 485.576 197.286 Q484.997 197.958 481.895 201.175 Q478.793 204.37 473.145 210.133 Z" fill="#000000" fill-rule="nonzero" fill-opacity="1" /><path clip-path="url(#clip010)" d="M508.909 178.097 Q505.807 183.421 504.303 188.629 Q502.798 193.837 502.798 199.184 Q502.798 204.532 504.303 209.786 Q505.83 215.018 508.909 220.319 L505.205 220.319 Q501.733 214.879 499.997 209.624 Q498.284 204.37 498.284 199.184 Q498.284 194.022 499.997 188.791 Q501.71 183.56 505.205 178.097 L508.909 178.097 Z" fill="#000000" fill-rule="nonzero" fill-opacity="1" /><path clip-path="url(#clip010)" d="M521.386 180.782 L521.386 188.143 L530.159 188.143 L530.159 191.453 L521.386 191.453 L521.386 205.527 Q521.386 208.698 522.242 209.601 Q523.122 210.504 525.784 210.504 L530.159 210.504 L530.159 214.069 L525.784 214.069 Q520.853 214.069 518.978 212.24 Q517.103 210.388 517.103 205.527 L517.103 191.453 L513.978 191.453 L513.978 188.143 L517.103 188.143 L517.103 180.782 L521.386 180.782 Z" fill="#000000" fill-rule="nonzero" fill-opacity="1" /><path clip-path="url(#clip010)" d="M535.089 178.097 L538.793 178.097 Q542.265 183.56 543.978 188.791 Q545.714 194.022 545.714 199.184 Q545.714 204.37 543.978 209.624 Q542.265 214.879 538.793 220.319 L535.089 220.319 Q538.168 215.018 539.673 209.786 Q541.201 204.532 541.201 199.184 Q541.201 193.837 539.673 188.629 Q538.168 183.421 535.089 178.097 Z" fill="#000000" fill-rule="nonzero" fill-opacity="1" /></svg>
