<?xml version="1.0" encoding="utf-8"?>
<svg xmlns="http://www.w3.org/2000/svg" xmlns:xlink="http://www.w3.org/1999/xlink" width="600" height="400" viewBox="0 0 2400 1600">
<defs>
  <clipPath id="clip980">
    <rect x="0" y="0" width="2400" height="1600"/>
  </clipPath>
</defs>
<path clip-path="url(#clip980)" d="M0 1600 L2400 1600 L2400 0 L0 0  Z" fill="#ffffff" fill-rule="evenodd" fill-opacity="1"/>
<defs>
  <clipPath id="clip981">
    <rect x="480" y="0" width="1681" height="1600"/>
  </clipPath>
</defs>
<path clip-path="url(#clip980)" d="M112.177 1423.18 L2352.76 1423.18 L2352.76 47.2441 L112.177 47.2441  Z" fill="#ffffff" fill-rule="evenodd" fill-opacity="1"/>
<defs>
  <clipPath id="clip982">
    <rect x="112" y="47" width="2242" height="1377"/>
  </clipPath>
</defs>
<polyline clip-path="url(#clip982)" style="stroke:#000000; stroke-linecap:round; stroke-linejoin:round; stroke-width:2; stroke-opacity:0.1; fill:none" points="112.177,1423.18 112.177,47.2441 "/>
<polyline clip-path="url(#clip982)" style="stroke:#000000; stroke-linecap:round; stroke-linejoin:round; stroke-width:2; stroke-opacity:0.1; fill:none" points="560.293,1423.18 560.293,47.2441 "/>
<polyline clip-path="url(#clip982)" style="stroke:#000000; stroke-linecap:round; stroke-linejoin:round; stroke-width:2; stroke-opacity:0.1; fill:none" points="1008.41,1423.18 1008.41,47.2441 "/>
<polyline clip-path="url(#clip982)" style="stroke:#000000; stroke-linecap:round; stroke-linejoin:round; stroke-width:2; stroke-opacity:0.1; fill:none" points="1456.52,1423.18 1456.52,47.2441 "/>
<polyline clip-path="url(#clip982)" style="stroke:#000000; stroke-linecap:round; stroke-linejoin:round; stroke-width:2; stroke-opacity:0.1; fill:none" points="1904.64,1423.18 1904.64,47.2441 "/>
<polyline clip-path="url(#clip982)" style="stroke:#000000; stroke-linecap:round; stroke-linejoin:round; stroke-width:2; stroke-opacity:0.1; fill:none" points="2352.76,1423.18 2352.76,47.2441 "/>
<polyline clip-path="url(#clip982)" style="stroke:#000000; stroke-linecap:round; stroke-linejoin:round; stroke-width:2; stroke-opacity:0.1; fill:none" points="112.177,1384.24 2352.76,1384.24 "/>
<polyline clip-path="url(#clip982)" style="stroke:#000000; stroke-linecap:round; stroke-linejoin:round; stroke-width:2; stroke-opacity:0.1; fill:none" points="112.177,1013.37 2352.76,1013.37 "/>
<polyline clip-path="url(#clip982)" style="stroke:#000000; stroke-linecap:round; stroke-linejoin:round; stroke-width:2; stroke-opacity:0.1; fill:none" points="112.177,642.494 2352.76,642.494 "/>
<polyline clip-path="url(#clip982)" style="stroke:#000000; stroke-linecap:round; stroke-linejoin:round; stroke-width:2; stroke-opacity:0.1; fill:none" points="112.177,271.622 2352.76,271.622 "/>
<polyline clip-path="url(#clip980)" style="stroke:#000000; stroke-linecap:round; stroke-linejoin:round; stroke-width:4; stroke-opacity:1; fill:none" points="112.177,1423.18 2352.76,1423.18 "/>
<polyline clip-path="url(#clip980)" style="stroke:#000000; stroke-linecap:round; stroke-linejoin:round; stroke-width:4; stroke-opacity:1; fill:none" points="112.177,1423.18 112.177,1404.28 "/>
<polyline clip-path="url(#clip980)" style="stroke:#000000; stroke-linecap:round; stroke-linejoin:round; stroke-width:4; stroke-opacity:1; fill:none" points="560.293,1423.18 560.293,1404.28 "/>
<polyline clip-path="url(#clip980)" style="stroke:#000000; stroke-linecap:round; stroke-linejoin:round; stroke-width:4; stroke-opacity:1; fill:none" points="1008.41,1423.18 1008.41,1404.28 "/>
<polyline clip-path="url(#clip980)" style="stroke:#000000; stroke-linecap:round; stroke-linejoin:round; stroke-width:4; stroke-opacity:1; fill:none" points="1456.52,1423.18 1456.52,1404.28 "/>
<polyline clip-path="url(#clip980)" style="stroke:#000000; stroke-linecap:round; stroke-linejoin:round; stroke-width:4; stroke-opacity:1; fill:none" points="1904.64,1423.18 1904.64,1404.28 "/>
<polyline clip-path="url(#clip980)" style="stroke:#000000; stroke-linecap:round; stroke-linejoin:round; stroke-width:4; stroke-opacity:1; fill:none" points="2352.76,1423.18 2352.76,1404.28 "/>
<path clip-path="url(#clip980)" d="M112.177 1454.1 Q108.566 1454.1 106.737 1457.66 Q104.932 1461.2 104.932 1468.33 Q104.932 1475.44 106.737 1479.01 Q108.566 1482.55 112.177 1482.55 Q115.811 1482.55 117.617 1479.01 Q119.446 1475.44 119.446 1468.33 Q119.446 1461.2 117.617 1457.66 Q115.811 1454.1 112.177 1454.1 M112.177 1450.39 Q117.987 1450.39 121.043 1455 Q124.122 1459.58 124.122 1468.33 Q124.122 1477.06 121.043 1481.67 Q117.987 1486.25 112.177 1486.25 Q106.367 1486.25 103.288 1481.67 Q100.233 1477.06 100.233 1468.33 Q100.233 1459.58 103.288 1455 Q106.367 1450.39 112.177 1450.39 Z" fill="#000000" fill-rule="nonzero" fill-opacity="1" /><path clip-path="url(#clip980)" d="M554.946 1481.64 L571.265 1481.64 L571.265 1485.58 L549.321 1485.58 L549.321 1481.64 Q551.983 1478.89 556.566 1474.26 Q561.173 1469.61 562.353 1468.27 Q564.598 1465.74 565.478 1464.01 Q566.381 1462.25 566.381 1460.56 Q566.381 1457.8 564.436 1456.07 Q562.515 1454.33 559.413 1454.33 Q557.214 1454.33 554.761 1455.09 Q552.33 1455.86 549.552 1457.41 L549.552 1452.69 Q552.376 1451.55 554.83 1450.97 Q557.284 1450.39 559.321 1450.39 Q564.691 1450.39 567.885 1453.08 Q571.08 1455.77 571.08 1460.26 Q571.08 1462.39 570.27 1464.31 Q569.483 1466.2 567.376 1468.8 Q566.798 1469.47 563.696 1472.69 Q560.594 1475.88 554.946 1481.64 Z" fill="#000000" fill-rule="nonzero" fill-opacity="1" /><path clip-path="url(#clip980)" d="M1011.42 1455.09 L999.612 1473.54 L1011.42 1473.54 L1011.42 1455.09 M1010.19 1451.02 L1016.07 1451.02 L1016.07 1473.54 L1021 1473.54 L1021 1477.43 L1016.07 1477.43 L1016.07 1485.58 L1011.42 1485.58 L1011.42 1477.43 L995.816 1477.43 L995.816 1472.92 L1010.19 1451.02 Z" fill="#000000" fill-rule="nonzero" fill-opacity="1" /><path clip-path="url(#clip980)" d="M1456.93 1466.44 Q1453.78 1466.44 1451.93 1468.59 Q1450.1 1470.74 1450.1 1474.49 Q1450.1 1478.22 1451.93 1480.39 Q1453.78 1482.55 1456.93 1482.55 Q1460.08 1482.55 1461.91 1480.39 Q1463.76 1478.22 1463.76 1474.49 Q1463.76 1470.74 1461.91 1468.59 Q1460.08 1466.44 1456.93 1466.44 M1466.21 1451.78 L1466.21 1456.04 Q1464.45 1455.21 1462.65 1454.77 Q1460.86 1454.33 1459.11 1454.33 Q1454.48 1454.33 1452.02 1457.45 Q1449.59 1460.58 1449.24 1466.9 Q1450.61 1464.89 1452.67 1463.82 Q1454.73 1462.73 1457.21 1462.73 Q1462.42 1462.73 1465.42 1465.9 Q1468.46 1469.05 1468.46 1474.49 Q1468.46 1479.82 1465.31 1483.03 Q1462.16 1486.25 1456.93 1486.25 Q1450.93 1486.25 1447.76 1481.67 Q1444.59 1477.06 1444.59 1468.33 Q1444.59 1460.14 1448.48 1455.28 Q1452.37 1450.39 1458.92 1450.39 Q1460.68 1450.39 1462.46 1450.74 Q1464.27 1451.09 1466.21 1451.78 Z" fill="#000000" fill-rule="nonzero" fill-opacity="1" /><path clip-path="url(#clip980)" d="M1904.64 1469.17 Q1901.31 1469.17 1899.39 1470.95 Q1897.49 1472.73 1897.49 1475.86 Q1897.49 1478.98 1899.39 1480.77 Q1901.31 1482.55 1904.64 1482.55 Q1907.97 1482.55 1909.89 1480.77 Q1911.82 1478.96 1911.82 1475.86 Q1911.82 1472.73 1909.89 1470.95 Q1908 1469.17 1904.64 1469.17 M1899.96 1467.18 Q1896.96 1466.44 1895.27 1464.38 Q1893.6 1462.32 1893.6 1459.35 Q1893.6 1455.21 1896.54 1452.8 Q1899.5 1450.39 1904.64 1450.39 Q1909.8 1450.39 1912.74 1452.8 Q1915.68 1455.21 1915.68 1459.35 Q1915.68 1462.32 1913.99 1464.38 Q1912.33 1466.44 1909.34 1467.18 Q1912.72 1467.96 1914.59 1470.26 Q1916.49 1472.55 1916.49 1475.86 Q1916.49 1480.88 1913.41 1483.57 Q1910.36 1486.25 1904.64 1486.25 Q1898.92 1486.25 1895.84 1483.57 Q1892.79 1480.88 1892.79 1475.86 Q1892.79 1472.55 1894.69 1470.26 Q1896.58 1467.96 1899.96 1467.18 M1898.25 1459.79 Q1898.25 1462.48 1899.92 1463.98 Q1901.61 1465.49 1904.64 1465.49 Q1907.65 1465.49 1909.34 1463.98 Q1911.05 1462.48 1911.05 1459.79 Q1911.05 1457.11 1909.34 1455.6 Q1907.65 1454.1 1904.64 1454.1 Q1901.61 1454.1 1899.92 1455.6 Q1898.25 1457.11 1898.25 1459.79 Z" fill="#000000" fill-rule="nonzero" fill-opacity="1" /><path clip-path="url(#clip980)" d="M2327.44 1481.64 L2335.08 1481.64 L2335.08 1455.28 L2326.77 1456.95 L2326.77 1452.69 L2335.04 1451.02 L2339.71 1451.02 L2339.71 1481.64 L2347.35 1481.64 L2347.35 1485.58 L2327.44 1485.58 L2327.44 1481.64 Z" fill="#000000" fill-rule="nonzero" fill-opacity="1" /><path clip-path="url(#clip980)" d="M2366.8 1454.1 Q2363.18 1454.1 2361.36 1457.66 Q2359.55 1461.2 2359.55 1468.33 Q2359.55 1475.44 2361.36 1479.01 Q2363.18 1482.55 2366.8 1482.55 Q2370.43 1482.55 2372.23 1479.01 Q2374.06 1475.44 2374.06 1468.33 Q2374.06 1461.2 2372.23 1457.66 Q2370.43 1454.1 2366.8 1454.1 M2366.8 1450.39 Q2372.61 1450.39 2375.66 1455 Q2378.74 1459.58 2378.74 1468.33 Q2378.74 1477.06 2375.66 1481.67 Q2372.61 1486.25 2366.8 1486.25 Q2360.99 1486.25 2357.91 1481.67 Q2354.85 1477.06 2354.85 1468.33 Q2354.85 1459.58 2357.91 1455 Q2360.99 1450.39 2366.8 1450.39 Z" fill="#000000" fill-rule="nonzero" fill-opacity="1" /><path clip-path="url(#clip980)" d="M1231.53 1522.27 L1231.53 1532.4 L1243.59 1532.4 L1243.59 1536.95 L1231.53 1536.95 L1231.53 1556.3 Q1231.53 1560.66 1232.71 1561.9 Q1233.91 1563.14 1237.58 1563.14 L1243.59 1563.14 L1243.59 1568.04 L1237.58 1568.04 Q1230.8 1568.04 1228.22 1565.53 Q1225.64 1562.98 1225.64 1556.3 L1225.64 1536.95 L1221.34 1536.95 L1221.34 1532.4 L1225.64 1532.4 L1225.64 1522.27 L1231.53 1522.27 Z" fill="#000000" fill-rule="nonzero" fill-opacity="1" /><polyline clip-path="url(#clip980)" style="stroke:#000000; stroke-linecap:round; stroke-linejoin:round; stroke-width:4; stroke-opacity:1; fill:none" points="112.177,1423.18 112.177,47.2441 "/>
<polyline clip-path="url(#clip980)" style="stroke:#000000; stroke-linecap:round; stroke-linejoin:round; stroke-width:4; stroke-opacity:1; fill:none" points="112.177,1384.24 131.075,1384.24 "/>
<polyline clip-path="url(#clip980)" style="stroke:#000000; stroke-linecap:round; stroke-linejoin:round; stroke-width:4; stroke-opacity:1; fill:none" points="112.177,1013.37 131.075,1013.37 "/>
<polyline clip-path="url(#clip980)" style="stroke:#000000; stroke-linecap:round; stroke-linejoin:round; stroke-width:4; stroke-opacity:1; fill:none" points="112.177,642.494 131.075,642.494 "/>
<polyline clip-path="url(#clip980)" style="stroke:#000000; stroke-linecap:round; stroke-linejoin:round; stroke-width:4; stroke-opacity:1; fill:none" points="112.177,271.622 131.075,271.622 "/>
<path clip-path="url(#clip980)" d="M64.2328 1370.04 Q60.6217 1370.04 58.793 1373.6 Q56.9875 1377.14 56.9875 1384.27 Q56.9875 1391.38 58.793 1394.94 Q60.6217 1398.49 64.2328 1398.49 Q67.867 1398.49 69.6726 1394.94 Q71.5013 1391.38 71.5013 1384.27 Q71.5013 1377.14 69.6726 1373.6 Q67.867 1370.04 64.2328 1370.04 M64.2328 1366.33 Q70.0429 1366.33 73.0985 1370.94 Q76.1772 1375.52 76.1772 1384.27 Q76.1772 1393 73.0985 1397.61 Q70.0429 1402.19 64.2328 1402.19 Q58.4226 1402.19 55.344 1397.61 Q52.2884 1393 52.2884 1384.27 Q52.2884 1375.52 55.344 1370.94 Q58.4226 1366.33 64.2328 1366.33 Z" fill="#000000" fill-rule="nonzero" fill-opacity="1" /><path clip-path="url(#clip980)" d="M59.8578 1026.71 L76.1772 1026.71 L76.1772 1030.65 L54.2328 1030.65 L54.2328 1026.71 Q56.8949 1023.96 61.4782 1019.33 Q66.0846 1014.67 67.2652 1013.33 Q69.5105 1010.81 70.3902 1009.07 Q71.2929 1007.31 71.2929 1005.62 Q71.2929 1002.87 69.3485 1001.13 Q67.4272 999.396 64.3254 999.396 Q62.1263 999.396 59.6726 1000.16 Q57.2421 1000.92 54.4643 1002.47 L54.4643 997.753 Q57.2884 996.619 59.7421 996.04 Q62.1958 995.461 64.2328 995.461 Q69.6031 995.461 72.7976 998.146 Q75.992 1000.83 75.992 1005.32 Q75.992 1007.45 75.1818 1009.37 Q74.3948 1011.27 72.2883 1013.86 Q71.7096 1014.54 68.6078 1017.75 Q65.5059 1020.95 59.8578 1026.71 Z" fill="#000000" fill-rule="nonzero" fill-opacity="1" /><path clip-path="url(#clip980)" d="M66.5939 629.288 L54.7884 647.737 L66.5939 647.737 L66.5939 629.288 M65.367 625.214 L71.2466 625.214 L71.2466 647.737 L76.1772 647.737 L76.1772 651.626 L71.2466 651.626 L71.2466 659.774 L66.5939 659.774 L66.5939 651.626 L50.9921 651.626 L50.9921 647.112 L65.367 625.214 Z" fill="#000000" fill-rule="nonzero" fill-opacity="1" /><path clip-path="url(#clip980)" d="M64.6495 269.758 Q61.5013 269.758 59.6495 271.911 Q57.8208 274.064 57.8208 277.814 Q57.8208 281.541 59.6495 283.717 Q61.5013 285.869 64.6495 285.869 Q67.7976 285.869 69.6263 283.717 Q71.4781 281.541 71.4781 277.814 Q71.4781 274.064 69.6263 271.911 Q67.7976 269.758 64.6495 269.758 M73.9318 255.106 L73.9318 259.365 Q72.1726 258.532 70.367 258.092 Q68.5846 257.652 66.8254 257.652 Q62.1958 257.652 59.7421 260.777 Q57.3115 263.902 56.9643 270.221 Q58.33 268.207 60.3902 267.143 Q62.4504 266.055 64.9272 266.055 Q70.1355 266.055 73.1448 269.226 Q76.1772 272.374 76.1772 277.814 Q76.1772 283.138 73.029 286.355 Q69.8809 289.573 64.6495 289.573 Q58.6541 289.573 55.4828 284.99 Q52.3116 280.383 52.3116 271.656 Q52.3116 263.462 56.2004 258.601 Q60.0893 253.717 66.6402 253.717 Q68.3994 253.717 70.1818 254.064 Q71.9874 254.411 73.9318 255.106 Z" fill="#000000" fill-rule="nonzero" fill-opacity="1" /><polyline clip-path="url(#clip982)" style="stroke:#009af9; stroke-linecap:round; stroke-linejoin:round; stroke-width:8; stroke-opacity:1; fill:none" points="112.177,1384.24 114.42,1384.24 116.663,1384.24 118.906,1384.24 121.148,1384.24 123.391,1384.24 125.634,1384.24 127.877,1384.24 130.12,1384.24 132.363,1384.24 134.605,1384.24 136.848,1384.24 139.091,1384.24 141.334,1384.24 143.577,1384.24 145.819,1384.24 148.062,1384.24 150.305,1384.24 152.548,1384.24 154.791,1384.24 157.034,1384.24 159.276,1384.24 161.519,1384.24 163.762,1384.24 166.005,1384.24 168.248,1384.24 170.491,1384.24 172.733,1384.24 174.976,1384.24 177.219,1384.24 179.462,1384.24 181.705,1384.24 183.947,1384.24 186.19,1384.24 188.433,1384.24 190.676,1384.24 192.919,1384.24 195.162,1384.24 197.404,1384.24 199.647,1384.24 201.89,1384.24 204.133,1384.24 206.376,1384.24 208.619,1384.24 210.861,1384.24 213.104,1384.24 215.347,1384.24 217.59,1384.24 219.833,1384.24 222.075,1384.24 224.318,1384.24 226.561,1384.24 228.804,1198.8 231.047,1198.8 233.29,1198.8 235.532,1198.8 237.775,1198.8 240.018,1198.8 242.261,1198.8 244.504,1198.8 246.746,1198.8 248.989,1198.8 251.232,1198.8 253.475,1198.8 255.718,1198.8 257.961,1198.8 260.203,1198.8 262.446,1198.8 264.689,1198.8 266.932,1198.8 269.175,1198.8 271.418,1198.8 273.66,1198.8 275.903,1198.8 278.146,1198.8 280.389,1198.8 282.632,1198.8 284.874,1198.8 287.117,1198.8 289.36,1198.8 291.603,1198.8 293.846,1198.8 296.089,1198.8 298.331,1198.8 300.574,1198.8 302.817,1198.8 305.06,1198.8 307.303,1198.8 309.545,1198.8 311.788,1198.8 314.031,1198.8 316.274,1198.8 318.517,1198.8 320.76,1198.8 323.002,1198.8 325.245,1198.8 327.488,1198.8 329.731,1198.8 331.974,1198.8 334.217,1198.8 336.459,1198.8 338.702,1198.8 340.945,1198.8 343.188,1198.8 345.431,1198.8 347.673,1198.8 349.916,1198.8 352.159,1198.8 354.402,1198.8 356.645,1198.8 358.888,1198.8 361.13,1198.8 363.373,1198.8 365.616,1198.8 367.859,1198.8 370.102,1198.8 372.344,1198.8 374.587,1198.8 376.83,1198.8 379.073,1198.8 381.316,1198.8 383.559,1198.8 385.801,1198.8 388.044,1198.8 390.287,1198.8 392.53,1198.8 394.773,1198.8 397.016,1198.8 399.258,1198.8 401.501,1198.8 403.744,1198.8 405.987,1198.8 408.23,1198.8 410.472,1198.8 412.715,1198.8 414.958,1198.8 417.201,1198.8 419.444,1198.8 421.687,1198.8 423.929,1198.8 426.172,1198.8 428.415,1198.8 430.658,1198.8 432.901,1198.8 435.143,1198.8 437.386,1198.8 439.629,1198.8 441.872,1198.8 444.115,1198.8 446.358,1198.8 448.6,1198.8 450.843,1198.8 453.086,1198.8 455.329,1198.8 457.572,1198.8 459.815,1198.8 462.057,1198.8 464.3,1198.8 466.543,1198.8 468.786,1198.8 471.029,1198.8 473.271,1198.8 475.514,1198.8 477.757,1198.8 480,1198.8 482.243,1198.8 484.486,1198.8 486.728,1198.8 488.971,1198.8 491.214,1198.8 493.457,1198.8 495.7,1198.8 497.942,1198.8 500.185,1198.8 502.428,1198.8 504.671,1198.8 506.914,1013.37 509.157,1013.37 511.399,1013.37 513.642,1013.37 515.885,1013.37 518.128,1013.37 520.371,1013.37 522.614,1013.37 524.856,1013.37 527.099,1013.37 529.342,1013.37 531.585,1013.37 533.828,1013.37 536.07,1013.37 538.313,1013.37 540.556,1013.37 542.799,1013.37 545.042,1013.37 547.285,1013.37 549.527,1013.37 551.77,1013.37 554.013,1013.37 556.256,1013.37 558.499,1013.37 560.741,1013.37 562.984,1013.37 565.227,1013.37 567.47,1013.37 569.713,1013.37 571.956,1013.37 574.198,1013.37 576.441,1013.37 578.684,1013.37 580.927,1013.37 583.17,1013.37 585.413,1013.37 587.655,1013.37 589.898,1013.37 592.141,1013.37 594.384,1013.37 596.627,1013.37 598.869,1013.37 601.112,1013.37 603.355,1013.37 605.598,1013.37 607.841,1013.37 610.084,1013.37 612.326,1013.37 614.569,1013.37 616.812,1013.37 619.055,1013.37 621.298,1013.37 623.54,1013.37 625.783,1013.37 628.026,1013.37 630.269,1013.37 632.512,1013.37 634.755,1013.37 636.997,1013.37 639.24,1013.37 641.483,1013.37 643.726,1013.37 645.969,1013.37 648.212,1013.37 650.454,1013.37 652.697,1013.37 654.94,1013.37 657.183,1013.37 659.426,1013.37 661.668,1013.37 663.911,1013.37 666.154,1013.37 668.397,1013.37 670.64,1013.37 672.883,1013.37 675.125,1013.37 677.368,1013.37 679.611,1013.37 681.854,1013.37 684.097,1013.37 686.339,1013.37 688.582,1013.37 690.825,1013.37 693.068,1013.37 695.311,1013.37 697.554,1013.37 699.796,1013.37 702.039,1013.37 704.282,1013.37 706.525,1013.37 708.768,1013.37 711.011,1013.37 713.253,1013.37 715.496,1013.37 717.739,1013.37 719.982,1013.37 722.225,1013.37 724.467,1013.37 726.71,1013.37 728.953,1013.37 731.196,1013.37 733.439,1013.37 735.682,1013.37 737.924,1013.37 740.167,1013.37 742.41,1013.37 744.653,1013.37 746.896,1013.37 749.138,1013.37 751.381,1013.37 753.624,1013.37 755.867,1013.37 758.11,1013.37 760.353,1013.37 762.595,1013.37 764.838,1013.37 767.081,1013.37 769.324,1013.37 771.567,1013.37 773.81,1013.37 776.052,1013.37 778.295,1013.37 780.538,1013.37 782.781,1013.37 785.024,1013.37 787.266,1013.37 789.509,1013.37 791.752,1013.37 793.995,1013.37 796.238,1013.37 798.481,1013.37 800.723,1013.37 802.966,1013.37 805.209,1013.37 807.452,1013.37 809.695,1013.37 811.938,1013.37 814.18,1013.37 816.423,1013.37 818.666,1013.37 820.909,1013.37 823.152,1013.37 825.394,1013.37 827.637,1013.37 829.88,1013.37 832.123,1013.37 834.366,1013.37 836.609,1013.37 838.851,1013.37 841.094,1013.37 843.337,1013.37 845.58,1013.37 847.823,1013.37 850.065,1013.37 852.308,1013.37 854.551,1013.37 856.794,1013.37 859.037,1013.37 861.28,1013.37 863.522,1013.37 865.765,1013.37 868.008,1013.37 870.251,1013.37 872.494,1013.37 874.737,1013.37 876.979,1013.37 879.222,1013.37 881.465,1013.37 883.708,1013.37 885.951,1013.37 888.193,1013.37 890.436,1013.37 892.679,1013.37 894.922,1013.37 897.165,1013.37 899.408,1013.37 901.65,1013.37 903.893,1013.37 906.136,1013.37 908.379,1013.37 910.622,1013.37 912.864,1013.37 915.107,1013.37 917.35,1013.37 919.593,1013.37 921.836,1013.37 924.079,1013.37 926.321,1013.37 928.564,1013.37 930.807,1013.37 933.05,1013.37 935.293,1013.37 937.536,1013.37 939.778,1013.37 942.021,1013.37 944.264,1013.37 946.507,1013.37 948.75,1013.37 950.992,1013.37 953.235,1013.37 955.478,1013.37 957.721,1013.37 959.964,1013.37 962.207,1013.37 964.449,1013.37 966.692,1013.37 968.935,1013.37 971.178,1013.37 973.421,1013.37 975.663,1013.37 977.906,1013.37 980.149,1013.37 982.392,1013.37 984.635,1013.37 986.878,1013.37 989.12,1013.37 991.363,1013.37 993.606,1013.37 995.849,1013.37 998.092,1013.37 1000.33,1013.37 1002.58,1013.37 1004.82,1013.37 1007.06,1013.37 1009.31,1013.37 1011.55,1013.37 1013.79,1013.37 1016.03,1013.37 1018.28,1013.37 1020.52,1013.37 1022.76,1013.37 1025.01,1013.37 1027.25,1013.37 1029.49,1013.37 1031.73,1013.37 1033.98,1013.37 1036.22,1013.37 1038.46,1013.37 1040.71,1013.37 1042.95,1013.37 1045.19,1013.37 1047.43,1013.37 1049.68,1013.37 1051.92,1013.37 1054.16,1013.37 1056.41,1013.37 1058.65,1013.37 1060.89,1013.37 1063.13,1013.37 1065.38,1013.37 1067.62,1013.37 1069.86,1013.37 1072.1,1013.37 1074.35,1013.37 1076.59,1013.37 1078.83,1013.37 1081.08,1013.37 1083.32,1013.37 1085.56,1013.37 1087.8,1013.37 1090.05,1013.37 1092.29,1013.37 1094.53,1013.37 1096.78,1013.37 1099.02,1013.37 1101.26,1013.37 1103.5,1013.37 1105.75,1013.37 1107.99,1013.37 1110.23,1013.37 1112.48,1013.37 1114.72,1013.37 1116.96,1013.37 1119.2,1013.37 1121.45,1013.37 1123.69,1013.37 1125.93,1013.37 1128.18,1013.37 1130.42,1013.37 1132.66,1013.37 1134.9,1013.37 1137.15,1013.37 1139.39,1013.37 1141.63,1013.37 1143.88,1013.37 1146.12,1013.37 1148.36,1013.37 1150.6,1013.37 1152.85,1013.37 1155.09,1013.37 1157.33,1013.37 1159.57,1013.37 1161.82,1013.37 1164.06,1013.37 1166.3,1013.37 1168.55,1013.37 1170.79,1013.37 1173.03,1013.37 1175.27,1013.37 1177.52,1013.37 1179.76,1013.37 1182,1013.37 1184.25,1013.37 1186.49,1013.37 1188.73,1013.37 1190.97,1013.37 1193.22,1013.37 1195.46,1013.37 1197.7,1013.37 1199.95,1013.37 1202.19,1013.37 1204.43,1013.37 1206.67,1013.37 1208.92,1013.37 1211.16,1013.37 1213.4,1013.37 1215.65,1013.37 1217.89,1013.37 1220.13,1013.37 1222.37,1013.37 1224.62,1013.37 1226.86,1013.37 1229.1,1013.37 1231.35,1013.37 1233.59,1013.37 1235.83,1013.37 1238.07,1013.37 1240.32,1013.37 1242.56,1013.37 1244.8,1013.37 1247.04,1013.37 1249.29,1013.37 1251.53,1013.37 1253.77,1013.37 1256.02,1013.37 1258.26,1013.37 1260.5,1013.37 1262.74,1013.37 1264.99,1013.37 1267.23,1013.37 1269.47,1013.37 1271.72,1013.37 1273.96,1013.37 1276.2,1013.37 1278.44,1013.37 1280.69,1013.37 1282.93,1013.37 1285.17,1013.37 1287.42,1013.37 1289.66,827.93 1291.9,827.93 1294.14,827.93 1296.39,827.93 1298.63,827.93 1300.87,827.93 1303.12,827.93 1305.36,827.93 1307.6,827.93 1309.84,827.93 1312.09,827.93 1314.33,827.93 1316.57,827.93 1318.82,827.93 1321.06,827.93 1323.3,827.93 1325.54,827.93 1327.79,827.93 1330.03,827.93 1332.27,827.93 1334.51,827.93 1336.76,827.93 1339,827.93 1341.24,827.93 1343.49,827.93 1345.73,827.93 1347.97,827.93 1350.21,827.93 1352.46,827.93 1354.7,827.93 1356.94,827.93 1359.19,827.93 1361.43,827.93 1363.67,827.93 1365.91,827.93 1368.16,827.93 1370.4,827.93 1372.64,827.93 1374.89,827.93 1377.13,827.93 1379.37,827.93 1381.61,827.93 1383.86,827.93 1386.1,827.93 1388.34,827.93 1390.59,827.93 1392.83,827.93 1395.07,827.93 1397.31,827.93 1399.56,827.93 1401.8,827.93 1404.04,827.93 1406.29,827.93 1408.53,827.93 1410.77,827.93 1413.01,827.93 1415.26,827.93 1417.5,827.93 1419.74,827.93 1421.98,827.93 1424.23,827.93 1426.47,827.93 1428.71,827.93 1430.96,827.93 1433.2,827.93 1435.44,827.93 1437.68,827.93 1439.93,827.93 1442.17,827.93 1444.41,827.93 1446.66,827.93 1448.9,827.93 1451.14,827.93 1453.38,827.93 1455.63,827.93 1457.87,827.93 1460.11,827.93 1462.36,827.93 1464.6,827.93 1466.84,827.93 1469.08,827.93 1471.33,827.93 1473.57,827.93 1475.81,827.93 1478.06,827.93 1480.3,827.93 1482.54,827.93 1484.78,827.93 1487.03,827.93 1489.27,827.93 1491.51,827.93 1493.76,827.93 1496,827.93 1498.24,827.93 1500.48,827.93 1502.73,827.93 1504.97,827.93 1507.21,827.93 1509.46,827.93 1511.7,827.93 1513.94,827.93 1516.18,827.93 1518.43,827.93 1520.67,827.93 1522.91,827.93 1525.15,827.93 1527.4,827.93 1529.64,642.494 1531.88,642.494 1534.13,642.494 1536.37,642.494 1538.61,642.494 1540.85,642.494 1543.1,642.494 1545.34,642.494 1547.58,642.494 1549.83,642.494 1552.07,642.494 1554.31,642.494 1556.55,642.494 1558.8,642.494 1561.04,642.494 1563.28,642.494 1565.53,642.494 1567.77,642.494 1570.01,642.494 1572.25,642.494 1574.5,642.494 1576.74,642.494 1578.98,642.494 1581.23,642.494 1583.47,642.494 1585.71,642.494 1587.95,642.494 1590.2,642.494 1592.44,642.494 1594.68,642.494 1596.93,642.494 1599.17,642.494 1601.41,642.494 1603.65,642.494 1605.9,642.494 1608.14,642.494 1610.38,642.494 1612.62,642.494 1614.87,642.494 1617.11,642.494 1619.35,642.494 1621.6,642.494 1623.84,642.494 1626.08,642.494 1628.32,642.494 1630.57,642.494 1632.81,642.494 1635.05,642.494 1637.3,642.494 1639.54,642.494 1641.78,642.494 1644.02,642.494 1646.27,642.494 1648.51,642.494 1650.75,642.494 1653,642.494 1655.24,642.494 1657.48,642.494 1659.72,642.494 1661.97,642.494 1664.21,642.494 1666.45,642.494 1668.7,642.494 1670.94,642.494 1673.18,642.494 1675.42,642.494 1677.67,642.494 1679.91,642.494 1682.15,642.494 1684.4,642.494 1686.64,642.494 1688.88,642.494 1691.12,642.494 1693.37,642.494 1695.61,642.494 1697.85,642.494 1700.09,642.494 1702.34,642.494 1704.58,642.494 1706.82,642.494 1709.07,642.494 1711.31,642.494 1713.55,642.494 1715.79,642.494 1718.04,642.494 1720.28,642.494 1722.52,642.494 1724.77,642.494 1727.01,642.494 1729.25,642.494 1731.49,642.494 1733.74,642.494 1735.98,642.494 1738.22,642.494 1740.47,642.494 1742.71,642.494 1744.95,642.494 1747.19,642.494 1749.44,642.494 1751.68,642.494 1753.92,642.494 1756.17,642.494 1758.41,642.494 1760.65,642.494 1762.89,642.494 1765.14,642.494 1767.38,642.494 1769.62,642.494 1771.87,642.494 1774.11,642.494 1776.35,642.494 1778.59,642.494 1780.84,642.494 1783.08,642.494 1785.32,642.494 1787.56,642.494 1789.81,642.494 1792.05,642.494 1794.29,642.494 1796.54,642.494 1798.78,642.494 1801.02,642.494 1803.26,642.494 1805.51,642.494 1807.75,642.494 1809.99,642.494 1812.24,642.494 1814.48,642.494 1816.72,642.494 1818.96,642.494 1821.21,642.494 1823.45,642.494 1825.69,642.494 1827.94,642.494 1830.18,642.494 1832.42,642.494 1834.66,642.494 1836.91,642.494 1839.15,642.494 1841.39,642.494 1843.64,642.494 1845.88,642.494 1848.12,642.494 1850.36,642.494 1852.61,642.494 1854.85,642.494 1857.09,642.494 1859.34,642.494 1861.58,642.494 1863.82,642.494 1866.06,642.494 1868.31,642.494 1870.55,642.494 1872.79,642.494 1875.03,642.494 1877.28,642.494 1879.52,642.494 1881.76,642.494 1884.01,642.494 1886.25,642.494 1888.49,642.494 1890.73,642.494 1892.98,642.494 1895.22,642.494 1897.46,457.058 1899.71,457.058 1901.95,457.058 1904.19,457.058 1906.43,457.058 1908.68,457.058 1910.92,457.058 1913.16,457.058 1915.41,457.058 1917.65,457.058 1919.89,457.058 1922.13,457.058 1924.38,457.058 1926.62,457.058 1928.86,457.058 1931.11,457.058 1933.35,457.058 1935.59,457.058 1937.83,457.058 1940.08,457.058 1942.32,457.058 1944.56,457.058 1946.81,457.058 1949.05,457.058 1951.29,457.058 1953.53,457.058 1955.78,457.058 1958.02,457.058 1960.26,457.058 1962.5,457.058 1964.75,457.058 1966.99,457.058 1969.23,457.058 1971.48,457.058 1973.72,457.058 1975.96,457.058 1978.2,457.058 1980.45,457.058 1982.69,457.058 1984.93,457.058 1987.18,457.058 1989.42,457.058 1991.66,457.058 1993.9,457.058 1996.15,457.058 1998.39,457.058 2000.63,457.058 2002.88,457.058 2005.12,457.058 2007.36,457.058 2009.6,457.058 2011.85,457.058 2014.09,457.058 2016.33,457.058 2018.58,457.058 2020.82,457.058 2023.06,457.058 2025.3,457.058 2027.55,457.058 2029.79,457.058 2032.03,457.058 2034.28,457.058 2036.52,457.058 2038.76,457.058 2041,457.058 2043.25,457.058 2045.49,457.058 2047.73,457.058 2049.97,457.058 2052.22,457.058 2054.46,457.058 2056.7,457.058 2058.95,457.058 2061.19,457.058 2063.43,457.058 2065.67,457.058 2067.92,457.058 2070.16,457.058 2072.4,457.058 2074.65,457.058 2076.89,457.058 2079.13,457.058 2081.37,457.058 2083.62,457.058 2085.86,457.058 2088.1,457.058 2090.35,457.058 2092.59,457.058 2094.83,457.058 2097.07,457.058 2099.32,457.058 2101.56,457.058 2103.8,457.058 2106.05,457.058 2108.29,457.058 2110.53,457.058 2112.77,457.058 2115.02,457.058 2117.26,457.058 2119.5,457.058 2121.75,457.058 2123.99,457.058 2126.23,457.058 2128.47,457.058 2130.72,457.058 2132.96,457.058 2135.2,457.058 2137.45,457.058 2139.69,457.058 2141.93,457.058 2144.17,457.058 2146.42,457.058 2148.66,457.058 2150.9,457.058 2153.14,457.058 2155.39,457.058 2157.63,457.058 2159.87,457.058 2162.12,457.058 2164.36,457.058 2166.6,457.058 2168.84,457.058 2171.09,457.058 2173.33,457.058 2175.57,457.058 2177.82,457.058 2180.06,457.058 2182.3,457.058 2184.54,457.058 2186.79,457.058 2189.03,457.058 2191.27,457.058 2193.52,457.058 2195.76,457.058 2198,457.058 2200.24,457.058 2202.49,457.058 2204.73,457.058 2206.97,271.622 2209.22,271.622 2211.46,271.622 2213.7,271.622 2215.94,86.1857 2218.19,86.1857 2220.43,86.1857 2222.67,86.1857 2224.92,86.1857 2227.16,86.1857 2229.4,86.1857 2231.64,86.1857 2233.89,86.1857 2236.13,86.1857 2238.37,86.1857 2240.61,86.1857 2242.86,86.1857 2245.1,86.1857 2247.34,86.1857 2249.59,86.1857 2251.83,86.1857 2254.07,86.1857 2256.31,86.1857 2258.56,86.1857 2260.8,86.1857 2263.04,86.1857 2265.29,86.1857 2267.53,86.1857 2269.77,86.1857 2272.01,86.1857 2274.26,86.1857 2276.5,86.1857 2278.74,86.1857 2280.99,86.1857 2283.23,86.1857 2285.47,86.1857 2287.71,86.1857 2289.96,86.1857 2292.2,86.1857 2294.44,86.1857 2296.69,86.1857 2298.93,86.1857 2301.17,86.1857 2303.41,86.1857 2305.66,86.1857 2307.9,86.1857 2310.14,86.1857 2312.39,86.1857 2314.63,86.1857 2316.87,86.1857 2319.11,86.1857 2321.36,86.1857 2323.6,86.1857 2325.84,86.1857 2328.08,86.1857 2330.33,86.1857 2332.57,86.1857 2334.81,86.1857 2337.06,86.1857 2339.3,86.1857 2341.54,86.1857 2343.78,86.1857 2346.03,86.1857 2348.27,86.1857 2350.51,86.1857 2352.76,86.1857 "/>
<path clip-path="url(#clip980)" d="M186.863 196.789 L500.018 196.789 L500.018 93.1086 L186.863 93.1086  Z" fill="#ffffff" fill-rule="evenodd" fill-opacity="1"/>
<polyline clip-path="url(#clip980)" style="stroke:#000000; stroke-linecap:round; stroke-linejoin:round; stroke-width:4; stroke-opacity:1; fill:none" points="186.863,196.789 500.018,196.789 500.018,93.1086 186.863,93.1086 186.863,196.789 "/>
<polyline clip-path="url(#clip980)" style="stroke:#009af9; stroke-linecap:round; stroke-linejoin:round; stroke-width:8; stroke-opacity:1; fill:none" points="211.758,144.949 361.13,144.949 "/>
<path clip-path="url(#clip980)" d="M386.026 151.997 L386.026 136.303 L390.285 136.303 L390.285 151.835 Q390.285 155.516 391.72 157.368 Q393.155 159.196 396.026 159.196 Q399.475 159.196 401.465 156.997 Q403.479 154.798 403.479 151.002 L403.479 136.303 L407.739 136.303 L407.739 162.229 L403.479 162.229 L403.479 158.247 Q401.928 160.608 399.868 161.766 Q397.831 162.9 395.123 162.9 Q390.655 162.9 388.34 160.122 Q386.026 157.344 386.026 151.997 M396.743 135.678 L396.743 135.678 Z" fill="#000000" fill-rule="nonzero" fill-opacity="1" /><path clip-path="url(#clip980)" d="M416.118 126.21 L425.933 126.21 L425.933 129.52 L420.377 129.52 L420.377 165.168 L425.933 165.168 L425.933 168.479 L416.118 168.479 L416.118 126.21 Z" fill="#000000" fill-rule="nonzero" fill-opacity="1" /><path clip-path="url(#clip980)" d="M436.419 158.293 L444.058 158.293 L444.058 131.928 L435.748 133.595 L435.748 129.335 L444.011 127.669 L448.687 127.669 L448.687 158.293 L456.326 158.293 L456.326 162.229 L436.419 162.229 L436.419 158.293 Z" fill="#000000" fill-rule="nonzero" fill-opacity="1" /><path clip-path="url(#clip980)" d="M475.122 126.21 L475.122 168.479 L465.308 168.479 L465.308 165.168 L470.84 165.168 L470.84 129.52 L465.308 129.52 L465.308 126.21 L475.122 126.21 Z" fill="#000000" fill-rule="nonzero" fill-opacity="1" /></svg>
