<?xml version="1.0" encoding="utf-8"?>
<svg xmlns="http://www.w3.org/2000/svg" xmlns:xlink="http://www.w3.org/1999/xlink" width="600" height="400" viewBox="0 0 2400 1600">
<defs>
  <clipPath id="clip780">
    <rect x="0" y="0" width="2400" height="1600"/>
  </clipPath>
</defs>
<path clip-path="url(#clip780)" d="M0 1600 L2400 1600 L2400 0 L0 0  Z" fill="#ffffff" fill-rule="evenodd" fill-opacity="1"/>
<defs>
  <clipPath id="clip781">
    <rect x="480" y="0" width="1681" height="1600"/>
  </clipPath>
</defs>
<path clip-path="url(#clip780)" d="M156.598 1423.18 L2352.76 1423.18 L2352.76 47.2441 L156.598 47.2441  Z" fill="#ffffff" fill-rule="evenodd" fill-opacity="1"/>
<defs>
  <clipPath id="clip782">
    <rect x="156" y="47" width="2197" height="1377"/>
  </clipPath>
</defs>
<polyline clip-path="url(#clip782)" style="stroke:#000000; stroke-linecap:round; stroke-linejoin:round; stroke-width:2; stroke-opacity:0.1; fill:none" points="156.598,1423.18 156.598,47.2441 "/>
<polyline clip-path="url(#clip782)" style="stroke:#000000; stroke-linecap:round; stroke-linejoin:round; stroke-width:2; stroke-opacity:0.1; fill:none" points="595.83,1423.18 595.83,47.2441 "/>
<polyline clip-path="url(#clip782)" style="stroke:#000000; stroke-linecap:round; stroke-linejoin:round; stroke-width:2; stroke-opacity:0.1; fill:none" points="1035.06,1423.18 1035.06,47.2441 "/>
<polyline clip-path="url(#clip782)" style="stroke:#000000; stroke-linecap:round; stroke-linejoin:round; stroke-width:2; stroke-opacity:0.1; fill:none" points="1474.29,1423.18 1474.29,47.2441 "/>
<polyline clip-path="url(#clip782)" style="stroke:#000000; stroke-linecap:round; stroke-linejoin:round; stroke-width:2; stroke-opacity:0.1; fill:none" points="1913.52,1423.18 1913.52,47.2441 "/>
<polyline clip-path="url(#clip782)" style="stroke:#000000; stroke-linecap:round; stroke-linejoin:round; stroke-width:2; stroke-opacity:0.1; fill:none" points="2352.76,1423.18 2352.76,47.2441 "/>
<polyline clip-path="url(#clip782)" style="stroke:#000000; stroke-linecap:round; stroke-linejoin:round; stroke-width:2; stroke-opacity:0.1; fill:none" points="156.598,1199.64 2352.76,1199.64 "/>
<polyline clip-path="url(#clip782)" style="stroke:#000000; stroke-linecap:round; stroke-linejoin:round; stroke-width:2; stroke-opacity:0.1; fill:none" points="156.598,919.462 2352.76,919.462 "/>
<polyline clip-path="url(#clip782)" style="stroke:#000000; stroke-linecap:round; stroke-linejoin:round; stroke-width:2; stroke-opacity:0.1; fill:none" points="156.598,639.283 2352.76,639.283 "/>
<polyline clip-path="url(#clip782)" style="stroke:#000000; stroke-linecap:round; stroke-linejoin:round; stroke-width:2; stroke-opacity:0.1; fill:none" points="156.598,359.103 2352.76,359.103 "/>
<polyline clip-path="url(#clip782)" style="stroke:#000000; stroke-linecap:round; stroke-linejoin:round; stroke-width:2; stroke-opacity:0.1; fill:none" points="156.598,78.924 2352.76,78.924 "/>
<polyline clip-path="url(#clip780)" style="stroke:#000000; stroke-linecap:round; stroke-linejoin:round; stroke-width:4; stroke-opacity:1; fill:none" points="156.598,1423.18 2352.76,1423.18 "/>
<polyline clip-path="url(#clip780)" style="stroke:#000000; stroke-linecap:round; stroke-linejoin:round; stroke-width:4; stroke-opacity:1; fill:none" points="156.598,1423.18 156.598,1404.28 "/>
<polyline clip-path="url(#clip780)" style="stroke:#000000; stroke-linecap:round; stroke-linejoin:round; stroke-width:4; stroke-opacity:1; fill:none" points="595.83,1423.18 595.83,1404.28 "/>
<polyline clip-path="url(#clip780)" style="stroke:#000000; stroke-linecap:round; stroke-linejoin:round; stroke-width:4; stroke-opacity:1; fill:none" points="1035.06,1423.18 1035.06,1404.28 "/>
<polyline clip-path="url(#clip780)" style="stroke:#000000; stroke-linecap:round; stroke-linejoin:round; stroke-width:4; stroke-opacity:1; fill:none" points="1474.29,1423.18 1474.29,1404.28 "/>
<polyline clip-path="url(#clip780)" style="stroke:#000000; stroke-linecap:round; stroke-linejoin:round; stroke-width:4; stroke-opacity:1; fill:none" points="1913.52,1423.18 1913.52,1404.28 "/>
<polyline clip-path="url(#clip780)" style="stroke:#000000; stroke-linecap:round; stroke-linejoin:round; stroke-width:4; stroke-opacity:1; fill:none" points="2352.76,1423.18 2352.76,1404.28 "/>
<path clip-path="url(#clip780)" d="M156.598 1454.1 Q152.987 1454.1 151.158 1457.66 Q149.353 1461.2 149.353 1468.33 Q149.353 1475.44 151.158 1479.01 Q152.987 1482.55 156.598 1482.55 Q160.232 1482.55 162.038 1479.01 Q163.867 1475.44 163.867 1468.33 Q163.867 1461.2 162.038 1457.66 Q160.232 1454.1 156.598 1454.1 M156.598 1450.39 Q162.408 1450.39 165.464 1455 Q168.543 1459.58 168.543 1468.33 Q168.543 1477.06 165.464 1481.67 Q162.408 1486.25 156.598 1486.25 Q150.788 1486.25 147.709 1481.67 Q144.654 1477.06 144.654 1468.33 Q144.654 1459.58 147.709 1455 Q150.788 1450.39 156.598 1450.39 Z" fill="#000000" fill-rule="nonzero" fill-opacity="1" /><path clip-path="url(#clip780)" d="M590.483 1481.64 L606.802 1481.64 L606.802 1485.58 L584.858 1485.58 L584.858 1481.64 Q587.52 1478.89 592.103 1474.26 Q596.709 1469.61 597.89 1468.27 Q600.135 1465.74 601.015 1464.01 Q601.918 1462.25 601.918 1460.56 Q601.918 1457.8 599.973 1456.07 Q598.052 1454.33 594.95 1454.33 Q592.751 1454.33 590.297 1455.09 Q587.867 1455.86 585.089 1457.41 L585.089 1452.69 Q587.913 1451.55 590.367 1450.97 Q592.821 1450.39 594.858 1450.39 Q600.228 1450.39 603.422 1453.08 Q606.617 1455.77 606.617 1460.26 Q606.617 1462.39 605.807 1464.31 Q605.02 1466.2 602.913 1468.8 Q602.334 1469.47 599.233 1472.69 Q596.131 1475.88 590.483 1481.64 Z" fill="#000000" fill-rule="nonzero" fill-opacity="1" /><path clip-path="url(#clip780)" d="M1038.07 1455.09 L1026.27 1473.54 L1038.07 1473.54 L1038.07 1455.09 M1036.84 1451.02 L1042.72 1451.02 L1042.72 1473.54 L1047.65 1473.54 L1047.65 1477.43 L1042.72 1477.43 L1042.72 1485.58 L1038.07 1485.58 L1038.07 1477.43 L1022.47 1477.43 L1022.47 1472.92 L1036.84 1451.02 Z" fill="#000000" fill-rule="nonzero" fill-opacity="1" /><path clip-path="url(#clip780)" d="M1474.7 1466.44 Q1471.55 1466.44 1469.7 1468.59 Q1467.87 1470.74 1467.87 1474.49 Q1467.87 1478.22 1469.7 1480.39 Q1471.55 1482.55 1474.7 1482.55 Q1477.85 1482.55 1479.67 1480.39 Q1481.53 1478.22 1481.53 1474.49 Q1481.53 1470.74 1479.67 1468.59 Q1477.85 1466.44 1474.7 1466.44 M1483.98 1451.78 L1483.98 1456.04 Q1482.22 1455.21 1480.42 1454.77 Q1478.63 1454.33 1476.87 1454.33 Q1472.24 1454.33 1469.79 1457.45 Q1467.36 1460.58 1467.01 1466.9 Q1468.38 1464.89 1470.44 1463.82 Q1472.5 1462.73 1474.98 1462.73 Q1480.18 1462.73 1483.19 1465.9 Q1486.23 1469.05 1486.23 1474.49 Q1486.23 1479.82 1483.08 1483.03 Q1479.93 1486.25 1474.7 1486.25 Q1468.7 1486.25 1465.53 1481.67 Q1462.36 1477.06 1462.36 1468.33 Q1462.36 1460.14 1466.25 1455.28 Q1470.14 1450.39 1476.69 1450.39 Q1478.45 1450.39 1480.23 1450.74 Q1482.04 1451.09 1483.98 1451.78 Z" fill="#000000" fill-rule="nonzero" fill-opacity="1" /><path clip-path="url(#clip780)" d="M1913.52 1469.17 Q1910.19 1469.17 1908.27 1470.95 Q1906.37 1472.73 1906.37 1475.86 Q1906.37 1478.98 1908.27 1480.77 Q1910.19 1482.55 1913.52 1482.55 Q1916.86 1482.55 1918.78 1480.77 Q1920.7 1478.96 1920.7 1475.86 Q1920.7 1472.73 1918.78 1470.95 Q1916.88 1469.17 1913.52 1469.17 M1908.85 1467.18 Q1905.84 1466.44 1904.15 1464.38 Q1902.48 1462.32 1902.48 1459.35 Q1902.48 1455.21 1905.42 1452.8 Q1908.39 1450.39 1913.52 1450.39 Q1918.69 1450.39 1921.63 1452.8 Q1924.57 1455.21 1924.57 1459.35 Q1924.57 1462.32 1922.88 1464.38 Q1921.21 1466.44 1918.22 1467.18 Q1921.6 1467.96 1923.48 1470.26 Q1925.38 1472.55 1925.38 1475.86 Q1925.38 1480.88 1922.3 1483.57 Q1919.24 1486.25 1913.52 1486.25 Q1907.81 1486.25 1904.73 1483.57 Q1901.67 1480.88 1901.67 1475.86 Q1901.67 1472.55 1903.57 1470.26 Q1905.47 1467.96 1908.85 1467.18 M1907.14 1459.79 Q1907.14 1462.48 1908.8 1463.98 Q1910.49 1465.49 1913.52 1465.49 Q1916.53 1465.49 1918.22 1463.98 Q1919.94 1462.48 1919.94 1459.79 Q1919.94 1457.11 1918.22 1455.6 Q1916.53 1454.1 1913.52 1454.1 Q1910.49 1454.1 1908.8 1455.6 Q1907.14 1457.11 1907.14 1459.79 Z" fill="#000000" fill-rule="nonzero" fill-opacity="1" /><path clip-path="url(#clip780)" d="M2327.44 1481.64 L2335.08 1481.64 L2335.08 1455.28 L2326.77 1456.95 L2326.77 1452.69 L2335.04 1451.02 L2339.71 1451.02 L2339.71 1481.64 L2347.35 1481.64 L2347.35 1485.58 L2327.44 1485.58 L2327.44 1481.64 Z" fill="#000000" fill-rule="nonzero" fill-opacity="1" /><path clip-path="url(#clip780)" d="M2366.8 1454.1 Q2363.18 1454.1 2361.36 1457.66 Q2359.55 1461.2 2359.55 1468.33 Q2359.55 1475.44 2361.36 1479.01 Q2363.18 1482.55 2366.8 1482.55 Q2370.43 1482.55 2372.23 1479.01 Q2374.06 1475.44 2374.06 1468.33 Q2374.06 1461.2 2372.23 1457.66 Q2370.43 1454.1 2366.8 1454.1 M2366.8 1450.39 Q2372.61 1450.39 2375.66 1455 Q2378.74 1459.58 2378.74 1468.33 Q2378.74 1477.06 2375.66 1481.67 Q2372.61 1486.25 2366.8 1486.25 Q2360.99 1486.25 2357.91 1481.67 Q2354.85 1477.06 2354.85 1468.33 Q2354.85 1459.58 2357.91 1455 Q2360.99 1450.39 2366.8 1450.39 Z" fill="#000000" fill-rule="nonzero" fill-opacity="1" /><path clip-path="url(#clip780)" d="M1253.74 1522.27 L1253.74 1532.4 L1265.8 1532.4 L1265.8 1536.95 L1253.74 1536.95 L1253.74 1556.3 Q1253.74 1560.66 1254.92 1561.9 Q1256.13 1563.14 1259.79 1563.14 L1265.8 1563.14 L1265.8 1568.04 L1259.79 1568.04 Q1253.01 1568.04 1250.43 1565.53 Q1247.85 1562.98 1247.85 1556.3 L1247.85 1536.95 L1243.55 1536.95 L1243.55 1532.4 L1247.85 1532.4 L1247.85 1522.27 L1253.74 1522.27 Z" fill="#000000" fill-rule="nonzero" fill-opacity="1" /><polyline clip-path="url(#clip780)" style="stroke:#000000; stroke-linecap:round; stroke-linejoin:round; stroke-width:4; stroke-opacity:1; fill:none" points="156.598,1423.18 156.598,47.2441 "/>
<polyline clip-path="url(#clip780)" style="stroke:#000000; stroke-linecap:round; stroke-linejoin:round; stroke-width:4; stroke-opacity:1; fill:none" points="156.598,1199.64 175.496,1199.64 "/>
<polyline clip-path="url(#clip780)" style="stroke:#000000; stroke-linecap:round; stroke-linejoin:round; stroke-width:4; stroke-opacity:1; fill:none" points="156.598,919.462 175.496,919.462 "/>
<polyline clip-path="url(#clip780)" style="stroke:#000000; stroke-linecap:round; stroke-linejoin:round; stroke-width:4; stroke-opacity:1; fill:none" points="156.598,639.283 175.496,639.283 "/>
<polyline clip-path="url(#clip780)" style="stroke:#000000; stroke-linecap:round; stroke-linejoin:round; stroke-width:4; stroke-opacity:1; fill:none" points="156.598,359.103 175.496,359.103 "/>
<polyline clip-path="url(#clip780)" style="stroke:#000000; stroke-linecap:round; stroke-linejoin:round; stroke-width:4; stroke-opacity:1; fill:none" points="156.598,78.924 175.496,78.924 "/>
<path clip-path="url(#clip780)" d="M64.6495 1185.44 Q61.0384 1185.44 59.2097 1189.01 Q57.4041 1192.55 57.4041 1199.68 Q57.4041 1206.78 59.2097 1210.35 Q61.0384 1213.89 64.6495 1213.89 Q68.2837 1213.89 70.0892 1210.35 Q71.9179 1206.78 71.9179 1199.68 Q71.9179 1192.55 70.0892 1189.01 Q68.2837 1185.44 64.6495 1185.44 M64.6495 1181.74 Q70.4596 1181.74 73.5152 1186.34 Q76.5938 1190.93 76.5938 1199.68 Q76.5938 1208.4 73.5152 1213.01 Q70.4596 1217.59 64.6495 1217.59 Q58.8393 1217.59 55.7606 1213.01 Q52.7051 1208.4 52.7051 1199.68 Q52.7051 1190.93 55.7606 1186.34 Q58.8393 1181.74 64.6495 1181.74 Z" fill="#000000" fill-rule="nonzero" fill-opacity="1" /><path clip-path="url(#clip780)" d="M84.8114 1211.04 L89.6956 1211.04 L89.6956 1216.92 L84.8114 1216.92 L84.8114 1211.04 Z" fill="#000000" fill-rule="nonzero" fill-opacity="1" /><path clip-path="url(#clip780)" d="M100.691 1212.99 L108.33 1212.99 L108.33 1186.62 L100.02 1188.29 L100.02 1184.03 L108.283 1182.36 L112.959 1182.36 L112.959 1212.99 L120.598 1212.99 L120.598 1216.92 L100.691 1216.92 L100.691 1212.99 Z" fill="#000000" fill-rule="nonzero" fill-opacity="1" /><path clip-path="url(#clip780)" d="M65.0198 905.261 Q61.4087 905.261 59.58 908.826 Q57.7745 912.368 57.7745 919.497 Q57.7745 926.604 59.58 930.168 Q61.4087 933.71 65.0198 933.71 Q68.6541 933.71 70.4596 930.168 Q72.2883 926.604 72.2883 919.497 Q72.2883 912.368 70.4596 908.826 Q68.6541 905.261 65.0198 905.261 M65.0198 901.557 Q70.83 901.557 73.8855 906.164 Q76.9642 910.747 76.9642 919.497 Q76.9642 928.224 73.8855 932.83 Q70.83 937.414 65.0198 937.414 Q59.2097 937.414 56.131 932.83 Q53.0754 928.224 53.0754 919.497 Q53.0754 910.747 56.131 906.164 Q59.2097 901.557 65.0198 901.557 Z" fill="#000000" fill-rule="nonzero" fill-opacity="1" /><path clip-path="url(#clip780)" d="M85.1818 930.863 L90.066 930.863 L90.066 936.742 L85.1818 936.742 L85.1818 930.863 Z" fill="#000000" fill-rule="nonzero" fill-opacity="1" /><path clip-path="url(#clip780)" d="M104.279 932.807 L120.598 932.807 L120.598 936.742 L98.6539 936.742 L98.6539 932.807 Q101.316 930.053 105.899 925.423 Q110.506 920.77 111.686 919.428 Q113.932 916.905 114.811 915.168 Q115.714 913.409 115.714 911.719 Q115.714 908.965 113.77 907.229 Q111.848 905.493 108.746 905.493 Q106.547 905.493 104.094 906.256 Q101.663 907.02 98.8854 908.571 L98.8854 903.849 Q101.709 902.715 104.163 902.136 Q106.617 901.557 108.654 901.557 Q114.024 901.557 117.219 904.243 Q120.413 906.928 120.413 911.418 Q120.413 913.548 119.603 915.469 Q118.816 917.368 116.709 919.96 Q116.131 920.631 113.029 923.849 Q109.927 927.043 104.279 932.807 Z" fill="#000000" fill-rule="nonzero" fill-opacity="1" /><path clip-path="url(#clip780)" d="M64.0708 625.082 Q60.4597 625.082 58.631 628.646 Q56.8254 632.188 56.8254 639.318 Q56.8254 646.424 58.631 649.989 Q60.4597 653.531 64.0708 653.531 Q67.705 653.531 69.5105 649.989 Q71.3392 646.424 71.3392 639.318 Q71.3392 632.188 69.5105 628.646 Q67.705 625.082 64.0708 625.082 M64.0708 621.378 Q69.8809 621.378 72.9365 625.984 Q76.0151 630.568 76.0151 639.318 Q76.0151 648.044 72.9365 652.651 Q69.8809 657.234 64.0708 657.234 Q58.2606 657.234 55.1819 652.651 Q52.1264 648.044 52.1264 639.318 Q52.1264 630.568 55.1819 625.984 Q58.2606 621.378 64.0708 621.378 Z" fill="#000000" fill-rule="nonzero" fill-opacity="1" /><path clip-path="url(#clip780)" d="M84.2327 650.683 L89.1169 650.683 L89.1169 656.563 L84.2327 656.563 L84.2327 650.683 Z" fill="#000000" fill-rule="nonzero" fill-opacity="1" /><path clip-path="url(#clip780)" d="M113.469 637.929 Q116.825 638.646 118.7 640.915 Q120.598 643.183 120.598 646.517 Q120.598 651.632 117.08 654.433 Q113.561 657.234 107.08 657.234 Q104.904 657.234 102.589 656.794 Q100.297 656.378 97.8437 655.521 L97.8437 651.007 Q99.7882 652.142 102.103 652.72 Q104.418 653.299 106.941 653.299 Q111.339 653.299 113.631 651.563 Q115.945 649.827 115.945 646.517 Q115.945 643.461 113.793 641.748 Q111.663 640.012 107.844 640.012 L103.816 640.012 L103.816 636.17 L108.029 636.17 Q111.478 636.17 113.307 634.804 Q115.135 633.415 115.135 630.822 Q115.135 628.16 113.237 626.748 Q111.362 625.313 107.844 625.313 Q105.922 625.313 103.723 625.73 Q101.524 626.146 98.8854 627.026 L98.8854 622.859 Q101.547 622.119 103.862 621.748 Q106.2 621.378 108.26 621.378 Q113.584 621.378 116.686 623.808 Q119.788 626.216 119.788 630.336 Q119.788 633.207 118.145 635.197 Q116.501 637.165 113.469 637.929 Z" fill="#000000" fill-rule="nonzero" fill-opacity="1" /><path clip-path="url(#clip780)" d="M62.9365 344.902 Q59.3254 344.902 57.4967 348.467 Q55.6912 352.009 55.6912 359.138 Q55.6912 366.245 57.4967 369.809 Q59.3254 373.351 62.9365 373.351 Q66.5707 373.351 68.3763 369.809 Q70.205 366.245 70.205 359.138 Q70.205 352.009 68.3763 348.467 Q66.5707 344.902 62.9365 344.902 M62.9365 341.198 Q68.7467 341.198 71.8022 345.805 Q74.8809 350.388 74.8809 359.138 Q74.8809 367.865 71.8022 372.471 Q68.7467 377.055 62.9365 377.055 Q57.1264 377.055 54.0477 372.471 Q50.9921 367.865 50.9921 359.138 Q50.9921 350.388 54.0477 345.805 Q57.1264 341.198 62.9365 341.198 Z" fill="#000000" fill-rule="nonzero" fill-opacity="1" /><path clip-path="url(#clip780)" d="M83.0984 370.504 L87.9827 370.504 L87.9827 376.383 L83.0984 376.383 L83.0984 370.504 Z" fill="#000000" fill-rule="nonzero" fill-opacity="1" /><path clip-path="url(#clip780)" d="M111.015 345.898 L99.2095 364.346 L111.015 364.346 L111.015 345.898 M109.788 341.823 L115.668 341.823 L115.668 364.346 L120.598 364.346 L120.598 368.235 L115.668 368.235 L115.668 376.383 L111.015 376.383 L111.015 368.235 L95.4132 368.235 L95.4132 363.721 L109.788 341.823 Z" fill="#000000" fill-rule="nonzero" fill-opacity="1" /><path clip-path="url(#clip780)" d="M64.418 64.7227 Q60.8069 64.7227 58.9782 68.2875 Q57.1726 71.8291 57.1726 78.9587 Q57.1726 86.0652 58.9782 89.63 Q60.8069 93.1716 64.418 93.1716 Q68.0522 93.1716 69.8578 89.63 Q71.6865 86.0652 71.6865 78.9587 Q71.6865 71.8291 69.8578 68.2875 Q68.0522 64.7227 64.418 64.7227 M64.418 61.019 Q70.2281 61.019 73.2837 65.6255 Q76.3624 70.2088 76.3624 78.9587 Q76.3624 87.6855 73.2837 92.292 Q70.2281 96.8753 64.418 96.8753 Q58.6078 96.8753 55.5291 92.292 Q52.4736 87.6855 52.4736 78.9587 Q52.4736 70.2088 55.5291 65.6255 Q58.6078 61.019 64.418 61.019 Z" fill="#000000" fill-rule="nonzero" fill-opacity="1" /><path clip-path="url(#clip780)" d="M84.5799 90.3244 L89.4641 90.3244 L89.4641 96.204 L84.5799 96.204 L84.5799 90.3244 Z" fill="#000000" fill-rule="nonzero" fill-opacity="1" /><path clip-path="url(#clip780)" d="M99.6956 61.644 L118.052 61.644 L118.052 65.5792 L103.978 65.5792 L103.978 74.0513 Q104.996 73.7041 106.015 73.5421 Q107.033 73.3569 108.052 73.3569 Q113.839 73.3569 117.219 76.5282 Q120.598 79.6995 120.598 85.1161 Q120.598 90.6948 117.126 93.7966 Q113.654 96.8753 107.334 96.8753 Q105.159 96.8753 102.89 96.5049 Q100.645 96.1346 98.2372 95.3938 L98.2372 90.6948 Q100.321 91.829 102.543 92.3846 Q104.765 92.9401 107.242 92.9401 Q111.246 92.9401 113.584 90.8337 Q115.922 88.7272 115.922 85.1161 Q115.922 81.505 113.584 79.3985 Q111.246 77.2921 107.242 77.2921 Q105.367 77.2921 103.492 77.7087 Q101.64 78.1254 99.6956 79.005 L99.6956 61.644 Z" fill="#000000" fill-rule="nonzero" fill-opacity="1" /><polyline clip-path="url(#clip782)" style="stroke:#009af9; stroke-linecap:round; stroke-linejoin:round; stroke-width:8; stroke-opacity:1; fill:none" points="156.598,919.462 158.797,913.825 160.995,908.131 163.193,902.38 165.392,896.57 167.59,890.703 169.788,884.776 171.987,878.79 174.185,872.743 176.383,866.636 178.582,860.467 180.78,854.236 182.979,847.943 185.177,841.586 187.375,835.165 189.574,828.679 191.772,822.129 193.97,815.512 196.169,808.829 198.367,802.079 200.565,795.26 202.764,788.373 204.962,781.417 207.16,774.391 209.359,767.294 211.557,760.126 213.755,1116.35 215.954,1112.7 218.152,1109 220.351,1105.27 222.549,1101.51 224.747,1097.7 226.946,1093.85 229.144,1089.97 231.342,1086.05 233.541,1082.09 235.739,1078.09 237.937,1074.05 240.136,1069.96 242.334,1065.84 244.532,1061.68 246.731,1057.47 248.929,1053.22 251.128,1048.93 253.326,1044.59 255.524,1040.21 257.723,1035.79 259.921,1031.32 262.119,1026.81 264.318,1022.26 266.516,1017.65 268.714,1246.41 270.913,1244.06 273.111,1241.69 275.309,1239.3 277.508,1236.88 279.706,1234.43 281.905,1231.96 284.103,1229.47 286.301,1226.95 288.5,1224.41 290.698,1221.84 292.896,1219.24 295.095,1216.62 297.293,1213.97 299.491,1211.3 301.69,1208.6 303.888,1205.87 306.086,1203.11 308.285,1200.33 310.483,1197.52 312.682,1194.68 314.88,1191.81 317.078,1188.91 319.277,1185.98 321.475,1183.03 323.673,1180.04 325.872,1177.03 328.07,1173.98 330.268,1170.9 332.467,1167.8 334.665,1164.66 336.863,1161.49 339.062,1158.28 341.26,1155.05 343.458,1151.78 345.657,1148.48 347.855,1145.15 350.054,1141.78 352.252,1138.38 354.45,1134.95 356.649,1131.48 358.847,1303.9 361.045,1302.13 363.244,1300.34 365.442,1298.53 367.64,1296.71 369.839,1294.87 372.037,1293.01 374.235,1291.13 376.434,1289.23 378.632,1287.31 380.831,1285.37 383.029,1283.42 385.227,1281.44 387.426,1279.45 389.624,1277.43 391.822,1275.4 394.021,1273.34 396.219,1271.26 398.417,1269.16 400.616,1267.04 402.814,1264.9 405.012,1262.74 407.211,1260.56 409.409,1258.35 411.608,1256.12 413.806,1253.87 416.004,1251.6 418.203,1249.3 420.401,1246.98 422.599,1244.64 424.798,1242.28 426.996,1239.89 429.194,1237.47 431.393,1235.03 433.591,1232.57 435.789,1230.08 437.988,1227.57 440.186,1225.03 442.385,1222.47 444.583,1219.88 446.781,1217.27 448.98,1214.63 451.178,1211.96 453.376,1209.26 455.575,1206.54 457.773,1203.79 459.971,1201.02 462.17,1198.21 464.368,1195.38 466.566,1192.52 468.765,1189.63 470.963,1186.71 473.162,1183.76 475.36,1180.78 477.558,1177.77 479.757,1174.73 481.955,1171.66 484.153,1168.56 486.352,1165.43 488.55,1162.27 490.748,1159.07 492.947,1155.85 495.145,1152.59 497.343,1149.29 499.542,1145.97 501.74,1142.61 503.938,1139.22 506.137,1135.79 508.335,1132.33 510.534,1128.83 512.732,1125.3 514.93,1121.74 517.129,1118.13 519.327,1297.16 521.525,1295.32 523.724,1293.47 525.922,1291.59 528.12,1289.7 530.319,1287.78 532.517,1285.85 534.715,1283.9 536.914,1281.93 539.112,1279.94 541.311,1277.93 543.509,1275.9 545.707,1273.85 547.906,1271.77 550.104,1269.68 552.302,1267.57 554.501,1265.43 556.699,1263.27 558.897,1261.1 561.096,1258.89 563.294,1256.67 565.492,1254.43 567.691,1252.16 569.889,1249.87 572.088,1247.56 574.286,1245.22 576.484,1242.86 578.683,1240.48 580.881,1238.07 583.079,1235.64 585.278,1233.18 587.476,1230.7 589.674,1228.19 591.873,1225.66 594.071,1223.1 596.269,1220.52 598.468,1217.91 600.666,1215.28 602.865,1212.62 605.063,1209.93 607.261,1207.21 609.46,1204.47 611.658,1201.7 613.856,1198.9 616.055,1196.07 618.253,1193.22 620.451,1190.34 622.65,1187.42 624.848,1184.48 627.046,1181.51 629.245,1178.51 631.443,1175.48 633.641,1172.42 635.84,1169.33 638.038,1166.2 640.237,1163.05 642.435,1159.86 644.633,1156.64 646.832,1153.39 649.03,1150.11 651.228,1146.79 653.427,1143.44 655.625,1140.05 657.823,1136.64 660.022,1133.18 662.22,1129.7 664.418,1126.17 666.617,1122.62 668.815,1119.02 671.014,1115.39 673.212,1111.73 675.41,1108.02 677.609,1104.28 679.807,1100.5 682.005,1096.69 684.204,1092.83 686.402,1088.94 688.6,1085.01 690.799,1081.04 692.997,1077.02 695.195,1072.97 697.394,1068.88 699.592,1064.75 701.791,1060.57 703.989,1056.35 706.187,1052.09 708.386,1047.79 710.584,1043.44 712.782,1039.05 714.981,1034.62 717.179,1030.14 719.377,1025.62 721.576,1021.05 723.774,1016.43 725.972,1011.77 728.171,1007.06 730.369,1002.3 732.568,997.501 734.766,992.648 736.964,987.747 739.163,982.797 741.361,977.796 743.559,972.746 745.758,967.644 747.956,962.492 750.154,957.287 752.353,952.03 754.551,946.72 756.749,941.357 758.948,935.94 761.146,930.468 763.344,924.942 765.543,919.359 767.741,913.721 769.94,908.026 772.138,902.273 774.336,896.463 776.535,890.594 778.733,884.666 780.931,878.679 783.13,872.631 785.328,866.522 787.526,860.352 789.725,854.12 791.923,847.826 794.121,841.468 796.32,835.046 798.518,828.56 800.717,822.008 802.915,815.39 805.113,808.706 807.312,801.955 809.51,795.136 811.708,788.248 813.907,781.291 816.105,774.264 818.303,767.166 820.502,759.996 822.7,752.755 824.898,745.441 827.097,738.053 829.295,730.591 831.494,723.053 833.692,715.44 835.89,707.75 838.089,699.983 840.287,692.138 842.485,684.213 844.684,676.209 846.882,668.124 849.08,659.958 851.279,651.71 853.477,643.379 855.675,634.963 857.874,626.464 860.072,617.878 862.271,609.207 864.469,600.448 866.667,591.601 868.866,582.665 871.064,573.639 873.262,564.522 875.461,555.314 877.659,546.013 879.857,536.619 882.056,527.13 884.254,517.545 886.452,507.864 888.651,498.086 890.849,488.21 893.048,478.234 895.246,468.157 897.444,457.98 899.643,447.7 901.841,437.317 904.039,426.829 906.238,416.235 908.436,405.536 910.634,394.728 912.833,383.812 915.031,372.786 917.229,361.649 919.428,350.4 921.626,339.038 923.824,327.562 926.023,315.97 928.221,304.261 930.42,292.435 932.618,280.49 934.816,268.424 937.015,256.237 939.213,243.927 941.411,231.494 943.61,218.935 945.808,206.25 948.006,193.438 950.205,180.496 952.403,167.424 954.601,154.221 956.8,140.885 958.998,127.415 961.197,113.809 963.395,100.066 965.593,86.1857 967.792,775.993 969.99,768.913 972.188,761.761 974.387,754.536 976.585,747.24 978.783,739.87 980.982,732.425 983.18,724.906 985.378,717.312 987.577,709.64 989.775,701.892 991.974,694.066 994.172,686.161 996.37,678.177 998.569,670.112 1000.77,661.966 1002.97,653.739 1005.16,645.428 1007.36,637.035 1009.56,628.556 1011.76,619.993 1013.96,611.343 1016.16,602.606 1018.35,593.781 1020.55,584.868 1022.75,575.865 1024.95,566.771 1027.15,557.586 1029.35,548.308 1031.54,538.937 1033.74,529.472 1035.94,519.911 1038.14,510.254 1040.34,500.5 1042.54,490.648 1044.73,480.697 1046.93,470.645 1049.13,460.493 1051.33,450.238 1053.53,439.88 1055.73,429.417 1057.92,418.85 1060.12,408.175 1062.32,397.394 1064.52,386.504 1066.72,375.505 1068.92,364.394 1071.11,353.173 1073.31,341.838 1075.51,330.389 1077.71,318.825 1079.91,307.145 1082.11,887.585 1084.3,881.626 1086.5,875.608 1088.7,869.53 1090.9,863.39 1093.1,857.188 1095.3,850.925 1097.49,844.598 1099.69,838.207 1101.89,831.752 1104.09,825.233 1106.29,818.647 1108.49,811.996 1110.68,805.277 1112.88,798.491 1115.08,791.637 1117.28,784.714 1119.48,777.721 1121.68,770.658 1123.87,763.523 1126.07,756.317 1128.27,749.039 1130.47,741.687 1132.67,734.261 1134.87,726.761 1137.07,719.185 1139.26,711.533 1141.46,703.803 1143.66,695.996 1145.86,688.111 1148.06,680.146 1150.26,672.101 1152.45,663.975 1154.65,655.767 1156.85,647.477 1159.05,639.103 1161.25,630.645 1163.45,622.102 1165.64,613.473 1167.84,604.758 1170.04,595.954 1172.24,1033.44 1174.44,1028.95 1176.64,1024.42 1178.83,1019.83 1181.03,1015.21 1183.23,1010.53 1185.43,1005.81 1187.63,1001.04 1189.83,1238.02 1192.02,1235.59 1194.22,1233.13 1196.42,1230.65 1198.62,1228.15 1200.82,1225.61 1203.02,1223.06 1205.21,1220.47 1207.41,1217.86 1209.61,1215.23 1211.81,1212.57 1214.01,1209.88 1216.21,1207.16 1218.4,1204.42 1220.6,1201.65 1222.8,1198.85 1225,1196.02 1227.2,1193.17 1229.4,1190.28 1231.59,1187.37 1233.79,1184.43 1235.99,1181.46 1238.19,1178.46 1240.39,1175.42 1242.59,1172.36 1244.78,1169.27 1246.98,1166.14 1249.18,1162.99 1251.38,1159.8 1253.58,1156.58 1255.78,1153.33 1257.97,1150.05 1260.17,1146.73 1262.37,1143.38 1264.57,1139.99 1266.77,1136.57 1268.97,1133.12 1271.16,1129.63 1273.36,1126.11 1275.56,1122.55 1277.76,1118.96 1279.96,1115.33 1282.16,1111.66 1284.35,1107.96 1286.55,1104.21 1288.75,1100.44 1290.95,1096.62 1293.15,1092.76 1295.35,1088.87 1297.55,1084.94 1299.74,1080.96 1301.94,1076.95 1304.14,1072.9 1306.34,1068.81 1308.54,1064.67 1310.74,1060.49 1312.93,1056.28 1315.13,1052.01 1317.33,1047.71 1319.53,1043.36 1321.73,1038.97 1323.93,1034.54 1326.12,1030.06 1328.32,1025.53 1330.52,1020.96 1332.72,1016.35 1334.92,1011.68 1337.12,1006.97 1339.31,1002.22 1341.51,997.412 1343.71,992.559 1345.91,987.657 1348.11,982.705 1350.31,977.704 1352.5,972.653 1354.7,967.55 1356.9,962.397 1359.1,957.192 1361.3,951.934 1363.5,946.623 1365.69,941.259 1367.89,935.841 1370.09,930.368 1372.29,924.841 1374.49,919.258 1376.69,913.618 1378.88,907.922 1381.08,902.169 1383.28,896.357 1385.48,890.487 1387.68,884.558 1389.88,878.57 1392.07,872.521 1394.27,866.412 1396.47,860.24 1398.67,854.007 1400.87,847.711 1403.07,841.352 1405.26,834.929 1407.46,1154.13 1409.66,1150.85 1411.86,1147.55 1414.06,1144.2 1416.26,1140.83 1418.45,1137.42 1420.65,1133.97 1422.85,1130.49 1425.05,1126.98 1427.25,1123.43 1429.45,1119.84 1431.64,1298.02 1433.84,1296.19 1436.04,1294.34 1438.24,1292.48 1440.44,1290.59 1442.64,1288.69 1444.83,1286.77 1447.03,1284.83 1449.23,1282.86 1451.43,1280.88 1453.63,1278.88 1455.83,1276.86 1458.03,1274.82 1460.22,1272.75 1462.42,1270.67 1464.62,1268.57 1466.82,1266.44 1469.02,1264.3 1471.22,1262.13 1473.41,1259.94 1475.61,1257.73 1477.81,1255.49 1480.01,1253.23 1482.21,1250.95 1484.41,1248.65 1486.6,1246.33 1488.8,1243.98 1491,1241.6 1493.2,1239.21 1495.4,1236.79 1497.6,1234.34 1499.79,1231.87 1501.99,1229.38 1504.19,1226.86 1506.39,1224.31 1508.59,1221.74 1510.79,1219.15 1512.98,1216.53 1515.18,1213.88 1517.38,1345.51 1519.58,1344.16 1521.78,1342.8 1523.98,1341.42 1526.17,1340.02 1528.37,1338.62 1530.57,1337.2 1532.77,1335.76 1534.97,1334.31 1537.17,1332.85 1539.36,1331.37 1541.56,1329.88 1543.76,1328.37 1545.96,1326.85 1548.16,1325.31 1550.36,1323.75 1552.55,1322.18 1554.75,1320.6 1556.95,1318.99 1559.15,1317.38 1561.35,1315.74 1563.55,1314.09 1565.74,1312.42 1567.94,1310.74 1570.14,1309.04 1572.34,1307.32 1574.54,1305.58 1576.74,1303.83 1578.93,1302.06 1581.13,1300.27 1583.33,1298.47 1585.53,1296.64 1587.73,1294.8 1589.93,1292.94 1592.12,1291.06 1594.32,1289.16 1596.52,1287.24 1598.72,1285.3 1600.92,1283.35 1603.12,1281.37 1605.31,1279.37 1607.51,1277.36 1609.71,1275.32 1611.91,1273.26 1614.11,1271.18 1616.31,1269.09 1618.5,1266.97 1620.7,1264.82 1622.9,1262.66 1625.1,1260.48 1627.3,1258.27 1629.5,1256.04 1631.7,1253.79 1633.89,1251.52 1636.09,1249.22 1638.29,1246.9 1640.49,1244.56 1642.69,1242.19 1644.89,1239.8 1647.08,1237.38 1649.28,1234.95 1651.48,1232.48 1653.68,1229.99 1655.88,1227.48 1658.08,1224.94 1660.27,1222.38 1662.47,1219.79 1664.67,1217.17 1666.87,1214.53 1669.07,1211.86 1671.27,1209.16 1673.46,1206.44 1675.66,1203.69 1677.86,1340.37 1680.06,1338.96 1682.26,1337.55 1684.46,1336.12 1686.65,1334.67 1688.85,1333.21 1691.05,1331.73 1693.25,1330.25 1695.45,1328.74 1697.65,1327.22 1699.84,1325.69 1702.04,1324.13 1704.24,1322.57 1706.44,1320.99 1708.64,1319.39 1710.84,1317.77 1713.03,1316.14 1715.23,1314.5 1717.43,1312.83 1719.63,1311.15 1721.83,1309.46 1724.03,1307.74 1726.22,1306.01 1728.42,1304.26 1730.62,1302.5 1732.82,1300.71 1735.02,1298.91 1737.22,1297.09 1739.41,1295.25 1741.61,1293.4 1743.81,1291.52 1746.01,1289.63 1748.21,1287.71 1750.41,1285.78 1752.6,1283.83 1754.8,1281.86 1757,1279.87 1759.2,1277.85 1761.4,1275.82 1763.6,1273.77 1765.79,1271.7 1767.99,1269.6 1770.19,1267.49 1772.39,1265.35 1774.59,1263.19 1776.79,1261.02 1778.98,1258.81 1781.18,1256.59 1783.38,1254.34 1785.58,1252.08 1787.78,1249.79 1789.98,1247.47 1792.18,1245.13 1794.37,1242.77 1796.57,1240.39 1798.77,1237.98 1800.97,1235.55 1803.17,1233.09 1805.37,1230.61 1807.56,1228.1 1809.76,1225.57 1811.96,1223.01 1814.16,1220.43 1816.36,1217.82 1818.56,1215.18 1820.75,1212.52 1822.95,1209.83 1825.15,1207.11 1827.35,1204.37 1829.55,1201.6 1831.75,1198.8 1833.94,1195.97 1836.14,1193.12 1838.34,1190.23 1840.54,1187.32 1842.74,1184.37 1844.94,1181.4 1847.13,1178.4 1849.33,1175.37 1851.53,1172.31 1853.73,1169.21 1855.93,1166.09 1858.13,1162.93 1860.32,1159.74 1862.52,1156.52 1864.72,1153.27 1866.92,1149.99 1869.12,1146.67 1871.32,1143.32 1873.51,1139.93 1875.71,1136.51 1877.91,1133.06 1880.11,1129.57 1882.31,1126.04 1884.51,1122.49 1886.7,1118.89 1888.9,1115.26 1891.1,1111.59 1893.3,1107.89 1895.5,1104.15 1897.7,1100.37 1899.89,1096.55 1902.09,1092.69 1904.29,1088.8 1906.49,1084.86 1908.69,1080.89 1910.89,1076.88 1913.08,1072.82 1915.28,1274.28 1917.48,1272.21 1919.68,1270.12 1921.88,1268.01 1924.08,1265.88 1926.27,1263.73 1928.47,1261.55 1930.67,1259.36 1932.87,1257.14 1935.07,1254.9 1937.27,1252.64 1939.46,1250.35 1941.66,1248.04 1943.86,1245.71 1946.06,1243.35 1948.26,1240.98 1950.46,1238.57 1952.66,1236.15 1954.85,1233.69 1957.05,1355.52 1959.25,1354.27 1961.45,1353.01 1963.65,1351.73 1965.85,1350.44 1968.04,1349.14 1970.24,1347.83 1972.44,1346.5 1974.64,1345.16 1976.84,1343.8 1979.04,1342.43 1981.23,1341.05 1983.43,1339.65 1985.63,1338.24 1987.83,1336.82 1990.03,1335.38 1992.23,1333.93 1994.42,1332.46 1996.62,1330.98 1998.82,1329.48 2001.02,1327.97 2003.22,1326.44 2005.42,1324.9 2007.61,1323.34 2009.81,1321.76 2012.01,1320.17 2014.21,1318.57 2016.41,1316.95 2018.61,1315.31 2020.8,1313.65 2023,1311.98 2025.2,1310.29 2027.4,1308.59 2029.6,1306.86 2031.8,1305.12 2033.99,1303.37 2036.19,1301.59 2038.39,1299.8 2040.59,1297.99 2042.79,1296.16 2044.99,1294.31 2047.18,1292.44 2049.38,1290.56 2051.58,1384.24 2053.78,1383.28 2055.98,1382.31 2058.18,1381.32 2060.37,1380.33 2062.57,1379.33 2064.77,1378.32 2066.97,1377.3 2069.17,1376.27 2071.37,1375.23 2073.56,1374.18 2075.76,1373.11 2077.96,1372.04 2080.16,1370.95 2082.36,1369.86 2084.56,1368.75 2086.75,1367.64 2088.95,1366.51 2091.15,1365.37 2093.35,1364.22 2095.55,1363.05 2097.75,1361.88 2099.94,1360.69 2102.14,1359.49 2104.34,1358.28 2106.54,1357.06 2108.74,1355.82 2110.94,1354.58 2113.14,1353.32 2115.33,1352.04 2117.53,1350.76 2119.73,1349.46 2121.93,1348.15 2124.13,1346.82 2126.33,1345.49 2128.52,1344.13 2130.72,1342.77 2132.92,1341.39 2135.12,1340 2137.32,1338.59 2139.52,1337.17 2141.71,1335.74 2143.91,1334.29 2146.11,1332.82 2148.31,1331.34 2150.51,1329.85 2152.71,1328.34 2154.9,1326.82 2157.1,1325.28 2159.3,1323.72 2161.5,1322.15 2163.7,1320.57 2165.9,1318.96 2168.09,1317.35 2170.29,1315.71 2172.49,1314.06 2174.69,1312.39 2176.89,1310.71 2179.09,1309.01 2181.28,1307.29 2183.48,1305.55 2185.68,1303.8 2187.88,1302.03 2190.08,1300.24 2192.28,1298.43 2194.47,1296.61 2196.67,1294.77 2198.87,1292.9 2201.07,1291.02 2203.27,1289.12 2205.47,1287.21 2207.66,1285.27 2209.86,1283.31 2212.06,1281.33 2214.26,1279.34 2216.46,1277.32 2218.66,1275.28 2220.85,1273.23 2223.05,1271.15 2225.25,1269.05 2227.45,1266.93 2229.65,1264.79 2231.85,1262.62 2234.04,1260.44 2236.24,1258.23 2238.44,1256 2240.64,1253.75 2242.84,1251.47 2245.04,1249.18 2247.23,1246.86 2249.43,1244.51 2251.63,1242.15 2253.83,1239.75 2256.03,1237.34 2258.23,1234.9 2260.42,1232.44 2262.62,1229.95 2264.82,1227.43 2267.02,1224.89 2269.22,1222.33 2271.42,1219.74 2273.62,1217.12 2275.81,1214.48 2278.01,1211.81 2280.21,1209.11 2282.41,1206.39 2284.61,1203.64 2286.81,1200.86 2289,1198.06 2291.2,1195.22 2293.4,1192.36 2295.6,1189.47 2297.8,1186.55 2300,1183.59 2302.19,1180.61 2304.39,1177.6 2306.59,1174.56 2308.79,1171.49 2310.99,1168.39 2313.19,1165.26 2315.38,1162.09 2317.58,1158.9 2319.78,1155.67 2321.98,1152.41 2324.18,1149.11 2326.38,1145.79 2328.57,1142.43 2330.77,1139.03 2332.97,1135.6 2335.17,1132.14 2337.37,1128.64 2339.57,1125.11 2341.76,1121.54 2343.96,1117.94 2346.16,1114.3 2348.36,1110.62 2350.56,1106.9 2352.76,1103.15 "/>
<path clip-path="url(#clip780)" d="M1970.84 196.789 L2279.55 196.789 L2279.55 93.1086 L1970.84 93.1086  Z" fill="#ffffff" fill-rule="evenodd" fill-opacity="1"/>
<polyline clip-path="url(#clip780)" style="stroke:#000000; stroke-linecap:round; stroke-linejoin:round; stroke-width:4; stroke-opacity:1; fill:none" points="1970.84,196.789 2279.55,196.789 2279.55,93.1086 1970.84,93.1086 1970.84,196.789 "/>
<polyline clip-path="url(#clip780)" style="stroke:#009af9; stroke-linecap:round; stroke-linejoin:round; stroke-width:8; stroke-opacity:1; fill:none" points="1995.24,144.949 2141.65,144.949 "/>
<path clip-path="url(#clip780)" d="M2166.05 151.997 L2166.05 136.303 L2170.31 136.303 L2170.31 151.835 Q2170.31 155.516 2171.75 157.368 Q2173.18 159.196 2176.05 159.196 Q2179.5 159.196 2181.49 156.997 Q2183.51 154.798 2183.51 151.002 L2183.51 136.303 L2187.76 136.303 L2187.76 162.229 L2183.51 162.229 L2183.51 158.247 Q2181.95 160.608 2179.89 161.766 Q2177.86 162.9 2175.15 162.9 Q2170.68 162.9 2168.37 160.122 Q2166.05 157.344 2166.05 151.997 M2176.77 135.678 L2176.77 135.678 Z" fill="#000000" fill-rule="nonzero" fill-opacity="1" /><path clip-path="url(#clip780)" d="M2196.14 126.21 L2205.96 126.21 L2205.96 129.52 L2200.4 129.52 L2200.4 165.168 L2205.96 165.168 L2205.96 168.479 L2196.14 168.479 L2196.14 126.21 Z" fill="#000000" fill-rule="nonzero" fill-opacity="1" /><path clip-path="url(#clip780)" d="M2216.45 158.293 L2224.08 158.293 L2224.08 131.928 L2215.77 133.595 L2215.77 129.335 L2224.04 127.669 L2228.71 127.669 L2228.71 158.293 L2236.35 158.293 L2236.35 162.229 L2216.45 162.229 L2216.45 158.293 Z" fill="#000000" fill-rule="nonzero" fill-opacity="1" /><path clip-path="url(#clip780)" d="M2255.15 126.21 L2255.15 168.479 L2245.33 168.479 L2245.33 165.168 L2250.87 165.168 L2250.87 129.52 L2245.33 129.52 L2245.33 126.21 L2255.15 126.21 Z" fill="#000000" fill-rule="nonzero" fill-opacity="1" /></svg>
