<?xml version="1.0" encoding="utf-8"?>
<svg xmlns="http://www.w3.org/2000/svg" xmlns:xlink="http://www.w3.org/1999/xlink" width="600" height="400" viewBox="0 0 2400 1600">
<defs>
  <clipPath id="clip960">
    <rect x="0" y="0" width="2400" height="1600"/>
  </clipPath>
</defs>
<path clip-path="url(#clip960)" d="M0 1600 L2400 1600 L2400 0 L0 0  Z" fill="#ffffff" fill-rule="evenodd" fill-opacity="1"/>
<defs>
  <clipPath id="clip961">
    <rect x="480" y="0" width="1681" height="1600"/>
  </clipPath>
</defs>
<path clip-path="url(#clip960)" d="M184.191 1423.18 L2352.76 1423.18 L2352.76 47.2441 L184.191 47.2441  Z" fill="#ffffff" fill-rule="evenodd" fill-opacity="1"/>
<defs>
  <clipPath id="clip962">
    <rect x="184" y="47" width="2170" height="1377"/>
  </clipPath>
</defs>
<polyline clip-path="url(#clip962)" style="stroke:#000000; stroke-linecap:round; stroke-linejoin:round; stroke-width:2; stroke-opacity:0.1; fill:none" points="184.191,1423.18 184.191,47.2441 "/>
<polyline clip-path="url(#clip962)" style="stroke:#000000; stroke-linecap:round; stroke-linejoin:round; stroke-width:2; stroke-opacity:0.1; fill:none" points="617.904,1423.18 617.904,47.2441 "/>
<polyline clip-path="url(#clip962)" style="stroke:#000000; stroke-linecap:round; stroke-linejoin:round; stroke-width:2; stroke-opacity:0.1; fill:none" points="1051.62,1423.18 1051.62,47.2441 "/>
<polyline clip-path="url(#clip962)" style="stroke:#000000; stroke-linecap:round; stroke-linejoin:round; stroke-width:2; stroke-opacity:0.1; fill:none" points="1485.33,1423.18 1485.33,47.2441 "/>
<polyline clip-path="url(#clip962)" style="stroke:#000000; stroke-linecap:round; stroke-linejoin:round; stroke-width:2; stroke-opacity:0.1; fill:none" points="1919.04,1423.18 1919.04,47.2441 "/>
<polyline clip-path="url(#clip962)" style="stroke:#000000; stroke-linecap:round; stroke-linejoin:round; stroke-width:2; stroke-opacity:0.1; fill:none" points="2352.76,1423.18 2352.76,47.2441 "/>
<polyline clip-path="url(#clip962)" style="stroke:#000000; stroke-linecap:round; stroke-linejoin:round; stroke-width:2; stroke-opacity:0.1; fill:none" points="184.191,1395.94 2352.76,1395.94 "/>
<polyline clip-path="url(#clip962)" style="stroke:#000000; stroke-linecap:round; stroke-linejoin:round; stroke-width:2; stroke-opacity:0.1; fill:none" points="184.191,1110.08 2352.76,1110.08 "/>
<polyline clip-path="url(#clip962)" style="stroke:#000000; stroke-linecap:round; stroke-linejoin:round; stroke-width:2; stroke-opacity:0.1; fill:none" points="184.191,824.224 2352.76,824.224 "/>
<polyline clip-path="url(#clip962)" style="stroke:#000000; stroke-linecap:round; stroke-linejoin:round; stroke-width:2; stroke-opacity:0.1; fill:none" points="184.191,538.367 2352.76,538.367 "/>
<polyline clip-path="url(#clip962)" style="stroke:#000000; stroke-linecap:round; stroke-linejoin:round; stroke-width:2; stroke-opacity:0.1; fill:none" points="184.191,252.51 2352.76,252.51 "/>
<polyline clip-path="url(#clip960)" style="stroke:#000000; stroke-linecap:round; stroke-linejoin:round; stroke-width:4; stroke-opacity:1; fill:none" points="184.191,1423.18 2352.76,1423.18 "/>
<polyline clip-path="url(#clip960)" style="stroke:#000000; stroke-linecap:round; stroke-linejoin:round; stroke-width:4; stroke-opacity:1; fill:none" points="184.191,1423.18 184.191,1404.28 "/>
<polyline clip-path="url(#clip960)" style="stroke:#000000; stroke-linecap:round; stroke-linejoin:round; stroke-width:4; stroke-opacity:1; fill:none" points="617.904,1423.18 617.904,1404.28 "/>
<polyline clip-path="url(#clip960)" style="stroke:#000000; stroke-linecap:round; stroke-linejoin:round; stroke-width:4; stroke-opacity:1; fill:none" points="1051.62,1423.18 1051.62,1404.28 "/>
<polyline clip-path="url(#clip960)" style="stroke:#000000; stroke-linecap:round; stroke-linejoin:round; stroke-width:4; stroke-opacity:1; fill:none" points="1485.33,1423.18 1485.33,1404.28 "/>
<polyline clip-path="url(#clip960)" style="stroke:#000000; stroke-linecap:round; stroke-linejoin:round; stroke-width:4; stroke-opacity:1; fill:none" points="1919.04,1423.18 1919.04,1404.28 "/>
<polyline clip-path="url(#clip960)" style="stroke:#000000; stroke-linecap:round; stroke-linejoin:round; stroke-width:4; stroke-opacity:1; fill:none" points="2352.76,1423.18 2352.76,1404.28 "/>
<path clip-path="url(#clip960)" d="M184.191 1454.1 Q180.58 1454.1 178.751 1457.66 Q176.945 1461.2 176.945 1468.33 Q176.945 1475.44 178.751 1479.01 Q180.58 1482.55 184.191 1482.55 Q187.825 1482.55 189.63 1479.01 Q191.459 1475.44 191.459 1468.33 Q191.459 1461.2 189.63 1457.66 Q187.825 1454.1 184.191 1454.1 M184.191 1450.39 Q190.001 1450.39 193.056 1455 Q196.135 1459.58 196.135 1468.33 Q196.135 1477.06 193.056 1481.67 Q190.001 1486.25 184.191 1486.25 Q178.381 1486.25 175.302 1481.67 Q172.246 1477.06 172.246 1468.33 Q172.246 1459.58 175.302 1455 Q178.381 1450.39 184.191 1450.39 Z" fill="#000000" fill-rule="nonzero" fill-opacity="1" /><path clip-path="url(#clip960)" d="M612.557 1481.64 L628.876 1481.64 L628.876 1485.58 L606.932 1485.58 L606.932 1481.64 Q609.594 1478.89 614.177 1474.26 Q618.783 1469.61 619.964 1468.27 Q622.209 1465.74 623.089 1464.01 Q623.992 1462.25 623.992 1460.56 Q623.992 1457.8 622.047 1456.07 Q620.126 1454.33 617.024 1454.33 Q614.825 1454.33 612.371 1455.09 Q609.941 1455.86 607.163 1457.41 L607.163 1452.69 Q609.987 1451.55 612.441 1450.97 Q614.894 1450.39 616.932 1450.39 Q622.302 1450.39 625.496 1453.08 Q628.691 1455.77 628.691 1460.26 Q628.691 1462.39 627.881 1464.31 Q627.093 1466.2 624.987 1468.8 Q624.408 1469.47 621.306 1472.69 Q618.205 1475.88 612.557 1481.64 Z" fill="#000000" fill-rule="nonzero" fill-opacity="1" /><path clip-path="url(#clip960)" d="M1054.63 1455.09 L1042.82 1473.54 L1054.63 1473.54 L1054.63 1455.09 M1053.4 1451.02 L1059.28 1451.02 L1059.28 1473.54 L1064.21 1473.54 L1064.21 1477.43 L1059.28 1477.43 L1059.28 1485.58 L1054.63 1485.58 L1054.63 1477.43 L1039.02 1477.43 L1039.02 1472.92 L1053.4 1451.02 Z" fill="#000000" fill-rule="nonzero" fill-opacity="1" /><path clip-path="url(#clip960)" d="M1485.73 1466.44 Q1482.59 1466.44 1480.73 1468.59 Q1478.91 1470.74 1478.91 1474.49 Q1478.91 1478.22 1480.73 1480.39 Q1482.59 1482.55 1485.73 1482.55 Q1488.88 1482.55 1490.71 1480.39 Q1492.56 1478.22 1492.56 1474.49 Q1492.56 1470.74 1490.71 1468.59 Q1488.88 1466.44 1485.73 1466.44 M1495.02 1451.78 L1495.02 1456.04 Q1493.26 1455.21 1491.45 1454.77 Q1489.67 1454.33 1487.91 1454.33 Q1483.28 1454.33 1480.83 1457.45 Q1478.4 1460.58 1478.05 1466.9 Q1479.42 1464.89 1481.48 1463.82 Q1483.54 1462.73 1486.01 1462.73 Q1491.22 1462.73 1494.23 1465.9 Q1497.26 1469.05 1497.26 1474.49 Q1497.26 1479.82 1494.11 1483.03 Q1490.97 1486.25 1485.73 1486.25 Q1479.74 1486.25 1476.57 1481.67 Q1473.4 1477.06 1473.4 1468.33 Q1473.4 1460.14 1477.29 1455.28 Q1481.17 1450.39 1487.73 1450.39 Q1489.48 1450.39 1491.27 1450.74 Q1493.07 1451.09 1495.02 1451.78 Z" fill="#000000" fill-rule="nonzero" fill-opacity="1" /><path clip-path="url(#clip960)" d="M1919.04 1469.17 Q1915.71 1469.17 1913.79 1470.95 Q1911.89 1472.73 1911.89 1475.86 Q1911.89 1478.98 1913.79 1480.77 Q1915.71 1482.55 1919.04 1482.55 Q1922.38 1482.55 1924.3 1480.77 Q1926.22 1478.96 1926.22 1475.86 Q1926.22 1472.73 1924.3 1470.95 Q1922.4 1469.17 1919.04 1469.17 M1914.37 1467.18 Q1911.36 1466.44 1909.67 1464.38 Q1908 1462.32 1908 1459.35 Q1908 1455.21 1910.94 1452.8 Q1913.9 1450.39 1919.04 1450.39 Q1924.2 1450.39 1927.14 1452.8 Q1930.08 1455.21 1930.08 1459.35 Q1930.08 1462.32 1928.39 1464.38 Q1926.73 1466.44 1923.74 1467.18 Q1927.12 1467.96 1929 1470.26 Q1930.89 1472.55 1930.89 1475.86 Q1930.89 1480.88 1927.82 1483.57 Q1924.76 1486.25 1919.04 1486.25 Q1913.33 1486.25 1910.25 1483.57 Q1907.19 1480.88 1907.19 1475.86 Q1907.19 1472.55 1909.09 1470.26 Q1910.99 1467.96 1914.37 1467.18 M1912.65 1459.79 Q1912.65 1462.48 1914.32 1463.98 Q1916.01 1465.49 1919.04 1465.49 Q1922.05 1465.49 1923.74 1463.98 Q1925.45 1462.48 1925.45 1459.79 Q1925.45 1457.11 1923.74 1455.6 Q1922.05 1454.1 1919.04 1454.1 Q1916.01 1454.1 1914.32 1455.6 Q1912.65 1457.11 1912.65 1459.79 Z" fill="#000000" fill-rule="nonzero" fill-opacity="1" /><path clip-path="url(#clip960)" d="M2327.44 1481.64 L2335.08 1481.64 L2335.08 1455.28 L2326.77 1456.95 L2326.77 1452.69 L2335.04 1451.02 L2339.71 1451.02 L2339.71 1481.64 L2347.35 1481.64 L2347.35 1485.58 L2327.44 1485.58 L2327.44 1481.64 Z" fill="#000000" fill-rule="nonzero" fill-opacity="1" /><path clip-path="url(#clip960)" d="M2366.8 1454.1 Q2363.18 1454.1 2361.36 1457.66 Q2359.55 1461.2 2359.55 1468.33 Q2359.55 1475.44 2361.36 1479.01 Q2363.18 1482.55 2366.8 1482.55 Q2370.43 1482.55 2372.23 1479.01 Q2374.06 1475.44 2374.06 1468.33 Q2374.06 1461.2 2372.23 1457.66 Q2370.43 1454.1 2366.8 1454.1 M2366.8 1450.39 Q2372.61 1450.39 2375.66 1455 Q2378.74 1459.58 2378.74 1468.33 Q2378.74 1477.06 2375.66 1481.67 Q2372.61 1486.25 2366.8 1486.25 Q2360.99 1486.25 2357.91 1481.67 Q2354.85 1477.06 2354.85 1468.33 Q2354.85 1459.58 2357.91 1455 Q2360.99 1450.39 2366.8 1450.39 Z" fill="#000000" fill-rule="nonzero" fill-opacity="1" /><path clip-path="url(#clip960)" d="M1267.53 1522.27 L1267.53 1532.4 L1279.6 1532.4 L1279.6 1536.95 L1267.53 1536.95 L1267.53 1556.3 Q1267.53 1560.66 1268.71 1561.9 Q1269.92 1563.14 1273.58 1563.14 L1279.6 1563.14 L1279.6 1568.04 L1273.58 1568.04 Q1266.8 1568.04 1264.22 1565.53 Q1261.65 1562.98 1261.65 1556.3 L1261.65 1536.95 L1257.35 1536.95 L1257.35 1532.4 L1261.65 1532.4 L1261.65 1522.27 L1267.53 1522.27 Z" fill="#000000" fill-rule="nonzero" fill-opacity="1" /><polyline clip-path="url(#clip960)" style="stroke:#000000; stroke-linecap:round; stroke-linejoin:round; stroke-width:4; stroke-opacity:1; fill:none" points="184.191,1423.18 184.191,47.2441 "/>
<polyline clip-path="url(#clip960)" style="stroke:#000000; stroke-linecap:round; stroke-linejoin:round; stroke-width:4; stroke-opacity:1; fill:none" points="184.191,1395.94 203.088,1395.94 "/>
<polyline clip-path="url(#clip960)" style="stroke:#000000; stroke-linecap:round; stroke-linejoin:round; stroke-width:4; stroke-opacity:1; fill:none" points="184.191,1110.08 203.088,1110.08 "/>
<polyline clip-path="url(#clip960)" style="stroke:#000000; stroke-linecap:round; stroke-linejoin:round; stroke-width:4; stroke-opacity:1; fill:none" points="184.191,824.224 203.088,824.224 "/>
<polyline clip-path="url(#clip960)" style="stroke:#000000; stroke-linecap:round; stroke-linejoin:round; stroke-width:4; stroke-opacity:1; fill:none" points="184.191,538.367 203.088,538.367 "/>
<polyline clip-path="url(#clip960)" style="stroke:#000000; stroke-linecap:round; stroke-linejoin:round; stroke-width:4; stroke-opacity:1; fill:none" points="184.191,252.51 203.088,252.51 "/>
<path clip-path="url(#clip960)" d="M91.0151 1381.74 Q87.404 1381.74 85.5753 1385.3 Q83.7697 1388.84 83.7697 1395.97 Q83.7697 1403.08 85.5753 1406.64 Q87.404 1410.18 91.0151 1410.18 Q94.6493 1410.18 96.4548 1406.64 Q98.2835 1403.08 98.2835 1395.97 Q98.2835 1388.84 96.4548 1385.3 Q94.6493 1381.74 91.0151 1381.74 M91.0151 1378.03 Q96.8252 1378.03 99.8808 1382.64 Q102.959 1387.22 102.959 1395.97 Q102.959 1404.7 99.8808 1409.31 Q96.8252 1413.89 91.0151 1413.89 Q85.2049 1413.89 82.1262 1409.31 Q79.0707 1404.7 79.0707 1395.97 Q79.0707 1387.22 82.1262 1382.64 Q85.2049 1378.03 91.0151 1378.03 Z" fill="#000000" fill-rule="nonzero" fill-opacity="1" /><path clip-path="url(#clip960)" d="M111.177 1407.34 L116.061 1407.34 L116.061 1413.22 L111.177 1413.22 L111.177 1407.34 Z" fill="#000000" fill-rule="nonzero" fill-opacity="1" /><path clip-path="url(#clip960)" d="M136.246 1381.74 Q132.635 1381.74 130.807 1385.3 Q129.001 1388.84 129.001 1395.97 Q129.001 1403.08 130.807 1406.64 Q132.635 1410.18 136.246 1410.18 Q139.881 1410.18 141.686 1406.64 Q143.515 1403.08 143.515 1395.97 Q143.515 1388.84 141.686 1385.3 Q139.881 1381.74 136.246 1381.74 M136.246 1378.03 Q142.056 1378.03 145.112 1382.64 Q148.191 1387.22 148.191 1395.97 Q148.191 1404.7 145.112 1409.31 Q142.056 1413.89 136.246 1413.89 Q130.436 1413.89 127.357 1409.31 Q124.302 1404.7 124.302 1395.97 Q124.302 1387.22 127.357 1382.64 Q130.436 1378.03 136.246 1378.03 Z" fill="#000000" fill-rule="nonzero" fill-opacity="1" /><path clip-path="url(#clip960)" d="M86.0382 1123.43 L102.358 1123.43 L102.358 1127.36 L80.4133 1127.36 L80.4133 1123.43 Q83.0753 1120.67 87.6586 1116.04 Q92.2651 1111.39 93.4456 1110.05 Q95.691 1107.52 96.5706 1105.79 Q97.4734 1104.03 97.4734 1102.34 Q97.4734 1099.58 95.5289 1097.85 Q93.6076 1096.11 90.5058 1096.11 Q88.3067 1096.11 85.8531 1096.87 Q83.4225 1097.64 80.6447 1099.19 L80.6447 1094.47 Q83.4688 1093.33 85.9225 1092.75 Q88.3762 1092.18 90.4132 1092.18 Q95.7836 1092.18 98.978 1094.86 Q102.172 1097.55 102.172 1102.04 Q102.172 1104.17 101.362 1106.09 Q100.575 1107.99 98.4687 1110.58 Q97.89 1111.25 94.7882 1114.47 Q91.6864 1117.66 86.0382 1123.43 Z" fill="#000000" fill-rule="nonzero" fill-opacity="1" /><path clip-path="url(#clip960)" d="M112.172 1121.48 L117.057 1121.48 L117.057 1127.36 L112.172 1127.36 L112.172 1121.48 Z" fill="#000000" fill-rule="nonzero" fill-opacity="1" /><path clip-path="url(#clip960)" d="M127.288 1092.8 L145.644 1092.8 L145.644 1096.74 L131.57 1096.74 L131.57 1105.21 Q132.589 1104.86 133.607 1104.7 Q134.626 1104.51 135.644 1104.51 Q141.431 1104.51 144.811 1107.68 Q148.191 1110.86 148.191 1116.27 Q148.191 1121.85 144.718 1124.95 Q141.246 1128.03 134.927 1128.03 Q132.751 1128.03 130.482 1127.66 Q128.237 1127.29 125.83 1126.55 L125.83 1121.85 Q127.913 1122.99 130.135 1123.54 Q132.357 1124.1 134.834 1124.1 Q138.839 1124.1 141.177 1121.99 Q143.515 1119.88 143.515 1116.27 Q143.515 1112.66 141.177 1110.55 Q138.839 1108.45 134.834 1108.45 Q132.959 1108.45 131.084 1108.87 Q129.232 1109.28 127.288 1110.16 L127.288 1092.8 Z" fill="#000000" fill-rule="nonzero" fill-opacity="1" /><path clip-path="url(#clip960)" d="M81.0614 806.944 L99.4178 806.944 L99.4178 810.879 L85.3438 810.879 L85.3438 819.351 Q86.3623 819.004 87.3808 818.842 Q88.3993 818.657 89.4178 818.657 Q95.2049 818.657 98.5845 821.828 Q101.964 824.999 101.964 830.416 Q101.964 835.994 98.4919 839.096 Q95.0197 842.175 88.7003 842.175 Q86.5243 842.175 84.2558 841.805 Q82.0105 841.434 79.6031 840.693 L79.6031 835.994 Q81.6864 837.129 83.9086 837.684 Q86.1308 838.24 88.6077 838.24 Q92.6123 838.24 94.9502 836.133 Q97.2882 834.027 97.2882 830.416 Q97.2882 826.805 94.9502 824.698 Q92.6123 822.592 88.6077 822.592 Q86.7327 822.592 84.8577 823.008 Q83.0058 823.425 81.0614 824.305 L81.0614 806.944 Z" fill="#000000" fill-rule="nonzero" fill-opacity="1" /><path clip-path="url(#clip960)" d="M111.177 835.624 L116.061 835.624 L116.061 841.504 L111.177 841.504 L111.177 835.624 Z" fill="#000000" fill-rule="nonzero" fill-opacity="1" /><path clip-path="url(#clip960)" d="M136.246 810.022 Q132.635 810.022 130.807 813.587 Q129.001 817.129 129.001 824.258 Q129.001 831.365 130.807 834.93 Q132.635 838.471 136.246 838.471 Q139.881 838.471 141.686 834.93 Q143.515 831.365 143.515 824.258 Q143.515 817.129 141.686 813.587 Q139.881 810.022 136.246 810.022 M136.246 806.319 Q142.056 806.319 145.112 810.925 Q148.191 815.508 148.191 824.258 Q148.191 832.985 145.112 837.592 Q142.056 842.175 136.246 842.175 Q130.436 842.175 127.357 837.592 Q124.302 832.985 124.302 824.258 Q124.302 815.508 127.357 810.925 Q130.436 806.319 136.246 806.319 Z" fill="#000000" fill-rule="nonzero" fill-opacity="1" /><path clip-path="url(#clip960)" d="M80.8299 521.087 L103.052 521.087 L103.052 523.078 L90.5058 555.647 L85.6216 555.647 L97.4271 525.022 L80.8299 525.022 L80.8299 521.087 Z" fill="#000000" fill-rule="nonzero" fill-opacity="1" /><path clip-path="url(#clip960)" d="M112.172 549.767 L117.057 549.767 L117.057 555.647 L112.172 555.647 L112.172 549.767 Z" fill="#000000" fill-rule="nonzero" fill-opacity="1" /><path clip-path="url(#clip960)" d="M127.288 521.087 L145.644 521.087 L145.644 525.022 L131.57 525.022 L131.57 533.494 Q132.589 533.147 133.607 532.985 Q134.626 532.8 135.644 532.8 Q141.431 532.8 144.811 535.971 Q148.191 539.142 148.191 544.559 Q148.191 550.138 144.718 553.24 Q141.246 556.318 134.927 556.318 Q132.751 556.318 130.482 555.948 Q128.237 555.578 125.83 554.837 L125.83 550.138 Q127.913 551.272 130.135 551.828 Q132.357 552.383 134.834 552.383 Q138.839 552.383 141.177 550.277 Q143.515 548.17 143.515 544.559 Q143.515 540.948 141.177 538.842 Q138.839 536.735 134.834 536.735 Q132.959 536.735 131.084 537.152 Q129.232 537.568 127.288 538.448 L127.288 521.087 Z" fill="#000000" fill-rule="nonzero" fill-opacity="1" /><path clip-path="url(#clip960)" d="M51.6634 265.855 L59.3023 265.855 L59.3023 239.49 L50.9921 241.156 L50.9921 236.897 L59.256 235.23 L63.9319 235.23 L63.9319 265.855 L71.5707 265.855 L71.5707 269.79 L51.6634 269.79 L51.6634 265.855 Z" fill="#000000" fill-rule="nonzero" fill-opacity="1" /><path clip-path="url(#clip960)" d="M91.0151 238.309 Q87.404 238.309 85.5753 241.874 Q83.7697 245.415 83.7697 252.545 Q83.7697 259.651 85.5753 263.216 Q87.404 266.758 91.0151 266.758 Q94.6493 266.758 96.4548 263.216 Q98.2835 259.651 98.2835 252.545 Q98.2835 245.415 96.4548 241.874 Q94.6493 238.309 91.0151 238.309 M91.0151 234.605 Q96.8252 234.605 99.8808 239.212 Q102.959 243.795 102.959 252.545 Q102.959 261.272 99.8808 265.878 Q96.8252 270.462 91.0151 270.462 Q85.2049 270.462 82.1262 265.878 Q79.0707 261.272 79.0707 252.545 Q79.0707 243.795 82.1262 239.212 Q85.2049 234.605 91.0151 234.605 Z" fill="#000000" fill-rule="nonzero" fill-opacity="1" /><path clip-path="url(#clip960)" d="M111.177 263.911 L116.061 263.911 L116.061 269.79 L111.177 269.79 L111.177 263.911 Z" fill="#000000" fill-rule="nonzero" fill-opacity="1" /><path clip-path="url(#clip960)" d="M136.246 238.309 Q132.635 238.309 130.807 241.874 Q129.001 245.415 129.001 252.545 Q129.001 259.651 130.807 263.216 Q132.635 266.758 136.246 266.758 Q139.881 266.758 141.686 263.216 Q143.515 259.651 143.515 252.545 Q143.515 245.415 141.686 241.874 Q139.881 238.309 136.246 238.309 M136.246 234.605 Q142.056 234.605 145.112 239.212 Q148.191 243.795 148.191 252.545 Q148.191 261.272 145.112 265.878 Q142.056 270.462 136.246 270.462 Q130.436 270.462 127.357 265.878 Q124.302 261.272 124.302 252.545 Q124.302 243.795 127.357 239.212 Q130.436 234.605 136.246 234.605 Z" fill="#000000" fill-rule="nonzero" fill-opacity="1" /><polyline clip-path="url(#clip962)" style="stroke:#009af9; stroke-linecap:round; stroke-linejoin:round; stroke-width:8; stroke-opacity:1; fill:none" points="184.191,1373.07 184.389,1373.04 184.578,1373.67 184.791,1374.28 185.03,1373.88 185.3,1372.46 185.603,1371.87 185.945,1371.07 186.328,1371.78 186.76,1369.95 187.246,1368.09 187.792,1364.73 188.407,1366.02 189.099,1365.08 189.877,1365.23 190.752,1365.94 191.737,1361.92 192.845,1362.94 194.092,1361.96 195.494,1367.29 197.071,1368.32 198.846,1365.58 200.842,1367.15 203.088,1368.45 205.615,1366.97 208.458,1364.5 211.656,1360.86 215.254,1355.64 219.301,1342.85 223.855,1333.62 228.977,1327.39 234.618,1348.46 240.774,1355.39 247.527,1356.27 255.124,1361.7 263.24,1363.94 272.369,1365.75 282.564,1350.53 294.033,1355.36 302.868,1353.07 312.807,1343.54 323.6,1351.46 332.337,1347.33 342.167,1337.94 352.234,1310.47 361.963,1335.03 369.963,1347.83 378.926,1356.29 388.357,1347.66 398.967,1346.75 408.54,1327.13 419.113,1324.88 428.025,1310.59 437.263,1286.19 445.441,1282.67 449.551,1290.6 456.696,1348.52 458.715,1350.07 466.753,1368.12 471,1366.2 480.043,1384 490.216,1383.4 501.66,1381.02 514.535,1382.73 527.229,1382.22 541.509,1378.47 557.574,1375.5 574.338,1374.45 577.325,1373.93 580.686,1384.24 584.467,1383.89 588.72,1383.67 593.506,1379.26 598.889,1379.76 604.946,1377.23 611.759,1374.43 619.424,1377.49 627.343,1375.73 636.251,1377.88 645.261,1375.96 655.397,1375.95 666.769,1372.42 679.561,1365.46 693.953,1364.22 706.514,1360.48 720.646,1358.07 734.554,1345.73 750.001,1328.75 763.778,1295.97 774.431,1247.45 781.913,1277.82 788.521,1290.78 795.363,1278.84 802.383,1282.48 808.642,1292.44 814.791,1293.56 821.058,1280.08 827.357,1229.45 832.992,1209.74 834.145,1203.71 839.04,1302.83 844.547,1314.11 849.999,1326.93 855.973,1324.46 862.695,1314.82 870.015,1301.02 877.307,1308.83 883.939,1279.42 891.4,1293.34 897.454,1292.9 904.229,1295.52 910.69,1323.41 917.389,1319.45 924.85,1298.08 932.318,1290.85 939.089,1296.18 945.529,1289.01 952.185,1315.54 958.285,1324.84 964.944,1324.79 971.859,1326.76 978.728,1341.41 985.567,1337.57 990.331,1327.26 998.024,1355.75 1006.68,1362.81 1014.22,1359.32 1022.7,1351.7 1032.21,1351.68 1041.01,1346.53 1050.92,1333.2 1060.91,1334.82 1069.7,1329.76 1079.3,1338.72 1087.66,1338.1 1097.06,1349.89 1105.77,1360.28 1115.31,1366.21 1125.58,1358.19 1137.12,1356.72 1147.65,1360.67 1158.21,1367.88 1169.36,1352.02 1174.48,1348.56 1187.02,1375.93 1201.12,1358.85 1217,1323.05 1231.28,1330.62 1243.03,1333.31 1254.64,1351.79 1265.36,1337.22 1277.41,1329.43 1288.65,1320.58 1299.77,1325.75 1308.72,1291.63 1318.78,1261.22 1327.61,1270.47 1334.82,1282.86 1342.16,1275.46 1350.02,1281.83 1356.95,1258.7 1364.69,1274.17 1370.87,1234.26 1377.83,1201.18 1383.73,1175.11 1389.23,1120.37 1393.59,1129.39 1397.55,1141.65 1401.33,1097.47 1404.97,1115.5 1408.17,1040.93 1411.25,1044.32 1413.96,988.979 1416.48,995.167 1416.93,994.032 1419.19,1186.77 1421.73,1149.61 1424.59,1144.52 1427.65,1098.62 1431.1,1123.86 1434.29,1126.21 1437.88,1148.24 1441.64,1183.8 1445.58,1211.17 1449.82,1183.52 1454.58,1217.85 1458.58,1212.38 1463.08,1256.65 1467.53,1242.03 1472.53,1228.74 1478.16,1224.34 1483.23,1231.66 1488.46,1237.52 1494.17,1174.98 1500.59,1149.71 1506.64,1127.97 1512.84,1165.78 1518.01,1218.46 1523.52,1214.01 1529.71,1187.67 1536.53,1203.76 1542.32,1234.01 1548.14,1183.64 1554.68,1184.92 1560.46,1168.2 1566.66,1142.82 1572.75,1139.96 1578.52,1130.9 1584.39,1020.1 1590.03,1021.17 1594.87,1052.09 1599.55,1005.13 1604.4,978.617 1608.74,955.974 1612.92,921.689 1616.87,794.742 1620.42,782.3 1623.6,871.827 1626.61,838.376 1629.62,782.559 1632.32,776.154 1634.86,787.879 1637.29,835.903 1639.61,888.386 1641.91,825.356 1644.18,833.471 1646.28,773.242 1648.35,694.381 1650.22,719.468 1651.99,697.729 1653.69,751.885 1655.3,751.414 1656.9,679.549 1658.41,619.543 1659.81,621.077 1661.12,604.189 1662.36,512.637 1663.52,489.343 1664.59,408.113 1665.59,398.667 1666.51,479.531 1666.97,461.174 1667.85,899.662 1668.85,910.907 1669.91,893.256 1671.08,932.067 1672.31,969.028 1673.65,999.43 1675.11,1034.66 1676.66,1043.94 1678.34,1013.2 1680.08,973.685 1681.83,976.266 1683.54,973.152 1685.26,959.158 1686.98,975.061 1688.68,1014.04 1690.41,980.034 1692.16,1025.77 1693.87,983.853 1695.6,977.155 1697.26,1022.53 1698.92,1028.05 1699.43,1015.96 1701.12,1181.54 1703.03,1209.72 1705.13,1214.27 1707.49,1190.65 1710.15,1181.04 1713.03,1175.52 1716.15,1202.96 1719.34,1193.42 1722.93,1219.82 1726.45,1215.36 1730.41,1235.21 1734.28,1244.32 1738.63,1234.73 1743.43,1174 1748.2,1139.62 1752.71,1064.69 1756.98,1000.56 1760.8,888.721 1763.87,886.723 1766.67,897.915 1769.33,930.352 1771.85,757.886 1774.17,704.371 1776.21,772.79 1778.1,792.208 1779.95,836.912 1781.71,877.044 1783.44,837.429 1785.12,876.587 1786.74,865.182 1788.32,867.901 1789.83,774.822 1791.27,795.58 1792.6,733.94 1793.69,706.45 1794.97,1052.13 1796.4,1023.49 1798.02,1010.19 1799.82,999.218 1801.78,977.311 1803.91,949.155 1806.14,931.171 1808.44,879.882 1810.76,787.977 1813.02,786.853 1815.18,787.831 1817.3,773.851 1819.4,715.223 1821.45,575.748 1823.37,555.815 1825.09,627.117 1826.77,610.452 1828.42,633.522 1830,593.108 1831.53,594.857 1832.98,644.651 1834.39,606.967 1835.8,560.668 1837.11,593.484 1838.35,445.646 1839.56,423.186 1840.66,414.793 1841.71,333.157 1842.69,385.346 1843.6,381.279 1844.49,326.524 1845.33,371.823 1846.13,429.025 1846.92,403.442 1847.25,395.03 1848,817.75 1848.85,796.126 1849.73,850.196 1850.67,878.316 1851.69,897.414 1852.77,815.165 1853.87,835.363 1854.98,832.771 1856.11,764.76 1857.24,804.492 1858.34,784.31 1859.44,774.78 1860.51,784.035 1860.66,790.378 1861.73,1125.6 1862.94,1136.67 1864.29,1113 1865.81,1136.45 1867.53,1158.13 1869.46,1173.13 1871.62,1139.61 1874.07,1141.16 1876.7,1109.39 1879.65,1084.18 1882.81,1081.52 1886,1069.97 1889.57,1086.54 1893.04,1116.94 1896.73,1070.38 1900.88,1147.6 1904.74,1167.68 1908.99,1129.85 1913.77,1122.11 1918.24,1090.48 1923.01,1082.15 1927.44,1037.18 1932.11,1046.42 1936.29,1124.75 1940.55,1118.56 1945.12,1115.07 1949.6,1049.03 1954.21,995.007 1958.42,909.045 1962.38,961.668 1965.86,981.31 1969.39,1025.53 1972.78,1061.32 1976.22,1035.47 1979.78,1068.54 1983.08,1065.93 1986.55,856.596 1989.29,913.356 1992.02,944.728 1994.73,873.438 1997.39,879.545 1999.78,935.355 2002.15,965.103 2004.51,1043.12 2006.92,1035.82 2009.41,1035 2011.86,1067.44 2014.32,1064.86 2016.82,1024.51 2019.3,1033.21 2021.64,1054.51 2023.99,1026.76 2026.34,1013.36 2028.6,1035.47 2030.75,1035.6 2032.91,989.481 2035.01,943.836 2036.95,965.014 2038.79,984.133 2040.59,968.708 2041.85,976.591 2043.58,1208.04 2045.53,1229.17 2047.72,1218.2 2050.19,1220.76 2052.85,1228.85 2055.85,1244.01 2059.05,1241.73 2062.66,1251.29 2066.58,1249.66 2070.99,1255.65 2075.72,1238.12 2081.04,1241.65 2086.16,1244.03 2091.59,1250.31 2097.13,1252.24 2103.25,1259.49 2109.31,1272.13 2115.63,1240.41 2122.75,1197.19 2129.93,1223.73 2135.5,1190.98 2141.75,1186.81 2147.41,1138.68 2153.77,1141.37 2159.11,1058.16 2165.01,1043.2 2170.03,957.034 2175.09,901.818 2179.45,735.473 2182.94,858.471 2186.14,818.402 2189.39,691.073 2192.31,706.768 2194.93,646.584 2197.43,681.473 2199.74,611.738 2201.92,537.316 2203.86,629.431 2205.72,632.985 2207.5,574.849 2209.21,498.534 2210.81,495.346 2212.28,623.622 2213.69,555.968 2215.1,512.397 2216.4,549.86 2217.64,567.05 2218.85,499.345 2220.01,498.405 2221.1,438.095 2222.14,455.427 2223.13,522.079 2224.08,321.413 2224.98,287.126 2225.79,172.217 2226.56,86.1857 2226.58,87.2864 2227.28,771.7 2228.05,753.68 2228.9,789.14 2229.79,842.565 2230.77,872.281 2231.81,857.664 2232.93,880.786 2234.08,842.104 2235.27,806.695 2236.44,840.603 2237.61,895.454 2238.83,856.278 2240.09,815.707 2241.29,825.295 2242.46,852.21 2243.64,916.533 2244.15,909.435 2245.37,1145.69 2246.74,1121.88 2248.27,1102.65 2250.01,1056.22 2251.93,1049.58 2253.94,1032.41 2256.11,1048.91 2258.34,1033.55 2260.74,1064.02 2263.14,1078.81 2265.71,1104.49 2268.36,1118.72 2271.16,1137.67 2274.05,1081.72 2277.13,1044.32 2280.03,1045.89 2282.84,1009.29 2285.61,1051.21 2288.26,1015.71 2291,994.555 2293.56,1003.8 2296.02,1000.44 2298.43,1032.04 2300.8,1050.06 2303.18,1058.87 2305.54,1076.13 2307.9,1066.65 2310.25,1092.38 2312.55,1134.66 2314.94,1150.88 2317.41,1123.99 2319.91,1130.54 2322.32,1094.38 2324.72,1109.52 2327,1105.31 2328.28,1109.19 2330.57,1232.83 2333.15,1212.59 2335.98,1234.19 2338.85,1193.46 2342.08,1189.04 2345.23,1185.27 2348.58,1183.34 2351.98,1172.45 2352.76,1193.77 "/>
<path clip-path="url(#clip960)" d="M256.476 196.789 L562.429 196.789 L562.429 93.1086 L256.476 93.1086  Z" fill="#ffffff" fill-rule="evenodd" fill-opacity="1"/>
<polyline clip-path="url(#clip960)" style="stroke:#000000; stroke-linecap:round; stroke-linejoin:round; stroke-width:4; stroke-opacity:1; fill:none" points="256.476,196.789 562.429,196.789 562.429,93.1086 256.476,93.1086 256.476,196.789 "/>
<polyline clip-path="url(#clip960)" style="stroke:#009af9; stroke-linecap:round; stroke-linejoin:round; stroke-width:8; stroke-opacity:1; fill:none" points="280.571,144.949 425.142,144.949 "/>
<path clip-path="url(#clip960)" d="M449.238 151.997 L449.238 136.303 L453.497 136.303 L453.497 151.835 Q453.497 155.516 454.932 157.368 Q456.367 159.196 459.237 159.196 Q462.687 159.196 464.677 156.997 Q466.691 154.798 466.691 151.002 L466.691 136.303 L470.95 136.303 L470.95 162.229 L466.691 162.229 L466.691 158.247 Q465.14 160.608 463.08 161.766 Q461.043 162.9 458.335 162.9 Q453.867 162.9 451.552 160.122 Q449.238 157.344 449.238 151.997 M459.955 135.678 L459.955 135.678 Z" fill="#000000" fill-rule="nonzero" fill-opacity="1" /><path clip-path="url(#clip960)" d="M479.33 126.21 L489.145 126.21 L489.145 129.52 L483.589 129.52 L483.589 165.168 L489.145 165.168 L489.145 168.479 L479.33 168.479 L479.33 126.21 Z" fill="#000000" fill-rule="nonzero" fill-opacity="1" /><path clip-path="url(#clip960)" d="M499.631 158.293 L507.27 158.293 L507.27 131.928 L498.959 133.595 L498.959 129.335 L507.223 127.669 L511.899 127.669 L511.899 158.293 L519.538 158.293 L519.538 162.229 L499.631 162.229 L499.631 158.293 Z" fill="#000000" fill-rule="nonzero" fill-opacity="1" /><path clip-path="url(#clip960)" d="M538.334 126.21 L538.334 168.479 L528.52 168.479 L528.52 165.168 L534.052 165.168 L534.052 129.52 L528.52 129.52 L528.52 126.21 L538.334 126.21 Z" fill="#000000" fill-rule="nonzero" fill-opacity="1" /></svg>
