<?xml version="1.0" encoding="utf-8"?>
<svg xmlns="http://www.w3.org/2000/svg" xmlns:xlink="http://www.w3.org/1999/xlink" width="600" height="400" viewBox="0 0 2400 1600">
<defs>
  <clipPath id="clip290">
    <rect x="0" y="0" width="2400" height="1600"/>
  </clipPath>
</defs>
<path clip-path="url(#clip290)" d="M0 1600 L2400 1600 L2400 0 L0 0  Z" fill="#ffffff" fill-rule="evenodd" fill-opacity="1"/>
<defs>
  <clipPath id="clip291">
    <rect x="140" y="47" width="2213" height="1377"/>
  </clipPath>
</defs>
<path clip-path="url(#clip290)" d="M140.696 1423.18 L2352.76 1423.18 L2352.76 47.2441 L140.696 47.2441  Z" fill="#ffffff" fill-rule="evenodd" fill-opacity="1"/>
<polyline clip-path="url(#clip291)" style="stroke:#000000; stroke-linecap:round; stroke-linejoin:round; stroke-width:2; stroke-opacity:0.1; fill:none" points="580.221,1423.18 580.221,47.2441 "/>
<polyline clip-path="url(#clip291)" style="stroke:#000000; stroke-linecap:round; stroke-linejoin:round; stroke-width:2; stroke-opacity:0.1; fill:none" points="1028.71,1423.18 1028.71,47.2441 "/>
<polyline clip-path="url(#clip291)" style="stroke:#000000; stroke-linecap:round; stroke-linejoin:round; stroke-width:2; stroke-opacity:0.1; fill:none" points="1477.19,1423.18 1477.19,47.2441 "/>
<polyline clip-path="url(#clip291)" style="stroke:#000000; stroke-linecap:round; stroke-linejoin:round; stroke-width:2; stroke-opacity:0.1; fill:none" points="1925.68,1423.18 1925.68,47.2441 "/>
<polyline clip-path="url(#clip291)" style="stroke:#000000; stroke-linecap:round; stroke-linejoin:round; stroke-width:2; stroke-opacity:0.1; fill:none" points="140.696,1388.27 2352.76,1388.27 "/>
<polyline clip-path="url(#clip291)" style="stroke:#000000; stroke-linecap:round; stroke-linejoin:round; stroke-width:2; stroke-opacity:0.1; fill:none" points="140.696,984.728 2352.76,984.728 "/>
<polyline clip-path="url(#clip291)" style="stroke:#000000; stroke-linecap:round; stroke-linejoin:round; stroke-width:2; stroke-opacity:0.1; fill:none" points="140.696,581.187 2352.76,581.187 "/>
<polyline clip-path="url(#clip291)" style="stroke:#000000; stroke-linecap:round; stroke-linejoin:round; stroke-width:2; stroke-opacity:0.1; fill:none" points="140.696,177.645 2352.76,177.645 "/>
<polyline clip-path="url(#clip290)" style="stroke:#000000; stroke-linecap:round; stroke-linejoin:round; stroke-width:4; stroke-opacity:1; fill:none" points="140.696,1423.18 2352.76,1423.18 "/>
<polyline clip-path="url(#clip290)" style="stroke:#000000; stroke-linecap:round; stroke-linejoin:round; stroke-width:4; stroke-opacity:1; fill:none" points="580.221,1423.18 580.221,1404.28 "/>
<polyline clip-path="url(#clip290)" style="stroke:#000000; stroke-linecap:round; stroke-linejoin:round; stroke-width:4; stroke-opacity:1; fill:none" points="1028.71,1423.18 1028.71,1404.28 "/>
<polyline clip-path="url(#clip290)" style="stroke:#000000; stroke-linecap:round; stroke-linejoin:round; stroke-width:4; stroke-opacity:1; fill:none" points="1477.19,1423.18 1477.19,1404.28 "/>
<polyline clip-path="url(#clip290)" style="stroke:#000000; stroke-linecap:round; stroke-linejoin:round; stroke-width:4; stroke-opacity:1; fill:none" points="1925.68,1423.18 1925.68,1404.28 "/>
<path clip-path="url(#clip290)" d="M554.908 1481.64 L562.547 1481.64 L562.547 1455.28 L554.237 1456.95 L554.237 1452.69 L562.501 1451.02 L567.177 1451.02 L567.177 1481.64 L574.816 1481.64 L574.816 1485.58 L554.908 1485.58 L554.908 1481.64 Z" fill="#000000" fill-rule="nonzero" fill-opacity="1" /><path clip-path="url(#clip290)" d="M594.26 1454.1 Q590.649 1454.1 588.82 1457.66 Q587.015 1461.2 587.015 1468.33 Q587.015 1475.44 588.82 1479.01 Q590.649 1482.55 594.26 1482.55 Q597.894 1482.55 599.7 1479.01 Q601.528 1475.44 601.528 1468.33 Q601.528 1461.2 599.7 1457.66 Q597.894 1454.1 594.26 1454.1 M594.26 1450.39 Q600.07 1450.39 603.126 1455 Q606.204 1459.58 606.204 1468.33 Q606.204 1477.06 603.126 1481.67 Q600.07 1486.25 594.26 1486.25 Q588.45 1486.25 585.371 1481.67 Q582.315 1477.06 582.315 1468.33 Q582.315 1459.58 585.371 1455 Q588.45 1450.39 594.26 1450.39 Z" fill="#000000" fill-rule="nonzero" fill-opacity="1" /><path clip-path="url(#clip290)" d="M1007.48 1481.64 L1023.8 1481.64 L1023.8 1485.58 L1001.85 1485.58 L1001.85 1481.64 Q1004.52 1478.89 1009.1 1474.26 Q1013.71 1469.61 1014.89 1468.27 Q1017.13 1465.74 1018.01 1464.01 Q1018.92 1462.25 1018.92 1460.56 Q1018.92 1457.8 1016.97 1456.07 Q1015.05 1454.33 1011.95 1454.33 Q1009.75 1454.33 1007.29 1455.09 Q1004.86 1455.86 1002.09 1457.41 L1002.09 1452.69 Q1004.91 1451.55 1007.36 1450.97 Q1009.82 1450.39 1011.85 1450.39 Q1017.23 1450.39 1020.42 1453.08 Q1023.61 1455.77 1023.61 1460.26 Q1023.61 1462.39 1022.8 1464.31 Q1022.02 1466.2 1019.91 1468.8 Q1019.33 1469.47 1016.23 1472.69 Q1013.13 1475.88 1007.48 1481.64 Z" fill="#000000" fill-rule="nonzero" fill-opacity="1" /><path clip-path="url(#clip290)" d="M1043.61 1454.1 Q1040 1454.1 1038.17 1457.66 Q1036.37 1461.2 1036.37 1468.33 Q1036.37 1475.44 1038.17 1479.01 Q1040 1482.55 1043.61 1482.55 Q1047.25 1482.55 1049.05 1479.01 Q1050.88 1475.44 1050.88 1468.33 Q1050.88 1461.2 1049.05 1457.66 Q1047.25 1454.1 1043.61 1454.1 M1043.61 1450.39 Q1049.42 1450.39 1052.48 1455 Q1055.56 1459.58 1055.56 1468.33 Q1055.56 1477.06 1052.48 1481.67 Q1049.42 1486.25 1043.61 1486.25 Q1037.8 1486.25 1034.73 1481.67 Q1031.67 1477.06 1031.67 1468.33 Q1031.67 1459.58 1034.73 1455 Q1037.8 1450.39 1043.61 1450.39 Z" fill="#000000" fill-rule="nonzero" fill-opacity="1" /><path clip-path="url(#clip290)" d="M1466.04 1466.95 Q1469.39 1467.66 1471.27 1469.93 Q1473.17 1472.2 1473.17 1475.53 Q1473.17 1480.65 1469.65 1483.45 Q1466.13 1486.25 1459.65 1486.25 Q1457.47 1486.25 1455.16 1485.81 Q1452.86 1485.39 1450.41 1484.54 L1450.41 1480.02 Q1452.35 1481.16 1454.67 1481.74 Q1456.98 1482.32 1459.51 1482.32 Q1463.91 1482.32 1466.2 1480.58 Q1468.51 1478.84 1468.51 1475.53 Q1468.51 1472.48 1466.36 1470.77 Q1464.23 1469.03 1460.41 1469.03 L1456.38 1469.03 L1456.38 1465.19 L1460.6 1465.19 Q1464.04 1465.19 1465.87 1463.82 Q1467.7 1462.43 1467.7 1459.84 Q1467.7 1457.18 1465.8 1455.77 Q1463.93 1454.33 1460.41 1454.33 Q1458.49 1454.33 1456.29 1454.75 Q1454.09 1455.16 1451.45 1456.04 L1451.45 1451.88 Q1454.11 1451.14 1456.43 1450.77 Q1458.77 1450.39 1460.83 1450.39 Q1466.15 1450.39 1469.25 1452.83 Q1472.35 1455.23 1472.35 1459.35 Q1472.35 1462.22 1470.71 1464.21 Q1469.07 1466.18 1466.04 1466.95 Z" fill="#000000" fill-rule="nonzero" fill-opacity="1" /><path clip-path="url(#clip290)" d="M1492.03 1454.1 Q1488.42 1454.1 1486.59 1457.66 Q1484.79 1461.2 1484.79 1468.33 Q1484.79 1475.44 1486.59 1479.01 Q1488.42 1482.55 1492.03 1482.55 Q1495.66 1482.55 1497.47 1479.01 Q1499.3 1475.44 1499.3 1468.33 Q1499.3 1461.2 1497.47 1457.66 Q1495.66 1454.1 1492.03 1454.1 M1492.03 1450.39 Q1497.84 1450.39 1500.9 1455 Q1503.98 1459.58 1503.98 1468.33 Q1503.98 1477.06 1500.9 1481.67 Q1497.84 1486.25 1492.03 1486.25 Q1486.22 1486.25 1483.14 1481.67 Q1480.09 1477.06 1480.09 1468.33 Q1480.09 1459.58 1483.14 1455 Q1486.22 1450.39 1492.03 1450.39 Z" fill="#000000" fill-rule="nonzero" fill-opacity="1" /><path clip-path="url(#clip290)" d="M1913.85 1455.09 L1902.04 1473.54 L1913.85 1473.54 L1913.85 1455.09 M1912.62 1451.02 L1918.5 1451.02 L1918.5 1473.54 L1923.43 1473.54 L1923.43 1477.43 L1918.5 1477.43 L1918.5 1485.58 L1913.85 1485.58 L1913.85 1477.43 L1898.25 1477.43 L1898.25 1472.92 L1912.62 1451.02 Z" fill="#000000" fill-rule="nonzero" fill-opacity="1" /><path clip-path="url(#clip290)" d="M1941.16 1454.1 Q1937.55 1454.1 1935.73 1457.66 Q1933.92 1461.2 1933.92 1468.33 Q1933.92 1475.44 1935.73 1479.01 Q1937.55 1482.55 1941.16 1482.55 Q1944.8 1482.55 1946.6 1479.01 Q1948.43 1475.44 1948.43 1468.33 Q1948.43 1461.2 1946.6 1457.66 Q1944.8 1454.1 1941.16 1454.1 M1941.16 1450.39 Q1946.98 1450.39 1950.03 1455 Q1953.11 1459.58 1953.11 1468.33 Q1953.11 1477.06 1950.03 1481.67 Q1946.98 1486.25 1941.16 1486.25 Q1935.35 1486.25 1932.28 1481.67 Q1929.22 1477.06 1929.22 1468.33 Q1929.22 1459.58 1932.28 1455 Q1935.35 1450.39 1941.16 1450.39 Z" fill="#000000" fill-rule="nonzero" fill-opacity="1" /><path clip-path="url(#clip290)" d="M1245.79 1522.27 L1245.79 1532.4 L1257.85 1532.4 L1257.85 1536.95 L1245.79 1536.95 L1245.79 1556.3 Q1245.79 1560.66 1246.96 1561.9 Q1248.17 1563.14 1251.83 1563.14 L1257.85 1563.14 L1257.85 1568.04 L1251.83 1568.04 Q1245.05 1568.04 1242.48 1565.53 Q1239.9 1562.98 1239.9 1556.3 L1239.9 1536.95 L1235.6 1536.95 L1235.6 1532.4 L1239.9 1532.4 L1239.9 1522.27 L1245.79 1522.27 Z" fill="#000000" fill-rule="nonzero" fill-opacity="1" /><polyline clip-path="url(#clip290)" style="stroke:#000000; stroke-linecap:round; stroke-linejoin:round; stroke-width:4; stroke-opacity:1; fill:none" points="140.696,1423.18 140.696,47.2441 "/>
<polyline clip-path="url(#clip290)" style="stroke:#000000; stroke-linecap:round; stroke-linejoin:round; stroke-width:4; stroke-opacity:1; fill:none" points="140.696,1388.27 159.593,1388.27 "/>
<polyline clip-path="url(#clip290)" style="stroke:#000000; stroke-linecap:round; stroke-linejoin:round; stroke-width:4; stroke-opacity:1; fill:none" points="140.696,984.728 159.593,984.728 "/>
<polyline clip-path="url(#clip290)" style="stroke:#000000; stroke-linecap:round; stroke-linejoin:round; stroke-width:4; stroke-opacity:1; fill:none" points="140.696,581.187 159.593,581.187 "/>
<polyline clip-path="url(#clip290)" style="stroke:#000000; stroke-linecap:round; stroke-linejoin:round; stroke-width:4; stroke-opacity:1; fill:none" points="140.696,177.645 159.593,177.645 "/>
<path clip-path="url(#clip290)" d="M92.7512 1374.07 Q89.1401 1374.07 87.3114 1377.63 Q85.5058 1381.17 85.5058 1388.3 Q85.5058 1395.41 87.3114 1398.98 Q89.1401 1402.52 92.7512 1402.52 Q96.3854 1402.52 98.1909 1398.98 Q100.02 1395.41 100.02 1388.3 Q100.02 1381.17 98.1909 1377.63 Q96.3854 1374.07 92.7512 1374.07 M92.7512 1370.36 Q98.5613 1370.36 101.617 1374.97 Q104.696 1379.55 104.696 1388.3 Q104.696 1397.03 101.617 1401.64 Q98.5613 1406.22 92.7512 1406.22 Q86.941 1406.22 83.8623 1401.64 Q80.8068 1397.03 80.8068 1388.3 Q80.8068 1379.55 83.8623 1374.97 Q86.941 1370.36 92.7512 1370.36 Z" fill="#000000" fill-rule="nonzero" fill-opacity="1" /><path clip-path="url(#clip290)" d="M53.3995 998.073 L61.0384 998.073 L61.0384 971.707 L52.7282 973.374 L52.7282 969.115 L60.9921 967.448 L65.668 967.448 L65.668 998.073 L73.3068 998.073 L73.3068 1002.01 L53.3995 1002.01 L53.3995 998.073 Z" fill="#000000" fill-rule="nonzero" fill-opacity="1" /><path clip-path="url(#clip290)" d="M92.7512 970.527 Q89.1401 970.527 87.3114 974.092 Q85.5058 977.633 85.5058 984.763 Q85.5058 991.869 87.3114 995.434 Q89.1401 998.976 92.7512 998.976 Q96.3854 998.976 98.1909 995.434 Q100.02 991.869 100.02 984.763 Q100.02 977.633 98.1909 974.092 Q96.3854 970.527 92.7512 970.527 M92.7512 966.823 Q98.5613 966.823 101.617 971.43 Q104.696 976.013 104.696 984.763 Q104.696 993.49 101.617 998.096 Q98.5613 1002.68 92.7512 1002.68 Q86.941 1002.68 83.8623 998.096 Q80.8068 993.49 80.8068 984.763 Q80.8068 976.013 83.8623 971.43 Q86.941 966.823 92.7512 966.823 Z" fill="#000000" fill-rule="nonzero" fill-opacity="1" /><path clip-path="url(#clip290)" d="M56.6171 594.532 L72.9365 594.532 L72.9365 598.467 L50.9921 598.467 L50.9921 594.532 Q53.6541 591.777 58.2375 587.147 Q62.8439 582.495 64.0245 581.152 Q66.2698 578.629 67.1494 576.893 Q68.0522 575.133 68.0522 573.444 Q68.0522 570.689 66.1078 568.953 Q64.1865 567.217 61.0847 567.217 Q58.8856 567.217 56.4319 567.981 Q54.0014 568.745 51.2236 570.296 L51.2236 565.573 Q54.0477 564.439 56.5014 563.86 Q58.955 563.282 60.9921 563.282 Q66.3624 563.282 69.5568 565.967 Q72.7513 568.652 72.7513 573.143 Q72.7513 575.272 71.9411 577.194 Q71.1541 579.092 69.0476 581.684 Q68.4689 582.356 65.367 585.573 Q62.2652 588.768 56.6171 594.532 Z" fill="#000000" fill-rule="nonzero" fill-opacity="1" /><path clip-path="url(#clip290)" d="M92.7512 566.985 Q89.1401 566.985 87.3114 570.55 Q85.5058 574.092 85.5058 581.221 Q85.5058 588.328 87.3114 591.893 Q89.1401 595.434 92.7512 595.434 Q96.3854 595.434 98.1909 591.893 Q100.02 588.328 100.02 581.221 Q100.02 574.092 98.1909 570.55 Q96.3854 566.985 92.7512 566.985 M92.7512 563.282 Q98.5613 563.282 101.617 567.888 Q104.696 572.471 104.696 581.221 Q104.696 589.948 101.617 594.555 Q98.5613 599.138 92.7512 599.138 Q86.941 599.138 83.8623 594.555 Q80.8068 589.948 80.8068 581.221 Q80.8068 572.471 83.8623 567.888 Q86.941 563.282 92.7512 563.282 Z" fill="#000000" fill-rule="nonzero" fill-opacity="1" /><path clip-path="url(#clip290)" d="M66.7559 176.291 Q70.1124 177.009 71.9874 179.277 Q73.8855 181.546 73.8855 184.879 Q73.8855 189.995 70.367 192.795 Q66.8485 195.596 60.3671 195.596 Q58.1912 195.596 55.8764 195.157 Q53.5847 194.74 51.131 193.883 L51.131 189.37 Q53.0754 190.504 55.3903 191.083 Q57.7051 191.661 60.2282 191.661 Q64.6263 191.661 66.918 189.925 Q69.2328 188.189 69.2328 184.879 Q69.2328 181.823 67.08 180.11 Q64.9504 178.374 61.131 178.374 L57.1032 178.374 L57.1032 174.532 L61.3161 174.532 Q64.7652 174.532 66.5939 173.166 Q68.4226 171.777 68.4226 169.185 Q68.4226 166.522 66.5245 165.11 Q64.6495 163.675 61.131 163.675 Q59.2097 163.675 57.0106 164.092 Q54.8115 164.509 52.1727 165.388 L52.1727 161.222 Q54.8347 160.481 57.1495 160.11 Q59.4875 159.74 61.5476 159.74 Q66.8717 159.74 69.9735 162.171 Q73.0753 164.578 73.0753 168.698 Q73.0753 171.569 71.4318 173.559 Q69.7883 175.527 66.7559 176.291 Z" fill="#000000" fill-rule="nonzero" fill-opacity="1" /><path clip-path="url(#clip290)" d="M92.7512 163.444 Q89.1401 163.444 87.3114 167.009 Q85.5058 170.55 85.5058 177.68 Q85.5058 184.786 87.3114 188.351 Q89.1401 191.893 92.7512 191.893 Q96.3854 191.893 98.1909 188.351 Q100.02 184.786 100.02 177.68 Q100.02 170.55 98.1909 167.009 Q96.3854 163.444 92.7512 163.444 M92.7512 159.74 Q98.5613 159.74 101.617 164.347 Q104.696 168.93 104.696 177.68 Q104.696 186.407 101.617 191.013 Q98.5613 195.596 92.7512 195.596 Q86.941 195.596 83.8623 191.013 Q80.8068 186.407 80.8068 177.68 Q80.8068 168.93 83.8623 164.347 Q86.941 159.74 92.7512 159.74 Z" fill="#000000" fill-rule="nonzero" fill-opacity="1" /><polyline clip-path="url(#clip291)" style="stroke:#009af9; stroke-linecap:round; stroke-linejoin:round; stroke-width:4; stroke-opacity:1; fill:none" points="140.696,1384.24 140.696,1384.24 144.397,1382.57 146.794,1381.49 149.488,1380.28 169.119,1371.45 173.519,1369.11 176.718,1367.45 184.736,1363.41 186.844,1362.37 187.837,1361.89 198.789,1356.62 200.081,1356.01 212.667,1350.13 220.745,1346.41 239.306,1337.94 241.283,1337.05 244.409,1335.63 253.626,1331.46 257.073,1329.9 258.269,1329.26 272.851,1321.77 279.25,1318.13 318.835,1298.43 320.444,1297.68 327.192,1294.55 329.717,1293.39 332.232,1292.02 336.574,1289.71 338.536,1288.52 340.648,1287.26 359.477,1275.9 374.127,1267.29 377.039,1265.47 395.922,1253.72 396.545,1253.37 405.699,1248.45 411.143,1245.22 414.822,1243.14 417.46,1241.68 419.503,1240.58 423.823,1238.29 440.972,1229.72 448.079,1226.32 448.96,1225.82 464.319,1217.69 468.454,1215.62 472.051,1213.55 478.403,1209.55 479.172,1209.09 479.433,1208.91 502.92,1193.58 504.497,1192.7 506.374,1191.66 524.347,1181.25 536.226,1175.12 553.796,1165.52 554.171,1165.32 563.659,1160.57 571.472,1156.78 586.829,1148.55 596.853,1143.56 608.35,1138.04 621.253,1131.13 629.214,1127.12 632.662,1125.43 633.783,1124.88 642.026,1120.3 644.024,1119.06 650.921,1114.46 660.51,1108.7 665.002,1105.82 680.897,1095.68 690.185,1090.52 692.477,1089.3 705.026,1082.05 723.725,1071.28 737.42,1063.37 748.587,1057.54 755.722,1053.43 757.585,1052.24 757.771,1052.13 763.229,1048.37 763.532,1048.17 776.458,1039.42 783.193,1035.42 796.924,1027.96 805.255,1023.75 815.582,1017.97 890.972,980.246 891.621,979.893 902.584,973.371 905.765,971.339 906.562,970.843 908.22,969.826 908.867,969.435 910.457,968.347 913.828,966.122 916.988,963.861 933.429,953.583 944.836,947.389 946.036,946.766 962.647,937.442 966.86,935.258 970.272,933.241 978.292,928.145 991.227,920.808 997.782,917.366 1001.76,915.339 1007.01,912.724 1017.55,906.867 1023.13,903.944 1031.31,899.82 1031.5,899.727 1040.36,895.412 1048.1,891.734 1050.3,890.514 1053.08,888.761 1059.74,884.279 1062.93,882.272 1078.15,872.59 1089.98,865.24 1095.21,861.864 1096.91,860.663 1100.04,858.281 1116.42,847.525 1124.26,843.071 1141.1,834.324 1151.6,829.209 1156.05,826.722 1156.64,826.403 1168.1,819.585 1177.8,814.348 1193.51,806.465 1203.33,801.76 1209.68,798.778 1209.88,798.682 1225.21,791.598 1238.97,785.317 1256.06,777.572 1261.65,774.6 1263.4,773.69 1270.06,770.314 1270.75,769.97 1274.87,767.933 1314.45,749.389 1319.06,747.285 1336.32,739.455 1338.18,738.614 1339.3,738.107 1342.18,736.803 1342.63,736.561 1347.13,733.802 1348.33,733.092 1353.63,729.622 1373.82,716.924 1387,709.9 1436.94,684.403 1436.98,684.383 1450.31,677.321 1450.36,677.293 1455.54,674.692 1461.63,671.224 1467.46,667.607 1469.44,666.432 1471.13,665.448 1476.89,661.757 1486.66,656.031 1487.73,655.436 1497.76,649.36 1503.2,645.88 1507,643.27 1526.55,631.638 1536.91,625.478 1548.58,619.191 1556.68,615.087 1561.34,612.413 1587.89,598.734 1591.9,596.802 1595.63,595.026 1601.93,592.062 1602.61,591.681 1614.74,585.242 1630.3,577.555 1639.1,573.373 1639.54,573.126 1647.21,568.39 1664.26,559.031 1667.27,557.243 1688.46,545.841 1690.44,544.848 1698.36,540.959 1700.36,539.997 1706.61,537.016 1708.64,536.055 1717.46,531.273 1724.66,527.57 1726.55,526.623 1748.31,516.134 1758.71,511.298 1762.35,509.318 1771.83,503.685 1779.42,498.947 1791.46,492.164 1798.66,488.394 1822.3,476.854 1826.99,474.65 1841,467.226 1841.11,467.161 1841.9,466.624 1857.72,456.91 1858.38,456.478 1864.42,452.247 1869.16,449.173 1872.39,447.19 1885.8,439.603 1890.34,436.847 1892.14,435.788 1893.1,435.15 1895.59,433.315 1896.52,432.573 1899.3,430.18 1900.64,429.073 1904.78,425.841 1915.09,417.968 1915.29,417.831 1920.13,414.193 1944.29,398 1949.08,395.32 1962.18,387.549 1966.75,385.06 1970.75,382.945 1975.1,380.346 2000.97,366.661 2006.56,363.939 2008.42,362.88 2014.86,358.85 2017.37,357.356 2017.66,357.191 2030.1,350.307 2030.45,350.094 2035.11,347.302 2037.62,345.643 2045.54,340.147 2047.85,338.459 2048.13,338.24 2059.11,330.253 2066.76,325.419 2077.76,319.141 2081.47,316.85 2089.81,312.014 2101.65,305.701 2114.4,298.475 2123.22,293.215 2125.36,291.825 2128.81,289.376 2153.84,273.138 2154.41,272.82 2155.84,272.034 2160.49,269.148 2163.65,267.273 2206.91,245.253 2209.37,243.892 2237.09,228.432 2247.04,223.513 2250.9,221.655 2264.13,214.51 2267.71,212.38 2277.22,207.068 2277.44,206.93 2291.1,198.07 2293.95,196.165 2297.02,193.93 2298.1,193.176 2305.15,187.967 2316.93,179.594 2320.48,177.347 2320.66,177.214 2322.9,175.66 2326.42,173.029 2337.93,164.554 2339.31,163.518 2348.75,156.339 2352.73,153.313 2352.76,153.293 "/>
<polyline clip-path="url(#clip291)" style="stroke:#e26f46; stroke-linecap:round; stroke-linejoin:round; stroke-width:4; stroke-opacity:1; fill:none" points="140.696,1384.24 140.696,1384.24 144.397,1382.57 146.794,1381.49 149.488,1380.05 169.119,1369 173.519,1366.38 176.718,1364.28 184.736,1359.37 186.844,1357.97 187.837,1357.24 198.789,1349.09 200.081,1348.11 212.667,1338.69 220.745,1332.94 239.306,1320.7 241.283,1319.38 244.409,1317.11 253.626,1310.34 257.073,1308.06 258.269,1307.19 272.851,1296.74 279.25,1292.31 318.835,1270.6 320.444,1269.82 327.192,1266.59 329.717,1265.18 332.232,1263.8 336.574,1261.13 338.536,1259.97 340.648,1258.74 359.477,1247.54 374.127,1238.98 377.039,1237.41 395.922,1227.85 396.545,1227.55 405.699,1223.16 411.143,1220.17 414.822,1217.91 417.46,1216.34 419.503,1215.16 423.823,1212.38 440.972,1201.48 448.079,1196.98 448.96,1196.45 464.319,1186.87 468.454,1184.56 472.051,1182.6 478.403,1178.78 479.172,1178.33 479.433,1178.18 502.92,1165.77 504.497,1164.86 506.374,1163.63 524.347,1151.98 536.226,1144.62 553.796,1134.05 554.171,1133.81 563.659,1128.09 571.472,1123.18 586.829,1114.6 596.853,1108.75 608.35,1102.63 621.253,1095.32 629.214,1090.56 632.662,1088.61 633.783,1087.89 642.026,1082.9 644.024,1081.58 650.921,1077.29 660.51,1071.12 665.002,1068.47 680.897,1058.85 690.185,1053.86 692.477,1052.48 705.026,1045.44 723.725,1035.98 737.42,1029.45 748.587,1023.47 755.722,1019.3 757.585,1018.26 757.771,1018.14 763.229,1014.75 763.532,1014.56 776.458,1006.4 783.193,1002.58 796.924,994.46 805.255,989.371 815.582,983.624 890.972,947.891 891.621,947.597 902.584,942.641 905.765,940.937 906.562,940.446 908.22,939.295 908.867,938.854 910.457,937.787 913.828,935.321 916.988,933.131 933.429,922.046 944.836,914.75 946.036,913.935 962.647,903.843 966.86,901.538 970.272,899.724 978.292,894.998 991.227,887.156 997.782,883.037 1001.76,880.359 1007.01,876.623 1017.55,869.928 1023.13,866.251 1031.31,860.697 1031.5,860.578 1040.36,854.552 1048.1,849.844 1050.3,848.579 1053.08,847.01 1059.74,843.405 1062.93,841.735 1078.15,834.131 1089.98,828.486 1095.21,826.04 1096.91,825.246 1100.04,823.796 1116.42,816.273 1124.26,812.705 1141.1,804.011 1151.6,798.159 1156.05,795.814 1156.64,795.459 1168.1,788.106 1177.8,782.586 1193.51,773.424 1203.33,768.272 1209.68,765.089 1209.88,764.97 1225.21,755.597 1238.97,747.32 1256.06,737.242 1261.65,733.819 1263.4,732.637 1270.06,728.404 1270.75,727.925 1274.87,724.815 1314.45,701.872 1319.06,699.599 1336.32,690.289 1338.18,689.347 1339.3,688.782 1342.18,687.1 1342.63,686.843 1347.13,684.32 1348.33,683.56 1353.63,680.323 1373.82,669.342 1387,661.943 1436.94,637.829 1436.98,637.812 1450.31,630.824 1450.36,630.791 1455.54,627.377 1461.63,623.165 1467.46,619.465 1469.44,618.094 1471.13,616.811 1476.89,612.255 1486.66,605.483 1487.73,604.8 1497.76,598.793 1503.2,595.775 1507,593.741 1526.55,583.926 1536.91,578.249 1548.58,571.477 1556.68,566.546 1561.34,563.515 1587.89,548.764 1591.9,546.424 1595.63,544.019 1601.93,539.712 1602.61,539.267 1614.74,531.123 1630.3,521.237 1639.1,516.342 1639.54,516.105 1647.21,512.105 1664.26,502.635 1667.27,501.086 1688.46,489.477 1690.44,488.473 1698.36,483.948 1700.36,482.685 1706.61,478.432 1708.64,476.952 1717.46,471.049 1724.66,466.154 1726.55,464.952 1748.31,451.412 1758.71,445.136 1762.35,442.79 1771.83,437.138 1779.42,432.968 1791.46,426.772 1798.66,422.674 1822.3,409.257 1826.99,406.482 1841,398.856 1841.11,398.8 1841.9,398.394 1857.72,390.534 1858.38,390.214 1864.42,387.335 1869.16,384.711 1872.39,382.714 1885.8,374.178 1890.34,371.579 1892.14,370.574 1893.1,370.048 1895.59,368.694 1896.52,368.198 1899.3,366.725 1900.64,365.906 1904.78,363.458 1915.09,357.011 1915.29,356.878 1920.13,353.321 1944.29,338.683 1949.08,336.158 1962.18,329.566 1966.75,326.98 1970.75,324.465 1975.1,321.504 2000.97,305.281 2006.56,302.302 2008.42,301.33 2014.86,297.555 2017.37,295.928 2017.66,295.723 2030.1,286.66 2030.45,286.433 2035.11,283.092 2037.62,281.395 2045.54,276.404 2047.85,274.834 2048.13,274.652 2059.11,267.067 2066.76,262.417 2077.76,255.533 2081.47,253.402 2089.81,248.846 2101.65,241.959 2114.4,235.251 2123.22,230.867 2125.36,229.826 2128.81,228.162 2153.84,216.453 2154.41,216.14 2155.84,215.241 2160.49,212.411 2163.65,210.303 2206.91,185.239 2209.37,184.033 2237.09,169.528 2247.04,164.749 2250.9,162.612 2264.13,154.804 2267.71,152.849 2277.22,147.889 2277.44,147.777 2291.1,140.13 2293.95,138.396 2297.02,136.583 2298.1,135.869 2305.15,131.424 2316.93,124.719 2320.48,122.53 2320.66,122.417 2322.9,120.893 2326.42,118.597 2337.93,111.724 2339.31,110.951 2348.75,105.888 2352.73,103.519 2352.76,103.501 "/>
<polyline clip-path="url(#clip291)" style="stroke:#3da44d; stroke-linecap:round; stroke-linejoin:round; stroke-width:4; stroke-opacity:1; fill:none" points="140.696,1384.24 140.696,1384.24 144.397,1382.27 146.794,1380.81 149.488,1378.99 169.119,1366.2 173.519,1363.36 176.718,1361.39 184.736,1356.14 186.844,1354.67 187.837,1353.91 198.789,1345.49 200.081,1344.48 212.667,1334.89 220.745,1329.06 239.306,1316.73 241.283,1315.58 244.409,1313.81 253.626,1308.83 257.073,1307.05 258.269,1306.33 272.851,1298.22 279.25,1294.43 318.835,1272.63 320.444,1271.71 327.192,1267.99 329.717,1266.43 332.232,1264.71 336.574,1261.52 338.536,1260.16 340.648,1258.55 359.477,1245.16 374.127,1235.81 377.039,1234.13 395.922,1222.99 396.545,1222.66 405.699,1217.88 411.143,1214.72 414.822,1212.37 417.46,1210.52 419.503,1209.14 423.823,1206 440.972,1194.2 448.079,1189.48 448.96,1188.93 464.319,1180.08 468.454,1177.55 472.051,1175.44 478.403,1171.39 479.172,1170.85 479.433,1170.67 502.92,1156.59 504.497,1155.61 506.374,1154.48 524.347,1143.43 536.226,1136.26 553.796,1125.84 554.171,1125.61 563.659,1119.24 571.472,1113.96 586.829,1104.95 596.853,1098.95 608.35,1091.9 621.253,1083.99 629.214,1079.6 632.662,1077.49 633.783,1076.82 642.026,1071.51 644.024,1070.13 650.921,1065.66 660.51,1060.03 665.002,1057.2 680.897,1047.16 690.185,1042.03 692.477,1040.82 705.026,1033.59 723.725,1023.98 737.42,1017.41 748.587,1011.39 755.722,1007.22 757.585,1006.17 757.771,1006.07 763.229,1003.11 763.532,1002.95 776.458,995.449 783.193,991.859 796.924,984.026 805.255,979.67 815.582,973.781 890.972,937.811 891.621,937.46 902.584,930.961 905.765,928.935 906.562,928.37 908.22,927.216 908.867,926.717 910.457,925.376 913.828,922.389 916.988,919.777 933.429,908.292 944.836,900.848 946.036,900.127 962.647,889.869 966.86,887.193 970.272,884.841 978.292,879.13 991.227,870.283 997.782,865.839 1001.76,863.003 1007.01,859.1 1017.55,852.166 1023.13,848.402 1031.31,843.37 1031.5,843.26 1040.36,838.277 1048.1,834.197 1050.3,832.886 1053.08,831.029 1059.74,826.864 1062.93,824.979 1078.15,816.684 1089.98,810.747 1095.21,808.213 1096.91,807.395 1100.04,805.905 1116.42,798.243 1124.26,794.637 1141.1,785.895 1151.6,780.781 1156.05,778.295 1156.64,777.976 1168.1,771.159 1177.8,765.214 1193.51,755.655 1203.33,749.649 1209.68,746.083 1209.88,745.953 1225.21,736.006 1238.97,727.46 1256.06,717.213 1261.65,713.757 1263.4,712.718 1270.06,708.419 1270.75,707.995 1274.87,705.183 1314.45,681.789 1319.06,679.123 1336.32,669.974 1338.18,669.042 1339.3,668.385 1342.18,666.729 1342.63,666.476 1347.13,663.621 1348.33,662.783 1353.63,658.823 1373.82,645.033 1387,637.677 1436.94,613.611 1436.98,613.594 1450.31,606.608 1450.36,606.575 1455.54,603.578 1461.63,599.748 1467.46,596.327 1469.44,595.207 1471.13,594.268 1476.89,590.704 1486.66,584.418 1487.73,583.776 1497.76,577.346 1503.2,573.732 1507,571.36 1526.55,560.479 1536.91,554.519 1548.58,547.551 1556.68,543.145 1561.34,540.34 1587.89,524.869 1591.9,522.477 1595.63,520.031 1601.93,515.669 1602.61,515.219 1614.74,507.007 1630.3,497.072 1639.1,492.162 1639.54,491.924 1647.21,487.915 1664.26,479.507 1667.27,478.076 1688.46,466.965 1690.44,465.988 1698.36,461.549 1700.36,460.476 1706.61,457.207 1708.64,455.993 1717.46,451 1724.66,446.624 1726.55,445.533 1748.31,434.028 1758.71,428.962 1762.35,426.923 1771.83,421.872 1779.42,418.03 1791.46,411.334 1798.66,407.043 1822.3,394.608 1826.99,391.932 1841,383.567 1841.11,383.496 1841.9,382.992 1857.72,372.715 1858.38,372.326 1864.42,368.907 1869.16,366.335 1872.39,364.367 1885.8,356.824 1890.34,354.447 1892.14,353.518 1893.1,352.946 1895.59,351.48 1896.52,350.947 1899.3,349.132 1900.64,348.162 1904.78,344.965 1915.09,337.153 1915.29,337.018 1920.13,333.399 1944.29,318.593 1949.08,315.663 1962.18,308.319 1966.75,305.558 1970.75,303.246 1975.1,300.469 2000.97,284.834 2006.56,281.469 2008.42,280.227 2014.86,275.676 2017.37,274.016 2017.66,273.833 2030.1,266.359 2030.45,266.165 2035.11,263.22 2037.62,261.704 2045.54,257.169 2047.85,255.704 2048.13,255.534 2059.11,249.102 2066.76,244.979 2077.76,239.38 2081.47,237.251 2089.81,232.071 2101.65,225.444 2114.4,218.022 2123.22,213.335 2125.36,212.238 2128.81,210.492 2153.84,197.098 2154.41,196.764 2155.84,195.939 2160.49,192.945 2163.65,191.009 2206.91,168.639 2209.37,167.481 2237.09,153.267 2247.04,148.531 2250.9,146.406 2264.13,138.626 2267.71,136.677 2277.22,131.728 2277.44,131.596 2291.1,123.046 2293.95,121.184 2297.02,119.25 2298.1,118.591 2305.15,114.453 2316.93,107.262 2320.48,105.266 2320.66,105.162 2322.9,103.744 2326.42,101.594 2337.93,95.0669 2339.31,94.3247 2348.75,88.7353 2352.73,86.2026 2352.76,86.1857 "/>
<polyline clip-path="url(#clip291)" style="stroke:#c271d2; stroke-linecap:round; stroke-linejoin:round; stroke-width:4; stroke-opacity:1; fill:none" points="140.696,1384.24 140.696,1384.24 144.397,1382.27 146.794,1380.81 149.488,1379.22 169.119,1368.65 173.519,1366.09 176.718,1364.3 184.736,1359.39 186.844,1358.17 187.837,1357.6 198.789,1351.65 200.081,1350.98 212.667,1344.66 220.745,1340.76 239.306,1332.07 241.283,1331.16 244.409,1329.72 253.626,1325.5 257.073,1323.93 258.269,1323.28 272.851,1315.75 279.25,1312.11 318.835,1290.71 320.444,1289.8 327.192,1286.09 329.717,1284.76 332.232,1283.44 336.574,1281.22 338.536,1280.24 340.648,1279 359.477,1267.75 374.127,1259.17 377.039,1257.6 395.922,1248.03 396.545,1247.73 405.699,1243.35 411.143,1240.35 414.822,1238.39 417.46,1236.79 419.503,1235.59 423.823,1233.12 440.972,1224.07 448.079,1220.56 448.96,1220.13 464.319,1212.82 468.454,1210.55 472.051,1208.63 478.403,1204.86 479.172,1204.35 479.433,1204.17 502.92,1190.61 504.497,1189.79 506.374,1188.83 524.347,1178.86 536.226,1172.89 553.796,1163.4 554.171,1163.21 563.659,1157.79 571.472,1153.64 586.829,1145.97 596.853,1141.18 608.35,1135 621.253,1127.65 629.214,1123.47 632.662,1121.44 633.783,1120.79 642.026,1116.23 644.024,1114.99 650.921,1110.93 660.51,1105.7 665.002,1103.36 680.897,1094.47 690.185,1089.72 692.477,1088.58 705.026,1082.5 723.725,1073.76 737.42,1067.49 748.587,1062.41 755.722,1058.63 757.585,1057.67 757.771,1057.57 763.229,1054.82 763.532,1054.66 776.458,1047.49 783.193,1044.01 796.924,1037.24 805.255,1033.28 815.582,1028.45 890.972,994.244 891.621,993.952 902.584,989.016 905.765,987.317 906.562,986.897 908.22,986.03 908.867,985.637 910.457,984.683 913.828,982.712 916.988,980.923 933.429,972.264 944.836,966.667 946.036,966.09 962.647,958.269 966.86,955.974 970.272,954.166 978.292,949.451 991.227,942.504 997.782,939.188 1001.76,937.222 1007.01,934.672 1017.55,929.665 1023.13,927.053 1031.31,923.267 1031.5,923.18 1040.36,919.114 1048.1,915.585 1050.3,914.587 1053.08,913.321 1059.74,910.304 1062.93,908.86 1078.15,901.984 1089.98,896.647 1095.21,894.292 1096.91,893.524 1100.04,892.116 1116.42,884.74 1124.26,881.212 1141.1,873.634 1151.6,868.909 1156.05,866.905 1156.64,866.641 1168.1,860.678 1177.8,855.181 1193.51,847.057 1203.33,841.552 1209.68,838.211 1209.88,838.106 1225.21,830.484 1238.97,823.952 1256.06,816.048 1261.65,813.045 1263.4,812.126 1270.06,808.207 1270.75,807.816 1274.87,805.522 1314.45,784.253 1319.06,781.669 1336.32,772.712 1338.18,771.794 1339.3,771.144 1342.18,769.505 1342.63,769.255 1347.13,766.789 1348.33,766.147 1353.63,763.365 1373.82,753.394 1387,747.199 1436.94,724.429 1436.98,724.413 1450.31,718.401 1450.36,718.376 1455.54,716.041 1461.63,712.817 1467.46,709.84 1469.44,708.847 1471.13,708.007 1476.89,704.731 1486.66,698.792 1487.73,698.18 1497.76,692.697 1503.2,689.879 1507,687.959 1526.55,678.501 1536.91,672.92 1548.58,667.032 1556.68,663.105 1561.34,660.508 1587.89,645.659 1591.9,643.642 1595.63,641.799 1601.93,638.746 1602.61,638.417 1614.74,632.684 1630.3,625.489 1639.1,621.467 1639.54,621.265 1647.21,617.781 1664.26,610.058 1667.27,608.702 1688.46,599.146 1690.44,598.252 1698.36,594.684 1700.36,593.785 1706.61,590.973 1708.64,590.057 1717.46,586.086 1724.66,582.846 1726.55,581.997 1748.31,572.206 1758.71,567.527 1762.35,565.587 1771.83,560.728 1779.42,556.992 1791.46,550.404 1798.66,546.71 1822.3,535.3 1826.99,533.108 1841,526.648 1841.11,526.598 1841.9,526.238 1857.72,518.01 1858.38,517.68 1864.42,514.718 1869.16,512.429 1872.39,510.892 1885.8,504.603 1890.34,502.507 1892.14,501.675 1893.1,501.235 1895.59,500.09 1896.52,499.666 1899.3,498.391 1900.64,497.777 1904.78,495.548 1915.09,489.499 1915.29,489.39 1920.13,486.353 1944.29,473.137 1949.08,470.365 1962.18,463.314 1966.75,460.993 1970.75,458.999 1975.1,456.51 2000.97,443.174 2006.56,440.043 2008.42,439.029 2014.86,435.13 2017.37,433.678 2017.66,433.517 2030.1,426.781 2030.45,426.602 2035.11,424.221 2037.62,422.963 2045.54,419.075 2047.85,417.76 2048.13,417.607 2059.11,411.702 2066.76,407.821 2077.76,402.452 2081.47,400.686 2089.81,396.132 2101.65,390.076 2114.4,383.886 2123.22,379.722 2125.36,378.723 2128.81,377.118 2153.84,365.649 2154.41,365.389 2155.84,364.742 2160.49,362.632 2163.65,361.2 2206.91,341.68 2209.37,340.572 2237.09,326.665 2247.04,321.974 2250.9,320.181 2264.13,313.189 2267.71,311.384 2277.22,306.723 2277.44,306.617 2291.1,299.225 2293.95,297.528 2297.02,295.749 2298.1,295.14 2305.15,291.275 2316.93,285.21 2320.48,283.452 2320.66,283.36 2322.9,282.264 2326.42,280.56 2337.93,275.089 2339.31,274.441 2348.75,270.053 2352.73,267.893 2352.76,267.879 "/>
<polyline clip-path="url(#clip291)" style="stroke:#ac8d18; stroke-linecap:round; stroke-linejoin:round; stroke-width:4; stroke-opacity:1; fill:none" points="140.696,1384.24 140.696,1384.24 144.397,1382.57 146.794,1381.49 149.488,1380.28 169.119,1371.45 173.519,1369.47 176.718,1368.03 184.736,1364.42 186.844,1363.48 187.837,1363.03 198.789,1358.1 200.081,1357.52 212.667,1351.86 220.745,1348.22 239.306,1339.87 241.283,1338.98 244.409,1337.58 253.626,1333.43 257.073,1331.88 258.269,1331.34 272.851,1324.78 279.25,1321.9 318.835,1304.09 320.444,1303.37 327.192,1300.33 329.717,1299.2 332.232,1297.85 336.574,1295.58 338.536,1294.41 340.648,1293.17 359.477,1283.04 374.127,1275.84 377.039,1274.45 395.922,1264.48 396.545,1264.17 405.699,1259.68 411.143,1257.08 414.822,1255.34 417.46,1254.1 419.503,1253.14 423.823,1251.13 440.972,1243.24 448.079,1240 448.96,1239.53 464.319,1231.6 468.454,1229.57 472.051,1227.52 478.403,1224.06 479.172,1223.65 479.433,1223.49 502.92,1210.49 504.497,1209.69 506.374,1208.75 524.347,1200.04 536.226,1194.48 553.796,1186.42 554.171,1186.25 563.659,1181.93 571.472,1178.39 586.829,1170.45 596.853,1165.56 608.35,1160.12 621.253,1154.14 629.214,1150.49 632.662,1148.92 633.783,1148.41 642.026,1144.04 644.024,1143.01 650.921,1139.02 660.51,1133.84 665.002,1131.16 680.897,1122.49 690.185,1117.82 692.477,1116.69 705.026,1109.81 723.725,1099.32 737.42,1091.51 748.587,1085.71 755.722,1082.18 757.585,1081.11 757.771,1081.01 763.229,1077.55 763.532,1077.36 776.458,1069.97 783.193,1066.41 796.924,1059.55 805.255,1055.55 815.582,1049.95 890.972,1014.47 891.621,1014.12 902.584,1007.62 905.765,1005.87 906.562,1005.43 908.22,1004.54 908.867,1004.19 910.457,1003.21 913.828,1001.19 916.988,999.093 933.429,989.38 944.836,983.394 946.036,982.787 962.647,973.62 966.86,971.46 970.272,969.46 978.292,965 991.227,958.313 997.782,955.081 1001.76,953.155 1007.01,950.649 1017.55,945.703 1023.13,943.114 1031.31,939.352 1031.5,939.267 1040.36,935.218 1048.1,931.7 1050.3,930.516 1053.08,928.804 1059.74,924.92 1062.93,923.143 1078.15,914.201 1089.98,907.163 1095.21,904.3 1096.91,903.389 1100.04,901.486 1116.42,892.39 1124.26,888.391 1141.1,880.218 1151.6,875.295 1156.05,872.867 1156.64,872.554 1168.1,866.646 1177.8,861.888 1193.51,854.451 1203.33,849.902 1209.68,846.989 1209.88,846.896 1225.21,839.917 1238.97,833.685 1256.06,825.971 1261.65,823.45 1263.4,822.659 1270.06,819.661 1270.75,819.351 1274.87,817.493 1314.45,799.681 1319.06,797.605 1336.32,789.841 1338.18,789.005 1339.3,788.5 1342.18,787.202 1342.63,786.961 1347.13,784.21 1348.33,783.502 1353.63,780.039 1373.82,767.356 1387,760.337 1436.94,736.646 1436.98,736.626 1450.31,729.662 1450.36,729.634 1455.54,727.058 1461.63,724.093 1467.46,721.306 1469.44,720.367 1471.13,719.57 1476.89,716.873 1486.66,712.347 1487.73,711.855 1497.76,706.534 1503.2,703.343 1507,700.897 1526.55,689.782 1536.91,684.505 1548.58,678.829 1556.68,674.996 1561.34,672.817 1587.89,660.627 1591.9,658.803 1595.63,657.111 1601.93,654.261 1602.61,653.89 1614.74,647.594 1630.3,640.005 1639.1,635.856 1639.54,635.649 1647.21,632.089 1664.26,624.268 1667.27,622.648 1688.46,611.968 1690.44,611.013 1698.36,607.249 1700.36,606.312 1706.61,603.397 1708.64,602.454 1717.46,598.388 1724.66,595.094 1726.55,594.234 1748.31,584.361 1758.71,579.665 1762.35,578.022 1771.83,573.05 1779.42,568.672 1791.46,562.262 1798.66,558.635 1822.3,547.343 1826.99,545.163 1841,537.79 1841.11,537.724 1841.9,537.19 1857.72,527.503 1858.38,527.073 1864.42,523.323 1869.16,520.547 1872.39,518.733 1885.8,511.639 1890.34,509.363 1892.14,508.469 1893.1,507.914 1895.59,506.278 1896.52,505.686 1899.3,503.708 1900.64,502.785 1904.78,500.052 1915.09,493.83 1915.29,493.718 1920.13,491.016 1944.29,477.386 1949.08,474.96 1962.18,468.555 1966.75,466.383 1970.75,464.498 1975.1,462.462 2000.97,450.576 2006.56,448.038 2008.42,447.029 2014.86,443.651 2017.37,442.366 2017.66,442.222 2030.1,436.076 2030.45,435.909 2035.11,433.674 2037.62,432.27 2045.54,428.014 2047.85,426.812 2048.13,426.671 2059.11,421.163 2066.76,417.463 2077.76,412.267 2081.47,410.235 2089.81,405.85 2101.65,399.946 2114.4,392.975 2123.22,387.823 2125.36,386.454 2128.81,384.034 2153.84,367.914 2154.41,367.597 2155.84,366.814 2160.49,363.939 2163.65,362.069 2206.91,340.081 2209.37,338.72 2237.09,324.695 2247.04,319.987 2250.9,318.189 2264.13,312.084 2267.71,310.145 2277.22,305.215 2277.44,305.084 2291.1,297.471 2293.95,295.982 2297.02,294.402 2298.1,293.856 2305.15,290.337 2316.93,283.831 2320.48,281.98 2320.66,281.883 2322.9,280.736 2326.42,278.961 2337.93,273.321 2339.31,272.538 2348.75,266.724 2352.73,264.449 2352.76,264.434 "/>
<polyline clip-path="url(#clip291)" style="stroke:#00a9ad; stroke-linecap:round; stroke-linejoin:round; stroke-width:4; stroke-opacity:1; fill:none" points="140.696,1384.24 140.696,1384.24 144.397,1382.57 146.794,1381.49 149.488,1380.28 169.119,1371.45 173.519,1369.47 176.718,1368.03 184.736,1364.42 186.844,1363.48 187.837,1363.03 198.789,1358.1 200.081,1357.52 212.667,1351.86 220.745,1348.22 239.306,1339.87 241.283,1338.98 244.409,1337.58 253.626,1333.43 257.073,1331.59 258.269,1330.97 272.851,1323.62 279.25,1320.53 318.835,1302.19 320.444,1301.46 327.192,1297.87 329.717,1296.57 332.232,1295.29 336.574,1293.11 338.536,1292.14 340.648,1291.11 359.477,1282.15 374.127,1275.38 377.039,1274.04 395.922,1265.45 396.545,1265.11 405.699,1259.64 411.143,1256.61 414.822,1254.63 417.46,1253.25 419.503,1252.01 423.823,1249.49 440.972,1240.32 448.079,1236.78 448.96,1236.35 464.319,1229 468.454,1227.07 472.051,1225.39 478.403,1222.46 479.172,1222.1 479.433,1221.98 502.92,1211.27 504.497,1210.55 506.374,1209.7 524.347,1201.58 536.226,1196.22 553.796,1188.31 554.171,1188.14 563.659,1183.87 571.472,1180.35 586.829,1173.44 596.853,1168.93 608.35,1163.76 621.253,1157.95 629.214,1154.37 632.662,1152.82 633.783,1152.31 642.026,1148.6 644.024,1147.71 650.921,1144.6 660.51,1140.29 665.002,1138.27 680.897,1131.12 690.185,1126.25 692.477,1125.09 705.026,1118.93 723.725,1110.13 737.42,1103.83 748.587,1098.74 755.722,1095.51 757.585,1094.66 757.771,1094.58 763.229,1092.11 763.532,1091.95 776.458,1085.24 783.193,1081.38 796.924,1074.13 805.255,1069.99 815.582,1065.02 890.972,1030.57 891.621,1030.28 902.584,1025.34 905.765,1023.91 906.562,1023.55 908.22,1022.8 908.867,1022.51 910.457,1021.79 913.828,1020.28 916.988,1018.85 933.429,1011.45 944.836,1006.32 946.036,1005.78 962.647,998.307 966.86,996.412 970.272,994.877 978.292,991.268 991.227,985.449 997.782,982.499 1001.76,980.708 1007.01,978.347 1017.55,973.607 1023.13,971.095 1031.31,967.414 1031.5,967.313 1040.36,962.672 1048.1,958.208 1050.3,956.998 1053.08,955.492 1059.74,952.009 1062.93,950.118 1078.15,941.803 1089.98,935.858 1095.21,933.321 1096.91,932.502 1100.04,931.011 1116.42,922.299 1124.26,917.81 1141.1,909.019 1151.6,903.889 1156.05,901.762 1156.64,901.485 1168.1,896.111 1177.8,891.634 1193.51,884.459 1203.33,880.002 1209.68,876.633 1209.88,876.526 1225.21,868.863 1238.97,862.311 1256.06,854.395 1261.65,851.835 1263.4,851.034 1270.06,848.004 1270.75,847.691 1274.87,845.817 1314.45,827.942 1319.06,825.863 1336.32,818.094 1338.18,817.097 1339.3,816.501 1342.18,814.989 1342.63,814.757 1347.13,812.456 1348.33,811.852 1353.63,809.218 1373.82,799.576 1387,793.481 1436.94,770.823 1436.98,770.807 1450.31,764.801 1450.36,764.776 1455.54,762.443 1461.63,759.7 1467.46,757.076 1469.44,756.184 1471.13,755.422 1476.89,752.832 1486.66,748.433 1487.73,747.858 1497.76,742.651 1503.2,739.938 1507,738.078 1526.55,727.635 1536.91,722.538 1548.58,716.985 1556.68,713.207 1561.34,711.052 1587.89,698.933 1591.9,697.113 1595.63,695.425 1601.93,692.581 1602.61,692.271 1614.74,686.799 1630.3,679.786 1639.1,675.168 1639.54,674.942 1647.21,671.105 1664.26,662.922 1667.27,661.516 1688.46,651.744 1690.44,650.668 1698.36,646.512 1700.36,645.496 1706.61,642.375 1708.64,641.376 1717.46,637.12 1724.66,633.718 1726.55,632.671 1748.31,621.483 1758.71,616.489 1762.35,614.77 1771.83,610.346 1779.42,606.846 1791.46,601.342 1798.66,598.066 1822.3,587.375 1826.99,585.257 1841,578.942 1841.11,578.892 1841.9,578.538 1857.72,571.413 1858.38,571.114 1864.42,568.399 1869.16,566.262 1872.39,564.811 1885.8,558.774 1890.34,556.734 1892.14,555.766 1893.1,555.258 1895.59,553.948 1896.52,553.468 1899.3,552.036 1900.64,551.353 1904.78,549.276 1915.09,544.247 1915.29,544.153 1920.13,541.845 1944.29,530.622 1949.08,528.435 1962.18,522.474 1966.75,520.405 1970.75,518.595 1975.1,516.626 2000.97,504.956 2006.56,502.439 2008.42,501.598 2014.86,498.701 2017.37,497.569 2017.66,497.441 2030.1,491.839 2030.45,491.684 2035.11,489.584 2037.62,488.455 2045.54,484.893 2047.85,483.851 2048.13,483.728 2059.11,478.785 2066.76,474.759 2077.76,469.253 2081.47,467.454 2089.81,463.47 2101.65,457.933 2114.4,452.066 2123.22,448.04 2125.36,447.066 2128.81,445.498 2153.84,434.178 2154.41,433.921 2155.84,433.278 2160.49,431.181 2163.65,429.756 2206.91,410.275 2209.37,409.168 2237.09,396.697 2247.04,391.494 2250.9,389.556 2264.13,383.119 2267.71,381.416 2277.22,376.261 2277.44,376.146 2291.1,369.252 2293.95,367.866 2297.02,366.382 2298.1,365.866 2305.15,362.517 2316.93,357.023 2320.48,355.386 2320.66,355.299 2322.9,354.27 2326.42,352.657 2337.93,347.403 2339.31,346.775 2348.75,342.491 2352.73,340.692 2352.76,340.679 "/>
<polyline clip-path="url(#clip291)" style="stroke:#ed5d92; stroke-linecap:round; stroke-linejoin:round; stroke-width:4; stroke-opacity:1; fill:none" points="140.696,1384.24 140.696,1384.24 144.397,1382.57 146.794,1381.49 149.488,1380.28 169.119,1371.45 173.519,1369.47 176.718,1367.76 184.736,1363.63 186.844,1362.57 187.837,1362.08 198.789,1356.74 200.081,1356.12 212.667,1350.19 220.745,1346.45 239.306,1337.96 241.283,1337.07 244.409,1335.65 253.626,1331.47 257.073,1329.91 258.269,1329.37 272.851,1322.79 279.25,1319.9 318.835,1302.08 320.444,1301.36 327.192,1298.32 329.717,1297.18 332.232,1295.84 336.574,1293.57 338.536,1292.56 340.648,1291.49 359.477,1282.31 374.127,1275.46 377.039,1273.87 395.922,1263.08 396.545,1262.75 405.699,1258.07 411.143,1255.38 414.822,1253.59 417.46,1252.32 419.503,1251.34 423.823,1249.29 440.972,1241.31 448.079,1238.05 448.96,1237.64 464.319,1230.65 468.454,1228.78 472.051,1227.15 478.403,1224.28 479.172,1223.93 479.433,1223.81 502.92,1211.91 504.497,1211.15 506.374,1210.09 524.347,1200.64 536.226,1194.84 553.796,1186.58 554.171,1186.41 563.659,1182.04 571.472,1178.46 586.829,1171.49 596.853,1166.95 608.35,1161.76 621.253,1155.95 629.214,1151.76 632.662,1150 633.783,1149.34 642.026,1144.06 644.024,1142.86 650.921,1138.91 660.51,1133.06 665.002,1130.16 680.897,1120.98 690.185,1116.13 692.477,1114.97 705.026,1107.96 723.725,1098.52 737.42,1091.99 748.587,1086.8 755.722,1083.52 757.585,1082.67 757.771,1082.58 763.229,1080.09 763.532,1079.95 776.458,1074.08 783.193,1071.03 796.924,1064.82 805.255,1061.07 815.582,1055.67 890.972,1018.56 891.621,1018.21 902.584,1011.69 905.765,1009.93 906.562,1009.5 908.22,1008.6 908.867,1008.25 910.457,1007.27 913.828,1005.25 916.988,1003.41 933.429,994.6 944.836,988.946 946.036,988.261 962.647,978.341 966.86,976.063 970.272,973.983 978.292,969.376 991.227,962.54 997.782,959.26 1001.76,957.31 1007.01,954.779 1017.55,949.041 1023.13,946.161 1031.31,941.468 1031.5,941.365 1040.36,936.631 1048.1,932.701 1050.3,931.424 1053.08,929.605 1059.74,924.997 1062.93,922.942 1078.15,914.099 1089.98,907.93 1095.21,904.908 1096.91,903.805 1100.04,901.848 1116.42,892.564 1124.26,888.514 1141.1,880.276 1151.6,874.577 1156.05,871.914 1156.64,871.574 1168.1,865.251 1177.8,860.274 1193.51,852.634 1203.33,848.014 1209.68,845.069 1209.88,844.975 1225.21,837.948 1238.97,831.694 1256.06,823.965 1261.65,821.441 1263.4,820.65 1270.06,817.65 1270.75,817.279 1274.87,815.09 1314.45,795.925 1319.06,793.797 1336.32,784.828 1338.18,783.909 1339.3,783.357 1342.18,781.706 1342.63,781.454 1347.13,778.604 1348.33,777.872 1353.63,774.32 1373.82,761.439 1387,754.359 1436.94,728.801 1436.98,728.784 1450.31,722.621 1450.36,722.596 1455.54,719.807 1461.63,716.646 1467.46,713.255 1469.44,712.144 1471.13,711.21 1476.89,708.123 1486.66,703.124 1487.73,702.592 1497.76,696.973 1503.2,693.668 1507,691.472 1526.55,681.144 1536.91,676.077 1548.58,670.546 1556.68,666.165 1561.34,663.751 1587.89,650.851 1591.9,648.975 1595.63,647.243 1601.93,644.339 1602.61,644.024 1614.74,638.477 1630.3,631.412 1639.1,627.432 1639.54,627.193 1647.21,622.576 1664.26,613.373 1667.27,611.854 1688.46,601.605 1690.44,600.674 1698.36,596.984 1700.36,596.062 1706.61,592.696 1708.64,591.631 1717.46,586.492 1724.66,582.586 1726.55,581.595 1748.31,569.547 1758.71,563.609 1762.35,561.651 1771.83,556.758 1779.42,553.002 1791.46,547.234 1798.66,543.856 1822.3,531.676 1826.99,529.407 1841,521.854 1841.11,521.787 1841.9,521.315 1857.72,512.515 1858.38,512.168 1864.42,508.603 1869.16,505.555 1872.39,503.588 1885.8,495.137 1890.34,492.188 1892.14,491.062 1893.1,490.391 1895.59,488.688 1896.52,487.991 1899.3,485.723 1900.64,484.673 1904.78,481.592 1915.09,474.737 1915.29,474.598 1920.13,471.299 1944.29,457.365 1949.08,454.909 1962.18,447.555 1966.75,445.163 1970.75,443.118 1975.1,440.939 2000.97,428.593 2006.56,426.007 2008.42,424.986 2014.86,421.57 2017.37,420.273 2017.66,420.102 2030.1,412.205 2030.45,411.971 2035.11,408.927 2037.62,407.366 2045.54,402.115 2047.85,400.682 2048.13,400.492 2059.11,392.62 2066.76,387.838 2077.76,380.829 2081.47,378.361 2089.81,373.222 2101.65,366.631 2114.4,359.233 2123.22,354.555 2125.36,353.459 2128.81,351.716 2153.84,338.333 2154.41,338.049 2155.84,337.347 2160.49,334.699 2163.65,332.96 2206.91,309.983 2209.37,308.814 2237.09,295.965 2247.04,291.43 2250.9,289.68 2264.13,283.692 2267.71,282.072 2277.22,277.779 2277.44,277.659 2291.1,270.591 2293.95,269.18 2297.02,267.414 2298.1,266.809 2305.15,262.421 2316.93,254.955 2320.48,252.605 2320.66,252.467 2322.9,250.856 2326.42,248.147 2337.93,239.486 2339.31,238.554 2348.75,231.938 2352.73,229.414 2352.76,229.397 "/>
<polyline clip-path="url(#clip291)" style="stroke:#c68125; stroke-linecap:round; stroke-linejoin:round; stroke-width:4; stroke-opacity:1; fill:none" points="140.696,1384.24 140.696,1384.24 144.397,1382.57 146.794,1381.49 149.488,1380.05 169.119,1369 173.519,1366.74 176.718,1365.13 184.736,1361.18 186.844,1359.98 187.837,1359.33 198.789,1351.94 200.081,1351.02 212.667,1342.09 220.745,1336.52 239.306,1324.54 241.283,1323.24 244.409,1320.99 253.626,1314.28 257.073,1312.01 258.269,1311.24 272.851,1301.75 279.25,1298.08 318.835,1278.28 320.444,1277.52 327.192,1274.39 329.717,1273.01 332.232,1271.66 336.574,1269.02 338.536,1267.88 340.648,1266.66 359.477,1256.69 374.127,1249.55 377.039,1248.17 395.922,1239.37 396.545,1239.09 405.699,1234.9 411.143,1232.41 414.822,1230.44 417.46,1229.05 419.503,1227.99 423.823,1225.44 440.972,1215.1 448.079,1210.74 448.96,1210.22 464.319,1200.82 468.454,1198.53 472.051,1196.6 478.403,1193.3 479.172,1192.91 479.433,1192.78 502.92,1181.37 504.497,1180.5 506.374,1179.47 524.347,1170.21 536.226,1163.65 553.796,1154.8 554.171,1154.58 563.659,1149.36 571.472,1144.71 586.829,1136.46 596.853,1130.74 608.35,1124.7 621.253,1118.32 629.214,1114.53 632.662,1112.9 633.783,1112.38 642.026,1108.54 644.024,1107.62 650.921,1104.44 660.51,1100.06 665.002,1098.02 680.897,1090.81 690.185,1086.62 692.477,1085.39 705.026,1078.95 723.725,1069.94 737.42,1063.57 748.587,1057.65 755.722,1054.07 757.585,1053.15 757.771,1053.04 763.229,1049.95 763.532,1049.79 776.458,1042.98 783.193,1039.63 796.924,1032.09 805.255,1027.22 815.582,1021.66 890.972,986.217 891.621,985.924 902.584,980.971 905.765,979.535 906.562,979.106 908.22,978.075 908.867,977.679 910.457,976.717 913.828,974.45 916.988,972.42 933.429,961.889 944.836,954.797 946.036,954.103 962.647,945.164 966.86,943.039 970.272,941.348 978.292,937.454 991.227,930.459 997.782,926.616 1001.76,924.069 1007.01,920.475 1017.55,913.982 1023.13,910.379 1031.31,905.522 1031.5,905.416 1040.36,899.902 1048.1,895.503 1050.3,894.308 1053.08,892.818 1059.74,889.367 1062.93,887.756 1078.15,880.343 1089.98,874.778 1095.21,872.356 1096.91,871.568 1100.04,870.13 1116.42,862.645 1124.26,859.088 1141.1,850.407 1151.6,845.314 1156.05,843.198 1156.64,842.869 1168.1,836.729 1177.8,831.849 1193.51,823.281 1203.33,818.337 1209.68,815.247 1209.88,815.131 1225.21,805.898 1238.97,797.686 1256.06,787.649 1261.65,784.679 1263.4,783.618 1270.06,779.765 1270.75,779.38 1274.87,776.778 1314.45,755.92 1319.06,753.727 1336.32,745.688 1338.18,744.833 1339.3,744.318 1342.18,742.995 1342.63,742.79 1347.13,740.733 1348.33,740.082 1353.63,737.265 1373.82,727.217 1387,720.102 1436.94,696.305 1436.98,696.288 1450.31,689.317 1450.36,689.284 1455.54,686.291 1461.63,682.944 1467.46,679.877 1469.44,678.688 1471.13,677.547 1476.89,673.858 1486.66,668.133 1487.73,667.539 1497.76,662.191 1503.2,659.425 1507,657.534 1526.55,648.169 1536.91,643.358 1548.58,637.185 1556.68,633.131 1561.34,630.857 1587.89,618.382 1591.9,616.205 1595.63,613.929 1601.93,609.796 1602.61,609.367 1614.74,601.441 1630.3,591.705 1639.1,586.86 1639.54,586.625 1647.21,582.654 1664.26,573.221 1667.27,571.677 1688.46,560.086 1690.44,559.083 1698.36,554.56 1700.36,553.299 1706.61,549.538 1708.64,548.19 1717.46,542.743 1724.66,538.107 1726.55,536.96 1748.31,525.064 1758.71,519.909 1762.35,518.15 1771.83,513.647 1779.42,510.104 1791.46,504.554 1798.66,500.706 1822.3,489.033 1826.99,486.434 1841,479.16 1841.11,479.105 1841.9,478.713 1857.72,471.051 1858.38,470.736 1864.42,467.901 1869.16,465.69 1872.39,463.927 1885.8,456.981 1890.34,454.738 1892.14,453.855 1893.1,453.39 1895.59,452.183 1896.52,451.738 1899.3,450.405 1900.64,449.648 1904.78,447.369 1915.09,441.973 1915.29,441.873 1920.13,439.444 1944.29,427.889 1949.08,425.669 1962.18,419.647 1966.75,417.192 1970.75,414.773 1975.1,412.255 2000.97,397.445 2006.56,394.609 2008.42,393.678 2014.86,390.523 2017.37,389.094 2017.66,388.935 2030.1,382.281 2030.45,382.104 2035.11,379.364 2037.62,377.942 2045.54,373.641 2047.85,372.429 2048.13,372.287 2059.11,366.743 2066.76,363.026 2077.76,357.814 2081.47,356.085 2089.81,352.224 2101.65,345.971 2114.4,339.657 2123.22,335.441 2125.36,334.431 2128.81,332.812 2153.84,321.286 2154.41,320.975 2155.84,320.081 2160.49,317.267 2163.65,315.167 2206.91,291.877 2209.37,290.703 2237.09,277.82 2247.04,273.28 2250.9,271.21 2264.13,264.461 2267.71,262.701 2277.22,258.129 2277.44,258.025 2291.1,251.629 2293.95,250.314 2297.02,248.897 2298.1,248.309 2305.15,244.557 2316.93,238.619 2320.48,236.888 2320.66,236.797 2322.9,235.525 2326.42,233.576 2337.93,227.526 2339.31,226.826 2348.75,222.16 2352.73,220.241 2352.76,220.226 "/>
<polyline clip-path="url(#clip291)" style="stroke:#00a98d; stroke-linecap:round; stroke-linejoin:round; stroke-width:4; stroke-opacity:1; fill:none" points="140.696,1384.24 140.696,1384.24 144.397,1382.57 146.794,1381.49 149.488,1380.28 169.119,1371.45 173.519,1369.47 176.718,1367.76 184.736,1363.63 186.844,1362.39 187.837,1361.73 198.789,1354.97 200.081,1354.11 212.667,1345.58 220.745,1340.79 239.306,1330.95 241.283,1329.96 244.409,1328.41 253.626,1323.96 257.073,1322.32 258.269,1321.75 272.851,1314.95 279.25,1312.01 318.835,1294.04 320.444,1293.31 327.192,1290.27 329.717,1289.13 332.232,1288 336.574,1285.69 338.536,1284.66 340.648,1283.57 359.477,1274.31 374.127,1267.43 377.039,1265.83 395.922,1256.17 396.545,1255.87 405.699,1251.46 411.143,1248.89 414.822,1246.86 417.46,1245.44 419.503,1244.36 423.823,1241.77 440.972,1231.33 448.079,1226.95 448.96,1226.43 464.319,1218 468.454,1215.87 472.051,1214.07 478.403,1210.94 479.172,1210.56 479.433,1210.44 502.92,1198.05 504.497,1197.27 506.374,1196.19 524.347,1186.62 536.226,1179.95 553.796,1171.01 554.171,1170.79 563.659,1165.54 571.472,1161.48 586.829,1153.92 596.853,1149.17 608.35,1143.83 621.253,1137.92 629.214,1133.69 632.662,1131.92 633.783,1131.26 642.026,1126.58 644.024,1125.49 650.921,1121.86 660.51,1116.33 665.002,1113.9 680.897,1105.8 690.185,1101.31 692.477,1100.22 705.026,1094.34 723.725,1085.75 737.42,1079.53 748.587,1073.69 755.722,1070.13 757.585,1069.22 757.771,1069.13 763.229,1066.49 763.532,1066.34 776.458,1060.24 783.193,1057.12 796.924,1049.89 805.255,1045.76 815.582,1040.8 890.972,1004.41 891.621,1004.12 902.584,999.151 905.765,997.712 906.562,997.352 908.22,996.603 908.867,996.311 910.457,995.593 913.828,993.789 916.988,992.135 933.429,983.941 944.836,977.71 946.036,976.979 962.647,967.683 966.86,965.503 970.272,963.774 978.292,959.811 991.227,953.629 997.782,950.562 1001.76,948.387 1007.01,945.612 1017.55,939.529 1023.13,936.522 1031.31,931.691 1031.5,931.585 1040.36,926.751 1048.1,922.76 1050.3,921.657 1053.08,920.273 1059.74,916.507 1062.93,914.775 1078.15,906.973 1089.98,901.245 1095.21,898.353 1096.91,897.288 1100.04,895.391 1116.42,886.316 1124.26,882.324 1141.1,873.093 1151.6,867.062 1156.05,864.663 1156.64,864.353 1168.1,858.498 1177.8,853.767 1193.51,845.339 1203.33,840.443 1209.68,837.375 1209.88,837.259 1225.21,828.059 1238.97,820.788 1256.06,811.343 1261.65,808.488 1263.4,807.608 1270.06,804.331 1270.75,803.935 1274.87,801.276 1314.45,780.182 1319.06,777.979 1336.32,768.836 1338.18,767.906 1339.3,767.347 1342.18,765.68 1342.63,765.425 1347.13,762.922 1348.33,762.271 1353.63,759.455 1373.82,749.41 1387,743.192 1436.94,718.596 1436.98,718.579 1450.31,711.564 1450.36,711.532 1455.54,708.111 1461.63,704.373 1467.46,700.558 1469.44,699.326 1471.13,698.298 1476.89,694.936 1486.66,689.606 1487.73,689.046 1497.76,683.946 1503.2,681.274 1507,679.437 1526.55,670.242 1536.91,665.476 1548.58,659.334 1556.68,654.682 1561.34,652.151 1587.89,638.9 1591.9,636.999 1595.63,635.247 1601.93,631.822 1602.61,631.458 1614.74,624.418 1630.3,615.301 1639.1,610.656 1639.54,610.39 1647.21,605.38 1664.26,595.664 1667.27,594.089 1688.46,583.599 1690.44,582.655 1698.36,578.323 1700.36,577.271 1706.61,573.568 1708.64,572.237 1717.46,566.187 1724.66,561.762 1726.55,560.66 1748.31,547.83 1758.71,541.714 1762.35,539.711 1771.83,534.73 1779.42,530.927 1791.46,525.109 1798.66,521.712 1822.3,509.499 1826.99,506.845 1841,499.462 1841.11,499.407 1841.9,499.011 1857.72,491.287 1858.38,490.971 1864.42,487.646 1869.16,484.747 1872.39,482.594 1885.8,473.602 1890.34,470.533 1892.14,469.365 1893.1,468.757 1895.59,467.207 1896.52,466.563 1899.3,464.678 1900.64,463.794 1904.78,461.172 1915.09,455.15 1915.29,455.024 1920.13,451.999 1944.29,438.818 1949.08,436.436 1962.18,429.221 1966.75,426.861 1970.75,424.84 1975.1,422.681 2000.97,409.022 2006.56,406.302 2008.42,405.405 2014.86,402.343 2017.37,401.159 2017.66,401.001 2030.1,393.505 2030.45,393.279 2035.11,389.956 2037.62,388.267 2045.54,382.696 2047.85,381.189 2048.13,380.99 2059.11,372.856 2066.76,367.955 2077.76,360.832 2081.47,358.644 2089.81,353.988 2101.65,347.838 2114.4,341.589 2123.22,337.401 2125.36,336.397 2128.81,334.785 2153.84,323.289 2154.41,322.978 2155.84,322.21 2160.49,319.752 2163.65,318.121 2206.91,295.755 2209.37,294.597 2237.09,281.814 2247.04,277.289 2250.9,275.223 2264.13,268.484 2267.71,266.726 2277.22,262.158 2277.44,262.053 2291.1,255.661 2293.95,254.346 2297.02,252.671 2298.1,252.095 2305.15,247.866 2316.93,241.401 2320.48,239.263 2320.66,239.135 2322.9,237.449 2326.42,234.636 2337.93,225.729 2339.31,224.775 2348.75,218.733 2352.73,216.388 2352.76,216.372 "/>
<polyline clip-path="url(#clip291)" style="stroke:#8e971d; stroke-linecap:round; stroke-linejoin:round; stroke-width:4; stroke-opacity:1; fill:none" points="140.696,1384.24 140.696,1384.24 144.397,1382.57 146.794,1381.49 149.488,1380.05 169.119,1369 173.519,1366.38 176.718,1364.55 184.736,1360.17 186.844,1358.88 187.837,1358.19 198.789,1350.46 200.081,1349.51 212.667,1340.36 220.745,1334.71 239.306,1322.61 241.283,1321.3 244.409,1319.05 253.626,1312.31 257.073,1310.03 258.269,1309.16 272.851,1298.73 279.25,1294.31 318.835,1272.61 320.444,1271.83 327.192,1268.6 329.717,1267.19 332.232,1265.82 336.574,1263.15 338.536,1261.99 340.648,1260.76 359.477,1249.55 374.127,1241 377.039,1239.43 395.922,1229.87 396.545,1229.56 405.699,1225.18 411.143,1222.19 414.822,1219.92 417.46,1218.36 419.503,1217.18 423.823,1214.4 440.972,1203.49 448.079,1199 448.96,1198.47 464.319,1188.89 468.454,1186.57 472.051,1184.62 478.403,1180.79 479.172,1180.35 479.433,1180.2 502.92,1167.79 504.497,1166.88 506.374,1165.81 524.347,1155.19 536.226,1148.16 553.796,1137.86 554.171,1137.62 563.659,1131.98 571.472,1127.11 586.829,1118.58 596.853,1112.76 608.35,1106.64 621.253,1099.34 629.214,1095.19 632.662,1093.44 633.783,1092.88 642.026,1088.83 644.024,1087.7 650.921,1083.92 660.51,1078.96 665.002,1076.72 680.897,1068.03 690.185,1063.35 692.477,1062.03 705.026,1055.22 723.725,1045.94 737.42,1039.47 748.587,1033.51 755.722,1029.35 757.585,1028.32 757.771,1028.2 763.229,1024.81 763.532,1024.63 776.458,1016.47 783.193,1012.66 796.924,1004.54 805.255,999.456 815.582,993.711 890.972,957.979 891.621,957.686 902.584,952.729 905.765,951.026 906.562,950.535 908.22,949.383 908.867,948.942 910.457,947.875 913.828,945.41 916.988,943.219 933.429,932.135 944.836,924.838 946.036,924.129 962.647,915.037 966.86,912.889 970.272,911.182 978.292,906.651 991.227,899.007 997.782,894.953 1001.76,892.305 1007.01,888.603 1017.55,881.955 1023.13,878.296 1031.31,873.378 1031.5,873.27 1040.36,867.712 1048.1,863.285 1050.3,862.084 1053.08,860.587 1059.74,857.122 1062.93,855.506 1078.15,848.077 1089.98,842.505 1095.21,840.08 1096.91,839.292 1100.04,837.853 1116.42,830.365 1124.26,826.807 1141.1,818.124 1151.6,813.031 1156.05,810.915 1156.64,810.586 1168.1,803.639 1177.8,798.333 1193.51,789.37 1203.33,784.288 1209.68,781.136 1209.88,781.017 1225.21,771.691 1238.97,763.436 1256.06,753.371 1261.65,749.951 1263.4,748.77 1270.06,744.539 1270.75,744.121 1274.87,741.342 1314.45,719.752 1319.06,717.531 1336.32,709.426 1338.18,708.567 1339.3,708.049 1342.18,706.72 1342.63,706.514 1347.13,704.449 1348.33,703.797 1353.63,700.972 1373.82,690.909 1387,683.789 1436.94,659.986 1436.98,659.97 1450.31,652.998 1450.36,652.965 1455.54,649.972 1461.63,646.145 1467.46,642.726 1469.44,641.437 1471.13,640.217 1476.89,635.843 1486.66,629.292 1487.73,628.628 1497.76,622.759 1503.2,619.794 1507,617.791 1526.55,608.07 1536.91,602.418 1548.58,595.664 1556.68,591.352 1561.34,588.589 1587.89,574.641 1591.9,572.358 1595.63,569.999 1601.93,565.753 1602.61,565.313 1614.74,557.247 1630.3,547.414 1639.1,542.537 1639.54,542.3 1647.21,538.311 1664.26,528.853 1667.27,527.306 1688.46,515.704 1690.44,514.7 1698.36,510.175 1700.36,508.913 1706.61,505.151 1708.64,503.804 1717.46,498.355 1724.66,493.718 1726.55,492.572 1748.31,480.675 1758.71,475.52 1762.35,473.459 1771.83,468.363 1779.42,464.497 1791.46,458.615 1798.66,454.638 1822.3,442.744 1826.99,440.122 1841,432.804 1841.11,432.749 1841.9,432.355 1857.72,424.668 1858.38,424.353 1864.42,421.512 1869.16,419.297 1872.39,417.532 1885.8,410.58 1890.34,408.336 1892.14,407.453 1893.1,406.987 1895.59,405.78 1896.52,405.335 1899.3,404.002 1900.64,403.244 1904.78,400.965 1915.09,394.824 1915.29,394.713 1920.13,391.646 1944.29,378.347 1949.08,375.954 1962.18,369.61 1966.75,367.08 1970.75,364.607 1975.1,361.683 2000.97,345.581 2006.56,342.613 2008.42,341.645 2014.86,337.879 2017.37,336.256 2017.66,336.077 2030.1,328.733 2030.45,328.541 2035.11,325.629 2037.62,324.128 2045.54,319.63 2047.85,318.174 2048.13,318.005 2059.11,311.603 2066.76,307.494 2077.76,301.908 2081.47,300.09 2089.81,296.073 2101.65,289.678 2114.4,283.276 2123.22,279.022 2125.36,278.006 2128.81,276.377 2153.84,264.81 2154.41,264.498 2155.84,263.603 2160.49,260.785 2163.65,258.684 2206.91,235.382 2209.37,234.208 2237.09,219.893 2247.04,215.142 2250.9,213.013 2264.13,205.224 2267.71,203.273 2277.22,198.319 2277.44,198.207 2291.1,190.566 2293.95,188.833 2297.02,187.021 2298.1,186.307 2305.15,181.863 2316.93,175.16 2320.48,173.267 2320.66,173.168 2322.9,171.806 2326.42,169.734 2337.93,163.393 2339.31,162.667 2348.75,157.861 2352.73,155.571 2352.76,155.553 "/>
<path clip-path="url(#clip290)" d="M214.431 663.349 L554.896 663.349 L554.896 93.1086 L214.431 93.1086  Z" fill="#ffffff" fill-rule="evenodd" fill-opacity="1"/>
<polyline clip-path="url(#clip290)" style="stroke:#000000; stroke-linecap:round; stroke-linejoin:round; stroke-width:4; stroke-opacity:1; fill:none" points="214.431,663.349 554.896,663.349 554.896,93.1086 214.431,93.1086 214.431,663.349 "/>
<polyline clip-path="url(#clip290)" style="stroke:#009af9; stroke-linecap:round; stroke-linejoin:round; stroke-width:4; stroke-opacity:1; fill:none" points="239.009,144.949 386.48,144.949 "/>
<path clip-path="url(#clip290)" d="M411.058 151.997 L411.058 136.303 L415.318 136.303 L415.318 151.835 Q415.318 155.516 416.753 157.368 Q418.188 159.196 421.058 159.196 Q424.507 159.196 426.498 156.997 Q428.512 154.798 428.512 151.002 L428.512 136.303 L432.771 136.303 L432.771 162.229 L428.512 162.229 L428.512 158.247 Q426.961 160.608 424.901 161.766 Q422.864 162.9 420.156 162.9 Q415.688 162.9 413.373 160.122 Q411.058 157.344 411.058 151.997 M421.776 135.678 L421.776 135.678 Z" fill="#000000" fill-rule="nonzero" fill-opacity="1" /><path clip-path="url(#clip290)" d="M441.151 126.21 L450.966 126.21 L450.966 129.52 L445.41 129.52 L445.41 165.168 L450.966 165.168 L450.966 168.479 L441.151 168.479 L441.151 126.21 Z" fill="#000000" fill-rule="nonzero" fill-opacity="1" /><path clip-path="url(#clip290)" d="M461.452 158.293 L469.091 158.293 L469.091 131.928 L460.78 133.595 L460.78 129.335 L469.044 127.669 L473.72 127.669 L473.72 158.293 L481.359 158.293 L481.359 162.229 L461.452 162.229 L461.452 158.293 Z" fill="#000000" fill-rule="nonzero" fill-opacity="1" /><path clip-path="url(#clip290)" d="M500.155 126.21 L500.155 168.479 L490.34 168.479 L490.34 165.168 L495.873 165.168 L495.873 129.52 L490.34 129.52 L490.34 126.21 L500.155 126.21 Z" fill="#000000" fill-rule="nonzero" fill-opacity="1" /><polyline clip-path="url(#clip290)" style="stroke:#e26f46; stroke-linecap:round; stroke-linejoin:round; stroke-width:4; stroke-opacity:1; fill:none" points="239.009,196.789 386.48,196.789 "/>
<path clip-path="url(#clip290)" d="M411.058 203.837 L411.058 188.143 L415.318 188.143 L415.318 203.675 Q415.318 207.356 416.753 209.208 Q418.188 211.036 421.058 211.036 Q424.507 211.036 426.498 208.837 Q428.512 206.638 428.512 202.842 L428.512 188.143 L432.771 188.143 L432.771 214.069 L428.512 214.069 L428.512 210.087 Q426.961 212.448 424.901 213.606 Q422.864 214.74 420.156 214.74 Q415.688 214.74 413.373 211.962 Q411.058 209.184 411.058 203.837 M421.776 187.518 L421.776 187.518 Z" fill="#000000" fill-rule="nonzero" fill-opacity="1" /><path clip-path="url(#clip290)" d="M441.151 178.05 L450.966 178.05 L450.966 181.36 L445.41 181.36 L445.41 217.008 L450.966 217.008 L450.966 220.319 L441.151 220.319 L441.151 178.05 Z" fill="#000000" fill-rule="nonzero" fill-opacity="1" /><path clip-path="url(#clip290)" d="M464.669 210.133 L480.989 210.133 L480.989 214.069 L459.044 214.069 L459.044 210.133 Q461.706 207.379 466.29 202.749 Q470.896 198.096 472.077 196.754 Q474.322 194.231 475.202 192.495 Q476.104 190.735 476.104 189.046 Q476.104 186.291 474.16 184.555 Q472.239 182.819 469.137 182.819 Q466.938 182.819 464.484 183.583 Q462.054 184.347 459.276 185.897 L459.276 181.175 Q462.1 180.041 464.554 179.462 Q467.007 178.884 469.044 178.884 Q474.415 178.884 477.609 181.569 Q480.803 184.254 480.803 188.745 Q480.803 190.874 479.993 192.796 Q479.206 194.694 477.1 197.286 Q476.521 197.958 473.419 201.175 Q470.317 204.37 464.669 210.133 Z" fill="#000000" fill-rule="nonzero" fill-opacity="1" /><path clip-path="url(#clip290)" d="M500.155 178.05 L500.155 220.319 L490.34 220.319 L490.34 217.008 L495.873 217.008 L495.873 181.36 L490.34 181.36 L490.34 178.05 L500.155 178.05 Z" fill="#000000" fill-rule="nonzero" fill-opacity="1" /><polyline clip-path="url(#clip290)" style="stroke:#3da44d; stroke-linecap:round; stroke-linejoin:round; stroke-width:4; stroke-opacity:1; fill:none" points="239.009,248.629 386.48,248.629 "/>
<path clip-path="url(#clip290)" d="M411.058 255.677 L411.058 239.983 L415.318 239.983 L415.318 255.515 Q415.318 259.196 416.753 261.048 Q418.188 262.876 421.058 262.876 Q424.507 262.876 426.498 260.677 Q428.512 258.478 428.512 254.682 L428.512 239.983 L432.771 239.983 L432.771 265.909 L428.512 265.909 L428.512 261.927 Q426.961 264.288 424.901 265.446 Q422.864 266.58 420.156 266.58 Q415.688 266.58 413.373 263.802 Q411.058 261.024 411.058 255.677 M421.776 239.358 L421.776 239.358 Z" fill="#000000" fill-rule="nonzero" fill-opacity="1" /><path clip-path="url(#clip290)" d="M441.151 229.89 L450.966 229.89 L450.966 233.2 L445.41 233.2 L445.41 268.848 L450.966 268.848 L450.966 272.159 L441.151 272.159 L441.151 229.89 Z" fill="#000000" fill-rule="nonzero" fill-opacity="1" /><path clip-path="url(#clip290)" d="M474.808 247.274 Q478.165 247.992 480.04 250.261 Q481.938 252.529 481.938 255.862 Q481.938 260.978 478.419 263.779 Q474.901 266.58 468.419 266.58 Q466.243 266.58 463.929 266.14 Q461.637 265.723 459.183 264.867 L459.183 260.353 Q461.128 261.487 463.442 262.066 Q465.757 262.645 468.28 262.645 Q472.679 262.645 474.97 260.909 Q477.285 259.173 477.285 255.862 Q477.285 252.807 475.132 251.094 Q473.003 249.358 469.183 249.358 L465.155 249.358 L465.155 245.515 L469.368 245.515 Q472.817 245.515 474.646 244.149 Q476.475 242.761 476.475 240.168 Q476.475 237.506 474.577 236.094 Q472.702 234.659 469.183 234.659 Q467.262 234.659 465.063 235.075 Q462.864 235.492 460.225 236.372 L460.225 232.205 Q462.887 231.464 465.202 231.094 Q467.54 230.724 469.6 230.724 Q474.924 230.724 478.026 233.154 Q481.128 235.562 481.128 239.682 Q481.128 242.552 479.484 244.543 Q477.841 246.511 474.808 247.274 Z" fill="#000000" fill-rule="nonzero" fill-opacity="1" /><path clip-path="url(#clip290)" d="M500.155 229.89 L500.155 272.159 L490.34 272.159 L490.34 268.848 L495.873 268.848 L495.873 233.2 L490.34 233.2 L490.34 229.89 L500.155 229.89 Z" fill="#000000" fill-rule="nonzero" fill-opacity="1" /><polyline clip-path="url(#clip290)" style="stroke:#c271d2; stroke-linecap:round; stroke-linejoin:round; stroke-width:4; stroke-opacity:1; fill:none" points="239.009,300.469 386.48,300.469 "/>
<path clip-path="url(#clip290)" d="M411.058 307.517 L411.058 291.823 L415.318 291.823 L415.318 307.355 Q415.318 311.036 416.753 312.888 Q418.188 314.716 421.058 314.716 Q424.507 314.716 426.498 312.517 Q428.512 310.318 428.512 306.522 L428.512 291.823 L432.771 291.823 L432.771 317.749 L428.512 317.749 L428.512 313.767 Q426.961 316.128 424.901 317.286 Q422.864 318.42 420.156 318.42 Q415.688 318.42 413.373 315.642 Q411.058 312.864 411.058 307.517 M421.776 291.198 L421.776 291.198 Z" fill="#000000" fill-rule="nonzero" fill-opacity="1" /><path clip-path="url(#clip290)" d="M441.151 281.73 L450.966 281.73 L450.966 285.04 L445.41 285.04 L445.41 320.688 L450.966 320.688 L450.966 323.999 L441.151 323.999 L441.151 281.73 Z" fill="#000000" fill-rule="nonzero" fill-opacity="1" /><path clip-path="url(#clip290)" d="M473.489 287.263 L461.683 305.712 L473.489 305.712 L473.489 287.263 M472.262 283.189 L478.141 283.189 L478.141 305.712 L483.072 305.712 L483.072 309.601 L478.141 309.601 L478.141 317.749 L473.489 317.749 L473.489 309.601 L457.887 309.601 L457.887 305.087 L472.262 283.189 Z" fill="#000000" fill-rule="nonzero" fill-opacity="1" /><path clip-path="url(#clip290)" d="M500.155 281.73 L500.155 323.999 L490.34 323.999 L490.34 320.688 L495.873 320.688 L495.873 285.04 L490.34 285.04 L490.34 281.73 L500.155 281.73 Z" fill="#000000" fill-rule="nonzero" fill-opacity="1" /><polyline clip-path="url(#clip290)" style="stroke:#ac8d18; stroke-linecap:round; stroke-linejoin:round; stroke-width:4; stroke-opacity:1; fill:none" points="239.009,352.309 386.48,352.309 "/>
<path clip-path="url(#clip290)" d="M411.058 359.357 L411.058 343.663 L415.318 343.663 L415.318 359.195 Q415.318 362.876 416.753 364.728 Q418.188 366.556 421.058 366.556 Q424.507 366.556 426.498 364.357 Q428.512 362.158 428.512 358.362 L428.512 343.663 L432.771 343.663 L432.771 369.589 L428.512 369.589 L428.512 365.607 Q426.961 367.968 424.901 369.126 Q422.864 370.26 420.156 370.26 Q415.688 370.26 413.373 367.482 Q411.058 364.704 411.058 359.357 M421.776 343.038 L421.776 343.038 Z" fill="#000000" fill-rule="nonzero" fill-opacity="1" /><path clip-path="url(#clip290)" d="M441.151 333.57 L450.966 333.57 L450.966 336.88 L445.41 336.88 L445.41 372.528 L450.966 372.528 L450.966 375.839 L441.151 375.839 L441.151 333.57 Z" fill="#000000" fill-rule="nonzero" fill-opacity="1" /><path clip-path="url(#clip290)" d="M460.688 335.029 L479.044 335.029 L479.044 338.964 L464.97 338.964 L464.97 347.436 Q465.989 347.089 467.007 346.927 Q468.026 346.742 469.044 346.742 Q474.831 346.742 478.211 349.913 Q481.591 353.084 481.591 358.501 Q481.591 364.079 478.118 367.181 Q474.646 370.26 468.327 370.26 Q466.151 370.26 463.882 369.89 Q461.637 369.519 459.23 368.778 L459.23 364.079 Q461.313 365.214 463.535 365.769 Q465.757 366.325 468.234 366.325 Q472.239 366.325 474.577 364.218 Q476.915 362.112 476.915 358.501 Q476.915 354.89 474.577 352.783 Q472.239 350.677 468.234 350.677 Q466.359 350.677 464.484 351.093 Q462.632 351.51 460.688 352.39 L460.688 335.029 Z" fill="#000000" fill-rule="nonzero" fill-opacity="1" /><path clip-path="url(#clip290)" d="M500.155 333.57 L500.155 375.839 L490.34 375.839 L490.34 372.528 L495.873 372.528 L495.873 336.88 L490.34 336.88 L490.34 333.57 L500.155 333.57 Z" fill="#000000" fill-rule="nonzero" fill-opacity="1" /><polyline clip-path="url(#clip290)" style="stroke:#00a9ad; stroke-linecap:round; stroke-linejoin:round; stroke-width:4; stroke-opacity:1; fill:none" points="239.009,404.149 386.48,404.149 "/>
<path clip-path="url(#clip290)" d="M411.058 411.197 L411.058 395.503 L415.318 395.503 L415.318 411.035 Q415.318 414.716 416.753 416.568 Q418.188 418.396 421.058 418.396 Q424.507 418.396 426.498 416.197 Q428.512 413.998 428.512 410.202 L428.512 395.503 L432.771 395.503 L432.771 421.429 L428.512 421.429 L428.512 417.447 Q426.961 419.808 424.901 420.966 Q422.864 422.1 420.156 422.1 Q415.688 422.1 413.373 419.322 Q411.058 416.544 411.058 411.197 M421.776 394.878 L421.776 394.878 Z" fill="#000000" fill-rule="nonzero" fill-opacity="1" /><path clip-path="url(#clip290)" d="M441.151 385.41 L450.966 385.41 L450.966 388.72 L445.41 388.72 L445.41 424.368 L450.966 424.368 L450.966 427.679 L441.151 427.679 L441.151 385.41 Z" fill="#000000" fill-rule="nonzero" fill-opacity="1" /><path clip-path="url(#clip290)" d="M471.22 402.285 Q468.072 402.285 466.22 404.438 Q464.392 406.591 464.392 410.341 Q464.392 414.068 466.22 416.243 Q468.072 418.396 471.22 418.396 Q474.368 418.396 476.197 416.243 Q478.049 414.068 478.049 410.341 Q478.049 406.591 476.197 404.438 Q474.368 402.285 471.22 402.285 M480.503 387.633 L480.503 391.892 Q478.743 391.058 476.938 390.619 Q475.155 390.179 473.396 390.179 Q468.766 390.179 466.313 393.304 Q463.882 396.429 463.535 402.748 Q464.901 400.734 466.961 399.669 Q469.021 398.582 471.498 398.582 Q476.706 398.582 479.716 401.753 Q482.748 404.901 482.748 410.341 Q482.748 415.665 479.6 418.882 Q476.452 422.1 471.22 422.1 Q465.225 422.1 462.054 417.517 Q458.882 412.91 458.882 404.183 Q458.882 395.989 462.771 391.128 Q466.66 386.244 473.211 386.244 Q474.97 386.244 476.753 386.591 Q478.558 386.938 480.503 387.633 Z" fill="#000000" fill-rule="nonzero" fill-opacity="1" /><path clip-path="url(#clip290)" d="M500.155 385.41 L500.155 427.679 L490.34 427.679 L490.34 424.368 L495.873 424.368 L495.873 388.72 L490.34 388.72 L490.34 385.41 L500.155 385.41 Z" fill="#000000" fill-rule="nonzero" fill-opacity="1" /><polyline clip-path="url(#clip290)" style="stroke:#ed5d92; stroke-linecap:round; stroke-linejoin:round; stroke-width:4; stroke-opacity:1; fill:none" points="239.009,455.989 386.48,455.989 "/>
<path clip-path="url(#clip290)" d="M411.058 463.037 L411.058 447.343 L415.318 447.343 L415.318 462.875 Q415.318 466.556 416.753 468.408 Q418.188 470.236 421.058 470.236 Q424.507 470.236 426.498 468.037 Q428.512 465.838 428.512 462.042 L428.512 447.343 L432.771 447.343 L432.771 473.269 L428.512 473.269 L428.512 469.287 Q426.961 471.648 424.901 472.806 Q422.864 473.94 420.156 473.94 Q415.688 473.94 413.373 471.162 Q411.058 468.384 411.058 463.037 M421.776 446.718 L421.776 446.718 Z" fill="#000000" fill-rule="nonzero" fill-opacity="1" /><path clip-path="url(#clip290)" d="M441.151 437.25 L450.966 437.25 L450.966 440.56 L445.41 440.56 L445.41 476.208 L450.966 476.208 L450.966 479.519 L441.151 479.519 L441.151 437.25 Z" fill="#000000" fill-rule="nonzero" fill-opacity="1" /><path clip-path="url(#clip290)" d="M459.461 438.709 L481.683 438.709 L481.683 440.699 L469.137 473.269 L464.253 473.269 L476.058 442.644 L459.461 442.644 L459.461 438.709 Z" fill="#000000" fill-rule="nonzero" fill-opacity="1" /><path clip-path="url(#clip290)" d="M500.155 437.25 L500.155 479.519 L490.34 479.519 L490.34 476.208 L495.873 476.208 L495.873 440.56 L490.34 440.56 L490.34 437.25 L500.155 437.25 Z" fill="#000000" fill-rule="nonzero" fill-opacity="1" /><polyline clip-path="url(#clip290)" style="stroke:#c68125; stroke-linecap:round; stroke-linejoin:round; stroke-width:4; stroke-opacity:1; fill:none" points="239.009,507.829 386.48,507.829 "/>
<path clip-path="url(#clip290)" d="M411.058 514.877 L411.058 499.183 L415.318 499.183 L415.318 514.715 Q415.318 518.396 416.753 520.248 Q418.188 522.076 421.058 522.076 Q424.507 522.076 426.498 519.877 Q428.512 517.678 428.512 513.882 L428.512 499.183 L432.771 499.183 L432.771 525.109 L428.512 525.109 L428.512 521.127 Q426.961 523.488 424.901 524.646 Q422.864 525.78 420.156 525.78 Q415.688 525.78 413.373 523.002 Q411.058 520.224 411.058 514.877 M421.776 498.558 L421.776 498.558 Z" fill="#000000" fill-rule="nonzero" fill-opacity="1" /><path clip-path="url(#clip290)" d="M441.151 489.09 L450.966 489.09 L450.966 492.4 L445.41 492.4 L445.41 528.048 L450.966 528.048 L450.966 531.359 L441.151 531.359 L441.151 489.09 Z" fill="#000000" fill-rule="nonzero" fill-opacity="1" /><path clip-path="url(#clip290)" d="M470.641 508.697 Q467.308 508.697 465.387 510.479 Q463.489 512.261 463.489 515.386 Q463.489 518.511 465.387 520.294 Q467.308 522.076 470.641 522.076 Q473.975 522.076 475.896 520.294 Q477.817 518.488 477.817 515.386 Q477.817 512.261 475.896 510.479 Q473.998 508.697 470.641 508.697 M465.966 506.706 Q462.956 505.965 461.267 503.905 Q459.6 501.845 459.6 498.882 Q459.6 494.738 462.54 492.331 Q465.503 489.924 470.641 489.924 Q475.803 489.924 478.743 492.331 Q481.683 494.738 481.683 498.882 Q481.683 501.845 479.993 503.905 Q478.327 505.965 475.341 506.706 Q478.72 507.493 480.595 509.785 Q482.493 512.076 482.493 515.386 Q482.493 520.41 479.415 523.095 Q476.359 525.78 470.641 525.78 Q464.924 525.78 461.845 523.095 Q458.79 520.41 458.79 515.386 Q458.79 512.076 460.688 509.785 Q462.586 507.493 465.966 506.706 M464.253 499.322 Q464.253 502.007 465.919 503.512 Q467.609 505.016 470.641 505.016 Q473.651 505.016 475.341 503.512 Q477.053 502.007 477.053 499.322 Q477.053 496.637 475.341 495.132 Q473.651 493.627 470.641 493.627 Q467.609 493.627 465.919 495.132 Q464.253 496.637 464.253 499.322 Z" fill="#000000" fill-rule="nonzero" fill-opacity="1" /><path clip-path="url(#clip290)" d="M500.155 489.09 L500.155 531.359 L490.34 531.359 L490.34 528.048 L495.873 528.048 L495.873 492.4 L490.34 492.4 L490.34 489.09 L500.155 489.09 Z" fill="#000000" fill-rule="nonzero" fill-opacity="1" /><polyline clip-path="url(#clip290)" style="stroke:#00a98d; stroke-linecap:round; stroke-linejoin:round; stroke-width:4; stroke-opacity:1; fill:none" points="239.009,559.669 386.48,559.669 "/>
<path clip-path="url(#clip290)" d="M411.058 566.717 L411.058 551.023 L415.318 551.023 L415.318 566.555 Q415.318 570.236 416.753 572.088 Q418.188 573.916 421.058 573.916 Q424.507 573.916 426.498 571.717 Q428.512 569.518 428.512 565.722 L428.512 551.023 L432.771 551.023 L432.771 576.949 L428.512 576.949 L428.512 572.967 Q426.961 575.328 424.901 576.486 Q422.864 577.62 420.156 577.62 Q415.688 577.62 413.373 574.842 Q411.058 572.064 411.058 566.717 M421.776 550.398 L421.776 550.398 Z" fill="#000000" fill-rule="nonzero" fill-opacity="1" /><path clip-path="url(#clip290)" d="M441.151 540.93 L450.966 540.93 L450.966 544.24 L445.41 544.24 L445.41 579.888 L450.966 579.888 L450.966 583.199 L441.151 583.199 L441.151 540.93 Z" fill="#000000" fill-rule="nonzero" fill-opacity="1" /><path clip-path="url(#clip290)" d="M460.78 576.231 L460.78 571.972 Q462.54 572.805 464.345 573.245 Q466.151 573.685 467.887 573.685 Q472.516 573.685 474.947 570.583 Q477.401 567.458 477.748 561.115 Q476.405 563.106 474.345 564.171 Q472.285 565.236 469.785 565.236 Q464.6 565.236 461.567 562.111 Q458.558 558.963 458.558 553.523 Q458.558 548.199 461.706 544.981 Q464.854 541.764 470.086 541.764 Q476.081 541.764 479.229 546.37 Q482.401 550.953 482.401 559.703 Q482.401 567.875 478.512 572.759 Q474.646 577.62 468.095 577.62 Q466.336 577.62 464.53 577.273 Q462.725 576.925 460.78 576.231 M470.086 561.578 Q473.234 561.578 475.063 559.426 Q476.915 557.273 476.915 553.523 Q476.915 549.796 475.063 547.643 Q473.234 545.467 470.086 545.467 Q466.938 545.467 465.086 547.643 Q463.257 549.796 463.257 553.523 Q463.257 557.273 465.086 559.426 Q466.938 561.578 470.086 561.578 Z" fill="#000000" fill-rule="nonzero" fill-opacity="1" /><path clip-path="url(#clip290)" d="M500.155 540.93 L500.155 583.199 L490.34 583.199 L490.34 579.888 L495.873 579.888 L495.873 544.24 L490.34 544.24 L490.34 540.93 L500.155 540.93 Z" fill="#000000" fill-rule="nonzero" fill-opacity="1" /><polyline clip-path="url(#clip290)" style="stroke:#8e971d; stroke-linecap:round; stroke-linejoin:round; stroke-width:4; stroke-opacity:1; fill:none" points="239.009,611.509 386.48,611.509 "/>
<path clip-path="url(#clip290)" d="M411.058 618.557 L411.058 602.863 L415.318 602.863 L415.318 618.395 Q415.318 622.076 416.753 623.928 Q418.188 625.756 421.058 625.756 Q424.507 625.756 426.498 623.557 Q428.512 621.358 428.512 617.562 L428.512 602.863 L432.771 602.863 L432.771 628.789 L428.512 628.789 L428.512 624.807 Q426.961 627.168 424.901 628.326 Q422.864 629.46 420.156 629.46 Q415.688 629.46 413.373 626.682 Q411.058 623.904 411.058 618.557 M421.776 602.238 L421.776 602.238 Z" fill="#000000" fill-rule="nonzero" fill-opacity="1" /><path clip-path="url(#clip290)" d="M441.151 592.77 L450.966 592.77 L450.966 596.08 L445.41 596.08 L445.41 631.728 L450.966 631.728 L450.966 635.039 L441.151 635.039 L441.151 592.77 Z" fill="#000000" fill-rule="nonzero" fill-opacity="1" /><path clip-path="url(#clip290)" d="M461.452 624.853 L469.091 624.853 L469.091 598.488 L460.78 600.155 L460.78 595.895 L469.044 594.229 L473.72 594.229 L473.72 624.853 L481.359 624.853 L481.359 628.789 L461.452 628.789 L461.452 624.853 Z" fill="#000000" fill-rule="nonzero" fill-opacity="1" /><path clip-path="url(#clip290)" d="M500.803 597.307 Q497.192 597.307 495.364 600.872 Q493.558 604.414 493.558 611.543 Q493.558 618.65 495.364 622.215 Q497.192 625.756 500.803 625.756 Q504.438 625.756 506.243 622.215 Q508.072 618.65 508.072 611.543 Q508.072 604.414 506.243 600.872 Q504.438 597.307 500.803 597.307 M500.803 593.604 Q506.614 593.604 509.669 598.21 Q512.748 602.793 512.748 611.543 Q512.748 620.27 509.669 624.877 Q506.614 629.46 500.803 629.46 Q494.993 629.46 491.915 624.877 Q488.859 620.27 488.859 611.543 Q488.859 602.793 491.915 598.21 Q494.993 593.604 500.803 593.604 Z" fill="#000000" fill-rule="nonzero" fill-opacity="1" /><path clip-path="url(#clip290)" d="M530.317 592.77 L530.317 635.039 L520.502 635.039 L520.502 631.728 L526.035 631.728 L526.035 596.08 L520.502 596.08 L520.502 592.77 L530.317 592.77 Z" fill="#000000" fill-rule="nonzero" fill-opacity="1" /></svg>
