<?xml version="1.0" encoding="utf-8"?>
<svg xmlns="http://www.w3.org/2000/svg" xmlns:xlink="http://www.w3.org/1999/xlink" width="600" height="400" viewBox="0 0 2400 1600">
<defs>
  <clipPath id="clip960">
    <rect x="0" y="0" width="2400" height="1600"/>
  </clipPath>
</defs>
<path clip-path="url(#clip960)" d="M0 1600 L2400 1600 L2400 0 L0 0  Z" fill="#ffffff" fill-rule="evenodd" fill-opacity="1"/>
<defs>
  <clipPath id="clip961">
    <rect x="480" y="0" width="1681" height="1600"/>
  </clipPath>
</defs>
<path clip-path="url(#clip960)" d="M112.177 1423.18 L2352.76 1423.18 L2352.76 47.2441 L112.177 47.2441  Z" fill="#ffffff" fill-rule="evenodd" fill-opacity="1"/>
<defs>
  <clipPath id="clip962">
    <rect x="112" y="47" width="2242" height="1377"/>
  </clipPath>
</defs>
<polyline clip-path="url(#clip962)" style="stroke:#000000; stroke-linecap:round; stroke-linejoin:round; stroke-width:2; stroke-opacity:0.1; fill:none" points="112.177,1423.18 112.177,47.2441 "/>
<polyline clip-path="url(#clip962)" style="stroke:#000000; stroke-linecap:round; stroke-linejoin:round; stroke-width:2; stroke-opacity:0.1; fill:none" points="560.293,1423.18 560.293,47.2441 "/>
<polyline clip-path="url(#clip962)" style="stroke:#000000; stroke-linecap:round; stroke-linejoin:round; stroke-width:2; stroke-opacity:0.1; fill:none" points="1008.41,1423.18 1008.41,47.2441 "/>
<polyline clip-path="url(#clip962)" style="stroke:#000000; stroke-linecap:round; stroke-linejoin:round; stroke-width:2; stroke-opacity:0.1; fill:none" points="1456.52,1423.18 1456.52,47.2441 "/>
<polyline clip-path="url(#clip962)" style="stroke:#000000; stroke-linecap:round; stroke-linejoin:round; stroke-width:2; stroke-opacity:0.1; fill:none" points="1904.64,1423.18 1904.64,47.2441 "/>
<polyline clip-path="url(#clip962)" style="stroke:#000000; stroke-linecap:round; stroke-linejoin:round; stroke-width:2; stroke-opacity:0.1; fill:none" points="2352.76,1423.18 2352.76,47.2441 "/>
<polyline clip-path="url(#clip962)" style="stroke:#000000; stroke-linecap:round; stroke-linejoin:round; stroke-width:2; stroke-opacity:0.1; fill:none" points="112.177,1385.14 2352.76,1385.14 "/>
<polyline clip-path="url(#clip962)" style="stroke:#000000; stroke-linecap:round; stroke-linejoin:round; stroke-width:2; stroke-opacity:0.1; fill:none" points="112.177,1062.76 2352.76,1062.76 "/>
<polyline clip-path="url(#clip962)" style="stroke:#000000; stroke-linecap:round; stroke-linejoin:round; stroke-width:2; stroke-opacity:0.1; fill:none" points="112.177,740.373 2352.76,740.373 "/>
<polyline clip-path="url(#clip962)" style="stroke:#000000; stroke-linecap:round; stroke-linejoin:round; stroke-width:2; stroke-opacity:0.1; fill:none" points="112.177,417.987 2352.76,417.987 "/>
<polyline clip-path="url(#clip962)" style="stroke:#000000; stroke-linecap:round; stroke-linejoin:round; stroke-width:2; stroke-opacity:0.1; fill:none" points="112.177,95.6006 2352.76,95.6006 "/>
<polyline clip-path="url(#clip960)" style="stroke:#000000; stroke-linecap:round; stroke-linejoin:round; stroke-width:4; stroke-opacity:1; fill:none" points="112.177,1423.18 2352.76,1423.18 "/>
<polyline clip-path="url(#clip960)" style="stroke:#000000; stroke-linecap:round; stroke-linejoin:round; stroke-width:4; stroke-opacity:1; fill:none" points="112.177,1423.18 112.177,1404.28 "/>
<polyline clip-path="url(#clip960)" style="stroke:#000000; stroke-linecap:round; stroke-linejoin:round; stroke-width:4; stroke-opacity:1; fill:none" points="560.293,1423.18 560.293,1404.28 "/>
<polyline clip-path="url(#clip960)" style="stroke:#000000; stroke-linecap:round; stroke-linejoin:round; stroke-width:4; stroke-opacity:1; fill:none" points="1008.41,1423.18 1008.41,1404.28 "/>
<polyline clip-path="url(#clip960)" style="stroke:#000000; stroke-linecap:round; stroke-linejoin:round; stroke-width:4; stroke-opacity:1; fill:none" points="1456.52,1423.18 1456.52,1404.28 "/>
<polyline clip-path="url(#clip960)" style="stroke:#000000; stroke-linecap:round; stroke-linejoin:round; stroke-width:4; stroke-opacity:1; fill:none" points="1904.64,1423.18 1904.64,1404.28 "/>
<polyline clip-path="url(#clip960)" style="stroke:#000000; stroke-linecap:round; stroke-linejoin:round; stroke-width:4; stroke-opacity:1; fill:none" points="2352.76,1423.18 2352.76,1404.28 "/>
<path clip-path="url(#clip960)" d="M112.177 1454.1 Q108.566 1454.1 106.737 1457.66 Q104.932 1461.2 104.932 1468.33 Q104.932 1475.44 106.737 1479.01 Q108.566 1482.55 112.177 1482.55 Q115.811 1482.55 117.617 1479.01 Q119.446 1475.44 119.446 1468.33 Q119.446 1461.2 117.617 1457.66 Q115.811 1454.1 112.177 1454.1 M112.177 1450.39 Q117.987 1450.39 121.043 1455 Q124.122 1459.58 124.122 1468.33 Q124.122 1477.06 121.043 1481.67 Q117.987 1486.25 112.177 1486.25 Q106.367 1486.25 103.288 1481.67 Q100.233 1477.06 100.233 1468.33 Q100.233 1459.58 103.288 1455 Q106.367 1450.39 112.177 1450.39 Z" fill="#000000" fill-rule="nonzero" fill-opacity="1" /><path clip-path="url(#clip960)" d="M554.946 1481.64 L571.265 1481.64 L571.265 1485.58 L549.321 1485.58 L549.321 1481.64 Q551.983 1478.89 556.566 1474.26 Q561.173 1469.61 562.353 1468.27 Q564.598 1465.74 565.478 1464.01 Q566.381 1462.25 566.381 1460.56 Q566.381 1457.8 564.436 1456.07 Q562.515 1454.33 559.413 1454.33 Q557.214 1454.33 554.761 1455.09 Q552.33 1455.86 549.552 1457.41 L549.552 1452.69 Q552.376 1451.55 554.83 1450.97 Q557.284 1450.39 559.321 1450.39 Q564.691 1450.39 567.885 1453.08 Q571.08 1455.77 571.08 1460.26 Q571.08 1462.39 570.27 1464.31 Q569.483 1466.2 567.376 1468.8 Q566.798 1469.47 563.696 1472.69 Q560.594 1475.88 554.946 1481.64 Z" fill="#000000" fill-rule="nonzero" fill-opacity="1" /><path clip-path="url(#clip960)" d="M1011.42 1455.09 L999.612 1473.54 L1011.42 1473.54 L1011.42 1455.09 M1010.19 1451.02 L1016.07 1451.02 L1016.07 1473.54 L1021 1473.54 L1021 1477.43 L1016.07 1477.43 L1016.07 1485.58 L1011.42 1485.58 L1011.42 1477.43 L995.816 1477.43 L995.816 1472.92 L1010.19 1451.02 Z" fill="#000000" fill-rule="nonzero" fill-opacity="1" /><path clip-path="url(#clip960)" d="M1456.93 1466.44 Q1453.78 1466.44 1451.93 1468.59 Q1450.1 1470.74 1450.1 1474.49 Q1450.1 1478.22 1451.93 1480.39 Q1453.78 1482.55 1456.93 1482.55 Q1460.08 1482.55 1461.91 1480.39 Q1463.76 1478.22 1463.76 1474.49 Q1463.76 1470.74 1461.91 1468.59 Q1460.08 1466.44 1456.93 1466.44 M1466.21 1451.78 L1466.21 1456.04 Q1464.45 1455.21 1462.65 1454.77 Q1460.86 1454.33 1459.11 1454.33 Q1454.48 1454.33 1452.02 1457.45 Q1449.59 1460.58 1449.24 1466.9 Q1450.61 1464.89 1452.67 1463.82 Q1454.73 1462.73 1457.21 1462.73 Q1462.42 1462.73 1465.42 1465.9 Q1468.46 1469.05 1468.46 1474.49 Q1468.46 1479.82 1465.31 1483.03 Q1462.16 1486.25 1456.93 1486.25 Q1450.93 1486.25 1447.76 1481.67 Q1444.59 1477.06 1444.59 1468.33 Q1444.59 1460.14 1448.48 1455.28 Q1452.37 1450.39 1458.92 1450.39 Q1460.68 1450.39 1462.46 1450.74 Q1464.27 1451.09 1466.21 1451.78 Z" fill="#000000" fill-rule="nonzero" fill-opacity="1" /><path clip-path="url(#clip960)" d="M1904.64 1469.17 Q1901.31 1469.17 1899.39 1470.95 Q1897.49 1472.73 1897.49 1475.86 Q1897.49 1478.98 1899.39 1480.77 Q1901.31 1482.55 1904.64 1482.55 Q1907.97 1482.55 1909.89 1480.77 Q1911.82 1478.96 1911.82 1475.86 Q1911.82 1472.73 1909.89 1470.95 Q1908 1469.17 1904.64 1469.17 M1899.96 1467.18 Q1896.96 1466.44 1895.27 1464.38 Q1893.6 1462.32 1893.6 1459.35 Q1893.6 1455.21 1896.54 1452.8 Q1899.5 1450.39 1904.64 1450.39 Q1909.8 1450.39 1912.74 1452.8 Q1915.68 1455.21 1915.68 1459.35 Q1915.68 1462.32 1913.99 1464.38 Q1912.33 1466.44 1909.34 1467.18 Q1912.72 1467.96 1914.59 1470.26 Q1916.49 1472.55 1916.49 1475.86 Q1916.49 1480.88 1913.41 1483.57 Q1910.36 1486.25 1904.64 1486.25 Q1898.92 1486.25 1895.84 1483.57 Q1892.79 1480.88 1892.79 1475.86 Q1892.79 1472.55 1894.69 1470.26 Q1896.58 1467.96 1899.96 1467.18 M1898.25 1459.79 Q1898.25 1462.48 1899.92 1463.98 Q1901.61 1465.49 1904.64 1465.49 Q1907.65 1465.49 1909.34 1463.98 Q1911.05 1462.48 1911.05 1459.79 Q1911.05 1457.11 1909.34 1455.6 Q1907.65 1454.1 1904.64 1454.1 Q1901.61 1454.1 1899.92 1455.6 Q1898.25 1457.11 1898.25 1459.79 Z" fill="#000000" fill-rule="nonzero" fill-opacity="1" /><path clip-path="url(#clip960)" d="M2327.44 1481.64 L2335.08 1481.64 L2335.08 1455.28 L2326.77 1456.95 L2326.77 1452.69 L2335.04 1451.02 L2339.71 1451.02 L2339.71 1481.64 L2347.35 1481.64 L2347.35 1485.58 L2327.44 1485.58 L2327.44 1481.64 Z" fill="#000000" fill-rule="nonzero" fill-opacity="1" /><path clip-path="url(#clip960)" d="M2366.8 1454.1 Q2363.18 1454.1 2361.36 1457.66 Q2359.55 1461.2 2359.55 1468.33 Q2359.55 1475.44 2361.36 1479.01 Q2363.18 1482.55 2366.8 1482.55 Q2370.43 1482.55 2372.23 1479.01 Q2374.06 1475.44 2374.06 1468.33 Q2374.06 1461.2 2372.23 1457.66 Q2370.43 1454.1 2366.8 1454.1 M2366.8 1450.39 Q2372.61 1450.39 2375.66 1455 Q2378.74 1459.58 2378.74 1468.33 Q2378.74 1477.06 2375.66 1481.67 Q2372.61 1486.25 2366.8 1486.25 Q2360.99 1486.25 2357.91 1481.67 Q2354.85 1477.06 2354.85 1468.33 Q2354.85 1459.58 2357.91 1455 Q2360.99 1450.39 2366.8 1450.39 Z" fill="#000000" fill-rule="nonzero" fill-opacity="1" /><path clip-path="url(#clip960)" d="M1231.53 1522.27 L1231.53 1532.4 L1243.59 1532.4 L1243.59 1536.95 L1231.53 1536.95 L1231.53 1556.3 Q1231.53 1560.66 1232.71 1561.9 Q1233.91 1563.14 1237.58 1563.14 L1243.59 1563.14 L1243.59 1568.04 L1237.58 1568.04 Q1230.8 1568.04 1228.22 1565.53 Q1225.64 1562.98 1225.64 1556.3 L1225.64 1536.95 L1221.34 1536.95 L1221.34 1532.4 L1225.64 1532.4 L1225.64 1522.27 L1231.53 1522.27 Z" fill="#000000" fill-rule="nonzero" fill-opacity="1" /><polyline clip-path="url(#clip960)" style="stroke:#000000; stroke-linecap:round; stroke-linejoin:round; stroke-width:4; stroke-opacity:1; fill:none" points="112.177,1423.18 112.177,47.2441 "/>
<polyline clip-path="url(#clip960)" style="stroke:#000000; stroke-linecap:round; stroke-linejoin:round; stroke-width:4; stroke-opacity:1; fill:none" points="112.177,1385.14 131.075,1385.14 "/>
<polyline clip-path="url(#clip960)" style="stroke:#000000; stroke-linecap:round; stroke-linejoin:round; stroke-width:4; stroke-opacity:1; fill:none" points="112.177,1062.76 131.075,1062.76 "/>
<polyline clip-path="url(#clip960)" style="stroke:#000000; stroke-linecap:round; stroke-linejoin:round; stroke-width:4; stroke-opacity:1; fill:none" points="112.177,740.373 131.075,740.373 "/>
<polyline clip-path="url(#clip960)" style="stroke:#000000; stroke-linecap:round; stroke-linejoin:round; stroke-width:4; stroke-opacity:1; fill:none" points="112.177,417.987 131.075,417.987 "/>
<polyline clip-path="url(#clip960)" style="stroke:#000000; stroke-linecap:round; stroke-linejoin:round; stroke-width:4; stroke-opacity:1; fill:none" points="112.177,95.6006 131.075,95.6006 "/>
<path clip-path="url(#clip960)" d="M64.2328 1370.94 Q60.6217 1370.94 58.793 1374.51 Q56.9875 1378.05 56.9875 1385.18 Q56.9875 1392.29 58.793 1395.85 Q60.6217 1399.39 64.2328 1399.39 Q67.867 1399.39 69.6726 1395.85 Q71.5013 1392.29 71.5013 1385.18 Q71.5013 1378.05 69.6726 1374.51 Q67.867 1370.94 64.2328 1370.94 M64.2328 1367.24 Q70.0429 1367.24 73.0985 1371.85 Q76.1772 1376.43 76.1772 1385.18 Q76.1772 1393.91 73.0985 1398.51 Q70.0429 1403.1 64.2328 1403.1 Q58.4226 1403.1 55.344 1398.51 Q52.2884 1393.91 52.2884 1385.18 Q52.2884 1376.43 55.344 1371.85 Q58.4226 1367.24 64.2328 1367.24 Z" fill="#000000" fill-rule="nonzero" fill-opacity="1" /><path clip-path="url(#clip960)" d="M59.8578 1076.1 L76.1772 1076.1 L76.1772 1080.04 L54.2328 1080.04 L54.2328 1076.1 Q56.8949 1073.35 61.4782 1068.72 Q66.0846 1064.07 67.2652 1062.72 Q69.5105 1060.2 70.3902 1058.46 Q71.2929 1056.71 71.2929 1055.02 Q71.2929 1052.26 69.3485 1050.52 Q67.4272 1048.79 64.3254 1048.79 Q62.1263 1048.79 59.6726 1049.55 Q57.2421 1050.32 54.4643 1051.87 L54.4643 1047.15 Q57.2884 1046.01 59.7421 1045.43 Q62.1958 1044.85 64.2328 1044.85 Q69.6031 1044.85 72.7976 1047.54 Q75.992 1050.22 75.992 1054.71 Q75.992 1056.84 75.1818 1058.77 Q74.3948 1060.66 72.2883 1063.26 Q71.7096 1063.93 68.6078 1067.15 Q65.5059 1070.34 59.8578 1076.1 Z" fill="#000000" fill-rule="nonzero" fill-opacity="1" /><path clip-path="url(#clip960)" d="M66.5939 727.167 L54.7884 745.616 L66.5939 745.616 L66.5939 727.167 M65.367 723.093 L71.2466 723.093 L71.2466 745.616 L76.1772 745.616 L76.1772 749.504 L71.2466 749.504 L71.2466 757.653 L66.5939 757.653 L66.5939 749.504 L50.9921 749.504 L50.9921 744.991 L65.367 723.093 Z" fill="#000000" fill-rule="nonzero" fill-opacity="1" /><path clip-path="url(#clip960)" d="M64.6495 416.123 Q61.5013 416.123 59.6495 418.276 Q57.8208 420.429 57.8208 424.179 Q57.8208 427.905 59.6495 430.081 Q61.5013 432.234 64.6495 432.234 Q67.7976 432.234 69.6263 430.081 Q71.4781 427.905 71.4781 424.179 Q71.4781 420.429 69.6263 418.276 Q67.7976 416.123 64.6495 416.123 M73.9318 401.47 L73.9318 405.73 Q72.1726 404.896 70.367 404.457 Q68.5846 404.017 66.8254 404.017 Q62.1958 404.017 59.7421 407.142 Q57.3115 410.267 56.9643 416.586 Q58.33 414.572 60.3902 413.507 Q62.4504 412.419 64.9272 412.419 Q70.1355 412.419 73.1448 415.591 Q76.1772 418.739 76.1772 424.179 Q76.1772 429.503 73.029 432.72 Q69.8809 435.938 64.6495 435.938 Q58.6541 435.938 55.4828 431.355 Q52.3116 426.748 52.3116 418.021 Q52.3116 409.827 56.2004 404.966 Q60.0893 400.082 66.6402 400.082 Q68.3994 400.082 70.1818 400.429 Q71.9874 400.776 73.9318 401.47 Z" fill="#000000" fill-rule="nonzero" fill-opacity="1" /><path clip-path="url(#clip960)" d="M64.3254 96.4687 Q60.9921 96.4687 59.0708 98.2511 Q57.1726 100.033 57.1726 103.158 Q57.1726 106.283 59.0708 108.066 Q60.9921 109.848 64.3254 109.848 Q67.6587 109.848 69.58 108.066 Q71.5013 106.26 71.5013 103.158 Q71.5013 100.033 69.58 98.2511 Q67.6819 96.4687 64.3254 96.4687 M59.6495 94.4779 Q56.6402 93.7372 54.9504 91.677 Q53.2838 89.6169 53.2838 86.6539 Q53.2838 82.5104 56.2236 80.103 Q59.1865 77.6956 64.3254 77.6956 Q69.4874 77.6956 72.4272 80.103 Q75.367 82.5104 75.367 86.6539 Q75.367 89.6169 73.6772 91.677 Q72.0105 93.7372 69.0244 94.4779 Q72.404 95.265 74.279 97.5566 Q76.1772 99.8483 76.1772 103.158 Q76.1772 108.182 73.0985 110.867 Q70.0429 113.552 64.3254 113.552 Q58.6078 113.552 55.5291 110.867 Q52.4736 108.182 52.4736 103.158 Q52.4736 99.8483 54.3717 97.5566 Q56.2699 95.265 59.6495 94.4779 M57.9365 87.0937 Q57.9365 89.7789 59.6032 91.2835 Q61.293 92.7881 64.3254 92.7881 Q67.3346 92.7881 69.0244 91.2835 Q70.7374 89.7789 70.7374 87.0937 Q70.7374 84.4086 69.0244 82.9039 Q67.3346 81.3993 64.3254 81.3993 Q61.293 81.3993 59.6032 82.9039 Q57.9365 84.4086 57.9365 87.0937 Z" fill="#000000" fill-rule="nonzero" fill-opacity="1" /><polyline clip-path="url(#clip962)" style="stroke:#009af9; stroke-linecap:round; stroke-linejoin:round; stroke-width:8; stroke-opacity:1; fill:none" points="112.177,1352.91 112.379,1352 112.574,1352.34 112.794,1348.84 113.042,1350.31 113.32,1350.63 113.633,1349.42 113.986,1351.74 114.382,1351.81 114.828,1349.42 115.33,1351.83 115.895,1351.55 116.53,1351.86 117.244,1349.5 118.048,1346.12 118.952,1345.32 119.969,1345.75 121.114,1346.4 122.401,1341.35 123.849,1340.63 125.479,1338.97 127.312,1342.04 129.374,1333.52 131.694,1334.92 134.304,1330.08 137.24,1329.26 140.544,1331.29 144.26,1335.03 148.441,1323.07 153.144,1308.45 158.435,1317.04 163.42,1305.97 169.028,1297.77 175.193,1295.54 181.61,1292.15 188.591,1280.98 196.171,1267.16 203.833,1257.35 211.342,1229.86 218.97,1246.75 225.472,1258.77 232.41,1283.15 239.198,1272.34 246.836,1282.04 253.595,1264.64 261.199,1288.84 267.701,1286.98 275.016,1267.88 282.423,1287.35 288.989,1285.58 296.376,1251.17 303.664,1229.07 309.624,1218.69 316.301,1301.68 323.813,1305.98 331.379,1308.44 339.863,1301.75 349.409,1279.51 359.798,1291.22 368.177,1264.48 377.603,1248.48 386.886,1237.07 396.544,1171.76 406.463,1176.91 414.432,1187.84 422.855,1093.14 431.868,1058.65 439.666,1079.29 446.341,1117.35 452.899,1035.95 460.277,1007.44 466.522,1019.15 472.408,1067.66 477.904,1016.29 483.999,1014.21 489.248,1035.71 494.402,1103.12 499.337,1133.05 504.555,1107.7 510.237,1058.65 515.714,941.191 520.77,906.807 525.211,957.986 529.364,975.904 533.512,923.023 537.604,928.596 541.316,829.384 544.939,752.825 548.134,829.824 551.091,780.296 553.975,743.08 556.664,843.838 559.158,777.051 561.69,802.231 564.034,752.768 566.283,894.639 568.533,777.845 570.762,723.347 572.745,674.175 574.631,638.5 576.366,621.109 577.707,688.715 579.339,1064.99 581.175,1090.06 583.163,1092.77 585.333,1082.93 587.613,1119.26 589.959,1105.74 592.52,1119.5 592.526,1119.54 595.081,1261.07 597.956,1257.75 601.19,1283.48 604.809,1290.01 608.881,1291.57 613.462,1276.64 618.615,1260.65 623.84,1214.03 629.018,1208.18 633.824,1232.5 637.436,1207.62 642.162,1293.96 647.478,1282.77 653.459,1268.49 659.896,1266.34 666.217,1207.31 672.754,1221.58 678.389,1234.81 684.447,1255.68 690.492,1274.74 696.797,1259.28 703.89,1241.28 710.766,1237.1 717.383,1231.66 723.969,1174.2 730.495,1182.69 736.052,1212.91 741.619,1178.47 747.592,1152 752.9,1160.56 757.824,1119.06 762.69,1099.55 767.007,1130.55 768.374,1136.51 772.441,1257.61 777.018,1201.3 782.134,1214.43 787.154,1217.6 792.801,1176.99 799.153,1202.64 804.307,1228.72 810.105,1238.66 816.43,1223.94 823.547,1242.01 829.586,1215.23 836.381,1192.95 843.255,1061.81 848.754,1055.52 854.689,1024.16 860.757,1004.07 866.5,993.984 872.099,930.046 877.743,791.663 882.883,696.665 887.496,658.661 891.628,638.713 895.418,723.901 898.973,691.53 902.534,563.89 905.813,550.918 908.776,406.568 911.514,537.935 914.019,551.238 916.499,372.732 918.827,313.244 920.848,446.411 922.809,262.707 924.656,86.1857 926.287,206.227 927.799,145.383 929.244,214 930.586,357.172 931.921,395.628 933.235,249.841 934.5,224.518 935.67,304.358 936.818,361.297 937.945,437.22 939.071,313.963 940.166,208.421 941.175,243.816 941.404,248.18 942.356,807.145 943.426,815.5 944.57,812.508 945.811,870.602 947.127,855.593 948.563,780.579 949.984,750.993 951.384,779.931 952.815,814.364 954.255,802.981 954.66,823.555 956.142,1104.63 957.811,1124.41 959.687,1161.62 961.799,1143.46 964.174,1135.95 966.846,1106.52 969.852,1088.4 973.215,1099.09 976.751,1133.68 980.58,1066.3 984.889,1082.26 988.802,1122.22 993.19,1067.2 998.126,977.308 1003.18,907.046 1008.31,888.262 1013.12,806.003 1018.24,911.746 1022.51,810.144 1027.31,702.411 1031.74,527.224 1035.96,532.708 1039.7,522.627 1043.38,507.606 1046.88,652.046 1050.23,641.021 1053.72,532.404 1057.09,403.978 1060.19,390.056 1063.09,543.167 1065.91,521.034 1068.72,224.354 1071.34,441.846 1073.74,592.819 1076.27,620.831 1078.75,686.933 1081.24,615.028 1083.82,359.081 1086.15,490.149 1088.32,508.807 1090.53,587.706 1092.69,633.628 1094.88,652.088 1097.06,633.904 1099.19,663.092 1101.31,695.422 1103.42,749.7 1105.57,712.407 1107.73,726.058 1109.84,813.389 1111.98,767.729 1114.14,687.314 1116.23,641.722 1118.21,684.549 1120.12,767.26 1122.05,768.151 1123.99,647.788 1125.88,631.439 1127.63,582.504 1129.32,500.016 1130.9,617.535 1132.39,676.837 1133.9,674.091 1135.39,594.163 1136.47,658.905 1137.87,1044.03 1139.45,1019.44 1141.22,975.694 1143.22,991.51 1145.36,1037.88 1147.75,1020.64 1150.43,1059.87 1153.16,1122.21 1156.24,1065.58 1159.69,1066.18 1163.08,1077.02 1166.69,1023.27 1170.64,1060.56 1174.28,1045.77 1178.36,1063.15 1182.24,1053.05 1186.41,1066.56 1190.42,1091.25 1194.53,984.172 1198.76,995.918 1202.55,993.588 1206.43,1105.81 1210.47,1134.45 1214.58,1036.99 1215.05,1042.1 1215.58,1214.01 1216.18,1215.44 1216.85,1185.39 1217.6,1196.06 1218.45,1190.82 1219.4,1196.8 1220.47,1202.71 1221.68,1208.97 1223.04,1196.37 1224.57,1226.09 1226.28,1200.6 1228.22,1221.62 1230.39,1221.15 1232.84,1203.65 1235.59,1153.62 1238.58,1137.31 1241.7,1127.44 1244.98,1097.36 1248.42,1146.86 1251.76,1161.4 1255.46,1155.27 1259.36,1134.25 1263.36,1089.34 1267.28,1040.37 1270.97,1009.95 1274.44,1088.38 1277.77,1063.05 1281.34,1086.79 1284.63,1019.26 1287.99,1074.29 1291.05,1091 1294.21,1089.98 1297.36,1086.41 1298.19,1066.67 1301.26,1199.87 1302.47,1206.63 1303.83,1289.32 1305.37,1301.73 1307.09,1305.89 1309.03,1304.02 1311.21,1303.8 1313.66,1313.17 1316.42,1306.38 1319.53,1316.7 1323.03,1318.48 1326.96,1309.43 1331.38,1295.02 1336.33,1293.22 1341.38,1277.28 1344.26,1279.15 1349.93,1334.61 1356.31,1337.3 1363.44,1335.36 1371.47,1341.95 1379.83,1339.89 1389.24,1322.22 1399.82,1322.87 1409.26,1316.83 1419.82,1326.36 1429.04,1332.27 1439.42,1313.1 1451.09,1282.35 1461.43,1306.06 1469,1306.21 1477.48,1349.05 1487.02,1336.51 1497.75,1338.71 1507.72,1339.89 1518.95,1339.49 1530.73,1341.37 1542.7,1323.02 1556.17,1274.12 1567.1,1265.56 1576.85,1256.59 1586.07,1222.41 1593.03,1198.13 1601.57,1252.18 1611.17,1256.7 1618.83,1291.13 1626.55,1299.69 1627.8,1297.99 1635.76,1341.5 1644.72,1349.88 1652.08,1357.68 1660.35,1368.96 1669.66,1366.16 1680.13,1370.56 1690.44,1371.21 1702.04,1369.37 1715.09,1373.4 1728.19,1370.3 1742.92,1370.97 1757.12,1371.07 1773.09,1370.93 1791.05,1366.18 1811.27,1362.54 1834.01,1354.22 1852.38,1361.45 1865.73,1371.14 1880.74,1365.74 1897.64,1370.3 1910.38,1365.4 1924.72,1365.08 1939.06,1367.47 1955.18,1366.65 1973.33,1364.54 1993.74,1374.26 2015.19,1375.24 2039.31,1373.89 2066.45,1367.05 2096.98,1370.56 2117.25,1373.57 2140.05,1379.46 2165.7,1381.59 2194.56,1379.69 2227.03,1381.26 2253.11,1382.17 2282.45,1383.92 2315.46,1384.03 2352.59,1384.24 2352.76,1384.22 "/>
<path clip-path="url(#clip960)" d="M1964.92 196.789 L2278.07 196.789 L2278.07 93.1086 L1964.92 93.1086  Z" fill="#ffffff" fill-rule="evenodd" fill-opacity="1"/>
<polyline clip-path="url(#clip960)" style="stroke:#000000; stroke-linecap:round; stroke-linejoin:round; stroke-width:4; stroke-opacity:1; fill:none" points="1964.92,196.789 2278.07,196.789 2278.07,93.1086 1964.92,93.1086 1964.92,196.789 "/>
<polyline clip-path="url(#clip960)" style="stroke:#009af9; stroke-linecap:round; stroke-linejoin:round; stroke-width:8; stroke-opacity:1; fill:none" points="1989.81,144.949 2139.18,144.949 "/>
<path clip-path="url(#clip960)" d="M2164.08 151.997 L2164.08 136.303 L2168.34 136.303 L2168.34 151.835 Q2168.34 155.516 2169.77 157.368 Q2171.21 159.196 2174.08 159.196 Q2177.53 159.196 2179.52 156.997 Q2181.53 154.798 2181.53 151.002 L2181.53 136.303 L2185.79 136.303 L2185.79 162.229 L2181.53 162.229 L2181.53 158.247 Q2179.98 160.608 2177.92 161.766 Q2175.88 162.9 2173.18 162.9 Q2168.71 162.9 2166.39 160.122 Q2164.08 157.344 2164.08 151.997 M2174.8 135.678 L2174.8 135.678 Z" fill="#000000" fill-rule="nonzero" fill-opacity="1" /><path clip-path="url(#clip960)" d="M2194.17 126.21 L2203.99 126.21 L2203.99 129.52 L2198.43 129.52 L2198.43 165.168 L2203.99 165.168 L2203.99 168.479 L2194.17 168.479 L2194.17 126.21 Z" fill="#000000" fill-rule="nonzero" fill-opacity="1" /><path clip-path="url(#clip960)" d="M2214.47 158.293 L2222.11 158.293 L2222.11 131.928 L2213.8 133.595 L2213.8 129.335 L2222.06 127.669 L2226.74 127.669 L2226.74 158.293 L2234.38 158.293 L2234.38 162.229 L2214.47 162.229 L2214.47 158.293 Z" fill="#000000" fill-rule="nonzero" fill-opacity="1" /><path clip-path="url(#clip960)" d="M2253.17 126.21 L2253.17 168.479 L2243.36 168.479 L2243.36 165.168 L2248.89 165.168 L2248.89 129.52 L2243.36 129.52 L2243.36 126.21 L2253.17 126.21 Z" fill="#000000" fill-rule="nonzero" fill-opacity="1" /></svg>
