<?xml version="1.0" encoding="utf-8"?>
<svg xmlns="http://www.w3.org/2000/svg" xmlns:xlink="http://www.w3.org/1999/xlink" width="600" height="400" viewBox="0 0 2400 1600">
<defs>
  <clipPath id="clip980">
    <rect x="0" y="0" width="2400" height="1600"/>
  </clipPath>
</defs>
<path clip-path="url(#clip980)" d="M0 1600 L2400 1600 L2400 0 L0 0  Z" fill="#ffffff" fill-rule="evenodd" fill-opacity="1"/>
<defs>
  <clipPath id="clip981">
    <rect x="112" y="47" width="2242" height="1377"/>
  </clipPath>
</defs>
<path clip-path="url(#clip980)" d="M112.177 1423.18 L2352.76 1423.18 L2352.76 47.2441 L112.177 47.2441  Z" fill="#ffffff" fill-rule="evenodd" fill-opacity="1"/>
<polyline clip-path="url(#clip981)" style="stroke:#000000; stroke-linecap:round; stroke-linejoin:round; stroke-width:2; stroke-opacity:0.1; fill:none" points="112.177,1423.18 112.177,47.2441 "/>
<polyline clip-path="url(#clip981)" style="stroke:#000000; stroke-linecap:round; stroke-linejoin:round; stroke-width:2; stroke-opacity:0.1; fill:none" points="560.293,1423.18 560.293,47.2441 "/>
<polyline clip-path="url(#clip981)" style="stroke:#000000; stroke-linecap:round; stroke-linejoin:round; stroke-width:2; stroke-opacity:0.1; fill:none" points="1008.41,1423.18 1008.41,47.2441 "/>
<polyline clip-path="url(#clip981)" style="stroke:#000000; stroke-linecap:round; stroke-linejoin:round; stroke-width:2; stroke-opacity:0.1; fill:none" points="1456.52,1423.18 1456.52,47.2441 "/>
<polyline clip-path="url(#clip981)" style="stroke:#000000; stroke-linecap:round; stroke-linejoin:round; stroke-width:2; stroke-opacity:0.1; fill:none" points="1904.64,1423.18 1904.64,47.2441 "/>
<polyline clip-path="url(#clip981)" style="stroke:#000000; stroke-linecap:round; stroke-linejoin:round; stroke-width:2; stroke-opacity:0.1; fill:none" points="2352.76,1423.18 2352.76,47.2441 "/>
<polyline clip-path="url(#clip981)" style="stroke:#000000; stroke-linecap:round; stroke-linejoin:round; stroke-width:2; stroke-opacity:0.1; fill:none" points="112.177,1394.39 2352.76,1394.39 "/>
<polyline clip-path="url(#clip981)" style="stroke:#000000; stroke-linecap:round; stroke-linejoin:round; stroke-width:2; stroke-opacity:0.1; fill:none" points="112.177,1101.63 2352.76,1101.63 "/>
<polyline clip-path="url(#clip981)" style="stroke:#000000; stroke-linecap:round; stroke-linejoin:round; stroke-width:2; stroke-opacity:0.1; fill:none" points="112.177,808.863 2352.76,808.863 "/>
<polyline clip-path="url(#clip981)" style="stroke:#000000; stroke-linecap:round; stroke-linejoin:round; stroke-width:2; stroke-opacity:0.1; fill:none" points="112.177,516.1 2352.76,516.1 "/>
<polyline clip-path="url(#clip981)" style="stroke:#000000; stroke-linecap:round; stroke-linejoin:round; stroke-width:2; stroke-opacity:0.1; fill:none" points="112.177,223.336 2352.76,223.336 "/>
<polyline clip-path="url(#clip980)" style="stroke:#000000; stroke-linecap:round; stroke-linejoin:round; stroke-width:4; stroke-opacity:1; fill:none" points="112.177,1423.18 2352.76,1423.18 "/>
<polyline clip-path="url(#clip980)" style="stroke:#000000; stroke-linecap:round; stroke-linejoin:round; stroke-width:4; stroke-opacity:1; fill:none" points="112.177,1423.18 112.177,1404.28 "/>
<polyline clip-path="url(#clip980)" style="stroke:#000000; stroke-linecap:round; stroke-linejoin:round; stroke-width:4; stroke-opacity:1; fill:none" points="560.293,1423.18 560.293,1404.28 "/>
<polyline clip-path="url(#clip980)" style="stroke:#000000; stroke-linecap:round; stroke-linejoin:round; stroke-width:4; stroke-opacity:1; fill:none" points="1008.41,1423.18 1008.41,1404.28 "/>
<polyline clip-path="url(#clip980)" style="stroke:#000000; stroke-linecap:round; stroke-linejoin:round; stroke-width:4; stroke-opacity:1; fill:none" points="1456.52,1423.18 1456.52,1404.28 "/>
<polyline clip-path="url(#clip980)" style="stroke:#000000; stroke-linecap:round; stroke-linejoin:round; stroke-width:4; stroke-opacity:1; fill:none" points="1904.64,1423.18 1904.64,1404.28 "/>
<polyline clip-path="url(#clip980)" style="stroke:#000000; stroke-linecap:round; stroke-linejoin:round; stroke-width:4; stroke-opacity:1; fill:none" points="2352.76,1423.18 2352.76,1404.28 "/>
<path clip-path="url(#clip980)" d="M112.177 1454.1 Q108.566 1454.1 106.737 1457.66 Q104.932 1461.2 104.932 1468.33 Q104.932 1475.44 106.737 1479.01 Q108.566 1482.55 112.177 1482.55 Q115.811 1482.55 117.617 1479.01 Q119.446 1475.44 119.446 1468.33 Q119.446 1461.2 117.617 1457.66 Q115.811 1454.1 112.177 1454.1 M112.177 1450.39 Q117.987 1450.39 121.043 1455 Q124.122 1459.58 124.122 1468.33 Q124.122 1477.06 121.043 1481.67 Q117.987 1486.25 112.177 1486.25 Q106.367 1486.25 103.288 1481.67 Q100.233 1477.06 100.233 1468.33 Q100.233 1459.58 103.288 1455 Q106.367 1450.39 112.177 1450.39 Z" fill="#000000" fill-rule="nonzero" fill-opacity="1" /><path clip-path="url(#clip980)" d="M554.946 1481.64 L571.265 1481.64 L571.265 1485.58 L549.321 1485.58 L549.321 1481.64 Q551.983 1478.89 556.566 1474.26 Q561.173 1469.61 562.353 1468.27 Q564.598 1465.74 565.478 1464.01 Q566.381 1462.25 566.381 1460.56 Q566.381 1457.8 564.436 1456.07 Q562.515 1454.33 559.413 1454.33 Q557.214 1454.33 554.761 1455.09 Q552.33 1455.86 549.552 1457.41 L549.552 1452.69 Q552.376 1451.55 554.83 1450.97 Q557.284 1450.39 559.321 1450.39 Q564.691 1450.39 567.885 1453.08 Q571.08 1455.77 571.08 1460.26 Q571.08 1462.39 570.27 1464.31 Q569.483 1466.2 567.376 1468.8 Q566.798 1469.47 563.696 1472.69 Q560.594 1475.88 554.946 1481.64 Z" fill="#000000" fill-rule="nonzero" fill-opacity="1" /><path clip-path="url(#clip980)" d="M1011.42 1455.09 L999.612 1473.54 L1011.42 1473.54 L1011.42 1455.09 M1010.19 1451.02 L1016.07 1451.02 L1016.07 1473.54 L1021 1473.54 L1021 1477.43 L1016.07 1477.43 L1016.07 1485.58 L1011.42 1485.58 L1011.42 1477.43 L995.816 1477.43 L995.816 1472.92 L1010.19 1451.02 Z" fill="#000000" fill-rule="nonzero" fill-opacity="1" /><path clip-path="url(#clip980)" d="M1456.93 1466.44 Q1453.78 1466.44 1451.93 1468.59 Q1450.1 1470.74 1450.1 1474.49 Q1450.1 1478.22 1451.93 1480.39 Q1453.78 1482.55 1456.93 1482.55 Q1460.08 1482.55 1461.91 1480.39 Q1463.76 1478.22 1463.76 1474.49 Q1463.76 1470.74 1461.91 1468.59 Q1460.08 1466.44 1456.93 1466.44 M1466.21 1451.78 L1466.21 1456.04 Q1464.45 1455.21 1462.65 1454.77 Q1460.86 1454.33 1459.11 1454.33 Q1454.48 1454.33 1452.02 1457.45 Q1449.59 1460.58 1449.24 1466.9 Q1450.61 1464.89 1452.67 1463.82 Q1454.73 1462.73 1457.21 1462.73 Q1462.42 1462.73 1465.42 1465.9 Q1468.46 1469.05 1468.46 1474.49 Q1468.46 1479.82 1465.31 1483.03 Q1462.16 1486.25 1456.93 1486.25 Q1450.93 1486.25 1447.76 1481.67 Q1444.59 1477.06 1444.59 1468.33 Q1444.59 1460.14 1448.48 1455.28 Q1452.37 1450.39 1458.92 1450.39 Q1460.68 1450.39 1462.46 1450.74 Q1464.27 1451.09 1466.21 1451.78 Z" fill="#000000" fill-rule="nonzero" fill-opacity="1" /><path clip-path="url(#clip980)" d="M1904.64 1469.17 Q1901.31 1469.17 1899.39 1470.95 Q1897.49 1472.73 1897.49 1475.86 Q1897.49 1478.98 1899.39 1480.77 Q1901.31 1482.55 1904.64 1482.55 Q1907.97 1482.55 1909.89 1480.77 Q1911.82 1478.96 1911.82 1475.86 Q1911.82 1472.73 1909.89 1470.95 Q1908 1469.17 1904.64 1469.17 M1899.96 1467.18 Q1896.96 1466.44 1895.27 1464.38 Q1893.6 1462.32 1893.6 1459.35 Q1893.6 1455.21 1896.54 1452.8 Q1899.5 1450.39 1904.64 1450.39 Q1909.8 1450.39 1912.74 1452.8 Q1915.68 1455.21 1915.68 1459.35 Q1915.68 1462.32 1913.99 1464.38 Q1912.33 1466.44 1909.34 1467.18 Q1912.72 1467.96 1914.59 1470.26 Q1916.49 1472.55 1916.49 1475.86 Q1916.49 1480.88 1913.41 1483.57 Q1910.36 1486.25 1904.64 1486.25 Q1898.92 1486.25 1895.84 1483.57 Q1892.79 1480.88 1892.79 1475.86 Q1892.79 1472.55 1894.69 1470.26 Q1896.58 1467.96 1899.96 1467.18 M1898.25 1459.79 Q1898.25 1462.48 1899.92 1463.98 Q1901.61 1465.49 1904.64 1465.49 Q1907.65 1465.49 1909.34 1463.98 Q1911.05 1462.48 1911.05 1459.79 Q1911.05 1457.11 1909.34 1455.6 Q1907.65 1454.1 1904.64 1454.1 Q1901.61 1454.1 1899.92 1455.6 Q1898.25 1457.11 1898.25 1459.79 Z" fill="#000000" fill-rule="nonzero" fill-opacity="1" /><path clip-path="url(#clip980)" d="M2327.44 1481.64 L2335.08 1481.64 L2335.08 1455.28 L2326.77 1456.95 L2326.77 1452.69 L2335.04 1451.02 L2339.71 1451.02 L2339.71 1481.64 L2347.35 1481.64 L2347.35 1485.58 L2327.44 1485.58 L2327.44 1481.64 Z" fill="#000000" fill-rule="nonzero" fill-opacity="1" /><path clip-path="url(#clip980)" d="M2366.8 1454.1 Q2363.18 1454.1 2361.36 1457.66 Q2359.55 1461.2 2359.55 1468.33 Q2359.55 1475.44 2361.36 1479.01 Q2363.18 1482.55 2366.8 1482.55 Q2370.43 1482.55 2372.23 1479.01 Q2374.06 1475.44 2374.06 1468.33 Q2374.06 1461.2 2372.23 1457.66 Q2370.43 1454.1 2366.8 1454.1 M2366.8 1450.39 Q2372.61 1450.39 2375.66 1455 Q2378.74 1459.58 2378.74 1468.33 Q2378.74 1477.06 2375.66 1481.67 Q2372.61 1486.25 2366.8 1486.25 Q2360.99 1486.25 2357.91 1481.67 Q2354.85 1477.06 2354.85 1468.33 Q2354.85 1459.58 2357.91 1455 Q2360.99 1450.39 2366.8 1450.39 Z" fill="#000000" fill-rule="nonzero" fill-opacity="1" /><path clip-path="url(#clip980)" d="M1231.53 1522.27 L1231.53 1532.4 L1243.59 1532.4 L1243.59 1536.95 L1231.53 1536.95 L1231.53 1556.3 Q1231.53 1560.66 1232.71 1561.9 Q1233.91 1563.14 1237.58 1563.14 L1243.59 1563.14 L1243.59 1568.04 L1237.58 1568.04 Q1230.8 1568.04 1228.22 1565.53 Q1225.64 1562.98 1225.64 1556.3 L1225.64 1536.95 L1221.34 1536.95 L1221.34 1532.4 L1225.64 1532.4 L1225.64 1522.27 L1231.53 1522.27 Z" fill="#000000" fill-rule="nonzero" fill-opacity="1" /><polyline clip-path="url(#clip980)" style="stroke:#000000; stroke-linecap:round; stroke-linejoin:round; stroke-width:4; stroke-opacity:1; fill:none" points="112.177,1423.18 112.177,47.2441 "/>
<polyline clip-path="url(#clip980)" style="stroke:#000000; stroke-linecap:round; stroke-linejoin:round; stroke-width:4; stroke-opacity:1; fill:none" points="112.177,1394.39 131.075,1394.39 "/>
<polyline clip-path="url(#clip980)" style="stroke:#000000; stroke-linecap:round; stroke-linejoin:round; stroke-width:4; stroke-opacity:1; fill:none" points="112.177,1101.63 131.075,1101.63 "/>
<polyline clip-path="url(#clip980)" style="stroke:#000000; stroke-linecap:round; stroke-linejoin:round; stroke-width:4; stroke-opacity:1; fill:none" points="112.177,808.863 131.075,808.863 "/>
<polyline clip-path="url(#clip980)" style="stroke:#000000; stroke-linecap:round; stroke-linejoin:round; stroke-width:4; stroke-opacity:1; fill:none" points="112.177,516.1 131.075,516.1 "/>
<polyline clip-path="url(#clip980)" style="stroke:#000000; stroke-linecap:round; stroke-linejoin:round; stroke-width:4; stroke-opacity:1; fill:none" points="112.177,223.336 131.075,223.336 "/>
<path clip-path="url(#clip980)" d="M64.2328 1380.19 Q60.6217 1380.19 58.793 1383.75 Q56.9875 1387.3 56.9875 1394.42 Q56.9875 1401.53 58.793 1405.1 Q60.6217 1408.64 64.2328 1408.64 Q67.867 1408.64 69.6726 1405.1 Q71.5013 1401.53 71.5013 1394.42 Q71.5013 1387.3 69.6726 1383.75 Q67.867 1380.19 64.2328 1380.19 M64.2328 1376.49 Q70.0429 1376.49 73.0985 1381.09 Q76.1772 1385.67 76.1772 1394.42 Q76.1772 1403.15 73.0985 1407.76 Q70.0429 1412.34 64.2328 1412.34 Q58.4226 1412.34 55.344 1407.76 Q52.2884 1403.15 52.2884 1394.42 Q52.2884 1385.67 55.344 1381.09 Q58.4226 1376.49 64.2328 1376.49 Z" fill="#000000" fill-rule="nonzero" fill-opacity="1" /><path clip-path="url(#clip980)" d="M59.8578 1114.97 L76.1772 1114.97 L76.1772 1118.91 L54.2328 1118.91 L54.2328 1114.97 Q56.8949 1112.22 61.4782 1107.59 Q66.0846 1102.93 67.2652 1101.59 Q69.5105 1099.07 70.3902 1097.33 Q71.2929 1095.57 71.2929 1093.88 Q71.2929 1091.13 69.3485 1089.39 Q67.4272 1087.66 64.3254 1087.66 Q62.1263 1087.66 59.6726 1088.42 Q57.2421 1089.18 54.4643 1090.74 L54.4643 1086.01 Q57.2884 1084.88 59.7421 1084.3 Q62.1958 1083.72 64.2328 1083.72 Q69.6031 1083.72 72.7976 1086.41 Q75.992 1089.09 75.992 1093.58 Q75.992 1095.71 75.1818 1097.63 Q74.3948 1099.53 72.2883 1102.12 Q71.7096 1102.8 68.6078 1106.01 Q65.5059 1109.21 59.8578 1114.97 Z" fill="#000000" fill-rule="nonzero" fill-opacity="1" /><path clip-path="url(#clip980)" d="M66.5939 795.657 L54.7884 814.106 L66.5939 814.106 L66.5939 795.657 M65.367 791.583 L71.2466 791.583 L71.2466 814.106 L76.1772 814.106 L76.1772 817.995 L71.2466 817.995 L71.2466 826.143 L66.5939 826.143 L66.5939 817.995 L50.9921 817.995 L50.9921 813.481 L65.367 791.583 Z" fill="#000000" fill-rule="nonzero" fill-opacity="1" /><path clip-path="url(#clip980)" d="M64.6495 514.236 Q61.5013 514.236 59.6495 516.389 Q57.8208 518.542 57.8208 522.292 Q57.8208 526.019 59.6495 528.195 Q61.5013 530.347 64.6495 530.347 Q67.7976 530.347 69.6263 528.195 Q71.4781 526.019 71.4781 522.292 Q71.4781 518.542 69.6263 516.389 Q67.7976 514.236 64.6495 514.236 M73.9318 499.584 L73.9318 503.843 Q72.1726 503.01 70.367 502.57 Q68.5846 502.13 66.8254 502.13 Q62.1958 502.13 59.7421 505.255 Q57.3115 508.38 56.9643 514.699 Q58.33 512.685 60.3902 511.621 Q62.4504 510.533 64.9272 510.533 Q70.1355 510.533 73.1448 513.704 Q76.1772 516.852 76.1772 522.292 Q76.1772 527.616 73.029 530.833 Q69.8809 534.051 64.6495 534.051 Q58.6541 534.051 55.4828 529.468 Q52.3116 524.861 52.3116 516.134 Q52.3116 507.94 56.2004 503.079 Q60.0893 498.195 66.6402 498.195 Q68.3994 498.195 70.1818 498.542 Q71.9874 498.889 73.9318 499.584 Z" fill="#000000" fill-rule="nonzero" fill-opacity="1" /><path clip-path="url(#clip980)" d="M64.3254 224.204 Q60.9921 224.204 59.0708 225.987 Q57.1726 227.769 57.1726 230.894 Q57.1726 234.019 59.0708 235.801 Q60.9921 237.584 64.3254 237.584 Q67.6587 237.584 69.58 235.801 Q71.5013 233.996 71.5013 230.894 Q71.5013 227.769 69.58 225.987 Q67.6819 224.204 64.3254 224.204 M59.6495 222.214 Q56.6402 221.473 54.9504 219.413 Q53.2838 217.352 53.2838 214.39 Q53.2838 210.246 56.2236 207.839 Q59.1865 205.431 64.3254 205.431 Q69.4874 205.431 72.4272 207.839 Q75.367 210.246 75.367 214.39 Q75.367 217.352 73.6772 219.413 Q72.0105 221.473 69.0244 222.214 Q72.404 223.001 74.279 225.292 Q76.1772 227.584 76.1772 230.894 Q76.1772 235.917 73.0985 238.602 Q70.0429 241.288 64.3254 241.288 Q58.6078 241.288 55.5291 238.602 Q52.4736 235.917 52.4736 230.894 Q52.4736 227.584 54.3717 225.292 Q56.2699 223.001 59.6495 222.214 M57.9365 214.829 Q57.9365 217.515 59.6032 219.019 Q61.293 220.524 64.3254 220.524 Q67.3346 220.524 69.0244 219.019 Q70.7374 217.515 70.7374 214.829 Q70.7374 212.144 69.0244 210.64 Q67.3346 209.135 64.3254 209.135 Q61.293 209.135 59.6032 210.64 Q57.9365 212.144 57.9365 214.829 Z" fill="#000000" fill-rule="nonzero" fill-opacity="1" /><polyline clip-path="url(#clip981)" style="stroke:#009af9; stroke-linecap:round; stroke-linejoin:round; stroke-width:8; stroke-opacity:1; fill:none" points="112.177,1365.11 112.177,1365.11 112.333,1365.23 112.493,1366.11 112.674,1366.28 112.877,1365.69 113.105,1365.81 113.362,1367.11 113.651,1365.67 113.977,1364.13 114.343,1364.07 114.754,1365.03 115.218,1364.15 115.739,1365.6 116.325,1363.49 116.985,1364.05 117.726,1364.83 118.561,1366.03 119.5,1366.56 120.557,1367.58 121.745,1366.13 123.082,1371.17 124.586,1370.55 126.279,1371.25 128.182,1371.5 130.324,1372.39 132.733,1371.81 135.444,1369.73 138.493,1365.7 141.924,1367.82 145.783,1365.5 150.125,1362.99 155.01,1359.28 160.505,1361.95 166.687,1371.35 173.642,1365 181.466,1366.97 189.603,1368.02 198.758,1370.93 209.057,1371.47 220.643,1374.78 233.206,1370.9 247.339,1375.61 260.331,1369.45 274.948,1357.47 289.94,1345.22 304.221,1322.18 312.088,1323.55 325.434,1358.29 340.448,1360.27 354.219,1358.12 369.712,1338.56 386.924,1354.58 393.743,1350.98 401.415,1372.83 410.045,1375.02 419.755,1370.69 430.678,1377.77 441.224,1370.98 453.087,1363.88 466.424,1359.88 479.949,1359.41 493.177,1352.45 508.059,1351.38 521.351,1348.78 536.306,1356.24 549.041,1341.79 563.368,1342.37 575.156,1331.55 588.416,1273.92 598.661,1248.14 606.855,1254.61 614.258,1258.38 621.435,1294.48 623.09,1287.23 629.956,1325.69 637.681,1336.81 644.461,1338.89 652.089,1345.38 659.964,1341.8 668.824,1341.71 677.68,1333.83 687.642,1334.16 696.566,1351.47 706.382,1339.06 717.425,1338.89 727.082,1340.67 727.41,1340.34 737.783,1360.67 749.452,1362.37 760.224,1367.08 772.342,1361.97 785.975,1371.85 797.02,1378.27 809.446,1375.61 823.426,1382.11 836.559,1373.25 844.083,1365.84 852.547,1384.24 862.07,1383.38 872.782,1381.79 884.834,1374.73 898.392,1378.67 910.684,1370.86 924.513,1375.3 935.997,1377.9 948.916,1377.67 963.451,1379.13 979.802,1379.38 998.197,1376.21 1018.89,1363.25 1042.17,1366.17 1057.03,1368.84 1073.74,1369.63 1092.18,1366.97 1112.94,1351.19 1136.28,1348.62 1153.71,1332.79 1173.31,1328.28 1187.82,1305.19 1204.14,1275.14 1206.97,1194.77 1209.88,1189.33 1213.16,1189.2 1216.73,1185.95 1220.6,1134.37 1224.9,1109.35 1229.06,1124.58 1233.13,1096.97 1237.56,1076.66 1241.79,1085.3 1245.91,1011.17 1250.16,996.094 1253.95,953.898 1257.7,935.897 1261.16,940.592 1264.43,967.252 1267.6,988.211 1270.74,1051.22 1273.86,1008.02 1277.12,1018.17 1280.11,1006.24 1283.14,1054.87 1286.04,1003.95 1289.08,1038.33 1291.87,1071.27 1294.75,1036.41 1297.65,1015.34 1300.4,1056.05 1303.06,1095.28 1305.8,1057.14 1308.62,1044.28 1311.23,964.843 1312.46,929.128 1314.97,1103.54 1317.8,1108.46 1320.66,1132.32 1323.87,1078.89 1327.48,989.81 1331.21,1057.53 1334.63,1058.77 1338.49,1042.94 1342.63,1114.29 1346.61,1166.89 1351.07,1110.08 1356.09,1061.76 1361.01,1022.72 1365.96,1018.16 1370.64,998.144 1375.53,1022.25 1380.02,975.158 1384.98,1039.31 1389.25,1089.34 1393.87,1070.18 1398.87,1002.41 1403.86,1088.22 1408.32,1083.28 1413.34,1033.49 1418.34,976.01 1423.07,1037.87 1427.3,1025.29 1431.93,1013.14 1436.29,961.149 1440.65,919.316 1444.66,891.613 1448.43,895.436 1451.98,1025.36 1455.64,1057.75 1459.32,1004.3 1463.16,1010.86 1466.67,970.922 1470.27,1012.95 1473.56,973.06 1476.99,912.916 1480.13,901.655 1483.12,778.703 1485.85,809.917 1488.32,786.75 1490.72,756.518 1492.97,706.553 1495.01,661.721 1496.91,593.531 1498.66,426.893 1500.04,307.82 1501.32,188.326 1501.89,86.1857 1502.91,746.062 1504.05,808.427 1505.28,771.63 1506.64,715.162 1508.03,647.138 1509.44,617.754 1510.84,642.126 1512.26,595.925 1513.66,512.599 1515.03,482.272 1516.35,612.276 1517.66,582.516 1518.98,485.538 1520.26,597.739 1521.49,464.699 1522.72,371.858 1523.83,312.393 1524.9,237.688 1525.9,119.057 1525.91,119.526 1526.83,780.547 1527.86,800.541 1528.98,754.504 1530.17,813.052 1531.4,834.218 1532.74,772.635 1534.12,721.12 1535.47,664.027 1536.79,574.675 1538.08,592.59 1539.3,593.877 1540.52,562.816 1541.69,533.701 1542.31,443.648 1543.44,894.11 1544.71,865.901 1546.13,928.817 1547.67,962.854 1549.41,953.417 1551.35,920.846 1553.4,900.291 1555.51,906.462 1557.67,908.893 1559.93,963.383 1562.23,964.816 1564.68,956.396 1567.17,972.695 1569.67,1002.95 1572.24,975.004 1574.93,936.011 1577.56,991.65 1580.1,891.147 1582.69,890.751 1585.07,856.687 1587.42,773.601 1589.63,912.474 1591.76,854.02 1593.95,873.144 1595.97,926.192 1598.01,995.165 1600.08,1020.03 1602.22,1046.29 1604.41,1006.07 1606.61,1012.82 1608.4,967.079 1610.54,1147.13 1612.95,1110.95 1615.5,1130.14 1618.09,1143.2 1620.93,1184.73 1623.96,1195.93 1627.31,1205.12 1630.85,1213.43 1634.62,1228.02 1638.59,1202.06 1642.97,1204.17 1647.1,1221.47 1651.35,1241.71 1655.76,1238.96 1660.53,1219.33 1665.42,1201.85 1670.12,1169.14 1674.72,1159.87 1678.95,1121.63 1683.11,1100.67 1686.81,1103.67 1688.18,1089.97 1691.66,1252.73 1695.57,1265.01 1699.66,1259.38 1704.18,1269.55 1708.64,1295.59 1713.44,1267.01 1718.83,1250.38 1721.46,1240.44 1726.48,1315.84 1732.12,1298.55 1738.47,1292.68 1744.74,1281.54 1751.39,1298.14 1757.39,1284.44 1764.14,1274.54 1770.65,1288.02 1776.79,1294.86 1783.46,1320.54 1790.29,1330.17 1797.97,1330.78 1806.39,1296.83 1815.07,1270.94 1823,1271.15 1830.12,1203.63 1836.91,1191.5 1838.58,1175.14 1844.38,1260.07 1850.91,1282.49 1856.37,1289.96 1862.51,1264.3 1869.42,1255.3 1875.83,1269.46 1881.91,1238.08 1888.74,1249.51 1894.38,1267.53 1900.55,1267.97 1907.5,1266.32 1914.88,1282.59 1921.81,1291.16 1929.56,1308.34 1937.19,1303.25 1945.78,1297.63 1954.98,1294.63 1964,1231.81 1973.32,1244.62 1980.89,1242.98 1989.41,1274.02 1996.59,1267.91 2004.68,1286.19 2011.48,1307.96 2019.14,1307.08 2027.75,1319.46 2035.83,1324.37 2044.79,1333.2 2053.74,1334.34 2063.82,1338.97 2073.62,1347.18 2083.53,1357.09 2094.49,1342.9 2106.83,1337.28 2118.65,1342.27 2129.54,1332.16 2141.8,1341.95 2150.99,1337.82 2161.33,1344.06 2170.27,1343.39 2180.34,1339.81 2191.65,1341.22 2202.83,1354.35 2211.73,1347.22 2221.75,1372.14 2233.01,1370.31 2245.69,1362.02 2259.95,1365.84 2271.71,1361.96 2284.94,1361.66 2297.96,1357.07 2312.61,1362.77 2324.52,1350.8 2337.92,1362 2348.26,1359.25 2352.76,1362.5 "/>
<path clip-path="url(#clip980)" d="M1964.92 196.789 L2278.07 196.789 L2278.07 93.1086 L1964.92 93.1086  Z" fill="#ffffff" fill-rule="evenodd" fill-opacity="1"/>
<polyline clip-path="url(#clip980)" style="stroke:#000000; stroke-linecap:round; stroke-linejoin:round; stroke-width:4; stroke-opacity:1; fill:none" points="1964.92,196.789 2278.07,196.789 2278.07,93.1086 1964.92,93.1086 1964.92,196.789 "/>
<polyline clip-path="url(#clip980)" style="stroke:#009af9; stroke-linecap:round; stroke-linejoin:round; stroke-width:8; stroke-opacity:1; fill:none" points="1989.81,144.949 2139.18,144.949 "/>
<path clip-path="url(#clip980)" d="M2164.08 151.997 L2164.08 136.303 L2168.34 136.303 L2168.34 151.835 Q2168.34 155.516 2169.77 157.368 Q2171.21 159.196 2174.08 159.196 Q2177.53 159.196 2179.52 156.997 Q2181.53 154.798 2181.53 151.002 L2181.53 136.303 L2185.79 136.303 L2185.79 162.229 L2181.53 162.229 L2181.53 158.247 Q2179.98 160.608 2177.92 161.766 Q2175.88 162.9 2173.18 162.9 Q2168.71 162.9 2166.39 160.122 Q2164.08 157.344 2164.08 151.997 M2174.8 135.678 L2174.8 135.678 Z" fill="#000000" fill-rule="nonzero" fill-opacity="1" /><path clip-path="url(#clip980)" d="M2194.17 126.21 L2203.99 126.21 L2203.99 129.52 L2198.43 129.52 L2198.43 165.168 L2203.99 165.168 L2203.99 168.479 L2194.17 168.479 L2194.17 126.21 Z" fill="#000000" fill-rule="nonzero" fill-opacity="1" /><path clip-path="url(#clip980)" d="M2214.47 158.293 L2222.11 158.293 L2222.11 131.928 L2213.8 133.595 L2213.8 129.335 L2222.06 127.669 L2226.74 127.669 L2226.74 158.293 L2234.38 158.293 L2234.38 162.229 L2214.47 162.229 L2214.47 158.293 Z" fill="#000000" fill-rule="nonzero" fill-opacity="1" /><path clip-path="url(#clip980)" d="M2253.17 126.21 L2253.17 168.479 L2243.36 168.479 L2243.36 165.168 L2248.89 165.168 L2248.89 129.52 L2243.36 129.52 L2243.36 126.21 L2253.17 126.21 Z" fill="#000000" fill-rule="nonzero" fill-opacity="1" /></svg>
