<?xml version="1.0" encoding="utf-8"?>
<svg xmlns="http://www.w3.org/2000/svg" xmlns:xlink="http://www.w3.org/1999/xlink" width="600" height="400" viewBox="0 0 2400 1600">
<defs>
  <clipPath id="clip920">
    <rect x="0" y="0" width="2400" height="1600"/>
  </clipPath>
</defs>
<path clip-path="url(#clip920)" d="M0 1600 L2400 1600 L2400 0 L0 0  Z" fill="#ffffff" fill-rule="evenodd" fill-opacity="1"/>
<defs>
  <clipPath id="clip921">
    <rect x="138" y="47" width="2215" height="1377"/>
  </clipPath>
</defs>
<path clip-path="url(#clip920)" d="M138.959 1423.18 L2352.76 1423.18 L2352.76 47.2441 L138.959 47.2441  Z" fill="#ffffff" fill-rule="evenodd" fill-opacity="1"/>
<polyline clip-path="url(#clip921)" style="stroke:#000000; stroke-linecap:round; stroke-linejoin:round; stroke-width:2; stroke-opacity:0.1; fill:none" points="138.959,1423.18 138.959,47.2441 "/>
<polyline clip-path="url(#clip921)" style="stroke:#000000; stroke-linecap:round; stroke-linejoin:round; stroke-width:2; stroke-opacity:0.1; fill:none" points="581.719,1423.18 581.719,47.2441 "/>
<polyline clip-path="url(#clip921)" style="stroke:#000000; stroke-linecap:round; stroke-linejoin:round; stroke-width:2; stroke-opacity:0.1; fill:none" points="1024.48,1423.18 1024.48,47.2441 "/>
<polyline clip-path="url(#clip921)" style="stroke:#000000; stroke-linecap:round; stroke-linejoin:round; stroke-width:2; stroke-opacity:0.1; fill:none" points="1467.24,1423.18 1467.24,47.2441 "/>
<polyline clip-path="url(#clip921)" style="stroke:#000000; stroke-linecap:round; stroke-linejoin:round; stroke-width:2; stroke-opacity:0.1; fill:none" points="1910,1423.18 1910,47.2441 "/>
<polyline clip-path="url(#clip921)" style="stroke:#000000; stroke-linecap:round; stroke-linejoin:round; stroke-width:2; stroke-opacity:0.1; fill:none" points="2352.76,1423.18 2352.76,47.2441 "/>
<polyline clip-path="url(#clip921)" style="stroke:#000000; stroke-linecap:round; stroke-linejoin:round; stroke-width:2; stroke-opacity:0.1; fill:none" points="138.959,1384.24 2352.76,1384.24 "/>
<polyline clip-path="url(#clip921)" style="stroke:#000000; stroke-linecap:round; stroke-linejoin:round; stroke-width:2; stroke-opacity:0.1; fill:none" points="138.959,978.597 2352.76,978.597 "/>
<polyline clip-path="url(#clip921)" style="stroke:#000000; stroke-linecap:round; stroke-linejoin:round; stroke-width:2; stroke-opacity:0.1; fill:none" points="138.959,572.955 2352.76,572.955 "/>
<polyline clip-path="url(#clip921)" style="stroke:#000000; stroke-linecap:round; stroke-linejoin:round; stroke-width:2; stroke-opacity:0.1; fill:none" points="138.959,167.314 2352.76,167.314 "/>
<polyline clip-path="url(#clip920)" style="stroke:#000000; stroke-linecap:round; stroke-linejoin:round; stroke-width:4; stroke-opacity:1; fill:none" points="138.959,1423.18 2352.76,1423.18 "/>
<polyline clip-path="url(#clip920)" style="stroke:#000000; stroke-linecap:round; stroke-linejoin:round; stroke-width:4; stroke-opacity:1; fill:none" points="138.959,1423.18 138.959,1404.28 "/>
<polyline clip-path="url(#clip920)" style="stroke:#000000; stroke-linecap:round; stroke-linejoin:round; stroke-width:4; stroke-opacity:1; fill:none" points="581.719,1423.18 581.719,1404.28 "/>
<polyline clip-path="url(#clip920)" style="stroke:#000000; stroke-linecap:round; stroke-linejoin:round; stroke-width:4; stroke-opacity:1; fill:none" points="1024.48,1423.18 1024.48,1404.28 "/>
<polyline clip-path="url(#clip920)" style="stroke:#000000; stroke-linecap:round; stroke-linejoin:round; stroke-width:4; stroke-opacity:1; fill:none" points="1467.24,1423.18 1467.24,1404.28 "/>
<polyline clip-path="url(#clip920)" style="stroke:#000000; stroke-linecap:round; stroke-linejoin:round; stroke-width:4; stroke-opacity:1; fill:none" points="1910,1423.18 1910,1404.28 "/>
<polyline clip-path="url(#clip920)" style="stroke:#000000; stroke-linecap:round; stroke-linejoin:round; stroke-width:4; stroke-opacity:1; fill:none" points="2352.76,1423.18 2352.76,1404.28 "/>
<path clip-path="url(#clip920)" d="M138.959 1454.1 Q135.348 1454.1 133.52 1457.66 Q131.714 1461.2 131.714 1468.33 Q131.714 1475.44 133.52 1479.01 Q135.348 1482.55 138.959 1482.55 Q142.594 1482.55 144.399 1479.01 Q146.228 1475.44 146.228 1468.33 Q146.228 1461.2 144.399 1457.66 Q142.594 1454.1 138.959 1454.1 M138.959 1450.39 Q144.77 1450.39 147.825 1455 Q150.904 1459.58 150.904 1468.33 Q150.904 1477.06 147.825 1481.67 Q144.77 1486.25 138.959 1486.25 Q133.149 1486.25 130.071 1481.67 Q127.015 1477.06 127.015 1468.33 Q127.015 1459.58 130.071 1455 Q133.149 1450.39 138.959 1450.39 Z" fill="#000000" fill-rule="nonzero" fill-opacity="1" /><path clip-path="url(#clip920)" d="M576.372 1481.64 L592.691 1481.64 L592.691 1485.58 L570.747 1485.58 L570.747 1481.64 Q573.409 1478.89 577.992 1474.26 Q582.598 1469.61 583.779 1468.27 Q586.024 1465.74 586.904 1464.01 Q587.807 1462.25 587.807 1460.56 Q587.807 1457.8 585.862 1456.07 Q583.941 1454.33 580.839 1454.33 Q578.64 1454.33 576.186 1455.09 Q573.756 1455.86 570.978 1457.41 L570.978 1452.69 Q573.802 1451.55 576.256 1450.97 Q578.709 1450.39 580.747 1450.39 Q586.117 1450.39 589.311 1453.08 Q592.506 1455.77 592.506 1460.26 Q592.506 1462.39 591.696 1464.31 Q590.908 1466.2 588.802 1468.8 Q588.223 1469.47 585.121 1472.69 Q582.02 1475.88 576.372 1481.64 Z" fill="#000000" fill-rule="nonzero" fill-opacity="1" /><path clip-path="url(#clip920)" d="M1027.49 1455.09 L1015.68 1473.54 L1027.49 1473.54 L1027.49 1455.09 M1026.26 1451.02 L1032.14 1451.02 L1032.14 1473.54 L1037.07 1473.54 L1037.07 1477.43 L1032.14 1477.43 L1032.14 1485.58 L1027.49 1485.58 L1027.49 1477.43 L1011.89 1477.43 L1011.89 1472.92 L1026.26 1451.02 Z" fill="#000000" fill-rule="nonzero" fill-opacity="1" /><path clip-path="url(#clip920)" d="M1467.64 1466.44 Q1464.49 1466.44 1462.64 1468.59 Q1460.81 1470.74 1460.81 1474.49 Q1460.81 1478.22 1462.64 1480.39 Q1464.49 1482.55 1467.64 1482.55 Q1470.79 1482.55 1472.62 1480.39 Q1474.47 1478.22 1474.47 1474.49 Q1474.47 1470.74 1472.62 1468.59 Q1470.79 1466.44 1467.64 1466.44 M1476.92 1451.78 L1476.92 1456.04 Q1475.17 1455.21 1473.36 1454.77 Q1471.58 1454.33 1469.82 1454.33 Q1465.19 1454.33 1462.74 1457.45 Q1460.3 1460.58 1459.96 1466.9 Q1461.32 1464.89 1463.38 1463.82 Q1465.44 1462.73 1467.92 1462.73 Q1473.13 1462.73 1476.14 1465.9 Q1479.17 1469.05 1479.17 1474.49 Q1479.17 1479.82 1476.02 1483.03 Q1472.87 1486.25 1467.64 1486.25 Q1461.65 1486.25 1458.48 1481.67 Q1455.3 1477.06 1455.3 1468.33 Q1455.3 1460.14 1459.19 1455.28 Q1463.08 1450.39 1469.63 1450.39 Q1471.39 1450.39 1473.17 1450.74 Q1474.98 1451.09 1476.92 1451.78 Z" fill="#000000" fill-rule="nonzero" fill-opacity="1" /><path clip-path="url(#clip920)" d="M1910 1469.17 Q1906.66 1469.17 1904.74 1470.95 Q1902.84 1472.73 1902.84 1475.86 Q1902.84 1478.98 1904.74 1480.77 Q1906.66 1482.55 1910 1482.55 Q1913.33 1482.55 1915.25 1480.77 Q1917.17 1478.96 1917.17 1475.86 Q1917.17 1472.73 1915.25 1470.95 Q1913.35 1469.17 1910 1469.17 M1905.32 1467.18 Q1902.31 1466.44 1900.62 1464.38 Q1898.96 1462.32 1898.96 1459.35 Q1898.96 1455.21 1901.89 1452.8 Q1904.86 1450.39 1910 1450.39 Q1915.16 1450.39 1918.1 1452.8 Q1921.04 1455.21 1921.04 1459.35 Q1921.04 1462.32 1919.35 1464.38 Q1917.68 1466.44 1914.7 1467.18 Q1918.08 1467.96 1919.95 1470.26 Q1921.85 1472.55 1921.85 1475.86 Q1921.85 1480.88 1918.77 1483.57 Q1915.71 1486.25 1910 1486.25 Q1904.28 1486.25 1901.2 1483.57 Q1898.14 1480.88 1898.14 1475.86 Q1898.14 1472.55 1900.04 1470.26 Q1901.94 1467.96 1905.32 1467.18 M1903.61 1459.79 Q1903.61 1462.48 1905.27 1463.98 Q1906.96 1465.49 1910 1465.49 Q1913.01 1465.49 1914.7 1463.98 Q1916.41 1462.48 1916.41 1459.79 Q1916.41 1457.11 1914.7 1455.6 Q1913.01 1454.1 1910 1454.1 Q1906.96 1454.1 1905.27 1455.6 Q1903.61 1457.11 1903.61 1459.79 Z" fill="#000000" fill-rule="nonzero" fill-opacity="1" /><path clip-path="url(#clip920)" d="M2327.44 1481.64 L2335.08 1481.64 L2335.08 1455.28 L2326.77 1456.95 L2326.77 1452.69 L2335.04 1451.02 L2339.71 1451.02 L2339.71 1481.64 L2347.35 1481.64 L2347.35 1485.58 L2327.44 1485.58 L2327.44 1481.64 Z" fill="#000000" fill-rule="nonzero" fill-opacity="1" /><path clip-path="url(#clip920)" d="M2366.8 1454.1 Q2363.18 1454.1 2361.36 1457.66 Q2359.55 1461.2 2359.55 1468.33 Q2359.55 1475.44 2361.36 1479.01 Q2363.18 1482.55 2366.8 1482.55 Q2370.43 1482.55 2372.23 1479.01 Q2374.06 1475.44 2374.06 1468.33 Q2374.06 1461.2 2372.23 1457.66 Q2370.43 1454.1 2366.8 1454.1 M2366.8 1450.39 Q2372.61 1450.39 2375.66 1455 Q2378.74 1459.58 2378.74 1468.33 Q2378.74 1477.06 2375.66 1481.67 Q2372.61 1486.25 2366.8 1486.25 Q2360.99 1486.25 2357.91 1481.67 Q2354.85 1477.06 2354.85 1468.33 Q2354.85 1459.58 2357.91 1455 Q2360.99 1450.39 2366.8 1450.39 Z" fill="#000000" fill-rule="nonzero" fill-opacity="1" /><path clip-path="url(#clip920)" d="M1244.92 1522.27 L1244.92 1532.4 L1256.98 1532.4 L1256.98 1536.95 L1244.92 1536.95 L1244.92 1556.3 Q1244.92 1560.66 1246.1 1561.9 Q1247.31 1563.14 1250.97 1563.14 L1256.98 1563.14 L1256.98 1568.04 L1250.97 1568.04 Q1244.19 1568.04 1241.61 1565.53 Q1239.03 1562.98 1239.03 1556.3 L1239.03 1536.95 L1234.73 1536.95 L1234.73 1532.4 L1239.03 1532.4 L1239.03 1522.27 L1244.92 1522.27 Z" fill="#000000" fill-rule="nonzero" fill-opacity="1" /><polyline clip-path="url(#clip920)" style="stroke:#000000; stroke-linecap:round; stroke-linejoin:round; stroke-width:4; stroke-opacity:1; fill:none" points="138.959,1423.18 138.959,47.2441 "/>
<polyline clip-path="url(#clip920)" style="stroke:#000000; stroke-linecap:round; stroke-linejoin:round; stroke-width:4; stroke-opacity:1; fill:none" points="138.959,1384.24 157.857,1384.24 "/>
<polyline clip-path="url(#clip920)" style="stroke:#000000; stroke-linecap:round; stroke-linejoin:round; stroke-width:4; stroke-opacity:1; fill:none" points="138.959,978.597 157.857,978.597 "/>
<polyline clip-path="url(#clip920)" style="stroke:#000000; stroke-linecap:round; stroke-linejoin:round; stroke-width:4; stroke-opacity:1; fill:none" points="138.959,572.955 157.857,572.955 "/>
<polyline clip-path="url(#clip920)" style="stroke:#000000; stroke-linecap:round; stroke-linejoin:round; stroke-width:4; stroke-opacity:1; fill:none" points="138.959,167.314 157.857,167.314 "/>
<path clip-path="url(#clip920)" d="M91.0151 1370.04 Q87.404 1370.04 85.5753 1373.6 Q83.7697 1377.14 83.7697 1384.27 Q83.7697 1391.38 85.5753 1394.94 Q87.404 1398.49 91.0151 1398.49 Q94.6493 1398.49 96.4548 1394.94 Q98.2835 1391.38 98.2835 1384.27 Q98.2835 1377.14 96.4548 1373.6 Q94.6493 1370.04 91.0151 1370.04 M91.0151 1366.33 Q96.8252 1366.33 99.8808 1370.94 Q102.959 1375.52 102.959 1384.27 Q102.959 1393 99.8808 1397.61 Q96.8252 1402.19 91.0151 1402.19 Q85.2049 1402.19 82.1262 1397.61 Q79.0707 1393 79.0707 1384.27 Q79.0707 1375.52 82.1262 1370.94 Q85.2049 1366.33 91.0151 1366.33 Z" fill="#000000" fill-rule="nonzero" fill-opacity="1" /><path clip-path="url(#clip920)" d="M82.0568 961.317 L100.413 961.317 L100.413 965.252 L86.3392 965.252 L86.3392 973.724 Q87.3577 973.377 88.3762 973.215 Q89.3947 973.03 90.4132 973.03 Q96.2002 973.03 99.5798 976.201 Q102.959 979.372 102.959 984.789 Q102.959 990.368 99.4872 993.469 Q96.015 996.548 89.6956 996.548 Q87.5197 996.548 85.2512 996.178 Q83.0058 995.807 80.5984 995.067 L80.5984 990.368 Q82.6818 991.502 84.904 992.057 Q87.1262 992.613 89.603 992.613 Q93.6076 992.613 95.9456 990.506 Q98.2835 988.4 98.2835 984.789 Q98.2835 981.178 95.9456 979.071 Q93.6076 976.965 89.603 976.965 Q87.728 976.965 85.8531 977.382 Q84.0012 977.798 82.0568 978.678 L82.0568 961.317 Z" fill="#000000" fill-rule="nonzero" fill-opacity="1" /><path clip-path="url(#clip920)" d="M51.6634 586.3 L59.3023 586.3 L59.3023 559.935 L50.9921 561.601 L50.9921 557.342 L59.256 555.675 L63.9319 555.675 L63.9319 586.3 L71.5707 586.3 L71.5707 590.235 L51.6634 590.235 L51.6634 586.3 Z" fill="#000000" fill-rule="nonzero" fill-opacity="1" /><path clip-path="url(#clip920)" d="M91.0151 558.754 Q87.404 558.754 85.5753 562.319 Q83.7697 565.861 83.7697 572.99 Q83.7697 580.097 85.5753 583.661 Q87.404 587.203 91.0151 587.203 Q94.6493 587.203 96.4548 583.661 Q98.2835 580.097 98.2835 572.99 Q98.2835 565.861 96.4548 562.319 Q94.6493 558.754 91.0151 558.754 M91.0151 555.05 Q96.8252 555.05 99.8808 559.657 Q102.959 564.24 102.959 572.99 Q102.959 581.717 99.8808 586.323 Q96.8252 590.907 91.0151 590.907 Q85.2049 590.907 82.1262 586.323 Q79.0707 581.717 79.0707 572.99 Q79.0707 564.24 82.1262 559.657 Q85.2049 555.05 91.0151 555.05 Z" fill="#000000" fill-rule="nonzero" fill-opacity="1" /><path clip-path="url(#clip920)" d="M52.6588 180.659 L60.2976 180.659 L60.2976 154.293 L51.9875 155.96 L51.9875 151.701 L60.2513 150.034 L64.9272 150.034 L64.9272 180.659 L72.5661 180.659 L72.5661 184.594 L52.6588 184.594 L52.6588 180.659 Z" fill="#000000" fill-rule="nonzero" fill-opacity="1" /><path clip-path="url(#clip920)" d="M82.0568 150.034 L100.413 150.034 L100.413 153.969 L86.3392 153.969 L86.3392 162.441 Q87.3577 162.094 88.3762 161.932 Q89.3947 161.747 90.4132 161.747 Q96.2002 161.747 99.5798 164.918 Q102.959 168.089 102.959 173.506 Q102.959 179.085 99.4872 182.187 Q96.015 185.265 89.6956 185.265 Q87.5197 185.265 85.2512 184.895 Q83.0058 184.525 80.5984 183.784 L80.5984 179.085 Q82.6818 180.219 84.904 180.775 Q87.1262 181.33 89.603 181.33 Q93.6076 181.33 95.9456 179.224 Q98.2835 177.117 98.2835 173.506 Q98.2835 169.895 95.9456 167.788 Q93.6076 165.682 89.603 165.682 Q87.728 165.682 85.8531 166.099 Q84.0012 166.515 82.0568 167.395 L82.0568 150.034 Z" fill="#000000" fill-rule="nonzero" fill-opacity="1" /><polyline clip-path="url(#clip921)" style="stroke:#009af9; stroke-linecap:round; stroke-linejoin:round; stroke-width:8; stroke-opacity:1; fill:none" points="138.959,1384.24 140.19,1384.24 141.421,1384.24 142.651,1384.24 143.882,1384.24 145.112,1384.24 146.343,1384.24 147.573,1384.24 148.804,1384.24 150.035,1384.24 151.265,1384.24 152.496,1384.24 153.726,1384.24 154.957,1384.24 156.187,1384.24 157.418,1384.24 158.649,1384.24 159.879,1384.24 161.11,1384.24 162.34,1384.24 163.571,1384.24 164.801,1384.24 166.032,1384.24 167.263,1384.24 168.493,1384.24 169.724,1384.24 170.954,1384.24 172.185,1384.24 173.415,1384.24 174.646,1384.24 175.877,1384.24 177.107,1384.24 178.338,1384.24 179.568,1384.24 180.799,1384.24 182.029,1384.24 183.26,1384.24 184.491,1384.24 185.721,1384.24 186.952,1384.24 188.182,1384.24 189.413,1384.24 190.643,1384.24 191.874,1384.24 193.105,1384.24 194.335,1384.24 195.566,1384.24 196.796,1384.24 198.027,1384.24 199.257,1384.24 200.488,1384.24 201.719,1384.24 202.949,1384.24 204.18,1384.24 205.41,1384.24 206.641,1384.24 207.871,1384.24 209.102,1384.24 210.333,1384.24 211.563,1384.24 212.794,1384.24 214.024,1384.24 215.255,1384.24 216.485,1384.24 217.716,1384.24 218.947,1384.24 220.177,1384.24 221.408,1384.24 222.638,1384.24 223.869,1384.24 225.099,1384.24 226.33,1384.24 227.561,1384.24 228.791,1384.24 230.022,1384.24 231.252,1384.24 232.483,1384.24 233.713,1384.24 234.944,1384.24 236.175,1384.24 237.405,1384.24 238.636,1384.24 239.866,1384.24 241.097,1384.24 242.327,1384.24 243.558,1384.24 244.789,1384.24 246.019,1384.24 247.25,1384.24 248.48,1384.24 249.711,1384.24 250.941,1384.24 252.172,1384.24 253.403,1384.24 254.633,1384.24 255.864,1384.24 257.094,1384.24 258.325,1384.24 259.555,1384.24 260.786,1384.24 262.016,1384.24 263.247,1384.24 264.478,1384.24 265.708,1384.24 266.939,1384.24 268.169,1384.24 269.4,1384.24 270.63,1384.24 271.861,1384.24 273.092,1384.24 274.322,1384.24 275.553,1384.24 276.783,1384.24 278.014,1384.24 279.244,1384.24 280.475,1384.24 281.706,1384.24 282.936,1384.24 284.167,1384.24 285.397,1384.24 286.628,1384.24 287.858,1384.24 289.089,1384.24 290.32,1384.24 291.55,1384.24 292.781,1384.24 294.011,1384.24 295.242,1384.24 296.472,1384.24 297.703,1384.24 298.934,1384.24 300.164,1384.24 301.395,1384.24 302.625,1384.24 303.856,1384.24 305.086,1384.24 306.317,1384.24 307.548,1384.24 308.778,1384.24 310.009,1384.24 311.239,1384.24 312.47,1384.24 313.7,1384.24 314.931,1384.24 316.162,1384.24 317.392,1384.24 318.623,1384.24 319.853,1384.24 321.084,1384.24 322.314,1384.24 323.545,1384.24 324.776,1384.24 326.006,1384.24 327.237,1384.24 328.467,1384.24 329.698,1384.24 330.928,1384.24 332.159,1384.24 333.39,1384.24 334.62,1384.24 335.851,1384.24 337.081,1384.24 338.312,1384.24 339.542,1384.24 340.773,1384.24 342.004,1384.24 343.234,1384.24 344.465,1303.11 345.695,1303.11 346.926,1303.11 348.156,1303.11 349.387,1303.11 350.618,1303.11 351.848,1303.11 353.079,1303.11 354.309,1303.11 355.54,1303.11 356.77,1303.11 358.001,1303.11 359.232,1303.11 360.462,1303.11 361.693,1303.11 362.923,1303.11 364.154,1303.11 365.384,1303.11 366.615,1303.11 367.846,1303.11 369.076,1303.11 370.307,1303.11 371.537,1303.11 372.768,1303.11 373.998,1303.11 375.229,1303.11 376.46,1303.11 377.69,1303.11 378.921,1303.11 380.151,1303.11 381.382,1303.11 382.612,1303.11 383.843,1303.11 385.074,1303.11 386.304,1303.11 387.535,1303.11 388.765,1303.11 389.996,1303.11 391.226,1303.11 392.457,1303.11 393.688,1303.11 394.918,1303.11 396.149,1303.11 397.379,1303.11 398.61,1221.98 399.84,1221.98 401.071,1221.98 402.302,1221.98 403.532,1221.98 404.763,1221.98 405.993,1221.98 407.224,1221.98 408.454,1221.98 409.685,1140.85 410.916,1140.85 412.146,1140.85 413.377,1140.85 414.607,1140.85 415.838,1140.85 417.068,1140.85 418.299,1140.85 419.53,1140.85 420.76,1140.85 421.991,1140.85 423.221,1140.85 424.452,1140.85 425.682,1140.85 426.913,1140.85 428.144,1140.85 429.374,1140.85 430.605,1140.85 431.835,1140.85 433.066,1140.85 434.296,1140.85 435.527,1140.85 436.758,1140.85 437.988,1140.85 439.219,1140.85 440.449,1140.85 441.68,1140.85 442.91,1140.85 444.141,1140.85 445.372,1140.85 446.602,1140.85 447.833,1140.85 449.063,1140.85 450.294,1140.85 451.524,1140.85 452.755,1140.85 453.986,1140.85 455.216,1140.85 456.447,1140.85 457.677,1140.85 458.908,1140.85 460.138,1140.85 461.369,1140.85 462.6,1140.85 463.83,1140.85 465.061,1140.85 466.291,1140.85 467.522,1140.85 468.752,1140.85 469.983,1140.85 471.213,1140.85 472.444,1140.85 473.675,1140.85 474.905,1140.85 476.136,1140.85 477.366,1140.85 478.597,1140.85 479.827,1140.85 481.058,1140.85 482.289,1140.85 483.519,1140.85 484.75,1140.85 485.98,1140.85 487.211,1140.85 488.441,1140.85 489.672,1140.85 490.903,1140.85 492.133,1140.85 493.364,1140.85 494.594,1140.85 495.825,1140.85 497.055,1140.85 498.286,1140.85 499.517,1140.85 500.747,1140.85 501.978,1140.85 503.208,1140.85 504.439,1140.85 505.669,1140.85 506.9,1140.85 508.131,1140.85 509.361,1140.85 510.592,1140.85 511.822,1140.85 513.053,1140.85 514.283,1140.85 515.514,1140.85 516.745,1140.85 517.975,1140.85 519.206,1140.85 520.436,1140.85 521.667,1140.85 522.897,1140.85 524.128,1140.85 525.359,1140.85 526.589,1140.85 527.82,1140.85 529.05,1140.85 530.281,1140.85 531.511,1140.85 532.742,1140.85 533.973,1140.85 535.203,1140.85 536.434,1140.85 537.664,1140.85 538.895,1140.85 540.125,1140.85 541.356,1140.85 542.587,1140.85 543.817,1140.85 545.048,1140.85 546.278,1140.85 547.509,1140.85 548.739,1140.85 549.97,1140.85 551.201,1140.85 552.431,1140.85 553.662,1140.85 554.892,1140.85 556.123,1140.85 557.353,1140.85 558.584,1140.85 559.815,1140.85 561.045,1140.85 562.276,1140.85 563.506,1140.85 564.737,1140.85 565.967,1140.85 567.198,1140.85 568.429,1140.85 569.659,1140.85 570.89,1140.85 572.12,1140.85 573.351,1140.85 574.581,1140.85 575.812,1140.85 577.043,1140.85 578.273,1140.85 579.504,1140.85 580.734,1140.85 581.965,1140.85 583.195,1140.85 584.426,1140.85 585.657,1140.85 586.887,1140.85 588.118,1140.85 589.348,1140.85 590.579,1140.85 591.809,1140.85 593.04,1140.85 594.271,1140.85 595.501,1140.85 596.732,1140.85 597.962,1140.85 599.193,1140.85 600.423,1140.85 601.654,1140.85 602.885,1140.85 604.115,1140.85 605.346,1140.85 606.576,1140.85 607.807,1140.85 609.037,1140.85 610.268,1140.85 611.499,1140.85 612.729,1140.85 613.96,1140.85 615.19,1140.85 616.421,1140.85 617.651,1140.85 618.882,1140.85 620.113,1140.85 621.343,1140.85 622.574,1140.85 623.804,1140.85 625.035,1140.85 626.265,1140.85 627.496,1140.85 628.727,1140.85 629.957,1140.85 631.188,1059.73 632.418,1059.73 633.649,1059.73 634.879,1059.73 636.11,1059.73 637.341,1059.73 638.571,1059.73 639.802,1059.73 641.032,1059.73 642.263,1059.73 643.493,1059.73 644.724,1059.73 645.955,1059.73 647.185,1059.73 648.416,1059.73 649.646,1059.73 650.877,1059.73 652.107,1059.73 653.338,1059.73 654.569,1059.73 655.799,1059.73 657.03,1059.73 658.26,1059.73 659.491,1059.73 660.721,1059.73 661.952,1059.73 663.183,1059.73 664.413,1059.73 665.644,1059.73 666.874,1059.73 668.105,1059.73 669.335,1059.73 670.566,1059.73 671.796,1059.73 673.027,1059.73 674.258,1059.73 675.488,1059.73 676.719,1059.73 677.949,1059.73 679.18,1059.73 680.41,1059.73 681.641,1059.73 682.872,1059.73 684.102,1059.73 685.333,1059.73 686.563,1059.73 687.794,1059.73 689.024,1059.73 690.255,1059.73 691.486,1059.73 692.716,1059.73 693.947,1059.73 695.177,1059.73 696.408,1059.73 697.638,1059.73 698.869,1059.73 700.1,1059.73 701.33,1059.73 702.561,1059.73 703.791,1059.73 705.022,1059.73 706.252,1059.73 707.483,1059.73 708.714,1059.73 709.944,1059.73 711.175,1059.73 712.405,1059.73 713.636,1059.73 714.866,1059.73 716.097,1059.73 717.328,1059.73 718.558,1059.73 719.789,1059.73 721.019,1059.73 722.25,1059.73 723.48,1059.73 724.711,1059.73 725.942,1059.73 727.172,1059.73 728.403,1059.73 729.633,1059.73 730.864,1059.73 732.094,1059.73 733.325,1059.73 734.556,1059.73 735.786,1059.73 737.017,1059.73 738.247,1059.73 739.478,1059.73 740.708,1059.73 741.939,1059.73 743.17,1059.73 744.4,1059.73 745.631,1059.73 746.861,1059.73 748.092,1059.73 749.322,1059.73 750.553,1059.73 751.784,1059.73 753.014,1059.73 754.245,1059.73 755.475,1059.73 756.706,1059.73 757.936,1059.73 759.167,1059.73 760.398,1059.73 761.628,1059.73 762.859,1059.73 764.089,1059.73 765.32,1059.73 766.55,1059.73 767.781,1059.73 769.012,1059.73 770.242,1059.73 771.473,1059.73 772.703,1059.73 773.934,1059.73 775.164,1059.73 776.395,1059.73 777.626,1059.73 778.856,1059.73 780.087,1059.73 781.317,1059.73 782.548,1059.73 783.778,1059.73 785.009,1059.73 786.24,1059.73 787.47,1059.73 788.701,1059.73 789.931,1059.73 791.162,1059.73 792.392,1059.73 793.623,1059.73 794.854,1059.73 796.084,1059.73 797.315,1059.73 798.545,1059.73 799.776,1059.73 801.006,1059.73 802.237,1059.73 803.468,1059.73 804.698,1059.73 805.929,1059.73 807.159,1059.73 808.39,1059.73 809.62,1059.73 810.851,1059.73 812.082,1059.73 813.312,1059.73 814.543,1059.73 815.773,1059.73 817.004,1059.73 818.234,1059.73 819.465,1059.73 820.696,1059.73 821.926,1059.73 823.157,1059.73 824.387,1059.73 825.618,1059.73 826.848,1059.73 828.079,1059.73 829.31,1059.73 830.54,1059.73 831.771,1059.73 833.001,1059.73 834.232,1059.73 835.462,1059.73 836.693,1059.73 837.924,1059.73 839.154,1059.73 840.385,1059.73 841.615,1059.73 842.846,1059.73 844.076,1059.73 845.307,1059.73 846.538,1059.73 847.768,1059.73 848.999,1059.73 850.229,1059.73 851.46,1059.73 852.69,1059.73 853.921,1059.73 855.152,1059.73 856.382,1059.73 857.613,1059.73 858.843,1059.73 860.074,1059.73 861.304,1059.73 862.535,1059.73 863.766,1059.73 864.996,1059.73 866.227,1059.73 867.457,1059.73 868.688,1059.73 869.918,1059.73 871.149,1059.73 872.38,1059.73 873.61,1059.73 874.841,1059.73 876.071,1059.73 877.302,1059.73 878.532,1059.73 879.763,1059.73 880.993,1059.73 882.224,1059.73 883.455,1059.73 884.685,1059.73 885.916,1059.73 887.146,1059.73 888.377,1059.73 889.607,1059.73 890.838,1059.73 892.069,1059.73 893.299,1059.73 894.53,1059.73 895.76,1059.73 896.991,1059.73 898.221,1059.73 899.452,1059.73 900.683,1059.73 901.913,1059.73 903.144,1059.73 904.374,1059.73 905.605,1059.73 906.835,1059.73 908.066,1059.73 909.297,1059.73 910.527,1059.73 911.758,1059.73 912.988,1059.73 914.219,1059.73 915.449,1059.73 916.68,1059.73 917.911,1059.73 919.141,1059.73 920.372,1059.73 921.602,1059.73 922.833,1059.73 924.063,1059.73 925.294,1059.73 926.525,1059.73 927.755,1059.73 928.986,1059.73 930.216,1059.73 931.447,1059.73 932.677,1059.73 933.908,1059.73 935.139,1059.73 936.369,1059.73 937.6,1059.73 938.83,1059.73 940.061,1059.73 941.291,1059.73 942.522,1059.73 943.753,1059.73 944.983,1059.73 946.214,1059.73 947.444,1059.73 948.675,1059.73 949.905,1059.73 951.136,1059.73 952.367,1059.73 953.597,1059.73 954.828,1059.73 956.058,1059.73 957.289,1059.73 958.519,1059.73 959.75,1059.73 960.981,1059.73 962.211,1059.73 963.442,1059.73 964.672,1059.73 965.903,1059.73 967.133,1059.73 968.364,1059.73 969.595,1059.73 970.825,1059.73 972.056,1059.73 973.286,1059.73 974.517,1059.73 975.747,1059.73 976.978,1059.73 978.209,1059.73 979.439,1059.73 980.67,1059.73 981.9,1059.73 983.131,1059.73 984.361,1059.73 985.592,1059.73 986.823,1059.73 988.053,1059.73 989.284,1059.73 990.514,1059.73 991.745,1059.73 992.975,1059.73 994.206,1059.73 995.437,1059.73 996.667,1059.73 997.898,1059.73 999.128,1059.73 1000.36,1059.73 1001.59,1059.73 1002.82,1059.73 1004.05,1059.73 1005.28,1059.73 1006.51,1059.73 1007.74,1059.73 1008.97,1059.73 1010.2,1059.73 1011.43,1059.73 1012.66,1059.73 1013.9,1059.73 1015.13,1059.73 1016.36,1059.73 1017.59,1059.73 1018.82,1059.73 1020.05,1059.73 1021.28,1059.73 1022.51,1059.73 1023.74,1059.73 1024.97,1059.73 1026.2,1059.73 1027.43,1059.73 1028.66,1059.73 1029.89,1059.73 1031.12,1059.73 1032.35,1059.73 1033.58,1059.73 1034.81,1059.73 1036.05,1059.73 1037.28,1059.73 1038.51,1059.73 1039.74,1059.73 1040.97,1059.73 1042.2,1059.73 1043.43,1059.73 1044.66,1059.73 1045.89,1059.73 1047.12,1059.73 1048.35,1059.73 1049.58,1059.73 1050.81,1059.73 1052.04,1059.73 1053.27,1059.73 1054.5,1059.73 1055.73,1059.73 1056.97,1059.73 1058.2,1059.73 1059.43,1059.73 1060.66,1059.73 1061.89,1059.73 1063.12,1059.73 1064.35,1059.73 1065.58,1059.73 1066.81,1059.73 1068.04,1059.73 1069.27,1059.73 1070.5,1059.73 1071.73,1059.73 1072.96,1059.73 1074.19,1059.73 1075.42,1059.73 1076.65,1059.73 1077.88,1059.73 1079.12,1059.73 1080.35,1059.73 1081.58,1059.73 1082.81,1059.73 1084.04,1059.73 1085.27,1059.73 1086.5,1059.73 1087.73,1059.73 1088.96,1059.73 1090.19,1059.73 1091.42,1059.73 1092.65,1059.73 1093.88,1059.73 1095.11,1059.73 1096.34,1059.73 1097.57,1059.73 1098.8,1059.73 1100.04,1059.73 1101.27,1059.73 1102.5,1059.73 1103.73,1059.73 1104.96,1059.73 1106.19,1059.73 1107.42,1059.73 1108.65,1059.73 1109.88,1059.73 1111.11,978.597 1112.34,978.597 1113.57,978.597 1114.8,978.597 1116.03,978.597 1117.26,978.597 1118.49,978.597 1119.72,978.597 1120.95,978.597 1122.19,978.597 1123.42,978.597 1124.65,978.597 1125.88,978.597 1127.11,978.597 1128.34,978.597 1129.57,978.597 1130.8,978.597 1132.03,978.597 1133.26,978.597 1134.49,978.597 1135.72,978.597 1136.95,978.597 1138.18,978.597 1139.41,978.597 1140.64,978.597 1141.87,978.597 1143.11,978.597 1144.34,978.597 1145.57,978.597 1146.8,978.597 1148.03,978.597 1149.26,978.597 1150.49,978.597 1151.72,978.597 1152.95,978.597 1154.18,978.597 1155.41,978.597 1156.64,978.597 1157.87,978.597 1159.1,978.597 1160.33,978.597 1161.56,978.597 1162.79,978.597 1164.02,978.597 1165.26,978.597 1166.49,978.597 1167.72,978.597 1168.95,978.597 1170.18,978.597 1171.41,978.597 1172.64,978.597 1173.87,978.597 1175.1,978.597 1176.33,978.597 1177.56,978.597 1178.79,978.597 1180.02,978.597 1181.25,978.597 1182.48,978.597 1183.71,978.597 1184.94,978.597 1186.17,978.597 1187.41,978.597 1188.64,978.597 1189.87,978.597 1191.1,978.597 1192.33,978.597 1193.56,978.597 1194.79,978.597 1196.02,978.597 1197.25,978.597 1198.48,978.597 1199.71,978.597 1200.94,978.597 1202.17,978.597 1203.4,978.597 1204.63,978.597 1205.86,978.597 1207.09,978.597 1208.33,978.597 1209.56,978.597 1210.79,978.597 1212.02,978.597 1213.25,978.597 1214.48,978.597 1215.71,978.597 1216.94,978.597 1218.17,978.597 1219.4,978.597 1220.63,978.597 1221.86,978.597 1223.09,978.597 1224.32,978.597 1225.55,978.597 1226.78,978.597 1228.01,978.597 1229.24,978.597 1230.48,978.597 1231.71,978.597 1232.94,978.597 1234.17,978.597 1235.4,978.597 1236.63,978.597 1237.86,897.469 1239.09,897.469 1240.32,897.469 1241.55,897.469 1242.78,897.469 1244.01,897.469 1245.24,897.469 1246.47,897.469 1247.7,897.469 1248.93,897.469 1250.16,897.469 1251.4,897.469 1252.63,816.34 1253.86,816.34 1255.09,816.34 1256.32,816.34 1257.55,816.34 1258.78,816.34 1260.01,816.34 1261.24,816.34 1262.47,816.34 1263.7,816.34 1264.93,816.34 1266.16,816.34 1267.39,816.34 1268.62,816.34 1269.85,816.34 1271.08,816.34 1272.31,816.34 1273.55,816.34 1274.78,816.34 1276.01,816.34 1277.24,816.34 1278.47,816.34 1279.7,816.34 1280.93,816.34 1282.16,816.34 1283.39,816.34 1284.62,816.34 1285.85,816.34 1287.08,816.34 1288.31,816.34 1289.54,816.34 1290.77,816.34 1292,816.34 1293.23,816.34 1294.47,816.34 1295.7,816.34 1296.93,816.34 1298.16,816.34 1299.39,816.34 1300.62,816.34 1301.85,816.34 1303.08,816.34 1304.31,816.34 1305.54,816.34 1306.77,816.34 1308,816.34 1309.23,816.34 1310.46,816.34 1311.69,816.34 1312.92,816.34 1314.15,816.34 1315.38,816.34 1316.62,816.34 1317.85,816.34 1319.08,816.34 1320.31,816.34 1321.54,816.34 1322.77,816.34 1324,816.34 1325.23,816.34 1326.46,816.34 1327.69,816.34 1328.92,816.34 1330.15,816.34 1331.38,816.34 1332.61,816.34 1333.84,816.34 1335.07,816.34 1336.3,816.34 1337.54,816.34 1338.77,816.34 1340,816.34 1341.23,816.34 1342.46,816.34 1343.69,816.34 1344.92,816.34 1346.15,816.34 1347.38,816.34 1348.61,816.34 1349.84,816.34 1351.07,816.34 1352.3,816.34 1353.53,816.34 1354.76,816.34 1355.99,816.34 1357.22,816.34 1358.45,816.34 1359.69,816.34 1360.92,816.34 1362.15,816.34 1363.38,816.34 1364.61,816.34 1365.84,816.34 1367.07,816.34 1368.3,816.34 1369.53,816.34 1370.76,816.34 1371.99,816.34 1373.22,816.34 1374.45,816.34 1375.68,816.34 1376.91,816.34 1378.14,816.34 1379.37,816.34 1380.61,816.34 1381.84,816.34 1383.07,816.34 1384.3,816.34 1385.53,816.34 1386.76,816.34 1387.99,816.34 1389.22,816.34 1390.45,816.34 1391.68,816.34 1392.91,816.34 1394.14,816.34 1395.37,816.34 1396.6,816.34 1397.83,816.34 1399.06,816.34 1400.29,816.34 1401.52,816.34 1402.76,816.34 1403.99,816.34 1405.22,816.34 1406.45,816.34 1407.68,816.34 1408.91,816.34 1410.14,816.34 1411.37,816.34 1412.6,816.34 1413.83,816.34 1415.06,816.34 1416.29,816.34 1417.52,816.34 1418.75,816.34 1419.98,816.34 1421.21,816.34 1422.44,816.34 1423.68,816.34 1424.91,816.34 1426.14,816.34 1427.37,816.34 1428.6,816.34 1429.83,816.34 1431.06,816.34 1432.29,816.34 1433.52,816.34 1434.75,816.34 1435.98,816.34 1437.21,816.34 1438.44,816.34 1439.67,816.34 1440.9,816.34 1442.13,816.34 1443.36,816.34 1444.59,816.34 1445.83,816.34 1447.06,816.34 1448.29,816.34 1449.52,816.34 1450.75,816.34 1451.98,816.34 1453.21,816.34 1454.44,816.34 1455.67,816.34 1456.9,816.34 1458.13,816.34 1459.36,816.34 1460.59,816.34 1461.82,816.34 1463.05,816.34 1464.28,816.34 1465.51,816.34 1466.75,816.34 1467.98,816.34 1469.21,816.34 1470.44,816.34 1471.67,816.34 1472.9,816.34 1474.13,816.34 1475.36,816.34 1476.59,735.212 1477.82,735.212 1479.05,735.212 1480.28,735.212 1481.51,735.212 1482.74,735.212 1483.97,735.212 1485.2,735.212 1486.43,735.212 1487.66,735.212 1488.9,735.212 1490.13,735.212 1491.36,735.212 1492.59,735.212 1493.82,735.212 1495.05,735.212 1496.28,735.212 1497.51,735.212 1498.74,735.212 1499.97,735.212 1501.2,735.212 1502.43,735.212 1503.66,735.212 1504.89,735.212 1506.12,735.212 1507.35,735.212 1508.58,735.212 1509.82,735.212 1511.05,735.212 1512.28,735.212 1513.51,735.212 1514.74,735.212 1515.97,735.212 1517.2,735.212 1518.43,735.212 1519.66,735.212 1520.89,735.212 1522.12,735.212 1523.35,735.212 1524.58,735.212 1525.81,735.212 1527.04,735.212 1528.27,735.212 1529.5,735.212 1530.73,735.212 1531.97,735.212 1533.2,735.212 1534.43,735.212 1535.66,735.212 1536.89,735.212 1538.12,735.212 1539.35,735.212 1540.58,735.212 1541.81,735.212 1543.04,735.212 1544.27,735.212 1545.5,735.212 1546.73,735.212 1547.96,735.212 1549.19,735.212 1550.42,735.212 1551.65,654.084 1552.89,654.084 1554.12,654.084 1555.35,654.084 1556.58,654.084 1557.81,654.084 1559.04,654.084 1560.27,654.084 1561.5,654.084 1562.73,654.084 1563.96,654.084 1565.19,654.084 1566.42,654.084 1567.65,654.084 1568.88,654.084 1570.11,654.084 1571.34,654.084 1572.57,654.084 1573.8,654.084 1575.04,654.084 1576.27,654.084 1577.5,654.084 1578.73,654.084 1579.96,654.084 1581.19,654.084 1582.42,654.084 1583.65,654.084 1584.88,654.084 1586.11,654.084 1587.34,654.084 1588.57,654.084 1589.8,654.084 1591.03,654.084 1592.26,654.084 1593.49,654.084 1594.72,654.084 1595.96,654.084 1597.19,654.084 1598.42,654.084 1599.65,654.084 1600.88,654.084 1602.11,654.084 1603.34,654.084 1604.57,654.084 1605.8,654.084 1607.03,654.084 1608.26,654.084 1609.49,654.084 1610.72,654.084 1611.95,654.084 1613.18,654.084 1614.41,654.084 1615.64,654.084 1616.87,654.084 1618.11,654.084 1619.34,654.084 1620.57,654.084 1621.8,654.084 1623.03,654.084 1624.26,654.084 1625.49,654.084 1626.72,654.084 1627.95,654.084 1629.18,654.084 1630.41,654.084 1631.64,572.955 1632.87,572.955 1634.1,572.955 1635.33,572.955 1636.56,572.955 1637.79,572.955 1639.02,572.955 1640.26,491.827 1641.49,491.827 1642.72,491.827 1643.95,491.827 1645.18,410.699 1646.41,410.699 1647.64,410.699 1648.87,410.699 1650.1,410.699 1651.33,410.699 1652.56,410.699 1653.79,410.699 1655.02,410.699 1656.25,410.699 1657.48,410.699 1658.71,410.699 1659.94,410.699 1661.18,410.699 1662.41,410.699 1663.64,410.699 1664.87,410.699 1666.1,410.699 1667.33,410.699 1668.56,410.699 1669.79,410.699 1671.02,410.699 1672.25,410.699 1673.48,410.699 1674.71,410.699 1675.94,329.571 1677.17,329.571 1678.4,329.571 1679.63,329.571 1680.86,329.571 1682.09,329.571 1683.33,329.571 1684.56,329.571 1685.79,329.571 1687.02,329.571 1688.25,329.571 1689.48,329.571 1690.71,329.571 1691.94,329.571 1693.17,329.571 1694.4,329.571 1695.63,329.571 1696.86,329.571 1698.09,329.571 1699.32,329.571 1700.55,329.571 1701.78,329.571 1703.01,329.571 1704.25,329.571 1705.48,329.571 1706.71,329.571 1707.94,329.571 1709.17,329.571 1710.4,329.571 1711.63,329.571 1712.86,329.571 1714.09,329.571 1715.32,329.571 1716.55,329.571 1717.78,329.571 1719.01,329.571 1720.24,329.571 1721.47,329.571 1722.7,329.571 1723.93,329.571 1725.16,329.571 1726.4,329.571 1727.63,329.571 1728.86,329.571 1730.09,329.571 1731.32,329.571 1732.55,329.571 1733.78,329.571 1735.01,329.571 1736.24,329.571 1737.47,329.571 1738.7,329.571 1739.93,329.571 1741.16,329.571 1742.39,329.571 1743.62,329.571 1744.85,329.571 1746.08,329.571 1747.32,329.571 1748.55,329.571 1749.78,329.571 1751.01,329.571 1752.24,329.571 1753.47,329.571 1754.7,329.571 1755.93,329.571 1757.16,329.571 1758.39,329.571 1759.62,329.571 1760.85,329.571 1762.08,329.571 1763.31,329.571 1764.54,329.571 1765.77,329.571 1767,329.571 1768.23,329.571 1769.47,329.571 1770.7,329.571 1771.93,329.571 1773.16,329.571 1774.39,329.571 1775.62,329.571 1776.85,329.571 1778.08,329.571 1779.31,329.571 1780.54,329.571 1781.77,329.571 1783,329.571 1784.23,329.571 1785.46,329.571 1786.69,329.571 1787.92,329.571 1789.15,329.571 1790.39,329.571 1791.62,329.571 1792.85,329.571 1794.08,329.571 1795.31,329.571 1796.54,329.571 1797.77,329.571 1799,329.571 1800.23,329.571 1801.46,329.571 1802.69,329.571 1803.92,329.571 1805.15,329.571 1806.38,329.571 1807.61,329.571 1808.84,329.571 1810.07,329.571 1811.3,329.571 1812.54,329.571 1813.77,329.571 1815,329.571 1816.23,329.571 1817.46,329.571 1818.69,329.571 1819.92,329.571 1821.15,329.571 1822.38,329.571 1823.61,329.571 1824.84,329.571 1826.07,329.571 1827.3,329.571 1828.53,329.571 1829.76,329.571 1830.99,329.571 1832.22,329.571 1833.46,329.571 1834.69,329.571 1835.92,329.571 1837.15,329.571 1838.38,329.571 1839.61,329.571 1840.84,329.571 1842.07,329.571 1843.3,329.571 1844.53,329.571 1845.76,329.571 1846.99,329.571 1848.22,329.571 1849.45,329.571 1850.68,329.571 1851.91,329.571 1853.14,329.571 1854.37,329.571 1855.61,329.571 1856.84,329.571 1858.07,329.571 1859.3,329.571 1860.53,329.571 1861.76,329.571 1862.99,329.571 1864.22,329.571 1865.45,329.571 1866.68,329.571 1867.91,329.571 1869.14,329.571 1870.37,329.571 1871.6,329.571 1872.83,329.571 1874.06,329.571 1875.29,329.571 1876.53,329.571 1877.76,329.571 1878.99,329.571 1880.22,329.571 1881.45,329.571 1882.68,329.571 1883.91,329.571 1885.14,329.571 1886.37,329.571 1887.6,329.571 1888.83,329.571 1890.06,329.571 1891.29,329.571 1892.52,329.571 1893.75,329.571 1894.98,329.571 1896.21,329.571 1897.44,329.571 1898.68,329.571 1899.91,329.571 1901.14,329.571 1902.37,329.571 1903.6,329.571 1904.83,329.571 1906.06,329.571 1907.29,329.571 1908.52,329.571 1909.75,329.571 1910.98,329.571 1912.21,329.571 1913.44,329.571 1914.67,329.571 1915.9,329.571 1917.13,329.571 1918.36,329.571 1919.6,329.571 1920.83,329.571 1922.06,329.571 1923.29,329.571 1924.52,329.571 1925.75,329.571 1926.98,329.571 1928.21,329.571 1929.44,329.571 1930.67,329.571 1931.9,329.571 1933.13,329.571 1934.36,329.571 1935.59,329.571 1936.82,329.571 1938.05,329.571 1939.28,329.571 1940.51,329.571 1941.75,329.571 1942.98,329.571 1944.21,329.571 1945.44,329.571 1946.67,329.571 1947.9,248.442 1949.13,248.442 1950.36,248.442 1951.59,248.442 1952.82,248.442 1954.05,248.442 1955.28,248.442 1956.51,248.442 1957.74,248.442 1958.97,248.442 1960.2,248.442 1961.43,248.442 1962.67,248.442 1963.9,248.442 1965.13,248.442 1966.36,248.442 1967.59,248.442 1968.82,248.442 1970.05,248.442 1971.28,248.442 1972.51,248.442 1973.74,248.442 1974.97,248.442 1976.2,248.442 1977.43,248.442 1978.66,248.442 1979.89,248.442 1981.12,248.442 1982.35,248.442 1983.58,248.442 1984.82,248.442 1986.05,248.442 1987.28,248.442 1988.51,248.442 1989.74,248.442 1990.97,248.442 1992.2,248.442 1993.43,248.442 1994.66,248.442 1995.89,248.442 1997.12,248.442 1998.35,248.442 1999.58,167.314 2000.81,167.314 2002.04,86.1857 2003.27,86.1857 2004.5,86.1857 2005.74,86.1857 2006.97,86.1857 2008.2,86.1857 2009.43,86.1857 2010.66,86.1857 2011.89,86.1857 2013.12,86.1857 2014.35,86.1857 2015.58,86.1857 2016.81,86.1857 2018.04,86.1857 2019.27,86.1857 2020.5,86.1857 2021.73,86.1857 2022.96,86.1857 2024.19,86.1857 2025.42,86.1857 2026.65,86.1857 2027.89,86.1857 2029.12,86.1857 2030.35,86.1857 2031.58,86.1857 2032.81,86.1857 2034.04,86.1857 2035.27,86.1857 2036.5,86.1857 2037.73,86.1857 2038.96,86.1857 2040.19,86.1857 2041.42,86.1857 2042.65,86.1857 2043.88,86.1857 2045.11,86.1857 2046.34,86.1857 2047.57,86.1857 2048.8,86.1857 2050.04,86.1857 2051.27,86.1857 2052.5,86.1857 2053.73,86.1857 2054.96,86.1857 2056.19,86.1857 2057.42,86.1857 2058.65,86.1857 2059.88,86.1857 2061.11,86.1857 2062.34,86.1857 2063.57,86.1857 2064.8,86.1857 2066.03,86.1857 2067.26,86.1857 2068.49,86.1857 2069.72,86.1857 2070.96,86.1857 2072.19,86.1857 2073.42,86.1857 2074.65,86.1857 2075.88,86.1857 2077.11,86.1857 2078.34,86.1857 2079.57,86.1857 2080.8,86.1857 2082.03,86.1857 2083.26,86.1857 2084.49,86.1857 2085.72,86.1857 2086.95,86.1857 2088.18,86.1857 2089.41,86.1857 2090.64,86.1857 2091.87,86.1857 2093.11,86.1857 2094.34,86.1857 2095.57,86.1857 2096.8,86.1857 2098.03,86.1857 2099.26,86.1857 2100.49,86.1857 2101.72,86.1857 2102.95,86.1857 2104.18,86.1857 2105.41,86.1857 2106.64,86.1857 2107.87,86.1857 2109.1,86.1857 2110.33,86.1857 2111.56,86.1857 2112.79,86.1857 2114.03,86.1857 2115.26,86.1857 2116.49,86.1857 2117.72,86.1857 2118.95,86.1857 2120.18,86.1857 2121.41,86.1857 2122.64,86.1857 2123.87,86.1857 2125.1,86.1857 2126.33,86.1857 2127.56,86.1857 2128.79,86.1857 2130.02,86.1857 2131.25,86.1857 2132.48,86.1857 2133.71,86.1857 2134.94,86.1857 2136.18,86.1857 2137.41,86.1857 2138.64,86.1857 2139.87,86.1857 2141.1,86.1857 2142.33,86.1857 2143.56,86.1857 2144.79,86.1857 2146.02,86.1857 2147.25,86.1857 2148.48,86.1857 2149.71,86.1857 2150.94,86.1857 2152.17,86.1857 2153.4,86.1857 2154.63,86.1857 2155.86,86.1857 2157.1,86.1857 2158.33,86.1857 2159.56,86.1857 2160.79,86.1857 2162.02,86.1857 2163.25,86.1857 2164.48,86.1857 2165.71,86.1857 2166.94,86.1857 2168.17,86.1857 2169.4,86.1857 2170.63,86.1857 2171.86,86.1857 2173.09,86.1857 2174.32,86.1857 2175.55,86.1857 2176.78,86.1857 2178.01,86.1857 2179.25,86.1857 2180.48,86.1857 2181.71,86.1857 2182.94,86.1857 2184.17,86.1857 2185.4,86.1857 2186.63,86.1857 2187.86,86.1857 2189.09,86.1857 2190.32,86.1857 2191.55,86.1857 2192.78,86.1857 2194.01,86.1857 2195.24,86.1857 2196.47,86.1857 2197.7,86.1857 2198.93,86.1857 2200.17,86.1857 2201.4,86.1857 2202.63,86.1857 2203.86,86.1857 2205.09,86.1857 2206.32,86.1857 2207.55,86.1857 2208.78,86.1857 2210.01,86.1857 2211.24,86.1857 2212.47,86.1857 2213.7,86.1857 2214.93,86.1857 2216.16,86.1857 2217.39,86.1857 2218.62,86.1857 2219.85,86.1857 2221.08,86.1857 2222.32,86.1857 2223.55,86.1857 2224.78,86.1857 2226.01,86.1857 2227.24,86.1857 2228.47,86.1857 2229.7,86.1857 2230.93,86.1857 2232.16,86.1857 2233.39,86.1857 2234.62,86.1857 2235.85,86.1857 2237.08,86.1857 2238.31,86.1857 2239.54,86.1857 2240.77,86.1857 2242,86.1857 2243.24,86.1857 2244.47,86.1857 2245.7,86.1857 2246.93,86.1857 2248.16,86.1857 2249.39,86.1857 2250.62,86.1857 2251.85,86.1857 2253.08,86.1857 2254.31,86.1857 2255.54,86.1857 2256.77,86.1857 2258,86.1857 2259.23,86.1857 2260.46,86.1857 2261.69,86.1857 2262.92,86.1857 2264.15,86.1857 2265.39,86.1857 2266.62,86.1857 2267.85,86.1857 2269.08,86.1857 2270.31,86.1857 2271.54,86.1857 2272.77,86.1857 2274,86.1857 2275.23,86.1857 2276.46,86.1857 2277.69,86.1857 2278.92,86.1857 2280.15,86.1857 2281.38,86.1857 2282.61,86.1857 2283.84,86.1857 2285.07,86.1857 2286.31,86.1857 2287.54,86.1857 2288.77,86.1857 2290,86.1857 2291.23,86.1857 2292.46,86.1857 2293.69,86.1857 2294.92,86.1857 2296.15,86.1857 2297.38,86.1857 2298.61,86.1857 2299.84,86.1857 2301.07,86.1857 2302.3,86.1857 2303.53,86.1857 2304.76,86.1857 2305.99,86.1857 2307.22,86.1857 2308.46,86.1857 2309.69,86.1857 2310.92,86.1857 2312.15,86.1857 2313.38,86.1857 2314.61,86.1857 2315.84,86.1857 2317.07,86.1857 2318.3,86.1857 2319.53,86.1857 2320.76,86.1857 2321.99,86.1857 2323.22,86.1857 2324.45,86.1857 2325.68,86.1857 2326.91,86.1857 2328.14,86.1857 2329.38,86.1857 2330.61,86.1857 2331.84,86.1857 2333.07,86.1857 2334.3,86.1857 2335.53,86.1857 2336.76,86.1857 2337.99,86.1857 2339.22,86.1857 2340.45,86.1857 2341.68,86.1857 2342.91,86.1857 2344.14,86.1857 2345.37,86.1857 2346.6,86.1857 2347.83,86.1857 2349.06,86.1857 2350.29,86.1857 2351.53,86.1857 2352.76,86.1857 "/>
<path clip-path="url(#clip920)" d="M1975.27 1377.32 L2278.96 1377.32 L2278.96 1273.64 L1975.27 1273.64  Z" fill="#ffffff" fill-rule="evenodd" fill-opacity="1"/>
<polyline clip-path="url(#clip920)" style="stroke:#000000; stroke-linecap:round; stroke-linejoin:round; stroke-width:4; stroke-opacity:1; fill:none" points="1975.27,1377.32 2278.96,1377.32 2278.96,1273.64 1975.27,1273.64 1975.27,1377.32 "/>
<polyline clip-path="url(#clip920)" style="stroke:#009af9; stroke-linecap:round; stroke-linejoin:round; stroke-width:8; stroke-opacity:1; fill:none" points="1999.87,1325.48 2147.45,1325.48 "/>
<path clip-path="url(#clip920)" d="M2172.05 1308.2 L2178.35 1308.2 L2193.67 1337.11 L2193.67 1308.2 L2198.21 1308.2 L2198.21 1342.76 L2191.91 1342.76 L2176.59 1313.84 L2176.59 1342.76 L2172.05 1342.76 L2172.05 1308.2 Z" fill="#000000" fill-rule="nonzero" fill-opacity="1" /><path clip-path="url(#clip920)" d="M2217.56 1306.78 Q2214.46 1312.11 2212.95 1317.32 Q2211.45 1322.52 2211.45 1327.87 Q2211.45 1333.22 2212.95 1338.47 Q2214.48 1343.7 2217.56 1349.01 L2213.86 1349.01 Q2210.38 1343.57 2208.65 1338.31 Q2206.93 1333.06 2206.93 1327.87 Q2206.93 1322.71 2208.65 1317.48 Q2210.36 1312.25 2213.86 1306.78 L2217.56 1306.78 Z" fill="#000000" fill-rule="nonzero" fill-opacity="1" /><path clip-path="url(#clip920)" d="M2230.04 1309.47 L2230.04 1316.83 L2238.81 1316.83 L2238.81 1320.14 L2230.04 1320.14 L2230.04 1334.21 Q2230.04 1337.38 2230.89 1338.29 Q2231.77 1339.19 2234.43 1339.19 L2238.81 1339.19 L2238.81 1342.76 L2234.43 1342.76 Q2229.5 1342.76 2227.63 1340.93 Q2225.75 1339.07 2225.75 1334.21 L2225.75 1320.14 L2222.63 1320.14 L2222.63 1316.83 L2225.75 1316.83 L2225.75 1309.47 L2230.04 1309.47 Z" fill="#000000" fill-rule="nonzero" fill-opacity="1" /><path clip-path="url(#clip920)" d="M2243.74 1306.78 L2247.44 1306.78 Q2250.92 1312.25 2252.63 1317.48 Q2254.36 1322.71 2254.36 1327.87 Q2254.36 1333.06 2252.63 1338.31 Q2250.92 1343.57 2247.44 1349.01 L2243.74 1349.01 Q2246.82 1343.7 2248.32 1338.47 Q2249.85 1333.22 2249.85 1327.87 Q2249.85 1322.52 2248.32 1317.32 Q2246.82 1312.11 2243.74 1306.78 Z" fill="#000000" fill-rule="nonzero" fill-opacity="1" /></svg>
