<?xml version="1.0" encoding="utf-8"?>
<svg xmlns="http://www.w3.org/2000/svg" xmlns:xlink="http://www.w3.org/1999/xlink" width="600" height="400" viewBox="0 0 2400 1600">
<defs>
  <clipPath id="clip140">
    <rect x="0" y="0" width="2400" height="1600"/>
  </clipPath>
</defs>
<path clip-path="url(#clip140)" d="M0 1600 L2400 1600 L2400 0 L0 0  Z" fill="#ffffff" fill-rule="evenodd" fill-opacity="1"/>
<defs>
  <clipPath id="clip141">
    <rect x="140" y="47" width="2213" height="1377"/>
  </clipPath>
</defs>
<path clip-path="url(#clip140)" d="M140.696 1423.18 L2352.76 1423.18 L2352.76 47.2441 L140.696 47.2441  Z" fill="#ffffff" fill-rule="evenodd" fill-opacity="1"/>
<polyline clip-path="url(#clip141)" style="stroke:#000000; stroke-linecap:round; stroke-linejoin:round; stroke-width:2; stroke-opacity:0.1; fill:none" points="140.696,1423.18 140.696,47.2441 "/>
<polyline clip-path="url(#clip141)" style="stroke:#000000; stroke-linecap:round; stroke-linejoin:round; stroke-width:2; stroke-opacity:0.1; fill:none" points="583.108,1423.18 583.108,47.2441 "/>
<polyline clip-path="url(#clip141)" style="stroke:#000000; stroke-linecap:round; stroke-linejoin:round; stroke-width:2; stroke-opacity:0.1; fill:none" points="1025.52,1423.18 1025.52,47.2441 "/>
<polyline clip-path="url(#clip141)" style="stroke:#000000; stroke-linecap:round; stroke-linejoin:round; stroke-width:2; stroke-opacity:0.1; fill:none" points="1467.93,1423.18 1467.93,47.2441 "/>
<polyline clip-path="url(#clip141)" style="stroke:#000000; stroke-linecap:round; stroke-linejoin:round; stroke-width:2; stroke-opacity:0.1; fill:none" points="1910.34,1423.18 1910.34,47.2441 "/>
<polyline clip-path="url(#clip141)" style="stroke:#000000; stroke-linecap:round; stroke-linejoin:round; stroke-width:2; stroke-opacity:0.1; fill:none" points="2352.76,1423.18 2352.76,47.2441 "/>
<polyline clip-path="url(#clip141)" style="stroke:#000000; stroke-linecap:round; stroke-linejoin:round; stroke-width:2; stroke-opacity:0.1; fill:none" points="140.696,1384.24 2352.76,1384.24 "/>
<polyline clip-path="url(#clip141)" style="stroke:#000000; stroke-linecap:round; stroke-linejoin:round; stroke-width:2; stroke-opacity:0.1; fill:none" points="140.696,1124.63 2352.76,1124.63 "/>
<polyline clip-path="url(#clip141)" style="stroke:#000000; stroke-linecap:round; stroke-linejoin:round; stroke-width:2; stroke-opacity:0.1; fill:none" points="140.696,865.017 2352.76,865.017 "/>
<polyline clip-path="url(#clip141)" style="stroke:#000000; stroke-linecap:round; stroke-linejoin:round; stroke-width:2; stroke-opacity:0.1; fill:none" points="140.696,605.407 2352.76,605.407 "/>
<polyline clip-path="url(#clip141)" style="stroke:#000000; stroke-linecap:round; stroke-linejoin:round; stroke-width:2; stroke-opacity:0.1; fill:none" points="140.696,345.796 2352.76,345.796 "/>
<polyline clip-path="url(#clip141)" style="stroke:#000000; stroke-linecap:round; stroke-linejoin:round; stroke-width:2; stroke-opacity:0.1; fill:none" points="140.696,86.1857 2352.76,86.1857 "/>
<polyline clip-path="url(#clip140)" style="stroke:#000000; stroke-linecap:round; stroke-linejoin:round; stroke-width:4; stroke-opacity:1; fill:none" points="140.696,1423.18 2352.76,1423.18 "/>
<polyline clip-path="url(#clip140)" style="stroke:#000000; stroke-linecap:round; stroke-linejoin:round; stroke-width:4; stroke-opacity:1; fill:none" points="140.696,1423.18 140.696,1404.28 "/>
<polyline clip-path="url(#clip140)" style="stroke:#000000; stroke-linecap:round; stroke-linejoin:round; stroke-width:4; stroke-opacity:1; fill:none" points="583.108,1423.18 583.108,1404.28 "/>
<polyline clip-path="url(#clip140)" style="stroke:#000000; stroke-linecap:round; stroke-linejoin:round; stroke-width:4; stroke-opacity:1; fill:none" points="1025.52,1423.18 1025.52,1404.28 "/>
<polyline clip-path="url(#clip140)" style="stroke:#000000; stroke-linecap:round; stroke-linejoin:round; stroke-width:4; stroke-opacity:1; fill:none" points="1467.93,1423.18 1467.93,1404.28 "/>
<polyline clip-path="url(#clip140)" style="stroke:#000000; stroke-linecap:round; stroke-linejoin:round; stroke-width:4; stroke-opacity:1; fill:none" points="1910.34,1423.18 1910.34,1404.28 "/>
<polyline clip-path="url(#clip140)" style="stroke:#000000; stroke-linecap:round; stroke-linejoin:round; stroke-width:4; stroke-opacity:1; fill:none" points="2352.76,1423.18 2352.76,1404.28 "/>
<path clip-path="url(#clip140)" d="M140.696 1454.1 Q137.084 1454.1 135.256 1457.66 Q133.45 1461.2 133.45 1468.33 Q133.45 1475.44 135.256 1479.01 Q137.084 1482.55 140.696 1482.55 Q144.33 1482.55 146.135 1479.01 Q147.964 1475.44 147.964 1468.33 Q147.964 1461.2 146.135 1457.66 Q144.33 1454.1 140.696 1454.1 M140.696 1450.39 Q146.506 1450.39 149.561 1455 Q152.64 1459.58 152.64 1468.33 Q152.64 1477.06 149.561 1481.67 Q146.506 1486.25 140.696 1486.25 Q134.885 1486.25 131.807 1481.67 Q128.751 1477.06 128.751 1468.33 Q128.751 1459.58 131.807 1455 Q134.885 1450.39 140.696 1450.39 Z" fill="#000000" fill-rule="nonzero" fill-opacity="1" /><path clip-path="url(#clip140)" d="M577.76 1481.64 L594.08 1481.64 L594.08 1485.58 L572.135 1485.58 L572.135 1481.64 Q574.797 1478.89 579.381 1474.26 Q583.987 1469.61 585.168 1468.27 Q587.413 1465.74 588.293 1464.01 Q589.196 1462.25 589.196 1460.56 Q589.196 1457.8 587.251 1456.07 Q585.33 1454.33 582.228 1454.33 Q580.029 1454.33 577.575 1455.09 Q575.145 1455.86 572.367 1457.41 L572.367 1452.69 Q575.191 1451.55 577.645 1450.97 Q580.098 1450.39 582.135 1450.39 Q587.506 1450.39 590.7 1453.08 Q593.895 1455.77 593.895 1460.26 Q593.895 1462.39 593.084 1464.31 Q592.297 1466.2 590.191 1468.8 Q589.612 1469.47 586.51 1472.69 Q583.409 1475.88 577.76 1481.64 Z" fill="#000000" fill-rule="nonzero" fill-opacity="1" /><path clip-path="url(#clip140)" d="M1028.53 1455.09 L1016.72 1473.54 L1028.53 1473.54 L1028.53 1455.09 M1027.3 1451.02 L1033.18 1451.02 L1033.18 1473.54 L1038.11 1473.54 L1038.11 1477.43 L1033.18 1477.43 L1033.18 1485.58 L1028.53 1485.58 L1028.53 1477.43 L1012.93 1477.43 L1012.93 1472.92 L1027.3 1451.02 Z" fill="#000000" fill-rule="nonzero" fill-opacity="1" /><path clip-path="url(#clip140)" d="M1468.34 1466.44 Q1465.19 1466.44 1463.34 1468.59 Q1461.51 1470.74 1461.51 1474.49 Q1461.51 1478.22 1463.34 1480.39 Q1465.19 1482.55 1468.34 1482.55 Q1471.48 1482.55 1473.31 1480.39 Q1475.17 1478.22 1475.17 1474.49 Q1475.17 1470.74 1473.31 1468.59 Q1471.48 1466.44 1468.34 1466.44 M1477.62 1451.78 L1477.62 1456.04 Q1475.86 1455.21 1474.05 1454.77 Q1472.27 1454.33 1470.51 1454.33 Q1465.88 1454.33 1463.43 1457.45 Q1461 1460.58 1460.65 1466.9 Q1462.02 1464.89 1464.08 1463.82 Q1466.14 1462.73 1468.61 1462.73 Q1473.82 1462.73 1476.83 1465.9 Q1479.86 1469.05 1479.86 1474.49 Q1479.86 1479.82 1476.72 1483.03 Q1473.57 1486.25 1468.34 1486.25 Q1462.34 1486.25 1459.17 1481.67 Q1456 1477.06 1456 1468.33 Q1456 1460.14 1459.89 1455.28 Q1463.78 1450.39 1470.33 1450.39 Q1472.09 1450.39 1473.87 1450.74 Q1475.67 1451.09 1477.62 1451.78 Z" fill="#000000" fill-rule="nonzero" fill-opacity="1" /><path clip-path="url(#clip140)" d="M1910.34 1469.17 Q1907.01 1469.17 1905.09 1470.95 Q1903.19 1472.73 1903.19 1475.86 Q1903.19 1478.98 1905.09 1480.77 Q1907.01 1482.55 1910.34 1482.55 Q1913.68 1482.55 1915.6 1480.77 Q1917.52 1478.96 1917.52 1475.86 Q1917.52 1472.73 1915.6 1470.95 Q1913.7 1469.17 1910.34 1469.17 M1905.67 1467.18 Q1902.66 1466.44 1900.97 1464.38 Q1899.3 1462.32 1899.3 1459.35 Q1899.3 1455.21 1902.24 1452.8 Q1905.2 1450.39 1910.34 1450.39 Q1915.51 1450.39 1918.45 1452.8 Q1921.39 1455.21 1921.39 1459.35 Q1921.39 1462.32 1919.7 1464.38 Q1918.03 1466.44 1915.04 1467.18 Q1918.42 1467.96 1920.3 1470.26 Q1922.2 1472.55 1922.2 1475.86 Q1922.2 1480.88 1919.12 1483.57 Q1916.06 1486.25 1910.34 1486.25 Q1904.63 1486.25 1901.55 1483.57 Q1898.49 1480.88 1898.49 1475.86 Q1898.49 1472.55 1900.39 1470.26 Q1902.29 1467.96 1905.67 1467.18 M1903.95 1459.79 Q1903.95 1462.48 1905.62 1463.98 Q1907.31 1465.49 1910.34 1465.49 Q1913.35 1465.49 1915.04 1463.98 Q1916.76 1462.48 1916.76 1459.79 Q1916.76 1457.11 1915.04 1455.6 Q1913.35 1454.1 1910.34 1454.1 Q1907.31 1454.1 1905.62 1455.6 Q1903.95 1457.11 1903.95 1459.79 Z" fill="#000000" fill-rule="nonzero" fill-opacity="1" /><path clip-path="url(#clip140)" d="M2327.44 1481.64 L2335.08 1481.64 L2335.08 1455.28 L2326.77 1456.95 L2326.77 1452.69 L2335.04 1451.02 L2339.71 1451.02 L2339.71 1481.64 L2347.35 1481.64 L2347.35 1485.58 L2327.44 1485.58 L2327.44 1481.64 Z" fill="#000000" fill-rule="nonzero" fill-opacity="1" /><path clip-path="url(#clip140)" d="M2366.8 1454.1 Q2363.18 1454.1 2361.36 1457.66 Q2359.55 1461.2 2359.55 1468.33 Q2359.55 1475.44 2361.36 1479.01 Q2363.18 1482.55 2366.8 1482.55 Q2370.43 1482.55 2372.23 1479.01 Q2374.06 1475.44 2374.06 1468.33 Q2374.06 1461.2 2372.23 1457.66 Q2370.43 1454.1 2366.8 1454.1 M2366.8 1450.39 Q2372.61 1450.39 2375.66 1455 Q2378.74 1459.58 2378.74 1468.33 Q2378.74 1477.06 2375.66 1481.67 Q2372.61 1486.25 2366.8 1486.25 Q2360.99 1486.25 2357.91 1481.67 Q2354.85 1477.06 2354.85 1468.33 Q2354.85 1459.58 2357.91 1455 Q2360.99 1450.39 2366.8 1450.39 Z" fill="#000000" fill-rule="nonzero" fill-opacity="1" /><path clip-path="url(#clip140)" d="M1245.79 1522.27 L1245.79 1532.4 L1257.85 1532.4 L1257.85 1536.95 L1245.79 1536.95 L1245.79 1556.3 Q1245.79 1560.66 1246.96 1561.9 Q1248.17 1563.14 1251.83 1563.14 L1257.85 1563.14 L1257.85 1568.04 L1251.83 1568.04 Q1245.05 1568.04 1242.48 1565.53 Q1239.9 1562.98 1239.9 1556.3 L1239.9 1536.95 L1235.6 1536.95 L1235.6 1532.4 L1239.9 1532.4 L1239.9 1522.27 L1245.79 1522.27 Z" fill="#000000" fill-rule="nonzero" fill-opacity="1" /><polyline clip-path="url(#clip140)" style="stroke:#000000; stroke-linecap:round; stroke-linejoin:round; stroke-width:4; stroke-opacity:1; fill:none" points="140.696,1423.18 140.696,47.2441 "/>
<polyline clip-path="url(#clip140)" style="stroke:#000000; stroke-linecap:round; stroke-linejoin:round; stroke-width:4; stroke-opacity:1; fill:none" points="140.696,1384.24 159.593,1384.24 "/>
<polyline clip-path="url(#clip140)" style="stroke:#000000; stroke-linecap:round; stroke-linejoin:round; stroke-width:4; stroke-opacity:1; fill:none" points="140.696,1124.63 159.593,1124.63 "/>
<polyline clip-path="url(#clip140)" style="stroke:#000000; stroke-linecap:round; stroke-linejoin:round; stroke-width:4; stroke-opacity:1; fill:none" points="140.696,865.017 159.593,865.017 "/>
<polyline clip-path="url(#clip140)" style="stroke:#000000; stroke-linecap:round; stroke-linejoin:round; stroke-width:4; stroke-opacity:1; fill:none" points="140.696,605.407 159.593,605.407 "/>
<polyline clip-path="url(#clip140)" style="stroke:#000000; stroke-linecap:round; stroke-linejoin:round; stroke-width:4; stroke-opacity:1; fill:none" points="140.696,345.796 159.593,345.796 "/>
<polyline clip-path="url(#clip140)" style="stroke:#000000; stroke-linecap:round; stroke-linejoin:round; stroke-width:4; stroke-opacity:1; fill:none" points="140.696,86.1857 159.593,86.1857 "/>
<path clip-path="url(#clip140)" d="M92.7512 1370.04 Q89.1401 1370.04 87.3114 1373.6 Q85.5058 1377.14 85.5058 1384.27 Q85.5058 1391.38 87.3114 1394.94 Q89.1401 1398.49 92.7512 1398.49 Q96.3854 1398.49 98.1909 1394.94 Q100.02 1391.38 100.02 1384.27 Q100.02 1377.14 98.1909 1373.6 Q96.3854 1370.04 92.7512 1370.04 M92.7512 1366.33 Q98.5613 1366.33 101.617 1370.94 Q104.696 1375.52 104.696 1384.27 Q104.696 1393 101.617 1397.61 Q98.5613 1402.19 92.7512 1402.19 Q86.941 1402.19 83.8623 1397.61 Q80.8068 1393 80.8068 1384.27 Q80.8068 1375.52 83.8623 1370.94 Q86.941 1366.33 92.7512 1366.33 Z" fill="#000000" fill-rule="nonzero" fill-opacity="1" /><path clip-path="url(#clip140)" d="M83.7929 1107.35 L102.149 1107.35 L102.149 1111.28 L88.0753 1111.28 L88.0753 1119.76 Q89.0938 1119.41 90.1123 1119.25 Q91.1308 1119.06 92.1493 1119.06 Q97.9363 1119.06 101.316 1122.23 Q104.696 1125.4 104.696 1130.82 Q104.696 1136.4 101.223 1139.5 Q97.7511 1142.58 91.4317 1142.58 Q89.2558 1142.58 86.9873 1142.21 Q84.7419 1141.84 82.3346 1141.1 L82.3346 1136.4 Q84.4179 1137.53 86.6401 1138.09 Q88.8623 1138.64 91.3391 1138.64 Q95.3437 1138.64 97.6817 1136.54 Q100.02 1134.43 100.02 1130.82 Q100.02 1127.21 97.6817 1125.1 Q95.3437 1123 91.3391 1123 Q89.4641 1123 87.5892 1123.41 Q85.7373 1123.83 83.7929 1124.71 L83.7929 1107.35 Z" fill="#000000" fill-rule="nonzero" fill-opacity="1" /><path clip-path="url(#clip140)" d="M53.3995 878.362 L61.0384 878.362 L61.0384 851.996 L52.7282 853.663 L52.7282 849.404 L60.9921 847.737 L65.668 847.737 L65.668 878.362 L73.3068 878.362 L73.3068 882.297 L53.3995 882.297 L53.3995 878.362 Z" fill="#000000" fill-rule="nonzero" fill-opacity="1" /><path clip-path="url(#clip140)" d="M92.7512 850.816 Q89.1401 850.816 87.3114 854.381 Q85.5058 857.922 85.5058 865.052 Q85.5058 872.158 87.3114 875.723 Q89.1401 879.265 92.7512 879.265 Q96.3854 879.265 98.1909 875.723 Q100.02 872.158 100.02 865.052 Q100.02 857.922 98.1909 854.381 Q96.3854 850.816 92.7512 850.816 M92.7512 847.112 Q98.5613 847.112 101.617 851.719 Q104.696 856.302 104.696 865.052 Q104.696 873.779 101.617 878.385 Q98.5613 882.969 92.7512 882.969 Q86.941 882.969 83.8623 878.385 Q80.8068 873.779 80.8068 865.052 Q80.8068 856.302 83.8623 851.719 Q86.941 847.112 92.7512 847.112 Z" fill="#000000" fill-rule="nonzero" fill-opacity="1" /><path clip-path="url(#clip140)" d="M54.3949 618.752 L62.0337 618.752 L62.0337 592.386 L53.7236 594.053 L53.7236 589.793 L61.9874 588.127 L66.6633 588.127 L66.6633 618.752 L74.3022 618.752 L74.3022 622.687 L54.3949 622.687 L54.3949 618.752 Z" fill="#000000" fill-rule="nonzero" fill-opacity="1" /><path clip-path="url(#clip140)" d="M83.7929 588.127 L102.149 588.127 L102.149 592.062 L88.0753 592.062 L88.0753 600.534 Q89.0938 600.187 90.1123 600.025 Q91.1308 599.84 92.1493 599.84 Q97.9363 599.84 101.316 603.011 Q104.696 606.182 104.696 611.599 Q104.696 617.177 101.223 620.279 Q97.7511 623.358 91.4317 623.358 Q89.2558 623.358 86.9873 622.988 Q84.7419 622.617 82.3346 621.877 L82.3346 617.177 Q84.4179 618.312 86.6401 618.867 Q88.8623 619.423 91.3391 619.423 Q95.3437 619.423 97.6817 617.316 Q100.02 615.21 100.02 611.599 Q100.02 607.988 97.6817 605.881 Q95.3437 603.775 91.3391 603.775 Q89.4641 603.775 87.5892 604.191 Q85.7373 604.608 83.7929 605.488 L83.7929 588.127 Z" fill="#000000" fill-rule="nonzero" fill-opacity="1" /><path clip-path="url(#clip140)" d="M56.6171 359.141 L72.9365 359.141 L72.9365 363.076 L50.9921 363.076 L50.9921 359.141 Q53.6541 356.386 58.2375 351.757 Q62.8439 347.104 64.0245 345.761 Q66.2698 343.238 67.1494 341.502 Q68.0522 339.743 68.0522 338.053 Q68.0522 335.299 66.1078 333.562 Q64.1865 331.826 61.0847 331.826 Q58.8856 331.826 56.4319 332.59 Q54.0014 333.354 51.2236 334.905 L51.2236 330.183 Q54.0477 329.049 56.5014 328.47 Q58.955 327.891 60.9921 327.891 Q66.3624 327.891 69.5568 330.576 Q72.7513 333.262 72.7513 337.752 Q72.7513 339.882 71.9411 341.803 Q71.1541 343.701 69.0476 346.294 Q68.4689 346.965 65.367 350.183 Q62.2652 353.377 56.6171 359.141 Z" fill="#000000" fill-rule="nonzero" fill-opacity="1" /><path clip-path="url(#clip140)" d="M92.7512 331.595 Q89.1401 331.595 87.3114 335.16 Q85.5058 338.701 85.5058 345.831 Q85.5058 352.937 87.3114 356.502 Q89.1401 360.044 92.7512 360.044 Q96.3854 360.044 98.1909 356.502 Q100.02 352.937 100.02 345.831 Q100.02 338.701 98.1909 335.16 Q96.3854 331.595 92.7512 331.595 M92.7512 327.891 Q98.5613 327.891 101.617 332.498 Q104.696 337.081 104.696 345.831 Q104.696 354.558 101.617 359.164 Q98.5613 363.747 92.7512 363.747 Q86.941 363.747 83.8623 359.164 Q80.8068 354.558 80.8068 345.831 Q80.8068 337.081 83.8623 332.498 Q86.941 327.891 92.7512 327.891 Z" fill="#000000" fill-rule="nonzero" fill-opacity="1" /><path clip-path="url(#clip140)" d="M57.6125 99.5305 L73.9318 99.5305 L73.9318 103.466 L51.9875 103.466 L51.9875 99.5305 Q54.6495 96.7759 59.2328 92.1463 Q63.8393 87.4935 65.0198 86.151 Q67.2652 83.6278 68.1448 81.8917 Q69.0476 80.1325 69.0476 78.4427 Q69.0476 75.688 67.1032 73.9519 Q65.1819 72.2158 62.08 72.2158 Q59.881 72.2158 57.4273 72.9797 Q54.9967 73.7436 52.219 75.2945 L52.219 70.5723 Q55.043 69.4381 57.4967 68.8594 Q59.9504 68.2807 61.9874 68.2807 Q67.3578 68.2807 70.5522 70.9658 Q73.7466 73.651 73.7466 78.1417 Q73.7466 80.2714 72.9365 82.1926 Q72.1494 84.0908 70.0429 86.6834 Q69.4642 87.3546 66.3624 90.5722 Q63.2606 93.7667 57.6125 99.5305 Z" fill="#000000" fill-rule="nonzero" fill-opacity="1" /><path clip-path="url(#clip140)" d="M83.7929 68.9057 L102.149 68.9057 L102.149 72.8408 L88.0753 72.8408 L88.0753 81.313 Q89.0938 80.9658 90.1123 80.8038 Q91.1308 80.6186 92.1493 80.6186 Q97.9363 80.6186 101.316 83.7899 Q104.696 86.9611 104.696 92.3778 Q104.696 97.9564 101.223 101.058 Q97.7511 104.137 91.4317 104.137 Q89.2558 104.137 86.9873 103.767 Q84.7419 103.396 82.3346 102.655 L82.3346 97.9564 Q84.4179 99.0907 86.6401 99.6462 Q88.8623 100.202 91.3391 100.202 Q95.3437 100.202 97.6817 98.0953 Q100.02 95.9889 100.02 92.3778 Q100.02 88.7667 97.6817 86.6602 Q95.3437 84.5537 91.3391 84.5537 Q89.4641 84.5537 87.5892 84.9704 Q85.7373 85.3871 83.7929 86.2667 L83.7929 68.9057 Z" fill="#000000" fill-rule="nonzero" fill-opacity="1" /><polyline clip-path="url(#clip141)" style="stroke:#009af9; stroke-linecap:round; stroke-linejoin:round; stroke-width:8; stroke-opacity:1; fill:none" points="140.696,1384.24 142.621,1384.24 144.546,1384.24 146.471,1384.24 148.396,1384.24 150.322,1384.24 152.247,1384.24 154.172,1384.24 156.097,1384.24 158.022,1384.24 159.948,1384.24 161.873,1384.24 163.798,1384.24 165.723,1384.24 167.648,1384.24 169.574,1384.24 171.499,1384.24 173.424,1384.24 175.349,1332.32 177.274,1332.32 179.2,1332.32 181.125,1332.32 183.05,1332.32 184.975,1332.32 186.9,1332.32 188.826,1332.32 190.751,1332.32 192.676,1332.32 194.601,1332.32 196.526,1332.32 198.452,1332.32 200.377,1332.32 202.302,1332.32 204.227,1332.32 206.153,1332.32 208.078,1332.32 210.003,1332.32 211.928,1332.32 213.853,1332.32 215.779,1280.39 217.704,1280.39 219.629,1280.39 221.554,1280.39 223.479,1280.39 225.405,1280.39 227.33,1280.39 229.255,1280.39 231.18,1280.39 233.105,1280.39 235.031,1280.39 236.956,1280.39 238.881,1280.39 240.806,1280.39 242.731,1280.39 244.657,1280.39 246.582,1280.39 248.507,1280.39 250.432,1280.39 252.357,1280.39 254.283,1280.39 256.208,1280.39 258.133,1280.39 260.058,1280.39 261.983,1280.39 263.909,1280.39 265.834,1280.39 267.759,1332.32 269.684,1332.32 271.609,1332.32 273.535,1332.32 275.46,1332.32 277.385,1332.32 279.31,1332.32 281.235,1332.32 283.161,1332.32 285.086,1332.32 287.011,1332.32 288.936,1332.32 290.862,1332.32 292.787,1332.32 294.712,1332.32 296.637,1332.32 298.562,1332.32 300.488,1332.32 302.413,1332.32 304.338,1332.32 306.263,1332.32 308.188,1332.32 310.114,1332.32 312.039,1332.32 313.964,1332.32 315.889,1332.32 317.814,1332.32 319.74,1332.32 321.665,1332.32 323.59,1332.32 325.515,1332.32 327.44,1332.32 329.366,1332.32 331.291,1332.32 333.216,1332.32 335.141,1332.32 337.066,1332.32 338.992,1332.32 340.917,1332.32 342.842,1332.32 344.767,1332.32 346.692,1332.32 348.618,1332.32 350.543,1332.32 352.468,1332.32 354.393,1332.32 356.318,1332.32 358.244,1332.32 360.169,1332.32 362.094,1332.32 364.019,1280.39 365.945,1280.39 367.87,1280.39 369.795,1280.39 371.72,1280.39 373.645,1332.32 375.571,1332.32 377.496,1332.32 379.421,1332.32 381.346,1332.32 383.271,1332.32 385.197,1332.32 387.122,1332.32 389.047,1332.32 390.972,1332.32 392.897,1332.32 394.823,1332.32 396.748,1332.32 398.673,1332.32 400.598,1280.39 402.523,1280.39 404.449,1280.39 406.374,1228.47 408.299,1228.47 410.224,1228.47 412.149,1228.47 414.075,1228.47 416,1228.47 417.925,1228.47 419.85,1228.47 421.775,1228.47 423.701,1228.47 425.626,1228.47 427.551,1228.47 429.476,1228.47 431.401,1228.47 433.327,1176.55 435.252,1176.55 437.177,1176.55 439.102,1176.55 441.027,1176.55 442.953,1176.55 444.878,1176.55 446.803,1176.55 448.728,1176.55 450.654,1176.55 452.579,1176.55 454.504,1228.47 456.429,1228.47 458.354,1228.47 460.28,1228.47 462.205,1228.47 464.13,1228.47 466.055,1228.47 467.98,1228.47 469.906,1228.47 471.831,1228.47 473.756,1228.47 475.681,1228.47 477.606,1228.47 479.532,1228.47 481.457,1228.47 483.382,1228.47 485.307,1228.47 487.232,1228.47 489.158,1228.47 491.083,1228.47 493.008,1228.47 494.933,1228.47 496.858,1228.47 498.784,1228.47 500.709,1228.47 502.634,1228.47 504.559,1228.47 506.484,1228.47 508.41,1228.47 510.335,1176.55 512.26,1124.63 514.185,1124.63 516.11,1124.63 518.036,1124.63 519.961,1124.63 521.886,1124.63 523.811,1124.63 525.737,1124.63 527.662,1124.63 529.587,1124.63 531.512,1124.63 533.437,1124.63 535.363,1124.63 537.288,1124.63 539.213,1176.55 541.138,1176.55 543.063,1176.55 544.989,1176.55 546.914,1176.55 548.839,1176.55 550.764,1176.55 552.689,1176.55 554.615,1176.55 556.54,1176.55 558.465,1176.55 560.39,1176.55 562.315,1176.55 564.241,1176.55 566.166,1176.55 568.091,1176.55 570.016,1176.55 571.941,1176.55 573.867,1176.55 575.792,1228.47 577.717,1228.47 579.642,1228.47 581.567,1228.47 583.493,1228.47 585.418,1228.47 587.343,1228.47 589.268,1228.47 591.193,1228.47 593.119,1228.47 595.044,1228.47 596.969,1228.47 598.894,1228.47 600.819,1228.47 602.745,1228.47 604.67,1228.47 606.595,1228.47 608.52,1228.47 610.446,1228.47 612.371,1228.47 614.296,1228.47 616.221,1228.47 618.146,1228.47 620.072,1228.47 621.997,1228.47 623.922,1228.47 625.847,1228.47 627.772,1280.39 629.698,1280.39 631.623,1280.39 633.548,1280.39 635.473,1280.39 637.398,1280.39 639.324,1280.39 641.249,1280.39 643.174,1280.39 645.099,1280.39 647.024,1280.39 648.95,1280.39 650.875,1228.47 652.8,1228.47 654.725,1228.47 656.65,1228.47 658.576,1228.47 660.501,1228.47 662.426,1228.47 664.351,1228.47 666.276,1228.47 668.202,1228.47 670.127,1228.47 672.052,1280.39 673.977,1280.39 675.902,1280.39 677.828,1280.39 679.753,1280.39 681.678,1280.39 683.603,1280.39 685.529,1280.39 687.454,1280.39 689.379,1280.39 691.304,1280.39 693.229,1280.39 695.155,1280.39 697.08,1280.39 699.005,1280.39 700.93,1280.39 702.855,1280.39 704.781,1280.39 706.706,1280.39 708.631,1280.39 710.556,1280.39 712.481,1280.39 714.407,1280.39 716.332,1280.39 718.257,1280.39 720.182,1280.39 722.107,1280.39 724.033,1280.39 725.958,1280.39 727.883,1280.39 729.808,1280.39 731.733,1280.39 733.659,1280.39 735.584,1280.39 737.509,1332.32 739.434,1332.32 741.359,1332.32 743.285,1332.32 745.21,1332.32 747.135,1332.32 749.06,1332.32 750.985,1332.32 752.911,1332.32 754.836,1332.32 756.761,1332.32 758.686,1384.24 760.612,1384.24 762.537,1384.24 764.462,1384.24 766.387,1384.24 768.312,1384.24 770.238,1384.24 772.163,1384.24 774.088,1384.24 776.013,1384.24 777.938,1384.24 779.864,1384.24 781.789,1384.24 783.714,1384.24 785.639,1384.24 787.564,1384.24 789.49,1384.24 791.415,1384.24 793.34,1384.24 795.265,1384.24 797.19,1384.24 799.116,1384.24 801.041,1384.24 802.966,1384.24 804.891,1384.24 806.816,1384.24 808.742,1384.24 810.667,1384.24 812.592,1384.24 814.517,1384.24 816.442,1384.24 818.368,1384.24 820.293,1384.24 822.218,1384.24 824.143,1384.24 826.068,1384.24 827.994,1384.24 829.919,1384.24 831.844,1384.24 833.769,1384.24 835.694,1384.24 837.62,1384.24 839.545,1384.24 841.47,1384.24 843.395,1384.24 845.321,1384.24 847.246,1384.24 849.171,1384.24 851.096,1384.24 853.021,1384.24 854.947,1384.24 856.872,1384.24 858.797,1384.24 860.722,1384.24 862.647,1384.24 864.573,1384.24 866.498,1384.24 868.423,1384.24 870.348,1384.24 872.273,1384.24 874.199,1384.24 876.124,1384.24 878.049,1384.24 879.974,1384.24 881.899,1384.24 883.825,1384.24 885.75,1384.24 887.675,1384.24 889.6,1384.24 891.525,1384.24 893.451,1384.24 895.376,1384.24 897.301,1384.24 899.226,1384.24 901.151,1384.24 903.077,1384.24 905.002,1384.24 906.927,1384.24 908.852,1384.24 910.777,1384.24 912.703,1384.24 914.628,1384.24 916.553,1384.24 918.478,1384.24 920.404,1384.24 922.329,1384.24 924.254,1384.24 926.179,1384.24 928.104,1384.24 930.03,1384.24 931.955,1384.24 933.88,1384.24 935.805,1384.24 937.73,1384.24 939.656,1384.24 941.581,1384.24 943.506,1384.24 945.431,1384.24 947.356,1384.24 949.282,1384.24 951.207,1384.24 953.132,1384.24 955.057,1384.24 956.982,1384.24 958.908,1384.24 960.833,1384.24 962.758,1384.24 964.683,1384.24 966.608,1384.24 968.534,1384.24 970.459,1384.24 972.384,1384.24 974.309,1384.24 976.234,1384.24 978.16,1384.24 980.085,1384.24 982.01,1384.24 983.935,1384.24 985.86,1384.24 987.786,1384.24 989.711,1384.24 991.636,1384.24 993.561,1384.24 995.486,1384.24 997.412,1384.24 999.337,1384.24 1001.26,1384.24 1003.19,1384.24 1005.11,1384.24 1007.04,1384.24 1008.96,1384.24 1010.89,1384.24 1012.81,1384.24 1014.74,1384.24 1016.66,1384.24 1018.59,1384.24 1020.51,1384.24 1022.44,1332.32 1024.36,1332.32 1026.29,1332.32 1028.21,1332.32 1030.14,1332.32 1032.07,1332.32 1033.99,1384.24 1035.92,1384.24 1037.84,1384.24 1039.77,1384.24 1041.69,1384.24 1043.62,1384.24 1045.54,1384.24 1047.47,1384.24 1049.39,1384.24 1051.32,1384.24 1053.24,1384.24 1055.17,1384.24 1057.09,1384.24 1059.02,1384.24 1060.94,1384.24 1062.87,1384.24 1064.79,1384.24 1066.72,1384.24 1068.64,1384.24 1070.57,1384.24 1072.49,1384.24 1074.42,1384.24 1076.35,1384.24 1078.27,1384.24 1080.2,1384.24 1082.12,1384.24 1084.05,1384.24 1085.97,1384.24 1087.9,1332.32 1089.82,1332.32 1091.75,1332.32 1093.67,1332.32 1095.6,1332.32 1097.52,1332.32 1099.45,1332.32 1101.37,1332.32 1103.3,1332.32 1105.22,1332.32 1107.15,1332.32 1109.07,1332.32 1111,1332.32 1112.92,1332.32 1114.85,1332.32 1116.77,1332.32 1118.7,1332.32 1120.62,1332.32 1122.55,1332.32 1124.48,1332.32 1126.4,1332.32 1128.33,1332.32 1130.25,1332.32 1132.18,1332.32 1134.1,1332.32 1136.03,1332.32 1137.95,1332.32 1139.88,1332.32 1141.8,1332.32 1143.73,1332.32 1145.65,1332.32 1147.58,1332.32 1149.5,1332.32 1151.43,1332.32 1153.35,1332.32 1155.28,1332.32 1157.2,1332.32 1159.13,1332.32 1161.05,1332.32 1162.98,1332.32 1164.9,1332.32 1166.83,1332.32 1168.75,1332.32 1170.68,1332.32 1172.61,1332.32 1174.53,1332.32 1176.46,1332.32 1178.38,1332.32 1180.31,1332.32 1182.23,1332.32 1184.16,1332.32 1186.08,1332.32 1188.01,1332.32 1189.93,1332.32 1191.86,1332.32 1193.78,1332.32 1195.71,1332.32 1197.63,1280.39 1199.56,1280.39 1201.48,1280.39 1203.41,1280.39 1205.33,1280.39 1207.26,1280.39 1209.18,1280.39 1211.11,1280.39 1213.03,1280.39 1214.96,1280.39 1216.89,1280.39 1218.81,1280.39 1220.74,1280.39 1222.66,1280.39 1224.59,1280.39 1226.51,1280.39 1228.44,1280.39 1230.36,1280.39 1232.29,1280.39 1234.21,1332.32 1236.14,1332.32 1238.06,1332.32 1239.99,1332.32 1241.91,1332.32 1243.84,1332.32 1245.76,1332.32 1247.69,1332.32 1249.61,1332.32 1251.54,1280.39 1253.46,1280.39 1255.39,1280.39 1257.31,1280.39 1259.24,1280.39 1261.16,1280.39 1263.09,1280.39 1265.02,1280.39 1266.94,1280.39 1268.87,1280.39 1270.79,1280.39 1272.72,1280.39 1274.64,1280.39 1276.57,1280.39 1278.49,1280.39 1280.42,1280.39 1282.34,1280.39 1284.27,1280.39 1286.19,1280.39 1288.12,1280.39 1290.04,1280.39 1291.97,1280.39 1293.89,1280.39 1295.82,1280.39 1297.74,1280.39 1299.67,1280.39 1301.59,1280.39 1303.52,1228.47 1305.44,1228.47 1307.37,1228.47 1309.29,1228.47 1311.22,1228.47 1313.15,1280.39 1315.07,1332.32 1317,1332.32 1318.92,1332.32 1320.85,1332.32 1322.77,1332.32 1324.7,1332.32 1326.62,1332.32 1328.55,1332.32 1330.47,1332.32 1332.4,1332.32 1334.32,1332.32 1336.25,1332.32 1338.17,1332.32 1340.1,1332.32 1342.02,1332.32 1343.95,1332.32 1345.87,1332.32 1347.8,1332.32 1349.72,1332.32 1351.65,1332.32 1353.57,1332.32 1355.5,1332.32 1357.43,1332.32 1359.35,1332.32 1361.28,1332.32 1363.2,1332.32 1365.13,1332.32 1367.05,1332.32 1368.98,1332.32 1370.9,1332.32 1372.83,1332.32 1374.75,1332.32 1376.68,1332.32 1378.6,1332.32 1380.53,1332.32 1382.45,1384.24 1384.38,1384.24 1386.3,1384.24 1388.23,1384.24 1390.15,1384.24 1392.08,1384.24 1394,1384.24 1395.93,1384.24 1397.85,1384.24 1399.78,1384.24 1401.7,1384.24 1403.63,1384.24 1405.56,1384.24 1407.48,1384.24 1409.41,1384.24 1411.33,1384.24 1413.26,1384.24 1415.18,1384.24 1417.11,1384.24 1419.03,1384.24 1420.96,1384.24 1422.88,1384.24 1424.81,1384.24 1426.73,1384.24 1428.66,1384.24 1430.58,1384.24 1432.51,1384.24 1434.43,1384.24 1436.36,1384.24 1438.28,1384.24 1440.21,1384.24 1442.13,1384.24 1444.06,1384.24 1445.98,1384.24 1447.91,1384.24 1449.83,1384.24 1451.76,1384.24 1453.69,1384.24 1455.61,1384.24 1457.54,1384.24 1459.46,1384.24 1461.39,1384.24 1463.31,1384.24 1465.24,1384.24 1467.16,1384.24 1469.09,1384.24 1471.01,1384.24 1472.94,1384.24 1474.86,1384.24 1476.79,1384.24 1478.71,1384.24 1480.64,1384.24 1482.56,1384.24 1484.49,1384.24 1486.41,1332.32 1488.34,1332.32 1490.26,1332.32 1492.19,1332.32 1494.11,1332.32 1496.04,1332.32 1497.96,1332.32 1499.89,1332.32 1501.82,1280.39 1503.74,1280.39 1505.67,1280.39 1507.59,1280.39 1509.52,1280.39 1511.44,1280.39 1513.37,1280.39 1515.29,1280.39 1517.22,1280.39 1519.14,1280.39 1521.07,1280.39 1522.99,1280.39 1524.92,1280.39 1526.84,1280.39 1528.77,1280.39 1530.69,1332.32 1532.62,1332.32 1534.54,1332.32 1536.47,1332.32 1538.39,1332.32 1540.32,1332.32 1542.24,1332.32 1544.17,1384.24 1546.1,1384.24 1548.02,1384.24 1549.95,1384.24 1551.87,1384.24 1553.8,1384.24 1555.72,1384.24 1557.65,1384.24 1559.57,1384.24 1561.5,1384.24 1563.42,1384.24 1565.35,1384.24 1567.27,1384.24 1569.2,1384.24 1571.12,1384.24 1573.05,1384.24 1574.97,1384.24 1576.9,1384.24 1578.82,1384.24 1580.75,1384.24 1582.67,1384.24 1584.6,1384.24 1586.52,1384.24 1588.45,1384.24 1590.37,1384.24 1592.3,1384.24 1594.23,1384.24 1596.15,1384.24 1598.08,1384.24 1600,1384.24 1601.93,1384.24 1603.85,1384.24 1605.78,1384.24 1607.7,1384.24 1609.63,1384.24 1611.55,1384.24 1613.48,1384.24 1615.4,1384.24 1617.33,1384.24 1619.25,1384.24 1621.18,1384.24 1623.1,1384.24 1625.03,1384.24 1626.95,1384.24 1628.88,1384.24 1630.8,1384.24 1632.73,1384.24 1634.65,1384.24 1636.58,1384.24 1638.5,1384.24 1640.43,1384.24 1642.36,1384.24 1644.28,1384.24 1646.21,1384.24 1648.13,1384.24 1650.06,1384.24 1651.98,1384.24 1653.91,1384.24 1655.83,1384.24 1657.76,1384.24 1659.68,1384.24 1661.61,1384.24 1663.53,1384.24 1665.46,1384.24 1667.38,1384.24 1669.31,1384.24 1671.23,1384.24 1673.16,1384.24 1675.08,1384.24 1677.01,1384.24 1678.93,1384.24 1680.86,1384.24 1682.78,1384.24 1684.71,1384.24 1686.64,1384.24 1688.56,1384.24 1690.49,1384.24 1692.41,1384.24 1694.34,1384.24 1696.26,1384.24 1698.19,1384.24 1700.11,1384.24 1702.04,1384.24 1703.96,1384.24 1705.89,1384.24 1707.81,1384.24 1709.74,1384.24 1711.66,1384.24 1713.59,1384.24 1715.51,1384.24 1717.44,1384.24 1719.36,1384.24 1721.29,1384.24 1723.21,1384.24 1725.14,1384.24 1727.06,1384.24 1728.99,1384.24 1730.91,1384.24 1732.84,1384.24 1734.77,1384.24 1736.69,1384.24 1738.62,1384.24 1740.54,1384.24 1742.47,1384.24 1744.39,1384.24 1746.32,1384.24 1748.24,1384.24 1750.17,1384.24 1752.09,1384.24 1754.02,1384.24 1755.94,1384.24 1757.87,1384.24 1759.79,1384.24 1761.72,1384.24 1763.64,1384.24 1765.57,1384.24 1767.49,1384.24 1769.42,1384.24 1771.34,1384.24 1773.27,1384.24 1775.19,1384.24 1777.12,1384.24 1779.04,1384.24 1780.97,1384.24 1782.9,1384.24 1784.82,1384.24 1786.75,1384.24 1788.67,1384.24 1790.6,1384.24 1792.52,1384.24 1794.45,1384.24 1796.37,1384.24 1798.3,1384.24 1800.22,1384.24 1802.15,1384.24 1804.07,1384.24 1806,1384.24 1807.92,1384.24 1809.85,1384.24 1811.77,1384.24 1813.7,1384.24 1815.62,1384.24 1817.55,1384.24 1819.47,1384.24 1821.4,1384.24 1823.32,1384.24 1825.25,1384.24 1827.17,1384.24 1829.1,1384.24 1831.03,1384.24 1832.95,1384.24 1834.88,1384.24 1836.8,1384.24 1838.73,1384.24 1840.65,1384.24 1842.58,1384.24 1844.5,1384.24 1846.43,1384.24 1848.35,1384.24 1850.28,1384.24 1852.2,1384.24 1854.13,1384.24 1856.05,1384.24 1857.98,1384.24 1859.9,1384.24 1861.83,1384.24 1863.75,1384.24 1865.68,1384.24 1867.6,1384.24 1869.53,1384.24 1871.45,1384.24 1873.38,1384.24 1875.31,1384.24 1877.23,1384.24 1879.16,1384.24 1881.08,1384.24 1883.01,1384.24 1884.93,1384.24 1886.86,1384.24 1888.78,1384.24 1890.71,1384.24 1892.63,1384.24 1894.56,1384.24 1896.48,1384.24 1898.41,1384.24 1900.33,1384.24 1902.26,1384.24 1904.18,1384.24 1906.11,1384.24 1908.03,1384.24 1909.96,1384.24 1911.88,1384.24 1913.81,1384.24 1915.73,1384.24 1917.66,1384.24 1919.58,1384.24 1921.51,1384.24 1923.44,1384.24 1925.36,1384.24 1927.29,1384.24 1929.21,1384.24 1931.14,1384.24 1933.06,1384.24 1934.99,1384.24 1936.91,1384.24 1938.84,1384.24 1940.76,1384.24 1942.69,1384.24 1944.61,1384.24 1946.54,1384.24 1948.46,1384.24 1950.39,1384.24 1952.31,1384.24 1954.24,1384.24 1956.16,1384.24 1958.09,1384.24 1960.01,1384.24 1961.94,1384.24 1963.86,1384.24 1965.79,1384.24 1967.71,1384.24 1969.64,1384.24 1971.57,1384.24 1973.49,1384.24 1975.42,1384.24 1977.34,1384.24 1979.27,1384.24 1981.19,1384.24 1983.12,1384.24 1985.04,1384.24 1986.97,1384.24 1988.89,1384.24 1990.82,1384.24 1992.74,1384.24 1994.67,1384.24 1996.59,1332.32 1998.52,1332.32 2000.44,1332.32 2002.37,1280.39 2004.29,1280.39 2006.22,1280.39 2008.14,1280.39 2010.07,1280.39 2011.99,1280.39 2013.92,1280.39 2015.85,1280.39 2017.77,1280.39 2019.7,1228.47 2021.62,1228.47 2023.55,1228.47 2025.47,1228.47 2027.4,1228.47 2029.32,1228.47 2031.25,1228.47 2033.17,1228.47 2035.1,1228.47 2037.02,1228.47 2038.95,1228.47 2040.87,1228.47 2042.8,1228.47 2044.72,1228.47 2046.65,1228.47 2048.57,1228.47 2050.5,1228.47 2052.42,1228.47 2054.35,1228.47 2056.27,1228.47 2058.2,1228.47 2060.12,1228.47 2062.05,1228.47 2063.98,1228.47 2065.9,1228.47 2067.83,1228.47 2069.75,1176.55 2071.68,1176.55 2073.6,1176.55 2075.53,1176.55 2077.45,1176.55 2079.38,1176.55 2081.3,1228.47 2083.23,1228.47 2085.15,1228.47 2087.08,1228.47 2089,1228.47 2090.93,1228.47 2092.85,1228.47 2094.78,1228.47 2096.7,1228.47 2098.63,1228.47 2100.55,1176.55 2102.48,1176.55 2104.4,1176.55 2106.33,1176.55 2108.25,1176.55 2110.18,1176.55 2112.11,1176.55 2114.03,1176.55 2115.96,1176.55 2117.88,1176.55 2119.81,1176.55 2121.73,1176.55 2123.66,1176.55 2125.58,1124.63 2127.51,1124.63 2129.43,1124.63 2131.36,1124.63 2133.28,1124.63 2135.21,1124.63 2137.13,1124.63 2139.06,1176.55 2140.98,1176.55 2142.91,1176.55 2144.83,1176.55 2146.76,1176.55 2148.68,1176.55 2150.61,1176.55 2152.53,1176.55 2154.46,1176.55 2156.39,1176.55 2158.31,1176.55 2160.24,1280.39 2162.16,1280.39 2164.09,1280.39 2166.01,1280.39 2167.94,1280.39 2169.86,1280.39 2171.79,1280.39 2173.71,1280.39 2175.64,1280.39 2177.56,1280.39 2179.49,1280.39 2181.41,1280.39 2183.34,1280.39 2185.26,1280.39 2187.19,1280.39 2189.11,1280.39 2191.04,1280.39 2192.96,1280.39 2194.89,1280.39 2196.81,1280.39 2198.74,1280.39 2200.66,1280.39 2202.59,1280.39 2204.52,1280.39 2206.44,1280.39 2208.37,1280.39 2210.29,1280.39 2212.22,1280.39 2214.14,1280.39 2216.07,1280.39 2217.99,1280.39 2219.92,1280.39 2221.84,1280.39 2223.77,1280.39 2225.69,1280.39 2227.62,1280.39 2229.54,1280.39 2231.47,1280.39 2233.39,1280.39 2235.32,1280.39 2237.24,1280.39 2239.17,1228.47 2241.09,1228.47 2243.02,1228.47 2244.94,1228.47 2246.87,1228.47 2248.79,1228.47 2250.72,1228.47 2252.65,1176.55 2254.57,1176.55 2256.5,1176.55 2258.42,1176.55 2260.35,1176.55 2262.27,1176.55 2264.2,1176.55 2266.12,1176.55 2268.05,1176.55 2269.97,1176.55 2271.9,1124.63 2273.82,1124.63 2275.75,1072.71 2277.67,1072.71 2279.6,1072.71 2281.52,1072.71 2283.45,1072.71 2285.37,1072.71 2287.3,1072.71 2289.22,1124.63 2291.15,1124.63 2293.07,1124.63 2295,1124.63 2296.92,1124.63 2298.85,1124.63 2300.78,1124.63 2302.7,1124.63 2304.63,1124.63 2306.55,1072.71 2308.48,1072.71 2310.4,1072.71 2312.33,1072.71 2314.25,1072.71 2316.18,1072.71 2318.1,1072.71 2320.03,1072.71 2321.95,1072.71 2323.88,1072.71 2325.8,1072.71 2327.73,1072.71 2329.65,1124.63 2331.58,1124.63 2333.5,1124.63 2335.43,1124.63 2337.35,1124.63 2339.28,1124.63 2341.2,1124.63 2343.13,1124.63 2345.06,1228.47 2346.98,1228.47 2348.91,1228.47 2350.83,1228.47 2352.76,1228.47 "/>
<polyline clip-path="url(#clip141)" style="stroke:#e26f46; stroke-linecap:round; stroke-linejoin:round; stroke-width:8; stroke-opacity:1; fill:none" points="140.696,1384.24 142.621,1384.24 144.546,1384.24 146.471,1384.24 148.396,1384.24 150.322,1384.24 152.247,1384.24 154.172,1384.24 156.097,1384.24 158.022,1384.24 159.948,1384.24 161.873,1384.24 163.798,1384.24 165.723,1384.24 167.648,1384.24 169.574,1384.24 171.499,1384.24 173.424,1384.24 175.349,1384.24 177.274,1384.24 179.2,1384.24 181.125,1384.24 183.05,1384.24 184.975,1384.24 186.9,1384.24 188.826,1384.24 190.751,1384.24 192.676,1384.24 194.601,1384.24 196.526,1384.24 198.452,1384.24 200.377,1384.24 202.302,1384.24 204.227,1384.24 206.153,1384.24 208.078,1384.24 210.003,1384.24 211.928,1384.24 213.853,1384.24 215.779,1384.24 217.704,1384.24 219.629,1384.24 221.554,1384.24 223.479,1384.24 225.405,1384.24 227.33,1384.24 229.255,1384.24 231.18,1384.24 233.105,1384.24 235.031,1384.24 236.956,1384.24 238.881,1384.24 240.806,1384.24 242.731,1384.24 244.657,1384.24 246.582,1384.24 248.507,1384.24 250.432,1384.24 252.357,1384.24 254.283,1384.24 256.208,1384.24 258.133,1384.24 260.058,1384.24 261.983,1384.24 263.909,1384.24 265.834,1384.24 267.759,1332.32 269.684,1332.32 271.609,1332.32 273.535,1332.32 275.46,1332.32 277.385,1332.32 279.31,1332.32 281.235,1332.32 283.161,1332.32 285.086,1332.32 287.011,1332.32 288.936,1332.32 290.862,1332.32 292.787,1332.32 294.712,1332.32 296.637,1332.32 298.562,1332.32 300.488,1332.32 302.413,1332.32 304.338,1332.32 306.263,1332.32 308.188,1332.32 310.114,1332.32 312.039,1332.32 313.964,1332.32 315.889,1332.32 317.814,1332.32 319.74,1332.32 321.665,1332.32 323.59,1332.32 325.515,1332.32 327.44,1332.32 329.366,1332.32 331.291,1332.32 333.216,1332.32 335.141,1332.32 337.066,1332.32 338.992,1332.32 340.917,1332.32 342.842,1332.32 344.767,1332.32 346.692,1332.32 348.618,1332.32 350.543,1332.32 352.468,1332.32 354.393,1332.32 356.318,1332.32 358.244,1332.32 360.169,1332.32 362.094,1332.32 364.019,1332.32 365.945,1332.32 367.87,1332.32 369.795,1332.32 371.72,1332.32 373.645,1280.39 375.571,1280.39 377.496,1280.39 379.421,1280.39 381.346,1280.39 383.271,1280.39 385.197,1280.39 387.122,1280.39 389.047,1280.39 390.972,1280.39 392.897,1280.39 394.823,1280.39 396.748,1280.39 398.673,1280.39 400.598,1280.39 402.523,1280.39 404.449,1280.39 406.374,1280.39 408.299,1280.39 410.224,1280.39 412.149,1280.39 414.075,1280.39 416,1280.39 417.925,1280.39 419.85,1280.39 421.775,1280.39 423.701,1280.39 425.626,1280.39 427.551,1280.39 429.476,1280.39 431.401,1280.39 433.327,1280.39 435.252,1280.39 437.177,1280.39 439.102,1280.39 441.027,1280.39 442.953,1280.39 444.878,1280.39 446.803,1280.39 448.728,1280.39 450.654,1280.39 452.579,1280.39 454.504,1228.47 456.429,1228.47 458.354,1228.47 460.28,1228.47 462.205,1228.47 464.13,1228.47 466.055,1228.47 467.98,1228.47 469.906,1228.47 471.831,1228.47 473.756,1228.47 475.681,1228.47 477.606,1228.47 479.532,1228.47 481.457,1228.47 483.382,1228.47 485.307,1228.47 487.232,1228.47 489.158,1228.47 491.083,1228.47 493.008,1228.47 494.933,1228.47 496.858,1228.47 498.784,1228.47 500.709,1228.47 502.634,1228.47 504.559,1228.47 506.484,1228.47 508.41,1228.47 510.335,1228.47 512.26,1228.47 514.185,1228.47 516.11,1228.47 518.036,1228.47 519.961,1228.47 521.886,1228.47 523.811,1228.47 525.737,1228.47 527.662,1228.47 529.587,1228.47 531.512,1228.47 533.437,1228.47 535.363,1228.47 537.288,1228.47 539.213,1176.55 541.138,1176.55 543.063,1176.55 544.989,1176.55 546.914,1176.55 548.839,1176.55 550.764,1176.55 552.689,1124.63 554.615,1124.63 556.54,1124.63 558.465,1124.63 560.39,1124.63 562.315,1124.63 564.241,1124.63 566.166,1124.63 568.091,1124.63 570.016,1124.63 571.941,1124.63 573.867,1124.63 575.792,1072.71 577.717,1072.71 579.642,1072.71 581.567,1072.71 583.493,1072.71 585.418,1072.71 587.343,1072.71 589.268,1072.71 591.193,1072.71 593.119,1072.71 595.044,1072.71 596.969,1072.71 598.894,1072.71 600.819,1072.71 602.745,1072.71 604.67,1072.71 606.595,1072.71 608.52,1072.71 610.446,1072.71 612.371,1072.71 614.296,1072.71 616.221,1072.71 618.146,1072.71 620.072,1072.71 621.997,1072.71 623.922,1072.71 625.847,1072.71 627.772,1020.78 629.698,1020.78 631.623,1020.78 633.548,1020.78 635.473,1020.78 637.398,1020.78 639.324,1020.78 641.249,1020.78 643.174,1020.78 645.099,1020.78 647.024,1020.78 648.95,1020.78 650.875,1020.78 652.8,1020.78 654.725,1020.78 656.65,1020.78 658.576,1020.78 660.501,1020.78 662.426,1020.78 664.351,1020.78 666.276,1020.78 668.202,1020.78 670.127,1020.78 672.052,968.861 673.977,968.861 675.902,968.861 677.828,968.861 679.753,968.861 681.678,968.861 683.603,968.861 685.529,968.861 687.454,968.861 689.379,968.861 691.304,968.861 693.229,968.861 695.155,968.861 697.08,968.861 699.005,968.861 700.93,968.861 702.855,968.861 704.781,968.861 706.706,968.861 708.631,968.861 710.556,968.861 712.481,968.861 714.407,968.861 716.332,968.861 718.257,968.861 720.182,968.861 722.107,968.861 724.033,968.861 725.958,968.861 727.883,968.861 729.808,968.861 731.733,968.861 733.659,968.861 735.584,968.861 737.509,916.939 739.434,916.939 741.359,916.939 743.285,916.939 745.21,916.939 747.135,916.939 749.06,916.939 750.985,916.939 752.911,916.939 754.836,916.939 756.761,916.939 758.686,865.017 760.612,865.017 762.537,865.017 764.462,865.017 766.387,865.017 768.312,865.017 770.238,865.017 772.163,865.017 774.088,865.017 776.013,865.017 777.938,865.017 779.864,865.017 781.789,865.017 783.714,865.017 785.639,865.017 787.564,865.017 789.49,865.017 791.415,865.017 793.34,865.017 795.265,865.017 797.19,865.017 799.116,865.017 801.041,865.017 802.966,865.017 804.891,865.017 806.816,865.017 808.742,865.017 810.667,865.017 812.592,865.017 814.517,865.017 816.442,865.017 818.368,865.017 820.293,865.017 822.218,865.017 824.143,865.017 826.068,865.017 827.994,865.017 829.919,865.017 831.844,865.017 833.769,865.017 835.694,865.017 837.62,865.017 839.545,865.017 841.47,865.017 843.395,865.017 845.321,865.017 847.246,865.017 849.171,865.017 851.096,865.017 853.021,865.017 854.947,865.017 856.872,865.017 858.797,865.017 860.722,865.017 862.647,865.017 864.573,865.017 866.498,865.017 868.423,865.017 870.348,865.017 872.273,865.017 874.199,865.017 876.124,865.017 878.049,865.017 879.974,865.017 881.899,865.017 883.825,865.017 885.75,865.017 887.675,865.017 889.6,865.017 891.525,865.017 893.451,865.017 895.376,865.017 897.301,865.017 899.226,865.017 901.151,865.017 903.077,865.017 905.002,865.017 906.927,865.017 908.852,865.017 910.777,865.017 912.703,865.017 914.628,865.017 916.553,865.017 918.478,865.017 920.404,865.017 922.329,865.017 924.254,865.017 926.179,865.017 928.104,865.017 930.03,865.017 931.955,865.017 933.88,865.017 935.805,865.017 937.73,865.017 939.656,865.017 941.581,865.017 943.506,865.017 945.431,865.017 947.356,865.017 949.282,865.017 951.207,865.017 953.132,865.017 955.057,865.017 956.982,865.017 958.908,865.017 960.833,865.017 962.758,865.017 964.683,865.017 966.608,865.017 968.534,865.017 970.459,865.017 972.384,865.017 974.309,865.017 976.234,865.017 978.16,865.017 980.085,865.017 982.01,865.017 983.935,865.017 985.86,865.017 987.786,865.017 989.711,865.017 991.636,865.017 993.561,865.017 995.486,865.017 997.412,865.017 999.337,865.017 1001.26,865.017 1003.19,865.017 1005.11,865.017 1007.04,865.017 1008.96,865.017 1010.89,865.017 1012.81,865.017 1014.74,865.017 1016.66,865.017 1018.59,865.017 1020.51,865.017 1022.44,865.017 1024.36,865.017 1026.29,865.017 1028.21,865.017 1030.14,865.017 1032.07,865.017 1033.99,813.095 1035.92,813.095 1037.84,813.095 1039.77,813.095 1041.69,813.095 1043.62,813.095 1045.54,813.095 1047.47,813.095 1049.39,813.095 1051.32,813.095 1053.24,813.095 1055.17,813.095 1057.09,813.095 1059.02,813.095 1060.94,813.095 1062.87,813.095 1064.79,813.095 1066.72,813.095 1068.64,813.095 1070.57,813.095 1072.49,813.095 1074.42,813.095 1076.35,813.095 1078.27,813.095 1080.2,813.095 1082.12,813.095 1084.05,813.095 1085.97,813.095 1087.9,813.095 1089.82,813.095 1091.75,813.095 1093.67,813.095 1095.6,813.095 1097.52,813.095 1099.45,813.095 1101.37,813.095 1103.3,813.095 1105.22,813.095 1107.15,813.095 1109.07,813.095 1111,813.095 1112.92,813.095 1114.85,813.095 1116.77,813.095 1118.7,813.095 1120.62,813.095 1122.55,813.095 1124.48,813.095 1126.4,813.095 1128.33,813.095 1130.25,813.095 1132.18,813.095 1134.1,813.095 1136.03,813.095 1137.95,813.095 1139.88,813.095 1141.8,813.095 1143.73,813.095 1145.65,813.095 1147.58,813.095 1149.5,813.095 1151.43,813.095 1153.35,813.095 1155.28,813.095 1157.2,813.095 1159.13,813.095 1161.05,813.095 1162.98,813.095 1164.9,813.095 1166.83,813.095 1168.75,813.095 1170.68,813.095 1172.61,813.095 1174.53,813.095 1176.46,813.095 1178.38,813.095 1180.31,813.095 1182.23,813.095 1184.16,813.095 1186.08,813.095 1188.01,813.095 1189.93,813.095 1191.86,813.095 1193.78,813.095 1195.71,813.095 1197.63,813.095 1199.56,813.095 1201.48,813.095 1203.41,813.095 1205.33,813.095 1207.26,813.095 1209.18,813.095 1211.11,813.095 1213.03,813.095 1214.96,813.095 1216.89,813.095 1218.81,813.095 1220.74,813.095 1222.66,813.095 1224.59,813.095 1226.51,813.095 1228.44,813.095 1230.36,813.095 1232.29,813.095 1234.21,761.173 1236.14,761.173 1238.06,761.173 1239.99,761.173 1241.91,761.173 1243.84,761.173 1245.76,761.173 1247.69,761.173 1249.61,761.173 1251.54,761.173 1253.46,761.173 1255.39,761.173 1257.31,761.173 1259.24,761.173 1261.16,761.173 1263.09,761.173 1265.02,761.173 1266.94,761.173 1268.87,761.173 1270.79,761.173 1272.72,761.173 1274.64,761.173 1276.57,761.173 1278.49,761.173 1280.42,761.173 1282.34,761.173 1284.27,761.173 1286.19,761.173 1288.12,761.173 1290.04,761.173 1291.97,761.173 1293.89,761.173 1295.82,761.173 1297.74,761.173 1299.67,761.173 1301.59,761.173 1303.52,761.173 1305.44,761.173 1307.37,761.173 1309.29,761.173 1311.22,761.173 1313.15,709.251 1315.07,657.329 1317,657.329 1318.92,657.329 1320.85,657.329 1322.77,657.329 1324.7,657.329 1326.62,657.329 1328.55,657.329 1330.47,657.329 1332.4,657.329 1334.32,657.329 1336.25,657.329 1338.17,657.329 1340.1,657.329 1342.02,657.329 1343.95,657.329 1345.87,657.329 1347.8,657.329 1349.72,657.329 1351.65,657.329 1353.57,657.329 1355.5,657.329 1357.43,657.329 1359.35,657.329 1361.28,657.329 1363.2,657.329 1365.13,657.329 1367.05,657.329 1368.98,657.329 1370.9,657.329 1372.83,657.329 1374.75,657.329 1376.68,657.329 1378.6,657.329 1380.53,657.329 1382.45,605.407 1384.38,605.407 1386.3,605.407 1388.23,605.407 1390.15,605.407 1392.08,605.407 1394,605.407 1395.93,605.407 1397.85,605.407 1399.78,605.407 1401.7,605.407 1403.63,605.407 1405.56,605.407 1407.48,605.407 1409.41,605.407 1411.33,605.407 1413.26,605.407 1415.18,605.407 1417.11,605.407 1419.03,605.407 1420.96,605.407 1422.88,605.407 1424.81,605.407 1426.73,605.407 1428.66,605.407 1430.58,605.407 1432.51,605.407 1434.43,605.407 1436.36,605.407 1438.28,605.407 1440.21,605.407 1442.13,605.407 1444.06,605.407 1445.98,605.407 1447.91,605.407 1449.83,605.407 1451.76,605.407 1453.69,605.407 1455.61,605.407 1457.54,605.407 1459.46,605.407 1461.39,605.407 1463.31,605.407 1465.24,605.407 1467.16,605.407 1469.09,605.407 1471.01,605.407 1472.94,605.407 1474.86,605.407 1476.79,605.407 1478.71,605.407 1480.64,605.407 1482.56,605.407 1484.49,605.407 1486.41,605.407 1488.34,605.407 1490.26,605.407 1492.19,605.407 1494.11,605.407 1496.04,605.407 1497.96,605.407 1499.89,605.407 1501.82,605.407 1503.74,605.407 1505.67,605.407 1507.59,605.407 1509.52,605.407 1511.44,605.407 1513.37,605.407 1515.29,605.407 1517.22,605.407 1519.14,605.407 1521.07,605.407 1522.99,605.407 1524.92,605.407 1526.84,605.407 1528.77,605.407 1530.69,553.485 1532.62,553.485 1534.54,553.485 1536.47,553.485 1538.39,553.485 1540.32,553.485 1542.24,553.485 1544.17,501.563 1546.1,501.563 1548.02,501.563 1549.95,501.563 1551.87,501.563 1553.8,501.563 1555.72,501.563 1557.65,501.563 1559.57,501.563 1561.5,501.563 1563.42,501.563 1565.35,501.563 1567.27,501.563 1569.2,501.563 1571.12,501.563 1573.05,501.563 1574.97,501.563 1576.9,501.563 1578.82,501.563 1580.75,501.563 1582.67,501.563 1584.6,501.563 1586.52,501.563 1588.45,501.563 1590.37,501.563 1592.3,501.563 1594.23,501.563 1596.15,501.563 1598.08,501.563 1600,501.563 1601.93,501.563 1603.85,501.563 1605.78,501.563 1607.7,501.563 1609.63,501.563 1611.55,501.563 1613.48,501.563 1615.4,501.563 1617.33,501.563 1619.25,501.563 1621.18,501.563 1623.1,501.563 1625.03,501.563 1626.95,501.563 1628.88,501.563 1630.8,501.563 1632.73,501.563 1634.65,501.563 1636.58,501.563 1638.5,501.563 1640.43,501.563 1642.36,501.563 1644.28,501.563 1646.21,501.563 1648.13,501.563 1650.06,501.563 1651.98,501.563 1653.91,501.563 1655.83,501.563 1657.76,501.563 1659.68,501.563 1661.61,501.563 1663.53,501.563 1665.46,501.563 1667.38,501.563 1669.31,501.563 1671.23,501.563 1673.16,501.563 1675.08,501.563 1677.01,501.563 1678.93,501.563 1680.86,501.563 1682.78,501.563 1684.71,501.563 1686.64,501.563 1688.56,501.563 1690.49,501.563 1692.41,501.563 1694.34,501.563 1696.26,501.563 1698.19,501.563 1700.11,501.563 1702.04,501.563 1703.96,501.563 1705.89,501.563 1707.81,501.563 1709.74,501.563 1711.66,501.563 1713.59,501.563 1715.51,501.563 1717.44,501.563 1719.36,501.563 1721.29,501.563 1723.21,501.563 1725.14,501.563 1727.06,501.563 1728.99,501.563 1730.91,501.563 1732.84,501.563 1734.77,501.563 1736.69,501.563 1738.62,501.563 1740.54,501.563 1742.47,501.563 1744.39,501.563 1746.32,501.563 1748.24,501.563 1750.17,501.563 1752.09,501.563 1754.02,501.563 1755.94,501.563 1757.87,501.563 1759.79,501.563 1761.72,501.563 1763.64,501.563 1765.57,501.563 1767.49,501.563 1769.42,501.563 1771.34,501.563 1773.27,501.563 1775.19,501.563 1777.12,501.563 1779.04,501.563 1780.97,501.563 1782.9,501.563 1784.82,501.563 1786.75,501.563 1788.67,501.563 1790.6,501.563 1792.52,501.563 1794.45,501.563 1796.37,501.563 1798.3,501.563 1800.22,501.563 1802.15,501.563 1804.07,501.563 1806,501.563 1807.92,501.563 1809.85,501.563 1811.77,501.563 1813.7,501.563 1815.62,501.563 1817.55,501.563 1819.47,501.563 1821.4,501.563 1823.32,501.563 1825.25,501.563 1827.17,501.563 1829.1,501.563 1831.03,501.563 1832.95,501.563 1834.88,501.563 1836.8,501.563 1838.73,501.563 1840.65,501.563 1842.58,501.563 1844.5,501.563 1846.43,501.563 1848.35,501.563 1850.28,501.563 1852.2,501.563 1854.13,501.563 1856.05,501.563 1857.98,501.563 1859.9,501.563 1861.83,501.563 1863.75,501.563 1865.68,501.563 1867.6,501.563 1869.53,501.563 1871.45,501.563 1873.38,501.563 1875.31,501.563 1877.23,501.563 1879.16,501.563 1881.08,501.563 1883.01,501.563 1884.93,501.563 1886.86,501.563 1888.78,501.563 1890.71,501.563 1892.63,501.563 1894.56,501.563 1896.48,501.563 1898.41,501.563 1900.33,501.563 1902.26,501.563 1904.18,501.563 1906.11,501.563 1908.03,501.563 1909.96,501.563 1911.88,501.563 1913.81,501.563 1915.73,501.563 1917.66,501.563 1919.58,501.563 1921.51,501.563 1923.44,501.563 1925.36,501.563 1927.29,501.563 1929.21,501.563 1931.14,501.563 1933.06,501.563 1934.99,501.563 1936.91,501.563 1938.84,501.563 1940.76,501.563 1942.69,501.563 1944.61,501.563 1946.54,501.563 1948.46,501.563 1950.39,501.563 1952.31,501.563 1954.24,501.563 1956.16,501.563 1958.09,501.563 1960.01,501.563 1961.94,501.563 1963.86,501.563 1965.79,501.563 1967.71,501.563 1969.64,501.563 1971.57,501.563 1973.49,501.563 1975.42,501.563 1977.34,501.563 1979.27,501.563 1981.19,501.563 1983.12,501.563 1985.04,501.563 1986.97,501.563 1988.89,501.563 1990.82,501.563 1992.74,501.563 1994.67,501.563 1996.59,501.563 1998.52,501.563 2000.44,501.563 2002.37,501.563 2004.29,501.563 2006.22,501.563 2008.14,501.563 2010.07,501.563 2011.99,501.563 2013.92,501.563 2015.85,501.563 2017.77,501.563 2019.7,501.563 2021.62,501.563 2023.55,501.563 2025.47,501.563 2027.4,501.563 2029.32,501.563 2031.25,501.563 2033.17,501.563 2035.1,501.563 2037.02,501.563 2038.95,501.563 2040.87,501.563 2042.8,501.563 2044.72,501.563 2046.65,501.563 2048.57,501.563 2050.5,501.563 2052.42,501.563 2054.35,501.563 2056.27,501.563 2058.2,501.563 2060.12,501.563 2062.05,501.563 2063.98,501.563 2065.9,501.563 2067.83,501.563 2069.75,501.563 2071.68,501.563 2073.6,501.563 2075.53,501.563 2077.45,501.563 2079.38,501.563 2081.3,449.64 2083.23,449.64 2085.15,449.64 2087.08,449.64 2089,449.64 2090.93,449.64 2092.85,449.64 2094.78,449.64 2096.7,449.64 2098.63,449.64 2100.55,449.64 2102.48,449.64 2104.4,449.64 2106.33,449.64 2108.25,449.64 2110.18,449.64 2112.11,449.64 2114.03,449.64 2115.96,449.64 2117.88,449.64 2119.81,449.64 2121.73,449.64 2123.66,449.64 2125.58,449.64 2127.51,449.64 2129.43,449.64 2131.36,449.64 2133.28,449.64 2135.21,449.64 2137.13,449.64 2139.06,397.718 2140.98,397.718 2142.91,397.718 2144.83,397.718 2146.76,397.718 2148.68,397.718 2150.61,397.718 2152.53,397.718 2154.46,397.718 2156.39,397.718 2158.31,397.718 2160.24,293.874 2162.16,293.874 2164.09,293.874 2166.01,293.874 2167.94,293.874 2169.86,293.874 2171.79,293.874 2173.71,293.874 2175.64,293.874 2177.56,293.874 2179.49,293.874 2181.41,293.874 2183.34,293.874 2185.26,293.874 2187.19,293.874 2189.11,293.874 2191.04,293.874 2192.96,293.874 2194.89,293.874 2196.81,293.874 2198.74,293.874 2200.66,293.874 2202.59,293.874 2204.52,293.874 2206.44,293.874 2208.37,293.874 2210.29,293.874 2212.22,293.874 2214.14,293.874 2216.07,293.874 2217.99,293.874 2219.92,293.874 2221.84,293.874 2223.77,293.874 2225.69,293.874 2227.62,293.874 2229.54,293.874 2231.47,293.874 2233.39,293.874 2235.32,293.874 2237.24,293.874 2239.17,293.874 2241.09,293.874 2243.02,293.874 2244.94,293.874 2246.87,293.874 2248.79,293.874 2250.72,293.874 2252.65,293.874 2254.57,293.874 2256.5,293.874 2258.42,293.874 2260.35,293.874 2262.27,293.874 2264.2,293.874 2266.12,293.874 2268.05,293.874 2269.97,293.874 2271.9,293.874 2273.82,293.874 2275.75,293.874 2277.67,293.874 2279.6,293.874 2281.52,293.874 2283.45,293.874 2285.37,293.874 2287.3,293.874 2289.22,241.952 2291.15,241.952 2293.07,241.952 2295,241.952 2296.92,241.952 2298.85,241.952 2300.78,241.952 2302.7,241.952 2304.63,241.952 2306.55,241.952 2308.48,241.952 2310.4,241.952 2312.33,241.952 2314.25,241.952 2316.18,241.952 2318.1,241.952 2320.03,241.952 2321.95,241.952 2323.88,241.952 2325.8,241.952 2327.73,241.952 2329.65,190.03 2331.58,190.03 2333.5,190.03 2335.43,190.03 2337.35,190.03 2339.28,190.03 2341.2,190.03 2343.13,190.03 2345.06,86.1857 2346.98,86.1857 2348.91,86.1857 2350.83,86.1857 2352.76,86.1857 "/>
<path clip-path="url(#clip140)" d="M214.431 248.629 L518.993 248.629 L518.993 93.1086 L214.431 93.1086  Z" fill="#ffffff" fill-rule="evenodd" fill-opacity="1"/>
<polyline clip-path="url(#clip140)" style="stroke:#000000; stroke-linecap:round; stroke-linejoin:round; stroke-width:4; stroke-opacity:1; fill:none" points="214.431,248.629 518.993,248.629 518.993,93.1086 214.431,93.1086 214.431,248.629 "/>
<polyline clip-path="url(#clip140)" style="stroke:#009af9; stroke-linecap:round; stroke-linejoin:round; stroke-width:8; stroke-opacity:1; fill:none" points="239.009,144.949 386.48,144.949 "/>
<path clip-path="url(#clip140)" d="M411.058 127.669 L417.355 127.669 L432.679 156.581 L432.679 127.669 L437.216 127.669 L437.216 162.229 L430.919 162.229 L415.595 133.317 L415.595 162.229 L411.058 162.229 L411.058 127.669 Z" fill="#000000" fill-rule="nonzero" fill-opacity="1" /><path clip-path="url(#clip140)" d="M456.567 126.257 Q453.466 131.581 451.961 136.789 Q450.456 141.997 450.456 147.344 Q450.456 152.692 451.961 157.946 Q453.489 163.178 456.567 168.479 L452.864 168.479 Q449.392 163.039 447.656 157.784 Q445.943 152.53 445.943 147.344 Q445.943 142.182 447.656 136.951 Q449.368 131.72 452.864 126.257 L456.567 126.257 Z" fill="#000000" fill-rule="nonzero" fill-opacity="1" /><path clip-path="url(#clip140)" d="M469.044 128.942 L469.044 136.303 L477.817 136.303 L477.817 139.613 L469.044 139.613 L469.044 153.687 Q469.044 156.858 469.901 157.761 Q470.78 158.664 473.442 158.664 L477.817 158.664 L477.817 162.229 L473.442 162.229 Q468.512 162.229 466.637 160.4 Q464.762 158.548 464.762 153.687 L464.762 139.613 L461.637 139.613 L461.637 136.303 L464.762 136.303 L464.762 128.942 L469.044 128.942 Z" fill="#000000" fill-rule="nonzero" fill-opacity="1" /><path clip-path="url(#clip140)" d="M482.748 126.257 L486.452 126.257 Q489.924 131.72 491.637 136.951 Q493.373 142.182 493.373 147.344 Q493.373 152.53 491.637 157.784 Q489.924 163.039 486.452 168.479 L482.748 168.479 Q485.827 163.178 487.331 157.946 Q488.859 152.692 488.859 147.344 Q488.859 141.997 487.331 136.789 Q485.827 131.581 482.748 126.257 Z" fill="#000000" fill-rule="nonzero" fill-opacity="1" /><polyline clip-path="url(#clip140)" style="stroke:#e26f46; stroke-linecap:round; stroke-linejoin:round; stroke-width:8; stroke-opacity:1; fill:none" points="239.009,196.789 386.48,196.789 "/>
<path clip-path="url(#clip140)" d="M415.734 183.351 L415.734 210.226 L421.382 210.226 Q428.535 210.226 431.845 206.985 Q435.179 203.745 435.179 196.754 Q435.179 189.809 431.845 186.592 Q428.535 183.351 421.382 183.351 L415.734 183.351 M411.058 179.509 L420.665 179.509 Q430.711 179.509 435.41 183.698 Q440.109 187.865 440.109 196.754 Q440.109 205.689 435.387 209.879 Q430.665 214.069 420.665 214.069 L411.058 214.069 L411.058 179.509 Z" fill="#000000" fill-rule="nonzero" fill-opacity="1" /><path clip-path="url(#clip140)" d="M457.609 178.097 Q454.507 183.421 453.003 188.629 Q451.498 193.837 451.498 199.184 Q451.498 204.532 453.003 209.786 Q454.53 215.018 457.609 220.319 L453.905 220.319 Q450.433 214.879 448.697 209.624 Q446.984 204.37 446.984 199.184 Q446.984 194.022 448.697 188.791 Q450.41 183.56 453.905 178.097 L457.609 178.097 Z" fill="#000000" fill-rule="nonzero" fill-opacity="1" /><path clip-path="url(#clip140)" d="M470.086 180.782 L470.086 188.143 L478.859 188.143 L478.859 191.453 L470.086 191.453 L470.086 205.527 Q470.086 208.698 470.942 209.601 Q471.822 210.504 474.484 210.504 L478.859 210.504 L478.859 214.069 L474.484 214.069 Q469.554 214.069 467.679 212.24 Q465.804 210.388 465.804 205.527 L465.804 191.453 L462.679 191.453 L462.679 188.143 L465.804 188.143 L465.804 180.782 L470.086 180.782 Z" fill="#000000" fill-rule="nonzero" fill-opacity="1" /><path clip-path="url(#clip140)" d="M483.79 178.097 L487.493 178.097 Q490.965 183.56 492.678 188.791 Q494.415 194.022 494.415 199.184 Q494.415 204.37 492.678 209.624 Q490.965 214.879 487.493 220.319 L483.79 220.319 Q486.868 215.018 488.373 209.786 Q489.901 204.532 489.901 199.184 Q489.901 193.837 488.373 188.629 Q486.868 183.421 483.79 178.097 Z" fill="#000000" fill-rule="nonzero" fill-opacity="1" /></svg>
