<?xml version="1.0" encoding="utf-8"?>
<svg xmlns="http://www.w3.org/2000/svg" xmlns:xlink="http://www.w3.org/1999/xlink" width="600" height="400" viewBox="0 0 2400 1600">
<defs>
  <clipPath id="clip050">
    <rect x="0" y="0" width="2400" height="1600"/>
  </clipPath>
</defs>
<path clip-path="url(#clip050)" d="M0 1600 L2400 1600 L2400 0 L0 0  Z" fill="#ffffff" fill-rule="evenodd" fill-opacity="1"/>
<defs>
  <clipPath id="clip051">
    <rect x="140" y="47" width="2213" height="1377"/>
  </clipPath>
</defs>
<path clip-path="url(#clip050)" d="M140.696 1423.18 L2352.76 1423.18 L2352.76 47.2441 L140.696 47.2441  Z" fill="#ffffff" fill-rule="evenodd" fill-opacity="1"/>
<polyline clip-path="url(#clip051)" style="stroke:#000000; stroke-linecap:round; stroke-linejoin:round; stroke-width:2; stroke-opacity:0.1; fill:none" points="140.696,1423.18 140.696,47.2441 "/>
<polyline clip-path="url(#clip051)" style="stroke:#000000; stroke-linecap:round; stroke-linejoin:round; stroke-width:2; stroke-opacity:0.1; fill:none" points="583.108,1423.18 583.108,47.2441 "/>
<polyline clip-path="url(#clip051)" style="stroke:#000000; stroke-linecap:round; stroke-linejoin:round; stroke-width:2; stroke-opacity:0.1; fill:none" points="1025.52,1423.18 1025.52,47.2441 "/>
<polyline clip-path="url(#clip051)" style="stroke:#000000; stroke-linecap:round; stroke-linejoin:round; stroke-width:2; stroke-opacity:0.1; fill:none" points="1467.93,1423.18 1467.93,47.2441 "/>
<polyline clip-path="url(#clip051)" style="stroke:#000000; stroke-linecap:round; stroke-linejoin:round; stroke-width:2; stroke-opacity:0.1; fill:none" points="1910.34,1423.18 1910.34,47.2441 "/>
<polyline clip-path="url(#clip051)" style="stroke:#000000; stroke-linecap:round; stroke-linejoin:round; stroke-width:2; stroke-opacity:0.1; fill:none" points="2352.76,1423.18 2352.76,47.2441 "/>
<polyline clip-path="url(#clip051)" style="stroke:#000000; stroke-linecap:round; stroke-linejoin:round; stroke-width:2; stroke-opacity:0.1; fill:none" points="140.696,1384.24 2352.76,1384.24 "/>
<polyline clip-path="url(#clip051)" style="stroke:#000000; stroke-linecap:round; stroke-linejoin:round; stroke-width:2; stroke-opacity:0.1; fill:none" points="140.696,1124.63 2352.76,1124.63 "/>
<polyline clip-path="url(#clip051)" style="stroke:#000000; stroke-linecap:round; stroke-linejoin:round; stroke-width:2; stroke-opacity:0.1; fill:none" points="140.696,865.017 2352.76,865.017 "/>
<polyline clip-path="url(#clip051)" style="stroke:#000000; stroke-linecap:round; stroke-linejoin:round; stroke-width:2; stroke-opacity:0.1; fill:none" points="140.696,605.407 2352.76,605.407 "/>
<polyline clip-path="url(#clip051)" style="stroke:#000000; stroke-linecap:round; stroke-linejoin:round; stroke-width:2; stroke-opacity:0.1; fill:none" points="140.696,345.796 2352.76,345.796 "/>
<polyline clip-path="url(#clip051)" style="stroke:#000000; stroke-linecap:round; stroke-linejoin:round; stroke-width:2; stroke-opacity:0.1; fill:none" points="140.696,86.1857 2352.76,86.1857 "/>
<polyline clip-path="url(#clip050)" style="stroke:#000000; stroke-linecap:round; stroke-linejoin:round; stroke-width:4; stroke-opacity:1; fill:none" points="140.696,1423.18 2352.76,1423.18 "/>
<polyline clip-path="url(#clip050)" style="stroke:#000000; stroke-linecap:round; stroke-linejoin:round; stroke-width:4; stroke-opacity:1; fill:none" points="140.696,1423.18 140.696,1404.28 "/>
<polyline clip-path="url(#clip050)" style="stroke:#000000; stroke-linecap:round; stroke-linejoin:round; stroke-width:4; stroke-opacity:1; fill:none" points="583.108,1423.18 583.108,1404.28 "/>
<polyline clip-path="url(#clip050)" style="stroke:#000000; stroke-linecap:round; stroke-linejoin:round; stroke-width:4; stroke-opacity:1; fill:none" points="1025.52,1423.18 1025.52,1404.28 "/>
<polyline clip-path="url(#clip050)" style="stroke:#000000; stroke-linecap:round; stroke-linejoin:round; stroke-width:4; stroke-opacity:1; fill:none" points="1467.93,1423.18 1467.93,1404.28 "/>
<polyline clip-path="url(#clip050)" style="stroke:#000000; stroke-linecap:round; stroke-linejoin:round; stroke-width:4; stroke-opacity:1; fill:none" points="1910.34,1423.18 1910.34,1404.28 "/>
<polyline clip-path="url(#clip050)" style="stroke:#000000; stroke-linecap:round; stroke-linejoin:round; stroke-width:4; stroke-opacity:1; fill:none" points="2352.76,1423.18 2352.76,1404.28 "/>
<path clip-path="url(#clip050)" d="M140.696 1454.1 Q137.084 1454.1 135.256 1457.66 Q133.45 1461.2 133.45 1468.33 Q133.45 1475.44 135.256 1479.01 Q137.084 1482.55 140.696 1482.55 Q144.33 1482.55 146.135 1479.01 Q147.964 1475.44 147.964 1468.33 Q147.964 1461.2 146.135 1457.66 Q144.33 1454.1 140.696 1454.1 M140.696 1450.39 Q146.506 1450.39 149.561 1455 Q152.64 1459.58 152.64 1468.33 Q152.64 1477.06 149.561 1481.67 Q146.506 1486.25 140.696 1486.25 Q134.885 1486.25 131.807 1481.67 Q128.751 1477.06 128.751 1468.33 Q128.751 1459.58 131.807 1455 Q134.885 1450.39 140.696 1450.39 Z" fill="#000000" fill-rule="nonzero" fill-opacity="1" /><path clip-path="url(#clip050)" d="M577.76 1481.64 L594.08 1481.64 L594.08 1485.58 L572.135 1485.58 L572.135 1481.64 Q574.797 1478.89 579.381 1474.26 Q583.987 1469.61 585.168 1468.27 Q587.413 1465.74 588.293 1464.01 Q589.196 1462.25 589.196 1460.56 Q589.196 1457.8 587.251 1456.07 Q585.33 1454.33 582.228 1454.33 Q580.029 1454.33 577.575 1455.09 Q575.145 1455.86 572.367 1457.41 L572.367 1452.69 Q575.191 1451.55 577.645 1450.97 Q580.098 1450.39 582.135 1450.39 Q587.506 1450.39 590.7 1453.08 Q593.895 1455.77 593.895 1460.26 Q593.895 1462.39 593.084 1464.31 Q592.297 1466.2 590.191 1468.8 Q589.612 1469.47 586.51 1472.69 Q583.409 1475.88 577.76 1481.64 Z" fill="#000000" fill-rule="nonzero" fill-opacity="1" /><path clip-path="url(#clip050)" d="M1028.53 1455.09 L1016.72 1473.54 L1028.53 1473.54 L1028.53 1455.09 M1027.3 1451.02 L1033.18 1451.02 L1033.18 1473.54 L1038.11 1473.54 L1038.11 1477.43 L1033.18 1477.43 L1033.18 1485.58 L1028.53 1485.58 L1028.53 1477.43 L1012.93 1477.43 L1012.93 1472.92 L1027.3 1451.02 Z" fill="#000000" fill-rule="nonzero" fill-opacity="1" /><path clip-path="url(#clip050)" d="M1468.34 1466.44 Q1465.19 1466.44 1463.34 1468.59 Q1461.51 1470.74 1461.51 1474.49 Q1461.51 1478.22 1463.34 1480.39 Q1465.19 1482.55 1468.34 1482.55 Q1471.48 1482.55 1473.31 1480.39 Q1475.17 1478.22 1475.17 1474.49 Q1475.17 1470.74 1473.31 1468.59 Q1471.48 1466.44 1468.34 1466.44 M1477.62 1451.78 L1477.62 1456.04 Q1475.86 1455.21 1474.05 1454.77 Q1472.27 1454.33 1470.51 1454.33 Q1465.88 1454.33 1463.43 1457.45 Q1461 1460.58 1460.65 1466.9 Q1462.02 1464.89 1464.08 1463.82 Q1466.14 1462.73 1468.61 1462.73 Q1473.82 1462.73 1476.83 1465.9 Q1479.86 1469.05 1479.86 1474.49 Q1479.86 1479.82 1476.72 1483.03 Q1473.57 1486.25 1468.34 1486.25 Q1462.34 1486.25 1459.17 1481.67 Q1456 1477.06 1456 1468.33 Q1456 1460.14 1459.89 1455.28 Q1463.78 1450.39 1470.33 1450.39 Q1472.09 1450.39 1473.87 1450.74 Q1475.67 1451.09 1477.62 1451.78 Z" fill="#000000" fill-rule="nonzero" fill-opacity="1" /><path clip-path="url(#clip050)" d="M1910.34 1469.17 Q1907.01 1469.17 1905.09 1470.95 Q1903.19 1472.73 1903.19 1475.86 Q1903.19 1478.98 1905.09 1480.77 Q1907.01 1482.55 1910.34 1482.55 Q1913.68 1482.55 1915.6 1480.77 Q1917.52 1478.96 1917.52 1475.86 Q1917.52 1472.73 1915.6 1470.95 Q1913.7 1469.17 1910.34 1469.17 M1905.67 1467.18 Q1902.66 1466.44 1900.97 1464.38 Q1899.3 1462.32 1899.3 1459.35 Q1899.3 1455.21 1902.24 1452.8 Q1905.2 1450.39 1910.34 1450.39 Q1915.51 1450.39 1918.45 1452.8 Q1921.39 1455.21 1921.39 1459.35 Q1921.39 1462.32 1919.7 1464.38 Q1918.03 1466.44 1915.04 1467.18 Q1918.42 1467.96 1920.3 1470.26 Q1922.2 1472.55 1922.2 1475.86 Q1922.2 1480.88 1919.12 1483.57 Q1916.06 1486.25 1910.34 1486.25 Q1904.63 1486.25 1901.55 1483.57 Q1898.49 1480.88 1898.49 1475.86 Q1898.49 1472.55 1900.39 1470.26 Q1902.29 1467.96 1905.67 1467.18 M1903.95 1459.79 Q1903.95 1462.48 1905.62 1463.98 Q1907.31 1465.49 1910.34 1465.49 Q1913.35 1465.49 1915.04 1463.98 Q1916.76 1462.48 1916.76 1459.79 Q1916.76 1457.11 1915.04 1455.6 Q1913.35 1454.1 1910.34 1454.1 Q1907.31 1454.1 1905.62 1455.6 Q1903.95 1457.11 1903.95 1459.79 Z" fill="#000000" fill-rule="nonzero" fill-opacity="1" /><path clip-path="url(#clip050)" d="M2327.44 1481.64 L2335.08 1481.64 L2335.08 1455.28 L2326.77 1456.95 L2326.77 1452.69 L2335.04 1451.02 L2339.71 1451.02 L2339.71 1481.64 L2347.35 1481.64 L2347.35 1485.58 L2327.44 1485.58 L2327.44 1481.64 Z" fill="#000000" fill-rule="nonzero" fill-opacity="1" /><path clip-path="url(#clip050)" d="M2366.8 1454.1 Q2363.18 1454.1 2361.36 1457.66 Q2359.55 1461.2 2359.55 1468.33 Q2359.55 1475.44 2361.36 1479.01 Q2363.18 1482.55 2366.8 1482.55 Q2370.43 1482.55 2372.23 1479.01 Q2374.06 1475.44 2374.06 1468.33 Q2374.06 1461.2 2372.23 1457.66 Q2370.43 1454.1 2366.8 1454.1 M2366.8 1450.39 Q2372.61 1450.39 2375.66 1455 Q2378.74 1459.58 2378.74 1468.33 Q2378.74 1477.06 2375.66 1481.67 Q2372.61 1486.25 2366.8 1486.25 Q2360.99 1486.25 2357.91 1481.67 Q2354.85 1477.06 2354.85 1468.33 Q2354.85 1459.58 2357.91 1455 Q2360.99 1450.39 2366.8 1450.39 Z" fill="#000000" fill-rule="nonzero" fill-opacity="1" /><path clip-path="url(#clip050)" d="M1245.79 1522.27 L1245.79 1532.4 L1257.85 1532.4 L1257.85 1536.95 L1245.79 1536.95 L1245.79 1556.3 Q1245.79 1560.66 1246.96 1561.9 Q1248.17 1563.14 1251.83 1563.14 L1257.85 1563.14 L1257.85 1568.04 L1251.83 1568.04 Q1245.05 1568.04 1242.48 1565.53 Q1239.9 1562.98 1239.9 1556.3 L1239.9 1536.95 L1235.6 1536.95 L1235.6 1532.4 L1239.9 1532.4 L1239.9 1522.27 L1245.79 1522.27 Z" fill="#000000" fill-rule="nonzero" fill-opacity="1" /><polyline clip-path="url(#clip050)" style="stroke:#000000; stroke-linecap:round; stroke-linejoin:round; stroke-width:4; stroke-opacity:1; fill:none" points="140.696,1423.18 140.696,47.2441 "/>
<polyline clip-path="url(#clip050)" style="stroke:#000000; stroke-linecap:round; stroke-linejoin:round; stroke-width:4; stroke-opacity:1; fill:none" points="140.696,1384.24 159.593,1384.24 "/>
<polyline clip-path="url(#clip050)" style="stroke:#000000; stroke-linecap:round; stroke-linejoin:round; stroke-width:4; stroke-opacity:1; fill:none" points="140.696,1124.63 159.593,1124.63 "/>
<polyline clip-path="url(#clip050)" style="stroke:#000000; stroke-linecap:round; stroke-linejoin:round; stroke-width:4; stroke-opacity:1; fill:none" points="140.696,865.017 159.593,865.017 "/>
<polyline clip-path="url(#clip050)" style="stroke:#000000; stroke-linecap:round; stroke-linejoin:round; stroke-width:4; stroke-opacity:1; fill:none" points="140.696,605.407 159.593,605.407 "/>
<polyline clip-path="url(#clip050)" style="stroke:#000000; stroke-linecap:round; stroke-linejoin:round; stroke-width:4; stroke-opacity:1; fill:none" points="140.696,345.796 159.593,345.796 "/>
<polyline clip-path="url(#clip050)" style="stroke:#000000; stroke-linecap:round; stroke-linejoin:round; stroke-width:4; stroke-opacity:1; fill:none" points="140.696,86.1857 159.593,86.1857 "/>
<path clip-path="url(#clip050)" d="M92.7512 1370.04 Q89.1401 1370.04 87.3114 1373.6 Q85.5058 1377.14 85.5058 1384.27 Q85.5058 1391.38 87.3114 1394.94 Q89.1401 1398.49 92.7512 1398.49 Q96.3854 1398.49 98.1909 1394.94 Q100.02 1391.38 100.02 1384.27 Q100.02 1377.14 98.1909 1373.6 Q96.3854 1370.04 92.7512 1370.04 M92.7512 1366.33 Q98.5613 1366.33 101.617 1370.94 Q104.696 1375.52 104.696 1384.27 Q104.696 1393 101.617 1397.61 Q98.5613 1402.19 92.7512 1402.19 Q86.941 1402.19 83.8623 1397.61 Q80.8068 1393 80.8068 1384.27 Q80.8068 1375.52 83.8623 1370.94 Q86.941 1366.33 92.7512 1366.33 Z" fill="#000000" fill-rule="nonzero" fill-opacity="1" /><path clip-path="url(#clip050)" d="M83.7929 1107.35 L102.149 1107.35 L102.149 1111.28 L88.0753 1111.28 L88.0753 1119.76 Q89.0938 1119.41 90.1123 1119.25 Q91.1308 1119.06 92.1493 1119.06 Q97.9363 1119.06 101.316 1122.23 Q104.696 1125.4 104.696 1130.82 Q104.696 1136.4 101.223 1139.5 Q97.7511 1142.58 91.4317 1142.58 Q89.2558 1142.58 86.9873 1142.21 Q84.7419 1141.84 82.3346 1141.1 L82.3346 1136.4 Q84.4179 1137.53 86.6401 1138.09 Q88.8623 1138.64 91.3391 1138.64 Q95.3437 1138.64 97.6817 1136.54 Q100.02 1134.43 100.02 1130.82 Q100.02 1127.21 97.6817 1125.1 Q95.3437 1123 91.3391 1123 Q89.4641 1123 87.5892 1123.41 Q85.7373 1123.83 83.7929 1124.71 L83.7929 1107.35 Z" fill="#000000" fill-rule="nonzero" fill-opacity="1" /><path clip-path="url(#clip050)" d="M53.3995 878.362 L61.0384 878.362 L61.0384 851.996 L52.7282 853.663 L52.7282 849.404 L60.9921 847.737 L65.668 847.737 L65.668 878.362 L73.3068 878.362 L73.3068 882.297 L53.3995 882.297 L53.3995 878.362 Z" fill="#000000" fill-rule="nonzero" fill-opacity="1" /><path clip-path="url(#clip050)" d="M92.7512 850.816 Q89.1401 850.816 87.3114 854.381 Q85.5058 857.922 85.5058 865.052 Q85.5058 872.158 87.3114 875.723 Q89.1401 879.265 92.7512 879.265 Q96.3854 879.265 98.1909 875.723 Q100.02 872.158 100.02 865.052 Q100.02 857.922 98.1909 854.381 Q96.3854 850.816 92.7512 850.816 M92.7512 847.112 Q98.5613 847.112 101.617 851.719 Q104.696 856.302 104.696 865.052 Q104.696 873.779 101.617 878.385 Q98.5613 882.969 92.7512 882.969 Q86.941 882.969 83.8623 878.385 Q80.8068 873.779 80.8068 865.052 Q80.8068 856.302 83.8623 851.719 Q86.941 847.112 92.7512 847.112 Z" fill="#000000" fill-rule="nonzero" fill-opacity="1" /><path clip-path="url(#clip050)" d="M54.3949 618.752 L62.0337 618.752 L62.0337 592.386 L53.7236 594.053 L53.7236 589.793 L61.9874 588.127 L66.6633 588.127 L66.6633 618.752 L74.3022 618.752 L74.3022 622.687 L54.3949 622.687 L54.3949 618.752 Z" fill="#000000" fill-rule="nonzero" fill-opacity="1" /><path clip-path="url(#clip050)" d="M83.7929 588.127 L102.149 588.127 L102.149 592.062 L88.0753 592.062 L88.0753 600.534 Q89.0938 600.187 90.1123 600.025 Q91.1308 599.84 92.1493 599.84 Q97.9363 599.84 101.316 603.011 Q104.696 606.182 104.696 611.599 Q104.696 617.177 101.223 620.279 Q97.7511 623.358 91.4317 623.358 Q89.2558 623.358 86.9873 622.988 Q84.7419 622.617 82.3346 621.877 L82.3346 617.177 Q84.4179 618.312 86.6401 618.867 Q88.8623 619.423 91.3391 619.423 Q95.3437 619.423 97.6817 617.316 Q100.02 615.21 100.02 611.599 Q100.02 607.988 97.6817 605.881 Q95.3437 603.775 91.3391 603.775 Q89.4641 603.775 87.5892 604.191 Q85.7373 604.608 83.7929 605.488 L83.7929 588.127 Z" fill="#000000" fill-rule="nonzero" fill-opacity="1" /><path clip-path="url(#clip050)" d="M56.6171 359.141 L72.9365 359.141 L72.9365 363.076 L50.9921 363.076 L50.9921 359.141 Q53.6541 356.386 58.2375 351.757 Q62.8439 347.104 64.0245 345.761 Q66.2698 343.238 67.1494 341.502 Q68.0522 339.743 68.0522 338.053 Q68.0522 335.299 66.1078 333.562 Q64.1865 331.826 61.0847 331.826 Q58.8856 331.826 56.4319 332.59 Q54.0014 333.354 51.2236 334.905 L51.2236 330.183 Q54.0477 329.049 56.5014 328.47 Q58.955 327.891 60.9921 327.891 Q66.3624 327.891 69.5568 330.576 Q72.7513 333.262 72.7513 337.752 Q72.7513 339.882 71.9411 341.803 Q71.1541 343.701 69.0476 346.294 Q68.4689 346.965 65.367 350.183 Q62.2652 353.377 56.6171 359.141 Z" fill="#000000" fill-rule="nonzero" fill-opacity="1" /><path clip-path="url(#clip050)" d="M92.7512 331.595 Q89.1401 331.595 87.3114 335.16 Q85.5058 338.701 85.5058 345.831 Q85.5058 352.937 87.3114 356.502 Q89.1401 360.044 92.7512 360.044 Q96.3854 360.044 98.1909 356.502 Q100.02 352.937 100.02 345.831 Q100.02 338.701 98.1909 335.16 Q96.3854 331.595 92.7512 331.595 M92.7512 327.891 Q98.5613 327.891 101.617 332.498 Q104.696 337.081 104.696 345.831 Q104.696 354.558 101.617 359.164 Q98.5613 363.747 92.7512 363.747 Q86.941 363.747 83.8623 359.164 Q80.8068 354.558 80.8068 345.831 Q80.8068 337.081 83.8623 332.498 Q86.941 327.891 92.7512 327.891 Z" fill="#000000" fill-rule="nonzero" fill-opacity="1" /><path clip-path="url(#clip050)" d="M57.6125 99.5305 L73.9318 99.5305 L73.9318 103.466 L51.9875 103.466 L51.9875 99.5305 Q54.6495 96.7759 59.2328 92.1463 Q63.8393 87.4935 65.0198 86.151 Q67.2652 83.6278 68.1448 81.8917 Q69.0476 80.1325 69.0476 78.4427 Q69.0476 75.688 67.1032 73.9519 Q65.1819 72.2158 62.08 72.2158 Q59.881 72.2158 57.4273 72.9797 Q54.9967 73.7436 52.219 75.2945 L52.219 70.5723 Q55.043 69.4381 57.4967 68.8594 Q59.9504 68.2807 61.9874 68.2807 Q67.3578 68.2807 70.5522 70.9658 Q73.7466 73.651 73.7466 78.1417 Q73.7466 80.2714 72.9365 82.1926 Q72.1494 84.0908 70.0429 86.6834 Q69.4642 87.3546 66.3624 90.5722 Q63.2606 93.7667 57.6125 99.5305 Z" fill="#000000" fill-rule="nonzero" fill-opacity="1" /><path clip-path="url(#clip050)" d="M83.7929 68.9057 L102.149 68.9057 L102.149 72.8408 L88.0753 72.8408 L88.0753 81.313 Q89.0938 80.9658 90.1123 80.8038 Q91.1308 80.6186 92.1493 80.6186 Q97.9363 80.6186 101.316 83.7899 Q104.696 86.9611 104.696 92.3778 Q104.696 97.9564 101.223 101.058 Q97.7511 104.137 91.4317 104.137 Q89.2558 104.137 86.9873 103.767 Q84.7419 103.396 82.3346 102.655 L82.3346 97.9564 Q84.4179 99.0907 86.6401 99.6462 Q88.8623 100.202 91.3391 100.202 Q95.3437 100.202 97.6817 98.0953 Q100.02 95.9889 100.02 92.3778 Q100.02 88.7667 97.6817 86.6602 Q95.3437 84.5537 91.3391 84.5537 Q89.4641 84.5537 87.5892 84.9704 Q85.7373 85.3871 83.7929 86.2667 L83.7929 68.9057 Z" fill="#000000" fill-rule="nonzero" fill-opacity="1" /><polyline clip-path="url(#clip051)" style="stroke:#009af9; stroke-linecap:round; stroke-linejoin:round; stroke-width:8; stroke-opacity:1; fill:none" points="140.696,1384.24 141.515,1384.24 142.335,1384.24 143.154,1384.24 143.974,1384.24 144.793,1384.24 145.613,1384.24 146.433,1384.24 147.252,1384.24 148.072,1384.24 148.891,1384.24 149.711,1384.24 150.531,1384.24 151.35,1384.24 152.17,1384.24 152.989,1384.24 153.809,1384.24 154.628,1384.24 155.448,1384.24 156.268,1384.24 157.087,1384.24 157.907,1384.24 158.726,1384.24 159.546,1384.24 160.366,1384.24 161.185,1384.24 162.005,1384.24 162.824,1384.24 163.644,1384.24 164.464,1384.24 165.283,1384.24 166.103,1384.24 166.922,1384.24 167.742,1384.24 168.561,1384.24 169.381,1384.24 170.201,1384.24 171.02,1384.24 171.84,1384.24 172.659,1384.24 173.479,1384.24 174.299,1384.24 175.118,1384.24 175.938,1384.24 176.757,1384.24 177.577,1384.24 178.396,1384.24 179.216,1384.24 180.036,1384.24 180.855,1384.24 181.675,1384.24 182.494,1384.24 183.314,1384.24 184.134,1384.24 184.953,1384.24 185.773,1384.24 186.592,1384.24 187.412,1384.24 188.231,1384.24 189.051,1384.24 189.871,1384.24 190.69,1384.24 191.51,1384.24 192.329,1384.24 193.149,1384.24 193.969,1384.24 194.788,1384.24 195.608,1384.24 196.427,1384.24 197.247,1384.24 198.067,1384.24 198.886,1384.24 199.706,1384.24 200.525,1384.24 201.345,1384.24 202.164,1384.24 202.984,1384.24 203.804,1384.24 204.623,1384.24 205.443,1384.24 206.262,1384.24 207.082,1384.24 207.902,1384.24 208.721,1384.24 209.541,1384.24 210.36,1384.24 211.18,1384.24 211.999,1384.24 212.819,1384.24 213.639,1384.24 214.458,1384.24 215.278,1384.24 216.097,1384.24 216.917,1384.24 217.737,1384.24 218.556,1384.24 219.376,1384.24 220.195,1384.24 221.015,1384.24 221.834,1384.24 222.654,1384.24 223.474,1384.24 224.293,1384.24 225.113,1384.24 225.932,1384.24 226.752,1384.24 227.572,1384.24 228.391,1384.24 229.211,1384.24 230.03,1384.24 230.85,1384.24 231.669,1384.24 232.489,1384.24 233.309,1384.24 234.128,1384.24 234.948,1384.24 235.767,1384.24 236.587,1384.24 237.407,1384.24 238.226,1384.24 239.046,1384.24 239.865,1384.24 240.685,1384.24 241.505,1384.24 242.324,1384.24 243.144,1384.24 243.963,1384.24 244.783,1384.24 245.602,1384.24 246.422,1384.24 247.242,1384.24 248.061,1384.24 248.881,1384.24 249.7,1384.24 250.52,1384.24 251.34,1384.24 252.159,1384.24 252.979,1384.24 253.798,1384.24 254.618,1384.24 255.437,1384.24 256.257,1384.24 257.077,1384.24 257.896,1384.24 258.716,1332.32 259.535,1280.39 260.355,1280.39 261.175,1280.39 261.994,1280.39 262.814,1280.39 263.633,1280.39 264.453,1280.39 265.272,1280.39 266.092,1280.39 266.912,1280.39 267.731,1280.39 268.551,1280.39 269.37,1280.39 270.19,1280.39 271.01,1280.39 271.829,1280.39 272.649,1280.39 273.468,1280.39 274.288,1280.39 275.108,1280.39 275.927,1280.39 276.747,1280.39 277.566,1280.39 278.386,1280.39 279.205,1280.39 280.025,1280.39 280.845,1280.39 281.664,1280.39 282.484,1280.39 283.303,1280.39 284.123,1280.39 284.943,1280.39 285.762,1280.39 286.582,1280.39 287.401,1280.39 288.221,1280.39 289.04,1280.39 289.86,1280.39 290.68,1280.39 291.499,1280.39 292.319,1280.39 293.138,1280.39 293.958,1280.39 294.778,1280.39 295.597,1280.39 296.417,1280.39 297.236,1280.39 298.056,1280.39 298.875,1280.39 299.695,1280.39 300.515,1280.39 301.334,1280.39 302.154,1280.39 302.973,1280.39 303.793,1280.39 304.613,1280.39 305.432,1280.39 306.252,1280.39 307.071,1280.39 307.891,1280.39 308.711,1280.39 309.53,1280.39 310.35,1280.39 311.169,1280.39 311.989,1280.39 312.808,1280.39 313.628,1280.39 314.448,1280.39 315.267,1280.39 316.087,1280.39 316.906,1280.39 317.726,1280.39 318.546,1280.39 319.365,1280.39 320.185,1280.39 321.004,1280.39 321.824,1280.39 322.643,1280.39 323.463,1280.39 324.283,1280.39 325.102,1280.39 325.922,1280.39 326.741,1280.39 327.561,1280.39 328.381,1280.39 329.2,1280.39 330.02,1280.39 330.839,1280.39 331.659,1280.39 332.478,1280.39 333.298,1280.39 334.118,1280.39 334.937,1280.39 335.757,1280.39 336.576,1280.39 337.396,1280.39 338.216,1280.39 339.035,1280.39 339.855,1280.39 340.674,1280.39 341.494,1280.39 342.313,1280.39 343.133,1280.39 343.953,1280.39 344.772,1280.39 345.592,1280.39 346.411,1280.39 347.231,1280.39 348.051,1228.47 348.87,1228.47 349.69,1228.47 350.509,1228.47 351.329,1228.47 352.149,1228.47 352.968,1228.47 353.788,1228.47 354.607,1228.47 355.427,1228.47 356.246,1228.47 357.066,1228.47 357.886,1228.47 358.705,1228.47 359.525,1228.47 360.344,1228.47 361.164,1228.47 361.984,1228.47 362.803,1228.47 363.623,1228.47 364.442,1228.47 365.262,1228.47 366.081,1228.47 366.901,1228.47 367.721,1228.47 368.54,1228.47 369.36,1228.47 370.179,1228.47 370.999,1228.47 371.819,1228.47 372.638,1228.47 373.458,1228.47 374.277,1228.47 375.097,1228.47 375.916,1228.47 376.736,1228.47 377.556,1228.47 378.375,1228.47 379.195,1228.47 380.014,1228.47 380.834,1228.47 381.654,1228.47 382.473,1228.47 383.293,1228.47 384.112,1228.47 384.932,1228.47 385.752,1228.47 386.571,1228.47 387.391,1228.47 388.21,1228.47 389.03,1228.47 389.849,1228.47 390.669,1228.47 391.489,1228.47 392.308,1228.47 393.128,1228.47 393.947,1228.47 394.767,1228.47 395.587,1228.47 396.406,1228.47 397.226,1228.47 398.045,1228.47 398.865,1228.47 399.684,1228.47 400.504,1228.47 401.324,1228.47 402.143,1228.47 402.963,1228.47 403.782,1228.47 404.602,1228.47 405.422,1228.47 406.241,1228.47 407.061,1228.47 407.88,1228.47 408.7,1228.47 409.519,1228.47 410.339,1228.47 411.159,1228.47 411.978,1228.47 412.798,1228.47 413.617,1228.47 414.437,1228.47 415.257,1228.47 416.076,1228.47 416.896,1228.47 417.715,1228.47 418.535,1228.47 419.354,1228.47 420.174,1228.47 420.994,1228.47 421.813,1228.47 422.633,1228.47 423.452,1228.47 424.272,1228.47 425.092,1228.47 425.911,1176.55 426.731,1176.55 427.55,1176.55 428.37,1176.55 429.19,1176.55 430.009,1176.55 430.829,1176.55 431.648,1176.55 432.468,1176.55 433.287,1176.55 434.107,1176.55 434.927,1176.55 435.746,1176.55 436.566,1176.55 437.385,1176.55 438.205,1176.55 439.025,1176.55 439.844,1176.55 440.664,1176.55 441.483,1176.55 442.303,1176.55 443.122,1176.55 443.942,1176.55 444.762,1176.55 445.581,1176.55 446.401,1176.55 447.22,1176.55 448.04,1176.55 448.86,1176.55 449.679,1176.55 450.499,1176.55 451.318,1176.55 452.138,1176.55 452.957,1176.55 453.777,1176.55 454.597,1176.55 455.416,1176.55 456.236,1176.55 457.055,1176.55 457.875,1176.55 458.695,1176.55 459.514,1176.55 460.334,1176.55 461.153,1176.55 461.973,1176.55 462.793,1176.55 463.612,1176.55 464.432,1176.55 465.251,1176.55 466.071,1176.55 466.89,1176.55 467.71,1176.55 468.53,1176.55 469.349,1176.55 470.169,1176.55 470.988,1176.55 471.808,1176.55 472.628,1176.55 473.447,1176.55 474.267,1176.55 475.086,1176.55 475.906,1176.55 476.725,1176.55 477.545,1176.55 478.365,1176.55 479.184,1124.63 480.004,1124.63 480.823,1124.63 481.643,1124.63 482.463,1124.63 483.282,1124.63 484.102,1124.63 484.921,1124.63 485.741,1124.63 486.56,1124.63 487.38,1124.63 488.2,1124.63 489.019,1124.63 489.839,1124.63 490.658,1124.63 491.478,1124.63 492.298,1124.63 493.117,1124.63 493.937,1124.63 494.756,1124.63 495.576,1124.63 496.396,1124.63 497.215,1124.63 498.035,1124.63 498.854,1124.63 499.674,1124.63 500.493,1124.63 501.313,1124.63 502.133,1124.63 502.952,1124.63 503.772,1124.63 504.591,1124.63 505.411,1124.63 506.231,1124.63 507.05,1124.63 507.87,1124.63 508.689,1124.63 509.509,1124.63 510.328,1124.63 511.148,1124.63 511.968,1124.63 512.787,1124.63 513.607,1124.63 514.426,1124.63 515.246,1124.63 516.066,1124.63 516.885,1124.63 517.705,1124.63 518.524,1124.63 519.344,1124.63 520.163,1124.63 520.983,1124.63 521.803,1124.63 522.622,1124.63 523.442,1124.63 524.261,1124.63 525.081,1124.63 525.901,1124.63 526.72,1124.63 527.54,1124.63 528.359,1124.63 529.179,1124.63 529.998,1124.63 530.818,1124.63 531.638,1124.63 532.457,1124.63 533.277,1124.63 534.096,1124.63 534.916,1124.63 535.736,1124.63 536.555,1124.63 537.375,1124.63 538.194,1124.63 539.014,1124.63 539.834,1124.63 540.653,1124.63 541.473,1124.63 542.292,1124.63 543.112,1124.63 543.931,1124.63 544.751,1124.63 545.571,1124.63 546.39,1124.63 547.21,1124.63 548.029,1124.63 548.849,1124.63 549.669,1124.63 550.488,1124.63 551.308,1124.63 552.127,1124.63 552.947,1124.63 553.766,1124.63 554.586,1124.63 555.406,1124.63 556.225,1124.63 557.045,1124.63 557.864,1124.63 558.684,1124.63 559.504,1124.63 560.323,1124.63 561.143,1124.63 561.962,1124.63 562.782,1124.63 563.601,1124.63 564.421,1124.63 565.241,1124.63 566.06,1124.63 566.88,1124.63 567.699,1124.63 568.519,1124.63 569.339,1124.63 570.158,1124.63 570.978,1124.63 571.797,1124.63 572.617,1124.63 573.437,1124.63 574.256,1124.63 575.076,1124.63 575.895,1124.63 576.715,1124.63 577.534,1124.63 578.354,1124.63 579.174,1124.63 579.993,1124.63 580.813,1124.63 581.632,1124.63 582.452,1124.63 583.272,1124.63 584.091,1124.63 584.911,1124.63 585.73,1124.63 586.55,1124.63 587.369,1124.63 588.189,1124.63 589.009,1124.63 589.828,1124.63 590.648,1124.63 591.467,1124.63 592.287,1124.63 593.107,1124.63 593.926,1124.63 594.746,1124.63 595.565,1124.63 596.385,1124.63 597.204,1124.63 598.024,1124.63 598.844,1124.63 599.663,1124.63 600.483,1124.63 601.302,1124.63 602.122,1124.63 602.942,1124.63 603.761,1124.63 604.581,1124.63 605.4,1124.63 606.22,1124.63 607.04,1124.63 607.859,1124.63 608.679,1124.63 609.498,1124.63 610.318,1124.63 611.137,1124.63 611.957,1124.63 612.777,1124.63 613.596,1124.63 614.416,1124.63 615.235,1124.63 616.055,1124.63 616.875,1124.63 617.694,1124.63 618.514,1124.63 619.333,1124.63 620.153,1124.63 620.972,1124.63 621.792,1124.63 622.612,1124.63 623.431,1124.63 624.251,1124.63 625.07,1124.63 625.89,1124.63 626.71,1124.63 627.529,1124.63 628.349,1124.63 629.168,1124.63 629.988,1124.63 630.807,1124.63 631.627,1124.63 632.447,1124.63 633.266,1124.63 634.086,1124.63 634.905,1124.63 635.725,1124.63 636.545,1124.63 637.364,1124.63 638.184,1124.63 639.003,1124.63 639.823,1124.63 640.642,1124.63 641.462,1124.63 642.282,1124.63 643.101,1124.63 643.921,1124.63 644.74,1124.63 645.56,1124.63 646.38,1124.63 647.199,1124.63 648.019,1124.63 648.838,1124.63 649.658,1124.63 650.478,1124.63 651.297,1124.63 652.117,1124.63 652.936,1124.63 653.756,1124.63 654.575,1124.63 655.395,1124.63 656.215,1124.63 657.034,1124.63 657.854,1124.63 658.673,1124.63 659.493,1124.63 660.313,1124.63 661.132,1124.63 661.952,1124.63 662.771,1124.63 663.591,1124.63 664.41,1124.63 665.23,1124.63 666.05,1124.63 666.869,1124.63 667.689,1124.63 668.508,1124.63 669.328,1124.63 670.148,1124.63 670.967,1124.63 671.787,1124.63 672.606,1124.63 673.426,1124.63 674.245,1124.63 675.065,1124.63 675.885,1124.63 676.704,1124.63 677.524,1124.63 678.343,1124.63 679.163,1124.63 679.983,1124.63 680.802,1124.63 681.622,1124.63 682.441,1124.63 683.261,1124.63 684.081,1124.63 684.9,1124.63 685.72,1124.63 686.539,1124.63 687.359,1124.63 688.178,1124.63 688.998,1124.63 689.818,1124.63 690.637,1124.63 691.457,1124.63 692.276,1124.63 693.096,1124.63 693.916,1124.63 694.735,1124.63 695.555,1124.63 696.374,1124.63 697.194,1124.63 698.013,1124.63 698.833,1124.63 699.653,1124.63 700.472,1124.63 701.292,1124.63 702.111,1124.63 702.931,1124.63 703.751,1124.63 704.57,1124.63 705.39,1124.63 706.209,1124.63 707.029,1124.63 707.848,1124.63 708.668,1124.63 709.488,1124.63 710.307,1124.63 711.127,1124.63 711.946,1124.63 712.766,1124.63 713.586,1124.63 714.405,1124.63 715.225,1124.63 716.044,1124.63 716.864,1124.63 717.683,1124.63 718.503,1124.63 719.323,1124.63 720.142,1124.63 720.962,1124.63 721.781,1124.63 722.601,1124.63 723.421,1124.63 724.24,1124.63 725.06,1124.63 725.879,1124.63 726.699,1124.63 727.519,1124.63 728.338,1124.63 729.158,1124.63 729.977,1124.63 730.797,1124.63 731.616,1124.63 732.436,1124.63 733.256,1124.63 734.075,1124.63 734.895,1124.63 735.714,1124.63 736.534,1124.63 737.354,1124.63 738.173,1124.63 738.993,1124.63 739.812,1124.63 740.632,1124.63 741.451,1124.63 742.271,1124.63 743.091,1124.63 743.91,1124.63 744.73,1124.63 745.549,1124.63 746.369,1124.63 747.189,1124.63 748.008,1124.63 748.828,1124.63 749.647,1124.63 750.467,1124.63 751.286,1124.63 752.106,1124.63 752.926,1124.63 753.745,1124.63 754.565,1124.63 755.384,1124.63 756.204,1124.63 757.024,1124.63 757.843,1124.63 758.663,1124.63 759.482,1124.63 760.302,1124.63 761.122,1124.63 761.941,1124.63 762.761,1124.63 763.58,1124.63 764.4,1124.63 765.219,1124.63 766.039,1124.63 766.859,1072.71 767.678,1072.71 768.498,1072.71 769.317,1072.71 770.137,1072.71 770.957,1072.71 771.776,1072.71 772.596,1072.71 773.415,1072.71 774.235,1072.71 775.054,1072.71 775.874,1072.71 776.694,1072.71 777.513,1072.71 778.333,1072.71 779.152,1072.71 779.972,1072.71 780.792,1072.71 781.611,1072.71 782.431,1072.71 783.25,1072.71 784.07,1072.71 784.889,1072.71 785.709,1072.71 786.529,1072.71 787.348,1072.71 788.168,1072.71 788.987,1072.71 789.807,1072.71 790.627,1072.71 791.446,1072.71 792.266,1072.71 793.085,1072.71 793.905,1072.71 794.725,1072.71 795.544,1072.71 796.364,1072.71 797.183,1072.71 798.003,1072.71 798.822,1072.71 799.642,1072.71 800.462,1072.71 801.281,1072.71 802.101,1072.71 802.92,1072.71 803.74,1072.71 804.56,1072.71 805.379,1072.71 806.199,1072.71 807.018,1072.71 807.838,1072.71 808.657,1072.71 809.477,1072.71 810.297,1072.71 811.116,1072.71 811.936,1072.71 812.755,1072.71 813.575,1072.71 814.395,1072.71 815.214,1072.71 816.034,1072.71 816.853,1072.71 817.673,1072.71 818.492,1072.71 819.312,1072.71 820.132,1072.71 820.951,1072.71 821.771,1072.71 822.59,1020.78 823.41,1020.78 824.23,1020.78 825.049,1020.78 825.869,1020.78 826.688,1020.78 827.508,1020.78 828.327,1020.78 829.147,1020.78 829.967,1020.78 830.786,1020.78 831.606,1020.78 832.425,1020.78 833.245,1020.78 834.065,1020.78 834.884,1020.78 835.704,1020.78 836.523,1020.78 837.343,1020.78 838.163,1020.78 838.982,1020.78 839.802,1020.78 840.621,1020.78 841.441,1020.78 842.26,1020.78 843.08,1020.78 843.9,1020.78 844.719,1020.78 845.539,1020.78 846.358,1020.78 847.178,1020.78 847.998,1020.78 848.817,1020.78 849.637,1020.78 850.456,1020.78 851.276,1020.78 852.095,1020.78 852.915,1020.78 853.735,1020.78 854.554,1020.78 855.374,1020.78 856.193,1020.78 857.013,1020.78 857.833,1020.78 858.652,1020.78 859.472,1020.78 860.291,1020.78 861.111,1020.78 861.93,1020.78 862.75,1020.78 863.57,1020.78 864.389,1020.78 865.209,1020.78 866.028,1020.78 866.848,1020.78 867.668,1020.78 868.487,1020.78 869.307,1020.78 870.126,1020.78 870.946,1020.78 871.766,1020.78 872.585,1020.78 873.405,1020.78 874.224,1020.78 875.044,1020.78 875.863,1020.78 876.683,1020.78 877.503,1020.78 878.322,1020.78 879.142,1020.78 879.961,1020.78 880.781,1020.78 881.601,1020.78 882.42,1020.78 883.24,1020.78 884.059,1020.78 884.879,1020.78 885.698,1020.78 886.518,1020.78 887.338,1020.78 888.157,1020.78 888.977,1020.78 889.796,1020.78 890.616,1020.78 891.436,1020.78 892.255,1020.78 893.075,1020.78 893.894,1020.78 894.714,1020.78 895.533,1020.78 896.353,1020.78 897.173,1020.78 897.992,1020.78 898.812,1020.78 899.631,1020.78 900.451,1020.78 901.271,1020.78 902.09,1020.78 902.91,1020.78 903.729,1020.78 904.549,1020.78 905.369,1020.78 906.188,1020.78 907.008,1020.78 907.827,1020.78 908.647,1020.78 909.466,1020.78 910.286,1020.78 911.106,1020.78 911.925,1020.78 912.745,1020.78 913.564,1020.78 914.384,1020.78 915.204,1020.78 916.023,1020.78 916.843,1020.78 917.662,1020.78 918.482,1020.78 919.301,1020.78 920.121,1020.78 920.941,1020.78 921.76,1020.78 922.58,1020.78 923.399,1020.78 924.219,1020.78 925.039,1020.78 925.858,1020.78 926.678,1020.78 927.497,1020.78 928.317,1020.78 929.136,1020.78 929.956,1020.78 930.776,1020.78 931.595,1020.78 932.415,1020.78 933.234,1020.78 934.054,1020.78 934.874,1020.78 935.693,1020.78 936.513,1020.78 937.332,1020.78 938.152,1020.78 938.971,1020.78 939.791,1020.78 940.611,1020.78 941.43,1020.78 942.25,1020.78 943.069,1020.78 943.889,1020.78 944.709,1020.78 945.528,1020.78 946.348,1020.78 947.167,1020.78 947.987,1020.78 948.807,1020.78 949.626,1020.78 950.446,1020.78 951.265,1020.78 952.085,1020.78 952.904,1020.78 953.724,1020.78 954.544,1020.78 955.363,1020.78 956.183,1020.78 957.002,1020.78 957.822,1020.78 958.642,1020.78 959.461,1020.78 960.281,1020.78 961.1,1020.78 961.92,1020.78 962.739,1020.78 963.559,1020.78 964.379,1020.78 965.198,1020.78 966.018,1020.78 966.837,1020.78 967.657,1020.78 968.477,1020.78 969.296,1020.78 970.116,1020.78 970.935,1020.78 971.755,1020.78 972.574,1020.78 973.394,1020.78 974.214,1020.78 975.033,1020.78 975.853,1020.78 976.672,1020.78 977.492,1020.78 978.312,1020.78 979.131,1020.78 979.951,1020.78 980.77,1020.78 981.59,1020.78 982.41,1020.78 983.229,1020.78 984.049,1020.78 984.868,1020.78 985.688,1020.78 986.507,1020.78 987.327,1020.78 988.147,1020.78 988.966,1020.78 989.786,1020.78 990.605,1020.78 991.425,1020.78 992.245,1020.78 993.064,1020.78 993.884,1020.78 994.703,1020.78 995.523,1020.78 996.342,1020.78 997.162,1020.78 997.982,1020.78 998.801,1020.78 999.621,1020.78 1000.44,1020.78 1001.26,1020.78 1002.08,1020.78 1002.9,1020.78 1003.72,1020.78 1004.54,1020.78 1005.36,1020.78 1006.18,1020.78 1007,1020.78 1007.82,1020.78 1008.64,1020.78 1009.46,1020.78 1010.28,1020.78 1011.09,1020.78 1011.91,1020.78 1012.73,1020.78 1013.55,1020.78 1014.37,968.861 1015.19,968.861 1016.01,968.861 1016.83,968.861 1017.65,968.861 1018.47,968.861 1019.29,968.861 1020.11,968.861 1020.93,968.861 1021.75,968.861 1022.57,968.861 1023.39,968.861 1024.21,968.861 1025.03,968.861 1025.85,968.861 1026.67,968.861 1027.49,968.861 1028.31,968.861 1029.13,968.861 1029.95,968.861 1030.77,968.861 1031.58,968.861 1032.4,968.861 1033.22,968.861 1034.04,968.861 1034.86,968.861 1035.68,968.861 1036.5,968.861 1037.32,968.861 1038.14,968.861 1038.96,968.861 1039.78,968.861 1040.6,916.939 1041.42,916.939 1042.24,916.939 1043.06,916.939 1043.88,916.939 1044.7,916.939 1045.52,916.939 1046.34,916.939 1047.16,916.939 1047.98,916.939 1048.8,916.939 1049.62,916.939 1050.44,916.939 1051.25,916.939 1052.07,916.939 1052.89,916.939 1053.71,916.939 1054.53,916.939 1055.35,916.939 1056.17,916.939 1056.99,916.939 1057.81,916.939 1058.63,916.939 1059.45,916.939 1060.27,916.939 1061.09,916.939 1061.91,916.939 1062.73,916.939 1063.55,916.939 1064.37,916.939 1065.19,916.939 1066.01,916.939 1066.83,916.939 1067.65,916.939 1068.47,916.939 1069.29,916.939 1070.11,916.939 1070.92,916.939 1071.74,916.939 1072.56,916.939 1073.38,916.939 1074.2,916.939 1075.02,916.939 1075.84,916.939 1076.66,916.939 1077.48,916.939 1078.3,916.939 1079.12,916.939 1079.94,916.939 1080.76,916.939 1081.58,916.939 1082.4,916.939 1083.22,916.939 1084.04,916.939 1084.86,916.939 1085.68,916.939 1086.5,865.017 1087.32,865.017 1088.14,865.017 1088.96,865.017 1089.78,865.017 1090.59,865.017 1091.41,865.017 1092.23,865.017 1093.05,865.017 1093.87,865.017 1094.69,865.017 1095.51,865.017 1096.33,865.017 1097.15,865.017 1097.97,865.017 1098.79,865.017 1099.61,865.017 1100.43,865.017 1101.25,865.017 1102.07,865.017 1102.89,865.017 1103.71,865.017 1104.53,865.017 1105.35,865.017 1106.17,865.017 1106.99,865.017 1107.81,865.017 1108.63,865.017 1109.45,865.017 1110.26,865.017 1111.08,865.017 1111.9,865.017 1112.72,865.017 1113.54,865.017 1114.36,865.017 1115.18,865.017 1116,865.017 1116.82,865.017 1117.64,865.017 1118.46,865.017 1119.28,865.017 1120.1,865.017 1120.92,865.017 1121.74,865.017 1122.56,865.017 1123.38,865.017 1124.2,865.017 1125.02,865.017 1125.84,865.017 1126.66,865.017 1127.48,865.017 1128.3,865.017 1129.12,865.017 1129.93,865.017 1130.75,865.017 1131.57,865.017 1132.39,865.017 1133.21,865.017 1134.03,865.017 1134.85,865.017 1135.67,865.017 1136.49,865.017 1137.31,865.017 1138.13,865.017 1138.95,865.017 1139.77,865.017 1140.59,865.017 1141.41,865.017 1142.23,865.017 1143.05,865.017 1143.87,865.017 1144.69,865.017 1145.51,865.017 1146.33,865.017 1147.15,865.017 1147.97,865.017 1148.79,865.017 1149.6,865.017 1150.42,865.017 1151.24,865.017 1152.06,865.017 1152.88,865.017 1153.7,865.017 1154.52,865.017 1155.34,865.017 1156.16,865.017 1156.98,865.017 1157.8,865.017 1158.62,865.017 1159.44,865.017 1160.26,865.017 1161.08,865.017 1161.9,865.017 1162.72,865.017 1163.54,865.017 1164.36,865.017 1165.18,865.017 1166,865.017 1166.82,865.017 1167.64,865.017 1168.46,865.017 1169.27,865.017 1170.09,865.017 1170.91,865.017 1171.73,865.017 1172.55,865.017 1173.37,865.017 1174.19,865.017 1175.01,865.017 1175.83,865.017 1176.65,865.017 1177.47,865.017 1178.29,865.017 1179.11,865.017 1179.93,865.017 1180.75,865.017 1181.57,865.017 1182.39,865.017 1183.21,865.017 1184.03,865.017 1184.85,865.017 1185.67,865.017 1186.49,865.017 1187.31,865.017 1188.13,865.017 1188.94,865.017 1189.76,865.017 1190.58,865.017 1191.4,865.017 1192.22,865.017 1193.04,865.017 1193.86,865.017 1194.68,865.017 1195.5,865.017 1196.32,865.017 1197.14,865.017 1197.96,865.017 1198.78,865.017 1199.6,865.017 1200.42,865.017 1201.24,865.017 1202.06,865.017 1202.88,865.017 1203.7,865.017 1204.52,865.017 1205.34,865.017 1206.16,865.017 1206.98,865.017 1207.8,865.017 1208.62,865.017 1209.43,865.017 1210.25,865.017 1211.07,865.017 1211.89,865.017 1212.71,865.017 1213.53,865.017 1214.35,865.017 1215.17,865.017 1215.99,865.017 1216.81,865.017 1217.63,865.017 1218.45,865.017 1219.27,865.017 1220.09,865.017 1220.91,865.017 1221.73,865.017 1222.55,865.017 1223.37,865.017 1224.19,865.017 1225.01,865.017 1225.83,865.017 1226.65,865.017 1227.47,865.017 1228.29,865.017 1229.1,865.017 1229.92,865.017 1230.74,865.017 1231.56,865.017 1232.38,865.017 1233.2,865.017 1234.02,865.017 1234.84,865.017 1235.66,865.017 1236.48,865.017 1237.3,865.017 1238.12,865.017 1238.94,865.017 1239.76,865.017 1240.58,865.017 1241.4,865.017 1242.22,865.017 1243.04,865.017 1243.86,865.017 1244.68,865.017 1245.5,865.017 1246.32,865.017 1247.14,865.017 1247.96,865.017 1248.77,865.017 1249.59,865.017 1250.41,865.017 1251.23,865.017 1252.05,865.017 1252.87,865.017 1253.69,865.017 1254.51,865.017 1255.33,865.017 1256.15,865.017 1256.97,865.017 1257.79,865.017 1258.61,865.017 1259.43,865.017 1260.25,865.017 1261.07,865.017 1261.89,865.017 1262.71,865.017 1263.53,865.017 1264.35,865.017 1265.17,865.017 1265.99,865.017 1266.81,865.017 1267.63,865.017 1268.44,865.017 1269.26,865.017 1270.08,865.017 1270.9,813.095 1271.72,813.095 1272.54,813.095 1273.36,813.095 1274.18,813.095 1275,813.095 1275.82,813.095 1276.64,813.095 1277.46,813.095 1278.28,813.095 1279.1,813.095 1279.92,813.095 1280.74,813.095 1281.56,813.095 1282.38,813.095 1283.2,813.095 1284.02,813.095 1284.84,813.095 1285.66,813.095 1286.48,813.095 1287.3,813.095 1288.11,813.095 1288.93,813.095 1289.75,813.095 1290.57,813.095 1291.39,813.095 1292.21,813.095 1293.03,813.095 1293.85,813.095 1294.67,813.095 1295.49,813.095 1296.31,813.095 1297.13,813.095 1297.95,813.095 1298.77,813.095 1299.59,813.095 1300.41,813.095 1301.23,813.095 1302.05,813.095 1302.87,813.095 1303.69,813.095 1304.51,813.095 1305.33,813.095 1306.15,813.095 1306.97,813.095 1307.78,813.095 1308.6,813.095 1309.42,813.095 1310.24,813.095 1311.06,813.095 1311.88,813.095 1312.7,813.095 1313.52,813.095 1314.34,813.095 1315.16,813.095 1315.98,813.095 1316.8,813.095 1317.62,813.095 1318.44,813.095 1319.26,813.095 1320.08,813.095 1320.9,813.095 1321.72,813.095 1322.54,813.095 1323.36,813.095 1324.18,813.095 1325,813.095 1325.82,813.095 1326.64,813.095 1327.45,813.095 1328.27,813.095 1329.09,813.095 1329.91,813.095 1330.73,813.095 1331.55,813.095 1332.37,813.095 1333.19,813.095 1334.01,813.095 1334.83,813.095 1335.65,813.095 1336.47,813.095 1337.29,813.095 1338.11,813.095 1338.93,813.095 1339.75,813.095 1340.57,813.095 1341.39,813.095 1342.21,813.095 1343.03,813.095 1343.85,813.095 1344.67,813.095 1345.49,813.095 1346.31,813.095 1347.12,813.095 1347.94,813.095 1348.76,813.095 1349.58,813.095 1350.4,813.095 1351.22,813.095 1352.04,813.095 1352.86,813.095 1353.68,813.095 1354.5,813.095 1355.32,813.095 1356.14,813.095 1356.96,813.095 1357.78,813.095 1358.6,813.095 1359.42,813.095 1360.24,813.095 1361.06,813.095 1361.88,813.095 1362.7,813.095 1363.52,813.095 1364.34,813.095 1365.16,813.095 1365.98,813.095 1366.79,813.095 1367.61,813.095 1368.43,813.095 1369.25,813.095 1370.07,813.095 1370.89,813.095 1371.71,813.095 1372.53,813.095 1373.35,813.095 1374.17,813.095 1374.99,813.095 1375.81,813.095 1376.63,813.095 1377.45,813.095 1378.27,813.095 1379.09,813.095 1379.91,813.095 1380.73,813.095 1381.55,813.095 1382.37,813.095 1383.19,813.095 1384.01,813.095 1384.83,813.095 1385.65,813.095 1386.46,813.095 1387.28,813.095 1388.1,813.095 1388.92,813.095 1389.74,813.095 1390.56,813.095 1391.38,813.095 1392.2,813.095 1393.02,813.095 1393.84,813.095 1394.66,813.095 1395.48,813.095 1396.3,813.095 1397.12,813.095 1397.94,813.095 1398.76,761.173 1399.58,709.251 1400.4,709.251 1401.22,709.251 1402.04,709.251 1402.86,709.251 1403.68,709.251 1404.5,709.251 1405.32,709.251 1406.14,709.251 1406.95,709.251 1407.77,709.251 1408.59,709.251 1409.41,709.251 1410.23,709.251 1411.05,709.251 1411.87,709.251 1412.69,709.251 1413.51,709.251 1414.33,709.251 1415.15,709.251 1415.97,709.251 1416.79,709.251 1417.61,709.251 1418.43,709.251 1419.25,709.251 1420.07,709.251 1420.89,709.251 1421.71,709.251 1422.53,709.251 1423.35,709.251 1424.17,709.251 1424.99,709.251 1425.81,709.251 1426.62,709.251 1427.44,709.251 1428.26,709.251 1429.08,709.251 1429.9,709.251 1430.72,709.251 1431.54,709.251 1432.36,709.251 1433.18,709.251 1434,709.251 1434.82,709.251 1435.64,709.251 1436.46,709.251 1437.28,709.251 1438.1,709.251 1438.92,709.251 1439.74,709.251 1440.56,709.251 1441.38,709.251 1442.2,709.251 1443.02,709.251 1443.84,709.251 1444.66,709.251 1445.48,709.251 1446.29,709.251 1447.11,709.251 1447.93,709.251 1448.75,709.251 1449.57,709.251 1450.39,709.251 1451.21,709.251 1452.03,709.251 1452.85,709.251 1453.67,709.251 1454.49,709.251 1455.31,709.251 1456.13,709.251 1456.95,709.251 1457.77,709.251 1458.59,709.251 1459.41,709.251 1460.23,709.251 1461.05,709.251 1461.87,709.251 1462.69,709.251 1463.51,709.251 1464.33,709.251 1465.15,709.251 1465.96,709.251 1466.78,709.251 1467.6,709.251 1468.42,709.251 1469.24,709.251 1470.06,709.251 1470.88,709.251 1471.7,709.251 1472.52,709.251 1473.34,709.251 1474.16,709.251 1474.98,709.251 1475.8,709.251 1476.62,709.251 1477.44,709.251 1478.26,709.251 1479.08,709.251 1479.9,709.251 1480.72,709.251 1481.54,709.251 1482.36,709.251 1483.18,709.251 1484,709.251 1484.82,709.251 1485.63,709.251 1486.45,709.251 1487.27,709.251 1488.09,709.251 1488.91,709.251 1489.73,709.251 1490.55,709.251 1491.37,709.251 1492.19,709.251 1493.01,709.251 1493.83,709.251 1494.65,709.251 1495.47,709.251 1496.29,709.251 1497.11,709.251 1497.93,709.251 1498.75,709.251 1499.57,709.251 1500.39,709.251 1501.21,709.251 1502.03,709.251 1502.85,709.251 1503.67,709.251 1504.49,709.251 1505.3,709.251 1506.12,709.251 1506.94,709.251 1507.76,709.251 1508.58,709.251 1509.4,709.251 1510.22,709.251 1511.04,709.251 1511.86,709.251 1512.68,709.251 1513.5,709.251 1514.32,709.251 1515.14,709.251 1515.96,709.251 1516.78,709.251 1517.6,709.251 1518.42,709.251 1519.24,709.251 1520.06,709.251 1520.88,709.251 1521.7,709.251 1522.52,709.251 1523.34,709.251 1524.16,709.251 1524.97,709.251 1525.79,709.251 1526.61,709.251 1527.43,709.251 1528.25,709.251 1529.07,709.251 1529.89,709.251 1530.71,709.251 1531.53,709.251 1532.35,709.251 1533.17,709.251 1533.99,709.251 1534.81,709.251 1535.63,709.251 1536.45,709.251 1537.27,709.251 1538.09,709.251 1538.91,709.251 1539.73,709.251 1540.55,709.251 1541.37,709.251 1542.19,709.251 1543.01,709.251 1543.83,709.251 1544.64,709.251 1545.46,709.251 1546.28,709.251 1547.1,709.251 1547.92,709.251 1548.74,709.251 1549.56,709.251 1550.38,709.251 1551.2,709.251 1552.02,709.251 1552.84,709.251 1553.66,709.251 1554.48,709.251 1555.3,709.251 1556.12,709.251 1556.94,709.251 1557.76,709.251 1558.58,709.251 1559.4,709.251 1560.22,709.251 1561.04,709.251 1561.86,709.251 1562.68,709.251 1563.5,709.251 1564.31,709.251 1565.13,709.251 1565.95,709.251 1566.77,709.251 1567.59,709.251 1568.41,709.251 1569.23,709.251 1570.05,709.251 1570.87,709.251 1571.69,709.251 1572.51,709.251 1573.33,709.251 1574.15,709.251 1574.97,709.251 1575.79,709.251 1576.61,709.251 1577.43,709.251 1578.25,709.251 1579.07,709.251 1579.89,709.251 1580.71,709.251 1581.53,709.251 1582.35,709.251 1583.17,709.251 1583.99,709.251 1584.8,709.251 1585.62,709.251 1586.44,709.251 1587.26,709.251 1588.08,709.251 1588.9,709.251 1589.72,709.251 1590.54,709.251 1591.36,709.251 1592.18,709.251 1593,709.251 1593.82,709.251 1594.64,709.251 1595.46,709.251 1596.28,709.251 1597.1,709.251 1597.92,709.251 1598.74,709.251 1599.56,709.251 1600.38,709.251 1601.2,709.251 1602.02,709.251 1602.84,709.251 1603.66,709.251 1604.47,709.251 1605.29,709.251 1606.11,709.251 1606.93,709.251 1607.75,709.251 1608.57,709.251 1609.39,709.251 1610.21,709.251 1611.03,709.251 1611.85,709.251 1612.67,709.251 1613.49,709.251 1614.31,709.251 1615.13,709.251 1615.95,709.251 1616.77,709.251 1617.59,709.251 1618.41,709.251 1619.23,709.251 1620.05,709.251 1620.87,709.251 1621.69,709.251 1622.51,709.251 1623.33,709.251 1624.14,709.251 1624.96,709.251 1625.78,709.251 1626.6,709.251 1627.42,709.251 1628.24,709.251 1629.06,709.251 1629.88,709.251 1630.7,709.251 1631.52,709.251 1632.34,709.251 1633.16,709.251 1633.98,709.251 1634.8,709.251 1635.62,709.251 1636.44,709.251 1637.26,709.251 1638.08,709.251 1638.9,709.251 1639.72,709.251 1640.54,709.251 1641.36,709.251 1642.18,709.251 1643,709.251 1643.81,709.251 1644.63,709.251 1645.45,709.251 1646.27,709.251 1647.09,709.251 1647.91,709.251 1648.73,709.251 1649.55,709.251 1650.37,709.251 1651.19,709.251 1652.01,709.251 1652.83,709.251 1653.65,709.251 1654.47,709.251 1655.29,709.251 1656.11,709.251 1656.93,709.251 1657.75,709.251 1658.57,709.251 1659.39,709.251 1660.21,709.251 1661.03,709.251 1661.85,709.251 1662.67,709.251 1663.48,709.251 1664.3,709.251 1665.12,709.251 1665.94,709.251 1666.76,709.251 1667.58,709.251 1668.4,709.251 1669.22,709.251 1670.04,709.251 1670.86,709.251 1671.68,709.251 1672.5,709.251 1673.32,709.251 1674.14,709.251 1674.96,709.251 1675.78,709.251 1676.6,709.251 1677.42,709.251 1678.24,709.251 1679.06,709.251 1679.88,709.251 1680.7,709.251 1681.52,709.251 1682.34,709.251 1683.15,709.251 1683.97,709.251 1684.79,709.251 1685.61,709.251 1686.43,709.251 1687.25,709.251 1688.07,709.251 1688.89,709.251 1689.71,709.251 1690.53,709.251 1691.35,709.251 1692.17,709.251 1692.99,709.251 1693.81,657.329 1694.63,657.329 1695.45,657.329 1696.27,657.329 1697.09,657.329 1697.91,657.329 1698.73,657.329 1699.55,657.329 1700.37,657.329 1701.19,605.407 1702.01,605.407 1702.82,605.407 1703.64,605.407 1704.46,605.407 1705.28,605.407 1706.1,605.407 1706.92,605.407 1707.74,553.485 1708.56,553.485 1709.38,553.485 1710.2,553.485 1711.02,553.485 1711.84,553.485 1712.66,553.485 1713.48,553.485 1714.3,553.485 1715.12,553.485 1715.94,553.485 1716.76,553.485 1717.58,553.485 1718.4,553.485 1719.22,553.485 1720.04,553.485 1720.86,553.485 1721.68,553.485 1722.49,553.485 1723.31,553.485 1724.13,553.485 1724.95,553.485 1725.77,553.485 1726.59,553.485 1727.41,553.485 1728.23,553.485 1729.05,553.485 1729.87,553.485 1730.69,553.485 1731.51,553.485 1732.33,553.485 1733.15,553.485 1733.97,553.485 1734.79,553.485 1735.61,553.485 1736.43,553.485 1737.25,553.485 1738.07,553.485 1738.89,553.485 1739.71,553.485 1740.53,553.485 1741.35,553.485 1742.16,553.485 1742.98,553.485 1743.8,553.485 1744.62,553.485 1745.44,553.485 1746.26,553.485 1747.08,553.485 1747.9,553.485 1748.72,553.485 1749.54,553.485 1750.36,553.485 1751.18,553.485 1752,553.485 1752.82,553.485 1753.64,553.485 1754.46,553.485 1755.28,553.485 1756.1,553.485 1756.92,553.485 1757.74,553.485 1758.56,553.485 1759.38,553.485 1760.2,553.485 1761.02,553.485 1761.84,553.485 1762.65,553.485 1763.47,553.485 1764.29,553.485 1765.11,553.485 1765.93,553.485 1766.75,553.485 1767.57,553.485 1768.39,553.485 1769.21,553.485 1770.03,553.485 1770.85,553.485 1771.67,553.485 1772.49,553.485 1773.31,553.485 1774.13,553.485 1774.95,553.485 1775.77,553.485 1776.59,553.485 1777.41,553.485 1778.23,553.485 1779.05,553.485 1779.87,553.485 1780.69,501.563 1781.51,501.563 1782.32,501.563 1783.14,501.563 1783.96,501.563 1784.78,501.563 1785.6,501.563 1786.42,501.563 1787.24,501.563 1788.06,501.563 1788.88,501.563 1789.7,501.563 1790.52,501.563 1791.34,501.563 1792.16,501.563 1792.98,449.64 1793.8,449.64 1794.62,449.64 1795.44,449.64 1796.26,449.64 1797.08,449.64 1797.9,449.64 1798.72,449.64 1799.54,449.64 1800.36,449.64 1801.18,449.64 1801.99,449.64 1802.81,449.64 1803.63,449.64 1804.45,449.64 1805.27,449.64 1806.09,449.64 1806.91,449.64 1807.73,397.718 1808.55,397.718 1809.37,397.718 1810.19,397.718 1811.01,397.718 1811.83,397.718 1812.65,397.718 1813.47,397.718 1814.29,397.718 1815.11,397.718 1815.93,397.718 1816.75,397.718 1817.57,397.718 1818.39,397.718 1819.21,397.718 1820.03,397.718 1820.85,397.718 1821.66,397.718 1822.48,397.718 1823.3,345.796 1824.12,345.796 1824.94,345.796 1825.76,345.796 1826.58,345.796 1827.4,345.796 1828.22,345.796 1829.04,345.796 1829.86,345.796 1830.68,345.796 1831.5,345.796 1832.32,345.796 1833.14,345.796 1833.96,345.796 1834.78,345.796 1835.6,345.796 1836.42,345.796 1837.24,345.796 1838.06,345.796 1838.88,345.796 1839.7,345.796 1840.52,345.796 1841.33,345.796 1842.15,345.796 1842.97,345.796 1843.79,345.796 1844.61,345.796 1845.43,345.796 1846.25,345.796 1847.07,345.796 1847.89,345.796 1848.71,345.796 1849.53,345.796 1850.35,345.796 1851.17,345.796 1851.99,345.796 1852.81,345.796 1853.63,345.796 1854.45,345.796 1855.27,345.796 1856.09,345.796 1856.91,345.796 1857.73,345.796 1858.55,345.796 1859.37,345.796 1860.19,345.796 1861,345.796 1861.82,345.796 1862.64,345.796 1863.46,345.796 1864.28,345.796 1865.1,345.796 1865.92,345.796 1866.74,345.796 1867.56,345.796 1868.38,345.796 1869.2,345.796 1870.02,345.796 1870.84,345.796 1871.66,345.796 1872.48,345.796 1873.3,345.796 1874.12,345.796 1874.94,345.796 1875.76,345.796 1876.58,345.796 1877.4,345.796 1878.22,293.874 1879.04,293.874 1879.86,293.874 1880.67,293.874 1881.49,293.874 1882.31,293.874 1883.13,293.874 1883.95,293.874 1884.77,293.874 1885.59,293.874 1886.41,293.874 1887.23,293.874 1888.05,293.874 1888.87,293.874 1889.69,293.874 1890.51,293.874 1891.33,293.874 1892.15,293.874 1892.97,293.874 1893.79,293.874 1894.61,293.874 1895.43,293.874 1896.25,293.874 1897.07,241.952 1897.89,241.952 1898.71,241.952 1899.53,241.952 1900.34,241.952 1901.16,241.952 1901.98,241.952 1902.8,241.952 1903.62,241.952 1904.44,241.952 1905.26,241.952 1906.08,241.952 1906.9,241.952 1907.72,241.952 1908.54,241.952 1909.36,241.952 1910.18,241.952 1911,241.952 1911.82,241.952 1912.64,241.952 1913.46,241.952 1914.28,241.952 1915.1,241.952 1915.92,241.952 1916.74,241.952 1917.56,241.952 1918.38,241.952 1919.2,241.952 1920.01,241.952 1920.83,241.952 1921.65,241.952 1922.47,241.952 1923.29,241.952 1924.11,241.952 1924.93,241.952 1925.75,241.952 1926.57,241.952 1927.39,241.952 1928.21,241.952 1929.03,190.03 1929.85,190.03 1930.67,190.03 1931.49,190.03 1932.31,190.03 1933.13,190.03 1933.95,190.03 1934.77,190.03 1935.59,190.03 1936.41,190.03 1937.23,190.03 1938.05,190.03 1938.87,190.03 1939.68,190.03 1940.5,190.03 1941.32,190.03 1942.14,190.03 1942.96,190.03 1943.78,190.03 1944.6,190.03 1945.42,190.03 1946.24,190.03 1947.06,190.03 1947.88,190.03 1948.7,190.03 1949.52,190.03 1950.34,190.03 1951.16,190.03 1951.98,190.03 1952.8,190.03 1953.62,190.03 1954.44,190.03 1955.26,190.03 1956.08,190.03 1956.9,190.03 1957.72,190.03 1958.54,190.03 1959.36,190.03 1960.17,190.03 1960.99,190.03 1961.81,190.03 1962.63,190.03 1963.45,190.03 1964.27,190.03 1965.09,190.03 1965.91,190.03 1966.73,190.03 1967.55,190.03 1968.37,190.03 1969.19,190.03 1970.01,190.03 1970.83,190.03 1971.65,190.03 1972.47,190.03 1973.29,190.03 1974.11,190.03 1974.93,190.03 1975.75,190.03 1976.57,190.03 1977.39,190.03 1978.21,190.03 1979.03,190.03 1979.84,190.03 1980.66,190.03 1981.48,190.03 1982.3,190.03 1983.12,190.03 1983.94,190.03 1984.76,190.03 1985.58,190.03 1986.4,190.03 1987.22,190.03 1988.04,190.03 1988.86,190.03 1989.68,190.03 1990.5,190.03 1991.32,190.03 1992.14,190.03 1992.96,190.03 1993.78,190.03 1994.6,190.03 1995.42,190.03 1996.24,190.03 1997.06,190.03 1997.88,190.03 1998.7,190.03 1999.51,190.03 2000.33,190.03 2001.15,190.03 2001.97,190.03 2002.79,190.03 2003.61,190.03 2004.43,190.03 2005.25,190.03 2006.07,190.03 2006.89,190.03 2007.71,190.03 2008.53,190.03 2009.35,190.03 2010.17,190.03 2010.99,190.03 2011.81,190.03 2012.63,190.03 2013.45,190.03 2014.27,190.03 2015.09,190.03 2015.91,190.03 2016.73,190.03 2017.55,190.03 2018.37,190.03 2019.18,190.03 2020,190.03 2020.82,190.03 2021.64,190.03 2022.46,190.03 2023.28,190.03 2024.1,190.03 2024.92,190.03 2025.74,190.03 2026.56,190.03 2027.38,190.03 2028.2,190.03 2029.02,190.03 2029.84,190.03 2030.66,190.03 2031.48,190.03 2032.3,190.03 2033.12,190.03 2033.94,190.03 2034.76,190.03 2035.58,190.03 2036.4,190.03 2037.22,190.03 2038.04,190.03 2038.85,190.03 2039.67,190.03 2040.49,190.03 2041.31,190.03 2042.13,190.03 2042.95,190.03 2043.77,190.03 2044.59,190.03 2045.41,190.03 2046.23,190.03 2047.05,190.03 2047.87,190.03 2048.69,190.03 2049.51,190.03 2050.33,190.03 2051.15,190.03 2051.97,190.03 2052.79,190.03 2053.61,190.03 2054.43,190.03 2055.25,190.03 2056.07,190.03 2056.89,190.03 2057.71,190.03 2058.52,190.03 2059.34,190.03 2060.16,190.03 2060.98,190.03 2061.8,190.03 2062.62,190.03 2063.44,190.03 2064.26,190.03 2065.08,190.03 2065.9,190.03 2066.72,190.03 2067.54,190.03 2068.36,190.03 2069.18,190.03 2070,190.03 2070.82,190.03 2071.64,190.03 2072.46,190.03 2073.28,190.03 2074.1,190.03 2074.92,190.03 2075.74,190.03 2076.56,190.03 2077.38,190.03 2078.19,190.03 2079.01,190.03 2079.83,190.03 2080.65,190.03 2081.47,190.03 2082.29,190.03 2083.11,190.03 2083.93,190.03 2084.75,190.03 2085.57,190.03 2086.39,190.03 2087.21,190.03 2088.03,190.03 2088.85,190.03 2089.67,190.03 2090.49,190.03 2091.31,190.03 2092.13,190.03 2092.95,190.03 2093.77,190.03 2094.59,190.03 2095.41,190.03 2096.23,190.03 2097.05,190.03 2097.86,190.03 2098.68,190.03 2099.5,190.03 2100.32,190.03 2101.14,190.03 2101.96,190.03 2102.78,190.03 2103.6,190.03 2104.42,190.03 2105.24,190.03 2106.06,190.03 2106.88,190.03 2107.7,190.03 2108.52,190.03 2109.34,190.03 2110.16,190.03 2110.98,190.03 2111.8,190.03 2112.62,190.03 2113.44,190.03 2114.26,190.03 2115.08,190.03 2115.9,190.03 2116.72,190.03 2117.53,190.03 2118.35,190.03 2119.17,190.03 2119.99,190.03 2120.81,190.03 2121.63,190.03 2122.45,138.108 2123.27,138.108 2124.09,138.108 2124.91,138.108 2125.73,138.108 2126.55,138.108 2127.37,138.108 2128.19,138.108 2129.01,138.108 2129.83,138.108 2130.65,138.108 2131.47,138.108 2132.29,138.108 2133.11,138.108 2133.93,138.108 2134.75,138.108 2135.57,138.108 2136.39,138.108 2137.21,138.108 2138.02,138.108 2138.84,138.108 2139.66,138.108 2140.48,138.108 2141.3,138.108 2142.12,138.108 2142.94,138.108 2143.76,138.108 2144.58,138.108 2145.4,138.108 2146.22,138.108 2147.04,138.108 2147.86,138.108 2148.68,138.108 2149.5,138.108 2150.32,138.108 2151.14,138.108 2151.96,138.108 2152.78,138.108 2153.6,138.108 2154.42,138.108 2155.24,138.108 2156.06,138.108 2156.88,138.108 2157.69,138.108 2158.51,138.108 2159.33,138.108 2160.15,138.108 2160.97,138.108 2161.79,138.108 2162.61,138.108 2163.43,138.108 2164.25,138.108 2165.07,138.108 2165.89,138.108 2166.71,138.108 2167.53,138.108 2168.35,138.108 2169.17,138.108 2169.99,138.108 2170.81,138.108 2171.63,138.108 2172.45,138.108 2173.27,138.108 2174.09,138.108 2174.91,138.108 2175.73,138.108 2176.55,138.108 2177.36,138.108 2178.18,86.1857 2179,86.1857 2179.82,86.1857 2180.64,86.1857 2181.46,86.1857 2182.28,86.1857 2183.1,86.1857 2183.92,86.1857 2184.74,86.1857 2185.56,86.1857 2186.38,86.1857 2187.2,86.1857 2188.02,86.1857 2188.84,86.1857 2189.66,86.1857 2190.48,86.1857 2191.3,86.1857 2192.12,86.1857 2192.94,86.1857 2193.76,86.1857 2194.58,86.1857 2195.4,86.1857 2196.22,86.1857 2197.03,86.1857 2197.85,86.1857 2198.67,86.1857 2199.49,86.1857 2200.31,86.1857 2201.13,86.1857 2201.95,86.1857 2202.77,86.1857 2203.59,86.1857 2204.41,86.1857 2205.23,86.1857 2206.05,86.1857 2206.87,86.1857 2207.69,86.1857 2208.51,86.1857 2209.33,86.1857 2210.15,86.1857 2210.97,86.1857 2211.79,86.1857 2212.61,86.1857 2213.43,86.1857 2214.25,86.1857 2215.07,86.1857 2215.89,86.1857 2216.7,86.1857 2217.52,86.1857 2218.34,86.1857 2219.16,86.1857 2219.98,86.1857 2220.8,86.1857 2221.62,86.1857 2222.44,86.1857 2223.26,86.1857 2224.08,86.1857 2224.9,86.1857 2225.72,86.1857 2226.54,86.1857 2227.36,86.1857 2228.18,86.1857 2229,86.1857 2229.82,86.1857 2230.64,86.1857 2231.46,86.1857 2232.28,86.1857 2233.1,86.1857 2233.92,86.1857 2234.74,86.1857 2235.56,86.1857 2236.37,86.1857 2237.19,86.1857 2238.01,86.1857 2238.83,86.1857 2239.65,86.1857 2240.47,86.1857 2241.29,86.1857 2242.11,86.1857 2242.93,86.1857 2243.75,86.1857 2244.57,86.1857 2245.39,86.1857 2246.21,86.1857 2247.03,86.1857 2247.85,86.1857 2248.67,86.1857 2249.49,86.1857 2250.31,86.1857 2251.13,86.1857 2251.95,86.1857 2252.77,86.1857 2253.59,86.1857 2254.41,86.1857 2255.23,86.1857 2256.04,86.1857 2256.86,86.1857 2257.68,86.1857 2258.5,86.1857 2259.32,86.1857 2260.14,86.1857 2260.96,86.1857 2261.78,86.1857 2262.6,86.1857 2263.42,86.1857 2264.24,86.1857 2265.06,86.1857 2265.88,86.1857 2266.7,86.1857 2267.52,86.1857 2268.34,86.1857 2269.16,86.1857 2269.98,86.1857 2270.8,86.1857 2271.62,86.1857 2272.44,86.1857 2273.26,86.1857 2274.08,86.1857 2274.9,86.1857 2275.71,86.1857 2276.53,86.1857 2277.35,86.1857 2278.17,86.1857 2278.99,86.1857 2279.81,86.1857 2280.63,86.1857 2281.45,86.1857 2282.27,86.1857 2283.09,86.1857 2283.91,86.1857 2284.73,86.1857 2285.55,86.1857 2286.37,86.1857 2287.19,86.1857 2288.01,86.1857 2288.83,86.1857 2289.65,86.1857 2290.47,86.1857 2291.29,86.1857 2292.11,86.1857 2292.93,86.1857 2293.75,86.1857 2294.57,86.1857 2295.38,86.1857 2296.2,86.1857 2297.02,86.1857 2297.84,86.1857 2298.66,86.1857 2299.48,86.1857 2300.3,86.1857 2301.12,86.1857 2301.94,86.1857 2302.76,86.1857 2303.58,86.1857 2304.4,86.1857 2305.22,86.1857 2306.04,86.1857 2306.86,86.1857 2307.68,86.1857 2308.5,86.1857 2309.32,86.1857 2310.14,86.1857 2310.96,86.1857 2311.78,86.1857 2312.6,86.1857 2313.42,86.1857 2314.24,86.1857 2315.05,86.1857 2315.87,86.1857 2316.69,86.1857 2317.51,86.1857 2318.33,86.1857 2319.15,86.1857 2319.97,86.1857 2320.79,86.1857 2321.61,86.1857 2322.43,86.1857 2323.25,86.1857 2324.07,86.1857 2324.89,86.1857 2325.71,86.1857 2326.53,86.1857 2327.35,86.1857 2328.17,86.1857 2328.99,86.1857 2329.81,86.1857 2330.63,86.1857 2331.45,86.1857 2332.27,86.1857 2333.09,86.1857 2333.91,86.1857 2334.73,86.1857 2335.54,86.1857 2336.36,86.1857 2337.18,86.1857 2338,86.1857 2338.82,86.1857 2339.64,86.1857 2340.46,86.1857 2341.28,86.1857 2342.1,86.1857 2342.92,86.1857 2343.74,86.1857 2344.56,86.1857 2345.38,86.1857 2346.2,86.1857 2347.02,86.1857 2347.84,86.1857 2348.66,86.1857 2349.48,86.1857 2350.3,86.1857 2351.12,86.1857 2351.94,86.1857 2352.76,86.1857 "/>
<path clip-path="url(#clip050)" d="M1975.5 1377.32 L2279.02 1377.32 L2279.02 1273.64 L1975.5 1273.64  Z" fill="#ffffff" fill-rule="evenodd" fill-opacity="1"/>
<polyline clip-path="url(#clip050)" style="stroke:#000000; stroke-linecap:round; stroke-linejoin:round; stroke-width:4; stroke-opacity:1; fill:none" points="1975.5,1377.32 2279.02,1377.32 2279.02,1273.64 1975.5,1273.64 1975.5,1377.32 "/>
<polyline clip-path="url(#clip050)" style="stroke:#009af9; stroke-linecap:round; stroke-linejoin:round; stroke-width:8; stroke-opacity:1; fill:none" points="2000.08,1325.48 2147.55,1325.48 "/>
<path clip-path="url(#clip050)" d="M2172.13 1308.2 L2178.42 1308.2 L2193.75 1337.11 L2193.75 1308.2 L2198.29 1308.2 L2198.29 1342.76 L2191.99 1342.76 L2176.66 1313.84 L2176.66 1342.76 L2172.13 1342.76 L2172.13 1308.2 Z" fill="#000000" fill-rule="nonzero" fill-opacity="1" /><path clip-path="url(#clip050)" d="M2217.64 1306.78 Q2214.53 1312.11 2213.03 1317.32 Q2211.53 1322.52 2211.53 1327.87 Q2211.53 1333.22 2213.03 1338.47 Q2214.56 1343.7 2217.64 1349.01 L2213.93 1349.01 Q2210.46 1343.57 2208.72 1338.31 Q2207.01 1333.06 2207.01 1327.87 Q2207.01 1322.71 2208.72 1317.48 Q2210.44 1312.25 2213.93 1306.78 L2217.64 1306.78 Z" fill="#000000" fill-rule="nonzero" fill-opacity="1" /><path clip-path="url(#clip050)" d="M2230.11 1309.47 L2230.11 1316.83 L2238.89 1316.83 L2238.89 1320.14 L2230.11 1320.14 L2230.11 1334.21 Q2230.11 1337.38 2230.97 1338.29 Q2231.85 1339.19 2234.51 1339.19 L2238.89 1339.19 L2238.89 1342.76 L2234.51 1342.76 Q2229.58 1342.76 2227.71 1340.93 Q2225.83 1339.07 2225.83 1334.21 L2225.83 1320.14 L2222.71 1320.14 L2222.71 1316.83 L2225.83 1316.83 L2225.83 1309.47 L2230.11 1309.47 Z" fill="#000000" fill-rule="nonzero" fill-opacity="1" /><path clip-path="url(#clip050)" d="M2243.82 1306.78 L2247.52 1306.78 Q2250.99 1312.25 2252.71 1317.48 Q2254.44 1322.71 2254.44 1327.87 Q2254.44 1333.06 2252.71 1338.31 Q2250.99 1343.57 2247.52 1349.01 L2243.82 1349.01 Q2246.9 1343.7 2248.4 1338.47 Q2249.93 1333.22 2249.93 1327.87 Q2249.93 1322.52 2248.4 1317.32 Q2246.9 1312.11 2243.82 1306.78 Z" fill="#000000" fill-rule="nonzero" fill-opacity="1" /></svg>
