<?xml version="1.0" encoding="utf-8"?>
<svg xmlns="http://www.w3.org/2000/svg" xmlns:xlink="http://www.w3.org/1999/xlink" width="600" height="400" viewBox="0 0 2400 1600">
<defs>
  <clipPath id="clip590">
    <rect x="0" y="0" width="2400" height="1600"/>
  </clipPath>
</defs>
<path clip-path="url(#clip590)" d="M0 1600 L2400 1600 L2400 0 L0 0  Z" fill="#ffffff" fill-rule="evenodd" fill-opacity="1"/>
<defs>
  <clipPath id="clip591">
    <rect x="480" y="0" width="1681" height="1600"/>
  </clipPath>
</defs>
<path clip-path="url(#clip590)" d="M110.858 1486.45 L2352.76 1486.45 L2352.76 47.2441 L110.858 47.2441  Z" fill="#ffffff" fill-rule="evenodd" fill-opacity="1"/>
<defs>
  <clipPath id="clip592">
    <rect x="110" y="47" width="2243" height="1440"/>
  </clipPath>
</defs>
<polyline clip-path="url(#clip592)" style="stroke:#000000; stroke-linecap:round; stroke-linejoin:round; stroke-width:2; stroke-opacity:0.1; fill:none" points="172.433,1486.45 172.433,47.2441 "/>
<polyline clip-path="url(#clip592)" style="stroke:#000000; stroke-linecap:round; stroke-linejoin:round; stroke-width:2; stroke-opacity:0.1; fill:none" points="641.182,1486.45 641.182,47.2441 "/>
<polyline clip-path="url(#clip592)" style="stroke:#000000; stroke-linecap:round; stroke-linejoin:round; stroke-width:2; stroke-opacity:0.1; fill:none" points="1109.93,1486.45 1109.93,47.2441 "/>
<polyline clip-path="url(#clip592)" style="stroke:#000000; stroke-linecap:round; stroke-linejoin:round; stroke-width:2; stroke-opacity:0.1; fill:none" points="1578.68,1486.45 1578.68,47.2441 "/>
<polyline clip-path="url(#clip592)" style="stroke:#000000; stroke-linecap:round; stroke-linejoin:round; stroke-width:2; stroke-opacity:0.1; fill:none" points="2047.43,1486.45 2047.43,47.2441 "/>
<polyline clip-path="url(#clip592)" style="stroke:#000000; stroke-linecap:round; stroke-linejoin:round; stroke-width:2; stroke-opacity:0.1; fill:none" points="110.858,1445.72 2352.76,1445.72 "/>
<polyline clip-path="url(#clip592)" style="stroke:#000000; stroke-linecap:round; stroke-linejoin:round; stroke-width:2; stroke-opacity:0.1; fill:none" points="110.858,1034.65 2352.76,1034.65 "/>
<polyline clip-path="url(#clip592)" style="stroke:#000000; stroke-linecap:round; stroke-linejoin:round; stroke-width:2; stroke-opacity:0.1; fill:none" points="110.858,623.579 2352.76,623.579 "/>
<polyline clip-path="url(#clip592)" style="stroke:#000000; stroke-linecap:round; stroke-linejoin:round; stroke-width:2; stroke-opacity:0.1; fill:none" points="110.858,212.511 2352.76,212.511 "/>
<polyline clip-path="url(#clip590)" style="stroke:#000000; stroke-linecap:round; stroke-linejoin:round; stroke-width:4; stroke-opacity:1; fill:none" points="110.858,1486.45 2352.76,1486.45 "/>
<polyline clip-path="url(#clip590)" style="stroke:#000000; stroke-linecap:round; stroke-linejoin:round; stroke-width:4; stroke-opacity:1; fill:none" points="172.433,1486.45 172.433,1467.55 "/>
<polyline clip-path="url(#clip590)" style="stroke:#000000; stroke-linecap:round; stroke-linejoin:round; stroke-width:4; stroke-opacity:1; fill:none" points="641.182,1486.45 641.182,1467.55 "/>
<polyline clip-path="url(#clip590)" style="stroke:#000000; stroke-linecap:round; stroke-linejoin:round; stroke-width:4; stroke-opacity:1; fill:none" points="1109.93,1486.45 1109.93,1467.55 "/>
<polyline clip-path="url(#clip590)" style="stroke:#000000; stroke-linecap:round; stroke-linejoin:round; stroke-width:4; stroke-opacity:1; fill:none" points="1578.68,1486.45 1578.68,1467.55 "/>
<polyline clip-path="url(#clip590)" style="stroke:#000000; stroke-linecap:round; stroke-linejoin:round; stroke-width:4; stroke-opacity:1; fill:none" points="2047.43,1486.45 2047.43,1467.55 "/>
<path clip-path="url(#clip590)" d="M172.433 1517.37 Q168.822 1517.37 166.993 1520.93 Q165.187 1524.47 165.187 1531.6 Q165.187 1538.71 166.993 1542.27 Q168.822 1545.82 172.433 1545.82 Q176.067 1545.82 177.872 1542.27 Q179.701 1538.71 179.701 1531.6 Q179.701 1524.47 177.872 1520.93 Q176.067 1517.37 172.433 1517.37 M172.433 1513.66 Q178.243 1513.66 181.298 1518.27 Q184.377 1522.85 184.377 1531.6 Q184.377 1540.33 181.298 1544.94 Q178.243 1549.52 172.433 1549.52 Q166.623 1549.52 163.544 1544.94 Q160.488 1540.33 160.488 1531.6 Q160.488 1522.85 163.544 1518.27 Q166.623 1513.66 172.433 1513.66 Z" fill="#000000" fill-rule="nonzero" fill-opacity="1" /><path clip-path="url(#clip590)" d="M604.875 1544.91 L621.194 1544.91 L621.194 1548.85 L599.25 1548.85 L599.25 1544.91 Q601.912 1542.16 606.495 1537.53 Q611.101 1532.88 612.282 1531.53 Q614.527 1529.01 615.407 1527.27 Q616.31 1525.51 616.31 1523.82 Q616.31 1521.07 614.365 1519.33 Q612.444 1517.6 609.342 1517.6 Q607.143 1517.6 604.689 1518.36 Q602.259 1519.13 599.481 1520.68 L599.481 1515.95 Q602.305 1514.82 604.759 1514.24 Q607.213 1513.66 609.25 1513.66 Q614.62 1513.66 617.814 1516.35 Q621.009 1519.03 621.009 1523.52 Q621.009 1525.65 620.199 1527.57 Q619.412 1529.47 617.305 1532.07 Q616.726 1532.74 613.625 1535.95 Q610.523 1539.15 604.875 1544.91 Z" fill="#000000" fill-rule="nonzero" fill-opacity="1" /><path clip-path="url(#clip590)" d="M631.055 1514.29 L649.411 1514.29 L649.411 1518.22 L635.337 1518.22 L635.337 1526.7 Q636.356 1526.35 637.374 1526.19 Q638.393 1526 639.411 1526 Q645.198 1526 648.578 1529.17 Q651.958 1532.34 651.958 1537.76 Q651.958 1543.34 648.486 1546.44 Q645.013 1549.52 638.694 1549.52 Q636.518 1549.52 634.249 1549.15 Q632.004 1548.78 629.597 1548.04 L629.597 1543.34 Q631.68 1544.47 633.902 1545.03 Q636.124 1545.58 638.601 1545.58 Q642.606 1545.58 644.944 1543.48 Q647.282 1541.37 647.282 1537.76 Q647.282 1534.15 644.944 1532.04 Q642.606 1529.94 638.601 1529.94 Q636.726 1529.94 634.851 1530.35 Q632.999 1530.77 631.055 1531.65 L631.055 1514.29 Z" fill="#000000" fill-rule="nonzero" fill-opacity="1" /><path clip-path="url(#clip590)" d="M671.171 1517.37 Q667.559 1517.37 665.731 1520.93 Q663.925 1524.47 663.925 1531.6 Q663.925 1538.71 665.731 1542.27 Q667.559 1545.82 671.171 1545.82 Q674.805 1545.82 676.61 1542.27 Q678.439 1538.71 678.439 1531.6 Q678.439 1524.47 676.61 1520.93 Q674.805 1517.37 671.171 1517.37 M671.171 1513.66 Q676.981 1513.66 680.036 1518.27 Q683.115 1522.85 683.115 1531.6 Q683.115 1540.33 680.036 1544.94 Q676.981 1549.52 671.171 1549.52 Q665.36 1549.52 662.282 1544.94 Q659.226 1540.33 659.226 1531.6 Q659.226 1522.85 662.282 1518.27 Q665.36 1513.66 671.171 1513.66 Z" fill="#000000" fill-rule="nonzero" fill-opacity="1" /><path clip-path="url(#clip590)" d="M1069.55 1514.29 L1087.91 1514.29 L1087.91 1518.22 L1073.83 1518.22 L1073.83 1526.7 Q1074.85 1526.35 1075.87 1526.19 Q1076.89 1526 1077.91 1526 Q1083.69 1526 1087.07 1529.17 Q1090.45 1532.34 1090.45 1537.76 Q1090.45 1543.34 1086.98 1546.44 Q1083.51 1549.52 1077.19 1549.52 Q1075.01 1549.52 1072.74 1549.15 Q1070.5 1548.78 1068.09 1548.04 L1068.09 1543.34 Q1070.18 1544.47 1072.4 1545.03 Q1074.62 1545.58 1077.1 1545.58 Q1081.1 1545.58 1083.44 1543.48 Q1085.78 1541.37 1085.78 1537.76 Q1085.78 1534.15 1083.44 1532.04 Q1081.1 1529.94 1077.1 1529.94 Q1075.22 1529.94 1073.35 1530.35 Q1071.49 1530.77 1069.55 1531.65 L1069.55 1514.29 Z" fill="#000000" fill-rule="nonzero" fill-opacity="1" /><path clip-path="url(#clip590)" d="M1109.67 1517.37 Q1106.05 1517.37 1104.23 1520.93 Q1102.42 1524.47 1102.42 1531.6 Q1102.42 1538.71 1104.23 1542.27 Q1106.05 1545.82 1109.67 1545.82 Q1113.3 1545.82 1115.11 1542.27 Q1116.93 1538.71 1116.93 1531.6 Q1116.93 1524.47 1115.11 1520.93 Q1113.3 1517.37 1109.67 1517.37 M1109.67 1513.66 Q1115.48 1513.66 1118.53 1518.27 Q1121.61 1522.85 1121.61 1531.6 Q1121.61 1540.33 1118.53 1544.94 Q1115.48 1549.52 1109.67 1549.52 Q1103.86 1549.52 1100.78 1544.94 Q1097.72 1540.33 1097.72 1531.6 Q1097.72 1522.85 1100.78 1518.27 Q1103.86 1513.66 1109.67 1513.66 Z" fill="#000000" fill-rule="nonzero" fill-opacity="1" /><path clip-path="url(#clip590)" d="M1139.83 1517.37 Q1136.22 1517.37 1134.39 1520.93 Q1132.58 1524.47 1132.58 1531.6 Q1132.58 1538.71 1134.39 1542.27 Q1136.22 1545.82 1139.83 1545.82 Q1143.46 1545.82 1145.27 1542.27 Q1147.1 1538.71 1147.1 1531.6 Q1147.1 1524.47 1145.27 1520.93 Q1143.46 1517.37 1139.83 1517.37 M1139.83 1513.66 Q1145.64 1513.66 1148.69 1518.27 Q1151.77 1522.85 1151.77 1531.6 Q1151.77 1540.33 1148.69 1544.94 Q1145.64 1549.52 1139.83 1549.52 Q1134.02 1549.52 1130.94 1544.94 Q1127.88 1540.33 1127.88 1531.6 Q1127.88 1522.85 1130.94 1518.27 Q1134.02 1513.66 1139.83 1513.66 Z" fill="#000000" fill-rule="nonzero" fill-opacity="1" /><path clip-path="url(#clip590)" d="M1536.96 1514.29 L1559.18 1514.29 L1559.18 1516.28 L1546.63 1548.85 L1541.75 1548.85 L1553.55 1518.22 L1536.96 1518.22 L1536.96 1514.29 Z" fill="#000000" fill-rule="nonzero" fill-opacity="1" /><path clip-path="url(#clip590)" d="M1568.35 1514.29 L1586.7 1514.29 L1586.7 1518.22 L1572.63 1518.22 L1572.63 1526.7 Q1573.65 1526.35 1574.67 1526.19 Q1575.68 1526 1576.7 1526 Q1582.49 1526 1585.87 1529.17 Q1589.25 1532.34 1589.25 1537.76 Q1589.25 1543.34 1585.78 1546.44 Q1582.3 1549.52 1575.98 1549.52 Q1573.81 1549.52 1571.54 1549.15 Q1569.3 1548.78 1566.89 1548.04 L1566.89 1543.34 Q1568.97 1544.47 1571.19 1545.03 Q1573.42 1545.58 1575.89 1545.58 Q1579.9 1545.58 1582.23 1543.48 Q1584.57 1541.37 1584.57 1537.76 Q1584.57 1534.15 1582.23 1532.04 Q1579.9 1529.94 1575.89 1529.94 Q1574.02 1529.94 1572.14 1530.35 Q1570.29 1530.77 1568.35 1531.65 L1568.35 1514.29 Z" fill="#000000" fill-rule="nonzero" fill-opacity="1" /><path clip-path="url(#clip590)" d="M1608.46 1517.37 Q1604.85 1517.37 1603.02 1520.93 Q1601.22 1524.47 1601.22 1531.6 Q1601.22 1538.71 1603.02 1542.27 Q1604.85 1545.82 1608.46 1545.82 Q1612.1 1545.82 1613.9 1542.27 Q1615.73 1538.71 1615.73 1531.6 Q1615.73 1524.47 1613.9 1520.93 Q1612.1 1517.37 1608.46 1517.37 M1608.46 1513.66 Q1614.27 1513.66 1617.33 1518.27 Q1620.41 1522.85 1620.41 1531.6 Q1620.41 1540.33 1617.33 1544.94 Q1614.27 1549.52 1608.46 1549.52 Q1602.65 1549.52 1599.57 1544.94 Q1596.52 1540.33 1596.52 1531.6 Q1596.52 1522.85 1599.57 1518.27 Q1602.65 1513.66 1608.46 1513.66 Z" fill="#000000" fill-rule="nonzero" fill-opacity="1" /><path clip-path="url(#clip590)" d="M1991.96 1544.91 L1999.6 1544.91 L1999.6 1518.55 L1991.29 1520.21 L1991.29 1515.95 L1999.55 1514.29 L2004.23 1514.29 L2004.23 1544.91 L2011.86 1544.91 L2011.86 1548.85 L1991.96 1548.85 L1991.96 1544.91 Z" fill="#000000" fill-rule="nonzero" fill-opacity="1" /><path clip-path="url(#clip590)" d="M2031.31 1517.37 Q2027.7 1517.37 2025.87 1520.93 Q2024.06 1524.47 2024.06 1531.6 Q2024.06 1538.71 2025.87 1542.27 Q2027.7 1545.82 2031.31 1545.82 Q2034.94 1545.82 2036.75 1542.27 Q2038.58 1538.71 2038.58 1531.6 Q2038.58 1524.47 2036.75 1520.93 Q2034.94 1517.37 2031.31 1517.37 M2031.31 1513.66 Q2037.12 1513.66 2040.17 1518.27 Q2043.25 1522.85 2043.25 1531.6 Q2043.25 1540.33 2040.17 1544.94 Q2037.12 1549.52 2031.31 1549.52 Q2025.5 1549.52 2022.42 1544.94 Q2019.36 1540.33 2019.36 1531.6 Q2019.36 1522.85 2022.42 1518.27 Q2025.5 1513.66 2031.31 1513.66 Z" fill="#000000" fill-rule="nonzero" fill-opacity="1" /><path clip-path="url(#clip590)" d="M2061.47 1517.37 Q2057.86 1517.37 2056.03 1520.93 Q2054.23 1524.47 2054.23 1531.6 Q2054.23 1538.71 2056.03 1542.27 Q2057.86 1545.82 2061.47 1545.82 Q2065.1 1545.82 2066.91 1542.27 Q2068.74 1538.71 2068.74 1531.6 Q2068.74 1524.47 2066.91 1520.93 Q2065.1 1517.37 2061.47 1517.37 M2061.47 1513.66 Q2067.28 1513.66 2070.34 1518.27 Q2073.41 1522.85 2073.41 1531.6 Q2073.41 1540.33 2070.34 1544.94 Q2067.28 1549.52 2061.47 1549.52 Q2055.66 1549.52 2052.58 1544.94 Q2049.53 1540.33 2049.53 1531.6 Q2049.53 1522.85 2052.58 1518.27 Q2055.66 1513.66 2061.47 1513.66 Z" fill="#000000" fill-rule="nonzero" fill-opacity="1" /><path clip-path="url(#clip590)" d="M2091.63 1517.37 Q2088.02 1517.37 2086.19 1520.93 Q2084.39 1524.47 2084.39 1531.6 Q2084.39 1538.71 2086.19 1542.27 Q2088.02 1545.82 2091.63 1545.82 Q2095.27 1545.82 2097.07 1542.27 Q2098.9 1538.71 2098.9 1531.6 Q2098.9 1524.47 2097.07 1520.93 Q2095.27 1517.37 2091.63 1517.37 M2091.63 1513.66 Q2097.44 1513.66 2100.5 1518.27 Q2103.58 1522.85 2103.58 1531.6 Q2103.58 1540.33 2100.5 1544.94 Q2097.44 1549.52 2091.63 1549.52 Q2085.82 1549.52 2082.74 1544.94 Q2079.69 1540.33 2079.69 1531.6 Q2079.69 1522.85 2082.74 1518.27 Q2085.82 1513.66 2091.63 1513.66 Z" fill="#000000" fill-rule="nonzero" fill-opacity="1" /><polyline clip-path="url(#clip590)" style="stroke:#000000; stroke-linecap:round; stroke-linejoin:round; stroke-width:4; stroke-opacity:1; fill:none" points="110.858,1486.45 110.858,47.2441 "/>
<polyline clip-path="url(#clip590)" style="stroke:#000000; stroke-linecap:round; stroke-linejoin:round; stroke-width:4; stroke-opacity:1; fill:none" points="110.858,1445.72 129.755,1445.72 "/>
<polyline clip-path="url(#clip590)" style="stroke:#000000; stroke-linecap:round; stroke-linejoin:round; stroke-width:4; stroke-opacity:1; fill:none" points="110.858,1034.65 129.755,1034.65 "/>
<polyline clip-path="url(#clip590)" style="stroke:#000000; stroke-linecap:round; stroke-linejoin:round; stroke-width:4; stroke-opacity:1; fill:none" points="110.858,623.579 129.755,623.579 "/>
<polyline clip-path="url(#clip590)" style="stroke:#000000; stroke-linecap:round; stroke-linejoin:round; stroke-width:4; stroke-opacity:1; fill:none" points="110.858,212.511 129.755,212.511 "/>
<path clip-path="url(#clip590)" d="M53.9551 1428.44 L72.3115 1428.44 L72.3115 1432.37 L58.2375 1432.37 L58.2375 1440.84 Q59.256 1440.5 60.2745 1440.33 Q61.293 1440.15 62.3115 1440.15 Q68.0985 1440.15 71.4781 1443.32 Q74.8577 1446.49 74.8577 1451.91 Q74.8577 1457.49 71.3855 1460.59 Q67.9133 1463.67 61.5939 1463.67 Q59.418 1463.67 57.1495 1463.3 Q54.9041 1462.93 52.4967 1462.19 L52.4967 1457.49 Q54.5801 1458.62 56.8023 1459.18 Q59.0245 1459.73 61.5013 1459.73 Q65.5059 1459.73 67.8439 1457.63 Q70.1818 1455.52 70.1818 1451.91 Q70.1818 1448.3 67.8439 1446.19 Q65.5059 1444.08 61.5013 1444.08 Q59.6263 1444.08 57.7513 1444.5 Q55.8995 1444.92 53.9551 1445.8 L53.9551 1428.44 Z" fill="#000000" fill-rule="nonzero" fill-opacity="1" /><path clip-path="url(#clip590)" d="M63.33 1032.78 Q60.1819 1032.78 58.33 1034.94 Q56.5014 1037.09 56.5014 1040.84 Q56.5014 1044.57 58.33 1046.74 Q60.1819 1048.9 63.33 1048.9 Q66.4782 1048.9 68.3068 1046.74 Q70.1587 1044.57 70.1587 1040.84 Q70.1587 1037.09 68.3068 1034.94 Q66.4782 1032.78 63.33 1032.78 M72.6124 1018.13 L72.6124 1022.39 Q70.8531 1021.56 69.0476 1021.12 Q67.2652 1020.68 65.5059 1020.68 Q60.8763 1020.68 58.4226 1023.8 Q55.9921 1026.93 55.6449 1033.25 Q57.0106 1031.23 59.0708 1030.17 Q61.131 1029.08 63.6078 1029.08 Q68.8161 1029.08 71.8253 1032.25 Q74.8577 1035.4 74.8577 1040.84 Q74.8577 1046.16 71.7096 1049.38 Q68.5615 1052.6 63.33 1052.6 Q57.3347 1052.6 54.1634 1048.02 Q50.9921 1043.41 50.9921 1034.68 Q50.9921 1026.49 54.881 1021.63 Q58.7699 1016.74 65.3208 1016.74 Q67.08 1016.74 68.8624 1017.09 Q70.6679 1017.44 72.6124 1018.13 Z" fill="#000000" fill-rule="nonzero" fill-opacity="1" /><path clip-path="url(#clip590)" d="M52.6356 606.299 L74.8577 606.299 L74.8577 608.29 L62.3115 640.859 L57.4273 640.859 L69.2328 610.235 L52.6356 610.235 L52.6356 606.299 Z" fill="#000000" fill-rule="nonzero" fill-opacity="1" /><path clip-path="url(#clip590)" d="M63.006 213.379 Q59.6726 213.379 57.7513 215.162 Q55.8532 216.944 55.8532 220.069 Q55.8532 223.194 57.7513 224.977 Q59.6726 226.759 63.006 226.759 Q66.3393 226.759 68.2606 224.977 Q70.1818 223.171 70.1818 220.069 Q70.1818 216.944 68.2606 215.162 Q66.3624 213.379 63.006 213.379 M58.33 211.389 Q55.3208 210.648 53.631 208.588 Q51.9643 206.528 51.9643 203.565 Q51.9643 199.421 54.9041 197.014 Q57.8671 194.606 63.006 194.606 Q68.168 194.606 71.1078 197.014 Q74.0476 199.421 74.0476 203.565 Q74.0476 206.528 72.3578 208.588 Q70.6911 210.648 67.705 211.389 Q71.0846 212.176 72.9596 214.467 Q74.8577 216.759 74.8577 220.069 Q74.8577 225.092 71.7791 227.777 Q68.7235 230.463 63.006 230.463 Q57.2884 230.463 54.2097 227.777 Q51.1542 225.092 51.1542 220.069 Q51.1542 216.759 53.0523 214.467 Q54.9504 212.176 58.33 211.389 M56.6171 204.004 Q56.6171 206.69 58.2838 208.194 Q59.9736 209.699 63.006 209.699 Q66.0152 209.699 67.705 208.194 Q69.418 206.69 69.418 204.004 Q69.418 201.319 67.705 199.815 Q66.0152 198.31 63.006 198.31 Q59.9736 198.31 58.2838 199.815 Q56.6171 201.319 56.6171 204.004 Z" fill="#000000" fill-rule="nonzero" fill-opacity="1" /><polyline clip-path="url(#clip592)" style="stroke:#009af9; stroke-linecap:round; stroke-linejoin:round; stroke-width:4; stroke-opacity:1; fill:none" points="174.308,1445.72 176.183,1445.72 178.058,1445.72 179.933,1240.18 181.808,1261.57 183.683,1294.95 185.558,1322.28 187.433,1322.28 189.308,1124.79 191.183,1164.65 193.058,1215.59 194.933,1215.59 196.808,1106.72 198.683,1149.58 200.558,1203.26 202.433,1247.21 204.308,1247.21 206.183,1094.55 208.058,1140.08 209.933,1140.08 211.808,1108.56 213.683,1114.79 215.558,1174.78 217.433,1223.89 219.308,1223.89 221.183,1173.54 223.058,1185.5 224.933,1232.67 226.808,1232.67 228.683,1028.2 230.558,1102.16 232.433,1164.44 234.308,1164.44 236.183,1060.77 238.058,1106.88 239.933,1168.3 241.808,1218.58 243.683,1218.58 245.558,1163.29 247.433,1183.39 249.308,1183.39 251.183,1065.32 253.058,1127.92 254.933,1185.52 256.808,1185.52 258.683,1107.07 260.558,1164.39 262.433,1164.39 264.308,1054.3 266.183,1109.44 268.058,1109.44 269.933,1013.6 271.808,1060.44 273.683,1130.28 275.558,1187.46 277.433,1187.46 279.308,1042.09 281.183,1088.92 283.058,1153.6 284.933,1206.55 286.808,1249.9 288.683,1285.4 290.558,1314.46 292.433,1314.46 294.308,1201.72 296.183,1228.43 298.058,1267.82 299.933,1267.82 301.808,1145.36 303.683,1145.36 305.558,1089.66 307.433,1124.42 309.308,1182.66 311.183,1230.34 313.058,1230.34 314.933,1088.15 316.808,1088.15 318.683,940.439 320.558,961.782 322.433,1049.5 324.308,1121.33 326.183,1121.33 328.058,985.511 329.933,985.511 331.808,796.079 333.683,796.079 335.558,690.364 337.433,723.292 339.308,854.245 341.183,961.46 343.058,961.46 344.933,838.005 346.808,838.005 348.683,787.793 350.558,824.557 352.433,937.154 354.308,1029.34 356.183,1029.34 358.058,920.756 359.933,1000.15 361.808,1000.15 363.683,921.955 365.558,968.569 367.433,1055.06 369.308,1055.06 371.183,941.106 373.058,971.279 374.933,971.279 376.808,890.287 378.683,946.424 380.558,946.424 382.433,883.675 384.308,883.675 386.183,681.323 388.058,729.423 389.933,859.265 391.808,859.265 393.683,787.174 395.558,854.94 397.433,962.03 399.308,962.03 401.183,863.976 403.057,943.176 404.932,943.176 406.807,841.164 408.682,928.834 410.557,1022.53 412.432,1022.53 414.307,907.667 416.182,996.214 418.057,996.214 419.932,862.135 421.807,862.135 423.682,795.371 425.557,813.43 427.432,928.044 429.307,1021.88 431.182,1021.88 433.057,914.612 434.932,943.103 436.807,1034.21 438.682,1108.8 440.557,1108.8 442.432,977.807 444.307,1020.43 446.182,1020.43 448.057,955.824 449.932,955.824 451.807,843.559 453.682,860.534 455.557,860.534 457.432,872.047 459.307,886.462 461.182,987.837 463.057,987.837 464.932,949.333 466.807,996.422 468.682,1077.87 470.557,1144.55 472.432,1199.14 474.307,1199.14 476.182,1106.96 478.057,1106.96 479.932,997.385 481.807,1007.82 483.682,1087.2 485.557,1087.2 487.432,937.453 489.307,1011.82 491.182,1090.47 493.057,1154.86 494.932,1207.59 496.807,1207.59 498.682,1032.52 500.557,1057.79 502.432,1128.11 504.307,1185.68 506.182,1185.68 508.057,1072.44 509.932,1127.78 511.807,1185.41 513.682,1185.41 515.557,1101.26 517.432,1113.75 519.307,1113.75 521.182,999.4 523.057,1070.15 524.932,1138.23 526.807,1193.97 528.682,1193.97 530.557,1094.25 532.432,1128.19 534.307,1128.19 536.182,1062.97 538.057,1062.97 539.932,1007.27 541.807,1038.22 543.682,1038.22 545.557,938.046 547.432,938.046 549.307,835.143 551.182,893.506 553.057,893.506 554.932,803.182 556.807,886.222 558.682,987.641 560.557,987.641 562.432,889.758 564.307,913.174 566.182,1009.71 568.057,1088.74 569.932,1153.45 571.807,1153.45 573.682,963.146 575.557,1028.9 577.432,1104.46 579.307,1166.32 581.182,1166.32 583.057,1071.34 584.932,1071.34 586.807,936.683 588.682,941.834 590.557,1033.17 592.432,1033.17 594.307,918.749 596.182,1004.76 598.057,1004.76 599.932,892.793 601.807,892.793 603.682,749.859 605.557,772.914 607.432,772.914 609.307,766.855 611.182,772.595 613.057,772.595 614.932,694.574 616.807,694.574 618.682,584.912 620.557,723.397 622.432,854.331 624.307,854.331 626.182,734.379 628.057,859.987 629.932,859.987 631.807,778.898 633.682,778.898 635.557,733.157 637.432,734.212 639.307,734.212 641.182,529.958 643.057,529.958 644.932,499.904 646.807,623.1 648.682,772.215 650.557,894.3 652.432,994.255 654.307,994.255 656.182,926.855 658.057,960.85 659.932,960.85 661.807,866.058 663.682,891.543 665.557,991.998 667.432,1074.24 669.307,1141.58 671.182,1141.58 673.057,997.408 674.932,1052.48 676.807,1052.48 678.682,948.453 680.557,964.713 682.432,1051.9 684.307,1051.9 686.182,1001.06 688.057,1001.06 689.932,849.527 691.807,899.514 693.682,899.514 695.557,856.151 697.432,880.242 699.307,880.242 701.182,680.766 703.057,812.646 704.932,927.402 706.807,1021.36 708.682,1098.28 710.557,1098.28 712.432,1015.79 714.307,1015.79 716.182,894.906 718.057,931.781 719.932,1024.94 721.807,1101.21 723.682,1163.66 725.557,1163.66 727.432,1025.05 729.307,1066.61 731.182,1135.33 733.057,1191.59 734.932,1237.66 736.807,1275.37 738.682,1275.37 740.557,1159.55 742.432,1200.63 744.307,1200.63 746.182,1011.09 748.057,1065.03 749.932,1134.04 751.807,1134.04 753.682,956.241 755.557,1005.82 757.432,1005.82 759.307,943.687 761.182,968.284 763.057,1054.83 764.932,1054.83 766.807,935.651 768.682,1023.64 770.557,1100.15 772.432,1162.79 774.307,1214.07 776.182,1256.06 778.057,1256.06 779.932,1188.93 781.807,1217.32 783.682,1258.72 785.557,1258.72 787.432,1169.27 789.307,1169.31 791.182,1169.31 793.057,1064.6 794.932,1111.16 796.807,1171.8 798.682,1221.46 800.557,1221.46 802.432,1120.85 804.307,1149.76 806.182,1149.76 808.057,1042.73 809.932,1042.73 811.807,967.611 813.682,967.611 815.557,847.598 817.432,852.992 819.307,852.992 821.182,756.315 823.057,808.44 824.932,808.44 826.807,699.618 828.682,820.641 830.557,820.641 832.432,760.306 834.307,821.668 836.182,934.789 838.057,934.789 839.932,882.843 841.807,882.843 843.682,846.602 845.557,877.941 847.432,877.941 849.307,781.236 851.182,781.236 853.057,619.59 854.932,733.093 856.807,733.093 858.682,616.899 860.557,616.899 862.432,545.835 864.307,607.04 866.182,759.066 868.057,883.535 869.932,883.535 871.807,815.785 873.682,815.785 875.557,732.37 877.432,753.78 879.307,879.207 881.182,879.207 883.057,738.969 884.932,738.969 886.807,699.581 888.682,766.423 890.557,889.558 892.432,889.558 894.307,803.181 896.182,882.222 898.057,882.222 899.932,812.573 901.807,872.77 903.682,872.77 905.557,812.123 907.432,863.26 909.307,863.26 911.182,750.231 913.057,750.231 914.932,560.042 916.807,690.891 918.682,827.717 920.557,827.717 922.432,725.499 924.307,725.499 926.182,696.366 928.057,714.942 929.932,714.942 931.807,622.267 933.682,742.023 935.557,742.023 937.432,583.538 939.307,733.813 941.182,862.859 943.057,968.513 944.932,1055.02 946.807,1055.02 948.682,984.181 950.557,1009.2 952.432,1088.33 954.307,1153.11 956.182,1206.15 958.057,1249.58 959.932,1249.58 961.807,1090.46 963.682,1146.76 965.557,1146.76 967.432,984.688 969.307,984.688 971.182,920.04 973.057,920.04 974.932,861.93 976.807,867.18 978.682,867.18 980.557,882.475 982.432,891.095 984.307,891.095 986.182,779.914 988.057,888.405 989.932,888.405 991.807,859.19 993.682,867.95 995.557,867.95 997.432,797.246 999.307,861.599 1001.18,861.599 1003.06,778.506 1004.93,859.047 1006.81,859.047 1008.68,772.105 1010.56,810.285 1012.43,810.285 1014.31,708.805 1016.18,724.24 1018.06,724.24 1019.93,675.793 1021.81,742.363 1023.68,869.859 1025.56,869.859 1027.43,790.681 1029.31,864.896 1031.18,864.896 1033.06,732.208 1034.93,827.778 1036.81,939.791 1038.68,939.791 1040.56,831.784 1042.43,831.784 1044.31,761.051 1046.18,761.051 1048.06,664.655 1049.93,694.977 1051.81,694.977 1053.68,629.433 1055.56,762.224 1057.43,886.12 1059.31,987.557 1061.18,987.557 1063.06,818.314 1064.93,887.854 1066.81,988.977 1068.68,1071.77 1070.56,1071.77 1072.43,1030.17 1074.31,1030.17 1076.18,977.918 1078.06,982.663 1079.93,1066.6 1081.81,1066.6 1083.68,975.361 1085.56,1025.02 1087.43,1101.28 1089.31,1163.72 1091.18,1163.72 1093.06,1103.01 1094.93,1141.97 1096.81,1197.03 1098.68,1242.11 1100.56,1279.01 1102.43,1309.23 1104.31,1309.23 1106.18,1240.12 1108.06,1259.52 1109.93,1293.27 1111.81,1320.9 1113.68,1320.9 1115.56,1254.49 1117.43,1266.46 1119.31,1298.95 1121.18,1298.95 1123.06,1146.57 1124.93,1178.9 1126.81,1178.9 1128.68,1020.09 1130.56,1020.09 1132.43,919.968 1134.31,927.755 1136.18,1021.65 1138.06,1098.52 1139.93,1161.45 1141.81,1161.45 1143.68,969.53 1145.56,1036.24 1147.43,1036.24 1149.31,958.428 1151.18,996.876 1153.06,1078.24 1154.93,1078.24 1156.81,974.609 1158.68,974.609 1160.56,893.654 1162.43,893.654 1164.31,741.089 1166.18,761.209 1168.06,761.209 1169.93,585.437 1171.81,709.363 1173.68,842.841 1175.56,952.123 1177.43,1041.6 1179.31,1041.6 1181.18,866.36 1183.06,932.936 1184.93,1025.89 1186.81,1025.89 1188.68,917.297 1190.56,997.351 1192.43,1078.63 1194.31,1078.63 1196.18,1017.42 1198.06,1073.77 1199.93,1073.77 1201.81,956.911 1203.68,956.911 1205.56,899.589 1207.43,919.653 1209.31,919.653 1211.18,856.145 1213.06,901.094 1214.93,901.094 1216.81,895.385 1218.68,921.505 1220.56,1016.53 1222.43,1094.33 1224.31,1094.33 1226.18,950.028 1228.06,950.028 1229.93,925.703 1231.81,934.379 1233.68,934.379 1235.56,760.969 1237.43,760.969 1239.31,741.172 1241.18,768.485 1243.06,891.246 1244.93,891.246 1246.81,874.163 1248.68,915.485 1250.56,1011.6 1252.43,1011.6 1254.31,929.02 1256.18,978.868 1258.06,1063.49 1259.93,1063.49 1261.81,931.516 1263.68,985.667 1265.56,985.667 1267.43,822.866 1269.31,822.866 1271.18,752.871 1273.06,752.871 1274.93,680.908 1276.81,706.034 1278.68,840.116 1280.56,840.116 1282.43,822.377 1284.31,827.607 1286.18,827.607 1288.06,804.783 1289.93,865.185 1291.81,865.185 1293.68,797.215 1295.56,858.81 1297.43,965.198 1299.31,965.198 1301.18,958.162 1303.06,972.506 1304.93,1058.28 1306.81,1128.51 1308.68,1186.01 1310.56,1186.01 1312.43,1104.76 1314.31,1165.53 1316.18,1216.32 1318.06,1257.9 1319.93,1257.9 1321.81,1153.63 1323.68,1179.58 1325.56,1227.83 1327.43,1267.32 1329.31,1299.66 1331.18,1299.66 1333.06,1180.13 1334.93,1222.48 1336.81,1262.95 1338.68,1296.08 1340.56,1323.2 1342.43,1345.41 1344.31,1345.41 1346.18,1188.76 1348.06,1217.65 1349.93,1258.99 1351.81,1292.84 1353.68,1320.55 1355.56,1320.55 1357.43,1253.67 1359.31,1253.67 1361.18,1133.16 1363.06,1133.16 1364.93,1056.82 1366.81,1070.42 1368.68,1070.42 1370.56,1038.64 1372.43,1060.69 1374.31,1130.48 1376.18,1187.62 1378.06,1187.62 1379.93,1059.65 1381.81,1077.64 1383.68,1144.36 1385.56,1144.36 1387.43,1074.14 1389.31,1076.43 1391.18,1143.37 1393.06,1198.17 1394.93,1198.17 1396.81,1102.71 1398.68,1129.28 1400.56,1129.28 1402.43,1089.79 1404.31,1108.82 1406.18,1169.89 1408.06,1219.89 1409.93,1260.82 1411.81,1260.82 1413.68,1122.35 1415.56,1137.73 1417.43,1193.56 1419.31,1193.56 1421.18,1154.48 1423.06,1158.07 1424.93,1210.21 1426.81,1252.9 1428.68,1252.9 1430.56,1108.33 1432.43,1108.33 1434.31,993.941 1436.18,1022.16 1438.06,1098.94 1439.93,1098.94 1441.81,990.878 1443.68,990.878 1445.56,924.921 1447.43,935.324 1449.31,935.324 1451.18,805.879 1453.06,805.879 1454.93,691.677 1456.81,773.352 1458.68,895.231 1460.56,895.231 1462.43,828.461 1464.31,831.362 1466.18,942.726 1468.06,942.726 1469.93,842.532 1471.81,842.532 1473.68,781.437 1475.56,799.607 1477.43,799.607 1479.31,603.603 1481.18,745.93 1483.06,872.78 1484.93,976.636 1486.81,976.636 1488.68,883.599 1490.56,953.731 1492.43,953.731 1494.31,827.76 1496.18,842.172 1498.06,951.576 1499.93,1041.15 1501.81,1114.48 1503.68,1174.53 1505.56,1223.68 1507.43,1223.68 1509.31,1126.38 1511.18,1126.38 1513.06,938.241 1514.93,947.974 1516.81,947.974 1518.68,863.61 1520.56,877.773 1522.43,877.773 1524.31,817.779 1526.18,817.779 1528.06,682.531 1529.93,682.531 1531.81,628.732 1533.68,631.539 1535.56,779.124 1537.43,899.957 1539.31,998.886 1541.18,1079.88 1543.06,1146.2 1544.93,1200.49 1546.81,1200.49 1548.68,1022.96 1550.56,1022.96 1552.43,868.049 1554.31,899.496 1556.18,998.509 1558.06,1079.57 1559.93,1145.94 1561.81,1200.28 1563.68,1200.28 1565.56,1040.96 1567.43,1040.96 1569.31,926.734 1571.18,1001.81 1573.06,1082.28 1574.93,1148.16 1576.81,1202.1 1578.68,1246.26 1580.56,1282.41 1582.43,1312.02 1584.31,1336.25 1586.18,1356.09 1588.06,1356.09 1589.93,1158.2 1591.81,1158.2 1593.68,1054.01 1595.56,1070.13 1597.43,1138.21 1599.31,1193.95 1601.18,1239.59 1603.06,1276.95 1604.93,1307.54 1606.81,1307.54 1608.68,1109.97 1610.56,1154.03 1612.43,1206.91 1614.31,1250.19 1616.18,1285.64 1618.06,1285.64 1619.93,1162.64 1621.81,1213.48 1623.68,1213.48 1625.56,1038.59 1627.43,1061.73 1629.31,1061.73 1631.18,1040.4 1633.06,1051.34 1634.93,1122.83 1636.81,1181.36 1638.68,1229.28 1640.56,1229.28 1642.43,1073.51 1644.31,1128.28 1646.18,1128.28 1648.06,971.53 1649.93,1047.86 1651.81,1119.98 1653.68,1119.98 1655.56,1059.7 1657.43,1106.85 1659.31,1168.28 1661.18,1218.57 1663.06,1218.57 1664.93,1046.84 1666.81,1062.05 1668.68,1062.05 1670.56,1014.23 1672.43,1057.65 1674.31,1128 1676.18,1185.59 1678.06,1232.74 1679.93,1271.35 1681.81,1271.35 1683.68,1195.36 1685.56,1233.15 1687.43,1271.68 1689.31,1303.23 1691.18,1303.23 1693.06,1098.33 1694.93,1098.33 1696.81,938.992 1698.68,965.07 1700.56,1052.2 1702.43,1123.53 1704.31,1123.53 1706.18,977.956 1708.06,977.956 1709.93,926.219 1711.81,962.464 1713.68,1050.06 1715.56,1050.06 1717.43,933.296 1719.31,1019.12 1721.18,1096.45 1723.06,1159.76 1724.93,1159.76 1726.81,1061.78 1728.68,1100.81 1730.56,1163.33 1732.43,1163.33 1734.31,1127.55 1736.18,1133.96 1738.06,1190.47 1739.93,1190.47 1741.81,1106.28 1743.68,1117.5 1745.56,1176.99 1747.43,1225.7 1749.31,1265.59 1751.18,1298.24 1753.06,1324.97 1754.93,1346.86 1756.81,1364.78 1758.68,1379.45 1760.56,1379.45 1762.43,1263.48 1764.31,1263.48 1766.18,1112.05 1768.06,1114.85 1769.93,1174.83 1771.81,1174.83 1773.68,1070.02 1775.56,1070.02 1777.43,975.683 1779.31,998.127 1781.18,1079.26 1783.06,1079.26 1784.93,1017.67 1786.81,1024.27 1788.68,1024.27 1790.56,902.762 1792.43,902.762 1794.31,748.551 1796.18,748.551 1798.06,629.987 1799.93,757.407 1801.81,757.407 1803.68,602.685 1805.56,700.486 1807.43,835.573 1809.31,946.173 1811.18,1036.73 1813.06,1036.73 1814.93,937.449 1816.81,937.449 1818.68,875.117 1820.56,929.163 1822.43,929.163 1824.31,771.051 1826.18,886.511 1828.06,987.877 1829.93,1070.87 1831.81,1070.87 1833.68,939.053 1835.56,991.368 1837.43,1073.73 1839.31,1073.73 1841.18,927.465 1843.06,940.985 1844.93,940.985 1846.81,778.289 1848.68,897.392 1850.56,897.392 1852.43,769.748 1854.31,852.485 1856.18,960.019 1858.06,960.019 1859.93,849.828 1861.81,849.828 1863.68,749.453 1865.56,749.453 1867.43,705.021 1869.31,714.644 1871.18,847.165 1873.06,847.165 1874.93,738.039 1876.81,852.245 1878.68,852.245 1880.56,747.285 1882.43,757.21 1884.31,757.21 1886.18,700.122 1888.06,700.122 1889.93,637.614 1891.81,698.058 1893.68,833.586 1895.56,944.546 1897.43,944.546 1899.31,799.675 1901.18,895.304 1903.06,895.304 1904.93,819.637 1906.81,834.572 1908.68,945.354 1910.56,945.354 1912.43,827.326 1914.31,887.673 1916.18,887.673 1918.06,728.868 1919.93,728.868 1921.81,582.585 1923.68,713.314 1925.56,846.076 1927.43,954.772 1929.31,1043.76 1931.18,1043.76 1933.06,873.834 1934.93,873.834 1936.81,761.185 1938.68,819.11 1940.56,932.695 1942.43,932.695 1944.31,861.753 1946.18,913.243 1948.06,913.243 1949.93,851.381 1951.81,895.623 1953.68,995.338 1955.56,995.338 1957.43,981.484 1959.31,997.622 1961.18,1078.85 1963.06,1145.35 1964.93,1199.8 1966.81,1199.8 1968.68,1149.5 1970.56,1167.02 1972.43,1167.02 1974.31,1055.6 1976.18,1055.6 1978.06,886.2 1979.93,918.345 1981.81,918.345 1983.68,806.273 1985.56,910.774 1987.43,1007.74 1989.31,1007.74 1991.18,886.67 1993.06,886.67 1994.93,837.426 1996.81,858.334 1998.68,858.334 2000.56,738.067 2002.43,863.314 2004.31,968.886 2006.18,1055.32 2008.06,1126.09 2009.93,1126.09 2011.81,1044.8 2013.68,1067.77 2015.56,1067.77 2017.43,913.098 2019.31,998.095 2021.18,1079.24 2023.06,1079.24 2024.93,990.023 2026.81,1034.34 2028.68,1108.91 2030.56,1108.91 2032.43,958.293 2034.31,1029.58 2036.18,1105.02 2038.06,1105.02 2039.93,1075.31 2041.81,1087.2 2043.68,1087.2 2045.56,966 2047.43,966 2049.31,858.981 2051.18,945.481 2053.06,1036.16 2054.93,1110.4 2056.81,1110.4 2058.68,952.26 2060.56,975.203 2062.43,1060.49 2064.31,1130.32 2066.18,1130.32 2068.06,1009.69 2069.93,1009.69 2071.81,836.35 2073.68,902.404 2075.56,902.404 2077.43,754.769 2079.31,754.769 2081.18,611.354 2083.06,611.354 2084.93,572.645 2086.81,643.126 2088.68,643.126 2090.56,484.128 2092.43,609.976 2094.31,609.976 2096.18,654.704 2098.06,682.104 2099.93,682.104 2101.81,594.643 2103.68,714.582 2105.56,847.114 2107.43,955.622 2109.31,1044.46 2111.18,1117.2 2113.06,1117.2 2114.93,1034.65 2116.81,1061.47 2118.68,1061.47 2120.56,961.879 2122.43,961.879 2124.31,892.411 2126.18,902.427 2128.06,902.427 2129.93,745.009 2131.81,864.527 2133.68,864.527 2135.56,799.463 2137.43,857.664 2139.31,964.26 2141.18,1051.53 2143.06,1122.99 2144.93,1181.49 2146.81,1181.49 2148.68,1080.4 2150.56,1119.14 2152.43,1119.14 2154.31,1064.46 2156.18,1104.83 2158.06,1104.83 2159.93,999.163 2161.81,1060.14 2163.68,1060.14 2165.56,878.832 2167.43,878.832 2169.31,791.795 2171.18,835.379 2173.06,946.014 2174.93,946.014 2176.81,841.633 2178.68,931.651 2180.56,1024.83 2182.43,1024.83 2184.31,965.048 2186.18,1030.03 2188.06,1105.38 2189.93,1105.38 2191.81,994.45 2193.68,1062.29 2195.56,1131.79 2197.43,1188.7 2199.31,1188.7 2201.18,1067.8 2203.06,1067.8 2204.93,872.667 2206.81,958.676 2208.68,1046.96 2210.56,1046.96 2212.43,948.576 2214.31,948.576 2216.18,860.252 2218.06,895.686 2219.93,895.686 2221.81,736.097 2223.68,859.573 2225.56,859.573 2227.43,806.139 2229.31,806.139 2231.18,666.301 2233.06,692.231 2234.93,692.231 2236.81,489.866 2238.68,489.866 2240.56,458.67 2242.43,502.742 2244.31,673.674 2246.18,673.674 2248.06,612.941 2249.93,744.384 2251.81,744.384 2253.68,619.28 2255.56,728.896 2257.43,728.896 2259.31,734.274 2261.18,734.274 2263.06,570.138 2264.93,571.625 2266.81,571.625 2268.68,451.503 2270.56,451.503 2272.43,338.3 2274.31,338.3 2276.18,159.407 2278.06,159.407 2279.93,87.9763 2281.81,100.123 2283.68,344.038 2285.56,543.738 2287.43,543.738 2289.31,501.503 "/>
<path clip-path="url(#clip590)" d="M185.588 198.898 L462.208 198.898 L462.208 95.2176 L185.588 95.2176  Z" fill="#ffffff" fill-rule="evenodd" fill-opacity="1"/>
<polyline clip-path="url(#clip590)" style="stroke:#000000; stroke-linecap:round; stroke-linejoin:round; stroke-width:4; stroke-opacity:1; fill:none" points="185.588,198.898 462.208,198.898 462.208,95.2176 185.588,95.2176 185.588,198.898 "/>
<polyline clip-path="url(#clip590)" style="stroke:#009af9; stroke-linecap:round; stroke-linejoin:round; stroke-width:4; stroke-opacity:1; fill:none" points="210.498,147.058 359.958,147.058 "/>
<path clip-path="url(#clip590)" d="M398.71 166.745 Q396.904 171.375 395.192 172.787 Q393.479 174.199 390.608 174.199 L387.205 174.199 L387.205 170.634 L389.705 170.634 Q391.465 170.634 392.437 169.8 Q393.409 168.967 394.59 165.865 L395.354 163.921 L384.868 138.412 L389.381 138.412 L397.483 158.689 L405.585 138.412 L410.099 138.412 L398.71 166.745 Z" fill="#000000" fill-rule="nonzero" fill-opacity="1" /><path clip-path="url(#clip590)" d="M417.39 160.402 L425.029 160.402 L425.029 134.037 L416.719 135.703 L416.719 131.444 L424.983 129.778 L429.659 129.778 L429.659 160.402 L437.298 160.402 L437.298 164.338 L417.39 164.338 L417.39 160.402 Z" fill="#000000" fill-rule="nonzero" fill-opacity="1" /></svg>
