<?xml version="1.0" encoding="utf-8"?>
<svg xmlns="http://www.w3.org/2000/svg" xmlns:xlink="http://www.w3.org/1999/xlink" width="600" height="400" viewBox="0 0 2400 1600">
<defs>
  <clipPath id="clip060">
    <rect x="0" y="0" width="2400" height="1600"/>
  </clipPath>
</defs>
<path clip-path="url(#clip060)" d="M0 1600 L2400 1600 L2400 0 L0 0  Z" fill="#ffffff" fill-rule="evenodd" fill-opacity="1"/>
<defs>
  <clipPath id="clip061">
    <rect x="140" y="47" width="2213" height="1377"/>
  </clipPath>
</defs>
<path clip-path="url(#clip060)" d="M140.696 1423.18 L2352.76 1423.18 L2352.76 47.2441 L140.696 47.2441  Z" fill="#ffffff" fill-rule="evenodd" fill-opacity="1"/>
<polyline clip-path="url(#clip061)" style="stroke:#000000; stroke-linecap:round; stroke-linejoin:round; stroke-width:2; stroke-opacity:0.1; fill:none" points="140.696,1423.18 140.696,47.2441 "/>
<polyline clip-path="url(#clip061)" style="stroke:#000000; stroke-linecap:round; stroke-linejoin:round; stroke-width:2; stroke-opacity:0.1; fill:none" points="583.108,1423.18 583.108,47.2441 "/>
<polyline clip-path="url(#clip061)" style="stroke:#000000; stroke-linecap:round; stroke-linejoin:round; stroke-width:2; stroke-opacity:0.1; fill:none" points="1025.52,1423.18 1025.52,47.2441 "/>
<polyline clip-path="url(#clip061)" style="stroke:#000000; stroke-linecap:round; stroke-linejoin:round; stroke-width:2; stroke-opacity:0.1; fill:none" points="1467.93,1423.18 1467.93,47.2441 "/>
<polyline clip-path="url(#clip061)" style="stroke:#000000; stroke-linecap:round; stroke-linejoin:round; stroke-width:2; stroke-opacity:0.1; fill:none" points="1910.34,1423.18 1910.34,47.2441 "/>
<polyline clip-path="url(#clip061)" style="stroke:#000000; stroke-linecap:round; stroke-linejoin:round; stroke-width:2; stroke-opacity:0.1; fill:none" points="2352.76,1423.18 2352.76,47.2441 "/>
<polyline clip-path="url(#clip061)" style="stroke:#000000; stroke-linecap:round; stroke-linejoin:round; stroke-width:2; stroke-opacity:0.1; fill:none" points="140.696,1384.24 2352.76,1384.24 "/>
<polyline clip-path="url(#clip061)" style="stroke:#000000; stroke-linecap:round; stroke-linejoin:round; stroke-width:2; stroke-opacity:0.1; fill:none" points="140.696,1075.18 2352.76,1075.18 "/>
<polyline clip-path="url(#clip061)" style="stroke:#000000; stroke-linecap:round; stroke-linejoin:round; stroke-width:2; stroke-opacity:0.1; fill:none" points="140.696,766.118 2352.76,766.118 "/>
<polyline clip-path="url(#clip061)" style="stroke:#000000; stroke-linecap:round; stroke-linejoin:round; stroke-width:2; stroke-opacity:0.1; fill:none" points="140.696,457.058 2352.76,457.058 "/>
<polyline clip-path="url(#clip061)" style="stroke:#000000; stroke-linecap:round; stroke-linejoin:round; stroke-width:2; stroke-opacity:0.1; fill:none" points="140.696,147.998 2352.76,147.998 "/>
<polyline clip-path="url(#clip060)" style="stroke:#000000; stroke-linecap:round; stroke-linejoin:round; stroke-width:4; stroke-opacity:1; fill:none" points="140.696,1423.18 2352.76,1423.18 "/>
<polyline clip-path="url(#clip060)" style="stroke:#000000; stroke-linecap:round; stroke-linejoin:round; stroke-width:4; stroke-opacity:1; fill:none" points="140.696,1423.18 140.696,1404.28 "/>
<polyline clip-path="url(#clip060)" style="stroke:#000000; stroke-linecap:round; stroke-linejoin:round; stroke-width:4; stroke-opacity:1; fill:none" points="583.108,1423.18 583.108,1404.28 "/>
<polyline clip-path="url(#clip060)" style="stroke:#000000; stroke-linecap:round; stroke-linejoin:round; stroke-width:4; stroke-opacity:1; fill:none" points="1025.52,1423.18 1025.52,1404.28 "/>
<polyline clip-path="url(#clip060)" style="stroke:#000000; stroke-linecap:round; stroke-linejoin:round; stroke-width:4; stroke-opacity:1; fill:none" points="1467.93,1423.18 1467.93,1404.28 "/>
<polyline clip-path="url(#clip060)" style="stroke:#000000; stroke-linecap:round; stroke-linejoin:round; stroke-width:4; stroke-opacity:1; fill:none" points="1910.34,1423.18 1910.34,1404.28 "/>
<polyline clip-path="url(#clip060)" style="stroke:#000000; stroke-linecap:round; stroke-linejoin:round; stroke-width:4; stroke-opacity:1; fill:none" points="2352.76,1423.18 2352.76,1404.28 "/>
<path clip-path="url(#clip060)" d="M140.696 1454.1 Q137.084 1454.1 135.256 1457.66 Q133.45 1461.2 133.45 1468.33 Q133.45 1475.44 135.256 1479.01 Q137.084 1482.55 140.696 1482.55 Q144.33 1482.55 146.135 1479.01 Q147.964 1475.44 147.964 1468.33 Q147.964 1461.2 146.135 1457.66 Q144.33 1454.1 140.696 1454.1 M140.696 1450.39 Q146.506 1450.39 149.561 1455 Q152.64 1459.58 152.64 1468.33 Q152.64 1477.06 149.561 1481.67 Q146.506 1486.25 140.696 1486.25 Q134.885 1486.25 131.807 1481.67 Q128.751 1477.06 128.751 1468.33 Q128.751 1459.58 131.807 1455 Q134.885 1450.39 140.696 1450.39 Z" fill="#000000" fill-rule="nonzero" fill-opacity="1" /><path clip-path="url(#clip060)" d="M577.76 1481.64 L594.08 1481.64 L594.08 1485.58 L572.135 1485.58 L572.135 1481.64 Q574.797 1478.89 579.381 1474.26 Q583.987 1469.61 585.168 1468.27 Q587.413 1465.74 588.293 1464.01 Q589.196 1462.25 589.196 1460.56 Q589.196 1457.8 587.251 1456.07 Q585.33 1454.33 582.228 1454.33 Q580.029 1454.33 577.575 1455.09 Q575.145 1455.86 572.367 1457.41 L572.367 1452.69 Q575.191 1451.55 577.645 1450.97 Q580.098 1450.39 582.135 1450.39 Q587.506 1450.39 590.7 1453.08 Q593.895 1455.77 593.895 1460.26 Q593.895 1462.39 593.084 1464.31 Q592.297 1466.2 590.191 1468.8 Q589.612 1469.47 586.51 1472.69 Q583.409 1475.88 577.76 1481.64 Z" fill="#000000" fill-rule="nonzero" fill-opacity="1" /><path clip-path="url(#clip060)" d="M1028.53 1455.09 L1016.72 1473.54 L1028.53 1473.54 L1028.53 1455.09 M1027.3 1451.02 L1033.18 1451.02 L1033.18 1473.54 L1038.11 1473.54 L1038.11 1477.43 L1033.18 1477.43 L1033.18 1485.58 L1028.53 1485.58 L1028.53 1477.43 L1012.93 1477.43 L1012.93 1472.92 L1027.3 1451.02 Z" fill="#000000" fill-rule="nonzero" fill-opacity="1" /><path clip-path="url(#clip060)" d="M1468.34 1466.44 Q1465.19 1466.44 1463.34 1468.59 Q1461.51 1470.74 1461.51 1474.49 Q1461.51 1478.22 1463.34 1480.39 Q1465.19 1482.55 1468.34 1482.55 Q1471.48 1482.55 1473.31 1480.39 Q1475.17 1478.22 1475.17 1474.49 Q1475.17 1470.74 1473.31 1468.59 Q1471.48 1466.44 1468.34 1466.44 M1477.62 1451.78 L1477.62 1456.04 Q1475.86 1455.21 1474.05 1454.77 Q1472.27 1454.33 1470.51 1454.33 Q1465.88 1454.33 1463.43 1457.45 Q1461 1460.58 1460.65 1466.9 Q1462.02 1464.89 1464.08 1463.82 Q1466.14 1462.73 1468.61 1462.73 Q1473.82 1462.73 1476.83 1465.9 Q1479.86 1469.05 1479.86 1474.49 Q1479.86 1479.82 1476.72 1483.03 Q1473.57 1486.25 1468.34 1486.25 Q1462.34 1486.25 1459.17 1481.67 Q1456 1477.06 1456 1468.33 Q1456 1460.14 1459.89 1455.28 Q1463.78 1450.39 1470.33 1450.39 Q1472.09 1450.39 1473.87 1450.74 Q1475.67 1451.09 1477.62 1451.78 Z" fill="#000000" fill-rule="nonzero" fill-opacity="1" /><path clip-path="url(#clip060)" d="M1910.34 1469.17 Q1907.01 1469.17 1905.09 1470.95 Q1903.19 1472.73 1903.19 1475.86 Q1903.19 1478.98 1905.09 1480.77 Q1907.01 1482.55 1910.34 1482.55 Q1913.68 1482.55 1915.6 1480.77 Q1917.52 1478.96 1917.52 1475.86 Q1917.52 1472.73 1915.6 1470.95 Q1913.7 1469.17 1910.34 1469.17 M1905.67 1467.18 Q1902.66 1466.44 1900.97 1464.38 Q1899.3 1462.32 1899.3 1459.35 Q1899.3 1455.21 1902.24 1452.8 Q1905.2 1450.39 1910.34 1450.39 Q1915.51 1450.39 1918.45 1452.8 Q1921.39 1455.21 1921.39 1459.35 Q1921.39 1462.32 1919.7 1464.38 Q1918.03 1466.44 1915.04 1467.18 Q1918.42 1467.96 1920.3 1470.26 Q1922.2 1472.55 1922.2 1475.86 Q1922.2 1480.88 1919.12 1483.57 Q1916.06 1486.25 1910.34 1486.25 Q1904.63 1486.25 1901.55 1483.57 Q1898.49 1480.88 1898.49 1475.86 Q1898.49 1472.55 1900.39 1470.26 Q1902.29 1467.96 1905.67 1467.18 M1903.95 1459.79 Q1903.95 1462.48 1905.62 1463.98 Q1907.31 1465.49 1910.34 1465.49 Q1913.35 1465.49 1915.04 1463.98 Q1916.76 1462.48 1916.76 1459.79 Q1916.76 1457.11 1915.04 1455.6 Q1913.35 1454.1 1910.34 1454.1 Q1907.31 1454.1 1905.62 1455.6 Q1903.95 1457.11 1903.95 1459.79 Z" fill="#000000" fill-rule="nonzero" fill-opacity="1" /><path clip-path="url(#clip060)" d="M2327.44 1481.64 L2335.08 1481.64 L2335.08 1455.28 L2326.77 1456.95 L2326.77 1452.69 L2335.04 1451.02 L2339.71 1451.02 L2339.71 1481.64 L2347.35 1481.64 L2347.35 1485.58 L2327.44 1485.58 L2327.44 1481.64 Z" fill="#000000" fill-rule="nonzero" fill-opacity="1" /><path clip-path="url(#clip060)" d="M2366.8 1454.1 Q2363.18 1454.1 2361.36 1457.66 Q2359.55 1461.2 2359.55 1468.33 Q2359.55 1475.44 2361.36 1479.01 Q2363.18 1482.55 2366.8 1482.55 Q2370.43 1482.55 2372.23 1479.01 Q2374.06 1475.44 2374.06 1468.33 Q2374.06 1461.2 2372.23 1457.66 Q2370.43 1454.1 2366.8 1454.1 M2366.8 1450.39 Q2372.61 1450.39 2375.66 1455 Q2378.74 1459.58 2378.74 1468.33 Q2378.74 1477.06 2375.66 1481.67 Q2372.61 1486.25 2366.8 1486.25 Q2360.99 1486.25 2357.91 1481.67 Q2354.85 1477.06 2354.85 1468.33 Q2354.85 1459.58 2357.91 1455 Q2360.99 1450.39 2366.8 1450.39 Z" fill="#000000" fill-rule="nonzero" fill-opacity="1" /><path clip-path="url(#clip060)" d="M1245.79 1522.27 L1245.79 1532.4 L1257.85 1532.4 L1257.85 1536.95 L1245.79 1536.95 L1245.79 1556.3 Q1245.79 1560.66 1246.96 1561.9 Q1248.17 1563.14 1251.83 1563.14 L1257.85 1563.14 L1257.85 1568.04 L1251.83 1568.04 Q1245.05 1568.04 1242.48 1565.53 Q1239.9 1562.98 1239.9 1556.3 L1239.9 1536.95 L1235.6 1536.95 L1235.6 1532.4 L1239.9 1532.4 L1239.9 1522.27 L1245.79 1522.27 Z" fill="#000000" fill-rule="nonzero" fill-opacity="1" /><polyline clip-path="url(#clip060)" style="stroke:#000000; stroke-linecap:round; stroke-linejoin:round; stroke-width:4; stroke-opacity:1; fill:none" points="140.696,1423.18 140.696,47.2441 "/>
<polyline clip-path="url(#clip060)" style="stroke:#000000; stroke-linecap:round; stroke-linejoin:round; stroke-width:4; stroke-opacity:1; fill:none" points="140.696,1384.24 159.593,1384.24 "/>
<polyline clip-path="url(#clip060)" style="stroke:#000000; stroke-linecap:round; stroke-linejoin:round; stroke-width:4; stroke-opacity:1; fill:none" points="140.696,1075.18 159.593,1075.18 "/>
<polyline clip-path="url(#clip060)" style="stroke:#000000; stroke-linecap:round; stroke-linejoin:round; stroke-width:4; stroke-opacity:1; fill:none" points="140.696,766.118 159.593,766.118 "/>
<polyline clip-path="url(#clip060)" style="stroke:#000000; stroke-linecap:round; stroke-linejoin:round; stroke-width:4; stroke-opacity:1; fill:none" points="140.696,457.058 159.593,457.058 "/>
<polyline clip-path="url(#clip060)" style="stroke:#000000; stroke-linecap:round; stroke-linejoin:round; stroke-width:4; stroke-opacity:1; fill:none" points="140.696,147.998 159.593,147.998 "/>
<path clip-path="url(#clip060)" d="M92.7512 1370.04 Q89.1401 1370.04 87.3114 1373.6 Q85.5058 1377.14 85.5058 1384.27 Q85.5058 1391.38 87.3114 1394.94 Q89.1401 1398.49 92.7512 1398.49 Q96.3854 1398.49 98.1909 1394.94 Q100.02 1391.38 100.02 1384.27 Q100.02 1377.14 98.1909 1373.6 Q96.3854 1370.04 92.7512 1370.04 M92.7512 1366.33 Q98.5613 1366.33 101.617 1370.94 Q104.696 1375.52 104.696 1384.27 Q104.696 1393 101.617 1397.61 Q98.5613 1402.19 92.7512 1402.19 Q86.941 1402.19 83.8623 1397.61 Q80.8068 1393 80.8068 1384.27 Q80.8068 1375.52 83.8623 1370.94 Q86.941 1366.33 92.7512 1366.33 Z" fill="#000000" fill-rule="nonzero" fill-opacity="1" /><path clip-path="url(#clip060)" d="M83.7929 1057.9 L102.149 1057.9 L102.149 1061.83 L88.0753 1061.83 L88.0753 1070.31 Q89.0938 1069.96 90.1123 1069.8 Q91.1308 1069.61 92.1493 1069.61 Q97.9363 1069.61 101.316 1072.78 Q104.696 1075.95 104.696 1081.37 Q104.696 1086.95 101.223 1090.05 Q97.7511 1093.13 91.4317 1093.13 Q89.2558 1093.13 86.9873 1092.76 Q84.7419 1092.39 82.3346 1091.65 L82.3346 1086.95 Q84.4179 1088.08 86.6401 1088.64 Q88.8623 1089.19 91.3391 1089.19 Q95.3437 1089.19 97.6817 1087.09 Q100.02 1084.98 100.02 1081.37 Q100.02 1077.76 97.6817 1075.65 Q95.3437 1073.55 91.3391 1073.55 Q89.4641 1073.55 87.5892 1073.96 Q85.7373 1074.38 83.7929 1075.26 L83.7929 1057.9 Z" fill="#000000" fill-rule="nonzero" fill-opacity="1" /><path clip-path="url(#clip060)" d="M53.3995 779.463 L61.0384 779.463 L61.0384 753.097 L52.7282 754.764 L52.7282 750.505 L60.9921 748.838 L65.668 748.838 L65.668 779.463 L73.3068 779.463 L73.3068 783.398 L53.3995 783.398 L53.3995 779.463 Z" fill="#000000" fill-rule="nonzero" fill-opacity="1" /><path clip-path="url(#clip060)" d="M92.7512 751.917 Q89.1401 751.917 87.3114 755.481 Q85.5058 759.023 85.5058 766.153 Q85.5058 773.259 87.3114 776.824 Q89.1401 780.366 92.7512 780.366 Q96.3854 780.366 98.1909 776.824 Q100.02 773.259 100.02 766.153 Q100.02 759.023 98.1909 755.481 Q96.3854 751.917 92.7512 751.917 M92.7512 748.213 Q98.5613 748.213 101.617 752.819 Q104.696 757.403 104.696 766.153 Q104.696 774.88 101.617 779.486 Q98.5613 784.069 92.7512 784.069 Q86.941 784.069 83.8623 779.486 Q80.8068 774.88 80.8068 766.153 Q80.8068 757.403 83.8623 752.819 Q86.941 748.213 92.7512 748.213 Z" fill="#000000" fill-rule="nonzero" fill-opacity="1" /><path clip-path="url(#clip060)" d="M54.3949 470.403 L62.0337 470.403 L62.0337 444.037 L53.7236 445.704 L53.7236 441.444 L61.9874 439.778 L66.6633 439.778 L66.6633 470.403 L74.3022 470.403 L74.3022 474.338 L54.3949 474.338 L54.3949 470.403 Z" fill="#000000" fill-rule="nonzero" fill-opacity="1" /><path clip-path="url(#clip060)" d="M83.7929 439.778 L102.149 439.778 L102.149 443.713 L88.0753 443.713 L88.0753 452.185 Q89.0938 451.838 90.1123 451.676 Q91.1308 451.491 92.1493 451.491 Q97.9363 451.491 101.316 454.662 Q104.696 457.833 104.696 463.25 Q104.696 468.829 101.223 471.93 Q97.7511 475.009 91.4317 475.009 Q89.2558 475.009 86.9873 474.639 Q84.7419 474.268 82.3346 473.528 L82.3346 468.829 Q84.4179 469.963 86.6401 470.518 Q88.8623 471.074 91.3391 471.074 Q95.3437 471.074 97.6817 468.967 Q100.02 466.861 100.02 463.25 Q100.02 459.639 97.6817 457.532 Q95.3437 455.426 91.3391 455.426 Q89.4641 455.426 87.5892 455.843 Q85.7373 456.259 83.7929 457.139 L83.7929 439.778 Z" fill="#000000" fill-rule="nonzero" fill-opacity="1" /><path clip-path="url(#clip060)" d="M56.6171 161.343 L72.9365 161.343 L72.9365 165.278 L50.9921 165.278 L50.9921 161.343 Q53.6541 158.588 58.2375 153.958 Q62.8439 149.306 64.0245 147.963 Q66.2698 145.44 67.1494 143.704 Q68.0522 141.944 68.0522 140.255 Q68.0522 137.5 66.1078 135.764 Q64.1865 134.028 61.0847 134.028 Q58.8856 134.028 56.4319 134.792 Q54.0014 135.556 51.2236 137.107 L51.2236 132.384 Q54.0477 131.25 56.5014 130.671 Q58.955 130.093 60.9921 130.093 Q66.3624 130.093 69.5568 132.778 Q72.7513 135.463 72.7513 139.954 Q72.7513 142.083 71.9411 144.005 Q71.1541 145.903 69.0476 148.495 Q68.4689 149.167 65.367 152.384 Q62.2652 155.579 56.6171 161.343 Z" fill="#000000" fill-rule="nonzero" fill-opacity="1" /><path clip-path="url(#clip060)" d="M92.7512 133.796 Q89.1401 133.796 87.3114 137.361 Q85.5058 140.903 85.5058 148.032 Q85.5058 155.139 87.3114 158.704 Q89.1401 162.245 92.7512 162.245 Q96.3854 162.245 98.1909 158.704 Q100.02 155.139 100.02 148.032 Q100.02 140.903 98.1909 137.361 Q96.3854 133.796 92.7512 133.796 M92.7512 130.093 Q98.5613 130.093 101.617 134.699 Q104.696 139.282 104.696 148.032 Q104.696 156.759 101.617 161.366 Q98.5613 165.949 92.7512 165.949 Q86.941 165.949 83.8623 161.366 Q80.8068 156.759 80.8068 148.032 Q80.8068 139.282 83.8623 134.699 Q86.941 130.093 92.7512 130.093 Z" fill="#000000" fill-rule="nonzero" fill-opacity="1" /><polyline clip-path="url(#clip061)" style="stroke:#009af9; stroke-linecap:round; stroke-linejoin:round; stroke-width:8; stroke-opacity:1; fill:none" points="140.696,1384.24 142.804,1384.24 144.913,1384.24 147.022,1384.24 149.13,1384.24 151.239,1384.24 153.348,1384.24 155.457,1384.24 157.565,1384.24 159.674,1384.24 161.783,1384.24 163.892,1384.24 166,1384.24 168.109,1384.24 170.218,1384.24 172.327,1384.24 174.435,1384.24 176.544,1384.24 178.653,1384.24 180.761,1384.24 182.87,1384.24 184.979,1384.24 187.088,1384.24 189.196,1384.24 191.305,1384.24 193.414,1384.24 195.523,1384.24 197.631,1384.24 199.74,1384.24 201.849,1384.24 203.958,1384.24 206.066,1384.24 208.175,1384.24 210.284,1384.24 212.392,1384.24 214.501,1384.24 216.61,1384.24 218.719,1384.24 220.827,1384.24 222.936,1384.24 225.045,1384.24 227.154,1384.24 229.262,1384.24 231.371,1384.24 233.48,1384.24 235.589,1384.24 237.697,1384.24 239.806,1384.24 241.915,1384.24 244.023,1384.24 246.132,1384.24 248.241,1322.43 250.35,1322.43 252.458,1322.43 254.567,1322.43 256.676,1322.43 258.785,1322.43 260.893,1322.43 263.002,1322.43 265.111,1322.43 267.219,1322.43 269.328,1322.43 271.437,1322.43 273.546,1322.43 275.654,1322.43 277.763,1322.43 279.872,1322.43 281.981,1322.43 284.089,1322.43 286.198,1322.43 288.307,1322.43 290.416,1322.43 292.524,1322.43 294.633,1322.43 296.742,1322.43 298.85,1322.43 300.959,1322.43 303.068,1322.43 305.177,1322.43 307.285,1322.43 309.394,1322.43 311.503,1322.43 313.612,1322.43 315.72,1322.43 317.829,1384.24 319.938,1384.24 322.047,1322.43 324.155,1322.43 326.264,1322.43 328.373,1322.43 330.481,1322.43 332.59,1322.43 334.699,1322.43 336.808,1260.61 338.916,1260.61 341.025,1260.61 343.134,1260.61 345.243,1260.61 347.351,1260.61 349.46,1260.61 351.569,1260.61 353.678,1260.61 355.786,1260.61 357.895,1260.61 360.004,1260.61 362.112,1260.61 364.221,1260.61 366.33,1260.61 368.439,1260.61 370.547,1260.61 372.656,1260.61 374.765,1260.61 376.874,1260.61 378.982,1260.61 381.091,1260.61 383.2,1260.61 385.309,1260.61 387.417,1198.8 389.526,1198.8 391.635,1198.8 393.743,1198.8 395.852,1198.8 397.961,1198.8 400.07,1198.8 402.178,1198.8 404.287,1198.8 406.396,1198.8 408.505,1260.61 410.613,1260.61 412.722,1260.61 414.831,1322.43 416.939,1322.43 419.048,1322.43 421.157,1322.43 423.266,1322.43 425.374,1322.43 427.483,1322.43 429.592,1322.43 431.701,1322.43 433.809,1322.43 435.918,1322.43 438.027,1322.43 440.136,1322.43 442.244,1322.43 444.353,1322.43 446.462,1322.43 448.57,1322.43 450.679,1322.43 452.788,1322.43 454.897,1322.43 457.005,1322.43 459.114,1322.43 461.223,1322.43 463.332,1322.43 465.44,1322.43 467.549,1384.24 469.658,1384.24 471.767,1384.24 473.875,1384.24 475.984,1384.24 478.093,1384.24 480.201,1384.24 482.31,1384.24 484.419,1384.24 486.528,1384.24 488.636,1384.24 490.745,1384.24 492.854,1384.24 494.963,1384.24 497.071,1384.24 499.18,1322.43 501.289,1322.43 503.398,1322.43 505.506,1322.43 507.615,1322.43 509.724,1260.61 511.832,1260.61 513.941,1260.61 516.05,1260.61 518.159,1260.61 520.267,1260.61 522.376,1260.61 524.485,1260.61 526.594,1260.61 528.702,1260.61 530.811,1260.61 532.92,1260.61 535.029,1260.61 537.137,1260.61 539.246,1260.61 541.355,1260.61 543.463,1260.61 545.572,1260.61 547.681,1260.61 549.79,1260.61 551.898,1260.61 554.007,1260.61 556.116,1260.61 558.225,1260.61 560.333,1260.61 562.442,1198.8 564.551,1198.8 566.66,1198.8 568.768,1198.8 570.877,1198.8 572.986,1198.8 575.094,1198.8 577.203,1198.8 579.312,1198.8 581.421,1260.61 583.529,1260.61 585.638,1260.61 587.747,1260.61 589.856,1260.61 591.964,1260.61 594.073,1260.61 596.182,1260.61 598.29,1322.43 600.399,1322.43 602.508,1260.61 604.617,1260.61 606.725,1260.61 608.834,1260.61 610.943,1260.61 613.052,1260.61 615.16,1260.61 617.269,1260.61 619.378,1260.61 621.487,1260.61 623.595,1260.61 625.704,1260.61 627.813,1260.61 629.921,1260.61 632.03,1260.61 634.139,1260.61 636.248,1260.61 638.356,1260.61 640.465,1260.61 642.574,1260.61 644.683,1260.61 646.791,1260.61 648.9,1260.61 651.009,1260.61 653.118,1260.61 655.226,1260.61 657.335,1260.61 659.444,1260.61 661.552,1260.61 663.661,1260.61 665.77,1260.61 667.879,1260.61 669.987,1260.61 672.096,1260.61 674.205,1260.61 676.314,1260.61 678.422,1260.61 680.531,1260.61 682.64,1260.61 684.749,1260.61 686.857,1322.43 688.966,1322.43 691.075,1322.43 693.183,1322.43 695.292,1322.43 697.401,1322.43 699.51,1322.43 701.618,1322.43 703.727,1322.43 705.836,1322.43 707.945,1322.43 710.053,1322.43 712.162,1322.43 714.271,1322.43 716.38,1322.43 718.488,1322.43 720.597,1322.43 722.706,1322.43 724.814,1384.24 726.923,1384.24 729.032,1384.24 731.141,1384.24 733.249,1384.24 735.358,1384.24 737.467,1384.24 739.576,1384.24 741.684,1384.24 743.793,1384.24 745.902,1384.24 748.01,1384.24 750.119,1384.24 752.228,1384.24 754.337,1384.24 756.445,1384.24 758.554,1384.24 760.663,1384.24 762.772,1384.24 764.88,1384.24 766.989,1384.24 769.098,1384.24 771.207,1384.24 773.315,1384.24 775.424,1384.24 777.533,1384.24 779.641,1384.24 781.75,1384.24 783.859,1384.24 785.968,1384.24 788.076,1384.24 790.185,1384.24 792.294,1384.24 794.403,1384.24 796.511,1384.24 798.62,1384.24 800.729,1384.24 802.838,1384.24 804.946,1384.24 807.055,1384.24 809.164,1384.24 811.272,1384.24 813.381,1384.24 815.49,1384.24 817.599,1384.24 819.707,1384.24 821.816,1384.24 823.925,1384.24 826.034,1384.24 828.142,1384.24 830.251,1384.24 832.36,1384.24 834.469,1384.24 836.577,1384.24 838.686,1384.24 840.795,1384.24 842.903,1384.24 845.012,1384.24 847.121,1384.24 849.23,1384.24 851.338,1384.24 853.447,1384.24 855.556,1384.24 857.665,1384.24 859.773,1384.24 861.882,1384.24 863.991,1384.24 866.1,1384.24 868.208,1384.24 870.317,1384.24 872.426,1384.24 874.534,1384.24 876.643,1384.24 878.752,1384.24 880.861,1384.24 882.969,1384.24 885.078,1384.24 887.187,1384.24 889.296,1384.24 891.404,1384.24 893.513,1384.24 895.622,1384.24 897.73,1384.24 899.839,1384.24 901.948,1384.24 904.057,1384.24 906.165,1384.24 908.274,1384.24 910.383,1384.24 912.492,1384.24 914.6,1384.24 916.709,1384.24 918.818,1384.24 920.927,1384.24 923.035,1384.24 925.144,1384.24 927.253,1384.24 929.361,1384.24 931.47,1384.24 933.579,1384.24 935.688,1384.24 937.796,1384.24 939.905,1384.24 942.014,1384.24 944.123,1384.24 946.231,1384.24 948.34,1384.24 950.449,1384.24 952.558,1384.24 954.666,1384.24 956.775,1384.24 958.884,1384.24 960.992,1322.43 963.101,1322.43 965.21,1322.43 967.319,1322.43 969.427,1322.43 971.536,1322.43 973.645,1322.43 975.754,1322.43 977.862,1322.43 979.971,1322.43 982.08,1322.43 984.189,1322.43 986.297,1322.43 988.406,1322.43 990.515,1322.43 992.623,1322.43 994.732,1322.43 996.841,1322.43 998.95,1322.43 1001.06,1322.43 1003.17,1322.43 1005.28,1322.43 1007.38,1322.43 1009.49,1322.43 1011.6,1322.43 1013.71,1322.43 1015.82,1322.43 1017.93,1322.43 1020.04,1322.43 1022.15,1322.43 1024.25,1322.43 1026.36,1322.43 1028.47,1260.61 1030.58,1260.61 1032.69,1260.61 1034.8,1322.43 1036.91,1322.43 1039.02,1322.43 1041.12,1322.43 1043.23,1322.43 1045.34,1322.43 1047.45,1322.43 1049.56,1322.43 1051.67,1322.43 1053.78,1322.43 1055.89,1322.43 1057.99,1322.43 1060.1,1322.43 1062.21,1260.61 1064.32,1260.61 1066.43,1198.8 1068.54,1198.8 1070.65,1198.8 1072.76,1198.8 1074.86,1198.8 1076.97,1198.8 1079.08,1198.8 1081.19,1198.8 1083.3,1136.99 1085.41,1136.99 1087.52,1136.99 1089.63,1136.99 1091.73,1136.99 1093.84,1136.99 1095.95,1136.99 1098.06,1198.8 1100.17,1198.8 1102.28,1260.61 1104.39,1260.61 1106.5,1260.61 1108.6,1260.61 1110.71,1260.61 1112.82,1260.61 1114.93,1260.61 1117.04,1260.61 1119.15,1260.61 1121.26,1260.61 1123.36,1260.61 1125.47,1260.61 1127.58,1260.61 1129.69,1260.61 1131.8,1260.61 1133.91,1260.61 1136.02,1260.61 1138.13,1322.43 1140.23,1322.43 1142.34,1322.43 1144.45,1322.43 1146.56,1322.43 1148.67,1322.43 1150.78,1322.43 1152.89,1322.43 1155,1322.43 1157.1,1322.43 1159.21,1322.43 1161.32,1384.24 1163.43,1384.24 1165.54,1384.24 1167.65,1384.24 1169.76,1384.24 1171.87,1384.24 1173.97,1384.24 1176.08,1384.24 1178.19,1384.24 1180.3,1384.24 1182.41,1384.24 1184.52,1384.24 1186.63,1384.24 1188.74,1384.24 1190.84,1384.24 1192.95,1384.24 1195.06,1384.24 1197.17,1384.24 1199.28,1384.24 1201.39,1384.24 1203.5,1384.24 1205.61,1384.24 1207.71,1384.24 1209.82,1384.24 1211.93,1384.24 1214.04,1384.24 1216.15,1384.24 1218.26,1384.24 1220.37,1384.24 1222.48,1384.24 1224.58,1384.24 1226.69,1384.24 1228.8,1384.24 1230.91,1384.24 1233.02,1384.24 1235.13,1384.24 1237.24,1384.24 1239.35,1384.24 1241.45,1384.24 1243.56,1384.24 1245.67,1384.24 1247.78,1384.24 1249.89,1384.24 1252,1384.24 1254.11,1384.24 1256.22,1384.24 1258.32,1384.24 1260.43,1384.24 1262.54,1384.24 1264.65,1384.24 1266.76,1384.24 1268.87,1384.24 1270.98,1384.24 1273.08,1384.24 1275.19,1384.24 1277.3,1384.24 1279.41,1384.24 1281.52,1384.24 1283.63,1384.24 1285.74,1384.24 1287.85,1384.24 1289.95,1384.24 1292.06,1384.24 1294.17,1384.24 1296.28,1384.24 1298.39,1384.24 1300.5,1384.24 1302.61,1384.24 1304.72,1384.24 1306.82,1384.24 1308.93,1384.24 1311.04,1384.24 1313.15,1384.24 1315.26,1384.24 1317.37,1384.24 1319.48,1384.24 1321.59,1384.24 1323.69,1384.24 1325.8,1384.24 1327.91,1384.24 1330.02,1384.24 1332.13,1384.24 1334.24,1384.24 1336.35,1384.24 1338.46,1384.24 1340.56,1384.24 1342.67,1384.24 1344.78,1384.24 1346.89,1384.24 1349,1384.24 1351.11,1384.24 1353.22,1384.24 1355.33,1384.24 1357.43,1384.24 1359.54,1384.24 1361.65,1384.24 1363.76,1384.24 1365.87,1384.24 1367.98,1384.24 1370.09,1384.24 1372.2,1384.24 1374.3,1384.24 1376.41,1384.24 1378.52,1384.24 1380.63,1384.24 1382.74,1384.24 1384.85,1384.24 1386.96,1384.24 1389.07,1384.24 1391.17,1384.24 1393.28,1384.24 1395.39,1384.24 1397.5,1384.24 1399.61,1384.24 1401.72,1384.24 1403.83,1384.24 1405.94,1322.43 1408.04,1322.43 1410.15,1322.43 1412.26,1322.43 1414.37,1322.43 1416.48,1260.61 1418.59,1260.61 1420.7,1260.61 1422.8,1260.61 1424.91,1260.61 1427.02,1260.61 1429.13,1260.61 1431.24,1260.61 1433.35,1260.61 1435.46,1260.61 1437.57,1260.61 1439.67,1260.61 1441.78,1260.61 1443.89,1260.61 1446,1260.61 1448.11,1260.61 1450.22,1260.61 1452.33,1260.61 1454.44,1322.43 1456.54,1322.43 1458.65,1322.43 1460.76,1322.43 1462.87,1322.43 1464.98,1322.43 1467.09,1322.43 1469.2,1322.43 1471.31,1322.43 1473.41,1322.43 1475.52,1322.43 1477.63,1322.43 1479.74,1322.43 1481.85,1322.43 1483.96,1322.43 1486.07,1322.43 1488.18,1322.43 1490.28,1322.43 1492.39,1322.43 1494.5,1322.43 1496.61,1322.43 1498.72,1322.43 1500.83,1322.43 1502.94,1322.43 1505.05,1322.43 1507.15,1322.43 1509.26,1322.43 1511.37,1322.43 1513.48,1322.43 1515.59,1322.43 1517.7,1322.43 1519.81,1322.43 1521.92,1322.43 1524.02,1322.43 1526.13,1322.43 1528.24,1322.43 1530.35,1322.43 1532.46,1322.43 1534.57,1260.61 1536.68,1260.61 1538.79,1260.61 1540.89,1260.61 1543,1260.61 1545.11,1260.61 1547.22,1260.61 1549.33,1260.61 1551.44,1260.61 1553.55,1260.61 1555.66,1260.61 1557.76,1260.61 1559.87,1260.61 1561.98,1260.61 1564.09,1260.61 1566.2,1260.61 1568.31,1260.61 1570.42,1260.61 1572.52,1260.61 1574.63,1260.61 1576.74,1260.61 1578.85,1260.61 1580.96,1260.61 1583.07,1260.61 1585.18,1260.61 1587.29,1260.61 1589.39,1260.61 1591.5,1260.61 1593.61,1260.61 1595.72,1260.61 1597.83,1260.61 1599.94,1260.61 1602.05,1260.61 1604.16,1260.61 1606.26,1260.61 1608.37,1260.61 1610.48,1260.61 1612.59,1260.61 1614.7,1260.61 1616.81,1260.61 1618.92,1260.61 1621.03,1260.61 1623.13,1260.61 1625.24,1260.61 1627.35,1260.61 1629.46,1260.61 1631.57,1260.61 1633.68,1260.61 1635.79,1322.43 1637.9,1322.43 1640,1322.43 1642.11,1322.43 1644.22,1322.43 1646.33,1322.43 1648.44,1322.43 1650.55,1322.43 1652.66,1322.43 1654.77,1322.43 1656.87,1322.43 1658.98,1322.43 1661.09,1322.43 1663.2,1322.43 1665.31,1322.43 1667.42,1322.43 1669.53,1322.43 1671.64,1322.43 1673.74,1322.43 1675.85,1322.43 1677.96,1384.24 1680.07,1384.24 1682.18,1384.24 1684.29,1384.24 1686.4,1384.24 1688.51,1384.24 1690.61,1384.24 1692.72,1384.24 1694.83,1384.24 1696.94,1384.24 1699.05,1384.24 1701.16,1384.24 1703.27,1384.24 1705.38,1384.24 1707.48,1384.24 1709.59,1384.24 1711.7,1384.24 1713.81,1384.24 1715.92,1384.24 1718.03,1384.24 1720.14,1384.24 1722.24,1384.24 1724.35,1384.24 1726.46,1384.24 1728.57,1384.24 1730.68,1384.24 1732.79,1384.24 1734.9,1384.24 1737.01,1384.24 1739.11,1384.24 1741.22,1384.24 1743.33,1384.24 1745.44,1384.24 1747.55,1384.24 1749.66,1384.24 1751.77,1384.24 1753.88,1384.24 1755.98,1384.24 1758.09,1384.24 1760.2,1384.24 1762.31,1384.24 1764.42,1384.24 1766.53,1384.24 1768.64,1384.24 1770.75,1384.24 1772.85,1384.24 1774.96,1384.24 1777.07,1384.24 1779.18,1384.24 1781.29,1384.24 1783.4,1384.24 1785.51,1384.24 1787.62,1384.24 1789.72,1384.24 1791.83,1384.24 1793.94,1384.24 1796.05,1384.24 1798.16,1384.24 1800.27,1384.24 1802.38,1384.24 1804.49,1384.24 1806.59,1384.24 1808.7,1384.24 1810.81,1384.24 1812.92,1384.24 1815.03,1384.24 1817.14,1384.24 1819.25,1384.24 1821.36,1384.24 1823.46,1384.24 1825.57,1384.24 1827.68,1384.24 1829.79,1384.24 1831.9,1384.24 1834.01,1384.24 1836.12,1384.24 1838.23,1384.24 1840.33,1384.24 1842.44,1384.24 1844.55,1384.24 1846.66,1384.24 1848.77,1384.24 1850.88,1384.24 1852.99,1384.24 1855.1,1384.24 1857.2,1384.24 1859.31,1384.24 1861.42,1384.24 1863.53,1384.24 1865.64,1384.24 1867.75,1384.24 1869.86,1384.24 1871.96,1384.24 1874.07,1384.24 1876.18,1384.24 1878.29,1384.24 1880.4,1384.24 1882.51,1384.24 1884.62,1384.24 1886.73,1384.24 1888.83,1384.24 1890.94,1384.24 1893.05,1384.24 1895.16,1384.24 1897.27,1384.24 1899.38,1384.24 1901.49,1384.24 1903.6,1384.24 1905.7,1384.24 1907.81,1322.43 1909.92,1322.43 1912.03,1322.43 1914.14,1322.43 1916.25,1322.43 1918.36,1322.43 1920.47,1322.43 1922.57,1322.43 1924.68,1322.43 1926.79,1322.43 1928.9,1322.43 1931.01,1322.43 1933.12,1322.43 1935.23,1322.43 1937.34,1384.24 1939.44,1384.24 1941.55,1384.24 1943.66,1384.24 1945.77,1384.24 1947.88,1384.24 1949.99,1384.24 1952.1,1384.24 1954.21,1384.24 1956.31,1384.24 1958.42,1384.24 1960.53,1384.24 1962.64,1384.24 1964.75,1384.24 1966.86,1384.24 1968.97,1384.24 1971.08,1384.24 1973.18,1384.24 1975.29,1384.24 1977.4,1384.24 1979.51,1384.24 1981.62,1384.24 1983.73,1384.24 1985.84,1384.24 1987.95,1384.24 1990.05,1384.24 1992.16,1384.24 1994.27,1384.24 1996.38,1384.24 1998.49,1384.24 2000.6,1384.24 2002.71,1384.24 2004.82,1384.24 2006.92,1384.24 2009.03,1384.24 2011.14,1384.24 2013.25,1384.24 2015.36,1384.24 2017.47,1384.24 2019.58,1384.24 2021.68,1384.24 2023.79,1384.24 2025.9,1384.24 2028.01,1384.24 2030.12,1384.24 2032.23,1322.43 2034.34,1322.43 2036.45,1322.43 2038.55,1322.43 2040.66,1322.43 2042.77,1322.43 2044.88,1322.43 2046.99,1322.43 2049.1,1322.43 2051.21,1260.61 2053.32,1260.61 2055.42,1260.61 2057.53,1260.61 2059.64,1260.61 2061.75,1260.61 2063.86,1260.61 2065.97,1260.61 2068.08,1260.61 2070.19,1198.8 2072.29,1198.8 2074.4,1198.8 2076.51,1198.8 2078.62,1198.8 2080.73,1198.8 2082.84,1198.8 2084.95,1198.8 2087.06,1198.8 2089.16,1198.8 2091.27,1198.8 2093.38,1198.8 2095.49,1198.8 2097.6,1198.8 2099.71,1198.8 2101.82,1198.8 2103.93,1198.8 2106.03,1136.99 2108.14,1136.99 2110.25,1136.99 2112.36,1136.99 2114.47,1136.99 2116.58,1136.99 2118.69,1075.18 2120.8,1075.18 2122.9,1075.18 2125.01,1075.18 2127.12,1136.99 2129.23,1136.99 2131.34,1136.99 2133.45,1136.99 2135.56,1136.99 2137.67,1136.99 2139.77,1136.99 2141.88,1136.99 2143.99,1136.99 2146.1,1136.99 2148.21,1136.99 2150.32,1136.99 2152.43,1136.99 2154.54,1136.99 2156.64,1136.99 2158.75,1136.99 2160.86,1136.99 2162.97,1136.99 2165.08,1136.99 2167.19,1136.99 2169.3,1136.99 2171.4,1136.99 2173.51,1136.99 2175.62,1136.99 2177.73,1136.99 2179.84,1136.99 2181.95,1136.99 2184.06,1136.99 2186.17,1136.99 2188.27,1136.99 2190.38,1136.99 2192.49,1136.99 2194.6,1136.99 2196.71,1136.99 2198.82,1136.99 2200.93,1136.99 2203.04,1136.99 2205.14,1136.99 2207.25,1136.99 2209.36,1136.99 2211.47,1136.99 2213.58,1136.99 2215.69,1136.99 2217.8,1136.99 2219.91,1136.99 2222.01,1136.99 2224.12,1136.99 2226.23,1136.99 2228.34,1136.99 2230.45,1136.99 2232.56,1136.99 2234.67,1136.99 2236.78,1136.99 2238.88,1136.99 2240.99,1136.99 2243.1,1136.99 2245.21,1136.99 2247.32,1136.99 2249.43,1136.99 2251.54,1136.99 2253.65,1136.99 2255.75,1136.99 2257.86,1136.99 2259.97,1136.99 2262.08,1136.99 2264.19,1136.99 2266.3,1136.99 2268.41,1136.99 2270.52,1136.99 2272.62,1136.99 2274.73,1136.99 2276.84,1136.99 2278.95,1136.99 2281.06,1136.99 2283.17,1136.99 2285.28,1136.99 2287.39,1136.99 2289.49,1136.99 2291.6,1136.99 2293.71,1136.99 2295.82,1136.99 2297.93,1136.99 2300.04,1198.8 2302.15,1198.8 2304.26,1198.8 2306.36,1198.8 2308.47,1198.8 2310.58,1198.8 2312.69,1136.99 2314.8,1136.99 2316.91,1136.99 2319.02,1136.99 2321.12,1136.99 2323.23,1136.99 2325.34,1136.99 2327.45,1075.18 2329.56,1136.99 2331.67,1136.99 2333.78,1136.99 2335.89,1136.99 2337.99,1136.99 2340.1,1136.99 2342.21,1075.18 2344.32,1075.18 2346.43,1075.18 2348.54,1075.18 2350.65,1013.37 2352.76,1013.37 "/>
<polyline clip-path="url(#clip061)" style="stroke:#e26f46; stroke-linecap:round; stroke-linejoin:round; stroke-width:8; stroke-opacity:1; fill:none" points="140.696,1384.24 142.804,1384.24 144.913,1384.24 147.022,1384.24 149.13,1384.24 151.239,1384.24 153.348,1384.24 155.457,1384.24 157.565,1384.24 159.674,1384.24 161.783,1384.24 163.892,1384.24 166,1384.24 168.109,1384.24 170.218,1384.24 172.327,1384.24 174.435,1384.24 176.544,1384.24 178.653,1384.24 180.761,1384.24 182.87,1384.24 184.979,1384.24 187.088,1384.24 189.196,1384.24 191.305,1384.24 193.414,1384.24 195.523,1384.24 197.631,1384.24 199.74,1384.24 201.849,1384.24 203.958,1384.24 206.066,1384.24 208.175,1384.24 210.284,1384.24 212.392,1384.24 214.501,1384.24 216.61,1384.24 218.719,1384.24 220.827,1384.24 222.936,1384.24 225.045,1384.24 227.154,1384.24 229.262,1384.24 231.371,1384.24 233.48,1384.24 235.589,1384.24 237.697,1384.24 239.806,1384.24 241.915,1384.24 244.023,1384.24 246.132,1384.24 248.241,1384.24 250.35,1384.24 252.458,1384.24 254.567,1384.24 256.676,1384.24 258.785,1384.24 260.893,1384.24 263.002,1384.24 265.111,1384.24 267.219,1384.24 269.328,1384.24 271.437,1384.24 273.546,1384.24 275.654,1384.24 277.763,1384.24 279.872,1384.24 281.981,1384.24 284.089,1384.24 286.198,1384.24 288.307,1384.24 290.416,1384.24 292.524,1384.24 294.633,1384.24 296.742,1384.24 298.85,1384.24 300.959,1384.24 303.068,1384.24 305.177,1384.24 307.285,1384.24 309.394,1384.24 311.503,1384.24 313.612,1384.24 315.72,1384.24 317.829,1322.43 319.938,1322.43 322.047,1322.43 324.155,1322.43 326.264,1322.43 328.373,1322.43 330.481,1322.43 332.59,1322.43 334.699,1322.43 336.808,1322.43 338.916,1322.43 341.025,1322.43 343.134,1322.43 345.243,1322.43 347.351,1322.43 349.46,1322.43 351.569,1322.43 353.678,1322.43 355.786,1322.43 357.895,1322.43 360.004,1322.43 362.112,1322.43 364.221,1322.43 366.33,1322.43 368.439,1322.43 370.547,1322.43 372.656,1322.43 374.765,1322.43 376.874,1322.43 378.982,1322.43 381.091,1322.43 383.2,1322.43 385.309,1322.43 387.417,1322.43 389.526,1322.43 391.635,1322.43 393.743,1322.43 395.852,1322.43 397.961,1322.43 400.07,1322.43 402.178,1322.43 404.287,1322.43 406.396,1322.43 408.505,1260.61 410.613,1260.61 412.722,1260.61 414.831,1198.8 416.939,1198.8 419.048,1198.8 421.157,1198.8 423.266,1198.8 425.374,1198.8 427.483,1198.8 429.592,1198.8 431.701,1198.8 433.809,1198.8 435.918,1198.8 438.027,1198.8 440.136,1198.8 442.244,1198.8 444.353,1198.8 446.462,1198.8 448.57,1198.8 450.679,1198.8 452.788,1198.8 454.897,1198.8 457.005,1198.8 459.114,1198.8 461.223,1198.8 463.332,1198.8 465.44,1198.8 467.549,1136.99 469.658,1136.99 471.767,1136.99 473.875,1136.99 475.984,1136.99 478.093,1136.99 480.201,1136.99 482.31,1136.99 484.419,1136.99 486.528,1136.99 488.636,1136.99 490.745,1136.99 492.854,1136.99 494.963,1136.99 497.071,1136.99 499.18,1136.99 501.289,1136.99 503.398,1136.99 505.506,1136.99 507.615,1136.99 509.724,1136.99 511.832,1075.18 513.941,1075.18 516.05,1075.18 518.159,1075.18 520.267,1075.18 522.376,1075.18 524.485,1075.18 526.594,1075.18 528.702,1075.18 530.811,1075.18 532.92,1075.18 535.029,1075.18 537.137,1075.18 539.246,1075.18 541.355,1075.18 543.463,1075.18 545.572,1075.18 547.681,1075.18 549.79,1075.18 551.898,1075.18 554.007,1075.18 556.116,1075.18 558.225,1075.18 560.333,1075.18 562.442,1075.18 564.551,1075.18 566.66,1075.18 568.768,1075.18 570.877,1075.18 572.986,1075.18 575.094,1075.18 577.203,1075.18 579.312,1075.18 581.421,1013.37 583.529,1013.37 585.638,1013.37 587.747,1013.37 589.856,1013.37 591.964,1013.37 594.073,1013.37 596.182,1013.37 598.29,951.554 600.399,951.554 602.508,951.554 604.617,951.554 606.725,951.554 608.834,951.554 610.943,951.554 613.052,951.554 615.16,951.554 617.269,951.554 619.378,951.554 621.487,951.554 623.595,951.554 625.704,951.554 627.813,951.554 629.921,951.554 632.03,951.554 634.139,951.554 636.248,951.554 638.356,951.554 640.465,951.554 642.574,951.554 644.683,951.554 646.791,951.554 648.9,951.554 651.009,951.554 653.118,951.554 655.226,951.554 657.335,951.554 659.444,951.554 661.552,951.554 663.661,951.554 665.77,951.554 667.879,951.554 669.987,951.554 672.096,951.554 674.205,951.554 676.314,951.554 678.422,951.554 680.531,951.554 682.64,951.554 684.749,951.554 686.857,889.742 688.966,889.742 691.075,889.742 693.183,889.742 695.292,889.742 697.401,889.742 699.51,889.742 701.618,889.742 703.727,889.742 705.836,889.742 707.945,889.742 710.053,889.742 712.162,889.742 714.271,889.742 716.38,889.742 718.488,889.742 720.597,889.742 722.706,889.742 724.814,827.93 726.923,827.93 729.032,827.93 731.141,827.93 733.249,827.93 735.358,827.93 737.467,827.93 739.576,827.93 741.684,827.93 743.793,827.93 745.902,827.93 748.01,827.93 750.119,827.93 752.228,827.93 754.337,827.93 756.445,827.93 758.554,827.93 760.663,827.93 762.772,827.93 764.88,827.93 766.989,827.93 769.098,827.93 771.207,827.93 773.315,827.93 775.424,827.93 777.533,827.93 779.641,827.93 781.75,827.93 783.859,827.93 785.968,827.93 788.076,827.93 790.185,827.93 792.294,827.93 794.403,827.93 796.511,827.93 798.62,827.93 800.729,827.93 802.838,827.93 804.946,827.93 807.055,827.93 809.164,827.93 811.272,827.93 813.381,827.93 815.49,827.93 817.599,827.93 819.707,827.93 821.816,827.93 823.925,827.93 826.034,827.93 828.142,827.93 830.251,827.93 832.36,827.93 834.469,827.93 836.577,827.93 838.686,827.93 840.795,827.93 842.903,827.93 845.012,827.93 847.121,827.93 849.23,827.93 851.338,827.93 853.447,827.93 855.556,827.93 857.665,827.93 859.773,827.93 861.882,827.93 863.991,827.93 866.1,827.93 868.208,827.93 870.317,827.93 872.426,827.93 874.534,827.93 876.643,827.93 878.752,827.93 880.861,827.93 882.969,827.93 885.078,827.93 887.187,827.93 889.296,827.93 891.404,827.93 893.513,827.93 895.622,827.93 897.73,827.93 899.839,827.93 901.948,827.93 904.057,827.93 906.165,827.93 908.274,827.93 910.383,827.93 912.492,827.93 914.6,827.93 916.709,827.93 918.818,827.93 920.927,827.93 923.035,827.93 925.144,827.93 927.253,827.93 929.361,827.93 931.47,827.93 933.579,827.93 935.688,827.93 937.796,827.93 939.905,827.93 942.014,827.93 944.123,827.93 946.231,827.93 948.34,827.93 950.449,827.93 952.558,827.93 954.666,827.93 956.775,827.93 958.884,827.93 960.992,827.93 963.101,827.93 965.21,827.93 967.319,827.93 969.427,827.93 971.536,827.93 973.645,827.93 975.754,827.93 977.862,827.93 979.971,827.93 982.08,827.93 984.189,827.93 986.297,827.93 988.406,827.93 990.515,827.93 992.623,827.93 994.732,827.93 996.841,827.93 998.95,827.93 1001.06,827.93 1003.17,827.93 1005.28,827.93 1007.38,827.93 1009.49,827.93 1011.6,827.93 1013.71,827.93 1015.82,827.93 1017.93,827.93 1020.04,827.93 1022.15,827.93 1024.25,827.93 1026.36,827.93 1028.47,827.93 1030.58,827.93 1032.69,827.93 1034.8,766.118 1036.91,766.118 1039.02,766.118 1041.12,766.118 1043.23,766.118 1045.34,766.118 1047.45,766.118 1049.56,766.118 1051.67,766.118 1053.78,766.118 1055.89,766.118 1057.99,766.118 1060.1,766.118 1062.21,766.118 1064.32,766.118 1066.43,766.118 1068.54,766.118 1070.65,766.118 1072.76,766.118 1074.86,766.118 1076.97,766.118 1079.08,766.118 1081.19,766.118 1083.3,766.118 1085.41,766.118 1087.52,766.118 1089.63,766.118 1091.73,766.118 1093.84,766.118 1095.95,766.118 1098.06,704.306 1100.17,704.306 1102.28,642.494 1104.39,642.494 1106.5,642.494 1108.6,642.494 1110.71,642.494 1112.82,642.494 1114.93,642.494 1117.04,642.494 1119.15,642.494 1121.26,642.494 1123.36,642.494 1125.47,642.494 1127.58,642.494 1129.69,642.494 1131.8,642.494 1133.91,642.494 1136.02,642.494 1138.13,580.682 1140.23,580.682 1142.34,580.682 1144.45,580.682 1146.56,580.682 1148.67,580.682 1150.78,580.682 1152.89,580.682 1155,580.682 1157.1,580.682 1159.21,580.682 1161.32,518.87 1163.43,518.87 1165.54,518.87 1167.65,518.87 1169.76,518.87 1171.87,518.87 1173.97,518.87 1176.08,518.87 1178.19,518.87 1180.3,518.87 1182.41,518.87 1184.52,518.87 1186.63,518.87 1188.74,518.87 1190.84,518.87 1192.95,518.87 1195.06,518.87 1197.17,518.87 1199.28,518.87 1201.39,518.87 1203.5,518.87 1205.61,518.87 1207.71,518.87 1209.82,518.87 1211.93,518.87 1214.04,518.87 1216.15,518.87 1218.26,518.87 1220.37,518.87 1222.48,518.87 1224.58,518.87 1226.69,518.87 1228.8,518.87 1230.91,518.87 1233.02,518.87 1235.13,518.87 1237.24,518.87 1239.35,518.87 1241.45,518.87 1243.56,518.87 1245.67,518.87 1247.78,518.87 1249.89,518.87 1252,518.87 1254.11,518.87 1256.22,518.87 1258.32,518.87 1260.43,518.87 1262.54,518.87 1264.65,518.87 1266.76,518.87 1268.87,518.87 1270.98,518.87 1273.08,518.87 1275.19,518.87 1277.3,518.87 1279.41,518.87 1281.52,518.87 1283.63,518.87 1285.74,518.87 1287.85,518.87 1289.95,518.87 1292.06,518.87 1294.17,518.87 1296.28,518.87 1298.39,518.87 1300.5,518.87 1302.61,518.87 1304.72,518.87 1306.82,518.87 1308.93,518.87 1311.04,518.87 1313.15,518.87 1315.26,518.87 1317.37,518.87 1319.48,518.87 1321.59,518.87 1323.69,518.87 1325.8,518.87 1327.91,518.87 1330.02,518.87 1332.13,518.87 1334.24,518.87 1336.35,518.87 1338.46,518.87 1340.56,518.87 1342.67,518.87 1344.78,518.87 1346.89,518.87 1349,518.87 1351.11,518.87 1353.22,518.87 1355.33,518.87 1357.43,518.87 1359.54,518.87 1361.65,518.87 1363.76,518.87 1365.87,518.87 1367.98,518.87 1370.09,518.87 1372.2,518.87 1374.3,518.87 1376.41,518.87 1378.52,518.87 1380.63,518.87 1382.74,518.87 1384.85,518.87 1386.96,518.87 1389.07,518.87 1391.17,518.87 1393.28,518.87 1395.39,518.87 1397.5,518.87 1399.61,518.87 1401.72,518.87 1403.83,518.87 1405.94,518.87 1408.04,518.87 1410.15,518.87 1412.26,518.87 1414.37,518.87 1416.48,518.87 1418.59,518.87 1420.7,518.87 1422.8,518.87 1424.91,518.87 1427.02,518.87 1429.13,518.87 1431.24,518.87 1433.35,518.87 1435.46,518.87 1437.57,518.87 1439.67,518.87 1441.78,518.87 1443.89,518.87 1446,518.87 1448.11,518.87 1450.22,518.87 1452.33,518.87 1454.44,457.058 1456.54,457.058 1458.65,457.058 1460.76,457.058 1462.87,457.058 1464.98,457.058 1467.09,457.058 1469.2,457.058 1471.31,457.058 1473.41,457.058 1475.52,457.058 1477.63,457.058 1479.74,457.058 1481.85,457.058 1483.96,457.058 1486.07,457.058 1488.18,457.058 1490.28,457.058 1492.39,457.058 1494.5,457.058 1496.61,457.058 1498.72,457.058 1500.83,457.058 1502.94,457.058 1505.05,457.058 1507.15,457.058 1509.26,457.058 1511.37,457.058 1513.48,457.058 1515.59,457.058 1517.7,457.058 1519.81,457.058 1521.92,457.058 1524.02,457.058 1526.13,457.058 1528.24,457.058 1530.35,457.058 1532.46,457.058 1534.57,457.058 1536.68,457.058 1538.79,457.058 1540.89,457.058 1543,457.058 1545.11,457.058 1547.22,457.058 1549.33,457.058 1551.44,457.058 1553.55,457.058 1555.66,457.058 1557.76,457.058 1559.87,457.058 1561.98,457.058 1564.09,457.058 1566.2,457.058 1568.31,457.058 1570.42,457.058 1572.52,457.058 1574.63,457.058 1576.74,457.058 1578.85,457.058 1580.96,457.058 1583.07,457.058 1585.18,457.058 1587.29,457.058 1589.39,457.058 1591.5,457.058 1593.61,457.058 1595.72,457.058 1597.83,457.058 1599.94,457.058 1602.05,457.058 1604.16,457.058 1606.26,457.058 1608.37,457.058 1610.48,457.058 1612.59,457.058 1614.7,457.058 1616.81,457.058 1618.92,457.058 1621.03,457.058 1623.13,457.058 1625.24,457.058 1627.35,457.058 1629.46,457.058 1631.57,457.058 1633.68,457.058 1635.79,395.246 1637.9,395.246 1640,395.246 1642.11,395.246 1644.22,395.246 1646.33,395.246 1648.44,395.246 1650.55,395.246 1652.66,395.246 1654.77,395.246 1656.87,395.246 1658.98,395.246 1661.09,395.246 1663.2,395.246 1665.31,395.246 1667.42,395.246 1669.53,395.246 1671.64,395.246 1673.74,395.246 1675.85,395.246 1677.96,333.434 1680.07,333.434 1682.18,333.434 1684.29,333.434 1686.4,333.434 1688.51,333.434 1690.61,333.434 1692.72,333.434 1694.83,333.434 1696.94,333.434 1699.05,333.434 1701.16,333.434 1703.27,333.434 1705.38,333.434 1707.48,333.434 1709.59,333.434 1711.7,333.434 1713.81,333.434 1715.92,333.434 1718.03,333.434 1720.14,333.434 1722.24,333.434 1724.35,333.434 1726.46,333.434 1728.57,333.434 1730.68,333.434 1732.79,333.434 1734.9,333.434 1737.01,333.434 1739.11,333.434 1741.22,333.434 1743.33,333.434 1745.44,333.434 1747.55,333.434 1749.66,333.434 1751.77,333.434 1753.88,333.434 1755.98,333.434 1758.09,333.434 1760.2,333.434 1762.31,333.434 1764.42,333.434 1766.53,333.434 1768.64,333.434 1770.75,333.434 1772.85,333.434 1774.96,333.434 1777.07,333.434 1779.18,333.434 1781.29,333.434 1783.4,333.434 1785.51,333.434 1787.62,333.434 1789.72,333.434 1791.83,333.434 1793.94,333.434 1796.05,333.434 1798.16,333.434 1800.27,333.434 1802.38,333.434 1804.49,333.434 1806.59,333.434 1808.7,333.434 1810.81,333.434 1812.92,333.434 1815.03,333.434 1817.14,333.434 1819.25,333.434 1821.36,333.434 1823.46,333.434 1825.57,333.434 1827.68,333.434 1829.79,333.434 1831.9,333.434 1834.01,333.434 1836.12,333.434 1838.23,333.434 1840.33,333.434 1842.44,333.434 1844.55,333.434 1846.66,333.434 1848.77,333.434 1850.88,333.434 1852.99,333.434 1855.1,333.434 1857.2,333.434 1859.31,333.434 1861.42,333.434 1863.53,333.434 1865.64,333.434 1867.75,333.434 1869.86,333.434 1871.96,333.434 1874.07,333.434 1876.18,333.434 1878.29,333.434 1880.4,333.434 1882.51,333.434 1884.62,333.434 1886.73,333.434 1888.83,333.434 1890.94,333.434 1893.05,333.434 1895.16,333.434 1897.27,333.434 1899.38,333.434 1901.49,333.434 1903.6,333.434 1905.7,333.434 1907.81,333.434 1909.92,333.434 1912.03,333.434 1914.14,333.434 1916.25,333.434 1918.36,333.434 1920.47,333.434 1922.57,333.434 1924.68,333.434 1926.79,333.434 1928.9,333.434 1931.01,333.434 1933.12,333.434 1935.23,333.434 1937.34,271.622 1939.44,271.622 1941.55,271.622 1943.66,271.622 1945.77,271.622 1947.88,271.622 1949.99,271.622 1952.1,271.622 1954.21,271.622 1956.31,271.622 1958.42,271.622 1960.53,271.622 1962.64,271.622 1964.75,271.622 1966.86,271.622 1968.97,271.622 1971.08,271.622 1973.18,271.622 1975.29,271.622 1977.4,271.622 1979.51,271.622 1981.62,271.622 1983.73,271.622 1985.84,271.622 1987.95,271.622 1990.05,271.622 1992.16,271.622 1994.27,271.622 1996.38,271.622 1998.49,271.622 2000.6,271.622 2002.71,271.622 2004.82,271.622 2006.92,271.622 2009.03,271.622 2011.14,271.622 2013.25,271.622 2015.36,271.622 2017.47,271.622 2019.58,271.622 2021.68,271.622 2023.79,271.622 2025.9,271.622 2028.01,271.622 2030.12,271.622 2032.23,271.622 2034.34,271.622 2036.45,271.622 2038.55,271.622 2040.66,271.622 2042.77,271.622 2044.88,271.622 2046.99,271.622 2049.1,271.622 2051.21,271.622 2053.32,271.622 2055.42,271.622 2057.53,271.622 2059.64,271.622 2061.75,271.622 2063.86,271.622 2065.97,271.622 2068.08,271.622 2070.19,271.622 2072.29,271.622 2074.4,271.622 2076.51,271.622 2078.62,271.622 2080.73,271.622 2082.84,271.622 2084.95,271.622 2087.06,271.622 2089.16,271.622 2091.27,271.622 2093.38,271.622 2095.49,271.622 2097.6,271.622 2099.71,271.622 2101.82,271.622 2103.93,271.622 2106.03,271.622 2108.14,271.622 2110.25,271.622 2112.36,271.622 2114.47,271.622 2116.58,271.622 2118.69,271.622 2120.8,271.622 2122.9,271.622 2125.01,271.622 2127.12,209.81 2129.23,209.81 2131.34,209.81 2133.45,209.81 2135.56,209.81 2137.67,209.81 2139.77,209.81 2141.88,209.81 2143.99,209.81 2146.1,209.81 2148.21,209.81 2150.32,209.81 2152.43,209.81 2154.54,209.81 2156.64,209.81 2158.75,209.81 2160.86,209.81 2162.97,209.81 2165.08,209.81 2167.19,209.81 2169.3,209.81 2171.4,209.81 2173.51,209.81 2175.62,209.81 2177.73,209.81 2179.84,209.81 2181.95,209.81 2184.06,209.81 2186.17,209.81 2188.27,209.81 2190.38,209.81 2192.49,209.81 2194.6,209.81 2196.71,209.81 2198.82,209.81 2200.93,209.81 2203.04,209.81 2205.14,209.81 2207.25,209.81 2209.36,209.81 2211.47,209.81 2213.58,209.81 2215.69,209.81 2217.8,209.81 2219.91,209.81 2222.01,209.81 2224.12,209.81 2226.23,209.81 2228.34,209.81 2230.45,209.81 2232.56,209.81 2234.67,209.81 2236.78,209.81 2238.88,209.81 2240.99,209.81 2243.1,209.81 2245.21,209.81 2247.32,209.81 2249.43,209.81 2251.54,209.81 2253.65,209.81 2255.75,209.81 2257.86,209.81 2259.97,209.81 2262.08,209.81 2264.19,209.81 2266.3,209.81 2268.41,209.81 2270.52,209.81 2272.62,209.81 2274.73,209.81 2276.84,209.81 2278.95,209.81 2281.06,209.81 2283.17,209.81 2285.28,209.81 2287.39,209.81 2289.49,209.81 2291.6,209.81 2293.71,209.81 2295.82,209.81 2297.93,209.81 2300.04,147.998 2302.15,147.998 2304.26,147.998 2306.36,147.998 2308.47,147.998 2310.58,147.998 2312.69,147.998 2314.8,147.998 2316.91,147.998 2319.02,147.998 2321.12,147.998 2323.23,147.998 2325.34,147.998 2327.45,147.998 2329.56,86.1857 2331.67,86.1857 2333.78,86.1857 2335.89,86.1857 2337.99,86.1857 2340.1,86.1857 2342.21,86.1857 2344.32,86.1857 2346.43,86.1857 2348.54,86.1857 2350.65,86.1857 2352.76,86.1857 "/>
<path clip-path="url(#clip060)" d="M214.431 248.629 L518.993 248.629 L518.993 93.1086 L214.431 93.1086  Z" fill="#ffffff" fill-rule="evenodd" fill-opacity="1"/>
<polyline clip-path="url(#clip060)" style="stroke:#000000; stroke-linecap:round; stroke-linejoin:round; stroke-width:4; stroke-opacity:1; fill:none" points="214.431,248.629 518.993,248.629 518.993,93.1086 214.431,93.1086 214.431,248.629 "/>
<polyline clip-path="url(#clip060)" style="stroke:#009af9; stroke-linecap:round; stroke-linejoin:round; stroke-width:8; stroke-opacity:1; fill:none" points="239.009,144.949 386.48,144.949 "/>
<path clip-path="url(#clip060)" d="M411.058 127.669 L417.355 127.669 L432.679 156.581 L432.679 127.669 L437.216 127.669 L437.216 162.229 L430.919 162.229 L415.595 133.317 L415.595 162.229 L411.058 162.229 L411.058 127.669 Z" fill="#000000" fill-rule="nonzero" fill-opacity="1" /><path clip-path="url(#clip060)" d="M456.567 126.257 Q453.466 131.581 451.961 136.789 Q450.456 141.997 450.456 147.344 Q450.456 152.692 451.961 157.946 Q453.489 163.178 456.567 168.479 L452.864 168.479 Q449.392 163.039 447.656 157.784 Q445.943 152.53 445.943 147.344 Q445.943 142.182 447.656 136.951 Q449.368 131.72 452.864 126.257 L456.567 126.257 Z" fill="#000000" fill-rule="nonzero" fill-opacity="1" /><path clip-path="url(#clip060)" d="M469.044 128.942 L469.044 136.303 L477.817 136.303 L477.817 139.613 L469.044 139.613 L469.044 153.687 Q469.044 156.858 469.901 157.761 Q470.78 158.664 473.442 158.664 L477.817 158.664 L477.817 162.229 L473.442 162.229 Q468.512 162.229 466.637 160.4 Q464.762 158.548 464.762 153.687 L464.762 139.613 L461.637 139.613 L461.637 136.303 L464.762 136.303 L464.762 128.942 L469.044 128.942 Z" fill="#000000" fill-rule="nonzero" fill-opacity="1" /><path clip-path="url(#clip060)" d="M482.748 126.257 L486.452 126.257 Q489.924 131.72 491.637 136.951 Q493.373 142.182 493.373 147.344 Q493.373 152.53 491.637 157.784 Q489.924 163.039 486.452 168.479 L482.748 168.479 Q485.827 163.178 487.331 157.946 Q488.859 152.692 488.859 147.344 Q488.859 141.997 487.331 136.789 Q485.827 131.581 482.748 126.257 Z" fill="#000000" fill-rule="nonzero" fill-opacity="1" /><polyline clip-path="url(#clip060)" style="stroke:#e26f46; stroke-linecap:round; stroke-linejoin:round; stroke-width:8; stroke-opacity:1; fill:none" points="239.009,196.789 386.48,196.789 "/>
<path clip-path="url(#clip060)" d="M415.734 183.351 L415.734 210.226 L421.382 210.226 Q428.535 210.226 431.845 206.985 Q435.179 203.745 435.179 196.754 Q435.179 189.809 431.845 186.592 Q428.535 183.351 421.382 183.351 L415.734 183.351 M411.058 179.509 L420.665 179.509 Q430.711 179.509 435.41 183.698 Q440.109 187.865 440.109 196.754 Q440.109 205.689 435.387 209.879 Q430.665 214.069 420.665 214.069 L411.058 214.069 L411.058 179.509 Z" fill="#000000" fill-rule="nonzero" fill-opacity="1" /><path clip-path="url(#clip060)" d="M457.609 178.097 Q454.507 183.421 453.003 188.629 Q451.498 193.837 451.498 199.184 Q451.498 204.532 453.003 209.786 Q454.53 215.018 457.609 220.319 L453.905 220.319 Q450.433 214.879 448.697 209.624 Q446.984 204.37 446.984 199.184 Q446.984 194.022 448.697 188.791 Q450.41 183.56 453.905 178.097 L457.609 178.097 Z" fill="#000000" fill-rule="nonzero" fill-opacity="1" /><path clip-path="url(#clip060)" d="M470.086 180.782 L470.086 188.143 L478.859 188.143 L478.859 191.453 L470.086 191.453 L470.086 205.527 Q470.086 208.698 470.942 209.601 Q471.822 210.504 474.484 210.504 L478.859 210.504 L478.859 214.069 L474.484 214.069 Q469.554 214.069 467.679 212.24 Q465.804 210.388 465.804 205.527 L465.804 191.453 L462.679 191.453 L462.679 188.143 L465.804 188.143 L465.804 180.782 L470.086 180.782 Z" fill="#000000" fill-rule="nonzero" fill-opacity="1" /><path clip-path="url(#clip060)" d="M483.79 178.097 L487.493 178.097 Q490.965 183.56 492.678 188.791 Q494.415 194.022 494.415 199.184 Q494.415 204.37 492.678 209.624 Q490.965 214.879 487.493 220.319 L483.79 220.319 Q486.868 215.018 488.373 209.786 Q489.901 204.532 489.901 199.184 Q489.901 193.837 488.373 188.629 Q486.868 183.421 483.79 178.097 Z" fill="#000000" fill-rule="nonzero" fill-opacity="1" /></svg>
