<?xml version="1.0" encoding="utf-8"?>
<svg xmlns="http://www.w3.org/2000/svg" xmlns:xlink="http://www.w3.org/1999/xlink" width="600" height="400" viewBox="0 0 2400 1600">
<defs>
  <clipPath id="clip910">
    <rect x="0" y="0" width="2400" height="1600"/>
  </clipPath>
</defs>
<path clip-path="url(#clip910)" d="M0 1600 L2400 1600 L2400 0 L0 0  Z" fill="#ffffff" fill-rule="evenodd" fill-opacity="1"/>
<defs>
  <clipPath id="clip911">
    <rect x="480" y="0" width="1681" height="1600"/>
  </clipPath>
</defs>
<path clip-path="url(#clip910)" d="M155.765 1423.18 L2352.76 1423.18 L2352.76 47.2441 L155.765 47.2441  Z" fill="#ffffff" fill-rule="evenodd" fill-opacity="1"/>
<defs>
  <clipPath id="clip912">
    <rect x="155" y="47" width="2198" height="1377"/>
  </clipPath>
</defs>
<polyline clip-path="url(#clip912)" style="stroke:#000000; stroke-linecap:round; stroke-linejoin:round; stroke-width:2; stroke-opacity:0.1; fill:none" points="155.765,1423.18 155.765,47.2441 "/>
<polyline clip-path="url(#clip912)" style="stroke:#000000; stroke-linecap:round; stroke-linejoin:round; stroke-width:2; stroke-opacity:0.1; fill:none" points="595.163,1423.18 595.163,47.2441 "/>
<polyline clip-path="url(#clip912)" style="stroke:#000000; stroke-linecap:round; stroke-linejoin:round; stroke-width:2; stroke-opacity:0.1; fill:none" points="1034.56,1423.18 1034.56,47.2441 "/>
<polyline clip-path="url(#clip912)" style="stroke:#000000; stroke-linecap:round; stroke-linejoin:round; stroke-width:2; stroke-opacity:0.1; fill:none" points="1473.96,1423.18 1473.96,47.2441 "/>
<polyline clip-path="url(#clip912)" style="stroke:#000000; stroke-linecap:round; stroke-linejoin:round; stroke-width:2; stroke-opacity:0.1; fill:none" points="1913.36,1423.18 1913.36,47.2441 "/>
<polyline clip-path="url(#clip912)" style="stroke:#000000; stroke-linecap:round; stroke-linejoin:round; stroke-width:2; stroke-opacity:0.1; fill:none" points="2352.76,1423.18 2352.76,47.2441 "/>
<polyline clip-path="url(#clip912)" style="stroke:#000000; stroke-linecap:round; stroke-linejoin:round; stroke-width:2; stroke-opacity:0.1; fill:none" points="155.765,1232.22 2352.76,1232.22 "/>
<polyline clip-path="url(#clip912)" style="stroke:#000000; stroke-linecap:round; stroke-linejoin:round; stroke-width:2; stroke-opacity:0.1; fill:none" points="155.765,978.861 2352.76,978.861 "/>
<polyline clip-path="url(#clip912)" style="stroke:#000000; stroke-linecap:round; stroke-linejoin:round; stroke-width:2; stroke-opacity:0.1; fill:none" points="155.765,725.5 2352.76,725.5 "/>
<polyline clip-path="url(#clip912)" style="stroke:#000000; stroke-linecap:round; stroke-linejoin:round; stroke-width:2; stroke-opacity:0.1; fill:none" points="155.765,472.139 2352.76,472.139 "/>
<polyline clip-path="url(#clip912)" style="stroke:#000000; stroke-linecap:round; stroke-linejoin:round; stroke-width:2; stroke-opacity:0.1; fill:none" points="155.765,218.779 2352.76,218.779 "/>
<polyline clip-path="url(#clip910)" style="stroke:#000000; stroke-linecap:round; stroke-linejoin:round; stroke-width:4; stroke-opacity:1; fill:none" points="155.765,1423.18 2352.76,1423.18 "/>
<polyline clip-path="url(#clip910)" style="stroke:#000000; stroke-linecap:round; stroke-linejoin:round; stroke-width:4; stroke-opacity:1; fill:none" points="155.765,1423.18 155.765,1404.28 "/>
<polyline clip-path="url(#clip910)" style="stroke:#000000; stroke-linecap:round; stroke-linejoin:round; stroke-width:4; stroke-opacity:1; fill:none" points="595.163,1423.18 595.163,1404.28 "/>
<polyline clip-path="url(#clip910)" style="stroke:#000000; stroke-linecap:round; stroke-linejoin:round; stroke-width:4; stroke-opacity:1; fill:none" points="1034.56,1423.18 1034.56,1404.28 "/>
<polyline clip-path="url(#clip910)" style="stroke:#000000; stroke-linecap:round; stroke-linejoin:round; stroke-width:4; stroke-opacity:1; fill:none" points="1473.96,1423.18 1473.96,1404.28 "/>
<polyline clip-path="url(#clip910)" style="stroke:#000000; stroke-linecap:round; stroke-linejoin:round; stroke-width:4; stroke-opacity:1; fill:none" points="1913.36,1423.18 1913.36,1404.28 "/>
<polyline clip-path="url(#clip910)" style="stroke:#000000; stroke-linecap:round; stroke-linejoin:round; stroke-width:4; stroke-opacity:1; fill:none" points="2352.76,1423.18 2352.76,1404.28 "/>
<path clip-path="url(#clip910)" d="M155.765 1454.1 Q152.154 1454.1 150.325 1457.66 Q148.52 1461.2 148.52 1468.33 Q148.52 1475.44 150.325 1479.01 Q152.154 1482.55 155.765 1482.55 Q159.399 1482.55 161.205 1479.01 Q163.033 1475.44 163.033 1468.33 Q163.033 1461.2 161.205 1457.66 Q159.399 1454.1 155.765 1454.1 M155.765 1450.39 Q161.575 1450.39 164.631 1455 Q167.709 1459.58 167.709 1468.33 Q167.709 1477.06 164.631 1481.67 Q161.575 1486.25 155.765 1486.25 Q149.955 1486.25 146.876 1481.67 Q143.821 1477.06 143.821 1468.33 Q143.821 1459.58 146.876 1455 Q149.955 1450.39 155.765 1450.39 Z" fill="#000000" fill-rule="nonzero" fill-opacity="1" /><path clip-path="url(#clip910)" d="M589.816 1481.64 L606.135 1481.64 L606.135 1485.58 L584.191 1485.58 L584.191 1481.64 Q586.853 1478.89 591.436 1474.26 Q596.043 1469.61 597.223 1468.27 Q599.469 1465.74 600.348 1464.01 Q601.251 1462.25 601.251 1460.56 Q601.251 1457.8 599.307 1456.07 Q597.385 1454.33 594.283 1454.33 Q592.084 1454.33 589.631 1455.09 Q587.2 1455.86 584.422 1457.41 L584.422 1452.69 Q587.246 1451.55 589.7 1450.97 Q592.154 1450.39 594.191 1450.39 Q599.561 1450.39 602.756 1453.08 Q605.95 1455.77 605.95 1460.26 Q605.95 1462.39 605.14 1464.31 Q604.353 1466.2 602.246 1468.8 Q601.668 1469.47 598.566 1472.69 Q595.464 1475.88 589.816 1481.64 Z" fill="#000000" fill-rule="nonzero" fill-opacity="1" /><path clip-path="url(#clip910)" d="M1037.57 1455.09 L1025.77 1473.54 L1037.57 1473.54 L1037.57 1455.09 M1036.34 1451.02 L1042.22 1451.02 L1042.22 1473.54 L1047.15 1473.54 L1047.15 1477.43 L1042.22 1477.43 L1042.22 1485.58 L1037.57 1485.58 L1037.57 1477.43 L1021.97 1477.43 L1021.97 1472.92 L1036.34 1451.02 Z" fill="#000000" fill-rule="nonzero" fill-opacity="1" /><path clip-path="url(#clip910)" d="M1474.36 1466.44 Q1471.22 1466.44 1469.36 1468.59 Q1467.54 1470.74 1467.54 1474.49 Q1467.54 1478.22 1469.36 1480.39 Q1471.22 1482.55 1474.36 1482.55 Q1477.51 1482.55 1479.34 1480.39 Q1481.19 1478.22 1481.19 1474.49 Q1481.19 1470.74 1479.34 1468.59 Q1477.51 1466.44 1474.36 1466.44 M1483.65 1451.78 L1483.65 1456.04 Q1481.89 1455.21 1480.08 1454.77 Q1478.3 1454.33 1476.54 1454.33 Q1471.91 1454.33 1469.46 1457.45 Q1467.03 1460.58 1466.68 1466.9 Q1468.05 1464.89 1470.11 1463.82 Q1472.17 1462.73 1474.64 1462.73 Q1479.85 1462.73 1482.86 1465.9 Q1485.89 1469.05 1485.89 1474.49 Q1485.89 1479.82 1482.74 1483.03 Q1479.6 1486.25 1474.36 1486.25 Q1468.37 1486.25 1465.2 1481.67 Q1462.03 1477.06 1462.03 1468.33 Q1462.03 1460.14 1465.92 1455.28 Q1469.8 1450.39 1476.36 1450.39 Q1478.11 1450.39 1479.9 1450.74 Q1481.7 1451.09 1483.65 1451.78 Z" fill="#000000" fill-rule="nonzero" fill-opacity="1" /><path clip-path="url(#clip910)" d="M1913.36 1469.17 Q1910.02 1469.17 1908.1 1470.95 Q1906.2 1472.73 1906.2 1475.86 Q1906.2 1478.98 1908.1 1480.77 Q1910.02 1482.55 1913.36 1482.55 Q1916.69 1482.55 1918.61 1480.77 Q1920.53 1478.96 1920.53 1475.86 Q1920.53 1472.73 1918.61 1470.95 Q1916.71 1469.17 1913.36 1469.17 M1908.68 1467.18 Q1905.67 1466.44 1903.98 1464.38 Q1902.32 1462.32 1902.32 1459.35 Q1902.32 1455.21 1905.26 1452.8 Q1908.22 1450.39 1913.36 1450.39 Q1918.52 1450.39 1921.46 1452.8 Q1924.4 1455.21 1924.4 1459.35 Q1924.4 1462.32 1922.71 1464.38 Q1921.04 1466.44 1918.06 1467.18 Q1921.44 1467.96 1923.31 1470.26 Q1925.21 1472.55 1925.21 1475.86 Q1925.21 1480.88 1922.13 1483.57 Q1919.08 1486.25 1913.36 1486.25 Q1907.64 1486.25 1904.56 1483.57 Q1901.51 1480.88 1901.51 1475.86 Q1901.51 1472.55 1903.4 1470.26 Q1905.3 1467.96 1908.68 1467.18 M1906.97 1459.79 Q1906.97 1462.48 1908.64 1463.98 Q1910.33 1465.49 1913.36 1465.49 Q1916.37 1465.49 1918.06 1463.98 Q1919.77 1462.48 1919.77 1459.79 Q1919.77 1457.11 1918.06 1455.6 Q1916.37 1454.1 1913.36 1454.1 Q1910.33 1454.1 1908.64 1455.6 Q1906.97 1457.11 1906.97 1459.79 Z" fill="#000000" fill-rule="nonzero" fill-opacity="1" /><path clip-path="url(#clip910)" d="M2327.44 1481.64 L2335.08 1481.64 L2335.08 1455.28 L2326.77 1456.95 L2326.77 1452.69 L2335.04 1451.02 L2339.71 1451.02 L2339.71 1481.64 L2347.35 1481.64 L2347.35 1485.58 L2327.44 1485.58 L2327.44 1481.64 Z" fill="#000000" fill-rule="nonzero" fill-opacity="1" /><path clip-path="url(#clip910)" d="M2366.8 1454.1 Q2363.18 1454.1 2361.36 1457.66 Q2359.55 1461.2 2359.55 1468.33 Q2359.55 1475.44 2361.36 1479.01 Q2363.18 1482.55 2366.8 1482.55 Q2370.43 1482.55 2372.23 1479.01 Q2374.06 1475.44 2374.06 1468.33 Q2374.06 1461.2 2372.23 1457.66 Q2370.43 1454.1 2366.8 1454.1 M2366.8 1450.39 Q2372.61 1450.39 2375.66 1455 Q2378.74 1459.58 2378.74 1468.33 Q2378.74 1477.06 2375.66 1481.67 Q2372.61 1486.25 2366.8 1486.25 Q2360.99 1486.25 2357.91 1481.67 Q2354.85 1477.06 2354.85 1468.33 Q2354.85 1459.58 2357.91 1455 Q2360.99 1450.39 2366.8 1450.39 Z" fill="#000000" fill-rule="nonzero" fill-opacity="1" /><path clip-path="url(#clip910)" d="M1253.32 1522.27 L1253.32 1532.4 L1265.38 1532.4 L1265.38 1536.95 L1253.32 1536.95 L1253.32 1556.3 Q1253.32 1560.66 1254.5 1561.9 Q1255.71 1563.14 1259.37 1563.14 L1265.38 1563.14 L1265.38 1568.04 L1259.37 1568.04 Q1252.59 1568.04 1250.01 1565.53 Q1247.43 1562.98 1247.43 1556.3 L1247.43 1536.95 L1243.14 1536.95 L1243.14 1532.4 L1247.43 1532.4 L1247.43 1522.27 L1253.32 1522.27 Z" fill="#000000" fill-rule="nonzero" fill-opacity="1" /><polyline clip-path="url(#clip910)" style="stroke:#000000; stroke-linecap:round; stroke-linejoin:round; stroke-width:4; stroke-opacity:1; fill:none" points="155.765,1423.18 155.765,47.2441 "/>
<polyline clip-path="url(#clip910)" style="stroke:#000000; stroke-linecap:round; stroke-linejoin:round; stroke-width:4; stroke-opacity:1; fill:none" points="155.765,1232.22 174.663,1232.22 "/>
<polyline clip-path="url(#clip910)" style="stroke:#000000; stroke-linecap:round; stroke-linejoin:round; stroke-width:4; stroke-opacity:1; fill:none" points="155.765,978.861 174.663,978.861 "/>
<polyline clip-path="url(#clip910)" style="stroke:#000000; stroke-linecap:round; stroke-linejoin:round; stroke-width:4; stroke-opacity:1; fill:none" points="155.765,725.5 174.663,725.5 "/>
<polyline clip-path="url(#clip910)" style="stroke:#000000; stroke-linecap:round; stroke-linejoin:round; stroke-width:4; stroke-opacity:1; fill:none" points="155.765,472.139 174.663,472.139 "/>
<polyline clip-path="url(#clip910)" style="stroke:#000000; stroke-linecap:round; stroke-linejoin:round; stroke-width:4; stroke-opacity:1; fill:none" points="155.765,218.779 174.663,218.779 "/>
<path clip-path="url(#clip910)" d="M63.5847 1218.02 Q59.9736 1218.02 58.1449 1221.59 Q56.3393 1225.13 56.3393 1232.26 Q56.3393 1239.36 58.1449 1242.93 Q59.9736 1246.47 63.5847 1246.47 Q67.2189 1246.47 69.0244 1242.93 Q70.8531 1239.36 70.8531 1232.26 Q70.8531 1225.13 69.0244 1221.59 Q67.2189 1218.02 63.5847 1218.02 M63.5847 1214.32 Q69.3948 1214.32 72.4503 1218.92 Q75.529 1223.51 75.529 1232.26 Q75.529 1240.98 72.4503 1245.59 Q69.3948 1250.17 63.5847 1250.17 Q57.7745 1250.17 54.6958 1245.59 Q51.6403 1240.98 51.6403 1232.26 Q51.6403 1223.51 54.6958 1218.92 Q57.7745 1214.32 63.5847 1214.32 Z" fill="#000000" fill-rule="nonzero" fill-opacity="1" /><path clip-path="url(#clip910)" d="M83.7466 1243.62 L88.6308 1243.62 L88.6308 1249.5 L83.7466 1249.5 L83.7466 1243.62 Z" fill="#000000" fill-rule="nonzero" fill-opacity="1" /><path clip-path="url(#clip910)" d="M98.8622 1214.94 L117.219 1214.94 L117.219 1218.88 L103.145 1218.88 L103.145 1227.35 Q104.163 1227 105.182 1226.84 Q106.2 1226.65 107.219 1226.65 Q113.006 1226.65 116.385 1229.83 Q119.765 1233 119.765 1238.41 Q119.765 1243.99 116.293 1247.09 Q112.82 1250.17 106.501 1250.17 Q104.325 1250.17 102.057 1249.8 Q99.8113 1249.43 97.4039 1248.69 L97.4039 1243.99 Q99.4872 1245.13 101.709 1245.68 Q103.932 1246.24 106.408 1246.24 Q110.413 1246.24 112.751 1244.13 Q115.089 1242.02 115.089 1238.41 Q115.089 1234.8 112.751 1232.7 Q110.413 1230.59 106.408 1230.59 Q104.534 1230.59 102.659 1231.01 Q100.807 1231.42 98.8622 1232.3 L98.8622 1214.94 Z" fill="#000000" fill-rule="nonzero" fill-opacity="1" /><path clip-path="url(#clip910)" d="M53.3995 992.206 L61.0384 992.206 L61.0384 965.84 L52.7282 967.507 L52.7282 963.248 L60.9921 961.581 L65.668 961.581 L65.668 992.206 L73.3068 992.206 L73.3068 996.141 L53.3995 996.141 L53.3995 992.206 Z" fill="#000000" fill-rule="nonzero" fill-opacity="1" /><path clip-path="url(#clip910)" d="M82.7512 990.261 L87.6354 990.261 L87.6354 996.141 L82.7512 996.141 L82.7512 990.261 Z" fill="#000000" fill-rule="nonzero" fill-opacity="1" /><path clip-path="url(#clip910)" d="M107.821 964.66 Q104.209 964.66 102.381 968.225 Q100.575 971.766 100.575 978.896 Q100.575 986.002 102.381 989.567 Q104.209 993.109 107.821 993.109 Q111.455 993.109 113.26 989.567 Q115.089 986.002 115.089 978.896 Q115.089 971.766 113.26 968.225 Q111.455 964.66 107.821 964.66 M107.821 960.956 Q113.631 960.956 116.686 965.562 Q119.765 970.146 119.765 978.896 Q119.765 987.623 116.686 992.229 Q113.631 996.812 107.821 996.812 Q102.01 996.812 98.9317 992.229 Q95.8761 987.623 95.8761 978.896 Q95.8761 970.146 98.9317 965.562 Q102.01 960.956 107.821 960.956 Z" fill="#000000" fill-rule="nonzero" fill-opacity="1" /><path clip-path="url(#clip910)" d="M54.3949 738.845 L62.0337 738.845 L62.0337 712.479 L53.7236 714.146 L53.7236 709.887 L61.9874 708.22 L66.6633 708.22 L66.6633 738.845 L74.3022 738.845 L74.3022 742.78 L54.3949 742.78 L54.3949 738.845 Z" fill="#000000" fill-rule="nonzero" fill-opacity="1" /><path clip-path="url(#clip910)" d="M83.7466 736.901 L88.6308 736.901 L88.6308 742.78 L83.7466 742.78 L83.7466 736.901 Z" fill="#000000" fill-rule="nonzero" fill-opacity="1" /><path clip-path="url(#clip910)" d="M98.8622 708.22 L117.219 708.22 L117.219 712.155 L103.145 712.155 L103.145 720.628 Q104.163 720.28 105.182 720.118 Q106.2 719.933 107.219 719.933 Q113.006 719.933 116.385 723.104 Q119.765 726.276 119.765 731.692 Q119.765 737.271 116.293 740.373 Q112.82 743.452 106.501 743.452 Q104.325 743.452 102.057 743.081 Q99.8113 742.711 97.4039 741.97 L97.4039 737.271 Q99.4872 738.405 101.709 738.961 Q103.932 739.516 106.408 739.516 Q110.413 739.516 112.751 737.41 Q115.089 735.303 115.089 731.692 Q115.089 728.081 112.751 725.975 Q110.413 723.868 106.408 723.868 Q104.534 723.868 102.659 724.285 Q100.807 724.702 98.8622 725.581 L98.8622 708.22 Z" fill="#000000" fill-rule="nonzero" fill-opacity="1" /><path clip-path="url(#clip910)" d="M56.6171 485.484 L72.9365 485.484 L72.9365 489.419 L50.9921 489.419 L50.9921 485.484 Q53.6541 482.73 58.2375 478.1 Q62.8439 473.447 64.0245 472.105 Q66.2698 469.582 67.1494 467.846 Q68.0522 466.086 68.0522 464.396 Q68.0522 461.642 66.1078 459.906 Q64.1865 458.17 61.0847 458.17 Q58.8856 458.17 56.4319 458.934 Q54.0014 459.697 51.2236 461.248 L51.2236 456.526 Q54.0477 455.392 56.5014 454.813 Q58.955 454.234 60.9921 454.234 Q66.3624 454.234 69.5568 456.92 Q72.7513 459.605 72.7513 464.096 Q72.7513 466.225 71.9411 468.146 Q71.1541 470.045 69.0476 472.637 Q68.4689 473.308 65.367 476.526 Q62.2652 479.72 56.6171 485.484 Z" fill="#000000" fill-rule="nonzero" fill-opacity="1" /><path clip-path="url(#clip910)" d="M82.7512 483.54 L87.6354 483.54 L87.6354 489.419 L82.7512 489.419 L82.7512 483.54 Z" fill="#000000" fill-rule="nonzero" fill-opacity="1" /><path clip-path="url(#clip910)" d="M107.821 457.938 Q104.209 457.938 102.381 461.503 Q100.575 465.045 100.575 472.174 Q100.575 479.281 102.381 482.845 Q104.209 486.387 107.821 486.387 Q111.455 486.387 113.26 482.845 Q115.089 479.281 115.089 472.174 Q115.089 465.045 113.26 461.503 Q111.455 457.938 107.821 457.938 M107.821 454.234 Q113.631 454.234 116.686 458.841 Q119.765 463.424 119.765 472.174 Q119.765 480.901 116.686 485.507 Q113.631 490.091 107.821 490.091 Q102.01 490.091 98.9317 485.507 Q95.8761 480.901 95.8761 472.174 Q95.8761 463.424 98.9317 458.841 Q102.01 454.234 107.821 454.234 Z" fill="#000000" fill-rule="nonzero" fill-opacity="1" /><path clip-path="url(#clip910)" d="M57.6125 232.124 L73.9318 232.124 L73.9318 236.059 L51.9875 236.059 L51.9875 232.124 Q54.6495 229.369 59.2328 224.739 Q63.8393 220.087 65.0198 218.744 Q67.2652 216.221 68.1448 214.485 Q69.0476 212.726 69.0476 211.036 Q69.0476 208.281 67.1032 206.545 Q65.1819 204.809 62.08 204.809 Q59.881 204.809 57.4273 205.573 Q54.9967 206.337 52.219 207.888 L52.219 203.165 Q55.043 202.031 57.4967 201.452 Q59.9504 200.874 61.9874 200.874 Q67.3578 200.874 70.5522 203.559 Q73.7466 206.244 73.7466 210.735 Q73.7466 212.864 72.9365 214.786 Q72.1494 216.684 70.0429 219.276 Q69.4642 219.948 66.3624 223.165 Q63.2606 226.36 57.6125 232.124 Z" fill="#000000" fill-rule="nonzero" fill-opacity="1" /><path clip-path="url(#clip910)" d="M83.7466 230.179 L88.6308 230.179 L88.6308 236.059 L83.7466 236.059 L83.7466 230.179 Z" fill="#000000" fill-rule="nonzero" fill-opacity="1" /><path clip-path="url(#clip910)" d="M98.8622 201.499 L117.219 201.499 L117.219 205.434 L103.145 205.434 L103.145 213.906 Q104.163 213.559 105.182 213.397 Q106.2 213.212 107.219 213.212 Q113.006 213.212 116.385 216.383 Q119.765 219.554 119.765 224.971 Q119.765 230.549 116.293 233.651 Q112.82 236.73 106.501 236.73 Q104.325 236.73 102.057 236.36 Q99.8113 235.989 97.4039 235.249 L97.4039 230.549 Q99.4872 231.684 101.709 232.239 Q103.932 232.795 106.408 232.795 Q110.413 232.795 112.751 230.688 Q115.089 228.582 115.089 224.971 Q115.089 221.36 112.751 219.253 Q110.413 217.147 106.408 217.147 Q104.534 217.147 102.659 217.563 Q100.807 217.98 98.8622 218.86 L98.8622 201.499 Z" fill="#000000" fill-rule="nonzero" fill-opacity="1" /><polyline clip-path="url(#clip912)" style="stroke:#009af9; stroke-linecap:round; stroke-linejoin:round; stroke-width:8; stroke-opacity:1; fill:none" points="155.765,1384.24 157.964,1383.22 160.163,1382.19 162.362,1381.15 164.562,1380.1 166.761,1379.04 168.96,1377.97 171.159,1376.88 173.358,1375.79 175.558,1374.68 177.757,1373.57 179.956,1372.44 182.155,1371.3 184.354,1370.15 186.554,1368.99 188.753,1367.82 190.952,1366.63 193.151,1365.44 195.35,1364.23 197.55,1363.01 199.749,1361.78 201.948,1360.53 204.147,1359.27 206.346,1358 208.545,1356.72 210.745,1355.42 212.944,1354.11 215.143,1352.79 217.342,1351.45 219.541,1350.1 221.741,1348.74 223.94,1347.36 226.139,1345.97 228.338,1344.57 230.537,1343.15 232.737,1341.72 234.936,1340.27 237.135,1338.81 239.334,1337.33 241.533,1335.84 243.733,1334.33 245.932,1332.81 248.131,1331.28 250.33,1329.72 252.529,1328.16 254.728,1326.57 256.928,1324.97 259.127,1323.36 261.326,1321.72 263.525,1320.08 265.724,1318.41 267.924,1316.73 270.123,1315.03 272.322,1313.31 274.521,1311.58 276.72,1309.83 278.92,1308.06 281.119,1306.28 283.318,1304.47 285.517,1302.65 287.716,1300.81 289.916,1298.95 292.115,1297.07 294.314,1295.18 296.513,1293.26 298.712,1291.33 300.911,1289.37 303.111,1287.4 305.31,1285.41 307.509,1283.39 309.708,1281.36 311.907,1279.3 314.107,1277.23 316.306,1380.36 318.505,1379.3 320.704,1378.23 322.903,1377.15 325.103,1376.06 327.302,1374.96 329.501,1373.84 331.7,1372.72 333.899,1371.58 336.099,1370.44 338.298,1369.28 340.497,1368.11 342.696,1366.93 344.895,1365.73 347.094,1364.53 349.294,1363.31 351.493,1362.08 353.692,1360.84 355.891,1359.58 358.09,1358.31 360.29,1357.03 362.489,1355.74 364.688,1354.43 366.887,1353.12 369.086,1351.78 371.286,1350.44 373.485,1349.08 375.684,1347.7 377.883,1346.32 380.082,1344.92 382.281,1343.5 384.481,1342.07 386.68,1340.63 388.879,1339.17 391.078,1337.7 393.277,1336.21 395.477,1334.71 397.676,1333.19 399.875,1331.65 402.074,1330.11 404.273,1328.54 406.473,1326.96 408.672,1325.37 410.871,1323.75 413.07,1322.13 415.269,1320.48 417.469,1318.82 419.668,1317.14 421.867,1315.45 424.066,1313.74 426.265,1312.01 428.464,1310.26 430.664,1308.5 432.863,1306.72 435.062,1304.92 437.261,1303.1 439.46,1301.26 441.66,1299.41 443.859,1297.54 446.058,1295.64 448.257,1293.73 450.456,1291.8 452.656,1289.85 454.855,1287.89 457.054,1285.9 459.253,1283.89 461.452,1281.86 463.652,1279.81 465.851,1277.74 468.05,1275.65 470.249,1273.54 472.448,1271.4 474.647,1269.25 476.847,1267.07 479.046,1264.87 481.245,1262.65 483.444,1260.41 485.643,1258.15 487.843,1255.86 490.042,1253.55 492.241,1251.21 494.44,1248.85 496.639,1246.47 498.839,1244.07 501.038,1241.64 503.237,1239.18 505.436,1236.7 507.635,1234.2 509.835,1231.67 512.034,1229.12 514.233,1226.54 516.432,1223.93 518.631,1221.3 520.83,1218.64 523.03,1215.95 525.229,1213.24 527.428,1210.5 529.627,1207.73 531.826,1204.94 534.026,1202.11 536.225,1199.26 538.424,1196.38 540.623,1193.47 542.822,1190.53 545.022,1187.57 547.221,1184.57 549.42,1181.54 551.619,1178.48 553.818,1175.39 556.018,1172.27 558.217,1169.12 560.416,1165.94 562.615,1162.72 564.814,1159.47 567.013,1156.19 569.213,1152.88 571.412,1149.53 573.611,1146.15 575.81,1142.74 578.009,1139.29 580.209,1135.8 582.408,1132.28 584.607,1128.73 586.806,1125.14 589.005,1121.51 591.205,1117.85 593.404,1114.15 595.603,1110.42 597.802,1106.64 600.001,1102.83 602.201,1098.98 604.4,1095.09 606.599,1091.16 608.798,1087.19 610.997,1083.19 613.196,1079.14 615.396,1075.05 617.595,1070.92 619.794,1066.75 621.993,1062.53 624.192,1058.28 626.392,1053.98 628.591,1049.63 630.79,1045.25 632.989,1040.82 635.188,1036.34 637.388,1031.82 639.587,1027.26 641.786,1022.65 643.985,1017.99 646.184,1013.29 648.384,1008.53 650.583,1003.74 652.782,998.888 654.981,993.992 657.18,989.046 659.379,984.051 661.579,979.005 663.778,973.909 665.977,968.762 668.176,963.562 670.375,958.311 672.575,953.006 674.774,947.648 676.973,942.237 679.172,936.77 681.371,931.249 683.571,925.672 685.77,920.04 687.969,914.35 690.168,908.603 692.367,902.799 694.567,896.936 696.766,891.014 698.965,885.032 701.164,878.991 703.363,872.888 705.562,866.724 707.762,860.498 709.961,854.21 712.16,847.858 714.359,1163.52 716.558,1160.28 718.758,1157 720.957,1153.7 723.156,1150.36 725.355,1146.99 727.554,1143.58 729.754,1140.14 731.953,1136.66 734.152,1133.15 736.351,1129.61 738.55,1126.03 740.749,1122.41 742.949,1118.76 745.148,1115.07 747.347,1111.34 749.546,1107.57 751.745,1103.77 753.945,1099.93 756.144,1096.05 758.343,1092.13 760.542,1088.17 762.741,1084.18 764.941,1080.14 767.14,1076.06 769.339,1071.94 771.538,1067.78 773.737,1063.57 775.937,1059.33 778.136,1055.04 780.335,1050.71 782.534,1046.33 784.733,1263.75 786.932,1261.52 789.132,1259.26 791.331,1256.99 793.53,1254.69 795.729,1252.37 797.928,1250.02 800.128,1247.65 802.327,1245.26 804.526,1242.84 806.725,1240.4 808.924,1237.93 811.124,1235.44 813.323,1232.92 815.522,1230.38 817.721,1227.81 819.92,1225.22 822.12,1222.6 824.319,1219.95 826.518,1217.28 828.717,1214.58 830.916,1211.86 833.115,1209.1 835.315,1206.32 837.514,1203.51 839.713,1200.68 841.912,1197.81 844.111,1194.91 846.311,1191.99 848.51,1189.04 850.709,1186.05 852.908,1183.04 855.107,1180 857.307,1176.92 859.506,1173.82 861.705,1170.68 863.904,1167.51 866.103,1164.32 868.303,1161.08 870.502,1157.82 872.701,1154.52 874.9,1151.19 877.099,1147.83 879.298,1144.43 881.498,1141 883.697,1137.53 885.896,1134.03 888.095,1130.49 890.294,1126.92 892.494,1123.31 894.693,1119.67 896.892,1115.98 899.091,1112.27 901.29,1108.51 903.49,1104.72 905.689,1100.88 907.888,1097.01 910.087,1093.1 912.286,1089.15 914.486,1085.17 916.685,1081.14 918.884,1077.07 921.083,1072.96 923.282,1068.81 925.481,1064.61 927.681,1060.38 929.88,1056.1 932.079,1051.78 934.278,1047.42 936.477,1043.01 938.677,1038.56 940.876,1034.06 943.075,1029.52 945.274,1024.93 947.473,1020.29 949.673,1015.61 951.872,1010.89 954.071,1006.11 956.27,1001.29 958.469,996.414 960.669,991.493 962.868,986.523 965.067,981.502 967.266,976.431 969.465,971.309 971.664,966.135 973.864,960.91 976.063,955.631 978.262,950.3 980.461,944.915 982.66,939.476 984.86,933.982 987.059,928.433 989.258,922.828 991.457,917.166 993.656,911.448 995.856,905.672 998.055,899.838 1000.25,893.945 1002.45,887.993 1004.65,881.981 1006.85,875.908 1009.05,869.775 1011.25,863.579 1013.45,857.322 1015.65,851.001 1017.85,844.617 1020.05,838.168 1022.25,831.655 1024.45,825.076 1026.64,1152.02 1028.84,1148.67 1031.04,1145.28 1033.24,1141.85 1035.44,1138.4 1037.64,1134.9 1039.84,1131.38 1042.04,1127.81 1044.24,1124.21 1046.44,1120.58 1048.64,1116.9 1050.84,1113.2 1053.03,1109.45 1055.23,1105.67 1057.43,1101.84 1059.63,1097.98 1061.83,1094.08 1064.03,1090.15 1066.23,1086.17 1068.43,1082.15 1070.63,1078.09 1072.83,1073.99 1075.03,1069.85 1077.23,1065.67 1079.42,1061.45 1081.62,1057.18 1083.82,1052.87 1086.02,1048.52 1088.22,1044.12 1090.42,1039.68 1092.62,1035.2 1094.82,1030.67 1097.02,1026.09 1099.22,1021.47 1101.42,1016.81 1103.62,1012.09 1105.82,1007.33 1108.01,1002.52 1110.21,997.659 1112.41,992.752 1114.61,987.794 1116.81,982.787 1119.01,977.73 1121.21,972.622 1123.41,967.462 1125.61,962.25 1127.81,956.986 1130.01,951.668 1132.21,946.297 1134.4,940.872 1136.6,935.392 1138.8,929.857 1141,924.266 1143.2,918.619 1145.4,912.915 1147.6,907.153 1149.8,901.333 1152,895.455 1154.2,889.517 1156.4,883.52 1158.6,877.462 1160.79,871.343 1162.99,865.162 1165.19,858.92 1167.39,852.614 1169.59,846.245 1171.79,839.811 1173.99,833.313 1176.19,826.75 1178.39,820.12 1180.59,813.424 1182.79,806.661 1184.99,799.829 1187.19,792.929 1189.38,785.96 1191.58,778.921 1193.78,771.811 1195.98,764.63 1198.18,757.376 1200.38,750.05 1202.58,742.651 1204.78,1110.38 1206.98,1106.6 1209.18,1102.79 1211.38,1098.94 1213.58,1095.05 1215.77,1091.12 1217.97,1087.15 1220.17,1083.14 1222.37,1079.09 1224.57,1075 1226.77,1070.87 1228.97,1066.7 1231.17,1062.49 1233.37,1058.23 1235.57,1053.93 1237.77,1049.59 1239.97,1045.2 1242.16,1040.77 1244.36,1036.3 1246.56,1031.78 1248.76,1027.22 1250.96,1022.61 1253.16,1017.95 1255.36,1013.25 1257.56,1008.49 1259.76,1003.7 1261.96,998.85 1264.16,993.955 1266.36,989.011 1268.56,984.017 1270.75,978.973 1272.95,973.878 1275.15,968.732 1277.35,963.535 1279.55,958.285 1281.75,952.982 1283.95,947.626 1286.15,942.216 1288.35,936.752 1290.55,931.233 1292.75,925.658 1294.95,920.027 1297.14,914.339 1299.34,908.594 1301.54,902.791 1303.74,896.93 1305.94,891.009 1308.14,885.029 1310.34,878.989 1312.54,872.888 1314.74,866.725 1316.94,860.5 1319.14,854.212 1321.34,847.861 1323.53,841.446 1325.73,834.966 1327.93,828.421 1330.13,821.809 1332.33,815.131 1334.53,808.386 1336.73,801.573 1338.93,794.691 1341.13,787.739 1343.33,780.717 1345.53,773.625 1347.73,766.461 1349.93,759.224 1352.12,751.915 1354.32,744.532 1356.52,737.075 1358.72,729.542 1360.92,721.934 1363.12,714.249 1365.32,706.487 1367.52,698.646 1369.72,690.727 1371.92,682.727 1374.12,674.648 1376.32,666.487 1378.51,658.244 1380.71,649.918 1382.91,641.509 1385.11,633.015 1387.31,624.437 1389.51,615.772 1391.71,607.02 1393.91,598.18 1396.11,589.252 1398.31,1032.91 1400.51,1028.35 1402.71,1023.75 1404.9,1019.11 1407.1,1014.42 1409.3,1009.68 1411.5,1004.89 1413.7,1000.05 1415.9,995.168 1418.1,990.234 1420.3,985.251 1422.5,980.217 1424.7,975.133 1426.9,969.998 1429.1,964.811 1431.3,959.572 1433.49,954.28 1435.69,948.935 1437.89,943.536 1440.09,938.083 1442.29,932.575 1444.49,927.011 1446.69,921.392 1448.89,915.716 1451.09,909.983 1453.29,904.192 1455.49,898.343 1457.69,1189.01 1459.88,1186.03 1462.08,1183.02 1464.28,1179.97 1466.48,1176.9 1468.68,1173.79 1470.88,1170.65 1473.08,1167.49 1475.28,1164.29 1477.48,1161.05 1479.68,1157.79 1481.88,1154.49 1484.08,1151.16 1486.27,1147.79 1488.47,1144.4 1490.67,1140.96 1492.87,1137.5 1495.07,1134 1497.27,1130.46 1499.47,1126.89 1501.67,1123.28 1503.87,1119.64 1506.07,1115.95 1508.27,1112.24 1510.47,1108.48 1512.67,1104.69 1514.86,1100.86 1517.06,1096.99 1519.26,1093.08 1521.46,1089.13 1523.66,1085.15 1525.86,1081.12 1528.06,1077.05 1530.26,1072.94 1532.46,1068.79 1534.66,1064.6 1536.86,1060.37 1539.06,1056.09 1541.25,1051.77 1543.45,1047.41 1545.65,1043.01 1547.85,1038.55 1550.05,1034.06 1552.25,1029.52 1554.45,1024.93 1556.65,1020.3 1558.85,1015.62 1561.05,1010.89 1563.25,1006.12 1565.45,1001.3 1567.65,996.424 1569.84,991.504 1572.04,986.534 1574.24,981.514 1576.44,976.443 1578.64,971.321 1580.84,966.147 1583.04,960.922 1585.24,955.643 1587.44,950.312 1589.64,944.926 1591.84,939.486 1594.04,933.991 1596.23,928.441 1598.43,922.835 1600.63,917.173 1602.83,911.453 1605.03,905.675 1607.23,899.84 1609.43,893.945 1611.63,887.992 1613.83,881.978 1616.03,875.903 1618.23,869.768 1620.43,863.57 1622.62,857.311 1624.82,850.988 1627.02,844.602 1629.22,838.151 1631.42,831.636 1633.62,825.055 1635.82,818.408 1638.02,811.694 1640.22,804.914 1642.42,798.065 1644.62,791.147 1646.82,784.16 1649.02,777.103 1651.21,769.976 1653.41,762.776 1655.61,755.504 1657.81,748.159 1660.01,740.74 1662.21,733.247 1664.41,725.678 1666.61,718.032 1668.81,710.31 1671.01,702.511 1673.21,694.633 1675.41,686.675 1677.6,678.638 1679.8,670.52 1682,662.321 1684.2,654.039 1686.4,645.674 1688.6,637.224 1690.8,628.69 1693,620.07 1695.2,611.364 1697.4,602.57 1699.6,593.687 1701.8,584.716 1703.99,575.654 1706.19,566.501 1708.39,557.256 1710.59,547.918 1712.79,538.486 1714.99,528.959 1717.19,519.336 1719.39,509.617 1721.59,499.799 1723.79,489.883 1725.99,479.867 1728.19,469.751 1730.39,459.532 1732.58,449.211 1734.78,438.785 1736.98,428.255 1739.18,417.618 1741.38,406.875 1743.58,396.023 1745.78,385.062 1747.98,373.99 1750.18,362.807 1752.38,351.512 1754.58,340.102 1756.78,328.578 1758.97,316.937 1761.17,305.18 1763.37,293.304 1765.57,281.308 1767.77,269.191 1769.97,256.953 1772.17,244.591 1774.37,232.105 1776.57,219.493 1778.77,206.755 1780.97,193.888 1783.17,180.891 1785.36,167.764 1787.56,154.506 1789.76,141.113 1791.96,127.587 1794.16,113.924 1796.36,100.124 1798.56,86.1857 1800.76,778.976 1802.96,771.867 1805.16,764.687 1807.36,757.435 1809.56,750.109 1811.76,742.71 1813.95,735.237 1816.15,727.688 1818.35,720.063 1820.55,712.362 1822.75,704.583 1824.95,696.726 1827.15,688.79 1829.35,680.774 1831.55,672.677 1833.75,664.499 1835.95,656.239 1838.15,647.896 1840.34,639.468 1842.54,630.956 1844.74,622.358 1846.94,1049.63 1849.14,1045.24 1851.34,1263.2 1853.54,1260.96 1855.74,1258.7 1857.94,1256.42 1860.14,1254.11 1862.34,1251.78 1864.54,1249.43 1866.73,1247.05 1868.93,1244.66 1871.13,1242.23 1873.33,1239.78 1875.53,1237.31 1877.73,1234.81 1879.93,1232.29 1882.13,1229.74 1884.33,1227.17 1886.53,1224.57 1888.73,1221.94 1890.93,1219.29 1893.13,1216.61 1895.32,1213.91 1897.52,1211.17 1899.72,1208.41 1901.92,1205.62 1904.12,1202.81 1906.32,1199.96 1908.52,1197.09 1910.72,1194.19 1912.92,1191.26 1915.12,1188.3 1917.32,1185.3 1919.52,1182.28 1921.71,1179.23 1923.91,1176.15 1926.11,1173.04 1928.31,1169.89 1930.51,1166.72 1932.71,1163.51 1934.91,1160.27 1937.11,1157 1939.31,1153.69 1941.51,1150.35 1943.71,1146.98 1945.91,1143.57 1948.1,1140.13 1950.3,1136.66 1952.5,1133.15 1954.7,1129.6 1956.9,1126.02 1959.1,1122.4 1961.3,1118.75 1963.5,1115.06 1965.7,1111.33 1967.9,1107.56 1970.1,1103.76 1972.3,1099.92 1974.5,1096.04 1976.69,1288.89 1978.89,1286.91 1981.09,1284.91 1983.29,1282.89 1985.49,1280.85 1987.69,1278.79 1989.89,1276.71 1992.09,1274.61 1994.29,1272.49 1996.49,1270.34 1998.69,1268.18 2000.89,1265.99 2003.08,1263.78 2005.28,1261.55 2007.48,1259.29 2009.68,1257.02 2011.88,1254.72 2014.08,1252.4 2016.28,1250.05 2018.48,1247.68 2020.68,1245.29 2022.88,1242.87 2025.08,1240.43 2027.28,1237.97 2029.47,1235.48 2031.67,1232.96 2033.87,1230.42 2036.07,1227.86 2038.27,1225.26 2040.47,1222.65 2042.67,1220 2044.87,1217.33 2047.07,1214.64 2049.27,1211.91 2051.47,1209.16 2053.67,1206.38 2055.87,1203.57 2058.06,1200.74 2060.26,1197.88 2062.46,1194.98 2064.66,1192.06 2066.86,1189.11 2069.06,1186.13 2071.26,1183.12 2073.46,1180.08 2075.66,1177.01 2077.86,1173.9 2080.06,1170.77 2082.26,1167.6 2084.45,1164.41 2086.65,1161.18 2088.85,1157.92 2091.05,1154.62 2093.25,1151.29 2095.45,1147.93 2097.65,1144.53 2099.85,1141.1 2102.05,1137.64 2104.25,1134.14 2106.45,1130.61 2108.65,1127.03 2110.84,1123.43 2113.04,1119.78 2115.24,1116.1 2117.44,1112.39 2119.64,1108.63 2121.84,1104.84 2124.04,1101.01 2126.24,1097.14 2128.44,1093.23 2130.64,1089.28 2132.84,1085.29 2135.04,1081.27 2137.24,1077.2 2139.43,1073.09 2141.63,1068.94 2143.83,1064.74 2146.03,1060.51 2148.23,1056.23 2150.43,1051.91 2152.63,1047.54 2154.83,1043.13 2157.03,1038.68 2159.23,1034.18 2161.43,1029.64 2163.63,1025.05 2165.82,1020.41 2168.02,1015.73 2170.22,1011 2172.42,1006.22 2174.62,1001.4 2176.82,996.525 2179.02,991.603 2181.22,986.632 2183.42,981.61 2185.62,976.539 2187.82,971.417 2190.02,966.243 2192.22,961.018 2194.41,955.74 2196.61,950.41 2198.81,945.026 2201.01,939.588 2203.21,934.095 2205.41,928.547 2207.61,922.943 2209.81,917.282 2212.01,911.565 2214.21,905.79 2216.41,899.957 2218.61,894.066 2220.8,888.115 2223,882.104 2225.2,876.033 2227.4,869.901 2229.6,863.707 2231.8,857.451 2234,851.132 2236.2,844.75 2238.4,838.303 2240.6,831.791 2242.8,825.214 2245,818.571 2247.19,811.861 2249.39,805.083 2251.59,798.238 2253.79,791.323 2255.99,784.339 2258.19,777.284 2260.39,770.159 2262.59,762.961 2264.79,755.692 2266.99,748.349 2269.19,740.932 2271.39,733.441 2273.59,725.874 2275.78,718.231 2277.98,710.511 2280.18,702.713 2282.38,694.837 2284.58,686.882 2286.78,678.846 2288.98,670.73 2291.18,662.532 2293.38,654.252 2295.58,645.888 2297.78,637.44 2299.98,628.908 2302.17,620.289 2304.37,611.584 2306.57,1044.2 2308.77,1039.76 2310.97,1035.27 2313.17,1030.74 2315.37,1026.17 2317.57,1021.55 2319.77,1016.88 2321.97,1012.16 2324.17,1007.4 2326.37,1002.59 2328.56,997.731 2330.76,992.823 2332.96,987.866 2335.16,982.859 2337.36,977.801 2339.56,972.693 2341.76,967.533 2343.96,962.321 2346.16,957.057 2348.36,951.74 2350.56,1215.98 2352.76,1213.26 "/>
<path clip-path="url(#clip910)" d="M1970.73 196.789 L2279.52 196.789 L2279.52 93.1086 L1970.73 93.1086  Z" fill="#ffffff" fill-rule="evenodd" fill-opacity="1"/>
<polyline clip-path="url(#clip910)" style="stroke:#000000; stroke-linecap:round; stroke-linejoin:round; stroke-width:4; stroke-opacity:1; fill:none" points="1970.73,196.789 2279.52,196.789 2279.52,93.1086 1970.73,93.1086 1970.73,196.789 "/>
<polyline clip-path="url(#clip910)" style="stroke:#009af9; stroke-linecap:round; stroke-linejoin:round; stroke-width:8; stroke-opacity:1; fill:none" points="1995.14,144.949 2141.6,144.949 "/>
<path clip-path="url(#clip910)" d="M2166.02 151.997 L2166.02 136.303 L2170.27 136.303 L2170.27 151.835 Q2170.27 155.516 2171.71 157.368 Q2173.14 159.196 2176.02 159.196 Q2179.46 159.196 2181.45 156.997 Q2183.47 154.798 2183.47 151.002 L2183.47 136.303 L2187.73 136.303 L2187.73 162.229 L2183.47 162.229 L2183.47 158.247 Q2181.92 160.608 2179.86 161.766 Q2177.82 162.9 2175.11 162.9 Q2170.64 162.9 2168.33 160.122 Q2166.02 157.344 2166.02 151.997 M2176.73 135.678 L2176.73 135.678 Z" fill="#000000" fill-rule="nonzero" fill-opacity="1" /><path clip-path="url(#clip910)" d="M2196.11 126.21 L2205.92 126.21 L2205.92 129.52 L2200.37 129.52 L2200.37 165.168 L2205.92 165.168 L2205.92 168.479 L2196.11 168.479 L2196.11 126.21 Z" fill="#000000" fill-rule="nonzero" fill-opacity="1" /><path clip-path="url(#clip910)" d="M2216.41 158.293 L2224.05 158.293 L2224.05 131.928 L2215.74 133.595 L2215.74 129.335 L2224 127.669 L2228.68 127.669 L2228.68 158.293 L2236.32 158.293 L2236.32 162.229 L2216.41 162.229 L2216.41 158.293 Z" fill="#000000" fill-rule="nonzero" fill-opacity="1" /><path clip-path="url(#clip910)" d="M2255.11 126.21 L2255.11 168.479 L2245.3 168.479 L2245.3 165.168 L2250.83 165.168 L2250.83 129.52 L2245.3 129.52 L2245.3 126.21 L2255.11 126.21 Z" fill="#000000" fill-rule="nonzero" fill-opacity="1" /></svg>
