<?xml version="1.0" encoding="utf-8"?>
<svg xmlns="http://www.w3.org/2000/svg" xmlns:xlink="http://www.w3.org/1999/xlink" width="600" height="400" viewBox="0 0 2400 1600">
<defs>
  <clipPath id="clip860">
    <rect x="0" y="0" width="2400" height="1600"/>
  </clipPath>
</defs>
<path clip-path="url(#clip860)" d="M0 1600 L2400 1600 L2400 0 L0 0  Z" fill="#ffffff" fill-rule="evenodd" fill-opacity="1"/>
<defs>
  <clipPath id="clip861">
    <rect x="480" y="0" width="1681" height="1600"/>
  </clipPath>
</defs>
<path clip-path="url(#clip860)" d="M156.598 1423.18 L2352.76 1423.18 L2352.76 47.2441 L156.598 47.2441  Z" fill="#ffffff" fill-rule="evenodd" fill-opacity="1"/>
<defs>
  <clipPath id="clip862">
    <rect x="156" y="47" width="2197" height="1377"/>
  </clipPath>
</defs>
<polyline clip-path="url(#clip862)" style="stroke:#000000; stroke-linecap:round; stroke-linejoin:round; stroke-width:2; stroke-opacity:0.1; fill:none" points="156.598,1423.18 156.598,47.2441 "/>
<polyline clip-path="url(#clip862)" style="stroke:#000000; stroke-linecap:round; stroke-linejoin:round; stroke-width:2; stroke-opacity:0.1; fill:none" points="595.83,1423.18 595.83,47.2441 "/>
<polyline clip-path="url(#clip862)" style="stroke:#000000; stroke-linecap:round; stroke-linejoin:round; stroke-width:2; stroke-opacity:0.1; fill:none" points="1035.06,1423.18 1035.06,47.2441 "/>
<polyline clip-path="url(#clip862)" style="stroke:#000000; stroke-linecap:round; stroke-linejoin:round; stroke-width:2; stroke-opacity:0.1; fill:none" points="1474.29,1423.18 1474.29,47.2441 "/>
<polyline clip-path="url(#clip862)" style="stroke:#000000; stroke-linecap:round; stroke-linejoin:round; stroke-width:2; stroke-opacity:0.1; fill:none" points="1913.52,1423.18 1913.52,47.2441 "/>
<polyline clip-path="url(#clip862)" style="stroke:#000000; stroke-linecap:round; stroke-linejoin:round; stroke-width:2; stroke-opacity:0.1; fill:none" points="2352.76,1423.18 2352.76,47.2441 "/>
<polyline clip-path="url(#clip862)" style="stroke:#000000; stroke-linecap:round; stroke-linejoin:round; stroke-width:2; stroke-opacity:0.1; fill:none" points="156.598,1389.87 2352.76,1389.87 "/>
<polyline clip-path="url(#clip862)" style="stroke:#000000; stroke-linecap:round; stroke-linejoin:round; stroke-width:2; stroke-opacity:0.1; fill:none" points="156.598,1084.51 2352.76,1084.51 "/>
<polyline clip-path="url(#clip862)" style="stroke:#000000; stroke-linecap:round; stroke-linejoin:round; stroke-width:2; stroke-opacity:0.1; fill:none" points="156.598,779.146 2352.76,779.146 "/>
<polyline clip-path="url(#clip862)" style="stroke:#000000; stroke-linecap:round; stroke-linejoin:round; stroke-width:2; stroke-opacity:0.1; fill:none" points="156.598,473.784 2352.76,473.784 "/>
<polyline clip-path="url(#clip862)" style="stroke:#000000; stroke-linecap:round; stroke-linejoin:round; stroke-width:2; stroke-opacity:0.1; fill:none" points="156.598,168.421 2352.76,168.421 "/>
<polyline clip-path="url(#clip860)" style="stroke:#000000; stroke-linecap:round; stroke-linejoin:round; stroke-width:4; stroke-opacity:1; fill:none" points="156.598,1423.18 2352.76,1423.18 "/>
<polyline clip-path="url(#clip860)" style="stroke:#000000; stroke-linecap:round; stroke-linejoin:round; stroke-width:4; stroke-opacity:1; fill:none" points="156.598,1423.18 156.598,1404.28 "/>
<polyline clip-path="url(#clip860)" style="stroke:#000000; stroke-linecap:round; stroke-linejoin:round; stroke-width:4; stroke-opacity:1; fill:none" points="595.83,1423.18 595.83,1404.28 "/>
<polyline clip-path="url(#clip860)" style="stroke:#000000; stroke-linecap:round; stroke-linejoin:round; stroke-width:4; stroke-opacity:1; fill:none" points="1035.06,1423.18 1035.06,1404.28 "/>
<polyline clip-path="url(#clip860)" style="stroke:#000000; stroke-linecap:round; stroke-linejoin:round; stroke-width:4; stroke-opacity:1; fill:none" points="1474.29,1423.18 1474.29,1404.28 "/>
<polyline clip-path="url(#clip860)" style="stroke:#000000; stroke-linecap:round; stroke-linejoin:round; stroke-width:4; stroke-opacity:1; fill:none" points="1913.52,1423.18 1913.52,1404.28 "/>
<polyline clip-path="url(#clip860)" style="stroke:#000000; stroke-linecap:round; stroke-linejoin:round; stroke-width:4; stroke-opacity:1; fill:none" points="2352.76,1423.18 2352.76,1404.28 "/>
<path clip-path="url(#clip860)" d="M156.598 1454.1 Q152.987 1454.1 151.158 1457.66 Q149.353 1461.2 149.353 1468.33 Q149.353 1475.44 151.158 1479.01 Q152.987 1482.55 156.598 1482.55 Q160.232 1482.55 162.038 1479.01 Q163.867 1475.44 163.867 1468.33 Q163.867 1461.2 162.038 1457.66 Q160.232 1454.1 156.598 1454.1 M156.598 1450.39 Q162.408 1450.39 165.464 1455 Q168.543 1459.58 168.543 1468.33 Q168.543 1477.06 165.464 1481.67 Q162.408 1486.25 156.598 1486.25 Q150.788 1486.25 147.709 1481.67 Q144.654 1477.06 144.654 1468.33 Q144.654 1459.58 147.709 1455 Q150.788 1450.39 156.598 1450.39 Z" fill="#000000" fill-rule="nonzero" fill-opacity="1" /><path clip-path="url(#clip860)" d="M590.483 1481.64 L606.802 1481.64 L606.802 1485.58 L584.858 1485.58 L584.858 1481.64 Q587.52 1478.89 592.103 1474.26 Q596.709 1469.61 597.89 1468.27 Q600.135 1465.74 601.015 1464.01 Q601.918 1462.25 601.918 1460.56 Q601.918 1457.8 599.973 1456.07 Q598.052 1454.33 594.95 1454.33 Q592.751 1454.33 590.297 1455.09 Q587.867 1455.86 585.089 1457.41 L585.089 1452.69 Q587.913 1451.55 590.367 1450.97 Q592.821 1450.39 594.858 1450.39 Q600.228 1450.39 603.422 1453.08 Q606.617 1455.77 606.617 1460.26 Q606.617 1462.39 605.807 1464.31 Q605.02 1466.2 602.913 1468.8 Q602.334 1469.47 599.233 1472.69 Q596.131 1475.88 590.483 1481.64 Z" fill="#000000" fill-rule="nonzero" fill-opacity="1" /><path clip-path="url(#clip860)" d="M1038.07 1455.09 L1026.27 1473.54 L1038.07 1473.54 L1038.07 1455.09 M1036.84 1451.02 L1042.72 1451.02 L1042.72 1473.54 L1047.65 1473.54 L1047.65 1477.43 L1042.72 1477.43 L1042.72 1485.58 L1038.07 1485.58 L1038.07 1477.43 L1022.47 1477.43 L1022.47 1472.92 L1036.84 1451.02 Z" fill="#000000" fill-rule="nonzero" fill-opacity="1" /><path clip-path="url(#clip860)" d="M1474.7 1466.44 Q1471.55 1466.44 1469.7 1468.59 Q1467.87 1470.74 1467.87 1474.49 Q1467.87 1478.22 1469.7 1480.39 Q1471.55 1482.55 1474.7 1482.55 Q1477.85 1482.55 1479.67 1480.39 Q1481.53 1478.22 1481.53 1474.49 Q1481.53 1470.74 1479.67 1468.59 Q1477.85 1466.44 1474.7 1466.44 M1483.98 1451.78 L1483.98 1456.04 Q1482.22 1455.21 1480.42 1454.77 Q1478.63 1454.33 1476.87 1454.33 Q1472.24 1454.33 1469.79 1457.45 Q1467.36 1460.58 1467.01 1466.9 Q1468.38 1464.89 1470.44 1463.82 Q1472.5 1462.73 1474.98 1462.73 Q1480.18 1462.73 1483.19 1465.9 Q1486.23 1469.05 1486.23 1474.49 Q1486.23 1479.82 1483.08 1483.03 Q1479.93 1486.25 1474.7 1486.25 Q1468.7 1486.25 1465.53 1481.67 Q1462.36 1477.06 1462.36 1468.33 Q1462.36 1460.14 1466.25 1455.28 Q1470.14 1450.39 1476.69 1450.39 Q1478.45 1450.39 1480.23 1450.74 Q1482.04 1451.09 1483.98 1451.78 Z" fill="#000000" fill-rule="nonzero" fill-opacity="1" /><path clip-path="url(#clip860)" d="M1913.52 1469.17 Q1910.19 1469.17 1908.27 1470.95 Q1906.37 1472.73 1906.37 1475.86 Q1906.37 1478.98 1908.27 1480.77 Q1910.19 1482.55 1913.52 1482.55 Q1916.86 1482.55 1918.78 1480.77 Q1920.7 1478.96 1920.7 1475.86 Q1920.7 1472.73 1918.78 1470.95 Q1916.88 1469.17 1913.52 1469.17 M1908.85 1467.18 Q1905.84 1466.44 1904.15 1464.38 Q1902.48 1462.32 1902.48 1459.35 Q1902.48 1455.21 1905.42 1452.8 Q1908.39 1450.39 1913.52 1450.39 Q1918.69 1450.39 1921.63 1452.8 Q1924.57 1455.21 1924.57 1459.35 Q1924.57 1462.32 1922.88 1464.38 Q1921.21 1466.44 1918.22 1467.18 Q1921.6 1467.96 1923.48 1470.26 Q1925.38 1472.55 1925.38 1475.86 Q1925.38 1480.88 1922.3 1483.57 Q1919.24 1486.25 1913.52 1486.25 Q1907.81 1486.25 1904.73 1483.57 Q1901.67 1480.88 1901.67 1475.86 Q1901.67 1472.55 1903.57 1470.26 Q1905.47 1467.96 1908.85 1467.18 M1907.14 1459.79 Q1907.14 1462.48 1908.8 1463.98 Q1910.49 1465.49 1913.52 1465.49 Q1916.53 1465.49 1918.22 1463.98 Q1919.94 1462.48 1919.94 1459.79 Q1919.94 1457.11 1918.22 1455.6 Q1916.53 1454.1 1913.52 1454.1 Q1910.49 1454.1 1908.8 1455.6 Q1907.14 1457.11 1907.14 1459.79 Z" fill="#000000" fill-rule="nonzero" fill-opacity="1" /><path clip-path="url(#clip860)" d="M2327.44 1481.64 L2335.08 1481.64 L2335.08 1455.28 L2326.77 1456.95 L2326.77 1452.69 L2335.04 1451.02 L2339.71 1451.02 L2339.71 1481.64 L2347.35 1481.64 L2347.35 1485.58 L2327.44 1485.58 L2327.44 1481.64 Z" fill="#000000" fill-rule="nonzero" fill-opacity="1" /><path clip-path="url(#clip860)" d="M2366.8 1454.1 Q2363.18 1454.1 2361.36 1457.66 Q2359.55 1461.2 2359.55 1468.33 Q2359.55 1475.44 2361.36 1479.01 Q2363.18 1482.55 2366.8 1482.55 Q2370.43 1482.55 2372.23 1479.01 Q2374.06 1475.44 2374.06 1468.33 Q2374.06 1461.2 2372.23 1457.66 Q2370.43 1454.1 2366.8 1454.1 M2366.8 1450.39 Q2372.61 1450.39 2375.66 1455 Q2378.74 1459.58 2378.74 1468.33 Q2378.74 1477.06 2375.66 1481.67 Q2372.61 1486.25 2366.8 1486.25 Q2360.99 1486.25 2357.91 1481.67 Q2354.85 1477.06 2354.85 1468.33 Q2354.85 1459.58 2357.91 1455 Q2360.99 1450.39 2366.8 1450.39 Z" fill="#000000" fill-rule="nonzero" fill-opacity="1" /><path clip-path="url(#clip860)" d="M1253.74 1522.27 L1253.74 1532.4 L1265.8 1532.4 L1265.8 1536.95 L1253.74 1536.95 L1253.74 1556.3 Q1253.74 1560.66 1254.92 1561.9 Q1256.13 1563.14 1259.79 1563.14 L1265.8 1563.14 L1265.8 1568.04 L1259.79 1568.04 Q1253.01 1568.04 1250.43 1565.53 Q1247.85 1562.98 1247.85 1556.3 L1247.85 1536.95 L1243.55 1536.95 L1243.55 1532.4 L1247.85 1532.4 L1247.85 1522.27 L1253.74 1522.27 Z" fill="#000000" fill-rule="nonzero" fill-opacity="1" /><polyline clip-path="url(#clip860)" style="stroke:#000000; stroke-linecap:round; stroke-linejoin:round; stroke-width:4; stroke-opacity:1; fill:none" points="156.598,1423.18 156.598,47.2441 "/>
<polyline clip-path="url(#clip860)" style="stroke:#000000; stroke-linecap:round; stroke-linejoin:round; stroke-width:4; stroke-opacity:1; fill:none" points="156.598,1389.87 175.496,1389.87 "/>
<polyline clip-path="url(#clip860)" style="stroke:#000000; stroke-linecap:round; stroke-linejoin:round; stroke-width:4; stroke-opacity:1; fill:none" points="156.598,1084.51 175.496,1084.51 "/>
<polyline clip-path="url(#clip860)" style="stroke:#000000; stroke-linecap:round; stroke-linejoin:round; stroke-width:4; stroke-opacity:1; fill:none" points="156.598,779.146 175.496,779.146 "/>
<polyline clip-path="url(#clip860)" style="stroke:#000000; stroke-linecap:round; stroke-linejoin:round; stroke-width:4; stroke-opacity:1; fill:none" points="156.598,473.784 175.496,473.784 "/>
<polyline clip-path="url(#clip860)" style="stroke:#000000; stroke-linecap:round; stroke-linejoin:round; stroke-width:4; stroke-opacity:1; fill:none" points="156.598,168.421 175.496,168.421 "/>
<path clip-path="url(#clip860)" d="M63.4226 1375.67 Q59.8115 1375.67 57.9828 1379.23 Q56.1773 1382.78 56.1773 1389.9 Q56.1773 1397.01 57.9828 1400.58 Q59.8115 1404.12 63.4226 1404.12 Q67.0569 1404.12 68.8624 1400.58 Q70.6911 1397.01 70.6911 1389.9 Q70.6911 1382.78 68.8624 1379.23 Q67.0569 1375.67 63.4226 1375.67 M63.4226 1371.97 Q69.2328 1371.97 72.2883 1376.57 Q75.367 1381.15 75.367 1389.9 Q75.367 1398.63 72.2883 1403.24 Q69.2328 1407.82 63.4226 1407.82 Q57.6125 1407.82 54.5338 1403.24 Q51.4782 1398.63 51.4782 1389.9 Q51.4782 1381.15 54.5338 1376.57 Q57.6125 1371.97 63.4226 1371.97 Z" fill="#000000" fill-rule="nonzero" fill-opacity="1" /><path clip-path="url(#clip860)" d="M83.5845 1401.27 L88.4688 1401.27 L88.4688 1407.15 L83.5845 1407.15 L83.5845 1401.27 Z" fill="#000000" fill-rule="nonzero" fill-opacity="1" /><path clip-path="url(#clip860)" d="M108.654 1375.67 Q105.043 1375.67 103.214 1379.23 Q101.409 1382.78 101.409 1389.9 Q101.409 1397.01 103.214 1400.58 Q105.043 1404.12 108.654 1404.12 Q112.288 1404.12 114.094 1400.58 Q115.922 1397.01 115.922 1389.9 Q115.922 1382.78 114.094 1379.23 Q112.288 1375.67 108.654 1375.67 M108.654 1371.97 Q114.464 1371.97 117.52 1376.57 Q120.598 1381.15 120.598 1389.9 Q120.598 1398.63 117.52 1403.24 Q114.464 1407.82 108.654 1407.82 Q102.844 1407.82 99.765 1403.24 Q96.7095 1398.63 96.7095 1389.9 Q96.7095 1381.15 99.765 1376.57 Q102.844 1371.97 108.654 1371.97 Z" fill="#000000" fill-rule="nonzero" fill-opacity="1" /><path clip-path="url(#clip860)" d="M64.6495 1070.31 Q61.0384 1070.31 59.2097 1073.87 Q57.4041 1077.41 57.4041 1084.54 Q57.4041 1091.65 59.2097 1095.21 Q61.0384 1098.76 64.6495 1098.76 Q68.2837 1098.76 70.0892 1095.21 Q71.9179 1091.65 71.9179 1084.54 Q71.9179 1077.41 70.0892 1073.87 Q68.2837 1070.31 64.6495 1070.31 M64.6495 1066.6 Q70.4596 1066.6 73.5152 1071.21 Q76.5938 1075.79 76.5938 1084.54 Q76.5938 1093.27 73.5152 1097.88 Q70.4596 1102.46 64.6495 1102.46 Q58.8393 1102.46 55.7606 1097.88 Q52.7051 1093.27 52.7051 1084.54 Q52.7051 1075.79 55.7606 1071.21 Q58.8393 1066.6 64.6495 1066.6 Z" fill="#000000" fill-rule="nonzero" fill-opacity="1" /><path clip-path="url(#clip860)" d="M84.8114 1095.91 L89.6956 1095.91 L89.6956 1101.79 L84.8114 1101.79 L84.8114 1095.91 Z" fill="#000000" fill-rule="nonzero" fill-opacity="1" /><path clip-path="url(#clip860)" d="M100.691 1097.85 L108.33 1097.85 L108.33 1071.49 L100.02 1073.15 L100.02 1068.89 L108.283 1067.23 L112.959 1067.23 L112.959 1097.85 L120.598 1097.85 L120.598 1101.79 L100.691 1101.79 L100.691 1097.85 Z" fill="#000000" fill-rule="nonzero" fill-opacity="1" /><path clip-path="url(#clip860)" d="M65.0198 764.944 Q61.4087 764.944 59.58 768.509 Q57.7745 772.051 57.7745 779.18 Q57.7745 786.287 59.58 789.852 Q61.4087 793.393 65.0198 793.393 Q68.6541 793.393 70.4596 789.852 Q72.2883 786.287 72.2883 779.18 Q72.2883 772.051 70.4596 768.509 Q68.6541 764.944 65.0198 764.944 M65.0198 761.241 Q70.83 761.241 73.8855 765.847 Q76.9642 770.43 76.9642 779.18 Q76.9642 787.907 73.8855 792.514 Q70.83 797.097 65.0198 797.097 Q59.2097 797.097 56.131 792.514 Q53.0754 787.907 53.0754 779.18 Q53.0754 770.43 56.131 765.847 Q59.2097 761.241 65.0198 761.241 Z" fill="#000000" fill-rule="nonzero" fill-opacity="1" /><path clip-path="url(#clip860)" d="M85.1818 790.546 L90.066 790.546 L90.066 796.426 L85.1818 796.426 L85.1818 790.546 Z" fill="#000000" fill-rule="nonzero" fill-opacity="1" /><path clip-path="url(#clip860)" d="M104.279 792.491 L120.598 792.491 L120.598 796.426 L98.6539 796.426 L98.6539 792.491 Q101.316 789.736 105.899 785.106 Q110.506 780.454 111.686 779.111 Q113.932 776.588 114.811 774.852 Q115.714 773.093 115.714 771.403 Q115.714 768.648 113.77 766.912 Q111.848 765.176 108.746 765.176 Q106.547 765.176 104.094 765.94 Q101.663 766.704 98.8854 768.255 L98.8854 763.532 Q101.709 762.398 104.163 761.819 Q106.617 761.241 108.654 761.241 Q114.024 761.241 117.219 763.926 Q120.413 766.611 120.413 771.102 Q120.413 773.231 119.603 775.153 Q118.816 777.051 116.709 779.643 Q116.131 780.315 113.029 783.532 Q109.927 786.727 104.279 792.491 Z" fill="#000000" fill-rule="nonzero" fill-opacity="1" /><path clip-path="url(#clip860)" d="M64.0708 459.582 Q60.4597 459.582 58.631 463.147 Q56.8254 466.689 56.8254 473.818 Q56.8254 480.925 58.631 484.49 Q60.4597 488.031 64.0708 488.031 Q67.705 488.031 69.5105 484.49 Q71.3392 480.925 71.3392 473.818 Q71.3392 466.689 69.5105 463.147 Q67.705 459.582 64.0708 459.582 M64.0708 455.879 Q69.8809 455.879 72.9365 460.485 Q76.0151 465.068 76.0151 473.818 Q76.0151 482.545 72.9365 487.152 Q69.8809 491.735 64.0708 491.735 Q58.2606 491.735 55.1819 487.152 Q52.1264 482.545 52.1264 473.818 Q52.1264 465.068 55.1819 460.485 Q58.2606 455.879 64.0708 455.879 Z" fill="#000000" fill-rule="nonzero" fill-opacity="1" /><path clip-path="url(#clip860)" d="M84.2327 485.184 L89.1169 485.184 L89.1169 491.064 L84.2327 491.064 L84.2327 485.184 Z" fill="#000000" fill-rule="nonzero" fill-opacity="1" /><path clip-path="url(#clip860)" d="M113.469 472.429 Q116.825 473.147 118.7 475.416 Q120.598 477.684 120.598 481.017 Q120.598 486.133 117.08 488.934 Q113.561 491.735 107.08 491.735 Q104.904 491.735 102.589 491.295 Q100.297 490.878 97.8437 490.022 L97.8437 485.508 Q99.7882 486.642 102.103 487.221 Q104.418 487.8 106.941 487.8 Q111.339 487.8 113.631 486.064 Q115.945 484.327 115.945 481.017 Q115.945 477.962 113.793 476.249 Q111.663 474.513 107.844 474.513 L103.816 474.513 L103.816 470.67 L108.029 470.67 Q111.478 470.67 113.307 469.304 Q115.135 467.916 115.135 465.323 Q115.135 462.661 113.237 461.249 Q111.362 459.814 107.844 459.814 Q105.922 459.814 103.723 460.23 Q101.524 460.647 98.8854 461.527 L98.8854 457.36 Q101.547 456.619 103.862 456.249 Q106.2 455.879 108.26 455.879 Q113.584 455.879 116.686 458.309 Q119.788 460.717 119.788 464.837 Q119.788 467.707 118.145 469.698 Q116.501 471.666 113.469 472.429 Z" fill="#000000" fill-rule="nonzero" fill-opacity="1" /><path clip-path="url(#clip860)" d="M62.9365 154.22 Q59.3254 154.22 57.4967 157.785 Q55.6912 161.327 55.6912 168.456 Q55.6912 175.563 57.4967 179.127 Q59.3254 182.669 62.9365 182.669 Q66.5707 182.669 68.3763 179.127 Q70.205 175.563 70.205 168.456 Q70.205 161.327 68.3763 157.785 Q66.5707 154.22 62.9365 154.22 M62.9365 150.516 Q68.7467 150.516 71.8022 155.123 Q74.8809 159.706 74.8809 168.456 Q74.8809 177.183 71.8022 181.789 Q68.7467 186.373 62.9365 186.373 Q57.1264 186.373 54.0477 181.789 Q50.9921 177.183 50.9921 168.456 Q50.9921 159.706 54.0477 155.123 Q57.1264 150.516 62.9365 150.516 Z" fill="#000000" fill-rule="nonzero" fill-opacity="1" /><path clip-path="url(#clip860)" d="M83.0984 179.822 L87.9827 179.822 L87.9827 185.701 L83.0984 185.701 L83.0984 179.822 Z" fill="#000000" fill-rule="nonzero" fill-opacity="1" /><path clip-path="url(#clip860)" d="M111.015 155.215 L99.2095 173.664 L111.015 173.664 L111.015 155.215 M109.788 151.141 L115.668 151.141 L115.668 173.664 L120.598 173.664 L120.598 177.553 L115.668 177.553 L115.668 185.701 L111.015 185.701 L111.015 177.553 L95.4132 177.553 L95.4132 173.039 L109.788 151.141 Z" fill="#000000" fill-rule="nonzero" fill-opacity="1" /><polyline clip-path="url(#clip862)" style="stroke:#009af9; stroke-linecap:round; stroke-linejoin:round; stroke-width:8; stroke-opacity:1; fill:none" points="156.598,779.146 158.797,773.002 160.995,766.796 163.193,760.527 165.392,754.196 167.59,747.801 169.788,741.342 171.987,734.817 174.185,728.227 176.383,721.571 178.582,714.848 180.78,708.057 182.979,701.198 185.177,694.269 187.375,687.271 189.574,680.203 191.772,673.064 193.97,665.852 196.169,658.568 198.367,651.211 200.565,643.78 202.764,636.274 204.962,628.693 207.16,621.035 209.359,613.301 211.557,605.488 213.755,597.597 215.954,589.627 218.152,581.576 220.351,573.444 222.549,565.231 224.747,556.935 226.946,548.555 229.144,540.091 231.342,531.542 233.541,522.907 235.739,514.185 237.937,505.376 240.136,496.477 242.334,487.49 244.532,478.411 246.731,469.242 248.929,459.98 251.128,450.625 253.326,441.176 255.524,431.632 257.723,421.992 259.921,412.255 262.119,402.42 264.318,392.486 266.516,382.452 268.714,372.317 270.913,362.08 273.111,351.74 275.309,341.297 277.508,330.748 279.706,320.093 281.905,309.33 284.103,298.46 286.301,287.48 288.5,276.389 290.698,265.187 292.896,253.873 295.095,242.444 297.293,230.901 299.491,219.241 301.69,798.667 303.888,792.72 306.086,786.712 308.285,780.644 310.483,774.515 312.682,768.324 314.88,762.071 317.078,755.755 319.277,749.376 321.475,742.933 323.673,736.424 325.872,729.85 328.07,723.21 330.268,716.504 332.467,709.73 334.665,702.887 336.863,695.976 339.062,688.995 341.26,681.944 343.458,674.823 345.657,667.629 347.855,660.363 350.054,653.024 352.252,645.612 354.45,638.124 356.649,630.561 358.847,622.923 361.045,615.207 363.244,607.413 365.442,599.542 367.64,591.591 369.839,583.56 372.037,575.448 374.235,567.255 376.434,558.979 378.632,550.62 380.831,542.176 383.029,533.648 385.227,525.034 387.426,516.334 389.624,507.546 391.822,498.669 394.021,489.704 396.219,480.648 398.417,471.501 400.616,462.261 402.814,452.929 405.012,443.503 407.211,433.983 409.409,424.366 411.608,414.653 413.806,404.842 416.004,394.933 418.203,384.923 420.401,374.813 422.599,364.602 424.798,354.287 426.996,343.869 429.194,333.347 431.393,322.718 433.591,311.982 435.789,301.138 437.988,290.186 440.186,279.122 442.385,267.948 444.583,256.661 446.781,245.261 448.98,233.746 451.178,222.115 453.376,210.367 455.575,198.501 457.773,186.515 459.971,174.409 462.17,162.181 464.368,149.83 466.566,137.355 468.765,124.754 470.963,112.026 473.162,99.1705 475.36,86.1857 477.558,731.47 479.757,724.846 481.955,718.156 484.153,711.398 486.352,704.573 488.55,697.679 490.748,690.715 492.947,683.681 495.145,676.577 497.343,669.401 499.542,662.153 501.74,654.832 503.938,647.437 506.137,639.968 508.335,632.424 510.534,624.804 512.732,617.107 514.93,609.333 517.129,601.48 519.327,593.549 521.525,585.538 523.724,577.446 525.922,979.571 528.12,975.444 530.319,971.274 532.517,967.063 534.715,962.81 536.914,958.513 539.112,954.174 541.311,949.79 543.509,945.363 545.707,1165.38 547.906,1163.12 550.104,1160.84 552.302,1158.54 554.501,1156.21 556.699,1153.86 558.897,1151.48 561.096,1149.09 563.294,1146.66 565.492,1144.22 567.691,1141.75 569.889,1139.25 572.088,1136.73 574.286,1134.18 576.484,1131.61 578.683,1129.01 580.881,1126.39 583.079,1123.74 585.278,1121.06 587.476,1118.35 589.674,1115.62 591.873,1112.86 594.071,1110.08 596.269,1107.26 598.468,1104.42 600.666,1101.55 602.865,1098.65 605.063,1095.72 607.261,1241.31 609.46,1239.82 611.658,1238.31 613.856,1236.79 616.055,1235.25 618.253,1233.69 620.451,1232.12 622.65,1230.53 624.848,1228.93 627.046,1227.31 629.245,1225.67 631.443,1224.02 633.641,1222.35 635.84,1220.67 638.038,1218.97 640.237,1217.25 642.435,1215.51 644.633,1213.76 646.832,1211.98 649.03,1210.19 651.228,1208.39 653.427,1206.56 655.625,1204.72 657.823,1202.85 660.022,1200.97 662.22,1199.07 664.418,1197.15 666.617,1195.21 668.815,1193.26 671.014,1191.28 673.212,1189.28 675.41,1187.26 677.609,1185.22 679.807,1183.17 682.005,1181.09 684.204,1178.99 686.402,1176.86 688.6,1174.72 690.799,1172.56 692.997,1170.37 695.195,1168.16 697.394,1165.93 699.592,1163.68 701.791,1161.4 703.989,1159.1 706.187,1156.78 708.386,1154.44 710.584,1152.07 712.782,1149.68 714.981,1147.26 717.179,1144.82 719.377,1142.35 721.576,1139.86 723.774,1137.35 725.972,1134.81 728.171,1132.24 730.369,1129.65 732.568,1127.03 734.766,1124.39 736.964,1121.72 739.163,1119.02 741.361,1116.3 743.559,1113.54 745.758,1110.76 747.956,1107.96 750.154,1105.12 752.353,1102.26 754.551,1099.36 756.749,1096.44 758.948,1093.49 761.146,1090.51 763.344,1087.49 765.543,1084.45 767.741,1081.38 769.94,1078.28 772.138,1075.14 774.336,1071.97 776.535,1068.78 778.733,1065.55 780.931,1062.28 783.13,1058.99 785.328,1055.66 787.526,1052.3 789.725,1048.9 791.923,1045.47 794.121,1042.01 796.32,1038.51 798.518,1034.97 800.717,1031.4 802.915,1027.79 805.113,1024.15 807.312,1020.47 809.51,1016.76 811.708,1013 813.907,1009.21 816.105,1005.38 818.303,1001.51 820.502,997.607 822.7,993.661 824.898,989.675 827.097,985.649 829.295,981.582 831.494,977.475 833.692,973.326 835.89,969.135 838.089,964.903 840.287,960.628 842.485,956.309 844.684,951.948 846.882,947.542 849.08,943.092 851.279,938.598 853.477,934.058 855.675,929.472 857.874,924.841 860.072,920.162 862.271,915.437 864.469,910.664 866.667,905.843 868.866,900.974 871.064,896.055 873.262,891.087 875.461,886.069 877.659,881.001 879.857,875.881 882.056,870.71 884.254,865.487 886.452,860.212 888.651,854.883 890.849,849.501 893.048,844.065 895.246,838.574 897.444,833.027 899.643,827.425 901.841,821.767 904.039,816.051 906.238,810.279 908.436,804.448 910.634,798.558 912.833,792.609 915.031,786.601 917.229,780.531 919.428,774.401 921.626,768.21 923.824,761.956 926.023,755.639 928.221,749.258 930.42,742.814 932.618,736.304 934.816,729.73 937.015,723.089 939.213,716.381 941.411,709.606 943.61,702.762 945.808,695.85 948.006,688.868 950.205,681.816 952.403,674.694 954.601,667.499 956.8,660.232 958.998,652.892 961.197,645.478 963.395,637.989 965.593,630.425 967.792,622.785 969.99,615.068 972.188,607.273 974.387,599.4 976.585,591.447 978.783,583.415 980.982,575.302 983.18,567.107 985.378,558.829 987.577,550.468 989.775,542.023 991.974,533.493 994.172,524.878 996.37,516.175 998.569,507.385 1000.77,498.507 1002.97,489.54 1005.16,480.482 1007.36,471.333 1009.56,462.092 1011.76,452.759 1013.96,443.331 1016.16,433.808 1018.35,424.19 1020.55,414.475 1022.75,404.663 1024.95,394.751 1027.15,384.74 1029.35,374.628 1031.54,364.414 1033.74,354.098 1035.94,343.678 1038.14,333.153 1040.34,856.196 1042.54,850.827 1044.73,845.404 1046.93,839.927 1049.13,834.394 1051.33,828.806 1053.53,823.161 1055.73,817.46 1057.92,811.702 1060.12,805.885 1062.32,800.01 1064.52,794.076 1066.72,788.082 1068.92,1085.95 1071.11,1082.89 1073.31,1079.8 1075.51,1076.68 1077.71,1073.53 1079.91,1070.35 1082.11,1067.14 1084.3,1063.89 1086.5,1060.61 1088.7,1223.58 1090.9,1221.91 1093.1,1220.22 1095.3,1218.51 1097.49,1216.79 1099.69,1215.05 1101.89,1213.29 1104.09,1211.51 1106.29,1209.72 1108.49,1207.91 1110.68,1206.08 1112.88,1204.23 1115.08,1202.36 1117.28,1200.47 1119.48,1198.57 1121.68,1196.64 1123.87,1194.7 1126.07,1192.74 1128.27,1190.75 1130.47,1188.75 1132.67,1186.73 1134.87,1184.68 1137.07,1182.62 1139.26,1180.53 1141.46,1178.43 1143.66,1176.3 1145.86,1174.15 1148.06,1171.98 1150.26,1169.79 1152.45,1167.58 1154.65,1165.34 1156.85,1163.08 1159.05,1160.8 1161.25,1158.49 1163.45,1156.17 1165.64,1153.82 1167.84,1151.44 1170.04,1149.04 1172.24,1146.62 1174.44,1144.17 1176.64,1141.7 1178.83,1139.2 1181.03,1136.68 1183.23,1134.14 1185.43,1131.56 1187.63,1128.96 1189.83,1126.34 1192.02,1123.69 1194.22,1121.01 1196.42,1118.31 1198.62,1115.57 1200.82,1112.81 1203.02,1110.03 1205.21,1107.21 1207.41,1104.37 1209.61,1101.5 1211.81,1098.59 1214.01,1095.66 1216.21,1092.7 1218.4,1089.71 1220.6,1086.69 1222.8,1083.64 1225,1080.56 1227.2,1077.45 1229.4,1074.31 1231.59,1071.13 1233.79,1067.93 1235.99,1064.69 1238.19,1061.42 1240.39,1058.11 1242.59,1054.78 1244.78,1051.4 1246.98,1048 1249.18,1044.56 1251.38,1041.09 1253.58,1037.58 1255.78,1034.03 1257.97,1030.45 1260.17,1026.84 1262.37,1023.19 1264.57,1019.5 1266.77,1015.77 1268.97,1012.01 1271.16,1008.21 1273.36,1004.37 1275.56,1000.49 1277.76,996.571 1279.96,992.614 1282.16,988.617 1284.35,984.581 1286.55,980.503 1288.75,976.385 1290.95,972.225 1293.15,968.023 1295.35,963.779 1297.55,959.493 1299.74,1172.52 1301.94,1170.33 1304.14,1168.12 1306.34,1165.89 1308.54,1163.64 1310.74,1161.36 1312.93,1159.06 1315.13,1156.74 1317.33,1154.39 1319.53,1152.03 1321.73,1149.63 1323.93,1147.22 1326.12,1144.78 1328.32,1142.31 1330.52,1139.82 1332.72,1137.3 1334.92,1134.76 1337.12,1132.2 1339.31,1129.6 1341.51,1126.99 1343.71,1124.34 1345.91,1121.67 1348.11,1118.97 1350.31,1116.25 1352.5,1113.49 1354.7,1110.71 1356.9,1107.91 1359.1,1105.07 1361.3,1102.2 1363.5,1099.31 1365.69,1096.39 1367.89,1093.43 1370.09,1090.45 1372.29,1087.44 1374.49,1084.4 1376.69,1081.32 1378.88,1078.22 1381.08,1075.08 1383.28,1071.92 1385.48,1068.72 1387.68,1065.49 1389.88,1062.22 1392.07,1058.93 1394.27,1055.6 1396.47,1052.24 1398.67,1048.84 1400.87,1045.41 1403.07,1041.94 1405.26,1038.44 1407.46,1034.91 1409.66,1031.34 1411.86,1027.73 1414.06,1024.09 1416.26,1020.41 1418.45,1016.69 1420.65,1012.93 1422.85,1009.14 1425.05,1005.31 1427.25,1001.44 1429.45,997.535 1431.64,993.588 1433.84,989.601 1436.04,985.575 1438.24,981.507 1440.44,977.399 1442.64,973.25 1444.83,969.059 1447.03,964.825 1449.23,960.55 1451.43,956.231 1453.63,951.868 1455.83,947.462 1458.03,943.012 1460.22,938.516 1462.42,933.976 1464.62,929.39 1466.82,924.757 1469.02,920.078 1471.22,915.352 1473.41,910.579 1475.61,905.757 1477.81,900.887 1480.01,895.967 1482.21,890.999 1484.41,885.98 1486.6,880.911 1488.8,875.79 1491,870.618 1493.2,865.394 1495.4,860.118 1497.6,854.788 1499.79,849.405 1501.99,843.967 1504.19,838.475 1506.39,832.928 1508.59,827.325 1510.79,821.665 1512.98,815.948 1515.18,810.174 1517.38,804.342 1519.58,798.451 1521.78,792.502 1523.98,786.492 1526.17,780.422 1528.37,774.29 1530.57,768.098 1532.77,761.842 1534.97,755.524 1537.17,749.143 1539.36,742.697 1541.56,736.186 1543.76,729.61 1545.96,722.967 1548.16,716.258 1550.36,709.481 1552.55,702.636 1554.75,695.723 1556.95,688.739 1559.15,681.686 1561.35,674.561 1563.55,667.365 1565.74,1024.98 1567.94,1021.31 1570.14,1017.6 1572.34,1013.86 1574.54,1010.08 1576.74,1006.26 1578.93,1002.4 1581.13,998.498 1583.33,994.561 1585.53,990.584 1587.73,986.567 1589.93,982.51 1592.12,978.412 1594.32,974.272 1596.52,970.091 1598.72,965.868 1600.92,961.603 1603.12,957.294 1605.31,952.943 1607.51,948.547 1609.71,944.107 1611.91,939.623 1614.11,935.093 1616.31,930.518 1618.5,925.897 1620.7,921.23 1622.9,916.515 1625.1,911.753 1627.3,906.943 1629.5,902.085 1631.7,897.177 1633.89,892.221 1636.09,887.214 1638.29,882.157 1640.49,877.05 1642.69,871.89 1644.89,866.679 1647.08,861.416 1649.28,856.099 1651.48,850.729 1653.68,845.305 1655.88,839.827 1658.08,834.293 1660.27,828.704 1662.47,823.058 1664.67,817.356 1666.87,811.596 1669.07,805.779 1671.27,799.903 1673.46,793.967 1675.66,787.972 1677.86,781.917 1680.06,775.801 1682.26,769.623 1684.46,763.383 1686.65,757.081 1688.85,750.715 1691.05,744.285 1693.25,737.79 1695.45,731.23 1697.65,724.604 1699.84,717.911 1702.04,711.151 1704.24,704.323 1706.44,697.426 1708.64,690.46 1710.84,683.424 1713.03,676.317 1715.23,669.138 1717.43,661.887 1719.63,654.563 1721.83,647.166 1724.03,639.694 1726.22,632.147 1728.42,624.524 1730.62,1003.35 1732.82,999.459 1735.02,995.531 1737.22,991.564 1739.41,987.557 1741.61,983.51 1743.81,979.421 1746.01,975.292 1748.21,971.122 1750.41,966.909 1752.6,962.654 1754.8,958.356 1757,954.015 1759.2,949.63 1761.4,945.201 1763.6,940.727 1765.79,936.209 1767.99,1160.76 1770.19,1158.45 1772.39,1156.12 1774.59,1153.77 1776.79,1151.4 1778.98,1149 1781.18,1146.58 1783.38,1144.13 1785.58,1141.66 1787.78,1139.16 1789.98,1136.64 1792.18,1134.09 1794.37,1131.52 1796.57,1128.92 1798.77,1258.08 1800.97,1256.75 1803.17,1255.42 1805.37,1254.06 1807.56,1252.7 1809.76,1251.32 1811.96,1249.92 1814.16,1248.51 1816.36,1247.09 1818.56,1245.66 1820.75,1244.21 1822.95,1242.74 1825.15,1241.26 1827.35,1239.76 1829.55,1238.25 1831.75,1236.73 1833.94,1235.19 1836.14,1233.63 1838.34,1232.06 1840.54,1230.47 1842.74,1228.87 1844.94,1227.25 1847.13,1225.61 1849.33,1223.96 1851.53,1222.29 1853.73,1220.61 1855.93,1218.9 1858.13,1217.18 1860.32,1215.45 1862.52,1213.69 1864.72,1211.92 1866.92,1300 1869.12,1299.1 1871.32,1298.18 1873.51,1297.26 1875.71,1296.33 1877.91,1295.39 1880.11,1294.44 1882.31,1293.48 1884.51,1292.51 1886.7,1291.53 1888.9,1290.54 1891.1,1289.54 1893.3,1288.53 1895.5,1287.51 1897.7,1286.48 1899.89,1285.44 1902.09,1284.39 1904.29,1283.33 1906.49,1282.26 1908.69,1281.17 1910.89,1280.08 1913.08,1278.98 1915.28,1277.86 1917.48,1276.73 1919.68,1275.59 1921.88,1274.45 1924.08,1273.28 1926.27,1272.11 1928.47,1270.93 1930.67,1269.73 1932.87,1268.52 1935.07,1267.3 1937.27,1266.07 1939.46,1264.82 1941.66,1263.56 1943.86,1262.29 1946.06,1261.01 1948.26,1259.71 1950.46,1258.4 1952.66,1257.08 1954.85,1255.75 1957.05,1254.4 1959.25,1253.03 1961.45,1251.66 1963.65,1250.27 1965.85,1248.86 1968.04,1247.44 1970.24,1246.01 1972.44,1244.56 1974.64,1243.1 1976.84,1241.62 1979.04,1240.13 1981.23,1238.63 1983.43,1313.49 1985.63,1312.72 1987.83,1311.94 1990.03,1311.16 1992.23,1310.37 1994.42,1309.57 1996.62,1308.76 1998.82,1307.94 2001.02,1307.12 2003.22,1306.29 2005.42,1305.45 2007.61,1304.6 2009.81,1303.74 2012.01,1302.87 2014.21,1302 2016.41,1301.11 2018.61,1300.22 2020.8,1299.32 2023,1298.41 2025.2,1297.49 2027.4,1296.56 2029.6,1295.62 2031.8,1294.67 2033.99,1293.71 2036.19,1292.75 2038.39,1291.77 2040.59,1290.78 2042.79,1289.78 2044.99,1288.78 2047.18,1287.76 2049.38,1286.73 2051.58,1285.7 2053.78,1284.65 2055.98,1283.59 2058.18,1282.52 2060.37,1281.44 2062.57,1280.35 2064.77,1279.25 2066.97,1278.13 2069.17,1277.01 2071.37,1275.88 2073.56,1274.73 2075.76,1273.57 2077.96,1272.4 2080.16,1271.22 2082.36,1270.02 2084.56,1268.82 2086.75,1267.6 2088.95,1266.37 2091.15,1265.13 2093.35,1263.87 2095.55,1262.61 2097.75,1261.33 2099.94,1260.03 2102.14,1258.73 2104.34,1257.41 2106.54,1256.07 2108.74,1254.73 2110.94,1253.37 2113.14,1252 2115.33,1250.61 2117.53,1249.21 2119.73,1247.79 2121.93,1246.36 2124.13,1244.92 2126.33,1243.46 2128.52,1241.99 2130.72,1240.5 2132.92,1239 2135.12,1237.48 2137.32,1235.95 2139.52,1234.4 2141.71,1232.83 2143.91,1310.56 2146.11,1309.76 2148.31,1308.96 2150.51,1308.14 2152.71,1307.32 2154.9,1306.49 2157.1,1305.65 2159.3,1347.34 2161.5,1346.91 2163.7,1346.48 2165.9,1346.04 2168.09,1345.6 2170.29,1345.16 2172.49,1344.71 2174.69,1344.25 2176.89,1343.79 2179.09,1343.33 2181.28,1342.86 2183.48,1342.39 2185.68,1341.91 2187.88,1365.65 2190.08,1365.4 2192.28,1365.16 2194.47,1364.91 2196.67,1364.66 2198.87,1364.41 2201.07,1364.15 2203.27,1363.89 2205.47,1363.63 2207.66,1363.37 2209.86,1363.1 2212.06,1376.35 2214.26,1376.21 2216.46,1376.08 2218.66,1375.94 2220.85,1375.8 2223.05,1375.66 2225.25,1375.51 2227.45,1375.37 2229.65,1375.22 2231.85,1375.07 2234.04,1374.93 2236.24,1374.78 2238.44,1374.62 2240.64,1374.47 2242.84,1374.32 2245.04,1374.16 2247.23,1374 2249.43,1373.84 2251.63,1373.68 2253.83,1381.69 2256.03,1381.61 2258.23,1381.53 2260.42,1381.44 2262.62,1381.36 2264.82,1381.27 2267.02,1381.19 2269.22,1381.1 2271.42,1381.01 2273.62,1380.92 2275.81,1380.83 2278.01,1380.74 2280.21,1380.65 2282.41,1380.56 2284.61,1380.46 2286.81,1380.37 2289,1380.27 2291.2,1380.18 2293.4,1380.08 2295.6,1379.98 2297.8,1379.88 2300,1379.78 2302.19,1379.68 2304.39,1379.58 2306.59,1379.47 2308.79,1379.37 2310.99,1379.26 2313.19,1379.16 2315.38,1379.05 2317.58,1378.94 2319.78,1378.83 2321.98,1378.72 2324.18,1384.24 2326.38,1384.18 2328.57,1384.12 2330.77,1384.07 2332.97,1384.01 2335.17,1383.95 2337.37,1383.89 2339.57,1383.83 2341.76,1383.77 2343.96,1383.71 2346.16,1383.65 2348.36,1383.58 2350.56,1383.52 2352.76,1383.46 "/>
<path clip-path="url(#clip860)" d="M1970.84 196.789 L2279.55 196.789 L2279.55 93.1086 L1970.84 93.1086  Z" fill="#ffffff" fill-rule="evenodd" fill-opacity="1"/>
<polyline clip-path="url(#clip860)" style="stroke:#000000; stroke-linecap:round; stroke-linejoin:round; stroke-width:4; stroke-opacity:1; fill:none" points="1970.84,196.789 2279.55,196.789 2279.55,93.1086 1970.84,93.1086 1970.84,196.789 "/>
<polyline clip-path="url(#clip860)" style="stroke:#009af9; stroke-linecap:round; stroke-linejoin:round; stroke-width:8; stroke-opacity:1; fill:none" points="1995.24,144.949 2141.65,144.949 "/>
<path clip-path="url(#clip860)" d="M2166.05 151.997 L2166.05 136.303 L2170.31 136.303 L2170.31 151.835 Q2170.31 155.516 2171.75 157.368 Q2173.18 159.196 2176.05 159.196 Q2179.5 159.196 2181.49 156.997 Q2183.51 154.798 2183.51 151.002 L2183.51 136.303 L2187.76 136.303 L2187.76 162.229 L2183.51 162.229 L2183.51 158.247 Q2181.95 160.608 2179.89 161.766 Q2177.86 162.9 2175.15 162.9 Q2170.68 162.9 2168.37 160.122 Q2166.05 157.344 2166.05 151.997 M2176.77 135.678 L2176.77 135.678 Z" fill="#000000" fill-rule="nonzero" fill-opacity="1" /><path clip-path="url(#clip860)" d="M2196.14 126.21 L2205.96 126.21 L2205.96 129.52 L2200.4 129.52 L2200.4 165.168 L2205.96 165.168 L2205.96 168.479 L2196.14 168.479 L2196.14 126.21 Z" fill="#000000" fill-rule="nonzero" fill-opacity="1" /><path clip-path="url(#clip860)" d="M2216.45 158.293 L2224.08 158.293 L2224.08 131.928 L2215.77 133.595 L2215.77 129.335 L2224.04 127.669 L2228.71 127.669 L2228.71 158.293 L2236.35 158.293 L2236.35 162.229 L2216.45 162.229 L2216.45 158.293 Z" fill="#000000" fill-rule="nonzero" fill-opacity="1" /><path clip-path="url(#clip860)" d="M2255.15 126.21 L2255.15 168.479 L2245.33 168.479 L2245.33 165.168 L2250.87 165.168 L2250.87 129.52 L2245.33 129.52 L2245.33 126.21 L2255.15 126.21 Z" fill="#000000" fill-rule="nonzero" fill-opacity="1" /></svg>
