<?xml version="1.0" encoding="utf-8"?>
<svg xmlns="http://www.w3.org/2000/svg" xmlns:xlink="http://www.w3.org/1999/xlink" width="600" height="400" viewBox="0 0 2400 1600">
<defs>
  <clipPath id="clip010">
    <rect x="0" y="0" width="2400" height="1600"/>
  </clipPath>
</defs>
<path clip-path="url(#clip010)" d="M0 1600 L2400 1600 L2400 0 L0 0  Z" fill="#ffffff" fill-rule="evenodd" fill-opacity="1"/>
<defs>
  <clipPath id="clip011">
    <rect x="480" y="0" width="1681" height="1600"/>
  </clipPath>
</defs>
<path clip-path="url(#clip010)" d="M140.696 1423.18 L2352.76 1423.18 L2352.76 47.2441 L140.696 47.2441  Z" fill="#ffffff" fill-rule="evenodd" fill-opacity="1"/>
<defs>
  <clipPath id="clip012">
    <rect x="140" y="47" width="2213" height="1377"/>
  </clipPath>
</defs>
<polyline clip-path="url(#clip012)" style="stroke:#000000; stroke-linecap:round; stroke-linejoin:round; stroke-width:2; stroke-opacity:0.1; fill:none" points="140.696,1423.18 140.696,47.2441 "/>
<polyline clip-path="url(#clip012)" style="stroke:#000000; stroke-linecap:round; stroke-linejoin:round; stroke-width:2; stroke-opacity:0.1; fill:none" points="583.108,1423.18 583.108,47.2441 "/>
<polyline clip-path="url(#clip012)" style="stroke:#000000; stroke-linecap:round; stroke-linejoin:round; stroke-width:2; stroke-opacity:0.1; fill:none" points="1025.52,1423.18 1025.52,47.2441 "/>
<polyline clip-path="url(#clip012)" style="stroke:#000000; stroke-linecap:round; stroke-linejoin:round; stroke-width:2; stroke-opacity:0.1; fill:none" points="1467.93,1423.18 1467.93,47.2441 "/>
<polyline clip-path="url(#clip012)" style="stroke:#000000; stroke-linecap:round; stroke-linejoin:round; stroke-width:2; stroke-opacity:0.1; fill:none" points="1910.34,1423.18 1910.34,47.2441 "/>
<polyline clip-path="url(#clip012)" style="stroke:#000000; stroke-linecap:round; stroke-linejoin:round; stroke-width:2; stroke-opacity:0.1; fill:none" points="2352.76,1423.18 2352.76,47.2441 "/>
<polyline clip-path="url(#clip012)" style="stroke:#000000; stroke-linecap:round; stroke-linejoin:round; stroke-width:2; stroke-opacity:0.1; fill:none" points="140.696,1384.24 2352.76,1384.24 "/>
<polyline clip-path="url(#clip012)" style="stroke:#000000; stroke-linecap:round; stroke-linejoin:round; stroke-width:2; stroke-opacity:0.1; fill:none" points="140.696,1113.81 2352.76,1113.81 "/>
<polyline clip-path="url(#clip012)" style="stroke:#000000; stroke-linecap:round; stroke-linejoin:round; stroke-width:2; stroke-opacity:0.1; fill:none" points="140.696,843.383 2352.76,843.383 "/>
<polyline clip-path="url(#clip012)" style="stroke:#000000; stroke-linecap:round; stroke-linejoin:round; stroke-width:2; stroke-opacity:0.1; fill:none" points="140.696,572.955 2352.76,572.955 "/>
<polyline clip-path="url(#clip012)" style="stroke:#000000; stroke-linecap:round; stroke-linejoin:round; stroke-width:2; stroke-opacity:0.1; fill:none" points="140.696,302.528 2352.76,302.528 "/>
<polyline clip-path="url(#clip010)" style="stroke:#000000; stroke-linecap:round; stroke-linejoin:round; stroke-width:4; stroke-opacity:1; fill:none" points="140.696,1423.18 2352.76,1423.18 "/>
<polyline clip-path="url(#clip010)" style="stroke:#000000; stroke-linecap:round; stroke-linejoin:round; stroke-width:4; stroke-opacity:1; fill:none" points="140.696,1423.18 140.696,1404.28 "/>
<polyline clip-path="url(#clip010)" style="stroke:#000000; stroke-linecap:round; stroke-linejoin:round; stroke-width:4; stroke-opacity:1; fill:none" points="583.108,1423.18 583.108,1404.28 "/>
<polyline clip-path="url(#clip010)" style="stroke:#000000; stroke-linecap:round; stroke-linejoin:round; stroke-width:4; stroke-opacity:1; fill:none" points="1025.52,1423.18 1025.52,1404.28 "/>
<polyline clip-path="url(#clip010)" style="stroke:#000000; stroke-linecap:round; stroke-linejoin:round; stroke-width:4; stroke-opacity:1; fill:none" points="1467.93,1423.18 1467.93,1404.28 "/>
<polyline clip-path="url(#clip010)" style="stroke:#000000; stroke-linecap:round; stroke-linejoin:round; stroke-width:4; stroke-opacity:1; fill:none" points="1910.34,1423.18 1910.34,1404.28 "/>
<polyline clip-path="url(#clip010)" style="stroke:#000000; stroke-linecap:round; stroke-linejoin:round; stroke-width:4; stroke-opacity:1; fill:none" points="2352.76,1423.18 2352.76,1404.28 "/>
<path clip-path="url(#clip010)" d="M140.696 1454.1 Q137.084 1454.1 135.256 1457.66 Q133.45 1461.2 133.45 1468.33 Q133.45 1475.44 135.256 1479.01 Q137.084 1482.55 140.696 1482.55 Q144.33 1482.55 146.135 1479.01 Q147.964 1475.44 147.964 1468.33 Q147.964 1461.2 146.135 1457.66 Q144.33 1454.1 140.696 1454.1 M140.696 1450.39 Q146.506 1450.39 149.561 1455 Q152.64 1459.58 152.64 1468.33 Q152.64 1477.06 149.561 1481.67 Q146.506 1486.25 140.696 1486.25 Q134.885 1486.25 131.807 1481.67 Q128.751 1477.06 128.751 1468.33 Q128.751 1459.58 131.807 1455 Q134.885 1450.39 140.696 1450.39 Z" fill="#000000" fill-rule="nonzero" fill-opacity="1" /><path clip-path="url(#clip010)" d="M577.76 1481.64 L594.08 1481.64 L594.08 1485.58 L572.135 1485.58 L572.135 1481.64 Q574.797 1478.89 579.381 1474.26 Q583.987 1469.61 585.168 1468.27 Q587.413 1465.74 588.293 1464.01 Q589.196 1462.25 589.196 1460.56 Q589.196 1457.8 587.251 1456.07 Q585.33 1454.33 582.228 1454.33 Q580.029 1454.33 577.575 1455.09 Q575.145 1455.86 572.367 1457.41 L572.367 1452.69 Q575.191 1451.55 577.645 1450.97 Q580.098 1450.39 582.135 1450.39 Q587.506 1450.39 590.7 1453.08 Q593.895 1455.77 593.895 1460.26 Q593.895 1462.39 593.084 1464.31 Q592.297 1466.2 590.191 1468.8 Q589.612 1469.47 586.51 1472.69 Q583.409 1475.88 577.76 1481.64 Z" fill="#000000" fill-rule="nonzero" fill-opacity="1" /><path clip-path="url(#clip010)" d="M1028.53 1455.09 L1016.72 1473.54 L1028.53 1473.54 L1028.53 1455.09 M1027.3 1451.02 L1033.18 1451.02 L1033.18 1473.54 L1038.11 1473.54 L1038.11 1477.43 L1033.18 1477.43 L1033.18 1485.58 L1028.53 1485.58 L1028.53 1477.43 L1012.93 1477.43 L1012.93 1472.92 L1027.3 1451.02 Z" fill="#000000" fill-rule="nonzero" fill-opacity="1" /><path clip-path="url(#clip010)" d="M1468.34 1466.44 Q1465.19 1466.44 1463.34 1468.59 Q1461.51 1470.74 1461.51 1474.49 Q1461.51 1478.22 1463.34 1480.39 Q1465.19 1482.55 1468.34 1482.55 Q1471.48 1482.55 1473.31 1480.39 Q1475.17 1478.22 1475.17 1474.49 Q1475.17 1470.74 1473.31 1468.59 Q1471.48 1466.44 1468.34 1466.44 M1477.62 1451.78 L1477.62 1456.04 Q1475.86 1455.21 1474.05 1454.77 Q1472.27 1454.33 1470.51 1454.33 Q1465.88 1454.33 1463.43 1457.45 Q1461 1460.58 1460.65 1466.9 Q1462.02 1464.89 1464.08 1463.82 Q1466.14 1462.73 1468.61 1462.73 Q1473.82 1462.73 1476.83 1465.9 Q1479.86 1469.05 1479.86 1474.49 Q1479.86 1479.82 1476.72 1483.03 Q1473.57 1486.25 1468.34 1486.25 Q1462.34 1486.25 1459.17 1481.67 Q1456 1477.06 1456 1468.33 Q1456 1460.14 1459.89 1455.28 Q1463.78 1450.39 1470.33 1450.39 Q1472.09 1450.39 1473.87 1450.74 Q1475.67 1451.09 1477.62 1451.78 Z" fill="#000000" fill-rule="nonzero" fill-opacity="1" /><path clip-path="url(#clip010)" d="M1910.34 1469.17 Q1907.01 1469.17 1905.09 1470.95 Q1903.19 1472.73 1903.19 1475.86 Q1903.19 1478.98 1905.09 1480.77 Q1907.01 1482.55 1910.34 1482.55 Q1913.68 1482.55 1915.6 1480.77 Q1917.52 1478.96 1917.52 1475.86 Q1917.52 1472.73 1915.6 1470.95 Q1913.7 1469.17 1910.34 1469.17 M1905.67 1467.18 Q1902.66 1466.44 1900.97 1464.38 Q1899.3 1462.32 1899.3 1459.35 Q1899.3 1455.21 1902.24 1452.8 Q1905.2 1450.39 1910.34 1450.39 Q1915.51 1450.39 1918.45 1452.8 Q1921.39 1455.21 1921.39 1459.35 Q1921.39 1462.32 1919.7 1464.38 Q1918.03 1466.44 1915.04 1467.18 Q1918.42 1467.96 1920.3 1470.26 Q1922.2 1472.55 1922.2 1475.86 Q1922.2 1480.88 1919.12 1483.57 Q1916.06 1486.25 1910.34 1486.25 Q1904.63 1486.25 1901.55 1483.57 Q1898.49 1480.88 1898.49 1475.86 Q1898.49 1472.55 1900.39 1470.26 Q1902.29 1467.96 1905.67 1467.18 M1903.95 1459.79 Q1903.95 1462.48 1905.62 1463.98 Q1907.31 1465.49 1910.34 1465.49 Q1913.35 1465.49 1915.04 1463.98 Q1916.76 1462.48 1916.76 1459.79 Q1916.76 1457.11 1915.04 1455.6 Q1913.35 1454.1 1910.34 1454.1 Q1907.31 1454.1 1905.62 1455.6 Q1903.95 1457.11 1903.95 1459.79 Z" fill="#000000" fill-rule="nonzero" fill-opacity="1" /><path clip-path="url(#clip010)" d="M2327.44 1481.64 L2335.08 1481.64 L2335.08 1455.28 L2326.77 1456.95 L2326.77 1452.69 L2335.04 1451.02 L2339.71 1451.02 L2339.71 1481.64 L2347.35 1481.64 L2347.35 1485.58 L2327.44 1485.58 L2327.44 1481.64 Z" fill="#000000" fill-rule="nonzero" fill-opacity="1" /><path clip-path="url(#clip010)" d="M2366.8 1454.1 Q2363.18 1454.1 2361.36 1457.66 Q2359.55 1461.2 2359.55 1468.33 Q2359.55 1475.44 2361.36 1479.01 Q2363.18 1482.55 2366.8 1482.55 Q2370.43 1482.55 2372.23 1479.01 Q2374.06 1475.44 2374.06 1468.33 Q2374.06 1461.2 2372.23 1457.66 Q2370.43 1454.1 2366.8 1454.1 M2366.8 1450.39 Q2372.61 1450.39 2375.66 1455 Q2378.74 1459.58 2378.74 1468.33 Q2378.74 1477.06 2375.66 1481.67 Q2372.61 1486.25 2366.8 1486.25 Q2360.99 1486.25 2357.91 1481.67 Q2354.85 1477.06 2354.85 1468.33 Q2354.85 1459.58 2357.91 1455 Q2360.99 1450.39 2366.8 1450.39 Z" fill="#000000" fill-rule="nonzero" fill-opacity="1" /><path clip-path="url(#clip010)" d="M1245.79 1522.27 L1245.79 1532.4 L1257.85 1532.4 L1257.85 1536.95 L1245.79 1536.95 L1245.79 1556.3 Q1245.79 1560.66 1246.96 1561.9 Q1248.17 1563.14 1251.83 1563.14 L1257.85 1563.14 L1257.85 1568.04 L1251.83 1568.04 Q1245.05 1568.04 1242.48 1565.53 Q1239.9 1562.98 1239.9 1556.3 L1239.9 1536.95 L1235.6 1536.95 L1235.6 1532.4 L1239.9 1532.4 L1239.9 1522.27 L1245.79 1522.27 Z" fill="#000000" fill-rule="nonzero" fill-opacity="1" /><polyline clip-path="url(#clip010)" style="stroke:#000000; stroke-linecap:round; stroke-linejoin:round; stroke-width:4; stroke-opacity:1; fill:none" points="140.696,1423.18 140.696,47.2441 "/>
<polyline clip-path="url(#clip010)" style="stroke:#000000; stroke-linecap:round; stroke-linejoin:round; stroke-width:4; stroke-opacity:1; fill:none" points="140.696,1384.24 159.593,1384.24 "/>
<polyline clip-path="url(#clip010)" style="stroke:#000000; stroke-linecap:round; stroke-linejoin:round; stroke-width:4; stroke-opacity:1; fill:none" points="140.696,1113.81 159.593,1113.81 "/>
<polyline clip-path="url(#clip010)" style="stroke:#000000; stroke-linecap:round; stroke-linejoin:round; stroke-width:4; stroke-opacity:1; fill:none" points="140.696,843.383 159.593,843.383 "/>
<polyline clip-path="url(#clip010)" style="stroke:#000000; stroke-linecap:round; stroke-linejoin:round; stroke-width:4; stroke-opacity:1; fill:none" points="140.696,572.955 159.593,572.955 "/>
<polyline clip-path="url(#clip010)" style="stroke:#000000; stroke-linecap:round; stroke-linejoin:round; stroke-width:4; stroke-opacity:1; fill:none" points="140.696,302.528 159.593,302.528 "/>
<path clip-path="url(#clip010)" d="M92.7512 1370.04 Q89.1401 1370.04 87.3114 1373.6 Q85.5058 1377.14 85.5058 1384.27 Q85.5058 1391.38 87.3114 1394.94 Q89.1401 1398.49 92.7512 1398.49 Q96.3854 1398.49 98.1909 1394.94 Q100.02 1391.38 100.02 1384.27 Q100.02 1377.14 98.1909 1373.6 Q96.3854 1370.04 92.7512 1370.04 M92.7512 1366.33 Q98.5613 1366.33 101.617 1370.94 Q104.696 1375.52 104.696 1384.27 Q104.696 1393 101.617 1397.61 Q98.5613 1402.19 92.7512 1402.19 Q86.941 1402.19 83.8623 1397.61 Q80.8068 1393 80.8068 1384.27 Q80.8068 1375.52 83.8623 1370.94 Q86.941 1366.33 92.7512 1366.33 Z" fill="#000000" fill-rule="nonzero" fill-opacity="1" /><path clip-path="url(#clip010)" d="M83.7929 1096.53 L102.149 1096.53 L102.149 1100.47 L88.0753 1100.47 L88.0753 1108.94 Q89.0938 1108.59 90.1123 1108.43 Q91.1308 1108.24 92.1493 1108.24 Q97.9363 1108.24 101.316 1111.41 Q104.696 1114.59 104.696 1120 Q104.696 1125.58 101.223 1128.68 Q97.7511 1131.76 91.4317 1131.76 Q89.2558 1131.76 86.9873 1131.39 Q84.7419 1131.02 82.3346 1130.28 L82.3346 1125.58 Q84.4179 1126.72 86.6401 1127.27 Q88.8623 1127.83 91.3391 1127.83 Q95.3437 1127.83 97.6817 1125.72 Q100.02 1123.61 100.02 1120 Q100.02 1116.39 97.6817 1114.29 Q95.3437 1112.18 91.3391 1112.18 Q89.4641 1112.18 87.5892 1112.6 Q85.7373 1113.01 83.7929 1113.89 L83.7929 1096.53 Z" fill="#000000" fill-rule="nonzero" fill-opacity="1" /><path clip-path="url(#clip010)" d="M53.3995 856.728 L61.0384 856.728 L61.0384 830.362 L52.7282 832.029 L52.7282 827.77 L60.9921 826.103 L65.668 826.103 L65.668 856.728 L73.3068 856.728 L73.3068 860.663 L53.3995 860.663 L53.3995 856.728 Z" fill="#000000" fill-rule="nonzero" fill-opacity="1" /><path clip-path="url(#clip010)" d="M92.7512 829.182 Q89.1401 829.182 87.3114 832.747 Q85.5058 836.288 85.5058 843.418 Q85.5058 850.524 87.3114 854.089 Q89.1401 857.631 92.7512 857.631 Q96.3854 857.631 98.1909 854.089 Q100.02 850.524 100.02 843.418 Q100.02 836.288 98.1909 832.747 Q96.3854 829.182 92.7512 829.182 M92.7512 825.478 Q98.5613 825.478 101.617 830.084 Q104.696 834.668 104.696 843.418 Q104.696 852.145 101.617 856.751 Q98.5613 861.334 92.7512 861.334 Q86.941 861.334 83.8623 856.751 Q80.8068 852.145 80.8068 843.418 Q80.8068 834.668 83.8623 830.084 Q86.941 825.478 92.7512 825.478 Z" fill="#000000" fill-rule="nonzero" fill-opacity="1" /><path clip-path="url(#clip010)" d="M54.3949 586.3 L62.0337 586.3 L62.0337 559.935 L53.7236 561.601 L53.7236 557.342 L61.9874 555.675 L66.6633 555.675 L66.6633 586.3 L74.3022 586.3 L74.3022 590.235 L54.3949 590.235 L54.3949 586.3 Z" fill="#000000" fill-rule="nonzero" fill-opacity="1" /><path clip-path="url(#clip010)" d="M83.7929 555.675 L102.149 555.675 L102.149 559.611 L88.0753 559.611 L88.0753 568.083 Q89.0938 567.736 90.1123 567.573 Q91.1308 567.388 92.1493 567.388 Q97.9363 567.388 101.316 570.56 Q104.696 573.731 104.696 579.147 Q104.696 584.726 101.223 587.828 Q97.7511 590.907 91.4317 590.907 Q89.2558 590.907 86.9873 590.536 Q84.7419 590.166 82.3346 589.425 L82.3346 584.726 Q84.4179 585.86 86.6401 586.416 Q88.8623 586.972 91.3391 586.972 Q95.3437 586.972 97.6817 584.865 Q100.02 582.759 100.02 579.147 Q100.02 575.536 97.6817 573.43 Q95.3437 571.323 91.3391 571.323 Q89.4641 571.323 87.5892 571.74 Q85.7373 572.157 83.7929 573.036 L83.7929 555.675 Z" fill="#000000" fill-rule="nonzero" fill-opacity="1" /><path clip-path="url(#clip010)" d="M56.6171 315.873 L72.9365 315.873 L72.9365 319.808 L50.9921 319.808 L50.9921 315.873 Q53.6541 313.118 58.2375 308.488 Q62.8439 303.836 64.0245 302.493 Q66.2698 299.97 67.1494 298.234 Q68.0522 296.475 68.0522 294.785 Q68.0522 292.03 66.1078 290.294 Q64.1865 288.558 61.0847 288.558 Q58.8856 288.558 56.4319 289.322 Q54.0014 290.086 51.2236 291.637 L51.2236 286.914 Q54.0477 285.78 56.5014 285.201 Q58.955 284.623 60.9921 284.623 Q66.3624 284.623 69.5568 287.308 Q72.7513 289.993 72.7513 294.484 Q72.7513 296.613 71.9411 298.535 Q71.1541 300.433 69.0476 303.025 Q68.4689 303.697 65.367 306.914 Q62.2652 310.109 56.6171 315.873 Z" fill="#000000" fill-rule="nonzero" fill-opacity="1" /><path clip-path="url(#clip010)" d="M92.7512 288.326 Q89.1401 288.326 87.3114 291.891 Q85.5058 295.433 85.5058 302.562 Q85.5058 309.669 87.3114 313.234 Q89.1401 316.775 92.7512 316.775 Q96.3854 316.775 98.1909 313.234 Q100.02 309.669 100.02 302.562 Q100.02 295.433 98.1909 291.891 Q96.3854 288.326 92.7512 288.326 M92.7512 284.623 Q98.5613 284.623 101.617 289.229 Q104.696 293.813 104.696 302.562 Q104.696 311.289 101.617 315.896 Q98.5613 320.479 92.7512 320.479 Q86.941 320.479 83.8623 315.896 Q80.8068 311.289 80.8068 302.562 Q80.8068 293.813 83.8623 289.229 Q86.941 284.623 92.7512 284.623 Z" fill="#000000" fill-rule="nonzero" fill-opacity="1" /><polyline clip-path="url(#clip012)" style="stroke:#009af9; stroke-linecap:round; stroke-linejoin:round; stroke-width:8; stroke-opacity:1; fill:none" points="140.696,1384.24 142.746,1384.24 144.796,1384.24 146.846,1384.24 148.896,1384.24 150.946,1384.24 152.996,1384.24 155.046,1384.24 157.096,1384.24 159.146,1384.24 161.197,1330.15 163.247,1330.15 165.297,1330.15 167.347,1330.15 169.397,1330.15 171.447,1330.15 173.497,1330.15 175.547,1330.15 177.597,1330.15 179.647,1330.15 181.698,1330.15 183.748,1330.15 185.798,1330.15 187.848,1276.07 189.898,1221.98 191.948,1221.98 193.998,1221.98 196.048,1221.98 198.098,1221.98 200.149,1221.98 202.199,1221.98 204.249,1276.07 206.299,1276.07 208.349,1276.07 210.399,1276.07 212.449,1276.07 214.499,1276.07 216.549,1276.07 218.599,1276.07 220.65,1276.07 222.7,1276.07 224.75,1276.07 226.8,1276.07 228.85,1276.07 230.9,1276.07 232.95,1276.07 235,1276.07 237.05,1276.07 239.1,1276.07 241.151,1276.07 243.201,1276.07 245.251,1276.07 247.301,1276.07 249.351,1276.07 251.401,1221.98 253.451,1221.98 255.501,1221.98 257.551,1167.9 259.601,1113.81 261.652,1113.81 263.702,1113.81 265.752,1113.81 267.802,1113.81 269.852,1113.81 271.902,1113.81 273.952,1113.81 276.002,1113.81 278.052,1113.81 280.102,1113.81 282.153,1113.81 284.203,1113.81 286.253,1113.81 288.303,1113.81 290.353,1113.81 292.403,1113.81 294.453,1113.81 296.503,1167.9 298.553,1221.98 300.604,1167.9 302.654,1167.9 304.704,1167.9 306.754,1167.9 308.804,1167.9 310.854,1167.9 312.904,1167.9 314.954,1167.9 317.004,1167.9 319.054,1167.9 321.105,1167.9 323.155,1167.9 325.205,1167.9 327.255,1167.9 329.305,1167.9 331.355,1167.9 333.405,1167.9 335.455,1167.9 337.505,1167.9 339.555,1167.9 341.606,1167.9 343.656,1167.9 345.706,1167.9 347.756,1167.9 349.806,1167.9 351.856,1167.9 353.906,1167.9 355.956,1167.9 358.006,1167.9 360.056,1167.9 362.107,1167.9 364.157,1221.98 366.207,1221.98 368.257,1221.98 370.307,1221.98 372.357,1221.98 374.407,1276.07 376.457,1276.07 378.507,1221.98 380.558,1221.98 382.608,1221.98 384.658,1221.98 386.708,1167.9 388.758,1167.9 390.808,1167.9 392.858,1167.9 394.908,1167.9 396.958,1113.81 399.008,1113.81 401.059,1113.81 403.109,1113.81 405.159,1113.81 407.209,1113.81 409.259,1113.81 411.309,1113.81 413.359,1113.81 415.409,1113.81 417.459,1113.81 419.509,1113.81 421.56,1113.81 423.61,1113.81 425.66,1113.81 427.71,1167.9 429.76,1167.9 431.81,1167.9 433.86,1113.81 435.91,1113.81 437.96,1113.81 440.01,1113.81 442.061,1113.81 444.111,1113.81 446.161,1167.9 448.211,1167.9 450.261,1167.9 452.311,1113.81 454.361,1113.81 456.411,1113.81 458.461,1113.81 460.511,1113.81 462.562,1113.81 464.612,1113.81 466.662,1113.81 468.712,1167.9 470.762,1167.9 472.812,1167.9 474.862,1167.9 476.912,1167.9 478.962,1167.9 481.013,1167.9 483.063,1167.9 485.113,1167.9 487.163,1167.9 489.213,1167.9 491.263,1167.9 493.313,1167.9 495.363,1167.9 497.413,1167.9 499.463,1167.9 501.514,1167.9 503.564,1167.9 505.614,1167.9 507.664,1167.9 509.714,1167.9 511.764,1167.9 513.814,1167.9 515.864,1167.9 517.914,1167.9 519.964,1167.9 522.015,1167.9 524.065,1167.9 526.115,1167.9 528.165,1167.9 530.215,1221.98 532.265,1221.98 534.315,1221.98 536.365,1221.98 538.415,1221.98 540.465,1221.98 542.516,1221.98 544.566,1221.98 546.616,1221.98 548.666,1221.98 550.716,1221.98 552.766,1221.98 554.816,1221.98 556.866,1221.98 558.916,1221.98 560.967,1221.98 563.017,1221.98 565.067,1221.98 567.117,1221.98 569.167,1221.98 571.217,1221.98 573.267,1221.98 575.317,1221.98 577.367,1221.98 579.417,1221.98 581.468,1221.98 583.518,1221.98 585.568,1221.98 587.618,1221.98 589.668,1221.98 591.718,1221.98 593.768,1221.98 595.818,1221.98 597.868,1221.98 599.918,1221.98 601.969,1221.98 604.019,1221.98 606.069,1221.98 608.119,1221.98 610.169,1221.98 612.219,1221.98 614.269,1221.98 616.319,1221.98 618.369,1221.98 620.419,1221.98 622.47,1221.98 624.52,1221.98 626.57,1221.98 628.62,1221.98 630.67,1221.98 632.72,1221.98 634.77,1221.98 636.82,1221.98 638.87,1221.98 640.92,1221.98 642.971,1221.98 645.021,1221.98 647.071,1221.98 649.121,1221.98 651.171,1221.98 653.221,1221.98 655.271,1221.98 657.321,1221.98 659.371,1221.98 661.422,1221.98 663.472,1221.98 665.522,1221.98 667.572,1221.98 669.622,1221.98 671.672,1221.98 673.722,1221.98 675.772,1221.98 677.822,1221.98 679.872,1221.98 681.923,1221.98 683.973,1221.98 686.023,1221.98 688.073,1221.98 690.123,1276.07 692.173,1276.07 694.223,1276.07 696.273,1276.07 698.323,1276.07 700.373,1276.07 702.424,1276.07 704.474,1276.07 706.524,1276.07 708.574,1276.07 710.624,1276.07 712.674,1330.15 714.724,1330.15 716.774,1330.15 718.824,1330.15 720.874,1330.15 722.925,1330.15 724.975,1330.15 727.025,1330.15 729.075,1330.15 731.125,1330.15 733.175,1330.15 735.225,1330.15 737.275,1330.15 739.325,1330.15 741.376,1330.15 743.426,1330.15 745.476,1330.15 747.526,1330.15 749.576,1330.15 751.626,1330.15 753.676,1330.15 755.726,1330.15 757.776,1330.15 759.826,1330.15 761.877,1330.15 763.927,1330.15 765.977,1330.15 768.027,1330.15 770.077,1330.15 772.127,1330.15 774.177,1330.15 776.227,1330.15 778.277,1330.15 780.327,1330.15 782.378,1330.15 784.428,1330.15 786.478,1330.15 788.528,1330.15 790.578,1330.15 792.628,1330.15 794.678,1330.15 796.728,1330.15 798.778,1330.15 800.828,1330.15 802.879,1330.15 804.929,1330.15 806.979,1330.15 809.029,1330.15 811.079,1330.15 813.129,1330.15 815.179,1330.15 817.229,1330.15 819.279,1330.15 821.329,1330.15 823.38,1330.15 825.43,1330.15 827.48,1330.15 829.53,1330.15 831.58,1330.15 833.63,1330.15 835.68,1330.15 837.73,1330.15 839.78,1330.15 841.831,1330.15 843.881,1330.15 845.931,1330.15 847.981,1330.15 850.031,1330.15 852.081,1276.07 854.131,1276.07 856.181,1276.07 858.231,1276.07 860.281,1276.07 862.332,1276.07 864.382,1276.07 866.432,1276.07 868.482,1276.07 870.532,1276.07 872.582,1276.07 874.632,1276.07 876.682,1276.07 878.732,1276.07 880.782,1276.07 882.833,1276.07 884.883,1276.07 886.933,1276.07 888.983,1276.07 891.033,1276.07 893.083,1276.07 895.133,1330.15 897.183,1330.15 899.233,1330.15 901.283,1330.15 903.334,1330.15 905.384,1330.15 907.434,1330.15 909.484,1330.15 911.534,1330.15 913.584,1330.15 915.634,1330.15 917.684,1276.07 919.734,1276.07 921.785,1276.07 923.835,1276.07 925.885,1276.07 927.935,1276.07 929.985,1276.07 932.035,1276.07 934.085,1276.07 936.135,1276.07 938.185,1276.07 940.235,1276.07 942.286,1276.07 944.336,1276.07 946.386,1276.07 948.436,1276.07 950.486,1276.07 952.536,1276.07 954.586,1276.07 956.636,1276.07 958.686,1276.07 960.736,1276.07 962.787,1276.07 964.837,1276.07 966.887,1276.07 968.937,1276.07 970.987,1276.07 973.037,1276.07 975.087,1276.07 977.137,1276.07 979.187,1276.07 981.237,1276.07 983.288,1276.07 985.338,1276.07 987.388,1276.07 989.438,1276.07 991.488,1276.07 993.538,1276.07 995.588,1276.07 997.638,1276.07 999.688,1330.15 1001.74,1330.15 1003.79,1330.15 1005.84,1330.15 1007.89,1330.15 1009.94,1330.15 1011.99,1330.15 1014.04,1330.15 1016.09,1330.15 1018.14,1330.15 1020.19,1330.15 1022.24,1330.15 1024.29,1330.15 1026.34,1330.15 1028.39,1330.15 1030.44,1330.15 1032.49,1330.15 1034.54,1330.15 1036.59,1330.15 1038.64,1330.15 1040.69,1330.15 1042.74,1276.07 1044.79,1276.07 1046.84,1221.98 1048.89,1221.98 1050.94,1221.98 1052.99,1276.07 1055.04,1276.07 1057.09,1276.07 1059.14,1276.07 1061.19,1276.07 1063.24,1276.07 1065.29,1276.07 1067.34,1276.07 1069.39,1276.07 1071.44,1276.07 1073.49,1276.07 1075.54,1276.07 1077.59,1276.07 1079.64,1276.07 1081.69,1330.15 1083.74,1330.15 1085.79,1330.15 1087.84,1330.15 1089.89,1330.15 1091.94,1330.15 1093.99,1330.15 1096.04,1330.15 1098.09,1330.15 1100.14,1330.15 1102.19,1330.15 1104.24,1330.15 1106.29,1330.15 1108.34,1330.15 1110.39,1330.15 1112.44,1330.15 1114.49,1330.15 1116.54,1330.15 1118.59,1330.15 1120.64,1330.15 1122.69,1330.15 1124.74,1330.15 1126.79,1330.15 1128.84,1330.15 1130.89,1330.15 1132.95,1330.15 1135,1330.15 1137.05,1330.15 1139.1,1330.15 1141.15,1330.15 1143.2,1330.15 1145.25,1330.15 1147.3,1330.15 1149.35,1330.15 1151.4,1330.15 1153.45,1330.15 1155.5,1330.15 1157.55,1330.15 1159.6,1330.15 1161.65,1330.15 1163.7,1330.15 1165.75,1330.15 1167.8,1330.15 1169.85,1330.15 1171.9,1330.15 1173.95,1330.15 1176,1330.15 1178.05,1330.15 1180.1,1330.15 1182.15,1330.15 1184.2,1330.15 1186.25,1330.15 1188.3,1330.15 1190.35,1330.15 1192.4,1330.15 1194.45,1330.15 1196.5,1330.15 1198.55,1330.15 1200.6,1330.15 1202.65,1330.15 1204.7,1276.07 1206.75,1276.07 1208.8,1276.07 1210.85,1276.07 1212.9,1276.07 1214.95,1276.07 1217,1276.07 1219.05,1276.07 1221.1,1276.07 1223.15,1276.07 1225.2,1276.07 1227.25,1276.07 1229.3,1276.07 1231.35,1276.07 1233.4,1276.07 1235.45,1276.07 1237.5,1276.07 1239.55,1276.07 1241.6,1276.07 1243.65,1276.07 1245.7,1276.07 1247.75,1276.07 1249.8,1276.07 1251.85,1276.07 1253.9,1276.07 1255.95,1276.07 1258,1276.07 1260.05,1276.07 1262.1,1276.07 1264.15,1276.07 1266.2,1276.07 1268.25,1276.07 1270.3,1276.07 1272.35,1276.07 1274.4,1276.07 1276.45,1276.07 1278.5,1276.07 1280.55,1276.07 1282.6,1276.07 1284.65,1276.07 1286.7,1276.07 1288.75,1276.07 1290.8,1276.07 1292.85,1221.98 1294.9,1221.98 1296.95,1221.98 1299,1221.98 1301.05,1221.98 1303.1,1221.98 1305.15,1221.98 1307.2,1221.98 1309.25,1221.98 1311.3,1221.98 1313.35,1221.98 1315.4,1221.98 1317.45,1167.9 1319.5,1167.9 1321.55,1167.9 1323.6,1167.9 1325.65,1167.9 1327.7,1167.9 1329.75,1167.9 1331.8,1167.9 1333.86,1167.9 1335.91,1167.9 1337.96,1167.9 1340.01,1167.9 1342.06,1167.9 1344.11,1167.9 1346.16,1167.9 1348.21,1113.81 1350.26,1113.81 1352.31,1113.81 1354.36,1113.81 1356.41,1113.81 1358.46,1113.81 1360.51,1167.9 1362.56,1167.9 1364.61,1167.9 1366.66,1167.9 1368.71,1167.9 1370.76,1167.9 1372.81,1167.9 1374.86,1167.9 1376.91,1167.9 1378.96,1167.9 1381.01,1167.9 1383.06,1167.9 1385.11,1167.9 1387.16,1167.9 1389.21,1167.9 1391.26,1167.9 1393.31,1167.9 1395.36,1167.9 1397.41,1167.9 1399.46,1167.9 1401.51,1167.9 1403.56,1167.9 1405.61,1167.9 1407.66,1167.9 1409.71,1221.98 1411.76,1221.98 1413.81,1221.98 1415.86,1221.98 1417.91,1221.98 1419.96,1221.98 1422.01,1221.98 1424.06,1221.98 1426.11,1276.07 1428.16,1221.98 1430.21,1221.98 1432.26,1221.98 1434.31,1221.98 1436.36,1221.98 1438.41,1221.98 1440.46,1221.98 1442.51,1221.98 1444.56,1221.98 1446.61,1221.98 1448.66,1221.98 1450.71,1221.98 1452.76,1221.98 1454.81,1276.07 1456.86,1276.07 1458.91,1276.07 1460.96,1276.07 1463.01,1276.07 1465.06,1276.07 1467.11,1221.98 1469.16,1276.07 1471.21,1276.07 1473.26,1276.07 1475.31,1276.07 1477.36,1276.07 1479.41,1276.07 1481.46,1276.07 1483.51,1276.07 1485.56,1276.07 1487.61,1276.07 1489.66,1276.07 1491.71,1276.07 1493.76,1276.07 1495.81,1221.98 1497.86,1221.98 1499.91,1221.98 1501.96,1221.98 1504.01,1221.98 1506.06,1221.98 1508.11,1221.98 1510.16,1221.98 1512.21,1221.98 1514.26,1221.98 1516.31,1221.98 1518.36,1221.98 1520.41,1221.98 1522.46,1221.98 1524.51,1221.98 1526.56,1221.98 1528.61,1276.07 1530.66,1276.07 1532.71,1276.07 1534.77,1276.07 1536.82,1276.07 1538.87,1276.07 1540.92,1276.07 1542.97,1276.07 1545.02,1276.07 1547.07,1276.07 1549.12,1276.07 1551.17,1276.07 1553.22,1276.07 1555.27,1276.07 1557.32,1276.07 1559.37,1276.07 1561.42,1276.07 1563.47,1276.07 1565.52,1276.07 1567.57,1276.07 1569.62,1276.07 1571.67,1276.07 1573.72,1276.07 1575.77,1276.07 1577.82,1276.07 1579.87,1276.07 1581.92,1276.07 1583.97,1276.07 1586.02,1276.07 1588.07,1276.07 1590.12,1276.07 1592.17,1276.07 1594.22,1276.07 1596.27,1276.07 1598.32,1276.07 1600.37,1276.07 1602.42,1276.07 1604.47,1276.07 1606.52,1276.07 1608.57,1276.07 1610.62,1276.07 1612.67,1276.07 1614.72,1276.07 1616.77,1276.07 1618.82,1276.07 1620.87,1276.07 1622.92,1276.07 1624.97,1276.07 1627.02,1276.07 1629.07,1276.07 1631.12,1276.07 1633.17,1276.07 1635.22,1276.07 1637.27,1276.07 1639.32,1276.07 1641.37,1276.07 1643.42,1276.07 1645.47,1276.07 1647.52,1276.07 1649.57,1276.07 1651.62,1276.07 1653.67,1276.07 1655.72,1276.07 1657.77,1276.07 1659.82,1276.07 1661.87,1276.07 1663.92,1276.07 1665.97,1276.07 1668.02,1276.07 1670.07,1276.07 1672.12,1276.07 1674.17,1276.07 1676.22,1276.07 1678.27,1276.07 1680.32,1276.07 1682.37,1276.07 1684.42,1276.07 1686.47,1276.07 1688.52,1276.07 1690.57,1276.07 1692.62,1276.07 1694.67,1276.07 1696.72,1276.07 1698.77,1276.07 1700.82,1276.07 1702.87,1276.07 1704.92,1276.07 1706.97,1276.07 1709.02,1276.07 1711.07,1276.07 1713.12,1276.07 1715.17,1276.07 1717.22,1276.07 1719.27,1276.07 1721.32,1276.07 1723.37,1276.07 1725.42,1276.07 1727.47,1276.07 1729.52,1276.07 1731.57,1276.07 1733.63,1276.07 1735.68,1276.07 1737.73,1276.07 1739.78,1276.07 1741.83,1276.07 1743.88,1276.07 1745.93,1276.07 1747.98,1276.07 1750.03,1330.15 1752.08,1330.15 1754.13,1330.15 1756.18,1330.15 1758.23,1330.15 1760.28,1330.15 1762.33,1330.15 1764.38,1330.15 1766.43,1330.15 1768.48,1330.15 1770.53,1330.15 1772.58,1330.15 1774.63,1330.15 1776.68,1330.15 1778.73,1330.15 1780.78,1330.15 1782.83,1330.15 1784.88,1330.15 1786.93,1330.15 1788.98,1330.15 1791.03,1330.15 1793.08,1330.15 1795.13,1330.15 1797.18,1330.15 1799.23,1330.15 1801.28,1330.15 1803.33,1330.15 1805.38,1330.15 1807.43,1330.15 1809.48,1330.15 1811.53,1330.15 1813.58,1330.15 1815.63,1330.15 1817.68,1330.15 1819.73,1330.15 1821.78,1330.15 1823.83,1330.15 1825.88,1330.15 1827.93,1330.15 1829.98,1330.15 1832.03,1330.15 1834.08,1330.15 1836.13,1330.15 1838.18,1330.15 1840.23,1330.15 1842.28,1330.15 1844.33,1330.15 1846.38,1330.15 1848.43,1330.15 1850.48,1330.15 1852.53,1330.15 1854.58,1330.15 1856.63,1330.15 1858.68,1330.15 1860.73,1330.15 1862.78,1330.15 1864.83,1330.15 1866.88,1330.15 1868.93,1330.15 1870.98,1330.15 1873.03,1330.15 1875.08,1330.15 1877.13,1330.15 1879.18,1330.15 1881.23,1330.15 1883.28,1330.15 1885.33,1330.15 1887.38,1330.15 1889.43,1330.15 1891.48,1330.15 1893.53,1330.15 1895.58,1330.15 1897.63,1330.15 1899.68,1330.15 1901.73,1330.15 1903.78,1330.15 1905.83,1330.15 1907.88,1330.15 1909.93,1330.15 1911.98,1330.15 1914.03,1330.15 1916.08,1330.15 1918.13,1330.15 1920.18,1330.15 1922.23,1330.15 1924.28,1330.15 1926.33,1330.15 1928.38,1330.15 1930.43,1330.15 1932.48,1330.15 1934.54,1330.15 1936.59,1330.15 1938.64,1330.15 1940.69,1330.15 1942.74,1330.15 1944.79,1330.15 1946.84,1330.15 1948.89,1330.15 1950.94,1330.15 1952.99,1330.15 1955.04,1330.15 1957.09,1330.15 1959.14,1330.15 1961.19,1330.15 1963.24,1330.15 1965.29,1330.15 1967.34,1330.15 1969.39,1276.07 1971.44,1276.07 1973.49,1276.07 1975.54,1276.07 1977.59,1276.07 1979.64,1276.07 1981.69,1276.07 1983.74,1276.07 1985.79,1276.07 1987.84,1276.07 1989.89,1276.07 1991.94,1276.07 1993.99,1276.07 1996.04,1276.07 1998.09,1276.07 2000.14,1276.07 2002.19,1276.07 2004.24,1276.07 2006.29,1276.07 2008.34,1276.07 2010.39,1276.07 2012.44,1276.07 2014.49,1276.07 2016.54,1276.07 2018.59,1276.07 2020.64,1276.07 2022.69,1276.07 2024.74,1276.07 2026.79,1276.07 2028.84,1276.07 2030.89,1276.07 2032.94,1276.07 2034.99,1276.07 2037.04,1276.07 2039.09,1276.07 2041.14,1276.07 2043.19,1276.07 2045.24,1276.07 2047.29,1276.07 2049.34,1276.07 2051.39,1276.07 2053.44,1276.07 2055.49,1276.07 2057.54,1276.07 2059.59,1330.15 2061.64,1330.15 2063.69,1330.15 2065.74,1330.15 2067.79,1330.15 2069.84,1330.15 2071.89,1330.15 2073.94,1384.24 2075.99,1384.24 2078.04,1384.24 2080.09,1384.24 2082.14,1384.24 2084.19,1384.24 2086.24,1384.24 2088.29,1384.24 2090.34,1384.24 2092.39,1384.24 2094.44,1384.24 2096.49,1384.24 2098.54,1384.24 2100.59,1384.24 2102.64,1384.24 2104.69,1384.24 2106.74,1384.24 2108.79,1384.24 2110.84,1384.24 2112.89,1384.24 2114.94,1384.24 2116.99,1384.24 2119.04,1384.24 2121.09,1384.24 2123.14,1384.24 2125.19,1384.24 2127.24,1384.24 2129.29,1384.24 2131.34,1384.24 2133.39,1384.24 2135.45,1384.24 2137.5,1384.24 2139.55,1384.24 2141.6,1330.15 2143.65,1330.15 2145.7,1330.15 2147.75,1330.15 2149.8,1330.15 2151.85,1330.15 2153.9,1330.15 2155.95,1330.15 2158,1330.15 2160.05,1330.15 2162.1,1330.15 2164.15,1330.15 2166.2,1330.15 2168.25,1330.15 2170.3,1330.15 2172.35,1330.15 2174.4,1330.15 2176.45,1330.15 2178.5,1330.15 2180.55,1330.15 2182.6,1330.15 2184.65,1330.15 2186.7,1330.15 2188.75,1330.15 2190.8,1330.15 2192.85,1330.15 2194.9,1330.15 2196.95,1330.15 2199,1330.15 2201.05,1330.15 2203.1,1330.15 2205.15,1330.15 2207.2,1330.15 2209.25,1330.15 2211.3,1330.15 2213.35,1330.15 2215.4,1330.15 2217.45,1330.15 2219.5,1330.15 2221.55,1330.15 2223.6,1330.15 2225.65,1330.15 2227.7,1330.15 2229.75,1330.15 2231.8,1330.15 2233.85,1330.15 2235.9,1330.15 2237.95,1330.15 2240,1330.15 2242.05,1330.15 2244.1,1330.15 2246.15,1330.15 2248.2,1330.15 2250.25,1330.15 2252.3,1330.15 2254.35,1330.15 2256.4,1330.15 2258.45,1330.15 2260.5,1276.07 2262.55,1276.07 2264.6,1276.07 2266.65,1276.07 2268.7,1276.07 2270.75,1276.07 2272.8,1276.07 2274.85,1276.07 2276.9,1276.07 2278.95,1276.07 2281,1276.07 2283.05,1276.07 2285.1,1276.07 2287.15,1276.07 2289.2,1276.07 2291.25,1276.07 2293.3,1276.07 2295.35,1276.07 2297.4,1276.07 2299.45,1276.07 2301.5,1276.07 2303.55,1276.07 2305.6,1276.07 2307.65,1276.07 2309.7,1276.07 2311.75,1276.07 2313.8,1276.07 2315.85,1276.07 2317.9,1276.07 2319.95,1276.07 2322,1276.07 2324.05,1276.07 2326.1,1276.07 2328.15,1276.07 2330.2,1276.07 2332.25,1276.07 2334.3,1276.07 2336.36,1276.07 2338.41,1276.07 2340.46,1276.07 2342.51,1276.07 2344.56,1276.07 2346.61,1276.07 2348.66,1276.07 2350.71,1276.07 2352.76,1276.07 "/>
<polyline clip-path="url(#clip012)" style="stroke:#e26f46; stroke-linecap:round; stroke-linejoin:round; stroke-width:8; stroke-opacity:1; fill:none" points="140.696,1384.24 142.746,1384.24 144.796,1384.24 146.846,1384.24 148.896,1384.24 150.946,1384.24 152.996,1384.24 155.046,1384.24 157.096,1384.24 159.146,1384.24 161.197,1384.24 163.247,1384.24 165.297,1384.24 167.347,1384.24 169.397,1384.24 171.447,1384.24 173.497,1384.24 175.547,1384.24 177.597,1384.24 179.647,1384.24 181.698,1384.24 183.748,1384.24 185.798,1384.24 187.848,1384.24 189.898,1384.24 191.948,1384.24 193.998,1384.24 196.048,1384.24 198.098,1384.24 200.149,1384.24 202.199,1384.24 204.249,1330.15 206.299,1330.15 208.349,1330.15 210.399,1330.15 212.449,1330.15 214.499,1330.15 216.549,1330.15 218.599,1330.15 220.65,1330.15 222.7,1330.15 224.75,1330.15 226.8,1330.15 228.85,1330.15 230.9,1330.15 232.95,1330.15 235,1330.15 237.05,1330.15 239.1,1330.15 241.151,1330.15 243.201,1330.15 245.251,1330.15 247.301,1330.15 249.351,1330.15 251.401,1330.15 253.451,1330.15 255.501,1330.15 257.551,1330.15 259.601,1330.15 261.652,1330.15 263.702,1330.15 265.752,1330.15 267.802,1330.15 269.852,1330.15 271.902,1330.15 273.952,1330.15 276.002,1330.15 278.052,1330.15 280.102,1330.15 282.153,1330.15 284.203,1330.15 286.253,1330.15 288.303,1330.15 290.353,1330.15 292.403,1330.15 294.453,1330.15 296.503,1276.07 298.553,1221.98 300.604,1221.98 302.654,1221.98 304.704,1221.98 306.754,1221.98 308.804,1221.98 310.854,1221.98 312.904,1221.98 314.954,1221.98 317.004,1221.98 319.054,1221.98 321.105,1221.98 323.155,1221.98 325.205,1221.98 327.255,1221.98 329.305,1221.98 331.355,1221.98 333.405,1221.98 335.455,1221.98 337.505,1221.98 339.555,1221.98 341.606,1221.98 343.656,1221.98 345.706,1221.98 347.756,1221.98 349.806,1221.98 351.856,1221.98 353.906,1221.98 355.956,1221.98 358.006,1221.98 360.056,1221.98 362.107,1221.98 364.157,1167.9 366.207,1167.9 368.257,1167.9 370.307,1167.9 372.357,1167.9 374.407,1113.81 376.457,1113.81 378.507,1113.81 380.558,1113.81 382.608,1113.81 384.658,1113.81 386.708,1113.81 388.758,1113.81 390.808,1113.81 392.858,1113.81 394.908,1113.81 396.958,1113.81 399.008,1113.81 401.059,1113.81 403.109,1113.81 405.159,1113.81 407.209,1113.81 409.259,1113.81 411.309,1113.81 413.359,1113.81 415.409,1113.81 417.459,1113.81 419.509,1113.81 421.56,1113.81 423.61,1113.81 425.66,1113.81 427.71,1059.73 429.76,1059.73 431.81,1059.73 433.86,1059.73 435.91,1059.73 437.96,1059.73 440.01,1059.73 442.061,1059.73 444.111,1059.73 446.161,1005.64 448.211,1005.64 450.261,1005.64 452.311,1005.64 454.361,1005.64 456.411,1005.64 458.461,1005.64 460.511,1005.64 462.562,1005.64 464.612,1005.64 466.662,1005.64 468.712,951.554 470.762,951.554 472.812,951.554 474.862,951.554 476.912,951.554 478.962,951.554 481.013,951.554 483.063,951.554 485.113,951.554 487.163,951.554 489.213,951.554 491.263,951.554 493.313,951.554 495.363,951.554 497.413,951.554 499.463,951.554 501.514,951.554 503.564,951.554 505.614,951.554 507.664,951.554 509.714,951.554 511.764,951.554 513.814,951.554 515.864,951.554 517.914,951.554 519.964,951.554 522.015,951.554 524.065,951.554 526.115,951.554 528.165,951.554 530.215,897.469 532.265,897.469 534.315,897.469 536.365,897.469 538.415,897.469 540.465,897.469 542.516,897.469 544.566,897.469 546.616,897.469 548.666,897.469 550.716,897.469 552.766,897.469 554.816,897.469 556.866,897.469 558.916,897.469 560.967,897.469 563.017,897.469 565.067,897.469 567.117,897.469 569.167,897.469 571.217,897.469 573.267,897.469 575.317,897.469 577.367,897.469 579.417,897.469 581.468,897.469 583.518,897.469 585.568,897.469 587.618,897.469 589.668,897.469 591.718,897.469 593.768,897.469 595.818,897.469 597.868,897.469 599.918,897.469 601.969,897.469 604.019,897.469 606.069,897.469 608.119,897.469 610.169,897.469 612.219,897.469 614.269,897.469 616.319,897.469 618.369,897.469 620.419,897.469 622.47,897.469 624.52,897.469 626.57,897.469 628.62,897.469 630.67,897.469 632.72,897.469 634.77,897.469 636.82,897.469 638.87,897.469 640.92,897.469 642.971,897.469 645.021,897.469 647.071,897.469 649.121,897.469 651.171,897.469 653.221,897.469 655.271,897.469 657.321,897.469 659.371,897.469 661.422,897.469 663.472,897.469 665.522,897.469 667.572,897.469 669.622,897.469 671.672,897.469 673.722,897.469 675.772,897.469 677.822,897.469 679.872,897.469 681.923,897.469 683.973,897.469 686.023,897.469 688.073,897.469 690.123,843.383 692.173,843.383 694.223,843.383 696.273,843.383 698.323,843.383 700.373,843.383 702.424,843.383 704.474,843.383 706.524,843.383 708.574,843.383 710.624,843.383 712.674,789.297 714.724,789.297 716.774,789.297 718.824,789.297 720.874,789.297 722.925,789.297 724.975,789.297 727.025,789.297 729.075,789.297 731.125,789.297 733.175,789.297 735.225,789.297 737.275,789.297 739.325,789.297 741.376,789.297 743.426,789.297 745.476,789.297 747.526,789.297 749.576,789.297 751.626,789.297 753.676,789.297 755.726,789.297 757.776,789.297 759.826,789.297 761.877,789.297 763.927,789.297 765.977,789.297 768.027,789.297 770.077,789.297 772.127,789.297 774.177,789.297 776.227,789.297 778.277,789.297 780.327,789.297 782.378,789.297 784.428,789.297 786.478,789.297 788.528,789.297 790.578,789.297 792.628,789.297 794.678,789.297 796.728,789.297 798.778,789.297 800.828,789.297 802.879,789.297 804.929,789.297 806.979,789.297 809.029,789.297 811.079,789.297 813.129,789.297 815.179,789.297 817.229,789.297 819.279,789.297 821.329,789.297 823.38,789.297 825.43,789.297 827.48,789.297 829.53,789.297 831.58,789.297 833.63,789.297 835.68,789.297 837.73,789.297 839.78,789.297 841.831,789.297 843.881,789.297 845.931,789.297 847.981,789.297 850.031,789.297 852.081,789.297 854.131,789.297 856.181,789.297 858.231,789.297 860.281,789.297 862.332,789.297 864.382,789.297 866.432,789.297 868.482,789.297 870.532,789.297 872.582,789.297 874.632,789.297 876.682,789.297 878.732,789.297 880.782,789.297 882.833,789.297 884.883,789.297 886.933,789.297 888.983,789.297 891.033,789.297 893.083,789.297 895.133,735.212 897.183,735.212 899.233,735.212 901.283,735.212 903.334,735.212 905.384,735.212 907.434,735.212 909.484,735.212 911.534,735.212 913.584,735.212 915.634,735.212 917.684,735.212 919.734,735.212 921.785,735.212 923.835,735.212 925.885,735.212 927.935,735.212 929.985,735.212 932.035,735.212 934.085,735.212 936.135,735.212 938.185,735.212 940.235,735.212 942.286,735.212 944.336,735.212 946.386,735.212 948.436,735.212 950.486,735.212 952.536,735.212 954.586,735.212 956.636,735.212 958.686,735.212 960.736,735.212 962.787,735.212 964.837,735.212 966.887,735.212 968.937,735.212 970.987,735.212 973.037,735.212 975.087,735.212 977.137,735.212 979.187,735.212 981.237,735.212 983.288,735.212 985.338,735.212 987.388,735.212 989.438,735.212 991.488,735.212 993.538,735.212 995.588,735.212 997.638,735.212 999.688,681.126 1001.74,681.126 1003.79,681.126 1005.84,681.126 1007.89,681.126 1009.94,681.126 1011.99,681.126 1014.04,681.126 1016.09,681.126 1018.14,681.126 1020.19,681.126 1022.24,681.126 1024.29,681.126 1026.34,681.126 1028.39,681.126 1030.44,681.126 1032.49,681.126 1034.54,681.126 1036.59,681.126 1038.64,681.126 1040.69,681.126 1042.74,681.126 1044.79,681.126 1046.84,681.126 1048.89,681.126 1050.94,681.126 1052.99,627.041 1055.04,627.041 1057.09,627.041 1059.14,627.041 1061.19,627.041 1063.24,627.041 1065.29,627.041 1067.34,627.041 1069.39,627.041 1071.44,627.041 1073.49,627.041 1075.54,627.041 1077.59,627.041 1079.64,627.041 1081.69,572.955 1083.74,572.955 1085.79,572.955 1087.84,572.955 1089.89,572.955 1091.94,572.955 1093.99,572.955 1096.04,572.955 1098.09,572.955 1100.14,572.955 1102.19,572.955 1104.24,572.955 1106.29,572.955 1108.34,572.955 1110.39,572.955 1112.44,572.955 1114.49,572.955 1116.54,572.955 1118.59,572.955 1120.64,572.955 1122.69,572.955 1124.74,572.955 1126.79,572.955 1128.84,572.955 1130.89,572.955 1132.95,572.955 1135,572.955 1137.05,572.955 1139.1,572.955 1141.15,572.955 1143.2,572.955 1145.25,572.955 1147.3,572.955 1149.35,572.955 1151.4,572.955 1153.45,572.955 1155.5,572.955 1157.55,572.955 1159.6,572.955 1161.65,572.955 1163.7,572.955 1165.75,572.955 1167.8,572.955 1169.85,572.955 1171.9,572.955 1173.95,572.955 1176,572.955 1178.05,572.955 1180.1,572.955 1182.15,572.955 1184.2,572.955 1186.25,572.955 1188.3,572.955 1190.35,572.955 1192.4,572.955 1194.45,572.955 1196.5,572.955 1198.55,572.955 1200.6,572.955 1202.65,572.955 1204.7,572.955 1206.75,572.955 1208.8,572.955 1210.85,572.955 1212.9,572.955 1214.95,572.955 1217,572.955 1219.05,572.955 1221.1,572.955 1223.15,572.955 1225.2,572.955 1227.25,572.955 1229.3,572.955 1231.35,572.955 1233.4,572.955 1235.45,572.955 1237.5,572.955 1239.55,572.955 1241.6,572.955 1243.65,572.955 1245.7,572.955 1247.75,572.955 1249.8,572.955 1251.85,572.955 1253.9,572.955 1255.95,572.955 1258,572.955 1260.05,572.955 1262.1,572.955 1264.15,572.955 1266.2,572.955 1268.25,572.955 1270.3,572.955 1272.35,572.955 1274.4,572.955 1276.45,572.955 1278.5,572.955 1280.55,572.955 1282.6,572.955 1284.65,572.955 1286.7,572.955 1288.75,572.955 1290.8,572.955 1292.85,572.955 1294.9,572.955 1296.95,572.955 1299,572.955 1301.05,572.955 1303.1,572.955 1305.15,572.955 1307.2,572.955 1309.25,572.955 1311.3,572.955 1313.35,572.955 1315.4,572.955 1317.45,572.955 1319.5,572.955 1321.55,572.955 1323.6,572.955 1325.65,572.955 1327.7,572.955 1329.75,572.955 1331.8,572.955 1333.86,572.955 1335.91,572.955 1337.96,572.955 1340.01,572.955 1342.06,572.955 1344.11,572.955 1346.16,572.955 1348.21,572.955 1350.26,572.955 1352.31,572.955 1354.36,572.955 1356.41,572.955 1358.46,572.955 1360.51,518.87 1362.56,518.87 1364.61,518.87 1366.66,518.87 1368.71,518.87 1370.76,518.87 1372.81,518.87 1374.86,518.87 1376.91,518.87 1378.96,518.87 1381.01,518.87 1383.06,518.87 1385.11,518.87 1387.16,518.87 1389.21,518.87 1391.26,518.87 1393.31,518.87 1395.36,518.87 1397.41,518.87 1399.46,518.87 1401.51,518.87 1403.56,518.87 1405.61,518.87 1407.66,518.87 1409.71,464.784 1411.76,464.784 1413.81,464.784 1415.86,464.784 1417.91,464.784 1419.96,464.784 1422.01,464.784 1424.06,464.784 1426.11,410.699 1428.16,410.699 1430.21,410.699 1432.26,410.699 1434.31,410.699 1436.36,410.699 1438.41,410.699 1440.46,410.699 1442.51,410.699 1444.56,410.699 1446.61,410.699 1448.66,410.699 1450.71,410.699 1452.76,410.699 1454.81,356.613 1456.86,356.613 1458.91,356.613 1460.96,356.613 1463.01,356.613 1465.06,356.613 1467.11,356.613 1469.16,302.528 1471.21,302.528 1473.26,302.528 1475.31,302.528 1477.36,302.528 1479.41,302.528 1481.46,302.528 1483.51,302.528 1485.56,302.528 1487.61,302.528 1489.66,302.528 1491.71,302.528 1493.76,302.528 1495.81,302.528 1497.86,302.528 1499.91,302.528 1501.96,302.528 1504.01,302.528 1506.06,302.528 1508.11,302.528 1510.16,302.528 1512.21,302.528 1514.26,302.528 1516.31,302.528 1518.36,302.528 1520.41,302.528 1522.46,302.528 1524.51,302.528 1526.56,302.528 1528.61,248.442 1530.66,248.442 1532.71,248.442 1534.77,248.442 1536.82,248.442 1538.87,248.442 1540.92,248.442 1542.97,248.442 1545.02,248.442 1547.07,248.442 1549.12,248.442 1551.17,248.442 1553.22,248.442 1555.27,248.442 1557.32,248.442 1559.37,248.442 1561.42,248.442 1563.47,248.442 1565.52,248.442 1567.57,248.442 1569.62,248.442 1571.67,248.442 1573.72,248.442 1575.77,248.442 1577.82,248.442 1579.87,248.442 1581.92,248.442 1583.97,248.442 1586.02,248.442 1588.07,248.442 1590.12,248.442 1592.17,248.442 1594.22,248.442 1596.27,248.442 1598.32,248.442 1600.37,248.442 1602.42,248.442 1604.47,248.442 1606.52,248.442 1608.57,248.442 1610.62,248.442 1612.67,248.442 1614.72,248.442 1616.77,248.442 1618.82,248.442 1620.87,248.442 1622.92,248.442 1624.97,248.442 1627.02,248.442 1629.07,248.442 1631.12,248.442 1633.17,248.442 1635.22,248.442 1637.27,248.442 1639.32,248.442 1641.37,248.442 1643.42,248.442 1645.47,248.442 1647.52,248.442 1649.57,248.442 1651.62,248.442 1653.67,248.442 1655.72,248.442 1657.77,248.442 1659.82,248.442 1661.87,248.442 1663.92,248.442 1665.97,248.442 1668.02,248.442 1670.07,248.442 1672.12,248.442 1674.17,248.442 1676.22,248.442 1678.27,248.442 1680.32,248.442 1682.37,248.442 1684.42,248.442 1686.47,248.442 1688.52,248.442 1690.57,248.442 1692.62,248.442 1694.67,248.442 1696.72,248.442 1698.77,248.442 1700.82,248.442 1702.87,248.442 1704.92,248.442 1706.97,248.442 1709.02,248.442 1711.07,248.442 1713.12,248.442 1715.17,248.442 1717.22,248.442 1719.27,248.442 1721.32,248.442 1723.37,248.442 1725.42,248.442 1727.47,248.442 1729.52,248.442 1731.57,248.442 1733.63,248.442 1735.68,248.442 1737.73,248.442 1739.78,248.442 1741.83,248.442 1743.88,248.442 1745.93,248.442 1747.98,248.442 1750.03,194.357 1752.08,194.357 1754.13,194.357 1756.18,194.357 1758.23,194.357 1760.28,194.357 1762.33,194.357 1764.38,194.357 1766.43,194.357 1768.48,194.357 1770.53,194.357 1772.58,194.357 1774.63,194.357 1776.68,194.357 1778.73,194.357 1780.78,194.357 1782.83,194.357 1784.88,194.357 1786.93,194.357 1788.98,194.357 1791.03,194.357 1793.08,194.357 1795.13,194.357 1797.18,194.357 1799.23,194.357 1801.28,194.357 1803.33,194.357 1805.38,194.357 1807.43,194.357 1809.48,194.357 1811.53,194.357 1813.58,194.357 1815.63,194.357 1817.68,194.357 1819.73,194.357 1821.78,194.357 1823.83,194.357 1825.88,194.357 1827.93,194.357 1829.98,194.357 1832.03,194.357 1834.08,194.357 1836.13,194.357 1838.18,194.357 1840.23,194.357 1842.28,194.357 1844.33,194.357 1846.38,194.357 1848.43,194.357 1850.48,194.357 1852.53,194.357 1854.58,194.357 1856.63,194.357 1858.68,194.357 1860.73,194.357 1862.78,194.357 1864.83,194.357 1866.88,194.357 1868.93,194.357 1870.98,194.357 1873.03,194.357 1875.08,194.357 1877.13,194.357 1879.18,194.357 1881.23,194.357 1883.28,194.357 1885.33,194.357 1887.38,194.357 1889.43,194.357 1891.48,194.357 1893.53,194.357 1895.58,194.357 1897.63,194.357 1899.68,194.357 1901.73,194.357 1903.78,194.357 1905.83,194.357 1907.88,194.357 1909.93,194.357 1911.98,194.357 1914.03,194.357 1916.08,194.357 1918.13,194.357 1920.18,194.357 1922.23,194.357 1924.28,194.357 1926.33,194.357 1928.38,194.357 1930.43,194.357 1932.48,194.357 1934.54,194.357 1936.59,194.357 1938.64,194.357 1940.69,194.357 1942.74,194.357 1944.79,194.357 1946.84,194.357 1948.89,194.357 1950.94,194.357 1952.99,194.357 1955.04,194.357 1957.09,194.357 1959.14,194.357 1961.19,194.357 1963.24,194.357 1965.29,194.357 1967.34,194.357 1969.39,194.357 1971.44,194.357 1973.49,194.357 1975.54,194.357 1977.59,194.357 1979.64,194.357 1981.69,194.357 1983.74,194.357 1985.79,194.357 1987.84,194.357 1989.89,194.357 1991.94,194.357 1993.99,194.357 1996.04,194.357 1998.09,194.357 2000.14,194.357 2002.19,194.357 2004.24,194.357 2006.29,194.357 2008.34,194.357 2010.39,194.357 2012.44,194.357 2014.49,194.357 2016.54,194.357 2018.59,194.357 2020.64,194.357 2022.69,194.357 2024.74,194.357 2026.79,194.357 2028.84,194.357 2030.89,194.357 2032.94,194.357 2034.99,194.357 2037.04,194.357 2039.09,194.357 2041.14,194.357 2043.19,194.357 2045.24,194.357 2047.29,194.357 2049.34,194.357 2051.39,194.357 2053.44,194.357 2055.49,194.357 2057.54,194.357 2059.59,140.271 2061.64,140.271 2063.69,140.271 2065.74,140.271 2067.79,140.271 2069.84,140.271 2071.89,140.271 2073.94,86.1857 2075.99,86.1857 2078.04,86.1857 2080.09,86.1857 2082.14,86.1857 2084.19,86.1857 2086.24,86.1857 2088.29,86.1857 2090.34,86.1857 2092.39,86.1857 2094.44,86.1857 2096.49,86.1857 2098.54,86.1857 2100.59,86.1857 2102.64,86.1857 2104.69,86.1857 2106.74,86.1857 2108.79,86.1857 2110.84,86.1857 2112.89,86.1857 2114.94,86.1857 2116.99,86.1857 2119.04,86.1857 2121.09,86.1857 2123.14,86.1857 2125.19,86.1857 2127.24,86.1857 2129.29,86.1857 2131.34,86.1857 2133.39,86.1857 2135.45,86.1857 2137.5,86.1857 2139.55,86.1857 2141.6,86.1857 2143.65,86.1857 2145.7,86.1857 2147.75,86.1857 2149.8,86.1857 2151.85,86.1857 2153.9,86.1857 2155.95,86.1857 2158,86.1857 2160.05,86.1857 2162.1,86.1857 2164.15,86.1857 2166.2,86.1857 2168.25,86.1857 2170.3,86.1857 2172.35,86.1857 2174.4,86.1857 2176.45,86.1857 2178.5,86.1857 2180.55,86.1857 2182.6,86.1857 2184.65,86.1857 2186.7,86.1857 2188.75,86.1857 2190.8,86.1857 2192.85,86.1857 2194.9,86.1857 2196.95,86.1857 2199,86.1857 2201.05,86.1857 2203.1,86.1857 2205.15,86.1857 2207.2,86.1857 2209.25,86.1857 2211.3,86.1857 2213.35,86.1857 2215.4,86.1857 2217.45,86.1857 2219.5,86.1857 2221.55,86.1857 2223.6,86.1857 2225.65,86.1857 2227.7,86.1857 2229.75,86.1857 2231.8,86.1857 2233.85,86.1857 2235.9,86.1857 2237.95,86.1857 2240,86.1857 2242.05,86.1857 2244.1,86.1857 2246.15,86.1857 2248.2,86.1857 2250.25,86.1857 2252.3,86.1857 2254.35,86.1857 2256.4,86.1857 2258.45,86.1857 2260.5,86.1857 2262.55,86.1857 2264.6,86.1857 2266.65,86.1857 2268.7,86.1857 2270.75,86.1857 2272.8,86.1857 2274.85,86.1857 2276.9,86.1857 2278.95,86.1857 2281,86.1857 2283.05,86.1857 2285.1,86.1857 2287.15,86.1857 2289.2,86.1857 2291.25,86.1857 2293.3,86.1857 2295.35,86.1857 2297.4,86.1857 2299.45,86.1857 2301.5,86.1857 2303.55,86.1857 2305.6,86.1857 2307.65,86.1857 2309.7,86.1857 2311.75,86.1857 2313.8,86.1857 2315.85,86.1857 2317.9,86.1857 2319.95,86.1857 2322,86.1857 2324.05,86.1857 2326.1,86.1857 2328.15,86.1857 2330.2,86.1857 2332.25,86.1857 2334.3,86.1857 2336.36,86.1857 2338.41,86.1857 2340.46,86.1857 2342.51,86.1857 2344.56,86.1857 2346.61,86.1857 2348.66,86.1857 2350.71,86.1857 2352.76,86.1857 "/>
<path clip-path="url(#clip010)" d="M214.431 248.629 L518.993 248.629 L518.993 93.1086 L214.431 93.1086  Z" fill="#ffffff" fill-rule="evenodd" fill-opacity="1"/>
<polyline clip-path="url(#clip010)" style="stroke:#000000; stroke-linecap:round; stroke-linejoin:round; stroke-width:4; stroke-opacity:1; fill:none" points="214.431,248.629 518.993,248.629 518.993,93.1086 214.431,93.1086 214.431,248.629 "/>
<polyline clip-path="url(#clip010)" style="stroke:#009af9; stroke-linecap:round; stroke-linejoin:round; stroke-width:8; stroke-opacity:1; fill:none" points="239.009,144.949 386.48,144.949 "/>
<path clip-path="url(#clip010)" d="M411.058 127.669 L417.355 127.669 L432.679 156.581 L432.679 127.669 L437.216 127.669 L437.216 162.229 L430.919 162.229 L415.595 133.317 L415.595 162.229 L411.058 162.229 L411.058 127.669 Z" fill="#000000" fill-rule="nonzero" fill-opacity="1" /><path clip-path="url(#clip010)" d="M456.567 126.257 Q453.466 131.581 451.961 136.789 Q450.456 141.997 450.456 147.344 Q450.456 152.692 451.961 157.946 Q453.489 163.178 456.567 168.479 L452.864 168.479 Q449.392 163.039 447.656 157.784 Q445.943 152.53 445.943 147.344 Q445.943 142.182 447.656 136.951 Q449.368 131.72 452.864 126.257 L456.567 126.257 Z" fill="#000000" fill-rule="nonzero" fill-opacity="1" /><path clip-path="url(#clip010)" d="M469.044 128.942 L469.044 136.303 L477.817 136.303 L477.817 139.613 L469.044 139.613 L469.044 153.687 Q469.044 156.858 469.901 157.761 Q470.78 158.664 473.442 158.664 L477.817 158.664 L477.817 162.229 L473.442 162.229 Q468.512 162.229 466.637 160.4 Q464.762 158.548 464.762 153.687 L464.762 139.613 L461.637 139.613 L461.637 136.303 L464.762 136.303 L464.762 128.942 L469.044 128.942 Z" fill="#000000" fill-rule="nonzero" fill-opacity="1" /><path clip-path="url(#clip010)" d="M482.748 126.257 L486.452 126.257 Q489.924 131.72 491.637 136.951 Q493.373 142.182 493.373 147.344 Q493.373 152.53 491.637 157.784 Q489.924 163.039 486.452 168.479 L482.748 168.479 Q485.827 163.178 487.331 157.946 Q488.859 152.692 488.859 147.344 Q488.859 141.997 487.331 136.789 Q485.827 131.581 482.748 126.257 Z" fill="#000000" fill-rule="nonzero" fill-opacity="1" /><polyline clip-path="url(#clip010)" style="stroke:#e26f46; stroke-linecap:round; stroke-linejoin:round; stroke-width:8; stroke-opacity:1; fill:none" points="239.009,196.789 386.48,196.789 "/>
<path clip-path="url(#clip010)" d="M415.734 183.351 L415.734 210.226 L421.382 210.226 Q428.535 210.226 431.845 206.985 Q435.179 203.745 435.179 196.754 Q435.179 189.809 431.845 186.592 Q428.535 183.351 421.382 183.351 L415.734 183.351 M411.058 179.509 L420.665 179.509 Q430.711 179.509 435.41 183.698 Q440.109 187.865 440.109 196.754 Q440.109 205.689 435.387 209.879 Q430.665 214.069 420.665 214.069 L411.058 214.069 L411.058 179.509 Z" fill="#000000" fill-rule="nonzero" fill-opacity="1" /><path clip-path="url(#clip010)" d="M457.609 178.097 Q454.507 183.421 453.003 188.629 Q451.498 193.837 451.498 199.184 Q451.498 204.532 453.003 209.786 Q454.53 215.018 457.609 220.319 L453.905 220.319 Q450.433 214.879 448.697 209.624 Q446.984 204.37 446.984 199.184 Q446.984 194.022 448.697 188.791 Q450.41 183.56 453.905 178.097 L457.609 178.097 Z" fill="#000000" fill-rule="nonzero" fill-opacity="1" /><path clip-path="url(#clip010)" d="M470.086 180.782 L470.086 188.143 L478.859 188.143 L478.859 191.453 L470.086 191.453 L470.086 205.527 Q470.086 208.698 470.942 209.601 Q471.822 210.504 474.484 210.504 L478.859 210.504 L478.859 214.069 L474.484 214.069 Q469.554 214.069 467.679 212.24 Q465.804 210.388 465.804 205.527 L465.804 191.453 L462.679 191.453 L462.679 188.143 L465.804 188.143 L465.804 180.782 L470.086 180.782 Z" fill="#000000" fill-rule="nonzero" fill-opacity="1" /><path clip-path="url(#clip010)" d="M483.79 178.097 L487.493 178.097 Q490.965 183.56 492.678 188.791 Q494.415 194.022 494.415 199.184 Q494.415 204.37 492.678 209.624 Q490.965 214.879 487.493 220.319 L483.79 220.319 Q486.868 215.018 488.373 209.786 Q489.901 204.532 489.901 199.184 Q489.901 193.837 488.373 188.629 Q486.868 183.421 483.79 178.097 Z" fill="#000000" fill-rule="nonzero" fill-opacity="1" /></svg>
