<?xml version="1.0" encoding="utf-8"?>
<svg xmlns="http://www.w3.org/2000/svg" xmlns:xlink="http://www.w3.org/1999/xlink" width="600" height="400" viewBox="0 0 2400 1600">
<defs>
  <clipPath id="clip940">
    <rect x="0" y="0" width="2400" height="1600"/>
  </clipPath>
</defs>
<path clip-path="url(#clip940)" d="M0 1600 L2400 1600 L2400 0 L0 0  Z" fill="#ffffff" fill-rule="evenodd" fill-opacity="1"/>
<defs>
  <clipPath id="clip941">
    <rect x="480" y="0" width="1681" height="1600"/>
  </clipPath>
</defs>
<path clip-path="url(#clip940)" d="M138.959 1423.18 L2352.76 1423.18 L2352.76 47.2441 L138.959 47.2441  Z" fill="#ffffff" fill-rule="evenodd" fill-opacity="1"/>
<defs>
  <clipPath id="clip942">
    <rect x="138" y="47" width="2215" height="1377"/>
  </clipPath>
</defs>
<polyline clip-path="url(#clip942)" style="stroke:#000000; stroke-linecap:round; stroke-linejoin:round; stroke-width:2; stroke-opacity:0.1; fill:none" points="138.959,1423.18 138.959,47.2441 "/>
<polyline clip-path="url(#clip942)" style="stroke:#000000; stroke-linecap:round; stroke-linejoin:round; stroke-width:2; stroke-opacity:0.1; fill:none" points="581.719,1423.18 581.719,47.2441 "/>
<polyline clip-path="url(#clip942)" style="stroke:#000000; stroke-linecap:round; stroke-linejoin:round; stroke-width:2; stroke-opacity:0.1; fill:none" points="1024.48,1423.18 1024.48,47.2441 "/>
<polyline clip-path="url(#clip942)" style="stroke:#000000; stroke-linecap:round; stroke-linejoin:round; stroke-width:2; stroke-opacity:0.1; fill:none" points="1467.24,1423.18 1467.24,47.2441 "/>
<polyline clip-path="url(#clip942)" style="stroke:#000000; stroke-linecap:round; stroke-linejoin:round; stroke-width:2; stroke-opacity:0.1; fill:none" points="1910,1423.18 1910,47.2441 "/>
<polyline clip-path="url(#clip942)" style="stroke:#000000; stroke-linecap:round; stroke-linejoin:round; stroke-width:2; stroke-opacity:0.1; fill:none" points="2352.76,1423.18 2352.76,47.2441 "/>
<polyline clip-path="url(#clip942)" style="stroke:#000000; stroke-linecap:round; stroke-linejoin:round; stroke-width:2; stroke-opacity:0.1; fill:none" points="138.959,1384.24 2352.76,1384.24 "/>
<polyline clip-path="url(#clip942)" style="stroke:#000000; stroke-linecap:round; stroke-linejoin:round; stroke-width:2; stroke-opacity:0.1; fill:none" points="138.959,1023.67 2352.76,1023.67 "/>
<polyline clip-path="url(#clip942)" style="stroke:#000000; stroke-linecap:round; stroke-linejoin:round; stroke-width:2; stroke-opacity:0.1; fill:none" points="138.959,663.098 2352.76,663.098 "/>
<polyline clip-path="url(#clip942)" style="stroke:#000000; stroke-linecap:round; stroke-linejoin:round; stroke-width:2; stroke-opacity:0.1; fill:none" points="138.959,302.528 2352.76,302.528 "/>
<polyline clip-path="url(#clip940)" style="stroke:#000000; stroke-linecap:round; stroke-linejoin:round; stroke-width:4; stroke-opacity:1; fill:none" points="138.959,1423.18 2352.76,1423.18 "/>
<polyline clip-path="url(#clip940)" style="stroke:#000000; stroke-linecap:round; stroke-linejoin:round; stroke-width:4; stroke-opacity:1; fill:none" points="138.959,1423.18 138.959,1404.28 "/>
<polyline clip-path="url(#clip940)" style="stroke:#000000; stroke-linecap:round; stroke-linejoin:round; stroke-width:4; stroke-opacity:1; fill:none" points="581.719,1423.18 581.719,1404.28 "/>
<polyline clip-path="url(#clip940)" style="stroke:#000000; stroke-linecap:round; stroke-linejoin:round; stroke-width:4; stroke-opacity:1; fill:none" points="1024.48,1423.18 1024.48,1404.28 "/>
<polyline clip-path="url(#clip940)" style="stroke:#000000; stroke-linecap:round; stroke-linejoin:round; stroke-width:4; stroke-opacity:1; fill:none" points="1467.24,1423.18 1467.24,1404.28 "/>
<polyline clip-path="url(#clip940)" style="stroke:#000000; stroke-linecap:round; stroke-linejoin:round; stroke-width:4; stroke-opacity:1; fill:none" points="1910,1423.18 1910,1404.28 "/>
<polyline clip-path="url(#clip940)" style="stroke:#000000; stroke-linecap:round; stroke-linejoin:round; stroke-width:4; stroke-opacity:1; fill:none" points="2352.76,1423.18 2352.76,1404.28 "/>
<path clip-path="url(#clip940)" d="M138.959 1454.1 Q135.348 1454.1 133.52 1457.66 Q131.714 1461.2 131.714 1468.33 Q131.714 1475.44 133.52 1479.01 Q135.348 1482.55 138.959 1482.55 Q142.594 1482.55 144.399 1479.01 Q146.228 1475.44 146.228 1468.33 Q146.228 1461.2 144.399 1457.66 Q142.594 1454.1 138.959 1454.1 M138.959 1450.39 Q144.77 1450.39 147.825 1455 Q150.904 1459.58 150.904 1468.33 Q150.904 1477.06 147.825 1481.67 Q144.77 1486.25 138.959 1486.25 Q133.149 1486.25 130.071 1481.67 Q127.015 1477.06 127.015 1468.33 Q127.015 1459.58 130.071 1455 Q133.149 1450.39 138.959 1450.39 Z" fill="#000000" fill-rule="nonzero" fill-opacity="1" /><path clip-path="url(#clip940)" d="M576.372 1481.64 L592.691 1481.64 L592.691 1485.58 L570.747 1485.58 L570.747 1481.64 Q573.409 1478.89 577.992 1474.26 Q582.598 1469.61 583.779 1468.27 Q586.024 1465.74 586.904 1464.01 Q587.807 1462.25 587.807 1460.56 Q587.807 1457.8 585.862 1456.07 Q583.941 1454.33 580.839 1454.33 Q578.64 1454.33 576.186 1455.09 Q573.756 1455.86 570.978 1457.41 L570.978 1452.69 Q573.802 1451.55 576.256 1450.97 Q578.709 1450.39 580.747 1450.39 Q586.117 1450.39 589.311 1453.08 Q592.506 1455.77 592.506 1460.26 Q592.506 1462.39 591.696 1464.31 Q590.908 1466.2 588.802 1468.8 Q588.223 1469.47 585.121 1472.69 Q582.02 1475.88 576.372 1481.64 Z" fill="#000000" fill-rule="nonzero" fill-opacity="1" /><path clip-path="url(#clip940)" d="M1027.49 1455.09 L1015.68 1473.54 L1027.49 1473.54 L1027.49 1455.09 M1026.26 1451.02 L1032.14 1451.02 L1032.14 1473.54 L1037.07 1473.54 L1037.07 1477.43 L1032.14 1477.43 L1032.14 1485.58 L1027.49 1485.58 L1027.49 1477.43 L1011.89 1477.43 L1011.89 1472.92 L1026.26 1451.02 Z" fill="#000000" fill-rule="nonzero" fill-opacity="1" /><path clip-path="url(#clip940)" d="M1467.64 1466.44 Q1464.49 1466.44 1462.64 1468.59 Q1460.81 1470.74 1460.81 1474.49 Q1460.81 1478.22 1462.64 1480.39 Q1464.49 1482.55 1467.64 1482.55 Q1470.79 1482.55 1472.62 1480.39 Q1474.47 1478.22 1474.47 1474.49 Q1474.47 1470.74 1472.62 1468.59 Q1470.79 1466.44 1467.64 1466.44 M1476.92 1451.78 L1476.92 1456.04 Q1475.17 1455.21 1473.36 1454.77 Q1471.58 1454.33 1469.82 1454.33 Q1465.19 1454.33 1462.74 1457.45 Q1460.3 1460.58 1459.96 1466.9 Q1461.32 1464.89 1463.38 1463.82 Q1465.44 1462.73 1467.92 1462.73 Q1473.13 1462.73 1476.14 1465.9 Q1479.17 1469.05 1479.17 1474.49 Q1479.17 1479.82 1476.02 1483.03 Q1472.87 1486.25 1467.64 1486.25 Q1461.65 1486.25 1458.48 1481.67 Q1455.3 1477.06 1455.3 1468.33 Q1455.3 1460.14 1459.19 1455.28 Q1463.08 1450.39 1469.63 1450.39 Q1471.39 1450.39 1473.17 1450.74 Q1474.98 1451.09 1476.92 1451.78 Z" fill="#000000" fill-rule="nonzero" fill-opacity="1" /><path clip-path="url(#clip940)" d="M1910 1469.17 Q1906.66 1469.17 1904.74 1470.95 Q1902.84 1472.73 1902.84 1475.86 Q1902.84 1478.98 1904.74 1480.77 Q1906.66 1482.55 1910 1482.55 Q1913.33 1482.55 1915.25 1480.77 Q1917.17 1478.96 1917.17 1475.86 Q1917.17 1472.73 1915.25 1470.95 Q1913.35 1469.17 1910 1469.17 M1905.32 1467.18 Q1902.31 1466.44 1900.62 1464.38 Q1898.96 1462.32 1898.96 1459.35 Q1898.96 1455.21 1901.89 1452.8 Q1904.86 1450.39 1910 1450.39 Q1915.16 1450.39 1918.1 1452.8 Q1921.04 1455.21 1921.04 1459.35 Q1921.04 1462.32 1919.35 1464.38 Q1917.68 1466.44 1914.7 1467.18 Q1918.08 1467.96 1919.95 1470.26 Q1921.85 1472.55 1921.85 1475.86 Q1921.85 1480.88 1918.77 1483.57 Q1915.71 1486.25 1910 1486.25 Q1904.28 1486.25 1901.2 1483.57 Q1898.14 1480.88 1898.14 1475.86 Q1898.14 1472.55 1900.04 1470.26 Q1901.94 1467.96 1905.32 1467.18 M1903.61 1459.79 Q1903.61 1462.48 1905.27 1463.98 Q1906.96 1465.49 1910 1465.49 Q1913.01 1465.49 1914.7 1463.98 Q1916.41 1462.48 1916.41 1459.79 Q1916.41 1457.11 1914.7 1455.6 Q1913.01 1454.1 1910 1454.1 Q1906.96 1454.1 1905.27 1455.6 Q1903.61 1457.11 1903.61 1459.79 Z" fill="#000000" fill-rule="nonzero" fill-opacity="1" /><path clip-path="url(#clip940)" d="M2327.44 1481.64 L2335.08 1481.64 L2335.08 1455.28 L2326.77 1456.95 L2326.77 1452.69 L2335.04 1451.02 L2339.71 1451.02 L2339.71 1481.64 L2347.35 1481.64 L2347.35 1485.58 L2327.44 1485.58 L2327.44 1481.64 Z" fill="#000000" fill-rule="nonzero" fill-opacity="1" /><path clip-path="url(#clip940)" d="M2366.8 1454.1 Q2363.18 1454.1 2361.36 1457.66 Q2359.55 1461.2 2359.55 1468.33 Q2359.55 1475.44 2361.36 1479.01 Q2363.18 1482.55 2366.8 1482.55 Q2370.43 1482.55 2372.23 1479.01 Q2374.06 1475.44 2374.06 1468.33 Q2374.06 1461.2 2372.23 1457.66 Q2370.43 1454.1 2366.8 1454.1 M2366.8 1450.39 Q2372.61 1450.39 2375.66 1455 Q2378.74 1459.58 2378.74 1468.33 Q2378.74 1477.06 2375.66 1481.67 Q2372.61 1486.25 2366.8 1486.25 Q2360.99 1486.25 2357.91 1481.67 Q2354.85 1477.06 2354.85 1468.33 Q2354.85 1459.58 2357.91 1455 Q2360.99 1450.39 2366.8 1450.39 Z" fill="#000000" fill-rule="nonzero" fill-opacity="1" /><path clip-path="url(#clip940)" d="M1244.92 1522.27 L1244.92 1532.4 L1256.98 1532.4 L1256.98 1536.95 L1244.92 1536.95 L1244.92 1556.3 Q1244.92 1560.66 1246.1 1561.9 Q1247.31 1563.14 1250.97 1563.14 L1256.98 1563.14 L1256.98 1568.04 L1250.97 1568.04 Q1244.19 1568.04 1241.61 1565.53 Q1239.03 1562.98 1239.03 1556.3 L1239.03 1536.95 L1234.73 1536.95 L1234.73 1532.4 L1239.03 1532.4 L1239.03 1522.27 L1244.92 1522.27 Z" fill="#000000" fill-rule="nonzero" fill-opacity="1" /><polyline clip-path="url(#clip940)" style="stroke:#000000; stroke-linecap:round; stroke-linejoin:round; stroke-width:4; stroke-opacity:1; fill:none" points="138.959,1423.18 138.959,47.2441 "/>
<polyline clip-path="url(#clip940)" style="stroke:#000000; stroke-linecap:round; stroke-linejoin:round; stroke-width:4; stroke-opacity:1; fill:none" points="138.959,1384.24 157.857,1384.24 "/>
<polyline clip-path="url(#clip940)" style="stroke:#000000; stroke-linecap:round; stroke-linejoin:round; stroke-width:4; stroke-opacity:1; fill:none" points="138.959,1023.67 157.857,1023.67 "/>
<polyline clip-path="url(#clip940)" style="stroke:#000000; stroke-linecap:round; stroke-linejoin:round; stroke-width:4; stroke-opacity:1; fill:none" points="138.959,663.098 157.857,663.098 "/>
<polyline clip-path="url(#clip940)" style="stroke:#000000; stroke-linecap:round; stroke-linejoin:round; stroke-width:4; stroke-opacity:1; fill:none" points="138.959,302.528 157.857,302.528 "/>
<path clip-path="url(#clip940)" d="M91.0151 1370.04 Q87.404 1370.04 85.5753 1373.6 Q83.7697 1377.14 83.7697 1384.27 Q83.7697 1391.38 85.5753 1394.94 Q87.404 1398.49 91.0151 1398.49 Q94.6493 1398.49 96.4548 1394.94 Q98.2835 1391.38 98.2835 1384.27 Q98.2835 1377.14 96.4548 1373.6 Q94.6493 1370.04 91.0151 1370.04 M91.0151 1366.33 Q96.8252 1366.33 99.8808 1370.94 Q102.959 1375.52 102.959 1384.27 Q102.959 1393 99.8808 1397.61 Q96.8252 1402.19 91.0151 1402.19 Q85.2049 1402.19 82.1262 1397.61 Q79.0707 1393 79.0707 1384.27 Q79.0707 1375.52 82.1262 1370.94 Q85.2049 1366.33 91.0151 1366.33 Z" fill="#000000" fill-rule="nonzero" fill-opacity="1" /><path clip-path="url(#clip940)" d="M82.0568 1006.39 L100.413 1006.39 L100.413 1010.32 L86.3392 1010.32 L86.3392 1018.8 Q87.3577 1018.45 88.3762 1018.29 Q89.3947 1018.1 90.4132 1018.1 Q96.2002 1018.1 99.5798 1021.27 Q102.959 1024.44 102.959 1029.86 Q102.959 1035.44 99.4872 1038.54 Q96.015 1041.62 89.6956 1041.62 Q87.5197 1041.62 85.2512 1041.25 Q83.0058 1040.88 80.5984 1040.14 L80.5984 1035.44 Q82.6818 1036.57 84.904 1037.13 Q87.1262 1037.68 89.603 1037.68 Q93.6076 1037.68 95.9456 1035.58 Q98.2835 1033.47 98.2835 1029.86 Q98.2835 1026.25 95.9456 1024.14 Q93.6076 1022.04 89.603 1022.04 Q87.728 1022.04 85.8531 1022.45 Q84.0012 1022.87 82.0568 1023.75 L82.0568 1006.39 Z" fill="#000000" fill-rule="nonzero" fill-opacity="1" /><path clip-path="url(#clip940)" d="M51.6634 676.443 L59.3023 676.443 L59.3023 650.077 L50.9921 651.744 L50.9921 647.485 L59.256 645.818 L63.9319 645.818 L63.9319 676.443 L71.5707 676.443 L71.5707 680.378 L51.6634 680.378 L51.6634 676.443 Z" fill="#000000" fill-rule="nonzero" fill-opacity="1" /><path clip-path="url(#clip940)" d="M91.0151 648.897 Q87.404 648.897 85.5753 652.461 Q83.7697 656.003 83.7697 663.133 Q83.7697 670.239 85.5753 673.804 Q87.404 677.346 91.0151 677.346 Q94.6493 677.346 96.4548 673.804 Q98.2835 670.239 98.2835 663.133 Q98.2835 656.003 96.4548 652.461 Q94.6493 648.897 91.0151 648.897 M91.0151 645.193 Q96.8252 645.193 99.8808 649.799 Q102.959 654.383 102.959 663.133 Q102.959 671.859 99.8808 676.466 Q96.8252 681.049 91.0151 681.049 Q85.2049 681.049 82.1262 676.466 Q79.0707 671.859 79.0707 663.133 Q79.0707 654.383 82.1262 649.799 Q85.2049 645.193 91.0151 645.193 Z" fill="#000000" fill-rule="nonzero" fill-opacity="1" /><path clip-path="url(#clip940)" d="M52.6588 315.873 L60.2976 315.873 L60.2976 289.507 L51.9875 291.174 L51.9875 286.914 L60.2513 285.248 L64.9272 285.248 L64.9272 315.873 L72.5661 315.873 L72.5661 319.808 L52.6588 319.808 L52.6588 315.873 Z" fill="#000000" fill-rule="nonzero" fill-opacity="1" /><path clip-path="url(#clip940)" d="M82.0568 285.248 L100.413 285.248 L100.413 289.183 L86.3392 289.183 L86.3392 297.655 Q87.3577 297.308 88.3762 297.146 Q89.3947 296.961 90.4132 296.961 Q96.2002 296.961 99.5798 300.132 Q102.959 303.303 102.959 308.72 Q102.959 314.299 99.4872 317.4 Q96.015 320.479 89.6956 320.479 Q87.5197 320.479 85.2512 320.109 Q83.0058 319.738 80.5984 318.998 L80.5984 314.299 Q82.6818 315.433 84.904 315.988 Q87.1262 316.544 89.603 316.544 Q93.6076 316.544 95.9456 314.437 Q98.2835 312.331 98.2835 308.72 Q98.2835 305.109 95.9456 303.002 Q93.6076 300.896 89.603 300.896 Q87.728 300.896 85.8531 301.312 Q84.0012 301.729 82.0568 302.609 L82.0568 285.248 Z" fill="#000000" fill-rule="nonzero" fill-opacity="1" /><polyline clip-path="url(#clip942)" style="stroke:#009af9; stroke-linecap:round; stroke-linejoin:round; stroke-width:8; stroke-opacity:1; fill:none" points="138.959,1384.24 140.067,1384.24 141.174,1384.24 142.282,1384.24 143.389,1384.24 144.497,1384.24 145.604,1384.24 146.712,1384.24 147.819,1384.24 148.927,1384.24 150.034,1384.24 151.141,1384.24 152.249,1384.24 153.356,1384.24 154.464,1384.24 155.571,1384.24 156.679,1384.24 157.786,1384.24 158.894,1384.24 160.001,1384.24 161.108,1384.24 162.216,1384.24 163.323,1384.24 164.431,1384.24 165.538,1384.24 166.646,1384.24 167.753,1384.24 168.861,1384.24 169.968,1384.24 171.076,1384.24 172.183,1384.24 173.29,1384.24 174.398,1384.24 175.505,1384.24 176.613,1384.24 177.72,1384.24 178.828,1384.24 179.935,1384.24 181.043,1384.24 182.15,1384.24 183.258,1384.24 184.365,1384.24 185.472,1384.24 186.58,1384.24 187.687,1384.24 188.795,1384.24 189.902,1384.24 191.01,1384.24 192.117,1384.24 193.225,1384.24 194.332,1384.24 195.439,1384.24 196.547,1384.24 197.654,1384.24 198.762,1384.24 199.869,1384.24 200.977,1384.24 202.084,1384.24 203.192,1384.24 204.299,1384.24 205.407,1384.24 206.514,1384.24 207.621,1384.24 208.729,1384.24 209.836,1384.24 210.944,1384.24 212.051,1384.24 213.159,1384.24 214.266,1384.24 215.374,1312.12 216.481,1312.12 217.589,1312.12 218.696,1312.12 219.803,1312.12 220.911,1312.12 222.018,1312.12 223.126,1312.12 224.233,1312.12 225.341,1312.12 226.448,1312.12 227.556,1312.12 228.663,1312.12 229.771,1312.12 230.878,1312.12 231.985,1312.12 233.093,1312.12 234.2,1312.12 235.308,1312.12 236.415,1312.12 237.523,1312.12 238.63,1312.12 239.738,1312.12 240.845,1312.12 241.952,1312.12 243.06,1312.12 244.167,1312.12 245.275,1312.12 246.382,1312.12 247.49,1312.12 248.597,1312.12 249.705,1312.12 250.812,1312.12 251.92,1312.12 253.027,1312.12 254.134,1312.12 255.242,1312.12 256.349,1312.12 257.457,1312.12 258.564,1312.12 259.672,1312.12 260.779,1312.12 261.887,1312.12 262.994,1312.12 264.102,1312.12 265.209,1312.12 266.316,1312.12 267.424,1312.12 268.531,1312.12 269.639,1312.12 270.746,1312.12 271.854,1312.12 272.961,1312.12 274.069,1312.12 275.176,1312.12 276.283,1312.12 277.391,1312.12 278.498,1312.12 279.606,1312.12 280.713,1312.12 281.821,1312.12 282.928,1312.12 284.036,1312.12 285.143,1312.12 286.251,1312.12 287.358,1312.12 288.465,1312.12 289.573,1312.12 290.68,1312.12 291.788,1312.12 292.895,1312.12 294.003,1312.12 295.11,1312.12 296.218,1312.12 297.325,1312.12 298.433,1312.12 299.54,1312.12 300.647,1312.12 301.755,1312.12 302.862,1312.12 303.97,1312.12 305.077,1312.12 306.185,1312.12 307.292,1312.12 308.4,1312.12 309.507,1312.12 310.614,1312.12 311.722,1312.12 312.829,1312.12 313.937,1312.12 315.044,1312.12 316.152,1312.12 317.259,1312.12 318.367,1312.12 319.474,1312.12 320.582,1312.12 321.689,1312.12 322.796,1312.12 323.904,1312.12 325.011,1312.12 326.119,1312.12 327.226,1312.12 328.334,1312.12 329.441,1312.12 330.549,1312.12 331.656,1312.12 332.764,1312.12 333.871,1312.12 334.978,1312.12 336.086,1312.12 337.193,1312.12 338.301,1312.12 339.408,1240.01 340.516,1240.01 341.623,1240.01 342.731,1240.01 343.838,1240.01 344.946,1240.01 346.053,1240.01 347.16,1240.01 348.268,1240.01 349.375,1240.01 350.483,1240.01 351.59,1240.01 352.698,1240.01 353.805,1240.01 354.913,1240.01 356.02,1240.01 357.127,1240.01 358.235,1240.01 359.342,1240.01 360.45,1240.01 361.557,1240.01 362.665,1240.01 363.772,1240.01 364.88,1240.01 365.987,1240.01 367.095,1240.01 368.202,1240.01 369.309,1240.01 370.417,1240.01 371.524,1240.01 372.632,1240.01 373.739,1240.01 374.847,1240.01 375.954,1240.01 377.062,1240.01 378.169,1240.01 379.277,1240.01 380.384,1240.01 381.491,1240.01 382.599,1240.01 383.706,1240.01 384.814,1240.01 385.921,1240.01 387.029,1240.01 388.136,1240.01 389.244,1240.01 390.351,1240.01 391.458,1240.01 392.566,1240.01 393.673,1240.01 394.781,1240.01 395.888,1240.01 396.996,1240.01 398.103,1240.01 399.211,1240.01 400.318,1240.01 401.426,1240.01 402.533,1240.01 403.64,1240.01 404.748,1240.01 405.855,1240.01 406.963,1240.01 408.07,1240.01 409.178,1240.01 410.285,1240.01 411.393,1240.01 412.5,1240.01 413.608,1240.01 414.715,1240.01 415.822,1240.01 416.93,1240.01 418.037,1240.01 419.145,1240.01 420.252,1240.01 421.36,1240.01 422.467,1240.01 423.575,1240.01 424.682,1240.01 425.789,1240.01 426.897,1240.01 428.004,1240.01 429.112,1240.01 430.219,1240.01 431.327,1240.01 432.434,1240.01 433.542,1240.01 434.649,1240.01 435.757,1240.01 436.864,1240.01 437.971,1240.01 439.079,1240.01 440.186,1240.01 441.294,1240.01 442.401,1240.01 443.509,1240.01 444.616,1240.01 445.724,1240.01 446.831,1240.01 447.939,1240.01 449.046,1240.01 450.153,1240.01 451.261,1240.01 452.368,1240.01 453.476,1240.01 454.583,1240.01 455.691,1240.01 456.798,1240.01 457.906,1240.01 459.013,1240.01 460.121,1240.01 461.228,1240.01 462.335,1240.01 463.443,1240.01 464.55,1240.01 465.658,1167.9 466.765,1167.9 467.873,1167.9 468.98,1167.9 470.088,1167.9 471.195,1167.9 472.302,1167.9 473.41,1167.9 474.517,1167.9 475.625,1095.78 476.732,1095.78 477.84,1095.78 478.947,1095.78 480.055,1095.78 481.162,1095.78 482.27,1095.78 483.377,1095.78 484.484,1095.78 485.592,1095.78 486.699,1095.78 487.807,1095.78 488.914,1095.78 490.022,1095.78 491.129,1095.78 492.237,1095.78 493.344,1095.78 494.452,1095.78 495.559,1095.78 496.666,1095.78 497.774,1095.78 498.881,1095.78 499.989,1095.78 501.096,1095.78 502.204,1095.78 503.311,1095.78 504.419,1095.78 505.526,1095.78 506.633,1095.78 507.741,1095.78 508.848,1095.78 509.956,1095.78 511.063,1095.78 512.171,1095.78 513.278,1095.78 514.386,1095.78 515.493,1095.78 516.601,1095.78 517.708,1095.78 518.815,1095.78 519.923,1095.78 521.03,1095.78 522.138,1095.78 523.245,1095.78 524.353,1095.78 525.46,1095.78 526.568,1095.78 527.675,1095.78 528.783,1095.78 529.89,1095.78 530.997,1095.78 532.105,1095.78 533.212,1095.78 534.32,1095.78 535.427,1095.78 536.535,1095.78 537.642,1095.78 538.75,1095.78 539.857,1023.67 540.965,1023.67 542.072,1023.67 543.179,1023.67 544.287,1023.67 545.394,1023.67 546.502,951.554 547.609,951.554 548.717,951.554 549.824,951.554 550.932,951.554 552.039,951.554 553.146,951.554 554.254,951.554 555.361,951.554 556.469,951.554 557.576,951.554 558.684,951.554 559.791,951.554 560.899,951.554 562.006,951.554 563.114,951.554 564.221,951.554 565.328,951.554 566.436,951.554 567.543,951.554 568.651,951.554 569.758,951.554 570.866,951.554 571.973,951.554 573.081,951.554 574.188,951.554 575.296,951.554 576.403,951.554 577.51,951.554 578.618,951.554 579.725,951.554 580.833,951.554 581.94,951.554 583.048,951.554 584.155,951.554 585.263,951.554 586.37,951.554 587.477,951.554 588.585,951.554 589.692,951.554 590.8,951.554 591.907,951.554 593.015,951.554 594.122,951.554 595.23,951.554 596.337,951.554 597.445,951.554 598.552,951.554 599.659,879.44 600.767,879.44 601.874,879.44 602.982,879.44 604.089,879.44 605.197,879.44 606.304,879.44 607.412,879.44 608.519,879.44 609.627,879.44 610.734,879.44 611.841,879.44 612.949,879.44 614.056,879.44 615.164,879.44 616.271,879.44 617.379,879.44 618.486,879.44 619.594,879.44 620.701,879.44 621.808,879.44 622.916,879.44 624.023,879.44 625.131,879.44 626.238,879.44 627.346,879.44 628.453,879.44 629.561,879.44 630.668,879.44 631.776,879.44 632.883,879.44 633.99,879.44 635.098,879.44 636.205,879.44 637.313,879.44 638.42,879.44 639.528,879.44 640.635,879.44 641.743,879.44 642.85,879.44 643.958,879.44 645.065,879.44 646.172,879.44 647.28,879.44 648.387,879.44 649.495,879.44 650.602,879.44 651.71,879.44 652.817,879.44 653.925,879.44 655.032,879.44 656.14,879.44 657.247,879.44 658.354,879.44 659.462,879.44 660.569,879.44 661.677,879.44 662.784,879.44 663.892,879.44 664.999,879.44 666.107,879.44 667.214,879.44 668.321,879.44 669.429,879.44 670.536,879.44 671.644,879.44 672.751,879.44 673.859,879.44 674.966,879.44 676.074,879.44 677.181,879.44 678.289,879.44 679.396,879.44 680.503,879.44 681.611,879.44 682.718,879.44 683.826,879.44 684.933,879.44 686.041,879.44 687.148,879.44 688.256,879.44 689.363,879.44 690.471,879.44 691.578,879.44 692.685,879.44 693.793,879.44 694.9,879.44 696.008,879.44 697.115,879.44 698.223,879.44 699.33,879.44 700.438,879.44 701.545,879.44 702.652,879.44 703.76,879.44 704.867,879.44 705.975,879.44 707.082,879.44 708.19,879.44 709.297,879.44 710.405,879.44 711.512,879.44 712.62,879.44 713.727,879.44 714.834,879.44 715.942,879.44 717.049,879.44 718.157,879.44 719.264,879.44 720.372,879.44 721.479,879.44 722.587,879.44 723.694,879.44 724.802,879.44 725.909,879.44 727.016,879.44 728.124,879.44 729.231,879.44 730.339,879.44 731.446,879.44 732.554,879.44 733.661,879.44 734.769,879.44 735.876,879.44 736.983,879.44 738.091,879.44 739.198,879.44 740.306,879.44 741.413,879.44 742.521,879.44 743.628,879.44 744.736,879.44 745.843,879.44 746.951,879.44 748.058,879.44 749.165,879.44 750.273,879.44 751.38,879.44 752.488,879.44 753.595,879.44 754.703,879.44 755.81,879.44 756.918,879.44 758.025,879.44 759.133,879.44 760.24,879.44 761.347,879.44 762.455,879.44 763.562,879.44 764.67,879.44 765.777,879.44 766.885,879.44 767.992,879.44 769.1,879.44 770.207,879.44 771.315,879.44 772.422,879.44 773.529,879.44 774.637,879.44 775.744,879.44 776.852,879.44 777.959,879.44 779.067,879.44 780.174,879.44 781.282,879.44 782.389,879.44 783.496,879.44 784.604,879.44 785.711,807.326 786.819,807.326 787.926,807.326 789.034,807.326 790.141,807.326 791.249,807.326 792.356,807.326 793.464,807.326 794.571,807.326 795.678,807.326 796.786,807.326 797.893,807.326 799.001,807.326 800.108,807.326 801.216,807.326 802.323,807.326 803.431,807.326 804.538,807.326 805.646,807.326 806.753,807.326 807.86,807.326 808.968,807.326 810.075,807.326 811.183,807.326 812.29,807.326 813.398,807.326 814.505,807.326 815.613,807.326 816.72,807.326 817.827,807.326 818.935,807.326 820.042,807.326 821.15,807.326 822.257,807.326 823.365,807.326 824.472,807.326 825.58,807.326 826.687,807.326 827.795,807.326 828.902,807.326 830.009,807.326 831.117,807.326 832.224,807.326 833.332,807.326 834.439,807.326 835.547,807.326 836.654,807.326 837.762,807.326 838.869,807.326 839.977,807.326 841.084,807.326 842.191,807.326 843.299,807.326 844.406,807.326 845.514,807.326 846.621,807.326 847.729,807.326 848.836,807.326 849.944,807.326 851.051,807.326 852.159,807.326 853.266,807.326 854.373,807.326 855.481,807.326 856.588,807.326 857.696,807.326 858.803,807.326 859.911,807.326 861.018,807.326 862.126,807.326 863.233,807.326 864.34,807.326 865.448,807.326 866.555,807.326 867.663,807.326 868.77,807.326 869.878,807.326 870.985,807.326 872.093,807.326 873.2,807.326 874.308,807.326 875.415,807.326 876.522,807.326 877.63,807.326 878.737,807.326 879.845,807.326 880.952,807.326 882.06,807.326 883.167,807.326 884.275,807.326 885.382,807.326 886.49,807.326 887.597,807.326 888.704,807.326 889.812,807.326 890.919,807.326 892.027,807.326 893.134,807.326 894.242,807.326 895.349,807.326 896.457,807.326 897.564,807.326 898.671,807.326 899.779,807.326 900.886,807.326 901.994,807.326 903.101,807.326 904.209,807.326 905.316,807.326 906.424,807.326 907.531,807.326 908.639,807.326 909.746,807.326 910.853,807.326 911.961,807.326 913.068,807.326 914.176,807.326 915.283,807.326 916.391,807.326 917.498,807.326 918.606,807.326 919.713,807.326 920.821,807.326 921.928,807.326 923.035,807.326 924.143,807.326 925.25,807.326 926.358,807.326 927.465,807.326 928.573,807.326 929.68,807.326 930.788,807.326 931.895,807.326 933.002,807.326 934.11,807.326 935.217,807.326 936.325,807.326 937.432,807.326 938.54,807.326 939.647,807.326 940.755,807.326 941.862,807.326 942.97,807.326 944.077,807.326 945.184,807.326 946.292,807.326 947.399,807.326 948.507,807.326 949.614,807.326 950.722,807.326 951.829,807.326 952.937,807.326 954.044,807.326 955.152,807.326 956.259,735.212 957.366,735.212 958.474,735.212 959.581,735.212 960.689,735.212 961.796,735.212 962.904,735.212 964.011,735.212 965.119,735.212 966.226,735.212 967.334,735.212 968.441,735.212 969.548,735.212 970.656,735.212 971.763,735.212 972.871,735.212 973.978,735.212 975.086,735.212 976.193,735.212 977.301,735.212 978.408,735.212 979.515,735.212 980.623,735.212 981.73,735.212 982.838,735.212 983.945,735.212 985.053,735.212 986.16,735.212 987.268,735.212 988.375,735.212 989.483,735.212 990.59,735.212 991.697,735.212 992.805,735.212 993.912,735.212 995.02,735.212 996.127,735.212 997.235,735.212 998.342,735.212 999.45,735.212 1000.56,735.212 1001.66,735.212 1002.77,735.212 1003.88,735.212 1004.99,735.212 1006.09,735.212 1007.2,735.212 1008.31,735.212 1009.42,735.212 1010.52,735.212 1011.63,735.212 1012.74,735.212 1013.85,735.212 1014.95,735.212 1016.06,735.212 1017.17,735.212 1018.28,735.212 1019.38,735.212 1020.49,735.212 1021.6,735.212 1022.71,735.212 1023.81,735.212 1024.92,735.212 1026.03,735.212 1027.14,735.212 1028.24,735.212 1029.35,735.212 1030.46,735.212 1031.57,735.212 1032.67,735.212 1033.78,735.212 1034.89,735.212 1036,735.212 1037.1,735.212 1038.21,735.212 1039.32,735.212 1040.43,735.212 1041.53,735.212 1042.64,735.212 1043.75,735.212 1044.86,735.212 1045.96,735.212 1047.07,735.212 1048.18,735.212 1049.28,735.212 1050.39,735.212 1051.5,735.212 1052.61,735.212 1053.71,735.212 1054.82,735.212 1055.93,735.212 1057.04,735.212 1058.14,735.212 1059.25,735.212 1060.36,735.212 1061.47,735.212 1062.57,735.212 1063.68,735.212 1064.79,735.212 1065.9,735.212 1067,735.212 1068.11,735.212 1069.22,735.212 1070.33,735.212 1071.43,735.212 1072.54,735.212 1073.65,735.212 1074.76,735.212 1075.86,735.212 1076.97,735.212 1078.08,735.212 1079.19,735.212 1080.29,663.098 1081.4,590.984 1082.51,590.984 1083.62,590.984 1084.72,590.984 1085.83,590.984 1086.94,590.984 1088.05,590.984 1089.15,590.984 1090.26,590.984 1091.37,590.984 1092.48,590.984 1093.58,590.984 1094.69,590.984 1095.8,590.984 1096.91,590.984 1098.01,590.984 1099.12,590.984 1100.23,590.984 1101.34,590.984 1102.44,590.984 1103.55,590.984 1104.66,590.984 1105.77,590.984 1106.87,518.87 1107.98,518.87 1109.09,518.87 1110.19,518.87 1111.3,518.87 1112.41,518.87 1113.52,518.87 1114.62,518.87 1115.73,518.87 1116.84,518.87 1117.95,518.87 1119.05,518.87 1120.16,518.87 1121.27,518.87 1122.38,518.87 1123.48,518.87 1124.59,518.87 1125.7,518.87 1126.81,518.87 1127.91,518.87 1129.02,518.87 1130.13,518.87 1131.24,518.87 1132.34,518.87 1133.45,518.87 1134.56,518.87 1135.67,518.87 1136.77,518.87 1137.88,518.87 1138.99,518.87 1140.1,518.87 1141.2,518.87 1142.31,518.87 1143.42,518.87 1144.53,518.87 1145.63,518.87 1146.74,518.87 1147.85,518.87 1148.96,518.87 1150.06,518.87 1151.17,518.87 1152.28,518.87 1153.39,518.87 1154.49,518.87 1155.6,518.87 1156.71,518.87 1157.82,518.87 1158.92,518.87 1160.03,518.87 1161.14,518.87 1162.25,518.87 1163.35,518.87 1164.46,518.87 1165.57,518.87 1166.67,518.87 1167.78,518.87 1168.89,518.87 1170,518.87 1171.1,518.87 1172.21,518.87 1173.32,518.87 1174.43,518.87 1175.53,518.87 1176.64,518.87 1177.75,518.87 1178.86,518.87 1179.96,518.87 1181.07,518.87 1182.18,518.87 1183.29,518.87 1184.39,518.87 1185.5,518.87 1186.61,518.87 1187.72,518.87 1188.82,518.87 1189.93,518.87 1191.04,518.87 1192.15,518.87 1193.25,518.87 1194.36,518.87 1195.47,518.87 1196.58,518.87 1197.68,518.87 1198.79,518.87 1199.9,518.87 1201.01,518.87 1202.11,518.87 1203.22,518.87 1204.33,518.87 1205.44,518.87 1206.54,518.87 1207.65,518.87 1208.76,518.87 1209.87,518.87 1210.97,518.87 1212.08,518.87 1213.19,518.87 1214.3,518.87 1215.4,518.87 1216.51,518.87 1217.62,518.87 1218.73,518.87 1219.83,518.87 1220.94,518.87 1222.05,518.87 1223.15,518.87 1224.26,518.87 1225.37,518.87 1226.48,518.87 1227.58,518.87 1228.69,518.87 1229.8,518.87 1230.91,518.87 1232.01,518.87 1233.12,518.87 1234.23,518.87 1235.34,518.87 1236.44,518.87 1237.55,518.87 1238.66,518.87 1239.77,518.87 1240.87,518.87 1241.98,518.87 1243.09,446.756 1244.2,446.756 1245.3,446.756 1246.41,446.756 1247.52,446.756 1248.63,446.756 1249.73,446.756 1250.84,446.756 1251.95,446.756 1253.06,446.756 1254.16,446.756 1255.27,446.756 1256.38,446.756 1257.49,446.756 1258.59,446.756 1259.7,446.756 1260.81,446.756 1261.92,446.756 1263.02,446.756 1264.13,446.756 1265.24,446.756 1266.35,446.756 1267.45,446.756 1268.56,374.642 1269.67,374.642 1270.78,374.642 1271.88,374.642 1272.99,374.642 1274.1,374.642 1275.21,374.642 1276.31,374.642 1277.42,374.642 1278.53,374.642 1279.63,374.642 1280.74,374.642 1281.85,374.642 1282.96,374.642 1284.06,374.642 1285.17,374.642 1286.28,374.642 1287.39,374.642 1288.49,374.642 1289.6,374.642 1290.71,374.642 1291.82,374.642 1292.92,374.642 1294.03,374.642 1295.14,374.642 1296.25,374.642 1297.35,374.642 1298.46,374.642 1299.57,374.642 1300.68,374.642 1301.78,374.642 1302.89,374.642 1304,374.642 1305.11,374.642 1306.21,374.642 1307.32,374.642 1308.43,374.642 1309.54,374.642 1310.64,374.642 1311.75,374.642 1312.86,374.642 1313.97,374.642 1315.07,374.642 1316.18,374.642 1317.29,374.642 1318.4,374.642 1319.5,374.642 1320.61,374.642 1321.72,374.642 1322.83,374.642 1323.93,374.642 1325.04,374.642 1326.15,374.642 1327.26,374.642 1328.36,374.642 1329.47,374.642 1330.58,374.642 1331.69,374.642 1332.79,374.642 1333.9,374.642 1335.01,374.642 1336.12,374.642 1337.22,374.642 1338.33,374.642 1339.44,374.642 1340.54,374.642 1341.65,374.642 1342.76,374.642 1343.87,374.642 1344.97,374.642 1346.08,374.642 1347.19,374.642 1348.3,374.642 1349.4,374.642 1350.51,374.642 1351.62,374.642 1352.73,374.642 1353.83,374.642 1354.94,374.642 1356.05,374.642 1357.16,374.642 1358.26,374.642 1359.37,374.642 1360.48,374.642 1361.59,374.642 1362.69,374.642 1363.8,374.642 1364.91,374.642 1366.02,374.642 1367.12,374.642 1368.23,374.642 1369.34,374.642 1370.45,374.642 1371.55,374.642 1372.66,374.642 1373.77,374.642 1374.88,374.642 1375.98,374.642 1377.09,374.642 1378.2,374.642 1379.31,374.642 1380.41,374.642 1381.52,374.642 1382.63,374.642 1383.74,374.642 1384.84,374.642 1385.95,374.642 1387.06,374.642 1388.17,374.642 1389.27,374.642 1390.38,374.642 1391.49,374.642 1392.6,374.642 1393.7,374.642 1394.81,374.642 1395.92,374.642 1397.02,374.642 1398.13,374.642 1399.24,374.642 1400.35,374.642 1401.45,374.642 1402.56,374.642 1403.67,374.642 1404.78,374.642 1405.88,374.642 1406.99,374.642 1408.1,374.642 1409.21,374.642 1410.31,374.642 1411.42,374.642 1412.53,374.642 1413.64,374.642 1414.74,374.642 1415.85,374.642 1416.96,374.642 1418.07,374.642 1419.17,374.642 1420.28,374.642 1421.39,374.642 1422.5,374.642 1423.6,374.642 1424.71,374.642 1425.82,374.642 1426.93,374.642 1428.03,374.642 1429.14,374.642 1430.25,374.642 1431.36,374.642 1432.46,374.642 1433.57,374.642 1434.68,374.642 1435.79,374.642 1436.89,374.642 1438,374.642 1439.11,374.642 1440.22,374.642 1441.32,374.642 1442.43,374.642 1443.54,374.642 1444.65,374.642 1445.75,374.642 1446.86,374.642 1447.97,374.642 1449.08,374.642 1450.18,374.642 1451.29,374.642 1452.4,374.642 1453.5,374.642 1454.61,374.642 1455.72,374.642 1456.83,374.642 1457.93,374.642 1459.04,374.642 1460.15,374.642 1461.26,374.642 1462.36,374.642 1463.47,374.642 1464.58,374.642 1465.69,374.642 1466.79,374.642 1467.9,374.642 1469.01,374.642 1470.12,374.642 1471.22,374.642 1472.33,374.642 1473.44,374.642 1474.55,374.642 1475.65,374.642 1476.76,374.642 1477.87,374.642 1478.98,374.642 1480.08,374.642 1481.19,374.642 1482.3,374.642 1483.41,374.642 1484.51,374.642 1485.62,374.642 1486.73,374.642 1487.84,374.642 1488.94,374.642 1490.05,374.642 1491.16,374.642 1492.27,374.642 1493.37,374.642 1494.48,374.642 1495.59,374.642 1496.7,374.642 1497.8,374.642 1498.91,374.642 1500.02,374.642 1501.13,374.642 1502.23,374.642 1503.34,374.642 1504.45,374.642 1505.56,374.642 1506.66,374.642 1507.77,374.642 1508.88,374.642 1509.98,374.642 1511.09,374.642 1512.2,374.642 1513.31,374.642 1514.41,374.642 1515.52,374.642 1516.63,374.642 1517.74,374.642 1518.84,374.642 1519.95,374.642 1521.06,374.642 1522.17,374.642 1523.27,374.642 1524.38,374.642 1525.49,374.642 1526.6,374.642 1527.7,374.642 1528.81,374.642 1529.92,374.642 1531.03,374.642 1532.13,374.642 1533.24,374.642 1534.35,374.642 1535.46,374.642 1536.56,374.642 1537.67,374.642 1538.78,374.642 1539.89,374.642 1540.99,374.642 1542.1,374.642 1543.21,374.642 1544.32,374.642 1545.42,374.642 1546.53,374.642 1547.64,374.642 1548.75,374.642 1549.85,374.642 1550.96,374.642 1552.07,374.642 1553.18,374.642 1554.28,374.642 1555.39,374.642 1556.5,374.642 1557.61,374.642 1558.71,374.642 1559.82,374.642 1560.93,374.642 1562.04,374.642 1563.14,374.642 1564.25,374.642 1565.36,374.642 1566.47,374.642 1567.57,374.642 1568.68,374.642 1569.79,374.642 1570.89,374.642 1572,374.642 1573.11,374.642 1574.22,374.642 1575.32,374.642 1576.43,374.642 1577.54,374.642 1578.65,374.642 1579.75,374.642 1580.86,374.642 1581.97,374.642 1583.08,374.642 1584.18,374.642 1585.29,374.642 1586.4,374.642 1587.51,374.642 1588.61,374.642 1589.72,374.642 1590.83,374.642 1591.94,374.642 1593.04,374.642 1594.15,374.642 1595.26,374.642 1596.37,374.642 1597.47,374.642 1598.58,374.642 1599.69,374.642 1600.8,374.642 1601.9,374.642 1603.01,374.642 1604.12,374.642 1605.23,374.642 1606.33,374.642 1607.44,374.642 1608.55,374.642 1609.66,374.642 1610.76,374.642 1611.87,374.642 1612.98,374.642 1614.09,374.642 1615.19,374.642 1616.3,374.642 1617.41,374.642 1618.52,374.642 1619.62,374.642 1620.73,374.642 1621.84,374.642 1622.95,374.642 1624.05,374.642 1625.16,374.642 1626.27,374.642 1627.37,374.642 1628.48,374.642 1629.59,374.642 1630.7,374.642 1631.8,374.642 1632.91,374.642 1634.02,374.642 1635.13,374.642 1636.23,374.642 1637.34,374.642 1638.45,374.642 1639.56,374.642 1640.66,374.642 1641.77,374.642 1642.88,374.642 1643.99,374.642 1645.09,374.642 1646.2,374.642 1647.31,374.642 1648.42,374.642 1649.52,374.642 1650.63,374.642 1651.74,374.642 1652.85,374.642 1653.95,374.642 1655.06,374.642 1656.17,374.642 1657.28,374.642 1658.38,374.642 1659.49,374.642 1660.6,374.642 1661.71,374.642 1662.81,374.642 1663.92,374.642 1665.03,374.642 1666.14,374.642 1667.24,374.642 1668.35,374.642 1669.46,374.642 1670.57,374.642 1671.67,374.642 1672.78,374.642 1673.89,374.642 1675,374.642 1676.1,374.642 1677.21,374.642 1678.32,374.642 1679.43,374.642 1680.53,374.642 1681.64,374.642 1682.75,374.642 1683.85,374.642 1684.96,374.642 1686.07,374.642 1687.18,374.642 1688.28,374.642 1689.39,374.642 1690.5,374.642 1691.61,374.642 1692.71,374.642 1693.82,374.642 1694.93,374.642 1696.04,374.642 1697.14,374.642 1698.25,374.642 1699.36,374.642 1700.47,374.642 1701.57,374.642 1702.68,374.642 1703.79,374.642 1704.9,374.642 1706,374.642 1707.11,374.642 1708.22,374.642 1709.33,374.642 1710.43,374.642 1711.54,374.642 1712.65,374.642 1713.76,374.642 1714.86,374.642 1715.97,374.642 1717.08,374.642 1718.19,374.642 1719.29,374.642 1720.4,374.642 1721.51,374.642 1722.62,374.642 1723.72,374.642 1724.83,374.642 1725.94,374.642 1727.05,374.642 1728.15,374.642 1729.26,374.642 1730.37,374.642 1731.48,374.642 1732.58,374.642 1733.69,374.642 1734.8,374.642 1735.91,374.642 1737.01,374.642 1738.12,374.642 1739.23,374.642 1740.33,374.642 1741.44,374.642 1742.55,374.642 1743.66,374.642 1744.76,374.642 1745.87,374.642 1746.98,374.642 1748.09,374.642 1749.19,374.642 1750.3,374.642 1751.41,374.642 1752.52,374.642 1753.62,374.642 1754.73,374.642 1755.84,374.642 1756.95,374.642 1758.05,374.642 1759.16,374.642 1760.27,374.642 1761.38,374.642 1762.48,374.642 1763.59,374.642 1764.7,374.642 1765.81,302.528 1766.91,302.528 1768.02,302.528 1769.13,302.528 1770.24,302.528 1771.34,302.528 1772.45,302.528 1773.56,302.528 1774.67,302.528 1775.77,302.528 1776.88,302.528 1777.99,302.528 1779.1,302.528 1780.2,302.528 1781.31,302.528 1782.42,302.528 1783.53,302.528 1784.63,302.528 1785.74,302.528 1786.85,302.528 1787.96,302.528 1789.06,302.528 1790.17,302.528 1791.28,302.528 1792.39,302.528 1793.49,302.528 1794.6,302.528 1795.71,302.528 1796.82,302.528 1797.92,302.528 1799.03,302.528 1800.14,302.528 1801.24,302.528 1802.35,302.528 1803.46,302.528 1804.57,302.528 1805.67,302.528 1806.78,302.528 1807.89,302.528 1809,302.528 1810.1,302.528 1811.21,302.528 1812.32,302.528 1813.43,302.528 1814.53,302.528 1815.64,302.528 1816.75,302.528 1817.86,302.528 1818.96,302.528 1820.07,302.528 1821.18,302.528 1822.29,302.528 1823.39,302.528 1824.5,302.528 1825.61,302.528 1826.72,302.528 1827.82,302.528 1828.93,302.528 1830.04,302.528 1831.15,302.528 1832.25,302.528 1833.36,302.528 1834.47,302.528 1835.58,302.528 1836.68,302.528 1837.79,302.528 1838.9,302.528 1840.01,302.528 1841.11,302.528 1842.22,302.528 1843.33,302.528 1844.44,302.528 1845.54,302.528 1846.65,302.528 1847.76,302.528 1848.87,302.528 1849.97,302.528 1851.08,302.528 1852.19,302.528 1853.3,302.528 1854.4,302.528 1855.51,302.528 1856.62,302.528 1857.72,302.528 1858.83,302.528 1859.94,302.528 1861.05,302.528 1862.15,302.528 1863.26,302.528 1864.37,302.528 1865.48,302.528 1866.58,302.528 1867.69,302.528 1868.8,302.528 1869.91,302.528 1871.01,302.528 1872.12,302.528 1873.23,302.528 1874.34,302.528 1875.44,302.528 1876.55,302.528 1877.66,302.528 1878.77,302.528 1879.87,302.528 1880.98,302.528 1882.09,302.528 1883.2,302.528 1884.3,302.528 1885.41,302.528 1886.52,302.528 1887.63,302.528 1888.73,302.528 1889.84,302.528 1890.95,302.528 1892.06,302.528 1893.16,302.528 1894.27,302.528 1895.38,302.528 1896.49,302.528 1897.59,302.528 1898.7,302.528 1899.81,302.528 1900.92,302.528 1902.02,302.528 1903.13,302.528 1904.24,302.528 1905.35,302.528 1906.45,302.528 1907.56,302.528 1908.67,302.528 1909.78,302.528 1910.88,302.528 1911.99,302.528 1913.1,302.528 1914.2,302.528 1915.31,302.528 1916.42,302.528 1917.53,302.528 1918.63,302.528 1919.74,302.528 1920.85,302.528 1921.96,302.528 1923.06,302.528 1924.17,302.528 1925.28,302.528 1926.39,302.528 1927.49,302.528 1928.6,302.528 1929.71,302.528 1930.82,302.528 1931.92,302.528 1933.03,302.528 1934.14,302.528 1935.25,302.528 1936.35,302.528 1937.46,302.528 1938.57,302.528 1939.68,302.528 1940.78,302.528 1941.89,302.528 1943,302.528 1944.11,302.528 1945.21,302.528 1946.32,302.528 1947.43,302.528 1948.54,302.528 1949.64,302.528 1950.75,302.528 1951.86,302.528 1952.97,302.528 1954.07,302.528 1955.18,302.528 1956.29,302.528 1957.4,302.528 1958.5,302.528 1959.61,302.528 1960.72,302.528 1961.83,302.528 1962.93,302.528 1964.04,302.528 1965.15,302.528 1966.26,302.528 1967.36,302.528 1968.47,302.528 1969.58,302.528 1970.68,302.528 1971.79,302.528 1972.9,302.528 1974.01,302.528 1975.11,302.528 1976.22,302.528 1977.33,302.528 1978.44,302.528 1979.54,302.528 1980.65,302.528 1981.76,302.528 1982.87,302.528 1983.97,302.528 1985.08,302.528 1986.19,302.528 1987.3,302.528 1988.4,302.528 1989.51,302.528 1990.62,302.528 1991.73,302.528 1992.83,302.528 1993.94,302.528 1995.05,302.528 1996.16,302.528 1997.26,302.528 1998.37,302.528 1999.48,302.528 2000.59,302.528 2001.69,302.528 2002.8,302.528 2003.91,302.528 2005.02,302.528 2006.12,302.528 2007.23,302.528 2008.34,302.528 2009.45,302.528 2010.55,302.528 2011.66,302.528 2012.77,302.528 2013.88,302.528 2014.98,302.528 2016.09,302.528 2017.2,302.528 2018.31,302.528 2019.41,302.528 2020.52,302.528 2021.63,302.528 2022.74,302.528 2023.84,302.528 2024.95,302.528 2026.06,302.528 2027.17,302.528 2028.27,302.528 2029.38,302.528 2030.49,302.528 2031.59,302.528 2032.7,302.528 2033.81,302.528 2034.92,302.528 2036.02,302.528 2037.13,302.528 2038.24,302.528 2039.35,302.528 2040.45,302.528 2041.56,302.528 2042.67,302.528 2043.78,302.528 2044.88,302.528 2045.99,302.528 2047.1,302.528 2048.21,302.528 2049.31,302.528 2050.42,302.528 2051.53,302.528 2052.64,302.528 2053.74,302.528 2054.85,302.528 2055.96,302.528 2057.07,302.528 2058.17,302.528 2059.28,302.528 2060.39,302.528 2061.5,302.528 2062.6,302.528 2063.71,302.528 2064.82,302.528 2065.93,302.528 2067.03,302.528 2068.14,302.528 2069.25,302.528 2070.36,302.528 2071.46,302.528 2072.57,302.528 2073.68,230.414 2074.79,230.414 2075.89,230.414 2077,230.414 2078.11,230.414 2079.22,230.414 2080.32,230.414 2081.43,230.414 2082.54,230.414 2083.65,230.414 2084.75,230.414 2085.86,230.414 2086.97,230.414 2088.07,230.414 2089.18,230.414 2090.29,230.414 2091.4,230.414 2092.5,230.414 2093.61,230.414 2094.72,230.414 2095.83,230.414 2096.93,230.414 2098.04,230.414 2099.15,230.414 2100.26,158.3 2101.36,158.3 2102.47,158.3 2103.58,158.3 2104.69,158.3 2105.79,158.3 2106.9,158.3 2108.01,158.3 2109.12,158.3 2110.22,158.3 2111.33,158.3 2112.44,158.3 2113.55,158.3 2114.65,158.3 2115.76,158.3 2116.87,158.3 2117.98,158.3 2119.08,158.3 2120.19,158.3 2121.3,158.3 2122.41,158.3 2123.51,158.3 2124.62,158.3 2125.73,158.3 2126.84,158.3 2127.94,158.3 2129.05,158.3 2130.16,158.3 2131.27,158.3 2132.37,158.3 2133.48,158.3 2134.59,158.3 2135.7,158.3 2136.8,158.3 2137.91,158.3 2139.02,158.3 2140.13,158.3 2141.23,158.3 2142.34,158.3 2143.45,158.3 2144.55,158.3 2145.66,158.3 2146.77,158.3 2147.88,158.3 2148.98,158.3 2150.09,158.3 2151.2,158.3 2152.31,158.3 2153.41,158.3 2154.52,158.3 2155.63,158.3 2156.74,158.3 2157.84,158.3 2158.95,158.3 2160.06,158.3 2161.17,158.3 2162.27,158.3 2163.38,158.3 2164.49,158.3 2165.6,158.3 2166.7,158.3 2167.81,158.3 2168.92,158.3 2170.03,158.3 2171.13,158.3 2172.24,158.3 2173.35,158.3 2174.46,158.3 2175.56,158.3 2176.67,158.3 2177.78,158.3 2178.89,158.3 2179.99,158.3 2181.1,158.3 2182.21,158.3 2183.32,158.3 2184.42,86.1857 2185.53,86.1857 2186.64,86.1857 2187.75,86.1857 2188.85,86.1857 2189.96,86.1857 2191.07,86.1857 2192.18,86.1857 2193.28,86.1857 2194.39,86.1857 2195.5,86.1857 2196.61,86.1857 2197.71,86.1857 2198.82,86.1857 2199.93,86.1857 2201.03,86.1857 2202.14,86.1857 2203.25,86.1857 2204.36,86.1857 2205.46,86.1857 2206.57,86.1857 2207.68,86.1857 2208.79,86.1857 2209.89,86.1857 2211,86.1857 2212.11,86.1857 2213.22,86.1857 2214.32,86.1857 2215.43,86.1857 2216.54,86.1857 2217.65,86.1857 2218.75,86.1857 2219.86,86.1857 2220.97,86.1857 2222.08,86.1857 2223.18,86.1857 2224.29,86.1857 2225.4,86.1857 2226.51,86.1857 2227.61,86.1857 2228.72,86.1857 2229.83,86.1857 2230.94,86.1857 2232.04,86.1857 2233.15,86.1857 2234.26,86.1857 2235.37,86.1857 2236.47,86.1857 2237.58,86.1857 2238.69,86.1857 2239.8,86.1857 2240.9,86.1857 2242.01,86.1857 2243.12,86.1857 2244.23,86.1857 2245.33,86.1857 2246.44,86.1857 2247.55,86.1857 2248.66,86.1857 2249.76,86.1857 2250.87,86.1857 2251.98,86.1857 2253.09,86.1857 2254.19,86.1857 2255.3,86.1857 2256.41,86.1857 2257.52,86.1857 2258.62,86.1857 2259.73,86.1857 2260.84,86.1857 2261.94,86.1857 2263.05,86.1857 2264.16,86.1857 2265.27,86.1857 2266.37,86.1857 2267.48,86.1857 2268.59,86.1857 2269.7,86.1857 2270.8,86.1857 2271.91,86.1857 2273.02,86.1857 2274.13,86.1857 2275.23,86.1857 2276.34,86.1857 2277.45,86.1857 2278.56,86.1857 2279.66,86.1857 2280.77,86.1857 2281.88,86.1857 2282.99,86.1857 2284.09,86.1857 2285.2,86.1857 2286.31,86.1857 2287.42,86.1857 2288.52,86.1857 2289.63,86.1857 2290.74,86.1857 2291.85,86.1857 2292.95,86.1857 2294.06,86.1857 2295.17,86.1857 2296.28,86.1857 2297.38,86.1857 2298.49,86.1857 2299.6,86.1857 2300.71,86.1857 2301.81,86.1857 2302.92,86.1857 2304.03,86.1857 2305.14,86.1857 2306.24,86.1857 2307.35,86.1857 2308.46,86.1857 2309.57,86.1857 2310.67,86.1857 2311.78,86.1857 2312.89,86.1857 2314,86.1857 2315.1,86.1857 2316.21,86.1857 2317.32,86.1857 2318.42,86.1857 2319.53,86.1857 2320.64,86.1857 2321.75,86.1857 2322.85,86.1857 2323.96,86.1857 2325.07,86.1857 2326.18,86.1857 2327.28,86.1857 2328.39,86.1857 2329.5,86.1857 2330.61,86.1857 2331.71,86.1857 2332.82,86.1857 2333.93,86.1857 2335.04,86.1857 2336.14,86.1857 2337.25,86.1857 2338.36,86.1857 2339.47,86.1857 2340.57,86.1857 2341.68,86.1857 2342.79,86.1857 2343.9,86.1857 2345,86.1857 2346.11,86.1857 2347.22,86.1857 2348.33,86.1857 2349.43,86.1857 2350.54,86.1857 2351.65,86.1857 2352.76,86.1857 "/>
<path clip-path="url(#clip940)" d="M1975.27 1377.32 L2278.96 1377.32 L2278.96 1273.64 L1975.27 1273.64  Z" fill="#ffffff" fill-rule="evenodd" fill-opacity="1"/>
<polyline clip-path="url(#clip940)" style="stroke:#000000; stroke-linecap:round; stroke-linejoin:round; stroke-width:4; stroke-opacity:1; fill:none" points="1975.27,1377.32 2278.96,1377.32 2278.96,1273.64 1975.27,1273.64 1975.27,1377.32 "/>
<polyline clip-path="url(#clip940)" style="stroke:#009af9; stroke-linecap:round; stroke-linejoin:round; stroke-width:8; stroke-opacity:1; fill:none" points="1999.87,1325.48 2147.45,1325.48 "/>
<path clip-path="url(#clip940)" d="M2172.05 1308.2 L2178.35 1308.2 L2193.67 1337.11 L2193.67 1308.2 L2198.21 1308.2 L2198.21 1342.76 L2191.91 1342.76 L2176.59 1313.84 L2176.59 1342.76 L2172.05 1342.76 L2172.05 1308.2 Z" fill="#000000" fill-rule="nonzero" fill-opacity="1" /><path clip-path="url(#clip940)" d="M2217.56 1306.78 Q2214.46 1312.11 2212.95 1317.32 Q2211.45 1322.52 2211.45 1327.87 Q2211.45 1333.22 2212.95 1338.47 Q2214.48 1343.7 2217.56 1349.01 L2213.86 1349.01 Q2210.38 1343.57 2208.65 1338.31 Q2206.93 1333.06 2206.93 1327.87 Q2206.93 1322.71 2208.65 1317.48 Q2210.36 1312.25 2213.86 1306.78 L2217.56 1306.78 Z" fill="#000000" fill-rule="nonzero" fill-opacity="1" /><path clip-path="url(#clip940)" d="M2230.04 1309.47 L2230.04 1316.83 L2238.81 1316.83 L2238.81 1320.14 L2230.04 1320.14 L2230.04 1334.21 Q2230.04 1337.38 2230.89 1338.29 Q2231.77 1339.19 2234.43 1339.19 L2238.81 1339.19 L2238.81 1342.76 L2234.43 1342.76 Q2229.5 1342.76 2227.63 1340.93 Q2225.75 1339.07 2225.75 1334.21 L2225.75 1320.14 L2222.63 1320.14 L2222.63 1316.83 L2225.75 1316.83 L2225.75 1309.47 L2230.04 1309.47 Z" fill="#000000" fill-rule="nonzero" fill-opacity="1" /><path clip-path="url(#clip940)" d="M2243.74 1306.78 L2247.44 1306.78 Q2250.92 1312.25 2252.63 1317.48 Q2254.36 1322.71 2254.36 1327.87 Q2254.36 1333.06 2252.63 1338.31 Q2250.92 1343.57 2247.44 1349.01 L2243.74 1349.01 Q2246.82 1343.7 2248.32 1338.47 Q2249.85 1333.22 2249.85 1327.87 Q2249.85 1322.52 2248.32 1317.32 Q2246.82 1312.11 2243.74 1306.78 Z" fill="#000000" fill-rule="nonzero" fill-opacity="1" /></svg>
