<?xml version="1.0" encoding="utf-8"?>
<svg xmlns="http://www.w3.org/2000/svg" xmlns:xlink="http://www.w3.org/1999/xlink" width="600" height="400" viewBox="0 0 2400 1600">
<defs>
  <clipPath id="clip670">
    <rect x="0" y="0" width="2400" height="1600"/>
  </clipPath>
</defs>
<path clip-path="url(#clip670)" d="M0 1600 L2400 1600 L2400 0 L0 0  Z" fill="#ffffff" fill-rule="evenodd" fill-opacity="1"/>
<defs>
  <clipPath id="clip671">
    <rect x="480" y="0" width="1681" height="1600"/>
  </clipPath>
</defs>
<path clip-path="url(#clip670)" d="M140.696 1423.18 L2352.76 1423.18 L2352.76 47.2441 L140.696 47.2441  Z" fill="#ffffff" fill-rule="evenodd" fill-opacity="1"/>
<defs>
  <clipPath id="clip672">
    <rect x="140" y="47" width="2213" height="1377"/>
  </clipPath>
</defs>
<polyline clip-path="url(#clip672)" style="stroke:#000000; stroke-linecap:round; stroke-linejoin:round; stroke-width:2; stroke-opacity:0.1; fill:none" points="140.696,1423.18 140.696,47.2441 "/>
<polyline clip-path="url(#clip672)" style="stroke:#000000; stroke-linecap:round; stroke-linejoin:round; stroke-width:2; stroke-opacity:0.1; fill:none" points="583.108,1423.18 583.108,47.2441 "/>
<polyline clip-path="url(#clip672)" style="stroke:#000000; stroke-linecap:round; stroke-linejoin:round; stroke-width:2; stroke-opacity:0.1; fill:none" points="1025.52,1423.18 1025.52,47.2441 "/>
<polyline clip-path="url(#clip672)" style="stroke:#000000; stroke-linecap:round; stroke-linejoin:round; stroke-width:2; stroke-opacity:0.1; fill:none" points="1467.93,1423.18 1467.93,47.2441 "/>
<polyline clip-path="url(#clip672)" style="stroke:#000000; stroke-linecap:round; stroke-linejoin:round; stroke-width:2; stroke-opacity:0.1; fill:none" points="1910.34,1423.18 1910.34,47.2441 "/>
<polyline clip-path="url(#clip672)" style="stroke:#000000; stroke-linecap:round; stroke-linejoin:round; stroke-width:2; stroke-opacity:0.1; fill:none" points="2352.76,1423.18 2352.76,47.2441 "/>
<polyline clip-path="url(#clip672)" style="stroke:#000000; stroke-linecap:round; stroke-linejoin:round; stroke-width:2; stroke-opacity:0.1; fill:none" points="140.696,1384.24 2352.76,1384.24 "/>
<polyline clip-path="url(#clip672)" style="stroke:#000000; stroke-linecap:round; stroke-linejoin:round; stroke-width:2; stroke-opacity:0.1; fill:none" points="140.696,1075.18 2352.76,1075.18 "/>
<polyline clip-path="url(#clip672)" style="stroke:#000000; stroke-linecap:round; stroke-linejoin:round; stroke-width:2; stroke-opacity:0.1; fill:none" points="140.696,766.118 2352.76,766.118 "/>
<polyline clip-path="url(#clip672)" style="stroke:#000000; stroke-linecap:round; stroke-linejoin:round; stroke-width:2; stroke-opacity:0.1; fill:none" points="140.696,457.058 2352.76,457.058 "/>
<polyline clip-path="url(#clip672)" style="stroke:#000000; stroke-linecap:round; stroke-linejoin:round; stroke-width:2; stroke-opacity:0.1; fill:none" points="140.696,147.998 2352.76,147.998 "/>
<polyline clip-path="url(#clip670)" style="stroke:#000000; stroke-linecap:round; stroke-linejoin:round; stroke-width:4; stroke-opacity:1; fill:none" points="140.696,1423.18 2352.76,1423.18 "/>
<polyline clip-path="url(#clip670)" style="stroke:#000000; stroke-linecap:round; stroke-linejoin:round; stroke-width:4; stroke-opacity:1; fill:none" points="140.696,1423.18 140.696,1404.28 "/>
<polyline clip-path="url(#clip670)" style="stroke:#000000; stroke-linecap:round; stroke-linejoin:round; stroke-width:4; stroke-opacity:1; fill:none" points="583.108,1423.18 583.108,1404.28 "/>
<polyline clip-path="url(#clip670)" style="stroke:#000000; stroke-linecap:round; stroke-linejoin:round; stroke-width:4; stroke-opacity:1; fill:none" points="1025.52,1423.18 1025.52,1404.28 "/>
<polyline clip-path="url(#clip670)" style="stroke:#000000; stroke-linecap:round; stroke-linejoin:round; stroke-width:4; stroke-opacity:1; fill:none" points="1467.93,1423.18 1467.93,1404.28 "/>
<polyline clip-path="url(#clip670)" style="stroke:#000000; stroke-linecap:round; stroke-linejoin:round; stroke-width:4; stroke-opacity:1; fill:none" points="1910.34,1423.18 1910.34,1404.28 "/>
<polyline clip-path="url(#clip670)" style="stroke:#000000; stroke-linecap:round; stroke-linejoin:round; stroke-width:4; stroke-opacity:1; fill:none" points="2352.76,1423.18 2352.76,1404.28 "/>
<path clip-path="url(#clip670)" d="M140.696 1454.1 Q137.084 1454.1 135.256 1457.66 Q133.45 1461.2 133.45 1468.33 Q133.45 1475.44 135.256 1479.01 Q137.084 1482.55 140.696 1482.55 Q144.33 1482.55 146.135 1479.01 Q147.964 1475.44 147.964 1468.33 Q147.964 1461.2 146.135 1457.66 Q144.33 1454.1 140.696 1454.1 M140.696 1450.39 Q146.506 1450.39 149.561 1455 Q152.64 1459.58 152.64 1468.33 Q152.64 1477.06 149.561 1481.67 Q146.506 1486.25 140.696 1486.25 Q134.885 1486.25 131.807 1481.67 Q128.751 1477.06 128.751 1468.33 Q128.751 1459.58 131.807 1455 Q134.885 1450.39 140.696 1450.39 Z" fill="#000000" fill-rule="nonzero" fill-opacity="1" /><path clip-path="url(#clip670)" d="M577.76 1481.64 L594.08 1481.64 L594.08 1485.58 L572.135 1485.58 L572.135 1481.64 Q574.797 1478.89 579.381 1474.26 Q583.987 1469.61 585.168 1468.27 Q587.413 1465.74 588.293 1464.01 Q589.196 1462.25 589.196 1460.56 Q589.196 1457.8 587.251 1456.07 Q585.33 1454.33 582.228 1454.33 Q580.029 1454.33 577.575 1455.09 Q575.145 1455.86 572.367 1457.41 L572.367 1452.69 Q575.191 1451.55 577.645 1450.97 Q580.098 1450.39 582.135 1450.39 Q587.506 1450.39 590.7 1453.08 Q593.895 1455.77 593.895 1460.26 Q593.895 1462.39 593.084 1464.31 Q592.297 1466.2 590.191 1468.8 Q589.612 1469.47 586.51 1472.69 Q583.409 1475.88 577.76 1481.64 Z" fill="#000000" fill-rule="nonzero" fill-opacity="1" /><path clip-path="url(#clip670)" d="M1028.53 1455.09 L1016.72 1473.54 L1028.53 1473.54 L1028.53 1455.09 M1027.3 1451.02 L1033.18 1451.02 L1033.18 1473.54 L1038.11 1473.54 L1038.11 1477.43 L1033.18 1477.43 L1033.18 1485.58 L1028.53 1485.58 L1028.53 1477.43 L1012.93 1477.43 L1012.93 1472.92 L1027.3 1451.02 Z" fill="#000000" fill-rule="nonzero" fill-opacity="1" /><path clip-path="url(#clip670)" d="M1468.34 1466.44 Q1465.19 1466.44 1463.34 1468.59 Q1461.51 1470.74 1461.51 1474.49 Q1461.51 1478.22 1463.34 1480.39 Q1465.19 1482.55 1468.34 1482.55 Q1471.48 1482.55 1473.31 1480.39 Q1475.17 1478.22 1475.17 1474.49 Q1475.17 1470.74 1473.31 1468.59 Q1471.48 1466.44 1468.34 1466.44 M1477.62 1451.78 L1477.62 1456.04 Q1475.86 1455.21 1474.05 1454.77 Q1472.27 1454.33 1470.51 1454.33 Q1465.88 1454.33 1463.43 1457.45 Q1461 1460.58 1460.65 1466.9 Q1462.02 1464.89 1464.08 1463.82 Q1466.14 1462.73 1468.61 1462.73 Q1473.82 1462.73 1476.83 1465.9 Q1479.86 1469.05 1479.86 1474.49 Q1479.86 1479.82 1476.72 1483.03 Q1473.57 1486.25 1468.34 1486.25 Q1462.34 1486.25 1459.17 1481.67 Q1456 1477.06 1456 1468.33 Q1456 1460.14 1459.89 1455.28 Q1463.78 1450.39 1470.33 1450.39 Q1472.09 1450.39 1473.87 1450.74 Q1475.67 1451.09 1477.62 1451.78 Z" fill="#000000" fill-rule="nonzero" fill-opacity="1" /><path clip-path="url(#clip670)" d="M1910.34 1469.17 Q1907.01 1469.17 1905.09 1470.95 Q1903.19 1472.73 1903.19 1475.86 Q1903.19 1478.98 1905.09 1480.77 Q1907.01 1482.55 1910.34 1482.55 Q1913.68 1482.55 1915.6 1480.77 Q1917.52 1478.96 1917.52 1475.86 Q1917.52 1472.73 1915.6 1470.95 Q1913.7 1469.17 1910.34 1469.17 M1905.67 1467.18 Q1902.66 1466.44 1900.97 1464.38 Q1899.3 1462.32 1899.3 1459.35 Q1899.3 1455.21 1902.24 1452.8 Q1905.2 1450.39 1910.34 1450.39 Q1915.51 1450.39 1918.45 1452.8 Q1921.39 1455.21 1921.39 1459.35 Q1921.39 1462.32 1919.7 1464.38 Q1918.03 1466.44 1915.04 1467.18 Q1918.42 1467.96 1920.3 1470.26 Q1922.2 1472.55 1922.2 1475.86 Q1922.2 1480.88 1919.12 1483.57 Q1916.06 1486.25 1910.34 1486.25 Q1904.63 1486.25 1901.55 1483.57 Q1898.49 1480.88 1898.49 1475.86 Q1898.49 1472.55 1900.39 1470.26 Q1902.29 1467.96 1905.67 1467.18 M1903.95 1459.79 Q1903.95 1462.48 1905.62 1463.98 Q1907.31 1465.49 1910.34 1465.49 Q1913.35 1465.49 1915.04 1463.98 Q1916.76 1462.48 1916.76 1459.79 Q1916.76 1457.11 1915.04 1455.6 Q1913.35 1454.1 1910.34 1454.1 Q1907.31 1454.1 1905.62 1455.6 Q1903.95 1457.11 1903.95 1459.79 Z" fill="#000000" fill-rule="nonzero" fill-opacity="1" /><path clip-path="url(#clip670)" d="M2327.44 1481.64 L2335.08 1481.64 L2335.08 1455.28 L2326.77 1456.95 L2326.77 1452.69 L2335.04 1451.02 L2339.71 1451.02 L2339.71 1481.64 L2347.35 1481.64 L2347.35 1485.58 L2327.44 1485.58 L2327.44 1481.64 Z" fill="#000000" fill-rule="nonzero" fill-opacity="1" /><path clip-path="url(#clip670)" d="M2366.8 1454.1 Q2363.18 1454.1 2361.36 1457.66 Q2359.55 1461.2 2359.55 1468.33 Q2359.55 1475.44 2361.36 1479.01 Q2363.18 1482.55 2366.8 1482.55 Q2370.43 1482.55 2372.23 1479.01 Q2374.06 1475.44 2374.06 1468.33 Q2374.06 1461.2 2372.23 1457.66 Q2370.43 1454.1 2366.8 1454.1 M2366.8 1450.39 Q2372.61 1450.39 2375.66 1455 Q2378.74 1459.58 2378.74 1468.33 Q2378.74 1477.06 2375.66 1481.67 Q2372.61 1486.25 2366.8 1486.25 Q2360.99 1486.25 2357.91 1481.67 Q2354.85 1477.06 2354.85 1468.33 Q2354.85 1459.58 2357.91 1455 Q2360.99 1450.39 2366.8 1450.39 Z" fill="#000000" fill-rule="nonzero" fill-opacity="1" /><path clip-path="url(#clip670)" d="M1245.79 1522.27 L1245.79 1532.4 L1257.85 1532.4 L1257.85 1536.95 L1245.79 1536.95 L1245.79 1556.3 Q1245.79 1560.66 1246.96 1561.9 Q1248.17 1563.14 1251.83 1563.14 L1257.85 1563.14 L1257.85 1568.04 L1251.83 1568.04 Q1245.05 1568.04 1242.48 1565.53 Q1239.9 1562.98 1239.9 1556.3 L1239.9 1536.95 L1235.6 1536.95 L1235.6 1532.4 L1239.9 1532.4 L1239.9 1522.27 L1245.79 1522.27 Z" fill="#000000" fill-rule="nonzero" fill-opacity="1" /><polyline clip-path="url(#clip670)" style="stroke:#000000; stroke-linecap:round; stroke-linejoin:round; stroke-width:4; stroke-opacity:1; fill:none" points="140.696,1423.18 140.696,47.2441 "/>
<polyline clip-path="url(#clip670)" style="stroke:#000000; stroke-linecap:round; stroke-linejoin:round; stroke-width:4; stroke-opacity:1; fill:none" points="140.696,1384.24 159.593,1384.24 "/>
<polyline clip-path="url(#clip670)" style="stroke:#000000; stroke-linecap:round; stroke-linejoin:round; stroke-width:4; stroke-opacity:1; fill:none" points="140.696,1075.18 159.593,1075.18 "/>
<polyline clip-path="url(#clip670)" style="stroke:#000000; stroke-linecap:round; stroke-linejoin:round; stroke-width:4; stroke-opacity:1; fill:none" points="140.696,766.118 159.593,766.118 "/>
<polyline clip-path="url(#clip670)" style="stroke:#000000; stroke-linecap:round; stroke-linejoin:round; stroke-width:4; stroke-opacity:1; fill:none" points="140.696,457.058 159.593,457.058 "/>
<polyline clip-path="url(#clip670)" style="stroke:#000000; stroke-linecap:round; stroke-linejoin:round; stroke-width:4; stroke-opacity:1; fill:none" points="140.696,147.998 159.593,147.998 "/>
<path clip-path="url(#clip670)" d="M92.7512 1370.04 Q89.1401 1370.04 87.3114 1373.6 Q85.5058 1377.14 85.5058 1384.27 Q85.5058 1391.38 87.3114 1394.94 Q89.1401 1398.49 92.7512 1398.49 Q96.3854 1398.49 98.1909 1394.94 Q100.02 1391.38 100.02 1384.27 Q100.02 1377.14 98.1909 1373.6 Q96.3854 1370.04 92.7512 1370.04 M92.7512 1366.33 Q98.5613 1366.33 101.617 1370.94 Q104.696 1375.52 104.696 1384.27 Q104.696 1393 101.617 1397.61 Q98.5613 1402.19 92.7512 1402.19 Q86.941 1402.19 83.8623 1397.61 Q80.8068 1393 80.8068 1384.27 Q80.8068 1375.52 83.8623 1370.94 Q86.941 1366.33 92.7512 1366.33 Z" fill="#000000" fill-rule="nonzero" fill-opacity="1" /><path clip-path="url(#clip670)" d="M83.7929 1057.9 L102.149 1057.9 L102.149 1061.83 L88.0753 1061.83 L88.0753 1070.31 Q89.0938 1069.96 90.1123 1069.8 Q91.1308 1069.61 92.1493 1069.61 Q97.9363 1069.61 101.316 1072.78 Q104.696 1075.95 104.696 1081.37 Q104.696 1086.95 101.223 1090.05 Q97.7511 1093.13 91.4317 1093.13 Q89.2558 1093.13 86.9873 1092.76 Q84.7419 1092.39 82.3346 1091.65 L82.3346 1086.95 Q84.4179 1088.08 86.6401 1088.64 Q88.8623 1089.19 91.3391 1089.19 Q95.3437 1089.19 97.6817 1087.09 Q100.02 1084.98 100.02 1081.37 Q100.02 1077.76 97.6817 1075.65 Q95.3437 1073.55 91.3391 1073.55 Q89.4641 1073.55 87.5892 1073.96 Q85.7373 1074.38 83.7929 1075.26 L83.7929 1057.9 Z" fill="#000000" fill-rule="nonzero" fill-opacity="1" /><path clip-path="url(#clip670)" d="M53.3995 779.463 L61.0384 779.463 L61.0384 753.097 L52.7282 754.764 L52.7282 750.505 L60.9921 748.838 L65.668 748.838 L65.668 779.463 L73.3068 779.463 L73.3068 783.398 L53.3995 783.398 L53.3995 779.463 Z" fill="#000000" fill-rule="nonzero" fill-opacity="1" /><path clip-path="url(#clip670)" d="M92.7512 751.917 Q89.1401 751.917 87.3114 755.481 Q85.5058 759.023 85.5058 766.153 Q85.5058 773.259 87.3114 776.824 Q89.1401 780.366 92.7512 780.366 Q96.3854 780.366 98.1909 776.824 Q100.02 773.259 100.02 766.153 Q100.02 759.023 98.1909 755.481 Q96.3854 751.917 92.7512 751.917 M92.7512 748.213 Q98.5613 748.213 101.617 752.819 Q104.696 757.403 104.696 766.153 Q104.696 774.88 101.617 779.486 Q98.5613 784.069 92.7512 784.069 Q86.941 784.069 83.8623 779.486 Q80.8068 774.88 80.8068 766.153 Q80.8068 757.403 83.8623 752.819 Q86.941 748.213 92.7512 748.213 Z" fill="#000000" fill-rule="nonzero" fill-opacity="1" /><path clip-path="url(#clip670)" d="M54.3949 470.403 L62.0337 470.403 L62.0337 444.037 L53.7236 445.704 L53.7236 441.444 L61.9874 439.778 L66.6633 439.778 L66.6633 470.403 L74.3022 470.403 L74.3022 474.338 L54.3949 474.338 L54.3949 470.403 Z" fill="#000000" fill-rule="nonzero" fill-opacity="1" /><path clip-path="url(#clip670)" d="M83.7929 439.778 L102.149 439.778 L102.149 443.713 L88.0753 443.713 L88.0753 452.185 Q89.0938 451.838 90.1123 451.676 Q91.1308 451.491 92.1493 451.491 Q97.9363 451.491 101.316 454.662 Q104.696 457.833 104.696 463.25 Q104.696 468.829 101.223 471.93 Q97.7511 475.009 91.4317 475.009 Q89.2558 475.009 86.9873 474.639 Q84.7419 474.268 82.3346 473.528 L82.3346 468.829 Q84.4179 469.963 86.6401 470.518 Q88.8623 471.074 91.3391 471.074 Q95.3437 471.074 97.6817 468.967 Q100.02 466.861 100.02 463.25 Q100.02 459.639 97.6817 457.532 Q95.3437 455.426 91.3391 455.426 Q89.4641 455.426 87.5892 455.843 Q85.7373 456.259 83.7929 457.139 L83.7929 439.778 Z" fill="#000000" fill-rule="nonzero" fill-opacity="1" /><path clip-path="url(#clip670)" d="M56.6171 161.343 L72.9365 161.343 L72.9365 165.278 L50.9921 165.278 L50.9921 161.343 Q53.6541 158.588 58.2375 153.958 Q62.8439 149.306 64.0245 147.963 Q66.2698 145.44 67.1494 143.704 Q68.0522 141.944 68.0522 140.255 Q68.0522 137.5 66.1078 135.764 Q64.1865 134.028 61.0847 134.028 Q58.8856 134.028 56.4319 134.792 Q54.0014 135.556 51.2236 137.107 L51.2236 132.384 Q54.0477 131.25 56.5014 130.671 Q58.955 130.093 60.9921 130.093 Q66.3624 130.093 69.5568 132.778 Q72.7513 135.463 72.7513 139.954 Q72.7513 142.083 71.9411 144.005 Q71.1541 145.903 69.0476 148.495 Q68.4689 149.167 65.367 152.384 Q62.2652 155.579 56.6171 161.343 Z" fill="#000000" fill-rule="nonzero" fill-opacity="1" /><path clip-path="url(#clip670)" d="M92.7512 133.796 Q89.1401 133.796 87.3114 137.361 Q85.5058 140.903 85.5058 148.032 Q85.5058 155.139 87.3114 158.704 Q89.1401 162.245 92.7512 162.245 Q96.3854 162.245 98.1909 158.704 Q100.02 155.139 100.02 148.032 Q100.02 140.903 98.1909 137.361 Q96.3854 133.796 92.7512 133.796 M92.7512 130.093 Q98.5613 130.093 101.617 134.699 Q104.696 139.282 104.696 148.032 Q104.696 156.759 101.617 161.366 Q98.5613 165.949 92.7512 165.949 Q86.941 165.949 83.8623 161.366 Q80.8068 156.759 80.8068 148.032 Q80.8068 139.282 83.8623 134.699 Q86.941 130.093 92.7512 130.093 Z" fill="#000000" fill-rule="nonzero" fill-opacity="1" /><polyline clip-path="url(#clip672)" style="stroke:#009af9; stroke-linecap:round; stroke-linejoin:round; stroke-width:8; stroke-opacity:1; fill:none" points="140.696,1384.24 142.91,1384.24 145.124,1384.24 147.338,1384.24 149.553,1384.24 151.767,1384.24 153.981,1384.24 156.195,1384.24 158.41,1384.24 160.624,1384.24 162.838,1384.24 165.053,1384.24 167.267,1384.24 169.481,1384.24 171.695,1384.24 173.91,1384.24 176.124,1384.24 178.338,1384.24 180.552,1384.24 182.767,1384.24 184.981,1384.24 187.195,1384.24 189.41,1384.24 191.624,1384.24 193.838,1384.24 196.052,1384.24 198.267,1384.24 200.481,1384.24 202.695,1384.24 204.91,1384.24 207.124,1384.24 209.338,1384.24 211.552,1384.24 213.767,1384.24 215.981,1384.24 218.195,1384.24 220.409,1384.24 222.624,1384.24 224.838,1384.24 227.052,1384.24 229.267,1384.24 231.481,1384.24 233.695,1384.24 235.909,1384.24 238.124,1384.24 240.338,1384.24 242.552,1384.24 244.766,1384.24 246.981,1384.24 249.195,1384.24 251.409,1384.24 253.624,1384.24 255.838,1384.24 258.052,1384.24 260.266,1384.24 262.481,1384.24 264.695,1384.24 266.909,1384.24 269.123,1384.24 271.338,1384.24 273.552,1384.24 275.766,1384.24 277.981,1384.24 280.195,1384.24 282.409,1384.24 284.623,1384.24 286.838,1384.24 289.052,1384.24 291.266,1384.24 293.48,1384.24 295.695,1384.24 297.909,1384.24 300.123,1384.24 302.338,1384.24 304.552,1384.24 306.766,1384.24 308.98,1384.24 311.195,1384.24 313.409,1384.24 315.623,1384.24 317.838,1384.24 320.052,1384.24 322.266,1384.24 324.48,1384.24 326.695,1384.24 328.909,1384.24 331.123,1384.24 333.337,1384.24 335.552,1384.24 337.766,1384.24 339.98,1384.24 342.195,1384.24 344.409,1384.24 346.623,1384.24 348.837,1384.24 351.052,1384.24 353.266,1322.43 355.48,1322.43 357.694,1322.43 359.909,1322.43 362.123,1322.43 364.337,1260.61 366.552,1260.61 368.766,1260.61 370.98,1260.61 373.194,1260.61 375.409,1260.61 377.623,1260.61 379.837,1260.61 382.051,1260.61 384.266,1260.61 386.48,1260.61 388.694,1260.61 390.909,1260.61 393.123,1260.61 395.337,1260.61 397.551,1260.61 399.766,1260.61 401.98,1260.61 404.194,1260.61 406.408,1198.8 408.623,1198.8 410.837,1198.8 413.051,1260.61 415.266,1260.61 417.48,1260.61 419.694,1260.61 421.908,1260.61 424.123,1260.61 426.337,1260.61 428.551,1260.61 430.766,1260.61 432.98,1260.61 435.194,1260.61 437.408,1260.61 439.623,1198.8 441.837,1198.8 444.051,1198.8 446.265,1198.8 448.48,1198.8 450.694,1136.99 452.908,1136.99 455.123,1136.99 457.337,1136.99 459.551,1136.99 461.765,1136.99 463.98,1136.99 466.194,1136.99 468.408,1136.99 470.622,1136.99 472.837,1136.99 475.051,1136.99 477.265,1136.99 479.48,1136.99 481.694,1136.99 483.908,1136.99 486.122,1136.99 488.337,1136.99 490.551,1136.99 492.765,1136.99 494.979,1136.99 497.194,1136.99 499.408,1136.99 501.622,1136.99 503.837,1136.99 506.051,1136.99 508.265,1136.99 510.479,1136.99 512.694,1136.99 514.908,1136.99 517.122,1136.99 519.337,1136.99 521.551,1136.99 523.765,1136.99 525.979,1136.99 528.194,1136.99 530.408,1198.8 532.622,1198.8 534.836,1198.8 537.051,1198.8 539.265,1198.8 541.479,1198.8 543.694,1198.8 545.908,1198.8 548.122,1198.8 550.336,1198.8 552.551,1198.8 554.765,1198.8 556.979,1198.8 559.193,1198.8 561.408,1198.8 563.622,1198.8 565.836,1260.61 568.051,1260.61 570.265,1322.43 572.479,1322.43 574.693,1322.43 576.908,1322.43 579.122,1322.43 581.336,1322.43 583.55,1322.43 585.765,1322.43 587.979,1322.43 590.193,1322.43 592.408,1322.43 594.622,1322.43 596.836,1322.43 599.05,1322.43 601.265,1322.43 603.479,1322.43 605.693,1322.43 607.907,1322.43 610.122,1322.43 612.336,1322.43 614.55,1322.43 616.765,1322.43 618.979,1322.43 621.193,1322.43 623.407,1322.43 625.622,1322.43 627.836,1322.43 630.05,1322.43 632.265,1322.43 634.479,1322.43 636.693,1322.43 638.907,1322.43 641.122,1322.43 643.336,1322.43 645.55,1384.24 647.764,1384.24 649.979,1384.24 652.193,1384.24 654.407,1384.24 656.622,1384.24 658.836,1384.24 661.05,1384.24 663.264,1384.24 665.479,1384.24 667.693,1384.24 669.907,1384.24 672.121,1384.24 674.336,1384.24 676.55,1384.24 678.764,1384.24 680.979,1384.24 683.193,1384.24 685.407,1384.24 687.621,1384.24 689.836,1384.24 692.05,1384.24 694.264,1384.24 696.478,1384.24 698.693,1384.24 700.907,1384.24 703.121,1384.24 705.336,1384.24 707.55,1384.24 709.764,1384.24 711.978,1384.24 714.193,1384.24 716.407,1384.24 718.621,1384.24 720.835,1384.24 723.05,1384.24 725.264,1384.24 727.478,1384.24 729.693,1384.24 731.907,1384.24 734.121,1384.24 736.335,1384.24 738.55,1384.24 740.764,1384.24 742.978,1384.24 745.193,1384.24 747.407,1384.24 749.621,1384.24 751.835,1384.24 754.05,1384.24 756.264,1384.24 758.478,1384.24 760.692,1384.24 762.907,1384.24 765.121,1384.24 767.335,1384.24 769.55,1384.24 771.764,1384.24 773.978,1384.24 776.192,1384.24 778.407,1384.24 780.621,1384.24 782.835,1384.24 785.049,1384.24 787.264,1384.24 789.478,1384.24 791.692,1384.24 793.907,1384.24 796.121,1384.24 798.335,1384.24 800.549,1384.24 802.764,1384.24 804.978,1384.24 807.192,1384.24 809.406,1384.24 811.621,1384.24 813.835,1384.24 816.049,1384.24 818.264,1384.24 820.478,1384.24 822.692,1384.24 824.906,1384.24 827.121,1384.24 829.335,1384.24 831.549,1384.24 833.764,1384.24 835.978,1384.24 838.192,1384.24 840.406,1384.24 842.621,1384.24 844.835,1384.24 847.049,1384.24 849.263,1384.24 851.478,1384.24 853.692,1384.24 855.906,1384.24 858.121,1384.24 860.335,1384.24 862.549,1384.24 864.763,1384.24 866.978,1384.24 869.192,1384.24 871.406,1384.24 873.62,1384.24 875.835,1384.24 878.049,1384.24 880.263,1384.24 882.478,1384.24 884.692,1384.24 886.906,1384.24 889.12,1384.24 891.335,1384.24 893.549,1384.24 895.763,1384.24 897.977,1384.24 900.192,1384.24 902.406,1384.24 904.62,1384.24 906.835,1384.24 909.049,1384.24 911.263,1384.24 913.477,1384.24 915.692,1384.24 917.906,1384.24 920.12,1384.24 922.334,1384.24 924.549,1384.24 926.763,1384.24 928.977,1384.24 931.192,1384.24 933.406,1384.24 935.62,1384.24 937.834,1384.24 940.049,1384.24 942.263,1384.24 944.477,1384.24 946.692,1384.24 948.906,1384.24 951.12,1384.24 953.334,1384.24 955.549,1384.24 957.763,1384.24 959.977,1384.24 962.191,1384.24 964.406,1384.24 966.62,1384.24 968.834,1384.24 971.049,1384.24 973.263,1384.24 975.477,1384.24 977.691,1384.24 979.906,1384.24 982.12,1384.24 984.334,1384.24 986.548,1384.24 988.763,1384.24 990.977,1384.24 993.191,1384.24 995.406,1384.24 997.62,1384.24 999.834,1384.24 1002.05,1384.24 1004.26,1384.24 1006.48,1384.24 1008.69,1384.24 1010.91,1384.24 1013.12,1384.24 1015.33,1384.24 1017.55,1384.24 1019.76,1384.24 1021.98,1384.24 1024.19,1384.24 1026.41,1384.24 1028.62,1384.24 1030.83,1384.24 1033.05,1384.24 1035.26,1384.24 1037.48,1384.24 1039.69,1384.24 1041.91,1384.24 1044.12,1384.24 1046.33,1384.24 1048.55,1384.24 1050.76,1322.43 1052.98,1322.43 1055.19,1322.43 1057.41,1322.43 1059.62,1322.43 1061.83,1322.43 1064.05,1322.43 1066.26,1322.43 1068.48,1322.43 1070.69,1322.43 1072.91,1322.43 1075.12,1322.43 1077.33,1322.43 1079.55,1322.43 1081.76,1322.43 1083.98,1322.43 1086.19,1322.43 1088.41,1322.43 1090.62,1322.43 1092.83,1322.43 1095.05,1322.43 1097.26,1322.43 1099.48,1322.43 1101.69,1322.43 1103.91,1322.43 1106.12,1322.43 1108.33,1322.43 1110.55,1322.43 1112.76,1322.43 1114.98,1322.43 1117.19,1322.43 1119.4,1260.61 1121.62,1260.61 1123.83,1260.61 1126.05,1322.43 1128.26,1322.43 1130.48,1322.43 1132.69,1322.43 1134.9,1322.43 1137.12,1322.43 1139.33,1322.43 1141.55,1322.43 1143.76,1322.43 1145.98,1322.43 1148.19,1322.43 1150.4,1322.43 1152.62,1322.43 1154.83,1322.43 1157.05,1322.43 1159.26,1322.43 1161.48,1322.43 1163.69,1322.43 1165.9,1322.43 1168.12,1322.43 1170.33,1322.43 1172.55,1322.43 1174.76,1322.43 1176.98,1322.43 1179.19,1384.24 1181.4,1384.24 1183.62,1384.24 1185.83,1384.24 1188.05,1322.43 1190.26,1322.43 1192.48,1322.43 1194.69,1322.43 1196.9,1322.43 1199.12,1322.43 1201.33,1322.43 1203.55,1384.24 1205.76,1384.24 1207.98,1384.24 1210.19,1322.43 1212.4,1322.43 1214.62,1322.43 1216.83,1322.43 1219.05,1322.43 1221.26,1322.43 1223.48,1322.43 1225.69,1322.43 1227.9,1322.43 1230.12,1322.43 1232.33,1322.43 1234.55,1322.43 1236.76,1322.43 1238.98,1322.43 1241.19,1322.43 1243.4,1322.43 1245.62,1322.43 1247.83,1322.43 1250.05,1322.43 1252.26,1322.43 1254.48,1322.43 1256.69,1322.43 1258.9,1322.43 1261.12,1322.43 1263.33,1322.43 1265.55,1322.43 1267.76,1322.43 1269.98,1322.43 1272.19,1322.43 1274.4,1322.43 1276.62,1322.43 1278.83,1322.43 1281.05,1322.43 1283.26,1322.43 1285.48,1322.43 1287.69,1322.43 1289.9,1322.43 1292.12,1322.43 1294.33,1322.43 1296.55,1322.43 1298.76,1322.43 1300.98,1322.43 1303.19,1322.43 1305.4,1322.43 1307.62,1322.43 1309.83,1322.43 1312.05,1384.24 1314.26,1384.24 1316.48,1384.24 1318.69,1384.24 1320.9,1384.24 1323.12,1384.24 1325.33,1384.24 1327.55,1384.24 1329.76,1384.24 1331.98,1384.24 1334.19,1384.24 1336.4,1384.24 1338.62,1384.24 1340.83,1384.24 1343.05,1384.24 1345.26,1384.24 1347.48,1384.24 1349.69,1384.24 1351.9,1322.43 1354.12,1322.43 1356.33,1322.43 1358.55,1322.43 1360.76,1260.61 1362.98,1260.61 1365.19,1260.61 1367.4,1260.61 1369.62,1260.61 1371.83,1260.61 1374.05,1260.61 1376.26,1260.61 1378.48,1260.61 1380.69,1260.61 1382.9,1260.61 1385.12,1322.43 1387.33,1384.24 1389.55,1384.24 1391.76,1384.24 1393.97,1384.24 1396.19,1384.24 1398.4,1384.24 1400.62,1384.24 1402.83,1384.24 1405.05,1384.24 1407.26,1384.24 1409.47,1384.24 1411.69,1384.24 1413.9,1384.24 1416.12,1384.24 1418.33,1384.24 1420.55,1322.43 1422.76,1322.43 1424.97,1322.43 1427.19,1322.43 1429.4,1322.43 1431.62,1322.43 1433.83,1322.43 1436.05,1322.43 1438.26,1322.43 1440.47,1322.43 1442.69,1322.43 1444.9,1322.43 1447.12,1322.43 1449.33,1322.43 1451.55,1322.43 1453.76,1322.43 1455.97,1322.43 1458.19,1322.43 1460.4,1322.43 1462.62,1322.43 1464.83,1322.43 1467.05,1322.43 1469.26,1322.43 1471.47,1322.43 1473.69,1322.43 1475.9,1322.43 1478.12,1322.43 1480.33,1322.43 1482.55,1322.43 1484.76,1322.43 1486.97,1322.43 1489.19,1322.43 1491.4,1322.43 1493.62,1322.43 1495.83,1322.43 1498.05,1322.43 1500.26,1322.43 1502.47,1322.43 1504.69,1322.43 1506.9,1322.43 1509.12,1322.43 1511.33,1322.43 1513.55,1322.43 1515.76,1322.43 1517.97,1322.43 1520.19,1322.43 1522.4,1322.43 1524.62,1322.43 1526.83,1322.43 1529.05,1322.43 1531.26,1322.43 1533.47,1384.24 1535.69,1384.24 1537.9,1384.24 1540.12,1384.24 1542.33,1384.24 1544.55,1384.24 1546.76,1384.24 1548.97,1384.24 1551.19,1384.24 1553.4,1384.24 1555.62,1384.24 1557.83,1384.24 1560.05,1384.24 1562.26,1384.24 1564.47,1384.24 1566.69,1384.24 1568.9,1384.24 1571.12,1384.24 1573.33,1384.24 1575.55,1384.24 1577.76,1384.24 1579.97,1384.24 1582.19,1384.24 1584.4,1384.24 1586.62,1384.24 1588.83,1384.24 1591.05,1384.24 1593.26,1384.24 1595.47,1384.24 1597.69,1384.24 1599.9,1384.24 1602.12,1384.24 1604.33,1384.24 1606.55,1384.24 1608.76,1384.24 1610.97,1384.24 1613.19,1384.24 1615.4,1384.24 1617.62,1384.24 1619.83,1384.24 1622.05,1384.24 1624.26,1384.24 1626.47,1384.24 1628.69,1384.24 1630.9,1384.24 1633.12,1384.24 1635.33,1384.24 1637.55,1384.24 1639.76,1384.24 1641.97,1384.24 1644.19,1384.24 1646.4,1384.24 1648.62,1384.24 1650.83,1384.24 1653.05,1384.24 1655.26,1384.24 1657.47,1384.24 1659.69,1384.24 1661.9,1384.24 1664.12,1384.24 1666.33,1384.24 1668.55,1384.24 1670.76,1384.24 1672.97,1384.24 1675.19,1384.24 1677.4,1384.24 1679.62,1384.24 1681.83,1384.24 1684.04,1384.24 1686.26,1384.24 1688.47,1384.24 1690.69,1384.24 1692.9,1384.24 1695.12,1384.24 1697.33,1384.24 1699.54,1384.24 1701.76,1384.24 1703.97,1384.24 1706.19,1384.24 1708.4,1384.24 1710.62,1384.24 1712.83,1384.24 1715.04,1384.24 1717.26,1384.24 1719.47,1384.24 1721.69,1384.24 1723.9,1384.24 1726.12,1384.24 1728.33,1384.24 1730.54,1384.24 1732.76,1384.24 1734.97,1384.24 1737.19,1384.24 1739.4,1384.24 1741.62,1384.24 1743.83,1384.24 1746.04,1384.24 1748.26,1384.24 1750.47,1384.24 1752.69,1384.24 1754.9,1384.24 1757.12,1384.24 1759.33,1384.24 1761.54,1384.24 1763.76,1384.24 1765.97,1384.24 1768.19,1384.24 1770.4,1384.24 1772.62,1384.24 1774.83,1384.24 1777.04,1384.24 1779.26,1384.24 1781.47,1384.24 1783.69,1384.24 1785.9,1384.24 1788.12,1384.24 1790.33,1384.24 1792.54,1384.24 1794.76,1384.24 1796.97,1384.24 1799.19,1384.24 1801.4,1384.24 1803.62,1384.24 1805.83,1384.24 1808.04,1384.24 1810.26,1384.24 1812.47,1384.24 1814.69,1384.24 1816.9,1384.24 1819.12,1384.24 1821.33,1384.24 1823.54,1384.24 1825.76,1384.24 1827.97,1384.24 1830.19,1384.24 1832.4,1384.24 1834.62,1384.24 1836.83,1384.24 1839.04,1384.24 1841.26,1384.24 1843.47,1384.24 1845.69,1384.24 1847.9,1384.24 1850.12,1384.24 1852.33,1384.24 1854.54,1384.24 1856.76,1384.24 1858.97,1384.24 1861.19,1384.24 1863.4,1384.24 1865.62,1384.24 1867.83,1384.24 1870.04,1384.24 1872.26,1384.24 1874.47,1384.24 1876.69,1384.24 1878.9,1384.24 1881.12,1384.24 1883.33,1384.24 1885.54,1384.24 1887.76,1384.24 1889.97,1384.24 1892.19,1384.24 1894.4,1384.24 1896.62,1384.24 1898.83,1384.24 1901.04,1384.24 1903.26,1384.24 1905.47,1384.24 1907.69,1384.24 1909.9,1384.24 1912.12,1384.24 1914.33,1384.24 1916.54,1384.24 1918.76,1384.24 1920.97,1384.24 1923.19,1384.24 1925.4,1384.24 1927.62,1322.43 1929.83,1322.43 1932.04,1322.43 1934.26,1322.43 1936.47,1322.43 1938.69,1322.43 1940.9,1322.43 1943.12,1322.43 1945.33,1322.43 1947.54,1322.43 1949.76,1322.43 1951.97,1322.43 1954.19,1322.43 1956.4,1384.24 1958.62,1384.24 1960.83,1384.24 1963.04,1384.24 1965.26,1384.24 1967.47,1384.24 1969.69,1384.24 1971.9,1322.43 1974.11,1322.43 1976.33,1322.43 1978.54,1322.43 1980.76,1322.43 1982.97,1322.43 1985.19,1322.43 1987.4,1322.43 1989.61,1260.61 1991.83,1260.61 1994.04,1260.61 1996.26,1198.8 1998.47,1198.8 2000.69,1198.8 2002.9,1198.8 2005.11,1198.8 2007.33,1198.8 2009.54,1198.8 2011.76,1198.8 2013.97,1198.8 2016.19,1198.8 2018.4,1198.8 2020.61,1198.8 2022.83,1136.99 2025.04,1136.99 2027.26,1136.99 2029.47,1136.99 2031.69,1136.99 2033.9,1136.99 2036.11,1136.99 2038.33,1136.99 2040.54,1136.99 2042.76,1136.99 2044.97,1136.99 2047.19,1136.99 2049.4,1136.99 2051.61,1136.99 2053.83,1136.99 2056.04,1136.99 2058.26,1136.99 2060.47,1136.99 2062.69,1136.99 2064.9,1136.99 2067.11,1198.8 2069.33,1198.8 2071.54,1198.8 2073.76,1198.8 2075.97,1198.8 2078.19,1198.8 2080.4,1198.8 2082.61,1198.8 2084.83,1198.8 2087.04,1198.8 2089.26,1198.8 2091.47,1198.8 2093.69,1198.8 2095.9,1198.8 2098.11,1198.8 2100.33,1198.8 2102.54,1198.8 2104.76,1198.8 2106.97,1198.8 2109.19,1198.8 2111.4,1198.8 2113.61,1136.99 2115.83,1136.99 2118.04,1136.99 2120.26,1136.99 2122.47,1136.99 2124.69,1136.99 2126.9,1136.99 2129.11,1198.8 2131.33,1198.8 2133.54,1198.8 2135.76,1198.8 2137.97,1198.8 2140.19,1198.8 2142.4,1198.8 2144.61,1198.8 2146.83,1198.8 2149.04,1198.8 2151.26,1198.8 2153.47,1136.99 2155.69,1136.99 2157.9,1136.99 2160.11,1136.99 2162.33,1075.18 2164.54,1136.99 2166.76,1136.99 2168.97,1136.99 2171.19,1136.99 2173.4,1136.99 2175.61,1075.18 2177.83,1075.18 2180.04,1075.18 2182.26,1136.99 2184.47,1136.99 2186.69,1136.99 2188.9,1198.8 2191.11,1198.8 2193.33,1260.61 2195.54,1260.61 2197.76,1260.61 2199.97,1260.61 2202.19,1260.61 2204.4,1260.61 2206.61,1260.61 2208.83,1260.61 2211.04,1260.61 2213.26,1260.61 2215.47,1260.61 2217.69,1260.61 2219.9,1260.61 2222.11,1260.61 2224.33,1260.61 2226.54,1260.61 2228.76,1260.61 2230.97,1260.61 2233.19,1260.61 2235.4,1260.61 2237.61,1260.61 2239.83,1260.61 2242.04,1260.61 2244.26,1260.61 2246.47,1260.61 2248.68,1260.61 2250.9,1260.61 2253.11,1260.61 2255.33,1260.61 2257.54,1322.43 2259.76,1322.43 2261.97,1322.43 2264.18,1322.43 2266.4,1322.43 2268.61,1322.43 2270.83,1322.43 2273.04,1322.43 2275.26,1322.43 2277.47,1322.43 2279.68,1322.43 2281.9,1322.43 2284.11,1322.43 2286.33,1322.43 2288.54,1198.8 2290.76,1198.8 2292.97,1198.8 2295.18,1198.8 2297.4,1198.8 2299.61,1198.8 2301.83,1198.8 2304.04,1198.8 2306.26,1198.8 2308.47,1198.8 2310.68,1198.8 2312.9,1198.8 2315.11,1198.8 2317.33,1198.8 2319.54,1198.8 2321.76,1198.8 2323.97,1198.8 2326.18,1198.8 2328.4,1198.8 2330.61,1198.8 2332.83,1198.8 2335.04,1198.8 2337.26,1198.8 2339.47,1260.61 2341.68,1260.61 2343.9,1260.61 2346.11,1260.61 2348.33,1260.61 2350.54,1260.61 2352.76,1260.61 "/>
<polyline clip-path="url(#clip672)" style="stroke:#e26f46; stroke-linecap:round; stroke-linejoin:round; stroke-width:8; stroke-opacity:1; fill:none" points="140.696,1384.24 142.91,1384.24 145.124,1384.24 147.338,1384.24 149.553,1384.24 151.767,1384.24 153.981,1384.24 156.195,1384.24 158.41,1384.24 160.624,1384.24 162.838,1384.24 165.053,1384.24 167.267,1384.24 169.481,1384.24 171.695,1384.24 173.91,1384.24 176.124,1384.24 178.338,1384.24 180.552,1384.24 182.767,1384.24 184.981,1384.24 187.195,1384.24 189.41,1384.24 191.624,1384.24 193.838,1384.24 196.052,1384.24 198.267,1384.24 200.481,1384.24 202.695,1384.24 204.91,1384.24 207.124,1384.24 209.338,1384.24 211.552,1384.24 213.767,1384.24 215.981,1384.24 218.195,1384.24 220.409,1384.24 222.624,1384.24 224.838,1384.24 227.052,1384.24 229.267,1384.24 231.481,1384.24 233.695,1384.24 235.909,1384.24 238.124,1384.24 240.338,1384.24 242.552,1384.24 244.766,1384.24 246.981,1384.24 249.195,1384.24 251.409,1384.24 253.624,1384.24 255.838,1384.24 258.052,1384.24 260.266,1384.24 262.481,1384.24 264.695,1384.24 266.909,1384.24 269.123,1384.24 271.338,1384.24 273.552,1384.24 275.766,1384.24 277.981,1384.24 280.195,1384.24 282.409,1384.24 284.623,1384.24 286.838,1384.24 289.052,1384.24 291.266,1384.24 293.48,1384.24 295.695,1384.24 297.909,1384.24 300.123,1384.24 302.338,1384.24 304.552,1384.24 306.766,1384.24 308.98,1384.24 311.195,1384.24 313.409,1384.24 315.623,1384.24 317.838,1384.24 320.052,1384.24 322.266,1384.24 324.48,1384.24 326.695,1384.24 328.909,1384.24 331.123,1384.24 333.337,1384.24 335.552,1384.24 337.766,1384.24 339.98,1384.24 342.195,1384.24 344.409,1384.24 346.623,1384.24 348.837,1384.24 351.052,1384.24 353.266,1384.24 355.48,1384.24 357.694,1384.24 359.909,1384.24 362.123,1384.24 364.337,1384.24 366.552,1384.24 368.766,1384.24 370.98,1384.24 373.194,1384.24 375.409,1384.24 377.623,1384.24 379.837,1384.24 382.051,1384.24 384.266,1384.24 386.48,1384.24 388.694,1384.24 390.909,1384.24 393.123,1384.24 395.337,1384.24 397.551,1384.24 399.766,1384.24 401.98,1384.24 404.194,1384.24 406.408,1384.24 408.623,1384.24 410.837,1384.24 413.051,1322.43 415.266,1322.43 417.48,1322.43 419.694,1322.43 421.908,1322.43 424.123,1322.43 426.337,1322.43 428.551,1322.43 430.766,1322.43 432.98,1322.43 435.194,1322.43 437.408,1322.43 439.623,1322.43 441.837,1322.43 444.051,1322.43 446.265,1322.43 448.48,1322.43 450.694,1322.43 452.908,1322.43 455.123,1322.43 457.337,1322.43 459.551,1322.43 461.765,1322.43 463.98,1322.43 466.194,1322.43 468.408,1322.43 470.622,1322.43 472.837,1322.43 475.051,1322.43 477.265,1322.43 479.48,1322.43 481.694,1322.43 483.908,1322.43 486.122,1322.43 488.337,1322.43 490.551,1322.43 492.765,1322.43 494.979,1322.43 497.194,1322.43 499.408,1322.43 501.622,1322.43 503.837,1322.43 506.051,1322.43 508.265,1322.43 510.479,1322.43 512.694,1322.43 514.908,1322.43 517.122,1322.43 519.337,1322.43 521.551,1322.43 523.765,1322.43 525.979,1322.43 528.194,1322.43 530.408,1260.61 532.622,1260.61 534.836,1260.61 537.051,1260.61 539.265,1260.61 541.479,1260.61 543.694,1260.61 545.908,1260.61 548.122,1260.61 550.336,1260.61 552.551,1260.61 554.765,1260.61 556.979,1260.61 559.193,1260.61 561.408,1260.61 563.622,1260.61 565.836,1198.8 568.051,1198.8 570.265,1136.99 572.479,1136.99 574.693,1136.99 576.908,1136.99 579.122,1136.99 581.336,1136.99 583.55,1136.99 585.765,1136.99 587.979,1136.99 590.193,1136.99 592.408,1136.99 594.622,1136.99 596.836,1136.99 599.05,1136.99 601.265,1136.99 603.479,1136.99 605.693,1136.99 607.907,1136.99 610.122,1136.99 612.336,1136.99 614.55,1136.99 616.765,1136.99 618.979,1136.99 621.193,1136.99 623.407,1136.99 625.622,1136.99 627.836,1136.99 630.05,1136.99 632.265,1136.99 634.479,1136.99 636.693,1136.99 638.907,1136.99 641.122,1136.99 643.336,1136.99 645.55,1075.18 647.764,1075.18 649.979,1075.18 652.193,1075.18 654.407,1075.18 656.622,1075.18 658.836,1075.18 661.05,1075.18 663.264,1075.18 665.479,1075.18 667.693,1075.18 669.907,1075.18 672.121,1075.18 674.336,1075.18 676.55,1075.18 678.764,1075.18 680.979,1075.18 683.193,1075.18 685.407,1075.18 687.621,1075.18 689.836,1075.18 692.05,1075.18 694.264,1075.18 696.478,1075.18 698.693,1075.18 700.907,1075.18 703.121,1075.18 705.336,1075.18 707.55,1075.18 709.764,1075.18 711.978,1075.18 714.193,1075.18 716.407,1075.18 718.621,1075.18 720.835,1075.18 723.05,1075.18 725.264,1075.18 727.478,1075.18 729.693,1075.18 731.907,1075.18 734.121,1075.18 736.335,1075.18 738.55,1075.18 740.764,1075.18 742.978,1075.18 745.193,1075.18 747.407,1075.18 749.621,1075.18 751.835,1075.18 754.05,1075.18 756.264,1075.18 758.478,1075.18 760.692,1075.18 762.907,1075.18 765.121,1075.18 767.335,1075.18 769.55,1075.18 771.764,1075.18 773.978,1075.18 776.192,1075.18 778.407,1075.18 780.621,1075.18 782.835,1075.18 785.049,1075.18 787.264,1075.18 789.478,1075.18 791.692,1075.18 793.907,1075.18 796.121,1075.18 798.335,1075.18 800.549,1075.18 802.764,1075.18 804.978,1075.18 807.192,1075.18 809.406,1075.18 811.621,1075.18 813.835,1075.18 816.049,1075.18 818.264,1075.18 820.478,1075.18 822.692,1075.18 824.906,1075.18 827.121,1075.18 829.335,1075.18 831.549,1075.18 833.764,1075.18 835.978,1075.18 838.192,1075.18 840.406,1075.18 842.621,1075.18 844.835,1075.18 847.049,1075.18 849.263,1075.18 851.478,1075.18 853.692,1075.18 855.906,1075.18 858.121,1075.18 860.335,1075.18 862.549,1075.18 864.763,1075.18 866.978,1075.18 869.192,1075.18 871.406,1075.18 873.62,1075.18 875.835,1075.18 878.049,1075.18 880.263,1075.18 882.478,1075.18 884.692,1075.18 886.906,1075.18 889.12,1075.18 891.335,1075.18 893.549,1075.18 895.763,1075.18 897.977,1075.18 900.192,1075.18 902.406,1075.18 904.62,1075.18 906.835,1075.18 909.049,1075.18 911.263,1075.18 913.477,1075.18 915.692,1075.18 917.906,1075.18 920.12,1075.18 922.334,1075.18 924.549,1075.18 926.763,1075.18 928.977,1075.18 931.192,1075.18 933.406,1075.18 935.62,1075.18 937.834,1075.18 940.049,1075.18 942.263,1075.18 944.477,1075.18 946.692,1075.18 948.906,1075.18 951.12,1075.18 953.334,1075.18 955.549,1075.18 957.763,1075.18 959.977,1075.18 962.191,1075.18 964.406,1075.18 966.62,1075.18 968.834,1075.18 971.049,1075.18 973.263,1075.18 975.477,1075.18 977.691,1075.18 979.906,1075.18 982.12,1075.18 984.334,1075.18 986.548,1075.18 988.763,1075.18 990.977,1075.18 993.191,1075.18 995.406,1075.18 997.62,1075.18 999.834,1075.18 1002.05,1075.18 1004.26,1075.18 1006.48,1075.18 1008.69,1075.18 1010.91,1075.18 1013.12,1075.18 1015.33,1075.18 1017.55,1075.18 1019.76,1075.18 1021.98,1075.18 1024.19,1075.18 1026.41,1075.18 1028.62,1075.18 1030.83,1075.18 1033.05,1075.18 1035.26,1075.18 1037.48,1075.18 1039.69,1075.18 1041.91,1075.18 1044.12,1075.18 1046.33,1075.18 1048.55,1075.18 1050.76,1075.18 1052.98,1075.18 1055.19,1075.18 1057.41,1075.18 1059.62,1075.18 1061.83,1075.18 1064.05,1075.18 1066.26,1075.18 1068.48,1075.18 1070.69,1075.18 1072.91,1075.18 1075.12,1075.18 1077.33,1075.18 1079.55,1075.18 1081.76,1075.18 1083.98,1075.18 1086.19,1075.18 1088.41,1075.18 1090.62,1075.18 1092.83,1075.18 1095.05,1075.18 1097.26,1075.18 1099.48,1075.18 1101.69,1075.18 1103.91,1075.18 1106.12,1075.18 1108.33,1075.18 1110.55,1075.18 1112.76,1075.18 1114.98,1075.18 1117.19,1075.18 1119.4,1075.18 1121.62,1075.18 1123.83,1075.18 1126.05,1013.37 1128.26,1013.37 1130.48,1013.37 1132.69,1013.37 1134.9,1013.37 1137.12,1013.37 1139.33,1013.37 1141.55,1013.37 1143.76,1013.37 1145.98,1013.37 1148.19,1013.37 1150.4,1013.37 1152.62,1013.37 1154.83,1013.37 1157.05,1013.37 1159.26,1013.37 1161.48,1013.37 1163.69,1013.37 1165.9,1013.37 1168.12,1013.37 1170.33,1013.37 1172.55,1013.37 1174.76,1013.37 1176.98,1013.37 1179.19,951.554 1181.4,951.554 1183.62,951.554 1185.83,951.554 1188.05,951.554 1190.26,951.554 1192.48,951.554 1194.69,951.554 1196.9,951.554 1199.12,951.554 1201.33,951.554 1203.55,889.742 1205.76,889.742 1207.98,889.742 1210.19,889.742 1212.4,889.742 1214.62,889.742 1216.83,889.742 1219.05,889.742 1221.26,889.742 1223.48,889.742 1225.69,889.742 1227.9,889.742 1230.12,889.742 1232.33,889.742 1234.55,889.742 1236.76,889.742 1238.98,889.742 1241.19,889.742 1243.4,889.742 1245.62,889.742 1247.83,889.742 1250.05,889.742 1252.26,889.742 1254.48,889.742 1256.69,889.742 1258.9,889.742 1261.12,889.742 1263.33,889.742 1265.55,889.742 1267.76,889.742 1269.98,889.742 1272.19,889.742 1274.4,889.742 1276.62,889.742 1278.83,889.742 1281.05,889.742 1283.26,889.742 1285.48,889.742 1287.69,889.742 1289.9,889.742 1292.12,889.742 1294.33,889.742 1296.55,889.742 1298.76,889.742 1300.98,889.742 1303.19,889.742 1305.4,889.742 1307.62,889.742 1309.83,889.742 1312.05,827.93 1314.26,827.93 1316.48,827.93 1318.69,827.93 1320.9,827.93 1323.12,827.93 1325.33,827.93 1327.55,827.93 1329.76,827.93 1331.98,827.93 1334.19,827.93 1336.4,827.93 1338.62,827.93 1340.83,827.93 1343.05,827.93 1345.26,827.93 1347.48,827.93 1349.69,827.93 1351.9,827.93 1354.12,827.93 1356.33,827.93 1358.55,827.93 1360.76,827.93 1362.98,827.93 1365.19,827.93 1367.4,827.93 1369.62,827.93 1371.83,827.93 1374.05,827.93 1376.26,827.93 1378.48,827.93 1380.69,827.93 1382.9,827.93 1385.12,766.118 1387.33,704.306 1389.55,704.306 1391.76,704.306 1393.97,704.306 1396.19,704.306 1398.4,704.306 1400.62,704.306 1402.83,704.306 1405.05,704.306 1407.26,704.306 1409.47,704.306 1411.69,704.306 1413.9,704.306 1416.12,704.306 1418.33,704.306 1420.55,704.306 1422.76,704.306 1424.97,704.306 1427.19,704.306 1429.4,704.306 1431.62,704.306 1433.83,704.306 1436.05,704.306 1438.26,704.306 1440.47,704.306 1442.69,704.306 1444.9,704.306 1447.12,704.306 1449.33,704.306 1451.55,704.306 1453.76,704.306 1455.97,704.306 1458.19,704.306 1460.4,704.306 1462.62,704.306 1464.83,704.306 1467.05,704.306 1469.26,704.306 1471.47,704.306 1473.69,704.306 1475.9,704.306 1478.12,704.306 1480.33,704.306 1482.55,704.306 1484.76,704.306 1486.97,704.306 1489.19,704.306 1491.4,704.306 1493.62,704.306 1495.83,704.306 1498.05,704.306 1500.26,704.306 1502.47,704.306 1504.69,704.306 1506.9,704.306 1509.12,704.306 1511.33,704.306 1513.55,704.306 1515.76,704.306 1517.97,704.306 1520.19,704.306 1522.4,704.306 1524.62,704.306 1526.83,704.306 1529.05,704.306 1531.26,704.306 1533.47,642.494 1535.69,642.494 1537.9,642.494 1540.12,642.494 1542.33,642.494 1544.55,642.494 1546.76,642.494 1548.97,642.494 1551.19,642.494 1553.4,642.494 1555.62,642.494 1557.83,642.494 1560.05,642.494 1562.26,642.494 1564.47,642.494 1566.69,642.494 1568.9,642.494 1571.12,642.494 1573.33,642.494 1575.55,642.494 1577.76,642.494 1579.97,642.494 1582.19,642.494 1584.4,642.494 1586.62,642.494 1588.83,642.494 1591.05,642.494 1593.26,642.494 1595.47,642.494 1597.69,642.494 1599.9,642.494 1602.12,642.494 1604.33,642.494 1606.55,642.494 1608.76,642.494 1610.97,642.494 1613.19,642.494 1615.4,642.494 1617.62,642.494 1619.83,642.494 1622.05,642.494 1624.26,642.494 1626.47,642.494 1628.69,642.494 1630.9,642.494 1633.12,642.494 1635.33,642.494 1637.55,642.494 1639.76,642.494 1641.97,642.494 1644.19,642.494 1646.4,642.494 1648.62,642.494 1650.83,642.494 1653.05,642.494 1655.26,642.494 1657.47,642.494 1659.69,642.494 1661.9,642.494 1664.12,642.494 1666.33,642.494 1668.55,642.494 1670.76,642.494 1672.97,642.494 1675.19,642.494 1677.4,642.494 1679.62,642.494 1681.83,642.494 1684.04,642.494 1686.26,642.494 1688.47,642.494 1690.69,642.494 1692.9,642.494 1695.12,642.494 1697.33,642.494 1699.54,642.494 1701.76,642.494 1703.97,642.494 1706.19,642.494 1708.4,642.494 1710.62,642.494 1712.83,642.494 1715.04,642.494 1717.26,642.494 1719.47,642.494 1721.69,642.494 1723.9,642.494 1726.12,642.494 1728.33,642.494 1730.54,642.494 1732.76,642.494 1734.97,642.494 1737.19,642.494 1739.4,642.494 1741.62,642.494 1743.83,642.494 1746.04,642.494 1748.26,642.494 1750.47,642.494 1752.69,642.494 1754.9,642.494 1757.12,642.494 1759.33,642.494 1761.54,642.494 1763.76,642.494 1765.97,642.494 1768.19,642.494 1770.4,642.494 1772.62,642.494 1774.83,642.494 1777.04,642.494 1779.26,642.494 1781.47,642.494 1783.69,642.494 1785.9,642.494 1788.12,642.494 1790.33,642.494 1792.54,642.494 1794.76,642.494 1796.97,642.494 1799.19,642.494 1801.4,642.494 1803.62,642.494 1805.83,642.494 1808.04,642.494 1810.26,642.494 1812.47,642.494 1814.69,642.494 1816.9,642.494 1819.12,642.494 1821.33,642.494 1823.54,642.494 1825.76,642.494 1827.97,642.494 1830.19,642.494 1832.4,642.494 1834.62,642.494 1836.83,642.494 1839.04,642.494 1841.26,642.494 1843.47,642.494 1845.69,642.494 1847.9,642.494 1850.12,642.494 1852.33,642.494 1854.54,642.494 1856.76,642.494 1858.97,642.494 1861.19,642.494 1863.4,642.494 1865.62,642.494 1867.83,642.494 1870.04,642.494 1872.26,642.494 1874.47,642.494 1876.69,642.494 1878.9,642.494 1881.12,642.494 1883.33,642.494 1885.54,642.494 1887.76,642.494 1889.97,642.494 1892.19,642.494 1894.4,642.494 1896.62,642.494 1898.83,642.494 1901.04,642.494 1903.26,642.494 1905.47,642.494 1907.69,642.494 1909.9,642.494 1912.12,642.494 1914.33,642.494 1916.54,642.494 1918.76,642.494 1920.97,642.494 1923.19,642.494 1925.4,642.494 1927.62,642.494 1929.83,642.494 1932.04,642.494 1934.26,642.494 1936.47,642.494 1938.69,642.494 1940.9,642.494 1943.12,642.494 1945.33,642.494 1947.54,642.494 1949.76,642.494 1951.97,642.494 1954.19,642.494 1956.4,580.682 1958.62,580.682 1960.83,580.682 1963.04,580.682 1965.26,580.682 1967.47,580.682 1969.69,580.682 1971.9,580.682 1974.11,580.682 1976.33,580.682 1978.54,580.682 1980.76,580.682 1982.97,580.682 1985.19,580.682 1987.4,580.682 1989.61,580.682 1991.83,580.682 1994.04,580.682 1996.26,580.682 1998.47,580.682 2000.69,580.682 2002.9,580.682 2005.11,580.682 2007.33,580.682 2009.54,580.682 2011.76,580.682 2013.97,580.682 2016.19,580.682 2018.4,580.682 2020.61,580.682 2022.83,580.682 2025.04,580.682 2027.26,580.682 2029.47,580.682 2031.69,580.682 2033.9,580.682 2036.11,580.682 2038.33,580.682 2040.54,580.682 2042.76,580.682 2044.97,580.682 2047.19,580.682 2049.4,580.682 2051.61,580.682 2053.83,580.682 2056.04,580.682 2058.26,580.682 2060.47,580.682 2062.69,580.682 2064.9,580.682 2067.11,518.87 2069.33,518.87 2071.54,518.87 2073.76,518.87 2075.97,518.87 2078.19,518.87 2080.4,518.87 2082.61,518.87 2084.83,518.87 2087.04,518.87 2089.26,518.87 2091.47,518.87 2093.69,518.87 2095.9,518.87 2098.11,518.87 2100.33,518.87 2102.54,518.87 2104.76,518.87 2106.97,518.87 2109.19,518.87 2111.4,518.87 2113.61,518.87 2115.83,518.87 2118.04,518.87 2120.26,518.87 2122.47,518.87 2124.69,518.87 2126.9,518.87 2129.11,457.058 2131.33,457.058 2133.54,457.058 2135.76,457.058 2137.97,457.058 2140.19,457.058 2142.4,457.058 2144.61,457.058 2146.83,457.058 2149.04,457.058 2151.26,457.058 2153.47,457.058 2155.69,457.058 2157.9,457.058 2160.11,457.058 2162.33,457.058 2164.54,395.246 2166.76,395.246 2168.97,395.246 2171.19,395.246 2173.4,395.246 2175.61,395.246 2177.83,395.246 2180.04,395.246 2182.26,333.434 2184.47,333.434 2186.69,333.434 2188.9,271.622 2191.11,271.622 2193.33,209.81 2195.54,209.81 2197.76,209.81 2199.97,209.81 2202.19,209.81 2204.4,209.81 2206.61,209.81 2208.83,209.81 2211.04,209.81 2213.26,209.81 2215.47,209.81 2217.69,209.81 2219.9,209.81 2222.11,209.81 2224.33,209.81 2226.54,209.81 2228.76,209.81 2230.97,209.81 2233.19,209.81 2235.4,209.81 2237.61,209.81 2239.83,209.81 2242.04,209.81 2244.26,209.81 2246.47,209.81 2248.68,209.81 2250.9,209.81 2253.11,209.81 2255.33,209.81 2257.54,147.998 2259.76,147.998 2261.97,147.998 2264.18,147.998 2266.4,147.998 2268.61,147.998 2270.83,147.998 2273.04,147.998 2275.26,147.998 2277.47,147.998 2279.68,147.998 2281.9,147.998 2284.11,147.998 2286.33,147.998 2288.54,147.998 2290.76,147.998 2292.97,147.998 2295.18,147.998 2297.4,147.998 2299.61,147.998 2301.83,147.998 2304.04,147.998 2306.26,147.998 2308.47,147.998 2310.68,147.998 2312.9,147.998 2315.11,147.998 2317.33,147.998 2319.54,147.998 2321.76,147.998 2323.97,147.998 2326.18,147.998 2328.4,147.998 2330.61,147.998 2332.83,147.998 2335.04,147.998 2337.26,147.998 2339.47,86.1857 2341.68,86.1857 2343.9,86.1857 2346.11,86.1857 2348.33,86.1857 2350.54,86.1857 2352.76,86.1857 "/>
<path clip-path="url(#clip670)" d="M214.431 248.629 L518.993 248.629 L518.993 93.1086 L214.431 93.1086  Z" fill="#ffffff" fill-rule="evenodd" fill-opacity="1"/>
<polyline clip-path="url(#clip670)" style="stroke:#000000; stroke-linecap:round; stroke-linejoin:round; stroke-width:4; stroke-opacity:1; fill:none" points="214.431,248.629 518.993,248.629 518.993,93.1086 214.431,93.1086 214.431,248.629 "/>
<polyline clip-path="url(#clip670)" style="stroke:#009af9; stroke-linecap:round; stroke-linejoin:round; stroke-width:8; stroke-opacity:1; fill:none" points="239.009,144.949 386.48,144.949 "/>
<path clip-path="url(#clip670)" d="M411.058 127.669 L417.355 127.669 L432.679 156.581 L432.679 127.669 L437.216 127.669 L437.216 162.229 L430.919 162.229 L415.595 133.317 L415.595 162.229 L411.058 162.229 L411.058 127.669 Z" fill="#000000" fill-rule="nonzero" fill-opacity="1" /><path clip-path="url(#clip670)" d="M456.567 126.257 Q453.466 131.581 451.961 136.789 Q450.456 141.997 450.456 147.344 Q450.456 152.692 451.961 157.946 Q453.489 163.178 456.567 168.479 L452.864 168.479 Q449.392 163.039 447.656 157.784 Q445.943 152.53 445.943 147.344 Q445.943 142.182 447.656 136.951 Q449.368 131.72 452.864 126.257 L456.567 126.257 Z" fill="#000000" fill-rule="nonzero" fill-opacity="1" /><path clip-path="url(#clip670)" d="M469.044 128.942 L469.044 136.303 L477.817 136.303 L477.817 139.613 L469.044 139.613 L469.044 153.687 Q469.044 156.858 469.901 157.761 Q470.78 158.664 473.442 158.664 L477.817 158.664 L477.817 162.229 L473.442 162.229 Q468.512 162.229 466.637 160.4 Q464.762 158.548 464.762 153.687 L464.762 139.613 L461.637 139.613 L461.637 136.303 L464.762 136.303 L464.762 128.942 L469.044 128.942 Z" fill="#000000" fill-rule="nonzero" fill-opacity="1" /><path clip-path="url(#clip670)" d="M482.748 126.257 L486.452 126.257 Q489.924 131.72 491.637 136.951 Q493.373 142.182 493.373 147.344 Q493.373 152.53 491.637 157.784 Q489.924 163.039 486.452 168.479 L482.748 168.479 Q485.827 163.178 487.331 157.946 Q488.859 152.692 488.859 147.344 Q488.859 141.997 487.331 136.789 Q485.827 131.581 482.748 126.257 Z" fill="#000000" fill-rule="nonzero" fill-opacity="1" /><polyline clip-path="url(#clip670)" style="stroke:#e26f46; stroke-linecap:round; stroke-linejoin:round; stroke-width:8; stroke-opacity:1; fill:none" points="239.009,196.789 386.48,196.789 "/>
<path clip-path="url(#clip670)" d="M415.734 183.351 L415.734 210.226 L421.382 210.226 Q428.535 210.226 431.845 206.985 Q435.179 203.745 435.179 196.754 Q435.179 189.809 431.845 186.592 Q428.535 183.351 421.382 183.351 L415.734 183.351 M411.058 179.509 L420.665 179.509 Q430.711 179.509 435.41 183.698 Q440.109 187.865 440.109 196.754 Q440.109 205.689 435.387 209.879 Q430.665 214.069 420.665 214.069 L411.058 214.069 L411.058 179.509 Z" fill="#000000" fill-rule="nonzero" fill-opacity="1" /><path clip-path="url(#clip670)" d="M457.609 178.097 Q454.507 183.421 453.003 188.629 Q451.498 193.837 451.498 199.184 Q451.498 204.532 453.003 209.786 Q454.53 215.018 457.609 220.319 L453.905 220.319 Q450.433 214.879 448.697 209.624 Q446.984 204.37 446.984 199.184 Q446.984 194.022 448.697 188.791 Q450.41 183.56 453.905 178.097 L457.609 178.097 Z" fill="#000000" fill-rule="nonzero" fill-opacity="1" /><path clip-path="url(#clip670)" d="M470.086 180.782 L470.086 188.143 L478.859 188.143 L478.859 191.453 L470.086 191.453 L470.086 205.527 Q470.086 208.698 470.942 209.601 Q471.822 210.504 474.484 210.504 L478.859 210.504 L478.859 214.069 L474.484 214.069 Q469.554 214.069 467.679 212.24 Q465.804 210.388 465.804 205.527 L465.804 191.453 L462.679 191.453 L462.679 188.143 L465.804 188.143 L465.804 180.782 L470.086 180.782 Z" fill="#000000" fill-rule="nonzero" fill-opacity="1" /><path clip-path="url(#clip670)" d="M483.79 178.097 L487.493 178.097 Q490.965 183.56 492.678 188.791 Q494.415 194.022 494.415 199.184 Q494.415 204.37 492.678 209.624 Q490.965 214.879 487.493 220.319 L483.79 220.319 Q486.868 215.018 488.373 209.786 Q489.901 204.532 489.901 199.184 Q489.901 193.837 488.373 188.629 Q486.868 183.421 483.79 178.097 Z" fill="#000000" fill-rule="nonzero" fill-opacity="1" /></svg>
