<?xml version="1.0" encoding="utf-8"?>
<svg xmlns="http://www.w3.org/2000/svg" xmlns:xlink="http://www.w3.org/1999/xlink" width="600" height="400" viewBox="0 0 2400 1600">
<defs>
  <clipPath id="clip700">
    <rect x="0" y="0" width="2400" height="1600"/>
  </clipPath>
</defs>
<path clip-path="url(#clip700)" d="M0 1600 L2400 1600 L2400 0 L0 0  Z" fill="#ffffff" fill-rule="evenodd" fill-opacity="1"/>
<defs>
  <clipPath id="clip701">
    <rect x="480" y="0" width="1681" height="1600"/>
  </clipPath>
</defs>
<path clip-path="url(#clip700)" d="M138.959 1423.18 L2352.76 1423.18 L2352.76 47.2441 L138.959 47.2441  Z" fill="#ffffff" fill-rule="evenodd" fill-opacity="1"/>
<defs>
  <clipPath id="clip702">
    <rect x="138" y="47" width="2215" height="1377"/>
  </clipPath>
</defs>
<polyline clip-path="url(#clip702)" style="stroke:#000000; stroke-linecap:round; stroke-linejoin:round; stroke-width:2; stroke-opacity:0.1; fill:none" points="138.959,1423.18 138.959,47.2441 "/>
<polyline clip-path="url(#clip702)" style="stroke:#000000; stroke-linecap:round; stroke-linejoin:round; stroke-width:2; stroke-opacity:0.1; fill:none" points="581.719,1423.18 581.719,47.2441 "/>
<polyline clip-path="url(#clip702)" style="stroke:#000000; stroke-linecap:round; stroke-linejoin:round; stroke-width:2; stroke-opacity:0.1; fill:none" points="1024.48,1423.18 1024.48,47.2441 "/>
<polyline clip-path="url(#clip702)" style="stroke:#000000; stroke-linecap:round; stroke-linejoin:round; stroke-width:2; stroke-opacity:0.1; fill:none" points="1467.24,1423.18 1467.24,47.2441 "/>
<polyline clip-path="url(#clip702)" style="stroke:#000000; stroke-linecap:round; stroke-linejoin:round; stroke-width:2; stroke-opacity:0.1; fill:none" points="1910,1423.18 1910,47.2441 "/>
<polyline clip-path="url(#clip702)" style="stroke:#000000; stroke-linecap:round; stroke-linejoin:round; stroke-width:2; stroke-opacity:0.1; fill:none" points="2352.76,1423.18 2352.76,47.2441 "/>
<polyline clip-path="url(#clip702)" style="stroke:#000000; stroke-linecap:round; stroke-linejoin:round; stroke-width:2; stroke-opacity:0.1; fill:none" points="138.959,1384.24 2352.76,1384.24 "/>
<polyline clip-path="url(#clip702)" style="stroke:#000000; stroke-linecap:round; stroke-linejoin:round; stroke-width:2; stroke-opacity:0.1; fill:none" points="138.959,1023.67 2352.76,1023.67 "/>
<polyline clip-path="url(#clip702)" style="stroke:#000000; stroke-linecap:round; stroke-linejoin:round; stroke-width:2; stroke-opacity:0.1; fill:none" points="138.959,663.098 2352.76,663.098 "/>
<polyline clip-path="url(#clip702)" style="stroke:#000000; stroke-linecap:round; stroke-linejoin:round; stroke-width:2; stroke-opacity:0.1; fill:none" points="138.959,302.528 2352.76,302.528 "/>
<polyline clip-path="url(#clip700)" style="stroke:#000000; stroke-linecap:round; stroke-linejoin:round; stroke-width:4; stroke-opacity:1; fill:none" points="138.959,1423.18 2352.76,1423.18 "/>
<polyline clip-path="url(#clip700)" style="stroke:#000000; stroke-linecap:round; stroke-linejoin:round; stroke-width:4; stroke-opacity:1; fill:none" points="138.959,1423.18 138.959,1404.28 "/>
<polyline clip-path="url(#clip700)" style="stroke:#000000; stroke-linecap:round; stroke-linejoin:round; stroke-width:4; stroke-opacity:1; fill:none" points="581.719,1423.18 581.719,1404.28 "/>
<polyline clip-path="url(#clip700)" style="stroke:#000000; stroke-linecap:round; stroke-linejoin:round; stroke-width:4; stroke-opacity:1; fill:none" points="1024.48,1423.18 1024.48,1404.28 "/>
<polyline clip-path="url(#clip700)" style="stroke:#000000; stroke-linecap:round; stroke-linejoin:round; stroke-width:4; stroke-opacity:1; fill:none" points="1467.24,1423.18 1467.24,1404.28 "/>
<polyline clip-path="url(#clip700)" style="stroke:#000000; stroke-linecap:round; stroke-linejoin:round; stroke-width:4; stroke-opacity:1; fill:none" points="1910,1423.18 1910,1404.28 "/>
<polyline clip-path="url(#clip700)" style="stroke:#000000; stroke-linecap:round; stroke-linejoin:round; stroke-width:4; stroke-opacity:1; fill:none" points="2352.76,1423.18 2352.76,1404.28 "/>
<path clip-path="url(#clip700)" d="M138.959 1454.1 Q135.348 1454.1 133.52 1457.66 Q131.714 1461.2 131.714 1468.33 Q131.714 1475.44 133.52 1479.01 Q135.348 1482.55 138.959 1482.55 Q142.594 1482.55 144.399 1479.01 Q146.228 1475.44 146.228 1468.33 Q146.228 1461.2 144.399 1457.66 Q142.594 1454.1 138.959 1454.1 M138.959 1450.39 Q144.77 1450.39 147.825 1455 Q150.904 1459.58 150.904 1468.33 Q150.904 1477.06 147.825 1481.67 Q144.77 1486.25 138.959 1486.25 Q133.149 1486.25 130.071 1481.67 Q127.015 1477.06 127.015 1468.33 Q127.015 1459.58 130.071 1455 Q133.149 1450.39 138.959 1450.39 Z" fill="#000000" fill-rule="nonzero" fill-opacity="1" /><path clip-path="url(#clip700)" d="M576.372 1481.64 L592.691 1481.64 L592.691 1485.58 L570.747 1485.58 L570.747 1481.64 Q573.409 1478.89 577.992 1474.26 Q582.598 1469.61 583.779 1468.27 Q586.024 1465.74 586.904 1464.01 Q587.807 1462.25 587.807 1460.56 Q587.807 1457.8 585.862 1456.07 Q583.941 1454.33 580.839 1454.33 Q578.64 1454.33 576.186 1455.09 Q573.756 1455.86 570.978 1457.41 L570.978 1452.69 Q573.802 1451.55 576.256 1450.97 Q578.709 1450.39 580.747 1450.39 Q586.117 1450.39 589.311 1453.08 Q592.506 1455.77 592.506 1460.26 Q592.506 1462.39 591.696 1464.31 Q590.908 1466.2 588.802 1468.8 Q588.223 1469.47 585.121 1472.69 Q582.02 1475.88 576.372 1481.64 Z" fill="#000000" fill-rule="nonzero" fill-opacity="1" /><path clip-path="url(#clip700)" d="M1027.49 1455.09 L1015.68 1473.54 L1027.49 1473.54 L1027.49 1455.09 M1026.26 1451.02 L1032.14 1451.02 L1032.14 1473.54 L1037.07 1473.54 L1037.07 1477.43 L1032.14 1477.43 L1032.14 1485.58 L1027.49 1485.58 L1027.49 1477.43 L1011.89 1477.43 L1011.89 1472.92 L1026.26 1451.02 Z" fill="#000000" fill-rule="nonzero" fill-opacity="1" /><path clip-path="url(#clip700)" d="M1467.64 1466.44 Q1464.49 1466.44 1462.64 1468.59 Q1460.81 1470.74 1460.81 1474.49 Q1460.81 1478.22 1462.64 1480.39 Q1464.49 1482.55 1467.64 1482.55 Q1470.79 1482.55 1472.62 1480.39 Q1474.47 1478.22 1474.47 1474.49 Q1474.47 1470.74 1472.62 1468.59 Q1470.79 1466.44 1467.64 1466.44 M1476.92 1451.78 L1476.92 1456.04 Q1475.17 1455.21 1473.36 1454.77 Q1471.58 1454.33 1469.82 1454.33 Q1465.19 1454.33 1462.74 1457.45 Q1460.3 1460.58 1459.96 1466.9 Q1461.32 1464.89 1463.38 1463.82 Q1465.44 1462.73 1467.92 1462.73 Q1473.13 1462.73 1476.14 1465.9 Q1479.17 1469.05 1479.17 1474.49 Q1479.17 1479.82 1476.02 1483.03 Q1472.87 1486.25 1467.64 1486.25 Q1461.65 1486.25 1458.48 1481.67 Q1455.3 1477.06 1455.3 1468.33 Q1455.3 1460.14 1459.19 1455.28 Q1463.08 1450.39 1469.63 1450.39 Q1471.39 1450.39 1473.17 1450.74 Q1474.98 1451.09 1476.92 1451.78 Z" fill="#000000" fill-rule="nonzero" fill-opacity="1" /><path clip-path="url(#clip700)" d="M1910 1469.17 Q1906.66 1469.17 1904.74 1470.95 Q1902.84 1472.73 1902.84 1475.86 Q1902.84 1478.98 1904.74 1480.77 Q1906.66 1482.55 1910 1482.55 Q1913.33 1482.55 1915.25 1480.77 Q1917.17 1478.96 1917.17 1475.86 Q1917.17 1472.73 1915.25 1470.95 Q1913.35 1469.17 1910 1469.17 M1905.32 1467.18 Q1902.31 1466.44 1900.62 1464.38 Q1898.96 1462.32 1898.96 1459.35 Q1898.96 1455.21 1901.89 1452.8 Q1904.86 1450.39 1910 1450.39 Q1915.16 1450.39 1918.1 1452.8 Q1921.04 1455.21 1921.04 1459.35 Q1921.04 1462.32 1919.35 1464.38 Q1917.68 1466.44 1914.7 1467.18 Q1918.08 1467.96 1919.95 1470.26 Q1921.85 1472.55 1921.85 1475.86 Q1921.85 1480.88 1918.77 1483.57 Q1915.71 1486.25 1910 1486.25 Q1904.28 1486.25 1901.2 1483.57 Q1898.14 1480.88 1898.14 1475.86 Q1898.14 1472.55 1900.04 1470.26 Q1901.94 1467.96 1905.32 1467.18 M1903.61 1459.79 Q1903.61 1462.48 1905.27 1463.98 Q1906.96 1465.49 1910 1465.49 Q1913.01 1465.49 1914.7 1463.98 Q1916.41 1462.48 1916.41 1459.79 Q1916.41 1457.11 1914.7 1455.6 Q1913.01 1454.1 1910 1454.1 Q1906.96 1454.1 1905.27 1455.6 Q1903.61 1457.11 1903.61 1459.79 Z" fill="#000000" fill-rule="nonzero" fill-opacity="1" /><path clip-path="url(#clip700)" d="M2327.44 1481.64 L2335.08 1481.64 L2335.08 1455.28 L2326.77 1456.95 L2326.77 1452.69 L2335.04 1451.02 L2339.71 1451.02 L2339.71 1481.64 L2347.35 1481.64 L2347.35 1485.58 L2327.44 1485.58 L2327.44 1481.64 Z" fill="#000000" fill-rule="nonzero" fill-opacity="1" /><path clip-path="url(#clip700)" d="M2366.8 1454.1 Q2363.18 1454.1 2361.36 1457.66 Q2359.55 1461.2 2359.55 1468.33 Q2359.55 1475.44 2361.36 1479.01 Q2363.18 1482.55 2366.8 1482.55 Q2370.43 1482.55 2372.23 1479.01 Q2374.06 1475.44 2374.06 1468.33 Q2374.06 1461.2 2372.23 1457.66 Q2370.43 1454.1 2366.8 1454.1 M2366.8 1450.39 Q2372.61 1450.39 2375.66 1455 Q2378.74 1459.58 2378.74 1468.33 Q2378.74 1477.06 2375.66 1481.67 Q2372.61 1486.25 2366.8 1486.25 Q2360.99 1486.25 2357.91 1481.67 Q2354.85 1477.06 2354.85 1468.33 Q2354.85 1459.58 2357.91 1455 Q2360.99 1450.39 2366.8 1450.39 Z" fill="#000000" fill-rule="nonzero" fill-opacity="1" /><path clip-path="url(#clip700)" d="M1244.92 1522.27 L1244.92 1532.4 L1256.98 1532.4 L1256.98 1536.95 L1244.92 1536.95 L1244.92 1556.3 Q1244.92 1560.66 1246.1 1561.9 Q1247.31 1563.14 1250.97 1563.14 L1256.98 1563.14 L1256.98 1568.04 L1250.97 1568.04 Q1244.19 1568.04 1241.61 1565.53 Q1239.03 1562.98 1239.03 1556.3 L1239.03 1536.95 L1234.73 1536.95 L1234.73 1532.4 L1239.03 1532.4 L1239.03 1522.27 L1244.92 1522.27 Z" fill="#000000" fill-rule="nonzero" fill-opacity="1" /><polyline clip-path="url(#clip700)" style="stroke:#000000; stroke-linecap:round; stroke-linejoin:round; stroke-width:4; stroke-opacity:1; fill:none" points="138.959,1423.18 138.959,47.2441 "/>
<polyline clip-path="url(#clip700)" style="stroke:#000000; stroke-linecap:round; stroke-linejoin:round; stroke-width:4; stroke-opacity:1; fill:none" points="138.959,1384.24 157.857,1384.24 "/>
<polyline clip-path="url(#clip700)" style="stroke:#000000; stroke-linecap:round; stroke-linejoin:round; stroke-width:4; stroke-opacity:1; fill:none" points="138.959,1023.67 157.857,1023.67 "/>
<polyline clip-path="url(#clip700)" style="stroke:#000000; stroke-linecap:round; stroke-linejoin:round; stroke-width:4; stroke-opacity:1; fill:none" points="138.959,663.098 157.857,663.098 "/>
<polyline clip-path="url(#clip700)" style="stroke:#000000; stroke-linecap:round; stroke-linejoin:round; stroke-width:4; stroke-opacity:1; fill:none" points="138.959,302.528 157.857,302.528 "/>
<path clip-path="url(#clip700)" d="M91.0151 1370.04 Q87.404 1370.04 85.5753 1373.6 Q83.7697 1377.14 83.7697 1384.27 Q83.7697 1391.38 85.5753 1394.94 Q87.404 1398.49 91.0151 1398.49 Q94.6493 1398.49 96.4548 1394.94 Q98.2835 1391.38 98.2835 1384.27 Q98.2835 1377.14 96.4548 1373.6 Q94.6493 1370.04 91.0151 1370.04 M91.0151 1366.33 Q96.8252 1366.33 99.8808 1370.94 Q102.959 1375.52 102.959 1384.27 Q102.959 1393 99.8808 1397.61 Q96.8252 1402.19 91.0151 1402.19 Q85.2049 1402.19 82.1262 1397.61 Q79.0707 1393 79.0707 1384.27 Q79.0707 1375.52 82.1262 1370.94 Q85.2049 1366.33 91.0151 1366.33 Z" fill="#000000" fill-rule="nonzero" fill-opacity="1" /><path clip-path="url(#clip700)" d="M82.0568 1006.39 L100.413 1006.39 L100.413 1010.32 L86.3392 1010.32 L86.3392 1018.8 Q87.3577 1018.45 88.3762 1018.29 Q89.3947 1018.1 90.4132 1018.1 Q96.2002 1018.1 99.5798 1021.27 Q102.959 1024.44 102.959 1029.86 Q102.959 1035.44 99.4872 1038.54 Q96.015 1041.62 89.6956 1041.62 Q87.5197 1041.62 85.2512 1041.25 Q83.0058 1040.88 80.5984 1040.14 L80.5984 1035.44 Q82.6818 1036.57 84.904 1037.13 Q87.1262 1037.68 89.603 1037.68 Q93.6076 1037.68 95.9456 1035.58 Q98.2835 1033.47 98.2835 1029.86 Q98.2835 1026.25 95.9456 1024.14 Q93.6076 1022.04 89.603 1022.04 Q87.728 1022.04 85.8531 1022.45 Q84.0012 1022.87 82.0568 1023.75 L82.0568 1006.39 Z" fill="#000000" fill-rule="nonzero" fill-opacity="1" /><path clip-path="url(#clip700)" d="M51.6634 676.443 L59.3023 676.443 L59.3023 650.077 L50.9921 651.744 L50.9921 647.485 L59.256 645.818 L63.9319 645.818 L63.9319 676.443 L71.5707 676.443 L71.5707 680.378 L51.6634 680.378 L51.6634 676.443 Z" fill="#000000" fill-rule="nonzero" fill-opacity="1" /><path clip-path="url(#clip700)" d="M91.0151 648.897 Q87.404 648.897 85.5753 652.461 Q83.7697 656.003 83.7697 663.133 Q83.7697 670.239 85.5753 673.804 Q87.404 677.346 91.0151 677.346 Q94.6493 677.346 96.4548 673.804 Q98.2835 670.239 98.2835 663.133 Q98.2835 656.003 96.4548 652.461 Q94.6493 648.897 91.0151 648.897 M91.0151 645.193 Q96.8252 645.193 99.8808 649.799 Q102.959 654.383 102.959 663.133 Q102.959 671.859 99.8808 676.466 Q96.8252 681.049 91.0151 681.049 Q85.2049 681.049 82.1262 676.466 Q79.0707 671.859 79.0707 663.133 Q79.0707 654.383 82.1262 649.799 Q85.2049 645.193 91.0151 645.193 Z" fill="#000000" fill-rule="nonzero" fill-opacity="1" /><path clip-path="url(#clip700)" d="M52.6588 315.873 L60.2976 315.873 L60.2976 289.507 L51.9875 291.174 L51.9875 286.914 L60.2513 285.248 L64.9272 285.248 L64.9272 315.873 L72.5661 315.873 L72.5661 319.808 L52.6588 319.808 L52.6588 315.873 Z" fill="#000000" fill-rule="nonzero" fill-opacity="1" /><path clip-path="url(#clip700)" d="M82.0568 285.248 L100.413 285.248 L100.413 289.183 L86.3392 289.183 L86.3392 297.655 Q87.3577 297.308 88.3762 297.146 Q89.3947 296.961 90.4132 296.961 Q96.2002 296.961 99.5798 300.132 Q102.959 303.303 102.959 308.72 Q102.959 314.299 99.4872 317.4 Q96.015 320.479 89.6956 320.479 Q87.5197 320.479 85.2512 320.109 Q83.0058 319.738 80.5984 318.998 L80.5984 314.299 Q82.6818 315.433 84.904 315.988 Q87.1262 316.544 89.603 316.544 Q93.6076 316.544 95.9456 314.437 Q98.2835 312.331 98.2835 308.72 Q98.2835 305.109 95.9456 303.002 Q93.6076 300.896 89.603 300.896 Q87.728 300.896 85.8531 301.312 Q84.0012 301.729 82.0568 302.609 L82.0568 285.248 Z" fill="#000000" fill-rule="nonzero" fill-opacity="1" /><polyline clip-path="url(#clip702)" style="stroke:#009af9; stroke-linecap:round; stroke-linejoin:round; stroke-width:8; stroke-opacity:1; fill:none" points="138.959,1384.24 140.067,1384.24 141.174,1384.24 142.282,1384.24 143.389,1384.24 144.497,1384.24 145.604,1384.24 146.712,1384.24 147.819,1384.24 148.927,1384.24 150.034,1384.24 151.141,1384.24 152.249,1384.24 153.356,1312.12 154.464,1312.12 155.571,1312.12 156.679,1312.12 157.786,1312.12 158.894,1312.12 160.001,1312.12 161.108,1312.12 162.216,1312.12 163.323,1312.12 164.431,1312.12 165.538,1312.12 166.646,1312.12 167.753,1312.12 168.861,1312.12 169.968,1312.12 171.076,1312.12 172.183,1312.12 173.29,1312.12 174.398,1312.12 175.505,1312.12 176.613,1312.12 177.72,1312.12 178.828,1312.12 179.935,1312.12 181.043,1312.12 182.15,1312.12 183.258,1312.12 184.365,1312.12 185.472,1312.12 186.58,1312.12 187.687,1312.12 188.795,1312.12 189.902,1312.12 191.01,1312.12 192.117,1312.12 193.225,1312.12 194.332,1312.12 195.439,1312.12 196.547,1312.12 197.654,1312.12 198.762,1312.12 199.869,1312.12 200.977,1312.12 202.084,1312.12 203.192,1312.12 204.299,1312.12 205.407,1312.12 206.514,1312.12 207.621,1312.12 208.729,1240.01 209.836,1240.01 210.944,1240.01 212.051,1240.01 213.159,1240.01 214.266,1240.01 215.374,1240.01 216.481,1240.01 217.589,1240.01 218.696,1240.01 219.803,1240.01 220.911,1240.01 222.018,1240.01 223.126,1240.01 224.233,1240.01 225.341,1240.01 226.448,1240.01 227.556,1240.01 228.663,1240.01 229.771,1240.01 230.878,1240.01 231.985,1240.01 233.093,1240.01 234.2,1240.01 235.308,1240.01 236.415,1240.01 237.523,1240.01 238.63,1240.01 239.738,1240.01 240.845,1240.01 241.952,1240.01 243.06,1240.01 244.167,1240.01 245.275,1240.01 246.382,1167.9 247.49,1167.9 248.597,1167.9 249.705,1167.9 250.812,1167.9 251.92,1167.9 253.027,1167.9 254.134,1167.9 255.242,1167.9 256.349,1167.9 257.457,1167.9 258.564,1167.9 259.672,1167.9 260.779,1167.9 261.887,1167.9 262.994,1167.9 264.102,1167.9 265.209,1167.9 266.316,1167.9 267.424,1167.9 268.531,1167.9 269.639,1167.9 270.746,1167.9 271.854,1167.9 272.961,1167.9 274.069,1167.9 275.176,1167.9 276.283,1167.9 277.391,1167.9 278.498,1167.9 279.606,1167.9 280.713,1167.9 281.821,1167.9 282.928,1167.9 284.036,1167.9 285.143,1167.9 286.251,1167.9 287.358,1167.9 288.465,1167.9 289.573,1167.9 290.68,1167.9 291.788,1167.9 292.895,1167.9 294.003,1167.9 295.11,1167.9 296.218,1167.9 297.325,1167.9 298.433,1167.9 299.54,1167.9 300.647,1167.9 301.755,1167.9 302.862,1167.9 303.97,1167.9 305.077,1167.9 306.185,1167.9 307.292,1167.9 308.4,1167.9 309.507,1167.9 310.614,1167.9 311.722,1167.9 312.829,1167.9 313.937,1167.9 315.044,1167.9 316.152,1167.9 317.259,1167.9 318.367,1167.9 319.474,1167.9 320.582,1167.9 321.689,1167.9 322.796,1167.9 323.904,1167.9 325.011,1167.9 326.119,1095.78 327.226,1095.78 328.334,1095.78 329.441,1095.78 330.549,1095.78 331.656,1095.78 332.764,1095.78 333.871,1095.78 334.978,1095.78 336.086,1095.78 337.193,1095.78 338.301,1095.78 339.408,1095.78 340.516,1095.78 341.623,1095.78 342.731,1095.78 343.838,1095.78 344.946,1095.78 346.053,1095.78 347.16,1095.78 348.268,1095.78 349.375,1095.78 350.483,1095.78 351.59,1095.78 352.698,1095.78 353.805,1095.78 354.913,1095.78 356.02,1095.78 357.127,1095.78 358.235,1095.78 359.342,1095.78 360.45,1095.78 361.557,1095.78 362.665,1095.78 363.772,1095.78 364.88,1095.78 365.987,1095.78 367.095,1095.78 368.202,1095.78 369.309,1095.78 370.417,1095.78 371.524,1095.78 372.632,1095.78 373.739,1095.78 374.847,1095.78 375.954,1095.78 377.062,1095.78 378.169,1095.78 379.277,1095.78 380.384,1095.78 381.491,1095.78 382.599,1095.78 383.706,1095.78 384.814,1095.78 385.921,1095.78 387.029,1095.78 388.136,1095.78 389.244,1095.78 390.351,1095.78 391.458,1095.78 392.566,1095.78 393.673,1095.78 394.781,1095.78 395.888,1095.78 396.996,1095.78 398.103,1095.78 399.211,1095.78 400.318,1095.78 401.426,1095.78 402.533,1095.78 403.64,1095.78 404.748,1095.78 405.855,1095.78 406.963,1095.78 408.07,1095.78 409.178,1095.78 410.285,1095.78 411.393,1095.78 412.5,1095.78 413.608,1095.78 414.715,1095.78 415.822,1095.78 416.93,1095.78 418.037,1095.78 419.145,1095.78 420.252,1095.78 421.36,1095.78 422.467,1095.78 423.575,1095.78 424.682,1095.78 425.789,1095.78 426.897,1095.78 428.004,1095.78 429.112,1095.78 430.219,1095.78 431.327,1095.78 432.434,1095.78 433.542,1095.78 434.649,1095.78 435.757,1095.78 436.864,1095.78 437.971,1095.78 439.079,1095.78 440.186,1095.78 441.294,1023.67 442.401,1023.67 443.509,1023.67 444.616,1023.67 445.724,1023.67 446.831,1023.67 447.939,1023.67 449.046,1023.67 450.153,1023.67 451.261,1023.67 452.368,1023.67 453.476,1023.67 454.583,1023.67 455.691,1023.67 456.798,1023.67 457.906,1023.67 459.013,1023.67 460.121,1023.67 461.228,1023.67 462.335,1023.67 463.443,1023.67 464.55,1023.67 465.658,1023.67 466.765,1023.67 467.873,1023.67 468.98,1023.67 470.088,1023.67 471.195,1023.67 472.302,1023.67 473.41,1023.67 474.517,1023.67 475.625,1023.67 476.732,1023.67 477.84,1023.67 478.947,1023.67 480.055,1023.67 481.162,1023.67 482.27,1023.67 483.377,1023.67 484.484,1023.67 485.592,1023.67 486.699,1023.67 487.807,1023.67 488.914,1023.67 490.022,1023.67 491.129,1023.67 492.237,1023.67 493.344,1023.67 494.452,1023.67 495.559,1023.67 496.666,1023.67 497.774,1023.67 498.881,1023.67 499.989,1023.67 501.096,1023.67 502.204,1023.67 503.311,1023.67 504.419,1023.67 505.526,1023.67 506.633,1023.67 507.741,1023.67 508.848,1023.67 509.956,1023.67 511.063,1023.67 512.171,1023.67 513.278,1023.67 514.386,1023.67 515.493,1023.67 516.601,1023.67 517.708,1023.67 518.815,1023.67 519.923,1023.67 521.03,1023.67 522.138,1023.67 523.245,1023.67 524.353,1023.67 525.46,1023.67 526.568,1023.67 527.675,1023.67 528.783,1023.67 529.89,1023.67 530.997,1023.67 532.105,1023.67 533.212,1023.67 534.32,1023.67 535.427,1023.67 536.535,1023.67 537.642,1023.67 538.75,1023.67 539.857,1023.67 540.965,1023.67 542.072,1023.67 543.179,1023.67 544.287,1023.67 545.394,1023.67 546.502,1023.67 547.609,1023.67 548.717,1023.67 549.824,1023.67 550.932,1023.67 552.039,1023.67 553.146,1023.67 554.254,1023.67 555.361,1023.67 556.469,1023.67 557.576,1023.67 558.684,1023.67 559.791,1023.67 560.899,1023.67 562.006,1023.67 563.114,1023.67 564.221,1023.67 565.328,1023.67 566.436,1023.67 567.543,1023.67 568.651,1023.67 569.758,1023.67 570.866,1023.67 571.973,1023.67 573.081,1023.67 574.188,1023.67 575.296,1023.67 576.403,1023.67 577.51,1023.67 578.618,1023.67 579.725,1023.67 580.833,1023.67 581.94,1023.67 583.048,1023.67 584.155,1023.67 585.263,1023.67 586.37,1023.67 587.477,1023.67 588.585,1023.67 589.692,1023.67 590.8,1023.67 591.907,1023.67 593.015,1023.67 594.122,1023.67 595.23,1023.67 596.337,1023.67 597.445,1023.67 598.552,1023.67 599.659,1023.67 600.767,1023.67 601.874,1023.67 602.982,1023.67 604.089,1023.67 605.197,1023.67 606.304,1023.67 607.412,1023.67 608.519,1023.67 609.627,1023.67 610.734,1023.67 611.841,1023.67 612.949,1023.67 614.056,1023.67 615.164,1023.67 616.271,1023.67 617.379,1023.67 618.486,1023.67 619.594,1023.67 620.701,1023.67 621.808,1023.67 622.916,1023.67 624.023,1023.67 625.131,1023.67 626.238,1023.67 627.346,1023.67 628.453,1023.67 629.561,1023.67 630.668,1023.67 631.776,1023.67 632.883,1023.67 633.99,1023.67 635.098,1023.67 636.205,1023.67 637.313,1023.67 638.42,1023.67 639.528,1023.67 640.635,1023.67 641.743,1023.67 642.85,1023.67 643.958,1023.67 645.065,1023.67 646.172,1023.67 647.28,1023.67 648.387,1023.67 649.495,1023.67 650.602,1023.67 651.71,1023.67 652.817,1023.67 653.925,1023.67 655.032,1023.67 656.14,1023.67 657.247,1023.67 658.354,1023.67 659.462,1023.67 660.569,1023.67 661.677,1023.67 662.784,1023.67 663.892,1023.67 664.999,1023.67 666.107,1023.67 667.214,1023.67 668.321,1023.67 669.429,1023.67 670.536,1023.67 671.644,1023.67 672.751,1023.67 673.859,1023.67 674.966,1023.67 676.074,1023.67 677.181,1023.67 678.289,1023.67 679.396,1023.67 680.503,1023.67 681.611,1023.67 682.718,1023.67 683.826,1023.67 684.933,1023.67 686.041,951.554 687.148,951.554 688.256,951.554 689.363,951.554 690.471,951.554 691.578,951.554 692.685,951.554 693.793,951.554 694.9,951.554 696.008,951.554 697.115,951.554 698.223,951.554 699.33,951.554 700.438,951.554 701.545,951.554 702.652,951.554 703.76,951.554 704.867,951.554 705.975,951.554 707.082,951.554 708.19,951.554 709.297,951.554 710.405,951.554 711.512,951.554 712.62,951.554 713.727,951.554 714.834,951.554 715.942,951.554 717.049,951.554 718.157,951.554 719.264,951.554 720.372,951.554 721.479,951.554 722.587,951.554 723.694,951.554 724.802,951.554 725.909,951.554 727.016,951.554 728.124,951.554 729.231,951.554 730.339,951.554 731.446,951.554 732.554,951.554 733.661,951.554 734.769,951.554 735.876,951.554 736.983,951.554 738.091,951.554 739.198,951.554 740.306,951.554 741.413,951.554 742.521,951.554 743.628,951.554 744.736,951.554 745.843,951.554 746.951,951.554 748.058,951.554 749.165,951.554 750.273,951.554 751.38,951.554 752.488,951.554 753.595,951.554 754.703,951.554 755.81,951.554 756.918,951.554 758.025,951.554 759.133,951.554 760.24,951.554 761.347,951.554 762.455,951.554 763.562,951.554 764.67,951.554 765.777,951.554 766.885,951.554 767.992,951.554 769.1,951.554 770.207,951.554 771.315,951.554 772.422,951.554 773.529,951.554 774.637,951.554 775.744,951.554 776.852,951.554 777.959,951.554 779.067,951.554 780.174,951.554 781.282,951.554 782.389,951.554 783.496,951.554 784.604,951.554 785.711,951.554 786.819,951.554 787.926,951.554 789.034,951.554 790.141,951.554 791.249,951.554 792.356,951.554 793.464,951.554 794.571,951.554 795.678,951.554 796.786,951.554 797.893,951.554 799.001,951.554 800.108,951.554 801.216,951.554 802.323,951.554 803.431,951.554 804.538,951.554 805.646,951.554 806.753,951.554 807.86,951.554 808.968,951.554 810.075,951.554 811.183,951.554 812.29,951.554 813.398,951.554 814.505,951.554 815.613,951.554 816.72,951.554 817.827,951.554 818.935,951.554 820.042,951.554 821.15,951.554 822.257,951.554 823.365,951.554 824.472,951.554 825.58,951.554 826.687,951.554 827.795,951.554 828.902,951.554 830.009,951.554 831.117,951.554 832.224,951.554 833.332,951.554 834.439,951.554 835.547,951.554 836.654,951.554 837.762,951.554 838.869,951.554 839.977,951.554 841.084,951.554 842.191,951.554 843.299,951.554 844.406,951.554 845.514,951.554 846.621,951.554 847.729,951.554 848.836,951.554 849.944,951.554 851.051,951.554 852.159,951.554 853.266,951.554 854.373,951.554 855.481,951.554 856.588,951.554 857.696,951.554 858.803,951.554 859.911,951.554 861.018,951.554 862.126,951.554 863.233,951.554 864.34,951.554 865.448,951.554 866.555,951.554 867.663,951.554 868.77,951.554 869.878,951.554 870.985,951.554 872.093,951.554 873.2,951.554 874.308,951.554 875.415,951.554 876.522,951.554 877.63,951.554 878.737,879.44 879.845,879.44 880.952,879.44 882.06,879.44 883.167,879.44 884.275,879.44 885.382,879.44 886.49,879.44 887.597,879.44 888.704,879.44 889.812,879.44 890.919,879.44 892.027,879.44 893.134,879.44 894.242,879.44 895.349,879.44 896.457,879.44 897.564,879.44 898.671,879.44 899.779,879.44 900.886,879.44 901.994,879.44 903.101,879.44 904.209,879.44 905.316,879.44 906.424,879.44 907.531,879.44 908.639,879.44 909.746,879.44 910.853,879.44 911.961,879.44 913.068,879.44 914.176,879.44 915.283,879.44 916.391,879.44 917.498,879.44 918.606,879.44 919.713,879.44 920.821,879.44 921.928,879.44 923.035,879.44 924.143,879.44 925.25,879.44 926.358,879.44 927.465,879.44 928.573,879.44 929.68,879.44 930.788,879.44 931.895,879.44 933.002,879.44 934.11,879.44 935.217,879.44 936.325,879.44 937.432,879.44 938.54,879.44 939.647,879.44 940.755,879.44 941.862,879.44 942.97,879.44 944.077,879.44 945.184,879.44 946.292,879.44 947.399,879.44 948.507,879.44 949.614,879.44 950.722,879.44 951.829,879.44 952.937,879.44 954.044,879.44 955.152,879.44 956.259,879.44 957.366,879.44 958.474,879.44 959.581,879.44 960.689,879.44 961.796,879.44 962.904,879.44 964.011,879.44 965.119,879.44 966.226,879.44 967.334,879.44 968.441,879.44 969.548,879.44 970.656,879.44 971.763,879.44 972.871,879.44 973.978,879.44 975.086,879.44 976.193,879.44 977.301,879.44 978.408,879.44 979.515,879.44 980.623,879.44 981.73,879.44 982.838,879.44 983.945,879.44 985.053,879.44 986.16,879.44 987.268,879.44 988.375,879.44 989.483,879.44 990.59,879.44 991.697,879.44 992.805,879.44 993.912,879.44 995.02,807.326 996.127,807.326 997.235,807.326 998.342,807.326 999.45,807.326 1000.56,807.326 1001.66,807.326 1002.77,807.326 1003.88,807.326 1004.99,807.326 1006.09,807.326 1007.2,807.326 1008.31,807.326 1009.42,807.326 1010.52,807.326 1011.63,807.326 1012.74,807.326 1013.85,807.326 1014.95,807.326 1016.06,807.326 1017.17,807.326 1018.28,807.326 1019.38,807.326 1020.49,807.326 1021.6,807.326 1022.71,807.326 1023.81,807.326 1024.92,807.326 1026.03,807.326 1027.14,807.326 1028.24,807.326 1029.35,807.326 1030.46,807.326 1031.57,807.326 1032.67,807.326 1033.78,807.326 1034.89,807.326 1036,807.326 1037.1,807.326 1038.21,807.326 1039.32,807.326 1040.43,807.326 1041.53,807.326 1042.64,807.326 1043.75,807.326 1044.86,807.326 1045.96,807.326 1047.07,807.326 1048.18,807.326 1049.28,807.326 1050.39,807.326 1051.5,807.326 1052.61,807.326 1053.71,807.326 1054.82,807.326 1055.93,807.326 1057.04,807.326 1058.14,807.326 1059.25,807.326 1060.36,807.326 1061.47,807.326 1062.57,807.326 1063.68,807.326 1064.79,807.326 1065.9,807.326 1067,807.326 1068.11,807.326 1069.22,807.326 1070.33,807.326 1071.43,807.326 1072.54,807.326 1073.65,807.326 1074.76,807.326 1075.86,807.326 1076.97,807.326 1078.08,807.326 1079.19,807.326 1080.29,807.326 1081.4,807.326 1082.51,807.326 1083.62,807.326 1084.72,807.326 1085.83,807.326 1086.94,807.326 1088.05,807.326 1089.15,807.326 1090.26,807.326 1091.37,807.326 1092.48,807.326 1093.58,807.326 1094.69,807.326 1095.8,807.326 1096.91,807.326 1098.01,807.326 1099.12,807.326 1100.23,807.326 1101.34,807.326 1102.44,807.326 1103.55,807.326 1104.66,807.326 1105.77,807.326 1106.87,807.326 1107.98,807.326 1109.09,807.326 1110.19,807.326 1111.3,807.326 1112.41,807.326 1113.52,807.326 1114.62,807.326 1115.73,807.326 1116.84,807.326 1117.95,807.326 1119.05,807.326 1120.16,807.326 1121.27,807.326 1122.38,807.326 1123.48,807.326 1124.59,807.326 1125.7,807.326 1126.81,807.326 1127.91,807.326 1129.02,807.326 1130.13,807.326 1131.24,807.326 1132.34,807.326 1133.45,807.326 1134.56,807.326 1135.67,807.326 1136.77,807.326 1137.88,807.326 1138.99,807.326 1140.1,807.326 1141.2,807.326 1142.31,807.326 1143.42,807.326 1144.53,807.326 1145.63,807.326 1146.74,807.326 1147.85,807.326 1148.96,807.326 1150.06,807.326 1151.17,807.326 1152.28,807.326 1153.39,807.326 1154.49,807.326 1155.6,807.326 1156.71,807.326 1157.82,807.326 1158.92,807.326 1160.03,807.326 1161.14,807.326 1162.25,807.326 1163.35,807.326 1164.46,807.326 1165.57,807.326 1166.67,807.326 1167.78,807.326 1168.89,807.326 1170,807.326 1171.1,807.326 1172.21,807.326 1173.32,807.326 1174.43,807.326 1175.53,807.326 1176.64,807.326 1177.75,807.326 1178.86,807.326 1179.96,807.326 1181.07,807.326 1182.18,735.212 1183.29,735.212 1184.39,735.212 1185.5,735.212 1186.61,735.212 1187.72,735.212 1188.82,735.212 1189.93,735.212 1191.04,735.212 1192.15,735.212 1193.25,735.212 1194.36,735.212 1195.47,735.212 1196.58,735.212 1197.68,735.212 1198.79,735.212 1199.9,735.212 1201.01,735.212 1202.11,735.212 1203.22,735.212 1204.33,735.212 1205.44,735.212 1206.54,735.212 1207.65,735.212 1208.76,735.212 1209.87,735.212 1210.97,735.212 1212.08,735.212 1213.19,735.212 1214.3,735.212 1215.4,735.212 1216.51,735.212 1217.62,735.212 1218.73,735.212 1219.83,735.212 1220.94,735.212 1222.05,735.212 1223.15,735.212 1224.26,735.212 1225.37,735.212 1226.48,735.212 1227.58,735.212 1228.69,735.212 1229.8,735.212 1230.91,735.212 1232.01,735.212 1233.12,735.212 1234.23,735.212 1235.34,735.212 1236.44,735.212 1237.55,735.212 1238.66,735.212 1239.77,735.212 1240.87,735.212 1241.98,735.212 1243.09,735.212 1244.2,735.212 1245.3,735.212 1246.41,735.212 1247.52,735.212 1248.63,735.212 1249.73,735.212 1250.84,735.212 1251.95,735.212 1253.06,735.212 1254.16,735.212 1255.27,735.212 1256.38,735.212 1257.49,735.212 1258.59,735.212 1259.7,735.212 1260.81,735.212 1261.92,735.212 1263.02,735.212 1264.13,663.098 1265.24,663.098 1266.35,663.098 1267.45,663.098 1268.56,663.098 1269.67,663.098 1270.78,663.098 1271.88,663.098 1272.99,663.098 1274.1,663.098 1275.21,663.098 1276.31,663.098 1277.42,663.098 1278.53,663.098 1279.63,663.098 1280.74,663.098 1281.85,663.098 1282.96,663.098 1284.06,663.098 1285.17,663.098 1286.28,663.098 1287.39,663.098 1288.49,663.098 1289.6,663.098 1290.71,663.098 1291.82,663.098 1292.92,663.098 1294.03,663.098 1295.14,663.098 1296.25,663.098 1297.35,663.098 1298.46,663.098 1299.57,663.098 1300.68,663.098 1301.78,663.098 1302.89,663.098 1304,663.098 1305.11,663.098 1306.21,663.098 1307.32,663.098 1308.43,663.098 1309.54,663.098 1310.64,663.098 1311.75,663.098 1312.86,663.098 1313.97,663.098 1315.07,663.098 1316.18,663.098 1317.29,663.098 1318.4,663.098 1319.5,663.098 1320.61,663.098 1321.72,663.098 1322.83,663.098 1323.93,663.098 1325.04,663.098 1326.15,663.098 1327.26,663.098 1328.36,663.098 1329.47,663.098 1330.58,663.098 1331.69,663.098 1332.79,663.098 1333.9,663.098 1335.01,663.098 1336.12,663.098 1337.22,663.098 1338.33,663.098 1339.44,518.87 1340.54,518.87 1341.65,518.87 1342.76,518.87 1343.87,518.87 1344.97,518.87 1346.08,518.87 1347.19,518.87 1348.3,518.87 1349.4,518.87 1350.51,518.87 1351.62,518.87 1352.73,518.87 1353.83,518.87 1354.94,518.87 1356.05,518.87 1357.16,518.87 1358.26,518.87 1359.37,518.87 1360.48,518.87 1361.59,518.87 1362.69,518.87 1363.8,518.87 1364.91,518.87 1366.02,518.87 1367.12,518.87 1368.23,518.87 1369.34,518.87 1370.45,518.87 1371.55,518.87 1372.66,518.87 1373.77,518.87 1374.88,518.87 1375.98,518.87 1377.09,518.87 1378.2,518.87 1379.31,518.87 1380.41,518.87 1381.52,518.87 1382.63,518.87 1383.74,518.87 1384.84,518.87 1385.95,518.87 1387.06,518.87 1388.17,518.87 1389.27,518.87 1390.38,518.87 1391.49,518.87 1392.6,518.87 1393.7,518.87 1394.81,518.87 1395.92,518.87 1397.02,518.87 1398.13,518.87 1399.24,518.87 1400.35,518.87 1401.45,518.87 1402.56,518.87 1403.67,518.87 1404.78,518.87 1405.88,446.756 1406.99,446.756 1408.1,446.756 1409.21,446.756 1410.31,446.756 1411.42,446.756 1412.53,446.756 1413.64,446.756 1414.74,446.756 1415.85,446.756 1416.96,446.756 1418.07,446.756 1419.17,446.756 1420.28,446.756 1421.39,446.756 1422.5,446.756 1423.6,446.756 1424.71,446.756 1425.82,446.756 1426.93,446.756 1428.03,446.756 1429.14,446.756 1430.25,446.756 1431.36,446.756 1432.46,446.756 1433.57,446.756 1434.68,446.756 1435.79,446.756 1436.89,446.756 1438,446.756 1439.11,446.756 1440.22,446.756 1441.32,446.756 1442.43,446.756 1443.54,446.756 1444.65,446.756 1445.75,446.756 1446.86,446.756 1447.97,446.756 1449.08,446.756 1450.18,446.756 1451.29,446.756 1452.4,446.756 1453.5,446.756 1454.61,446.756 1455.72,446.756 1456.83,446.756 1457.93,446.756 1459.04,446.756 1460.15,446.756 1461.26,446.756 1462.36,446.756 1463.47,446.756 1464.58,446.756 1465.69,446.756 1466.79,446.756 1467.9,446.756 1469.01,446.756 1470.12,446.756 1471.22,446.756 1472.33,446.756 1473.44,446.756 1474.55,446.756 1475.65,446.756 1476.76,446.756 1477.87,446.756 1478.98,446.756 1480.08,446.756 1481.19,446.756 1482.3,446.756 1483.41,446.756 1484.51,446.756 1485.62,446.756 1486.73,446.756 1487.84,446.756 1488.94,446.756 1490.05,446.756 1491.16,446.756 1492.27,446.756 1493.37,446.756 1494.48,446.756 1495.59,446.756 1496.7,446.756 1497.8,446.756 1498.91,446.756 1500.02,446.756 1501.13,446.756 1502.23,446.756 1503.34,446.756 1504.45,446.756 1505.56,446.756 1506.66,446.756 1507.77,446.756 1508.88,446.756 1509.98,446.756 1511.09,446.756 1512.2,446.756 1513.31,446.756 1514.41,446.756 1515.52,446.756 1516.63,446.756 1517.74,446.756 1518.84,446.756 1519.95,446.756 1521.06,446.756 1522.17,446.756 1523.27,446.756 1524.38,446.756 1525.49,446.756 1526.6,446.756 1527.7,446.756 1528.81,446.756 1529.92,446.756 1531.03,446.756 1532.13,446.756 1533.24,446.756 1534.35,446.756 1535.46,446.756 1536.56,446.756 1537.67,446.756 1538.78,446.756 1539.89,446.756 1540.99,446.756 1542.1,446.756 1543.21,446.756 1544.32,446.756 1545.42,446.756 1546.53,446.756 1547.64,446.756 1548.75,446.756 1549.85,446.756 1550.96,446.756 1552.07,446.756 1553.18,446.756 1554.28,446.756 1555.39,446.756 1556.5,446.756 1557.61,446.756 1558.71,446.756 1559.82,446.756 1560.93,446.756 1562.04,446.756 1563.14,446.756 1564.25,446.756 1565.36,446.756 1566.47,446.756 1567.57,446.756 1568.68,446.756 1569.79,446.756 1570.89,446.756 1572,446.756 1573.11,446.756 1574.22,446.756 1575.32,446.756 1576.43,446.756 1577.54,446.756 1578.65,446.756 1579.75,446.756 1580.86,446.756 1581.97,446.756 1583.08,446.756 1584.18,446.756 1585.29,446.756 1586.4,446.756 1587.51,446.756 1588.61,446.756 1589.72,446.756 1590.83,446.756 1591.94,446.756 1593.04,446.756 1594.15,446.756 1595.26,446.756 1596.37,446.756 1597.47,446.756 1598.58,446.756 1599.69,446.756 1600.8,446.756 1601.9,446.756 1603.01,446.756 1604.12,446.756 1605.23,446.756 1606.33,446.756 1607.44,446.756 1608.55,446.756 1609.66,446.756 1610.76,446.756 1611.87,446.756 1612.98,446.756 1614.09,446.756 1615.19,446.756 1616.3,446.756 1617.41,446.756 1618.52,446.756 1619.62,446.756 1620.73,446.756 1621.84,446.756 1622.95,446.756 1624.05,446.756 1625.16,446.756 1626.27,446.756 1627.37,446.756 1628.48,446.756 1629.59,446.756 1630.7,446.756 1631.8,446.756 1632.91,446.756 1634.02,446.756 1635.13,446.756 1636.23,446.756 1637.34,446.756 1638.45,446.756 1639.56,446.756 1640.66,446.756 1641.77,446.756 1642.88,446.756 1643.99,446.756 1645.09,446.756 1646.2,446.756 1647.31,446.756 1648.42,446.756 1649.52,446.756 1650.63,446.756 1651.74,446.756 1652.85,446.756 1653.95,446.756 1655.06,446.756 1656.17,446.756 1657.28,446.756 1658.38,446.756 1659.49,446.756 1660.6,446.756 1661.71,446.756 1662.81,446.756 1663.92,446.756 1665.03,446.756 1666.14,446.756 1667.24,446.756 1668.35,446.756 1669.46,446.756 1670.57,446.756 1671.67,446.756 1672.78,446.756 1673.89,446.756 1675,446.756 1676.1,446.756 1677.21,446.756 1678.32,446.756 1679.43,446.756 1680.53,446.756 1681.64,446.756 1682.75,446.756 1683.85,446.756 1684.96,446.756 1686.07,446.756 1687.18,446.756 1688.28,446.756 1689.39,446.756 1690.5,446.756 1691.61,446.756 1692.71,446.756 1693.82,446.756 1694.93,446.756 1696.04,446.756 1697.14,446.756 1698.25,446.756 1699.36,446.756 1700.47,446.756 1701.57,446.756 1702.68,446.756 1703.79,446.756 1704.9,446.756 1706,446.756 1707.11,446.756 1708.22,446.756 1709.33,446.756 1710.43,446.756 1711.54,446.756 1712.65,446.756 1713.76,446.756 1714.86,446.756 1715.97,446.756 1717.08,446.756 1718.19,446.756 1719.29,446.756 1720.4,446.756 1721.51,446.756 1722.62,446.756 1723.72,446.756 1724.83,446.756 1725.94,446.756 1727.05,446.756 1728.15,446.756 1729.26,446.756 1730.37,446.756 1731.48,446.756 1732.58,446.756 1733.69,446.756 1734.8,446.756 1735.91,446.756 1737.01,446.756 1738.12,446.756 1739.23,446.756 1740.33,446.756 1741.44,446.756 1742.55,446.756 1743.66,446.756 1744.76,446.756 1745.87,446.756 1746.98,446.756 1748.09,446.756 1749.19,446.756 1750.3,446.756 1751.41,446.756 1752.52,446.756 1753.62,446.756 1754.73,446.756 1755.84,446.756 1756.95,446.756 1758.05,446.756 1759.16,446.756 1760.27,446.756 1761.38,446.756 1762.48,446.756 1763.59,446.756 1764.7,446.756 1765.81,446.756 1766.91,446.756 1768.02,446.756 1769.13,446.756 1770.24,446.756 1771.34,446.756 1772.45,446.756 1773.56,446.756 1774.67,446.756 1775.77,446.756 1776.88,446.756 1777.99,446.756 1779.1,446.756 1780.2,446.756 1781.31,446.756 1782.42,446.756 1783.53,446.756 1784.63,446.756 1785.74,446.756 1786.85,446.756 1787.96,446.756 1789.06,446.756 1790.17,446.756 1791.28,446.756 1792.39,446.756 1793.49,446.756 1794.6,446.756 1795.71,446.756 1796.82,446.756 1797.92,446.756 1799.03,446.756 1800.14,446.756 1801.24,446.756 1802.35,446.756 1803.46,446.756 1804.57,446.756 1805.67,446.756 1806.78,374.642 1807.89,374.642 1809,374.642 1810.1,374.642 1811.21,374.642 1812.32,374.642 1813.43,374.642 1814.53,374.642 1815.64,374.642 1816.75,374.642 1817.86,374.642 1818.96,374.642 1820.07,374.642 1821.18,374.642 1822.29,374.642 1823.39,374.642 1824.5,374.642 1825.61,374.642 1826.72,374.642 1827.82,374.642 1828.93,374.642 1830.04,374.642 1831.15,374.642 1832.25,374.642 1833.36,374.642 1834.47,374.642 1835.58,374.642 1836.68,374.642 1837.79,374.642 1838.9,374.642 1840.01,374.642 1841.11,374.642 1842.22,374.642 1843.33,374.642 1844.44,374.642 1845.54,374.642 1846.65,374.642 1847.76,374.642 1848.87,374.642 1849.97,374.642 1851.08,374.642 1852.19,374.642 1853.3,374.642 1854.4,374.642 1855.51,374.642 1856.62,374.642 1857.72,374.642 1858.83,374.642 1859.94,374.642 1861.05,374.642 1862.15,374.642 1863.26,374.642 1864.37,374.642 1865.48,374.642 1866.58,374.642 1867.69,374.642 1868.8,374.642 1869.91,374.642 1871.01,374.642 1872.12,374.642 1873.23,374.642 1874.34,374.642 1875.44,374.642 1876.55,374.642 1877.66,374.642 1878.77,374.642 1879.87,374.642 1880.98,374.642 1882.09,374.642 1883.2,374.642 1884.3,374.642 1885.41,374.642 1886.52,374.642 1887.63,374.642 1888.73,374.642 1889.84,374.642 1890.95,374.642 1892.06,374.642 1893.16,374.642 1894.27,374.642 1895.38,374.642 1896.49,374.642 1897.59,374.642 1898.7,374.642 1899.81,374.642 1900.92,374.642 1902.02,374.642 1903.13,374.642 1904.24,374.642 1905.35,374.642 1906.45,374.642 1907.56,374.642 1908.67,374.642 1909.78,374.642 1910.88,374.642 1911.99,374.642 1913.1,374.642 1914.2,374.642 1915.31,374.642 1916.42,374.642 1917.53,374.642 1918.63,374.642 1919.74,374.642 1920.85,374.642 1921.96,374.642 1923.06,374.642 1924.17,374.642 1925.28,374.642 1926.39,374.642 1927.49,374.642 1928.6,374.642 1929.71,374.642 1930.82,374.642 1931.92,374.642 1933.03,374.642 1934.14,374.642 1935.25,374.642 1936.35,374.642 1937.46,374.642 1938.57,374.642 1939.68,374.642 1940.78,374.642 1941.89,374.642 1943,302.528 1944.11,302.528 1945.21,302.528 1946.32,302.528 1947.43,230.414 1948.54,230.414 1949.64,230.414 1950.75,230.414 1951.86,230.414 1952.97,230.414 1954.07,230.414 1955.18,230.414 1956.29,230.414 1957.4,230.414 1958.5,230.414 1959.61,230.414 1960.72,230.414 1961.83,230.414 1962.93,230.414 1964.04,230.414 1965.15,230.414 1966.26,230.414 1967.36,230.414 1968.47,230.414 1969.58,230.414 1970.68,230.414 1971.79,230.414 1972.9,230.414 1974.01,230.414 1975.11,230.414 1976.22,230.414 1977.33,230.414 1978.44,230.414 1979.54,230.414 1980.65,230.414 1981.76,230.414 1982.87,230.414 1983.97,230.414 1985.08,230.414 1986.19,230.414 1987.3,230.414 1988.4,230.414 1989.51,230.414 1990.62,230.414 1991.73,230.414 1992.83,230.414 1993.94,230.414 1995.05,230.414 1996.16,230.414 1997.26,230.414 1998.37,230.414 1999.48,230.414 2000.59,230.414 2001.69,230.414 2002.8,230.414 2003.91,230.414 2005.02,230.414 2006.12,230.414 2007.23,230.414 2008.34,230.414 2009.45,230.414 2010.55,230.414 2011.66,230.414 2012.77,230.414 2013.88,230.414 2014.98,230.414 2016.09,230.414 2017.2,230.414 2018.31,230.414 2019.41,230.414 2020.52,230.414 2021.63,230.414 2022.74,230.414 2023.84,230.414 2024.95,230.414 2026.06,230.414 2027.17,230.414 2028.27,230.414 2029.38,230.414 2030.49,230.414 2031.59,230.414 2032.7,230.414 2033.81,230.414 2034.92,230.414 2036.02,230.414 2037.13,230.414 2038.24,230.414 2039.35,230.414 2040.45,230.414 2041.56,230.414 2042.67,230.414 2043.78,230.414 2044.88,230.414 2045.99,230.414 2047.1,230.414 2048.21,230.414 2049.31,230.414 2050.42,230.414 2051.53,230.414 2052.64,230.414 2053.74,230.414 2054.85,230.414 2055.96,230.414 2057.07,230.414 2058.17,230.414 2059.28,230.414 2060.39,230.414 2061.5,230.414 2062.6,230.414 2063.71,230.414 2064.82,230.414 2065.93,230.414 2067.03,230.414 2068.14,230.414 2069.25,230.414 2070.36,230.414 2071.46,230.414 2072.57,230.414 2073.68,230.414 2074.79,230.414 2075.89,230.414 2077,230.414 2078.11,230.414 2079.22,230.414 2080.32,230.414 2081.43,230.414 2082.54,230.414 2083.65,230.414 2084.75,230.414 2085.86,230.414 2086.97,230.414 2088.07,230.414 2089.18,230.414 2090.29,230.414 2091.4,230.414 2092.5,230.414 2093.61,230.414 2094.72,230.414 2095.83,230.414 2096.93,230.414 2098.04,230.414 2099.15,230.414 2100.26,230.414 2101.36,230.414 2102.47,230.414 2103.58,230.414 2104.69,230.414 2105.79,230.414 2106.9,230.414 2108.01,230.414 2109.12,230.414 2110.22,230.414 2111.33,230.414 2112.44,230.414 2113.55,230.414 2114.65,230.414 2115.76,230.414 2116.87,230.414 2117.98,230.414 2119.08,230.414 2120.19,230.414 2121.3,230.414 2122.41,230.414 2123.51,230.414 2124.62,230.414 2125.73,230.414 2126.84,230.414 2127.94,230.414 2129.05,230.414 2130.16,230.414 2131.27,230.414 2132.37,230.414 2133.48,230.414 2134.59,230.414 2135.7,230.414 2136.8,230.414 2137.91,230.414 2139.02,230.414 2140.13,230.414 2141.23,230.414 2142.34,230.414 2143.45,230.414 2144.55,230.414 2145.66,230.414 2146.77,230.414 2147.88,230.414 2148.98,230.414 2150.09,230.414 2151.2,230.414 2152.31,230.414 2153.41,230.414 2154.52,230.414 2155.63,230.414 2156.74,230.414 2157.84,230.414 2158.95,230.414 2160.06,230.414 2161.17,230.414 2162.27,230.414 2163.38,230.414 2164.49,230.414 2165.6,230.414 2166.7,158.3 2167.81,158.3 2168.92,158.3 2170.03,158.3 2171.13,158.3 2172.24,158.3 2173.35,158.3 2174.46,158.3 2175.56,158.3 2176.67,158.3 2177.78,158.3 2178.89,158.3 2179.99,158.3 2181.1,158.3 2182.21,158.3 2183.32,158.3 2184.42,158.3 2185.53,158.3 2186.64,158.3 2187.75,158.3 2188.85,158.3 2189.96,158.3 2191.07,158.3 2192.18,158.3 2193.28,158.3 2194.39,158.3 2195.5,158.3 2196.61,158.3 2197.71,158.3 2198.82,158.3 2199.93,158.3 2201.03,158.3 2202.14,158.3 2203.25,158.3 2204.36,158.3 2205.46,158.3 2206.57,158.3 2207.68,158.3 2208.79,158.3 2209.89,158.3 2211,158.3 2212.11,158.3 2213.22,158.3 2214.32,158.3 2215.43,158.3 2216.54,158.3 2217.65,158.3 2218.75,86.1857 2219.86,86.1857 2220.97,86.1857 2222.08,86.1857 2223.18,86.1857 2224.29,86.1857 2225.4,86.1857 2226.51,86.1857 2227.61,86.1857 2228.72,86.1857 2229.83,86.1857 2230.94,86.1857 2232.04,86.1857 2233.15,86.1857 2234.26,86.1857 2235.37,86.1857 2236.47,86.1857 2237.58,86.1857 2238.69,86.1857 2239.8,86.1857 2240.9,86.1857 2242.01,86.1857 2243.12,86.1857 2244.23,86.1857 2245.33,86.1857 2246.44,86.1857 2247.55,86.1857 2248.66,86.1857 2249.76,86.1857 2250.87,86.1857 2251.98,86.1857 2253.09,86.1857 2254.19,86.1857 2255.3,86.1857 2256.41,86.1857 2257.52,86.1857 2258.62,86.1857 2259.73,86.1857 2260.84,86.1857 2261.94,86.1857 2263.05,86.1857 2264.16,86.1857 2265.27,86.1857 2266.37,86.1857 2267.48,86.1857 2268.59,86.1857 2269.7,86.1857 2270.8,86.1857 2271.91,86.1857 2273.02,86.1857 2274.13,86.1857 2275.23,86.1857 2276.34,86.1857 2277.45,86.1857 2278.56,86.1857 2279.66,86.1857 2280.77,86.1857 2281.88,86.1857 2282.99,86.1857 2284.09,86.1857 2285.2,86.1857 2286.31,86.1857 2287.42,86.1857 2288.52,86.1857 2289.63,86.1857 2290.74,86.1857 2291.85,86.1857 2292.95,86.1857 2294.06,86.1857 2295.17,86.1857 2296.28,86.1857 2297.38,86.1857 2298.49,86.1857 2299.6,86.1857 2300.71,86.1857 2301.81,86.1857 2302.92,86.1857 2304.03,86.1857 2305.14,86.1857 2306.24,86.1857 2307.35,86.1857 2308.46,86.1857 2309.57,86.1857 2310.67,86.1857 2311.78,86.1857 2312.89,86.1857 2314,86.1857 2315.1,86.1857 2316.21,86.1857 2317.32,86.1857 2318.42,86.1857 2319.53,86.1857 2320.64,86.1857 2321.75,86.1857 2322.85,86.1857 2323.96,86.1857 2325.07,86.1857 2326.18,86.1857 2327.28,86.1857 2328.39,86.1857 2329.5,86.1857 2330.61,86.1857 2331.71,86.1857 2332.82,86.1857 2333.93,86.1857 2335.04,86.1857 2336.14,86.1857 2337.25,86.1857 2338.36,86.1857 2339.47,86.1857 2340.57,86.1857 2341.68,86.1857 2342.79,86.1857 2343.9,86.1857 2345,86.1857 2346.11,86.1857 2347.22,86.1857 2348.33,86.1857 2349.43,86.1857 2350.54,86.1857 2351.65,86.1857 2352.76,86.1857 "/>
<path clip-path="url(#clip700)" d="M1975.27 1377.32 L2278.96 1377.32 L2278.96 1273.64 L1975.27 1273.64  Z" fill="#ffffff" fill-rule="evenodd" fill-opacity="1"/>
<polyline clip-path="url(#clip700)" style="stroke:#000000; stroke-linecap:round; stroke-linejoin:round; stroke-width:4; stroke-opacity:1; fill:none" points="1975.27,1377.32 2278.96,1377.32 2278.96,1273.64 1975.27,1273.64 1975.27,1377.32 "/>
<polyline clip-path="url(#clip700)" style="stroke:#009af9; stroke-linecap:round; stroke-linejoin:round; stroke-width:8; stroke-opacity:1; fill:none" points="1999.87,1325.48 2147.45,1325.48 "/>
<path clip-path="url(#clip700)" d="M2172.05 1308.2 L2178.35 1308.2 L2193.67 1337.11 L2193.67 1308.2 L2198.21 1308.2 L2198.21 1342.76 L2191.91 1342.76 L2176.59 1313.84 L2176.59 1342.76 L2172.05 1342.76 L2172.05 1308.2 Z" fill="#000000" fill-rule="nonzero" fill-opacity="1" /><path clip-path="url(#clip700)" d="M2217.56 1306.78 Q2214.46 1312.11 2212.95 1317.32 Q2211.45 1322.52 2211.45 1327.87 Q2211.45 1333.22 2212.95 1338.47 Q2214.48 1343.7 2217.56 1349.01 L2213.86 1349.01 Q2210.38 1343.57 2208.65 1338.31 Q2206.93 1333.06 2206.93 1327.87 Q2206.93 1322.71 2208.65 1317.48 Q2210.36 1312.25 2213.86 1306.78 L2217.56 1306.78 Z" fill="#000000" fill-rule="nonzero" fill-opacity="1" /><path clip-path="url(#clip700)" d="M2230.04 1309.47 L2230.04 1316.83 L2238.81 1316.83 L2238.81 1320.14 L2230.04 1320.14 L2230.04 1334.21 Q2230.04 1337.38 2230.89 1338.29 Q2231.77 1339.19 2234.43 1339.19 L2238.81 1339.19 L2238.81 1342.76 L2234.43 1342.76 Q2229.5 1342.76 2227.63 1340.93 Q2225.75 1339.07 2225.75 1334.21 L2225.75 1320.14 L2222.63 1320.14 L2222.63 1316.83 L2225.75 1316.83 L2225.75 1309.47 L2230.04 1309.47 Z" fill="#000000" fill-rule="nonzero" fill-opacity="1" /><path clip-path="url(#clip700)" d="M2243.74 1306.78 L2247.44 1306.78 Q2250.92 1312.25 2252.63 1317.48 Q2254.36 1322.71 2254.36 1327.87 Q2254.36 1333.06 2252.63 1338.31 Q2250.92 1343.57 2247.44 1349.01 L2243.74 1349.01 Q2246.82 1343.7 2248.32 1338.47 Q2249.85 1333.22 2249.85 1327.87 Q2249.85 1322.52 2248.32 1317.32 Q2246.82 1312.11 2243.74 1306.78 Z" fill="#000000" fill-rule="nonzero" fill-opacity="1" /></svg>
