<?xml version="1.0" encoding="utf-8"?>
<svg xmlns="http://www.w3.org/2000/svg" xmlns:xlink="http://www.w3.org/1999/xlink" width="600" height="400" viewBox="0 0 2400 1600">
<defs>
  <clipPath id="clip540">
    <rect x="0" y="0" width="2400" height="1600"/>
  </clipPath>
</defs>
<path clip-path="url(#clip540)" d="M0 1600 L2400 1600 L2400 0 L0 0  Z" fill="#ffffff" fill-rule="evenodd" fill-opacity="1"/>
<defs>
  <clipPath id="clip541">
    <rect x="480" y="0" width="1681" height="1600"/>
  </clipPath>
</defs>
<path clip-path="url(#clip540)" d="M155.927 1486.45 L2352.76 1486.45 L2352.76 47.2441 L155.927 47.2441  Z" fill="#ffffff" fill-rule="evenodd" fill-opacity="1"/>
<defs>
  <clipPath id="clip542">
    <rect x="155" y="47" width="2198" height="1440"/>
  </clipPath>
</defs>
<polyline clip-path="url(#clip542)" style="stroke:#000000; stroke-linecap:round; stroke-linejoin:round; stroke-width:2; stroke-opacity:0.1; fill:none" points="216.221,1486.45 216.221,47.2441 "/>
<polyline clip-path="url(#clip542)" style="stroke:#000000; stroke-linecap:round; stroke-linejoin:round; stroke-width:2; stroke-opacity:0.1; fill:none" points="686.384,1486.45 686.384,47.2441 "/>
<polyline clip-path="url(#clip542)" style="stroke:#000000; stroke-linecap:round; stroke-linejoin:round; stroke-width:2; stroke-opacity:0.1; fill:none" points="1156.55,1486.45 1156.55,47.2441 "/>
<polyline clip-path="url(#clip542)" style="stroke:#000000; stroke-linecap:round; stroke-linejoin:round; stroke-width:2; stroke-opacity:0.1; fill:none" points="1626.71,1486.45 1626.71,47.2441 "/>
<polyline clip-path="url(#clip542)" style="stroke:#000000; stroke-linecap:round; stroke-linejoin:round; stroke-width:2; stroke-opacity:0.1; fill:none" points="2096.87,1486.45 2096.87,47.2441 "/>
<polyline clip-path="url(#clip542)" style="stroke:#000000; stroke-linecap:round; stroke-linejoin:round; stroke-width:2; stroke-opacity:0.1; fill:none" points="155.927,1445.72 2352.76,1445.72 "/>
<polyline clip-path="url(#clip542)" style="stroke:#000000; stroke-linecap:round; stroke-linejoin:round; stroke-width:2; stroke-opacity:0.1; fill:none" points="155.927,1029.09 2352.76,1029.09 "/>
<polyline clip-path="url(#clip542)" style="stroke:#000000; stroke-linecap:round; stroke-linejoin:round; stroke-width:2; stroke-opacity:0.1; fill:none" points="155.927,612.468 2352.76,612.468 "/>
<polyline clip-path="url(#clip542)" style="stroke:#000000; stroke-linecap:round; stroke-linejoin:round; stroke-width:2; stroke-opacity:0.1; fill:none" points="155.927,195.844 2352.76,195.844 "/>
<polyline clip-path="url(#clip540)" style="stroke:#000000; stroke-linecap:round; stroke-linejoin:round; stroke-width:4; stroke-opacity:1; fill:none" points="155.927,1486.45 2352.76,1486.45 "/>
<polyline clip-path="url(#clip540)" style="stroke:#000000; stroke-linecap:round; stroke-linejoin:round; stroke-width:4; stroke-opacity:1; fill:none" points="216.221,1486.45 216.221,1467.55 "/>
<polyline clip-path="url(#clip540)" style="stroke:#000000; stroke-linecap:round; stroke-linejoin:round; stroke-width:4; stroke-opacity:1; fill:none" points="686.384,1486.45 686.384,1467.55 "/>
<polyline clip-path="url(#clip540)" style="stroke:#000000; stroke-linecap:round; stroke-linejoin:round; stroke-width:4; stroke-opacity:1; fill:none" points="1156.55,1486.45 1156.55,1467.55 "/>
<polyline clip-path="url(#clip540)" style="stroke:#000000; stroke-linecap:round; stroke-linejoin:round; stroke-width:4; stroke-opacity:1; fill:none" points="1626.71,1486.45 1626.71,1467.55 "/>
<polyline clip-path="url(#clip540)" style="stroke:#000000; stroke-linecap:round; stroke-linejoin:round; stroke-width:4; stroke-opacity:1; fill:none" points="2096.87,1486.45 2096.87,1467.55 "/>
<path clip-path="url(#clip540)" d="M216.221 1517.37 Q212.61 1517.37 210.781 1520.93 Q208.975 1524.47 208.975 1531.6 Q208.975 1538.71 210.781 1542.27 Q212.61 1545.82 216.221 1545.82 Q219.855 1545.82 221.66 1542.27 Q223.489 1538.71 223.489 1531.6 Q223.489 1524.47 221.66 1520.93 Q219.855 1517.37 216.221 1517.37 M216.221 1513.66 Q222.031 1513.66 225.086 1518.27 Q228.165 1522.85 228.165 1531.6 Q228.165 1540.33 225.086 1544.94 Q222.031 1549.52 216.221 1549.52 Q210.411 1549.52 207.332 1544.94 Q204.276 1540.33 204.276 1531.6 Q204.276 1522.85 207.332 1518.27 Q210.411 1513.66 216.221 1513.66 Z" fill="#000000" fill-rule="nonzero" fill-opacity="1" /><path clip-path="url(#clip540)" d="M650.076 1544.91 L666.396 1544.91 L666.396 1548.85 L644.451 1548.85 L644.451 1544.91 Q647.113 1542.16 651.697 1537.53 Q656.303 1532.88 657.484 1531.53 Q659.729 1529.01 660.609 1527.27 Q661.512 1525.51 661.512 1523.82 Q661.512 1521.07 659.567 1519.33 Q657.646 1517.6 654.544 1517.6 Q652.345 1517.6 649.891 1518.36 Q647.461 1519.13 644.683 1520.68 L644.683 1515.95 Q647.507 1514.82 649.961 1514.24 Q652.414 1513.66 654.451 1513.66 Q659.822 1513.66 663.016 1516.35 Q666.211 1519.03 666.211 1523.52 Q666.211 1525.65 665.4 1527.57 Q664.613 1529.47 662.507 1532.07 Q661.928 1532.74 658.826 1535.95 Q655.725 1539.15 650.076 1544.91 Z" fill="#000000" fill-rule="nonzero" fill-opacity="1" /><path clip-path="url(#clip540)" d="M676.257 1514.29 L694.613 1514.29 L694.613 1518.22 L680.539 1518.22 L680.539 1526.7 Q681.558 1526.35 682.576 1526.19 Q683.595 1526 684.613 1526 Q690.4 1526 693.78 1529.17 Q697.159 1532.34 697.159 1537.76 Q697.159 1543.34 693.687 1546.44 Q690.215 1549.52 683.896 1549.52 Q681.72 1549.52 679.451 1549.15 Q677.206 1548.78 674.798 1548.04 L674.798 1543.34 Q676.882 1544.47 679.104 1545.03 Q681.326 1545.58 683.803 1545.58 Q687.808 1545.58 690.146 1543.48 Q692.484 1541.37 692.484 1537.76 Q692.484 1534.15 690.146 1532.04 Q687.808 1529.94 683.803 1529.94 Q681.928 1529.94 680.053 1530.35 Q678.201 1530.77 676.257 1531.65 L676.257 1514.29 Z" fill="#000000" fill-rule="nonzero" fill-opacity="1" /><path clip-path="url(#clip540)" d="M716.372 1517.37 Q712.761 1517.37 710.933 1520.93 Q709.127 1524.47 709.127 1531.6 Q709.127 1538.71 710.933 1542.27 Q712.761 1545.82 716.372 1545.82 Q720.007 1545.82 721.812 1542.27 Q723.641 1538.71 723.641 1531.6 Q723.641 1524.47 721.812 1520.93 Q720.007 1517.37 716.372 1517.37 M716.372 1513.66 Q722.182 1513.66 725.238 1518.27 Q728.317 1522.85 728.317 1531.6 Q728.317 1540.33 725.238 1544.94 Q722.182 1549.52 716.372 1549.52 Q710.562 1549.52 707.483 1544.94 Q704.428 1540.33 704.428 1531.6 Q704.428 1522.85 707.483 1518.27 Q710.562 1513.66 716.372 1513.66 Z" fill="#000000" fill-rule="nonzero" fill-opacity="1" /><path clip-path="url(#clip540)" d="M1116.17 1514.29 L1134.52 1514.29 L1134.52 1518.22 L1120.45 1518.22 L1120.45 1526.7 Q1121.47 1526.35 1122.49 1526.19 Q1123.5 1526 1124.52 1526 Q1130.31 1526 1133.69 1529.17 Q1137.07 1532.34 1137.07 1537.76 Q1137.07 1543.34 1133.6 1546.44 Q1130.12 1549.52 1123.8 1549.52 Q1121.63 1549.52 1119.36 1549.15 Q1117.11 1548.78 1114.71 1548.04 L1114.71 1543.34 Q1116.79 1544.47 1119.01 1545.03 Q1121.24 1545.58 1123.71 1545.58 Q1127.72 1545.58 1130.05 1543.48 Q1132.39 1541.37 1132.39 1537.76 Q1132.39 1534.15 1130.05 1532.04 Q1127.72 1529.94 1123.71 1529.94 Q1121.84 1529.94 1119.96 1530.35 Q1118.11 1530.77 1116.17 1531.65 L1116.17 1514.29 Z" fill="#000000" fill-rule="nonzero" fill-opacity="1" /><path clip-path="url(#clip540)" d="M1156.28 1517.37 Q1152.67 1517.37 1150.84 1520.93 Q1149.04 1524.47 1149.04 1531.6 Q1149.04 1538.71 1150.84 1542.27 Q1152.67 1545.82 1156.28 1545.82 Q1159.92 1545.82 1161.72 1542.27 Q1163.55 1538.71 1163.55 1531.6 Q1163.55 1524.47 1161.72 1520.93 Q1159.92 1517.37 1156.28 1517.37 M1156.28 1513.66 Q1162.09 1513.66 1165.15 1518.27 Q1168.23 1522.85 1168.23 1531.6 Q1168.23 1540.33 1165.15 1544.94 Q1162.09 1549.52 1156.28 1549.52 Q1150.47 1549.52 1147.39 1544.94 Q1144.34 1540.33 1144.34 1531.6 Q1144.34 1522.85 1147.39 1518.27 Q1150.47 1513.66 1156.28 1513.66 Z" fill="#000000" fill-rule="nonzero" fill-opacity="1" /><path clip-path="url(#clip540)" d="M1186.44 1517.37 Q1182.83 1517.37 1181 1520.93 Q1179.2 1524.47 1179.2 1531.6 Q1179.2 1538.71 1181 1542.27 Q1182.83 1545.82 1186.44 1545.82 Q1190.08 1545.82 1191.88 1542.27 Q1193.71 1538.71 1193.71 1531.6 Q1193.71 1524.47 1191.88 1520.93 Q1190.08 1517.37 1186.44 1517.37 M1186.44 1513.66 Q1192.25 1513.66 1195.31 1518.27 Q1198.39 1522.85 1198.39 1531.6 Q1198.39 1540.33 1195.31 1544.94 Q1192.25 1549.52 1186.44 1549.52 Q1180.63 1549.52 1177.55 1544.94 Q1174.5 1540.33 1174.5 1531.6 Q1174.5 1522.85 1177.55 1518.27 Q1180.63 1513.66 1186.44 1513.66 Z" fill="#000000" fill-rule="nonzero" fill-opacity="1" /><path clip-path="url(#clip540)" d="M1584.99 1514.29 L1607.21 1514.29 L1607.21 1516.28 L1594.66 1548.85 L1589.78 1548.85 L1601.58 1518.22 L1584.99 1518.22 L1584.99 1514.29 Z" fill="#000000" fill-rule="nonzero" fill-opacity="1" /><path clip-path="url(#clip540)" d="M1616.38 1514.29 L1634.73 1514.29 L1634.73 1518.22 L1620.66 1518.22 L1620.66 1526.7 Q1621.68 1526.35 1622.69 1526.19 Q1623.71 1526 1624.73 1526 Q1630.52 1526 1633.9 1529.17 Q1637.28 1532.34 1637.28 1537.76 Q1637.28 1543.34 1633.81 1546.44 Q1630.33 1549.52 1624.01 1549.52 Q1621.84 1549.52 1619.57 1549.15 Q1617.32 1548.78 1614.92 1548.04 L1614.92 1543.34 Q1617 1544.47 1619.22 1545.03 Q1621.44 1545.58 1623.92 1545.58 Q1627.93 1545.58 1630.26 1543.48 Q1632.6 1541.37 1632.6 1537.76 Q1632.6 1534.15 1630.26 1532.04 Q1627.93 1529.94 1623.92 1529.94 Q1622.05 1529.94 1620.17 1530.35 Q1618.32 1530.77 1616.38 1531.65 L1616.38 1514.29 Z" fill="#000000" fill-rule="nonzero" fill-opacity="1" /><path clip-path="url(#clip540)" d="M1656.49 1517.37 Q1652.88 1517.37 1651.05 1520.93 Q1649.25 1524.47 1649.25 1531.6 Q1649.25 1538.71 1651.05 1542.27 Q1652.88 1545.82 1656.49 1545.82 Q1660.12 1545.82 1661.93 1542.27 Q1663.76 1538.71 1663.76 1531.6 Q1663.76 1524.47 1661.93 1520.93 Q1660.12 1517.37 1656.49 1517.37 M1656.49 1513.66 Q1662.3 1513.66 1665.36 1518.27 Q1668.44 1522.85 1668.44 1531.6 Q1668.44 1540.33 1665.36 1544.94 Q1662.3 1549.52 1656.49 1549.52 Q1650.68 1549.52 1647.6 1544.94 Q1644.55 1540.33 1644.55 1531.6 Q1644.55 1522.85 1647.6 1518.27 Q1650.68 1513.66 1656.49 1513.66 Z" fill="#000000" fill-rule="nonzero" fill-opacity="1" /><path clip-path="url(#clip540)" d="M2041.4 1544.91 L2049.04 1544.91 L2049.04 1518.55 L2040.73 1520.21 L2040.73 1515.95 L2048.99 1514.29 L2053.67 1514.29 L2053.67 1544.91 L2061.31 1544.91 L2061.31 1548.85 L2041.4 1548.85 L2041.4 1544.91 Z" fill="#000000" fill-rule="nonzero" fill-opacity="1" /><path clip-path="url(#clip540)" d="M2080.75 1517.37 Q2077.14 1517.37 2075.31 1520.93 Q2073.51 1524.47 2073.51 1531.6 Q2073.51 1538.71 2075.31 1542.27 Q2077.14 1545.82 2080.75 1545.82 Q2084.39 1545.82 2086.19 1542.27 Q2088.02 1538.71 2088.02 1531.6 Q2088.02 1524.47 2086.19 1520.93 Q2084.39 1517.37 2080.75 1517.37 M2080.75 1513.66 Q2086.56 1513.66 2089.62 1518.27 Q2092.7 1522.85 2092.7 1531.6 Q2092.7 1540.33 2089.62 1544.94 Q2086.56 1549.52 2080.75 1549.52 Q2074.94 1549.52 2071.86 1544.94 Q2068.81 1540.33 2068.81 1531.6 Q2068.81 1522.85 2071.86 1518.27 Q2074.94 1513.66 2080.75 1513.66 Z" fill="#000000" fill-rule="nonzero" fill-opacity="1" /><path clip-path="url(#clip540)" d="M2110.91 1517.37 Q2107.3 1517.37 2105.47 1520.93 Q2103.67 1524.47 2103.67 1531.6 Q2103.67 1538.71 2105.47 1542.27 Q2107.3 1545.82 2110.91 1545.82 Q2114.55 1545.82 2116.35 1542.27 Q2118.18 1538.71 2118.18 1531.6 Q2118.18 1524.47 2116.35 1520.93 Q2114.55 1517.37 2110.91 1517.37 M2110.91 1513.66 Q2116.72 1513.66 2119.78 1518.27 Q2122.86 1522.85 2122.86 1531.6 Q2122.86 1540.33 2119.78 1544.94 Q2116.72 1549.52 2110.91 1549.52 Q2105.1 1549.52 2102.02 1544.94 Q2098.97 1540.33 2098.97 1531.6 Q2098.97 1522.85 2102.02 1518.27 Q2105.1 1513.66 2110.91 1513.66 Z" fill="#000000" fill-rule="nonzero" fill-opacity="1" /><path clip-path="url(#clip540)" d="M2141.08 1517.37 Q2137.46 1517.37 2135.64 1520.93 Q2133.83 1524.47 2133.83 1531.6 Q2133.83 1538.71 2135.64 1542.27 Q2137.46 1545.82 2141.08 1545.82 Q2144.71 1545.82 2146.52 1542.27 Q2148.34 1538.71 2148.34 1531.6 Q2148.34 1524.47 2146.52 1520.93 Q2144.71 1517.37 2141.08 1517.37 M2141.08 1513.66 Q2146.89 1513.66 2149.94 1518.27 Q2153.02 1522.85 2153.02 1531.6 Q2153.02 1540.33 2149.94 1544.94 Q2146.89 1549.52 2141.08 1549.52 Q2135.27 1549.52 2132.19 1544.94 Q2129.13 1540.33 2129.13 1531.6 Q2129.13 1522.85 2132.19 1518.27 Q2135.27 1513.66 2141.08 1513.66 Z" fill="#000000" fill-rule="nonzero" fill-opacity="1" /><polyline clip-path="url(#clip540)" style="stroke:#000000; stroke-linecap:round; stroke-linejoin:round; stroke-width:4; stroke-opacity:1; fill:none" points="155.927,1486.45 155.927,47.2441 "/>
<polyline clip-path="url(#clip540)" style="stroke:#000000; stroke-linecap:round; stroke-linejoin:round; stroke-width:4; stroke-opacity:1; fill:none" points="155.927,1445.72 174.825,1445.72 "/>
<polyline clip-path="url(#clip540)" style="stroke:#000000; stroke-linecap:round; stroke-linejoin:round; stroke-width:4; stroke-opacity:1; fill:none" points="155.927,1029.09 174.825,1029.09 "/>
<polyline clip-path="url(#clip540)" style="stroke:#000000; stroke-linecap:round; stroke-linejoin:round; stroke-width:4; stroke-opacity:1; fill:none" points="155.927,612.468 174.825,612.468 "/>
<polyline clip-path="url(#clip540)" style="stroke:#000000; stroke-linecap:round; stroke-linejoin:round; stroke-width:4; stroke-opacity:1; fill:none" points="155.927,195.844 174.825,195.844 "/>
<path clip-path="url(#clip540)" d="M52.7977 1428.44 L71.1541 1428.44 L71.1541 1432.37 L57.0801 1432.37 L57.0801 1440.84 Q58.0986 1440.5 59.1171 1440.33 Q60.1356 1440.15 61.1541 1440.15 Q66.9411 1440.15 70.3207 1443.32 Q73.7003 1446.49 73.7003 1451.91 Q73.7003 1457.49 70.2281 1460.59 Q66.7559 1463.67 60.4365 1463.67 Q58.2606 1463.67 55.9921 1463.3 Q53.7467 1462.93 51.3393 1462.19 L51.3393 1457.49 Q53.4227 1458.62 55.6449 1459.18 Q57.8671 1459.73 60.3439 1459.73 Q64.3485 1459.73 66.6865 1457.63 Q69.0244 1455.52 69.0244 1451.91 Q69.0244 1448.3 66.6865 1446.19 Q64.3485 1444.08 60.3439 1444.08 Q58.4689 1444.08 56.5939 1444.5 Q54.7421 1444.92 52.7977 1445.8 L52.7977 1428.44 Z" fill="#000000" fill-rule="nonzero" fill-opacity="1" /><path clip-path="url(#clip540)" d="M82.9133 1457.12 L87.7975 1457.12 L87.7975 1463 L82.9133 1463 L82.9133 1457.12 Z" fill="#000000" fill-rule="nonzero" fill-opacity="1" /><path clip-path="url(#clip540)" d="M107.983 1431.51 Q104.371 1431.51 102.543 1435.08 Q100.737 1438.62 100.737 1445.75 Q100.737 1452.86 102.543 1456.42 Q104.371 1459.96 107.983 1459.96 Q111.617 1459.96 113.422 1456.42 Q115.251 1452.86 115.251 1445.75 Q115.251 1438.62 113.422 1435.08 Q111.617 1431.51 107.983 1431.51 M107.983 1427.81 Q113.793 1427.81 116.848 1432.42 Q119.927 1437 119.927 1445.75 Q119.927 1454.48 116.848 1459.08 Q113.793 1463.67 107.983 1463.67 Q102.172 1463.67 99.0937 1459.08 Q96.0382 1454.48 96.0382 1445.75 Q96.0382 1437 99.0937 1432.42 Q102.172 1427.81 107.983 1427.81 Z" fill="#000000" fill-rule="nonzero" fill-opacity="1" /><path clip-path="url(#clip540)" d="M53.793 1011.81 L72.1494 1011.81 L72.1494 1015.75 L58.0754 1015.75 L58.0754 1024.22 Q59.0939 1023.87 60.1124 1023.71 Q61.131 1023.52 62.1495 1023.52 Q67.9365 1023.52 71.3161 1026.7 Q74.6957 1029.87 74.6957 1035.28 Q74.6957 1040.86 71.2235 1043.96 Q67.7513 1047.04 61.4319 1047.04 Q59.256 1047.04 56.9875 1046.67 Q54.7421 1046.3 52.3347 1045.56 L52.3347 1040.86 Q54.418 1042 56.6402 1042.55 Q58.8625 1043.11 61.3393 1043.11 Q65.3439 1043.11 67.6819 1041 Q70.0198 1038.89 70.0198 1035.28 Q70.0198 1031.67 67.6819 1029.57 Q65.3439 1027.46 61.3393 1027.46 Q59.4643 1027.46 57.5893 1027.88 Q55.7375 1028.29 53.793 1029.17 L53.793 1011.81 Z" fill="#000000" fill-rule="nonzero" fill-opacity="1" /><path clip-path="url(#clip540)" d="M83.9086 1040.49 L88.7928 1040.49 L88.7928 1046.37 L83.9086 1046.37 L83.9086 1040.49 Z" fill="#000000" fill-rule="nonzero" fill-opacity="1" /><path clip-path="url(#clip540)" d="M99.0243 1011.81 L117.381 1011.81 L117.381 1015.75 L103.307 1015.75 L103.307 1024.22 Q104.325 1023.87 105.344 1023.71 Q106.362 1023.52 107.381 1023.52 Q113.168 1023.52 116.547 1026.7 Q119.927 1029.87 119.927 1035.28 Q119.927 1040.86 116.455 1043.96 Q112.983 1047.04 106.663 1047.04 Q104.487 1047.04 102.219 1046.67 Q99.9733 1046.3 97.566 1045.56 L97.566 1040.86 Q99.6493 1042 101.871 1042.55 Q104.094 1043.11 106.571 1043.11 Q110.575 1043.11 112.913 1041 Q115.251 1038.89 115.251 1035.28 Q115.251 1031.67 112.913 1029.57 Q110.575 1027.46 106.571 1027.46 Q104.696 1027.46 102.821 1027.88 Q100.969 1028.29 99.0243 1029.17 L99.0243 1011.81 Z" fill="#000000" fill-rule="nonzero" fill-opacity="1" /><path clip-path="url(#clip540)" d="M63.33 610.604 Q60.1819 610.604 58.33 612.757 Q56.5014 614.91 56.5014 618.66 Q56.5014 622.387 58.33 624.563 Q60.1819 626.715 63.33 626.715 Q66.4782 626.715 68.3068 624.563 Q70.1587 622.387 70.1587 618.66 Q70.1587 614.91 68.3068 612.757 Q66.4782 610.604 63.33 610.604 M72.6124 595.952 L72.6124 600.211 Q70.8531 599.378 69.0476 598.938 Q67.2652 598.498 65.5059 598.498 Q60.8763 598.498 58.4226 601.623 Q55.9921 604.748 55.6449 611.067 Q57.0106 609.053 59.0708 607.989 Q61.131 606.901 63.6078 606.901 Q68.8161 606.901 71.8253 610.072 Q74.8577 613.22 74.8577 618.66 Q74.8577 623.984 71.7096 627.201 Q68.5615 630.419 63.33 630.419 Q57.3347 630.419 54.1634 625.836 Q50.9921 621.229 50.9921 612.502 Q50.9921 604.308 54.881 599.447 Q58.7699 594.563 65.3208 594.563 Q67.08 594.563 68.8624 594.91 Q70.6679 595.257 72.6124 595.952 Z" fill="#000000" fill-rule="nonzero" fill-opacity="1" /><path clip-path="url(#clip540)" d="M82.9133 623.868 L87.7975 623.868 L87.7975 629.748 L82.9133 629.748 L82.9133 623.868 Z" fill="#000000" fill-rule="nonzero" fill-opacity="1" /><path clip-path="url(#clip540)" d="M107.983 598.266 Q104.371 598.266 102.543 601.831 Q100.737 605.373 100.737 612.502 Q100.737 619.609 102.543 623.174 Q104.371 626.715 107.983 626.715 Q111.617 626.715 113.422 623.174 Q115.251 619.609 115.251 612.502 Q115.251 605.373 113.422 601.831 Q111.617 598.266 107.983 598.266 M107.983 594.563 Q113.793 594.563 116.848 599.169 Q119.927 603.753 119.927 612.502 Q119.927 621.229 116.848 625.836 Q113.793 630.419 107.983 630.419 Q102.172 630.419 99.0937 625.836 Q96.0382 621.229 96.0382 612.502 Q96.0382 603.753 99.0937 599.169 Q102.172 594.563 107.983 594.563 Z" fill="#000000" fill-rule="nonzero" fill-opacity="1" /><path clip-path="url(#clip540)" d="M64.3254 193.98 Q61.1773 193.98 59.3254 196.133 Q57.4967 198.286 57.4967 202.036 Q57.4967 205.763 59.3254 207.939 Q61.1773 210.091 64.3254 210.091 Q67.4735 210.091 69.3022 207.939 Q71.1541 205.763 71.1541 202.036 Q71.1541 198.286 69.3022 196.133 Q67.4735 193.98 64.3254 193.98 M73.6077 179.328 L73.6077 183.587 Q71.8485 182.754 70.0429 182.314 Q68.2606 181.874 66.5013 181.874 Q61.8717 181.874 59.418 184.999 Q56.9875 188.124 56.6402 194.443 Q58.006 192.429 60.0662 191.365 Q62.1263 190.277 64.6032 190.277 Q69.8115 190.277 72.8207 193.448 Q75.8531 196.596 75.8531 202.036 Q75.8531 207.36 72.705 210.578 Q69.5568 213.795 64.3254 213.795 Q58.33 213.795 55.1588 209.212 Q51.9875 204.605 51.9875 195.879 Q51.9875 187.684 55.8764 182.823 Q59.7652 177.939 66.3161 177.939 Q68.0754 177.939 69.8578 178.286 Q71.6633 178.633 73.6077 179.328 Z" fill="#000000" fill-rule="nonzero" fill-opacity="1" /><path clip-path="url(#clip540)" d="M83.9086 207.244 L88.7928 207.244 L88.7928 213.124 L83.9086 213.124 L83.9086 207.244 Z" fill="#000000" fill-rule="nonzero" fill-opacity="1" /><path clip-path="url(#clip540)" d="M99.0243 178.564 L117.381 178.564 L117.381 182.499 L103.307 182.499 L103.307 190.971 Q104.325 190.624 105.344 190.462 Q106.362 190.277 107.381 190.277 Q113.168 190.277 116.547 193.448 Q119.927 196.619 119.927 202.036 Q119.927 207.615 116.455 210.716 Q112.983 213.795 106.663 213.795 Q104.487 213.795 102.219 213.425 Q99.9733 213.054 97.566 212.314 L97.566 207.615 Q99.6493 208.749 101.871 209.304 Q104.094 209.86 106.571 209.86 Q110.575 209.86 112.913 207.753 Q115.251 205.647 115.251 202.036 Q115.251 198.425 112.913 196.318 Q110.575 194.212 106.571 194.212 Q104.696 194.212 102.821 194.629 Q100.969 195.045 99.0243 195.925 L99.0243 178.564 Z" fill="#000000" fill-rule="nonzero" fill-opacity="1" /><polyline clip-path="url(#clip542)" style="stroke:#009af9; stroke-linecap:round; stroke-linejoin:round; stroke-width:4; stroke-opacity:1; fill:none" points="218.101,1445.72 219.982,1445.72 221.863,1445.72 223.743,1112.42 225.624,1126.94 227.505,1184.72 229.385,1184.72 231.266,972.619 233.147,972.619 235.027,825.143 236.908,826.299 238.789,938.58 240.669,938.58 242.55,928.748 244.43,950.725 246.311,950.725 248.192,845.32 250.072,884.745 251.953,986.432 253.834,986.432 255.714,754.429 257.595,754.429 259.476,529.157 261.356,635.801 263.237,782.614 265.118,902.814 266.998,1001.23 268.879,1081.8 270.76,1081.8 272.64,953.968 274.521,995.031 276.402,995.031 278.282,898.844 280.163,898.844 282.044,817.737 283.924,833.808 285.805,833.808 287.686,807.145 289.566,807.145 291.447,782.949 293.327,786.691 295.208,786.691 297.089,727.569 298.969,727.569 300.85,520.609 302.731,609.33 304.611,760.941 306.492,760.941 308.373,506.381 310.253,576.732 312.134,576.732 314.015,589.994 315.895,657.501 317.776,657.501 319.657,468.164 321.537,578.661 323.418,735.832 325.299,735.832 327.179,517.449 329.06,650.318 330.941,794.499 332.821,912.545 334.702,1009.19 336.583,1009.19 338.463,917.108 340.344,923.772 342.224,923.772 344.105,874.754 345.986,945.364 347.866,945.364 349.747,867.525 351.628,967.085 353.508,1053.85 355.389,1124.88 357.27,1183.04 359.15,1183.04 361.031,1140.89 362.912,1149.75 364.792,1149.75 366.673,1074.57 368.554,1133.25 370.434,1189.89 372.315,1189.89 374.196,968.66 376.076,1005.7 377.957,1005.7 379.838,970.326 381.718,1008.89 383.599,1088.08 385.48,1088.08 387.36,969.461 389.241,969.461 391.121,900.967 393.002,913.958 394.883,1010.35 396.763,1089.27 398.644,1089.27 400.525,947.372 402.405,947.372 404.286,708.43 406.167,782.343 408.047,782.343 409.928,621.69 411.809,764.906 413.689,764.906 415.57,590.954 417.451,657.928 419.331,657.928 421.212,586.064 423.093,586.064 424.973,406.789 426.854,406.789 428.735,336.209 430.615,338.974 432.496,338.974 434.376,451.312 436.257,456.72 438.138,635.995 440.018,635.995 441.899,447.982 443.78,447.982 445.66,200.975 447.541,338.87 449.422,338.87 451.302,154.664 453.183,321.916 455.064,525.626 456.944,525.626 458.825,299.423 460.706,482.321 462.586,656.955 464.467,799.933 466.348,916.993 468.228,916.993 470.109,719.552 471.99,785.595 473.87,905.254 475.751,1003.22 477.632,1003.22 479.512,928.112 481.393,1013.92 483.273,1013.92 485.154,685.206 487.035,816.384 488.915,930.463 490.796,930.463 492.677,772.157 494.557,774.909 496.438,896.506 498.319,996.061 500.199,1077.57 502.08,1144.3 503.961,1198.94 505.841,1198.94 507.722,894.216 509.603,935.054 511.483,935.054 513.364,801.288 515.245,801.288 517.125,481.777 519.006,583.749 520.887,739.997 522.767,739.997 524.648,575.737 526.529,575.737 528.409,588.685 530.29,654.048 532.17,654.048 534.051,583.651 535.932,728.2 537.812,728.2 539.693,423.397 541.574,574.095 543.454,574.095 545.335,355.231 547.216,355.231 549.096,317.896 550.977,359.329 552.858,359.329 554.738,193.122 556.619,193.122 558.5,99.0356 560.38,177.565 562.261,177.565 564.142,87.9763 566.022,173.148 567.903,403.825 569.784,403.825 571.664,340.145 573.545,441.284 575.426,441.284 577.306,536.692 579.187,540.369 581.067,540.369 582.948,291.025 584.829,499.676 586.709,671.164 588.59,811.566 590.471,811.566 592.351,735.231 594.232,767.418 596.113,890.373 597.993,991.039 599.874,991.039 601.755,937.922 603.635,937.922 605.516,815.021 607.397,840.453 609.277,840.453 611.158,766.122 613.039,880.919 614.919,880.919 616.8,671.856 618.681,762.655 620.561,762.655 622.442,570.558 624.323,662.864 626.203,804.771 628.084,804.771 629.964,834.374 631.845,838.143 633.726,838.143 635.606,741.82 637.487,793.976 639.368,793.976 641.248,597.164 643.129,597.164 645.01,454.037 646.89,454.037 648.771,286.243 650.652,286.582 652.532,496.697 654.413,668.725 656.294,809.569 658.174,924.883 660.055,924.883 661.936,704.569 663.816,802.274 665.697,918.91 667.578,1014.4 669.458,1014.4 671.339,966.945 673.219,1018.18 675.1,1018.18 676.981,992.209 678.861,1016.89 680.742,1016.89 682.623,965.447 684.503,1020.92 686.384,1020.92 688.265,807.208 690.145,874.161 692.026,977.766 693.907,1062.59 695.787,1132.04 697.668,1188.9 699.549,1235.45 701.429,1235.45 703.31,1082.55 705.191,1082.55 707.071,935.357 708.952,973.326 710.833,973.326 712.713,749.449 714.594,842.327 716.475,951.703 718.355,951.703 720.236,758.65 722.116,809.938 723.997,809.938 725.878,690.719 727.758,690.719 729.639,474.238 731.52,546.316 733.4,709.35 735.281,842.83 737.162,842.83 739.042,718.988 740.923,805.246 742.804,921.343 744.684,921.343 746.565,853.409 748.446,853.409 750.326,597.627 752.207,622.645 754.088,622.645 755.968,503.118 757.849,528.635 759.73,528.635 761.61,548.896 763.491,548.896 765.372,323.862 767.252,380.644 769.133,380.644 771.013,221.429 772.894,247.51 774.775,464.708 776.655,642.535 778.536,642.535 780.417,579.106 782.297,631.565 784.178,779.146 786.059,899.974 787.939,899.974 789.82,855.545 791.701,925.445 793.581,1019.75 795.462,1096.97 797.343,1160.18 799.223,1160.18 801.104,997.463 802.985,997.463 804.865,841.539 806.746,841.539 808.627,623.368 810.507,707.447 812.388,841.272 814.269,950.839 816.149,950.839 818.03,874.175 819.91,971.394 821.791,1057.37 823.672,1057.37 825.552,821.728 827.433,915.266 829.314,1011.42 831.194,1090.14 833.075,1154.6 834.956,1154.6 836.836,935.706 838.717,978.245 840.598,978.245 842.478,824.298 844.359,922.73 846.24,922.73 848.12,909.056 850.001,938.83 851.882,1030.71 853.762,1105.94 855.643,1167.53 857.524,1217.96 859.404,1259.24 861.285,1293.04 863.165,1320.72 865.046,1343.38 866.927,1343.38 868.807,1095.41 870.688,1153.17 872.569,1206.2 874.449,1249.62 876.33,1249.62 878.211,1008.25 880.091,1008.25 881.972,763.321 883.853,854.557 885.733,854.557 887.614,530.652 889.495,530.652 891.375,206.125 893.256,206.125 895.137,177.377 897.017,246.945 898.898,464.246 900.779,642.156 902.659,642.156 904.54,392.819 906.421,582.992 908.301,582.992 910.182,411.568 912.062,411.568 913.943,250.051 915.824,267.992 917.704,481.477 919.585,656.264 921.466,799.367 923.346,799.367 925.227,553.673 927.108,553.673 928.988,341.171 930.869,353.731 932.75,551.674 934.63,713.736 936.511,846.422 938.392,955.055 940.272,1044 942.153,1116.82 944.034,1176.44 945.914,1176.44 947.795,1038.58 949.676,1072.47 951.556,1140.13 953.437,1195.52 955.318,1240.87 957.198,1278.01 959.079,1308.41 960.959,1333.3 962.84,1333.3 964.721,1091.07 966.601,1091.07 968.482,1047.98 970.363,1051.22 972.243,1051.22 974.124,992.074 976.005,992.074 977.885,874.74 979.766,886.981 981.647,988.263 983.527,1071.18 985.408,1139.08 987.289,1194.66 989.169,1240.17 991.05,1240.17 992.931,999.957 994.811,1062.56 996.692,1132.02 998.573,1132.02 1000.45,1068.01 1002.33,1116.18 1004.21,1175.92 1006.1,1175.92 1007.98,844.763 1009.86,844.763 1011.74,677.203 1013.62,677.203 1015.5,524.828 1017.38,548.253 1019.26,710.935 1021.14,844.128 1023.02,953.177 1024.9,953.177 1026.78,902.101 1028.66,902.101 1030.54,780.047 1032.42,810.411 1034.3,925.573 1036.19,925.573 1038.07,755.18 1039.95,778.228 1041.83,899.223 1043.71,998.285 1045.59,1079.39 1047.47,1145.79 1049.35,1145.79 1051.23,997.238 1053.11,997.238 1054.99,758.557 1056.87,831.532 1058.75,942.865 1060.63,942.865 1062.51,742.007 1064.4,807.2 1066.28,922.943 1068.16,922.943 1070.04,841.754 1071.92,854.601 1073.8,854.601 1075.68,763.584 1077.56,805.292 1079.44,921.381 1081.32,921.381 1083.2,788.957 1085.08,788.957 1086.96,771.567 1088.84,789.328 1090.72,789.328 1092.61,573.049 1094.49,576.224 1096.37,733.836 1098.25,862.878 1100.13,968.529 1102.01,1055.03 1103.89,1055.03 1105.77,822.978 1107.65,911.345 1109.53,1008.21 1111.41,1008.21 1113.29,850.858 1115.17,948.112 1117.05,948.112 1118.93,699.262 1120.82,833.188 1122.7,944.22 1124.58,1035.13 1126.46,1035.13 1128.34,789.044 1130.22,789.044 1132.1,665.638 1133.98,665.638 1135.86,466.317 1137.74,518.929 1139.62,518.929 1141.5,243.863 1143.38,243.863 1145.26,206.292 1147.14,320.073 1149.02,320.073 1150.91,339.804 1152.79,449.022 1154.67,629.692 1156.55,777.612 1158.43,898.718 1160.31,997.872 1162.19,1079.05 1164.07,1079.05 1165.95,887.08 1167.83,902.397 1169.71,1000.88 1171.59,1000.88 1173.47,769.303 1175.35,868.029 1177.23,868.029 1179.12,733.616 1181,828.241 1182.88,940.17 1184.76,1031.81 1186.64,1031.81 1188.52,869.248 1190.4,969.036 1192.28,1055.44 1194.16,1126.19 1196.04,1126.19 1197.92,1081 1199.8,1106.64 1201.68,1106.64 1203.56,867.351 1205.44,867.351 1207.33,805.463 1209.21,805.463 1211.09,664.188 1212.97,731.293 1214.85,731.293 1216.73,576.587 1218.61,576.587 1220.49,516.488 1222.37,543.764 1224.25,543.764 1226.13,463.611 1228.01,638.799 1229.89,638.799 1231.77,449.002 1233.65,449.002 1235.53,337.506 1237.42,407.84 1239.3,595.975 1241.18,750.007 1243.06,750.007 1244.94,543.459 1246.82,657.83 1248.7,657.83 1250.58,602.573 1252.46,641.742 1254.34,641.742 1256.22,681.976 1258.1,681.976 1259.98,372.183 1261.86,374.193 1263.74,568.427 1265.63,727.453 1267.51,727.453 1269.39,509.687 1271.27,509.687 1273.15,374.694 1275.03,495.535 1276.91,495.535 1278.79,438.622 1280.67,438.622 1282.55,227.61 1284.43,272.82 1286.31,485.43 1288.19,659.501 1290.07,802.017 1291.95,918.7 1293.84,918.7 1295.72,869.063 1297.6,941.353 1299.48,1032.78 1301.36,1107.63 1303.24,1168.92 1305.12,1219.09 1307,1260.17 1308.88,1293.8 1310.76,1293.8 1312.64,1141.97 1314.52,1170.15 1316.4,1220.1 1318.28,1261 1320.16,1294.48 1322.04,1321.9 1323.93,1321.9 1325.81,1079.33 1327.69,1126.65 1329.57,1184.49 1331.45,1231.84 1333.33,1231.84 1335.21,1077.21 1337.09,1126.05 1338.97,1126.05 1340.85,915.594 1342.73,915.594 1344.61,672.124 1346.49,714.026 1348.37,846.659 1350.25,955.25 1352.14,1044.16 1354.02,1116.95 1355.9,1116.95 1357.78,967.751 1359.66,1032.45 1361.54,1032.45 1363.42,953.26 1365.3,953.26 1367.18,735.047 1369.06,735.047 1370.94,583.56 1372.82,583.56 1374.7,454.896 1376.58,509.468 1378.46,509.468 1380.35,343.386 1382.23,454.376 1384.11,634.075 1385.99,781.201 1387.87,901.657 1389.75,1000.28 1391.63,1081.02 1393.51,1147.13 1395.39,1147.13 1397.27,986.439 1399.15,1062.03 1401.03,1131.58 1402.91,1131.58 1404.79,1000.76 1406.67,1034.52 1408.56,1109.06 1410.44,1109.06 1412.32,873.656 1414.2,956.16 1416.08,956.16 1417.96,744.226 1419.84,744.226 1421.72,655.649 1423.6,656.534 1425.48,656.534 1427.36,516.829 1429.24,516.829 1431.12,284.877 1433,319.075 1434.88,523.301 1436.76,523.301 1438.65,359.334 1440.53,464.799 1442.41,464.799 1444.29,368.529 1446.17,495.622 1448.05,667.845 1449.93,667.845 1451.81,507.37 1453.69,671.316 1455.57,671.316 1457.45,595.59 1459.33,657.099 1461.21,657.099 1463.09,330.661 1464.97,524.773 1466.86,524.773 1468.74,438.546 1470.62,542.216 1472.5,705.992 1474.38,705.992 1476.26,707.073 1478.14,763.074 1480.02,763.074 1481.9,614.744 1483.78,646.349 1485.66,791.25 1487.54,791.25 1489.42,747.584 1491.3,837.263 1493.18,947.557 1495.07,947.557 1496.95,768.148 1498.83,799.421 1500.71,916.574 1502.59,916.574 1504.47,681.075 1506.35,802.073 1508.23,802.073 1510.11,785.624 1511.99,842.615 1513.87,951.939 1515.75,1041.45 1517.63,1114.73 1519.51,1174.73 1521.39,1223.85 1523.27,1223.85 1525.16,1000.1 1527.04,1031.97 1528.92,1031.97 1530.8,702.24 1532.68,831.715 1534.56,943.015 1536.44,1034.14 1538.32,1108.75 1540.2,1169.83 1542.08,1219.84 1543.96,1260.78 1545.84,1260.78 1547.72,931.829 1549.6,1014.86 1551.48,1092.96 1553.37,1156.9 1555.25,1209.26 1557.13,1209.26 1559.01,1075.35 1560.89,1093.75 1562.77,1093.75 1564.65,868.011 1566.53,937.748 1568.41,937.748 1570.29,780.048 1572.17,890.939 1574.05,890.939 1575.93,568.343 1577.81,568.343 1579.69,584.252 1581.58,634.819 1583.46,634.819 1585.34,458.419 1587.22,458.419 1589.1,450.847 1590.98,475.463 1592.86,651.34 1594.74,795.336 1596.62,795.336 1598.5,629.554 1600.38,629.554 1602.26,569.602 1604.14,569.602 1606.02,255.171 1607.9,267.655 1609.78,481.201 1611.67,481.201 1613.55,470.724 1615.43,470.724 1617.31,426.69 1619.19,505.351 1621.07,675.81 1622.95,675.81 1624.83,650.969 1626.71,741.541 1628.59,869.187 1630.47,973.694 1632.35,1059.26 1634.23,1059.26 1636.11,870.522 1637.99,886.109 1639.88,987.549 1641.76,987.549 1643.64,920.041 1645.52,999.94 1647.4,1080.75 1649.28,1080.75 1651.16,883.288 1653.04,907.843 1654.92,1005.34 1656.8,1085.17 1658.68,1150.52 1660.56,1150.52 1662.44,993.923 1664.32,993.923 1666.2,708.199 1668.09,747.037 1669.97,747.037 1671.85,763.371 1673.73,794.116 1675.61,912.231 1677.49,912.231 1679.37,790.909 1681.25,790.909 1683.13,749.222 1685.01,780.206 1686.89,780.206 1688.77,623.098 1690.65,762.417 1692.53,886.278 1694.41,886.278 1696.29,672.206 1698.18,672.206 1700.06,510.598 1701.94,522.087 1703.82,689.513 1705.7,689.513 1707.58,671.23 1709.46,751.948 1711.34,751.948 1713.22,553.439 1715.1,656.647 1716.98,656.647 1718.86,698.652 1720.74,718.579 1722.62,850.386 1724.5,958.301 1726.39,1046.65 1728.27,1118.99 1730.15,1118.99 1732.03,1005.34 1733.91,1015.36 1735.79,1093.37 1737.67,1093.37 1739.55,933.136 1741.43,1018.27 1743.31,1018.27 1745.19,960.669 1747.07,1023.16 1748.95,1099.76 1750.83,1162.47 1752.71,1162.47 1754.6,1089.86 1756.48,1089.86 1758.36,796.561 1760.24,823.38 1762.12,936.19 1764,936.19 1765.88,812.427 1767.76,879.571 1769.64,982.196 1771.52,1066.22 1773.4,1066.22 1775.28,959.445 1777.16,973.007 1779.04,1058.69 1780.92,1128.85 1782.81,1128.85 1784.69,1058.06 1786.57,1115.26 1788.45,1175.16 1790.33,1224.2 1792.21,1224.2 1794.09,1004.54 1795.97,1027.25 1797.85,1027.25 1799.73,826.018 1801.61,826.018 1803.49,702.15 1805.37,705.572 1807.25,705.572 1809.13,469.563 1811.01,631.14 1812.9,778.798 1814.78,899.689 1816.66,899.689 1818.54,774.193 1820.42,774.193 1822.3,550.423 1824.18,620.772 1826.06,620.772 1827.94,435.947 1829.82,548.099 1831.7,710.809 1833.58,844.025 1835.46,953.093 1837.34,953.093 1839.22,746.956 1841.11,817.737 1842.99,931.57 1844.87,931.57 1846.75,869.518 1848.63,869.518 1850.51,831.186 1852.39,876.411 1854.27,979.609 1856.15,979.609 1858.03,804.728 1859.91,820.133 1861.79,820.133 1863.67,634.599 1865.55,705.368 1867.43,839.57 1869.32,949.446 1871.2,949.446 1873.08,751.823 1874.96,751.823 1876.84,542.512 1878.72,567.566 1880.6,567.566 1882.48,569.367 1884.36,651.204 1886.24,795.225 1888.12,913.139 1890,913.139 1891.88,910.609 1893.76,929.257 1895.64,929.257 1897.52,852.288 1899.41,857.764 1901.29,964.341 1903.17,964.341 1905.05,846.814 1906.93,899.653 1908.81,998.637 1910.69,998.637 1912.57,793.136 1914.45,852.41 1916.33,959.958 1918.21,959.958 1920.09,688.51 1921.97,735.313 1923.85,864.087 1925.73,864.087 1927.62,852.492 1929.5,852.492 1931.38,724.199 1933.26,725.307 1935.14,855.895 1937.02,962.811 1938.9,962.811 1940.78,839 1942.66,900.624 1944.54,900.624 1946.42,779.968 1948.3,850.418 1950.18,958.327 1952.06,1046.68 1953.94,1119.01 1955.83,1178.23 1957.71,1178.23 1959.59,1100.24 1961.47,1157.11 1963.35,1209.43 1965.23,1209.43 1967.11,978.581 1968.99,1029.57 1970.87,1105 1972.75,1105 1974.63,946.099 1976.51,1027.15 1978.39,1027.15 1980.27,721.513 1982.15,721.513 1984.03,663.819 1985.92,735.097 1987.8,863.91 1989.68,863.91 1991.56,546.541 1993.44,688.81 1995.32,826.013 1997.2,826.013 1999.08,773.868 2000.96,866.512 2002.84,866.512 2004.72,663.616 2006.6,663.616 2008.48,404.289 2010.36,420.682 2012.24,606.489 2014.13,758.615 2016.01,883.165 2017.89,985.138 2019.77,985.138 2021.65,890.412 2023.53,906.936 2025.41,1004.6 2027.29,1004.6 2029.17,924.377 2031.05,1015.86 2032.93,1015.86 2034.81,803.171 2036.69,869.676 2038.57,974.094 2040.45,974.094 2042.34,695.821 2044.22,695.821 2046.1,575.526 2047.98,586.018 2049.86,741.855 2051.74,741.855 2053.62,701.729 2055.5,701.729 2057.38,449.419 2059.26,470.523 2061.14,647.295 2063.02,647.295 2064.9,404.426 2066.78,404.426 2068.66,262.313 2070.55,355.164 2072.43,552.847 2074.31,552.847 2076.19,408.332 2078.07,408.332 2079.95,285.83 2081.83,428.659 2083.71,428.659 2085.59,342.328 2087.47,464.88 2089.35,642.676 2091.23,788.242 2093.11,907.422 2094.99,907.422 2096.87,751.013 2098.75,751.013 2100.64,608.286 2102.52,721.863 2104.4,721.863 2106.28,433.312 2108.16,433.312 2110.04,304.676 2111.92,411.107 2113.8,598.649 2115.68,598.649 2117.56,556.322 2119.44,680.506 2121.32,819.215 2123.2,932.78 2125.08,932.78 2126.96,886.95 2128.85,952.159 2130.73,1041.63 2132.61,1041.63 2134.49,1019.68 2136.37,1034.44 2138.25,1108.99 2140.13,1170.03 2142.01,1220 2143.89,1220 2145.77,1067.77 2147.65,1115.16 2149.53,1175.08 2151.41,1224.14 2153.29,1264.31 2155.17,1297.19 2157.06,1324.11 2158.94,1346.16 2160.82,1346.16 2162.7,1183.5 2164.58,1222.06 2166.46,1222.06 2168.34,1000.8 2170.22,1027.79 2172.1,1103.55 2173.98,1103.55 2175.86,1060.52 2177.74,1088.24 2179.62,1088.24 2181.5,975.898 2183.38,992.161 2185.26,1074.38 2187.15,1141.69 2189.03,1141.69 2190.91,849.891 2192.79,880.78 2194.67,983.185 2196.55,1067.03 2198.43,1135.67 2200.31,1191.87 2202.19,1237.89 2204.07,1237.89 2205.95,1155.25 2207.83,1155.25 2209.71,1076.23 2211.59,1137.63 2213.47,1137.63 2215.36,1005.03 2217.24,1040.09 2219.12,1113.62 2221,1113.62 2222.88,867.83 2224.76,966.543 2226.64,1053.4 2228.52,1053.4 2230.4,1015 2232.28,1047.48 2234.16,1047.48 2236.04,969.839 2237.92,1050.45 2239.8,1050.45 2241.68,826.242 2243.57,903.173 2245.45,1001.52 2247.33,1001.52 2249.21,908.364 2251.09,918.547 2252.97,918.547 2254.85,671.83 2256.73,671.83 2258.61,591.538 2260.49,591.538 2262.37,430.166 2264.25,508.585 2266.13,678.458 2268.01,678.458 2269.89,530.261 2271.77,581.576 2273.66,581.576 2275.54,556.229 2277.42,665.091 2279.3,665.091 2281.18,592.81 2283.06,651.391 2284.94,651.391 2286.82,497.336 2288.7,562.608 2290.58,722.688 "/>
<path clip-path="url(#clip540)" d="M2007.42 198.898 L2279.53 198.898 L2279.53 95.2176 L2007.42 95.2176  Z" fill="#ffffff" fill-rule="evenodd" fill-opacity="1"/>
<polyline clip-path="url(#clip540)" style="stroke:#000000; stroke-linecap:round; stroke-linejoin:round; stroke-width:4; stroke-opacity:1; fill:none" points="2007.42,198.898 2279.53,198.898 2279.53,95.2176 2007.42,95.2176 2007.42,198.898 "/>
<polyline clip-path="url(#clip540)" style="stroke:#009af9; stroke-linecap:round; stroke-linejoin:round; stroke-width:4; stroke-opacity:1; fill:none" points="2031.82,147.058 2178.28,147.058 "/>
<path clip-path="url(#clip540)" d="M2216.53 166.745 Q2214.73 171.375 2213.01 172.787 Q2211.3 174.199 2208.43 174.199 L2205.03 174.199 L2205.03 170.634 L2207.53 170.634 Q2209.29 170.634 2210.26 169.8 Q2211.23 168.967 2212.41 165.865 L2213.17 163.921 L2202.69 138.412 L2207.2 138.412 L2215.3 158.689 L2223.41 138.412 L2227.92 138.412 L2216.53 166.745 Z" fill="#000000" fill-rule="nonzero" fill-opacity="1" /><path clip-path="url(#clip540)" d="M2235.21 160.402 L2242.85 160.402 L2242.85 134.037 L2234.54 135.703 L2234.54 131.444 L2242.8 129.778 L2247.48 129.778 L2247.48 160.402 L2255.12 160.402 L2255.12 164.338 L2235.21 164.338 L2235.21 160.402 Z" fill="#000000" fill-rule="nonzero" fill-opacity="1" /></svg>
