<?xml version="1.0" encoding="utf-8"?>
<svg xmlns="http://www.w3.org/2000/svg" xmlns:xlink="http://www.w3.org/1999/xlink" width="600" height="400" viewBox="0 0 2400 1600">
<defs>
  <clipPath id="clip570">
    <rect x="0" y="0" width="2400" height="1600"/>
  </clipPath>
</defs>
<path clip-path="url(#clip570)" d="M0 1600 L2400 1600 L2400 0 L0 0  Z" fill="#ffffff" fill-rule="evenodd" fill-opacity="1"/>
<defs>
  <clipPath id="clip571">
    <rect x="480" y="0" width="1681" height="1600"/>
  </clipPath>
</defs>
<path clip-path="url(#clip570)" d="M140.696 1423.18 L2352.76 1423.18 L2352.76 47.2441 L140.696 47.2441  Z" fill="#ffffff" fill-rule="evenodd" fill-opacity="1"/>
<defs>
  <clipPath id="clip572">
    <rect x="140" y="47" width="2213" height="1377"/>
  </clipPath>
</defs>
<polyline clip-path="url(#clip572)" style="stroke:#000000; stroke-linecap:round; stroke-linejoin:round; stroke-width:2; stroke-opacity:0.1; fill:none" points="582.438,1423.18 582.438,47.2441 "/>
<polyline clip-path="url(#clip572)" style="stroke:#000000; stroke-linecap:round; stroke-linejoin:round; stroke-width:2; stroke-opacity:0.1; fill:none" points="1027.64,1423.18 1027.64,47.2441 "/>
<polyline clip-path="url(#clip572)" style="stroke:#000000; stroke-linecap:round; stroke-linejoin:round; stroke-width:2; stroke-opacity:0.1; fill:none" points="1472.84,1423.18 1472.84,47.2441 "/>
<polyline clip-path="url(#clip572)" style="stroke:#000000; stroke-linecap:round; stroke-linejoin:round; stroke-width:2; stroke-opacity:0.1; fill:none" points="1918.04,1423.18 1918.04,47.2441 "/>
<polyline clip-path="url(#clip572)" style="stroke:#000000; stroke-linecap:round; stroke-linejoin:round; stroke-width:2; stroke-opacity:0.1; fill:none" points="140.696,1385.83 2352.76,1385.83 "/>
<polyline clip-path="url(#clip572)" style="stroke:#000000; stroke-linecap:round; stroke-linejoin:round; stroke-width:2; stroke-opacity:0.1; fill:none" points="140.696,976.211 2352.76,976.211 "/>
<polyline clip-path="url(#clip572)" style="stroke:#000000; stroke-linecap:round; stroke-linejoin:round; stroke-width:2; stroke-opacity:0.1; fill:none" points="140.696,566.591 2352.76,566.591 "/>
<polyline clip-path="url(#clip572)" style="stroke:#000000; stroke-linecap:round; stroke-linejoin:round; stroke-width:2; stroke-opacity:0.1; fill:none" points="140.696,156.972 2352.76,156.972 "/>
<polyline clip-path="url(#clip570)" style="stroke:#000000; stroke-linecap:round; stroke-linejoin:round; stroke-width:4; stroke-opacity:1; fill:none" points="140.696,1423.18 2352.76,1423.18 "/>
<polyline clip-path="url(#clip570)" style="stroke:#000000; stroke-linecap:round; stroke-linejoin:round; stroke-width:4; stroke-opacity:1; fill:none" points="582.438,1423.18 582.438,1404.28 "/>
<polyline clip-path="url(#clip570)" style="stroke:#000000; stroke-linecap:round; stroke-linejoin:round; stroke-width:4; stroke-opacity:1; fill:none" points="1027.64,1423.18 1027.64,1404.28 "/>
<polyline clip-path="url(#clip570)" style="stroke:#000000; stroke-linecap:round; stroke-linejoin:round; stroke-width:4; stroke-opacity:1; fill:none" points="1472.84,1423.18 1472.84,1404.28 "/>
<polyline clip-path="url(#clip570)" style="stroke:#000000; stroke-linecap:round; stroke-linejoin:round; stroke-width:4; stroke-opacity:1; fill:none" points="1918.04,1423.18 1918.04,1404.28 "/>
<path clip-path="url(#clip570)" d="M557.125 1481.64 L564.764 1481.64 L564.764 1455.28 L556.454 1456.95 L556.454 1452.69 L564.718 1451.02 L569.394 1451.02 L569.394 1481.64 L577.033 1481.64 L577.033 1485.58 L557.125 1485.58 L557.125 1481.64 Z" fill="#000000" fill-rule="nonzero" fill-opacity="1" /><path clip-path="url(#clip570)" d="M596.477 1454.1 Q592.866 1454.1 591.037 1457.66 Q589.232 1461.2 589.232 1468.33 Q589.232 1475.44 591.037 1479.01 Q592.866 1482.55 596.477 1482.55 Q600.111 1482.55 601.917 1479.01 Q603.745 1475.44 603.745 1468.33 Q603.745 1461.2 601.917 1457.66 Q600.111 1454.1 596.477 1454.1 M596.477 1450.39 Q602.287 1450.39 605.343 1455 Q608.421 1459.58 608.421 1468.33 Q608.421 1477.06 605.343 1481.67 Q602.287 1486.25 596.477 1486.25 Q590.667 1486.25 587.588 1481.67 Q584.533 1477.06 584.533 1468.33 Q584.533 1459.58 587.588 1455 Q590.667 1450.39 596.477 1450.39 Z" fill="#000000" fill-rule="nonzero" fill-opacity="1" /><path clip-path="url(#clip570)" d="M1006.41 1481.64 L1022.73 1481.64 L1022.73 1485.58 L1000.79 1485.58 L1000.79 1481.64 Q1003.45 1478.89 1008.03 1474.26 Q1012.64 1469.61 1013.82 1468.27 Q1016.07 1465.74 1016.95 1464.01 Q1017.85 1462.25 1017.85 1460.56 Q1017.85 1457.8 1015.9 1456.07 Q1013.98 1454.33 1010.88 1454.33 Q1008.68 1454.33 1006.23 1455.09 Q1003.8 1455.86 1001.02 1457.41 L1001.02 1452.69 Q1003.84 1451.55 1006.3 1450.97 Q1008.75 1450.39 1010.79 1450.39 Q1016.16 1450.39 1019.35 1453.08 Q1022.55 1455.77 1022.55 1460.26 Q1022.55 1462.39 1021.74 1464.31 Q1020.95 1466.2 1018.84 1468.8 Q1018.27 1469.47 1015.16 1472.69 Q1012.06 1475.88 1006.41 1481.64 Z" fill="#000000" fill-rule="nonzero" fill-opacity="1" /><path clip-path="url(#clip570)" d="M1042.55 1454.1 Q1038.94 1454.1 1037.11 1457.66 Q1035.3 1461.2 1035.3 1468.33 Q1035.3 1475.44 1037.11 1479.01 Q1038.94 1482.55 1042.55 1482.55 Q1046.18 1482.55 1047.99 1479.01 Q1049.82 1475.44 1049.82 1468.33 Q1049.82 1461.2 1047.99 1457.66 Q1046.18 1454.1 1042.55 1454.1 M1042.55 1450.39 Q1048.36 1450.39 1051.41 1455 Q1054.49 1459.58 1054.49 1468.33 Q1054.49 1477.06 1051.41 1481.67 Q1048.36 1486.25 1042.55 1486.25 Q1036.74 1486.25 1033.66 1481.67 Q1030.6 1477.06 1030.6 1468.33 Q1030.6 1459.58 1033.66 1455 Q1036.74 1450.39 1042.55 1450.39 Z" fill="#000000" fill-rule="nonzero" fill-opacity="1" /><path clip-path="url(#clip570)" d="M1461.69 1466.95 Q1465.04 1467.66 1466.92 1469.93 Q1468.81 1472.2 1468.81 1475.53 Q1468.81 1480.65 1465.3 1483.45 Q1461.78 1486.25 1455.3 1486.25 Q1453.12 1486.25 1450.81 1485.81 Q1448.51 1485.39 1446.06 1484.54 L1446.06 1480.02 Q1448 1481.16 1450.32 1481.74 Q1452.63 1482.32 1455.16 1482.32 Q1459.56 1482.32 1461.85 1480.58 Q1464.16 1478.84 1464.16 1475.53 Q1464.16 1472.48 1462.01 1470.77 Q1459.88 1469.03 1456.06 1469.03 L1452.03 1469.03 L1452.03 1465.19 L1456.25 1465.19 Q1459.69 1465.19 1461.52 1463.82 Q1463.35 1462.43 1463.35 1459.84 Q1463.35 1457.18 1461.45 1455.77 Q1459.58 1454.33 1456.06 1454.33 Q1454.14 1454.33 1451.94 1454.75 Q1449.74 1455.16 1447.1 1456.04 L1447.1 1451.88 Q1449.76 1451.14 1452.08 1450.77 Q1454.42 1450.39 1456.48 1450.39 Q1461.8 1450.39 1464.9 1452.83 Q1468 1455.23 1468 1459.35 Q1468 1462.22 1466.36 1464.21 Q1464.72 1466.18 1461.69 1466.95 Z" fill="#000000" fill-rule="nonzero" fill-opacity="1" /><path clip-path="url(#clip570)" d="M1487.68 1454.1 Q1484.07 1454.1 1482.24 1457.66 Q1480.44 1461.2 1480.44 1468.33 Q1480.44 1475.44 1482.24 1479.01 Q1484.07 1482.55 1487.68 1482.55 Q1491.31 1482.55 1493.12 1479.01 Q1494.95 1475.44 1494.95 1468.33 Q1494.95 1461.2 1493.12 1457.66 Q1491.31 1454.1 1487.68 1454.1 M1487.68 1450.39 Q1493.49 1450.39 1496.55 1455 Q1499.62 1459.58 1499.62 1468.33 Q1499.62 1477.06 1496.55 1481.67 Q1493.49 1486.25 1487.68 1486.25 Q1481.87 1486.25 1478.79 1481.67 Q1475.74 1477.06 1475.74 1468.33 Q1475.74 1459.58 1478.79 1455 Q1481.87 1450.39 1487.68 1450.39 Z" fill="#000000" fill-rule="nonzero" fill-opacity="1" /><path clip-path="url(#clip570)" d="M1906.22 1455.09 L1894.41 1473.54 L1906.22 1473.54 L1906.22 1455.09 M1904.99 1451.02 L1910.87 1451.02 L1910.87 1473.54 L1915.8 1473.54 L1915.8 1477.43 L1910.87 1477.43 L1910.87 1485.58 L1906.22 1485.58 L1906.22 1477.43 L1890.61 1477.43 L1890.61 1472.92 L1904.99 1451.02 Z" fill="#000000" fill-rule="nonzero" fill-opacity="1" /><path clip-path="url(#clip570)" d="M1933.53 1454.1 Q1929.92 1454.1 1928.09 1457.66 Q1926.29 1461.2 1926.29 1468.33 Q1926.29 1475.44 1928.09 1479.01 Q1929.92 1482.55 1933.53 1482.55 Q1937.17 1482.55 1938.97 1479.01 Q1940.8 1475.44 1940.8 1468.33 Q1940.8 1461.2 1938.97 1457.66 Q1937.17 1454.1 1933.53 1454.1 M1933.53 1450.39 Q1939.34 1450.39 1942.4 1455 Q1945.48 1459.58 1945.48 1468.33 Q1945.48 1477.06 1942.4 1481.67 Q1939.34 1486.25 1933.53 1486.25 Q1927.72 1486.25 1924.64 1481.67 Q1921.59 1477.06 1921.59 1468.33 Q1921.59 1459.58 1924.64 1455 Q1927.72 1450.39 1933.53 1450.39 Z" fill="#000000" fill-rule="nonzero" fill-opacity="1" /><path clip-path="url(#clip570)" d="M1245.79 1522.27 L1245.79 1532.4 L1257.85 1532.4 L1257.85 1536.95 L1245.79 1536.95 L1245.79 1556.3 Q1245.79 1560.66 1246.96 1561.9 Q1248.17 1563.14 1251.83 1563.14 L1257.85 1563.14 L1257.85 1568.04 L1251.83 1568.04 Q1245.05 1568.04 1242.48 1565.53 Q1239.9 1562.98 1239.9 1556.3 L1239.9 1536.95 L1235.6 1536.95 L1235.6 1532.4 L1239.9 1532.4 L1239.9 1522.27 L1245.79 1522.27 Z" fill="#000000" fill-rule="nonzero" fill-opacity="1" /><polyline clip-path="url(#clip570)" style="stroke:#000000; stroke-linecap:round; stroke-linejoin:round; stroke-width:4; stroke-opacity:1; fill:none" points="140.696,1423.18 140.696,47.2441 "/>
<polyline clip-path="url(#clip570)" style="stroke:#000000; stroke-linecap:round; stroke-linejoin:round; stroke-width:4; stroke-opacity:1; fill:none" points="140.696,1385.83 159.593,1385.83 "/>
<polyline clip-path="url(#clip570)" style="stroke:#000000; stroke-linecap:round; stroke-linejoin:round; stroke-width:4; stroke-opacity:1; fill:none" points="140.696,976.211 159.593,976.211 "/>
<polyline clip-path="url(#clip570)" style="stroke:#000000; stroke-linecap:round; stroke-linejoin:round; stroke-width:4; stroke-opacity:1; fill:none" points="140.696,566.591 159.593,566.591 "/>
<polyline clip-path="url(#clip570)" style="stroke:#000000; stroke-linecap:round; stroke-linejoin:round; stroke-width:4; stroke-opacity:1; fill:none" points="140.696,156.972 159.593,156.972 "/>
<path clip-path="url(#clip570)" d="M92.7512 1371.63 Q89.1401 1371.63 87.3114 1375.19 Q85.5058 1378.74 85.5058 1385.86 Q85.5058 1392.97 87.3114 1396.54 Q89.1401 1400.08 92.7512 1400.08 Q96.3854 1400.08 98.1909 1396.54 Q100.02 1392.97 100.02 1385.86 Q100.02 1378.74 98.1909 1375.19 Q96.3854 1371.63 92.7512 1371.63 M92.7512 1367.93 Q98.5613 1367.93 101.617 1372.53 Q104.696 1377.11 104.696 1385.86 Q104.696 1394.59 101.617 1399.2 Q98.5613 1403.78 92.7512 1403.78 Q86.941 1403.78 83.8623 1399.2 Q80.8068 1394.59 80.8068 1385.86 Q80.8068 1377.11 83.8623 1372.53 Q86.941 1367.93 92.7512 1367.93 Z" fill="#000000" fill-rule="nonzero" fill-opacity="1" /><path clip-path="url(#clip570)" d="M53.3995 989.556 L61.0384 989.556 L61.0384 963.19 L52.7282 964.857 L52.7282 960.597 L60.9921 958.931 L65.668 958.931 L65.668 989.556 L73.3068 989.556 L73.3068 993.491 L53.3995 993.491 L53.3995 989.556 Z" fill="#000000" fill-rule="nonzero" fill-opacity="1" /><path clip-path="url(#clip570)" d="M92.7512 962.009 Q89.1401 962.009 87.3114 965.574 Q85.5058 969.116 85.5058 976.245 Q85.5058 983.352 87.3114 986.917 Q89.1401 990.458 92.7512 990.458 Q96.3854 990.458 98.1909 986.917 Q100.02 983.352 100.02 976.245 Q100.02 969.116 98.1909 965.574 Q96.3854 962.009 92.7512 962.009 M92.7512 958.306 Q98.5613 958.306 101.617 962.912 Q104.696 967.495 104.696 976.245 Q104.696 984.972 101.617 989.579 Q98.5613 994.162 92.7512 994.162 Q86.941 994.162 83.8623 989.579 Q80.8068 984.972 80.8068 976.245 Q80.8068 967.495 83.8623 962.912 Q86.941 958.306 92.7512 958.306 Z" fill="#000000" fill-rule="nonzero" fill-opacity="1" /><path clip-path="url(#clip570)" d="M56.6171 579.936 L72.9365 579.936 L72.9365 583.871 L50.9921 583.871 L50.9921 579.936 Q53.6541 577.182 58.2375 572.552 Q62.8439 567.899 64.0245 566.557 Q66.2698 564.033 67.1494 562.297 Q68.0522 560.538 68.0522 558.848 Q68.0522 556.094 66.1078 554.358 Q64.1865 552.621 61.0847 552.621 Q58.8856 552.621 56.4319 553.385 Q54.0014 554.149 51.2236 555.7 L51.2236 550.978 Q54.0477 549.844 56.5014 549.265 Q58.955 548.686 60.9921 548.686 Q66.3624 548.686 69.5568 551.371 Q72.7513 554.057 72.7513 558.547 Q72.7513 560.677 71.9411 562.598 Q71.1541 564.496 69.0476 567.089 Q68.4689 567.76 65.367 570.978 Q62.2652 574.172 56.6171 579.936 Z" fill="#000000" fill-rule="nonzero" fill-opacity="1" /><path clip-path="url(#clip570)" d="M92.7512 552.39 Q89.1401 552.39 87.3114 555.955 Q85.5058 559.496 85.5058 566.626 Q85.5058 573.732 87.3114 577.297 Q89.1401 580.839 92.7512 580.839 Q96.3854 580.839 98.1909 577.297 Q100.02 573.732 100.02 566.626 Q100.02 559.496 98.1909 555.955 Q96.3854 552.39 92.7512 552.39 M92.7512 548.686 Q98.5613 548.686 101.617 553.293 Q104.696 557.876 104.696 566.626 Q104.696 575.353 101.617 579.959 Q98.5613 584.543 92.7512 584.543 Q86.941 584.543 83.8623 579.959 Q80.8068 575.353 80.8068 566.626 Q80.8068 557.876 83.8623 553.293 Q86.941 548.686 92.7512 548.686 Z" fill="#000000" fill-rule="nonzero" fill-opacity="1" /><path clip-path="url(#clip570)" d="M66.7559 155.618 Q70.1124 156.335 71.9874 158.604 Q73.8855 160.872 73.8855 164.206 Q73.8855 169.321 70.367 172.122 Q66.8485 174.923 60.3671 174.923 Q58.1912 174.923 55.8764 174.483 Q53.5847 174.067 51.131 173.21 L51.131 168.696 Q53.0754 169.831 55.3903 170.409 Q57.7051 170.988 60.2282 170.988 Q64.6263 170.988 66.918 169.252 Q69.2328 167.516 69.2328 164.206 Q69.2328 161.15 67.08 159.437 Q64.9504 157.701 61.131 157.701 L57.1032 157.701 L57.1032 153.859 L61.3161 153.859 Q64.7652 153.859 66.5939 152.493 Q68.4226 151.104 68.4226 148.511 Q68.4226 145.849 66.5245 144.437 Q64.6495 143.002 61.131 143.002 Q59.2097 143.002 57.0106 143.419 Q54.8115 143.835 52.1727 144.715 L52.1727 140.548 Q54.8347 139.808 57.1495 139.437 Q59.4875 139.067 61.5476 139.067 Q66.8717 139.067 69.9735 141.497 Q73.0753 143.905 73.0753 148.025 Q73.0753 150.896 71.4318 152.886 Q69.7883 154.854 66.7559 155.618 Z" fill="#000000" fill-rule="nonzero" fill-opacity="1" /><path clip-path="url(#clip570)" d="M92.7512 142.771 Q89.1401 142.771 87.3114 146.335 Q85.5058 149.877 85.5058 157.007 Q85.5058 164.113 87.3114 167.678 Q89.1401 171.22 92.7512 171.22 Q96.3854 171.22 98.1909 167.678 Q100.02 164.113 100.02 157.007 Q100.02 149.877 98.1909 146.335 Q96.3854 142.771 92.7512 142.771 M92.7512 139.067 Q98.5613 139.067 101.617 143.673 Q104.696 148.257 104.696 157.007 Q104.696 165.733 101.617 170.34 Q98.5613 174.923 92.7512 174.923 Q86.941 174.923 83.8623 170.34 Q80.8068 165.733 80.8068 157.007 Q80.8068 148.257 83.8623 143.673 Q86.941 139.067 92.7512 139.067 Z" fill="#000000" fill-rule="nonzero" fill-opacity="1" /><polyline clip-path="url(#clip572)" style="stroke:#009af9; stroke-linecap:round; stroke-linejoin:round; stroke-width:4; stroke-opacity:1; fill:none" points="140.696,1384.24 140.696,1384.24 149.629,1380.13 150.55,1379.7 158.528,1376.03 162.436,1374.24 169.288,1371.08 170.098,1370.71 193.171,1360.1 198.896,1357.46 198.987,1357.42 201.727,1356.16 203.89,1355.17 204.849,1354.64 206.223,1353.89 215.639,1348.92 219.995,1346.7 223.606,1344.59 231.741,1340.05 252.706,1329.31 254.501,1328.43 257.685,1326.88 279.043,1315.45 280.321,1314.8 291.257,1308.61 295.625,1306.28 305.171,1301.36 305.875,1301.01 316.918,1295.55 317.417,1295.31 319.97,1294.08 326.856,1290.77 328.999,1289.76 330.909,1288.85 333.069,1287.83 337.455,1285.76 343.801,1282.78 343.867,1282.75 347.844,1280.89 355.967,1277.11 375.522,1268.06 386.966,1262.78 391.238,1260.45 404.266,1253.7 429.356,1241.51 432.551,1240 433.032,1239.77 440.048,1236.48 442.659,1235.25 444.791,1234.26 449.779,1231.52 454.138,1229.2 456.948,1227.74 459.567,1226.39 460.896,1225.71 465.243,1223.52 473.454,1219.48 479.951,1216.33 480.057,1216.28 496.817,1208.33 508.284,1202.97 510.289,1201.86 511.539,1201.18 517.331,1198.08 522.08,1195.62 533.328,1189.98 536.204,1188.33 539.812,1186.3 540.437,1185.96 542.363,1184.91 561.483,1175.05 575.466,1168.26 581.192,1165.06 584.158,1163.21 588.876,1159.99 615.108,1144.83 616.333,1144.2 619.319,1142.66 629.683,1137.47 633.136,1135.78 634.146,1135.29 646.406,1129.4 654.333,1125.65 657.456,1123.92 661.963,1121.48 665.242,1119.75 665.87,1119.42 670.999,1116.78 683.444,1110.59 695.384,1104.84 711.855,1097.08 712.394,1096.83 713.598,1096.26 725.204,1090.86 734.643,1085.78 754.128,1076 756.68,1074.76 763.7,1071.39 801.028,1052.24 814.942,1045.63 815.2,1045.51 818.752,1043.84 818.966,1043.74 821.591,1042.51 831.769,1037.76 838.328,1034.71 840.319,1033.79 857.253,1025.96 858.209,1025.52 892.145,1009.88 922.381,995.962 925.061,994.729 926.651,993.856 929.213,992.47 953.039,980.392 962.274,975.945 969.941,971.709 973.225,969.962 973.642,969.742 989.079,961.91 990.985,960.974 1000.17,956.521 1020.12,947.081 1020.69,946.815 1029.93,942.505 1040.52,937.589 1044.04,935.956 1051.4,932.554 1053.76,931.466 1058.72,928.764 1077.66,919.096 1085.99,915.038 1090.02,913.106 1103.54,906.701 1105.05,905.989 1106.55,905.287 1109.22,904.035 1110.09,903.631 1114.37,901.633 1142.77,888.465 1148.78,885.691 1153.57,883.482 1165.87,877.814 1181.84,870.463 1184.17,869.388 1185.01,869.001 1185.91,868.586 1191.1,866.2 1191.7,865.923 1192.44,865.514 1198.54,861.742 1199.81,860.989 1211.61,854.37 1218.02,850.994 1222.79,848.551 1223.49,848.2 1233.45,843.253 1234.22,842.879 1239.62,840.264 1240.5,839.841 1260.62,830.308 1292.59,815.453 1313.94,805.604 1327.21,799.492 1333.32,796.682 1333.59,796.555 1353.85,787.23 1357.31,785.637 1358.8,784.822 1359.28,784.56 1360.28,784.016 1363.63,782.224 1393.15,767.508 1404.31,762.217 1411.5,758.839 1416.77,756.378 1419.39,755.154 1422.77,753.583 1423.2,753.38 1430.5,749.994 1434.43,748.173 1441.86,744.74 1448.91,741.482 1450.78,740.621 1457.07,737.719 1466.64,733.309 1471.98,730.411 1478.69,726.903 1489.6,721.418 1495.72,718.425 1502,715.4 1529.07,701.209 1530.91,700.302 1562.41,685.301 1583.01,675.727 1585.73,674.467 1588.99,672.96 1593.48,670.885 1596.15,669.651 1599.62,667.757 1601.39,666.803 1613.94,659.439 1614.59,659.081 1615.07,658.814 1621.51,655.352 1622.42,654.788 1630.42,650.081 1650.31,639.528 1656.16,636.614 1667.74,630.983 1682.86,623.808 1685.34,622.645 1689.97,620.477 1697.42,616.418 1698.88,615.645 1700.22,614.945 1710.28,609.81 1712.98,608.466 1719.71,605.165 1723.87,603.15 1730.46,599.996 1752.81,589.487 1758.18,586.987 1763.61,584.469 1776.44,578.53 1779.09,577.304 1786.44,573.912 1801.66,566.895 1812.09,562.091 1827.83,554.848 1831.76,553.038 1833.35,552.305 1833.88,552.063 1848.56,545.309 1849.44,544.902 1853.1,543.221 1871.15,534.916 1878.92,531.341 1880.73,530.508 1890.79,525.133 1893.75,523.609 1907.17,516.92 1908.51,516.265 1911.41,514.861 1926.16,507.825 1931.19,505.455 1938.25,502.152 1947.09,498.035 1956.69,493.58 1965.5,489.509 1966.98,488.822 1977.99,483.742 1982.34,481.738 2003.08,472.181 2013.42,467.423 2020.95,463.954 2026.42,461.441 2027.22,461.072 2034.42,457.194 2043.85,452.34 2049.04,449.325 2051.25,448.081 2073.19,436.63 2078.47,434.03 2084.79,430.461 2094.44,425.313 2095.86,424.578 2101.99,421.461 2104.55,420.179 2109.68,417.649 2112.12,416.461 2118.94,413.163 2119.91,412.699 2124.67,410.43 2141.07,402.708 2141.85,402.343 2146.52,400.168 2147.37,399.771 2155.11,396.177 2169.05,389.723 2179.93,384.7 2195.54,376.472 2226.15,361.622 2232.75,358.519 2241.38,354.485 2246.71,352.005 2259.67,345.999 2283.19,335.142 2283.52,334.989 2290.17,331.923 2296.75,328.893 2308.08,323.677 2310.14,322.726 2315.78,320.134 2327.21,314.874 2327.77,314.614 2327.86,314.574 2330.29,313.452 2339.7,309.123 2342.53,307.821 2348.31,305.164 2352.76,303.117 "/>
<polyline clip-path="url(#clip572)" style="stroke:#e26f46; stroke-linecap:round; stroke-linejoin:round; stroke-width:4; stroke-opacity:1; fill:none" points="140.696,1384.24 140.696,1384.24 149.629,1380.13 150.55,1379.7 158.528,1376.03 162.436,1374.24 169.288,1371.08 170.098,1370.71 193.171,1360.1 198.896,1357.46 198.987,1357.42 201.727,1356.16 203.89,1355.17 204.849,1354.73 206.223,1354.09 215.639,1349.76 219.995,1347.76 223.606,1346.1 231.741,1342.35 252.706,1332.71 254.501,1331.88 257.685,1330.42 279.043,1320.59 280.321,1320.01 291.257,1314.97 295.625,1312.6 305.171,1307.62 305.875,1307.26 316.918,1301.77 317.417,1301.52 319.97,1300.28 326.856,1296.42 328.999,1295.26 330.909,1294.23 333.069,1292.9 337.455,1290.29 343.801,1286.7 343.867,1286.66 347.844,1284.5 355.967,1280.24 375.522,1270.56 386.966,1265.09 391.238,1263.08 404.266,1256.98 429.356,1245.34 432.551,1243.87 433.032,1243.6 440.048,1239.82 442.659,1238.23 444.791,1236.96 449.779,1234.09 454.138,1231.68 456.948,1230.17 459.567,1228.78 460.896,1228.08 465.243,1225.83 473.454,1221.71 479.951,1218.52 480.057,1218.47 496.817,1210.44 508.284,1205.06 510.289,1204.12 511.539,1203.54 517.331,1200.84 522.08,1198.64 533.328,1193.43 536.204,1192.1 539.812,1190.12 540.437,1189.79 542.363,1188.59 561.483,1176.61 575.466,1169.09 581.192,1166.17 584.158,1164.69 588.876,1162.36 615.108,1148.4 616.333,1147.68 619.319,1145.96 629.683,1140.31 633.136,1138.21 634.146,1137.52 646.406,1129.82 654.333,1125.33 657.456,1123.64 661.963,1121.25 665.242,1119.55 665.87,1119.23 670.999,1116.63 683.444,1110.51 695.384,1104.79 711.855,1097.05 712.394,1096.8 713.598,1096.24 725.204,1090.85 734.643,1086.48 754.128,1077.48 756.68,1076.31 763.7,1073.07 801.028,1055.89 814.942,1049.48 815.2,1049.34 818.752,1047.41 818.966,1047.29 821.591,1045.9 831.769,1040.66 838.328,1036.87 840.319,1035.76 857.253,1026.88 858.209,1026.4 892.145,1008.47 922.381,994.078 925.061,992.826 926.651,992.085 929.213,990.891 953.039,978.504 962.274,974.003 969.941,970.333 973.225,968.775 973.642,968.577 989.079,961.328 990.985,960.439 1000.17,956.167 1020.12,946.937 1020.69,946.674 1029.93,942.412 1040.52,937.532 1044.04,935.907 1051.4,932.518 1053.76,931.434 1058.72,929.148 1077.66,920.434 1085.99,916.598 1090.02,914.746 1103.54,907.594 1105.05,906.688 1106.55,905.809 1109.22,904.034 1110.09,903.474 1114.37,900.787 1142.77,885.276 1148.78,881.803 1153.57,879.156 1165.87,872.716 1181.84,864.829 1184.17,863.703 1185.01,863.299 1185.91,862.867 1191.1,860.393 1191.7,860.106 1192.44,859.754 1198.54,856.872 1199.81,856.275 1211.61,850.752 1218.02,847.769 1222.79,845.554 1223.49,845.231 1233.45,840.617 1234.22,840.263 1239.62,837.329 1240.5,836.782 1260.62,825.413 1292.59,809.605 1313.94,798.31 1327.21,791.794 1333.32,788.866 1333.59,788.735 1353.85,777.963 1357.31,775.935 1358.8,775.085 1359.28,774.813 1360.28,774.247 1363.63,772.389 1393.15,757.375 1404.31,752.041 1411.5,748.08 1416.77,745.296 1419.39,743.71 1422.77,741.732 1423.2,741.442 1430.5,736.24 1434.43,733.331 1441.86,727.717 1448.91,722.964 1450.78,721.615 1457.07,717.341 1466.64,710.749 1471.98,707.42 1478.69,702.967 1489.6,696.439 1495.72,693.05 1502,689.718 1529.07,676.305 1530.91,675.424 1562.41,660.65 1583.01,651.12 1585.73,649.628 1588.99,647.599 1593.48,644.919 1596.15,643.379 1599.62,641.434 1601.39,640.457 1613.94,633.854 1614.59,633.525 1615.07,633.28 1621.51,630.058 1622.42,629.605 1630.42,625.699 1650.31,616.24 1656.16,613.502 1667.74,608.108 1682.86,600.094 1685.34,598.84 1689.97,596.527 1697.42,592.872 1698.88,592.033 1700.22,591.277 1710.28,585.811 1712.98,584.402 1719.71,580.967 1723.87,578.887 1730.46,575.652 1752.81,564.995 1758.18,562.477 1763.61,559.944 1776.44,553.982 1779.09,552.753 1786.44,549.353 1801.66,542.327 1812.09,537.519 1827.83,530.273 1831.76,528.463 1833.35,527.589 1833.88,527.254 1848.56,517.646 1849.44,517.119 1853.1,514.993 1871.15,505.302 1878.92,501.401 1880.73,500.508 1890.79,495.615 1893.75,493.941 1907.17,485.847 1908.51,485.093 1911.41,483.494 1926.16,475.779 1931.19,473.262 1938.25,469.803 1947.09,465.547 1956.69,460.994 1965.5,456.863 1966.98,456.167 1977.99,451.042 1982.34,448.662 2003.08,436.807 2013.42,431.495 2020.95,427.757 2026.42,425.098 2027.22,424.71 2034.42,421.259 2043.85,416.791 2049.04,414.354 2051.25,413.318 2073.19,403.117 2078.47,400.673 2084.79,397.756 2094.44,393.305 2095.86,392.65 2101.99,389.823 2104.55,388.641 2109.68,386.279 2112.12,384.946 2118.94,380.775 2119.91,380.12 2124.67,377.027 2141.07,367.499 2141.85,367.077 2146.52,364.212 2147.37,363.705 2155.11,358.673 2169.05,350.61 2179.93,344.871 2195.54,337.104 2226.15,322.593 2232.75,318.994 2241.38,314.498 2246.71,311.81 2259.67,304.562 2283.19,292.678 2283.52,292.517 2290.17,289.313 2296.75,286.18 2308.08,280.845 2310.14,279.878 2315.78,277.25 2327.21,271.116 2327.77,270.824 2327.86,270.771 2330.29,269.307 2339.7,263.957 2342.53,262.423 2348.31,259.376 2352.76,256.719 "/>
<polyline clip-path="url(#clip572)" style="stroke:#3da44d; stroke-linecap:round; stroke-linejoin:round; stroke-width:4; stroke-opacity:1; fill:none" points="140.696,1384.24 140.696,1384.24 149.629,1380.13 150.55,1379.7 158.528,1376.03 162.436,1374.24 169.288,1370.54 170.098,1370.12 193.171,1358.56 198.896,1355.35 198.987,1355.29 201.727,1353.57 203.89,1352.24 204.849,1351.67 206.223,1350.85 215.639,1345.52 219.995,1343.18 223.606,1341.28 231.741,1337.13 252.706,1326.92 254.501,1325.91 257.685,1324.15 279.043,1313.14 280.321,1312.51 291.257,1307.21 295.625,1304.76 305.171,1299.66 305.875,1299.23 316.918,1292.87 317.417,1292.55 319.97,1290.95 326.856,1286.3 328.999,1284.94 330.909,1283.75 333.069,1282.26 337.455,1279.35 343.801,1275.43 343.867,1275.39 347.844,1273.06 355.967,1268.54 375.522,1258.51 386.966,1252.95 391.238,1250.91 404.266,1244.76 429.356,1233.08 432.551,1231.6 433.032,1231.33 440.048,1227.55 442.659,1225.95 444.791,1224.68 449.779,1221.81 454.138,1219.4 456.948,1217.88 459.567,1216.49 460.896,1215.8 465.243,1213.19 473.454,1208.54 479.951,1204.53 480.057,1204.47 496.817,1195.19 508.284,1188.52 510.289,1187.42 511.539,1186.63 517.331,1183.12 522.08,1180.38 533.328,1174.29 536.204,1172.8 539.812,1170.65 540.437,1170.28 542.363,1169 561.483,1156.51 575.466,1148.81 581.192,1145.85 584.158,1144.34 588.876,1141.99 615.108,1127.95 616.333,1127.23 619.319,1125.51 629.683,1119.84 633.136,1117.74 634.146,1117.05 646.406,1109.35 654.333,1104.86 657.456,1103.16 661.963,1100.77 665.242,1099.08 665.87,1098.75 670.999,1096.15 683.444,1090.03 695.384,1084.31 711.855,1076.57 712.394,1076.32 713.598,1075.76 725.204,1070.37 734.643,1066 754.128,1057 756.68,1055.82 763.7,1052.04 801.028,1033.64 814.942,1027.1 815.2,1026.96 818.752,1025.01 818.966,1024.89 821.591,1023.48 831.769,1018.2 838.328,1014.39 840.319,1013.28 857.253,1004.37 858.209,1003.89 892.145,985.943 922.381,971.55 925.061,970.298 926.651,969.557 929.213,968.363 953.039,955.976 962.274,951.474 969.941,947.804 973.225,946.245 973.642,946.048 989.079,938.799 990.985,937.91 1000.17,933.638 1020.12,924.407 1020.69,924.145 1029.93,919.883 1040.52,915.002 1044.04,913.078 1051.4,908.62 1053.76,907.057 1058.72,903.912 1077.66,893.229 1085.99,888.934 1090.02,886.915 1103.54,879.38 1105.05,878.444 1106.55,877.536 1109.22,875.716 1110.09,875.143 1114.37,872.396 1142.77,856.682 1148.78,853.189 1153.57,850.532 1165.87,843.201 1181.84,833.648 1184.17,832.364 1185.01,831.907 1185.91,831.421 1191.1,828.246 1191.7,827.888 1192.44,827.451 1198.54,823.965 1199.81,823.263 1211.61,816.998 1218.02,813.749 1222.79,811.379 1223.49,811.037 1233.45,806.198 1234.22,805.83 1239.62,802.813 1240.5,802.255 1260.62,790.713 1292.59,774.816 1313.94,763.503 1327.21,756.982 1333.32,753.561 1333.59,753.411 1353.85,741.718 1357.31,739.6 1358.8,738.716 1359.28,738.433 1360.28,737.846 1363.63,735.923 1393.15,720.615 1404.31,714.433 1411.5,710.111 1416.77,707.128 1419.39,705.459 1422.77,703.388 1423.2,703.086 1430.5,697.729 1434.43,694.754 1441.86,689.045 1448.91,683.669 1450.78,682.187 1457.07,677.535 1466.64,670.539 1471.98,667.05 1478.69,662.443 1489.6,655.745 1495.72,652.292 1502,648.91 1529.07,635.388 1530.91,634.503 1562.41,619.698 1583.01,610.162 1585.73,608.67 1588.99,606.639 1593.48,603.959 1596.15,602.419 1599.62,600.474 1601.39,599.496 1613.94,592.893 1614.59,592.564 1615.07,592.318 1621.51,589.096 1622.42,588.644 1630.42,584.738 1650.31,575.278 1656.16,572.54 1667.74,567.146 1682.86,559.132 1685.34,557.877 1689.97,555.565 1697.42,551.91 1698.88,551.071 1700.22,550.315 1710.28,544.105 1712.98,542.546 1719.71,538.81 1723.87,536.584 1730.46,533.169 1752.81,522.178 1758.18,519.618 1763.61,517.053 1776.44,511.039 1779.09,509.802 1786.44,506.386 1801.66,499.339 1812.09,494.522 1827.83,487.27 1831.76,485.458 1833.35,484.584 1833.88,484.248 1848.56,474.638 1849.44,474.031 1853.1,471.607 1871.15,460.987 1878.92,456.867 1880.73,455.933 1890.79,450.865 1893.75,449.152 1907.17,440.936 1908.51,440.173 1911.41,438.557 1926.16,430.783 1931.19,428.254 1938.25,424.225 1947.09,418.797 1956.69,413.401 1965.5,408.76 1966.98,407.996 1977.99,402.488 1982.34,400.001 2003.08,387.847 2013.42,382.463 2020.95,378.69 2026.42,375.566 2027.22,375.119 2034.42,371.222 2043.85,366.352 2049.04,363.756 2051.25,362.663 2073.19,352.118 2078.47,349.632 2084.79,346.674 2094.44,342.181 2095.86,341.521 2101.99,338.184 2104.55,336.826 2109.68,334.169 2112.12,332.717 2118.94,328.276 2119.91,327.59 2124.67,324.358 2141.07,314.526 2141.85,314.095 2146.52,311.179 2147.37,310.663 2155.11,305.57 2169.05,297.438 2179.93,291.669 2195.54,283.877 2226.15,269.349 2232.75,265.748 2241.38,261.25 2246.71,258.562 2259.67,251.313 2283.19,239.428 2283.52,239.267 2290.17,236.062 2296.75,232.929 2308.08,227.594 2310.14,226.628 2315.78,223.999 2327.21,217.866 2327.77,217.522 2327.86,217.461 2330.29,215.791 2339.7,209.826 2342.53,208.153 2348.31,204.871 2352.76,202.07 "/>
<polyline clip-path="url(#clip572)" style="stroke:#c271d2; stroke-linecap:round; stroke-linejoin:round; stroke-width:4; stroke-opacity:1; fill:none" points="140.696,1384.24 140.696,1384.24 149.629,1379.45 150.55,1378.89 158.528,1373.61 162.436,1371.22 169.288,1367.24 170.098,1366.71 193.171,1352.07 198.896,1348.93 198.987,1348.89 201.727,1347.43 203.89,1346.29 204.849,1345.79 206.223,1345.08 215.639,1339.62 219.995,1336.87 223.606,1334.69 231.741,1329.43 252.706,1316.42 254.501,1315.43 257.685,1313.7 279.043,1302.82 280.321,1302.19 291.257,1296.92 295.625,1294.84 305.171,1290.34 305.875,1290.01 316.918,1284.86 317.417,1284.62 319.97,1283.21 326.856,1279.53 328.999,1278.23 330.909,1277.09 333.069,1275.83 337.455,1272.98 343.801,1269.11 343.867,1269.06 347.844,1266.09 355.967,1259.95 375.522,1246.56 386.966,1239.22 391.238,1236.71 404.266,1228.68 429.356,1214.02 432.551,1212.08 433.032,1211.79 440.048,1207.2 442.659,1205.59 444.791,1204.31 449.779,1201.42 454.138,1198.63 456.948,1196.66 459.567,1194.67 460.896,1193.58 465.243,1190.18 473.454,1183.78 479.951,1179.31 480.057,1179.24 496.817,1168.13 508.284,1161.64 510.289,1160.56 511.539,1159.9 517.331,1156.88 522.08,1154.07 533.328,1147.04 536.204,1145.37 539.812,1143.34 540.437,1142.94 542.363,1141.72 561.483,1130.79 575.466,1122.67 581.192,1119.59 584.158,1118.04 588.876,1115.62 615.108,1102.83 616.333,1102.24 619.319,1100.57 629.683,1094.28 633.136,1092.32 634.146,1091.76 646.406,1084.35 654.333,1079.38 657.456,1077.53 661.963,1074.59 665.242,1072.27 665.87,1071.83 670.999,1068.03 683.444,1059.04 695.384,1050.88 711.855,1041.35 712.394,1041.01 713.598,1040.15 725.204,1031.75 734.643,1025.86 754.128,1013.99 756.68,1012.37 763.7,1008.15 801.028,988.797 814.942,981.211 815.2,981.077 818.752,978.942 818.966,978.796 821.591,976.816 831.769,969.117 838.328,964.772 840.319,963.349 857.253,951.582 858.209,950.91 892.145,931.149 922.381,914.86 925.061,913.301 926.651,912.394 929.213,910.957 953.039,898.609 962.274,893.418 969.941,889.358 973.225,887.388 973.642,887.105 989.079,876.556 990.985,875.397 1000.17,869.409 1020.12,856.978 1020.69,856.609 1029.93,850.242 1040.52,843.037 1044.04,840.854 1051.4,836.549 1053.76,835.229 1058.72,832.523 1077.66,821.671 1085.99,816.697 1090.02,814.092 1103.54,806.143 1105.05,805.309 1106.55,804.363 1109.22,802.712 1110.09,802.111 1114.37,799.241 1142.77,783.111 1148.78,780.065 1153.57,777.29 1165.87,770.621 1181.84,762.575 1184.17,761.434 1185.01,760.949 1185.91,760.434 1191.1,757.54 1191.7,757.156 1192.44,756.687 1198.54,752.981 1199.81,752.127 1211.61,743.951 1218.02,739.506 1222.79,736.049 1223.49,735.567 1233.45,728.398 1234.22,727.822 1239.62,723.962 1240.5,723.363 1260.62,710.017 1292.59,693.183 1313.94,682.954 1327.21,675.816 1333.32,672.704 1333.59,672.541 1353.85,661.442 1357.31,659.677 1358.8,658.928 1359.28,658.643 1360.28,657.962 1363.63,655.467 1393.15,636.072 1404.31,630.114 1411.5,626.453 1416.77,623.404 1419.39,621.935 1422.77,619.801 1423.2,619.532 1430.5,615.202 1434.43,612.988 1441.86,608.977 1448.91,605.322 1450.78,604.375 1457.07,600.728 1466.64,595.522 1471.98,592.744 1478.69,589.352 1489.6,583.993 1495.72,580.556 1502,576.684 1529.07,562.102 1530.91,561.019 1562.41,542.925 1583.01,531.516 1585.73,530.117 1588.99,528.465 1593.48,525.848 1596.15,524.108 1599.62,521.937 1601.39,520.7 1613.94,512.749 1614.59,512.31 1615.07,511.984 1621.51,507.335 1622.42,506.71 1630.42,501.57 1650.31,490.425 1656.16,486.944 1667.74,480.547 1682.86,472.818 1685.34,471.379 1689.97,468.386 1697.42,463.896 1698.88,463.053 1700.22,462.294 1710.28,456.811 1712.98,455.164 1719.71,450.714 1723.87,448.143 1730.46,443.774 1752.81,431.028 1758.18,427.811 1763.61,424.283 1776.44,416.739 1779.09,415.281 1786.44,410.8 1801.66,401.389 1812.09,394.906 1827.83,386.24 1831.76,383.874 1833.35,382.942 1833.88,382.637 1848.56,374.621 1849.44,374.16 1853.1,371.973 1871.15,360.951 1878.92,356.133 1880.73,355.068 1890.79,349.439 1893.75,347.859 1907.17,340.994 1908.51,340.207 1911.41,338.293 1926.16,329.482 1931.19,326.729 1938.25,323.016 1947.09,318.539 1956.69,313.108 1965.5,307.777 1966.98,306.921 1977.99,300.095 1982.34,297.606 2003.08,286.687 2013.42,281.601 2020.95,277.384 2026.42,274.467 2027.22,273.974 2034.42,269.729 2043.85,263.836 2049.04,260.836 2051.25,259.405 2073.19,245.543 2078.47,242.207 2084.79,238.466 2094.44,232.412 2095.86,231.447 2101.99,227.49 2104.55,225.92 2109.68,222.483 2112.12,220.932 2118.94,216.805 2119.91,216.243 2124.67,213.155 2141.07,202.571 2141.85,202.045 2146.52,199.017 2147.37,198.406 2155.11,193.198 2169.05,184.938 2179.93,179.113 2195.54,171.276 2226.15,155.183 2232.75,151.972 2241.38,147.179 2246.71,144.358 2259.67,137.796 2283.19,125.143 2283.52,124.976 2290.17,121.667 2296.75,117.933 2308.08,111.085 2310.14,109.916 2315.78,106.822 2327.21,100.863 2327.77,100.578 2327.86,100.533 2330.29,99.3067 2339.7,93.9589 2342.53,92.1811 2348.31,88.7228 2352.76,86.1857 "/>
<polyline clip-path="url(#clip572)" style="stroke:#ac8d18; stroke-linecap:round; stroke-linejoin:round; stroke-width:4; stroke-opacity:1; fill:none" points="140.696,1384.24 140.696,1384.24 149.629,1379.45 150.55,1378.97 158.528,1374.29 162.436,1372.11 169.288,1368.44 170.098,1368.01 193.171,1356.5 198.896,1353.75 198.987,1353.71 201.727,1352.4 203.89,1351.38 204.849,1350.92 206.223,1350.27 215.639,1345.85 219.995,1343.45 223.606,1341.51 231.741,1337.29 252.706,1326.99 254.501,1326.13 257.685,1324.61 279.043,1314.58 280.321,1313.98 291.257,1308.9 295.625,1306.88 305.171,1302.47 305.875,1302.14 316.918,1297.05 317.417,1296.82 319.97,1295.64 326.856,1292.47 328.999,1291.48 330.909,1290.6 333.069,1289.61 337.455,1287.22 343.801,1283.88 343.867,1283.85 347.844,1281.81 355.967,1277.75 375.522,1268.32 386.966,1262.94 391.238,1260.94 404.266,1253.97 429.356,1241.6 432.551,1239.8 433.032,1239.54 440.048,1235.19 442.659,1233.66 444.791,1232.44 449.779,1229.65 454.138,1226.94 456.948,1225.26 459.567,1223.5 460.896,1222.64 465.243,1219.9 473.454,1215.08 479.951,1211.49 480.057,1211.44 496.817,1202.8 508.284,1197.19 510.289,1196.23 511.539,1195.63 517.331,1192.87 522.08,1190.62 533.328,1185.34 536.204,1184 539.812,1182.32 540.437,1182.03 542.363,1181.13 561.483,1172.27 575.466,1165.82 581.192,1163.18 584.158,1161.81 588.876,1159.64 615.108,1147.56 616.333,1147 619.319,1145.37 629.683,1139.93 633.136,1138.18 634.146,1137.67 646.406,1131.64 654.333,1127.22 657.456,1125.55 661.963,1122.81 665.242,1120.9 665.87,1120.54 670.999,1117.67 683.444,1110.23 695.384,1102.93 711.855,1094.02 712.394,1093.7 713.598,1092.87 725.204,1085.51 734.643,1080.16 754.128,1070.07 756.68,1068.81 763.7,1065.39 801.028,1047.79 814.942,1041.34 815.2,1041.22 818.752,1039.58 818.966,1039.46 821.591,1037.8 831.769,1031.02 838.328,1027.08 840.319,1025.93 857.253,1016.83 858.209,1016.26 892.145,998.249 922.381,982.322 925.061,981.009 926.651,980.235 929.213,978.994 953.039,967.696 962.274,963.387 969.941,959.826 973.225,958.024 973.642,957.798 989.079,948.769 990.985,947.735 1000.17,942.218 1020.12,931.546 1020.69,931.207 1029.93,925.937 1040.52,920.315 1044.04,918.513 1051.4,914.831 1053.76,913.672 1058.72,911.252 1077.66,901.057 1085.99,896.876 1090.02,894.56 1103.54,887.274 1105.05,886.492 1106.55,885.594 1109.22,884.021 1110.09,883.444 1114.37,880.677 1142.77,864.899 1148.78,861.885 1153.57,859.527 1165.87,853.595 1181.84,846.06 1184.17,844.968 1185.01,844.575 1185.91,844.154 1191.1,841.738 1191.7,841.458 1192.44,841.113 1198.54,838.28 1199.81,837.692 1211.61,831.389 1218.02,828.126 1222.79,825.353 1223.49,824.959 1233.45,818.791 1234.22,818.344 1239.62,815.279 1240.5,814.792 1260.62,804.321 1292.59,788.979 1313.94,779.037 1327.21,772.898 1333.32,770.081 1333.59,769.954 1353.85,760.614 1357.31,759.02 1358.8,758.336 1359.28,758.115 1360.28,757.563 1363.63,755.461 1393.15,739.342 1404.31,733.85 1411.5,730.388 1416.77,727.88 1419.39,726.636 1422.77,724.756 1423.2,724.516 1430.5,720.611 1434.43,718.573 1441.86,714.822 1448.91,711.346 1450.78,710.437 1457.07,706.898 1466.64,701.808 1471.98,699.076 1478.69,695.728 1489.6,690.418 1495.72,687.492 1502,684.519 1529.07,671.882 1530.91,671.027 1562.41,654.93 1583.01,643.908 1585.73,642.539 1588.99,640.917 1593.48,638.335 1596.15,636.613 1599.62,634.463 1601.39,633.392 1613.94,626.304 1614.59,625.956 1615.07,625.697 1621.51,621.808 1622.42,621.275 1630.42,616.792 1650.31,606.546 1656.16,603.681 1667.74,598.116 1682.86,590.989 1685.34,589.616 1689.97,586.727 1697.42,582.364 1698.88,581.542 1700.22,580.801 1710.28,575.421 1712.98,574.028 1719.71,570.628 1723.87,568.564 1730.46,565.351 1752.81,554.733 1758.18,551.78 1763.61,548.46 1776.44,541.248 1779.09,539.838 1786.44,535.463 1801.66,526.187 1812.09,519.755 1827.83,511.132 1831.76,509.105 1833.35,508.294 1833.88,508.027 1848.56,500.78 1849.44,500.352 1853.1,498.594 1871.15,490.049 1878.92,486.418 1880.73,485.575 1890.79,480.899 1893.75,479.527 1907.17,473.323 1908.51,472.702 1911.41,471.365 1926.16,464.565 1931.19,462.245 1938.25,458.997 1947.09,454.927 1956.69,450.506 1965.5,445.787 1966.98,445.013 1977.99,438.647 1982.34,436.286 2003.08,425.726 2013.42,420.726 2020.95,417.139 2026.42,414.562 2027.22,414.113 2034.42,410.194 2043.85,404.596 2049.04,401.713 2051.25,400.517 2073.19,388.069 2078.47,384.911 2084.79,381.333 2094.44,376.175 2095.86,375.313 2101.99,371.73 2104.55,370.287 2109.68,367.066 2112.12,365.602 2118.94,361.671 2119.91,361.132 2124.67,358.146 2141.07,347.783 2141.85,347.265 2146.52,344.273 2147.37,343.668 2155.11,338.506 2169.05,330.296 2179.93,324.493 2195.54,316.674 2226.15,300.594 2232.75,297.385 2241.38,293.251 2246.71,290.726 2259.67,284.648 2283.19,272.394 2283.52,272.23 2290.17,268.975 2296.75,265.281 2308.08,259.296 2310.14,258.242 2315.78,255.414 2327.21,249.824 2327.77,249.553 2327.86,249.511 2330.29,248.339 2339.7,243.863 2342.53,242.527 2348.31,239.814 2352.76,237.733 "/>
<polyline clip-path="url(#clip572)" style="stroke:#00a9ad; stroke-linecap:round; stroke-linejoin:round; stroke-width:4; stroke-opacity:1; fill:none" points="140.696,1384.24 140.696,1384.24 149.629,1379.45 150.55,1378.89 158.528,1374.23 162.436,1372.06 169.288,1368.4 170.098,1367.91 193.171,1353.82 198.896,1350.75 198.987,1350.7 201.727,1349.27 203.89,1348.15 204.849,1347.66 206.223,1346.96 215.639,1341.56 219.995,1338.83 223.606,1336.66 231.741,1331.42 252.706,1318.45 254.501,1317.46 257.685,1315.73 279.043,1304.86 280.321,1304.24 291.257,1298.97 295.625,1296.89 305.171,1292.39 305.875,1292.06 316.918,1286.9 317.417,1286.67 319.97,1285.26 326.856,1281.58 328.999,1280.28 330.909,1279.14 333.069,1277.88 337.455,1275.39 343.801,1271.94 343.867,1271.9 347.844,1269.14 355.967,1263.31 375.522,1250.35 386.966,1243.13 391.238,1240.66 404.266,1232.69 429.356,1218.09 432.551,1216.15 433.032,1215.87 440.048,1211.28 442.659,1209.67 444.791,1208.39 449.779,1205.5 454.138,1202.71 456.948,1200.75 459.567,1198.99 460.896,1198 465.243,1194.91 473.454,1188.95 479.951,1184.72 480.057,1184.65 496.817,1173.93 508.284,1167.58 510.289,1166.52 511.539,1165.87 517.331,1162.88 522.08,1160.1 533.328,1153.12 536.204,1151.46 539.812,1149.44 540.437,1149.04 542.363,1147.82 561.483,1136.91 575.466,1128.8 581.192,1125.73 584.158,1124.18 588.876,1121.76 615.108,1108.97 616.333,1108.39 619.319,1106.97 629.683,1101.34 633.136,1099.55 634.146,1099.03 646.406,1092.02 654.333,1087.81 657.456,1086.2 661.963,1083.55 665.242,1081.4 665.87,1081 670.999,1077.42 683.444,1068.79 695.384,1061.69 711.855,1052.93 712.394,1052.65 713.598,1052.05 725.204,1045.47 734.643,1040.5 754.128,1029.65 756.68,1028.11 763.7,1024.06 801.028,1005.09 814.942,997.549 815.2,997.415 818.752,995.287 818.966,995.141 821.591,993.166 831.769,986.232 838.328,982.222 840.319,980.884 857.253,969.595 858.209,968.941 892.145,949.494 922.381,934.792 925.061,933.295 926.651,932.422 929.213,931.035 953.039,918.951 962.274,913.808 969.941,909.774 973.225,907.814 973.642,907.531 989.079,898.034 990.985,896.961 1000.17,891.992 1020.12,880.742 1020.69,880.445 1029.93,875.025 1040.52,868.518 1044.04,866.503 1051.4,862.472 1053.76,861.223 1058.72,858.643 1077.66,848.08 1085.99,843.174 1090.02,840.933 1103.54,833.818 1105.05,833.05 1106.55,832.297 1109.22,830.961 1110.09,830.454 1114.37,828 1142.77,813.285 1148.78,810.369 1153.57,807.674 1165.87,801.149 1181.84,793.202 1184.17,792.071 1185.01,791.589 1185.91,791.077 1191.1,788.199 1191.7,787.817 1192.44,787.35 1198.54,783.658 1199.81,782.807 1211.61,775.49 1218.02,771.353 1222.79,768.47 1223.49,768.061 1233.45,761.731 1234.22,761.205 1239.62,757.654 1240.5,757.099 1260.62,744.396 1292.59,727.897 1313.94,717.732 1327.21,710.611 1333.32,707.505 1333.59,707.342 1353.85,696.253 1357.31,694.489 1358.8,693.74 1359.28,693.455 1360.28,692.865 1363.63,690.931 1393.15,674.07 1404.31,668.473 1411.5,664.966 1416.77,662.001 1419.39,660.568 1422.77,658.761 1423.2,658.531 1430.5,654.75 1434.43,652.765 1441.86,649.089 1448.91,645.666 1450.78,644.769 1457.07,641.262 1466.64,636.205 1471.98,633.487 1478.69,630.151 1489.6,624.856 1495.72,621.443 1502,617.589 1529.07,603.048 1530.91,601.966 1562.41,583.884 1583.01,572.477 1585.73,571.078 1588.99,569.426 1593.48,567.183 1596.15,565.633 1599.62,563.676 1601.39,562.536 1613.94,555.091 1614.59,554.672 1615.07,554.36 1621.51,549.869 1622.42,549.264 1630.42,544.262 1650.31,533.305 1656.16,529.854 1667.74,523.497 1682.86,515.798 1685.34,514.578 1689.97,511.935 1697.42,507.874 1698.88,507.1 1700.22,506.399 1710.28,501.263 1712.98,499.685 1719.71,495.376 1723.87,492.872 1730.46,488.587 1752.81,475.997 1758.18,473.238 1763.61,470.516 1776.44,464.252 1779.09,462.979 1786.44,458.907 1801.66,451.03 1812.09,445.897 1827.83,438.376 1831.76,436.191 1833.35,435.324 1833.88,435.039 1848.56,427.433 1849.44,426.989 1853.1,424.866 1871.15,414.043 1878.92,409.271 1880.73,408.215 1890.79,402.624 1893.75,401.052 1907.17,394.214 1908.51,393.428 1911.41,391.518 1926.16,382.719 1931.19,379.969 1938.25,376.26 1947.09,371.785 1956.69,366.356 1965.5,361.025 1966.98,360.17 1977.99,354.143 1982.34,351.876 2003.08,341.581 2013.42,336.645 2020.95,332.502 2026.42,329.624 2027.22,329.136 2034.42,324.929 2043.85,319.07 2049.04,316.084 2051.25,314.657 2073.19,300.825 2078.47,297.925 2084.79,294.586 2094.44,288.963 2095.86,288.048 2101.99,284.271 2104.55,282.763 2109.68,279.429 2112.12,277.92 2118.94,273.887 2119.91,273.336 2124.67,270.691 2141.07,262.145 2141.85,261.754 2146.52,259.441 2147.37,258.945 2155.11,254.604 2169.05,247.315 2179.93,241.92 2195.54,234.428 2226.15,220.119 2232.75,217.063 2241.38,212.414 2246.71,209.658 2259.67,203.202 2283.19,190.636 2283.52,190.47 2290.17,187.173 2296.75,183.971 2308.08,177.741 2310.14,176.655 2315.78,173.751 2327.21,168.057 2327.77,167.781 2327.86,167.738 2330.29,166.551 2339.7,161.322 2342.53,159.571 2348.31,156.158 2352.76,153.648 "/>
<polyline clip-path="url(#clip572)" style="stroke:#ed5d92; stroke-linecap:round; stroke-linejoin:round; stroke-width:4; stroke-opacity:1; fill:none" points="140.696,1384.24 140.696,1384.24 149.629,1380.13 150.55,1379.7 158.528,1376.03 162.436,1374.24 169.288,1371.08 170.098,1370.71 193.171,1360.1 198.896,1357.46 198.987,1357.42 201.727,1356.16 203.89,1355.17 204.849,1354.73 206.223,1354.09 215.639,1349.76 219.995,1347.76 223.606,1346.1 231.741,1342.35 252.706,1332.71 254.501,1331.88 257.685,1330.15 279.043,1319.23 280.321,1318.49 291.257,1312.45 295.625,1310.16 305.171,1305.32 305.875,1304.97 316.918,1299.57 317.417,1299.33 319.97,1298.1 326.856,1294.82 328.999,1293.8 330.909,1292.9 333.069,1291.88 337.455,1289.82 343.801,1286.35 343.867,1286.31 347.844,1284.21 355.967,1280.04 375.522,1270.47 386.966,1265.04 391.238,1263.04 404.266,1256.95 429.356,1245.34 432.551,1243.86 433.032,1243.64 440.048,1240.4 442.659,1239.2 444.791,1238.22 449.779,1235.92 454.138,1233.91 456.948,1232.62 459.567,1231.41 460.896,1230.8 465.243,1228.8 473.454,1225.02 479.951,1222.03 480.057,1221.97 496.817,1213.18 508.284,1207.52 510.289,1206.54 511.539,1205.94 517.331,1202.69 522.08,1200.13 533.328,1194.33 536.204,1192.89 539.812,1191.1 540.437,1190.8 542.363,1189.85 561.483,1180.69 575.466,1174.13 581.192,1171.46 584.158,1170.09 588.876,1167.9 615.108,1155.77 616.333,1155.21 619.319,1153.83 629.683,1149.06 633.136,1147.47 634.146,1147 646.406,1141.36 654.333,1137.71 657.456,1136.27 661.963,1134.2 665.242,1132.69 665.87,1132.34 670.999,1129.57 683.444,1123.17 695.384,1117.3 711.855,1109.45 712.394,1109.19 713.598,1108.63 725.204,1103.19 734.643,1098.8 754.128,1089.79 756.68,1088.61 763.7,1085.37 801.028,1068.18 814.942,1061.77 815.2,1061.65 818.752,1060.02 818.966,1059.92 821.591,1058.71 831.769,1054.03 838.328,1051.01 840.319,1050.1 857.253,1042.31 858.209,1041.87 892.145,1026.26 922.381,1012.35 925.061,1011.11 926.651,1010.38 929.213,1009.2 953.039,998.241 962.274,993.993 969.941,990.466 973.225,988.955 973.642,988.763 989.079,981.662 990.985,980.785 1000.17,976.558 1020.12,967.381 1020.69,967.12 1029.93,962.87 1040.52,957.998 1044.04,956.376 1051.4,952.99 1053.76,951.907 1058.72,949.623 1077.66,940.912 1085.99,937.077 1090.02,935.226 1103.54,929.007 1105.05,928.309 1106.55,927.622 1109.22,926.392 1110.09,925.994 1114.37,923.667 1142.77,909.38 1148.78,906.503 1153.57,904.23 1165.87,898.448 1181.84,891.019 1184.17,889.732 1185.01,889.274 1185.91,888.706 1191.1,885.544 1191.7,885.187 1192.44,884.752 1198.54,881.277 1199.81,880.577 1211.61,874.325 1218.02,871.081 1222.79,868.714 1223.49,868.372 1233.45,863.537 1234.22,863.17 1239.62,860.596 1240.5,860.179 1260.62,850.731 1292.59,834.359 1313.94,824.218 1327.21,818.024 1333.32,815.191 1333.59,815.063 1353.85,805.693 1357.31,804.096 1358.8,803.411 1359.28,803.19 1360.28,802.727 1363.63,801.182 1393.15,787.585 1404.31,782.453 1411.5,779.143 1416.77,776.719 1419.39,775.51 1422.77,773.957 1423.2,773.757 1430.5,770.4 1434.43,768.591 1441.86,765.176 1448.91,761.93 1450.78,761.071 1457.07,758.177 1466.64,753.776 1471.98,751.317 1478.69,748.232 1489.6,743.211 1495.72,740.395 1502,737.508 1529.07,725.055 1530.91,724.206 1562.41,709.714 1583.01,700.239 1585.73,698.987 1588.99,697.487 1593.48,695.422 1596.15,694.193 1599.62,692.599 1601.39,691.782 1613.94,686.009 1614.59,685.712 1615.07,685.445 1621.51,681.981 1622.42,681.5 1630.42,677.385 1650.31,667.641 1656.16,664.857 1667.74,658.57 1682.86,650.921 1685.34,649.706 1689.97,647.457 1697.42,643.88 1698.88,643.184 1700.22,642.43 1710.28,636.983 1712.98,635.576 1719.71,632.149 1723.87,629.723 1730.46,626.058 1752.81,614.608 1758.18,611.992 1763.61,609.381 1776.44,603.295 1779.09,601.818 1786.44,597.868 1801.66,590.145 1812.09,585.07 1827.83,577.599 1831.76,575.753 1833.35,575.008 1833.88,574.761 1848.56,567.926 1849.44,567.515 1853.1,565.821 1871.15,557.477 1878.92,553.893 1880.73,553.058 1890.79,548.421 1893.75,547.057 1907.17,540.879 1908.51,540.26 1911.41,538.927 1926.16,531.147 1931.19,528.616 1938.25,525.142 1947.09,520.873 1956.69,516.311 1965.5,512.174 1966.98,511.345 1977.99,505.468 1982.34,503.243 2003.08,493.065 2013.42,487.397 2020.95,483.486 2026.42,480.733 2027.22,480.334 2034.42,476.792 2043.85,472.244 2049.04,469.774 2051.25,468.727 2073.19,458.457 2078.47,456.005 2084.79,453.079 2094.44,448.62 2095.86,447.964 2101.99,445.134 2104.55,443.727 2109.68,440.988 2112.12,439.715 2118.94,436.225 2119.91,435.739 2124.67,433.372 2141.07,425.434 2141.85,425.063 2146.52,422.852 2147.37,422.449 2155.11,418.811 2169.05,412.309 2179.93,406.471 2195.54,398.625 2226.15,384.056 2232.75,380.978 2241.38,376.966 2246.71,374.06 2259.67,367.36 2283.19,355.929 2283.52,355.771 2290.17,352.628 2296.75,349.54 2308.08,344.258 2310.14,343.117 2315.78,339.629 2327.21,333.12 2327.77,332.814 2327.86,332.766 2330.29,331.245 2339.7,325.724 2342.53,324.152 2348.31,321.039 2352.76,318.714 "/>
<polyline clip-path="url(#clip572)" style="stroke:#c68125; stroke-linecap:round; stroke-linejoin:round; stroke-width:4; stroke-opacity:1; fill:none" points="140.696,1384.24 140.696,1384.24 149.629,1380.13 150.55,1379.7 158.528,1376.03 162.436,1374.24 169.288,1370.54 170.098,1370.12 193.171,1358.56 198.896,1355.35 198.987,1355.29 201.727,1353.57 203.89,1352.24 204.849,1351.67 206.223,1350.85 215.639,1345.52 219.995,1343.18 223.606,1341.28 231.741,1337.13 252.706,1326.92 254.501,1325.91 257.685,1324.15 279.043,1313.14 280.321,1312.51 291.257,1307.21 295.625,1304.76 305.171,1299.66 305.875,1299.23 316.918,1292.87 317.417,1292.55 319.97,1290.95 326.856,1286.84 328.999,1285.62 330.909,1284.55 333.069,1283.17 337.455,1280.47 343.801,1276.77 343.867,1276.73 347.844,1274.52 355.967,1270.18 375.522,1260.39 386.966,1254.9 391.238,1252.87 404.266,1246.76 429.356,1235.11 432.551,1233.63 433.032,1233.41 440.048,1230.17 442.659,1228.97 444.791,1227.98 449.779,1225.68 454.138,1223.67 456.948,1222.38 459.567,1221.17 460.896,1220.56 465.243,1218.2 473.454,1213.9 479.951,1210.09 480.057,1210.03 496.817,1201.06 508.284,1194.5 510.289,1193.42 511.539,1192.63 517.331,1189.15 522.08,1186.44 533.328,1180.38 536.204,1178.89 539.812,1177.06 540.437,1176.74 542.363,1175.77 561.483,1165.28 575.466,1158.27 581.192,1155.48 584.158,1154.05 588.876,1151.8 615.108,1138.06 616.333,1137.46 619.319,1135.99 629.683,1131 633.136,1129.06 634.146,1128.5 646.406,1122.02 654.333,1118.03 657.456,1116.49 661.963,1114.28 665.242,1112.7 665.87,1112.4 670.999,1109.94 683.444,1104.05 695.384,1098.47 711.855,1090.82 712.394,1090.57 713.598,1090.02 725.204,1084.65 734.643,1080.3 754.128,1071.32 756.68,1070.15 763.7,1066.36 801.028,1047.97 814.942,1041.44 815.2,1041.3 818.752,1039.34 818.966,1039.23 821.591,1037.81 831.769,1032.53 838.328,1028.73 840.319,1027.62 857.253,1018.71 858.209,1018.23 892.145,1000.28 922.381,985.887 925.061,984.635 926.651,983.893 929.213,982.7 953.039,971.658 962.274,967.395 969.941,963.86 973.225,962.347 973.642,962.154 989.079,955.044 990.985,954.167 1000.17,949.938 1020.12,940.758 1020.69,940.497 1029.93,936.245 1040.52,931.373 1044.04,929.451 1051.4,924.997 1053.76,923.434 1058.72,920.291 1077.66,909.611 1085.99,905.317 1090.02,903.299 1103.54,895.764 1105.05,894.828 1106.55,893.921 1109.22,892.101 1110.09,891.527 1114.37,888.78 1142.77,873.066 1148.78,869.574 1153.57,866.916 1165.87,859.586 1181.84,850.033 1184.17,848.749 1185.01,848.292 1185.91,847.805 1191.1,844.631 1191.7,844.273 1192.44,843.835 1198.54,840.35 1199.81,839.648 1211.61,833.382 1218.02,830.133 1222.79,827.764 1223.49,827.422 1233.45,822.583 1234.22,822.215 1239.62,819.639 1240.5,819.222 1260.62,809.771 1292.59,794.958 1313.94,785.118 1327.21,779.008 1333.32,775.708 1333.59,775.562 1353.85,764.095 1357.31,762.294 1358.8,761.532 1359.28,761.286 1360.28,760.775 1363.63,759.082 1393.15,744.816 1404.31,738.782 1411.5,735.089 1416.77,732.453 1419.39,730.928 1422.77,729.02 1423.2,728.738 1430.5,723.653 1434.43,720.791 1441.86,715.83 1448.91,710.967 1450.78,709.76 1457.07,705.884 1466.64,700.432 1471.98,697.557 1478.69,693.538 1489.6,687.49 1495.72,684.283 1502,681.092 1529.07,667.984 1530.91,667.113 1562.41,652.429 1583.01,642.917 1585.73,641.661 1588.99,639.88 1593.48,637.488 1596.15,636.094 1599.62,634.313 1601.39,633.411 1613.94,627.197 1614.59,626.883 1615.07,626.648 1621.51,623.548 1622.42,623.11 1630.42,619.31 1650.31,609.996 1656.16,607.281 1667.74,601.918 1682.86,593.926 1685.34,592.675 1689.97,590.366 1697.42,586.716 1698.88,586.008 1700.22,585.364 1710.28,579.814 1712.98,578.388 1719.71,574.919 1723.87,572.822 1730.46,569.568 1752.81,558.873 1758.18,556.35 1763.61,553.814 1776.44,547.846 1779.09,546.615 1786.44,543.214 1801.66,536.186 1812.09,531.377 1827.83,524.13 1831.76,522.319 1833.35,521.445 1833.88,521.158 1848.56,512.515 1849.44,511.949 1853.1,509.676 1871.15,499.526 1878.92,495.516 1880.73,494.602 1890.79,489.623 1893.75,487.93 1907.17,479.776 1908.51,479.017 1911.41,477.41 1926.16,469.666 1931.19,467.143 1938.25,463.12 1947.09,457.699 1956.69,452.307 1965.5,447.669 1966.98,446.905 1977.99,441.399 1982.34,439.276 2003.08,429.387 2013.42,424.549 2020.95,421.041 2026.42,418.061 2027.22,417.632 2034.42,413.873 2043.85,409.127 2049.04,406.579 2051.25,405.504 2073.19,395.066 2078.47,392.592 2084.79,389.647 2094.44,385.167 2095.86,384.509 2101.99,381.177 2104.55,379.821 2109.68,377.167 2112.12,375.717 2118.94,371.278 2119.91,370.679 2124.67,367.826 2141.07,358.824 2141.85,358.419 2146.52,356.029 2147.37,355.598 2155.11,351.744 2169.05,344.999 2179.93,339.846 2195.54,332.547 2226.15,318.381 2232.75,315.337 2241.38,311.358 2246.71,308.903 2259.67,302.938 2283.19,292.114 2283.52,291.961 2290.17,288.9 2296.75,285.873 2308.08,280.661 2310.14,279.71 2315.78,277.119 2327.21,271.039 2327.77,270.697 2327.86,270.636 2330.29,268.974 2339.7,263.033 2342.53,261.365 2348.31,258.091 2352.76,255.668 "/>
<polyline clip-path="url(#clip572)" style="stroke:#00a98d; stroke-linecap:round; stroke-linejoin:round; stroke-width:4; stroke-opacity:1; fill:none" points="140.696,1384.24 140.696,1384.24 149.629,1380.13 150.55,1379.7 158.528,1376.03 162.436,1373.91 169.288,1370.3 170.098,1369.88 193.171,1358.48 198.896,1355.75 198.987,1355.71 201.727,1354.17 203.89,1352.79 204.849,1352.19 206.223,1351.22 215.639,1345.05 219.995,1342.43 223.606,1340.34 231.741,1335.85 252.706,1325.18 254.501,1324.3 257.685,1322.75 279.043,1312.6 280.321,1312 291.257,1306.9 295.625,1304.87 305.171,1299.73 305.875,1299.36 316.918,1292.95 317.417,1292.68 319.97,1291.28 326.856,1287.63 328.999,1286.53 330.909,1285.38 333.069,1284.11 337.455,1281.61 343.801,1278.14 343.867,1278.1 347.844,1276 355.967,1271.84 375.522,1262.27 386.966,1256.85 391.238,1254.84 404.266,1248.76 429.356,1237.14 432.551,1235.67 433.032,1235.45 440.048,1232.21 442.659,1231.01 444.791,1229.84 449.779,1227.17 454.138,1224.89 456.948,1223.45 459.567,1222.13 460.896,1221.46 465.243,1219.3 473.454,1215.29 479.951,1212.17 480.057,1212.12 496.817,1204.21 508.284,1198.86 510.289,1197.93 511.539,1197.35 517.331,1194.66 522.08,1192.46 533.328,1187.26 536.204,1185.94 539.812,1184.27 540.437,1183.98 542.363,1183.09 561.483,1174.29 575.466,1167.85 581.192,1165.21 584.158,1163.85 588.876,1161.68 615.108,1149.61 616.333,1149.04 619.319,1147.67 629.683,1142.9 633.136,1141.31 634.146,1140.85 646.406,1135.21 654.333,1131.56 657.456,1130.12 661.963,1128.05 665.242,1126.54 665.87,1126.25 670.999,1123.89 683.444,1118.17 695.384,1112.68 711.855,1104.03 712.394,1103.76 713.598,1103.15 725.204,1097.45 734.643,1092.92 754.128,1083.75 756.68,1082.56 763.7,1079.3 801.028,1062.05 814.942,1055.64 815.2,1055.52 818.752,1053.88 818.966,1053.78 821.591,1052.58 831.769,1047.89 838.328,1044.87 840.319,1043.96 857.253,1036.16 858.209,1035.72 892.145,1020.11 922.381,1006.2 925.061,1004.97 926.651,1004.24 929.213,1002.84 953.039,990.675 962.274,986.214 969.941,982.566 973.225,981.015 973.642,980.819 989.079,973.593 990.985,972.538 1000.17,967.637 1020.12,957.679 1020.69,957.404 1029.93,952.976 1040.52,947.973 1044.04,946.319 1051.4,942.882 1053.76,941.785 1058.72,939.477 1077.66,930.712 1085.99,926.864 1090.02,925.008 1103.54,918.779 1105.05,918.081 1106.55,917.392 1109.22,916.161 1110.09,915.763 1114.37,913.792 1142.77,899.241 1148.78,896.34 1153.57,894.052 1165.87,888.244 1181.84,880.796 1184.17,879.712 1185.01,879.321 1185.91,878.904 1191.1,876.502 1191.7,876.223 1192.44,875.879 1198.54,873.059 1199.81,872.473 1211.61,867.027 1218.02,864.072 1222.79,861.872 1223.49,861.489 1233.45,856.181 1234.22,855.786 1239.62,853.037 1240.5,852.596 1260.62,842.785 1292.59,827.786 1313.94,817.91 1327.21,811.79 1333.32,808.978 1333.59,808.851 1353.85,799.521 1357.31,797.928 1358.8,797.245 1359.28,797.024 1360.28,796.562 1363.63,795.02 1393.15,781.436 1404.31,776.306 1411.5,772.996 1416.77,770.573 1419.39,769.365 1422.77,767.812 1423.2,767.611 1430.5,764.254 1434.43,762.446 1441.86,759.031 1448.91,755.785 1450.78,754.927 1457.07,752.032 1466.64,747.631 1471.98,745.173 1478.69,742.087 1489.6,736.273 1495.72,733.156 1502,730.034 1529.07,717.075 1530.91,716.21 1562.41,701.57 1583.01,692.066 1585.73,690.811 1588.99,689.309 1593.48,687.241 1596.15,686.011 1599.62,684.416 1601.39,683.598 1613.94,677.822 1614.59,677.524 1615.07,677.301 1621.51,674.339 1622.42,673.918 1630.42,669.619 1650.31,658.413 1656.16,655.395 1667.74,649.623 1682.86,642.346 1685.34,641.172 1689.97,638.986 1697.42,635.489 1698.88,634.805 1700.22,634.182 1710.28,629.499 1712.98,628.246 1719.71,625.128 1723.87,623.201 1730.46,620.157 1752.81,608.553 1758.18,605.917 1763.61,603.292 1776.44,596.285 1779.09,594.905 1786.44,591.171 1801.66,583.721 1812.09,578.752 1827.83,570.331 1831.76,568.335 1833.35,567.536 1833.88,567.273 1848.56,560.098 1849.44,559.672 1853.1,557.926 1871.15,549.416 1878.92,545.793 1880.73,544.792 1890.79,539.436 1893.75,537.916 1907.17,531.24 1908.51,530.586 1911.41,529.184 1926.16,522.155 1931.19,519.372 1938.25,515.627 1947.09,511.12 1956.69,506.387 1965.5,502.146 1966.98,501.436 1977.99,496.229 1982.34,494.19 2003.08,484.534 2013.42,479.752 2020.95,476.272 2026.42,473.752 2027.22,473.382 2034.42,470.064 2043.85,465.717 2049.04,463.327 2051.25,462.309 2073.19,452.21 2078.47,449.78 2084.79,446.874 2094.44,442.436 2095.86,441.782 2101.99,438.961 2104.55,437.781 2109.68,435.422 2112.12,434.302 2118.94,431.16 2119.91,430.715 2124.67,428.526 2141.07,420.98 2141.85,420.621 2146.52,418.475 2147.37,418.083 2155.11,414.524 2169.05,407.157 2179.93,401.728 2195.54,394.208 2226.15,379.879 2232.75,376.821 2241.38,372.829 2246.71,370.368 2259.67,364.393 2283.19,353.561 2283.52,353.378 2290.17,349.266 2296.75,345.466 2308.08,339.358 2310.14,338.288 2315.78,335.422 2327.21,329.78 2327.77,329.506 2327.86,329.464 2330.29,328.284 2339.7,323.784 2342.53,322.444 2348.31,319.254 2352.76,316.881 "/>
<polyline clip-path="url(#clip572)" style="stroke:#8e971d; stroke-linecap:round; stroke-linejoin:round; stroke-width:4; stroke-opacity:1; fill:none" points="140.696,1384.24 140.696,1384.24 149.629,1379.45 150.55,1378.89 158.528,1374.23 162.436,1372.06 169.288,1368.4 170.098,1367.91 193.171,1353.82 198.896,1350.75 198.987,1350.7 201.727,1349.27 203.89,1348.15 204.849,1347.66 206.223,1346.96 215.639,1341.56 219.995,1338.83 223.606,1336.66 231.741,1331.42 252.706,1318.45 254.501,1317.46 257.685,1315.73 279.043,1304.86 280.321,1304.24 291.257,1298.97 295.625,1296.89 305.171,1292.39 305.875,1292.06 316.918,1286.9 317.417,1286.67 319.97,1285.26 326.856,1281.58 328.999,1280.28 330.909,1279.14 333.069,1277.88 337.455,1275.39 343.801,1271.94 343.867,1271.9 347.844,1269.14 355.967,1263.31 375.522,1250.35 386.966,1243.13 391.238,1240.66 404.266,1232.69 429.356,1218.09 432.551,1216.15 433.032,1215.87 440.048,1211.28 442.659,1209.67 444.791,1208.39 449.779,1205.5 454.138,1202.71 456.948,1200.75 459.567,1198.99 460.896,1198 465.243,1194.91 473.454,1188.95 479.951,1184.72 480.057,1184.65 496.817,1173.93 508.284,1167.58 510.289,1166.52 511.539,1165.87 517.331,1162.88 522.08,1160.1 533.328,1153.12 536.204,1151.46 539.812,1149.44 540.437,1149.04 542.363,1147.82 561.483,1136.91 575.466,1128.8 581.192,1125.73 584.158,1124.18 588.876,1121.76 615.108,1108.97 616.333,1108.39 619.319,1106.97 629.683,1101.34 633.136,1099.55 634.146,1099.03 646.406,1092.02 654.333,1087.81 657.456,1086.2 661.963,1083.55 665.242,1081.4 665.87,1081 670.999,1077.42 683.444,1068.79 695.384,1061.69 711.855,1052.93 712.394,1052.65 713.598,1052.05 725.204,1045.47 734.643,1040.5 754.128,1029.65 756.68,1028.11 763.7,1024.06 801.028,1005.09 814.942,997.549 815.2,997.415 818.752,995.287 818.966,995.141 821.591,993.166 831.769,986.232 838.328,982.222 840.319,980.884 857.253,969.595 858.209,968.941 892.145,949.494 922.381,934.792 925.061,933.295 926.651,932.422 929.213,931.035 953.039,918.951 962.274,913.808 969.941,909.774 973.225,907.814 973.642,907.531 989.079,898.034 990.985,896.961 1000.17,891.992 1020.12,880.742 1020.69,880.445 1029.93,875.025 1040.52,868.518 1044.04,866.503 1051.4,862.472 1053.76,861.223 1058.72,858.643 1077.66,848.08 1085.99,843.174 1090.02,840.933 1103.54,833.818 1105.05,833.05 1106.55,832.297 1109.22,830.961 1110.09,830.454 1114.37,828 1142.77,813.285 1148.78,810.369 1153.57,807.674 1165.87,801.149 1181.84,793.202 1184.17,792.071 1185.01,791.589 1185.91,791.077 1191.1,788.199 1191.7,787.817 1192.44,787.35 1198.54,783.658 1199.81,782.807 1211.61,775.49 1218.02,771.353 1222.79,768.47 1223.49,768.061 1233.45,761.731 1234.22,761.205 1239.62,757.654 1240.5,757.099 1260.62,744.396 1292.59,727.897 1313.94,717.732 1327.21,710.611 1333.32,707.505 1333.59,707.342 1353.85,696.253 1357.31,694.489 1358.8,693.74 1359.28,693.455 1360.28,692.865 1363.63,690.931 1393.15,674.07 1404.31,668.473 1411.5,664.966 1416.77,662.001 1419.39,660.568 1422.77,658.761 1423.2,658.531 1430.5,654.75 1434.43,652.765 1441.86,649.089 1448.91,645.666 1450.78,644.769 1457.07,641.262 1466.64,636.205 1471.98,633.487 1478.69,630.151 1489.6,624.856 1495.72,621.443 1502,617.589 1529.07,603.048 1530.91,601.966 1562.41,583.884 1583.01,572.477 1585.73,571.078 1588.99,569.426 1593.48,567.183 1596.15,565.633 1599.62,563.676 1601.39,562.536 1613.94,555.091 1614.59,554.672 1615.07,554.36 1621.51,549.869 1622.42,549.264 1630.42,544.262 1650.31,533.305 1656.16,529.854 1667.74,523.497 1682.86,515.798 1685.34,514.578 1689.97,511.935 1697.42,507.874 1698.88,507.1 1700.22,506.399 1710.28,501.263 1712.98,499.685 1719.71,495.376 1723.87,492.872 1730.46,488.587 1752.81,475.997 1758.18,473.238 1763.61,470.516 1776.44,464.252 1779.09,462.979 1786.44,458.907 1801.66,451.03 1812.09,445.897 1827.83,438.376 1831.76,436.191 1833.35,435.324 1833.88,435.039 1848.56,427.433 1849.44,426.989 1853.1,424.866 1871.15,414.043 1878.92,409.271 1880.73,408.215 1890.79,402.624 1893.75,401.052 1907.17,394.214 1908.51,393.428 1911.41,391.518 1926.16,382.719 1931.19,379.969 1938.25,376.26 1947.09,371.785 1956.69,366.356 1965.5,361.025 1966.98,360.17 1977.99,354.143 1982.34,351.876 2003.08,341.581 2013.42,336.645 2020.95,332.502 2026.42,329.624 2027.22,329.136 2034.42,324.929 2043.85,319.07 2049.04,316.084 2051.25,314.657 2073.19,300.825 2078.47,297.925 2084.79,294.586 2094.44,288.963 2095.86,288.048 2101.99,284.271 2104.55,282.763 2109.68,279.429 2112.12,277.92 2118.94,273.887 2119.91,273.336 2124.67,270.691 2141.07,262.145 2141.85,261.754 2146.52,259.441 2147.37,258.945 2155.11,254.604 2169.05,247.315 2179.93,241.92 2195.54,234.428 2226.15,220.119 2232.75,217.063 2241.38,212.414 2246.71,209.658 2259.67,203.202 2283.19,190.636 2283.52,190.47 2290.17,187.173 2296.75,183.971 2308.08,177.741 2310.14,176.655 2315.78,173.751 2327.21,168.057 2327.77,167.781 2327.86,167.738 2330.29,166.551 2339.7,161.322 2342.53,159.571 2348.31,156.158 2352.76,153.648 "/>
<path clip-path="url(#clip570)" d="M214.431 663.349 L554.896 663.349 L554.896 93.1086 L214.431 93.1086  Z" fill="#ffffff" fill-rule="evenodd" fill-opacity="1"/>
<polyline clip-path="url(#clip570)" style="stroke:#000000; stroke-linecap:round; stroke-linejoin:round; stroke-width:4; stroke-opacity:1; fill:none" points="214.431,663.349 554.896,663.349 554.896,93.1086 214.431,93.1086 214.431,663.349 "/>
<polyline clip-path="url(#clip570)" style="stroke:#009af9; stroke-linecap:round; stroke-linejoin:round; stroke-width:4; stroke-opacity:1; fill:none" points="239.009,144.949 386.48,144.949 "/>
<path clip-path="url(#clip570)" d="M411.058 151.997 L411.058 136.303 L415.318 136.303 L415.318 151.835 Q415.318 155.516 416.753 157.368 Q418.188 159.196 421.058 159.196 Q424.507 159.196 426.498 156.997 Q428.512 154.798 428.512 151.002 L428.512 136.303 L432.771 136.303 L432.771 162.229 L428.512 162.229 L428.512 158.247 Q426.961 160.608 424.901 161.766 Q422.864 162.9 420.156 162.9 Q415.688 162.9 413.373 160.122 Q411.058 157.344 411.058 151.997 M421.776 135.678 L421.776 135.678 Z" fill="#000000" fill-rule="nonzero" fill-opacity="1" /><path clip-path="url(#clip570)" d="M441.151 126.21 L450.966 126.21 L450.966 129.52 L445.41 129.52 L445.41 165.168 L450.966 165.168 L450.966 168.479 L441.151 168.479 L441.151 126.21 Z" fill="#000000" fill-rule="nonzero" fill-opacity="1" /><path clip-path="url(#clip570)" d="M461.452 158.293 L469.091 158.293 L469.091 131.928 L460.78 133.595 L460.78 129.335 L469.044 127.669 L473.72 127.669 L473.72 158.293 L481.359 158.293 L481.359 162.229 L461.452 162.229 L461.452 158.293 Z" fill="#000000" fill-rule="nonzero" fill-opacity="1" /><path clip-path="url(#clip570)" d="M500.155 126.21 L500.155 168.479 L490.34 168.479 L490.34 165.168 L495.873 165.168 L495.873 129.52 L490.34 129.52 L490.34 126.21 L500.155 126.21 Z" fill="#000000" fill-rule="nonzero" fill-opacity="1" /><polyline clip-path="url(#clip570)" style="stroke:#e26f46; stroke-linecap:round; stroke-linejoin:round; stroke-width:4; stroke-opacity:1; fill:none" points="239.009,196.789 386.48,196.789 "/>
<path clip-path="url(#clip570)" d="M411.058 203.837 L411.058 188.143 L415.318 188.143 L415.318 203.675 Q415.318 207.356 416.753 209.208 Q418.188 211.036 421.058 211.036 Q424.507 211.036 426.498 208.837 Q428.512 206.638 428.512 202.842 L428.512 188.143 L432.771 188.143 L432.771 214.069 L428.512 214.069 L428.512 210.087 Q426.961 212.448 424.901 213.606 Q422.864 214.74 420.156 214.74 Q415.688 214.74 413.373 211.962 Q411.058 209.184 411.058 203.837 M421.776 187.518 L421.776 187.518 Z" fill="#000000" fill-rule="nonzero" fill-opacity="1" /><path clip-path="url(#clip570)" d="M441.151 178.05 L450.966 178.05 L450.966 181.36 L445.41 181.36 L445.41 217.008 L450.966 217.008 L450.966 220.319 L441.151 220.319 L441.151 178.05 Z" fill="#000000" fill-rule="nonzero" fill-opacity="1" /><path clip-path="url(#clip570)" d="M464.669 210.133 L480.989 210.133 L480.989 214.069 L459.044 214.069 L459.044 210.133 Q461.706 207.379 466.29 202.749 Q470.896 198.096 472.077 196.754 Q474.322 194.231 475.202 192.495 Q476.104 190.735 476.104 189.046 Q476.104 186.291 474.16 184.555 Q472.239 182.819 469.137 182.819 Q466.938 182.819 464.484 183.583 Q462.054 184.347 459.276 185.897 L459.276 181.175 Q462.1 180.041 464.554 179.462 Q467.007 178.884 469.044 178.884 Q474.415 178.884 477.609 181.569 Q480.803 184.254 480.803 188.745 Q480.803 190.874 479.993 192.796 Q479.206 194.694 477.1 197.286 Q476.521 197.958 473.419 201.175 Q470.317 204.37 464.669 210.133 Z" fill="#000000" fill-rule="nonzero" fill-opacity="1" /><path clip-path="url(#clip570)" d="M500.155 178.05 L500.155 220.319 L490.34 220.319 L490.34 217.008 L495.873 217.008 L495.873 181.36 L490.34 181.36 L490.34 178.05 L500.155 178.05 Z" fill="#000000" fill-rule="nonzero" fill-opacity="1" /><polyline clip-path="url(#clip570)" style="stroke:#3da44d; stroke-linecap:round; stroke-linejoin:round; stroke-width:4; stroke-opacity:1; fill:none" points="239.009,248.629 386.48,248.629 "/>
<path clip-path="url(#clip570)" d="M411.058 255.677 L411.058 239.983 L415.318 239.983 L415.318 255.515 Q415.318 259.196 416.753 261.048 Q418.188 262.876 421.058 262.876 Q424.507 262.876 426.498 260.677 Q428.512 258.478 428.512 254.682 L428.512 239.983 L432.771 239.983 L432.771 265.909 L428.512 265.909 L428.512 261.927 Q426.961 264.288 424.901 265.446 Q422.864 266.58 420.156 266.58 Q415.688 266.58 413.373 263.802 Q411.058 261.024 411.058 255.677 M421.776 239.358 L421.776 239.358 Z" fill="#000000" fill-rule="nonzero" fill-opacity="1" /><path clip-path="url(#clip570)" d="M441.151 229.89 L450.966 229.89 L450.966 233.2 L445.41 233.2 L445.41 268.848 L450.966 268.848 L450.966 272.159 L441.151 272.159 L441.151 229.89 Z" fill="#000000" fill-rule="nonzero" fill-opacity="1" /><path clip-path="url(#clip570)" d="M474.808 247.274 Q478.165 247.992 480.04 250.261 Q481.938 252.529 481.938 255.862 Q481.938 260.978 478.419 263.779 Q474.901 266.58 468.419 266.58 Q466.243 266.58 463.929 266.14 Q461.637 265.723 459.183 264.867 L459.183 260.353 Q461.128 261.487 463.442 262.066 Q465.757 262.645 468.28 262.645 Q472.679 262.645 474.97 260.909 Q477.285 259.173 477.285 255.862 Q477.285 252.807 475.132 251.094 Q473.003 249.358 469.183 249.358 L465.155 249.358 L465.155 245.515 L469.368 245.515 Q472.817 245.515 474.646 244.149 Q476.475 242.761 476.475 240.168 Q476.475 237.506 474.577 236.094 Q472.702 234.659 469.183 234.659 Q467.262 234.659 465.063 235.075 Q462.864 235.492 460.225 236.372 L460.225 232.205 Q462.887 231.464 465.202 231.094 Q467.54 230.724 469.6 230.724 Q474.924 230.724 478.026 233.154 Q481.128 235.562 481.128 239.682 Q481.128 242.552 479.484 244.543 Q477.841 246.511 474.808 247.274 Z" fill="#000000" fill-rule="nonzero" fill-opacity="1" /><path clip-path="url(#clip570)" d="M500.155 229.89 L500.155 272.159 L490.34 272.159 L490.34 268.848 L495.873 268.848 L495.873 233.2 L490.34 233.2 L490.34 229.89 L500.155 229.89 Z" fill="#000000" fill-rule="nonzero" fill-opacity="1" /><polyline clip-path="url(#clip570)" style="stroke:#c271d2; stroke-linecap:round; stroke-linejoin:round; stroke-width:4; stroke-opacity:1; fill:none" points="239.009,300.469 386.48,300.469 "/>
<path clip-path="url(#clip570)" d="M411.058 307.517 L411.058 291.823 L415.318 291.823 L415.318 307.355 Q415.318 311.036 416.753 312.888 Q418.188 314.716 421.058 314.716 Q424.507 314.716 426.498 312.517 Q428.512 310.318 428.512 306.522 L428.512 291.823 L432.771 291.823 L432.771 317.749 L428.512 317.749 L428.512 313.767 Q426.961 316.128 424.901 317.286 Q422.864 318.42 420.156 318.42 Q415.688 318.42 413.373 315.642 Q411.058 312.864 411.058 307.517 M421.776 291.198 L421.776 291.198 Z" fill="#000000" fill-rule="nonzero" fill-opacity="1" /><path clip-path="url(#clip570)" d="M441.151 281.73 L450.966 281.73 L450.966 285.04 L445.41 285.04 L445.41 320.688 L450.966 320.688 L450.966 323.999 L441.151 323.999 L441.151 281.73 Z" fill="#000000" fill-rule="nonzero" fill-opacity="1" /><path clip-path="url(#clip570)" d="M473.489 287.263 L461.683 305.712 L473.489 305.712 L473.489 287.263 M472.262 283.189 L478.141 283.189 L478.141 305.712 L483.072 305.712 L483.072 309.601 L478.141 309.601 L478.141 317.749 L473.489 317.749 L473.489 309.601 L457.887 309.601 L457.887 305.087 L472.262 283.189 Z" fill="#000000" fill-rule="nonzero" fill-opacity="1" /><path clip-path="url(#clip570)" d="M500.155 281.73 L500.155 323.999 L490.34 323.999 L490.34 320.688 L495.873 320.688 L495.873 285.04 L490.34 285.04 L490.34 281.73 L500.155 281.73 Z" fill="#000000" fill-rule="nonzero" fill-opacity="1" /><polyline clip-path="url(#clip570)" style="stroke:#ac8d18; stroke-linecap:round; stroke-linejoin:round; stroke-width:4; stroke-opacity:1; fill:none" points="239.009,352.309 386.48,352.309 "/>
<path clip-path="url(#clip570)" d="M411.058 359.357 L411.058 343.663 L415.318 343.663 L415.318 359.195 Q415.318 362.876 416.753 364.728 Q418.188 366.556 421.058 366.556 Q424.507 366.556 426.498 364.357 Q428.512 362.158 428.512 358.362 L428.512 343.663 L432.771 343.663 L432.771 369.589 L428.512 369.589 L428.512 365.607 Q426.961 367.968 424.901 369.126 Q422.864 370.26 420.156 370.26 Q415.688 370.26 413.373 367.482 Q411.058 364.704 411.058 359.357 M421.776 343.038 L421.776 343.038 Z" fill="#000000" fill-rule="nonzero" fill-opacity="1" /><path clip-path="url(#clip570)" d="M441.151 333.57 L450.966 333.57 L450.966 336.88 L445.41 336.88 L445.41 372.528 L450.966 372.528 L450.966 375.839 L441.151 375.839 L441.151 333.57 Z" fill="#000000" fill-rule="nonzero" fill-opacity="1" /><path clip-path="url(#clip570)" d="M460.688 335.029 L479.044 335.029 L479.044 338.964 L464.97 338.964 L464.97 347.436 Q465.989 347.089 467.007 346.927 Q468.026 346.742 469.044 346.742 Q474.831 346.742 478.211 349.913 Q481.591 353.084 481.591 358.501 Q481.591 364.079 478.118 367.181 Q474.646 370.26 468.327 370.26 Q466.151 370.26 463.882 369.89 Q461.637 369.519 459.23 368.778 L459.23 364.079 Q461.313 365.214 463.535 365.769 Q465.757 366.325 468.234 366.325 Q472.239 366.325 474.577 364.218 Q476.915 362.112 476.915 358.501 Q476.915 354.89 474.577 352.783 Q472.239 350.677 468.234 350.677 Q466.359 350.677 464.484 351.093 Q462.632 351.51 460.688 352.39 L460.688 335.029 Z" fill="#000000" fill-rule="nonzero" fill-opacity="1" /><path clip-path="url(#clip570)" d="M500.155 333.57 L500.155 375.839 L490.34 375.839 L490.34 372.528 L495.873 372.528 L495.873 336.88 L490.34 336.88 L490.34 333.57 L500.155 333.57 Z" fill="#000000" fill-rule="nonzero" fill-opacity="1" /><polyline clip-path="url(#clip570)" style="stroke:#00a9ad; stroke-linecap:round; stroke-linejoin:round; stroke-width:4; stroke-opacity:1; fill:none" points="239.009,404.149 386.48,404.149 "/>
<path clip-path="url(#clip570)" d="M411.058 411.197 L411.058 395.503 L415.318 395.503 L415.318 411.035 Q415.318 414.716 416.753 416.568 Q418.188 418.396 421.058 418.396 Q424.507 418.396 426.498 416.197 Q428.512 413.998 428.512 410.202 L428.512 395.503 L432.771 395.503 L432.771 421.429 L428.512 421.429 L428.512 417.447 Q426.961 419.808 424.901 420.966 Q422.864 422.1 420.156 422.1 Q415.688 422.1 413.373 419.322 Q411.058 416.544 411.058 411.197 M421.776 394.878 L421.776 394.878 Z" fill="#000000" fill-rule="nonzero" fill-opacity="1" /><path clip-path="url(#clip570)" d="M441.151 385.41 L450.966 385.41 L450.966 388.72 L445.41 388.72 L445.41 424.368 L450.966 424.368 L450.966 427.679 L441.151 427.679 L441.151 385.41 Z" fill="#000000" fill-rule="nonzero" fill-opacity="1" /><path clip-path="url(#clip570)" d="M471.22 402.285 Q468.072 402.285 466.22 404.438 Q464.392 406.591 464.392 410.341 Q464.392 414.068 466.22 416.243 Q468.072 418.396 471.22 418.396 Q474.368 418.396 476.197 416.243 Q478.049 414.068 478.049 410.341 Q478.049 406.591 476.197 404.438 Q474.368 402.285 471.22 402.285 M480.503 387.633 L480.503 391.892 Q478.743 391.058 476.938 390.619 Q475.155 390.179 473.396 390.179 Q468.766 390.179 466.313 393.304 Q463.882 396.429 463.535 402.748 Q464.901 400.734 466.961 399.669 Q469.021 398.582 471.498 398.582 Q476.706 398.582 479.716 401.753 Q482.748 404.901 482.748 410.341 Q482.748 415.665 479.6 418.882 Q476.452 422.1 471.22 422.1 Q465.225 422.1 462.054 417.517 Q458.882 412.91 458.882 404.183 Q458.882 395.989 462.771 391.128 Q466.66 386.244 473.211 386.244 Q474.97 386.244 476.753 386.591 Q478.558 386.938 480.503 387.633 Z" fill="#000000" fill-rule="nonzero" fill-opacity="1" /><path clip-path="url(#clip570)" d="M500.155 385.41 L500.155 427.679 L490.34 427.679 L490.34 424.368 L495.873 424.368 L495.873 388.72 L490.34 388.72 L490.34 385.41 L500.155 385.41 Z" fill="#000000" fill-rule="nonzero" fill-opacity="1" /><polyline clip-path="url(#clip570)" style="stroke:#ed5d92; stroke-linecap:round; stroke-linejoin:round; stroke-width:4; stroke-opacity:1; fill:none" points="239.009,455.989 386.48,455.989 "/>
<path clip-path="url(#clip570)" d="M411.058 463.037 L411.058 447.343 L415.318 447.343 L415.318 462.875 Q415.318 466.556 416.753 468.408 Q418.188 470.236 421.058 470.236 Q424.507 470.236 426.498 468.037 Q428.512 465.838 428.512 462.042 L428.512 447.343 L432.771 447.343 L432.771 473.269 L428.512 473.269 L428.512 469.287 Q426.961 471.648 424.901 472.806 Q422.864 473.94 420.156 473.94 Q415.688 473.94 413.373 471.162 Q411.058 468.384 411.058 463.037 M421.776 446.718 L421.776 446.718 Z" fill="#000000" fill-rule="nonzero" fill-opacity="1" /><path clip-path="url(#clip570)" d="M441.151 437.25 L450.966 437.25 L450.966 440.56 L445.41 440.56 L445.41 476.208 L450.966 476.208 L450.966 479.519 L441.151 479.519 L441.151 437.25 Z" fill="#000000" fill-rule="nonzero" fill-opacity="1" /><path clip-path="url(#clip570)" d="M459.461 438.709 L481.683 438.709 L481.683 440.699 L469.137 473.269 L464.253 473.269 L476.058 442.644 L459.461 442.644 L459.461 438.709 Z" fill="#000000" fill-rule="nonzero" fill-opacity="1" /><path clip-path="url(#clip570)" d="M500.155 437.25 L500.155 479.519 L490.34 479.519 L490.34 476.208 L495.873 476.208 L495.873 440.56 L490.34 440.56 L490.34 437.25 L500.155 437.25 Z" fill="#000000" fill-rule="nonzero" fill-opacity="1" /><polyline clip-path="url(#clip570)" style="stroke:#c68125; stroke-linecap:round; stroke-linejoin:round; stroke-width:4; stroke-opacity:1; fill:none" points="239.009,507.829 386.48,507.829 "/>
<path clip-path="url(#clip570)" d="M411.058 514.877 L411.058 499.183 L415.318 499.183 L415.318 514.715 Q415.318 518.396 416.753 520.248 Q418.188 522.076 421.058 522.076 Q424.507 522.076 426.498 519.877 Q428.512 517.678 428.512 513.882 L428.512 499.183 L432.771 499.183 L432.771 525.109 L428.512 525.109 L428.512 521.127 Q426.961 523.488 424.901 524.646 Q422.864 525.78 420.156 525.78 Q415.688 525.78 413.373 523.002 Q411.058 520.224 411.058 514.877 M421.776 498.558 L421.776 498.558 Z" fill="#000000" fill-rule="nonzero" fill-opacity="1" /><path clip-path="url(#clip570)" d="M441.151 489.09 L450.966 489.09 L450.966 492.4 L445.41 492.4 L445.41 528.048 L450.966 528.048 L450.966 531.359 L441.151 531.359 L441.151 489.09 Z" fill="#000000" fill-rule="nonzero" fill-opacity="1" /><path clip-path="url(#clip570)" d="M470.641 508.697 Q467.308 508.697 465.387 510.479 Q463.489 512.261 463.489 515.386 Q463.489 518.511 465.387 520.294 Q467.308 522.076 470.641 522.076 Q473.975 522.076 475.896 520.294 Q477.817 518.488 477.817 515.386 Q477.817 512.261 475.896 510.479 Q473.998 508.697 470.641 508.697 M465.966 506.706 Q462.956 505.965 461.267 503.905 Q459.6 501.845 459.6 498.882 Q459.6 494.738 462.54 492.331 Q465.503 489.924 470.641 489.924 Q475.803 489.924 478.743 492.331 Q481.683 494.738 481.683 498.882 Q481.683 501.845 479.993 503.905 Q478.327 505.965 475.341 506.706 Q478.72 507.493 480.595 509.785 Q482.493 512.076 482.493 515.386 Q482.493 520.41 479.415 523.095 Q476.359 525.78 470.641 525.78 Q464.924 525.78 461.845 523.095 Q458.79 520.41 458.79 515.386 Q458.79 512.076 460.688 509.785 Q462.586 507.493 465.966 506.706 M464.253 499.322 Q464.253 502.007 465.919 503.512 Q467.609 505.016 470.641 505.016 Q473.651 505.016 475.341 503.512 Q477.053 502.007 477.053 499.322 Q477.053 496.637 475.341 495.132 Q473.651 493.627 470.641 493.627 Q467.609 493.627 465.919 495.132 Q464.253 496.637 464.253 499.322 Z" fill="#000000" fill-rule="nonzero" fill-opacity="1" /><path clip-path="url(#clip570)" d="M500.155 489.09 L500.155 531.359 L490.34 531.359 L490.34 528.048 L495.873 528.048 L495.873 492.4 L490.34 492.4 L490.34 489.09 L500.155 489.09 Z" fill="#000000" fill-rule="nonzero" fill-opacity="1" /><polyline clip-path="url(#clip570)" style="stroke:#00a98d; stroke-linecap:round; stroke-linejoin:round; stroke-width:4; stroke-opacity:1; fill:none" points="239.009,559.669 386.48,559.669 "/>
<path clip-path="url(#clip570)" d="M411.058 566.717 L411.058 551.023 L415.318 551.023 L415.318 566.555 Q415.318 570.236 416.753 572.088 Q418.188 573.916 421.058 573.916 Q424.507 573.916 426.498 571.717 Q428.512 569.518 428.512 565.722 L428.512 551.023 L432.771 551.023 L432.771 576.949 L428.512 576.949 L428.512 572.967 Q426.961 575.328 424.901 576.486 Q422.864 577.62 420.156 577.62 Q415.688 577.62 413.373 574.842 Q411.058 572.064 411.058 566.717 M421.776 550.398 L421.776 550.398 Z" fill="#000000" fill-rule="nonzero" fill-opacity="1" /><path clip-path="url(#clip570)" d="M441.151 540.93 L450.966 540.93 L450.966 544.24 L445.41 544.24 L445.41 579.888 L450.966 579.888 L450.966 583.199 L441.151 583.199 L441.151 540.93 Z" fill="#000000" fill-rule="nonzero" fill-opacity="1" /><path clip-path="url(#clip570)" d="M460.78 576.231 L460.78 571.972 Q462.54 572.805 464.345 573.245 Q466.151 573.685 467.887 573.685 Q472.516 573.685 474.947 570.583 Q477.401 567.458 477.748 561.115 Q476.405 563.106 474.345 564.171 Q472.285 565.236 469.785 565.236 Q464.6 565.236 461.567 562.111 Q458.558 558.963 458.558 553.523 Q458.558 548.199 461.706 544.981 Q464.854 541.764 470.086 541.764 Q476.081 541.764 479.229 546.37 Q482.401 550.953 482.401 559.703 Q482.401 567.875 478.512 572.759 Q474.646 577.62 468.095 577.62 Q466.336 577.62 464.53 577.273 Q462.725 576.925 460.78 576.231 M470.086 561.578 Q473.234 561.578 475.063 559.426 Q476.915 557.273 476.915 553.523 Q476.915 549.796 475.063 547.643 Q473.234 545.467 470.086 545.467 Q466.938 545.467 465.086 547.643 Q463.257 549.796 463.257 553.523 Q463.257 557.273 465.086 559.426 Q466.938 561.578 470.086 561.578 Z" fill="#000000" fill-rule="nonzero" fill-opacity="1" /><path clip-path="url(#clip570)" d="M500.155 540.93 L500.155 583.199 L490.34 583.199 L490.34 579.888 L495.873 579.888 L495.873 544.24 L490.34 544.24 L490.34 540.93 L500.155 540.93 Z" fill="#000000" fill-rule="nonzero" fill-opacity="1" /><polyline clip-path="url(#clip570)" style="stroke:#8e971d; stroke-linecap:round; stroke-linejoin:round; stroke-width:4; stroke-opacity:1; fill:none" points="239.009,611.509 386.48,611.509 "/>
<path clip-path="url(#clip570)" d="M411.058 618.557 L411.058 602.863 L415.318 602.863 L415.318 618.395 Q415.318 622.076 416.753 623.928 Q418.188 625.756 421.058 625.756 Q424.507 625.756 426.498 623.557 Q428.512 621.358 428.512 617.562 L428.512 602.863 L432.771 602.863 L432.771 628.789 L428.512 628.789 L428.512 624.807 Q426.961 627.168 424.901 628.326 Q422.864 629.46 420.156 629.46 Q415.688 629.46 413.373 626.682 Q411.058 623.904 411.058 618.557 M421.776 602.238 L421.776 602.238 Z" fill="#000000" fill-rule="nonzero" fill-opacity="1" /><path clip-path="url(#clip570)" d="M441.151 592.77 L450.966 592.77 L450.966 596.08 L445.41 596.08 L445.41 631.728 L450.966 631.728 L450.966 635.039 L441.151 635.039 L441.151 592.77 Z" fill="#000000" fill-rule="nonzero" fill-opacity="1" /><path clip-path="url(#clip570)" d="M461.452 624.853 L469.091 624.853 L469.091 598.488 L460.78 600.155 L460.78 595.895 L469.044 594.229 L473.72 594.229 L473.72 624.853 L481.359 624.853 L481.359 628.789 L461.452 628.789 L461.452 624.853 Z" fill="#000000" fill-rule="nonzero" fill-opacity="1" /><path clip-path="url(#clip570)" d="M500.803 597.307 Q497.192 597.307 495.364 600.872 Q493.558 604.414 493.558 611.543 Q493.558 618.65 495.364 622.215 Q497.192 625.756 500.803 625.756 Q504.438 625.756 506.243 622.215 Q508.072 618.65 508.072 611.543 Q508.072 604.414 506.243 600.872 Q504.438 597.307 500.803 597.307 M500.803 593.604 Q506.614 593.604 509.669 598.21 Q512.748 602.793 512.748 611.543 Q512.748 620.27 509.669 624.877 Q506.614 629.46 500.803 629.46 Q494.993 629.46 491.915 624.877 Q488.859 620.27 488.859 611.543 Q488.859 602.793 491.915 598.21 Q494.993 593.604 500.803 593.604 Z" fill="#000000" fill-rule="nonzero" fill-opacity="1" /><path clip-path="url(#clip570)" d="M530.317 592.77 L530.317 635.039 L520.502 635.039 L520.502 631.728 L526.035 631.728 L526.035 596.08 L520.502 596.08 L520.502 592.77 L530.317 592.77 Z" fill="#000000" fill-rule="nonzero" fill-opacity="1" /></svg>
