<?xml version="1.0" encoding="utf-8"?>
<svg xmlns="http://www.w3.org/2000/svg" xmlns:xlink="http://www.w3.org/1999/xlink" width="600" height="400" viewBox="0 0 2400 1600">
<defs>
  <clipPath id="clip890">
    <rect x="0" y="0" width="2400" height="1600"/>
  </clipPath>
</defs>
<path clip-path="url(#clip890)" d="M0 1600 L2400 1600 L2400 0 L0 0  Z" fill="#ffffff" fill-rule="evenodd" fill-opacity="1"/>
<defs>
  <clipPath id="clip891">
    <rect x="112" y="47" width="2242" height="1377"/>
  </clipPath>
</defs>
<path clip-path="url(#clip890)" d="M112.177 1423.18 L2352.76 1423.18 L2352.76 47.2441 L112.177 47.2441  Z" fill="#ffffff" fill-rule="evenodd" fill-opacity="1"/>
<polyline clip-path="url(#clip891)" style="stroke:#000000; stroke-linecap:round; stroke-linejoin:round; stroke-width:2; stroke-opacity:0.1; fill:none" points="112.177,1423.18 112.177,47.2441 "/>
<polyline clip-path="url(#clip891)" style="stroke:#000000; stroke-linecap:round; stroke-linejoin:round; stroke-width:2; stroke-opacity:0.1; fill:none" points="560.293,1423.18 560.293,47.2441 "/>
<polyline clip-path="url(#clip891)" style="stroke:#000000; stroke-linecap:round; stroke-linejoin:round; stroke-width:2; stroke-opacity:0.1; fill:none" points="1008.41,1423.18 1008.41,47.2441 "/>
<polyline clip-path="url(#clip891)" style="stroke:#000000; stroke-linecap:round; stroke-linejoin:round; stroke-width:2; stroke-opacity:0.1; fill:none" points="1456.52,1423.18 1456.52,47.2441 "/>
<polyline clip-path="url(#clip891)" style="stroke:#000000; stroke-linecap:round; stroke-linejoin:round; stroke-width:2; stroke-opacity:0.1; fill:none" points="1904.64,1423.18 1904.64,47.2441 "/>
<polyline clip-path="url(#clip891)" style="stroke:#000000; stroke-linecap:round; stroke-linejoin:round; stroke-width:2; stroke-opacity:0.1; fill:none" points="2352.76,1423.18 2352.76,47.2441 "/>
<polyline clip-path="url(#clip891)" style="stroke:#000000; stroke-linecap:round; stroke-linejoin:round; stroke-width:2; stroke-opacity:0.1; fill:none" points="112.177,1384.24 2352.76,1384.24 "/>
<polyline clip-path="url(#clip891)" style="stroke:#000000; stroke-linecap:round; stroke-linejoin:round; stroke-width:2; stroke-opacity:0.1; fill:none" points="112.177,1095.78 2352.76,1095.78 "/>
<polyline clip-path="url(#clip891)" style="stroke:#000000; stroke-linecap:round; stroke-linejoin:round; stroke-width:2; stroke-opacity:0.1; fill:none" points="112.177,807.326 2352.76,807.326 "/>
<polyline clip-path="url(#clip891)" style="stroke:#000000; stroke-linecap:round; stroke-linejoin:round; stroke-width:2; stroke-opacity:0.1; fill:none" points="112.177,518.87 2352.76,518.87 "/>
<polyline clip-path="url(#clip891)" style="stroke:#000000; stroke-linecap:round; stroke-linejoin:round; stroke-width:2; stroke-opacity:0.1; fill:none" points="112.177,230.414 2352.76,230.414 "/>
<polyline clip-path="url(#clip890)" style="stroke:#000000; stroke-linecap:round; stroke-linejoin:round; stroke-width:4; stroke-opacity:1; fill:none" points="112.177,1423.18 2352.76,1423.18 "/>
<polyline clip-path="url(#clip890)" style="stroke:#000000; stroke-linecap:round; stroke-linejoin:round; stroke-width:4; stroke-opacity:1; fill:none" points="112.177,1423.18 112.177,1404.28 "/>
<polyline clip-path="url(#clip890)" style="stroke:#000000; stroke-linecap:round; stroke-linejoin:round; stroke-width:4; stroke-opacity:1; fill:none" points="560.293,1423.18 560.293,1404.28 "/>
<polyline clip-path="url(#clip890)" style="stroke:#000000; stroke-linecap:round; stroke-linejoin:round; stroke-width:4; stroke-opacity:1; fill:none" points="1008.41,1423.18 1008.41,1404.28 "/>
<polyline clip-path="url(#clip890)" style="stroke:#000000; stroke-linecap:round; stroke-linejoin:round; stroke-width:4; stroke-opacity:1; fill:none" points="1456.52,1423.18 1456.52,1404.28 "/>
<polyline clip-path="url(#clip890)" style="stroke:#000000; stroke-linecap:round; stroke-linejoin:round; stroke-width:4; stroke-opacity:1; fill:none" points="1904.64,1423.18 1904.64,1404.28 "/>
<polyline clip-path="url(#clip890)" style="stroke:#000000; stroke-linecap:round; stroke-linejoin:round; stroke-width:4; stroke-opacity:1; fill:none" points="2352.76,1423.18 2352.76,1404.28 "/>
<path clip-path="url(#clip890)" d="M112.177 1454.1 Q108.566 1454.1 106.737 1457.66 Q104.932 1461.2 104.932 1468.33 Q104.932 1475.44 106.737 1479.01 Q108.566 1482.55 112.177 1482.55 Q115.811 1482.55 117.617 1479.01 Q119.446 1475.44 119.446 1468.33 Q119.446 1461.2 117.617 1457.66 Q115.811 1454.1 112.177 1454.1 M112.177 1450.39 Q117.987 1450.39 121.043 1455 Q124.122 1459.58 124.122 1468.33 Q124.122 1477.06 121.043 1481.67 Q117.987 1486.25 112.177 1486.25 Q106.367 1486.25 103.288 1481.67 Q100.233 1477.06 100.233 1468.33 Q100.233 1459.58 103.288 1455 Q106.367 1450.39 112.177 1450.39 Z" fill="#000000" fill-rule="nonzero" fill-opacity="1" /><path clip-path="url(#clip890)" d="M554.946 1481.64 L571.265 1481.64 L571.265 1485.58 L549.321 1485.58 L549.321 1481.64 Q551.983 1478.89 556.566 1474.26 Q561.173 1469.61 562.353 1468.27 Q564.598 1465.74 565.478 1464.01 Q566.381 1462.25 566.381 1460.56 Q566.381 1457.8 564.436 1456.07 Q562.515 1454.33 559.413 1454.33 Q557.214 1454.33 554.761 1455.09 Q552.33 1455.86 549.552 1457.41 L549.552 1452.69 Q552.376 1451.55 554.83 1450.97 Q557.284 1450.39 559.321 1450.39 Q564.691 1450.39 567.885 1453.08 Q571.08 1455.77 571.08 1460.26 Q571.08 1462.39 570.27 1464.31 Q569.483 1466.2 567.376 1468.8 Q566.798 1469.47 563.696 1472.69 Q560.594 1475.88 554.946 1481.64 Z" fill="#000000" fill-rule="nonzero" fill-opacity="1" /><path clip-path="url(#clip890)" d="M1011.42 1455.09 L999.612 1473.54 L1011.42 1473.54 L1011.42 1455.09 M1010.19 1451.02 L1016.07 1451.02 L1016.07 1473.54 L1021 1473.54 L1021 1477.43 L1016.07 1477.43 L1016.07 1485.58 L1011.42 1485.58 L1011.42 1477.43 L995.816 1477.43 L995.816 1472.92 L1010.19 1451.02 Z" fill="#000000" fill-rule="nonzero" fill-opacity="1" /><path clip-path="url(#clip890)" d="M1456.93 1466.44 Q1453.78 1466.44 1451.93 1468.59 Q1450.1 1470.74 1450.1 1474.49 Q1450.1 1478.22 1451.93 1480.39 Q1453.78 1482.55 1456.93 1482.55 Q1460.08 1482.55 1461.91 1480.39 Q1463.76 1478.22 1463.76 1474.49 Q1463.76 1470.74 1461.91 1468.59 Q1460.08 1466.44 1456.93 1466.44 M1466.21 1451.78 L1466.21 1456.04 Q1464.45 1455.21 1462.65 1454.77 Q1460.86 1454.33 1459.11 1454.33 Q1454.48 1454.33 1452.02 1457.45 Q1449.59 1460.58 1449.24 1466.9 Q1450.61 1464.89 1452.67 1463.82 Q1454.73 1462.73 1457.21 1462.73 Q1462.42 1462.73 1465.42 1465.9 Q1468.46 1469.05 1468.46 1474.49 Q1468.46 1479.82 1465.31 1483.03 Q1462.16 1486.25 1456.93 1486.25 Q1450.93 1486.25 1447.76 1481.67 Q1444.59 1477.06 1444.59 1468.33 Q1444.59 1460.14 1448.48 1455.28 Q1452.37 1450.39 1458.92 1450.39 Q1460.68 1450.39 1462.46 1450.74 Q1464.27 1451.09 1466.21 1451.78 Z" fill="#000000" fill-rule="nonzero" fill-opacity="1" /><path clip-path="url(#clip890)" d="M1904.64 1469.17 Q1901.31 1469.17 1899.39 1470.95 Q1897.49 1472.73 1897.49 1475.86 Q1897.49 1478.98 1899.39 1480.77 Q1901.31 1482.55 1904.64 1482.55 Q1907.97 1482.55 1909.89 1480.77 Q1911.82 1478.96 1911.82 1475.86 Q1911.82 1472.73 1909.89 1470.95 Q1908 1469.17 1904.64 1469.17 M1899.96 1467.18 Q1896.96 1466.44 1895.27 1464.38 Q1893.6 1462.32 1893.6 1459.35 Q1893.6 1455.21 1896.54 1452.8 Q1899.5 1450.39 1904.64 1450.39 Q1909.8 1450.39 1912.74 1452.8 Q1915.68 1455.21 1915.68 1459.35 Q1915.68 1462.32 1913.99 1464.38 Q1912.33 1466.44 1909.34 1467.18 Q1912.72 1467.96 1914.59 1470.26 Q1916.49 1472.55 1916.49 1475.86 Q1916.49 1480.88 1913.41 1483.57 Q1910.36 1486.25 1904.64 1486.25 Q1898.92 1486.25 1895.84 1483.57 Q1892.79 1480.88 1892.79 1475.86 Q1892.79 1472.55 1894.69 1470.26 Q1896.58 1467.96 1899.96 1467.18 M1898.25 1459.79 Q1898.25 1462.48 1899.92 1463.98 Q1901.61 1465.49 1904.64 1465.49 Q1907.65 1465.49 1909.34 1463.98 Q1911.05 1462.48 1911.05 1459.79 Q1911.05 1457.11 1909.34 1455.6 Q1907.65 1454.1 1904.64 1454.1 Q1901.61 1454.1 1899.92 1455.6 Q1898.25 1457.11 1898.25 1459.79 Z" fill="#000000" fill-rule="nonzero" fill-opacity="1" /><path clip-path="url(#clip890)" d="M2327.44 1481.64 L2335.08 1481.64 L2335.08 1455.28 L2326.77 1456.95 L2326.77 1452.69 L2335.04 1451.02 L2339.71 1451.02 L2339.71 1481.64 L2347.35 1481.64 L2347.35 1485.58 L2327.44 1485.58 L2327.44 1481.64 Z" fill="#000000" fill-rule="nonzero" fill-opacity="1" /><path clip-path="url(#clip890)" d="M2366.8 1454.1 Q2363.18 1454.1 2361.36 1457.66 Q2359.55 1461.2 2359.55 1468.33 Q2359.55 1475.44 2361.36 1479.01 Q2363.18 1482.55 2366.8 1482.55 Q2370.43 1482.55 2372.23 1479.01 Q2374.06 1475.44 2374.06 1468.33 Q2374.06 1461.2 2372.23 1457.66 Q2370.43 1454.1 2366.8 1454.1 M2366.8 1450.39 Q2372.61 1450.39 2375.66 1455 Q2378.74 1459.58 2378.74 1468.33 Q2378.74 1477.06 2375.66 1481.67 Q2372.61 1486.25 2366.8 1486.25 Q2360.99 1486.25 2357.91 1481.67 Q2354.85 1477.06 2354.85 1468.33 Q2354.85 1459.58 2357.91 1455 Q2360.99 1450.39 2366.8 1450.39 Z" fill="#000000" fill-rule="nonzero" fill-opacity="1" /><path clip-path="url(#clip890)" d="M1231.53 1522.27 L1231.53 1532.4 L1243.59 1532.4 L1243.59 1536.95 L1231.53 1536.95 L1231.53 1556.3 Q1231.53 1560.66 1232.71 1561.9 Q1233.91 1563.14 1237.58 1563.14 L1243.59 1563.14 L1243.59 1568.04 L1237.58 1568.04 Q1230.8 1568.04 1228.22 1565.53 Q1225.64 1562.98 1225.64 1556.3 L1225.64 1536.95 L1221.34 1536.95 L1221.34 1532.4 L1225.64 1532.4 L1225.64 1522.27 L1231.53 1522.27 Z" fill="#000000" fill-rule="nonzero" fill-opacity="1" /><polyline clip-path="url(#clip890)" style="stroke:#000000; stroke-linecap:round; stroke-linejoin:round; stroke-width:4; stroke-opacity:1; fill:none" points="112.177,1423.18 112.177,47.2441 "/>
<polyline clip-path="url(#clip890)" style="stroke:#000000; stroke-linecap:round; stroke-linejoin:round; stroke-width:4; stroke-opacity:1; fill:none" points="112.177,1384.24 131.075,1384.24 "/>
<polyline clip-path="url(#clip890)" style="stroke:#000000; stroke-linecap:round; stroke-linejoin:round; stroke-width:4; stroke-opacity:1; fill:none" points="112.177,1095.78 131.075,1095.78 "/>
<polyline clip-path="url(#clip890)" style="stroke:#000000; stroke-linecap:round; stroke-linejoin:round; stroke-width:4; stroke-opacity:1; fill:none" points="112.177,807.326 131.075,807.326 "/>
<polyline clip-path="url(#clip890)" style="stroke:#000000; stroke-linecap:round; stroke-linejoin:round; stroke-width:4; stroke-opacity:1; fill:none" points="112.177,518.87 131.075,518.87 "/>
<polyline clip-path="url(#clip890)" style="stroke:#000000; stroke-linecap:round; stroke-linejoin:round; stroke-width:4; stroke-opacity:1; fill:none" points="112.177,230.414 131.075,230.414 "/>
<path clip-path="url(#clip890)" d="M64.2328 1370.04 Q60.6217 1370.04 58.793 1373.6 Q56.9875 1377.14 56.9875 1384.27 Q56.9875 1391.38 58.793 1394.94 Q60.6217 1398.49 64.2328 1398.49 Q67.867 1398.49 69.6726 1394.94 Q71.5013 1391.38 71.5013 1384.27 Q71.5013 1377.14 69.6726 1373.6 Q67.867 1370.04 64.2328 1370.04 M64.2328 1366.33 Q70.0429 1366.33 73.0985 1370.94 Q76.1772 1375.52 76.1772 1384.27 Q76.1772 1393 73.0985 1397.61 Q70.0429 1402.19 64.2328 1402.19 Q58.4226 1402.19 55.344 1397.61 Q52.2884 1393 52.2884 1384.27 Q52.2884 1375.52 55.344 1370.94 Q58.4226 1366.33 64.2328 1366.33 Z" fill="#000000" fill-rule="nonzero" fill-opacity="1" /><path clip-path="url(#clip890)" d="M59.8578 1109.13 L76.1772 1109.13 L76.1772 1113.06 L54.2328 1113.06 L54.2328 1109.13 Q56.8949 1106.37 61.4782 1101.74 Q66.0846 1097.09 67.2652 1095.75 Q69.5105 1093.22 70.3902 1091.49 Q71.2929 1089.73 71.2929 1088.04 Q71.2929 1085.28 69.3485 1083.55 Q67.4272 1081.81 64.3254 1081.81 Q62.1263 1081.81 59.6726 1082.58 Q57.2421 1083.34 54.4643 1084.89 L54.4643 1080.17 Q57.2884 1079.03 59.7421 1078.46 Q62.1958 1077.88 64.2328 1077.88 Q69.6031 1077.88 72.7976 1080.56 Q75.992 1083.25 75.992 1087.74 Q75.992 1089.87 75.1818 1091.79 Q74.3948 1093.69 72.2883 1096.28 Q71.7096 1096.95 68.6078 1100.17 Q65.5059 1103.36 59.8578 1109.13 Z" fill="#000000" fill-rule="nonzero" fill-opacity="1" /><path clip-path="url(#clip890)" d="M66.5939 794.12 L54.7884 812.569 L66.5939 812.569 L66.5939 794.12 M65.367 790.046 L71.2466 790.046 L71.2466 812.569 L76.1772 812.569 L76.1772 816.458 L71.2466 816.458 L71.2466 824.606 L66.5939 824.606 L66.5939 816.458 L50.9921 816.458 L50.9921 811.944 L65.367 790.046 Z" fill="#000000" fill-rule="nonzero" fill-opacity="1" /><path clip-path="url(#clip890)" d="M64.6495 517.006 Q61.5013 517.006 59.6495 519.159 Q57.8208 521.312 57.8208 525.062 Q57.8208 528.789 59.6495 530.965 Q61.5013 533.117 64.6495 533.117 Q67.7976 533.117 69.6263 530.965 Q71.4781 528.789 71.4781 525.062 Q71.4781 521.312 69.6263 519.159 Q67.7976 517.006 64.6495 517.006 M73.9318 502.354 L73.9318 506.613 Q72.1726 505.78 70.367 505.34 Q68.5846 504.9 66.8254 504.9 Q62.1958 504.9 59.7421 508.025 Q57.3115 511.15 56.9643 517.469 Q58.33 515.456 60.3902 514.391 Q62.4504 513.303 64.9272 513.303 Q70.1355 513.303 73.1448 516.474 Q76.1772 519.622 76.1772 525.062 Q76.1772 530.386 73.029 533.604 Q69.8809 536.821 64.6495 536.821 Q58.6541 536.821 55.4828 532.238 Q52.3116 527.631 52.3116 518.905 Q52.3116 510.71 56.2004 505.849 Q60.0893 500.965 66.6402 500.965 Q68.3994 500.965 70.1818 501.312 Q71.9874 501.659 73.9318 502.354 Z" fill="#000000" fill-rule="nonzero" fill-opacity="1" /><path clip-path="url(#clip890)" d="M64.3254 231.282 Q60.9921 231.282 59.0708 233.064 Q57.1726 234.847 57.1726 237.972 Q57.1726 241.097 59.0708 242.879 Q60.9921 244.661 64.3254 244.661 Q67.6587 244.661 69.58 242.879 Q71.5013 241.073 71.5013 237.972 Q71.5013 234.847 69.58 233.064 Q67.6819 231.282 64.3254 231.282 M59.6495 229.291 Q56.6402 228.55 54.9504 226.49 Q53.2838 224.43 53.2838 221.467 Q53.2838 217.324 56.2236 214.916 Q59.1865 212.509 64.3254 212.509 Q69.4874 212.509 72.4272 214.916 Q75.367 217.324 75.367 221.467 Q75.367 224.43 73.6772 226.49 Q72.0105 228.55 69.0244 229.291 Q72.404 230.078 74.279 232.37 Q76.1772 234.661 76.1772 237.972 Q76.1772 242.995 73.0985 245.68 Q70.0429 248.365 64.3254 248.365 Q58.6078 248.365 55.5291 245.68 Q52.4736 242.995 52.4736 237.972 Q52.4736 234.661 54.3717 232.37 Q56.2699 230.078 59.6495 229.291 M57.9365 221.907 Q57.9365 224.592 59.6032 226.097 Q61.293 227.601 64.3254 227.601 Q67.3346 227.601 69.0244 226.097 Q70.7374 224.592 70.7374 221.907 Q70.7374 219.222 69.0244 217.717 Q67.3346 216.212 64.3254 216.212 Q61.293 216.212 59.6032 217.717 Q57.9365 219.222 57.9365 221.907 Z" fill="#000000" fill-rule="nonzero" fill-opacity="1" /><polyline clip-path="url(#clip891)" style="stroke:#009af9; stroke-linecap:round; stroke-linejoin:round; stroke-width:8; stroke-opacity:1; fill:none" points="112.177,1384.24 113.423,1384.24 114.668,1384.24 115.914,1384.24 117.159,1384.24 118.404,1384.24 119.65,1384.24 120.895,1384.24 122.141,1384.24 123.386,1384.24 124.632,1384.24 125.877,1384.24 127.123,1384.24 128.368,1384.24 129.614,1384.24 130.859,1384.24 132.105,1384.24 133.35,1384.24 134.595,1384.24 135.841,1384.24 137.086,1384.24 138.332,1384.24 139.577,1384.24 140.823,1384.24 142.068,1384.24 143.314,1384.24 144.559,1384.24 145.805,1384.24 147.05,1384.24 148.295,1384.24 149.541,1384.24 150.786,1384.24 152.032,1384.24 153.277,1384.24 154.523,1384.24 155.768,1384.24 157.014,1384.24 158.259,1384.24 159.505,1384.24 160.75,1384.24 161.995,1384.24 163.241,1384.24 164.486,1384.24 165.732,1384.24 166.977,1384.24 168.223,1384.24 169.468,1384.24 170.714,1384.24 171.959,1384.24 173.205,1384.24 174.45,1384.24 175.696,1384.24 176.941,1384.24 178.186,1384.24 179.432,1384.24 180.677,1384.24 181.923,1384.24 183.168,1384.24 184.414,1384.24 185.659,1384.24 186.905,1384.24 188.15,1384.24 189.396,1384.24 190.641,1384.24 191.886,1384.24 193.132,1384.24 194.377,1384.24 195.623,1384.24 196.868,1384.24 198.114,1384.24 199.359,1384.24 200.605,1384.24 201.85,1384.24 203.096,1384.24 204.341,1384.24 205.587,1384.24 206.832,1384.24 208.077,1384.24 209.323,1384.24 210.568,1384.24 211.814,1384.24 213.059,1384.24 214.305,1384.24 215.55,1384.24 216.796,1384.24 218.041,1384.24 219.287,1384.24 220.532,1384.24 221.777,1384.24 223.023,1384.24 224.268,1384.24 225.514,1384.24 226.759,1384.24 228.005,1384.24 229.25,1384.24 230.496,1384.24 231.741,1384.24 232.987,1384.24 234.232,1384.24 235.478,1384.24 236.723,1384.24 237.968,1384.24 239.214,1384.24 240.459,1384.24 241.705,1384.24 242.95,1384.24 244.196,1384.24 245.441,1384.24 246.687,1384.24 247.932,1384.24 249.178,1384.24 250.423,1384.24 251.668,1384.24 252.914,1384.24 254.159,1384.24 255.405,1384.24 256.65,1384.24 257.896,1384.24 259.141,1384.24 260.387,1384.24 261.632,1384.24 262.878,1384.24 264.123,1384.24 265.368,1384.24 266.614,1384.24 267.859,1384.24 269.105,1384.24 270.35,1384.24 271.596,1384.24 272.841,1384.24 274.087,1384.24 275.332,1384.24 276.578,1384.24 277.823,1384.24 279.069,1384.24 280.314,1384.24 281.559,1384.24 282.805,1384.24 284.05,1384.24 285.296,1384.24 286.541,1384.24 287.787,1384.24 289.032,1384.24 290.278,1384.24 291.523,1384.24 292.769,1384.24 294.014,1384.24 295.259,1384.24 296.505,1384.24 297.75,1384.24 298.996,1384.24 300.241,1384.24 301.487,1384.24 302.732,1384.24 303.978,1384.24 305.223,1384.24 306.469,1384.24 307.714,1384.24 308.96,1384.24 310.205,1384.24 311.45,1384.24 312.696,1384.24 313.941,1384.24 315.187,1384.24 316.432,1384.24 317.678,1384.24 318.923,1384.24 320.169,1384.24 321.414,1384.24 322.66,1384.24 323.905,1384.24 325.15,1384.24 326.396,1384.24 327.641,1384.24 328.887,1384.24 330.132,1384.24 331.378,1384.24 332.623,1384.24 333.869,1384.24 335.114,1384.24 336.36,1384.24 337.605,1384.24 338.851,1384.24 340.096,1384.24 341.341,1384.24 342.587,1384.24 343.832,1384.24 345.078,1384.24 346.323,1384.24 347.569,1384.24 348.814,1384.24 350.06,1384.24 351.305,1384.24 352.551,1384.24 353.796,1384.24 355.041,1384.24 356.287,1384.24 357.532,1384.24 358.778,1384.24 360.023,1384.24 361.269,1384.24 362.514,1384.24 363.76,1384.24 365.005,1384.24 366.251,1384.24 367.496,1384.24 368.741,1384.24 369.987,1384.24 371.232,1384.24 372.478,1384.24 373.723,1384.24 374.969,1384.24 376.214,1384.24 377.46,1384.24 378.705,1384.24 379.951,1384.24 381.196,1384.24 382.442,1384.24 383.687,1384.24 384.932,1384.24 386.178,1384.24 387.423,1384.24 388.669,1384.24 389.914,1384.24 391.16,1384.24 392.405,1384.24 393.651,1384.24 394.896,1384.24 396.142,1384.24 397.387,1384.24 398.632,1384.24 399.878,1384.24 401.123,1384.24 402.369,1384.24 403.614,1384.24 404.86,1384.24 406.105,1384.24 407.351,1384.24 408.596,1384.24 409.842,1384.24 411.087,1384.24 412.333,1384.24 413.578,1384.24 414.823,1384.24 416.069,1384.24 417.314,1384.24 418.56,1384.24 419.805,1384.24 421.051,1384.24 422.296,1384.24 423.542,1384.24 424.787,1384.24 426.033,1384.24 427.278,1384.24 428.523,1384.24 429.769,1384.24 431.014,1384.24 432.26,1384.24 433.505,1384.24 434.751,1384.24 435.996,1384.24 437.242,1384.24 438.487,1384.24 439.733,1384.24 440.978,1384.24 442.224,1384.24 443.469,1384.24 444.714,1384.24 445.96,1384.24 447.205,1384.24 448.451,1384.24 449.696,1384.24 450.942,1384.24 452.187,1384.24 453.433,1384.24 454.678,1384.24 455.924,1384.24 457.169,1384.24 458.414,1384.24 459.66,1384.24 460.905,1384.24 462.151,1384.24 463.396,1384.24 464.642,1384.24 465.887,1384.24 467.133,1384.24 468.378,1384.24 469.624,1384.24 470.869,1384.24 472.115,1384.24 473.36,1384.24 474.605,1384.24 475.851,1384.24 477.096,1384.24 478.342,1384.24 479.587,1384.24 480.833,1384.24 482.078,1384.24 483.324,1384.24 484.569,1384.24 485.815,1384.24 487.06,1384.24 488.305,1384.24 489.551,1384.24 490.796,1384.24 492.042,1384.24 493.287,1384.24 494.533,1384.24 495.778,1384.24 497.024,1384.24 498.269,1384.24 499.515,1384.24 500.76,1384.24 502.005,1384.24 503.251,1384.24 504.496,1384.24 505.742,1384.24 506.987,1384.24 508.233,1384.24 509.478,1384.24 510.724,1384.24 511.969,1384.24 513.215,1384.24 514.46,1384.24 515.706,1384.24 516.951,1384.24 518.196,1384.24 519.442,1384.24 520.687,1384.24 521.933,1384.24 523.178,1384.24 524.424,1384.24 525.669,1384.24 526.915,1384.24 528.16,1240.01 529.406,1240.01 530.651,1240.01 531.896,1240.01 533.142,1240.01 534.387,1240.01 535.633,1240.01 536.878,1240.01 538.124,1240.01 539.369,1240.01 540.615,1240.01 541.86,1240.01 543.106,1240.01 544.351,1240.01 545.597,1240.01 546.842,1240.01 548.087,1240.01 549.333,1240.01 550.578,1240.01 551.824,1240.01 553.069,1240.01 554.315,1240.01 555.56,1240.01 556.806,1240.01 558.051,1240.01 559.297,1240.01 560.542,1240.01 561.787,1240.01 563.033,1240.01 564.278,1240.01 565.524,1240.01 566.769,1240.01 568.015,1240.01 569.26,1240.01 570.506,1240.01 571.751,1240.01 572.997,1240.01 574.242,1240.01 575.488,1240.01 576.733,1240.01 577.978,1240.01 579.224,1240.01 580.469,1240.01 581.715,1240.01 582.96,1240.01 584.206,1240.01 585.451,1240.01 586.697,1240.01 587.942,1240.01 589.188,1240.01 590.433,1240.01 591.678,1240.01 592.924,1240.01 594.169,1240.01 595.415,1240.01 596.66,1240.01 597.906,1240.01 599.151,1240.01 600.397,1240.01 601.642,1240.01 602.888,1240.01 604.133,1240.01 605.378,1240.01 606.624,1240.01 607.869,1240.01 609.115,1240.01 610.36,1240.01 611.606,1240.01 612.851,1240.01 614.097,1240.01 615.342,1240.01 616.588,1240.01 617.833,1240.01 619.079,1240.01 620.324,1240.01 621.569,1240.01 622.815,1240.01 624.06,1240.01 625.306,1240.01 626.551,1240.01 627.797,1240.01 629.042,1240.01 630.288,1240.01 631.533,1240.01 632.779,1240.01 634.024,1240.01 635.269,1240.01 636.515,1240.01 637.76,1240.01 639.006,1240.01 640.251,1240.01 641.497,1240.01 642.742,1240.01 643.988,1240.01 645.233,1240.01 646.479,1240.01 647.724,1240.01 648.97,1240.01 650.215,1240.01 651.46,1240.01 652.706,1240.01 653.951,1240.01 655.197,1240.01 656.442,1240.01 657.688,1240.01 658.933,1240.01 660.179,1240.01 661.424,1240.01 662.67,1240.01 663.915,1240.01 665.16,1240.01 666.406,1240.01 667.651,1240.01 668.897,1240.01 670.142,1240.01 671.388,1240.01 672.633,1240.01 673.879,1240.01 675.124,1240.01 676.37,1240.01 677.615,1240.01 678.861,1240.01 680.106,1240.01 681.351,1240.01 682.597,1240.01 683.842,1240.01 685.088,1240.01 686.333,1240.01 687.579,1240.01 688.824,1240.01 690.07,1240.01 691.315,1240.01 692.561,1240.01 693.806,1240.01 695.051,1240.01 696.297,1240.01 697.542,1240.01 698.788,1240.01 700.033,1240.01 701.279,1240.01 702.524,1240.01 703.77,1240.01 705.015,1240.01 706.261,1240.01 707.506,1240.01 708.752,1240.01 709.997,1240.01 711.242,1240.01 712.488,1240.01 713.733,1240.01 714.979,1240.01 716.224,1240.01 717.47,1240.01 718.715,1240.01 719.961,1240.01 721.206,1240.01 722.452,1240.01 723.697,1240.01 724.942,1240.01 726.188,1240.01 727.433,1240.01 728.679,1240.01 729.924,1240.01 731.17,1240.01 732.415,1240.01 733.661,1240.01 734.906,1240.01 736.152,1240.01 737.397,1240.01 738.642,1240.01 739.888,1240.01 741.133,1240.01 742.379,1240.01 743.624,1240.01 744.87,1240.01 746.115,1240.01 747.361,1240.01 748.606,1240.01 749.852,1240.01 751.097,1240.01 752.343,1240.01 753.588,1240.01 754.833,1240.01 756.079,1240.01 757.324,1240.01 758.57,1240.01 759.815,1240.01 761.061,1240.01 762.306,1240.01 763.552,1240.01 764.797,1240.01 766.043,1240.01 767.288,1240.01 768.533,1240.01 769.779,1240.01 771.024,1240.01 772.27,1240.01 773.515,1240.01 774.761,1240.01 776.006,1240.01 777.252,1240.01 778.497,1240.01 779.743,1240.01 780.988,1240.01 782.234,1240.01 783.479,1240.01 784.724,1240.01 785.97,1240.01 787.215,1240.01 788.461,1240.01 789.706,1240.01 790.952,1240.01 792.197,1240.01 793.443,1240.01 794.688,1240.01 795.934,1240.01 797.179,1240.01 798.424,1240.01 799.67,1240.01 800.915,1240.01 802.161,1240.01 803.406,1240.01 804.652,1240.01 805.897,1240.01 807.143,1240.01 808.388,1240.01 809.634,1240.01 810.879,1240.01 812.125,1240.01 813.37,1240.01 814.615,1240.01 815.861,1240.01 817.106,1240.01 818.352,1240.01 819.597,1240.01 820.843,1240.01 822.088,1240.01 823.334,1240.01 824.579,1240.01 825.825,1240.01 827.07,1240.01 828.315,1240.01 829.561,1240.01 830.806,1240.01 832.052,1240.01 833.297,1240.01 834.543,1240.01 835.788,1240.01 837.034,1240.01 838.279,1240.01 839.525,1240.01 840.77,1240.01 842.015,1240.01 843.261,1240.01 844.506,1240.01 845.752,1240.01 846.997,1240.01 848.243,1240.01 849.488,1240.01 850.734,1240.01 851.979,1240.01 853.225,1240.01 854.47,1240.01 855.716,1240.01 856.961,1240.01 858.206,1240.01 859.452,1240.01 860.697,1240.01 861.943,1240.01 863.188,1240.01 864.434,1240.01 865.679,1240.01 866.925,1240.01 868.17,1240.01 869.416,1240.01 870.661,1240.01 871.906,1240.01 873.152,1240.01 874.397,1240.01 875.643,1240.01 876.888,1240.01 878.134,1240.01 879.379,1240.01 880.625,1240.01 881.87,1240.01 883.116,1240.01 884.361,1240.01 885.607,1240.01 886.852,1240.01 888.097,1240.01 889.343,1240.01 890.588,1240.01 891.834,1240.01 893.079,1240.01 894.325,1240.01 895.57,1240.01 896.816,1240.01 898.061,1240.01 899.307,1240.01 900.552,1240.01 901.797,1240.01 903.043,1240.01 904.288,1240.01 905.534,1240.01 906.779,1240.01 908.025,1240.01 909.27,1240.01 910.516,1240.01 911.761,1240.01 913.007,1240.01 914.252,1240.01 915.498,1240.01 916.743,1240.01 917.988,1240.01 919.234,1240.01 920.479,1240.01 921.725,1240.01 922.97,1240.01 924.216,1240.01 925.461,1240.01 926.707,1240.01 927.952,1240.01 929.198,1240.01 930.443,1240.01 931.688,1240.01 932.934,1240.01 934.179,1240.01 935.425,1240.01 936.67,1240.01 937.916,1240.01 939.161,1240.01 940.407,1240.01 941.652,1240.01 942.898,1240.01 944.143,1240.01 945.388,1240.01 946.634,1240.01 947.879,1240.01 949.125,1240.01 950.37,1240.01 951.616,1240.01 952.861,1240.01 954.107,1240.01 955.352,1240.01 956.598,1240.01 957.843,1240.01 959.089,1240.01 960.334,1240.01 961.579,1240.01 962.825,1240.01 964.07,1240.01 965.316,1240.01 966.561,1240.01 967.807,1240.01 969.052,1240.01 970.298,1240.01 971.543,1240.01 972.789,1240.01 974.034,1240.01 975.279,1240.01 976.525,1240.01 977.77,1240.01 979.016,1240.01 980.261,1240.01 981.507,1240.01 982.752,1240.01 983.998,1240.01 985.243,1240.01 986.489,1240.01 987.734,1240.01 988.98,1240.01 990.225,1240.01 991.47,1240.01 992.716,1240.01 993.961,1240.01 995.207,1240.01 996.452,1240.01 997.698,1240.01 998.943,1240.01 1000.19,1240.01 1001.43,1240.01 1002.68,1240.01 1003.93,1240.01 1005.17,1240.01 1006.42,1240.01 1007.66,1240.01 1008.91,1240.01 1010.15,1240.01 1011.4,1240.01 1012.64,1240.01 1013.89,1240.01 1015.13,1240.01 1016.38,1240.01 1017.63,1240.01 1018.87,1240.01 1020.12,1240.01 1021.36,1240.01 1022.61,1240.01 1023.85,1240.01 1025.1,1240.01 1026.34,1240.01 1027.59,1240.01 1028.83,1240.01 1030.08,1240.01 1031.33,1240.01 1032.57,1240.01 1033.82,1240.01 1035.06,1240.01 1036.31,1240.01 1037.55,1240.01 1038.8,1240.01 1040.04,1240.01 1041.29,1240.01 1042.53,1240.01 1043.78,1240.01 1045.03,1240.01 1046.27,1240.01 1047.52,1240.01 1048.76,1240.01 1050.01,1240.01 1051.25,1240.01 1052.5,1240.01 1053.74,1240.01 1054.99,1240.01 1056.23,1240.01 1057.48,1240.01 1058.73,1240.01 1059.97,1240.01 1061.22,1240.01 1062.46,1240.01 1063.71,1240.01 1064.95,1240.01 1066.2,1240.01 1067.44,1240.01 1068.69,1240.01 1069.93,1240.01 1071.18,1240.01 1072.43,1240.01 1073.67,1240.01 1074.92,1240.01 1076.16,1240.01 1077.41,1240.01 1078.65,1240.01 1079.9,1240.01 1081.14,1240.01 1082.39,1240.01 1083.63,1240.01 1084.88,1240.01 1086.13,1240.01 1087.37,1240.01 1088.62,1240.01 1089.86,1240.01 1091.11,1240.01 1092.35,1240.01 1093.6,1240.01 1094.84,1240.01 1096.09,1240.01 1097.33,1240.01 1098.58,1240.01 1099.83,1240.01 1101.07,1240.01 1102.32,1240.01 1103.56,1240.01 1104.81,1240.01 1106.05,1240.01 1107.3,1240.01 1108.54,1240.01 1109.79,1240.01 1111.03,1240.01 1112.28,1240.01 1113.53,1240.01 1114.77,1240.01 1116.02,1240.01 1117.26,1240.01 1118.51,1240.01 1119.75,1240.01 1121,1240.01 1122.24,1240.01 1123.49,1240.01 1124.73,1240.01 1125.98,1240.01 1127.23,1240.01 1128.47,1240.01 1129.72,1240.01 1130.96,1240.01 1132.21,1240.01 1133.45,1240.01 1134.7,1240.01 1135.94,1240.01 1137.19,1240.01 1138.43,1240.01 1139.68,1240.01 1140.93,1240.01 1142.17,1240.01 1143.42,1240.01 1144.66,1240.01 1145.91,1240.01 1147.15,1240.01 1148.4,1240.01 1149.64,1240.01 1150.89,1240.01 1152.13,1240.01 1153.38,1240.01 1154.63,1240.01 1155.87,1240.01 1157.12,1240.01 1158.36,1240.01 1159.61,1240.01 1160.85,1240.01 1162.1,1240.01 1163.34,1240.01 1164.59,1240.01 1165.83,1240.01 1167.08,1240.01 1168.33,1240.01 1169.57,1240.01 1170.82,1240.01 1172.06,1240.01 1173.31,1240.01 1174.55,1240.01 1175.8,1240.01 1177.04,1240.01 1178.29,1240.01 1179.53,1240.01 1180.78,1240.01 1182.03,1240.01 1183.27,1240.01 1184.52,1240.01 1185.76,1240.01 1187.01,1240.01 1188.25,1240.01 1189.5,1240.01 1190.74,1240.01 1191.99,1240.01 1193.23,1240.01 1194.48,1240.01 1195.73,1240.01 1196.97,1240.01 1198.22,1240.01 1199.46,1240.01 1200.71,1240.01 1201.95,1240.01 1203.2,1240.01 1204.44,1240.01 1205.69,1240.01 1206.93,1095.78 1208.18,1095.78 1209.43,1095.78 1210.67,1095.78 1211.92,1095.78 1213.16,1095.78 1214.41,1095.78 1215.65,1095.78 1216.9,1095.78 1218.14,1095.78 1219.39,1095.78 1220.63,1095.78 1221.88,1095.78 1223.13,1095.78 1224.37,1095.78 1225.62,1095.78 1226.86,1095.78 1228.11,1095.78 1229.35,1095.78 1230.6,1095.78 1231.84,1095.78 1233.09,1095.78 1234.33,1095.78 1235.58,1095.78 1236.83,1095.78 1238.07,1095.78 1239.32,1095.78 1240.56,1095.78 1241.81,1095.78 1243.05,1095.78 1244.3,1095.78 1245.54,1095.78 1246.79,1095.78 1248.03,1095.78 1249.28,951.554 1250.53,951.554 1251.77,951.554 1253.02,951.554 1254.26,951.554 1255.51,951.554 1256.75,951.554 1258,951.554 1259.24,951.554 1260.49,951.554 1261.73,951.554 1262.98,951.554 1264.23,951.554 1265.47,951.554 1266.72,951.554 1267.96,951.554 1269.21,951.554 1270.45,951.554 1271.7,951.554 1272.94,951.554 1274.19,951.554 1275.43,951.554 1276.68,951.554 1277.93,951.554 1279.17,951.554 1280.42,951.554 1281.66,951.554 1282.91,951.554 1284.15,951.554 1285.4,951.554 1286.64,951.554 1287.89,951.554 1289.13,951.554 1290.38,951.554 1291.63,951.554 1292.87,951.554 1294.12,951.554 1295.36,951.554 1296.61,951.554 1297.85,951.554 1299.1,951.554 1300.34,951.554 1301.59,951.554 1302.83,951.554 1304.08,951.554 1305.33,951.554 1306.57,951.554 1307.82,951.554 1309.06,951.554 1310.31,951.554 1311.55,951.554 1312.8,951.554 1314.04,951.554 1315.29,951.554 1316.53,951.554 1317.78,951.554 1319.03,951.554 1320.27,951.554 1321.52,951.554 1322.76,951.554 1324.01,951.554 1325.25,951.554 1326.5,951.554 1327.74,951.554 1328.99,951.554 1330.23,951.554 1331.48,951.554 1332.73,951.554 1333.97,951.554 1335.22,951.554 1336.46,951.554 1337.71,951.554 1338.95,951.554 1340.2,951.554 1341.44,951.554 1342.69,951.554 1343.94,951.554 1345.18,951.554 1346.43,951.554 1347.67,951.554 1348.92,951.554 1350.16,951.554 1351.41,951.554 1352.65,951.554 1353.9,951.554 1355.14,951.554 1356.39,951.554 1357.64,951.554 1358.88,951.554 1360.13,951.554 1361.37,951.554 1362.62,951.554 1363.86,951.554 1365.11,951.554 1366.35,951.554 1367.6,951.554 1368.84,951.554 1370.09,951.554 1371.34,951.554 1372.58,951.554 1373.83,951.554 1375.07,951.554 1376.32,951.554 1377.56,951.554 1378.81,951.554 1380.05,951.554 1381.3,951.554 1382.54,951.554 1383.79,951.554 1385.04,951.554 1386.28,951.554 1387.53,951.554 1388.77,951.554 1390.02,951.554 1391.26,951.554 1392.51,951.554 1393.75,951.554 1395,951.554 1396.24,951.554 1397.49,951.554 1398.74,951.554 1399.98,951.554 1401.23,951.554 1402.47,951.554 1403.72,951.554 1404.96,951.554 1406.21,951.554 1407.45,951.554 1408.7,951.554 1409.94,951.554 1411.19,951.554 1412.44,951.554 1413.68,951.554 1414.93,951.554 1416.17,807.326 1417.42,807.326 1418.66,807.326 1419.91,807.326 1421.15,807.326 1422.4,807.326 1423.64,807.326 1424.89,807.326 1426.14,807.326 1427.38,807.326 1428.63,807.326 1429.87,807.326 1431.12,807.326 1432.36,807.326 1433.61,807.326 1434.85,807.326 1436.1,807.326 1437.34,807.326 1438.59,807.326 1439.84,807.326 1441.08,807.326 1442.33,807.326 1443.57,807.326 1444.82,807.326 1446.06,807.326 1447.31,807.326 1448.55,807.326 1449.8,807.326 1451.04,807.326 1452.29,807.326 1453.54,807.326 1454.78,807.326 1456.03,807.326 1457.27,807.326 1458.52,807.326 1459.76,807.326 1461.01,807.326 1462.25,807.326 1463.5,807.326 1464.74,807.326 1465.99,807.326 1467.24,807.326 1468.48,807.326 1469.73,807.326 1470.97,807.326 1472.22,807.326 1473.46,807.326 1474.71,807.326 1475.95,807.326 1477.2,807.326 1478.44,807.326 1479.69,807.326 1480.94,807.326 1482.18,807.326 1483.43,807.326 1484.67,807.326 1485.92,807.326 1487.16,807.326 1488.41,807.326 1489.65,807.326 1490.9,807.326 1492.14,807.326 1493.39,807.326 1494.64,807.326 1495.88,807.326 1497.13,807.326 1498.37,807.326 1499.62,807.326 1500.86,807.326 1502.11,807.326 1503.35,807.326 1504.6,807.326 1505.84,807.326 1507.09,807.326 1508.34,807.326 1509.58,807.326 1510.83,807.326 1512.07,807.326 1513.32,807.326 1514.56,807.326 1515.81,807.326 1517.05,807.326 1518.3,807.326 1519.54,807.326 1520.79,807.326 1522.04,807.326 1523.28,807.326 1524.53,807.326 1525.77,807.326 1527.02,807.326 1528.26,807.326 1529.51,807.326 1530.75,807.326 1532,807.326 1533.24,807.326 1534.49,807.326 1535.74,807.326 1536.98,807.326 1538.23,807.326 1539.47,807.326 1540.72,807.326 1541.96,807.326 1543.21,807.326 1544.45,807.326 1545.7,807.326 1546.94,807.326 1548.19,807.326 1549.44,807.326 1550.68,807.326 1551.93,807.326 1553.17,807.326 1554.42,807.326 1555.66,807.326 1556.91,807.326 1558.15,807.326 1559.4,807.326 1560.64,807.326 1561.89,807.326 1563.14,807.326 1564.38,807.326 1565.63,807.326 1566.87,807.326 1568.12,807.326 1569.36,807.326 1570.61,807.326 1571.85,807.326 1573.1,807.326 1574.34,807.326 1575.59,807.326 1576.84,807.326 1578.08,807.326 1579.33,807.326 1580.57,807.326 1581.82,807.326 1583.06,807.326 1584.31,807.326 1585.55,807.326 1586.8,807.326 1588.04,807.326 1589.29,807.326 1590.54,807.326 1591.78,807.326 1593.03,807.326 1594.27,807.326 1595.52,807.326 1596.76,807.326 1598.01,807.326 1599.25,807.326 1600.5,807.326 1601.74,807.326 1602.99,807.326 1604.24,807.326 1605.48,807.326 1606.73,807.326 1607.97,807.326 1609.22,807.326 1610.46,807.326 1611.71,807.326 1612.95,807.326 1614.2,807.326 1615.44,807.326 1616.69,807.326 1617.94,807.326 1619.18,807.326 1620.43,807.326 1621.67,807.326 1622.92,807.326 1624.16,807.326 1625.41,807.326 1626.65,807.326 1627.9,807.326 1629.14,807.326 1630.39,807.326 1631.64,807.326 1632.88,807.326 1634.13,807.326 1635.37,807.326 1636.62,807.326 1637.86,807.326 1639.11,807.326 1640.35,807.326 1641.6,807.326 1642.84,807.326 1644.09,807.326 1645.34,807.326 1646.58,807.326 1647.83,807.326 1649.07,807.326 1650.32,807.326 1651.56,807.326 1652.81,807.326 1654.05,807.326 1655.3,807.326 1656.54,807.326 1657.79,807.326 1659.04,807.326 1660.28,807.326 1661.53,807.326 1662.77,807.326 1664.02,807.326 1665.26,807.326 1666.51,807.326 1667.75,807.326 1669,807.326 1670.24,807.326 1671.49,807.326 1672.74,807.326 1673.98,807.326 1675.23,807.326 1676.47,807.326 1677.72,807.326 1678.96,807.326 1680.21,807.326 1681.45,807.326 1682.7,807.326 1683.95,807.326 1685.19,807.326 1686.44,807.326 1687.68,807.326 1688.93,807.326 1690.17,807.326 1691.42,807.326 1692.66,807.326 1693.91,807.326 1695.15,807.326 1696.4,807.326 1697.65,807.326 1698.89,807.326 1700.14,807.326 1701.38,807.326 1702.63,807.326 1703.87,807.326 1705.12,807.326 1706.36,807.326 1707.61,807.326 1708.85,807.326 1710.1,807.326 1711.35,807.326 1712.59,807.326 1713.84,807.326 1715.08,807.326 1716.33,807.326 1717.57,807.326 1718.82,807.326 1720.06,807.326 1721.31,807.326 1722.55,807.326 1723.8,807.326 1725.05,807.326 1726.29,807.326 1727.54,807.326 1728.78,807.326 1730.03,807.326 1731.27,807.326 1732.52,807.326 1733.76,807.326 1735.01,807.326 1736.25,807.326 1737.5,807.326 1738.75,807.326 1739.99,807.326 1741.24,807.326 1742.48,807.326 1743.73,807.326 1744.97,807.326 1746.22,807.326 1747.46,807.326 1748.71,807.326 1749.95,807.326 1751.2,807.326 1752.45,807.326 1753.69,807.326 1754.94,807.326 1756.18,807.326 1757.43,807.326 1758.67,807.326 1759.92,807.326 1761.16,807.326 1762.41,807.326 1763.65,807.326 1764.9,807.326 1766.15,807.326 1767.39,807.326 1768.64,807.326 1769.88,807.326 1771.13,807.326 1772.37,807.326 1773.62,807.326 1774.86,807.326 1776.11,807.326 1777.35,807.326 1778.6,807.326 1779.85,807.326 1781.09,807.326 1782.34,807.326 1783.58,807.326 1784.83,807.326 1786.07,807.326 1787.32,807.326 1788.56,807.326 1789.81,807.326 1791.05,807.326 1792.3,807.326 1793.55,807.326 1794.79,807.326 1796.04,807.326 1797.28,807.326 1798.53,807.326 1799.77,807.326 1801.02,807.326 1802.26,807.326 1803.51,807.326 1804.75,807.326 1806,663.098 1807.25,663.098 1808.49,663.098 1809.74,663.098 1810.98,663.098 1812.23,663.098 1813.47,663.098 1814.72,663.098 1815.96,663.098 1817.21,663.098 1818.45,663.098 1819.7,663.098 1820.95,663.098 1822.19,663.098 1823.44,663.098 1824.68,663.098 1825.93,663.098 1827.17,663.098 1828.42,663.098 1829.66,663.098 1830.91,663.098 1832.15,663.098 1833.4,663.098 1834.65,663.098 1835.89,663.098 1837.14,663.098 1838.38,663.098 1839.63,663.098 1840.87,663.098 1842.12,663.098 1843.36,663.098 1844.61,663.098 1845.85,663.098 1847.1,663.098 1848.35,663.098 1849.59,663.098 1850.84,663.098 1852.08,663.098 1853.33,663.098 1854.57,663.098 1855.82,663.098 1857.06,663.098 1858.31,663.098 1859.55,663.098 1860.8,663.098 1862.05,663.098 1863.29,663.098 1864.54,663.098 1865.78,663.098 1867.03,663.098 1868.27,663.098 1869.52,663.098 1870.76,663.098 1872.01,663.098 1873.25,663.098 1874.5,663.098 1875.75,663.098 1876.99,663.098 1878.24,663.098 1879.48,663.098 1880.73,663.098 1881.97,663.098 1883.22,663.098 1884.46,663.098 1885.71,663.098 1886.95,663.098 1888.2,663.098 1889.45,663.098 1890.69,663.098 1891.94,663.098 1893.18,663.098 1894.43,663.098 1895.67,663.098 1896.92,663.098 1898.16,518.87 1899.41,518.87 1900.65,518.87 1901.9,518.87 1903.15,518.87 1904.39,518.87 1905.64,518.87 1906.88,518.87 1908.13,518.87 1909.37,518.87 1910.62,518.87 1911.86,518.87 1913.11,518.87 1914.35,518.87 1915.6,518.87 1916.85,518.87 1918.09,518.87 1919.34,518.87 1920.58,518.87 1921.83,518.87 1923.07,518.87 1924.32,518.87 1925.56,518.87 1926.81,518.87 1928.05,518.87 1929.3,518.87 1930.55,518.87 1931.79,518.87 1933.04,518.87 1934.28,518.87 1935.53,518.87 1936.77,518.87 1938.02,518.87 1939.26,518.87 1940.51,518.87 1941.75,518.87 1943,518.87 1944.25,518.87 1945.49,518.87 1946.74,518.87 1947.98,518.87 1949.23,518.87 1950.47,518.87 1951.72,518.87 1952.96,518.87 1954.21,518.87 1955.45,518.87 1956.7,518.87 1957.95,518.87 1959.19,518.87 1960.44,518.87 1961.68,518.87 1962.93,518.87 1964.17,518.87 1965.42,518.87 1966.66,518.87 1967.91,518.87 1969.15,518.87 1970.4,518.87 1971.65,518.87 1972.89,518.87 1974.14,518.87 1975.38,518.87 1976.63,518.87 1977.87,518.87 1979.12,518.87 1980.36,518.87 1981.61,518.87 1982.85,518.87 1984.1,518.87 1985.35,518.87 1986.59,518.87 1987.84,518.87 1989.08,518.87 1990.33,518.87 1991.57,518.87 1992.82,518.87 1994.06,518.87 1995.31,518.87 1996.55,518.87 1997.8,518.87 1999.05,518.87 2000.29,518.87 2001.54,518.87 2002.78,518.87 2004.03,518.87 2005.27,518.87 2006.52,518.87 2007.76,518.87 2009.01,518.87 2010.25,518.87 2011.5,518.87 2012.75,518.87 2013.99,518.87 2015.24,518.87 2016.48,518.87 2017.73,518.87 2018.97,518.87 2020.22,518.87 2021.46,518.87 2022.71,518.87 2023.96,518.87 2025.2,518.87 2026.45,518.87 2027.69,518.87 2028.94,518.87 2030.18,518.87 2031.43,518.87 2032.67,518.87 2033.92,518.87 2035.16,518.87 2036.41,518.87 2037.66,518.87 2038.9,518.87 2040.15,518.87 2041.39,518.87 2042.64,518.87 2043.88,518.87 2045.13,518.87 2046.37,518.87 2047.62,518.87 2048.86,518.87 2050.11,518.87 2051.36,518.87 2052.6,518.87 2053.85,518.87 2055.09,518.87 2056.34,518.87 2057.58,518.87 2058.83,518.87 2060.07,518.87 2061.32,518.87 2062.56,518.87 2063.81,518.87 2065.06,518.87 2066.3,518.87 2067.55,518.87 2068.79,518.87 2070.04,518.87 2071.28,518.87 2072.53,518.87 2073.77,518.87 2075.02,518.87 2076.26,518.87 2077.51,518.87 2078.76,518.87 2080,518.87 2081.25,518.87 2082.49,518.87 2083.74,518.87 2084.98,518.87 2086.23,518.87 2087.47,518.87 2088.72,374.642 2089.96,374.642 2091.21,374.642 2092.46,374.642 2093.7,374.642 2094.95,374.642 2096.19,374.642 2097.44,374.642 2098.68,374.642 2099.93,374.642 2101.17,374.642 2102.42,374.642 2103.66,374.642 2104.91,374.642 2106.16,374.642 2107.4,374.642 2108.65,374.642 2109.89,374.642 2111.14,374.642 2112.38,374.642 2113.63,374.642 2114.87,374.642 2116.12,374.642 2117.36,374.642 2118.61,374.642 2119.86,374.642 2121.1,374.642 2122.35,374.642 2123.59,230.414 2124.84,230.414 2126.08,230.414 2127.33,230.414 2128.57,230.414 2129.82,230.414 2131.06,230.414 2132.31,230.414 2133.56,230.414 2134.8,230.414 2136.05,230.414 2137.29,230.414 2138.54,230.414 2139.78,230.414 2141.03,230.414 2142.27,230.414 2143.52,230.414 2144.76,230.414 2146.01,230.414 2147.26,230.414 2148.5,230.414 2149.75,230.414 2150.99,230.414 2152.24,230.414 2153.48,230.414 2154.73,230.414 2155.97,230.414 2157.22,230.414 2158.46,230.414 2159.71,230.414 2160.96,230.414 2162.2,230.414 2163.45,230.414 2164.69,230.414 2165.94,230.414 2167.18,230.414 2168.43,230.414 2169.67,230.414 2170.92,230.414 2172.16,230.414 2173.41,230.414 2174.66,230.414 2175.9,230.414 2177.15,230.414 2178.39,230.414 2179.64,230.414 2180.88,230.414 2182.13,230.414 2183.37,230.414 2184.62,230.414 2185.86,230.414 2187.11,230.414 2188.36,230.414 2189.6,230.414 2190.85,230.414 2192.09,230.414 2193.34,230.414 2194.58,230.414 2195.83,230.414 2197.07,230.414 2198.32,230.414 2199.56,230.414 2200.81,230.414 2202.06,230.414 2203.3,230.414 2204.55,230.414 2205.79,230.414 2207.04,230.414 2208.28,230.414 2209.53,230.414 2210.77,230.414 2212.02,230.414 2213.26,230.414 2214.51,230.414 2215.76,230.414 2217,230.414 2218.25,230.414 2219.49,230.414 2220.74,230.414 2221.98,230.414 2223.23,230.414 2224.47,230.414 2225.72,230.414 2226.96,230.414 2228.21,230.414 2229.46,230.414 2230.7,230.414 2231.95,230.414 2233.19,230.414 2234.44,230.414 2235.68,230.414 2236.93,230.414 2238.17,230.414 2239.42,230.414 2240.66,230.414 2241.91,230.414 2243.16,230.414 2244.4,230.414 2245.65,230.414 2246.89,230.414 2248.14,230.414 2249.38,230.414 2250.63,86.1857 2251.87,86.1857 2253.12,86.1857 2254.36,86.1857 2255.61,86.1857 2256.86,86.1857 2258.1,86.1857 2259.35,86.1857 2260.59,86.1857 2261.84,86.1857 2263.08,86.1857 2264.33,86.1857 2265.57,86.1857 2266.82,86.1857 2268.06,86.1857 2269.31,86.1857 2270.56,86.1857 2271.8,86.1857 2273.05,86.1857 2274.29,86.1857 2275.54,86.1857 2276.78,86.1857 2278.03,86.1857 2279.27,86.1857 2280.52,86.1857 2281.76,86.1857 2283.01,86.1857 2284.26,86.1857 2285.5,86.1857 2286.75,86.1857 2287.99,86.1857 2289.24,86.1857 2290.48,86.1857 2291.73,86.1857 2292.97,86.1857 2294.22,86.1857 2295.46,86.1857 2296.71,86.1857 2297.96,86.1857 2299.2,86.1857 2300.45,86.1857 2301.69,86.1857 2302.94,86.1857 2304.18,86.1857 2305.43,86.1857 2306.67,86.1857 2307.92,86.1857 2309.16,86.1857 2310.41,86.1857 2311.66,86.1857 2312.9,86.1857 2314.15,86.1857 2315.39,86.1857 2316.64,86.1857 2317.88,86.1857 2319.13,86.1857 2320.37,86.1857 2321.62,86.1857 2322.86,86.1857 2324.11,86.1857 2325.36,86.1857 2326.6,86.1857 2327.85,86.1857 2329.09,86.1857 2330.34,86.1857 2331.58,86.1857 2332.83,86.1857 2334.07,86.1857 2335.32,86.1857 2336.56,86.1857 2337.81,86.1857 2339.06,86.1857 2340.3,86.1857 2341.55,86.1857 2342.79,86.1857 2344.04,86.1857 2345.28,86.1857 2346.53,86.1857 2347.77,86.1857 2349.02,86.1857 2350.26,86.1857 2351.51,86.1857 2352.76,86.1857 "/>
<polyline clip-path="url(#clip891)" style="stroke:#e26f46; stroke-linecap:round; stroke-linejoin:round; stroke-width:8; stroke-opacity:1; fill:none" points="112.177,1384.24 113.423,1384.24 114.668,1384.24 115.914,1384.24 117.159,1384.24 118.404,1384.24 119.65,1384.24 120.895,1384.24 122.141,1384.24 123.386,1384.24 124.632,1384.24 125.877,1384.24 127.123,1384.24 128.368,1384.24 129.614,1384.24 130.859,1384.24 132.105,1384.24 133.35,1384.24 134.595,1384.24 135.841,1384.24 137.086,1384.24 138.332,1384.24 139.577,1384.24 140.823,1384.24 142.068,1384.24 143.314,1384.24 144.559,1384.24 145.805,1384.24 147.05,1384.24 148.295,1384.24 149.541,1384.24 150.786,1384.24 152.032,1384.24 153.277,1384.24 154.523,1384.24 155.768,1384.24 157.014,1384.24 158.259,1384.24 159.505,1384.24 160.75,1384.24 161.995,1384.24 163.241,1384.24 164.486,1384.24 165.732,1384.24 166.977,1384.24 168.223,1384.24 169.468,1384.24 170.714,1384.24 171.959,1384.24 173.205,1384.24 174.45,1384.24 175.696,1384.24 176.941,1384.24 178.186,1384.24 179.432,1384.24 180.677,1384.24 181.923,1384.24 183.168,1384.24 184.414,1384.24 185.659,1384.24 186.905,1384.24 188.15,1384.24 189.396,1384.24 190.641,1384.24 191.886,1384.24 193.132,1384.24 194.377,1384.24 195.623,1384.24 196.868,1384.24 198.114,1384.24 199.359,1384.24 200.605,1384.24 201.85,1384.24 203.096,1384.24 204.341,1384.24 205.587,1384.24 206.832,1384.24 208.077,1384.24 209.323,1384.24 210.568,1384.24 211.814,1384.24 213.059,1384.24 214.305,1384.24 215.55,1384.24 216.796,1384.24 218.041,1384.24 219.287,1384.24 220.532,1384.24 221.777,1384.24 223.023,1384.24 224.268,1384.24 225.514,1384.24 226.759,1384.24 228.005,1384.24 229.25,1384.24 230.496,1384.24 231.741,1384.24 232.987,1384.24 234.232,1384.24 235.478,1384.24 236.723,1384.24 237.968,1384.24 239.214,1384.24 240.459,1384.24 241.705,1384.24 242.95,1384.24 244.196,1384.24 245.441,1384.24 246.687,1384.24 247.932,1384.24 249.178,1384.24 250.423,1384.24 251.668,1384.24 252.914,1384.24 254.159,1384.24 255.405,1384.24 256.65,1384.24 257.896,1384.24 259.141,1384.24 260.387,1384.24 261.632,1384.24 262.878,1384.24 264.123,1384.24 265.368,1384.24 266.614,1384.24 267.859,1384.24 269.105,1384.24 270.35,1384.24 271.596,1384.24 272.841,1384.24 274.087,1384.24 275.332,1384.24 276.578,1384.24 277.823,1384.24 279.069,1384.24 280.314,1384.24 281.559,1384.24 282.805,1384.24 284.05,1384.24 285.296,1384.24 286.541,1384.24 287.787,1384.24 289.032,1384.24 290.278,1384.24 291.523,1384.24 292.769,1384.24 294.014,1384.24 295.259,1384.24 296.505,1384.24 297.75,1384.24 298.996,1384.24 300.241,1384.24 301.487,1384.24 302.732,1384.24 303.978,1384.24 305.223,1384.24 306.469,1384.24 307.714,1384.24 308.96,1384.24 310.205,1384.24 311.45,1384.24 312.696,1384.24 313.941,1384.24 315.187,1384.24 316.432,1384.24 317.678,1384.24 318.923,1384.24 320.169,1384.24 321.414,1384.24 322.66,1384.24 323.905,1384.24 325.15,1384.24 326.396,1384.24 327.641,1384.24 328.887,1384.24 330.132,1384.24 331.378,1384.24 332.623,1384.24 333.869,1384.24 335.114,1384.24 336.36,1384.24 337.605,1384.24 338.851,1384.24 340.096,1384.24 341.341,1384.24 342.587,1384.24 343.832,1384.24 345.078,1384.24 346.323,1384.24 347.569,1384.24 348.814,1384.24 350.06,1384.24 351.305,1384.24 352.551,1384.24 353.796,1384.24 355.041,1384.24 356.287,1384.24 357.532,1384.24 358.778,1384.24 360.023,1384.24 361.269,1384.24 362.514,1384.24 363.76,1384.24 365.005,1384.24 366.251,1384.24 367.496,1384.24 368.741,1384.24 369.987,1384.24 371.232,1384.24 372.478,1384.24 373.723,1384.24 374.969,1384.24 376.214,1384.24 377.46,1384.24 378.705,1384.24 379.951,1384.24 381.196,1384.24 382.442,1384.24 383.687,1384.24 384.932,1384.24 386.178,1384.24 387.423,1384.24 388.669,1384.24 389.914,1384.24 391.16,1384.24 392.405,1384.24 393.651,1384.24 394.896,1384.24 396.142,1384.24 397.387,1384.24 398.632,1384.24 399.878,1384.24 401.123,1240.01 402.369,1240.01 403.614,1240.01 404.86,1240.01 406.105,1240.01 407.351,1240.01 408.596,1240.01 409.842,1240.01 411.087,1240.01 412.333,1240.01 413.578,1240.01 414.823,1240.01 416.069,1240.01 417.314,1240.01 418.56,1240.01 419.805,1240.01 421.051,1240.01 422.296,1240.01 423.542,1240.01 424.787,1240.01 426.033,1240.01 427.278,1240.01 428.523,1240.01 429.769,1240.01 431.014,1240.01 432.26,1240.01 433.505,1240.01 434.751,1240.01 435.996,1240.01 437.242,1240.01 438.487,1240.01 439.733,1240.01 440.978,1240.01 442.224,1240.01 443.469,1240.01 444.714,1240.01 445.96,1095.78 447.205,1095.78 448.451,1095.78 449.696,1095.78 450.942,1095.78 452.187,1095.78 453.433,1095.78 454.678,1095.78 455.924,1095.78 457.169,1095.78 458.414,1095.78 459.66,1095.78 460.905,1095.78 462.151,1095.78 463.396,1095.78 464.642,1095.78 465.887,1095.78 467.133,1095.78 468.378,1095.78 469.624,1095.78 470.869,1095.78 472.115,1095.78 473.36,1095.78 474.605,1095.78 475.851,1095.78 477.096,1095.78 478.342,1095.78 479.587,1095.78 480.833,1095.78 482.078,1095.78 483.324,1095.78 484.569,1095.78 485.815,1095.78 487.06,1095.78 488.305,1095.78 489.551,1095.78 490.796,1095.78 492.042,1095.78 493.287,1095.78 494.533,1095.78 495.778,1095.78 497.024,1095.78 498.269,1095.78 499.515,1095.78 500.76,1095.78 502.005,1095.78 503.251,1095.78 504.496,1095.78 505.742,1095.78 506.987,1095.78 508.233,1095.78 509.478,1095.78 510.724,1095.78 511.969,1095.78 513.215,1095.78 514.46,1095.78 515.706,1095.78 516.951,1095.78 518.196,1095.78 519.442,1095.78 520.687,1095.78 521.933,1095.78 523.178,1095.78 524.424,1095.78 525.669,1095.78 526.915,1095.78 528.16,1095.78 529.406,1095.78 530.651,1095.78 531.896,1095.78 533.142,1095.78 534.387,1095.78 535.633,1095.78 536.878,1095.78 538.124,1095.78 539.369,1095.78 540.615,1095.78 541.86,1095.78 543.106,1095.78 544.351,1095.78 545.597,1095.78 546.842,1095.78 548.087,1095.78 549.333,1095.78 550.578,1095.78 551.824,1095.78 553.069,1095.78 554.315,1095.78 555.56,1095.78 556.806,1095.78 558.051,1095.78 559.297,1095.78 560.542,1095.78 561.787,1095.78 563.033,1095.78 564.278,1095.78 565.524,1095.78 566.769,1095.78 568.015,1095.78 569.26,1095.78 570.506,1095.78 571.751,1095.78 572.997,1095.78 574.242,1095.78 575.488,1095.78 576.733,1095.78 577.978,1095.78 579.224,1095.78 580.469,1095.78 581.715,1095.78 582.96,1095.78 584.206,1095.78 585.451,1095.78 586.697,1095.78 587.942,1095.78 589.188,1095.78 590.433,1095.78 591.678,1095.78 592.924,1095.78 594.169,1095.78 595.415,1095.78 596.66,1095.78 597.906,1095.78 599.151,1095.78 600.397,1095.78 601.642,1095.78 602.888,1095.78 604.133,1095.78 605.378,1095.78 606.624,1095.78 607.869,1095.78 609.115,1095.78 610.36,1095.78 611.606,1095.78 612.851,1095.78 614.097,1095.78 615.342,1095.78 616.588,1095.78 617.833,1095.78 619.079,1095.78 620.324,1095.78 621.569,1095.78 622.815,1095.78 624.06,1095.78 625.306,1095.78 626.551,1095.78 627.797,1095.78 629.042,1095.78 630.288,1095.78 631.533,1095.78 632.779,1095.78 634.024,1095.78 635.269,1095.78 636.515,1095.78 637.76,1095.78 639.006,1095.78 640.251,1095.78 641.497,1095.78 642.742,1095.78 643.988,1095.78 645.233,1095.78 646.479,1095.78 647.724,1095.78 648.97,1095.78 650.215,1095.78 651.46,1095.78 652.706,1095.78 653.951,1095.78 655.197,1095.78 656.442,1095.78 657.688,1095.78 658.933,1095.78 660.179,1095.78 661.424,1095.78 662.67,1095.78 663.915,1095.78 665.16,1095.78 666.406,1095.78 667.651,1095.78 668.897,1095.78 670.142,1095.78 671.388,1095.78 672.633,1095.78 673.879,1095.78 675.124,1095.78 676.37,1095.78 677.615,1095.78 678.861,1095.78 680.106,1095.78 681.351,1095.78 682.597,1095.78 683.842,1095.78 685.088,1095.78 686.333,1095.78 687.579,1095.78 688.824,1095.78 690.07,1095.78 691.315,1095.78 692.561,1095.78 693.806,1095.78 695.051,1095.78 696.297,1095.78 697.542,1095.78 698.788,1095.78 700.033,1095.78 701.279,1095.78 702.524,1095.78 703.77,1095.78 705.015,1095.78 706.261,1095.78 707.506,1095.78 708.752,1095.78 709.997,1095.78 711.242,1095.78 712.488,1095.78 713.733,1095.78 714.979,1095.78 716.224,1095.78 717.47,1095.78 718.715,1095.78 719.961,1095.78 721.206,1095.78 722.452,1095.78 723.697,1095.78 724.942,1095.78 726.188,1095.78 727.433,1095.78 728.679,1095.78 729.924,1095.78 731.17,1095.78 732.415,1095.78 733.661,1095.78 734.906,1095.78 736.152,1095.78 737.397,1095.78 738.642,1095.78 739.888,1095.78 741.133,1095.78 742.379,1095.78 743.624,1095.78 744.87,1095.78 746.115,1095.78 747.361,1095.78 748.606,1095.78 749.852,1095.78 751.097,1095.78 752.343,1095.78 753.588,1095.78 754.833,1095.78 756.079,1095.78 757.324,1095.78 758.57,1095.78 759.815,1095.78 761.061,1095.78 762.306,1095.78 763.552,1095.78 764.797,1095.78 766.043,1095.78 767.288,1095.78 768.533,1095.78 769.779,1095.78 771.024,1095.78 772.27,1095.78 773.515,1095.78 774.761,1095.78 776.006,1095.78 777.252,1095.78 778.497,1095.78 779.743,1095.78 780.988,1095.78 782.234,1095.78 783.479,1095.78 784.724,1095.78 785.97,1095.78 787.215,1095.78 788.461,1095.78 789.706,951.554 790.952,951.554 792.197,951.554 793.443,951.554 794.688,951.554 795.934,951.554 797.179,951.554 798.424,951.554 799.67,951.554 800.915,951.554 802.161,951.554 803.406,951.554 804.652,951.554 805.897,951.554 807.143,951.554 808.388,951.554 809.634,951.554 810.879,951.554 812.125,951.554 813.37,951.554 814.615,951.554 815.861,951.554 817.106,951.554 818.352,951.554 819.597,951.554 820.843,951.554 822.088,951.554 823.334,951.554 824.579,951.554 825.825,951.554 827.07,951.554 828.315,951.554 829.561,951.554 830.806,951.554 832.052,951.554 833.297,951.554 834.543,951.554 835.788,951.554 837.034,951.554 838.279,951.554 839.525,951.554 840.77,951.554 842.015,951.554 843.261,951.554 844.506,951.554 845.752,951.554 846.997,951.554 848.243,951.554 849.488,951.554 850.734,951.554 851.979,951.554 853.225,951.554 854.47,951.554 855.716,951.554 856.961,951.554 858.206,951.554 859.452,951.554 860.697,951.554 861.943,951.554 863.188,951.554 864.434,951.554 865.679,951.554 866.925,951.554 868.17,951.554 869.416,951.554 870.661,951.554 871.906,951.554 873.152,951.554 874.397,951.554 875.643,951.554 876.888,951.554 878.134,951.554 879.379,951.554 880.625,951.554 881.87,951.554 883.116,951.554 884.361,951.554 885.607,951.554 886.852,951.554 888.097,951.554 889.343,951.554 890.588,951.554 891.834,951.554 893.079,951.554 894.325,951.554 895.57,951.554 896.816,951.554 898.061,951.554 899.307,951.554 900.552,951.554 901.797,951.554 903.043,951.554 904.288,951.554 905.534,951.554 906.779,951.554 908.025,951.554 909.27,951.554 910.516,951.554 911.761,951.554 913.007,951.554 914.252,951.554 915.498,951.554 916.743,951.554 917.988,951.554 919.234,951.554 920.479,951.554 921.725,951.554 922.97,951.554 924.216,951.554 925.461,951.554 926.707,951.554 927.952,951.554 929.198,951.554 930.443,951.554 931.688,951.554 932.934,951.554 934.179,951.554 935.425,951.554 936.67,951.554 937.916,951.554 939.161,951.554 940.407,951.554 941.652,951.554 942.898,951.554 944.143,951.554 945.388,951.554 946.634,951.554 947.879,951.554 949.125,951.554 950.37,951.554 951.616,951.554 952.861,951.554 954.107,951.554 955.352,951.554 956.598,951.554 957.843,951.554 959.089,951.554 960.334,951.554 961.579,951.554 962.825,951.554 964.07,951.554 965.316,951.554 966.561,951.554 967.807,951.554 969.052,951.554 970.298,951.554 971.543,951.554 972.789,951.554 974.034,951.554 975.279,951.554 976.525,951.554 977.77,951.554 979.016,951.554 980.261,951.554 981.507,951.554 982.752,951.554 983.998,951.554 985.243,951.554 986.489,951.554 987.734,951.554 988.98,951.554 990.225,951.554 991.47,951.554 992.716,951.554 993.961,951.554 995.207,951.554 996.452,951.554 997.698,951.554 998.943,951.554 1000.19,951.554 1001.43,951.554 1002.68,951.554 1003.93,951.554 1005.17,951.554 1006.42,951.554 1007.66,951.554 1008.91,951.554 1010.15,951.554 1011.4,951.554 1012.64,951.554 1013.89,951.554 1015.13,951.554 1016.38,951.554 1017.63,951.554 1018.87,951.554 1020.12,951.554 1021.36,951.554 1022.61,951.554 1023.85,951.554 1025.1,951.554 1026.34,951.554 1027.59,951.554 1028.83,951.554 1030.08,951.554 1031.33,951.554 1032.57,951.554 1033.82,951.554 1035.06,951.554 1036.31,951.554 1037.55,951.554 1038.8,951.554 1040.04,951.554 1041.29,951.554 1042.53,951.554 1043.78,951.554 1045.03,951.554 1046.27,951.554 1047.52,951.554 1048.76,951.554 1050.01,951.554 1051.25,951.554 1052.5,951.554 1053.74,951.554 1054.99,951.554 1056.23,951.554 1057.48,951.554 1058.73,951.554 1059.97,951.554 1061.22,951.554 1062.46,951.554 1063.71,951.554 1064.95,951.554 1066.2,951.554 1067.44,951.554 1068.69,951.554 1069.93,951.554 1071.18,951.554 1072.43,951.554 1073.67,951.554 1074.92,951.554 1076.16,951.554 1077.41,951.554 1078.65,951.554 1079.9,951.554 1081.14,951.554 1082.39,951.554 1083.63,951.554 1084.88,951.554 1086.13,951.554 1087.37,951.554 1088.62,951.554 1089.86,951.554 1091.11,951.554 1092.35,951.554 1093.6,951.554 1094.84,951.554 1096.09,951.554 1097.33,951.554 1098.58,951.554 1099.83,951.554 1101.07,951.554 1102.32,951.554 1103.56,951.554 1104.81,951.554 1106.05,951.554 1107.3,951.554 1108.54,951.554 1109.79,951.554 1111.03,807.326 1112.28,807.326 1113.53,807.326 1114.77,807.326 1116.02,807.326 1117.26,807.326 1118.51,807.326 1119.75,807.326 1121,807.326 1122.24,807.326 1123.49,807.326 1124.73,807.326 1125.98,807.326 1127.23,807.326 1128.47,807.326 1129.72,807.326 1130.96,807.326 1132.21,807.326 1133.45,807.326 1134.7,807.326 1135.94,807.326 1137.19,807.326 1138.43,807.326 1139.68,807.326 1140.93,807.326 1142.17,807.326 1143.42,807.326 1144.66,807.326 1145.91,807.326 1147.15,807.326 1148.4,807.326 1149.64,807.326 1150.89,807.326 1152.13,807.326 1153.38,807.326 1154.63,807.326 1155.87,807.326 1157.12,807.326 1158.36,807.326 1159.61,807.326 1160.85,807.326 1162.1,807.326 1163.34,807.326 1164.59,807.326 1165.83,807.326 1167.08,807.326 1168.33,807.326 1169.57,807.326 1170.82,807.326 1172.06,807.326 1173.31,807.326 1174.55,807.326 1175.8,807.326 1177.04,807.326 1178.29,807.326 1179.53,807.326 1180.78,807.326 1182.03,807.326 1183.27,807.326 1184.52,807.326 1185.76,807.326 1187.01,807.326 1188.25,807.326 1189.5,807.326 1190.74,807.326 1191.99,807.326 1193.23,807.326 1194.48,807.326 1195.73,807.326 1196.97,807.326 1198.22,807.326 1199.46,807.326 1200.71,807.326 1201.95,807.326 1203.2,807.326 1204.44,807.326 1205.69,807.326 1206.93,807.326 1208.18,807.326 1209.43,807.326 1210.67,807.326 1211.92,807.326 1213.16,807.326 1214.41,807.326 1215.65,807.326 1216.9,807.326 1218.14,807.326 1219.39,807.326 1220.63,807.326 1221.88,807.326 1223.13,807.326 1224.37,807.326 1225.62,807.326 1226.86,807.326 1228.11,807.326 1229.35,807.326 1230.6,807.326 1231.84,807.326 1233.09,807.326 1234.33,807.326 1235.58,663.098 1236.83,663.098 1238.07,663.098 1239.32,663.098 1240.56,663.098 1241.81,663.098 1243.05,663.098 1244.3,663.098 1245.54,663.098 1246.79,663.098 1248.03,663.098 1249.28,663.098 1250.53,663.098 1251.77,663.098 1253.02,663.098 1254.26,663.098 1255.51,663.098 1256.75,663.098 1258,663.098 1259.24,663.098 1260.49,663.098 1261.73,663.098 1262.98,663.098 1264.23,663.098 1265.47,663.098 1266.72,663.098 1267.96,663.098 1269.21,663.098 1270.45,663.098 1271.7,663.098 1272.94,663.098 1274.19,663.098 1275.43,663.098 1276.68,663.098 1277.93,663.098 1279.17,663.098 1280.42,663.098 1281.66,663.098 1282.91,663.098 1284.15,663.098 1285.4,663.098 1286.64,663.098 1287.89,663.098 1289.13,663.098 1290.38,663.098 1291.63,663.098 1292.87,663.098 1294.12,663.098 1295.36,663.098 1296.61,663.098 1297.85,663.098 1299.1,663.098 1300.34,663.098 1301.59,663.098 1302.83,663.098 1304.08,663.098 1305.33,663.098 1306.57,663.098 1307.82,663.098 1309.06,663.098 1310.31,663.098 1311.55,663.098 1312.8,663.098 1314.04,663.098 1315.29,663.098 1316.53,663.098 1317.78,663.098 1319.03,663.098 1320.27,663.098 1321.52,663.098 1322.76,663.098 1324.01,663.098 1325.25,663.098 1326.5,663.098 1327.74,663.098 1328.99,663.098 1330.23,663.098 1331.48,663.098 1332.73,663.098 1333.97,663.098 1335.22,663.098 1336.46,663.098 1337.71,663.098 1338.95,663.098 1340.2,663.098 1341.44,663.098 1342.69,663.098 1343.94,663.098 1345.18,663.098 1346.43,663.098 1347.67,663.098 1348.92,663.098 1350.16,663.098 1351.41,663.098 1352.65,663.098 1353.9,663.098 1355.14,663.098 1356.39,663.098 1357.64,663.098 1358.88,663.098 1360.13,663.098 1361.37,663.098 1362.62,663.098 1363.86,663.098 1365.11,663.098 1366.35,663.098 1367.6,663.098 1368.84,663.098 1370.09,663.098 1371.34,663.098 1372.58,663.098 1373.83,663.098 1375.07,663.098 1376.32,663.098 1377.56,663.098 1378.81,663.098 1380.05,663.098 1381.3,663.098 1382.54,663.098 1383.79,663.098 1385.04,663.098 1386.28,663.098 1387.53,663.098 1388.77,663.098 1390.02,663.098 1391.26,663.098 1392.51,663.098 1393.75,663.098 1395,663.098 1396.24,663.098 1397.49,663.098 1398.74,663.098 1399.98,663.098 1401.23,663.098 1402.47,663.098 1403.72,663.098 1404.96,663.098 1406.21,663.098 1407.45,663.098 1408.7,663.098 1409.94,663.098 1411.19,663.098 1412.44,663.098 1413.68,663.098 1414.93,663.098 1416.17,663.098 1417.42,663.098 1418.66,663.098 1419.91,663.098 1421.15,663.098 1422.4,663.098 1423.64,663.098 1424.89,663.098 1426.14,663.098 1427.38,663.098 1428.63,663.098 1429.87,663.098 1431.12,663.098 1432.36,663.098 1433.61,663.098 1434.85,663.098 1436.1,663.098 1437.34,663.098 1438.59,663.098 1439.84,663.098 1441.08,663.098 1442.33,663.098 1443.57,663.098 1444.82,663.098 1446.06,663.098 1447.31,663.098 1448.55,663.098 1449.8,663.098 1451.04,663.098 1452.29,663.098 1453.54,663.098 1454.78,663.098 1456.03,663.098 1457.27,663.098 1458.52,663.098 1459.76,663.098 1461.01,663.098 1462.25,663.098 1463.5,663.098 1464.74,663.098 1465.99,663.098 1467.24,663.098 1468.48,663.098 1469.73,663.098 1470.97,663.098 1472.22,663.098 1473.46,663.098 1474.71,663.098 1475.95,663.098 1477.2,663.098 1478.44,663.098 1479.69,663.098 1480.94,663.098 1482.18,663.098 1483.43,663.098 1484.67,663.098 1485.92,663.098 1487.16,663.098 1488.41,663.098 1489.65,663.098 1490.9,663.098 1492.14,663.098 1493.39,663.098 1494.64,663.098 1495.88,663.098 1497.13,663.098 1498.37,663.098 1499.62,663.098 1500.86,663.098 1502.11,663.098 1503.35,663.098 1504.6,663.098 1505.84,663.098 1507.09,663.098 1508.34,663.098 1509.58,663.098 1510.83,663.098 1512.07,663.098 1513.32,663.098 1514.56,663.098 1515.81,663.098 1517.05,663.098 1518.3,663.098 1519.54,663.098 1520.79,663.098 1522.04,663.098 1523.28,663.098 1524.53,663.098 1525.77,663.098 1527.02,663.098 1528.26,663.098 1529.51,663.098 1530.75,663.098 1532,663.098 1533.24,663.098 1534.49,663.098 1535.74,663.098 1536.98,663.098 1538.23,663.098 1539.47,663.098 1540.72,663.098 1541.96,663.098 1543.21,663.098 1544.45,663.098 1545.7,663.098 1546.94,663.098 1548.19,663.098 1549.44,663.098 1550.68,663.098 1551.93,663.098 1553.17,663.098 1554.42,663.098 1555.66,663.098 1556.91,663.098 1558.15,663.098 1559.4,663.098 1560.64,663.098 1561.89,663.098 1563.14,663.098 1564.38,663.098 1565.63,663.098 1566.87,518.87 1568.12,518.87 1569.36,518.87 1570.61,518.87 1571.85,518.87 1573.1,518.87 1574.34,518.87 1575.59,518.87 1576.84,518.87 1578.08,518.87 1579.33,518.87 1580.57,518.87 1581.82,518.87 1583.06,518.87 1584.31,518.87 1585.55,518.87 1586.8,518.87 1588.04,518.87 1589.29,518.87 1590.54,518.87 1591.78,518.87 1593.03,518.87 1594.27,518.87 1595.52,518.87 1596.76,518.87 1598.01,518.87 1599.25,518.87 1600.5,518.87 1601.74,518.87 1602.99,518.87 1604.24,518.87 1605.48,518.87 1606.73,518.87 1607.97,518.87 1609.22,518.87 1610.46,518.87 1611.71,518.87 1612.95,518.87 1614.2,518.87 1615.44,518.87 1616.69,518.87 1617.94,518.87 1619.18,518.87 1620.43,518.87 1621.67,518.87 1622.92,518.87 1624.16,518.87 1625.41,518.87 1626.65,518.87 1627.9,518.87 1629.14,518.87 1630.39,518.87 1631.64,518.87 1632.88,518.87 1634.13,518.87 1635.37,518.87 1636.62,518.87 1637.86,518.87 1639.11,518.87 1640.35,518.87 1641.6,518.87 1642.84,518.87 1644.09,518.87 1645.34,518.87 1646.58,518.87 1647.83,518.87 1649.07,518.87 1650.32,518.87 1651.56,518.87 1652.81,518.87 1654.05,518.87 1655.3,518.87 1656.54,518.87 1657.79,518.87 1659.04,518.87 1660.28,518.87 1661.53,518.87 1662.77,518.87 1664.02,518.87 1665.26,518.87 1666.51,518.87 1667.75,518.87 1669,518.87 1670.24,518.87 1671.49,518.87 1672.74,518.87 1673.98,518.87 1675.23,518.87 1676.47,518.87 1677.72,518.87 1678.96,518.87 1680.21,518.87 1681.45,518.87 1682.7,518.87 1683.95,518.87 1685.19,518.87 1686.44,518.87 1687.68,518.87 1688.93,518.87 1690.17,518.87 1691.42,518.87 1692.66,518.87 1693.91,518.87 1695.15,518.87 1696.4,518.87 1697.65,518.87 1698.89,518.87 1700.14,518.87 1701.38,518.87 1702.63,518.87 1703.87,518.87 1705.12,518.87 1706.36,518.87 1707.61,518.87 1708.85,518.87 1710.1,518.87 1711.35,518.87 1712.59,518.87 1713.84,518.87 1715.08,518.87 1716.33,518.87 1717.57,518.87 1718.82,518.87 1720.06,518.87 1721.31,518.87 1722.55,518.87 1723.8,518.87 1725.05,518.87 1726.29,518.87 1727.54,518.87 1728.78,518.87 1730.03,518.87 1731.27,518.87 1732.52,518.87 1733.76,518.87 1735.01,518.87 1736.25,518.87 1737.5,518.87 1738.75,518.87 1739.99,518.87 1741.24,518.87 1742.48,518.87 1743.73,518.87 1744.97,518.87 1746.22,518.87 1747.46,518.87 1748.71,518.87 1749.95,518.87 1751.2,518.87 1752.45,518.87 1753.69,518.87 1754.94,518.87 1756.18,518.87 1757.43,518.87 1758.67,518.87 1759.92,518.87 1761.16,518.87 1762.41,518.87 1763.65,518.87 1764.9,518.87 1766.15,518.87 1767.39,518.87 1768.64,518.87 1769.88,518.87 1771.13,518.87 1772.37,518.87 1773.62,518.87 1774.86,518.87 1776.11,518.87 1777.35,518.87 1778.6,518.87 1779.85,518.87 1781.09,518.87 1782.34,518.87 1783.58,518.87 1784.83,518.87 1786.07,518.87 1787.32,518.87 1788.56,518.87 1789.81,518.87 1791.05,518.87 1792.3,518.87 1793.55,518.87 1794.79,518.87 1796.04,518.87 1797.28,518.87 1798.53,518.87 1799.77,518.87 1801.02,518.87 1802.26,518.87 1803.51,518.87 1804.75,518.87 1806,518.87 1807.25,518.87 1808.49,518.87 1809.74,518.87 1810.98,518.87 1812.23,518.87 1813.47,518.87 1814.72,518.87 1815.96,518.87 1817.21,518.87 1818.45,518.87 1819.7,518.87 1820.95,518.87 1822.19,518.87 1823.44,518.87 1824.68,518.87 1825.93,518.87 1827.17,518.87 1828.42,518.87 1829.66,518.87 1830.91,518.87 1832.15,518.87 1833.4,518.87 1834.65,518.87 1835.89,518.87 1837.14,518.87 1838.38,518.87 1839.63,518.87 1840.87,518.87 1842.12,518.87 1843.36,518.87 1844.61,518.87 1845.85,518.87 1847.1,518.87 1848.35,518.87 1849.59,518.87 1850.84,518.87 1852.08,518.87 1853.33,518.87 1854.57,518.87 1855.82,518.87 1857.06,518.87 1858.31,518.87 1859.55,518.87 1860.8,518.87 1862.05,518.87 1863.29,518.87 1864.54,518.87 1865.78,518.87 1867.03,518.87 1868.27,518.87 1869.52,518.87 1870.76,518.87 1872.01,518.87 1873.25,518.87 1874.5,518.87 1875.75,518.87 1876.99,518.87 1878.24,518.87 1879.48,518.87 1880.73,518.87 1881.97,518.87 1883.22,518.87 1884.46,518.87 1885.71,518.87 1886.95,518.87 1888.2,518.87 1889.45,518.87 1890.69,518.87 1891.94,518.87 1893.18,518.87 1894.43,518.87 1895.67,518.87 1896.92,518.87 1898.16,518.87 1899.41,518.87 1900.65,518.87 1901.9,518.87 1903.15,518.87 1904.39,518.87 1905.64,518.87 1906.88,518.87 1908.13,518.87 1909.37,518.87 1910.62,518.87 1911.86,518.87 1913.11,518.87 1914.35,518.87 1915.6,518.87 1916.85,518.87 1918.09,518.87 1919.34,518.87 1920.58,518.87 1921.83,518.87 1923.07,518.87 1924.32,518.87 1925.56,518.87 1926.81,518.87 1928.05,518.87 1929.3,518.87 1930.55,518.87 1931.79,518.87 1933.04,518.87 1934.28,518.87 1935.53,518.87 1936.77,518.87 1938.02,518.87 1939.26,518.87 1940.51,518.87 1941.75,518.87 1943,518.87 1944.25,518.87 1945.49,518.87 1946.74,518.87 1947.98,518.87 1949.23,518.87 1950.47,518.87 1951.72,518.87 1952.96,518.87 1954.21,518.87 1955.45,518.87 1956.7,518.87 1957.95,518.87 1959.19,518.87 1960.44,518.87 1961.68,518.87 1962.93,518.87 1964.17,518.87 1965.42,518.87 1966.66,518.87 1967.91,518.87 1969.15,518.87 1970.4,518.87 1971.65,518.87 1972.89,518.87 1974.14,518.87 1975.38,518.87 1976.63,518.87 1977.87,518.87 1979.12,518.87 1980.36,518.87 1981.61,518.87 1982.85,518.87 1984.1,518.87 1985.35,518.87 1986.59,518.87 1987.84,518.87 1989.08,518.87 1990.33,518.87 1991.57,518.87 1992.82,518.87 1994.06,518.87 1995.31,518.87 1996.55,518.87 1997.8,518.87 1999.05,518.87 2000.29,518.87 2001.54,518.87 2002.78,518.87 2004.03,518.87 2005.27,518.87 2006.52,518.87 2007.76,518.87 2009.01,518.87 2010.25,518.87 2011.5,518.87 2012.75,518.87 2013.99,518.87 2015.24,518.87 2016.48,518.87 2017.73,518.87 2018.97,518.87 2020.22,518.87 2021.46,518.87 2022.71,518.87 2023.96,518.87 2025.2,518.87 2026.45,518.87 2027.69,518.87 2028.94,518.87 2030.18,518.87 2031.43,518.87 2032.67,518.87 2033.92,518.87 2035.16,518.87 2036.41,518.87 2037.66,518.87 2038.9,518.87 2040.15,518.87 2041.39,518.87 2042.64,518.87 2043.88,518.87 2045.13,518.87 2046.37,518.87 2047.62,518.87 2048.86,518.87 2050.11,518.87 2051.36,518.87 2052.6,518.87 2053.85,518.87 2055.09,518.87 2056.34,518.87 2057.58,518.87 2058.83,518.87 2060.07,518.87 2061.32,518.87 2062.56,518.87 2063.81,518.87 2065.06,518.87 2066.3,518.87 2067.55,518.87 2068.79,518.87 2070.04,518.87 2071.28,518.87 2072.53,518.87 2073.77,518.87 2075.02,518.87 2076.26,518.87 2077.51,518.87 2078.76,518.87 2080,518.87 2081.25,518.87 2082.49,518.87 2083.74,518.87 2084.98,518.87 2086.23,518.87 2087.47,518.87 2088.72,518.87 2089.96,518.87 2091.21,518.87 2092.46,518.87 2093.7,518.87 2094.95,518.87 2096.19,518.87 2097.44,518.87 2098.68,518.87 2099.93,518.87 2101.17,518.87 2102.42,518.87 2103.66,518.87 2104.91,518.87 2106.16,518.87 2107.4,518.87 2108.65,518.87 2109.89,518.87 2111.14,518.87 2112.38,518.87 2113.63,518.87 2114.87,518.87 2116.12,518.87 2117.36,518.87 2118.61,518.87 2119.86,518.87 2121.1,518.87 2122.35,518.87 2123.59,518.87 2124.84,518.87 2126.08,518.87 2127.33,518.87 2128.57,518.87 2129.82,518.87 2131.06,518.87 2132.31,518.87 2133.56,518.87 2134.8,518.87 2136.05,518.87 2137.29,518.87 2138.54,518.87 2139.78,518.87 2141.03,518.87 2142.27,518.87 2143.52,518.87 2144.76,518.87 2146.01,518.87 2147.26,518.87 2148.5,518.87 2149.75,518.87 2150.99,518.87 2152.24,518.87 2153.48,518.87 2154.73,518.87 2155.97,518.87 2157.22,518.87 2158.46,518.87 2159.71,518.87 2160.96,518.87 2162.2,518.87 2163.45,518.87 2164.69,518.87 2165.94,518.87 2167.18,518.87 2168.43,518.87 2169.67,518.87 2170.92,518.87 2172.16,518.87 2173.41,518.87 2174.66,518.87 2175.9,518.87 2177.15,518.87 2178.39,518.87 2179.64,518.87 2180.88,518.87 2182.13,518.87 2183.37,518.87 2184.62,518.87 2185.86,518.87 2187.11,518.87 2188.36,518.87 2189.6,518.87 2190.85,518.87 2192.09,518.87 2193.34,518.87 2194.58,518.87 2195.83,518.87 2197.07,518.87 2198.32,518.87 2199.56,518.87 2200.81,518.87 2202.06,518.87 2203.3,518.87 2204.55,518.87 2205.79,518.87 2207.04,518.87 2208.28,518.87 2209.53,518.87 2210.77,518.87 2212.02,518.87 2213.26,518.87 2214.51,518.87 2215.76,518.87 2217,518.87 2218.25,518.87 2219.49,518.87 2220.74,518.87 2221.98,518.87 2223.23,518.87 2224.47,518.87 2225.72,518.87 2226.96,518.87 2228.21,518.87 2229.46,518.87 2230.7,518.87 2231.95,518.87 2233.19,518.87 2234.44,518.87 2235.68,518.87 2236.93,518.87 2238.17,518.87 2239.42,518.87 2240.66,518.87 2241.91,518.87 2243.16,518.87 2244.4,518.87 2245.65,518.87 2246.89,518.87 2248.14,518.87 2249.38,518.87 2250.63,518.87 2251.87,518.87 2253.12,518.87 2254.36,518.87 2255.61,518.87 2256.86,374.642 2258.1,374.642 2259.35,374.642 2260.59,374.642 2261.84,374.642 2263.08,374.642 2264.33,374.642 2265.57,374.642 2266.82,374.642 2268.06,374.642 2269.31,374.642 2270.56,374.642 2271.8,374.642 2273.05,374.642 2274.29,374.642 2275.54,374.642 2276.78,374.642 2278.03,374.642 2279.27,374.642 2280.52,374.642 2281.76,374.642 2283.01,374.642 2284.26,374.642 2285.5,374.642 2286.75,374.642 2287.99,374.642 2289.24,374.642 2290.48,374.642 2291.73,374.642 2292.97,374.642 2294.22,374.642 2295.46,374.642 2296.71,374.642 2297.96,374.642 2299.2,374.642 2300.45,374.642 2301.69,374.642 2302.94,374.642 2304.18,374.642 2305.43,374.642 2306.67,374.642 2307.92,374.642 2309.16,374.642 2310.41,374.642 2311.66,374.642 2312.9,374.642 2314.15,374.642 2315.39,374.642 2316.64,374.642 2317.88,374.642 2319.13,374.642 2320.37,374.642 2321.62,374.642 2322.86,374.642 2324.11,374.642 2325.36,374.642 2326.6,374.642 2327.85,374.642 2329.09,374.642 2330.34,374.642 2331.58,374.642 2332.83,374.642 2334.07,374.642 2335.32,374.642 2336.56,374.642 2337.81,374.642 2339.06,374.642 2340.3,374.642 2341.55,374.642 2342.79,374.642 2344.04,374.642 2345.28,374.642 2346.53,374.642 2347.77,374.642 2349.02,374.642 2350.26,374.642 2351.51,374.642 2352.76,374.642 "/>
<path clip-path="url(#clip890)" d="M186.863 248.629 L547.101 248.629 L547.101 93.1086 L186.863 93.1086  Z" fill="#ffffff" fill-rule="evenodd" fill-opacity="1"/>
<polyline clip-path="url(#clip890)" style="stroke:#000000; stroke-linecap:round; stroke-linejoin:round; stroke-width:4; stroke-opacity:1; fill:none" points="186.863,248.629 547.101,248.629 547.101,93.1086 186.863,93.1086 186.863,248.629 "/>
<polyline clip-path="url(#clip890)" style="stroke:#009af9; stroke-linecap:round; stroke-linejoin:round; stroke-width:8; stroke-opacity:1; fill:none" points="211.758,144.949 361.13,144.949 "/>
<path clip-path="url(#clip890)" d="M386.026 127.669 L392.322 127.669 L407.646 156.581 L407.646 127.669 L412.183 127.669 L412.183 162.229 L405.887 162.229 L390.563 133.317 L390.563 162.229 L386.026 162.229 L386.026 127.669 Z" fill="#000000" fill-rule="nonzero" fill-opacity="1" /><path clip-path="url(#clip890)" d="M441.002 170.099 L441.002 173.409 L416.373 173.409 L416.373 170.099 L441.002 170.099 Z" fill="#000000" fill-rule="nonzero" fill-opacity="1" /><path clip-path="url(#clip890)" d="M446.419 158.293 L454.058 158.293 L454.058 131.928 L445.748 133.595 L445.748 129.335 L454.011 127.669 L458.687 127.669 L458.687 158.293 L466.326 158.293 L466.326 162.229 L446.419 162.229 L446.419 158.293 Z" fill="#000000" fill-rule="nonzero" fill-opacity="1" /><path clip-path="url(#clip890)" d="M485.4 126.257 Q482.298 131.581 480.794 136.789 Q479.289 141.997 479.289 147.344 Q479.289 152.692 480.794 157.946 Q482.321 163.178 485.4 168.479 L481.696 168.479 Q478.224 163.039 476.488 157.784 Q474.775 152.53 474.775 147.344 Q474.775 142.182 476.488 136.951 Q478.201 131.72 481.696 126.257 L485.4 126.257 Z" fill="#000000" fill-rule="nonzero" fill-opacity="1" /><path clip-path="url(#clip890)" d="M497.877 128.942 L497.877 136.303 L506.65 136.303 L506.65 139.613 L497.877 139.613 L497.877 153.687 Q497.877 156.858 498.733 157.761 Q499.613 158.664 502.275 158.664 L506.65 158.664 L506.65 162.229 L502.275 162.229 Q497.345 162.229 495.47 160.4 Q493.595 158.548 493.595 153.687 L493.595 139.613 L490.47 139.613 L490.47 136.303 L493.595 136.303 L493.595 128.942 L497.877 128.942 Z" fill="#000000" fill-rule="nonzero" fill-opacity="1" /><path clip-path="url(#clip890)" d="M511.581 126.257 L515.284 126.257 Q518.756 131.72 520.469 136.951 Q522.206 142.182 522.206 147.344 Q522.206 152.53 520.469 157.784 Q518.756 163.039 515.284 168.479 L511.581 168.479 Q514.659 163.178 516.164 157.946 Q517.692 152.692 517.692 147.344 Q517.692 141.997 516.164 136.789 Q514.659 131.581 511.581 126.257 Z" fill="#000000" fill-rule="nonzero" fill-opacity="1" /><polyline clip-path="url(#clip890)" style="stroke:#e26f46; stroke-linecap:round; stroke-linejoin:round; stroke-width:8; stroke-opacity:1; fill:none" points="211.758,196.789 361.13,196.789 "/>
<path clip-path="url(#clip890)" d="M386.026 179.509 L392.322 179.509 L407.646 208.421 L407.646 179.509 L412.183 179.509 L412.183 214.069 L405.887 214.069 L390.563 185.157 L390.563 214.069 L386.026 214.069 L386.026 179.509 Z" fill="#000000" fill-rule="nonzero" fill-opacity="1" /><path clip-path="url(#clip890)" d="M441.002 221.939 L441.002 225.249 L416.373 225.249 L416.373 221.939 L441.002 221.939 Z" fill="#000000" fill-rule="nonzero" fill-opacity="1" /><path clip-path="url(#clip890)" d="M449.636 210.133 L465.956 210.133 L465.956 214.069 L444.011 214.069 L444.011 210.133 Q446.674 207.379 451.257 202.749 Q455.863 198.096 457.044 196.754 Q459.289 194.231 460.169 192.495 Q461.072 190.735 461.072 189.046 Q461.072 186.291 459.127 184.555 Q457.206 182.819 454.104 182.819 Q451.905 182.819 449.451 183.583 Q447.021 184.347 444.243 185.897 L444.243 181.175 Q447.067 180.041 449.521 179.462 Q451.974 178.884 454.011 178.884 Q459.382 178.884 462.576 181.569 Q465.771 184.254 465.771 188.745 Q465.771 190.874 464.96 192.796 Q464.173 194.694 462.067 197.286 Q461.488 197.958 458.386 201.175 Q455.285 204.37 449.636 210.133 Z" fill="#000000" fill-rule="nonzero" fill-opacity="1" /><path clip-path="url(#clip890)" d="M485.4 178.097 Q482.298 183.421 480.794 188.629 Q479.289 193.837 479.289 199.184 Q479.289 204.532 480.794 209.786 Q482.321 215.018 485.4 220.319 L481.696 220.319 Q478.224 214.879 476.488 209.624 Q474.775 204.37 474.775 199.184 Q474.775 194.022 476.488 188.791 Q478.201 183.56 481.696 178.097 L485.4 178.097 Z" fill="#000000" fill-rule="nonzero" fill-opacity="1" /><path clip-path="url(#clip890)" d="M497.877 180.782 L497.877 188.143 L506.65 188.143 L506.65 191.453 L497.877 191.453 L497.877 205.527 Q497.877 208.698 498.733 209.601 Q499.613 210.504 502.275 210.504 L506.65 210.504 L506.65 214.069 L502.275 214.069 Q497.345 214.069 495.47 212.24 Q493.595 210.388 493.595 205.527 L493.595 191.453 L490.47 191.453 L490.47 188.143 L493.595 188.143 L493.595 180.782 L497.877 180.782 Z" fill="#000000" fill-rule="nonzero" fill-opacity="1" /><path clip-path="url(#clip890)" d="M511.581 178.097 L515.284 178.097 Q518.756 183.56 520.469 188.791 Q522.206 194.022 522.206 199.184 Q522.206 204.37 520.469 209.624 Q518.756 214.879 515.284 220.319 L511.581 220.319 Q514.659 215.018 516.164 209.786 Q517.692 204.532 517.692 199.184 Q517.692 193.837 516.164 188.629 Q514.659 183.421 511.581 178.097 Z" fill="#000000" fill-rule="nonzero" fill-opacity="1" /></svg>
