<?xml version="1.0" encoding="utf-8"?>
<svg xmlns="http://www.w3.org/2000/svg" xmlns:xlink="http://www.w3.org/1999/xlink" width="600" height="400" viewBox="0 0 2400 1600">
<defs>
  <clipPath id="clip360">
    <rect x="0" y="0" width="2400" height="1600"/>
  </clipPath>
</defs>
<path clip-path="url(#clip360)" d="M0 1600 L2400 1600 L2400 0 L0 0  Z" fill="#ffffff" fill-rule="evenodd" fill-opacity="1"/>
<defs>
  <clipPath id="clip361">
    <rect x="480" y="0" width="1681" height="1600"/>
  </clipPath>
</defs>
<path clip-path="url(#clip360)" d="M140.696 1423.18 L2352.76 1423.18 L2352.76 47.2441 L140.696 47.2441  Z" fill="#ffffff" fill-rule="evenodd" fill-opacity="1"/>
<defs>
  <clipPath id="clip362">
    <rect x="140" y="47" width="2213" height="1377"/>
  </clipPath>
</defs>
<polyline clip-path="url(#clip362)" style="stroke:#000000; stroke-linecap:round; stroke-linejoin:round; stroke-width:2; stroke-opacity:0.1; fill:none" points="140.696,1423.18 140.696,47.2441 "/>
<polyline clip-path="url(#clip362)" style="stroke:#000000; stroke-linecap:round; stroke-linejoin:round; stroke-width:2; stroke-opacity:0.1; fill:none" points="583.108,1423.18 583.108,47.2441 "/>
<polyline clip-path="url(#clip362)" style="stroke:#000000; stroke-linecap:round; stroke-linejoin:round; stroke-width:2; stroke-opacity:0.1; fill:none" points="1025.52,1423.18 1025.52,47.2441 "/>
<polyline clip-path="url(#clip362)" style="stroke:#000000; stroke-linecap:round; stroke-linejoin:round; stroke-width:2; stroke-opacity:0.1; fill:none" points="1467.93,1423.18 1467.93,47.2441 "/>
<polyline clip-path="url(#clip362)" style="stroke:#000000; stroke-linecap:round; stroke-linejoin:round; stroke-width:2; stroke-opacity:0.1; fill:none" points="1910.34,1423.18 1910.34,47.2441 "/>
<polyline clip-path="url(#clip362)" style="stroke:#000000; stroke-linecap:round; stroke-linejoin:round; stroke-width:2; stroke-opacity:0.1; fill:none" points="2352.76,1423.18 2352.76,47.2441 "/>
<polyline clip-path="url(#clip362)" style="stroke:#000000; stroke-linecap:round; stroke-linejoin:round; stroke-width:2; stroke-opacity:0.1; fill:none" points="140.696,1384.24 2352.76,1384.24 "/>
<polyline clip-path="url(#clip362)" style="stroke:#000000; stroke-linecap:round; stroke-linejoin:round; stroke-width:2; stroke-opacity:0.1; fill:none" points="140.696,1113.81 2352.76,1113.81 "/>
<polyline clip-path="url(#clip362)" style="stroke:#000000; stroke-linecap:round; stroke-linejoin:round; stroke-width:2; stroke-opacity:0.1; fill:none" points="140.696,843.383 2352.76,843.383 "/>
<polyline clip-path="url(#clip362)" style="stroke:#000000; stroke-linecap:round; stroke-linejoin:round; stroke-width:2; stroke-opacity:0.1; fill:none" points="140.696,572.955 2352.76,572.955 "/>
<polyline clip-path="url(#clip362)" style="stroke:#000000; stroke-linecap:round; stroke-linejoin:round; stroke-width:2; stroke-opacity:0.1; fill:none" points="140.696,302.528 2352.76,302.528 "/>
<polyline clip-path="url(#clip360)" style="stroke:#000000; stroke-linecap:round; stroke-linejoin:round; stroke-width:4; stroke-opacity:1; fill:none" points="140.696,1423.18 2352.76,1423.18 "/>
<polyline clip-path="url(#clip360)" style="stroke:#000000; stroke-linecap:round; stroke-linejoin:round; stroke-width:4; stroke-opacity:1; fill:none" points="140.696,1423.18 140.696,1404.28 "/>
<polyline clip-path="url(#clip360)" style="stroke:#000000; stroke-linecap:round; stroke-linejoin:round; stroke-width:4; stroke-opacity:1; fill:none" points="583.108,1423.18 583.108,1404.28 "/>
<polyline clip-path="url(#clip360)" style="stroke:#000000; stroke-linecap:round; stroke-linejoin:round; stroke-width:4; stroke-opacity:1; fill:none" points="1025.52,1423.18 1025.52,1404.28 "/>
<polyline clip-path="url(#clip360)" style="stroke:#000000; stroke-linecap:round; stroke-linejoin:round; stroke-width:4; stroke-opacity:1; fill:none" points="1467.93,1423.18 1467.93,1404.28 "/>
<polyline clip-path="url(#clip360)" style="stroke:#000000; stroke-linecap:round; stroke-linejoin:round; stroke-width:4; stroke-opacity:1; fill:none" points="1910.34,1423.18 1910.34,1404.28 "/>
<polyline clip-path="url(#clip360)" style="stroke:#000000; stroke-linecap:round; stroke-linejoin:round; stroke-width:4; stroke-opacity:1; fill:none" points="2352.76,1423.18 2352.76,1404.28 "/>
<path clip-path="url(#clip360)" d="M140.696 1454.1 Q137.084 1454.1 135.256 1457.66 Q133.45 1461.2 133.45 1468.33 Q133.45 1475.44 135.256 1479.01 Q137.084 1482.55 140.696 1482.55 Q144.33 1482.55 146.135 1479.01 Q147.964 1475.44 147.964 1468.33 Q147.964 1461.2 146.135 1457.66 Q144.33 1454.1 140.696 1454.1 M140.696 1450.39 Q146.506 1450.39 149.561 1455 Q152.64 1459.58 152.64 1468.33 Q152.64 1477.06 149.561 1481.67 Q146.506 1486.25 140.696 1486.25 Q134.885 1486.25 131.807 1481.67 Q128.751 1477.06 128.751 1468.33 Q128.751 1459.58 131.807 1455 Q134.885 1450.39 140.696 1450.39 Z" fill="#000000" fill-rule="nonzero" fill-opacity="1" /><path clip-path="url(#clip360)" d="M577.76 1481.64 L594.08 1481.64 L594.08 1485.58 L572.135 1485.58 L572.135 1481.64 Q574.797 1478.89 579.381 1474.26 Q583.987 1469.61 585.168 1468.27 Q587.413 1465.74 588.293 1464.01 Q589.196 1462.25 589.196 1460.56 Q589.196 1457.8 587.251 1456.07 Q585.33 1454.33 582.228 1454.33 Q580.029 1454.33 577.575 1455.09 Q575.145 1455.86 572.367 1457.41 L572.367 1452.69 Q575.191 1451.55 577.645 1450.97 Q580.098 1450.39 582.135 1450.39 Q587.506 1450.39 590.7 1453.08 Q593.895 1455.77 593.895 1460.26 Q593.895 1462.39 593.084 1464.31 Q592.297 1466.2 590.191 1468.8 Q589.612 1469.47 586.51 1472.69 Q583.409 1475.88 577.76 1481.64 Z" fill="#000000" fill-rule="nonzero" fill-opacity="1" /><path clip-path="url(#clip360)" d="M1028.53 1455.09 L1016.72 1473.54 L1028.53 1473.54 L1028.53 1455.09 M1027.3 1451.02 L1033.18 1451.02 L1033.18 1473.54 L1038.11 1473.54 L1038.11 1477.43 L1033.18 1477.43 L1033.18 1485.58 L1028.53 1485.58 L1028.53 1477.43 L1012.93 1477.43 L1012.93 1472.92 L1027.3 1451.02 Z" fill="#000000" fill-rule="nonzero" fill-opacity="1" /><path clip-path="url(#clip360)" d="M1468.34 1466.44 Q1465.19 1466.44 1463.34 1468.59 Q1461.51 1470.74 1461.51 1474.49 Q1461.51 1478.22 1463.34 1480.39 Q1465.19 1482.55 1468.34 1482.55 Q1471.48 1482.55 1473.31 1480.39 Q1475.17 1478.22 1475.17 1474.49 Q1475.17 1470.74 1473.31 1468.59 Q1471.48 1466.44 1468.34 1466.44 M1477.62 1451.78 L1477.62 1456.04 Q1475.86 1455.21 1474.05 1454.77 Q1472.27 1454.33 1470.51 1454.33 Q1465.88 1454.33 1463.43 1457.45 Q1461 1460.58 1460.65 1466.9 Q1462.02 1464.89 1464.08 1463.82 Q1466.14 1462.73 1468.61 1462.73 Q1473.82 1462.73 1476.83 1465.9 Q1479.86 1469.05 1479.86 1474.49 Q1479.86 1479.82 1476.72 1483.03 Q1473.57 1486.25 1468.34 1486.25 Q1462.34 1486.25 1459.17 1481.67 Q1456 1477.06 1456 1468.33 Q1456 1460.14 1459.89 1455.28 Q1463.78 1450.39 1470.33 1450.39 Q1472.09 1450.39 1473.87 1450.74 Q1475.67 1451.09 1477.62 1451.78 Z" fill="#000000" fill-rule="nonzero" fill-opacity="1" /><path clip-path="url(#clip360)" d="M1910.34 1469.17 Q1907.01 1469.17 1905.09 1470.95 Q1903.19 1472.73 1903.19 1475.86 Q1903.19 1478.98 1905.09 1480.77 Q1907.01 1482.55 1910.34 1482.55 Q1913.68 1482.55 1915.6 1480.77 Q1917.52 1478.96 1917.52 1475.86 Q1917.52 1472.73 1915.6 1470.95 Q1913.7 1469.17 1910.34 1469.17 M1905.67 1467.18 Q1902.66 1466.44 1900.97 1464.38 Q1899.3 1462.32 1899.3 1459.35 Q1899.3 1455.21 1902.24 1452.8 Q1905.2 1450.39 1910.34 1450.39 Q1915.51 1450.39 1918.45 1452.8 Q1921.39 1455.21 1921.39 1459.35 Q1921.39 1462.32 1919.7 1464.38 Q1918.03 1466.44 1915.04 1467.18 Q1918.42 1467.96 1920.3 1470.26 Q1922.2 1472.55 1922.2 1475.86 Q1922.2 1480.88 1919.12 1483.57 Q1916.06 1486.25 1910.34 1486.25 Q1904.63 1486.25 1901.55 1483.57 Q1898.49 1480.88 1898.49 1475.86 Q1898.49 1472.55 1900.39 1470.26 Q1902.29 1467.96 1905.67 1467.18 M1903.95 1459.79 Q1903.95 1462.48 1905.62 1463.98 Q1907.31 1465.49 1910.34 1465.49 Q1913.35 1465.49 1915.04 1463.98 Q1916.76 1462.48 1916.76 1459.79 Q1916.76 1457.11 1915.04 1455.6 Q1913.35 1454.1 1910.34 1454.1 Q1907.31 1454.1 1905.62 1455.6 Q1903.95 1457.11 1903.95 1459.79 Z" fill="#000000" fill-rule="nonzero" fill-opacity="1" /><path clip-path="url(#clip360)" d="M2327.44 1481.64 L2335.08 1481.64 L2335.08 1455.28 L2326.77 1456.95 L2326.77 1452.69 L2335.04 1451.02 L2339.71 1451.02 L2339.71 1481.64 L2347.35 1481.64 L2347.35 1485.58 L2327.44 1485.58 L2327.44 1481.64 Z" fill="#000000" fill-rule="nonzero" fill-opacity="1" /><path clip-path="url(#clip360)" d="M2366.8 1454.1 Q2363.18 1454.1 2361.36 1457.66 Q2359.55 1461.2 2359.55 1468.33 Q2359.55 1475.44 2361.36 1479.01 Q2363.18 1482.55 2366.8 1482.55 Q2370.43 1482.55 2372.23 1479.01 Q2374.06 1475.44 2374.06 1468.33 Q2374.06 1461.2 2372.23 1457.66 Q2370.43 1454.1 2366.8 1454.1 M2366.8 1450.39 Q2372.61 1450.39 2375.66 1455 Q2378.74 1459.58 2378.74 1468.33 Q2378.74 1477.06 2375.66 1481.67 Q2372.61 1486.25 2366.8 1486.25 Q2360.99 1486.25 2357.91 1481.67 Q2354.85 1477.06 2354.85 1468.33 Q2354.85 1459.58 2357.91 1455 Q2360.99 1450.39 2366.8 1450.39 Z" fill="#000000" fill-rule="nonzero" fill-opacity="1" /><path clip-path="url(#clip360)" d="M1245.79 1522.27 L1245.79 1532.4 L1257.85 1532.4 L1257.85 1536.95 L1245.79 1536.95 L1245.79 1556.3 Q1245.79 1560.66 1246.96 1561.9 Q1248.17 1563.14 1251.83 1563.14 L1257.85 1563.14 L1257.85 1568.04 L1251.83 1568.04 Q1245.05 1568.04 1242.48 1565.53 Q1239.9 1562.98 1239.9 1556.3 L1239.9 1536.95 L1235.6 1536.95 L1235.6 1532.4 L1239.9 1532.4 L1239.9 1522.27 L1245.79 1522.27 Z" fill="#000000" fill-rule="nonzero" fill-opacity="1" /><polyline clip-path="url(#clip360)" style="stroke:#000000; stroke-linecap:round; stroke-linejoin:round; stroke-width:4; stroke-opacity:1; fill:none" points="140.696,1423.18 140.696,47.2441 "/>
<polyline clip-path="url(#clip360)" style="stroke:#000000; stroke-linecap:round; stroke-linejoin:round; stroke-width:4; stroke-opacity:1; fill:none" points="140.696,1384.24 159.593,1384.24 "/>
<polyline clip-path="url(#clip360)" style="stroke:#000000; stroke-linecap:round; stroke-linejoin:round; stroke-width:4; stroke-opacity:1; fill:none" points="140.696,1113.81 159.593,1113.81 "/>
<polyline clip-path="url(#clip360)" style="stroke:#000000; stroke-linecap:round; stroke-linejoin:round; stroke-width:4; stroke-opacity:1; fill:none" points="140.696,843.383 159.593,843.383 "/>
<polyline clip-path="url(#clip360)" style="stroke:#000000; stroke-linecap:round; stroke-linejoin:round; stroke-width:4; stroke-opacity:1; fill:none" points="140.696,572.955 159.593,572.955 "/>
<polyline clip-path="url(#clip360)" style="stroke:#000000; stroke-linecap:round; stroke-linejoin:round; stroke-width:4; stroke-opacity:1; fill:none" points="140.696,302.528 159.593,302.528 "/>
<path clip-path="url(#clip360)" d="M92.7512 1370.04 Q89.1401 1370.04 87.3114 1373.6 Q85.5058 1377.14 85.5058 1384.27 Q85.5058 1391.38 87.3114 1394.94 Q89.1401 1398.49 92.7512 1398.49 Q96.3854 1398.49 98.1909 1394.94 Q100.02 1391.38 100.02 1384.27 Q100.02 1377.14 98.1909 1373.6 Q96.3854 1370.04 92.7512 1370.04 M92.7512 1366.33 Q98.5613 1366.33 101.617 1370.94 Q104.696 1375.52 104.696 1384.27 Q104.696 1393 101.617 1397.61 Q98.5613 1402.19 92.7512 1402.19 Q86.941 1402.19 83.8623 1397.61 Q80.8068 1393 80.8068 1384.27 Q80.8068 1375.52 83.8623 1370.94 Q86.941 1366.33 92.7512 1366.33 Z" fill="#000000" fill-rule="nonzero" fill-opacity="1" /><path clip-path="url(#clip360)" d="M83.7929 1096.53 L102.149 1096.53 L102.149 1100.47 L88.0753 1100.47 L88.0753 1108.94 Q89.0938 1108.59 90.1123 1108.43 Q91.1308 1108.24 92.1493 1108.24 Q97.9363 1108.24 101.316 1111.41 Q104.696 1114.59 104.696 1120 Q104.696 1125.58 101.223 1128.68 Q97.7511 1131.76 91.4317 1131.76 Q89.2558 1131.76 86.9873 1131.39 Q84.7419 1131.02 82.3346 1130.28 L82.3346 1125.58 Q84.4179 1126.72 86.6401 1127.27 Q88.8623 1127.83 91.3391 1127.83 Q95.3437 1127.83 97.6817 1125.72 Q100.02 1123.61 100.02 1120 Q100.02 1116.39 97.6817 1114.29 Q95.3437 1112.18 91.3391 1112.18 Q89.4641 1112.18 87.5892 1112.6 Q85.7373 1113.01 83.7929 1113.89 L83.7929 1096.53 Z" fill="#000000" fill-rule="nonzero" fill-opacity="1" /><path clip-path="url(#clip360)" d="M53.3995 856.728 L61.0384 856.728 L61.0384 830.362 L52.7282 832.029 L52.7282 827.77 L60.9921 826.103 L65.668 826.103 L65.668 856.728 L73.3068 856.728 L73.3068 860.663 L53.3995 860.663 L53.3995 856.728 Z" fill="#000000" fill-rule="nonzero" fill-opacity="1" /><path clip-path="url(#clip360)" d="M92.7512 829.182 Q89.1401 829.182 87.3114 832.747 Q85.5058 836.288 85.5058 843.418 Q85.5058 850.524 87.3114 854.089 Q89.1401 857.631 92.7512 857.631 Q96.3854 857.631 98.1909 854.089 Q100.02 850.524 100.02 843.418 Q100.02 836.288 98.1909 832.747 Q96.3854 829.182 92.7512 829.182 M92.7512 825.478 Q98.5613 825.478 101.617 830.084 Q104.696 834.668 104.696 843.418 Q104.696 852.145 101.617 856.751 Q98.5613 861.334 92.7512 861.334 Q86.941 861.334 83.8623 856.751 Q80.8068 852.145 80.8068 843.418 Q80.8068 834.668 83.8623 830.084 Q86.941 825.478 92.7512 825.478 Z" fill="#000000" fill-rule="nonzero" fill-opacity="1" /><path clip-path="url(#clip360)" d="M54.3949 586.3 L62.0337 586.3 L62.0337 559.935 L53.7236 561.601 L53.7236 557.342 L61.9874 555.675 L66.6633 555.675 L66.6633 586.3 L74.3022 586.3 L74.3022 590.235 L54.3949 590.235 L54.3949 586.3 Z" fill="#000000" fill-rule="nonzero" fill-opacity="1" /><path clip-path="url(#clip360)" d="M83.7929 555.675 L102.149 555.675 L102.149 559.611 L88.0753 559.611 L88.0753 568.083 Q89.0938 567.736 90.1123 567.573 Q91.1308 567.388 92.1493 567.388 Q97.9363 567.388 101.316 570.56 Q104.696 573.731 104.696 579.147 Q104.696 584.726 101.223 587.828 Q97.7511 590.907 91.4317 590.907 Q89.2558 590.907 86.9873 590.536 Q84.7419 590.166 82.3346 589.425 L82.3346 584.726 Q84.4179 585.86 86.6401 586.416 Q88.8623 586.972 91.3391 586.972 Q95.3437 586.972 97.6817 584.865 Q100.02 582.759 100.02 579.147 Q100.02 575.536 97.6817 573.43 Q95.3437 571.323 91.3391 571.323 Q89.4641 571.323 87.5892 571.74 Q85.7373 572.157 83.7929 573.036 L83.7929 555.675 Z" fill="#000000" fill-rule="nonzero" fill-opacity="1" /><path clip-path="url(#clip360)" d="M56.6171 315.873 L72.9365 315.873 L72.9365 319.808 L50.9921 319.808 L50.9921 315.873 Q53.6541 313.118 58.2375 308.488 Q62.8439 303.836 64.0245 302.493 Q66.2698 299.97 67.1494 298.234 Q68.0522 296.475 68.0522 294.785 Q68.0522 292.03 66.1078 290.294 Q64.1865 288.558 61.0847 288.558 Q58.8856 288.558 56.4319 289.322 Q54.0014 290.086 51.2236 291.637 L51.2236 286.914 Q54.0477 285.78 56.5014 285.201 Q58.955 284.623 60.9921 284.623 Q66.3624 284.623 69.5568 287.308 Q72.7513 289.993 72.7513 294.484 Q72.7513 296.613 71.9411 298.535 Q71.1541 300.433 69.0476 303.025 Q68.4689 303.697 65.367 306.914 Q62.2652 310.109 56.6171 315.873 Z" fill="#000000" fill-rule="nonzero" fill-opacity="1" /><path clip-path="url(#clip360)" d="M92.7512 288.326 Q89.1401 288.326 87.3114 291.891 Q85.5058 295.433 85.5058 302.562 Q85.5058 309.669 87.3114 313.234 Q89.1401 316.775 92.7512 316.775 Q96.3854 316.775 98.1909 313.234 Q100.02 309.669 100.02 302.562 Q100.02 295.433 98.1909 291.891 Q96.3854 288.326 92.7512 288.326 M92.7512 284.623 Q98.5613 284.623 101.617 289.229 Q104.696 293.813 104.696 302.562 Q104.696 311.289 101.617 315.896 Q98.5613 320.479 92.7512 320.479 Q86.941 320.479 83.8623 315.896 Q80.8068 311.289 80.8068 302.562 Q80.8068 293.813 83.8623 289.229 Q86.941 284.623 92.7512 284.623 Z" fill="#000000" fill-rule="nonzero" fill-opacity="1" /><polyline clip-path="url(#clip362)" style="stroke:#009af9; stroke-linecap:round; stroke-linejoin:round; stroke-width:8; stroke-opacity:1; fill:none" points="140.696,1384.24 142.638,1384.24 144.58,1384.24 146.522,1384.24 148.464,1384.24 150.406,1384.24 152.348,1384.24 154.29,1384.24 156.232,1384.24 158.175,1330.15 160.117,1330.15 162.059,1330.15 164.001,1330.15 165.943,1330.15 167.885,1330.15 169.827,1330.15 171.769,1330.15 173.711,1330.15 175.653,1330.15 177.596,1330.15 179.538,1330.15 181.48,1330.15 183.422,1330.15 185.364,1330.15 187.306,1330.15 189.248,1330.15 191.19,1330.15 193.132,1330.15 195.075,1330.15 197.017,1330.15 198.959,1330.15 200.901,1330.15 202.843,1330.15 204.785,1330.15 206.727,1330.15 208.669,1330.15 210.611,1330.15 212.554,1330.15 214.496,1330.15 216.438,1330.15 218.38,1330.15 220.322,1330.15 222.264,1330.15 224.206,1330.15 226.148,1330.15 228.09,1330.15 230.032,1330.15 231.975,1330.15 233.917,1330.15 235.859,1330.15 237.801,1330.15 239.743,1330.15 241.685,1330.15 243.627,1330.15 245.569,1330.15 247.511,1330.15 249.454,1330.15 251.396,1330.15 253.338,1330.15 255.28,1330.15 257.222,1276.07 259.164,1276.07 261.106,1276.07 263.048,1276.07 264.99,1276.07 266.933,1276.07 268.875,1276.07 270.817,1276.07 272.759,1276.07 274.701,1276.07 276.643,1276.07 278.585,1221.98 280.527,1221.98 282.469,1221.98 284.411,1221.98 286.354,1221.98 288.296,1221.98 290.238,1276.07 292.18,1276.07 294.122,1276.07 296.064,1276.07 298.006,1276.07 299.948,1276.07 301.89,1221.98 303.833,1221.98 305.775,1221.98 307.717,1221.98 309.659,1221.98 311.601,1221.98 313.543,1221.98 315.485,1221.98 317.427,1221.98 319.369,1221.98 321.312,1221.98 323.254,1221.98 325.196,1221.98 327.138,1167.9 329.08,1167.9 331.022,1167.9 332.964,1167.9 334.906,1221.98 336.848,1167.9 338.79,1167.9 340.733,1167.9 342.675,1167.9 344.617,1167.9 346.559,1167.9 348.501,1167.9 350.443,1167.9 352.385,1167.9 354.327,1167.9 356.269,1167.9 358.212,1167.9 360.154,1113.81 362.096,1113.81 364.038,1113.81 365.98,1167.9 367.922,1167.9 369.864,1167.9 371.806,1167.9 373.748,1167.9 375.691,1167.9 377.633,1167.9 379.575,1167.9 381.517,1167.9 383.459,1167.9 385.401,1167.9 387.343,1167.9 389.285,1167.9 391.227,1167.9 393.17,1167.9 395.112,1167.9 397.054,1167.9 398.996,1167.9 400.938,1167.9 402.88,1167.9 404.822,1167.9 406.764,1221.98 408.706,1221.98 410.648,1221.98 412.591,1221.98 414.533,1221.98 416.475,1221.98 418.417,1221.98 420.359,1221.98 422.301,1221.98 424.243,1221.98 426.185,1276.07 428.127,1276.07 430.07,1276.07 432.012,1276.07 433.954,1276.07 435.896,1276.07 437.838,1276.07 439.78,1276.07 441.722,1276.07 443.664,1276.07 445.606,1330.15 447.549,1330.15 449.491,1330.15 451.433,1330.15 453.375,1330.15 455.317,1330.15 457.259,1330.15 459.201,1330.15 461.143,1330.15 463.085,1330.15 465.027,1330.15 466.97,1330.15 468.912,1330.15 470.854,1330.15 472.796,1330.15 474.738,1330.15 476.68,1330.15 478.622,1330.15 480.564,1330.15 482.506,1330.15 484.449,1276.07 486.391,1276.07 488.333,1276.07 490.275,1276.07 492.217,1221.98 494.159,1221.98 496.101,1221.98 498.043,1221.98 499.985,1221.98 501.928,1221.98 503.87,1221.98 505.812,1276.07 507.754,1276.07 509.696,1276.07 511.638,1276.07 513.58,1276.07 515.522,1276.07 517.464,1276.07 519.406,1276.07 521.349,1276.07 523.291,1276.07 525.233,1276.07 527.175,1276.07 529.117,1276.07 531.059,1276.07 533.001,1276.07 534.943,1276.07 536.885,1276.07 538.828,1276.07 540.77,1276.07 542.712,1276.07 544.654,1276.07 546.596,1276.07 548.538,1276.07 550.48,1276.07 552.422,1330.15 554.364,1330.15 556.307,1330.15 558.249,1330.15 560.191,1330.15 562.133,1330.15 564.075,1330.15 566.017,1330.15 567.959,1330.15 569.901,1330.15 571.843,1330.15 573.785,1330.15 575.728,1330.15 577.67,1330.15 579.612,1330.15 581.554,1330.15 583.496,1330.15 585.438,1330.15 587.38,1330.15 589.322,1330.15 591.264,1330.15 593.207,1330.15 595.149,1330.15 597.091,1330.15 599.033,1330.15 600.975,1330.15 602.917,1330.15 604.859,1330.15 606.801,1330.15 608.743,1330.15 610.686,1330.15 612.628,1330.15 614.57,1330.15 616.512,1330.15 618.454,1330.15 620.396,1330.15 622.338,1330.15 624.28,1330.15 626.222,1330.15 628.165,1330.15 630.107,1330.15 632.049,1330.15 633.991,1330.15 635.933,1330.15 637.875,1330.15 639.817,1330.15 641.759,1330.15 643.701,1330.15 645.643,1330.15 647.586,1330.15 649.528,1330.15 651.47,1330.15 653.412,1330.15 655.354,1330.15 657.296,1330.15 659.238,1330.15 661.18,1330.15 663.122,1330.15 665.065,1330.15 667.007,1330.15 668.949,1330.15 670.891,1330.15 672.833,1330.15 674.775,1330.15 676.717,1330.15 678.659,1330.15 680.601,1330.15 682.544,1330.15 684.486,1330.15 686.428,1330.15 688.37,1330.15 690.312,1330.15 692.254,1330.15 694.196,1330.15 696.138,1330.15 698.08,1330.15 700.022,1330.15 701.965,1330.15 703.907,1330.15 705.849,1330.15 707.791,1330.15 709.733,1330.15 711.675,1330.15 713.617,1330.15 715.559,1330.15 717.501,1330.15 719.444,1330.15 721.386,1330.15 723.328,1330.15 725.27,1330.15 727.212,1330.15 729.154,1330.15 731.096,1330.15 733.038,1330.15 734.98,1330.15 736.923,1330.15 738.865,1330.15 740.807,1330.15 742.749,1330.15 744.691,1330.15 746.633,1330.15 748.575,1330.15 750.517,1330.15 752.459,1330.15 754.401,1330.15 756.344,1330.15 758.286,1330.15 760.228,1330.15 762.17,1330.15 764.112,1330.15 766.054,1330.15 767.996,1330.15 769.938,1330.15 771.88,1330.15 773.823,1330.15 775.765,1330.15 777.707,1330.15 779.649,1330.15 781.591,1330.15 783.533,1330.15 785.475,1330.15 787.417,1330.15 789.359,1330.15 791.302,1330.15 793.244,1330.15 795.186,1330.15 797.128,1330.15 799.07,1330.15 801.012,1330.15 802.954,1330.15 804.896,1330.15 806.838,1330.15 808.78,1384.24 810.723,1384.24 812.665,1384.24 814.607,1384.24 816.549,1384.24 818.491,1384.24 820.433,1384.24 822.375,1384.24 824.317,1384.24 826.259,1384.24 828.202,1384.24 830.144,1384.24 832.086,1384.24 834.028,1384.24 835.97,1384.24 837.912,1384.24 839.854,1384.24 841.796,1384.24 843.738,1384.24 845.681,1384.24 847.623,1384.24 849.565,1384.24 851.507,1384.24 853.449,1384.24 855.391,1384.24 857.333,1384.24 859.275,1384.24 861.217,1384.24 863.16,1384.24 865.102,1384.24 867.044,1384.24 868.986,1384.24 870.928,1384.24 872.87,1384.24 874.812,1384.24 876.754,1384.24 878.696,1384.24 880.638,1384.24 882.581,1384.24 884.523,1384.24 886.465,1384.24 888.407,1384.24 890.349,1384.24 892.291,1384.24 894.233,1384.24 896.175,1384.24 898.117,1384.24 900.06,1384.24 902.002,1384.24 903.944,1384.24 905.886,1384.24 907.828,1384.24 909.77,1384.24 911.712,1384.24 913.654,1384.24 915.596,1384.24 917.539,1384.24 919.481,1384.24 921.423,1384.24 923.365,1384.24 925.307,1384.24 927.249,1384.24 929.191,1384.24 931.133,1384.24 933.075,1384.24 935.017,1384.24 936.96,1384.24 938.902,1384.24 940.844,1384.24 942.786,1384.24 944.728,1384.24 946.67,1384.24 948.612,1384.24 950.554,1384.24 952.496,1384.24 954.439,1384.24 956.381,1384.24 958.323,1384.24 960.265,1384.24 962.207,1384.24 964.149,1384.24 966.091,1384.24 968.033,1384.24 969.975,1384.24 971.918,1384.24 973.86,1384.24 975.802,1384.24 977.744,1384.24 979.686,1384.24 981.628,1384.24 983.57,1384.24 985.512,1384.24 987.454,1384.24 989.396,1384.24 991.339,1330.15 993.281,1330.15 995.223,1330.15 997.165,1330.15 999.107,1330.15 1001.05,1330.15 1002.99,1330.15 1004.93,1330.15 1006.88,1330.15 1008.82,1330.15 1010.76,1330.15 1012.7,1330.15 1014.64,1330.15 1016.59,1330.15 1018.53,1330.15 1020.47,1330.15 1022.41,1330.15 1024.35,1330.15 1026.3,1330.15 1028.24,1330.15 1030.18,1330.15 1032.12,1330.15 1034.06,1330.15 1036.01,1330.15 1037.95,1330.15 1039.89,1330.15 1041.83,1330.15 1043.78,1330.15 1045.72,1330.15 1047.66,1330.15 1049.6,1330.15 1051.54,1330.15 1053.49,1330.15 1055.43,1276.07 1057.37,1276.07 1059.31,1276.07 1061.25,1276.07 1063.2,1276.07 1065.14,1276.07 1067.08,1276.07 1069.02,1276.07 1070.97,1276.07 1072.91,1276.07 1074.85,1276.07 1076.79,1276.07 1078.73,1276.07 1080.68,1221.98 1082.62,1221.98 1084.56,1221.98 1086.5,1221.98 1088.44,1221.98 1090.39,1221.98 1092.33,1221.98 1094.27,1221.98 1096.21,1221.98 1098.15,1221.98 1100.1,1221.98 1102.04,1221.98 1103.98,1221.98 1105.92,1221.98 1107.87,1221.98 1109.81,1221.98 1111.75,1221.98 1113.69,1221.98 1115.63,1221.98 1117.58,1221.98 1119.52,1221.98 1121.46,1221.98 1123.4,1221.98 1125.34,1221.98 1127.29,1221.98 1129.23,1221.98 1131.17,1221.98 1133.11,1221.98 1135.05,1221.98 1137,1221.98 1138.94,1221.98 1140.88,1221.98 1142.82,1221.98 1144.77,1221.98 1146.71,1221.98 1148.65,1221.98 1150.59,1221.98 1152.53,1167.9 1154.48,1167.9 1156.42,1167.9 1158.36,1167.9 1160.3,1167.9 1162.24,1167.9 1164.19,1167.9 1166.13,1167.9 1168.07,1221.98 1170.01,1221.98 1171.95,1221.98 1173.9,1221.98 1175.84,1221.98 1177.78,1167.9 1179.72,1167.9 1181.67,1167.9 1183.61,1167.9 1185.55,1167.9 1187.49,1167.9 1189.43,1167.9 1191.38,1167.9 1193.32,1167.9 1195.26,1167.9 1197.2,1167.9 1199.14,1167.9 1201.09,1113.81 1203.03,1113.81 1204.97,1113.81 1206.91,1113.81 1208.85,1113.81 1210.8,1113.81 1212.74,1113.81 1214.68,1113.81 1216.62,1113.81 1218.57,1113.81 1220.51,1059.73 1222.45,1059.73 1224.39,1059.73 1226.33,1059.73 1228.28,1059.73 1230.22,1059.73 1232.16,1059.73 1234.1,1059.73 1236.04,1059.73 1237.99,1059.73 1239.93,1059.73 1241.87,1059.73 1243.81,1059.73 1245.75,1059.73 1247.7,1059.73 1249.64,1059.73 1251.58,1059.73 1253.52,1059.73 1255.47,1059.73 1257.41,1059.73 1259.35,1059.73 1261.29,1059.73 1263.23,1059.73 1265.18,1005.64 1267.12,1005.64 1269.06,1005.64 1271,1005.64 1272.94,1005.64 1274.89,1005.64 1276.83,1005.64 1278.77,1005.64 1280.71,1005.64 1282.65,1005.64 1284.6,1005.64 1286.54,1005.64 1288.48,1005.64 1290.42,1005.64 1292.37,1005.64 1294.31,1005.64 1296.25,1005.64 1298.19,1005.64 1300.13,1059.73 1302.08,1059.73 1304.02,1059.73 1305.96,1059.73 1307.9,1059.73 1309.84,1059.73 1311.79,1113.81 1313.73,1113.81 1315.67,1113.81 1317.61,1167.9 1319.55,1167.9 1321.5,1167.9 1323.44,1167.9 1325.38,1167.9 1327.32,1167.9 1329.27,1167.9 1331.21,1167.9 1333.15,1167.9 1335.09,1167.9 1337.03,1167.9 1338.98,1221.98 1340.92,1221.98 1342.86,1221.98 1344.8,1221.98 1346.74,1221.98 1348.69,1276.07 1350.63,1276.07 1352.57,1276.07 1354.51,1276.07 1356.45,1276.07 1358.4,1276.07 1360.34,1276.07 1362.28,1276.07 1364.22,1276.07 1366.17,1330.15 1368.11,1330.15 1370.05,1330.15 1371.99,1330.15 1373.93,1330.15 1375.88,1330.15 1377.82,1330.15 1379.76,1330.15 1381.7,1330.15 1383.64,1330.15 1385.59,1330.15 1387.53,1330.15 1389.47,1330.15 1391.41,1276.07 1393.35,1276.07 1395.3,1276.07 1397.24,1276.07 1399.18,1276.07 1401.12,1276.07 1403.07,1276.07 1405.01,1276.07 1406.95,1276.07 1408.89,1276.07 1410.83,1276.07 1412.78,1276.07 1414.72,1276.07 1416.66,1276.07 1418.6,1276.07 1420.54,1276.07 1422.49,1276.07 1424.43,1276.07 1426.37,1276.07 1428.31,1276.07 1430.25,1276.07 1432.2,1276.07 1434.14,1276.07 1436.08,1276.07 1438.02,1276.07 1439.97,1276.07 1441.91,1276.07 1443.85,1276.07 1445.79,1276.07 1447.73,1276.07 1449.68,1276.07 1451.62,1276.07 1453.56,1276.07 1455.5,1276.07 1457.44,1276.07 1459.39,1330.15 1461.33,1330.15 1463.27,1330.15 1465.21,1330.15 1467.15,1330.15 1469.1,1330.15 1471.04,1330.15 1472.98,1330.15 1474.92,1330.15 1476.87,1330.15 1478.81,1330.15 1480.75,1330.15 1482.69,1330.15 1484.63,1330.15 1486.58,1330.15 1488.52,1330.15 1490.46,1330.15 1492.4,1330.15 1494.34,1384.24 1496.29,1384.24 1498.23,1384.24 1500.17,1384.24 1502.11,1384.24 1504.05,1384.24 1506,1384.24 1507.94,1384.24 1509.88,1384.24 1511.82,1384.24 1513.77,1384.24 1515.71,1384.24 1517.65,1384.24 1519.59,1384.24 1521.53,1384.24 1523.48,1384.24 1525.42,1384.24 1527.36,1384.24 1529.3,1384.24 1531.24,1384.24 1533.19,1384.24 1535.13,1384.24 1537.07,1384.24 1539.01,1384.24 1540.95,1384.24 1542.9,1384.24 1544.84,1384.24 1546.78,1384.24 1548.72,1384.24 1550.67,1384.24 1552.61,1384.24 1554.55,1384.24 1556.49,1384.24 1558.43,1384.24 1560.38,1384.24 1562.32,1384.24 1564.26,1384.24 1566.2,1384.24 1568.14,1384.24 1570.09,1384.24 1572.03,1384.24 1573.97,1384.24 1575.91,1384.24 1577.86,1384.24 1579.8,1384.24 1581.74,1384.24 1583.68,1384.24 1585.62,1384.24 1587.57,1384.24 1589.51,1384.24 1591.45,1384.24 1593.39,1384.24 1595.33,1384.24 1597.28,1384.24 1599.22,1384.24 1601.16,1384.24 1603.1,1384.24 1605.04,1384.24 1606.99,1384.24 1608.93,1384.24 1610.87,1384.24 1612.81,1384.24 1614.76,1384.24 1616.7,1384.24 1618.64,1384.24 1620.58,1384.24 1622.52,1384.24 1624.47,1384.24 1626.41,1384.24 1628.35,1384.24 1630.29,1384.24 1632.23,1384.24 1634.18,1384.24 1636.12,1384.24 1638.06,1384.24 1640,1384.24 1641.94,1384.24 1643.89,1384.24 1645.83,1384.24 1647.77,1384.24 1649.71,1384.24 1651.66,1384.24 1653.6,1384.24 1655.54,1384.24 1657.48,1384.24 1659.42,1384.24 1661.37,1384.24 1663.31,1384.24 1665.25,1384.24 1667.19,1384.24 1669.13,1384.24 1671.08,1384.24 1673.02,1384.24 1674.96,1384.24 1676.9,1384.24 1678.84,1384.24 1680.79,1384.24 1682.73,1384.24 1684.67,1384.24 1686.61,1384.24 1688.56,1384.24 1690.5,1384.24 1692.44,1384.24 1694.38,1384.24 1696.32,1384.24 1698.27,1384.24 1700.21,1384.24 1702.15,1384.24 1704.09,1384.24 1706.03,1384.24 1707.98,1384.24 1709.92,1384.24 1711.86,1384.24 1713.8,1384.24 1715.74,1384.24 1717.69,1384.24 1719.63,1384.24 1721.57,1384.24 1723.51,1384.24 1725.46,1384.24 1727.4,1384.24 1729.34,1384.24 1731.28,1384.24 1733.22,1384.24 1735.17,1384.24 1737.11,1384.24 1739.05,1384.24 1740.99,1384.24 1742.93,1384.24 1744.88,1384.24 1746.82,1384.24 1748.76,1384.24 1750.7,1384.24 1752.64,1384.24 1754.59,1384.24 1756.53,1384.24 1758.47,1384.24 1760.41,1384.24 1762.36,1384.24 1764.3,1384.24 1766.24,1384.24 1768.18,1384.24 1770.12,1384.24 1772.07,1384.24 1774.01,1384.24 1775.95,1384.24 1777.89,1384.24 1779.83,1384.24 1781.78,1384.24 1783.72,1384.24 1785.66,1384.24 1787.6,1384.24 1789.54,1384.24 1791.49,1384.24 1793.43,1384.24 1795.37,1384.24 1797.31,1384.24 1799.26,1384.24 1801.2,1384.24 1803.14,1384.24 1805.08,1384.24 1807.02,1384.24 1808.97,1384.24 1810.91,1384.24 1812.85,1384.24 1814.79,1384.24 1816.73,1384.24 1818.68,1384.24 1820.62,1384.24 1822.56,1384.24 1824.5,1384.24 1826.44,1384.24 1828.39,1384.24 1830.33,1384.24 1832.27,1384.24 1834.21,1384.24 1836.16,1384.24 1838.1,1384.24 1840.04,1384.24 1841.98,1384.24 1843.92,1384.24 1845.87,1384.24 1847.81,1384.24 1849.75,1384.24 1851.69,1384.24 1853.63,1384.24 1855.58,1384.24 1857.52,1384.24 1859.46,1384.24 1861.4,1384.24 1863.34,1384.24 1865.29,1384.24 1867.23,1384.24 1869.17,1384.24 1871.11,1384.24 1873.06,1384.24 1875,1384.24 1876.94,1384.24 1878.88,1384.24 1880.82,1384.24 1882.77,1384.24 1884.71,1384.24 1886.65,1384.24 1888.59,1384.24 1890.53,1384.24 1892.48,1384.24 1894.42,1384.24 1896.36,1384.24 1898.3,1384.24 1900.24,1384.24 1902.19,1384.24 1904.13,1384.24 1906.07,1384.24 1908.01,1384.24 1909.96,1384.24 1911.9,1384.24 1913.84,1384.24 1915.78,1384.24 1917.72,1384.24 1919.67,1384.24 1921.61,1384.24 1923.55,1384.24 1925.49,1384.24 1927.43,1384.24 1929.38,1384.24 1931.32,1384.24 1933.26,1384.24 1935.2,1384.24 1937.14,1384.24 1939.09,1384.24 1941.03,1384.24 1942.97,1384.24 1944.91,1384.24 1946.86,1384.24 1948.8,1384.24 1950.74,1384.24 1952.68,1384.24 1954.62,1384.24 1956.57,1384.24 1958.51,1384.24 1960.45,1384.24 1962.39,1384.24 1964.33,1384.24 1966.28,1384.24 1968.22,1384.24 1970.16,1384.24 1972.1,1384.24 1974.04,1384.24 1975.99,1384.24 1977.93,1384.24 1979.87,1384.24 1981.81,1384.24 1983.76,1384.24 1985.7,1384.24 1987.64,1384.24 1989.58,1384.24 1991.52,1384.24 1993.47,1384.24 1995.41,1384.24 1997.35,1384.24 1999.29,1384.24 2001.23,1384.24 2003.18,1384.24 2005.12,1384.24 2007.06,1384.24 2009,1384.24 2010.94,1384.24 2012.89,1384.24 2014.83,1384.24 2016.77,1384.24 2018.71,1384.24 2020.66,1384.24 2022.6,1384.24 2024.54,1384.24 2026.48,1384.24 2028.42,1384.24 2030.37,1384.24 2032.31,1384.24 2034.25,1384.24 2036.19,1384.24 2038.13,1384.24 2040.08,1384.24 2042.02,1384.24 2043.96,1384.24 2045.9,1384.24 2047.85,1384.24 2049.79,1384.24 2051.73,1330.15 2053.67,1330.15 2055.61,1330.15 2057.56,1330.15 2059.5,1330.15 2061.44,1330.15 2063.38,1330.15 2065.32,1330.15 2067.27,1330.15 2069.21,1330.15 2071.15,1276.07 2073.09,1330.15 2075.03,1330.15 2076.98,1330.15 2078.92,1330.15 2080.86,1330.15 2082.8,1330.15 2084.75,1330.15 2086.69,1330.15 2088.63,1330.15 2090.57,1330.15 2092.51,1330.15 2094.46,1330.15 2096.4,1330.15 2098.34,1330.15 2100.28,1330.15 2102.22,1330.15 2104.17,1330.15 2106.11,1276.07 2108.05,1276.07 2109.99,1276.07 2111.93,1276.07 2113.88,1276.07 2115.82,1330.15 2117.76,1330.15 2119.7,1276.07 2121.65,1276.07 2123.59,1276.07 2125.53,1276.07 2127.47,1276.07 2129.41,1276.07 2131.36,1276.07 2133.3,1276.07 2135.24,1276.07 2137.18,1276.07 2139.12,1276.07 2141.07,1276.07 2143.01,1276.07 2144.95,1276.07 2146.89,1276.07 2148.83,1276.07 2150.78,1276.07 2152.72,1276.07 2154.66,1276.07 2156.6,1276.07 2158.55,1276.07 2160.49,1276.07 2162.43,1276.07 2164.37,1276.07 2166.31,1276.07 2168.26,1276.07 2170.2,1276.07 2172.14,1276.07 2174.08,1276.07 2176.02,1276.07 2177.97,1276.07 2179.91,1276.07 2181.85,1276.07 2183.79,1276.07 2185.73,1276.07 2187.68,1276.07 2189.62,1330.15 2191.56,1330.15 2193.5,1276.07 2195.45,1276.07 2197.39,1276.07 2199.33,1276.07 2201.27,1276.07 2203.21,1330.15 2205.16,1330.15 2207.1,1330.15 2209.04,1330.15 2210.98,1330.15 2212.92,1330.15 2214.87,1330.15 2216.81,1330.15 2218.75,1330.15 2220.69,1330.15 2222.63,1330.15 2224.58,1276.07 2226.52,1276.07 2228.46,1276.07 2230.4,1276.07 2232.35,1276.07 2234.29,1276.07 2236.23,1276.07 2238.17,1221.98 2240.11,1221.98 2242.06,1221.98 2244,1221.98 2245.94,1221.98 2247.88,1221.98 2249.82,1221.98 2251.77,1167.9 2253.71,1167.9 2255.65,1167.9 2257.59,1167.9 2259.53,1167.9 2261.48,1113.81 2263.42,1113.81 2265.36,1113.81 2267.3,1113.81 2269.25,1113.81 2271.19,1113.81 2273.13,1113.81 2275.07,1113.81 2277.01,1167.9 2278.96,1167.9 2280.9,1167.9 2282.84,1167.9 2284.78,1167.9 2286.72,1167.9 2288.67,1167.9 2290.61,1167.9 2292.55,1113.81 2294.49,1113.81 2296.43,1113.81 2298.38,1113.81 2300.32,1167.9 2302.26,1167.9 2304.2,1167.9 2306.15,1167.9 2308.09,1167.9 2310.03,1167.9 2311.97,1167.9 2313.91,1167.9 2315.86,1167.9 2317.8,1167.9 2319.74,1167.9 2321.68,1167.9 2323.62,1167.9 2325.57,1167.9 2327.51,1167.9 2329.45,1167.9 2331.39,1167.9 2333.33,1167.9 2335.28,1167.9 2337.22,1167.9 2339.16,1167.9 2341.1,1167.9 2343.05,1167.9 2344.99,1167.9 2346.93,1167.9 2348.87,1167.9 2350.81,1167.9 2352.76,1167.9 "/>
<polyline clip-path="url(#clip362)" style="stroke:#e26f46; stroke-linecap:round; stroke-linejoin:round; stroke-width:8; stroke-opacity:1; fill:none" points="140.696,1384.24 142.638,1384.24 144.58,1384.24 146.522,1384.24 148.464,1384.24 150.406,1384.24 152.348,1384.24 154.29,1384.24 156.232,1384.24 158.175,1384.24 160.117,1384.24 162.059,1384.24 164.001,1384.24 165.943,1384.24 167.885,1384.24 169.827,1384.24 171.769,1384.24 173.711,1384.24 175.653,1384.24 177.596,1384.24 179.538,1384.24 181.48,1384.24 183.422,1384.24 185.364,1384.24 187.306,1384.24 189.248,1384.24 191.19,1384.24 193.132,1384.24 195.075,1384.24 197.017,1384.24 198.959,1384.24 200.901,1384.24 202.843,1384.24 204.785,1384.24 206.727,1384.24 208.669,1384.24 210.611,1384.24 212.554,1384.24 214.496,1384.24 216.438,1384.24 218.38,1384.24 220.322,1384.24 222.264,1384.24 224.206,1384.24 226.148,1384.24 228.09,1384.24 230.032,1384.24 231.975,1384.24 233.917,1384.24 235.859,1384.24 237.801,1384.24 239.743,1384.24 241.685,1384.24 243.627,1384.24 245.569,1384.24 247.511,1384.24 249.454,1384.24 251.396,1384.24 253.338,1384.24 255.28,1384.24 257.222,1384.24 259.164,1384.24 261.106,1384.24 263.048,1384.24 264.99,1384.24 266.933,1384.24 268.875,1384.24 270.817,1384.24 272.759,1384.24 274.701,1384.24 276.643,1384.24 278.585,1384.24 280.527,1384.24 282.469,1384.24 284.411,1384.24 286.354,1384.24 288.296,1384.24 290.238,1330.15 292.18,1330.15 294.122,1330.15 296.064,1330.15 298.006,1330.15 299.948,1330.15 301.89,1330.15 303.833,1330.15 305.775,1330.15 307.717,1330.15 309.659,1330.15 311.601,1330.15 313.543,1330.15 315.485,1330.15 317.427,1330.15 319.369,1330.15 321.312,1330.15 323.254,1330.15 325.196,1330.15 327.138,1330.15 329.08,1330.15 331.022,1330.15 332.964,1330.15 334.906,1276.07 336.848,1276.07 338.79,1276.07 340.733,1276.07 342.675,1276.07 344.617,1276.07 346.559,1276.07 348.501,1276.07 350.443,1276.07 352.385,1276.07 354.327,1276.07 356.269,1276.07 358.212,1276.07 360.154,1276.07 362.096,1276.07 364.038,1276.07 365.98,1221.98 367.922,1221.98 369.864,1221.98 371.806,1221.98 373.748,1221.98 375.691,1221.98 377.633,1221.98 379.575,1221.98 381.517,1221.98 383.459,1221.98 385.401,1221.98 387.343,1221.98 389.285,1221.98 391.227,1221.98 393.17,1221.98 395.112,1221.98 397.054,1221.98 398.996,1221.98 400.938,1221.98 402.88,1221.98 404.822,1221.98 406.764,1167.9 408.706,1167.9 410.648,1167.9 412.591,1167.9 414.533,1167.9 416.475,1167.9 418.417,1167.9 420.359,1167.9 422.301,1167.9 424.243,1167.9 426.185,1113.81 428.127,1113.81 430.07,1113.81 432.012,1113.81 433.954,1113.81 435.896,1113.81 437.838,1113.81 439.78,1113.81 441.722,1113.81 443.664,1113.81 445.606,1059.73 447.549,1059.73 449.491,1059.73 451.433,1059.73 453.375,1059.73 455.317,1059.73 457.259,1059.73 459.201,1059.73 461.143,1059.73 463.085,1059.73 465.027,1059.73 466.97,1059.73 468.912,1059.73 470.854,1059.73 472.796,1059.73 474.738,1059.73 476.68,1059.73 478.622,1059.73 480.564,1059.73 482.506,1059.73 484.449,1059.73 486.391,1059.73 488.333,1059.73 490.275,1059.73 492.217,1059.73 494.159,1059.73 496.101,1059.73 498.043,1059.73 499.985,1059.73 501.928,1059.73 503.87,1059.73 505.812,1005.64 507.754,1005.64 509.696,1005.64 511.638,1005.64 513.58,1005.64 515.522,1005.64 517.464,1005.64 519.406,1005.64 521.349,1005.64 523.291,1005.64 525.233,1005.64 527.175,1005.64 529.117,1005.64 531.059,1005.64 533.001,1005.64 534.943,1005.64 536.885,1005.64 538.828,1005.64 540.77,1005.64 542.712,1005.64 544.654,1005.64 546.596,1005.64 548.538,1005.64 550.48,1005.64 552.422,951.554 554.364,951.554 556.307,951.554 558.249,951.554 560.191,951.554 562.133,951.554 564.075,951.554 566.017,951.554 567.959,951.554 569.901,951.554 571.843,951.554 573.785,951.554 575.728,951.554 577.67,951.554 579.612,951.554 581.554,951.554 583.496,951.554 585.438,951.554 587.38,951.554 589.322,951.554 591.264,951.554 593.207,951.554 595.149,951.554 597.091,951.554 599.033,951.554 600.975,951.554 602.917,951.554 604.859,951.554 606.801,951.554 608.743,951.554 610.686,951.554 612.628,951.554 614.57,951.554 616.512,951.554 618.454,951.554 620.396,951.554 622.338,951.554 624.28,951.554 626.222,951.554 628.165,951.554 630.107,951.554 632.049,951.554 633.991,951.554 635.933,951.554 637.875,951.554 639.817,951.554 641.759,951.554 643.701,951.554 645.643,951.554 647.586,951.554 649.528,951.554 651.47,951.554 653.412,951.554 655.354,951.554 657.296,951.554 659.238,951.554 661.18,951.554 663.122,951.554 665.065,951.554 667.007,951.554 668.949,951.554 670.891,951.554 672.833,951.554 674.775,951.554 676.717,951.554 678.659,951.554 680.601,951.554 682.544,951.554 684.486,951.554 686.428,951.554 688.37,951.554 690.312,951.554 692.254,951.554 694.196,951.554 696.138,951.554 698.08,951.554 700.022,951.554 701.965,951.554 703.907,951.554 705.849,951.554 707.791,951.554 709.733,951.554 711.675,951.554 713.617,951.554 715.559,951.554 717.501,951.554 719.444,951.554 721.386,951.554 723.328,951.554 725.27,951.554 727.212,951.554 729.154,951.554 731.096,951.554 733.038,951.554 734.98,951.554 736.923,951.554 738.865,951.554 740.807,951.554 742.749,951.554 744.691,951.554 746.633,951.554 748.575,951.554 750.517,951.554 752.459,951.554 754.401,951.554 756.344,951.554 758.286,951.554 760.228,951.554 762.17,951.554 764.112,951.554 766.054,951.554 767.996,951.554 769.938,951.554 771.88,951.554 773.823,951.554 775.765,951.554 777.707,951.554 779.649,951.554 781.591,951.554 783.533,951.554 785.475,951.554 787.417,951.554 789.359,951.554 791.302,951.554 793.244,951.554 795.186,951.554 797.128,951.554 799.07,951.554 801.012,951.554 802.954,951.554 804.896,951.554 806.838,951.554 808.78,897.469 810.723,897.469 812.665,897.469 814.607,897.469 816.549,897.469 818.491,897.469 820.433,897.469 822.375,897.469 824.317,897.469 826.259,897.469 828.202,897.469 830.144,897.469 832.086,897.469 834.028,897.469 835.97,897.469 837.912,897.469 839.854,897.469 841.796,897.469 843.738,897.469 845.681,897.469 847.623,897.469 849.565,897.469 851.507,897.469 853.449,897.469 855.391,897.469 857.333,897.469 859.275,897.469 861.217,897.469 863.16,897.469 865.102,897.469 867.044,897.469 868.986,897.469 870.928,897.469 872.87,897.469 874.812,897.469 876.754,897.469 878.696,897.469 880.638,897.469 882.581,897.469 884.523,897.469 886.465,897.469 888.407,897.469 890.349,897.469 892.291,897.469 894.233,897.469 896.175,897.469 898.117,897.469 900.06,897.469 902.002,897.469 903.944,897.469 905.886,897.469 907.828,897.469 909.77,897.469 911.712,897.469 913.654,897.469 915.596,897.469 917.539,897.469 919.481,897.469 921.423,897.469 923.365,897.469 925.307,897.469 927.249,897.469 929.191,897.469 931.133,897.469 933.075,897.469 935.017,897.469 936.96,897.469 938.902,897.469 940.844,897.469 942.786,897.469 944.728,897.469 946.67,897.469 948.612,897.469 950.554,897.469 952.496,897.469 954.439,897.469 956.381,897.469 958.323,897.469 960.265,897.469 962.207,897.469 964.149,897.469 966.091,897.469 968.033,897.469 969.975,897.469 971.918,897.469 973.86,897.469 975.802,897.469 977.744,897.469 979.686,897.469 981.628,897.469 983.57,897.469 985.512,897.469 987.454,897.469 989.396,897.469 991.339,897.469 993.281,897.469 995.223,897.469 997.165,897.469 999.107,897.469 1001.05,897.469 1002.99,897.469 1004.93,897.469 1006.88,897.469 1008.82,897.469 1010.76,897.469 1012.7,897.469 1014.64,897.469 1016.59,897.469 1018.53,897.469 1020.47,897.469 1022.41,897.469 1024.35,897.469 1026.3,897.469 1028.24,897.469 1030.18,897.469 1032.12,897.469 1034.06,897.469 1036.01,897.469 1037.95,897.469 1039.89,897.469 1041.83,897.469 1043.78,897.469 1045.72,897.469 1047.66,897.469 1049.6,897.469 1051.54,897.469 1053.49,897.469 1055.43,897.469 1057.37,897.469 1059.31,897.469 1061.25,897.469 1063.2,897.469 1065.14,897.469 1067.08,897.469 1069.02,897.469 1070.97,897.469 1072.91,897.469 1074.85,897.469 1076.79,897.469 1078.73,897.469 1080.68,897.469 1082.62,897.469 1084.56,897.469 1086.5,897.469 1088.44,897.469 1090.39,897.469 1092.33,897.469 1094.27,897.469 1096.21,897.469 1098.15,897.469 1100.1,897.469 1102.04,897.469 1103.98,897.469 1105.92,897.469 1107.87,897.469 1109.81,897.469 1111.75,897.469 1113.69,897.469 1115.63,897.469 1117.58,897.469 1119.52,897.469 1121.46,897.469 1123.4,897.469 1125.34,897.469 1127.29,897.469 1129.23,897.469 1131.17,897.469 1133.11,897.469 1135.05,897.469 1137,897.469 1138.94,897.469 1140.88,897.469 1142.82,897.469 1144.77,897.469 1146.71,897.469 1148.65,897.469 1150.59,897.469 1152.53,897.469 1154.48,897.469 1156.42,897.469 1158.36,897.469 1160.3,897.469 1162.24,897.469 1164.19,897.469 1166.13,897.469 1168.07,843.383 1170.01,843.383 1171.95,843.383 1173.9,843.383 1175.84,843.383 1177.78,843.383 1179.72,843.383 1181.67,843.383 1183.61,843.383 1185.55,843.383 1187.49,843.383 1189.43,843.383 1191.38,843.383 1193.32,843.383 1195.26,843.383 1197.2,843.383 1199.14,843.383 1201.09,843.383 1203.03,843.383 1204.97,843.383 1206.91,843.383 1208.85,843.383 1210.8,843.383 1212.74,843.383 1214.68,843.383 1216.62,843.383 1218.57,843.383 1220.51,843.383 1222.45,843.383 1224.39,843.383 1226.33,843.383 1228.28,843.383 1230.22,843.383 1232.16,843.383 1234.1,843.383 1236.04,843.383 1237.99,843.383 1239.93,843.383 1241.87,843.383 1243.81,843.383 1245.75,843.383 1247.7,843.383 1249.64,843.383 1251.58,843.383 1253.52,843.383 1255.47,843.383 1257.41,843.383 1259.35,843.383 1261.29,843.383 1263.23,843.383 1265.18,843.383 1267.12,843.383 1269.06,843.383 1271,843.383 1272.94,843.383 1274.89,843.383 1276.83,843.383 1278.77,843.383 1280.71,843.383 1282.65,843.383 1284.6,843.383 1286.54,843.383 1288.48,843.383 1290.42,843.383 1292.37,843.383 1294.31,843.383 1296.25,843.383 1298.19,843.383 1300.13,789.297 1302.08,789.297 1304.02,789.297 1305.96,789.297 1307.9,789.297 1309.84,789.297 1311.79,735.212 1313.73,735.212 1315.67,735.212 1317.61,681.126 1319.55,681.126 1321.5,681.126 1323.44,681.126 1325.38,681.126 1327.32,681.126 1329.27,681.126 1331.21,681.126 1333.15,681.126 1335.09,681.126 1337.03,681.126 1338.98,627.041 1340.92,627.041 1342.86,627.041 1344.8,627.041 1346.74,627.041 1348.69,572.955 1350.63,572.955 1352.57,572.955 1354.51,572.955 1356.45,572.955 1358.4,572.955 1360.34,572.955 1362.28,572.955 1364.22,572.955 1366.17,518.87 1368.11,518.87 1370.05,518.87 1371.99,518.87 1373.93,518.87 1375.88,518.87 1377.82,518.87 1379.76,518.87 1381.7,518.87 1383.64,518.87 1385.59,518.87 1387.53,518.87 1389.47,518.87 1391.41,518.87 1393.35,518.87 1395.3,518.87 1397.24,518.87 1399.18,518.87 1401.12,518.87 1403.07,518.87 1405.01,518.87 1406.95,518.87 1408.89,518.87 1410.83,518.87 1412.78,518.87 1414.72,518.87 1416.66,518.87 1418.6,518.87 1420.54,518.87 1422.49,518.87 1424.43,518.87 1426.37,518.87 1428.31,518.87 1430.25,518.87 1432.2,518.87 1434.14,518.87 1436.08,518.87 1438.02,518.87 1439.97,518.87 1441.91,518.87 1443.85,518.87 1445.79,518.87 1447.73,518.87 1449.68,518.87 1451.62,518.87 1453.56,518.87 1455.5,518.87 1457.44,518.87 1459.39,464.784 1461.33,464.784 1463.27,464.784 1465.21,464.784 1467.15,464.784 1469.1,464.784 1471.04,464.784 1472.98,464.784 1474.92,464.784 1476.87,464.784 1478.81,464.784 1480.75,464.784 1482.69,464.784 1484.63,464.784 1486.58,464.784 1488.52,464.784 1490.46,464.784 1492.4,464.784 1494.34,410.699 1496.29,410.699 1498.23,410.699 1500.17,410.699 1502.11,410.699 1504.05,410.699 1506,410.699 1507.94,410.699 1509.88,410.699 1511.82,410.699 1513.77,410.699 1515.71,410.699 1517.65,410.699 1519.59,410.699 1521.53,410.699 1523.48,410.699 1525.42,410.699 1527.36,410.699 1529.3,410.699 1531.24,410.699 1533.19,410.699 1535.13,410.699 1537.07,410.699 1539.01,410.699 1540.95,410.699 1542.9,410.699 1544.84,410.699 1546.78,410.699 1548.72,410.699 1550.67,410.699 1552.61,410.699 1554.55,410.699 1556.49,410.699 1558.43,410.699 1560.38,410.699 1562.32,410.699 1564.26,410.699 1566.2,410.699 1568.14,410.699 1570.09,410.699 1572.03,410.699 1573.97,410.699 1575.91,410.699 1577.86,410.699 1579.8,410.699 1581.74,410.699 1583.68,410.699 1585.62,410.699 1587.57,410.699 1589.51,410.699 1591.45,410.699 1593.39,410.699 1595.33,410.699 1597.28,410.699 1599.22,410.699 1601.16,410.699 1603.1,410.699 1605.04,410.699 1606.99,410.699 1608.93,410.699 1610.87,410.699 1612.81,410.699 1614.76,410.699 1616.7,410.699 1618.64,410.699 1620.58,410.699 1622.52,410.699 1624.47,410.699 1626.41,410.699 1628.35,410.699 1630.29,410.699 1632.23,410.699 1634.18,410.699 1636.12,410.699 1638.06,410.699 1640,410.699 1641.94,410.699 1643.89,410.699 1645.83,410.699 1647.77,410.699 1649.71,410.699 1651.66,410.699 1653.6,410.699 1655.54,410.699 1657.48,410.699 1659.42,410.699 1661.37,410.699 1663.31,410.699 1665.25,410.699 1667.19,410.699 1669.13,410.699 1671.08,410.699 1673.02,410.699 1674.96,410.699 1676.9,410.699 1678.84,410.699 1680.79,410.699 1682.73,410.699 1684.67,410.699 1686.61,410.699 1688.56,410.699 1690.5,410.699 1692.44,410.699 1694.38,410.699 1696.32,410.699 1698.27,410.699 1700.21,410.699 1702.15,410.699 1704.09,410.699 1706.03,410.699 1707.98,410.699 1709.92,410.699 1711.86,410.699 1713.8,410.699 1715.74,410.699 1717.69,410.699 1719.63,410.699 1721.57,410.699 1723.51,410.699 1725.46,410.699 1727.4,410.699 1729.34,410.699 1731.28,410.699 1733.22,410.699 1735.17,410.699 1737.11,410.699 1739.05,410.699 1740.99,410.699 1742.93,410.699 1744.88,410.699 1746.82,410.699 1748.76,410.699 1750.7,410.699 1752.64,410.699 1754.59,410.699 1756.53,410.699 1758.47,410.699 1760.41,410.699 1762.36,410.699 1764.3,410.699 1766.24,410.699 1768.18,410.699 1770.12,410.699 1772.07,410.699 1774.01,410.699 1775.95,410.699 1777.89,410.699 1779.83,410.699 1781.78,410.699 1783.72,410.699 1785.66,410.699 1787.6,410.699 1789.54,410.699 1791.49,410.699 1793.43,410.699 1795.37,410.699 1797.31,410.699 1799.26,410.699 1801.2,410.699 1803.14,410.699 1805.08,410.699 1807.02,410.699 1808.97,410.699 1810.91,410.699 1812.85,410.699 1814.79,410.699 1816.73,410.699 1818.68,410.699 1820.62,410.699 1822.56,410.699 1824.5,410.699 1826.44,410.699 1828.39,410.699 1830.33,410.699 1832.27,410.699 1834.21,410.699 1836.16,410.699 1838.1,410.699 1840.04,410.699 1841.98,410.699 1843.92,410.699 1845.87,410.699 1847.81,410.699 1849.75,410.699 1851.69,410.699 1853.63,410.699 1855.58,410.699 1857.52,410.699 1859.46,410.699 1861.4,410.699 1863.34,410.699 1865.29,410.699 1867.23,410.699 1869.17,410.699 1871.11,410.699 1873.06,410.699 1875,410.699 1876.94,410.699 1878.88,410.699 1880.82,410.699 1882.77,410.699 1884.71,410.699 1886.65,410.699 1888.59,410.699 1890.53,410.699 1892.48,410.699 1894.42,410.699 1896.36,410.699 1898.3,410.699 1900.24,410.699 1902.19,410.699 1904.13,410.699 1906.07,410.699 1908.01,410.699 1909.96,410.699 1911.9,410.699 1913.84,410.699 1915.78,410.699 1917.72,410.699 1919.67,410.699 1921.61,410.699 1923.55,410.699 1925.49,410.699 1927.43,410.699 1929.38,410.699 1931.32,410.699 1933.26,410.699 1935.2,410.699 1937.14,410.699 1939.09,410.699 1941.03,410.699 1942.97,410.699 1944.91,410.699 1946.86,410.699 1948.8,410.699 1950.74,410.699 1952.68,410.699 1954.62,410.699 1956.57,410.699 1958.51,410.699 1960.45,410.699 1962.39,410.699 1964.33,410.699 1966.28,410.699 1968.22,410.699 1970.16,410.699 1972.1,410.699 1974.04,410.699 1975.99,410.699 1977.93,410.699 1979.87,410.699 1981.81,410.699 1983.76,410.699 1985.7,410.699 1987.64,410.699 1989.58,410.699 1991.52,410.699 1993.47,410.699 1995.41,410.699 1997.35,410.699 1999.29,410.699 2001.23,410.699 2003.18,410.699 2005.12,410.699 2007.06,410.699 2009,410.699 2010.94,410.699 2012.89,410.699 2014.83,410.699 2016.77,410.699 2018.71,410.699 2020.66,410.699 2022.6,410.699 2024.54,410.699 2026.48,410.699 2028.42,410.699 2030.37,410.699 2032.31,410.699 2034.25,410.699 2036.19,410.699 2038.13,410.699 2040.08,410.699 2042.02,410.699 2043.96,410.699 2045.9,410.699 2047.85,410.699 2049.79,410.699 2051.73,410.699 2053.67,410.699 2055.61,410.699 2057.56,410.699 2059.5,410.699 2061.44,410.699 2063.38,410.699 2065.32,410.699 2067.27,410.699 2069.21,410.699 2071.15,410.699 2073.09,356.613 2075.03,356.613 2076.98,356.613 2078.92,356.613 2080.86,356.613 2082.8,356.613 2084.75,356.613 2086.69,356.613 2088.63,356.613 2090.57,356.613 2092.51,356.613 2094.46,356.613 2096.4,356.613 2098.34,356.613 2100.28,356.613 2102.22,356.613 2104.17,356.613 2106.11,356.613 2108.05,356.613 2109.99,356.613 2111.93,356.613 2113.88,356.613 2115.82,302.528 2117.76,302.528 2119.7,302.528 2121.65,302.528 2123.59,302.528 2125.53,302.528 2127.47,302.528 2129.41,302.528 2131.36,302.528 2133.3,302.528 2135.24,302.528 2137.18,302.528 2139.12,302.528 2141.07,302.528 2143.01,302.528 2144.95,302.528 2146.89,302.528 2148.83,302.528 2150.78,302.528 2152.72,302.528 2154.66,302.528 2156.6,302.528 2158.55,302.528 2160.49,302.528 2162.43,302.528 2164.37,302.528 2166.31,302.528 2168.26,302.528 2170.2,302.528 2172.14,302.528 2174.08,302.528 2176.02,302.528 2177.97,302.528 2179.91,302.528 2181.85,302.528 2183.79,302.528 2185.73,302.528 2187.68,302.528 2189.62,248.442 2191.56,248.442 2193.5,248.442 2195.45,248.442 2197.39,248.442 2199.33,248.442 2201.27,248.442 2203.21,194.357 2205.16,194.357 2207.1,194.357 2209.04,194.357 2210.98,194.357 2212.92,194.357 2214.87,194.357 2216.81,194.357 2218.75,194.357 2220.69,194.357 2222.63,194.357 2224.58,194.357 2226.52,194.357 2228.46,194.357 2230.4,194.357 2232.35,194.357 2234.29,194.357 2236.23,194.357 2238.17,194.357 2240.11,194.357 2242.06,194.357 2244,194.357 2245.94,194.357 2247.88,194.357 2249.82,194.357 2251.77,194.357 2253.71,194.357 2255.65,194.357 2257.59,194.357 2259.53,194.357 2261.48,194.357 2263.42,194.357 2265.36,194.357 2267.3,194.357 2269.25,194.357 2271.19,194.357 2273.13,194.357 2275.07,194.357 2277.01,140.271 2278.96,140.271 2280.9,140.271 2282.84,140.271 2284.78,140.271 2286.72,140.271 2288.67,140.271 2290.61,140.271 2292.55,140.271 2294.49,140.271 2296.43,140.271 2298.38,140.271 2300.32,86.1857 2302.26,86.1857 2304.2,86.1857 2306.15,86.1857 2308.09,86.1857 2310.03,86.1857 2311.97,86.1857 2313.91,86.1857 2315.86,86.1857 2317.8,86.1857 2319.74,86.1857 2321.68,86.1857 2323.62,86.1857 2325.57,86.1857 2327.51,86.1857 2329.45,86.1857 2331.39,86.1857 2333.33,86.1857 2335.28,86.1857 2337.22,86.1857 2339.16,86.1857 2341.1,86.1857 2343.05,86.1857 2344.99,86.1857 2346.93,86.1857 2348.87,86.1857 2350.81,86.1857 2352.76,86.1857 "/>
<path clip-path="url(#clip360)" d="M214.431 248.629 L518.993 248.629 L518.993 93.1086 L214.431 93.1086  Z" fill="#ffffff" fill-rule="evenodd" fill-opacity="1"/>
<polyline clip-path="url(#clip360)" style="stroke:#000000; stroke-linecap:round; stroke-linejoin:round; stroke-width:4; stroke-opacity:1; fill:none" points="214.431,248.629 518.993,248.629 518.993,93.1086 214.431,93.1086 214.431,248.629 "/>
<polyline clip-path="url(#clip360)" style="stroke:#009af9; stroke-linecap:round; stroke-linejoin:round; stroke-width:8; stroke-opacity:1; fill:none" points="239.009,144.949 386.48,144.949 "/>
<path clip-path="url(#clip360)" d="M411.058 127.669 L417.355 127.669 L432.679 156.581 L432.679 127.669 L437.216 127.669 L437.216 162.229 L430.919 162.229 L415.595 133.317 L415.595 162.229 L411.058 162.229 L411.058 127.669 Z" fill="#000000" fill-rule="nonzero" fill-opacity="1" /><path clip-path="url(#clip360)" d="M456.567 126.257 Q453.466 131.581 451.961 136.789 Q450.456 141.997 450.456 147.344 Q450.456 152.692 451.961 157.946 Q453.489 163.178 456.567 168.479 L452.864 168.479 Q449.392 163.039 447.656 157.784 Q445.943 152.53 445.943 147.344 Q445.943 142.182 447.656 136.951 Q449.368 131.72 452.864 126.257 L456.567 126.257 Z" fill="#000000" fill-rule="nonzero" fill-opacity="1" /><path clip-path="url(#clip360)" d="M469.044 128.942 L469.044 136.303 L477.817 136.303 L477.817 139.613 L469.044 139.613 L469.044 153.687 Q469.044 156.858 469.901 157.761 Q470.78 158.664 473.442 158.664 L477.817 158.664 L477.817 162.229 L473.442 162.229 Q468.512 162.229 466.637 160.4 Q464.762 158.548 464.762 153.687 L464.762 139.613 L461.637 139.613 L461.637 136.303 L464.762 136.303 L464.762 128.942 L469.044 128.942 Z" fill="#000000" fill-rule="nonzero" fill-opacity="1" /><path clip-path="url(#clip360)" d="M482.748 126.257 L486.452 126.257 Q489.924 131.72 491.637 136.951 Q493.373 142.182 493.373 147.344 Q493.373 152.53 491.637 157.784 Q489.924 163.039 486.452 168.479 L482.748 168.479 Q485.827 163.178 487.331 157.946 Q488.859 152.692 488.859 147.344 Q488.859 141.997 487.331 136.789 Q485.827 131.581 482.748 126.257 Z" fill="#000000" fill-rule="nonzero" fill-opacity="1" /><polyline clip-path="url(#clip360)" style="stroke:#e26f46; stroke-linecap:round; stroke-linejoin:round; stroke-width:8; stroke-opacity:1; fill:none" points="239.009,196.789 386.48,196.789 "/>
<path clip-path="url(#clip360)" d="M415.734 183.351 L415.734 210.226 L421.382 210.226 Q428.535 210.226 431.845 206.985 Q435.179 203.745 435.179 196.754 Q435.179 189.809 431.845 186.592 Q428.535 183.351 421.382 183.351 L415.734 183.351 M411.058 179.509 L420.665 179.509 Q430.711 179.509 435.41 183.698 Q440.109 187.865 440.109 196.754 Q440.109 205.689 435.387 209.879 Q430.665 214.069 420.665 214.069 L411.058 214.069 L411.058 179.509 Z" fill="#000000" fill-rule="nonzero" fill-opacity="1" /><path clip-path="url(#clip360)" d="M457.609 178.097 Q454.507 183.421 453.003 188.629 Q451.498 193.837 451.498 199.184 Q451.498 204.532 453.003 209.786 Q454.53 215.018 457.609 220.319 L453.905 220.319 Q450.433 214.879 448.697 209.624 Q446.984 204.37 446.984 199.184 Q446.984 194.022 448.697 188.791 Q450.41 183.56 453.905 178.097 L457.609 178.097 Z" fill="#000000" fill-rule="nonzero" fill-opacity="1" /><path clip-path="url(#clip360)" d="M470.086 180.782 L470.086 188.143 L478.859 188.143 L478.859 191.453 L470.086 191.453 L470.086 205.527 Q470.086 208.698 470.942 209.601 Q471.822 210.504 474.484 210.504 L478.859 210.504 L478.859 214.069 L474.484 214.069 Q469.554 214.069 467.679 212.24 Q465.804 210.388 465.804 205.527 L465.804 191.453 L462.679 191.453 L462.679 188.143 L465.804 188.143 L465.804 180.782 L470.086 180.782 Z" fill="#000000" fill-rule="nonzero" fill-opacity="1" /><path clip-path="url(#clip360)" d="M483.79 178.097 L487.493 178.097 Q490.965 183.56 492.678 188.791 Q494.415 194.022 494.415 199.184 Q494.415 204.37 492.678 209.624 Q490.965 214.879 487.493 220.319 L483.79 220.319 Q486.868 215.018 488.373 209.786 Q489.901 204.532 489.901 199.184 Q489.901 193.837 488.373 188.629 Q486.868 183.421 483.79 178.097 Z" fill="#000000" fill-rule="nonzero" fill-opacity="1" /></svg>
