<?xml version="1.0" encoding="utf-8"?>
<svg xmlns="http://www.w3.org/2000/svg" xmlns:xlink="http://www.w3.org/1999/xlink" width="600" height="400" viewBox="0 0 2400 1600">
<defs>
  <clipPath id="clip080">
    <rect x="0" y="0" width="2400" height="1600"/>
  </clipPath>
</defs>
<path clip-path="url(#clip080)" d="M0 1600 L2400 1600 L2400 0 L0 0  Z" fill="#ffffff" fill-rule="evenodd" fill-opacity="1"/>
<defs>
  <clipPath id="clip081">
    <rect x="480" y="0" width="1681" height="1600"/>
  </clipPath>
</defs>
<path clip-path="url(#clip080)" d="M112.177 1423.18 L2352.76 1423.18 L2352.76 47.2441 L112.177 47.2441  Z" fill="#ffffff" fill-rule="evenodd" fill-opacity="1"/>
<defs>
  <clipPath id="clip082">
    <rect x="112" y="47" width="2242" height="1377"/>
  </clipPath>
</defs>
<polyline clip-path="url(#clip082)" style="stroke:#000000; stroke-linecap:round; stroke-linejoin:round; stroke-width:2; stroke-opacity:0.1; fill:none" points="112.177,1423.18 112.177,47.2441 "/>
<polyline clip-path="url(#clip082)" style="stroke:#000000; stroke-linecap:round; stroke-linejoin:round; stroke-width:2; stroke-opacity:0.1; fill:none" points="560.293,1423.18 560.293,47.2441 "/>
<polyline clip-path="url(#clip082)" style="stroke:#000000; stroke-linecap:round; stroke-linejoin:round; stroke-width:2; stroke-opacity:0.1; fill:none" points="1008.41,1423.18 1008.41,47.2441 "/>
<polyline clip-path="url(#clip082)" style="stroke:#000000; stroke-linecap:round; stroke-linejoin:round; stroke-width:2; stroke-opacity:0.1; fill:none" points="1456.52,1423.18 1456.52,47.2441 "/>
<polyline clip-path="url(#clip082)" style="stroke:#000000; stroke-linecap:round; stroke-linejoin:round; stroke-width:2; stroke-opacity:0.1; fill:none" points="1904.64,1423.18 1904.64,47.2441 "/>
<polyline clip-path="url(#clip082)" style="stroke:#000000; stroke-linecap:round; stroke-linejoin:round; stroke-width:2; stroke-opacity:0.1; fill:none" points="2352.76,1423.18 2352.76,47.2441 "/>
<polyline clip-path="url(#clip082)" style="stroke:#000000; stroke-linecap:round; stroke-linejoin:round; stroke-width:2; stroke-opacity:0.1; fill:none" points="112.177,1166.73 2352.76,1166.73 "/>
<polyline clip-path="url(#clip082)" style="stroke:#000000; stroke-linecap:round; stroke-linejoin:round; stroke-width:2; stroke-opacity:0.1; fill:none" points="112.177,908.75 2352.76,908.75 "/>
<polyline clip-path="url(#clip082)" style="stroke:#000000; stroke-linecap:round; stroke-linejoin:round; stroke-width:2; stroke-opacity:0.1; fill:none" points="112.177,650.767 2352.76,650.767 "/>
<polyline clip-path="url(#clip082)" style="stroke:#000000; stroke-linecap:round; stroke-linejoin:round; stroke-width:2; stroke-opacity:0.1; fill:none" points="112.177,392.784 2352.76,392.784 "/>
<polyline clip-path="url(#clip082)" style="stroke:#000000; stroke-linecap:round; stroke-linejoin:round; stroke-width:2; stroke-opacity:0.1; fill:none" points="112.177,134.801 2352.76,134.801 "/>
<polyline clip-path="url(#clip080)" style="stroke:#000000; stroke-linecap:round; stroke-linejoin:round; stroke-width:4; stroke-opacity:1; fill:none" points="112.177,1423.18 2352.76,1423.18 "/>
<polyline clip-path="url(#clip080)" style="stroke:#000000; stroke-linecap:round; stroke-linejoin:round; stroke-width:4; stroke-opacity:1; fill:none" points="112.177,1423.18 112.177,1404.28 "/>
<polyline clip-path="url(#clip080)" style="stroke:#000000; stroke-linecap:round; stroke-linejoin:round; stroke-width:4; stroke-opacity:1; fill:none" points="560.293,1423.18 560.293,1404.28 "/>
<polyline clip-path="url(#clip080)" style="stroke:#000000; stroke-linecap:round; stroke-linejoin:round; stroke-width:4; stroke-opacity:1; fill:none" points="1008.41,1423.18 1008.41,1404.28 "/>
<polyline clip-path="url(#clip080)" style="stroke:#000000; stroke-linecap:round; stroke-linejoin:round; stroke-width:4; stroke-opacity:1; fill:none" points="1456.52,1423.18 1456.52,1404.28 "/>
<polyline clip-path="url(#clip080)" style="stroke:#000000; stroke-linecap:round; stroke-linejoin:round; stroke-width:4; stroke-opacity:1; fill:none" points="1904.64,1423.18 1904.64,1404.28 "/>
<polyline clip-path="url(#clip080)" style="stroke:#000000; stroke-linecap:round; stroke-linejoin:round; stroke-width:4; stroke-opacity:1; fill:none" points="2352.76,1423.18 2352.76,1404.28 "/>
<path clip-path="url(#clip080)" d="M112.177 1454.1 Q108.566 1454.1 106.737 1457.66 Q104.932 1461.2 104.932 1468.33 Q104.932 1475.44 106.737 1479.01 Q108.566 1482.55 112.177 1482.55 Q115.811 1482.55 117.617 1479.01 Q119.446 1475.44 119.446 1468.33 Q119.446 1461.2 117.617 1457.66 Q115.811 1454.1 112.177 1454.1 M112.177 1450.39 Q117.987 1450.39 121.043 1455 Q124.122 1459.58 124.122 1468.33 Q124.122 1477.06 121.043 1481.67 Q117.987 1486.25 112.177 1486.25 Q106.367 1486.25 103.288 1481.67 Q100.233 1477.06 100.233 1468.33 Q100.233 1459.58 103.288 1455 Q106.367 1450.39 112.177 1450.39 Z" fill="#000000" fill-rule="nonzero" fill-opacity="1" /><path clip-path="url(#clip080)" d="M554.946 1481.64 L571.265 1481.64 L571.265 1485.58 L549.321 1485.58 L549.321 1481.64 Q551.983 1478.89 556.566 1474.26 Q561.173 1469.61 562.353 1468.27 Q564.598 1465.74 565.478 1464.01 Q566.381 1462.25 566.381 1460.56 Q566.381 1457.8 564.436 1456.07 Q562.515 1454.33 559.413 1454.33 Q557.214 1454.33 554.761 1455.09 Q552.33 1455.86 549.552 1457.41 L549.552 1452.69 Q552.376 1451.55 554.83 1450.97 Q557.284 1450.39 559.321 1450.39 Q564.691 1450.39 567.885 1453.08 Q571.08 1455.77 571.08 1460.26 Q571.08 1462.39 570.27 1464.31 Q569.483 1466.2 567.376 1468.8 Q566.798 1469.47 563.696 1472.69 Q560.594 1475.88 554.946 1481.64 Z" fill="#000000" fill-rule="nonzero" fill-opacity="1" /><path clip-path="url(#clip080)" d="M1011.42 1455.09 L999.612 1473.54 L1011.42 1473.54 L1011.42 1455.09 M1010.19 1451.02 L1016.07 1451.02 L1016.07 1473.54 L1021 1473.54 L1021 1477.43 L1016.07 1477.43 L1016.07 1485.58 L1011.42 1485.58 L1011.42 1477.43 L995.816 1477.43 L995.816 1472.92 L1010.19 1451.02 Z" fill="#000000" fill-rule="nonzero" fill-opacity="1" /><path clip-path="url(#clip080)" d="M1456.93 1466.44 Q1453.78 1466.44 1451.93 1468.59 Q1450.1 1470.74 1450.1 1474.49 Q1450.1 1478.22 1451.93 1480.39 Q1453.78 1482.55 1456.93 1482.55 Q1460.08 1482.55 1461.91 1480.39 Q1463.76 1478.22 1463.76 1474.49 Q1463.76 1470.74 1461.91 1468.59 Q1460.08 1466.44 1456.93 1466.44 M1466.21 1451.78 L1466.21 1456.04 Q1464.45 1455.21 1462.65 1454.77 Q1460.86 1454.33 1459.11 1454.33 Q1454.48 1454.33 1452.02 1457.45 Q1449.59 1460.58 1449.24 1466.9 Q1450.61 1464.89 1452.67 1463.82 Q1454.73 1462.73 1457.21 1462.73 Q1462.42 1462.73 1465.42 1465.9 Q1468.46 1469.05 1468.46 1474.49 Q1468.46 1479.82 1465.31 1483.03 Q1462.16 1486.25 1456.93 1486.25 Q1450.93 1486.25 1447.76 1481.67 Q1444.59 1477.06 1444.59 1468.33 Q1444.59 1460.14 1448.48 1455.28 Q1452.37 1450.39 1458.92 1450.39 Q1460.68 1450.39 1462.46 1450.74 Q1464.27 1451.09 1466.21 1451.78 Z" fill="#000000" fill-rule="nonzero" fill-opacity="1" /><path clip-path="url(#clip080)" d="M1904.64 1469.17 Q1901.31 1469.17 1899.39 1470.95 Q1897.49 1472.73 1897.49 1475.86 Q1897.49 1478.98 1899.39 1480.77 Q1901.31 1482.55 1904.64 1482.55 Q1907.97 1482.55 1909.89 1480.77 Q1911.82 1478.96 1911.82 1475.86 Q1911.82 1472.73 1909.89 1470.95 Q1908 1469.17 1904.64 1469.17 M1899.96 1467.18 Q1896.96 1466.44 1895.27 1464.38 Q1893.6 1462.32 1893.6 1459.35 Q1893.6 1455.21 1896.54 1452.8 Q1899.5 1450.39 1904.64 1450.39 Q1909.8 1450.39 1912.74 1452.8 Q1915.68 1455.21 1915.68 1459.35 Q1915.68 1462.32 1913.99 1464.38 Q1912.33 1466.44 1909.34 1467.18 Q1912.72 1467.96 1914.59 1470.26 Q1916.49 1472.55 1916.49 1475.86 Q1916.49 1480.88 1913.41 1483.57 Q1910.36 1486.25 1904.64 1486.25 Q1898.92 1486.25 1895.84 1483.57 Q1892.79 1480.88 1892.79 1475.86 Q1892.79 1472.55 1894.69 1470.26 Q1896.58 1467.96 1899.96 1467.18 M1898.25 1459.79 Q1898.25 1462.48 1899.92 1463.98 Q1901.61 1465.49 1904.64 1465.49 Q1907.65 1465.49 1909.34 1463.98 Q1911.05 1462.48 1911.05 1459.79 Q1911.05 1457.11 1909.34 1455.6 Q1907.65 1454.1 1904.64 1454.1 Q1901.61 1454.1 1899.92 1455.6 Q1898.25 1457.11 1898.25 1459.79 Z" fill="#000000" fill-rule="nonzero" fill-opacity="1" /><path clip-path="url(#clip080)" d="M2327.44 1481.64 L2335.08 1481.64 L2335.08 1455.28 L2326.77 1456.95 L2326.77 1452.69 L2335.04 1451.02 L2339.71 1451.02 L2339.71 1481.64 L2347.35 1481.64 L2347.35 1485.58 L2327.44 1485.58 L2327.44 1481.64 Z" fill="#000000" fill-rule="nonzero" fill-opacity="1" /><path clip-path="url(#clip080)" d="M2366.8 1454.1 Q2363.18 1454.1 2361.36 1457.66 Q2359.55 1461.2 2359.55 1468.33 Q2359.55 1475.44 2361.36 1479.01 Q2363.18 1482.55 2366.8 1482.55 Q2370.43 1482.55 2372.23 1479.01 Q2374.06 1475.44 2374.06 1468.33 Q2374.06 1461.2 2372.23 1457.66 Q2370.43 1454.1 2366.8 1454.1 M2366.8 1450.39 Q2372.61 1450.39 2375.66 1455 Q2378.74 1459.58 2378.74 1468.33 Q2378.74 1477.06 2375.66 1481.67 Q2372.61 1486.25 2366.8 1486.25 Q2360.99 1486.25 2357.91 1481.67 Q2354.85 1477.06 2354.85 1468.33 Q2354.85 1459.58 2357.91 1455 Q2360.99 1450.39 2366.8 1450.39 Z" fill="#000000" fill-rule="nonzero" fill-opacity="1" /><path clip-path="url(#clip080)" d="M1231.53 1522.27 L1231.53 1532.4 L1243.59 1532.4 L1243.59 1536.95 L1231.53 1536.95 L1231.53 1556.3 Q1231.53 1560.66 1232.71 1561.9 Q1233.91 1563.14 1237.58 1563.14 L1243.59 1563.14 L1243.59 1568.04 L1237.58 1568.04 Q1230.8 1568.04 1228.22 1565.53 Q1225.64 1562.98 1225.64 1556.3 L1225.64 1536.95 L1221.34 1536.95 L1221.34 1532.4 L1225.64 1532.4 L1225.64 1522.27 L1231.53 1522.27 Z" fill="#000000" fill-rule="nonzero" fill-opacity="1" /><polyline clip-path="url(#clip080)" style="stroke:#000000; stroke-linecap:round; stroke-linejoin:round; stroke-width:4; stroke-opacity:1; fill:none" points="112.177,1423.18 112.177,47.2441 "/>
<polyline clip-path="url(#clip080)" style="stroke:#000000; stroke-linecap:round; stroke-linejoin:round; stroke-width:4; stroke-opacity:1; fill:none" points="112.177,1166.73 131.075,1166.73 "/>
<polyline clip-path="url(#clip080)" style="stroke:#000000; stroke-linecap:round; stroke-linejoin:round; stroke-width:4; stroke-opacity:1; fill:none" points="112.177,908.75 131.075,908.75 "/>
<polyline clip-path="url(#clip080)" style="stroke:#000000; stroke-linecap:round; stroke-linejoin:round; stroke-width:4; stroke-opacity:1; fill:none" points="112.177,650.767 131.075,650.767 "/>
<polyline clip-path="url(#clip080)" style="stroke:#000000; stroke-linecap:round; stroke-linejoin:round; stroke-width:4; stroke-opacity:1; fill:none" points="112.177,392.784 131.075,392.784 "/>
<polyline clip-path="url(#clip080)" style="stroke:#000000; stroke-linecap:round; stroke-linejoin:round; stroke-width:4; stroke-opacity:1; fill:none" points="112.177,134.801 131.075,134.801 "/>
<path clip-path="url(#clip080)" d="M56.2699 1180.08 L63.9087 1180.08 L63.9087 1153.71 L55.5986 1155.38 L55.5986 1151.12 L63.8624 1149.45 L68.5383 1149.45 L68.5383 1180.08 L76.1772 1180.08 L76.1772 1184.01 L56.2699 1184.01 L56.2699 1180.08 Z" fill="#000000" fill-rule="nonzero" fill-opacity="1" /><path clip-path="url(#clip080)" d="M59.8578 922.095 L76.1772 922.095 L76.1772 926.03 L54.2328 926.03 L54.2328 922.095 Q56.8949 919.34 61.4782 914.711 Q66.0846 910.058 67.2652 908.716 Q69.5105 906.192 70.3902 904.456 Q71.2929 902.697 71.2929 901.007 Q71.2929 898.253 69.3485 896.517 Q67.4272 894.78 64.3254 894.78 Q62.1263 894.78 59.6726 895.544 Q57.2421 896.308 54.4643 897.859 L54.4643 893.137 Q57.2884 892.003 59.7421 891.424 Q62.1958 890.845 64.2328 890.845 Q69.6031 890.845 72.7976 893.53 Q75.992 896.216 75.992 900.706 Q75.992 902.836 75.1818 904.757 Q74.3948 906.655 72.2883 909.248 Q71.7096 909.919 68.6078 913.137 Q65.5059 916.331 59.8578 922.095 Z" fill="#000000" fill-rule="nonzero" fill-opacity="1" /><path clip-path="url(#clip080)" d="M69.0476 649.413 Q72.404 650.131 74.279 652.399 Q76.1772 654.668 76.1772 658.001 Q76.1772 663.117 72.6587 665.918 Q69.1402 668.719 62.6587 668.719 Q60.4828 668.719 58.168 668.279 Q55.8764 667.862 53.4227 667.006 L53.4227 662.492 Q55.3671 663.626 57.6819 664.205 Q59.9967 664.783 62.5198 664.783 Q66.918 664.783 69.2096 663.047 Q71.5244 661.311 71.5244 658.001 Q71.5244 654.945 69.3717 653.233 Q67.242 651.496 63.4226 651.496 L59.3949 651.496 L59.3949 647.654 L63.6078 647.654 Q67.0569 647.654 68.8855 646.288 Q70.7142 644.899 70.7142 642.307 Q70.7142 639.645 68.8161 638.233 Q66.9411 636.797 63.4226 636.797 Q61.5013 636.797 59.3023 637.214 Q57.1032 637.631 54.4643 638.51 L54.4643 634.344 Q57.1264 633.603 59.4412 633.233 Q61.7791 632.862 63.8393 632.862 Q69.1633 632.862 72.2652 635.293 Q75.367 637.7 75.367 641.821 Q75.367 644.691 73.7235 646.682 Q72.08 648.649 69.0476 649.413 Z" fill="#000000" fill-rule="nonzero" fill-opacity="1" /><path clip-path="url(#clip080)" d="M66.5939 379.578 L54.7884 398.027 L66.5939 398.027 L66.5939 379.578 M65.367 375.504 L71.2466 375.504 L71.2466 398.027 L76.1772 398.027 L76.1772 401.916 L71.2466 401.916 L71.2466 410.064 L66.5939 410.064 L66.5939 401.916 L50.9921 401.916 L50.9921 397.402 L65.367 375.504 Z" fill="#000000" fill-rule="nonzero" fill-opacity="1" /><path clip-path="url(#clip080)" d="M55.2745 117.521 L73.6309 117.521 L73.6309 121.456 L59.5569 121.456 L59.5569 129.929 Q60.5754 129.581 61.5939 129.419 Q62.6124 129.234 63.6309 129.234 Q69.418 129.234 72.7976 132.405 Q76.1772 135.577 76.1772 140.993 Q76.1772 146.572 72.705 149.674 Q69.2328 152.753 62.9134 152.753 Q60.7374 152.753 58.4689 152.382 Q56.2236 152.012 53.8162 151.271 L53.8162 146.572 Q55.8995 147.706 58.1217 148.262 Q60.3439 148.817 62.8208 148.817 Q66.8254 148.817 69.1633 146.711 Q71.5013 144.604 71.5013 140.993 Q71.5013 137.382 69.1633 135.276 Q66.8254 133.169 62.8208 133.169 Q60.9458 133.169 59.0708 133.586 Q57.2189 134.003 55.2745 134.882 L55.2745 117.521 Z" fill="#000000" fill-rule="nonzero" fill-opacity="1" /><polyline clip-path="url(#clip082)" style="stroke:#009af9; stroke-linecap:round; stroke-linejoin:round; stroke-width:8; stroke-opacity:1; fill:none" points="112.177,1373.12 114.42,1372.6 116.663,1372.08 118.906,1371.55 121.148,1371.01 123.391,1370.47 125.634,1369.93 127.877,1369.37 130.12,1368.82 132.363,1368.26 134.605,1367.69 136.848,1367.11 139.091,1366.53 141.334,1365.95 143.577,1365.36 145.819,1364.76 148.062,1364.16 150.305,1363.55 152.548,1362.93 154.791,1362.31 157.034,1361.68 159.276,1361.05 161.519,1360.41 163.762,1359.76 166.005,1359.11 168.248,1358.45 170.491,1357.78 172.733,1357.11 174.976,1356.43 177.219,1355.74 179.462,1355.05 181.705,1354.35 183.947,1353.64 186.19,1352.92 188.433,1352.2 190.676,1351.47 192.919,1350.73 195.162,1349.99 197.404,1349.24 199.647,1348.48 201.89,1347.71 204.133,1346.94 206.376,1346.16 208.619,1345.36 210.861,1344.57 213.104,1384.24 215.347,1383.83 217.59,1383.42 219.833,1383 222.075,1382.58 224.318,1382.16 226.561,1381.73 228.804,1381.3 231.047,1380.86 233.29,1380.42 235.532,1379.98 237.775,1379.53 240.018,1379.07 242.261,1378.61 244.504,1378.15 246.746,1377.68 248.989,1377.21 251.232,1376.73 253.475,1376.25 255.718,1375.76 257.961,1375.27 260.203,1374.77 262.446,1374.27 264.689,1373.76 266.932,1373.25 269.175,1372.73 271.418,1372.21 273.66,1371.68 275.903,1371.14 278.146,1370.6 280.389,1370.06 282.632,1369.51 284.874,1368.96 287.117,1368.39 289.36,1367.83 291.603,1367.26 293.846,1366.68 296.089,1366.09 298.331,1365.5 300.574,1364.91 302.817,1364.31 305.06,1363.7 307.303,1363.08 309.545,1362.46 311.788,1361.84 314.031,1361.21 316.274,1360.57 318.517,1359.92 320.76,1359.27 323.002,1358.61 325.245,1357.95 327.488,1357.27 329.731,1356.6 331.974,1355.91 334.217,1355.22 336.459,1354.52 338.702,1353.81 340.945,1353.1 343.188,1352.38 345.431,1351.65 347.673,1350.92 349.916,1350.17 352.159,1349.42 354.402,1348.67 356.645,1347.9 358.888,1347.13 361.13,1346.35 363.373,1345.56 365.616,1344.76 367.859,1343.96 370.102,1343.15 372.344,1342.33 374.587,1341.5 376.83,1340.66 379.073,1339.81 381.316,1338.96 383.559,1338.1 385.801,1337.23 388.044,1336.35 390.287,1335.46 392.53,1334.56 394.773,1333.65 397.016,1332.74 399.258,1331.81 401.501,1330.88 403.744,1329.93 405.987,1328.98 408.23,1328.01 410.472,1327.04 412.715,1326.06 414.958,1325.07 417.201,1324.06 419.444,1323.05 421.687,1322.03 423.929,1321 426.172,1319.95 428.415,1318.9 430.658,1317.83 432.901,1316.76 435.143,1315.67 437.386,1314.58 439.629,1313.47 441.872,1312.35 444.115,1311.22 446.358,1310.08 448.6,1308.92 450.843,1307.76 453.086,1306.58 455.329,1305.39 457.572,1304.19 459.815,1302.98 462.057,1301.75 464.3,1300.52 466.543,1299.27 468.786,1298.01 471.029,1296.73 473.271,1295.44 475.514,1294.14 477.757,1292.83 480,1291.5 482.243,1290.16 484.486,1288.81 486.728,1287.44 488.971,1286.06 491.214,1284.67 493.457,1283.26 495.7,1281.83 497.942,1280.4 500.185,1278.95 502.428,1277.48 504.671,1276 506.914,1274.5 509.157,1272.99 511.399,1271.46 513.642,1269.92 515.885,1268.36 518.128,1266.79 520.371,1265.2 522.614,1263.6 524.856,1261.98 527.099,1260.34 529.342,1258.69 531.585,1257.02 533.828,1255.33 536.07,1253.62 538.313,1251.9 540.556,1250.16 542.799,1248.41 545.042,1246.64 547.285,1244.84 549.527,1243.03 551.77,1241.21 554.013,1239.36 556.256,1237.5 558.499,1330.16 560.741,1329.21 562.984,1328.25 565.227,1327.28 567.47,1326.3 569.713,1325.31 571.956,1324.31 574.198,1323.3 576.441,1322.28 578.684,1321.25 580.927,1320.21 583.17,1319.16 585.413,1318.1 587.655,1317.02 589.898,1315.94 592.141,1314.85 594.384,1313.74 596.627,1312.62 598.869,1311.5 601.112,1310.36 603.355,1309.21 605.598,1308.04 607.841,1306.87 610.084,1305.69 612.326,1304.49 614.569,1303.28 616.812,1302.06 619.055,1300.82 621.298,1299.58 623.54,1298.32 625.783,1297.05 628.026,1295.76 630.269,1294.46 632.512,1293.15 634.755,1291.83 636.997,1290.49 639.24,1289.14 641.483,1287.78 643.726,1286.4 645.969,1285.01 648.212,1283.6 650.454,1282.19 652.697,1280.75 654.94,1279.3 657.183,1277.84 659.426,1276.36 661.668,1274.87 663.911,1273.36 666.154,1271.84 668.397,1270.3 670.64,1268.75 672.883,1267.18 675.125,1265.59 677.368,1263.99 679.611,1262.38 681.854,1260.74 684.097,1259.09 686.339,1257.43 688.582,1255.74 690.825,1254.04 693.068,1252.33 695.311,1250.59 697.554,1248.84 699.796,1247.07 702.039,1245.28 704.282,1243.48 706.525,1241.66 708.768,1239.81 711.011,1237.95 713.253,1236.08 715.496,1234.18 717.739,1232.26 719.982,1230.33 722.225,1228.37 724.467,1226.39 726.71,1224.4 728.953,1323.55 731.196,1322.53 733.439,1321.5 735.682,1320.47 737.924,1319.42 740.167,1318.36 742.41,1317.29 744.653,1316.21 746.896,1315.12 749.138,1314.01 751.381,1312.9 753.624,1311.77 755.867,1310.64 758.11,1309.49 760.353,1308.33 762.595,1307.16 764.838,1305.98 767.081,1304.78 769.324,1303.58 771.567,1302.36 773.81,1301.13 776.052,1299.88 778.295,1298.63 780.538,1297.36 782.781,1296.08 785.024,1294.78 787.266,1293.48 789.509,1292.16 791.752,1290.82 793.995,1289.48 796.238,1288.12 798.481,1286.74 800.723,1285.35 802.966,1283.95 805.209,1282.54 807.452,1281.11 809.695,1279.66 811.938,1278.2 814.18,1276.73 816.423,1275.24 818.666,1273.73 820.909,1272.22 823.152,1270.68 825.394,1269.13 827.637,1267.57 829.88,1265.99 832.123,1264.39 834.366,1262.78 836.609,1261.15 838.851,1259.5 841.094,1257.84 843.337,1256.16 845.58,1254.46 847.823,1252.75 850.065,1337.87 852.308,1337 854.551,1336.11 856.794,1335.22 859.037,1334.32 861.28,1333.41 863.522,1332.49 865.765,1331.57 868.008,1330.63 870.251,1329.68 872.494,1328.73 874.737,1327.76 876.979,1326.78 879.222,1325.8 881.465,1324.8 883.708,1323.8 885.951,1322.78 888.193,1321.76 890.436,1320.72 892.679,1319.68 894.922,1318.62 897.165,1317.55 899.408,1316.47 901.65,1315.39 903.893,1314.29 906.136,1313.18 908.379,1312.05 910.622,1310.92 912.864,1309.78 915.107,1308.62 917.35,1307.45 919.593,1306.27 921.836,1305.08 924.079,1303.88 926.321,1302.66 928.564,1301.43 930.807,1300.19 933.05,1298.94 935.293,1297.68 937.536,1296.4 939.778,1295.11 942.021,1293.8 944.264,1292.49 946.507,1291.16 948.75,1289.81 950.992,1288.45 953.235,1287.08 955.478,1285.7 957.721,1284.3 959.964,1282.89 962.207,1281.46 964.449,1280.02 966.692,1278.56 968.935,1277.09 971.178,1275.61 973.421,1274.11 975.663,1272.59 977.906,1271.06 980.149,1269.52 982.392,1267.95 984.635,1266.38 986.878,1264.78 989.12,1263.17 991.363,1261.55 993.606,1259.91 995.849,1258.25 998.092,1256.58 1000.33,1254.88 1002.58,1253.17 1004.82,1251.45 1007.06,1249.71 1009.31,1247.94 1011.55,1246.17 1013.79,1244.37 1016.03,1242.56 1018.28,1240.72 1020.52,1238.87 1022.76,1237 1025.01,1235.11 1027.25,1233.21 1029.49,1231.28 1031.73,1229.33 1033.98,1227.37 1036.22,1225.38 1038.46,1223.38 1040.71,1221.35 1042.95,1219.31 1045.19,1217.24 1047.43,1215.16 1049.68,1213.05 1051.92,1210.92 1054.16,1208.77 1056.41,1206.6 1058.65,1204.4 1060.89,1202.19 1063.13,1199.95 1065.38,1197.69 1067.62,1195.4 1069.86,1193.1 1072.1,1190.77 1074.35,1188.42 1076.59,1186.04 1078.83,1183.64 1081.08,1181.21 1083.32,1178.76 1085.56,1176.29 1087.8,1173.79 1090.05,1171.27 1092.29,1168.72 1094.53,1166.14 1096.78,1163.54 1099.02,1160.91 1101.26,1158.26 1103.5,1155.58 1105.75,1152.87 1107.99,1150.14 1110.23,1147.38 1112.48,1144.59 1114.72,1141.77 1116.96,1138.92 1119.2,1136.04 1121.45,1133.14 1123.69,1130.21 1125.93,1127.24 1128.18,1124.25 1130.42,1121.23 1132.66,1118.17 1134.9,1115.09 1137.15,1111.97 1139.39,1108.83 1141.63,1105.65 1143.88,1102.44 1146.12,1099.19 1148.36,1095.92 1150.6,1092.61 1152.85,1089.27 1155.09,1085.89 1157.33,1082.48 1159.57,1079.04 1161.82,1075.56 1164.06,1072.05 1166.3,1068.5 1168.55,1064.92 1170.79,1061.3 1173.03,1057.64 1175.27,1053.95 1177.52,1050.22 1179.76,1046.45 1182,1042.64 1184.25,1038.8 1186.49,1034.92 1188.73,1031 1190.97,1027.04 1193.22,1023.04 1195.46,1018.99 1197.7,1014.91 1199.95,1010.79 1202.19,1006.63 1204.43,1002.42 1206.67,1211.44 1208.92,1209.3 1211.16,1207.13 1213.4,1204.94 1215.65,1202.73 1217.89,1200.5 1220.13,1198.24 1222.37,1195.96 1224.62,1193.66 1226.86,1191.34 1229.1,1188.99 1231.35,1186.62 1233.59,1184.22 1235.83,1181.8 1238.07,1179.36 1240.32,1176.89 1242.56,1174.4 1244.8,1171.88 1247.04,1169.34 1249.29,1166.77 1251.53,1164.17 1253.77,1161.55 1256.02,1158.9 1258.26,1156.23 1260.5,1153.53 1262.74,1150.8 1264.99,1148.04 1267.23,1145.26 1269.47,1142.45 1271.72,1139.61 1273.96,1136.74 1276.2,1133.84 1278.44,1130.92 1280.69,1127.96 1282.93,1124.98 1285.17,1121.96 1287.42,1118.92 1289.66,1115.84 1291.9,1112.73 1294.14,1109.59 1296.39,1106.42 1298.63,1103.22 1300.87,1099.99 1303.12,1096.72 1305.36,1093.42 1307.6,1090.09 1309.84,1086.72 1312.09,1254.03 1314.33,1252.31 1316.57,1250.57 1318.82,1248.82 1321.06,1247.05 1323.3,1245.26 1325.54,1243.46 1327.79,1241.64 1330.03,1239.79 1332.27,1237.93 1334.51,1236.05 1336.76,1234.16 1339,1232.24 1341.24,1230.3 1343.49,1228.35 1345.73,1226.37 1347.97,1224.38 1350.21,1222.36 1352.46,1220.32 1354.7,1218.27 1356.94,1216.19 1359.19,1214.09 1361.43,1211.98 1363.67,1209.84 1365.91,1207.67 1368.16,1205.49 1370.4,1203.29 1372.64,1201.06 1374.89,1198.81 1377.13,1196.54 1379.37,1194.24 1381.61,1191.92 1383.86,1189.58 1386.1,1187.22 1388.34,1184.83 1390.59,1182.42 1392.83,1179.98 1395.07,1177.52 1397.31,1175.03 1399.56,1172.52 1401.8,1169.98 1404.04,1167.42 1406.29,1164.83 1408.53,1162.22 1410.77,1159.58 1413.01,1156.91 1415.26,1154.22 1417.5,1151.5 1419.74,1148.75 1421.98,1145.97 1424.23,1143.17 1426.47,1140.33 1428.71,1137.47 1430.96,1134.58 1433.2,1131.66 1435.44,1128.72 1437.68,1125.74 1439.93,1122.73 1442.17,1119.69 1444.41,1116.62 1446.66,1113.52 1448.9,1110.39 1451.14,1107.23 1453.38,1104.03 1455.63,1100.81 1457.87,1097.55 1460.11,1094.25 1462.36,1090.93 1464.6,1087.57 1466.84,1084.18 1469.08,1080.75 1471.33,1077.29 1473.57,1073.8 1475.81,1070.26 1478.06,1066.7 1480.3,1063.1 1482.54,1059.46 1484.78,1055.78 1487.03,1052.07 1489.27,1048.32 1491.51,1044.54 1493.76,1040.71 1496,1036.85 1498.24,1032.95 1500.48,1029 1502.73,1025.02 1504.97,1021 1507.21,1016.94 1509.46,1012.84 1511.7,1008.69 1513.94,1004.51 1516.18,1000.28 1518.43,996.011 1520.67,991.699 1522.91,987.343 1525.15,982.943 1527.4,978.5 1529.64,974.011 1531.88,969.478 1534.13,964.899 1536.37,960.274 1538.61,955.602 1540.85,950.884 1543.1,946.118 1545.34,941.305 1547.58,936.442 1549.83,931.532 1552.07,926.571 1554.31,921.561 1556.55,916.501 1558.8,911.389 1561.04,906.226 1563.28,901.012 1565.53,895.744 1567.77,890.424 1570.01,885.05 1572.25,879.622 1574.5,874.14 1576.74,868.602 1578.98,863.008 1581.23,857.358 1583.47,851.652 1585.71,845.887 1587.95,840.065 1590.2,834.184 1592.44,828.243 1594.68,822.243 1596.93,816.182 1599.17,810.06 1601.41,803.876 1603.65,797.63 1605.9,791.321 1608.14,784.949 1610.38,778.512 1612.62,772.01 1614.87,765.443 1617.11,758.81 1619.35,752.11 1621.6,745.342 1623.84,738.506 1626.08,731.601 1628.32,724.626 1630.57,717.582 1632.81,710.466 1635.05,703.279 1637.3,696.019 1639.54,688.687 1641.78,681.28 1644.02,673.799 1646.27,666.243 1648.51,658.611 1650.75,650.903 1653,643.117 1655.24,635.252 1657.48,627.309 1659.72,619.286 1661.97,611.183 1664.21,1013.88 1666.45,1009.75 1668.7,1005.57 1670.94,1001.36 1673.18,997.097 1675.42,992.795 1677.67,988.449 1679.91,984.06 1682.15,979.626 1684.4,975.148 1686.64,970.624 1688.88,966.056 1691.12,961.441 1693.37,956.781 1695.61,952.073 1697.85,947.318 1700.09,942.516 1702.34,937.665 1704.58,932.766 1706.82,927.818 1709.07,922.82 1711.31,917.772 1713.55,912.673 1715.79,907.523 1718.04,902.322 1720.28,897.068 1722.52,891.762 1724.77,886.402 1727.01,880.989 1729.25,875.521 1731.49,869.998 1733.74,864.42 1735.98,858.786 1738.22,853.096 1740.47,847.348 1742.71,841.542 1744.95,835.678 1747.19,829.755 1749.44,823.773 1751.68,817.73 1753.92,811.627 1756.17,805.462 1758.41,799.235 1760.65,792.945 1762.89,786.592 1765.14,780.175 1767.38,773.694 1769.62,767.147 1771.87,760.534 1774.11,753.854 1776.35,747.107 1778.59,740.292 1780.84,733.409 1783.08,726.455 1785.32,719.432 1787.56,712.338 1789.81,705.172 1792.05,697.934 1794.29,690.623 1796.54,683.238 1798.78,675.779 1801.02,668.244 1803.26,660.633 1805.51,652.946 1807.75,645.18 1809.99,637.337 1812.24,629.414 1814.48,621.411 1816.72,613.328 1818.96,605.163 1821.21,596.915 1823.45,588.585 1825.69,580.17 1827.94,571.671 1830.18,563.086 1832.42,554.414 1834.66,545.655 1836.91,536.808 1839.15,527.871 1841.39,518.845 1843.64,509.728 1845.88,500.519 1848.12,491.218 1850.36,481.823 1852.61,472.333 1854.85,462.748 1857.09,453.068 1859.34,443.289 1861.58,433.413 1863.82,423.438 1866.06,413.363 1868.31,403.187 1870.55,392.909 1872.79,382.528 1875.03,372.044 1877.28,361.454 1879.52,350.757 1881.76,339.952 1884.01,329.039 1886.25,318.017 1888.49,306.883 1890.73,295.637 1892.98,284.278 1895.22,272.805 1897.46,261.217 1899.71,249.512 1901.95,237.689 1904.19,225.747 1906.43,213.685 1908.68,201.502 1910.92,189.196 1913.16,176.766 1915.41,164.211 1917.65,151.53 1919.89,138.722 1922.13,125.784 1924.38,112.717 1926.62,99.5176 1928.86,86.1857 1931.11,748.726 1933.35,741.925 1935.59,735.056 1937.83,728.118 1940.08,721.11 1942.32,714.031 1944.56,706.881 1946.81,699.66 1949.05,692.365 1951.29,684.998 1953.53,677.556 1955.78,670.039 1958.02,662.447 1960.26,654.778 1962.5,647.033 1964.75,639.209 1966.99,631.307 1969.23,623.325 1971.48,615.263 1973.72,607.12 1975.96,598.895 1978.2,590.587 1980.45,582.195 1982.69,573.719 1984.93,565.158 1987.18,556.511 1989.42,547.777 1991.66,538.954 1993.9,530.043 1996.15,521.043 1998.39,511.951 2000.63,502.769 2002.88,493.494 2005.12,484.125 2007.36,474.662 2009.6,465.104 2011.85,455.45 2014.09,445.699 2016.33,435.85 2018.58,425.901 2020.82,415.853 2023.06,915.266 2025.3,910.141 2027.55,904.964 2029.79,899.735 2032.03,894.454 2034.28,889.119 2036.52,883.731 2038.76,878.288 2041,872.791 2043.25,867.238 2045.49,861.63 2047.73,855.965 2049.97,850.244 2052.22,844.464 2054.46,838.627 2056.7,832.73 2058.95,826.775 2061.19,1122.73 2063.43,1119.7 2065.67,1116.63 2067.92,1113.53 2070.16,1110.4 2072.4,1107.23 2074.65,1104.04 2076.89,1100.81 2079.13,1097.56 2081.37,1094.26 2083.62,1090.94 2085.86,1087.58 2088.1,1084.19 2090.35,1080.77 2092.59,1077.31 2094.83,1073.81 2097.07,1070.28 2099.32,1066.71 2101.56,1063.11 2103.8,1059.47 2106.05,1055.8 2108.29,1052.09 2110.53,1048.34 2112.77,1044.55 2115.02,1232.72 2117.26,1230.79 2119.5,1228.84 2121.75,1226.87 2123.99,1224.88 2126.23,1222.87 2128.47,1220.84 2130.72,1218.79 2132.96,1216.72 2135.2,1214.62 2137.45,1318.61 2139.69,1317.54 2141.93,1316.47 2144.17,1315.38 2146.42,1314.28 2148.66,1313.17 2150.9,1312.04 2153.14,1310.91 2155.39,1309.77 2157.63,1308.61 2159.87,1307.44 2162.12,1306.26 2164.36,1305.07 2166.6,1303.87 2168.84,1302.65 2171.09,1301.42 2173.33,1300.18 2175.57,1298.93 2177.82,1297.66 2180.06,1296.39 2182.3,1295.09 2184.54,1293.79 2186.79,1292.47 2189.03,1291.14 2191.27,1289.8 2193.52,1288.44 2195.76,1287.07 2198,1285.69 2200.24,1284.29 2202.49,1282.88 2204.73,1281.45 2206.97,1280.01 2209.22,1278.56 2211.46,1277.09 2213.7,1275.6 2215.94,1274.1 2218.19,1272.59 2220.43,1271.06 2222.67,1269.52 2224.92,1267.96 2227.16,1266.38 2229.4,1264.79 2231.64,1263.18 2233.89,1261.56 2236.13,1259.91 2238.37,1258.26 2240.61,1256.58 2242.86,1254.89 2245.1,1253.19 2247.34,1251.46 2249.59,1249.72 2251.83,1247.96 2254.07,1246.18 2256.31,1244.38 2258.56,1242.57 2260.8,1240.74 2263.04,1238.89 2265.29,1237.02 2267.53,1235.13 2269.77,1233.22 2272.01,1231.3 2274.26,1229.35 2276.5,1227.39 2278.74,1225.4 2280.99,1223.4 2283.23,1221.37 2285.47,1219.32 2287.71,1217.26 2289.96,1215.17 2292.2,1213.06 2294.44,1210.93 2296.69,1208.78 2298.93,1206.61 2301.17,1204.41 2303.41,1202.2 2305.66,1199.96 2307.9,1197.69 2310.14,1195.41 2312.39,1193.1 2314.63,1190.77 2316.87,1188.41 2319.11,1186.04 2321.36,1183.63 2323.6,1181.21 2325.84,1178.76 2328.08,1176.28 2330.33,1173.78 2332.57,1171.25 2334.81,1168.7 2337.06,1166.13 2339.3,1163.52 2341.54,1160.9 2343.78,1158.24 2346.03,1155.56 2348.27,1152.85 2350.51,1150.12 2352.76,1147.35 "/>
<path clip-path="url(#clip080)" d="M186.863 196.789 L500.018 196.789 L500.018 93.1086 L186.863 93.1086  Z" fill="#ffffff" fill-rule="evenodd" fill-opacity="1"/>
<polyline clip-path="url(#clip080)" style="stroke:#000000; stroke-linecap:round; stroke-linejoin:round; stroke-width:4; stroke-opacity:1; fill:none" points="186.863,196.789 500.018,196.789 500.018,93.1086 186.863,93.1086 186.863,196.789 "/>
<polyline clip-path="url(#clip080)" style="stroke:#009af9; stroke-linecap:round; stroke-linejoin:round; stroke-width:8; stroke-opacity:1; fill:none" points="211.758,144.949 361.13,144.949 "/>
<path clip-path="url(#clip080)" d="M386.026 151.997 L386.026 136.303 L390.285 136.303 L390.285 151.835 Q390.285 155.516 391.72 157.368 Q393.155 159.196 396.026 159.196 Q399.475 159.196 401.465 156.997 Q403.479 154.798 403.479 151.002 L403.479 136.303 L407.739 136.303 L407.739 162.229 L403.479 162.229 L403.479 158.247 Q401.928 160.608 399.868 161.766 Q397.831 162.9 395.123 162.9 Q390.655 162.9 388.34 160.122 Q386.026 157.344 386.026 151.997 M396.743 135.678 L396.743 135.678 Z" fill="#000000" fill-rule="nonzero" fill-opacity="1" /><path clip-path="url(#clip080)" d="M416.118 126.21 L425.933 126.21 L425.933 129.52 L420.377 129.52 L420.377 165.168 L425.933 165.168 L425.933 168.479 L416.118 168.479 L416.118 126.21 Z" fill="#000000" fill-rule="nonzero" fill-opacity="1" /><path clip-path="url(#clip080)" d="M436.419 158.293 L444.058 158.293 L444.058 131.928 L435.748 133.595 L435.748 129.335 L444.011 127.669 L448.687 127.669 L448.687 158.293 L456.326 158.293 L456.326 162.229 L436.419 162.229 L436.419 158.293 Z" fill="#000000" fill-rule="nonzero" fill-opacity="1" /><path clip-path="url(#clip080)" d="M475.122 126.21 L475.122 168.479 L465.308 168.479 L465.308 165.168 L470.84 165.168 L470.84 129.52 L465.308 129.52 L465.308 126.21 L475.122 126.21 Z" fill="#000000" fill-rule="nonzero" fill-opacity="1" /></svg>
