<?xml version="1.0" encoding="utf-8"?>
<svg xmlns="http://www.w3.org/2000/svg" xmlns:xlink="http://www.w3.org/1999/xlink" width="600" height="400" viewBox="0 0 2400 1600">
<defs>
  <clipPath id="clip020">
    <rect x="0" y="0" width="2400" height="1600"/>
  </clipPath>
</defs>
<path clip-path="url(#clip020)" d="M0 1600 L2400 1600 L2400 0 L0 0  Z" fill="#ffffff" fill-rule="evenodd" fill-opacity="1"/>
<defs>
  <clipPath id="clip021">
    <rect x="480" y="0" width="1681" height="1600"/>
  </clipPath>
</defs>
<path clip-path="url(#clip020)" d="M156.112 1423.18 L2352.76 1423.18 L2352.76 47.2441 L156.112 47.2441  Z" fill="#ffffff" fill-rule="evenodd" fill-opacity="1"/>
<defs>
  <clipPath id="clip022">
    <rect x="156" y="47" width="2198" height="1377"/>
  </clipPath>
</defs>
<polyline clip-path="url(#clip022)" style="stroke:#000000; stroke-linecap:round; stroke-linejoin:round; stroke-width:2; stroke-opacity:0.1; fill:none" points="156.112,1423.18 156.112,47.2441 "/>
<polyline clip-path="url(#clip022)" style="stroke:#000000; stroke-linecap:round; stroke-linejoin:round; stroke-width:2; stroke-opacity:0.1; fill:none" points="595.441,1423.18 595.441,47.2441 "/>
<polyline clip-path="url(#clip022)" style="stroke:#000000; stroke-linecap:round; stroke-linejoin:round; stroke-width:2; stroke-opacity:0.1; fill:none" points="1034.77,1423.18 1034.77,47.2441 "/>
<polyline clip-path="url(#clip022)" style="stroke:#000000; stroke-linecap:round; stroke-linejoin:round; stroke-width:2; stroke-opacity:0.1; fill:none" points="1474.1,1423.18 1474.1,47.2441 "/>
<polyline clip-path="url(#clip022)" style="stroke:#000000; stroke-linecap:round; stroke-linejoin:round; stroke-width:2; stroke-opacity:0.1; fill:none" points="1913.43,1423.18 1913.43,47.2441 "/>
<polyline clip-path="url(#clip022)" style="stroke:#000000; stroke-linecap:round; stroke-linejoin:round; stroke-width:2; stroke-opacity:0.1; fill:none" points="2352.76,1423.18 2352.76,47.2441 "/>
<polyline clip-path="url(#clip022)" style="stroke:#000000; stroke-linecap:round; stroke-linejoin:round; stroke-width:2; stroke-opacity:0.1; fill:none" points="156.112,1397.91 2352.76,1397.91 "/>
<polyline clip-path="url(#clip022)" style="stroke:#000000; stroke-linecap:round; stroke-linejoin:round; stroke-width:2; stroke-opacity:0.1; fill:none" points="156.112,1015.91 2352.76,1015.91 "/>
<polyline clip-path="url(#clip022)" style="stroke:#000000; stroke-linecap:round; stroke-linejoin:round; stroke-width:2; stroke-opacity:0.1; fill:none" points="156.112,633.917 2352.76,633.917 "/>
<polyline clip-path="url(#clip022)" style="stroke:#000000; stroke-linecap:round; stroke-linejoin:round; stroke-width:2; stroke-opacity:0.1; fill:none" points="156.112,251.922 2352.76,251.922 "/>
<polyline clip-path="url(#clip020)" style="stroke:#000000; stroke-linecap:round; stroke-linejoin:round; stroke-width:4; stroke-opacity:1; fill:none" points="156.112,1423.18 2352.76,1423.18 "/>
<polyline clip-path="url(#clip020)" style="stroke:#000000; stroke-linecap:round; stroke-linejoin:round; stroke-width:4; stroke-opacity:1; fill:none" points="156.112,1423.18 156.112,1404.28 "/>
<polyline clip-path="url(#clip020)" style="stroke:#000000; stroke-linecap:round; stroke-linejoin:round; stroke-width:4; stroke-opacity:1; fill:none" points="595.441,1423.18 595.441,1404.28 "/>
<polyline clip-path="url(#clip020)" style="stroke:#000000; stroke-linecap:round; stroke-linejoin:round; stroke-width:4; stroke-opacity:1; fill:none" points="1034.77,1423.18 1034.77,1404.28 "/>
<polyline clip-path="url(#clip020)" style="stroke:#000000; stroke-linecap:round; stroke-linejoin:round; stroke-width:4; stroke-opacity:1; fill:none" points="1474.1,1423.18 1474.1,1404.28 "/>
<polyline clip-path="url(#clip020)" style="stroke:#000000; stroke-linecap:round; stroke-linejoin:round; stroke-width:4; stroke-opacity:1; fill:none" points="1913.43,1423.18 1913.43,1404.28 "/>
<polyline clip-path="url(#clip020)" style="stroke:#000000; stroke-linecap:round; stroke-linejoin:round; stroke-width:4; stroke-opacity:1; fill:none" points="2352.76,1423.18 2352.76,1404.28 "/>
<path clip-path="url(#clip020)" d="M156.112 1454.1 Q152.501 1454.1 150.672 1457.66 Q148.867 1461.2 148.867 1468.33 Q148.867 1475.44 150.672 1479.01 Q152.501 1482.55 156.112 1482.55 Q159.746 1482.55 161.552 1479.01 Q163.381 1475.44 163.381 1468.33 Q163.381 1461.2 161.552 1457.66 Q159.746 1454.1 156.112 1454.1 M156.112 1450.39 Q161.922 1450.39 164.978 1455 Q168.057 1459.58 168.057 1468.33 Q168.057 1477.06 164.978 1481.67 Q161.922 1486.25 156.112 1486.25 Q150.302 1486.25 147.223 1481.67 Q144.168 1477.06 144.168 1468.33 Q144.168 1459.58 147.223 1455 Q150.302 1450.39 156.112 1450.39 Z" fill="#000000" fill-rule="nonzero" fill-opacity="1" /><path clip-path="url(#clip020)" d="M590.094 1481.64 L606.413 1481.64 L606.413 1485.58 L584.469 1485.58 L584.469 1481.64 Q587.131 1478.89 591.714 1474.26 Q596.321 1469.61 597.501 1468.27 Q599.746 1465.74 600.626 1464.01 Q601.529 1462.25 601.529 1460.56 Q601.529 1457.8 599.584 1456.07 Q597.663 1454.33 594.561 1454.33 Q592.362 1454.33 589.909 1455.09 Q587.478 1455.86 584.7 1457.41 L584.7 1452.69 Q587.524 1451.55 589.978 1450.97 Q592.432 1450.39 594.469 1450.39 Q599.839 1450.39 603.033 1453.08 Q606.228 1455.77 606.228 1460.26 Q606.228 1462.39 605.418 1464.31 Q604.631 1466.2 602.524 1468.8 Q601.945 1469.47 598.844 1472.69 Q595.742 1475.88 590.094 1481.64 Z" fill="#000000" fill-rule="nonzero" fill-opacity="1" /><path clip-path="url(#clip020)" d="M1037.78 1455.09 L1025.97 1473.54 L1037.78 1473.54 L1037.78 1455.09 M1036.55 1451.02 L1042.43 1451.02 L1042.43 1473.54 L1047.36 1473.54 L1047.36 1477.43 L1042.43 1477.43 L1042.43 1485.58 L1037.78 1485.58 L1037.78 1477.43 L1022.18 1477.43 L1022.18 1472.92 L1036.55 1451.02 Z" fill="#000000" fill-rule="nonzero" fill-opacity="1" /><path clip-path="url(#clip020)" d="M1474.5 1466.44 Q1471.36 1466.44 1469.5 1468.59 Q1467.67 1470.74 1467.67 1474.49 Q1467.67 1478.22 1469.5 1480.39 Q1471.36 1482.55 1474.5 1482.55 Q1477.65 1482.55 1479.48 1480.39 Q1481.33 1478.22 1481.33 1474.49 Q1481.33 1470.74 1479.48 1468.59 Q1477.65 1466.44 1474.5 1466.44 M1483.79 1451.78 L1483.79 1456.04 Q1482.03 1455.21 1480.22 1454.77 Q1478.44 1454.33 1476.68 1454.33 Q1472.05 1454.33 1469.6 1457.45 Q1467.17 1460.58 1466.82 1466.9 Q1468.18 1464.89 1470.24 1463.82 Q1472.3 1462.73 1474.78 1462.73 Q1479.99 1462.73 1483 1465.9 Q1486.03 1469.05 1486.03 1474.49 Q1486.03 1479.82 1482.88 1483.03 Q1479.73 1486.25 1474.5 1486.25 Q1468.51 1486.25 1465.34 1481.67 Q1462.17 1477.06 1462.17 1468.33 Q1462.17 1460.14 1466.05 1455.28 Q1469.94 1450.39 1476.49 1450.39 Q1478.25 1450.39 1480.04 1450.74 Q1481.84 1451.09 1483.79 1451.78 Z" fill="#000000" fill-rule="nonzero" fill-opacity="1" /><path clip-path="url(#clip020)" d="M1913.43 1469.17 Q1910.09 1469.17 1908.17 1470.95 Q1906.27 1472.73 1906.27 1475.86 Q1906.27 1478.98 1908.17 1480.77 Q1910.09 1482.55 1913.43 1482.55 Q1916.76 1482.55 1918.68 1480.77 Q1920.6 1478.96 1920.6 1475.86 Q1920.6 1472.73 1918.68 1470.95 Q1916.78 1469.17 1913.43 1469.17 M1908.75 1467.18 Q1905.74 1466.44 1904.05 1464.38 Q1902.39 1462.32 1902.39 1459.35 Q1902.39 1455.21 1905.33 1452.8 Q1908.29 1450.39 1913.43 1450.39 Q1918.59 1450.39 1921.53 1452.8 Q1924.47 1455.21 1924.47 1459.35 Q1924.47 1462.32 1922.78 1464.38 Q1921.11 1466.44 1918.13 1467.18 Q1921.51 1467.96 1923.38 1470.26 Q1925.28 1472.55 1925.28 1475.86 Q1925.28 1480.88 1922.2 1483.57 Q1919.14 1486.25 1913.43 1486.25 Q1907.71 1486.25 1904.63 1483.57 Q1901.58 1480.88 1901.58 1475.86 Q1901.58 1472.55 1903.47 1470.26 Q1905.37 1467.96 1908.75 1467.18 M1907.04 1459.79 Q1907.04 1462.48 1908.7 1463.98 Q1910.39 1465.49 1913.43 1465.49 Q1916.44 1465.49 1918.13 1463.98 Q1919.84 1462.48 1919.84 1459.79 Q1919.84 1457.11 1918.13 1455.6 Q1916.44 1454.1 1913.43 1454.1 Q1910.39 1454.1 1908.7 1455.6 Q1907.04 1457.11 1907.04 1459.79 Z" fill="#000000" fill-rule="nonzero" fill-opacity="1" /><path clip-path="url(#clip020)" d="M2327.44 1481.64 L2335.08 1481.64 L2335.08 1455.28 L2326.77 1456.95 L2326.77 1452.69 L2335.04 1451.02 L2339.71 1451.02 L2339.71 1481.64 L2347.35 1481.64 L2347.35 1485.58 L2327.44 1485.58 L2327.44 1481.64 Z" fill="#000000" fill-rule="nonzero" fill-opacity="1" /><path clip-path="url(#clip020)" d="M2366.8 1454.1 Q2363.18 1454.1 2361.36 1457.66 Q2359.55 1461.2 2359.55 1468.33 Q2359.55 1475.44 2361.36 1479.01 Q2363.18 1482.55 2366.8 1482.55 Q2370.43 1482.55 2372.23 1479.01 Q2374.06 1475.44 2374.06 1468.33 Q2374.06 1461.2 2372.23 1457.66 Q2370.43 1454.1 2366.8 1454.1 M2366.8 1450.39 Q2372.61 1450.39 2375.66 1455 Q2378.74 1459.58 2378.74 1468.33 Q2378.74 1477.06 2375.66 1481.67 Q2372.61 1486.25 2366.8 1486.25 Q2360.99 1486.25 2357.91 1481.67 Q2354.85 1477.06 2354.85 1468.33 Q2354.85 1459.58 2357.91 1455 Q2360.99 1450.39 2366.8 1450.39 Z" fill="#000000" fill-rule="nonzero" fill-opacity="1" /><path clip-path="url(#clip020)" d="M1253.5 1522.27 L1253.5 1532.4 L1265.56 1532.4 L1265.56 1536.95 L1253.5 1536.95 L1253.5 1556.3 Q1253.5 1560.66 1254.67 1561.9 Q1255.88 1563.14 1259.54 1563.14 L1265.56 1563.14 L1265.56 1568.04 L1259.54 1568.04 Q1252.76 1568.04 1250.18 1565.53 Q1247.61 1562.98 1247.61 1556.3 L1247.61 1536.95 L1243.31 1536.95 L1243.31 1532.4 L1247.61 1532.4 L1247.61 1522.27 L1253.5 1522.27 Z" fill="#000000" fill-rule="nonzero" fill-opacity="1" /><polyline clip-path="url(#clip020)" style="stroke:#000000; stroke-linecap:round; stroke-linejoin:round; stroke-width:4; stroke-opacity:1; fill:none" points="156.112,1423.18 156.112,47.2441 "/>
<polyline clip-path="url(#clip020)" style="stroke:#000000; stroke-linecap:round; stroke-linejoin:round; stroke-width:4; stroke-opacity:1; fill:none" points="156.112,1397.91 175.01,1397.91 "/>
<polyline clip-path="url(#clip020)" style="stroke:#000000; stroke-linecap:round; stroke-linejoin:round; stroke-width:4; stroke-opacity:1; fill:none" points="156.112,1015.91 175.01,1015.91 "/>
<polyline clip-path="url(#clip020)" style="stroke:#000000; stroke-linecap:round; stroke-linejoin:round; stroke-width:4; stroke-opacity:1; fill:none" points="156.112,633.917 175.01,633.917 "/>
<polyline clip-path="url(#clip020)" style="stroke:#000000; stroke-linecap:round; stroke-linejoin:round; stroke-width:4; stroke-opacity:1; fill:none" points="156.112,251.922 175.01,251.922 "/>
<path clip-path="url(#clip020)" d="M62.9365 1383.71 Q59.3254 1383.71 57.4967 1387.27 Q55.6912 1390.81 55.6912 1397.94 Q55.6912 1405.05 57.4967 1408.61 Q59.3254 1412.15 62.9365 1412.15 Q66.5707 1412.15 68.3763 1408.61 Q70.205 1405.05 70.205 1397.94 Q70.205 1390.81 68.3763 1387.27 Q66.5707 1383.71 62.9365 1383.71 M62.9365 1380 Q68.7467 1380 71.8022 1384.61 Q74.8809 1389.19 74.8809 1397.94 Q74.8809 1406.67 71.8022 1411.27 Q68.7467 1415.86 62.9365 1415.86 Q57.1264 1415.86 54.0477 1411.27 Q50.9921 1406.67 50.9921 1397.94 Q50.9921 1389.19 54.0477 1384.61 Q57.1264 1380 62.9365 1380 Z" fill="#000000" fill-rule="nonzero" fill-opacity="1" /><path clip-path="url(#clip020)" d="M83.0984 1409.31 L87.9827 1409.31 L87.9827 1415.19 L83.0984 1415.19 L83.0984 1409.31 Z" fill="#000000" fill-rule="nonzero" fill-opacity="1" /><path clip-path="url(#clip020)" d="M108.168 1383.71 Q104.557 1383.71 102.728 1387.27 Q100.922 1390.81 100.922 1397.94 Q100.922 1405.05 102.728 1408.61 Q104.557 1412.15 108.168 1412.15 Q111.802 1412.15 113.608 1408.61 Q115.436 1405.05 115.436 1397.94 Q115.436 1390.81 113.608 1387.27 Q111.802 1383.71 108.168 1383.71 M108.168 1380 Q113.978 1380 117.033 1384.61 Q120.112 1389.19 120.112 1397.94 Q120.112 1406.67 117.033 1411.27 Q113.978 1415.86 108.168 1415.86 Q102.358 1415.86 99.2789 1411.27 Q96.2234 1406.67 96.2234 1397.94 Q96.2234 1389.19 99.2789 1384.61 Q102.358 1380 108.168 1380 Z" fill="#000000" fill-rule="nonzero" fill-opacity="1" /><path clip-path="url(#clip020)" d="M64.1634 1001.71 Q60.5523 1001.71 58.7236 1005.28 Q56.918 1008.82 56.918 1015.95 Q56.918 1023.05 58.7236 1026.62 Q60.5523 1030.16 64.1634 1030.16 Q67.7976 1030.16 69.6031 1026.62 Q71.4318 1023.05 71.4318 1015.95 Q71.4318 1008.82 69.6031 1005.28 Q67.7976 1001.71 64.1634 1001.71 M64.1634 998.007 Q69.9735 998.007 73.029 1002.61 Q76.1077 1007.2 76.1077 1015.95 Q76.1077 1024.67 73.029 1029.28 Q69.9735 1033.86 64.1634 1033.86 Q58.3532 1033.86 55.2745 1029.28 Q52.219 1024.67 52.219 1015.95 Q52.219 1007.2 55.2745 1002.61 Q58.3532 998.007 64.1634 998.007 Z" fill="#000000" fill-rule="nonzero" fill-opacity="1" /><path clip-path="url(#clip020)" d="M84.3253 1027.31 L89.2095 1027.31 L89.2095 1033.19 L84.3253 1033.19 L84.3253 1027.31 Z" fill="#000000" fill-rule="nonzero" fill-opacity="1" /><path clip-path="url(#clip020)" d="M100.205 1029.26 L107.844 1029.26 L107.844 1002.89 L99.5335 1004.56 L99.5335 1000.3 L107.797 998.632 L112.473 998.632 L112.473 1029.26 L120.112 1029.26 L120.112 1033.19 L100.205 1033.19 L100.205 1029.26 Z" fill="#000000" fill-rule="nonzero" fill-opacity="1" /><path clip-path="url(#clip020)" d="M64.5337 619.715 Q60.9226 619.715 59.0939 623.28 Q57.2884 626.822 57.2884 633.951 Q57.2884 641.058 59.0939 644.623 Q60.9226 648.164 64.5337 648.164 Q68.168 648.164 69.9735 644.623 Q71.8022 641.058 71.8022 633.951 Q71.8022 626.822 69.9735 623.28 Q68.168 619.715 64.5337 619.715 M64.5337 616.012 Q70.3439 616.012 73.3994 620.618 Q76.4781 625.201 76.4781 633.951 Q76.4781 642.678 73.3994 647.285 Q70.3439 651.868 64.5337 651.868 Q58.7236 651.868 55.6449 647.285 Q52.5893 642.678 52.5893 633.951 Q52.5893 625.201 55.6449 620.618 Q58.7236 616.012 64.5337 616.012 Z" fill="#000000" fill-rule="nonzero" fill-opacity="1" /><path clip-path="url(#clip020)" d="M84.6956 645.317 L89.5799 645.317 L89.5799 651.197 L84.6956 651.197 L84.6956 645.317 Z" fill="#000000" fill-rule="nonzero" fill-opacity="1" /><path clip-path="url(#clip020)" d="M103.793 647.261 L120.112 647.261 L120.112 651.197 L98.1678 651.197 L98.1678 647.261 Q100.83 644.507 105.413 639.877 Q110.02 635.224 111.2 633.882 Q113.445 631.359 114.325 629.623 Q115.228 627.863 115.228 626.174 Q115.228 623.419 113.283 621.683 Q111.362 619.947 108.26 619.947 Q106.061 619.947 103.608 620.711 Q101.177 621.475 98.3993 623.025 L98.3993 618.303 Q101.223 617.169 103.677 616.59 Q106.131 616.012 108.168 616.012 Q113.538 616.012 116.733 618.697 Q119.927 621.382 119.927 625.873 Q119.927 628.002 119.117 629.924 Q118.33 631.822 116.223 634.414 Q115.645 635.086 112.543 638.303 Q109.441 641.498 103.793 647.261 Z" fill="#000000" fill-rule="nonzero" fill-opacity="1" /><path clip-path="url(#clip020)" d="M63.5847 237.72 Q59.9736 237.72 58.1449 241.285 Q56.3393 244.827 56.3393 251.956 Q56.3393 259.063 58.1449 262.628 Q59.9736 266.169 63.5847 266.169 Q67.2189 266.169 69.0244 262.628 Q70.8531 259.063 70.8531 251.956 Q70.8531 244.827 69.0244 241.285 Q67.2189 237.72 63.5847 237.72 M63.5847 234.017 Q69.3948 234.017 72.4503 238.623 Q75.529 243.206 75.529 251.956 Q75.529 260.683 72.4503 265.29 Q69.3948 269.873 63.5847 269.873 Q57.7745 269.873 54.6958 265.29 Q51.6403 260.683 51.6403 251.956 Q51.6403 243.206 54.6958 238.623 Q57.7745 234.017 63.5847 234.017 Z" fill="#000000" fill-rule="nonzero" fill-opacity="1" /><path clip-path="url(#clip020)" d="M83.7466 263.322 L88.6308 263.322 L88.6308 269.202 L83.7466 269.202 L83.7466 263.322 Z" fill="#000000" fill-rule="nonzero" fill-opacity="1" /><path clip-path="url(#clip020)" d="M112.983 250.567 Q116.339 251.285 118.214 253.554 Q120.112 255.822 120.112 259.155 Q120.112 264.271 116.594 267.072 Q113.075 269.873 106.594 269.873 Q104.418 269.873 102.103 269.433 Q99.8113 269.016 97.3576 268.16 L97.3576 263.646 Q99.3021 264.78 101.617 265.359 Q103.932 265.938 106.455 265.938 Q110.853 265.938 113.145 264.202 Q115.459 262.466 115.459 259.155 Q115.459 256.1 113.307 254.387 Q111.177 252.651 107.358 252.651 L103.33 252.651 L103.33 248.808 L107.543 248.808 Q110.992 248.808 112.82 247.442 Q114.649 246.054 114.649 243.461 Q114.649 240.799 112.751 239.387 Q110.876 237.952 107.358 237.952 Q105.436 237.952 103.237 238.368 Q101.038 238.785 98.3993 239.665 L98.3993 235.498 Q101.061 234.757 103.376 234.387 Q105.714 234.017 107.774 234.017 Q113.098 234.017 116.2 236.447 Q119.302 238.855 119.302 242.975 Q119.302 245.845 117.658 247.836 Q116.015 249.804 112.983 250.567 Z" fill="#000000" fill-rule="nonzero" fill-opacity="1" /><polyline clip-path="url(#clip022)" style="stroke:#009af9; stroke-linecap:round; stroke-linejoin:round; stroke-width:8; stroke-opacity:1; fill:none" points="156.112,633.917 158.311,626.231 160.51,618.467 162.709,610.626 164.907,602.706 167.106,594.706 169.305,586.625 171.504,578.464 173.703,570.22 175.902,561.893 178.101,553.483 180.299,544.987 182.498,536.407 184.697,527.74 186.896,518.986 189.095,510.144 191.294,501.212 193.492,492.191 195.691,483.08 197.89,473.876 200.089,464.58 202.288,455.191 204.487,445.707 206.686,436.127 208.884,426.452 211.083,416.679 213.282,406.807 215.481,396.836 217.68,386.765 219.879,376.593 222.077,366.318 224.276,355.94 226.475,345.458 228.674,334.87 230.873,324.175 233.072,313.373 235.27,302.463 237.469,291.442 239.668,280.311 241.867,269.067 244.066,257.711 246.265,246.24 248.464,234.654 250.662,222.952 252.861,211.131 255.06,199.192 257.259,187.133 259.458,174.952 261.657,162.649 263.855,150.222 266.054,137.669 268.253,124.991 270.452,112.185 272.651,99.2505 274.85,86.1857 277.048,735.448 279.247,728.783 281.446,722.052 283.645,715.253 285.844,708.385 288.043,701.448 290.242,694.442 292.44,687.365 294.639,680.216 296.838,672.996 299.037,665.703 301.236,658.337 303.435,650.897 305.633,643.382 307.832,635.791 310.031,628.124 312.23,620.38 314.429,612.558 316.628,604.657 318.826,596.676 321.025,588.616 323.224,580.474 325.423,572.251 327.622,563.944 329.821,976.73 332.02,972.493 334.218,968.214 336.417,963.891 338.616,959.524 340.815,955.114 343.014,950.659 345.213,946.16 347.411,941.615 349.61,937.025 351.809,932.388 354.008,927.705 356.207,922.975 358.406,918.197 360.604,913.371 362.803,908.496 365.002,903.573 367.201,898.6 369.4,893.576 371.599,888.503 373.798,883.378 375.996,878.202 378.195,872.973 380.394,867.692 382.593,862.358 384.792,856.971 386.991,851.529 389.189,846.032 391.388,840.48 393.587,834.872 395.786,829.208 397.985,823.486 400.184,817.707 402.382,811.87 404.581,805.975 406.78,800.02 408.979,794.005 411.178,787.929 413.377,781.793 415.576,775.594 417.774,769.334 419.973,763.01 422.172,756.623 424.371,750.171 426.57,743.655 428.769,737.073 430.967,730.425 433.166,723.71 435.365,716.928 437.564,710.077 439.763,703.157 441.962,696.168 444.161,689.108 446.359,681.978 448.558,674.775 450.757,667.5 452.956,660.152 455.155,652.73 457.354,645.234 459.552,637.662 461.751,630.013 463.95,622.288 466.149,614.485 468.348,606.604 470.547,598.643 472.745,590.602 474.944,582.48 477.143,574.277 479.342,565.991 481.541,557.621 483.74,549.168 485.939,540.629 488.137,532.005 490.336,523.293 492.535,514.495 494.734,505.607 496.933,496.63 499.132,487.563 501.33,478.405 503.529,469.155 505.728,459.811 507.927,450.374 510.126,440.841 512.325,431.213 514.523,421.488 516.722,411.665 518.921,401.743 521.12,391.721 523.319,381.598 525.518,371.374 527.717,879.477 529.915,874.261 532.114,868.993 534.313,863.672 536.512,858.298 538.711,852.869 540.91,847.386 543.108,841.847 545.307,836.253 547.506,830.603 549.705,824.895 551.904,819.131 554.103,813.308 556.301,807.427 558.5,801.487 560.699,795.487 562.898,789.426 565.097,783.305 567.296,777.122 569.495,770.877 571.693,764.569 573.892,758.197 576.091,751.761 578.29,745.261 580.489,738.695 582.688,732.063 584.886,725.365 587.085,718.599 589.284,711.765 591.483,704.862 593.682,697.89 595.881,690.847 598.079,683.734 600.278,676.549 602.477,669.292 604.676,661.962 606.875,654.558 609.074,647.08 611.273,639.526 613.471,631.897 615.67,624.19 617.869,616.407 620.068,608.545 622.267,600.603 624.466,995.244 626.664,991.194 628.863,987.102 631.062,982.969 633.261,978.795 635.46,974.578 637.659,970.319 639.858,966.018 642.056,961.673 644.255,957.284 646.454,952.852 648.653,948.374 650.852,943.852 653.051,939.284 655.249,934.67 657.448,930.01 659.647,925.303 661.846,920.548 664.045,915.746 666.244,910.895 668.442,905.996 670.641,901.047 672.84,896.048 675.039,890.999 677.238,885.9 679.437,880.749 681.636,875.546 683.834,870.291 686.033,864.983 688.232,859.622 690.431,854.206 692.63,848.737 694.829,843.212 697.027,837.631 699.226,831.995 701.425,826.302 703.624,820.551 705.823,814.743 708.022,808.876 710.22,802.95 712.419,796.965 714.618,1094.41 716.817,1091.36 719.016,1088.28 721.215,1085.16 723.414,1082.01 725.612,1078.84 727.811,1075.63 730.01,1072.38 732.209,1069.11 734.408,1065.8 736.607,1062.46 738.805,1059.09 741.004,1055.68 743.203,1052.23 745.402,1048.76 747.601,1045.24 749.8,1041.7 751.998,1038.11 754.197,1034.49 756.396,1030.84 758.595,1027.14 760.794,1023.41 762.993,1019.65 765.192,1015.84 767.39,1012 769.589,1008.12 771.788,1004.19 773.987,1000.23 776.186,996.232 778.385,992.191 780.583,988.11 782.782,1190.95 784.981,1293.39 787.18,1345.12 789.379,1344.59 791.578,1344.05 793.776,1343.51 795.975,1342.96 798.174,1342.41 800.373,1341.85 802.572,1341.29 804.771,1340.72 806.97,1340.14 809.168,1339.56 811.367,1338.98 813.566,1338.38 815.765,1337.78 817.964,1337.18 820.163,1336.57 822.361,1335.95 824.56,1335.33 826.759,1334.7 828.958,1334.06 831.157,1333.42 833.356,1332.77 835.554,1332.12 837.753,1331.45 839.952,1330.79 842.151,1330.11 844.35,1329.43 846.549,1328.74 848.748,1328.04 850.946,1327.34 853.145,1326.63 855.344,1325.91 857.543,1325.19 859.742,1324.46 861.941,1323.72 864.139,1322.97 866.338,1322.22 868.537,1321.46 870.736,1320.69 872.935,1319.91 875.134,1319.13 877.333,1318.33 879.531,1317.53 881.73,1316.73 883.929,1315.91 886.128,1315.08 888.327,1314.25 890.526,1313.41 892.724,1312.56 894.923,1311.7 897.122,1310.83 899.321,1309.96 901.52,1309.07 903.719,1308.18 905.917,1307.28 908.116,1306.36 910.315,1305.44 912.514,1304.51 914.713,1303.57 916.912,1302.62 919.111,1301.67 921.309,1300.7 923.508,1299.72 925.707,1348.32 927.906,1347.82 930.105,1347.32 932.304,1346.81 934.502,1346.29 936.701,1345.77 938.9,1345.25 941.099,1344.72 943.298,1344.19 945.497,1343.64 947.695,1343.1 949.894,1342.55 952.093,1341.99 954.292,1341.43 956.491,1340.86 958.69,1340.29 960.889,1339.71 963.087,1339.12 965.286,1338.53 967.485,1337.93 969.684,1337.33 971.883,1336.72 974.082,1336.1 976.28,1335.48 978.479,1334.85 980.678,1334.22 982.877,1333.58 985.076,1332.93 987.275,1332.28 989.473,1331.62 991.672,1330.95 993.871,1330.28 996.07,1363.75 998.269,1363.41 1000.47,1363.06 1002.67,1362.71 1004.87,1362.36 1007.06,1362 1009.26,1361.64 1011.46,1361.27 1013.66,1360.9 1015.86,1360.53 1018.06,1360.16 1020.26,1359.78 1022.46,1359.39 1024.65,1359 1026.85,1358.61 1029.05,1358.22 1031.25,1357.82 1033.45,1357.42 1035.65,1357.01 1037.85,1356.6 1040.05,1356.18 1042.25,1355.76 1044.44,1355.34 1046.64,1354.91 1048.84,1354.48 1051.04,1354.04 1053.24,1353.6 1055.44,1353.15 1057.64,1352.7 1059.84,1352.25 1062.04,1351.79 1064.23,1351.32 1066.43,1350.86 1068.63,1350.38 1070.83,1349.9 1073.03,1349.42 1075.23,1373.42 1077.43,1373.17 1079.63,1372.93 1081.82,1372.67 1084.02,1372.42 1086.22,1372.16 1088.42,1371.9 1090.62,1371.64 1092.82,1371.38 1095.02,1371.11 1097.22,1370.84 1099.42,1384.24 1101.61,1384.1 1103.81,1383.96 1106.01,1383.82 1108.21,1383.68 1110.41,1383.54 1112.61,1383.39 1114.81,1383.25 1117.01,1383.1 1119.21,1382.95 1121.4,1382.8 1123.6,1382.65 1125.8,1382.49 1128,1382.34 1130.2,1382.18 1132.4,1382.02 1134.6,1381.86 1136.8,1381.7 1138.99,1381.54 1141.19,1381.38 1143.39,1381.21 1145.59,1381.04 1147.79,1380.87 1149.99,1380.7 1152.19,1380.53 1154.39,1380.35 1156.59,1380.18 1158.78,1380 1160.98,1379.82 1163.18,1379.63 1165.38,1379.45 1167.58,1379.27 1169.78,1379.08 1171.98,1378.89 1174.18,1378.7 1176.38,1378.5 1178.57,1378.31 1180.77,1378.11 1182.97,1377.91 1185.17,1377.71 1187.37,1377.51 1189.57,1377.3 1191.77,1377.1 1193.97,1376.89 1196.16,1376.67 1198.36,1376.46 1200.56,1376.24 1202.76,1376.03 1204.96,1375.81 1207.16,1375.58 1209.36,1375.36 1211.56,1375.13 1213.76,1374.9 1215.95,1374.67 1218.15,1374.44 1220.35,1374.2 1222.55,1373.96 1224.75,1373.72 1226.95,1373.48 1229.15,1373.23 1231.35,1372.99 1233.55,1372.74 1235.74,1372.48 1237.94,1372.23 1240.14,1371.97 1242.34,1371.71 1244.54,1371.44 1246.74,1371.18 1248.94,1370.91 1251.14,1370.64 1253.33,1370.36 1255.53,1370.09 1257.73,1369.81 1259.93,1369.52 1262.13,1369.24 1264.33,1368.95 1266.53,1368.66 1268.73,1368.36 1270.93,1368.07 1273.12,1367.77 1275.32,1367.46 1277.52,1367.16 1279.72,1366.85 1281.92,1366.53 1284.12,1366.22 1286.32,1365.9 1288.52,1365.58 1290.71,1365.25 1292.91,1364.92 1295.11,1364.59 1297.31,1364.26 1299.51,1363.92 1301.71,1363.58 1303.91,1363.23 1306.11,1362.88 1308.31,1362.53 1310.5,1362.17 1312.7,1361.82 1314.9,1361.45 1317.1,1361.09 1319.3,1360.72 1321.5,1360.34 1323.7,1359.96 1325.9,1359.58 1328.1,1359.2 1330.29,1358.81 1332.49,1358.41 1334.69,1358.02 1336.89,1357.61 1339.09,1357.21 1341.29,1356.8 1343.49,1356.39 1345.69,1355.97 1347.88,1355.55 1350.08,1355.12 1352.28,1354.69 1354.48,1354.25 1356.68,1353.82 1358.88,1353.37 1361.08,1352.92 1363.28,1352.47 1365.48,1352.01 1367.67,1351.55 1369.87,1351.09 1372.07,1350.62 1374.27,1350.14 1376.47,1349.66 1378.67,1349.17 1380.87,1348.68 1383.07,1348.19 1385.27,1347.69 1387.46,1347.18 1389.66,1346.67 1391.86,1346.16 1394.06,1345.64 1396.26,1345.11 1398.46,1344.58 1400.66,1344.04 1402.86,1343.5 1405.05,1342.95 1407.25,1342.4 1409.45,1341.84 1411.65,1341.28 1413.85,1340.71 1416.05,1340.13 1418.25,1339.55 1420.45,1338.97 1422.65,1338.37 1424.84,1337.77 1427.04,1337.17 1429.24,1336.56 1431.44,1335.94 1433.64,1335.32 1435.84,1334.69 1438.04,1334.05 1440.24,1333.41 1442.44,1332.76 1444.63,1332.1 1446.83,1331.44 1449.03,1330.77 1451.23,1330.1 1453.43,1329.42 1455.63,1328.73 1457.83,1328.03 1460.03,1327.33 1462.22,1326.62 1464.42,1325.9 1466.62,1325.18 1468.82,1324.45 1471.02,1323.71 1473.22,1322.96 1475.42,1322.21 1477.62,1321.44 1479.82,1320.67 1482.01,1319.9 1484.21,1319.11 1486.41,1318.32 1488.61,1317.52 1490.81,1316.71 1493.01,1315.89 1495.21,1315.07 1497.41,1314.24 1499.6,1313.39 1501.8,1312.54 1504,1311.68 1506.2,1310.82 1508.4,1309.94 1510.6,1309.06 1512.8,1308.16 1515,1307.26 1517.2,1306.35 1519.39,1305.43 1521.59,1304.5 1523.79,1303.56 1525.99,1302.61 1528.19,1301.65 1530.39,1300.68 1532.59,1299.7 1534.79,1298.71 1536.99,1297.72 1539.18,1296.71 1541.38,1295.69 1543.58,1294.66 1545.78,1345.76 1547.98,1345.24 1550.18,1344.71 1552.38,1344.18 1554.58,1343.63 1556.77,1343.09 1558.97,1342.54 1561.17,1341.98 1563.37,1341.42 1565.57,1340.85 1567.77,1340.28 1569.97,1339.7 1572.17,1339.11 1574.37,1338.52 1576.56,1337.92 1578.76,1337.32 1580.96,1336.71 1583.16,1336.09 1585.36,1335.47 1587.56,1334.84 1589.76,1334.21 1591.96,1333.57 1594.16,1332.92 1596.35,1332.27 1598.55,1331.61 1600.75,1330.94 1602.95,1330.27 1605.15,1329.58 1607.35,1328.9 1609.55,1328.2 1611.75,1327.5 1613.94,1326.79 1616.14,1326.08 1618.34,1325.36 1620.54,1324.63 1622.74,1323.89 1624.94,1323.14 1627.14,1322.39 1629.34,1321.63 1631.54,1320.86 1633.73,1320.09 1635.93,1319.31 1638.13,1318.52 1640.33,1317.72 1642.53,1316.91 1644.73,1316.1 1646.93,1315.27 1649.13,1314.44 1651.33,1313.6 1653.52,1312.75 1655.72,1311.9 1657.92,1311.03 1660.12,1310.16 1662.32,1309.27 1664.52,1308.38 1666.72,1307.48 1668.92,1352.24 1671.11,1351.78 1673.31,1351.32 1675.51,1350.85 1677.71,1350.37 1679.91,1349.9 1682.11,1349.41 1684.31,1373.42 1686.51,1373.17 1688.71,1372.92 1690.9,1372.67 1693.1,1372.42 1695.3,1372.16 1697.5,1371.9 1699.7,1371.64 1701.9,1371.37 1704.1,1371.11 1706.3,1370.84 1708.5,1370.56 1710.69,1370.29 1712.89,1370.01 1715.09,1369.73 1717.29,1369.45 1719.49,1369.16 1721.69,1368.87 1723.89,1368.58 1726.09,1368.29 1728.28,1367.99 1730.48,1367.69 1732.68,1367.38 1734.88,1367.08 1737.08,1366.77 1739.28,1366.45 1741.48,1366.14 1743.68,1365.82 1745.88,1365.49 1748.07,1365.17 1750.27,1364.84 1752.47,1364.5 1754.67,1364.17 1756.87,1363.83 1759.07,1363.49 1761.27,1363.14 1763.47,1362.79 1765.66,1362.44 1767.86,1362.08 1770.06,1361.72 1772.26,1361.36 1774.46,1360.99 1776.66,1360.62 1778.86,1360.24 1781.06,1359.86 1783.26,1359.48 1785.45,1359.09 1787.65,1358.7 1789.85,1358.31 1792.05,1357.91 1794.25,1357.51 1796.45,1357.1 1798.65,1356.69 1800.85,1356.28 1803.05,1355.86 1805.24,1355.43 1807.44,1355.01 1809.64,1354.58 1811.84,1354.14 1814.04,1353.7 1816.24,1353.25 1818.44,1352.81 1820.64,1352.35 1822.83,1351.89 1825.03,1351.43 1827.23,1350.96 1829.43,1350.49 1831.63,1350.01 1833.83,1349.53 1836.03,1349.05 1838.23,1348.55 1840.43,1348.06 1842.62,1347.56 1844.82,1347.05 1847.02,1346.54 1849.22,1346.02 1851.42,1345.5 1853.62,1344.97 1855.82,1344.44 1858.02,1343.9 1860.22,1343.36 1862.41,1342.81 1864.61,1342.25 1866.81,1341.69 1869.01,1341.13 1871.21,1340.56 1873.41,1339.98 1875.61,1339.4 1877.81,1338.81 1880,1338.21 1882.2,1337.61 1884.4,1337.01 1886.6,1336.4 1888.8,1335.78 1891,1335.15 1893.2,1334.52 1895.4,1333.88 1897.6,1333.24 1899.79,1332.59 1901.99,1331.93 1904.19,1331.27 1906.39,1330.6 1908.59,1329.92 1910.79,1329.24 1912.99,1328.54 1915.19,1327.85 1917.39,1327.14 1919.58,1326.43 1921.78,1325.71 1923.98,1324.98 1926.18,1324.25 1928.38,1323.51 1930.58,1322.76 1932.78,1322.01 1934.98,1321.24 1937.17,1320.47 1939.37,1319.69 1941.57,1318.9 1943.77,1318.11 1945.97,1317.31 1948.17,1316.5 1950.37,1315.68 1952.57,1314.85 1954.77,1314.01 1956.96,1313.17 1959.16,1312.32 1961.36,1354.68 1963.56,1354.25 1965.76,1353.81 1967.96,1353.36 1970.16,1352.92 1972.36,1352.46 1974.55,1352.01 1976.75,1351.54 1978.95,1351.08 1981.15,1350.61 1983.35,1350.13 1985.55,1349.65 1987.75,1349.16 1989.95,1348.67 1992.15,1348.18 1994.34,1347.68 1996.54,1347.17 1998.74,1346.66 2000.94,1346.15 2003.14,1345.63 2005.34,1345.1 2007.54,1344.57 2009.74,1344.03 2011.94,1343.49 2014.13,1342.94 2016.33,1342.39 2018.53,1341.83 2020.73,1341.27 2022.93,1340.7 2025.13,1340.12 2027.33,1339.54 2029.53,1338.95 2031.72,1338.36 2033.92,1337.76 2036.12,1337.16 2038.32,1336.55 2040.52,1335.93 2042.72,1335.31 2044.92,1334.68 2047.12,1334.04 2049.32,1333.4 2051.51,1332.75 2053.71,1332.09 2055.91,1331.43 2058.11,1330.76 2060.31,1330.09 2062.51,1329.4 2064.71,1328.71 2066.91,1328.02 2069.11,1327.32 2071.3,1326.61 2073.5,1325.89 2075.7,1325.16 2077.9,1324.43 2080.1,1323.69 2082.3,1322.95 2084.5,1322.19 2086.7,1321.43 2088.89,1320.66 2091.09,1319.88 2093.29,1319.1 2095.49,1318.31 2097.69,1317.5 2099.89,1316.7 2102.09,1315.88 2104.29,1315.05 2106.49,1314.22 2108.68,1313.38 2110.88,1312.53 2113.08,1311.67 2115.28,1310.8 2117.48,1309.93 2119.68,1309.04 2121.88,1308.15 2124.08,1307.24 2126.28,1306.33 2128.47,1305.41 2130.67,1304.48 2132.87,1303.54 2135.07,1302.59 2137.27,1301.63 2139.47,1300.66 2141.67,1299.68 2143.87,1298.7 2146.06,1297.7 2148.26,1296.69 2150.46,1295.67 2152.66,1294.64 2154.86,1293.6 2157.06,1292.56 2159.26,1291.5 2161.46,1290.42 2163.66,1289.34 2165.85,1288.25 2168.05,1287.15 2170.25,1286.03 2172.45,1284.91 2174.65,1283.77 2176.85,1282.62 2179.05,1281.46 2181.25,1280.29 2183.45,1279.11 2185.64,1277.91 2187.84,1276.71 2190.04,1275.49 2192.24,1274.26 2194.44,1273.01 2196.64,1271.75 2198.84,1270.49 2201.04,1269.2 2203.23,1267.91 2205.43,1266.6 2207.63,1265.28 2209.83,1263.95 2212.03,1262.6 2214.23,1261.24 2216.43,1259.86 2218.63,1258.47 2220.83,1257.07 2223.02,1255.65 2225.22,1254.22 2227.42,1252.78 2229.62,1251.32 2231.82,1249.84 2234.02,1248.35 2236.22,1246.85 2238.42,1245.33 2240.61,1243.79 2242.81,1242.24 2245.01,1240.68 2247.21,1239.1 2249.41,1237.5 2251.61,1235.88 2253.81,1234.25 2256.01,1232.61 2258.21,1314.43 2260.4,1313.59 2262.6,1312.74 2264.8,1311.88 2267,1311.02 2269.2,1310.14 2271.4,1309.26 2273.6,1308.37 2275.8,1307.47 2278,1306.56 2280.19,1305.64 2282.39,1304.71 2284.59,1303.77 2286.79,1302.82 2288.99,1301.87 2291.19,1300.9 2293.39,1299.93 2295.59,1298.94 2297.78,1297.94 2299.98,1296.94 2302.18,1295.92 2304.38,1294.9 2306.58,1293.86 2308.78,1292.81 2310.98,1291.76 2313.18,1290.69 2315.38,1289.61 2317.57,1288.52 2319.77,1287.42 2321.97,1286.31 2324.17,1285.19 2326.37,1284.05 2328.57,1282.91 2330.77,1281.75 2332.97,1280.58 2335.17,1279.4 2337.36,1278.21 2339.56,1277 2341.76,1275.79 2343.96,1274.56 2346.16,1273.32 2348.36,1272.06 2350.56,1270.8 2352.76,1269.52 "/>
<path clip-path="url(#clip020)" d="M1970.77 196.789 L2279.53 196.789 L2279.53 93.1086 L1970.77 93.1086  Z" fill="#ffffff" fill-rule="evenodd" fill-opacity="1"/>
<polyline clip-path="url(#clip020)" style="stroke:#000000; stroke-linecap:round; stroke-linejoin:round; stroke-width:4; stroke-opacity:1; fill:none" points="1970.77,196.789 2279.53,196.789 2279.53,93.1086 1970.77,93.1086 1970.77,196.789 "/>
<polyline clip-path="url(#clip020)" style="stroke:#009af9; stroke-linecap:round; stroke-linejoin:round; stroke-width:8; stroke-opacity:1; fill:none" points="1995.18,144.949 2141.62,144.949 "/>
<path clip-path="url(#clip020)" d="M2166.03 151.997 L2166.03 136.303 L2170.29 136.303 L2170.29 151.835 Q2170.29 155.516 2171.72 157.368 Q2173.16 159.196 2176.03 159.196 Q2179.48 159.196 2181.47 156.997 Q2183.48 154.798 2183.48 151.002 L2183.48 136.303 L2187.74 136.303 L2187.74 162.229 L2183.48 162.229 L2183.48 158.247 Q2181.93 160.608 2179.87 161.766 Q2177.84 162.9 2175.13 162.9 Q2170.66 162.9 2168.35 160.122 Q2166.03 157.344 2166.03 151.997 M2176.75 135.678 L2176.75 135.678 Z" fill="#000000" fill-rule="nonzero" fill-opacity="1" /><path clip-path="url(#clip020)" d="M2196.12 126.21 L2205.94 126.21 L2205.94 129.52 L2200.38 129.52 L2200.38 165.168 L2205.94 165.168 L2205.94 168.479 L2196.12 168.479 L2196.12 126.21 Z" fill="#000000" fill-rule="nonzero" fill-opacity="1" /><path clip-path="url(#clip020)" d="M2216.42 158.293 L2224.06 158.293 L2224.06 131.928 L2215.75 133.595 L2215.75 129.335 L2224.02 127.669 L2228.69 127.669 L2228.69 158.293 L2236.33 158.293 L2236.33 162.229 L2216.42 162.229 L2216.42 158.293 Z" fill="#000000" fill-rule="nonzero" fill-opacity="1" /><path clip-path="url(#clip020)" d="M2255.13 126.21 L2255.13 168.479 L2245.31 168.479 L2245.31 165.168 L2250.84 165.168 L2250.84 129.52 L2245.31 129.52 L2245.31 126.21 L2255.13 126.21 Z" fill="#000000" fill-rule="nonzero" fill-opacity="1" /></svg>
