<?xml version="1.0" encoding="utf-8"?>
<svg xmlns="http://www.w3.org/2000/svg" xmlns:xlink="http://www.w3.org/1999/xlink" width="600" height="400" viewBox="0 0 2400 1600">
<defs>
  <clipPath id="clip050">
    <rect x="0" y="0" width="2400" height="1600"/>
  </clipPath>
</defs>
<path clip-path="url(#clip050)" d="M0 1600 L2400 1600 L2400 0 L0 0  Z" fill="#ffffff" fill-rule="evenodd" fill-opacity="1"/>
<defs>
  <clipPath id="clip051">
    <rect x="480" y="0" width="1681" height="1600"/>
  </clipPath>
</defs>
<path clip-path="url(#clip050)" d="M112.177 1423.18 L2352.76 1423.18 L2352.76 47.2441 L112.177 47.2441  Z" fill="#ffffff" fill-rule="evenodd" fill-opacity="1"/>
<defs>
  <clipPath id="clip052">
    <rect x="112" y="47" width="2242" height="1377"/>
  </clipPath>
</defs>
<polyline clip-path="url(#clip052)" style="stroke:#000000; stroke-linecap:round; stroke-linejoin:round; stroke-width:2; stroke-opacity:0.1; fill:none" points="112.177,1423.18 112.177,47.2441 "/>
<polyline clip-path="url(#clip052)" style="stroke:#000000; stroke-linecap:round; stroke-linejoin:round; stroke-width:2; stroke-opacity:0.1; fill:none" points="560.293,1423.18 560.293,47.2441 "/>
<polyline clip-path="url(#clip052)" style="stroke:#000000; stroke-linecap:round; stroke-linejoin:round; stroke-width:2; stroke-opacity:0.1; fill:none" points="1008.41,1423.18 1008.41,47.2441 "/>
<polyline clip-path="url(#clip052)" style="stroke:#000000; stroke-linecap:round; stroke-linejoin:round; stroke-width:2; stroke-opacity:0.1; fill:none" points="1456.52,1423.18 1456.52,47.2441 "/>
<polyline clip-path="url(#clip052)" style="stroke:#000000; stroke-linecap:round; stroke-linejoin:round; stroke-width:2; stroke-opacity:0.1; fill:none" points="1904.64,1423.18 1904.64,47.2441 "/>
<polyline clip-path="url(#clip052)" style="stroke:#000000; stroke-linecap:round; stroke-linejoin:round; stroke-width:2; stroke-opacity:0.1; fill:none" points="2352.76,1423.18 2352.76,47.2441 "/>
<polyline clip-path="url(#clip052)" style="stroke:#000000; stroke-linecap:round; stroke-linejoin:round; stroke-width:2; stroke-opacity:0.1; fill:none" points="112.177,1207.9 2352.76,1207.9 "/>
<polyline clip-path="url(#clip052)" style="stroke:#000000; stroke-linecap:round; stroke-linejoin:round; stroke-width:2; stroke-opacity:0.1; fill:none" points="112.177,987.476 2352.76,987.476 "/>
<polyline clip-path="url(#clip052)" style="stroke:#000000; stroke-linecap:round; stroke-linejoin:round; stroke-width:2; stroke-opacity:0.1; fill:none" points="112.177,767.053 2352.76,767.053 "/>
<polyline clip-path="url(#clip052)" style="stroke:#000000; stroke-linecap:round; stroke-linejoin:round; stroke-width:2; stroke-opacity:0.1; fill:none" points="112.177,546.63 2352.76,546.63 "/>
<polyline clip-path="url(#clip052)" style="stroke:#000000; stroke-linecap:round; stroke-linejoin:round; stroke-width:2; stroke-opacity:0.1; fill:none" points="112.177,326.207 2352.76,326.207 "/>
<polyline clip-path="url(#clip052)" style="stroke:#000000; stroke-linecap:round; stroke-linejoin:round; stroke-width:2; stroke-opacity:0.1; fill:none" points="112.177,105.783 2352.76,105.783 "/>
<polyline clip-path="url(#clip050)" style="stroke:#000000; stroke-linecap:round; stroke-linejoin:round; stroke-width:4; stroke-opacity:1; fill:none" points="112.177,1423.18 2352.76,1423.18 "/>
<polyline clip-path="url(#clip050)" style="stroke:#000000; stroke-linecap:round; stroke-linejoin:round; stroke-width:4; stroke-opacity:1; fill:none" points="112.177,1423.18 112.177,1404.28 "/>
<polyline clip-path="url(#clip050)" style="stroke:#000000; stroke-linecap:round; stroke-linejoin:round; stroke-width:4; stroke-opacity:1; fill:none" points="560.293,1423.18 560.293,1404.28 "/>
<polyline clip-path="url(#clip050)" style="stroke:#000000; stroke-linecap:round; stroke-linejoin:round; stroke-width:4; stroke-opacity:1; fill:none" points="1008.41,1423.18 1008.41,1404.28 "/>
<polyline clip-path="url(#clip050)" style="stroke:#000000; stroke-linecap:round; stroke-linejoin:round; stroke-width:4; stroke-opacity:1; fill:none" points="1456.52,1423.18 1456.52,1404.28 "/>
<polyline clip-path="url(#clip050)" style="stroke:#000000; stroke-linecap:round; stroke-linejoin:round; stroke-width:4; stroke-opacity:1; fill:none" points="1904.64,1423.18 1904.64,1404.28 "/>
<polyline clip-path="url(#clip050)" style="stroke:#000000; stroke-linecap:round; stroke-linejoin:round; stroke-width:4; stroke-opacity:1; fill:none" points="2352.76,1423.18 2352.76,1404.28 "/>
<path clip-path="url(#clip050)" d="M112.177 1454.1 Q108.566 1454.1 106.737 1457.66 Q104.932 1461.2 104.932 1468.33 Q104.932 1475.44 106.737 1479.01 Q108.566 1482.55 112.177 1482.55 Q115.811 1482.55 117.617 1479.01 Q119.446 1475.44 119.446 1468.33 Q119.446 1461.2 117.617 1457.66 Q115.811 1454.1 112.177 1454.1 M112.177 1450.39 Q117.987 1450.39 121.043 1455 Q124.122 1459.58 124.122 1468.33 Q124.122 1477.06 121.043 1481.67 Q117.987 1486.25 112.177 1486.25 Q106.367 1486.25 103.288 1481.67 Q100.233 1477.06 100.233 1468.33 Q100.233 1459.58 103.288 1455 Q106.367 1450.39 112.177 1450.39 Z" fill="#000000" fill-rule="nonzero" fill-opacity="1" /><path clip-path="url(#clip050)" d="M554.946 1481.64 L571.265 1481.64 L571.265 1485.58 L549.321 1485.58 L549.321 1481.64 Q551.983 1478.89 556.566 1474.26 Q561.173 1469.61 562.353 1468.27 Q564.598 1465.74 565.478 1464.01 Q566.381 1462.25 566.381 1460.56 Q566.381 1457.8 564.436 1456.07 Q562.515 1454.33 559.413 1454.33 Q557.214 1454.33 554.761 1455.09 Q552.33 1455.86 549.552 1457.41 L549.552 1452.69 Q552.376 1451.55 554.83 1450.97 Q557.284 1450.39 559.321 1450.39 Q564.691 1450.39 567.885 1453.08 Q571.08 1455.77 571.08 1460.26 Q571.08 1462.39 570.27 1464.31 Q569.483 1466.2 567.376 1468.8 Q566.798 1469.47 563.696 1472.69 Q560.594 1475.88 554.946 1481.64 Z" fill="#000000" fill-rule="nonzero" fill-opacity="1" /><path clip-path="url(#clip050)" d="M1011.42 1455.09 L999.612 1473.54 L1011.42 1473.54 L1011.42 1455.09 M1010.19 1451.02 L1016.07 1451.02 L1016.07 1473.54 L1021 1473.54 L1021 1477.43 L1016.07 1477.43 L1016.07 1485.58 L1011.42 1485.58 L1011.42 1477.43 L995.816 1477.43 L995.816 1472.92 L1010.19 1451.02 Z" fill="#000000" fill-rule="nonzero" fill-opacity="1" /><path clip-path="url(#clip050)" d="M1456.93 1466.44 Q1453.78 1466.44 1451.93 1468.59 Q1450.1 1470.74 1450.1 1474.49 Q1450.1 1478.22 1451.93 1480.39 Q1453.78 1482.55 1456.93 1482.55 Q1460.08 1482.55 1461.91 1480.39 Q1463.76 1478.22 1463.76 1474.49 Q1463.76 1470.74 1461.91 1468.59 Q1460.08 1466.44 1456.93 1466.44 M1466.21 1451.78 L1466.21 1456.04 Q1464.45 1455.21 1462.65 1454.77 Q1460.86 1454.33 1459.11 1454.33 Q1454.48 1454.33 1452.02 1457.45 Q1449.59 1460.58 1449.24 1466.9 Q1450.61 1464.89 1452.67 1463.82 Q1454.73 1462.73 1457.21 1462.73 Q1462.42 1462.73 1465.42 1465.9 Q1468.46 1469.05 1468.46 1474.49 Q1468.46 1479.82 1465.31 1483.03 Q1462.16 1486.25 1456.93 1486.25 Q1450.93 1486.25 1447.76 1481.67 Q1444.59 1477.06 1444.59 1468.33 Q1444.59 1460.14 1448.48 1455.28 Q1452.37 1450.39 1458.92 1450.39 Q1460.68 1450.39 1462.46 1450.74 Q1464.27 1451.09 1466.21 1451.78 Z" fill="#000000" fill-rule="nonzero" fill-opacity="1" /><path clip-path="url(#clip050)" d="M1904.64 1469.17 Q1901.31 1469.17 1899.39 1470.95 Q1897.49 1472.73 1897.49 1475.86 Q1897.49 1478.98 1899.39 1480.77 Q1901.31 1482.55 1904.64 1482.55 Q1907.97 1482.55 1909.89 1480.77 Q1911.82 1478.96 1911.82 1475.86 Q1911.82 1472.73 1909.89 1470.95 Q1908 1469.17 1904.64 1469.17 M1899.96 1467.18 Q1896.96 1466.44 1895.27 1464.38 Q1893.6 1462.32 1893.6 1459.35 Q1893.6 1455.21 1896.54 1452.8 Q1899.5 1450.39 1904.64 1450.39 Q1909.8 1450.39 1912.74 1452.8 Q1915.68 1455.21 1915.68 1459.35 Q1915.68 1462.32 1913.99 1464.38 Q1912.33 1466.44 1909.34 1467.18 Q1912.72 1467.96 1914.59 1470.26 Q1916.49 1472.55 1916.49 1475.86 Q1916.49 1480.88 1913.41 1483.57 Q1910.36 1486.25 1904.64 1486.25 Q1898.92 1486.25 1895.84 1483.57 Q1892.79 1480.88 1892.79 1475.86 Q1892.79 1472.55 1894.69 1470.26 Q1896.58 1467.96 1899.96 1467.18 M1898.25 1459.79 Q1898.25 1462.48 1899.92 1463.98 Q1901.61 1465.49 1904.64 1465.49 Q1907.65 1465.49 1909.34 1463.98 Q1911.05 1462.48 1911.05 1459.79 Q1911.05 1457.11 1909.34 1455.6 Q1907.65 1454.1 1904.64 1454.1 Q1901.61 1454.1 1899.92 1455.6 Q1898.25 1457.11 1898.25 1459.79 Z" fill="#000000" fill-rule="nonzero" fill-opacity="1" /><path clip-path="url(#clip050)" d="M2327.44 1481.64 L2335.08 1481.64 L2335.08 1455.28 L2326.77 1456.95 L2326.77 1452.69 L2335.04 1451.02 L2339.71 1451.02 L2339.71 1481.64 L2347.35 1481.64 L2347.35 1485.58 L2327.44 1485.58 L2327.44 1481.64 Z" fill="#000000" fill-rule="nonzero" fill-opacity="1" /><path clip-path="url(#clip050)" d="M2366.8 1454.1 Q2363.18 1454.1 2361.36 1457.66 Q2359.55 1461.2 2359.55 1468.33 Q2359.55 1475.44 2361.36 1479.01 Q2363.18 1482.55 2366.8 1482.55 Q2370.43 1482.55 2372.23 1479.01 Q2374.06 1475.44 2374.06 1468.33 Q2374.06 1461.2 2372.23 1457.66 Q2370.43 1454.1 2366.8 1454.1 M2366.8 1450.39 Q2372.61 1450.39 2375.66 1455 Q2378.74 1459.58 2378.74 1468.33 Q2378.74 1477.06 2375.66 1481.67 Q2372.61 1486.25 2366.8 1486.25 Q2360.99 1486.25 2357.91 1481.67 Q2354.85 1477.06 2354.85 1468.33 Q2354.85 1459.58 2357.91 1455 Q2360.99 1450.39 2366.8 1450.39 Z" fill="#000000" fill-rule="nonzero" fill-opacity="1" /><path clip-path="url(#clip050)" d="M1231.53 1522.27 L1231.53 1532.4 L1243.59 1532.4 L1243.59 1536.95 L1231.53 1536.95 L1231.53 1556.3 Q1231.53 1560.66 1232.71 1561.9 Q1233.91 1563.14 1237.58 1563.14 L1243.59 1563.14 L1243.59 1568.04 L1237.58 1568.04 Q1230.8 1568.04 1228.22 1565.53 Q1225.64 1562.98 1225.64 1556.3 L1225.64 1536.95 L1221.34 1536.95 L1221.34 1532.4 L1225.64 1532.4 L1225.64 1522.27 L1231.53 1522.27 Z" fill="#000000" fill-rule="nonzero" fill-opacity="1" /><polyline clip-path="url(#clip050)" style="stroke:#000000; stroke-linecap:round; stroke-linejoin:round; stroke-width:4; stroke-opacity:1; fill:none" points="112.177,1423.18 112.177,47.2441 "/>
<polyline clip-path="url(#clip050)" style="stroke:#000000; stroke-linecap:round; stroke-linejoin:round; stroke-width:4; stroke-opacity:1; fill:none" points="112.177,1207.9 131.075,1207.9 "/>
<polyline clip-path="url(#clip050)" style="stroke:#000000; stroke-linecap:round; stroke-linejoin:round; stroke-width:4; stroke-opacity:1; fill:none" points="112.177,987.476 131.075,987.476 "/>
<polyline clip-path="url(#clip050)" style="stroke:#000000; stroke-linecap:round; stroke-linejoin:round; stroke-width:4; stroke-opacity:1; fill:none" points="112.177,767.053 131.075,767.053 "/>
<polyline clip-path="url(#clip050)" style="stroke:#000000; stroke-linecap:round; stroke-linejoin:round; stroke-width:4; stroke-opacity:1; fill:none" points="112.177,546.63 131.075,546.63 "/>
<polyline clip-path="url(#clip050)" style="stroke:#000000; stroke-linecap:round; stroke-linejoin:round; stroke-width:4; stroke-opacity:1; fill:none" points="112.177,326.207 131.075,326.207 "/>
<polyline clip-path="url(#clip050)" style="stroke:#000000; stroke-linecap:round; stroke-linejoin:round; stroke-width:4; stroke-opacity:1; fill:none" points="112.177,105.783 131.075,105.783 "/>
<path clip-path="url(#clip050)" d="M56.2699 1221.24 L63.9087 1221.24 L63.9087 1194.88 L55.5986 1196.55 L55.5986 1192.29 L63.8624 1190.62 L68.5383 1190.62 L68.5383 1221.24 L76.1772 1221.24 L76.1772 1225.18 L56.2699 1225.18 L56.2699 1221.24 Z" fill="#000000" fill-rule="nonzero" fill-opacity="1" /><path clip-path="url(#clip050)" d="M59.8578 1000.82 L76.1772 1000.82 L76.1772 1004.76 L54.2328 1004.76 L54.2328 1000.82 Q56.8949 998.067 61.4782 993.437 Q66.0846 988.784 67.2652 987.442 Q69.5105 984.919 70.3902 983.182 Q71.2929 981.423 71.2929 979.733 Q71.2929 976.979 69.3485 975.243 Q67.4272 973.507 64.3254 973.507 Q62.1263 973.507 59.6726 974.27 Q57.2421 975.034 54.4643 976.585 L54.4643 971.863 Q57.2884 970.729 59.7421 970.15 Q62.1958 969.571 64.2328 969.571 Q69.6031 969.571 72.7976 972.257 Q75.992 974.942 75.992 979.432 Q75.992 981.562 75.1818 983.483 Q74.3948 985.381 72.2883 987.974 Q71.7096 988.645 68.6078 991.863 Q65.5059 995.057 59.8578 1000.82 Z" fill="#000000" fill-rule="nonzero" fill-opacity="1" /><path clip-path="url(#clip050)" d="M69.0476 765.699 Q72.404 766.417 74.279 768.685 Q76.1772 770.954 76.1772 774.287 Q76.1772 779.403 72.6587 782.203 Q69.1402 785.004 62.6587 785.004 Q60.4828 785.004 58.168 784.565 Q55.8764 784.148 53.4227 783.291 L53.4227 778.778 Q55.3671 779.912 57.6819 780.491 Q59.9967 781.069 62.5198 781.069 Q66.918 781.069 69.2096 779.333 Q71.5244 777.597 71.5244 774.287 Q71.5244 771.231 69.3717 769.518 Q67.242 767.782 63.4226 767.782 L59.3949 767.782 L59.3949 763.94 L63.6078 763.94 Q67.0569 763.94 68.8855 762.574 Q70.7142 761.185 70.7142 758.593 Q70.7142 755.93 68.8161 754.518 Q66.9411 753.083 63.4226 753.083 Q61.5013 753.083 59.3023 753.5 Q57.1032 753.917 54.4643 754.796 L54.4643 750.63 Q57.1264 749.889 59.4412 749.518 Q61.7791 749.148 63.8393 749.148 Q69.1633 749.148 72.2652 751.579 Q75.367 753.986 75.367 758.106 Q75.367 760.977 73.7235 762.967 Q72.08 764.935 69.0476 765.699 Z" fill="#000000" fill-rule="nonzero" fill-opacity="1" /><path clip-path="url(#clip050)" d="M66.5939 533.424 L54.7884 551.873 L66.5939 551.873 L66.5939 533.424 M65.367 529.35 L71.2466 529.35 L71.2466 551.873 L76.1772 551.873 L76.1772 555.762 L71.2466 555.762 L71.2466 563.91 L66.5939 563.91 L66.5939 555.762 L50.9921 555.762 L50.9921 551.248 L65.367 529.35 Z" fill="#000000" fill-rule="nonzero" fill-opacity="1" /><path clip-path="url(#clip050)" d="M55.2745 308.927 L73.6309 308.927 L73.6309 312.862 L59.5569 312.862 L59.5569 321.334 Q60.5754 320.987 61.5939 320.825 Q62.6124 320.639 63.6309 320.639 Q69.418 320.639 72.7976 323.811 Q76.1772 326.982 76.1772 332.399 Q76.1772 337.977 72.705 341.079 Q69.2328 344.158 62.9134 344.158 Q60.7374 344.158 58.4689 343.787 Q56.2236 343.417 53.8162 342.676 L53.8162 337.977 Q55.8995 339.112 58.1217 339.667 Q60.3439 340.223 62.8208 340.223 Q66.8254 340.223 69.1633 338.116 Q71.5013 336.01 71.5013 332.399 Q71.5013 328.788 69.1633 326.681 Q66.8254 324.575 62.8208 324.575 Q60.9458 324.575 59.0708 324.991 Q57.2189 325.408 55.2745 326.288 L55.2745 308.927 Z" fill="#000000" fill-rule="nonzero" fill-opacity="1" /><path clip-path="url(#clip050)" d="M64.6495 103.92 Q61.5013 103.92 59.6495 106.073 Q57.8208 108.225 57.8208 111.975 Q57.8208 115.702 59.6495 117.878 Q61.5013 120.031 64.6495 120.031 Q67.7976 120.031 69.6263 117.878 Q71.4781 115.702 71.4781 111.975 Q71.4781 108.225 69.6263 106.073 Q67.7976 103.92 64.6495 103.92 M73.9318 89.2672 L73.9318 93.5264 Q72.1726 92.6931 70.367 92.2533 Q68.5846 91.8135 66.8254 91.8135 Q62.1958 91.8135 59.7421 94.9384 Q57.3115 98.0634 56.9643 104.383 Q58.33 102.369 60.3902 101.304 Q62.4504 100.216 64.9272 100.216 Q70.1355 100.216 73.1448 103.387 Q76.1772 106.536 76.1772 111.975 Q76.1772 117.299 73.029 120.517 Q69.8809 123.735 64.6495 123.735 Q58.6541 123.735 55.4828 119.151 Q52.3116 114.545 52.3116 105.818 Q52.3116 97.6236 56.2004 92.7625 Q60.0893 87.8783 66.6402 87.8783 Q68.3994 87.8783 70.1818 88.2255 Q71.9874 88.5727 73.9318 89.2672 Z" fill="#000000" fill-rule="nonzero" fill-opacity="1" /><polyline clip-path="url(#clip052)" style="stroke:#009af9; stroke-linecap:round; stroke-linejoin:round; stroke-width:8; stroke-opacity:1; fill:none" points="112.177,1384.24 114.42,1383.79 116.663,1383.35 118.906,1382.89 121.148,1382.44 123.391,1381.98 125.634,1381.51 127.877,1381.04 130.12,1380.56 132.363,1380.08 134.605,1379.6 136.848,1379.11 139.091,1378.61 141.334,1378.11 143.577,1377.61 145.819,1377.1 148.062,1376.58 150.305,1376.06 152.548,1375.53 154.791,1375 157.034,1374.47 159.276,1373.93 161.519,1373.38 163.762,1372.83 166.005,1372.27 168.248,1371.7 170.491,1371.13 172.733,1370.56 174.976,1369.98 177.219,1369.39 179.462,1368.8 181.705,1368.2 183.947,1367.59 186.19,1366.98 188.433,1366.37 190.676,1365.74 192.919,1365.11 195.162,1364.48 197.404,1363.83 199.647,1363.19 201.89,1362.53 204.133,1361.87 206.376,1361.2 208.619,1360.52 210.861,1359.84 213.104,1359.15 215.347,1358.46 217.59,1357.75 219.833,1357.04 222.075,1356.33 224.318,1355.6 226.561,1354.87 228.804,1354.13 231.047,1353.39 233.29,1352.63 235.532,1351.87 237.775,1351.1 240.018,1350.33 242.261,1349.54 244.504,1348.75 246.746,1347.95 248.989,1347.14 251.232,1346.32 253.475,1345.5 255.718,1344.66 257.961,1343.82 260.203,1342.97 262.446,1342.11 264.689,1341.25 266.932,1340.37 269.175,1339.49 271.418,1338.59 273.66,1337.69 275.903,1336.78 278.146,1335.86 280.389,1334.93 282.632,1333.99 284.874,1333.04 287.117,1332.08 289.36,1331.11 291.603,1330.13 293.846,1329.14 296.089,1328.15 298.331,1327.14 300.574,1326.12 302.817,1325.09 305.06,1324.05 307.303,1323.01 309.545,1321.95 311.788,1320.88 314.031,1319.79 316.274,1318.7 318.517,1317.6 320.76,1316.49 323.002,1315.36 325.245,1314.22 327.488,1313.08 329.731,1311.92 331.974,1310.75 334.217,1309.56 336.459,1308.37 338.702,1307.16 340.945,1305.94 343.188,1304.71 345.431,1303.47 347.673,1302.21 349.916,1300.94 352.159,1299.66 354.402,1298.37 356.645,1297.06 358.888,1295.74 361.13,1294.41 363.373,1293.06 365.616,1291.7 367.859,1290.32 370.102,1288.93 372.344,1287.53 374.587,1286.12 376.83,1284.69 379.073,1283.24 381.316,1281.78 383.559,1280.31 385.801,1278.82 388.044,1277.31 390.287,1275.79 392.53,1274.26 394.773,1272.71 397.016,1271.14 399.258,1269.56 401.501,1267.97 403.744,1266.35 405.987,1264.72 408.23,1263.08 410.472,1261.41 412.715,1259.74 414.958,1258.04 417.201,1256.33 419.444,1254.6 421.687,1252.85 423.929,1251.08 426.172,1338.81 428.415,1337.91 430.658,1337 432.901,1336.08 435.143,1335.15 437.386,1334.22 439.629,1333.27 441.872,1332.31 444.115,1331.35 446.358,1330.37 448.6,1329.39 450.843,1328.39 453.086,1327.39 455.329,1326.37 457.572,1325.35 459.815,1324.31 462.057,1375.79 464.3,1375.26 466.543,1374.73 468.786,1374.19 471.029,1373.65 473.271,1373.1 475.514,1372.54 477.757,1371.98 480,1371.41 482.243,1370.84 484.486,1370.26 486.728,1369.68 488.971,1369.09 491.214,1368.49 493.457,1367.89 495.7,1367.28 497.942,1366.67 500.185,1366.05 502.428,1365.42 504.671,1364.79 506.914,1364.15 509.157,1363.5 511.399,1362.85 513.642,1362.19 515.885,1361.53 518.128,1360.86 520.371,1360.18 522.614,1359.49 524.856,1358.8 527.099,1358.1 529.342,1357.39 531.585,1356.68 533.828,1355.96 536.07,1355.23 538.313,1354.5 540.556,1353.75 542.799,1353 545.042,1352.25 547.285,1351.48 549.527,1350.71 551.77,1349.93 554.013,1349.14 556.256,1348.34 558.499,1347.54 560.741,1346.72 562.984,1345.9 565.227,1345.07 567.47,1344.24 569.713,1343.39 571.956,1342.54 574.198,1341.67 576.441,1340.8 578.684,1339.92 580.927,1339.03 583.17,1338.13 585.413,1337.23 587.655,1336.31 589.898,1335.38 592.141,1334.45 594.384,1333.5 596.627,1332.55 598.869,1331.59 601.112,1330.61 603.355,1329.63 605.598,1328.64 607.841,1327.63 610.084,1326.62 612.326,1325.6 614.569,1324.57 616.812,1323.52 619.055,1322.47 621.298,1321.4 623.54,1320.33 625.783,1319.24 628.026,1318.14 630.269,1317.04 632.512,1315.92 634.755,1314.78 636.997,1313.64 639.24,1312.49 641.483,1311.32 643.726,1310.15 645.969,1308.96 648.212,1307.76 650.454,1306.54 652.697,1305.32 654.94,1304.08 657.183,1302.83 659.426,1301.57 661.668,1300.3 663.911,1299.01 666.154,1297.71 668.397,1296.39 670.64,1295.06 672.883,1293.72 675.125,1292.37 677.368,1291 679.611,1289.62 681.854,1288.23 684.097,1286.82 686.339,1285.39 688.582,1283.95 690.825,1282.5 693.068,1281.03 695.311,1279.55 697.554,1278.06 699.796,1276.54 702.039,1275.02 704.282,1273.47 706.525,1271.92 708.768,1270.34 711.011,1268.75 713.253,1267.15 715.496,1265.53 717.739,1263.89 719.982,1262.23 722.225,1260.56 724.467,1258.88 726.71,1257.17 728.953,1255.45 731.196,1253.71 733.439,1251.95 735.682,1250.18 737.924,1248.39 740.167,1246.58 742.41,1244.75 744.653,1242.9 746.896,1241.04 749.138,1239.15 751.381,1237.25 753.624,1235.33 755.867,1233.38 758.11,1231.42 760.353,1229.44 762.595,1227.44 764.838,1225.42 767.081,1223.38 769.324,1221.32 771.567,1219.24 773.81,1217.13 776.052,1215.01 778.295,1212.86 780.538,1210.69 782.781,1208.5 785.024,1206.29 787.266,1204.06 789.509,1201.8 791.752,1199.52 793.995,1197.22 796.238,1194.9 798.481,1192.55 800.723,1190.18 802.966,1187.78 805.209,1306.84 807.452,1305.62 809.695,1304.39 811.938,1303.14 814.18,1301.88 816.423,1300.61 818.666,1299.32 820.909,1298.03 823.152,1296.72 825.394,1295.39 827.637,1294.05 829.88,1292.7 832.123,1291.34 834.366,1289.96 836.609,1288.57 838.851,1287.16 841.094,1285.74 843.337,1284.31 845.58,1282.86 847.823,1281.4 850.065,1279.92 852.308,1278.43 854.551,1276.92 856.794,1275.4 859.037,1273.86 861.28,1272.3 863.522,1270.73 865.765,1269.15 868.008,1267.55 870.251,1265.93 872.494,1264.3 874.737,1262.65 876.979,1260.98 879.222,1259.3 881.465,1257.6 883.708,1255.88 885.951,1254.14 888.193,1252.39 890.436,1250.62 892.679,1248.83 894.922,1247.03 897.165,1245.2 899.408,1243.36 901.65,1241.5 903.893,1239.62 906.136,1237.72 908.379,1235.81 910.622,1233.87 912.864,1231.91 915.107,1229.94 917.35,1227.94 919.593,1225.93 921.836,1223.89 924.079,1221.83 926.321,1219.75 928.564,1217.66 930.807,1215.54 933.05,1213.4 935.293,1211.23 937.536,1209.05 939.778,1206.84 942.021,1204.61 944.264,1202.36 946.507,1200.09 948.75,1197.79 950.992,1195.48 953.235,1193.13 955.478,1190.77 957.721,1188.38 959.964,1185.96 962.207,1183.52 964.449,1181.06 966.692,1178.57 968.935,1176.06 971.178,1173.52 973.421,1170.96 975.663,1168.37 977.906,1165.75 980.149,1163.11 982.392,1160.44 984.635,1157.75 986.878,1155.03 989.12,1152.28 991.363,1149.5 993.606,1146.7 995.849,1143.86 998.092,1141 1000.33,1138.11 1002.58,1135.19 1004.82,1132.25 1007.06,1129.27 1009.31,1126.26 1011.55,1123.22 1013.79,1120.15 1016.03,1117.05 1018.28,1113.92 1020.52,1110.76 1022.76,1107.57 1025.01,1104.34 1027.25,1101.08 1029.49,1097.79 1031.73,1094.47 1033.98,1091.11 1036.22,1087.72 1038.46,1084.29 1040.71,1080.83 1042.95,1077.34 1045.19,1073.81 1047.43,1070.24 1049.68,1066.64 1051.92,1063 1054.16,1059.32 1056.41,1055.61 1058.65,1051.86 1060.89,1048.08 1063.13,1044.25 1065.38,1040.39 1067.62,1036.48 1069.86,1032.54 1072.1,1028.56 1074.35,1024.54 1076.59,1020.48 1078.83,1016.37 1081.08,1012.23 1083.32,1008.04 1085.56,1003.81 1087.8,999.54 1090.05,995.226 1092.29,990.868 1094.53,986.466 1096.78,982.02 1099.02,977.529 1101.26,972.993 1103.5,968.411 1105.75,963.783 1107.99,959.109 1110.23,954.387 1112.48,949.619 1114.72,944.802 1116.96,939.937 1119.2,935.023 1121.45,930.059 1123.69,925.046 1125.93,919.983 1128.18,914.869 1130.42,1169.02 1132.66,1166.41 1134.9,1163.77 1137.15,1161.11 1139.39,1158.42 1141.63,1155.71 1143.88,1152.96 1146.12,1150.19 1148.36,1147.4 1150.6,1144.57 1152.85,1141.71 1155.09,1138.83 1157.33,1135.92 1159.57,1132.98 1161.82,1130.01 1164.06,1127.01 1166.3,1123.97 1168.55,1120.91 1170.79,1117.82 1173.03,1114.7 1175.27,1111.54 1177.52,1108.35 1179.76,1105.14 1182,1101.88 1184.25,1098.6 1186.49,1095.28 1188.73,1091.93 1190.97,1088.55 1193.22,1085.13 1195.46,1081.68 1197.7,1078.19 1199.95,1074.67 1202.19,1071.11 1204.43,1067.52 1206.67,1063.89 1208.92,1060.22 1211.16,1056.52 1213.4,1052.78 1215.65,1049 1217.89,1045.18 1220.13,1041.33 1222.37,1037.43 1224.62,1033.5 1226.86,1029.53 1229.1,1025.52 1231.35,1021.47 1233.59,1017.37 1235.83,1013.24 1238.07,1009.06 1240.32,1004.84 1242.56,1214.47 1244.8,1212.32 1247.04,1210.14 1249.29,1207.95 1251.53,1205.73 1253.77,1203.49 1256.02,1201.23 1258.26,1198.95 1260.5,1196.64 1262.74,1194.31 1264.99,1191.95 1267.23,1189.57 1269.47,1187.17 1271.72,1184.75 1273.96,1182.3 1276.2,1179.82 1278.44,1177.32 1280.69,1174.8 1282.93,1172.25 1285.17,1169.67 1287.42,1167.07 1289.66,1164.44 1291.9,1161.79 1294.14,1159.1 1296.39,1156.4 1298.63,1153.66 1300.87,1150.9 1303.12,1148.11 1305.36,1145.29 1307.6,1142.44 1309.84,1139.57 1312.09,1136.66 1314.33,1133.73 1316.57,1130.77 1318.82,1127.78 1321.06,1124.75 1323.3,1121.7 1325.54,1118.62 1327.79,1115.5 1330.03,1112.35 1332.27,1109.18 1334.51,1105.97 1336.76,1102.72 1339,1099.45 1341.24,1096.14 1343.49,1092.8 1345.73,1089.42 1347.97,1086.01 1350.21,1082.57 1352.46,1079.09 1354.7,1075.58 1356.94,1072.03 1359.19,1068.45 1361.43,1064.83 1363.67,1061.17 1365.91,1057.48 1368.16,1053.74 1370.4,1049.98 1372.64,1046.17 1374.89,1042.32 1377.13,1038.44 1379.37,1034.52 1381.61,1030.55 1383.86,1026.55 1386.1,1022.51 1388.34,1018.43 1390.59,1014.3 1392.83,1010.13 1395.07,1005.93 1397.31,1001.68 1399.56,997.383 1401.8,993.047 1404.04,988.667 1406.29,984.243 1408.53,979.775 1410.77,975.261 1413.01,970.703 1415.26,966.099 1417.5,961.448 1419.74,956.751 1421.98,1190.17 1424.23,1187.77 1426.47,1185.35 1428.71,1182.91 1430.96,1180.44 1433.2,1177.94 1435.44,1175.42 1437.68,1172.88 1439.93,1170.31 1442.17,1167.71 1444.41,1165.09 1446.66,1162.44 1448.9,1159.77 1451.14,1157.07 1453.38,1154.34 1455.63,1151.58 1457.87,1148.8 1460.11,1145.99 1462.36,1143.15 1464.6,1140.28 1466.84,1137.38 1469.08,1134.45 1471.33,1131.5 1473.57,1128.51 1475.81,1125.5 1478.06,1122.45 1480.3,1119.37 1482.54,1116.27 1484.78,1113.13 1487.03,1109.96 1489.27,1106.76 1491.51,1103.52 1493.76,1100.26 1496,1096.96 1498.24,1093.62 1500.48,1090.26 1502.73,1086.86 1504.97,1083.42 1507.21,1079.96 1509.46,1076.45 1511.7,1072.91 1513.94,1069.34 1516.18,1065.73 1518.43,1062.08 1520.67,1058.4 1522.91,1054.68 1525.15,1050.92 1527.4,1047.12 1529.64,1043.29 1531.88,1039.41 1534.13,1035.5 1536.37,1031.55 1538.61,1027.56 1540.85,1023.53 1543.1,1019.45 1545.34,1015.34 1547.58,1011.19 1549.83,1006.99 1552.07,1002.75 1554.31,998.468 1556.55,994.143 1558.8,989.774 1561.04,985.362 1563.28,980.905 1565.53,976.402 1567.77,971.855 1570.01,967.262 1572.25,962.622 1574.5,957.936 1576.74,953.202 1578.98,948.421 1581.23,943.592 1583.47,938.714 1585.71,933.787 1587.95,928.811 1590.2,923.784 1592.44,918.707 1594.68,913.579 1596.93,908.4 1599.17,903.168 1601.41,897.884 1603.65,892.548 1605.9,887.157 1608.14,881.713 1610.38,876.214 1612.62,870.659 1614.87,865.049 1617.11,859.382 1619.35,853.658 1621.6,847.876 1623.84,842.036 1626.08,836.138 1628.32,830.18 1630.57,824.162 1632.81,818.084 1635.05,811.945 1637.3,805.744 1639.54,799.481 1641.78,793.155 1644.02,786.765 1646.27,780.311 1648.51,773.793 1650.75,767.208 1653,760.558 1655.24,753.841 1657.48,747.056 1659.72,740.203 1661.97,733.282 1664.21,726.29 1666.45,719.229 1668.7,712.096 1670.94,704.892 1673.18,697.615 1675.42,690.265 1677.67,682.841 1679.91,675.342 1682.15,667.768 1684.4,660.118 1686.64,652.39 1688.88,644.585 1691.12,636.702 1693.37,628.739 1695.61,620.695 1697.85,612.571 1700.09,604.365 1702.34,596.076 1704.58,587.704 1706.82,579.248 1709.07,570.706 1711.31,562.078 1713.55,553.363 1715.79,544.561 1718.04,535.669 1720.28,526.689 1722.52,517.617 1724.77,508.455 1727.01,499.2 1729.25,489.852 1731.49,480.409 1733.74,470.872 1735.98,461.239 1738.22,451.508 1740.47,441.68 1742.71,431.753 1744.95,421.725 1747.19,411.597 1749.44,401.368 1751.68,391.035 1753.92,380.598 1756.17,370.057 1758.41,359.409 1760.65,348.655 1762.89,337.792 1765.14,326.821 1767.38,872.1 1769.62,866.504 1771.87,860.852 1774.11,855.143 1776.35,849.376 1778.59,843.551 1780.84,837.667 1783.08,831.724 1785.32,825.722 1787.56,819.659 1789.81,813.535 1792.05,807.35 1794.29,801.103 1796.54,794.793 1798.78,788.419 1801.02,781.982 1803.26,775.48 1805.51,768.913 1807.75,762.28 1809.99,755.58 1812.24,748.814 1814.48,741.979 1816.72,735.076 1818.96,728.103 1821.21,721.061 1823.45,713.948 1825.69,706.763 1827.94,699.507 1830.18,692.177 1832.42,684.774 1834.66,677.296 1836.91,669.744 1839.15,662.115 1841.39,654.41 1843.64,646.627 1845.88,638.767 1848.12,630.827 1850.36,622.807 1852.61,614.706 1854.85,606.524 1857.09,598.26 1859.34,589.912 1861.58,581.48 1863.82,572.964 1866.06,564.361 1868.31,555.672 1870.55,546.896 1872.79,538.031 1875.03,529.076 1877.28,520.031 1879.52,510.896 1881.76,501.667 1884.01,492.346 1886.25,482.931 1888.49,473.421 1890.73,463.815 1892.98,454.112 1895.22,444.311 1897.46,434.411 1899.71,424.412 1901.95,414.311 1904.19,404.109 1906.43,393.804 1908.68,383.394 1910.92,372.88 1913.16,362.26 1915.41,351.532 1917.65,340.697 1919.89,329.752 1922.13,318.697 1924.38,307.53 1926.62,296.251 1928.86,284.858 1931.11,273.351 1933.35,261.727 1935.59,249.987 1937.83,238.129 1940.08,226.151 1942.32,214.053 1944.56,201.833 1946.81,189.49 1949.05,177.024 1951.29,164.432 1953.53,151.714 1955.78,138.868 1958.02,125.894 1960.26,112.79 1962.5,99.5539 1964.75,86.1857 1966.99,750.522 1969.23,743.703 1971.48,1082.57 1973.72,1079.09 1975.96,1075.58 1978.2,1072.03 1980.45,1068.44 1982.69,1064.82 1984.93,1061.17 1987.18,1057.47 1989.42,1053.74 1991.66,1049.97 1993.9,1046.17 1996.15,1042.32 1998.39,1038.44 2000.63,1034.52 2002.88,1030.56 2005.12,1026.55 2007.36,1022.51 2009.6,1018.43 2011.85,1221.31 2014.09,1219.23 2016.33,1217.13 2018.58,1215 2020.82,1212.86 2023.06,1210.69 2025.3,1208.5 2027.55,1206.29 2029.79,1204.05 2032.03,1201.8 2034.28,1199.52 2036.52,1197.22 2038.76,1194.89 2041,1192.54 2043.25,1190.17 2045.49,1187.78 2047.73,1185.36 2049.97,1182.91 2052.22,1180.44 2054.46,1177.95 2056.7,1175.43 2058.95,1172.89 2061.19,1170.32 2063.43,1167.72 2065.67,1165.1 2067.92,1162.45 2070.16,1159.78 2072.4,1157.07 2074.65,1154.35 2076.89,1151.59 2079.13,1148.81 2081.37,1145.99 2083.62,1143.15 2085.86,1140.28 2088.1,1137.39 2090.35,1134.46 2092.59,1131.5 2094.83,1128.52 2097.07,1125.5 2099.32,1122.45 2101.56,1119.38 2103.8,1116.27 2106.05,1113.13 2108.29,1109.96 2110.53,1106.76 2112.77,1103.52 2115.02,1100.25 2117.26,1096.95 2119.5,1093.62 2121.75,1343.82 2123.99,1342.97 2126.23,1342.11 2128.47,1341.24 2130.72,1340.36 2132.96,1339.48 2135.2,1338.58 2137.45,1337.68 2139.69,1336.77 2141.93,1335.85 2144.17,1334.92 2146.42,1333.98 2148.66,1333.03 2150.9,1332.07 2153.14,1331.1 2155.39,1330.12 2157.63,1329.14 2159.87,1328.14 2162.12,1327.13 2164.36,1326.11 2166.6,1325.08 2168.84,1324.05 2171.09,1323 2173.33,1321.94 2175.57,1320.87 2177.82,1319.79 2180.06,1318.69 2182.3,1317.59 2184.54,1316.48 2186.79,1315.35 2189.03,1314.22 2191.27,1313.07 2193.52,1311.91 2195.76,1310.74 2198,1309.55 2200.24,1308.36 2202.49,1307.15 2204.73,1305.93 2206.97,1304.7 2209.22,1303.46 2211.46,1302.2 2213.7,1300.93 2215.94,1299.65 2218.19,1298.36 2220.43,1297.05 2222.67,1295.73 2224.92,1294.4 2227.16,1293.05 2229.4,1291.69 2231.64,1290.31 2233.89,1288.92 2236.13,1287.52 2238.37,1286.11 2240.61,1284.67 2242.86,1283.23 2245.1,1281.77 2247.34,1354.32 2249.59,1353.57 2251.83,1352.82 2254.07,1352.06 2256.31,1351.3 2258.56,1350.52 2260.8,1349.74 2263.04,1348.95 2265.29,1348.15 2267.53,1347.34 2269.77,1346.53 2272.01,1345.71 2274.26,1344.87 2276.5,1344.03 2278.74,1343.19 2280.99,1342.33 2283.23,1341.47 2285.47,1340.59 2287.71,1339.71 2289.96,1338.82 2292.2,1337.92 2294.44,1382.67 2296.69,1382.21 2298.93,1381.74 2301.17,1381.27 2303.41,1380.8 2305.66,1380.32 2307.9,1379.84 2310.14,1379.35 2312.39,1378.86 2314.63,1378.36 2316.87,1377.86 2319.11,1377.35 2321.36,1376.84 2323.6,1376.32 2325.84,1375.8 2328.08,1375.27 2330.33,1374.73 2332.57,1374.2 2334.81,1373.65 2337.06,1373.1 2339.3,1372.55 2341.54,1371.98 2343.78,1371.42 2346.03,1370.84 2348.27,1370.27 2350.51,1369.68 2352.76,1369.09 "/>
<path clip-path="url(#clip050)" d="M186.863 196.789 L500.018 196.789 L500.018 93.1086 L186.863 93.1086  Z" fill="#ffffff" fill-rule="evenodd" fill-opacity="1"/>
<polyline clip-path="url(#clip050)" style="stroke:#000000; stroke-linecap:round; stroke-linejoin:round; stroke-width:4; stroke-opacity:1; fill:none" points="186.863,196.789 500.018,196.789 500.018,93.1086 186.863,93.1086 186.863,196.789 "/>
<polyline clip-path="url(#clip050)" style="stroke:#009af9; stroke-linecap:round; stroke-linejoin:round; stroke-width:8; stroke-opacity:1; fill:none" points="211.758,144.949 361.13,144.949 "/>
<path clip-path="url(#clip050)" d="M386.026 151.997 L386.026 136.303 L390.285 136.303 L390.285 151.835 Q390.285 155.516 391.72 157.368 Q393.155 159.196 396.026 159.196 Q399.475 159.196 401.465 156.997 Q403.479 154.798 403.479 151.002 L403.479 136.303 L407.739 136.303 L407.739 162.229 L403.479 162.229 L403.479 158.247 Q401.928 160.608 399.868 161.766 Q397.831 162.9 395.123 162.9 Q390.655 162.9 388.34 160.122 Q386.026 157.344 386.026 151.997 M396.743 135.678 L396.743 135.678 Z" fill="#000000" fill-rule="nonzero" fill-opacity="1" /><path clip-path="url(#clip050)" d="M416.118 126.21 L425.933 126.21 L425.933 129.52 L420.377 129.52 L420.377 165.168 L425.933 165.168 L425.933 168.479 L416.118 168.479 L416.118 126.21 Z" fill="#000000" fill-rule="nonzero" fill-opacity="1" /><path clip-path="url(#clip050)" d="M436.419 158.293 L444.058 158.293 L444.058 131.928 L435.748 133.595 L435.748 129.335 L444.011 127.669 L448.687 127.669 L448.687 158.293 L456.326 158.293 L456.326 162.229 L436.419 162.229 L436.419 158.293 Z" fill="#000000" fill-rule="nonzero" fill-opacity="1" /><path clip-path="url(#clip050)" d="M475.122 126.21 L475.122 168.479 L465.308 168.479 L465.308 165.168 L470.84 165.168 L470.84 129.52 L465.308 129.52 L465.308 126.21 L475.122 126.21 Z" fill="#000000" fill-rule="nonzero" fill-opacity="1" /></svg>
