<?xml version="1.0" encoding="utf-8"?>
<svg xmlns="http://www.w3.org/2000/svg" xmlns:xlink="http://www.w3.org/1999/xlink" width="600" height="400" viewBox="0 0 2400 1600">
<defs>
  <clipPath id="clip040">
    <rect x="0" y="0" width="2400" height="1600"/>
  </clipPath>
</defs>
<path clip-path="url(#clip040)" d="M0 1600 L2400 1600 L2400 0 L0 0  Z" fill="#ffffff" fill-rule="evenodd" fill-opacity="1"/>
<defs>
  <clipPath id="clip041">
    <rect x="156" y="47" width="2197" height="1377"/>
  </clipPath>
</defs>
<path clip-path="url(#clip040)" d="M156.598 1423.18 L2352.76 1423.18 L2352.76 47.2441 L156.598 47.2441  Z" fill="#ffffff" fill-rule="evenodd" fill-opacity="1"/>
<polyline clip-path="url(#clip041)" style="stroke:#000000; stroke-linecap:round; stroke-linejoin:round; stroke-width:2; stroke-opacity:0.1; fill:none" points="156.598,1423.18 156.598,47.2441 "/>
<polyline clip-path="url(#clip041)" style="stroke:#000000; stroke-linecap:round; stroke-linejoin:round; stroke-width:2; stroke-opacity:0.1; fill:none" points="595.83,1423.18 595.83,47.2441 "/>
<polyline clip-path="url(#clip041)" style="stroke:#000000; stroke-linecap:round; stroke-linejoin:round; stroke-width:2; stroke-opacity:0.1; fill:none" points="1035.06,1423.18 1035.06,47.2441 "/>
<polyline clip-path="url(#clip041)" style="stroke:#000000; stroke-linecap:round; stroke-linejoin:round; stroke-width:2; stroke-opacity:0.1; fill:none" points="1474.29,1423.18 1474.29,47.2441 "/>
<polyline clip-path="url(#clip041)" style="stroke:#000000; stroke-linecap:round; stroke-linejoin:round; stroke-width:2; stroke-opacity:0.1; fill:none" points="1913.52,1423.18 1913.52,47.2441 "/>
<polyline clip-path="url(#clip041)" style="stroke:#000000; stroke-linecap:round; stroke-linejoin:round; stroke-width:2; stroke-opacity:0.1; fill:none" points="2352.76,1423.18 2352.76,47.2441 "/>
<polyline clip-path="url(#clip041)" style="stroke:#000000; stroke-linecap:round; stroke-linejoin:round; stroke-width:2; stroke-opacity:0.1; fill:none" points="156.598,1191.32 2352.76,1191.32 "/>
<polyline clip-path="url(#clip041)" style="stroke:#000000; stroke-linecap:round; stroke-linejoin:round; stroke-width:2; stroke-opacity:0.1; fill:none" points="156.598,947.876 2352.76,947.876 "/>
<polyline clip-path="url(#clip041)" style="stroke:#000000; stroke-linecap:round; stroke-linejoin:round; stroke-width:2; stroke-opacity:0.1; fill:none" points="156.598,704.429 2352.76,704.429 "/>
<polyline clip-path="url(#clip041)" style="stroke:#000000; stroke-linecap:round; stroke-linejoin:round; stroke-width:2; stroke-opacity:0.1; fill:none" points="156.598,460.981 2352.76,460.981 "/>
<polyline clip-path="url(#clip041)" style="stroke:#000000; stroke-linecap:round; stroke-linejoin:round; stroke-width:2; stroke-opacity:0.1; fill:none" points="156.598,217.534 2352.76,217.534 "/>
<polyline clip-path="url(#clip040)" style="stroke:#000000; stroke-linecap:round; stroke-linejoin:round; stroke-width:4; stroke-opacity:1; fill:none" points="156.598,1423.18 2352.76,1423.18 "/>
<polyline clip-path="url(#clip040)" style="stroke:#000000; stroke-linecap:round; stroke-linejoin:round; stroke-width:4; stroke-opacity:1; fill:none" points="156.598,1423.18 156.598,1404.28 "/>
<polyline clip-path="url(#clip040)" style="stroke:#000000; stroke-linecap:round; stroke-linejoin:round; stroke-width:4; stroke-opacity:1; fill:none" points="595.83,1423.18 595.83,1404.28 "/>
<polyline clip-path="url(#clip040)" style="stroke:#000000; stroke-linecap:round; stroke-linejoin:round; stroke-width:4; stroke-opacity:1; fill:none" points="1035.06,1423.18 1035.06,1404.28 "/>
<polyline clip-path="url(#clip040)" style="stroke:#000000; stroke-linecap:round; stroke-linejoin:round; stroke-width:4; stroke-opacity:1; fill:none" points="1474.29,1423.18 1474.29,1404.28 "/>
<polyline clip-path="url(#clip040)" style="stroke:#000000; stroke-linecap:round; stroke-linejoin:round; stroke-width:4; stroke-opacity:1; fill:none" points="1913.52,1423.18 1913.52,1404.28 "/>
<polyline clip-path="url(#clip040)" style="stroke:#000000; stroke-linecap:round; stroke-linejoin:round; stroke-width:4; stroke-opacity:1; fill:none" points="2352.76,1423.18 2352.76,1404.28 "/>
<path clip-path="url(#clip040)" d="M156.598 1454.1 Q152.987 1454.1 151.158 1457.66 Q149.353 1461.2 149.353 1468.33 Q149.353 1475.44 151.158 1479.01 Q152.987 1482.55 156.598 1482.55 Q160.232 1482.55 162.038 1479.01 Q163.867 1475.44 163.867 1468.33 Q163.867 1461.2 162.038 1457.66 Q160.232 1454.1 156.598 1454.1 M156.598 1450.39 Q162.408 1450.39 165.464 1455 Q168.543 1459.58 168.543 1468.33 Q168.543 1477.06 165.464 1481.67 Q162.408 1486.25 156.598 1486.25 Q150.788 1486.25 147.709 1481.67 Q144.654 1477.06 144.654 1468.33 Q144.654 1459.58 147.709 1455 Q150.788 1450.39 156.598 1450.39 Z" fill="#000000" fill-rule="nonzero" fill-opacity="1" /><path clip-path="url(#clip040)" d="M590.483 1481.64 L606.802 1481.64 L606.802 1485.58 L584.858 1485.58 L584.858 1481.64 Q587.52 1478.89 592.103 1474.26 Q596.709 1469.61 597.89 1468.27 Q600.135 1465.74 601.015 1464.01 Q601.918 1462.25 601.918 1460.56 Q601.918 1457.8 599.973 1456.07 Q598.052 1454.33 594.95 1454.33 Q592.751 1454.33 590.297 1455.09 Q587.867 1455.86 585.089 1457.41 L585.089 1452.69 Q587.913 1451.55 590.367 1450.97 Q592.821 1450.39 594.858 1450.39 Q600.228 1450.39 603.422 1453.08 Q606.617 1455.77 606.617 1460.26 Q606.617 1462.39 605.807 1464.31 Q605.02 1466.2 602.913 1468.8 Q602.334 1469.47 599.233 1472.69 Q596.131 1475.88 590.483 1481.64 Z" fill="#000000" fill-rule="nonzero" fill-opacity="1" /><path clip-path="url(#clip040)" d="M1038.07 1455.09 L1026.27 1473.54 L1038.07 1473.54 L1038.07 1455.09 M1036.84 1451.02 L1042.72 1451.02 L1042.72 1473.54 L1047.65 1473.54 L1047.65 1477.43 L1042.72 1477.43 L1042.72 1485.58 L1038.07 1485.58 L1038.07 1477.43 L1022.47 1477.43 L1022.47 1472.92 L1036.84 1451.02 Z" fill="#000000" fill-rule="nonzero" fill-opacity="1" /><path clip-path="url(#clip040)" d="M1474.7 1466.44 Q1471.55 1466.44 1469.7 1468.59 Q1467.87 1470.74 1467.87 1474.49 Q1467.87 1478.22 1469.7 1480.39 Q1471.55 1482.55 1474.7 1482.55 Q1477.85 1482.55 1479.67 1480.39 Q1481.53 1478.22 1481.53 1474.49 Q1481.53 1470.74 1479.67 1468.59 Q1477.85 1466.44 1474.7 1466.44 M1483.98 1451.78 L1483.98 1456.04 Q1482.22 1455.21 1480.42 1454.77 Q1478.63 1454.33 1476.87 1454.33 Q1472.24 1454.33 1469.79 1457.45 Q1467.36 1460.58 1467.01 1466.9 Q1468.38 1464.89 1470.44 1463.82 Q1472.5 1462.73 1474.98 1462.73 Q1480.18 1462.73 1483.19 1465.9 Q1486.23 1469.05 1486.23 1474.49 Q1486.23 1479.82 1483.08 1483.03 Q1479.93 1486.25 1474.7 1486.25 Q1468.7 1486.25 1465.53 1481.67 Q1462.36 1477.06 1462.36 1468.33 Q1462.36 1460.14 1466.25 1455.28 Q1470.14 1450.39 1476.69 1450.39 Q1478.45 1450.39 1480.23 1450.74 Q1482.04 1451.09 1483.98 1451.78 Z" fill="#000000" fill-rule="nonzero" fill-opacity="1" /><path clip-path="url(#clip040)" d="M1913.52 1469.17 Q1910.19 1469.17 1908.27 1470.95 Q1906.37 1472.73 1906.37 1475.86 Q1906.37 1478.98 1908.27 1480.77 Q1910.19 1482.55 1913.52 1482.55 Q1916.86 1482.55 1918.78 1480.77 Q1920.7 1478.96 1920.7 1475.86 Q1920.7 1472.73 1918.78 1470.95 Q1916.88 1469.17 1913.52 1469.17 M1908.85 1467.18 Q1905.84 1466.44 1904.15 1464.38 Q1902.48 1462.32 1902.48 1459.35 Q1902.48 1455.21 1905.42 1452.8 Q1908.39 1450.39 1913.52 1450.39 Q1918.69 1450.39 1921.63 1452.8 Q1924.57 1455.21 1924.57 1459.35 Q1924.57 1462.32 1922.88 1464.38 Q1921.21 1466.44 1918.22 1467.18 Q1921.6 1467.96 1923.48 1470.26 Q1925.38 1472.55 1925.38 1475.86 Q1925.38 1480.88 1922.3 1483.57 Q1919.24 1486.25 1913.52 1486.25 Q1907.81 1486.25 1904.73 1483.57 Q1901.67 1480.88 1901.67 1475.86 Q1901.67 1472.55 1903.57 1470.26 Q1905.47 1467.96 1908.85 1467.18 M1907.14 1459.79 Q1907.14 1462.48 1908.8 1463.98 Q1910.49 1465.49 1913.52 1465.49 Q1916.53 1465.49 1918.22 1463.98 Q1919.94 1462.48 1919.94 1459.79 Q1919.94 1457.11 1918.22 1455.6 Q1916.53 1454.1 1913.52 1454.1 Q1910.49 1454.1 1908.8 1455.6 Q1907.14 1457.11 1907.14 1459.79 Z" fill="#000000" fill-rule="nonzero" fill-opacity="1" /><path clip-path="url(#clip040)" d="M2327.44 1481.64 L2335.08 1481.64 L2335.08 1455.28 L2326.77 1456.95 L2326.77 1452.69 L2335.04 1451.02 L2339.71 1451.02 L2339.71 1481.64 L2347.35 1481.64 L2347.35 1485.58 L2327.44 1485.58 L2327.44 1481.64 Z" fill="#000000" fill-rule="nonzero" fill-opacity="1" /><path clip-path="url(#clip040)" d="M2366.8 1454.1 Q2363.18 1454.1 2361.36 1457.66 Q2359.55 1461.2 2359.55 1468.33 Q2359.55 1475.44 2361.36 1479.01 Q2363.18 1482.55 2366.8 1482.55 Q2370.43 1482.55 2372.23 1479.01 Q2374.06 1475.44 2374.06 1468.33 Q2374.06 1461.2 2372.23 1457.66 Q2370.43 1454.1 2366.8 1454.1 M2366.8 1450.39 Q2372.61 1450.39 2375.66 1455 Q2378.74 1459.58 2378.74 1468.33 Q2378.74 1477.06 2375.66 1481.67 Q2372.61 1486.25 2366.8 1486.25 Q2360.99 1486.25 2357.91 1481.67 Q2354.85 1477.06 2354.85 1468.33 Q2354.85 1459.58 2357.91 1455 Q2360.99 1450.39 2366.8 1450.39 Z" fill="#000000" fill-rule="nonzero" fill-opacity="1" /><path clip-path="url(#clip040)" d="M1253.74 1522.27 L1253.74 1532.4 L1265.8 1532.4 L1265.8 1536.95 L1253.74 1536.95 L1253.74 1556.3 Q1253.74 1560.66 1254.92 1561.9 Q1256.13 1563.14 1259.79 1563.14 L1265.8 1563.14 L1265.8 1568.04 L1259.79 1568.04 Q1253.01 1568.04 1250.43 1565.53 Q1247.85 1562.98 1247.85 1556.3 L1247.85 1536.95 L1243.55 1536.95 L1243.55 1532.4 L1247.85 1532.4 L1247.85 1522.27 L1253.74 1522.27 Z" fill="#000000" fill-rule="nonzero" fill-opacity="1" /><polyline clip-path="url(#clip040)" style="stroke:#000000; stroke-linecap:round; stroke-linejoin:round; stroke-width:4; stroke-opacity:1; fill:none" points="156.598,1423.18 156.598,47.2441 "/>
<polyline clip-path="url(#clip040)" style="stroke:#000000; stroke-linecap:round; stroke-linejoin:round; stroke-width:4; stroke-opacity:1; fill:none" points="156.598,1191.32 175.496,1191.32 "/>
<polyline clip-path="url(#clip040)" style="stroke:#000000; stroke-linecap:round; stroke-linejoin:round; stroke-width:4; stroke-opacity:1; fill:none" points="156.598,947.876 175.496,947.876 "/>
<polyline clip-path="url(#clip040)" style="stroke:#000000; stroke-linecap:round; stroke-linejoin:round; stroke-width:4; stroke-opacity:1; fill:none" points="156.598,704.429 175.496,704.429 "/>
<polyline clip-path="url(#clip040)" style="stroke:#000000; stroke-linecap:round; stroke-linejoin:round; stroke-width:4; stroke-opacity:1; fill:none" points="156.598,460.981 175.496,460.981 "/>
<polyline clip-path="url(#clip040)" style="stroke:#000000; stroke-linecap:round; stroke-linejoin:round; stroke-width:4; stroke-opacity:1; fill:none" points="156.598,217.534 175.496,217.534 "/>
<path clip-path="url(#clip040)" d="M64.6495 1177.12 Q61.0384 1177.12 59.2097 1180.69 Q57.4041 1184.23 57.4041 1191.36 Q57.4041 1198.46 59.2097 1202.03 Q61.0384 1205.57 64.6495 1205.57 Q68.2837 1205.57 70.0892 1202.03 Q71.9179 1198.46 71.9179 1191.36 Q71.9179 1184.23 70.0892 1180.69 Q68.2837 1177.12 64.6495 1177.12 M64.6495 1173.42 Q70.4596 1173.42 73.5152 1178.02 Q76.5938 1182.61 76.5938 1191.36 Q76.5938 1200.08 73.5152 1204.69 Q70.4596 1209.27 64.6495 1209.27 Q58.8393 1209.27 55.7606 1204.69 Q52.7051 1200.08 52.7051 1191.36 Q52.7051 1182.61 55.7606 1178.02 Q58.8393 1173.42 64.6495 1173.42 Z" fill="#000000" fill-rule="nonzero" fill-opacity="1" /><path clip-path="url(#clip040)" d="M84.8114 1202.72 L89.6956 1202.72 L89.6956 1208.6 L84.8114 1208.6 L84.8114 1202.72 Z" fill="#000000" fill-rule="nonzero" fill-opacity="1" /><path clip-path="url(#clip040)" d="M100.691 1204.67 L108.33 1204.67 L108.33 1178.3 L100.02 1179.97 L100.02 1175.71 L108.283 1174.04 L112.959 1174.04 L112.959 1204.67 L120.598 1204.67 L120.598 1208.6 L100.691 1208.6 L100.691 1204.67 Z" fill="#000000" fill-rule="nonzero" fill-opacity="1" /><path clip-path="url(#clip040)" d="M65.0198 933.675 Q61.4087 933.675 59.58 937.24 Q57.7745 940.781 57.7745 947.911 Q57.7745 955.017 59.58 958.582 Q61.4087 962.124 65.0198 962.124 Q68.6541 962.124 70.4596 958.582 Q72.2883 955.017 72.2883 947.911 Q72.2883 940.781 70.4596 937.24 Q68.6541 933.675 65.0198 933.675 M65.0198 929.971 Q70.83 929.971 73.8855 934.578 Q76.9642 939.161 76.9642 947.911 Q76.9642 956.638 73.8855 961.244 Q70.83 965.827 65.0198 965.827 Q59.2097 965.827 56.131 961.244 Q53.0754 956.638 53.0754 947.911 Q53.0754 939.161 56.131 934.578 Q59.2097 929.971 65.0198 929.971 Z" fill="#000000" fill-rule="nonzero" fill-opacity="1" /><path clip-path="url(#clip040)" d="M85.1818 959.276 L90.066 959.276 L90.066 965.156 L85.1818 965.156 L85.1818 959.276 Z" fill="#000000" fill-rule="nonzero" fill-opacity="1" /><path clip-path="url(#clip040)" d="M104.279 961.221 L120.598 961.221 L120.598 965.156 L98.6539 965.156 L98.6539 961.221 Q101.316 958.466 105.899 953.837 Q110.506 949.184 111.686 947.841 Q113.932 945.318 114.811 943.582 Q115.714 941.823 115.714 940.133 Q115.714 937.378 113.77 935.642 Q111.848 933.906 108.746 933.906 Q106.547 933.906 104.094 934.67 Q101.663 935.434 98.8854 936.985 L98.8854 932.263 Q101.709 931.128 104.163 930.55 Q106.617 929.971 108.654 929.971 Q114.024 929.971 117.219 932.656 Q120.413 935.341 120.413 939.832 Q120.413 941.962 119.603 943.883 Q118.816 945.781 116.709 948.374 Q116.131 949.045 113.029 952.263 Q109.927 955.457 104.279 961.221 Z" fill="#000000" fill-rule="nonzero" fill-opacity="1" /><path clip-path="url(#clip040)" d="M64.0708 690.227 Q60.4597 690.227 58.631 693.792 Q56.8254 697.334 56.8254 704.463 Q56.8254 711.57 58.631 715.135 Q60.4597 718.676 64.0708 718.676 Q67.705 718.676 69.5105 715.135 Q71.3392 711.57 71.3392 704.463 Q71.3392 697.334 69.5105 693.792 Q67.705 690.227 64.0708 690.227 M64.0708 686.524 Q69.8809 686.524 72.9365 691.13 Q76.0151 695.714 76.0151 704.463 Q76.0151 713.19 72.9365 717.797 Q69.8809 722.38 64.0708 722.38 Q58.2606 722.38 55.1819 717.797 Q52.1264 713.19 52.1264 704.463 Q52.1264 695.714 55.1819 691.13 Q58.2606 686.524 64.0708 686.524 Z" fill="#000000" fill-rule="nonzero" fill-opacity="1" /><path clip-path="url(#clip040)" d="M84.2327 715.829 L89.1169 715.829 L89.1169 721.709 L84.2327 721.709 L84.2327 715.829 Z" fill="#000000" fill-rule="nonzero" fill-opacity="1" /><path clip-path="url(#clip040)" d="M113.469 703.075 Q116.825 703.792 118.7 706.061 Q120.598 708.329 120.598 711.662 Q120.598 716.778 117.08 719.579 Q113.561 722.38 107.08 722.38 Q104.904 722.38 102.589 721.94 Q100.297 721.524 97.8437 720.667 L97.8437 716.153 Q99.7882 717.287 102.103 717.866 Q104.418 718.445 106.941 718.445 Q111.339 718.445 113.631 716.709 Q115.945 714.973 115.945 711.662 Q115.945 708.607 113.793 706.894 Q111.663 705.158 107.844 705.158 L103.816 705.158 L103.816 701.315 L108.029 701.315 Q111.478 701.315 113.307 699.95 Q115.135 698.561 115.135 695.968 Q115.135 693.306 113.237 691.894 Q111.362 690.459 107.844 690.459 Q105.922 690.459 103.723 690.876 Q101.524 691.292 98.8854 692.172 L98.8854 688.005 Q101.547 687.264 103.862 686.894 Q106.2 686.524 108.26 686.524 Q113.584 686.524 116.686 688.954 Q119.788 691.362 119.788 695.482 Q119.788 698.352 118.145 700.343 Q116.501 702.311 113.469 703.075 Z" fill="#000000" fill-rule="nonzero" fill-opacity="1" /><path clip-path="url(#clip040)" d="M62.9365 446.78 Q59.3254 446.78 57.4967 450.345 Q55.6912 453.887 55.6912 461.016 Q55.6912 468.123 57.4967 471.687 Q59.3254 475.229 62.9365 475.229 Q66.5707 475.229 68.3763 471.687 Q70.205 468.123 70.205 461.016 Q70.205 453.887 68.3763 450.345 Q66.5707 446.78 62.9365 446.78 M62.9365 443.076 Q68.7467 443.076 71.8022 447.683 Q74.8809 452.266 74.8809 461.016 Q74.8809 469.743 71.8022 474.349 Q68.7467 478.933 62.9365 478.933 Q57.1264 478.933 54.0477 474.349 Q50.9921 469.743 50.9921 461.016 Q50.9921 452.266 54.0477 447.683 Q57.1264 443.076 62.9365 443.076 Z" fill="#000000" fill-rule="nonzero" fill-opacity="1" /><path clip-path="url(#clip040)" d="M83.0984 472.382 L87.9827 472.382 L87.9827 478.261 L83.0984 478.261 L83.0984 472.382 Z" fill="#000000" fill-rule="nonzero" fill-opacity="1" /><path clip-path="url(#clip040)" d="M111.015 447.775 L99.2095 466.224 L111.015 466.224 L111.015 447.775 M109.788 443.701 L115.668 443.701 L115.668 466.224 L120.598 466.224 L120.598 470.113 L115.668 470.113 L115.668 478.261 L111.015 478.261 L111.015 470.113 L95.4132 470.113 L95.4132 465.599 L109.788 443.701 Z" fill="#000000" fill-rule="nonzero" fill-opacity="1" /><path clip-path="url(#clip040)" d="M64.418 203.333 Q60.8069 203.333 58.9782 206.898 Q57.1726 210.439 57.1726 217.569 Q57.1726 224.675 58.9782 228.24 Q60.8069 231.782 64.418 231.782 Q68.0522 231.782 69.8578 228.24 Q71.6865 224.675 71.6865 217.569 Q71.6865 210.439 69.8578 206.898 Q68.0522 203.333 64.418 203.333 M64.418 199.629 Q70.2281 199.629 73.2837 204.236 Q76.3624 208.819 76.3624 217.569 Q76.3624 226.296 73.2837 230.902 Q70.2281 235.485 64.418 235.485 Q58.6078 235.485 55.5291 230.902 Q52.4736 226.296 52.4736 217.569 Q52.4736 208.819 55.5291 204.236 Q58.6078 199.629 64.418 199.629 Z" fill="#000000" fill-rule="nonzero" fill-opacity="1" /><path clip-path="url(#clip040)" d="M84.5799 228.934 L89.4641 228.934 L89.4641 234.814 L84.5799 234.814 L84.5799 228.934 Z" fill="#000000" fill-rule="nonzero" fill-opacity="1" /><path clip-path="url(#clip040)" d="M99.6956 200.254 L118.052 200.254 L118.052 204.189 L103.978 204.189 L103.978 212.661 Q104.996 212.314 106.015 212.152 Q107.033 211.967 108.052 211.967 Q113.839 211.967 117.219 215.138 Q120.598 218.31 120.598 223.726 Q120.598 229.305 117.126 232.407 Q113.654 235.485 107.334 235.485 Q105.159 235.485 102.89 235.115 Q100.645 234.745 98.2372 234.004 L98.2372 229.305 Q100.321 230.439 102.543 230.995 Q104.765 231.55 107.242 231.55 Q111.246 231.55 113.584 229.444 Q115.922 227.337 115.922 223.726 Q115.922 220.115 113.584 218.009 Q111.246 215.902 107.242 215.902 Q105.367 215.902 103.492 216.319 Q101.64 216.735 99.6956 217.615 L99.6956 200.254 Z" fill="#000000" fill-rule="nonzero" fill-opacity="1" /><polyline clip-path="url(#clip041)" style="stroke:#009af9; stroke-linecap:round; stroke-linejoin:round; stroke-width:8; stroke-opacity:1; fill:none" points="156.598,947.876 156.598,947.876 156.822,962.712 157.029,971.564 157.263,964.173 157.525,968.686 157.82,962.884 158.152,986.38 158.526,1023.6 158.946,1012.32 159.419,1021.1 159.951,1055.56 160.549,1084.15 161.222,1094.17 161.98,1100.13 162.832,1094.78 163.79,1109.58 164.868,1104.27 166.081,1115.49 167.446,1131.43 168.981,1140.08 170.708,1098.37 172.652,1103.78 174.837,1130.14 177.297,1136.09 180.063,1159.86 183.176,1182.03 186.677,1185.06 190.616,1162.24 195.048,1174.98 200.034,1225.29 205.642,1231.32 211.952,1208.74 219.051,1230.15 227.036,1104.76 236.021,1128.48 246.128,1165.1 257.498,1046.03 270.29,1218.98 284.681,1232.59 300.87,1186.88 319.084,1139.62 339.574,1255.5 356.944,1321.27 376.486,1243.54 398.47,1183.62 420.012,1138.01 444.246,1092.59 469.12,927.09 497.104,911.278 517.64,846.499 540.745,751.977 560.269,957.937 575.213,896.172 592.025,633.228 610.367,549.767 625.826,696.515 639.441,930.949 654.759,918.458 671.991,792.406 690.761,738.386 707.617,776.282 723.676,560.773 739.724,608.08 752.757,599.978 767.404,798.31 780.698,540.92 795.654,713.217 806.445,846.813 818.585,934.48 831.076,924.65 845.127,996.99 858.144,1057.72 872.788,916.476 889.262,852.625 904.973,831.809 920.013,919.359 934.711,812.38 951.245,575.179 967.453,408.751 981.855,548.088 994.289,587.524 1007.66,756.419 1019.36,1062.1 1032.52,1022.59 1047.33,946.148 1063.65,676.085 1069.14,684.445 1084.87,1131.56 1102.56,1051.14 1122.46,1019.12 1142.8,882.708 1165.68,851.658 1183.88,883.464 1203.52,947.087 1221.84,1069.85 1240.58,1046.24 1261.68,957.698 1285.35,1049.89 1302.44,1180.44 1321.66,1173.46 1343.28,1007.14 1367.6,1089.08 1383.62,1132.76 1401.64,1084.6 1421.92,1039.95 1443.83,916.438 1468.49,978.262 1485.55,892.406 1504.74,389.389 1522.36,434.507 1536.18,278.155 1549.78,638.924 1560.98,747.819 1573.58,795.335 1587.66,898.933 1600.89,1036.77 1615.18,976.83 1631.25,970.282 1645.93,957.623 1662.45,877.631 1681.04,1032.55 1694.76,1057.67 1710.19,1083.37 1726.68,1058.6 1745.23,909.108 1766.1,1062.4 1780.95,1247.32 1797.67,1260.57 1816.47,1159.48 1837.63,1176.09 1855.79,986.277 1876.22,966.002 1893.08,805.251 1912.05,255.714 1922.12,86.1857 1932.68,948.235 1944.46,952.193 1957.72,780.613 1958.38,795.73 1965.76,1118.7 1974.06,1213.48 1983.4,1198.32 1993.91,1124.71 2005.73,1076.11 2018.74,1116.97 2031.26,1194.61 2045.35,1126.79 2061.2,1158.31 2074.53,1184.39 2089.51,1099.08 2106.37,1023.81 2124.28,1095.17 2138.27,1122.83 2154.01,1036.71 2171.71,1155.87 2185.81,1138.01 2201.67,1171.63 2216.78,1169.07 2233.78,1209.26 2252.06,1320.75 2272.62,1349.51 2294.61,1369 2319.35,1384.24 2347.18,1380.95 2352.76,1373.73 "/>
<path clip-path="url(#clip040)" d="M229.803 196.789 L538.516 196.789 L538.516 93.1086 L229.803 93.1086  Z" fill="#ffffff" fill-rule="evenodd" fill-opacity="1"/>
<polyline clip-path="url(#clip040)" style="stroke:#000000; stroke-linecap:round; stroke-linejoin:round; stroke-width:4; stroke-opacity:1; fill:none" points="229.803,196.789 538.516,196.789 538.516,93.1086 229.803,93.1086 229.803,196.789 "/>
<polyline clip-path="url(#clip040)" style="stroke:#009af9; stroke-linecap:round; stroke-linejoin:round; stroke-width:8; stroke-opacity:1; fill:none" points="254.205,144.949 400.616,144.949 "/>
<path clip-path="url(#clip040)" d="M425.018 151.997 L425.018 136.303 L429.277 136.303 L429.277 151.835 Q429.277 155.516 430.712 157.368 Q432.147 159.196 435.017 159.196 Q438.467 159.196 440.457 156.997 Q442.471 154.798 442.471 151.002 L442.471 136.303 L446.73 136.303 L446.73 162.229 L442.471 162.229 L442.471 158.247 Q440.92 160.608 438.86 161.766 Q436.823 162.9 434.115 162.9 Q429.647 162.9 427.332 160.122 Q425.018 157.344 425.018 151.997 M435.735 135.678 L435.735 135.678 Z" fill="#000000" fill-rule="nonzero" fill-opacity="1" /><path clip-path="url(#clip040)" d="M455.11 126.21 L464.925 126.21 L464.925 129.52 L459.369 129.52 L459.369 165.168 L464.925 165.168 L464.925 168.479 L455.11 168.479 L455.11 126.21 Z" fill="#000000" fill-rule="nonzero" fill-opacity="1" /><path clip-path="url(#clip040)" d="M475.411 158.293 L483.05 158.293 L483.05 131.928 L474.739 133.595 L474.739 129.335 L483.003 127.669 L487.679 127.669 L487.679 158.293 L495.318 158.293 L495.318 162.229 L475.411 162.229 L475.411 158.293 Z" fill="#000000" fill-rule="nonzero" fill-opacity="1" /><path clip-path="url(#clip040)" d="M514.114 126.21 L514.114 168.479 L504.299 168.479 L504.299 165.168 L509.832 165.168 L509.832 129.52 L504.299 129.52 L504.299 126.21 L514.114 126.21 Z" fill="#000000" fill-rule="nonzero" fill-opacity="1" /></svg>
