<?xml version="1.0" encoding="utf-8"?>
<svg xmlns="http://www.w3.org/2000/svg" xmlns:xlink="http://www.w3.org/1999/xlink" width="600" height="400" viewBox="0 0 2400 1600">
<defs>
  <clipPath id="clip980">
    <rect x="0" y="0" width="2400" height="1600"/>
  </clipPath>
</defs>
<path clip-path="url(#clip980)" d="M0 1600 L2400 1600 L2400 0 L0 0  Z" fill="#ffffff" fill-rule="evenodd" fill-opacity="1"/>
<defs>
  <clipPath id="clip981">
    <rect x="155" y="47" width="2198" height="1377"/>
  </clipPath>
</defs>
<path clip-path="url(#clip980)" d="M155.765 1423.18 L2352.76 1423.18 L2352.76 47.2441 L155.765 47.2441  Z" fill="#ffffff" fill-rule="evenodd" fill-opacity="1"/>
<polyline clip-path="url(#clip981)" style="stroke:#000000; stroke-linecap:round; stroke-linejoin:round; stroke-width:2; stroke-opacity:0.1; fill:none" points="155.765,1423.18 155.765,47.2441 "/>
<polyline clip-path="url(#clip981)" style="stroke:#000000; stroke-linecap:round; stroke-linejoin:round; stroke-width:2; stroke-opacity:0.1; fill:none" points="595.163,1423.18 595.163,47.2441 "/>
<polyline clip-path="url(#clip981)" style="stroke:#000000; stroke-linecap:round; stroke-linejoin:round; stroke-width:2; stroke-opacity:0.1; fill:none" points="1034.56,1423.18 1034.56,47.2441 "/>
<polyline clip-path="url(#clip981)" style="stroke:#000000; stroke-linecap:round; stroke-linejoin:round; stroke-width:2; stroke-opacity:0.1; fill:none" points="1473.96,1423.18 1473.96,47.2441 "/>
<polyline clip-path="url(#clip981)" style="stroke:#000000; stroke-linecap:round; stroke-linejoin:round; stroke-width:2; stroke-opacity:0.1; fill:none" points="1913.36,1423.18 1913.36,47.2441 "/>
<polyline clip-path="url(#clip981)" style="stroke:#000000; stroke-linecap:round; stroke-linejoin:round; stroke-width:2; stroke-opacity:0.1; fill:none" points="2352.76,1423.18 2352.76,47.2441 "/>
<polyline clip-path="url(#clip981)" style="stroke:#000000; stroke-linecap:round; stroke-linejoin:round; stroke-width:2; stroke-opacity:0.1; fill:none" points="155.765,1273.87 2352.76,1273.87 "/>
<polyline clip-path="url(#clip981)" style="stroke:#000000; stroke-linecap:round; stroke-linejoin:round; stroke-width:2; stroke-opacity:0.1; fill:none" points="155.765,1089.91 2352.76,1089.91 "/>
<polyline clip-path="url(#clip981)" style="stroke:#000000; stroke-linecap:round; stroke-linejoin:round; stroke-width:2; stroke-opacity:0.1; fill:none" points="155.765,905.961 2352.76,905.961 "/>
<polyline clip-path="url(#clip981)" style="stroke:#000000; stroke-linecap:round; stroke-linejoin:round; stroke-width:2; stroke-opacity:0.1; fill:none" points="155.765,722.008 2352.76,722.008 "/>
<polyline clip-path="url(#clip981)" style="stroke:#000000; stroke-linecap:round; stroke-linejoin:round; stroke-width:2; stroke-opacity:0.1; fill:none" points="155.765,538.055 2352.76,538.055 "/>
<polyline clip-path="url(#clip981)" style="stroke:#000000; stroke-linecap:round; stroke-linejoin:round; stroke-width:2; stroke-opacity:0.1; fill:none" points="155.765,354.103 2352.76,354.103 "/>
<polyline clip-path="url(#clip981)" style="stroke:#000000; stroke-linecap:round; stroke-linejoin:round; stroke-width:2; stroke-opacity:0.1; fill:none" points="155.765,170.15 2352.76,170.15 "/>
<polyline clip-path="url(#clip980)" style="stroke:#000000; stroke-linecap:round; stroke-linejoin:round; stroke-width:4; stroke-opacity:1; fill:none" points="155.765,1423.18 2352.76,1423.18 "/>
<polyline clip-path="url(#clip980)" style="stroke:#000000; stroke-linecap:round; stroke-linejoin:round; stroke-width:4; stroke-opacity:1; fill:none" points="155.765,1423.18 155.765,1404.28 "/>
<polyline clip-path="url(#clip980)" style="stroke:#000000; stroke-linecap:round; stroke-linejoin:round; stroke-width:4; stroke-opacity:1; fill:none" points="595.163,1423.18 595.163,1404.28 "/>
<polyline clip-path="url(#clip980)" style="stroke:#000000; stroke-linecap:round; stroke-linejoin:round; stroke-width:4; stroke-opacity:1; fill:none" points="1034.56,1423.18 1034.56,1404.28 "/>
<polyline clip-path="url(#clip980)" style="stroke:#000000; stroke-linecap:round; stroke-linejoin:round; stroke-width:4; stroke-opacity:1; fill:none" points="1473.96,1423.18 1473.96,1404.28 "/>
<polyline clip-path="url(#clip980)" style="stroke:#000000; stroke-linecap:round; stroke-linejoin:round; stroke-width:4; stroke-opacity:1; fill:none" points="1913.36,1423.18 1913.36,1404.28 "/>
<polyline clip-path="url(#clip980)" style="stroke:#000000; stroke-linecap:round; stroke-linejoin:round; stroke-width:4; stroke-opacity:1; fill:none" points="2352.76,1423.18 2352.76,1404.28 "/>
<path clip-path="url(#clip980)" d="M155.765 1454.1 Q152.154 1454.1 150.325 1457.66 Q148.52 1461.2 148.52 1468.33 Q148.52 1475.44 150.325 1479.01 Q152.154 1482.55 155.765 1482.55 Q159.399 1482.55 161.205 1479.01 Q163.033 1475.44 163.033 1468.33 Q163.033 1461.2 161.205 1457.66 Q159.399 1454.1 155.765 1454.1 M155.765 1450.39 Q161.575 1450.39 164.631 1455 Q167.709 1459.58 167.709 1468.33 Q167.709 1477.06 164.631 1481.67 Q161.575 1486.25 155.765 1486.25 Q149.955 1486.25 146.876 1481.67 Q143.821 1477.06 143.821 1468.33 Q143.821 1459.58 146.876 1455 Q149.955 1450.39 155.765 1450.39 Z" fill="#000000" fill-rule="nonzero" fill-opacity="1" /><path clip-path="url(#clip980)" d="M589.816 1481.64 L606.135 1481.64 L606.135 1485.58 L584.191 1485.58 L584.191 1481.64 Q586.853 1478.89 591.436 1474.26 Q596.043 1469.61 597.223 1468.27 Q599.469 1465.74 600.348 1464.01 Q601.251 1462.25 601.251 1460.56 Q601.251 1457.8 599.307 1456.07 Q597.385 1454.33 594.283 1454.33 Q592.084 1454.33 589.631 1455.09 Q587.2 1455.86 584.422 1457.41 L584.422 1452.69 Q587.246 1451.55 589.7 1450.97 Q592.154 1450.39 594.191 1450.39 Q599.561 1450.39 602.756 1453.08 Q605.95 1455.77 605.95 1460.26 Q605.95 1462.39 605.14 1464.31 Q604.353 1466.2 602.246 1468.8 Q601.668 1469.47 598.566 1472.69 Q595.464 1475.88 589.816 1481.64 Z" fill="#000000" fill-rule="nonzero" fill-opacity="1" /><path clip-path="url(#clip980)" d="M1037.57 1455.09 L1025.77 1473.54 L1037.57 1473.54 L1037.57 1455.09 M1036.34 1451.02 L1042.22 1451.02 L1042.22 1473.54 L1047.15 1473.54 L1047.15 1477.43 L1042.22 1477.43 L1042.22 1485.58 L1037.57 1485.58 L1037.57 1477.43 L1021.97 1477.43 L1021.97 1472.92 L1036.34 1451.02 Z" fill="#000000" fill-rule="nonzero" fill-opacity="1" /><path clip-path="url(#clip980)" d="M1474.36 1466.44 Q1471.22 1466.44 1469.36 1468.59 Q1467.54 1470.74 1467.54 1474.49 Q1467.54 1478.22 1469.36 1480.39 Q1471.22 1482.55 1474.36 1482.55 Q1477.51 1482.55 1479.34 1480.39 Q1481.19 1478.22 1481.19 1474.49 Q1481.19 1470.74 1479.34 1468.59 Q1477.51 1466.44 1474.36 1466.44 M1483.65 1451.78 L1483.65 1456.04 Q1481.89 1455.21 1480.08 1454.77 Q1478.3 1454.33 1476.54 1454.33 Q1471.91 1454.33 1469.46 1457.45 Q1467.03 1460.58 1466.68 1466.9 Q1468.05 1464.89 1470.11 1463.82 Q1472.17 1462.73 1474.64 1462.73 Q1479.85 1462.73 1482.86 1465.9 Q1485.89 1469.05 1485.89 1474.49 Q1485.89 1479.82 1482.74 1483.03 Q1479.6 1486.25 1474.36 1486.25 Q1468.37 1486.25 1465.2 1481.67 Q1462.03 1477.06 1462.03 1468.33 Q1462.03 1460.14 1465.92 1455.28 Q1469.8 1450.39 1476.36 1450.39 Q1478.11 1450.39 1479.9 1450.74 Q1481.7 1451.09 1483.65 1451.78 Z" fill="#000000" fill-rule="nonzero" fill-opacity="1" /><path clip-path="url(#clip980)" d="M1913.36 1469.17 Q1910.02 1469.17 1908.1 1470.95 Q1906.2 1472.73 1906.2 1475.86 Q1906.2 1478.98 1908.1 1480.77 Q1910.02 1482.55 1913.36 1482.55 Q1916.69 1482.55 1918.61 1480.77 Q1920.53 1478.96 1920.53 1475.86 Q1920.53 1472.73 1918.61 1470.95 Q1916.71 1469.17 1913.36 1469.17 M1908.68 1467.18 Q1905.67 1466.44 1903.98 1464.38 Q1902.32 1462.32 1902.32 1459.35 Q1902.32 1455.21 1905.26 1452.8 Q1908.22 1450.39 1913.36 1450.39 Q1918.52 1450.39 1921.46 1452.8 Q1924.4 1455.21 1924.4 1459.35 Q1924.4 1462.32 1922.71 1464.38 Q1921.04 1466.44 1918.06 1467.18 Q1921.44 1467.96 1923.31 1470.26 Q1925.21 1472.55 1925.21 1475.86 Q1925.21 1480.88 1922.13 1483.57 Q1919.08 1486.25 1913.36 1486.25 Q1907.64 1486.25 1904.56 1483.57 Q1901.51 1480.88 1901.51 1475.86 Q1901.51 1472.55 1903.4 1470.26 Q1905.3 1467.96 1908.68 1467.18 M1906.97 1459.79 Q1906.97 1462.48 1908.64 1463.98 Q1910.33 1465.49 1913.36 1465.49 Q1916.37 1465.49 1918.06 1463.98 Q1919.77 1462.48 1919.77 1459.79 Q1919.77 1457.11 1918.06 1455.6 Q1916.37 1454.1 1913.36 1454.1 Q1910.33 1454.1 1908.64 1455.6 Q1906.97 1457.11 1906.97 1459.79 Z" fill="#000000" fill-rule="nonzero" fill-opacity="1" /><path clip-path="url(#clip980)" d="M2327.44 1481.64 L2335.08 1481.64 L2335.08 1455.28 L2326.77 1456.95 L2326.77 1452.69 L2335.04 1451.02 L2339.71 1451.02 L2339.71 1481.64 L2347.35 1481.64 L2347.35 1485.58 L2327.44 1485.58 L2327.44 1481.64 Z" fill="#000000" fill-rule="nonzero" fill-opacity="1" /><path clip-path="url(#clip980)" d="M2366.8 1454.1 Q2363.18 1454.1 2361.36 1457.66 Q2359.55 1461.2 2359.55 1468.33 Q2359.55 1475.44 2361.36 1479.01 Q2363.18 1482.55 2366.8 1482.55 Q2370.43 1482.55 2372.23 1479.01 Q2374.06 1475.44 2374.06 1468.33 Q2374.06 1461.2 2372.23 1457.66 Q2370.43 1454.1 2366.8 1454.1 M2366.8 1450.39 Q2372.61 1450.39 2375.66 1455 Q2378.74 1459.58 2378.74 1468.33 Q2378.74 1477.06 2375.66 1481.67 Q2372.61 1486.25 2366.8 1486.25 Q2360.99 1486.25 2357.91 1481.67 Q2354.85 1477.06 2354.85 1468.33 Q2354.85 1459.58 2357.91 1455 Q2360.99 1450.39 2366.8 1450.39 Z" fill="#000000" fill-rule="nonzero" fill-opacity="1" /><path clip-path="url(#clip980)" d="M1253.32 1522.27 L1253.32 1532.4 L1265.38 1532.4 L1265.38 1536.95 L1253.32 1536.95 L1253.32 1556.3 Q1253.32 1560.66 1254.5 1561.9 Q1255.71 1563.14 1259.37 1563.14 L1265.38 1563.14 L1265.38 1568.04 L1259.37 1568.04 Q1252.59 1568.04 1250.01 1565.53 Q1247.43 1562.98 1247.43 1556.3 L1247.43 1536.95 L1243.14 1536.95 L1243.14 1532.4 L1247.43 1532.4 L1247.43 1522.27 L1253.32 1522.27 Z" fill="#000000" fill-rule="nonzero" fill-opacity="1" /><polyline clip-path="url(#clip980)" style="stroke:#000000; stroke-linecap:round; stroke-linejoin:round; stroke-width:4; stroke-opacity:1; fill:none" points="155.765,1423.18 155.765,47.2441 "/>
<polyline clip-path="url(#clip980)" style="stroke:#000000; stroke-linecap:round; stroke-linejoin:round; stroke-width:4; stroke-opacity:1; fill:none" points="155.765,1273.87 174.663,1273.87 "/>
<polyline clip-path="url(#clip980)" style="stroke:#000000; stroke-linecap:round; stroke-linejoin:round; stroke-width:4; stroke-opacity:1; fill:none" points="155.765,1089.91 174.663,1089.91 "/>
<polyline clip-path="url(#clip980)" style="stroke:#000000; stroke-linecap:round; stroke-linejoin:round; stroke-width:4; stroke-opacity:1; fill:none" points="155.765,905.961 174.663,905.961 "/>
<polyline clip-path="url(#clip980)" style="stroke:#000000; stroke-linecap:round; stroke-linejoin:round; stroke-width:4; stroke-opacity:1; fill:none" points="155.765,722.008 174.663,722.008 "/>
<polyline clip-path="url(#clip980)" style="stroke:#000000; stroke-linecap:round; stroke-linejoin:round; stroke-width:4; stroke-opacity:1; fill:none" points="155.765,538.055 174.663,538.055 "/>
<polyline clip-path="url(#clip980)" style="stroke:#000000; stroke-linecap:round; stroke-linejoin:round; stroke-width:4; stroke-opacity:1; fill:none" points="155.765,354.103 174.663,354.103 "/>
<polyline clip-path="url(#clip980)" style="stroke:#000000; stroke-linecap:round; stroke-linejoin:round; stroke-width:4; stroke-opacity:1; fill:none" points="155.765,170.15 174.663,170.15 "/>
<path clip-path="url(#clip980)" d="M63.5847 1259.67 Q59.9736 1259.67 58.1449 1263.23 Q56.3393 1266.77 56.3393 1273.9 Q56.3393 1281.01 58.1449 1284.57 Q59.9736 1288.11 63.5847 1288.11 Q67.2189 1288.11 69.0244 1284.57 Q70.8531 1281.01 70.8531 1273.9 Q70.8531 1266.77 69.0244 1263.23 Q67.2189 1259.67 63.5847 1259.67 M63.5847 1255.96 Q69.3948 1255.96 72.4503 1260.57 Q75.529 1265.15 75.529 1273.9 Q75.529 1282.63 72.4503 1287.23 Q69.3948 1291.82 63.5847 1291.82 Q57.7745 1291.82 54.6958 1287.23 Q51.6403 1282.63 51.6403 1273.9 Q51.6403 1265.15 54.6958 1260.57 Q57.7745 1255.96 63.5847 1255.96 Z" fill="#000000" fill-rule="nonzero" fill-opacity="1" /><path clip-path="url(#clip980)" d="M83.7466 1285.27 L88.6308 1285.27 L88.6308 1291.15 L83.7466 1291.15 L83.7466 1285.27 Z" fill="#000000" fill-rule="nonzero" fill-opacity="1" /><path clip-path="url(#clip980)" d="M98.8622 1256.59 L117.219 1256.59 L117.219 1260.52 L103.145 1260.52 L103.145 1268.99 Q104.163 1268.65 105.182 1268.48 Q106.2 1268.3 107.219 1268.3 Q113.006 1268.3 116.385 1271.47 Q119.765 1274.64 119.765 1280.06 Q119.765 1285.64 116.293 1288.74 Q112.82 1291.82 106.501 1291.82 Q104.325 1291.82 102.057 1291.45 Q99.8113 1291.08 97.4039 1290.34 L97.4039 1285.64 Q99.4872 1286.77 101.709 1287.33 Q103.932 1287.88 106.408 1287.88 Q110.413 1287.88 112.751 1285.78 Q115.089 1283.67 115.089 1280.06 Q115.089 1276.45 112.751 1274.34 Q110.413 1272.23 106.408 1272.23 Q104.534 1272.23 102.659 1272.65 Q100.807 1273.07 98.8622 1273.95 L98.8622 1256.59 Z" fill="#000000" fill-rule="nonzero" fill-opacity="1" /><path clip-path="url(#clip980)" d="M53.3995 1103.26 L61.0384 1103.26 L61.0384 1076.89 L52.7282 1078.56 L52.7282 1074.3 L60.9921 1072.63 L65.668 1072.63 L65.668 1103.26 L73.3068 1103.26 L73.3068 1107.19 L53.3995 1107.19 L53.3995 1103.26 Z" fill="#000000" fill-rule="nonzero" fill-opacity="1" /><path clip-path="url(#clip980)" d="M82.7512 1101.31 L87.6354 1101.31 L87.6354 1107.19 L82.7512 1107.19 L82.7512 1101.31 Z" fill="#000000" fill-rule="nonzero" fill-opacity="1" /><path clip-path="url(#clip980)" d="M107.821 1075.71 Q104.209 1075.71 102.381 1079.28 Q100.575 1082.82 100.575 1089.95 Q100.575 1097.05 102.381 1100.62 Q104.209 1104.16 107.821 1104.16 Q111.455 1104.16 113.26 1100.62 Q115.089 1097.05 115.089 1089.95 Q115.089 1082.82 113.26 1079.28 Q111.455 1075.71 107.821 1075.71 M107.821 1072.01 Q113.631 1072.01 116.686 1076.62 Q119.765 1081.2 119.765 1089.95 Q119.765 1098.68 116.686 1103.28 Q113.631 1107.87 107.821 1107.87 Q102.01 1107.87 98.9317 1103.28 Q95.8761 1098.68 95.8761 1089.95 Q95.8761 1081.2 98.9317 1076.62 Q102.01 1072.01 107.821 1072.01 Z" fill="#000000" fill-rule="nonzero" fill-opacity="1" /><path clip-path="url(#clip980)" d="M54.3949 919.306 L62.0337 919.306 L62.0337 892.94 L53.7236 894.607 L53.7236 890.348 L61.9874 888.681 L66.6633 888.681 L66.6633 919.306 L74.3022 919.306 L74.3022 923.241 L54.3949 923.241 L54.3949 919.306 Z" fill="#000000" fill-rule="nonzero" fill-opacity="1" /><path clip-path="url(#clip980)" d="M83.7466 917.361 L88.6308 917.361 L88.6308 923.241 L83.7466 923.241 L83.7466 917.361 Z" fill="#000000" fill-rule="nonzero" fill-opacity="1" /><path clip-path="url(#clip980)" d="M98.8622 888.681 L117.219 888.681 L117.219 892.616 L103.145 892.616 L103.145 901.088 Q104.163 900.741 105.182 900.579 Q106.2 900.394 107.219 900.394 Q113.006 900.394 116.385 903.565 Q119.765 906.736 119.765 912.153 Q119.765 917.732 116.293 920.834 Q112.82 923.912 106.501 923.912 Q104.325 923.912 102.057 923.542 Q99.8113 923.172 97.4039 922.431 L97.4039 917.732 Q99.4872 918.866 101.709 919.422 Q103.932 919.977 106.408 919.977 Q110.413 919.977 112.751 917.871 Q115.089 915.764 115.089 912.153 Q115.089 908.542 112.751 906.436 Q110.413 904.329 106.408 904.329 Q104.534 904.329 102.659 904.746 Q100.807 905.162 98.8622 906.042 L98.8622 888.681 Z" fill="#000000" fill-rule="nonzero" fill-opacity="1" /><path clip-path="url(#clip980)" d="M56.6171 735.353 L72.9365 735.353 L72.9365 739.288 L50.9921 739.288 L50.9921 735.353 Q53.6541 732.598 58.2375 727.969 Q62.8439 723.316 64.0245 721.973 Q66.2698 719.45 67.1494 717.714 Q68.0522 715.955 68.0522 714.265 Q68.0522 711.511 66.1078 709.774 Q64.1865 708.038 61.0847 708.038 Q58.8856 708.038 56.4319 708.802 Q54.0014 709.566 51.2236 711.117 L51.2236 706.395 Q54.0477 705.261 56.5014 704.682 Q58.955 704.103 60.9921 704.103 Q66.3624 704.103 69.5568 706.788 Q72.7513 709.474 72.7513 713.964 Q72.7513 716.094 71.9411 718.015 Q71.1541 719.913 69.0476 722.506 Q68.4689 723.177 65.367 726.395 Q62.2652 729.589 56.6171 735.353 Z" fill="#000000" fill-rule="nonzero" fill-opacity="1" /><path clip-path="url(#clip980)" d="M82.7512 733.409 L87.6354 733.409 L87.6354 739.288 L82.7512 739.288 L82.7512 733.409 Z" fill="#000000" fill-rule="nonzero" fill-opacity="1" /><path clip-path="url(#clip980)" d="M107.821 707.807 Q104.209 707.807 102.381 711.372 Q100.575 714.913 100.575 722.043 Q100.575 729.149 102.381 732.714 Q104.209 736.256 107.821 736.256 Q111.455 736.256 113.26 732.714 Q115.089 729.149 115.089 722.043 Q115.089 714.913 113.26 711.372 Q111.455 707.807 107.821 707.807 M107.821 704.103 Q113.631 704.103 116.686 708.71 Q119.765 713.293 119.765 722.043 Q119.765 730.77 116.686 735.376 Q113.631 739.96 107.821 739.96 Q102.01 739.96 98.9317 735.376 Q95.8761 730.77 95.8761 722.043 Q95.8761 713.293 98.9317 708.71 Q102.01 704.103 107.821 704.103 Z" fill="#000000" fill-rule="nonzero" fill-opacity="1" /><path clip-path="url(#clip980)" d="M57.6125 551.4 L73.9318 551.4 L73.9318 555.335 L51.9875 555.335 L51.9875 551.4 Q54.6495 548.646 59.2328 544.016 Q63.8393 539.363 65.0198 538.021 Q67.2652 535.498 68.1448 533.761 Q69.0476 532.002 69.0476 530.312 Q69.0476 527.558 67.1032 525.822 Q65.1819 524.086 62.08 524.086 Q59.881 524.086 57.4273 524.849 Q54.9967 525.613 52.219 527.164 L52.219 522.442 Q55.043 521.308 57.4967 520.729 Q59.9504 520.15 61.9874 520.15 Q67.3578 520.15 70.5522 522.836 Q73.7466 525.521 73.7466 530.011 Q73.7466 532.141 72.9365 534.062 Q72.1494 535.961 70.0429 538.553 Q69.4642 539.224 66.3624 542.442 Q63.2606 545.636 57.6125 551.4 Z" fill="#000000" fill-rule="nonzero" fill-opacity="1" /><path clip-path="url(#clip980)" d="M83.7466 549.456 L88.6308 549.456 L88.6308 555.335 L83.7466 555.335 L83.7466 549.456 Z" fill="#000000" fill-rule="nonzero" fill-opacity="1" /><path clip-path="url(#clip980)" d="M98.8622 520.775 L117.219 520.775 L117.219 524.711 L103.145 524.711 L103.145 533.183 Q104.163 532.836 105.182 532.673 Q106.2 532.488 107.219 532.488 Q113.006 532.488 116.385 535.66 Q119.765 538.831 119.765 544.248 Q119.765 549.826 116.293 552.928 Q112.82 556.007 106.501 556.007 Q104.325 556.007 102.057 555.636 Q99.8113 555.266 97.4039 554.525 L97.4039 549.826 Q99.4872 550.96 101.709 551.516 Q103.932 552.072 106.408 552.072 Q110.413 552.072 112.751 549.965 Q115.089 547.859 115.089 544.248 Q115.089 540.636 112.751 538.53 Q110.413 536.423 106.408 536.423 Q104.534 536.423 102.659 536.84 Q100.807 537.257 98.8622 538.136 L98.8622 520.775 Z" fill="#000000" fill-rule="nonzero" fill-opacity="1" /><path clip-path="url(#clip980)" d="M66.7559 352.748 Q70.1124 353.466 71.9874 355.735 Q73.8855 358.003 73.8855 361.336 Q73.8855 366.452 70.367 369.253 Q66.8485 372.054 60.3671 372.054 Q58.1912 372.054 55.8764 371.614 Q53.5847 371.197 51.131 370.341 L51.131 365.827 Q53.0754 366.961 55.3903 367.54 Q57.7051 368.119 60.2282 368.119 Q64.6263 368.119 66.918 366.383 Q69.2328 364.647 69.2328 361.336 Q69.2328 358.281 67.08 356.568 Q64.9504 354.832 61.131 354.832 L57.1032 354.832 L57.1032 350.989 L61.3161 350.989 Q64.7652 350.989 66.5939 349.623 Q68.4226 348.235 68.4226 345.642 Q68.4226 342.98 66.5245 341.568 Q64.6495 340.133 61.131 340.133 Q59.2097 340.133 57.0106 340.549 Q54.8115 340.966 52.1727 341.846 L52.1727 337.679 Q54.8347 336.938 57.1495 336.568 Q59.4875 336.198 61.5476 336.198 Q66.8717 336.198 69.9735 338.628 Q73.0753 341.036 73.0753 345.156 Q73.0753 348.026 71.4318 350.017 Q69.7883 351.985 66.7559 352.748 Z" fill="#000000" fill-rule="nonzero" fill-opacity="1" /><path clip-path="url(#clip980)" d="M82.7512 365.503 L87.6354 365.503 L87.6354 371.383 L82.7512 371.383 L82.7512 365.503 Z" fill="#000000" fill-rule="nonzero" fill-opacity="1" /><path clip-path="url(#clip980)" d="M107.821 339.901 Q104.209 339.901 102.381 343.466 Q100.575 347.008 100.575 354.137 Q100.575 361.244 102.381 364.809 Q104.209 368.35 107.821 368.35 Q111.455 368.35 113.26 364.809 Q115.089 361.244 115.089 354.137 Q115.089 347.008 113.26 343.466 Q111.455 339.901 107.821 339.901 M107.821 336.198 Q113.631 336.198 116.686 340.804 Q119.765 345.387 119.765 354.137 Q119.765 362.864 116.686 367.471 Q113.631 372.054 107.821 372.054 Q102.01 372.054 98.9317 367.471 Q95.8761 362.864 95.8761 354.137 Q95.8761 345.387 98.9317 340.804 Q102.01 336.198 107.821 336.198 Z" fill="#000000" fill-rule="nonzero" fill-opacity="1" /><path clip-path="url(#clip980)" d="M67.7513 168.796 Q71.1078 169.513 72.9827 171.782 Q74.8809 174.05 74.8809 177.384 Q74.8809 182.499 71.3624 185.3 Q67.8439 188.101 61.3624 188.101 Q59.1865 188.101 56.8717 187.661 Q54.5801 187.245 52.1264 186.388 L52.1264 181.874 Q54.0708 183.009 56.3856 183.587 Q58.7004 184.166 61.2236 184.166 Q65.6217 184.166 67.9133 182.43 Q70.2281 180.694 70.2281 177.384 Q70.2281 174.328 68.0754 172.615 Q65.9457 170.879 62.1263 170.879 L58.0986 170.879 L58.0986 167.036 L62.3115 167.036 Q65.7606 167.036 67.5893 165.671 Q69.418 164.282 69.418 161.689 Q69.418 159.027 67.5198 157.615 Q65.6448 156.18 62.1263 156.18 Q60.205 156.18 58.006 156.597 Q55.8069 157.013 53.168 157.893 L53.168 153.726 Q55.8301 152.986 58.1449 152.615 Q60.4828 152.245 62.543 152.245 Q67.867 152.245 70.9689 154.675 Q74.0707 157.083 74.0707 161.203 Q74.0707 164.073 72.4272 166.064 Q70.7837 168.032 67.7513 168.796 Z" fill="#000000" fill-rule="nonzero" fill-opacity="1" /><path clip-path="url(#clip980)" d="M83.7466 181.55 L88.6308 181.55 L88.6308 187.43 L83.7466 187.43 L83.7466 181.55 Z" fill="#000000" fill-rule="nonzero" fill-opacity="1" /><path clip-path="url(#clip980)" d="M98.8622 152.87 L117.219 152.87 L117.219 156.805 L103.145 156.805 L103.145 165.277 Q104.163 164.93 105.182 164.768 Q106.2 164.583 107.219 164.583 Q113.006 164.583 116.385 167.754 Q119.765 170.925 119.765 176.342 Q119.765 181.921 116.293 185.022 Q112.82 188.101 106.501 188.101 Q104.325 188.101 102.057 187.731 Q99.8113 187.36 97.4039 186.62 L97.4039 181.921 Q99.4872 183.055 101.709 183.61 Q103.932 184.166 106.408 184.166 Q110.413 184.166 112.751 182.059 Q115.089 179.953 115.089 176.342 Q115.089 172.731 112.751 170.624 Q110.413 168.518 106.408 168.518 Q104.534 168.518 102.659 168.935 Q100.807 169.351 98.8622 170.231 L98.8622 152.87 Z" fill="#000000" fill-rule="nonzero" fill-opacity="1" /><polyline clip-path="url(#clip981)" style="stroke:#009af9; stroke-linecap:round; stroke-linejoin:round; stroke-width:8; stroke-opacity:1; fill:none" points="155.765,1384.24 157.964,1383.5 160.163,1382.75 162.362,1382 164.562,1381.23 166.761,1380.46 168.96,1379.68 171.159,1378.9 173.358,1378.1 175.558,1377.3 177.757,1376.49 179.956,1375.67 182.155,1374.85 184.354,1374.01 186.554,1373.17 188.753,1372.32 190.952,1371.46 193.151,1370.59 195.35,1369.71 197.55,1368.82 199.749,1367.93 201.948,1367.02 204.147,1366.11 206.346,1365.19 208.545,1364.26 210.745,1363.32 212.944,1362.36 215.143,1361.4 217.342,1360.43 219.541,1359.46 221.741,1358.47 223.94,1357.47 226.139,1356.46 228.338,1355.44 230.537,1354.41 232.737,1353.37 234.936,1352.32 237.135,1351.25 239.334,1350.18 241.533,1349.1 243.733,1348.01 245.932,1346.9 248.131,1345.78 250.33,1344.66 252.529,1343.52 254.728,1342.37 256.928,1341.21 259.127,1340.03 261.326,1338.85 263.525,1337.65 265.724,1336.44 267.924,1335.22 270.123,1333.99 272.322,1332.74 274.521,1331.49 276.72,1330.21 278.92,1328.93 281.119,1327.63 283.318,1326.32 285.517,1325 287.716,1323.67 289.916,1322.32 292.115,1320.95 294.314,1319.58 296.513,1318.18 298.712,1316.78 300.911,1315.36 303.111,1313.93 305.31,1312.48 307.509,1311.02 309.708,1309.54 311.907,1308.05 314.107,1306.54 316.306,1305.02 318.505,1303.48 320.704,1301.93 322.903,1300.36 325.103,1298.78 327.302,1297.18 329.501,1295.56 331.7,1293.93 333.899,1292.28 336.099,1290.62 338.298,1288.93 340.497,1287.24 342.696,1285.52 344.895,1283.79 347.094,1282.03 349.294,1280.27 351.493,1278.48 353.692,1276.68 355.891,1274.85 358.09,1273.01 360.29,1271.15 362.489,1269.28 364.688,1267.38 366.887,1265.46 369.086,1263.53 371.286,1261.57 373.485,1259.6 375.684,1257.61 377.883,1255.59 380.082,1253.56 382.281,1251.5 384.481,1249.43 386.68,1247.33 388.879,1245.21 391.078,1243.07 393.277,1240.91 395.477,1238.73 397.676,1236.53 399.875,1234.3 402.074,1232.05 404.273,1229.78 406.473,1227.49 408.672,1225.17 410.871,1222.83 413.07,1220.46 415.269,1218.08 417.469,1215.66 419.668,1213.23 421.867,1210.77 424.066,1208.28 426.265,1205.77 428.464,1203.24 430.664,1200.67 432.863,1198.09 435.062,1195.47 437.261,1192.84 439.46,1190.17 441.66,1187.48 443.859,1184.76 446.058,1182.01 448.257,1179.24 450.456,1176.43 452.656,1173.6 454.855,1170.74 457.054,1167.85 459.253,1164.94 461.452,1161.99 463.652,1159.02 465.851,1156.01 468.05,1152.97 470.249,1149.91 472.448,1146.81 474.647,1143.68 476.847,1140.52 479.046,1137.33 481.245,1134.1 483.444,1130.85 485.643,1127.56 487.843,1124.24 490.042,1120.88 492.241,1117.49 494.44,1114.07 496.639,1110.61 498.839,1107.11 501.038,1103.59 503.237,1100.02 505.436,1096.42 507.635,1092.79 509.835,1089.11 512.034,1085.4 514.233,1081.66 516.432,1077.87 518.631,1074.05 520.83,1070.19 523.03,1066.29 525.229,1062.35 527.428,1058.37 529.627,1054.35 531.826,1050.3 534.026,1046.2 536.225,1042.05 538.424,1037.87 540.623,1033.65 542.822,1029.38 545.022,1025.07 547.221,1020.72 549.42,1016.32 551.619,1011.88 553.818,1007.39 556.018,1002.86 558.217,998.282 560.416,993.659 562.615,988.99 564.814,984.273 567.013,979.509 569.213,974.697 571.412,969.837 573.611,1211.37 575.81,1208.89 578.009,1206.39 580.209,1203.86 582.408,1201.31 584.607,1198.73 586.806,1196.12 589.005,1193.49 591.205,1190.83 593.404,1188.14 595.603,1185.43 597.802,1182.69 600.001,1179.92 602.201,1177.12 604.4,1174.3 606.599,1171.45 608.798,1168.57 610.997,1165.66 613.196,1162.72 615.396,1159.75 617.595,1307.28 619.794,1305.77 621.993,1304.24 624.192,1302.7 626.392,1301.14 628.591,1299.56 630.79,1297.97 632.989,1296.36 635.188,1294.73 637.388,1293.09 639.587,1291.44 641.786,1289.76 643.985,1288.07 646.184,1286.36 648.384,1284.64 650.583,1282.9 652.782,1281.14 654.981,1279.36 657.18,1277.56 659.379,1275.75 661.579,1273.92 663.778,1272.07 665.977,1270.2 668.176,1268.31 670.375,1266.41 672.575,1264.48 674.774,1262.54 676.973,1260.57 679.172,1258.59 681.371,1256.58 683.571,1254.56 685.77,1252.51 687.969,1250.45 690.168,1248.36 692.367,1246.26 694.567,1244.13 696.766,1241.98 698.965,1239.81 701.164,1237.61 703.363,1235.4 705.562,1233.16 707.762,1230.9 709.961,1228.62 712.16,1226.31 714.359,1223.98 716.558,1221.63 718.758,1219.25 720.957,1216.85 723.156,1214.43 725.355,1211.98 727.554,1209.51 729.754,1207.01 731.953,1204.48 734.152,1201.94 736.351,1199.36 738.55,1196.76 740.749,1194.14 742.949,1191.48 745.148,1188.8 747.347,1186.1 749.546,1183.36 751.745,1180.6 753.945,1177.81 756.144,1175 758.343,1172.15 760.542,1169.28 762.741,1166.37 764.941,1163.44 767.14,1160.48 769.339,1157.49 771.538,1154.47 773.737,1151.42 775.937,1148.33 778.136,1145.22 780.335,1142.08 782.534,1138.9 784.733,1135.69 786.932,1295.13 789.132,1293.5 791.331,1291.84 793.53,1290.18 795.729,1288.49 797.928,1286.78 800.128,1285.06 802.327,1283.33 804.526,1281.57 806.725,1279.8 808.924,1278.01 811.124,1276.2 813.323,1274.37 815.522,1272.52 817.721,1270.66 819.92,1268.78 822.12,1266.88 824.319,1264.96 826.518,1263.02 828.717,1261.06 830.916,1259.08 833.115,1257.08 835.315,1255.06 837.514,1253.02 839.713,1250.96 841.912,1248.88 844.111,1246.78 846.311,1244.65 848.51,1242.51 850.709,1240.34 852.908,1238.16 855.107,1235.95 857.307,1233.71 859.506,1231.46 861.705,1229.18 863.904,1226.88 866.103,1224.56 868.303,1222.21 870.502,1219.84 872.701,1217.45 874.9,1215.03 877.099,1212.59 879.298,1210.12 881.498,1207.63 883.697,1205.11 885.896,1202.57 888.095,1200 890.294,1197.41 892.494,1194.79 894.693,1192.14 896.892,1189.47 899.091,1186.77 901.29,1184.04 903.49,1181.29 905.689,1178.51 907.888,1175.7 910.087,1172.86 912.286,1169.99 914.486,1167.09 916.685,1164.17 918.884,1161.21 921.083,1158.23 923.282,1155.22 925.481,1152.17 927.681,1149.1 929.88,1145.99 932.079,1142.85 934.278,1139.68 936.477,1136.48 938.677,1133.25 940.876,1129.98 943.075,1126.69 945.274,1123.36 947.473,1119.99 949.673,1116.59 951.872,1113.16 954.071,1109.69 956.27,1106.19 958.469,1102.65 960.669,1099.08 962.868,1095.47 965.067,1091.82 967.266,1088.14 969.465,1084.42 971.664,1080.67 973.864,1076.87 976.063,1073.04 978.262,1069.17 980.461,1065.26 982.66,1061.31 984.86,1057.32 987.059,1053.29 989.258,1049.22 991.457,1045.11 993.656,1249.39 995.856,1247.29 998.055,1245.18 1000.25,1243.04 1002.45,1240.88 1004.65,1238.69 1006.85,1236.49 1009.05,1234.26 1011.25,1232.01 1013.45,1229.74 1015.65,1227.45 1017.85,1225.13 1020.05,1222.79 1022.25,1220.42 1024.45,1218.04 1026.64,1215.62 1028.84,1213.19 1031.04,1210.73 1033.24,1208.24 1035.44,1205.73 1037.64,1203.19 1039.84,1200.63 1042.04,1198.05 1044.24,1195.43 1046.44,1192.79 1048.64,1190.13 1050.84,1187.44 1053.03,1184.72 1055.23,1181.97 1057.43,1179.2 1059.63,1176.39 1061.83,1173.56 1064.03,1170.7 1066.23,1167.82 1068.43,1164.9 1070.63,1161.95 1072.83,1158.98 1075.03,1155.97 1077.23,1152.94 1079.42,1149.87 1081.62,1146.77 1083.82,1143.64 1086.02,1140.48 1088.22,1137.29 1090.42,1134.07 1092.62,1130.81 1094.82,1127.52 1097.02,1124.2 1099.22,1120.84 1101.42,1117.45 1103.62,1114.03 1105.82,1110.57 1108.01,1107.08 1110.21,1103.55 1112.41,1099.98 1114.61,1096.38 1116.81,1092.75 1119.01,1089.07 1121.21,1085.36 1123.41,1081.61 1125.61,1077.83 1127.81,1074.01 1130.01,1070.14 1132.21,1066.24 1134.4,1062.3 1136.6,1058.32 1138.8,1054.3 1141,1050.24 1143.2,1046.14 1145.4,1042 1147.6,1037.81 1149.8,1033.59 1152,1029.32 1154.2,1025.01 1156.4,1020.65 1158.6,1016.25 1160.79,1011.81 1162.99,1007.32 1165.19,1002.79 1167.39,998.214 1169.59,993.591 1171.79,988.92 1173.99,984.203 1176.19,979.438 1178.39,974.625 1180.59,969.764 1182.79,964.854 1184.99,959.895 1187.19,954.886 1189.38,949.826 1191.58,944.716 1193.78,939.554 1195.98,934.34 1198.18,929.073 1200.38,923.754 1202.58,918.381 1204.78,912.955 1206.98,907.473 1209.18,901.937 1211.38,896.344 1213.58,890.696 1215.77,884.991 1217.97,879.228 1220.17,873.407 1222.37,867.528 1224.57,861.589 1226.77,855.591 1228.97,849.533 1231.17,843.413 1233.37,837.232 1235.57,830.989 1237.77,824.682 1239.97,818.313 1242.16,811.879 1244.36,805.381 1246.56,798.817 1248.76,792.187 1250.96,785.49 1253.16,778.727 1255.36,771.895 1257.56,764.994 1259.76,1107.95 1261.96,1104.43 1264.16,1100.87 1266.36,1097.28 1268.56,1093.66 1270.75,1089.99 1272.95,1086.29 1275.15,1082.55 1277.35,1078.78 1279.55,1074.96 1281.75,1071.11 1283.95,1067.22 1286.15,1063.29 1288.35,1059.32 1290.55,1055.32 1292.75,1051.27 1294.95,1047.18 1297.14,1043.05 1299.34,1038.87 1301.54,1034.66 1303.74,1030.4 1305.94,1026.1 1308.14,1021.76 1310.34,1017.37 1312.54,1012.94 1314.74,1008.47 1316.94,1003.95 1319.14,999.379 1321.34,994.767 1323.53,990.109 1325.73,985.404 1327.93,980.651 1330.13,975.851 1332.33,971.002 1334.53,966.105 1336.73,961.158 1338.93,956.161 1341.13,951.115 1343.33,946.017 1345.53,940.868 1347.73,935.667 1349.93,930.414 1352.12,925.108 1354.32,919.748 1356.52,914.335 1358.72,908.867 1360.92,903.344 1363.12,897.766 1365.32,892.132 1367.52,886.44 1369.72,880.692 1371.92,874.886 1374.12,1163.45 1376.32,1160.49 1378.51,1157.5 1380.71,1154.48 1382.91,1151.43 1385.11,1148.34 1387.31,1145.23 1389.51,1142.09 1391.71,1138.91 1393.91,1135.7 1396.11,1132.46 1398.31,1129.19 1400.51,1125.88 1402.71,1122.54 1404.9,1119.17 1407.1,1115.76 1409.3,1112.32 1411.5,1108.85 1413.7,1105.34 1415.9,1101.79 1418.1,1098.21 1420.3,1094.59 1422.5,1090.94 1424.7,1087.25 1426.9,1083.52 1429.1,1079.75 1431.3,1075.95 1433.49,1072.11 1435.69,1068.23 1437.89,1064.31 1440.09,1060.35 1442.29,1056.35 1444.49,1052.31 1446.69,1048.23 1448.89,1044.11 1451.09,1039.95 1453.29,1035.74 1455.49,1031.5 1457.69,1027.21 1459.88,1022.88 1462.08,1018.5 1464.28,1014.08 1466.48,1233.74 1468.68,1231.48 1470.88,1229.2 1473.08,1226.9 1475.28,1224.58 1477.48,1222.23 1479.68,1219.86 1481.88,1217.47 1484.08,1215.05 1486.27,1212.61 1488.47,1210.14 1490.67,1207.65 1492.87,1205.13 1495.07,1202.59 1497.27,1200.02 1499.47,1197.43 1501.67,1194.81 1503.87,1192.16 1506.07,1189.49 1508.27,1186.79 1510.47,1184.07 1512.67,1181.31 1514.86,1178.53 1517.06,1175.72 1519.26,1172.89 1521.46,1170.02 1523.66,1167.13 1525.86,1164.2 1528.06,1161.25 1530.26,1158.27 1532.46,1155.26 1534.66,1152.21 1536.86,1149.14 1539.06,1146.04 1541.25,1142.9 1543.45,1139.73 1545.65,1136.54 1547.85,1133.31 1550.05,1130.04 1552.25,1126.75 1554.45,1123.42 1556.65,1120.05 1558.85,1116.66 1561.05,1113.23 1563.25,1109.76 1565.45,1106.26 1567.65,1102.73 1569.84,1099.15 1572.04,1095.55 1574.24,1091.9 1576.44,1088.22 1578.64,1084.51 1580.84,1080.75 1583.04,1076.96 1585.24,1073.13 1587.44,1069.26 1589.64,1065.35 1591.84,1061.4 1594.04,1057.41 1596.23,1053.38 1598.43,1049.31 1600.63,1045.2 1602.83,1041.05 1605.03,1036.86 1607.23,1032.62 1609.43,1028.34 1611.63,1024.02 1613.83,1019.66 1616.03,1015.25 1618.23,1010.8 1620.43,1006.3 1622.62,1001.75 1624.82,997.163 1627.02,992.527 1629.22,987.844 1631.42,983.114 1633.62,978.337 1635.82,973.511 1638.02,968.637 1640.22,963.714 1642.42,958.741 1644.62,953.719 1646.82,948.645 1649.02,943.521 1651.21,938.346 1653.41,933.119 1655.61,927.839 1657.81,922.506 1660.01,917.12 1662.21,911.68 1664.41,906.185 1666.61,900.636 1668.81,895.03 1671.01,889.368 1673.21,883.648 1675.41,877.871 1677.6,872.036 1679.8,866.142 1682,860.189 1684.2,854.176 1686.4,848.103 1688.6,841.969 1690.8,835.773 1693,829.515 1695.2,823.194 1697.4,816.81 1699.6,810.361 1701.8,803.848 1703.99,797.27 1706.19,790.625 1708.39,783.915 1710.59,777.136 1712.79,770.29 1714.99,763.375 1717.19,756.391 1719.39,749.337 1721.59,742.211 1723.79,735.015 1725.99,727.746 1728.19,720.404 1730.39,712.989 1732.58,705.499 1734.78,697.933 1736.98,690.292 1739.18,682.574 1741.38,674.778 1743.58,666.904 1745.78,658.951 1747.98,650.918 1750.18,642.804 1752.38,634.609 1754.58,626.33 1756.78,617.969 1758.97,609.523 1761.17,600.993 1763.37,592.376 1765.57,583.673 1767.77,574.881 1769.97,566.002 1772.17,557.032 1774.37,547.973 1776.57,538.822 1778.77,529.578 1780.97,520.242 1783.17,510.811 1785.36,501.285 1787.56,491.663 1789.76,481.944 1791.96,472.127 1794.16,462.21 1796.36,452.194 1798.56,442.076 1800.76,431.857 1802.96,421.534 1805.16,411.107 1807.36,400.575 1809.56,389.937 1811.76,379.191 1813.95,368.337 1816.15,357.374 1818.35,346.299 1820.55,335.114 1822.75,323.815 1824.95,312.403 1827.15,300.875 1829.35,289.232 1831.55,277.471 1833.75,265.592 1835.95,253.593 1838.15,241.473 1840.34,229.232 1842.54,216.867 1844.74,204.378 1846.94,191.764 1849.14,179.023 1851.34,166.154 1853.54,153.156 1855.74,140.028 1857.94,126.768 1860.14,113.375 1862.34,99.848 1864.54,86.1857 1866.73,765.172 1868.93,758.204 1871.13,751.165 1873.33,744.056 1875.53,736.875 1877.73,729.622 1879.93,1090.06 1882.13,1086.36 1884.33,1082.62 1886.53,1078.84 1888.73,1075.03 1890.93,1071.18 1893.13,1067.29 1895.32,1063.36 1897.52,1059.39 1899.72,1055.38 1901.92,1051.34 1904.12,1047.25 1906.32,1043.12 1908.52,1038.94 1910.72,1034.73 1912.92,1030.47 1915.12,1026.17 1917.32,1021.83 1919.52,1017.45 1921.71,1013.02 1923.91,1008.54 1926.11,1004.02 1928.31,999.456 1930.51,994.845 1932.71,990.187 1934.91,985.483 1937.11,980.731 1939.31,975.931 1941.51,971.083 1943.71,966.186 1945.91,961.24 1948.1,956.245 1950.3,951.199 1952.5,1201.98 1954.7,1199.4 1956.9,1196.8 1959.1,1194.18 1961.3,1324.67 1963.5,1323.33 1965.7,1321.98 1967.9,1320.61 1970.1,1319.23 1972.3,1317.84 1974.5,1316.43 1976.69,1315.01 1978.89,1313.57 1981.09,1312.12 1983.29,1310.65 1985.49,1309.17 1987.69,1307.68 1989.89,1306.17 1992.09,1304.64 1994.29,1303.1 1996.49,1301.54 1998.69,1299.97 2000.89,1298.38 2003.08,1296.78 2005.28,1295.16 2007.48,1293.52 2009.68,1291.87 2011.88,1290.2 2014.08,1288.51 2016.28,1286.81 2018.48,1285.09 2020.68,1283.35 2022.88,1281.6 2025.08,1279.82 2027.28,1278.03 2029.47,1276.23 2031.67,1274.4 2033.87,1272.55 2036.07,1270.69 2038.27,1268.81 2040.47,1266.91 2042.67,1264.98 2044.87,1263.04 2047.07,1261.09 2049.27,1259.11 2051.47,1257.11 2053.67,1255.09 2055.87,1355.45 2058.06,1354.42 2060.26,1353.38 2062.46,1352.33 2064.66,1351.26 2066.86,1350.19 2069.06,1349.11 2071.26,1348.02 2073.46,1346.91 2075.66,1345.8 2077.86,1344.67 2080.06,1343.53 2082.26,1342.38 2084.45,1341.22 2086.65,1340.05 2088.85,1338.86 2091.05,1337.66 2093.25,1336.46 2095.45,1335.23 2097.65,1334 2099.85,1332.76 2102.05,1331.5 2104.25,1330.23 2106.45,1328.94 2108.65,1327.65 2110.84,1326.34 2113.04,1325.02 2115.24,1323.68 2117.44,1322.33 2119.64,1320.97 2121.84,1319.6 2124.04,1318.21 2126.24,1316.8 2128.44,1315.39 2130.64,1313.95 2132.84,1312.51 2135.04,1311.05 2137.24,1309.57 2139.43,1308.08 2141.63,1306.58 2143.83,1305.06 2146.03,1303.52 2148.23,1301.97 2150.43,1300.4 2152.63,1298.82 2154.83,1297.22 2157.03,1295.61 2159.23,1293.98 2161.43,1292.33 2163.63,1290.67 2165.82,1288.98 2168.02,1287.29 2170.22,1285.57 2172.42,1283.84 2174.62,1282.09 2176.82,1280.32 2179.02,1278.54 2181.22,1276.74 2183.42,1274.92 2185.62,1273.08 2187.82,1271.22 2190.02,1269.34 2192.22,1267.45 2194.41,1265.53 2196.61,1263.6 2198.81,1261.64 2201.01,1259.67 2203.21,1257.68 2205.41,1255.66 2207.61,1253.63 2209.81,1251.57 2212.01,1249.5 2214.21,1247.4 2216.41,1245.28 2218.61,1243.15 2220.8,1240.98 2223,1238.8 2225.2,1236.6 2227.4,1234.37 2229.6,1232.12 2231.8,1229.85 2234,1227.56 2236.2,1225.24 2238.4,1222.9 2240.6,1220.53 2242.8,1218.14 2245,1215.73 2247.19,1213.29 2249.39,1210.83 2251.59,1208.35 2253.79,1205.83 2255.99,1203.3 2258.19,1200.73 2260.39,1198.15 2262.59,1195.53 2264.79,1192.89 2266.99,1190.23 2269.19,1187.53 2271.39,1184.81 2273.59,1182.07 2275.78,1179.29 2277.98,1176.49 2280.18,1173.66 2282.38,1170.8 2284.58,1167.91 2286.78,1164.99 2288.98,1162.05 2291.18,1159.07 2293.38,1156.07 2295.58,1153.03 2297.78,1149.97 2299.98,1146.87 2302.17,1143.74 2304.37,1140.58 2306.57,1137.39 2308.77,1134.17 2310.97,1130.91 2313.17,1127.62 2315.37,1124.3 2317.57,1120.94 2319.77,1117.55 2321.97,1114.13 2324.17,1110.67 2326.37,1107.18 2328.56,1103.65 2330.76,1100.09 2332.96,1096.49 2335.16,1092.86 2337.36,1089.18 2339.56,1085.48 2341.76,1081.73 2343.96,1077.95 2346.16,1074.13 2348.36,1070.27 2350.56,1066.37 2352.76,1062.43 "/>
<path clip-path="url(#clip980)" d="M228.998 196.789 L537.794 196.789 L537.794 93.1086 L228.998 93.1086  Z" fill="#ffffff" fill-rule="evenodd" fill-opacity="1"/>
<polyline clip-path="url(#clip980)" style="stroke:#000000; stroke-linecap:round; stroke-linejoin:round; stroke-width:4; stroke-opacity:1; fill:none" points="228.998,196.789 537.794,196.789 537.794,93.1086 228.998,93.1086 228.998,196.789 "/>
<polyline clip-path="url(#clip980)" style="stroke:#009af9; stroke-linecap:round; stroke-linejoin:round; stroke-width:8; stroke-opacity:1; fill:none" points="253.409,144.949 399.875,144.949 "/>
<path clip-path="url(#clip980)" d="M424.286 151.997 L424.286 136.303 L428.545 136.303 L428.545 151.835 Q428.545 155.516 429.98 157.368 Q431.416 159.196 434.286 159.196 Q437.735 159.196 439.726 156.997 Q441.74 154.798 441.74 151.002 L441.74 136.303 L445.999 136.303 L445.999 162.229 L441.74 162.229 L441.74 158.247 Q440.189 160.608 438.129 161.766 Q436.092 162.9 433.383 162.9 Q428.916 162.9 426.601 160.122 Q424.286 157.344 424.286 151.997 M435.004 135.678 L435.004 135.678 Z" fill="#000000" fill-rule="nonzero" fill-opacity="1" /><path clip-path="url(#clip980)" d="M454.378 126.21 L464.193 126.21 L464.193 129.52 L458.638 129.52 L458.638 165.168 L464.193 165.168 L464.193 168.479 L454.378 168.479 L454.378 126.21 Z" fill="#000000" fill-rule="nonzero" fill-opacity="1" /><path clip-path="url(#clip980)" d="M474.679 158.293 L482.318 158.293 L482.318 131.928 L474.008 133.595 L474.008 129.335 L482.272 127.669 L486.948 127.669 L486.948 158.293 L494.587 158.293 L494.587 162.229 L474.679 162.229 L474.679 158.293 Z" fill="#000000" fill-rule="nonzero" fill-opacity="1" /><path clip-path="url(#clip980)" d="M513.383 126.21 L513.383 168.479 L503.568 168.479 L503.568 165.168 L509.1 165.168 L509.1 129.52 L503.568 129.52 L503.568 126.21 L513.383 126.21 Z" fill="#000000" fill-rule="nonzero" fill-opacity="1" /></svg>
