<?xml version="1.0" encoding="utf-8"?>
<svg xmlns="http://www.w3.org/2000/svg" xmlns:xlink="http://www.w3.org/1999/xlink" width="600" height="400" viewBox="0 0 2400 1600">
<defs>
  <clipPath id="clip960">
    <rect x="0" y="0" width="2400" height="1600"/>
  </clipPath>
</defs>
<path clip-path="url(#clip960)" d="M0 1600 L2400 1600 L2400 0 L0 0  Z" fill="#ffffff" fill-rule="evenodd" fill-opacity="1"/>
<defs>
  <clipPath id="clip961">
    <rect x="156" y="47" width="2198" height="1377"/>
  </clipPath>
</defs>
<path clip-path="url(#clip960)" d="M156.112 1423.18 L2352.76 1423.18 L2352.76 47.2441 L156.112 47.2441  Z" fill="#ffffff" fill-rule="evenodd" fill-opacity="1"/>
<polyline clip-path="url(#clip961)" style="stroke:#000000; stroke-linecap:round; stroke-linejoin:round; stroke-width:2; stroke-opacity:0.1; fill:none" points="156.112,1423.18 156.112,47.2441 "/>
<polyline clip-path="url(#clip961)" style="stroke:#000000; stroke-linecap:round; stroke-linejoin:round; stroke-width:2; stroke-opacity:0.1; fill:none" points="595.441,1423.18 595.441,47.2441 "/>
<polyline clip-path="url(#clip961)" style="stroke:#000000; stroke-linecap:round; stroke-linejoin:round; stroke-width:2; stroke-opacity:0.1; fill:none" points="1034.77,1423.18 1034.77,47.2441 "/>
<polyline clip-path="url(#clip961)" style="stroke:#000000; stroke-linecap:round; stroke-linejoin:round; stroke-width:2; stroke-opacity:0.1; fill:none" points="1474.1,1423.18 1474.1,47.2441 "/>
<polyline clip-path="url(#clip961)" style="stroke:#000000; stroke-linecap:round; stroke-linejoin:round; stroke-width:2; stroke-opacity:0.1; fill:none" points="1913.43,1423.18 1913.43,47.2441 "/>
<polyline clip-path="url(#clip961)" style="stroke:#000000; stroke-linecap:round; stroke-linejoin:round; stroke-width:2; stroke-opacity:0.1; fill:none" points="2352.76,1423.18 2352.76,47.2441 "/>
<polyline clip-path="url(#clip961)" style="stroke:#000000; stroke-linecap:round; stroke-linejoin:round; stroke-width:2; stroke-opacity:0.1; fill:none" points="156.112,1411.41 2352.76,1411.41 "/>
<polyline clip-path="url(#clip961)" style="stroke:#000000; stroke-linecap:round; stroke-linejoin:round; stroke-width:2; stroke-opacity:0.1; fill:none" points="156.112,1163.53 2352.76,1163.53 "/>
<polyline clip-path="url(#clip961)" style="stroke:#000000; stroke-linecap:round; stroke-linejoin:round; stroke-width:2; stroke-opacity:0.1; fill:none" points="156.112,915.659 2352.76,915.659 "/>
<polyline clip-path="url(#clip961)" style="stroke:#000000; stroke-linecap:round; stroke-linejoin:round; stroke-width:2; stroke-opacity:0.1; fill:none" points="156.112,667.784 2352.76,667.784 "/>
<polyline clip-path="url(#clip961)" style="stroke:#000000; stroke-linecap:round; stroke-linejoin:round; stroke-width:2; stroke-opacity:0.1; fill:none" points="156.112,419.908 2352.76,419.908 "/>
<polyline clip-path="url(#clip961)" style="stroke:#000000; stroke-linecap:round; stroke-linejoin:round; stroke-width:2; stroke-opacity:0.1; fill:none" points="156.112,172.033 2352.76,172.033 "/>
<polyline clip-path="url(#clip960)" style="stroke:#000000; stroke-linecap:round; stroke-linejoin:round; stroke-width:4; stroke-opacity:1; fill:none" points="156.112,1423.18 2352.76,1423.18 "/>
<polyline clip-path="url(#clip960)" style="stroke:#000000; stroke-linecap:round; stroke-linejoin:round; stroke-width:4; stroke-opacity:1; fill:none" points="156.112,1423.18 156.112,1404.28 "/>
<polyline clip-path="url(#clip960)" style="stroke:#000000; stroke-linecap:round; stroke-linejoin:round; stroke-width:4; stroke-opacity:1; fill:none" points="595.441,1423.18 595.441,1404.28 "/>
<polyline clip-path="url(#clip960)" style="stroke:#000000; stroke-linecap:round; stroke-linejoin:round; stroke-width:4; stroke-opacity:1; fill:none" points="1034.77,1423.18 1034.77,1404.28 "/>
<polyline clip-path="url(#clip960)" style="stroke:#000000; stroke-linecap:round; stroke-linejoin:round; stroke-width:4; stroke-opacity:1; fill:none" points="1474.1,1423.18 1474.1,1404.28 "/>
<polyline clip-path="url(#clip960)" style="stroke:#000000; stroke-linecap:round; stroke-linejoin:round; stroke-width:4; stroke-opacity:1; fill:none" points="1913.43,1423.18 1913.43,1404.28 "/>
<polyline clip-path="url(#clip960)" style="stroke:#000000; stroke-linecap:round; stroke-linejoin:round; stroke-width:4; stroke-opacity:1; fill:none" points="2352.76,1423.18 2352.76,1404.28 "/>
<path clip-path="url(#clip960)" d="M156.112 1454.1 Q152.501 1454.1 150.672 1457.66 Q148.867 1461.2 148.867 1468.33 Q148.867 1475.44 150.672 1479.01 Q152.501 1482.55 156.112 1482.55 Q159.746 1482.55 161.552 1479.01 Q163.381 1475.44 163.381 1468.33 Q163.381 1461.2 161.552 1457.66 Q159.746 1454.1 156.112 1454.1 M156.112 1450.39 Q161.922 1450.39 164.978 1455 Q168.057 1459.58 168.057 1468.33 Q168.057 1477.06 164.978 1481.67 Q161.922 1486.25 156.112 1486.25 Q150.302 1486.25 147.223 1481.67 Q144.168 1477.06 144.168 1468.33 Q144.168 1459.58 147.223 1455 Q150.302 1450.39 156.112 1450.39 Z" fill="#000000" fill-rule="nonzero" fill-opacity="1" /><path clip-path="url(#clip960)" d="M590.094 1481.64 L606.413 1481.64 L606.413 1485.58 L584.469 1485.58 L584.469 1481.64 Q587.131 1478.89 591.714 1474.26 Q596.321 1469.61 597.501 1468.27 Q599.746 1465.74 600.626 1464.01 Q601.529 1462.25 601.529 1460.56 Q601.529 1457.8 599.584 1456.07 Q597.663 1454.33 594.561 1454.33 Q592.362 1454.33 589.909 1455.09 Q587.478 1455.86 584.7 1457.41 L584.7 1452.69 Q587.524 1451.55 589.978 1450.97 Q592.432 1450.39 594.469 1450.39 Q599.839 1450.39 603.033 1453.08 Q606.228 1455.77 606.228 1460.26 Q606.228 1462.39 605.418 1464.31 Q604.631 1466.2 602.524 1468.8 Q601.945 1469.47 598.844 1472.69 Q595.742 1475.88 590.094 1481.64 Z" fill="#000000" fill-rule="nonzero" fill-opacity="1" /><path clip-path="url(#clip960)" d="M1037.78 1455.09 L1025.97 1473.54 L1037.78 1473.54 L1037.78 1455.09 M1036.55 1451.02 L1042.43 1451.02 L1042.43 1473.54 L1047.36 1473.54 L1047.36 1477.43 L1042.43 1477.43 L1042.43 1485.58 L1037.78 1485.58 L1037.78 1477.43 L1022.18 1477.43 L1022.18 1472.92 L1036.55 1451.02 Z" fill="#000000" fill-rule="nonzero" fill-opacity="1" /><path clip-path="url(#clip960)" d="M1474.5 1466.44 Q1471.36 1466.44 1469.5 1468.59 Q1467.67 1470.74 1467.67 1474.49 Q1467.67 1478.22 1469.5 1480.39 Q1471.36 1482.55 1474.5 1482.55 Q1477.65 1482.55 1479.48 1480.39 Q1481.33 1478.22 1481.33 1474.49 Q1481.33 1470.74 1479.48 1468.59 Q1477.65 1466.44 1474.5 1466.44 M1483.79 1451.78 L1483.79 1456.04 Q1482.03 1455.21 1480.22 1454.77 Q1478.44 1454.33 1476.68 1454.33 Q1472.05 1454.33 1469.6 1457.45 Q1467.17 1460.58 1466.82 1466.9 Q1468.18 1464.89 1470.24 1463.82 Q1472.3 1462.73 1474.78 1462.73 Q1479.99 1462.73 1483 1465.9 Q1486.03 1469.05 1486.03 1474.49 Q1486.03 1479.82 1482.88 1483.03 Q1479.73 1486.25 1474.5 1486.25 Q1468.51 1486.25 1465.34 1481.67 Q1462.17 1477.06 1462.17 1468.33 Q1462.17 1460.14 1466.05 1455.28 Q1469.94 1450.39 1476.49 1450.39 Q1478.25 1450.39 1480.04 1450.74 Q1481.84 1451.09 1483.79 1451.78 Z" fill="#000000" fill-rule="nonzero" fill-opacity="1" /><path clip-path="url(#clip960)" d="M1913.43 1469.17 Q1910.09 1469.17 1908.17 1470.95 Q1906.27 1472.73 1906.27 1475.86 Q1906.27 1478.98 1908.17 1480.77 Q1910.09 1482.55 1913.43 1482.55 Q1916.76 1482.55 1918.68 1480.77 Q1920.6 1478.96 1920.6 1475.86 Q1920.6 1472.73 1918.68 1470.95 Q1916.78 1469.17 1913.43 1469.17 M1908.75 1467.18 Q1905.74 1466.44 1904.05 1464.38 Q1902.39 1462.32 1902.39 1459.35 Q1902.39 1455.21 1905.33 1452.8 Q1908.29 1450.39 1913.43 1450.39 Q1918.59 1450.39 1921.53 1452.8 Q1924.47 1455.21 1924.47 1459.35 Q1924.47 1462.32 1922.78 1464.38 Q1921.11 1466.44 1918.13 1467.18 Q1921.51 1467.96 1923.38 1470.26 Q1925.28 1472.55 1925.28 1475.86 Q1925.28 1480.88 1922.2 1483.57 Q1919.14 1486.25 1913.43 1486.25 Q1907.71 1486.25 1904.63 1483.57 Q1901.58 1480.88 1901.58 1475.86 Q1901.58 1472.55 1903.47 1470.26 Q1905.37 1467.96 1908.75 1467.18 M1907.04 1459.79 Q1907.04 1462.48 1908.7 1463.98 Q1910.39 1465.49 1913.43 1465.49 Q1916.44 1465.49 1918.13 1463.98 Q1919.84 1462.48 1919.84 1459.79 Q1919.84 1457.11 1918.13 1455.6 Q1916.44 1454.1 1913.43 1454.1 Q1910.39 1454.1 1908.7 1455.6 Q1907.04 1457.11 1907.04 1459.79 Z" fill="#000000" fill-rule="nonzero" fill-opacity="1" /><path clip-path="url(#clip960)" d="M2327.44 1481.64 L2335.08 1481.64 L2335.08 1455.28 L2326.77 1456.95 L2326.77 1452.69 L2335.04 1451.02 L2339.71 1451.02 L2339.71 1481.64 L2347.35 1481.64 L2347.35 1485.58 L2327.44 1485.58 L2327.44 1481.64 Z" fill="#000000" fill-rule="nonzero" fill-opacity="1" /><path clip-path="url(#clip960)" d="M2366.8 1454.1 Q2363.18 1454.1 2361.36 1457.66 Q2359.55 1461.2 2359.55 1468.33 Q2359.55 1475.44 2361.36 1479.01 Q2363.18 1482.55 2366.8 1482.55 Q2370.43 1482.55 2372.23 1479.01 Q2374.06 1475.44 2374.06 1468.33 Q2374.06 1461.2 2372.23 1457.66 Q2370.43 1454.1 2366.8 1454.1 M2366.8 1450.39 Q2372.61 1450.39 2375.66 1455 Q2378.74 1459.58 2378.74 1468.33 Q2378.74 1477.06 2375.66 1481.67 Q2372.61 1486.25 2366.8 1486.25 Q2360.99 1486.25 2357.91 1481.67 Q2354.85 1477.06 2354.85 1468.33 Q2354.85 1459.58 2357.91 1455 Q2360.99 1450.39 2366.8 1450.39 Z" fill="#000000" fill-rule="nonzero" fill-opacity="1" /><path clip-path="url(#clip960)" d="M1253.5 1522.27 L1253.5 1532.4 L1265.56 1532.4 L1265.56 1536.95 L1253.5 1536.95 L1253.5 1556.3 Q1253.5 1560.66 1254.67 1561.9 Q1255.88 1563.14 1259.54 1563.14 L1265.56 1563.14 L1265.56 1568.04 L1259.54 1568.04 Q1252.76 1568.04 1250.18 1565.53 Q1247.61 1562.98 1247.61 1556.3 L1247.61 1536.95 L1243.31 1536.95 L1243.31 1532.4 L1247.61 1532.4 L1247.61 1522.27 L1253.5 1522.27 Z" fill="#000000" fill-rule="nonzero" fill-opacity="1" /><polyline clip-path="url(#clip960)" style="stroke:#000000; stroke-linecap:round; stroke-linejoin:round; stroke-width:4; stroke-opacity:1; fill:none" points="156.112,1423.18 156.112,47.2441 "/>
<polyline clip-path="url(#clip960)" style="stroke:#000000; stroke-linecap:round; stroke-linejoin:round; stroke-width:4; stroke-opacity:1; fill:none" points="156.112,1411.41 175.01,1411.41 "/>
<polyline clip-path="url(#clip960)" style="stroke:#000000; stroke-linecap:round; stroke-linejoin:round; stroke-width:4; stroke-opacity:1; fill:none" points="156.112,1163.53 175.01,1163.53 "/>
<polyline clip-path="url(#clip960)" style="stroke:#000000; stroke-linecap:round; stroke-linejoin:round; stroke-width:4; stroke-opacity:1; fill:none" points="156.112,915.659 175.01,915.659 "/>
<polyline clip-path="url(#clip960)" style="stroke:#000000; stroke-linecap:round; stroke-linejoin:round; stroke-width:4; stroke-opacity:1; fill:none" points="156.112,667.784 175.01,667.784 "/>
<polyline clip-path="url(#clip960)" style="stroke:#000000; stroke-linecap:round; stroke-linejoin:round; stroke-width:4; stroke-opacity:1; fill:none" points="156.112,419.908 175.01,419.908 "/>
<polyline clip-path="url(#clip960)" style="stroke:#000000; stroke-linecap:round; stroke-linejoin:round; stroke-width:4; stroke-opacity:1; fill:none" points="156.112,172.033 175.01,172.033 "/>
<path clip-path="url(#clip960)" d="M62.9365 1397.21 Q59.3254 1397.21 57.4967 1400.77 Q55.6912 1404.31 55.6912 1411.44 Q55.6912 1418.55 57.4967 1422.11 Q59.3254 1425.66 62.9365 1425.66 Q66.5707 1425.66 68.3763 1422.11 Q70.205 1418.55 70.205 1411.44 Q70.205 1404.31 68.3763 1400.77 Q66.5707 1397.21 62.9365 1397.21 M62.9365 1393.5 Q68.7467 1393.5 71.8022 1398.11 Q74.8809 1402.69 74.8809 1411.44 Q74.8809 1420.17 71.8022 1424.78 Q68.7467 1429.36 62.9365 1429.36 Q57.1264 1429.36 54.0477 1424.78 Q50.9921 1420.17 50.9921 1411.44 Q50.9921 1402.69 54.0477 1398.11 Q57.1264 1393.5 62.9365 1393.5 Z" fill="#000000" fill-rule="nonzero" fill-opacity="1" /><path clip-path="url(#clip960)" d="M83.0984 1422.81 L87.9827 1422.81 L87.9827 1428.69 L83.0984 1428.69 L83.0984 1422.81 Z" fill="#000000" fill-rule="nonzero" fill-opacity="1" /><path clip-path="url(#clip960)" d="M108.168 1397.21 Q104.557 1397.21 102.728 1400.77 Q100.922 1404.31 100.922 1411.44 Q100.922 1418.55 102.728 1422.11 Q104.557 1425.66 108.168 1425.66 Q111.802 1425.66 113.608 1422.11 Q115.436 1418.55 115.436 1411.44 Q115.436 1404.31 113.608 1400.77 Q111.802 1397.21 108.168 1397.21 M108.168 1393.5 Q113.978 1393.5 117.033 1398.11 Q120.112 1402.69 120.112 1411.44 Q120.112 1420.17 117.033 1424.78 Q113.978 1429.36 108.168 1429.36 Q102.358 1429.36 99.2789 1424.78 Q96.2234 1420.17 96.2234 1411.44 Q96.2234 1402.69 99.2789 1398.11 Q102.358 1393.5 108.168 1393.5 Z" fill="#000000" fill-rule="nonzero" fill-opacity="1" /><path clip-path="url(#clip960)" d="M63.9319 1149.33 Q60.3208 1149.33 58.4921 1152.9 Q56.6865 1156.44 56.6865 1163.57 Q56.6865 1170.67 58.4921 1174.24 Q60.3208 1177.78 63.9319 1177.78 Q67.5661 1177.78 69.3717 1174.24 Q71.2004 1170.67 71.2004 1163.57 Q71.2004 1156.44 69.3717 1152.9 Q67.5661 1149.33 63.9319 1149.33 M63.9319 1145.63 Q69.742 1145.63 72.7976 1150.24 Q75.8763 1154.82 75.8763 1163.57 Q75.8763 1172.3 72.7976 1176.9 Q69.742 1181.48 63.9319 1181.48 Q58.1217 1181.48 55.043 1176.9 Q51.9875 1172.3 51.9875 1163.57 Q51.9875 1154.82 55.043 1150.24 Q58.1217 1145.63 63.9319 1145.63 Z" fill="#000000" fill-rule="nonzero" fill-opacity="1" /><path clip-path="url(#clip960)" d="M84.0938 1174.93 L88.978 1174.93 L88.978 1180.81 L84.0938 1180.81 L84.0938 1174.93 Z" fill="#000000" fill-rule="nonzero" fill-opacity="1" /><path clip-path="url(#clip960)" d="M99.2095 1146.25 L117.566 1146.25 L117.566 1150.19 L103.492 1150.19 L103.492 1158.66 Q104.51 1158.31 105.529 1158.15 Q106.547 1157.97 107.566 1157.97 Q113.353 1157.97 116.733 1161.14 Q120.112 1164.31 120.112 1169.73 Q120.112 1175.3 116.64 1178.41 Q113.168 1181.48 106.848 1181.48 Q104.672 1181.48 102.404 1181.11 Q100.159 1180.74 97.7511 1180 L97.7511 1175.3 Q99.8345 1176.44 102.057 1176.99 Q104.279 1177.55 106.756 1177.55 Q110.76 1177.55 113.098 1175.44 Q115.436 1173.34 115.436 1169.73 Q115.436 1166.11 113.098 1164.01 Q110.76 1161.9 106.756 1161.9 Q104.881 1161.9 103.006 1162.32 Q101.154 1162.74 99.2095 1163.61 L99.2095 1146.25 Z" fill="#000000" fill-rule="nonzero" fill-opacity="1" /><path clip-path="url(#clip960)" d="M53.7467 929.003 L61.3856 929.003 L61.3856 902.638 L53.0754 904.304 L53.0754 900.045 L61.3393 898.379 L66.0152 898.379 L66.0152 929.003 L73.654 929.003 L73.654 932.939 L53.7467 932.939 L53.7467 929.003 Z" fill="#000000" fill-rule="nonzero" fill-opacity="1" /><path clip-path="url(#clip960)" d="M83.0984 927.059 L87.9827 927.059 L87.9827 932.939 L83.0984 932.939 L83.0984 927.059 Z" fill="#000000" fill-rule="nonzero" fill-opacity="1" /><path clip-path="url(#clip960)" d="M108.168 901.457 Q104.557 901.457 102.728 905.022 Q100.922 908.564 100.922 915.693 Q100.922 922.8 102.728 926.365 Q104.557 929.906 108.168 929.906 Q111.802 929.906 113.608 926.365 Q115.436 922.8 115.436 915.693 Q115.436 908.564 113.608 905.022 Q111.802 901.457 108.168 901.457 M108.168 897.754 Q113.978 897.754 117.033 902.36 Q120.112 906.943 120.112 915.693 Q120.112 924.42 117.033 929.027 Q113.978 933.61 108.168 933.61 Q102.358 933.61 99.2789 929.027 Q96.2234 924.42 96.2234 915.693 Q96.2234 906.943 99.2789 902.36 Q102.358 897.754 108.168 897.754 Z" fill="#000000" fill-rule="nonzero" fill-opacity="1" /><path clip-path="url(#clip960)" d="M54.7421 681.128 L62.381 681.128 L62.381 654.763 L54.0708 656.429 L54.0708 652.17 L62.3347 650.504 L67.0106 650.504 L67.0106 681.128 L74.6494 681.128 L74.6494 685.064 L54.7421 685.064 L54.7421 681.128 Z" fill="#000000" fill-rule="nonzero" fill-opacity="1" /><path clip-path="url(#clip960)" d="M84.0938 679.184 L88.978 679.184 L88.978 685.064 L84.0938 685.064 L84.0938 679.184 Z" fill="#000000" fill-rule="nonzero" fill-opacity="1" /><path clip-path="url(#clip960)" d="M99.2095 650.504 L117.566 650.504 L117.566 654.439 L103.492 654.439 L103.492 662.911 Q104.51 662.564 105.529 662.402 Q106.547 662.216 107.566 662.216 Q113.353 662.216 116.733 665.388 Q120.112 668.559 120.112 673.976 Q120.112 679.554 116.64 682.656 Q113.168 685.735 106.848 685.735 Q104.672 685.735 102.404 685.364 Q100.159 684.994 97.7511 684.253 L97.7511 679.554 Q99.8345 680.689 102.057 681.244 Q104.279 681.8 106.756 681.8 Q110.76 681.8 113.098 679.693 Q115.436 677.587 115.436 673.976 Q115.436 670.365 113.098 668.258 Q110.76 666.152 106.756 666.152 Q104.881 666.152 103.006 666.568 Q101.154 666.985 99.2095 667.865 L99.2095 650.504 Z" fill="#000000" fill-rule="nonzero" fill-opacity="1" /><path clip-path="url(#clip960)" d="M56.9643 433.253 L73.2837 433.253 L73.2837 437.188 L51.3393 437.188 L51.3393 433.253 Q54.0014 430.499 58.5847 425.869 Q63.1911 421.216 64.3717 419.874 Q66.617 417.351 67.4967 415.615 Q68.3994 413.855 68.3994 412.165 Q68.3994 409.411 66.455 407.675 Q64.5337 405.939 61.4319 405.939 Q59.2328 405.939 56.7791 406.703 Q54.3486 407.466 51.5708 409.017 L51.5708 404.295 Q54.3949 403.161 56.8486 402.582 Q59.3023 402.003 61.3393 402.003 Q66.7096 402.003 69.9041 404.689 Q73.0985 407.374 73.0985 411.865 Q73.0985 413.994 72.2883 415.915 Q71.5013 417.814 69.3948 420.406 Q68.8161 421.077 65.7143 424.295 Q62.6124 427.489 56.9643 433.253 Z" fill="#000000" fill-rule="nonzero" fill-opacity="1" /><path clip-path="url(#clip960)" d="M83.0984 431.309 L87.9827 431.309 L87.9827 437.188 L83.0984 437.188 L83.0984 431.309 Z" fill="#000000" fill-rule="nonzero" fill-opacity="1" /><path clip-path="url(#clip960)" d="M108.168 405.707 Q104.557 405.707 102.728 409.272 Q100.922 412.814 100.922 419.943 Q100.922 427.05 102.728 430.614 Q104.557 434.156 108.168 434.156 Q111.802 434.156 113.608 430.614 Q115.436 427.05 115.436 419.943 Q115.436 412.814 113.608 409.272 Q111.802 405.707 108.168 405.707 M108.168 402.003 Q113.978 402.003 117.033 406.61 Q120.112 411.193 120.112 419.943 Q120.112 428.67 117.033 433.276 Q113.978 437.86 108.168 437.86 Q102.358 437.86 99.2789 433.276 Q96.2234 428.67 96.2234 419.943 Q96.2234 411.193 99.2789 406.61 Q102.358 402.003 108.168 402.003 Z" fill="#000000" fill-rule="nonzero" fill-opacity="1" /><path clip-path="url(#clip960)" d="M57.9597 185.378 L74.279 185.378 L74.279 189.313 L52.3347 189.313 L52.3347 185.378 Q54.9967 182.624 59.58 177.994 Q64.1865 173.341 65.367 171.999 Q67.6124 169.476 68.492 167.739 Q69.3948 165.98 69.3948 164.29 Q69.3948 161.536 67.4504 159.8 Q65.5291 158.064 62.4272 158.064 Q60.2282 158.064 57.7745 158.827 Q55.344 159.591 52.5662 161.142 L52.5662 156.42 Q55.3903 155.286 57.8439 154.707 Q60.2976 154.128 62.3347 154.128 Q67.705 154.128 70.8994 156.814 Q74.0939 159.499 74.0939 163.989 Q74.0939 166.119 73.2837 168.04 Q72.4966 169.939 70.3902 172.531 Q69.8115 173.202 66.7096 176.42 Q63.6078 179.614 57.9597 185.378 Z" fill="#000000" fill-rule="nonzero" fill-opacity="1" /><path clip-path="url(#clip960)" d="M84.0938 183.434 L88.978 183.434 L88.978 189.313 L84.0938 189.313 L84.0938 183.434 Z" fill="#000000" fill-rule="nonzero" fill-opacity="1" /><path clip-path="url(#clip960)" d="M99.2095 154.753 L117.566 154.753 L117.566 158.689 L103.492 158.689 L103.492 167.161 Q104.51 166.814 105.529 166.651 Q106.547 166.466 107.566 166.466 Q113.353 166.466 116.733 169.638 Q120.112 172.809 120.112 178.225 Q120.112 183.804 116.64 186.906 Q113.168 189.985 106.848 189.985 Q104.672 189.985 102.404 189.614 Q100.159 189.244 97.7511 188.503 L97.7511 183.804 Q99.8345 184.938 102.057 185.494 Q104.279 186.05 106.756 186.05 Q110.76 186.05 113.098 183.943 Q115.436 181.837 115.436 178.225 Q115.436 174.614 113.098 172.508 Q110.76 170.401 106.756 170.401 Q104.881 170.401 103.006 170.818 Q101.154 171.235 99.2095 172.114 L99.2095 154.753 Z" fill="#000000" fill-rule="nonzero" fill-opacity="1" /><polyline clip-path="url(#clip961)" style="stroke:#009af9; stroke-linecap:round; stroke-linejoin:round; stroke-width:8; stroke-opacity:1; fill:none" points="156.112,1312.26 156.112,1312.26 156.243,1313.88 156.383,1313.06 156.54,1312.92 156.716,1315.01 156.915,1314.35 157.138,1317.11 157.389,1317.37 157.672,1314.9 157.99,1307.64 158.348,1303.93 158.751,1298.32 159.204,1298.75 159.713,1306.95 160.286,1298.66 160.931,1305.41 161.656,1309.74 162.473,1308.17 163.391,1297.66 164.424,1293.27 165.585,1316.92 166.893,1319.46 168.363,1324.94 170.018,1329.83 171.879,1327.48 173.973,1337.19 176.329,1331.67 178.979,1323.15 181.96,1272.27 184.794,1242.48 187.982,1263.45 191.569,1279.56 195.604,1275.86 200.143,1288.44 205.25,1271.87 208.546,1263.43 214.291,1310.18 220.754,1324.4 227.328,1336.9 234.723,1323.65 243.042,1347.14 251.903,1355.45 261.872,1365.56 273.087,1363.65 285.703,1337.28 299.897,1343.99 312.359,1315.73 326.378,1336.14 336.867,1337.65 348.668,1343.16 361.944,1352.87 376.879,1358.51 393.681,1347.52 412.583,1358.21 428.616,1380.31 446.653,1382.99 466.945,1364.76 489.774,1375.15 506.4,1378.81 525.104,1370.49 546.146,1361.15 569.819,1345.33 596.451,1369.1 615.811,1380.14 637.591,1374.52 662.094,1378.97 684.749,1384.24 709.521,1381.23 737.388,1343.07 768.739,1312.32 798.256,1272.01 820.098,1289.95 837.506,1315.96 855.88,1351.31 875.203,1369.5 896.684,1355.83 920.85,1344.68 946.099,1329.61 972.494,1355.47 990.994,1357.14 1011.81,1291.9 1031.41,1316 1048.13,1283.25 1066.93,1287.23 1082.11,1259.49 1099.2,1292.05 1113.05,1284.01 1128.63,1246.53 1144.67,1221.78 1159.19,1250.86 1171.91,1203.53 1186.22,1180.35 1198.47,1188.23 1203.57,1191.39 1214.82,1282.97 1227.49,1213.4 1241.26,1292.34 1252.45,1202.22 1265.03,1132.59 1277.73,1193.07 1287,1217.66 1297.42,1173.28 1309.15,1233.41 1318.01,1251.32 1327.97,1248.82 1339.17,1228.93 1351.74,1269.97 1362.26,1272.58 1374.09,1320.77 1386.04,1327.86 1399.49,1310.41 1414.62,1285.63 1431.26,1314.45 1443.58,1313.38 1457.43,1312.28 1472.83,1302.85 1489.05,1301.04 1504.84,1266.63 1522.6,1274.97 1536.82,1295.59 1551.3,1308.35 1567.43,1300.69 1585.23,1284.61 1589.12,1296.92 1593.49,1351.25 1598.4,1344.85 1603.94,1328.07 1610.16,1302.6 1617.16,1294.21 1625.03,1265.6 1633.9,1245.22 1643.27,1254 1652.15,1215.25 1662.14,1179.55 1671.8,1212.18 1680.37,1207.58 1690.01,1191.18 1699.58,1205.21 1708.86,1208.71 1718.52,1292.79 1729.4,1288.64 1741.63,1267.69 1743.42,1273.14 1756.45,1360.38 1771.12,1340.27 1787.61,1336.86 1803.26,1287.48 1820.85,1279.66 1835.92,1263.77 1852.33,1150.44 1867.59,1054.92 1878.3,975.749 1888.29,754.123 1890.85,282.799 1893.29,193.438 1896.03,260.043 1898.57,86.1857 1901.13,365.252 1903.64,392.608 1906.26,309.066 1908.85,225.557 1909.54,283.289 1912.05,925.275 1914.87,851.779 1918.05,875.068 1921.37,892.458 1925.11,831.665 1929.31,719.678 1933.98,705.123 1938.45,776.567 1943,824.578 1947.99,809.139 1953.53,734.667 1959.31,637.987 1965.22,533.296 1970.93,410.02 1976.49,526.565 1981.43,487.399 1986.82,689.44 1991.74,684.126 1997.17,696.609 2002.45,785.657 2007.63,868.803 2012.87,874.47 2018.6,913.38 2024.22,888.301 2030.55,842.257 2036.76,812.887 2042.92,777.67 2048.97,892.349 2054.44,912.066 2060.56,774.762 2066.95,694.638 2072.71,664.002 2078.2,788.813 2083.31,829.82 2088.69,786.457 2094.21,837.573 2099.32,890.068 2104.56,916.826 2109.9,857.492 2115.56,840.102 2120.82,791.613 2126.1,892.533 2130.96,851.326 2136.33,744.437 2141.31,839.992 2145.88,786.97 2150.76,889.696 2152.71,900.347 2157.15,1211.82 2162.15,1229.72 2167.78,1224.55 2174.11,1253.59 2180.64,1245.94 2188,1245.65 2195.77,1203.89 2204.52,1160.93 2213.22,1109.91 2221.89,1111.51 2229.83,991.052 2238.24,991.121 2245.28,995.782 2252.33,1113.29 2259.17,1050.13 2265.11,1020.23 2272.8,1253.51 2281.45,1244.13 2291.19,1311.18 2302.14,1288.31 2314.46,1275.26 2326.52,1249.82 2339.82,1243.36 2352.12,1266.77 2352.76,1257.46 "/>
<path clip-path="url(#clip960)" d="M229.334 196.789 L538.095 196.789 L538.095 93.1086 L229.334 93.1086  Z" fill="#ffffff" fill-rule="evenodd" fill-opacity="1"/>
<polyline clip-path="url(#clip960)" style="stroke:#000000; stroke-linecap:round; stroke-linejoin:round; stroke-width:4; stroke-opacity:1; fill:none" points="229.334,196.789 538.095,196.789 538.095,93.1086 229.334,93.1086 229.334,196.789 "/>
<polyline clip-path="url(#clip960)" style="stroke:#009af9; stroke-linecap:round; stroke-linejoin:round; stroke-width:8; stroke-opacity:1; fill:none" points="253.741,144.949 400.184,144.949 "/>
<path clip-path="url(#clip960)" d="M424.591 151.997 L424.591 136.303 L428.85 136.303 L428.85 151.835 Q428.85 155.516 430.285 157.368 Q431.72 159.196 434.591 159.196 Q438.04 159.196 440.031 156.997 Q442.044 154.798 442.044 151.002 L442.044 136.303 L446.304 136.303 L446.304 162.229 L442.044 162.229 L442.044 158.247 Q440.494 160.608 438.433 161.766 Q436.396 162.9 433.688 162.9 Q429.22 162.9 426.906 160.122 Q424.591 157.344 424.591 151.997 M435.308 135.678 L435.308 135.678 Z" fill="#000000" fill-rule="nonzero" fill-opacity="1" /><path clip-path="url(#clip960)" d="M454.683 126.21 L464.498 126.21 L464.498 129.52 L458.942 129.52 L458.942 165.168 L464.498 165.168 L464.498 168.479 L454.683 168.479 L454.683 126.21 Z" fill="#000000" fill-rule="nonzero" fill-opacity="1" /><path clip-path="url(#clip960)" d="M474.984 158.293 L482.623 158.293 L482.623 131.928 L474.313 133.595 L474.313 129.335 L482.577 127.669 L487.253 127.669 L487.253 158.293 L494.891 158.293 L494.891 162.229 L474.984 162.229 L474.984 158.293 Z" fill="#000000" fill-rule="nonzero" fill-opacity="1" /><path clip-path="url(#clip960)" d="M513.688 126.21 L513.688 168.479 L503.873 168.479 L503.873 165.168 L509.405 165.168 L509.405 129.52 L503.873 129.52 L503.873 126.21 L513.688 126.21 Z" fill="#000000" fill-rule="nonzero" fill-opacity="1" /></svg>
