<?xml version="1.0" encoding="utf-8"?>
<svg xmlns="http://www.w3.org/2000/svg" xmlns:xlink="http://www.w3.org/1999/xlink" width="600" height="400" viewBox="0 0 2400 1600">
<defs>
  <clipPath id="clip900">
    <rect x="0" y="0" width="2400" height="1600"/>
  </clipPath>
</defs>
<path clip-path="url(#clip900)" d="M0 1600 L2400 1600 L2400 0 L0 0  Z" fill="#ffffff" fill-rule="evenodd" fill-opacity="1"/>
<defs>
  <clipPath id="clip901">
    <rect x="112" y="47" width="2242" height="1377"/>
  </clipPath>
</defs>
<path clip-path="url(#clip900)" d="M112.177 1423.18 L2352.76 1423.18 L2352.76 47.2441 L112.177 47.2441  Z" fill="#ffffff" fill-rule="evenodd" fill-opacity="1"/>
<polyline clip-path="url(#clip901)" style="stroke:#000000; stroke-linecap:round; stroke-linejoin:round; stroke-width:2; stroke-opacity:0.1; fill:none" points="112.177,1423.18 112.177,47.2441 "/>
<polyline clip-path="url(#clip901)" style="stroke:#000000; stroke-linecap:round; stroke-linejoin:round; stroke-width:2; stroke-opacity:0.1; fill:none" points="560.293,1423.18 560.293,47.2441 "/>
<polyline clip-path="url(#clip901)" style="stroke:#000000; stroke-linecap:round; stroke-linejoin:round; stroke-width:2; stroke-opacity:0.1; fill:none" points="1008.41,1423.18 1008.41,47.2441 "/>
<polyline clip-path="url(#clip901)" style="stroke:#000000; stroke-linecap:round; stroke-linejoin:round; stroke-width:2; stroke-opacity:0.1; fill:none" points="1456.52,1423.18 1456.52,47.2441 "/>
<polyline clip-path="url(#clip901)" style="stroke:#000000; stroke-linecap:round; stroke-linejoin:round; stroke-width:2; stroke-opacity:0.1; fill:none" points="1904.64,1423.18 1904.64,47.2441 "/>
<polyline clip-path="url(#clip901)" style="stroke:#000000; stroke-linecap:round; stroke-linejoin:round; stroke-width:2; stroke-opacity:0.1; fill:none" points="2352.76,1423.18 2352.76,47.2441 "/>
<polyline clip-path="url(#clip901)" style="stroke:#000000; stroke-linecap:round; stroke-linejoin:round; stroke-width:2; stroke-opacity:0.1; fill:none" points="112.177,1128.37 2352.76,1128.37 "/>
<polyline clip-path="url(#clip901)" style="stroke:#000000; stroke-linecap:round; stroke-linejoin:round; stroke-width:2; stroke-opacity:0.1; fill:none" points="112.177,822.716 2352.76,822.716 "/>
<polyline clip-path="url(#clip901)" style="stroke:#000000; stroke-linecap:round; stroke-linejoin:round; stroke-width:2; stroke-opacity:0.1; fill:none" points="112.177,517.057 2352.76,517.057 "/>
<polyline clip-path="url(#clip901)" style="stroke:#000000; stroke-linecap:round; stroke-linejoin:round; stroke-width:2; stroke-opacity:0.1; fill:none" points="112.177,211.398 2352.76,211.398 "/>
<polyline clip-path="url(#clip900)" style="stroke:#000000; stroke-linecap:round; stroke-linejoin:round; stroke-width:4; stroke-opacity:1; fill:none" points="112.177,1423.18 2352.76,1423.18 "/>
<polyline clip-path="url(#clip900)" style="stroke:#000000; stroke-linecap:round; stroke-linejoin:round; stroke-width:4; stroke-opacity:1; fill:none" points="112.177,1423.18 112.177,1404.28 "/>
<polyline clip-path="url(#clip900)" style="stroke:#000000; stroke-linecap:round; stroke-linejoin:round; stroke-width:4; stroke-opacity:1; fill:none" points="560.293,1423.18 560.293,1404.28 "/>
<polyline clip-path="url(#clip900)" style="stroke:#000000; stroke-linecap:round; stroke-linejoin:round; stroke-width:4; stroke-opacity:1; fill:none" points="1008.41,1423.18 1008.41,1404.28 "/>
<polyline clip-path="url(#clip900)" style="stroke:#000000; stroke-linecap:round; stroke-linejoin:round; stroke-width:4; stroke-opacity:1; fill:none" points="1456.52,1423.18 1456.52,1404.28 "/>
<polyline clip-path="url(#clip900)" style="stroke:#000000; stroke-linecap:round; stroke-linejoin:round; stroke-width:4; stroke-opacity:1; fill:none" points="1904.64,1423.18 1904.64,1404.28 "/>
<polyline clip-path="url(#clip900)" style="stroke:#000000; stroke-linecap:round; stroke-linejoin:round; stroke-width:4; stroke-opacity:1; fill:none" points="2352.76,1423.18 2352.76,1404.28 "/>
<path clip-path="url(#clip900)" d="M112.177 1454.1 Q108.566 1454.1 106.737 1457.66 Q104.932 1461.2 104.932 1468.33 Q104.932 1475.44 106.737 1479.01 Q108.566 1482.55 112.177 1482.55 Q115.811 1482.55 117.617 1479.01 Q119.446 1475.44 119.446 1468.33 Q119.446 1461.2 117.617 1457.66 Q115.811 1454.1 112.177 1454.1 M112.177 1450.39 Q117.987 1450.39 121.043 1455 Q124.122 1459.58 124.122 1468.33 Q124.122 1477.06 121.043 1481.67 Q117.987 1486.25 112.177 1486.25 Q106.367 1486.25 103.288 1481.67 Q100.233 1477.06 100.233 1468.33 Q100.233 1459.58 103.288 1455 Q106.367 1450.39 112.177 1450.39 Z" fill="#000000" fill-rule="nonzero" fill-opacity="1" /><path clip-path="url(#clip900)" d="M554.946 1481.64 L571.265 1481.64 L571.265 1485.58 L549.321 1485.58 L549.321 1481.64 Q551.983 1478.89 556.566 1474.26 Q561.173 1469.61 562.353 1468.27 Q564.598 1465.74 565.478 1464.01 Q566.381 1462.25 566.381 1460.56 Q566.381 1457.8 564.436 1456.07 Q562.515 1454.33 559.413 1454.33 Q557.214 1454.33 554.761 1455.09 Q552.33 1455.86 549.552 1457.41 L549.552 1452.69 Q552.376 1451.55 554.83 1450.97 Q557.284 1450.39 559.321 1450.39 Q564.691 1450.39 567.885 1453.08 Q571.08 1455.77 571.08 1460.26 Q571.08 1462.39 570.27 1464.31 Q569.483 1466.2 567.376 1468.8 Q566.798 1469.47 563.696 1472.69 Q560.594 1475.88 554.946 1481.64 Z" fill="#000000" fill-rule="nonzero" fill-opacity="1" /><path clip-path="url(#clip900)" d="M1011.42 1455.09 L999.612 1473.54 L1011.42 1473.54 L1011.42 1455.09 M1010.19 1451.02 L1016.07 1451.02 L1016.07 1473.54 L1021 1473.54 L1021 1477.43 L1016.07 1477.43 L1016.07 1485.58 L1011.42 1485.58 L1011.42 1477.43 L995.816 1477.43 L995.816 1472.92 L1010.19 1451.02 Z" fill="#000000" fill-rule="nonzero" fill-opacity="1" /><path clip-path="url(#clip900)" d="M1456.93 1466.44 Q1453.78 1466.44 1451.93 1468.59 Q1450.1 1470.74 1450.1 1474.49 Q1450.1 1478.22 1451.93 1480.39 Q1453.78 1482.55 1456.93 1482.55 Q1460.08 1482.55 1461.91 1480.39 Q1463.76 1478.22 1463.76 1474.49 Q1463.76 1470.74 1461.91 1468.59 Q1460.08 1466.44 1456.93 1466.44 M1466.21 1451.78 L1466.21 1456.04 Q1464.45 1455.21 1462.65 1454.77 Q1460.86 1454.33 1459.11 1454.33 Q1454.48 1454.33 1452.02 1457.45 Q1449.59 1460.58 1449.24 1466.9 Q1450.61 1464.89 1452.67 1463.82 Q1454.73 1462.73 1457.21 1462.73 Q1462.42 1462.73 1465.42 1465.9 Q1468.46 1469.05 1468.46 1474.49 Q1468.46 1479.82 1465.31 1483.03 Q1462.16 1486.25 1456.93 1486.25 Q1450.93 1486.25 1447.76 1481.67 Q1444.59 1477.06 1444.59 1468.33 Q1444.59 1460.14 1448.48 1455.28 Q1452.37 1450.39 1458.92 1450.39 Q1460.68 1450.39 1462.46 1450.74 Q1464.27 1451.09 1466.21 1451.78 Z" fill="#000000" fill-rule="nonzero" fill-opacity="1" /><path clip-path="url(#clip900)" d="M1904.64 1469.17 Q1901.31 1469.17 1899.39 1470.95 Q1897.49 1472.73 1897.49 1475.86 Q1897.49 1478.98 1899.39 1480.77 Q1901.31 1482.55 1904.64 1482.55 Q1907.97 1482.55 1909.89 1480.77 Q1911.82 1478.96 1911.82 1475.86 Q1911.82 1472.73 1909.89 1470.95 Q1908 1469.17 1904.64 1469.17 M1899.96 1467.18 Q1896.96 1466.44 1895.27 1464.38 Q1893.6 1462.32 1893.6 1459.35 Q1893.6 1455.21 1896.54 1452.8 Q1899.5 1450.39 1904.64 1450.39 Q1909.8 1450.39 1912.74 1452.8 Q1915.68 1455.21 1915.68 1459.35 Q1915.68 1462.32 1913.99 1464.38 Q1912.33 1466.44 1909.34 1467.18 Q1912.72 1467.96 1914.59 1470.26 Q1916.49 1472.55 1916.49 1475.86 Q1916.49 1480.88 1913.41 1483.57 Q1910.36 1486.25 1904.64 1486.25 Q1898.92 1486.25 1895.84 1483.57 Q1892.79 1480.88 1892.79 1475.86 Q1892.79 1472.55 1894.69 1470.26 Q1896.58 1467.96 1899.96 1467.18 M1898.25 1459.79 Q1898.25 1462.48 1899.92 1463.98 Q1901.61 1465.49 1904.64 1465.49 Q1907.65 1465.49 1909.34 1463.98 Q1911.05 1462.48 1911.05 1459.79 Q1911.05 1457.11 1909.34 1455.6 Q1907.65 1454.1 1904.64 1454.1 Q1901.61 1454.1 1899.92 1455.6 Q1898.25 1457.11 1898.25 1459.79 Z" fill="#000000" fill-rule="nonzero" fill-opacity="1" /><path clip-path="url(#clip900)" d="M2327.44 1481.64 L2335.08 1481.64 L2335.08 1455.28 L2326.77 1456.95 L2326.77 1452.69 L2335.04 1451.02 L2339.71 1451.02 L2339.71 1481.64 L2347.35 1481.64 L2347.35 1485.58 L2327.44 1485.58 L2327.44 1481.64 Z" fill="#000000" fill-rule="nonzero" fill-opacity="1" /><path clip-path="url(#clip900)" d="M2366.8 1454.1 Q2363.18 1454.1 2361.36 1457.66 Q2359.55 1461.2 2359.55 1468.33 Q2359.55 1475.44 2361.36 1479.01 Q2363.18 1482.55 2366.8 1482.55 Q2370.43 1482.55 2372.23 1479.01 Q2374.06 1475.44 2374.06 1468.33 Q2374.06 1461.2 2372.23 1457.66 Q2370.43 1454.1 2366.8 1454.1 M2366.8 1450.39 Q2372.61 1450.39 2375.66 1455 Q2378.74 1459.58 2378.74 1468.33 Q2378.74 1477.06 2375.66 1481.67 Q2372.61 1486.25 2366.8 1486.25 Q2360.99 1486.25 2357.91 1481.67 Q2354.85 1477.06 2354.85 1468.33 Q2354.85 1459.58 2357.91 1455 Q2360.99 1450.39 2366.8 1450.39 Z" fill="#000000" fill-rule="nonzero" fill-opacity="1" /><path clip-path="url(#clip900)" d="M1231.53 1522.27 L1231.53 1532.4 L1243.59 1532.4 L1243.59 1536.95 L1231.53 1536.95 L1231.53 1556.3 Q1231.53 1560.66 1232.71 1561.9 Q1233.91 1563.14 1237.58 1563.14 L1243.59 1563.14 L1243.59 1568.04 L1237.58 1568.04 Q1230.8 1568.04 1228.22 1565.53 Q1225.64 1562.98 1225.64 1556.3 L1225.64 1536.95 L1221.34 1536.95 L1221.34 1532.4 L1225.64 1532.4 L1225.64 1522.27 L1231.53 1522.27 Z" fill="#000000" fill-rule="nonzero" fill-opacity="1" /><polyline clip-path="url(#clip900)" style="stroke:#000000; stroke-linecap:round; stroke-linejoin:round; stroke-width:4; stroke-opacity:1; fill:none" points="112.177,1423.18 112.177,47.2441 "/>
<polyline clip-path="url(#clip900)" style="stroke:#000000; stroke-linecap:round; stroke-linejoin:round; stroke-width:4; stroke-opacity:1; fill:none" points="112.177,1128.37 131.075,1128.37 "/>
<polyline clip-path="url(#clip900)" style="stroke:#000000; stroke-linecap:round; stroke-linejoin:round; stroke-width:4; stroke-opacity:1; fill:none" points="112.177,822.716 131.075,822.716 "/>
<polyline clip-path="url(#clip900)" style="stroke:#000000; stroke-linecap:round; stroke-linejoin:round; stroke-width:4; stroke-opacity:1; fill:none" points="112.177,517.057 131.075,517.057 "/>
<polyline clip-path="url(#clip900)" style="stroke:#000000; stroke-linecap:round; stroke-linejoin:round; stroke-width:4; stroke-opacity:1; fill:none" points="112.177,211.398 131.075,211.398 "/>
<path clip-path="url(#clip900)" d="M56.2699 1141.72 L63.9087 1141.72 L63.9087 1115.35 L55.5986 1117.02 L55.5986 1112.76 L63.8624 1111.09 L68.5383 1111.09 L68.5383 1141.72 L76.1772 1141.72 L76.1772 1145.65 L56.2699 1145.65 L56.2699 1141.72 Z" fill="#000000" fill-rule="nonzero" fill-opacity="1" /><path clip-path="url(#clip900)" d="M59.8578 836.061 L76.1772 836.061 L76.1772 839.996 L54.2328 839.996 L54.2328 836.061 Q56.8949 833.306 61.4782 828.676 Q66.0846 824.024 67.2652 822.681 Q69.5105 820.158 70.3902 818.422 Q71.2929 816.663 71.2929 814.973 Q71.2929 812.218 69.3485 810.482 Q67.4272 808.746 64.3254 808.746 Q62.1263 808.746 59.6726 809.51 Q57.2421 810.274 54.4643 811.825 L54.4643 807.102 Q57.2884 805.968 59.7421 805.389 Q62.1958 804.811 64.2328 804.811 Q69.6031 804.811 72.7976 807.496 Q75.992 810.181 75.992 814.672 Q75.992 816.801 75.1818 818.723 Q74.3948 820.621 72.2883 823.213 Q71.7096 823.885 68.6078 827.102 Q65.5059 830.297 59.8578 836.061 Z" fill="#000000" fill-rule="nonzero" fill-opacity="1" /><path clip-path="url(#clip900)" d="M69.0476 515.703 Q72.404 516.42 74.279 518.689 Q76.1772 520.957 76.1772 524.291 Q76.1772 529.406 72.6587 532.207 Q69.1402 535.008 62.6587 535.008 Q60.4828 535.008 58.168 534.568 Q55.8764 534.152 53.4227 533.295 L53.4227 528.781 Q55.3671 529.916 57.6819 530.494 Q59.9967 531.073 62.5198 531.073 Q66.918 531.073 69.2096 529.337 Q71.5244 527.601 71.5244 524.291 Q71.5244 521.235 69.3717 519.522 Q67.242 517.786 63.4226 517.786 L59.3949 517.786 L59.3949 513.943 L63.6078 513.943 Q67.0569 513.943 68.8855 512.578 Q70.7142 511.189 70.7142 508.596 Q70.7142 505.934 68.8161 504.522 Q66.9411 503.087 63.4226 503.087 Q61.5013 503.087 59.3023 503.504 Q57.1032 503.92 54.4643 504.8 L54.4643 500.633 Q57.1264 499.893 59.4412 499.522 Q61.7791 499.152 63.8393 499.152 Q69.1633 499.152 72.2652 501.582 Q75.367 503.99 75.367 508.11 Q75.367 510.981 73.7235 512.971 Q72.08 514.939 69.0476 515.703 Z" fill="#000000" fill-rule="nonzero" fill-opacity="1" /><path clip-path="url(#clip900)" d="M66.5939 198.192 L54.7884 216.641 L66.5939 216.641 L66.5939 198.192 M65.367 194.118 L71.2466 194.118 L71.2466 216.641 L76.1772 216.641 L76.1772 220.53 L71.2466 220.53 L71.2466 228.678 L66.5939 228.678 L66.5939 220.53 L50.9921 220.53 L50.9921 216.016 L65.367 194.118 Z" fill="#000000" fill-rule="nonzero" fill-opacity="1" /><polyline clip-path="url(#clip901)" style="stroke:#009af9; stroke-linecap:round; stroke-linejoin:round; stroke-width:8; stroke-opacity:1; fill:none" points="112.177,1372.9 114.42,1372.29 116.663,1371.67 118.906,1371.04 121.148,1370.4 123.391,1369.76 125.634,1369.12 127.877,1368.46 130.12,1367.8 132.363,1367.14 134.605,1366.47 136.848,1365.79 139.091,1365.1 141.334,1364.41 143.577,1363.71 145.819,1363 148.062,1362.28 150.305,1361.56 152.548,1360.83 154.791,1360.1 157.034,1359.35 159.276,1358.6 161.519,1357.84 163.762,1357.08 166.005,1356.3 168.248,1355.52 170.491,1354.73 172.733,1353.93 174.976,1353.13 177.219,1352.31 179.462,1351.49 181.705,1350.66 183.947,1349.82 186.19,1348.97 188.433,1348.12 190.676,1347.25 192.919,1346.38 195.162,1345.5 197.404,1344.61 199.647,1343.71 201.89,1342.8 204.133,1341.88 206.376,1340.95 208.619,1340.02 210.861,1339.07 213.104,1338.12 215.347,1337.15 217.59,1336.18 219.833,1335.19 222.075,1334.2 224.318,1333.19 226.561,1332.18 228.804,1331.15 231.047,1330.12 233.29,1329.07 235.532,1328.02 237.775,1326.95 240.018,1325.87 242.261,1324.79 244.504,1323.69 246.746,1322.58 248.989,1321.46 251.232,1320.32 253.475,1319.18 255.718,1318.02 257.961,1316.86 260.203,1315.68 262.446,1314.49 264.689,1313.28 266.932,1312.07 269.175,1310.84 271.418,1309.6 273.66,1308.35 275.903,1307.09 278.146,1305.81 280.389,1304.52 282.632,1303.22 284.874,1301.9 287.117,1300.57 289.36,1299.23 291.603,1297.87 293.846,1296.5 296.089,1364.58 298.331,1363.88 300.574,1363.17 302.817,1362.46 305.06,1361.74 307.303,1361.01 309.545,1360.28 311.788,1359.54 314.031,1358.79 316.274,1358.03 318.517,1357.26 320.76,1356.49 323.002,1355.71 325.245,1354.92 327.488,1354.13 329.731,1353.32 331.974,1352.51 334.217,1351.69 336.459,1350.86 338.702,1350.03 340.945,1349.18 343.188,1348.33 345.431,1347.47 347.673,1346.6 349.916,1345.72 352.159,1344.83 354.402,1343.93 356.645,1343.02 358.888,1342.11 361.13,1341.18 363.373,1340.25 365.616,1339.3 367.859,1338.35 370.102,1337.39 372.344,1336.42 374.587,1335.43 376.83,1384.24 379.073,1383.74 381.316,1383.23 383.559,1382.72 385.801,1382.2 388.044,1381.68 390.287,1381.16 392.53,1380.62 394.773,1380.09 397.016,1379.54 399.258,1379 401.501,1378.44 403.744,1377.88 405.987,1377.32 408.23,1376.75 410.472,1376.17 412.715,1375.59 414.958,1375 417.201,1374.41 419.444,1373.81 421.687,1373.2 423.929,1372.59 426.172,1371.97 428.415,1371.35 430.658,1370.72 432.901,1370.08 435.143,1369.44 437.386,1368.79 439.629,1368.13 441.872,1367.47 444.115,1366.8 446.358,1366.12 448.6,1365.44 450.843,1364.75 453.086,1364.05 455.329,1363.35 457.572,1362.63 459.815,1361.92 462.057,1361.19 464.3,1360.46 466.543,1359.72 468.786,1358.97 471.029,1358.22 473.271,1357.45 475.514,1356.68 477.757,1355.9 480,1355.12 482.243,1354.32 484.486,1353.52 486.728,1352.71 488.971,1351.89 491.214,1351.07 493.457,1350.23 495.7,1349.39 497.942,1348.54 500.185,1347.68 502.428,1346.81 504.671,1345.93 506.914,1345.05 509.157,1344.15 511.399,1343.25 513.642,1342.33 515.885,1341.41 518.128,1340.48 520.371,1339.54 522.614,1338.59 524.856,1337.63 527.099,1336.66 529.342,1335.68 531.585,1334.69 533.828,1333.69 536.07,1332.68 538.313,1331.66 540.556,1330.63 542.799,1329.59 545.042,1328.54 547.285,1327.48 549.527,1326.41 551.77,1325.32 554.013,1324.23 556.256,1323.12 558.499,1322.01 560.741,1320.88 562.984,1319.74 565.227,1318.59 567.47,1317.43 569.713,1316.26 571.956,1315.07 574.198,1313.88 576.441,1312.67 578.684,1311.45 580.927,1310.21 583.17,1308.97 585.413,1307.71 587.655,1306.44 589.898,1305.16 592.141,1303.86 594.384,1302.55 596.627,1301.23 598.869,1299.89 601.112,1298.54 603.355,1297.18 605.598,1295.8 607.841,1294.41 610.084,1293.01 612.326,1291.59 614.569,1290.15 616.812,1288.71 619.055,1287.24 621.298,1285.77 623.54,1284.28 625.783,1282.77 628.026,1281.25 630.269,1279.71 632.512,1278.16 634.755,1276.59 636.997,1275.01 639.24,1273.41 641.483,1271.79 643.726,1270.16 645.969,1268.51 648.212,1266.84 650.454,1265.16 652.697,1263.46 654.94,1261.75 657.183,1260.02 659.426,1258.26 661.668,1256.5 663.911,1254.71 666.154,1252.91 668.397,1251.08 670.64,1249.24 672.883,1247.38 675.125,1245.51 677.368,1243.61 679.611,1241.69 681.854,1239.76 684.097,1237.8 686.339,1235.83 688.582,1233.84 690.825,1231.82 693.068,1229.79 695.311,1227.73 697.554,1225.66 699.796,1223.56 702.039,1221.44 704.282,1219.3 706.525,1217.14 708.768,1214.96 711.011,1212.76 713.253,1210.53 715.496,1208.28 717.739,1206.01 719.982,1203.72 722.225,1201.4 724.467,1199.06 726.71,1196.7 728.953,1194.31 731.196,1191.9 733.439,1189.46 735.682,1187 737.924,1184.52 740.167,1182.01 742.41,1179.47 744.653,1176.91 746.896,1174.32 749.138,1171.71 751.381,1169.07 753.624,1166.41 755.867,1163.71 758.11,1160.99 760.353,1158.25 762.595,1155.47 764.838,1152.67 767.081,1149.84 769.324,1146.98 771.567,1144.09 773.81,1141.18 776.052,1138.23 778.295,1135.26 780.538,1132.25 782.781,1129.22 785.024,1126.15 787.266,1123.05 789.509,1119.92 791.752,1116.76 793.995,1113.57 796.238,1110.35 798.481,1107.09 800.723,1103.8 802.966,1100.48 805.209,1097.13 807.452,1093.74 809.695,1090.31 811.938,1086.86 814.18,1083.36 816.423,1079.84 818.666,1076.27 820.909,1072.67 823.152,1069.04 825.394,1065.37 827.637,1061.66 829.88,1057.91 832.123,1054.13 834.366,1050.3 836.609,1046.44 838.851,1042.54 841.094,1038.6 843.337,1034.62 845.58,1030.61 847.823,1026.55 850.065,1022.45 852.308,1018.31 854.551,1014.12 856.794,1009.9 859.037,1005.63 861.28,1001.32 863.522,996.968 865.765,992.571 868.008,988.13 870.251,983.644 872.494,1206.57 874.737,1204.28 876.979,1201.97 879.222,1199.64 881.465,1197.28 883.708,1194.9 885.951,1192.49 888.193,1190.06 890.436,1187.61 892.679,1185.13 894.922,1182.62 897.165,1180.1 899.408,1177.54 901.65,1174.96 903.893,1172.35 906.136,1169.72 908.379,1167.06 910.622,1164.38 912.864,1161.66 915.107,1158.92 917.35,1156.16 919.593,1153.36 921.836,1150.54 924.079,1147.69 926.321,1144.81 928.564,1141.9 930.807,1138.96 933.05,1135.99 935.293,1132.99 937.536,1129.96 939.778,1126.91 942.021,1123.82 944.264,1120.7 946.507,1117.54 948.75,1114.36 950.992,1111.14 953.235,1107.9 955.478,1104.62 957.721,1101.3 959.964,1097.95 962.207,1094.57 964.449,1091.16 966.692,1087.71 968.935,1084.23 971.178,1080.71 973.421,1077.15 975.663,1073.56 977.906,1069.93 980.149,1066.27 982.392,1062.57 984.635,1058.83 986.878,1055.06 989.12,1051.25 991.363,1047.39 993.606,1043.5 995.849,1039.58 998.092,1035.61 1000.33,1031.6 1002.58,1027.55 1004.82,1023.46 1007.06,1019.33 1009.31,1015.16 1011.55,1010.94 1013.79,1006.68 1016.03,1002.39 1018.28,998.042 1020.52,993.656 1022.76,989.226 1025.01,984.751 1027.25,980.231 1029.49,975.665 1031.73,971.053 1033.98,966.395 1036.22,961.69 1038.46,956.938 1040.71,952.138 1042.95,947.29 1045.19,942.393 1047.43,937.446 1049.68,932.45 1051.92,927.404 1054.16,922.308 1056.41,917.16 1058.65,911.96 1060.89,906.708 1063.13,901.404 1065.38,896.046 1067.62,890.635 1069.86,885.169 1072.1,879.648 1074.35,874.072 1076.59,868.44 1078.83,862.751 1081.08,857.005 1083.32,851.201 1085.56,845.339 1087.8,839.419 1090.05,833.438 1092.29,827.398 1094.53,821.297 1096.78,815.134 1099.02,808.91 1101.26,802.622 1103.5,796.272 1105.75,789.858 1107.99,783.379 1110.23,776.835 1112.48,770.225 1114.72,763.548 1116.96,756.804 1119.2,749.993 1121.45,743.112 1123.69,736.163 1125.93,729.143 1128.18,722.052 1130.42,714.89 1132.66,707.656 1134.9,700.349 1137.15,692.969 1139.39,685.513 1141.63,677.983 1143.88,670.377 1146.12,662.694 1148.36,654.934 1150.6,647.095 1152.85,639.177 1155.09,631.18 1157.33,623.102 1159.57,614.942 1161.82,606.7 1164.06,598.376 1166.3,589.967 1168.55,581.474 1170.79,572.895 1173.03,564.229 1175.27,555.477 1177.52,546.636 1179.76,537.706 1182,528.687 1184.25,519.576 1186.49,510.375 1188.73,501.08 1190.97,491.692 1193.22,482.21 1195.46,472.633 1197.7,462.96 1199.95,453.189 1202.19,443.321 1204.43,433.354 1206.67,423.286 1208.92,413.118 1211.16,402.847 1213.4,392.473 1215.65,381.995 1217.89,371.411 1220.13,360.721 1222.37,349.923 1224.62,339.017 1226.86,328 1229.1,316.873 1231.35,305.635 1233.59,294.283 1235.83,282.816 1238.07,271.235 1240.32,259.537 1242.56,247.721 1244.8,235.786 1247.04,223.732 1249.29,211.556 1251.53,199.257 1253.77,186.835 1256.02,804.161 1258.26,797.824 1260.5,791.424 1262.74,784.958 1264.99,778.428 1267.23,771.832 1269.47,765.17 1271.72,758.44 1273.96,751.643 1276.2,744.778 1278.44,737.844 1280.69,730.84 1282.93,723.765 1285.17,716.62 1287.42,709.403 1289.66,702.113 1291.9,694.75 1294.14,687.314 1296.39,679.802 1298.63,672.215 1300.87,664.552 1303.12,656.812 1305.36,648.994 1307.6,641.098 1309.84,633.122 1312.09,625.067 1314.33,616.93 1316.57,608.711 1318.82,600.41 1321.06,592.026 1323.3,583.557 1325.54,575.003 1327.79,566.363 1330.03,557.636 1332.27,548.821 1334.51,539.917 1336.76,530.924 1339,521.841 1341.24,512.665 1343.49,503.398 1345.73,494.037 1347.97,484.582 1350.21,475.031 1352.46,465.385 1354.7,455.641 1356.94,445.799 1359.19,435.858 1361.43,425.817 1363.67,415.674 1365.91,405.429 1368.16,395.081 1370.4,384.629 1372.64,374.071 1374.89,363.407 1377.13,352.635 1379.37,341.755 1381.61,330.765 1383.86,319.665 1386.1,308.452 1388.34,297.127 1390.59,285.687 1392.83,274.133 1395.07,262.461 1397.31,250.673 1399.56,238.766 1401.8,226.738 1404.04,214.59 1406.29,202.32 1408.53,189.926 1410.77,177.407 1413.01,164.763 1415.26,151.992 1417.5,139.092 1419.74,126.063 1421.98,112.903 1424.23,99.611 1426.47,86.1857 1428.71,753.331 1430.96,746.483 1433.2,739.566 1435.44,732.579 1437.68,725.522 1439.93,718.394 1442.17,711.194 1444.41,703.922 1446.66,696.577 1448.9,689.158 1451.14,681.664 1453.38,674.095 1455.63,666.45 1457.87,658.728 1460.11,650.928 1462.36,643.05 1464.6,635.093 1466.84,627.056 1469.08,618.938 1471.33,610.738 1473.57,602.456 1475.81,594.091 1478.06,585.642 1480.3,577.107 1482.54,568.487 1484.78,559.781 1487.03,550.986 1489.27,542.104 1491.51,533.131 1493.76,524.069 1496,514.916 1498.24,505.67 1500.48,496.331 1502.73,486.898 1504.97,477.371 1507.21,467.747 1509.46,458.027 1511.7,448.209 1513.94,438.291 1516.18,428.274 1518.43,418.156 1520.67,407.937 1522.91,397.614 1525.15,387.187 1527.4,376.656 1529.64,366.018 1531.88,355.273 1534.13,344.42 1536.37,333.457 1538.61,322.385 1540.85,311.2 1543.1,299.903 1545.34,288.493 1547.58,276.967 1549.83,265.326 1552.07,253.567 1554.31,241.69 1556.55,229.694 1558.8,217.577 1561.04,205.338 1563.28,192.976 1565.53,180.489 1567.77,167.878 1570.01,155.139 1572.25,142.273 1574.5,781.679 1576.74,775.116 1578.98,768.487 1581.23,761.791 1583.47,755.028 1585.71,748.197 1587.95,741.297 1590.2,734.328 1592.44,727.289 1594.68,720.179 1596.93,712.998 1599.17,705.744 1601.41,698.417 1603.65,691.016 1605.9,683.542 1608.14,675.991 1610.38,668.365 1612.62,660.662 1614.87,652.882 1617.11,645.024 1619.35,637.086 1621.6,629.068 1623.84,620.97 1626.08,612.791 1628.32,604.529 1630.57,596.184 1632.81,587.755 1635.05,579.241 1637.3,1002.34 1639.54,998 1641.78,993.613 1644.02,989.182 1646.27,984.706 1648.51,980.186 1650.75,975.62 1653,971.008 1655.24,966.349 1657.48,961.644 1659.72,956.891 1661.97,952.091 1664.21,947.243 1666.45,942.346 1668.7,937.399 1670.94,932.403 1673.18,927.357 1675.42,922.26 1677.67,917.112 1679.91,911.912 1682.15,906.66 1684.4,901.356 1686.64,895.997 1688.88,890.586 1691.12,885.119 1693.37,879.598 1695.61,874.022 1697.85,868.389 1700.09,862.7 1702.34,856.953 1704.58,851.149 1706.82,845.286 1709.07,839.364 1711.31,833.383 1713.55,827.342 1715.79,821.239 1718.04,815.076 1720.28,808.85 1722.52,802.562 1724.77,796.21 1727.01,789.794 1729.25,783.314 1731.49,776.768 1733.74,770.157 1735.98,763.479 1738.22,756.733 1740.47,749.92 1742.71,743.038 1744.95,736.086 1747.19,729.065 1749.44,721.972 1751.68,714.809 1753.92,707.573 1756.17,700.264 1758.41,692.881 1760.65,685.424 1762.89,677.892 1765.14,670.284 1767.38,662.6 1769.62,654.838 1771.87,646.997 1774.11,639.078 1776.35,631.079 1778.59,623 1780.84,614.839 1783.08,606.596 1785.32,598.27 1787.56,589.861 1789.81,581.366 1792.05,572.787 1794.29,564.121 1796.54,555.368 1798.78,546.528 1801.02,537.598 1803.26,528.579 1805.51,519.469 1807.75,972.153 1809.99,967.507 1812.24,962.813 1814.48,958.072 1816.72,953.284 1818.96,948.447 1821.21,943.562 1823.45,938.628 1825.69,933.644 1827.94,928.61 1830.18,923.525 1832.42,918.389 1834.66,913.202 1836.91,907.962 1839.15,902.67 1841.39,897.324 1843.64,891.925 1845.88,886.471 1848.12,880.963 1850.36,875.399 1852.61,869.779 1854.85,864.103 1857.09,858.369 1859.34,852.578 1861.58,846.729 1863.82,840.82 1866.06,834.853 1868.31,828.825 1870.55,822.737 1872.79,816.587 1875.03,810.375 1877.28,804.101 1879.52,797.764 1881.76,791.363 1884.01,784.897 1886.25,778.367 1888.49,771.771 1890.73,765.108 1892.98,758.378 1895.22,751.581 1897.46,744.715 1899.71,737.78 1901.95,730.775 1904.19,723.7 1906.43,716.554 1908.68,709.336 1910.92,702.045 1913.16,694.681 1915.41,687.242 1917.65,679.729 1919.89,1053.11 1922.13,1049.28 1924.38,1045.41 1926.62,1041.5 1928.86,1037.55 1931.11,1033.56 1933.35,1029.53 1935.59,1025.46 1937.83,1021.35 1940.08,1017.2 1942.32,1013 1944.56,1008.77 1946.81,1004.49 1949.05,1000.17 1951.29,995.803 1953.53,991.395 1955.78,986.942 1958.02,982.444 1960.26,977.901 1962.5,973.312 1964.75,968.677 1966.99,963.996 1969.23,959.267 1971.48,954.491 1973.72,949.666 1975.96,944.793 1978.2,939.872 1980.45,934.9 1982.69,929.879 1984.93,924.807 1987.18,919.684 1989.42,914.509 1991.66,909.283 1993.9,904.003 1996.15,898.671 1998.39,893.285 2000.63,1160.95 2002.88,1158.2 2005.12,1155.43 2007.36,1152.62 2009.6,1149.79 2011.85,1146.93 2014.09,1144.04 2016.33,1141.13 2018.58,1138.18 2020.82,1135.2 2023.06,1132.2 2025.3,1129.16 2027.55,1126.09 2029.79,1122.99 2032.03,1119.87 2034.28,1116.71 2036.52,1113.51 2038.76,1110.29 2041,1107.03 2043.25,1103.74 2045.49,1100.42 2047.73,1097.06 2049.97,1093.68 2052.22,1090.25 2054.46,1086.79 2056.7,1083.3 2058.95,1079.77 2061.19,1076.21 2063.43,1072.61 2065.67,1068.98 2067.92,1065.3 2070.16,1061.6 2072.4,1057.85 2074.65,1054.07 2076.89,1050.24 2079.13,1046.38 2081.37,1042.49 2083.62,1038.55 2085.86,1034.57 2088.1,1030.55 2090.35,1026.49 2092.59,1022.39 2094.83,1018.25 2097.07,1014.07 2099.32,1009.85 2101.56,1005.58 2103.8,1001.27 2106.05,996.918 2108.29,992.521 2110.53,988.079 2112.77,983.593 2115.02,979.061 2117.26,974.484 2119.5,969.861 2121.75,965.191 2123.99,960.474 2126.23,955.709 2128.47,950.897 2130.72,946.036 2132.96,941.126 2135.2,936.166 2137.45,931.157 2139.69,926.097 2141.93,920.986 2144.17,915.823 2146.42,910.609 2148.66,905.342 2150.9,900.022 2153.14,894.648 2155.39,889.221 2157.63,883.739 2159.87,878.201 2162.12,872.608 2164.36,866.959 2166.6,861.253 2168.84,855.49 2171.09,849.669 2173.33,843.79 2175.57,837.851 2177.82,831.853 2180.06,825.795 2182.3,819.676 2184.54,813.495 2186.79,807.252 2189.03,800.947 2191.27,794.578 2193.52,788.145 2195.76,781.647 2198,775.084 2200.24,768.454 2202.49,761.758 2204.73,754.995 2206.97,748.164 2209.22,741.264 2211.46,734.295 2213.7,727.255 2215.94,720.145 2218.19,712.963 2220.43,705.709 2222.67,698.382 2224.92,690.981 2227.16,683.506 2229.4,675.955 2231.64,668.329 2233.89,660.626 2236.13,652.845 2238.37,644.986 2240.61,637.048 2242.86,629.03 2245.1,620.932 2247.34,612.752 2249.59,604.489 2251.83,596.144 2254.07,587.714 2256.31,579.2 2258.56,570.6 2260.8,561.913 2263.04,553.14 2265.29,544.278 2267.53,535.326 2269.77,980.177 2272.01,1204.82 2274.26,1202.52 2276.5,1200.19 2278.74,1197.83 2280.99,1195.46 2283.23,1193.06 2285.47,1190.63 2287.71,1188.19 2289.96,1185.71 2292.2,1183.21 2294.44,1180.69 2296.69,1178.14 2298.93,1175.57 2301.17,1172.97 2303.41,1170.34 2305.66,1167.69 2307.9,1165.01 2310.14,1162.3 2312.39,1159.57 2314.63,1156.81 2316.87,1294.03 2319.11,1292.62 2321.36,1291.19 2323.6,1289.76 2325.84,1288.31 2328.08,1286.84 2330.33,1285.36 2332.57,1283.86 2334.81,1282.35 2337.06,1280.83 2339.3,1279.29 2341.54,1277.73 2343.78,1276.16 2346.03,1274.57 2348.27,1272.96 2350.51,1271.34 2352.76,1269.71 "/>
<path clip-path="url(#clip900)" d="M1964.92 196.789 L2278.07 196.789 L2278.07 93.1086 L1964.92 93.1086  Z" fill="#ffffff" fill-rule="evenodd" fill-opacity="1"/>
<polyline clip-path="url(#clip900)" style="stroke:#000000; stroke-linecap:round; stroke-linejoin:round; stroke-width:4; stroke-opacity:1; fill:none" points="1964.92,196.789 2278.07,196.789 2278.07,93.1086 1964.92,93.1086 1964.92,196.789 "/>
<polyline clip-path="url(#clip900)" style="stroke:#009af9; stroke-linecap:round; stroke-linejoin:round; stroke-width:8; stroke-opacity:1; fill:none" points="1989.81,144.949 2139.18,144.949 "/>
<path clip-path="url(#clip900)" d="M2164.08 151.997 L2164.08 136.303 L2168.34 136.303 L2168.34 151.835 Q2168.34 155.516 2169.77 157.368 Q2171.21 159.196 2174.08 159.196 Q2177.53 159.196 2179.52 156.997 Q2181.53 154.798 2181.53 151.002 L2181.53 136.303 L2185.79 136.303 L2185.79 162.229 L2181.53 162.229 L2181.53 158.247 Q2179.98 160.608 2177.92 161.766 Q2175.88 162.9 2173.18 162.9 Q2168.71 162.9 2166.39 160.122 Q2164.08 157.344 2164.08 151.997 M2174.8 135.678 L2174.8 135.678 Z" fill="#000000" fill-rule="nonzero" fill-opacity="1" /><path clip-path="url(#clip900)" d="M2194.17 126.21 L2203.99 126.21 L2203.99 129.52 L2198.43 129.52 L2198.43 165.168 L2203.99 165.168 L2203.99 168.479 L2194.17 168.479 L2194.17 126.21 Z" fill="#000000" fill-rule="nonzero" fill-opacity="1" /><path clip-path="url(#clip900)" d="M2214.47 158.293 L2222.11 158.293 L2222.11 131.928 L2213.8 133.595 L2213.8 129.335 L2222.06 127.669 L2226.74 127.669 L2226.74 158.293 L2234.38 158.293 L2234.38 162.229 L2214.47 162.229 L2214.47 158.293 Z" fill="#000000" fill-rule="nonzero" fill-opacity="1" /><path clip-path="url(#clip900)" d="M2253.17 126.21 L2253.17 168.479 L2243.36 168.479 L2243.36 165.168 L2248.89 165.168 L2248.89 129.52 L2243.36 129.52 L2243.36 126.21 L2253.17 126.21 Z" fill="#000000" fill-rule="nonzero" fill-opacity="1" /></svg>
