<?xml version="1.0" encoding="utf-8"?>
<svg xmlns="http://www.w3.org/2000/svg" xmlns:xlink="http://www.w3.org/1999/xlink" width="600" height="400" viewBox="0 0 2400 1600">
<defs>
  <clipPath id="clip310">
    <rect x="0" y="0" width="2400" height="1600"/>
  </clipPath>
</defs>
<path clip-path="url(#clip310)" d="M0 1600 L2400 1600 L2400 0 L0 0  Z" fill="#ffffff" fill-rule="evenodd" fill-opacity="1"/>
<defs>
  <clipPath id="clip311">
    <rect x="480" y="0" width="1681" height="1600"/>
  </clipPath>
</defs>
<path clip-path="url(#clip310)" d="M140.696 1423.18 L2352.76 1423.18 L2352.76 47.2441 L140.696 47.2441  Z" fill="#ffffff" fill-rule="evenodd" fill-opacity="1"/>
<defs>
  <clipPath id="clip312">
    <rect x="140" y="47" width="2213" height="1377"/>
  </clipPath>
</defs>
<polyline clip-path="url(#clip312)" style="stroke:#000000; stroke-linecap:round; stroke-linejoin:round; stroke-width:2; stroke-opacity:0.1; fill:none" points="576.735,1423.18 576.735,47.2441 "/>
<polyline clip-path="url(#clip312)" style="stroke:#000000; stroke-linecap:round; stroke-linejoin:round; stroke-width:2; stroke-opacity:0.1; fill:none" points="1020.82,1423.18 1020.82,47.2441 "/>
<polyline clip-path="url(#clip312)" style="stroke:#000000; stroke-linecap:round; stroke-linejoin:round; stroke-width:2; stroke-opacity:0.1; fill:none" points="1464.9,1423.18 1464.9,47.2441 "/>
<polyline clip-path="url(#clip312)" style="stroke:#000000; stroke-linecap:round; stroke-linejoin:round; stroke-width:2; stroke-opacity:0.1; fill:none" points="1908.98,1423.18 1908.98,47.2441 "/>
<polyline clip-path="url(#clip312)" style="stroke:#000000; stroke-linecap:round; stroke-linejoin:round; stroke-width:2; stroke-opacity:0.1; fill:none" points="140.696,1387.97 2352.76,1387.97 "/>
<polyline clip-path="url(#clip312)" style="stroke:#000000; stroke-linecap:round; stroke-linejoin:round; stroke-width:2; stroke-opacity:0.1; fill:none" points="140.696,976.432 2352.76,976.432 "/>
<polyline clip-path="url(#clip312)" style="stroke:#000000; stroke-linecap:round; stroke-linejoin:round; stroke-width:2; stroke-opacity:0.1; fill:none" points="140.696,564.899 2352.76,564.899 "/>
<polyline clip-path="url(#clip312)" style="stroke:#000000; stroke-linecap:round; stroke-linejoin:round; stroke-width:2; stroke-opacity:0.1; fill:none" points="140.696,153.365 2352.76,153.365 "/>
<polyline clip-path="url(#clip310)" style="stroke:#000000; stroke-linecap:round; stroke-linejoin:round; stroke-width:4; stroke-opacity:1; fill:none" points="140.696,1423.18 2352.76,1423.18 "/>
<polyline clip-path="url(#clip310)" style="stroke:#000000; stroke-linecap:round; stroke-linejoin:round; stroke-width:4; stroke-opacity:1; fill:none" points="576.735,1423.18 576.735,1404.28 "/>
<polyline clip-path="url(#clip310)" style="stroke:#000000; stroke-linecap:round; stroke-linejoin:round; stroke-width:4; stroke-opacity:1; fill:none" points="1020.82,1423.18 1020.82,1404.28 "/>
<polyline clip-path="url(#clip310)" style="stroke:#000000; stroke-linecap:round; stroke-linejoin:round; stroke-width:4; stroke-opacity:1; fill:none" points="1464.9,1423.18 1464.9,1404.28 "/>
<polyline clip-path="url(#clip310)" style="stroke:#000000; stroke-linecap:round; stroke-linejoin:round; stroke-width:4; stroke-opacity:1; fill:none" points="1908.98,1423.18 1908.98,1404.28 "/>
<path clip-path="url(#clip310)" d="M551.422 1481.64 L559.061 1481.64 L559.061 1455.28 L550.751 1456.95 L550.751 1452.69 L559.015 1451.02 L563.691 1451.02 L563.691 1481.64 L571.329 1481.64 L571.329 1485.58 L551.422 1485.58 L551.422 1481.64 Z" fill="#000000" fill-rule="nonzero" fill-opacity="1" /><path clip-path="url(#clip310)" d="M590.774 1454.1 Q587.163 1454.1 585.334 1457.66 Q583.528 1461.2 583.528 1468.33 Q583.528 1475.44 585.334 1479.01 Q587.163 1482.55 590.774 1482.55 Q594.408 1482.55 596.214 1479.01 Q598.042 1475.44 598.042 1468.33 Q598.042 1461.2 596.214 1457.66 Q594.408 1454.1 590.774 1454.1 M590.774 1450.39 Q596.584 1450.39 599.639 1455 Q602.718 1459.58 602.718 1468.33 Q602.718 1477.06 599.639 1481.67 Q596.584 1486.25 590.774 1486.25 Q584.964 1486.25 581.885 1481.67 Q578.829 1477.06 578.829 1468.33 Q578.829 1459.58 581.885 1455 Q584.964 1450.39 590.774 1450.39 Z" fill="#000000" fill-rule="nonzero" fill-opacity="1" /><path clip-path="url(#clip310)" d="M999.59 1481.64 L1015.91 1481.64 L1015.91 1485.58 L993.965 1485.58 L993.965 1481.64 Q996.627 1478.89 1001.21 1474.26 Q1005.82 1469.61 1007 1468.27 Q1009.24 1465.74 1010.12 1464.01 Q1011.03 1462.25 1011.03 1460.56 Q1011.03 1457.8 1009.08 1456.07 Q1007.16 1454.33 1004.06 1454.33 Q1001.86 1454.33 999.405 1455.09 Q996.974 1455.86 994.197 1457.41 L994.197 1452.69 Q997.021 1451.55 999.474 1450.97 Q1001.93 1450.39 1003.97 1450.39 Q1009.34 1450.39 1012.53 1453.08 Q1015.72 1455.77 1015.72 1460.26 Q1015.72 1462.39 1014.91 1464.31 Q1014.13 1466.2 1012.02 1468.8 Q1011.44 1469.47 1008.34 1472.69 Q1005.24 1475.88 999.59 1481.64 Z" fill="#000000" fill-rule="nonzero" fill-opacity="1" /><path clip-path="url(#clip310)" d="M1035.72 1454.1 Q1032.11 1454.1 1030.28 1457.66 Q1028.48 1461.2 1028.48 1468.33 Q1028.48 1475.44 1030.28 1479.01 Q1032.11 1482.55 1035.72 1482.55 Q1039.36 1482.55 1041.16 1479.01 Q1042.99 1475.44 1042.99 1468.33 Q1042.99 1461.2 1041.16 1457.66 Q1039.36 1454.1 1035.72 1454.1 M1035.72 1450.39 Q1041.53 1450.39 1044.59 1455 Q1047.67 1459.58 1047.67 1468.33 Q1047.67 1477.06 1044.59 1481.67 Q1041.53 1486.25 1035.72 1486.25 Q1029.91 1486.25 1026.84 1481.67 Q1023.78 1477.06 1023.78 1468.33 Q1023.78 1459.58 1026.84 1455 Q1029.91 1450.39 1035.72 1450.39 Z" fill="#000000" fill-rule="nonzero" fill-opacity="1" /><path clip-path="url(#clip310)" d="M1453.74 1466.95 Q1457.1 1467.66 1458.97 1469.93 Q1460.87 1472.2 1460.87 1475.53 Q1460.87 1480.65 1457.35 1483.45 Q1453.83 1486.25 1447.35 1486.25 Q1445.18 1486.25 1442.86 1485.81 Q1440.57 1485.39 1438.12 1484.54 L1438.12 1480.02 Q1440.06 1481.16 1442.38 1481.74 Q1444.69 1482.32 1447.21 1482.32 Q1451.61 1482.32 1453.9 1480.58 Q1456.22 1478.84 1456.22 1475.53 Q1456.22 1472.48 1454.07 1470.77 Q1451.94 1469.03 1448.12 1469.03 L1444.09 1469.03 L1444.09 1465.19 L1448.3 1465.19 Q1451.75 1465.19 1453.58 1463.82 Q1455.41 1462.43 1455.41 1459.84 Q1455.41 1457.18 1453.51 1455.77 Q1451.64 1454.33 1448.12 1454.33 Q1446.2 1454.33 1444 1454.75 Q1441.8 1455.16 1439.16 1456.04 L1439.16 1451.88 Q1441.82 1451.14 1444.14 1450.77 Q1446.47 1450.39 1448.53 1450.39 Q1453.86 1450.39 1456.96 1452.83 Q1460.06 1455.23 1460.06 1459.35 Q1460.06 1462.22 1458.42 1464.21 Q1456.77 1466.18 1453.74 1466.95 Z" fill="#000000" fill-rule="nonzero" fill-opacity="1" /><path clip-path="url(#clip310)" d="M1479.74 1454.1 Q1476.13 1454.1 1474.3 1457.66 Q1472.49 1461.2 1472.49 1468.33 Q1472.49 1475.44 1474.3 1479.01 Q1476.13 1482.55 1479.74 1482.55 Q1483.37 1482.55 1485.18 1479.01 Q1487.01 1475.44 1487.01 1468.33 Q1487.01 1461.2 1485.18 1457.66 Q1483.37 1454.1 1479.74 1454.1 M1479.74 1450.39 Q1485.55 1450.39 1488.6 1455 Q1491.68 1459.58 1491.68 1468.33 Q1491.68 1477.06 1488.6 1481.67 Q1485.55 1486.25 1479.74 1486.25 Q1473.93 1486.25 1470.85 1481.67 Q1467.79 1477.06 1467.79 1468.33 Q1467.79 1459.58 1470.85 1455 Q1473.93 1450.39 1479.74 1450.39 Z" fill="#000000" fill-rule="nonzero" fill-opacity="1" /><path clip-path="url(#clip310)" d="M1897.15 1455.09 L1885.35 1473.54 L1897.15 1473.54 L1897.15 1455.09 M1895.93 1451.02 L1901.81 1451.02 L1901.81 1473.54 L1906.74 1473.54 L1906.74 1477.43 L1901.81 1477.43 L1901.81 1485.58 L1897.15 1485.58 L1897.15 1477.43 L1881.55 1477.43 L1881.55 1472.92 L1895.93 1451.02 Z" fill="#000000" fill-rule="nonzero" fill-opacity="1" /><path clip-path="url(#clip310)" d="M1924.47 1454.1 Q1920.86 1454.1 1919.03 1457.66 Q1917.22 1461.2 1917.22 1468.33 Q1917.22 1475.44 1919.03 1479.01 Q1920.86 1482.55 1924.47 1482.55 Q1928.1 1482.55 1929.91 1479.01 Q1931.74 1475.44 1931.74 1468.33 Q1931.74 1461.2 1929.91 1457.66 Q1928.1 1454.1 1924.47 1454.1 M1924.47 1450.39 Q1930.28 1450.39 1933.33 1455 Q1936.41 1459.58 1936.41 1468.33 Q1936.41 1477.06 1933.33 1481.67 Q1930.28 1486.25 1924.47 1486.25 Q1918.66 1486.25 1915.58 1481.67 Q1912.52 1477.06 1912.52 1468.33 Q1912.52 1459.58 1915.58 1455 Q1918.66 1450.39 1924.47 1450.39 Z" fill="#000000" fill-rule="nonzero" fill-opacity="1" /><path clip-path="url(#clip310)" d="M1245.79 1522.27 L1245.79 1532.4 L1257.85 1532.4 L1257.85 1536.95 L1245.79 1536.95 L1245.79 1556.3 Q1245.79 1560.66 1246.96 1561.9 Q1248.17 1563.14 1251.83 1563.14 L1257.85 1563.14 L1257.85 1568.04 L1251.83 1568.04 Q1245.05 1568.04 1242.48 1565.53 Q1239.9 1562.98 1239.9 1556.3 L1239.9 1536.95 L1235.6 1536.95 L1235.6 1532.4 L1239.9 1532.4 L1239.9 1522.27 L1245.79 1522.27 Z" fill="#000000" fill-rule="nonzero" fill-opacity="1" /><polyline clip-path="url(#clip310)" style="stroke:#000000; stroke-linecap:round; stroke-linejoin:round; stroke-width:4; stroke-opacity:1; fill:none" points="140.696,1423.18 140.696,47.2441 "/>
<polyline clip-path="url(#clip310)" style="stroke:#000000; stroke-linecap:round; stroke-linejoin:round; stroke-width:4; stroke-opacity:1; fill:none" points="140.696,1387.97 159.593,1387.97 "/>
<polyline clip-path="url(#clip310)" style="stroke:#000000; stroke-linecap:round; stroke-linejoin:round; stroke-width:4; stroke-opacity:1; fill:none" points="140.696,976.432 159.593,976.432 "/>
<polyline clip-path="url(#clip310)" style="stroke:#000000; stroke-linecap:round; stroke-linejoin:round; stroke-width:4; stroke-opacity:1; fill:none" points="140.696,564.899 159.593,564.899 "/>
<polyline clip-path="url(#clip310)" style="stroke:#000000; stroke-linecap:round; stroke-linejoin:round; stroke-width:4; stroke-opacity:1; fill:none" points="140.696,153.365 159.593,153.365 "/>
<path clip-path="url(#clip310)" d="M92.7512 1373.76 Q89.1401 1373.76 87.3114 1377.33 Q85.5058 1380.87 85.5058 1388 Q85.5058 1395.11 87.3114 1398.67 Q89.1401 1402.21 92.7512 1402.21 Q96.3854 1402.21 98.1909 1398.67 Q100.02 1395.11 100.02 1388 Q100.02 1380.87 98.1909 1377.33 Q96.3854 1373.76 92.7512 1373.76 M92.7512 1370.06 Q98.5613 1370.06 101.617 1374.67 Q104.696 1379.25 104.696 1388 Q104.696 1396.73 101.617 1401.33 Q98.5613 1405.92 92.7512 1405.92 Q86.941 1405.92 83.8623 1401.33 Q80.8068 1396.73 80.8068 1388 Q80.8068 1379.25 83.8623 1374.67 Q86.941 1370.06 92.7512 1370.06 Z" fill="#000000" fill-rule="nonzero" fill-opacity="1" /><path clip-path="url(#clip310)" d="M53.3995 989.777 L61.0384 989.777 L61.0384 963.411 L52.7282 965.078 L52.7282 960.819 L60.9921 959.152 L65.668 959.152 L65.668 989.777 L73.3068 989.777 L73.3068 993.712 L53.3995 993.712 L53.3995 989.777 Z" fill="#000000" fill-rule="nonzero" fill-opacity="1" /><path clip-path="url(#clip310)" d="M92.7512 962.231 Q89.1401 962.231 87.3114 965.795 Q85.5058 969.337 85.5058 976.467 Q85.5058 983.573 87.3114 987.138 Q89.1401 990.68 92.7512 990.68 Q96.3854 990.68 98.1909 987.138 Q100.02 983.573 100.02 976.467 Q100.02 969.337 98.1909 965.795 Q96.3854 962.231 92.7512 962.231 M92.7512 958.527 Q98.5613 958.527 101.617 963.133 Q104.696 967.717 104.696 976.467 Q104.696 985.193 101.617 989.8 Q98.5613 994.383 92.7512 994.383 Q86.941 994.383 83.8623 989.8 Q80.8068 985.193 80.8068 976.467 Q80.8068 967.717 83.8623 963.133 Q86.941 958.527 92.7512 958.527 Z" fill="#000000" fill-rule="nonzero" fill-opacity="1" /><path clip-path="url(#clip310)" d="M56.6171 578.244 L72.9365 578.244 L72.9365 582.179 L50.9921 582.179 L50.9921 578.244 Q53.6541 575.489 58.2375 570.859 Q62.8439 566.207 64.0245 564.864 Q66.2698 562.341 67.1494 560.605 Q68.0522 558.845 68.0522 557.156 Q68.0522 554.401 66.1078 552.665 Q64.1865 550.929 61.0847 550.929 Q58.8856 550.929 56.4319 551.693 Q54.0014 552.457 51.2236 554.008 L51.2236 549.285 Q54.0477 548.151 56.5014 547.572 Q58.955 546.994 60.9921 546.994 Q66.3624 546.994 69.5568 549.679 Q72.7513 552.364 72.7513 556.855 Q72.7513 558.984 71.9411 560.906 Q71.1541 562.804 69.0476 565.396 Q68.4689 566.068 65.367 569.285 Q62.2652 572.48 56.6171 578.244 Z" fill="#000000" fill-rule="nonzero" fill-opacity="1" /><path clip-path="url(#clip310)" d="M92.7512 550.697 Q89.1401 550.697 87.3114 554.262 Q85.5058 557.804 85.5058 564.933 Q85.5058 572.04 87.3114 575.605 Q89.1401 579.146 92.7512 579.146 Q96.3854 579.146 98.1909 575.605 Q100.02 572.04 100.02 564.933 Q100.02 557.804 98.1909 554.262 Q96.3854 550.697 92.7512 550.697 M92.7512 546.994 Q98.5613 546.994 101.617 551.6 Q104.696 556.183 104.696 564.933 Q104.696 573.66 101.617 578.267 Q98.5613 582.85 92.7512 582.85 Q86.941 582.85 83.8623 578.267 Q80.8068 573.66 80.8068 564.933 Q80.8068 556.183 83.8623 551.6 Q86.941 546.994 92.7512 546.994 Z" fill="#000000" fill-rule="nonzero" fill-opacity="1" /><path clip-path="url(#clip310)" d="M66.7559 152.011 Q70.1124 152.729 71.9874 154.997 Q73.8855 157.266 73.8855 160.599 Q73.8855 165.715 70.367 168.516 Q66.8485 171.317 60.3671 171.317 Q58.1912 171.317 55.8764 170.877 Q53.5847 170.46 51.131 169.604 L51.131 165.09 Q53.0754 166.224 55.3903 166.803 Q57.7051 167.382 60.2282 167.382 Q64.6263 167.382 66.918 165.645 Q69.2328 163.909 69.2328 160.599 Q69.2328 157.544 67.08 155.831 Q64.9504 154.095 61.131 154.095 L57.1032 154.095 L57.1032 150.252 L61.3161 150.252 Q64.7652 150.252 66.5939 148.886 Q68.4226 147.497 68.4226 144.905 Q68.4226 142.243 66.5245 140.831 Q64.6495 139.396 61.131 139.396 Q59.2097 139.396 57.0106 139.812 Q54.8115 140.229 52.1727 141.109 L52.1727 136.942 Q54.8347 136.201 57.1495 135.831 Q59.4875 135.46 61.5476 135.46 Q66.8717 135.46 69.9735 137.891 Q73.0753 140.298 73.0753 144.419 Q73.0753 147.289 71.4318 149.28 Q69.7883 151.247 66.7559 152.011 Z" fill="#000000" fill-rule="nonzero" fill-opacity="1" /><path clip-path="url(#clip310)" d="M92.7512 139.164 Q89.1401 139.164 87.3114 142.729 Q85.5058 146.271 85.5058 153.4 Q85.5058 160.507 87.3114 164.071 Q89.1401 167.613 92.7512 167.613 Q96.3854 167.613 98.1909 164.071 Q100.02 160.507 100.02 153.4 Q100.02 146.271 98.1909 142.729 Q96.3854 139.164 92.7512 139.164 M92.7512 135.46 Q98.5613 135.46 101.617 140.067 Q104.696 144.65 104.696 153.4 Q104.696 162.127 101.617 166.733 Q98.5613 171.317 92.7512 171.317 Q86.941 171.317 83.8623 166.733 Q80.8068 162.127 80.8068 153.4 Q80.8068 144.65 83.8623 140.067 Q86.941 135.46 92.7512 135.46 Z" fill="#000000" fill-rule="nonzero" fill-opacity="1" /><polyline clip-path="url(#clip312)" style="stroke:#009af9; stroke-linecap:round; stroke-linejoin:round; stroke-width:4; stroke-opacity:1; fill:none" points="140.696,1384.24 140.696,1384.24 150.769,1378.82 150.984,1378.71 160.847,1372.94 164.904,1370.7 166.848,1369.47 167.622,1368.99 167.634,1368.99 171.684,1366.2 209.016,1343.52 215.967,1339.97 221.197,1337.36 237.056,1329.65 239.118,1328.66 249.418,1323.01 251.961,1321.45 252.671,1320.95 254.081,1319.86 261.292,1314.1 269.395,1307.78 271.83,1305.84 272.514,1305.24 278.622,1299.79 297.784,1284.94 298.591,1284.41 300.529,1282.99 309.583,1276.19 312.717,1274.05 313.705,1273.31 318.821,1269.65 326.101,1264.88 327.8,1263.68 329.223,1262.69 331.473,1261.18 336.021,1258.25 339.486,1256.12 349.283,1250.48 355.538,1247.1 365.924,1240.95 380.122,1233.32 383.311,1231.41 392.16,1226.39 396.922,1223.82 414.213,1214.99 417.954,1212.83 423.977,1209.48 457.573,1190.93 466.901,1186.32 480.458,1178.84 485.586,1176.17 517.036,1159.19 524.321,1155.6 528.156,1153.73 530.627,1152.54 541.27,1147.45 541.643,1147.27 556.644,1140.2 561.834,1137.33 568.656,1133.72 579.81,1127.23 582.782,1125.34 583.816,1124.7 693.227,1068.59 718.27,1055.57 724.913,1052.31 741.296,1043.38 741.363,1043.34 756.657,1034.63 764.909,1030.29 781.389,1022.06 804.245,1011.13 822.654,1002.49 828.041,999.974 832.423,997.564 832.661,997.435 835.34,995.764 843.729,990.174 862.171,979.537 884.319,966.956 894.087,961.948 899.514,959.244 906.44,955.852 920.538,949.084 926.16,945.96 928.458,944.717 958.025,929.821 977.162,920.706 986.832,915.434 990.628,913.448 992.729,912.179 998.479,908.365 1000.12,907.178 1001.77,906.019 1003.55,904.64 1019.26,894.002 1021.93,892.391 1029.24,887.616 1034.63,884.35 1034.77,884.264 1056.67,872.373 1070.19,865.635 1073.62,863.674 1078.86,860.771 1079.91,860.205 1090.02,854.146 1099.9,848.715 1108.27,843.716 1113.44,840.377 1131.19,829.052 1131.24,829.023 1140.33,823.271 1144.45,820.502 1164.59,808.639 1165.88,807.945 1170.64,805.428 1186.6,796.309 1191.36,793.79 1202.82,787.117 1262.11,757.767 1269.79,754.17 1276.42,750.542 1289.19,743.02 1293.19,740.829 1298.68,737.457 1301.84,735.333 1305.61,732.908 1307.57,731.689 1315.29,727.127 1328.87,719.748 1335.31,716.439 1336.75,715.582 1343.23,711.867 1362.21,700.672 1371.39,695.82 1374.82,694.064 1387.49,686.861 1387.5,686.855 1402.45,679.079 1410.56,674.421 1427.27,665.599 1460.41,649.501 1485.8,637.588 1510.16,626.256 1510.94,625.823 1536.12,612.79 1562.13,598.872 1562.17,598.848 1575.3,591.477 1588.93,584.427 1606.48,575.823 1607.98,575.101 1610.19,573.845 1611.26,573.247 1631.54,561.366 1653.64,548.78 1653.87,548.659 1676.55,537.281 1699.05,526.539 1721.22,514.858 1723.52,513.709 1723.75,513.573 1732.23,508.767 1737.59,505.436 1738.09,505.087 1744.7,500.725 1745.14,500.451 1745.17,500.431 1747.32,499.094 1748.61,498.307 1751.24,496.508 1757.65,491.867 1759.34,490.563 1789.42,471.777 1793.02,469.853 1793.14,469.781 1795.43,468.378 1796.84,467.53 1800.27,465.227 1805.02,461.805 1831.55,444.505 1832.78,443.708 1835.59,441.689 1841.17,437.912 1841.62,437.584 1850.6,431.399 1851.97,430.394 1859.02,425.003 1859.88,424.311 1864.88,420.494 1865.06,420.36 1867.15,418.866 1867.98,418.202 1877.61,411.227 1881.22,408.856 1896.68,399.719 1899.96,397.644 1910.5,391.448 1911.49,390.808 1914.19,389.093 1925.65,382.342 1941.59,372.814 1945.52,370.661 1963.86,360.045 1969.55,357.032 1971.22,356.021 1972.3,355.276 1972.85,354.896 1986,346.668 2007.9,334.858 2037.44,320.446 2040.29,318.844 2048.76,314.275 2050.51,313.202 2056.46,309.21 2088.7,291.201 2106.44,282.46 2109.37,281.054 2110.42,280.55 2112.13,279.576 2112.16,279.56 2117.88,275.471 2121.66,272.627 2127.61,268.491 2127.61,268.489 2132.4,264.999 2139.68,259.577 2144.22,256.119 2144.61,255.827 2171.71,239.129 2173.71,237.874 2177.3,235.695 2179.13,234.614 2182.25,232.544 2182.47,232.376 2192.1,225.753 2193.86,224.48 2196.34,222.523 2197.68,221.381 2202.41,217.584 2205.24,215.463 2214.71,208.297 2220.77,203.748 2225.89,200.231 2227.13,199.417 2229.71,197.765 2231.42,196.544 2231.86,196.195 2234.14,194.228 2250.21,182.461 2252.72,180.862 2286.34,162.447 2289.76,160.746 2290.85,160.109 2301.46,154.204 2309.64,149.278 2310.33,148.818 2330.22,136.963 2334.1,134.542 2336.33,133.197 2345.56,127.917 2347.53,126.842 2352.76,123.614 "/>
<polyline clip-path="url(#clip312)" style="stroke:#e26f46; stroke-linecap:round; stroke-linejoin:round; stroke-width:4; stroke-opacity:1; fill:none" points="140.696,1384.24 140.696,1384.24 150.769,1379.57 150.984,1379.47 160.847,1374.9 164.904,1373.02 166.848,1372.12 167.622,1371.76 167.634,1371.76 171.684,1369.88 209.016,1352.58 215.967,1349.36 221.197,1346.51 237.056,1338.33 239.118,1337.3 249.418,1332.26 251.961,1331.03 252.671,1330.69 254.081,1330.01 261.292,1326.57 269.395,1322.73 271.83,1321.59 272.514,1321.26 278.622,1318.39 297.784,1309.45 298.591,1309.07 300.529,1308.17 309.583,1303.96 312.717,1302.5 313.705,1302.04 318.821,1299.67 326.101,1296.29 327.8,1295.5 329.223,1294.84 331.473,1293.79 336.021,1291.69 339.486,1290.08 349.283,1285.54 355.538,1282.64 365.924,1277.82 380.122,1270.27 383.311,1268.65 392.16,1264.24 396.922,1261.91 414.213,1253.62 417.954,1251.85 423.977,1249.01 457.573,1233.33 466.901,1229 480.458,1222.71 485.586,1220.33 517.036,1205.75 524.321,1202.37 528.156,1200.59 530.627,1199.45 541.27,1193.73 541.643,1193.5 556.644,1184.94 561.834,1182.19 568.656,1178.68 579.81,1173.13 582.782,1171.68 583.816,1171.18 693.227,1119.99 718.27,1108.39 724.913,1105.31 741.296,1097.72 741.363,1097.69 756.657,1089.58 764.909,1085.43 781.389,1077.42 804.245,1066.61 822.654,1058.02 828.041,1055.51 832.423,1053.47 832.661,1053.36 835.34,1052.11 843.729,1048.22 862.171,1039.66 884.319,1029.39 894.087,1024.87 899.514,1022.35 906.44,1019.14 920.538,1012.61 926.16,1010 928.458,1008.94 958.025,995.238 977.162,986.371 986.832,981.89 990.628,979.808 992.729,978.678 998.479,975.654 1000.12,974.805 1001.77,973.96 1003.55,973.054 1019.26,965.287 1021.93,963.993 1029.24,960.489 1034.63,957.926 1034.77,957.857 1056.67,947.56 1070.19,940.316 1073.62,938.563 1078.86,935.922 1079.91,935.401 1090.02,930.438 1099.9,925.69 1108.27,921.719 1113.44,919.276 1131.19,910.96 1131.24,910.936 1140.33,906.7 1144.45,904.785 1164.59,895.426 1165.88,894.827 1170.64,892.619 1186.6,885.216 1191.36,883.012 1202.82,877.699 1262.11,850.225 1269.79,846.066 1276.42,842.619 1289.19,836.225 1293.19,834.273 1298.68,831.617 1301.84,830.103 1305.61,828.302 1307.57,827.369 1315.29,823.11 1328.87,816.064 1335.31,812.855 1336.75,812.146 1343.23,808.468 1362.21,798.52 1371.39,793.98 1374.82,792.311 1387.49,786.23 1387.5,786.225 1402.45,779.163 1410.56,775.362 1427.27,767.568 1460.41,752.18 1485.8,740.408 1510.16,729.119 1510.94,728.758 1536.12,717.086 1562.13,705.034 1562.17,705.016 1575.3,698.934 1588.93,692.619 1606.48,683.364 1607.98,682.606 1610.19,681.498 1611.26,680.966 1631.54,671.119 1653.64,660.689 1653.87,660.56 1676.55,648.679 1699.05,637.757 1721.22,627.311 1723.52,626.233 1723.75,626.125 1732.23,622.169 1737.59,619.672 1738.09,619.438 1744.7,616.362 1745.14,616.16 1745.17,616.145 1747.32,615.144 1748.61,614.543 1751.24,613.322 1757.65,610.346 1759.34,609.56 1789.42,594.086 1793.02,592.335 1793.14,592.279 1795.43,591.173 1796.84,590.492 1800.27,588.849 1805.02,586.585 1831.55,574.106 1832.78,573.532 1835.59,572.223 1841.17,569.619 1841.62,569.413 1850.6,565.236 1851.97,564.597 1859.02,561.321 1859.88,560.922 1864.88,558.602 1865.06,558.517 1867.15,557.365 1867.98,556.907 1877.61,551.808 1881.22,549.956 1896.68,542.293 1899.96,540.702 1910.5,535.655 1911.49,535.186 1914.19,533.904 1925.65,528.501 1941.59,521.048 1945.52,519.216 1963.86,510.688 1969.55,508.043 1971.22,507.271 1972.3,506.77 1972.85,506.511 1986,500.414 2007.9,490.259 2037.44,476.57 2040.29,475.248 2048.76,471.326 2050.51,470.514 2056.46,467.755 2088.7,451.244 2106.44,441.622 2109.37,440.127 2110.42,439.499 2112.13,438.487 2112.16,438.473 2117.88,435.212 2121.66,433.131 2127.61,429.961 2127.61,429.96 2132.4,427.48 2139.68,423.805 2144.22,421.558 2144.61,421.362 2171.71,408.367 2173.71,407.423 2177.3,405.429 2179.13,404.432 2182.25,402.759 2182.47,402.638 2192.1,396.924 2193.86,395.935 2196.34,394.56 2197.68,393.827 2202.41,391.291 2205.24,389.806 2214.71,384.977 2220.77,381.97 2225.89,379.465 2227.13,378.863 2229.71,377.616 2231.42,376.791 2231.86,376.58 2234.14,375.484 2250.21,367.863 2252.72,366.682 2286.34,350.988 2289.76,349.396 2290.85,348.889 2301.46,343.965 2309.64,340.168 2310.33,339.849 2330.22,330.627 2334.1,328.827 2336.33,327.793 2345.56,323.514 2347.53,322.429 2352.76,319.611 "/>
<polyline clip-path="url(#clip312)" style="stroke:#3da44d; stroke-linecap:round; stroke-linejoin:round; stroke-width:4; stroke-opacity:1; fill:none" points="140.696,1384.24 140.696,1384.24 150.769,1378.82 150.984,1378.69 160.847,1372.92 164.904,1370.69 166.848,1369.64 167.622,1369.22 167.634,1369.22 171.684,1366.73 209.016,1346.97 215.967,1343.05 221.197,1340.22 237.056,1331.05 239.118,1329.94 249.418,1324.58 251.961,1323.29 252.671,1322.93 254.081,1322.1 261.292,1318 269.395,1313.64 271.83,1312.36 272.514,1311.95 278.622,1308.35 297.784,1298.07 298.591,1297.59 300.529,1296.44 309.583,1291.33 312.717,1289.37 313.705,1288.77 318.821,1285.31 326.101,1280.19 327.8,1279.08 329.223,1278.03 331.473,1276.23 336.021,1272.42 339.486,1269.43 349.283,1261.24 355.538,1256.23 365.924,1248.98 380.122,1240.47 383.311,1238.71 392.16,1233.32 396.922,1230.6 414.213,1221.44 417.954,1219.24 423.977,1215.84 457.573,1198.75 466.901,1194.28 480.458,1187.87 485.586,1185.03 517.036,1169.13 524.321,1165.64 528.156,1163.49 530.627,1162.13 541.27,1156.52 541.643,1156.33 556.644,1148.85 561.834,1146.33 568.656,1142.51 579.81,1136.61 582.782,1134.84 583.816,1134.24 693.227,1080.91 718.27,1069.3 724.913,1065.69 741.296,1057.3 741.363,1057.26 756.657,1049.81 764.909,1045.88 781.389,1037.03 804.245,1024.41 822.654,1015.24 828.041,1012.64 832.423,1010.54 832.661,1010.41 835.34,1008.9 843.729,1004.36 862.171,995.005 884.319,984.35 894.087,979.01 899.514,976.176 906.44,972.658 920.538,964.762 926.16,961.813 928.458,960.63 958.025,946.138 977.162,935.918 986.832,931.088 990.628,929.228 992.729,928.206 998.479,925.43 1000.12,924.495 1001.77,923.568 1003.55,922.581 1019.26,914.323 1021.93,912.975 1029.24,909.352 1034.63,906.279 1034.77,906.198 1056.67,894.746 1070.19,888.128 1073.62,886.482 1078.86,883.542 1079.91,882.969 1090.02,877.616 1099.9,872.624 1108.27,868.517 1113.44,865.583 1131.19,856.241 1131.24,856.216 1140.33,851.007 1144.45,848.766 1164.59,838.455 1165.88,837.704 1170.64,834.607 1186.6,825.297 1191.36,822.744 1202.82,816.842 1262.11,788.554 1269.79,784.98 1276.42,781.897 1289.19,775.062 1293.19,772.677 1298.68,769.54 1301.84,767.8 1305.61,765.768 1307.57,764.728 1315.29,760.736 1328.87,753.043 1335.31,749.641 1336.75,748.767 1343.23,744.985 1362.21,734.861 1371.39,729.581 1374.82,727.411 1387.49,720.024 1387.5,720.018 1402.45,712.124 1410.56,708.059 1427.27,698.859 1460.41,682.5 1485.8,670.536 1510.16,657.816 1510.94,657.431 1536.12,643.894 1562.13,629.811 1562.17,629.791 1575.3,623.303 1588.93,615.813 1606.48,606.925 1607.98,606.187 1610.19,605.105 1611.26,604.489 1631.54,593.614 1653.64,581.454 1653.87,581.335 1676.55,568.798 1699.05,556.33 1721.22,545.328 1723.52,544.014 1723.75,543.884 1732.23,538.602 1737.59,535.05 1738.09,534.73 1744.7,530.152 1745.14,529.866 1745.17,529.846 1747.32,528.262 1748.61,527.338 1751.24,525.514 1757.65,520.823 1759.34,519.66 1789.42,502.185 1793.02,500.022 1793.14,499.954 1795.43,498.417 1796.84,497.365 1800.27,494.621 1805.02,491.087 1831.55,474.891 1832.78,474.231 1835.59,472.741 1841.17,469.38 1841.62,469.121 1850.6,463.397 1851.97,462.572 1859.02,458.503 1859.88,458.023 1864.88,455.291 1865.06,455.193 1867.15,454.08 1867.98,453.636 1877.61,447.949 1881.22,445.935 1896.68,437.809 1899.96,436.155 1910.5,430.181 1911.49,429.646 1914.19,427.96 1925.65,420.472 1941.59,410.385 1945.52,407.811 1963.86,397.133 1969.55,393.643 1971.22,392.514 1972.3,391.697 1972.85,391.23 1986,381.479 2007.9,367.194 2037.44,350.186 2040.29,348.72 2048.76,343.812 2050.51,342.84 2056.46,339.62 2088.7,323.535 2106.44,315.119 2109.37,313.491 2110.42,312.914 2112.13,311.982 2112.16,311.969 2117.88,308.931 2121.66,306.647 2127.61,302.737 2127.61,302.735 2132.4,299.787 2139.68,295.569 2144.22,293.064 2144.61,292.811 2171.71,277.602 2173.71,276.577 2177.3,274.764 2179.13,273.685 2182.25,271.888 2182.47,271.76 2192.1,266.483 2193.86,265.555 2196.34,264.259 2197.68,263.565 2202.41,260.755 2205.24,259.131 2214.71,253.949 2220.77,250.783 2225.89,248.174 2227.13,247.55 2229.71,246.262 2231.42,245.412 2231.86,245.194 2234.14,243.867 2250.21,235.148 2252.72,233.856 2286.34,217.441 2289.76,215.82 2290.85,215.206 2301.46,208.694 2309.64,203.463 2310.33,203.045 2330.22,190.76 2334.1,188.621 2336.33,187.221 2345.56,181.062 2347.53,179.843 2352.76,176.72 "/>
<polyline clip-path="url(#clip312)" style="stroke:#c271d2; stroke-linecap:round; stroke-linejoin:round; stroke-width:4; stroke-opacity:1; fill:none" points="140.696,1384.24 140.696,1384.24 150.769,1379.57 150.984,1379.47 160.847,1374.9 164.904,1373.02 166.848,1372.12 167.622,1371.69 167.634,1371.68 171.684,1369.13 209.016,1349.09 215.967,1345.7 221.197,1343.18 237.056,1335.65 239.118,1334.68 249.418,1329.85 251.961,1328.66 252.671,1328.33 254.081,1327.67 261.292,1324.3 269.395,1320.53 271.83,1319.4 272.514,1319.08 278.622,1316.24 297.784,1307.35 298.591,1306.97 300.529,1306.07 309.583,1301.88 312.717,1300.42 313.705,1299.96 318.821,1297.59 326.101,1294.22 327.8,1293.43 329.223,1292.77 331.473,1291.73 336.021,1289.62 339.486,1288.01 349.283,1283.47 355.538,1280.58 365.924,1275.76 380.122,1269.18 383.311,1267.71 392.16,1263.61 396.922,1261 414.213,1252.09 417.954,1250.24 423.977,1246.81 457.573,1229.64 466.901,1225.16 480.458,1218.74 485.586,1216.33 517.036,1201.66 524.321,1198.28 528.156,1196.5 530.627,1195.13 541.27,1189.49 541.643,1189.3 556.644,1181.79 561.834,1179.27 568.656,1175.99 579.81,1170.69 582.782,1169.29 583.816,1168.8 693.227,1117.93 718.27,1106.33 724.913,1103.25 741.296,1095.66 741.363,1095.63 756.657,1088.54 764.909,1084.72 781.389,1077.08 804.245,1066.49 822.654,1057.96 828.041,1055.47 832.423,1053.44 832.661,1053.33 835.34,1052.08 843.729,1048.2 862.171,1039.65 884.319,1029.39 894.087,1024.86 899.514,1021.9 906.44,1017.71 920.538,1009.92 926.16,1006.99 928.458,1005.82 958.025,989.872 977.162,980.539 986.832,975.938 990.628,974.144 992.729,973.154 998.479,970.451 1000.12,969.68 1001.77,968.907 1003.55,968.073 1019.26,959.702 1021.93,958.341 1029.24,954.691 1034.63,952.047 1034.77,951.976 1056.67,941.496 1070.19,935.141 1073.62,933.539 1078.86,931.089 1079.91,930.506 1090.02,925.076 1099.9,920.036 1108.27,915.902 1113.44,913.385 1131.19,904.914 1131.24,904.89 1140.33,900.611 1144.45,898.682 1164.59,889.281 1165.88,888.681 1170.64,886.467 1186.6,879.054 1191.36,876.451 1202.82,870.465 1262.11,842.063 1269.79,838.486 1276.42,835.401 1289.19,829.465 1293.19,827.609 1298.68,825.06 1301.84,823.598 1305.61,821.528 1307.57,820.297 1315.29,815.697 1328.87,808.277 1335.31,804.957 1336.75,804.227 1343.23,800.99 1362.21,791.792 1371.39,787.44 1374.82,785.823 1387.49,779.879 1387.5,779.874 1402.45,771.891 1410.56,767.797 1427.27,759.651 1460.41,744.02 1485.8,732.199 1510.16,720.895 1510.94,720.534 1536.12,708.858 1562.13,696.804 1562.17,696.786 1575.3,690.704 1588.93,684.389 1606.48,676.258 1607.98,675.426 1610.19,674.218 1611.26,673.641 1631.54,663.252 1653.64,652.593 1653.87,652.483 1676.55,641.821 1699.05,631.336 1721.22,621.047 1723.52,619.977 1723.75,619.87 1732.23,615.941 1737.59,613.455 1738.09,613.222 1744.7,610.157 1745.14,609.956 1745.17,609.938 1747.32,608.75 1748.61,607.929 1751.24,606.297 1757.65,602.504 1759.34,601.538 1789.42,585.909 1793.02,584.15 1793.14,584.094 1795.43,582.983 1796.84,582.3 1800.27,580.652 1805.02,578.381 1831.55,565.883 1832.78,565.309 1835.59,563.999 1841.17,561.394 1841.62,561.187 1850.6,557.009 1851.97,556.369 1859.02,553.093 1859.88,552.694 1864.88,550.373 1865.06,550.271 1867.15,549.121 1867.98,548.663 1877.61,543.568 1881.22,541.409 1896.68,532.872 1899.96,531.162 1910.5,525.832 1911.49,525.343 1914.19,524.01 1925.65,518.448 1941.59,510.875 1945.52,509.024 1963.86,500.442 1969.55,497.788 1971.22,497.013 1972.3,496.511 1972.85,496.251 1986,489.222 2007.9,478.343 2037.44,464.338 2040.29,463.002 2048.76,459.048 2050.51,458.231 2056.46,455.458 2088.7,440.485 2106.44,432.255 2109.37,430.9 2110.42,430.413 2112.13,429.618 2112.16,429.607 2117.88,426.957 2121.66,425.203 2127.61,422.445 2127.61,422.444 2132.4,419.825 2139.68,415.989 2144.22,413.666 2144.61,413.464 2171.71,400.234 2173.71,399.282 2177.3,397.581 2179.13,396.717 2182.25,395.246 2182.47,395.139 2192.1,390.615 2193.86,389.793 2196.34,388.633 2197.68,388.006 2202.41,385.797 2205.24,384.231 2214.71,379.195 2220.77,376.094 2225.89,373.528 2227.13,372.913 2229.71,371.416 2231.42,370.441 2231.86,370.192 2234.14,368.917 2250.21,359.38 2252.72,358.006 2286.34,341.054 2289.76,339.118 2290.85,338.511 2301.46,332.84 2309.64,328.667 2310.33,328.322 2330.22,318.615 2334.1,316.762 2336.33,315.701 2345.56,311.336 2347.53,310.41 2352.76,307.955 "/>
<polyline clip-path="url(#clip312)" style="stroke:#ac8d18; stroke-linecap:round; stroke-linejoin:round; stroke-width:4; stroke-opacity:1; fill:none" points="140.696,1384.24 140.696,1384.24 150.769,1379.57 150.984,1379.47 160.847,1374.9 164.904,1372.68 166.848,1371.63 167.622,1371.22 167.634,1371.21 171.684,1369.08 209.016,1350.76 215.967,1347.48 221.197,1345.02 237.056,1337.6 239.118,1336.45 249.418,1330.96 251.961,1329.65 252.671,1329.29 254.081,1328.57 261.292,1324.96 269.395,1320.98 271.83,1319.81 272.514,1319.47 278.622,1316.54 297.784,1307.47 298.591,1307.09 300.529,1306.19 309.583,1301.95 312.717,1300.49 313.705,1300.03 318.821,1297.64 326.101,1294.25 327.8,1293.46 329.223,1292.8 331.473,1291.76 336.021,1289.64 339.486,1288.03 349.283,1283.49 355.538,1280.59 365.924,1275.77 380.122,1269.19 383.311,1267.71 392.16,1263.61 396.922,1261.4 414.213,1253.39 417.954,1251.66 423.977,1248.86 457.573,1233.3 466.901,1228.27 480.458,1221.37 485.586,1218.84 517.036,1203.83 524.321,1199.84 528.156,1197.81 530.627,1196.52 541.27,1191.14 541.643,1190.95 556.644,1183.65 561.834,1181.16 568.656,1177.93 579.81,1172.67 582.782,1171.28 583.816,1170.8 693.227,1119.99 718.27,1108.39 724.913,1105.31 741.296,1097.72 741.363,1097.69 756.657,1090.6 764.909,1086.78 781.389,1079.14 804.245,1068.55 822.654,1060.02 828.041,1057.52 832.423,1055.49 832.661,1055.38 835.34,1054.14 843.729,1050.26 862.171,1041.71 884.319,1031.45 894.087,1026.92 899.514,1024.41 906.44,1021.2 920.538,1014.67 926.16,1012.06 928.458,1011 958.025,997.296 977.162,988.429 986.832,983.948 990.628,982.189 992.729,981.216 998.479,978.552 1000.12,977.79 1001.77,976.878 1003.55,975.906 1019.26,967.736 1021.93,966.165 1029.24,962.051 1034.63,959.152 1034.77,959.074 1056.67,948.014 1070.19,941.502 1073.62,939.873 1078.86,937.389 1079.91,936.895 1090.02,932.139 1099.9,926.779 1108.27,922.467 1113.44,919.868 1131.19,911.226 1131.24,911.202 1140.33,906.876 1144.45,904.931 1164.59,894.258 1165.88,893.609 1170.64,891.239 1186.6,883.489 1191.36,881.221 1202.82,875.801 1262.11,848.178 1269.79,844.618 1276.42,841.544 1289.19,835.621 1293.19,833.768 1298.68,831.222 1301.84,829.761 1305.61,828.014 1307.57,827.104 1315.29,823.527 1328.87,817.233 1335.31,813.729 1336.75,812.965 1343.23,809.601 1362.21,800.184 1371.39,795.777 1374.82,794.146 1387.49,788.162 1387.5,788.156 1402.45,781.156 1410.56,777.375 1427.27,769.605 1460.41,754.233 1485.8,741.062 1510.16,729.337 1510.94,728.969 1536.12,717.154 1562.13,705.055 1562.17,705.037 1575.3,698.946 1588.93,692.625 1606.48,684.491 1607.98,683.794 1610.19,682.768 1611.26,682.273 1631.54,672.875 1653.64,662.636 1653.87,662.528 1676.55,652.022 1699.05,641.592 1721.22,631.323 1723.52,630.255 1723.75,630.148 1732.23,626.222 1737.59,623.738 1738.09,623.505 1744.7,620.441 1745.14,620.2 1745.17,620.183 1747.32,618.998 1748.61,618.296 1751.24,616.885 1757.65,613.533 1759.34,612.663 1789.42,597.94 1793.02,596.229 1793.14,596.173 1795.43,595.089 1796.84,594.421 1800.27,592.805 1805.02,590.571 1831.55,578.182 1832.78,577.61 1835.59,576.306 1841.17,573.709 1841.62,573.503 1850.6,569.335 1851.97,568.696 1859.02,565.425 1859.88,565.027 1864.88,562.709 1865.06,562.624 1867.15,561.657 1867.98,561.268 1877.61,556.806 1881.22,555.131 1896.68,547.968 1899.96,546.446 1910.5,541.561 1911.49,541.104 1914.19,539.851 1925.65,534.539 1941.59,527.155 1945.52,525.334 1963.86,516.837 1969.55,514.198 1971.22,513.427 1972.3,512.927 1972.85,512.668 1986,506.578 2007.9,496.429 2037.44,482.742 2040.29,481.421 2048.76,477.498 2050.51,476.687 2056.46,473.928 2088.7,458.992 2106.44,450.769 2109.37,449.415 2110.42,448.928 2112.13,448.133 2112.16,448.122 2117.88,445.473 2121.66,443.719 2127.61,440.963 2127.61,440.961 2132.4,438.742 2139.68,435.37 2144.22,433.268 2144.61,433.083 2171.71,420.529 2173.71,419.6 2177.3,417.938 2179.13,417.091 2182.25,415.647 2182.47,415.541 2192.1,411.079 2193.86,410.266 2196.34,409.116 2197.68,408.495 2202.41,406.303 2205.24,404.992 2214.71,400.606 2220.77,397.797 2225.89,394.999 2227.13,394.224 2229.71,392.646 2231.42,391.623 2231.86,391.362 2234.14,390.029 2250.21,381.276 2252.72,379.76 2286.34,361.89 2289.76,360.211 2290.85,359.678 2301.46,354.565 2309.64,350.672 2310.33,350.346 2330.22,341 2334.1,339.187 2336.33,338.147 2345.56,333.845 2347.53,332.931 2352.76,330.499 "/>
<polyline clip-path="url(#clip312)" style="stroke:#00a9ad; stroke-linecap:round; stroke-linejoin:round; stroke-width:4; stroke-opacity:1; fill:none" points="140.696,1384.24 140.696,1384.24 150.769,1379.57 150.984,1379.45 160.847,1373.41 164.904,1371.09 166.848,1369.84 167.622,1369.35 167.634,1369.34 171.684,1366.83 209.016,1346.99 215.967,1343.06 221.197,1340.23 237.056,1331.06 239.118,1329.94 249.418,1324.58 251.961,1323.07 252.671,1322.59 254.081,1321.65 261.292,1316.53 269.395,1310.73 271.83,1308.91 272.514,1308.41 278.622,1303.68 297.784,1290.15 298.591,1289.58 300.529,1288.08 309.583,1280.95 312.717,1278.46 313.705,1277.7 318.821,1273.56 326.101,1267.7 327.8,1266.29 329.223,1265.01 331.473,1262.88 336.021,1258.49 339.486,1255.14 349.283,1246.18 355.538,1240.82 365.924,1232.41 380.122,1222.98 383.311,1220.8 392.16,1214.53 396.922,1211.47 414.213,1201.53 417.954,1199.54 423.977,1196.42 457.573,1178.43 466.901,1173.87 480.458,1166.44 485.586,1163.36 517.036,1145.17 524.321,1141.47 528.156,1139.24 530.627,1137.84 541.27,1132.08 541.643,1131.88 556.644,1124.28 561.834,1121.3 568.656,1117.03 579.81,1110.63 582.782,1109.02 583.816,1108.47 693.227,1054.17 718.27,1041.16 724.913,1037.37 741.296,1027.65 741.363,1027.61 756.657,1018.53 764.909,1014.08 781.389,1004.64 804.245,991.678 822.654,982.404 828.041,979.784 832.423,977.673 832.661,977.536 835.34,975.788 843.729,970.01 862.171,959.14 884.319,946.446 894.087,940.681 899.514,937.681 906.44,934.001 920.538,925.898 926.16,922.437 928.458,921.079 958.025,905.407 977.162,894.943 986.832,889.323 990.628,887.236 992.729,886.104 998.479,883.075 1000.12,882.225 1001.77,881.378 1003.55,880.471 1019.26,872.697 1021.93,871.403 1029.24,867.32 1034.63,863.993 1034.77,863.906 1056.67,851.877 1070.19,845.103 1073.62,843.136 1078.86,839.791 1079.91,839.148 1090.02,832.512 1099.9,826.721 1108.27,822.167 1113.44,819.459 1131.19,810.587 1131.24,810.562 1140.33,806.173 1144.45,803.859 1164.59,793.331 1165.88,792.573 1170.64,789.449 1186.6,780.082 1191.36,777.518 1202.82,771.598 1262.11,743.286 1269.79,739.712 1276.42,736.628 1289.19,730.693 1293.19,728.499 1298.68,725.123 1301.84,723.27 1305.61,721.122 1307.57,720.029 1315.29,715.87 1328.87,707.992 1335.31,704.535 1336.75,703.78 1343.23,700.447 1362.21,689.902 1371.39,684.517 1374.82,682.317 1387.49,674.854 1387.5,674.848 1402.45,666.905 1410.56,662.195 1427.27,652.221 1460.41,635.328 1485.8,623.258 1510.16,610.505 1510.94,610.048 1536.12,595.153 1562.13,582.046 1562.17,582.023 1575.3,574.813 1588.93,566.913 1606.48,557.759 1607.98,557.007 1610.19,555.711 1611.26,554.998 1631.54,541.723 1653.64,529.845 1653.87,529.728 1676.55,517.297 1699.05,504.866 1721.22,492.578 1723.52,491.19 1723.75,491.053 1732.23,485.558 1737.59,482.35 1738.09,482.011 1744.7,477.232 1745.14,476.935 1745.17,476.914 1747.32,475.278 1748.61,474.325 1751.24,472.447 1757.65,468.163 1759.34,467.089 1789.42,450.451 1793.02,448.332 1793.14,448.254 1795.43,446.54 1796.84,445.389 1800.27,442.721 1805.02,438.878 1831.55,420.347 1832.78,419.632 1835.59,418.028 1841.17,414.479 1841.62,414.167 1850.6,407.558 1851.97,406.625 1859.02,401.543 1859.88,400.881 1864.88,397.225 1865.06,397.096 1867.15,395.658 1867.98,395.015 1877.61,387.511 1881.22,384.993 1896.68,375.44 1899.96,373.59 1910.5,367.153 1911.49,366.496 1914.19,364.501 1925.65,356.05 1941.59,346.287 1945.52,343.764 1963.86,332.074 1969.55,328.406 1971.22,327.381 1972.3,326.726 1972.85,326.339 1986,317.999 2007.9,304.811 2037.44,288.282 2040.29,286.589 2048.76,281.156 2050.51,279.942 2056.46,275.544 2088.7,256.528 2106.44,247.617 2109.37,245.94 2110.42,245.347 2112.13,244.236 2112.16,244.219 2117.88,239.744 2121.66,237.017 2127.61,232.545 2127.61,232.543 2132.4,228.841 2139.68,223.173 2144.22,219.597 2144.61,219.259 2171.71,200.779 2173.71,199.459 2177.3,197.178 2179.13,195.889 2182.25,193.501 2182.47,193.311 2192.1,185.952 2193.86,184.577 2196.34,182.487 2197.68,181.28 2202.41,176.886 2205.24,174.464 2214.71,167.244 2220.77,163.162 2225.89,159.952 2227.13,159.202 2229.71,157.673 2231.42,156.526 2231.86,156.195 2234.14,154.517 2250.21,144.126 2252.72,142.666 2286.34,125.154 2289.76,123.489 2290.85,122.96 2301.46,117.097 2309.64,112.826 2310.33,112.474 2330.22,101.425 2334.1,99.0932 2336.33,97.5968 2345.56,91.1269 2347.53,89.8561 2352.76,86.1857 "/>
<polyline clip-path="url(#clip312)" style="stroke:#ed5d92; stroke-linecap:round; stroke-linejoin:round; stroke-width:4; stroke-opacity:1; fill:none" points="140.696,1384.24 140.696,1384.24 150.769,1379.57 150.984,1379.47 160.847,1374.9 164.904,1373.02 166.848,1372.12 167.622,1371.76 167.634,1371.76 171.684,1369.88 209.016,1352.58 215.967,1349.36 221.197,1346.94 237.056,1339.59 239.118,1338.63 249.418,1333.86 251.961,1332.68 252.671,1332.35 254.081,1331.7 261.292,1328.36 269.395,1324.6 271.83,1323.48 272.514,1323.16 278.622,1320.33 297.784,1311.45 298.591,1311.08 300.529,1310.18 309.583,1305.98 312.717,1304.53 313.705,1304.07 318.821,1301.7 326.101,1298.33 327.8,1297.54 329.223,1296.88 331.473,1295.84 336.021,1293.73 339.486,1292.13 349.283,1287.59 355.538,1284.69 365.924,1279.88 380.122,1273.3 383.311,1271.82 392.16,1267.72 396.922,1265.51 414.213,1256.39 417.954,1254.51 423.977,1251.53 457.573,1235.49 466.901,1231.12 480.458,1224.8 485.586,1222.41 517.036,1207.81 524.321,1204.43 528.156,1202.66 530.627,1201.51 541.27,1196.58 541.643,1196.4 556.644,1188.44 561.834,1185.82 568.656,1182.44 579.81,1177.03 582.782,1175.6 583.816,1175.02 693.227,1122.06 718.27,1110.45 724.913,1107.37 741.296,1099.78 741.363,1099.75 756.657,1092.66 764.909,1088.2 781.389,1079.82 804.245,1068.79 822.654,1058.97 828.041,1055.81 832.423,1053.35 832.661,1053.22 835.34,1051.76 843.729,1047.32 862.171,1036.95 884.319,1025.8 894.087,1021.08 899.514,1018.5 906.44,1015.22 920.538,1008.59 926.16,1005.97 928.458,1004.69 958.025,989.574 977.162,980.413 986.832,975.856 990.628,974.075 992.729,973.091 998.479,970.403 1000.12,969.635 1001.77,968.865 1003.55,968.035 1019.26,960.726 1021.93,959.483 1029.24,956.089 1034.63,953.587 1034.77,953.506 1056.67,940.776 1070.19,933.811 1073.62,932.105 1078.86,929.524 1079.91,929.013 1090.02,924.129 1099.9,919.429 1108.27,915.486 1113.44,913.055 1131.19,904.765 1131.24,904.737 1140.33,899.818 1144.45,897.675 1164.59,887.647 1165.88,887.023 1170.64,884.733 1186.6,877.153 1191.36,874.916 1202.82,869.549 1262.11,840.084 1269.79,836.484 1276.42,833.385 1289.19,827.43 1293.19,825.571 1298.68,823.018 1301.84,821.553 1305.61,819.802 1307.57,818.891 1315.29,815.309 1328.87,809.008 1335.31,806.021 1336.75,805.354 1343.23,802.353 1362.21,793.553 1371.39,789.301 1374.82,787.713 1387.49,781.842 1387.5,781.836 1402.45,773.899 1410.56,769.82 1427.27,761.692 1460.41,744.478 1485.8,732.345 1510.16,720.944 1510.94,720.581 1536.12,708.873 1562.13,696.809 1562.17,696.79 1575.3,689.788 1588.93,682.949 1606.48,674.48 1607.98,673.765 1610.19,672.714 1611.26,672.208 1631.54,662.676 1653.64,652.38 1653.87,652.272 1676.55,641.745 1699.05,631.308 1721.22,621.036 1723.52,619.967 1723.75,619.861 1732.23,615.934 1737.59,613.45 1738.09,613.217 1744.7,610.153 1745.14,609.952 1745.17,609.937 1747.32,608.939 1748.61,608.34 1751.24,607.122 1757.65,604.153 1759.34,603.368 1789.42,589.434 1793.02,587.764 1793.14,587.71 1795.43,586.648 1796.84,585.993 1800.27,584.405 1805.02,582.204 1831.55,569.909 1832.78,569.34 1835.59,568.04 1841.17,565.451 1841.62,565.246 1850.6,561.086 1851.97,560.449 1859.02,557.182 1859.88,556.784 1864.88,554.054 1865.06,553.956 1867.15,552.844 1867.98,552.4 1877.61,547.439 1881.22,545.625 1896.68,537.038 1899.96,535.32 1910.5,529.974 1911.49,529.484 1914.19,528.148 1925.65,522.576 1941.59,514.996 1945.52,513.144 1963.86,504.559 1969.55,501.904 1971.22,501.13 1972.3,500.627 1972.85,500.368 1986,494.257 2007.9,484.092 2037.44,470.398 2040.29,469.076 2048.76,465.153 2050.51,464.342 2056.46,461.583 2088.7,446.646 2106.44,438.423 2109.37,437.068 2110.42,436.581 2112.13,435.786 2112.16,435.775 2117.88,433.126 2121.66,431.373 2127.61,428.616 2127.61,428.615 2132.4,426.395 2139.68,423.023 2144.22,420.921 2144.61,420.736 2171.71,406.732 2173.71,405.751 2177.3,404.006 2179.13,403.122 2182.25,401.62 2182.47,401.511 2192.1,396.918 2193.86,396.086 2196.34,394.912 2197.68,394.279 2202.41,392.051 2205.24,390.721 2214.71,386.289 2220.77,383.46 2225.89,381.072 2227.13,380.494 2229.71,379.294 2231.42,378.498 2231.86,378.293 2234.14,377.231 2250.21,369.77 2252.72,368.605 2286.34,351.41 2289.76,349.758 2290.85,349.234 2301.46,344.179 2309.64,340.316 2310.33,339.992 2330.22,330.685 2334.1,328.876 2336.33,327.838 2345.56,323.543 2347.53,322.63 2352.76,320.201 "/>
<polyline clip-path="url(#clip312)" style="stroke:#c68125; stroke-linecap:round; stroke-linejoin:round; stroke-width:4; stroke-opacity:1; fill:none" points="140.696,1384.24 140.696,1384.24 150.769,1379.57 150.984,1379.47 160.847,1374.16 164.904,1372.06 166.848,1371.07 167.622,1370.68 167.634,1370.67 171.684,1368.63 209.016,1349 215.967,1345.64 221.197,1343.13 237.056,1335.63 239.118,1334.66 249.418,1329.07 251.961,1327.52 252.671,1327.03 254.081,1326.07 261.292,1321.44 269.395,1316.02 271.83,1314.29 272.514,1313.82 278.622,1309.77 297.784,1297.48 298.591,1296.94 300.529,1295.68 309.583,1289.45 312.717,1287.19 313.705,1286.42 318.821,1282.17 326.101,1276.78 327.8,1275.61 329.223,1274.65 331.473,1272.98 336.021,1269.77 339.486,1267.46 349.283,1260.71 355.538,1256.33 365.924,1249.81 380.122,1241.88 383.311,1240.21 392.16,1235 396.922,1232.36 414.213,1223.36 417.954,1221.5 423.977,1218.54 457.573,1202.55 466.901,1198.19 480.458,1190.93 485.586,1188.32 517.036,1171.49 524.321,1167.91 528.156,1165.72 530.627,1164.35 541.27,1158.68 541.643,1158.49 556.644,1150.96 561.834,1148 568.656,1143.73 579.81,1136.54 582.782,1134.78 583.816,1134.18 693.227,1080.91 718.27,1069.3 724.913,1066.22 741.296,1058.62 741.363,1058.59 756.657,1051.51 764.909,1047.68 781.389,1040.04 804.245,1028.13 822.654,1019.19 828.041,1016.62 832.423,1014.18 832.661,1014.03 835.34,1012.34 843.729,1006.71 862.171,996.034 884.319,984.73 894.087,979.987 899.514,977.387 906.44,974.096 920.538,966.491 926.16,963.155 928.458,961.841 958.025,946.458 977.162,937.242 986.832,931.944 990.628,929.95 992.729,928.677 998.479,924.855 1000.12,923.814 1001.77,922.789 1003.55,921.545 1019.26,911.725 1021.93,910.205 1029.24,906.205 1034.63,902.924 1034.77,902.837 1056.67,890.913 1070.19,884.166 1073.62,882.498 1078.86,879.963 1079.91,879.461 1090.02,874.638 1099.9,869.977 1108.27,865.409 1113.44,862.694 1131.19,852.677 1131.24,852.65 1140.33,847.948 1144.45,845.877 1164.59,836.062 1165.88,835.33 1170.64,832.691 1186.6,823.309 1191.36,820.742 1202.82,813.988 1262.11,784.526 1269.79,780.927 1276.42,777.296 1289.19,770.674 1293.19,768.334 1298.68,765.247 1301.84,763.258 1305.61,760.971 1307.57,759.815 1315.29,755.453 1328.87,747.353 1335.31,743.829 1336.75,743.061 1343.23,739.682 1362.21,729.058 1371.39,723.652 1374.82,721.742 1387.49,714.136 1387.5,714.129 1402.45,706.096 1410.56,701.357 1427.27,692.437 1460.41,676.271 1485.8,664.345 1510.16,651.637 1510.94,651.181 1536.12,636.3 1562.13,623.198 1562.17,623.179 1575.3,616.887 1588.93,609.509 1606.48,600.692 1607.98,599.958 1610.19,598.686 1611.26,597.985 1631.54,586.077 1653.64,574.777 1653.87,574.663 1676.55,562.446 1699.05,551.403 1721.22,539.614 1723.52,538.255 1723.75,538.1 1732.23,532.694 1737.59,529.527 1738.09,529.192 1744.7,524.451 1745.14,524.156 1745.17,524.135 1747.32,522.508 1748.61,521.561 1751.24,519.463 1757.65,514.741 1759.34,513.42 1789.42,494.469 1793.02,492.229 1793.14,492.147 1795.43,490.569 1796.84,489.494 1800.27,486.993 1805.02,483.342 1831.55,465.373 1832.78,464.56 1835.59,462.508 1841.17,458.677 1841.62,458.386 1850.6,452.127 1851.97,451.113 1859.02,446.243 1859.88,445.681 1864.88,442.534 1865.06,442.422 1867.15,441.164 1867.98,440.665 1877.61,435.198 1881.22,433.244 1896.68,425.291 1899.96,423.378 1910.5,416.789 1911.49,416.21 1914.19,414.65 1925.65,408.38 1941.59,400.27 1945.52,398.002 1963.86,387.054 1969.55,383.983 1971.22,383.106 1972.3,382.54 1972.85,382.249 1986,375.591 2007.9,363.708 2037.44,347.751 2040.29,346.083 2048.76,341.359 2050.51,340.261 2056.46,336.195 2088.7,318.006 2106.44,309.235 2109.37,307.826 2110.42,307.321 2112.13,306.345 2112.16,306.329 2117.88,302.236 2121.66,299.712 2127.61,295.497 2127.61,295.495 2132.4,291.956 2139.68,287.051 2144.22,284.219 2144.61,283.977 2171.71,269.193 2173.71,268.007 2177.3,265.937 2179.13,264.743 2182.25,262.77 2182.47,262.608 2192.1,256.207 2193.86,254.966 2196.34,253.266 2197.68,252.252 2202.41,248.849 2205.24,246.926 2214.71,240.267 2220.77,235.946 2225.89,232.578 2227.13,231.795 2229.71,230.204 2231.42,229.171 2231.86,228.868 2234.14,227.328 2250.21,217.589 2252.72,216.194 2286.34,199.11 2289.76,197.463 2290.85,196.939 2301.46,191.894 2309.64,188.036 2310.33,187.65 2330.22,175.951 2334.1,173.877 2336.33,172.707 2345.56,167.286 2347.53,166.187 2352.76,163.339 "/>
<polyline clip-path="url(#clip312)" style="stroke:#00a98d; stroke-linecap:round; stroke-linejoin:round; stroke-width:4; stroke-opacity:1; fill:none" points="140.696,1384.24 140.696,1384.24 150.769,1379.57 150.984,1379.47 160.847,1374.9 164.904,1373.02 166.848,1371.95 167.622,1371.52 167.634,1371.52 171.684,1369.34 209.016,1349.13 215.967,1345.73 221.197,1343.21 237.056,1335.66 239.118,1334.69 249.418,1329.09 251.961,1327.76 252.671,1327.39 254.081,1326.66 261.292,1322.44 269.395,1317.98 271.83,1316.68 272.514,1316.32 278.622,1312.66 297.784,1302.27 298.591,1301.78 300.529,1300.46 309.583,1294.69 312.717,1292.56 313.705,1291.82 318.821,1287.74 326.101,1282.51 327.8,1281.23 329.223,1280.17 331.473,1278.36 336.021,1274.92 339.486,1272.46 349.283,1265.4 355.538,1260.87 365.924,1253.43 380.122,1244.76 383.311,1242.7 392.16,1236.67 396.922,1233.71 414.213,1223.98 417.954,1222.02 423.977,1218.94 457.573,1201.03 466.901,1196.49 480.458,1190.01 485.586,1187.58 517.036,1172.87 524.321,1169.48 528.156,1167.37 530.627,1166.04 541.27,1160.51 541.643,1160.32 556.644,1152.9 561.834,1150.39 568.656,1146.59 579.81,1139.89 582.782,1138.23 583.816,1137.65 693.227,1082.98 718.27,1069.97 724.913,1066.71 741.296,1057.79 741.363,1057.75 756.657,1049.03 764.909,1044.7 781.389,1036.47 804.245,1024.21 822.654,1015.16 828.041,1012.57 832.423,1010.12 832.661,1009.96 835.34,1008.04 843.729,1002.47 862.171,991.862 884.319,979.294 894.087,974.289 899.514,971.586 906.44,968.195 920.538,960.462 926.16,957.554 928.458,956.385 958.025,941.988 977.162,932.976 986.832,928.458 990.628,926.689 992.729,925.524 998.479,921.952 1000.12,920.971 1001.77,920.002 1003.55,918.814 1019.26,909.336 1021.93,907.853 1029.24,903.358 1034.63,899.803 1034.77,899.71 1056.67,887.165 1070.19,880.251 1073.62,878.26 1078.86,875.318 1079.91,874.745 1090.02,868.636 1099.9,863.174 1108.27,858.158 1113.44,855.239 1131.19,844.795 1131.24,844.767 1140.33,839.948 1144.45,837.49 1164.59,826.54 1165.88,825.765 1170.64,822.986 1186.6,813.305 1191.36,810.683 1202.82,803.836 1262.11,774.247 1269.79,770.644 1276.42,767.012 1289.19,760.387 1293.19,758.047 1298.68,754.509 1301.84,752.307 1305.61,749.802 1307.57,748.546 1315.29,743.868 1328.87,735.419 1335.31,731.791 1336.75,731.004 1343.23,727.552 1362.21,717.986 1371.39,712.845 1374.82,711.009 1387.49,703.596 1387.5,703.59 1402.45,695.68 1410.56,691.609 1427.27,683.491 1460.41,667.879 1485.8,656.062 1510.16,643.389 1510.94,643.004 1536.12,629.482 1562.13,616.825 1562.17,616.802 1575.3,609.683 1588.93,601.833 1606.48,592.713 1607.98,591.962 1610.19,590.864 1611.26,590.24 1631.54,578.04 1653.64,566.617 1653.87,566.503 1676.55,554.24 1699.05,543.181 1721.22,532.685 1723.52,531.401 1723.75,531.253 1732.23,526.061 1737.59,522.992 1738.09,522.711 1744.7,518.579 1745.14,518.318 1745.17,518.3 1747.32,516.832 1748.61,515.973 1751.24,514.039 1757.65,509.646 1759.34,508.396 1789.42,490.119 1793.02,487.913 1793.14,487.844 1795.43,486.486 1796.84,485.535 1800.27,483.306 1805.02,480.365 1831.55,465.906 1832.78,465.176 1835.59,463.295 1841.17,459.746 1841.62,459.435 1850.6,452.826 1851.97,451.77 1859.02,446.162 1859.88,445.447 1864.88,441.518 1865.06,441.38 1867.15,439.846 1867.98,439.167 1877.61,432.055 1881.22,429.646 1896.68,420.402 1899.96,418.312 1910.5,411.304 1911.49,410.606 1914.19,408.745 1925.65,401.537 1941.59,392.716 1945.52,390.339 1963.86,380.228 1969.55,377.304 1971.22,376.464 1972.3,375.92 1972.85,375.641 1986,369.176 2007.9,357.445 2037.44,341.554 2040.29,340.136 2048.76,335.993 2050.51,335.145 2056.46,332.283 2088.7,317.09 2106.44,308.823 2109.37,307.464 2110.42,306.976 2112.13,306.179 2112.16,306.168 2117.88,303.512 2121.66,301.756 2127.61,298.511 2127.61,298.51 2132.4,295.982 2139.68,291.678 2144.22,288.751 2144.61,288.501 2171.71,273.429 2173.71,272.41 2177.3,270.604 2179.13,269.529 2182.25,267.468 2182.47,267.321 2192.1,261.434 2193.86,260.421 2196.34,258.797 2197.68,257.941 2202.41,255.025 2205.24,253.349 2214.71,247.317 2220.77,243.278 2225.89,240.095 2227.13,239.351 2229.71,237.833 2231.42,236.693 2231.86,236.404 2234.14,234.931 2250.21,225.515 2252.72,224.153 2286.34,207.281 2289.76,205.642 2290.85,205.121 2301.46,200.095 2309.64,196.245 2310.33,195.86 2330.22,184.173 2334.1,181.771 2336.33,180.435 2345.56,174.485 2347.53,173.3 2352.76,169.823 "/>
<polyline clip-path="url(#clip312)" style="stroke:#8e971d; stroke-linecap:round; stroke-linejoin:round; stroke-width:4; stroke-opacity:1; fill:none" points="140.696,1384.24 140.696,1384.24 150.769,1378.82 150.984,1378.69 160.847,1372.92 164.904,1370.69 166.848,1369.64 167.622,1369.22 167.634,1369.22 171.684,1366.73 209.016,1345.3 215.967,1341.27 221.197,1338.38 237.056,1329.1 239.118,1327.98 249.418,1321.82 251.961,1320.38 252.671,1319.99 254.081,1319.08 261.292,1314.68 269.395,1310.07 271.83,1308.74 272.514,1308.31 278.622,1304.6 297.784,1294.11 298.591,1293.69 300.529,1292.7 309.583,1288.16 312.717,1286.61 313.705,1286.04 318.821,1283.15 326.101,1278.63 327.8,1277.63 329.223,1276.67 331.473,1275.2 336.021,1271.96 339.486,1269.34 349.283,1262.65 355.538,1258.8 365.924,1252.9 380.122,1245.46 383.311,1243.85 392.16,1239.48 396.922,1237.16 414.213,1228.9 417.954,1226.82 423.977,1223.57 457.573,1206.87 466.901,1202.44 480.458,1196.06 485.586,1193.23 517.036,1177.36 524.321,1173.86 528.156,1172.04 530.627,1170.87 541.27,1165.85 541.643,1165.67 556.644,1158.66 561.834,1156.24 568.656,1153.06 579.81,1147.06 582.782,1145.27 583.816,1144.66 693.227,1091.2 718.27,1079.59 724.913,1075.97 741.296,1067.58 741.363,1067.55 756.657,1060.1 764.909,1056.16 781.389,1047.32 804.245,1036.02 822.654,1027.27 828.041,1024.74 832.423,1022.31 832.661,1022.18 835.34,1020.74 843.729,1016.36 862.171,1007.2 884.319,996.641 894.087,991.321 899.514,988.494 906.44,984.984 920.538,978.064 926.16,975.361 928.458,974.263 958.025,960.338 977.162,950.236 986.832,945.436 990.628,943.585 992.729,942.382 998.479,938.719 1000.12,937.569 1001.77,936.443 1003.55,935.098 1019.26,924.667 1021.93,923.079 1029.24,918.931 1034.63,916.011 1034.77,915.933 1056.67,904.829 1070.19,898.305 1073.62,896.674 1078.86,893.755 1079.91,893.185 1090.02,887.858 1099.9,882.883 1108.27,878.139 1113.44,874.916 1131.19,863.835 1131.24,863.806 1140.33,858.121 1144.45,855.722 1164.59,844.944 1165.88,844.291 1170.64,841.511 1186.6,831.827 1191.36,829.204 1202.82,822.357 1262.11,792.767 1269.79,789.164 1276.42,785.532 1289.19,778.007 1293.19,775.815 1298.68,772.892 1301.84,770.981 1305.61,768.773 1307.57,767.653 1315.29,763.406 1328.87,756.375 1335.31,753.17 1336.75,752.332 1343.23,748.69 1362.21,738.802 1371.39,734.277 1374.82,732.318 1387.49,724.587 1387.5,724.58 1402.45,716.468 1410.56,712.332 1427.27,703.049 1460.41,686.632 1485.8,674.656 1510.16,663.304 1510.94,662.942 1536.12,651.25 1562.13,637.771 1562.17,637.751 1575.3,631.385 1588.93,624.907 1606.48,616.671 1607.98,615.969 1610.19,614.935 1611.26,614.437 1631.54,604.999 1653.64,593.445 1653.87,593.33 1676.55,582.335 1699.05,570.419 1721.22,559.616 1723.52,558.517 1723.75,558.386 1732.23,553.072 1737.59,549.507 1738.09,549.185 1744.7,545.124 1745.14,544.867 1745.17,544.849 1747.32,543.59 1748.61,542.847 1751.24,541.129 1757.65,536.651 1759.34,535.383 1789.42,516.93 1793.02,515.024 1793.14,514.963 1795.43,513.569 1796.84,512.725 1800.27,510.433 1805.02,507.42 1831.55,492.749 1832.78,492.013 1835.59,490.122 1841.17,486.099 1841.62,485.795 1850.6,480.001 1851.97,479.043 1859.02,474.412 1859.88,473.874 1864.88,470.851 1865.06,470.743 1867.15,469.528 1867.98,469.046 1877.61,463.005 1881.22,460.892 1896.68,452.489 1899.96,450.515 1910.5,444.557 1911.49,444.023 1914.19,442.341 1925.65,434.862 1941.59,424.782 1945.52,422.544 1963.86,412.837 1969.55,409.519 1971.22,408.432 1972.3,407.642 1972.85,407.187 1986,397.661 2007.9,384.842 2037.44,369.989 2040.29,368.617 2048.76,363.925 2050.51,362.988 2056.46,359.869 2088.7,344.036 2106.44,335.662 2109.37,334.038 2110.42,333.463 2112.13,332.532 2112.16,332.519 2117.88,329.488 2121.66,327.208 2127.61,323.785 2127.61,323.783 2132.4,321.143 2139.68,317.283 2144.22,314.948 2144.61,314.708 2171.71,300.019 2173.71,299.014 2177.3,297.23 2179.13,296.327 2182.25,294.799 2182.47,294.688 2192.1,290.032 2193.86,289.192 2196.34,288.007 2197.68,287.369 2202.41,284.729 2205.24,283.191 2214.71,277.515 2220.77,273.635 2225.89,270.557 2227.13,269.835 2229.71,268.359 2231.42,267.397 2231.86,267.151 2234.14,265.69 2250.21,256.329 2252.72,254.973 2286.34,238.137 2289.76,236.499 2290.85,235.88 2301.46,229.332 2309.64,224.082 2310.33,223.6 2330.22,211.328 2334.1,209.191 2336.33,207.791 2345.56,202.335 2347.53,201.231 2352.76,198.37 "/>
<path clip-path="url(#clip310)" d="M214.431 663.349 L554.896 663.349 L554.896 93.1086 L214.431 93.1086  Z" fill="#ffffff" fill-rule="evenodd" fill-opacity="1"/>
<polyline clip-path="url(#clip310)" style="stroke:#000000; stroke-linecap:round; stroke-linejoin:round; stroke-width:4; stroke-opacity:1; fill:none" points="214.431,663.349 554.896,663.349 554.896,93.1086 214.431,93.1086 214.431,663.349 "/>
<polyline clip-path="url(#clip310)" style="stroke:#009af9; stroke-linecap:round; stroke-linejoin:round; stroke-width:4; stroke-opacity:1; fill:none" points="239.009,144.949 386.48,144.949 "/>
<path clip-path="url(#clip310)" d="M411.058 151.997 L411.058 136.303 L415.318 136.303 L415.318 151.835 Q415.318 155.516 416.753 157.368 Q418.188 159.196 421.058 159.196 Q424.507 159.196 426.498 156.997 Q428.512 154.798 428.512 151.002 L428.512 136.303 L432.771 136.303 L432.771 162.229 L428.512 162.229 L428.512 158.247 Q426.961 160.608 424.901 161.766 Q422.864 162.9 420.156 162.9 Q415.688 162.9 413.373 160.122 Q411.058 157.344 411.058 151.997 M421.776 135.678 L421.776 135.678 Z" fill="#000000" fill-rule="nonzero" fill-opacity="1" /><path clip-path="url(#clip310)" d="M441.151 126.21 L450.966 126.21 L450.966 129.52 L445.41 129.52 L445.41 165.168 L450.966 165.168 L450.966 168.479 L441.151 168.479 L441.151 126.21 Z" fill="#000000" fill-rule="nonzero" fill-opacity="1" /><path clip-path="url(#clip310)" d="M461.452 158.293 L469.091 158.293 L469.091 131.928 L460.78 133.595 L460.78 129.335 L469.044 127.669 L473.72 127.669 L473.72 158.293 L481.359 158.293 L481.359 162.229 L461.452 162.229 L461.452 158.293 Z" fill="#000000" fill-rule="nonzero" fill-opacity="1" /><path clip-path="url(#clip310)" d="M500.155 126.21 L500.155 168.479 L490.34 168.479 L490.34 165.168 L495.873 165.168 L495.873 129.52 L490.34 129.52 L490.34 126.21 L500.155 126.21 Z" fill="#000000" fill-rule="nonzero" fill-opacity="1" /><polyline clip-path="url(#clip310)" style="stroke:#e26f46; stroke-linecap:round; stroke-linejoin:round; stroke-width:4; stroke-opacity:1; fill:none" points="239.009,196.789 386.48,196.789 "/>
<path clip-path="url(#clip310)" d="M411.058 203.837 L411.058 188.143 L415.318 188.143 L415.318 203.675 Q415.318 207.356 416.753 209.208 Q418.188 211.036 421.058 211.036 Q424.507 211.036 426.498 208.837 Q428.512 206.638 428.512 202.842 L428.512 188.143 L432.771 188.143 L432.771 214.069 L428.512 214.069 L428.512 210.087 Q426.961 212.448 424.901 213.606 Q422.864 214.74 420.156 214.74 Q415.688 214.74 413.373 211.962 Q411.058 209.184 411.058 203.837 M421.776 187.518 L421.776 187.518 Z" fill="#000000" fill-rule="nonzero" fill-opacity="1" /><path clip-path="url(#clip310)" d="M441.151 178.05 L450.966 178.05 L450.966 181.36 L445.41 181.36 L445.41 217.008 L450.966 217.008 L450.966 220.319 L441.151 220.319 L441.151 178.05 Z" fill="#000000" fill-rule="nonzero" fill-opacity="1" /><path clip-path="url(#clip310)" d="M464.669 210.133 L480.989 210.133 L480.989 214.069 L459.044 214.069 L459.044 210.133 Q461.706 207.379 466.29 202.749 Q470.896 198.096 472.077 196.754 Q474.322 194.231 475.202 192.495 Q476.104 190.735 476.104 189.046 Q476.104 186.291 474.16 184.555 Q472.239 182.819 469.137 182.819 Q466.938 182.819 464.484 183.583 Q462.054 184.347 459.276 185.897 L459.276 181.175 Q462.1 180.041 464.554 179.462 Q467.007 178.884 469.044 178.884 Q474.415 178.884 477.609 181.569 Q480.803 184.254 480.803 188.745 Q480.803 190.874 479.993 192.796 Q479.206 194.694 477.1 197.286 Q476.521 197.958 473.419 201.175 Q470.317 204.37 464.669 210.133 Z" fill="#000000" fill-rule="nonzero" fill-opacity="1" /><path clip-path="url(#clip310)" d="M500.155 178.05 L500.155 220.319 L490.34 220.319 L490.34 217.008 L495.873 217.008 L495.873 181.36 L490.34 181.36 L490.34 178.05 L500.155 178.05 Z" fill="#000000" fill-rule="nonzero" fill-opacity="1" /><polyline clip-path="url(#clip310)" style="stroke:#3da44d; stroke-linecap:round; stroke-linejoin:round; stroke-width:4; stroke-opacity:1; fill:none" points="239.009,248.629 386.48,248.629 "/>
<path clip-path="url(#clip310)" d="M411.058 255.677 L411.058 239.983 L415.318 239.983 L415.318 255.515 Q415.318 259.196 416.753 261.048 Q418.188 262.876 421.058 262.876 Q424.507 262.876 426.498 260.677 Q428.512 258.478 428.512 254.682 L428.512 239.983 L432.771 239.983 L432.771 265.909 L428.512 265.909 L428.512 261.927 Q426.961 264.288 424.901 265.446 Q422.864 266.58 420.156 266.58 Q415.688 266.58 413.373 263.802 Q411.058 261.024 411.058 255.677 M421.776 239.358 L421.776 239.358 Z" fill="#000000" fill-rule="nonzero" fill-opacity="1" /><path clip-path="url(#clip310)" d="M441.151 229.89 L450.966 229.89 L450.966 233.2 L445.41 233.2 L445.41 268.848 L450.966 268.848 L450.966 272.159 L441.151 272.159 L441.151 229.89 Z" fill="#000000" fill-rule="nonzero" fill-opacity="1" /><path clip-path="url(#clip310)" d="M474.808 247.274 Q478.165 247.992 480.04 250.261 Q481.938 252.529 481.938 255.862 Q481.938 260.978 478.419 263.779 Q474.901 266.58 468.419 266.58 Q466.243 266.58 463.929 266.14 Q461.637 265.723 459.183 264.867 L459.183 260.353 Q461.128 261.487 463.442 262.066 Q465.757 262.645 468.28 262.645 Q472.679 262.645 474.97 260.909 Q477.285 259.173 477.285 255.862 Q477.285 252.807 475.132 251.094 Q473.003 249.358 469.183 249.358 L465.155 249.358 L465.155 245.515 L469.368 245.515 Q472.817 245.515 474.646 244.149 Q476.475 242.761 476.475 240.168 Q476.475 237.506 474.577 236.094 Q472.702 234.659 469.183 234.659 Q467.262 234.659 465.063 235.075 Q462.864 235.492 460.225 236.372 L460.225 232.205 Q462.887 231.464 465.202 231.094 Q467.54 230.724 469.6 230.724 Q474.924 230.724 478.026 233.154 Q481.128 235.562 481.128 239.682 Q481.128 242.552 479.484 244.543 Q477.841 246.511 474.808 247.274 Z" fill="#000000" fill-rule="nonzero" fill-opacity="1" /><path clip-path="url(#clip310)" d="M500.155 229.89 L500.155 272.159 L490.34 272.159 L490.34 268.848 L495.873 268.848 L495.873 233.2 L490.34 233.2 L490.34 229.89 L500.155 229.89 Z" fill="#000000" fill-rule="nonzero" fill-opacity="1" /><polyline clip-path="url(#clip310)" style="stroke:#c271d2; stroke-linecap:round; stroke-linejoin:round; stroke-width:4; stroke-opacity:1; fill:none" points="239.009,300.469 386.48,300.469 "/>
<path clip-path="url(#clip310)" d="M411.058 307.517 L411.058 291.823 L415.318 291.823 L415.318 307.355 Q415.318 311.036 416.753 312.888 Q418.188 314.716 421.058 314.716 Q424.507 314.716 426.498 312.517 Q428.512 310.318 428.512 306.522 L428.512 291.823 L432.771 291.823 L432.771 317.749 L428.512 317.749 L428.512 313.767 Q426.961 316.128 424.901 317.286 Q422.864 318.42 420.156 318.42 Q415.688 318.42 413.373 315.642 Q411.058 312.864 411.058 307.517 M421.776 291.198 L421.776 291.198 Z" fill="#000000" fill-rule="nonzero" fill-opacity="1" /><path clip-path="url(#clip310)" d="M441.151 281.73 L450.966 281.73 L450.966 285.04 L445.41 285.04 L445.41 320.688 L450.966 320.688 L450.966 323.999 L441.151 323.999 L441.151 281.73 Z" fill="#000000" fill-rule="nonzero" fill-opacity="1" /><path clip-path="url(#clip310)" d="M473.489 287.263 L461.683 305.712 L473.489 305.712 L473.489 287.263 M472.262 283.189 L478.141 283.189 L478.141 305.712 L483.072 305.712 L483.072 309.601 L478.141 309.601 L478.141 317.749 L473.489 317.749 L473.489 309.601 L457.887 309.601 L457.887 305.087 L472.262 283.189 Z" fill="#000000" fill-rule="nonzero" fill-opacity="1" /><path clip-path="url(#clip310)" d="M500.155 281.73 L500.155 323.999 L490.34 323.999 L490.34 320.688 L495.873 320.688 L495.873 285.04 L490.34 285.04 L490.34 281.73 L500.155 281.73 Z" fill="#000000" fill-rule="nonzero" fill-opacity="1" /><polyline clip-path="url(#clip310)" style="stroke:#ac8d18; stroke-linecap:round; stroke-linejoin:round; stroke-width:4; stroke-opacity:1; fill:none" points="239.009,352.309 386.48,352.309 "/>
<path clip-path="url(#clip310)" d="M411.058 359.357 L411.058 343.663 L415.318 343.663 L415.318 359.195 Q415.318 362.876 416.753 364.728 Q418.188 366.556 421.058 366.556 Q424.507 366.556 426.498 364.357 Q428.512 362.158 428.512 358.362 L428.512 343.663 L432.771 343.663 L432.771 369.589 L428.512 369.589 L428.512 365.607 Q426.961 367.968 424.901 369.126 Q422.864 370.26 420.156 370.26 Q415.688 370.26 413.373 367.482 Q411.058 364.704 411.058 359.357 M421.776 343.038 L421.776 343.038 Z" fill="#000000" fill-rule="nonzero" fill-opacity="1" /><path clip-path="url(#clip310)" d="M441.151 333.57 L450.966 333.57 L450.966 336.88 L445.41 336.88 L445.41 372.528 L450.966 372.528 L450.966 375.839 L441.151 375.839 L441.151 333.57 Z" fill="#000000" fill-rule="nonzero" fill-opacity="1" /><path clip-path="url(#clip310)" d="M460.688 335.029 L479.044 335.029 L479.044 338.964 L464.97 338.964 L464.97 347.436 Q465.989 347.089 467.007 346.927 Q468.026 346.742 469.044 346.742 Q474.831 346.742 478.211 349.913 Q481.591 353.084 481.591 358.501 Q481.591 364.079 478.118 367.181 Q474.646 370.26 468.327 370.26 Q466.151 370.26 463.882 369.89 Q461.637 369.519 459.23 368.778 L459.23 364.079 Q461.313 365.214 463.535 365.769 Q465.757 366.325 468.234 366.325 Q472.239 366.325 474.577 364.218 Q476.915 362.112 476.915 358.501 Q476.915 354.89 474.577 352.783 Q472.239 350.677 468.234 350.677 Q466.359 350.677 464.484 351.093 Q462.632 351.51 460.688 352.39 L460.688 335.029 Z" fill="#000000" fill-rule="nonzero" fill-opacity="1" /><path clip-path="url(#clip310)" d="M500.155 333.57 L500.155 375.839 L490.34 375.839 L490.34 372.528 L495.873 372.528 L495.873 336.88 L490.34 336.88 L490.34 333.57 L500.155 333.57 Z" fill="#000000" fill-rule="nonzero" fill-opacity="1" /><polyline clip-path="url(#clip310)" style="stroke:#00a9ad; stroke-linecap:round; stroke-linejoin:round; stroke-width:4; stroke-opacity:1; fill:none" points="239.009,404.149 386.48,404.149 "/>
<path clip-path="url(#clip310)" d="M411.058 411.197 L411.058 395.503 L415.318 395.503 L415.318 411.035 Q415.318 414.716 416.753 416.568 Q418.188 418.396 421.058 418.396 Q424.507 418.396 426.498 416.197 Q428.512 413.998 428.512 410.202 L428.512 395.503 L432.771 395.503 L432.771 421.429 L428.512 421.429 L428.512 417.447 Q426.961 419.808 424.901 420.966 Q422.864 422.1 420.156 422.1 Q415.688 422.1 413.373 419.322 Q411.058 416.544 411.058 411.197 M421.776 394.878 L421.776 394.878 Z" fill="#000000" fill-rule="nonzero" fill-opacity="1" /><path clip-path="url(#clip310)" d="M441.151 385.41 L450.966 385.41 L450.966 388.72 L445.41 388.72 L445.41 424.368 L450.966 424.368 L450.966 427.679 L441.151 427.679 L441.151 385.41 Z" fill="#000000" fill-rule="nonzero" fill-opacity="1" /><path clip-path="url(#clip310)" d="M471.22 402.285 Q468.072 402.285 466.22 404.438 Q464.392 406.591 464.392 410.341 Q464.392 414.068 466.22 416.243 Q468.072 418.396 471.22 418.396 Q474.368 418.396 476.197 416.243 Q478.049 414.068 478.049 410.341 Q478.049 406.591 476.197 404.438 Q474.368 402.285 471.22 402.285 M480.503 387.633 L480.503 391.892 Q478.743 391.058 476.938 390.619 Q475.155 390.179 473.396 390.179 Q468.766 390.179 466.313 393.304 Q463.882 396.429 463.535 402.748 Q464.901 400.734 466.961 399.669 Q469.021 398.582 471.498 398.582 Q476.706 398.582 479.716 401.753 Q482.748 404.901 482.748 410.341 Q482.748 415.665 479.6 418.882 Q476.452 422.1 471.22 422.1 Q465.225 422.1 462.054 417.517 Q458.882 412.91 458.882 404.183 Q458.882 395.989 462.771 391.128 Q466.66 386.244 473.211 386.244 Q474.97 386.244 476.753 386.591 Q478.558 386.938 480.503 387.633 Z" fill="#000000" fill-rule="nonzero" fill-opacity="1" /><path clip-path="url(#clip310)" d="M500.155 385.41 L500.155 427.679 L490.34 427.679 L490.34 424.368 L495.873 424.368 L495.873 388.72 L490.34 388.72 L490.34 385.41 L500.155 385.41 Z" fill="#000000" fill-rule="nonzero" fill-opacity="1" /><polyline clip-path="url(#clip310)" style="stroke:#ed5d92; stroke-linecap:round; stroke-linejoin:round; stroke-width:4; stroke-opacity:1; fill:none" points="239.009,455.989 386.48,455.989 "/>
<path clip-path="url(#clip310)" d="M411.058 463.037 L411.058 447.343 L415.318 447.343 L415.318 462.875 Q415.318 466.556 416.753 468.408 Q418.188 470.236 421.058 470.236 Q424.507 470.236 426.498 468.037 Q428.512 465.838 428.512 462.042 L428.512 447.343 L432.771 447.343 L432.771 473.269 L428.512 473.269 L428.512 469.287 Q426.961 471.648 424.901 472.806 Q422.864 473.94 420.156 473.94 Q415.688 473.94 413.373 471.162 Q411.058 468.384 411.058 463.037 M421.776 446.718 L421.776 446.718 Z" fill="#000000" fill-rule="nonzero" fill-opacity="1" /><path clip-path="url(#clip310)" d="M441.151 437.25 L450.966 437.25 L450.966 440.56 L445.41 440.56 L445.41 476.208 L450.966 476.208 L450.966 479.519 L441.151 479.519 L441.151 437.25 Z" fill="#000000" fill-rule="nonzero" fill-opacity="1" /><path clip-path="url(#clip310)" d="M459.461 438.709 L481.683 438.709 L481.683 440.699 L469.137 473.269 L464.253 473.269 L476.058 442.644 L459.461 442.644 L459.461 438.709 Z" fill="#000000" fill-rule="nonzero" fill-opacity="1" /><path clip-path="url(#clip310)" d="M500.155 437.25 L500.155 479.519 L490.34 479.519 L490.34 476.208 L495.873 476.208 L495.873 440.56 L490.34 440.56 L490.34 437.25 L500.155 437.25 Z" fill="#000000" fill-rule="nonzero" fill-opacity="1" /><polyline clip-path="url(#clip310)" style="stroke:#c68125; stroke-linecap:round; stroke-linejoin:round; stroke-width:4; stroke-opacity:1; fill:none" points="239.009,507.829 386.48,507.829 "/>
<path clip-path="url(#clip310)" d="M411.058 514.877 L411.058 499.183 L415.318 499.183 L415.318 514.715 Q415.318 518.396 416.753 520.248 Q418.188 522.076 421.058 522.076 Q424.507 522.076 426.498 519.877 Q428.512 517.678 428.512 513.882 L428.512 499.183 L432.771 499.183 L432.771 525.109 L428.512 525.109 L428.512 521.127 Q426.961 523.488 424.901 524.646 Q422.864 525.78 420.156 525.78 Q415.688 525.78 413.373 523.002 Q411.058 520.224 411.058 514.877 M421.776 498.558 L421.776 498.558 Z" fill="#000000" fill-rule="nonzero" fill-opacity="1" /><path clip-path="url(#clip310)" d="M441.151 489.09 L450.966 489.09 L450.966 492.4 L445.41 492.4 L445.41 528.048 L450.966 528.048 L450.966 531.359 L441.151 531.359 L441.151 489.09 Z" fill="#000000" fill-rule="nonzero" fill-opacity="1" /><path clip-path="url(#clip310)" d="M470.641 508.697 Q467.308 508.697 465.387 510.479 Q463.489 512.261 463.489 515.386 Q463.489 518.511 465.387 520.294 Q467.308 522.076 470.641 522.076 Q473.975 522.076 475.896 520.294 Q477.817 518.488 477.817 515.386 Q477.817 512.261 475.896 510.479 Q473.998 508.697 470.641 508.697 M465.966 506.706 Q462.956 505.965 461.267 503.905 Q459.6 501.845 459.6 498.882 Q459.6 494.738 462.54 492.331 Q465.503 489.924 470.641 489.924 Q475.803 489.924 478.743 492.331 Q481.683 494.738 481.683 498.882 Q481.683 501.845 479.993 503.905 Q478.327 505.965 475.341 506.706 Q478.72 507.493 480.595 509.785 Q482.493 512.076 482.493 515.386 Q482.493 520.41 479.415 523.095 Q476.359 525.78 470.641 525.78 Q464.924 525.78 461.845 523.095 Q458.79 520.41 458.79 515.386 Q458.79 512.076 460.688 509.785 Q462.586 507.493 465.966 506.706 M464.253 499.322 Q464.253 502.007 465.919 503.512 Q467.609 505.016 470.641 505.016 Q473.651 505.016 475.341 503.512 Q477.053 502.007 477.053 499.322 Q477.053 496.637 475.341 495.132 Q473.651 493.627 470.641 493.627 Q467.609 493.627 465.919 495.132 Q464.253 496.637 464.253 499.322 Z" fill="#000000" fill-rule="nonzero" fill-opacity="1" /><path clip-path="url(#clip310)" d="M500.155 489.09 L500.155 531.359 L490.34 531.359 L490.34 528.048 L495.873 528.048 L495.873 492.4 L490.34 492.4 L490.34 489.09 L500.155 489.09 Z" fill="#000000" fill-rule="nonzero" fill-opacity="1" /><polyline clip-path="url(#clip310)" style="stroke:#00a98d; stroke-linecap:round; stroke-linejoin:round; stroke-width:4; stroke-opacity:1; fill:none" points="239.009,559.669 386.48,559.669 "/>
<path clip-path="url(#clip310)" d="M411.058 566.717 L411.058 551.023 L415.318 551.023 L415.318 566.555 Q415.318 570.236 416.753 572.088 Q418.188 573.916 421.058 573.916 Q424.507 573.916 426.498 571.717 Q428.512 569.518 428.512 565.722 L428.512 551.023 L432.771 551.023 L432.771 576.949 L428.512 576.949 L428.512 572.967 Q426.961 575.328 424.901 576.486 Q422.864 577.62 420.156 577.62 Q415.688 577.62 413.373 574.842 Q411.058 572.064 411.058 566.717 M421.776 550.398 L421.776 550.398 Z" fill="#000000" fill-rule="nonzero" fill-opacity="1" /><path clip-path="url(#clip310)" d="M441.151 540.93 L450.966 540.93 L450.966 544.24 L445.41 544.24 L445.41 579.888 L450.966 579.888 L450.966 583.199 L441.151 583.199 L441.151 540.93 Z" fill="#000000" fill-rule="nonzero" fill-opacity="1" /><path clip-path="url(#clip310)" d="M460.78 576.231 L460.78 571.972 Q462.54 572.805 464.345 573.245 Q466.151 573.685 467.887 573.685 Q472.516 573.685 474.947 570.583 Q477.401 567.458 477.748 561.115 Q476.405 563.106 474.345 564.171 Q472.285 565.236 469.785 565.236 Q464.6 565.236 461.567 562.111 Q458.558 558.963 458.558 553.523 Q458.558 548.199 461.706 544.981 Q464.854 541.764 470.086 541.764 Q476.081 541.764 479.229 546.37 Q482.401 550.953 482.401 559.703 Q482.401 567.875 478.512 572.759 Q474.646 577.62 468.095 577.62 Q466.336 577.62 464.53 577.273 Q462.725 576.925 460.78 576.231 M470.086 561.578 Q473.234 561.578 475.063 559.426 Q476.915 557.273 476.915 553.523 Q476.915 549.796 475.063 547.643 Q473.234 545.467 470.086 545.467 Q466.938 545.467 465.086 547.643 Q463.257 549.796 463.257 553.523 Q463.257 557.273 465.086 559.426 Q466.938 561.578 470.086 561.578 Z" fill="#000000" fill-rule="nonzero" fill-opacity="1" /><path clip-path="url(#clip310)" d="M500.155 540.93 L500.155 583.199 L490.34 583.199 L490.34 579.888 L495.873 579.888 L495.873 544.24 L490.34 544.24 L490.34 540.93 L500.155 540.93 Z" fill="#000000" fill-rule="nonzero" fill-opacity="1" /><polyline clip-path="url(#clip310)" style="stroke:#8e971d; stroke-linecap:round; stroke-linejoin:round; stroke-width:4; stroke-opacity:1; fill:none" points="239.009,611.509 386.48,611.509 "/>
<path clip-path="url(#clip310)" d="M411.058 618.557 L411.058 602.863 L415.318 602.863 L415.318 618.395 Q415.318 622.076 416.753 623.928 Q418.188 625.756 421.058 625.756 Q424.507 625.756 426.498 623.557 Q428.512 621.358 428.512 617.562 L428.512 602.863 L432.771 602.863 L432.771 628.789 L428.512 628.789 L428.512 624.807 Q426.961 627.168 424.901 628.326 Q422.864 629.46 420.156 629.46 Q415.688 629.46 413.373 626.682 Q411.058 623.904 411.058 618.557 M421.776 602.238 L421.776 602.238 Z" fill="#000000" fill-rule="nonzero" fill-opacity="1" /><path clip-path="url(#clip310)" d="M441.151 592.77 L450.966 592.77 L450.966 596.08 L445.41 596.08 L445.41 631.728 L450.966 631.728 L450.966 635.039 L441.151 635.039 L441.151 592.77 Z" fill="#000000" fill-rule="nonzero" fill-opacity="1" /><path clip-path="url(#clip310)" d="M461.452 624.853 L469.091 624.853 L469.091 598.488 L460.78 600.155 L460.78 595.895 L469.044 594.229 L473.72 594.229 L473.72 624.853 L481.359 624.853 L481.359 628.789 L461.452 628.789 L461.452 624.853 Z" fill="#000000" fill-rule="nonzero" fill-opacity="1" /><path clip-path="url(#clip310)" d="M500.803 597.307 Q497.192 597.307 495.364 600.872 Q493.558 604.414 493.558 611.543 Q493.558 618.65 495.364 622.215 Q497.192 625.756 500.803 625.756 Q504.438 625.756 506.243 622.215 Q508.072 618.65 508.072 611.543 Q508.072 604.414 506.243 600.872 Q504.438 597.307 500.803 597.307 M500.803 593.604 Q506.614 593.604 509.669 598.21 Q512.748 602.793 512.748 611.543 Q512.748 620.27 509.669 624.877 Q506.614 629.46 500.803 629.46 Q494.993 629.46 491.915 624.877 Q488.859 620.27 488.859 611.543 Q488.859 602.793 491.915 598.21 Q494.993 593.604 500.803 593.604 Z" fill="#000000" fill-rule="nonzero" fill-opacity="1" /><path clip-path="url(#clip310)" d="M530.317 592.77 L530.317 635.039 L520.502 635.039 L520.502 631.728 L526.035 631.728 L526.035 596.08 L520.502 596.08 L520.502 592.77 L530.317 592.77 Z" fill="#000000" fill-rule="nonzero" fill-opacity="1" /></svg>
