<?xml version="1.0" encoding="utf-8"?>
<svg xmlns="http://www.w3.org/2000/svg" xmlns:xlink="http://www.w3.org/1999/xlink" width="600" height="400" viewBox="0 0 2400 1600">
<defs>
  <clipPath id="clip010">
    <rect x="0" y="0" width="2400" height="1600"/>
  </clipPath>
</defs>
<path clip-path="url(#clip010)" d="M0 1600 L2400 1600 L2400 0 L0 0  Z" fill="#ffffff" fill-rule="evenodd" fill-opacity="1"/>
<defs>
  <clipPath id="clip011">
    <rect x="138" y="47" width="2215" height="1377"/>
  </clipPath>
</defs>
<path clip-path="url(#clip010)" d="M138.959 1423.18 L2352.76 1423.18 L2352.76 47.2441 L138.959 47.2441  Z" fill="#ffffff" fill-rule="evenodd" fill-opacity="1"/>
<polyline clip-path="url(#clip011)" style="stroke:#000000; stroke-linecap:round; stroke-linejoin:round; stroke-width:2; stroke-opacity:0.1; fill:none" points="138.959,1423.18 138.959,47.2441 "/>
<polyline clip-path="url(#clip011)" style="stroke:#000000; stroke-linecap:round; stroke-linejoin:round; stroke-width:2; stroke-opacity:0.1; fill:none" points="581.719,1423.18 581.719,47.2441 "/>
<polyline clip-path="url(#clip011)" style="stroke:#000000; stroke-linecap:round; stroke-linejoin:round; stroke-width:2; stroke-opacity:0.1; fill:none" points="1024.48,1423.18 1024.48,47.2441 "/>
<polyline clip-path="url(#clip011)" style="stroke:#000000; stroke-linecap:round; stroke-linejoin:round; stroke-width:2; stroke-opacity:0.1; fill:none" points="1467.24,1423.18 1467.24,47.2441 "/>
<polyline clip-path="url(#clip011)" style="stroke:#000000; stroke-linecap:round; stroke-linejoin:round; stroke-width:2; stroke-opacity:0.1; fill:none" points="1910,1423.18 1910,47.2441 "/>
<polyline clip-path="url(#clip011)" style="stroke:#000000; stroke-linecap:round; stroke-linejoin:round; stroke-width:2; stroke-opacity:0.1; fill:none" points="2352.76,1423.18 2352.76,47.2441 "/>
<polyline clip-path="url(#clip011)" style="stroke:#000000; stroke-linecap:round; stroke-linejoin:round; stroke-width:2; stroke-opacity:0.1; fill:none" points="138.959,1384.24 2352.76,1384.24 "/>
<polyline clip-path="url(#clip011)" style="stroke:#000000; stroke-linecap:round; stroke-linejoin:round; stroke-width:2; stroke-opacity:0.1; fill:none" points="138.959,1023.67 2352.76,1023.67 "/>
<polyline clip-path="url(#clip011)" style="stroke:#000000; stroke-linecap:round; stroke-linejoin:round; stroke-width:2; stroke-opacity:0.1; fill:none" points="138.959,663.098 2352.76,663.098 "/>
<polyline clip-path="url(#clip011)" style="stroke:#000000; stroke-linecap:round; stroke-linejoin:round; stroke-width:2; stroke-opacity:0.1; fill:none" points="138.959,302.528 2352.76,302.528 "/>
<polyline clip-path="url(#clip010)" style="stroke:#000000; stroke-linecap:round; stroke-linejoin:round; stroke-width:4; stroke-opacity:1; fill:none" points="138.959,1423.18 2352.76,1423.18 "/>
<polyline clip-path="url(#clip010)" style="stroke:#000000; stroke-linecap:round; stroke-linejoin:round; stroke-width:4; stroke-opacity:1; fill:none" points="138.959,1423.18 138.959,1404.28 "/>
<polyline clip-path="url(#clip010)" style="stroke:#000000; stroke-linecap:round; stroke-linejoin:round; stroke-width:4; stroke-opacity:1; fill:none" points="581.719,1423.18 581.719,1404.28 "/>
<polyline clip-path="url(#clip010)" style="stroke:#000000; stroke-linecap:round; stroke-linejoin:round; stroke-width:4; stroke-opacity:1; fill:none" points="1024.48,1423.18 1024.48,1404.28 "/>
<polyline clip-path="url(#clip010)" style="stroke:#000000; stroke-linecap:round; stroke-linejoin:round; stroke-width:4; stroke-opacity:1; fill:none" points="1467.24,1423.18 1467.24,1404.28 "/>
<polyline clip-path="url(#clip010)" style="stroke:#000000; stroke-linecap:round; stroke-linejoin:round; stroke-width:4; stroke-opacity:1; fill:none" points="1910,1423.18 1910,1404.28 "/>
<polyline clip-path="url(#clip010)" style="stroke:#000000; stroke-linecap:round; stroke-linejoin:round; stroke-width:4; stroke-opacity:1; fill:none" points="2352.76,1423.18 2352.76,1404.28 "/>
<path clip-path="url(#clip010)" d="M138.959 1454.1 Q135.348 1454.1 133.52 1457.66 Q131.714 1461.2 131.714 1468.33 Q131.714 1475.44 133.52 1479.01 Q135.348 1482.55 138.959 1482.55 Q142.594 1482.55 144.399 1479.01 Q146.228 1475.44 146.228 1468.33 Q146.228 1461.2 144.399 1457.66 Q142.594 1454.1 138.959 1454.1 M138.959 1450.39 Q144.77 1450.39 147.825 1455 Q150.904 1459.58 150.904 1468.33 Q150.904 1477.06 147.825 1481.67 Q144.77 1486.25 138.959 1486.25 Q133.149 1486.25 130.071 1481.67 Q127.015 1477.06 127.015 1468.33 Q127.015 1459.58 130.071 1455 Q133.149 1450.39 138.959 1450.39 Z" fill="#000000" fill-rule="nonzero" fill-opacity="1" /><path clip-path="url(#clip010)" d="M576.372 1481.64 L592.691 1481.64 L592.691 1485.58 L570.747 1485.58 L570.747 1481.64 Q573.409 1478.89 577.992 1474.26 Q582.598 1469.61 583.779 1468.27 Q586.024 1465.74 586.904 1464.01 Q587.807 1462.25 587.807 1460.56 Q587.807 1457.8 585.862 1456.07 Q583.941 1454.33 580.839 1454.33 Q578.64 1454.33 576.186 1455.09 Q573.756 1455.86 570.978 1457.41 L570.978 1452.69 Q573.802 1451.55 576.256 1450.97 Q578.709 1450.39 580.747 1450.39 Q586.117 1450.39 589.311 1453.08 Q592.506 1455.77 592.506 1460.26 Q592.506 1462.39 591.696 1464.31 Q590.908 1466.2 588.802 1468.8 Q588.223 1469.47 585.121 1472.69 Q582.02 1475.88 576.372 1481.64 Z" fill="#000000" fill-rule="nonzero" fill-opacity="1" /><path clip-path="url(#clip010)" d="M1027.49 1455.09 L1015.68 1473.54 L1027.49 1473.54 L1027.49 1455.09 M1026.26 1451.02 L1032.14 1451.02 L1032.14 1473.54 L1037.07 1473.54 L1037.07 1477.43 L1032.14 1477.43 L1032.14 1485.58 L1027.49 1485.58 L1027.49 1477.43 L1011.89 1477.43 L1011.89 1472.92 L1026.26 1451.02 Z" fill="#000000" fill-rule="nonzero" fill-opacity="1" /><path clip-path="url(#clip010)" d="M1467.64 1466.44 Q1464.49 1466.44 1462.64 1468.59 Q1460.81 1470.74 1460.81 1474.49 Q1460.81 1478.22 1462.64 1480.39 Q1464.49 1482.55 1467.64 1482.55 Q1470.79 1482.55 1472.62 1480.39 Q1474.47 1478.22 1474.47 1474.49 Q1474.47 1470.74 1472.62 1468.59 Q1470.79 1466.44 1467.64 1466.44 M1476.92 1451.78 L1476.92 1456.04 Q1475.17 1455.21 1473.36 1454.77 Q1471.58 1454.33 1469.82 1454.33 Q1465.19 1454.33 1462.74 1457.45 Q1460.3 1460.58 1459.96 1466.9 Q1461.32 1464.89 1463.38 1463.82 Q1465.44 1462.73 1467.92 1462.73 Q1473.13 1462.73 1476.14 1465.9 Q1479.17 1469.05 1479.17 1474.49 Q1479.17 1479.82 1476.02 1483.03 Q1472.87 1486.25 1467.64 1486.25 Q1461.65 1486.25 1458.48 1481.67 Q1455.3 1477.06 1455.3 1468.33 Q1455.3 1460.14 1459.19 1455.28 Q1463.08 1450.39 1469.63 1450.39 Q1471.39 1450.39 1473.17 1450.74 Q1474.98 1451.09 1476.92 1451.78 Z" fill="#000000" fill-rule="nonzero" fill-opacity="1" /><path clip-path="url(#clip010)" d="M1910 1469.17 Q1906.66 1469.17 1904.74 1470.95 Q1902.84 1472.73 1902.84 1475.86 Q1902.84 1478.98 1904.74 1480.77 Q1906.66 1482.55 1910 1482.55 Q1913.33 1482.55 1915.25 1480.77 Q1917.17 1478.96 1917.17 1475.86 Q1917.17 1472.73 1915.25 1470.95 Q1913.35 1469.17 1910 1469.17 M1905.32 1467.18 Q1902.31 1466.44 1900.62 1464.38 Q1898.96 1462.32 1898.96 1459.35 Q1898.96 1455.21 1901.89 1452.8 Q1904.86 1450.39 1910 1450.39 Q1915.16 1450.39 1918.1 1452.8 Q1921.04 1455.21 1921.04 1459.35 Q1921.04 1462.32 1919.35 1464.38 Q1917.68 1466.44 1914.7 1467.18 Q1918.08 1467.96 1919.95 1470.26 Q1921.85 1472.55 1921.85 1475.86 Q1921.85 1480.88 1918.77 1483.57 Q1915.71 1486.25 1910 1486.25 Q1904.28 1486.25 1901.2 1483.57 Q1898.14 1480.88 1898.14 1475.86 Q1898.14 1472.55 1900.04 1470.26 Q1901.94 1467.96 1905.32 1467.18 M1903.61 1459.79 Q1903.61 1462.48 1905.27 1463.98 Q1906.96 1465.49 1910 1465.49 Q1913.01 1465.49 1914.7 1463.98 Q1916.41 1462.48 1916.41 1459.79 Q1916.41 1457.11 1914.7 1455.6 Q1913.01 1454.1 1910 1454.1 Q1906.96 1454.1 1905.27 1455.6 Q1903.61 1457.11 1903.61 1459.79 Z" fill="#000000" fill-rule="nonzero" fill-opacity="1" /><path clip-path="url(#clip010)" d="M2327.44 1481.64 L2335.08 1481.64 L2335.08 1455.28 L2326.77 1456.95 L2326.77 1452.69 L2335.04 1451.02 L2339.71 1451.02 L2339.71 1481.64 L2347.35 1481.64 L2347.35 1485.58 L2327.44 1485.58 L2327.44 1481.64 Z" fill="#000000" fill-rule="nonzero" fill-opacity="1" /><path clip-path="url(#clip010)" d="M2366.8 1454.1 Q2363.18 1454.1 2361.36 1457.66 Q2359.55 1461.2 2359.55 1468.33 Q2359.55 1475.44 2361.36 1479.01 Q2363.18 1482.55 2366.8 1482.55 Q2370.43 1482.55 2372.23 1479.01 Q2374.06 1475.44 2374.06 1468.33 Q2374.06 1461.2 2372.23 1457.66 Q2370.43 1454.1 2366.8 1454.1 M2366.8 1450.39 Q2372.61 1450.39 2375.66 1455 Q2378.74 1459.58 2378.74 1468.33 Q2378.74 1477.06 2375.66 1481.67 Q2372.61 1486.25 2366.8 1486.25 Q2360.99 1486.25 2357.91 1481.67 Q2354.85 1477.06 2354.85 1468.33 Q2354.85 1459.58 2357.91 1455 Q2360.99 1450.39 2366.8 1450.39 Z" fill="#000000" fill-rule="nonzero" fill-opacity="1" /><path clip-path="url(#clip010)" d="M1244.92 1522.27 L1244.92 1532.4 L1256.98 1532.4 L1256.98 1536.95 L1244.92 1536.95 L1244.92 1556.3 Q1244.92 1560.66 1246.1 1561.9 Q1247.31 1563.14 1250.97 1563.14 L1256.98 1563.14 L1256.98 1568.04 L1250.97 1568.04 Q1244.19 1568.04 1241.61 1565.53 Q1239.03 1562.98 1239.03 1556.3 L1239.03 1536.95 L1234.73 1536.95 L1234.73 1532.4 L1239.03 1532.4 L1239.03 1522.27 L1244.92 1522.27 Z" fill="#000000" fill-rule="nonzero" fill-opacity="1" /><polyline clip-path="url(#clip010)" style="stroke:#000000; stroke-linecap:round; stroke-linejoin:round; stroke-width:4; stroke-opacity:1; fill:none" points="138.959,1423.18 138.959,47.2441 "/>
<polyline clip-path="url(#clip010)" style="stroke:#000000; stroke-linecap:round; stroke-linejoin:round; stroke-width:4; stroke-opacity:1; fill:none" points="138.959,1384.24 157.857,1384.24 "/>
<polyline clip-path="url(#clip010)" style="stroke:#000000; stroke-linecap:round; stroke-linejoin:round; stroke-width:4; stroke-opacity:1; fill:none" points="138.959,1023.67 157.857,1023.67 "/>
<polyline clip-path="url(#clip010)" style="stroke:#000000; stroke-linecap:round; stroke-linejoin:round; stroke-width:4; stroke-opacity:1; fill:none" points="138.959,663.098 157.857,663.098 "/>
<polyline clip-path="url(#clip010)" style="stroke:#000000; stroke-linecap:round; stroke-linejoin:round; stroke-width:4; stroke-opacity:1; fill:none" points="138.959,302.528 157.857,302.528 "/>
<path clip-path="url(#clip010)" d="M91.0151 1370.04 Q87.404 1370.04 85.5753 1373.6 Q83.7697 1377.14 83.7697 1384.27 Q83.7697 1391.38 85.5753 1394.94 Q87.404 1398.49 91.0151 1398.49 Q94.6493 1398.49 96.4548 1394.94 Q98.2835 1391.38 98.2835 1384.27 Q98.2835 1377.14 96.4548 1373.6 Q94.6493 1370.04 91.0151 1370.04 M91.0151 1366.33 Q96.8252 1366.33 99.8808 1370.94 Q102.959 1375.52 102.959 1384.27 Q102.959 1393 99.8808 1397.61 Q96.8252 1402.19 91.0151 1402.19 Q85.2049 1402.19 82.1262 1397.61 Q79.0707 1393 79.0707 1384.27 Q79.0707 1375.52 82.1262 1370.94 Q85.2049 1366.33 91.0151 1366.33 Z" fill="#000000" fill-rule="nonzero" fill-opacity="1" /><path clip-path="url(#clip010)" d="M82.0568 1006.39 L100.413 1006.39 L100.413 1010.32 L86.3392 1010.32 L86.3392 1018.8 Q87.3577 1018.45 88.3762 1018.29 Q89.3947 1018.1 90.4132 1018.1 Q96.2002 1018.1 99.5798 1021.27 Q102.959 1024.44 102.959 1029.86 Q102.959 1035.44 99.4872 1038.54 Q96.015 1041.62 89.6956 1041.62 Q87.5197 1041.62 85.2512 1041.25 Q83.0058 1040.88 80.5984 1040.14 L80.5984 1035.44 Q82.6818 1036.57 84.904 1037.13 Q87.1262 1037.68 89.603 1037.68 Q93.6076 1037.68 95.9456 1035.58 Q98.2835 1033.47 98.2835 1029.86 Q98.2835 1026.25 95.9456 1024.14 Q93.6076 1022.04 89.603 1022.04 Q87.728 1022.04 85.8531 1022.45 Q84.0012 1022.87 82.0568 1023.75 L82.0568 1006.39 Z" fill="#000000" fill-rule="nonzero" fill-opacity="1" /><path clip-path="url(#clip010)" d="M51.6634 676.443 L59.3023 676.443 L59.3023 650.077 L50.9921 651.744 L50.9921 647.485 L59.256 645.818 L63.9319 645.818 L63.9319 676.443 L71.5707 676.443 L71.5707 680.378 L51.6634 680.378 L51.6634 676.443 Z" fill="#000000" fill-rule="nonzero" fill-opacity="1" /><path clip-path="url(#clip010)" d="M91.0151 648.897 Q87.404 648.897 85.5753 652.461 Q83.7697 656.003 83.7697 663.133 Q83.7697 670.239 85.5753 673.804 Q87.404 677.346 91.0151 677.346 Q94.6493 677.346 96.4548 673.804 Q98.2835 670.239 98.2835 663.133 Q98.2835 656.003 96.4548 652.461 Q94.6493 648.897 91.0151 648.897 M91.0151 645.193 Q96.8252 645.193 99.8808 649.799 Q102.959 654.383 102.959 663.133 Q102.959 671.859 99.8808 676.466 Q96.8252 681.049 91.0151 681.049 Q85.2049 681.049 82.1262 676.466 Q79.0707 671.859 79.0707 663.133 Q79.0707 654.383 82.1262 649.799 Q85.2049 645.193 91.0151 645.193 Z" fill="#000000" fill-rule="nonzero" fill-opacity="1" /><path clip-path="url(#clip010)" d="M52.6588 315.873 L60.2976 315.873 L60.2976 289.507 L51.9875 291.174 L51.9875 286.914 L60.2513 285.248 L64.9272 285.248 L64.9272 315.873 L72.5661 315.873 L72.5661 319.808 L52.6588 319.808 L52.6588 315.873 Z" fill="#000000" fill-rule="nonzero" fill-opacity="1" /><path clip-path="url(#clip010)" d="M82.0568 285.248 L100.413 285.248 L100.413 289.183 L86.3392 289.183 L86.3392 297.655 Q87.3577 297.308 88.3762 297.146 Q89.3947 296.961 90.4132 296.961 Q96.2002 296.961 99.5798 300.132 Q102.959 303.303 102.959 308.72 Q102.959 314.299 99.4872 317.4 Q96.015 320.479 89.6956 320.479 Q87.5197 320.479 85.2512 320.109 Q83.0058 319.738 80.5984 318.998 L80.5984 314.299 Q82.6818 315.433 84.904 315.988 Q87.1262 316.544 89.603 316.544 Q93.6076 316.544 95.9456 314.437 Q98.2835 312.331 98.2835 308.72 Q98.2835 305.109 95.9456 303.002 Q93.6076 300.896 89.603 300.896 Q87.728 300.896 85.8531 301.312 Q84.0012 301.729 82.0568 302.609 L82.0568 285.248 Z" fill="#000000" fill-rule="nonzero" fill-opacity="1" /><polyline clip-path="url(#clip011)" style="stroke:#009af9; stroke-linecap:round; stroke-linejoin:round; stroke-width:8; stroke-opacity:1; fill:none" points="138.959,1384.24 140.067,1384.24 141.174,1384.24 142.282,1384.24 143.389,1384.24 144.497,1384.24 145.604,1384.24 146.712,1384.24 147.819,1384.24 148.927,1384.24 150.034,1384.24 151.141,1384.24 152.249,1384.24 153.356,1384.24 154.464,1384.24 155.571,1384.24 156.679,1384.24 157.786,1384.24 158.894,1384.24 160.001,1384.24 161.108,1384.24 162.216,1384.24 163.323,1384.24 164.431,1384.24 165.538,1384.24 166.646,1384.24 167.753,1384.24 168.861,1384.24 169.968,1384.24 171.076,1384.24 172.183,1312.12 173.29,1312.12 174.398,1312.12 175.505,1312.12 176.613,1312.12 177.72,1312.12 178.828,1312.12 179.935,1312.12 181.043,1312.12 182.15,1312.12 183.258,1312.12 184.365,1312.12 185.472,1312.12 186.58,1312.12 187.687,1312.12 188.795,1312.12 189.902,1312.12 191.01,1312.12 192.117,1312.12 193.225,1312.12 194.332,1312.12 195.439,1312.12 196.547,1312.12 197.654,1312.12 198.762,1312.12 199.869,1312.12 200.977,1312.12 202.084,1312.12 203.192,1312.12 204.299,1312.12 205.407,1312.12 206.514,1312.12 207.621,1312.12 208.729,1312.12 209.836,1312.12 210.944,1312.12 212.051,1312.12 213.159,1312.12 214.266,1312.12 215.374,1312.12 216.481,1312.12 217.589,1312.12 218.696,1312.12 219.803,1312.12 220.911,1312.12 222.018,1312.12 223.126,1312.12 224.233,1312.12 225.341,1312.12 226.448,1312.12 227.556,1312.12 228.663,1312.12 229.771,1312.12 230.878,1312.12 231.985,1312.12 233.093,1312.12 234.2,1312.12 235.308,1312.12 236.415,1312.12 237.523,1312.12 238.63,1312.12 239.738,1312.12 240.845,1312.12 241.952,1312.12 243.06,1312.12 244.167,1312.12 245.275,1312.12 246.382,1312.12 247.49,1312.12 248.597,1312.12 249.705,1312.12 250.812,1312.12 251.92,1312.12 253.027,1312.12 254.134,1312.12 255.242,1312.12 256.349,1312.12 257.457,1312.12 258.564,1312.12 259.672,1312.12 260.779,1312.12 261.887,1312.12 262.994,1312.12 264.102,1312.12 265.209,1312.12 266.316,1312.12 267.424,1312.12 268.531,1312.12 269.639,1312.12 270.746,1312.12 271.854,1312.12 272.961,1312.12 274.069,1312.12 275.176,1312.12 276.283,1312.12 277.391,1312.12 278.498,1312.12 279.606,1312.12 280.713,1312.12 281.821,1312.12 282.928,1312.12 284.036,1312.12 285.143,1312.12 286.251,1312.12 287.358,1312.12 288.465,1312.12 289.573,1312.12 290.68,1312.12 291.788,1312.12 292.895,1312.12 294.003,1312.12 295.11,1312.12 296.218,1312.12 297.325,1312.12 298.433,1312.12 299.54,1312.12 300.647,1312.12 301.755,1312.12 302.862,1312.12 303.97,1312.12 305.077,1312.12 306.185,1312.12 307.292,1312.12 308.4,1312.12 309.507,1312.12 310.614,1312.12 311.722,1312.12 312.829,1312.12 313.937,1312.12 315.044,1312.12 316.152,1312.12 317.259,1312.12 318.367,1312.12 319.474,1312.12 320.582,1312.12 321.689,1312.12 322.796,1312.12 323.904,1312.12 325.011,1312.12 326.119,1312.12 327.226,1312.12 328.334,1312.12 329.441,1312.12 330.549,1312.12 331.656,1312.12 332.764,1312.12 333.871,1240.01 334.978,1240.01 336.086,1240.01 337.193,1240.01 338.301,1240.01 339.408,1240.01 340.516,1240.01 341.623,1240.01 342.731,1240.01 343.838,1240.01 344.946,1240.01 346.053,1240.01 347.16,1240.01 348.268,1240.01 349.375,1240.01 350.483,1240.01 351.59,1240.01 352.698,1240.01 353.805,1240.01 354.913,1240.01 356.02,1240.01 357.127,1240.01 358.235,1240.01 359.342,1240.01 360.45,1240.01 361.557,1240.01 362.665,1240.01 363.772,1240.01 364.88,1240.01 365.987,1240.01 367.095,1240.01 368.202,1240.01 369.309,1240.01 370.417,1240.01 371.524,1240.01 372.632,1240.01 373.739,1240.01 374.847,1240.01 375.954,1240.01 377.062,1240.01 378.169,1240.01 379.277,1240.01 380.384,1240.01 381.491,1240.01 382.599,1240.01 383.706,1240.01 384.814,1167.9 385.921,1167.9 387.029,1167.9 388.136,1167.9 389.244,1167.9 390.351,1167.9 391.458,1167.9 392.566,1167.9 393.673,1167.9 394.781,1167.9 395.888,1167.9 396.996,1167.9 398.103,1167.9 399.211,1167.9 400.318,1167.9 401.426,1167.9 402.533,1167.9 403.64,1167.9 404.748,1167.9 405.855,1167.9 406.963,1167.9 408.07,1167.9 409.178,1167.9 410.285,1167.9 411.393,1167.9 412.5,1167.9 413.608,1167.9 414.715,1167.9 415.822,1167.9 416.93,1167.9 418.037,1167.9 419.145,1167.9 420.252,1167.9 421.36,1167.9 422.467,1167.9 423.575,1167.9 424.682,1167.9 425.789,1167.9 426.897,1167.9 428.004,1167.9 429.112,1167.9 430.219,1167.9 431.327,1167.9 432.434,1167.9 433.542,1167.9 434.649,1167.9 435.757,1167.9 436.864,1167.9 437.971,1167.9 439.079,1167.9 440.186,1167.9 441.294,1167.9 442.401,1167.9 443.509,1167.9 444.616,1167.9 445.724,1167.9 446.831,1167.9 447.939,1167.9 449.046,1167.9 450.153,1167.9 451.261,1167.9 452.368,1167.9 453.476,1167.9 454.583,1167.9 455.691,1167.9 456.798,1167.9 457.906,1167.9 459.013,1167.9 460.121,1167.9 461.228,1167.9 462.335,1167.9 463.443,1167.9 464.55,1167.9 465.658,1167.9 466.765,1167.9 467.873,1167.9 468.98,1167.9 470.088,1167.9 471.195,1167.9 472.302,1167.9 473.41,1167.9 474.517,1167.9 475.625,1167.9 476.732,1167.9 477.84,1167.9 478.947,1167.9 480.055,1167.9 481.162,1167.9 482.27,1167.9 483.377,1167.9 484.484,1167.9 485.592,1167.9 486.699,1167.9 487.807,1167.9 488.914,1167.9 490.022,1167.9 491.129,1167.9 492.237,1167.9 493.344,1167.9 494.452,1167.9 495.559,1167.9 496.666,1167.9 497.774,1167.9 498.881,1167.9 499.989,1167.9 501.096,1167.9 502.204,1167.9 503.311,1167.9 504.419,1167.9 505.526,1167.9 506.633,1167.9 507.741,1167.9 508.848,1167.9 509.956,1167.9 511.063,1167.9 512.171,1167.9 513.278,1167.9 514.386,1167.9 515.493,1167.9 516.601,1167.9 517.708,1167.9 518.815,1167.9 519.923,1167.9 521.03,1095.78 522.138,1095.78 523.245,1095.78 524.353,1095.78 525.46,1095.78 526.568,1095.78 527.675,1095.78 528.783,1095.78 529.89,1095.78 530.997,1095.78 532.105,1095.78 533.212,1095.78 534.32,1095.78 535.427,1095.78 536.535,1095.78 537.642,1095.78 538.75,1095.78 539.857,1095.78 540.965,1095.78 542.072,1095.78 543.179,1095.78 544.287,1095.78 545.394,1095.78 546.502,1095.78 547.609,1095.78 548.717,1095.78 549.824,1095.78 550.932,1095.78 552.039,1095.78 553.146,1095.78 554.254,1095.78 555.361,1095.78 556.469,1095.78 557.576,1095.78 558.684,1095.78 559.791,1095.78 560.899,1095.78 562.006,1095.78 563.114,1095.78 564.221,1095.78 565.328,1095.78 566.436,1095.78 567.543,1095.78 568.651,1095.78 569.758,1095.78 570.866,1095.78 571.973,1095.78 573.081,1095.78 574.188,1095.78 575.296,1095.78 576.403,1095.78 577.51,1095.78 578.618,1095.78 579.725,1095.78 580.833,1095.78 581.94,1095.78 583.048,1095.78 584.155,1095.78 585.263,1095.78 586.37,1095.78 587.477,1095.78 588.585,1095.78 589.692,1095.78 590.8,1095.78 591.907,1095.78 593.015,1095.78 594.122,1095.78 595.23,1095.78 596.337,1095.78 597.445,1095.78 598.552,1095.78 599.659,1095.78 600.767,1095.78 601.874,1095.78 602.982,1095.78 604.089,1095.78 605.197,1095.78 606.304,1095.78 607.412,1095.78 608.519,1095.78 609.627,1095.78 610.734,1095.78 611.841,1095.78 612.949,1095.78 614.056,1095.78 615.164,1095.78 616.271,1095.78 617.379,1095.78 618.486,1095.78 619.594,1095.78 620.701,1095.78 621.808,1095.78 622.916,1095.78 624.023,1095.78 625.131,1095.78 626.238,1095.78 627.346,1095.78 628.453,1095.78 629.561,1095.78 630.668,1095.78 631.776,1095.78 632.883,1095.78 633.99,1095.78 635.098,1095.78 636.205,1095.78 637.313,1095.78 638.42,1095.78 639.528,1095.78 640.635,1095.78 641.743,1095.78 642.85,1095.78 643.958,1095.78 645.065,1095.78 646.172,1095.78 647.28,1095.78 648.387,1095.78 649.495,1095.78 650.602,1095.78 651.71,1095.78 652.817,1095.78 653.925,1095.78 655.032,1095.78 656.14,1095.78 657.247,1095.78 658.354,1095.78 659.462,1095.78 660.569,1095.78 661.677,1095.78 662.784,1095.78 663.892,1095.78 664.999,1023.67 666.107,1023.67 667.214,1023.67 668.321,1023.67 669.429,1023.67 670.536,1023.67 671.644,1023.67 672.751,1023.67 673.859,1023.67 674.966,1023.67 676.074,1023.67 677.181,1023.67 678.289,1023.67 679.396,1023.67 680.503,1023.67 681.611,1023.67 682.718,1023.67 683.826,1023.67 684.933,1023.67 686.041,1023.67 687.148,1023.67 688.256,1023.67 689.363,1023.67 690.471,1023.67 691.578,1023.67 692.685,1023.67 693.793,1023.67 694.9,1023.67 696.008,1023.67 697.115,1023.67 698.223,1023.67 699.33,1023.67 700.438,1023.67 701.545,1023.67 702.652,1023.67 703.76,1023.67 704.867,1023.67 705.975,1023.67 707.082,1023.67 708.19,1023.67 709.297,1023.67 710.405,1023.67 711.512,1023.67 712.62,1023.67 713.727,1023.67 714.834,1023.67 715.942,1023.67 717.049,1023.67 718.157,1023.67 719.264,1023.67 720.372,1023.67 721.479,1023.67 722.587,1023.67 723.694,1023.67 724.802,1023.67 725.909,1023.67 727.016,1023.67 728.124,1023.67 729.231,1023.67 730.339,1023.67 731.446,1023.67 732.554,1023.67 733.661,1023.67 734.769,1023.67 735.876,1023.67 736.983,1023.67 738.091,1023.67 739.198,1023.67 740.306,1023.67 741.413,1023.67 742.521,1023.67 743.628,1023.67 744.736,1023.67 745.843,1023.67 746.951,1023.67 748.058,1023.67 749.165,1023.67 750.273,1023.67 751.38,1023.67 752.488,1023.67 753.595,1023.67 754.703,1023.67 755.81,1023.67 756.918,1023.67 758.025,1023.67 759.133,1023.67 760.24,1023.67 761.347,1023.67 762.455,1023.67 763.562,1023.67 764.67,1023.67 765.777,1023.67 766.885,1023.67 767.992,1023.67 769.1,1023.67 770.207,1023.67 771.315,1023.67 772.422,1023.67 773.529,1023.67 774.637,1023.67 775.744,1023.67 776.852,1023.67 777.959,1023.67 779.067,1023.67 780.174,1023.67 781.282,1023.67 782.389,1023.67 783.496,1023.67 784.604,1023.67 785.711,1023.67 786.819,1023.67 787.926,1023.67 789.034,1023.67 790.141,1023.67 791.249,1023.67 792.356,1023.67 793.464,1023.67 794.571,1023.67 795.678,1023.67 796.786,1023.67 797.893,1023.67 799.001,1023.67 800.108,1023.67 801.216,1023.67 802.323,1023.67 803.431,1023.67 804.538,1023.67 805.646,1023.67 806.753,1023.67 807.86,1023.67 808.968,1023.67 810.075,1023.67 811.183,1023.67 812.29,1023.67 813.398,1023.67 814.505,1023.67 815.613,1023.67 816.72,1023.67 817.827,1023.67 818.935,1023.67 820.042,1023.67 821.15,1023.67 822.257,1023.67 823.365,1023.67 824.472,1023.67 825.58,1023.67 826.687,1023.67 827.795,1023.67 828.902,1023.67 830.009,1023.67 831.117,1023.67 832.224,1023.67 833.332,1023.67 834.439,1023.67 835.547,1023.67 836.654,1023.67 837.762,1023.67 838.869,1023.67 839.977,1023.67 841.084,1023.67 842.191,1023.67 843.299,1023.67 844.406,1023.67 845.514,1023.67 846.621,1023.67 847.729,1023.67 848.836,1023.67 849.944,951.554 851.051,951.554 852.159,951.554 853.266,951.554 854.373,951.554 855.481,951.554 856.588,951.554 857.696,951.554 858.803,951.554 859.911,951.554 861.018,951.554 862.126,951.554 863.233,951.554 864.34,951.554 865.448,951.554 866.555,951.554 867.663,951.554 868.77,951.554 869.878,951.554 870.985,951.554 872.093,951.554 873.2,951.554 874.308,951.554 875.415,951.554 876.522,951.554 877.63,951.554 878.737,951.554 879.845,951.554 880.952,951.554 882.06,951.554 883.167,951.554 884.275,951.554 885.382,951.554 886.49,951.554 887.597,951.554 888.704,951.554 889.812,951.554 890.919,951.554 892.027,951.554 893.134,951.554 894.242,951.554 895.349,951.554 896.457,951.554 897.564,951.554 898.671,951.554 899.779,951.554 900.886,951.554 901.994,951.554 903.101,951.554 904.209,951.554 905.316,951.554 906.424,951.554 907.531,951.554 908.639,951.554 909.746,951.554 910.853,951.554 911.961,951.554 913.068,951.554 914.176,951.554 915.283,951.554 916.391,951.554 917.498,951.554 918.606,951.554 919.713,951.554 920.821,951.554 921.928,951.554 923.035,951.554 924.143,951.554 925.25,951.554 926.358,951.554 927.465,951.554 928.573,951.554 929.68,951.554 930.788,951.554 931.895,951.554 933.002,951.554 934.11,951.554 935.217,951.554 936.325,951.554 937.432,951.554 938.54,951.554 939.647,951.554 940.755,951.554 941.862,951.554 942.97,951.554 944.077,951.554 945.184,951.554 946.292,951.554 947.399,951.554 948.507,951.554 949.614,951.554 950.722,951.554 951.829,951.554 952.937,951.554 954.044,951.554 955.152,951.554 956.259,951.554 957.366,951.554 958.474,951.554 959.581,951.554 960.689,951.554 961.796,951.554 962.904,951.554 964.011,951.554 965.119,951.554 966.226,951.554 967.334,951.554 968.441,951.554 969.548,951.554 970.656,951.554 971.763,951.554 972.871,951.554 973.978,951.554 975.086,951.554 976.193,951.554 977.301,951.554 978.408,951.554 979.515,951.554 980.623,951.554 981.73,951.554 982.838,951.554 983.945,951.554 985.053,951.554 986.16,951.554 987.268,951.554 988.375,951.554 989.483,951.554 990.59,951.554 991.697,951.554 992.805,951.554 993.912,951.554 995.02,951.554 996.127,951.554 997.235,951.554 998.342,951.554 999.45,951.554 1000.56,951.554 1001.66,951.554 1002.77,951.554 1003.88,951.554 1004.99,951.554 1006.09,951.554 1007.2,951.554 1008.31,951.554 1009.42,951.554 1010.52,951.554 1011.63,951.554 1012.74,951.554 1013.85,951.554 1014.95,951.554 1016.06,951.554 1017.17,951.554 1018.28,951.554 1019.38,951.554 1020.49,951.554 1021.6,951.554 1022.71,951.554 1023.81,951.554 1024.92,951.554 1026.03,951.554 1027.14,951.554 1028.24,951.554 1029.35,951.554 1030.46,951.554 1031.57,951.554 1032.67,951.554 1033.78,951.554 1034.89,951.554 1036,951.554 1037.1,951.554 1038.21,951.554 1039.32,951.554 1040.43,951.554 1041.53,951.554 1042.64,951.554 1043.75,951.554 1044.86,951.554 1045.96,951.554 1047.07,951.554 1048.18,951.554 1049.28,951.554 1050.39,951.554 1051.5,951.554 1052.61,951.554 1053.71,951.554 1054.82,951.554 1055.93,951.554 1057.04,951.554 1058.14,951.554 1059.25,951.554 1060.36,951.554 1061.47,951.554 1062.57,951.554 1063.68,951.554 1064.79,951.554 1065.9,951.554 1067,951.554 1068.11,951.554 1069.22,951.554 1070.33,951.554 1071.43,951.554 1072.54,951.554 1073.65,951.554 1074.76,951.554 1075.86,951.554 1076.97,951.554 1078.08,951.554 1079.19,951.554 1080.29,951.554 1081.4,951.554 1082.51,951.554 1083.62,951.554 1084.72,951.554 1085.83,951.554 1086.94,951.554 1088.05,951.554 1089.15,951.554 1090.26,951.554 1091.37,951.554 1092.48,951.554 1093.58,951.554 1094.69,951.554 1095.8,951.554 1096.91,951.554 1098.01,951.554 1099.12,951.554 1100.23,951.554 1101.34,951.554 1102.44,951.554 1103.55,951.554 1104.66,951.554 1105.77,951.554 1106.87,951.554 1107.98,951.554 1109.09,951.554 1110.19,951.554 1111.3,951.554 1112.41,951.554 1113.52,951.554 1114.62,951.554 1115.73,951.554 1116.84,951.554 1117.95,951.554 1119.05,951.554 1120.16,951.554 1121.27,951.554 1122.38,951.554 1123.48,951.554 1124.59,951.554 1125.7,951.554 1126.81,951.554 1127.91,951.554 1129.02,951.554 1130.13,879.44 1131.24,879.44 1132.34,879.44 1133.45,879.44 1134.56,879.44 1135.67,879.44 1136.77,879.44 1137.88,879.44 1138.99,879.44 1140.1,879.44 1141.2,879.44 1142.31,879.44 1143.42,879.44 1144.53,879.44 1145.63,879.44 1146.74,879.44 1147.85,879.44 1148.96,879.44 1150.06,879.44 1151.17,879.44 1152.28,879.44 1153.39,879.44 1154.49,879.44 1155.6,879.44 1156.71,879.44 1157.82,879.44 1158.92,879.44 1160.03,879.44 1161.14,879.44 1162.25,879.44 1163.35,879.44 1164.46,879.44 1165.57,879.44 1166.67,879.44 1167.78,879.44 1168.89,879.44 1170,879.44 1171.1,879.44 1172.21,879.44 1173.32,879.44 1174.43,879.44 1175.53,879.44 1176.64,879.44 1177.75,879.44 1178.86,879.44 1179.96,879.44 1181.07,879.44 1182.18,807.326 1183.29,807.326 1184.39,807.326 1185.5,807.326 1186.61,807.326 1187.72,807.326 1188.82,807.326 1189.93,807.326 1191.04,807.326 1192.15,807.326 1193.25,807.326 1194.36,807.326 1195.47,807.326 1196.58,807.326 1197.68,807.326 1198.79,807.326 1199.9,807.326 1201.01,807.326 1202.11,807.326 1203.22,807.326 1204.33,807.326 1205.44,807.326 1206.54,807.326 1207.65,807.326 1208.76,807.326 1209.87,807.326 1210.97,807.326 1212.08,807.326 1213.19,807.326 1214.3,807.326 1215.4,807.326 1216.51,807.326 1217.62,807.326 1218.73,807.326 1219.83,807.326 1220.94,807.326 1222.05,807.326 1223.15,807.326 1224.26,807.326 1225.37,807.326 1226.48,807.326 1227.58,807.326 1228.69,807.326 1229.8,807.326 1230.91,807.326 1232.01,807.326 1233.12,807.326 1234.23,807.326 1235.34,807.326 1236.44,807.326 1237.55,807.326 1238.66,807.326 1239.77,807.326 1240.87,807.326 1241.98,807.326 1243.09,807.326 1244.2,807.326 1245.3,807.326 1246.41,807.326 1247.52,807.326 1248.63,807.326 1249.73,807.326 1250.84,807.326 1251.95,807.326 1253.06,807.326 1254.16,807.326 1255.27,807.326 1256.38,807.326 1257.49,807.326 1258.59,807.326 1259.7,807.326 1260.81,807.326 1261.92,807.326 1263.02,807.326 1264.13,807.326 1265.24,807.326 1266.35,807.326 1267.45,807.326 1268.56,807.326 1269.67,807.326 1270.78,807.326 1271.88,807.326 1272.99,807.326 1274.1,807.326 1275.21,807.326 1276.31,807.326 1277.42,807.326 1278.53,807.326 1279.63,807.326 1280.74,807.326 1281.85,807.326 1282.96,807.326 1284.06,807.326 1285.17,807.326 1286.28,807.326 1287.39,807.326 1288.49,807.326 1289.6,807.326 1290.71,807.326 1291.82,807.326 1292.92,807.326 1294.03,807.326 1295.14,807.326 1296.25,807.326 1297.35,807.326 1298.46,807.326 1299.57,807.326 1300.68,807.326 1301.78,807.326 1302.89,807.326 1304,807.326 1305.11,807.326 1306.21,807.326 1307.32,807.326 1308.43,807.326 1309.54,807.326 1310.64,807.326 1311.75,807.326 1312.86,807.326 1313.97,807.326 1315.07,807.326 1316.18,807.326 1317.29,735.212 1318.4,735.212 1319.5,735.212 1320.61,735.212 1321.72,735.212 1322.83,735.212 1323.93,735.212 1325.04,735.212 1326.15,735.212 1327.26,735.212 1328.36,735.212 1329.47,735.212 1330.58,735.212 1331.69,735.212 1332.79,735.212 1333.9,735.212 1335.01,735.212 1336.12,735.212 1337.22,735.212 1338.33,735.212 1339.44,735.212 1340.54,735.212 1341.65,735.212 1342.76,735.212 1343.87,735.212 1344.97,735.212 1346.08,735.212 1347.19,735.212 1348.3,735.212 1349.4,735.212 1350.51,735.212 1351.62,735.212 1352.73,735.212 1353.83,735.212 1354.94,735.212 1356.05,735.212 1357.16,735.212 1358.26,735.212 1359.37,735.212 1360.48,735.212 1361.59,735.212 1362.69,735.212 1363.8,735.212 1364.91,735.212 1366.02,735.212 1367.12,735.212 1368.23,735.212 1369.34,735.212 1370.45,735.212 1371.55,735.212 1372.66,735.212 1373.77,735.212 1374.88,735.212 1375.98,735.212 1377.09,735.212 1378.2,735.212 1379.31,735.212 1380.41,735.212 1381.52,735.212 1382.63,735.212 1383.74,735.212 1384.84,735.212 1385.95,735.212 1387.06,735.212 1388.17,735.212 1389.27,735.212 1390.38,735.212 1391.49,735.212 1392.6,735.212 1393.7,735.212 1394.81,735.212 1395.92,735.212 1397.02,735.212 1398.13,735.212 1399.24,735.212 1400.35,735.212 1401.45,735.212 1402.56,735.212 1403.67,735.212 1404.78,735.212 1405.88,735.212 1406.99,735.212 1408.1,735.212 1409.21,735.212 1410.31,735.212 1411.42,735.212 1412.53,735.212 1413.64,735.212 1414.74,735.212 1415.85,735.212 1416.96,735.212 1418.07,735.212 1419.17,735.212 1420.28,735.212 1421.39,663.098 1422.5,663.098 1423.6,663.098 1424.71,663.098 1425.82,663.098 1426.93,663.098 1428.03,663.098 1429.14,663.098 1430.25,663.098 1431.36,663.098 1432.46,663.098 1433.57,663.098 1434.68,663.098 1435.79,663.098 1436.89,663.098 1438,663.098 1439.11,663.098 1440.22,663.098 1441.32,663.098 1442.43,663.098 1443.54,663.098 1444.65,663.098 1445.75,663.098 1446.86,663.098 1447.97,590.984 1449.08,590.984 1450.18,590.984 1451.29,590.984 1452.4,590.984 1453.5,590.984 1454.61,590.984 1455.72,590.984 1456.83,590.984 1457.93,590.984 1459.04,590.984 1460.15,590.984 1461.26,590.984 1462.36,590.984 1463.47,590.984 1464.58,590.984 1465.69,590.984 1466.79,590.984 1467.9,590.984 1469.01,590.984 1470.12,590.984 1471.22,590.984 1472.33,590.984 1473.44,590.984 1474.55,590.984 1475.65,590.984 1476.76,590.984 1477.87,590.984 1478.98,590.984 1480.08,590.984 1481.19,590.984 1482.3,590.984 1483.41,590.984 1484.51,590.984 1485.62,590.984 1486.73,590.984 1487.84,590.984 1488.94,590.984 1490.05,590.984 1491.16,590.984 1492.27,590.984 1493.37,590.984 1494.48,590.984 1495.59,590.984 1496.7,590.984 1497.8,590.984 1498.91,590.984 1500.02,590.984 1501.13,590.984 1502.23,590.984 1503.34,590.984 1504.45,590.984 1505.56,590.984 1506.66,590.984 1507.77,590.984 1508.88,590.984 1509.98,590.984 1511.09,590.984 1512.2,590.984 1513.31,590.984 1514.41,590.984 1515.52,590.984 1516.63,590.984 1517.74,590.984 1518.84,590.984 1519.95,590.984 1521.06,590.984 1522.17,590.984 1523.27,590.984 1524.38,590.984 1525.49,590.984 1526.6,590.984 1527.7,590.984 1528.81,590.984 1529.92,590.984 1531.03,590.984 1532.13,590.984 1533.24,590.984 1534.35,590.984 1535.46,590.984 1536.56,590.984 1537.67,590.984 1538.78,590.984 1539.89,590.984 1540.99,590.984 1542.1,590.984 1543.21,590.984 1544.32,590.984 1545.42,590.984 1546.53,590.984 1547.64,590.984 1548.75,590.984 1549.85,590.984 1550.96,590.984 1552.07,590.984 1553.18,590.984 1554.28,590.984 1555.39,590.984 1556.5,590.984 1557.61,590.984 1558.71,590.984 1559.82,590.984 1560.93,590.984 1562.04,590.984 1563.14,590.984 1564.25,590.984 1565.36,590.984 1566.47,590.984 1567.57,590.984 1568.68,590.984 1569.79,590.984 1570.89,590.984 1572,590.984 1573.11,590.984 1574.22,590.984 1575.32,590.984 1576.43,590.984 1577.54,590.984 1578.65,590.984 1579.75,590.984 1580.86,590.984 1581.97,590.984 1583.08,590.984 1584.18,590.984 1585.29,590.984 1586.4,590.984 1587.51,590.984 1588.61,590.984 1589.72,590.984 1590.83,590.984 1591.94,590.984 1593.04,590.984 1594.15,590.984 1595.26,590.984 1596.37,590.984 1597.47,590.984 1598.58,590.984 1599.69,590.984 1600.8,590.984 1601.9,590.984 1603.01,590.984 1604.12,590.984 1605.23,590.984 1606.33,590.984 1607.44,590.984 1608.55,590.984 1609.66,590.984 1610.76,590.984 1611.87,590.984 1612.98,590.984 1614.09,518.87 1615.19,518.87 1616.3,518.87 1617.41,518.87 1618.52,518.87 1619.62,518.87 1620.73,518.87 1621.84,518.87 1622.95,518.87 1624.05,518.87 1625.16,518.87 1626.27,518.87 1627.37,518.87 1628.48,518.87 1629.59,518.87 1630.7,518.87 1631.8,518.87 1632.91,518.87 1634.02,518.87 1635.13,518.87 1636.23,518.87 1637.34,518.87 1638.45,518.87 1639.56,518.87 1640.66,518.87 1641.77,518.87 1642.88,518.87 1643.99,518.87 1645.09,518.87 1646.2,518.87 1647.31,518.87 1648.42,518.87 1649.52,518.87 1650.63,518.87 1651.74,518.87 1652.85,518.87 1653.95,518.87 1655.06,518.87 1656.17,518.87 1657.28,518.87 1658.38,518.87 1659.49,518.87 1660.6,518.87 1661.71,518.87 1662.81,518.87 1663.92,518.87 1665.03,518.87 1666.14,518.87 1667.24,518.87 1668.35,518.87 1669.46,518.87 1670.57,518.87 1671.67,518.87 1672.78,518.87 1673.89,518.87 1675,518.87 1676.1,518.87 1677.21,518.87 1678.32,518.87 1679.43,518.87 1680.53,518.87 1681.64,518.87 1682.75,518.87 1683.85,518.87 1684.96,518.87 1686.07,518.87 1687.18,518.87 1688.28,518.87 1689.39,518.87 1690.5,518.87 1691.61,518.87 1692.71,518.87 1693.82,518.87 1694.93,518.87 1696.04,518.87 1697.14,518.87 1698.25,518.87 1699.36,518.87 1700.47,518.87 1701.57,518.87 1702.68,518.87 1703.79,518.87 1704.9,518.87 1706,518.87 1707.11,518.87 1708.22,518.87 1709.33,518.87 1710.43,518.87 1711.54,518.87 1712.65,518.87 1713.76,518.87 1714.86,518.87 1715.97,518.87 1717.08,518.87 1718.19,518.87 1719.29,518.87 1720.4,518.87 1721.51,518.87 1722.62,518.87 1723.72,518.87 1724.83,518.87 1725.94,518.87 1727.05,518.87 1728.15,518.87 1729.26,518.87 1730.37,518.87 1731.48,518.87 1732.58,518.87 1733.69,518.87 1734.8,518.87 1735.91,518.87 1737.01,518.87 1738.12,518.87 1739.23,518.87 1740.33,518.87 1741.44,518.87 1742.55,518.87 1743.66,518.87 1744.76,446.756 1745.87,446.756 1746.98,446.756 1748.09,446.756 1749.19,446.756 1750.3,446.756 1751.41,446.756 1752.52,446.756 1753.62,446.756 1754.73,446.756 1755.84,446.756 1756.95,446.756 1758.05,446.756 1759.16,446.756 1760.27,446.756 1761.38,446.756 1762.48,446.756 1763.59,446.756 1764.7,446.756 1765.81,446.756 1766.91,446.756 1768.02,446.756 1769.13,446.756 1770.24,446.756 1771.34,446.756 1772.45,446.756 1773.56,446.756 1774.67,446.756 1775.77,446.756 1776.88,446.756 1777.99,446.756 1779.1,446.756 1780.2,446.756 1781.31,446.756 1782.42,446.756 1783.53,446.756 1784.63,446.756 1785.74,446.756 1786.85,446.756 1787.96,446.756 1789.06,446.756 1790.17,446.756 1791.28,446.756 1792.39,446.756 1793.49,446.756 1794.6,446.756 1795.71,446.756 1796.82,446.756 1797.92,446.756 1799.03,446.756 1800.14,446.756 1801.24,446.756 1802.35,446.756 1803.46,446.756 1804.57,446.756 1805.67,374.642 1806.78,374.642 1807.89,374.642 1809,374.642 1810.1,374.642 1811.21,374.642 1812.32,374.642 1813.43,374.642 1814.53,374.642 1815.64,374.642 1816.75,374.642 1817.86,374.642 1818.96,374.642 1820.07,374.642 1821.18,374.642 1822.29,374.642 1823.39,374.642 1824.5,374.642 1825.61,374.642 1826.72,374.642 1827.82,374.642 1828.93,374.642 1830.04,374.642 1831.15,374.642 1832.25,374.642 1833.36,374.642 1834.47,374.642 1835.58,374.642 1836.68,374.642 1837.79,374.642 1838.9,374.642 1840.01,374.642 1841.11,374.642 1842.22,374.642 1843.33,374.642 1844.44,374.642 1845.54,374.642 1846.65,374.642 1847.76,374.642 1848.87,374.642 1849.97,374.642 1851.08,374.642 1852.19,374.642 1853.3,374.642 1854.4,374.642 1855.51,374.642 1856.62,374.642 1857.72,374.642 1858.83,374.642 1859.94,374.642 1861.05,374.642 1862.15,374.642 1863.26,374.642 1864.37,374.642 1865.48,374.642 1866.58,374.642 1867.69,374.642 1868.8,374.642 1869.91,374.642 1871.01,374.642 1872.12,374.642 1873.23,374.642 1874.34,374.642 1875.44,374.642 1876.55,374.642 1877.66,374.642 1878.77,374.642 1879.87,374.642 1880.98,374.642 1882.09,374.642 1883.2,374.642 1884.3,374.642 1885.41,374.642 1886.52,374.642 1887.63,374.642 1888.73,374.642 1889.84,374.642 1890.95,374.642 1892.06,374.642 1893.16,374.642 1894.27,374.642 1895.38,374.642 1896.49,374.642 1897.59,374.642 1898.7,374.642 1899.81,374.642 1900.92,374.642 1902.02,374.642 1903.13,374.642 1904.24,374.642 1905.35,374.642 1906.45,374.642 1907.56,374.642 1908.67,374.642 1909.78,374.642 1910.88,374.642 1911.99,374.642 1913.1,374.642 1914.2,374.642 1915.31,374.642 1916.42,374.642 1917.53,374.642 1918.63,374.642 1919.74,302.528 1920.85,302.528 1921.96,302.528 1923.06,302.528 1924.17,302.528 1925.28,302.528 1926.39,302.528 1927.49,302.528 1928.6,302.528 1929.71,302.528 1930.82,302.528 1931.92,302.528 1933.03,302.528 1934.14,302.528 1935.25,302.528 1936.35,302.528 1937.46,302.528 1938.57,302.528 1939.68,230.414 1940.78,230.414 1941.89,230.414 1943,230.414 1944.11,230.414 1945.21,230.414 1946.32,230.414 1947.43,230.414 1948.54,230.414 1949.64,230.414 1950.75,230.414 1951.86,230.414 1952.97,230.414 1954.07,230.414 1955.18,230.414 1956.29,230.414 1957.4,230.414 1958.5,230.414 1959.61,230.414 1960.72,230.414 1961.83,230.414 1962.93,230.414 1964.04,230.414 1965.15,230.414 1966.26,230.414 1967.36,230.414 1968.47,230.414 1969.58,230.414 1970.68,230.414 1971.79,230.414 1972.9,230.414 1974.01,230.414 1975.11,230.414 1976.22,230.414 1977.33,230.414 1978.44,230.414 1979.54,230.414 1980.65,230.414 1981.76,230.414 1982.87,230.414 1983.97,230.414 1985.08,230.414 1986.19,230.414 1987.3,230.414 1988.4,230.414 1989.51,230.414 1990.62,230.414 1991.73,230.414 1992.83,230.414 1993.94,230.414 1995.05,230.414 1996.16,230.414 1997.26,230.414 1998.37,230.414 1999.48,230.414 2000.59,230.414 2001.69,230.414 2002.8,230.414 2003.91,230.414 2005.02,230.414 2006.12,230.414 2007.23,230.414 2008.34,230.414 2009.45,230.414 2010.55,230.414 2011.66,230.414 2012.77,230.414 2013.88,230.414 2014.98,230.414 2016.09,230.414 2017.2,230.414 2018.31,230.414 2019.41,230.414 2020.52,230.414 2021.63,230.414 2022.74,230.414 2023.84,230.414 2024.95,230.414 2026.06,230.414 2027.17,230.414 2028.27,230.414 2029.38,230.414 2030.49,230.414 2031.59,230.414 2032.7,230.414 2033.81,230.414 2034.92,230.414 2036.02,230.414 2037.13,230.414 2038.24,230.414 2039.35,230.414 2040.45,230.414 2041.56,230.414 2042.67,230.414 2043.78,230.414 2044.88,230.414 2045.99,230.414 2047.1,230.414 2048.21,230.414 2049.31,230.414 2050.42,230.414 2051.53,230.414 2052.64,230.414 2053.74,230.414 2054.85,230.414 2055.96,230.414 2057.07,230.414 2058.17,230.414 2059.28,230.414 2060.39,230.414 2061.5,230.414 2062.6,230.414 2063.71,230.414 2064.82,230.414 2065.93,230.414 2067.03,230.414 2068.14,230.414 2069.25,230.414 2070.36,230.414 2071.46,230.414 2072.57,230.414 2073.68,230.414 2074.79,230.414 2075.89,230.414 2077,230.414 2078.11,230.414 2079.22,230.414 2080.32,230.414 2081.43,230.414 2082.54,230.414 2083.65,230.414 2084.75,230.414 2085.86,230.414 2086.97,230.414 2088.07,230.414 2089.18,230.414 2090.29,230.414 2091.4,230.414 2092.5,230.414 2093.61,230.414 2094.72,230.414 2095.83,230.414 2096.93,230.414 2098.04,230.414 2099.15,230.414 2100.26,230.414 2101.36,230.414 2102.47,230.414 2103.58,230.414 2104.69,230.414 2105.79,230.414 2106.9,230.414 2108.01,230.414 2109.12,230.414 2110.22,230.414 2111.33,230.414 2112.44,230.414 2113.55,230.414 2114.65,230.414 2115.76,230.414 2116.87,230.414 2117.98,230.414 2119.08,230.414 2120.19,230.414 2121.3,230.414 2122.41,230.414 2123.51,230.414 2124.62,230.414 2125.73,230.414 2126.84,230.414 2127.94,230.414 2129.05,230.414 2130.16,230.414 2131.27,230.414 2132.37,230.414 2133.48,230.414 2134.59,230.414 2135.7,230.414 2136.8,230.414 2137.91,230.414 2139.02,230.414 2140.13,230.414 2141.23,230.414 2142.34,230.414 2143.45,230.414 2144.55,230.414 2145.66,230.414 2146.77,230.414 2147.88,230.414 2148.98,230.414 2150.09,230.414 2151.2,230.414 2152.31,230.414 2153.41,230.414 2154.52,230.414 2155.63,230.414 2156.74,230.414 2157.84,230.414 2158.95,230.414 2160.06,230.414 2161.17,230.414 2162.27,230.414 2163.38,230.414 2164.49,230.414 2165.6,230.414 2166.7,230.414 2167.81,230.414 2168.92,230.414 2170.03,230.414 2171.13,230.414 2172.24,230.414 2173.35,230.414 2174.46,230.414 2175.56,230.414 2176.67,230.414 2177.78,230.414 2178.89,230.414 2179.99,230.414 2181.1,230.414 2182.21,230.414 2183.32,230.414 2184.42,230.414 2185.53,230.414 2186.64,230.414 2187.75,230.414 2188.85,230.414 2189.96,230.414 2191.07,230.414 2192.18,230.414 2193.28,230.414 2194.39,230.414 2195.5,230.414 2196.61,230.414 2197.71,158.3 2198.82,158.3 2199.93,158.3 2201.03,158.3 2202.14,158.3 2203.25,158.3 2204.36,158.3 2205.46,158.3 2206.57,158.3 2207.68,158.3 2208.79,158.3 2209.89,158.3 2211,158.3 2212.11,158.3 2213.22,158.3 2214.32,158.3 2215.43,158.3 2216.54,158.3 2217.65,158.3 2218.75,158.3 2219.86,158.3 2220.97,158.3 2222.08,158.3 2223.18,158.3 2224.29,158.3 2225.4,158.3 2226.51,158.3 2227.61,158.3 2228.72,158.3 2229.83,158.3 2230.94,158.3 2232.04,158.3 2233.15,158.3 2234.26,158.3 2235.37,158.3 2236.47,158.3 2237.58,158.3 2238.69,158.3 2239.8,158.3 2240.9,158.3 2242.01,158.3 2243.12,158.3 2244.23,158.3 2245.33,158.3 2246.44,158.3 2247.55,158.3 2248.66,158.3 2249.76,158.3 2250.87,158.3 2251.98,158.3 2253.09,158.3 2254.19,158.3 2255.3,158.3 2256.41,158.3 2257.52,158.3 2258.62,158.3 2259.73,158.3 2260.84,158.3 2261.94,158.3 2263.05,158.3 2264.16,158.3 2265.27,158.3 2266.37,158.3 2267.48,158.3 2268.59,158.3 2269.7,158.3 2270.8,158.3 2271.91,158.3 2273.02,158.3 2274.13,158.3 2275.23,158.3 2276.34,158.3 2277.45,158.3 2278.56,158.3 2279.66,158.3 2280.77,158.3 2281.88,158.3 2282.99,158.3 2284.09,158.3 2285.2,158.3 2286.31,158.3 2287.42,158.3 2288.52,158.3 2289.63,158.3 2290.74,158.3 2291.85,158.3 2292.95,158.3 2294.06,158.3 2295.17,158.3 2296.28,158.3 2297.38,158.3 2298.49,158.3 2299.6,158.3 2300.71,158.3 2301.81,158.3 2302.92,158.3 2304.03,158.3 2305.14,158.3 2306.24,158.3 2307.35,158.3 2308.46,158.3 2309.57,158.3 2310.67,158.3 2311.78,158.3 2312.89,158.3 2314,158.3 2315.1,158.3 2316.21,158.3 2317.32,158.3 2318.42,158.3 2319.53,158.3 2320.64,158.3 2321.75,158.3 2322.85,158.3 2323.96,158.3 2325.07,158.3 2326.18,158.3 2327.28,158.3 2328.39,158.3 2329.5,158.3 2330.61,158.3 2331.71,158.3 2332.82,86.1857 2333.93,86.1857 2335.04,86.1857 2336.14,86.1857 2337.25,86.1857 2338.36,86.1857 2339.47,86.1857 2340.57,86.1857 2341.68,86.1857 2342.79,86.1857 2343.9,86.1857 2345,86.1857 2346.11,86.1857 2347.22,86.1857 2348.33,86.1857 2349.43,86.1857 2350.54,86.1857 2351.65,86.1857 2352.76,86.1857 "/>
<path clip-path="url(#clip010)" d="M1975.27 1377.32 L2278.96 1377.32 L2278.96 1273.64 L1975.27 1273.64  Z" fill="#ffffff" fill-rule="evenodd" fill-opacity="1"/>
<polyline clip-path="url(#clip010)" style="stroke:#000000; stroke-linecap:round; stroke-linejoin:round; stroke-width:4; stroke-opacity:1; fill:none" points="1975.27,1377.32 2278.96,1377.32 2278.96,1273.64 1975.27,1273.64 1975.27,1377.32 "/>
<polyline clip-path="url(#clip010)" style="stroke:#009af9; stroke-linecap:round; stroke-linejoin:round; stroke-width:8; stroke-opacity:1; fill:none" points="1999.87,1325.48 2147.45,1325.48 "/>
<path clip-path="url(#clip010)" d="M2172.05 1308.2 L2178.35 1308.2 L2193.67 1337.11 L2193.67 1308.2 L2198.21 1308.2 L2198.21 1342.76 L2191.91 1342.76 L2176.59 1313.84 L2176.59 1342.76 L2172.05 1342.76 L2172.05 1308.2 Z" fill="#000000" fill-rule="nonzero" fill-opacity="1" /><path clip-path="url(#clip010)" d="M2217.56 1306.78 Q2214.46 1312.11 2212.95 1317.32 Q2211.45 1322.52 2211.45 1327.87 Q2211.45 1333.22 2212.95 1338.47 Q2214.48 1343.7 2217.56 1349.01 L2213.86 1349.01 Q2210.38 1343.57 2208.65 1338.31 Q2206.93 1333.06 2206.93 1327.87 Q2206.93 1322.71 2208.65 1317.48 Q2210.36 1312.25 2213.86 1306.78 L2217.56 1306.78 Z" fill="#000000" fill-rule="nonzero" fill-opacity="1" /><path clip-path="url(#clip010)" d="M2230.04 1309.47 L2230.04 1316.83 L2238.81 1316.83 L2238.81 1320.14 L2230.04 1320.14 L2230.04 1334.21 Q2230.04 1337.38 2230.89 1338.29 Q2231.77 1339.19 2234.43 1339.19 L2238.81 1339.19 L2238.81 1342.76 L2234.43 1342.76 Q2229.5 1342.76 2227.63 1340.93 Q2225.75 1339.07 2225.75 1334.21 L2225.75 1320.14 L2222.63 1320.14 L2222.63 1316.83 L2225.75 1316.83 L2225.75 1309.47 L2230.04 1309.47 Z" fill="#000000" fill-rule="nonzero" fill-opacity="1" /><path clip-path="url(#clip010)" d="M2243.74 1306.78 L2247.44 1306.78 Q2250.92 1312.25 2252.63 1317.48 Q2254.36 1322.71 2254.36 1327.87 Q2254.36 1333.06 2252.63 1338.31 Q2250.92 1343.57 2247.44 1349.01 L2243.74 1349.01 Q2246.82 1343.7 2248.32 1338.47 Q2249.85 1333.22 2249.85 1327.87 Q2249.85 1322.52 2248.32 1317.32 Q2246.82 1312.11 2243.74 1306.78 Z" fill="#000000" fill-rule="nonzero" fill-opacity="1" /></svg>
