<?xml version="1.0" encoding="utf-8"?>
<svg xmlns="http://www.w3.org/2000/svg" xmlns:xlink="http://www.w3.org/1999/xlink" width="600" height="400" viewBox="0 0 2400 1600">
<defs>
  <clipPath id="clip290">
    <rect x="0" y="0" width="2400" height="1600"/>
  </clipPath>
</defs>
<path clip-path="url(#clip290)" d="M0 1600 L2400 1600 L2400 0 L0 0  Z" fill="#ffffff" fill-rule="evenodd" fill-opacity="1"/>
<defs>
  <clipPath id="clip291">
    <rect x="480" y="0" width="1681" height="1600"/>
  </clipPath>
</defs>
<path clip-path="url(#clip290)" d="M155.765 1423.18 L2352.76 1423.18 L2352.76 47.2441 L155.765 47.2441  Z" fill="#ffffff" fill-rule="evenodd" fill-opacity="1"/>
<defs>
  <clipPath id="clip292">
    <rect x="155" y="47" width="2198" height="1377"/>
  </clipPath>
</defs>
<polyline clip-path="url(#clip292)" style="stroke:#000000; stroke-linecap:round; stroke-linejoin:round; stroke-width:2; stroke-opacity:0.1; fill:none" points="155.765,1423.18 155.765,47.2441 "/>
<polyline clip-path="url(#clip292)" style="stroke:#000000; stroke-linecap:round; stroke-linejoin:round; stroke-width:2; stroke-opacity:0.1; fill:none" points="595.163,1423.18 595.163,47.2441 "/>
<polyline clip-path="url(#clip292)" style="stroke:#000000; stroke-linecap:round; stroke-linejoin:round; stroke-width:2; stroke-opacity:0.1; fill:none" points="1034.56,1423.18 1034.56,47.2441 "/>
<polyline clip-path="url(#clip292)" style="stroke:#000000; stroke-linecap:round; stroke-linejoin:round; stroke-width:2; stroke-opacity:0.1; fill:none" points="1473.96,1423.18 1473.96,47.2441 "/>
<polyline clip-path="url(#clip292)" style="stroke:#000000; stroke-linecap:round; stroke-linejoin:round; stroke-width:2; stroke-opacity:0.1; fill:none" points="1913.36,1423.18 1913.36,47.2441 "/>
<polyline clip-path="url(#clip292)" style="stroke:#000000; stroke-linecap:round; stroke-linejoin:round; stroke-width:2; stroke-opacity:0.1; fill:none" points="2352.76,1423.18 2352.76,47.2441 "/>
<polyline clip-path="url(#clip292)" style="stroke:#000000; stroke-linecap:round; stroke-linejoin:round; stroke-width:2; stroke-opacity:0.1; fill:none" points="155.765,1184.62 2352.76,1184.62 "/>
<polyline clip-path="url(#clip292)" style="stroke:#000000; stroke-linecap:round; stroke-linejoin:round; stroke-width:2; stroke-opacity:0.1; fill:none" points="155.765,851.935 2352.76,851.935 "/>
<polyline clip-path="url(#clip292)" style="stroke:#000000; stroke-linecap:round; stroke-linejoin:round; stroke-width:2; stroke-opacity:0.1; fill:none" points="155.765,519.245 2352.76,519.245 "/>
<polyline clip-path="url(#clip292)" style="stroke:#000000; stroke-linecap:round; stroke-linejoin:round; stroke-width:2; stroke-opacity:0.1; fill:none" points="155.765,186.555 2352.76,186.555 "/>
<polyline clip-path="url(#clip290)" style="stroke:#000000; stroke-linecap:round; stroke-linejoin:round; stroke-width:4; stroke-opacity:1; fill:none" points="155.765,1423.18 2352.76,1423.18 "/>
<polyline clip-path="url(#clip290)" style="stroke:#000000; stroke-linecap:round; stroke-linejoin:round; stroke-width:4; stroke-opacity:1; fill:none" points="155.765,1423.18 155.765,1404.28 "/>
<polyline clip-path="url(#clip290)" style="stroke:#000000; stroke-linecap:round; stroke-linejoin:round; stroke-width:4; stroke-opacity:1; fill:none" points="595.163,1423.18 595.163,1404.28 "/>
<polyline clip-path="url(#clip290)" style="stroke:#000000; stroke-linecap:round; stroke-linejoin:round; stroke-width:4; stroke-opacity:1; fill:none" points="1034.56,1423.18 1034.56,1404.28 "/>
<polyline clip-path="url(#clip290)" style="stroke:#000000; stroke-linecap:round; stroke-linejoin:round; stroke-width:4; stroke-opacity:1; fill:none" points="1473.96,1423.18 1473.96,1404.28 "/>
<polyline clip-path="url(#clip290)" style="stroke:#000000; stroke-linecap:round; stroke-linejoin:round; stroke-width:4; stroke-opacity:1; fill:none" points="1913.36,1423.18 1913.36,1404.28 "/>
<polyline clip-path="url(#clip290)" style="stroke:#000000; stroke-linecap:round; stroke-linejoin:round; stroke-width:4; stroke-opacity:1; fill:none" points="2352.76,1423.18 2352.76,1404.28 "/>
<path clip-path="url(#clip290)" d="M155.765 1454.1 Q152.154 1454.1 150.325 1457.66 Q148.52 1461.2 148.52 1468.33 Q148.52 1475.44 150.325 1479.01 Q152.154 1482.55 155.765 1482.55 Q159.399 1482.55 161.205 1479.01 Q163.033 1475.44 163.033 1468.33 Q163.033 1461.2 161.205 1457.66 Q159.399 1454.1 155.765 1454.1 M155.765 1450.39 Q161.575 1450.39 164.631 1455 Q167.709 1459.58 167.709 1468.33 Q167.709 1477.06 164.631 1481.67 Q161.575 1486.25 155.765 1486.25 Q149.955 1486.25 146.876 1481.67 Q143.821 1477.06 143.821 1468.33 Q143.821 1459.58 146.876 1455 Q149.955 1450.39 155.765 1450.39 Z" fill="#000000" fill-rule="nonzero" fill-opacity="1" /><path clip-path="url(#clip290)" d="M589.816 1481.64 L606.135 1481.64 L606.135 1485.58 L584.191 1485.58 L584.191 1481.64 Q586.853 1478.89 591.436 1474.26 Q596.043 1469.61 597.223 1468.27 Q599.469 1465.74 600.348 1464.01 Q601.251 1462.25 601.251 1460.56 Q601.251 1457.8 599.307 1456.07 Q597.385 1454.33 594.283 1454.33 Q592.084 1454.33 589.631 1455.09 Q587.2 1455.86 584.422 1457.41 L584.422 1452.69 Q587.246 1451.55 589.7 1450.97 Q592.154 1450.39 594.191 1450.39 Q599.561 1450.39 602.756 1453.08 Q605.95 1455.77 605.95 1460.26 Q605.95 1462.39 605.14 1464.31 Q604.353 1466.2 602.246 1468.8 Q601.668 1469.47 598.566 1472.69 Q595.464 1475.88 589.816 1481.64 Z" fill="#000000" fill-rule="nonzero" fill-opacity="1" /><path clip-path="url(#clip290)" d="M1037.57 1455.09 L1025.77 1473.54 L1037.57 1473.54 L1037.57 1455.09 M1036.34 1451.02 L1042.22 1451.02 L1042.22 1473.54 L1047.15 1473.54 L1047.15 1477.43 L1042.22 1477.43 L1042.22 1485.58 L1037.57 1485.58 L1037.57 1477.43 L1021.97 1477.43 L1021.97 1472.92 L1036.34 1451.02 Z" fill="#000000" fill-rule="nonzero" fill-opacity="1" /><path clip-path="url(#clip290)" d="M1474.36 1466.44 Q1471.22 1466.44 1469.36 1468.59 Q1467.54 1470.74 1467.54 1474.49 Q1467.54 1478.22 1469.36 1480.39 Q1471.22 1482.55 1474.36 1482.55 Q1477.51 1482.55 1479.34 1480.39 Q1481.19 1478.22 1481.19 1474.49 Q1481.19 1470.74 1479.34 1468.59 Q1477.51 1466.44 1474.36 1466.44 M1483.65 1451.78 L1483.65 1456.04 Q1481.89 1455.21 1480.08 1454.77 Q1478.3 1454.33 1476.54 1454.33 Q1471.91 1454.33 1469.46 1457.45 Q1467.03 1460.58 1466.68 1466.9 Q1468.05 1464.89 1470.11 1463.82 Q1472.17 1462.73 1474.64 1462.73 Q1479.85 1462.73 1482.86 1465.9 Q1485.89 1469.05 1485.89 1474.49 Q1485.89 1479.82 1482.74 1483.03 Q1479.6 1486.25 1474.36 1486.25 Q1468.37 1486.25 1465.2 1481.67 Q1462.03 1477.06 1462.03 1468.33 Q1462.03 1460.14 1465.92 1455.28 Q1469.8 1450.39 1476.36 1450.39 Q1478.11 1450.39 1479.9 1450.74 Q1481.7 1451.09 1483.65 1451.78 Z" fill="#000000" fill-rule="nonzero" fill-opacity="1" /><path clip-path="url(#clip290)" d="M1913.36 1469.17 Q1910.02 1469.17 1908.1 1470.95 Q1906.2 1472.73 1906.2 1475.86 Q1906.2 1478.98 1908.1 1480.77 Q1910.02 1482.55 1913.36 1482.55 Q1916.69 1482.55 1918.61 1480.77 Q1920.53 1478.96 1920.53 1475.86 Q1920.53 1472.73 1918.61 1470.95 Q1916.71 1469.17 1913.36 1469.17 M1908.68 1467.18 Q1905.67 1466.44 1903.98 1464.38 Q1902.32 1462.32 1902.32 1459.35 Q1902.32 1455.21 1905.26 1452.8 Q1908.22 1450.39 1913.36 1450.39 Q1918.52 1450.39 1921.46 1452.8 Q1924.4 1455.21 1924.4 1459.35 Q1924.4 1462.32 1922.71 1464.38 Q1921.04 1466.44 1918.06 1467.18 Q1921.44 1467.96 1923.31 1470.26 Q1925.21 1472.55 1925.21 1475.86 Q1925.21 1480.88 1922.13 1483.57 Q1919.08 1486.25 1913.36 1486.25 Q1907.64 1486.25 1904.56 1483.57 Q1901.51 1480.88 1901.51 1475.86 Q1901.51 1472.55 1903.4 1470.26 Q1905.3 1467.96 1908.68 1467.18 M1906.97 1459.79 Q1906.97 1462.48 1908.64 1463.98 Q1910.33 1465.49 1913.36 1465.49 Q1916.37 1465.49 1918.06 1463.98 Q1919.77 1462.48 1919.77 1459.79 Q1919.77 1457.11 1918.06 1455.6 Q1916.37 1454.1 1913.36 1454.1 Q1910.33 1454.1 1908.64 1455.6 Q1906.97 1457.11 1906.97 1459.79 Z" fill="#000000" fill-rule="nonzero" fill-opacity="1" /><path clip-path="url(#clip290)" d="M2327.44 1481.64 L2335.08 1481.64 L2335.08 1455.28 L2326.77 1456.95 L2326.77 1452.69 L2335.04 1451.02 L2339.71 1451.02 L2339.71 1481.64 L2347.35 1481.64 L2347.35 1485.58 L2327.44 1485.58 L2327.44 1481.64 Z" fill="#000000" fill-rule="nonzero" fill-opacity="1" /><path clip-path="url(#clip290)" d="M2366.8 1454.1 Q2363.18 1454.1 2361.36 1457.66 Q2359.55 1461.2 2359.55 1468.33 Q2359.55 1475.44 2361.36 1479.01 Q2363.18 1482.55 2366.8 1482.55 Q2370.43 1482.55 2372.23 1479.01 Q2374.06 1475.44 2374.06 1468.33 Q2374.06 1461.2 2372.23 1457.66 Q2370.43 1454.1 2366.8 1454.1 M2366.8 1450.39 Q2372.61 1450.39 2375.66 1455 Q2378.74 1459.58 2378.74 1468.33 Q2378.74 1477.06 2375.66 1481.67 Q2372.61 1486.25 2366.8 1486.25 Q2360.99 1486.25 2357.91 1481.67 Q2354.85 1477.06 2354.85 1468.33 Q2354.85 1459.58 2357.91 1455 Q2360.99 1450.39 2366.8 1450.39 Z" fill="#000000" fill-rule="nonzero" fill-opacity="1" /><path clip-path="url(#clip290)" d="M1253.32 1522.27 L1253.32 1532.4 L1265.38 1532.4 L1265.38 1536.95 L1253.32 1536.95 L1253.32 1556.3 Q1253.32 1560.66 1254.5 1561.9 Q1255.71 1563.14 1259.37 1563.14 L1265.38 1563.14 L1265.38 1568.04 L1259.37 1568.04 Q1252.59 1568.04 1250.01 1565.53 Q1247.43 1562.98 1247.43 1556.3 L1247.43 1536.95 L1243.14 1536.95 L1243.14 1532.4 L1247.43 1532.4 L1247.43 1522.27 L1253.32 1522.27 Z" fill="#000000" fill-rule="nonzero" fill-opacity="1" /><polyline clip-path="url(#clip290)" style="stroke:#000000; stroke-linecap:round; stroke-linejoin:round; stroke-width:4; stroke-opacity:1; fill:none" points="155.765,1423.18 155.765,47.2441 "/>
<polyline clip-path="url(#clip290)" style="stroke:#000000; stroke-linecap:round; stroke-linejoin:round; stroke-width:4; stroke-opacity:1; fill:none" points="155.765,1184.62 174.663,1184.62 "/>
<polyline clip-path="url(#clip290)" style="stroke:#000000; stroke-linecap:round; stroke-linejoin:round; stroke-width:4; stroke-opacity:1; fill:none" points="155.765,851.935 174.663,851.935 "/>
<polyline clip-path="url(#clip290)" style="stroke:#000000; stroke-linecap:round; stroke-linejoin:round; stroke-width:4; stroke-opacity:1; fill:none" points="155.765,519.245 174.663,519.245 "/>
<polyline clip-path="url(#clip290)" style="stroke:#000000; stroke-linecap:round; stroke-linejoin:round; stroke-width:4; stroke-opacity:1; fill:none" points="155.765,186.555 174.663,186.555 "/>
<path clip-path="url(#clip290)" d="M63.5847 1170.42 Q59.9736 1170.42 58.1449 1173.99 Q56.3393 1177.53 56.3393 1184.66 Q56.3393 1191.77 58.1449 1195.33 Q59.9736 1198.87 63.5847 1198.87 Q67.2189 1198.87 69.0244 1195.33 Q70.8531 1191.77 70.8531 1184.66 Q70.8531 1177.53 69.0244 1173.99 Q67.2189 1170.42 63.5847 1170.42 M63.5847 1166.72 Q69.3948 1166.72 72.4503 1171.33 Q75.529 1175.91 75.529 1184.66 Q75.529 1193.39 72.4503 1197.99 Q69.3948 1202.58 63.5847 1202.58 Q57.7745 1202.58 54.6958 1197.99 Q51.6403 1193.39 51.6403 1184.66 Q51.6403 1175.91 54.6958 1171.33 Q57.7745 1166.72 63.5847 1166.72 Z" fill="#000000" fill-rule="nonzero" fill-opacity="1" /><path clip-path="url(#clip290)" d="M83.7466 1196.02 L88.6308 1196.02 L88.6308 1201.9 L83.7466 1201.9 L83.7466 1196.02 Z" fill="#000000" fill-rule="nonzero" fill-opacity="1" /><path clip-path="url(#clip290)" d="M98.8622 1167.34 L117.219 1167.34 L117.219 1171.28 L103.145 1171.28 L103.145 1179.75 Q104.163 1179.4 105.182 1179.24 Q106.2 1179.06 107.219 1179.06 Q113.006 1179.06 116.385 1182.23 Q119.765 1185.4 119.765 1190.82 Q119.765 1196.4 116.293 1199.5 Q112.82 1202.58 106.501 1202.58 Q104.325 1202.58 102.057 1202.21 Q99.8113 1201.83 97.4039 1201.09 L97.4039 1196.4 Q99.4872 1197.53 101.709 1198.08 Q103.932 1198.64 106.408 1198.64 Q110.413 1198.64 112.751 1196.53 Q115.089 1194.43 115.089 1190.82 Q115.089 1187.21 112.751 1185.1 Q110.413 1182.99 106.408 1182.99 Q104.534 1182.99 102.659 1183.41 Q100.807 1183.83 98.8622 1184.71 L98.8622 1167.34 Z" fill="#000000" fill-rule="nonzero" fill-opacity="1" /><path clip-path="url(#clip290)" d="M53.3995 865.279 L61.0384 865.279 L61.0384 838.914 L52.7282 840.581 L52.7282 836.321 L60.9921 834.655 L65.668 834.655 L65.668 865.279 L73.3068 865.279 L73.3068 869.215 L53.3995 869.215 L53.3995 865.279 Z" fill="#000000" fill-rule="nonzero" fill-opacity="1" /><path clip-path="url(#clip290)" d="M82.7512 863.335 L87.6354 863.335 L87.6354 869.215 L82.7512 869.215 L82.7512 863.335 Z" fill="#000000" fill-rule="nonzero" fill-opacity="1" /><path clip-path="url(#clip290)" d="M107.821 837.733 Q104.209 837.733 102.381 841.298 Q100.575 844.84 100.575 851.969 Q100.575 859.076 102.381 862.641 Q104.209 866.182 107.821 866.182 Q111.455 866.182 113.26 862.641 Q115.089 859.076 115.089 851.969 Q115.089 844.84 113.26 841.298 Q111.455 837.733 107.821 837.733 M107.821 834.03 Q113.631 834.03 116.686 838.636 Q119.765 843.219 119.765 851.969 Q119.765 860.696 116.686 865.303 Q113.631 869.886 107.821 869.886 Q102.01 869.886 98.9317 865.303 Q95.8761 860.696 95.8761 851.969 Q95.8761 843.219 98.9317 838.636 Q102.01 834.03 107.821 834.03 Z" fill="#000000" fill-rule="nonzero" fill-opacity="1" /><path clip-path="url(#clip290)" d="M54.3949 532.59 L62.0337 532.59 L62.0337 506.224 L53.7236 507.891 L53.7236 503.631 L61.9874 501.965 L66.6633 501.965 L66.6633 532.59 L74.3022 532.59 L74.3022 536.525 L54.3949 536.525 L54.3949 532.59 Z" fill="#000000" fill-rule="nonzero" fill-opacity="1" /><path clip-path="url(#clip290)" d="M83.7466 530.645 L88.6308 530.645 L88.6308 536.525 L83.7466 536.525 L83.7466 530.645 Z" fill="#000000" fill-rule="nonzero" fill-opacity="1" /><path clip-path="url(#clip290)" d="M98.8622 501.965 L117.219 501.965 L117.219 505.9 L103.145 505.9 L103.145 514.372 Q104.163 514.025 105.182 513.863 Q106.2 513.678 107.219 513.678 Q113.006 513.678 116.385 516.849 Q119.765 520.02 119.765 525.437 Q119.765 531.016 116.293 534.117 Q112.82 537.196 106.501 537.196 Q104.325 537.196 102.057 536.826 Q99.8113 536.455 97.4039 535.715 L97.4039 531.016 Q99.4872 532.15 101.709 532.705 Q103.932 533.261 106.408 533.261 Q110.413 533.261 112.751 531.154 Q115.089 529.048 115.089 525.437 Q115.089 521.826 112.751 519.719 Q110.413 517.613 106.408 517.613 Q104.534 517.613 102.659 518.03 Q100.807 518.446 98.8622 519.326 L98.8622 501.965 Z" fill="#000000" fill-rule="nonzero" fill-opacity="1" /><path clip-path="url(#clip290)" d="M56.6171 199.9 L72.9365 199.9 L72.9365 203.835 L50.9921 203.835 L50.9921 199.9 Q53.6541 197.145 58.2375 192.516 Q62.8439 187.863 64.0245 186.52 Q66.2698 183.997 67.1494 182.261 Q68.0522 180.502 68.0522 178.812 Q68.0522 176.057 66.1078 174.321 Q64.1865 172.585 61.0847 172.585 Q58.8856 172.585 56.4319 173.349 Q54.0014 174.113 51.2236 175.664 L51.2236 170.942 Q54.0477 169.807 56.5014 169.229 Q58.955 168.65 60.9921 168.65 Q66.3624 168.65 69.5568 171.335 Q72.7513 174.02 72.7513 178.511 Q72.7513 180.641 71.9411 182.562 Q71.1541 184.46 69.0476 187.053 Q68.4689 187.724 65.367 190.942 Q62.2652 194.136 56.6171 199.9 Z" fill="#000000" fill-rule="nonzero" fill-opacity="1" /><path clip-path="url(#clip290)" d="M82.7512 197.955 L87.6354 197.955 L87.6354 203.835 L82.7512 203.835 L82.7512 197.955 Z" fill="#000000" fill-rule="nonzero" fill-opacity="1" /><path clip-path="url(#clip290)" d="M107.821 172.354 Q104.209 172.354 102.381 175.919 Q100.575 179.46 100.575 186.59 Q100.575 193.696 102.381 197.261 Q104.209 200.803 107.821 200.803 Q111.455 200.803 113.26 197.261 Q115.089 193.696 115.089 186.59 Q115.089 179.46 113.26 175.919 Q111.455 172.354 107.821 172.354 M107.821 168.65 Q113.631 168.65 116.686 173.257 Q119.765 177.84 119.765 186.59 Q119.765 195.317 116.686 199.923 Q113.631 204.506 107.821 204.506 Q102.01 204.506 98.9317 199.923 Q95.8761 195.317 95.8761 186.59 Q95.8761 177.84 98.9317 173.257 Q102.01 168.65 107.821 168.65 Z" fill="#000000" fill-rule="nonzero" fill-opacity="1" /><polyline clip-path="url(#clip292)" style="stroke:#009af9; stroke-linecap:round; stroke-linejoin:round; stroke-width:8; stroke-opacity:1; fill:none" points="155.765,1384.24 157.964,1382.9 160.163,1381.55 162.362,1380.18 164.562,1378.8 166.761,1377.41 168.96,1376 171.159,1374.58 173.358,1373.14 175.558,1371.69 177.757,1370.23 179.956,1368.75 182.155,1367.25 184.354,1365.74 186.554,1364.22 188.753,1362.68 190.952,1361.12 193.151,1359.55 195.35,1357.96 197.55,1356.36 199.749,1354.74 201.948,1353.11 204.147,1351.45 206.346,1349.79 208.545,1348.1 210.745,1346.4 212.944,1344.68 215.143,1342.94 217.342,1341.19 219.541,1339.42 221.741,1337.63 223.94,1335.82 226.139,1333.99 228.338,1332.15 230.537,1330.29 232.737,1328.4 234.936,1326.5 237.135,1324.58 239.334,1322.65 241.533,1320.69 243.733,1318.71 245.932,1316.71 248.131,1314.69 250.33,1312.65 252.529,1310.6 254.728,1308.52 256.928,1306.41 259.127,1304.29 261.326,1302.15 263.525,1299.99 265.724,1297.8 267.924,1295.59 270.123,1293.36 272.322,1291.11 274.521,1288.83 276.72,1286.53 278.92,1284.21 281.119,1281.87 283.318,1279.5 285.517,1277.11 287.716,1274.69 289.916,1272.25 292.115,1269.78 294.314,1267.29 296.513,1264.78 298.712,1262.24 300.911,1259.67 303.111,1257.08 305.31,1254.46 307.509,1251.82 309.708,1249.14 311.907,1246.45 314.107,1243.72 316.306,1240.97 318.505,1238.19 320.704,1235.38 322.903,1232.54 325.103,1229.68 327.302,1226.79 329.501,1223.86 331.7,1220.91 333.899,1217.93 336.099,1214.92 338.298,1211.87 340.497,1208.8 342.696,1205.7 344.895,1202.56 347.094,1199.4 349.294,1196.2 351.493,1192.97 353.692,1189.71 355.891,1186.41 358.09,1183.08 360.29,1179.72 362.489,1176.32 364.688,1172.89 366.887,1169.43 369.086,1165.93 371.286,1162.39 373.485,1158.82 375.684,1155.21 377.883,1151.57 380.082,1147.89 382.281,1144.18 384.481,1140.42 386.68,1136.63 388.879,1132.8 391.078,1128.93 393.277,1125.02 395.477,1121.08 397.676,1117.09 399.875,1113.07 402.074,1109 404.273,1104.89 406.473,1100.74 408.672,1096.55 410.871,1092.32 413.07,1088.04 415.269,1083.72 417.469,1079.36 419.668,1074.96 421.867,1070.51 424.066,1066.01 426.265,1061.47 428.464,1056.88 430.664,1052.25 432.863,1047.57 435.062,1042.85 437.261,1038.07 439.46,1033.25 441.66,1028.38 443.859,1023.46 446.058,1018.5 448.257,1013.48 450.456,1008.41 452.656,1003.29 454.855,998.119 457.054,992.896 459.253,987.62 461.452,982.291 463.652,976.909 465.851,971.473 468.05,965.982 470.249,960.435 472.448,954.833 474.647,949.175 476.847,943.459 479.046,937.686 481.245,931.855 483.444,925.965 485.643,920.016 487.843,914.007 490.042,907.938 492.241,901.807 494.44,895.615 496.639,889.361 498.839,883.043 501.038,876.662 503.237,870.217 505.436,863.707 507.635,857.131 509.835,850.489 512.034,843.78 514.233,837.004 516.432,830.16 518.631,823.246 520.83,816.264 523.03,809.211 525.229,802.087 527.428,794.892 529.627,787.624 531.826,780.283 534.026,772.868 536.225,765.378 538.424,757.813 540.623,750.172 542.822,742.455 545.022,734.659 547.221,726.785 549.42,718.832 551.619,710.799 553.818,702.685 556.018,694.49 558.217,686.212 560.416,677.851 562.615,669.407 564.814,660.877 567.013,652.261 569.213,643.559 571.412,634.769 573.611,625.891 575.81,616.923 578.009,607.866 580.209,598.717 582.408,589.476 584.607,580.143 586.806,570.715 589.005,561.193 591.205,551.575 593.404,541.859 595.603,532.047 597.802,522.135 600.001,512.124 602.201,502.012 604.4,491.798 606.599,481.481 608.798,471.06 610.997,460.535 613.196,449.903 615.396,439.165 617.595,428.318 619.794,417.362 621.993,406.296 624.192,395.119 626.392,383.829 628.591,372.425 630.79,360.906 632.989,349.272 635.188,337.52 637.388,325.651 639.587,313.661 641.786,301.552 643.985,289.32 646.184,276.965 648.384,264.487 650.583,251.882 652.782,239.151 654.981,226.293 657.18,865.309 659.379,858.75 661.579,852.125 663.778,845.433 665.977,838.673 668.176,831.846 670.375,824.95 672.575,817.985 674.774,810.949 676.973,803.843 679.172,796.665 681.371,789.415 683.571,782.092 685.77,774.696 687.969,767.225 690.168,759.679 692.367,752.057 694.567,744.358 696.766,736.582 698.965,728.728 701.164,720.794 703.363,712.781 705.562,1111 707.762,1106.91 709.961,1102.78 712.16,1098.61 714.359,1094.4 716.558,1090.15 718.758,1085.85 720.957,1081.51 723.156,1077.12 725.355,1072.7 727.554,1068.22 729.754,1063.7 731.953,1059.14 734.152,1054.53 736.351,1049.88 738.55,1045.17 740.749,1040.42 742.949,1035.63 745.148,1030.78 747.347,1025.89 749.546,1020.94 751.745,1015.95 753.945,1010.91 756.144,1005.81 758.343,1000.67 760.542,995.468 762.741,990.218 764.941,984.916 767.14,979.56 769.339,974.15 771.538,968.685 773.737,963.166 775.937,957.591 778.136,951.96 780.335,946.273 782.534,940.528 784.733,934.725 786.932,928.864 789.132,922.944 791.331,916.964 793.53,910.924 795.729,904.824 797.928,898.662 800.128,892.438 802.327,886.151 804.526,879.801 806.725,873.387 808.924,866.909 811.124,860.366 813.323,853.757 815.522,847.081 817.721,840.339 819.92,833.528 822.12,826.649 824.319,819.7 826.518,812.682 828.717,805.593 830.916,798.433 833.115,791.201 835.315,783.896 837.514,776.518 839.713,769.065 841.912,761.538 844.111,753.934 846.311,746.255 848.51,738.498 850.709,730.663 852.908,722.749 855.107,714.756 857.307,706.682 859.506,698.527 861.705,690.29 863.904,681.97 866.103,673.566 868.303,665.078 870.502,656.505 872.701,647.845 874.9,639.098 877.099,630.263 879.298,621.339 881.498,612.325 883.697,603.22 885.896,594.024 888.095,584.736 890.294,575.353 892.494,565.877 894.693,556.305 896.892,546.637 899.091,536.871 901.29,527.008 903.49,517.045 905.689,506.981 907.888,496.817 910.087,486.551 912.286,476.181 914.486,465.707 916.685,455.127 918.884,444.441 921.083,433.648 923.282,422.746 925.481,411.734 927.681,400.612 929.88,389.377 932.079,378.03 934.278,366.569 936.477,354.992 938.677,343.299 940.876,331.488 943.075,319.558 945.274,307.508 947.473,295.337 949.673,283.044 951.872,270.627 954.071,258.085 956.27,245.417 958.469,232.621 960.669,219.696 962.868,206.642 965.067,193.456 967.266,180.138 969.465,166.685 971.664,835.206 973.864,828.344 976.063,821.413 978.262,814.412 980.461,807.34 982.66,800.198 984.86,792.983 987.059,785.696 989.258,778.336 991.457,770.902 993.656,763.393 995.856,755.808 998.055,748.147 1000.25,740.409 1002.45,732.593 1004.65,724.699 1006.85,716.725 1009.05,708.67 1011.25,700.535 1013.45,692.318 1015.65,684.019 1017.85,675.635 1020.05,667.168 1022.25,658.615 1024.45,649.976 1026.64,1079.28 1028.84,1074.88 1031.04,1070.43 1033.24,1065.93 1035.44,1061.39 1037.64,1056.8 1039.84,1052.17 1042.04,1047.49 1044.24,1042.76 1046.44,1037.99 1048.64,1033.17 1050.84,1028.3 1053.03,1023.38 1055.23,1018.41 1057.43,1013.39 1059.63,1008.32 1061.83,1003.2 1064.03,998.025 1066.23,992.801 1068.43,987.525 1070.63,982.195 1072.83,976.811 1075.03,971.374 1077.23,965.881 1079.42,960.334 1081.62,954.73 1083.82,949.071 1086.02,943.354 1088.22,1227.45 1090.42,1224.53 1092.62,1221.59 1094.82,1218.61 1097.02,1215.61 1099.22,1212.57 1101.42,1209.5 1103.62,1206.41 1105.82,1203.28 1108.01,1200.12 1110.21,1196.93 1112.41,1193.71 1114.61,1190.45 1116.81,1187.16 1119.01,1183.84 1121.21,1180.49 1123.41,1177.1 1125.61,1173.68 1127.81,1170.22 1130.01,1166.73 1132.21,1163.2 1134.4,1159.64 1136.6,1156.04 1138.8,1152.4 1141,1333.02 1143.2,1331.17 1145.4,1329.3 1147.6,1327.41 1149.8,1325.49 1152,1323.56 1154.2,1321.62 1156.4,1319.65 1158.6,1317.66 1160.79,1315.65 1162.99,1313.62 1165.19,1311.57 1167.39,1309.5 1169.59,1307.41 1171.79,1305.3 1173.99,1303.17 1176.19,1301.01 1178.39,1298.84 1180.59,1296.64 1182.79,1294.42 1184.99,1292.18 1187.19,1289.91 1189.38,1287.62 1191.58,1285.31 1193.78,1282.98 1195.98,1280.62 1198.18,1278.24 1200.38,1275.84 1202.58,1273.41 1204.78,1270.95 1206.98,1268.47 1209.18,1265.97 1211.38,1263.44 1213.58,1260.89 1215.77,1258.31 1217.97,1255.7 1220.17,1253.07 1222.37,1250.41 1224.57,1247.73 1226.77,1245.02 1228.97,1242.28 1231.17,1239.51 1233.37,1236.71 1235.57,1233.89 1237.77,1231.04 1239.97,1228.16 1242.16,1225.25 1244.36,1222.31 1246.56,1219.34 1248.76,1216.35 1250.96,1213.32 1253.16,1210.26 1255.36,1207.17 1257.56,1204.05 1259.76,1200.9 1261.96,1197.72 1264.16,1194.5 1266.36,1191.25 1268.56,1187.97 1270.75,1184.66 1272.95,1181.31 1275.15,1177.93 1277.35,1174.52 1279.55,1171.07 1281.75,1167.59 1283.95,1164.07 1286.15,1160.51 1288.35,1156.92 1290.55,1153.3 1292.75,1149.64 1294.95,1145.94 1297.14,1142.2 1299.34,1138.43 1301.54,1134.62 1303.74,1130.77 1305.94,1126.88 1308.14,1122.95 1310.34,1118.98 1312.54,1114.98 1314.74,1110.93 1316.94,1106.84 1319.14,1102.71 1321.34,1098.54 1323.53,1094.33 1325.73,1090.07 1327.93,1085.77 1330.13,1081.43 1332.33,1077.05 1334.53,1072.62 1336.73,1068.14 1338.93,1063.62 1341.13,1059.06 1343.33,1054.45 1345.53,1049.79 1347.73,1045.09 1349.93,1040.34 1352.12,1035.54 1354.32,1030.69 1356.52,1025.8 1358.72,1020.85 1360.92,1015.86 1363.12,1010.81 1365.32,1005.72 1367.52,1000.57 1369.72,995.373 1371.92,990.122 1374.12,984.818 1376.32,979.461 1378.51,974.05 1380.71,968.585 1382.91,963.065 1385.11,957.489 1387.31,951.857 1389.51,946.168 1391.71,940.422 1393.91,934.619 1396.11,928.757 1398.31,922.836 1400.51,916.856 1402.71,910.815 1404.9,904.713 1407.1,898.551 1409.3,892.326 1411.5,886.038 1413.7,879.688 1415.9,873.273 1418.1,866.794 1420.3,860.25 1422.5,853.639 1424.7,846.963 1426.9,840.219 1429.1,833.407 1431.3,826.527 1433.49,819.577 1435.69,812.557 1437.89,805.467 1440.09,798.306 1442.29,791.072 1444.49,783.766 1446.69,776.386 1448.89,768.932 1451.09,761.403 1453.29,753.798 1455.49,746.117 1457.69,1127.84 1459.88,1123.92 1462.08,1119.96 1464.28,1115.97 1466.48,1111.93 1468.68,1107.85 1470.88,1103.73 1473.08,1099.57 1475.28,1095.37 1477.48,1091.12 1479.68,1086.83 1481.88,1082.5 1484.08,1078.13 1486.27,1073.71 1488.47,1069.25 1490.67,1064.74 1492.87,1060.19 1495.07,1055.59 1497.27,1050.94 1499.47,1046.25 1501.67,1041.51 1503.87,1036.73 1506.07,1031.89 1508.27,1027.01 1510.47,1022.08 1512.67,1017.09 1514.86,1012.06 1517.06,1006.98 1519.26,1001.85 1521.46,996.66 1523.66,991.422 1525.86,986.131 1528.06,980.787 1530.26,975.39 1532.46,969.938 1534.66,964.431 1536.86,958.869 1539.06,953.25 1541.25,947.576 1543.45,941.844 1545.65,936.054 1547.85,930.206 1550.05,924.3 1552.25,918.334 1554.45,912.308 1556.65,906.221 1558.85,900.073 1561.05,893.864 1563.25,1202.45 1565.45,1199.29 1567.65,1196.09 1569.84,1192.85 1572.04,1189.59 1574.24,1186.29 1576.44,1182.96 1578.64,1179.6 1580.84,1176.2 1583.04,1172.77 1585.24,1169.3 1587.44,1165.8 1589.64,1162.27 1591.84,1158.69 1594.04,1155.09 1596.23,1151.44 1598.43,1147.76 1600.63,1144.04 1602.83,1140.29 1605.03,1136.5 1607.23,1132.67 1609.43,1128.8 1611.63,1124.89 1613.83,1120.94 1616.03,1116.95 1618.23,1112.92 1620.43,1108.86 1622.62,1104.75 1624.82,1100.6 1627.02,1096.4 1629.22,1092.17 1631.42,1087.89 1633.62,1083.57 1635.82,1079.21 1638.02,1074.8 1640.22,1070.35 1642.42,1065.85 1644.62,1061.31 1646.82,1056.72 1649.02,1052.09 1651.21,1047.41 1653.41,1042.68 1655.61,1037.91 1657.81,1033.08 1660.01,1028.21 1662.21,1023.29 1664.41,1267.82 1666.61,1265.31 1668.81,1262.77 1671.01,1260.21 1673.21,1257.62 1675.41,1255.01 1677.6,1252.37 1679.8,1249.71 1682,1247.02 1684.2,1244.3 1686.4,1241.55 1688.6,1238.78 1690.8,1235.97 1693,1233.14 1695.2,1230.28 1697.4,1227.4 1699.6,1224.48 1701.8,1221.53 1703.99,1218.56 1706.19,1215.55 1708.39,1212.52 1710.59,1209.45 1712.79,1206.35 1714.99,1203.23 1717.19,1200.07 1719.39,1196.88 1721.59,1193.65 1723.79,1190.4 1725.99,1187.11 1728.19,1183.79 1730.39,1180.43 1732.58,1177.04 1734.78,1173.62 1736.98,1170.16 1739.18,1166.67 1741.38,1163.14 1743.58,1159.58 1745.78,1155.98 1747.98,1152.34 1750.18,1148.67 1752.38,1144.96 1754.58,1141.22 1756.78,1137.43 1758.97,1133.61 1761.17,1129.75 1763.37,1125.85 1765.57,1121.91 1767.77,1117.94 1769.97,1113.92 1772.17,1109.86 1774.37,1105.76 1776.57,1101.62 1778.77,1097.44 1780.97,1093.21 1783.17,1088.95 1785.36,1084.64 1787.56,1080.28 1789.76,1075.89 1791.96,1071.45 1794.16,1066.96 1796.36,1062.43 1798.56,1057.85 1800.76,1053.23 1802.96,1048.56 1805.16,1043.85 1807.36,1039.08 1809.56,1034.27 1811.76,1029.41 1813.95,1024.5 1816.15,1019.54 1818.35,1014.54 1820.55,1009.48 1822.75,1004.37 1824.95,999.21 1827.15,993.998 1829.35,988.733 1831.55,983.416 1833.75,978.045 1835.95,972.62 1838.15,967.141 1840.34,961.607 1842.54,956.017 1844.74,950.37 1846.94,944.667 1849.14,938.907 1851.34,933.089 1853.54,927.212 1855.74,921.276 1857.94,915.28 1860.14,909.224 1862.34,903.107 1864.54,896.928 1866.73,890.687 1868.93,884.384 1871.13,878.017 1873.33,871.586 1875.53,865.09 1877.73,858.528 1879.93,851.901 1882.13,845.207 1884.33,838.445 1886.53,831.616 1888.73,824.717 1890.93,817.749 1893.13,810.711 1895.32,803.602 1897.52,796.422 1899.72,789.169 1901.92,781.843 1904.12,774.444 1906.32,766.969 1908.52,759.42 1910.72,751.795 1912.92,744.093 1915.12,736.313 1917.32,728.455 1919.52,720.519 1921.71,712.502 1923.91,704.405 1926.11,696.226 1928.31,687.965 1930.51,679.622 1932.71,671.194 1934.91,662.682 1937.11,654.084 1939.31,645.4 1941.51,636.628 1943.71,627.768 1945.91,618.818 1948.1,609.779 1950.3,600.649 1952.5,591.427 1954.7,582.112 1956.9,572.704 1959.1,563.201 1961.3,553.602 1963.5,543.907 1965.7,534.115 1967.9,524.224 1970.1,514.233 1972.3,504.142 1974.5,493.95 1976.69,483.655 1978.89,473.256 1981.09,462.753 1983.29,452.144 1985.49,441.428 1987.69,430.605 1989.89,419.673 1992.09,408.63 1994.29,397.477 1996.49,386.211 1998.69,374.832 2000.89,363.339 2003.08,351.729 2005.28,340.003 2007.48,328.159 2009.68,316.196 2011.88,304.112 2014.08,291.907 2016.28,279.579 2018.48,267.126 2020.68,254.549 2022.88,241.845 2025.08,229.013 2027.28,216.052 2029.47,202.96 2031.67,189.737 2033.87,176.381 2036.07,162.891 2038.27,149.265 2040.47,826.426 2042.67,819.475 2044.87,812.455 2047.07,805.364 2049.27,798.201 2051.47,790.967 2053.67,783.659 2055.87,776.279 2058.06,768.823 2060.26,761.293 2062.46,753.688 2064.66,746.005 2066.86,738.246 2069.06,730.408 2071.26,722.492 2073.46,714.496 2075.66,706.42 2077.86,698.262 2080.06,690.022 2082.26,681.7 2084.45,673.293 2086.65,664.802 2088.85,656.226 2091.05,647.563 2093.25,638.814 2095.45,629.976 2097.65,621.049 2099.85,612.033 2102.05,602.925 2104.25,593.726 2106.45,584.435 2108.65,575.05 2110.84,565.57 2113.04,555.996 2115.24,546.324 2117.44,536.556 2119.64,526.689 2121.84,516.723 2124.04,506.656 2126.24,496.489 2128.44,486.219 2130.64,475.845 2132.84,465.368 2135.04,454.784 2137.24,444.095 2139.43,433.298 2141.63,969.868 2143.83,964.36 2146.03,958.797 2148.23,953.178 2150.43,947.503 2152.63,941.77 2154.83,935.979 2157.03,930.131 2159.23,924.223 2161.43,918.257 2163.63,912.23 2165.82,906.142 2168.02,899.994 2170.22,893.784 2172.42,887.511 2174.62,881.175 2176.82,874.776 2179.02,868.312 2181.22,861.783 2183.42,855.189 2185.62,848.529 2187.82,841.801 2190.02,835.006 2192.22,828.143 2194.41,821.211 2196.61,814.209 2198.81,807.136 2201.01,799.993 2203.21,792.777 2205.41,785.489 2207.61,778.128 2209.81,770.693 2212.01,763.182 2214.21,755.597 2216.41,747.935 2218.61,740.195 2220.8,732.378 2223,724.482 2225.2,716.507 2227.4,708.451 2229.6,700.314 2231.8,692.096 2234,683.794 2236.2,675.409 2238.4,666.939 2240.6,658.384 2242.8,649.743 2245,641.015 2247.19,632.199 2249.39,623.294 2251.59,614.299 2253.79,605.214 2255.99,596.037 2258.19,586.768 2260.39,577.405 2262.59,567.949 2264.79,558.397 2266.99,548.748 2269.19,539.003 2271.39,529.16 2273.59,519.217 2275.78,509.175 2277.98,499.031 2280.18,488.786 2282.38,478.438 2284.58,467.985 2286.78,457.428 2288.98,446.764 2291.18,435.994 2293.38,425.115 2295.58,414.127 2297.78,403.029 2299.98,391.819 2302.17,380.496 2304.37,369.059 2306.57,357.508 2308.77,345.84 2310.97,334.054 2313.17,322.15 2315.37,310.127 2317.57,297.982 2319.77,285.715 2321.97,273.325 2324.17,260.81 2326.37,248.17 2328.56,235.402 2330.76,222.505 2332.96,209.479 2335.16,196.322 2337.36,183.032 2339.56,169.609 2341.76,156.051 2343.96,142.356 2346.16,128.524 2348.36,114.552 2350.56,100.44 2352.76,86.1857 "/>
<path clip-path="url(#clip290)" d="M1970.73 1377.32 L2279.52 1377.32 L2279.52 1273.64 L1970.73 1273.64  Z" fill="#ffffff" fill-rule="evenodd" fill-opacity="1"/>
<polyline clip-path="url(#clip290)" style="stroke:#000000; stroke-linecap:round; stroke-linejoin:round; stroke-width:4; stroke-opacity:1; fill:none" points="1970.73,1377.32 2279.52,1377.32 2279.52,1273.64 1970.73,1273.64 1970.73,1377.32 "/>
<polyline clip-path="url(#clip290)" style="stroke:#009af9; stroke-linecap:round; stroke-linejoin:round; stroke-width:8; stroke-opacity:1; fill:none" points="1995.14,1325.48 2141.6,1325.48 "/>
<path clip-path="url(#clip290)" d="M2166.02 1332.52 L2166.02 1316.83 L2170.27 1316.83 L2170.27 1332.36 Q2170.27 1336.04 2171.71 1337.89 Q2173.14 1339.72 2176.02 1339.72 Q2179.46 1339.72 2181.45 1337.52 Q2183.47 1335.32 2183.47 1331.53 L2183.47 1316.83 L2187.73 1316.83 L2187.73 1342.76 L2183.47 1342.76 L2183.47 1338.77 Q2181.92 1341.13 2179.86 1342.29 Q2177.82 1343.43 2175.11 1343.43 Q2170.64 1343.43 2168.33 1340.65 Q2166.02 1337.87 2166.02 1332.52 M2176.73 1316.2 L2176.73 1316.2 Z" fill="#000000" fill-rule="nonzero" fill-opacity="1" /><path clip-path="url(#clip290)" d="M2196.11 1306.74 L2205.92 1306.74 L2205.92 1310.05 L2200.37 1310.05 L2200.37 1345.7 L2205.92 1345.7 L2205.92 1349.01 L2196.11 1349.01 L2196.11 1306.74 Z" fill="#000000" fill-rule="nonzero" fill-opacity="1" /><path clip-path="url(#clip290)" d="M2216.41 1338.82 L2224.05 1338.82 L2224.05 1312.45 L2215.74 1314.12 L2215.74 1309.86 L2224 1308.2 L2228.68 1308.2 L2228.68 1338.82 L2236.32 1338.82 L2236.32 1342.76 L2216.41 1342.76 L2216.41 1338.82 Z" fill="#000000" fill-rule="nonzero" fill-opacity="1" /><path clip-path="url(#clip290)" d="M2255.11 1306.74 L2255.11 1349.01 L2245.3 1349.01 L2245.3 1345.7 L2250.83 1345.7 L2250.83 1310.05 L2245.3 1310.05 L2245.3 1306.74 L2255.11 1306.74 Z" fill="#000000" fill-rule="nonzero" fill-opacity="1" /></svg>
