<?xml version="1.0" encoding="utf-8"?>
<svg xmlns="http://www.w3.org/2000/svg" xmlns:xlink="http://www.w3.org/1999/xlink" width="600" height="400" viewBox="0 0 2400 1600">
<defs>
  <clipPath id="clip880">
    <rect x="0" y="0" width="2400" height="1600"/>
  </clipPath>
</defs>
<path clip-path="url(#clip880)" d="M0 1600 L2400 1600 L2400 0 L0 0  Z" fill="#ffffff" fill-rule="evenodd" fill-opacity="1"/>
<defs>
  <clipPath id="clip881">
    <rect x="480" y="0" width="1681" height="1600"/>
  </clipPath>
</defs>
<path clip-path="url(#clip880)" d="M140.696 1423.18 L2352.76 1423.18 L2352.76 47.2441 L140.696 47.2441  Z" fill="#ffffff" fill-rule="evenodd" fill-opacity="1"/>
<defs>
  <clipPath id="clip882">
    <rect x="140" y="47" width="2213" height="1377"/>
  </clipPath>
</defs>
<polyline clip-path="url(#clip882)" style="stroke:#000000; stroke-linecap:round; stroke-linejoin:round; stroke-width:2; stroke-opacity:0.1; fill:none" points="578.281,1423.18 578.281,47.2441 "/>
<polyline clip-path="url(#clip882)" style="stroke:#000000; stroke-linecap:round; stroke-linejoin:round; stroke-width:2; stroke-opacity:0.1; fill:none" points="1024.81,1423.18 1024.81,47.2441 "/>
<polyline clip-path="url(#clip882)" style="stroke:#000000; stroke-linecap:round; stroke-linejoin:round; stroke-width:2; stroke-opacity:0.1; fill:none" points="1471.33,1423.18 1471.33,47.2441 "/>
<polyline clip-path="url(#clip882)" style="stroke:#000000; stroke-linecap:round; stroke-linejoin:round; stroke-width:2; stroke-opacity:0.1; fill:none" points="1917.86,1423.18 1917.86,47.2441 "/>
<polyline clip-path="url(#clip882)" style="stroke:#000000; stroke-linecap:round; stroke-linejoin:round; stroke-width:2; stroke-opacity:0.1; fill:none" points="140.696,1388.34 2352.76,1388.34 "/>
<polyline clip-path="url(#clip882)" style="stroke:#000000; stroke-linecap:round; stroke-linejoin:round; stroke-width:2; stroke-opacity:0.1; fill:none" points="140.696,978.352 2352.76,978.352 "/>
<polyline clip-path="url(#clip882)" style="stroke:#000000; stroke-linecap:round; stroke-linejoin:round; stroke-width:2; stroke-opacity:0.1; fill:none" points="140.696,568.361 2352.76,568.361 "/>
<polyline clip-path="url(#clip882)" style="stroke:#000000; stroke-linecap:round; stroke-linejoin:round; stroke-width:2; stroke-opacity:0.1; fill:none" points="140.696,158.37 2352.76,158.37 "/>
<polyline clip-path="url(#clip880)" style="stroke:#000000; stroke-linecap:round; stroke-linejoin:round; stroke-width:4; stroke-opacity:1; fill:none" points="140.696,1423.18 2352.76,1423.18 "/>
<polyline clip-path="url(#clip880)" style="stroke:#000000; stroke-linecap:round; stroke-linejoin:round; stroke-width:4; stroke-opacity:1; fill:none" points="578.281,1423.18 578.281,1404.28 "/>
<polyline clip-path="url(#clip880)" style="stroke:#000000; stroke-linecap:round; stroke-linejoin:round; stroke-width:4; stroke-opacity:1; fill:none" points="1024.81,1423.18 1024.81,1404.28 "/>
<polyline clip-path="url(#clip880)" style="stroke:#000000; stroke-linecap:round; stroke-linejoin:round; stroke-width:4; stroke-opacity:1; fill:none" points="1471.33,1423.18 1471.33,1404.28 "/>
<polyline clip-path="url(#clip880)" style="stroke:#000000; stroke-linecap:round; stroke-linejoin:round; stroke-width:4; stroke-opacity:1; fill:none" points="1917.86,1423.18 1917.86,1404.28 "/>
<path clip-path="url(#clip880)" d="M552.968 1481.64 L560.607 1481.64 L560.607 1455.28 L552.297 1456.95 L552.297 1452.69 L560.561 1451.02 L565.237 1451.02 L565.237 1481.64 L572.876 1481.64 L572.876 1485.58 L552.968 1485.58 L552.968 1481.64 Z" fill="#000000" fill-rule="nonzero" fill-opacity="1" /><path clip-path="url(#clip880)" d="M592.32 1454.1 Q588.709 1454.1 586.88 1457.66 Q585.075 1461.2 585.075 1468.33 Q585.075 1475.44 586.88 1479.01 Q588.709 1482.55 592.32 1482.55 Q595.954 1482.55 597.76 1479.01 Q599.589 1475.44 599.589 1468.33 Q599.589 1461.2 597.76 1457.66 Q595.954 1454.1 592.32 1454.1 M592.32 1450.39 Q598.13 1450.39 601.186 1455 Q604.264 1459.58 604.264 1468.33 Q604.264 1477.06 601.186 1481.67 Q598.13 1486.25 592.32 1486.25 Q586.51 1486.25 583.431 1481.67 Q580.376 1477.06 580.376 1468.33 Q580.376 1459.58 583.431 1455 Q586.51 1450.39 592.32 1450.39 Z" fill="#000000" fill-rule="nonzero" fill-opacity="1" /><path clip-path="url(#clip880)" d="M1003.58 1481.64 L1019.9 1481.64 L1019.9 1485.58 L997.955 1485.58 L997.955 1481.64 Q1000.62 1478.89 1005.2 1474.26 Q1009.81 1469.61 1010.99 1468.27 Q1013.23 1465.74 1014.11 1464.01 Q1015.01 1462.25 1015.01 1460.56 Q1015.01 1457.8 1013.07 1456.07 Q1011.15 1454.33 1008.05 1454.33 Q1005.85 1454.33 1003.39 1455.09 Q1000.96 1455.86 998.186 1457.41 L998.186 1452.69 Q1001.01 1451.55 1003.46 1450.97 Q1005.92 1450.39 1007.95 1450.39 Q1013.33 1450.39 1016.52 1453.08 Q1019.71 1455.77 1019.71 1460.26 Q1019.71 1462.39 1018.9 1464.31 Q1018.12 1466.2 1016.01 1468.8 Q1015.43 1469.47 1012.33 1472.69 Q1009.23 1475.88 1003.58 1481.64 Z" fill="#000000" fill-rule="nonzero" fill-opacity="1" /><path clip-path="url(#clip880)" d="M1039.71 1454.1 Q1036.1 1454.1 1034.27 1457.66 Q1032.47 1461.2 1032.47 1468.33 Q1032.47 1475.44 1034.27 1479.01 Q1036.1 1482.55 1039.71 1482.55 Q1043.35 1482.55 1045.15 1479.01 Q1046.98 1475.44 1046.98 1468.33 Q1046.98 1461.2 1045.15 1457.66 Q1043.35 1454.1 1039.71 1454.1 M1039.71 1450.39 Q1045.52 1450.39 1048.58 1455 Q1051.66 1459.58 1051.66 1468.33 Q1051.66 1477.06 1048.58 1481.67 Q1045.52 1486.25 1039.71 1486.25 Q1033.9 1486.25 1030.82 1481.67 Q1027.77 1477.06 1027.77 1468.33 Q1027.77 1459.58 1030.82 1455 Q1033.9 1450.39 1039.71 1450.39 Z" fill="#000000" fill-rule="nonzero" fill-opacity="1" /><path clip-path="url(#clip880)" d="M1460.17 1466.95 Q1463.53 1467.66 1465.41 1469.93 Q1467.3 1472.2 1467.3 1475.53 Q1467.3 1480.65 1463.79 1483.45 Q1460.27 1486.25 1453.79 1486.25 Q1451.61 1486.25 1449.3 1485.81 Q1447 1485.39 1444.55 1484.54 L1444.55 1480.02 Q1446.49 1481.16 1448.81 1481.74 Q1451.12 1482.32 1453.65 1482.32 Q1458.05 1482.32 1460.34 1480.58 Q1462.65 1478.84 1462.65 1475.53 Q1462.65 1472.48 1460.5 1470.77 Q1458.37 1469.03 1454.55 1469.03 L1450.52 1469.03 L1450.52 1465.19 L1454.74 1465.19 Q1458.18 1465.19 1460.01 1463.82 Q1461.84 1462.43 1461.84 1459.84 Q1461.84 1457.18 1459.94 1455.77 Q1458.07 1454.33 1454.55 1454.33 Q1452.63 1454.33 1450.43 1454.75 Q1448.23 1455.16 1445.59 1456.04 L1445.59 1451.88 Q1448.25 1451.14 1450.57 1450.77 Q1452.91 1450.39 1454.97 1450.39 Q1460.29 1450.39 1463.39 1452.83 Q1466.49 1455.23 1466.49 1459.35 Q1466.49 1462.22 1464.85 1464.21 Q1463.21 1466.18 1460.17 1466.95 Z" fill="#000000" fill-rule="nonzero" fill-opacity="1" /><path clip-path="url(#clip880)" d="M1486.17 1454.1 Q1482.56 1454.1 1480.73 1457.66 Q1478.92 1461.2 1478.92 1468.33 Q1478.92 1475.44 1480.73 1479.01 Q1482.56 1482.55 1486.17 1482.55 Q1489.8 1482.55 1491.61 1479.01 Q1493.44 1475.44 1493.44 1468.33 Q1493.44 1461.2 1491.61 1457.66 Q1489.8 1454.1 1486.17 1454.1 M1486.17 1450.39 Q1491.98 1450.39 1495.04 1455 Q1498.11 1459.58 1498.11 1468.33 Q1498.11 1477.06 1495.04 1481.67 Q1491.98 1486.25 1486.17 1486.25 Q1480.36 1486.25 1477.28 1481.67 Q1474.23 1477.06 1474.23 1468.33 Q1474.23 1459.58 1477.28 1455 Q1480.36 1450.39 1486.17 1450.39 Z" fill="#000000" fill-rule="nonzero" fill-opacity="1" /><path clip-path="url(#clip880)" d="M1906.03 1455.09 L1894.22 1473.54 L1906.03 1473.54 L1906.03 1455.09 M1904.8 1451.02 L1910.68 1451.02 L1910.68 1473.54 L1915.61 1473.54 L1915.61 1477.43 L1910.68 1477.43 L1910.68 1485.58 L1906.03 1485.58 L1906.03 1477.43 L1890.43 1477.43 L1890.43 1472.92 L1904.8 1451.02 Z" fill="#000000" fill-rule="nonzero" fill-opacity="1" /><path clip-path="url(#clip880)" d="M1933.34 1454.1 Q1929.73 1454.1 1927.9 1457.66 Q1926.1 1461.2 1926.1 1468.33 Q1926.1 1475.44 1927.9 1479.01 Q1929.73 1482.55 1933.34 1482.55 Q1936.98 1482.55 1938.78 1479.01 Q1940.61 1475.44 1940.61 1468.33 Q1940.61 1461.2 1938.78 1457.66 Q1936.98 1454.1 1933.34 1454.1 M1933.34 1450.39 Q1939.15 1450.39 1942.21 1455 Q1945.29 1459.58 1945.29 1468.33 Q1945.29 1477.06 1942.21 1481.67 Q1939.15 1486.25 1933.34 1486.25 Q1927.53 1486.25 1924.46 1481.67 Q1921.4 1477.06 1921.4 1468.33 Q1921.4 1459.58 1924.46 1455 Q1927.53 1450.39 1933.34 1450.39 Z" fill="#000000" fill-rule="nonzero" fill-opacity="1" /><path clip-path="url(#clip880)" d="M1245.79 1522.27 L1245.79 1532.4 L1257.85 1532.4 L1257.85 1536.95 L1245.79 1536.95 L1245.79 1556.3 Q1245.79 1560.66 1246.96 1561.9 Q1248.17 1563.14 1251.83 1563.14 L1257.85 1563.14 L1257.85 1568.04 L1251.83 1568.04 Q1245.05 1568.04 1242.48 1565.53 Q1239.9 1562.98 1239.9 1556.3 L1239.9 1536.95 L1235.6 1536.95 L1235.6 1532.4 L1239.9 1532.4 L1239.9 1522.27 L1245.79 1522.27 Z" fill="#000000" fill-rule="nonzero" fill-opacity="1" /><polyline clip-path="url(#clip880)" style="stroke:#000000; stroke-linecap:round; stroke-linejoin:round; stroke-width:4; stroke-opacity:1; fill:none" points="140.696,1423.18 140.696,47.2441 "/>
<polyline clip-path="url(#clip880)" style="stroke:#000000; stroke-linecap:round; stroke-linejoin:round; stroke-width:4; stroke-opacity:1; fill:none" points="140.696,1388.34 159.593,1388.34 "/>
<polyline clip-path="url(#clip880)" style="stroke:#000000; stroke-linecap:round; stroke-linejoin:round; stroke-width:4; stroke-opacity:1; fill:none" points="140.696,978.352 159.593,978.352 "/>
<polyline clip-path="url(#clip880)" style="stroke:#000000; stroke-linecap:round; stroke-linejoin:round; stroke-width:4; stroke-opacity:1; fill:none" points="140.696,568.361 159.593,568.361 "/>
<polyline clip-path="url(#clip880)" style="stroke:#000000; stroke-linecap:round; stroke-linejoin:round; stroke-width:4; stroke-opacity:1; fill:none" points="140.696,158.37 159.593,158.37 "/>
<path clip-path="url(#clip880)" d="M92.7512 1374.14 Q89.1401 1374.14 87.3114 1377.71 Q85.5058 1381.25 85.5058 1388.38 Q85.5058 1395.48 87.3114 1399.05 Q89.1401 1402.59 92.7512 1402.59 Q96.3854 1402.59 98.1909 1399.05 Q100.02 1395.48 100.02 1388.38 Q100.02 1381.25 98.1909 1377.71 Q96.3854 1374.14 92.7512 1374.14 M92.7512 1370.44 Q98.5613 1370.44 101.617 1375.04 Q104.696 1379.63 104.696 1388.38 Q104.696 1397.1 101.617 1401.71 Q98.5613 1406.29 92.7512 1406.29 Q86.941 1406.29 83.8623 1401.71 Q80.8068 1397.1 80.8068 1388.38 Q80.8068 1379.63 83.8623 1375.04 Q86.941 1370.44 92.7512 1370.44 Z" fill="#000000" fill-rule="nonzero" fill-opacity="1" /><path clip-path="url(#clip880)" d="M53.3995 991.697 L61.0384 991.697 L61.0384 965.331 L52.7282 966.998 L52.7282 962.739 L60.9921 961.072 L65.668 961.072 L65.668 991.697 L73.3068 991.697 L73.3068 995.632 L53.3995 995.632 L53.3995 991.697 Z" fill="#000000" fill-rule="nonzero" fill-opacity="1" /><path clip-path="url(#clip880)" d="M92.7512 964.151 Q89.1401 964.151 87.3114 967.715 Q85.5058 971.257 85.5058 978.387 Q85.5058 985.493 87.3114 989.058 Q89.1401 992.6 92.7512 992.6 Q96.3854 992.6 98.1909 989.058 Q100.02 985.493 100.02 978.387 Q100.02 971.257 98.1909 967.715 Q96.3854 964.151 92.7512 964.151 M92.7512 960.447 Q98.5613 960.447 101.617 965.053 Q104.696 969.637 104.696 978.387 Q104.696 987.114 101.617 991.72 Q98.5613 996.303 92.7512 996.303 Q86.941 996.303 83.8623 991.72 Q80.8068 987.114 80.8068 978.387 Q80.8068 969.637 83.8623 965.053 Q86.941 960.447 92.7512 960.447 Z" fill="#000000" fill-rule="nonzero" fill-opacity="1" /><path clip-path="url(#clip880)" d="M56.6171 581.706 L72.9365 581.706 L72.9365 585.641 L50.9921 585.641 L50.9921 581.706 Q53.6541 578.951 58.2375 574.322 Q62.8439 569.669 64.0245 568.327 Q66.2698 565.803 67.1494 564.067 Q68.0522 562.308 68.0522 560.618 Q68.0522 557.864 66.1078 556.128 Q64.1865 554.391 61.0847 554.391 Q58.8856 554.391 56.4319 555.155 Q54.0014 555.919 51.2236 557.47 L51.2236 552.748 Q54.0477 551.614 56.5014 551.035 Q58.955 550.456 60.9921 550.456 Q66.3624 550.456 69.5568 553.141 Q72.7513 555.827 72.7513 560.317 Q72.7513 562.447 71.9411 564.368 Q71.1541 566.266 69.0476 568.859 Q68.4689 569.53 65.367 572.748 Q62.2652 575.942 56.6171 581.706 Z" fill="#000000" fill-rule="nonzero" fill-opacity="1" /><path clip-path="url(#clip880)" d="M92.7512 554.16 Q89.1401 554.16 87.3114 557.725 Q85.5058 561.266 85.5058 568.396 Q85.5058 575.502 87.3114 579.067 Q89.1401 582.609 92.7512 582.609 Q96.3854 582.609 98.1909 579.067 Q100.02 575.502 100.02 568.396 Q100.02 561.266 98.1909 557.725 Q96.3854 554.16 92.7512 554.16 M92.7512 550.456 Q98.5613 550.456 101.617 555.063 Q104.696 559.646 104.696 568.396 Q104.696 577.123 101.617 581.729 Q98.5613 586.313 92.7512 586.313 Q86.941 586.313 83.8623 581.729 Q80.8068 577.123 80.8068 568.396 Q80.8068 559.646 83.8623 555.063 Q86.941 550.456 92.7512 550.456 Z" fill="#000000" fill-rule="nonzero" fill-opacity="1" /><path clip-path="url(#clip880)" d="M66.7559 157.016 Q70.1124 157.734 71.9874 160.002 Q73.8855 162.271 73.8855 165.604 Q73.8855 170.72 70.367 173.521 Q66.8485 176.322 60.3671 176.322 Q58.1912 176.322 55.8764 175.882 Q53.5847 175.465 51.131 174.609 L51.131 170.095 Q53.0754 171.229 55.3903 171.808 Q57.7051 172.387 60.2282 172.387 Q64.6263 172.387 66.918 170.65 Q69.2328 168.914 69.2328 165.604 Q69.2328 162.549 67.08 160.836 Q64.9504 159.1 61.131 159.1 L57.1032 159.1 L57.1032 155.257 L61.3161 155.257 Q64.7652 155.257 66.5939 153.891 Q68.4226 152.502 68.4226 149.91 Q68.4226 147.248 66.5245 145.836 Q64.6495 144.401 61.131 144.401 Q59.2097 144.401 57.0106 144.817 Q54.8115 145.234 52.1727 146.114 L52.1727 141.947 Q54.8347 141.206 57.1495 140.836 Q59.4875 140.465 61.5476 140.465 Q66.8717 140.465 69.9735 142.896 Q73.0753 145.303 73.0753 149.424 Q73.0753 152.294 71.4318 154.285 Q69.7883 156.252 66.7559 157.016 Z" fill="#000000" fill-rule="nonzero" fill-opacity="1" /><path clip-path="url(#clip880)" d="M92.7512 144.169 Q89.1401 144.169 87.3114 147.734 Q85.5058 151.276 85.5058 158.405 Q85.5058 165.512 87.3114 169.076 Q89.1401 172.618 92.7512 172.618 Q96.3854 172.618 98.1909 169.076 Q100.02 165.512 100.02 158.405 Q100.02 151.276 98.1909 147.734 Q96.3854 144.169 92.7512 144.169 M92.7512 140.465 Q98.5613 140.465 101.617 145.072 Q104.696 149.655 104.696 158.405 Q104.696 167.132 101.617 171.738 Q98.5613 176.322 92.7512 176.322 Q86.941 176.322 83.8623 171.738 Q80.8068 167.132 80.8068 158.405 Q80.8068 149.655 83.8623 145.072 Q86.941 140.465 92.7512 140.465 Z" fill="#000000" fill-rule="nonzero" fill-opacity="1" /><polyline clip-path="url(#clip882)" style="stroke:#009af9; stroke-linecap:round; stroke-linejoin:round; stroke-width:4; stroke-opacity:1; fill:none" points="140.696,1384.24 140.696,1384.24 141.259,1383.93 144.188,1382.34 146.241,1381.06 147.201,1380.39 154.526,1375.55 179.504,1360.14 181.215,1359.21 181.688,1358.95 186.198,1356.57 190.05,1354.57 191.612,1353.64 195.556,1351 203.19,1346.27 213.716,1340.3 218.718,1337.21 218.966,1337.04 219.343,1336.75 220.789,1335.51 223.003,1333.69 241.262,1320.99 241.32,1320.94 254.856,1312.25 264.351,1306.86 278.048,1299.68 293.894,1291.87 300.09,1288.9 300.815,1288.56 305.714,1286.24 331.355,1274.26 332.401,1273.77 332.453,1273.75 343.056,1268.84 343.679,1268.5 369.881,1255.06 384.814,1246.89 388.639,1244.6 402.176,1237.07 406.814,1234.64 416.257,1229.16 419.519,1227.09 422.963,1224.99 431.781,1219.92 438.186,1216.45 448.27,1210.5 460.968,1203.67 477.853,1195.22 480.247,1193.85 488.506,1189.32 503.019,1181.86 516.698,1175.19 519.432,1173.88 526.027,1170.75 533.831,1167.07 537.938,1164.81 552.318,1157.31 555.355,1155.53 563.633,1150.9 567.78,1148.69 579.485,1142.7 582.913,1140.99 587.203,1138.53 604.005,1128.5 608.514,1126.05 624.221,1116.96 638.073,1109.74 638.185,1109.68 643.62,1106.08 645.195,1105.09 662.863,1093.83 664.895,1092.67 691.088,1079 695.163,1077 698.124,1075.31 699.086,1074.77 700.648,1073.77 702.056,1072.88 706.453,1070.19 716.427,1063.76 719.544,1061.63 729.005,1055.69 730.367,1054.88 732.52,1053.63 747.45,1045.51 750.775,1043.8 774.491,1032.17 864.592,988.399 884.991,979.008 894.433,974.668 900.345,971.951 901.675,971.34 910.828,966.445 911.981,965.847 957.378,943.879 964.527,939.989 975.371,934.39 975.48,934.335 976.523,933.811 980.175,931.993 981.575,931.177 991.804,924.743 994.578,922.881 995.926,921.881 1001.14,917.787 1015.63,907.07 1020.88,903.292 1026.74,898.948 1034.33,893.87 1039.65,890.59 1041.78,889.145 1042.07,888.951 1043.62,887.931 1045,887.039 1059.93,877.204 1076.81,866.709 1079.62,864.891 1083.33,862.585 1116.18,844.924 1124.36,840.931 1129.9,838.274 1147.81,829.82 1150.58,828.527 1157.19,824.925 1158.93,823.848 1162.5,821.702 1166.95,819.135 1171.49,816.235 1171.92,815.926 1174.59,814.073 1174.75,813.949 1180.94,808.937 1181.7,808.288 1181.76,808.232 1189.81,800.716 1194.96,796.109 1233.15,771.517 1243.6,765.37 1247.09,763.438 1248.78,762.521 1255.72,758.31 1257.52,757.263 1273.34,748.682 1276.57,747.026 1287.52,740.779 1290,739.436 1297.64,735.426 1315.01,726.791 1316.62,725.869 1316.89,725.717 1317.92,725.135 1327.34,720.016 1337.6,714.754 1338.1,714.458 1340.97,712.784 1343.72,711.222 1345.03,710.379 1351.09,706.626 1356.46,703.492 1359.94,701.543 1369.32,696.518 1379.89,691.148 1390.92,684.948 1391.75,684.504 1403.94,677.324 1436.22,660.839 1460.73,647.88 1467.63,643.941 1468.32,643.497 1473.39,640.347 1484.84,632.967 1499.02,624.975 1509.25,618.906 1514.6,615.513 1515.95,614.571 1516.3,614.299 1520.53,611.125 1523.97,608.703 1525.54,607.634 1535,600.955 1538.04,598.999 1550.58,591.582 1558.18,587.454 1564.35,583.753 1572.02,578.833 1572.55,578.509 1576.05,576.424 1585.46,571.128 1603.21,561.958 1614.14,556.614 1621.7,552.404 1650.9,537.668 1657.27,534.617 1658.86,533.725 1661.38,532.327 1676.64,523.305 1683.15,519.798 1683.61,519.559 1694.11,514.175 1697.88,512.295 1703.02,509.772 1704.37,509.114 1718.93,502.147 1750.15,486.04 1764.61,479.122 1768.58,476.914 1772.97,474.184 1783.33,467.442 1790.26,462.815 1802.68,454.545 1803.39,454.043 1803.86,453.671 1813.96,445.665 1814.37,445.365 1815.08,444.797 1825.43,436.466 1836.11,428.473 1849.37,420.134 1866.37,409.755 1866.99,409.412 1895.65,393.187 1900.43,390.366 1902.47,389.204 1918.23,380.765 1921.99,378.858 1924,377.853 1927.93,375.569 1934.79,371.765 1941.88,367.455 1954.42,359.606 1982.01,343.517 1984.54,342.206 1988.57,340.148 2001.33,333.833 2002.67,333.182 2005.33,331.901 2005.58,331.778 2006.07,331.542 2025.19,321.315 2025.79,321.01 2028.34,319.503 2029.88,318.478 2032.38,316.634 2032.99,316.201 2034.43,315.057 2039.33,310.971 2051.37,302.326 2051.98,301.932 2053.04,301.245 2055.74,299.311 2069.79,289.385 2074.58,286.421 2076.25,285.42 2077.69,284.575 2101.47,271.831 2113.45,265.93 2117.31,264.069 2120.69,262.167 2122.48,261.178 2133.09,255.549 2136.04,254.041 2140.81,251.244 2149.46,246.458 2152.72,244.731 2158.29,241.392 2167.05,235.809 2189.95,223.215 2201.85,217.269 2208.63,213.443 2227.14,202.65 2237.34,197.319 2241.33,195.302 2246.01,192.977 2271.63,180.695 2277.7,177.359 2280.85,175.415 2284.39,173.006 2287.88,170.449 2293.4,166.222 2295.13,164.984 2296.2,164.228 2305.35,158.243 2317.7,151.077 2322.46,148.108 2323.03,147.713 2323.05,147.699 2324.42,146.634 2327.08,144.65 2329.9,142.636 2335.58,138.369 2347.6,130.469 2349.87,128.904 2351.92,127.538 2352.76,126.913 "/>
<polyline clip-path="url(#clip882)" style="stroke:#e26f46; stroke-linecap:round; stroke-linejoin:round; stroke-width:4; stroke-opacity:1; fill:none" points="140.696,1384.24 140.696,1384.24 141.259,1383.98 144.188,1382.38 146.241,1381.1 147.201,1380.51 154.526,1375.64 179.504,1361.55 181.215,1360.67 181.688,1360.38 186.198,1357.36 190.05,1354.91 191.612,1353.95 195.556,1351.6 203.19,1346.69 213.716,1339.8 218.718,1336.81 218.966,1336.67 219.343,1336.41 220.789,1335.33 223.003,1333.72 241.262,1322.14 241.32,1322.11 254.856,1313.82 264.351,1307.89 278.048,1300.24 293.894,1291.1 300.09,1287.82 300.815,1287.38 305.714,1284.08 331.355,1269.37 332.401,1268.83 332.453,1268.8 343.056,1263.44 343.679,1263.14 369.881,1249.15 384.814,1241.87 388.639,1239.72 402.176,1232.54 406.814,1230.2 416.257,1225.54 419.519,1223.68 422.963,1221.77 431.781,1216.41 438.186,1212.8 448.27,1207.43 460.968,1200.15 477.853,1191.39 480.247,1190.2 488.506,1186.16 503.019,1179.24 516.698,1172.83 519.432,1171.55 526.027,1168.49 533.831,1164.27 537.938,1162.13 552.318,1154.93 555.355,1153.19 563.633,1148.66 567.78,1146.13 579.485,1139.51 582.913,1137.68 587.203,1135.08 604.005,1125.79 608.514,1123.09 624.221,1114.45 638.073,1106.5 638.185,1106.44 643.62,1103.55 645.195,1102.59 662.863,1092.69 664.895,1091.63 691.088,1078.68 695.163,1076.74 698.124,1075.33 699.086,1074.88 700.648,1074.14 702.056,1073.48 706.453,1071.42 716.427,1066.76 719.544,1065.31 729.005,1060.93 730.367,1060.3 732.52,1059.3 747.45,1052.42 750.775,1050.89 774.491,1039.98 864.592,996.592 884.991,987.206 894.433,982.159 900.345,979.13 901.675,978.459 910.828,973.928 911.981,973.366 957.378,951.989 964.527,948.124 975.371,942.55 975.48,942.485 976.523,941.777 980.175,939.375 981.575,938.484 991.804,932.379 994.578,930.822 995.926,930.077 1001.14,927.264 1015.63,919.852 1020.88,917.263 1026.74,914.424 1034.33,910.203 1039.65,907.373 1041.78,906.265 1042.07,906.115 1043.62,905.319 1045,904.613 1059.93,897.205 1076.81,889.149 1079.62,887.829 1083.33,886.09 1116.18,869.272 1124.36,865.356 1129.9,862.738 1147.81,854.359 1150.58,852.833 1157.19,849.306 1158.93,848.4 1162.5,846.564 1166.95,844.32 1171.49,842.067 1171.92,841.852 1174.59,840.543 1174.75,840.465 1180.94,837.469 1181.7,837.101 1181.76,837.072 1189.81,833.235 1194.96,830.8 1233.15,813.055 1243.6,808.239 1247.09,806.63 1248.78,805.852 1255.72,802.661 1257.52,801.832 1273.34,794.56 1276.57,792.8 1287.52,787.086 1290,785.616 1297.64,781.292 1315.01,772.243 1316.62,771.439 1316.89,771.281 1317.92,770.586 1327.34,763.934 1337.6,756.842 1338.1,756.522 1340.97,754.472 1343.72,752.592 1345.03,751.728 1351.09,747.404 1356.46,743.441 1359.94,740.757 1369.32,734.234 1379.89,727.01 1390.92,720.415 1391.75,719.949 1403.94,713.381 1436.22,697.54 1460.73,686.079 1467.63,682.884 1468.32,682.565 1473.39,680.224 1484.84,674.94 1499.02,668.417 1509.25,662.958 1514.6,660.224 1515.95,659.425 1516.3,659.189 1520.53,656.405 1523.97,654.25 1525.54,653.15 1535,647.035 1538.04,645.216 1550.58,638.2 1558.18,634.225 1564.35,630.615 1572.02,625.779 1572.55,625.459 1576.05,623.403 1585.46,618.166 1603.21,609.057 1614.14,602.938 1621.7,598.376 1650.9,581.508 1657.27,577.751 1658.86,576.853 1661.38,575.228 1676.64,566.28 1683.15,562.791 1683.61,562.553 1694.11,556.421 1697.88,554.348 1703.02,551.186 1704.37,550.383 1718.93,542.305 1750.15,526.832 1764.61,519.036 1768.58,516.67 1772.97,514.162 1783.33,508.56 1790.26,504.996 1802.68,498.846 1803.39,498.498 1803.86,498.268 1813.96,493.427 1814.37,493.192 1815.08,492.73 1825.43,486.39 1836.11,480.46 1849.37,472.708 1866.37,463.809 1866.99,463.501 1895.65,449.669 1900.43,447.025 1902.47,445.928 1918.23,437.831 1921.99,435.975 1924,434.994 1927.93,433.084 1934.79,429.792 1941.88,425.868 1954.42,419.346 1982.01,405.959 1984.54,404.546 1988.57,402.35 2001.33,394.837 2002.67,393.975 2005.33,392.084 2005.58,391.883 2006.07,391.454 2025.19,377.423 2025.79,376.99 2028.34,375.193 2029.88,374.145 2032.38,372.485 2032.99,372.093 2034.43,371.043 2039.33,367.64 2051.37,360.155 2051.98,359.803 2053.04,359.095 2055.74,357.343 2069.79,349.036 2074.58,346.429 2076.25,345.536 2077.69,344.777 2101.47,332.883 2113.45,327.168 2117.31,325.348 2120.69,323.764 2122.48,322.926 2133.09,317.979 2136.04,316.355 2140.81,313.796 2149.46,309.331 2152.72,307.695 2158.29,304.938 2167.05,300.687 2189.95,289.87 2201.85,284.335 2208.63,281.198 2227.14,271.501 2237.34,266.481 2241.33,264.552 2246.01,261.924 2271.63,248.756 2277.7,245.811 2280.85,244.031 2284.39,242.081 2287.88,239.91 2293.4,236.635 2295.13,235.648 2296.2,235.04 2305.35,229.37 2317.7,222.469 2322.46,219.962 2323.03,219.667 2323.05,219.656 2324.42,218.824 2327.08,217.02 2329.9,215.176 2335.58,211.652 2347.6,203.966 2349.87,202.63 2351.92,201.45 2352.76,200.971 "/>
<polyline clip-path="url(#clip882)" style="stroke:#3da44d; stroke-linecap:round; stroke-linejoin:round; stroke-width:4; stroke-opacity:1; fill:none" points="140.696,1384.24 140.696,1384.24 141.259,1383.98 144.188,1382.38 146.241,1381.1 147.201,1380.51 154.526,1375.64 179.504,1361.55 181.215,1360.51 181.688,1360.19 186.198,1356.83 190.05,1354.14 191.612,1353.1 195.556,1350.55 203.19,1345.35 213.716,1338.19 218.718,1335.11 218.966,1334.97 219.343,1334.71 220.789,1333.6 223.003,1331.96 241.262,1320.22 241.32,1320.19 254.856,1311.84 264.351,1305.88 278.048,1298.21 293.894,1289.07 300.09,1285.78 300.815,1285.34 305.714,1282.04 331.355,1265.92 332.401,1265.35 332.453,1265.32 343.056,1259.73 343.679,1259.41 369.881,1245.16 384.814,1237.83 388.639,1235.67 402.176,1228.47 406.814,1226.12 416.257,1221.46 419.519,1219.6 422.963,1217.68 431.781,1212.32 438.186,1208.7 448.27,1203.33 460.968,1196.05 477.853,1187.29 480.247,1186.1 488.506,1182.06 503.019,1174.16 516.698,1167.26 519.432,1165.92 526.027,1162.72 533.831,1158.39 537.938,1155.86 552.318,1146.77 555.355,1144.77 563.633,1139.67 567.78,1136.92 579.485,1129.88 582.913,1127.96 587.203,1125.26 604.005,1115.75 608.514,1113.01 624.221,1104.29 638.073,1096.3 638.185,1096.24 643.62,1093.33 645.195,1092.37 662.863,1081.34 664.895,1080.19 691.088,1065.23 695.163,1063.14 698.124,1061.64 699.086,1061.16 700.648,1060.38 702.056,1059.68 706.453,1057.52 716.427,1052.7 719.544,1051.21 729.005,1046.74 730.367,1046.1 732.52,1045.1 747.45,1038.14 750.775,1036.6 774.491,1025.65 864.592,982.243 884.991,971.628 894.433,966.297 900.345,963.144 901.675,962.449 910.828,957.097 911.981,956.454 957.378,933.741 964.527,929.82 975.371,923.401 975.48,923.33 976.523,922.56 980.175,919.655 981.575,918.592 991.804,910.756 994.578,908.612 995.926,907.608 1001.14,903.497 1015.63,892.751 1020.88,889.397 1026.74,885.42 1034.33,880.106 1039.65,876.267 1041.78,874.633 1042.07,874.415 1043.62,873.27 1045,872.274 1059.93,862.642 1076.81,853.346 1079.62,851.654 1083.33,849.178 1116.18,829.211 1124.36,825.007 1129.9,822.246 1147.81,813.587 1150.58,812.035 1157.19,808.456 1158.93,807.538 1162.5,805.682 1166.95,803.417 1171.49,801.146 1171.92,800.891 1174.59,799.346 1174.75,799.254 1180.94,795.318 1181.7,794.851 1181.76,794.809 1189.81,789.493 1194.96,786.355 1233.15,766.394 1243.6,760.629 1247.09,758.79 1248.78,757.913 1255.72,754.385 1257.52,753.325 1273.34,744.662 1276.57,742.719 1287.52,736.552 1290,735.007 1297.64,730.498 1315.01,721.202 1316.62,720.384 1316.89,720.224 1317.92,719.52 1327.34,712.805 1337.6,705.668 1338.1,705.346 1340.97,703.288 1343.72,701.401 1345.03,700.533 1351.09,696.196 1356.46,692.225 1359.94,689.536 1369.32,683.003 1379.89,675.772 1390.92,668.373 1391.75,667.862 1403.94,660.783 1436.22,642.839 1460.73,630.946 1467.63,627.149 1468.32,626.717 1473.39,623.645 1484.84,617.209 1499.02,609.878 1509.25,604.084 1514.6,601.228 1515.95,600.402 1516.3,600.159 1520.53,597.303 1523.97,594.806 1525.54,593.566 1535,586.081 1538.04,583.932 1550.58,575.943 1558.18,571.003 1564.35,566.819 1572.02,561.458 1572.55,561.109 1576.05,558.872 1585.46,553.268 1603.21,542.65 1614.14,536.051 1621.7,531.27 1650.9,514.005 1657.27,510.212 1658.86,509.307 1661.38,507.671 1676.64,497.661 1683.15,493.381 1683.61,493.096 1694.11,486.104 1697.88,483.489 1703.02,479.723 1704.37,478.783 1718.93,468.67 1750.15,449.986 1764.61,441.688 1768.58,439.232 1772.97,436.276 1783.33,429.909 1790.26,425.451 1802.68,417.379 1803.39,416.95 1803.86,416.625 1813.96,410.163 1814.37,409.875 1815.08,409.327 1825.43,401.226 1836.11,394.161 1849.37,385.581 1866.37,376.137 1866.99,375.761 1895.65,358.669 1900.43,355.784 1902.47,354.599 1918.23,346.036 1921.99,344.11 1924,343.096 1927.93,340.798 1934.79,336.973 1941.88,332.647 1954.42,325.661 1982.01,311.839 1984.54,310.407 1988.57,308.185 2001.33,300.613 2002.67,299.747 2005.33,297.848 2005.58,297.646 2006.07,297.216 2025.19,283.15 2025.79,282.716 2028.34,280.695 2029.88,279.388 2032.38,277.342 2032.99,276.862 2034.43,275.614 2039.33,271.222 2051.37,262.056 2051.98,261.642 2053.04,260.827 2055.74,258.826 2069.79,249.617 2074.58,246.811 2076.25,245.858 2077.69,245.051 2101.47,232.684 2113.45,226.865 2117.31,225.022 2120.69,223.134 2122.48,222.151 2133.09,216.552 2136.04,214.796 2140.81,211.66 2149.46,206.42 2152.72,204.285 2158.29,200.824 2167.05,195.101 2189.95,182.319 2201.85,176.331 2208.63,172.489 2227.14,161.67 2237.34,156.332 2241.33,154.313 2246.01,151.598 2271.63,138.176 2277.7,135.202 2280.85,133.41 2284.39,131.148 2287.88,128.715 2293.4,125.099 2295.13,124.023 2296.2,123.361 2305.35,117.331 2317.7,110.129 2322.46,107.15 2323.03,106.805 2323.05,106.793 2324.42,105.845 2327.08,103.837 2329.9,101.801 2335.58,97.9574 2347.6,89.8122 2349.87,88.2147 2351.92,86.8218 2352.76,86.1857 "/>
<polyline clip-path="url(#clip882)" style="stroke:#c271d2; stroke-linecap:round; stroke-linejoin:round; stroke-width:4; stroke-opacity:1; fill:none" points="140.696,1384.24 140.696,1384.24 141.259,1383.98 144.188,1382.63 146.241,1381.51 147.201,1380.99 154.526,1377.13 179.504,1364.79 181.215,1363.83 181.688,1363.56 186.198,1361.08 190.05,1358.7 191.612,1357.76 195.556,1355.45 203.19,1351.21 213.716,1345.7 218.718,1343.17 218.966,1343.05 219.343,1342.83 220.789,1341.85 223.003,1340.4 241.262,1329.67 241.32,1329.64 254.856,1322.59 264.351,1317.88 278.048,1310.35 293.894,1302.33 300.09,1299.31 300.815,1298.96 305.714,1296.61 331.355,1283.14 332.401,1282.53 332.453,1282.5 343.056,1275.84 343.679,1275.47 369.881,1261.46 384.814,1254.17 388.639,1252.02 402.176,1244.85 406.814,1242.5 416.257,1237.84 419.519,1235.98 422.963,1234.07 431.781,1229.38 438.186,1226.11 448.27,1221.12 460.968,1215.01 477.853,1205.98 480.247,1204.77 488.506,1200.66 503.019,1192.69 516.698,1185.75 519.432,1184.4 526.027,1180.68 533.831,1176.49 537.938,1174.36 552.318,1166.22 555.355,1164.35 563.633,1159.53 567.78,1157.25 579.485,1150.27 582.913,1148.37 587.203,1145.69 604.005,1136.21 608.514,1133.85 624.221,1125.99 638.073,1119.34 638.185,1119.29 643.62,1116.72 645.195,1115.98 662.863,1107.73 664.895,1106.79 691.088,1093.28 695.163,1090.95 698.124,1089.31 699.086,1088.7 700.648,1087.72 702.056,1086.86 706.453,1083.87 716.427,1077.68 719.544,1075.88 729.005,1070.68 730.367,1069.83 732.52,1068.53 747.45,1060.14 750.775,1058.11 774.491,1045.16 864.592,1000.71 884.991,990.085 894.433,985.459 900.345,982.616 901.675,981.862 910.828,976.876 911.981,976.166 957.378,952.356 964.527,948.389 975.371,941.925 975.48,941.863 976.523,941.276 980.175,938.95 981.575,938.085 991.804,932.126 994.578,930.599 995.926,929.867 1001.14,927.098 1015.63,919.765 1020.88,917.194 1026.74,914.371 1034.33,910.756 1039.65,907.808 1041.78,906.661 1042.07,906.506 1043.62,905.683 1045,904.833 1059.93,896.318 1076.81,887.645 1079.62,886.26 1083.33,884.134 1116.18,867.244 1124.36,862.692 1129.9,859.758 1147.81,849.63 1150.58,848.178 1157.19,844.793 1158.93,843.917 1162.5,842.138 1166.95,839.953 1171.49,837.749 1171.92,837.538 1174.59,836.253 1174.75,836.176 1180.94,833.226 1181.7,832.863 1181.76,832.835 1189.81,829.039 1194.96,826.623 1233.15,808.941 1243.6,804.13 1247.09,802.523 1248.78,801.745 1255.72,798.556 1257.52,797.568 1273.34,789.339 1276.57,787.73 1287.52,782.391 1290,781.199 1297.64,777.562 1315.01,768.312 1316.62,767.497 1316.89,767.361 1317.92,766.843 1327.34,762.186 1337.6,757.248 1338.1,757.009 1340.97,755.643 1343.72,754.341 1345.03,753.726 1351.09,750.877 1356.46,748.363 1359.94,746.743 1369.32,742.386 1379.89,737.499 1390.92,732.409 1391.75,732.029 1403.94,726.416 1436.22,710.013 1460.73,698.437 1467.63,695.226 1468.32,694.906 1473.39,692.14 1484.84,686.187 1499.02,678.232 1509.25,672.178 1514.6,669.227 1515.95,668.381 1516.3,668.133 1520.53,664.867 1523.97,662.089 1525.54,660.874 1535,654.215 1538.04,652.265 1550.58,644.862 1558.18,640.147 1564.35,636.098 1572.02,630.859 1572.55,630.517 1576.05,628.025 1585.46,621.903 1603.21,610.744 1614.14,604.766 1621.7,600.268 1650.9,585.01 1657.27,581.911 1658.86,581.149 1661.38,579.941 1676.64,572.719 1683.15,569.158 1683.61,568.874 1694.11,562.677 1697.88,560.269 1703.02,557.154 1704.37,556.362 1718.93,547.384 1750.15,531.173 1764.61,524.239 1768.58,522.028 1772.97,519.661 1783.33,514.301 1790.26,510.845 1802.68,504.823 1803.39,504.481 1803.86,504.255 1813.96,499.473 1814.37,499.277 1815.08,498.881 1825.43,493.301 1836.11,487.861 1849.37,481.385 1866.37,473.324 1866.99,472.981 1895.65,458.223 1900.43,455.511 1902.47,454.388 1918.23,445.122 1921.99,443.089 1924,442.025 1927.93,439.972 1934.79,435.943 1941.88,431.461 1954.42,424.297 1982.01,410.306 1984.54,409.087 1988.57,407.156 2001.33,401.12 2002.67,400.49 2005.33,399.247 2005.58,399.128 2006.07,398.899 2025.19,390.018 2025.79,389.74 2028.34,388.56 2029.88,387.85 2032.38,386.693 2032.99,386.414 2034.43,385.622 2039.33,382.982 2051.37,376.792 2051.98,376.489 2053.04,375.958 2055.74,374.621 2069.79,367.818 2074.58,365.147 2076.25,364.086 2077.69,363.193 2101.47,349.978 2113.45,343.122 2117.31,341.047 2120.69,339.275 2122.48,338.347 2133.09,332.994 2136.04,331.542 2140.81,329.216 2149.46,324.407 2152.72,322.395 2158.29,319.108 2167.05,314.249 2189.95,302.622 2201.85,296.9 2208.63,293.694 2227.14,283.886 2237.34,278.083 2241.33,275.597 2246.01,272.819 2271.63,257.811 2277.7,254.662 2280.85,252.796 2284.39,250.763 2287.88,248.523 2293.4,245.157 2295.13,244.146 2296.2,243.524 2305.35,238.447 2317.7,232.044 2322.46,229.667 2323.03,229.386 2323.05,229.375 2324.42,228.575 2327.08,227.057 2329.9,225.238 2335.58,221.756 2347.6,214.984 2349.87,213.771 2351.92,212.513 2352.76,212.005 "/>
<polyline clip-path="url(#clip882)" style="stroke:#ac8d18; stroke-linecap:round; stroke-linejoin:round; stroke-width:4; stroke-opacity:1; fill:none" points="140.696,1384.24 140.696,1384.24 141.259,1383.93 144.188,1382.34 146.241,1381.24 147.201,1380.65 154.526,1376.31 179.504,1363.14 181.215,1362.3 181.688,1362.07 186.198,1359.86 190.05,1357.99 191.612,1357.1 195.556,1354.9 203.19,1350.82 213.716,1345.45 218.718,1342.98 218.966,1342.86 219.343,1342.67 220.789,1341.97 223.003,1340.69 241.262,1330.95 241.32,1330.92 254.856,1324.22 264.351,1319.65 278.048,1313.19 293.894,1305.81 300.09,1302.94 300.815,1302.6 305.714,1300.34 331.355,1288.53 332.401,1288.05 332.453,1288.02 343.056,1282.37 343.679,1282.05 369.881,1269.16 384.814,1261.11 388.639,1259.16 402.176,1251.54 406.814,1249.09 416.257,1243.57 419.519,1241.77 422.963,1239.91 431.781,1235.32 438.186,1231.59 448.27,1225.35 460.968,1218.3 477.853,1209.7 480.247,1208.32 488.506,1203.12 503.019,1194.95 516.698,1187.91 519.432,1186.55 526.027,1183.32 533.831,1179.57 537.938,1177.27 552.318,1169.69 555.355,1168.16 563.633,1164.07 567.78,1162.06 579.485,1156.46 582.913,1154.55 587.203,1152.23 604.005,1143.63 608.514,1141.41 624.221,1132.84 638.073,1125.87 638.185,1125.8 643.62,1122.71 645.195,1121.84 662.863,1111.51 664.895,1110.24 691.088,1095.76 695.163,1093.7 698.124,1092.23 699.086,1091.76 700.648,1090.85 702.056,1089.92 706.453,1087.11 716.427,1080.5 719.544,1078.33 729.005,1071.57 730.367,1070.68 732.52,1069.1 747.45,1059.44 750.775,1057.5 774.491,1044.95 864.592,1002.72 884.991,993.347 894.433,989.01 900.345,985.818 901.675,985.116 910.828,979.725 911.981,979.078 957.378,956.3 964.527,952.938 975.371,947.879 975.48,947.828 976.523,947.343 980.175,945.648 981.575,944.999 991.804,939.513 994.578,937.841 995.926,936.926 1001.14,933.113 1015.63,922.909 1020.88,919.678 1026.74,915.81 1034.33,911.19 1039.65,908.15 1041.78,906.786 1042.07,906.602 1043.62,905.499 1045,904.537 1059.93,895.166 1076.81,886.017 1079.62,884.34 1083.33,882.194 1116.18,865.219 1124.36,861.289 1129.9,858.663 1147.81,850.27 1150.58,848.983 1157.19,845.917 1158.93,845.111 1162.5,843.155 1166.95,840.416 1171.49,837.75 1171.92,837.461 1174.59,835.491 1174.75,835.361 1180.94,830.128 1181.7,829.524 1181.76,829.472 1189.81,822.352 1194.96,817.934 1233.15,793.935 1243.6,787.837 1247.09,785.62 1248.78,784.431 1255.72,779.296 1257.52,778.053 1273.34,767.243 1276.57,765.296 1287.52,758.324 1290,756.861 1297.64,751.959 1315.01,742.144 1316.62,741.295 1316.89,741.154 1317.92,740.616 1327.34,735.814 1337.6,730.773 1338.1,730.531 1340.97,729.145 1343.72,727.825 1345.03,727.202 1351.09,724.323 1356.46,721.789 1359.94,720.158 1369.32,715.779 1379.89,710.876 1390.92,704.977 1391.75,704.476 1403.94,697.518 1436.22,681.267 1460.73,669.722 1467.63,665.971 1468.32,665.542 1473.39,662.495 1484.84,655.276 1499.02,647.397 1509.25,642.129 1514.6,639.465 1515.95,638.802 1516.3,638.631 1520.53,636.565 1523.97,634.901 1525.54,634.142 1535,628.928 1538.04,627.326 1550.58,620.95 1558.18,617.22 1564.35,614.251 1572.02,610.597 1572.55,610.346 1576.05,608.697 1585.46,603.583 1603.21,594.601 1614.14,589.318 1621.7,585.724 1650.9,572.104 1657.27,569.156 1658.86,568.285 1661.38,566.918 1676.64,558.024 1683.15,554.55 1683.61,554.313 1694.11,548.965 1697.88,547.095 1703.02,544.582 1704.37,543.806 1718.93,535.933 1750.15,519.083 1764.61,512.049 1768.58,510.155 1772.97,507.711 1783.33,502.221 1790.26,498.16 1802.68,490.553 1803.39,490.08 1803.86,489.725 1813.96,482.772 1814.37,482.506 1815.08,482.058 1825.43,475.114 1836.11,468.795 1849.37,461.677 1866.37,452.101 1866.99,451.778 1895.65,436.047 1900.43,433.658 1902.47,432.654 1918.23,425.05 1921.99,422.952 1924,421.68 1927.93,418.94 1934.79,414.509 1941.88,410.282 1954.42,402.529 1982.01,387.984 1984.54,386.74 1988.57,384.438 2001.33,377.583 2002.67,376.89 2005.33,375.536 2005.58,375.406 2006.07,375.158 2025.19,364.604 2025.79,364.294 2028.34,362.762 2029.88,361.722 2032.38,360.075 2032.99,359.686 2034.43,358.771 2039.33,355.363 2051.37,347.868 2051.98,347.516 2053.04,346.902 2055.74,345.138 2069.79,336.787 2074.58,334.17 2076.25,333.274 2077.69,332.513 2101.47,320.596 2113.45,314.875 2117.31,313.054 2120.69,311.182 2122.48,310.208 2133.09,304.643 2136.04,303.148 2140.81,300.368 2149.46,295.607 2152.72,293.887 2158.29,291.01 2167.05,285.956 2189.95,272.754 2201.85,265.821 2208.63,261.628 2227.14,251.407 2237.34,246.238 2241.33,244.267 2246.01,241.986 2271.63,229.834 2277.7,226.513 2280.85,224.844 2284.39,222.702 2287.88,220.666 2293.4,217.115 2295.13,216.056 2296.2,215.308 2305.35,209.38 2317.7,201.391 2322.46,198.208 2323.03,197.842 2323.05,197.83 2324.42,196.955 2327.08,195.305 2329.9,193.605 2335.58,190.322 2347.6,183.835 2349.87,182.462 2351.92,181.253 2352.76,180.688 "/>
<polyline clip-path="url(#clip882)" style="stroke:#00a9ad; stroke-linecap:round; stroke-linejoin:round; stroke-width:4; stroke-opacity:1; fill:none" points="140.696,1384.24 140.696,1384.24 141.259,1383.98 144.188,1382.38 146.241,1381.1 147.201,1380.51 154.526,1375.64 179.504,1361.55 181.215,1360.67 181.688,1360.38 186.198,1357.36 190.05,1354.91 191.612,1353.95 195.556,1351.6 203.19,1346.69 213.716,1339.8 218.718,1336.81 218.966,1336.67 219.343,1336.41 220.789,1335.33 223.003,1333.72 241.262,1322.14 241.32,1322.11 254.856,1313.82 264.351,1307.89 278.048,1300.24 293.894,1291.1 300.09,1287.82 300.815,1287.38 305.714,1284.08 331.355,1269.37 332.401,1268.83 332.453,1268.8 343.056,1263.44 343.679,1263.14 369.881,1249.15 384.814,1241.87 388.639,1239.72 402.176,1232.54 406.814,1230.2 416.257,1225.54 419.519,1223.68 422.963,1221.77 431.781,1216.41 438.186,1212.8 448.27,1207.43 460.968,1200.15 477.853,1191.39 480.247,1190.2 488.506,1186.16 503.019,1179.24 516.698,1172.83 519.432,1171.55 526.027,1168.49 533.831,1164.27 537.938,1162.13 552.318,1154.93 555.355,1153.19 563.633,1148.66 567.78,1146.13 579.485,1139.51 582.913,1137.68 587.203,1135.08 604.005,1125.79 608.514,1123.09 624.221,1114.45 638.073,1106.5 638.185,1106.44 643.62,1103.55 645.195,1102.59 662.863,1092.69 664.895,1091.63 691.088,1078.68 695.163,1076.74 698.124,1075.33 699.086,1074.88 700.648,1074.14 702.056,1073.48 706.453,1071.42 716.427,1066.76 719.544,1065.31 729.005,1060.93 730.367,1060.3 732.52,1059.3 747.45,1052.42 750.775,1050.89 774.491,1039.98 864.592,996.592 884.991,987.206 894.433,982.159 900.345,979.13 901.675,978.459 910.828,973.928 911.981,973.366 957.378,951.989 964.527,948.124 975.371,942.55 975.48,942.485 976.523,941.777 980.175,939.375 981.575,938.484 991.804,932.379 994.578,930.822 995.926,930.077 1001.14,927.264 1015.63,919.852 1020.88,917.263 1026.74,914.424 1034.33,910.203 1039.65,907.373 1041.78,906.265 1042.07,906.115 1043.62,905.319 1045,904.613 1059.93,897.205 1076.81,889.149 1079.62,887.829 1083.33,886.09 1116.18,869.272 1124.36,865.356 1129.9,862.738 1147.81,854.359 1150.58,852.833 1157.19,849.306 1158.93,848.4 1162.5,846.564 1166.95,844.32 1171.49,842.067 1171.92,841.852 1174.59,840.543 1174.75,840.465 1180.94,837.469 1181.7,837.101 1181.76,837.072 1189.81,833.235 1194.96,830.8 1233.15,813.055 1243.6,808.239 1247.09,806.63 1248.78,805.852 1255.72,802.661 1257.52,801.832 1273.34,794.56 1276.57,792.8 1287.52,787.086 1290,785.616 1297.64,781.292 1315.01,772.243 1316.62,771.439 1316.89,771.281 1317.92,770.586 1327.34,763.934 1337.6,756.842 1338.1,756.522 1340.97,754.472 1343.72,752.592 1345.03,751.728 1351.09,747.404 1356.46,743.441 1359.94,740.757 1369.32,734.234 1379.89,727.01 1390.92,720.415 1391.75,719.949 1403.94,713.381 1436.22,697.54 1460.73,686.079 1467.63,682.884 1468.32,682.565 1473.39,680.224 1484.84,674.94 1499.02,668.417 1509.25,662.958 1514.6,660.224 1515.95,659.425 1516.3,659.189 1520.53,656.405 1523.97,654.25 1525.54,653.15 1535,647.035 1538.04,645.216 1550.58,638.2 1558.18,634.225 1564.35,630.615 1572.02,625.779 1572.55,625.459 1576.05,623.403 1585.46,618.166 1603.21,609.057 1614.14,602.938 1621.7,598.376 1650.9,581.508 1657.27,577.751 1658.86,576.853 1661.38,575.228 1676.64,566.28 1683.15,562.791 1683.61,562.553 1694.11,556.421 1697.88,554.348 1703.02,551.186 1704.37,550.383 1718.93,542.305 1750.15,526.832 1764.61,519.036 1768.58,516.67 1772.97,514.162 1783.33,508.56 1790.26,504.996 1802.68,498.846 1803.39,498.498 1803.86,498.268 1813.96,493.427 1814.37,493.192 1815.08,492.73 1825.43,486.39 1836.11,480.46 1849.37,472.708 1866.37,463.809 1866.99,463.501 1895.65,449.669 1900.43,447.025 1902.47,445.928 1918.23,437.831 1921.99,435.975 1924,434.994 1927.93,433.084 1934.79,429.792 1941.88,425.868 1954.42,419.346 1982.01,405.959 1984.54,404.546 1988.57,402.35 2001.33,394.837 2002.67,393.975 2005.33,392.084 2005.58,391.883 2006.07,391.454 2025.19,377.423 2025.79,376.99 2028.34,375.193 2029.88,374.145 2032.38,372.485 2032.99,372.093 2034.43,371.043 2039.33,367.64 2051.37,360.155 2051.98,359.803 2053.04,359.095 2055.74,357.343 2069.79,349.036 2074.58,346.429 2076.25,345.536 2077.69,344.777 2101.47,332.883 2113.45,327.168 2117.31,325.348 2120.69,323.764 2122.48,322.926 2133.09,317.979 2136.04,316.355 2140.81,313.796 2149.46,309.331 2152.72,307.695 2158.29,304.938 2167.05,300.687 2189.95,289.87 2201.85,284.335 2208.63,281.198 2227.14,271.501 2237.34,266.481 2241.33,264.552 2246.01,261.924 2271.63,248.756 2277.7,245.811 2280.85,244.031 2284.39,242.081 2287.88,239.91 2293.4,236.635 2295.13,235.648 2296.2,235.04 2305.35,229.37 2317.7,222.469 2322.46,219.962 2323.03,219.667 2323.05,219.656 2324.42,218.824 2327.08,217.02 2329.9,215.176 2335.58,211.652 2347.6,203.966 2349.87,202.63 2351.92,201.45 2352.76,200.971 "/>
<polyline clip-path="url(#clip882)" style="stroke:#ed5d92; stroke-linecap:round; stroke-linejoin:round; stroke-width:4; stroke-opacity:1; fill:none" points="140.696,1384.24 140.696,1384.24 141.259,1383.98 144.188,1382.63 146.241,1381.69 147.201,1381.25 154.526,1377.89 179.504,1366.42 181.215,1365.48 181.688,1365.23 186.198,1362.82 190.05,1360.48 191.612,1359.56 195.556,1357.3 203.19,1353.11 213.716,1347.66 218.718,1345.15 218.966,1345.03 219.343,1344.84 220.789,1344.13 223.003,1342.84 241.262,1333.04 241.32,1333.01 254.856,1326.29 264.351,1321.72 278.048,1314.31 293.894,1306.36 300.09,1303.36 300.815,1303.01 305.714,1300.66 331.355,1287.23 332.401,1286.62 332.453,1286.59 343.056,1279.15 343.679,1278.75 369.881,1263.89 384.814,1256.42 388.639,1254.56 402.176,1247.16 406.814,1244.77 416.257,1240.04 419.519,1238.43 422.963,1236.76 431.781,1232.53 438.186,1228.99 448.27,1223.69 460.968,1217.36 477.853,1208.17 480.247,1206.95 488.506,1202.17 503.019,1193.47 516.698,1186.17 519.432,1184.78 526.027,1180.96 533.831,1176.69 537.938,1174.53 552.318,1166.31 555.355,1164.69 563.633,1160.4 567.78,1158.31 579.485,1151.74 582.913,1149.63 587.203,1147.09 604.005,1137.95 608.514,1135.65 624.221,1127.92 638.073,1121.32 638.185,1121.27 643.62,1118.72 645.195,1117.98 662.863,1109.76 664.895,1108.64 691.088,1093.85 695.163,1091.43 698.124,1089.73 699.086,1089.1 700.648,1088.09 702.056,1087.08 706.453,1083.68 716.427,1076.83 719.544,1074.87 729.005,1068.6 730.367,1067.64 732.52,1065.97 747.45,1055.83 750.775,1053.54 774.491,1039.56 864.592,996.585 884.991,985.975 894.433,981.352 900.345,978.034 901.675,977.19 910.828,971.707 911.981,970.947 957.378,946.328 964.527,942.89 975.371,936.964 975.48,936.906 976.523,936.359 980.175,934.155 981.575,933.333 991.804,927.614 994.578,926.135 995.926,925.425 1001.14,922.727 1015.63,915.523 1020.88,912.982 1026.74,910.185 1034.33,906.595 1039.65,903.66 1041.78,902.517 1042.07,902.363 1043.62,901.406 1045,900.443 1059.93,891.07 1076.81,881.918 1079.62,880.484 1083.33,878.3 1116.18,861.166 1124.36,856.592 1129.9,853.648 1147.81,843.497 1150.58,842.043 1157.19,838.655 1158.93,837.778 1162.5,835.694 1166.95,832.822 1171.49,830.044 1171.92,829.785 1174.59,827.987 1174.75,827.881 1180.94,823.962 1181.7,823.497 1181.76,823.461 1189.81,818.78 1194.96,815.943 1233.15,796.934 1243.6,792.014 1247.09,790.083 1248.78,789.017 1255.72,784.847 1257.52,783.65 1273.34,773.12 1276.57,771.21 1287.52,765.124 1290,763.808 1297.64,759.269 1315.01,748.827 1316.62,747.941 1316.89,747.794 1317.92,747.234 1327.34,742.27 1337.6,737.117 1338.1,736.87 1340.97,735.461 1343.72,734.122 1345.03,733.491 1351.09,730.578 1356.46,728.022 1359.94,726.379 1369.32,721.975 1379.89,717.055 1390.92,711.944 1391.75,711.487 1403.94,705.029 1436.22,687.737 1460.73,675.979 1467.63,672.744 1468.32,672.421 1473.39,669.642 1484.84,663.669 1499.02,655.699 1509.25,650.393 1514.6,647.716 1515.95,647.049 1516.3,646.877 1520.53,644.449 1523.97,642.245 1525.54,641.265 1535,635.715 1538.04,634.031 1550.58,627.417 1558.18,623.004 1564.35,619.628 1572.02,615.603 1572.55,615.33 1576.05,613.256 1585.46,607.279 1603.21,596.27 1614.14,590.34 1621.7,586.453 1650.9,572.3 1657.27,569.304 1658.86,568.563 1661.38,567.385 1676.64,560.29 1683.15,556.761 1683.61,556.48 1694.11,550.318 1697.88,547.919 1703.02,544.815 1704.37,543.904 1718.93,534.02 1750.15,517.067 1764.61,510.017 1768.58,508.119 1772.97,506.039 1783.33,501.169 1790.26,497.936 1802.68,492.174 1803.39,491.843 1803.86,491.624 1813.96,486.962 1814.37,486.77 1815.08,486.445 1825.43,481.676 1836.11,476.759 1849.37,470.665 1866.37,462.854 1866.99,462.517 1895.65,447.914 1900.43,445.609 1902.47,444.635 1918.23,436.155 1921.99,433.924 1924,432.59 1927.93,430.075 1934.79,425.41 1941.88,421.005 1954.42,413.93 1982.01,400.022 1984.54,398.806 1988.57,396.543 2001.33,389.772 2002.67,389.087 2005.33,387.743 2005.58,387.615 2006.07,387.368 2025.19,378.045 2025.79,377.759 2028.34,376.544 2029.88,375.815 2032.38,374.63 2032.99,374.345 2034.43,373.666 2039.33,371.363 2051.37,365.744 2051.98,365.462 2053.04,364.968 2055.74,363.715 2069.79,357.218 2074.58,354.614 2076.25,353.574 2077.69,352.698 2101.47,339.643 2113.45,332.823 2117.31,330.756 2120.69,328.989 2122.48,328.064 2133.09,322.724 2136.04,321.274 2140.81,318.952 2149.46,314.147 2152.72,312.137 2158.29,308.851 2167.05,303.995 2189.95,291.056 2201.85,284.184 2208.63,280.55 2227.14,271.218 2237.34,265.55 2241.33,263.102 2246.01,260.361 2271.63,245.461 2277.7,242.324 2280.85,240.733 2284.39,238.966 2287.88,237.246 2293.4,234.554 2295.13,233.722 2296.2,233.108 2305.35,228.087 2317.7,220.86 2322.46,218.269 2323.03,217.965 2323.05,217.955 2324.42,217.225 2327.08,215.83 2329.9,214.127 2335.58,210.839 2347.6,204.345 2349.87,203.169 2351.92,201.942 2352.76,201.446 "/>
<polyline clip-path="url(#clip882)" style="stroke:#c68125; stroke-linecap:round; stroke-linejoin:round; stroke-width:4; stroke-opacity:1; fill:none" points="140.696,1384.24 140.696,1384.24 141.259,1383.93 144.188,1382.34 146.241,1381.24 147.201,1380.65 154.526,1376.31 179.504,1363.14 181.215,1362.3 181.688,1362.07 186.198,1359.86 190.05,1357.67 191.612,1356.66 195.556,1354.2 203.19,1349.73 213.716,1344 218.718,1341.41 218.966,1341.28 219.343,1341.09 220.789,1340.35 223.003,1339.04 241.262,1329.07 241.32,1329.04 254.856,1322.26 264.351,1317.66 278.048,1310.23 293.894,1302.27 300.09,1299.27 300.815,1298.92 305.714,1296.57 331.355,1284.53 332.401,1283.95 332.453,1283.92 343.056,1276.72 343.679,1276.33 369.881,1261.72 384.814,1253.31 388.639,1251.29 402.176,1243.52 406.814,1241.04 416.257,1235.47 419.519,1233.65 422.963,1231.79 431.781,1227.17 438.186,1223.43 448.27,1217.18 460.968,1210.11 477.853,1200.42 480.247,1198.94 488.506,1193.47 503.019,1185.01 516.698,1177.83 519.432,1176.45 526.027,1172.66 533.831,1168.42 537.938,1166.27 552.318,1159.05 555.355,1157.57 563.633,1153.59 567.78,1151.61 579.485,1145.26 582.913,1143.19 587.203,1140.71 604.005,1131.69 608.514,1129.41 624.221,1120.69 638.073,1113.64 638.185,1113.58 643.62,1110.47 645.195,1109.6 662.863,1100.36 664.895,1099.16 691.088,1085.25 695.163,1082.9 698.124,1081.24 699.086,1080.62 700.648,1079.5 702.056,1078.38 706.453,1074.71 716.427,1066.65 719.544,1064.15 729.005,1056.63 730.367,1055.52 732.52,1053.65 747.45,1042.52 750.775,1040.09 774.491,1025.52 864.592,982.24 884.991,972.855 894.433,968.515 900.345,965.322 901.675,964.502 910.828,959.149 911.981,958.403 957.378,933.996 964.527,930.567 975.371,925.438 975.48,925.387 976.523,924.898 980.175,923.187 981.575,922.532 991.804,917.769 994.578,916.482 995.926,915.737 1001.14,912.922 1015.63,905.506 1020.88,902.916 1026.74,900.077 1034.33,896.446 1039.65,893.925 1041.78,892.922 1042.07,892.785 1043.62,891.92 1045,891.035 1059.93,882.251 1076.81,873.428 1079.62,872.028 1083.33,870.197 1116.18,854.568 1124.36,850.132 1129.9,847.255 1147.81,837.239 1150.58,835.798 1157.19,832.433 1158.93,831.562 1162.5,829.488 1166.95,826.626 1171.49,823.857 1171.92,823.598 1174.59,821.805 1174.75,821.684 1180.94,817.281 1181.7,816.764 1181.76,816.724 1189.81,810.981 1194.96,807.216 1233.15,785.28 1243.6,780.119 1247.09,778.129 1248.78,777.038 1255.72,772.235 1257.52,771.062 1273.34,760.679 1276.57,758.788 1287.52,751.955 1290,750.514 1297.64,745.67 1315.01,734.822 1316.62,733.912 1316.89,733.761 1317.92,733.187 1327.34,728.119 1337.6,722.892 1338.1,722.643 1340.97,721.219 1343.72,719.867 1345.03,719.231 1351.09,716.297 1356.46,713.726 1359.94,712.075 1369.32,707.656 1379.89,702.724 1390.92,697.606 1391.75,697.149 1403.94,690.686 1436.22,674.956 1460.73,663.518 1467.63,660.326 1468.32,660.007 1473.39,657.252 1484.84,650.492 1499.02,641.971 1509.25,636.436 1514.6,633.676 1515.95,632.991 1516.3,632.815 1520.53,630.337 1523.97,628.392 1525.54,627.518 1535,622.467 1538.04,620.904 1550.58,614.645 1558.18,610.96 1564.35,608.017 1572.02,604.388 1572.55,604.138 1576.05,602.201 1585.46,596.5 1603.21,586.906 1614.14,581.427 1621.7,577.745 1650.9,563.963 1657.27,561.001 1658.86,560.127 1661.38,558.755 1676.64,550.858 1683.15,547.641 1683.61,547.378 1694.11,541.555 1697.88,539.562 1703.02,536.912 1704.37,536.105 1718.93,527.993 1750.15,512.491 1764.61,505.668 1768.58,503.811 1772.97,501.768 1783.33,496.962 1790.26,493.757 1802.68,488.029 1803.39,487.635 1803.86,487.375 1813.96,482.022 1814.37,481.808 1815.08,481.445 1825.43,476.249 1836.11,471.058 1849.37,464.763 1866.37,455.727 1866.99,455.417 1895.65,441.501 1900.43,439.247 1902.47,438.291 1918.23,429.909 1921.99,427.693 1924,426.367 1927.93,423.863 1934.79,419.214 1941.88,414.823 1954.42,406.88 1982.01,392.157 1984.54,390.905 1988.57,388.592 2001.33,381.713 2002.67,381.019 2005.33,379.661 2005.58,379.532 2006.07,379.283 2025.19,368.715 2025.79,368.404 2028.34,367.092 2029.88,366.31 2032.38,365.047 2032.99,364.744 2034.43,364.024 2039.33,361.601 2051.37,355.779 2051.98,355.49 2053.04,354.982 2055.74,353.465 2069.79,346.012 2074.58,343.197 2076.25,342.093 2077.69,341.165 2101.47,327.608 2113.45,320.678 2117.31,318.587 2120.69,316.801 2122.48,315.867 2133.09,310.488 2136.04,309.031 2140.81,306.697 2149.46,301.879 2152.72,300.142 2158.29,297.242 2167.05,292.827 2189.95,280.477 2201.85,273.741 2208.63,270.158 2227.14,260.906 2237.34,255.261 2241.33,252.82 2246.01,250.085 2271.63,235.203 2277.7,231.579 2280.85,229.784 2284.39,227.819 2287.88,225.932 2293.4,222.575 2295.13,221.567 2296.2,220.849 2305.35,215.126 2317.7,207.309 2322.46,204.564 2323.03,204.244 2323.05,204.234 2324.42,203.466 2327.08,202.005 2329.9,200.24 2335.58,196.848 2347.6,190.204 2349.87,189.009 2351.92,187.765 2352.76,187.262 "/>
<polyline clip-path="url(#clip882)" style="stroke:#00a98d; stroke-linecap:round; stroke-linejoin:round; stroke-width:4; stroke-opacity:1; fill:none" points="140.696,1384.24 140.696,1384.24 141.259,1383.98 144.188,1382.63 146.241,1381.69 147.201,1381.25 154.526,1377.89 179.504,1366.42 181.215,1365.64 181.688,1365.42 186.198,1363.35 190.05,1361.58 191.612,1360.86 195.556,1359.05 203.19,1355.55 213.716,1350.72 218.718,1348.42 218.966,1348.31 219.343,1348.13 220.789,1347.47 223.003,1346.45 241.262,1336.92 241.32,1336.89 254.856,1330.27 264.351,1325.74 278.048,1319.31 293.894,1311.94 300.09,1308.58 300.815,1308.2 305.714,1305.64 331.355,1293.01 332.401,1292.51 332.453,1292.48 343.056,1287.47 343.679,1287.18 369.881,1274.99 384.814,1268.1 388.639,1266.34 402.176,1260.11 406.814,1257.6 416.257,1252.68 419.519,1251.03 422.963,1249.02 431.781,1244.14 438.186,1240.76 448.27,1235.66 460.968,1229.47 477.853,1221.47 480.247,1220.35 488.506,1216.5 503.019,1209.77 516.698,1202.52 519.432,1200.89 526.027,1197.14 533.831,1192.94 537.938,1190.8 552.318,1183.62 555.355,1182.14 563.633,1177.53 567.78,1175.32 579.485,1169.33 582.913,1167.63 587.203,1165.53 604.005,1157.48 608.514,1155.36 624.221,1148.03 638.073,1141.61 638.185,1141.56 643.62,1139.05 645.195,1138.32 662.863,1130.19 664.895,1129.25 691.088,1117.21 695.163,1115.34 698.124,1113.98 699.086,1113.54 700.648,1112.82 702.056,1112.18 706.453,1110.16 716.427,1105.58 719.544,1104.15 729.005,1099.8 730.367,1099.18 732.52,1098.19 747.45,1090.33 750.775,1088.66 774.491,1075.84 864.592,1033.47 884.991,1024.1 894.433,1019.76 900.345,1017.05 901.675,1016.43 910.828,1012.23 911.981,1011.7 957.378,989.077 964.527,985.721 975.371,980.668 975.48,980.617 976.523,980.133 980.175,978.439 981.575,977.79 991.804,973.061 994.578,971.781 995.926,971.159 1001.14,968.755 1015.63,962.087 1020.88,959.668 1026.74,956.978 1034.33,953.491 1039.65,951.045 1041.78,950.067 1042.07,949.907 1043.62,949.061 1045,948.314 1059.93,940.588 1076.81,932.355 1079.62,931.016 1083.33,929.256 1116.18,913.928 1124.36,910.148 1129.9,907.147 1147.81,898.017 1150.58,896.66 1157.19,893.459 1158.93,892.623 1162.5,890.917 1166.95,888.808 1171.49,886.667 1171.92,886.462 1174.59,885.208 1174.75,885.133 1180.94,882.241 1181.7,881.884 1181.76,881.857 1189.81,878.115 1194.96,875.724 1233.15,856.443 1243.6,851.5 1247.09,849.861 1248.78,849.07 1255.72,845.834 1257.52,844.995 1273.34,837.666 1276.57,836.174 1287.52,831.128 1290,829.985 1297.64,826.467 1315.01,818.485 1316.62,817.744 1316.89,817.621 1317.92,817.147 1327.34,812.816 1337.6,808.106 1338.1,807.876 1340.97,806.556 1343.72,805.055 1345.03,804.355 1351.09,801.165 1356.46,798.419 1359.94,796.675 1369.32,791.363 1379.89,785.787 1390.92,780.254 1391.75,779.848 1403.94,773.953 1436.22,758.821 1460.73,747.506 1467.63,744.33 1468.32,744.012 1473.39,741.682 1484.84,736.415 1499.02,729.903 1509.25,725.202 1514.6,722.746 1515.95,722.128 1516.3,721.968 1520.53,720.025 1523.97,718.445 1525.54,717.721 1535,713.377 1538.04,711.724 1550.58,704.317 1558.18,700.192 1564.35,696.988 1572.02,693.119 1572.55,692.807 1576.05,690.795 1585.46,685.646 1603.21,676.629 1614.14,671.334 1621.7,667.736 1650.9,654.106 1657.27,651.157 1658.86,650.426 1661.38,649.263 1676.64,642.228 1683.15,639.233 1683.61,639.024 1694.11,634.196 1697.88,632.461 1703.02,630.099 1704.37,629.478 1718.93,622.791 1750.15,608.457 1764.61,601.816 1768.58,599.992 1772.97,597.978 1783.33,593.224 1790.26,590.042 1802.68,584.341 1803.39,584.013 1803.86,583.795 1813.96,579.162 1814.37,578.971 1815.08,578.647 1825.43,573.895 1836.11,568.99 1849.37,562.903 1866.37,555.098 1866.99,554.817 1895.65,541.659 1900.43,539.461 1902.47,538.347 1918.23,530.164 1921.99,528.295 1924,527.308 1927.93,525.387 1934.79,522.08 1941.88,518.704 1954.42,512.81 1982.01,500.015 1984.54,498.848 1988.57,496.99 2001.33,491.113 2002.67,490.495 2005.33,489.274 2005.58,489.157 2006.07,488.931 2025.19,480.146 2025.79,479.87 2028.34,478.697 2029.88,477.991 2032.38,476.841 2032.99,476.508 2034.43,475.723 2039.33,473.102 2051.37,466.09 2051.98,465.702 2053.04,465.026 2055.74,463.35 2069.79,455.319 2074.58,452.773 2076.25,451.898 2077.69,451.026 2101.47,436.675 2113.45,430.422 2117.31,428.157 2120.69,426.242 2122.48,425.089 2133.09,417.942 2136.04,416.125 2140.81,413.301 2149.46,408.481 2152.72,406.744 2158.29,403.843 2167.05,399.427 2189.95,388.391 2201.85,382.806 2208.63,379.65 2227.14,371.078 2237.34,366.377 2241.33,364.539 2246.01,362.386 2271.63,350.608 2277.7,347.817 2280.85,346.371 2284.39,344.745 2287.88,343.143 2293.4,340.606 2295.13,339.662 2296.2,339.079 2305.35,334.269 2317.7,328.09 2322.46,325.771 2323.03,325.496 2323.05,325.487 2324.42,324.701 2327.08,323.208 2329.9,321.656 2335.58,318.619 2347.6,312.486 2349.87,311.36 2351.92,310.353 2352.76,309.941 "/>
<polyline clip-path="url(#clip882)" style="stroke:#8e971d; stroke-linecap:round; stroke-linejoin:round; stroke-width:4; stroke-opacity:1; fill:none" points="140.696,1384.24 140.696,1384.24 141.259,1383.98 144.188,1382.63 146.241,1381.69 147.201,1381.25 154.526,1377.89 179.504,1365.04 181.215,1364.21 181.688,1363.98 186.198,1361.79 190.05,1359.95 191.612,1359.2 195.556,1357 203.19,1352.9 213.716,1347.52 218.718,1344.63 218.966,1344.47 219.343,1344.22 220.789,1343.29 223.003,1341.89 241.262,1331.48 241.32,1331.44 254.856,1323.57 264.351,1318.52 278.048,1311.64 293.894,1304 300.09,1301.07 300.815,1300.73 305.714,1298.43 331.355,1286.52 332.401,1286.04 332.453,1286.02 343.056,1281.13 343.679,1280.78 369.881,1267.35 384.814,1260.19 388.639,1258.38 402.176,1252.04 406.814,1249.89 416.257,1245.51 419.519,1244 422.963,1242.41 431.781,1238.34 438.186,1235.39 448.27,1230.75 460.968,1224.92 477.853,1217.16 480.247,1216.06 488.506,1212.27 503.019,1205.6 516.698,1199.32 519.432,1198.07 526.027,1195.04 533.831,1191.45 537.938,1189.22 552.318,1181.81 555.355,1180.3 563.633,1176.26 567.78,1174.27 579.485,1168.71 582.913,1167.1 587.203,1165.09 604.005,1156.19 608.514,1153.93 624.221,1146.28 638.073,1139.73 638.185,1139.67 643.62,1136.69 645.195,1135.84 662.863,1125.7 664.895,1124.62 691.088,1111.53 695.163,1109.58 698.124,1107.92 699.086,1107.39 700.648,1106.53 702.056,1105.77 706.453,1103.43 716.427,1098.32 719.544,1096.77 729.005,1092.14 730.367,1091.48 732.52,1090.45 747.45,1083.37 750.775,1081.81 774.491,1070.79 864.592,1029.36 884.991,1019.99 894.433,1015.66 900.345,1012.94 901.675,1012.33 910.828,1007.44 911.981,1006.84 957.378,984.877 964.527,981.549 975.371,976.523 975.48,976.473 976.523,975.991 980.175,974.303 981.575,973.532 991.804,967.354 994.578,965.543 995.926,964.686 1001.14,961.069 1015.63,951.22 1020.88,947.641 1026.74,943.47 1034.33,938.558 1039.65,935.366 1041.78,933.95 1042.07,933.76 1043.62,932.76 1045,931.884 1059.93,922.173 1076.81,911.747 1079.62,909.937 1083.33,907.638 1116.18,890.013 1124.36,886.023 1129.9,883.368 1147.81,874.917 1150.58,873.624 1157.19,870.022 1158.93,868.945 1162.5,866.8 1166.95,864.233 1171.49,861.334 1171.92,861.025 1174.59,859.172 1174.75,859.063 1180.94,854.543 1181.7,853.946 1181.76,853.894 1189.81,847.448 1194.96,843.773 1233.15,822.118 1243.6,816.213 1247.09,814.34 1248.78,813.448 1255.72,809.871 1257.52,808.959 1273.34,801.192 1276.57,799.643 1287.52,794.454 1290,793.287 1297.64,789.711 1315.01,781.651 1316.62,780.763 1316.89,780.617 1317.92,780.055 1327.34,775.084 1337.6,769.925 1338.1,769.633 1340.97,767.981 1343.72,766.437 1345.03,765.601 1351.09,761.878 1356.46,758.765 1359.94,756.827 1369.32,751.824 1379.89,746.47 1390.92,740.281 1391.75,739.838 1403.94,732.664 1436.22,716.186 1460.73,703.229 1467.63,699.289 1468.32,698.845 1473.39,695.696 1484.84,689.139 1499.02,681.723 1509.25,676.647 1514.6,673.618 1515.95,672.875 1516.3,672.684 1520.53,670.402 1523.97,668.59 1525.54,667.77 1535,662.27 1538.04,660.599 1550.58,654.019 1558.18,650.212 1564.35,647.196 1572.02,643.5 1572.55,643.246 1576.05,641.583 1585.46,637.144 1603.21,628.869 1614.14,623.81 1621.7,620.32 1650.9,606.884 1657.27,603.953 1658.86,603.226 1661.38,602.069 1676.64,594.041 1683.15,590.79 1683.61,590.566 1694.11,585.46 1697.88,583.653 1703.02,581.21 1704.37,580.571 1718.93,573.744 1750.15,557.751 1764.61,550.852 1768.58,548.981 1772.97,546.559 1783.33,540.346 1790.26,535.958 1802.68,527.968 1803.39,527.542 1803.86,527.22 1813.96,520.05 1814.37,519.777 1815.08,519.318 1825.43,512.24 1836.11,505.055 1849.37,497.305 1866.37,488.407 1866.99,488.1 1895.65,472.786 1900.43,470.428 1902.47,469.435 1918.23,461.892 1921.99,460.119 1924,459.177 1927.93,457.003 1934.79,453.349 1941.88,449.709 1954.42,443.513 1982.01,428.978 1984.54,427.735 1988.57,425.772 2001.33,419.664 2002.67,419.028 2005.33,417.776 2005.58,417.655 2006.07,417.424 2025.19,408.5 2025.79,408.222 2028.34,406.816 2029.88,405.846 2032.38,404.085 2032.99,403.67 2034.43,402.697 2039.33,399.116 2051.37,391.327 2051.98,390.965 2053.04,390.332 2055.74,388.759 2069.79,380.141 2074.58,377.465 2076.25,376.551 2077.69,375.776 2101.47,363.719 2113.45,357.968 2117.31,356.14 2120.69,354.263 2122.48,353.286 2133.09,347.71 2136.04,346.213 2140.81,343.43 2149.46,338.665 2152.72,336.944 2158.29,333.613 2167.05,328.038 2189.95,315.456 2201.85,309.514 2208.63,305.689 2227.14,296.053 2237.34,291.05 2241.33,289.127 2246.01,286.891 2271.63,274.872 2277.7,272.053 2280.85,270.596 2284.39,268.659 2287.88,266.795 2293.4,263.918 2295.13,263.036 2296.2,262.489 2305.35,257.929 2317.7,251.958 2322.46,249.3 2323.03,248.937 2323.05,248.926 2324.42,248.06 2327.08,246.426 2329.9,244.741 2335.58,241.023 2347.6,233.911 2349.87,232.454 2351.92,231.175 2352.76,230.583 "/>
<path clip-path="url(#clip880)" d="M214.431 663.349 L554.896 663.349 L554.896 93.1086 L214.431 93.1086  Z" fill="#ffffff" fill-rule="evenodd" fill-opacity="1"/>
<polyline clip-path="url(#clip880)" style="stroke:#000000; stroke-linecap:round; stroke-linejoin:round; stroke-width:4; stroke-opacity:1; fill:none" points="214.431,663.349 554.896,663.349 554.896,93.1086 214.431,93.1086 214.431,663.349 "/>
<polyline clip-path="url(#clip880)" style="stroke:#009af9; stroke-linecap:round; stroke-linejoin:round; stroke-width:4; stroke-opacity:1; fill:none" points="239.009,144.949 386.48,144.949 "/>
<path clip-path="url(#clip880)" d="M411.058 151.997 L411.058 136.303 L415.318 136.303 L415.318 151.835 Q415.318 155.516 416.753 157.368 Q418.188 159.196 421.058 159.196 Q424.507 159.196 426.498 156.997 Q428.512 154.798 428.512 151.002 L428.512 136.303 L432.771 136.303 L432.771 162.229 L428.512 162.229 L428.512 158.247 Q426.961 160.608 424.901 161.766 Q422.864 162.9 420.156 162.9 Q415.688 162.9 413.373 160.122 Q411.058 157.344 411.058 151.997 M421.776 135.678 L421.776 135.678 Z" fill="#000000" fill-rule="nonzero" fill-opacity="1" /><path clip-path="url(#clip880)" d="M441.151 126.21 L450.966 126.21 L450.966 129.52 L445.41 129.52 L445.41 165.168 L450.966 165.168 L450.966 168.479 L441.151 168.479 L441.151 126.21 Z" fill="#000000" fill-rule="nonzero" fill-opacity="1" /><path clip-path="url(#clip880)" d="M461.452 158.293 L469.091 158.293 L469.091 131.928 L460.78 133.595 L460.78 129.335 L469.044 127.669 L473.72 127.669 L473.72 158.293 L481.359 158.293 L481.359 162.229 L461.452 162.229 L461.452 158.293 Z" fill="#000000" fill-rule="nonzero" fill-opacity="1" /><path clip-path="url(#clip880)" d="M500.155 126.21 L500.155 168.479 L490.34 168.479 L490.34 165.168 L495.873 165.168 L495.873 129.52 L490.34 129.52 L490.34 126.21 L500.155 126.21 Z" fill="#000000" fill-rule="nonzero" fill-opacity="1" /><polyline clip-path="url(#clip880)" style="stroke:#e26f46; stroke-linecap:round; stroke-linejoin:round; stroke-width:4; stroke-opacity:1; fill:none" points="239.009,196.789 386.48,196.789 "/>
<path clip-path="url(#clip880)" d="M411.058 203.837 L411.058 188.143 L415.318 188.143 L415.318 203.675 Q415.318 207.356 416.753 209.208 Q418.188 211.036 421.058 211.036 Q424.507 211.036 426.498 208.837 Q428.512 206.638 428.512 202.842 L428.512 188.143 L432.771 188.143 L432.771 214.069 L428.512 214.069 L428.512 210.087 Q426.961 212.448 424.901 213.606 Q422.864 214.74 420.156 214.74 Q415.688 214.74 413.373 211.962 Q411.058 209.184 411.058 203.837 M421.776 187.518 L421.776 187.518 Z" fill="#000000" fill-rule="nonzero" fill-opacity="1" /><path clip-path="url(#clip880)" d="M441.151 178.05 L450.966 178.05 L450.966 181.36 L445.41 181.36 L445.41 217.008 L450.966 217.008 L450.966 220.319 L441.151 220.319 L441.151 178.05 Z" fill="#000000" fill-rule="nonzero" fill-opacity="1" /><path clip-path="url(#clip880)" d="M464.669 210.133 L480.989 210.133 L480.989 214.069 L459.044 214.069 L459.044 210.133 Q461.706 207.379 466.29 202.749 Q470.896 198.096 472.077 196.754 Q474.322 194.231 475.202 192.495 Q476.104 190.735 476.104 189.046 Q476.104 186.291 474.16 184.555 Q472.239 182.819 469.137 182.819 Q466.938 182.819 464.484 183.583 Q462.054 184.347 459.276 185.897 L459.276 181.175 Q462.1 180.041 464.554 179.462 Q467.007 178.884 469.044 178.884 Q474.415 178.884 477.609 181.569 Q480.803 184.254 480.803 188.745 Q480.803 190.874 479.993 192.796 Q479.206 194.694 477.1 197.286 Q476.521 197.958 473.419 201.175 Q470.317 204.37 464.669 210.133 Z" fill="#000000" fill-rule="nonzero" fill-opacity="1" /><path clip-path="url(#clip880)" d="M500.155 178.05 L500.155 220.319 L490.34 220.319 L490.34 217.008 L495.873 217.008 L495.873 181.36 L490.34 181.36 L490.34 178.05 L500.155 178.05 Z" fill="#000000" fill-rule="nonzero" fill-opacity="1" /><polyline clip-path="url(#clip880)" style="stroke:#3da44d; stroke-linecap:round; stroke-linejoin:round; stroke-width:4; stroke-opacity:1; fill:none" points="239.009,248.629 386.48,248.629 "/>
<path clip-path="url(#clip880)" d="M411.058 255.677 L411.058 239.983 L415.318 239.983 L415.318 255.515 Q415.318 259.196 416.753 261.048 Q418.188 262.876 421.058 262.876 Q424.507 262.876 426.498 260.677 Q428.512 258.478 428.512 254.682 L428.512 239.983 L432.771 239.983 L432.771 265.909 L428.512 265.909 L428.512 261.927 Q426.961 264.288 424.901 265.446 Q422.864 266.58 420.156 266.58 Q415.688 266.58 413.373 263.802 Q411.058 261.024 411.058 255.677 M421.776 239.358 L421.776 239.358 Z" fill="#000000" fill-rule="nonzero" fill-opacity="1" /><path clip-path="url(#clip880)" d="M441.151 229.89 L450.966 229.89 L450.966 233.2 L445.41 233.2 L445.41 268.848 L450.966 268.848 L450.966 272.159 L441.151 272.159 L441.151 229.89 Z" fill="#000000" fill-rule="nonzero" fill-opacity="1" /><path clip-path="url(#clip880)" d="M474.808 247.274 Q478.165 247.992 480.04 250.261 Q481.938 252.529 481.938 255.862 Q481.938 260.978 478.419 263.779 Q474.901 266.58 468.419 266.58 Q466.243 266.58 463.929 266.14 Q461.637 265.723 459.183 264.867 L459.183 260.353 Q461.128 261.487 463.442 262.066 Q465.757 262.645 468.28 262.645 Q472.679 262.645 474.97 260.909 Q477.285 259.173 477.285 255.862 Q477.285 252.807 475.132 251.094 Q473.003 249.358 469.183 249.358 L465.155 249.358 L465.155 245.515 L469.368 245.515 Q472.817 245.515 474.646 244.149 Q476.475 242.761 476.475 240.168 Q476.475 237.506 474.577 236.094 Q472.702 234.659 469.183 234.659 Q467.262 234.659 465.063 235.075 Q462.864 235.492 460.225 236.372 L460.225 232.205 Q462.887 231.464 465.202 231.094 Q467.54 230.724 469.6 230.724 Q474.924 230.724 478.026 233.154 Q481.128 235.562 481.128 239.682 Q481.128 242.552 479.484 244.543 Q477.841 246.511 474.808 247.274 Z" fill="#000000" fill-rule="nonzero" fill-opacity="1" /><path clip-path="url(#clip880)" d="M500.155 229.89 L500.155 272.159 L490.34 272.159 L490.34 268.848 L495.873 268.848 L495.873 233.2 L490.34 233.2 L490.34 229.89 L500.155 229.89 Z" fill="#000000" fill-rule="nonzero" fill-opacity="1" /><polyline clip-path="url(#clip880)" style="stroke:#c271d2; stroke-linecap:round; stroke-linejoin:round; stroke-width:4; stroke-opacity:1; fill:none" points="239.009,300.469 386.48,300.469 "/>
<path clip-path="url(#clip880)" d="M411.058 307.517 L411.058 291.823 L415.318 291.823 L415.318 307.355 Q415.318 311.036 416.753 312.888 Q418.188 314.716 421.058 314.716 Q424.507 314.716 426.498 312.517 Q428.512 310.318 428.512 306.522 L428.512 291.823 L432.771 291.823 L432.771 317.749 L428.512 317.749 L428.512 313.767 Q426.961 316.128 424.901 317.286 Q422.864 318.42 420.156 318.42 Q415.688 318.42 413.373 315.642 Q411.058 312.864 411.058 307.517 M421.776 291.198 L421.776 291.198 Z" fill="#000000" fill-rule="nonzero" fill-opacity="1" /><path clip-path="url(#clip880)" d="M441.151 281.73 L450.966 281.73 L450.966 285.04 L445.41 285.04 L445.41 320.688 L450.966 320.688 L450.966 323.999 L441.151 323.999 L441.151 281.73 Z" fill="#000000" fill-rule="nonzero" fill-opacity="1" /><path clip-path="url(#clip880)" d="M473.489 287.263 L461.683 305.712 L473.489 305.712 L473.489 287.263 M472.262 283.189 L478.141 283.189 L478.141 305.712 L483.072 305.712 L483.072 309.601 L478.141 309.601 L478.141 317.749 L473.489 317.749 L473.489 309.601 L457.887 309.601 L457.887 305.087 L472.262 283.189 Z" fill="#000000" fill-rule="nonzero" fill-opacity="1" /><path clip-path="url(#clip880)" d="M500.155 281.73 L500.155 323.999 L490.34 323.999 L490.34 320.688 L495.873 320.688 L495.873 285.04 L490.34 285.04 L490.34 281.73 L500.155 281.73 Z" fill="#000000" fill-rule="nonzero" fill-opacity="1" /><polyline clip-path="url(#clip880)" style="stroke:#ac8d18; stroke-linecap:round; stroke-linejoin:round; stroke-width:4; stroke-opacity:1; fill:none" points="239.009,352.309 386.48,352.309 "/>
<path clip-path="url(#clip880)" d="M411.058 359.357 L411.058 343.663 L415.318 343.663 L415.318 359.195 Q415.318 362.876 416.753 364.728 Q418.188 366.556 421.058 366.556 Q424.507 366.556 426.498 364.357 Q428.512 362.158 428.512 358.362 L428.512 343.663 L432.771 343.663 L432.771 369.589 L428.512 369.589 L428.512 365.607 Q426.961 367.968 424.901 369.126 Q422.864 370.26 420.156 370.26 Q415.688 370.26 413.373 367.482 Q411.058 364.704 411.058 359.357 M421.776 343.038 L421.776 343.038 Z" fill="#000000" fill-rule="nonzero" fill-opacity="1" /><path clip-path="url(#clip880)" d="M441.151 333.57 L450.966 333.57 L450.966 336.88 L445.41 336.88 L445.41 372.528 L450.966 372.528 L450.966 375.839 L441.151 375.839 L441.151 333.57 Z" fill="#000000" fill-rule="nonzero" fill-opacity="1" /><path clip-path="url(#clip880)" d="M460.688 335.029 L479.044 335.029 L479.044 338.964 L464.97 338.964 L464.97 347.436 Q465.989 347.089 467.007 346.927 Q468.026 346.742 469.044 346.742 Q474.831 346.742 478.211 349.913 Q481.591 353.084 481.591 358.501 Q481.591 364.079 478.118 367.181 Q474.646 370.26 468.327 370.26 Q466.151 370.26 463.882 369.89 Q461.637 369.519 459.23 368.778 L459.23 364.079 Q461.313 365.214 463.535 365.769 Q465.757 366.325 468.234 366.325 Q472.239 366.325 474.577 364.218 Q476.915 362.112 476.915 358.501 Q476.915 354.89 474.577 352.783 Q472.239 350.677 468.234 350.677 Q466.359 350.677 464.484 351.093 Q462.632 351.51 460.688 352.39 L460.688 335.029 Z" fill="#000000" fill-rule="nonzero" fill-opacity="1" /><path clip-path="url(#clip880)" d="M500.155 333.57 L500.155 375.839 L490.34 375.839 L490.34 372.528 L495.873 372.528 L495.873 336.88 L490.34 336.88 L490.34 333.57 L500.155 333.57 Z" fill="#000000" fill-rule="nonzero" fill-opacity="1" /><polyline clip-path="url(#clip880)" style="stroke:#00a9ad; stroke-linecap:round; stroke-linejoin:round; stroke-width:4; stroke-opacity:1; fill:none" points="239.009,404.149 386.48,404.149 "/>
<path clip-path="url(#clip880)" d="M411.058 411.197 L411.058 395.503 L415.318 395.503 L415.318 411.035 Q415.318 414.716 416.753 416.568 Q418.188 418.396 421.058 418.396 Q424.507 418.396 426.498 416.197 Q428.512 413.998 428.512 410.202 L428.512 395.503 L432.771 395.503 L432.771 421.429 L428.512 421.429 L428.512 417.447 Q426.961 419.808 424.901 420.966 Q422.864 422.1 420.156 422.1 Q415.688 422.1 413.373 419.322 Q411.058 416.544 411.058 411.197 M421.776 394.878 L421.776 394.878 Z" fill="#000000" fill-rule="nonzero" fill-opacity="1" /><path clip-path="url(#clip880)" d="M441.151 385.41 L450.966 385.41 L450.966 388.72 L445.41 388.72 L445.41 424.368 L450.966 424.368 L450.966 427.679 L441.151 427.679 L441.151 385.41 Z" fill="#000000" fill-rule="nonzero" fill-opacity="1" /><path clip-path="url(#clip880)" d="M471.22 402.285 Q468.072 402.285 466.22 404.438 Q464.392 406.591 464.392 410.341 Q464.392 414.068 466.22 416.243 Q468.072 418.396 471.22 418.396 Q474.368 418.396 476.197 416.243 Q478.049 414.068 478.049 410.341 Q478.049 406.591 476.197 404.438 Q474.368 402.285 471.22 402.285 M480.503 387.633 L480.503 391.892 Q478.743 391.058 476.938 390.619 Q475.155 390.179 473.396 390.179 Q468.766 390.179 466.313 393.304 Q463.882 396.429 463.535 402.748 Q464.901 400.734 466.961 399.669 Q469.021 398.582 471.498 398.582 Q476.706 398.582 479.716 401.753 Q482.748 404.901 482.748 410.341 Q482.748 415.665 479.6 418.882 Q476.452 422.1 471.22 422.1 Q465.225 422.1 462.054 417.517 Q458.882 412.91 458.882 404.183 Q458.882 395.989 462.771 391.128 Q466.66 386.244 473.211 386.244 Q474.97 386.244 476.753 386.591 Q478.558 386.938 480.503 387.633 Z" fill="#000000" fill-rule="nonzero" fill-opacity="1" /><path clip-path="url(#clip880)" d="M500.155 385.41 L500.155 427.679 L490.34 427.679 L490.34 424.368 L495.873 424.368 L495.873 388.72 L490.34 388.72 L490.34 385.41 L500.155 385.41 Z" fill="#000000" fill-rule="nonzero" fill-opacity="1" /><polyline clip-path="url(#clip880)" style="stroke:#ed5d92; stroke-linecap:round; stroke-linejoin:round; stroke-width:4; stroke-opacity:1; fill:none" points="239.009,455.989 386.48,455.989 "/>
<path clip-path="url(#clip880)" d="M411.058 463.037 L411.058 447.343 L415.318 447.343 L415.318 462.875 Q415.318 466.556 416.753 468.408 Q418.188 470.236 421.058 470.236 Q424.507 470.236 426.498 468.037 Q428.512 465.838 428.512 462.042 L428.512 447.343 L432.771 447.343 L432.771 473.269 L428.512 473.269 L428.512 469.287 Q426.961 471.648 424.901 472.806 Q422.864 473.94 420.156 473.94 Q415.688 473.94 413.373 471.162 Q411.058 468.384 411.058 463.037 M421.776 446.718 L421.776 446.718 Z" fill="#000000" fill-rule="nonzero" fill-opacity="1" /><path clip-path="url(#clip880)" d="M441.151 437.25 L450.966 437.25 L450.966 440.56 L445.41 440.56 L445.41 476.208 L450.966 476.208 L450.966 479.519 L441.151 479.519 L441.151 437.25 Z" fill="#000000" fill-rule="nonzero" fill-opacity="1" /><path clip-path="url(#clip880)" d="M459.461 438.709 L481.683 438.709 L481.683 440.699 L469.137 473.269 L464.253 473.269 L476.058 442.644 L459.461 442.644 L459.461 438.709 Z" fill="#000000" fill-rule="nonzero" fill-opacity="1" /><path clip-path="url(#clip880)" d="M500.155 437.25 L500.155 479.519 L490.34 479.519 L490.34 476.208 L495.873 476.208 L495.873 440.56 L490.34 440.56 L490.34 437.25 L500.155 437.25 Z" fill="#000000" fill-rule="nonzero" fill-opacity="1" /><polyline clip-path="url(#clip880)" style="stroke:#c68125; stroke-linecap:round; stroke-linejoin:round; stroke-width:4; stroke-opacity:1; fill:none" points="239.009,507.829 386.48,507.829 "/>
<path clip-path="url(#clip880)" d="M411.058 514.877 L411.058 499.183 L415.318 499.183 L415.318 514.715 Q415.318 518.396 416.753 520.248 Q418.188 522.076 421.058 522.076 Q424.507 522.076 426.498 519.877 Q428.512 517.678 428.512 513.882 L428.512 499.183 L432.771 499.183 L432.771 525.109 L428.512 525.109 L428.512 521.127 Q426.961 523.488 424.901 524.646 Q422.864 525.78 420.156 525.78 Q415.688 525.78 413.373 523.002 Q411.058 520.224 411.058 514.877 M421.776 498.558 L421.776 498.558 Z" fill="#000000" fill-rule="nonzero" fill-opacity="1" /><path clip-path="url(#clip880)" d="M441.151 489.09 L450.966 489.09 L450.966 492.4 L445.41 492.4 L445.41 528.048 L450.966 528.048 L450.966 531.359 L441.151 531.359 L441.151 489.09 Z" fill="#000000" fill-rule="nonzero" fill-opacity="1" /><path clip-path="url(#clip880)" d="M470.641 508.697 Q467.308 508.697 465.387 510.479 Q463.489 512.261 463.489 515.386 Q463.489 518.511 465.387 520.294 Q467.308 522.076 470.641 522.076 Q473.975 522.076 475.896 520.294 Q477.817 518.488 477.817 515.386 Q477.817 512.261 475.896 510.479 Q473.998 508.697 470.641 508.697 M465.966 506.706 Q462.956 505.965 461.267 503.905 Q459.6 501.845 459.6 498.882 Q459.6 494.738 462.54 492.331 Q465.503 489.924 470.641 489.924 Q475.803 489.924 478.743 492.331 Q481.683 494.738 481.683 498.882 Q481.683 501.845 479.993 503.905 Q478.327 505.965 475.341 506.706 Q478.72 507.493 480.595 509.785 Q482.493 512.076 482.493 515.386 Q482.493 520.41 479.415 523.095 Q476.359 525.78 470.641 525.78 Q464.924 525.78 461.845 523.095 Q458.79 520.41 458.79 515.386 Q458.79 512.076 460.688 509.785 Q462.586 507.493 465.966 506.706 M464.253 499.322 Q464.253 502.007 465.919 503.512 Q467.609 505.016 470.641 505.016 Q473.651 505.016 475.341 503.512 Q477.053 502.007 477.053 499.322 Q477.053 496.637 475.341 495.132 Q473.651 493.627 470.641 493.627 Q467.609 493.627 465.919 495.132 Q464.253 496.637 464.253 499.322 Z" fill="#000000" fill-rule="nonzero" fill-opacity="1" /><path clip-path="url(#clip880)" d="M500.155 489.09 L500.155 531.359 L490.34 531.359 L490.34 528.048 L495.873 528.048 L495.873 492.4 L490.34 492.4 L490.34 489.09 L500.155 489.09 Z" fill="#000000" fill-rule="nonzero" fill-opacity="1" /><polyline clip-path="url(#clip880)" style="stroke:#00a98d; stroke-linecap:round; stroke-linejoin:round; stroke-width:4; stroke-opacity:1; fill:none" points="239.009,559.669 386.48,559.669 "/>
<path clip-path="url(#clip880)" d="M411.058 566.717 L411.058 551.023 L415.318 551.023 L415.318 566.555 Q415.318 570.236 416.753 572.088 Q418.188 573.916 421.058 573.916 Q424.507 573.916 426.498 571.717 Q428.512 569.518 428.512 565.722 L428.512 551.023 L432.771 551.023 L432.771 576.949 L428.512 576.949 L428.512 572.967 Q426.961 575.328 424.901 576.486 Q422.864 577.62 420.156 577.62 Q415.688 577.62 413.373 574.842 Q411.058 572.064 411.058 566.717 M421.776 550.398 L421.776 550.398 Z" fill="#000000" fill-rule="nonzero" fill-opacity="1" /><path clip-path="url(#clip880)" d="M441.151 540.93 L450.966 540.93 L450.966 544.24 L445.41 544.24 L445.41 579.888 L450.966 579.888 L450.966 583.199 L441.151 583.199 L441.151 540.93 Z" fill="#000000" fill-rule="nonzero" fill-opacity="1" /><path clip-path="url(#clip880)" d="M460.78 576.231 L460.78 571.972 Q462.54 572.805 464.345 573.245 Q466.151 573.685 467.887 573.685 Q472.516 573.685 474.947 570.583 Q477.401 567.458 477.748 561.115 Q476.405 563.106 474.345 564.171 Q472.285 565.236 469.785 565.236 Q464.6 565.236 461.567 562.111 Q458.558 558.963 458.558 553.523 Q458.558 548.199 461.706 544.981 Q464.854 541.764 470.086 541.764 Q476.081 541.764 479.229 546.37 Q482.401 550.953 482.401 559.703 Q482.401 567.875 478.512 572.759 Q474.646 577.62 468.095 577.62 Q466.336 577.62 464.53 577.273 Q462.725 576.925 460.78 576.231 M470.086 561.578 Q473.234 561.578 475.063 559.426 Q476.915 557.273 476.915 553.523 Q476.915 549.796 475.063 547.643 Q473.234 545.467 470.086 545.467 Q466.938 545.467 465.086 547.643 Q463.257 549.796 463.257 553.523 Q463.257 557.273 465.086 559.426 Q466.938 561.578 470.086 561.578 Z" fill="#000000" fill-rule="nonzero" fill-opacity="1" /><path clip-path="url(#clip880)" d="M500.155 540.93 L500.155 583.199 L490.34 583.199 L490.34 579.888 L495.873 579.888 L495.873 544.24 L490.34 544.24 L490.34 540.93 L500.155 540.93 Z" fill="#000000" fill-rule="nonzero" fill-opacity="1" /><polyline clip-path="url(#clip880)" style="stroke:#8e971d; stroke-linecap:round; stroke-linejoin:round; stroke-width:4; stroke-opacity:1; fill:none" points="239.009,611.509 386.48,611.509 "/>
<path clip-path="url(#clip880)" d="M411.058 618.557 L411.058 602.863 L415.318 602.863 L415.318 618.395 Q415.318 622.076 416.753 623.928 Q418.188 625.756 421.058 625.756 Q424.507 625.756 426.498 623.557 Q428.512 621.358 428.512 617.562 L428.512 602.863 L432.771 602.863 L432.771 628.789 L428.512 628.789 L428.512 624.807 Q426.961 627.168 424.901 628.326 Q422.864 629.46 420.156 629.46 Q415.688 629.46 413.373 626.682 Q411.058 623.904 411.058 618.557 M421.776 602.238 L421.776 602.238 Z" fill="#000000" fill-rule="nonzero" fill-opacity="1" /><path clip-path="url(#clip880)" d="M441.151 592.77 L450.966 592.77 L450.966 596.08 L445.41 596.08 L445.41 631.728 L450.966 631.728 L450.966 635.039 L441.151 635.039 L441.151 592.77 Z" fill="#000000" fill-rule="nonzero" fill-opacity="1" /><path clip-path="url(#clip880)" d="M461.452 624.853 L469.091 624.853 L469.091 598.488 L460.78 600.155 L460.78 595.895 L469.044 594.229 L473.72 594.229 L473.72 624.853 L481.359 624.853 L481.359 628.789 L461.452 628.789 L461.452 624.853 Z" fill="#000000" fill-rule="nonzero" fill-opacity="1" /><path clip-path="url(#clip880)" d="M500.803 597.307 Q497.192 597.307 495.364 600.872 Q493.558 604.414 493.558 611.543 Q493.558 618.65 495.364 622.215 Q497.192 625.756 500.803 625.756 Q504.438 625.756 506.243 622.215 Q508.072 618.65 508.072 611.543 Q508.072 604.414 506.243 600.872 Q504.438 597.307 500.803 597.307 M500.803 593.604 Q506.614 593.604 509.669 598.21 Q512.748 602.793 512.748 611.543 Q512.748 620.27 509.669 624.877 Q506.614 629.46 500.803 629.46 Q494.993 629.46 491.915 624.877 Q488.859 620.27 488.859 611.543 Q488.859 602.793 491.915 598.21 Q494.993 593.604 500.803 593.604 Z" fill="#000000" fill-rule="nonzero" fill-opacity="1" /><path clip-path="url(#clip880)" d="M530.317 592.77 L530.317 635.039 L520.502 635.039 L520.502 631.728 L526.035 631.728 L526.035 596.08 L520.502 596.08 L520.502 592.77 L530.317 592.77 Z" fill="#000000" fill-rule="nonzero" fill-opacity="1" /></svg>
