<?xml version="1.0" encoding="utf-8"?>
<svg xmlns="http://www.w3.org/2000/svg" xmlns:xlink="http://www.w3.org/1999/xlink" width="600" height="400" viewBox="0 0 2400 1600">
<defs>
  <clipPath id="clip040">
    <rect x="0" y="0" width="2400" height="1600"/>
  </clipPath>
</defs>
<path clip-path="url(#clip040)" d="M0 1600 L2400 1600 L2400 0 L0 0  Z" fill="#ffffff" fill-rule="evenodd" fill-opacity="1"/>
<defs>
  <clipPath id="clip041">
    <rect x="480" y="0" width="1681" height="1600"/>
  </clipPath>
</defs>
<path clip-path="url(#clip040)" d="M110.858 1486.45 L2352.76 1486.45 L2352.76 47.2441 L110.858 47.2441  Z" fill="#ffffff" fill-rule="evenodd" fill-opacity="1"/>
<defs>
  <clipPath id="clip042">
    <rect x="110" y="47" width="2243" height="1440"/>
  </clipPath>
</defs>
<polyline clip-path="url(#clip042)" style="stroke:#000000; stroke-linecap:round; stroke-linejoin:round; stroke-width:2; stroke-opacity:0.1; fill:none" points="172.462,1486.45 172.462,47.2441 "/>
<polyline clip-path="url(#clip042)" style="stroke:#000000; stroke-linecap:round; stroke-linejoin:round; stroke-width:2; stroke-opacity:0.1; fill:none" points="633.849,1486.45 633.849,47.2441 "/>
<polyline clip-path="url(#clip042)" style="stroke:#000000; stroke-linecap:round; stroke-linejoin:round; stroke-width:2; stroke-opacity:0.1; fill:none" points="1095.24,1486.45 1095.24,47.2441 "/>
<polyline clip-path="url(#clip042)" style="stroke:#000000; stroke-linecap:round; stroke-linejoin:round; stroke-width:2; stroke-opacity:0.1; fill:none" points="1556.62,1486.45 1556.62,47.2441 "/>
<polyline clip-path="url(#clip042)" style="stroke:#000000; stroke-linecap:round; stroke-linejoin:round; stroke-width:2; stroke-opacity:0.1; fill:none" points="2018.01,1486.45 2018.01,47.2441 "/>
<polyline clip-path="url(#clip042)" style="stroke:#000000; stroke-linecap:round; stroke-linejoin:round; stroke-width:2; stroke-opacity:0.1; fill:none" points="110.858,1445.72 2352.76,1445.72 "/>
<polyline clip-path="url(#clip042)" style="stroke:#000000; stroke-linecap:round; stroke-linejoin:round; stroke-width:2; stroke-opacity:0.1; fill:none" points="110.858,1061.57 2352.76,1061.57 "/>
<polyline clip-path="url(#clip042)" style="stroke:#000000; stroke-linecap:round; stroke-linejoin:round; stroke-width:2; stroke-opacity:0.1; fill:none" points="110.858,677.419 2352.76,677.419 "/>
<polyline clip-path="url(#clip042)" style="stroke:#000000; stroke-linecap:round; stroke-linejoin:round; stroke-width:2; stroke-opacity:0.1; fill:none" points="110.858,293.271 2352.76,293.271 "/>
<polyline clip-path="url(#clip040)" style="stroke:#000000; stroke-linecap:round; stroke-linejoin:round; stroke-width:4; stroke-opacity:1; fill:none" points="110.858,1486.45 2352.76,1486.45 "/>
<polyline clip-path="url(#clip040)" style="stroke:#000000; stroke-linecap:round; stroke-linejoin:round; stroke-width:4; stroke-opacity:1; fill:none" points="172.462,1486.45 172.462,1467.55 "/>
<polyline clip-path="url(#clip040)" style="stroke:#000000; stroke-linecap:round; stroke-linejoin:round; stroke-width:4; stroke-opacity:1; fill:none" points="633.849,1486.45 633.849,1467.55 "/>
<polyline clip-path="url(#clip040)" style="stroke:#000000; stroke-linecap:round; stroke-linejoin:round; stroke-width:4; stroke-opacity:1; fill:none" points="1095.24,1486.45 1095.24,1467.55 "/>
<polyline clip-path="url(#clip040)" style="stroke:#000000; stroke-linecap:round; stroke-linejoin:round; stroke-width:4; stroke-opacity:1; fill:none" points="1556.62,1486.45 1556.62,1467.55 "/>
<polyline clip-path="url(#clip040)" style="stroke:#000000; stroke-linecap:round; stroke-linejoin:round; stroke-width:4; stroke-opacity:1; fill:none" points="2018.01,1486.45 2018.01,1467.55 "/>
<path clip-path="url(#clip040)" d="M172.462 1517.37 Q168.851 1517.37 167.022 1520.93 Q165.217 1524.47 165.217 1531.6 Q165.217 1538.71 167.022 1542.27 Q168.851 1545.82 172.462 1545.82 Q176.096 1545.82 177.902 1542.27 Q179.731 1538.71 179.731 1531.6 Q179.731 1524.47 177.902 1520.93 Q176.096 1517.37 172.462 1517.37 M172.462 1513.66 Q178.272 1513.66 181.328 1518.27 Q184.407 1522.85 184.407 1531.6 Q184.407 1540.33 181.328 1544.94 Q178.272 1549.52 172.462 1549.52 Q166.652 1549.52 163.573 1544.94 Q160.518 1540.33 160.518 1531.6 Q160.518 1522.85 163.573 1518.27 Q166.652 1513.66 172.462 1513.66 Z" fill="#000000" fill-rule="nonzero" fill-opacity="1" /><path clip-path="url(#clip040)" d="M597.542 1544.91 L613.861 1544.91 L613.861 1548.85 L591.917 1548.85 L591.917 1544.91 Q594.579 1542.16 599.162 1537.53 Q603.768 1532.88 604.949 1531.53 Q607.194 1529.01 608.074 1527.27 Q608.977 1525.51 608.977 1523.82 Q608.977 1521.07 607.032 1519.33 Q605.111 1517.6 602.009 1517.6 Q599.81 1517.6 597.356 1518.36 Q594.926 1519.13 592.148 1520.68 L592.148 1515.95 Q594.972 1514.82 597.426 1514.24 Q599.879 1513.66 601.916 1513.66 Q607.287 1513.66 610.481 1516.35 Q613.676 1519.03 613.676 1523.52 Q613.676 1525.65 612.866 1527.57 Q612.078 1529.47 609.972 1532.07 Q609.393 1532.74 606.291 1535.95 Q603.19 1539.15 597.542 1544.91 Z" fill="#000000" fill-rule="nonzero" fill-opacity="1" /><path clip-path="url(#clip040)" d="M623.722 1514.29 L642.078 1514.29 L642.078 1518.22 L628.004 1518.22 L628.004 1526.7 Q629.023 1526.35 630.041 1526.19 Q631.06 1526 632.078 1526 Q637.865 1526 641.245 1529.17 Q644.625 1532.34 644.625 1537.76 Q644.625 1543.34 641.152 1546.44 Q637.68 1549.52 631.361 1549.52 Q629.185 1549.52 626.916 1549.15 Q624.671 1548.78 622.264 1548.04 L622.264 1543.34 Q624.347 1544.47 626.569 1545.03 Q628.791 1545.58 631.268 1545.58 Q635.273 1545.58 637.611 1543.48 Q639.949 1541.37 639.949 1537.76 Q639.949 1534.15 637.611 1532.04 Q635.273 1529.94 631.268 1529.94 Q629.393 1529.94 627.518 1530.35 Q625.666 1530.77 623.722 1531.65 L623.722 1514.29 Z" fill="#000000" fill-rule="nonzero" fill-opacity="1" /><path clip-path="url(#clip040)" d="M663.837 1517.37 Q660.226 1517.37 658.398 1520.93 Q656.592 1524.47 656.592 1531.6 Q656.592 1538.71 658.398 1542.27 Q660.226 1545.82 663.837 1545.82 Q667.472 1545.82 669.277 1542.27 Q671.106 1538.71 671.106 1531.6 Q671.106 1524.47 669.277 1520.93 Q667.472 1517.37 663.837 1517.37 M663.837 1513.66 Q669.648 1513.66 672.703 1518.27 Q675.782 1522.85 675.782 1531.6 Q675.782 1540.33 672.703 1544.94 Q669.648 1549.52 663.837 1549.52 Q658.027 1549.52 654.949 1544.94 Q651.893 1540.33 651.893 1531.6 Q651.893 1522.85 654.949 1518.27 Q658.027 1513.66 663.837 1513.66 Z" fill="#000000" fill-rule="nonzero" fill-opacity="1" /><path clip-path="url(#clip040)" d="M1054.85 1514.29 L1073.21 1514.29 L1073.21 1518.22 L1059.14 1518.22 L1059.14 1526.7 Q1060.16 1526.35 1061.17 1526.19 Q1062.19 1526 1063.21 1526 Q1069 1526 1072.38 1529.17 Q1075.76 1532.34 1075.76 1537.76 Q1075.76 1543.34 1072.28 1546.44 Q1068.81 1549.52 1062.49 1549.52 Q1060.32 1549.52 1058.05 1549.15 Q1055.8 1548.78 1053.4 1548.04 L1053.4 1543.34 Q1055.48 1544.47 1057.7 1545.03 Q1059.92 1545.58 1062.4 1545.58 Q1066.41 1545.58 1068.74 1543.48 Q1071.08 1541.37 1071.08 1537.76 Q1071.08 1534.15 1068.74 1532.04 Q1066.41 1529.94 1062.4 1529.94 Q1060.53 1529.94 1058.65 1530.35 Q1056.8 1530.77 1054.85 1531.65 L1054.85 1514.29 Z" fill="#000000" fill-rule="nonzero" fill-opacity="1" /><path clip-path="url(#clip040)" d="M1094.97 1517.37 Q1091.36 1517.37 1089.53 1520.93 Q1087.72 1524.47 1087.72 1531.6 Q1087.72 1538.71 1089.53 1542.27 Q1091.36 1545.82 1094.97 1545.82 Q1098.6 1545.82 1100.41 1542.27 Q1102.24 1538.71 1102.24 1531.6 Q1102.24 1524.47 1100.41 1520.93 Q1098.6 1517.37 1094.97 1517.37 M1094.97 1513.66 Q1100.78 1513.66 1103.84 1518.27 Q1106.91 1522.85 1106.91 1531.6 Q1106.91 1540.33 1103.84 1544.94 Q1100.78 1549.52 1094.97 1549.52 Q1089.16 1549.52 1086.08 1544.94 Q1083.03 1540.33 1083.03 1531.6 Q1083.03 1522.85 1086.08 1518.27 Q1089.16 1513.66 1094.97 1513.66 Z" fill="#000000" fill-rule="nonzero" fill-opacity="1" /><path clip-path="url(#clip040)" d="M1125.13 1517.37 Q1121.52 1517.37 1119.69 1520.93 Q1117.89 1524.47 1117.89 1531.6 Q1117.89 1538.71 1119.69 1542.27 Q1121.52 1545.82 1125.13 1545.82 Q1128.77 1545.82 1130.57 1542.27 Q1132.4 1538.71 1132.4 1531.6 Q1132.4 1524.47 1130.57 1520.93 Q1128.77 1517.37 1125.13 1517.37 M1125.13 1513.66 Q1130.94 1513.66 1134 1518.27 Q1137.08 1522.85 1137.08 1531.6 Q1137.08 1540.33 1134 1544.94 Q1130.94 1549.52 1125.13 1549.52 Q1119.32 1549.52 1116.24 1544.94 Q1113.19 1540.33 1113.19 1531.6 Q1113.19 1522.85 1116.24 1518.27 Q1119.32 1513.66 1125.13 1513.66 Z" fill="#000000" fill-rule="nonzero" fill-opacity="1" /><path clip-path="url(#clip040)" d="M1514.9 1514.29 L1537.12 1514.29 L1537.12 1516.28 L1524.57 1548.85 L1519.69 1548.85 L1531.5 1518.22 L1514.9 1518.22 L1514.9 1514.29 Z" fill="#000000" fill-rule="nonzero" fill-opacity="1" /><path clip-path="url(#clip040)" d="M1546.29 1514.29 L1564.64 1514.29 L1564.64 1518.22 L1550.57 1518.22 L1550.57 1526.7 Q1551.59 1526.35 1552.61 1526.19 Q1553.63 1526 1554.64 1526 Q1560.43 1526 1563.81 1529.17 Q1567.19 1532.34 1567.19 1537.76 Q1567.19 1543.34 1563.72 1546.44 Q1560.25 1549.52 1553.93 1549.52 Q1551.75 1549.52 1549.48 1549.15 Q1547.24 1548.78 1544.83 1548.04 L1544.83 1543.34 Q1546.91 1544.47 1549.13 1545.03 Q1551.36 1545.58 1553.83 1545.58 Q1557.84 1545.58 1560.18 1543.48 Q1562.51 1541.37 1562.51 1537.76 Q1562.51 1534.15 1560.18 1532.04 Q1557.84 1529.94 1553.83 1529.94 Q1551.96 1529.94 1550.08 1530.35 Q1548.23 1530.77 1546.29 1531.65 L1546.29 1514.29 Z" fill="#000000" fill-rule="nonzero" fill-opacity="1" /><path clip-path="url(#clip040)" d="M1586.4 1517.37 Q1582.79 1517.37 1580.96 1520.93 Q1579.16 1524.47 1579.16 1531.6 Q1579.16 1538.71 1580.96 1542.27 Q1582.79 1545.82 1586.4 1545.82 Q1590.04 1545.82 1591.84 1542.27 Q1593.67 1538.71 1593.67 1531.6 Q1593.67 1524.47 1591.84 1520.93 Q1590.04 1517.37 1586.4 1517.37 M1586.4 1513.66 Q1592.21 1513.66 1595.27 1518.27 Q1598.35 1522.85 1598.35 1531.6 Q1598.35 1540.33 1595.27 1544.94 Q1592.21 1549.52 1586.4 1549.52 Q1580.59 1549.52 1577.51 1544.94 Q1574.46 1540.33 1574.46 1531.6 Q1574.46 1522.85 1577.51 1518.27 Q1580.59 1513.66 1586.4 1513.66 Z" fill="#000000" fill-rule="nonzero" fill-opacity="1" /><path clip-path="url(#clip040)" d="M1962.54 1544.91 L1970.17 1544.91 L1970.17 1518.55 L1961.86 1520.21 L1961.86 1515.95 L1970.13 1514.29 L1974.8 1514.29 L1974.8 1544.91 L1982.44 1544.91 L1982.44 1548.85 L1962.54 1548.85 L1962.54 1544.91 Z" fill="#000000" fill-rule="nonzero" fill-opacity="1" /><path clip-path="url(#clip040)" d="M2001.89 1517.37 Q1998.28 1517.37 1996.45 1520.93 Q1994.64 1524.47 1994.64 1531.6 Q1994.64 1538.71 1996.45 1542.27 Q1998.28 1545.82 2001.89 1545.82 Q2005.52 1545.82 2007.33 1542.27 Q2009.16 1538.71 2009.16 1531.6 Q2009.16 1524.47 2007.33 1520.93 Q2005.52 1517.37 2001.89 1517.37 M2001.89 1513.66 Q2007.7 1513.66 2010.75 1518.27 Q2013.83 1522.85 2013.83 1531.6 Q2013.83 1540.33 2010.75 1544.94 Q2007.7 1549.52 2001.89 1549.52 Q1996.08 1549.52 1993 1544.94 Q1989.94 1540.33 1989.94 1531.6 Q1989.94 1522.85 1993 1518.27 Q1996.08 1513.66 2001.89 1513.66 Z" fill="#000000" fill-rule="nonzero" fill-opacity="1" /><path clip-path="url(#clip040)" d="M2032.05 1517.37 Q2028.44 1517.37 2026.61 1520.93 Q2024.8 1524.47 2024.8 1531.6 Q2024.8 1538.71 2026.61 1542.27 Q2028.44 1545.82 2032.05 1545.82 Q2035.68 1545.82 2037.49 1542.27 Q2039.32 1538.71 2039.32 1531.6 Q2039.32 1524.47 2037.49 1520.93 Q2035.68 1517.37 2032.05 1517.37 M2032.05 1513.66 Q2037.86 1513.66 2040.92 1518.27 Q2043.99 1522.85 2043.99 1531.6 Q2043.99 1540.33 2040.92 1544.94 Q2037.86 1549.52 2032.05 1549.52 Q2026.24 1549.52 2023.16 1544.94 Q2020.11 1540.33 2020.11 1531.6 Q2020.11 1522.85 2023.16 1518.27 Q2026.24 1513.66 2032.05 1513.66 Z" fill="#000000" fill-rule="nonzero" fill-opacity="1" /><path clip-path="url(#clip040)" d="M2062.21 1517.37 Q2058.6 1517.37 2056.77 1520.93 Q2054.97 1524.47 2054.97 1531.6 Q2054.97 1538.71 2056.77 1542.27 Q2058.6 1545.82 2062.21 1545.82 Q2065.85 1545.82 2067.65 1542.27 Q2069.48 1538.71 2069.48 1531.6 Q2069.48 1524.47 2067.65 1520.93 Q2065.85 1517.37 2062.21 1517.37 M2062.21 1513.66 Q2068.02 1513.66 2071.08 1518.27 Q2074.16 1522.85 2074.16 1531.6 Q2074.16 1540.33 2071.08 1544.94 Q2068.02 1549.52 2062.21 1549.52 Q2056.4 1549.52 2053.32 1544.94 Q2050.27 1540.33 2050.27 1531.6 Q2050.27 1522.85 2053.32 1518.27 Q2056.4 1513.66 2062.21 1513.66 Z" fill="#000000" fill-rule="nonzero" fill-opacity="1" /><polyline clip-path="url(#clip040)" style="stroke:#000000; stroke-linecap:round; stroke-linejoin:round; stroke-width:4; stroke-opacity:1; fill:none" points="110.858,1486.45 110.858,47.2441 "/>
<polyline clip-path="url(#clip040)" style="stroke:#000000; stroke-linecap:round; stroke-linejoin:round; stroke-width:4; stroke-opacity:1; fill:none" points="110.858,1445.72 129.755,1445.72 "/>
<polyline clip-path="url(#clip040)" style="stroke:#000000; stroke-linecap:round; stroke-linejoin:round; stroke-width:4; stroke-opacity:1; fill:none" points="110.858,1061.57 129.755,1061.57 "/>
<polyline clip-path="url(#clip040)" style="stroke:#000000; stroke-linecap:round; stroke-linejoin:round; stroke-width:4; stroke-opacity:1; fill:none" points="110.858,677.419 129.755,677.419 "/>
<polyline clip-path="url(#clip040)" style="stroke:#000000; stroke-linecap:round; stroke-linejoin:round; stroke-width:4; stroke-opacity:1; fill:none" points="110.858,293.271 129.755,293.271 "/>
<path clip-path="url(#clip040)" d="M53.9551 1428.44 L72.3115 1428.44 L72.3115 1432.37 L58.2375 1432.37 L58.2375 1440.84 Q59.256 1440.5 60.2745 1440.33 Q61.293 1440.15 62.3115 1440.15 Q68.0985 1440.15 71.4781 1443.32 Q74.8577 1446.49 74.8577 1451.91 Q74.8577 1457.49 71.3855 1460.59 Q67.9133 1463.67 61.5939 1463.67 Q59.418 1463.67 57.1495 1463.3 Q54.9041 1462.93 52.4967 1462.19 L52.4967 1457.49 Q54.5801 1458.62 56.8023 1459.18 Q59.0245 1459.73 61.5013 1459.73 Q65.5059 1459.73 67.8439 1457.63 Q70.1818 1455.52 70.1818 1451.91 Q70.1818 1448.3 67.8439 1446.19 Q65.5059 1444.08 61.5013 1444.08 Q59.6263 1444.08 57.7513 1444.5 Q55.8995 1444.92 53.9551 1445.8 L53.9551 1428.44 Z" fill="#000000" fill-rule="nonzero" fill-opacity="1" /><path clip-path="url(#clip040)" d="M63.33 1059.7 Q60.1819 1059.7 58.33 1061.86 Q56.5014 1064.01 56.5014 1067.76 Q56.5014 1071.49 58.33 1073.66 Q60.1819 1075.81 63.33 1075.81 Q66.4782 1075.81 68.3068 1073.66 Q70.1587 1071.49 70.1587 1067.76 Q70.1587 1064.01 68.3068 1061.86 Q66.4782 1059.7 63.33 1059.7 M72.6124 1045.05 L72.6124 1049.31 Q70.8531 1048.48 69.0476 1048.04 Q67.2652 1047.6 65.5059 1047.6 Q60.8763 1047.6 58.4226 1050.72 Q55.9921 1053.85 55.6449 1060.17 Q57.0106 1058.15 59.0708 1057.09 Q61.131 1056 63.6078 1056 Q68.8161 1056 71.8253 1059.17 Q74.8577 1062.32 74.8577 1067.76 Q74.8577 1073.08 71.7096 1076.3 Q68.5615 1079.52 63.33 1079.52 Q57.3347 1079.52 54.1634 1074.94 Q50.9921 1070.33 50.9921 1061.6 Q50.9921 1053.41 54.881 1048.55 Q58.7699 1043.66 65.3208 1043.66 Q67.08 1043.66 68.8624 1044.01 Q70.6679 1044.36 72.6124 1045.05 Z" fill="#000000" fill-rule="nonzero" fill-opacity="1" /><path clip-path="url(#clip040)" d="M52.6356 660.139 L74.8577 660.139 L74.8577 662.13 L62.3115 694.699 L57.4273 694.699 L69.2328 664.074 L52.6356 664.074 L52.6356 660.139 Z" fill="#000000" fill-rule="nonzero" fill-opacity="1" /><path clip-path="url(#clip040)" d="M63.006 294.139 Q59.6726 294.139 57.7513 295.921 Q55.8532 297.704 55.8532 300.829 Q55.8532 303.954 57.7513 305.736 Q59.6726 307.518 63.006 307.518 Q66.3393 307.518 68.2606 305.736 Q70.1818 303.93 70.1818 300.829 Q70.1818 297.704 68.2606 295.921 Q66.3624 294.139 63.006 294.139 M58.33 292.148 Q55.3208 291.407 53.631 289.347 Q51.9643 287.287 51.9643 284.324 Q51.9643 280.181 54.9041 277.773 Q57.8671 275.366 63.006 275.366 Q68.168 275.366 71.1078 277.773 Q74.0476 280.181 74.0476 284.324 Q74.0476 287.287 72.3578 289.347 Q70.6911 291.407 67.705 292.148 Q71.0846 292.935 72.9596 295.227 Q74.8577 297.518 74.8577 300.829 Q74.8577 305.852 71.7791 308.537 Q68.7235 311.222 63.006 311.222 Q57.2884 311.222 54.2097 308.537 Q51.1542 305.852 51.1542 300.829 Q51.1542 297.518 53.0523 295.227 Q54.9504 292.935 58.33 292.148 M56.6171 284.764 Q56.6171 287.449 58.2838 288.954 Q59.9736 290.458 63.006 290.458 Q66.0152 290.458 67.705 288.954 Q69.418 287.449 69.418 284.764 Q69.418 282.079 67.705 280.574 Q66.0152 279.069 63.006 279.069 Q59.9736 279.069 58.2838 280.574 Q56.6171 282.079 56.6171 284.764 Z" fill="#000000" fill-rule="nonzero" fill-opacity="1" /><polyline clip-path="url(#clip042)" style="stroke:#009af9; stroke-linecap:round; stroke-linejoin:round; stroke-width:4; stroke-opacity:1; fill:none" points="174.308,1445.72 176.153,1445.72 177.999,1445.72 179.844,1445.72 181.69,1445.72 183.535,1292.06 185.381,1292.06 187.227,1181.23 189.072,1181.23 190.918,1106.35 192.763,1157.07 194.609,1157.07 196.454,1050.73 198.3,1058.92 200.145,1058.92 201.991,914.626 203.836,914.626 205.682,867.475 207.528,867.475 209.373,755.336 211.219,828.859 213.064,828.859 214.91,733.784 216.755,801.669 218.601,918.415 220.446,1014 222.292,1014 224.137,914.633 225.983,948.352 227.829,948.352 229.674,796.557 231.52,796.557 233.365,751.953 235.211,805.956 237.056,805.956 238.902,699.028 240.747,826.328 242.593,938.604 244.439,938.604 246.284,880.828 248.13,965.169 249.975,965.169 251.821,827.873 253.666,827.873 255.512,733.32 257.357,778.019 259.203,778.019 261.048,682.647 262.894,761.213 264.74,885.293 266.585,885.293 268.431,774.407 270.276,850.679 272.122,958.541 273.967,958.541 275.813,864.872 277.658,903.378 279.504,903.378 281.349,906.504 283.195,906.504 285.041,755.208 286.886,779.697 288.732,900.426 290.577,999.27 292.423,999.27 294.268,958.632 296.114,1011.75 297.959,1011.75 299.805,936.07 301.651,1027.34 303.496,1027.34 305.342,1018.7 307.187,1028.03 309.033,1028.03 310.878,893.648 312.724,971.847 314.569,1057.74 316.415,1057.74 318.26,913.688 320.106,913.688 321.952,777.092 323.797,777.092 325.643,632.121 327.488,730.774 329.334,860.371 331.179,966.476 333.025,1053.35 334.87,1124.47 336.716,1182.7 338.561,1230.38 340.407,1269.41 342.253,1269.41 344.098,1212.96 345.944,1230.25 347.789,1269.31 349.635,1269.31 351.48,1154.07 353.326,1206.93 355.171,1250.21 357.017,1250.21 358.863,1108.74 360.708,1151.49 362.554,1204.82 364.399,1204.82 366.245,1102.37 368.09,1148.84 369.936,1148.84 371.781,1100.73 373.627,1100.73 375.472,990.425 377.318,990.425 379.164,847.449 381.009,882.343 382.855,882.343 384.7,865.48 386.546,870.148 388.391,974.481 390.237,1059.9 392.082,1129.84 393.928,1187.1 395.773,1233.98 397.619,1272.36 399.465,1272.36 401.31,1205.73 403.156,1205.73 405.001,1060.44 406.847,1098.45 408.692,1161.4 410.538,1212.93 412.383,1255.13 414.229,1289.68 416.075,1317.96 417.92,1341.12 419.766,1341.12 421.611,1191.12 423.457,1229.71 425.302,1229.71 427.148,1115.6 428.993,1115.6 430.839,1000.69 432.684,1030.72 434.53,1105.95 436.376,1105.95 438.221,1026.97 440.067,1061.91 441.912,1131.48 443.758,1188.44 445.603,1188.44 447.449,1113.35 449.294,1113.35 451.14,988.656 452.985,988.656 454.831,872.569 456.677,881.82 458.522,984.037 460.368,1067.73 462.213,1067.73 464.059,962.165 465.904,992.095 467.75,1074.32 469.595,1074.32 471.441,933.002 473.287,1011.52 475.132,1090.22 476.978,1154.66 478.823,1154.66 480.669,1012.88 482.514,1076.26 484.36,1143.23 486.205,1143.23 488.051,1018.09 489.896,1059.16 491.742,1059.16 493.588,974.888 495.433,1026.66 497.279,1102.62 499.124,1102.62 500.97,954.185 502.815,954.185 504.661,878.84 506.506,972.999 508.352,1058.69 510.197,1058.69 512.043,919.499 513.889,998.152 515.734,1079.28 517.58,1145.7 519.425,1145.7 521.271,1016.51 523.116,1063.11 524.962,1063.11 526.807,997.386 528.653,1067.68 530.498,1136.21 532.344,1136.21 534.19,1078.23 536.035,1125.33 537.881,1183.41 539.726,1230.96 541.572,1269.88 543.417,1269.88 545.263,1170.91 547.108,1197.78 548.954,1242.72 550.8,1279.52 552.645,1309.65 554.491,1309.65 556.336,1196.22 558.182,1196.22 560.027,1081.76 561.873,1142.74 563.718,1197.66 565.564,1197.66 567.409,1047.51 569.255,1047.51 571.101,909.571 572.946,909.571 574.792,849.168 576.637,871.172 578.483,975.319 580.328,975.319 582.174,892.748 584.019,959.19 585.865,1047.38 587.71,1047.38 589.556,939.943 591.402,939.943 593.247,804.346 595.093,829.678 596.938,941.347 598.784,941.347 600.629,877.02 602.475,879.89 604.32,879.89 606.166,740.851 608.012,740.851 609.857,638.377 611.703,638.377 613.548,490.805 615.394,622.145 617.239,622.145 619.085,584.52 620.93,584.52 622.776,479.295 624.621,605.15 626.467,605.15 628.313,525.062 630.158,525.062 632.004,451.619 633.849,468.613 635.695,645.731 637.54,645.731 639.386,566.627 641.231,652.009 643.077,652.009 644.922,532.992 646.768,664.336 648.614,805.976 650.459,921.942 652.305,921.942 654.15,912.081 655.996,944.761 657.841,944.761 659.687,825.068 661.532,900.613 663.378,900.613 665.224,817.349 667.069,854.961 668.915,962.047 670.76,1049.72 672.606,1049.72 674.451,928.053 676.297,984.641 678.142,984.641 679.988,910.422 681.833,916.226 683.679,1012.21 685.525,1090.79 687.37,1090.79 689.216,995.703 691.061,1055.09 692.907,1125.9 694.752,1183.87 696.598,1183.87 698.443,1133.23 700.289,1161.44 702.134,1161.44 703.98,1023.47 705.826,1079.82 707.671,1079.82 709.517,941.415 711.362,941.415 713.208,811.025 715.053,877.24 716.899,877.24 718.744,780.799 720.59,840.402 722.436,840.402 724.281,708.555 726.127,708.555 727.972,599.874 729.818,599.874 731.663,521.844 733.509,527.993 735.354,527.993 737.2,426.182 739.045,426.182 740.891,357.359 742.737,357.359 744.582,347.513 746.428,387.187 748.273,387.187 750.119,347.829 751.964,438.031 753.81,438.031 755.655,292.919 757.501,292.919 759.346,179.654 761.192,179.654 763.038,152.901 764.883,152.901 766.729,87.9763 768.574,146.876 770.42,146.876 772.265,168.71 774.111,168.71 775.956,146.826 777.802,160.857 779.648,393.762 781.493,393.762 783.339,372.058 785.184,480.886 787.03,655.78 788.875,655.78 790.721,573.804 792.566,700.468 794.412,700.468 796.257,659.205 798.103,659.205 799.949,588.133 801.794,588.133 803.64,466.825 805.485,468.496 807.331,645.636 809.176,790.666 811.022,790.666 812.867,686.124 814.713,686.124 816.558,564.036 818.404,631.501 820.25,779.093 822.095,779.093 823.941,731.36 825.786,794.945 827.632,794.945 829.477,736.093 831.323,736.093 833.168,675.519 835.014,782.013 836.86,782.013 838.705,648.48 840.551,772.582 842.396,772.582 844.242,717.71 846.087,717.71 847.933,575.172 849.778,650.605 851.624,650.605 853.469,632.665 855.315,643.035 857.161,788.536 859.006,907.663 860.852,907.663 862.697,827.246 864.543,904.311 866.388,1002.45 868.234,1002.45 870.079,954.661 871.925,1015.49 873.77,1015.49 875.616,971.654 877.462,971.654 879.307,867.26 881.153,873.29 882.998,873.29 884.844,766.306 886.689,840.079 888.535,949.862 890.38,949.862 892.226,871.435 894.071,891.438 895.917,991.912 897.763,1074.17 899.608,1141.52 901.454,1196.66 903.299,1196.66 905.145,1077.72 906.99,1095.62 908.836,1159.08 910.681,1211.04 912.527,1211.04 914.373,1059.1 916.218,1059.1 918.064,1020.26 919.909,1020.26 921.755,899.303 923.6,904.329 925.446,904.329 927.291,825.747 929.137,856.405 930.982,963.229 932.828,963.229 934.674,834.562 936.519,918.011 938.365,1013.67 940.21,1013.67 942.056,902.995 943.901,952.279 945.747,952.279 947.592,844.968 949.438,844.968 951.283,706.294 953.129,814.695 954.975,814.695 956.82,711.374 958.666,792.368 960.511,792.368 962.357,645.762 964.202,645.762 966.048,626.994 967.893,715.056 969.739,715.056 971.585,632.803 973.43,632.803 975.276,562.434 977.121,601.891 978.967,601.891 980.812,451.56 982.658,451.56 984.503,544.531 986.349,552.386 988.194,714.319 990.04,714.319 991.886,604.421 993.731,713.087 995.577,845.89 997.422,954.62 999.268,1043.64 1001.11,1116.52 1002.96,1116.52 1004.8,1079.03 1006.65,1079.03 1008.5,1015.68 1010.34,1030.59 1012.19,1030.59 1014.03,915.509 1015.88,915.509 1017.72,841.065 1019.57,897.486 1021.41,897.486 1023.26,748.776 1025.11,869.912 1026.95,974.287 1028.8,1059.74 1030.64,1059.74 1032.49,913.276 1034.33,1001.51 1036.18,1082.03 1038.02,1082.03 1039.87,988.793 1041.72,988.793 1043.56,926.027 1045.41,978.447 1047.25,1063.15 1049.1,1132.5 1050.94,1132.5 1052.79,1001.73 1054.63,1053.55 1056.48,1124.64 1058.33,1182.84 1060.17,1182.84 1062.02,1047.08 1063.86,1095.49 1065.71,1095.49 1067.55,945.137 1069.4,1031.97 1071.24,1031.97 1073.09,1016.36 1074.94,1033.14 1076.78,1107.93 1078.63,1169.16 1080.47,1169.16 1082.32,1034.32 1084.16,1034.32 1086.01,934.34 1087.85,979.158 1089.7,979.158 1091.55,903.307 1093.39,1000.7 1095.24,1000.7 1097.08,871.787 1098.93,871.787 1100.77,773.622 1102.62,845.175 1104.46,954.034 1106.31,954.034 1108.16,877.202 1110,894.057 1111.85,894.057 1113.69,839.776 1115.54,839.776 1117.38,744.912 1119.23,744.912 1121.07,689.833 1122.92,708.253 1124.77,841.933 1126.61,951.38 1128.46,951.38 1130.3,873.795 1132.15,873.795 1133.99,810.839 1135.84,816.108 1137.68,816.108 1139.53,663.165 1141.37,663.165 1143.22,720.799 1145.07,728.248 1146.91,858.303 1148.76,964.783 1150.6,964.783 1152.45,953.856 1154.29,979.07 1156.14,979.07 1157.98,870.072 1159.83,870.072 1161.68,729.3 1163.52,782.231 1165.37,782.231 1167.21,697.281 1169.06,803.632 1170.9,920.022 1172.75,1015.31 1174.59,1015.31 1176.44,938.253 1178.29,940.29 1180.13,940.29 1181.98,853.472 1183.82,886.93 1185.67,886.93 1187.51,845.359 1189.36,845.359 1191.2,822.449 1193.05,847.317 1194.9,847.317 1196.74,712.428 1198.59,712.428 1200.43,695.258 1202.28,713.459 1204.12,713.459 1205.97,656.736 1207.81,701.194 1209.66,701.194 1211.51,687.308 1213.35,767.441 1215.2,767.441 1217.04,743.552 1218.89,822.163 1220.73,935.194 1222.58,935.194 1224.42,786.156 1226.27,900.781 1228.12,999.561 1229.96,999.561 1231.81,916.197 1233.65,931.101 1235.5,1024.38 1237.34,1100.76 1239.19,1163.29 1241.03,1163.29 1242.88,1072.25 1244.73,1072.25 1246.57,1002.24 1248.42,1041.21 1250.26,1041.21 1252.11,923.924 1253.95,923.924 1255.8,782.326 1257.64,834.786 1259.49,834.786 1261.34,745.342 1263.18,847.015 1265.03,955.541 1266.87,1044.39 1268.72,1117.14 1270.56,1176.7 1272.41,1225.47 1274.25,1225.47 1276.1,1100.49 1277.95,1120.75 1279.79,1179.65 1281.64,1227.88 1283.48,1227.88 1285.33,1085.69 1287.17,1134.57 1289.02,1134.57 1290.86,1062.88 1292.71,1081.26 1294.56,1081.26 1296.4,1019.55 1298.25,1019.55 1300.09,985.512 1301.94,1008.75 1303.78,1008.75 1305.63,930.346 1307.47,984.917 1309.32,1068.45 1311.17,1068.45 1313.01,920.024 1314.86,920.024 1316.7,811.328 1318.55,811.328 1320.39,664.252 1322.24,664.252 1324.08,567.842 1325.93,620.435 1327.78,770.033 1329.62,770.033 1331.47,629.566 1333.31,629.566 1335.16,580.705 1337,580.705 1338.85,530.707 1340.69,541.025 1342.54,541.025 1344.39,534.248 1346.23,534.248 1348.08,420.906 1349.92,490.378 1351.77,663.551 1353.61,805.334 1355.46,921.415 1357.3,921.415 1359.15,790.28 1361,885.002 1362.84,986.642 1364.69,1069.86 1366.53,1137.99 1368.38,1137.99 1370.22,1112.38 1372.07,1118.31 1373.91,1118.31 1375.76,1092.83 1377.61,1103.05 1379.45,1165.17 1381.3,1216.02 1383.14,1257.66 1384.99,1257.66 1386.83,1104.06 1388.68,1165.9 1390.52,1165.9 1392.37,1042.9 1394.22,1075.34 1396.06,1075.34 1397.91,1026.59 1399.75,1074.41 1401.6,1141.72 1403.44,1141.72 1405.29,1085.26 1407.13,1085.26 1408.98,972.306 1410.83,977.391 1412.67,977.391 1414.52,879.554 1416.36,919.453 1418.21,1014.85 1420.05,1092.95 1421.9,1156.9 1423.74,1156.9 1425.59,1070.59 1427.43,1104.39 1429.28,1166.26 1431.13,1216.92 1432.97,1258.39 1434.82,1258.39 1436.66,1152.03 1438.51,1193.3 1440.35,1239.05 1442.2,1276.51 1444.04,1276.51 1445.89,1218.17 1447.74,1236.57 1449.58,1236.57 1451.43,1114.71 1453.27,1126.12 1455.12,1126.12 1456.96,1026.77 1458.81,1032.48 1460.65,1107.39 1462.5,1168.72 1464.35,1218.93 1466.19,1218.93 1468.04,1163.83 1469.88,1190.47 1471.73,1190.47 1473.57,1052.91 1475.42,1052.91 1477.26,900.348 1479.11,967.813 1480.96,967.813 1482.8,837.455 1484.65,922.188 1486.49,922.188 1488.34,849.782 1490.18,868.169 1492.03,972.86 1493.87,1058.57 1495.72,1128.75 1497.57,1186.21 1499.41,1233.25 1501.26,1233.25 1503.1,1180.34 1504.95,1200.88 1506.79,1245.26 1508.64,1281.6 1510.48,1311.35 1512.33,1335.7 1514.18,1355.64 1516.02,1371.97 1517.87,1385.34 1519.71,1385.34 1521.56,1235.73 1523.4,1261.43 1525.25,1294.84 1527.09,1322.19 1528.94,1344.58 1530.79,1362.91 1532.63,1362.91 1534.48,1262.07 1536.32,1263.71 1538.17,1296.7 1540.01,1323.71 1541.86,1345.83 1543.7,1363.93 1545.55,1363.93 1547.4,1212.03 1549.24,1250.2 1551.09,1250.2 1552.93,1107.46 1554.78,1107.46 1556.62,1052.98 1558.47,1081.05 1560.31,1147.15 1562.16,1201.27 1564.01,1245.58 1565.85,1281.86 1567.7,1311.56 1569.54,1311.56 1571.39,1236.74 1573.23,1236.74 1575.08,1101.96 1576.92,1131.62 1578.77,1188.56 1580.62,1235.17 1582.46,1235.17 1584.31,1082.97 1586.15,1146.65 1588,1146.65 1589.84,999.276 1591.69,999.276 1593.53,908.866 1595.38,922.639 1597.23,1017.46 1599.07,1095.09 1600.92,1158.65 1602.76,1158.65 1604.61,1099.29 1606.45,1099.29 1608.3,981.122 1610.14,994.452 1611.99,994.452 1613.84,922.268 1615.68,922.728 1617.53,922.728 1619.37,861.271 1621.22,864.798 1623.06,970.1 1624.91,1056.31 1626.75,1126.9 1628.6,1184.69 1630.45,1184.69 1632.29,1049.61 1634.14,1096.56 1635.98,1096.56 1637.83,1022.86 1639.67,1022.86 1641.52,905.717 1643.36,957.443 1645.21,957.443 1647.06,804.25 1648.9,804.25 1650.75,786.165 1652.59,850.716 1654.44,850.716 1656.28,791.173 1658.13,893.786 1659.97,893.786 1661.82,804.908 1663.67,804.908 1665.51,773.935 1667.36,774.537 1669.2,896.201 1671.05,896.201 1672.89,795.55 1674.74,795.55 1676.58,701.581 1678.43,748.614 1680.28,748.614 1682.12,644.048 1683.97,739.641 1685.81,867.63 1687.66,867.63 1689.5,802.426 1691.35,802.426 1693.19,726.995 1695.04,726.995 1696.88,577.902 1698.73,714.402 1700.58,714.402 1702.42,683.666 1704.27,683.666 1706.11,569.746 1707.96,638.177 1709.8,784.559 1711.65,904.406 1713.49,904.406 1715.34,846.059 1717.19,846.059 1719.03,725.7 1720.88,748.244 1722.72,748.244 1724.57,609.271 1726.41,746.163 1728.26,872.97 1730.1,872.97 1731.95,812.832 1733.8,826.435 1735.64,938.691 1737.49,1030.6 1739.33,1030.6 1741.18,920.983 1743.02,965.109 1744.87,965.109 1746.71,889.021 1748.56,989.229 1750.41,1071.98 1752.25,1139.72 1754.1,1139.72 1755.94,1032.44 1757.79,1046.91 1759.63,1119.2 1761.48,1178.39 1763.32,1226.85 1765.17,1266.52 1767.02,1299 1768.86,1325.6 1770.71,1325.6 1772.55,1183.77 1774.4,1207.82 1776.24,1207.82 1778.09,1085.42 1779.93,1106.11 1781.78,1106.11 1783.63,1005.87 1785.47,1018.38 1787.32,1095.84 1789.16,1159.26 1791.01,1159.26 1792.85,1084.79 1794.7,1147.77 1796.54,1147.77 1798.39,1100.21 1800.24,1132.02 1802.08,1188.88 1803.93,1235.44 1805.77,1273.56 1807.62,1273.56 1809.46,1222.8 1811.31,1230.63 1813.15,1230.63 1815,1182.68 1816.85,1196.96 1818.69,1242.05 1820.54,1242.05 1822.38,1094.61 1824.23,1094.61 1826.07,968.583 1827.92,968.583 1829.76,828.435 1831.61,863.4 1833.46,968.956 1835.3,1055.38 1837.15,1126.13 1838.99,1184.06 1840.84,1231.49 1842.68,1270.33 1844.53,1270.33 1846.37,1208.89 1848.22,1233.16 1850.07,1233.16 1851.91,1094.98 1853.76,1094.98 1855.6,1029.02 1857.45,1029.02 1859.29,896.071 1861.14,918.649 1862.98,918.649 1864.83,808.087 1866.68,808.087 1868.52,686.897 1870.37,732.821 1872.21,732.821 1874.06,633.561 1875.9,725.849 1877.75,856.339 1879.59,856.339 1881.44,748.135 1883.29,826.855 1885.13,826.855 1886.98,724.753 1888.82,842.634 1890.67,842.634 1892.51,825.735 1894.36,882.111 1896.2,882.111 1898.05,906.905 1899.9,907.535 1901.74,1005.09 1903.59,1084.96 1905.43,1084.96 1907.28,966.945 1909.12,1010.76 1910.97,1089.6 1912.81,1154.16 1914.66,1207.01 1916.51,1250.28 1918.35,1285.7 1920.2,1285.7 1922.04,1141.92 1923.89,1180.63 1925.73,1180.63 1927.58,1029.87 1929.42,1101.49 1931.27,1101.49 1933.12,1075.48 1934.96,1090.09 1936.81,1154.55 1938.65,1207.33 1940.5,1250.54 1942.34,1250.54 1944.19,1204.78 1946.03,1204.78 1947.88,1054.8 1949.73,1059.17 1951.57,1129.24 1953.42,1129.24 1955.26,1100.93 1957.11,1100.93 1958.95,1029.42 1960.8,1036.86 1962.64,1110.97 1964.49,1171.65 1966.34,1171.65 1968.18,1102.4 1970.03,1156.64 1971.87,1156.64 1973.72,1088.06 1975.56,1088.06 1977.41,936.229 1979.25,1014.12 1981.1,1092.35 1982.94,1156.41 1984.79,1208.85 1986.64,1208.85 1988.48,1077.09 1990.33,1113.16 1992.17,1113.16 1994.02,1008.85 1995.86,1025.72 1997.71,1101.85 1999.55,1101.85 2001.4,1035.79 2003.25,1099.25 2005.09,1162.05 2006.94,1162.05 2008.78,1047.44 2010.63,1118.91 2012.47,1178.15 2014.32,1226.65 2016.16,1226.65 2018.01,1158.63 2019.86,1158.63 2021.7,1113.88 2023.55,1127.04 2025.39,1184.8 2027.24,1184.8 2029.08,1110.39 2030.93,1168.61 2032.77,1168.61 2034.62,1057.15 2036.47,1070.43 2038.31,1070.43 2040.16,1049.85 2042,1064.47 2043.85,1133.57 2045.69,1133.57 2047.54,1007.38 2049.38,1052.21 2051.23,1123.54 2053.08,1181.94 2054.92,1181.94 2056.77,1141.49 2058.61,1141.49 2060.46,999.7 2062.3,1004.94 2064.15,1084.84 2065.99,1150.25 2067.84,1203.81 2069.69,1247.66 2071.53,1247.66 2073.38,1101.07 2075.22,1153.1 2077.07,1153.1 2078.91,1039.33 2080.76,1060.48 2082.6,1130.31 2084.45,1187.48 2086.3,1234.29 2088.14,1272.62 2089.99,1272.62 2091.83,1159.71 2093.68,1208.35 2095.52,1208.35 2097.37,1170.92 2099.21,1175.95 2101.06,1224.85 2102.91,1224.85 2104.75,1079.13 2106.6,1134.4 2108.44,1190.83 2110.29,1237.03 2112.13,1274.86 2113.98,1274.86 2115.82,1213.63 2117.67,1236.61 2119.52,1274.51 2121.36,1305.55 2123.21,1330.96 2125.05,1351.76 2126.9,1351.76 2128.74,1289.28 2130.59,1294.55 2132.43,1321.95 2134.28,1321.95 2136.13,1187.46 2137.97,1195.52 2139.82,1195.52 2141.66,1072.98 2143.51,1097.2 2145.35,1160.38 2147.2,1160.38 2149.04,1048.32 2150.89,1116.68 2152.74,1176.32 2154.58,1225.16 2156.43,1265.14 2158.27,1265.14 2160.12,1193.96 2161.96,1232.93 2163.81,1271.5 2165.65,1303.08 2167.5,1328.94 2169.35,1328.94 2171.19,1267.8 2173.04,1277.44 2174.88,1277.44 2176.73,1136.87 2178.57,1136.87 2180.42,1010.78 2182.26,1021.73 2184.11,1098.58 2185.96,1161.51 2187.8,1161.51 2189.65,1122.26 2191.49,1140.54 2193.34,1140.54 2195.18,1001.22 2197.03,1063.85 2198.87,1063.85 2200.72,979.066 2202.57,979.576 2204.41,1064.07 2206.26,1064.07 2208.1,936.282 2209.95,936.282 2211.79,888.047 2213.64,926.81 2215.48,1020.87 2217.33,1020.87 2219.18,999.041 2221.02,1025.63 2222.87,1101.78 2224.71,1101.78 2226.56,1042.7 2228.4,1051.35 2230.25,1122.84 2232.09,1181.36 2233.94,1229.28 2235.79,1268.52 2237.63,1300.64 2239.48,1326.93 2241.32,1348.47 2243.17,1366.09 2245.01,1380.53 2246.86,1380.53 2248.7,1308.92 2250.55,1323.96 2252.39,1323.96 2254.24,1220.48 2256.09,1241.59 2257.93,1278.59 2259.78,1308.88 2261.62,1333.69 2263.47,1354 2265.31,1370.62 2267.16,1370.62 2269,1296.48 2270.85,1296.48 2272.7,1236.12 2274.54,1245.67 2276.39,1281.93 2278.23,1311.62 2280.08,1335.93 2281.92,1335.93 2283.77,1230.03 2285.61,1230.03 2287.46,1124.66 2289.31,1144.61 "/>
<path clip-path="url(#clip040)" d="M2001.41 198.898 L2278.03 198.898 L2278.03 95.2176 L2001.41 95.2176  Z" fill="#ffffff" fill-rule="evenodd" fill-opacity="1"/>
<polyline clip-path="url(#clip040)" style="stroke:#000000; stroke-linecap:round; stroke-linejoin:round; stroke-width:4; stroke-opacity:1; fill:none" points="2001.41,198.898 2278.03,198.898 2278.03,95.2176 2001.41,95.2176 2001.41,198.898 "/>
<polyline clip-path="url(#clip040)" style="stroke:#009af9; stroke-linecap:round; stroke-linejoin:round; stroke-width:4; stroke-opacity:1; fill:none" points="2026.32,147.058 2175.78,147.058 "/>
<path clip-path="url(#clip040)" d="M2214.53 166.745 Q2212.72 171.375 2211.01 172.787 Q2209.3 174.199 2206.43 174.199 L2203.02 174.199 L2203.02 170.634 L2205.52 170.634 Q2207.28 170.634 2208.26 169.8 Q2209.23 168.967 2210.41 165.865 L2211.17 163.921 L2200.69 138.412 L2205.2 138.412 L2213.3 158.689 L2221.4 138.412 L2225.92 138.412 L2214.53 166.745 Z" fill="#000000" fill-rule="nonzero" fill-opacity="1" /><path clip-path="url(#clip040)" d="M2233.21 160.402 L2240.85 160.402 L2240.85 134.037 L2232.54 135.703 L2232.54 131.444 L2240.8 129.778 L2245.48 129.778 L2245.48 160.402 L2253.12 160.402 L2253.12 164.338 L2233.21 164.338 L2233.21 160.402 Z" fill="#000000" fill-rule="nonzero" fill-opacity="1" /></svg>
