<?xml version="1.0" encoding="utf-8"?>
<svg xmlns="http://www.w3.org/2000/svg" xmlns:xlink="http://www.w3.org/1999/xlink" width="600" height="400" viewBox="0 0 2400 1600">
<defs>
  <clipPath id="clip590">
    <rect x="0" y="0" width="2400" height="1600"/>
  </clipPath>
</defs>
<path clip-path="url(#clip590)" d="M0 1600 L2400 1600 L2400 0 L0 0  Z" fill="#ffffff" fill-rule="evenodd" fill-opacity="1"/>
<defs>
  <clipPath id="clip591">
    <rect x="480" y="0" width="1681" height="1600"/>
  </clipPath>
</defs>
<path clip-path="url(#clip590)" d="M110.858 1486.45 L2352.76 1486.45 L2352.76 47.2441 L110.858 47.2441  Z" fill="#ffffff" fill-rule="evenodd" fill-opacity="1"/>
<defs>
  <clipPath id="clip592">
    <rect x="110" y="47" width="2243" height="1440"/>
  </clipPath>
</defs>
<polyline clip-path="url(#clip592)" style="stroke:#000000; stroke-linecap:round; stroke-linejoin:round; stroke-width:2; stroke-opacity:0.1; fill:none" points="172.521,1486.45 172.521,47.2441 "/>
<polyline clip-path="url(#clip592)" style="stroke:#000000; stroke-linecap:round; stroke-linejoin:round; stroke-width:2; stroke-opacity:0.1; fill:none" points="619.1,1486.45 619.1,47.2441 "/>
<polyline clip-path="url(#clip592)" style="stroke:#000000; stroke-linecap:round; stroke-linejoin:round; stroke-width:2; stroke-opacity:0.1; fill:none" points="1065.68,1486.45 1065.68,47.2441 "/>
<polyline clip-path="url(#clip592)" style="stroke:#000000; stroke-linecap:round; stroke-linejoin:round; stroke-width:2; stroke-opacity:0.1; fill:none" points="1512.26,1486.45 1512.26,47.2441 "/>
<polyline clip-path="url(#clip592)" style="stroke:#000000; stroke-linecap:round; stroke-linejoin:round; stroke-width:2; stroke-opacity:0.1; fill:none" points="1958.84,1486.45 1958.84,47.2441 "/>
<polyline clip-path="url(#clip592)" style="stroke:#000000; stroke-linecap:round; stroke-linejoin:round; stroke-width:2; stroke-opacity:0.1; fill:none" points="110.858,1445.72 2352.76,1445.72 "/>
<polyline clip-path="url(#clip592)" style="stroke:#000000; stroke-linecap:round; stroke-linejoin:round; stroke-width:2; stroke-opacity:0.1; fill:none" points="110.858,1113.98 2352.76,1113.98 "/>
<polyline clip-path="url(#clip592)" style="stroke:#000000; stroke-linecap:round; stroke-linejoin:round; stroke-width:2; stroke-opacity:0.1; fill:none" points="110.858,782.238 2352.76,782.238 "/>
<polyline clip-path="url(#clip592)" style="stroke:#000000; stroke-linecap:round; stroke-linejoin:round; stroke-width:2; stroke-opacity:0.1; fill:none" points="110.858,450.499 2352.76,450.499 "/>
<polyline clip-path="url(#clip592)" style="stroke:#000000; stroke-linecap:round; stroke-linejoin:round; stroke-width:2; stroke-opacity:0.1; fill:none" points="110.858,118.761 2352.76,118.761 "/>
<polyline clip-path="url(#clip590)" style="stroke:#000000; stroke-linecap:round; stroke-linejoin:round; stroke-width:4; stroke-opacity:1; fill:none" points="110.858,1486.45 2352.76,1486.45 "/>
<polyline clip-path="url(#clip590)" style="stroke:#000000; stroke-linecap:round; stroke-linejoin:round; stroke-width:4; stroke-opacity:1; fill:none" points="172.521,1486.45 172.521,1467.55 "/>
<polyline clip-path="url(#clip590)" style="stroke:#000000; stroke-linecap:round; stroke-linejoin:round; stroke-width:4; stroke-opacity:1; fill:none" points="619.1,1486.45 619.1,1467.55 "/>
<polyline clip-path="url(#clip590)" style="stroke:#000000; stroke-linecap:round; stroke-linejoin:round; stroke-width:4; stroke-opacity:1; fill:none" points="1065.68,1486.45 1065.68,1467.55 "/>
<polyline clip-path="url(#clip590)" style="stroke:#000000; stroke-linecap:round; stroke-linejoin:round; stroke-width:4; stroke-opacity:1; fill:none" points="1512.26,1486.45 1512.26,1467.55 "/>
<polyline clip-path="url(#clip590)" style="stroke:#000000; stroke-linecap:round; stroke-linejoin:round; stroke-width:4; stroke-opacity:1; fill:none" points="1958.84,1486.45 1958.84,1467.55 "/>
<path clip-path="url(#clip590)" d="M172.521 1517.37 Q168.91 1517.37 167.082 1520.93 Q165.276 1524.47 165.276 1531.6 Q165.276 1538.71 167.082 1542.27 Q168.91 1545.82 172.521 1545.82 Q176.156 1545.82 177.961 1542.27 Q179.79 1538.71 179.79 1531.6 Q179.79 1524.47 177.961 1520.93 Q176.156 1517.37 172.521 1517.37 M172.521 1513.66 Q178.332 1513.66 181.387 1518.27 Q184.466 1522.85 184.466 1531.6 Q184.466 1540.33 181.387 1544.94 Q178.332 1549.52 172.521 1549.52 Q166.711 1549.52 163.633 1544.94 Q160.577 1540.33 160.577 1531.6 Q160.577 1522.85 163.633 1518.27 Q166.711 1513.66 172.521 1513.66 Z" fill="#000000" fill-rule="nonzero" fill-opacity="1" /><path clip-path="url(#clip590)" d="M582.793 1544.91 L599.112 1544.91 L599.112 1548.85 L577.168 1548.85 L577.168 1544.91 Q579.83 1542.16 584.413 1537.53 Q589.02 1532.88 590.2 1531.53 Q592.445 1529.01 593.325 1527.27 Q594.228 1525.51 594.228 1523.82 Q594.228 1521.07 592.283 1519.33 Q590.362 1517.6 587.26 1517.6 Q585.061 1517.6 582.608 1518.36 Q580.177 1519.13 577.399 1520.68 L577.399 1515.95 Q580.223 1514.82 582.677 1514.24 Q585.131 1513.66 587.168 1513.66 Q592.538 1513.66 595.732 1516.35 Q598.927 1519.03 598.927 1523.52 Q598.927 1525.65 598.117 1527.57 Q597.33 1529.47 595.223 1532.07 Q594.645 1532.74 591.543 1535.95 Q588.441 1539.15 582.793 1544.91 Z" fill="#000000" fill-rule="nonzero" fill-opacity="1" /><path clip-path="url(#clip590)" d="M608.973 1514.29 L627.33 1514.29 L627.33 1518.22 L613.256 1518.22 L613.256 1526.7 Q614.274 1526.35 615.293 1526.19 Q616.311 1526 617.33 1526 Q623.117 1526 626.496 1529.17 Q629.876 1532.34 629.876 1537.76 Q629.876 1543.34 626.404 1546.44 Q622.931 1549.52 616.612 1549.52 Q614.436 1549.52 612.168 1549.15 Q609.922 1548.78 607.515 1548.04 L607.515 1543.34 Q609.598 1544.47 611.82 1545.03 Q614.043 1545.58 616.519 1545.58 Q620.524 1545.58 622.862 1543.48 Q625.2 1541.37 625.2 1537.76 Q625.2 1534.15 622.862 1532.04 Q620.524 1529.94 616.519 1529.94 Q614.644 1529.94 612.769 1530.35 Q610.918 1530.77 608.973 1531.65 L608.973 1514.29 Z" fill="#000000" fill-rule="nonzero" fill-opacity="1" /><path clip-path="url(#clip590)" d="M649.089 1517.37 Q645.478 1517.37 643.649 1520.93 Q641.843 1524.47 641.843 1531.6 Q641.843 1538.71 643.649 1542.27 Q645.478 1545.82 649.089 1545.82 Q652.723 1545.82 654.528 1542.27 Q656.357 1538.71 656.357 1531.6 Q656.357 1524.47 654.528 1520.93 Q652.723 1517.37 649.089 1517.37 M649.089 1513.66 Q654.899 1513.66 657.954 1518.27 Q661.033 1522.85 661.033 1531.6 Q661.033 1540.33 657.954 1544.94 Q654.899 1549.52 649.089 1549.52 Q643.279 1549.52 640.2 1544.94 Q637.144 1540.33 637.144 1531.6 Q637.144 1522.85 640.2 1518.27 Q643.279 1513.66 649.089 1513.66 Z" fill="#000000" fill-rule="nonzero" fill-opacity="1" /><path clip-path="url(#clip590)" d="M1025.3 1514.29 L1043.65 1514.29 L1043.65 1518.22 L1029.58 1518.22 L1029.58 1526.7 Q1030.6 1526.35 1031.62 1526.19 Q1032.64 1526 1033.65 1526 Q1039.44 1526 1042.82 1529.17 Q1046.2 1532.34 1046.2 1537.76 Q1046.2 1543.34 1042.73 1546.44 Q1039.26 1549.52 1032.94 1549.52 Q1030.76 1549.52 1028.49 1549.15 Q1026.25 1548.78 1023.84 1548.04 L1023.84 1543.34 Q1025.92 1544.47 1028.14 1545.03 Q1030.37 1545.58 1032.84 1545.58 Q1036.85 1545.58 1039.19 1543.48 Q1041.52 1541.37 1041.52 1537.76 Q1041.52 1534.15 1039.19 1532.04 Q1036.85 1529.94 1032.84 1529.94 Q1030.97 1529.94 1029.09 1530.35 Q1027.24 1530.77 1025.3 1531.65 L1025.3 1514.29 Z" fill="#000000" fill-rule="nonzero" fill-opacity="1" /><path clip-path="url(#clip590)" d="M1065.41 1517.37 Q1061.8 1517.37 1059.97 1520.93 Q1058.17 1524.47 1058.17 1531.6 Q1058.17 1538.71 1059.97 1542.27 Q1061.8 1545.82 1065.41 1545.82 Q1069.05 1545.82 1070.85 1542.27 Q1072.68 1538.71 1072.68 1531.6 Q1072.68 1524.47 1070.85 1520.93 Q1069.05 1517.37 1065.41 1517.37 M1065.41 1513.66 Q1071.22 1513.66 1074.28 1518.27 Q1077.36 1522.85 1077.36 1531.6 Q1077.36 1540.33 1074.28 1544.94 Q1071.22 1549.52 1065.41 1549.52 Q1059.6 1549.52 1056.52 1544.94 Q1053.47 1540.33 1053.47 1531.6 Q1053.47 1522.85 1056.52 1518.27 Q1059.6 1513.66 1065.41 1513.66 Z" fill="#000000" fill-rule="nonzero" fill-opacity="1" /><path clip-path="url(#clip590)" d="M1095.58 1517.37 Q1091.96 1517.37 1090.14 1520.93 Q1088.33 1524.47 1088.33 1531.6 Q1088.33 1538.71 1090.14 1542.27 Q1091.96 1545.82 1095.58 1545.82 Q1099.21 1545.82 1101.01 1542.27 Q1102.84 1538.71 1102.84 1531.6 Q1102.84 1524.47 1101.01 1520.93 Q1099.21 1517.37 1095.58 1517.37 M1095.58 1513.66 Q1101.39 1513.66 1104.44 1518.27 Q1107.52 1522.85 1107.52 1531.6 Q1107.52 1540.33 1104.44 1544.94 Q1101.39 1549.52 1095.58 1549.52 Q1089.76 1549.52 1086.69 1544.94 Q1083.63 1540.33 1083.63 1531.6 Q1083.63 1522.85 1086.69 1518.27 Q1089.76 1513.66 1095.58 1513.66 Z" fill="#000000" fill-rule="nonzero" fill-opacity="1" /><path clip-path="url(#clip590)" d="M1470.53 1514.29 L1492.76 1514.29 L1492.76 1516.28 L1480.21 1548.85 L1475.33 1548.85 L1487.13 1518.22 L1470.53 1518.22 L1470.53 1514.29 Z" fill="#000000" fill-rule="nonzero" fill-opacity="1" /><path clip-path="url(#clip590)" d="M1501.92 1514.29 L1520.28 1514.29 L1520.28 1518.22 L1506.21 1518.22 L1506.21 1526.7 Q1507.22 1526.35 1508.24 1526.19 Q1509.26 1526 1510.28 1526 Q1516.07 1526 1519.45 1529.17 Q1522.83 1532.34 1522.83 1537.76 Q1522.83 1543.34 1519.35 1546.44 Q1515.88 1549.52 1509.56 1549.52 Q1507.39 1549.52 1505.12 1549.15 Q1502.87 1548.78 1500.46 1548.04 L1500.46 1543.34 Q1502.55 1544.47 1504.77 1545.03 Q1506.99 1545.58 1509.47 1545.58 Q1513.47 1545.58 1515.81 1543.48 Q1518.15 1541.37 1518.15 1537.76 Q1518.15 1534.15 1515.81 1532.04 Q1513.47 1529.94 1509.47 1529.94 Q1507.59 1529.94 1505.72 1530.35 Q1503.87 1530.77 1501.92 1531.65 L1501.92 1514.29 Z" fill="#000000" fill-rule="nonzero" fill-opacity="1" /><path clip-path="url(#clip590)" d="M1542.04 1517.37 Q1538.43 1517.37 1536.6 1520.93 Q1534.79 1524.47 1534.79 1531.6 Q1534.79 1538.71 1536.6 1542.27 Q1538.43 1545.82 1542.04 1545.82 Q1545.67 1545.82 1547.48 1542.27 Q1549.31 1538.71 1549.31 1531.6 Q1549.31 1524.47 1547.48 1520.93 Q1545.67 1517.37 1542.04 1517.37 M1542.04 1513.66 Q1547.85 1513.66 1550.9 1518.27 Q1553.98 1522.85 1553.98 1531.6 Q1553.98 1540.33 1550.9 1544.94 Q1547.85 1549.52 1542.04 1549.52 Q1536.23 1549.52 1533.15 1544.94 Q1530.09 1540.33 1530.09 1531.6 Q1530.09 1522.85 1533.15 1518.27 Q1536.23 1513.66 1542.04 1513.66 Z" fill="#000000" fill-rule="nonzero" fill-opacity="1" /><path clip-path="url(#clip590)" d="M1903.36 1544.91 L1911 1544.91 L1911 1518.55 L1902.69 1520.21 L1902.69 1515.95 L1910.96 1514.29 L1915.63 1514.29 L1915.63 1544.91 L1923.27 1544.91 L1923.27 1548.85 L1903.36 1548.85 L1903.36 1544.91 Z" fill="#000000" fill-rule="nonzero" fill-opacity="1" /><path clip-path="url(#clip590)" d="M1942.71 1517.37 Q1939.1 1517.37 1937.28 1520.93 Q1935.47 1524.47 1935.47 1531.6 Q1935.47 1538.71 1937.28 1542.27 Q1939.1 1545.82 1942.71 1545.82 Q1946.35 1545.82 1948.15 1542.27 Q1949.98 1538.71 1949.98 1531.6 Q1949.98 1524.47 1948.15 1520.93 Q1946.35 1517.37 1942.71 1517.37 M1942.71 1513.66 Q1948.53 1513.66 1951.58 1518.27 Q1954.66 1522.85 1954.66 1531.6 Q1954.66 1540.33 1951.58 1544.94 Q1948.53 1549.52 1942.71 1549.52 Q1936.9 1549.52 1933.83 1544.94 Q1930.77 1540.33 1930.77 1531.6 Q1930.77 1522.85 1933.83 1518.27 Q1936.9 1513.66 1942.71 1513.66 Z" fill="#000000" fill-rule="nonzero" fill-opacity="1" /><path clip-path="url(#clip590)" d="M1972.88 1517.37 Q1969.27 1517.37 1967.44 1520.93 Q1965.63 1524.47 1965.63 1531.6 Q1965.63 1538.71 1967.44 1542.27 Q1969.27 1545.82 1972.88 1545.82 Q1976.51 1545.82 1978.32 1542.27 Q1980.15 1538.71 1980.15 1531.6 Q1980.15 1524.47 1978.32 1520.93 Q1976.51 1517.37 1972.88 1517.37 M1972.88 1513.66 Q1978.69 1513.66 1981.74 1518.27 Q1984.82 1522.85 1984.82 1531.6 Q1984.82 1540.33 1981.74 1544.94 Q1978.69 1549.52 1972.88 1549.52 Q1967.07 1549.52 1963.99 1544.94 Q1960.93 1540.33 1960.93 1531.6 Q1960.93 1522.85 1963.99 1518.27 Q1967.07 1513.66 1972.88 1513.66 Z" fill="#000000" fill-rule="nonzero" fill-opacity="1" /><path clip-path="url(#clip590)" d="M2003.04 1517.37 Q1999.43 1517.37 1997.6 1520.93 Q1995.79 1524.47 1995.79 1531.6 Q1995.79 1538.71 1997.6 1542.27 Q1999.43 1545.82 2003.04 1545.82 Q2006.67 1545.82 2008.48 1542.27 Q2010.31 1538.71 2010.31 1531.6 Q2010.31 1524.47 2008.48 1520.93 Q2006.67 1517.37 2003.04 1517.37 M2003.04 1513.66 Q2008.85 1513.66 2011.9 1518.27 Q2014.98 1522.85 2014.98 1531.6 Q2014.98 1540.33 2011.9 1544.94 Q2008.85 1549.52 2003.04 1549.52 Q1997.23 1549.52 1994.15 1544.94 Q1991.09 1540.33 1991.09 1531.6 Q1991.09 1522.85 1994.15 1518.27 Q1997.23 1513.66 2003.04 1513.66 Z" fill="#000000" fill-rule="nonzero" fill-opacity="1" /><polyline clip-path="url(#clip590)" style="stroke:#000000; stroke-linecap:round; stroke-linejoin:round; stroke-width:4; stroke-opacity:1; fill:none" points="110.858,1486.45 110.858,47.2441 "/>
<polyline clip-path="url(#clip590)" style="stroke:#000000; stroke-linecap:round; stroke-linejoin:round; stroke-width:4; stroke-opacity:1; fill:none" points="110.858,1445.72 129.755,1445.72 "/>
<polyline clip-path="url(#clip590)" style="stroke:#000000; stroke-linecap:round; stroke-linejoin:round; stroke-width:4; stroke-opacity:1; fill:none" points="110.858,1113.98 129.755,1113.98 "/>
<polyline clip-path="url(#clip590)" style="stroke:#000000; stroke-linecap:round; stroke-linejoin:round; stroke-width:4; stroke-opacity:1; fill:none" points="110.858,782.238 129.755,782.238 "/>
<polyline clip-path="url(#clip590)" style="stroke:#000000; stroke-linecap:round; stroke-linejoin:round; stroke-width:4; stroke-opacity:1; fill:none" points="110.858,450.499 129.755,450.499 "/>
<polyline clip-path="url(#clip590)" style="stroke:#000000; stroke-linecap:round; stroke-linejoin:round; stroke-width:4; stroke-opacity:1; fill:none" points="110.858,118.761 129.755,118.761 "/>
<path clip-path="url(#clip590)" d="M53.9551 1428.44 L72.3115 1428.44 L72.3115 1432.37 L58.2375 1432.37 L58.2375 1440.84 Q59.256 1440.5 60.2745 1440.33 Q61.293 1440.15 62.3115 1440.15 Q68.0985 1440.15 71.4781 1443.32 Q74.8577 1446.49 74.8577 1451.91 Q74.8577 1457.49 71.3855 1460.59 Q67.9133 1463.67 61.5939 1463.67 Q59.418 1463.67 57.1495 1463.3 Q54.9041 1462.93 52.4967 1462.19 L52.4967 1457.49 Q54.5801 1458.62 56.8023 1459.18 Q59.0245 1459.73 61.5013 1459.73 Q65.5059 1459.73 67.8439 1457.63 Q70.1818 1455.52 70.1818 1451.91 Q70.1818 1448.3 67.8439 1446.19 Q65.5059 1444.08 61.5013 1444.08 Q59.6263 1444.08 57.7513 1444.5 Q55.8995 1444.92 53.9551 1445.8 L53.9551 1428.44 Z" fill="#000000" fill-rule="nonzero" fill-opacity="1" /><path clip-path="url(#clip590)" d="M63.33 1112.11 Q60.1819 1112.11 58.33 1114.27 Q56.5014 1116.42 56.5014 1120.17 Q56.5014 1123.9 58.33 1126.07 Q60.1819 1128.22 63.33 1128.22 Q66.4782 1128.22 68.3068 1126.07 Q70.1587 1123.9 70.1587 1120.17 Q70.1587 1116.42 68.3068 1114.27 Q66.4782 1112.11 63.33 1112.11 M72.6124 1097.46 L72.6124 1101.72 Q70.8531 1100.89 69.0476 1100.45 Q67.2652 1100.01 65.5059 1100.01 Q60.8763 1100.01 58.4226 1103.13 Q55.9921 1106.26 55.6449 1112.58 Q57.0106 1110.56 59.0708 1109.5 Q61.131 1108.41 63.6078 1108.41 Q68.8161 1108.41 71.8253 1111.58 Q74.8577 1114.73 74.8577 1120.17 Q74.8577 1125.49 71.7096 1128.71 Q68.5615 1131.93 63.33 1131.93 Q57.3347 1131.93 54.1634 1127.34 Q50.9921 1122.74 50.9921 1114.01 Q50.9921 1105.82 54.881 1100.96 Q58.7699 1096.07 65.3208 1096.07 Q67.08 1096.07 68.8624 1096.42 Q70.6679 1096.77 72.6124 1097.46 Z" fill="#000000" fill-rule="nonzero" fill-opacity="1" /><path clip-path="url(#clip590)" d="M52.6356 764.958 L74.8577 764.958 L74.8577 766.949 L62.3115 799.518 L57.4273 799.518 L69.2328 768.893 L52.6356 768.893 L52.6356 764.958 Z" fill="#000000" fill-rule="nonzero" fill-opacity="1" /><path clip-path="url(#clip590)" d="M63.006 451.367 Q59.6726 451.367 57.7513 453.15 Q55.8532 454.932 55.8532 458.057 Q55.8532 461.182 57.7513 462.965 Q59.6726 464.747 63.006 464.747 Q66.3393 464.747 68.2606 462.965 Q70.1818 461.159 70.1818 458.057 Q70.1818 454.932 68.2606 453.15 Q66.3624 451.367 63.006 451.367 M58.33 449.377 Q55.3208 448.636 53.631 446.576 Q51.9643 444.516 51.9643 441.553 Q51.9643 437.409 54.9041 435.002 Q57.8671 432.594 63.006 432.594 Q68.168 432.594 71.1078 435.002 Q74.0476 437.409 74.0476 441.553 Q74.0476 444.516 72.3578 446.576 Q70.6911 448.636 67.705 449.377 Q71.0846 450.164 72.9596 452.455 Q74.8577 454.747 74.8577 458.057 Q74.8577 463.08 71.7791 465.765 Q68.7235 468.451 63.006 468.451 Q57.2884 468.451 54.2097 465.765 Q51.1542 463.08 51.1542 458.057 Q51.1542 454.747 53.0523 452.455 Q54.9504 450.164 58.33 449.377 M56.6171 441.992 Q56.6171 444.678 58.2838 446.182 Q59.9736 447.687 63.006 447.687 Q66.0152 447.687 67.705 446.182 Q69.418 444.678 69.418 441.992 Q69.418 439.307 67.705 437.803 Q66.0152 436.298 63.006 436.298 Q59.9736 436.298 58.2838 437.803 Q56.6171 439.307 56.6171 441.992 Z" fill="#000000" fill-rule="nonzero" fill-opacity="1" /><path clip-path="url(#clip590)" d="M53.2375 135.323 L53.2375 131.064 Q54.9967 131.897 56.8023 132.337 Q58.6078 132.777 60.3439 132.777 Q64.9735 132.777 67.4041 129.675 Q69.8578 126.55 70.205 120.207 Q68.8624 122.198 66.8022 123.263 Q64.7421 124.328 62.2421 124.328 Q57.0569 124.328 54.0245 121.203 Q51.0153 118.055 51.0153 112.615 Q51.0153 107.291 54.1634 104.073 Q57.3115 100.856 62.543 100.856 Q68.5383 100.856 71.6865 105.462 Q74.8577 110.045 74.8577 118.795 Q74.8577 126.967 70.9689 131.851 Q67.1032 136.712 60.5523 136.712 Q58.793 136.712 56.9875 136.365 Q55.1819 136.017 53.2375 135.323 M62.543 120.67 Q65.6911 120.67 67.5198 118.518 Q69.3717 116.365 69.3717 112.615 Q69.3717 108.888 67.5198 106.735 Q65.6911 104.559 62.543 104.559 Q59.3949 104.559 57.543 106.735 Q55.7143 108.888 55.7143 112.615 Q55.7143 116.365 57.543 118.518 Q59.3949 120.67 62.543 120.67 Z" fill="#000000" fill-rule="nonzero" fill-opacity="1" /><polyline clip-path="url(#clip592)" style="stroke:#009af9; stroke-linecap:round; stroke-linejoin:round; stroke-width:4; stroke-opacity:1; fill:none" points="174.308,1445.72 176.094,1445.72 177.88,1445.72 179.667,1346.19 181.453,1361 183.239,1361 185.026,1175.73 186.812,1175.73 188.598,1076.97 190.385,1084.15 192.171,1149.69 193.957,1149.69 195.743,991.625 197.53,1014.21 199.316,1092.43 201.102,1156.47 202.889,1208.9 204.675,1208.9 206.461,1027.78 208.248,1075.52 210.034,1075.52 211.82,949.12 213.607,1032.1 215.393,1032.1 217.179,891.048 218.966,891.048 220.752,715.862 222.538,719.492 224.325,719.492 226.111,670.531 227.897,670.531 229.683,588.119 231.47,599.979 233.256,599.979 235.042,608.006 236.829,659.933 238.615,802.371 240.401,918.99 242.188,918.99 243.974,838.02 245.76,838.02 247.547,796.148 249.333,797.617 251.119,915.098 252.906,915.098 254.692,825.489 256.478,825.489 258.265,761.972 260.051,762.511 261.837,886.355 263.623,987.75 265.41,987.75 267.196,947.038 268.982,977.279 270.769,1062.19 272.555,1131.71 274.341,1188.63 276.128,1188.63 277.914,1027.03 279.7,1044.49 281.487,1044.49 283.273,895.086 285.059,895.086 286.846,716.774 288.632,716.774 290.418,650.759 292.205,706.478 293.991,840.479 295.777,840.479 297.563,753.693 299.35,866.957 301.136,866.957 302.922,767.896 304.709,774.874 306.495,896.477 308.281,996.037 310.068,1077.55 311.854,1077.55 313.64,949.007 315.427,949.007 317.213,883.278 318.999,883.278 320.786,834.705 322.572,848.744 324.358,848.744 326.145,721.628 327.931,721.628 329.717,599.138 331.504,663.341 333.29,805.161 335.076,921.274 336.862,1016.34 338.649,1016.34 340.435,938.093 342.221,938.093 344.008,839.429 345.794,839.429 347.58,709.365 349.367,709.365 351.153,649.81 352.939,716.372 354.726,848.579 356.512,848.579 358.298,815.324 360.085,815.324 361.871,655.731 363.657,669.627 365.444,669.627 367.23,583.086 369.016,583.086 370.802,407.959 372.589,556.98 374.375,718.081 376.161,718.081 377.948,664.171 379.734,728.145 381.52,858.218 383.307,858.218 385.093,833.484 386.879,871.347 388.666,871.347 390.452,799.762 392.238,889.815 394.025,889.815 395.811,826.955 397.597,903.348 399.384,903.348 401.17,878.756 402.956,878.756 404.742,786.006 406.529,811.434 408.315,926.41 410.101,926.41 411.888,767.223 413.674,844.034 415.46,844.034 417.247,681.275 419.033,779.68 420.819,779.68 422.606,709.629 424.392,815.158 426.178,815.158 427.965,697.056 429.751,742.496 431.537,869.968 433.324,974.333 435.11,1059.78 436.896,1129.74 438.682,1187.02 440.469,1187.02 442.255,1103.98 444.041,1103.98 445.828,986.775 447.614,986.775 449.4,826.493 451.187,871.533 452.973,871.533 454.759,761.989 456.546,782.56 458.332,902.77 460.118,1001.19 461.905,1001.19 463.691,862.253 465.477,937.207 467.264,1029.38 469.05,1029.38 470.836,933.255 472.622,1022.7 474.409,1022.7 476.195,931.48 477.981,931.48 479.768,741.034 481.554,795.18 483.34,795.18 485.127,641.021 486.913,774.81 488.699,896.425 490.486,896.425 492.272,877.165 494.058,900.569 495.845,900.569 497.631,827.953 499.417,835.561 501.204,946.163 502.99,1036.72 504.776,1036.72 506.562,947.491 508.349,947.491 510.135,884.323 511.921,937.105 513.708,937.105 515.494,853.604 517.28,853.604 519.067,773.432 520.853,773.432 522.639,612.018 524.426,612.018 526.212,510.662 527.998,538.425 529.785,702.889 531.571,702.889 533.357,654.301 535.144,750.061 536.93,750.061 538.716,627.619 540.502,627.619 542.289,567.764 544.075,596.804 545.861,750.686 547.648,750.686 549.434,721.239 551.22,786.056 553.007,786.056 554.793,663.42 556.579,721.32 558.366,721.32 560.152,545.516 561.938,545.516 563.725,487.938 565.511,487.938 567.297,348.241 569.084,444.676 570.87,626.134 572.656,626.134 574.442,663.598 576.229,676.865 578.015,816.234 579.801,816.234 581.588,763.254 583.374,764.861 585.16,888.279 586.947,888.279 588.733,771.606 590.519,798.107 592.306,798.107 594.092,772.003 595.878,785.452 597.665,905.137 599.451,1003.13 601.237,1083.36 603.024,1149.04 604.81,1202.82 606.596,1246.85 608.383,1246.85 610.169,1053.42 611.955,1053.42 613.741,886.839 615.528,932.371 617.314,1025.42 619.1,1101.61 620.887,1163.99 622.673,1215.06 624.459,1215.06 626.246,1057.21 628.032,1058.47 629.818,1128.67 631.605,1186.14 633.391,1233.19 635.177,1271.71 636.964,1303.26 638.75,1303.26 640.536,1120.68 642.323,1144.82 644.109,1144.82 645.895,995.593 647.681,1055.6 649.468,1055.6 651.254,936.575 653.04,1013.73 654.827,1013.73 656.613,964.391 658.399,964.391 660.186,785.648 661.972,807.347 663.758,807.347 665.545,755.699 667.331,798.623 669.117,915.921 670.904,1011.96 672.69,1011.96 674.476,932.597 676.263,1005.13 678.049,1084.99 679.835,1150.38 681.621,1150.38 683.408,963.614 685.194,1033.89 686.98,1033.89 688.767,996.801 690.553,1012.5 692.339,1012.5 694.126,944.806 695.912,944.806 697.698,763.032 699.485,763.032 701.271,604.844 703.057,627.156 704.844,775.535 706.63,897.018 708.416,897.018 710.203,763.329 711.989,763.329 713.775,665.472 715.561,765.448 717.348,888.759 719.134,989.719 720.92,1072.38 722.707,1140.05 724.493,1140.05 726.279,982.34 728.066,982.34 729.852,806.108 731.638,808.814 733.425,924.264 735.211,1018.79 736.997,1018.79 738.784,918.213 740.57,935.854 742.356,935.854 744.143,821.798 745.929,915.512 747.715,915.512 749.501,834.282 751.288,850.022 753.074,958.003 754.86,1046.41 756.647,1118.79 758.433,1118.79 760.219,967.956 762.006,986.905 763.792,986.905 765.578,919.782 767.365,919.782 769.151,829.91 770.937,846.469 772.724,846.469 774.51,791.482 776.296,867.071 778.083,867.071 779.869,783.072 781.655,888.234 783.441,888.234 785.228,806.227 787.014,806.227 788.8,728.687 790.587,776.959 792.373,898.184 794.159,997.435 795.946,1078.69 797.732,1078.69 799.518,888.968 801.305,888.968 803.091,711.957 804.877,711.957 806.664,596.055 808.45,685.136 810.236,685.136 812.023,633.14 813.809,663.291 815.595,663.291 817.381,577.157 819.168,689.605 820.954,689.605 822.74,589.407 824.527,677.945 826.313,817.118 828.099,931.064 829.886,1024.35 831.672,1100.73 833.458,1163.27 835.245,1214.47 837.031,1256.39 838.817,1290.71 840.604,1290.71 842.39,1218.06 844.176,1220.24 845.963,1220.24 847.749,1108.94 849.535,1141.08 851.321,1196.3 853.108,1196.3 854.894,1052.27 856.68,1052.27 858.467,892.121 860.253,894.484 862.039,894.484 863.826,855.722 865.612,855.722 867.398,698.341 869.185,705.763 870.971,705.763 872.757,605.896 874.544,651.708 876.33,795.637 878.116,795.637 879.903,663.614 881.689,804.722 883.475,920.915 885.261,1016.04 887.048,1093.93 888.834,1157.7 890.62,1209.91 892.407,1209.91 894.193,1112.41 895.979,1124.95 897.766,1124.95 899.552,1010.63 901.338,1021.28 903.125,1098.22 904.911,1161.21 906.697,1161.21 908.484,1052.63 910.27,1052.63 912.056,964.563 913.843,964.563 915.629,873.201 917.415,909.094 919.202,909.094 920.988,831.103 922.774,831.103 924.56,698.635 926.347,731.081 928.133,731.081 929.919,620.965 931.706,620.965 933.492,560.457 935.278,576.816 937.065,734.321 938.851,734.321 940.637,658.791 942.424,778.95 944.21,778.95 945.996,673.584 947.783,786.529 949.569,786.529 951.355,683.864 953.142,792.191 954.928,910.655 956.714,910.655 958.5,805.258 960.287,810.11 962.073,925.326 963.859,925.326 965.646,901.68 967.432,924.266 969.218,1018.79 971.005,1096.18 972.791,1159.54 974.577,1211.41 976.364,1211.41 978.15,1038.71 979.936,1070.28 981.723,1138.34 983.509,1138.34 985.295,1053.89 987.082,1065.19 988.868,1134.16 990.654,1190.64 992.44,1190.64 994.227,1045.25 996.013,1089.22 997.799,1089.22 999.586,921.214 1001.37,975.337 1003.16,1060.6 1004.94,1130.41 1006.73,1187.57 1008.52,1234.36 1010.3,1234.36 1012.09,1060.88 1013.88,1087.29 1015.66,1152.26 1017.45,1152.26 1019.24,1065.2 1021.02,1076.81 1022.81,1143.68 1024.59,1143.68 1026.38,1031.06 1028.17,1031.06 1029.95,914.909 1031.74,960.849 1033.53,1048.74 1035.31,1120.7 1037.1,1120.7 1038.88,972.956 1040.67,972.956 1042.46,774.958 1044.24,792.176 1046.03,792.176 1047.82,593.669 1049.6,747.546 1051.39,874.103 1053.18,874.103 1054.96,784.036 1056.75,784.036 1058.53,754.636 1060.32,802.194 1062.11,918.845 1063.89,918.845 1065.68,797.957 1067.47,797.957 1069.25,639.179 1071.04,675.888 1072.82,815.434 1074.61,929.684 1076.4,1023.23 1078.18,1023.23 1079.97,922.836 1081.76,922.836 1083.54,809.204 1085.33,809.204 1087.12,698.225 1088.9,733.683 1090.69,862.752 1092.47,862.752 1094.26,831.279 1096.05,876.176 1097.83,979.416 1099.62,1063.94 1101.41,1133.15 1103.19,1189.81 1104.98,1236.19 1106.76,1274.17 1108.55,1305.27 1110.34,1305.27 1112.12,1145.53 1113.91,1145.53 1115.7,1036.64 1117.48,1065.34 1119.27,1065.34 1121.06,867.634 1122.84,970.752 1124.63,1056.85 1126.41,1056.85 1128.2,926.06 1129.99,1018.16 1131.77,1018.16 1133.56,928.886 1135.35,974.741 1137.13,974.741 1138.92,812.699 1140.7,923.199 1142.49,1017.92 1144.28,1095.46 1146.06,1158.95 1147.85,1210.93 1149.64,1253.49 1151.42,1288.34 1153.21,1316.86 1155,1340.22 1156.78,1340.22 1158.57,1220.79 1160.35,1235.08 1162.14,1273.26 1163.93,1273.26 1165.71,1163.32 1167.5,1179.36 1169.29,1179.36 1171.07,1094 1172.86,1141.59 1174.64,1141.59 1176.43,990.574 1178.22,990.574 1180,866.288 1181.79,871.752 1183.58,975.794 1185.36,1060.98 1187.15,1060.98 1188.94,988.131 1190.72,988.131 1192.51,893.449 1194.29,954.678 1196.08,954.678 1197.87,812.473 1199.65,859.393 1201.44,859.393 1203.23,760.01 1205.01,884.174 1206.8,884.174 1208.58,763.818 1210.37,874.881 1212.16,978.356 1213.94,978.356 1215.73,806.491 1217.52,890.049 1219.3,990.775 1221.09,1073.24 1222.88,1073.24 1224.66,924.598 1226.45,952.296 1228.23,1041.74 1230.02,1041.74 1231.81,928.18 1233.59,1000.92 1235.38,1000.92 1237.17,914.012 1238.95,960.441 1240.74,960.441 1242.52,872.349 1244.31,928.768 1246.1,1022.47 1247.88,1022.47 1249.67,852.543 1251.46,924.195 1253.24,1018.73 1255.03,1018.73 1256.82,839.103 1258.6,925.404 1260.39,1019.72 1262.17,1019.72 1263.96,835.631 1265.75,928.05 1267.53,1021.89 1269.32,1098.71 1271.11,1161.61 1272.89,1213.11 1274.68,1255.28 1276.46,1255.28 1278.25,1182.45 1280.04,1195.03 1281.82,1240.47 1283.61,1277.68 1285.4,1277.68 1287.18,1158.68 1288.97,1189.86 1290.76,1236.24 1292.54,1274.21 1294.33,1305.3 1296.11,1305.3 1297.9,1117.76 1299.69,1153.24 1301.47,1153.24 1303.26,962.427 1305.05,962.427 1306.83,847.733 1308.62,922.461 1310.4,1017.31 1312.19,1017.31 1313.98,886.695 1315.76,985.796 1317.55,985.796 1319.34,800.755 1321.12,901.085 1322.91,901.085 1324.7,779.646 1326.48,888.875 1328.27,888.875 1330.05,783.606 1331.84,875.543 1333.63,875.543 1335.41,825.135 1337.2,825.135 1338.99,726.326 1340.77,756.598 1342.56,756.598 1344.34,614.989 1346.13,703.734 1347.92,703.734 1349.7,686.04 1351.49,709.664 1353.28,843.087 1355.06,952.325 1356.85,1041.76 1358.64,1114.99 1360.42,1114.99 1362.21,1058.64 1363.99,1081.22 1365.78,1081.22 1367.57,954.083 1369.35,1036.97 1371.14,1111.06 1372.93,1111.06 1374.71,1014.73 1376.5,1049.84 1378.28,1121.6 1380.07,1180.35 1381.86,1228.45 1383.64,1267.84 1385.43,1267.84 1387.22,1192.12 1389,1206.01 1390.79,1206.01 1392.58,1024.46 1394.36,1073.67 1396.15,1141.11 1397.93,1196.33 1399.72,1241.53 1401.51,1241.53 1403.29,1133.43 1405.08,1133.43 1406.87,1001.54 1408.65,1031.19 1410.44,1106.33 1412.22,1167.85 1414.01,1167.85 1415.8,1100.19 1417.58,1126.18 1419.37,1126.18 1421.16,934.156 1422.94,934.156 1424.73,878.492 1426.52,926.36 1428.3,926.36 1430.09,801.419 1431.87,873.083 1433.66,873.083 1435.45,819.5 1437.23,888.295 1439.02,888.295 1440.81,794.027 1442.59,907.082 1444.38,907.082 1446.16,811.062 1447.95,888.14 1449.74,888.14 1451.52,787.978 1453.31,787.978 1455.1,677.471 1456.88,754.436 1458.67,754.436 1460.46,570.623 1462.24,713.109 1464.03,713.109 1465.81,577.977 1467.6,704.159 1469.39,704.159 1471.17,644.941 1472.96,752.416 1474.75,752.416 1476.53,680.334 1478.32,680.334 1480.1,486.323 1481.89,579.282 1483.68,579.282 1485.46,459.786 1487.25,626.017 1489.04,626.017 1490.82,556.211 1492.61,690.057 1494.4,827.035 1496.18,827.035 1497.97,739.684 1499.75,740.318 1501.54,740.318 1503.33,617.739 1505.11,617.739 1506.9,557.058 1508.69,557.058 1510.47,479.611 1512.26,544.391 1514.04,544.391 1515.83,460.981 1517.62,460.981 1519.4,334.318 1521.19,395.428 1522.98,585.813 1524.76,585.813 1526.55,519.618 1528.34,623.939 1530.12,772.902 1531.91,894.862 1533.69,994.715 1535.48,994.715 1537.27,896.293 1539.05,896.293 1540.84,818.953 1542.63,828.14 1544.41,940.087 1546.2,940.087 1547.98,780.826 1549.77,780.826 1551.56,697.402 1553.34,727.506 1555.13,857.695 1556.92,857.695 1558.7,716.62 1560.49,783.5 1562.28,783.5 1564.06,777.392 1565.85,808.676 1567.63,808.676 1569.42,783.093 1571.21,793.551 1572.99,911.768 1574.78,1008.56 1576.57,1087.8 1578.35,1087.8 1580.14,1007.33 1581.92,1007.33 1583.71,844.541 1585.5,844.541 1587.28,707.308 1589.07,714.782 1590.86,714.782 1592.64,527.724 1594.43,527.724 1596.22,371.091 1598,371.091 1599.79,306.763 1601.57,309.293 1603.36,309.293 1605.15,121.081 1606.93,121.081 1608.72,172.211 1610.51,223.399 1612.29,444.967 1614.08,444.967 1615.86,525.148 1617.65,527.057 1619.44,527.057 1621.22,443.168 1623.01,443.168 1624.8,406.427 1626.58,451.962 1628.37,451.962 1630.16,434.399 1631.94,472.475 1633.73,648.893 1635.51,793.333 1637.3,911.59 1639.09,1008.41 1640.87,1087.68 1642.66,1087.68 1644.45,1033.02 1646.23,1059.43 1648.02,1129.45 1649.8,1129.45 1651.59,1059.62 1653.38,1059.62 1655.16,888.354 1656.95,903.068 1658.74,1001.43 1660.52,1001.43 1662.31,810.222 1664.1,810.222 1665.88,657.579 1667.67,737.127 1669.45,865.572 1671.24,865.572 1673.03,802.343 1674.81,847.314 1676.6,847.314 1678.39,720.011 1680.17,846.156 1681.96,954.838 1683.74,954.838 1685.53,820.303 1687.32,856.201 1689.1,963.062 1690.89,963.062 1692.68,862.177 1694.46,934.244 1696.25,934.244 1698.04,784.365 1699.82,784.365 1701.61,715.789 1703.39,715.789 1705.18,560.237 1706.97,592.214 1708.75,592.214 1710.54,562.069 1712.33,658.237 1714.11,658.237 1715.9,559.355 1717.68,559.355 1719.47,382.629 1721.26,382.629 1723.04,319.519 1724.83,323.575 1726.62,526.984 1728.4,693.522 1730.19,693.522 1731.98,553.25 1733.76,653.097 1735.55,653.097 1737.33,557.674 1739.12,557.674 1740.91,401.731 1742.69,401.731 1744.48,278.968 1746.27,426.824 1748.05,611.518 1749.84,611.518 1751.62,589.787 1753.41,598.564 1755.2,752.126 1756.98,877.853 1758.77,980.789 1760.56,1065.07 1762.34,1134.07 1764.13,1190.56 1765.92,1190.56 1767.7,1061.61 1769.49,1126.55 1771.27,1184.41 1773.06,1231.77 1774.85,1270.55 1776.63,1302.31 1778.42,1302.31 1780.21,1158.7 1781.99,1167.54 1783.78,1217.96 1785.56,1259.25 1787.35,1293.05 1789.14,1320.72 1790.92,1343.38 1792.71,1343.38 1794.5,1156.68 1796.28,1176.61 1798.07,1225.39 1799.86,1225.39 1801.64,1129.21 1803.43,1135.11 1805.21,1191.41 1807,1237.51 1808.79,1275.25 1810.57,1306.15 1812.36,1331.45 1814.15,1331.45 1815.93,1140.51 1817.72,1176.76 1819.5,1225.51 1821.29,1265.43 1823.08,1265.43 1824.86,1084.93 1826.65,1084.93 1828.44,964.423 1830.22,964.423 1832.01,787.217 1833.8,794.207 1835.58,912.306 1837.37,1009 1839.15,1088.16 1840.94,1088.16 1842.73,1020.26 1844.51,1063.59 1846.3,1132.86 1848.09,1189.57 1849.87,1189.57 1851.66,1127.47 1853.44,1140.58 1855.23,1140.58 1857.02,1023.45 1858.8,1081.41 1860.59,1081.41 1862.38,1020.31 1864.16,1056.36 1865.95,1056.36 1867.74,887.577 1869.52,950.239 1871.31,950.239 1873.09,776.795 1874.88,868.212 1876.67,868.212 1878.45,763.408 1880.24,778.154 1882.03,778.154 1883.81,710.37 1885.6,778.819 1887.38,778.819 1889.17,706.632 1890.96,780.224 1892.74,900.857 1894.53,900.857 1896.32,800.926 1898.1,800.926 1899.89,735.702 1901.68,792.465 1903.46,792.465 1905.25,686.345 1907.03,761.406 1908.82,761.406 1910.61,656.652 1912.39,656.652 1914.18,525.377 1915.97,586.32 1917.75,742.102 1919.54,742.102 1921.32,689.006 1923.11,782.408 1924.9,902.646 1926.68,902.646 1928.47,864.243 1930.26,909.273 1932.04,909.273 1933.83,838.865 1935.62,920.356 1937.4,920.356 1939.19,856.605 1940.97,928.153 1942.76,1021.97 1944.55,1021.97 1946.33,824.854 1948.12,935.076 1949.91,935.076 1951.69,870.364 1953.48,870.364 1955.26,751.365 1957.05,820.764 1958.84,820.764 1960.62,770.816 1962.41,808.827 1964.2,808.827 1965.98,653.396 1967.77,749.333 1969.56,875.565 1971.34,875.565 1973.13,729.677 1974.91,799.198 1976.7,799.198 1978.49,667.936 1980.27,734.343 1982.06,734.343 1983.85,687.342 1985.63,739.771 1987.42,867.737 1989.2,867.737 1990.99,757.206 1992.78,757.206 1994.56,663.823 1996.35,682.994 1998.14,821.252 1999.92,934.448 2001.71,1027.13 2003.5,1103 2005.28,1103 2007.07,981.666 2008.85,1052.76 2010.64,1052.76 2012.43,946.412 2014.21,1007.54 2016,1007.54 2017.79,965.755 2019.57,993.121 2021.36,1075.16 2023.14,1075.16 2024.93,890.617 2026.72,972.735 2028.5,1058.47 2030.29,1128.67 2032.08,1186.14 2033.86,1186.14 2035.65,1093.25 2037.44,1149.57 2039.22,1203.26 2041.01,1247.21 2042.79,1283.19 2044.58,1283.19 2046.37,1099.1 2048.15,1133.18 2049.94,1189.83 2051.73,1236.21 2053.51,1274.19 2055.3,1274.19 2057.08,1099.89 2058.87,1114.85 2060.66,1114.85 2062.44,1001.8 2064.23,1013.22 2066.02,1091.62 2067.8,1091.62 2069.59,983.615 2071.38,983.615 2073.16,854.363 2074.95,921.362 2076.73,1016.41 2078.52,1016.41 2080.31,892.943 2082.09,983.203 2083.88,983.203 2085.67,916.392 2087.45,979.36 2089.24,1063.9 2091.02,1133.11 2092.81,1133.11 2094.6,1034.02 2096.38,1108.18 2098.17,1169.37 2099.96,1169.37 2101.74,1070.08 2103.53,1070.08 2105.32,892.251 2107.1,965.044 2108.89,965.044 2110.67,766.933 2112.46,766.933 2114.25,650.499 2116.03,650.499 2117.82,481.31 2119.61,509.835 2121.39,509.835 2123.18,318.676 2124.96,515.134 2126.75,683.82 2128.54,821.928 2130.32,821.928 2132.11,785.277 2133.9,806.588 2135.68,922.442 2137.47,1017.3 2139.26,1017.3 2141.04,902.811 2142.83,940.645 2144.61,940.645 2146.4,764.184 2148.19,861.608 2149.97,967.489 2151.76,967.489 2153.55,849.623 2155.33,849.623 2157.12,772.696 2158.9,772.696 2160.69,699.394 2162.48,721.839 2164.26,721.839 2166.05,621.263 2167.84,621.263 2169.62,573.931 2171.41,612.552 2173.2,612.552 2174.98,505.198 2176.77,505.198 2178.55,412.644 2180.34,488.224 2182.13,488.224 2183.91,355.766 2185.7,355.766 2187.49,251.378 2189.27,251.378 2191.06,87.9763 2192.84,269.055 2194.63,269.055 2196.42,242.838 2198.2,291.328 2199.99,500.583 2201.78,500.583 2203.56,388.279 2205.35,492.477 2207.14,665.27 2208.92,665.27 2210.71,480.641 2212.49,640.711 2214.28,786.634 2216.07,906.105 2217.85,1003.92 2219.64,1003.92 2221.43,907.664 2223.21,1001.92 2225,1001.92 2226.78,831.92 2228.57,907.987 2230.36,907.987 2232.14,794.192 2233.93,892.861 2235.72,993.077 2237.5,993.077 2239.29,894.305 2241.08,993.509 2242.86,993.509 2244.65,870.473 2246.43,870.473 2248.22,692.729 2250.01,692.729 2251.79,584.699 2253.58,584.699 2255.37,499.441 2257.15,503.299 2258.94,503.299 2260.72,372.487 2262.51,372.487 2264.3,323.695 2266.08,447.179 2267.87,628.183 2269.66,628.183 2271.44,552.205 2273.23,692.479 2275.02,829.017 2276.8,940.806 2278.59,940.806 2280.37,859.661 2282.16,947.771 2283.95,947.771 2285.73,807.709 2287.52,807.709 2289.31,736.348 "/>
<path clip-path="url(#clip590)" d="M185.588 198.898 L462.208 198.898 L462.208 95.2176 L185.588 95.2176  Z" fill="#ffffff" fill-rule="evenodd" fill-opacity="1"/>
<polyline clip-path="url(#clip590)" style="stroke:#000000; stroke-linecap:round; stroke-linejoin:round; stroke-width:4; stroke-opacity:1; fill:none" points="185.588,198.898 462.208,198.898 462.208,95.2176 185.588,95.2176 185.588,198.898 "/>
<polyline clip-path="url(#clip590)" style="stroke:#009af9; stroke-linecap:round; stroke-linejoin:round; stroke-width:4; stroke-opacity:1; fill:none" points="210.498,147.058 359.958,147.058 "/>
<path clip-path="url(#clip590)" d="M398.71 166.745 Q396.904 171.375 395.192 172.787 Q393.479 174.199 390.608 174.199 L387.205 174.199 L387.205 170.634 L389.705 170.634 Q391.465 170.634 392.437 169.8 Q393.409 168.967 394.59 165.865 L395.354 163.921 L384.868 138.412 L389.381 138.412 L397.483 158.689 L405.585 138.412 L410.099 138.412 L398.71 166.745 Z" fill="#000000" fill-rule="nonzero" fill-opacity="1" /><path clip-path="url(#clip590)" d="M417.39 160.402 L425.029 160.402 L425.029 134.037 L416.719 135.703 L416.719 131.444 L424.983 129.778 L429.659 129.778 L429.659 160.402 L437.298 160.402 L437.298 164.338 L417.39 164.338 L417.39 160.402 Z" fill="#000000" fill-rule="nonzero" fill-opacity="1" /></svg>
