<?xml version="1.0" encoding="utf-8"?>
<svg xmlns="http://www.w3.org/2000/svg" xmlns:xlink="http://www.w3.org/1999/xlink" width="600" height="400" viewBox="0 0 2400 1600">
<defs>
  <clipPath id="clip550">
    <rect x="0" y="0" width="2400" height="1600"/>
  </clipPath>
</defs>
<path clip-path="url(#clip550)" d="M0 1600 L2400 1600 L2400 0 L0 0  Z" fill="#ffffff" fill-rule="evenodd" fill-opacity="1"/>
<defs>
  <clipPath id="clip551">
    <rect x="155" y="47" width="2198" height="1440"/>
  </clipPath>
</defs>
<path clip-path="url(#clip550)" d="M155.927 1486.45 L2352.76 1486.45 L2352.76 47.2441 L155.927 47.2441  Z" fill="#ffffff" fill-rule="evenodd" fill-opacity="1"/>
<polyline clip-path="url(#clip551)" style="stroke:#000000; stroke-linecap:round; stroke-linejoin:round; stroke-width:2; stroke-opacity:0.1; fill:none" points="216.124,1486.45 216.124,47.2441 "/>
<polyline clip-path="url(#clip551)" style="stroke:#000000; stroke-linecap:round; stroke-linejoin:round; stroke-width:2; stroke-opacity:0.1; fill:none" points="710.513,1486.45 710.513,47.2441 "/>
<polyline clip-path="url(#clip551)" style="stroke:#000000; stroke-linecap:round; stroke-linejoin:round; stroke-width:2; stroke-opacity:0.1; fill:none" points="1204.9,1486.45 1204.9,47.2441 "/>
<polyline clip-path="url(#clip551)" style="stroke:#000000; stroke-linecap:round; stroke-linejoin:round; stroke-width:2; stroke-opacity:0.1; fill:none" points="1699.29,1486.45 1699.29,47.2441 "/>
<polyline clip-path="url(#clip551)" style="stroke:#000000; stroke-linecap:round; stroke-linejoin:round; stroke-width:2; stroke-opacity:0.1; fill:none" points="2193.68,1486.45 2193.68,47.2441 "/>
<polyline clip-path="url(#clip551)" style="stroke:#000000; stroke-linecap:round; stroke-linejoin:round; stroke-width:2; stroke-opacity:0.1; fill:none" points="155.927,1445.72 2352.76,1445.72 "/>
<polyline clip-path="url(#clip551)" style="stroke:#000000; stroke-linecap:round; stroke-linejoin:round; stroke-width:2; stroke-opacity:0.1; fill:none" points="155.927,1148.74 2352.76,1148.74 "/>
<polyline clip-path="url(#clip551)" style="stroke:#000000; stroke-linecap:round; stroke-linejoin:round; stroke-width:2; stroke-opacity:0.1; fill:none" points="155.927,851.758 2352.76,851.758 "/>
<polyline clip-path="url(#clip551)" style="stroke:#000000; stroke-linecap:round; stroke-linejoin:round; stroke-width:2; stroke-opacity:0.1; fill:none" points="155.927,554.779 2352.76,554.779 "/>
<polyline clip-path="url(#clip551)" style="stroke:#000000; stroke-linecap:round; stroke-linejoin:round; stroke-width:2; stroke-opacity:0.1; fill:none" points="155.927,257.801 2352.76,257.801 "/>
<polyline clip-path="url(#clip550)" style="stroke:#000000; stroke-linecap:round; stroke-linejoin:round; stroke-width:4; stroke-opacity:1; fill:none" points="155.927,1486.45 2352.76,1486.45 "/>
<polyline clip-path="url(#clip550)" style="stroke:#000000; stroke-linecap:round; stroke-linejoin:round; stroke-width:4; stroke-opacity:1; fill:none" points="216.124,1486.45 216.124,1467.55 "/>
<polyline clip-path="url(#clip550)" style="stroke:#000000; stroke-linecap:round; stroke-linejoin:round; stroke-width:4; stroke-opacity:1; fill:none" points="710.513,1486.45 710.513,1467.55 "/>
<polyline clip-path="url(#clip550)" style="stroke:#000000; stroke-linecap:round; stroke-linejoin:round; stroke-width:4; stroke-opacity:1; fill:none" points="1204.9,1486.45 1204.9,1467.55 "/>
<polyline clip-path="url(#clip550)" style="stroke:#000000; stroke-linecap:round; stroke-linejoin:round; stroke-width:4; stroke-opacity:1; fill:none" points="1699.29,1486.45 1699.29,1467.55 "/>
<polyline clip-path="url(#clip550)" style="stroke:#000000; stroke-linecap:round; stroke-linejoin:round; stroke-width:4; stroke-opacity:1; fill:none" points="2193.68,1486.45 2193.68,1467.55 "/>
<path clip-path="url(#clip550)" d="M216.124 1517.37 Q212.513 1517.37 210.684 1520.93 Q208.878 1524.47 208.878 1531.6 Q208.878 1538.71 210.684 1542.27 Q212.513 1545.82 216.124 1545.82 Q219.758 1545.82 221.564 1542.27 Q223.392 1538.71 223.392 1531.6 Q223.392 1524.47 221.564 1520.93 Q219.758 1517.37 216.124 1517.37 M216.124 1513.66 Q221.934 1513.66 224.989 1518.27 Q228.068 1522.85 228.068 1531.6 Q228.068 1540.33 224.989 1544.94 Q221.934 1549.52 216.124 1549.52 Q210.314 1549.52 207.235 1544.94 Q204.179 1540.33 204.179 1531.6 Q204.179 1522.85 207.235 1518.27 Q210.314 1513.66 216.124 1513.66 Z" fill="#000000" fill-rule="nonzero" fill-opacity="1" /><path clip-path="url(#clip550)" d="M674.205 1544.91 L690.525 1544.91 L690.525 1548.85 L668.58 1548.85 L668.58 1544.91 Q671.243 1542.16 675.826 1537.53 Q680.432 1532.88 681.613 1531.53 Q683.858 1529.01 684.738 1527.27 Q685.641 1525.51 685.641 1523.82 Q685.641 1521.07 683.696 1519.33 Q681.775 1517.6 678.673 1517.6 Q676.474 1517.6 674.02 1518.36 Q671.59 1519.13 668.812 1520.68 L668.812 1515.95 Q671.636 1514.82 674.09 1514.24 Q676.543 1513.66 678.58 1513.66 Q683.951 1513.66 687.145 1516.35 Q690.34 1519.03 690.34 1523.52 Q690.34 1525.65 689.529 1527.57 Q688.742 1529.47 686.636 1532.07 Q686.057 1532.74 682.955 1535.95 Q679.854 1539.15 674.205 1544.91 Z" fill="#000000" fill-rule="nonzero" fill-opacity="1" /><path clip-path="url(#clip550)" d="M700.386 1514.29 L718.742 1514.29 L718.742 1518.22 L704.668 1518.22 L704.668 1526.7 Q705.687 1526.35 706.705 1526.19 Q707.724 1526 708.742 1526 Q714.529 1526 717.909 1529.17 Q721.289 1532.34 721.289 1537.76 Q721.289 1543.34 717.816 1546.44 Q714.344 1549.52 708.025 1549.52 Q705.849 1549.52 703.58 1549.15 Q701.335 1548.78 698.928 1548.04 L698.928 1543.34 Q701.011 1544.47 703.233 1545.03 Q705.455 1545.58 707.932 1545.58 Q711.937 1545.58 714.275 1543.48 Q716.613 1541.37 716.613 1537.76 Q716.613 1534.15 714.275 1532.04 Q711.937 1529.94 707.932 1529.94 Q706.057 1529.94 704.182 1530.35 Q702.33 1530.77 700.386 1531.65 L700.386 1514.29 Z" fill="#000000" fill-rule="nonzero" fill-opacity="1" /><path clip-path="url(#clip550)" d="M740.501 1517.37 Q736.89 1517.37 735.062 1520.93 Q733.256 1524.47 733.256 1531.6 Q733.256 1538.71 735.062 1542.27 Q736.89 1545.82 740.501 1545.82 Q744.136 1545.82 745.941 1542.27 Q747.77 1538.71 747.77 1531.6 Q747.77 1524.47 745.941 1520.93 Q744.136 1517.37 740.501 1517.37 M740.501 1513.66 Q746.312 1513.66 749.367 1518.27 Q752.446 1522.85 752.446 1531.6 Q752.446 1540.33 749.367 1544.94 Q746.312 1549.52 740.501 1549.52 Q734.691 1549.52 731.613 1544.94 Q728.557 1540.33 728.557 1531.6 Q728.557 1522.85 731.613 1518.27 Q734.691 1513.66 740.501 1513.66 Z" fill="#000000" fill-rule="nonzero" fill-opacity="1" /><path clip-path="url(#clip550)" d="M1164.52 1514.29 L1182.88 1514.29 L1182.88 1518.22 L1168.8 1518.22 L1168.8 1526.7 Q1169.82 1526.35 1170.84 1526.19 Q1171.86 1526 1172.88 1526 Q1178.66 1526 1182.04 1529.17 Q1185.42 1532.34 1185.42 1537.76 Q1185.42 1543.34 1181.95 1546.44 Q1178.48 1549.52 1172.16 1549.52 Q1169.98 1549.52 1167.72 1549.15 Q1165.47 1548.78 1163.06 1548.04 L1163.06 1543.34 Q1165.15 1544.47 1167.37 1545.03 Q1169.59 1545.58 1172.07 1545.58 Q1176.07 1545.58 1178.41 1543.48 Q1180.75 1541.37 1180.75 1537.76 Q1180.75 1534.15 1178.41 1532.04 Q1176.07 1529.94 1172.07 1529.94 Q1170.19 1529.94 1168.32 1530.35 Q1166.47 1530.77 1164.52 1531.65 L1164.52 1514.29 Z" fill="#000000" fill-rule="nonzero" fill-opacity="1" /><path clip-path="url(#clip550)" d="M1204.64 1517.37 Q1201.03 1517.37 1199.2 1520.93 Q1197.39 1524.47 1197.39 1531.6 Q1197.39 1538.71 1199.2 1542.27 Q1201.03 1545.82 1204.64 1545.82 Q1208.27 1545.82 1210.08 1542.27 Q1211.9 1538.71 1211.9 1531.6 Q1211.9 1524.47 1210.08 1520.93 Q1208.27 1517.37 1204.64 1517.37 M1204.64 1513.66 Q1210.45 1513.66 1213.5 1518.27 Q1216.58 1522.85 1216.58 1531.6 Q1216.58 1540.33 1213.5 1544.94 Q1210.45 1549.52 1204.64 1549.52 Q1198.83 1549.52 1195.75 1544.94 Q1192.69 1540.33 1192.69 1531.6 Q1192.69 1522.85 1195.75 1518.27 Q1198.83 1513.66 1204.64 1513.66 Z" fill="#000000" fill-rule="nonzero" fill-opacity="1" /><path clip-path="url(#clip550)" d="M1234.8 1517.37 Q1231.19 1517.37 1229.36 1520.93 Q1227.55 1524.47 1227.55 1531.6 Q1227.55 1538.71 1229.36 1542.27 Q1231.19 1545.82 1234.8 1545.82 Q1238.43 1545.82 1240.24 1542.27 Q1242.07 1538.71 1242.07 1531.6 Q1242.07 1524.47 1240.24 1520.93 Q1238.43 1517.37 1234.8 1517.37 M1234.8 1513.66 Q1240.61 1513.66 1243.66 1518.27 Q1246.74 1522.85 1246.74 1531.6 Q1246.74 1540.33 1243.66 1544.94 Q1240.61 1549.52 1234.8 1549.52 Q1228.99 1549.52 1225.91 1544.94 Q1222.85 1540.33 1222.85 1531.6 Q1222.85 1522.85 1225.91 1518.27 Q1228.99 1513.66 1234.8 1513.66 Z" fill="#000000" fill-rule="nonzero" fill-opacity="1" /><path clip-path="url(#clip550)" d="M1657.57 1514.29 L1679.79 1514.29 L1679.79 1516.28 L1667.24 1548.85 L1662.36 1548.85 L1674.16 1518.22 L1657.57 1518.22 L1657.57 1514.29 Z" fill="#000000" fill-rule="nonzero" fill-opacity="1" /><path clip-path="url(#clip550)" d="M1688.96 1514.29 L1707.31 1514.29 L1707.31 1518.22 L1693.24 1518.22 L1693.24 1526.7 Q1694.26 1526.35 1695.28 1526.19 Q1696.29 1526 1697.31 1526 Q1703.1 1526 1706.48 1529.17 Q1709.86 1532.34 1709.86 1537.76 Q1709.86 1543.34 1706.39 1546.44 Q1702.91 1549.52 1696.6 1549.52 Q1694.42 1549.52 1692.15 1549.15 Q1689.91 1548.78 1687.5 1548.04 L1687.5 1543.34 Q1689.58 1544.47 1691.8 1545.03 Q1694.03 1545.58 1696.5 1545.58 Q1700.51 1545.58 1702.85 1543.48 Q1705.18 1541.37 1705.18 1537.76 Q1705.18 1534.15 1702.85 1532.04 Q1700.51 1529.94 1696.5 1529.94 Q1694.63 1529.94 1692.75 1530.35 Q1690.9 1530.77 1688.96 1531.65 L1688.96 1514.29 Z" fill="#000000" fill-rule="nonzero" fill-opacity="1" /><path clip-path="url(#clip550)" d="M1729.07 1517.37 Q1725.46 1517.37 1723.63 1520.93 Q1721.83 1524.47 1721.83 1531.6 Q1721.83 1538.71 1723.63 1542.27 Q1725.46 1545.82 1729.07 1545.82 Q1732.71 1545.82 1734.51 1542.27 Q1736.34 1538.71 1736.34 1531.6 Q1736.34 1524.47 1734.51 1520.93 Q1732.71 1517.37 1729.07 1517.37 M1729.07 1513.66 Q1734.88 1513.66 1737.94 1518.27 Q1741.02 1522.85 1741.02 1531.6 Q1741.02 1540.33 1737.94 1544.94 Q1734.88 1549.52 1729.07 1549.52 Q1723.26 1549.52 1720.18 1544.94 Q1717.13 1540.33 1717.13 1531.6 Q1717.13 1522.85 1720.18 1518.27 Q1723.26 1513.66 1729.07 1513.66 Z" fill="#000000" fill-rule="nonzero" fill-opacity="1" /><path clip-path="url(#clip550)" d="M2138.21 1544.91 L2145.85 1544.91 L2145.85 1518.55 L2137.54 1520.21 L2137.54 1515.95 L2145.8 1514.29 L2150.48 1514.29 L2150.48 1544.91 L2158.11 1544.91 L2158.11 1548.85 L2138.21 1548.85 L2138.21 1544.91 Z" fill="#000000" fill-rule="nonzero" fill-opacity="1" /><path clip-path="url(#clip550)" d="M2177.56 1517.37 Q2173.95 1517.37 2172.12 1520.93 Q2170.31 1524.47 2170.31 1531.6 Q2170.31 1538.71 2172.12 1542.27 Q2173.95 1545.82 2177.56 1545.82 Q2181.19 1545.82 2183 1542.27 Q2184.83 1538.71 2184.83 1531.6 Q2184.83 1524.47 2183 1520.93 Q2181.19 1517.37 2177.56 1517.37 M2177.56 1513.66 Q2183.37 1513.66 2186.42 1518.27 Q2189.5 1522.85 2189.5 1531.6 Q2189.5 1540.33 2186.42 1544.94 Q2183.37 1549.52 2177.56 1549.52 Q2171.75 1549.52 2168.67 1544.94 Q2165.61 1540.33 2165.61 1531.6 Q2165.61 1522.85 2168.67 1518.27 Q2171.75 1513.66 2177.56 1513.66 Z" fill="#000000" fill-rule="nonzero" fill-opacity="1" /><path clip-path="url(#clip550)" d="M2207.72 1517.37 Q2204.11 1517.37 2202.28 1520.93 Q2200.48 1524.47 2200.48 1531.6 Q2200.48 1538.71 2202.28 1542.27 Q2204.11 1545.82 2207.72 1545.82 Q2211.35 1545.82 2213.16 1542.27 Q2214.99 1538.71 2214.99 1531.6 Q2214.99 1524.47 2213.16 1520.93 Q2211.35 1517.37 2207.72 1517.37 M2207.72 1513.66 Q2213.53 1513.66 2216.59 1518.27 Q2219.66 1522.85 2219.66 1531.6 Q2219.66 1540.33 2216.59 1544.94 Q2213.53 1549.52 2207.72 1549.52 Q2201.91 1549.52 2198.83 1544.94 Q2195.78 1540.33 2195.78 1531.6 Q2195.78 1522.85 2198.83 1518.27 Q2201.91 1513.66 2207.72 1513.66 Z" fill="#000000" fill-rule="nonzero" fill-opacity="1" /><path clip-path="url(#clip550)" d="M2237.88 1517.37 Q2234.27 1517.37 2232.44 1520.93 Q2230.64 1524.47 2230.64 1531.6 Q2230.64 1538.71 2232.44 1542.27 Q2234.27 1545.82 2237.88 1545.82 Q2241.52 1545.82 2243.32 1542.27 Q2245.15 1538.71 2245.15 1531.6 Q2245.15 1524.47 2243.32 1520.93 Q2241.52 1517.37 2237.88 1517.37 M2237.88 1513.66 Q2243.69 1513.66 2246.75 1518.27 Q2249.83 1522.85 2249.83 1531.6 Q2249.83 1540.33 2246.75 1544.94 Q2243.69 1549.52 2237.88 1549.52 Q2232.07 1549.52 2228.99 1544.94 Q2225.94 1540.33 2225.94 1531.6 Q2225.94 1522.85 2228.99 1518.27 Q2232.07 1513.66 2237.88 1513.66 Z" fill="#000000" fill-rule="nonzero" fill-opacity="1" /><polyline clip-path="url(#clip550)" style="stroke:#000000; stroke-linecap:round; stroke-linejoin:round; stroke-width:4; stroke-opacity:1; fill:none" points="155.927,1486.45 155.927,47.2441 "/>
<polyline clip-path="url(#clip550)" style="stroke:#000000; stroke-linecap:round; stroke-linejoin:round; stroke-width:4; stroke-opacity:1; fill:none" points="155.927,1445.72 174.825,1445.72 "/>
<polyline clip-path="url(#clip550)" style="stroke:#000000; stroke-linecap:round; stroke-linejoin:round; stroke-width:4; stroke-opacity:1; fill:none" points="155.927,1148.74 174.825,1148.74 "/>
<polyline clip-path="url(#clip550)" style="stroke:#000000; stroke-linecap:round; stroke-linejoin:round; stroke-width:4; stroke-opacity:1; fill:none" points="155.927,851.758 174.825,851.758 "/>
<polyline clip-path="url(#clip550)" style="stroke:#000000; stroke-linecap:round; stroke-linejoin:round; stroke-width:4; stroke-opacity:1; fill:none" points="155.927,554.779 174.825,554.779 "/>
<polyline clip-path="url(#clip550)" style="stroke:#000000; stroke-linecap:round; stroke-linejoin:round; stroke-width:4; stroke-opacity:1; fill:none" points="155.927,257.801 174.825,257.801 "/>
<path clip-path="url(#clip550)" d="M52.7977 1428.44 L71.1541 1428.44 L71.1541 1432.37 L57.0801 1432.37 L57.0801 1440.84 Q58.0986 1440.5 59.1171 1440.33 Q60.1356 1440.15 61.1541 1440.15 Q66.9411 1440.15 70.3207 1443.32 Q73.7003 1446.49 73.7003 1451.91 Q73.7003 1457.49 70.2281 1460.59 Q66.7559 1463.67 60.4365 1463.67 Q58.2606 1463.67 55.9921 1463.3 Q53.7467 1462.93 51.3393 1462.19 L51.3393 1457.49 Q53.4227 1458.62 55.6449 1459.18 Q57.8671 1459.73 60.3439 1459.73 Q64.3485 1459.73 66.6865 1457.63 Q69.0244 1455.52 69.0244 1451.91 Q69.0244 1448.3 66.6865 1446.19 Q64.3485 1444.08 60.3439 1444.08 Q58.4689 1444.08 56.5939 1444.5 Q54.7421 1444.92 52.7977 1445.8 L52.7977 1428.44 Z" fill="#000000" fill-rule="nonzero" fill-opacity="1" /><path clip-path="url(#clip550)" d="M82.9133 1457.12 L87.7975 1457.12 L87.7975 1463 L82.9133 1463 L82.9133 1457.12 Z" fill="#000000" fill-rule="nonzero" fill-opacity="1" /><path clip-path="url(#clip550)" d="M107.983 1431.51 Q104.371 1431.51 102.543 1435.08 Q100.737 1438.62 100.737 1445.75 Q100.737 1452.86 102.543 1456.42 Q104.371 1459.96 107.983 1459.96 Q111.617 1459.96 113.422 1456.42 Q115.251 1452.86 115.251 1445.75 Q115.251 1438.62 113.422 1435.08 Q111.617 1431.51 107.983 1431.51 M107.983 1427.81 Q113.793 1427.81 116.848 1432.42 Q119.927 1437 119.927 1445.75 Q119.927 1454.48 116.848 1459.08 Q113.793 1463.67 107.983 1463.67 Q102.172 1463.67 99.0937 1459.08 Q96.0382 1454.48 96.0382 1445.75 Q96.0382 1437 99.0937 1432.42 Q102.172 1427.81 107.983 1427.81 Z" fill="#000000" fill-rule="nonzero" fill-opacity="1" /><path clip-path="url(#clip550)" d="M53.793 1131.46 L72.1494 1131.46 L72.1494 1135.39 L58.0754 1135.39 L58.0754 1143.86 Q59.0939 1143.52 60.1124 1143.36 Q61.131 1143.17 62.1495 1143.17 Q67.9365 1143.17 71.3161 1146.34 Q74.6957 1149.51 74.6957 1154.93 Q74.6957 1160.51 71.2235 1163.61 Q67.7513 1166.69 61.4319 1166.69 Q59.256 1166.69 56.9875 1166.32 Q54.7421 1165.95 52.3347 1165.21 L52.3347 1160.51 Q54.418 1161.64 56.6402 1162.2 Q58.8625 1162.75 61.3393 1162.75 Q65.3439 1162.75 67.6819 1160.65 Q70.0198 1158.54 70.0198 1154.93 Q70.0198 1151.32 67.6819 1149.21 Q65.3439 1147.1 61.3393 1147.1 Q59.4643 1147.1 57.5893 1147.52 Q55.7375 1147.94 53.793 1148.82 L53.793 1131.46 Z" fill="#000000" fill-rule="nonzero" fill-opacity="1" /><path clip-path="url(#clip550)" d="M83.9086 1160.14 L88.7928 1160.14 L88.7928 1166.02 L83.9086 1166.02 L83.9086 1160.14 Z" fill="#000000" fill-rule="nonzero" fill-opacity="1" /><path clip-path="url(#clip550)" d="M99.0243 1131.46 L117.381 1131.46 L117.381 1135.39 L103.307 1135.39 L103.307 1143.86 Q104.325 1143.52 105.344 1143.36 Q106.362 1143.17 107.381 1143.17 Q113.168 1143.17 116.547 1146.34 Q119.927 1149.51 119.927 1154.93 Q119.927 1160.51 116.455 1163.61 Q112.983 1166.69 106.663 1166.69 Q104.487 1166.69 102.219 1166.32 Q99.9733 1165.95 97.566 1165.21 L97.566 1160.51 Q99.6493 1161.64 101.871 1162.2 Q104.094 1162.75 106.571 1162.75 Q110.575 1162.75 112.913 1160.65 Q115.251 1158.54 115.251 1154.93 Q115.251 1151.32 112.913 1149.21 Q110.575 1147.1 106.571 1147.1 Q104.696 1147.1 102.821 1147.52 Q100.969 1147.94 99.0243 1148.82 L99.0243 1131.46 Z" fill="#000000" fill-rule="nonzero" fill-opacity="1" /><path clip-path="url(#clip550)" d="M63.33 849.895 Q60.1819 849.895 58.33 852.048 Q56.5014 854.2 56.5014 857.95 Q56.5014 861.677 58.33 863.853 Q60.1819 866.006 63.33 866.006 Q66.4782 866.006 68.3068 863.853 Q70.1587 861.677 70.1587 857.95 Q70.1587 854.2 68.3068 852.048 Q66.4782 849.895 63.33 849.895 M72.6124 835.242 L72.6124 839.501 Q70.8531 838.668 69.0476 838.228 Q67.2652 837.788 65.5059 837.788 Q60.8763 837.788 58.4226 840.913 Q55.9921 844.038 55.6449 850.358 Q57.0106 848.344 59.0708 847.279 Q61.131 846.191 63.6078 846.191 Q68.8161 846.191 71.8253 849.362 Q74.8577 852.51 74.8577 857.95 Q74.8577 863.274 71.7096 866.492 Q68.5615 869.709 63.33 869.709 Q57.3347 869.709 54.1634 865.126 Q50.9921 860.52 50.9921 851.793 Q50.9921 843.598 54.881 838.737 Q58.7699 833.853 65.3208 833.853 Q67.08 833.853 68.8624 834.2 Q70.6679 834.548 72.6124 835.242 Z" fill="#000000" fill-rule="nonzero" fill-opacity="1" /><path clip-path="url(#clip550)" d="M82.9133 863.159 L87.7975 863.159 L87.7975 869.038 L82.9133 869.038 L82.9133 863.159 Z" fill="#000000" fill-rule="nonzero" fill-opacity="1" /><path clip-path="url(#clip550)" d="M107.983 837.557 Q104.371 837.557 102.543 841.122 Q100.737 844.663 100.737 851.793 Q100.737 858.899 102.543 862.464 Q104.371 866.006 107.983 866.006 Q111.617 866.006 113.422 862.464 Q115.251 858.899 115.251 851.793 Q115.251 844.663 113.422 841.122 Q111.617 837.557 107.983 837.557 M107.983 833.853 Q113.793 833.853 116.848 838.46 Q119.927 843.043 119.927 851.793 Q119.927 860.52 116.848 865.126 Q113.793 869.709 107.983 869.709 Q102.172 869.709 99.0937 865.126 Q96.0382 860.52 96.0382 851.793 Q96.0382 843.043 99.0937 838.46 Q102.172 833.853 107.983 833.853 Z" fill="#000000" fill-rule="nonzero" fill-opacity="1" /><path clip-path="url(#clip550)" d="M64.3254 552.916 Q61.1773 552.916 59.3254 555.069 Q57.4967 557.222 57.4967 560.971 Q57.4967 564.698 59.3254 566.874 Q61.1773 569.027 64.3254 569.027 Q67.4735 569.027 69.3022 566.874 Q71.1541 564.698 71.1541 560.971 Q71.1541 557.222 69.3022 555.069 Q67.4735 552.916 64.3254 552.916 M73.6077 538.263 L73.6077 542.523 Q71.8485 541.689 70.0429 541.249 Q68.2606 540.81 66.5013 540.81 Q61.8717 540.81 59.418 543.935 Q56.9875 547.06 56.6402 553.379 Q58.006 551.365 60.0662 550.3 Q62.1263 549.212 64.6032 549.212 Q69.8115 549.212 72.8207 552.384 Q75.8531 555.532 75.8531 560.971 Q75.8531 566.296 72.705 569.513 Q69.5568 572.731 64.3254 572.731 Q58.33 572.731 55.1588 568.147 Q51.9875 563.541 51.9875 554.814 Q51.9875 546.62 55.8764 541.759 Q59.7652 536.874 66.3161 536.874 Q68.0754 536.874 69.8578 537.222 Q71.6633 537.569 73.6077 538.263 Z" fill="#000000" fill-rule="nonzero" fill-opacity="1" /><path clip-path="url(#clip550)" d="M83.9086 566.18 L88.7928 566.18 L88.7928 572.059 L83.9086 572.059 L83.9086 566.18 Z" fill="#000000" fill-rule="nonzero" fill-opacity="1" /><path clip-path="url(#clip550)" d="M99.0243 537.499 L117.381 537.499 L117.381 541.435 L103.307 541.435 L103.307 549.907 Q104.325 549.56 105.344 549.397 Q106.362 549.212 107.381 549.212 Q113.168 549.212 116.547 552.384 Q119.927 555.555 119.927 560.971 Q119.927 566.55 116.455 569.652 Q112.983 572.731 106.663 572.731 Q104.487 572.731 102.219 572.36 Q99.9733 571.99 97.566 571.249 L97.566 566.55 Q99.6493 567.684 101.871 568.24 Q104.094 568.796 106.571 568.796 Q110.575 568.796 112.913 566.689 Q115.251 564.583 115.251 560.971 Q115.251 557.36 112.913 555.254 Q110.575 553.147 106.571 553.147 Q104.696 553.147 102.821 553.564 Q100.969 553.981 99.0243 554.86 L99.0243 537.499 Z" fill="#000000" fill-rule="nonzero" fill-opacity="1" /><path clip-path="url(#clip550)" d="M51.5708 240.521 L73.7929 240.521 L73.7929 242.511 L61.2467 275.081 L56.3625 275.081 L68.168 244.456 L51.5708 244.456 L51.5708 240.521 Z" fill="#000000" fill-rule="nonzero" fill-opacity="1" /><path clip-path="url(#clip550)" d="M82.9133 269.201 L87.7975 269.201 L87.7975 275.081 L82.9133 275.081 L82.9133 269.201 Z" fill="#000000" fill-rule="nonzero" fill-opacity="1" /><path clip-path="url(#clip550)" d="M107.983 243.599 Q104.371 243.599 102.543 247.164 Q100.737 250.706 100.737 257.835 Q100.737 264.942 102.543 268.507 Q104.371 272.048 107.983 272.048 Q111.617 272.048 113.422 268.507 Q115.251 264.942 115.251 257.835 Q115.251 250.706 113.422 247.164 Q111.617 243.599 107.983 243.599 M107.983 239.896 Q113.793 239.896 116.848 244.502 Q119.927 249.085 119.927 257.835 Q119.927 266.562 116.848 271.169 Q113.793 275.752 107.983 275.752 Q102.172 275.752 99.0937 271.169 Q96.0382 266.562 96.0382 257.835 Q96.0382 249.085 99.0937 244.502 Q102.172 239.896 107.983 239.896 Z" fill="#000000" fill-rule="nonzero" fill-opacity="1" /><polyline clip-path="url(#clip551)" style="stroke:#009af9; stroke-linecap:round; stroke-linejoin:round; stroke-width:4; stroke-opacity:1; fill:none" points="218.101,1445.72 220.079,1445.72 222.056,1445.72 224.034,1386.32 226.012,1393.57 227.989,1403.02 229.967,1403.02 231.944,1288.37 233.922,1303.06 235.899,1303.06 237.877,1084.77 239.854,1103.99 241.832,1165.93 243.81,1216.65 245.787,1216.65 247.765,1000.23 249.742,1043.85 251.72,1043.85 253.697,997.672 255.675,997.989 257.652,1079.15 259.63,1145.6 261.608,1200 263.585,1200 265.563,1024.78 267.54,1096.86 269.518,1160.1 271.495,1160.1 273.473,1117.84 275.451,1160.14 277.428,1160.14 279.406,1126.35 281.383,1158.49 283.361,1158.49 285.338,989.742 287.316,1059.71 289.293,1059.71 291.271,1005.93 293.249,1080.33 295.226,1146.56 297.204,1200.79 299.181,1245.19 301.159,1245.19 303.136,1136.07 305.114,1136.07 307.091,1085.21 309.069,1126.81 311.047,1126.81 313.024,1044.25 315.002,1074.89 316.979,1142.11 318.957,1142.11 320.934,1086.93 322.912,1147.83 324.889,1147.83 326.867,936.765 328.845,988.305 330.822,1071.22 332.8,1139.1 334.777,1194.68 336.755,1194.68 338.732,977.85 340.71,1028.14 342.687,1103.84 344.665,1165.81 346.643,1216.55 348.62,1216.55 350.598,1109.13 352.575,1109.13 354.553,940.698 356.53,997.661 358.508,1078.88 360.485,1078.88 362.463,870.223 364.441,870.223 366.418,812.033 368.396,816.197 370.373,930.309 372.351,1023.74 374.328,1023.74 376.306,951.249 378.283,990.983 380.261,1073.41 382.239,1073.41 384.216,975.987 386.194,1037.72 388.171,1111.68 390.149,1111.68 392.126,944.36 394.104,1021.43 396.082,1021.43 398.059,1003.53 400.037,1044.44 402.014,1117.18 403.992,1176.73 405.969,1176.73 407.947,1089.95 409.924,1115.1 411.902,1115.1 413.88,948.975 415.857,1023.61 417.835,1100.13 419.812,1162.77 421.79,1162.77 423.767,1008.65 425.745,1054.61 427.722,1054.61 429.7,1044.56 431.678,1069.86 433.655,1137.99 435.633,1193.77 437.61,1239.44 439.588,1276.83 441.565,1307.45 443.543,1307.45 445.52,1135.89 447.498,1179.28 449.476,1227.57 451.453,1267.12 453.431,1267.12 455.408,1179.63 457.386,1181.56 459.363,1229.44 461.341,1268.65 463.318,1300.74 465.296,1300.74 467.274,1241.44 469.251,1241.44 471.229,1095.32 473.206,1105.21 475.184,1166.93 477.161,1166.93 479.139,1002.87 481.116,1063.79 483.094,1133.02 485.072,1133.02 487.049,1127.02 489.027,1131.06 491.004,1131.06 492.982,1053.78 494.959,1053.78 496.937,883.874 498.914,904.369 500.892,1002.5 502.87,1002.5 504.847,770.93 506.825,885.648 508.802,885.648 510.78,678.583 512.757,781.444 514.735,901.856 516.713,901.856 518.69,879.273 520.668,882.281 522.645,984.414 524.623,984.414 526.6,927.704 528.578,955.651 530.555,955.651 532.533,852.007 534.511,944.125 536.488,944.125 538.466,790.356 540.443,801.507 542.421,918.283 544.398,1013.89 546.376,1092.17 548.353,1156.25 550.331,1156.25 552.309,951.438 554.286,951.438 556.264,800.634 558.241,815.22 560.219,929.509 562.196,1023.08 564.174,1099.69 566.151,1099.69 568.129,988.429 570.107,988.429 572.084,917.246 574.062,952.019 576.039,1041.51 578.017,1114.78 579.994,1114.78 581.972,1091.57 583.949,1120.17 585.927,1120.17 587.905,1068.14 589.882,1129.43 591.86,1129.43 593.837,1103.86 595.815,1132.31 597.792,1132.31 599.77,1061.19 601.747,1074.41 603.725,1141.72 605.703,1141.72 607.68,1023.91 609.658,1099.25 611.635,1162.06 613.613,1162.06 615.59,1058.46 617.568,1110.71 619.545,1171.44 621.523,1171.44 623.501,1087.73 625.478,1109.63 627.456,1170.55 629.433,1170.55 631.411,1077.11 633.388,1113.31 635.366,1173.56 637.344,1222.9 639.321,1263.29 641.299,1296.35 643.276,1323.43 645.254,1345.6 647.231,1363.74 649.209,1363.74 651.186,1305.33 653.164,1329.39 655.142,1329.39 657.119,1274.22 659.097,1274.22 661.074,1179.07 663.052,1182.95 665.029,1182.95 667.007,1047.06 668.984,1056.7 670.962,1127.22 672.94,1184.95 674.917,1232.22 676.895,1270.92 678.872,1270.92 680.85,1059.1 682.827,1074.47 684.805,1141.76 686.782,1141.76 688.76,991.768 690.738,991.768 692.715,838.585 694.693,865.88 696.67,970.986 698.648,1057.04 700.625,1127.5 702.603,1185.18 704.58,1232.41 706.558,1271.07 708.536,1271.07 710.513,1040.71 712.491,1099.83 714.468,1162.53 716.446,1213.86 718.423,1255.89 720.401,1290.3 722.378,1318.47 724.356,1318.47 726.334,1206.87 728.311,1206.87 730.289,999.506 732.266,1002.42 734.244,1082.77 736.221,1148.56 738.199,1148.56 740.176,1123.49 742.154,1123.49 744.132,951.052 746.109,979.515 748.087,1064.02 750.064,1133.21 752.042,1189.86 754.019,1189.86 755.997,1110.28 757.975,1121.37 759.952,1180.17 761.93,1228.3 763.907,1228.3 765.885,1148.57 767.862,1149.16 769.84,1149.16 771.817,928.735 773.795,996.453 775.773,996.453 777.75,881.94 779.728,979.697 781.705,1064.17 783.683,1133.33 785.66,1189.96 787.638,1236.32 789.615,1274.28 791.593,1305.35 793.571,1305.35 795.548,1188.75 797.526,1188.75 799.503,1019.73 801.481,1078.32 803.458,1078.32 805.436,901.32 807.413,998.553 809.391,1079.61 811.369,1145.97 813.346,1200.31 815.324,1244.79 817.301,1281.21 819.279,1311.03 821.256,1335.45 823.234,1335.45 825.211,1173.37 827.189,1184.59 829.167,1184.59 831.144,972.816 833.122,972.816 835.099,881.849 837.077,901.405 839.054,1000.07 841.032,1080.85 843.009,1080.85 844.987,865.845 846.965,939.647 848.942,939.647 850.92,769.08 852.897,807.174 854.875,922.922 856.852,1017.69 858.83,1017.69 860.808,959.568 862.785,981.956 864.763,981.956 866.74,750.498 868.718,750.498 870.695,652.143 872.673,652.143 874.65,572.233 876.628,660.579 878.606,660.579 880.583,615.537 882.561,627.221 884.538,627.221 886.516,546.744 888.493,673.554 890.471,673.554 892.448,574.537 894.426,574.537 896.404,507.165 898.381,607.634 900.359,607.634 902.336,498.358 904.314,498.358 906.291,360.495 908.269,360.495 910.246,376.411 912.224,451.849 914.202,451.849 916.179,263.513 918.157,263.513 920.134,225.727 922.112,225.727 924.089,87.9763 926.067,147.059 928.044,382.466 930.022,575.2 932,575.2 933.977,592.481 935.955,617.72 937.932,767.81 939.91,890.694 941.887,991.302 943.865,991.302 945.842,835.205 947.82,836.654 949.798,836.654 951.775,667.129 953.753,728.072 955.73,858.159 957.708,964.665 959.685,1051.86 961.663,1123.26 963.64,1123.26 965.618,900.413 967.596,977.876 969.573,1062.68 971.551,1132.11 973.528,1188.96 975.506,1188.96 977.483,1076.35 979.461,1135.84 981.439,1135.84 983.416,984.438 985.394,1032.32 987.371,1032.32 989.349,930.996 991.326,930.996 993.304,785.933 995.281,842.911 997.259,952.181 999.237,952.181 1001.21,752.119 1003.19,831.123 1005.17,942.529 1007.15,942.529 1009.12,880.306 1011.1,924.165 1013.08,924.165 1015.06,831.643 1017.03,831.643 1019.01,821.277 1020.99,860.637 1022.97,860.637 1024.94,837.762 1026.92,850.365 1028.9,958.284 1030.88,958.284 1032.85,915.298 1034.83,931.471 1036.81,931.471 1038.79,759.579 1040.77,801.683 1042.74,918.427 1044.72,1014.01 1046.7,1092.26 1048.68,1156.33 1050.65,1156.33 1052.63,1073.6 1054.61,1097.69 1056.59,1160.78 1058.56,1212.43 1060.54,1212.43 1062.52,1116.98 1064.5,1146.64 1066.47,1200.86 1068.45,1245.24 1070.43,1281.58 1072.41,1281.58 1074.38,1237.25 1076.36,1257.79 1078.34,1291.85 1080.32,1319.74 1082.29,1319.74 1084.27,1267.64 1086.25,1290.96 1088.23,1319.02 1090.2,1319.02 1092.18,1203.33 1094.16,1242.28 1096.14,1279.16 1098.11,1309.35 1100.09,1334.07 1102.07,1354.31 1104.05,1354.31 1106.02,1243.28 1108,1264.58 1109.98,1297.42 1111.96,1297.42 1113.93,1253.4 1115.91,1270.04 1117.89,1301.89 1119.87,1301.89 1121.85,1246.78 1123.82,1246.78 1125.8,1087.86 1127.78,1087.86 1129.76,854.623 1131.73,886.618 1133.71,886.618 1135.69,828.549 1137.67,939.221 1139.64,939.221 1141.62,934.056 1143.6,934.056 1145.58,825.985 1147.55,865.321 1149.53,865.321 1151.51,682.102 1153.49,755.909 1155.46,880.95 1157.44,880.95 1159.42,845.082 1161.4,845.082 1163.37,749.731 1165.35,826.974 1167.33,826.974 1169.31,642.083 1171.28,726.509 1173.26,856.879 1175.24,856.879 1177.22,672.314 1179.19,672.314 1181.17,492.107 1183.15,518.961 1185.13,686.953 1187.1,824.493 1189.08,937.102 1191.06,937.102 1193.04,908.026 1195.01,908.026 1196.99,792.261 1198.97,802.075 1200.95,918.747 1202.92,918.747 1204.9,738.112 1206.88,796.186 1208.86,796.186 1210.84,727.629 1212.81,738.415 1214.79,866.627 1216.77,866.627 1218.75,678.277 1220.72,678.277 1222.7,472.123 1224.68,537.339 1226.66,702 1228.63,702 1230.61,706.168 1232.59,783.639 1234.57,783.639 1236.54,745.978 1238.52,745.978 1240.5,654.508 1242.48,748.728 1244.45,748.728 1246.43,642.817 1248.41,712.304 1250.39,712.304 1252.36,629.356 1254.34,677.59 1256.32,816.828 1258.3,816.828 1260.27,761.338 1262.25,822.682 1264.23,822.682 1266.21,821.763 1268.18,821.763 1270.16,746.933 1272.14,766.485 1274.12,766.485 1276.09,715.991 1278.07,840.334 1280.05,840.334 1282.03,744.128 1284,781.333 1285.98,901.765 1287.96,901.765 1289.94,795.127 1291.92,795.127 1293.89,772.052 1295.87,784.244 1297.85,904.148 1299.83,904.148 1301.8,940.086 1303.78,943.3 1305.76,943.3 1307.74,887.068 1309.71,985.435 1311.69,1068.87 1313.67,1137.18 1315.65,1193.11 1317.62,1193.11 1319.6,1117.45 1321.58,1121.61 1323.56,1180.36 1325.53,1228.46 1327.51,1228.46 1329.49,1111.24 1331.47,1169.88 1333.44,1169.88 1335.42,1025.87 1337.4,1053.36 1339.38,1124.48 1341.35,1124.48 1343.33,966.557 1345.31,966.557 1347.29,927.715 1349.26,972.773 1351.24,1058.5 1353.22,1128.69 1355.2,1128.69 1357.17,904.534 1359.15,904.534 1361.13,792.429 1363.11,880.212 1365.08,880.212 1367.06,882.515 1369.04,928.136 1371.02,1021.96 1372.99,1021.96 1374.97,789.942 1376.95,789.942 1378.93,706.44 1380.91,728.889 1382.88,858.828 1384.86,965.212 1386.84,1052.31 1388.82,1123.62 1390.79,1123.62 1392.77,1014.83 1394.75,1081.64 1396.73,1081.64 1398.7,916.333 1400.68,996.393 1402.66,1077.84 1404.64,1144.53 1406.61,1199.12 1408.59,1243.82 1410.57,1280.42 1412.55,1310.38 1414.52,1310.38 1416.5,1207.56 1418.48,1224.64 1420.46,1264.72 1422.43,1297.53 1424.41,1297.53 1426.39,1083.57 1428.37,1092.99 1430.34,1092.99 1432.32,974.724 1434.3,981.18 1436.28,981.18 1438.25,954.547 1440.23,1013.07 1442.21,1013.07 1444.19,1007.8 1446.16,1035.91 1448.14,1110.19 1450.12,1110.19 1452.1,1026.44 1454.07,1062.42 1456.05,1131.9 1458.03,1131.9 1460.01,955.403 1461.98,955.403 1463.96,843.077 1465.94,843.077 1467.92,775.168 1469.9,834.779 1471.87,834.779 1473.85,804.656 1475.83,831.753 1477.81,831.753 1479.78,845.682 1481.76,845.682 1483.74,670.937 1485.72,670.937 1487.69,598.836 1489.67,602.981 1491.65,755.743 1493.63,880.814 1495.6,983.213 1497.58,1067.05 1499.56,1067.05 1501.54,906.215 1503.51,982.798 1505.49,1066.71 1507.47,1066.71 1509.45,1071.4 1511.42,1076.89 1513.4,1076.89 1515.38,927.145 1517.36,985.666 1519.33,1069.06 1521.31,1069.06 1523.29,1024.8 1525.27,1024.8 1527.24,891.96 1529.22,891.96 1531.2,658.351 1533.18,687.548 1535.15,687.548 1537.13,470.5 1539.11,470.5 1541.09,303.95 1543.06,409.41 1545.04,409.41 1547.02,503.46 1549,540.18 1550.98,540.18 1552.95,509.551 1554.93,596.577 1556.91,750.5 1558.89,876.521 1560.86,979.698 1562.84,979.698 1564.82,829.834 1566.8,908.845 1568.77,908.845 1570.75,847.745 1572.73,897.196 1574.71,897.196 1576.68,804.289 1578.66,894.55 1580.64,994.46 1582.62,1076.26 1584.59,1076.26 1586.57,856.67 1588.55,938.755 1590.53,938.755 1592.5,712.897 1594.48,831.529 1596.46,831.529 1598.44,811.871 1600.41,826.884 1602.39,939.06 1604.37,939.06 1606.35,891.684 1608.32,891.684 1610.3,717.383 1612.28,756.154 1614.26,881.15 1616.23,881.15 1618.21,859.712 1620.19,865.965 1622.17,971.056 1624.14,1057.1 1626.12,1127.54 1628.1,1185.22 1630.08,1232.44 1632.05,1271.1 1634.03,1302.75 1636.01,1302.75 1637.99,1187.92 1639.97,1228.64 1641.94,1228.64 1643.92,1177.78 1645.9,1217.37 1647.88,1217.37 1649.85,1105.79 1651.83,1158.33 1653.81,1210.42 1655.79,1210.42 1657.76,1100.94 1659.74,1151.81 1661.72,1205.08 1663.7,1205.08 1665.67,1092.01 1667.65,1092.01 1669.63,1045.15 1671.61,1097.44 1673.58,1160.57 1675.56,1160.57 1677.54,973.008 1679.52,973.008 1681.49,738.257 1683.47,739.036 1685.45,739.036 1687.43,595.269 1689.4,642.843 1691.38,642.843 1693.36,694.032 1695.34,731.982 1697.31,731.982 1699.29,544.035 1701.27,652.304 1703.25,796.126 1705.22,913.876 1707.2,1010.28 1709.18,1089.21 1711.16,1089.21 1713.13,931.694 1715.11,998.97 1717.09,998.97 1719.07,902.826 1721.04,977.499 1723.02,1062.37 1725,1062.37 1726.98,953.421 1728.96,953.817 1730.93,953.817 1732.91,861.961 1734.89,940.091 1736.87,1031.74 1738.84,1031.74 1740.82,983.897 1742.8,989.412 1744.78,989.412 1746.75,877.232 1748.73,877.232 1750.71,848.684 1752.69,921.263 1754.66,1016.33 1756.64,1016.33 1758.62,886.218 1760.6,929.884 1762.57,929.884 1764.55,780.939 1766.53,788.511 1768.51,788.511 1770.48,675.292 1772.46,675.292 1774.44,550.558 1776.42,550.558 1778.39,459.379 1780.37,542.69 1782.35,706.381 1784.33,840.4 1786.3,950.125 1788.28,1039.96 1790.26,1039.96 1792.24,957.185 1794.21,1006.78 1796.19,1006.78 1798.17,962.197 1800.15,1036.02 1802.12,1036.02 1804.1,962.608 1806.08,1000.91 1808.06,1081.54 1810.04,1081.54 1812.01,974.233 1813.99,1047.13 1815.97,1047.13 1817.95,969.236 1819.92,969.236 1821.9,828.803 1823.88,834.441 1825.86,834.441 1827.83,740.739 1829.81,775.962 1831.79,775.962 1833.77,656.825 1835.74,661.06 1837.72,661.06 1839.7,656.081 1841.68,656.081 1843.65,545.251 1845.63,545.251 1847.61,441.514 1849.59,457.747 1851.56,636.835 1853.54,783.46 1855.52,903.507 1857.5,1001.79 1859.47,1001.79 1861.45,994.168 1863.43,1027.21 1865.41,1103.07 1867.38,1165.19 1869.36,1216.04 1871.34,1257.67 1873.32,1291.76 1875.29,1319.67 1877.27,1342.51 1879.25,1361.22 1881.23,1376.54 1883.2,1389.08 1885.18,1399.34 1887.16,1407.75 1889.14,1414.63 1891.11,1414.63 1893.09,1239.73 1895.07,1257.13 1897.05,1291.31 1899.03,1319.3 1901,1342.22 1902.98,1360.98 1904.96,1360.98 1906.94,1247.65 1908.91,1247.65 1910.89,1202.37 1912.87,1216.4 1914.85,1257.97 1916.82,1292 1918.8,1319.86 1920.78,1342.68 1922.76,1361.36 1924.73,1376.65 1926.71,1389.17 1928.69,1399.42 1930.67,1407.81 1932.64,1414.68 1934.62,1420.31 1936.6,1424.91 1938.58,1428.68 1940.55,1431.77 1942.53,1431.77 1944.51,1313.28 1946.49,1334.87 1948.46,1354.96 1950.44,1371.42 1952.42,1371.42 1954.4,1196.41 1956.37,1232.47 1958.35,1271.13 1960.33,1302.78 1962.31,1328.69 1964.28,1349.9 1966.26,1349.9 1968.24,1246.42 1970.22,1251.52 1972.19,1251.52 1974.17,1148.05 1976.15,1148.05 1978.13,1031.17 1980.1,1074.85 1982.08,1142.08 1984.06,1142.08 1986.04,1035.8 1988.02,1095.68 1989.99,1159.13 1991.97,1211.08 1993.95,1211.08 1995.93,1178.9 1997.9,1198.6 1999.88,1198.6 2001.86,1095.96 2003.84,1139.34 2005.81,1194.87 2007.79,1194.87 2009.77,1165.44 2011.75,1185.12 2013.72,1185.12 2015.7,1074.94 2017.68,1074.94 2019.66,976.764 2021.63,1025.27 2023.61,1101.48 2025.59,1163.88 2027.57,1214.97 2029.54,1214.97 2031.52,1117.48 2033.5,1117.48 2035.48,891.315 2037.45,927.622 2039.43,1021.54 2041.41,1098.43 2043.39,1161.38 2045.36,1212.92 2047.34,1212.92 2049.32,1007.33 2051.3,1007.33 2053.27,888.757 2055.25,916.806 2057.23,916.806 2059.21,800.681 2061.18,914.93 2063.16,1011.14 2065.14,1089.92 2067.12,1154.41 2069.1,1207.22 2071.07,1250.45 2073.05,1285.85 2075.03,1314.83 2077.01,1314.83 2078.98,1204.99 2080.96,1234.15 2082.94,1234.15 2084.92,1010.9 2086.89,1010.9 2088.87,974.095 2090.85,1008.84 2092.83,1088.03 2094.8,1088.03 2096.78,888.816 2098.76,888.816 2100.74,796.835 2102.71,820.522 2104.69,933.851 2106.67,1026.64 2108.65,1102.6 2110.62,1102.6 2112.6,1081.39 2114.58,1110.08 2116.56,1110.08 2118.53,957.63 2120.51,1012.92 2122.49,1012.92 2124.47,1007.02 2126.44,1035.88 2128.42,1035.88 2130.4,963.684 2132.38,963.684 2134.35,865.89 2136.33,885.707 2138.31,987.219 2140.29,1070.33 2142.26,1138.38 2144.24,1194.09 2146.22,1194.09 2148.2,966.235 2150.17,966.235 2152.15,757.738 2154.13,821.951 2156.11,935.02 2158.09,1027.59 2160.06,1027.59 2162.04,947.045 2164.02,996.337 2166,996.337 2167.97,956.83 2169.95,959.702 2171.93,1047.8 2173.91,1119.93 2175.88,1119.93 2177.86,963.423 2179.84,1022.7 2181.82,1099.38 2183.79,1099.38 2185.77,981.516 2187.75,1064.64 2189.73,1064.64 2191.7,984.11 2193.68,1025.6 2195.66,1101.76 2197.64,1164.11 2199.61,1215.15 2201.59,1215.15 2203.57,1118.91 2205.55,1149.15 2207.52,1149.15 2209.5,1033.08 2211.48,1104.75 2213.46,1166.55 2215.43,1217.16 2217.41,1258.59 2219.39,1258.59 2221.37,1206.82 2223.34,1241.81 2225.32,1241.81 2227.3,1155.08 2229.28,1163.37 2231.25,1163.37 2233.23,1031.51 2235.21,1040.04 2237.19,1040.04 2239.17,851.168 2241.14,892.511 2243.12,892.511 2245.1,761.885 2247.08,833.18 2249.05,833.18 2251.03,685.204 2253.01,716.366 2254.99,848.575 2256.96,956.818 2258.94,956.818 2260.92,947.789 2262.9,991.226 2264.87,991.226 2266.85,772.956 2268.83,772.956 2270.81,787.081 2272.78,813.443 2274.76,928.055 2276.74,1021.89 2278.72,1098.72 2280.69,1098.72 2282.67,953.754 2284.65,1000.28 2286.63,1000.28 2288.6,788.357 2290.58,874.621 "/>
<path clip-path="url(#clip550)" d="M2007.42 198.898 L2279.53 198.898 L2279.53 95.2176 L2007.42 95.2176  Z" fill="#ffffff" fill-rule="evenodd" fill-opacity="1"/>
<polyline clip-path="url(#clip550)" style="stroke:#000000; stroke-linecap:round; stroke-linejoin:round; stroke-width:4; stroke-opacity:1; fill:none" points="2007.42,198.898 2279.53,198.898 2279.53,95.2176 2007.42,95.2176 2007.42,198.898 "/>
<polyline clip-path="url(#clip550)" style="stroke:#009af9; stroke-linecap:round; stroke-linejoin:round; stroke-width:4; stroke-opacity:1; fill:none" points="2031.82,147.058 2178.28,147.058 "/>
<path clip-path="url(#clip550)" d="M2216.53 166.745 Q2214.73 171.375 2213.01 172.787 Q2211.3 174.199 2208.43 174.199 L2205.03 174.199 L2205.03 170.634 L2207.53 170.634 Q2209.29 170.634 2210.26 169.8 Q2211.23 168.967 2212.41 165.865 L2213.17 163.921 L2202.69 138.412 L2207.2 138.412 L2215.3 158.689 L2223.41 138.412 L2227.92 138.412 L2216.53 166.745 Z" fill="#000000" fill-rule="nonzero" fill-opacity="1" /><path clip-path="url(#clip550)" d="M2235.21 160.402 L2242.85 160.402 L2242.85 134.037 L2234.54 135.703 L2234.54 131.444 L2242.8 129.778 L2247.48 129.778 L2247.48 160.402 L2255.12 160.402 L2255.12 164.338 L2235.21 164.338 L2235.21 160.402 Z" fill="#000000" fill-rule="nonzero" fill-opacity="1" /></svg>
