<?xml version="1.0" encoding="utf-8"?>
<svg xmlns="http://www.w3.org/2000/svg" xmlns:xlink="http://www.w3.org/1999/xlink" width="600" height="400" viewBox="0 0 2400 1600">
<defs>
  <clipPath id="clip340">
    <rect x="0" y="0" width="2400" height="1600"/>
  </clipPath>
</defs>
<path clip-path="url(#clip340)" d="M0 1600 L2400 1600 L2400 0 L0 0  Z" fill="#ffffff" fill-rule="evenodd" fill-opacity="1"/>
<defs>
  <clipPath id="clip341">
    <rect x="140" y="47" width="2213" height="1377"/>
  </clipPath>
</defs>
<path clip-path="url(#clip340)" d="M140.696 1423.18 L2352.76 1423.18 L2352.76 47.2441 L140.696 47.2441  Z" fill="#ffffff" fill-rule="evenodd" fill-opacity="1"/>
<polyline clip-path="url(#clip341)" style="stroke:#000000; stroke-linecap:round; stroke-linejoin:round; stroke-width:2; stroke-opacity:0.1; fill:none" points="575.793,1423.18 575.793,47.2441 "/>
<polyline clip-path="url(#clip341)" style="stroke:#000000; stroke-linecap:round; stroke-linejoin:round; stroke-width:2; stroke-opacity:0.1; fill:none" points="1021.99,1423.18 1021.99,47.2441 "/>
<polyline clip-path="url(#clip341)" style="stroke:#000000; stroke-linecap:round; stroke-linejoin:round; stroke-width:2; stroke-opacity:0.1; fill:none" points="1468.2,1423.18 1468.2,47.2441 "/>
<polyline clip-path="url(#clip341)" style="stroke:#000000; stroke-linecap:round; stroke-linejoin:round; stroke-width:2; stroke-opacity:0.1; fill:none" points="1914.4,1423.18 1914.4,47.2441 "/>
<polyline clip-path="url(#clip341)" style="stroke:#000000; stroke-linecap:round; stroke-linejoin:round; stroke-width:2; stroke-opacity:0.1; fill:none" points="140.696,1389.52 2352.76,1389.52 "/>
<polyline clip-path="url(#clip341)" style="stroke:#000000; stroke-linecap:round; stroke-linejoin:round; stroke-width:2; stroke-opacity:0.1; fill:none" points="140.696,965.17 2352.76,965.17 "/>
<polyline clip-path="url(#clip341)" style="stroke:#000000; stroke-linecap:round; stroke-linejoin:round; stroke-width:2; stroke-opacity:0.1; fill:none" points="140.696,540.822 2352.76,540.822 "/>
<polyline clip-path="url(#clip341)" style="stroke:#000000; stroke-linecap:round; stroke-linejoin:round; stroke-width:2; stroke-opacity:0.1; fill:none" points="140.696,116.475 2352.76,116.475 "/>
<polyline clip-path="url(#clip340)" style="stroke:#000000; stroke-linecap:round; stroke-linejoin:round; stroke-width:4; stroke-opacity:1; fill:none" points="140.696,1423.18 2352.76,1423.18 "/>
<polyline clip-path="url(#clip340)" style="stroke:#000000; stroke-linecap:round; stroke-linejoin:round; stroke-width:4; stroke-opacity:1; fill:none" points="575.793,1423.18 575.793,1404.28 "/>
<polyline clip-path="url(#clip340)" style="stroke:#000000; stroke-linecap:round; stroke-linejoin:round; stroke-width:4; stroke-opacity:1; fill:none" points="1021.99,1423.18 1021.99,1404.28 "/>
<polyline clip-path="url(#clip340)" style="stroke:#000000; stroke-linecap:round; stroke-linejoin:round; stroke-width:4; stroke-opacity:1; fill:none" points="1468.2,1423.18 1468.2,1404.28 "/>
<polyline clip-path="url(#clip340)" style="stroke:#000000; stroke-linecap:round; stroke-linejoin:round; stroke-width:4; stroke-opacity:1; fill:none" points="1914.4,1423.18 1914.4,1404.28 "/>
<path clip-path="url(#clip340)" d="M550.48 1481.64 L558.119 1481.64 L558.119 1455.28 L549.809 1456.95 L549.809 1452.69 L558.073 1451.02 L562.749 1451.02 L562.749 1481.64 L570.388 1481.64 L570.388 1485.58 L550.48 1485.58 L550.48 1481.64 Z" fill="#000000" fill-rule="nonzero" fill-opacity="1" /><path clip-path="url(#clip340)" d="M589.832 1454.1 Q586.221 1454.1 584.392 1457.66 Q582.587 1461.2 582.587 1468.33 Q582.587 1475.44 584.392 1479.01 Q586.221 1482.55 589.832 1482.55 Q593.466 1482.55 595.272 1479.01 Q597.101 1475.44 597.101 1468.33 Q597.101 1461.2 595.272 1457.66 Q593.466 1454.1 589.832 1454.1 M589.832 1450.39 Q595.642 1450.39 598.698 1455 Q601.776 1459.58 601.776 1468.33 Q601.776 1477.06 598.698 1481.67 Q595.642 1486.25 589.832 1486.25 Q584.022 1486.25 580.943 1481.67 Q577.888 1477.06 577.888 1468.33 Q577.888 1459.58 580.943 1455 Q584.022 1450.39 589.832 1450.39 Z" fill="#000000" fill-rule="nonzero" fill-opacity="1" /><path clip-path="url(#clip340)" d="M1000.77 1481.64 L1017.09 1481.64 L1017.09 1485.58 L995.143 1485.58 L995.143 1481.64 Q997.805 1478.89 1002.39 1474.26 Q1006.99 1469.61 1008.17 1468.27 Q1010.42 1465.74 1011.3 1464.01 Q1012.2 1462.25 1012.2 1460.56 Q1012.2 1457.8 1010.26 1456.07 Q1008.34 1454.33 1005.24 1454.33 Q1003.04 1454.33 1000.58 1455.09 Q998.152 1455.86 995.374 1457.41 L995.374 1452.69 Q998.198 1451.55 1000.65 1450.97 Q1003.11 1450.39 1005.14 1450.39 Q1010.51 1450.39 1013.71 1453.08 Q1016.9 1455.77 1016.9 1460.26 Q1016.9 1462.39 1016.09 1464.31 Q1015.3 1466.2 1013.2 1468.8 Q1012.62 1469.47 1009.52 1472.69 Q1006.42 1475.88 1000.77 1481.64 Z" fill="#000000" fill-rule="nonzero" fill-opacity="1" /><path clip-path="url(#clip340)" d="M1036.9 1454.1 Q1033.29 1454.1 1031.46 1457.66 Q1029.66 1461.2 1029.66 1468.33 Q1029.66 1475.44 1031.46 1479.01 Q1033.29 1482.55 1036.9 1482.55 Q1040.54 1482.55 1042.34 1479.01 Q1044.17 1475.44 1044.17 1468.33 Q1044.17 1461.2 1042.34 1457.66 Q1040.54 1454.1 1036.9 1454.1 M1036.9 1450.39 Q1042.71 1450.39 1045.77 1455 Q1048.85 1459.58 1048.85 1468.33 Q1048.85 1477.06 1045.77 1481.67 Q1042.71 1486.25 1036.9 1486.25 Q1031.09 1486.25 1028.01 1481.67 Q1024.96 1477.06 1024.96 1468.33 Q1024.96 1459.58 1028.01 1455 Q1031.09 1450.39 1036.9 1450.39 Z" fill="#000000" fill-rule="nonzero" fill-opacity="1" /><path clip-path="url(#clip340)" d="M1457.04 1466.95 Q1460.39 1467.66 1462.27 1469.93 Q1464.17 1472.2 1464.17 1475.53 Q1464.17 1480.65 1460.65 1483.45 Q1457.13 1486.25 1450.65 1486.25 Q1448.47 1486.25 1446.16 1485.81 Q1443.87 1485.39 1441.41 1484.54 L1441.41 1480.02 Q1443.36 1481.16 1445.67 1481.74 Q1447.99 1482.32 1450.51 1482.32 Q1454.91 1482.32 1457.2 1480.58 Q1459.52 1478.84 1459.52 1475.53 Q1459.52 1472.48 1457.36 1470.77 Q1455.23 1469.03 1451.41 1469.03 L1447.39 1469.03 L1447.39 1465.19 L1451.6 1465.19 Q1455.05 1465.19 1456.88 1463.82 Q1458.71 1462.43 1458.71 1459.84 Q1458.71 1457.18 1456.81 1455.77 Q1454.93 1454.33 1451.41 1454.33 Q1449.49 1454.33 1447.29 1454.75 Q1445.09 1455.16 1442.46 1456.04 L1442.46 1451.88 Q1445.12 1451.14 1447.43 1450.77 Q1449.77 1450.39 1451.83 1450.39 Q1457.15 1450.39 1460.26 1452.83 Q1463.36 1455.23 1463.36 1459.35 Q1463.36 1462.22 1461.71 1464.21 Q1460.07 1466.18 1457.04 1466.95 Z" fill="#000000" fill-rule="nonzero" fill-opacity="1" /><path clip-path="url(#clip340)" d="M1483.03 1454.1 Q1479.42 1454.1 1477.59 1457.66 Q1475.79 1461.2 1475.79 1468.33 Q1475.79 1475.44 1477.59 1479.01 Q1479.42 1482.55 1483.03 1482.55 Q1486.67 1482.55 1488.47 1479.01 Q1490.3 1475.44 1490.3 1468.33 Q1490.3 1461.2 1488.47 1457.66 Q1486.67 1454.1 1483.03 1454.1 M1483.03 1450.39 Q1488.84 1450.39 1491.9 1455 Q1494.98 1459.58 1494.98 1468.33 Q1494.98 1477.06 1491.9 1481.67 Q1488.84 1486.25 1483.03 1486.25 Q1477.22 1486.25 1474.14 1481.67 Q1471.09 1477.06 1471.09 1468.33 Q1471.09 1459.58 1474.14 1455 Q1477.22 1450.39 1483.03 1450.39 Z" fill="#000000" fill-rule="nonzero" fill-opacity="1" /><path clip-path="url(#clip340)" d="M1902.57 1455.09 L1890.76 1473.54 L1902.57 1473.54 L1902.57 1455.09 M1901.34 1451.02 L1907.22 1451.02 L1907.22 1473.54 L1912.15 1473.54 L1912.15 1477.43 L1907.22 1477.43 L1907.22 1485.58 L1902.57 1485.58 L1902.57 1477.43 L1886.97 1477.43 L1886.97 1472.92 L1901.34 1451.02 Z" fill="#000000" fill-rule="nonzero" fill-opacity="1" /><path clip-path="url(#clip340)" d="M1929.88 1454.1 Q1926.27 1454.1 1924.44 1457.66 Q1922.64 1461.2 1922.64 1468.33 Q1922.64 1475.44 1924.44 1479.01 Q1926.27 1482.55 1929.88 1482.55 Q1933.52 1482.55 1935.32 1479.01 Q1937.15 1475.44 1937.15 1468.33 Q1937.15 1461.2 1935.32 1457.66 Q1933.52 1454.1 1929.88 1454.1 M1929.88 1450.39 Q1935.69 1450.39 1938.75 1455 Q1941.83 1459.58 1941.83 1468.33 Q1941.83 1477.06 1938.75 1481.67 Q1935.69 1486.25 1929.88 1486.25 Q1924.07 1486.25 1920.99 1481.67 Q1917.94 1477.06 1917.94 1468.33 Q1917.94 1459.58 1920.99 1455 Q1924.07 1450.39 1929.88 1450.39 Z" fill="#000000" fill-rule="nonzero" fill-opacity="1" /><path clip-path="url(#clip340)" d="M1245.79 1522.27 L1245.79 1532.4 L1257.85 1532.4 L1257.85 1536.95 L1245.79 1536.95 L1245.79 1556.3 Q1245.79 1560.66 1246.96 1561.9 Q1248.17 1563.14 1251.83 1563.14 L1257.85 1563.14 L1257.85 1568.04 L1251.83 1568.04 Q1245.05 1568.04 1242.48 1565.53 Q1239.9 1562.98 1239.9 1556.3 L1239.9 1536.95 L1235.6 1536.95 L1235.6 1532.4 L1239.9 1532.4 L1239.9 1522.27 L1245.79 1522.27 Z" fill="#000000" fill-rule="nonzero" fill-opacity="1" /><polyline clip-path="url(#clip340)" style="stroke:#000000; stroke-linecap:round; stroke-linejoin:round; stroke-width:4; stroke-opacity:1; fill:none" points="140.696,1423.18 140.696,47.2441 "/>
<polyline clip-path="url(#clip340)" style="stroke:#000000; stroke-linecap:round; stroke-linejoin:round; stroke-width:4; stroke-opacity:1; fill:none" points="140.696,1389.52 159.593,1389.52 "/>
<polyline clip-path="url(#clip340)" style="stroke:#000000; stroke-linecap:round; stroke-linejoin:round; stroke-width:4; stroke-opacity:1; fill:none" points="140.696,965.17 159.593,965.17 "/>
<polyline clip-path="url(#clip340)" style="stroke:#000000; stroke-linecap:round; stroke-linejoin:round; stroke-width:4; stroke-opacity:1; fill:none" points="140.696,540.822 159.593,540.822 "/>
<polyline clip-path="url(#clip340)" style="stroke:#000000; stroke-linecap:round; stroke-linejoin:round; stroke-width:4; stroke-opacity:1; fill:none" points="140.696,116.475 159.593,116.475 "/>
<path clip-path="url(#clip340)" d="M92.7512 1375.32 Q89.1401 1375.32 87.3114 1378.88 Q85.5058 1382.42 85.5058 1389.55 Q85.5058 1396.66 87.3114 1400.22 Q89.1401 1403.77 92.7512 1403.77 Q96.3854 1403.77 98.1909 1400.22 Q100.02 1396.66 100.02 1389.55 Q100.02 1382.42 98.1909 1378.88 Q96.3854 1375.32 92.7512 1375.32 M92.7512 1371.61 Q98.5613 1371.61 101.617 1376.22 Q104.696 1380.8 104.696 1389.55 Q104.696 1398.28 101.617 1402.89 Q98.5613 1407.47 92.7512 1407.47 Q86.941 1407.47 83.8623 1402.89 Q80.8068 1398.28 80.8068 1389.55 Q80.8068 1380.8 83.8623 1376.22 Q86.941 1371.61 92.7512 1371.61 Z" fill="#000000" fill-rule="nonzero" fill-opacity="1" /><path clip-path="url(#clip340)" d="M53.3995 978.515 L61.0384 978.515 L61.0384 952.15 L52.7282 953.816 L52.7282 949.557 L60.9921 947.89 L65.668 947.89 L65.668 978.515 L73.3068 978.515 L73.3068 982.45 L53.3995 982.45 L53.3995 978.515 Z" fill="#000000" fill-rule="nonzero" fill-opacity="1" /><path clip-path="url(#clip340)" d="M92.7512 950.969 Q89.1401 950.969 87.3114 954.534 Q85.5058 958.076 85.5058 965.205 Q85.5058 972.312 87.3114 975.876 Q89.1401 979.418 92.7512 979.418 Q96.3854 979.418 98.1909 975.876 Q100.02 972.312 100.02 965.205 Q100.02 958.076 98.1909 954.534 Q96.3854 950.969 92.7512 950.969 M92.7512 947.265 Q98.5613 947.265 101.617 951.872 Q104.696 956.455 104.696 965.205 Q104.696 973.932 101.617 978.538 Q98.5613 983.122 92.7512 983.122 Q86.941 983.122 83.8623 978.538 Q80.8068 973.932 80.8068 965.205 Q80.8068 956.455 83.8623 951.872 Q86.941 947.265 92.7512 947.265 Z" fill="#000000" fill-rule="nonzero" fill-opacity="1" /><path clip-path="url(#clip340)" d="M56.6171 554.167 L72.9365 554.167 L72.9365 558.102 L50.9921 558.102 L50.9921 554.167 Q53.6541 551.413 58.2375 546.783 Q62.8439 542.13 64.0245 540.788 Q66.2698 538.265 67.1494 536.529 Q68.0522 534.769 68.0522 533.079 Q68.0522 530.325 66.1078 528.589 Q64.1865 526.853 61.0847 526.853 Q58.8856 526.853 56.4319 527.617 Q54.0014 528.38 51.2236 529.931 L51.2236 525.209 Q54.0477 524.075 56.5014 523.496 Q58.955 522.917 60.9921 522.917 Q66.3624 522.917 69.5568 525.603 Q72.7513 528.288 72.7513 532.779 Q72.7513 534.908 71.9411 536.829 Q71.1541 538.728 69.0476 541.32 Q68.4689 541.991 65.367 545.209 Q62.2652 548.403 56.6171 554.167 Z" fill="#000000" fill-rule="nonzero" fill-opacity="1" /><path clip-path="url(#clip340)" d="M92.7512 526.621 Q89.1401 526.621 87.3114 530.186 Q85.5058 533.728 85.5058 540.857 Q85.5058 547.964 87.3114 551.528 Q89.1401 555.07 92.7512 555.07 Q96.3854 555.07 98.1909 551.528 Q100.02 547.964 100.02 540.857 Q100.02 533.728 98.1909 530.186 Q96.3854 526.621 92.7512 526.621 M92.7512 522.917 Q98.5613 522.917 101.617 527.524 Q104.696 532.107 104.696 540.857 Q104.696 549.584 101.617 554.19 Q98.5613 558.774 92.7512 558.774 Q86.941 558.774 83.8623 554.19 Q80.8068 549.584 80.8068 540.857 Q80.8068 532.107 83.8623 527.524 Q86.941 522.917 92.7512 522.917 Z" fill="#000000" fill-rule="nonzero" fill-opacity="1" /><path clip-path="url(#clip340)" d="M66.7559 115.12 Q70.1124 115.838 71.9874 118.106 Q73.8855 120.375 73.8855 123.708 Q73.8855 128.824 70.367 131.625 Q66.8485 134.426 60.3671 134.426 Q58.1912 134.426 55.8764 133.986 Q53.5847 133.569 51.131 132.713 L51.131 128.199 Q53.0754 129.333 55.3903 129.912 Q57.7051 130.491 60.2282 130.491 Q64.6263 130.491 66.918 128.755 Q69.2328 127.018 69.2328 123.708 Q69.2328 120.653 67.08 118.94 Q64.9504 117.204 61.131 117.204 L57.1032 117.204 L57.1032 113.361 L61.3161 113.361 Q64.7652 113.361 66.5939 111.995 Q68.4226 110.606 68.4226 108.014 Q68.4226 105.352 66.5245 103.94 Q64.6495 102.505 61.131 102.505 Q59.2097 102.505 57.0106 102.921 Q54.8115 103.338 52.1727 104.218 L52.1727 100.051 Q54.8347 99.3102 57.1495 98.9399 Q59.4875 98.5695 61.5476 98.5695 Q66.8717 98.5695 69.9735 101 Q73.0753 103.407 73.0753 107.528 Q73.0753 110.398 71.4318 112.389 Q69.7883 114.356 66.7559 115.12 Z" fill="#000000" fill-rule="nonzero" fill-opacity="1" /><path clip-path="url(#clip340)" d="M92.7512 102.273 Q89.1401 102.273 87.3114 105.838 Q85.5058 109.38 85.5058 116.509 Q85.5058 123.616 87.3114 127.18 Q89.1401 130.722 92.7512 130.722 Q96.3854 130.722 98.1909 127.18 Q100.02 123.616 100.02 116.509 Q100.02 109.38 98.1909 105.838 Q96.3854 102.273 92.7512 102.273 M92.7512 98.5695 Q98.5613 98.5695 101.617 103.176 Q104.696 107.759 104.696 116.509 Q104.696 125.236 101.617 129.842 Q98.5613 134.426 92.7512 134.426 Q86.941 134.426 83.8623 129.842 Q80.8068 125.236 80.8068 116.509 Q80.8068 107.759 83.8623 103.176 Q86.941 98.5695 92.7512 98.5695 Z" fill="#000000" fill-rule="nonzero" fill-opacity="1" /><polyline clip-path="url(#clip341)" style="stroke:#009af9; stroke-linecap:round; stroke-linejoin:round; stroke-width:4; stroke-opacity:1; fill:none" points="140.696,1384.24 140.696,1384.24 171.738,1369.48 176.309,1367.3 204.173,1354.05 218.695,1347.15 234.502,1339.63 252.923,1329.68 254.157,1329.04 260.282,1325.41 267.841,1320.55 284.478,1309.88 288.435,1307.59 296.215,1303.27 297.37,1302.65 306.919,1297.62 313.541,1294.24 315.317,1293.18 315.499,1293.07 319.485,1290.41 322.046,1288.77 325.459,1286.65 331.647,1282.98 337.54,1279.65 339.302,1278.52 352.182,1270.83 360.524,1266.24 364.429,1264.16 376.23,1258.07 381.937,1255.2 383.413,1254.47 388.536,1251.93 390.618,1250.71 398.102,1246.5 398.97,1246.03 405.455,1242.55 437.188,1224.95 437.818,1224.63 441.067,1222.98 447.362,1219.82 457.446,1214.07 462.266,1211.46 465.107,1209.94 466.995,1208.95 468.493,1208.17 471.397,1206.4 476.547,1202.95 486.536,1196.8 497.519,1190.62 502.251,1188.08 503.701,1187.31 510.398,1183.83 517.2,1180.37 521.412,1178.26 532.852,1172.61 534.147,1171.98 534.438,1171.84 537.46,1170.36 538.342,1169.93 546.16,1166.15 547.743,1165.38 549.443,1164.56 551.117,1163.75 561.172,1158.15 564.593,1156.32 569.892,1153.54 575.954,1149.92 584.667,1145.02 601.934,1135.95 608.842,1132.46 622.532,1125.71 629.246,1122.44 634.536,1119.43 638.045,1117.49 643.307,1114.66 652.059,1110.09 654.238,1108.98 662.97,1103.89 669.012,1100.56 676.907,1096.36 685.393,1091.99 689.745,1089.8 691.766,1088.79 703.478,1083 705.426,1082.05 717.856,1076.01 733.215,1068.62 736.356,1067.12 749.968,1060.61 750.309,1060.45 763.821,1054.01 775.167,1048.6 781.383,1045.13 781.74,1044.93 788.414,1041.35 790.943,1040.02 792.558,1039.18 800.628,1035.04 803.636,1033.53 803.968,1033.33 809.267,1030.24 842.437,1012.84 851.938,1008.15 852.171,1008.04 853.448,1007.42 869.972,999.406 870.485,999.159 878.268,995.419 905.272,982.51 909.581,980.456 913.778,978.457 919.262,975.845 922.836,974.143 942.609,964.733 963.739,954.682 969.761,951.818 1030.63,922.874 1038.57,919.099 1039.61,918.604 1042.66,917.155 1046.92,915.124 1081.29,898.782 1085.3,896.878 1092.47,893.466 1093.36,893.042 1096.44,891.577 1099.12,890.305 1102,888.677 1123.28,876.108 1130.14,872.438 1133.36,870.759 1136.47,868.878 1146.64,863.05 1150.39,861.005 1163.88,853.934 1166.28,852.712 1179.38,846.167 1183.85,843.969 1184.57,843.554 1189.22,840.497 1190.99,839.217 1202.35,831.689 1229.02,816.776 1230.07,816.231 1235.28,813.559 1245.19,808.584 1256.9,802.825 1265.39,798.029 1274.54,792.415 1276.62,791.204 1287.48,785.163 1300.11,778.551 1325.13,766.121 1341.18,758.353 1349.81,754.211 1350.28,753.983 1354.45,751.99 1355.98,751.114 1356.8,750.65 1359.34,749.229 1365.15,746.067 1367.01,745.069 1370.41,743.276 1372.17,742.361 1380.93,737.873 1400.61,726.878 1418.1,717.935 1423.94,715.036 1424.02,714.999 1426.16,713.945 1428.98,712.56 1430.15,711.987 1432.07,710.872 1434.24,709.633 1437.54,707.785 1451.55,700.313 1454.14,698.744 1457.34,696.575 1458.23,695.992 1459.05,695.455 1459.16,695.383 1466.7,690.688 1493.06,676.246 1494.86,675.323 1505.4,670.017 1508.56,668.451 1509.12,668.176 1514.18,665.685 1537.52,654.373 1543.81,651.353 1551.52,647.04 1554.7,645.323 1555.17,645.068 1569.79,637.481 1572.79,635.968 1573.26,635.73 1589.43,627.736 1590.49,627.219 1596.16,623.988 1604.33,619.535 1610.44,615.81 1616.65,612.227 1617.42,611.725 1623.31,608.008 1627.02,605.779 1647.8,594.341 1655.5,590.388 1666.13,585.058 1677,579.721 1679.27,578.612 1684.01,575.909 1691.07,572.028 1709.58,562.44 1768.64,533.791 1793,522.18 1803.86,517.009 1820.08,509.291 1823.42,507.409 1836.77,500.237 1842.75,496.657 1848.2,493.549 1862.5,485.863 1864.59,484.78 1885.45,473.023 1914.51,456.797 1947.59,440.371 1954.94,436.822 1957.02,435.819 1960.95,433.929 1963.16,432.869 1970.45,429.37 1973.53,427.624 1974.32,427.18 1976.17,426.156 1989.13,418.31 1997.5,413.662 2009.27,407.46 2011.24,406.273 2034.24,393.576 2035.09,393.137 2036.05,392.642 2036.77,392.267 2038.41,391.426 2041.39,389.907 2046.7,387.233 2051.2,384.99 2051.55,384.816 2069.82,374.693 2079.25,369.82 2079.48,369.703 2084.42,367.207 2087.31,365.758 2096.71,360.383 2097.91,359.609 2099.61,358.538 2101.56,357.323 2103.94,355.665 2112.8,349.912 2114.5,348.714 2115.36,348.126 2118.54,345.984 2124.69,341.57 2134.65,334.373 2149.15,325.391 2151.36,324.121 2158.23,320.309 2158.63,320.09 2165.9,316.219 2169.83,314.177 2176.67,310.127 2193.43,300.979 2198.78,298.21 2200.7,297.231 2224.96,283.787 2232.02,280.165 2232.48,279.93 2238.19,277.06 2255.31,268.63 2284.97,254.343 2288.29,252.755 2288.41,252.699 2322.1,236.635 2339.03,228.578 2339.21,228.495 2343.08,226.316 2352.76,221.084 "/>
<polyline clip-path="url(#clip341)" style="stroke:#e26f46; stroke-linecap:round; stroke-linejoin:round; stroke-width:4; stroke-opacity:1; fill:none" points="140.696,1384.24 140.696,1384.24 171.738,1369.48 176.309,1367.3 204.173,1352.54 218.695,1345.34 234.502,1337.67 252.923,1328.82 254.157,1328.23 260.282,1325.3 267.841,1321.69 284.478,1313.76 288.435,1311.53 296.215,1306.68 297.37,1305.89 306.919,1298.99 313.541,1294.71 315.317,1293.62 315.499,1293.51 319.485,1291.12 322.046,1289.4 325.459,1287.19 331.647,1282.88 337.54,1279.08 339.302,1277.99 352.182,1270.53 360.524,1265.37 364.429,1263.09 376.23,1256.57 381.937,1253.08 383.413,1252.21 388.536,1249.26 390.618,1248.1 398.102,1244.03 398.97,1243.49 405.455,1239.58 437.188,1222.63 437.818,1222.25 441.067,1220.35 447.362,1216.79 457.446,1211.37 462.266,1208.87 465.107,1207.41 466.995,1206.28 468.493,1205.4 471.397,1203.71 476.547,1200.81 486.536,1195.44 497.519,1189.78 502.251,1187 503.701,1186.16 510.398,1182.43 517.2,1178.78 521.412,1176.21 532.852,1169.69 534.147,1168.98 534.438,1168.79 537.46,1166.9 538.342,1166.36 546.16,1161.74 547.743,1160.84 549.443,1159.73 551.117,1158.51 561.172,1151.73 564.593,1149.31 569.892,1145.77 575.954,1141.98 584.667,1136.21 601.934,1126.17 608.842,1122.47 622.532,1115.43 629.246,1112.07 634.536,1109.46 638.045,1107.74 643.307,1105.17 652.059,1100.93 654.238,1099.88 662.97,1095.68 669.012,1092.28 676.907,1088.02 685.393,1083.61 689.745,1081.02 691.766,1079.85 703.478,1073.38 705.426,1072.16 717.856,1064.91 733.215,1055.66 736.356,1053.91 749.968,1046.65 750.309,1046.48 763.821,1038.67 775.167,1032.61 781.383,1029.42 781.74,1029.23 788.414,1025.87 790.943,1024.61 792.558,1023.81 800.628,1019.83 803.636,1018.36 803.968,1018.2 809.267,1015.62 842.437,999.679 851.938,995.144 852.171,995.033 853.448,994.424 869.972,986.551 870.485,986.259 878.268,981.943 905.272,968.069 909.581,965.942 913.778,963.885 919.262,961.211 922.836,959.478 942.609,948.711 963.739,938.077 969.761,935.126 1030.63,905.918 1038.57,902.138 1039.61,901.642 1042.66,900.191 1046.92,898.159 1081.29,881.81 1085.3,879.906 1092.47,876.493 1093.36,876.069 1096.44,874.604 1099.12,873.332 1102,871.961 1123.28,861.842 1130.14,858.578 1133.36,857.051 1136.47,855.573 1146.64,850.732 1150.39,848.952 1163.88,842.536 1166.28,841.395 1179.38,835.165 1183.85,833.038 1184.57,832.7 1189.22,830.487 1190.99,829.647 1202.35,824.244 1229.02,810.084 1230.07,809.554 1235.28,806.505 1245.19,801.016 1256.9,794.881 1265.39,790.585 1274.54,786.048 1276.62,785.025 1287.48,779.731 1300.11,772.715 1325.13,759.928 1341.18,752.072 1349.81,747.902 1350.28,747.674 1354.45,745.671 1355.98,744.933 1356.8,744.539 1359.34,743.319 1365.15,740.539 1367.01,739.644 1370.41,737.718 1372.17,736.741 1380.93,732.012 1400.61,721.965 1418.1,713.385 1423.94,710.068 1424.02,710.027 1426.16,708.846 1428.98,707.311 1430.15,706.68 1432.07,705.653 1434.24,704.504 1437.54,702.778 1451.55,695.662 1454.14,694.371 1457.34,692.786 1458.23,692.351 1459.05,691.868 1459.16,691.803 1466.7,686.918 1493.06,672.148 1494.86,671.213 1505.4,665.857 1508.56,664 1509.12,663.625 1514.18,660.335 1537.52,645.612 1543.81,642.138 1551.52,638.038 1554.7,636.389 1555.17,636.144 1569.79,627.747 1572.79,626.123 1573.26,625.87 1589.43,617.49 1590.49,616.956 1596.16,614.123 1604.33,610.092 1610.44,607.105 1616.65,603.575 1617.42,603.151 1623.31,599.454 1627.02,597.235 1647.8,585.831 1655.5,581.885 1666.13,575.757 1677,569.915 1679.27,568.523 1684.01,565.72 1691.07,561.725 1709.58,551.965 1768.64,523.191 1793,511.574 1803.86,506.402 1820.08,498.683 1823.42,497.095 1836.77,490.746 1842.75,487.901 1848.2,485.311 1862.5,477.507 1864.59,476.412 1885.45,465.872 1914.51,451.763 1947.59,435.948 1954.94,431.855 1957.02,430.537 1960.95,427.788 1963.16,426.107 1970.45,420.943 1973.53,418.916 1974.32,418.405 1976.17,417.236 1989.13,409.581 1997.5,404.345 2009.27,397.614 2011.24,396.541 2034.24,383.28 2035.09,382.829 2036.05,382.321 2036.77,381.938 2038.41,380.927 2041.39,379.129 2046.7,376.041 2051.2,373.517 2051.55,373.323 2069.82,363.695 2079.25,358.956 2079.48,358.842 2084.42,356.395 2087.31,354.714 2096.71,349.489 2097.91,348.84 2099.61,347.936 2101.56,346.72 2103.94,345.277 2112.8,340.147 2114.5,339.199 2115.36,338.728 2118.54,336.708 2124.69,332.995 2134.65,327.358 2149.15,319.7 2151.36,318.567 2158.23,315.103 2158.63,314.862 2165.9,310.086 2169.83,307.664 2176.67,303.653 2193.43,294.563 2198.78,291.804 2200.7,290.829 2224.96,278.816 2232.02,275.391 2232.48,275.167 2238.19,271.936 2255.31,262.841 2284.97,248.13 2288.29,246.522 2288.41,246.465 2322.1,230.298 2339.03,222.226 2339.21,222.144 2343.08,220.3 2352.76,215.692 "/>
<polyline clip-path="url(#clip341)" style="stroke:#3da44d; stroke-linecap:round; stroke-linejoin:round; stroke-width:4; stroke-opacity:1; fill:none" points="140.696,1384.24 140.696,1384.24 171.738,1367.88 176.309,1365.61 204.173,1352.05 218.695,1345.09 234.502,1336.46 252.923,1327.1 254.157,1326.37 260.282,1322.87 267.841,1318.74 284.478,1310.13 288.435,1308.15 296.215,1304.29 297.37,1303.72 306.919,1299.06 313.541,1295.31 315.317,1294.33 315.499,1294.21 319.485,1291.71 322.046,1290.16 325.459,1288.14 331.647,1284.63 337.54,1280.91 339.302,1279.85 352.182,1272.5 360.524,1268.05 364.429,1265.68 376.23,1258.09 381.937,1254.74 383.413,1253.9 388.536,1251.04 390.618,1249.91 398.102,1245.93 398.97,1245.47 405.455,1241.6 437.188,1224.72 437.818,1224.41 441.067,1222.79 447.362,1219.68 457.446,1214.75 462.266,1212.41 465.107,1211.04 466.995,1210.13 468.493,1209.41 471.397,1208.01 476.547,1205.54 486.536,1200.75 497.519,1194.68 502.251,1192.18 503.701,1191.42 510.398,1187.42 517.2,1183.58 521.412,1181.28 532.852,1175.27 534.147,1174.49 534.438,1174.31 537.46,1172.26 538.342,1171.67 546.16,1166.11 547.743,1164.92 549.443,1163.66 551.117,1162.46 561.172,1155.79 564.593,1153.69 569.892,1150.12 575.954,1146.3 584.667,1141.2 601.934,1130.75 608.842,1126.39 622.532,1117.56 629.246,1113.65 634.536,1110.7 638.045,1108.8 643.307,1106.01 652.059,1101.5 654.238,1100.39 662.97,1096.03 669.012,1093.05 676.907,1089.19 685.393,1085.08 689.745,1082.98 691.766,1081.82 703.478,1074.55 705.426,1073.41 717.856,1066.53 733.215,1058.58 736.356,1057 749.968,1050.27 750.309,1050.07 763.821,1042.56 775.167,1036.65 781.383,1033.5 781.74,1033.29 788.414,1028.87 790.943,1027.06 792.558,1025.94 800.628,1020.03 803.636,1017.73 803.968,1017.48 809.267,1013.26 842.437,990.935 851.938,985.753 852.171,985.629 853.448,984.953 869.972,976.484 870.485,976.228 878.268,972.366 905.272,959.256 909.581,957.187 913.778,955.175 919.262,952.087 922.836,950.134 942.609,939.87 963.739,928.153 969.761,925.039 1030.63,893.359 1038.57,888.892 1039.61,888.226 1042.66,886.05 1046.92,883.154 1081.29,863.589 1085.3,861.193 1092.47,856.507 1093.36,855.951 1096.44,854.071 1099.12,852.242 1102,850.341 1123.28,837.859 1130.14,833.642 1133.36,831.476 1136.47,829.46 1146.64,822.526 1150.39,819.858 1163.88,810.276 1166.28,808.53 1179.38,798.991 1183.85,796.112 1184.57,795.667 1189.22,792.837 1190.99,791.793 1202.35,784.562 1229.02,769.961 1230.07,769.325 1235.28,766.257 1245.19,760.744 1256.9,754.592 1265.39,750.288 1274.54,745.744 1276.62,744.532 1287.48,738.489 1300.11,731.874 1325.13,719.442 1341.18,710.584 1349.81,706.111 1350.28,705.824 1354.45,703.361 1355.98,702.473 1356.8,702.003 1359.34,700.565 1365.15,696.886 1367.01,695.748 1370.41,693.729 1372.17,692.709 1380.93,687.12 1400.61,676.025 1418.1,665.89 1423.94,662.76 1424.02,662.714 1426.16,661.203 1428.98,659.278 1430.15,658.392 1432.07,656.971 1434.24,655.222 1437.54,652.686 1451.55,643.204 1454.14,641.615 1457.34,639.708 1458.23,639.192 1459.05,638.713 1459.16,638.649 1466.7,634.403 1493.06,620.736 1494.86,619.84 1505.4,614.653 1508.56,613.113 1509.12,612.842 1514.18,610.385 1537.52,599.159 1543.81,596.151 1551.52,592.468 1554.7,590.672 1555.17,590.362 1569.79,581.534 1572.79,579.584 1573.26,579.239 1589.43,568.646 1590.49,568.016 1596.16,564.738 1604.33,560.235 1610.44,556.992 1616.65,553.781 1617.42,553.39 1623.31,550.408 1627.02,548.226 1647.8,535.662 1655.5,530.878 1666.13,524.781 1677,518.141 1679.27,516.832 1684.01,514.176 1691.07,509.773 1709.58,498.201 1768.64,466.152 1793,452.959 1803.86,447.481 1820.08,438.412 1823.42,436.649 1836.77,428.856 1842.75,425.595 1848.2,422.253 1862.5,414.167 1864.59,412.854 1885.45,400.966 1914.51,386.223 1947.59,370.225 1954.94,366.712 1957.02,365.716 1960.95,363.84 1963.16,362.786 1970.45,359.306 1973.53,357.839 1974.32,357.46 1976.17,356.581 1989.13,350.409 1997.5,346.426 2009.27,339.952 2011.24,338.911 2034.24,327.235 2035.09,326.816 2036.05,326.255 2036.77,325.763 2038.41,324.674 2041.39,322.481 2046.7,318.359 2051.2,314.742 2051.55,314.473 2069.82,302.159 2079.25,296.689 2079.48,296.54 2084.42,292.981 2087.31,291.012 2096.71,285.074 2097.91,284.354 2099.61,283.201 2101.56,281.898 2103.94,280.357 2112.8,274.251 2114.5,273.156 2115.36,272.536 2118.54,270.289 2124.69,266.22 2134.65,260.178 2149.15,252.177 2151.36,250.808 2158.23,246.183 2158.63,245.923 2165.9,241.435 2169.83,238.793 2176.67,234.478 2193.43,224.942 2198.78,222.098 2200.7,220.922 2224.96,207.428 2232.02,203.799 2232.48,203.52 2238.19,200.177 2255.31,189.74 2284.97,174.174 2288.29,172.523 2288.41,172.454 2322.1,154.438 2339.03,144.958 2339.21,144.866 2343.08,142.827 2352.76,137.108 "/>
<polyline clip-path="url(#clip341)" style="stroke:#c271d2; stroke-linecap:round; stroke-linejoin:round; stroke-width:4; stroke-opacity:1; fill:none" points="140.696,1384.24 140.696,1384.24 171.738,1367.88 176.309,1365.22 204.173,1350.43 218.695,1342.21 234.502,1332.89 252.923,1323.15 254.157,1322.41 260.282,1318.84 267.841,1314.65 284.478,1305.96 288.435,1303.96 296.215,1300.09 297.37,1299.52 306.919,1294.84 313.541,1291.08 315.317,1290.1 315.499,1289.99 319.485,1287.48 322.046,1285.93 325.459,1283.91 331.647,1280.39 337.54,1276.68 339.302,1275.61 352.182,1268.26 360.524,1263.81 364.429,1261.44 376.23,1253.85 381.937,1250.5 383.413,1249.66 388.536,1246.8 390.618,1245.66 398.102,1241.68 398.97,1241.23 405.455,1237.35 437.188,1220.48 437.818,1220.16 441.067,1218.26 447.362,1214.17 457.446,1208.16 462.266,1205.46 465.107,1203.9 466.995,1202.88 468.493,1202.08 471.397,1200.54 476.547,1197.86 486.536,1192.01 497.519,1185.22 502.251,1182.49 503.701,1181.54 510.398,1176.81 517.2,1172.41 521.412,1169.84 532.852,1162.46 534.147,1161.56 534.438,1161.36 537.46,1159.07 538.342,1158.42 546.16,1152.39 547.743,1151.11 549.443,1149.78 551.117,1148.51 561.172,1141.51 564.593,1139.33 569.892,1135.66 575.954,1131.75 584.667,1126.54 601.934,1115.99 608.842,1111.61 622.532,1102.74 629.246,1098.82 634.536,1095.87 638.045,1093.97 643.307,1091.17 652.059,1086.65 654.238,1085.55 662.97,1081.18 669.012,1078.2 676.907,1073.71 685.393,1069.12 689.745,1066.84 691.766,1065.62 703.478,1058.02 705.426,1056.85 717.856,1049.8 733.215,1041.73 736.356,1040.13 749.968,1033.35 750.309,1033.15 763.821,1025.62 775.167,1018.84 781.383,1015.38 781.74,1015.15 788.414,1010.49 790.943,1008.6 792.558,1007.44 800.628,1001.34 803.636,998.994 803.968,998.742 809.267,994.446 842.437,971.902 851.938,966.698 852.171,966.552 853.448,965.757 869.972,956.231 870.485,955.952 878.268,951.813 905.272,936.747 909.581,934.159 913.778,931.73 919.262,928.203 922.836,926.016 942.609,914.962 963.739,902.907 969.761,899.742 1030.63,867.909 1038.57,863.438 1039.61,862.772 1042.66,860.595 1046.92,857.329 1081.29,836.383 1085.3,833.925 1092.47,829.152 1093.36,828.588 1096.44,826.679 1099.12,824.829 1102,822.907 1123.28,810.334 1130.14,806.102 1133.36,803.929 1136.47,801.909 1146.64,794.963 1150.39,792.293 1163.88,782.703 1166.28,780.955 1179.38,771.413 1183.85,768.533 1184.57,768.088 1189.22,765.257 1190.99,764.213 1202.35,756.981 1229.02,742.378 1230.07,741.742 1235.28,738.675 1245.19,733.161 1256.9,727.009 1265.39,722.705 1274.54,718.162 1276.62,716.95 1287.48,710.906 1300.11,704.291 1325.13,691.859 1341.18,683.002 1349.81,678.528 1350.28,678.241 1354.45,675.778 1355.98,674.89 1356.8,674.42 1359.34,672.983 1365.15,669.303 1367.01,668.165 1370.41,666.146 1372.17,665.126 1380.93,659.537 1400.61,648.442 1418.1,638.307 1423.94,635.178 1424.02,635.132 1426.16,633.62 1428.98,631.696 1430.15,630.809 1432.07,629.388 1434.24,627.639 1437.54,625.103 1451.55,615.622 1454.14,614.032 1457.34,612.126 1458.23,611.527 1459.05,610.974 1459.16,610.9 1466.7,606.093 1493.06,591.459 1494.86,590.53 1505.4,584.396 1508.56,582.648 1509.12,582.344 1514.18,579.617 1537.52,567.705 1543.81,564.605 1551.52,560.841 1554.7,559.018 1555.17,558.704 1569.79,549.795 1572.79,547.834 1573.26,547.488 1589.43,535.762 1590.49,535.082 1596.16,531.577 1604.33,526.833 1610.44,523.459 1616.65,520.147 1617.42,519.745 1623.31,516.693 1627.02,514.475 1647.8,501.791 1655.5,496.985 1666.13,490.867 1677,484.214 1679.27,482.902 1684.01,480.243 1691.07,475.836 1709.58,464.257 1768.64,432.204 1793,419.011 1803.86,413.533 1820.08,404.464 1823.42,402.701 1836.77,394.907 1842.75,391.647 1848.2,388.305 1862.5,380.218 1864.59,378.906 1885.45,367.018 1914.51,352.275 1947.59,336.277 1954.94,332.764 1957.02,331.768 1960.95,329.892 1963.16,328.838 1970.45,325.357 1973.53,323.891 1974.32,323.438 1976.17,322.397 1989.13,315.393 1997.5,311.08 2009.27,304.31 2011.24,303.233 2034.24,291.304 2035.09,290.881 2036.05,290.313 2036.77,289.818 2038.41,288.72 2041.39,286.512 2046.7,282.369 2051.2,278.738 2051.55,278.468 2069.82,266.117 2079.25,260.638 2079.48,260.488 2084.42,256.926 2087.31,254.955 2096.71,249.013 2097.91,248.292 2099.61,247.138 2101.56,245.835 2103.94,244.294 2112.8,238.185 2114.5,237.09 2115.36,236.47 2118.54,234.222 2124.69,230.153 2134.65,224.11 2149.15,216.108 2151.36,214.739 2158.23,210.114 2158.63,209.853 2165.9,205.366 2169.83,202.723 2176.67,198.409 2193.43,188.872 2198.78,185.576 2200.7,184.263 2224.96,169.753 2232.02,165.407 2232.48,165.089 2238.19,161.321 2255.31,150.103 2284.97,134.04 2288.29,132.364 2288.41,132.294 2322.1,112.505 2339.03,102.758 2339.21,102.664 2343.08,100.588 2352.76,94.7996 "/>
<polyline clip-path="url(#clip341)" style="stroke:#ac8d18; stroke-linecap:round; stroke-linejoin:round; stroke-width:4; stroke-opacity:1; fill:none" points="140.696,1384.24 140.696,1384.24 171.738,1367.88 176.309,1365.61 204.173,1352.05 218.695,1345.09 234.502,1337.54 252.923,1327.57 254.157,1326.93 260.282,1323.3 267.841,1318.43 284.478,1307.76 288.435,1305.47 296.215,1301.15 297.37,1300.53 306.919,1295.5 313.541,1291.57 315.317,1290.39 315.499,1290.26 319.485,1287.01 322.046,1285.05 325.459,1282.55 331.647,1278.33 337.54,1274.11 339.302,1272.76 352.182,1263.87 360.524,1258.8 364.429,1256.21 376.23,1249.03 381.937,1245.81 383.413,1244.99 388.536,1242.22 390.618,1240.93 398.102,1236.48 398.97,1235.98 405.455,1231.82 437.188,1212.71 437.818,1212.37 441.067,1210.66 447.362,1207.4 457.446,1201.54 462.266,1198.88 465.107,1197.35 466.995,1196.35 468.493,1195.55 471.397,1193.78 476.547,1190.3 486.536,1184.12 497.519,1177.92 502.251,1175.37 503.701,1174.6 510.398,1171.12 517.2,1167.65 521.412,1165.54 532.852,1159.89 534.147,1159.25 534.438,1159.11 537.46,1157.64 538.342,1157.21 546.16,1153.42 547.743,1152.65 549.443,1151.83 551.117,1151.02 561.172,1145.42 564.593,1143.59 569.892,1140.81 575.954,1137.19 584.667,1132.29 601.934,1122.07 608.842,1117.76 622.532,1109.96 629.246,1106.38 634.536,1103.17 638.045,1101.13 643.307,1098.17 652.059,1093.45 654.238,1092.3 662.97,1087.12 669.012,1083.74 676.907,1079.49 685.393,1075.09 689.745,1072.88 691.766,1071.68 703.478,1065.08 705.426,1064.03 717.856,1057.53 733.215,1049.84 736.356,1048.29 749.968,1041.66 750.309,1041.5 763.821,1034.99 775.167,1029.55 781.383,1026.07 781.74,1025.87 788.414,1022.28 790.943,1020.95 792.558,1020.1 800.628,1015.96 803.636,1014.44 803.968,1014.25 809.267,1011.16 842.437,992.101 851.938,987.25 852.171,987.133 853.448,986.492 869.972,978.328 870.485,978.078 878.268,974.296 905.272,961.32 909.581,959.261 913.778,957.258 919.262,954.641 922.836,952.937 942.609,943.52 963.739,933.466 969.761,930.601 1030.63,901.655 1038.57,897.88 1039.61,897.288 1042.66,895.581 1046.92,893.242 1081.29,875.754 1085.3,873.799 1092.47,869.731 1093.36,869.239 1096.44,867.561 1099.12,865.886 1102,863.874 1123.28,849.595 1130.14,845.641 1133.36,843.573 1136.47,841.363 1146.64,833.955 1150.39,831.489 1163.88,822.406 1166.28,820.937 1179.38,812.484 1183.85,809.853 1184.57,809.376 1189.22,805.962 1190.99,804.565 1202.35,796.471 1229.02,780.963 1230.07,780.309 1235.28,777.163 1245.19,771.543 1256.9,765.314 1265.39,760.303 1274.54,754.532 1276.62,753.293 1287.48,747.144 1300.11,740.457 1325.13,727.96 1341.18,719.087 1349.81,714.608 1350.28,714.321 1354.45,711.856 1355.98,710.827 1356.8,710.285 1359.34,708.641 1365.15,705.056 1367.01,703.944 1370.41,701.965 1372.17,700.964 1380.93,696.139 1400.61,684.733 1418.1,674.478 1423.94,671.325 1424.02,671.279 1426.16,669.955 1428.98,668.25 1430.15,667.556 1432.07,666.255 1434.24,664.628 1437.54,662.258 1451.55,653.26 1454.14,651.498 1457.34,649.121 1458.23,648.486 1459.05,647.902 1459.16,647.823 1466.7,642.772 1493.06,627.716 1494.86,626.772 1505.4,621.372 1508.56,619.785 1509.12,619.506 1514.18,616.989 1537.52,605.608 1543.81,602.58 1551.52,598.258 1554.7,596.539 1555.17,596.283 1569.79,588.688 1572.79,587.173 1573.26,586.892 1589.43,577.823 1590.49,577.259 1596.16,573.812 1604.33,569.129 1610.44,565.28 1616.65,561.602 1617.42,561.09 1623.31,557.306 1627.02,555.043 1647.8,543.491 1655.5,539.517 1666.13,534.167 1677,528.817 1679.27,527.707 1684.01,525 1691.07,521.115 1709.58,511.522 1768.64,480.896 1793,467.775 1803.86,462.311 1820.08,454.35 1823.42,452.436 1836.77,445.177 1842.75,441.572 1848.2,438.446 1862.5,430.729 1864.59,429.643 1885.45,417.868 1914.51,401.633 1947.59,385.204 1954.94,381.656 1957.02,380.652 1960.95,378.762 1963.16,377.702 1970.45,374.203 1973.53,372.458 1974.32,372.013 1976.17,370.989 1989.13,363.143 1997.5,358.495 2009.27,352.293 2011.24,351.106 2034.24,338.409 2035.09,337.969 2036.05,337.474 2036.77,337.032 2038.41,336.046 2041.39,334.288 2046.7,331.26 2051.2,328.388 2051.55,328.171 2069.82,316.502 2079.25,311.208 2079.48,311.084 2084.42,308.43 2087.31,306.904 2096.71,301.338 2097.91,300.544 2099.61,299.448 2101.56,298.206 2103.94,296.519 2112.8,290.679 2114.5,289.468 2115.36,288.794 2118.54,286.359 2124.69,281.487 2134.65,273.768 2149.15,264.342 2151.36,262.826 2158.23,258.39 2158.63,258.139 2165.9,253.795 2169.83,251.212 2176.67,246.419 2193.43,236.179 2198.78,233.202 2200.7,232.16 2224.96,218.249 2232.02,214.562 2232.48,214.323 2238.19,211.415 2255.31,201.778 2284.97,186.722 2288.29,185.096 2288.41,185.028 2322.1,167.134 2339.03,158.801 2339.21,158.717 2343.08,156.499 2352.76,150.449 "/>
<polyline clip-path="url(#clip341)" style="stroke:#00a9ad; stroke-linecap:round; stroke-linejoin:round; stroke-width:4; stroke-opacity:1; fill:none" points="140.696,1384.24 140.696,1384.24 171.738,1367.88 176.309,1365.61 204.173,1352.05 218.695,1345.09 234.502,1336.46 252.923,1325.91 254.157,1325.13 260.282,1321.42 267.841,1316.49 284.478,1306.83 288.435,1304.69 296.215,1300.61 297.37,1300.01 306.919,1295.16 313.541,1291.32 315.317,1290.32 315.499,1290.2 319.485,1287.66 322.046,1286.09 325.459,1284.05 331.647,1280.5 337.54,1276.76 339.302,1275.52 352.182,1267.28 360.524,1262.47 364.429,1259.98 376.23,1252.12 381.937,1248.68 383.413,1247.82 388.536,1244.9 390.618,1243.56 398.102,1238.97 398.97,1238.46 405.455,1234.21 437.188,1216.5 437.818,1216.18 441.067,1214.52 447.362,1211.36 457.446,1206.37 462.266,1204.01 465.107,1202.63 466.995,1201.71 468.493,1200.99 471.397,1199.58 476.547,1196.66 486.536,1191.25 497.519,1184.75 502.251,1182.11 503.701,1181.32 510.398,1177.19 517.2,1173.25 521.412,1170.9 532.852,1164.8 534.147,1164.01 534.438,1163.83 537.46,1161.76 538.342,1161.17 546.16,1155.58 547.743,1154.38 549.443,1153.12 551.117,1151.91 561.172,1144.45 564.593,1142.15 569.892,1138.33 575.954,1133.79 584.667,1127.92 601.934,1116.63 608.842,1112.08 622.532,1102.99 629.246,1099.01 634.536,1096.02 638.045,1094.09 643.307,1091.27 652.059,1086.72 654.238,1085.61 662.97,1081.22 669.012,1078.23 676.907,1074.36 685.393,1070.24 689.745,1068.14 691.766,1066.98 703.478,1059.7 705.426,1058.57 717.856,1051.68 733.215,1043.73 736.356,1042.15 749.968,1035.42 750.309,1035.22 763.821,1027.71 775.167,1021.79 781.383,1018.65 781.74,1018.43 788.414,1014.02 790.943,1012.21 792.558,1011.09 800.628,1005.18 803.636,1002.88 803.968,1002.6 809.267,997.935 842.437,974.333 851.938,969.022 852.171,968.896 853.448,968.207 869.972,959.619 870.485,959.36 878.268,955.467 905.272,942.304 909.581,940.231 913.778,938.216 919.262,935.125 922.836,933.17 942.609,922.9 963.739,911.181 969.761,908.067 1030.63,876.385 1038.57,871.918 1039.61,871.252 1042.66,869.076 1046.92,866.18 1081.29,846.616 1085.3,844.219 1092.47,839.533 1093.36,838.977 1096.44,837.097 1099.12,835.268 1102,833.109 1123.28,819.482 1130.14,815.075 1133.36,812.837 1136.47,810.486 1146.64,802.73 1150.39,799.843 1163.88,789.715 1166.28,787.902 1179.38,778.101 1183.85,775.163 1184.57,774.643 1189.22,771.377 1190.99,770.19 1202.35,762.266 1229.02,746.937 1230.07,746.287 1235.28,743.156 1245.19,737.558 1256.9,731.343 1265.39,727.01 1274.54,722.446 1276.62,721.231 1287.48,715.172 1300.11,708.548 1325.13,696.107 1341.18,687.247 1349.81,682.773 1350.28,682.486 1354.45,680.023 1355.98,678.994 1356.8,678.452 1359.34,676.809 1365.15,672.739 1367.01,671.496 1370.41,669.305 1372.17,668.207 1380.93,662.306 1400.61,650.832 1418.1,640.551 1423.94,637.394 1424.02,637.347 1426.16,635.828 1428.98,633.893 1430.15,633.002 1432.07,631.4 1434.24,629.464 1437.54,626.678 1451.55,616.462 1454.14,614.78 1457.34,612.49 1458.23,611.877 1459.05,611.312 1459.16,611.236 1466.7,606.333 1493.06,591.533 1494.86,590.598 1505.4,585.237 1508.56,583.659 1509.12,583.381 1514.18,580.875 1537.52,569.523 1543.81,566.498 1551.52,562.18 1554.7,560.18 1555.17,559.841 1569.79,550.386 1572.79,548.351 1573.26,547.994 1589.43,537.101 1590.49,536.457 1596.16,532.644 1604.33,527.573 1610.44,524.022 1616.65,520.573 1617.42,520.085 1623.31,516.461 1627.02,513.954 1647.8,500.3 1655.5,495.31 1666.13,489.023 1677,482.263 1679.27,480.935 1684.01,477.84 1691.07,472.934 1709.58,460.599 1768.64,428.002 1793,414.782 1803.86,409.298 1820.08,400.224 1823.42,398.461 1836.77,390.666 1842.75,387.405 1848.2,384.063 1862.5,375.976 1864.59,374.663 1885.45,362.775 1914.51,348.032 1947.59,332.034 1954.94,328.521 1957.02,327.525 1960.95,325.649 1963.16,324.595 1970.45,321.114 1973.53,319.647 1974.32,319.268 1976.17,318.39 1989.13,311.282 1997.5,306.928 2009.27,300.12 2011.24,299.039 2034.24,287.078 2035.09,286.654 2036.05,286.086 2036.77,285.59 2038.41,284.491 2041.39,282.282 2046.7,278.135 2051.2,274.503 2051.55,274.232 2069.82,261.877 2079.25,256.397 2079.48,256.247 2084.42,252.685 2087.31,250.713 2096.71,244.041 2097.91,243.248 2099.61,241.997 2101.56,240.59 2103.94,238.722 2112.8,231.658 2114.5,230.263 2115.36,229.501 2118.54,226.769 2124.69,221.429 2134.65,213.179 2149.15,203.303 2151.36,201.741 2158.23,196.624 2158.63,196.339 2165.9,191.48 2169.83,188.681 2176.67,184.153 2193.43,174.301 2198.78,171.398 2200.7,170.204 2224.96,156.575 2232.02,152.926 2232.48,152.646 2238.19,149.293 2255.31,138.835 2284.97,123.257 2288.29,121.605 2288.41,121.536 2322.1,103.516 2339.03,94.0366 2339.21,93.9442 2343.08,91.9048 2352.76,86.1857 "/>
<polyline clip-path="url(#clip341)" style="stroke:#ed5d92; stroke-linecap:round; stroke-linejoin:round; stroke-width:4; stroke-opacity:1; fill:none" points="140.696,1384.24 140.696,1384.24 171.738,1369.48 176.309,1367.3 204.173,1354.05 218.695,1347.15 234.502,1339.63 252.923,1330.87 254.157,1330.29 260.282,1327.37 267.841,1323.78 284.478,1315.87 288.435,1313.99 296.215,1310.29 297.37,1309.74 306.919,1305.2 313.541,1302.05 315.317,1301.2 315.499,1301.12 319.485,1299.22 322.046,1298 325.459,1296.38 331.647,1293.44 337.54,1290.64 339.302,1289.8 352.182,1283.67 360.524,1279.71 364.429,1277.85 376.23,1272.24 381.937,1269.53 383.413,1268.69 388.536,1265.84 390.618,1264.71 398.102,1260.74 398.97,1260.29 405.455,1256.96 437.188,1241.31 437.818,1241 441.067,1239.44 447.362,1236.41 457.446,1231.57 462.266,1229.26 465.107,1227.91 466.995,1227 468.493,1226.29 471.397,1224.9 476.547,1222.45 486.536,1217.68 497.519,1212.45 502.251,1210.2 503.701,1209.51 510.398,1206.33 517.2,1203.09 521.412,1201.09 532.852,1195.64 534.147,1195.03 534.438,1194.89 537.46,1193.45 538.342,1192.95 546.16,1188.63 547.743,1187.78 549.443,1186.87 551.117,1185.99 561.172,1180.79 564.593,1179.06 569.892,1176.4 575.954,1173.4 584.667,1169.14 601.934,1160.79 608.842,1157.47 622.532,1150.92 629.246,1147.72 634.536,1145.2 638.045,1143.21 643.307,1139.88 652.059,1134.7 654.238,1133.47 662.97,1128.7 669.012,1125.52 676.907,1121.47 685.393,1117.22 689.745,1115.06 691.766,1114.07 703.478,1108.35 705.426,1107.41 717.856,1100.51 733.215,1092.55 736.356,1090.69 749.968,1083.11 750.309,1082.93 763.821,1075.91 775.167,1070.23 781.383,1067.18 781.74,1067 788.414,1063.74 790.943,1062.52 792.558,1061.73 800.628,1057.84 803.636,1056.39 803.968,1056.23 809.267,1053.69 842.437,1037.84 851.938,1032.58 852.171,1032.46 853.448,1031.65 869.972,1022.06 870.485,1021.78 878.268,1017 905.272,1002.35 909.581,1000.16 913.778,998.059 919.262,995.337 922.836,993.577 942.609,983.968 963.739,973.832 969.761,970.955 1030.63,941.972 1038.57,938.197 1039.61,937.701 1042.66,936.252 1046.92,934.221 1081.29,917.878 1085.3,915.974 1092.47,912.562 1093.36,912.138 1096.44,910.673 1099.12,909.401 1102,908.03 1123.28,897.911 1130.14,894.648 1133.36,893.121 1136.47,891.642 1146.64,886.802 1150.39,885.022 1163.88,878.606 1166.28,877.465 1179.38,871.235 1183.85,869.108 1184.57,868.77 1189.22,866.557 1190.99,865.716 1202.35,860.314 1229.02,847.634 1230.07,847.134 1235.28,844.654 1245.19,839.941 1256.9,833.507 1265.39,829.074 1274.54,824.436 1276.62,823.396 1287.48,817.215 1300.11,810.505 1325.13,797.989 1341.18,790.199 1349.81,785.37 1350.28,785.112 1354.45,782.877 1355.98,782.063 1356.8,781.554 1359.34,779.776 1365.15,775.935 1367.01,774.754 1370.41,772.664 1372.17,771.451 1380.93,765.785 1400.61,754.597 1418.1,745.579 1423.94,742.666 1424.02,742.629 1426.16,741.571 1428.98,739.929 1430.15,739.259 1432.07,738.169 1434.24,736.957 1437.54,735.144 1451.55,726.788 1454.14,725.34 1457.34,723.587 1458.23,723.108 1459.05,722.665 1459.16,722.594 1466.7,718.006 1493.06,702.277 1494.86,701.31 1505.4,695.806 1508.56,694.196 1509.12,693.914 1514.18,691.367 1537.52,679.912 1543.81,676.352 1551.52,672.174 1554.7,670.5 1555.17,670.251 1569.79,662.798 1572.79,661.302 1573.26,661.068 1589.43,653.138 1590.49,652.623 1596.16,649.881 1604.33,645.945 1610.44,643.01 1616.65,640.036 1617.42,639.67 1623.31,636.853 1627.02,635.081 1647.8,625.172 1655.5,621.51 1666.13,616.447 1677,611.278 1679.27,610.196 1684.01,607.944 1691.07,604.583 1709.58,595.781 1768.64,567.696 1793,556.114 1803.86,550.949 1820.08,543.235 1823.42,541.648 1836.77,535.301 1842.75,532.456 1848.2,529.866 1862.5,523.067 1864.59,522.072 1885.45,512.151 1914.51,498.333 1947.59,482.602 1954.94,479.111 1957.02,478.12 1960.95,476.252 1963.16,475.203 1970.45,471.141 1973.53,469.48 1974.32,469.056 1976.17,467.909 1989.13,460.363 1997.5,455.835 2009.27,449.741 2011.24,448.746 2034.24,437.39 2035.09,436.899 2036.05,436.348 2036.77,435.933 2038.41,435.005 2041.39,433.343 2046.7,430.457 2051.2,428.069 2051.55,427.853 2069.82,417.394 2079.25,412.429 2079.48,412.311 2084.42,409.78 2087.31,408.315 2096.71,403.628 2097.91,403.033 2099.61,402.2 2101.56,401.238 2103.94,400.074 2112.8,395.761 2114.5,394.936 2115.36,394.524 2118.54,392.984 2124.69,390.025 2134.65,385.245 2149.15,377.301 2151.36,376.138 2158.23,372.599 2158.63,372.393 2165.9,368.728 2169.83,366.773 2176.67,363.401 2193.43,354.132 2198.78,351.34 2200.7,350.354 2224.96,338.265 2232.02,334.829 2232.48,334.604 2238.19,331.846 2255.31,323.619 2284.97,309.462 2288.29,307.588 2288.41,307.522 2322.1,290.072 2339.03,281.806 2339.21,281.706 2343.08,279.5 2352.76,274.218 "/>
<polyline clip-path="url(#clip341)" style="stroke:#c68125; stroke-linecap:round; stroke-linejoin:round; stroke-width:4; stroke-opacity:1; fill:none" points="140.696,1384.24 140.696,1384.24 171.738,1369.48 176.309,1367.3 204.173,1354.05 218.695,1347.15 234.502,1339.63 252.923,1330.87 254.157,1330.29 260.282,1327.37 267.841,1323.78 284.478,1315.87 288.435,1313.99 296.215,1310.29 297.37,1309.74 306.919,1305.2 313.541,1302.05 315.317,1301.2 315.499,1301.12 319.485,1299.22 322.046,1298 325.459,1296.08 331.647,1292.7 337.54,1289.57 339.302,1288.66 352.182,1281.17 360.524,1276.66 364.429,1274.61 376.23,1268.59 381.937,1265.74 383.413,1265.01 388.536,1262.05 390.618,1260.88 398.102,1256.19 398.97,1255.67 405.455,1251.9 437.188,1235.26 437.818,1234.94 441.067,1233.33 447.362,1230.24 457.446,1225.33 462.266,1222.59 465.107,1220.76 466.995,1219.58 468.493,1218.52 471.397,1216.53 476.547,1213.17 486.536,1207.16 497.519,1201.07 502.251,1198.56 503.701,1197.81 510.398,1194.35 517.2,1190.36 521.412,1187.99 532.852,1181.84 534.147,1181.17 534.438,1181.02 537.46,1179.46 538.342,1179 546.16,1175.04 547.743,1174.25 549.443,1173.4 551.117,1172.57 561.172,1167.62 564.593,1165.95 569.892,1163.38 575.954,1160.45 584.667,1156.25 601.934,1147.99 608.842,1144.69 622.532,1138.16 629.246,1134.42 634.536,1131.57 638.045,1129.72 643.307,1126.99 652.059,1121.86 654.238,1120.44 662.97,1115.08 669.012,1111.61 676.907,1107.28 685.393,1102.14 689.745,1099.65 691.766,1098.52 703.478,1092.22 705.426,1091.21 717.856,1084.89 733.215,1077.31 736.356,1075.78 749.968,1068.22 750.309,1068.04 763.821,1061.04 775.167,1055.37 781.383,1052.32 781.74,1052.14 788.414,1048.89 790.943,1047.66 792.558,1046.73 800.628,1042.24 803.636,1040.62 803.968,1040.44 809.267,1037.64 842.437,1021.08 851.938,1016.48 852.171,1016.37 853.448,1015.75 869.972,1006.71 870.485,1006.44 878.268,1002.43 905.272,989.069 909.581,986.981 913.778,984.59 919.262,981.566 922.836,979.332 942.609,968.119 963.739,957.294 969.761,953.812 1030.63,923.004 1038.57,919.19 1039.61,918.691 1042.66,917.231 1046.92,915.187 1081.29,897.128 1085.3,895.148 1092.47,891.628 1093.36,891.109 1096.44,889.073 1099.12,887.365 1102,885.578 1123.28,873.61 1130.14,870.039 1133.36,868.398 1136.47,866.823 1146.64,861.748 1150.39,859.905 1163.88,853.333 1166.28,852.172 1179.38,845.867 1183.85,843.338 1184.57,842.943 1189.22,840.4 1190.99,839.451 1202.35,833.523 1229.02,820.29 1230.07,819.779 1235.28,817.252 1245.19,811.713 1256.9,805.542 1265.39,801.23 1274.54,796.68 1276.62,795.656 1287.48,790.353 1300.11,784.249 1325.13,770.838 1341.18,762.827 1349.81,758.611 1350.28,758.38 1354.45,756 1355.98,755.139 1356.8,754.683 1359.34,753.285 1365.15,750.166 1367.01,749.009 1370.41,746.959 1372.17,745.925 1380.93,740.969 1400.61,730.647 1418.1,721.961 1423.94,719.112 1424.02,719.076 1426.16,718.038 1428.98,716.671 1430.15,716.104 1432.07,715.174 1434.24,714.127 1437.54,712.245 1451.55,704.672 1454.14,703.323 1457.34,701.676 1458.23,701.225 1459.05,700.805 1459.16,700.749 1466.7,696.949 1493.06,684.05 1494.86,683.015 1505.4,677.21 1508.56,675.534 1509.12,675.241 1514.18,672.177 1537.52,659.406 1543.81,656.193 1551.52,652.326 1554.7,650.752 1555.17,650.517 1569.79,643.37 1572.79,641.916 1573.26,641.688 1589.43,633.904 1590.49,633.298 1596.16,630.131 1604.33,625.095 1610.44,621.563 1616.65,618.129 1617.42,617.714 1623.31,614.577 1627.02,612.641 1647.8,602.188 1655.5,598.422 1666.13,593.264 1677,588.035 1679.27,586.943 1684.01,584.675 1691.07,581.294 1709.58,572.464 1768.64,544.358 1793,532.775 1803.86,526.792 1820.08,518.404 1823.42,516.729 1836.77,510.138 1842.75,507.223 1848.2,504.584 1862.5,497.7 1864.59,496.697 1885.45,486.723 1914.51,472.881 1947.59,455.502 1954.94,451.876 1957.02,450.854 1960.95,448.935 1963.16,447.86 1970.45,444.323 1973.53,442.837 1974.32,442.454 1976.17,441.566 1989.13,435.343 1997.5,431.341 2009.27,425.72 2011.24,424.782 2034.24,413.828 2035.09,413.424 2036.05,412.968 2036.77,412.622 2038.41,411.842 2041.39,410.424 2046.7,407.898 2051.2,405.755 2051.55,405.589 2069.82,396.9 2079.25,391.686 2079.48,391.563 2084.42,388.939 2087.31,387.428 2096.71,382.627 2097.91,382.021 2099.61,381.173 2101.56,380.195 2103.94,379.013 2112.8,374.648 2114.5,373.816 2115.36,373.399 2118.54,371.848 2124.69,368.869 2134.65,364.067 2149.15,357.117 2151.36,356.058 2158.23,352.779 2158.63,352.585 2165.9,349.119 2169.83,347.246 2176.67,343.988 2193.43,336.007 2198.78,333.46 2200.7,332.549 2224.96,321.01 2232.02,317.65 2232.48,317.43 2238.19,314.716 2255.31,306.573 2284.97,290.908 2288.29,289.252 2288.41,289.194 2322.1,272.798 2339.03,264.691 2339.21,264.608 2343.08,262.76 2352.76,258.143 "/>
<polyline clip-path="url(#clip341)" style="stroke:#00a98d; stroke-linecap:round; stroke-linejoin:round; stroke-width:4; stroke-opacity:1; fill:none" points="140.696,1384.24 140.696,1384.24 171.738,1369.48 176.309,1367.3 204.173,1352.54 218.695,1345.34 234.502,1337.67 252.923,1328.82 254.157,1328.23 260.282,1325.3 267.841,1321.69 284.478,1313.76 288.435,1311.53 296.215,1306.68 297.37,1305.89 306.919,1298.99 313.541,1294.71 315.317,1293.62 315.499,1293.51 319.485,1291.12 322.046,1289.4 325.459,1287.19 331.647,1282.88 337.54,1279.08 339.302,1277.99 352.182,1270.53 360.524,1265.37 364.429,1263.09 376.23,1256.57 381.937,1253.08 383.413,1252.21 388.536,1249.26 390.618,1248.1 398.102,1244.03 398.97,1243.49 405.455,1239.58 437.188,1222.63 437.818,1222.25 441.067,1220.35 447.362,1216.79 457.446,1211.37 462.266,1208.87 465.107,1207.41 466.995,1206.28 468.493,1205.4 471.397,1203.71 476.547,1200.81 486.536,1195.44 497.519,1189.78 502.251,1187 503.701,1186.16 510.398,1182.43 517.2,1178.78 521.412,1176.21 532.852,1169.69 534.147,1168.98 534.438,1168.79 537.46,1166.9 538.342,1166.36 546.16,1161.74 547.743,1160.84 549.443,1159.73 551.117,1158.51 561.172,1151.73 564.593,1149.31 569.892,1145.77 575.954,1141.98 584.667,1136.21 601.934,1126.17 608.842,1122.47 622.532,1115.43 629.246,1112.07 634.536,1109.46 638.045,1107.74 643.307,1105.17 652.059,1100.93 654.238,1099.88 662.97,1095.68 669.012,1092.28 676.907,1088.02 685.393,1083.61 689.745,1081.02 691.766,1079.85 703.478,1073.38 705.426,1072.16 717.856,1064.91 733.215,1055.66 736.356,1053.91 749.968,1046.65 750.309,1046.48 763.821,1038.67 775.167,1032.61 781.383,1029.42 781.74,1029.23 788.414,1025.87 790.943,1024.61 792.558,1023.81 800.628,1019.83 803.636,1018.36 803.968,1018.2 809.267,1015.62 842.437,999.679 851.938,995.144 852.171,995.033 853.448,994.424 869.972,986.551 870.485,986.259 878.268,981.943 905.272,968.069 909.581,965.942 913.778,963.885 919.262,961.211 922.836,959.478 942.609,948.711 963.739,938.077 969.761,935.126 1030.63,905.918 1038.57,902.138 1039.61,901.642 1042.66,900.191 1046.92,898.159 1081.29,881.81 1085.3,879.906 1092.47,876.493 1093.36,876.069 1096.44,874.604 1099.12,873.332 1102,871.961 1123.28,861.842 1130.14,858.578 1133.36,857.051 1136.47,855.573 1146.64,850.732 1150.39,848.952 1163.88,842.536 1166.28,841.395 1179.38,835.165 1183.85,833.038 1184.57,832.7 1189.22,830.487 1190.99,829.647 1202.35,824.244 1229.02,810.084 1230.07,809.554 1235.28,806.505 1245.19,801.016 1256.9,794.881 1265.39,790.585 1274.54,786.048 1276.62,785.025 1287.48,779.731 1300.11,772.715 1325.13,759.928 1341.18,752.072 1349.81,747.902 1350.28,747.674 1354.45,745.671 1355.98,744.933 1356.8,744.539 1359.34,743.319 1365.15,740.539 1367.01,739.644 1370.41,737.718 1372.17,736.741 1380.93,732.012 1400.61,721.965 1418.1,713.385 1423.94,710.068 1424.02,710.027 1426.16,708.846 1428.98,707.311 1430.15,706.68 1432.07,705.653 1434.24,704.504 1437.54,702.778 1451.55,695.662 1454.14,694.371 1457.34,692.786 1458.23,692.351 1459.05,691.868 1459.16,691.803 1466.7,686.918 1493.06,672.148 1494.86,671.213 1505.4,665.857 1508.56,664 1509.12,663.625 1514.18,660.335 1537.52,645.612 1543.81,642.138 1551.52,638.038 1554.7,636.389 1555.17,636.144 1569.79,627.747 1572.79,626.123 1573.26,625.87 1589.43,617.49 1590.49,616.956 1596.16,614.123 1604.33,610.092 1610.44,607.105 1616.65,603.575 1617.42,603.151 1623.31,599.454 1627.02,597.235 1647.8,585.831 1655.5,581.885 1666.13,575.757 1677,569.915 1679.27,568.523 1684.01,565.72 1691.07,561.725 1709.58,551.965 1768.64,523.191 1793,511.574 1803.86,506.402 1820.08,498.683 1823.42,497.095 1836.77,490.746 1842.75,487.901 1848.2,485.311 1862.5,477.507 1864.59,476.412 1885.45,465.872 1914.51,451.763 1947.59,435.948 1954.94,431.855 1957.02,430.537 1960.95,427.788 1963.16,426.107 1970.45,420.943 1973.53,418.916 1974.32,418.405 1976.17,417.236 1989.13,409.581 1997.5,404.345 2009.27,397.614 2011.24,396.541 2034.24,383.28 2035.09,382.829 2036.05,382.321 2036.77,381.938 2038.41,380.927 2041.39,379.129 2046.7,376.041 2051.2,373.517 2051.55,373.323 2069.82,363.695 2079.25,358.956 2079.48,358.842 2084.42,356.395 2087.31,354.714 2096.71,349.489 2097.91,348.84 2099.61,347.936 2101.56,346.72 2103.94,345.277 2112.8,340.147 2114.5,339.199 2115.36,338.728 2118.54,336.708 2124.69,332.995 2134.65,327.358 2149.15,319.7 2151.36,318.567 2158.23,315.103 2158.63,314.862 2165.9,310.086 2169.83,307.664 2176.67,303.653 2193.43,294.563 2198.78,291.804 2200.7,290.829 2224.96,278.816 2232.02,275.391 2232.48,275.167 2238.19,271.936 2255.31,262.841 2284.97,248.13 2288.29,246.522 2288.41,246.465 2322.1,230.298 2339.03,222.226 2339.21,222.144 2343.08,220.3 2352.76,215.692 "/>
<polyline clip-path="url(#clip341)" style="stroke:#8e971d; stroke-linecap:round; stroke-linejoin:round; stroke-width:4; stroke-opacity:1; fill:none" points="140.696,1384.24 140.696,1384.24 171.738,1369.48 176.309,1366.91 204.173,1352.43 218.695,1344.27 234.502,1336.06 252.923,1326.92 254.157,1326.21 260.282,1322.75 267.841,1318.65 284.478,1310.09 288.435,1308.11 296.215,1304.27 297.37,1303.7 306.919,1299.05 313.541,1295.84 315.317,1294.99 315.499,1294.9 319.485,1292.98 322.046,1291.75 325.459,1290.11 331.647,1287.14 337.54,1284.33 339.302,1283.48 352.182,1277.34 360.524,1273.36 364.429,1271.5 376.23,1265.88 381.937,1263.17 383.413,1262.46 388.536,1260.03 390.618,1259.04 398.102,1255.48 398.97,1255.06 405.455,1251.98 437.188,1236.89 437.818,1236.59 441.067,1234.76 447.362,1230.79 457.446,1224.91 462.266,1222.25 465.107,1220.71 466.995,1219.71 468.493,1218.91 471.397,1217.39 476.547,1214.73 486.536,1208.93 497.519,1202.15 502.251,1199.44 503.701,1198.49 510.398,1193.76 517.2,1189.36 521.412,1186.8 532.852,1179.43 534.147,1178.65 534.438,1178.48 537.46,1176.43 538.342,1175.85 546.16,1170.94 547.743,1169.85 549.443,1168.7 551.117,1167.59 561.172,1161.37 564.593,1159.38 569.892,1155.95 575.954,1152.27 584.667,1147.29 601.934,1138.14 608.842,1134.64 622.532,1127.86 629.246,1124.58 634.536,1122.02 638.045,1120.32 643.307,1117.78 652.059,1113.58 654.238,1112.54 662.97,1108.36 669.012,1105.47 676.907,1101.08 685.393,1096.56 689.745,1094.31 691.766,1093.27 703.478,1087.39 705.426,1086.42 717.856,1080.33 733.215,1072.91 736.356,1071.4 749.968,1064.88 750.309,1064.68 763.821,1057.28 775.167,1050.57 781.383,1047.13 781.74,1046.94 788.414,1042.84 790.943,1041.12 792.558,1040.06 800.628,1034.37 803.636,1032.13 803.968,1031.89 809.267,1028.21 842.437,1009.09 851.938,1004.24 852.171,1004.1 853.448,1003.34 869.972,994.132 870.485,993.86 878.268,989.806 905.272,974.88 909.581,972.303 913.778,969.882 919.262,966.364 922.836,964.182 942.609,953.144 963.739,942.395 969.761,939.426 1030.63,908.182 1038.57,903.724 1039.61,903.156 1042.66,901.512 1046.92,898.88 1081.29,880.297 1085.3,878.293 1092.47,874.74 1093.36,874.301 1096.44,872.791 1099.12,871.484 1102,870.08 1123.28,859.812 1130.14,855.963 1133.36,854.217 1136.47,852.556 1146.64,847.266 1150.39,845.038 1163.88,837.51 1166.28,836.232 1179.38,829.468 1183.85,827.22 1184.57,826.864 1189.22,824.552 1190.99,823.678 1202.35,817.271 1229.02,803.535 1230.07,803.014 1235.28,800.443 1245.19,795.606 1256.9,789.948 1265.39,785.87 1274.54,781.491 1276.62,780.308 1287.48,774.378 1300.11,767.842 1325.13,755.48 1341.18,747.728 1349.81,743.591 1350.28,743.364 1354.45,741.373 1355.98,740.638 1356.8,740.245 1359.34,739.031 1365.15,735.775 1367.01,734.752 1370.41,732.918 1372.17,731.983 1380.93,727.421 1400.61,717.578 1418.1,709.076 1423.94,706.263 1424.02,706.227 1426.16,705.005 1428.98,703.422 1430.15,702.774 1432.07,701.718 1434.24,700.541 1437.54,698.777 1451.55,691.548 1454.14,690.242 1457.34,688.642 1458.23,688.12 1459.05,687.637 1459.16,687.572 1466.7,683.292 1493.06,669.564 1494.86,668.666 1505.4,662.671 1508.56,660.954 1509.12,660.654 1514.18,657.968 1537.52,646.156 1543.81,643.07 1551.52,639.318 1554.7,637.78 1555.17,637.55 1569.79,630.517 1572.79,629.079 1573.26,628.853 1589.43,620.029 1590.49,619.476 1596.16,616.554 1604.33,612.428 1610.44,609.389 1616.65,606.335 1617.42,605.961 1623.31,603.089 1627.02,600.963 1647.8,589.872 1655.5,585.366 1666.13,579.527 1677,573.868 1679.27,572.709 1684.01,570.323 1691.07,566.231 1709.58,556.323 1768.64,527.443 1793,515.82 1803.86,510.648 1820.08,502.927 1823.42,501.339 1836.77,494.99 1842.75,492.145 1848.2,489.095 1862.5,481.508 1864.59,480.245 1885.45,468.665 1914.51,454.067 1947.59,438.111 1954.94,434.601 1957.02,433.606 1960.95,431.732 1963.16,430.678 1970.45,427.199 1973.53,425.733 1974.32,425.28 1976.17,424.239 1989.13,417.237 1997.5,412.925 2009.27,406.155 2011.24,405.078 2034.24,393.15 2035.09,392.726 2036.05,392.249 2036.77,391.887 2038.41,391.073 2041.39,389.333 2046.7,386.331 2051.2,383.864 2051.55,383.675 2069.82,374.19 2079.25,369.49 2079.48,369.377 2084.42,366.945 2087.31,365.529 2096.71,360.962 2097.91,360.38 2099.61,359.408 2101.56,358.297 2103.94,356.97 2112.8,351.485 2114.5,350.483 2115.36,349.987 2118.54,348.163 2124.69,344.757 2134.65,339.469 2149.15,332.107 2151.36,331.005 2158.23,327.056 2158.63,326.829 2165.9,322.855 2169.83,320.769 2176.67,317.219 2193.43,308.808 2198.78,305.727 2200.7,304.479 2224.96,290.45 2232.02,286.171 2232.48,285.9 2238.19,282.64 2255.31,273.494 2284.97,258.751 2288.29,257.14 2288.41,257.084 2322.1,239.256 2339.03,229.805 2339.21,229.713 2343.08,227.678 2352.76,222.713 "/>
<path clip-path="url(#clip340)" d="M214.431 663.349 L554.896 663.349 L554.896 93.1086 L214.431 93.1086  Z" fill="#ffffff" fill-rule="evenodd" fill-opacity="1"/>
<polyline clip-path="url(#clip340)" style="stroke:#000000; stroke-linecap:round; stroke-linejoin:round; stroke-width:4; stroke-opacity:1; fill:none" points="214.431,663.349 554.896,663.349 554.896,93.1086 214.431,93.1086 214.431,663.349 "/>
<polyline clip-path="url(#clip340)" style="stroke:#009af9; stroke-linecap:round; stroke-linejoin:round; stroke-width:4; stroke-opacity:1; fill:none" points="239.009,144.949 386.48,144.949 "/>
<path clip-path="url(#clip340)" d="M411.058 151.997 L411.058 136.303 L415.318 136.303 L415.318 151.835 Q415.318 155.516 416.753 157.368 Q418.188 159.196 421.058 159.196 Q424.507 159.196 426.498 156.997 Q428.512 154.798 428.512 151.002 L428.512 136.303 L432.771 136.303 L432.771 162.229 L428.512 162.229 L428.512 158.247 Q426.961 160.608 424.901 161.766 Q422.864 162.9 420.156 162.9 Q415.688 162.9 413.373 160.122 Q411.058 157.344 411.058 151.997 M421.776 135.678 L421.776 135.678 Z" fill="#000000" fill-rule="nonzero" fill-opacity="1" /><path clip-path="url(#clip340)" d="M441.151 126.21 L450.966 126.21 L450.966 129.52 L445.41 129.52 L445.41 165.168 L450.966 165.168 L450.966 168.479 L441.151 168.479 L441.151 126.21 Z" fill="#000000" fill-rule="nonzero" fill-opacity="1" /><path clip-path="url(#clip340)" d="M461.452 158.293 L469.091 158.293 L469.091 131.928 L460.78 133.595 L460.78 129.335 L469.044 127.669 L473.72 127.669 L473.72 158.293 L481.359 158.293 L481.359 162.229 L461.452 162.229 L461.452 158.293 Z" fill="#000000" fill-rule="nonzero" fill-opacity="1" /><path clip-path="url(#clip340)" d="M500.155 126.21 L500.155 168.479 L490.34 168.479 L490.34 165.168 L495.873 165.168 L495.873 129.52 L490.34 129.52 L490.34 126.21 L500.155 126.21 Z" fill="#000000" fill-rule="nonzero" fill-opacity="1" /><polyline clip-path="url(#clip340)" style="stroke:#e26f46; stroke-linecap:round; stroke-linejoin:round; stroke-width:4; stroke-opacity:1; fill:none" points="239.009,196.789 386.48,196.789 "/>
<path clip-path="url(#clip340)" d="M411.058 203.837 L411.058 188.143 L415.318 188.143 L415.318 203.675 Q415.318 207.356 416.753 209.208 Q418.188 211.036 421.058 211.036 Q424.507 211.036 426.498 208.837 Q428.512 206.638 428.512 202.842 L428.512 188.143 L432.771 188.143 L432.771 214.069 L428.512 214.069 L428.512 210.087 Q426.961 212.448 424.901 213.606 Q422.864 214.74 420.156 214.74 Q415.688 214.74 413.373 211.962 Q411.058 209.184 411.058 203.837 M421.776 187.518 L421.776 187.518 Z" fill="#000000" fill-rule="nonzero" fill-opacity="1" /><path clip-path="url(#clip340)" d="M441.151 178.05 L450.966 178.05 L450.966 181.36 L445.41 181.36 L445.41 217.008 L450.966 217.008 L450.966 220.319 L441.151 220.319 L441.151 178.05 Z" fill="#000000" fill-rule="nonzero" fill-opacity="1" /><path clip-path="url(#clip340)" d="M464.669 210.133 L480.989 210.133 L480.989 214.069 L459.044 214.069 L459.044 210.133 Q461.706 207.379 466.29 202.749 Q470.896 198.096 472.077 196.754 Q474.322 194.231 475.202 192.495 Q476.104 190.735 476.104 189.046 Q476.104 186.291 474.16 184.555 Q472.239 182.819 469.137 182.819 Q466.938 182.819 464.484 183.583 Q462.054 184.347 459.276 185.897 L459.276 181.175 Q462.1 180.041 464.554 179.462 Q467.007 178.884 469.044 178.884 Q474.415 178.884 477.609 181.569 Q480.803 184.254 480.803 188.745 Q480.803 190.874 479.993 192.796 Q479.206 194.694 477.1 197.286 Q476.521 197.958 473.419 201.175 Q470.317 204.37 464.669 210.133 Z" fill="#000000" fill-rule="nonzero" fill-opacity="1" /><path clip-path="url(#clip340)" d="M500.155 178.05 L500.155 220.319 L490.34 220.319 L490.34 217.008 L495.873 217.008 L495.873 181.36 L490.34 181.36 L490.34 178.05 L500.155 178.05 Z" fill="#000000" fill-rule="nonzero" fill-opacity="1" /><polyline clip-path="url(#clip340)" style="stroke:#3da44d; stroke-linecap:round; stroke-linejoin:round; stroke-width:4; stroke-opacity:1; fill:none" points="239.009,248.629 386.48,248.629 "/>
<path clip-path="url(#clip340)" d="M411.058 255.677 L411.058 239.983 L415.318 239.983 L415.318 255.515 Q415.318 259.196 416.753 261.048 Q418.188 262.876 421.058 262.876 Q424.507 262.876 426.498 260.677 Q428.512 258.478 428.512 254.682 L428.512 239.983 L432.771 239.983 L432.771 265.909 L428.512 265.909 L428.512 261.927 Q426.961 264.288 424.901 265.446 Q422.864 266.58 420.156 266.58 Q415.688 266.58 413.373 263.802 Q411.058 261.024 411.058 255.677 M421.776 239.358 L421.776 239.358 Z" fill="#000000" fill-rule="nonzero" fill-opacity="1" /><path clip-path="url(#clip340)" d="M441.151 229.89 L450.966 229.89 L450.966 233.2 L445.41 233.2 L445.41 268.848 L450.966 268.848 L450.966 272.159 L441.151 272.159 L441.151 229.89 Z" fill="#000000" fill-rule="nonzero" fill-opacity="1" /><path clip-path="url(#clip340)" d="M474.808 247.274 Q478.165 247.992 480.04 250.261 Q481.938 252.529 481.938 255.862 Q481.938 260.978 478.419 263.779 Q474.901 266.58 468.419 266.58 Q466.243 266.58 463.929 266.14 Q461.637 265.723 459.183 264.867 L459.183 260.353 Q461.128 261.487 463.442 262.066 Q465.757 262.645 468.28 262.645 Q472.679 262.645 474.97 260.909 Q477.285 259.173 477.285 255.862 Q477.285 252.807 475.132 251.094 Q473.003 249.358 469.183 249.358 L465.155 249.358 L465.155 245.515 L469.368 245.515 Q472.817 245.515 474.646 244.149 Q476.475 242.761 476.475 240.168 Q476.475 237.506 474.577 236.094 Q472.702 234.659 469.183 234.659 Q467.262 234.659 465.063 235.075 Q462.864 235.492 460.225 236.372 L460.225 232.205 Q462.887 231.464 465.202 231.094 Q467.54 230.724 469.6 230.724 Q474.924 230.724 478.026 233.154 Q481.128 235.562 481.128 239.682 Q481.128 242.552 479.484 244.543 Q477.841 246.511 474.808 247.274 Z" fill="#000000" fill-rule="nonzero" fill-opacity="1" /><path clip-path="url(#clip340)" d="M500.155 229.89 L500.155 272.159 L490.34 272.159 L490.34 268.848 L495.873 268.848 L495.873 233.2 L490.34 233.2 L490.34 229.89 L500.155 229.89 Z" fill="#000000" fill-rule="nonzero" fill-opacity="1" /><polyline clip-path="url(#clip340)" style="stroke:#c271d2; stroke-linecap:round; stroke-linejoin:round; stroke-width:4; stroke-opacity:1; fill:none" points="239.009,300.469 386.48,300.469 "/>
<path clip-path="url(#clip340)" d="M411.058 307.517 L411.058 291.823 L415.318 291.823 L415.318 307.355 Q415.318 311.036 416.753 312.888 Q418.188 314.716 421.058 314.716 Q424.507 314.716 426.498 312.517 Q428.512 310.318 428.512 306.522 L428.512 291.823 L432.771 291.823 L432.771 317.749 L428.512 317.749 L428.512 313.767 Q426.961 316.128 424.901 317.286 Q422.864 318.42 420.156 318.42 Q415.688 318.42 413.373 315.642 Q411.058 312.864 411.058 307.517 M421.776 291.198 L421.776 291.198 Z" fill="#000000" fill-rule="nonzero" fill-opacity="1" /><path clip-path="url(#clip340)" d="M441.151 281.73 L450.966 281.73 L450.966 285.04 L445.41 285.04 L445.41 320.688 L450.966 320.688 L450.966 323.999 L441.151 323.999 L441.151 281.73 Z" fill="#000000" fill-rule="nonzero" fill-opacity="1" /><path clip-path="url(#clip340)" d="M473.489 287.263 L461.683 305.712 L473.489 305.712 L473.489 287.263 M472.262 283.189 L478.141 283.189 L478.141 305.712 L483.072 305.712 L483.072 309.601 L478.141 309.601 L478.141 317.749 L473.489 317.749 L473.489 309.601 L457.887 309.601 L457.887 305.087 L472.262 283.189 Z" fill="#000000" fill-rule="nonzero" fill-opacity="1" /><path clip-path="url(#clip340)" d="M500.155 281.73 L500.155 323.999 L490.34 323.999 L490.34 320.688 L495.873 320.688 L495.873 285.04 L490.34 285.04 L490.34 281.73 L500.155 281.73 Z" fill="#000000" fill-rule="nonzero" fill-opacity="1" /><polyline clip-path="url(#clip340)" style="stroke:#ac8d18; stroke-linecap:round; stroke-linejoin:round; stroke-width:4; stroke-opacity:1; fill:none" points="239.009,352.309 386.48,352.309 "/>
<path clip-path="url(#clip340)" d="M411.058 359.357 L411.058 343.663 L415.318 343.663 L415.318 359.195 Q415.318 362.876 416.753 364.728 Q418.188 366.556 421.058 366.556 Q424.507 366.556 426.498 364.357 Q428.512 362.158 428.512 358.362 L428.512 343.663 L432.771 343.663 L432.771 369.589 L428.512 369.589 L428.512 365.607 Q426.961 367.968 424.901 369.126 Q422.864 370.26 420.156 370.26 Q415.688 370.26 413.373 367.482 Q411.058 364.704 411.058 359.357 M421.776 343.038 L421.776 343.038 Z" fill="#000000" fill-rule="nonzero" fill-opacity="1" /><path clip-path="url(#clip340)" d="M441.151 333.57 L450.966 333.57 L450.966 336.88 L445.41 336.88 L445.41 372.528 L450.966 372.528 L450.966 375.839 L441.151 375.839 L441.151 333.57 Z" fill="#000000" fill-rule="nonzero" fill-opacity="1" /><path clip-path="url(#clip340)" d="M460.688 335.029 L479.044 335.029 L479.044 338.964 L464.97 338.964 L464.97 347.436 Q465.989 347.089 467.007 346.927 Q468.026 346.742 469.044 346.742 Q474.831 346.742 478.211 349.913 Q481.591 353.084 481.591 358.501 Q481.591 364.079 478.118 367.181 Q474.646 370.26 468.327 370.26 Q466.151 370.26 463.882 369.89 Q461.637 369.519 459.23 368.778 L459.23 364.079 Q461.313 365.214 463.535 365.769 Q465.757 366.325 468.234 366.325 Q472.239 366.325 474.577 364.218 Q476.915 362.112 476.915 358.501 Q476.915 354.89 474.577 352.783 Q472.239 350.677 468.234 350.677 Q466.359 350.677 464.484 351.093 Q462.632 351.51 460.688 352.39 L460.688 335.029 Z" fill="#000000" fill-rule="nonzero" fill-opacity="1" /><path clip-path="url(#clip340)" d="M500.155 333.57 L500.155 375.839 L490.34 375.839 L490.34 372.528 L495.873 372.528 L495.873 336.88 L490.34 336.88 L490.34 333.57 L500.155 333.57 Z" fill="#000000" fill-rule="nonzero" fill-opacity="1" /><polyline clip-path="url(#clip340)" style="stroke:#00a9ad; stroke-linecap:round; stroke-linejoin:round; stroke-width:4; stroke-opacity:1; fill:none" points="239.009,404.149 386.48,404.149 "/>
<path clip-path="url(#clip340)" d="M411.058 411.197 L411.058 395.503 L415.318 395.503 L415.318 411.035 Q415.318 414.716 416.753 416.568 Q418.188 418.396 421.058 418.396 Q424.507 418.396 426.498 416.197 Q428.512 413.998 428.512 410.202 L428.512 395.503 L432.771 395.503 L432.771 421.429 L428.512 421.429 L428.512 417.447 Q426.961 419.808 424.901 420.966 Q422.864 422.1 420.156 422.1 Q415.688 422.1 413.373 419.322 Q411.058 416.544 411.058 411.197 M421.776 394.878 L421.776 394.878 Z" fill="#000000" fill-rule="nonzero" fill-opacity="1" /><path clip-path="url(#clip340)" d="M441.151 385.41 L450.966 385.41 L450.966 388.72 L445.41 388.72 L445.41 424.368 L450.966 424.368 L450.966 427.679 L441.151 427.679 L441.151 385.41 Z" fill="#000000" fill-rule="nonzero" fill-opacity="1" /><path clip-path="url(#clip340)" d="M471.22 402.285 Q468.072 402.285 466.22 404.438 Q464.392 406.591 464.392 410.341 Q464.392 414.068 466.22 416.243 Q468.072 418.396 471.22 418.396 Q474.368 418.396 476.197 416.243 Q478.049 414.068 478.049 410.341 Q478.049 406.591 476.197 404.438 Q474.368 402.285 471.22 402.285 M480.503 387.633 L480.503 391.892 Q478.743 391.058 476.938 390.619 Q475.155 390.179 473.396 390.179 Q468.766 390.179 466.313 393.304 Q463.882 396.429 463.535 402.748 Q464.901 400.734 466.961 399.669 Q469.021 398.582 471.498 398.582 Q476.706 398.582 479.716 401.753 Q482.748 404.901 482.748 410.341 Q482.748 415.665 479.6 418.882 Q476.452 422.1 471.22 422.1 Q465.225 422.1 462.054 417.517 Q458.882 412.91 458.882 404.183 Q458.882 395.989 462.771 391.128 Q466.66 386.244 473.211 386.244 Q474.97 386.244 476.753 386.591 Q478.558 386.938 480.503 387.633 Z" fill="#000000" fill-rule="nonzero" fill-opacity="1" /><path clip-path="url(#clip340)" d="M500.155 385.41 L500.155 427.679 L490.34 427.679 L490.34 424.368 L495.873 424.368 L495.873 388.72 L490.34 388.72 L490.34 385.41 L500.155 385.41 Z" fill="#000000" fill-rule="nonzero" fill-opacity="1" /><polyline clip-path="url(#clip340)" style="stroke:#ed5d92; stroke-linecap:round; stroke-linejoin:round; stroke-width:4; stroke-opacity:1; fill:none" points="239.009,455.989 386.48,455.989 "/>
<path clip-path="url(#clip340)" d="M411.058 463.037 L411.058 447.343 L415.318 447.343 L415.318 462.875 Q415.318 466.556 416.753 468.408 Q418.188 470.236 421.058 470.236 Q424.507 470.236 426.498 468.037 Q428.512 465.838 428.512 462.042 L428.512 447.343 L432.771 447.343 L432.771 473.269 L428.512 473.269 L428.512 469.287 Q426.961 471.648 424.901 472.806 Q422.864 473.94 420.156 473.94 Q415.688 473.94 413.373 471.162 Q411.058 468.384 411.058 463.037 M421.776 446.718 L421.776 446.718 Z" fill="#000000" fill-rule="nonzero" fill-opacity="1" /><path clip-path="url(#clip340)" d="M441.151 437.25 L450.966 437.25 L450.966 440.56 L445.41 440.56 L445.41 476.208 L450.966 476.208 L450.966 479.519 L441.151 479.519 L441.151 437.25 Z" fill="#000000" fill-rule="nonzero" fill-opacity="1" /><path clip-path="url(#clip340)" d="M459.461 438.709 L481.683 438.709 L481.683 440.699 L469.137 473.269 L464.253 473.269 L476.058 442.644 L459.461 442.644 L459.461 438.709 Z" fill="#000000" fill-rule="nonzero" fill-opacity="1" /><path clip-path="url(#clip340)" d="M500.155 437.25 L500.155 479.519 L490.34 479.519 L490.34 476.208 L495.873 476.208 L495.873 440.56 L490.34 440.56 L490.34 437.25 L500.155 437.25 Z" fill="#000000" fill-rule="nonzero" fill-opacity="1" /><polyline clip-path="url(#clip340)" style="stroke:#c68125; stroke-linecap:round; stroke-linejoin:round; stroke-width:4; stroke-opacity:1; fill:none" points="239.009,507.829 386.48,507.829 "/>
<path clip-path="url(#clip340)" d="M411.058 514.877 L411.058 499.183 L415.318 499.183 L415.318 514.715 Q415.318 518.396 416.753 520.248 Q418.188 522.076 421.058 522.076 Q424.507 522.076 426.498 519.877 Q428.512 517.678 428.512 513.882 L428.512 499.183 L432.771 499.183 L432.771 525.109 L428.512 525.109 L428.512 521.127 Q426.961 523.488 424.901 524.646 Q422.864 525.78 420.156 525.78 Q415.688 525.78 413.373 523.002 Q411.058 520.224 411.058 514.877 M421.776 498.558 L421.776 498.558 Z" fill="#000000" fill-rule="nonzero" fill-opacity="1" /><path clip-path="url(#clip340)" d="M441.151 489.09 L450.966 489.09 L450.966 492.4 L445.41 492.4 L445.41 528.048 L450.966 528.048 L450.966 531.359 L441.151 531.359 L441.151 489.09 Z" fill="#000000" fill-rule="nonzero" fill-opacity="1" /><path clip-path="url(#clip340)" d="M470.641 508.697 Q467.308 508.697 465.387 510.479 Q463.489 512.261 463.489 515.386 Q463.489 518.511 465.387 520.294 Q467.308 522.076 470.641 522.076 Q473.975 522.076 475.896 520.294 Q477.817 518.488 477.817 515.386 Q477.817 512.261 475.896 510.479 Q473.998 508.697 470.641 508.697 M465.966 506.706 Q462.956 505.965 461.267 503.905 Q459.6 501.845 459.6 498.882 Q459.6 494.738 462.54 492.331 Q465.503 489.924 470.641 489.924 Q475.803 489.924 478.743 492.331 Q481.683 494.738 481.683 498.882 Q481.683 501.845 479.993 503.905 Q478.327 505.965 475.341 506.706 Q478.72 507.493 480.595 509.785 Q482.493 512.076 482.493 515.386 Q482.493 520.41 479.415 523.095 Q476.359 525.78 470.641 525.78 Q464.924 525.78 461.845 523.095 Q458.79 520.41 458.79 515.386 Q458.79 512.076 460.688 509.785 Q462.586 507.493 465.966 506.706 M464.253 499.322 Q464.253 502.007 465.919 503.512 Q467.609 505.016 470.641 505.016 Q473.651 505.016 475.341 503.512 Q477.053 502.007 477.053 499.322 Q477.053 496.637 475.341 495.132 Q473.651 493.627 470.641 493.627 Q467.609 493.627 465.919 495.132 Q464.253 496.637 464.253 499.322 Z" fill="#000000" fill-rule="nonzero" fill-opacity="1" /><path clip-path="url(#clip340)" d="M500.155 489.09 L500.155 531.359 L490.34 531.359 L490.34 528.048 L495.873 528.048 L495.873 492.4 L490.34 492.4 L490.34 489.09 L500.155 489.09 Z" fill="#000000" fill-rule="nonzero" fill-opacity="1" /><polyline clip-path="url(#clip340)" style="stroke:#00a98d; stroke-linecap:round; stroke-linejoin:round; stroke-width:4; stroke-opacity:1; fill:none" points="239.009,559.669 386.48,559.669 "/>
<path clip-path="url(#clip340)" d="M411.058 566.717 L411.058 551.023 L415.318 551.023 L415.318 566.555 Q415.318 570.236 416.753 572.088 Q418.188 573.916 421.058 573.916 Q424.507 573.916 426.498 571.717 Q428.512 569.518 428.512 565.722 L428.512 551.023 L432.771 551.023 L432.771 576.949 L428.512 576.949 L428.512 572.967 Q426.961 575.328 424.901 576.486 Q422.864 577.62 420.156 577.62 Q415.688 577.62 413.373 574.842 Q411.058 572.064 411.058 566.717 M421.776 550.398 L421.776 550.398 Z" fill="#000000" fill-rule="nonzero" fill-opacity="1" /><path clip-path="url(#clip340)" d="M441.151 540.93 L450.966 540.93 L450.966 544.24 L445.41 544.24 L445.41 579.888 L450.966 579.888 L450.966 583.199 L441.151 583.199 L441.151 540.93 Z" fill="#000000" fill-rule="nonzero" fill-opacity="1" /><path clip-path="url(#clip340)" d="M460.78 576.231 L460.78 571.972 Q462.54 572.805 464.345 573.245 Q466.151 573.685 467.887 573.685 Q472.516 573.685 474.947 570.583 Q477.401 567.458 477.748 561.115 Q476.405 563.106 474.345 564.171 Q472.285 565.236 469.785 565.236 Q464.6 565.236 461.567 562.111 Q458.558 558.963 458.558 553.523 Q458.558 548.199 461.706 544.981 Q464.854 541.764 470.086 541.764 Q476.081 541.764 479.229 546.37 Q482.401 550.953 482.401 559.703 Q482.401 567.875 478.512 572.759 Q474.646 577.62 468.095 577.62 Q466.336 577.62 464.53 577.273 Q462.725 576.925 460.78 576.231 M470.086 561.578 Q473.234 561.578 475.063 559.426 Q476.915 557.273 476.915 553.523 Q476.915 549.796 475.063 547.643 Q473.234 545.467 470.086 545.467 Q466.938 545.467 465.086 547.643 Q463.257 549.796 463.257 553.523 Q463.257 557.273 465.086 559.426 Q466.938 561.578 470.086 561.578 Z" fill="#000000" fill-rule="nonzero" fill-opacity="1" /><path clip-path="url(#clip340)" d="M500.155 540.93 L500.155 583.199 L490.34 583.199 L490.34 579.888 L495.873 579.888 L495.873 544.24 L490.34 544.24 L490.34 540.93 L500.155 540.93 Z" fill="#000000" fill-rule="nonzero" fill-opacity="1" /><polyline clip-path="url(#clip340)" style="stroke:#8e971d; stroke-linecap:round; stroke-linejoin:round; stroke-width:4; stroke-opacity:1; fill:none" points="239.009,611.509 386.48,611.509 "/>
<path clip-path="url(#clip340)" d="M411.058 618.557 L411.058 602.863 L415.318 602.863 L415.318 618.395 Q415.318 622.076 416.753 623.928 Q418.188 625.756 421.058 625.756 Q424.507 625.756 426.498 623.557 Q428.512 621.358 428.512 617.562 L428.512 602.863 L432.771 602.863 L432.771 628.789 L428.512 628.789 L428.512 624.807 Q426.961 627.168 424.901 628.326 Q422.864 629.46 420.156 629.46 Q415.688 629.46 413.373 626.682 Q411.058 623.904 411.058 618.557 M421.776 602.238 L421.776 602.238 Z" fill="#000000" fill-rule="nonzero" fill-opacity="1" /><path clip-path="url(#clip340)" d="M441.151 592.77 L450.966 592.77 L450.966 596.08 L445.41 596.08 L445.41 631.728 L450.966 631.728 L450.966 635.039 L441.151 635.039 L441.151 592.77 Z" fill="#000000" fill-rule="nonzero" fill-opacity="1" /><path clip-path="url(#clip340)" d="M461.452 624.853 L469.091 624.853 L469.091 598.488 L460.78 600.155 L460.78 595.895 L469.044 594.229 L473.72 594.229 L473.72 624.853 L481.359 624.853 L481.359 628.789 L461.452 628.789 L461.452 624.853 Z" fill="#000000" fill-rule="nonzero" fill-opacity="1" /><path clip-path="url(#clip340)" d="M500.803 597.307 Q497.192 597.307 495.364 600.872 Q493.558 604.414 493.558 611.543 Q493.558 618.65 495.364 622.215 Q497.192 625.756 500.803 625.756 Q504.438 625.756 506.243 622.215 Q508.072 618.65 508.072 611.543 Q508.072 604.414 506.243 600.872 Q504.438 597.307 500.803 597.307 M500.803 593.604 Q506.614 593.604 509.669 598.21 Q512.748 602.793 512.748 611.543 Q512.748 620.27 509.669 624.877 Q506.614 629.46 500.803 629.46 Q494.993 629.46 491.915 624.877 Q488.859 620.27 488.859 611.543 Q488.859 602.793 491.915 598.21 Q494.993 593.604 500.803 593.604 Z" fill="#000000" fill-rule="nonzero" fill-opacity="1" /><path clip-path="url(#clip340)" d="M530.317 592.77 L530.317 635.039 L520.502 635.039 L520.502 631.728 L526.035 631.728 L526.035 596.08 L520.502 596.08 L520.502 592.77 L530.317 592.77 Z" fill="#000000" fill-rule="nonzero" fill-opacity="1" /></svg>
