<?xml version="1.0" encoding="utf-8"?>
<svg xmlns="http://www.w3.org/2000/svg" xmlns:xlink="http://www.w3.org/1999/xlink" width="600" height="400" viewBox="0 0 2400 1600">
<defs>
  <clipPath id="clip310">
    <rect x="0" y="0" width="2400" height="1600"/>
  </clipPath>
</defs>
<path clip-path="url(#clip310)" d="M0 1600 L2400 1600 L2400 0 L0 0  Z" fill="#ffffff" fill-rule="evenodd" fill-opacity="1"/>
<defs>
  <clipPath id="clip311">
    <rect x="155" y="47" width="2198" height="1440"/>
  </clipPath>
</defs>
<path clip-path="url(#clip310)" d="M155.927 1486.45 L2352.76 1486.45 L2352.76 47.2441 L155.927 47.2441  Z" fill="#ffffff" fill-rule="evenodd" fill-opacity="1"/>
<polyline clip-path="url(#clip311)" style="stroke:#000000; stroke-linecap:round; stroke-linejoin:round; stroke-width:2; stroke-opacity:0.1; fill:none" points="216.164,1486.45 216.164,47.2441 "/>
<polyline clip-path="url(#clip311)" style="stroke:#000000; stroke-linecap:round; stroke-linejoin:round; stroke-width:2; stroke-opacity:0.1; fill:none" points="700.389,1486.45 700.389,47.2441 "/>
<polyline clip-path="url(#clip311)" style="stroke:#000000; stroke-linecap:round; stroke-linejoin:round; stroke-width:2; stroke-opacity:0.1; fill:none" points="1184.61,1486.45 1184.61,47.2441 "/>
<polyline clip-path="url(#clip311)" style="stroke:#000000; stroke-linecap:round; stroke-linejoin:round; stroke-width:2; stroke-opacity:0.1; fill:none" points="1668.84,1486.45 1668.84,47.2441 "/>
<polyline clip-path="url(#clip311)" style="stroke:#000000; stroke-linecap:round; stroke-linejoin:round; stroke-width:2; stroke-opacity:0.1; fill:none" points="2153.06,1486.45 2153.06,47.2441 "/>
<polyline clip-path="url(#clip311)" style="stroke:#000000; stroke-linecap:round; stroke-linejoin:round; stroke-width:2; stroke-opacity:0.1; fill:none" points="155.927,1445.72 2352.76,1445.72 "/>
<polyline clip-path="url(#clip311)" style="stroke:#000000; stroke-linecap:round; stroke-linejoin:round; stroke-width:2; stroke-opacity:0.1; fill:none" points="155.927,1109.93 2352.76,1109.93 "/>
<polyline clip-path="url(#clip311)" style="stroke:#000000; stroke-linecap:round; stroke-linejoin:round; stroke-width:2; stroke-opacity:0.1; fill:none" points="155.927,774.152 2352.76,774.152 "/>
<polyline clip-path="url(#clip311)" style="stroke:#000000; stroke-linecap:round; stroke-linejoin:round; stroke-width:2; stroke-opacity:0.1; fill:none" points="155.927,438.371 2352.76,438.371 "/>
<polyline clip-path="url(#clip311)" style="stroke:#000000; stroke-linecap:round; stroke-linejoin:round; stroke-width:2; stroke-opacity:0.1; fill:none" points="155.927,102.589 2352.76,102.589 "/>
<polyline clip-path="url(#clip310)" style="stroke:#000000; stroke-linecap:round; stroke-linejoin:round; stroke-width:4; stroke-opacity:1; fill:none" points="155.927,1486.45 2352.76,1486.45 "/>
<polyline clip-path="url(#clip310)" style="stroke:#000000; stroke-linecap:round; stroke-linejoin:round; stroke-width:4; stroke-opacity:1; fill:none" points="216.164,1486.45 216.164,1467.55 "/>
<polyline clip-path="url(#clip310)" style="stroke:#000000; stroke-linecap:round; stroke-linejoin:round; stroke-width:4; stroke-opacity:1; fill:none" points="700.389,1486.45 700.389,1467.55 "/>
<polyline clip-path="url(#clip310)" style="stroke:#000000; stroke-linecap:round; stroke-linejoin:round; stroke-width:4; stroke-opacity:1; fill:none" points="1184.61,1486.45 1184.61,1467.55 "/>
<polyline clip-path="url(#clip310)" style="stroke:#000000; stroke-linecap:round; stroke-linejoin:round; stroke-width:4; stroke-opacity:1; fill:none" points="1668.84,1486.45 1668.84,1467.55 "/>
<polyline clip-path="url(#clip310)" style="stroke:#000000; stroke-linecap:round; stroke-linejoin:round; stroke-width:4; stroke-opacity:1; fill:none" points="2153.06,1486.45 2153.06,1467.55 "/>
<path clip-path="url(#clip310)" d="M216.164 1517.37 Q212.553 1517.37 210.725 1520.93 Q208.919 1524.47 208.919 1531.6 Q208.919 1538.71 210.725 1542.27 Q212.553 1545.82 216.164 1545.82 Q219.799 1545.82 221.604 1542.27 Q223.433 1538.71 223.433 1531.6 Q223.433 1524.47 221.604 1520.93 Q219.799 1517.37 216.164 1517.37 M216.164 1513.66 Q221.975 1513.66 225.03 1518.27 Q228.109 1522.85 228.109 1531.6 Q228.109 1540.33 225.03 1544.94 Q221.975 1549.52 216.164 1549.52 Q210.354 1549.52 207.276 1544.94 Q204.22 1540.33 204.22 1531.6 Q204.22 1522.85 207.276 1518.27 Q210.354 1513.66 216.164 1513.66 Z" fill="#000000" fill-rule="nonzero" fill-opacity="1" /><path clip-path="url(#clip310)" d="M664.081 1544.91 L680.4 1544.91 L680.4 1548.85 L658.456 1548.85 L658.456 1544.91 Q661.118 1542.16 665.701 1537.53 Q670.308 1532.88 671.488 1531.53 Q673.734 1529.01 674.613 1527.27 Q675.516 1525.51 675.516 1523.82 Q675.516 1521.07 673.572 1519.33 Q671.651 1517.6 668.549 1517.6 Q666.35 1517.6 663.896 1518.36 Q661.465 1519.13 658.688 1520.68 L658.688 1515.95 Q661.512 1514.82 663.965 1514.24 Q666.419 1513.66 668.456 1513.66 Q673.826 1513.66 677.021 1516.35 Q680.215 1519.03 680.215 1523.52 Q680.215 1525.65 679.405 1527.57 Q678.618 1529.47 676.512 1532.07 Q675.933 1532.74 672.831 1535.95 Q669.729 1539.15 664.081 1544.91 Z" fill="#000000" fill-rule="nonzero" fill-opacity="1" /><path clip-path="url(#clip310)" d="M690.262 1514.29 L708.618 1514.29 L708.618 1518.22 L694.544 1518.22 L694.544 1526.7 Q695.562 1526.35 696.581 1526.19 Q697.599 1526 698.618 1526 Q704.405 1526 707.785 1529.17 Q711.164 1532.34 711.164 1537.76 Q711.164 1543.34 707.692 1546.44 Q704.22 1549.52 697.9 1549.52 Q695.724 1549.52 693.456 1549.15 Q691.211 1548.78 688.803 1548.04 L688.803 1543.34 Q690.887 1544.47 693.109 1545.03 Q695.331 1545.58 697.808 1545.58 Q701.812 1545.58 704.15 1543.48 Q706.488 1541.37 706.488 1537.76 Q706.488 1534.15 704.15 1532.04 Q701.812 1529.94 697.808 1529.94 Q695.933 1529.94 694.058 1530.35 Q692.206 1530.77 690.262 1531.65 L690.262 1514.29 Z" fill="#000000" fill-rule="nonzero" fill-opacity="1" /><path clip-path="url(#clip310)" d="M730.377 1517.37 Q726.766 1517.37 724.937 1520.93 Q723.132 1524.47 723.132 1531.6 Q723.132 1538.71 724.937 1542.27 Q726.766 1545.82 730.377 1545.82 Q734.011 1545.82 735.817 1542.27 Q737.646 1538.71 737.646 1531.6 Q737.646 1524.47 735.817 1520.93 Q734.011 1517.37 730.377 1517.37 M730.377 1513.66 Q736.187 1513.66 739.243 1518.27 Q742.321 1522.85 742.321 1531.6 Q742.321 1540.33 739.243 1544.94 Q736.187 1549.52 730.377 1549.52 Q724.567 1549.52 721.488 1544.94 Q718.433 1540.33 718.433 1531.6 Q718.433 1522.85 721.488 1518.27 Q724.567 1513.66 730.377 1513.66 Z" fill="#000000" fill-rule="nonzero" fill-opacity="1" /><path clip-path="url(#clip310)" d="M1144.23 1514.29 L1162.59 1514.29 L1162.59 1518.22 L1148.51 1518.22 L1148.51 1526.7 Q1149.53 1526.35 1150.55 1526.19 Q1151.57 1526 1152.59 1526 Q1158.37 1526 1161.75 1529.17 Q1165.13 1532.34 1165.13 1537.76 Q1165.13 1543.34 1161.66 1546.44 Q1158.19 1549.52 1151.87 1549.52 Q1149.69 1549.52 1147.43 1549.15 Q1145.18 1548.78 1142.77 1548.04 L1142.77 1543.34 Q1144.86 1544.47 1147.08 1545.03 Q1149.3 1545.58 1151.78 1545.58 Q1155.78 1545.58 1158.12 1543.48 Q1160.46 1541.37 1160.46 1537.76 Q1160.46 1534.15 1158.12 1532.04 Q1155.78 1529.94 1151.78 1529.94 Q1149.9 1529.94 1148.03 1530.35 Q1146.18 1530.77 1144.23 1531.65 L1144.23 1514.29 Z" fill="#000000" fill-rule="nonzero" fill-opacity="1" /><path clip-path="url(#clip310)" d="M1184.35 1517.37 Q1180.74 1517.37 1178.91 1520.93 Q1177.1 1524.47 1177.1 1531.6 Q1177.1 1538.71 1178.91 1542.27 Q1180.74 1545.82 1184.35 1545.82 Q1187.98 1545.82 1189.79 1542.27 Q1191.62 1538.71 1191.62 1531.6 Q1191.62 1524.47 1189.79 1520.93 Q1187.98 1517.37 1184.35 1517.37 M1184.35 1513.66 Q1190.16 1513.66 1193.21 1518.27 Q1196.29 1522.85 1196.29 1531.6 Q1196.29 1540.33 1193.21 1544.94 Q1190.16 1549.52 1184.35 1549.52 Q1178.54 1549.52 1175.46 1544.94 Q1172.4 1540.33 1172.4 1531.6 Q1172.4 1522.85 1175.46 1518.27 Q1178.54 1513.66 1184.35 1513.66 Z" fill="#000000" fill-rule="nonzero" fill-opacity="1" /><path clip-path="url(#clip310)" d="M1214.51 1517.37 Q1210.9 1517.37 1209.07 1520.93 Q1207.26 1524.47 1207.26 1531.6 Q1207.26 1538.71 1209.07 1542.27 Q1210.9 1545.82 1214.51 1545.82 Q1218.14 1545.82 1219.95 1542.27 Q1221.78 1538.71 1221.78 1531.6 Q1221.78 1524.47 1219.95 1520.93 Q1218.14 1517.37 1214.51 1517.37 M1214.51 1513.66 Q1220.32 1513.66 1223.37 1518.27 Q1226.45 1522.85 1226.45 1531.6 Q1226.45 1540.33 1223.37 1544.94 Q1220.32 1549.52 1214.51 1549.52 Q1208.7 1549.52 1205.62 1544.94 Q1202.56 1540.33 1202.56 1531.6 Q1202.56 1522.85 1205.62 1518.27 Q1208.7 1513.66 1214.51 1513.66 Z" fill="#000000" fill-rule="nonzero" fill-opacity="1" /><path clip-path="url(#clip310)" d="M1627.11 1514.29 L1649.34 1514.29 L1649.34 1516.28 L1636.79 1548.85 L1631.9 1548.85 L1643.71 1518.22 L1627.11 1518.22 L1627.11 1514.29 Z" fill="#000000" fill-rule="nonzero" fill-opacity="1" /><path clip-path="url(#clip310)" d="M1658.5 1514.29 L1676.86 1514.29 L1676.86 1518.22 L1662.78 1518.22 L1662.78 1526.7 Q1663.8 1526.35 1664.82 1526.19 Q1665.84 1526 1666.86 1526 Q1672.65 1526 1676.02 1529.17 Q1679.4 1532.34 1679.4 1537.76 Q1679.4 1543.34 1675.93 1546.44 Q1672.46 1549.52 1666.14 1549.52 Q1663.96 1549.52 1661.7 1549.15 Q1659.45 1548.78 1657.04 1548.04 L1657.04 1543.34 Q1659.13 1544.47 1661.35 1545.03 Q1663.57 1545.58 1666.05 1545.58 Q1670.05 1545.58 1672.39 1543.48 Q1674.73 1541.37 1674.73 1537.76 Q1674.73 1534.15 1672.39 1532.04 Q1670.05 1529.94 1666.05 1529.94 Q1664.17 1529.94 1662.3 1530.35 Q1660.45 1530.77 1658.5 1531.65 L1658.5 1514.29 Z" fill="#000000" fill-rule="nonzero" fill-opacity="1" /><path clip-path="url(#clip310)" d="M1698.62 1517.37 Q1695.01 1517.37 1693.18 1520.93 Q1691.37 1524.47 1691.37 1531.6 Q1691.37 1538.71 1693.18 1542.27 Q1695.01 1545.82 1698.62 1545.82 Q1702.25 1545.82 1704.06 1542.27 Q1705.89 1538.71 1705.89 1531.6 Q1705.89 1524.47 1704.06 1520.93 Q1702.25 1517.37 1698.62 1517.37 M1698.62 1513.66 Q1704.43 1513.66 1707.48 1518.27 Q1710.56 1522.85 1710.56 1531.6 Q1710.56 1540.33 1707.48 1544.94 Q1704.43 1549.52 1698.62 1549.52 Q1692.81 1549.52 1689.73 1544.94 Q1686.67 1540.33 1686.67 1531.6 Q1686.67 1522.85 1689.73 1518.27 Q1692.81 1513.66 1698.62 1513.66 Z" fill="#000000" fill-rule="nonzero" fill-opacity="1" /><path clip-path="url(#clip310)" d="M2097.59 1544.91 L2105.23 1544.91 L2105.23 1518.55 L2096.92 1520.21 L2096.92 1515.95 L2105.18 1514.29 L2109.86 1514.29 L2109.86 1544.91 L2117.49 1544.91 L2117.49 1548.85 L2097.59 1548.85 L2097.59 1544.91 Z" fill="#000000" fill-rule="nonzero" fill-opacity="1" /><path clip-path="url(#clip310)" d="M2136.94 1517.37 Q2133.33 1517.37 2131.5 1520.93 Q2129.69 1524.47 2129.69 1531.6 Q2129.69 1538.71 2131.5 1542.27 Q2133.33 1545.82 2136.94 1545.82 Q2140.57 1545.82 2142.38 1542.27 Q2144.21 1538.71 2144.21 1531.6 Q2144.21 1524.47 2142.38 1520.93 Q2140.57 1517.37 2136.94 1517.37 M2136.94 1513.66 Q2142.75 1513.66 2145.8 1518.27 Q2148.88 1522.85 2148.88 1531.6 Q2148.88 1540.33 2145.8 1544.94 Q2142.75 1549.52 2136.94 1549.52 Q2131.13 1549.52 2128.05 1544.94 Q2124.99 1540.33 2124.99 1531.6 Q2124.99 1522.85 2128.05 1518.27 Q2131.13 1513.66 2136.94 1513.66 Z" fill="#000000" fill-rule="nonzero" fill-opacity="1" /><path clip-path="url(#clip310)" d="M2167.1 1517.37 Q2163.49 1517.37 2161.66 1520.93 Q2159.86 1524.47 2159.86 1531.6 Q2159.86 1538.71 2161.66 1542.27 Q2163.49 1545.82 2167.1 1545.82 Q2170.74 1545.82 2172.54 1542.27 Q2174.37 1538.71 2174.37 1531.6 Q2174.37 1524.47 2172.54 1520.93 Q2170.74 1517.37 2167.1 1517.37 M2167.1 1513.66 Q2172.91 1513.66 2175.97 1518.27 Q2179.05 1522.85 2179.05 1531.6 Q2179.05 1540.33 2175.97 1544.94 Q2172.91 1549.52 2167.1 1549.52 Q2161.29 1549.52 2158.21 1544.94 Q2155.16 1540.33 2155.16 1531.6 Q2155.16 1522.85 2158.21 1518.27 Q2161.29 1513.66 2167.1 1513.66 Z" fill="#000000" fill-rule="nonzero" fill-opacity="1" /><path clip-path="url(#clip310)" d="M2197.26 1517.37 Q2193.65 1517.37 2191.82 1520.93 Q2190.02 1524.47 2190.02 1531.6 Q2190.02 1538.71 2191.82 1542.27 Q2193.65 1545.82 2197.26 1545.82 Q2200.9 1545.82 2202.7 1542.27 Q2204.53 1538.71 2204.53 1531.6 Q2204.53 1524.47 2202.7 1520.93 Q2200.9 1517.37 2197.26 1517.37 M2197.26 1513.66 Q2203.07 1513.66 2206.13 1518.27 Q2209.21 1522.85 2209.21 1531.6 Q2209.21 1540.33 2206.13 1544.94 Q2203.07 1549.52 2197.26 1549.52 Q2191.45 1549.52 2188.37 1544.94 Q2185.32 1540.33 2185.32 1531.6 Q2185.32 1522.85 2188.37 1518.27 Q2191.45 1513.66 2197.26 1513.66 Z" fill="#000000" fill-rule="nonzero" fill-opacity="1" /><polyline clip-path="url(#clip310)" style="stroke:#000000; stroke-linecap:round; stroke-linejoin:round; stroke-width:4; stroke-opacity:1; fill:none" points="155.927,1486.45 155.927,47.2441 "/>
<polyline clip-path="url(#clip310)" style="stroke:#000000; stroke-linecap:round; stroke-linejoin:round; stroke-width:4; stroke-opacity:1; fill:none" points="155.927,1445.72 174.825,1445.72 "/>
<polyline clip-path="url(#clip310)" style="stroke:#000000; stroke-linecap:round; stroke-linejoin:round; stroke-width:4; stroke-opacity:1; fill:none" points="155.927,1109.93 174.825,1109.93 "/>
<polyline clip-path="url(#clip310)" style="stroke:#000000; stroke-linecap:round; stroke-linejoin:round; stroke-width:4; stroke-opacity:1; fill:none" points="155.927,774.152 174.825,774.152 "/>
<polyline clip-path="url(#clip310)" style="stroke:#000000; stroke-linecap:round; stroke-linejoin:round; stroke-width:4; stroke-opacity:1; fill:none" points="155.927,438.371 174.825,438.371 "/>
<polyline clip-path="url(#clip310)" style="stroke:#000000; stroke-linecap:round; stroke-linejoin:round; stroke-width:4; stroke-opacity:1; fill:none" points="155.927,102.589 174.825,102.589 "/>
<path clip-path="url(#clip310)" d="M52.7977 1428.44 L71.1541 1428.44 L71.1541 1432.37 L57.0801 1432.37 L57.0801 1440.84 Q58.0986 1440.5 59.1171 1440.33 Q60.1356 1440.15 61.1541 1440.15 Q66.9411 1440.15 70.3207 1443.32 Q73.7003 1446.49 73.7003 1451.91 Q73.7003 1457.49 70.2281 1460.59 Q66.7559 1463.67 60.4365 1463.67 Q58.2606 1463.67 55.9921 1463.3 Q53.7467 1462.93 51.3393 1462.19 L51.3393 1457.49 Q53.4227 1458.62 55.6449 1459.18 Q57.8671 1459.73 60.3439 1459.73 Q64.3485 1459.73 66.6865 1457.63 Q69.0244 1455.52 69.0244 1451.91 Q69.0244 1448.3 66.6865 1446.19 Q64.3485 1444.08 60.3439 1444.08 Q58.4689 1444.08 56.5939 1444.5 Q54.7421 1444.92 52.7977 1445.8 L52.7977 1428.44 Z" fill="#000000" fill-rule="nonzero" fill-opacity="1" /><path clip-path="url(#clip310)" d="M82.9133 1457.12 L87.7975 1457.12 L87.7975 1463 L82.9133 1463 L82.9133 1457.12 Z" fill="#000000" fill-rule="nonzero" fill-opacity="1" /><path clip-path="url(#clip310)" d="M107.983 1431.51 Q104.371 1431.51 102.543 1435.08 Q100.737 1438.62 100.737 1445.75 Q100.737 1452.86 102.543 1456.42 Q104.371 1459.96 107.983 1459.96 Q111.617 1459.96 113.422 1456.42 Q115.251 1452.86 115.251 1445.75 Q115.251 1438.62 113.422 1435.08 Q111.617 1431.51 107.983 1431.51 M107.983 1427.81 Q113.793 1427.81 116.848 1432.42 Q119.927 1437 119.927 1445.75 Q119.927 1454.48 116.848 1459.08 Q113.793 1463.67 107.983 1463.67 Q102.172 1463.67 99.0937 1459.08 Q96.0382 1454.48 96.0382 1445.75 Q96.0382 1437 99.0937 1432.42 Q102.172 1427.81 107.983 1427.81 Z" fill="#000000" fill-rule="nonzero" fill-opacity="1" /><path clip-path="url(#clip310)" d="M53.793 1092.65 L72.1494 1092.65 L72.1494 1096.59 L58.0754 1096.59 L58.0754 1105.06 Q59.0939 1104.71 60.1124 1104.55 Q61.131 1104.37 62.1495 1104.37 Q67.9365 1104.37 71.3161 1107.54 Q74.6957 1110.71 74.6957 1116.13 Q74.6957 1121.7 71.2235 1124.81 Q67.7513 1127.89 61.4319 1127.89 Q59.256 1127.89 56.9875 1127.51 Q54.7421 1127.14 52.3347 1126.4 L52.3347 1121.7 Q54.418 1122.84 56.6402 1123.39 Q58.8625 1123.95 61.3393 1123.95 Q65.3439 1123.95 67.6819 1121.84 Q70.0198 1119.74 70.0198 1116.13 Q70.0198 1112.52 67.6819 1110.41 Q65.3439 1108.3 61.3393 1108.3 Q59.4643 1108.3 57.5893 1108.72 Q55.7375 1109.14 53.793 1110.02 L53.793 1092.65 Z" fill="#000000" fill-rule="nonzero" fill-opacity="1" /><path clip-path="url(#clip310)" d="M83.9086 1121.33 L88.7928 1121.33 L88.7928 1127.21 L83.9086 1127.21 L83.9086 1121.33 Z" fill="#000000" fill-rule="nonzero" fill-opacity="1" /><path clip-path="url(#clip310)" d="M99.0243 1092.65 L117.381 1092.65 L117.381 1096.59 L103.307 1096.59 L103.307 1105.06 Q104.325 1104.71 105.344 1104.55 Q106.362 1104.37 107.381 1104.37 Q113.168 1104.37 116.547 1107.54 Q119.927 1110.71 119.927 1116.13 Q119.927 1121.7 116.455 1124.81 Q112.983 1127.89 106.663 1127.89 Q104.487 1127.89 102.219 1127.51 Q99.9733 1127.14 97.566 1126.4 L97.566 1121.7 Q99.6493 1122.84 101.871 1123.39 Q104.094 1123.95 106.571 1123.95 Q110.575 1123.95 112.913 1121.84 Q115.251 1119.74 115.251 1116.13 Q115.251 1112.52 112.913 1110.41 Q110.575 1108.3 106.571 1108.3 Q104.696 1108.3 102.821 1108.72 Q100.969 1109.14 99.0243 1110.02 L99.0243 1092.65 Z" fill="#000000" fill-rule="nonzero" fill-opacity="1" /><path clip-path="url(#clip310)" d="M63.33 772.289 Q60.1819 772.289 58.33 774.442 Q56.5014 776.594 56.5014 780.344 Q56.5014 784.071 58.33 786.247 Q60.1819 788.4 63.33 788.4 Q66.4782 788.4 68.3068 786.247 Q70.1587 784.071 70.1587 780.344 Q70.1587 776.594 68.3068 774.442 Q66.4782 772.289 63.33 772.289 M72.6124 757.636 L72.6124 761.895 Q70.8531 761.062 69.0476 760.622 Q67.2652 760.183 65.5059 760.183 Q60.8763 760.183 58.4226 763.307 Q55.9921 766.432 55.6449 772.752 Q57.0106 770.738 59.0708 769.673 Q61.131 768.585 63.6078 768.585 Q68.8161 768.585 71.8253 771.757 Q74.8577 774.905 74.8577 780.344 Q74.8577 785.668 71.7096 788.886 Q68.5615 792.104 63.33 792.104 Q57.3347 792.104 54.1634 787.52 Q50.9921 782.914 50.9921 774.187 Q50.9921 765.993 54.881 761.132 Q58.7699 756.247 65.3208 756.247 Q67.08 756.247 68.8624 756.595 Q70.6679 756.942 72.6124 757.636 Z" fill="#000000" fill-rule="nonzero" fill-opacity="1" /><path clip-path="url(#clip310)" d="M82.9133 785.553 L87.7975 785.553 L87.7975 791.432 L82.9133 791.432 L82.9133 785.553 Z" fill="#000000" fill-rule="nonzero" fill-opacity="1" /><path clip-path="url(#clip310)" d="M107.983 759.951 Q104.371 759.951 102.543 763.516 Q100.737 767.057 100.737 774.187 Q100.737 781.294 102.543 784.858 Q104.371 788.4 107.983 788.4 Q111.617 788.4 113.422 784.858 Q115.251 781.294 115.251 774.187 Q115.251 767.057 113.422 763.516 Q111.617 759.951 107.983 759.951 M107.983 756.247 Q113.793 756.247 116.848 760.854 Q119.927 765.437 119.927 774.187 Q119.927 782.914 116.848 787.52 Q113.793 792.104 107.983 792.104 Q102.172 792.104 99.0937 787.52 Q96.0382 782.914 96.0382 774.187 Q96.0382 765.437 99.0937 760.854 Q102.172 756.247 107.983 756.247 Z" fill="#000000" fill-rule="nonzero" fill-opacity="1" /><path clip-path="url(#clip310)" d="M64.3254 436.507 Q61.1773 436.507 59.3254 438.66 Q57.4967 440.813 57.4967 444.563 Q57.4967 448.29 59.3254 450.466 Q61.1773 452.618 64.3254 452.618 Q67.4735 452.618 69.3022 450.466 Q71.1541 448.29 71.1541 444.563 Q71.1541 440.813 69.3022 438.66 Q67.4735 436.507 64.3254 436.507 M73.6077 421.855 L73.6077 426.114 Q71.8485 425.28 70.0429 424.841 Q68.2606 424.401 66.5013 424.401 Q61.8717 424.401 59.418 427.526 Q56.9875 430.651 56.6402 436.97 Q58.006 434.956 60.0662 433.892 Q62.1263 432.804 64.6032 432.804 Q69.8115 432.804 72.8207 435.975 Q75.8531 439.123 75.8531 444.563 Q75.8531 449.887 72.705 453.104 Q69.5568 456.322 64.3254 456.322 Q58.33 456.322 55.1588 451.739 Q51.9875 447.132 51.9875 438.405 Q51.9875 430.211 55.8764 425.35 Q59.7652 420.466 66.3161 420.466 Q68.0754 420.466 69.8578 420.813 Q71.6633 421.16 73.6077 421.855 Z" fill="#000000" fill-rule="nonzero" fill-opacity="1" /><path clip-path="url(#clip310)" d="M83.9086 449.771 L88.7928 449.771 L88.7928 455.651 L83.9086 455.651 L83.9086 449.771 Z" fill="#000000" fill-rule="nonzero" fill-opacity="1" /><path clip-path="url(#clip310)" d="M99.0243 421.091 L117.381 421.091 L117.381 425.026 L103.307 425.026 L103.307 433.498 Q104.325 433.151 105.344 432.989 Q106.362 432.804 107.381 432.804 Q113.168 432.804 116.547 435.975 Q119.927 439.146 119.927 444.563 Q119.927 450.141 116.455 453.243 Q112.983 456.322 106.663 456.322 Q104.487 456.322 102.219 455.952 Q99.9733 455.581 97.566 454.84 L97.566 450.141 Q99.6493 451.276 101.871 451.831 Q104.094 452.387 106.571 452.387 Q110.575 452.387 112.913 450.28 Q115.251 448.174 115.251 444.563 Q115.251 440.952 112.913 438.845 Q110.575 436.739 106.571 436.739 Q104.696 436.739 102.821 437.155 Q100.969 437.572 99.0243 438.452 L99.0243 421.091 Z" fill="#000000" fill-rule="nonzero" fill-opacity="1" /><path clip-path="url(#clip310)" d="M51.5708 85.309 L73.7929 85.309 L73.7929 87.2997 L61.2467 119.869 L56.3625 119.869 L68.168 89.2442 L51.5708 89.2442 L51.5708 85.309 Z" fill="#000000" fill-rule="nonzero" fill-opacity="1" /><path clip-path="url(#clip310)" d="M82.9133 113.989 L87.7975 113.989 L87.7975 119.869 L82.9133 119.869 L82.9133 113.989 Z" fill="#000000" fill-rule="nonzero" fill-opacity="1" /><path clip-path="url(#clip310)" d="M107.983 88.3877 Q104.371 88.3877 102.543 91.9525 Q100.737 95.4941 100.737 102.624 Q100.737 109.73 102.543 113.295 Q104.371 116.837 107.983 116.837 Q111.617 116.837 113.422 113.295 Q115.251 109.73 115.251 102.624 Q115.251 95.4941 113.422 91.9525 Q111.617 88.3877 107.983 88.3877 M107.983 84.684 Q113.793 84.684 116.848 89.2904 Q119.927 93.8738 119.927 102.624 Q119.927 111.351 116.848 115.957 Q113.793 120.54 107.983 120.54 Q102.172 120.54 99.0937 115.957 Q96.0382 111.351 96.0382 102.624 Q96.0382 93.8738 99.0937 89.2904 Q102.172 84.684 107.983 84.684 Z" fill="#000000" fill-rule="nonzero" fill-opacity="1" /><polyline clip-path="url(#clip311)" style="stroke:#009af9; stroke-linecap:round; stroke-linejoin:round; stroke-width:4; stroke-opacity:1; fill:none" points="218.101,1445.72 220.038,1445.72 221.975,1445.72 223.912,1445.72 225.849,1445.72 227.786,1177.09 229.723,1203.21 231.66,1247.17 233.597,1283.16 235.533,1312.62 237.47,1336.75 239.407,1356.5 241.344,1372.67 243.281,1372.67 245.218,1244.59 247.155,1265.7 249.092,1265.7 251.029,1147.53 252.965,1177.52 254.902,1226.14 256.839,1265.94 258.776,1298.53 260.713,1325.21 262.65,1347.05 264.587,1347.05 266.524,1225.88 268.461,1238.07 270.398,1275.71 272.334,1306.53 274.271,1306.53 276.208,1129.59 278.145,1131.52 280.082,1188.48 282.019,1235.1 283.956,1273.28 285.893,1273.28 287.83,1088.6 289.767,1121.8 291.703,1180.52 293.64,1228.59 295.577,1267.95 297.514,1267.95 299.451,1020.69 301.388,1020.69 303.325,909.252 305.262,918.094 307.199,1013.74 309.136,1013.74 311.072,836.575 313.009,917.256 314.946,917.256 316.883,877.32 318.82,879.175 320.757,981.871 322.694,1065.95 324.631,1134.79 326.568,1134.79 328.504,1041.76 330.441,1064.35 332.378,1064.35 334.315,973.106 336.252,1009.51 338.189,1088.58 340.126,1088.58 342.063,977.933 344,977.933 345.937,867.208 347.873,911.53 349.81,1008.36 351.747,1008.36 353.684,800.021 355.621,832.546 357.558,943.695 359.495,943.695 361.432,831.533 363.369,831.533 365.306,609.905 367.242,609.905 369.179,482.381 371.116,544.911 373.053,544.911 374.99,505.7 376.927,585.253 378.864,585.253 380.801,540.474 382.738,540.474 384.675,534.588 386.611,553.21 388.548,714.994 390.485,714.994 392.422,486.658 394.359,614.685 396.296,614.685 398.233,507.801 400.17,507.801 402.107,511.893 404.043,512.046 405.98,681.292 407.917,819.858 409.854,819.858 411.791,787.144 413.728,802.03 415.665,918.711 417.602,918.711 419.539,723.97 421.476,758.447 423.412,758.447 425.349,638.398 427.286,695.912 429.223,831.828 431.16,943.107 433.097,943.107 435.034,835.701 436.971,918.029 438.908,918.029 440.845,906.231 442.781,906.231 444.718,873.624 446.655,886.625 448.592,987.971 450.529,987.971 452.466,789.529 454.403,789.529 456.34,780.819 458.277,844.138 460.214,953.186 462.15,953.186 464.087,836.005 466.024,836.005 467.961,590.637 469.898,691.644 471.835,691.644 473.772,672.009 475.709,698.645 477.646,834.066 479.582,944.939 481.519,1035.71 483.456,1110.04 485.393,1170.88 487.33,1220.7 489.267,1220.7 491.204,1124.83 493.141,1128.87 495.078,1128.87 497.015,999.454 498.951,999.454 500.888,925.618 502.825,945.404 504.762,1036.09 506.699,1036.09 508.636,919.169 510.573,995.506 512.51,1077.12 514.447,1077.12 516.384,1043.49 518.32,1083.45 520.257,1083.45 522.194,1054.49 524.131,1087.65 526.068,1087.65 528.005,966.95 529.942,966.95 531.879,938.651 533.816,938.651 535.753,837.266 537.689,842.994 539.626,842.994 541.563,710.043 543.5,766.143 545.437,766.143 547.374,727.385 549.311,761.371 551.248,885.422 553.185,885.422 555.121,718.017 557.058,718.561 558.995,850.372 560.932,958.29 562.869,958.29 564.806,866.619 566.743,926.136 568.68,926.136 570.617,842.983 572.554,842.983 574.49,612.287 576.427,638.01 578.364,784.422 580.301,784.422 582.238,761.24 584.175,845.394 586.112,845.394 588.049,806.797 589.986,823.39 591.923,823.39 593.859,782.406 595.796,806.832 597.733,922.642 599.67,1017.46 601.607,1017.46 603.544,847.036 605.481,847.036 607.418,746.498 609.355,746.498 611.292,486.919 613.228,537.005 615.165,537.005 617.102,541.229 619.039,541.229 620.976,374.832 622.913,455.825 624.85,635.262 626.787,635.262 628.724,422.759 630.66,422.759 632.597,358.518 634.534,419.041 636.471,419.041 638.408,303.98 640.345,303.98 642.282,185.058 644.219,311.877 646.156,517.407 648.093,517.407 650.029,508.122 651.966,558.599 653.903,558.599 655.84,372.796 657.777,476.827 659.714,476.827 661.651,398.132 663.588,463.573 665.525,641.605 667.462,641.605 669.398,513.093 671.335,676.601 673.272,676.601 675.209,545.986 677.146,547.991 679.083,710.721 681.02,843.953 682.957,953.034 684.894,953.034 686.831,762.144 688.767,781.208 690.704,901.663 692.641,901.663 694.578,742.701 696.515,821.355 698.452,934.532 700.389,1027.19 702.326,1027.19 704.263,997.966 706.199,1042.6 708.136,1042.6 710.073,980.006 712.01,981.905 713.947,1065.98 715.884,1065.98 717.821,1011.16 719.758,1011.16 721.695,1007.25 723.632,1011.48 725.568,1090.19 727.505,1090.19 729.442,1032.22 731.379,1098.19 733.316,1161.19 735.253,1161.19 737.19,1099.24 739.127,1099.24 741.064,997.164 743.001,1033.25 744.937,1108.02 746.874,1108.02 748.811,1008.13 750.748,1046.78 752.685,1046.78 754.622,977.628 756.559,987.664 758.496,1070.7 760.433,1070.7 762.369,1049.99 764.306,1075.92 766.243,1142.95 768.18,1142.95 770.117,1040.87 772.054,1074.77 773.991,1074.77 775.928,844.006 777.865,844.006 779.802,694.645 781.738,695.955 783.675,831.864 785.612,943.136 787.549,943.136 789.486,867.081 791.423,909.854 793.36,909.854 795.297,848.296 797.234,951.426 799.171,1041.03 801.107,1041.03 803.044,969.183 804.981,984.344 806.918,1067.98 808.855,1136.45 810.792,1192.51 812.729,1192.51 814.666,1139.17 816.603,1139.17 818.54,1112.27 820.476,1113.3 822.413,1173.56 824.35,1222.89 826.287,1263.28 828.224,1263.28 830.161,995.935 832.098,995.935 834.035,868.44 835.972,962.428 837.908,1050.03 839.845,1121.76 841.782,1121.76 843.719,996.37 845.656,1067.4 847.593,1135.98 849.53,1135.98 851.467,1041.18 853.404,1066.08 855.341,1134.89 857.277,1134.89 859.214,938.091 861.151,938.091 863.088,677.512 865.025,796.89 866.962,796.89 868.899,607.517 870.836,663.968 872.773,663.968 874.71,630.172 876.646,630.172 878.583,418.526 880.52,501.249 882.457,672.452 884.394,672.452 886.331,461.666 888.268,574.909 890.205,574.909 892.142,384.301 894.079,384.301 896.015,198.542 897.952,396.185 899.889,396.185 901.826,193.584 903.763,351.737 905.7,550.041 907.637,712.4 909.574,845.327 911.511,954.159 913.447,1043.26 915.384,1116.22 917.321,1116.22 919.258,1095.45 921.195,1111.95 923.132,1172.45 925.069,1172.45 927.006,1082.61 928.943,1082.61 930.88,1019.22 932.816,1024.29 934.753,1024.29 936.69,975.788 938.627,1043.15 940.564,1116.12 942.501,1175.87 944.438,1175.87 946.375,1087.34 948.312,1092.35 950.249,1092.35 952.185,1028.33 954.122,1100.93 956.059,1100.93 957.996,1016.94 959.933,1034.67 961.87,1109.18 963.807,1170.18 965.744,1220.13 967.681,1261.02 969.618,1294.5 971.554,1294.5 973.491,1183.59 975.428,1191.81 977.365,1191.81 979.302,1162.48 981.239,1173.22 983.176,1173.22 985.113,942.42 987.05,967.238 988.986,967.238 990.923,984.955 992.86,987.132 994.797,987.132 996.734,918.833 998.671,941.801 1000.61,1033.15 1002.54,1107.93 1004.48,1169.16 1006.42,1219.29 1008.36,1219.29 1010.29,1027.07 1012.23,1088.36 1014.17,1153.14 1016.1,1206.17 1018.04,1249.6 1019.98,1249.6 1021.91,1216.18 1023.85,1218.74 1025.79,1259.88 1027.72,1259.88 1029.66,1001.86 1031.6,1060.32 1033.54,1130.18 1035.47,1187.38 1037.41,1234.21 1039.35,1272.55 1041.28,1303.94 1043.22,1329.64 1045.16,1350.68 1047.09,1367.91 1049.03,1382.01 1050.97,1393.56 1052.9,1403.01 1054.84,1410.75 1056.78,1410.75 1058.71,1148.09 1060.65,1151.95 1062.59,1205.2 1064.53,1205.2 1066.46,968.577 1068.4,968.577 1070.34,788.873 1072.27,795.747 1074.21,795.747 1076.15,738.422 1078.08,788.826 1080.02,788.826 1081.96,794.468 1083.89,846.064 1085.83,954.762 1087.77,1043.76 1089.71,1116.62 1091.64,1176.27 1093.58,1225.12 1095.52,1265.1 1097.45,1297.84 1099.39,1297.84 1101.33,1104.69 1103.26,1149.86 1105.2,1149.86 1107.14,892.09 1109.07,975.189 1111.01,975.189 1112.95,977.211 1114.88,977.211 1116.82,928.415 1118.76,928.931 1120.7,928.931 1122.63,726.498 1124.57,770.369 1126.51,770.369 1128.44,606.279 1130.38,606.279 1132.32,573.75 1134.25,585.703 1136.19,741.597 1138.13,869.232 1140.06,973.731 1142,1059.29 1143.94,1059.29 1145.88,841.15 1147.81,876.349 1149.75,979.558 1151.69,979.558 1153.62,732.604 1155.56,732.604 1157.5,626.747 1159.43,633.627 1161.37,633.627 1163.31,464.655 1165.24,530.138 1167.18,696.104 1169.12,696.104 1171.05,555.442 1172.99,566.782 1174.93,566.782 1176.87,424.349 1178.8,469.304 1180.74,646.297 1182.68,791.207 1184.61,791.207 1186.55,686.365 1188.49,716.331 1190.42,716.331 1192.36,495.203 1194.3,613.294 1196.23,764.187 1198.17,887.727 1200.11,887.727 1202.05,850.221 1203.98,930.805 1205.92,930.805 1207.86,756.913 1209.79,756.913 1211.73,644.228 1213.67,729.904 1215.6,729.904 1217.54,660.789 1219.48,660.789 1221.41,451.972 1223.35,476.744 1225.29,652.389 1227.22,796.195 1229.16,796.195 1231.1,714.214 1233.04,794.33 1234.97,912.407 1236.91,1009.08 1238.85,1088.23 1240.78,1153.03 1242.72,1206.08 1244.66,1206.08 1246.59,955.724 1248.53,955.724 1250.47,843.973 1252.4,886.66 1254.34,886.66 1256.28,902.251 1258.22,923.464 1260.15,1018.13 1262.09,1095.64 1264.03,1095.64 1265.96,1030.02 1267.9,1103.87 1269.84,1165.84 1271.77,1165.84 1273.71,1065.45 1275.65,1091.43 1277.58,1155.66 1279.52,1155.66 1281.46,1051.47 1283.39,1085.52 1285.33,1150.81 1287.27,1150.81 1289.21,915.434 1291.14,956.394 1293.08,956.394 1295.02,895.477 1296.95,989.4 1298.89,1072.12 1300.83,1072.12 1302.76,973.224 1304.7,1018.35 1306.64,1095.82 1308.57,1159.25 1310.51,1159.25 1312.45,1110.37 1314.39,1152.44 1316.32,1205.61 1318.26,1249.13 1320.2,1284.77 1322.13,1313.94 1324.07,1313.94 1326.01,1067.81 1327.94,1072.62 1329.88,1140.25 1331.82,1195.62 1333.75,1240.96 1335.69,1240.96 1337.63,1194.57 1339.56,1216.89 1341.5,1258.36 1343.44,1258.36 1345.38,1006.48 1347.31,1006.48 1349.25,948.571 1351.19,989.141 1353.12,989.141 1355.06,831.687 1357,831.687 1358.93,805.378 1360.87,824.172 1362.81,824.172 1364.74,761.374 1366.68,761.374 1368.62,566.421 1370.56,633.262 1372.49,633.262 1374.43,700.632 1376.37,714.641 1378.3,714.641 1380.24,626.184 1382.18,729.838 1384.11,729.838 1386.05,674.871 1387.99,674.871 1389.92,531.734 1391.86,622.125 1393.8,771.417 1395.73,771.417 1397.67,694.231 1399.61,773.502 1401.55,895.353 1403.48,995.117 1405.42,1076.8 1407.36,1076.8 1409.29,866.086 1411.23,882.783 1413.17,984.825 1415.1,1068.37 1417.04,1136.77 1418.98,1136.77 1420.91,1046.74 1422.85,1064.41 1424.79,1133.53 1426.73,1133.53 1428.66,870.016 1430.6,870.016 1432.54,603.295 1434.47,603.295 1436.41,613.134 1438.35,680.468 1440.28,680.468 1442.22,510.54 1444.16,510.54 1446.09,356.884 1448.03,356.884 1449.97,178.211 1451.9,202.318 1453.84,202.318 1455.78,228.559 1457.72,368.259 1459.65,368.259 1461.59,328.814 1463.53,507.134 1465.46,677.27 1467.4,816.566 1469.34,816.566 1471.27,715.171 1473.21,715.171 1475.15,593.943 1477.08,619.042 1479.02,619.042 1480.96,573.472 1482.9,573.472 1484.83,473.015 1486.77,473.015 1488.71,441.108 1490.64,441.108 1492.58,311.789 1494.52,317.396 1496.45,521.926 1498.39,521.926 1500.33,569.905 1502.26,626.569 1504.2,775.055 1506.14,896.625 1508.07,996.159 1510.01,1077.65 1511.95,1144.37 1513.89,1144.37 1515.82,1109.78 1517.76,1109.78 1519.7,1001.55 1521.63,1003.68 1523.57,1083.81 1525.51,1149.41 1527.44,1149.41 1529.38,1034.48 1531.32,1085.46 1533.25,1085.46 1535.19,954.454 1537.13,954.454 1539.07,899.41 1541,982.886 1542.94,982.886 1544.88,876.003 1546.81,949.889 1548.75,1039.77 1550.69,1113.35 1552.62,1173.6 1554.56,1222.93 1556.5,1222.93 1558.43,1178.44 1560.37,1202.1 1562.31,1202.1 1564.24,1042.64 1566.18,1046.94 1568.12,1119.23 1570.06,1119.23 1571.99,958.983 1573.93,989.623 1575.87,989.623 1577.8,822.083 1579.74,822.083 1581.68,700.928 1583.61,772.729 1585.55,894.721 1587.49,994.599 1589.42,994.599 1591.36,857.385 1593.3,884.027 1595.24,884.027 1597.17,662.814 1599.11,662.814 1601.05,544.888 1602.98,622.964 1604.92,772.104 1606.86,894.209 1608.79,994.18 1610.73,994.18 1612.67,942.205 1614.6,942.205 1616.54,764.094 1618.48,840.143 1620.42,840.143 1622.35,849.81 1624.29,886.943 1626.23,988.231 1628.16,988.231 1630.1,898.195 1632.04,949.41 1633.97,949.41 1635.91,895.137 1637.85,908.265 1639.78,1005.69 1641.72,1005.69 1643.66,827.439 1645.59,827.439 1647.53,713.969 1649.47,791.172 1651.41,791.172 1653.34,615.171 1655.28,653.636 1657.22,653.636 1659.15,540.988 1661.09,611.434 1663.03,762.663 1664.96,886.48 1666.9,987.852 1668.84,1070.85 1670.77,1070.85 1672.71,820.692 1674.65,907.472 1676.59,907.472 1678.52,868.639 1680.46,871.359 1682.4,975.472 1684.33,1060.71 1686.27,1060.71 1688.21,886.024 1690.14,953.222 1692.08,1042.5 1694.02,1042.5 1695.95,967.486 1697.89,986.66 1699.83,986.66 1701.76,812.393 1703.7,894.534 1705.64,894.534 1707.58,664.825 1709.51,757.806 1711.45,757.806 1713.39,675.382 1715.32,683.036 1717.26,821.286 1719.2,934.476 1721.13,1027.15 1723.07,1103.02 1725.01,1103.02 1726.94,841.045 1728.88,940.858 1730.82,1032.37 1732.76,1107.3 1734.69,1168.64 1736.63,1218.87 1738.57,1259.99 1740.5,1293.66 1742.44,1321.22 1744.38,1343.79 1746.31,1362.26 1748.25,1377.39 1750.19,1389.78 1752.12,1399.92 1754.06,1399.92 1756,1134.25 1757.93,1173.08 1759.87,1222.5 1761.81,1262.97 1763.75,1296.09 1765.68,1323.21 1767.62,1323.21 1769.56,1274.03 1771.49,1280.99 1773.43,1310.85 1775.37,1335.29 1777.3,1335.29 1779.24,1138.73 1781.18,1182.69 1783.11,1230.37 1785.05,1269.4 1786.99,1269.4 1788.93,1163.04 1790.86,1170.68 1792.8,1170.68 1794.74,1000.84 1796.67,1034.15 1798.61,1108.75 1800.55,1169.83 1802.48,1169.83 1804.42,1066.83 1806.36,1095.8 1808.29,1095.8 1810.23,887.325 1812.17,893.641 1814.1,993.715 1816.04,993.715 1817.98,873.966 1819.92,962.022 1821.85,1049.7 1823.79,1121.49 1825.73,1121.49 1827.66,875.89 1829.6,875.89 1831.54,792.569 1833.47,813.505 1835.41,928.105 1837.35,1021.93 1839.28,1098.75 1841.22,1161.64 1843.16,1161.64 1845.1,1055.04 1847.03,1091.28 1848.97,1155.53 1850.91,1208.13 1852.84,1251.2 1854.78,1286.46 1856.72,1315.33 1858.65,1338.96 1860.59,1338.96 1862.53,1272.35 1864.46,1303.05 1866.4,1328.91 1868.34,1350.08 1870.27,1367.42 1872.21,1381.61 1874.15,1393.23 1876.09,1402.75 1878.02,1402.75 1879.96,1272.05 1881.9,1290.46 1883.83,1318.6 1885.77,1318.6 1887.71,1186.43 1889.64,1186.43 1891.58,1075.24 1893.52,1106.98 1895.45,1106.98 1897.39,1000.74 1899.33,1000.74 1901.27,975.509 1903.2,982.295 1905.14,1066.3 1907.08,1066.3 1909.01,972.371 1910.95,1012.01 1912.89,1012.01 1914.82,899.041 1916.76,899.041 1918.7,851.017 1920.63,851.017 1922.57,696.724 1924.51,719.775 1926.44,851.366 1928.38,959.103 1930.32,959.103 1932.26,892.44 1934.19,919.589 1936.13,1014.96 1938.07,1014.96 1940,796.864 1941.94,843.883 1943.88,952.977 1945.81,1042.3 1947.75,1042.3 1949.69,928.655 1951.62,928.655 1953.56,837.965 1955.5,872.933 1957.44,976.761 1959.37,1061.77 1961.31,1131.37 1963.25,1188.35 1965.18,1188.35 1967.12,1161.79 1969.06,1169.72 1970.99,1169.72 1972.93,970.908 1974.87,970.908 1976.8,722.242 1978.74,722.242 1980.68,611.128 1982.61,611.128 1984.55,401.597 1986.49,443.898 1988.43,443.898 1990.36,330.731 1992.3,444.603 1994.24,444.603 1996.17,298.213 1998.11,375.554 2000.05,375.554 2001.98,440.804 2003.92,440.804 2005.86,322.141 2007.79,379.317 2009.73,572.623 2011.67,730.888 2013.61,860.464 2015.54,860.464 2017.48,883.081 2019.42,901.607 2021.35,1000.24 2023.29,1000.24 2025.23,875.511 2027.16,875.511 2029.1,679.865 2031.04,680.375 2032.97,819.108 2034.91,819.108 2036.85,697.74 2038.78,697.74 2040.72,587.302 2042.66,628.64 2044.6,776.751 2046.53,776.751 2048.47,748.028 2050.41,767.438 2052.34,767.438 2054.28,516.035 2056.22,516.035 2058.15,449.6 2060.09,449.6 2062.03,331.814 2063.96,343.687 2065.9,343.687 2067.84,175.725 2069.78,301.411 2071.71,508.838 2073.65,508.838 2075.59,390.601 2077.52,390.601 2079.46,199.514 2081.4,237.113 2083.33,237.113 2085.27,111.917 2087.21,111.917 2089.14,87.9763 2091.08,153.673 2093.02,387.881 2094.95,387.881 2096.89,213.288 2098.83,410.384 2100.77,598.058 2102.7,598.058 2104.64,589.995 2106.58,692.609 2108.51,829.124 2110.45,940.893 2112.39,940.893 2114.32,730.288 2116.26,783.911 2118.2,783.911 2120.13,529.318 2122.07,679.179 2124.01,679.179 2125.95,637.736 2127.88,637.736 2129.82,517.945 2131.76,565.588 2133.69,725.128 2135.63,725.128 2137.57,507.252 2139.5,619.153 2141.44,619.153 2143.38,524.452 2145.31,653.483 2147.25,653.483 2149.19,700.509 2151.12,732.848 2153.06,862.069 2155,967.866 2156.94,1054.49 2158.87,1054.49 2160.81,959.888 2162.75,1003.01 2164.68,1003.01 2166.62,794.897 2168.56,828.511 2170.49,828.511 2172.43,714.127 2174.37,826.756 2176.3,938.954 2178.24,1030.81 2180.18,1106.02 2182.12,1167.6 2184.05,1167.6 2185.99,1064.77 2187.93,1094.01 2189.86,1157.77 2191.8,1157.77 2193.74,966.689 2195.67,966.689 2197.61,842.222 2199.55,922.359 2201.48,922.359 2203.42,709.794 2205.36,770.911 2207.29,893.233 2209.23,993.381 2211.17,1075.38 2213.11,1075.38 2215.04,1036.98 2216.98,1082.89 2218.92,1148.66 2220.85,1202.51 2222.79,1246.6 2224.73,1282.69 2226.66,1312.24 2228.6,1336.44 2230.54,1336.44 2232.47,1270.4 2234.41,1270.4 2236.35,1026.01 2238.29,1026.01 2240.22,893.896 2242.16,913.217 2244.1,1009.74 2246.03,1088.77 2247.97,1153.47 2249.91,1206.45 2251.84,1249.82 2253.78,1285.33 2255.72,1314.4 2257.65,1314.4 2259.59,1055.21 2261.53,1101.26 2263.46,1163.7 2265.4,1214.82 2267.34,1256.68 2269.28,1256.68 2271.21,1195.71 2273.15,1195.71 2275.09,1063.34 2277.02,1119.52 2278.96,1119.52 2280.9,855.617 2282.83,955.48 2284.77,1044.34 2286.71,1044.34 2288.64,929.017 2290.58,1001.68 "/>
<path clip-path="url(#clip310)" d="M229.155 198.898 L501.268 198.898 L501.268 95.2176 L229.155 95.2176  Z" fill="#ffffff" fill-rule="evenodd" fill-opacity="1"/>
<polyline clip-path="url(#clip310)" style="stroke:#000000; stroke-linecap:round; stroke-linejoin:round; stroke-width:4; stroke-opacity:1; fill:none" points="229.155,198.898 501.268,198.898 501.268,95.2176 229.155,95.2176 229.155,198.898 "/>
<polyline clip-path="url(#clip310)" style="stroke:#009af9; stroke-linecap:round; stroke-linejoin:round; stroke-width:4; stroke-opacity:1; fill:none" points="253.564,147.058 400.019,147.058 "/>
<path clip-path="url(#clip310)" d="M438.271 166.745 Q436.465 171.375 434.752 172.787 Q433.039 174.199 430.169 174.199 L426.766 174.199 L426.766 170.634 L429.266 170.634 Q431.025 170.634 431.998 169.8 Q432.97 168.967 434.15 165.865 L434.914 163.921 L424.428 138.412 L428.942 138.412 L437.044 158.689 L445.146 138.412 L449.66 138.412 L438.271 166.745 Z" fill="#000000" fill-rule="nonzero" fill-opacity="1" /><path clip-path="url(#clip310)" d="M456.951 160.402 L464.59 160.402 L464.59 134.037 L456.28 135.703 L456.28 131.444 L464.544 129.778 L469.22 129.778 L469.22 160.402 L476.859 160.402 L476.859 164.338 L456.951 164.338 L456.951 160.402 Z" fill="#000000" fill-rule="nonzero" fill-opacity="1" /></svg>
