<?xml version="1.0" encoding="utf-8"?>
<svg xmlns="http://www.w3.org/2000/svg" xmlns:xlink="http://www.w3.org/1999/xlink" width="600" height="400" viewBox="0 0 2400 1600">
<defs>
  <clipPath id="clip890">
    <rect x="0" y="0" width="2400" height="1600"/>
  </clipPath>
</defs>
<path clip-path="url(#clip890)" d="M0 1600 L2400 1600 L2400 0 L0 0  Z" fill="#ffffff" fill-rule="evenodd" fill-opacity="1"/>
<defs>
  <clipPath id="clip891">
    <rect x="155" y="47" width="2198" height="1377"/>
  </clipPath>
</defs>
<path clip-path="url(#clip890)" d="M155.765 1423.18 L2352.76 1423.18 L2352.76 47.2441 L155.765 47.2441  Z" fill="#ffffff" fill-rule="evenodd" fill-opacity="1"/>
<polyline clip-path="url(#clip891)" style="stroke:#000000; stroke-linecap:round; stroke-linejoin:round; stroke-width:2; stroke-opacity:0.1; fill:none" points="155.765,1423.18 155.765,47.2441 "/>
<polyline clip-path="url(#clip891)" style="stroke:#000000; stroke-linecap:round; stroke-linejoin:round; stroke-width:2; stroke-opacity:0.1; fill:none" points="595.163,1423.18 595.163,47.2441 "/>
<polyline clip-path="url(#clip891)" style="stroke:#000000; stroke-linecap:round; stroke-linejoin:round; stroke-width:2; stroke-opacity:0.1; fill:none" points="1034.56,1423.18 1034.56,47.2441 "/>
<polyline clip-path="url(#clip891)" style="stroke:#000000; stroke-linecap:round; stroke-linejoin:round; stroke-width:2; stroke-opacity:0.1; fill:none" points="1473.96,1423.18 1473.96,47.2441 "/>
<polyline clip-path="url(#clip891)" style="stroke:#000000; stroke-linecap:round; stroke-linejoin:round; stroke-width:2; stroke-opacity:0.1; fill:none" points="1913.36,1423.18 1913.36,47.2441 "/>
<polyline clip-path="url(#clip891)" style="stroke:#000000; stroke-linecap:round; stroke-linejoin:round; stroke-width:2; stroke-opacity:0.1; fill:none" points="2352.76,1423.18 2352.76,47.2441 "/>
<polyline clip-path="url(#clip891)" style="stroke:#000000; stroke-linecap:round; stroke-linejoin:round; stroke-width:2; stroke-opacity:0.1; fill:none" points="155.765,1225.92 2352.76,1225.92 "/>
<polyline clip-path="url(#clip891)" style="stroke:#000000; stroke-linecap:round; stroke-linejoin:round; stroke-width:2; stroke-opacity:0.1; fill:none" points="155.765,962.059 2352.76,962.059 "/>
<polyline clip-path="url(#clip891)" style="stroke:#000000; stroke-linecap:round; stroke-linejoin:round; stroke-width:2; stroke-opacity:0.1; fill:none" points="155.765,698.198 2352.76,698.198 "/>
<polyline clip-path="url(#clip891)" style="stroke:#000000; stroke-linecap:round; stroke-linejoin:round; stroke-width:2; stroke-opacity:0.1; fill:none" points="155.765,434.336 2352.76,434.336 "/>
<polyline clip-path="url(#clip891)" style="stroke:#000000; stroke-linecap:round; stroke-linejoin:round; stroke-width:2; stroke-opacity:0.1; fill:none" points="155.765,170.474 2352.76,170.474 "/>
<polyline clip-path="url(#clip890)" style="stroke:#000000; stroke-linecap:round; stroke-linejoin:round; stroke-width:4; stroke-opacity:1; fill:none" points="155.765,1423.18 2352.76,1423.18 "/>
<polyline clip-path="url(#clip890)" style="stroke:#000000; stroke-linecap:round; stroke-linejoin:round; stroke-width:4; stroke-opacity:1; fill:none" points="155.765,1423.18 155.765,1404.28 "/>
<polyline clip-path="url(#clip890)" style="stroke:#000000; stroke-linecap:round; stroke-linejoin:round; stroke-width:4; stroke-opacity:1; fill:none" points="595.163,1423.18 595.163,1404.28 "/>
<polyline clip-path="url(#clip890)" style="stroke:#000000; stroke-linecap:round; stroke-linejoin:round; stroke-width:4; stroke-opacity:1; fill:none" points="1034.56,1423.18 1034.56,1404.28 "/>
<polyline clip-path="url(#clip890)" style="stroke:#000000; stroke-linecap:round; stroke-linejoin:round; stroke-width:4; stroke-opacity:1; fill:none" points="1473.96,1423.18 1473.96,1404.28 "/>
<polyline clip-path="url(#clip890)" style="stroke:#000000; stroke-linecap:round; stroke-linejoin:round; stroke-width:4; stroke-opacity:1; fill:none" points="1913.36,1423.18 1913.36,1404.28 "/>
<polyline clip-path="url(#clip890)" style="stroke:#000000; stroke-linecap:round; stroke-linejoin:round; stroke-width:4; stroke-opacity:1; fill:none" points="2352.76,1423.18 2352.76,1404.28 "/>
<path clip-path="url(#clip890)" d="M155.765 1454.1 Q152.154 1454.1 150.325 1457.66 Q148.52 1461.2 148.52 1468.33 Q148.52 1475.44 150.325 1479.01 Q152.154 1482.55 155.765 1482.55 Q159.399 1482.55 161.205 1479.01 Q163.033 1475.44 163.033 1468.33 Q163.033 1461.2 161.205 1457.66 Q159.399 1454.1 155.765 1454.1 M155.765 1450.39 Q161.575 1450.39 164.631 1455 Q167.709 1459.58 167.709 1468.33 Q167.709 1477.06 164.631 1481.67 Q161.575 1486.25 155.765 1486.25 Q149.955 1486.25 146.876 1481.67 Q143.821 1477.06 143.821 1468.33 Q143.821 1459.58 146.876 1455 Q149.955 1450.39 155.765 1450.39 Z" fill="#000000" fill-rule="nonzero" fill-opacity="1" /><path clip-path="url(#clip890)" d="M589.816 1481.64 L606.135 1481.64 L606.135 1485.58 L584.191 1485.58 L584.191 1481.64 Q586.853 1478.89 591.436 1474.26 Q596.043 1469.61 597.223 1468.27 Q599.469 1465.74 600.348 1464.01 Q601.251 1462.25 601.251 1460.56 Q601.251 1457.8 599.307 1456.07 Q597.385 1454.33 594.283 1454.33 Q592.084 1454.33 589.631 1455.09 Q587.2 1455.86 584.422 1457.41 L584.422 1452.69 Q587.246 1451.55 589.7 1450.97 Q592.154 1450.39 594.191 1450.39 Q599.561 1450.39 602.756 1453.08 Q605.95 1455.77 605.95 1460.26 Q605.95 1462.39 605.14 1464.31 Q604.353 1466.2 602.246 1468.8 Q601.668 1469.47 598.566 1472.69 Q595.464 1475.88 589.816 1481.64 Z" fill="#000000" fill-rule="nonzero" fill-opacity="1" /><path clip-path="url(#clip890)" d="M1037.57 1455.09 L1025.77 1473.54 L1037.57 1473.54 L1037.57 1455.09 M1036.34 1451.02 L1042.22 1451.02 L1042.22 1473.54 L1047.15 1473.54 L1047.15 1477.43 L1042.22 1477.43 L1042.22 1485.58 L1037.57 1485.58 L1037.57 1477.43 L1021.97 1477.43 L1021.97 1472.92 L1036.34 1451.02 Z" fill="#000000" fill-rule="nonzero" fill-opacity="1" /><path clip-path="url(#clip890)" d="M1474.36 1466.44 Q1471.22 1466.44 1469.36 1468.59 Q1467.54 1470.74 1467.54 1474.49 Q1467.54 1478.22 1469.36 1480.39 Q1471.22 1482.55 1474.36 1482.55 Q1477.51 1482.55 1479.34 1480.39 Q1481.19 1478.22 1481.19 1474.49 Q1481.19 1470.74 1479.34 1468.59 Q1477.51 1466.44 1474.36 1466.44 M1483.65 1451.78 L1483.65 1456.04 Q1481.89 1455.21 1480.08 1454.77 Q1478.3 1454.33 1476.54 1454.33 Q1471.91 1454.33 1469.46 1457.45 Q1467.03 1460.58 1466.68 1466.9 Q1468.05 1464.89 1470.11 1463.82 Q1472.17 1462.73 1474.64 1462.73 Q1479.85 1462.73 1482.86 1465.9 Q1485.89 1469.05 1485.89 1474.49 Q1485.89 1479.82 1482.74 1483.03 Q1479.6 1486.25 1474.36 1486.25 Q1468.37 1486.25 1465.2 1481.67 Q1462.03 1477.06 1462.03 1468.33 Q1462.03 1460.14 1465.92 1455.28 Q1469.8 1450.39 1476.36 1450.39 Q1478.11 1450.39 1479.9 1450.74 Q1481.7 1451.09 1483.65 1451.78 Z" fill="#000000" fill-rule="nonzero" fill-opacity="1" /><path clip-path="url(#clip890)" d="M1913.36 1469.17 Q1910.02 1469.17 1908.1 1470.95 Q1906.2 1472.73 1906.2 1475.86 Q1906.2 1478.98 1908.1 1480.77 Q1910.02 1482.55 1913.36 1482.55 Q1916.69 1482.55 1918.61 1480.77 Q1920.53 1478.96 1920.53 1475.86 Q1920.53 1472.73 1918.61 1470.95 Q1916.71 1469.17 1913.36 1469.17 M1908.68 1467.18 Q1905.67 1466.44 1903.98 1464.38 Q1902.32 1462.32 1902.32 1459.35 Q1902.32 1455.21 1905.26 1452.8 Q1908.22 1450.39 1913.36 1450.39 Q1918.52 1450.39 1921.46 1452.8 Q1924.4 1455.21 1924.4 1459.35 Q1924.4 1462.32 1922.71 1464.38 Q1921.04 1466.44 1918.06 1467.18 Q1921.44 1467.96 1923.31 1470.26 Q1925.21 1472.55 1925.21 1475.86 Q1925.21 1480.88 1922.13 1483.57 Q1919.08 1486.25 1913.36 1486.25 Q1907.64 1486.25 1904.56 1483.57 Q1901.51 1480.88 1901.51 1475.86 Q1901.51 1472.55 1903.4 1470.26 Q1905.3 1467.96 1908.68 1467.18 M1906.97 1459.79 Q1906.97 1462.48 1908.64 1463.98 Q1910.33 1465.49 1913.36 1465.49 Q1916.37 1465.49 1918.06 1463.98 Q1919.77 1462.48 1919.77 1459.79 Q1919.77 1457.11 1918.06 1455.6 Q1916.37 1454.1 1913.36 1454.1 Q1910.33 1454.1 1908.64 1455.6 Q1906.97 1457.11 1906.97 1459.79 Z" fill="#000000" fill-rule="nonzero" fill-opacity="1" /><path clip-path="url(#clip890)" d="M2327.44 1481.64 L2335.08 1481.64 L2335.08 1455.28 L2326.77 1456.95 L2326.77 1452.69 L2335.04 1451.02 L2339.71 1451.02 L2339.71 1481.64 L2347.35 1481.64 L2347.35 1485.58 L2327.44 1485.58 L2327.44 1481.64 Z" fill="#000000" fill-rule="nonzero" fill-opacity="1" /><path clip-path="url(#clip890)" d="M2366.8 1454.1 Q2363.18 1454.1 2361.36 1457.66 Q2359.55 1461.2 2359.55 1468.33 Q2359.55 1475.44 2361.36 1479.01 Q2363.18 1482.55 2366.8 1482.55 Q2370.43 1482.55 2372.23 1479.01 Q2374.06 1475.44 2374.06 1468.33 Q2374.06 1461.2 2372.23 1457.66 Q2370.43 1454.1 2366.8 1454.1 M2366.8 1450.39 Q2372.61 1450.39 2375.66 1455 Q2378.74 1459.58 2378.74 1468.33 Q2378.74 1477.06 2375.66 1481.67 Q2372.61 1486.25 2366.8 1486.25 Q2360.99 1486.25 2357.91 1481.67 Q2354.85 1477.06 2354.85 1468.33 Q2354.85 1459.58 2357.91 1455 Q2360.99 1450.39 2366.8 1450.39 Z" fill="#000000" fill-rule="nonzero" fill-opacity="1" /><path clip-path="url(#clip890)" d="M1253.32 1522.27 L1253.32 1532.4 L1265.38 1532.4 L1265.38 1536.95 L1253.32 1536.95 L1253.32 1556.3 Q1253.32 1560.66 1254.5 1561.9 Q1255.71 1563.14 1259.37 1563.14 L1265.38 1563.14 L1265.38 1568.04 L1259.37 1568.04 Q1252.59 1568.04 1250.01 1565.53 Q1247.43 1562.98 1247.43 1556.3 L1247.43 1536.95 L1243.14 1536.95 L1243.14 1532.4 L1247.43 1532.4 L1247.43 1522.27 L1253.32 1522.27 Z" fill="#000000" fill-rule="nonzero" fill-opacity="1" /><polyline clip-path="url(#clip890)" style="stroke:#000000; stroke-linecap:round; stroke-linejoin:round; stroke-width:4; stroke-opacity:1; fill:none" points="155.765,1423.18 155.765,47.2441 "/>
<polyline clip-path="url(#clip890)" style="stroke:#000000; stroke-linecap:round; stroke-linejoin:round; stroke-width:4; stroke-opacity:1; fill:none" points="155.765,1225.92 174.663,1225.92 "/>
<polyline clip-path="url(#clip890)" style="stroke:#000000; stroke-linecap:round; stroke-linejoin:round; stroke-width:4; stroke-opacity:1; fill:none" points="155.765,962.059 174.663,962.059 "/>
<polyline clip-path="url(#clip890)" style="stroke:#000000; stroke-linecap:round; stroke-linejoin:round; stroke-width:4; stroke-opacity:1; fill:none" points="155.765,698.198 174.663,698.198 "/>
<polyline clip-path="url(#clip890)" style="stroke:#000000; stroke-linecap:round; stroke-linejoin:round; stroke-width:4; stroke-opacity:1; fill:none" points="155.765,434.336 174.663,434.336 "/>
<polyline clip-path="url(#clip890)" style="stroke:#000000; stroke-linecap:round; stroke-linejoin:round; stroke-width:4; stroke-opacity:1; fill:none" points="155.765,170.474 174.663,170.474 "/>
<path clip-path="url(#clip890)" d="M63.5847 1211.72 Q59.9736 1211.72 58.1449 1215.28 Q56.3393 1218.83 56.3393 1225.96 Q56.3393 1233.06 58.1449 1236.63 Q59.9736 1240.17 63.5847 1240.17 Q67.2189 1240.17 69.0244 1236.63 Q70.8531 1233.06 70.8531 1225.96 Q70.8531 1218.83 69.0244 1215.28 Q67.2189 1211.72 63.5847 1211.72 M63.5847 1208.02 Q69.3948 1208.02 72.4503 1212.62 Q75.529 1217.21 75.529 1225.96 Q75.529 1234.68 72.4503 1239.29 Q69.3948 1243.87 63.5847 1243.87 Q57.7745 1243.87 54.6958 1239.29 Q51.6403 1234.68 51.6403 1225.96 Q51.6403 1217.21 54.6958 1212.62 Q57.7745 1208.02 63.5847 1208.02 Z" fill="#000000" fill-rule="nonzero" fill-opacity="1" /><path clip-path="url(#clip890)" d="M83.7466 1237.32 L88.6308 1237.32 L88.6308 1243.2 L83.7466 1243.2 L83.7466 1237.32 Z" fill="#000000" fill-rule="nonzero" fill-opacity="1" /><path clip-path="url(#clip890)" d="M98.8622 1208.64 L117.219 1208.64 L117.219 1212.58 L103.145 1212.58 L103.145 1221.05 Q104.163 1220.7 105.182 1220.54 Q106.2 1220.35 107.219 1220.35 Q113.006 1220.35 116.385 1223.53 Q119.765 1226.7 119.765 1232.11 Q119.765 1237.69 116.293 1240.79 Q112.82 1243.87 106.501 1243.87 Q104.325 1243.87 102.057 1243.5 Q99.8113 1243.13 97.4039 1242.39 L97.4039 1237.69 Q99.4872 1238.83 101.709 1239.38 Q103.932 1239.94 106.408 1239.94 Q110.413 1239.94 112.751 1237.83 Q115.089 1235.72 115.089 1232.11 Q115.089 1228.5 112.751 1226.4 Q110.413 1224.29 106.408 1224.29 Q104.534 1224.29 102.659 1224.71 Q100.807 1225.12 98.8622 1226 L98.8622 1208.64 Z" fill="#000000" fill-rule="nonzero" fill-opacity="1" /><path clip-path="url(#clip890)" d="M53.3995 975.404 L61.0384 975.404 L61.0384 949.039 L52.7282 950.705 L52.7282 946.446 L60.9921 944.779 L65.668 944.779 L65.668 975.404 L73.3068 975.404 L73.3068 979.339 L53.3995 979.339 L53.3995 975.404 Z" fill="#000000" fill-rule="nonzero" fill-opacity="1" /><path clip-path="url(#clip890)" d="M82.7512 973.46 L87.6354 973.46 L87.6354 979.339 L82.7512 979.339 L82.7512 973.46 Z" fill="#000000" fill-rule="nonzero" fill-opacity="1" /><path clip-path="url(#clip890)" d="M107.821 947.858 Q104.209 947.858 102.381 951.423 Q100.575 954.965 100.575 962.094 Q100.575 969.201 102.381 972.765 Q104.209 976.307 107.821 976.307 Q111.455 976.307 113.26 972.765 Q115.089 969.201 115.089 962.094 Q115.089 954.965 113.26 951.423 Q111.455 947.858 107.821 947.858 M107.821 944.154 Q113.631 944.154 116.686 948.761 Q119.765 953.344 119.765 962.094 Q119.765 970.821 116.686 975.427 Q113.631 980.011 107.821 980.011 Q102.01 980.011 98.9317 975.427 Q95.8761 970.821 95.8761 962.094 Q95.8761 953.344 98.9317 948.761 Q102.01 944.154 107.821 944.154 Z" fill="#000000" fill-rule="nonzero" fill-opacity="1" /><path clip-path="url(#clip890)" d="M54.3949 711.543 L62.0337 711.543 L62.0337 685.177 L53.7236 686.844 L53.7236 682.584 L61.9874 680.918 L66.6633 680.918 L66.6633 711.543 L74.3022 711.543 L74.3022 715.478 L54.3949 715.478 L54.3949 711.543 Z" fill="#000000" fill-rule="nonzero" fill-opacity="1" /><path clip-path="url(#clip890)" d="M83.7466 709.598 L88.6308 709.598 L88.6308 715.478 L83.7466 715.478 L83.7466 709.598 Z" fill="#000000" fill-rule="nonzero" fill-opacity="1" /><path clip-path="url(#clip890)" d="M98.8622 680.918 L117.219 680.918 L117.219 684.853 L103.145 684.853 L103.145 693.325 Q104.163 692.978 105.182 692.816 Q106.2 692.631 107.219 692.631 Q113.006 692.631 116.385 695.802 Q119.765 698.973 119.765 704.39 Q119.765 709.969 116.293 713.07 Q112.82 716.149 106.501 716.149 Q104.325 716.149 102.057 715.779 Q99.8113 715.408 97.4039 714.668 L97.4039 709.969 Q99.4872 711.103 101.709 711.658 Q103.932 712.214 106.408 712.214 Q110.413 712.214 112.751 710.107 Q115.089 708.001 115.089 704.39 Q115.089 700.779 112.751 698.672 Q110.413 696.566 106.408 696.566 Q104.534 696.566 102.659 696.982 Q100.807 697.399 98.8622 698.279 L98.8622 680.918 Z" fill="#000000" fill-rule="nonzero" fill-opacity="1" /><path clip-path="url(#clip890)" d="M56.6171 447.681 L72.9365 447.681 L72.9365 451.616 L50.9921 451.616 L50.9921 447.681 Q53.6541 444.926 58.2375 440.297 Q62.8439 435.644 64.0245 434.301 Q66.2698 431.778 67.1494 430.042 Q68.0522 428.283 68.0522 426.593 Q68.0522 423.838 66.1078 422.102 Q64.1865 420.366 61.0847 420.366 Q58.8856 420.366 56.4319 421.13 Q54.0014 421.894 51.2236 423.445 L51.2236 418.723 Q54.0477 417.588 56.5014 417.01 Q58.955 416.431 60.9921 416.431 Q66.3624 416.431 69.5568 419.116 Q72.7513 421.801 72.7513 426.292 Q72.7513 428.422 71.9411 430.343 Q71.1541 432.241 69.0476 434.834 Q68.4689 435.505 65.367 438.723 Q62.2652 441.917 56.6171 447.681 Z" fill="#000000" fill-rule="nonzero" fill-opacity="1" /><path clip-path="url(#clip890)" d="M82.7512 445.736 L87.6354 445.736 L87.6354 451.616 L82.7512 451.616 L82.7512 445.736 Z" fill="#000000" fill-rule="nonzero" fill-opacity="1" /><path clip-path="url(#clip890)" d="M107.821 420.135 Q104.209 420.135 102.381 423.699 Q100.575 427.241 100.575 434.371 Q100.575 441.477 102.381 445.042 Q104.209 448.584 107.821 448.584 Q111.455 448.584 113.26 445.042 Q115.089 441.477 115.089 434.371 Q115.089 427.241 113.26 423.699 Q111.455 420.135 107.821 420.135 M107.821 416.431 Q113.631 416.431 116.686 421.037 Q119.765 425.621 119.765 434.371 Q119.765 443.098 116.686 447.704 Q113.631 452.287 107.821 452.287 Q102.01 452.287 98.9317 447.704 Q95.8761 443.098 95.8761 434.371 Q95.8761 425.621 98.9317 421.037 Q102.01 416.431 107.821 416.431 Z" fill="#000000" fill-rule="nonzero" fill-opacity="1" /><path clip-path="url(#clip890)" d="M57.6125 183.819 L73.9318 183.819 L73.9318 187.754 L51.9875 187.754 L51.9875 183.819 Q54.6495 181.064 59.2328 176.435 Q63.8393 171.782 65.0198 170.44 Q67.2652 167.916 68.1448 166.18 Q69.0476 164.421 69.0476 162.731 Q69.0476 159.977 67.1032 158.241 Q65.1819 156.504 62.08 156.504 Q59.881 156.504 57.4273 157.268 Q54.9967 158.032 52.219 159.583 L52.219 154.861 Q55.043 153.727 57.4967 153.148 Q59.9504 152.569 61.9874 152.569 Q67.3578 152.569 70.5522 155.254 Q73.7466 157.94 73.7466 162.43 Q73.7466 164.56 72.9365 166.481 Q72.1494 168.379 70.0429 170.972 Q69.4642 171.643 66.3624 174.861 Q63.2606 178.055 57.6125 183.819 Z" fill="#000000" fill-rule="nonzero" fill-opacity="1" /><path clip-path="url(#clip890)" d="M83.7466 181.875 L88.6308 181.875 L88.6308 187.754 L83.7466 187.754 L83.7466 181.875 Z" fill="#000000" fill-rule="nonzero" fill-opacity="1" /><path clip-path="url(#clip890)" d="M98.8622 153.194 L117.219 153.194 L117.219 157.129 L103.145 157.129 L103.145 165.602 Q104.163 165.254 105.182 165.092 Q106.2 164.907 107.219 164.907 Q113.006 164.907 116.385 168.078 Q119.765 171.25 119.765 176.666 Q119.765 182.245 116.293 185.347 Q112.82 188.426 106.501 188.426 Q104.325 188.426 102.057 188.055 Q99.8113 187.685 97.4039 186.944 L97.4039 182.245 Q99.4872 183.379 101.709 183.935 Q103.932 184.49 106.408 184.49 Q110.413 184.49 112.751 182.384 Q115.089 180.277 115.089 176.666 Q115.089 173.055 112.751 170.949 Q110.413 168.842 106.408 168.842 Q104.534 168.842 102.659 169.259 Q100.807 169.676 98.8622 170.555 L98.8622 153.194 Z" fill="#000000" fill-rule="nonzero" fill-opacity="1" /><polyline clip-path="url(#clip891)" style="stroke:#009af9; stroke-linecap:round; stroke-linejoin:round; stroke-width:8; stroke-opacity:1; fill:none" points="155.765,1384.24 157.964,1383.18 160.163,1382.1 162.362,1381.02 164.562,1379.93 166.761,1378.82 168.96,1377.71 171.159,1376.58 173.358,1375.44 175.558,1374.29 177.757,1373.13 179.956,1371.95 182.155,1370.77 184.354,1369.57 186.554,1368.36 188.753,1367.14 190.952,1365.91 193.151,1364.66 195.35,1363.4 197.55,1362.13 199.749,1360.84 201.948,1359.55 204.147,1358.24 206.346,1356.91 208.545,1355.58 210.745,1354.23 212.944,1352.86 215.143,1351.49 217.342,1350.09 219.541,1348.69 221.741,1347.27 223.94,1345.84 226.139,1344.39 228.338,1342.93 230.537,1341.45 232.737,1339.96 234.936,1338.45 237.135,1336.93 239.334,1335.39 241.533,1333.83 243.733,1332.27 245.932,1330.68 248.131,1329.08 250.33,1327.46 252.529,1325.83 254.728,1324.18 256.928,1322.52 259.127,1320.83 261.326,1319.13 263.525,1317.42 265.724,1315.68 267.924,1313.93 270.123,1312.16 272.322,1310.37 274.521,1308.57 276.72,1306.75 278.92,1304.91 281.119,1303.05 283.318,1301.17 285.517,1299.27 287.716,1297.35 289.916,1295.42 292.115,1293.46 294.314,1291.49 296.513,1289.49 298.712,1287.48 300.911,1285.44 303.111,1283.39 305.31,1281.31 307.509,1279.21 309.708,1277.09 311.907,1274.95 314.107,1272.79 316.306,1270.61 318.505,1268.4 320.704,1266.18 322.903,1263.93 325.103,1261.66 327.302,1259.36 329.501,1257.04 331.7,1254.7 333.899,1252.34 336.099,1249.95 338.298,1247.53 340.497,1245.1 342.696,1242.64 344.895,1240.15 347.094,1237.64 349.294,1235.1 351.493,1232.54 353.692,1229.95 355.891,1227.34 358.09,1224.7 360.29,1222.03 362.489,1219.34 364.688,1216.62 366.887,1213.87 369.086,1211.09 371.286,1208.29 373.485,1205.46 375.684,1202.6 377.883,1199.71 380.082,1196.79 382.281,1193.84 384.481,1190.86 386.68,1187.86 388.879,1184.82 391.078,1181.75 393.277,1178.65 395.477,1175.52 397.676,1172.36 399.875,1169.17 402.074,1165.94 404.273,1162.68 406.473,1159.39 408.672,1156.07 410.871,1152.71 413.07,1149.32 415.269,1145.9 417.469,1142.44 419.668,1138.94 421.867,1135.41 424.066,1131.85 426.265,1128.25 428.464,1124.61 430.664,1120.93 432.863,1117.22 435.062,1113.48 437.261,1109.69 439.46,1105.87 441.66,1102 443.859,1098.1 446.058,1094.16 448.257,1090.18 450.456,1086.16 452.656,1082.1 454.855,1078 457.054,1073.86 459.253,1069.67 461.452,1065.45 463.652,1061.18 465.851,1056.87 468.05,1052.51 470.249,1048.11 472.448,1043.67 474.647,1039.18 476.847,1034.65 479.046,1030.07 481.245,1025.45 483.444,1020.77 485.643,1016.06 487.843,1011.29 490.042,1006.48 492.241,1001.61 494.44,996.703 496.639,991.742 498.839,986.731 501.038,981.67 503.237,976.558 505.436,971.395 507.635,966.18 509.835,960.912 512.034,955.591 514.233,950.217 516.432,944.789 518.631,939.306 520.83,933.768 523.03,928.174 525.229,922.524 527.428,916.818 529.627,911.053 531.826,905.231 534.026,1194.57 536.225,1191.6 538.424,1188.6 540.623,1185.57 542.822,1182.51 545.022,1179.41 547.221,1176.29 549.42,1173.14 551.619,1169.95 553.818,1166.74 556.018,1163.49 558.217,1160.2 560.416,1156.89 562.615,1153.54 564.814,1150.16 567.013,1146.74 569.213,1143.29 571.412,1139.8 573.611,1136.28 575.81,1132.72 578.009,1129.13 580.209,1125.5 582.408,1121.84 584.607,1118.14 586.806,1114.4 589.005,1110.62 591.205,1106.81 593.404,1102.96 595.603,1099.07 597.802,1095.13 600.001,1091.16 602.201,1087.15 604.4,1083.1 606.599,1079.01 608.798,1074.88 610.997,1070.71 613.196,1066.49 615.396,1062.23 617.595,1057.93 619.794,1053.59 621.993,1049.2 624.192,1044.76 626.392,1040.29 628.591,1035.77 630.79,1031.2 632.989,1026.58 635.188,1021.92 637.388,1017.22 639.587,1012.46 641.786,1007.66 643.985,1002.81 646.184,997.911 648.384,992.963 650.583,987.964 652.782,982.916 654.981,977.817 657.18,972.666 659.379,967.463 661.579,962.209 663.778,956.901 665.977,951.54 668.176,946.125 670.375,940.655 672.575,935.131 674.774,929.551 676.973,923.915 679.172,918.222 681.371,912.472 683.571,906.665 685.77,900.799 687.969,894.874 690.168,888.889 692.367,882.844 694.567,876.738 696.766,870.571 698.965,864.342 701.164,858.051 703.363,851.696 705.562,845.277 707.762,838.793 709.961,832.244 712.16,825.63 714.359,818.949 716.558,812.2 718.758,805.384 720.957,798.499 723.156,791.545 725.355,784.52 727.554,777.425 729.754,770.259 731.953,763.02 734.152,755.709 736.351,748.324 738.55,740.864 740.749,733.33 742.949,725.72 745.148,718.033 747.347,710.268 749.546,702.426 751.745,694.504 753.945,686.503 756.144,678.421 758.343,670.258 760.542,662.013 762.741,653.685 764.941,645.273 767.14,636.777 769.339,628.195 771.538,619.527 773.737,610.772 775.937,1045.86 778.136,1041.4 780.335,1036.88 782.534,1032.33 784.733,1027.73 786.932,1023.08 789.132,1018.38 791.331,1013.64 793.53,1008.85 795.729,1004.01 797.928,999.123 800.128,994.187 802.327,989.201 804.526,984.165 806.725,979.078 808.924,973.941 811.124,968.751 813.323,963.51 815.522,958.216 817.721,952.868 819.92,947.467 822.12,942.012 824.319,936.502 826.518,930.936 828.717,925.315 830.916,919.637 833.115,913.902 835.315,908.109 837.514,902.258 839.713,896.348 841.912,890.379 844.111,884.349 846.311,878.259 848.51,872.108 850.709,865.895 852.908,859.619 855.107,853.28 857.307,846.877 859.506,840.41 861.705,833.877 863.904,827.279 866.103,820.614 868.303,813.882 870.502,807.083 872.701,800.215 874.9,793.278 877.099,786.27 879.298,779.193 881.498,772.044 883.697,764.823 885.896,757.529 888.095,750.162 890.294,742.72 892.494,735.204 894.693,727.612 896.892,719.943 899.091,712.198 901.29,704.374 903.49,696.472 905.689,688.49 907.888,680.428 910.087,672.284 912.286,664.059 914.486,655.751 916.685,647.36 918.884,638.885 921.083,630.324 923.282,621.677 925.481,612.944 927.681,604.122 929.88,595.212 932.079,586.213 934.278,577.122 936.477,567.94 938.677,558.666 940.876,549.299 943.075,539.837 945.274,530.281 947.473,520.628 949.673,510.878 951.872,501.03 954.071,491.083 956.27,481.036 958.469,470.888 960.669,460.637 962.868,450.284 965.067,439.827 967.266,429.264 969.465,418.595 971.664,407.819 973.864,396.935 976.063,385.941 978.262,374.836 980.461,363.62 982.66,352.291 984.86,340.847 987.059,329.289 989.258,317.614 991.457,305.822 993.656,293.911 995.856,281.88 998.055,269.728 1000.25,257.454 1002.45,245.057 1004.65,232.534 1006.85,219.886 1009.05,207.11 1011.25,194.205 1013.45,181.171 1015.65,168.006 1017.85,154.708 1020.05,141.276 1022.25,127.71 1024.45,114.007 1026.64,100.166 1028.84,86.1857 1031.04,780.966 1033.24,773.836 1035.44,766.633 1037.64,759.358 1039.84,752.009 1042.04,744.587 1044.24,737.09 1046.44,729.518 1048.64,721.869 1050.84,714.144 1053.03,706.341 1055.23,698.459 1057.43,690.498 1059.63,682.457 1061.83,674.336 1064.03,666.132 1066.23,657.846 1068.43,649.476 1070.63,641.023 1072.83,632.484 1075.03,623.86 1077.23,615.148 1079.42,606.349 1081.62,597.462 1083.82,588.485 1086.02,579.417 1088.22,570.259 1090.42,561.008 1092.62,551.664 1094.82,542.226 1097.02,532.694 1099.22,523.065 1101.42,513.34 1103.62,503.516 1105.82,493.594 1108.01,483.572 1110.21,473.449 1112.41,976.504 1114.61,971.34 1116.81,966.124 1119.01,960.856 1121.21,955.535 1123.41,950.16 1125.61,944.732 1127.81,939.248 1130.01,933.71 1132.21,928.116 1134.4,922.465 1136.6,916.758 1138.8,1200.39 1141,1197.48 1143.2,1194.53 1145.4,1191.56 1147.6,1188.56 1149.8,1185.53 1152,1182.47 1154.2,1179.38 1156.4,1176.26 1158.6,1173.1 1160.79,1169.92 1162.99,1166.7 1165.19,1163.45 1167.39,1160.17 1169.59,1156.85 1171.79,1153.5 1173.99,1150.12 1176.19,1146.7 1178.39,1143.25 1180.59,1139.76 1182.79,1136.24 1184.99,1132.69 1187.19,1129.09 1189.38,1125.47 1191.58,1121.8 1193.78,1118.1 1195.98,1114.36 1198.18,1110.58 1200.38,1106.77 1202.58,1102.92 1204.78,1099.03 1206.98,1095.09 1209.18,1091.12 1211.38,1087.11 1213.58,1083.06 1215.77,1078.97 1217.97,1074.84 1220.17,1070.66 1222.37,1066.45 1224.57,1062.19 1226.77,1057.89 1228.97,1053.54 1231.17,1049.15 1233.37,1044.72 1235.57,1040.24 1237.77,1035.72 1239.97,1031.15 1242.16,1026.54 1244.36,1021.88 1246.56,1017.17 1248.76,1012.42 1250.96,1007.61 1253.16,1002.76 1255.36,997.862 1257.56,992.912 1259.76,987.913 1261.96,982.864 1264.16,977.764 1266.36,972.613 1268.56,967.41 1270.75,962.154 1272.95,956.846 1275.15,951.484 1277.35,946.069 1279.55,940.599 1281.75,935.074 1283.95,929.494 1286.15,923.857 1288.35,918.164 1290.55,912.413 1292.75,906.604 1294.95,900.737 1297.14,894.811 1299.34,888.826 1301.54,882.78 1303.74,876.674 1305.94,870.506 1308.14,864.275 1310.34,857.983 1312.54,851.627 1314.74,845.207 1316.94,838.722 1319.14,832.172 1321.34,825.556 1323.53,818.874 1325.73,812.125 1327.93,805.307 1330.13,798.421 1332.33,791.466 1334.53,784.44 1336.73,777.345 1338.93,1129.98 1341.13,1126.36 1343.33,1122.7 1345.53,1304.4 1347.73,1302.53 1349.93,1300.65 1352.12,1298.75 1354.32,1296.82 1356.52,1294.88 1358.72,1292.92 1360.92,1290.94 1363.12,1288.94 1365.32,1286.92 1367.52,1284.88 1369.72,1282.82 1371.92,1280.74 1374.12,1278.63 1376.32,1276.51 1378.51,1274.36 1380.71,1272.2 1382.91,1270.01 1385.11,1267.8 1387.31,1265.56 1389.51,1263.31 1391.71,1261.03 1393.91,1258.73 1396.11,1256.4 1398.31,1254.05 1400.51,1251.68 1402.71,1249.29 1404.9,1246.87 1407.1,1244.42 1409.3,1241.96 1411.5,1239.46 1413.7,1236.94 1415.9,1234.4 1418.1,1231.83 1420.3,1229.24 1422.5,1226.62 1424.7,1223.97 1426.9,1221.29 1429.1,1218.59 1431.3,1215.86 1433.49,1213.11 1435.69,1210.33 1437.89,1207.51 1440.09,1204.67 1442.29,1201.81 1444.49,1198.91 1446.69,1195.98 1448.89,1193.03 1451.09,1190.04 1453.29,1187.03 1455.49,1183.98 1457.69,1180.9 1459.88,1177.8 1462.08,1174.66 1464.28,1171.49 1466.48,1168.29 1468.68,1165.05 1470.88,1161.78 1473.08,1324.13 1475.28,1322.47 1477.48,1320.78 1479.68,1319.08 1481.88,1317.37 1484.08,1315.63 1486.27,1313.88 1488.47,1312.11 1490.67,1310.32 1492.87,1308.52 1495.07,1306.69 1497.27,1304.85 1499.47,1302.99 1501.67,1301.11 1503.87,1299.21 1506.07,1297.3 1508.27,1295.36 1510.47,1293.4 1512.67,1291.43 1514.86,1289.43 1517.06,1287.42 1519.26,1285.38 1521.46,1283.33 1523.66,1281.25 1525.86,1279.15 1528.06,1277.03 1530.26,1274.89 1532.46,1272.73 1534.66,1270.55 1536.86,1268.34 1539.06,1266.11 1541.25,1263.86 1543.45,1261.59 1545.65,1259.29 1547.85,1256.98 1550.05,1254.63 1552.25,1252.27 1554.45,1249.88 1556.65,1247.46 1558.85,1245.03 1561.05,1242.56 1563.25,1240.08 1565.45,1237.57 1567.65,1235.03 1569.84,1232.46 1572.04,1229.88 1574.24,1227.26 1576.44,1224.62 1578.64,1221.95 1580.84,1219.26 1583.04,1216.54 1585.24,1213.79 1587.44,1211.01 1589.64,1208.21 1591.84,1205.37 1594.04,1202.51 1596.23,1199.62 1598.43,1196.7 1600.63,1193.76 1602.83,1190.78 1605.03,1187.77 1607.23,1184.73 1609.43,1181.66 1611.63,1178.56 1613.83,1175.43 1616.03,1172.27 1618.23,1169.07 1620.43,1165.85 1622.62,1162.59 1624.82,1159.3 1627.02,1155.97 1629.22,1321.2 1631.42,1319.5 1633.62,1317.79 1635.82,1316.06 1638.02,1314.31 1640.22,1312.55 1642.42,1310.76 1644.62,1308.96 1646.82,1307.14 1649.02,1305.31 1651.21,1303.45 1653.41,1301.58 1655.61,1299.68 1657.81,1297.77 1660.01,1295.84 1662.21,1293.89 1664.41,1291.92 1666.61,1289.93 1668.81,1287.91 1671.01,1285.88 1673.21,1283.83 1675.41,1281.76 1677.6,1279.67 1679.8,1277.55 1682,1275.42 1684.2,1273.26 1686.4,1271.08 1688.6,1268.88 1690.8,1266.66 1693,1264.42 1695.2,1262.15 1697.4,1259.86 1699.6,1257.55 1701.8,1255.21 1703.99,1252.85 1706.19,1250.47 1708.39,1248.06 1710.59,1245.63 1712.79,1243.17 1714.99,1240.69 1717.19,1238.18 1719.39,1235.65 1721.59,1233.1 1723.79,1230.51 1725.99,1227.91 1728.19,1225.27 1730.39,1222.61 1732.58,1219.92 1734.78,1217.21 1736.98,1214.46 1739.18,1211.69 1741.38,1208.9 1743.58,1206.07 1745.78,1203.22 1747.98,1200.33 1750.18,1197.42 1752.38,1194.48 1754.58,1191.51 1756.78,1188.51 1758.97,1185.48 1761.17,1182.42 1763.37,1179.33 1765.57,1176.2 1767.77,1173.05 1769.97,1169.86 1772.17,1166.64 1774.37,1163.39 1776.57,1160.11 1778.77,1156.79 1780.97,1153.44 1783.17,1150.06 1785.36,1146.64 1787.56,1143.19 1789.76,1139.7 1791.96,1136.18 1794.16,1132.62 1796.36,1129.03 1798.56,1125.4 1800.76,1121.74 1802.96,1118.03 1805.16,1114.29 1807.36,1110.51 1809.56,1106.7 1811.76,1102.85 1813.95,1098.95 1816.15,1095.02 1818.35,1091.05 1820.55,1087.04 1822.75,1082.99 1824.95,1078.89 1827.15,1074.76 1829.35,1280.18 1831.55,1278.07 1833.75,1275.94 1835.95,1273.79 1838.15,1271.62 1840.34,1269.43 1842.54,1267.21 1844.74,1264.97 1846.94,1262.71 1849.14,1260.42 1851.34,1258.12 1853.54,1255.79 1855.74,1253.43 1857.94,1251.05 1860.14,1248.65 1862.34,1246.23 1864.54,1243.78 1866.73,1241.3 1868.93,1238.8 1871.13,1236.28 1873.33,1233.73 1875.53,1231.15 1877.73,1228.55 1879.93,1225.92 1882.13,1223.27 1884.33,1220.59 1886.53,1217.88 1888.73,1215.14 1890.93,1212.38 1893.13,1209.59 1895.32,1206.77 1897.52,1203.92 1899.72,1201.05 1901.92,1198.14 1904.12,1195.21 1906.32,1192.24 1908.52,1189.25 1910.72,1186.23 1912.92,1183.17 1915.12,1180.09 1917.32,1176.97 1919.52,1173.83 1921.71,1170.65 1923.91,1167.44 1926.11,1164.19 1928.31,1160.92 1930.51,1157.61 1932.71,1154.27 1934.91,1150.89 1937.11,1147.48 1939.31,1144.04 1941.51,1140.56 1943.71,1137.05 1945.91,1133.5 1948.1,1129.91 1950.3,1126.29 1952.5,1122.64 1954.7,1118.94 1956.9,1115.21 1959.1,1111.44 1961.3,1107.64 1963.5,1103.79 1965.7,1099.91 1967.9,1095.99 1970.1,1092.03 1972.3,1088.02 1974.5,1083.98 1976.69,1079.9 1978.89,1075.78 1981.09,1071.61 1983.29,1067.4 1985.49,1063.16 1987.69,1058.86 1989.89,1054.53 1992.09,1050.15 1994.29,1045.73 1996.49,1041.26 1998.69,1036.75 2000.89,1032.19 2003.08,1027.59 2005.28,1022.94 2007.48,1018.24 2009.68,1013.5 2011.88,1008.71 2014.08,1003.87 2016.28,998.984 2018.48,994.047 2020.68,989.061 2022.88,984.024 2025.08,978.937 2027.28,973.798 2029.47,968.608 2031.67,963.366 2033.87,958.07 2036.07,952.722 2038.27,947.319 2040.47,941.862 2042.67,936.35 2044.87,930.783 2047.07,925.159 2049.27,919.479 2051.47,913.742 2053.67,907.947 2055.87,902.093 2058.06,896.181 2060.26,890.208 2062.46,884.176 2064.66,878.083 2066.86,871.929 2069.06,865.712 2071.26,859.433 2073.46,853.091 2075.66,846.685 2077.86,840.214 2080.06,833.679 2082.26,827.077 2084.45,820.409 2086.65,813.674 2088.85,806.871 2091.05,800 2093.25,793.06 2095.45,786.05 2097.65,778.97 2099.85,771.818 2102.05,764.595 2104.25,757.299 2106.45,749.93 2108.65,742.487 2110.84,734.969 2113.04,727.375 2115.24,719.705 2117.44,711.958 2119.64,704.132 2121.84,696.229 2124.04,688.245 2126.24,680.181 2128.44,672.037 2130.64,663.81 2132.84,655.5 2135.04,647.107 2137.24,638.63 2139.43,630.067 2141.63,621.418 2143.83,612.682 2146.03,603.858 2148.23,594.946 2150.43,585.944 2152.63,576.851 2154.83,567.666 2157.03,558.39 2159.23,549.02 2161.43,539.555 2163.63,529.996 2165.82,520.34 2168.02,510.587 2170.22,500.736 2172.42,490.786 2174.62,480.736 2176.82,470.584 2179.02,460.331 2181.22,969.888 2183.42,964.658 2185.62,959.375 2187.82,954.039 2190.02,948.649 2192.22,943.205 2194.41,937.707 2196.61,932.153 2198.81,926.543 2201.01,920.876 2203.21,915.153 2205.41,909.372 2207.61,903.533 2209.81,897.635 2212.01,891.678 2214.21,885.661 2216.41,879.583 2218.61,873.445 2220.8,867.244 2223,860.981 2225.2,854.656 2227.4,848.266 2229.6,841.812 2231.8,835.293 2234,828.709 2236.2,822.059 2238.4,815.341 2240.6,808.556 2242.8,801.703 2245,794.78 2247.19,787.788 2249.39,780.726 2251.59,773.593 2253.79,766.387 2255.99,759.11 2258.19,751.759 2260.39,744.334 2262.59,1113.31 2264.79,1109.52 2266.99,1105.7 2269.19,1101.83 2271.39,1097.93 2273.59,1093.99 2275.78,1090 2277.98,1085.98 2280.18,1081.92 2282.38,1077.82 2284.58,1073.67 2286.78,1069.49 2288.98,1065.26 2291.18,1060.99 2293.38,1056.67 2295.58,1052.32 2297.78,1047.92 2299.98,1043.47 2302.17,1038.98 2304.37,1034.45 2306.57,1029.86 2308.77,1025.24 2310.97,1020.56 2313.17,1015.84 2315.37,1011.08 2317.57,1006.26 2319.77,1001.4 2321.97,996.483 2324.17,991.52 2326.37,986.507 2328.56,981.444 2330.76,976.33 2332.96,971.165 2335.16,965.947 2337.36,960.677 2339.56,955.354 2341.76,949.977 2343.96,944.547 2346.16,939.061 2348.36,933.521 2350.56,927.925 2352.76,922.272 "/>
<path clip-path="url(#clip890)" d="M1970.73 196.789 L2279.52 196.789 L2279.52 93.1086 L1970.73 93.1086  Z" fill="#ffffff" fill-rule="evenodd" fill-opacity="1"/>
<polyline clip-path="url(#clip890)" style="stroke:#000000; stroke-linecap:round; stroke-linejoin:round; stroke-width:4; stroke-opacity:1; fill:none" points="1970.73,196.789 2279.52,196.789 2279.52,93.1086 1970.73,93.1086 1970.73,196.789 "/>
<polyline clip-path="url(#clip890)" style="stroke:#009af9; stroke-linecap:round; stroke-linejoin:round; stroke-width:8; stroke-opacity:1; fill:none" points="1995.14,144.949 2141.6,144.949 "/>
<path clip-path="url(#clip890)" d="M2166.02 151.997 L2166.02 136.303 L2170.27 136.303 L2170.27 151.835 Q2170.27 155.516 2171.71 157.368 Q2173.14 159.196 2176.02 159.196 Q2179.46 159.196 2181.45 156.997 Q2183.47 154.798 2183.47 151.002 L2183.47 136.303 L2187.73 136.303 L2187.73 162.229 L2183.47 162.229 L2183.47 158.247 Q2181.92 160.608 2179.86 161.766 Q2177.82 162.9 2175.11 162.9 Q2170.64 162.9 2168.33 160.122 Q2166.02 157.344 2166.02 151.997 M2176.73 135.678 L2176.73 135.678 Z" fill="#000000" fill-rule="nonzero" fill-opacity="1" /><path clip-path="url(#clip890)" d="M2196.11 126.21 L2205.92 126.21 L2205.92 129.52 L2200.37 129.52 L2200.37 165.168 L2205.92 165.168 L2205.92 168.479 L2196.11 168.479 L2196.11 126.21 Z" fill="#000000" fill-rule="nonzero" fill-opacity="1" /><path clip-path="url(#clip890)" d="M2216.41 158.293 L2224.05 158.293 L2224.05 131.928 L2215.74 133.595 L2215.74 129.335 L2224 127.669 L2228.68 127.669 L2228.68 158.293 L2236.32 158.293 L2236.32 162.229 L2216.41 162.229 L2216.41 158.293 Z" fill="#000000" fill-rule="nonzero" fill-opacity="1" /><path clip-path="url(#clip890)" d="M2255.11 126.21 L2255.11 168.479 L2245.3 168.479 L2245.3 165.168 L2250.83 165.168 L2250.83 129.52 L2245.3 129.52 L2245.3 126.21 L2255.11 126.21 Z" fill="#000000" fill-rule="nonzero" fill-opacity="1" /></svg>
