<?xml version="1.0" encoding="utf-8"?>
<svg xmlns="http://www.w3.org/2000/svg" xmlns:xlink="http://www.w3.org/1999/xlink" width="600" height="400" viewBox="0 0 2400 1600">
<defs>
  <clipPath id="clip080">
    <rect x="0" y="0" width="2400" height="1600"/>
  </clipPath>
</defs>
<path clip-path="url(#clip080)" d="M0 1600 L2400 1600 L2400 0 L0 0  Z" fill="#ffffff" fill-rule="evenodd" fill-opacity="1"/>
<defs>
  <clipPath id="clip081">
    <rect x="186" y="47" width="2167" height="1377"/>
  </clipPath>
</defs>
<path clip-path="url(#clip080)" d="M186.274 1423.18 L2352.76 1423.18 L2352.76 47.2441 L186.274 47.2441  Z" fill="#ffffff" fill-rule="evenodd" fill-opacity="1"/>
<polyline clip-path="url(#clip081)" style="stroke:#000000; stroke-linecap:round; stroke-linejoin:round; stroke-width:2; stroke-opacity:0.1; fill:none" points="186.274,1423.18 186.274,47.2441 "/>
<polyline clip-path="url(#clip081)" style="stroke:#000000; stroke-linecap:round; stroke-linejoin:round; stroke-width:2; stroke-opacity:0.1; fill:none" points="619.57,1423.18 619.57,47.2441 "/>
<polyline clip-path="url(#clip081)" style="stroke:#000000; stroke-linecap:round; stroke-linejoin:round; stroke-width:2; stroke-opacity:0.1; fill:none" points="1052.87,1423.18 1052.87,47.2441 "/>
<polyline clip-path="url(#clip081)" style="stroke:#000000; stroke-linecap:round; stroke-linejoin:round; stroke-width:2; stroke-opacity:0.1; fill:none" points="1486.16,1423.18 1486.16,47.2441 "/>
<polyline clip-path="url(#clip081)" style="stroke:#000000; stroke-linecap:round; stroke-linejoin:round; stroke-width:2; stroke-opacity:0.1; fill:none" points="1919.46,1423.18 1919.46,47.2441 "/>
<polyline clip-path="url(#clip081)" style="stroke:#000000; stroke-linecap:round; stroke-linejoin:round; stroke-width:2; stroke-opacity:0.1; fill:none" points="2352.76,1423.18 2352.76,47.2441 "/>
<polyline clip-path="url(#clip081)" style="stroke:#000000; stroke-linecap:round; stroke-linejoin:round; stroke-width:2; stroke-opacity:0.1; fill:none" points="186.274,1398.54 2352.76,1398.54 "/>
<polyline clip-path="url(#clip081)" style="stroke:#000000; stroke-linecap:round; stroke-linejoin:round; stroke-width:2; stroke-opacity:0.1; fill:none" points="186.274,1165.1 2352.76,1165.1 "/>
<polyline clip-path="url(#clip081)" style="stroke:#000000; stroke-linecap:round; stroke-linejoin:round; stroke-width:2; stroke-opacity:0.1; fill:none" points="186.274,931.654 2352.76,931.654 "/>
<polyline clip-path="url(#clip081)" style="stroke:#000000; stroke-linecap:round; stroke-linejoin:round; stroke-width:2; stroke-opacity:0.1; fill:none" points="186.274,698.209 2352.76,698.209 "/>
<polyline clip-path="url(#clip081)" style="stroke:#000000; stroke-linecap:round; stroke-linejoin:round; stroke-width:2; stroke-opacity:0.1; fill:none" points="186.274,464.764 2352.76,464.764 "/>
<polyline clip-path="url(#clip081)" style="stroke:#000000; stroke-linecap:round; stroke-linejoin:round; stroke-width:2; stroke-opacity:0.1; fill:none" points="186.274,231.319 2352.76,231.319 "/>
<polyline clip-path="url(#clip080)" style="stroke:#000000; stroke-linecap:round; stroke-linejoin:round; stroke-width:4; stroke-opacity:1; fill:none" points="186.274,1423.18 2352.76,1423.18 "/>
<polyline clip-path="url(#clip080)" style="stroke:#000000; stroke-linecap:round; stroke-linejoin:round; stroke-width:4; stroke-opacity:1; fill:none" points="186.274,1423.18 186.274,1404.28 "/>
<polyline clip-path="url(#clip080)" style="stroke:#000000; stroke-linecap:round; stroke-linejoin:round; stroke-width:4; stroke-opacity:1; fill:none" points="619.57,1423.18 619.57,1404.28 "/>
<polyline clip-path="url(#clip080)" style="stroke:#000000; stroke-linecap:round; stroke-linejoin:round; stroke-width:4; stroke-opacity:1; fill:none" points="1052.87,1423.18 1052.87,1404.28 "/>
<polyline clip-path="url(#clip080)" style="stroke:#000000; stroke-linecap:round; stroke-linejoin:round; stroke-width:4; stroke-opacity:1; fill:none" points="1486.16,1423.18 1486.16,1404.28 "/>
<polyline clip-path="url(#clip080)" style="stroke:#000000; stroke-linecap:round; stroke-linejoin:round; stroke-width:4; stroke-opacity:1; fill:none" points="1919.46,1423.18 1919.46,1404.28 "/>
<polyline clip-path="url(#clip080)" style="stroke:#000000; stroke-linecap:round; stroke-linejoin:round; stroke-width:4; stroke-opacity:1; fill:none" points="2352.76,1423.18 2352.76,1404.28 "/>
<path clip-path="url(#clip080)" d="M186.274 1454.1 Q182.663 1454.1 180.834 1457.66 Q179.029 1461.2 179.029 1468.33 Q179.029 1475.44 180.834 1479.01 Q182.663 1482.55 186.274 1482.55 Q189.908 1482.55 191.714 1479.01 Q193.542 1475.44 193.542 1468.33 Q193.542 1461.2 191.714 1457.66 Q189.908 1454.1 186.274 1454.1 M186.274 1450.39 Q192.084 1450.39 195.14 1455 Q198.218 1459.58 198.218 1468.33 Q198.218 1477.06 195.14 1481.67 Q192.084 1486.25 186.274 1486.25 Q180.464 1486.25 177.385 1481.67 Q174.33 1477.06 174.33 1468.33 Q174.33 1459.58 177.385 1455 Q180.464 1450.39 186.274 1450.39 Z" fill="#000000" fill-rule="nonzero" fill-opacity="1" /><path clip-path="url(#clip080)" d="M614.223 1481.64 L630.543 1481.64 L630.543 1485.58 L608.598 1485.58 L608.598 1481.64 Q611.26 1478.89 615.844 1474.26 Q620.45 1469.61 621.631 1468.27 Q623.876 1465.74 624.756 1464.01 Q625.658 1462.25 625.658 1460.56 Q625.658 1457.8 623.714 1456.07 Q621.793 1454.33 618.691 1454.33 Q616.492 1454.33 614.038 1455.09 Q611.607 1455.86 608.83 1457.41 L608.83 1452.69 Q611.654 1451.55 614.107 1450.97 Q616.561 1450.39 618.598 1450.39 Q623.969 1450.39 627.163 1453.08 Q630.357 1455.77 630.357 1460.26 Q630.357 1462.39 629.547 1464.31 Q628.76 1466.2 626.654 1468.8 Q626.075 1469.47 622.973 1472.69 Q619.871 1475.88 614.223 1481.64 Z" fill="#000000" fill-rule="nonzero" fill-opacity="1" /><path clip-path="url(#clip080)" d="M1055.88 1455.09 L1044.07 1473.54 L1055.88 1473.54 L1055.88 1455.09 M1054.65 1451.02 L1060.53 1451.02 L1060.53 1473.54 L1065.46 1473.54 L1065.46 1477.43 L1060.53 1477.43 L1060.53 1485.58 L1055.88 1485.58 L1055.88 1477.43 L1040.27 1477.43 L1040.27 1472.92 L1054.65 1451.02 Z" fill="#000000" fill-rule="nonzero" fill-opacity="1" /><path clip-path="url(#clip080)" d="M1486.57 1466.44 Q1483.42 1466.44 1481.57 1468.59 Q1479.74 1470.74 1479.74 1474.49 Q1479.74 1478.22 1481.57 1480.39 Q1483.42 1482.55 1486.57 1482.55 Q1489.72 1482.55 1491.55 1480.39 Q1493.4 1478.22 1493.4 1474.49 Q1493.4 1470.74 1491.55 1468.59 Q1489.72 1466.44 1486.57 1466.44 M1495.85 1451.78 L1495.85 1456.04 Q1494.09 1455.21 1492.29 1454.77 Q1490.5 1454.33 1488.74 1454.33 Q1484.11 1454.33 1481.66 1457.45 Q1479.23 1460.58 1478.88 1466.9 Q1480.25 1464.89 1482.31 1463.82 Q1484.37 1462.73 1486.85 1462.73 Q1492.05 1462.73 1495.06 1465.9 Q1498.1 1469.05 1498.1 1474.49 Q1498.1 1479.82 1494.95 1483.03 Q1491.8 1486.25 1486.57 1486.25 Q1480.57 1486.25 1477.4 1481.67 Q1474.23 1477.06 1474.23 1468.33 Q1474.23 1460.14 1478.12 1455.28 Q1482.01 1450.39 1488.56 1450.39 Q1490.32 1450.39 1492.1 1450.74 Q1493.91 1451.09 1495.85 1451.78 Z" fill="#000000" fill-rule="nonzero" fill-opacity="1" /><path clip-path="url(#clip080)" d="M1919.46 1469.17 Q1916.13 1469.17 1914.2 1470.95 Q1912.31 1472.73 1912.31 1475.86 Q1912.31 1478.98 1914.2 1480.77 Q1916.13 1482.55 1919.46 1482.55 Q1922.79 1482.55 1924.71 1480.77 Q1926.64 1478.96 1926.64 1475.86 Q1926.64 1472.73 1924.71 1470.95 Q1922.82 1469.17 1919.46 1469.17 M1914.78 1467.18 Q1911.77 1466.44 1910.08 1464.38 Q1908.42 1462.32 1908.42 1459.35 Q1908.42 1455.21 1911.36 1452.8 Q1914.32 1450.39 1919.46 1450.39 Q1924.62 1450.39 1927.56 1452.8 Q1930.5 1455.21 1930.5 1459.35 Q1930.5 1462.32 1928.81 1464.38 Q1927.14 1466.44 1924.16 1467.18 Q1927.54 1467.96 1929.41 1470.26 Q1931.31 1472.55 1931.31 1475.86 Q1931.31 1480.88 1928.23 1483.57 Q1925.18 1486.25 1919.46 1486.25 Q1913.74 1486.25 1910.66 1483.57 Q1907.61 1480.88 1907.61 1475.86 Q1907.61 1472.55 1909.51 1470.26 Q1911.4 1467.96 1914.78 1467.18 M1913.07 1459.79 Q1913.07 1462.48 1914.74 1463.98 Q1916.43 1465.49 1919.46 1465.49 Q1922.47 1465.49 1924.16 1463.98 Q1925.87 1462.48 1925.87 1459.79 Q1925.87 1457.11 1924.16 1455.6 Q1922.47 1454.1 1919.46 1454.1 Q1916.43 1454.1 1914.74 1455.6 Q1913.07 1457.11 1913.07 1459.79 Z" fill="#000000" fill-rule="nonzero" fill-opacity="1" /><path clip-path="url(#clip080)" d="M2327.44 1481.64 L2335.08 1481.64 L2335.08 1455.28 L2326.77 1456.95 L2326.77 1452.69 L2335.04 1451.02 L2339.71 1451.02 L2339.71 1481.64 L2347.35 1481.64 L2347.35 1485.58 L2327.44 1485.58 L2327.44 1481.64 Z" fill="#000000" fill-rule="nonzero" fill-opacity="1" /><path clip-path="url(#clip080)" d="M2366.8 1454.1 Q2363.18 1454.1 2361.36 1457.66 Q2359.55 1461.2 2359.55 1468.33 Q2359.55 1475.44 2361.36 1479.01 Q2363.18 1482.55 2366.8 1482.55 Q2370.43 1482.55 2372.23 1479.01 Q2374.06 1475.44 2374.06 1468.33 Q2374.06 1461.2 2372.23 1457.66 Q2370.43 1454.1 2366.8 1454.1 M2366.8 1450.39 Q2372.61 1450.39 2375.66 1455 Q2378.74 1459.58 2378.74 1468.33 Q2378.74 1477.06 2375.66 1481.67 Q2372.61 1486.25 2366.8 1486.25 Q2360.99 1486.25 2357.91 1481.67 Q2354.85 1477.06 2354.85 1468.33 Q2354.85 1459.58 2357.91 1455 Q2360.99 1450.39 2366.8 1450.39 Z" fill="#000000" fill-rule="nonzero" fill-opacity="1" /><path clip-path="url(#clip080)" d="M1268.58 1522.27 L1268.58 1532.4 L1280.64 1532.4 L1280.64 1536.95 L1268.58 1536.95 L1268.58 1556.3 Q1268.58 1560.66 1269.75 1561.9 Q1270.96 1563.14 1274.62 1563.14 L1280.64 1563.14 L1280.64 1568.04 L1274.62 1568.04 Q1267.84 1568.04 1265.27 1565.53 Q1262.69 1562.98 1262.69 1556.3 L1262.69 1536.95 L1258.39 1536.95 L1258.39 1532.4 L1262.69 1532.4 L1262.69 1522.27 L1268.58 1522.27 Z" fill="#000000" fill-rule="nonzero" fill-opacity="1" /><polyline clip-path="url(#clip080)" style="stroke:#000000; stroke-linecap:round; stroke-linejoin:round; stroke-width:4; stroke-opacity:1; fill:none" points="186.274,1423.18 186.274,47.2441 "/>
<polyline clip-path="url(#clip080)" style="stroke:#000000; stroke-linecap:round; stroke-linejoin:round; stroke-width:4; stroke-opacity:1; fill:none" points="186.274,1398.54 205.172,1398.54 "/>
<polyline clip-path="url(#clip080)" style="stroke:#000000; stroke-linecap:round; stroke-linejoin:round; stroke-width:4; stroke-opacity:1; fill:none" points="186.274,1165.1 205.172,1165.1 "/>
<polyline clip-path="url(#clip080)" style="stroke:#000000; stroke-linecap:round; stroke-linejoin:round; stroke-width:4; stroke-opacity:1; fill:none" points="186.274,931.654 205.172,931.654 "/>
<polyline clip-path="url(#clip080)" style="stroke:#000000; stroke-linecap:round; stroke-linejoin:round; stroke-width:4; stroke-opacity:1; fill:none" points="186.274,698.209 205.172,698.209 "/>
<polyline clip-path="url(#clip080)" style="stroke:#000000; stroke-linecap:round; stroke-linejoin:round; stroke-width:4; stroke-opacity:1; fill:none" points="186.274,464.764 205.172,464.764 "/>
<polyline clip-path="url(#clip080)" style="stroke:#000000; stroke-linecap:round; stroke-linejoin:round; stroke-width:4; stroke-opacity:1; fill:none" points="186.274,231.319 205.172,231.319 "/>
<path clip-path="url(#clip080)" d="M62.9365 1384.34 Q59.3254 1384.34 57.4967 1387.91 Q55.6912 1391.45 55.6912 1398.58 Q55.6912 1405.69 57.4967 1409.25 Q59.3254 1412.79 62.9365 1412.79 Q66.5707 1412.79 68.3763 1409.25 Q70.205 1405.69 70.205 1398.58 Q70.205 1391.45 68.3763 1387.91 Q66.5707 1384.34 62.9365 1384.34 M62.9365 1380.64 Q68.7467 1380.64 71.8022 1385.25 Q74.8809 1389.83 74.8809 1398.58 Q74.8809 1407.31 71.8022 1411.91 Q68.7467 1416.5 62.9365 1416.5 Q57.1264 1416.5 54.0477 1411.91 Q50.9921 1407.31 50.9921 1398.58 Q50.9921 1389.83 54.0477 1385.25 Q57.1264 1380.64 62.9365 1380.64 Z" fill="#000000" fill-rule="nonzero" fill-opacity="1" /><path clip-path="url(#clip080)" d="M83.0984 1409.95 L87.9827 1409.95 L87.9827 1415.82 L83.0984 1415.82 L83.0984 1409.95 Z" fill="#000000" fill-rule="nonzero" fill-opacity="1" /><path clip-path="url(#clip080)" d="M108.168 1384.34 Q104.557 1384.34 102.728 1387.91 Q100.922 1391.45 100.922 1398.58 Q100.922 1405.69 102.728 1409.25 Q104.557 1412.79 108.168 1412.79 Q111.802 1412.79 113.608 1409.25 Q115.436 1405.69 115.436 1398.58 Q115.436 1391.45 113.608 1387.91 Q111.802 1384.34 108.168 1384.34 M108.168 1380.64 Q113.978 1380.64 117.033 1385.25 Q120.112 1389.83 120.112 1398.58 Q120.112 1407.31 117.033 1411.91 Q113.978 1416.5 108.168 1416.5 Q102.358 1416.5 99.2789 1411.91 Q96.2234 1407.31 96.2234 1398.58 Q96.2234 1389.83 99.2789 1385.25 Q102.358 1380.64 108.168 1380.64 Z" fill="#000000" fill-rule="nonzero" fill-opacity="1" /><path clip-path="url(#clip080)" d="M138.33 1384.34 Q134.719 1384.34 132.89 1387.91 Q131.084 1391.45 131.084 1398.58 Q131.084 1405.69 132.89 1409.25 Q134.719 1412.79 138.33 1412.79 Q141.964 1412.79 143.769 1409.25 Q145.598 1405.69 145.598 1398.58 Q145.598 1391.45 143.769 1387.91 Q141.964 1384.34 138.33 1384.34 M138.33 1380.64 Q144.14 1380.64 147.195 1385.25 Q150.274 1389.83 150.274 1398.58 Q150.274 1407.31 147.195 1411.91 Q144.14 1416.5 138.33 1416.5 Q132.519 1416.5 129.441 1411.91 Q126.385 1407.31 126.385 1398.58 Q126.385 1389.83 129.441 1385.25 Q132.519 1380.64 138.33 1380.64 Z" fill="#000000" fill-rule="nonzero" fill-opacity="1" /><path clip-path="url(#clip080)" d="M63.9319 1150.9 Q60.3208 1150.9 58.4921 1154.46 Q56.6865 1158 56.6865 1165.13 Q56.6865 1172.24 58.4921 1175.81 Q60.3208 1179.35 63.9319 1179.35 Q67.5661 1179.35 69.3717 1175.81 Q71.2004 1172.24 71.2004 1165.13 Q71.2004 1158 69.3717 1154.46 Q67.5661 1150.9 63.9319 1150.9 M63.9319 1147.19 Q69.742 1147.19 72.7976 1151.8 Q75.8763 1156.38 75.8763 1165.13 Q75.8763 1173.86 72.7976 1178.47 Q69.742 1183.05 63.9319 1183.05 Q58.1217 1183.05 55.043 1178.47 Q51.9875 1173.86 51.9875 1165.13 Q51.9875 1156.38 55.043 1151.8 Q58.1217 1147.19 63.9319 1147.19 Z" fill="#000000" fill-rule="nonzero" fill-opacity="1" /><path clip-path="url(#clip080)" d="M84.0938 1176.5 L88.978 1176.5 L88.978 1182.38 L84.0938 1182.38 L84.0938 1176.5 Z" fill="#000000" fill-rule="nonzero" fill-opacity="1" /><path clip-path="url(#clip080)" d="M109.163 1150.9 Q105.552 1150.9 103.723 1154.46 Q101.918 1158 101.918 1165.13 Q101.918 1172.24 103.723 1175.81 Q105.552 1179.35 109.163 1179.35 Q112.797 1179.35 114.603 1175.81 Q116.432 1172.24 116.432 1165.13 Q116.432 1158 114.603 1154.46 Q112.797 1150.9 109.163 1150.9 M109.163 1147.19 Q114.973 1147.19 118.029 1151.8 Q121.107 1156.38 121.107 1165.13 Q121.107 1173.86 118.029 1178.47 Q114.973 1183.05 109.163 1183.05 Q103.353 1183.05 100.274 1178.47 Q97.2187 1173.86 97.2187 1165.13 Q97.2187 1156.38 100.274 1151.8 Q103.353 1147.19 109.163 1147.19 Z" fill="#000000" fill-rule="nonzero" fill-opacity="1" /><path clip-path="url(#clip080)" d="M129.371 1147.82 L147.728 1147.82 L147.728 1151.75 L133.654 1151.75 L133.654 1160.23 Q134.672 1159.88 135.691 1159.72 Q136.709 1159.53 137.728 1159.53 Q143.515 1159.53 146.894 1162.7 Q150.274 1165.88 150.274 1171.29 Q150.274 1176.87 146.802 1179.97 Q143.33 1183.05 137.01 1183.05 Q134.834 1183.05 132.566 1182.68 Q130.32 1182.31 127.913 1181.57 L127.913 1176.87 Q129.996 1178 132.219 1178.56 Q134.441 1179.12 136.918 1179.12 Q140.922 1179.12 143.26 1177.01 Q145.598 1174.9 145.598 1171.29 Q145.598 1167.68 143.26 1165.57 Q140.922 1163.47 136.918 1163.47 Q135.043 1163.47 133.168 1163.88 Q131.316 1164.3 129.371 1165.18 L129.371 1147.82 Z" fill="#000000" fill-rule="nonzero" fill-opacity="1" /><path clip-path="url(#clip080)" d="M62.9365 917.453 Q59.3254 917.453 57.4967 921.018 Q55.6912 924.56 55.6912 931.689 Q55.6912 938.796 57.4967 942.36 Q59.3254 945.902 62.9365 945.902 Q66.5707 945.902 68.3763 942.36 Q70.205 938.796 70.205 931.689 Q70.205 924.56 68.3763 921.018 Q66.5707 917.453 62.9365 917.453 M62.9365 913.749 Q68.7467 913.749 71.8022 918.356 Q74.8809 922.939 74.8809 931.689 Q74.8809 940.416 71.8022 945.022 Q68.7467 949.606 62.9365 949.606 Q57.1264 949.606 54.0477 945.022 Q50.9921 940.416 50.9921 931.689 Q50.9921 922.939 54.0477 918.356 Q57.1264 913.749 62.9365 913.749 Z" fill="#000000" fill-rule="nonzero" fill-opacity="1" /><path clip-path="url(#clip080)" d="M83.0984 943.055 L87.9827 943.055 L87.9827 948.934 L83.0984 948.934 L83.0984 943.055 Z" fill="#000000" fill-rule="nonzero" fill-opacity="1" /><path clip-path="url(#clip080)" d="M98.978 944.999 L106.617 944.999 L106.617 918.634 L98.3067 920.3 L98.3067 916.041 L106.571 914.374 L111.246 914.374 L111.246 944.999 L118.885 944.999 L118.885 948.934 L98.978 948.934 L98.978 944.999 Z" fill="#000000" fill-rule="nonzero" fill-opacity="1" /><path clip-path="url(#clip080)" d="M138.33 917.453 Q134.719 917.453 132.89 921.018 Q131.084 924.56 131.084 931.689 Q131.084 938.796 132.89 942.36 Q134.719 945.902 138.33 945.902 Q141.964 945.902 143.769 942.36 Q145.598 938.796 145.598 931.689 Q145.598 924.56 143.769 921.018 Q141.964 917.453 138.33 917.453 M138.33 913.749 Q144.14 913.749 147.195 918.356 Q150.274 922.939 150.274 931.689 Q150.274 940.416 147.195 945.022 Q144.14 949.606 138.33 949.606 Q132.519 949.606 129.441 945.022 Q126.385 940.416 126.385 931.689 Q126.385 922.939 129.441 918.356 Q132.519 913.749 138.33 913.749 Z" fill="#000000" fill-rule="nonzero" fill-opacity="1" /><path clip-path="url(#clip080)" d="M63.9319 684.008 Q60.3208 684.008 58.4921 687.573 Q56.6865 691.115 56.6865 698.244 Q56.6865 705.351 58.4921 708.915 Q60.3208 712.457 63.9319 712.457 Q67.5661 712.457 69.3717 708.915 Q71.2004 705.351 71.2004 698.244 Q71.2004 691.115 69.3717 687.573 Q67.5661 684.008 63.9319 684.008 M63.9319 680.304 Q69.742 680.304 72.7976 684.911 Q75.8763 689.494 75.8763 698.244 Q75.8763 706.971 72.7976 711.577 Q69.742 716.161 63.9319 716.161 Q58.1217 716.161 55.043 711.577 Q51.9875 706.971 51.9875 698.244 Q51.9875 689.494 55.043 684.911 Q58.1217 680.304 63.9319 680.304 Z" fill="#000000" fill-rule="nonzero" fill-opacity="1" /><path clip-path="url(#clip080)" d="M84.0938 709.61 L88.978 709.61 L88.978 715.489 L84.0938 715.489 L84.0938 709.61 Z" fill="#000000" fill-rule="nonzero" fill-opacity="1" /><path clip-path="url(#clip080)" d="M99.9733 711.554 L107.612 711.554 L107.612 685.189 L99.3021 686.855 L99.3021 682.596 L107.566 680.929 L112.242 680.929 L112.242 711.554 L119.881 711.554 L119.881 715.489 L99.9733 715.489 L99.9733 711.554 Z" fill="#000000" fill-rule="nonzero" fill-opacity="1" /><path clip-path="url(#clip080)" d="M129.371 680.929 L147.728 680.929 L147.728 684.865 L133.654 684.865 L133.654 693.337 Q134.672 692.99 135.691 692.827 Q136.709 692.642 137.728 692.642 Q143.515 692.642 146.894 695.814 Q150.274 698.985 150.274 704.402 Q150.274 709.98 146.802 713.082 Q143.33 716.161 137.01 716.161 Q134.834 716.161 132.566 715.79 Q130.32 715.42 127.913 714.679 L127.913 709.98 Q129.996 711.114 132.219 711.67 Q134.441 712.226 136.918 712.226 Q140.922 712.226 143.26 710.119 Q145.598 708.013 145.598 704.402 Q145.598 700.79 143.26 698.684 Q140.922 696.577 136.918 696.577 Q135.043 696.577 133.168 696.994 Q131.316 697.411 129.371 698.29 L129.371 680.929 Z" fill="#000000" fill-rule="nonzero" fill-opacity="1" /><path clip-path="url(#clip080)" d="M62.9365 450.563 Q59.3254 450.563 57.4967 454.128 Q55.6912 457.669 55.6912 464.799 Q55.6912 471.905 57.4967 475.47 Q59.3254 479.012 62.9365 479.012 Q66.5707 479.012 68.3763 475.47 Q70.205 471.905 70.205 464.799 Q70.205 457.669 68.3763 454.128 Q66.5707 450.563 62.9365 450.563 M62.9365 446.859 Q68.7467 446.859 71.8022 451.466 Q74.8809 456.049 74.8809 464.799 Q74.8809 473.526 71.8022 478.132 Q68.7467 482.716 62.9365 482.716 Q57.1264 482.716 54.0477 478.132 Q50.9921 473.526 50.9921 464.799 Q50.9921 456.049 54.0477 451.466 Q57.1264 446.859 62.9365 446.859 Z" fill="#000000" fill-rule="nonzero" fill-opacity="1" /><path clip-path="url(#clip080)" d="M83.0984 476.165 L87.9827 476.165 L87.9827 482.044 L83.0984 482.044 L83.0984 476.165 Z" fill="#000000" fill-rule="nonzero" fill-opacity="1" /><path clip-path="url(#clip080)" d="M102.196 478.109 L118.515 478.109 L118.515 482.044 L96.5706 482.044 L96.5706 478.109 Q99.2326 475.355 103.816 470.725 Q108.422 466.072 109.603 464.73 Q111.848 462.206 112.728 460.47 Q113.631 458.711 113.631 457.021 Q113.631 454.267 111.686 452.531 Q109.765 450.794 106.663 450.794 Q104.464 450.794 102.01 451.558 Q99.5798 452.322 96.8021 453.873 L96.8021 449.151 Q99.6261 448.017 102.08 447.438 Q104.534 446.859 106.571 446.859 Q111.941 446.859 115.135 449.545 Q118.33 452.23 118.33 456.72 Q118.33 458.85 117.52 460.771 Q116.733 462.669 114.626 465.262 Q114.047 465.933 110.946 469.151 Q107.844 472.345 102.196 478.109 Z" fill="#000000" fill-rule="nonzero" fill-opacity="1" /><path clip-path="url(#clip080)" d="M138.33 450.563 Q134.719 450.563 132.89 454.128 Q131.084 457.669 131.084 464.799 Q131.084 471.905 132.89 475.47 Q134.719 479.012 138.33 479.012 Q141.964 479.012 143.769 475.47 Q145.598 471.905 145.598 464.799 Q145.598 457.669 143.769 454.128 Q141.964 450.563 138.33 450.563 M138.33 446.859 Q144.14 446.859 147.195 451.466 Q150.274 456.049 150.274 464.799 Q150.274 473.526 147.195 478.132 Q144.14 482.716 138.33 482.716 Q132.519 482.716 129.441 478.132 Q126.385 473.526 126.385 464.799 Q126.385 456.049 129.441 451.466 Q132.519 446.859 138.33 446.859 Z" fill="#000000" fill-rule="nonzero" fill-opacity="1" /><path clip-path="url(#clip080)" d="M63.9319 217.118 Q60.3208 217.118 58.4921 220.683 Q56.6865 224.224 56.6865 231.354 Q56.6865 238.46 58.4921 242.025 Q60.3208 245.567 63.9319 245.567 Q67.5661 245.567 69.3717 242.025 Q71.2004 238.46 71.2004 231.354 Q71.2004 224.224 69.3717 220.683 Q67.5661 217.118 63.9319 217.118 M63.9319 213.414 Q69.742 213.414 72.7976 218.021 Q75.8763 222.604 75.8763 231.354 Q75.8763 240.081 72.7976 244.687 Q69.742 249.271 63.9319 249.271 Q58.1217 249.271 55.043 244.687 Q51.9875 240.081 51.9875 231.354 Q51.9875 222.604 55.043 218.021 Q58.1217 213.414 63.9319 213.414 Z" fill="#000000" fill-rule="nonzero" fill-opacity="1" /><path clip-path="url(#clip080)" d="M84.0938 242.72 L88.978 242.72 L88.978 248.599 L84.0938 248.599 L84.0938 242.72 Z" fill="#000000" fill-rule="nonzero" fill-opacity="1" /><path clip-path="url(#clip080)" d="M103.191 244.664 L119.51 244.664 L119.51 248.599 L97.566 248.599 L97.566 244.664 Q100.228 241.909 104.811 237.28 Q109.418 232.627 110.598 231.285 Q112.844 228.761 113.723 227.025 Q114.626 225.266 114.626 223.576 Q114.626 220.822 112.682 219.086 Q110.76 217.349 107.658 217.349 Q105.459 217.349 103.006 218.113 Q100.575 218.877 97.7974 220.428 L97.7974 215.706 Q100.621 214.572 103.075 213.993 Q105.529 213.414 107.566 213.414 Q112.936 213.414 116.131 216.099 Q119.325 218.785 119.325 223.275 Q119.325 225.405 118.515 227.326 Q117.728 229.224 115.621 231.817 Q115.043 232.488 111.941 235.706 Q108.839 238.9 103.191 244.664 Z" fill="#000000" fill-rule="nonzero" fill-opacity="1" /><path clip-path="url(#clip080)" d="M129.371 214.039 L147.728 214.039 L147.728 217.974 L133.654 217.974 L133.654 226.447 Q134.672 226.099 135.691 225.937 Q136.709 225.752 137.728 225.752 Q143.515 225.752 146.894 228.923 Q150.274 232.095 150.274 237.511 Q150.274 243.09 146.802 246.192 Q143.33 249.271 137.01 249.271 Q134.834 249.271 132.566 248.9 Q130.32 248.53 127.913 247.789 L127.913 243.09 Q129.996 244.224 132.219 244.78 Q134.441 245.335 136.918 245.335 Q140.922 245.335 143.26 243.229 Q145.598 241.122 145.598 237.511 Q145.598 233.9 143.26 231.794 Q140.922 229.687 136.918 229.687 Q135.043 229.687 133.168 230.104 Q131.316 230.521 129.371 231.4 L129.371 214.039 Z" fill="#000000" fill-rule="nonzero" fill-opacity="1" /><polyline clip-path="url(#clip081)" style="stroke:#009af9; stroke-linecap:round; stroke-linejoin:round; stroke-width:8; stroke-opacity:1; fill:none" points="186.274,464.764 188.443,455.37 190.611,445.882 192.78,436.298 194.949,426.617 197.117,416.839 199.286,406.963 201.455,396.987 203.623,386.911 205.792,376.734 207.961,366.454 210.129,356.071 212.298,345.584 214.466,334.991 216.635,324.291 218.804,313.484 220.972,302.568 223.141,291.542 225.31,280.405 227.478,269.156 229.647,257.794 231.816,246.318 233.984,234.726 236.153,223.018 238.322,211.192 240.49,199.247 242.659,187.182 244.828,174.995 246.996,162.686 249.165,150.253 251.334,137.695 253.502,125.01 255.671,112.198 257.839,99.2569 260.008,86.1857 262.177,735.764 264.345,729.096 266.514,722.361 268.683,715.559 270.851,708.688 273.02,701.747 275.189,694.737 277.357,687.657 279.526,680.505 281.695,673.282 283.863,665.985 286.032,658.615 288.201,651.172 290.369,643.653 292.538,636.058 294.707,628.388 296.875,620.64 299.044,612.814 301.212,604.909 303.381,596.925 305.55,588.86 307.718,989.63 309.887,985.516 312.056,981.361 314.224,977.164 316.393,972.924 318.562,968.643 320.73,964.318 322.899,959.949 325.068,955.537 327.236,951.08 329.405,946.578 331.574,942.031 333.742,937.439 335.911,932.8 338.08,928.114 340.248,923.382 342.417,918.602 344.585,913.773 346.754,908.896 348.923,903.97 351.091,898.995 353.26,893.969 355.429,888.893 357.597,883.766 359.766,878.587 361.935,873.356 364.103,868.072 366.272,862.736 368.441,857.345 370.609,851.901 372.778,846.401 374.947,840.847 377.115,835.236 379.284,829.569 381.453,823.845 383.621,818.063 385.79,812.223 387.959,806.325 390.127,800.367 392.296,794.349 394.464,1093.41 396.633,1090.34 398.802,1087.24 400.97,1084.11 403.139,1080.94 405.308,1077.75 407.476,1074.52 409.645,1071.26 411.814,1067.97 413.982,1064.64 416.151,1061.28 418.32,1057.89 420.488,1054.46 422.657,1051 424.826,1047.5 426.994,1043.97 429.163,1040.41 431.332,1036.8 433.5,1033.16 435.669,1029.49 437.837,1025.78 440.006,1022.02 442.175,1018.24 444.343,1014.41 446.512,1010.55 448.681,1006.64 450.849,1002.7 453.018,998.718 455.187,994.696 457.355,990.633 459.524,986.529 461.693,982.384 463.861,978.197 466.03,973.969 468.199,969.697 470.367,965.383 472.536,961.025 474.705,956.624 476.873,952.178 479.042,947.687 481.21,943.151 483.379,938.57 485.548,933.943 487.716,929.269 489.885,924.548 492.054,919.779 494.222,914.963 496.391,910.098 498.56,905.184 500.728,900.221 502.897,895.207 505.066,890.144 507.234,885.029 509.403,879.863 511.572,874.645 513.74,869.374 515.909,864.051 518.078,858.673 520.246,853.242 522.415,847.756 524.583,842.215 526.752,836.618 528.921,830.965 531.089,825.255 533.258,819.488 535.427,813.662 537.595,807.778 539.764,801.835 541.933,1097.19 544.101,1094.16 546.27,1091.09 548.439,1088 550.607,1084.88 552.776,1081.72 554.945,1078.53 557.113,1075.31 559.282,1072.06 561.451,1068.78 563.619,1065.46 565.788,1062.11 567.956,1058.73 570.125,1055.31 572.294,1051.85 574.462,1048.37 576.631,1044.84 578.8,1041.28 580.968,1037.69 583.137,1034.06 585.306,1030.39 587.474,1026.69 589.643,1022.95 591.812,1019.17 593.98,1015.35 596.149,1011.5 598.318,1007.6 600.486,1003.67 602.655,999.699 604.824,995.687 606.992,991.634 609.161,987.54 611.33,983.405 613.498,979.229 615.667,975.01 617.835,970.75 620.004,966.446 622.173,962.099 624.341,957.708 626.51,953.273 628.679,948.794 630.847,944.269 633.016,939.699 635.185,935.083 637.353,930.42 639.522,925.711 641.691,920.954 643.859,916.149 646.028,911.296 648.197,906.394 650.365,901.443 652.534,896.442 654.703,1144.97 656.871,1142.42 659.04,1139.84 661.208,1137.24 663.377,1134.61 665.546,1131.95 667.714,1129.27 669.883,1126.56 672.052,1123.83 674.22,1121.06 676.389,1118.27 678.558,1115.45 680.726,1112.6 682.895,1109.73 685.064,1106.82 687.232,1103.89 689.401,1100.92 691.57,1097.93 693.738,1094.9 695.907,1091.85 698.076,1088.76 700.244,1085.65 702.413,1082.5 704.581,1079.32 706.75,1076.11 708.919,1072.86 711.087,1069.59 713.256,1066.28 715.425,1062.94 717.593,1059.56 719.762,1056.15 721.931,1052.7 724.099,1049.22 726.268,1045.71 728.437,1042.16 730.605,1038.58 732.774,1034.95 734.943,1031.3 737.111,1027.6 739.28,1023.87 741.449,1020.1 743.617,1016.29 745.786,1012.45 747.954,1008.56 750.123,1004.64 752.292,1000.68 754.46,996.675 756.629,992.632 758.798,988.549 760.966,984.424 763.135,980.258 765.304,976.05 767.472,971.799 769.641,967.506 771.81,963.17 773.978,958.79 776.147,954.366 778.316,1174.22 780.484,1171.96 782.653,1169.68 784.822,1167.38 786.99,1165.06 789.159,1162.71 791.328,1160.34 793.496,1157.94 795.665,1277.03 797.833,1275.81 800.002,1274.57 802.171,1273.33 804.339,1272.07 806.508,1270.79 808.677,1269.51 810.845,1268.21 813.014,1266.9 815.183,1265.58 817.351,1264.24 819.52,1262.89 821.689,1261.52 823.857,1260.14 826.026,1258.75 828.195,1257.35 830.363,1255.92 832.532,1254.49 834.701,1325.79 836.869,1325.06 839.038,1324.32 841.206,1323.57 843.375,1322.82 845.544,1322.06 847.712,1321.29 849.881,1320.51 852.05,1319.73 854.218,1318.93 856.387,1358.34 858.556,1357.93 860.724,1357.53 862.893,1357.11 865.062,1356.7 867.23,1356.28 869.399,1355.85 871.568,1355.42 873.736,1354.99 875.905,1354.55 878.074,1354.11 880.242,1353.66 882.411,1353.21 884.579,1352.75 886.748,1352.29 888.917,1351.83 891.085,1351.36 893.254,1350.88 895.423,1350.4 897.591,1349.92 899.76,1349.43 901.929,1348.93 904.097,1348.43 906.266,1347.93 908.435,1347.42 910.603,1346.91 912.772,1346.39 914.941,1345.86 917.109,1345.33 919.278,1344.8 921.447,1344.26 923.615,1343.71 925.784,1343.16 927.952,1342.6 930.121,1342.04 932.29,1341.47 934.458,1340.9 936.627,1340.32 938.796,1339.73 940.964,1339.14 943.133,1338.54 945.302,1337.94 947.47,1337.33 949.639,1336.71 951.808,1336.09 953.976,1335.46 956.145,1334.83 958.314,1334.19 960.482,1333.54 962.651,1332.88 964.82,1332.22 966.988,1365.05 969.157,1364.71 971.326,1364.37 973.494,1364.03 975.663,1363.68 977.831,1363.33 980,1362.98 982.169,1362.62 984.337,1362.26 986.506,1361.89 988.675,1361.52 990.843,1361.15 993.012,1360.78 995.181,1360.4 997.349,1360.01 999.518,1359.62 1001.69,1359.23 1003.86,1358.84 1006.02,1358.44 1008.19,1358.03 1010.36,1357.63 1012.53,1357.21 1014.7,1356.8 1016.87,1356.38 1019.04,1355.95 1021.2,1355.53 1023.37,1355.09 1025.54,1354.66 1027.71,1354.22 1029.88,1353.77 1032.05,1353.32 1034.22,1352.86 1036.39,1352.4 1038.55,1351.94 1040.72,1351.47 1042.89,1351 1045.06,1350.52 1047.23,1350.04 1049.4,1349.55 1051.57,1349.06 1053.73,1348.56 1055.9,1348.05 1058.07,1347.55 1060.24,1347.03 1062.41,1346.51 1064.58,1345.99 1066.75,1345.46 1068.91,1344.93 1071.08,1344.39 1073.25,1343.84 1075.42,1343.29 1077.59,1342.74 1079.76,1342.18 1081.93,1341.61 1084.1,1341.04 1086.26,1340.46 1088.43,1339.87 1090.6,1339.28 1092.77,1338.69 1094.94,1338.09 1097.11,1337.48 1099.28,1336.86 1101.44,1336.24 1103.61,1335.62 1105.78,1334.98 1107.95,1334.34 1110.12,1333.7 1112.29,1333.05 1114.46,1332.39 1116.63,1331.72 1118.79,1331.05 1120.96,1330.37 1123.13,1329.68 1125.3,1328.99 1127.47,1328.29 1129.64,1327.58 1131.81,1326.87 1133.97,1326.15 1136.14,1325.42 1138.31,1324.69 1140.48,1323.94 1142.65,1323.19 1144.82,1322.43 1146.99,1321.67 1149.15,1320.89 1151.32,1320.11 1153.49,1319.32 1155.66,1318.53 1157.83,1317.72 1160,1316.91 1162.17,1316.09 1164.34,1315.26 1166.5,1314.42 1168.67,1313.57 1170.84,1312.72 1173.01,1311.86 1175.18,1310.98 1177.35,1310.1 1179.52,1309.21 1181.68,1308.31 1183.85,1307.41 1186.02,1306.49 1188.19,1305.56 1190.36,1304.63 1192.53,1303.68 1194.7,1302.73 1196.87,1301.77 1199.03,1300.79 1201.2,1299.81 1203.37,1298.82 1205.54,1297.81 1207.71,1296.8 1209.88,1295.77 1212.05,1294.74 1214.21,1293.7 1216.38,1292.64 1218.55,1291.58 1220.72,1290.5 1222.89,1289.41 1225.06,1288.32 1227.23,1287.21 1229.39,1286.09 1231.56,1284.95 1233.73,1283.81 1235.9,1340.6 1238.07,1340.02 1240.24,1339.43 1242.41,1338.83 1244.58,1338.23 1246.74,1337.63 1248.91,1337.01 1251.08,1336.4 1253.25,1335.77 1255.42,1366.84 1257.59,1366.52 1259.76,1382.37 1261.92,1382.21 1264.09,1382.05 1266.26,1381.88 1268.43,1381.71 1270.6,1381.54 1272.77,1381.37 1274.94,1381.2 1277.11,1381.02 1279.27,1380.85 1281.44,1380.67 1283.61,1380.49 1285.78,1380.31 1287.95,1380.13 1290.12,1379.94 1292.29,1379.75 1294.45,1379.56 1296.62,1379.37 1298.79,1379.18 1300.96,1378.98 1303.13,1378.79 1305.3,1378.59 1307.47,1378.39 1309.63,1378.19 1311.8,1377.98 1313.97,1377.77 1316.14,1377.57 1318.31,1377.35 1320.48,1377.14 1322.65,1376.93 1324.82,1376.71 1326.98,1376.49 1329.15,1376.27 1331.32,1376.04 1333.49,1375.82 1335.66,1375.59 1337.83,1375.36 1340,1375.12 1342.16,1374.89 1344.33,1374.65 1346.5,1374.41 1348.67,1374.17 1350.84,1373.92 1353.01,1373.67 1355.18,1373.42 1357.35,1373.17 1359.51,1372.92 1361.68,1372.66 1363.85,1372.4 1366.02,1372.13 1368.19,1371.87 1370.36,1371.6 1372.53,1371.33 1374.69,1371.05 1376.86,1370.78 1379.03,1370.5 1381.2,1370.22 1383.37,1384.24 1385.54,1384.09 1387.71,1383.95 1389.88,1383.8 1392.04,1383.65 1394.21,1383.5 1396.38,1383.35 1398.55,1383.2 1400.72,1383.05 1402.89,1382.89 1405.06,1382.73 1407.22,1382.57 1409.39,1382.41 1411.56,1382.25 1413.73,1382.09 1415.9,1381.92 1418.07,1381.75 1420.24,1381.58 1422.4,1381.41 1424.57,1381.24 1426.74,1381.07 1428.91,1380.89 1431.08,1380.71 1433.25,1380.53 1435.42,1380.35 1437.59,1380.17 1439.75,1379.99 1441.92,1379.8 1444.09,1379.61 1446.26,1379.42 1448.43,1379.23 1450.6,1379.03 1452.77,1378.84 1454.93,1378.64 1457.1,1378.44 1459.27,1378.24 1461.44,1378.03 1463.61,1377.83 1465.78,1377.62 1467.95,1377.41 1470.12,1377.19 1472.28,1376.98 1474.45,1376.76 1476.62,1376.54 1478.79,1376.32 1480.96,1376.1 1483.13,1375.87 1485.3,1375.64 1487.46,1375.41 1489.63,1375.18 1491.8,1374.95 1493.97,1374.71 1496.14,1374.47 1498.31,1374.23 1500.48,1373.98 1502.64,1373.73 1504.81,1373.48 1506.98,1373.23 1509.15,1372.98 1511.32,1372.72 1513.49,1372.46 1515.66,1372.2 1517.83,1371.93 1519.99,1371.67 1522.16,1371.4 1524.33,1371.12 1526.5,1370.85 1528.67,1370.57 1530.84,1370.29 1533.01,1370 1535.17,1369.71 1537.34,1369.42 1539.51,1369.13 1541.68,1368.84 1543.85,1368.54 1546.02,1368.24 1548.19,1367.93 1550.36,1367.62 1552.52,1367.31 1554.69,1367 1556.86,1366.68 1559.03,1366.36 1561.2,1366.04 1563.37,1365.71 1565.54,1365.38 1567.7,1365.04 1569.87,1364.71 1572.04,1364.37 1574.21,1364.02 1576.38,1363.68 1578.55,1363.32 1580.72,1362.97 1582.88,1362.61 1585.05,1362.25 1587.22,1361.89 1589.39,1361.52 1591.56,1361.14 1593.73,1360.77 1595.9,1360.39 1598.07,1360 1600.23,1359.62 1602.4,1359.23 1604.57,1358.83 1606.74,1358.43 1608.91,1358.03 1611.08,1357.62 1613.25,1357.21 1615.41,1356.79 1617.58,1356.37 1619.75,1355.95 1621.92,1355.52 1624.09,1355.09 1626.26,1354.65 1628.43,1354.21 1630.6,1353.76 1632.76,1353.31 1634.93,1352.86 1637.1,1352.4 1639.27,1351.93 1641.44,1351.46 1643.61,1350.99 1645.78,1350.51 1647.94,1350.03 1650.11,1349.54 1652.28,1349.05 1654.45,1348.55 1656.62,1348.04 1658.79,1347.54 1660.96,1347.02 1663.13,1346.51 1665.29,1345.98 1667.46,1345.45 1669.63,1344.92 1671.8,1344.38 1673.97,1343.83 1676.14,1343.28 1678.31,1342.73 1680.47,1342.17 1682.64,1341.6 1684.81,1341.03 1686.98,1340.45 1689.15,1339.86 1691.32,1339.27 1693.49,1338.68 1695.65,1338.07 1697.82,1337.47 1699.99,1336.85 1702.16,1336.23 1704.33,1335.6 1706.5,1334.97 1708.67,1334.33 1710.84,1333.69 1713,1333.03 1715.17,1332.37 1717.34,1331.71 1719.51,1331.04 1721.68,1330.36 1723.85,1329.67 1726.02,1328.98 1728.18,1328.28 1730.35,1327.57 1732.52,1326.86 1734.69,1326.14 1736.86,1325.41 1739.03,1324.67 1741.2,1323.93 1743.37,1323.18 1745.53,1322.42 1747.7,1321.65 1749.87,1320.88 1752.04,1320.1 1754.21,1319.31 1756.38,1318.51 1758.55,1317.71 1760.71,1316.89 1762.88,1316.07 1765.05,1315.24 1767.22,1314.41 1769.39,1313.56 1771.56,1312.7 1773.73,1311.84 1775.89,1310.97 1778.06,1310.09 1780.23,1353.87 1782.4,1353.42 1784.57,1352.97 1786.74,1352.51 1788.91,1352.05 1791.08,1351.58 1793.24,1351.11 1795.41,1374.59 1797.58,1374.35 1799.75,1374.1 1801.92,1373.86 1804.09,1373.61 1806.26,1373.36 1808.42,1373.1 1810.59,1372.85 1812.76,1372.59 1814.93,1372.33 1817.1,1372.06 1819.27,1371.8 1821.44,1371.53 1823.61,1371.26 1825.77,1370.98 1827.94,1370.7 1830.11,1370.42 1832.28,1370.14 1834.45,1369.86 1836.62,1384.06 1838.79,1383.91 1840.95,1383.76 1843.12,1383.61 1845.29,1383.46 1847.46,1383.31 1849.63,1383.16 1851.8,1383 1853.97,1382.85 1856.13,1382.69 1858.3,1382.53 1860.47,1382.37 1862.64,1382.21 1864.81,1382.04 1866.98,1381.88 1869.15,1381.71 1871.32,1381.54 1873.48,1381.37 1875.65,1381.2 1877.82,1381.02 1879.99,1380.84 1882.16,1380.67 1884.33,1380.49 1886.5,1380.31 1888.66,1380.12 1890.83,1379.94 1893,1379.75 1895.17,1379.56 1897.34,1379.37 1899.51,1379.18 1901.68,1378.98 1903.85,1378.78 1906.01,1378.59 1908.18,1378.38 1910.35,1378.18 1912.52,1377.98 1914.69,1377.77 1916.86,1377.56 1919.03,1377.35 1921.19,1377.14 1923.36,1376.92 1925.53,1376.7 1927.7,1376.48 1929.87,1376.26 1932.04,1376.04 1934.21,1375.81 1936.37,1375.58 1938.54,1375.35 1940.71,1375.12 1942.88,1374.88 1945.05,1374.65 1947.22,1374.4 1949.39,1374.16 1951.56,1373.92 1953.72,1373.67 1955.89,1373.42 1958.06,1373.17 1960.23,1372.91 1962.4,1372.65 1964.57,1372.39 1966.74,1372.13 1968.9,1371.86 1971.07,1371.59 1973.24,1371.32 1975.41,1371.05 1977.58,1370.77 1979.75,1370.49 1981.92,1370.21 1984.09,1369.93 1986.25,1369.64 1988.42,1369.35 1990.59,1369.05 1992.76,1368.76 1994.93,1368.46 1997.1,1368.16 1999.27,1367.85 2001.43,1367.54 2003.6,1367.23 2005.77,1366.91 2007.94,1366.6 2010.11,1366.27 2012.28,1365.95 2014.45,1365.62 2016.62,1365.29 2018.78,1364.96 2020.95,1364.62 2023.12,1364.28 2025.29,1363.93 2027.46,1363.58 2029.63,1363.23 2031.8,1362.88 2033.96,1362.52 2036.13,1362.16 2038.3,1361.79 2040.47,1361.42 2042.64,1361.05 2044.81,1360.67 2046.98,1360.29 2049.14,1359.9 2051.31,1359.51 2053.48,1359.12 2055.65,1358.72 2057.82,1358.32 2059.99,1357.92 2062.16,1357.51 2064.33,1357.1 2066.49,1356.68 2068.66,1356.26 2070.83,1355.83 2073,1355.4 2075.17,1354.97 2077.34,1354.53 2079.51,1354.09 2081.67,1353.64 2083.84,1353.19 2086.01,1352.73 2088.18,1352.27 2090.35,1351.81 2092.52,1351.34 2094.69,1350.86 2096.86,1350.38 2099.02,1349.9 2101.19,1349.41 2103.36,1348.92 2105.53,1348.42 2107.7,1347.91 2109.87,1347.4 2112.04,1346.89 2114.2,1346.37 2116.37,1345.84 2118.54,1345.31 2120.71,1344.78 2122.88,1344.24 2125.05,1343.69 2127.22,1343.14 2129.38,1342.58 2131.55,1342.02 2133.72,1341.45 2135.89,1340.87 2138.06,1340.29 2140.23,1339.71 2142.4,1339.12 2144.57,1338.52 2146.73,1337.92 2148.9,1337.31 2151.07,1336.69 2153.24,1336.07 2155.41,1335.44 2157.58,1334.8 2159.75,1334.16 2161.91,1333.51 2164.08,1332.86 2166.25,1332.2 2168.42,1331.53 2170.59,1330.86 2172.76,1330.18 2174.93,1329.49 2177.1,1328.79 2179.26,1328.09 2181.43,1327.38 2183.6,1326.67 2185.77,1325.94 2187.94,1325.21 2190.11,1324.48 2192.28,1323.73 2194.44,1322.98 2196.61,1322.22 2198.78,1321.45 2200.95,1320.68 2203.12,1319.89 2205.29,1319.1 2207.46,1318.3 2209.62,1317.49 2211.79,1316.68 2213.96,1315.85 2216.13,1356.78 2218.3,1356.36 2220.47,1355.94 2222.64,1355.51 2224.81,1355.08 2226.97,1354.64 2229.14,1354.2 2231.31,1353.75 2233.48,1353.3 2235.65,1352.85 2237.82,1352.39 2239.99,1351.92 2242.15,1351.45 2244.32,1374.76 2246.49,1374.52 2248.66,1374.28 2250.83,1374.04 2253,1373.79 2255.17,1373.54 2257.34,1373.29 2259.5,1373.04 2261.67,1372.78 2263.84,1372.52 2266.01,1372.26 2268.18,1371.99 2270.35,1371.73 2272.52,1371.46 2274.68,1371.18 2276.85,1370.91 2279.02,1370.63 2281.19,1370.35 2283.36,1370.07 2285.53,1369.78 2287.7,1369.49 2289.87,1369.2 2292.03,1368.9 2294.2,1368.61 2296.37,1368.3 2298.54,1368 2300.71,1367.69 2302.88,1367.38 2305.05,1367.07 2307.21,1366.75 2309.38,1366.43 2311.55,1366.11 2313.72,1365.78 2315.89,1365.45 2318.06,1365.12 2320.23,1364.78 2322.39,1364.44 2324.56,1364.1 2326.73,1363.75 2328.9,1380.97 2331.07,1380.8 2333.24,1380.62 2335.41,1380.44 2337.58,1380.26 2339.74,1380.07 2341.91,1379.89 2344.08,1379.7 2346.25,1379.51 2348.42,1379.32 2350.59,1379.13 2352.76,1378.93 "/>
<path clip-path="url(#clip080)" d="M1974.79 196.789 L2280.54 196.789 L2280.54 93.1086 L1974.79 93.1086  Z" fill="#ffffff" fill-rule="evenodd" fill-opacity="1"/>
<polyline clip-path="url(#clip080)" style="stroke:#000000; stroke-linecap:round; stroke-linejoin:round; stroke-width:4; stroke-opacity:1; fill:none" points="1974.79,196.789 2280.54,196.789 2280.54,93.1086 1974.79,93.1086 1974.79,196.789 "/>
<polyline clip-path="url(#clip080)" style="stroke:#009af9; stroke-linecap:round; stroke-linejoin:round; stroke-width:8; stroke-opacity:1; fill:none" points="1998.87,144.949 2143.3,144.949 "/>
<path clip-path="url(#clip080)" d="M2167.37 151.997 L2167.37 136.303 L2171.63 136.303 L2171.63 151.835 Q2171.63 155.516 2173.07 157.368 Q2174.5 159.196 2177.37 159.196 Q2180.82 159.196 2182.81 156.997 Q2184.82 154.798 2184.82 151.002 L2184.82 136.303 L2189.08 136.303 L2189.08 162.229 L2184.82 162.229 L2184.82 158.247 Q2183.27 160.608 2181.21 161.766 Q2179.18 162.9 2176.47 162.9 Q2172 162.9 2169.69 160.122 Q2167.37 157.344 2167.37 151.997 M2178.09 135.678 L2178.09 135.678 Z" fill="#000000" fill-rule="nonzero" fill-opacity="1" /><path clip-path="url(#clip080)" d="M2197.46 126.21 L2207.28 126.21 L2207.28 129.52 L2201.72 129.52 L2201.72 165.168 L2207.28 165.168 L2207.28 168.479 L2197.46 168.479 L2197.46 126.21 Z" fill="#000000" fill-rule="nonzero" fill-opacity="1" /><path clip-path="url(#clip080)" d="M2217.76 158.293 L2225.4 158.293 L2225.4 131.928 L2217.09 133.595 L2217.09 129.335 L2225.36 127.669 L2230.03 127.669 L2230.03 158.293 L2237.67 158.293 L2237.67 162.229 L2217.76 162.229 L2217.76 158.293 Z" fill="#000000" fill-rule="nonzero" fill-opacity="1" /><path clip-path="url(#clip080)" d="M2256.47 126.21 L2256.47 168.479 L2246.65 168.479 L2246.65 165.168 L2252.19 165.168 L2252.19 129.52 L2246.65 129.52 L2246.65 126.21 L2256.47 126.21 Z" fill="#000000" fill-rule="nonzero" fill-opacity="1" /></svg>
