<?xml version="1.0" encoding="utf-8"?>
<svg xmlns="http://www.w3.org/2000/svg" xmlns:xlink="http://www.w3.org/1999/xlink" width="600" height="400" viewBox="0 0 2400 1600">
<defs>
  <clipPath id="clip140">
    <rect x="0" y="0" width="2400" height="1600"/>
  </clipPath>
</defs>
<path clip-path="url(#clip140)" d="M0 1600 L2400 1600 L2400 0 L0 0  Z" fill="#ffffff" fill-rule="evenodd" fill-opacity="1"/>
<defs>
  <clipPath id="clip141">
    <rect x="112" y="47" width="2242" height="1377"/>
  </clipPath>
</defs>
<path clip-path="url(#clip140)" d="M112.177 1423.18 L2352.76 1423.18 L2352.76 47.2441 L112.177 47.2441  Z" fill="#ffffff" fill-rule="evenodd" fill-opacity="1"/>
<polyline clip-path="url(#clip141)" style="stroke:#000000; stroke-linecap:round; stroke-linejoin:round; stroke-width:2; stroke-opacity:0.1; fill:none" points="112.177,1423.18 112.177,47.2441 "/>
<polyline clip-path="url(#clip141)" style="stroke:#000000; stroke-linecap:round; stroke-linejoin:round; stroke-width:2; stroke-opacity:0.1; fill:none" points="560.293,1423.18 560.293,47.2441 "/>
<polyline clip-path="url(#clip141)" style="stroke:#000000; stroke-linecap:round; stroke-linejoin:round; stroke-width:2; stroke-opacity:0.1; fill:none" points="1008.41,1423.18 1008.41,47.2441 "/>
<polyline clip-path="url(#clip141)" style="stroke:#000000; stroke-linecap:round; stroke-linejoin:round; stroke-width:2; stroke-opacity:0.1; fill:none" points="1456.52,1423.18 1456.52,47.2441 "/>
<polyline clip-path="url(#clip141)" style="stroke:#000000; stroke-linecap:round; stroke-linejoin:round; stroke-width:2; stroke-opacity:0.1; fill:none" points="1904.64,1423.18 1904.64,47.2441 "/>
<polyline clip-path="url(#clip141)" style="stroke:#000000; stroke-linecap:round; stroke-linejoin:round; stroke-width:2; stroke-opacity:0.1; fill:none" points="2352.76,1423.18 2352.76,47.2441 "/>
<polyline clip-path="url(#clip141)" style="stroke:#000000; stroke-linecap:round; stroke-linejoin:round; stroke-width:2; stroke-opacity:0.1; fill:none" points="112.177,1088.65 2352.76,1088.65 "/>
<polyline clip-path="url(#clip141)" style="stroke:#000000; stroke-linecap:round; stroke-linejoin:round; stroke-width:2; stroke-opacity:0.1; fill:none" points="112.177,746.514 2352.76,746.514 "/>
<polyline clip-path="url(#clip141)" style="stroke:#000000; stroke-linecap:round; stroke-linejoin:round; stroke-width:2; stroke-opacity:0.1; fill:none" points="112.177,404.378 2352.76,404.378 "/>
<polyline clip-path="url(#clip141)" style="stroke:#000000; stroke-linecap:round; stroke-linejoin:round; stroke-width:2; stroke-opacity:0.1; fill:none" points="112.177,62.2425 2352.76,62.2425 "/>
<polyline clip-path="url(#clip140)" style="stroke:#000000; stroke-linecap:round; stroke-linejoin:round; stroke-width:4; stroke-opacity:1; fill:none" points="112.177,1423.18 2352.76,1423.18 "/>
<polyline clip-path="url(#clip140)" style="stroke:#000000; stroke-linecap:round; stroke-linejoin:round; stroke-width:4; stroke-opacity:1; fill:none" points="112.177,1423.18 112.177,1404.28 "/>
<polyline clip-path="url(#clip140)" style="stroke:#000000; stroke-linecap:round; stroke-linejoin:round; stroke-width:4; stroke-opacity:1; fill:none" points="560.293,1423.18 560.293,1404.28 "/>
<polyline clip-path="url(#clip140)" style="stroke:#000000; stroke-linecap:round; stroke-linejoin:round; stroke-width:4; stroke-opacity:1; fill:none" points="1008.41,1423.18 1008.41,1404.28 "/>
<polyline clip-path="url(#clip140)" style="stroke:#000000; stroke-linecap:round; stroke-linejoin:round; stroke-width:4; stroke-opacity:1; fill:none" points="1456.52,1423.18 1456.52,1404.28 "/>
<polyline clip-path="url(#clip140)" style="stroke:#000000; stroke-linecap:round; stroke-linejoin:round; stroke-width:4; stroke-opacity:1; fill:none" points="1904.64,1423.18 1904.64,1404.28 "/>
<polyline clip-path="url(#clip140)" style="stroke:#000000; stroke-linecap:round; stroke-linejoin:round; stroke-width:4; stroke-opacity:1; fill:none" points="2352.76,1423.18 2352.76,1404.28 "/>
<path clip-path="url(#clip140)" d="M112.177 1454.1 Q108.566 1454.1 106.737 1457.66 Q104.932 1461.2 104.932 1468.33 Q104.932 1475.44 106.737 1479.01 Q108.566 1482.55 112.177 1482.55 Q115.811 1482.55 117.617 1479.01 Q119.446 1475.44 119.446 1468.33 Q119.446 1461.2 117.617 1457.66 Q115.811 1454.1 112.177 1454.1 M112.177 1450.39 Q117.987 1450.39 121.043 1455 Q124.122 1459.58 124.122 1468.33 Q124.122 1477.06 121.043 1481.67 Q117.987 1486.25 112.177 1486.25 Q106.367 1486.25 103.288 1481.67 Q100.233 1477.06 100.233 1468.33 Q100.233 1459.58 103.288 1455 Q106.367 1450.39 112.177 1450.39 Z" fill="#000000" fill-rule="nonzero" fill-opacity="1" /><path clip-path="url(#clip140)" d="M554.946 1481.64 L571.265 1481.64 L571.265 1485.58 L549.321 1485.58 L549.321 1481.64 Q551.983 1478.89 556.566 1474.26 Q561.173 1469.61 562.353 1468.27 Q564.598 1465.74 565.478 1464.01 Q566.381 1462.25 566.381 1460.56 Q566.381 1457.8 564.436 1456.07 Q562.515 1454.33 559.413 1454.33 Q557.214 1454.33 554.761 1455.09 Q552.33 1455.86 549.552 1457.41 L549.552 1452.69 Q552.376 1451.55 554.83 1450.97 Q557.284 1450.39 559.321 1450.39 Q564.691 1450.39 567.885 1453.08 Q571.08 1455.77 571.08 1460.26 Q571.08 1462.39 570.27 1464.31 Q569.483 1466.2 567.376 1468.8 Q566.798 1469.47 563.696 1472.69 Q560.594 1475.88 554.946 1481.64 Z" fill="#000000" fill-rule="nonzero" fill-opacity="1" /><path clip-path="url(#clip140)" d="M1011.42 1455.09 L999.612 1473.54 L1011.42 1473.54 L1011.42 1455.09 M1010.19 1451.02 L1016.07 1451.02 L1016.07 1473.54 L1021 1473.54 L1021 1477.43 L1016.07 1477.43 L1016.07 1485.58 L1011.42 1485.58 L1011.42 1477.43 L995.816 1477.43 L995.816 1472.92 L1010.19 1451.02 Z" fill="#000000" fill-rule="nonzero" fill-opacity="1" /><path clip-path="url(#clip140)" d="M1456.93 1466.44 Q1453.78 1466.44 1451.93 1468.59 Q1450.1 1470.74 1450.1 1474.49 Q1450.1 1478.22 1451.93 1480.39 Q1453.78 1482.55 1456.93 1482.55 Q1460.08 1482.55 1461.91 1480.39 Q1463.76 1478.22 1463.76 1474.49 Q1463.76 1470.74 1461.91 1468.59 Q1460.08 1466.44 1456.93 1466.44 M1466.21 1451.78 L1466.21 1456.04 Q1464.45 1455.21 1462.65 1454.77 Q1460.86 1454.33 1459.11 1454.33 Q1454.48 1454.33 1452.02 1457.45 Q1449.59 1460.58 1449.24 1466.9 Q1450.61 1464.89 1452.67 1463.82 Q1454.73 1462.73 1457.21 1462.73 Q1462.42 1462.73 1465.42 1465.9 Q1468.46 1469.05 1468.46 1474.49 Q1468.46 1479.82 1465.31 1483.03 Q1462.16 1486.25 1456.93 1486.25 Q1450.93 1486.25 1447.76 1481.67 Q1444.59 1477.06 1444.59 1468.33 Q1444.59 1460.14 1448.48 1455.28 Q1452.37 1450.39 1458.92 1450.39 Q1460.68 1450.39 1462.46 1450.74 Q1464.27 1451.09 1466.21 1451.78 Z" fill="#000000" fill-rule="nonzero" fill-opacity="1" /><path clip-path="url(#clip140)" d="M1904.64 1469.17 Q1901.31 1469.17 1899.39 1470.95 Q1897.49 1472.73 1897.49 1475.86 Q1897.49 1478.98 1899.39 1480.77 Q1901.31 1482.55 1904.64 1482.55 Q1907.97 1482.55 1909.89 1480.77 Q1911.82 1478.96 1911.82 1475.86 Q1911.82 1472.73 1909.89 1470.95 Q1908 1469.17 1904.64 1469.17 M1899.96 1467.18 Q1896.96 1466.44 1895.27 1464.38 Q1893.6 1462.32 1893.6 1459.35 Q1893.6 1455.21 1896.54 1452.8 Q1899.5 1450.39 1904.64 1450.39 Q1909.8 1450.39 1912.74 1452.8 Q1915.68 1455.21 1915.68 1459.35 Q1915.68 1462.32 1913.99 1464.38 Q1912.33 1466.44 1909.34 1467.18 Q1912.72 1467.96 1914.59 1470.26 Q1916.49 1472.55 1916.49 1475.86 Q1916.49 1480.88 1913.41 1483.57 Q1910.36 1486.25 1904.64 1486.25 Q1898.92 1486.25 1895.84 1483.57 Q1892.79 1480.88 1892.79 1475.86 Q1892.79 1472.55 1894.69 1470.26 Q1896.58 1467.96 1899.96 1467.18 M1898.25 1459.79 Q1898.25 1462.48 1899.92 1463.98 Q1901.61 1465.49 1904.64 1465.49 Q1907.65 1465.49 1909.34 1463.98 Q1911.05 1462.48 1911.05 1459.79 Q1911.05 1457.11 1909.34 1455.6 Q1907.65 1454.1 1904.64 1454.1 Q1901.61 1454.1 1899.92 1455.6 Q1898.25 1457.11 1898.25 1459.79 Z" fill="#000000" fill-rule="nonzero" fill-opacity="1" /><path clip-path="url(#clip140)" d="M2327.44 1481.64 L2335.08 1481.64 L2335.08 1455.28 L2326.77 1456.95 L2326.77 1452.69 L2335.04 1451.02 L2339.71 1451.02 L2339.71 1481.64 L2347.35 1481.64 L2347.35 1485.58 L2327.44 1485.58 L2327.44 1481.64 Z" fill="#000000" fill-rule="nonzero" fill-opacity="1" /><path clip-path="url(#clip140)" d="M2366.8 1454.1 Q2363.18 1454.1 2361.36 1457.66 Q2359.55 1461.2 2359.55 1468.33 Q2359.55 1475.44 2361.36 1479.01 Q2363.18 1482.55 2366.8 1482.55 Q2370.43 1482.55 2372.23 1479.01 Q2374.06 1475.44 2374.06 1468.33 Q2374.06 1461.2 2372.23 1457.66 Q2370.43 1454.1 2366.8 1454.1 M2366.8 1450.39 Q2372.61 1450.39 2375.66 1455 Q2378.74 1459.58 2378.74 1468.33 Q2378.74 1477.06 2375.66 1481.67 Q2372.61 1486.25 2366.8 1486.25 Q2360.99 1486.25 2357.91 1481.67 Q2354.85 1477.06 2354.85 1468.33 Q2354.85 1459.58 2357.91 1455 Q2360.99 1450.39 2366.8 1450.39 Z" fill="#000000" fill-rule="nonzero" fill-opacity="1" /><path clip-path="url(#clip140)" d="M1231.53 1522.27 L1231.53 1532.4 L1243.59 1532.4 L1243.59 1536.95 L1231.53 1536.95 L1231.53 1556.3 Q1231.53 1560.66 1232.71 1561.9 Q1233.91 1563.14 1237.58 1563.14 L1243.59 1563.14 L1243.59 1568.04 L1237.58 1568.04 Q1230.8 1568.04 1228.22 1565.53 Q1225.64 1562.98 1225.64 1556.3 L1225.64 1536.95 L1221.34 1536.95 L1221.34 1532.4 L1225.64 1532.4 L1225.64 1522.27 L1231.53 1522.27 Z" fill="#000000" fill-rule="nonzero" fill-opacity="1" /><polyline clip-path="url(#clip140)" style="stroke:#000000; stroke-linecap:round; stroke-linejoin:round; stroke-width:4; stroke-opacity:1; fill:none" points="112.177,1423.18 112.177,47.2441 "/>
<polyline clip-path="url(#clip140)" style="stroke:#000000; stroke-linecap:round; stroke-linejoin:round; stroke-width:4; stroke-opacity:1; fill:none" points="112.177,1088.65 131.075,1088.65 "/>
<polyline clip-path="url(#clip140)" style="stroke:#000000; stroke-linecap:round; stroke-linejoin:round; stroke-width:4; stroke-opacity:1; fill:none" points="112.177,746.514 131.075,746.514 "/>
<polyline clip-path="url(#clip140)" style="stroke:#000000; stroke-linecap:round; stroke-linejoin:round; stroke-width:4; stroke-opacity:1; fill:none" points="112.177,404.378 131.075,404.378 "/>
<polyline clip-path="url(#clip140)" style="stroke:#000000; stroke-linecap:round; stroke-linejoin:round; stroke-width:4; stroke-opacity:1; fill:none" points="112.177,62.2425 131.075,62.2425 "/>
<path clip-path="url(#clip140)" d="M56.2699 1101.99 L63.9087 1101.99 L63.9087 1075.63 L55.5986 1077.3 L55.5986 1073.04 L63.8624 1071.37 L68.5383 1071.37 L68.5383 1101.99 L76.1772 1101.99 L76.1772 1105.93 L56.2699 1105.93 L56.2699 1101.99 Z" fill="#000000" fill-rule="nonzero" fill-opacity="1" /><path clip-path="url(#clip140)" d="M59.8578 759.859 L76.1772 759.859 L76.1772 763.794 L54.2328 763.794 L54.2328 759.859 Q56.8949 757.104 61.4782 752.475 Q66.0846 747.822 67.2652 746.479 Q69.5105 743.956 70.3902 742.22 Q71.2929 740.461 71.2929 738.771 Q71.2929 736.017 69.3485 734.28 Q67.4272 732.544 64.3254 732.544 Q62.1263 732.544 59.6726 733.308 Q57.2421 734.072 54.4643 735.623 L54.4643 730.901 Q57.2884 729.767 59.7421 729.188 Q62.1958 728.609 64.2328 728.609 Q69.6031 728.609 72.7976 731.294 Q75.992 733.98 75.992 738.47 Q75.992 740.6 75.1818 742.521 Q74.3948 744.419 72.2883 747.012 Q71.7096 747.683 68.6078 750.901 Q65.5059 754.095 59.8578 759.859 Z" fill="#000000" fill-rule="nonzero" fill-opacity="1" /><path clip-path="url(#clip140)" d="M69.0476 403.024 Q72.404 403.742 74.279 406.01 Q76.1772 408.279 76.1772 411.612 Q76.1772 416.728 72.6587 419.529 Q69.1402 422.33 62.6587 422.33 Q60.4828 422.33 58.168 421.89 Q55.8764 421.473 53.4227 420.617 L53.4227 416.103 Q55.3671 417.237 57.6819 417.816 Q59.9967 418.394 62.5198 418.394 Q66.918 418.394 69.2096 416.658 Q71.5244 414.922 71.5244 411.612 Q71.5244 408.557 69.3717 406.844 Q67.242 405.108 63.4226 405.108 L59.3949 405.108 L59.3949 401.265 L63.6078 401.265 Q67.0569 401.265 68.8855 399.899 Q70.7142 398.51 70.7142 395.918 Q70.7142 393.256 68.8161 391.844 Q66.9411 390.409 63.4226 390.409 Q61.5013 390.409 59.3023 390.825 Q57.1032 391.242 54.4643 392.121 L54.4643 387.955 Q57.1264 387.214 59.4412 386.844 Q61.7791 386.473 63.8393 386.473 Q69.1633 386.473 72.2652 388.904 Q75.367 391.311 75.367 395.432 Q75.367 398.302 73.7235 400.293 Q72.08 402.26 69.0476 403.024 Z" fill="#000000" fill-rule="nonzero" fill-opacity="1" /><path clip-path="url(#clip140)" d="M66.5939 49.0365 L54.7884 67.4855 L66.5939 67.4855 L66.5939 49.0365 M65.367 44.9625 L71.2466 44.9625 L71.2466 67.4855 L76.1772 67.4855 L76.1772 71.3744 L71.2466 71.3744 L71.2466 79.5225 L66.5939 79.5225 L66.5939 71.3744 L50.9921 71.3744 L50.9921 66.8605 L65.367 44.9625 Z" fill="#000000" fill-rule="nonzero" fill-opacity="1" /><polyline clip-path="url(#clip141)" style="stroke:#009af9; stroke-linecap:round; stroke-linejoin:round; stroke-width:8; stroke-opacity:1; fill:none" points="112.177,1362.36 114.42,1361.67 116.663,1360.98 118.906,1360.27 121.148,1359.56 123.391,1358.85 125.634,1358.12 127.877,1357.39 130.12,1356.65 132.363,1355.91 134.605,1355.15 136.848,1354.39 139.091,1353.63 141.334,1352.85 143.577,1352.06 145.819,1351.27 148.062,1350.47 150.305,1349.67 152.548,1348.85 154.791,1348.02 157.034,1347.19 159.276,1346.35 161.519,1345.5 163.762,1344.64 166.005,1343.78 168.248,1342.9 170.491,1342.02 172.733,1341.12 174.976,1340.22 177.219,1339.31 179.462,1338.39 181.705,1337.46 183.947,1336.52 186.19,1335.57 188.433,1334.62 190.676,1333.65 192.919,1332.67 195.162,1331.68 197.404,1330.69 199.647,1329.68 201.89,1328.66 204.133,1327.64 206.376,1326.6 208.619,1325.55 210.861,1324.49 213.104,1323.42 215.347,1322.34 217.59,1321.25 219.833,1320.15 222.075,1319.04 224.318,1317.91 226.561,1316.78 228.804,1315.63 231.047,1314.47 233.29,1313.3 235.532,1312.12 237.775,1310.93 240.018,1309.72 242.261,1308.5 244.504,1307.27 246.746,1306.03 248.989,1304.77 251.232,1367.15 253.475,1366.51 255.718,1365.86 257.961,1365.21 260.203,1364.55 262.446,1363.88 264.689,1363.21 266.932,1362.53 269.175,1361.84 271.418,1361.15 273.66,1360.45 275.903,1359.74 278.146,1359.02 280.389,1358.3 282.632,1357.57 284.874,1356.84 287.117,1356.09 289.36,1355.34 291.603,1354.58 293.846,1353.81 296.089,1353.04 298.331,1352.26 300.574,1351.47 302.817,1350.67 305.06,1349.86 307.303,1349.05 309.545,1348.23 311.788,1347.4 314.031,1346.56 316.274,1345.71 318.517,1344.86 320.76,1343.99 323.002,1343.12 325.245,1342.24 327.488,1341.34 329.731,1340.44 331.974,1339.54 334.217,1338.62 336.459,1384.24 338.702,1383.77 340.945,1383.3 343.188,1382.82 345.431,1382.34 347.673,1381.85 349.916,1381.36 352.159,1380.86 354.402,1380.36 356.645,1379.85 358.888,1379.34 361.13,1378.82 363.373,1378.3 365.616,1377.77 367.859,1377.24 370.102,1376.7 372.344,1376.15 374.587,1375.6 376.83,1375.05 379.073,1374.49 381.316,1373.92 383.559,1373.35 385.801,1372.77 388.044,1372.19 390.287,1371.6 392.53,1371 394.773,1370.4 397.016,1369.79 399.258,1369.18 401.501,1368.56 403.744,1367.93 405.987,1367.3 408.23,1366.66 410.472,1366.02 412.715,1365.37 414.958,1364.71 417.201,1364.04 419.444,1363.37 421.687,1362.69 423.929,1362.01 426.172,1361.32 428.415,1360.62 430.658,1359.91 432.901,1359.2 435.143,1358.48 437.386,1357.75 439.629,1357.02 441.872,1356.27 444.115,1355.53 446.358,1354.77 448.6,1354 450.843,1353.23 453.086,1352.45 455.329,1351.66 457.572,1350.87 459.815,1350.06 462.057,1349.25 464.3,1348.43 466.543,1347.6 468.786,1346.76 471.029,1345.92 473.271,1345.07 475.514,1344.2 477.757,1343.33 480,1342.45 482.243,1341.56 484.486,1340.67 486.728,1339.76 488.971,1338.84 491.214,1337.92 493.457,1336.98 495.7,1336.04 497.942,1335.09 500.185,1334.13 502.428,1333.15 504.671,1332.17 506.914,1331.18 509.157,1330.18 511.399,1329.16 513.642,1328.14 515.885,1327.11 518.128,1326.07 520.371,1325.01 522.614,1323.95 524.856,1322.87 527.099,1376.29 529.342,1375.74 531.585,1375.19 533.828,1374.63 536.07,1374.06 538.313,1373.49 540.556,1372.91 542.799,1372.33 545.042,1371.74 547.285,1371.15 549.527,1370.55 551.77,1369.94 554.013,1369.33 556.256,1368.71 558.499,1368.09 560.741,1367.46 562.984,1366.82 565.227,1366.18 567.47,1365.53 569.713,1364.87 571.956,1364.21 574.198,1363.54 576.441,1362.86 578.684,1362.18 580.927,1361.49 583.17,1360.79 585.413,1360.09 587.655,1359.38 589.898,1358.66 592.141,1357.93 594.384,1357.2 596.627,1356.46 598.869,1355.71 601.112,1354.96 603.355,1354.19 605.598,1353.42 607.841,1352.64 610.084,1351.86 612.326,1351.06 614.569,1350.26 616.812,1349.45 619.055,1348.63 621.298,1347.81 623.54,1346.97 625.783,1346.13 628.026,1345.28 630.269,1344.42 632.512,1343.55 634.755,1342.67 636.997,1341.78 639.24,1340.89 641.483,1339.98 643.726,1339.07 645.969,1338.15 648.212,1337.22 650.454,1336.27 652.697,1335.32 654.94,1334.36 657.183,1333.39 659.426,1332.41 661.668,1331.42 663.911,1330.42 666.154,1329.41 668.397,1328.39 670.64,1327.36 672.883,1326.32 675.125,1325.27 677.368,1324.21 679.611,1323.14 681.854,1322.06 684.097,1320.96 686.339,1319.86 688.582,1318.74 690.825,1317.61 693.068,1316.48 695.311,1315.33 697.554,1314.16 699.796,1312.99 702.039,1311.81 704.282,1310.61 706.525,1309.4 708.768,1308.18 711.011,1306.95 713.253,1305.7 715.496,1304.44 717.739,1303.17 719.982,1301.89 722.225,1300.59 724.467,1299.28 726.71,1297.96 728.953,1296.62 731.196,1295.27 733.439,1293.91 735.682,1292.53 737.924,1291.14 740.167,1289.74 742.41,1288.32 744.653,1286.89 746.896,1285.44 749.138,1283.98 751.381,1282.5 753.624,1281.01 755.867,1279.5 758.11,1277.98 760.353,1276.44 762.595,1274.89 764.838,1273.32 767.081,1271.74 769.324,1270.14 771.567,1268.52 773.81,1266.89 776.052,1265.24 778.295,1263.58 780.538,1261.89 782.781,1260.19 785.024,1258.48 787.266,1256.74 789.509,1254.99 791.752,1253.22 793.995,1251.44 796.238,1249.63 798.481,1247.81 800.723,1245.97 802.966,1244.11 805.209,1242.23 807.452,1240.33 809.695,1238.42 811.938,1236.48 814.18,1234.53 816.423,1232.55 818.666,1230.56 820.909,1228.54 823.152,1226.51 825.394,1224.45 827.637,1222.38 829.88,1220.28 832.123,1218.16 834.366,1216.02 836.609,1213.86 838.851,1211.68 841.094,1209.48 843.337,1207.25 845.58,1205 847.823,1202.73 850.065,1200.43 852.308,1198.12 854.551,1195.78 856.794,1193.41 859.037,1191.02 861.28,1188.61 863.522,1186.18 865.765,1183.72 868.008,1181.23 870.251,1178.72 872.494,1176.18 874.737,1173.62 876.979,1171.04 879.222,1168.42 881.465,1165.79 883.708,1163.12 885.951,1160.43 888.193,1157.71 890.436,1154.96 892.679,1152.19 894.922,1149.39 897.165,1146.55 899.408,1143.7 901.65,1140.81 903.893,1137.89 906.136,1134.95 908.379,1131.97 910.622,1128.96 912.864,1125.93 915.107,1122.86 917.35,1119.76 919.593,1116.64 921.836,1113.48 924.079,1110.28 926.321,1107.06 928.564,1103.8 930.807,1100.51 933.05,1097.19 935.293,1093.83 937.536,1090.44 939.778,1087.02 942.021,1083.56 944.264,1080.07 946.507,1076.54 948.75,1072.98 950.992,1069.38 953.235,1065.74 955.478,1062.07 957.721,1058.36 959.964,1054.61 962.207,1050.82 964.449,1047 966.692,1043.14 968.935,1039.24 971.178,1035.3 973.421,1031.32 975.663,1027.3 977.906,1023.24 980.149,1019.14 982.392,1015 984.635,1010.81 986.878,1006.59 989.12,1002.32 991.363,998.01 993.606,993.656 995.849,989.258 998.092,984.816 1000.33,980.33 1002.58,975.798 1004.82,971.221 1007.06,966.597 1009.31,961.927 1011.55,957.21 1013.79,1191.61 1016.03,1189.21 1018.28,1186.78 1020.52,1184.32 1022.76,1181.84 1025.01,1179.34 1027.25,1176.81 1029.49,1174.25 1031.73,1171.67 1033.98,1169.07 1036.22,1166.43 1038.46,1163.77 1040.71,1161.09 1042.95,1158.37 1045.19,1155.63 1047.43,1152.87 1049.68,1150.07 1051.92,1147.25 1054.16,1144.39 1056.41,1141.51 1058.65,1138.6 1060.89,1135.66 1063.13,1132.7 1065.38,1129.7 1067.62,1126.67 1069.86,1123.61 1072.1,1120.52 1074.35,1117.4 1076.59,1114.25 1078.83,1111.06 1081.08,1107.85 1083.32,1104.6 1085.56,1101.32 1087.8,1098.01 1090.05,1094.66 1092.29,1091.28 1094.53,1087.86 1096.78,1084.41 1099.02,1080.93 1101.26,1077.41 1103.5,1073.86 1105.75,1070.27 1107.99,1066.64 1110.23,1062.98 1112.48,1059.28 1114.72,1055.54 1116.96,1051.77 1119.2,1047.95 1121.45,1044.1 1123.69,1040.21 1125.93,1036.28 1128.18,1032.31 1130.42,1028.3 1132.66,1024.26 1134.9,1020.17 1137.15,1016.03 1139.39,1011.86 1141.63,1007.65 1143.88,1003.39 1146.12,999.089 1148.36,994.745 1150.6,990.357 1152.85,985.926 1155.09,981.45 1157.33,976.928 1159.57,972.361 1161.82,967.748 1164.06,963.089 1166.3,958.383 1168.55,953.63 1170.79,948.828 1173.03,943.979 1175.27,939.08 1177.52,934.133 1179.76,929.136 1182,924.088 1184.25,918.99 1186.49,913.841 1188.73,908.64 1190.97,903.387 1193.22,898.082 1195.46,892.722 1197.7,887.309 1199.95,881.842 1202.19,876.319 1204.43,870.741 1206.67,865.107 1208.92,859.416 1211.16,853.668 1213.4,847.862 1215.65,841.997 1217.89,836.074 1220.13,830.091 1222.37,824.048 1224.62,817.944 1226.86,811.779 1229.1,805.552 1231.35,799.262 1233.59,792.909 1235.83,786.492 1238.07,780.01 1240.32,773.463 1242.56,766.85 1244.8,760.171 1247.04,753.424 1249.29,746.61 1251.53,739.727 1253.77,732.775 1256.02,725.753 1258.26,718.66 1260.5,711.496 1262.74,704.259 1264.99,696.95 1267.23,689.567 1269.47,682.11 1271.72,674.578 1273.96,666.971 1276.2,659.286 1278.44,651.525 1280.69,643.685 1282.93,635.767 1285.17,627.768 1287.42,1025.27 1289.66,1021.19 1291.9,1017.07 1294.14,1012.91 1296.39,1008.7 1298.63,1004.45 1300.87,1000.17 1303.12,995.833 1305.36,991.457 1307.6,987.036 1309.84,982.572 1312.09,978.063 1314.33,973.508 1316.57,968.908 1318.82,964.261 1321.06,959.568 1323.3,954.828 1325.54,950.04 1327.79,945.204 1330.03,940.32 1332.27,935.387 1334.51,930.404 1336.76,925.371 1339,920.288 1341.24,915.153 1343.49,909.968 1345.73,904.73 1347.97,899.439 1350.21,894.096 1352.46,888.698 1354.7,883.247 1356.94,877.741 1359.19,872.179 1361.43,866.562 1363.67,860.888 1365.91,855.157 1368.16,849.368 1370.4,843.521 1372.64,837.616 1374.89,831.65 1377.13,825.625 1379.37,819.539 1381.61,813.392 1383.86,807.183 1386.1,800.912 1388.34,794.577 1390.59,788.178 1392.83,781.715 1395.07,775.187 1397.31,768.593 1399.56,761.932 1401.8,755.205 1404.04,748.409 1406.29,741.545 1408.53,734.612 1410.77,727.608 1413.01,720.534 1415.26,713.389 1417.5,706.172 1419.74,698.881 1421.98,691.518 1424.23,684.079 1426.47,676.566 1428.71,668.977 1430.96,661.312 1433.2,653.569 1435.44,645.748 1437.68,637.848 1439.93,629.869 1442.17,621.809 1444.41,613.668 1446.66,605.445 1448.9,597.139 1451.14,588.75 1453.38,580.276 1455.63,571.716 1457.87,563.071 1460.11,554.338 1462.36,545.518 1464.6,536.609 1466.84,527.611 1469.08,518.522 1471.33,509.342 1473.57,500.069 1475.81,490.704 1478.06,481.245 1480.3,471.691 1482.54,462.041 1484.78,452.295 1487.03,442.451 1489.27,432.508 1491.51,422.465 1493.76,412.321 1496,402.075 1498.24,391.726 1500.48,381.273 1502.73,370.714 1504.97,360.05 1507.21,349.278 1509.46,338.398 1511.7,327.408 1513.94,316.308 1516.18,305.096 1518.43,293.771 1520.67,282.332 1522.91,270.779 1525.15,259.109 1527.4,247.321 1529.64,235.415 1531.88,223.39 1534.13,211.243 1536.37,198.974 1538.61,186.581 1540.85,174.064 1543.1,796.112 1545.34,789.727 1547.58,783.277 1549.83,776.763 1552.07,770.183 1554.31,763.536 1556.55,756.823 1558.8,750.042 1561.04,743.194 1563.28,736.276 1565.53,729.289 1567.77,722.231 1570.01,715.103 1572.25,707.903 1574.5,700.631 1576.74,693.285 1578.98,685.866 1581.23,678.373 1583.47,670.804 1585.71,663.159 1587.95,655.437 1590.2,647.638 1592.44,639.761 1594.68,631.804 1596.93,623.767 1599.17,615.65 1601.41,607.451 1603.65,599.169 1605.9,590.805 1608.14,582.356 1610.38,573.822 1612.62,565.203 1614.87,556.497 1617.11,547.703 1619.35,538.82 1621.6,529.849 1623.84,520.787 1626.08,511.634 1628.32,502.388 1630.57,493.05 1632.81,483.617 1635.05,474.09 1637.3,464.466 1639.54,454.746 1641.78,444.928 1644.02,435.01 1646.27,424.993 1648.51,414.875 1650.75,404.655 1653,394.332 1655.24,383.905 1657.48,373.372 1659.72,362.734 1661.97,351.988 1664.21,341.135 1666.45,330.171 1668.7,319.098 1670.94,307.912 1673.18,296.614 1675.42,285.203 1677.67,273.676 1679.91,262.033 1682.15,250.273 1684.4,238.395 1686.64,226.397 1688.88,214.278 1691.12,202.038 1693.37,189.674 1695.61,177.186 1697.85,164.572 1700.09,151.832 1702.34,138.964 1704.58,125.966 1706.82,112.838 1709.07,99.5784 1711.31,86.1857 1713.55,751.819 1715.79,744.988 1718.04,738.089 1720.28,731.12 1722.52,724.081 1724.77,716.971 1727.01,709.79 1729.25,702.536 1731.49,695.21 1733.74,687.809 1735.98,680.335 1738.22,672.785 1740.47,665.16 1742.71,657.457 1744.95,649.677 1747.19,641.819 1749.44,633.883 1751.68,625.866 1753.92,617.768 1756.17,609.589 1758.41,601.328 1760.65,592.984 1762.89,584.556 1765.14,576.043 1767.38,567.445 1769.62,558.76 1771.87,549.987 1774.11,541.126 1776.35,532.177 1778.59,523.137 1780.84,514.006 1783.08,504.783 1785.32,495.467 1787.56,486.058 1789.81,476.554 1792.05,466.954 1794.29,457.258 1796.54,447.463 1798.78,437.571 1801.02,427.579 1803.26,417.486 1805.51,407.291 1807.75,396.994 1809.99,386.594 1812.24,376.089 1814.48,365.478 1816.72,354.76 1818.96,343.934 1821.21,333 1823.45,321.955 1825.69,310.8 1827.94,299.532 1830.18,288.151 1832.42,276.656 1834.66,848.011 1836.91,842.149 1839.15,836.227 1841.39,830.245 1843.64,824.204 1845.88,818.101 1848.12,811.937 1850.36,805.712 1852.61,799.423 1854.85,793.072 1857.09,786.656 1859.34,780.176 1861.58,773.631 1863.82,767.019 1866.06,760.342 1868.31,753.597 1870.55,746.784 1872.79,739.903 1875.03,732.953 1877.28,725.932 1879.52,718.841 1881.76,711.679 1884.01,704.444 1886.25,697.137 1888.49,689.756 1890.73,682.301 1892.98,1052.78 1895.22,1048.98 1897.46,1045.14 1899.71,1041.26 1901.95,1037.34 1904.19,1033.38 1906.43,1029.39 1908.68,1025.35 1910.92,1021.27 1913.16,1017.15 1915.41,1012.99 1917.65,1008.78 1919.89,1004.54 1922.13,1000.25 1924.38,995.919 1926.62,991.544 1928.86,987.125 1931.11,982.662 1933.35,978.154 1935.59,973.6 1937.83,969.001 1940.08,964.355 1942.32,959.663 1944.56,954.924 1946.81,950.136 1949.05,945.301 1951.29,940.417 1953.53,935.483 1955.78,930.501 1958.02,925.468 1960.26,920.384 1962.5,915.249 1964.75,910.063 1966.99,904.824 1969.23,899.532 1971.48,894.188 1973.72,888.789 1975.96,883.337 1978.2,877.829 1980.45,872.266 1982.69,866.647 1984.93,1145.91 1987.18,1143.04 1989.42,1140.15 1991.66,1137.22 1993.9,1134.27 1996.15,1131.28 1998.39,1128.27 2000.63,1125.23 2002.88,1122.15 2005.12,1119.05 2007.36,1115.91 2009.6,1112.74 2011.85,1109.54 2014.09,1106.31 2016.33,1103.05 2018.58,1099.75 2020.82,1096.42 2023.06,1093.06 2025.3,1089.66 2027.55,1086.23 2029.79,1082.76 2032.03,1079.26 2034.28,1075.73 2036.52,1072.16 2038.76,1068.55 2041,1064.91 2043.25,1061.23 2045.49,1057.51 2047.73,1053.76 2049.97,1049.97 2052.22,1046.14 2054.46,1042.27 2056.7,1038.37 2058.95,1034.42 2061.19,1030.44 2063.43,1026.41 2065.67,1022.34 2067.92,1018.24 2070.16,1014.09 2072.4,1009.9 2074.65,1005.67 2076.89,1001.4 2079.13,997.079 2081.37,992.718 2083.62,988.313 2085.86,983.865 2088.1,979.371 2090.35,974.832 2092.59,970.247 2094.83,965.616 2097.07,960.939 2099.32,956.214 2101.56,951.441 2103.8,946.621 2106.05,941.751 2108.29,936.833 2110.53,931.865 2112.77,926.846 2115.02,921.778 2117.26,916.657 2119.5,911.486 2121.75,906.262 2123.99,900.985 2126.23,895.655 2128.47,890.271 2130.72,884.833 2132.96,879.339 2135.2,873.791 2137.45,868.186 2139.69,862.525 2141.93,856.806 2144.17,851.03 2146.42,845.195 2148.66,839.302 2150.9,833.349 2153.14,827.336 2155.39,821.263 2157.63,815.128 2159.87,808.931 2162.12,802.672 2164.36,796.35 2166.6,789.964 2168.84,783.514 2171.09,776.998 2173.33,770.418 2175.57,763.771 2177.82,757.057 2180.06,750.276 2182.3,743.427 2184.54,736.509 2186.79,729.521 2189.03,722.463 2191.27,715.335 2193.52,708.135 2195.76,700.863 2198,693.519 2200.24,686.101 2202.49,678.608 2204.73,671.041 2206.97,663.398 2209.22,655.678 2211.46,647.88 2213.7,640.004 2215.94,632.048 2218.19,624.012 2220.43,615.896 2222.67,607.698 2224.92,599.417 2227.16,591.053 2229.4,582.606 2231.64,574.073 2233.89,565.454 2236.13,556.749 2238.37,547.956 2240.61,539.074 2242.86,530.104 2245.1,521.043 2247.34,511.891 2249.59,502.647 2251.83,493.31 2254.07,483.879 2256.31,474.353 2258.56,464.731 2260.8,455.012 2263.04,445.196 2265.29,435.281 2267.53,425.266 2269.77,415.15 2272.01,404.933 2274.26,394.612 2276.5,384.188 2278.74,373.659 2280.99,363.024 2283.23,352.282 2285.47,341.431 2287.71,330.472 2289.96,319.402 2292.2,308.221 2294.44,296.928 2296.69,285.52 2298.93,273.998 2301.17,262.361 2303.41,250.606 2305.66,238.733 2307.9,828.775 2310.14,822.719 2312.39,816.601 2314.63,810.422 2316.87,804.181 2319.11,797.878 2321.36,791.51 2323.6,785.079 2325.84,778.583 2328.08,772.022 2330.33,765.394 2332.57,758.7 2334.81,751.939 2337.06,745.11 2339.3,738.212 2341.54,731.244 2343.78,724.206 2346.03,717.098 2348.27,709.918 2350.51,702.666 2352.76,695.341 "/>
<path clip-path="url(#clip140)" d="M186.863 196.789 L500.018 196.789 L500.018 93.1086 L186.863 93.1086  Z" fill="#ffffff" fill-rule="evenodd" fill-opacity="1"/>
<polyline clip-path="url(#clip140)" style="stroke:#000000; stroke-linecap:round; stroke-linejoin:round; stroke-width:4; stroke-opacity:1; fill:none" points="186.863,196.789 500.018,196.789 500.018,93.1086 186.863,93.1086 186.863,196.789 "/>
<polyline clip-path="url(#clip140)" style="stroke:#009af9; stroke-linecap:round; stroke-linejoin:round; stroke-width:8; stroke-opacity:1; fill:none" points="211.758,144.949 361.13,144.949 "/>
<path clip-path="url(#clip140)" d="M386.026 151.997 L386.026 136.303 L390.285 136.303 L390.285 151.835 Q390.285 155.516 391.72 157.368 Q393.155 159.196 396.026 159.196 Q399.475 159.196 401.465 156.997 Q403.479 154.798 403.479 151.002 L403.479 136.303 L407.739 136.303 L407.739 162.229 L403.479 162.229 L403.479 158.247 Q401.928 160.608 399.868 161.766 Q397.831 162.9 395.123 162.9 Q390.655 162.9 388.34 160.122 Q386.026 157.344 386.026 151.997 M396.743 135.678 L396.743 135.678 Z" fill="#000000" fill-rule="nonzero" fill-opacity="1" /><path clip-path="url(#clip140)" d="M416.118 126.21 L425.933 126.21 L425.933 129.52 L420.377 129.52 L420.377 165.168 L425.933 165.168 L425.933 168.479 L416.118 168.479 L416.118 126.21 Z" fill="#000000" fill-rule="nonzero" fill-opacity="1" /><path clip-path="url(#clip140)" d="M436.419 158.293 L444.058 158.293 L444.058 131.928 L435.748 133.595 L435.748 129.335 L444.011 127.669 L448.687 127.669 L448.687 158.293 L456.326 158.293 L456.326 162.229 L436.419 162.229 L436.419 158.293 Z" fill="#000000" fill-rule="nonzero" fill-opacity="1" /><path clip-path="url(#clip140)" d="M475.122 126.21 L475.122 168.479 L465.308 168.479 L465.308 165.168 L470.84 165.168 L470.84 129.52 L465.308 129.52 L465.308 126.21 L475.122 126.21 Z" fill="#000000" fill-rule="nonzero" fill-opacity="1" /></svg>
