<?xml version="1.0" encoding="utf-8"?>
<svg xmlns="http://www.w3.org/2000/svg" xmlns:xlink="http://www.w3.org/1999/xlink" width="600" height="400" viewBox="0 0 2400 1600">
<defs>
  <clipPath id="clip590">
    <rect x="0" y="0" width="2400" height="1600"/>
  </clipPath>
</defs>
<path clip-path="url(#clip590)" d="M0 1600 L2400 1600 L2400 0 L0 0  Z" fill="#ffffff" fill-rule="evenodd" fill-opacity="1"/>
<defs>
  <clipPath id="clip591">
    <rect x="480" y="0" width="1681" height="1600"/>
  </clipPath>
</defs>
<path clip-path="url(#clip590)" d="M155.927 1486.45 L2352.76 1486.45 L2352.76 47.2441 L155.927 47.2441  Z" fill="#ffffff" fill-rule="evenodd" fill-opacity="1"/>
<defs>
  <clipPath id="clip592">
    <rect x="155" y="47" width="2198" height="1440"/>
  </clipPath>
</defs>
<polyline clip-path="url(#clip592)" style="stroke:#000000; stroke-linecap:round; stroke-linejoin:round; stroke-width:2; stroke-opacity:0.1; fill:none" points="216.101,1486.45 216.101,47.2441 "/>
<polyline clip-path="url(#clip592)" style="stroke:#000000; stroke-linecap:round; stroke-linejoin:round; stroke-width:2; stroke-opacity:0.1; fill:none" points="716.217,1486.45 716.217,47.2441 "/>
<polyline clip-path="url(#clip592)" style="stroke:#000000; stroke-linecap:round; stroke-linejoin:round; stroke-width:2; stroke-opacity:0.1; fill:none" points="1216.33,1486.45 1216.33,47.2441 "/>
<polyline clip-path="url(#clip592)" style="stroke:#000000; stroke-linecap:round; stroke-linejoin:round; stroke-width:2; stroke-opacity:0.1; fill:none" points="1716.45,1486.45 1716.45,47.2441 "/>
<polyline clip-path="url(#clip592)" style="stroke:#000000; stroke-linecap:round; stroke-linejoin:round; stroke-width:2; stroke-opacity:0.1; fill:none" points="2216.56,1486.45 2216.56,47.2441 "/>
<polyline clip-path="url(#clip592)" style="stroke:#000000; stroke-linecap:round; stroke-linejoin:round; stroke-width:2; stroke-opacity:0.1; fill:none" points="155.927,1445.72 2352.76,1445.72 "/>
<polyline clip-path="url(#clip592)" style="stroke:#000000; stroke-linecap:round; stroke-linejoin:round; stroke-width:2; stroke-opacity:0.1; fill:none" points="155.927,1124.97 2352.76,1124.97 "/>
<polyline clip-path="url(#clip592)" style="stroke:#000000; stroke-linecap:round; stroke-linejoin:round; stroke-width:2; stroke-opacity:0.1; fill:none" points="155.927,804.224 2352.76,804.224 "/>
<polyline clip-path="url(#clip592)" style="stroke:#000000; stroke-linecap:round; stroke-linejoin:round; stroke-width:2; stroke-opacity:0.1; fill:none" points="155.927,483.478 2352.76,483.478 "/>
<polyline clip-path="url(#clip592)" style="stroke:#000000; stroke-linecap:round; stroke-linejoin:round; stroke-width:2; stroke-opacity:0.1; fill:none" points="155.927,162.732 2352.76,162.732 "/>
<polyline clip-path="url(#clip590)" style="stroke:#000000; stroke-linecap:round; stroke-linejoin:round; stroke-width:4; stroke-opacity:1; fill:none" points="155.927,1486.45 2352.76,1486.45 "/>
<polyline clip-path="url(#clip590)" style="stroke:#000000; stroke-linecap:round; stroke-linejoin:round; stroke-width:4; stroke-opacity:1; fill:none" points="216.101,1486.45 216.101,1467.55 "/>
<polyline clip-path="url(#clip590)" style="stroke:#000000; stroke-linecap:round; stroke-linejoin:round; stroke-width:4; stroke-opacity:1; fill:none" points="716.217,1486.45 716.217,1467.55 "/>
<polyline clip-path="url(#clip590)" style="stroke:#000000; stroke-linecap:round; stroke-linejoin:round; stroke-width:4; stroke-opacity:1; fill:none" points="1216.33,1486.45 1216.33,1467.55 "/>
<polyline clip-path="url(#clip590)" style="stroke:#000000; stroke-linecap:round; stroke-linejoin:round; stroke-width:4; stroke-opacity:1; fill:none" points="1716.45,1486.45 1716.45,1467.55 "/>
<polyline clip-path="url(#clip590)" style="stroke:#000000; stroke-linecap:round; stroke-linejoin:round; stroke-width:4; stroke-opacity:1; fill:none" points="2216.56,1486.45 2216.56,1467.55 "/>
<path clip-path="url(#clip590)" d="M216.101 1517.37 Q212.49 1517.37 210.661 1520.93 Q208.856 1524.47 208.856 1531.6 Q208.856 1538.71 210.661 1542.27 Q212.49 1545.82 216.101 1545.82 Q219.735 1545.82 221.541 1542.27 Q223.369 1538.71 223.369 1531.6 Q223.369 1524.47 221.541 1520.93 Q219.735 1517.37 216.101 1517.37 M216.101 1513.66 Q221.911 1513.66 224.967 1518.27 Q228.045 1522.85 228.045 1531.6 Q228.045 1540.33 224.967 1544.94 Q221.911 1549.52 216.101 1549.52 Q210.291 1549.52 207.212 1544.94 Q204.157 1540.33 204.157 1531.6 Q204.157 1522.85 207.212 1518.27 Q210.291 1513.66 216.101 1513.66 Z" fill="#000000" fill-rule="nonzero" fill-opacity="1" /><path clip-path="url(#clip590)" d="M679.909 1544.91 L696.228 1544.91 L696.228 1548.85 L674.284 1548.85 L674.284 1544.91 Q676.946 1542.16 681.529 1537.53 Q686.136 1532.88 687.316 1531.53 Q689.562 1529.01 690.441 1527.27 Q691.344 1525.51 691.344 1523.82 Q691.344 1521.07 689.4 1519.33 Q687.478 1517.6 684.377 1517.6 Q682.178 1517.6 679.724 1518.36 Q677.293 1519.13 674.516 1520.68 L674.516 1515.95 Q677.34 1514.82 679.793 1514.24 Q682.247 1513.66 684.284 1513.66 Q689.654 1513.66 692.849 1516.35 Q696.043 1519.03 696.043 1523.52 Q696.043 1525.65 695.233 1527.57 Q694.446 1529.47 692.34 1532.07 Q691.761 1532.74 688.659 1535.95 Q685.557 1539.15 679.909 1544.91 Z" fill="#000000" fill-rule="nonzero" fill-opacity="1" /><path clip-path="url(#clip590)" d="M706.089 1514.29 L724.446 1514.29 L724.446 1518.22 L710.372 1518.22 L710.372 1526.7 Q711.39 1526.35 712.409 1526.19 Q713.427 1526 714.446 1526 Q720.233 1526 723.613 1529.17 Q726.992 1532.34 726.992 1537.76 Q726.992 1543.34 723.52 1546.44 Q720.048 1549.52 713.728 1549.52 Q711.552 1549.52 709.284 1549.15 Q707.039 1548.78 704.631 1548.04 L704.631 1543.34 Q706.714 1544.47 708.937 1545.03 Q711.159 1545.58 713.636 1545.58 Q717.64 1545.58 719.978 1543.48 Q722.316 1541.37 722.316 1537.76 Q722.316 1534.15 719.978 1532.04 Q717.64 1529.94 713.636 1529.94 Q711.761 1529.94 709.886 1530.35 Q708.034 1530.77 706.089 1531.65 L706.089 1514.29 Z" fill="#000000" fill-rule="nonzero" fill-opacity="1" /><path clip-path="url(#clip590)" d="M746.205 1517.37 Q742.594 1517.37 740.765 1520.93 Q738.96 1524.47 738.96 1531.6 Q738.96 1538.71 740.765 1542.27 Q742.594 1545.82 746.205 1545.82 Q749.839 1545.82 751.645 1542.27 Q753.473 1538.71 753.473 1531.6 Q753.473 1524.47 751.645 1520.93 Q749.839 1517.37 746.205 1517.37 M746.205 1513.66 Q752.015 1513.66 755.071 1518.27 Q758.149 1522.85 758.149 1531.6 Q758.149 1540.33 755.071 1544.94 Q752.015 1549.52 746.205 1549.52 Q740.395 1549.52 737.316 1544.94 Q734.261 1540.33 734.261 1531.6 Q734.261 1522.85 737.316 1518.27 Q740.395 1513.66 746.205 1513.66 Z" fill="#000000" fill-rule="nonzero" fill-opacity="1" /><path clip-path="url(#clip590)" d="M1175.95 1514.29 L1194.31 1514.29 L1194.31 1518.22 L1180.23 1518.22 L1180.23 1526.7 Q1181.25 1526.35 1182.27 1526.19 Q1183.29 1526 1184.31 1526 Q1190.09 1526 1193.47 1529.17 Q1196.85 1532.34 1196.85 1537.76 Q1196.85 1543.34 1193.38 1546.44 Q1189.91 1549.52 1183.59 1549.52 Q1181.41 1549.52 1179.15 1549.15 Q1176.9 1548.78 1174.49 1548.04 L1174.49 1543.34 Q1176.58 1544.47 1178.8 1545.03 Q1181.02 1545.58 1183.5 1545.58 Q1187.5 1545.58 1189.84 1543.48 Q1192.18 1541.37 1192.18 1537.76 Q1192.18 1534.15 1189.84 1532.04 Q1187.5 1529.94 1183.5 1529.94 Q1181.62 1529.94 1179.75 1530.35 Q1177.9 1530.77 1175.95 1531.65 L1175.95 1514.29 Z" fill="#000000" fill-rule="nonzero" fill-opacity="1" /><path clip-path="url(#clip590)" d="M1216.07 1517.37 Q1212.46 1517.37 1210.63 1520.93 Q1208.82 1524.47 1208.82 1531.6 Q1208.82 1538.71 1210.63 1542.27 Q1212.46 1545.82 1216.07 1545.82 Q1219.7 1545.82 1221.51 1542.27 Q1223.33 1538.71 1223.33 1531.6 Q1223.33 1524.47 1221.51 1520.93 Q1219.7 1517.37 1216.07 1517.37 M1216.07 1513.66 Q1221.88 1513.66 1224.93 1518.27 Q1228.01 1522.85 1228.01 1531.6 Q1228.01 1540.33 1224.93 1544.94 Q1221.88 1549.52 1216.07 1549.52 Q1210.26 1549.52 1207.18 1544.94 Q1204.12 1540.33 1204.12 1531.6 Q1204.12 1522.85 1207.18 1518.27 Q1210.26 1513.66 1216.07 1513.66 Z" fill="#000000" fill-rule="nonzero" fill-opacity="1" /><path clip-path="url(#clip590)" d="M1246.23 1517.37 Q1242.62 1517.37 1240.79 1520.93 Q1238.98 1524.47 1238.98 1531.6 Q1238.98 1538.71 1240.79 1542.27 Q1242.62 1545.82 1246.23 1545.82 Q1249.86 1545.82 1251.67 1542.27 Q1253.5 1538.71 1253.5 1531.6 Q1253.5 1524.47 1251.67 1520.93 Q1249.86 1517.37 1246.23 1517.37 M1246.23 1513.66 Q1252.04 1513.66 1255.09 1518.27 Q1258.17 1522.85 1258.17 1531.6 Q1258.17 1540.33 1255.09 1544.94 Q1252.04 1549.52 1246.23 1549.52 Q1240.42 1549.52 1237.34 1544.94 Q1234.28 1540.33 1234.28 1531.6 Q1234.28 1522.85 1237.34 1518.27 Q1240.42 1513.66 1246.23 1513.66 Z" fill="#000000" fill-rule="nonzero" fill-opacity="1" /><path clip-path="url(#clip590)" d="M1674.72 1514.29 L1696.95 1514.29 L1696.95 1516.28 L1684.4 1548.85 L1679.52 1548.85 L1691.32 1518.22 L1674.72 1518.22 L1674.72 1514.29 Z" fill="#000000" fill-rule="nonzero" fill-opacity="1" /><path clip-path="url(#clip590)" d="M1706.11 1514.29 L1724.47 1514.29 L1724.47 1518.22 L1710.4 1518.22 L1710.4 1526.7 Q1711.41 1526.35 1712.43 1526.19 Q1713.45 1526 1714.47 1526 Q1720.26 1526 1723.64 1529.17 Q1727.02 1532.34 1727.02 1537.76 Q1727.02 1543.34 1723.54 1546.44 Q1720.07 1549.52 1713.75 1549.52 Q1711.58 1549.52 1709.31 1549.15 Q1707.06 1548.78 1704.65 1548.04 L1704.65 1543.34 Q1706.74 1544.47 1708.96 1545.03 Q1711.18 1545.58 1713.66 1545.58 Q1717.66 1545.58 1720 1543.48 Q1722.34 1541.37 1722.34 1537.76 Q1722.34 1534.15 1720 1532.04 Q1717.66 1529.94 1713.66 1529.94 Q1711.78 1529.94 1709.91 1530.35 Q1708.06 1530.77 1706.11 1531.65 L1706.11 1514.29 Z" fill="#000000" fill-rule="nonzero" fill-opacity="1" /><path clip-path="url(#clip590)" d="M1746.23 1517.37 Q1742.62 1517.37 1740.79 1520.93 Q1738.98 1524.47 1738.98 1531.6 Q1738.98 1538.71 1740.79 1542.27 Q1742.62 1545.82 1746.23 1545.82 Q1749.86 1545.82 1751.67 1542.27 Q1753.5 1538.71 1753.5 1531.6 Q1753.5 1524.47 1751.67 1520.93 Q1749.86 1517.37 1746.23 1517.37 M1746.23 1513.66 Q1752.04 1513.66 1755.09 1518.27 Q1758.17 1522.85 1758.17 1531.6 Q1758.17 1540.33 1755.09 1544.94 Q1752.04 1549.52 1746.23 1549.52 Q1740.42 1549.52 1737.34 1544.94 Q1734.28 1540.33 1734.28 1531.6 Q1734.28 1522.85 1737.34 1518.27 Q1740.42 1513.66 1746.23 1513.66 Z" fill="#000000" fill-rule="nonzero" fill-opacity="1" /><path clip-path="url(#clip590)" d="M2161.09 1544.91 L2168.73 1544.91 L2168.73 1518.55 L2160.42 1520.21 L2160.42 1515.95 L2168.68 1514.29 L2173.36 1514.29 L2173.36 1544.91 L2181 1544.91 L2181 1548.85 L2161.09 1548.85 L2161.09 1544.91 Z" fill="#000000" fill-rule="nonzero" fill-opacity="1" /><path clip-path="url(#clip590)" d="M2200.44 1517.37 Q2196.83 1517.37 2195 1520.93 Q2193.2 1524.47 2193.2 1531.6 Q2193.2 1538.71 2195 1542.27 Q2196.83 1545.82 2200.44 1545.82 Q2204.08 1545.82 2205.88 1542.27 Q2207.71 1538.71 2207.71 1531.6 Q2207.71 1524.47 2205.88 1520.93 Q2204.08 1517.37 2200.44 1517.37 M2200.44 1513.66 Q2206.25 1513.66 2209.31 1518.27 Q2212.39 1522.85 2212.39 1531.6 Q2212.39 1540.33 2209.31 1544.94 Q2206.25 1549.52 2200.44 1549.52 Q2194.63 1549.52 2191.55 1544.94 Q2188.5 1540.33 2188.5 1531.6 Q2188.5 1522.85 2191.55 1518.27 Q2194.63 1513.66 2200.44 1513.66 Z" fill="#000000" fill-rule="nonzero" fill-opacity="1" /><path clip-path="url(#clip590)" d="M2230.6 1517.37 Q2226.99 1517.37 2225.16 1520.93 Q2223.36 1524.47 2223.36 1531.6 Q2223.36 1538.71 2225.16 1542.27 Q2226.99 1545.82 2230.6 1545.82 Q2234.24 1545.82 2236.04 1542.27 Q2237.87 1538.71 2237.87 1531.6 Q2237.87 1524.47 2236.04 1520.93 Q2234.24 1517.37 2230.6 1517.37 M2230.6 1513.66 Q2236.41 1513.66 2239.47 1518.27 Q2242.55 1522.85 2242.55 1531.6 Q2242.55 1540.33 2239.47 1544.94 Q2236.41 1549.52 2230.6 1549.52 Q2224.79 1549.52 2221.71 1544.94 Q2218.66 1540.33 2218.66 1531.6 Q2218.66 1522.85 2221.71 1518.27 Q2224.79 1513.66 2230.6 1513.66 Z" fill="#000000" fill-rule="nonzero" fill-opacity="1" /><path clip-path="url(#clip590)" d="M2260.77 1517.37 Q2257.15 1517.37 2255.33 1520.93 Q2253.52 1524.47 2253.52 1531.6 Q2253.52 1538.71 2255.33 1542.27 Q2257.15 1545.82 2260.77 1545.82 Q2264.4 1545.82 2266.21 1542.27 Q2268.03 1538.71 2268.03 1531.6 Q2268.03 1524.47 2266.21 1520.93 Q2264.4 1517.37 2260.77 1517.37 M2260.77 1513.66 Q2266.58 1513.66 2269.63 1518.27 Q2272.71 1522.85 2272.71 1531.6 Q2272.71 1540.33 2269.63 1544.94 Q2266.58 1549.52 2260.77 1549.52 Q2254.96 1549.52 2251.88 1544.94 Q2248.82 1540.33 2248.82 1531.6 Q2248.82 1522.85 2251.88 1518.27 Q2254.96 1513.66 2260.77 1513.66 Z" fill="#000000" fill-rule="nonzero" fill-opacity="1" /><polyline clip-path="url(#clip590)" style="stroke:#000000; stroke-linecap:round; stroke-linejoin:round; stroke-width:4; stroke-opacity:1; fill:none" points="155.927,1486.45 155.927,47.2441 "/>
<polyline clip-path="url(#clip590)" style="stroke:#000000; stroke-linecap:round; stroke-linejoin:round; stroke-width:4; stroke-opacity:1; fill:none" points="155.927,1445.72 174.825,1445.72 "/>
<polyline clip-path="url(#clip590)" style="stroke:#000000; stroke-linecap:round; stroke-linejoin:round; stroke-width:4; stroke-opacity:1; fill:none" points="155.927,1124.97 174.825,1124.97 "/>
<polyline clip-path="url(#clip590)" style="stroke:#000000; stroke-linecap:round; stroke-linejoin:round; stroke-width:4; stroke-opacity:1; fill:none" points="155.927,804.224 174.825,804.224 "/>
<polyline clip-path="url(#clip590)" style="stroke:#000000; stroke-linecap:round; stroke-linejoin:round; stroke-width:4; stroke-opacity:1; fill:none" points="155.927,483.478 174.825,483.478 "/>
<polyline clip-path="url(#clip590)" style="stroke:#000000; stroke-linecap:round; stroke-linejoin:round; stroke-width:4; stroke-opacity:1; fill:none" points="155.927,162.732 174.825,162.732 "/>
<path clip-path="url(#clip590)" d="M52.7977 1428.44 L71.1541 1428.44 L71.1541 1432.37 L57.0801 1432.37 L57.0801 1440.84 Q58.0986 1440.5 59.1171 1440.33 Q60.1356 1440.15 61.1541 1440.15 Q66.9411 1440.15 70.3207 1443.32 Q73.7003 1446.49 73.7003 1451.91 Q73.7003 1457.49 70.2281 1460.59 Q66.7559 1463.67 60.4365 1463.67 Q58.2606 1463.67 55.9921 1463.3 Q53.7467 1462.93 51.3393 1462.19 L51.3393 1457.49 Q53.4227 1458.62 55.6449 1459.18 Q57.8671 1459.73 60.3439 1459.73 Q64.3485 1459.73 66.6865 1457.63 Q69.0244 1455.52 69.0244 1451.91 Q69.0244 1448.3 66.6865 1446.19 Q64.3485 1444.08 60.3439 1444.08 Q58.4689 1444.08 56.5939 1444.5 Q54.7421 1444.92 52.7977 1445.8 L52.7977 1428.44 Z" fill="#000000" fill-rule="nonzero" fill-opacity="1" /><path clip-path="url(#clip590)" d="M82.9133 1457.12 L87.7975 1457.12 L87.7975 1463 L82.9133 1463 L82.9133 1457.12 Z" fill="#000000" fill-rule="nonzero" fill-opacity="1" /><path clip-path="url(#clip590)" d="M107.983 1431.51 Q104.371 1431.51 102.543 1435.08 Q100.737 1438.62 100.737 1445.75 Q100.737 1452.86 102.543 1456.42 Q104.371 1459.96 107.983 1459.96 Q111.617 1459.96 113.422 1456.42 Q115.251 1452.86 115.251 1445.75 Q115.251 1438.62 113.422 1435.08 Q111.617 1431.51 107.983 1431.51 M107.983 1427.81 Q113.793 1427.81 116.848 1432.42 Q119.927 1437 119.927 1445.75 Q119.927 1454.48 116.848 1459.08 Q113.793 1463.67 107.983 1463.67 Q102.172 1463.67 99.0937 1459.08 Q96.0382 1454.48 96.0382 1445.75 Q96.0382 1437 99.0937 1432.42 Q102.172 1427.81 107.983 1427.81 Z" fill="#000000" fill-rule="nonzero" fill-opacity="1" /><path clip-path="url(#clip590)" d="M53.793 1107.69 L72.1494 1107.69 L72.1494 1111.62 L58.0754 1111.62 L58.0754 1120.1 Q59.0939 1119.75 60.1124 1119.59 Q61.131 1119.4 62.1495 1119.4 Q67.9365 1119.4 71.3161 1122.57 Q74.6957 1125.75 74.6957 1131.16 Q74.6957 1136.74 71.2235 1139.84 Q67.7513 1142.92 61.4319 1142.92 Q59.256 1142.92 56.9875 1142.55 Q54.7421 1142.18 52.3347 1141.44 L52.3347 1136.74 Q54.418 1137.87 56.6402 1138.43 Q58.8625 1138.99 61.3393 1138.99 Q65.3439 1138.99 67.6819 1136.88 Q70.0198 1134.77 70.0198 1131.16 Q70.0198 1127.55 67.6819 1125.44 Q65.3439 1123.34 61.3393 1123.34 Q59.4643 1123.34 57.5893 1123.75 Q55.7375 1124.17 53.793 1125.05 L53.793 1107.69 Z" fill="#000000" fill-rule="nonzero" fill-opacity="1" /><path clip-path="url(#clip590)" d="M83.9086 1136.37 L88.7928 1136.37 L88.7928 1142.25 L83.9086 1142.25 L83.9086 1136.37 Z" fill="#000000" fill-rule="nonzero" fill-opacity="1" /><path clip-path="url(#clip590)" d="M99.0243 1107.69 L117.381 1107.69 L117.381 1111.62 L103.307 1111.62 L103.307 1120.1 Q104.325 1119.75 105.344 1119.59 Q106.362 1119.4 107.381 1119.4 Q113.168 1119.4 116.547 1122.57 Q119.927 1125.75 119.927 1131.16 Q119.927 1136.74 116.455 1139.84 Q112.983 1142.92 106.663 1142.92 Q104.487 1142.92 102.219 1142.55 Q99.9733 1142.18 97.566 1141.44 L97.566 1136.74 Q99.6493 1137.87 101.871 1138.43 Q104.094 1138.99 106.571 1138.99 Q110.575 1138.99 112.913 1136.88 Q115.251 1134.77 115.251 1131.16 Q115.251 1127.55 112.913 1125.44 Q110.575 1123.34 106.571 1123.34 Q104.696 1123.34 102.821 1123.75 Q100.969 1124.17 99.0243 1125.05 L99.0243 1107.69 Z" fill="#000000" fill-rule="nonzero" fill-opacity="1" /><path clip-path="url(#clip590)" d="M63.33 802.36 Q60.1819 802.36 58.33 804.513 Q56.5014 806.666 56.5014 810.416 Q56.5014 814.143 58.33 816.319 Q60.1819 818.471 63.33 818.471 Q66.4782 818.471 68.3068 816.319 Q70.1587 814.143 70.1587 810.416 Q70.1587 806.666 68.3068 804.513 Q66.4782 802.36 63.33 802.36 M72.6124 787.708 L72.6124 791.967 Q70.8531 791.133 69.0476 790.694 Q67.2652 790.254 65.5059 790.254 Q60.8763 790.254 58.4226 793.379 Q55.9921 796.504 55.6449 802.823 Q57.0106 800.809 59.0708 799.745 Q61.131 798.657 63.6078 798.657 Q68.8161 798.657 71.8253 801.828 Q74.8577 804.976 74.8577 810.416 Q74.8577 815.74 71.7096 818.957 Q68.5615 822.175 63.33 822.175 Q57.3347 822.175 54.1634 817.592 Q50.9921 812.985 50.9921 804.258 Q50.9921 796.064 54.881 791.203 Q58.7699 786.319 65.3208 786.319 Q67.08 786.319 68.8624 786.666 Q70.6679 787.013 72.6124 787.708 Z" fill="#000000" fill-rule="nonzero" fill-opacity="1" /><path clip-path="url(#clip590)" d="M82.9133 815.624 L87.7975 815.624 L87.7975 821.504 L82.9133 821.504 L82.9133 815.624 Z" fill="#000000" fill-rule="nonzero" fill-opacity="1" /><path clip-path="url(#clip590)" d="M107.983 790.022 Q104.371 790.022 102.543 793.587 Q100.737 797.129 100.737 804.258 Q100.737 811.365 102.543 814.93 Q104.371 818.471 107.983 818.471 Q111.617 818.471 113.422 814.93 Q115.251 811.365 115.251 804.258 Q115.251 797.129 113.422 793.587 Q111.617 790.022 107.983 790.022 M107.983 786.319 Q113.793 786.319 116.848 790.925 Q119.927 795.508 119.927 804.258 Q119.927 812.985 116.848 817.592 Q113.793 822.175 107.983 822.175 Q102.172 822.175 99.0937 817.592 Q96.0382 812.985 96.0382 804.258 Q96.0382 795.508 99.0937 790.925 Q102.172 786.319 107.983 786.319 Z" fill="#000000" fill-rule="nonzero" fill-opacity="1" /><path clip-path="url(#clip590)" d="M64.3254 481.614 Q61.1773 481.614 59.3254 483.767 Q57.4967 485.92 57.4967 489.67 Q57.4967 493.397 59.3254 495.573 Q61.1773 497.725 64.3254 497.725 Q67.4735 497.725 69.3022 495.573 Q71.1541 493.397 71.1541 489.67 Q71.1541 485.92 69.3022 483.767 Q67.4735 481.614 64.3254 481.614 M73.6077 466.962 L73.6077 471.221 Q71.8485 470.387 70.0429 469.948 Q68.2606 469.508 66.5013 469.508 Q61.8717 469.508 59.418 472.633 Q56.9875 475.758 56.6402 482.077 Q58.006 480.063 60.0662 478.999 Q62.1263 477.911 64.6032 477.911 Q69.8115 477.911 72.8207 481.082 Q75.8531 484.23 75.8531 489.67 Q75.8531 494.994 72.705 498.211 Q69.5568 501.429 64.3254 501.429 Q58.33 501.429 55.1588 496.846 Q51.9875 492.239 51.9875 483.512 Q51.9875 475.318 55.8764 470.457 Q59.7652 465.573 66.3161 465.573 Q68.0754 465.573 69.8578 465.92 Q71.6633 466.267 73.6077 466.962 Z" fill="#000000" fill-rule="nonzero" fill-opacity="1" /><path clip-path="url(#clip590)" d="M83.9086 494.878 L88.7928 494.878 L88.7928 500.758 L83.9086 500.758 L83.9086 494.878 Z" fill="#000000" fill-rule="nonzero" fill-opacity="1" /><path clip-path="url(#clip590)" d="M99.0243 466.198 L117.381 466.198 L117.381 470.133 L103.307 470.133 L103.307 478.605 Q104.325 478.258 105.344 478.096 Q106.362 477.911 107.381 477.911 Q113.168 477.911 116.547 481.082 Q119.927 484.253 119.927 489.67 Q119.927 495.248 116.455 498.35 Q112.983 501.429 106.663 501.429 Q104.487 501.429 102.219 501.059 Q99.9733 500.688 97.566 499.948 L97.566 495.248 Q99.6493 496.383 101.871 496.938 Q104.094 497.494 106.571 497.494 Q110.575 497.494 112.913 495.387 Q115.251 493.281 115.251 489.67 Q115.251 486.059 112.913 483.952 Q110.575 481.846 106.571 481.846 Q104.696 481.846 102.821 482.262 Q100.969 482.679 99.0243 483.559 L99.0243 466.198 Z" fill="#000000" fill-rule="nonzero" fill-opacity="1" /><path clip-path="url(#clip590)" d="M51.5708 145.452 L73.7929 145.452 L73.7929 147.442 L61.2467 180.012 L56.3625 180.012 L68.168 149.387 L51.5708 149.387 L51.5708 145.452 Z" fill="#000000" fill-rule="nonzero" fill-opacity="1" /><path clip-path="url(#clip590)" d="M82.9133 174.132 L87.7975 174.132 L87.7975 180.012 L82.9133 180.012 L82.9133 174.132 Z" fill="#000000" fill-rule="nonzero" fill-opacity="1" /><path clip-path="url(#clip590)" d="M107.983 148.53 Q104.371 148.53 102.543 152.095 Q100.737 155.637 100.737 162.766 Q100.737 169.873 102.543 173.438 Q104.371 176.979 107.983 176.979 Q111.617 176.979 113.422 173.438 Q115.251 169.873 115.251 162.766 Q115.251 155.637 113.422 152.095 Q111.617 148.53 107.983 148.53 M107.983 144.827 Q113.793 144.827 116.848 149.433 Q119.927 154.016 119.927 162.766 Q119.927 171.493 116.848 176.1 Q113.793 180.683 107.983 180.683 Q102.172 180.683 99.0937 176.1 Q96.0382 171.493 96.0382 162.766 Q96.0382 154.016 99.0937 149.433 Q102.172 144.827 107.983 144.827 Z" fill="#000000" fill-rule="nonzero" fill-opacity="1" /><polyline clip-path="url(#clip592)" style="stroke:#009af9; stroke-linecap:round; stroke-linejoin:round; stroke-width:4; stroke-opacity:1; fill:none" points="218.101,1445.72 220.102,1445.72 222.102,1445.72 224.103,1445.72 226.103,1253.27 228.104,1253.27 230.104,1140.62 232.105,1162.86 234.105,1162.86 236.106,1105.13 238.106,1105.13 240.106,1041.11 242.107,1106.63 244.107,1168.1 246.108,1218.42 248.108,1259.62 250.109,1259.62 252.109,947.646 254.11,1017.77 256.11,1095.34 258.111,1095.34 260.111,1090.42 262.112,1090.42 264.112,1030.7 266.112,1031.65 268.113,1106.7 270.113,1168.16 272.114,1218.47 274.114,1218.47 276.115,988.108 278.115,1022.16 280.116,1098.94 282.116,1161.8 284.117,1213.26 286.117,1213.26 288.118,1040.66 290.118,1083.13 292.118,1148.85 294.119,1202.67 296.119,1202.67 298.12,1153.7 300.12,1153.7 302.121,987.267 304.121,1006.2 306.122,1085.87 308.122,1085.87 310.123,882.352 312.123,904.672 314.124,1002.75 316.124,1083.04 318.125,1083.04 320.125,1061.77 322.125,1089.22 324.126,1153.84 326.126,1206.75 328.127,1250.07 330.127,1285.53 332.128,1285.53 334.128,1040.35 336.129,1040.35 338.129,894.247 340.13,896.823 342.13,996.32 344.131,996.32 346.131,826.121 348.131,912.012 350.132,1008.76 352.132,1087.96 354.133,1152.81 356.133,1205.91 358.134,1249.38 360.134,1249.38 362.135,1121.79 364.135,1121.79 366.136,944.081 368.136,1013.87 370.137,1013.87 372.137,909.292 374.137,981.004 376.138,1065.24 378.138,1134.21 380.139,1134.21 382.139,1126.16 384.14,1126.62 386.14,1126.62 388.141,921.742 390.141,933.74 392.142,1026.55 394.142,1102.53 396.143,1164.74 398.143,1164.74 400.144,980.268 402.144,1053.5 404.144,1124.6 406.145,1124.6 408.145,997.777 410.146,1077.28 412.146,1077.28 414.147,980.749 416.147,1029.11 418.148,1104.63 420.148,1166.46 422.149,1217.08 424.149,1217.08 426.15,1175.82 428.15,1175.82 430.15,1126.69 432.151,1138.36 434.151,1194.07 436.152,1239.69 438.152,1277.03 440.153,1277.03 442.153,1230.14 444.154,1230.14 446.154,975.505 448.155,1012.93 450.155,1091.38 452.156,1091.38 454.156,907.938 456.156,993.935 458.157,993.935 460.157,890.954 462.158,964.551 464.158,1051.77 466.159,1123.18 468.159,1181.65 470.16,1229.51 472.16,1229.51 474.161,920.613 476.161,990.88 478.162,990.88 480.162,926.79 482.163,951.02 484.163,951.02 486.163,907.018 488.164,914.075 490.164,1010.45 492.165,1089.35 494.165,1153.95 496.166,1153.95 498.166,1059.45 500.167,1088.03 502.167,1088.03 504.168,798.711 506.168,864.962 508.169,864.962 510.169,804.14 512.169,851.384 514.17,851.384 516.17,700.539 518.171,703.562 520.171,838.091 522.172,948.235 524.172,948.235 526.173,830.258 528.173,931.146 530.174,931.146 532.174,765.107 534.175,858.334 536.175,964.809 538.176,1051.98 540.176,1051.98 542.176,831.924 544.177,891.78 546.177,992.192 548.178,992.192 550.178,934.892 552.179,1021.08 554.179,1021.08 556.18,900.828 558.18,990.978 560.181,990.978 562.181,924.793 564.182,951.748 566.182,951.748 568.182,772.767 570.183,772.767 572.183,545.077 574.184,653.646 576.184,653.646 578.185,583.147 580.185,610.987 582.186,762.298 584.186,886.181 586.187,886.181 588.187,893.282 590.188,927.422 592.188,1021.37 594.188,1021.37 596.189,837.229 598.189,937.586 600.19,937.586 602.19,807.044 604.191,850.272 606.191,958.208 608.192,1046.58 610.192,1118.93 612.193,1118.93 614.193,952.313 616.194,1007.08 618.194,1007.08 620.195,904.782 622.195,974.929 624.195,1060.27 626.196,1130.14 628.196,1130.14 630.197,947.396 632.197,1024.78 634.198,1101.08 636.198,1101.08 638.199,1042.38 640.199,1110.19 642.2,1110.19 644.2,1015.51 646.201,1054.27 648.201,1054.27 650.201,1022.74 652.202,1022.74 654.202,839.389 656.203,892.268 658.203,992.591 660.204,1074.73 662.204,1141.98 664.205,1197.04 666.205,1197.04 668.206,1104.9 670.206,1104.9 672.207,792.55 674.207,804.141 676.207,920.439 678.208,920.439 680.208,772.192 682.209,772.192 684.209,584.594 686.21,584.594 688.21,528.594 690.211,544.216 692.211,707.63 694.212,841.422 696.212,950.962 698.213,1040.65 700.213,1114.07 702.214,1174.19 704.214,1174.19 706.214,1002.35 708.215,1052.9 710.215,1052.9 712.216,1020.38 714.216,1020.38 716.217,915.417 718.217,946.117 720.218,1036.68 722.218,1110.82 724.219,1171.53 726.219,1221.23 728.22,1261.92 730.22,1295.24 732.22,1322.52 734.221,1322.52 736.221,1278.41 738.222,1282.12 740.222,1282.12 742.223,1168.89 744.223,1196.08 746.224,1241.33 748.224,1278.38 750.225,1278.38 752.225,1239.56 754.226,1246.82 756.226,1246.82 758.226,936.622 760.227,1005.57 762.227,1085.35 764.228,1150.67 766.228,1204.16 768.229,1204.16 770.229,1022.68 772.23,1082.88 774.23,1148.65 776.231,1202.5 778.231,1202.5 780.232,1149.12 782.232,1191.63 784.233,1191.63 786.233,871.674 788.233,871.674 790.234,872.423 792.234,914.873 794.235,1011.1 796.235,1089.88 798.236,1089.88 800.236,985.3 802.237,1041.84 804.237,1041.84 806.238,961.107 808.238,961.107 810.239,847.641 812.239,873.162 814.239,976.949 816.24,976.949 818.24,794.301 820.241,900.995 822.241,999.736 824.242,999.736 826.242,879.15 828.243,973.688 830.243,973.688 832.244,913.245 834.244,1006.32 836.245,1085.97 838.245,1151.18 840.245,1151.18 842.246,1091.91 844.246,1151.16 846.247,1204.55 848.247,1248.27 850.248,1284.06 852.248,1284.06 854.249,990.409 856.249,997.883 858.25,997.883 860.25,744.495 862.251,769.966 864.251,892.459 866.252,892.459 868.252,586.358 870.252,723.003 872.253,723.003 874.253,516.415 876.254,516.415 878.254,274.05 880.255,274.05 882.255,108.956 884.256,223.077 886.256,223.077 888.257,189.138 890.257,189.138 892.258,130.285 894.258,276.849 896.258,488.728 898.259,662.201 900.259,662.201 902.26,558.797 904.26,558.797 906.261,334.812 908.261,380.394 910.262,380.394 912.262,124.135 914.263,363.354 916.263,559.553 918.264,720.187 920.264,851.703 922.264,959.379 924.265,959.379 926.265,813.435 928.266,873.315 930.266,977.074 932.267,1062.02 934.267,1131.58 936.268,1131.58 938.268,965.408 940.269,965.408 942.269,924.856 944.27,956.295 946.27,956.295 948.271,909.249 950.271,990.589 952.271,990.589 954.272,705.834 956.272,787.935 958.273,907.171 960.273,907.171 962.274,721.362 964.274,721.362 966.275,621.472 968.275,637.04 970.276,783.628 972.276,903.644 974.277,1001.91 976.277,1001.91 978.277,920.752 980.278,964.828 982.278,1052 984.279,1052 986.279,837.171 988.28,888.351 990.28,989.384 992.281,1072.1 994.281,1139.83 996.282,1195.28 998.282,1195.28 1000.28,1027.24 1002.28,1066.09 1004.28,1066.09 1006.28,945.917 1008.28,1027.57 1010.28,1103.36 1012.29,1165.42 1014.29,1165.42 1016.29,1125.04 1018.29,1158.84 1020.29,1158.84 1022.29,1144.4 1024.29,1147.32 1026.29,1201.41 1028.29,1245.69 1030.29,1245.69 1032.29,1125.49 1034.29,1172.48 1036.29,1172.48 1038.29,1064.78 1040.29,1108.4 1042.29,1169.54 1044.29,1219.61 1046.29,1260.59 1048.29,1260.59 1050.29,1213.95 1052.29,1236.14 1054.3,1236.14 1056.3,1194.97 1058.3,1215.15 1060.3,1215.15 1062.3,1092.82 1064.3,1149.11 1066.3,1149.11 1068.3,1007.45 1070.3,1012.75 1072.3,1012.75 1074.3,949.041 1076.3,949.041 1078.3,716.766 1080.3,716.766 1082.3,625.941 1084.3,625.941 1086.3,372.444 1088.3,383.56 1090.3,383.56 1092.3,343.196 1094.3,522.372 1096.3,522.372 1098.31,452.98 1100.31,507.955 1102.31,677.942 1104.31,817.116 1106.31,931.062 1108.31,1024.35 1110.31,1100.73 1112.31,1163.27 1114.31,1163.27 1116.31,911.732 1118.31,1000.55 1120.31,1000.55 1122.31,949.16 1124.31,954.265 1126.31,954.265 1128.31,831.435 1130.31,831.435 1132.31,821.557 1134.31,821.557 1136.31,746.075 1138.31,751.578 1140.32,877.404 1142.32,877.404 1144.32,771.133 1146.32,771.133 1148.32,486.13 1150.32,582.666 1152.32,739.11 1154.32,739.11 1156.32,535.371 1158.32,640.126 1160.32,786.155 1162.32,786.155 1164.32,750.931 1166.32,750.931 1168.32,576.178 1170.32,681.687 1172.32,681.687 1174.32,667.874 1176.32,763.957 1178.32,887.539 1180.32,988.719 1182.32,988.719 1184.33,1006.04 1186.33,1007.64 1188.33,1087.05 1190.33,1152.07 1192.33,1205.3 1194.33,1205.3 1196.33,1169.07 1198.33,1189.46 1200.33,1235.91 1202.33,1235.91 1204.33,1050.22 1206.33,1111.13 1208.33,1111.13 1210.33,1027.52 1212.33,1050.55 1214.33,1050.55 1216.33,1038.78 1218.33,1061.64 1220.33,1061.64 1222.33,861.432 1224.33,885.02 1226.33,885.02 1228.34,767.928 1230.34,767.928 1232.34,598.712 1234.34,616.143 1236.34,766.519 1238.34,889.637 1240.34,990.437 1242.34,990.437 1244.34,796 1246.34,829.663 1248.34,829.663 1250.34,638.579 1252.34,783.422 1254.34,783.422 1256.34,609.992 1258.34,609.992 1260.34,484.812 1262.34,632.702 1264.34,632.702 1266.34,600.141 1268.34,600.141 1270.35,517.05 1272.35,535.227 1274.35,535.227 1276.35,494.825 1278.35,511.121 1280.35,680.534 1282.35,819.238 1284.35,819.238 1286.35,787.971 1288.35,877.369 1290.35,877.369 1292.35,754.392 1294.35,800.889 1296.35,800.889 1298.35,663.874 1300.35,745.394 1302.35,872.341 1304.35,976.276 1306.35,1061.37 1308.35,1061.37 1310.35,1018.18 1312.35,1018.18 1314.36,922.931 1316.36,955.082 1318.36,1044.02 1320.36,1116.83 1322.36,1176.45 1324.36,1225.26 1326.36,1225.26 1328.36,930.666 1330.36,967.272 1332.36,1054 1334.36,1054 1336.36,863.536 1338.36,966.641 1340.36,966.641 1342.36,950.028 1344.36,950.028 1346.36,892.97 1348.36,892.97 1350.36,672.856 1352.36,682.692 1354.36,821.005 1356.37,821.005 1358.37,867.278 1360.37,870.448 1362.37,974.726 1364.37,974.726 1366.37,787.883 1368.37,813.496 1370.37,813.496 1372.37,568.523 1374.37,714.079 1376.37,846.702 1378.37,846.702 1380.37,828.213 1382.37,828.213 1384.37,818.145 1386.37,836.119 1388.37,946.62 1390.37,946.62 1392.37,776.556 1394.37,872.13 1396.37,872.13 1398.37,818.739 1400.38,855.283 1402.38,962.31 1404.38,1049.94 1406.38,1049.94 1408.38,884.696 1410.38,952.486 1412.38,1041.89 1414.38,1115.09 1416.38,1115.09 1418.38,936.719 1420.38,936.719 1422.38,752.877 1424.38,843.06 1426.38,843.06 1428.38,838.599 1430.38,838.599 1432.38,652.705 1434.38,717.217 1436.38,717.217 1438.38,548.703 1440.38,686.356 1442.38,824.005 1444.39,936.702 1446.39,1028.97 1448.39,1028.97 1450.39,844.499 1452.39,943.876 1454.39,1034.84 1456.39,1034.84 1458.39,779 1460.39,898.853 1462.39,898.853 1464.39,897.758 1466.39,938.617 1468.39,938.617 1470.39,878.52 1472.39,878.52 1474.39,753.351 1476.39,787.135 1478.39,906.516 1480.39,1004.26 1482.39,1084.28 1484.39,1084.28 1486.4,973.654 1488.4,1039.35 1490.4,1039.35 1492.4,813.143 1494.4,885.953 1496.4,885.953 1498.4,804.164 1500.4,804.164 1502.4,617.949 1504.4,699.334 1506.4,834.63 1508.4,945.401 1510.4,945.401 1512.4,663.149 1514.4,751.599 1516.4,877.421 1518.4,877.421 1520.4,784.839 1522.4,789.282 1524.4,908.273 1526.4,1005.69 1528.4,1085.46 1530.41,1150.76 1532.41,1204.23 1534.41,1248 1536.41,1248 1538.41,1145.41 1540.41,1163.1 1542.41,1214.33 1544.41,1256.27 1546.41,1290.61 1548.41,1318.73 1550.41,1318.73 1552.41,1259.59 1554.41,1287.07 1556.41,1315.83 1558.41,1315.83 1560.41,1193.49 1562.41,1229.28 1564.41,1268.51 1566.41,1300.63 1568.41,1326.93 1570.41,1348.46 1572.42,1348.46 1574.42,1161.57 1576.42,1161.57 1578.42,1048.65 1580.42,1048.65 1582.42,755.537 1584.42,764.741 1586.42,888.181 1588.42,989.245 1590.42,1071.99 1592.42,1071.99 1594.42,975.971 1596.42,1024.76 1598.42,1024.76 1600.42,989.642 1602.42,1044.66 1604.42,1044.66 1606.42,986.336 1608.42,1064.06 1610.42,1064.06 1612.42,916.841 1614.42,954.498 1616.43,1043.54 1618.43,1043.54 1620.43,817.807 1622.43,888.897 1624.43,989.831 1626.43,1072.47 1628.43,1140.13 1630.43,1195.52 1632.43,1195.52 1634.43,1138.72 1636.43,1186.76 1638.43,1233.7 1640.43,1272.13 1642.43,1303.6 1644.43,1303.6 1646.43,1263.56 1648.43,1266.11 1650.43,1266.11 1652.43,1140.77 1654.43,1140.77 1656.43,1043.39 1658.44,1043.39 1660.44,923.162 1662.44,951.735 1664.44,951.735 1666.44,906.464 1668.44,915.014 1670.44,1011.21 1672.44,1011.21 1674.44,906.909 1676.44,978.794 1678.44,1063.43 1680.44,1063.43 1682.44,984.713 1684.44,1012.03 1686.44,1090.65 1688.44,1090.65 1690.44,1028.06 1692.44,1102.26 1694.44,1164.52 1696.44,1215.49 1698.44,1215.49 1700.44,1023.24 1702.45,1023.24 1704.45,1022.67 1706.45,1037.65 1708.45,1111.62 1710.45,1172.18 1712.45,1221.76 1714.45,1221.76 1716.45,1159.12 1718.45,1209.48 1720.45,1252.3 1722.45,1287.36 1724.45,1316.07 1726.45,1339.57 1728.45,1358.81 1730.45,1374.56 1732.45,1387.46 1734.45,1387.46 1736.45,1263.9 1738.45,1283.68 1740.45,1283.68 1742.45,1030.28 1744.45,1098.73 1746.46,1098.73 1748.46,1083.25 1750.46,1100.54 1752.46,1163.11 1754.46,1214.33 1756.46,1256.28 1758.46,1290.62 1760.46,1290.62 1762.46,1178.69 1764.46,1201.29 1766.46,1201.29 1768.46,1019.92 1770.46,1019.92 1772.46,896.269 1774.46,969.308 1776.46,1055.67 1778.46,1126.37 1780.46,1184.26 1782.46,1184.26 1784.46,1136.77 1786.46,1175.56 1788.47,1224.53 1790.47,1224.53 1792.47,929.995 1794.47,966.714 1796.47,966.714 1798.47,775.085 1800.47,775.085 1802.47,457.666 1804.47,505.167 1806.47,675.659 1808.47,675.659 1810.47,625.066 1812.47,625.066 1814.47,586.429 1816.47,706.607 1818.47,840.585 1820.47,950.277 1822.47,1040.08 1824.47,1113.61 1826.47,1113.61 1828.47,1025.26 1830.47,1054.41 1832.48,1054.41 1834.48,923.206 1836.48,938.542 1838.48,1030.48 1840.48,1030.48 1842.48,921.422 1844.48,921.422 1846.48,919.687 1848.48,933.085 1850.48,933.085 1852.48,772.017 1854.48,772.017 1856.48,532.528 1858.48,540.08 1860.48,540.08 1862.48,554.021 1864.48,554.021 1866.48,506.469 1868.48,520.366 1870.48,688.104 1872.48,825.436 1874.49,825.436 1876.49,551.433 1878.49,551.433 1880.49,516.455 1882.49,516.455 1884.49,341.258 1886.49,341.258 1888.49,326.546 1890.49,353.037 1892.49,353.037 1894.49,162.06 1896.49,162.06 1898.49,87.9763 1900.49,148.096 1902.49,383.315 1904.49,383.315 1906.49,335.659 1908.49,335.659 1910.49,271.874 1912.49,332.642 1914.49,332.642 1916.49,313.779 1918.5,417.913 1920.5,604.222 1922.5,604.222 1924.5,568.785 1926.5,702.382 1928.5,837.126 1930.5,947.444 1932.5,1037.77 1934.5,1111.71 1936.5,1172.26 1938.5,1172.26 1940.5,1112.53 1942.5,1168.44 1944.5,1218.71 1946.5,1218.71 1948.5,1156.61 1950.5,1206.85 1952.5,1250.15 1954.5,1285.6 1956.5,1314.63 1958.5,1314.63 1960.51,1261.37 1962.51,1281.11 1964.51,1310.95 1966.51,1335.37 1968.51,1355.38 1970.51,1355.38 1972.51,1113.81 1974.51,1119.74 1976.51,1178.83 1978.51,1227.21 1980.51,1227.21 1982.51,1172.16 1984.51,1212.01 1986.51,1254.38 1988.51,1254.38 1990.51,1004.48 1992.51,1004.48 1994.51,789.538 1996.51,830.953 1998.51,942.39 2000.51,1033.63 2002.51,1108.33 2004.52,1169.48 2006.52,1219.56 2008.52,1260.55 2010.52,1260.55 2012.52,1215.01 2014.52,1235.73 2016.52,1273.79 2018.52,1304.96 2020.52,1304.96 2022.52,1261.37 2024.52,1268.97 2026.52,1301.01 2028.52,1327.24 2030.52,1327.24 2032.52,1203.02 2034.52,1239.92 2036.52,1277.23 2038.52,1307.77 2040.52,1332.77 2042.52,1353.25 2044.52,1353.25 2046.52,1173.5 2048.53,1187.36 2050.53,1187.36 2052.53,1169.88 2054.53,1170.09 2056.53,1220.05 2058.53,1220.05 2060.53,1132.02 2062.53,1133.1 2064.53,1189.77 2066.53,1236.16 2068.53,1236.16 2070.53,1063.43 2072.53,1063.43 2074.53,1027.16 2076.53,1037.69 2078.53,1111.65 2080.53,1172.21 2082.53,1172.21 2084.53,1074.62 2086.53,1103.46 2088.53,1103.46 2090.54,923.793 2092.54,1001.82 2094.54,1082.29 2096.54,1148.16 2098.54,1202.1 2100.54,1202.1 2102.54,1020.2 2104.54,1081.57 2106.54,1147.58 2108.54,1147.58 2110.54,1070.93 2112.54,1074.57 2114.54,1141.85 2116.54,1196.93 2118.54,1242.03 2120.54,1242.03 2122.54,934.757 2124.54,997.739 2126.54,997.739 2128.54,726.634 2130.54,783.612 2132.54,903.631 2134.55,903.631 2136.55,798.193 2138.55,798.193 2140.55,693.845 2142.55,778.349 2144.55,899.322 2146.55,998.366 2148.55,998.366 2150.55,990.684 2152.55,1019.35 2154.55,1019.35 2156.55,797.15 2158.55,868.116 2160.55,868.116 2162.55,708.685 2164.55,720.245 2166.55,851.75 2168.55,959.418 2170.55,1047.57 2172.55,1047.57 2174.55,909.832 2176.56,937.078 2178.56,1029.28 2180.56,1029.28 2182.56,902.91 2184.56,999.234 2186.56,1080.17 2188.56,1146.43 2190.56,1200.68 2192.56,1245.1 2194.56,1281.46 2196.56,1311.24 2198.56,1335.61 2200.56,1355.57 2202.56,1371.91 2204.56,1371.91 2206.56,1320.6 2208.56,1321.72 2210.56,1344.19 2212.56,1344.19 2214.56,1223.19 2216.56,1249.42 2218.56,1285 2220.57,1285 2222.57,1167.5 2224.57,1201.53 2226.57,1245.79 2228.57,1282.03 2230.57,1282.03 2232.57,1166.62 2234.57,1166.62 2236.57,1125.28 2238.57,1135.61 2240.57,1191.82 2242.57,1191.82 2244.57,1168.15 2246.57,1175.36 2248.57,1224.37 2250.57,1224.37 2252.57,1170.75 2254.57,1209.34 2256.57,1209.34 2258.57,1168.19 2260.57,1194.01 2262.58,1239.64 2264.58,1239.64 2266.58,1141.98 2268.58,1153.6 2270.58,1206.56 2272.58,1249.91 2274.58,1249.91 2276.58,1191.65 2278.58,1231.25 2280.58,1231.25 2282.58,1194.69 2284.58,1209.85 2286.58,1252.61 2288.58,1252.61 2290.58,1218.22 "/>
<path clip-path="url(#clip590)" d="M229.155 198.898 L501.268 198.898 L501.268 95.2176 L229.155 95.2176  Z" fill="#ffffff" fill-rule="evenodd" fill-opacity="1"/>
<polyline clip-path="url(#clip590)" style="stroke:#000000; stroke-linecap:round; stroke-linejoin:round; stroke-width:4; stroke-opacity:1; fill:none" points="229.155,198.898 501.268,198.898 501.268,95.2176 229.155,95.2176 229.155,198.898 "/>
<polyline clip-path="url(#clip590)" style="stroke:#009af9; stroke-linecap:round; stroke-linejoin:round; stroke-width:4; stroke-opacity:1; fill:none" points="253.564,147.058 400.019,147.058 "/>
<path clip-path="url(#clip590)" d="M438.271 166.745 Q436.465 171.375 434.752 172.787 Q433.039 174.199 430.169 174.199 L426.766 174.199 L426.766 170.634 L429.266 170.634 Q431.025 170.634 431.998 169.8 Q432.97 168.967 434.15 165.865 L434.914 163.921 L424.428 138.412 L428.942 138.412 L437.044 158.689 L445.146 138.412 L449.66 138.412 L438.271 166.745 Z" fill="#000000" fill-rule="nonzero" fill-opacity="1" /><path clip-path="url(#clip590)" d="M456.951 160.402 L464.59 160.402 L464.59 134.037 L456.28 135.703 L456.28 131.444 L464.544 129.778 L469.22 129.778 L469.22 160.402 L476.859 160.402 L476.859 164.338 L456.951 164.338 L456.951 160.402 Z" fill="#000000" fill-rule="nonzero" fill-opacity="1" /></svg>
