<?xml version="1.0" encoding="utf-8"?>
<svg xmlns="http://www.w3.org/2000/svg" xmlns:xlink="http://www.w3.org/1999/xlink" width="600" height="400" viewBox="0 0 2400 1600">
<defs>
  <clipPath id="clip100">
    <rect x="0" y="0" width="2400" height="1600"/>
  </clipPath>
</defs>
<path clip-path="url(#clip100)" d="M0 1600 L2400 1600 L2400 0 L0 0  Z" fill="#ffffff" fill-rule="evenodd" fill-opacity="1"/>
<defs>
  <clipPath id="clip101">
    <rect x="480" y="0" width="1681" height="1600"/>
  </clipPath>
</defs>
<path clip-path="url(#clip100)" d="M112.177 1423.18 L2352.76 1423.18 L2352.76 47.2441 L112.177 47.2441  Z" fill="#ffffff" fill-rule="evenodd" fill-opacity="1"/>
<defs>
  <clipPath id="clip102">
    <rect x="112" y="47" width="2242" height="1377"/>
  </clipPath>
</defs>
<polyline clip-path="url(#clip102)" style="stroke:#000000; stroke-linecap:round; stroke-linejoin:round; stroke-width:2; stroke-opacity:0.1; fill:none" points="112.177,1423.18 112.177,47.2441 "/>
<polyline clip-path="url(#clip102)" style="stroke:#000000; stroke-linecap:round; stroke-linejoin:round; stroke-width:2; stroke-opacity:0.1; fill:none" points="560.293,1423.18 560.293,47.2441 "/>
<polyline clip-path="url(#clip102)" style="stroke:#000000; stroke-linecap:round; stroke-linejoin:round; stroke-width:2; stroke-opacity:0.1; fill:none" points="1008.41,1423.18 1008.41,47.2441 "/>
<polyline clip-path="url(#clip102)" style="stroke:#000000; stroke-linecap:round; stroke-linejoin:round; stroke-width:2; stroke-opacity:0.1; fill:none" points="1456.52,1423.18 1456.52,47.2441 "/>
<polyline clip-path="url(#clip102)" style="stroke:#000000; stroke-linecap:round; stroke-linejoin:round; stroke-width:2; stroke-opacity:0.1; fill:none" points="1904.64,1423.18 1904.64,47.2441 "/>
<polyline clip-path="url(#clip102)" style="stroke:#000000; stroke-linecap:round; stroke-linejoin:round; stroke-width:2; stroke-opacity:0.1; fill:none" points="2352.76,1423.18 2352.76,47.2441 "/>
<polyline clip-path="url(#clip102)" style="stroke:#000000; stroke-linecap:round; stroke-linejoin:round; stroke-width:2; stroke-opacity:0.1; fill:none" points="112.177,1136.25 2352.76,1136.25 "/>
<polyline clip-path="url(#clip102)" style="stroke:#000000; stroke-linecap:round; stroke-linejoin:round; stroke-width:2; stroke-opacity:0.1; fill:none" points="112.177,826.26 2352.76,826.26 "/>
<polyline clip-path="url(#clip102)" style="stroke:#000000; stroke-linecap:round; stroke-linejoin:round; stroke-width:2; stroke-opacity:0.1; fill:none" points="112.177,516.272 2352.76,516.272 "/>
<polyline clip-path="url(#clip102)" style="stroke:#000000; stroke-linecap:round; stroke-linejoin:round; stroke-width:2; stroke-opacity:0.1; fill:none" points="112.177,206.285 2352.76,206.285 "/>
<polyline clip-path="url(#clip100)" style="stroke:#000000; stroke-linecap:round; stroke-linejoin:round; stroke-width:4; stroke-opacity:1; fill:none" points="112.177,1423.18 2352.76,1423.18 "/>
<polyline clip-path="url(#clip100)" style="stroke:#000000; stroke-linecap:round; stroke-linejoin:round; stroke-width:4; stroke-opacity:1; fill:none" points="112.177,1423.18 112.177,1404.28 "/>
<polyline clip-path="url(#clip100)" style="stroke:#000000; stroke-linecap:round; stroke-linejoin:round; stroke-width:4; stroke-opacity:1; fill:none" points="560.293,1423.18 560.293,1404.28 "/>
<polyline clip-path="url(#clip100)" style="stroke:#000000; stroke-linecap:round; stroke-linejoin:round; stroke-width:4; stroke-opacity:1; fill:none" points="1008.41,1423.18 1008.41,1404.28 "/>
<polyline clip-path="url(#clip100)" style="stroke:#000000; stroke-linecap:round; stroke-linejoin:round; stroke-width:4; stroke-opacity:1; fill:none" points="1456.52,1423.18 1456.52,1404.28 "/>
<polyline clip-path="url(#clip100)" style="stroke:#000000; stroke-linecap:round; stroke-linejoin:round; stroke-width:4; stroke-opacity:1; fill:none" points="1904.64,1423.18 1904.64,1404.28 "/>
<polyline clip-path="url(#clip100)" style="stroke:#000000; stroke-linecap:round; stroke-linejoin:round; stroke-width:4; stroke-opacity:1; fill:none" points="2352.76,1423.18 2352.76,1404.28 "/>
<path clip-path="url(#clip100)" d="M112.177 1454.1 Q108.566 1454.1 106.737 1457.66 Q104.932 1461.2 104.932 1468.33 Q104.932 1475.44 106.737 1479.01 Q108.566 1482.55 112.177 1482.55 Q115.811 1482.55 117.617 1479.01 Q119.446 1475.44 119.446 1468.33 Q119.446 1461.2 117.617 1457.66 Q115.811 1454.1 112.177 1454.1 M112.177 1450.39 Q117.987 1450.39 121.043 1455 Q124.122 1459.58 124.122 1468.33 Q124.122 1477.06 121.043 1481.67 Q117.987 1486.25 112.177 1486.25 Q106.367 1486.25 103.288 1481.67 Q100.233 1477.06 100.233 1468.33 Q100.233 1459.58 103.288 1455 Q106.367 1450.39 112.177 1450.39 Z" fill="#000000" fill-rule="nonzero" fill-opacity="1" /><path clip-path="url(#clip100)" d="M554.946 1481.64 L571.265 1481.64 L571.265 1485.58 L549.321 1485.58 L549.321 1481.64 Q551.983 1478.89 556.566 1474.26 Q561.173 1469.61 562.353 1468.27 Q564.598 1465.74 565.478 1464.01 Q566.381 1462.25 566.381 1460.56 Q566.381 1457.8 564.436 1456.07 Q562.515 1454.33 559.413 1454.33 Q557.214 1454.33 554.761 1455.09 Q552.33 1455.86 549.552 1457.41 L549.552 1452.69 Q552.376 1451.55 554.83 1450.97 Q557.284 1450.39 559.321 1450.39 Q564.691 1450.39 567.885 1453.08 Q571.08 1455.77 571.08 1460.26 Q571.08 1462.39 570.27 1464.31 Q569.483 1466.2 567.376 1468.8 Q566.798 1469.47 563.696 1472.69 Q560.594 1475.88 554.946 1481.64 Z" fill="#000000" fill-rule="nonzero" fill-opacity="1" /><path clip-path="url(#clip100)" d="M1011.42 1455.09 L999.612 1473.54 L1011.42 1473.54 L1011.42 1455.09 M1010.19 1451.02 L1016.07 1451.02 L1016.07 1473.54 L1021 1473.54 L1021 1477.43 L1016.07 1477.43 L1016.07 1485.58 L1011.42 1485.58 L1011.42 1477.43 L995.816 1477.43 L995.816 1472.92 L1010.19 1451.02 Z" fill="#000000" fill-rule="nonzero" fill-opacity="1" /><path clip-path="url(#clip100)" d="M1456.93 1466.44 Q1453.78 1466.44 1451.93 1468.59 Q1450.1 1470.74 1450.1 1474.49 Q1450.1 1478.22 1451.93 1480.39 Q1453.78 1482.55 1456.93 1482.55 Q1460.08 1482.55 1461.91 1480.39 Q1463.76 1478.22 1463.76 1474.49 Q1463.76 1470.74 1461.91 1468.59 Q1460.08 1466.44 1456.93 1466.44 M1466.21 1451.78 L1466.21 1456.04 Q1464.45 1455.21 1462.65 1454.77 Q1460.86 1454.33 1459.11 1454.33 Q1454.48 1454.33 1452.02 1457.45 Q1449.59 1460.58 1449.24 1466.9 Q1450.61 1464.89 1452.67 1463.82 Q1454.73 1462.73 1457.21 1462.73 Q1462.42 1462.73 1465.42 1465.9 Q1468.46 1469.05 1468.46 1474.49 Q1468.46 1479.82 1465.31 1483.03 Q1462.16 1486.25 1456.93 1486.25 Q1450.93 1486.25 1447.76 1481.67 Q1444.59 1477.06 1444.59 1468.33 Q1444.59 1460.14 1448.48 1455.28 Q1452.37 1450.39 1458.92 1450.39 Q1460.68 1450.39 1462.46 1450.74 Q1464.27 1451.09 1466.21 1451.78 Z" fill="#000000" fill-rule="nonzero" fill-opacity="1" /><path clip-path="url(#clip100)" d="M1904.64 1469.17 Q1901.31 1469.17 1899.39 1470.95 Q1897.49 1472.73 1897.49 1475.86 Q1897.49 1478.98 1899.39 1480.77 Q1901.31 1482.55 1904.64 1482.55 Q1907.97 1482.55 1909.89 1480.77 Q1911.82 1478.96 1911.82 1475.86 Q1911.82 1472.73 1909.89 1470.95 Q1908 1469.17 1904.64 1469.17 M1899.96 1467.18 Q1896.96 1466.44 1895.27 1464.38 Q1893.6 1462.32 1893.6 1459.35 Q1893.6 1455.21 1896.54 1452.8 Q1899.5 1450.39 1904.64 1450.39 Q1909.8 1450.39 1912.74 1452.8 Q1915.68 1455.21 1915.68 1459.35 Q1915.68 1462.32 1913.99 1464.38 Q1912.33 1466.44 1909.34 1467.18 Q1912.72 1467.96 1914.59 1470.26 Q1916.49 1472.55 1916.49 1475.86 Q1916.49 1480.88 1913.41 1483.57 Q1910.36 1486.25 1904.64 1486.25 Q1898.92 1486.25 1895.84 1483.57 Q1892.79 1480.88 1892.79 1475.86 Q1892.79 1472.55 1894.69 1470.26 Q1896.58 1467.96 1899.96 1467.18 M1898.25 1459.79 Q1898.25 1462.48 1899.92 1463.98 Q1901.61 1465.49 1904.64 1465.49 Q1907.65 1465.49 1909.34 1463.98 Q1911.05 1462.48 1911.05 1459.79 Q1911.05 1457.11 1909.34 1455.6 Q1907.65 1454.1 1904.64 1454.1 Q1901.61 1454.1 1899.92 1455.6 Q1898.25 1457.11 1898.25 1459.79 Z" fill="#000000" fill-rule="nonzero" fill-opacity="1" /><path clip-path="url(#clip100)" d="M2327.44 1481.64 L2335.08 1481.64 L2335.08 1455.28 L2326.77 1456.95 L2326.77 1452.69 L2335.04 1451.02 L2339.71 1451.02 L2339.71 1481.64 L2347.35 1481.64 L2347.35 1485.58 L2327.44 1485.58 L2327.44 1481.64 Z" fill="#000000" fill-rule="nonzero" fill-opacity="1" /><path clip-path="url(#clip100)" d="M2366.8 1454.1 Q2363.18 1454.1 2361.36 1457.66 Q2359.55 1461.2 2359.55 1468.33 Q2359.55 1475.44 2361.36 1479.01 Q2363.18 1482.55 2366.8 1482.55 Q2370.43 1482.55 2372.23 1479.01 Q2374.06 1475.44 2374.06 1468.33 Q2374.06 1461.2 2372.23 1457.66 Q2370.43 1454.1 2366.8 1454.1 M2366.8 1450.39 Q2372.61 1450.39 2375.66 1455 Q2378.74 1459.58 2378.74 1468.33 Q2378.74 1477.06 2375.66 1481.67 Q2372.61 1486.25 2366.8 1486.25 Q2360.99 1486.25 2357.91 1481.67 Q2354.85 1477.06 2354.85 1468.33 Q2354.85 1459.58 2357.91 1455 Q2360.99 1450.39 2366.8 1450.39 Z" fill="#000000" fill-rule="nonzero" fill-opacity="1" /><path clip-path="url(#clip100)" d="M1231.53 1522.27 L1231.53 1532.4 L1243.59 1532.4 L1243.59 1536.95 L1231.53 1536.95 L1231.53 1556.3 Q1231.53 1560.66 1232.71 1561.9 Q1233.91 1563.14 1237.58 1563.14 L1243.59 1563.14 L1243.59 1568.04 L1237.58 1568.04 Q1230.8 1568.04 1228.22 1565.53 Q1225.64 1562.98 1225.64 1556.3 L1225.64 1536.95 L1221.34 1536.95 L1221.34 1532.4 L1225.64 1532.4 L1225.64 1522.27 L1231.53 1522.27 Z" fill="#000000" fill-rule="nonzero" fill-opacity="1" /><polyline clip-path="url(#clip100)" style="stroke:#000000; stroke-linecap:round; stroke-linejoin:round; stroke-width:4; stroke-opacity:1; fill:none" points="112.177,1423.18 112.177,47.2441 "/>
<polyline clip-path="url(#clip100)" style="stroke:#000000; stroke-linecap:round; stroke-linejoin:round; stroke-width:4; stroke-opacity:1; fill:none" points="112.177,1136.25 131.075,1136.25 "/>
<polyline clip-path="url(#clip100)" style="stroke:#000000; stroke-linecap:round; stroke-linejoin:round; stroke-width:4; stroke-opacity:1; fill:none" points="112.177,826.26 131.075,826.26 "/>
<polyline clip-path="url(#clip100)" style="stroke:#000000; stroke-linecap:round; stroke-linejoin:round; stroke-width:4; stroke-opacity:1; fill:none" points="112.177,516.272 131.075,516.272 "/>
<polyline clip-path="url(#clip100)" style="stroke:#000000; stroke-linecap:round; stroke-linejoin:round; stroke-width:4; stroke-opacity:1; fill:none" points="112.177,206.285 131.075,206.285 "/>
<path clip-path="url(#clip100)" d="M56.2699 1149.59 L63.9087 1149.59 L63.9087 1123.23 L55.5986 1124.89 L55.5986 1120.63 L63.8624 1118.97 L68.5383 1118.97 L68.5383 1149.59 L76.1772 1149.59 L76.1772 1153.53 L56.2699 1153.53 L56.2699 1149.59 Z" fill="#000000" fill-rule="nonzero" fill-opacity="1" /><path clip-path="url(#clip100)" d="M59.8578 839.605 L76.1772 839.605 L76.1772 843.54 L54.2328 843.54 L54.2328 839.605 Q56.8949 836.85 61.4782 832.221 Q66.0846 827.568 67.2652 826.226 Q69.5105 823.702 70.3902 821.966 Q71.2929 820.207 71.2929 818.517 Q71.2929 815.763 69.3485 814.027 Q67.4272 812.29 64.3254 812.29 Q62.1263 812.29 59.6726 813.054 Q57.2421 813.818 54.4643 815.369 L54.4643 810.647 Q57.2884 809.513 59.7421 808.934 Q62.1958 808.355 64.2328 808.355 Q69.6031 808.355 72.7976 811.04 Q75.992 813.726 75.992 818.216 Q75.992 820.346 75.1818 822.267 Q74.3948 824.165 72.2883 826.758 Q71.7096 827.429 68.6078 830.647 Q65.5059 833.841 59.8578 839.605 Z" fill="#000000" fill-rule="nonzero" fill-opacity="1" /><path clip-path="url(#clip100)" d="M69.0476 514.918 Q72.404 515.636 74.279 517.904 Q76.1772 520.173 76.1772 523.506 Q76.1772 528.622 72.6587 531.423 Q69.1402 534.224 62.6587 534.224 Q60.4828 534.224 58.168 533.784 Q55.8764 533.367 53.4227 532.511 L53.4227 527.997 Q55.3671 529.131 57.6819 529.71 Q59.9967 530.289 62.5198 530.289 Q66.918 530.289 69.2096 528.552 Q71.5244 526.816 71.5244 523.506 Q71.5244 520.451 69.3717 518.738 Q67.242 517.002 63.4226 517.002 L59.3949 517.002 L59.3949 513.159 L63.6078 513.159 Q67.0569 513.159 68.8855 511.793 Q70.7142 510.404 70.7142 507.812 Q70.7142 505.15 68.8161 503.738 Q66.9411 502.303 63.4226 502.303 Q61.5013 502.303 59.3023 502.719 Q57.1032 503.136 54.4643 504.016 L54.4643 499.849 Q57.1264 499.108 59.4412 498.738 Q61.7791 498.367 63.8393 498.367 Q69.1633 498.367 72.2652 500.798 Q75.367 503.205 75.367 507.326 Q75.367 510.196 73.7235 512.187 Q72.08 514.154 69.0476 514.918 Z" fill="#000000" fill-rule="nonzero" fill-opacity="1" /><path clip-path="url(#clip100)" d="M66.5939 193.079 L54.7884 211.528 L66.5939 211.528 L66.5939 193.079 M65.367 189.005 L71.2466 189.005 L71.2466 211.528 L76.1772 211.528 L76.1772 215.417 L71.2466 215.417 L71.2466 223.565 L66.5939 223.565 L66.5939 215.417 L50.9921 215.417 L50.9921 210.903 L65.367 189.005 Z" fill="#000000" fill-rule="nonzero" fill-opacity="1" /><polyline clip-path="url(#clip102)" style="stroke:#009af9; stroke-linecap:round; stroke-linejoin:round; stroke-width:8; stroke-opacity:1; fill:none" points="112.177,1384.24 114.42,1383.61 116.663,1382.98 118.906,1382.35 121.148,1381.71 123.391,1381.06 125.634,1380.4 127.877,1379.74 130.12,1379.07 132.363,1378.39 134.605,1377.71 136.848,1377.02 139.091,1376.33 141.334,1375.62 143.577,1374.91 145.819,1374.19 148.062,1373.47 150.305,1372.74 152.548,1372 154.791,1371.25 157.034,1370.5 159.276,1369.73 161.519,1368.97 163.762,1368.19 166.005,1367.4 168.248,1366.61 170.491,1365.81 172.733,1365 174.976,1364.18 177.219,1363.36 179.462,1362.52 181.705,1361.68 183.947,1360.83 186.19,1359.97 188.433,1359.1 190.676,1358.23 192.919,1357.34 195.162,1356.45 197.404,1355.54 199.647,1354.63 201.89,1353.71 204.133,1352.78 206.376,1351.84 208.619,1350.89 210.861,1349.93 213.104,1348.96 215.347,1347.98 217.59,1346.99 219.833,1345.99 222.075,1344.99 224.318,1343.97 226.561,1342.94 228.804,1341.9 231.047,1340.85 233.29,1339.79 235.532,1338.72 237.775,1337.64 240.018,1336.55 242.261,1335.44 244.504,1334.33 246.746,1333.2 248.989,1332.06 251.232,1330.92 253.475,1329.76 255.718,1328.58 257.961,1327.4 260.203,1326.2 262.446,1325 264.689,1323.78 266.932,1322.54 269.175,1321.3 271.418,1320.04 273.66,1318.77 275.903,1317.49 278.146,1316.2 280.389,1314.89 282.632,1313.57 284.874,1312.23 287.117,1310.88 289.36,1309.52 291.603,1308.15 293.846,1306.76 296.089,1305.35 298.331,1303.94 300.574,1302.51 302.817,1301.06 305.06,1299.6 307.303,1298.12 309.545,1296.63 311.788,1295.13 314.031,1293.61 316.274,1292.07 318.517,1290.52 320.76,1288.96 323.002,1287.37 325.245,1285.78 327.488,1284.16 329.731,1282.53 331.974,1280.88 334.217,1279.22 336.459,1277.54 338.702,1275.84 340.945,1274.13 343.188,1272.4 345.431,1270.65 347.673,1268.88 349.916,1267.1 352.159,1265.3 354.402,1263.48 356.645,1261.64 358.888,1259.78 361.13,1257.9 363.373,1256.01 365.616,1254.1 367.859,1252.16 370.102,1250.21 372.344,1248.24 374.587,1246.25 376.83,1244.23 379.073,1242.2 381.316,1240.15 383.559,1238.08 385.801,1235.98 388.044,1233.87 390.287,1231.73 392.53,1229.57 394.773,1227.39 397.016,1225.19 399.258,1222.97 401.501,1220.72 403.744,1218.45 405.987,1216.16 408.23,1213.85 410.472,1211.51 412.715,1209.15 414.958,1206.76 417.201,1204.35 419.444,1201.92 421.687,1199.46 423.929,1196.98 426.172,1194.47 428.415,1191.94 430.658,1189.38 432.901,1186.8 435.143,1184.19 437.386,1181.55 439.629,1178.89 441.872,1176.2 444.115,1173.48 446.358,1170.74 448.6,1167.97 450.843,1165.17 453.086,1162.34 455.329,1159.48 457.572,1156.6 459.815,1153.68 462.057,1150.74 464.3,1147.77 466.543,1144.77 468.786,1141.73 471.029,1138.67 473.271,1135.57 475.514,1132.45 477.757,1129.29 480,1126.1 482.243,1122.88 484.486,1119.63 486.728,1116.34 488.971,1113.02 491.214,1109.67 493.457,1106.29 495.7,1102.87 497.942,1099.41 500.185,1095.92 502.428,1092.4 504.671,1088.84 506.914,1085.24 509.157,1081.61 511.399,1077.94 513.642,1074.24 515.885,1070.5 518.128,1066.72 520.371,1062.9 522.614,1059.04 524.856,1055.15 527.099,1051.21 529.342,1047.24 531.585,1043.22 533.828,1039.17 536.07,1035.07 538.313,1030.94 540.556,1026.76 542.799,1022.54 545.042,1018.28 547.285,1013.97 549.527,1009.63 551.77,1005.23 554.013,1000.8 556.256,996.316 558.499,991.79 560.741,987.219 562.984,982.601 565.227,977.937 567.47,973.226 569.713,968.468 571.956,963.661 574.198,958.807 576.441,953.903 578.684,948.95 580.927,943.947 583.17,938.894 585.413,933.79 587.655,928.635 589.898,923.427 592.141,918.167 594.384,912.855 596.627,907.488 598.869,902.068 601.112,896.593 603.355,891.063 605.598,885.478 607.841,879.836 610.084,874.137 612.326,868.382 614.569,862.568 616.812,856.696 619.055,850.764 621.298,844.774 623.54,838.723 625.783,832.611 628.026,826.438 630.269,820.202 632.512,813.904 634.755,807.542 636.997,801.116 639.24,794.626 641.483,788.07 643.726,781.449 645.969,774.761 648.212,768.005 650.454,761.182 652.697,754.29 654.94,747.329 657.183,740.298 659.426,733.196 661.668,726.023 663.911,718.778 666.154,711.46 668.397,704.068 670.64,696.603 672.883,689.062 675.125,681.445 677.368,673.752 679.611,665.981 681.854,658.133 684.097,650.205 686.339,642.198 688.582,634.11 690.825,625.941 693.068,617.689 695.311,609.355 697.554,600.936 699.796,592.433 702.039,583.845 704.282,575.17 706.525,566.407 708.768,557.556 711.011,548.617 713.253,539.587 715.496,530.466 717.739,521.254 719.982,511.948 722.225,502.549 724.467,493.055 726.71,483.466 728.953,473.78 731.196,463.997 733.439,454.115 735.682,444.133 737.924,434.051 740.167,423.867 742.41,413.581 744.653,403.191 746.896,392.697 749.138,382.097 751.381,371.39 753.624,360.576 755.867,349.653 758.11,338.62 760.353,327.476 762.595,316.22 764.838,304.85 767.081,293.367 769.324,281.768 771.567,270.053 773.81,258.22 776.052,246.268 778.295,234.196 780.538,222.002 782.781,209.686 785.024,197.246 787.266,184.681 789.509,171.989 791.752,159.17 793.995,146.222 796.238,789.687 798.481,783.082 800.723,776.411 802.966,769.672 805.209,762.866 807.452,755.991 809.695,749.047 811.938,742.033 814.18,734.948 816.423,727.792 818.666,720.565 820.909,713.264 823.152,705.89 825.394,698.442 827.637,690.919 829.88,683.321 832.123,675.646 834.366,667.894 836.609,660.063 838.851,652.154 841.094,644.166 843.337,636.097 845.58,627.947 847.823,619.714 850.065,611.399 852.308,603.001 854.551,594.517 856.794,585.949 859.037,577.294 861.28,568.552 863.522,559.723 865.765,550.804 868.008,541.796 870.251,532.697 872.494,523.506 874.737,514.223 876.979,504.847 879.222,495.376 881.465,966.033 883.708,961.202 885.951,956.322 888.193,951.393 890.436,946.415 892.679,941.386 894.922,936.307 897.165,931.177 899.408,925.995 901.65,920.761 903.893,915.474 906.136,910.135 908.379,904.741 910.622,899.294 912.864,893.792 915.107,888.234 917.35,882.621 919.593,876.951 921.836,871.224 924.079,865.44 926.321,859.598 928.564,853.697 930.807,847.736 933.05,841.716 935.293,835.635 937.536,829.493 939.778,823.289 942.021,817.023 944.264,810.694 946.507,804.301 948.75,797.843 950.992,791.321 953.235,784.733 955.478,778.079 957.721,771.358 959.964,764.569 962.207,757.712 964.449,750.786 966.692,743.79 968.935,736.724 971.178,729.587 973.421,722.377 975.663,715.095 977.906,707.74 980.149,700.31 982.392,692.806 984.635,685.226 986.878,677.57 989.12,669.837 991.363,662.025 993.606,654.136 995.849,646.166 998.092,638.116 1000.33,629.986 1002.58,621.773 1004.82,613.478 1007.06,605.099 1009.31,596.636 1011.55,588.088 1013.79,579.454 1016.03,570.733 1018.28,561.924 1020.52,553.027 1022.76,544.04 1025.01,534.963 1027.25,525.794 1029.49,516.534 1031.73,507.181 1033.98,497.734 1036.22,488.191 1038.46,478.553 1040.71,468.818 1042.95,458.985 1045.19,449.053 1047.43,439.021 1049.68,428.888 1051.92,418.653 1054.16,408.315 1056.41,397.874 1058.65,387.327 1060.89,376.674 1063.13,365.914 1065.38,355.046 1067.62,344.068 1069.86,332.98 1072.1,321.78 1074.35,310.468 1076.59,299.042 1078.83,287.501 1081.08,275.844 1083.32,264.069 1085.56,252.176 1087.8,240.164 1090.05,228.03 1092.29,215.775 1094.53,203.396 1096.78,190.892 1099.02,812.262 1101.26,805.884 1103.5,799.442 1105.75,792.935 1107.99,786.363 1110.23,779.724 1112.48,773.019 1114.72,766.246 1116.96,759.405 1119.2,752.495 1121.45,745.516 1123.69,738.467 1125.93,1088.79 1128.18,1085.19 1130.42,1081.56 1132.66,1077.89 1134.9,1074.19 1137.15,1070.44 1139.39,1066.66 1141.63,1062.84 1143.88,1058.98 1146.12,1055.09 1148.36,1051.15 1150.6,1047.18 1152.85,1043.16 1155.09,1039.11 1157.33,1035.01 1159.57,1030.88 1161.82,1026.7 1164.06,1022.48 1166.3,1018.22 1168.55,1013.91 1170.79,1009.56 1173.03,1005.17 1175.27,1000.73 1177.52,996.252 1179.76,991.726 1182,987.154 1184.25,982.537 1186.49,977.873 1188.73,973.163 1190.97,968.405 1193.22,963.599 1195.46,958.745 1197.7,953.842 1199.95,948.89 1202.19,943.888 1204.43,938.836 1206.67,933.732 1208.92,928.578 1211.16,923.372 1213.4,918.113 1215.65,912.801 1217.89,907.436 1220.13,902.016 1222.37,896.542 1224.62,891.013 1226.86,885.429 1229.1,879.788 1231.35,874.09 1233.59,868.334 1235.83,862.521 1238.07,856.649 1240.32,850.718 1242.56,844.727 1244.8,838.675 1247.04,832.563 1249.29,826.389 1251.53,820.153 1253.77,813.854 1256.02,807.491 1258.26,801.064 1260.5,794.572 1262.74,788.015 1264.99,781.392 1267.23,774.702 1269.47,767.945 1271.72,761.12 1273.96,754.226 1276.2,747.262 1278.44,740.228 1280.69,733.124 1282.93,725.948 1285.17,718.7 1287.42,711.379 1289.66,703.984 1291.9,696.515 1294.14,688.971 1296.39,681.352 1298.63,673.656 1300.87,665.882 1303.12,658.031 1305.36,650.1 1307.6,642.091 1309.84,634.001 1312.09,625.83 1314.33,617.576 1316.57,609.24 1318.82,600.819 1321.06,592.314 1323.3,583.723 1325.54,1010.64 1327.79,1006.26 1330.03,1001.83 1332.27,997.359 1334.51,992.843 1336.76,988.282 1339,983.674 1341.24,979.021 1343.49,974.32 1345.73,969.573 1347.97,964.777 1350.21,959.934 1352.46,955.041 1354.7,950.1 1356.94,945.109 1359.19,940.067 1361.43,934.975 1363.67,929.832 1365.91,924.637 1368.16,919.39 1370.4,914.09 1372.64,908.737 1374.89,903.33 1377.13,897.869 1379.37,892.352 1381.61,886.781 1383.86,881.153 1386.1,875.468 1388.34,869.727 1390.59,863.927 1392.83,858.069 1395.07,852.153 1397.31,846.176 1399.56,840.14 1401.8,834.043 1404.04,827.884 1406.29,821.663 1408.53,815.38 1410.77,809.033 1413.01,802.623 1415.26,796.148 1417.5,789.608 1419.74,783.002 1421.98,776.329 1424.23,769.59 1426.47,762.782 1428.71,755.906 1430.96,748.961 1433.2,741.946 1435.44,734.86 1437.68,727.703 1439.93,720.473 1442.17,713.172 1444.41,705.796 1446.66,698.347 1448.9,690.822 1451.14,683.222 1453.38,675.546 1455.63,667.792 1457.87,659.961 1460.11,1049.18 1462.36,1045.19 1464.6,1041.15 1466.84,1037.08 1469.08,1032.96 1471.33,1028.8 1473.57,1024.6 1475.81,1020.36 1478.06,1016.07 1480.3,1011.75 1482.54,1007.37 1484.78,1002.96 1487.03,998.5 1489.27,993.995 1491.51,989.446 1493.76,984.851 1496,980.209 1498.24,975.522 1500.48,970.787 1502.73,966.004 1504.97,961.174 1507.21,956.295 1509.46,951.367 1511.7,946.39 1513.94,941.363 1516.18,936.285 1518.43,931.157 1520.67,925.977 1522.91,920.745 1525.15,915.46 1527.4,910.122 1529.64,904.731 1531.88,899.285 1534.13,893.785 1536.37,888.229 1538.61,882.618 1540.85,876.95 1543.1,871.225 1545.34,865.442 1547.58,859.601 1549.83,853.702 1552.07,847.743 1554.31,841.724 1556.55,835.644 1558.8,829.503 1561.04,823.301 1563.28,817.035 1565.53,810.707 1567.77,804.315 1570.01,797.858 1572.25,791.336 1574.5,784.748 1576.74,778.094 1578.98,771.373 1581.23,764.584 1583.47,757.727 1585.71,750.8 1587.95,743.804 1590.2,736.737 1592.44,729.599 1594.68,722.388 1596.93,715.105 1599.17,707.749 1601.41,700.318 1603.65,692.812 1605.9,685.231 1608.14,677.573 1610.38,669.838 1612.62,662.025 1614.87,654.133 1617.11,646.162 1619.35,638.11 1621.6,629.978 1623.84,621.763 1626.08,613.466 1628.32,605.085 1630.57,596.62 1632.81,588.07 1635.05,579.434 1637.3,570.711 1639.54,561.901 1641.78,553.002 1644.02,544.014 1646.27,534.935 1648.51,525.766 1650.75,516.505 1653,507.151 1655.24,497.703 1657.48,488.16 1659.72,478.522 1661.97,468.786 1664.21,458.953 1666.45,449.02 1668.7,438.988 1670.94,428.855 1673.18,418.62 1675.42,408.282 1677.67,397.839 1679.91,387.292 1682.15,376.639 1684.4,365.879 1686.64,355.01 1688.88,344.032 1691.12,332.944 1693.37,321.744 1695.61,310.431 1697.85,299.005 1700.09,287.464 1702.34,275.806 1704.58,264.031 1706.82,252.138 1709.07,240.125 1711.31,227.991 1713.55,215.736 1715.79,203.356 1718.04,190.853 1720.28,178.223 1722.52,165.466 1724.77,152.581 1727.01,139.567 1729.25,126.421 1731.49,113.143 1733.74,99.7319 1735.98,86.1857 1738.22,759.423 1740.47,752.513 1742.71,745.534 1744.95,738.485 1747.19,731.365 1749.44,724.173 1751.68,716.909 1753.92,709.572 1756.17,702.161 1758.41,694.675 1760.65,687.114 1762.89,679.477 1765.14,671.763 1767.38,663.972 1769.62,656.102 1771.87,648.153 1774.11,640.124 1776.35,632.015 1778.59,623.823 1780.84,615.55 1783.08,607.193 1785.32,1022.49 1787.56,1018.23 1789.81,1013.92 1792.05,1009.57 1794.29,1005.18 1796.54,1000.74 1798.78,996.258 1801.02,991.731 1803.26,987.157 1805.51,982.538 1807.75,977.873 1809.99,973.161 1812.24,968.401 1814.48,963.594 1816.72,958.739 1818.96,953.834 1821.21,948.881 1823.45,943.878 1825.69,938.825 1827.94,933.721 1830.18,928.567 1832.42,923.36 1834.66,918.102 1836.91,912.79 1839.15,907.426 1841.39,902.008 1843.64,896.535 1845.88,891.008 1848.12,885.425 1850.36,879.786 1852.61,874.09 1854.85,868.338 1857.09,862.527 1859.34,856.659 1861.58,850.731 1863.82,844.744 1866.06,838.697 1868.31,832.589 1870.55,826.42 1872.79,820.188 1875.03,813.894 1877.28,807.537 1879.52,801.115 1881.76,794.629 1884.01,788.078 1886.25,781.461 1888.49,774.777 1890.73,768.026 1892.98,761.206 1895.22,754.318 1897.46,747.361 1899.71,740.333 1901.95,733.235 1904.19,726.065 1906.43,718.822 1908.68,711.506 1910.92,704.117 1913.16,696.653 1915.41,689.114 1917.65,681.498 1919.89,673.806 1922.13,666.035 1924.38,658.187 1926.62,650.259 1928.86,642.251 1931.11,634.162 1933.35,625.992 1935.59,617.739 1937.83,609.402 1940.08,600.981 1942.32,592.476 1944.56,583.884 1946.81,575.206 1949.05,566.44 1951.29,557.586 1953.53,548.642 1955.78,539.608 1958.02,530.483 1960.26,521.265 1962.5,511.955 1964.75,502.551 1966.99,493.053 1969.23,483.458 1971.48,473.767 1973.72,463.979 1975.96,454.092 1978.2,444.105 1980.45,434.018 1982.69,423.83 1984.93,413.539 1987.18,403.145 1989.42,392.647 1991.66,382.043 1993.9,371.333 1996.15,360.516 1998.39,349.59 2000.63,338.555 2002.88,327.41 2005.12,316.153 2007.36,304.784 2009.6,293.3 2011.85,281.701 2014.09,269.986 2016.33,258.152 2018.58,246.2 2020.82,234.127 2023.06,221.933 2025.3,209.616 2027.55,197.176 2029.79,184.61 2032.03,171.917 2034.28,802.657 2036.52,796.182 2038.76,789.643 2041,783.037 2043.25,776.365 2045.49,769.626 2047.73,762.819 2049.97,755.944 2052.22,748.999 2054.46,741.985 2056.7,734.9 2058.95,727.744 2061.19,720.516 2063.43,1079.72 2065.67,1076.03 2067.92,1072.31 2070.16,1068.54 2072.4,1064.74 2074.65,1060.91 2076.89,1057.03 2079.13,1053.11 2081.37,1049.16 2083.62,1045.16 2085.86,1041.13 2088.1,1037.05 2090.35,1032.93 2092.59,1028.78 2094.83,1024.58 2097.07,1020.33 2099.32,1016.05 2101.56,1011.72 2103.8,1007.35 2106.05,1002.94 2108.29,998.479 2110.53,993.975 2112.77,989.427 2115.02,984.833 2117.26,980.193 2119.5,975.507 2121.75,970.774 2123.99,965.993 2126.23,961.165 2128.47,956.288 2130.72,951.362 2132.96,946.386 2135.2,941.361 2137.45,936.286 2139.69,931.159 2141.93,925.981 2144.17,920.751 2146.42,915.469 2148.66,910.133 2150.9,904.744 2153.14,899.301 2155.39,893.803 2157.63,888.249 2159.87,882.64 2162.12,876.974 2164.36,871.252 2166.6,865.471 2168.84,859.633 2171.09,853.735 2173.33,847.779 2175.57,841.762 2177.82,835.684 2180.06,829.545 2182.3,823.344 2184.54,817.081 2186.79,810.755 2189.03,804.364 2191.27,797.909 2193.52,791.389 2195.76,784.803 2198,778.151 2200.24,771.431 2202.49,764.643 2204.73,757.787 2206.97,750.862 2209.22,743.866 2211.46,736.8 2213.7,729.663 2215.94,722.453 2218.19,715.17 2220.43,707.814 2222.67,700.384 2224.92,692.878 2227.16,685.297 2229.4,677.639 2231.64,669.904 2233.89,662.09 2236.13,654.198 2238.37,646.226 2240.61,638.174 2242.86,630.04 2245.1,621.824 2247.34,613.526 2249.59,605.143 2251.83,596.677 2254.07,588.125 2256.31,579.486 2258.56,570.761 2260.8,561.948 2263.04,553.046 2265.29,544.055 2267.53,534.974 2269.77,525.801 2272.01,516.536 2274.26,507.178 2276.5,497.726 2278.74,488.18 2280.99,478.537 2283.23,468.799 2285.47,458.963 2287.71,449.028 2289.96,438.994 2292.2,428.86 2294.44,418.625 2296.69,408.287 2298.93,397.845 2301.17,387.298 2303.41,376.644 2305.66,365.884 2307.9,355.015 2310.14,344.037 2312.39,332.949 2314.63,321.749 2316.87,310.436 2319.11,299.01 2321.36,287.468 2323.6,275.811 2325.84,264.036 2328.08,252.143 2330.33,843.183 2332.57,837.116 2334.81,830.988 2337.06,824.799 2339.3,818.547 2341.54,812.232 2343.78,805.854 2346.03,799.411 2348.27,792.904 2350.51,786.331 2352.76,779.693 "/>
<path clip-path="url(#clip100)" d="M186.863 196.789 L500.018 196.789 L500.018 93.1086 L186.863 93.1086  Z" fill="#ffffff" fill-rule="evenodd" fill-opacity="1"/>
<polyline clip-path="url(#clip100)" style="stroke:#000000; stroke-linecap:round; stroke-linejoin:round; stroke-width:4; stroke-opacity:1; fill:none" points="186.863,196.789 500.018,196.789 500.018,93.1086 186.863,93.1086 186.863,196.789 "/>
<polyline clip-path="url(#clip100)" style="stroke:#009af9; stroke-linecap:round; stroke-linejoin:round; stroke-width:8; stroke-opacity:1; fill:none" points="211.758,144.949 361.13,144.949 "/>
<path clip-path="url(#clip100)" d="M386.026 151.997 L386.026 136.303 L390.285 136.303 L390.285 151.835 Q390.285 155.516 391.72 157.368 Q393.155 159.196 396.026 159.196 Q399.475 159.196 401.465 156.997 Q403.479 154.798 403.479 151.002 L403.479 136.303 L407.739 136.303 L407.739 162.229 L403.479 162.229 L403.479 158.247 Q401.928 160.608 399.868 161.766 Q397.831 162.9 395.123 162.9 Q390.655 162.9 388.34 160.122 Q386.026 157.344 386.026 151.997 M396.743 135.678 L396.743 135.678 Z" fill="#000000" fill-rule="nonzero" fill-opacity="1" /><path clip-path="url(#clip100)" d="M416.118 126.21 L425.933 126.21 L425.933 129.52 L420.377 129.52 L420.377 165.168 L425.933 165.168 L425.933 168.479 L416.118 168.479 L416.118 126.21 Z" fill="#000000" fill-rule="nonzero" fill-opacity="1" /><path clip-path="url(#clip100)" d="M436.419 158.293 L444.058 158.293 L444.058 131.928 L435.748 133.595 L435.748 129.335 L444.011 127.669 L448.687 127.669 L448.687 158.293 L456.326 158.293 L456.326 162.229 L436.419 162.229 L436.419 158.293 Z" fill="#000000" fill-rule="nonzero" fill-opacity="1" /><path clip-path="url(#clip100)" d="M475.122 126.21 L475.122 168.479 L465.308 168.479 L465.308 165.168 L470.84 165.168 L470.84 129.52 L465.308 129.52 L465.308 126.21 L475.122 126.21 Z" fill="#000000" fill-rule="nonzero" fill-opacity="1" /></svg>
