<?xml version="1.0" encoding="utf-8"?>
<svg xmlns="http://www.w3.org/2000/svg" xmlns:xlink="http://www.w3.org/1999/xlink" width="600" height="400" viewBox="0 0 2400 1600">
<defs>
  <clipPath id="clip760">
    <rect x="0" y="0" width="2400" height="1600"/>
  </clipPath>
</defs>
<path clip-path="url(#clip760)" d="M0 1600 L2400 1600 L2400 0 L0 0  Z" fill="#ffffff" fill-rule="evenodd" fill-opacity="1"/>
<defs>
  <clipPath id="clip761">
    <rect x="480" y="0" width="1681" height="1600"/>
  </clipPath>
</defs>
<path clip-path="url(#clip760)" d="M186.274 1423.18 L2352.76 1423.18 L2352.76 47.2441 L186.274 47.2441  Z" fill="#ffffff" fill-rule="evenodd" fill-opacity="1"/>
<defs>
  <clipPath id="clip762">
    <rect x="186" y="47" width="2167" height="1377"/>
  </clipPath>
</defs>
<polyline clip-path="url(#clip762)" style="stroke:#000000; stroke-linecap:round; stroke-linejoin:round; stroke-width:2; stroke-opacity:0.1; fill:none" points="186.274,1423.18 186.274,47.2441 "/>
<polyline clip-path="url(#clip762)" style="stroke:#000000; stroke-linecap:round; stroke-linejoin:round; stroke-width:2; stroke-opacity:0.1; fill:none" points="619.57,1423.18 619.57,47.2441 "/>
<polyline clip-path="url(#clip762)" style="stroke:#000000; stroke-linecap:round; stroke-linejoin:round; stroke-width:2; stroke-opacity:0.1; fill:none" points="1052.87,1423.18 1052.87,47.2441 "/>
<polyline clip-path="url(#clip762)" style="stroke:#000000; stroke-linecap:round; stroke-linejoin:round; stroke-width:2; stroke-opacity:0.1; fill:none" points="1486.16,1423.18 1486.16,47.2441 "/>
<polyline clip-path="url(#clip762)" style="stroke:#000000; stroke-linecap:round; stroke-linejoin:round; stroke-width:2; stroke-opacity:0.1; fill:none" points="1919.46,1423.18 1919.46,47.2441 "/>
<polyline clip-path="url(#clip762)" style="stroke:#000000; stroke-linecap:round; stroke-linejoin:round; stroke-width:2; stroke-opacity:0.1; fill:none" points="2352.76,1423.18 2352.76,47.2441 "/>
<polyline clip-path="url(#clip762)" style="stroke:#000000; stroke-linecap:round; stroke-linejoin:round; stroke-width:2; stroke-opacity:0.1; fill:none" points="186.274,1346.95 2352.76,1346.95 "/>
<polyline clip-path="url(#clip762)" style="stroke:#000000; stroke-linecap:round; stroke-linejoin:round; stroke-width:2; stroke-opacity:0.1; fill:none" points="186.274,1160.51 2352.76,1160.51 "/>
<polyline clip-path="url(#clip762)" style="stroke:#000000; stroke-linecap:round; stroke-linejoin:round; stroke-width:2; stroke-opacity:0.1; fill:none" points="186.274,974.061 2352.76,974.061 "/>
<polyline clip-path="url(#clip762)" style="stroke:#000000; stroke-linecap:round; stroke-linejoin:round; stroke-width:2; stroke-opacity:0.1; fill:none" points="186.274,787.617 2352.76,787.617 "/>
<polyline clip-path="url(#clip762)" style="stroke:#000000; stroke-linecap:round; stroke-linejoin:round; stroke-width:2; stroke-opacity:0.1; fill:none" points="186.274,601.173 2352.76,601.173 "/>
<polyline clip-path="url(#clip762)" style="stroke:#000000; stroke-linecap:round; stroke-linejoin:round; stroke-width:2; stroke-opacity:0.1; fill:none" points="186.274,414.729 2352.76,414.729 "/>
<polyline clip-path="url(#clip762)" style="stroke:#000000; stroke-linecap:round; stroke-linejoin:round; stroke-width:2; stroke-opacity:0.1; fill:none" points="186.274,228.285 2352.76,228.285 "/>
<polyline clip-path="url(#clip760)" style="stroke:#000000; stroke-linecap:round; stroke-linejoin:round; stroke-width:4; stroke-opacity:1; fill:none" points="186.274,1423.18 2352.76,1423.18 "/>
<polyline clip-path="url(#clip760)" style="stroke:#000000; stroke-linecap:round; stroke-linejoin:round; stroke-width:4; stroke-opacity:1; fill:none" points="186.274,1423.18 186.274,1404.28 "/>
<polyline clip-path="url(#clip760)" style="stroke:#000000; stroke-linecap:round; stroke-linejoin:round; stroke-width:4; stroke-opacity:1; fill:none" points="619.57,1423.18 619.57,1404.28 "/>
<polyline clip-path="url(#clip760)" style="stroke:#000000; stroke-linecap:round; stroke-linejoin:round; stroke-width:4; stroke-opacity:1; fill:none" points="1052.87,1423.18 1052.87,1404.28 "/>
<polyline clip-path="url(#clip760)" style="stroke:#000000; stroke-linecap:round; stroke-linejoin:round; stroke-width:4; stroke-opacity:1; fill:none" points="1486.16,1423.18 1486.16,1404.28 "/>
<polyline clip-path="url(#clip760)" style="stroke:#000000; stroke-linecap:round; stroke-linejoin:round; stroke-width:4; stroke-opacity:1; fill:none" points="1919.46,1423.18 1919.46,1404.28 "/>
<polyline clip-path="url(#clip760)" style="stroke:#000000; stroke-linecap:round; stroke-linejoin:round; stroke-width:4; stroke-opacity:1; fill:none" points="2352.76,1423.18 2352.76,1404.28 "/>
<path clip-path="url(#clip760)" d="M186.274 1454.1 Q182.663 1454.1 180.834 1457.66 Q179.029 1461.2 179.029 1468.33 Q179.029 1475.44 180.834 1479.01 Q182.663 1482.55 186.274 1482.55 Q189.908 1482.55 191.714 1479.01 Q193.542 1475.44 193.542 1468.33 Q193.542 1461.2 191.714 1457.66 Q189.908 1454.1 186.274 1454.1 M186.274 1450.39 Q192.084 1450.39 195.14 1455 Q198.218 1459.58 198.218 1468.33 Q198.218 1477.06 195.14 1481.67 Q192.084 1486.25 186.274 1486.25 Q180.464 1486.25 177.385 1481.67 Q174.33 1477.06 174.33 1468.33 Q174.33 1459.58 177.385 1455 Q180.464 1450.39 186.274 1450.39 Z" fill="#000000" fill-rule="nonzero" fill-opacity="1" /><path clip-path="url(#clip760)" d="M614.223 1481.64 L630.543 1481.64 L630.543 1485.58 L608.598 1485.58 L608.598 1481.64 Q611.26 1478.89 615.844 1474.26 Q620.45 1469.61 621.631 1468.27 Q623.876 1465.74 624.756 1464.01 Q625.658 1462.25 625.658 1460.56 Q625.658 1457.8 623.714 1456.07 Q621.793 1454.33 618.691 1454.33 Q616.492 1454.33 614.038 1455.09 Q611.607 1455.86 608.83 1457.41 L608.83 1452.69 Q611.654 1451.55 614.107 1450.97 Q616.561 1450.39 618.598 1450.39 Q623.969 1450.39 627.163 1453.08 Q630.357 1455.77 630.357 1460.26 Q630.357 1462.39 629.547 1464.31 Q628.76 1466.2 626.654 1468.8 Q626.075 1469.47 622.973 1472.69 Q619.871 1475.88 614.223 1481.64 Z" fill="#000000" fill-rule="nonzero" fill-opacity="1" /><path clip-path="url(#clip760)" d="M1055.88 1455.09 L1044.07 1473.54 L1055.88 1473.54 L1055.88 1455.09 M1054.65 1451.02 L1060.53 1451.02 L1060.53 1473.54 L1065.46 1473.54 L1065.46 1477.43 L1060.53 1477.43 L1060.53 1485.58 L1055.88 1485.58 L1055.88 1477.43 L1040.27 1477.43 L1040.27 1472.92 L1054.65 1451.02 Z" fill="#000000" fill-rule="nonzero" fill-opacity="1" /><path clip-path="url(#clip760)" d="M1486.57 1466.44 Q1483.42 1466.44 1481.57 1468.59 Q1479.74 1470.74 1479.74 1474.49 Q1479.74 1478.22 1481.57 1480.39 Q1483.42 1482.55 1486.57 1482.55 Q1489.72 1482.55 1491.55 1480.39 Q1493.4 1478.22 1493.4 1474.49 Q1493.4 1470.74 1491.55 1468.59 Q1489.72 1466.44 1486.57 1466.44 M1495.85 1451.78 L1495.85 1456.04 Q1494.09 1455.21 1492.29 1454.77 Q1490.5 1454.33 1488.74 1454.33 Q1484.11 1454.33 1481.66 1457.45 Q1479.23 1460.58 1478.88 1466.9 Q1480.25 1464.89 1482.31 1463.82 Q1484.37 1462.73 1486.85 1462.73 Q1492.05 1462.73 1495.06 1465.9 Q1498.1 1469.05 1498.1 1474.49 Q1498.1 1479.82 1494.95 1483.03 Q1491.8 1486.25 1486.57 1486.25 Q1480.57 1486.25 1477.4 1481.67 Q1474.23 1477.06 1474.23 1468.33 Q1474.23 1460.14 1478.12 1455.28 Q1482.01 1450.39 1488.56 1450.39 Q1490.32 1450.39 1492.1 1450.74 Q1493.91 1451.09 1495.85 1451.78 Z" fill="#000000" fill-rule="nonzero" fill-opacity="1" /><path clip-path="url(#clip760)" d="M1919.46 1469.17 Q1916.13 1469.17 1914.2 1470.95 Q1912.31 1472.73 1912.31 1475.86 Q1912.31 1478.98 1914.2 1480.77 Q1916.13 1482.55 1919.46 1482.55 Q1922.79 1482.55 1924.71 1480.77 Q1926.64 1478.96 1926.64 1475.86 Q1926.64 1472.73 1924.71 1470.95 Q1922.82 1469.17 1919.46 1469.17 M1914.78 1467.18 Q1911.77 1466.44 1910.08 1464.38 Q1908.42 1462.32 1908.42 1459.35 Q1908.42 1455.21 1911.36 1452.8 Q1914.32 1450.39 1919.46 1450.39 Q1924.62 1450.39 1927.56 1452.8 Q1930.5 1455.21 1930.5 1459.35 Q1930.5 1462.32 1928.81 1464.38 Q1927.14 1466.44 1924.16 1467.18 Q1927.54 1467.96 1929.41 1470.26 Q1931.31 1472.55 1931.31 1475.86 Q1931.31 1480.88 1928.23 1483.57 Q1925.18 1486.25 1919.46 1486.25 Q1913.74 1486.25 1910.66 1483.57 Q1907.61 1480.88 1907.61 1475.86 Q1907.61 1472.55 1909.51 1470.26 Q1911.4 1467.96 1914.78 1467.18 M1913.07 1459.79 Q1913.07 1462.48 1914.74 1463.98 Q1916.43 1465.49 1919.46 1465.49 Q1922.47 1465.49 1924.16 1463.98 Q1925.87 1462.48 1925.87 1459.79 Q1925.87 1457.11 1924.16 1455.6 Q1922.47 1454.1 1919.46 1454.1 Q1916.43 1454.1 1914.74 1455.6 Q1913.07 1457.11 1913.07 1459.79 Z" fill="#000000" fill-rule="nonzero" fill-opacity="1" /><path clip-path="url(#clip760)" d="M2327.44 1481.64 L2335.08 1481.64 L2335.08 1455.28 L2326.77 1456.95 L2326.77 1452.69 L2335.04 1451.02 L2339.71 1451.02 L2339.71 1481.64 L2347.35 1481.64 L2347.35 1485.58 L2327.44 1485.58 L2327.44 1481.64 Z" fill="#000000" fill-rule="nonzero" fill-opacity="1" /><path clip-path="url(#clip760)" d="M2366.8 1454.1 Q2363.18 1454.1 2361.36 1457.66 Q2359.55 1461.2 2359.55 1468.33 Q2359.55 1475.44 2361.36 1479.01 Q2363.18 1482.55 2366.8 1482.55 Q2370.43 1482.55 2372.23 1479.01 Q2374.06 1475.44 2374.06 1468.33 Q2374.06 1461.2 2372.23 1457.66 Q2370.43 1454.1 2366.8 1454.1 M2366.8 1450.39 Q2372.61 1450.39 2375.66 1455 Q2378.74 1459.58 2378.74 1468.33 Q2378.74 1477.06 2375.66 1481.67 Q2372.61 1486.25 2366.8 1486.25 Q2360.99 1486.25 2357.91 1481.67 Q2354.85 1477.06 2354.85 1468.33 Q2354.85 1459.58 2357.91 1455 Q2360.99 1450.39 2366.8 1450.39 Z" fill="#000000" fill-rule="nonzero" fill-opacity="1" /><path clip-path="url(#clip760)" d="M1268.58 1522.27 L1268.58 1532.4 L1280.64 1532.4 L1280.64 1536.95 L1268.58 1536.95 L1268.58 1556.3 Q1268.58 1560.66 1269.75 1561.9 Q1270.96 1563.14 1274.62 1563.14 L1280.64 1563.14 L1280.64 1568.04 L1274.62 1568.04 Q1267.84 1568.04 1265.27 1565.53 Q1262.69 1562.98 1262.69 1556.3 L1262.69 1536.95 L1258.39 1536.95 L1258.39 1532.4 L1262.69 1532.4 L1262.69 1522.27 L1268.58 1522.27 Z" fill="#000000" fill-rule="nonzero" fill-opacity="1" /><polyline clip-path="url(#clip760)" style="stroke:#000000; stroke-linecap:round; stroke-linejoin:round; stroke-width:4; stroke-opacity:1; fill:none" points="186.274,1423.18 186.274,47.2441 "/>
<polyline clip-path="url(#clip760)" style="stroke:#000000; stroke-linecap:round; stroke-linejoin:round; stroke-width:4; stroke-opacity:1; fill:none" points="186.274,1346.95 205.172,1346.95 "/>
<polyline clip-path="url(#clip760)" style="stroke:#000000; stroke-linecap:round; stroke-linejoin:round; stroke-width:4; stroke-opacity:1; fill:none" points="186.274,1160.51 205.172,1160.51 "/>
<polyline clip-path="url(#clip760)" style="stroke:#000000; stroke-linecap:round; stroke-linejoin:round; stroke-width:4; stroke-opacity:1; fill:none" points="186.274,974.061 205.172,974.061 "/>
<polyline clip-path="url(#clip760)" style="stroke:#000000; stroke-linecap:round; stroke-linejoin:round; stroke-width:4; stroke-opacity:1; fill:none" points="186.274,787.617 205.172,787.617 "/>
<polyline clip-path="url(#clip760)" style="stroke:#000000; stroke-linecap:round; stroke-linejoin:round; stroke-width:4; stroke-opacity:1; fill:none" points="186.274,601.173 205.172,601.173 "/>
<polyline clip-path="url(#clip760)" style="stroke:#000000; stroke-linecap:round; stroke-linejoin:round; stroke-width:4; stroke-opacity:1; fill:none" points="186.274,414.729 205.172,414.729 "/>
<polyline clip-path="url(#clip760)" style="stroke:#000000; stroke-linecap:round; stroke-linejoin:round; stroke-width:4; stroke-opacity:1; fill:none" points="186.274,228.285 205.172,228.285 "/>
<path clip-path="url(#clip760)" d="M63.9319 1332.75 Q60.3208 1332.75 58.4921 1336.31 Q56.6865 1339.85 56.6865 1346.98 Q56.6865 1354.09 58.4921 1357.66 Q60.3208 1361.2 63.9319 1361.2 Q67.5661 1361.2 69.3717 1357.66 Q71.2004 1354.09 71.2004 1346.98 Q71.2004 1339.85 69.3717 1336.31 Q67.5661 1332.75 63.9319 1332.75 M63.9319 1329.04 Q69.742 1329.04 72.7976 1333.65 Q75.8763 1338.23 75.8763 1346.98 Q75.8763 1355.71 72.7976 1360.32 Q69.742 1364.9 63.9319 1364.9 Q58.1217 1364.9 55.043 1360.32 Q51.9875 1355.71 51.9875 1346.98 Q51.9875 1338.23 55.043 1333.65 Q58.1217 1329.04 63.9319 1329.04 Z" fill="#000000" fill-rule="nonzero" fill-opacity="1" /><path clip-path="url(#clip760)" d="M84.0938 1358.35 L88.978 1358.35 L88.978 1364.23 L84.0938 1364.23 L84.0938 1358.35 Z" fill="#000000" fill-rule="nonzero" fill-opacity="1" /><path clip-path="url(#clip760)" d="M103.191 1360.29 L119.51 1360.29 L119.51 1364.23 L97.566 1364.23 L97.566 1360.29 Q100.228 1357.54 104.811 1352.91 Q109.418 1348.26 110.598 1346.91 Q112.844 1344.39 113.723 1342.66 Q114.626 1340.9 114.626 1339.21 Q114.626 1336.45 112.682 1334.72 Q110.76 1332.98 107.658 1332.98 Q105.459 1332.98 103.006 1333.74 Q100.575 1334.51 97.7974 1336.06 L97.7974 1331.34 Q100.621 1330.2 103.075 1329.62 Q105.529 1329.04 107.566 1329.04 Q112.936 1329.04 116.131 1331.73 Q119.325 1334.41 119.325 1338.91 Q119.325 1341.04 118.515 1342.96 Q117.728 1344.85 115.621 1347.45 Q115.043 1348.12 111.941 1351.34 Q108.839 1354.53 103.191 1360.29 Z" fill="#000000" fill-rule="nonzero" fill-opacity="1" /><path clip-path="url(#clip760)" d="M129.371 1329.67 L147.728 1329.67 L147.728 1333.6 L133.654 1333.6 L133.654 1342.08 Q134.672 1341.73 135.691 1341.57 Q136.709 1341.38 137.728 1341.38 Q143.515 1341.38 146.894 1344.55 Q150.274 1347.72 150.274 1353.14 Q150.274 1358.72 146.802 1361.82 Q143.33 1364.9 137.01 1364.9 Q134.834 1364.9 132.566 1364.53 Q130.32 1364.16 127.913 1363.42 L127.913 1358.72 Q129.996 1359.85 132.219 1360.41 Q134.441 1360.97 136.918 1360.97 Q140.922 1360.97 143.26 1358.86 Q145.598 1356.75 145.598 1353.14 Q145.598 1349.53 143.26 1347.42 Q140.922 1345.32 136.918 1345.32 Q135.043 1345.32 133.168 1345.73 Q131.316 1346.15 129.371 1347.03 L129.371 1329.67 Z" fill="#000000" fill-rule="nonzero" fill-opacity="1" /><path clip-path="url(#clip760)" d="M62.9365 1146.3 Q59.3254 1146.3 57.4967 1149.87 Q55.6912 1153.41 55.6912 1160.54 Q55.6912 1167.65 57.4967 1171.21 Q59.3254 1174.75 62.9365 1174.75 Q66.5707 1174.75 68.3763 1171.21 Q70.205 1167.65 70.205 1160.54 Q70.205 1153.41 68.3763 1149.87 Q66.5707 1146.3 62.9365 1146.3 M62.9365 1142.6 Q68.7467 1142.6 71.8022 1147.21 Q74.8809 1151.79 74.8809 1160.54 Q74.8809 1169.27 71.8022 1173.87 Q68.7467 1178.46 62.9365 1178.46 Q57.1264 1178.46 54.0477 1173.87 Q50.9921 1169.27 50.9921 1160.54 Q50.9921 1151.79 54.0477 1147.21 Q57.1264 1142.6 62.9365 1142.6 Z" fill="#000000" fill-rule="nonzero" fill-opacity="1" /><path clip-path="url(#clip760)" d="M83.0984 1171.91 L87.9827 1171.91 L87.9827 1177.79 L83.0984 1177.79 L83.0984 1171.91 Z" fill="#000000" fill-rule="nonzero" fill-opacity="1" /><path clip-path="url(#clip760)" d="M98.2141 1143.23 L116.57 1143.23 L116.57 1147.16 L102.496 1147.16 L102.496 1155.63 Q103.515 1155.29 104.534 1155.12 Q105.552 1154.94 106.571 1154.94 Q112.358 1154.94 115.737 1158.11 Q119.117 1161.28 119.117 1166.7 Q119.117 1172.28 115.645 1175.38 Q112.172 1178.46 105.853 1178.46 Q103.677 1178.46 101.409 1178.09 Q99.1632 1177.72 96.7558 1176.98 L96.7558 1172.28 Q98.8391 1173.41 101.061 1173.97 Q103.284 1174.52 105.76 1174.52 Q109.765 1174.52 112.103 1172.42 Q114.441 1170.31 114.441 1166.7 Q114.441 1163.09 112.103 1160.98 Q109.765 1158.87 105.76 1158.87 Q103.885 1158.87 102.01 1159.29 Q100.159 1159.71 98.2141 1160.59 L98.2141 1143.23 Z" fill="#000000" fill-rule="nonzero" fill-opacity="1" /><path clip-path="url(#clip760)" d="M138.33 1146.3 Q134.719 1146.3 132.89 1149.87 Q131.084 1153.41 131.084 1160.54 Q131.084 1167.65 132.89 1171.21 Q134.719 1174.75 138.33 1174.75 Q141.964 1174.75 143.769 1171.21 Q145.598 1167.65 145.598 1160.54 Q145.598 1153.41 143.769 1149.87 Q141.964 1146.3 138.33 1146.3 M138.33 1142.6 Q144.14 1142.6 147.195 1147.21 Q150.274 1151.79 150.274 1160.54 Q150.274 1169.27 147.195 1173.87 Q144.14 1178.46 138.33 1178.46 Q132.519 1178.46 129.441 1173.87 Q126.385 1169.27 126.385 1160.54 Q126.385 1151.79 129.441 1147.21 Q132.519 1142.6 138.33 1142.6 Z" fill="#000000" fill-rule="nonzero" fill-opacity="1" /><path clip-path="url(#clip760)" d="M63.9319 959.86 Q60.3208 959.86 58.4921 963.425 Q56.6865 966.967 56.6865 974.096 Q56.6865 981.203 58.4921 984.767 Q60.3208 988.309 63.9319 988.309 Q67.5661 988.309 69.3717 984.767 Q71.2004 981.203 71.2004 974.096 Q71.2004 966.967 69.3717 963.425 Q67.5661 959.86 63.9319 959.86 M63.9319 956.156 Q69.742 956.156 72.7976 960.763 Q75.8763 965.346 75.8763 974.096 Q75.8763 982.823 72.7976 987.429 Q69.742 992.013 63.9319 992.013 Q58.1217 992.013 55.043 987.429 Q51.9875 982.823 51.9875 974.096 Q51.9875 965.346 55.043 960.763 Q58.1217 956.156 63.9319 956.156 Z" fill="#000000" fill-rule="nonzero" fill-opacity="1" /><path clip-path="url(#clip760)" d="M84.0938 985.462 L88.978 985.462 L88.978 991.341 L84.0938 991.341 L84.0938 985.462 Z" fill="#000000" fill-rule="nonzero" fill-opacity="1" /><path clip-path="url(#clip760)" d="M97.9826 956.781 L120.205 956.781 L120.205 958.772 L107.658 991.341 L102.774 991.341 L114.58 960.717 L97.9826 960.717 L97.9826 956.781 Z" fill="#000000" fill-rule="nonzero" fill-opacity="1" /><path clip-path="url(#clip760)" d="M129.371 956.781 L147.728 956.781 L147.728 960.717 L133.654 960.717 L133.654 969.189 Q134.672 968.842 135.691 968.68 Q136.709 968.494 137.728 968.494 Q143.515 968.494 146.894 971.666 Q150.274 974.837 150.274 980.254 Q150.274 985.832 146.802 988.934 Q143.33 992.013 137.01 992.013 Q134.834 992.013 132.566 991.642 Q130.32 991.272 127.913 990.531 L127.913 985.832 Q129.996 986.966 132.219 987.522 Q134.441 988.078 136.918 988.078 Q140.922 988.078 143.26 985.971 Q145.598 983.865 145.598 980.254 Q145.598 976.642 143.26 974.536 Q140.922 972.429 136.918 972.429 Q135.043 972.429 133.168 972.846 Q131.316 973.263 129.371 974.142 L129.371 956.781 Z" fill="#000000" fill-rule="nonzero" fill-opacity="1" /><path clip-path="url(#clip760)" d="M53.7467 800.962 L61.3856 800.962 L61.3856 774.597 L53.0754 776.263 L53.0754 772.004 L61.3393 770.337 L66.0152 770.337 L66.0152 800.962 L73.654 800.962 L73.654 804.897 L53.7467 804.897 L53.7467 800.962 Z" fill="#000000" fill-rule="nonzero" fill-opacity="1" /><path clip-path="url(#clip760)" d="M83.0984 799.018 L87.9827 799.018 L87.9827 804.897 L83.0984 804.897 L83.0984 799.018 Z" fill="#000000" fill-rule="nonzero" fill-opacity="1" /><path clip-path="url(#clip760)" d="M108.168 773.416 Q104.557 773.416 102.728 776.981 Q100.922 780.523 100.922 787.652 Q100.922 794.759 102.728 798.323 Q104.557 801.865 108.168 801.865 Q111.802 801.865 113.608 798.323 Q115.436 794.759 115.436 787.652 Q115.436 780.523 113.608 776.981 Q111.802 773.416 108.168 773.416 M108.168 769.712 Q113.978 769.712 117.033 774.319 Q120.112 778.902 120.112 787.652 Q120.112 796.379 117.033 800.985 Q113.978 805.569 108.168 805.569 Q102.358 805.569 99.2789 800.985 Q96.2234 796.379 96.2234 787.652 Q96.2234 778.902 99.2789 774.319 Q102.358 769.712 108.168 769.712 Z" fill="#000000" fill-rule="nonzero" fill-opacity="1" /><path clip-path="url(#clip760)" d="M138.33 773.416 Q134.719 773.416 132.89 776.981 Q131.084 780.523 131.084 787.652 Q131.084 794.759 132.89 798.323 Q134.719 801.865 138.33 801.865 Q141.964 801.865 143.769 798.323 Q145.598 794.759 145.598 787.652 Q145.598 780.523 143.769 776.981 Q141.964 773.416 138.33 773.416 M138.33 769.712 Q144.14 769.712 147.195 774.319 Q150.274 778.902 150.274 787.652 Q150.274 796.379 147.195 800.985 Q144.14 805.569 138.33 805.569 Q132.519 805.569 129.441 800.985 Q126.385 796.379 126.385 787.652 Q126.385 778.902 129.441 774.319 Q132.519 769.712 138.33 769.712 Z" fill="#000000" fill-rule="nonzero" fill-opacity="1" /><path clip-path="url(#clip760)" d="M54.7421 614.518 L62.381 614.518 L62.381 588.153 L54.0708 589.819 L54.0708 585.56 L62.3347 583.893 L67.0106 583.893 L67.0106 614.518 L74.6494 614.518 L74.6494 618.453 L54.7421 618.453 L54.7421 614.518 Z" fill="#000000" fill-rule="nonzero" fill-opacity="1" /><path clip-path="url(#clip760)" d="M84.0938 612.574 L88.978 612.574 L88.978 618.453 L84.0938 618.453 L84.0938 612.574 Z" fill="#000000" fill-rule="nonzero" fill-opacity="1" /><path clip-path="url(#clip760)" d="M103.191 614.518 L119.51 614.518 L119.51 618.453 L97.566 618.453 L97.566 614.518 Q100.228 611.764 104.811 607.134 Q109.418 602.481 110.598 601.139 Q112.844 598.616 113.723 596.879 Q114.626 595.12 114.626 593.43 Q114.626 590.676 112.682 588.94 Q110.76 587.204 107.658 587.204 Q105.459 587.204 103.006 587.967 Q100.575 588.731 97.7974 590.282 L97.7974 585.56 Q100.621 584.426 103.075 583.847 Q105.529 583.268 107.566 583.268 Q112.936 583.268 116.131 585.954 Q119.325 588.639 119.325 593.129 Q119.325 595.259 118.515 597.18 Q117.728 599.079 115.621 601.671 Q115.043 602.342 111.941 605.56 Q108.839 608.754 103.191 614.518 Z" fill="#000000" fill-rule="nonzero" fill-opacity="1" /><path clip-path="url(#clip760)" d="M129.371 583.893 L147.728 583.893 L147.728 587.829 L133.654 587.829 L133.654 596.301 Q134.672 595.954 135.691 595.791 Q136.709 595.606 137.728 595.606 Q143.515 595.606 146.894 598.778 Q150.274 601.949 150.274 607.366 Q150.274 612.944 146.802 616.046 Q143.33 619.125 137.01 619.125 Q134.834 619.125 132.566 618.754 Q130.32 618.384 127.913 617.643 L127.913 612.944 Q129.996 614.078 132.219 614.634 Q134.441 615.19 136.918 615.19 Q140.922 615.19 143.26 613.083 Q145.598 610.977 145.598 607.366 Q145.598 603.754 143.26 601.648 Q140.922 599.541 136.918 599.541 Q135.043 599.541 133.168 599.958 Q131.316 600.375 129.371 601.254 L129.371 583.893 Z" fill="#000000" fill-rule="nonzero" fill-opacity="1" /><path clip-path="url(#clip760)" d="M53.7467 428.074 L61.3856 428.074 L61.3856 401.709 L53.0754 403.375 L53.0754 399.116 L61.3393 397.449 L66.0152 397.449 L66.0152 428.074 L73.654 428.074 L73.654 432.009 L53.7467 432.009 L53.7467 428.074 Z" fill="#000000" fill-rule="nonzero" fill-opacity="1" /><path clip-path="url(#clip760)" d="M83.0984 426.13 L87.9827 426.13 L87.9827 432.009 L83.0984 432.009 L83.0984 426.13 Z" fill="#000000" fill-rule="nonzero" fill-opacity="1" /><path clip-path="url(#clip760)" d="M98.2141 397.449 L116.57 397.449 L116.57 401.385 L102.496 401.385 L102.496 409.857 Q103.515 409.51 104.534 409.347 Q105.552 409.162 106.571 409.162 Q112.358 409.162 115.737 412.334 Q119.117 415.505 119.117 420.921 Q119.117 426.5 115.645 429.602 Q112.172 432.681 105.853 432.681 Q103.677 432.681 101.409 432.31 Q99.1632 431.94 96.7558 431.199 L96.7558 426.5 Q98.8391 427.634 101.061 428.19 Q103.284 428.746 105.76 428.746 Q109.765 428.746 112.103 426.639 Q114.441 424.533 114.441 420.921 Q114.441 417.31 112.103 415.204 Q109.765 413.097 105.76 413.097 Q103.885 413.097 102.01 413.514 Q100.159 413.931 98.2141 414.81 L98.2141 397.449 Z" fill="#000000" fill-rule="nonzero" fill-opacity="1" /><path clip-path="url(#clip760)" d="M138.33 400.528 Q134.719 400.528 132.89 404.093 Q131.084 407.635 131.084 414.764 Q131.084 421.871 132.89 425.435 Q134.719 428.977 138.33 428.977 Q141.964 428.977 143.769 425.435 Q145.598 421.871 145.598 414.764 Q145.598 407.635 143.769 404.093 Q141.964 400.528 138.33 400.528 M138.33 396.824 Q144.14 396.824 147.195 401.431 Q150.274 406.014 150.274 414.764 Q150.274 423.491 147.195 428.097 Q144.14 432.681 138.33 432.681 Q132.519 432.681 129.441 428.097 Q126.385 423.491 126.385 414.764 Q126.385 406.014 129.441 401.431 Q132.519 396.824 138.33 396.824 Z" fill="#000000" fill-rule="nonzero" fill-opacity="1" /><path clip-path="url(#clip760)" d="M54.7421 241.63 L62.381 241.63 L62.381 215.265 L54.0708 216.931 L54.0708 212.672 L62.3347 211.005 L67.0106 211.005 L67.0106 241.63 L74.6494 241.63 L74.6494 245.565 L54.7421 245.565 L54.7421 241.63 Z" fill="#000000" fill-rule="nonzero" fill-opacity="1" /><path clip-path="url(#clip760)" d="M84.0938 239.686 L88.978 239.686 L88.978 245.565 L84.0938 245.565 L84.0938 239.686 Z" fill="#000000" fill-rule="nonzero" fill-opacity="1" /><path clip-path="url(#clip760)" d="M97.9826 211.005 L120.205 211.005 L120.205 212.996 L107.658 245.565 L102.774 245.565 L114.58 214.941 L97.9826 214.941 L97.9826 211.005 Z" fill="#000000" fill-rule="nonzero" fill-opacity="1" /><path clip-path="url(#clip760)" d="M129.371 211.005 L147.728 211.005 L147.728 214.941 L133.654 214.941 L133.654 223.413 Q134.672 223.065 135.691 222.903 Q136.709 222.718 137.728 222.718 Q143.515 222.718 146.894 225.89 Q150.274 229.061 150.274 234.477 Q150.274 240.056 146.802 243.158 Q143.33 246.237 137.01 246.237 Q134.834 246.237 132.566 245.866 Q130.32 245.496 127.913 244.755 L127.913 240.056 Q129.996 241.19 132.219 241.746 Q134.441 242.302 136.918 242.302 Q140.922 242.302 143.26 240.195 Q145.598 238.089 145.598 234.477 Q145.598 230.866 143.26 228.76 Q140.922 226.653 136.918 226.653 Q135.043 226.653 133.168 227.07 Q131.316 227.487 129.371 228.366 L129.371 211.005 Z" fill="#000000" fill-rule="nonzero" fill-opacity="1" /><polyline clip-path="url(#clip762)" style="stroke:#009af9; stroke-linecap:round; stroke-linejoin:round; stroke-width:8; stroke-opacity:1; fill:none" points="186.274,1384.24 188.443,1382.74 190.611,1381.22 192.78,1379.69 194.949,1378.14 197.117,1376.58 199.286,1375.01 201.455,1373.41 203.623,1371.8 205.792,1370.18 207.961,1368.53 210.129,1366.88 212.298,1365.2 214.466,1363.51 216.635,1361.8 218.804,1360.07 220.972,1358.33 223.141,1356.57 225.31,1354.79 227.478,1352.99 229.647,1351.18 231.816,1349.35 233.984,1347.49 236.153,1345.62 238.322,1343.73 240.49,1341.83 242.659,1339.9 244.828,1337.95 246.996,1335.99 249.165,1334 251.334,1331.99 253.502,1329.97 255.671,1327.92 257.839,1325.85 260.008,1323.77 262.177,1321.66 264.345,1319.53 266.514,1317.38 268.683,1315.2 270.851,1313.01 273.02,1310.79 275.189,1308.55 277.357,1306.29 279.526,1304 281.695,1301.7 283.863,1299.37 286.032,1297.01 288.201,1294.63 290.369,1292.23 292.538,1289.81 294.707,1287.35 296.875,1284.88 299.044,1282.38 301.212,1279.85 303.381,1277.3 305.55,1274.73 307.718,1272.13 309.887,1269.5 312.056,1266.84 314.224,1264.16 316.393,1261.45 318.562,1258.72 320.73,1255.95 322.899,1253.16 325.068,1250.34 327.236,1247.49 329.405,1244.62 331.574,1241.71 333.742,1238.78 335.911,1235.82 338.08,1232.82 340.248,1229.8 342.417,1226.74 344.585,1223.66 346.754,1220.54 348.923,1217.39 351.091,1214.22 353.26,1211 355.429,1207.76 357.597,1204.49 359.766,1201.18 361.935,1197.83 364.103,1194.46 366.272,1191.05 368.441,1187.6 370.609,1184.13 372.778,1180.61 374.947,1177.06 377.115,1173.48 379.284,1169.86 381.453,1166.2 383.621,1162.51 385.79,1158.78 387.959,1155.01 390.127,1151.2 392.296,1147.35 394.464,1143.47 396.633,1139.55 398.802,1135.59 400.97,1131.58 403.139,1127.54 405.308,1123.46 407.476,1119.34 409.645,1115.17 411.814,1110.96 413.982,1106.71 416.151,1102.42 418.32,1098.08 420.488,1093.7 422.657,1089.28 424.826,1084.81 426.994,1080.3 429.163,1075.74 431.332,1071.14 433.5,1066.49 435.669,1061.79 437.837,1057.05 440.006,1052.25 442.175,1047.41 444.343,1042.52 446.512,1037.59 448.681,1032.6 450.849,1027.56 453.018,1022.47 455.187,1017.33 457.355,1012.14 459.524,1006.89 461.693,1001.6 463.861,996.248 466.03,990.844 468.199,985.386 470.367,979.873 472.536,974.304 474.705,968.68 476.873,962.999 479.042,957.261 481.21,951.465 483.379,945.611 485.548,939.698 487.716,933.725 489.885,927.693 492.054,921.599 494.222,915.445 496.391,909.228 498.56,902.949 500.728,896.607 502.897,890.201 505.066,883.73 507.234,877.194 509.403,870.593 511.572,863.925 513.74,857.19 515.909,850.387 518.078,843.516 520.246,836.575 522.415,829.565 524.583,822.484 526.752,815.332 528.921,808.108 531.089,800.811 533.258,793.441 535.427,785.996 537.595,778.477 539.764,770.882 541.933,763.211 544.101,755.462 546.27,747.636 548.439,739.731 550.607,731.747 552.776,723.682 554.945,715.536 557.113,707.308 559.282,698.997 561.451,690.603 563.619,682.124 565.788,673.56 567.956,664.91 570.125,656.173 572.294,647.348 574.462,638.434 576.631,629.431 578.8,620.336 580.968,611.151 583.137,601.873 585.306,1062.95 587.474,1058.21 589.643,1053.43 591.812,1048.61 593.98,1043.73 596.149,1038.8 598.318,1033.83 600.486,1028.8 602.655,1023.72 604.824,1018.6 606.992,1013.42 609.161,1008.19 611.33,1002.9 613.498,997.566 615.667,992.175 617.835,986.73 620.004,981.231 622.173,975.676 624.341,970.066 626.51,964.399 628.679,958.675 630.847,952.893 633.016,947.053 635.185,941.155 637.353,935.197 639.522,929.179 641.691,923.101 643.859,916.961 646.028,910.76 648.197,904.496 650.365,898.17 652.534,891.779 654.703,885.325 656.871,878.805 659.04,872.22 661.208,865.568 663.377,858.849 665.546,852.063 667.714,845.209 669.883,838.285 672.052,831.292 674.22,824.228 676.389,817.094 678.558,809.887 680.726,802.608 682.895,795.256 685.064,787.83 687.232,780.329 689.401,772.753 691.57,765.1 693.738,757.371 695.907,749.564 698.076,1137.54 700.244,1133.55 702.413,1129.53 704.581,1125.47 706.75,1121.36 708.919,1117.22 711.087,1113.03 713.256,1108.8 715.425,1104.53 717.593,1100.22 719.762,1095.86 721.931,1091.46 724.099,1087.01 726.268,1082.52 728.437,1077.98 730.605,1073.4 732.774,1068.78 734.943,1064.1 737.111,1059.38 739.28,1054.61 741.449,1049.8 743.617,1044.93 745.786,1040.02 747.954,1035.05 750.123,1030.04 752.292,1024.98 754.46,1019.86 756.629,1014.7 758.798,1009.48 760.966,1004.21 763.135,998.885 765.304,993.507 767.472,988.076 769.641,982.59 771.81,977.049 773.978,971.452 776.147,965.799 778.316,960.089 780.484,954.321 782.653,948.495 784.822,942.611 786.99,936.667 789.159,930.664 791.328,924.6 793.496,918.475 795.665,912.289 797.833,906.04 800.002,899.728 802.171,893.353 804.339,886.914 806.508,880.41 808.677,873.84 810.845,867.205 813.014,860.503 815.183,853.733 817.351,846.896 819.52,839.989 821.689,833.013 823.857,825.967 826.026,818.85 828.195,811.662 830.363,804.401 832.532,797.067 834.701,789.66 836.869,782.177 839.038,774.62 841.206,766.987 843.375,1146.33 845.544,1142.44 847.712,1138.51 849.881,1134.53 852.05,1130.52 854.218,1126.47 856.387,1122.37 858.556,1118.24 860.724,1114.06 862.893,1109.84 865.062,1105.58 867.23,1101.28 869.399,1096.93 871.568,1092.54 873.736,1088.11 875.905,1083.63 878.074,1079.1 880.242,1074.53 882.411,1069.91 884.579,1065.25 886.748,1060.54 888.917,1055.79 891.085,1050.98 893.254,1046.13 895.423,1041.23 897.591,1036.28 899.76,1031.28 901.929,1026.23 904.097,1021.12 906.266,1015.97 908.435,1010.77 910.603,1005.51 912.772,1000.2 914.941,994.835 917.109,989.418 919.278,983.945 921.447,978.418 923.615,972.835 925.784,967.196 927.952,961.5 930.121,955.747 932.29,949.936 934.458,944.066 936.627,938.137 938.796,932.149 940.964,926.1 943.133,919.99 945.302,913.819 947.47,907.585 949.639,901.289 951.808,894.93 953.976,888.506 956.145,882.018 958.314,875.464 960.482,868.844 962.651,862.158 964.82,855.405 966.988,848.583 969.157,841.693 971.326,834.734 973.494,827.705 975.663,820.605 977.831,813.434 980,806.19 982.169,798.874 984.337,791.485 986.506,784.021 988.675,776.482 990.843,768.867 993.012,761.175 995.181,753.406 997.349,745.559 999.518,737.633 1001.69,729.627 1003.86,721.541 1006.02,713.373 1008.19,705.124 1010.36,696.791 1012.53,688.375 1014.7,679.874 1016.87,671.288 1019.04,662.615 1021.2,653.855 1023.37,645.007 1025.54,636.07 1027.71,627.044 1029.88,617.926 1032.05,608.717 1034.22,599.416 1036.39,590.021 1038.55,580.531 1040.72,570.946 1042.89,561.264 1045.06,551.485 1047.23,541.608 1049.4,531.631 1051.57,521.554 1053.73,511.376 1055.9,501.095 1058.07,490.71 1060.24,480.221 1062.41,469.626 1064.58,458.925 1066.75,448.116 1068.91,437.198 1071.08,426.17 1073.25,415.031 1075.42,403.78 1077.59,392.416 1079.76,380.937 1081.93,369.343 1084.1,357.631 1086.26,345.802 1088.43,333.854 1090.6,321.785 1092.77,309.595 1094.94,297.283 1097.11,284.846 1099.28,272.284 1101.44,259.596 1103.61,246.78 1105.78,233.835 1107.95,220.76 1110.12,207.554 1112.29,194.215 1114.46,180.741 1116.63,167.133 1118.79,153.387 1120.96,836.474 1123.13,829.463 1125.3,822.381 1127.47,815.228 1129.64,808.002 1131.81,800.704 1133.97,793.333 1136.14,785.887 1138.31,778.366 1140.48,770.77 1142.65,763.098 1144.82,755.348 1146.99,747.521 1149.15,739.615 1151.32,731.629 1153.49,723.564 1155.66,715.417 1157.83,707.189 1160,698.877 1162.17,690.483 1164.34,682.004 1166.5,673.439 1168.67,664.789 1170.84,656.052 1173.01,647.227 1175.18,638.314 1177.35,629.31 1179.52,620.217 1181.68,611.031 1183.85,601.754 1186.02,592.383 1188.19,582.918 1190.36,573.358 1192.53,563.701 1194.7,553.948 1196.87,544.096 1199.03,534.145 1201.2,524.094 1203.37,513.941 1205.54,503.687 1207.71,493.329 1209.88,482.866 1212.05,472.299 1214.21,461.625 1216.38,450.843 1218.55,439.953 1220.72,428.953 1222.89,417.842 1225.06,406.62 1227.23,395.284 1229.39,383.834 1231.56,372.268 1233.73,360.587 1235.9,348.787 1238.07,336.868 1240.24,324.83 1242.41,312.67 1244.58,300.387 1246.74,287.981 1248.91,275.45 1251.08,262.793 1253.25,250.009 1255.42,237.095 1257.59,224.052 1259.76,210.877 1261.92,197.57 1264.09,184.13 1266.26,170.554 1268.43,156.841 1270.6,142.991 1272.77,129.002 1274.94,114.872 1277.11,100.6 1279.27,86.1857 1281.44,802.51 1283.61,795.157 1285.78,787.73 1287.95,780.228 1290.12,772.651 1292.29,764.998 1294.45,757.268 1296.62,749.46 1298.79,741.573 1300.96,733.607 1303.13,725.561 1305.3,717.434 1307.47,709.225 1309.63,700.934 1311.8,692.559 1313.97,684.1 1316.14,675.556 1318.31,666.926 1320.48,658.21 1322.65,649.405 1324.82,640.512 1326.98,631.529 1329.15,622.457 1331.32,613.292 1333.49,604.036 1335.66,594.686 1337.83,585.243 1340,575.704 1342.16,566.069 1344.33,556.338 1346.5,546.508 1348.67,536.58 1350.84,526.551 1353.01,516.422 1355.18,506.191 1357.35,495.857 1359.51,485.419 1361.68,474.876 1363.85,998.811 1366.02,993.432 1368.19,988 1370.36,982.513 1372.53,1255.18 1374.69,1252.38 1376.86,1249.56 1379.03,1246.7 1381.2,1243.82 1383.37,1240.9 1385.54,1237.96 1387.71,1234.99 1389.88,1231.99 1392.04,1228.95 1394.21,1225.89 1396.38,1222.8 1398.55,1219.67 1400.72,1216.52 1402.89,1213.33 1405.06,1210.11 1407.22,1206.86 1409.39,1203.57 1411.56,1200.25 1413.73,1196.9 1415.9,1193.52 1418.07,1190.1 1420.24,1186.64 1422.4,1183.16 1424.57,1179.63 1426.74,1176.07 1428.91,1172.48 1431.08,1168.85 1433.25,1165.18 1435.42,1161.48 1437.59,1157.74 1439.75,1153.96 1441.92,1150.14 1444.09,1146.28 1446.26,1142.39 1448.43,1138.45 1450.6,1134.48 1452.77,1130.47 1454.93,1126.41 1457.1,1122.32 1459.27,1118.19 1461.44,1114.01 1463.61,1109.79 1465.78,1105.53 1467.95,1101.22 1470.12,1096.88 1472.28,1092.48 1474.45,1088.05 1476.62,1083.57 1478.79,1079.04 1480.96,1074.47 1483.13,1069.85 1485.3,1065.19 1487.46,1060.48 1489.63,1055.72 1491.8,1050.92 1493.97,1046.06 1496.14,1041.16 1498.31,1036.21 1500.48,1031.21 1502.64,1026.16 1504.81,1021.05 1506.98,1015.9 1509.15,1010.69 1511.32,1005.43 1513.49,1000.12 1515.66,994.757 1517.83,989.338 1519.99,983.865 1522.16,978.336 1524.33,972.752 1526.5,967.112 1528.67,961.415 1530.84,955.661 1533.01,949.849 1535.17,943.978 1537.34,938.049 1539.51,932.059 1541.68,926.01 1543.85,919.9 1546.02,913.728 1548.19,907.494 1550.36,901.197 1552.52,894.837 1554.69,888.413 1556.86,881.925 1559.03,875.371 1561.2,868.751 1563.37,862.065 1565.54,855.311 1567.7,848.489 1569.87,841.599 1572.04,834.639 1574.21,827.61 1576.38,820.509 1578.55,813.337 1580.72,806.093 1582.88,798.776 1585.05,791.386 1587.22,783.921 1589.39,776.381 1591.56,768.765 1593.73,761.072 1595.9,753.302 1598.07,745.455 1600.23,737.528 1602.4,729.521 1604.57,721.434 1606.74,713.265 1608.91,705.014 1611.08,696.681 1613.25,688.263 1615.41,679.761 1617.58,671.173 1619.75,662.499 1621.92,653.737 1624.09,644.888 1626.26,635.949 1628.43,626.921 1630.6,617.802 1632.76,608.591 1634.93,599.287 1637.1,589.89 1639.27,580.398 1641.44,570.81 1643.61,561.127 1645.78,551.345 1647.94,541.466 1650.11,531.487 1652.28,521.407 1654.45,511.226 1656.62,500.943 1658.79,490.556 1660.96,480.065 1663.13,469.468 1665.29,458.765 1667.46,447.953 1669.63,437.034 1671.8,426.004 1673.97,414.863 1676.14,968.504 1678.31,962.821 1680.47,957.081 1682.64,951.283 1684.81,945.426 1686.98,939.511 1689.15,933.536 1691.32,927.502 1693.49,921.406 1695.65,915.249 1697.82,909.031 1699.99,902.749 1702.16,896.405 1704.33,889.997 1706.5,883.524 1708.67,876.986 1710.84,870.383 1713,863.713 1715.17,856.976 1717.34,850.171 1719.51,843.298 1721.68,836.356 1723.85,829.344 1726.02,822.261 1728.18,815.107 1730.35,807.881 1732.52,800.582 1734.69,793.21 1736.86,785.764 1739.03,778.243 1741.2,770.646 1743.37,762.972 1745.53,755.222 1747.7,747.393 1749.87,739.486 1752.04,731.499 1754.21,723.431 1756.38,715.283 1758.55,707.052 1760.71,698.739 1762.88,690.342 1765.05,681.86 1767.22,673.293 1769.39,664.64 1771.56,655.9 1773.73,647.072 1775.89,638.155 1778.06,629.149 1780.23,620.051 1782.4,610.863 1784.57,601.582 1786.74,592.208 1788.91,582.739 1791.08,573.175 1793.24,563.515 1795.41,553.758 1797.58,543.902 1799.75,533.948 1801.92,523.893 1804.09,513.737 1806.26,503.479 1808.42,493.118 1810.59,482.653 1812.76,472.082 1814.93,461.405 1817.1,450.621 1819.27,439.728 1821.44,428.725 1823.61,417.612 1825.77,406.387 1827.94,395.049 1830.11,383.597 1832.28,372.03 1834.45,360.346 1836.62,348.545 1838.79,336.625 1840.95,324.585 1843.12,312.424 1845.29,300.141 1847.46,287.734 1849.63,275.202 1851.8,262.544 1853.97,249.759 1856.13,236.845 1858.3,878.606 1860.47,872.019 1862.64,865.365 1864.81,858.645 1866.98,851.856 1869.15,845 1871.32,838.074 1873.48,831.079 1875.65,824.014 1877.82,816.877 1879.99,809.669 1882.16,802.388 1884.33,795.034 1886.5,787.606 1888.66,780.103 1890.83,772.525 1893,764.871 1895.17,757.139 1897.34,749.33 1899.51,741.442 1901.68,733.475 1903.85,725.428 1906.01,717.3 1908.18,709.09 1910.35,700.797 1912.52,692.421 1914.69,683.961 1916.86,675.416 1919.03,666.784 1921.19,658.066 1923.36,649.26 1925.53,640.365 1927.7,631.381 1929.87,622.306 1932.04,613.14 1934.21,603.882 1936.37,594.531 1938.54,585.086 1940.71,575.545 1942.88,565.909 1945.05,556.175 1947.22,546.344 1949.39,536.414 1951.56,526.384 1953.72,1024.83 1955.89,1019.71 1958.06,1014.55 1960.23,1009.33 1962.4,1004.05 1964.57,998.729 1966.74,993.35 1968.9,987.917 1971.07,982.429 1973.24,976.886 1975.41,971.287 1977.58,965.632 1979.75,959.921 1981.92,954.151 1984.09,948.324 1986.25,942.438 1988.42,936.494 1990.59,930.489 1992.76,924.424 1994.93,918.298 1997.1,912.11 1999.27,905.861 2001.43,899.548 2003.6,893.172 2005.77,886.732 2007.94,880.227 2010.11,873.656 2012.28,867.02 2014.45,860.317 2016.62,853.546 2018.78,846.707 2020.95,839.799 2023.12,832.822 2025.29,825.775 2027.46,818.657 2029.63,811.467 2031.8,804.204 2033.96,796.869 2036.13,789.459 2038.3,781.975 2040.47,774.416 2042.64,766.781 2044.81,759.068 2046.98,751.278 2049.14,743.41 2051.31,735.462 2053.48,727.434 2055.65,719.326 2057.82,711.136 2059.99,702.863 2062.16,694.507 2064.33,686.067 2066.49,677.542 2068.66,668.931 2070.83,660.233 2073,651.448 2075.17,642.575 2077.34,633.612 2079.51,624.56 2081.67,615.416 2083.84,606.18 2086.01,596.852 2088.18,587.429 2090.35,577.913 2092.52,568.3 2094.69,558.591 2096.86,548.784 2099.02,538.879 2101.19,528.874 2103.36,518.768 2105.53,508.56 2107.7,498.25 2109.87,487.836 2112.04,477.318 2114.2,466.694 2116.37,455.962 2118.54,445.123 2120.71,434.175 2122.88,423.116 2125.05,411.947 2127.22,400.665 2129.38,389.269 2131.55,377.759 2133.72,366.133 2135.89,354.39 2138.06,342.529 2140.23,330.548 2142.4,318.447 2144.57,306.225 2146.73,293.879 2148.9,281.409 2151.07,901.104 2153.24,894.743 2155.41,888.318 2157.58,881.828 2159.75,875.273 2161.91,868.652 2164.08,861.965 2166.25,855.21 2168.42,848.387 2170.59,841.496 2172.76,1183.96 2174.93,1180.45 2177.1,1176.9 2179.26,1173.31 2181.43,1169.69 2183.6,1166.03 2185.77,1162.33 2187.94,1158.6 2190.11,1154.83 2192.28,1151.02 2194.44,1147.18 2196.61,1143.29 2198.78,1139.37 2200.95,1135.4 2203.12,1131.4 2205.29,1127.35 2207.46,1123.27 2209.62,1119.14 2211.79,1114.98 2213.96,1110.77 2216.13,1106.51 2218.3,1102.22 2220.47,1097.88 2222.64,1093.5 2224.81,1089.08 2226.97,1084.61 2229.14,1080.09 2231.31,1075.53 2233.48,1070.92 2235.65,1066.27 2237.82,1061.57 2239.99,1056.83 2242.15,1052.03 2244.32,1047.19 2246.49,1042.3 2248.66,1037.36 2250.83,1032.37 2253,1027.33 2255.17,1022.23 2257.34,1017.09 2259.5,1011.9 2261.67,1006.65 2263.84,1001.35 2266.01,995.999 2268.18,990.593 2270.35,985.132 2272.52,979.617 2274.68,974.045 2276.85,968.418 2279.02,962.734 2281.19,956.993 2283.36,951.195 2285.53,945.337 2287.7,939.421 2289.87,933.446 2292.03,927.41 2294.2,921.314 2296.37,915.156 2298.54,908.937 2300.71,902.654 2302.88,896.309 2305.05,889.9 2307.21,883.426 2309.38,876.887 2311.55,870.283 2313.72,863.612 2315.89,856.874 2318.06,850.068 2320.23,843.193 2322.39,836.25 2324.56,829.236 2326.73,822.152 2328.9,814.997 2331.07,807.77 2333.24,800.47 2335.41,793.096 2337.58,785.649 2339.74,778.126 2341.91,770.528 2344.08,762.853 2346.25,755.101 2348.42,1140.33 2350.59,1136.38 2352.76,1132.38 "/>
<path clip-path="url(#clip760)" d="M258.49 196.789 L564.235 196.789 L564.235 93.1086 L258.49 93.1086  Z" fill="#ffffff" fill-rule="evenodd" fill-opacity="1"/>
<polyline clip-path="url(#clip760)" style="stroke:#000000; stroke-linecap:round; stroke-linejoin:round; stroke-width:4; stroke-opacity:1; fill:none" points="258.49,196.789 564.235,196.789 564.235,93.1086 258.49,93.1086 258.49,196.789 "/>
<polyline clip-path="url(#clip760)" style="stroke:#009af9; stroke-linecap:round; stroke-linejoin:round; stroke-width:8; stroke-opacity:1; fill:none" points="282.562,144.949 426.994,144.949 "/>
<path clip-path="url(#clip760)" d="M451.066 151.997 L451.066 136.303 L455.325 136.303 L455.325 151.835 Q455.325 155.516 456.761 157.368 Q458.196 159.196 461.066 159.196 Q464.515 159.196 466.506 156.997 Q468.52 154.798 468.52 151.002 L468.52 136.303 L472.779 136.303 L472.779 162.229 L468.52 162.229 L468.52 158.247 Q466.969 160.608 464.909 161.766 Q462.872 162.9 460.163 162.9 Q455.696 162.9 453.381 160.122 Q451.066 157.344 451.066 151.997 M461.784 135.678 L461.784 135.678 Z" fill="#000000" fill-rule="nonzero" fill-opacity="1" /><path clip-path="url(#clip760)" d="M481.159 126.21 L490.973 126.21 L490.973 129.52 L485.418 129.52 L485.418 165.168 L490.973 165.168 L490.973 168.479 L481.159 168.479 L481.159 126.21 Z" fill="#000000" fill-rule="nonzero" fill-opacity="1" /><path clip-path="url(#clip760)" d="M501.459 158.293 L509.098 158.293 L509.098 131.928 L500.788 133.595 L500.788 129.335 L509.052 127.669 L513.728 127.669 L513.728 158.293 L521.367 158.293 L521.367 162.229 L501.459 162.229 L501.459 158.293 Z" fill="#000000" fill-rule="nonzero" fill-opacity="1" /><path clip-path="url(#clip760)" d="M540.163 126.21 L540.163 168.479 L530.348 168.479 L530.348 165.168 L535.881 165.168 L535.881 129.52 L530.348 129.52 L530.348 126.21 L540.163 126.21 Z" fill="#000000" fill-rule="nonzero" fill-opacity="1" /></svg>
