<?xml version="1.0" encoding="utf-8"?>
<svg xmlns="http://www.w3.org/2000/svg" xmlns:xlink="http://www.w3.org/1999/xlink" width="600" height="400" viewBox="0 0 2400 1600">
<defs>
  <clipPath id="clip650">
    <rect x="0" y="0" width="2400" height="1600"/>
  </clipPath>
</defs>
<path clip-path="url(#clip650)" d="M0 1600 L2400 1600 L2400 0 L0 0  Z" fill="#ffffff" fill-rule="evenodd" fill-opacity="1"/>
<defs>
  <clipPath id="clip651">
    <rect x="156" y="47" width="2197" height="1377"/>
  </clipPath>
</defs>
<path clip-path="url(#clip650)" d="M156.598 1423.18 L2352.76 1423.18 L2352.76 47.2441 L156.598 47.2441  Z" fill="#ffffff" fill-rule="evenodd" fill-opacity="1"/>
<polyline clip-path="url(#clip651)" style="stroke:#000000; stroke-linecap:round; stroke-linejoin:round; stroke-width:2; stroke-opacity:0.1; fill:none" points="156.598,1423.18 156.598,47.2441 "/>
<polyline clip-path="url(#clip651)" style="stroke:#000000; stroke-linecap:round; stroke-linejoin:round; stroke-width:2; stroke-opacity:0.1; fill:none" points="595.83,1423.18 595.83,47.2441 "/>
<polyline clip-path="url(#clip651)" style="stroke:#000000; stroke-linecap:round; stroke-linejoin:round; stroke-width:2; stroke-opacity:0.1; fill:none" points="1035.06,1423.18 1035.06,47.2441 "/>
<polyline clip-path="url(#clip651)" style="stroke:#000000; stroke-linecap:round; stroke-linejoin:round; stroke-width:2; stroke-opacity:0.1; fill:none" points="1474.29,1423.18 1474.29,47.2441 "/>
<polyline clip-path="url(#clip651)" style="stroke:#000000; stroke-linecap:round; stroke-linejoin:round; stroke-width:2; stroke-opacity:0.1; fill:none" points="1913.52,1423.18 1913.52,47.2441 "/>
<polyline clip-path="url(#clip651)" style="stroke:#000000; stroke-linecap:round; stroke-linejoin:round; stroke-width:2; stroke-opacity:0.1; fill:none" points="2352.76,1423.18 2352.76,47.2441 "/>
<polyline clip-path="url(#clip651)" style="stroke:#000000; stroke-linecap:round; stroke-linejoin:round; stroke-width:2; stroke-opacity:0.1; fill:none" points="156.598,1235.51 2352.76,1235.51 "/>
<polyline clip-path="url(#clip651)" style="stroke:#000000; stroke-linecap:round; stroke-linejoin:round; stroke-width:2; stroke-opacity:0.1; fill:none" points="156.598,1027.44 2352.76,1027.44 "/>
<polyline clip-path="url(#clip651)" style="stroke:#000000; stroke-linecap:round; stroke-linejoin:round; stroke-width:2; stroke-opacity:0.1; fill:none" points="156.598,819.366 2352.76,819.366 "/>
<polyline clip-path="url(#clip651)" style="stroke:#000000; stroke-linecap:round; stroke-linejoin:round; stroke-width:2; stroke-opacity:0.1; fill:none" points="156.598,611.293 2352.76,611.293 "/>
<polyline clip-path="url(#clip651)" style="stroke:#000000; stroke-linecap:round; stroke-linejoin:round; stroke-width:2; stroke-opacity:0.1; fill:none" points="156.598,403.22 2352.76,403.22 "/>
<polyline clip-path="url(#clip651)" style="stroke:#000000; stroke-linecap:round; stroke-linejoin:round; stroke-width:2; stroke-opacity:0.1; fill:none" points="156.598,195.147 2352.76,195.147 "/>
<polyline clip-path="url(#clip650)" style="stroke:#000000; stroke-linecap:round; stroke-linejoin:round; stroke-width:4; stroke-opacity:1; fill:none" points="156.598,1423.18 2352.76,1423.18 "/>
<polyline clip-path="url(#clip650)" style="stroke:#000000; stroke-linecap:round; stroke-linejoin:round; stroke-width:4; stroke-opacity:1; fill:none" points="156.598,1423.18 156.598,1404.28 "/>
<polyline clip-path="url(#clip650)" style="stroke:#000000; stroke-linecap:round; stroke-linejoin:round; stroke-width:4; stroke-opacity:1; fill:none" points="595.83,1423.18 595.83,1404.28 "/>
<polyline clip-path="url(#clip650)" style="stroke:#000000; stroke-linecap:round; stroke-linejoin:round; stroke-width:4; stroke-opacity:1; fill:none" points="1035.06,1423.18 1035.06,1404.28 "/>
<polyline clip-path="url(#clip650)" style="stroke:#000000; stroke-linecap:round; stroke-linejoin:round; stroke-width:4; stroke-opacity:1; fill:none" points="1474.29,1423.18 1474.29,1404.28 "/>
<polyline clip-path="url(#clip650)" style="stroke:#000000; stroke-linecap:round; stroke-linejoin:round; stroke-width:4; stroke-opacity:1; fill:none" points="1913.52,1423.18 1913.52,1404.28 "/>
<polyline clip-path="url(#clip650)" style="stroke:#000000; stroke-linecap:round; stroke-linejoin:round; stroke-width:4; stroke-opacity:1; fill:none" points="2352.76,1423.18 2352.76,1404.28 "/>
<path clip-path="url(#clip650)" d="M156.598 1454.1 Q152.987 1454.1 151.158 1457.66 Q149.353 1461.2 149.353 1468.33 Q149.353 1475.44 151.158 1479.01 Q152.987 1482.55 156.598 1482.55 Q160.232 1482.55 162.038 1479.01 Q163.867 1475.44 163.867 1468.33 Q163.867 1461.2 162.038 1457.66 Q160.232 1454.1 156.598 1454.1 M156.598 1450.39 Q162.408 1450.39 165.464 1455 Q168.543 1459.58 168.543 1468.33 Q168.543 1477.06 165.464 1481.67 Q162.408 1486.25 156.598 1486.25 Q150.788 1486.25 147.709 1481.67 Q144.654 1477.06 144.654 1468.33 Q144.654 1459.58 147.709 1455 Q150.788 1450.39 156.598 1450.39 Z" fill="#000000" fill-rule="nonzero" fill-opacity="1" /><path clip-path="url(#clip650)" d="M590.483 1481.64 L606.802 1481.64 L606.802 1485.58 L584.858 1485.58 L584.858 1481.64 Q587.52 1478.89 592.103 1474.26 Q596.709 1469.61 597.89 1468.27 Q600.135 1465.74 601.015 1464.01 Q601.918 1462.25 601.918 1460.56 Q601.918 1457.8 599.973 1456.07 Q598.052 1454.33 594.95 1454.33 Q592.751 1454.33 590.297 1455.09 Q587.867 1455.86 585.089 1457.41 L585.089 1452.69 Q587.913 1451.55 590.367 1450.97 Q592.821 1450.39 594.858 1450.39 Q600.228 1450.39 603.422 1453.08 Q606.617 1455.77 606.617 1460.26 Q606.617 1462.39 605.807 1464.31 Q605.02 1466.2 602.913 1468.8 Q602.334 1469.47 599.233 1472.69 Q596.131 1475.88 590.483 1481.64 Z" fill="#000000" fill-rule="nonzero" fill-opacity="1" /><path clip-path="url(#clip650)" d="M1038.07 1455.09 L1026.27 1473.54 L1038.07 1473.54 L1038.07 1455.09 M1036.84 1451.02 L1042.72 1451.02 L1042.72 1473.54 L1047.65 1473.54 L1047.65 1477.43 L1042.72 1477.43 L1042.72 1485.58 L1038.07 1485.58 L1038.07 1477.43 L1022.47 1477.43 L1022.47 1472.92 L1036.84 1451.02 Z" fill="#000000" fill-rule="nonzero" fill-opacity="1" /><path clip-path="url(#clip650)" d="M1474.7 1466.44 Q1471.55 1466.44 1469.7 1468.59 Q1467.87 1470.74 1467.87 1474.49 Q1467.87 1478.22 1469.7 1480.39 Q1471.55 1482.55 1474.7 1482.55 Q1477.85 1482.55 1479.67 1480.39 Q1481.53 1478.22 1481.53 1474.49 Q1481.53 1470.74 1479.67 1468.59 Q1477.85 1466.44 1474.7 1466.44 M1483.98 1451.78 L1483.98 1456.04 Q1482.22 1455.21 1480.42 1454.77 Q1478.63 1454.33 1476.87 1454.33 Q1472.24 1454.33 1469.79 1457.45 Q1467.36 1460.58 1467.01 1466.9 Q1468.38 1464.89 1470.44 1463.82 Q1472.5 1462.73 1474.98 1462.73 Q1480.18 1462.73 1483.19 1465.9 Q1486.23 1469.05 1486.23 1474.49 Q1486.23 1479.82 1483.08 1483.03 Q1479.93 1486.25 1474.7 1486.25 Q1468.7 1486.25 1465.53 1481.67 Q1462.36 1477.06 1462.36 1468.33 Q1462.36 1460.14 1466.25 1455.28 Q1470.14 1450.39 1476.69 1450.39 Q1478.45 1450.39 1480.23 1450.74 Q1482.04 1451.09 1483.98 1451.78 Z" fill="#000000" fill-rule="nonzero" fill-opacity="1" /><path clip-path="url(#clip650)" d="M1913.52 1469.17 Q1910.19 1469.17 1908.27 1470.95 Q1906.37 1472.73 1906.37 1475.86 Q1906.37 1478.98 1908.27 1480.77 Q1910.19 1482.55 1913.52 1482.55 Q1916.86 1482.55 1918.78 1480.77 Q1920.7 1478.96 1920.7 1475.86 Q1920.7 1472.73 1918.78 1470.95 Q1916.88 1469.17 1913.52 1469.17 M1908.85 1467.18 Q1905.84 1466.44 1904.15 1464.38 Q1902.48 1462.32 1902.48 1459.35 Q1902.48 1455.21 1905.42 1452.8 Q1908.39 1450.39 1913.52 1450.39 Q1918.69 1450.39 1921.63 1452.8 Q1924.57 1455.21 1924.57 1459.35 Q1924.57 1462.32 1922.88 1464.38 Q1921.21 1466.44 1918.22 1467.18 Q1921.6 1467.96 1923.48 1470.26 Q1925.38 1472.55 1925.38 1475.86 Q1925.38 1480.88 1922.3 1483.57 Q1919.24 1486.25 1913.52 1486.25 Q1907.81 1486.25 1904.73 1483.57 Q1901.67 1480.88 1901.67 1475.86 Q1901.67 1472.55 1903.57 1470.26 Q1905.47 1467.96 1908.85 1467.18 M1907.14 1459.79 Q1907.14 1462.48 1908.8 1463.98 Q1910.49 1465.49 1913.52 1465.49 Q1916.53 1465.49 1918.22 1463.98 Q1919.94 1462.48 1919.94 1459.79 Q1919.94 1457.11 1918.22 1455.6 Q1916.53 1454.1 1913.52 1454.1 Q1910.49 1454.1 1908.8 1455.6 Q1907.14 1457.11 1907.14 1459.79 Z" fill="#000000" fill-rule="nonzero" fill-opacity="1" /><path clip-path="url(#clip650)" d="M2327.44 1481.64 L2335.08 1481.64 L2335.08 1455.28 L2326.77 1456.95 L2326.77 1452.69 L2335.04 1451.02 L2339.71 1451.02 L2339.71 1481.64 L2347.35 1481.64 L2347.35 1485.58 L2327.44 1485.58 L2327.44 1481.64 Z" fill="#000000" fill-rule="nonzero" fill-opacity="1" /><path clip-path="url(#clip650)" d="M2366.8 1454.1 Q2363.18 1454.1 2361.36 1457.66 Q2359.55 1461.2 2359.55 1468.33 Q2359.55 1475.44 2361.36 1479.01 Q2363.18 1482.55 2366.8 1482.55 Q2370.43 1482.55 2372.23 1479.01 Q2374.06 1475.44 2374.06 1468.33 Q2374.06 1461.2 2372.23 1457.66 Q2370.43 1454.1 2366.8 1454.1 M2366.8 1450.39 Q2372.61 1450.39 2375.66 1455 Q2378.74 1459.58 2378.74 1468.33 Q2378.74 1477.06 2375.66 1481.67 Q2372.61 1486.25 2366.8 1486.25 Q2360.99 1486.25 2357.91 1481.67 Q2354.85 1477.06 2354.85 1468.33 Q2354.85 1459.58 2357.91 1455 Q2360.99 1450.39 2366.8 1450.39 Z" fill="#000000" fill-rule="nonzero" fill-opacity="1" /><path clip-path="url(#clip650)" d="M1253.74 1522.27 L1253.74 1532.4 L1265.8 1532.4 L1265.8 1536.95 L1253.74 1536.95 L1253.74 1556.3 Q1253.74 1560.66 1254.92 1561.9 Q1256.13 1563.14 1259.79 1563.14 L1265.8 1563.14 L1265.8 1568.04 L1259.79 1568.04 Q1253.01 1568.04 1250.43 1565.53 Q1247.85 1562.98 1247.85 1556.3 L1247.85 1536.95 L1243.55 1536.95 L1243.55 1532.4 L1247.85 1532.4 L1247.85 1522.27 L1253.74 1522.27 Z" fill="#000000" fill-rule="nonzero" fill-opacity="1" /><polyline clip-path="url(#clip650)" style="stroke:#000000; stroke-linecap:round; stroke-linejoin:round; stroke-width:4; stroke-opacity:1; fill:none" points="156.598,1423.18 156.598,47.2441 "/>
<polyline clip-path="url(#clip650)" style="stroke:#000000; stroke-linecap:round; stroke-linejoin:round; stroke-width:4; stroke-opacity:1; fill:none" points="156.598,1235.51 175.496,1235.51 "/>
<polyline clip-path="url(#clip650)" style="stroke:#000000; stroke-linecap:round; stroke-linejoin:round; stroke-width:4; stroke-opacity:1; fill:none" points="156.598,1027.44 175.496,1027.44 "/>
<polyline clip-path="url(#clip650)" style="stroke:#000000; stroke-linecap:round; stroke-linejoin:round; stroke-width:4; stroke-opacity:1; fill:none" points="156.598,819.366 175.496,819.366 "/>
<polyline clip-path="url(#clip650)" style="stroke:#000000; stroke-linecap:round; stroke-linejoin:round; stroke-width:4; stroke-opacity:1; fill:none" points="156.598,611.293 175.496,611.293 "/>
<polyline clip-path="url(#clip650)" style="stroke:#000000; stroke-linecap:round; stroke-linejoin:round; stroke-width:4; stroke-opacity:1; fill:none" points="156.598,403.22 175.496,403.22 "/>
<polyline clip-path="url(#clip650)" style="stroke:#000000; stroke-linecap:round; stroke-linejoin:round; stroke-width:4; stroke-opacity:1; fill:none" points="156.598,195.147 175.496,195.147 "/>
<path clip-path="url(#clip650)" d="M64.6495 1221.31 Q61.0384 1221.31 59.2097 1224.87 Q57.4041 1228.42 57.4041 1235.55 Q57.4041 1242.65 59.2097 1246.22 Q61.0384 1249.76 64.6495 1249.76 Q68.2837 1249.76 70.0892 1246.22 Q71.9179 1242.65 71.9179 1235.55 Q71.9179 1228.42 70.0892 1224.87 Q68.2837 1221.31 64.6495 1221.31 M64.6495 1217.61 Q70.4596 1217.61 73.5152 1222.21 Q76.5938 1226.8 76.5938 1235.55 Q76.5938 1244.27 73.5152 1248.88 Q70.4596 1253.46 64.6495 1253.46 Q58.8393 1253.46 55.7606 1248.88 Q52.7051 1244.27 52.7051 1235.55 Q52.7051 1226.8 55.7606 1222.21 Q58.8393 1217.61 64.6495 1217.61 Z" fill="#000000" fill-rule="nonzero" fill-opacity="1" /><path clip-path="url(#clip650)" d="M84.8114 1246.91 L89.6956 1246.91 L89.6956 1252.79 L84.8114 1252.79 L84.8114 1246.91 Z" fill="#000000" fill-rule="nonzero" fill-opacity="1" /><path clip-path="url(#clip650)" d="M100.691 1248.86 L108.33 1248.86 L108.33 1222.49 L100.02 1224.16 L100.02 1219.9 L108.283 1218.23 L112.959 1218.23 L112.959 1248.86 L120.598 1248.86 L120.598 1252.79 L100.691 1252.79 L100.691 1248.86 Z" fill="#000000" fill-rule="nonzero" fill-opacity="1" /><path clip-path="url(#clip650)" d="M65.0198 1013.24 Q61.4087 1013.24 59.58 1016.8 Q57.7745 1020.34 57.7745 1027.47 Q57.7745 1034.58 59.58 1038.14 Q61.4087 1041.69 65.0198 1041.69 Q68.6541 1041.69 70.4596 1038.14 Q72.2883 1034.58 72.2883 1027.47 Q72.2883 1020.34 70.4596 1016.8 Q68.6541 1013.24 65.0198 1013.24 M65.0198 1009.53 Q70.83 1009.53 73.8855 1014.14 Q76.9642 1018.72 76.9642 1027.47 Q76.9642 1036.2 73.8855 1040.81 Q70.83 1045.39 65.0198 1045.39 Q59.2097 1045.39 56.131 1040.81 Q53.0754 1036.2 53.0754 1027.47 Q53.0754 1018.72 56.131 1014.14 Q59.2097 1009.53 65.0198 1009.53 Z" fill="#000000" fill-rule="nonzero" fill-opacity="1" /><path clip-path="url(#clip650)" d="M85.1818 1038.84 L90.066 1038.84 L90.066 1044.72 L85.1818 1044.72 L85.1818 1038.84 Z" fill="#000000" fill-rule="nonzero" fill-opacity="1" /><path clip-path="url(#clip650)" d="M104.279 1040.78 L120.598 1040.78 L120.598 1044.72 L98.6539 1044.72 L98.6539 1040.78 Q101.316 1038.03 105.899 1033.4 Q110.506 1028.75 111.686 1027.4 Q113.932 1024.88 114.811 1023.14 Q115.714 1021.39 115.714 1019.7 Q115.714 1016.94 113.77 1015.2 Q111.848 1013.47 108.746 1013.47 Q106.547 1013.47 104.094 1014.23 Q101.663 1015 98.8854 1016.55 L98.8854 1011.83 Q101.709 1010.69 104.163 1010.11 Q106.617 1009.53 108.654 1009.53 Q114.024 1009.53 117.219 1012.22 Q120.413 1014.9 120.413 1019.39 Q120.413 1021.52 119.603 1023.45 Q118.816 1025.34 116.709 1027.94 Q116.131 1028.61 113.029 1031.82 Q109.927 1035.02 104.279 1040.78 Z" fill="#000000" fill-rule="nonzero" fill-opacity="1" /><path clip-path="url(#clip650)" d="M64.0708 805.164 Q60.4597 805.164 58.631 808.729 Q56.8254 812.271 56.8254 819.4 Q56.8254 826.507 58.631 830.072 Q60.4597 833.613 64.0708 833.613 Q67.705 833.613 69.5105 830.072 Q71.3392 826.507 71.3392 819.4 Q71.3392 812.271 69.5105 808.729 Q67.705 805.164 64.0708 805.164 M64.0708 801.461 Q69.8809 801.461 72.9365 806.067 Q76.0151 810.65 76.0151 819.4 Q76.0151 828.127 72.9365 832.734 Q69.8809 837.317 64.0708 837.317 Q58.2606 837.317 55.1819 832.734 Q52.1264 828.127 52.1264 819.4 Q52.1264 810.65 55.1819 806.067 Q58.2606 801.461 64.0708 801.461 Z" fill="#000000" fill-rule="nonzero" fill-opacity="1" /><path clip-path="url(#clip650)" d="M84.2327 830.766 L89.1169 830.766 L89.1169 836.646 L84.2327 836.646 L84.2327 830.766 Z" fill="#000000" fill-rule="nonzero" fill-opacity="1" /><path clip-path="url(#clip650)" d="M113.469 818.011 Q116.825 818.729 118.7 820.998 Q120.598 823.266 120.598 826.599 Q120.598 831.715 117.08 834.516 Q113.561 837.317 107.08 837.317 Q104.904 837.317 102.589 836.877 Q100.297 836.46 97.8437 835.604 L97.8437 831.09 Q99.7882 832.224 102.103 832.803 Q104.418 833.382 106.941 833.382 Q111.339 833.382 113.631 831.646 Q115.945 829.91 115.945 826.599 Q115.945 823.544 113.793 821.831 Q111.663 820.095 107.844 820.095 L103.816 820.095 L103.816 816.252 L108.029 816.252 Q111.478 816.252 113.307 814.886 Q115.135 813.498 115.135 810.905 Q115.135 808.243 113.237 806.831 Q111.362 805.396 107.844 805.396 Q105.922 805.396 103.723 805.812 Q101.524 806.229 98.8854 807.109 L98.8854 802.942 Q101.547 802.201 103.862 801.831 Q106.2 801.461 108.26 801.461 Q113.584 801.461 116.686 803.891 Q119.788 806.299 119.788 810.419 Q119.788 813.289 118.145 815.28 Q116.501 817.248 113.469 818.011 Z" fill="#000000" fill-rule="nonzero" fill-opacity="1" /><path clip-path="url(#clip650)" d="M62.9365 597.092 Q59.3254 597.092 57.4967 600.656 Q55.6912 604.198 55.6912 611.328 Q55.6912 618.434 57.4967 621.999 Q59.3254 625.54 62.9365 625.54 Q66.5707 625.54 68.3763 621.999 Q70.205 618.434 70.205 611.328 Q70.205 604.198 68.3763 600.656 Q66.5707 597.092 62.9365 597.092 M62.9365 593.388 Q68.7467 593.388 71.8022 597.994 Q74.8809 602.578 74.8809 611.328 Q74.8809 620.054 71.8022 624.661 Q68.7467 629.244 62.9365 629.244 Q57.1264 629.244 54.0477 624.661 Q50.9921 620.054 50.9921 611.328 Q50.9921 602.578 54.0477 597.994 Q57.1264 593.388 62.9365 593.388 Z" fill="#000000" fill-rule="nonzero" fill-opacity="1" /><path clip-path="url(#clip650)" d="M83.0984 622.693 L87.9827 622.693 L87.9827 628.573 L83.0984 628.573 L83.0984 622.693 Z" fill="#000000" fill-rule="nonzero" fill-opacity="1" /><path clip-path="url(#clip650)" d="M111.015 598.087 L99.2095 616.536 L111.015 616.536 L111.015 598.087 M109.788 594.013 L115.668 594.013 L115.668 616.536 L120.598 616.536 L120.598 620.425 L115.668 620.425 L115.668 628.573 L111.015 628.573 L111.015 620.425 L95.4132 620.425 L95.4132 615.911 L109.788 594.013 Z" fill="#000000" fill-rule="nonzero" fill-opacity="1" /><path clip-path="url(#clip650)" d="M64.418 389.019 Q60.8069 389.019 58.9782 392.584 Q57.1726 396.125 57.1726 403.255 Q57.1726 410.361 58.9782 413.926 Q60.8069 417.468 64.418 417.468 Q68.0522 417.468 69.8578 413.926 Q71.6865 410.361 71.6865 403.255 Q71.6865 396.125 69.8578 392.584 Q68.0522 389.019 64.418 389.019 M64.418 385.315 Q70.2281 385.315 73.2837 389.922 Q76.3624 394.505 76.3624 403.255 Q76.3624 411.982 73.2837 416.588 Q70.2281 421.171 64.418 421.171 Q58.6078 421.171 55.5291 416.588 Q52.4736 411.982 52.4736 403.255 Q52.4736 394.505 55.5291 389.922 Q58.6078 385.315 64.418 385.315 Z" fill="#000000" fill-rule="nonzero" fill-opacity="1" /><path clip-path="url(#clip650)" d="M84.5799 414.62 L89.4641 414.62 L89.4641 420.5 L84.5799 420.5 L84.5799 414.62 Z" fill="#000000" fill-rule="nonzero" fill-opacity="1" /><path clip-path="url(#clip650)" d="M99.6956 385.94 L118.052 385.94 L118.052 389.875 L103.978 389.875 L103.978 398.347 Q104.996 398 106.015 397.838 Q107.033 397.653 108.052 397.653 Q113.839 397.653 117.219 400.824 Q120.598 403.996 120.598 409.412 Q120.598 414.991 117.126 418.093 Q113.654 421.171 107.334 421.171 Q105.159 421.171 102.89 420.801 Q100.645 420.431 98.2372 419.69 L98.2372 414.991 Q100.321 416.125 102.543 416.681 Q104.765 417.236 107.242 417.236 Q111.246 417.236 113.584 415.13 Q115.922 413.023 115.922 409.412 Q115.922 405.801 113.584 403.695 Q111.246 401.588 107.242 401.588 Q105.367 401.588 103.492 402.005 Q101.64 402.421 99.6956 403.301 L99.6956 385.94 Z" fill="#000000" fill-rule="nonzero" fill-opacity="1" /><path clip-path="url(#clip650)" d="M63.2606 180.946 Q59.6495 180.946 57.8208 184.511 Q56.0152 188.052 56.0152 195.182 Q56.0152 202.288 57.8208 205.853 Q59.6495 209.395 63.2606 209.395 Q66.8948 209.395 68.7004 205.853 Q70.5291 202.288 70.5291 195.182 Q70.5291 188.052 68.7004 184.511 Q66.8948 180.946 63.2606 180.946 M63.2606 177.242 Q69.0707 177.242 72.1263 181.849 Q75.205 186.432 75.205 195.182 Q75.205 203.909 72.1263 208.515 Q69.0707 213.099 63.2606 213.099 Q57.4504 213.099 54.3717 208.515 Q51.3162 203.909 51.3162 195.182 Q51.3162 186.432 54.3717 181.849 Q57.4504 177.242 63.2606 177.242 Z" fill="#000000" fill-rule="nonzero" fill-opacity="1" /><path clip-path="url(#clip650)" d="M83.4225 206.548 L88.3067 206.548 L88.3067 212.427 L83.4225 212.427 L83.4225 206.548 Z" fill="#000000" fill-rule="nonzero" fill-opacity="1" /><path clip-path="url(#clip650)" d="M109.071 193.284 Q105.922 193.284 104.071 195.437 Q102.242 197.589 102.242 201.339 Q102.242 205.066 104.071 207.242 Q105.922 209.395 109.071 209.395 Q112.219 209.395 114.047 207.242 Q115.899 205.066 115.899 201.339 Q115.899 197.589 114.047 195.437 Q112.219 193.284 109.071 193.284 M118.353 178.631 L118.353 182.89 Q116.594 182.057 114.788 181.617 Q113.006 181.177 111.246 181.177 Q106.617 181.177 104.163 184.302 Q101.733 187.427 101.385 193.747 Q102.751 191.733 104.811 190.668 Q106.871 189.58 109.348 189.58 Q114.557 189.58 117.566 192.751 Q120.598 195.9 120.598 201.339 Q120.598 206.663 117.45 209.881 Q114.302 213.099 109.071 213.099 Q103.075 213.099 99.9039 208.515 Q96.7326 203.909 96.7326 195.182 Q96.7326 186.988 100.621 182.127 Q104.51 177.242 111.061 177.242 Q112.82 177.242 114.603 177.59 Q116.408 177.937 118.353 178.631 Z" fill="#000000" fill-rule="nonzero" fill-opacity="1" /><polyline clip-path="url(#clip651)" style="stroke:#009af9; stroke-linecap:round; stroke-linejoin:round; stroke-width:8; stroke-opacity:1; fill:none" points="156.598,1027.44 156.598,1027.44 156.802,1042.25 156.993,1030.45 157.208,1015.88 157.45,1023.91 157.721,1011.36 158.027,1009.65 158.371,1011.64 158.758,1030.4 159.194,1022.08 159.684,994.924 160.235,964.753 160.855,973.408 161.552,990.298 162.337,969.495 163.219,940.813 164.212,949.515 165.33,976.667 166.587,901.771 168.001,899.627 169.591,898.409 171.381,902.329 173.394,886.457 175.659,943.272 178.207,880.609 181.073,885.953 184.298,1004.31 187.926,852.116 192.008,770.44 196.599,662.873 201.765,687.468 207.262,876.143 213.447,954.301 220.405,1035.78 228.233,967.909 237.039,995.95 245.967,785.323 256.011,861.548 264.772,875.94 274.627,953.406 284.87,939.354 296.394,957.737 301.479,964.603 307.199,1249.88 313.634,1235.81 320.874,1238.64 329.019,1257.36 338.182,1285.14 348.49,1259.38 360.087,1346.25 373.133,1356.32 387.81,1356.2 404.322,1326.14 422.897,1252.75 443.795,1262.19 462.17,1248.27 482.843,1217.24 506.099,1086.47 532.263,1198.42 550.263,1129.87 570.513,1007.35 591.916,1149.27 606.944,1219.36 623.851,1139.79 642.871,1147.15 660.384,990.384 680.086,1036.74 694.179,892.396 710.035,964.591 722.484,852.155 736.489,786.545 749.581,977.829 761.351,1054.71 774.592,937.152 789.488,932.779 802.934,988.967 816.149,1006.49 831.016,954.288 847.455,904.395 863.639,912.716 879.106,710.444 882.79,727.172 899.617,1018.72 918.547,935.452 939.844,1042.66 955.446,965.262 972.999,1135.01 985.982,1027.92 1000.59,1018.77 1012.61,816.935 1026.14,609.608 1041.36,786.854 1049.95,830.699 1059.61,789.913 1070.49,745.297 1082.48,809.588 1095.03,724.154 1109.14,696.609 1123.13,588.731 1138.86,618.807 1152.03,231.744 1166.83,286.307 1177.17,86.1857 1188.8,335.169 1196.26,334.911 1204.66,303.164 1214.11,420.226 1222.06,277.41 1231.01,717.953 1240.41,517.014 1251,915.251 1262.9,980.574 1273.18,1029.77 1284.74,1192.09 1297.74,1211.72 1312.37,1181.23 1328.82,1070.56 1347.34,1079.97 1363.37,1090.93 1381.41,902.798 1401.7,937.436 1414.92,1025.74 1429.53,1023.79 1445.97,1121.26 1461.61,1084.37 1479.21,1029.79 1496.76,847.556 1516.49,890.781 1528.31,900.992 1541.61,1079.6 1555.45,1017.44 1571.02,971.192 1586.45,846.956 1603.8,972.935 1614.83,965.34 1627.24,1014.92 1639.59,1049.65 1653.43,1171.05 1668.56,1243.75 1685.58,1204.02 1704.73,1268.41 1718.66,1259.94 1734.34,1195.61 1751.98,1209.98 1765.81,1084.11 1781.37,1111.74 1792.46,1102.6 1804.93,1148.49 1816.54,1143.58 1829.6,1145.95 1844.3,1014.03 1860.83,838.486 1879.43,1026.9 1889.97,1030.92 1901.83,910.264 1915.18,832.868 1929.31,1038.42 1941.12,1057.6 1954.39,1232.31 1969.33,1229.07 1986.13,1266.31 2003.5,1327.51 2023.04,1324 2045.02,1382.98 2069.75,1369.96 2097.56,1382.32 2123.55,1363.34 2152.79,1288.2 2185.68,1307.18 2206.75,1357 2230.46,1384.24 2257.12,1371.21 2287.12,1352.92 2320.87,1362.81 2348.97,1357.19 2352.76,1344.82 "/>
<path clip-path="url(#clip650)" d="M1970.84 196.789 L2279.55 196.789 L2279.55 93.1086 L1970.84 93.1086  Z" fill="#ffffff" fill-rule="evenodd" fill-opacity="1"/>
<polyline clip-path="url(#clip650)" style="stroke:#000000; stroke-linecap:round; stroke-linejoin:round; stroke-width:4; stroke-opacity:1; fill:none" points="1970.84,196.789 2279.55,196.789 2279.55,93.1086 1970.84,93.1086 1970.84,196.789 "/>
<polyline clip-path="url(#clip650)" style="stroke:#009af9; stroke-linecap:round; stroke-linejoin:round; stroke-width:8; stroke-opacity:1; fill:none" points="1995.24,144.949 2141.65,144.949 "/>
<path clip-path="url(#clip650)" d="M2166.05 151.997 L2166.05 136.303 L2170.31 136.303 L2170.31 151.835 Q2170.31 155.516 2171.75 157.368 Q2173.18 159.196 2176.05 159.196 Q2179.5 159.196 2181.49 156.997 Q2183.51 154.798 2183.51 151.002 L2183.51 136.303 L2187.76 136.303 L2187.76 162.229 L2183.51 162.229 L2183.51 158.247 Q2181.95 160.608 2179.89 161.766 Q2177.86 162.9 2175.15 162.9 Q2170.68 162.9 2168.37 160.122 Q2166.05 157.344 2166.05 151.997 M2176.77 135.678 L2176.77 135.678 Z" fill="#000000" fill-rule="nonzero" fill-opacity="1" /><path clip-path="url(#clip650)" d="M2196.14 126.21 L2205.96 126.21 L2205.96 129.52 L2200.4 129.52 L2200.4 165.168 L2205.96 165.168 L2205.96 168.479 L2196.14 168.479 L2196.14 126.21 Z" fill="#000000" fill-rule="nonzero" fill-opacity="1" /><path clip-path="url(#clip650)" d="M2216.45 158.293 L2224.08 158.293 L2224.08 131.928 L2215.77 133.595 L2215.77 129.335 L2224.04 127.669 L2228.71 127.669 L2228.71 158.293 L2236.35 158.293 L2236.35 162.229 L2216.45 162.229 L2216.45 158.293 Z" fill="#000000" fill-rule="nonzero" fill-opacity="1" /><path clip-path="url(#clip650)" d="M2255.15 126.21 L2255.15 168.479 L2245.33 168.479 L2245.33 165.168 L2250.87 165.168 L2250.87 129.52 L2245.33 129.52 L2245.33 126.21 L2255.15 126.21 Z" fill="#000000" fill-rule="nonzero" fill-opacity="1" /></svg>
