<?xml version="1.0" encoding="utf-8"?>
<svg xmlns="http://www.w3.org/2000/svg" xmlns:xlink="http://www.w3.org/1999/xlink" width="600" height="400" viewBox="0 0 2400 1600">
<defs>
  <clipPath id="clip580">
    <rect x="0" y="0" width="2400" height="1600"/>
  </clipPath>
</defs>
<path clip-path="url(#clip580)" d="M0 1600 L2400 1600 L2400 0 L0 0  Z" fill="#ffffff" fill-rule="evenodd" fill-opacity="1"/>
<defs>
  <clipPath id="clip581">
    <rect x="480" y="0" width="1681" height="1600"/>
  </clipPath>
</defs>
<path clip-path="url(#clip580)" d="M155.765 1423.18 L2352.76 1423.18 L2352.76 47.2441 L155.765 47.2441  Z" fill="#ffffff" fill-rule="evenodd" fill-opacity="1"/>
<defs>
  <clipPath id="clip582">
    <rect x="155" y="47" width="2198" height="1377"/>
  </clipPath>
</defs>
<polyline clip-path="url(#clip582)" style="stroke:#000000; stroke-linecap:round; stroke-linejoin:round; stroke-width:2; stroke-opacity:0.1; fill:none" points="155.765,1423.18 155.765,47.2441 "/>
<polyline clip-path="url(#clip582)" style="stroke:#000000; stroke-linecap:round; stroke-linejoin:round; stroke-width:2; stroke-opacity:0.1; fill:none" points="595.163,1423.18 595.163,47.2441 "/>
<polyline clip-path="url(#clip582)" style="stroke:#000000; stroke-linecap:round; stroke-linejoin:round; stroke-width:2; stroke-opacity:0.1; fill:none" points="1034.56,1423.18 1034.56,47.2441 "/>
<polyline clip-path="url(#clip582)" style="stroke:#000000; stroke-linecap:round; stroke-linejoin:round; stroke-width:2; stroke-opacity:0.1; fill:none" points="1473.96,1423.18 1473.96,47.2441 "/>
<polyline clip-path="url(#clip582)" style="stroke:#000000; stroke-linecap:round; stroke-linejoin:round; stroke-width:2; stroke-opacity:0.1; fill:none" points="1913.36,1423.18 1913.36,47.2441 "/>
<polyline clip-path="url(#clip582)" style="stroke:#000000; stroke-linecap:round; stroke-linejoin:round; stroke-width:2; stroke-opacity:0.1; fill:none" points="2352.76,1423.18 2352.76,47.2441 "/>
<polyline clip-path="url(#clip582)" style="stroke:#000000; stroke-linecap:round; stroke-linejoin:round; stroke-width:2; stroke-opacity:0.1; fill:none" points="155.765,1252.42 2352.76,1252.42 "/>
<polyline clip-path="url(#clip582)" style="stroke:#000000; stroke-linecap:round; stroke-linejoin:round; stroke-width:2; stroke-opacity:0.1; fill:none" points="155.765,1067.6 2352.76,1067.6 "/>
<polyline clip-path="url(#clip582)" style="stroke:#000000; stroke-linecap:round; stroke-linejoin:round; stroke-width:2; stroke-opacity:0.1; fill:none" points="155.765,882.788 2352.76,882.788 "/>
<polyline clip-path="url(#clip582)" style="stroke:#000000; stroke-linecap:round; stroke-linejoin:round; stroke-width:2; stroke-opacity:0.1; fill:none" points="155.765,697.972 2352.76,697.972 "/>
<polyline clip-path="url(#clip582)" style="stroke:#000000; stroke-linecap:round; stroke-linejoin:round; stroke-width:2; stroke-opacity:0.1; fill:none" points="155.765,513.155 2352.76,513.155 "/>
<polyline clip-path="url(#clip582)" style="stroke:#000000; stroke-linecap:round; stroke-linejoin:round; stroke-width:2; stroke-opacity:0.1; fill:none" points="155.765,328.339 2352.76,328.339 "/>
<polyline clip-path="url(#clip582)" style="stroke:#000000; stroke-linecap:round; stroke-linejoin:round; stroke-width:2; stroke-opacity:0.1; fill:none" points="155.765,143.522 2352.76,143.522 "/>
<polyline clip-path="url(#clip580)" style="stroke:#000000; stroke-linecap:round; stroke-linejoin:round; stroke-width:4; stroke-opacity:1; fill:none" points="155.765,1423.18 2352.76,1423.18 "/>
<polyline clip-path="url(#clip580)" style="stroke:#000000; stroke-linecap:round; stroke-linejoin:round; stroke-width:4; stroke-opacity:1; fill:none" points="155.765,1423.18 155.765,1404.28 "/>
<polyline clip-path="url(#clip580)" style="stroke:#000000; stroke-linecap:round; stroke-linejoin:round; stroke-width:4; stroke-opacity:1; fill:none" points="595.163,1423.18 595.163,1404.28 "/>
<polyline clip-path="url(#clip580)" style="stroke:#000000; stroke-linecap:round; stroke-linejoin:round; stroke-width:4; stroke-opacity:1; fill:none" points="1034.56,1423.18 1034.56,1404.28 "/>
<polyline clip-path="url(#clip580)" style="stroke:#000000; stroke-linecap:round; stroke-linejoin:round; stroke-width:4; stroke-opacity:1; fill:none" points="1473.96,1423.18 1473.96,1404.28 "/>
<polyline clip-path="url(#clip580)" style="stroke:#000000; stroke-linecap:round; stroke-linejoin:round; stroke-width:4; stroke-opacity:1; fill:none" points="1913.36,1423.18 1913.36,1404.28 "/>
<polyline clip-path="url(#clip580)" style="stroke:#000000; stroke-linecap:round; stroke-linejoin:round; stroke-width:4; stroke-opacity:1; fill:none" points="2352.76,1423.18 2352.76,1404.28 "/>
<path clip-path="url(#clip580)" d="M155.765 1454.1 Q152.154 1454.1 150.325 1457.66 Q148.52 1461.2 148.52 1468.33 Q148.52 1475.44 150.325 1479.01 Q152.154 1482.55 155.765 1482.55 Q159.399 1482.55 161.205 1479.01 Q163.033 1475.44 163.033 1468.33 Q163.033 1461.2 161.205 1457.66 Q159.399 1454.1 155.765 1454.1 M155.765 1450.39 Q161.575 1450.39 164.631 1455 Q167.709 1459.58 167.709 1468.33 Q167.709 1477.06 164.631 1481.67 Q161.575 1486.25 155.765 1486.25 Q149.955 1486.25 146.876 1481.67 Q143.821 1477.06 143.821 1468.33 Q143.821 1459.58 146.876 1455 Q149.955 1450.39 155.765 1450.39 Z" fill="#000000" fill-rule="nonzero" fill-opacity="1" /><path clip-path="url(#clip580)" d="M589.816 1481.64 L606.135 1481.64 L606.135 1485.58 L584.191 1485.58 L584.191 1481.64 Q586.853 1478.89 591.436 1474.26 Q596.043 1469.61 597.223 1468.27 Q599.469 1465.74 600.348 1464.01 Q601.251 1462.25 601.251 1460.56 Q601.251 1457.8 599.307 1456.07 Q597.385 1454.33 594.283 1454.33 Q592.084 1454.33 589.631 1455.09 Q587.2 1455.86 584.422 1457.41 L584.422 1452.69 Q587.246 1451.55 589.7 1450.97 Q592.154 1450.39 594.191 1450.39 Q599.561 1450.39 602.756 1453.08 Q605.95 1455.77 605.95 1460.26 Q605.95 1462.39 605.14 1464.31 Q604.353 1466.2 602.246 1468.8 Q601.668 1469.47 598.566 1472.69 Q595.464 1475.88 589.816 1481.64 Z" fill="#000000" fill-rule="nonzero" fill-opacity="1" /><path clip-path="url(#clip580)" d="M1037.57 1455.09 L1025.77 1473.54 L1037.57 1473.54 L1037.57 1455.09 M1036.34 1451.02 L1042.22 1451.02 L1042.22 1473.54 L1047.15 1473.54 L1047.15 1477.43 L1042.22 1477.43 L1042.22 1485.58 L1037.57 1485.58 L1037.57 1477.43 L1021.97 1477.43 L1021.97 1472.92 L1036.34 1451.02 Z" fill="#000000" fill-rule="nonzero" fill-opacity="1" /><path clip-path="url(#clip580)" d="M1474.36 1466.44 Q1471.22 1466.44 1469.36 1468.59 Q1467.54 1470.74 1467.54 1474.49 Q1467.54 1478.22 1469.36 1480.39 Q1471.22 1482.55 1474.36 1482.55 Q1477.51 1482.55 1479.34 1480.39 Q1481.19 1478.22 1481.19 1474.49 Q1481.19 1470.74 1479.34 1468.59 Q1477.51 1466.44 1474.36 1466.44 M1483.65 1451.78 L1483.65 1456.04 Q1481.89 1455.21 1480.08 1454.77 Q1478.3 1454.33 1476.54 1454.33 Q1471.91 1454.33 1469.46 1457.45 Q1467.03 1460.58 1466.68 1466.9 Q1468.05 1464.89 1470.11 1463.82 Q1472.17 1462.73 1474.64 1462.73 Q1479.85 1462.73 1482.86 1465.9 Q1485.89 1469.05 1485.89 1474.49 Q1485.89 1479.82 1482.74 1483.03 Q1479.6 1486.25 1474.36 1486.25 Q1468.37 1486.25 1465.2 1481.67 Q1462.03 1477.06 1462.03 1468.33 Q1462.03 1460.14 1465.92 1455.28 Q1469.8 1450.39 1476.36 1450.39 Q1478.11 1450.39 1479.9 1450.74 Q1481.7 1451.09 1483.65 1451.78 Z" fill="#000000" fill-rule="nonzero" fill-opacity="1" /><path clip-path="url(#clip580)" d="M1913.36 1469.17 Q1910.02 1469.17 1908.1 1470.95 Q1906.2 1472.73 1906.2 1475.86 Q1906.2 1478.98 1908.1 1480.77 Q1910.02 1482.55 1913.36 1482.55 Q1916.69 1482.55 1918.61 1480.77 Q1920.53 1478.96 1920.53 1475.86 Q1920.53 1472.73 1918.61 1470.95 Q1916.71 1469.17 1913.36 1469.17 M1908.68 1467.18 Q1905.67 1466.44 1903.98 1464.38 Q1902.32 1462.32 1902.32 1459.35 Q1902.32 1455.21 1905.26 1452.8 Q1908.22 1450.39 1913.36 1450.39 Q1918.52 1450.39 1921.46 1452.8 Q1924.4 1455.21 1924.4 1459.35 Q1924.4 1462.32 1922.71 1464.38 Q1921.04 1466.44 1918.06 1467.18 Q1921.44 1467.96 1923.31 1470.26 Q1925.21 1472.55 1925.21 1475.86 Q1925.21 1480.88 1922.13 1483.57 Q1919.08 1486.25 1913.36 1486.25 Q1907.64 1486.25 1904.56 1483.57 Q1901.51 1480.88 1901.51 1475.86 Q1901.51 1472.55 1903.4 1470.26 Q1905.3 1467.96 1908.68 1467.18 M1906.97 1459.79 Q1906.97 1462.48 1908.64 1463.98 Q1910.33 1465.49 1913.36 1465.49 Q1916.37 1465.49 1918.06 1463.98 Q1919.77 1462.48 1919.77 1459.79 Q1919.77 1457.11 1918.06 1455.6 Q1916.37 1454.1 1913.36 1454.1 Q1910.33 1454.1 1908.64 1455.6 Q1906.97 1457.11 1906.97 1459.79 Z" fill="#000000" fill-rule="nonzero" fill-opacity="1" /><path clip-path="url(#clip580)" d="M2327.44 1481.64 L2335.08 1481.64 L2335.08 1455.28 L2326.77 1456.95 L2326.77 1452.69 L2335.04 1451.02 L2339.71 1451.02 L2339.71 1481.64 L2347.35 1481.64 L2347.35 1485.58 L2327.44 1485.58 L2327.44 1481.64 Z" fill="#000000" fill-rule="nonzero" fill-opacity="1" /><path clip-path="url(#clip580)" d="M2366.8 1454.1 Q2363.18 1454.1 2361.36 1457.66 Q2359.55 1461.2 2359.55 1468.33 Q2359.55 1475.44 2361.36 1479.01 Q2363.18 1482.55 2366.8 1482.55 Q2370.43 1482.55 2372.23 1479.01 Q2374.06 1475.44 2374.06 1468.33 Q2374.06 1461.2 2372.23 1457.66 Q2370.43 1454.1 2366.8 1454.1 M2366.8 1450.39 Q2372.61 1450.39 2375.66 1455 Q2378.74 1459.58 2378.74 1468.33 Q2378.74 1477.06 2375.66 1481.67 Q2372.61 1486.25 2366.8 1486.25 Q2360.99 1486.25 2357.91 1481.67 Q2354.85 1477.06 2354.85 1468.33 Q2354.85 1459.58 2357.91 1455 Q2360.99 1450.39 2366.8 1450.39 Z" fill="#000000" fill-rule="nonzero" fill-opacity="1" /><path clip-path="url(#clip580)" d="M1253.32 1522.27 L1253.32 1532.4 L1265.38 1532.4 L1265.38 1536.95 L1253.32 1536.95 L1253.32 1556.3 Q1253.32 1560.66 1254.5 1561.9 Q1255.71 1563.14 1259.37 1563.14 L1265.38 1563.14 L1265.38 1568.04 L1259.37 1568.04 Q1252.59 1568.04 1250.01 1565.53 Q1247.43 1562.98 1247.43 1556.3 L1247.43 1536.95 L1243.14 1536.95 L1243.14 1532.4 L1247.43 1532.4 L1247.43 1522.27 L1253.32 1522.27 Z" fill="#000000" fill-rule="nonzero" fill-opacity="1" /><polyline clip-path="url(#clip580)" style="stroke:#000000; stroke-linecap:round; stroke-linejoin:round; stroke-width:4; stroke-opacity:1; fill:none" points="155.765,1423.18 155.765,47.2441 "/>
<polyline clip-path="url(#clip580)" style="stroke:#000000; stroke-linecap:round; stroke-linejoin:round; stroke-width:4; stroke-opacity:1; fill:none" points="155.765,1252.42 174.663,1252.42 "/>
<polyline clip-path="url(#clip580)" style="stroke:#000000; stroke-linecap:round; stroke-linejoin:round; stroke-width:4; stroke-opacity:1; fill:none" points="155.765,1067.6 174.663,1067.6 "/>
<polyline clip-path="url(#clip580)" style="stroke:#000000; stroke-linecap:round; stroke-linejoin:round; stroke-width:4; stroke-opacity:1; fill:none" points="155.765,882.788 174.663,882.788 "/>
<polyline clip-path="url(#clip580)" style="stroke:#000000; stroke-linecap:round; stroke-linejoin:round; stroke-width:4; stroke-opacity:1; fill:none" points="155.765,697.972 174.663,697.972 "/>
<polyline clip-path="url(#clip580)" style="stroke:#000000; stroke-linecap:round; stroke-linejoin:round; stroke-width:4; stroke-opacity:1; fill:none" points="155.765,513.155 174.663,513.155 "/>
<polyline clip-path="url(#clip580)" style="stroke:#000000; stroke-linecap:round; stroke-linejoin:round; stroke-width:4; stroke-opacity:1; fill:none" points="155.765,328.339 174.663,328.339 "/>
<polyline clip-path="url(#clip580)" style="stroke:#000000; stroke-linecap:round; stroke-linejoin:round; stroke-width:4; stroke-opacity:1; fill:none" points="155.765,143.522 174.663,143.522 "/>
<path clip-path="url(#clip580)" d="M63.5847 1238.22 Q59.9736 1238.22 58.1449 1241.78 Q56.3393 1245.33 56.3393 1252.46 Q56.3393 1259.56 58.1449 1263.13 Q59.9736 1266.67 63.5847 1266.67 Q67.2189 1266.67 69.0244 1263.13 Q70.8531 1259.56 70.8531 1252.46 Q70.8531 1245.33 69.0244 1241.78 Q67.2189 1238.22 63.5847 1238.22 M63.5847 1234.52 Q69.3948 1234.52 72.4503 1239.12 Q75.529 1243.71 75.529 1252.46 Q75.529 1261.18 72.4503 1265.79 Q69.3948 1270.37 63.5847 1270.37 Q57.7745 1270.37 54.6958 1265.79 Q51.6403 1261.18 51.6403 1252.46 Q51.6403 1243.71 54.6958 1239.12 Q57.7745 1234.52 63.5847 1234.52 Z" fill="#000000" fill-rule="nonzero" fill-opacity="1" /><path clip-path="url(#clip580)" d="M83.7466 1263.82 L88.6308 1263.82 L88.6308 1269.7 L83.7466 1269.7 L83.7466 1263.82 Z" fill="#000000" fill-rule="nonzero" fill-opacity="1" /><path clip-path="url(#clip580)" d="M98.8622 1235.14 L117.219 1235.14 L117.219 1239.08 L103.145 1239.08 L103.145 1247.55 Q104.163 1247.2 105.182 1247.04 Q106.2 1246.85 107.219 1246.85 Q113.006 1246.85 116.385 1250.03 Q119.765 1253.2 119.765 1258.61 Q119.765 1264.19 116.293 1267.29 Q112.82 1270.37 106.501 1270.37 Q104.325 1270.37 102.057 1270 Q99.8113 1269.63 97.4039 1268.89 L97.4039 1264.19 Q99.4872 1265.33 101.709 1265.88 Q103.932 1266.44 106.408 1266.44 Q110.413 1266.44 112.751 1264.33 Q115.089 1262.22 115.089 1258.61 Q115.089 1255 112.751 1252.9 Q110.413 1250.79 106.408 1250.79 Q104.534 1250.79 102.659 1251.21 Q100.807 1251.62 98.8622 1252.5 L98.8622 1235.14 Z" fill="#000000" fill-rule="nonzero" fill-opacity="1" /><path clip-path="url(#clip580)" d="M53.3995 1080.95 L61.0384 1080.95 L61.0384 1054.58 L52.7282 1056.25 L52.7282 1051.99 L60.9921 1050.32 L65.668 1050.32 L65.668 1080.95 L73.3068 1080.95 L73.3068 1084.88 L53.3995 1084.88 L53.3995 1080.95 Z" fill="#000000" fill-rule="nonzero" fill-opacity="1" /><path clip-path="url(#clip580)" d="M82.7512 1079.01 L87.6354 1079.01 L87.6354 1084.88 L82.7512 1084.88 L82.7512 1079.01 Z" fill="#000000" fill-rule="nonzero" fill-opacity="1" /><path clip-path="url(#clip580)" d="M107.821 1053.4 Q104.209 1053.4 102.381 1056.97 Q100.575 1060.51 100.575 1067.64 Q100.575 1074.75 102.381 1078.31 Q104.209 1081.85 107.821 1081.85 Q111.455 1081.85 113.26 1078.31 Q115.089 1074.75 115.089 1067.64 Q115.089 1060.51 113.26 1056.97 Q111.455 1053.4 107.821 1053.4 M107.821 1049.7 Q113.631 1049.7 116.686 1054.31 Q119.765 1058.89 119.765 1067.64 Q119.765 1076.37 116.686 1080.97 Q113.631 1085.56 107.821 1085.56 Q102.01 1085.56 98.9317 1080.97 Q95.8761 1076.37 95.8761 1067.64 Q95.8761 1058.89 98.9317 1054.31 Q102.01 1049.7 107.821 1049.7 Z" fill="#000000" fill-rule="nonzero" fill-opacity="1" /><path clip-path="url(#clip580)" d="M54.3949 896.133 L62.0337 896.133 L62.0337 869.768 L53.7236 871.434 L53.7236 867.175 L61.9874 865.508 L66.6633 865.508 L66.6633 896.133 L74.3022 896.133 L74.3022 900.068 L54.3949 900.068 L54.3949 896.133 Z" fill="#000000" fill-rule="nonzero" fill-opacity="1" /><path clip-path="url(#clip580)" d="M83.7466 894.189 L88.6308 894.189 L88.6308 900.068 L83.7466 900.068 L83.7466 894.189 Z" fill="#000000" fill-rule="nonzero" fill-opacity="1" /><path clip-path="url(#clip580)" d="M98.8622 865.508 L117.219 865.508 L117.219 869.443 L103.145 869.443 L103.145 877.916 Q104.163 877.568 105.182 877.406 Q106.2 877.221 107.219 877.221 Q113.006 877.221 116.385 880.392 Q119.765 883.564 119.765 888.98 Q119.765 894.559 116.293 897.661 Q112.82 900.74 106.501 900.74 Q104.325 900.74 102.057 900.369 Q99.8113 899.999 97.4039 899.258 L97.4039 894.559 Q99.4872 895.693 101.709 896.249 Q103.932 896.804 106.408 896.804 Q110.413 896.804 112.751 894.698 Q115.089 892.591 115.089 888.98 Q115.089 885.369 112.751 883.263 Q110.413 881.156 106.408 881.156 Q104.534 881.156 102.659 881.573 Q100.807 881.99 98.8622 882.869 L98.8622 865.508 Z" fill="#000000" fill-rule="nonzero" fill-opacity="1" /><path clip-path="url(#clip580)" d="M56.6171 711.317 L72.9365 711.317 L72.9365 715.252 L50.9921 715.252 L50.9921 711.317 Q53.6541 708.562 58.2375 703.932 Q62.8439 699.28 64.0245 697.937 Q66.2698 695.414 67.1494 693.678 Q68.0522 691.919 68.0522 690.229 Q68.0522 687.474 66.1078 685.738 Q64.1865 684.002 61.0847 684.002 Q58.8856 684.002 56.4319 684.766 Q54.0014 685.53 51.2236 687.081 L51.2236 682.358 Q54.0477 681.224 56.5014 680.645 Q58.955 680.067 60.9921 680.067 Q66.3624 680.067 69.5568 682.752 Q72.7513 685.437 72.7513 689.928 Q72.7513 692.057 71.9411 693.979 Q71.1541 695.877 69.0476 698.469 Q68.4689 699.141 65.367 702.358 Q62.2652 705.553 56.6171 711.317 Z" fill="#000000" fill-rule="nonzero" fill-opacity="1" /><path clip-path="url(#clip580)" d="M82.7512 709.372 L87.6354 709.372 L87.6354 715.252 L82.7512 715.252 L82.7512 709.372 Z" fill="#000000" fill-rule="nonzero" fill-opacity="1" /><path clip-path="url(#clip580)" d="M107.821 683.77 Q104.209 683.77 102.381 687.335 Q100.575 690.877 100.575 698.006 Q100.575 705.113 102.381 708.678 Q104.209 712.219 107.821 712.219 Q111.455 712.219 113.26 708.678 Q115.089 705.113 115.089 698.006 Q115.089 690.877 113.26 687.335 Q111.455 683.77 107.821 683.77 M107.821 680.067 Q113.631 680.067 116.686 684.673 Q119.765 689.256 119.765 698.006 Q119.765 706.733 116.686 711.34 Q113.631 715.923 107.821 715.923 Q102.01 715.923 98.9317 711.34 Q95.8761 706.733 95.8761 698.006 Q95.8761 689.256 98.9317 684.673 Q102.01 680.067 107.821 680.067 Z" fill="#000000" fill-rule="nonzero" fill-opacity="1" /><path clip-path="url(#clip580)" d="M57.6125 526.5 L73.9318 526.5 L73.9318 530.435 L51.9875 530.435 L51.9875 526.5 Q54.6495 523.745 59.2328 519.116 Q63.8393 514.463 65.0198 513.12 Q67.2652 510.597 68.1448 508.861 Q69.0476 507.102 69.0476 505.412 Q69.0476 502.658 67.1032 500.921 Q65.1819 499.185 62.08 499.185 Q59.881 499.185 57.4273 499.949 Q54.9967 500.713 52.219 502.264 L52.219 497.542 Q55.043 496.408 57.4967 495.829 Q59.9504 495.25 61.9874 495.25 Q67.3578 495.25 70.5522 497.935 Q73.7466 500.621 73.7466 505.111 Q73.7466 507.241 72.9365 509.162 Q72.1494 511.06 70.0429 513.653 Q69.4642 514.324 66.3624 517.542 Q63.2606 520.736 57.6125 526.5 Z" fill="#000000" fill-rule="nonzero" fill-opacity="1" /><path clip-path="url(#clip580)" d="M83.7466 524.556 L88.6308 524.556 L88.6308 530.435 L83.7466 530.435 L83.7466 524.556 Z" fill="#000000" fill-rule="nonzero" fill-opacity="1" /><path clip-path="url(#clip580)" d="M98.8622 495.875 L117.219 495.875 L117.219 499.81 L103.145 499.81 L103.145 508.283 Q104.163 507.935 105.182 507.773 Q106.2 507.588 107.219 507.588 Q113.006 507.588 116.385 510.759 Q119.765 513.931 119.765 519.347 Q119.765 524.926 116.293 528.028 Q112.82 531.106 106.501 531.106 Q104.325 531.106 102.057 530.736 Q99.8113 530.366 97.4039 529.625 L97.4039 524.926 Q99.4872 526.06 101.709 526.616 Q103.932 527.171 106.408 527.171 Q110.413 527.171 112.751 525.065 Q115.089 522.958 115.089 519.347 Q115.089 515.736 112.751 513.63 Q110.413 511.523 106.408 511.523 Q104.534 511.523 102.659 511.94 Q100.807 512.357 98.8622 513.236 L98.8622 495.875 Z" fill="#000000" fill-rule="nonzero" fill-opacity="1" /><path clip-path="url(#clip580)" d="M66.7559 326.984 Q70.1124 327.702 71.9874 329.971 Q73.8855 332.239 73.8855 335.572 Q73.8855 340.688 70.367 343.489 Q66.8485 346.29 60.3671 346.29 Q58.1912 346.29 55.8764 345.85 Q53.5847 345.433 51.131 344.577 L51.131 340.063 Q53.0754 341.197 55.3903 341.776 Q57.7051 342.355 60.2282 342.355 Q64.6263 342.355 66.918 340.619 Q69.2328 338.883 69.2328 335.572 Q69.2328 332.517 67.08 330.804 Q64.9504 329.068 61.131 329.068 L57.1032 329.068 L57.1032 325.225 L61.3161 325.225 Q64.7652 325.225 66.5939 323.859 Q68.4226 322.471 68.4226 319.878 Q68.4226 317.216 66.5245 315.804 Q64.6495 314.369 61.131 314.369 Q59.2097 314.369 57.0106 314.785 Q54.8115 315.202 52.1727 316.082 L52.1727 311.915 Q54.8347 311.174 57.1495 310.804 Q59.4875 310.434 61.5476 310.434 Q66.8717 310.434 69.9735 312.864 Q73.0753 315.272 73.0753 319.392 Q73.0753 322.262 71.4318 324.253 Q69.7883 326.221 66.7559 326.984 Z" fill="#000000" fill-rule="nonzero" fill-opacity="1" /><path clip-path="url(#clip580)" d="M82.7512 339.739 L87.6354 339.739 L87.6354 345.619 L82.7512 345.619 L82.7512 339.739 Z" fill="#000000" fill-rule="nonzero" fill-opacity="1" /><path clip-path="url(#clip580)" d="M107.821 314.137 Q104.209 314.137 102.381 317.702 Q100.575 321.244 100.575 328.373 Q100.575 335.48 102.381 339.045 Q104.209 342.586 107.821 342.586 Q111.455 342.586 113.26 339.045 Q115.089 335.48 115.089 328.373 Q115.089 321.244 113.26 317.702 Q111.455 314.137 107.821 314.137 M107.821 310.434 Q113.631 310.434 116.686 315.04 Q119.765 319.623 119.765 328.373 Q119.765 337.1 116.686 341.707 Q113.631 346.29 107.821 346.29 Q102.01 346.29 98.9317 341.707 Q95.8761 337.1 95.8761 328.373 Q95.8761 319.623 98.9317 315.04 Q102.01 310.434 107.821 310.434 Z" fill="#000000" fill-rule="nonzero" fill-opacity="1" /><path clip-path="url(#clip580)" d="M67.7513 142.168 Q71.1078 142.885 72.9827 145.154 Q74.8809 147.422 74.8809 150.756 Q74.8809 155.872 71.3624 158.672 Q67.8439 161.473 61.3624 161.473 Q59.1865 161.473 56.8717 161.034 Q54.5801 160.617 52.1264 159.76 L52.1264 155.247 Q54.0708 156.381 56.3856 156.959 Q58.7004 157.538 61.2236 157.538 Q65.6217 157.538 67.9133 155.802 Q70.2281 154.066 70.2281 150.756 Q70.2281 147.7 68.0754 145.987 Q65.9457 144.251 62.1263 144.251 L58.0986 144.251 L58.0986 140.409 L62.3115 140.409 Q65.7606 140.409 67.5893 139.043 Q69.418 137.654 69.418 135.061 Q69.418 132.399 67.5198 130.987 Q65.6448 129.552 62.1263 129.552 Q60.205 129.552 58.006 129.969 Q55.8069 130.386 53.168 131.265 L53.168 127.099 Q55.8301 126.358 58.1449 125.987 Q60.4828 125.617 62.543 125.617 Q67.867 125.617 70.9689 128.048 Q74.0707 130.455 74.0707 134.575 Q74.0707 137.446 72.4272 139.436 Q70.7837 141.404 67.7513 142.168 Z" fill="#000000" fill-rule="nonzero" fill-opacity="1" /><path clip-path="url(#clip580)" d="M83.7466 154.922 L88.6308 154.922 L88.6308 160.802 L83.7466 160.802 L83.7466 154.922 Z" fill="#000000" fill-rule="nonzero" fill-opacity="1" /><path clip-path="url(#clip580)" d="M98.8622 126.242 L117.219 126.242 L117.219 130.177 L103.145 130.177 L103.145 138.649 Q104.163 138.302 105.182 138.14 Q106.2 137.955 107.219 137.955 Q113.006 137.955 116.385 141.126 Q119.765 144.298 119.765 149.714 Q119.765 155.293 116.293 158.395 Q112.82 161.473 106.501 161.473 Q104.325 161.473 102.057 161.103 Q99.8113 160.733 97.4039 159.992 L97.4039 155.293 Q99.4872 156.427 101.709 156.983 Q103.932 157.538 106.408 157.538 Q110.413 157.538 112.751 155.432 Q115.089 153.325 115.089 149.714 Q115.089 146.103 112.751 143.997 Q110.413 141.89 106.408 141.89 Q104.534 141.89 102.659 142.307 Q100.807 142.723 98.8622 143.603 L98.8622 126.242 Z" fill="#000000" fill-rule="nonzero" fill-opacity="1" /><polyline clip-path="url(#clip582)" style="stroke:#009af9; stroke-linecap:round; stroke-linejoin:round; stroke-width:8; stroke-opacity:1; fill:none" points="155.765,1363.31 157.964,1362.57 160.163,1361.82 162.362,1361.06 164.562,1360.29 166.761,1359.52 168.96,1358.74 171.159,1357.95 173.358,1357.15 175.558,1356.34 177.757,1355.53 179.956,1354.71 182.155,1353.88 184.354,1353.04 186.554,1352.19 188.753,1351.33 190.952,1350.47 193.151,1349.6 195.35,1348.72 197.55,1347.83 199.749,1346.93 201.948,1346.02 204.147,1345.1 206.346,1344.17 208.545,1343.24 210.745,1342.29 212.944,1341.34 215.143,1340.37 217.342,1339.4 219.541,1338.41 221.741,1337.42 223.94,1336.41 226.139,1335.4 228.338,1334.37 230.537,1333.34 232.737,1332.29 234.936,1384.24 237.135,1383.71 239.334,1383.17 241.533,1382.62 243.733,1382.07 245.932,1381.52 248.131,1380.96 250.33,1380.39 252.529,1379.82 254.728,1379.24 256.928,1378.66 259.127,1378.07 261.326,1377.47 263.525,1376.87 265.724,1376.27 267.924,1375.65 270.123,1375.03 272.322,1374.41 274.521,1373.77 276.72,1373.14 278.92,1372.49 281.119,1371.84 283.318,1371.18 285.517,1370.52 287.716,1369.85 289.916,1369.17 292.115,1368.48 294.314,1367.79 296.513,1367.09 298.712,1366.39 300.911,1365.67 303.111,1364.95 305.31,1364.23 307.509,1363.49 309.708,1362.75 311.907,1362 314.107,1361.24 316.306,1360.48 318.505,1359.71 320.704,1358.93 322.903,1358.14 325.103,1357.34 327.302,1356.54 329.501,1355.73 331.7,1354.91 333.899,1354.08 336.099,1353.24 338.298,1352.4 340.497,1351.55 342.696,1350.68 344.895,1349.81 347.094,1348.93 349.294,1348.04 351.493,1347.15 353.692,1346.24 355.891,1345.33 358.09,1344.4 360.29,1343.47 362.489,1342.52 364.688,1341.57 366.887,1340.61 369.086,1339.64 371.286,1338.65 373.485,1337.66 375.684,1336.66 377.883,1335.65 380.082,1334.63 382.281,1333.59 384.481,1332.55 386.68,1331.5 388.879,1330.43 391.078,1329.36 393.277,1328.28 395.477,1327.18 397.676,1326.07 399.875,1324.95 402.074,1323.82 404.273,1322.68 406.473,1321.53 408.672,1320.37 410.871,1319.19 413.07,1318 415.269,1316.8 417.469,1315.59 419.668,1314.37 421.867,1313.13 424.066,1311.88 426.265,1310.62 428.464,1309.35 430.664,1308.06 432.863,1306.76 435.062,1305.45 437.261,1304.12 439.46,1302.78 441.66,1301.43 443.859,1300.07 446.058,1298.69 448.257,1297.29 450.456,1295.88 452.656,1294.46 454.855,1293.03 457.054,1291.58 459.253,1290.11 461.452,1288.63 463.652,1287.13 465.851,1285.62 468.05,1284.1 470.249,1282.56 472.448,1281 474.647,1279.43 476.847,1277.84 479.046,1276.24 481.245,1274.62 483.444,1272.98 485.643,1271.33 487.843,1269.66 490.042,1267.98 492.241,1266.27 494.44,1264.55 496.639,1262.82 498.839,1261.06 501.038,1259.29 503.237,1257.5 505.436,1255.69 507.635,1253.86 509.835,1252.02 512.034,1250.16 514.233,1248.27 516.432,1246.37 518.631,1244.45 520.83,1242.51 523.03,1240.55 525.229,1238.58 527.428,1236.58 529.627,1234.56 531.826,1232.52 534.026,1230.46 536.225,1228.38 538.424,1226.28 540.623,1224.16 542.822,1222.01 545.022,1219.85 547.221,1217.66 549.42,1215.45 551.619,1213.22 553.818,1210.97 556.018,1208.69 558.217,1206.39 560.416,1204.07 562.615,1201.72 564.814,1199.35 567.013,1196.96 569.213,1194.54 571.412,1192.1 573.611,1189.64 575.81,1187.15 578.009,1184.63 580.209,1182.09 582.408,1179.52 584.607,1176.93 586.806,1174.31 589.005,1171.67 591.205,1168.99 593.404,1166.3 595.603,1163.57 597.802,1160.82 600.001,1158.04 602.201,1155.23 604.4,1152.39 606.599,1149.52 608.798,1146.63 610.997,1143.71 613.196,1140.75 615.396,1137.77 617.595,1134.76 619.794,1131.71 621.993,1128.64 624.192,1125.54 626.392,1122.4 628.591,1119.23 630.79,1116.03 632.989,1112.8 635.188,1109.54 637.388,1106.24 639.587,1102.91 641.786,1099.55 643.985,1096.15 646.184,1092.72 648.384,1089.25 650.583,1085.75 652.782,1082.21 654.981,1078.64 657.18,1075.03 659.379,1071.39 661.579,1067.71 663.778,1063.99 665.977,1060.24 668.176,1056.44 670.375,1052.61 672.575,1048.74 674.774,1044.84 676.973,1040.89 679.172,1036.9 681.371,1032.87 683.571,1028.81 685.77,1024.7 687.969,1020.55 690.168,1016.35 692.367,1012.12 694.567,1007.84 696.766,1003.53 698.965,999.162 701.164,994.756 703.363,990.305 705.562,985.809 707.762,981.268 709.961,976.681 712.16,972.048 714.359,967.369 716.558,962.643 718.758,957.868 720.957,953.046 723.156,948.176 725.355,943.256 727.554,938.287 729.754,933.268 731.953,928.198 734.152,923.077 736.351,917.905 738.55,912.68 740.749,907.403 742.949,902.073 745.148,896.689 747.347,891.251 749.546,885.758 751.745,880.21 753.945,874.606 756.144,868.945 758.343,863.227 760.542,857.452 762.741,851.619 764.941,845.727 767.14,839.776 769.339,833.764 771.538,827.693 773.737,821.56 775.937,815.365 778.136,809.108 780.335,802.788 782.534,796.405 784.733,789.958 786.932,783.445 789.132,776.868 791.331,770.224 793.53,763.513 795.729,756.736 797.928,749.889 800.128,742.974 802.327,735.99 804.526,728.935 806.725,721.809 808.924,714.611 811.124,707.341 813.323,699.998 815.522,692.581 817.721,685.089 819.92,677.522 822.12,669.88 824.319,662.16 826.518,654.363 828.717,646.487 830.916,638.532 833.115,630.497 835.315,622.382 837.514,614.185 839.713,605.905 841.912,597.542 844.111,589.095 846.311,580.563 848.51,571.946 850.709,563.242 852.908,554.45 855.107,545.569 857.307,536.6 859.506,527.54 861.705,518.389 863.904,509.146 866.103,499.809 868.303,490.379 870.502,480.854 872.701,471.233 874.9,461.515 877.099,451.7 879.298,441.785 881.498,431.771 883.697,421.655 885.896,411.438 888.095,401.118 890.294,390.694 892.494,380.166 894.693,369.531 896.892,358.789 899.091,347.939 901.29,336.979 903.49,325.91 905.689,314.729 907.888,303.435 910.087,292.028 912.286,280.506 914.486,268.868 916.685,257.112 918.884,245.239 921.083,233.247 923.282,221.133 925.481,208.898 927.681,196.541 929.88,184.059 932.079,804.354 934.278,797.987 936.477,791.555 938.677,785.06 940.876,778.498 943.075,771.871 945.274,765.177 947.473,758.416 949.673,751.587 951.872,744.689 954.071,737.722 956.27,730.685 958.469,723.576 960.669,716.397 962.868,709.145 965.067,701.82 967.266,694.422 969.465,686.949 971.664,679.402 973.864,671.778 976.063,664.077 978.262,656.299 980.461,648.443 982.66,640.508 984.86,632.493 987.059,624.397 989.258,616.22 991.457,607.96 993.656,599.618 995.856,591.191 998.055,582.68 1000.25,574.083 1002.45,565.399 1004.65,556.628 1006.85,547.769 1009.05,538.821 1011.25,529.782 1013.45,520.653 1015.65,511.431 1017.85,502.117 1020.05,492.71 1022.25,483.207 1024.45,473.609 1026.64,463.914 1028.84,454.122 1031.04,444.231 1033.24,434.241 1035.44,424.151 1037.64,413.959 1039.84,920.467 1042.04,915.268 1044.24,910.017 1046.44,904.713 1048.64,899.356 1050.84,893.944 1053.03,888.479 1055.23,882.958 1057.43,877.382 1059.63,871.75 1061.83,866.061 1064.03,860.314 1066.23,854.51 1068.43,848.648 1070.63,842.727 1072.83,836.746 1075.03,830.705 1077.23,824.603 1079.42,818.44 1081.62,812.214 1083.82,805.926 1086.02,799.575 1088.22,793.16 1090.42,786.68 1092.62,780.136 1094.82,773.525 1097.02,766.848 1099.22,760.104 1101.42,1095.27 1103.62,1091.83 1105.82,1088.35 1108.01,1084.84 1110.21,1081.3 1112.41,1077.72 1114.61,1074.1 1116.81,1070.45 1119.01,1066.76 1121.21,1063.03 1123.41,1059.27 1125.61,1055.46 1127.81,1051.62 1130.01,1047.74 1132.21,1043.82 1134.4,1039.87 1136.6,1035.87 1138.8,1031.83 1141,1027.75 1143.2,1023.63 1145.4,1019.47 1147.6,1015.27 1149.8,1011.02 1152,1006.74 1154.2,1219.82 1156.4,1217.64 1158.6,1215.43 1160.79,1213.19 1162.99,1210.94 1165.19,1208.66 1167.39,1206.36 1169.59,1204.04 1171.79,1201.7 1173.99,1199.33 1176.19,1196.93 1178.39,1194.52 1180.59,1192.07 1182.79,1189.61 1184.99,1187.12 1187.19,1184.6 1189.38,1182.06 1191.58,1179.49 1193.78,1176.9 1195.98,1174.28 1198.18,1171.63 1200.38,1168.96 1202.58,1166.26 1204.78,1163.54 1206.98,1160.78 1209.18,1158 1211.38,1155.19 1213.58,1152.35 1215.77,1149.49 1217.97,1146.59 1220.17,1143.67 1222.37,1140.72 1224.57,1137.73 1226.77,1134.72 1228.97,1131.68 1231.17,1128.6 1233.37,1125.5 1235.57,1122.36 1237.77,1278.22 1239.97,1276.62 1242.16,1275 1244.36,1273.37 1246.56,1271.72 1248.76,1270.06 1250.96,1268.38 1253.16,1266.68 1255.36,1264.96 1257.56,1263.23 1259.76,1261.48 1261.96,1259.71 1264.16,1257.92 1266.36,1256.12 1268.56,1254.3 1270.75,1252.46 1272.95,1250.6 1275.15,1248.72 1277.35,1246.82 1279.55,1244.91 1281.75,1242.97 1283.95,1241.02 1286.15,1239.05 1288.35,1237.05 1290.55,1235.04 1292.75,1233 1294.95,1230.95 1297.14,1228.88 1299.34,1226.78 1301.54,1224.66 1303.74,1222.52 1305.94,1220.36 1308.14,1218.18 1310.34,1215.98 1312.54,1213.75 1314.74,1211.5 1316.94,1209.23 1319.14,1206.94 1321.34,1204.62 1323.53,1202.28 1325.73,1199.92 1327.93,1197.53 1330.13,1195.12 1332.33,1192.68 1334.53,1190.22 1336.73,1187.74 1338.93,1185.23 1341.13,1182.69 1343.33,1180.13 1345.53,1177.55 1347.73,1174.93 1349.93,1172.29 1352.12,1169.63 1354.32,1166.94 1356.52,1164.22 1358.72,1161.47 1360.92,1158.69 1363.12,1155.89 1365.32,1153.06 1367.52,1293.72 1369.72,1292.28 1371.92,1290.82 1374.12,1289.35 1376.32,1287.86 1378.51,1286.36 1380.71,1284.84 1382.91,1283.31 1385.11,1281.76 1387.31,1280.19 1389.51,1278.61 1391.71,1277.02 1393.91,1275.41 1396.11,1273.78 1398.31,1272.13 1400.51,1270.47 1402.71,1268.79 1404.9,1267.1 1407.1,1265.39 1409.3,1263.66 1411.5,1261.91 1413.7,1260.15 1415.9,1258.37 1418.1,1256.57 1420.3,1254.75 1422.5,1252.92 1424.7,1251.06 1426.9,1249.19 1429.1,1247.3 1431.3,1245.39 1433.49,1243.46 1435.69,1241.51 1437.89,1239.54 1440.09,1237.55 1442.29,1235.54 1444.49,1233.51 1446.69,1231.46 1448.89,1229.39 1451.09,1227.3 1453.29,1225.19 1455.49,1223.06 1457.69,1220.9 1459.88,1218.73 1462.08,1216.53 1464.28,1214.31 1466.48,1212.07 1468.68,1209.8 1470.88,1207.51 1473.08,1205.2 1475.28,1202.87 1477.48,1200.51 1479.68,1198.13 1481.88,1195.72 1484.08,1193.29 1486.27,1190.84 1488.47,1188.36 1490.67,1185.86 1492.87,1183.33 1495.07,1180.77 1497.27,1178.19 1499.47,1175.59 1501.67,1172.95 1503.87,1170.29 1506.07,1167.61 1508.27,1164.89 1510.47,1162.15 1512.67,1159.39 1514.86,1156.59 1517.06,1153.77 1519.26,1150.92 1521.46,1148.03 1523.66,1145.12 1525.86,1142.19 1528.06,1139.22 1530.26,1136.22 1532.46,1133.19 1534.66,1130.13 1536.86,1127.04 1539.06,1123.92 1541.25,1120.77 1543.45,1117.58 1545.65,1114.37 1547.85,1111.12 1550.05,1107.84 1552.25,1104.53 1554.45,1101.18 1556.65,1097.8 1558.85,1094.38 1561.05,1090.93 1563.25,1087.45 1565.45,1083.93 1567.65,1080.38 1569.84,1076.79 1572.04,1073.16 1574.24,1069.5 1576.44,1065.8 1578.64,1062.07 1580.84,1058.29 1583.04,1054.48 1585.24,1050.63 1587.44,1046.74 1589.64,1042.82 1591.84,1038.85 1594.04,1034.84 1596.23,1030.8 1598.43,1026.71 1600.63,1022.58 1602.83,1018.41 1605.03,1014.2 1607.23,1009.95 1609.43,1005.65 1611.63,1001.31 1613.83,996.925 1616.03,992.497 1618.23,988.024 1620.43,983.506 1622.62,978.943 1624.82,974.334 1627.02,969.678 1629.22,964.975 1631.42,960.225 1633.62,955.427 1635.82,950.581 1638.02,945.686 1640.22,940.741 1642.42,935.747 1644.62,930.702 1646.82,925.607 1649.02,920.46 1651.21,915.261 1653.41,910.009 1655.61,904.705 1657.81,899.347 1660.01,893.935 1662.21,888.468 1664.41,882.947 1666.61,877.369 1668.81,871.736 1671.01,866.045 1673.21,860.297 1675.41,854.492 1677.6,848.627 1679.8,842.704 1682,836.721 1684.2,830.678 1686.4,824.573 1688.6,818.408 1690.8,812.18 1693,805.89 1695.2,799.536 1697.4,793.119 1699.6,786.637 1701.8,780.089 1703.99,773.477 1706.19,766.797 1708.39,760.051 1710.59,753.237 1712.79,746.355 1714.99,739.404 1717.19,732.383 1719.39,725.292 1721.59,718.129 1723.79,710.895 1725.99,703.587 1728.19,696.206 1730.39,688.751 1732.58,681.221 1734.78,673.615 1736.98,665.932 1739.18,658.172 1741.38,650.335 1743.58,642.418 1745.78,634.422 1747.98,626.345 1750.18,618.188 1752.38,609.948 1754.58,601.626 1756.78,593.22 1758.97,584.729 1761.17,576.153 1763.37,567.491 1765.57,558.742 1767.77,549.905 1769.97,540.979 1772.17,531.964 1774.37,522.857 1776.57,513.659 1778.77,504.369 1780.97,494.985 1783.17,485.507 1785.36,475.933 1787.56,466.263 1789.76,456.496 1791.96,446.63 1794.16,436.665 1796.36,426.6 1798.56,416.433 1800.76,406.164 1802.96,395.792 1805.16,385.315 1807.36,374.733 1809.56,364.044 1811.76,353.247 1813.95,342.342 1816.15,331.327 1818.35,320.201 1820.55,308.963 1822.75,297.612 1824.95,286.146 1827.15,274.565 1829.35,262.867 1831.55,251.052 1833.75,239.117 1835.95,227.063 1838.15,214.887 1840.34,202.589 1842.54,190.166 1844.74,177.619 1846.94,164.946 1849.14,152.145 1851.34,139.216 1853.54,126.156 1855.74,112.966 1857.94,99.6426 1860.14,86.1857 1862.34,754.969 1864.54,748.105 1866.73,741.173 1868.93,734.17 1871.13,727.097 1873.33,719.953 1875.53,712.737 1877.73,705.448 1879.93,698.086 1882.13,690.65 1884.33,1060.19 1886.53,1056.39 1888.73,1052.56 1890.93,1048.69 1893.13,1044.78 1895.32,1040.83 1897.52,1036.85 1899.72,1032.82 1901.92,1028.75 1904.12,1024.64 1906.32,1020.49 1908.52,1016.3 1910.72,1012.06 1912.92,1007.78 1915.12,1003.46 1917.32,999.1 1919.52,994.692 1921.71,990.24 1923.91,985.743 1926.11,981.201 1928.31,976.613 1930.51,971.979 1932.71,967.299 1934.91,962.571 1937.11,957.796 1939.31,952.972 1941.51,948.1 1943.71,943.18 1945.91,938.209 1948.1,933.189 1950.3,928.118 1952.5,922.996 1954.7,917.822 1956.9,912.597 1959.1,907.319 1961.3,1169.62 1963.5,1166.93 1965.7,1164.21 1967.9,1161.47 1970.1,1158.69 1972.3,1155.89 1974.5,1153.06 1976.69,1150.2 1978.89,1147.31 1981.09,1144.39 1983.29,1141.45 1985.49,1138.47 1987.69,1135.47 1989.89,1132.43 1992.09,1129.36 1994.29,1126.27 1996.49,1123.14 1998.69,1119.98 2000.89,1116.79 2003.08,1113.56 2005.28,1110.31 2007.48,1107.02 2009.68,1103.7 2011.88,1100.34 2014.08,1096.96 2016.28,1093.53 2018.48,1090.08 2020.68,1086.59 2022.88,1083.06 2025.08,1079.5 2027.28,1075.9 2029.47,1072.27 2031.67,1068.59 2033.87,1064.89 2036.07,1061.14 2038.27,1057.36 2040.47,1053.54 2042.67,1049.68 2044.87,1045.78 2047.07,1041.85 2049.27,1037.87 2051.47,1033.86 2053.67,1029.8 2055.87,1025.7 2058.06,1021.56 2060.26,1017.38 2062.46,1013.16 2064.66,1008.89 2066.86,1004.58 2069.06,1000.23 2071.26,995.836 2073.46,991.396 2075.66,986.911 2077.86,982.381 2080.06,977.806 2082.26,973.184 2084.45,968.515 2086.65,963.799 2088.85,959.036 2091.05,954.225 2093.25,949.365 2095.45,944.456 2097.65,939.498 2099.85,934.489 2102.05,929.431 2104.25,924.321 2106.45,919.159 2108.65,913.946 2110.84,908.68 2113.04,903.361 2115.24,897.988 2117.44,892.562 2119.64,887.08 2121.84,881.544 2124.04,875.952 2126.24,870.303 2128.44,864.598 2130.64,858.835 2132.84,853.015 2135.04,847.135 2137.24,841.197 2139.43,835.2 2141.63,829.142 2143.83,823.023 2146.03,816.843 2148.23,810.601 2150.43,804.297 2152.63,797.929 2154.83,791.498 2157.03,785.001 2159.23,778.439 2161.43,771.811 2163.63,765.116 2165.82,758.354 2168.02,751.524 2170.22,744.626 2172.42,737.658 2174.62,730.619 2176.82,723.511 2179.02,716.33 2181.22,709.078 2183.42,701.753 2185.62,694.354 2187.82,686.881 2190.02,679.332 2192.22,671.708 2194.41,664.007 2196.61,656.229 2198.81,648.373 2201.01,640.437 2203.21,632.422 2205.41,624.327 2207.61,616.15 2209.81,607.89 2212.01,599.548 2214.21,591.122 2216.41,582.611 2218.61,574.014 2220.8,565.331 2223,556.56 2225.2,547.701 2227.4,538.753 2229.6,529.715 2231.8,520.586 2234,511.365 2236.2,502.051 2238.4,492.644 2240.6,483.142 2242.8,473.543 2245,463.849 2247.19,454.056 2249.39,444.165 2251.59,434.175 2253.79,424.083 2255.99,413.89 2258.19,403.595 2260.39,393.195 2262.59,382.691 2264.79,372.081 2266.99,361.365 2269.19,350.54 2271.39,339.606 2273.59,328.563 2275.78,317.408 2277.98,306.141 2280.18,294.76 2282.38,283.265 2284.58,271.654 2286.78,259.927 2288.98,248.082 2291.18,236.117 2293.38,224.033 2295.58,211.827 2297.78,199.498 2299.98,187.046 2302.17,805.897 2304.37,799.546 2306.57,793.131 2308.77,786.651 2310.97,780.106 2313.17,773.495 2315.37,766.817 2317.57,760.073 2319.77,753.26 2321.97,746.379 2324.17,739.429 2326.37,732.409 2328.56,725.318 2330.76,718.156 2332.96,710.922 2335.16,703.615 2337.36,696.234 2339.56,688.78 2341.76,681.25 2343.96,1055.44 2346.16,1051.6 2348.36,1047.72 2350.56,1043.8 2352.76,1039.84 "/>
<path clip-path="url(#clip580)" d="M228.998 196.789 L537.794 196.789 L537.794 93.1086 L228.998 93.1086  Z" fill="#ffffff" fill-rule="evenodd" fill-opacity="1"/>
<polyline clip-path="url(#clip580)" style="stroke:#000000; stroke-linecap:round; stroke-linejoin:round; stroke-width:4; stroke-opacity:1; fill:none" points="228.998,196.789 537.794,196.789 537.794,93.1086 228.998,93.1086 228.998,196.789 "/>
<polyline clip-path="url(#clip580)" style="stroke:#009af9; stroke-linecap:round; stroke-linejoin:round; stroke-width:8; stroke-opacity:1; fill:none" points="253.409,144.949 399.875,144.949 "/>
<path clip-path="url(#clip580)" d="M424.286 151.997 L424.286 136.303 L428.545 136.303 L428.545 151.835 Q428.545 155.516 429.98 157.368 Q431.416 159.196 434.286 159.196 Q437.735 159.196 439.726 156.997 Q441.74 154.798 441.74 151.002 L441.74 136.303 L445.999 136.303 L445.999 162.229 L441.74 162.229 L441.74 158.247 Q440.189 160.608 438.129 161.766 Q436.092 162.9 433.383 162.9 Q428.916 162.9 426.601 160.122 Q424.286 157.344 424.286 151.997 M435.004 135.678 L435.004 135.678 Z" fill="#000000" fill-rule="nonzero" fill-opacity="1" /><path clip-path="url(#clip580)" d="M454.378 126.21 L464.193 126.21 L464.193 129.52 L458.638 129.52 L458.638 165.168 L464.193 165.168 L464.193 168.479 L454.378 168.479 L454.378 126.21 Z" fill="#000000" fill-rule="nonzero" fill-opacity="1" /><path clip-path="url(#clip580)" d="M474.679 158.293 L482.318 158.293 L482.318 131.928 L474.008 133.595 L474.008 129.335 L482.272 127.669 L486.948 127.669 L486.948 158.293 L494.587 158.293 L494.587 162.229 L474.679 162.229 L474.679 158.293 Z" fill="#000000" fill-rule="nonzero" fill-opacity="1" /><path clip-path="url(#clip580)" d="M513.383 126.21 L513.383 168.479 L503.568 168.479 L503.568 165.168 L509.1 165.168 L509.1 129.52 L503.568 129.52 L503.568 126.21 L513.383 126.21 Z" fill="#000000" fill-rule="nonzero" fill-opacity="1" /></svg>
