<?xml version="1.0" encoding="utf-8"?>
<svg xmlns="http://www.w3.org/2000/svg" xmlns:xlink="http://www.w3.org/1999/xlink" width="600" height="400" viewBox="0 0 2400 1600">
<defs>
  <clipPath id="clip610">
    <rect x="0" y="0" width="2400" height="1600"/>
  </clipPath>
</defs>
<path clip-path="url(#clip610)" d="M0 1600 L2400 1600 L2400 0 L0 0  Z" fill="#ffffff" fill-rule="evenodd" fill-opacity="1"/>
<defs>
  <clipPath id="clip611">
    <rect x="480" y="0" width="1681" height="1600"/>
  </clipPath>
</defs>
<path clip-path="url(#clip610)" d="M156.112 1423.18 L2352.76 1423.18 L2352.76 47.2441 L156.112 47.2441  Z" fill="#ffffff" fill-rule="evenodd" fill-opacity="1"/>
<defs>
  <clipPath id="clip612">
    <rect x="156" y="47" width="2198" height="1377"/>
  </clipPath>
</defs>
<polyline clip-path="url(#clip612)" style="stroke:#000000; stroke-linecap:round; stroke-linejoin:round; stroke-width:2; stroke-opacity:0.1; fill:none" points="156.112,1423.18 156.112,47.2441 "/>
<polyline clip-path="url(#clip612)" style="stroke:#000000; stroke-linecap:round; stroke-linejoin:round; stroke-width:2; stroke-opacity:0.1; fill:none" points="595.441,1423.18 595.441,47.2441 "/>
<polyline clip-path="url(#clip612)" style="stroke:#000000; stroke-linecap:round; stroke-linejoin:round; stroke-width:2; stroke-opacity:0.1; fill:none" points="1034.77,1423.18 1034.77,47.2441 "/>
<polyline clip-path="url(#clip612)" style="stroke:#000000; stroke-linecap:round; stroke-linejoin:round; stroke-width:2; stroke-opacity:0.1; fill:none" points="1474.1,1423.18 1474.1,47.2441 "/>
<polyline clip-path="url(#clip612)" style="stroke:#000000; stroke-linecap:round; stroke-linejoin:round; stroke-width:2; stroke-opacity:0.1; fill:none" points="1913.43,1423.18 1913.43,47.2441 "/>
<polyline clip-path="url(#clip612)" style="stroke:#000000; stroke-linecap:round; stroke-linejoin:round; stroke-width:2; stroke-opacity:0.1; fill:none" points="2352.76,1423.18 2352.76,47.2441 "/>
<polyline clip-path="url(#clip612)" style="stroke:#000000; stroke-linecap:round; stroke-linejoin:round; stroke-width:2; stroke-opacity:0.1; fill:none" points="156.112,1411.38 2352.76,1411.38 "/>
<polyline clip-path="url(#clip612)" style="stroke:#000000; stroke-linecap:round; stroke-linejoin:round; stroke-width:2; stroke-opacity:0.1; fill:none" points="156.112,972.822 2352.76,972.822 "/>
<polyline clip-path="url(#clip612)" style="stroke:#000000; stroke-linecap:round; stroke-linejoin:round; stroke-width:2; stroke-opacity:0.1; fill:none" points="156.112,534.265 2352.76,534.265 "/>
<polyline clip-path="url(#clip612)" style="stroke:#000000; stroke-linecap:round; stroke-linejoin:round; stroke-width:2; stroke-opacity:0.1; fill:none" points="156.112,95.7094 2352.76,95.7094 "/>
<polyline clip-path="url(#clip610)" style="stroke:#000000; stroke-linecap:round; stroke-linejoin:round; stroke-width:4; stroke-opacity:1; fill:none" points="156.112,1423.18 2352.76,1423.18 "/>
<polyline clip-path="url(#clip610)" style="stroke:#000000; stroke-linecap:round; stroke-linejoin:round; stroke-width:4; stroke-opacity:1; fill:none" points="156.112,1423.18 156.112,1404.28 "/>
<polyline clip-path="url(#clip610)" style="stroke:#000000; stroke-linecap:round; stroke-linejoin:round; stroke-width:4; stroke-opacity:1; fill:none" points="595.441,1423.18 595.441,1404.28 "/>
<polyline clip-path="url(#clip610)" style="stroke:#000000; stroke-linecap:round; stroke-linejoin:round; stroke-width:4; stroke-opacity:1; fill:none" points="1034.77,1423.18 1034.77,1404.28 "/>
<polyline clip-path="url(#clip610)" style="stroke:#000000; stroke-linecap:round; stroke-linejoin:round; stroke-width:4; stroke-opacity:1; fill:none" points="1474.1,1423.18 1474.1,1404.28 "/>
<polyline clip-path="url(#clip610)" style="stroke:#000000; stroke-linecap:round; stroke-linejoin:round; stroke-width:4; stroke-opacity:1; fill:none" points="1913.43,1423.18 1913.43,1404.28 "/>
<polyline clip-path="url(#clip610)" style="stroke:#000000; stroke-linecap:round; stroke-linejoin:round; stroke-width:4; stroke-opacity:1; fill:none" points="2352.76,1423.18 2352.76,1404.28 "/>
<path clip-path="url(#clip610)" d="M156.112 1454.1 Q152.501 1454.1 150.672 1457.66 Q148.867 1461.2 148.867 1468.33 Q148.867 1475.44 150.672 1479.01 Q152.501 1482.55 156.112 1482.55 Q159.746 1482.55 161.552 1479.01 Q163.381 1475.44 163.381 1468.33 Q163.381 1461.2 161.552 1457.66 Q159.746 1454.1 156.112 1454.1 M156.112 1450.39 Q161.922 1450.39 164.978 1455 Q168.057 1459.58 168.057 1468.33 Q168.057 1477.06 164.978 1481.67 Q161.922 1486.25 156.112 1486.25 Q150.302 1486.25 147.223 1481.67 Q144.168 1477.06 144.168 1468.33 Q144.168 1459.58 147.223 1455 Q150.302 1450.39 156.112 1450.39 Z" fill="#000000" fill-rule="nonzero" fill-opacity="1" /><path clip-path="url(#clip610)" d="M590.094 1481.64 L606.413 1481.64 L606.413 1485.58 L584.469 1485.58 L584.469 1481.64 Q587.131 1478.89 591.714 1474.26 Q596.321 1469.61 597.501 1468.27 Q599.746 1465.74 600.626 1464.01 Q601.529 1462.25 601.529 1460.56 Q601.529 1457.8 599.584 1456.07 Q597.663 1454.33 594.561 1454.33 Q592.362 1454.33 589.909 1455.09 Q587.478 1455.86 584.7 1457.41 L584.7 1452.69 Q587.524 1451.55 589.978 1450.97 Q592.432 1450.39 594.469 1450.39 Q599.839 1450.39 603.033 1453.08 Q606.228 1455.77 606.228 1460.26 Q606.228 1462.39 605.418 1464.31 Q604.631 1466.2 602.524 1468.8 Q601.945 1469.47 598.844 1472.69 Q595.742 1475.88 590.094 1481.64 Z" fill="#000000" fill-rule="nonzero" fill-opacity="1" /><path clip-path="url(#clip610)" d="M1037.78 1455.09 L1025.97 1473.54 L1037.78 1473.54 L1037.78 1455.09 M1036.55 1451.02 L1042.43 1451.02 L1042.43 1473.54 L1047.36 1473.54 L1047.36 1477.43 L1042.43 1477.43 L1042.43 1485.58 L1037.78 1485.58 L1037.78 1477.43 L1022.18 1477.43 L1022.18 1472.92 L1036.55 1451.02 Z" fill="#000000" fill-rule="nonzero" fill-opacity="1" /><path clip-path="url(#clip610)" d="M1474.5 1466.44 Q1471.36 1466.44 1469.5 1468.59 Q1467.67 1470.74 1467.67 1474.49 Q1467.67 1478.22 1469.5 1480.39 Q1471.36 1482.55 1474.5 1482.55 Q1477.65 1482.55 1479.48 1480.39 Q1481.33 1478.22 1481.33 1474.49 Q1481.33 1470.74 1479.48 1468.59 Q1477.65 1466.44 1474.5 1466.44 M1483.79 1451.78 L1483.79 1456.04 Q1482.03 1455.21 1480.22 1454.77 Q1478.44 1454.33 1476.68 1454.33 Q1472.05 1454.33 1469.6 1457.45 Q1467.17 1460.58 1466.82 1466.9 Q1468.18 1464.89 1470.24 1463.82 Q1472.3 1462.73 1474.78 1462.73 Q1479.99 1462.73 1483 1465.9 Q1486.03 1469.05 1486.03 1474.49 Q1486.03 1479.82 1482.88 1483.03 Q1479.73 1486.25 1474.5 1486.25 Q1468.51 1486.25 1465.34 1481.67 Q1462.17 1477.06 1462.17 1468.33 Q1462.17 1460.14 1466.05 1455.28 Q1469.94 1450.39 1476.49 1450.39 Q1478.25 1450.39 1480.04 1450.74 Q1481.84 1451.09 1483.79 1451.78 Z" fill="#000000" fill-rule="nonzero" fill-opacity="1" /><path clip-path="url(#clip610)" d="M1913.43 1469.17 Q1910.09 1469.17 1908.17 1470.95 Q1906.27 1472.73 1906.27 1475.86 Q1906.27 1478.98 1908.17 1480.77 Q1910.09 1482.55 1913.43 1482.55 Q1916.76 1482.55 1918.68 1480.77 Q1920.6 1478.96 1920.6 1475.86 Q1920.6 1472.73 1918.68 1470.95 Q1916.78 1469.17 1913.43 1469.17 M1908.75 1467.18 Q1905.74 1466.44 1904.05 1464.38 Q1902.39 1462.32 1902.39 1459.35 Q1902.39 1455.21 1905.33 1452.8 Q1908.29 1450.39 1913.43 1450.39 Q1918.59 1450.39 1921.53 1452.8 Q1924.47 1455.21 1924.47 1459.35 Q1924.47 1462.32 1922.78 1464.38 Q1921.11 1466.44 1918.13 1467.18 Q1921.51 1467.96 1923.38 1470.26 Q1925.28 1472.55 1925.28 1475.86 Q1925.28 1480.88 1922.2 1483.57 Q1919.14 1486.25 1913.43 1486.25 Q1907.71 1486.25 1904.63 1483.57 Q1901.58 1480.88 1901.58 1475.86 Q1901.58 1472.55 1903.47 1470.26 Q1905.37 1467.96 1908.75 1467.18 M1907.04 1459.79 Q1907.04 1462.48 1908.7 1463.98 Q1910.39 1465.49 1913.43 1465.49 Q1916.44 1465.49 1918.13 1463.98 Q1919.84 1462.48 1919.84 1459.79 Q1919.84 1457.11 1918.13 1455.6 Q1916.44 1454.1 1913.43 1454.1 Q1910.39 1454.1 1908.7 1455.6 Q1907.04 1457.11 1907.04 1459.79 Z" fill="#000000" fill-rule="nonzero" fill-opacity="1" /><path clip-path="url(#clip610)" d="M2327.44 1481.64 L2335.08 1481.64 L2335.08 1455.28 L2326.77 1456.95 L2326.77 1452.69 L2335.04 1451.02 L2339.71 1451.02 L2339.71 1481.64 L2347.35 1481.64 L2347.35 1485.58 L2327.44 1485.58 L2327.44 1481.64 Z" fill="#000000" fill-rule="nonzero" fill-opacity="1" /><path clip-path="url(#clip610)" d="M2366.8 1454.1 Q2363.18 1454.1 2361.36 1457.66 Q2359.55 1461.2 2359.55 1468.33 Q2359.55 1475.44 2361.36 1479.01 Q2363.18 1482.55 2366.8 1482.55 Q2370.43 1482.55 2372.23 1479.01 Q2374.06 1475.44 2374.06 1468.33 Q2374.06 1461.2 2372.23 1457.66 Q2370.43 1454.1 2366.8 1454.1 M2366.8 1450.39 Q2372.61 1450.39 2375.66 1455 Q2378.74 1459.58 2378.74 1468.33 Q2378.74 1477.06 2375.66 1481.67 Q2372.61 1486.25 2366.8 1486.25 Q2360.99 1486.25 2357.91 1481.67 Q2354.85 1477.06 2354.85 1468.33 Q2354.85 1459.58 2357.91 1455 Q2360.99 1450.39 2366.8 1450.39 Z" fill="#000000" fill-rule="nonzero" fill-opacity="1" /><path clip-path="url(#clip610)" d="M1253.5 1522.27 L1253.5 1532.4 L1265.56 1532.4 L1265.56 1536.95 L1253.5 1536.95 L1253.5 1556.3 Q1253.5 1560.66 1254.67 1561.9 Q1255.88 1563.14 1259.54 1563.14 L1265.56 1563.14 L1265.56 1568.04 L1259.54 1568.04 Q1252.76 1568.04 1250.18 1565.53 Q1247.61 1562.98 1247.61 1556.3 L1247.61 1536.95 L1243.31 1536.95 L1243.31 1532.4 L1247.61 1532.4 L1247.61 1522.27 L1253.5 1522.27 Z" fill="#000000" fill-rule="nonzero" fill-opacity="1" /><polyline clip-path="url(#clip610)" style="stroke:#000000; stroke-linecap:round; stroke-linejoin:round; stroke-width:4; stroke-opacity:1; fill:none" points="156.112,1423.18 156.112,47.2441 "/>
<polyline clip-path="url(#clip610)" style="stroke:#000000; stroke-linecap:round; stroke-linejoin:round; stroke-width:4; stroke-opacity:1; fill:none" points="156.112,1411.38 175.01,1411.38 "/>
<polyline clip-path="url(#clip610)" style="stroke:#000000; stroke-linecap:round; stroke-linejoin:round; stroke-width:4; stroke-opacity:1; fill:none" points="156.112,972.822 175.01,972.822 "/>
<polyline clip-path="url(#clip610)" style="stroke:#000000; stroke-linecap:round; stroke-linejoin:round; stroke-width:4; stroke-opacity:1; fill:none" points="156.112,534.265 175.01,534.265 "/>
<polyline clip-path="url(#clip610)" style="stroke:#000000; stroke-linecap:round; stroke-linejoin:round; stroke-width:4; stroke-opacity:1; fill:none" points="156.112,95.7094 175.01,95.7094 "/>
<path clip-path="url(#clip610)" d="M62.9365 1397.18 Q59.3254 1397.18 57.4967 1400.74 Q55.6912 1404.28 55.6912 1411.41 Q55.6912 1418.52 57.4967 1422.08 Q59.3254 1425.63 62.9365 1425.63 Q66.5707 1425.63 68.3763 1422.08 Q70.205 1418.52 70.205 1411.41 Q70.205 1404.28 68.3763 1400.74 Q66.5707 1397.18 62.9365 1397.18 M62.9365 1393.47 Q68.7467 1393.47 71.8022 1398.08 Q74.8809 1402.66 74.8809 1411.41 Q74.8809 1420.14 71.8022 1424.75 Q68.7467 1429.33 62.9365 1429.33 Q57.1264 1429.33 54.0477 1424.75 Q50.9921 1420.14 50.9921 1411.41 Q50.9921 1402.66 54.0477 1398.08 Q57.1264 1393.47 62.9365 1393.47 Z" fill="#000000" fill-rule="nonzero" fill-opacity="1" /><path clip-path="url(#clip610)" d="M83.0984 1422.78 L87.9827 1422.78 L87.9827 1428.66 L83.0984 1428.66 L83.0984 1422.78 Z" fill="#000000" fill-rule="nonzero" fill-opacity="1" /><path clip-path="url(#clip610)" d="M108.168 1397.18 Q104.557 1397.18 102.728 1400.74 Q100.922 1404.28 100.922 1411.41 Q100.922 1418.52 102.728 1422.08 Q104.557 1425.63 108.168 1425.63 Q111.802 1425.63 113.608 1422.08 Q115.436 1418.52 115.436 1411.41 Q115.436 1404.28 113.608 1400.74 Q111.802 1397.18 108.168 1397.18 M108.168 1393.47 Q113.978 1393.47 117.033 1398.08 Q120.112 1402.66 120.112 1411.41 Q120.112 1420.14 117.033 1424.75 Q113.978 1429.33 108.168 1429.33 Q102.358 1429.33 99.2789 1424.75 Q96.2234 1420.14 96.2234 1411.41 Q96.2234 1402.66 99.2789 1398.08 Q102.358 1393.47 108.168 1393.47 Z" fill="#000000" fill-rule="nonzero" fill-opacity="1" /><path clip-path="url(#clip610)" d="M63.9319 958.62 Q60.3208 958.62 58.4921 962.185 Q56.6865 965.727 56.6865 972.856 Q56.6865 979.963 58.4921 983.528 Q60.3208 987.069 63.9319 987.069 Q67.5661 987.069 69.3717 983.528 Q71.2004 979.963 71.2004 972.856 Q71.2004 965.727 69.3717 962.185 Q67.5661 958.62 63.9319 958.62 M63.9319 954.917 Q69.742 954.917 72.7976 959.523 Q75.8763 964.106 75.8763 972.856 Q75.8763 981.583 72.7976 986.19 Q69.742 990.773 63.9319 990.773 Q58.1217 990.773 55.043 986.19 Q51.9875 981.583 51.9875 972.856 Q51.9875 964.106 55.043 959.523 Q58.1217 954.917 63.9319 954.917 Z" fill="#000000" fill-rule="nonzero" fill-opacity="1" /><path clip-path="url(#clip610)" d="M84.0938 984.222 L88.978 984.222 L88.978 990.102 L84.0938 990.102 L84.0938 984.222 Z" fill="#000000" fill-rule="nonzero" fill-opacity="1" /><path clip-path="url(#clip610)" d="M99.2095 955.542 L117.566 955.542 L117.566 959.477 L103.492 959.477 L103.492 967.949 Q104.51 967.602 105.529 967.44 Q106.547 967.254 107.566 967.254 Q113.353 967.254 116.733 970.426 Q120.112 973.597 120.112 979.014 Q120.112 984.592 116.64 987.694 Q113.168 990.773 106.848 990.773 Q104.672 990.773 102.404 990.403 Q100.159 990.032 97.7511 989.291 L97.7511 984.592 Q99.8345 985.727 102.057 986.282 Q104.279 986.838 106.756 986.838 Q110.76 986.838 113.098 984.731 Q115.436 982.625 115.436 979.014 Q115.436 975.403 113.098 973.296 Q110.76 971.19 106.756 971.19 Q104.881 971.19 103.006 971.606 Q101.154 972.023 99.2095 972.903 L99.2095 955.542 Z" fill="#000000" fill-rule="nonzero" fill-opacity="1" /><path clip-path="url(#clip610)" d="M53.7467 547.61 L61.3856 547.61 L61.3856 521.245 L53.0754 522.911 L53.0754 518.652 L61.3393 516.985 L66.0152 516.985 L66.0152 547.61 L73.654 547.61 L73.654 551.545 L53.7467 551.545 L53.7467 547.61 Z" fill="#000000" fill-rule="nonzero" fill-opacity="1" /><path clip-path="url(#clip610)" d="M83.0984 545.666 L87.9827 545.666 L87.9827 551.545 L83.0984 551.545 L83.0984 545.666 Z" fill="#000000" fill-rule="nonzero" fill-opacity="1" /><path clip-path="url(#clip610)" d="M108.168 520.064 Q104.557 520.064 102.728 523.629 Q100.922 527.171 100.922 534.3 Q100.922 541.407 102.728 544.971 Q104.557 548.513 108.168 548.513 Q111.802 548.513 113.608 544.971 Q115.436 541.407 115.436 534.3 Q115.436 527.171 113.608 523.629 Q111.802 520.064 108.168 520.064 M108.168 516.36 Q113.978 516.36 117.033 520.967 Q120.112 525.55 120.112 534.3 Q120.112 543.027 117.033 547.633 Q113.978 552.217 108.168 552.217 Q102.358 552.217 99.2789 547.633 Q96.2234 543.027 96.2234 534.3 Q96.2234 525.55 99.2789 520.967 Q102.358 516.36 108.168 516.36 Z" fill="#000000" fill-rule="nonzero" fill-opacity="1" /><path clip-path="url(#clip610)" d="M54.7421 109.054 L62.381 109.054 L62.381 82.6886 L54.0708 84.3553 L54.0708 80.096 L62.3347 78.4294 L67.0106 78.4294 L67.0106 109.054 L74.6494 109.054 L74.6494 112.989 L54.7421 112.989 L54.7421 109.054 Z" fill="#000000" fill-rule="nonzero" fill-opacity="1" /><path clip-path="url(#clip610)" d="M84.0938 107.11 L88.978 107.11 L88.978 112.989 L84.0938 112.989 L84.0938 107.11 Z" fill="#000000" fill-rule="nonzero" fill-opacity="1" /><path clip-path="url(#clip610)" d="M99.2095 78.4294 L117.566 78.4294 L117.566 82.3645 L103.492 82.3645 L103.492 90.8367 Q104.51 90.4895 105.529 90.3275 Q106.547 90.1423 107.566 90.1423 Q113.353 90.1423 116.733 93.3136 Q120.112 96.4848 120.112 101.901 Q120.112 107.48 116.64 110.582 Q113.168 113.661 106.848 113.661 Q104.672 113.661 102.404 113.29 Q100.159 112.92 97.7511 112.179 L97.7511 107.48 Q99.8345 108.614 102.057 109.17 Q104.279 109.726 106.756 109.726 Q110.76 109.726 113.098 107.619 Q115.436 105.513 115.436 101.901 Q115.436 98.2904 113.098 96.1839 Q110.76 94.0774 106.756 94.0774 Q104.881 94.0774 103.006 94.4941 Q101.154 94.9108 99.2095 95.7904 L99.2095 78.4294 Z" fill="#000000" fill-rule="nonzero" fill-opacity="1" /><polyline clip-path="url(#clip612)" style="stroke:#009af9; stroke-linecap:round; stroke-linejoin:round; stroke-width:8; stroke-opacity:1; fill:none" points="156.112,1235.96 156.325,1240.08 156.525,1243.27 156.75,1240.28 157.003,1234.37 157.288,1223.82 157.609,1227.04 157.969,1219.31 158.375,1219.43 158.832,1209.57 159.345,1218.68 159.923,1207.64 160.572,1215.95 161.303,1228.67 162.126,1243.13 163.051,1250.93 164.092,1241.17 165.263,1233.45 166.58,1221.18 168.062,1224.48 169.73,1235.95 171.605,1235.39 173.716,1220.66 176.09,1222.86 178.76,1247.36 181.765,1248.02 185.145,1264.16 188.948,1273.05 193.225,1295.25 198.038,1311.16 203.452,1310.35 209.543,1326.77 216.396,1345.06 224.105,1334.15 232.777,1353.95 242.364,1356.71 253.149,1353.5 265.282,1365.93 278.29,1357.23 292.925,1369.79 307.269,1370.83 323.406,1375.83 341.559,1357.78 361.983,1373.85 378.339,1369.42 396.74,1377.41 414.806,1372.9 435.13,1358.95 457.995,1358.11 479.094,1325.92 502.83,1326.63 525.499,1324.2 550.731,1299.01 579.118,1326.47 598.751,1256.55 620.839,1217.07 642.151,1179.56 663.7,1139.39 683.411,1042.77 700.833,1055.13 715.455,1077.2 729.931,1030.7 734.054,1018.07 738.692,1199.32 743.91,1134.97 749.78,1188.25 755.463,1173 761.856,1154.74 769.049,1124.93 777.14,962.465 785.416,1069.4 792.671,1060.48 800.833,1110.01 808.498,1034.5 817.121,1117.49 824.579,1058.36 832.97,1044.32 841.209,1044.53 849.895,1073.93 858.708,1011.25 868.622,1046.72 877.34,1057.41 886.986,1045.54 897.018,1090.7 906.414,1004.34 916.986,972.742 919.895,1005.75 929.342,1261.9 939.97,1204.49 951.926,1159.7 963.863,1160.3 974.713,1182.66 976.122,1176.15 987.791,1269.61 1000.92,1287.45 1012.29,1343.04 1025.07,1321.02 1039.46,1297.68 1055.65,1335.73 1068.85,1309.06 1083.72,1274.83 1100.43,1254.03 1118.3,1284.48 1131.27,1261.29 1145.87,1259.35 1161.62,1285.1 1177.24,1272.57 1194.82,1255.67 1214.6,1246.98 1232.82,1176.37 1253.33,1186.19 1266.94,1131.8 1282.26,1075.07 1298.59,1133.84 1309.44,1187.09 1321.65,1186.14 1335.39,1125.59 1350.85,1024.5 1368.23,985.012 1384.17,984.726 1397.25,937.086 1410.05,1042.32 1420.07,971.098 1431.33,978.139 1440.15,992.115 1450.07,896.389 1461.23,1027.3 1469.54,961.731 1478.89,715.317 1488.21,850.609 1495.21,734.429 1503.08,768.282 1509.62,377.768 1516.96,328.033 1524.49,585.444 1531.19,509.845 1538.74,221.031 1547.22,206.291 1554.16,441.82 1560.81,388.686 1568.3,391.325 1575.35,152.468 1580.65,86.1857 1586.18,729.728 1592.41,680.415 1599.08,544.505 1606.58,578.958 1613.21,506.222 1620.65,429.393 1621.66,488.311 1622.78,958.801 1624.05,962.21 1625.47,958.817 1627.07,994.118 1628.88,1009.77 1630.9,991.129 1633.19,953.942 1635.75,965.868 1638.64,997.69 1641.89,1010.63 1645.54,1004.2 1649.65,1065.77 1654.28,1069.8 1659.48,1061.86 1665.34,1102.54 1671.57,1091.59 1678.58,1152.01 1685.84,1105.26 1694,1130.65 1701.37,1073.16 1709.67,1122.65 1716.84,1090.53 1724.91,1118.02 1733.21,1043.95 1742.55,1089.8 1750,1134.89 1758.37,1186.02 1767.34,1224.26 1777.44,1233.96 1788.8,1232.8 1801.58,1224.21 1815.96,1141.9 1832.13,1195.96 1842.68,1153.19 1854.56,1110.28 1867.91,1155.56 1877.97,1140.93 1889.28,1259.95 1902,1248.49 1916.32,1219.87 1932.42,1207.2 1948.2,1197.41 1965.95,1138.83 1985.92,1077.03 2004.97,1004.56 2023.64,1037.77 2038.68,802.573 2052.16,757.273 2063.57,813.734 2073.93,902.157 2083.97,985.034 2094.37,1099.14 2104.56,1173.5 2116.02,1089.93 2128.91,1128.23 2138.49,1083.97 2149.28,1062.08 2160.25,1133.58 2169.85,1080.63 2180.66,1006.99 2192.81,1002.73 2202.56,1135.77 2213.53,1102.44 2225.88,1115.14 2237.06,1121.66 2249.21,1186.25 2260.73,1253.66 2273.7,1352.41 2288.29,1365.73 2304.7,1372.66 2323.17,1384.24 2343.94,1372.75 2352.76,1374.86 "/>
<path clip-path="url(#clip610)" d="M1970.77 196.789 L2279.53 196.789 L2279.53 93.1086 L1970.77 93.1086  Z" fill="#ffffff" fill-rule="evenodd" fill-opacity="1"/>
<polyline clip-path="url(#clip610)" style="stroke:#000000; stroke-linecap:round; stroke-linejoin:round; stroke-width:4; stroke-opacity:1; fill:none" points="1970.77,196.789 2279.53,196.789 2279.53,93.1086 1970.77,93.1086 1970.77,196.789 "/>
<polyline clip-path="url(#clip610)" style="stroke:#009af9; stroke-linecap:round; stroke-linejoin:round; stroke-width:8; stroke-opacity:1; fill:none" points="1995.18,144.949 2141.62,144.949 "/>
<path clip-path="url(#clip610)" d="M2166.03 151.997 L2166.03 136.303 L2170.29 136.303 L2170.29 151.835 Q2170.29 155.516 2171.72 157.368 Q2173.16 159.196 2176.03 159.196 Q2179.48 159.196 2181.47 156.997 Q2183.48 154.798 2183.48 151.002 L2183.48 136.303 L2187.74 136.303 L2187.74 162.229 L2183.48 162.229 L2183.48 158.247 Q2181.93 160.608 2179.87 161.766 Q2177.84 162.9 2175.13 162.9 Q2170.66 162.9 2168.35 160.122 Q2166.03 157.344 2166.03 151.997 M2176.75 135.678 L2176.75 135.678 Z" fill="#000000" fill-rule="nonzero" fill-opacity="1" /><path clip-path="url(#clip610)" d="M2196.12 126.21 L2205.94 126.21 L2205.94 129.52 L2200.38 129.52 L2200.38 165.168 L2205.94 165.168 L2205.94 168.479 L2196.12 168.479 L2196.12 126.21 Z" fill="#000000" fill-rule="nonzero" fill-opacity="1" /><path clip-path="url(#clip610)" d="M2216.42 158.293 L2224.06 158.293 L2224.06 131.928 L2215.75 133.595 L2215.75 129.335 L2224.02 127.669 L2228.69 127.669 L2228.69 158.293 L2236.33 158.293 L2236.33 162.229 L2216.42 162.229 L2216.42 158.293 Z" fill="#000000" fill-rule="nonzero" fill-opacity="1" /><path clip-path="url(#clip610)" d="M2255.13 126.21 L2255.13 168.479 L2245.31 168.479 L2245.31 165.168 L2250.84 165.168 L2250.84 129.52 L2245.31 129.52 L2245.31 126.21 L2255.13 126.21 Z" fill="#000000" fill-rule="nonzero" fill-opacity="1" /></svg>
