<?xml version="1.0" encoding="utf-8"?>
<svg xmlns="http://www.w3.org/2000/svg" xmlns:xlink="http://www.w3.org/1999/xlink" width="600" height="400" viewBox="0 0 2400 1600">
<defs>
  <clipPath id="clip700">
    <rect x="0" y="0" width="2400" height="1600"/>
  </clipPath>
</defs>
<path clip-path="url(#clip700)" d="M0 1600 L2400 1600 L2400 0 L0 0  Z" fill="#ffffff" fill-rule="evenodd" fill-opacity="1"/>
<defs>
  <clipPath id="clip701">
    <rect x="480" y="0" width="1681" height="1600"/>
  </clipPath>
</defs>
<path clip-path="url(#clip700)" d="M155.927 1486.45 L2352.76 1486.45 L2352.76 47.2441 L155.927 47.2441  Z" fill="#ffffff" fill-rule="evenodd" fill-opacity="1"/>
<defs>
  <clipPath id="clip702">
    <rect x="155" y="47" width="2198" height="1440"/>
  </clipPath>
</defs>
<polyline clip-path="url(#clip702)" style="stroke:#000000; stroke-linecap:round; stroke-linejoin:round; stroke-width:2; stroke-opacity:0.1; fill:none" points="216.093,1486.45 216.093,47.2441 "/>
<polyline clip-path="url(#clip702)" style="stroke:#000000; stroke-linecap:round; stroke-linejoin:round; stroke-width:2; stroke-opacity:0.1; fill:none" points="718.147,1486.45 718.147,47.2441 "/>
<polyline clip-path="url(#clip702)" style="stroke:#000000; stroke-linecap:round; stroke-linejoin:round; stroke-width:2; stroke-opacity:0.1; fill:none" points="1220.2,1486.45 1220.2,47.2441 "/>
<polyline clip-path="url(#clip702)" style="stroke:#000000; stroke-linecap:round; stroke-linejoin:round; stroke-width:2; stroke-opacity:0.1; fill:none" points="1722.26,1486.45 1722.26,47.2441 "/>
<polyline clip-path="url(#clip702)" style="stroke:#000000; stroke-linecap:round; stroke-linejoin:round; stroke-width:2; stroke-opacity:0.1; fill:none" points="2224.31,1486.45 2224.31,47.2441 "/>
<polyline clip-path="url(#clip702)" style="stroke:#000000; stroke-linecap:round; stroke-linejoin:round; stroke-width:2; stroke-opacity:0.1; fill:none" points="155.927,1445.72 2352.76,1445.72 "/>
<polyline clip-path="url(#clip702)" style="stroke:#000000; stroke-linecap:round; stroke-linejoin:round; stroke-width:2; stroke-opacity:0.1; fill:none" points="155.927,1130.26 2352.76,1130.26 "/>
<polyline clip-path="url(#clip702)" style="stroke:#000000; stroke-linecap:round; stroke-linejoin:round; stroke-width:2; stroke-opacity:0.1; fill:none" points="155.927,814.808 2352.76,814.808 "/>
<polyline clip-path="url(#clip702)" style="stroke:#000000; stroke-linecap:round; stroke-linejoin:round; stroke-width:2; stroke-opacity:0.1; fill:none" points="155.927,499.354 2352.76,499.354 "/>
<polyline clip-path="url(#clip702)" style="stroke:#000000; stroke-linecap:round; stroke-linejoin:round; stroke-width:2; stroke-opacity:0.1; fill:none" points="155.927,183.901 2352.76,183.901 "/>
<polyline clip-path="url(#clip700)" style="stroke:#000000; stroke-linecap:round; stroke-linejoin:round; stroke-width:4; stroke-opacity:1; fill:none" points="155.927,1486.45 2352.76,1486.45 "/>
<polyline clip-path="url(#clip700)" style="stroke:#000000; stroke-linecap:round; stroke-linejoin:round; stroke-width:4; stroke-opacity:1; fill:none" points="216.093,1486.45 216.093,1467.55 "/>
<polyline clip-path="url(#clip700)" style="stroke:#000000; stroke-linecap:round; stroke-linejoin:round; stroke-width:4; stroke-opacity:1; fill:none" points="718.147,1486.45 718.147,1467.55 "/>
<polyline clip-path="url(#clip700)" style="stroke:#000000; stroke-linecap:round; stroke-linejoin:round; stroke-width:4; stroke-opacity:1; fill:none" points="1220.2,1486.45 1220.2,1467.55 "/>
<polyline clip-path="url(#clip700)" style="stroke:#000000; stroke-linecap:round; stroke-linejoin:round; stroke-width:4; stroke-opacity:1; fill:none" points="1722.26,1486.45 1722.26,1467.55 "/>
<polyline clip-path="url(#clip700)" style="stroke:#000000; stroke-linecap:round; stroke-linejoin:round; stroke-width:4; stroke-opacity:1; fill:none" points="2224.31,1486.45 2224.31,1467.55 "/>
<path clip-path="url(#clip700)" d="M216.093 1517.37 Q212.482 1517.37 210.653 1520.93 Q208.848 1524.47 208.848 1531.6 Q208.848 1538.71 210.653 1542.27 Q212.482 1545.82 216.093 1545.82 Q219.727 1545.82 221.533 1542.27 Q223.362 1538.71 223.362 1531.6 Q223.362 1524.47 221.533 1520.93 Q219.727 1517.37 216.093 1517.37 M216.093 1513.66 Q221.903 1513.66 224.959 1518.27 Q228.038 1522.85 228.038 1531.6 Q228.038 1540.33 224.959 1544.94 Q221.903 1549.52 216.093 1549.52 Q210.283 1549.52 207.204 1544.94 Q204.149 1540.33 204.149 1531.6 Q204.149 1522.85 207.204 1518.27 Q210.283 1513.66 216.093 1513.66 Z" fill="#000000" fill-rule="nonzero" fill-opacity="1" /><path clip-path="url(#clip700)" d="M681.84 1544.91 L698.159 1544.91 L698.159 1548.85 L676.215 1548.85 L676.215 1544.91 Q678.877 1542.16 683.46 1537.53 Q688.067 1532.88 689.247 1531.53 Q691.492 1529.01 692.372 1527.27 Q693.275 1525.51 693.275 1523.82 Q693.275 1521.07 691.33 1519.33 Q689.409 1517.6 686.307 1517.6 Q684.108 1517.6 681.655 1518.36 Q679.224 1519.13 676.446 1520.68 L676.446 1515.95 Q679.27 1514.82 681.724 1514.24 Q684.178 1513.66 686.215 1513.66 Q691.585 1513.66 694.779 1516.35 Q697.974 1519.03 697.974 1523.52 Q697.974 1525.65 697.164 1527.57 Q696.377 1529.47 694.27 1532.07 Q693.692 1532.74 690.59 1535.95 Q687.488 1539.15 681.84 1544.91 Z" fill="#000000" fill-rule="nonzero" fill-opacity="1" /><path clip-path="url(#clip700)" d="M708.02 1514.29 L726.377 1514.29 L726.377 1518.22 L712.303 1518.22 L712.303 1526.7 Q713.321 1526.35 714.34 1526.19 Q715.358 1526 716.377 1526 Q722.164 1526 725.543 1529.17 Q728.923 1532.34 728.923 1537.76 Q728.923 1543.34 725.451 1546.44 Q721.978 1549.52 715.659 1549.52 Q713.483 1549.52 711.215 1549.15 Q708.969 1548.78 706.562 1548.04 L706.562 1543.34 Q708.645 1544.47 710.867 1545.03 Q713.09 1545.58 715.566 1545.58 Q719.571 1545.58 721.909 1543.48 Q724.247 1541.37 724.247 1537.76 Q724.247 1534.15 721.909 1532.04 Q719.571 1529.94 715.566 1529.94 Q713.691 1529.94 711.816 1530.35 Q709.965 1530.77 708.02 1531.65 L708.02 1514.29 Z" fill="#000000" fill-rule="nonzero" fill-opacity="1" /><path clip-path="url(#clip700)" d="M748.136 1517.37 Q744.525 1517.37 742.696 1520.93 Q740.89 1524.47 740.89 1531.6 Q740.89 1538.71 742.696 1542.27 Q744.525 1545.82 748.136 1545.82 Q751.77 1545.82 753.575 1542.27 Q755.404 1538.71 755.404 1531.6 Q755.404 1524.47 753.575 1520.93 Q751.77 1517.37 748.136 1517.37 M748.136 1513.66 Q753.946 1513.66 757.001 1518.27 Q760.08 1522.85 760.08 1531.6 Q760.08 1540.33 757.001 1544.94 Q753.946 1549.52 748.136 1549.52 Q742.326 1549.52 739.247 1544.94 Q736.191 1540.33 736.191 1531.6 Q736.191 1522.85 739.247 1518.27 Q742.326 1513.66 748.136 1513.66 Z" fill="#000000" fill-rule="nonzero" fill-opacity="1" /><path clip-path="url(#clip700)" d="M1179.82 1514.29 L1198.18 1514.29 L1198.18 1518.22 L1184.1 1518.22 L1184.1 1526.7 Q1185.12 1526.35 1186.14 1526.19 Q1187.16 1526 1188.18 1526 Q1193.96 1526 1197.34 1529.17 Q1200.72 1532.34 1200.72 1537.76 Q1200.72 1543.34 1197.25 1546.44 Q1193.78 1549.52 1187.46 1549.52 Q1185.28 1549.52 1183.01 1549.15 Q1180.77 1548.78 1178.36 1548.04 L1178.36 1543.34 Q1180.44 1544.47 1182.67 1545.03 Q1184.89 1545.58 1187.37 1545.58 Q1191.37 1545.58 1193.71 1543.48 Q1196.05 1541.37 1196.05 1537.76 Q1196.05 1534.15 1193.71 1532.04 Q1191.37 1529.94 1187.37 1529.94 Q1185.49 1529.94 1183.62 1530.35 Q1181.76 1530.77 1179.82 1531.65 L1179.82 1514.29 Z" fill="#000000" fill-rule="nonzero" fill-opacity="1" /><path clip-path="url(#clip700)" d="M1219.94 1517.37 Q1216.32 1517.37 1214.5 1520.93 Q1212.69 1524.47 1212.69 1531.6 Q1212.69 1538.71 1214.5 1542.27 Q1216.32 1545.82 1219.94 1545.82 Q1223.57 1545.82 1225.38 1542.27 Q1227.2 1538.71 1227.2 1531.6 Q1227.2 1524.47 1225.38 1520.93 Q1223.57 1517.37 1219.94 1517.37 M1219.94 1513.66 Q1225.75 1513.66 1228.8 1518.27 Q1231.88 1522.85 1231.88 1531.6 Q1231.88 1540.33 1228.8 1544.94 Q1225.75 1549.52 1219.94 1549.52 Q1214.13 1549.52 1211.05 1544.94 Q1207.99 1540.33 1207.99 1531.6 Q1207.99 1522.85 1211.05 1518.27 Q1214.13 1513.66 1219.94 1513.66 Z" fill="#000000" fill-rule="nonzero" fill-opacity="1" /><path clip-path="url(#clip700)" d="M1250.1 1517.37 Q1246.49 1517.37 1244.66 1520.93 Q1242.85 1524.47 1242.85 1531.6 Q1242.85 1538.71 1244.66 1542.27 Q1246.49 1545.82 1250.1 1545.82 Q1253.73 1545.82 1255.54 1542.27 Q1257.37 1538.71 1257.37 1531.6 Q1257.37 1524.47 1255.54 1520.93 Q1253.73 1517.37 1250.1 1517.37 M1250.1 1513.66 Q1255.91 1513.66 1258.96 1518.27 Q1262.04 1522.85 1262.04 1531.6 Q1262.04 1540.33 1258.96 1544.94 Q1255.91 1549.52 1250.1 1549.52 Q1244.29 1549.52 1241.21 1544.94 Q1238.15 1540.33 1238.15 1531.6 Q1238.15 1522.85 1241.21 1518.27 Q1244.29 1513.66 1250.1 1513.66 Z" fill="#000000" fill-rule="nonzero" fill-opacity="1" /><path clip-path="url(#clip700)" d="M1680.53 1514.29 L1702.75 1514.29 L1702.75 1516.28 L1690.21 1548.85 L1685.32 1548.85 L1697.13 1518.22 L1680.53 1518.22 L1680.53 1514.29 Z" fill="#000000" fill-rule="nonzero" fill-opacity="1" /><path clip-path="url(#clip700)" d="M1711.92 1514.29 L1730.28 1514.29 L1730.28 1518.22 L1716.2 1518.22 L1716.2 1526.7 Q1717.22 1526.35 1718.24 1526.19 Q1719.26 1526 1720.28 1526 Q1726.06 1526 1729.44 1529.17 Q1732.82 1532.34 1732.82 1537.76 Q1732.82 1543.34 1729.35 1546.44 Q1725.88 1549.52 1719.56 1549.52 Q1717.38 1549.52 1715.11 1549.15 Q1712.87 1548.78 1710.46 1548.04 L1710.46 1543.34 Q1712.55 1544.47 1714.77 1545.03 Q1716.99 1545.58 1719.47 1545.58 Q1723.47 1545.58 1725.81 1543.48 Q1728.15 1541.37 1728.15 1537.76 Q1728.15 1534.15 1725.81 1532.04 Q1723.47 1529.94 1719.47 1529.94 Q1717.59 1529.94 1715.72 1530.35 Q1713.86 1530.77 1711.92 1531.65 L1711.92 1514.29 Z" fill="#000000" fill-rule="nonzero" fill-opacity="1" /><path clip-path="url(#clip700)" d="M1752.04 1517.37 Q1748.42 1517.37 1746.6 1520.93 Q1744.79 1524.47 1744.79 1531.6 Q1744.79 1538.71 1746.6 1542.27 Q1748.42 1545.82 1752.04 1545.82 Q1755.67 1545.82 1757.48 1542.27 Q1759.3 1538.71 1759.3 1531.6 Q1759.3 1524.47 1757.48 1520.93 Q1755.67 1517.37 1752.04 1517.37 M1752.04 1513.66 Q1757.85 1513.66 1760.9 1518.27 Q1763.98 1522.85 1763.98 1531.6 Q1763.98 1540.33 1760.9 1544.94 Q1757.85 1549.52 1752.04 1549.52 Q1746.23 1549.52 1743.15 1544.94 Q1740.09 1540.33 1740.09 1531.6 Q1740.09 1522.85 1743.15 1518.27 Q1746.23 1513.66 1752.04 1513.66 Z" fill="#000000" fill-rule="nonzero" fill-opacity="1" /><path clip-path="url(#clip700)" d="M2168.84 1544.91 L2176.47 1544.91 L2176.47 1518.55 L2168.16 1520.21 L2168.16 1515.95 L2176.43 1514.29 L2181.1 1514.29 L2181.1 1544.91 L2188.74 1544.91 L2188.74 1548.85 L2168.84 1548.85 L2168.84 1544.91 Z" fill="#000000" fill-rule="nonzero" fill-opacity="1" /><path clip-path="url(#clip700)" d="M2208.19 1517.37 Q2204.58 1517.37 2202.75 1520.93 Q2200.94 1524.47 2200.94 1531.6 Q2200.94 1538.71 2202.75 1542.27 Q2204.58 1545.82 2208.19 1545.82 Q2211.82 1545.82 2213.63 1542.27 Q2215.46 1538.71 2215.46 1531.6 Q2215.46 1524.47 2213.63 1520.93 Q2211.82 1517.37 2208.19 1517.37 M2208.19 1513.66 Q2214 1513.66 2217.05 1518.27 Q2220.13 1522.85 2220.13 1531.6 Q2220.13 1540.33 2217.05 1544.94 Q2214 1549.52 2208.19 1549.52 Q2202.38 1549.52 2199.3 1544.94 Q2196.24 1540.33 2196.24 1531.6 Q2196.24 1522.85 2199.3 1518.27 Q2202.38 1513.66 2208.19 1513.66 Z" fill="#000000" fill-rule="nonzero" fill-opacity="1" /><path clip-path="url(#clip700)" d="M2238.35 1517.37 Q2234.74 1517.37 2232.91 1520.93 Q2231.1 1524.47 2231.1 1531.6 Q2231.1 1538.71 2232.91 1542.27 Q2234.74 1545.82 2238.35 1545.82 Q2241.98 1545.82 2243.79 1542.27 Q2245.62 1538.71 2245.62 1531.6 Q2245.62 1524.47 2243.79 1520.93 Q2241.98 1517.37 2238.35 1517.37 M2238.35 1513.66 Q2244.16 1513.66 2247.22 1518.27 Q2250.29 1522.85 2250.29 1531.6 Q2250.29 1540.33 2247.22 1544.94 Q2244.16 1549.52 2238.35 1549.52 Q2232.54 1549.52 2229.46 1544.94 Q2226.41 1540.33 2226.41 1531.6 Q2226.41 1522.85 2229.46 1518.27 Q2232.54 1513.66 2238.35 1513.66 Z" fill="#000000" fill-rule="nonzero" fill-opacity="1" /><path clip-path="url(#clip700)" d="M2268.51 1517.37 Q2264.9 1517.37 2263.07 1520.93 Q2261.27 1524.47 2261.27 1531.6 Q2261.27 1538.71 2263.07 1542.27 Q2264.9 1545.82 2268.51 1545.82 Q2272.15 1545.82 2273.95 1542.27 Q2275.78 1538.71 2275.78 1531.6 Q2275.78 1524.47 2273.95 1520.93 Q2272.15 1517.37 2268.51 1517.37 M2268.51 1513.66 Q2274.32 1513.66 2277.38 1518.27 Q2280.46 1522.85 2280.46 1531.6 Q2280.46 1540.33 2277.38 1544.94 Q2274.32 1549.52 2268.51 1549.52 Q2262.7 1549.52 2259.62 1544.94 Q2256.57 1540.33 2256.57 1531.6 Q2256.57 1522.85 2259.62 1518.27 Q2262.7 1513.66 2268.51 1513.66 Z" fill="#000000" fill-rule="nonzero" fill-opacity="1" /><polyline clip-path="url(#clip700)" style="stroke:#000000; stroke-linecap:round; stroke-linejoin:round; stroke-width:4; stroke-opacity:1; fill:none" points="155.927,1486.45 155.927,47.2441 "/>
<polyline clip-path="url(#clip700)" style="stroke:#000000; stroke-linecap:round; stroke-linejoin:round; stroke-width:4; stroke-opacity:1; fill:none" points="155.927,1445.72 174.825,1445.72 "/>
<polyline clip-path="url(#clip700)" style="stroke:#000000; stroke-linecap:round; stroke-linejoin:round; stroke-width:4; stroke-opacity:1; fill:none" points="155.927,1130.26 174.825,1130.26 "/>
<polyline clip-path="url(#clip700)" style="stroke:#000000; stroke-linecap:round; stroke-linejoin:round; stroke-width:4; stroke-opacity:1; fill:none" points="155.927,814.808 174.825,814.808 "/>
<polyline clip-path="url(#clip700)" style="stroke:#000000; stroke-linecap:round; stroke-linejoin:round; stroke-width:4; stroke-opacity:1; fill:none" points="155.927,499.354 174.825,499.354 "/>
<polyline clip-path="url(#clip700)" style="stroke:#000000; stroke-linecap:round; stroke-linejoin:round; stroke-width:4; stroke-opacity:1; fill:none" points="155.927,183.901 174.825,183.901 "/>
<path clip-path="url(#clip700)" d="M52.7977 1428.44 L71.1541 1428.44 L71.1541 1432.37 L57.0801 1432.37 L57.0801 1440.84 Q58.0986 1440.5 59.1171 1440.33 Q60.1356 1440.15 61.1541 1440.15 Q66.9411 1440.15 70.3207 1443.32 Q73.7003 1446.49 73.7003 1451.91 Q73.7003 1457.49 70.2281 1460.59 Q66.7559 1463.67 60.4365 1463.67 Q58.2606 1463.67 55.9921 1463.3 Q53.7467 1462.93 51.3393 1462.19 L51.3393 1457.49 Q53.4227 1458.62 55.6449 1459.18 Q57.8671 1459.73 60.3439 1459.73 Q64.3485 1459.73 66.6865 1457.63 Q69.0244 1455.52 69.0244 1451.91 Q69.0244 1448.3 66.6865 1446.19 Q64.3485 1444.08 60.3439 1444.08 Q58.4689 1444.08 56.5939 1444.5 Q54.7421 1444.92 52.7977 1445.8 L52.7977 1428.44 Z" fill="#000000" fill-rule="nonzero" fill-opacity="1" /><path clip-path="url(#clip700)" d="M82.9133 1457.12 L87.7975 1457.12 L87.7975 1463 L82.9133 1463 L82.9133 1457.12 Z" fill="#000000" fill-rule="nonzero" fill-opacity="1" /><path clip-path="url(#clip700)" d="M107.983 1431.51 Q104.371 1431.51 102.543 1435.08 Q100.737 1438.62 100.737 1445.75 Q100.737 1452.86 102.543 1456.42 Q104.371 1459.96 107.983 1459.96 Q111.617 1459.96 113.422 1456.42 Q115.251 1452.86 115.251 1445.75 Q115.251 1438.62 113.422 1435.08 Q111.617 1431.51 107.983 1431.51 M107.983 1427.81 Q113.793 1427.81 116.848 1432.42 Q119.927 1437 119.927 1445.75 Q119.927 1454.48 116.848 1459.08 Q113.793 1463.67 107.983 1463.67 Q102.172 1463.67 99.0937 1459.08 Q96.0382 1454.48 96.0382 1445.75 Q96.0382 1437 99.0937 1432.42 Q102.172 1427.81 107.983 1427.81 Z" fill="#000000" fill-rule="nonzero" fill-opacity="1" /><path clip-path="url(#clip700)" d="M53.793 1112.98 L72.1494 1112.98 L72.1494 1116.92 L58.0754 1116.92 L58.0754 1125.39 Q59.0939 1125.04 60.1124 1124.88 Q61.131 1124.69 62.1495 1124.69 Q67.9365 1124.69 71.3161 1127.87 Q74.6957 1131.04 74.6957 1136.45 Q74.6957 1142.03 71.2235 1145.13 Q67.7513 1148.21 61.4319 1148.21 Q59.256 1148.21 56.9875 1147.84 Q54.7421 1147.47 52.3347 1146.73 L52.3347 1142.03 Q54.418 1143.17 56.6402 1143.72 Q58.8625 1144.28 61.3393 1144.28 Q65.3439 1144.28 67.6819 1142.17 Q70.0198 1140.07 70.0198 1136.45 Q70.0198 1132.84 67.6819 1130.74 Q65.3439 1128.63 61.3393 1128.63 Q59.4643 1128.63 57.5893 1129.05 Q55.7375 1129.46 53.793 1130.34 L53.793 1112.98 Z" fill="#000000" fill-rule="nonzero" fill-opacity="1" /><path clip-path="url(#clip700)" d="M83.9086 1141.66 L88.7928 1141.66 L88.7928 1147.54 L83.9086 1147.54 L83.9086 1141.66 Z" fill="#000000" fill-rule="nonzero" fill-opacity="1" /><path clip-path="url(#clip700)" d="M99.0243 1112.98 L117.381 1112.98 L117.381 1116.92 L103.307 1116.92 L103.307 1125.39 Q104.325 1125.04 105.344 1124.88 Q106.362 1124.69 107.381 1124.69 Q113.168 1124.69 116.547 1127.87 Q119.927 1131.04 119.927 1136.45 Q119.927 1142.03 116.455 1145.13 Q112.983 1148.21 106.663 1148.21 Q104.487 1148.21 102.219 1147.84 Q99.9733 1147.47 97.566 1146.73 L97.566 1142.03 Q99.6493 1143.17 101.871 1143.72 Q104.094 1144.28 106.571 1144.28 Q110.575 1144.28 112.913 1142.17 Q115.251 1140.07 115.251 1136.45 Q115.251 1132.84 112.913 1130.74 Q110.575 1128.63 106.571 1128.63 Q104.696 1128.63 102.821 1129.05 Q100.969 1129.46 99.0243 1130.34 L99.0243 1112.98 Z" fill="#000000" fill-rule="nonzero" fill-opacity="1" /><path clip-path="url(#clip700)" d="M63.33 812.945 Q60.1819 812.945 58.33 815.097 Q56.5014 817.25 56.5014 821 Q56.5014 824.727 58.33 826.903 Q60.1819 829.056 63.33 829.056 Q66.4782 829.056 68.3068 826.903 Q70.1587 824.727 70.1587 821 Q70.1587 817.25 68.3068 815.097 Q66.4782 812.945 63.33 812.945 M72.6124 798.292 L72.6124 802.551 Q70.8531 801.718 69.0476 801.278 Q67.2652 800.838 65.5059 800.838 Q60.8763 800.838 58.4226 803.963 Q55.9921 807.088 55.6449 813.408 Q57.0106 811.394 59.0708 810.329 Q61.131 809.241 63.6078 809.241 Q68.8161 809.241 71.8253 812.412 Q74.8577 815.56 74.8577 821 Q74.8577 826.324 71.7096 829.542 Q68.5615 832.759 63.33 832.759 Q57.3347 832.759 54.1634 828.176 Q50.9921 823.57 50.9921 814.843 Q50.9921 806.648 54.881 801.787 Q58.7699 796.903 65.3208 796.903 Q67.08 796.903 68.8624 797.25 Q70.6679 797.598 72.6124 798.292 Z" fill="#000000" fill-rule="nonzero" fill-opacity="1" /><path clip-path="url(#clip700)" d="M82.9133 826.209 L87.7975 826.209 L87.7975 832.088 L82.9133 832.088 L82.9133 826.209 Z" fill="#000000" fill-rule="nonzero" fill-opacity="1" /><path clip-path="url(#clip700)" d="M107.983 800.607 Q104.371 800.607 102.543 804.172 Q100.737 807.713 100.737 814.843 Q100.737 821.949 102.543 825.514 Q104.371 829.056 107.983 829.056 Q111.617 829.056 113.422 825.514 Q115.251 821.949 115.251 814.843 Q115.251 807.713 113.422 804.172 Q111.617 800.607 107.983 800.607 M107.983 796.903 Q113.793 796.903 116.848 801.51 Q119.927 806.093 119.927 814.843 Q119.927 823.57 116.848 828.176 Q113.793 832.759 107.983 832.759 Q102.172 832.759 99.0937 828.176 Q96.0382 823.57 96.0382 814.843 Q96.0382 806.093 99.0937 801.51 Q102.172 796.903 107.983 796.903 Z" fill="#000000" fill-rule="nonzero" fill-opacity="1" /><path clip-path="url(#clip700)" d="M64.3254 497.491 Q61.1773 497.491 59.3254 499.644 Q57.4967 501.796 57.4967 505.546 Q57.4967 509.273 59.3254 511.449 Q61.1773 513.602 64.3254 513.602 Q67.4735 513.602 69.3022 511.449 Q71.1541 509.273 71.1541 505.546 Q71.1541 501.796 69.3022 499.644 Q67.4735 497.491 64.3254 497.491 M73.6077 482.838 L73.6077 487.097 Q71.8485 486.264 70.0429 485.824 Q68.2606 485.385 66.5013 485.385 Q61.8717 485.385 59.418 488.509 Q56.9875 491.634 56.6402 497.954 Q58.006 495.94 60.0662 494.875 Q62.1263 493.787 64.6032 493.787 Q69.8115 493.787 72.8207 496.959 Q75.8531 500.107 75.8531 505.546 Q75.8531 510.87 72.705 514.088 Q69.5568 517.306 64.3254 517.306 Q58.33 517.306 55.1588 512.722 Q51.9875 508.116 51.9875 499.389 Q51.9875 491.195 55.8764 486.334 Q59.7652 481.449 66.3161 481.449 Q68.0754 481.449 69.8578 481.797 Q71.6633 482.144 73.6077 482.838 Z" fill="#000000" fill-rule="nonzero" fill-opacity="1" /><path clip-path="url(#clip700)" d="M83.9086 510.755 L88.7928 510.755 L88.7928 516.634 L83.9086 516.634 L83.9086 510.755 Z" fill="#000000" fill-rule="nonzero" fill-opacity="1" /><path clip-path="url(#clip700)" d="M99.0243 482.074 L117.381 482.074 L117.381 486.01 L103.307 486.01 L103.307 494.482 Q104.325 494.134 105.344 493.972 Q106.362 493.787 107.381 493.787 Q113.168 493.787 116.547 496.959 Q119.927 500.13 119.927 505.546 Q119.927 511.125 116.455 514.227 Q112.983 517.306 106.663 517.306 Q104.487 517.306 102.219 516.935 Q99.9733 516.565 97.566 515.824 L97.566 511.125 Q99.6493 512.259 101.871 512.815 Q104.094 513.37 106.571 513.37 Q110.575 513.37 112.913 511.264 Q115.251 509.158 115.251 505.546 Q115.251 501.935 112.913 499.829 Q110.575 497.722 106.571 497.722 Q104.696 497.722 102.821 498.139 Q100.969 498.556 99.0243 499.435 L99.0243 482.074 Z" fill="#000000" fill-rule="nonzero" fill-opacity="1" /><path clip-path="url(#clip700)" d="M51.5708 166.621 L73.7929 166.621 L73.7929 168.611 L61.2467 201.181 L56.3625 201.181 L68.168 170.556 L51.5708 170.556 L51.5708 166.621 Z" fill="#000000" fill-rule="nonzero" fill-opacity="1" /><path clip-path="url(#clip700)" d="M82.9133 195.301 L87.7975 195.301 L87.7975 201.181 L82.9133 201.181 L82.9133 195.301 Z" fill="#000000" fill-rule="nonzero" fill-opacity="1" /><path clip-path="url(#clip700)" d="M107.983 169.699 Q104.371 169.699 102.543 173.264 Q100.737 176.806 100.737 183.935 Q100.737 191.042 102.543 194.607 Q104.371 198.148 107.983 198.148 Q111.617 198.148 113.422 194.607 Q115.251 191.042 115.251 183.935 Q115.251 176.806 113.422 173.264 Q111.617 169.699 107.983 169.699 M107.983 165.996 Q113.793 165.996 116.848 170.602 Q119.927 175.185 119.927 183.935 Q119.927 192.662 116.848 197.269 Q113.793 201.852 107.983 201.852 Q102.172 201.852 99.0937 197.269 Q96.0382 192.662 96.0382 183.935 Q96.0382 175.185 99.0937 170.602 Q102.172 165.996 107.983 165.996 Z" fill="#000000" fill-rule="nonzero" fill-opacity="1" /><polyline clip-path="url(#clip702)" style="stroke:#009af9; stroke-linecap:round; stroke-linejoin:round; stroke-width:4; stroke-opacity:1; fill:none" points="218.101,1445.72 220.11,1445.72 222.118,1445.72 224.126,1445.72 226.134,1445.72 228.142,1445.72 230.151,1256.44 232.159,1270.64 234.167,1302.38 236.175,1302.38 238.184,1138.4 240.192,1138.4 242.2,1012.89 244.208,1014.48 246.216,1092.65 248.225,1092.65 250.233,907.782 252.241,907.782 254.249,831.146 256.257,884.498 258.266,884.498 260.274,829.575 262.282,867.896 264.29,972.637 266.299,1058.39 268.307,1128.6 270.315,1128.6 272.323,966.672 274.331,966.672 276.34,760.319 278.348,766.36 280.356,766.36 282.364,728.772 284.373,770.705 286.381,893.064 288.389,893.064 290.397,746.172 292.405,746.172 294.414,562.131 296.422,656.311 298.43,799.406 300.438,916.562 302.446,1012.48 304.455,1012.48 306.463,880.952 308.471,912.22 310.479,1008.93 312.488,1008.93 314.496,824.535 316.504,931.389 318.512,931.389 320.52,807.622 322.529,847.041 324.537,847.041 326.545,825.79 328.553,825.79 330.562,729.817 332.57,783.266 334.578,783.266 336.586,538.276 338.594,694.404 340.603,830.594 342.611,942.097 344.619,1033.39 346.627,1033.39 348.635,970.403 350.644,986.121 352.652,986.121 354.66,928.376 356.668,928.376 358.677,808.25 360.685,825.227 362.693,825.227 364.701,640.189 366.709,781.674 368.718,902.044 370.726,1000.6 372.734,1081.28 374.742,1081.28 376.751,895.997 378.759,990.665 380.767,1073.15 382.775,1140.69 384.783,1140.69 386.792,957.167 388.8,957.167 390.808,771.998 392.816,771.998 394.824,546.872 396.833,657.437 398.841,800.328 400.849,800.328 402.857,697.204 404.866,810.18 406.874,925.383 408.882,1019.7 410.89,1096.93 412.898,1160.15 414.907,1211.92 416.915,1211.92 418.923,977.743 420.931,977.743 422.94,803.859 424.948,856.497 426.956,856.497 428.964,674.41 430.972,674.41 432.981,625.11 434.989,690.265 436.997,690.265 439.005,626.266 441.013,714.63 443.022,847.153 445.03,847.153 447.038,606.03 449.046,745.083 451.055,745.083 453.063,634.321 455.071,766.452 457.079,889.582 459.087,889.582 461.096,739.447 463.104,823.698 465.112,823.698 467.12,754.667 469.128,754.667 471.137,624.359 473.145,636.13 475.153,782.883 477.161,782.883 479.17,705.656 481.178,716.548 483.186,848.723 485.194,956.94 487.202,1045.54 489.211,1118.08 491.219,1118.08 493.227,947.6 495.235,947.6 497.244,760.78 499.252,847.872 501.26,847.872 503.268,741.607 505.276,776.295 507.285,776.295 509.293,581.899 511.301,671.435 513.309,811.788 515.317,926.7 517.326,926.7 519.334,760.061 521.342,858.753 523.35,965.151 525.359,1052.26 527.367,1052.26 529.375,1027.59 531.383,1066.34 533.391,1066.34 535.4,909.894 537.408,909.894 539.416,810.561 541.424,846.406 543.433,955.042 545.441,955.042 547.449,750.719 549.457,750.719 551.465,577.706 553.474,577.706 555.482,575.226 557.49,576.014 559.498,733.664 561.506,862.737 563.515,968.413 565.523,1054.93 567.531,1054.93 569.539,973.628 571.548,1009.06 573.556,1009.06 575.564,879.405 577.572,908.745 579.58,1006.08 581.589,1006.08 583.597,891.323 585.605,891.323 587.613,651.206 589.622,651.206 591.63,568.312 593.638,648.078 595.646,792.665 597.654,792.665 599.663,755.998 601.671,791.325 603.679,909.946 605.687,909.946 607.695,853.366 609.704,888.331 611.712,989.368 613.72,1072.09 615.728,1072.09 617.737,888.726 619.745,982.363 621.753,1066.35 623.761,1066.35 625.769,880.587 627.778,884.511 629.786,986.24 631.794,986.24 633.802,891.006 635.811,891.006 637.819,881.95 639.827,897.397 641.835,897.397 643.843,730.358 645.852,752.096 647.86,877.828 649.868,877.828 651.876,766.777 653.884,766.777 655.893,672.152 657.901,675.4 659.909,815.034 661.917,929.357 663.926,929.357 665.934,743.824 667.942,743.824 669.95,648.215 671.958,686.734 673.967,824.314 675.975,936.955 677.983,1029.18 679.991,1029.18 682,943.172 684.008,990.346 686.016,1072.89 688.024,1140.47 690.032,1195.8 692.041,1195.8 694.049,1008.73 696.057,1084.77 698.065,1150.2 700.073,1203.77 702.082,1247.62 704.09,1283.53 706.098,1312.93 708.106,1337 710.115,1337 712.123,1213.53 714.131,1213.53 716.139,1046.97 718.147,1074.59 720.156,1141.86 722.164,1141.86 724.172,1046.36 726.18,1046.36 728.189,930.715 730.197,964.004 732.205,1051.32 734.213,1122.81 736.221,1181.35 738.23,1229.27 740.238,1268.5 742.246,1300.63 744.254,1326.93 746.262,1348.46 748.271,1348.46 750.279,1163.82 752.287,1163.82 754.295,1076.41 756.304,1077.6 758.312,1144.33 760.32,1198.96 762.328,1243.69 764.336,1280.31 766.345,1280.31 768.353,1093.38 770.361,1153.11 772.369,1153.11 774.378,968.206 776.386,1048.83 778.394,1120.78 780.402,1120.78 782.41,932.775 784.419,1024.11 786.427,1100.53 788.435,1100.53 790.443,910.684 792.451,910.788 794.46,1007.75 796.468,1087.14 798.476,1152.14 800.484,1205.36 802.493,1248.93 804.501,1284.6 806.509,1284.6 808.517,1096.53 810.525,1096.53 812.534,877.353 814.542,877.353 816.55,791.98 818.558,803.728 820.567,920.1 822.575,920.1 824.583,809.447 826.591,833.16 828.599,833.16 830.608,650.683 832.616,787.496 834.624,906.811 836.632,1004.5 838.64,1084.48 840.649,1149.96 842.657,1203.57 844.665,1247.46 846.673,1283.4 848.682,1312.82 850.69,1336.91 852.698,1356.64 854.706,1372.78 856.714,1386 858.723,1396.83 860.731,1396.83 862.739,1276.19 864.747,1289.17 866.756,1317.55 868.764,1340.78 870.772,1340.78 872.78,1160.45 874.788,1160.45 876.797,985.312 878.805,1012.18 880.813,1090.77 882.821,1155.11 884.829,1207.79 886.838,1207.79 888.846,1173.53 890.854,1192.14 892.862,1192.14 894.871,1164.93 896.879,1177.94 898.887,1177.94 900.895,1053.38 902.903,1053.38 904.912,859.635 906.92,878.139 908.928,981.024 910.936,1065.26 912.944,1134.22 914.953,1190.69 916.961,1236.92 918.969,1274.77 920.977,1274.77 922.986,1175.95 924.994,1182.75 927.002,1230.42 929.01,1230.42 931.018,1109.14 933.027,1109.14 935.035,943.293 937.043,993.295 939.051,1075.3 941.06,1075.3 943.068,952.368 945.076,953.68 947.084,1042.87 949.092,1115.89 951.101,1175.68 953.109,1175.68 955.117,989.54 957.125,1067.85 959.133,1136.34 961.142,1136.34 963.15,914.574 965.158,963.132 967.166,1050.61 969.175,1050.61 971.183,944.632 973.191,944.632 975.199,823.766 977.207,824.22 979.216,824.22 981.224,762.671 983.232,762.671 985.24,586.098 987.249,726.803 989.257,857.12 991.265,857.12 993.273,769.983 995.281,853.166 997.29,853.166 999.298,674.752 1001.31,802.721 1003.31,919.276 1005.32,919.276 1007.33,800.325 1009.34,909.956 1011.35,909.956 1013.36,859.207 1015.36,886.836 1017.37,886.836 1019.38,769.911 1021.39,769.911 1023.4,604.409 1025.4,604.409 1027.41,494.287 1029.42,608.78 1031.43,608.78 1033.44,516.547 1035.45,585.204 1037.45,741.188 1039.46,741.188 1041.47,676.319 1043.48,680.704 1045.49,680.704 1047.5,574.466 1049.5,645.546 1051.51,790.592 1053.52,790.592 1055.53,702.694 1057.54,702.694 1059.54,590.438 1061.55,601.459 1063.56,754.497 1065.57,754.497 1067.58,714.669 1069.59,761.736 1071.59,885.72 1073.6,987.23 1075.61,987.23 1077.62,788.056 1079.63,836.607 1081.63,947.02 1083.64,1037.42 1085.65,1111.43 1087.66,1172.03 1089.67,1172.03 1091.68,1124.73 1093.68,1166.82 1095.69,1217.37 1097.7,1217.37 1099.71,1121.71 1101.72,1139.52 1103.73,1139.52 1105.73,982.371 1107.74,1021.9 1109.75,1021.9 1111.76,991.61 1113.77,991.61 1115.77,852.149 1117.78,854.079 1119.79,854.079 1121.8,794.313 1123.81,909.378 1125.82,909.378 1127.82,802.112 1129.83,823.666 1131.84,936.425 1133.85,1028.74 1135.86,1104.33 1137.86,1166.21 1139.87,1166.21 1141.88,1015.57 1143.89,1015.57 1145.9,958.671 1147.91,976.246 1149.91,976.246 1151.92,844.241 1153.93,884.854 1155.94,986.521 1157.95,1069.76 1159.96,1137.91 1161.96,1193.7 1163.97,1239.39 1165.98,1239.39 1167.99,1118.1 1170,1118.1 1172,874.733 1174.01,953.353 1176.02,1042.6 1178.03,1115.68 1180.04,1115.68 1182.05,953.077 1184.05,953.077 1186.06,920.309 1188.07,947.031 1190.08,1037.43 1192.09,1037.43 1194.09,870.033 1196.1,870.033 1198.11,876.869 1200.12,885.575 1202.13,885.575 1204.14,731.004 1206.14,821.915 1208.15,821.915 1210.16,673.031 1212.17,673.031 1214.18,562.669 1216.19,584.763 1218.19,584.763 1220.2,471.693 1222.21,570.817 1224.22,570.817 1226.23,392.912 1228.23,392.912 1230.24,351.362 1232.25,389.778 1234.26,389.778 1236.27,411.397 1238.28,411.397 1240.28,243.044 1242.29,353.07 1244.3,353.07 1246.31,275.661 1248.32,275.661 1250.32,87.9763 1252.33,120.369 1254.34,360.614 1256.35,557.309 1258.36,718.35 1260.37,850.199 1262.37,958.148 1264.38,1046.53 1266.39,1046.53 1268.4,869.971 1270.41,869.971 1272.42,685.045 1274.42,717.1 1276.43,717.1 1278.44,551.105 1280.45,689.098 1282.46,689.098 1284.46,555.462 1286.47,658.988 1288.48,801.597 1290.49,801.597 1292.5,760.257 1294.51,799.376 1296.51,799.376 1298.52,675.993 1300.53,675.993 1302.54,500.858 1304.55,500.858 1306.56,398.835 1308.56,447.938 1310.57,628.805 1312.58,776.886 1314.59,776.886 1316.6,679.295 1318.6,718.545 1320.61,718.545 1322.62,542.838 1324.63,692.449 1326.64,692.449 1328.65,639.467 1330.65,639.799 1332.66,785.887 1334.67,785.887 1336.68,635.342 1338.69,635.342 1340.69,497.409 1342.7,565.108 1344.71,565.108 1346.72,530.044 1348.73,536.875 1350.74,536.875 1352.74,413.452 1354.75,597.997 1356.76,597.997 1358.77,687.491 1360.78,688.669 1362.79,825.898 1364.79,825.898 1366.8,639.238 1368.81,782.634 1370.82,782.634 1372.83,673.47 1374.83,673.47 1376.84,552.009 1378.85,552.009 1380.86,438.298 1382.87,438.298 1384.88,357.598 1386.88,400.036 1388.89,589.585 1390.9,744.775 1392.91,744.775 1394.92,583.146 1396.92,583.146 1398.93,537.477 1400.94,537.477 1402.95,434.007 1404.96,470.222 1406.97,647.049 1408.97,791.823 1410.98,910.353 1412.99,1007.4 1415,1007.4 1417.01,851.51 1419.02,919.113 1421.02,1014.57 1423.03,1014.57 1425.04,786.026 1427.05,786.026 1429.06,684.308 1431.06,760.463 1433.07,760.463 1435.08,677.515 1437.09,701.255 1439.1,836.203 1441.11,946.689 1443.11,1037.15 1445.12,1111.21 1447.13,1171.84 1449.14,1221.49 1451.15,1262.13 1453.15,1295.41 1455.16,1322.66 1457.17,1344.96 1459.18,1363.23 1461.19,1378.18 1463.2,1378.18 1465.2,1197.61 1467.21,1212.54 1469.22,1254.81 1471.23,1254.81 1473.24,1141.12 1475.25,1178.86 1477.25,1178.86 1479.26,1016.97 1481.27,1054.56 1483.28,1054.56 1485.29,880.416 1487.29,964.268 1489.3,1051.54 1491.31,1051.54 1493.32,875.399 1495.33,962.688 1497.34,962.688 1499.34,895.643 1501.35,932.525 1503.36,932.525 1505.37,780.096 1507.38,858.602 1509.39,965.028 1511.39,1052.16 1513.4,1052.16 1515.41,986.108 1517.42,1001.56 1519.43,1082.07 1521.43,1082.07 1523.44,917.153 1525.45,981.905 1527.46,1065.98 1529.47,1134.81 1531.48,1191.17 1533.48,1191.17 1535.49,1110.32 1537.5,1111.62 1539.51,1111.62 1541.52,1078.7 1543.52,1115.4 1545.53,1175.27 1547.54,1224.3 1549.55,1224.3 1551.56,1068.88 1553.57,1081.5 1555.57,1081.5 1557.58,962.022 1559.59,1042.27 1561.6,1042.27 1563.61,862.892 1565.62,956.546 1567.62,1045.22 1569.63,1045.22 1571.64,977.684 1573.65,996.783 1575.66,1078.16 1577.66,1078.16 1579.67,1042.1 1581.68,1042.1 1583.69,936.611 1585.7,971.497 1587.71,1057.46 1589.71,1057.46 1591.72,972.292 1593.73,1012.33 1595.74,1090.89 1597.75,1155.21 1599.75,1155.21 1601.76,1081.63 1603.77,1081.71 1605.78,1081.71 1607.79,889.5 1609.8,900.176 1611.8,900.176 1613.81,789.675 1615.82,817.951 1617.83,817.951 1619.84,775.598 1621.85,812.516 1623.85,927.296 1625.86,1021.27 1627.87,1021.27 1629.88,911.726 1631.89,990.685 1633.89,1073.17 1635.9,1073.17 1637.91,956.553 1639.92,956.553 1641.93,777.526 1643.94,777.526 1645.94,615.039 1647.95,702.985 1649.96,837.619 1651.97,837.619 1653.98,864.703 1655.98,887.201 1657.99,887.201 1660,793.337 1662.01,801.554 1664.02,918.321 1666.03,1013.92 1668.03,1092.19 1670.04,1092.19 1672.05,998.45 1674.06,1042.53 1676.07,1115.61 1678.08,1175.45 1680.08,1224.44 1682.09,1224.44 1684.1,1102.12 1686.11,1159.41 1688.12,1159.41 1690.12,983.337 1692.13,1048.85 1694.14,1120.79 1696.15,1179.69 1698.16,1179.69 1700.17,999.677 1702.17,999.677 1704.18,875.532 1706.19,879.36 1708.2,879.36 1710.21,858.938 1712.21,926.16 1714.22,1020.34 1716.23,1097.45 1718.24,1160.58 1720.25,1212.26 1722.26,1254.58 1724.26,1289.23 1726.27,1289.23 1728.28,1178.17 1730.29,1203.23 1732.3,1247.19 1734.31,1247.19 1736.31,1058.48 1738.32,1127.77 1740.33,1127.77 1742.34,966.294 1744.35,1015.59 1746.35,1093.56 1748.36,1157.39 1750.37,1209.66 1752.38,1252.45 1754.39,1287.48 1756.4,1316.16 1758.4,1316.16 1760.41,1259.41 1762.42,1285.34 1764.43,1314.41 1766.44,1338.21 1768.45,1357.7 1770.45,1357.7 1772.46,1183.44 1774.47,1186.82 1776.48,1233.75 1778.49,1272.17 1780.49,1303.63 1782.5,1329.39 1784.51,1350.47 1786.52,1367.74 1788.53,1367.74 1790.54,1247.58 1792.54,1269.91 1794.55,1301.78 1796.56,1327.87 1798.57,1349.23 1800.58,1366.72 1802.58,1366.72 1804.59,1119.82 1806.6,1159.09 1808.61,1159.09 1810.62,983.886 1812.63,983.886 1814.63,767.418 1816.64,812.491 1818.65,812.491 1820.66,732.715 1822.67,732.715 1824.68,559.312 1826.68,644.773 1828.69,789.96 1830.7,789.96 1832.71,622.489 1834.72,671.485 1836.72,811.829 1838.73,811.829 1840.74,726.001 1842.75,726.001 1844.76,494.268 1846.77,494.268 1848.77,323.202 1850.78,415.517 1852.79,602.261 1854.8,602.261 1856.81,417.955 1858.81,530.401 1860.82,696.319 1862.83,832.162 1864.84,943.38 1866.85,943.38 1868.86,763.539 1870.86,763.539 1872.87,674.669 1874.88,691.327 1876.89,828.074 1878.9,940.034 1880.91,1031.7 1882.91,1031.7 1884.92,860.849 1886.93,944.567 1888.94,1035.41 1890.95,1109.79 1892.95,1109.79 1894.96,926.075 1896.97,1013.11 1898.98,1091.53 1900.99,1155.73 1903,1155.73 1905,912.205 1907.01,912.205 1909.02,866.689 1911.03,869.645 1913.04,974.069 1915.04,974.069 1917.05,790.43 1919.06,902.728 1921.07,1001.16 1923.08,1081.74 1925.09,1081.74 1927.09,977.889 1929.1,1037.66 1931.11,1037.66 1933.12,941.484 1935.13,1000.12 1937.14,1080.89 1939.14,1147.02 1941.15,1201.17 1943.16,1201.17 1945.17,1105.74 1947.18,1127.32 1949.18,1185.04 1951.19,1232.29 1953.2,1270.98 1955.21,1270.98 1957.22,1032.54 1959.23,1078.15 1961.23,1144.78 1963.24,1199.33 1965.25,1243.99 1967.26,1280.56 1969.27,1280.56 1971.27,1096.67 1973.28,1096.67 1975.29,928.414 1977.3,979.866 1979.31,979.866 1981.32,839.139 1983.32,891.32 1985.33,991.815 1987.34,1074.09 1989.35,1141.46 1991.36,1196.61 1993.37,1196.61 1995.37,1141.99 1997.38,1188.29 1999.39,1188.29 2001.4,1011.51 2003.41,1072.09 2005.41,1072.09 2007.42,820.098 2009.43,820.098 2011.44,760.708 2013.45,817.226 2015.46,931.152 2017.46,1024.43 2019.47,1100.79 2021.48,1163.32 2023.49,1163.32 2025.5,1011.34 2027.51,1035.96 2029.51,1110.24 2031.52,1171.05 2033.53,1220.84 2035.54,1261.6 2037.55,1294.98 2039.55,1294.98 2041.56,1172.55 2043.57,1216.35 2045.58,1216.35 2047.59,1042.68 2049.6,1091.66 2051.6,1155.84 2053.61,1208.39 2055.62,1251.41 2057.63,1286.63 2059.64,1315.47 2061.64,1339.08 2063.65,1358.41 2065.66,1374.23 2067.67,1374.23 2069.68,1259.87 2071.69,1263.42 2073.69,1296.47 2075.7,1296.47 2077.71,1188.27 2079.72,1206.06 2081.73,1206.06 2083.74,1054.76 2085.74,1065.36 2087.75,1134.3 2089.76,1190.75 2091.77,1190.75 2093.78,1097.47 2095.78,1118.35 2097.79,1177.7 2099.8,1226.28 2101.81,1226.28 2103.82,1111.24 2105.83,1157.22 2107.83,1157.22 2109.84,993.957 2111.85,1039.2 2113.86,1112.89 2115.87,1112.89 2117.87,1040.08 2119.88,1050.18 2121.89,1121.88 2123.9,1180.58 2125.91,1228.64 2127.92,1228.64 2129.92,1139.93 2131.93,1143.13 2133.94,1197.98 2135.95,1242.88 2137.96,1279.65 2139.97,1309.75 2141.97,1334.4 2143.98,1334.4 2145.99,1153.88 2148,1153.88 2150.01,1055.93 2152.01,1062.25 2154.02,1131.76 2156.03,1131.76 2158.04,949.856 2160.05,949.856 2162.06,788.836 2164.06,788.836 2166.07,543.941 2168.08,543.941 2170.09,419.107 2172.1,451.461 2174.1,451.461 2176.11,318.898 2178.12,318.898 2180.13,131.478 2182.14,234.837 2184.15,234.837 2186.15,156.95 2188.16,283.67 2190.17,494.313 2192.18,666.773 2194.19,807.972 2196.2,923.575 2198.2,923.575 2200.21,737.323 2202.22,862.358 2204.23,862.358 2206.24,799.779 2208.24,852.153 2210.25,959.747 2212.26,959.747 2214.27,882.115 2216.28,882.115 2218.29,786.624 2220.29,811.679 2222.3,926.61 2224.31,1020.71 2226.32,1020.71 2228.33,898.404 2230.33,913.801 2232.34,1010.22 2234.35,1010.22 2236.36,785.364 2238.37,868.616 2240.38,973.226 2242.38,973.226 2244.39,833.642 2246.4,833.642 2248.41,783.504 2250.42,826.727 2252.43,938.931 2254.43,1030.8 2256.44,1106.01 2258.45,1167.59 2260.46,1218 2262.47,1259.28 2264.47,1293.08 2266.48,1320.74 2268.49,1343.4 2270.5,1343.4 2272.51,1165.44 2274.52,1187.72 2276.52,1187.72 2278.53,1018.05 2280.54,1066.78 2282.55,1066.78 2284.56,896.961 2286.57,972.122 2288.57,972.122 2290.58,853.892 "/>
<path clip-path="url(#clip700)" d="M229.155 198.898 L501.268 198.898 L501.268 95.2176 L229.155 95.2176  Z" fill="#ffffff" fill-rule="evenodd" fill-opacity="1"/>
<polyline clip-path="url(#clip700)" style="stroke:#000000; stroke-linecap:round; stroke-linejoin:round; stroke-width:4; stroke-opacity:1; fill:none" points="229.155,198.898 501.268,198.898 501.268,95.2176 229.155,95.2176 229.155,198.898 "/>
<polyline clip-path="url(#clip700)" style="stroke:#009af9; stroke-linecap:round; stroke-linejoin:round; stroke-width:4; stroke-opacity:1; fill:none" points="253.564,147.058 400.019,147.058 "/>
<path clip-path="url(#clip700)" d="M438.271 166.745 Q436.465 171.375 434.752 172.787 Q433.039 174.199 430.169 174.199 L426.766 174.199 L426.766 170.634 L429.266 170.634 Q431.025 170.634 431.998 169.8 Q432.97 168.967 434.15 165.865 L434.914 163.921 L424.428 138.412 L428.942 138.412 L437.044 158.689 L445.146 138.412 L449.66 138.412 L438.271 166.745 Z" fill="#000000" fill-rule="nonzero" fill-opacity="1" /><path clip-path="url(#clip700)" d="M456.951 160.402 L464.59 160.402 L464.59 134.037 L456.28 135.703 L456.28 131.444 L464.544 129.778 L469.22 129.778 L469.22 160.402 L476.859 160.402 L476.859 164.338 L456.951 164.338 L456.951 160.402 Z" fill="#000000" fill-rule="nonzero" fill-opacity="1" /></svg>
