<?xml version="1.0" encoding="utf-8"?>
<svg xmlns="http://www.w3.org/2000/svg" xmlns:xlink="http://www.w3.org/1999/xlink" width="600" height="400" viewBox="0 0 2400 1600">
<defs>
  <clipPath id="clip400">
    <rect x="0" y="0" width="2400" height="1600"/>
  </clipPath>
</defs>
<path clip-path="url(#clip400)" d="M0 1600 L2400 1600 L2400 0 L0 0  Z" fill="#ffffff" fill-rule="evenodd" fill-opacity="1"/>
<defs>
  <clipPath id="clip401">
    <rect x="480" y="0" width="1681" height="1600"/>
  </clipPath>
</defs>
<path clip-path="url(#clip400)" d="M138.959 1423.18 L2352.76 1423.18 L2352.76 47.2441 L138.959 47.2441  Z" fill="#ffffff" fill-rule="evenodd" fill-opacity="1"/>
<defs>
  <clipPath id="clip402">
    <rect x="138" y="47" width="2215" height="1377"/>
  </clipPath>
</defs>
<polyline clip-path="url(#clip402)" style="stroke:#000000; stroke-linecap:round; stroke-linejoin:round; stroke-width:2; stroke-opacity:0.1; fill:none" points="138.959,1423.18 138.959,47.2441 "/>
<polyline clip-path="url(#clip402)" style="stroke:#000000; stroke-linecap:round; stroke-linejoin:round; stroke-width:2; stroke-opacity:0.1; fill:none" points="581.719,1423.18 581.719,47.2441 "/>
<polyline clip-path="url(#clip402)" style="stroke:#000000; stroke-linecap:round; stroke-linejoin:round; stroke-width:2; stroke-opacity:0.1; fill:none" points="1024.48,1423.18 1024.48,47.2441 "/>
<polyline clip-path="url(#clip402)" style="stroke:#000000; stroke-linecap:round; stroke-linejoin:round; stroke-width:2; stroke-opacity:0.1; fill:none" points="1467.24,1423.18 1467.24,47.2441 "/>
<polyline clip-path="url(#clip402)" style="stroke:#000000; stroke-linecap:round; stroke-linejoin:round; stroke-width:2; stroke-opacity:0.1; fill:none" points="1910,1423.18 1910,47.2441 "/>
<polyline clip-path="url(#clip402)" style="stroke:#000000; stroke-linecap:round; stroke-linejoin:round; stroke-width:2; stroke-opacity:0.1; fill:none" points="2352.76,1423.18 2352.76,47.2441 "/>
<polyline clip-path="url(#clip402)" style="stroke:#000000; stroke-linecap:round; stroke-linejoin:round; stroke-width:2; stroke-opacity:0.1; fill:none" points="138.959,1384.24 2352.76,1384.24 "/>
<polyline clip-path="url(#clip402)" style="stroke:#000000; stroke-linecap:round; stroke-linejoin:round; stroke-width:2; stroke-opacity:0.1; fill:none" points="138.959,1023.67 2352.76,1023.67 "/>
<polyline clip-path="url(#clip402)" style="stroke:#000000; stroke-linecap:round; stroke-linejoin:round; stroke-width:2; stroke-opacity:0.1; fill:none" points="138.959,663.098 2352.76,663.098 "/>
<polyline clip-path="url(#clip402)" style="stroke:#000000; stroke-linecap:round; stroke-linejoin:round; stroke-width:2; stroke-opacity:0.1; fill:none" points="138.959,302.528 2352.76,302.528 "/>
<polyline clip-path="url(#clip400)" style="stroke:#000000; stroke-linecap:round; stroke-linejoin:round; stroke-width:4; stroke-opacity:1; fill:none" points="138.959,1423.18 2352.76,1423.18 "/>
<polyline clip-path="url(#clip400)" style="stroke:#000000; stroke-linecap:round; stroke-linejoin:round; stroke-width:4; stroke-opacity:1; fill:none" points="138.959,1423.18 138.959,1404.28 "/>
<polyline clip-path="url(#clip400)" style="stroke:#000000; stroke-linecap:round; stroke-linejoin:round; stroke-width:4; stroke-opacity:1; fill:none" points="581.719,1423.18 581.719,1404.28 "/>
<polyline clip-path="url(#clip400)" style="stroke:#000000; stroke-linecap:round; stroke-linejoin:round; stroke-width:4; stroke-opacity:1; fill:none" points="1024.48,1423.18 1024.48,1404.28 "/>
<polyline clip-path="url(#clip400)" style="stroke:#000000; stroke-linecap:round; stroke-linejoin:round; stroke-width:4; stroke-opacity:1; fill:none" points="1467.24,1423.18 1467.24,1404.28 "/>
<polyline clip-path="url(#clip400)" style="stroke:#000000; stroke-linecap:round; stroke-linejoin:round; stroke-width:4; stroke-opacity:1; fill:none" points="1910,1423.18 1910,1404.28 "/>
<polyline clip-path="url(#clip400)" style="stroke:#000000; stroke-linecap:round; stroke-linejoin:round; stroke-width:4; stroke-opacity:1; fill:none" points="2352.76,1423.18 2352.76,1404.28 "/>
<path clip-path="url(#clip400)" d="M138.959 1454.1 Q135.348 1454.1 133.52 1457.66 Q131.714 1461.2 131.714 1468.33 Q131.714 1475.44 133.52 1479.01 Q135.348 1482.55 138.959 1482.55 Q142.594 1482.55 144.399 1479.01 Q146.228 1475.44 146.228 1468.33 Q146.228 1461.2 144.399 1457.66 Q142.594 1454.1 138.959 1454.1 M138.959 1450.39 Q144.77 1450.39 147.825 1455 Q150.904 1459.58 150.904 1468.33 Q150.904 1477.06 147.825 1481.67 Q144.77 1486.25 138.959 1486.25 Q133.149 1486.25 130.071 1481.67 Q127.015 1477.06 127.015 1468.33 Q127.015 1459.58 130.071 1455 Q133.149 1450.39 138.959 1450.39 Z" fill="#000000" fill-rule="nonzero" fill-opacity="1" /><path clip-path="url(#clip400)" d="M576.372 1481.64 L592.691 1481.64 L592.691 1485.58 L570.747 1485.58 L570.747 1481.64 Q573.409 1478.89 577.992 1474.26 Q582.598 1469.61 583.779 1468.27 Q586.024 1465.74 586.904 1464.01 Q587.807 1462.25 587.807 1460.56 Q587.807 1457.8 585.862 1456.07 Q583.941 1454.33 580.839 1454.33 Q578.64 1454.33 576.186 1455.09 Q573.756 1455.86 570.978 1457.41 L570.978 1452.69 Q573.802 1451.55 576.256 1450.97 Q578.709 1450.39 580.747 1450.39 Q586.117 1450.39 589.311 1453.08 Q592.506 1455.77 592.506 1460.26 Q592.506 1462.39 591.696 1464.31 Q590.908 1466.2 588.802 1468.8 Q588.223 1469.47 585.121 1472.69 Q582.02 1475.88 576.372 1481.64 Z" fill="#000000" fill-rule="nonzero" fill-opacity="1" /><path clip-path="url(#clip400)" d="M1027.49 1455.09 L1015.68 1473.54 L1027.49 1473.54 L1027.49 1455.09 M1026.26 1451.02 L1032.14 1451.02 L1032.14 1473.54 L1037.07 1473.54 L1037.07 1477.43 L1032.14 1477.43 L1032.14 1485.58 L1027.49 1485.58 L1027.49 1477.43 L1011.89 1477.43 L1011.89 1472.92 L1026.26 1451.02 Z" fill="#000000" fill-rule="nonzero" fill-opacity="1" /><path clip-path="url(#clip400)" d="M1467.64 1466.44 Q1464.49 1466.44 1462.64 1468.59 Q1460.81 1470.74 1460.81 1474.49 Q1460.81 1478.22 1462.64 1480.39 Q1464.49 1482.55 1467.64 1482.55 Q1470.79 1482.55 1472.62 1480.39 Q1474.47 1478.22 1474.47 1474.49 Q1474.47 1470.74 1472.62 1468.59 Q1470.79 1466.44 1467.64 1466.44 M1476.92 1451.78 L1476.92 1456.04 Q1475.17 1455.21 1473.36 1454.77 Q1471.58 1454.33 1469.82 1454.33 Q1465.19 1454.33 1462.74 1457.45 Q1460.3 1460.58 1459.96 1466.9 Q1461.32 1464.89 1463.38 1463.82 Q1465.44 1462.73 1467.92 1462.73 Q1473.13 1462.73 1476.14 1465.9 Q1479.17 1469.05 1479.17 1474.49 Q1479.17 1479.82 1476.02 1483.03 Q1472.87 1486.25 1467.64 1486.25 Q1461.65 1486.25 1458.48 1481.67 Q1455.3 1477.06 1455.3 1468.33 Q1455.3 1460.14 1459.19 1455.28 Q1463.08 1450.39 1469.63 1450.39 Q1471.39 1450.39 1473.17 1450.74 Q1474.98 1451.09 1476.92 1451.78 Z" fill="#000000" fill-rule="nonzero" fill-opacity="1" /><path clip-path="url(#clip400)" d="M1910 1469.17 Q1906.66 1469.17 1904.74 1470.95 Q1902.84 1472.73 1902.84 1475.86 Q1902.84 1478.98 1904.74 1480.77 Q1906.66 1482.55 1910 1482.55 Q1913.33 1482.55 1915.25 1480.77 Q1917.17 1478.96 1917.17 1475.86 Q1917.17 1472.73 1915.25 1470.95 Q1913.35 1469.17 1910 1469.17 M1905.32 1467.18 Q1902.31 1466.44 1900.62 1464.38 Q1898.96 1462.32 1898.96 1459.35 Q1898.96 1455.21 1901.89 1452.8 Q1904.86 1450.39 1910 1450.39 Q1915.16 1450.39 1918.1 1452.8 Q1921.04 1455.21 1921.04 1459.35 Q1921.04 1462.32 1919.35 1464.38 Q1917.68 1466.44 1914.7 1467.18 Q1918.08 1467.96 1919.95 1470.26 Q1921.85 1472.55 1921.85 1475.86 Q1921.85 1480.88 1918.77 1483.57 Q1915.71 1486.25 1910 1486.25 Q1904.28 1486.25 1901.2 1483.57 Q1898.14 1480.88 1898.14 1475.86 Q1898.14 1472.55 1900.04 1470.26 Q1901.94 1467.96 1905.32 1467.18 M1903.61 1459.79 Q1903.61 1462.48 1905.27 1463.98 Q1906.96 1465.49 1910 1465.49 Q1913.01 1465.49 1914.7 1463.98 Q1916.41 1462.48 1916.41 1459.79 Q1916.41 1457.11 1914.7 1455.6 Q1913.01 1454.1 1910 1454.1 Q1906.96 1454.1 1905.27 1455.6 Q1903.61 1457.11 1903.61 1459.79 Z" fill="#000000" fill-rule="nonzero" fill-opacity="1" /><path clip-path="url(#clip400)" d="M2327.44 1481.64 L2335.08 1481.64 L2335.08 1455.28 L2326.77 1456.95 L2326.77 1452.69 L2335.04 1451.02 L2339.71 1451.02 L2339.71 1481.64 L2347.35 1481.64 L2347.35 1485.58 L2327.44 1485.58 L2327.44 1481.64 Z" fill="#000000" fill-rule="nonzero" fill-opacity="1" /><path clip-path="url(#clip400)" d="M2366.8 1454.1 Q2363.18 1454.1 2361.36 1457.66 Q2359.55 1461.2 2359.55 1468.33 Q2359.55 1475.44 2361.36 1479.01 Q2363.18 1482.55 2366.8 1482.55 Q2370.43 1482.55 2372.23 1479.01 Q2374.06 1475.44 2374.06 1468.33 Q2374.06 1461.2 2372.23 1457.66 Q2370.43 1454.1 2366.8 1454.1 M2366.8 1450.39 Q2372.61 1450.39 2375.66 1455 Q2378.74 1459.58 2378.74 1468.33 Q2378.74 1477.06 2375.66 1481.67 Q2372.61 1486.25 2366.8 1486.25 Q2360.99 1486.25 2357.91 1481.67 Q2354.85 1477.06 2354.85 1468.33 Q2354.85 1459.58 2357.91 1455 Q2360.99 1450.39 2366.8 1450.39 Z" fill="#000000" fill-rule="nonzero" fill-opacity="1" /><path clip-path="url(#clip400)" d="M1244.92 1522.27 L1244.92 1532.4 L1256.98 1532.4 L1256.98 1536.95 L1244.92 1536.95 L1244.92 1556.3 Q1244.92 1560.66 1246.1 1561.9 Q1247.31 1563.14 1250.97 1563.14 L1256.98 1563.14 L1256.98 1568.04 L1250.97 1568.04 Q1244.19 1568.04 1241.61 1565.53 Q1239.03 1562.98 1239.03 1556.3 L1239.03 1536.95 L1234.73 1536.95 L1234.73 1532.4 L1239.03 1532.4 L1239.03 1522.27 L1244.92 1522.27 Z" fill="#000000" fill-rule="nonzero" fill-opacity="1" /><polyline clip-path="url(#clip400)" style="stroke:#000000; stroke-linecap:round; stroke-linejoin:round; stroke-width:4; stroke-opacity:1; fill:none" points="138.959,1423.18 138.959,47.2441 "/>
<polyline clip-path="url(#clip400)" style="stroke:#000000; stroke-linecap:round; stroke-linejoin:round; stroke-width:4; stroke-opacity:1; fill:none" points="138.959,1384.24 157.857,1384.24 "/>
<polyline clip-path="url(#clip400)" style="stroke:#000000; stroke-linecap:round; stroke-linejoin:round; stroke-width:4; stroke-opacity:1; fill:none" points="138.959,1023.67 157.857,1023.67 "/>
<polyline clip-path="url(#clip400)" style="stroke:#000000; stroke-linecap:round; stroke-linejoin:round; stroke-width:4; stroke-opacity:1; fill:none" points="138.959,663.098 157.857,663.098 "/>
<polyline clip-path="url(#clip400)" style="stroke:#000000; stroke-linecap:round; stroke-linejoin:round; stroke-width:4; stroke-opacity:1; fill:none" points="138.959,302.528 157.857,302.528 "/>
<path clip-path="url(#clip400)" d="M91.0151 1370.04 Q87.404 1370.04 85.5753 1373.6 Q83.7697 1377.14 83.7697 1384.27 Q83.7697 1391.38 85.5753 1394.94 Q87.404 1398.49 91.0151 1398.49 Q94.6493 1398.49 96.4548 1394.94 Q98.2835 1391.38 98.2835 1384.27 Q98.2835 1377.14 96.4548 1373.6 Q94.6493 1370.04 91.0151 1370.04 M91.0151 1366.33 Q96.8252 1366.33 99.8808 1370.94 Q102.959 1375.52 102.959 1384.27 Q102.959 1393 99.8808 1397.61 Q96.8252 1402.19 91.0151 1402.19 Q85.2049 1402.19 82.1262 1397.61 Q79.0707 1393 79.0707 1384.27 Q79.0707 1375.52 82.1262 1370.94 Q85.2049 1366.33 91.0151 1366.33 Z" fill="#000000" fill-rule="nonzero" fill-opacity="1" /><path clip-path="url(#clip400)" d="M82.0568 1006.39 L100.413 1006.39 L100.413 1010.32 L86.3392 1010.32 L86.3392 1018.8 Q87.3577 1018.45 88.3762 1018.29 Q89.3947 1018.1 90.4132 1018.1 Q96.2002 1018.1 99.5798 1021.27 Q102.959 1024.44 102.959 1029.86 Q102.959 1035.44 99.4872 1038.54 Q96.015 1041.62 89.6956 1041.62 Q87.5197 1041.62 85.2512 1041.25 Q83.0058 1040.88 80.5984 1040.14 L80.5984 1035.44 Q82.6818 1036.57 84.904 1037.13 Q87.1262 1037.68 89.603 1037.68 Q93.6076 1037.68 95.9456 1035.58 Q98.2835 1033.47 98.2835 1029.86 Q98.2835 1026.25 95.9456 1024.14 Q93.6076 1022.04 89.603 1022.04 Q87.728 1022.04 85.8531 1022.45 Q84.0012 1022.87 82.0568 1023.75 L82.0568 1006.39 Z" fill="#000000" fill-rule="nonzero" fill-opacity="1" /><path clip-path="url(#clip400)" d="M51.6634 676.443 L59.3023 676.443 L59.3023 650.077 L50.9921 651.744 L50.9921 647.485 L59.256 645.818 L63.9319 645.818 L63.9319 676.443 L71.5707 676.443 L71.5707 680.378 L51.6634 680.378 L51.6634 676.443 Z" fill="#000000" fill-rule="nonzero" fill-opacity="1" /><path clip-path="url(#clip400)" d="M91.0151 648.897 Q87.404 648.897 85.5753 652.461 Q83.7697 656.003 83.7697 663.133 Q83.7697 670.239 85.5753 673.804 Q87.404 677.346 91.0151 677.346 Q94.6493 677.346 96.4548 673.804 Q98.2835 670.239 98.2835 663.133 Q98.2835 656.003 96.4548 652.461 Q94.6493 648.897 91.0151 648.897 M91.0151 645.193 Q96.8252 645.193 99.8808 649.799 Q102.959 654.383 102.959 663.133 Q102.959 671.859 99.8808 676.466 Q96.8252 681.049 91.0151 681.049 Q85.2049 681.049 82.1262 676.466 Q79.0707 671.859 79.0707 663.133 Q79.0707 654.383 82.1262 649.799 Q85.2049 645.193 91.0151 645.193 Z" fill="#000000" fill-rule="nonzero" fill-opacity="1" /><path clip-path="url(#clip400)" d="M52.6588 315.873 L60.2976 315.873 L60.2976 289.507 L51.9875 291.174 L51.9875 286.914 L60.2513 285.248 L64.9272 285.248 L64.9272 315.873 L72.5661 315.873 L72.5661 319.808 L52.6588 319.808 L52.6588 315.873 Z" fill="#000000" fill-rule="nonzero" fill-opacity="1" /><path clip-path="url(#clip400)" d="M82.0568 285.248 L100.413 285.248 L100.413 289.183 L86.3392 289.183 L86.3392 297.655 Q87.3577 297.308 88.3762 297.146 Q89.3947 296.961 90.4132 296.961 Q96.2002 296.961 99.5798 300.132 Q102.959 303.303 102.959 308.72 Q102.959 314.299 99.4872 317.4 Q96.015 320.479 89.6956 320.479 Q87.5197 320.479 85.2512 320.109 Q83.0058 319.738 80.5984 318.998 L80.5984 314.299 Q82.6818 315.433 84.904 315.988 Q87.1262 316.544 89.603 316.544 Q93.6076 316.544 95.9456 314.437 Q98.2835 312.331 98.2835 308.72 Q98.2835 305.109 95.9456 303.002 Q93.6076 300.896 89.603 300.896 Q87.728 300.896 85.8531 301.312 Q84.0012 301.729 82.0568 302.609 L82.0568 285.248 Z" fill="#000000" fill-rule="nonzero" fill-opacity="1" /><polyline clip-path="url(#clip402)" style="stroke:#009af9; stroke-linecap:round; stroke-linejoin:round; stroke-width:8; stroke-opacity:1; fill:none" points="138.959,1384.24 139.882,1384.24 140.805,1384.24 141.728,1384.24 142.651,1384.24 143.573,1384.24 144.496,1384.24 145.419,1384.24 146.342,1384.24 147.265,1384.24 148.187,1384.24 149.11,1384.24 150.033,1384.24 150.956,1384.24 151.879,1384.24 152.801,1384.24 153.724,1384.24 154.647,1384.24 155.57,1384.24 156.493,1384.24 157.415,1384.24 158.338,1384.24 159.261,1384.24 160.184,1384.24 161.107,1384.24 162.029,1384.24 162.952,1384.24 163.875,1384.24 164.798,1384.24 165.721,1384.24 166.643,1384.24 167.566,1384.24 168.489,1384.24 169.412,1384.24 170.335,1384.24 171.257,1384.24 172.18,1384.24 173.103,1384.24 174.026,1384.24 174.949,1384.24 175.871,1384.24 176.794,1384.24 177.717,1384.24 178.64,1384.24 179.563,1384.24 180.485,1384.24 181.408,1384.24 182.331,1312.12 183.254,1312.12 184.177,1312.12 185.099,1312.12 186.022,1312.12 186.945,1312.12 187.868,1312.12 188.791,1312.12 189.713,1312.12 190.636,1312.12 191.559,1312.12 192.482,1312.12 193.405,1312.12 194.327,1312.12 195.25,1312.12 196.173,1312.12 197.096,1312.12 198.019,1312.12 198.941,1312.12 199.864,1312.12 200.787,1312.12 201.71,1312.12 202.633,1312.12 203.555,1312.12 204.478,1312.12 205.401,1312.12 206.324,1312.12 207.247,1312.12 208.169,1312.12 209.092,1312.12 210.015,1312.12 210.938,1312.12 211.861,1312.12 212.783,1312.12 213.706,1312.12 214.629,1312.12 215.552,1312.12 216.475,1312.12 217.397,1312.12 218.32,1312.12 219.243,1312.12 220.166,1312.12 221.089,1312.12 222.011,1312.12 222.934,1312.12 223.857,1312.12 224.78,1312.12 225.703,1312.12 226.625,1312.12 227.548,1312.12 228.471,1312.12 229.394,1312.12 230.317,1312.12 231.239,1312.12 232.162,1312.12 233.085,1312.12 234.008,1312.12 234.931,1312.12 235.853,1312.12 236.776,1312.12 237.699,1312.12 238.622,1312.12 239.545,1312.12 240.467,1312.12 241.39,1312.12 242.313,1312.12 243.236,1312.12 244.159,1312.12 245.081,1312.12 246.004,1312.12 246.927,1312.12 247.85,1312.12 248.773,1312.12 249.695,1312.12 250.618,1312.12 251.541,1312.12 252.464,1312.12 253.387,1312.12 254.309,1312.12 255.232,1312.12 256.155,1312.12 257.078,1312.12 258.001,1312.12 258.923,1312.12 259.846,1312.12 260.769,1312.12 261.692,1312.12 262.615,1312.12 263.537,1312.12 264.46,1312.12 265.383,1312.12 266.306,1312.12 267.229,1312.12 268.151,1312.12 269.074,1312.12 269.997,1312.12 270.92,1312.12 271.843,1312.12 272.765,1312.12 273.688,1312.12 274.611,1312.12 275.534,1312.12 276.457,1312.12 277.379,1312.12 278.302,1312.12 279.225,1312.12 280.148,1312.12 281.071,1312.12 281.993,1312.12 282.916,1312.12 283.839,1312.12 284.762,1312.12 285.685,1312.12 286.607,1312.12 287.53,1312.12 288.453,1312.12 289.376,1312.12 290.299,1312.12 291.221,1312.12 292.144,1312.12 293.067,1312.12 293.99,1312.12 294.913,1312.12 295.835,1312.12 296.758,1312.12 297.681,1312.12 298.604,1312.12 299.527,1312.12 300.449,1312.12 301.372,1312.12 302.295,1312.12 303.218,1312.12 304.141,1312.12 305.063,1312.12 305.986,1312.12 306.909,1312.12 307.832,1312.12 308.755,1312.12 309.677,1312.12 310.6,1312.12 311.523,1312.12 312.446,1312.12 313.369,1312.12 314.291,1312.12 315.214,1312.12 316.137,1312.12 317.06,1312.12 317.983,1312.12 318.905,1312.12 319.828,1312.12 320.751,1312.12 321.674,1312.12 322.597,1312.12 323.519,1312.12 324.442,1312.12 325.365,1312.12 326.288,1312.12 327.211,1312.12 328.133,1312.12 329.056,1312.12 329.979,1312.12 330.902,1312.12 331.825,1312.12 332.747,1312.12 333.67,1312.12 334.593,1312.12 335.516,1312.12 336.439,1312.12 337.361,1312.12 338.284,1312.12 339.207,1312.12 340.13,1312.12 341.053,1312.12 341.975,1312.12 342.898,1312.12 343.821,1312.12 344.744,1312.12 345.667,1312.12 346.589,1312.12 347.512,1312.12 348.435,1312.12 349.358,1312.12 350.281,1312.12 351.203,1312.12 352.126,1312.12 353.049,1312.12 353.972,1312.12 354.895,1312.12 355.817,1312.12 356.74,1312.12 357.663,1312.12 358.586,1312.12 359.509,1312.12 360.431,1312.12 361.354,1312.12 362.277,1312.12 363.2,1312.12 364.123,1312.12 365.045,1312.12 365.968,1312.12 366.891,1312.12 367.814,1312.12 368.737,1312.12 369.659,1312.12 370.582,1312.12 371.505,1312.12 372.428,1312.12 373.351,1312.12 374.273,1312.12 375.196,1312.12 376.119,1312.12 377.042,1312.12 377.965,1312.12 378.887,1312.12 379.81,1312.12 380.733,1312.12 381.656,1312.12 382.579,1312.12 383.501,1312.12 384.424,1312.12 385.347,1312.12 386.27,1312.12 387.193,1312.12 388.115,1312.12 389.038,1312.12 389.961,1312.12 390.884,1312.12 391.807,1312.12 392.729,1312.12 393.652,1312.12 394.575,1312.12 395.498,1312.12 396.421,1312.12 397.343,1312.12 398.266,1312.12 399.189,1312.12 400.112,1312.12 401.035,1312.12 401.957,1312.12 402.88,1312.12 403.803,1312.12 404.726,1312.12 405.649,1312.12 406.571,1312.12 407.494,1312.12 408.417,1312.12 409.34,1312.12 410.263,1312.12 411.185,1312.12 412.108,1312.12 413.031,1312.12 413.954,1312.12 414.877,1312.12 415.799,1312.12 416.722,1312.12 417.645,1312.12 418.568,1312.12 419.491,1312.12 420.413,1312.12 421.336,1312.12 422.259,1312.12 423.182,1312.12 424.105,1312.12 425.027,1312.12 425.95,1312.12 426.873,1312.12 427.796,1312.12 428.719,1312.12 429.641,1312.12 430.564,1312.12 431.487,1312.12 432.41,1312.12 433.333,1312.12 434.255,1312.12 435.178,1312.12 436.101,1312.12 437.024,1312.12 437.947,1312.12 438.869,1312.12 439.792,1312.12 440.715,1312.12 441.638,1312.12 442.561,1312.12 443.483,1312.12 444.406,1312.12 445.329,1312.12 446.252,1312.12 447.175,1312.12 448.097,1312.12 449.02,1312.12 449.943,1312.12 450.866,1312.12 451.789,1312.12 452.711,1312.12 453.634,1312.12 454.557,1312.12 455.48,1312.12 456.403,1312.12 457.325,1312.12 458.248,1312.12 459.171,1312.12 460.094,1312.12 461.017,1312.12 461.939,1312.12 462.862,1312.12 463.785,1312.12 464.708,1312.12 465.631,1312.12 466.553,1312.12 467.476,1312.12 468.399,1312.12 469.322,1312.12 470.245,1312.12 471.167,1312.12 472.09,1312.12 473.013,1312.12 473.936,1312.12 474.859,1312.12 475.781,1312.12 476.704,1312.12 477.627,1312.12 478.55,1312.12 479.473,1312.12 480.395,1312.12 481.318,1312.12 482.241,1312.12 483.164,1312.12 484.087,1312.12 485.009,1312.12 485.932,1312.12 486.855,1312.12 487.778,1312.12 488.701,1312.12 489.623,1312.12 490.546,1312.12 491.469,1312.12 492.392,1312.12 493.315,1312.12 494.237,1312.12 495.16,1312.12 496.083,1312.12 497.006,1312.12 497.929,1312.12 498.851,1312.12 499.774,1312.12 500.697,1312.12 501.62,1312.12 502.543,1312.12 503.465,1312.12 504.388,1312.12 505.311,1312.12 506.234,1312.12 507.157,1312.12 508.079,1312.12 509.002,1312.12 509.925,1312.12 510.848,1312.12 511.771,1312.12 512.693,1312.12 513.616,1312.12 514.539,1312.12 515.462,1312.12 516.385,1312.12 517.307,1312.12 518.23,1312.12 519.153,1312.12 520.076,1312.12 520.999,1312.12 521.921,1312.12 522.844,1312.12 523.767,1312.12 524.69,1312.12 525.613,1312.12 526.535,1312.12 527.458,1312.12 528.381,1312.12 529.304,1312.12 530.227,1312.12 531.149,1312.12 532.072,1312.12 532.995,1312.12 533.918,1312.12 534.841,1312.12 535.763,1312.12 536.686,1312.12 537.609,1312.12 538.532,1312.12 539.455,1312.12 540.377,1312.12 541.3,1312.12 542.223,1312.12 543.146,1312.12 544.069,1312.12 544.991,1312.12 545.914,1312.12 546.837,1312.12 547.76,1312.12 548.683,1312.12 549.605,1312.12 550.528,1312.12 551.451,1312.12 552.374,1312.12 553.297,1312.12 554.219,1312.12 555.142,1312.12 556.065,1312.12 556.988,1312.12 557.911,1312.12 558.833,1312.12 559.756,1312.12 560.679,1312.12 561.602,1312.12 562.524,1312.12 563.447,1312.12 564.37,1312.12 565.293,1312.12 566.216,1312.12 567.138,1312.12 568.061,1312.12 568.984,1312.12 569.907,1312.12 570.83,1312.12 571.752,1312.12 572.675,1312.12 573.598,1312.12 574.521,1312.12 575.444,1312.12 576.366,1312.12 577.289,1312.12 578.212,1312.12 579.135,1312.12 580.058,1312.12 580.98,1312.12 581.903,1312.12 582.826,1312.12 583.749,1312.12 584.672,1312.12 585.594,1312.12 586.517,1312.12 587.44,1312.12 588.363,1312.12 589.286,1312.12 590.208,1312.12 591.131,1312.12 592.054,1312.12 592.977,1312.12 593.9,1312.12 594.822,1312.12 595.745,1312.12 596.668,1312.12 597.591,1312.12 598.514,1312.12 599.436,1312.12 600.359,1312.12 601.282,1312.12 602.205,1312.12 603.128,1312.12 604.05,1312.12 604.973,1312.12 605.896,1312.12 606.819,1312.12 607.742,1312.12 608.664,1312.12 609.587,1312.12 610.51,1312.12 611.433,1312.12 612.356,1312.12 613.278,1312.12 614.201,1312.12 615.124,1312.12 616.047,1312.12 616.97,1312.12 617.892,1312.12 618.815,1312.12 619.738,1312.12 620.661,1312.12 621.584,1312.12 622.506,1312.12 623.429,1312.12 624.352,1312.12 625.275,1312.12 626.198,1312.12 627.12,1312.12 628.043,1312.12 628.966,1312.12 629.889,1312.12 630.812,1312.12 631.734,1312.12 632.657,1312.12 633.58,1312.12 634.503,1312.12 635.426,1312.12 636.348,1312.12 637.271,1312.12 638.194,1312.12 639.117,1312.12 640.04,1312.12 640.962,1312.12 641.885,1312.12 642.808,1312.12 643.731,1312.12 644.654,1312.12 645.576,1312.12 646.499,1312.12 647.422,1312.12 648.345,1312.12 649.268,1312.12 650.19,1312.12 651.113,1312.12 652.036,1312.12 652.959,1312.12 653.882,1312.12 654.804,1312.12 655.727,1312.12 656.65,1312.12 657.573,1312.12 658.496,1312.12 659.418,1312.12 660.341,1312.12 661.264,1312.12 662.187,1312.12 663.11,1312.12 664.032,1312.12 664.955,1312.12 665.878,1312.12 666.801,1312.12 667.724,1312.12 668.646,1312.12 669.569,1312.12 670.492,1312.12 671.415,1312.12 672.338,1312.12 673.26,1312.12 674.183,1312.12 675.106,1312.12 676.029,1312.12 676.952,1312.12 677.874,1312.12 678.797,1312.12 679.72,1312.12 680.643,1312.12 681.566,1312.12 682.488,1312.12 683.411,1312.12 684.334,1312.12 685.257,1312.12 686.18,1312.12 687.102,1312.12 688.025,1312.12 688.948,1312.12 689.871,1312.12 690.794,1312.12 691.716,1312.12 692.639,1312.12 693.562,1312.12 694.485,1312.12 695.408,1312.12 696.33,1312.12 697.253,1312.12 698.176,1312.12 699.099,1312.12 700.022,1312.12 700.944,1312.12 701.867,1312.12 702.79,1312.12 703.713,1312.12 704.636,1312.12 705.558,1312.12 706.481,1312.12 707.404,1312.12 708.327,1312.12 709.25,1312.12 710.172,1312.12 711.095,1312.12 712.018,1312.12 712.941,1312.12 713.864,1312.12 714.786,1312.12 715.709,1312.12 716.632,1312.12 717.555,1312.12 718.478,1312.12 719.4,1312.12 720.323,1312.12 721.246,1312.12 722.169,1312.12 723.092,1312.12 724.014,1312.12 724.937,1312.12 725.86,1312.12 726.783,1312.12 727.706,1312.12 728.628,1312.12 729.551,1312.12 730.474,1312.12 731.397,1312.12 732.32,1312.12 733.242,1312.12 734.165,1312.12 735.088,1312.12 736.011,1312.12 736.934,1312.12 737.856,1312.12 738.779,1312.12 739.702,1312.12 740.625,1312.12 741.548,1312.12 742.47,1312.12 743.393,1312.12 744.316,1312.12 745.239,1312.12 746.162,1312.12 747.084,1312.12 748.007,1312.12 748.93,1312.12 749.853,1312.12 750.776,1312.12 751.698,1312.12 752.621,1312.12 753.544,1312.12 754.467,1312.12 755.39,1312.12 756.312,1312.12 757.235,1312.12 758.158,1312.12 759.081,1312.12 760.004,1312.12 760.926,1312.12 761.849,1312.12 762.772,1312.12 763.695,1312.12 764.618,1312.12 765.54,1312.12 766.463,1312.12 767.386,1312.12 768.309,1312.12 769.232,1312.12 770.154,1312.12 771.077,1312.12 772,1312.12 772.923,1312.12 773.846,1312.12 774.768,1312.12 775.691,1312.12 776.614,1312.12 777.537,1312.12 778.46,1312.12 779.382,1312.12 780.305,1312.12 781.228,1312.12 782.151,1312.12 783.074,1312.12 783.996,1312.12 784.919,1312.12 785.842,1312.12 786.765,1312.12 787.688,1312.12 788.61,1312.12 789.533,1312.12 790.456,1312.12 791.379,1312.12 792.302,1312.12 793.224,1312.12 794.147,1312.12 795.07,1312.12 795.993,1312.12 796.916,1312.12 797.838,1312.12 798.761,1312.12 799.684,1312.12 800.607,1312.12 801.53,1312.12 802.452,1312.12 803.375,1312.12 804.298,1312.12 805.221,1312.12 806.144,1312.12 807.066,1312.12 807.989,1312.12 808.912,1312.12 809.835,1312.12 810.758,1312.12 811.68,1312.12 812.603,1312.12 813.526,1312.12 814.449,1312.12 815.372,1312.12 816.294,1312.12 817.217,1312.12 818.14,1312.12 819.063,1312.12 819.986,1312.12 820.908,1312.12 821.831,1312.12 822.754,1312.12 823.677,1312.12 824.6,1312.12 825.522,1312.12 826.445,1312.12 827.368,1312.12 828.291,1312.12 829.214,1312.12 830.136,1312.12 831.059,1312.12 831.982,1312.12 832.905,1312.12 833.828,1312.12 834.75,1312.12 835.673,1312.12 836.596,1312.12 837.519,1312.12 838.442,1312.12 839.364,1312.12 840.287,1312.12 841.21,1312.12 842.133,1312.12 843.056,1312.12 843.978,1312.12 844.901,1312.12 845.824,1312.12 846.747,1312.12 847.67,1312.12 848.592,1312.12 849.515,1312.12 850.438,1312.12 851.361,1312.12 852.284,1312.12 853.206,1312.12 854.129,1312.12 855.052,1312.12 855.975,1312.12 856.898,1312.12 857.82,1312.12 858.743,1312.12 859.666,1312.12 860.589,1312.12 861.512,1312.12 862.434,1312.12 863.357,1312.12 864.28,1312.12 865.203,1312.12 866.126,1312.12 867.048,1312.12 867.971,1312.12 868.894,1312.12 869.817,1312.12 870.74,1312.12 871.662,1312.12 872.585,1312.12 873.508,1312.12 874.431,1312.12 875.354,1312.12 876.276,1312.12 877.199,1312.12 878.122,1312.12 879.045,1312.12 879.968,1312.12 880.89,1312.12 881.813,1312.12 882.736,1312.12 883.659,1312.12 884.582,1312.12 885.504,1312.12 886.427,1312.12 887.35,1312.12 888.273,1312.12 889.196,1312.12 890.118,1312.12 891.041,1312.12 891.964,1312.12 892.887,1312.12 893.81,1312.12 894.732,1312.12 895.655,1312.12 896.578,1312.12 897.501,1312.12 898.424,1312.12 899.346,1312.12 900.269,1312.12 901.192,1312.12 902.115,1312.12 903.038,1312.12 903.96,1312.12 904.883,1312.12 905.806,1312.12 906.729,1312.12 907.652,1312.12 908.574,1312.12 909.497,1312.12 910.42,1312.12 911.343,1312.12 912.266,1312.12 913.188,1312.12 914.111,1312.12 915.034,1312.12 915.957,1312.12 916.88,1312.12 917.802,1312.12 918.725,1312.12 919.648,1312.12 920.571,1312.12 921.494,1312.12 922.416,1312.12 923.339,1312.12 924.262,1312.12 925.185,1312.12 926.108,1312.12 927.03,1312.12 927.953,1312.12 928.876,1312.12 929.799,1312.12 930.722,1312.12 931.644,1312.12 932.567,1312.12 933.49,1312.12 934.413,1312.12 935.336,1312.12 936.258,1312.12 937.181,1312.12 938.104,1312.12 939.027,1312.12 939.95,1312.12 940.872,1312.12 941.795,1312.12 942.718,1312.12 943.641,1312.12 944.564,1312.12 945.486,1312.12 946.409,1312.12 947.332,1312.12 948.255,1312.12 949.178,1312.12 950.1,1312.12 951.023,1240.01 951.946,1240.01 952.869,1240.01 953.792,1240.01 954.714,1240.01 955.637,1240.01 956.56,1240.01 957.483,1240.01 958.406,1240.01 959.328,1240.01 960.251,1240.01 961.174,1240.01 962.097,1240.01 963.02,1240.01 963.942,1240.01 964.865,1240.01 965.788,1240.01 966.711,1240.01 967.634,1240.01 968.556,1240.01 969.479,1240.01 970.402,1240.01 971.325,1240.01 972.248,1240.01 973.17,1240.01 974.093,1240.01 975.016,1240.01 975.939,1240.01 976.862,1240.01 977.784,1240.01 978.707,1240.01 979.63,1240.01 980.553,1240.01 981.476,1240.01 982.398,1240.01 983.321,1240.01 984.244,1240.01 985.167,1240.01 986.09,1240.01 987.012,1240.01 987.935,1240.01 988.858,1240.01 989.781,1240.01 990.704,1240.01 991.626,1240.01 992.549,1240.01 993.472,1240.01 994.395,1240.01 995.318,1240.01 996.24,1240.01 997.163,1240.01 998.086,1240.01 999.009,1240.01 999.932,1240.01 1000.85,1240.01 1001.78,1240.01 1002.7,1240.01 1003.62,1240.01 1004.55,1240.01 1005.47,1240.01 1006.39,1240.01 1007.31,1240.01 1008.24,1240.01 1009.16,1240.01 1010.08,1240.01 1011.01,1240.01 1011.93,1240.01 1012.85,1240.01 1013.77,1240.01 1014.7,1240.01 1015.62,1240.01 1016.54,1240.01 1017.46,1240.01 1018.39,1240.01 1019.31,1240.01 1020.23,1240.01 1021.16,1240.01 1022.08,1240.01 1023,1240.01 1023.92,1240.01 1024.85,1240.01 1025.77,1240.01 1026.69,1240.01 1027.62,1240.01 1028.54,1240.01 1029.46,1240.01 1030.38,1240.01 1031.31,1240.01 1032.23,1240.01 1033.15,1240.01 1034.08,1240.01 1035,1240.01 1035.92,1240.01 1036.84,1240.01 1037.77,1240.01 1038.69,1240.01 1039.61,1240.01 1040.53,1240.01 1041.46,1240.01 1042.38,1240.01 1043.3,1240.01 1044.23,1240.01 1045.15,1240.01 1046.07,1240.01 1046.99,1240.01 1047.92,1240.01 1048.84,1240.01 1049.76,1240.01 1050.69,1240.01 1051.61,1240.01 1052.53,1240.01 1053.45,1240.01 1054.38,1240.01 1055.3,1240.01 1056.22,1240.01 1057.15,1240.01 1058.07,1240.01 1058.99,1240.01 1059.91,1240.01 1060.84,1240.01 1061.76,1240.01 1062.68,1240.01 1063.6,1240.01 1064.53,1240.01 1065.45,1240.01 1066.37,1240.01 1067.3,1240.01 1068.22,1240.01 1069.14,1240.01 1070.06,1240.01 1070.99,1240.01 1071.91,1240.01 1072.83,1240.01 1073.76,1240.01 1074.68,1240.01 1075.6,1240.01 1076.52,1240.01 1077.45,1240.01 1078.37,1240.01 1079.29,1240.01 1080.22,1240.01 1081.14,1240.01 1082.06,1240.01 1082.98,1240.01 1083.91,1240.01 1084.83,1240.01 1085.75,1240.01 1086.67,1240.01 1087.6,1240.01 1088.52,1240.01 1089.44,1240.01 1090.37,1240.01 1091.29,1240.01 1092.21,1240.01 1093.13,1240.01 1094.06,1240.01 1094.98,1240.01 1095.9,1240.01 1096.83,1240.01 1097.75,1240.01 1098.67,1240.01 1099.59,1240.01 1100.52,1240.01 1101.44,1240.01 1102.36,1240.01 1103.29,1240.01 1104.21,1240.01 1105.13,1240.01 1106.05,1240.01 1106.98,1240.01 1107.9,1240.01 1108.82,1240.01 1109.74,1240.01 1110.67,1240.01 1111.59,1240.01 1112.51,1240.01 1113.44,1240.01 1114.36,1240.01 1115.28,1240.01 1116.2,1240.01 1117.13,1240.01 1118.05,1240.01 1118.97,1240.01 1119.9,1240.01 1120.82,1240.01 1121.74,1240.01 1122.66,1240.01 1123.59,1240.01 1124.51,1240.01 1125.43,1240.01 1126.36,1240.01 1127.28,1240.01 1128.2,1240.01 1129.12,1240.01 1130.05,1240.01 1130.97,1240.01 1131.89,1240.01 1132.81,1240.01 1133.74,1240.01 1134.66,1240.01 1135.58,1240.01 1136.51,1240.01 1137.43,1240.01 1138.35,1240.01 1139.27,1240.01 1140.2,1240.01 1141.12,1240.01 1142.04,1240.01 1142.97,1240.01 1143.89,1240.01 1144.81,1240.01 1145.73,1240.01 1146.66,1240.01 1147.58,1240.01 1148.5,1240.01 1149.43,1240.01 1150.35,1240.01 1151.27,1240.01 1152.19,1240.01 1153.12,1240.01 1154.04,1240.01 1154.96,1240.01 1155.88,1240.01 1156.81,1240.01 1157.73,1240.01 1158.65,1240.01 1159.58,1240.01 1160.5,1240.01 1161.42,1240.01 1162.34,1240.01 1163.27,1240.01 1164.19,1240.01 1165.11,1240.01 1166.04,1240.01 1166.96,1240.01 1167.88,1240.01 1168.8,1240.01 1169.73,1240.01 1170.65,1240.01 1171.57,1240.01 1172.5,1240.01 1173.42,1240.01 1174.34,1240.01 1175.26,1240.01 1176.19,1240.01 1177.11,1240.01 1178.03,1240.01 1178.95,1240.01 1179.88,1240.01 1180.8,1240.01 1181.72,1240.01 1182.65,1240.01 1183.57,1240.01 1184.49,1240.01 1185.41,1240.01 1186.34,1240.01 1187.26,1240.01 1188.18,1240.01 1189.11,1240.01 1190.03,1240.01 1190.95,1240.01 1191.87,1240.01 1192.8,1240.01 1193.72,1240.01 1194.64,1240.01 1195.57,1240.01 1196.49,1240.01 1197.41,1240.01 1198.33,1240.01 1199.26,1240.01 1200.18,1240.01 1201.1,1240.01 1202.02,1240.01 1202.95,1240.01 1203.87,1240.01 1204.79,1240.01 1205.72,1240.01 1206.64,1240.01 1207.56,1240.01 1208.48,1240.01 1209.41,1240.01 1210.33,1240.01 1211.25,1240.01 1212.18,1240.01 1213.1,1240.01 1214.02,1240.01 1214.94,1240.01 1215.87,1240.01 1216.79,1240.01 1217.71,1240.01 1218.64,1240.01 1219.56,1240.01 1220.48,1240.01 1221.4,1240.01 1222.33,1240.01 1223.25,1240.01 1224.17,1240.01 1225.09,1240.01 1226.02,1240.01 1226.94,1240.01 1227.86,1240.01 1228.79,1240.01 1229.71,1240.01 1230.63,1240.01 1231.55,1240.01 1232.48,1240.01 1233.4,1240.01 1234.32,1240.01 1235.25,1240.01 1236.17,1240.01 1237.09,1240.01 1238.01,1240.01 1238.94,1240.01 1239.86,1240.01 1240.78,1240.01 1241.71,1240.01 1242.63,1240.01 1243.55,1240.01 1244.47,1240.01 1245.4,1240.01 1246.32,1240.01 1247.24,1240.01 1248.16,1240.01 1249.09,1240.01 1250.01,1240.01 1250.93,1240.01 1251.86,1240.01 1252.78,1240.01 1253.7,1240.01 1254.62,1240.01 1255.55,1240.01 1256.47,1240.01 1257.39,1240.01 1258.32,1240.01 1259.24,1240.01 1260.16,1240.01 1261.08,1240.01 1262.01,1240.01 1262.93,1240.01 1263.85,1240.01 1264.78,1240.01 1265.7,1240.01 1266.62,1240.01 1267.54,1240.01 1268.47,1240.01 1269.39,1240.01 1270.31,1240.01 1271.23,1240.01 1272.16,1240.01 1273.08,1240.01 1274,1240.01 1274.93,1240.01 1275.85,1240.01 1276.77,1240.01 1277.69,1240.01 1278.62,1240.01 1279.54,1240.01 1280.46,1240.01 1281.39,1240.01 1282.31,1240.01 1283.23,1240.01 1284.15,1240.01 1285.08,1240.01 1286,1240.01 1286.92,1240.01 1287.85,1240.01 1288.77,1240.01 1289.69,1240.01 1290.61,1240.01 1291.54,1240.01 1292.46,1240.01 1293.38,1240.01 1294.3,1240.01 1295.23,1240.01 1296.15,1240.01 1297.07,1240.01 1298,1240.01 1298.92,1240.01 1299.84,1240.01 1300.76,1240.01 1301.69,1240.01 1302.61,1240.01 1303.53,1240.01 1304.46,1240.01 1305.38,1240.01 1306.3,1240.01 1307.22,1240.01 1308.15,1240.01 1309.07,1240.01 1309.99,1240.01 1310.92,1240.01 1311.84,1240.01 1312.76,1240.01 1313.68,1240.01 1314.61,1240.01 1315.53,1240.01 1316.45,1240.01 1317.37,1240.01 1318.3,1240.01 1319.22,1240.01 1320.14,1240.01 1321.07,1240.01 1321.99,1240.01 1322.91,1240.01 1323.83,1240.01 1324.76,1240.01 1325.68,1240.01 1326.6,1240.01 1327.53,1240.01 1328.45,1240.01 1329.37,1240.01 1330.29,1240.01 1331.22,1240.01 1332.14,1240.01 1333.06,1240.01 1333.99,1240.01 1334.91,1240.01 1335.83,1240.01 1336.75,1240.01 1337.68,1240.01 1338.6,1240.01 1339.52,1240.01 1340.44,1240.01 1341.37,1240.01 1342.29,1240.01 1343.21,1240.01 1344.14,1240.01 1345.06,1240.01 1345.98,1240.01 1346.9,1240.01 1347.83,1240.01 1348.75,1240.01 1349.67,1240.01 1350.6,1240.01 1351.52,1240.01 1352.44,1240.01 1353.36,1240.01 1354.29,1240.01 1355.21,1240.01 1356.13,1240.01 1357.06,1240.01 1357.98,1240.01 1358.9,1240.01 1359.82,1240.01 1360.75,1240.01 1361.67,1240.01 1362.59,1240.01 1363.51,1240.01 1364.44,1240.01 1365.36,1240.01 1366.28,1240.01 1367.21,1240.01 1368.13,1240.01 1369.05,1240.01 1369.97,1240.01 1370.9,1240.01 1371.82,1240.01 1372.74,1240.01 1373.67,1240.01 1374.59,1240.01 1375.51,1240.01 1376.43,1240.01 1377.36,1240.01 1378.28,1240.01 1379.2,1240.01 1380.13,1240.01 1381.05,1240.01 1381.97,1240.01 1382.89,1240.01 1383.82,1240.01 1384.74,1240.01 1385.66,1240.01 1386.58,1240.01 1387.51,1240.01 1388.43,1240.01 1389.35,1240.01 1390.28,1240.01 1391.2,1240.01 1392.12,1240.01 1393.04,1240.01 1393.97,1240.01 1394.89,1240.01 1395.81,1240.01 1396.74,1240.01 1397.66,1240.01 1398.58,1240.01 1399.5,1240.01 1400.43,1240.01 1401.35,1240.01 1402.27,1240.01 1403.2,1240.01 1404.12,1240.01 1405.04,1240.01 1405.96,1240.01 1406.89,1240.01 1407.81,1240.01 1408.73,1240.01 1409.65,1240.01 1410.58,1240.01 1411.5,1240.01 1412.42,1240.01 1413.35,1240.01 1414.27,1240.01 1415.19,1240.01 1416.11,1240.01 1417.04,1240.01 1417.96,1240.01 1418.88,1240.01 1419.81,1240.01 1420.73,1240.01 1421.65,1240.01 1422.57,1240.01 1423.5,1240.01 1424.42,1240.01 1425.34,1240.01 1426.27,1240.01 1427.19,1240.01 1428.11,1240.01 1429.03,1240.01 1429.96,1240.01 1430.88,1240.01 1431.8,1240.01 1432.72,1240.01 1433.65,1240.01 1434.57,1240.01 1435.49,1240.01 1436.42,1240.01 1437.34,1240.01 1438.26,1240.01 1439.18,1240.01 1440.11,1240.01 1441.03,1240.01 1441.95,1240.01 1442.88,1240.01 1443.8,1240.01 1444.72,1240.01 1445.64,1240.01 1446.57,1240.01 1447.49,1240.01 1448.41,1240.01 1449.34,1240.01 1450.26,1240.01 1451.18,1240.01 1452.1,1240.01 1453.03,1240.01 1453.95,1240.01 1454.87,1240.01 1455.79,1240.01 1456.72,1240.01 1457.64,1240.01 1458.56,1240.01 1459.49,1240.01 1460.41,1240.01 1461.33,1240.01 1462.25,1240.01 1463.18,1240.01 1464.1,1240.01 1465.02,1240.01 1465.95,1240.01 1466.87,1240.01 1467.79,1240.01 1468.71,1240.01 1469.64,1240.01 1470.56,1240.01 1471.48,1240.01 1472.4,1240.01 1473.33,1240.01 1474.25,1240.01 1475.17,1240.01 1476.1,1240.01 1477.02,1240.01 1477.94,1240.01 1478.86,1240.01 1479.79,1240.01 1480.71,1240.01 1481.63,1240.01 1482.56,1240.01 1483.48,1240.01 1484.4,1240.01 1485.32,1240.01 1486.25,1240.01 1487.17,1240.01 1488.09,1240.01 1489.02,1240.01 1489.94,1240.01 1490.86,1240.01 1491.78,1240.01 1492.71,1240.01 1493.63,1240.01 1494.55,1240.01 1495.47,1240.01 1496.4,1240.01 1497.32,1240.01 1498.24,1240.01 1499.17,1240.01 1500.09,1240.01 1501.01,1240.01 1501.93,1240.01 1502.86,1240.01 1503.78,1240.01 1504.7,1240.01 1505.63,1240.01 1506.55,1240.01 1507.47,1240.01 1508.39,1240.01 1509.32,1240.01 1510.24,1240.01 1511.16,1240.01 1512.09,1240.01 1513.01,1240.01 1513.93,1240.01 1514.85,1240.01 1515.78,1240.01 1516.7,1240.01 1517.62,1240.01 1518.54,1240.01 1519.47,1240.01 1520.39,1240.01 1521.31,1240.01 1522.24,1240.01 1523.16,1240.01 1524.08,1240.01 1525,1240.01 1525.93,1240.01 1526.85,1240.01 1527.77,1240.01 1528.7,1240.01 1529.62,1240.01 1530.54,1240.01 1531.46,1240.01 1532.39,1240.01 1533.31,1240.01 1534.23,1240.01 1535.16,1240.01 1536.08,1240.01 1537,1240.01 1537.92,1240.01 1538.85,1240.01 1539.77,1240.01 1540.69,1240.01 1541.61,1240.01 1542.54,1240.01 1543.46,1240.01 1544.38,1240.01 1545.31,1240.01 1546.23,1240.01 1547.15,1240.01 1548.07,1240.01 1549,1240.01 1549.92,1240.01 1550.84,1240.01 1551.77,1240.01 1552.69,1240.01 1553.61,1240.01 1554.53,1240.01 1555.46,1240.01 1556.38,1240.01 1557.3,1240.01 1558.23,1240.01 1559.15,1240.01 1560.07,1240.01 1560.99,1240.01 1561.92,1240.01 1562.84,1240.01 1563.76,1240.01 1564.68,1240.01 1565.61,1240.01 1566.53,1167.9 1567.45,1167.9 1568.38,1167.9 1569.3,1167.9 1570.22,1167.9 1571.14,1167.9 1572.07,1167.9 1572.99,1167.9 1573.91,1167.9 1574.84,1167.9 1575.76,1167.9 1576.68,1167.9 1577.6,1167.9 1578.53,1167.9 1579.45,1167.9 1580.37,1167.9 1581.3,1167.9 1582.22,1167.9 1583.14,1167.9 1584.06,1167.9 1584.99,1167.9 1585.91,1167.9 1586.83,1167.9 1587.75,1167.9 1588.68,1167.9 1589.6,1167.9 1590.52,1167.9 1591.45,1167.9 1592.37,1167.9 1593.29,1167.9 1594.21,1167.9 1595.14,1167.9 1596.06,1167.9 1596.98,1167.9 1597.91,1167.9 1598.83,1167.9 1599.75,1167.9 1600.67,1167.9 1601.6,1167.9 1602.52,1167.9 1603.44,1167.9 1604.37,1167.9 1605.29,1167.9 1606.21,1167.9 1607.13,1167.9 1608.06,1167.9 1608.98,1167.9 1609.9,1167.9 1610.82,1167.9 1611.75,1167.9 1612.67,1167.9 1613.59,1167.9 1614.52,1095.78 1615.44,1095.78 1616.36,1095.78 1617.28,1095.78 1618.21,1095.78 1619.13,1095.78 1620.05,1095.78 1620.98,1095.78 1621.9,1095.78 1622.82,1095.78 1623.74,1095.78 1624.67,1095.78 1625.59,1095.78 1626.51,1095.78 1627.44,1095.78 1628.36,1095.78 1629.28,1095.78 1630.2,1095.78 1631.13,1095.78 1632.05,1095.78 1632.97,1095.78 1633.89,1095.78 1634.82,1095.78 1635.74,1095.78 1636.66,1095.78 1637.59,1095.78 1638.51,1095.78 1639.43,1095.78 1640.35,1095.78 1641.28,1095.78 1642.2,1095.78 1643.12,1095.78 1644.05,1095.78 1644.97,1095.78 1645.89,1095.78 1646.81,1095.78 1647.74,1095.78 1648.66,1095.78 1649.58,1095.78 1650.51,1095.78 1651.43,1095.78 1652.35,1095.78 1653.27,1095.78 1654.2,1095.78 1655.12,1095.78 1656.04,1095.78 1656.96,1095.78 1657.89,1095.78 1658.81,1095.78 1659.73,1095.78 1660.66,1095.78 1661.58,1095.78 1662.5,1095.78 1663.42,1095.78 1664.35,1095.78 1665.27,1095.78 1666.19,1095.78 1667.12,1095.78 1668.04,1095.78 1668.96,1095.78 1669.88,1095.78 1670.81,1095.78 1671.73,1095.78 1672.65,1095.78 1673.58,1095.78 1674.5,1095.78 1675.42,1095.78 1676.34,1095.78 1677.27,1095.78 1678.19,1095.78 1679.11,1095.78 1680.03,1095.78 1680.96,1095.78 1681.88,1095.78 1682.8,1095.78 1683.73,1095.78 1684.65,1095.78 1685.57,1095.78 1686.49,1095.78 1687.42,1095.78 1688.34,1095.78 1689.26,1095.78 1690.19,1095.78 1691.11,1095.78 1692.03,1095.78 1692.95,1095.78 1693.88,1095.78 1694.8,1095.78 1695.72,1095.78 1696.65,1095.78 1697.57,1095.78 1698.49,1095.78 1699.41,1095.78 1700.34,1095.78 1701.26,1095.78 1702.18,1095.78 1703.1,1095.78 1704.03,1095.78 1704.95,1095.78 1705.87,1095.78 1706.8,1095.78 1707.72,1095.78 1708.64,1095.78 1709.56,1095.78 1710.49,1095.78 1711.41,1095.78 1712.33,1095.78 1713.26,1095.78 1714.18,1095.78 1715.1,1095.78 1716.02,1095.78 1716.95,1095.78 1717.87,1095.78 1718.79,1095.78 1719.72,1095.78 1720.64,1095.78 1721.56,1095.78 1722.48,1095.78 1723.41,1095.78 1724.33,1095.78 1725.25,1095.78 1726.17,1095.78 1727.1,1095.78 1728.02,1095.78 1728.94,1095.78 1729.87,1095.78 1730.79,1095.78 1731.71,1095.78 1732.63,1095.78 1733.56,1095.78 1734.48,1095.78 1735.4,1095.78 1736.33,1095.78 1737.25,1095.78 1738.17,1095.78 1739.09,1095.78 1740.02,1095.78 1740.94,1095.78 1741.86,1095.78 1742.79,1095.78 1743.71,1095.78 1744.63,1095.78 1745.55,1095.78 1746.48,1095.78 1747.4,1095.78 1748.32,1095.78 1749.24,1095.78 1750.17,1095.78 1751.09,1095.78 1752.01,1095.78 1752.94,1095.78 1753.86,1095.78 1754.78,1095.78 1755.7,1095.78 1756.63,1095.78 1757.55,1095.78 1758.47,1095.78 1759.4,1095.78 1760.32,1095.78 1761.24,1095.78 1762.16,1095.78 1763.09,1095.78 1764.01,1095.78 1764.93,1095.78 1765.86,1095.78 1766.78,1095.78 1767.7,1095.78 1768.62,1095.78 1769.55,1095.78 1770.47,1095.78 1771.39,1095.78 1772.31,1095.78 1773.24,1095.78 1774.16,1095.78 1775.08,1095.78 1776.01,1095.78 1776.93,1095.78 1777.85,1095.78 1778.77,1095.78 1779.7,1095.78 1780.62,1095.78 1781.54,1095.78 1782.47,1095.78 1783.39,1095.78 1784.31,1095.78 1785.23,1095.78 1786.16,1095.78 1787.08,1095.78 1788,1095.78 1788.93,1095.78 1789.85,1095.78 1790.77,1095.78 1791.69,1095.78 1792.62,1095.78 1793.54,1095.78 1794.46,1095.78 1795.38,1095.78 1796.31,1095.78 1797.23,1095.78 1798.15,1095.78 1799.08,1095.78 1800,1095.78 1800.92,1095.78 1801.84,1095.78 1802.77,1095.78 1803.69,1095.78 1804.61,1095.78 1805.54,1095.78 1806.46,1095.78 1807.38,1095.78 1808.3,1095.78 1809.23,1095.78 1810.15,1095.78 1811.07,1095.78 1812,1095.78 1812.92,1095.78 1813.84,1095.78 1814.76,1095.78 1815.69,1095.78 1816.61,1095.78 1817.53,1095.78 1818.45,1095.78 1819.38,1095.78 1820.3,1095.78 1821.22,1095.78 1822.15,1095.78 1823.07,1095.78 1823.99,1095.78 1824.91,1095.78 1825.84,1095.78 1826.76,1095.78 1827.68,1095.78 1828.61,1095.78 1829.53,1095.78 1830.45,1095.78 1831.37,1095.78 1832.3,1095.78 1833.22,1095.78 1834.14,1095.78 1835.07,1095.78 1835.99,1095.78 1836.91,1095.78 1837.83,1095.78 1838.76,1095.78 1839.68,1095.78 1840.6,1095.78 1841.52,1095.78 1842.45,1095.78 1843.37,1095.78 1844.29,1095.78 1845.22,1095.78 1846.14,1095.78 1847.06,1095.78 1847.98,1095.78 1848.91,1095.78 1849.83,1095.78 1850.75,1095.78 1851.68,1095.78 1852.6,1095.78 1853.52,1095.78 1854.44,1095.78 1855.37,1095.78 1856.29,1095.78 1857.21,1095.78 1858.14,1095.78 1859.06,1095.78 1859.98,1095.78 1860.9,1095.78 1861.83,1095.78 1862.75,1095.78 1863.67,1095.78 1864.59,1095.78 1865.52,1095.78 1866.44,1095.78 1867.36,1095.78 1868.29,1095.78 1869.21,1095.78 1870.13,1095.78 1871.05,1095.78 1871.98,1095.78 1872.9,1095.78 1873.82,1095.78 1874.75,1095.78 1875.67,1095.78 1876.59,1095.78 1877.51,1095.78 1878.44,1095.78 1879.36,1095.78 1880.28,1095.78 1881.21,1095.78 1882.13,1095.78 1883.05,1095.78 1883.97,1095.78 1884.9,1095.78 1885.82,1095.78 1886.74,1095.78 1887.66,1095.78 1888.59,1095.78 1889.51,1095.78 1890.43,1095.78 1891.36,1095.78 1892.28,1095.78 1893.2,1095.78 1894.12,1095.78 1895.05,1095.78 1895.97,1095.78 1896.89,1095.78 1897.82,1095.78 1898.74,1095.78 1899.66,1095.78 1900.58,1095.78 1901.51,1095.78 1902.43,1095.78 1903.35,1095.78 1904.28,1095.78 1905.2,1095.78 1906.12,1095.78 1907.04,1095.78 1907.97,1095.78 1908.89,1095.78 1909.81,1095.78 1910.73,1095.78 1911.66,1095.78 1912.58,1095.78 1913.5,1095.78 1914.43,1095.78 1915.35,1095.78 1916.27,1095.78 1917.19,1095.78 1918.12,1095.78 1919.04,1095.78 1919.96,1095.78 1920.89,1095.78 1921.81,1095.78 1922.73,1095.78 1923.65,1095.78 1924.58,1095.78 1925.5,1095.78 1926.42,1095.78 1927.35,1095.78 1928.27,1095.78 1929.19,1095.78 1930.11,1095.78 1931.04,1095.78 1931.96,1095.78 1932.88,1095.78 1933.8,1095.78 1934.73,1095.78 1935.65,1095.78 1936.57,1095.78 1937.5,1095.78 1938.42,1095.78 1939.34,1095.78 1940.26,1095.78 1941.19,1095.78 1942.11,1095.78 1943.03,1095.78 1943.96,1095.78 1944.88,1095.78 1945.8,1095.78 1946.72,1095.78 1947.65,1095.78 1948.57,1095.78 1949.49,1095.78 1950.42,1095.78 1951.34,1095.78 1952.26,1095.78 1953.18,1095.78 1954.11,1095.78 1955.03,1095.78 1955.95,1095.78 1956.87,1095.78 1957.8,1095.78 1958.72,1095.78 1959.64,1095.78 1960.57,1095.78 1961.49,1095.78 1962.41,1095.78 1963.33,1095.78 1964.26,1095.78 1965.18,1095.78 1966.1,1095.78 1967.03,1095.78 1967.95,1095.78 1968.87,1095.78 1969.79,1095.78 1970.72,1095.78 1971.64,1095.78 1972.56,1095.78 1973.49,1095.78 1974.41,1095.78 1975.33,1095.78 1976.25,1095.78 1977.18,1095.78 1978.1,1095.78 1979.02,1095.78 1979.94,1095.78 1980.87,1095.78 1981.79,1095.78 1982.71,1095.78 1983.64,1095.78 1984.56,1095.78 1985.48,1095.78 1986.4,1095.78 1987.33,1095.78 1988.25,1095.78 1989.17,1095.78 1990.1,1095.78 1991.02,1095.78 1991.94,1095.78 1992.86,1095.78 1993.79,1095.78 1994.71,1095.78 1995.63,1095.78 1996.56,1095.78 1997.48,1095.78 1998.4,1095.78 1999.32,1095.78 2000.25,1095.78 2001.17,1095.78 2002.09,1095.78 2003.01,1095.78 2003.94,1095.78 2004.86,1095.78 2005.78,1095.78 2006.71,1095.78 2007.63,1095.78 2008.55,1095.78 2009.47,1095.78 2010.4,1095.78 2011.32,1095.78 2012.24,1095.78 2013.17,1095.78 2014.09,1095.78 2015.01,1095.78 2015.93,1095.78 2016.86,1095.78 2017.78,1095.78 2018.7,1095.78 2019.63,1095.78 2020.55,1095.78 2021.47,1095.78 2022.39,1095.78 2023.32,1095.78 2024.24,1095.78 2025.16,1095.78 2026.08,1095.78 2027.01,1095.78 2027.93,1095.78 2028.85,1095.78 2029.78,1095.78 2030.7,1095.78 2031.62,1095.78 2032.54,1095.78 2033.47,1095.78 2034.39,1095.78 2035.31,1095.78 2036.24,1095.78 2037.16,1095.78 2038.08,1095.78 2039,1095.78 2039.93,1095.78 2040.85,1095.78 2041.77,1095.78 2042.7,1095.78 2043.62,1095.78 2044.54,1095.78 2045.46,1095.78 2046.39,1095.78 2047.31,1095.78 2048.23,1095.78 2049.15,1095.78 2050.08,1095.78 2051,1095.78 2051.92,1095.78 2052.85,1095.78 2053.77,1095.78 2054.69,1095.78 2055.61,1095.78 2056.54,1095.78 2057.46,1095.78 2058.38,1095.78 2059.31,1095.78 2060.23,1095.78 2061.15,1095.78 2062.07,1095.78 2063,1095.78 2063.92,1095.78 2064.84,1095.78 2065.77,1095.78 2066.69,1095.78 2067.61,1095.78 2068.53,1095.78 2069.46,1095.78 2070.38,1095.78 2071.3,1095.78 2072.22,1095.78 2073.15,1095.78 2074.07,1095.78 2074.99,1095.78 2075.92,1095.78 2076.84,1095.78 2077.76,1095.78 2078.68,1095.78 2079.61,1095.78 2080.53,1095.78 2081.45,1095.78 2082.38,1095.78 2083.3,1095.78 2084.22,1095.78 2085.14,1095.78 2086.07,1095.78 2086.99,1095.78 2087.91,1095.78 2088.84,1095.78 2089.76,1095.78 2090.68,1095.78 2091.6,1095.78 2092.53,1095.78 2093.45,1095.78 2094.37,1095.78 2095.29,1095.78 2096.22,1095.78 2097.14,1095.78 2098.06,1095.78 2098.99,1095.78 2099.91,1095.78 2100.83,1095.78 2101.75,1095.78 2102.68,1095.78 2103.6,1095.78 2104.52,1095.78 2105.45,1095.78 2106.37,1095.78 2107.29,1095.78 2108.21,1095.78 2109.14,1095.78 2110.06,1095.78 2110.98,1095.78 2111.91,1095.78 2112.83,1095.78 2113.75,1095.78 2114.67,1095.78 2115.6,1095.78 2116.52,1095.78 2117.44,1095.78 2118.36,1095.78 2119.29,1095.78 2120.21,1095.78 2121.13,1095.78 2122.06,1095.78 2122.98,1095.78 2123.9,1095.78 2124.82,1095.78 2125.75,1095.78 2126.67,1095.78 2127.59,1095.78 2128.52,1095.78 2129.44,1095.78 2130.36,1095.78 2131.28,1095.78 2132.21,1095.78 2133.13,1095.78 2134.05,1095.78 2134.98,1095.78 2135.9,1095.78 2136.82,1095.78 2137.74,1095.78 2138.67,1095.78 2139.59,1095.78 2140.51,1095.78 2141.43,1095.78 2142.36,1095.78 2143.28,1095.78 2144.2,1095.78 2145.13,1095.78 2146.05,1095.78 2146.97,1095.78 2147.89,1095.78 2148.82,1095.78 2149.74,1095.78 2150.66,1095.78 2151.59,1095.78 2152.51,1095.78 2153.43,1095.78 2154.35,1095.78 2155.28,1095.78 2156.2,1095.78 2157.12,1095.78 2158.05,1095.78 2158.97,1095.78 2159.89,1095.78 2160.81,1095.78 2161.74,1095.78 2162.66,1095.78 2163.58,1095.78 2164.5,1095.78 2165.43,1095.78 2166.35,1095.78 2167.27,1095.78 2168.2,1095.78 2169.12,1095.78 2170.04,1095.78 2170.96,1095.78 2171.89,1095.78 2172.81,1095.78 2173.73,1095.78 2174.66,1095.78 2175.58,1095.78 2176.5,1095.78 2177.42,1095.78 2178.35,1095.78 2179.27,1095.78 2180.19,1095.78 2181.12,1095.78 2182.04,1095.78 2182.96,1095.78 2183.88,1095.78 2184.81,1095.78 2185.73,1095.78 2186.65,1095.78 2187.57,1095.78 2188.5,1095.78 2189.42,1095.78 2190.34,1095.78 2191.27,1095.78 2192.19,1095.78 2193.11,1095.78 2194.03,1095.78 2194.96,1095.78 2195.88,1095.78 2196.8,1095.78 2197.73,1095.78 2198.65,1095.78 2199.57,1095.78 2200.49,1095.78 2201.42,1095.78 2202.34,1095.78 2203.26,1095.78 2204.19,1095.78 2205.11,1095.78 2206.03,1095.78 2206.95,1095.78 2207.88,1095.78 2208.8,1095.78 2209.72,1095.78 2210.64,1095.78 2211.57,1095.78 2212.49,1095.78 2213.41,1095.78 2214.34,1095.78 2215.26,1095.78 2216.18,1095.78 2217.1,1095.78 2218.03,1095.78 2218.95,1095.78 2219.87,1095.78 2220.8,1095.78 2221.72,1095.78 2222.64,1095.78 2223.56,1095.78 2224.49,1095.78 2225.41,1095.78 2226.33,1095.78 2227.26,1095.78 2228.18,1095.78 2229.1,1095.78 2230.02,1095.78 2230.95,1095.78 2231.87,1095.78 2232.79,1095.78 2233.71,1095.78 2234.64,1095.78 2235.56,1095.78 2236.48,1095.78 2237.41,1095.78 2238.33,1095.78 2239.25,1095.78 2240.17,1095.78 2241.1,1095.78 2242.02,1095.78 2242.94,1095.78 2243.87,1095.78 2244.79,1095.78 2245.71,1095.78 2246.63,1095.78 2247.56,1095.78 2248.48,1095.78 2249.4,1095.78 2250.33,1095.78 2251.25,1095.78 2252.17,1095.78 2253.09,1095.78 2254.02,1095.78 2254.94,1095.78 2255.86,1095.78 2256.78,1095.78 2257.71,1095.78 2258.63,1095.78 2259.55,1095.78 2260.48,1095.78 2261.4,1095.78 2262.32,1095.78 2263.24,1095.78 2264.17,1095.78 2265.09,1095.78 2266.01,1095.78 2266.94,1095.78 2267.86,1095.78 2268.78,1095.78 2269.7,1095.78 2270.63,1095.78 2271.55,1095.78 2272.47,1095.78 2273.4,1095.78 2274.32,1095.78 2275.24,1095.78 2276.16,1095.78 2277.09,1095.78 2278.01,1095.78 2278.93,1095.78 2279.85,1095.78 2280.78,1095.78 2281.7,1095.78 2282.62,1095.78 2283.55,1095.78 2284.47,1095.78 2285.39,1095.78 2286.31,1095.78 2287.24,1095.78 2288.16,1095.78 2289.08,1095.78 2290.01,1095.78 2290.93,1095.78 2291.85,1095.78 2292.77,1095.78 2293.7,1095.78 2294.62,1095.78 2295.54,1095.78 2296.47,1095.78 2297.39,1095.78 2298.31,1095.78 2299.23,1095.78 2300.16,1095.78 2301.08,1095.78 2302,1095.78 2302.92,1095.78 2303.85,1095.78 2304.77,1095.78 2305.69,1095.78 2306.62,1095.78 2307.54,1095.78 2308.46,1095.78 2309.38,1095.78 2310.31,1095.78 2311.23,1095.78 2312.15,1095.78 2313.08,1095.78 2314,1095.78 2314.92,1095.78 2315.84,1095.78 2316.77,1095.78 2317.69,1095.78 2318.61,1095.78 2319.54,1095.78 2320.46,1095.78 2321.38,1095.78 2322.3,1095.78 2323.23,1095.78 2324.15,1095.78 2325.07,1095.78 2325.99,1095.78 2326.92,1095.78 2327.84,1095.78 2328.76,1095.78 2329.69,1095.78 2330.61,1095.78 2331.53,1095.78 2332.45,1095.78 2333.38,1095.78 2334.3,1095.78 2335.22,1095.78 2336.15,1095.78 2337.07,1095.78 2337.99,1095.78 2338.91,1095.78 2339.84,1095.78 2340.76,1095.78 2341.68,1095.78 2342.61,1095.78 2343.53,1095.78 2344.45,1095.78 2345.37,1095.78 2346.3,1095.78 2347.22,1095.78 2348.14,1095.78 2349.06,1095.78 2349.99,1095.78 2350.91,1095.78 2351.83,1095.78 2352.76,1095.78 "/>
<polyline clip-path="url(#clip402)" style="stroke:#e26f46; stroke-linecap:round; stroke-linejoin:round; stroke-width:8; stroke-opacity:1; fill:none" points="138.959,1384.24 139.882,1384.24 140.805,1384.24 141.728,1384.24 142.651,1384.24 143.573,1384.24 144.496,1384.24 145.419,1384.24 146.342,1384.24 147.265,1384.24 148.187,1384.24 149.11,1384.24 150.033,1384.24 150.956,1384.24 151.879,1384.24 152.801,1384.24 153.724,1384.24 154.647,1384.24 155.57,1384.24 156.493,1384.24 157.415,1384.24 158.338,1384.24 159.261,1384.24 160.184,1384.24 161.107,1384.24 162.029,1384.24 162.952,1384.24 163.875,1384.24 164.798,1384.24 165.721,1384.24 166.643,1384.24 167.566,1384.24 168.489,1384.24 169.412,1384.24 170.335,1384.24 171.257,1384.24 172.18,1384.24 173.103,1384.24 174.026,1384.24 174.949,1384.24 175.871,1384.24 176.794,1384.24 177.717,1384.24 178.64,1384.24 179.563,1384.24 180.485,1384.24 181.408,1384.24 182.331,1384.24 183.254,1384.24 184.177,1384.24 185.099,1384.24 186.022,1384.24 186.945,1384.24 187.868,1384.24 188.791,1384.24 189.713,1384.24 190.636,1384.24 191.559,1312.12 192.482,1312.12 193.405,1312.12 194.327,1312.12 195.25,1312.12 196.173,1312.12 197.096,1312.12 198.019,1312.12 198.941,1312.12 199.864,1312.12 200.787,1312.12 201.71,1312.12 202.633,1312.12 203.555,1312.12 204.478,1312.12 205.401,1312.12 206.324,1312.12 207.247,1312.12 208.169,1312.12 209.092,1312.12 210.015,1312.12 210.938,1312.12 211.861,1312.12 212.783,1312.12 213.706,1312.12 214.629,1312.12 215.552,1312.12 216.475,1312.12 217.397,1312.12 218.32,1312.12 219.243,1312.12 220.166,1312.12 221.089,1312.12 222.011,1312.12 222.934,1312.12 223.857,1312.12 224.78,1312.12 225.703,1312.12 226.625,1312.12 227.548,1312.12 228.471,1312.12 229.394,1312.12 230.317,1312.12 231.239,1312.12 232.162,1312.12 233.085,1240.01 234.008,1240.01 234.931,1240.01 235.853,1240.01 236.776,1240.01 237.699,1240.01 238.622,1240.01 239.545,1240.01 240.467,1240.01 241.39,1240.01 242.313,1240.01 243.236,1240.01 244.159,1240.01 245.081,1240.01 246.004,1240.01 246.927,1240.01 247.85,1240.01 248.773,1240.01 249.695,1240.01 250.618,1240.01 251.541,1240.01 252.464,1240.01 253.387,1240.01 254.309,1240.01 255.232,1240.01 256.155,1240.01 257.078,1240.01 258.001,1240.01 258.923,1240.01 259.846,1240.01 260.769,1240.01 261.692,1240.01 262.615,1240.01 263.537,1240.01 264.46,1240.01 265.383,1240.01 266.306,1240.01 267.229,1240.01 268.151,1240.01 269.074,1167.9 269.997,1167.9 270.92,1167.9 271.843,1167.9 272.765,1167.9 273.688,1167.9 274.611,1167.9 275.534,1167.9 276.457,1167.9 277.379,1167.9 278.302,1167.9 279.225,1167.9 280.148,1167.9 281.071,1167.9 281.993,1167.9 282.916,1167.9 283.839,1167.9 284.762,1167.9 285.685,1167.9 286.607,1167.9 287.53,1167.9 288.453,1167.9 289.376,1167.9 290.299,1167.9 291.221,1167.9 292.144,1167.9 293.067,1167.9 293.99,1167.9 294.913,1167.9 295.835,1167.9 296.758,1167.9 297.681,1167.9 298.604,1167.9 299.527,1167.9 300.449,1167.9 301.372,1167.9 302.295,1167.9 303.218,1167.9 304.141,1167.9 305.063,1167.9 305.986,1167.9 306.909,1167.9 307.832,1167.9 308.755,1167.9 309.677,1167.9 310.6,1167.9 311.523,1167.9 312.446,1167.9 313.369,1095.78 314.291,1095.78 315.214,1095.78 316.137,1095.78 317.06,1095.78 317.983,1095.78 318.905,1095.78 319.828,1095.78 320.751,1095.78 321.674,1095.78 322.597,1095.78 323.519,1095.78 324.442,1095.78 325.365,1095.78 326.288,1095.78 327.211,1095.78 328.133,1095.78 329.056,1095.78 329.979,1095.78 330.902,1095.78 331.825,1095.78 332.747,1095.78 333.67,1095.78 334.593,1095.78 335.516,1095.78 336.439,1095.78 337.361,1095.78 338.284,1095.78 339.207,1095.78 340.13,1095.78 341.053,1095.78 341.975,1095.78 342.898,1095.78 343.821,1095.78 344.744,1095.78 345.667,1095.78 346.589,1095.78 347.512,1095.78 348.435,1095.78 349.358,1095.78 350.281,1095.78 351.203,1095.78 352.126,1095.78 353.049,1095.78 353.972,1095.78 354.895,1095.78 355.817,1095.78 356.74,1095.78 357.663,1095.78 358.586,1095.78 359.509,1095.78 360.431,1095.78 361.354,1095.78 362.277,1095.78 363.2,1095.78 364.123,1095.78 365.045,1095.78 365.968,1095.78 366.891,1095.78 367.814,1095.78 368.737,1095.78 369.659,1095.78 370.582,1095.78 371.505,1095.78 372.428,1095.78 373.351,1095.78 374.273,1095.78 375.196,1095.78 376.119,1095.78 377.042,1095.78 377.965,1095.78 378.887,1095.78 379.81,1095.78 380.733,1095.78 381.656,1095.78 382.579,1095.78 383.501,1095.78 384.424,1095.78 385.347,1095.78 386.27,1095.78 387.193,1095.78 388.115,1095.78 389.038,1095.78 389.961,1095.78 390.884,1095.78 391.807,1095.78 392.729,1095.78 393.652,1095.78 394.575,1095.78 395.498,1095.78 396.421,1095.78 397.343,1095.78 398.266,1095.78 399.189,1095.78 400.112,1095.78 401.035,1095.78 401.957,1095.78 402.88,1095.78 403.803,1095.78 404.726,1095.78 405.649,1095.78 406.571,1095.78 407.494,1095.78 408.417,1095.78 409.34,1095.78 410.263,1095.78 411.185,1095.78 412.108,1095.78 413.031,1095.78 413.954,1095.78 414.877,1095.78 415.799,1095.78 416.722,1095.78 417.645,1095.78 418.568,1095.78 419.491,1095.78 420.413,1095.78 421.336,1095.78 422.259,1095.78 423.182,1095.78 424.105,1095.78 425.027,1095.78 425.95,1095.78 426.873,1095.78 427.796,1095.78 428.719,1095.78 429.641,1095.78 430.564,1095.78 431.487,1095.78 432.41,1095.78 433.333,1095.78 434.255,1095.78 435.178,1095.78 436.101,1095.78 437.024,1095.78 437.947,1095.78 438.869,1095.78 439.792,1095.78 440.715,1095.78 441.638,1095.78 442.561,1095.78 443.483,1095.78 444.406,1095.78 445.329,1095.78 446.252,1095.78 447.175,1095.78 448.097,1095.78 449.02,1095.78 449.943,1095.78 450.866,1095.78 451.789,1095.78 452.711,1095.78 453.634,1095.78 454.557,1095.78 455.48,1095.78 456.403,1095.78 457.325,1095.78 458.248,1095.78 459.171,1095.78 460.094,1095.78 461.017,1095.78 461.939,1095.78 462.862,1095.78 463.785,1095.78 464.708,1095.78 465.631,1095.78 466.553,1095.78 467.476,1095.78 468.399,1095.78 469.322,1095.78 470.245,1095.78 471.167,1095.78 472.09,1095.78 473.013,1095.78 473.936,1095.78 474.859,1095.78 475.781,1095.78 476.704,1095.78 477.627,1095.78 478.55,1095.78 479.473,1095.78 480.395,1095.78 481.318,1095.78 482.241,1095.78 483.164,1095.78 484.087,1095.78 485.009,1095.78 485.932,1095.78 486.855,1095.78 487.778,1095.78 488.701,1095.78 489.623,1095.78 490.546,1095.78 491.469,1095.78 492.392,1095.78 493.315,1095.78 494.237,1095.78 495.16,1095.78 496.083,1095.78 497.006,1095.78 497.929,1095.78 498.851,1095.78 499.774,1095.78 500.697,1095.78 501.62,1095.78 502.543,1095.78 503.465,1095.78 504.388,1095.78 505.311,1095.78 506.234,1095.78 507.157,1095.78 508.079,1095.78 509.002,1095.78 509.925,1095.78 510.848,1095.78 511.771,1095.78 512.693,1095.78 513.616,1095.78 514.539,1095.78 515.462,1095.78 516.385,1095.78 517.307,1095.78 518.23,1095.78 519.153,1095.78 520.076,1095.78 520.999,1095.78 521.921,1095.78 522.844,1095.78 523.767,1095.78 524.69,1095.78 525.613,1095.78 526.535,1095.78 527.458,1095.78 528.381,1095.78 529.304,1095.78 530.227,1095.78 531.149,1095.78 532.072,1095.78 532.995,1095.78 533.918,1095.78 534.841,1095.78 535.763,1095.78 536.686,1095.78 537.609,1095.78 538.532,1095.78 539.455,1095.78 540.377,1095.78 541.3,1095.78 542.223,1095.78 543.146,1095.78 544.069,1095.78 544.991,1095.78 545.914,1095.78 546.837,1095.78 547.76,1095.78 548.683,1095.78 549.605,1095.78 550.528,1095.78 551.451,1095.78 552.374,1095.78 553.297,1095.78 554.219,1095.78 555.142,1095.78 556.065,1095.78 556.988,1095.78 557.911,1095.78 558.833,1095.78 559.756,1095.78 560.679,1095.78 561.602,1095.78 562.524,1095.78 563.447,1095.78 564.37,1095.78 565.293,1095.78 566.216,1095.78 567.138,1095.78 568.061,1095.78 568.984,1095.78 569.907,1095.78 570.83,1095.78 571.752,1095.78 572.675,1095.78 573.598,1095.78 574.521,1095.78 575.444,1095.78 576.366,1095.78 577.289,1095.78 578.212,1095.78 579.135,1095.78 580.058,1095.78 580.98,1095.78 581.903,1095.78 582.826,1095.78 583.749,1095.78 584.672,1095.78 585.594,1095.78 586.517,1095.78 587.44,1095.78 588.363,1095.78 589.286,1095.78 590.208,1095.78 591.131,1095.78 592.054,1095.78 592.977,1095.78 593.9,1095.78 594.822,1095.78 595.745,1095.78 596.668,1095.78 597.591,1095.78 598.514,1095.78 599.436,1095.78 600.359,1095.78 601.282,1095.78 602.205,1095.78 603.128,1095.78 604.05,1095.78 604.973,1095.78 605.896,1095.78 606.819,1095.78 607.742,1095.78 608.664,1095.78 609.587,1095.78 610.51,1095.78 611.433,1095.78 612.356,1095.78 613.278,1095.78 614.201,1095.78 615.124,1095.78 616.047,1095.78 616.97,1095.78 617.892,1095.78 618.815,1095.78 619.738,1095.78 620.661,1095.78 621.584,1095.78 622.506,1095.78 623.429,1095.78 624.352,1095.78 625.275,1095.78 626.198,1095.78 627.12,1095.78 628.043,1095.78 628.966,1095.78 629.889,1095.78 630.812,1095.78 631.734,1095.78 632.657,1095.78 633.58,1095.78 634.503,1095.78 635.426,1095.78 636.348,1095.78 637.271,1095.78 638.194,1095.78 639.117,1095.78 640.04,1095.78 640.962,1095.78 641.885,1095.78 642.808,1095.78 643.731,1095.78 644.654,1095.78 645.576,1095.78 646.499,1095.78 647.422,1095.78 648.345,1095.78 649.268,1095.78 650.19,1095.78 651.113,1095.78 652.036,1095.78 652.959,1095.78 653.882,1095.78 654.804,1095.78 655.727,1095.78 656.65,1095.78 657.573,1095.78 658.496,1095.78 659.418,1095.78 660.341,1095.78 661.264,1095.78 662.187,1095.78 663.11,1095.78 664.032,1095.78 664.955,1095.78 665.878,1095.78 666.801,1095.78 667.724,1095.78 668.646,1095.78 669.569,1095.78 670.492,1095.78 671.415,1095.78 672.338,1095.78 673.26,1095.78 674.183,1095.78 675.106,1095.78 676.029,1095.78 676.952,1095.78 677.874,1095.78 678.797,1095.78 679.72,1095.78 680.643,1095.78 681.566,1095.78 682.488,1095.78 683.411,1095.78 684.334,1095.78 685.257,1095.78 686.18,1095.78 687.102,1095.78 688.025,1095.78 688.948,1095.78 689.871,1095.78 690.794,1095.78 691.716,1095.78 692.639,1095.78 693.562,1095.78 694.485,1095.78 695.408,1095.78 696.33,1095.78 697.253,1095.78 698.176,1095.78 699.099,1095.78 700.022,1095.78 700.944,1095.78 701.867,1095.78 702.79,1095.78 703.713,1095.78 704.636,1095.78 705.558,1095.78 706.481,1095.78 707.404,1095.78 708.327,1095.78 709.25,1095.78 710.172,1095.78 711.095,1095.78 712.018,1095.78 712.941,1095.78 713.864,1095.78 714.786,1095.78 715.709,1095.78 716.632,1095.78 717.555,1095.78 718.478,1095.78 719.4,1095.78 720.323,1095.78 721.246,1095.78 722.169,1095.78 723.092,1095.78 724.014,1095.78 724.937,1095.78 725.86,1095.78 726.783,1095.78 727.706,1095.78 728.628,1095.78 729.551,1095.78 730.474,1095.78 731.397,1095.78 732.32,1095.78 733.242,1095.78 734.165,1095.78 735.088,1095.78 736.011,1095.78 736.934,1095.78 737.856,1095.78 738.779,1095.78 739.702,1095.78 740.625,1095.78 741.548,1095.78 742.47,1095.78 743.393,1095.78 744.316,1095.78 745.239,1095.78 746.162,1095.78 747.084,1095.78 748.007,1095.78 748.93,1095.78 749.853,1095.78 750.776,1095.78 751.698,1095.78 752.621,1095.78 753.544,1095.78 754.467,1095.78 755.39,1095.78 756.312,1095.78 757.235,1095.78 758.158,1095.78 759.081,1095.78 760.004,1095.78 760.926,1095.78 761.849,1095.78 762.772,1095.78 763.695,1095.78 764.618,1095.78 765.54,1095.78 766.463,1095.78 767.386,1095.78 768.309,1095.78 769.232,1095.78 770.154,1095.78 771.077,1095.78 772,1095.78 772.923,1095.78 773.846,1095.78 774.768,1095.78 775.691,1095.78 776.614,1095.78 777.537,1095.78 778.46,1095.78 779.382,1095.78 780.305,1095.78 781.228,1095.78 782.151,1095.78 783.074,1095.78 783.996,1095.78 784.919,1095.78 785.842,1095.78 786.765,1095.78 787.688,1095.78 788.61,1095.78 789.533,1095.78 790.456,1095.78 791.379,1095.78 792.302,1095.78 793.224,1095.78 794.147,1095.78 795.07,1095.78 795.993,1095.78 796.916,1095.78 797.838,1095.78 798.761,1095.78 799.684,1095.78 800.607,1095.78 801.53,1095.78 802.452,1095.78 803.375,1095.78 804.298,1095.78 805.221,1095.78 806.144,1095.78 807.066,1095.78 807.989,1095.78 808.912,1023.67 809.835,1023.67 810.758,1023.67 811.68,1023.67 812.603,1023.67 813.526,1023.67 814.449,1023.67 815.372,1023.67 816.294,1023.67 817.217,1023.67 818.14,1023.67 819.063,1023.67 819.986,1023.67 820.908,1023.67 821.831,1023.67 822.754,1023.67 823.677,1023.67 824.6,1023.67 825.522,1023.67 826.445,1023.67 827.368,1023.67 828.291,1023.67 829.214,1023.67 830.136,1023.67 831.059,1023.67 831.982,1023.67 832.905,1023.67 833.828,1023.67 834.75,1023.67 835.673,1023.67 836.596,1023.67 837.519,1023.67 838.442,1023.67 839.364,1023.67 840.287,1023.67 841.21,1023.67 842.133,1023.67 843.056,1023.67 843.978,1023.67 844.901,1023.67 845.824,1023.67 846.747,1023.67 847.67,1023.67 848.592,1023.67 849.515,1023.67 850.438,1023.67 851.361,1023.67 852.284,1023.67 853.206,1023.67 854.129,1023.67 855.052,1023.67 855.975,1023.67 856.898,1023.67 857.82,1023.67 858.743,1023.67 859.666,1023.67 860.589,1023.67 861.512,1023.67 862.434,1023.67 863.357,1023.67 864.28,1023.67 865.203,1023.67 866.126,1023.67 867.048,1023.67 867.971,1023.67 868.894,1023.67 869.817,1023.67 870.74,1023.67 871.662,1023.67 872.585,1023.67 873.508,1023.67 874.431,1023.67 875.354,1023.67 876.276,1023.67 877.199,1023.67 878.122,1023.67 879.045,1023.67 879.968,1023.67 880.89,1023.67 881.813,1023.67 882.736,1023.67 883.659,1023.67 884.582,1023.67 885.504,1023.67 886.427,1023.67 887.35,1023.67 888.273,1023.67 889.196,1023.67 890.118,1023.67 891.041,1023.67 891.964,1023.67 892.887,1023.67 893.81,1023.67 894.732,1023.67 895.655,1023.67 896.578,1023.67 897.501,1023.67 898.424,1023.67 899.346,1023.67 900.269,1023.67 901.192,1023.67 902.115,1023.67 903.038,1023.67 903.96,1023.67 904.883,1023.67 905.806,1023.67 906.729,1023.67 907.652,1023.67 908.574,1023.67 909.497,1023.67 910.42,1023.67 911.343,1023.67 912.266,1023.67 913.188,1023.67 914.111,1023.67 915.034,1023.67 915.957,1023.67 916.88,1023.67 917.802,1023.67 918.725,1023.67 919.648,1023.67 920.571,1023.67 921.494,1023.67 922.416,1023.67 923.339,1023.67 924.262,1023.67 925.185,1023.67 926.108,1023.67 927.03,1023.67 927.953,1023.67 928.876,1023.67 929.799,1023.67 930.722,1023.67 931.644,1023.67 932.567,1023.67 933.49,1023.67 934.413,1023.67 935.336,1023.67 936.258,1023.67 937.181,1023.67 938.104,1023.67 939.027,1023.67 939.95,1023.67 940.872,1023.67 941.795,1023.67 942.718,1023.67 943.641,1023.67 944.564,1023.67 945.486,1023.67 946.409,1023.67 947.332,1023.67 948.255,1023.67 949.178,1023.67 950.1,1023.67 951.023,1023.67 951.946,951.554 952.869,951.554 953.792,951.554 954.714,951.554 955.637,951.554 956.56,951.554 957.483,951.554 958.406,951.554 959.328,951.554 960.251,951.554 961.174,951.554 962.097,951.554 963.02,951.554 963.942,951.554 964.865,951.554 965.788,951.554 966.711,951.554 967.634,951.554 968.556,951.554 969.479,951.554 970.402,951.554 971.325,951.554 972.248,951.554 973.17,951.554 974.093,951.554 975.016,951.554 975.939,951.554 976.862,951.554 977.784,951.554 978.707,951.554 979.63,951.554 980.553,951.554 981.476,951.554 982.398,951.554 983.321,951.554 984.244,951.554 985.167,951.554 986.09,951.554 987.012,951.554 987.935,951.554 988.858,951.554 989.781,951.554 990.704,951.554 991.626,951.554 992.549,951.554 993.472,951.554 994.395,951.554 995.318,951.554 996.24,879.44 997.163,879.44 998.086,879.44 999.009,879.44 999.932,879.44 1000.85,879.44 1001.78,879.44 1002.7,879.44 1003.62,879.44 1004.55,879.44 1005.47,807.326 1006.39,807.326 1007.31,807.326 1008.24,807.326 1009.16,807.326 1010.08,807.326 1011.01,807.326 1011.93,807.326 1012.85,807.326 1013.77,807.326 1014.7,807.326 1015.62,807.326 1016.54,807.326 1017.46,807.326 1018.39,807.326 1019.31,807.326 1020.23,807.326 1021.16,807.326 1022.08,807.326 1023,807.326 1023.92,807.326 1024.85,807.326 1025.77,807.326 1026.69,807.326 1027.62,807.326 1028.54,807.326 1029.46,807.326 1030.38,807.326 1031.31,807.326 1032.23,807.326 1033.15,807.326 1034.08,807.326 1035,807.326 1035.92,807.326 1036.84,807.326 1037.77,807.326 1038.69,807.326 1039.61,807.326 1040.53,807.326 1041.46,807.326 1042.38,807.326 1043.3,807.326 1044.23,807.326 1045.15,807.326 1046.07,807.326 1046.99,807.326 1047.92,807.326 1048.84,807.326 1049.76,807.326 1050.69,807.326 1051.61,807.326 1052.53,807.326 1053.45,807.326 1054.38,807.326 1055.3,807.326 1056.22,807.326 1057.15,807.326 1058.07,807.326 1058.99,807.326 1059.91,807.326 1060.84,807.326 1061.76,807.326 1062.68,807.326 1063.6,807.326 1064.53,807.326 1065.45,807.326 1066.37,807.326 1067.3,807.326 1068.22,807.326 1069.14,807.326 1070.06,807.326 1070.99,807.326 1071.91,807.326 1072.83,807.326 1073.76,807.326 1074.68,807.326 1075.6,807.326 1076.52,807.326 1077.45,807.326 1078.37,807.326 1079.29,807.326 1080.22,807.326 1081.14,807.326 1082.06,807.326 1082.98,807.326 1083.91,807.326 1084.83,807.326 1085.75,807.326 1086.67,807.326 1087.6,807.326 1088.52,807.326 1089.44,807.326 1090.37,807.326 1091.29,807.326 1092.21,807.326 1093.13,807.326 1094.06,807.326 1094.98,807.326 1095.9,807.326 1096.83,807.326 1097.75,807.326 1098.67,807.326 1099.59,807.326 1100.52,807.326 1101.44,807.326 1102.36,807.326 1103.29,807.326 1104.21,807.326 1105.13,807.326 1106.05,807.326 1106.98,807.326 1107.9,807.326 1108.82,807.326 1109.74,807.326 1110.67,807.326 1111.59,807.326 1112.51,807.326 1113.44,807.326 1114.36,807.326 1115.28,807.326 1116.2,807.326 1117.13,807.326 1118.05,807.326 1118.97,807.326 1119.9,807.326 1120.82,807.326 1121.74,807.326 1122.66,807.326 1123.59,807.326 1124.51,807.326 1125.43,807.326 1126.36,807.326 1127.28,807.326 1128.2,807.326 1129.12,807.326 1130.05,807.326 1130.97,807.326 1131.89,807.326 1132.81,807.326 1133.74,807.326 1134.66,807.326 1135.58,807.326 1136.51,807.326 1137.43,807.326 1138.35,807.326 1139.27,807.326 1140.2,807.326 1141.12,807.326 1142.04,807.326 1142.97,807.326 1143.89,807.326 1144.81,807.326 1145.73,807.326 1146.66,807.326 1147.58,807.326 1148.5,807.326 1149.43,807.326 1150.35,807.326 1151.27,807.326 1152.19,807.326 1153.12,807.326 1154.04,807.326 1154.96,807.326 1155.88,807.326 1156.81,807.326 1157.73,807.326 1158.65,807.326 1159.58,807.326 1160.5,807.326 1161.42,807.326 1162.34,807.326 1163.27,807.326 1164.19,807.326 1165.11,807.326 1166.04,807.326 1166.96,807.326 1167.88,807.326 1168.8,807.326 1169.73,807.326 1170.65,807.326 1171.57,807.326 1172.5,807.326 1173.42,807.326 1174.34,807.326 1175.26,807.326 1176.19,807.326 1177.11,807.326 1178.03,807.326 1178.95,807.326 1179.88,807.326 1180.8,807.326 1181.72,807.326 1182.65,807.326 1183.57,807.326 1184.49,807.326 1185.41,807.326 1186.34,807.326 1187.26,807.326 1188.18,807.326 1189.11,807.326 1190.03,807.326 1190.95,807.326 1191.87,807.326 1192.8,807.326 1193.72,807.326 1194.64,807.326 1195.57,807.326 1196.49,807.326 1197.41,807.326 1198.33,735.212 1199.26,735.212 1200.18,735.212 1201.1,735.212 1202.02,735.212 1202.95,735.212 1203.87,735.212 1204.79,735.212 1205.72,735.212 1206.64,735.212 1207.56,735.212 1208.48,735.212 1209.41,735.212 1210.33,735.212 1211.25,735.212 1212.18,735.212 1213.1,735.212 1214.02,735.212 1214.94,735.212 1215.87,735.212 1216.79,735.212 1217.71,735.212 1218.64,735.212 1219.56,735.212 1220.48,735.212 1221.4,735.212 1222.33,735.212 1223.25,735.212 1224.17,735.212 1225.09,735.212 1226.02,735.212 1226.94,735.212 1227.86,735.212 1228.79,735.212 1229.71,735.212 1230.63,735.212 1231.55,663.098 1232.48,663.098 1233.4,663.098 1234.32,663.098 1235.25,663.098 1236.17,663.098 1237.09,663.098 1238.01,663.098 1238.94,663.098 1239.86,663.098 1240.78,663.098 1241.71,663.098 1242.63,663.098 1243.55,663.098 1244.47,663.098 1245.4,663.098 1246.32,663.098 1247.24,663.098 1248.16,663.098 1249.09,663.098 1250.01,663.098 1250.93,663.098 1251.86,663.098 1252.78,663.098 1253.7,663.098 1254.62,663.098 1255.55,663.098 1256.47,663.098 1257.39,663.098 1258.32,663.098 1259.24,663.098 1260.16,663.098 1261.08,663.098 1262.01,663.098 1262.93,663.098 1263.85,663.098 1264.78,663.098 1265.7,663.098 1266.62,663.098 1267.54,663.098 1268.47,663.098 1269.39,663.098 1270.31,663.098 1271.23,663.098 1272.16,663.098 1273.08,663.098 1274,663.098 1274.93,663.098 1275.85,663.098 1276.77,663.098 1277.69,663.098 1278.62,663.098 1279.54,663.098 1280.46,663.098 1281.39,663.098 1282.31,663.098 1283.23,663.098 1284.15,663.098 1285.08,663.098 1286,663.098 1286.92,663.098 1287.85,590.984 1288.77,590.984 1289.69,590.984 1290.61,590.984 1291.54,590.984 1292.46,590.984 1293.38,590.984 1294.3,590.984 1295.23,590.984 1296.15,590.984 1297.07,590.984 1298,590.984 1298.92,590.984 1299.84,590.984 1300.76,590.984 1301.69,590.984 1302.61,590.984 1303.53,590.984 1304.46,590.984 1305.38,590.984 1306.3,590.984 1307.22,590.984 1308.15,590.984 1309.07,590.984 1309.99,590.984 1310.92,590.984 1311.84,590.984 1312.76,590.984 1313.68,590.984 1314.61,590.984 1315.53,590.984 1316.45,590.984 1317.37,590.984 1318.3,590.984 1319.22,590.984 1320.14,590.984 1321.07,590.984 1321.99,590.984 1322.91,590.984 1323.83,590.984 1324.76,590.984 1325.68,590.984 1326.6,590.984 1327.53,590.984 1328.45,590.984 1329.37,590.984 1330.29,590.984 1331.22,590.984 1332.14,590.984 1333.06,590.984 1333.99,590.984 1334.91,590.984 1335.83,590.984 1336.75,590.984 1337.68,590.984 1338.6,590.984 1339.52,590.984 1340.44,590.984 1341.37,590.984 1342.29,590.984 1343.21,590.984 1344.14,590.984 1345.06,590.984 1345.98,590.984 1346.9,590.984 1347.83,590.984 1348.75,590.984 1349.67,590.984 1350.6,590.984 1351.52,590.984 1352.44,590.984 1353.36,590.984 1354.29,590.984 1355.21,590.984 1356.13,590.984 1357.06,590.984 1357.98,590.984 1358.9,590.984 1359.82,590.984 1360.75,590.984 1361.67,590.984 1362.59,590.984 1363.51,590.984 1364.44,590.984 1365.36,590.984 1366.28,590.984 1367.21,590.984 1368.13,590.984 1369.05,590.984 1369.97,590.984 1370.9,590.984 1371.82,590.984 1372.74,590.984 1373.67,590.984 1374.59,590.984 1375.51,590.984 1376.43,590.984 1377.36,590.984 1378.28,590.984 1379.2,590.984 1380.13,590.984 1381.05,590.984 1381.97,590.984 1382.89,590.984 1383.82,590.984 1384.74,590.984 1385.66,590.984 1386.58,590.984 1387.51,590.984 1388.43,590.984 1389.35,590.984 1390.28,590.984 1391.2,590.984 1392.12,590.984 1393.04,590.984 1393.97,590.984 1394.89,590.984 1395.81,590.984 1396.74,590.984 1397.66,590.984 1398.58,590.984 1399.5,590.984 1400.43,590.984 1401.35,590.984 1402.27,590.984 1403.2,590.984 1404.12,590.984 1405.04,590.984 1405.96,590.984 1406.89,518.87 1407.81,518.87 1408.73,518.87 1409.65,518.87 1410.58,518.87 1411.5,518.87 1412.42,518.87 1413.35,518.87 1414.27,518.87 1415.19,518.87 1416.11,518.87 1417.04,518.87 1417.96,518.87 1418.88,518.87 1419.81,518.87 1420.73,518.87 1421.65,518.87 1422.57,518.87 1423.5,518.87 1424.42,518.87 1425.34,518.87 1426.27,518.87 1427.19,518.87 1428.11,518.87 1429.03,518.87 1429.96,518.87 1430.88,518.87 1431.8,518.87 1432.72,518.87 1433.65,518.87 1434.57,518.87 1435.49,518.87 1436.42,518.87 1437.34,518.87 1438.26,518.87 1439.18,518.87 1440.11,518.87 1441.03,518.87 1441.95,518.87 1442.88,518.87 1443.8,518.87 1444.72,518.87 1445.64,518.87 1446.57,518.87 1447.49,518.87 1448.41,518.87 1449.34,518.87 1450.26,518.87 1451.18,518.87 1452.1,518.87 1453.03,518.87 1453.95,518.87 1454.87,518.87 1455.79,518.87 1456.72,518.87 1457.64,518.87 1458.56,518.87 1459.49,518.87 1460.41,518.87 1461.33,518.87 1462.25,518.87 1463.18,518.87 1464.1,518.87 1465.02,518.87 1465.95,518.87 1466.87,518.87 1467.79,518.87 1468.71,518.87 1469.64,518.87 1470.56,518.87 1471.48,518.87 1472.4,518.87 1473.33,518.87 1474.25,518.87 1475.17,518.87 1476.1,518.87 1477.02,518.87 1477.94,518.87 1478.86,518.87 1479.79,518.87 1480.71,518.87 1481.63,518.87 1482.56,518.87 1483.48,518.87 1484.4,518.87 1485.32,518.87 1486.25,518.87 1487.17,518.87 1488.09,518.87 1489.02,518.87 1489.94,518.87 1490.86,518.87 1491.78,518.87 1492.71,518.87 1493.63,518.87 1494.55,518.87 1495.47,518.87 1496.4,518.87 1497.32,518.87 1498.24,518.87 1499.17,518.87 1500.09,518.87 1501.01,518.87 1501.93,518.87 1502.86,518.87 1503.78,518.87 1504.7,518.87 1505.63,518.87 1506.55,518.87 1507.47,518.87 1508.39,518.87 1509.32,518.87 1510.24,518.87 1511.16,518.87 1512.09,518.87 1513.01,518.87 1513.93,518.87 1514.85,518.87 1515.78,518.87 1516.7,518.87 1517.62,518.87 1518.54,518.87 1519.47,518.87 1520.39,518.87 1521.31,518.87 1522.24,518.87 1523.16,518.87 1524.08,518.87 1525,518.87 1525.93,518.87 1526.85,518.87 1527.77,518.87 1528.7,518.87 1529.62,518.87 1530.54,518.87 1531.46,518.87 1532.39,518.87 1533.31,518.87 1534.23,518.87 1535.16,518.87 1536.08,518.87 1537,518.87 1537.92,518.87 1538.85,518.87 1539.77,518.87 1540.69,518.87 1541.61,518.87 1542.54,518.87 1543.46,518.87 1544.38,518.87 1545.31,518.87 1546.23,518.87 1547.15,518.87 1548.07,518.87 1549,518.87 1549.92,518.87 1550.84,518.87 1551.77,518.87 1552.69,518.87 1553.61,518.87 1554.53,518.87 1555.46,518.87 1556.38,518.87 1557.3,518.87 1558.23,518.87 1559.15,518.87 1560.07,518.87 1560.99,518.87 1561.92,518.87 1562.84,518.87 1563.76,518.87 1564.68,518.87 1565.61,518.87 1566.53,518.87 1567.45,518.87 1568.38,518.87 1569.3,518.87 1570.22,518.87 1571.14,518.87 1572.07,518.87 1572.99,518.87 1573.91,518.87 1574.84,518.87 1575.76,446.756 1576.68,446.756 1577.6,446.756 1578.53,446.756 1579.45,446.756 1580.37,446.756 1581.3,446.756 1582.22,446.756 1583.14,446.756 1584.06,446.756 1584.99,446.756 1585.91,446.756 1586.83,446.756 1587.75,446.756 1588.68,446.756 1589.6,446.756 1590.52,446.756 1591.45,446.756 1592.37,446.756 1593.29,446.756 1594.21,446.756 1595.14,446.756 1596.06,446.756 1596.98,446.756 1597.91,446.756 1598.83,446.756 1599.75,446.756 1600.67,446.756 1601.6,446.756 1602.52,446.756 1603.44,446.756 1604.37,446.756 1605.29,446.756 1606.21,446.756 1607.13,446.756 1608.06,446.756 1608.98,446.756 1609.9,446.756 1610.82,446.756 1611.75,446.756 1612.67,446.756 1613.59,446.756 1614.52,446.756 1615.44,446.756 1616.36,446.756 1617.28,446.756 1618.21,446.756 1619.13,446.756 1620.05,446.756 1620.98,446.756 1621.9,446.756 1622.82,446.756 1623.74,446.756 1624.67,446.756 1625.59,446.756 1626.51,446.756 1627.44,446.756 1628.36,446.756 1629.28,446.756 1630.2,446.756 1631.13,446.756 1632.05,446.756 1632.97,446.756 1633.89,446.756 1634.82,446.756 1635.74,446.756 1636.66,446.756 1637.59,446.756 1638.51,446.756 1639.43,446.756 1640.35,446.756 1641.28,446.756 1642.2,446.756 1643.12,446.756 1644.05,446.756 1644.97,374.642 1645.89,374.642 1646.81,374.642 1647.74,374.642 1648.66,374.642 1649.58,374.642 1650.51,374.642 1651.43,374.642 1652.35,374.642 1653.27,374.642 1654.2,374.642 1655.12,374.642 1656.04,374.642 1656.96,374.642 1657.89,374.642 1658.81,374.642 1659.73,374.642 1660.66,374.642 1661.58,374.642 1662.5,374.642 1663.42,374.642 1664.35,374.642 1665.27,374.642 1666.19,374.642 1667.12,374.642 1668.04,374.642 1668.96,374.642 1669.88,374.642 1670.81,374.642 1671.73,374.642 1672.65,374.642 1673.58,374.642 1674.5,374.642 1675.42,374.642 1676.34,374.642 1677.27,374.642 1678.19,374.642 1679.11,374.642 1680.03,374.642 1680.96,374.642 1681.88,374.642 1682.8,374.642 1683.73,374.642 1684.65,374.642 1685.57,374.642 1686.49,374.642 1687.42,374.642 1688.34,374.642 1689.26,374.642 1690.19,374.642 1691.11,374.642 1692.03,374.642 1692.95,374.642 1693.88,374.642 1694.8,374.642 1695.72,374.642 1696.65,374.642 1697.57,374.642 1698.49,374.642 1699.41,374.642 1700.34,374.642 1701.26,374.642 1702.18,374.642 1703.1,374.642 1704.03,374.642 1704.95,374.642 1705.87,374.642 1706.8,374.642 1707.72,374.642 1708.64,374.642 1709.56,374.642 1710.49,374.642 1711.41,374.642 1712.33,374.642 1713.26,374.642 1714.18,374.642 1715.1,374.642 1716.02,374.642 1716.95,374.642 1717.87,374.642 1718.79,374.642 1719.72,374.642 1720.64,374.642 1721.56,374.642 1722.48,374.642 1723.41,374.642 1724.33,374.642 1725.25,374.642 1726.17,374.642 1727.1,374.642 1728.02,374.642 1728.94,374.642 1729.87,374.642 1730.79,374.642 1731.71,374.642 1732.63,374.642 1733.56,374.642 1734.48,374.642 1735.4,374.642 1736.33,374.642 1737.25,374.642 1738.17,374.642 1739.09,374.642 1740.02,374.642 1740.94,374.642 1741.86,374.642 1742.79,374.642 1743.71,374.642 1744.63,374.642 1745.55,374.642 1746.48,374.642 1747.4,374.642 1748.32,374.642 1749.24,374.642 1750.17,374.642 1751.09,374.642 1752.01,374.642 1752.94,374.642 1753.86,374.642 1754.78,374.642 1755.7,374.642 1756.63,374.642 1757.55,374.642 1758.47,374.642 1759.4,374.642 1760.32,374.642 1761.24,374.642 1762.16,374.642 1763.09,374.642 1764.01,374.642 1764.93,374.642 1765.86,374.642 1766.78,374.642 1767.7,374.642 1768.62,374.642 1769.55,374.642 1770.47,374.642 1771.39,374.642 1772.31,374.642 1773.24,374.642 1774.16,374.642 1775.08,374.642 1776.01,374.642 1776.93,374.642 1777.85,374.642 1778.77,374.642 1779.7,374.642 1780.62,374.642 1781.54,374.642 1782.47,374.642 1783.39,374.642 1784.31,374.642 1785.23,374.642 1786.16,374.642 1787.08,374.642 1788,374.642 1788.93,374.642 1789.85,374.642 1790.77,374.642 1791.69,374.642 1792.62,374.642 1793.54,374.642 1794.46,374.642 1795.38,374.642 1796.31,374.642 1797.23,374.642 1798.15,374.642 1799.08,374.642 1800,374.642 1800.92,374.642 1801.84,374.642 1802.77,374.642 1803.69,374.642 1804.61,374.642 1805.54,374.642 1806.46,374.642 1807.38,374.642 1808.3,374.642 1809.23,374.642 1810.15,374.642 1811.07,374.642 1812,374.642 1812.92,374.642 1813.84,374.642 1814.76,374.642 1815.69,374.642 1816.61,374.642 1817.53,374.642 1818.45,374.642 1819.38,374.642 1820.3,374.642 1821.22,374.642 1822.15,374.642 1823.07,374.642 1823.99,374.642 1824.91,374.642 1825.84,374.642 1826.76,374.642 1827.68,374.642 1828.61,374.642 1829.53,374.642 1830.45,374.642 1831.37,374.642 1832.3,374.642 1833.22,374.642 1834.14,374.642 1835.07,374.642 1835.99,374.642 1836.91,374.642 1837.83,374.642 1838.76,374.642 1839.68,374.642 1840.6,374.642 1841.52,374.642 1842.45,374.642 1843.37,374.642 1844.29,374.642 1845.22,374.642 1846.14,374.642 1847.06,374.642 1847.98,374.642 1848.91,374.642 1849.83,374.642 1850.75,374.642 1851.68,374.642 1852.6,374.642 1853.52,374.642 1854.44,374.642 1855.37,374.642 1856.29,374.642 1857.21,374.642 1858.14,374.642 1859.06,374.642 1859.98,374.642 1860.9,374.642 1861.83,374.642 1862.75,374.642 1863.67,374.642 1864.59,374.642 1865.52,374.642 1866.44,374.642 1867.36,374.642 1868.29,374.642 1869.21,374.642 1870.13,374.642 1871.05,374.642 1871.98,374.642 1872.9,374.642 1873.82,374.642 1874.75,374.642 1875.67,374.642 1876.59,374.642 1877.51,374.642 1878.44,374.642 1879.36,374.642 1880.28,374.642 1881.21,374.642 1882.13,374.642 1883.05,374.642 1883.97,374.642 1884.9,374.642 1885.82,374.642 1886.74,374.642 1887.66,374.642 1888.59,374.642 1889.51,374.642 1890.43,374.642 1891.36,374.642 1892.28,374.642 1893.2,374.642 1894.12,374.642 1895.05,374.642 1895.97,374.642 1896.89,374.642 1897.82,374.642 1898.74,374.642 1899.66,374.642 1900.58,374.642 1901.51,374.642 1902.43,374.642 1903.35,374.642 1904.28,374.642 1905.2,374.642 1906.12,374.642 1907.04,374.642 1907.97,374.642 1908.89,374.642 1909.81,374.642 1910.73,374.642 1911.66,374.642 1912.58,374.642 1913.5,374.642 1914.43,374.642 1915.35,374.642 1916.27,374.642 1917.19,374.642 1918.12,374.642 1919.04,374.642 1919.96,374.642 1920.89,374.642 1921.81,374.642 1922.73,374.642 1923.65,374.642 1924.58,374.642 1925.5,374.642 1926.42,374.642 1927.35,374.642 1928.27,374.642 1929.19,374.642 1930.11,374.642 1931.04,374.642 1931.96,374.642 1932.88,374.642 1933.8,374.642 1934.73,374.642 1935.65,374.642 1936.57,374.642 1937.5,374.642 1938.42,374.642 1939.34,374.642 1940.26,374.642 1941.19,302.528 1942.11,302.528 1943.03,302.528 1943.96,302.528 1944.88,302.528 1945.8,302.528 1946.72,302.528 1947.65,302.528 1948.57,302.528 1949.49,302.528 1950.42,302.528 1951.34,302.528 1952.26,302.528 1953.18,302.528 1954.11,302.528 1955.03,302.528 1955.95,302.528 1956.87,302.528 1957.8,302.528 1958.72,302.528 1959.64,302.528 1960.57,302.528 1961.49,302.528 1962.41,302.528 1963.33,302.528 1964.26,302.528 1965.18,302.528 1966.1,302.528 1967.03,302.528 1967.95,302.528 1968.87,302.528 1969.79,302.528 1970.72,302.528 1971.64,302.528 1972.56,302.528 1973.49,302.528 1974.41,302.528 1975.33,302.528 1976.25,302.528 1977.18,302.528 1978.1,302.528 1979.02,302.528 1979.94,302.528 1980.87,302.528 1981.79,302.528 1982.71,302.528 1983.64,302.528 1984.56,302.528 1985.48,302.528 1986.4,302.528 1987.33,302.528 1988.25,302.528 1989.17,230.414 1990.1,230.414 1991.02,230.414 1991.94,230.414 1992.86,230.414 1993.79,230.414 1994.71,230.414 1995.63,230.414 1996.56,230.414 1997.48,230.414 1998.4,230.414 1999.32,230.414 2000.25,230.414 2001.17,230.414 2002.09,230.414 2003.01,230.414 2003.94,230.414 2004.86,230.414 2005.78,230.414 2006.71,230.414 2007.63,230.414 2008.55,230.414 2009.47,230.414 2010.4,230.414 2011.32,230.414 2012.24,230.414 2013.17,230.414 2014.09,230.414 2015.01,230.414 2015.93,230.414 2016.86,230.414 2017.78,230.414 2018.7,230.414 2019.63,230.414 2020.55,230.414 2021.47,230.414 2022.39,230.414 2023.32,230.414 2024.24,230.414 2025.16,230.414 2026.08,230.414 2027.01,230.414 2027.93,230.414 2028.85,230.414 2029.78,230.414 2030.7,230.414 2031.62,230.414 2032.54,230.414 2033.47,230.414 2034.39,230.414 2035.31,230.414 2036.24,230.414 2037.16,230.414 2038.08,230.414 2039,230.414 2039.93,230.414 2040.85,230.414 2041.77,230.414 2042.7,230.414 2043.62,230.414 2044.54,230.414 2045.46,230.414 2046.39,230.414 2047.31,230.414 2048.23,230.414 2049.15,230.414 2050.08,230.414 2051,230.414 2051.92,230.414 2052.85,230.414 2053.77,230.414 2054.69,230.414 2055.61,230.414 2056.54,230.414 2057.46,230.414 2058.38,230.414 2059.31,230.414 2060.23,230.414 2061.15,230.414 2062.07,230.414 2063,158.3 2063.92,158.3 2064.84,158.3 2065.77,158.3 2066.69,158.3 2067.61,158.3 2068.53,158.3 2069.46,158.3 2070.38,158.3 2071.3,158.3 2072.22,158.3 2073.15,158.3 2074.07,158.3 2074.99,158.3 2075.92,158.3 2076.84,158.3 2077.76,158.3 2078.68,158.3 2079.61,158.3 2080.53,158.3 2081.45,158.3 2082.38,158.3 2083.3,158.3 2084.22,158.3 2085.14,158.3 2086.07,158.3 2086.99,158.3 2087.91,158.3 2088.84,158.3 2089.76,158.3 2090.68,158.3 2091.6,158.3 2092.53,158.3 2093.45,158.3 2094.37,158.3 2095.29,158.3 2096.22,158.3 2097.14,158.3 2098.06,158.3 2098.99,158.3 2099.91,158.3 2100.83,158.3 2101.75,158.3 2102.68,158.3 2103.6,158.3 2104.52,158.3 2105.45,158.3 2106.37,158.3 2107.29,158.3 2108.21,158.3 2109.14,158.3 2110.06,158.3 2110.98,158.3 2111.91,158.3 2112.83,158.3 2113.75,158.3 2114.67,158.3 2115.6,158.3 2116.52,158.3 2117.44,158.3 2118.36,158.3 2119.29,158.3 2120.21,158.3 2121.13,158.3 2122.06,158.3 2122.98,158.3 2123.9,158.3 2124.82,158.3 2125.75,158.3 2126.67,158.3 2127.59,158.3 2128.52,158.3 2129.44,158.3 2130.36,158.3 2131.28,158.3 2132.21,158.3 2133.13,158.3 2134.05,158.3 2134.98,158.3 2135.9,158.3 2136.82,158.3 2137.74,158.3 2138.67,158.3 2139.59,158.3 2140.51,158.3 2141.43,158.3 2142.36,158.3 2143.28,158.3 2144.2,158.3 2145.13,158.3 2146.05,158.3 2146.97,158.3 2147.89,158.3 2148.82,158.3 2149.74,158.3 2150.66,158.3 2151.59,158.3 2152.51,158.3 2153.43,158.3 2154.35,158.3 2155.28,158.3 2156.2,158.3 2157.12,158.3 2158.05,158.3 2158.97,158.3 2159.89,158.3 2160.81,158.3 2161.74,158.3 2162.66,158.3 2163.58,158.3 2164.5,158.3 2165.43,158.3 2166.35,158.3 2167.27,158.3 2168.2,158.3 2169.12,158.3 2170.04,158.3 2170.96,158.3 2171.89,158.3 2172.81,158.3 2173.73,158.3 2174.66,158.3 2175.58,158.3 2176.5,158.3 2177.42,158.3 2178.35,158.3 2179.27,158.3 2180.19,158.3 2181.12,158.3 2182.04,158.3 2182.96,158.3 2183.88,158.3 2184.81,158.3 2185.73,158.3 2186.65,158.3 2187.57,158.3 2188.5,158.3 2189.42,158.3 2190.34,158.3 2191.27,158.3 2192.19,158.3 2193.11,158.3 2194.03,158.3 2194.96,158.3 2195.88,158.3 2196.8,158.3 2197.73,158.3 2198.65,158.3 2199.57,158.3 2200.49,158.3 2201.42,158.3 2202.34,158.3 2203.26,158.3 2204.19,158.3 2205.11,158.3 2206.03,158.3 2206.95,158.3 2207.88,158.3 2208.8,158.3 2209.72,158.3 2210.64,158.3 2211.57,158.3 2212.49,86.1857 2213.41,86.1857 2214.34,86.1857 2215.26,86.1857 2216.18,86.1857 2217.1,86.1857 2218.03,86.1857 2218.95,86.1857 2219.87,86.1857 2220.8,86.1857 2221.72,86.1857 2222.64,86.1857 2223.56,86.1857 2224.49,86.1857 2225.41,86.1857 2226.33,86.1857 2227.26,86.1857 2228.18,86.1857 2229.1,86.1857 2230.02,86.1857 2230.95,86.1857 2231.87,86.1857 2232.79,86.1857 2233.71,86.1857 2234.64,86.1857 2235.56,86.1857 2236.48,86.1857 2237.41,86.1857 2238.33,86.1857 2239.25,86.1857 2240.17,86.1857 2241.1,86.1857 2242.02,86.1857 2242.94,86.1857 2243.87,86.1857 2244.79,86.1857 2245.71,86.1857 2246.63,86.1857 2247.56,86.1857 2248.48,86.1857 2249.4,86.1857 2250.33,86.1857 2251.25,86.1857 2252.17,86.1857 2253.09,86.1857 2254.02,86.1857 2254.94,86.1857 2255.86,86.1857 2256.78,86.1857 2257.71,86.1857 2258.63,86.1857 2259.55,86.1857 2260.48,86.1857 2261.4,86.1857 2262.32,86.1857 2263.24,86.1857 2264.17,86.1857 2265.09,86.1857 2266.01,86.1857 2266.94,86.1857 2267.86,86.1857 2268.78,86.1857 2269.7,86.1857 2270.63,86.1857 2271.55,86.1857 2272.47,86.1857 2273.4,86.1857 2274.32,86.1857 2275.24,86.1857 2276.16,86.1857 2277.09,86.1857 2278.01,86.1857 2278.93,86.1857 2279.85,86.1857 2280.78,86.1857 2281.7,86.1857 2282.62,86.1857 2283.55,86.1857 2284.47,86.1857 2285.39,86.1857 2286.31,86.1857 2287.24,86.1857 2288.16,86.1857 2289.08,86.1857 2290.01,86.1857 2290.93,86.1857 2291.85,86.1857 2292.77,86.1857 2293.7,86.1857 2294.62,86.1857 2295.54,86.1857 2296.47,86.1857 2297.39,86.1857 2298.31,86.1857 2299.23,86.1857 2300.16,86.1857 2301.08,86.1857 2302,86.1857 2302.92,86.1857 2303.85,86.1857 2304.77,86.1857 2305.69,86.1857 2306.62,86.1857 2307.54,86.1857 2308.46,86.1857 2309.38,86.1857 2310.31,86.1857 2311.23,86.1857 2312.15,86.1857 2313.08,86.1857 2314,86.1857 2314.92,86.1857 2315.84,86.1857 2316.77,86.1857 2317.69,86.1857 2318.61,86.1857 2319.54,86.1857 2320.46,86.1857 2321.38,86.1857 2322.3,86.1857 2323.23,86.1857 2324.15,86.1857 2325.07,86.1857 2325.99,86.1857 2326.92,86.1857 2327.84,86.1857 2328.76,86.1857 2329.69,86.1857 2330.61,86.1857 2331.53,86.1857 2332.45,86.1857 2333.38,86.1857 2334.3,86.1857 2335.22,86.1857 2336.15,86.1857 2337.07,86.1857 2337.99,86.1857 2338.91,86.1857 2339.84,86.1857 2340.76,86.1857 2341.68,86.1857 2342.61,86.1857 2343.53,86.1857 2344.45,86.1857 2345.37,86.1857 2346.3,86.1857 2347.22,86.1857 2348.14,86.1857 2349.06,86.1857 2349.99,86.1857 2350.91,86.1857 2351.83,86.1857 2352.76,86.1857 "/>
<path clip-path="url(#clip400)" d="M212.753 248.629 L570.312 248.629 L570.312 93.1086 L212.753 93.1086  Z" fill="#ffffff" fill-rule="evenodd" fill-opacity="1"/>
<polyline clip-path="url(#clip400)" style="stroke:#000000; stroke-linecap:round; stroke-linejoin:round; stroke-width:4; stroke-opacity:1; fill:none" points="212.753,248.629 570.312,248.629 570.312,93.1086 212.753,93.1086 212.753,248.629 "/>
<polyline clip-path="url(#clip400)" style="stroke:#009af9; stroke-linecap:round; stroke-linejoin:round; stroke-width:8; stroke-opacity:1; fill:none" points="237.35,144.949 384.937,144.949 "/>
<path clip-path="url(#clip400)" d="M409.535 127.669 L415.831 127.669 L431.155 156.581 L431.155 127.669 L435.692 127.669 L435.692 162.229 L429.396 162.229 L414.072 133.317 L414.072 162.229 L409.535 162.229 L409.535 127.669 Z" fill="#000000" fill-rule="nonzero" fill-opacity="1" /><path clip-path="url(#clip400)" d="M464.511 170.099 L464.511 173.409 L439.882 173.409 L439.882 170.099 L464.511 170.099 Z" fill="#000000" fill-rule="nonzero" fill-opacity="1" /><path clip-path="url(#clip400)" d="M469.928 158.293 L477.567 158.293 L477.567 131.928 L469.256 133.595 L469.256 129.335 L477.52 127.669 L482.196 127.669 L482.196 158.293 L489.835 158.293 L489.835 162.229 L469.928 162.229 L469.928 158.293 Z" fill="#000000" fill-rule="nonzero" fill-opacity="1" /><path clip-path="url(#clip400)" d="M508.909 126.257 Q505.807 131.581 504.303 136.789 Q502.798 141.997 502.798 147.344 Q502.798 152.692 504.303 157.946 Q505.83 163.178 508.909 168.479 L505.205 168.479 Q501.733 163.039 499.997 157.784 Q498.284 152.53 498.284 147.344 Q498.284 142.182 499.997 136.951 Q501.71 131.72 505.205 126.257 L508.909 126.257 Z" fill="#000000" fill-rule="nonzero" fill-opacity="1" /><path clip-path="url(#clip400)" d="M521.386 128.942 L521.386 136.303 L530.159 136.303 L530.159 139.613 L521.386 139.613 L521.386 153.687 Q521.386 156.858 522.242 157.761 Q523.122 158.664 525.784 158.664 L530.159 158.664 L530.159 162.229 L525.784 162.229 Q520.853 162.229 518.978 160.4 Q517.103 158.548 517.103 153.687 L517.103 139.613 L513.978 139.613 L513.978 136.303 L517.103 136.303 L517.103 128.942 L521.386 128.942 Z" fill="#000000" fill-rule="nonzero" fill-opacity="1" /><path clip-path="url(#clip400)" d="M535.089 126.257 L538.793 126.257 Q542.265 131.72 543.978 136.951 Q545.714 142.182 545.714 147.344 Q545.714 152.53 543.978 157.784 Q542.265 163.039 538.793 168.479 L535.089 168.479 Q538.168 163.178 539.673 157.946 Q541.201 152.692 541.201 147.344 Q541.201 141.997 539.673 136.789 Q538.168 131.581 535.089 126.257 Z" fill="#000000" fill-rule="nonzero" fill-opacity="1" /><polyline clip-path="url(#clip400)" style="stroke:#e26f46; stroke-linecap:round; stroke-linejoin:round; stroke-width:8; stroke-opacity:1; fill:none" points="237.35,196.789 384.937,196.789 "/>
<path clip-path="url(#clip400)" d="M409.535 179.509 L415.831 179.509 L431.155 208.421 L431.155 179.509 L435.692 179.509 L435.692 214.069 L429.396 214.069 L414.072 185.157 L414.072 214.069 L409.535 214.069 L409.535 179.509 Z" fill="#000000" fill-rule="nonzero" fill-opacity="1" /><path clip-path="url(#clip400)" d="M464.511 221.939 L464.511 225.249 L439.882 225.249 L439.882 221.939 L464.511 221.939 Z" fill="#000000" fill-rule="nonzero" fill-opacity="1" /><path clip-path="url(#clip400)" d="M473.145 210.133 L489.465 210.133 L489.465 214.069 L467.52 214.069 L467.52 210.133 Q470.182 207.379 474.766 202.749 Q479.372 198.096 480.553 196.754 Q482.798 194.231 483.678 192.495 Q484.58 190.735 484.58 189.046 Q484.58 186.291 482.636 184.555 Q480.715 182.819 477.613 182.819 Q475.414 182.819 472.96 183.583 Q470.53 184.347 467.752 185.897 L467.752 181.175 Q470.576 180.041 473.03 179.462 Q475.483 178.884 477.52 178.884 Q482.891 178.884 486.085 181.569 Q489.28 184.254 489.28 188.745 Q489.28 190.874 488.469 192.796 Q487.682 194.694 485.576 197.286 Q484.997 197.958 481.895 201.175 Q478.793 204.37 473.145 210.133 Z" fill="#000000" fill-rule="nonzero" fill-opacity="1" /><path clip-path="url(#clip400)" d="M508.909 178.097 Q505.807 183.421 504.303 188.629 Q502.798 193.837 502.798 199.184 Q502.798 204.532 504.303 209.786 Q505.83 215.018 508.909 220.319 L505.205 220.319 Q501.733 214.879 499.997 209.624 Q498.284 204.37 498.284 199.184 Q498.284 194.022 499.997 188.791 Q501.71 183.56 505.205 178.097 L508.909 178.097 Z" fill="#000000" fill-rule="nonzero" fill-opacity="1" /><path clip-path="url(#clip400)" d="M521.386 180.782 L521.386 188.143 L530.159 188.143 L530.159 191.453 L521.386 191.453 L521.386 205.527 Q521.386 208.698 522.242 209.601 Q523.122 210.504 525.784 210.504 L530.159 210.504 L530.159 214.069 L525.784 214.069 Q520.853 214.069 518.978 212.24 Q517.103 210.388 517.103 205.527 L517.103 191.453 L513.978 191.453 L513.978 188.143 L517.103 188.143 L517.103 180.782 L521.386 180.782 Z" fill="#000000" fill-rule="nonzero" fill-opacity="1" /><path clip-path="url(#clip400)" d="M535.089 178.097 L538.793 178.097 Q542.265 183.56 543.978 188.791 Q545.714 194.022 545.714 199.184 Q545.714 204.37 543.978 209.624 Q542.265 214.879 538.793 220.319 L535.089 220.319 Q538.168 215.018 539.673 209.786 Q541.201 204.532 541.201 199.184 Q541.201 193.837 539.673 188.629 Q538.168 183.421 535.089 178.097 Z" fill="#000000" fill-rule="nonzero" fill-opacity="1" /></svg>
