<?xml version="1.0" encoding="utf-8"?>
<svg xmlns="http://www.w3.org/2000/svg" xmlns:xlink="http://www.w3.org/1999/xlink" width="600" height="400" viewBox="0 0 2400 1600">
<defs>
  <clipPath id="clip550">
    <rect x="0" y="0" width="2400" height="1600"/>
  </clipPath>
</defs>
<path clip-path="url(#clip550)" d="M0 1600 L2400 1600 L2400 0 L0 0  Z" fill="#ffffff" fill-rule="evenodd" fill-opacity="1"/>
<defs>
  <clipPath id="clip551">
    <rect x="480" y="0" width="1681" height="1600"/>
  </clipPath>
</defs>
<path clip-path="url(#clip550)" d="M112.177 1423.18 L2352.76 1423.18 L2352.76 47.2441 L112.177 47.2441  Z" fill="#ffffff" fill-rule="evenodd" fill-opacity="1"/>
<defs>
  <clipPath id="clip552">
    <rect x="112" y="47" width="2242" height="1377"/>
  </clipPath>
</defs>
<polyline clip-path="url(#clip552)" style="stroke:#000000; stroke-linecap:round; stroke-linejoin:round; stroke-width:2; stroke-opacity:0.1; fill:none" points="112.177,1423.18 112.177,47.2441 "/>
<polyline clip-path="url(#clip552)" style="stroke:#000000; stroke-linecap:round; stroke-linejoin:round; stroke-width:2; stroke-opacity:0.1; fill:none" points="560.293,1423.18 560.293,47.2441 "/>
<polyline clip-path="url(#clip552)" style="stroke:#000000; stroke-linecap:round; stroke-linejoin:round; stroke-width:2; stroke-opacity:0.1; fill:none" points="1008.41,1423.18 1008.41,47.2441 "/>
<polyline clip-path="url(#clip552)" style="stroke:#000000; stroke-linecap:round; stroke-linejoin:round; stroke-width:2; stroke-opacity:0.1; fill:none" points="1456.52,1423.18 1456.52,47.2441 "/>
<polyline clip-path="url(#clip552)" style="stroke:#000000; stroke-linecap:round; stroke-linejoin:round; stroke-width:2; stroke-opacity:0.1; fill:none" points="1904.64,1423.18 1904.64,47.2441 "/>
<polyline clip-path="url(#clip552)" style="stroke:#000000; stroke-linecap:round; stroke-linejoin:round; stroke-width:2; stroke-opacity:0.1; fill:none" points="2352.76,1423.18 2352.76,47.2441 "/>
<polyline clip-path="url(#clip552)" style="stroke:#000000; stroke-linecap:round; stroke-linejoin:round; stroke-width:2; stroke-opacity:0.1; fill:none" points="112.177,1396.56 2352.76,1396.56 "/>
<polyline clip-path="url(#clip552)" style="stroke:#000000; stroke-linecap:round; stroke-linejoin:round; stroke-width:2; stroke-opacity:0.1; fill:none" points="112.177,1039.86 2352.76,1039.86 "/>
<polyline clip-path="url(#clip552)" style="stroke:#000000; stroke-linecap:round; stroke-linejoin:round; stroke-width:2; stroke-opacity:0.1; fill:none" points="112.177,683.17 2352.76,683.17 "/>
<polyline clip-path="url(#clip552)" style="stroke:#000000; stroke-linecap:round; stroke-linejoin:round; stroke-width:2; stroke-opacity:0.1; fill:none" points="112.177,326.475 2352.76,326.475 "/>
<polyline clip-path="url(#clip550)" style="stroke:#000000; stroke-linecap:round; stroke-linejoin:round; stroke-width:4; stroke-opacity:1; fill:none" points="112.177,1423.18 2352.76,1423.18 "/>
<polyline clip-path="url(#clip550)" style="stroke:#000000; stroke-linecap:round; stroke-linejoin:round; stroke-width:4; stroke-opacity:1; fill:none" points="112.177,1423.18 112.177,1404.28 "/>
<polyline clip-path="url(#clip550)" style="stroke:#000000; stroke-linecap:round; stroke-linejoin:round; stroke-width:4; stroke-opacity:1; fill:none" points="560.293,1423.18 560.293,1404.28 "/>
<polyline clip-path="url(#clip550)" style="stroke:#000000; stroke-linecap:round; stroke-linejoin:round; stroke-width:4; stroke-opacity:1; fill:none" points="1008.41,1423.18 1008.41,1404.28 "/>
<polyline clip-path="url(#clip550)" style="stroke:#000000; stroke-linecap:round; stroke-linejoin:round; stroke-width:4; stroke-opacity:1; fill:none" points="1456.52,1423.18 1456.52,1404.28 "/>
<polyline clip-path="url(#clip550)" style="stroke:#000000; stroke-linecap:round; stroke-linejoin:round; stroke-width:4; stroke-opacity:1; fill:none" points="1904.64,1423.18 1904.64,1404.28 "/>
<polyline clip-path="url(#clip550)" style="stroke:#000000; stroke-linecap:round; stroke-linejoin:round; stroke-width:4; stroke-opacity:1; fill:none" points="2352.76,1423.18 2352.76,1404.28 "/>
<path clip-path="url(#clip550)" d="M112.177 1454.1 Q108.566 1454.1 106.737 1457.66 Q104.932 1461.2 104.932 1468.33 Q104.932 1475.44 106.737 1479.01 Q108.566 1482.55 112.177 1482.55 Q115.811 1482.55 117.617 1479.01 Q119.446 1475.44 119.446 1468.33 Q119.446 1461.2 117.617 1457.66 Q115.811 1454.1 112.177 1454.1 M112.177 1450.39 Q117.987 1450.39 121.043 1455 Q124.122 1459.58 124.122 1468.33 Q124.122 1477.06 121.043 1481.67 Q117.987 1486.25 112.177 1486.25 Q106.367 1486.25 103.288 1481.67 Q100.233 1477.06 100.233 1468.33 Q100.233 1459.58 103.288 1455 Q106.367 1450.39 112.177 1450.39 Z" fill="#000000" fill-rule="nonzero" fill-opacity="1" /><path clip-path="url(#clip550)" d="M554.946 1481.64 L571.265 1481.64 L571.265 1485.58 L549.321 1485.58 L549.321 1481.64 Q551.983 1478.89 556.566 1474.26 Q561.173 1469.61 562.353 1468.27 Q564.598 1465.74 565.478 1464.01 Q566.381 1462.25 566.381 1460.56 Q566.381 1457.8 564.436 1456.07 Q562.515 1454.33 559.413 1454.33 Q557.214 1454.33 554.761 1455.09 Q552.33 1455.86 549.552 1457.41 L549.552 1452.69 Q552.376 1451.55 554.83 1450.97 Q557.284 1450.39 559.321 1450.39 Q564.691 1450.39 567.885 1453.08 Q571.08 1455.77 571.08 1460.26 Q571.08 1462.39 570.27 1464.31 Q569.483 1466.2 567.376 1468.8 Q566.798 1469.47 563.696 1472.69 Q560.594 1475.88 554.946 1481.64 Z" fill="#000000" fill-rule="nonzero" fill-opacity="1" /><path clip-path="url(#clip550)" d="M1011.42 1455.09 L999.612 1473.54 L1011.42 1473.54 L1011.42 1455.09 M1010.19 1451.02 L1016.07 1451.02 L1016.07 1473.54 L1021 1473.54 L1021 1477.43 L1016.07 1477.43 L1016.07 1485.58 L1011.42 1485.58 L1011.42 1477.43 L995.816 1477.43 L995.816 1472.92 L1010.19 1451.02 Z" fill="#000000" fill-rule="nonzero" fill-opacity="1" /><path clip-path="url(#clip550)" d="M1456.93 1466.44 Q1453.78 1466.44 1451.93 1468.59 Q1450.1 1470.74 1450.1 1474.49 Q1450.1 1478.22 1451.93 1480.39 Q1453.78 1482.55 1456.93 1482.55 Q1460.08 1482.55 1461.91 1480.39 Q1463.76 1478.22 1463.76 1474.49 Q1463.76 1470.74 1461.91 1468.59 Q1460.08 1466.44 1456.93 1466.44 M1466.21 1451.78 L1466.21 1456.04 Q1464.45 1455.21 1462.65 1454.77 Q1460.86 1454.33 1459.11 1454.33 Q1454.48 1454.33 1452.02 1457.45 Q1449.59 1460.58 1449.24 1466.9 Q1450.61 1464.89 1452.67 1463.82 Q1454.73 1462.73 1457.21 1462.73 Q1462.42 1462.73 1465.42 1465.9 Q1468.46 1469.05 1468.46 1474.49 Q1468.46 1479.82 1465.31 1483.03 Q1462.16 1486.25 1456.93 1486.25 Q1450.93 1486.25 1447.76 1481.67 Q1444.59 1477.06 1444.59 1468.33 Q1444.59 1460.14 1448.48 1455.28 Q1452.37 1450.39 1458.92 1450.39 Q1460.68 1450.39 1462.46 1450.74 Q1464.27 1451.09 1466.21 1451.78 Z" fill="#000000" fill-rule="nonzero" fill-opacity="1" /><path clip-path="url(#clip550)" d="M1904.64 1469.17 Q1901.31 1469.17 1899.39 1470.95 Q1897.49 1472.73 1897.49 1475.86 Q1897.49 1478.98 1899.39 1480.77 Q1901.31 1482.55 1904.64 1482.55 Q1907.97 1482.55 1909.89 1480.77 Q1911.82 1478.96 1911.82 1475.86 Q1911.82 1472.73 1909.89 1470.95 Q1908 1469.17 1904.64 1469.17 M1899.96 1467.18 Q1896.96 1466.44 1895.27 1464.38 Q1893.6 1462.32 1893.6 1459.35 Q1893.6 1455.21 1896.54 1452.8 Q1899.5 1450.39 1904.64 1450.39 Q1909.8 1450.39 1912.74 1452.8 Q1915.68 1455.21 1915.68 1459.35 Q1915.68 1462.32 1913.99 1464.38 Q1912.33 1466.44 1909.34 1467.18 Q1912.72 1467.96 1914.59 1470.26 Q1916.49 1472.55 1916.49 1475.86 Q1916.49 1480.88 1913.41 1483.57 Q1910.36 1486.25 1904.64 1486.25 Q1898.92 1486.25 1895.84 1483.57 Q1892.79 1480.88 1892.79 1475.86 Q1892.79 1472.55 1894.69 1470.26 Q1896.58 1467.96 1899.96 1467.18 M1898.25 1459.79 Q1898.25 1462.48 1899.92 1463.98 Q1901.61 1465.49 1904.64 1465.49 Q1907.65 1465.49 1909.34 1463.98 Q1911.05 1462.48 1911.05 1459.79 Q1911.05 1457.11 1909.34 1455.6 Q1907.65 1454.1 1904.64 1454.1 Q1901.61 1454.1 1899.92 1455.6 Q1898.25 1457.11 1898.25 1459.79 Z" fill="#000000" fill-rule="nonzero" fill-opacity="1" /><path clip-path="url(#clip550)" d="M2327.44 1481.64 L2335.08 1481.64 L2335.08 1455.28 L2326.77 1456.95 L2326.77 1452.69 L2335.04 1451.02 L2339.71 1451.02 L2339.71 1481.64 L2347.35 1481.64 L2347.35 1485.58 L2327.44 1485.58 L2327.44 1481.64 Z" fill="#000000" fill-rule="nonzero" fill-opacity="1" /><path clip-path="url(#clip550)" d="M2366.8 1454.1 Q2363.18 1454.1 2361.36 1457.66 Q2359.55 1461.2 2359.55 1468.33 Q2359.55 1475.44 2361.36 1479.01 Q2363.18 1482.55 2366.8 1482.55 Q2370.43 1482.55 2372.23 1479.01 Q2374.06 1475.44 2374.06 1468.33 Q2374.06 1461.2 2372.23 1457.66 Q2370.43 1454.1 2366.8 1454.1 M2366.8 1450.39 Q2372.61 1450.39 2375.66 1455 Q2378.74 1459.58 2378.74 1468.33 Q2378.74 1477.06 2375.66 1481.67 Q2372.61 1486.25 2366.8 1486.25 Q2360.99 1486.25 2357.91 1481.67 Q2354.85 1477.06 2354.85 1468.33 Q2354.85 1459.58 2357.91 1455 Q2360.99 1450.39 2366.8 1450.39 Z" fill="#000000" fill-rule="nonzero" fill-opacity="1" /><path clip-path="url(#clip550)" d="M1231.53 1522.27 L1231.53 1532.4 L1243.59 1532.4 L1243.59 1536.95 L1231.53 1536.95 L1231.53 1556.3 Q1231.53 1560.66 1232.71 1561.9 Q1233.91 1563.14 1237.58 1563.14 L1243.59 1563.14 L1243.59 1568.04 L1237.58 1568.04 Q1230.8 1568.04 1228.22 1565.53 Q1225.64 1562.98 1225.64 1556.3 L1225.64 1536.95 L1221.34 1536.95 L1221.34 1532.4 L1225.64 1532.4 L1225.64 1522.27 L1231.53 1522.27 Z" fill="#000000" fill-rule="nonzero" fill-opacity="1" /><polyline clip-path="url(#clip550)" style="stroke:#000000; stroke-linecap:round; stroke-linejoin:round; stroke-width:4; stroke-opacity:1; fill:none" points="112.177,1423.18 112.177,47.2441 "/>
<polyline clip-path="url(#clip550)" style="stroke:#000000; stroke-linecap:round; stroke-linejoin:round; stroke-width:4; stroke-opacity:1; fill:none" points="112.177,1396.56 131.075,1396.56 "/>
<polyline clip-path="url(#clip550)" style="stroke:#000000; stroke-linecap:round; stroke-linejoin:round; stroke-width:4; stroke-opacity:1; fill:none" points="112.177,1039.86 131.075,1039.86 "/>
<polyline clip-path="url(#clip550)" style="stroke:#000000; stroke-linecap:round; stroke-linejoin:round; stroke-width:4; stroke-opacity:1; fill:none" points="112.177,683.17 131.075,683.17 "/>
<polyline clip-path="url(#clip550)" style="stroke:#000000; stroke-linecap:round; stroke-linejoin:round; stroke-width:4; stroke-opacity:1; fill:none" points="112.177,326.475 131.075,326.475 "/>
<path clip-path="url(#clip550)" d="M64.2328 1382.36 Q60.6217 1382.36 58.793 1385.92 Q56.9875 1389.46 56.9875 1396.59 Q56.9875 1403.7 58.793 1407.27 Q60.6217 1410.81 64.2328 1410.81 Q67.867 1410.81 69.6726 1407.27 Q71.5013 1403.7 71.5013 1396.59 Q71.5013 1389.46 69.6726 1385.92 Q67.867 1382.36 64.2328 1382.36 M64.2328 1378.65 Q70.0429 1378.65 73.0985 1383.26 Q76.1772 1387.84 76.1772 1396.59 Q76.1772 1405.32 73.0985 1409.93 Q70.0429 1414.51 64.2328 1414.51 Q58.4226 1414.51 55.344 1409.93 Q52.2884 1405.32 52.2884 1396.59 Q52.2884 1387.84 55.344 1383.26 Q58.4226 1378.65 64.2328 1378.65 Z" fill="#000000" fill-rule="nonzero" fill-opacity="1" /><path clip-path="url(#clip550)" d="M59.8578 1053.21 L76.1772 1053.21 L76.1772 1057.14 L54.2328 1057.14 L54.2328 1053.21 Q56.8949 1050.45 61.4782 1045.83 Q66.0846 1041.17 67.2652 1039.83 Q69.5105 1037.31 70.3902 1035.57 Q71.2929 1033.81 71.2929 1032.12 Q71.2929 1029.37 69.3485 1027.63 Q67.4272 1025.89 64.3254 1025.89 Q62.1263 1025.89 59.6726 1026.66 Q57.2421 1027.42 54.4643 1028.97 L54.4643 1024.25 Q57.2884 1023.12 59.7421 1022.54 Q62.1958 1021.96 64.2328 1021.96 Q69.6031 1021.96 72.7976 1024.64 Q75.992 1027.33 75.992 1031.82 Q75.992 1033.95 75.1818 1035.87 Q74.3948 1037.77 72.2883 1040.36 Q71.7096 1041.03 68.6078 1044.25 Q65.5059 1047.45 59.8578 1053.21 Z" fill="#000000" fill-rule="nonzero" fill-opacity="1" /><path clip-path="url(#clip550)" d="M66.5939 669.964 L54.7884 688.413 L66.5939 688.413 L66.5939 669.964 M65.367 665.89 L71.2466 665.89 L71.2466 688.413 L76.1772 688.413 L76.1772 692.302 L71.2466 692.302 L71.2466 700.45 L66.5939 700.45 L66.5939 692.302 L50.9921 692.302 L50.9921 687.788 L65.367 665.89 Z" fill="#000000" fill-rule="nonzero" fill-opacity="1" /><path clip-path="url(#clip550)" d="M64.6495 324.611 Q61.5013 324.611 59.6495 326.764 Q57.8208 328.917 57.8208 332.667 Q57.8208 336.394 59.6495 338.57 Q61.5013 340.722 64.6495 340.722 Q67.7976 340.722 69.6263 338.57 Q71.4781 336.394 71.4781 332.667 Q71.4781 328.917 69.6263 326.764 Q67.7976 324.611 64.6495 324.611 M73.9318 309.959 L73.9318 314.218 Q72.1726 313.385 70.367 312.945 Q68.5846 312.505 66.8254 312.505 Q62.1958 312.505 59.7421 315.63 Q57.3115 318.755 56.9643 325.074 Q58.33 323.06 60.3902 321.996 Q62.4504 320.908 64.9272 320.908 Q70.1355 320.908 73.1448 324.079 Q76.1772 327.227 76.1772 332.667 Q76.1772 337.991 73.029 341.208 Q69.8809 344.426 64.6495 344.426 Q58.6541 344.426 55.4828 339.843 Q52.3116 335.236 52.3116 326.509 Q52.3116 318.315 56.2004 313.454 Q60.0893 308.57 66.6402 308.57 Q68.3994 308.57 70.1818 308.917 Q71.9874 309.264 73.9318 309.959 Z" fill="#000000" fill-rule="nonzero" fill-opacity="1" /><polyline clip-path="url(#clip552)" style="stroke:#009af9; stroke-linecap:round; stroke-linejoin:round; stroke-width:8; stroke-opacity:1; fill:none" points="112.177,1360.89 114.42,1360.53 116.663,1360.17 118.906,1359.8 121.148,1359.43 123.391,1359.06 125.634,1358.68 127.877,1358.3 130.12,1357.92 132.363,1357.53 134.605,1357.13 136.848,1356.74 139.091,1356.34 141.334,1355.93 143.577,1355.52 145.819,1355.11 148.062,1354.69 150.305,1354.27 152.548,1353.85 154.791,1353.42 157.034,1352.98 159.276,1352.55 161.519,1352.1 163.762,1351.66 166.005,1351.2 168.248,1350.75 170.491,1350.29 172.733,1349.82 174.976,1349.35 177.219,1348.88 179.462,1348.4 181.705,1347.91 183.947,1347.42 186.19,1346.93 188.433,1346.43 190.676,1345.92 192.919,1345.41 195.162,1344.9 197.404,1344.38 199.647,1343.86 201.89,1343.33 204.133,1342.79 206.376,1342.25 208.619,1341.7 210.861,1341.15 213.104,1340.59 215.347,1340.03 217.59,1339.46 219.833,1338.89 222.075,1367.43 224.318,1367.14 226.561,1366.84 228.804,1366.55 231.047,1366.24 233.29,1365.94 235.532,1365.63 237.775,1365.32 240.018,1365 242.261,1364.69 244.504,1364.37 246.746,1364.04 248.989,1363.72 251.232,1363.39 253.475,1363.05 255.718,1362.71 257.961,1362.37 260.203,1362.03 262.446,1361.68 264.689,1361.33 266.932,1360.98 269.175,1360.62 271.418,1360.26 273.66,1359.89 275.903,1359.52 278.146,1359.15 280.389,1358.77 282.632,1358.39 284.874,1358.01 287.117,1357.62 289.36,1357.23 291.603,1356.84 293.846,1356.44 296.089,1356.03 298.331,1355.62 300.574,1355.21 302.817,1354.8 305.06,1354.38 307.303,1353.95 309.545,1353.52 311.788,1353.09 314.031,1352.65 316.274,1352.21 318.517,1351.77 320.76,1351.31 323.002,1350.86 325.245,1350.4 327.488,1349.94 329.731,1349.47 331.974,1348.99 334.217,1348.51 336.459,1348.03 338.702,1347.54 340.945,1347.05 343.188,1346.55 345.431,1346.05 347.673,1345.54 349.916,1345.03 352.159,1344.51 354.402,1343.98 356.645,1343.46 358.888,1342.92 361.13,1342.38 363.373,1341.84 365.616,1341.29 367.859,1340.73 370.102,1340.17 372.344,1339.6 374.587,1339.03 376.83,1338.45 379.073,1337.87 381.316,1337.27 383.559,1336.68 385.801,1336.08 388.044,1335.47 390.287,1334.85 392.53,1334.23 394.773,1333.61 397.016,1332.97 399.258,1332.33 401.501,1331.69 403.744,1331.03 405.987,1330.37 408.23,1329.71 410.472,1329.04 412.715,1328.36 414.958,1327.67 417.201,1326.98 419.444,1326.28 421.687,1325.57 423.929,1324.86 426.172,1324.13 428.415,1323.41 430.658,1322.67 432.901,1321.93 435.143,1321.18 437.386,1320.42 439.629,1319.65 441.872,1318.88 444.115,1318.1 446.358,1317.31 448.6,1316.51 450.843,1315.7 453.086,1314.89 455.329,1314.07 457.572,1313.24 459.815,1312.4 462.057,1311.55 464.3,1310.7 466.543,1309.84 468.786,1308.96 471.029,1308.08 473.271,1307.19 475.514,1306.29 477.757,1305.38 480,1304.47 482.243,1303.54 484.486,1302.6 486.728,1301.66 488.971,1300.7 491.214,1299.74 493.457,1298.77 495.7,1297.78 497.942,1296.79 500.185,1295.79 502.428,1294.77 504.671,1293.75 506.914,1292.71 509.157,1291.67 511.399,1290.61 513.642,1289.55 515.885,1288.47 518.128,1287.38 520.371,1286.29 522.614,1285.18 524.856,1284.06 527.099,1282.92 529.342,1281.78 531.585,1280.63 533.828,1279.46 536.07,1278.28 538.313,1277.09 540.556,1275.89 542.799,1274.68 545.042,1273.45 547.285,1272.21 549.527,1270.96 551.77,1269.7 554.013,1268.42 556.256,1267.13 558.499,1265.83 560.741,1264.51 562.984,1263.19 565.227,1261.84 567.47,1260.49 569.713,1259.12 571.956,1257.74 574.198,1256.34 576.441,1254.93 578.684,1253.5 580.927,1252.07 583.17,1250.61 585.413,1249.14 587.655,1247.66 589.898,1246.16 592.141,1244.65 594.384,1243.12 596.627,1241.58 598.869,1240.02 601.112,1238.44 603.355,1236.85 605.598,1235.25 607.841,1233.62 610.084,1231.98 612.326,1230.33 614.569,1228.66 616.812,1226.97 619.055,1225.26 621.298,1223.54 623.54,1221.8 625.783,1220.04 628.026,1218.26 630.269,1216.47 632.512,1305.61 634.755,1304.69 636.997,1303.77 639.24,1302.84 641.483,1301.89 643.726,1300.94 645.969,1299.98 648.212,1299.01 650.454,1298.03 652.697,1297.03 654.94,1296.03 657.183,1295.02 659.426,1294 661.668,1292.97 663.911,1291.93 666.154,1290.87 668.397,1289.81 670.64,1288.74 672.883,1287.65 675.125,1286.56 677.368,1285.45 679.611,1284.33 681.854,1283.2 684.097,1282.06 686.339,1280.91 688.582,1279.75 690.825,1278.57 693.068,1277.38 695.311,1276.19 697.554,1274.97 699.796,1273.75 702.039,1272.52 704.282,1271.27 706.525,1270.01 708.768,1268.73 711.011,1267.45 713.253,1266.15 715.496,1264.84 717.739,1263.51 719.982,1262.17 722.225,1260.82 724.467,1259.46 726.71,1258.08 728.953,1256.68 731.196,1255.28 733.439,1253.86 735.682,1252.42 737.924,1250.97 740.167,1249.5 742.41,1248.03 744.653,1246.53 746.896,1245.02 749.138,1243.5 751.381,1241.96 753.624,1240.4 755.867,1238.83 758.11,1237.24 760.353,1235.64 762.595,1234.02 764.838,1232.39 767.081,1230.74 769.324,1229.07 771.567,1227.38 773.81,1225.68 776.052,1223.96 778.295,1222.23 780.538,1220.47 782.781,1218.7 785.024,1216.91 787.266,1215.1 789.509,1213.28 791.752,1211.43 793.995,1209.57 796.238,1207.69 798.481,1205.79 800.723,1203.87 802.966,1299.25 805.209,1298.27 807.452,1297.28 809.695,1296.28 811.938,1295.27 814.18,1294.25 816.423,1293.22 818.666,1292.18 820.909,1291.13 823.152,1290.07 825.394,1289 827.637,1287.92 829.88,1286.83 832.123,1285.72 834.366,1284.61 836.609,1283.48 838.851,1282.34 841.094,1281.19 843.337,1280.03 845.58,1278.86 847.823,1277.68 850.065,1276.48 852.308,1275.27 854.551,1274.05 856.794,1272.82 859.037,1271.58 861.28,1270.32 863.522,1269.05 865.765,1267.77 868.008,1266.47 870.251,1265.16 872.494,1263.84 874.737,1262.5 876.979,1261.16 879.222,1259.79 881.465,1258.42 883.708,1257.03 885.951,1255.62 888.193,1254.21 890.436,1252.77 892.679,1251.33 894.922,1249.87 897.165,1248.39 899.408,1246.9 901.65,1245.39 903.893,1243.87 906.136,1242.34 908.379,1240.79 910.622,1239.22 912.864,1237.64 915.107,1236.04 917.35,1234.42 919.593,1232.79 921.836,1231.14 924.079,1229.48 926.321,1227.8 928.564,1226.1 930.807,1224.39 933.05,1222.65 935.293,1220.9 937.536,1219.14 939.778,1217.35 942.021,1215.55 944.264,1213.73 946.507,1211.89 948.75,1210.03 950.992,1208.15 953.235,1206.26 955.478,1204.34 957.721,1202.41 959.964,1200.46 962.207,1198.48 964.449,1196.49 966.692,1194.48 968.935,1192.45 971.178,1190.39 973.421,1188.32 975.663,1186.22 977.906,1184.11 980.149,1181.97 982.392,1179.81 984.635,1177.63 986.878,1175.43 989.12,1173.2 991.363,1170.96 993.606,1168.69 995.849,1166.4 998.092,1164.08 1000.33,1161.74 1002.58,1159.38 1004.82,1156.99 1007.06,1154.58 1009.31,1152.15 1011.55,1149.69 1013.79,1147.21 1016.03,1144.7 1018.28,1142.16 1020.52,1139.6 1022.76,1137.02 1025.01,1134.41 1027.25,1131.77 1029.49,1129.11 1031.73,1126.42 1033.98,1123.7 1036.22,1120.95 1038.46,1118.18 1040.71,1115.38 1042.95,1112.55 1045.19,1109.69 1047.43,1106.81 1049.68,1103.89 1051.92,1100.95 1054.16,1097.97 1056.41,1094.97 1058.65,1091.94 1060.89,1088.87 1063.13,1085.78 1065.38,1082.65 1067.62,1079.49 1069.86,1076.3 1072.1,1073.08 1074.35,1069.83 1076.59,1066.54 1078.83,1063.22 1081.08,1059.87 1083.32,1056.48 1085.56,1053.06 1087.8,1049.6 1090.05,1046.11 1092.29,1042.59 1094.53,1039.03 1096.78,1035.43 1099.02,1031.8 1101.26,1028.13 1103.5,1024.42 1105.75,1020.68 1107.99,1016.9 1110.23,1013.08 1112.48,1009.22 1114.72,1005.32 1116.96,1001.39 1119.2,997.41 1121.45,993.394 1123.69,989.338 1125.93,985.241 1128.18,981.103 1130.42,976.923 1132.66,972.701 1134.9,968.437 1137.15,964.129 1139.39,959.779 1141.63,955.384 1143.88,950.946 1146.12,946.463 1148.36,941.934 1150.6,937.36 1152.85,932.741 1155.09,928.074 1157.33,923.361 1159.57,1157.58 1161.82,1155.18 1164.06,1152.75 1166.3,1150.29 1168.55,1147.82 1170.79,1145.31 1173.03,1142.79 1175.27,1140.23 1177.52,1137.65 1179.76,1135.05 1182,1132.42 1184.25,1129.76 1186.49,1127.08 1188.73,1124.37 1190.97,1121.63 1193.22,1118.86 1195.46,1116.07 1197.7,1113.25 1199.95,1110.4 1202.19,1107.52 1204.43,1104.61 1206.67,1101.67 1208.92,1098.71 1211.16,1095.71 1213.4,1092.69 1215.65,1089.63 1217.89,1086.54 1220.13,1083.42 1222.37,1080.27 1224.62,1077.09 1226.86,1073.88 1229.1,1070.63 1231.35,1067.35 1233.59,1064.04 1235.83,1060.7 1238.07,1057.32 1240.32,1053.91 1242.56,1050.46 1244.8,1046.98 1247.04,1043.46 1249.29,1039.91 1251.53,1036.32 1253.77,1032.7 1256.02,1029.04 1258.26,1025.34 1260.5,1021.6 1262.74,1017.83 1264.99,1014.02 1267.23,1010.17 1269.47,1006.28 1271.72,1002.36 1273.96,998.391 1276.2,994.385 1278.44,990.339 1280.69,986.252 1282.93,982.124 1285.17,977.954 1287.42,973.742 1289.66,969.488 1291.9,965.191 1294.14,960.851 1296.39,956.468 1298.63,952.04 1300.87,947.568 1303.12,943.051 1305.36,938.488 1307.6,933.88 1309.84,929.225 1312.09,924.523 1314.33,919.774 1316.57,914.977 1318.82,910.132 1321.06,905.239 1323.3,900.296 1325.54,895.303 1327.79,890.26 1330.03,885.166 1332.27,880.022 1334.51,874.825 1336.76,869.577 1339,864.275 1341.24,858.921 1343.49,853.512 1345.73,848.049 1347.97,842.532 1350.21,836.959 1352.46,831.33 1354.7,825.644 1356.94,819.901 1359.19,814.101 1361.43,808.242 1363.67,802.324 1365.91,796.347 1368.16,790.31 1370.4,784.212 1372.64,778.052 1374.89,771.831 1377.13,765.547 1379.37,759.2 1381.61,752.789 1383.86,746.313 1386.1,739.772 1388.34,733.165 1390.59,726.492 1392.83,719.752 1395.07,712.944 1397.31,706.067 1399.56,699.121 1401.8,692.104 1404.04,685.018 1406.29,677.86 1408.53,670.629 1410.77,663.326 1413.01,655.949 1415.26,648.498 1417.5,640.972 1419.74,633.37 1421.98,625.692 1424.23,617.936 1426.47,610.102 1428.71,602.189 1430.96,594.196 1433.2,586.123 1435.44,577.969 1437.68,569.733 1439.93,561.413 1442.17,553.01 1444.41,544.523 1446.66,535.95 1448.9,527.291 1451.14,518.544 1453.38,509.71 1455.63,500.788 1457.87,491.775 1460.11,482.672 1462.36,473.478 1464.6,464.192 1466.84,454.812 1469.08,445.337 1471.33,435.768 1473.57,426.102 1475.81,416.339 1478.06,406.477 1480.3,396.517 1482.54,386.456 1484.78,376.294 1487.03,366.03 1489.27,355.663 1491.51,345.191 1493.76,334.614 1496,323.931 1498.24,313.14 1500.48,302.241 1502.73,291.231 1504.97,280.112 1507.21,268.88 1509.46,257.535 1511.7,246.076 1513.94,234.502 1516.18,222.812 1518.43,211.003 1520.67,199.076 1522.91,187.029 1525.15,174.861 1527.4,162.57 1529.64,150.156 1531.88,137.617 1534.13,124.951 1536.37,112.159 1538.61,99.2371 1540.85,86.1857 1543.1,734.781 1545.34,728.123 1547.58,721.399 1549.83,714.606 1552.07,707.746 1554.31,700.816 1556.55,693.817 1558.8,686.747 1561.04,679.606 1563.28,672.393 1565.53,665.108 1567.77,657.749 1570.01,650.317 1572.25,642.809 1574.5,635.227 1576.74,627.567 1578.98,619.831 1581.23,612.017 1583.47,604.124 1585.71,596.152 1587.95,588.1 1590.2,579.967 1592.44,571.752 1594.68,563.454 1596.93,555.073 1599.17,546.607 1601.41,538.056 1603.65,529.419 1605.9,520.696 1608.14,511.884 1610.38,502.984 1612.62,493.994 1614.87,484.914 1617.11,936.151 1619.35,931.519 1621.6,926.841 1623.84,922.115 1626.08,917.342 1628.32,912.521 1630.57,907.652 1632.81,902.733 1635.05,897.765 1637.3,892.747 1639.54,887.678 1641.78,882.559 1644.02,877.388 1646.27,872.165 1648.51,866.89 1650.75,861.561 1653,856.179 1655.24,850.742 1657.48,845.251 1659.72,839.705 1661.97,834.103 1664.21,828.445 1666.45,822.729 1668.7,816.957 1670.94,811.126 1673.18,805.236 1675.42,799.287 1677.67,793.278 1679.91,787.209 1682.15,781.079 1684.4,774.887 1686.64,768.633 1688.88,762.315 1691.12,755.935 1693.37,749.49 1695.61,742.98 1697.85,736.405 1700.09,1063.16 1702.34,1059.81 1704.58,1056.42 1706.82,1053 1709.07,1049.54 1711.31,1046.05 1713.55,1219.54 1715.79,1217.76 1718.04,1215.96 1720.28,1214.15 1722.52,1212.31 1724.77,1210.46 1727.01,1208.58 1729.25,1301.63 1731.49,1300.67 1733.74,1299.71 1735.98,1298.73 1738.22,1297.75 1740.47,1296.75 1742.71,1295.75 1744.95,1294.74 1747.19,1293.71 1749.44,1292.68 1751.68,1291.63 1753.92,1290.58 1756.17,1289.51 1758.41,1288.43 1760.65,1287.35 1762.89,1286.25 1765.14,1285.14 1767.38,1284.02 1769.62,1282.88 1771.87,1281.74 1774.11,1280.58 1776.35,1279.42 1778.59,1278.24 1780.84,1277.05 1783.08,1275.85 1785.32,1274.63 1787.56,1273.41 1789.81,1272.17 1792.05,1270.92 1794.29,1269.65 1796.54,1268.37 1798.78,1267.09 1801.02,1265.78 1803.26,1264.47 1805.51,1263.14 1807.75,1261.8 1809.99,1260.44 1812.24,1259.07 1814.48,1327.12 1816.72,1326.42 1818.96,1325.72 1821.21,1325.01 1823.45,1324.29 1825.69,1323.56 1827.94,1322.83 1830.18,1322.08 1832.42,1321.33 1834.66,1320.58 1836.91,1319.81 1839.15,1319.04 1841.39,1318.26 1843.64,1317.47 1845.88,1316.68 1848.12,1315.87 1850.36,1355.81 1852.61,1355.4 1854.85,1354.99 1857.09,1354.57 1859.34,1354.15 1861.58,1353.72 1863.82,1353.29 1866.06,1352.85 1868.31,1352.41 1870.55,1351.97 1872.79,1351.52 1875.03,1351.07 1877.28,1350.61 1879.52,1350.15 1881.76,1349.68 1884.01,1349.21 1886.25,1348.73 1888.49,1348.25 1890.73,1347.77 1892.98,1384.24 1895.22,1384.11 1897.46,1383.99 1899.71,1383.86 1901.95,1383.73 1904.19,1383.61 1906.43,1383.48 1908.68,1383.34 1910.92,1383.21 1913.16,1383.08 1915.41,1382.94 1917.65,1382.8 1919.89,1382.67 1922.13,1382.53 1924.38,1382.38 1926.62,1382.24 1928.86,1382.1 1931.11,1381.95 1933.35,1381.81 1935.59,1381.66 1937.83,1381.51 1940.08,1381.36 1942.32,1381.2 1944.56,1381.05 1946.81,1380.89 1949.05,1380.73 1951.29,1380.58 1953.53,1380.41 1955.78,1380.25 1958.02,1380.09 1960.26,1379.92 1962.5,1379.76 1964.75,1379.59 1966.99,1379.42 1969.23,1379.24 1971.48,1379.07 1973.72,1378.89 1975.96,1378.72 1978.2,1378.54 1980.45,1378.35 1982.69,1378.17 1984.93,1377.99 1987.18,1377.8 1989.42,1377.61 1991.66,1377.42 1993.9,1377.23 1996.15,1377.03 1998.39,1376.84 2000.63,1376.64 2002.88,1376.44 2005.12,1376.24 2007.36,1376.03 2009.6,1375.82 2011.85,1375.62 2014.09,1375.4 2016.33,1375.19 2018.58,1374.98 2020.82,1374.76 2023.06,1374.54 2025.3,1374.32 2027.55,1374.1 2029.79,1373.87 2032.03,1373.64 2034.28,1373.41 2036.52,1373.18 2038.76,1372.94 2041,1372.7 2043.25,1372.46 2045.49,1372.22 2047.73,1371.98 2049.97,1371.73 2052.22,1371.48 2054.46,1371.23 2056.7,1370.97 2058.95,1370.72 2061.19,1370.46 2063.43,1370.19 2065.67,1369.93 2067.92,1369.66 2070.16,1369.39 2072.4,1369.12 2074.65,1368.84 2076.89,1368.56 2079.13,1368.28 2081.37,1368 2083.62,1367.71 2085.86,1367.42 2088.1,1367.12 2090.35,1366.83 2092.59,1366.53 2094.83,1366.23 2097.07,1365.92 2099.32,1365.61 2101.56,1365.3 2103.8,1364.99 2106.05,1364.67 2108.29,1364.35 2110.53,1364.03 2112.77,1363.7 2115.02,1363.37 2117.26,1363.03 2119.5,1362.7 2121.75,1362.36 2123.99,1362.01 2126.23,1361.66 2128.47,1361.31 2130.72,1360.96 2132.96,1360.6 2135.2,1360.24 2137.45,1359.87 2139.69,1359.5 2141.93,1359.13 2144.17,1358.75 2146.42,1358.37 2148.66,1357.99 2150.9,1357.6 2153.14,1357.21 2155.39,1356.81 2157.63,1356.41 2159.87,1356.01 2162.12,1355.6 2164.36,1355.19 2166.6,1354.77 2168.84,1354.35 2171.09,1353.93 2173.33,1353.5 2175.57,1353.07 2177.82,1352.63 2180.06,1352.19 2182.3,1351.74 2184.54,1351.29 2186.79,1350.84 2189.03,1350.38 2191.27,1349.91 2193.52,1349.44 2195.76,1348.97 2198,1348.49 2200.24,1348 2202.49,1347.52 2204.73,1347.02 2206.97,1346.52 2209.22,1346.02 2211.46,1345.51 2213.7,1345 2215.94,1344.48 2218.19,1343.96 2220.43,1343.43 2222.67,1342.89 2224.92,1342.35 2227.16,1341.81 2229.4,1341.26 2231.64,1340.7 2233.89,1340.14 2236.13,1339.57 2238.37,1339 2240.61,1338.42 2242.86,1337.83 2245.1,1337.24 2247.34,1336.65 2249.59,1336.04 2251.83,1335.43 2254.07,1334.82 2256.31,1334.2 2258.56,1333.57 2260.8,1332.94 2263.04,1332.3 2265.29,1331.65 2267.53,1331 2269.77,1330.34 2272.01,1329.67 2274.26,1329 2276.5,1328.32 2278.74,1327.63 2280.99,1326.94 2283.23,1326.24 2285.47,1325.53 2287.71,1324.82 2289.96,1324.1 2292.2,1323.37 2294.44,1322.63 2296.69,1321.89 2298.93,1321.14 2301.17,1320.38 2303.41,1319.61 2305.66,1318.84 2307.9,1318.05 2310.14,1317.26 2312.39,1316.47 2314.63,1315.66 2316.87,1314.85 2319.11,1314.02 2321.36,1313.19 2323.6,1312.36 2325.84,1311.51 2328.08,1310.65 2330.33,1309.79 2332.57,1308.92 2334.81,1308.03 2337.06,1307.14 2339.3,1306.24 2341.54,1305.34 2343.78,1304.42 2346.03,1303.49 2348.27,1302.55 2350.51,1301.61 2352.76,1300.65 "/>
<path clip-path="url(#clip550)" d="M1964.92 196.789 L2278.07 196.789 L2278.07 93.1086 L1964.92 93.1086  Z" fill="#ffffff" fill-rule="evenodd" fill-opacity="1"/>
<polyline clip-path="url(#clip550)" style="stroke:#000000; stroke-linecap:round; stroke-linejoin:round; stroke-width:4; stroke-opacity:1; fill:none" points="1964.92,196.789 2278.07,196.789 2278.07,93.1086 1964.92,93.1086 1964.92,196.789 "/>
<polyline clip-path="url(#clip550)" style="stroke:#009af9; stroke-linecap:round; stroke-linejoin:round; stroke-width:8; stroke-opacity:1; fill:none" points="1989.81,144.949 2139.18,144.949 "/>
<path clip-path="url(#clip550)" d="M2164.08 151.997 L2164.08 136.303 L2168.34 136.303 L2168.34 151.835 Q2168.34 155.516 2169.77 157.368 Q2171.21 159.196 2174.08 159.196 Q2177.53 159.196 2179.52 156.997 Q2181.53 154.798 2181.53 151.002 L2181.53 136.303 L2185.79 136.303 L2185.79 162.229 L2181.53 162.229 L2181.53 158.247 Q2179.98 160.608 2177.92 161.766 Q2175.88 162.9 2173.18 162.9 Q2168.71 162.9 2166.39 160.122 Q2164.08 157.344 2164.08 151.997 M2174.8 135.678 L2174.8 135.678 Z" fill="#000000" fill-rule="nonzero" fill-opacity="1" /><path clip-path="url(#clip550)" d="M2194.17 126.21 L2203.99 126.21 L2203.99 129.52 L2198.43 129.52 L2198.43 165.168 L2203.99 165.168 L2203.99 168.479 L2194.17 168.479 L2194.17 126.21 Z" fill="#000000" fill-rule="nonzero" fill-opacity="1" /><path clip-path="url(#clip550)" d="M2214.47 158.293 L2222.11 158.293 L2222.11 131.928 L2213.8 133.595 L2213.8 129.335 L2222.06 127.669 L2226.74 127.669 L2226.74 158.293 L2234.38 158.293 L2234.38 162.229 L2214.47 162.229 L2214.47 158.293 Z" fill="#000000" fill-rule="nonzero" fill-opacity="1" /><path clip-path="url(#clip550)" d="M2253.17 126.21 L2253.17 168.479 L2243.36 168.479 L2243.36 165.168 L2248.89 165.168 L2248.89 129.52 L2243.36 129.52 L2243.36 126.21 L2253.17 126.21 Z" fill="#000000" fill-rule="nonzero" fill-opacity="1" /></svg>
