<?xml version="1.0" encoding="utf-8"?>
<svg xmlns="http://www.w3.org/2000/svg" xmlns:xlink="http://www.w3.org/1999/xlink" width="600" height="400" viewBox="0 0 2400 1600">
<defs>
  <clipPath id="clip670">
    <rect x="0" y="0" width="2400" height="1600"/>
  </clipPath>
</defs>
<path clip-path="url(#clip670)" d="M0 1600 L2400 1600 L2400 0 L0 0  Z" fill="#ffffff" fill-rule="evenodd" fill-opacity="1"/>
<defs>
  <clipPath id="clip671">
    <rect x="480" y="0" width="1681" height="1600"/>
  </clipPath>
</defs>
<path clip-path="url(#clip670)" d="M155.765 1423.18 L2352.76 1423.18 L2352.76 47.2441 L155.765 47.2441  Z" fill="#ffffff" fill-rule="evenodd" fill-opacity="1"/>
<defs>
  <clipPath id="clip672">
    <rect x="155" y="47" width="2198" height="1377"/>
  </clipPath>
</defs>
<polyline clip-path="url(#clip672)" style="stroke:#000000; stroke-linecap:round; stroke-linejoin:round; stroke-width:2; stroke-opacity:0.1; fill:none" points="155.765,1423.18 155.765,47.2441 "/>
<polyline clip-path="url(#clip672)" style="stroke:#000000; stroke-linecap:round; stroke-linejoin:round; stroke-width:2; stroke-opacity:0.1; fill:none" points="595.163,1423.18 595.163,47.2441 "/>
<polyline clip-path="url(#clip672)" style="stroke:#000000; stroke-linecap:round; stroke-linejoin:round; stroke-width:2; stroke-opacity:0.1; fill:none" points="1034.56,1423.18 1034.56,47.2441 "/>
<polyline clip-path="url(#clip672)" style="stroke:#000000; stroke-linecap:round; stroke-linejoin:round; stroke-width:2; stroke-opacity:0.1; fill:none" points="1473.96,1423.18 1473.96,47.2441 "/>
<polyline clip-path="url(#clip672)" style="stroke:#000000; stroke-linecap:round; stroke-linejoin:round; stroke-width:2; stroke-opacity:0.1; fill:none" points="1913.36,1423.18 1913.36,47.2441 "/>
<polyline clip-path="url(#clip672)" style="stroke:#000000; stroke-linecap:round; stroke-linejoin:round; stroke-width:2; stroke-opacity:0.1; fill:none" points="2352.76,1423.18 2352.76,47.2441 "/>
<polyline clip-path="url(#clip672)" style="stroke:#000000; stroke-linecap:round; stroke-linejoin:round; stroke-width:2; stroke-opacity:0.1; fill:none" points="155.765,1227.67 2352.76,1227.67 "/>
<polyline clip-path="url(#clip672)" style="stroke:#000000; stroke-linecap:round; stroke-linejoin:round; stroke-width:2; stroke-opacity:0.1; fill:none" points="155.765,966.725 2352.76,966.725 "/>
<polyline clip-path="url(#clip672)" style="stroke:#000000; stroke-linecap:round; stroke-linejoin:round; stroke-width:2; stroke-opacity:0.1; fill:none" points="155.765,705.779 2352.76,705.779 "/>
<polyline clip-path="url(#clip672)" style="stroke:#000000; stroke-linecap:round; stroke-linejoin:round; stroke-width:2; stroke-opacity:0.1; fill:none" points="155.765,444.833 2352.76,444.833 "/>
<polyline clip-path="url(#clip672)" style="stroke:#000000; stroke-linecap:round; stroke-linejoin:round; stroke-width:2; stroke-opacity:0.1; fill:none" points="155.765,183.887 2352.76,183.887 "/>
<polyline clip-path="url(#clip670)" style="stroke:#000000; stroke-linecap:round; stroke-linejoin:round; stroke-width:4; stroke-opacity:1; fill:none" points="155.765,1423.18 2352.76,1423.18 "/>
<polyline clip-path="url(#clip670)" style="stroke:#000000; stroke-linecap:round; stroke-linejoin:round; stroke-width:4; stroke-opacity:1; fill:none" points="155.765,1423.18 155.765,1404.28 "/>
<polyline clip-path="url(#clip670)" style="stroke:#000000; stroke-linecap:round; stroke-linejoin:round; stroke-width:4; stroke-opacity:1; fill:none" points="595.163,1423.18 595.163,1404.28 "/>
<polyline clip-path="url(#clip670)" style="stroke:#000000; stroke-linecap:round; stroke-linejoin:round; stroke-width:4; stroke-opacity:1; fill:none" points="1034.56,1423.18 1034.56,1404.28 "/>
<polyline clip-path="url(#clip670)" style="stroke:#000000; stroke-linecap:round; stroke-linejoin:round; stroke-width:4; stroke-opacity:1; fill:none" points="1473.96,1423.18 1473.96,1404.28 "/>
<polyline clip-path="url(#clip670)" style="stroke:#000000; stroke-linecap:round; stroke-linejoin:round; stroke-width:4; stroke-opacity:1; fill:none" points="1913.36,1423.18 1913.36,1404.28 "/>
<polyline clip-path="url(#clip670)" style="stroke:#000000; stroke-linecap:round; stroke-linejoin:round; stroke-width:4; stroke-opacity:1; fill:none" points="2352.76,1423.18 2352.76,1404.28 "/>
<path clip-path="url(#clip670)" d="M155.765 1454.1 Q152.154 1454.1 150.325 1457.66 Q148.52 1461.2 148.52 1468.33 Q148.52 1475.44 150.325 1479.01 Q152.154 1482.55 155.765 1482.55 Q159.399 1482.55 161.205 1479.01 Q163.033 1475.44 163.033 1468.33 Q163.033 1461.2 161.205 1457.66 Q159.399 1454.1 155.765 1454.1 M155.765 1450.39 Q161.575 1450.39 164.631 1455 Q167.709 1459.58 167.709 1468.33 Q167.709 1477.06 164.631 1481.67 Q161.575 1486.25 155.765 1486.25 Q149.955 1486.25 146.876 1481.67 Q143.821 1477.06 143.821 1468.33 Q143.821 1459.58 146.876 1455 Q149.955 1450.39 155.765 1450.39 Z" fill="#000000" fill-rule="nonzero" fill-opacity="1" /><path clip-path="url(#clip670)" d="M589.816 1481.64 L606.135 1481.64 L606.135 1485.58 L584.191 1485.58 L584.191 1481.64 Q586.853 1478.89 591.436 1474.26 Q596.043 1469.61 597.223 1468.27 Q599.469 1465.74 600.348 1464.01 Q601.251 1462.25 601.251 1460.56 Q601.251 1457.8 599.307 1456.07 Q597.385 1454.33 594.283 1454.33 Q592.084 1454.33 589.631 1455.09 Q587.2 1455.86 584.422 1457.41 L584.422 1452.69 Q587.246 1451.55 589.7 1450.97 Q592.154 1450.39 594.191 1450.39 Q599.561 1450.39 602.756 1453.08 Q605.95 1455.77 605.95 1460.26 Q605.95 1462.39 605.14 1464.31 Q604.353 1466.2 602.246 1468.8 Q601.668 1469.47 598.566 1472.69 Q595.464 1475.88 589.816 1481.64 Z" fill="#000000" fill-rule="nonzero" fill-opacity="1" /><path clip-path="url(#clip670)" d="M1037.57 1455.09 L1025.77 1473.54 L1037.57 1473.54 L1037.57 1455.09 M1036.34 1451.02 L1042.22 1451.02 L1042.22 1473.54 L1047.15 1473.54 L1047.15 1477.43 L1042.22 1477.43 L1042.22 1485.58 L1037.57 1485.58 L1037.57 1477.43 L1021.97 1477.43 L1021.97 1472.92 L1036.34 1451.02 Z" fill="#000000" fill-rule="nonzero" fill-opacity="1" /><path clip-path="url(#clip670)" d="M1474.36 1466.44 Q1471.22 1466.44 1469.36 1468.59 Q1467.54 1470.74 1467.54 1474.49 Q1467.54 1478.22 1469.36 1480.39 Q1471.22 1482.55 1474.36 1482.55 Q1477.51 1482.55 1479.34 1480.39 Q1481.19 1478.22 1481.19 1474.49 Q1481.19 1470.74 1479.34 1468.59 Q1477.51 1466.44 1474.36 1466.44 M1483.65 1451.78 L1483.65 1456.04 Q1481.89 1455.21 1480.08 1454.77 Q1478.3 1454.33 1476.54 1454.33 Q1471.91 1454.33 1469.46 1457.45 Q1467.03 1460.58 1466.68 1466.9 Q1468.05 1464.89 1470.11 1463.82 Q1472.17 1462.73 1474.64 1462.73 Q1479.85 1462.73 1482.86 1465.9 Q1485.89 1469.05 1485.89 1474.49 Q1485.89 1479.82 1482.74 1483.03 Q1479.6 1486.25 1474.36 1486.25 Q1468.37 1486.25 1465.2 1481.67 Q1462.03 1477.06 1462.03 1468.33 Q1462.03 1460.14 1465.92 1455.28 Q1469.8 1450.39 1476.36 1450.39 Q1478.11 1450.39 1479.9 1450.74 Q1481.7 1451.09 1483.65 1451.78 Z" fill="#000000" fill-rule="nonzero" fill-opacity="1" /><path clip-path="url(#clip670)" d="M1913.36 1469.17 Q1910.02 1469.17 1908.1 1470.95 Q1906.2 1472.73 1906.2 1475.86 Q1906.2 1478.98 1908.1 1480.77 Q1910.02 1482.55 1913.36 1482.55 Q1916.69 1482.55 1918.61 1480.77 Q1920.53 1478.96 1920.53 1475.86 Q1920.53 1472.73 1918.61 1470.95 Q1916.71 1469.17 1913.36 1469.17 M1908.68 1467.18 Q1905.67 1466.44 1903.98 1464.38 Q1902.32 1462.32 1902.32 1459.35 Q1902.32 1455.21 1905.26 1452.8 Q1908.22 1450.39 1913.36 1450.39 Q1918.52 1450.39 1921.46 1452.8 Q1924.4 1455.21 1924.4 1459.35 Q1924.4 1462.32 1922.71 1464.38 Q1921.04 1466.44 1918.06 1467.18 Q1921.44 1467.96 1923.31 1470.26 Q1925.21 1472.55 1925.21 1475.86 Q1925.21 1480.88 1922.13 1483.57 Q1919.08 1486.25 1913.36 1486.25 Q1907.64 1486.25 1904.56 1483.57 Q1901.51 1480.88 1901.51 1475.86 Q1901.51 1472.55 1903.4 1470.26 Q1905.3 1467.96 1908.68 1467.18 M1906.97 1459.79 Q1906.97 1462.48 1908.64 1463.98 Q1910.33 1465.49 1913.36 1465.49 Q1916.37 1465.49 1918.06 1463.98 Q1919.77 1462.48 1919.77 1459.79 Q1919.77 1457.11 1918.06 1455.6 Q1916.37 1454.1 1913.36 1454.1 Q1910.33 1454.1 1908.64 1455.6 Q1906.97 1457.11 1906.97 1459.79 Z" fill="#000000" fill-rule="nonzero" fill-opacity="1" /><path clip-path="url(#clip670)" d="M2327.44 1481.64 L2335.08 1481.64 L2335.08 1455.28 L2326.77 1456.95 L2326.77 1452.69 L2335.04 1451.02 L2339.71 1451.02 L2339.71 1481.64 L2347.35 1481.64 L2347.35 1485.58 L2327.44 1485.58 L2327.44 1481.64 Z" fill="#000000" fill-rule="nonzero" fill-opacity="1" /><path clip-path="url(#clip670)" d="M2366.8 1454.1 Q2363.18 1454.1 2361.36 1457.66 Q2359.55 1461.2 2359.55 1468.33 Q2359.55 1475.44 2361.36 1479.01 Q2363.18 1482.55 2366.8 1482.55 Q2370.43 1482.55 2372.23 1479.01 Q2374.06 1475.44 2374.06 1468.33 Q2374.06 1461.2 2372.23 1457.66 Q2370.43 1454.1 2366.8 1454.1 M2366.8 1450.39 Q2372.61 1450.39 2375.66 1455 Q2378.74 1459.58 2378.74 1468.33 Q2378.74 1477.06 2375.66 1481.67 Q2372.61 1486.25 2366.8 1486.25 Q2360.99 1486.25 2357.91 1481.67 Q2354.85 1477.06 2354.85 1468.33 Q2354.85 1459.58 2357.91 1455 Q2360.99 1450.39 2366.8 1450.39 Z" fill="#000000" fill-rule="nonzero" fill-opacity="1" /><path clip-path="url(#clip670)" d="M1253.32 1522.27 L1253.32 1532.4 L1265.38 1532.4 L1265.38 1536.95 L1253.32 1536.95 L1253.32 1556.3 Q1253.32 1560.66 1254.5 1561.9 Q1255.71 1563.14 1259.37 1563.14 L1265.38 1563.14 L1265.38 1568.04 L1259.37 1568.04 Q1252.59 1568.04 1250.01 1565.53 Q1247.43 1562.98 1247.43 1556.3 L1247.43 1536.95 L1243.14 1536.95 L1243.14 1532.4 L1247.43 1532.4 L1247.43 1522.27 L1253.32 1522.27 Z" fill="#000000" fill-rule="nonzero" fill-opacity="1" /><polyline clip-path="url(#clip670)" style="stroke:#000000; stroke-linecap:round; stroke-linejoin:round; stroke-width:4; stroke-opacity:1; fill:none" points="155.765,1423.18 155.765,47.2441 "/>
<polyline clip-path="url(#clip670)" style="stroke:#000000; stroke-linecap:round; stroke-linejoin:round; stroke-width:4; stroke-opacity:1; fill:none" points="155.765,1227.67 174.663,1227.67 "/>
<polyline clip-path="url(#clip670)" style="stroke:#000000; stroke-linecap:round; stroke-linejoin:round; stroke-width:4; stroke-opacity:1; fill:none" points="155.765,966.725 174.663,966.725 "/>
<polyline clip-path="url(#clip670)" style="stroke:#000000; stroke-linecap:round; stroke-linejoin:round; stroke-width:4; stroke-opacity:1; fill:none" points="155.765,705.779 174.663,705.779 "/>
<polyline clip-path="url(#clip670)" style="stroke:#000000; stroke-linecap:round; stroke-linejoin:round; stroke-width:4; stroke-opacity:1; fill:none" points="155.765,444.833 174.663,444.833 "/>
<polyline clip-path="url(#clip670)" style="stroke:#000000; stroke-linecap:round; stroke-linejoin:round; stroke-width:4; stroke-opacity:1; fill:none" points="155.765,183.887 174.663,183.887 "/>
<path clip-path="url(#clip670)" d="M63.5847 1213.47 Q59.9736 1213.47 58.1449 1217.03 Q56.3393 1220.58 56.3393 1227.71 Q56.3393 1234.81 58.1449 1238.38 Q59.9736 1241.92 63.5847 1241.92 Q67.2189 1241.92 69.0244 1238.38 Q70.8531 1234.81 70.8531 1227.71 Q70.8531 1220.58 69.0244 1217.03 Q67.2189 1213.47 63.5847 1213.47 M63.5847 1209.77 Q69.3948 1209.77 72.4503 1214.37 Q75.529 1218.96 75.529 1227.71 Q75.529 1236.43 72.4503 1241.04 Q69.3948 1245.62 63.5847 1245.62 Q57.7745 1245.62 54.6958 1241.04 Q51.6403 1236.43 51.6403 1227.71 Q51.6403 1218.96 54.6958 1214.37 Q57.7745 1209.77 63.5847 1209.77 Z" fill="#000000" fill-rule="nonzero" fill-opacity="1" /><path clip-path="url(#clip670)" d="M83.7466 1239.07 L88.6308 1239.07 L88.6308 1244.95 L83.7466 1244.95 L83.7466 1239.07 Z" fill="#000000" fill-rule="nonzero" fill-opacity="1" /><path clip-path="url(#clip670)" d="M98.8622 1210.39 L117.219 1210.39 L117.219 1214.33 L103.145 1214.33 L103.145 1222.8 Q104.163 1222.45 105.182 1222.29 Q106.2 1222.1 107.219 1222.1 Q113.006 1222.1 116.385 1225.27 Q119.765 1228.45 119.765 1233.86 Q119.765 1239.44 116.293 1242.54 Q112.82 1245.62 106.501 1245.62 Q104.325 1245.62 102.057 1245.25 Q99.8113 1244.88 97.4039 1244.14 L97.4039 1239.44 Q99.4872 1240.58 101.709 1241.13 Q103.932 1241.69 106.408 1241.69 Q110.413 1241.69 112.751 1239.58 Q115.089 1237.47 115.089 1233.86 Q115.089 1230.25 112.751 1228.15 Q110.413 1226.04 106.408 1226.04 Q104.534 1226.04 102.659 1226.46 Q100.807 1226.87 98.8622 1227.75 L98.8622 1210.39 Z" fill="#000000" fill-rule="nonzero" fill-opacity="1" /><path clip-path="url(#clip670)" d="M53.3995 980.07 L61.0384 980.07 L61.0384 953.704 L52.7282 955.371 L52.7282 951.111 L60.9921 949.445 L65.668 949.445 L65.668 980.07 L73.3068 980.07 L73.3068 984.005 L53.3995 984.005 L53.3995 980.07 Z" fill="#000000" fill-rule="nonzero" fill-opacity="1" /><path clip-path="url(#clip670)" d="M82.7512 978.125 L87.6354 978.125 L87.6354 984.005 L82.7512 984.005 L82.7512 978.125 Z" fill="#000000" fill-rule="nonzero" fill-opacity="1" /><path clip-path="url(#clip670)" d="M107.821 952.523 Q104.209 952.523 102.381 956.088 Q100.575 959.63 100.575 966.759 Q100.575 973.866 102.381 977.431 Q104.209 980.972 107.821 980.972 Q111.455 980.972 113.26 977.431 Q115.089 973.866 115.089 966.759 Q115.089 959.63 113.26 956.088 Q111.455 952.523 107.821 952.523 M107.821 948.82 Q113.631 948.82 116.686 953.426 Q119.765 958.009 119.765 966.759 Q119.765 975.486 116.686 980.093 Q113.631 984.676 107.821 984.676 Q102.01 984.676 98.9317 980.093 Q95.8761 975.486 95.8761 966.759 Q95.8761 958.009 98.9317 953.426 Q102.01 948.82 107.821 948.82 Z" fill="#000000" fill-rule="nonzero" fill-opacity="1" /><path clip-path="url(#clip670)" d="M54.3949 719.124 L62.0337 719.124 L62.0337 692.758 L53.7236 694.425 L53.7236 690.165 L61.9874 688.499 L66.6633 688.499 L66.6633 719.124 L74.3022 719.124 L74.3022 723.059 L54.3949 723.059 L54.3949 719.124 Z" fill="#000000" fill-rule="nonzero" fill-opacity="1" /><path clip-path="url(#clip670)" d="M83.7466 717.179 L88.6308 717.179 L88.6308 723.059 L83.7466 723.059 L83.7466 717.179 Z" fill="#000000" fill-rule="nonzero" fill-opacity="1" /><path clip-path="url(#clip670)" d="M98.8622 688.499 L117.219 688.499 L117.219 692.434 L103.145 692.434 L103.145 700.906 Q104.163 700.559 105.182 700.397 Q106.2 700.212 107.219 700.212 Q113.006 700.212 116.385 703.383 Q119.765 706.554 119.765 711.971 Q119.765 717.55 116.293 720.651 Q112.82 723.73 106.501 723.73 Q104.325 723.73 102.057 723.36 Q99.8113 722.989 97.4039 722.249 L97.4039 717.55 Q99.4872 718.684 101.709 719.239 Q103.932 719.795 106.408 719.795 Q110.413 719.795 112.751 717.688 Q115.089 715.582 115.089 711.971 Q115.089 708.36 112.751 706.253 Q110.413 704.147 106.408 704.147 Q104.534 704.147 102.659 704.563 Q100.807 704.98 98.8622 705.86 L98.8622 688.499 Z" fill="#000000" fill-rule="nonzero" fill-opacity="1" /><path clip-path="url(#clip670)" d="M56.6171 458.178 L72.9365 458.178 L72.9365 462.113 L50.9921 462.113 L50.9921 458.178 Q53.6541 455.423 58.2375 450.793 Q62.8439 446.141 64.0245 444.798 Q66.2698 442.275 67.1494 440.539 Q68.0522 438.78 68.0522 437.09 Q68.0522 434.335 66.1078 432.599 Q64.1865 430.863 61.0847 430.863 Q58.8856 430.863 56.4319 431.627 Q54.0014 432.391 51.2236 433.942 L51.2236 429.219 Q54.0477 428.085 56.5014 427.506 Q58.955 426.928 60.9921 426.928 Q66.3624 426.928 69.5568 429.613 Q72.7513 432.298 72.7513 436.789 Q72.7513 438.918 71.9411 440.84 Q71.1541 442.738 69.0476 445.33 Q68.4689 446.002 65.367 449.219 Q62.2652 452.414 56.6171 458.178 Z" fill="#000000" fill-rule="nonzero" fill-opacity="1" /><path clip-path="url(#clip670)" d="M82.7512 456.233 L87.6354 456.233 L87.6354 462.113 L82.7512 462.113 L82.7512 456.233 Z" fill="#000000" fill-rule="nonzero" fill-opacity="1" /><path clip-path="url(#clip670)" d="M107.821 430.631 Q104.209 430.631 102.381 434.196 Q100.575 437.738 100.575 444.868 Q100.575 451.974 102.381 455.539 Q104.209 459.08 107.821 459.08 Q111.455 459.08 113.26 455.539 Q115.089 451.974 115.089 444.868 Q115.089 437.738 113.26 434.196 Q111.455 430.631 107.821 430.631 M107.821 426.928 Q113.631 426.928 116.686 431.534 Q119.765 436.118 119.765 444.868 Q119.765 453.594 116.686 458.201 Q113.631 462.784 107.821 462.784 Q102.01 462.784 98.9317 458.201 Q95.8761 453.594 95.8761 444.868 Q95.8761 436.118 98.9317 431.534 Q102.01 426.928 107.821 426.928 Z" fill="#000000" fill-rule="nonzero" fill-opacity="1" /><path clip-path="url(#clip670)" d="M57.6125 197.232 L73.9318 197.232 L73.9318 201.167 L51.9875 201.167 L51.9875 197.232 Q54.6495 194.477 59.2328 189.847 Q63.8393 185.195 65.0198 183.852 Q67.2652 181.329 68.1448 179.593 Q69.0476 177.834 69.0476 176.144 Q69.0476 173.389 67.1032 171.653 Q65.1819 169.917 62.08 169.917 Q59.881 169.917 57.4273 170.681 Q54.9967 171.445 52.219 172.996 L52.219 168.273 Q55.043 167.139 57.4967 166.561 Q59.9504 165.982 61.9874 165.982 Q67.3578 165.982 70.5522 168.667 Q73.7466 171.352 73.7466 175.843 Q73.7466 177.973 72.9365 179.894 Q72.1494 181.792 70.0429 184.385 Q69.4642 185.056 66.3624 188.273 Q63.2606 191.468 57.6125 197.232 Z" fill="#000000" fill-rule="nonzero" fill-opacity="1" /><path clip-path="url(#clip670)" d="M83.7466 195.287 L88.6308 195.287 L88.6308 201.167 L83.7466 201.167 L83.7466 195.287 Z" fill="#000000" fill-rule="nonzero" fill-opacity="1" /><path clip-path="url(#clip670)" d="M98.8622 166.607 L117.219 166.607 L117.219 170.542 L103.145 170.542 L103.145 179.014 Q104.163 178.667 105.182 178.505 Q106.2 178.32 107.219 178.32 Q113.006 178.32 116.385 181.491 Q119.765 184.662 119.765 190.079 Q119.765 195.658 116.293 198.759 Q112.82 201.838 106.501 201.838 Q104.325 201.838 102.057 201.468 Q99.8113 201.097 97.4039 200.357 L97.4039 195.658 Q99.4872 196.792 101.709 197.347 Q103.932 197.903 106.408 197.903 Q110.413 197.903 112.751 195.796 Q115.089 193.69 115.089 190.079 Q115.089 186.468 112.751 184.361 Q110.413 182.255 106.408 182.255 Q104.534 182.255 102.659 182.672 Q100.807 183.088 98.8622 183.968 L98.8622 166.607 Z" fill="#000000" fill-rule="nonzero" fill-opacity="1" /><polyline clip-path="url(#clip672)" style="stroke:#009af9; stroke-linecap:round; stroke-linejoin:round; stroke-width:8; stroke-opacity:1; fill:none" points="155.765,1384.24 157.964,1383.19 160.163,1382.13 162.362,1381.06 164.562,1379.97 166.761,1378.88 168.96,1377.78 171.159,1376.66 173.358,1375.54 175.558,1374.4 177.757,1373.25 179.956,1372.09 182.155,1370.92 184.354,1369.73 186.554,1368.54 188.753,1367.33 190.952,1366.11 193.151,1364.88 195.35,1363.63 197.55,1362.37 199.749,1361.1 201.948,1359.82 204.147,1358.52 206.346,1357.22 208.545,1355.89 210.745,1354.56 212.944,1353.21 215.143,1351.85 217.342,1350.47 219.541,1349.08 221.741,1347.68 223.94,1346.26 226.139,1344.83 228.338,1343.38 230.537,1341.92 232.737,1340.44 234.936,1338.95 237.135,1337.45 239.334,1335.93 241.533,1334.39 243.733,1332.84 245.932,1331.27 248.131,1329.69 250.33,1328.09 252.529,1326.48 254.728,1324.84 256.928,1323.2 259.127,1321.53 261.326,1319.85 263.525,1318.15 265.724,1316.44 267.924,1314.71 270.123,1312.96 272.322,1311.19 274.521,1309.41 276.72,1307.6 278.92,1305.78 281.119,1303.94 283.318,1302.08 285.517,1300.21 287.716,1298.31 289.916,1296.4 292.115,1294.46 294.314,1292.51 296.513,1290.54 298.712,1288.55 300.911,1286.53 303.111,1284.5 305.31,1282.45 307.509,1280.37 309.708,1278.28 311.907,1276.16 314.107,1274.02 316.306,1271.86 318.505,1269.68 320.704,1267.48 322.903,1265.26 325.103,1263.01 327.302,1260.74 329.501,1258.45 331.7,1256.13 333.899,1253.79 336.099,1251.43 338.298,1249.04 340.497,1246.63 342.696,1244.2 344.895,1241.74 347.094,1239.26 349.294,1236.75 351.493,1234.22 353.692,1231.66 355.891,1229.07 358.09,1226.46 360.29,1223.82 362.489,1221.16 364.688,1218.47 366.887,1215.75 369.086,1213.01 371.286,1210.23 373.485,1207.43 375.684,1204.6 377.883,1201.75 380.082,1198.86 382.281,1195.94 384.481,1193 386.68,1190.03 388.879,1187.02 391.078,1183.99 393.277,1180.92 395.477,1177.83 397.676,1174.7 399.875,1171.54 402.074,1168.35 404.273,1165.13 406.473,1161.88 408.672,1158.59 410.871,1155.27 413.07,1151.92 415.269,1148.53 417.469,1145.11 419.668,1141.65 421.867,1138.16 424.066,1134.64 426.265,1131.07 428.464,1127.48 430.664,1123.84 432.863,1120.17 435.062,1116.47 437.261,1112.72 439.46,1108.94 441.66,1105.12 443.859,1101.26 446.058,1097.37 448.257,1093.43 450.456,1089.46 452.656,1085.44 454.855,1081.38 457.054,1077.29 459.253,1073.15 461.452,1068.97 463.652,1064.75 465.851,1060.48 468.05,1056.18 470.249,1051.83 472.448,1047.43 474.647,1042.99 476.847,1038.51 479.046,1033.98 481.245,1029.41 483.444,1024.79 485.643,1020.12 487.843,1015.41 490.042,1010.65 492.241,1005.84 494.44,1000.98 496.639,996.078 498.839,991.123 501.038,986.118 503.237,1234.84 505.436,1232.29 507.635,1229.71 509.835,1227.1 512.034,1224.47 514.233,1221.82 516.432,1219.13 518.631,1216.42 520.83,1213.68 523.03,1210.92 525.229,1208.12 527.428,1205.3 529.627,1202.45 531.826,1199.57 534.026,1196.66 536.225,1193.73 538.424,1190.76 540.623,1187.76 542.822,1184.74 545.022,1181.68 547.221,1178.59 549.42,1175.47 551.619,1172.32 553.818,1169.14 556.018,1165.93 558.217,1162.68 560.416,1159.4 562.615,1156.09 564.814,1152.74 567.013,1149.36 569.213,1145.95 571.412,1142.5 573.611,1139.02 575.81,1135.5 578.009,1131.95 580.209,1128.36 582.408,1124.74 584.607,1121.08 586.806,1117.38 589.005,1301.13 591.205,1299.25 593.404,1297.34 595.603,1295.42 597.802,1293.47 600.001,1291.51 602.201,1289.53 604.4,1287.52 606.599,1285.5 608.798,1283.46 610.997,1281.39 613.196,1279.31 615.396,1277.2 617.595,1275.08 619.794,1272.93 621.993,1270.76 624.192,1268.57 626.392,1266.35 628.591,1264.12 630.79,1261.86 632.989,1259.58 635.188,1257.27 637.388,1254.95 639.587,1252.6 641.786,1250.22 643.985,1247.82 646.184,1245.4 648.384,1242.95 650.583,1240.48 652.782,1237.99 654.981,1235.46 657.18,1232.92 659.379,1230.35 661.579,1227.75 663.778,1225.12 665.977,1222.47 668.176,1219.79 670.375,1217.09 672.575,1214.36 674.774,1211.6 676.973,1208.81 679.172,1206 681.371,1203.15 683.571,1200.28 685.77,1197.38 687.969,1194.45 690.168,1191.49 692.367,1188.5 694.567,1185.48 696.766,1182.43 698.965,1179.35 701.164,1176.24 703.363,1173.1 705.562,1169.92 707.762,1166.72 709.961,1163.48 712.16,1160.21 714.359,1156.9 716.558,1153.57 718.758,1150.2 720.957,1146.79 723.156,1143.35 725.355,1139.88 727.554,1136.37 729.754,1132.83 731.953,1129.25 734.152,1125.63 736.351,1121.98 738.55,1118.29 740.749,1114.57 742.949,1110.81 745.148,1107.01 747.347,1103.17 749.546,1099.29 751.745,1095.37 753.945,1091.42 756.144,1087.42 758.343,1083.39 760.542,1079.31 762.741,1075.19 764.941,1071.03 767.14,1066.83 769.339,1062.59 771.538,1058.31 773.737,1053.98 775.937,1049.6 778.136,1045.19 780.335,1040.73 782.534,1036.22 784.733,1031.67 786.932,1027.07 789.132,1022.43 791.331,1017.74 793.53,1013 795.729,1008.22 797.928,1003.39 800.128,998.505 802.327,993.574 804.526,988.594 806.725,983.563 808.924,978.481 811.124,973.349 813.323,968.165 815.522,962.928 817.721,957.639 819.92,952.297 822.12,946.901 824.319,941.45 826.518,935.945 828.717,930.384 830.916,924.768 833.115,919.095 835.315,913.365 837.514,907.577 839.713,901.731 841.912,895.827 844.111,889.863 846.311,883.839 848.51,877.755 850.709,871.609 852.908,865.402 855.107,859.132 857.307,852.799 859.506,846.402 861.705,839.941 863.904,833.415 866.103,826.823 868.303,820.165 870.502,813.44 872.701,806.647 874.9,799.787 877.099,792.857 879.298,785.858 881.498,778.788 883.697,771.648 885.896,764.435 888.095,757.15 890.294,749.792 892.494,742.36 894.693,734.854 896.892,727.271 899.091,719.613 901.29,711.878 903.49,704.064 905.689,696.173 907.888,688.202 910.087,680.15 912.286,672.018 914.486,663.804 916.685,655.507 918.884,647.127 921.083,638.662 923.282,630.112 925.481,621.476 927.681,612.754 929.88,603.943 932.079,595.043 934.278,586.054 936.477,576.975 938.677,567.804 940.876,558.54 943.075,549.184 945.274,539.733 947.473,530.187 949.673,520.544 951.872,510.805 954.071,500.967 956.27,491.031 958.469,480.994 960.669,470.856 962.868,460.616 965.067,450.273 967.266,439.826 969.465,429.274 971.664,418.615 973.864,407.849 976.063,396.975 978.262,385.991 980.461,374.897 982.66,363.692 984.86,352.374 987.059,340.942 989.258,329.395 991.457,317.732 993.656,305.952 995.856,294.054 998.055,282.036 1000.25,269.898 1002.45,257.637 1004.65,245.253 1006.85,232.744 1009.05,220.11 1011.25,207.348 1013.45,194.459 1015.65,181.439 1017.85,168.288 1020.05,155.005 1022.25,141.589 1024.45,808.324 1026.64,801.48 1028.84,794.567 1031.04,787.585 1033.24,780.532 1035.44,1131.01 1037.64,1127.41 1039.84,1123.78 1042.04,1120.11 1044.24,1116.4 1046.44,1112.66 1048.64,1108.88 1050.84,1105.05 1053.03,1101.2 1055.23,1097.3 1057.43,1093.36 1059.63,1089.38 1061.83,1085.37 1064.03,1081.31 1066.23,1077.21 1068.43,1073.08 1070.63,1068.9 1072.83,1064.67 1075.03,1060.41 1077.23,1056.1 1079.42,1051.75 1081.62,1047.36 1083.82,1042.92 1086.02,1038.43 1088.22,1033.91 1090.42,1029.33 1092.62,1024.71 1094.82,1020.05 1097.02,1015.33 1099.22,1010.57 1101.42,1005.76 1103.62,1000.91 1105.82,996.001 1108.01,991.046 1110.21,986.041 1112.41,980.986 1114.61,975.88 1116.81,970.722 1119.01,965.512 1121.21,960.25 1123.41,954.936 1125.61,949.567 1127.81,944.144 1130.01,938.667 1132.21,933.135 1134.4,927.547 1136.6,921.902 1138.8,916.201 1141,910.442 1143.2,904.625 1145.4,898.75 1147.6,892.816 1149.8,886.821 1152,880.766 1154.2,874.651 1156.4,868.473 1158.6,862.234 1160.79,855.931 1162.99,849.565 1165.19,843.135 1167.39,836.641 1169.59,830.081 1171.79,823.455 1173.99,816.762 1176.19,810.002 1178.39,803.174 1180.59,796.277 1182.79,789.311 1184.99,782.275 1187.19,775.169 1189.38,767.991 1191.58,760.741 1193.78,753.418 1195.98,746.022 1198.18,738.551 1200.38,731.005 1202.58,723.383 1204.78,715.685 1206.98,707.909 1209.18,1094.33 1211.38,1090.37 1213.58,1086.36 1215.77,1082.31 1217.97,1078.23 1220.17,1074.1 1222.37,1069.93 1224.57,1065.72 1226.77,1061.46 1228.97,1057.16 1231.17,1052.82 1233.37,1048.44 1235.57,1044.01 1237.77,1039.54 1239.97,1035.02 1242.16,1030.46 1244.36,1025.85 1246.56,1021.19 1248.76,1016.49 1250.96,1011.74 1253.16,1006.94 1255.36,1002.1 1257.56,997.203 1259.76,992.26 1261.96,987.267 1264.16,982.223 1266.36,977.129 1268.56,971.984 1270.75,966.787 1272.95,961.537 1275.15,956.235 1277.35,950.879 1279.55,945.469 1281.75,940.005 1283.95,934.486 1286.15,928.912 1288.35,923.281 1290.55,917.594 1292.75,911.849 1294.95,906.046 1297.14,900.185 1299.34,894.266 1301.54,888.286 1303.74,882.246 1305.94,876.146 1308.14,869.984 1310.34,863.76 1312.54,857.473 1314.74,851.124 1316.94,844.71 1319.14,838.232 1321.34,831.688 1323.53,825.079 1325.73,818.403 1327.93,811.661 1330.13,804.85 1332.33,1143.31 1334.53,1139.84 1336.73,1136.33 1338.93,1132.78 1341.13,1129.2 1343.33,1125.59 1345.53,1121.94 1347.73,1118.25 1349.93,1114.52 1352.12,1110.76 1354.32,1106.96 1356.52,1103.12 1358.72,1099.24 1360.92,1095.32 1363.12,1091.36 1365.32,1087.37 1367.52,1083.33 1369.72,1079.25 1371.92,1075.14 1374.12,1070.98 1376.32,1066.78 1378.51,1062.53 1380.71,1058.25 1382.91,1053.92 1385.11,1049.54 1387.31,1045.13 1389.51,1040.67 1391.71,1036.16 1393.91,1031.61 1396.11,1027.01 1398.31,1022.37 1400.51,1017.68 1402.71,1012.94 1404.9,1008.16 1407.1,1003.32 1409.3,998.443 1411.5,993.512 1413.7,988.532 1415.9,983.501 1418.1,978.42 1420.3,973.287 1422.5,968.103 1424.7,962.867 1426.9,957.578 1429.1,952.235 1431.3,946.839 1433.49,941.389 1435.69,935.883 1437.89,930.322 1440.09,924.705 1442.29,919.032 1444.49,913.301 1446.69,907.513 1448.89,901.666 1451.09,895.761 1453.29,889.796 1455.49,883.771 1457.69,877.685 1459.88,871.539 1462.08,865.33 1464.28,859.059 1466.48,852.725 1468.68,846.327 1470.88,839.864 1473.08,833.337 1475.28,826.745 1477.48,820.086 1479.68,813.36 1481.88,1147.6 1484.08,1144.17 1486.27,1140.7 1488.47,1137.2 1490.67,1133.67 1492.87,1130.1 1495.07,1126.49 1497.27,1122.85 1499.47,1119.17 1501.67,1115.45 1503.87,1111.7 1506.07,1107.9 1508.27,1104.07 1510.47,1100.21 1512.67,1096.3 1514.86,1092.35 1517.06,1088.37 1519.26,1084.34 1521.46,1080.27 1523.66,1076.16 1525.86,1072.02 1528.06,1067.83 1530.26,1063.59 1532.46,1059.32 1534.66,1055 1536.86,1050.64 1539.06,1046.23 1541.25,1041.78 1543.45,1037.29 1545.65,1032.75 1547.85,1028.17 1550.05,1023.53 1552.25,1018.86 1554.45,1014.13 1556.65,1009.36 1558.85,1004.54 1561.05,999.67 1563.25,994.753 1565.45,989.785 1567.65,984.768 1569.84,979.7 1572.04,974.581 1574.24,969.411 1576.44,964.188 1578.64,958.913 1580.84,953.585 1583.04,948.203 1585.24,942.767 1587.44,937.276 1589.64,931.729 1591.84,926.127 1594.04,920.468 1596.23,914.752 1598.43,908.979 1600.63,903.147 1602.83,897.257 1605.03,891.307 1607.23,885.297 1609.43,879.227 1611.63,873.095 1613.83,866.902 1616.03,860.646 1618.23,854.328 1620.43,847.945 1622.62,841.498 1624.82,834.987 1627.02,828.41 1629.22,821.766 1631.42,815.056 1633.62,808.278 1635.82,801.433 1638.02,794.518 1640.22,787.534 1642.42,780.479 1644.62,773.354 1646.82,766.157 1649.02,758.888 1651.21,751.547 1653.41,744.131 1655.61,736.641 1657.81,729.076 1660.01,721.435 1662.21,713.717 1664.41,705.921 1666.61,698.047 1668.81,690.094 1671.01,682.06 1673.21,673.946 1675.41,665.75 1677.6,657.472 1679.8,649.11 1682,640.665 1684.2,632.134 1686.4,623.518 1688.6,614.815 1690.8,606.024 1693,597.145 1695.2,588.176 1697.4,579.118 1699.6,569.968 1701.8,560.726 1703.99,1020 1706.19,1015.29 1708.39,1010.53 1710.59,1005.72 1712.79,1000.86 1714.99,995.953 1717.19,990.997 1719.39,985.99 1721.59,980.934 1723.79,975.826 1725.99,970.668 1728.19,965.457 1730.39,960.194 1732.58,954.878 1734.78,949.508 1736.98,944.085 1739.18,938.606 1741.38,933.073 1743.58,927.484 1745.78,921.839 1747.98,916.137 1750.18,1199.5 1752.38,1196.59 1754.58,1193.65 1756.78,1190.68 1758.97,1338.15 1761.17,1336.64 1763.37,1335.11 1765.57,1333.56 1767.77,1332 1769.97,1330.43 1772.17,1328.84 1774.37,1327.23 1776.57,1325.61 1778.77,1323.97 1780.97,1322.31 1783.17,1320.64 1785.36,1318.95 1787.56,1317.24 1789.76,1315.52 1791.96,1313.77 1794.16,1312.02 1796.36,1310.24 1798.56,1308.44 1800.76,1306.63 1802.96,1304.8 1805.16,1302.95 1807.36,1301.08 1809.56,1299.2 1811.76,1297.29 1813.95,1295.37 1816.15,1293.42 1818.35,1291.46 1820.55,1289.48 1822.75,1287.47 1824.95,1285.45 1827.15,1283.4 1829.35,1281.34 1831.55,1279.25 1833.75,1277.15 1835.95,1275.02 1838.15,1272.87 1840.34,1270.7 1842.54,1268.51 1844.74,1266.3 1846.94,1264.06 1849.14,1261.8 1851.34,1259.52 1853.54,1257.21 1855.74,1254.89 1857.94,1252.53 1860.14,1250.16 1862.34,1247.76 1864.54,1245.34 1866.73,1242.89 1868.93,1240.42 1871.13,1237.92 1873.33,1235.4 1875.53,1232.85 1877.73,1230.28 1879.93,1227.68 1882.13,1225.05 1884.33,1222.4 1886.53,1219.72 1888.73,1217.02 1890.93,1214.29 1893.13,1211.53 1895.32,1208.74 1897.52,1205.92 1899.72,1203.08 1901.92,1200.21 1904.12,1197.3 1906.32,1194.37 1908.52,1191.41 1910.72,1188.42 1912.92,1185.4 1915.12,1182.35 1917.32,1179.27 1919.52,1176.16 1921.71,1173.02 1923.91,1169.84 1926.11,1166.64 1928.31,1163.4 1930.51,1160.12 1932.71,1156.82 1934.91,1153.48 1937.11,1150.11 1939.31,1146.7 1941.51,1143.27 1943.71,1139.79 1945.91,1136.28 1948.1,1132.74 1950.3,1129.16 1952.5,1125.54 1954.7,1121.89 1956.9,1118.2 1959.1,1114.47 1961.3,1110.71 1963.5,1106.91 1965.7,1103.07 1967.9,1099.19 1970.1,1095.27 1972.3,1091.31 1974.5,1087.32 1976.69,1083.28 1978.89,1079.2 1981.09,1075.08 1983.29,1070.92 1985.49,1066.72 1987.69,1062.47 1989.89,1058.19 1992.09,1053.86 1994.29,1049.48 1996.49,1045.06 1998.69,1040.6 2000.89,1036.1 2003.08,1031.54 2005.28,1026.94 2007.48,1022.3 2009.68,1017.61 2011.88,1012.87 2014.08,1008.08 2016.28,1003.25 2018.48,998.367 2020.68,993.435 2022.88,988.454 2025.08,983.422 2027.28,978.34 2029.47,973.207 2031.67,968.022 2033.87,962.785 2036.07,957.495 2038.27,952.152 2040.47,946.755 2042.67,941.304 2044.87,935.798 2047.07,930.237 2049.27,924.619 2051.47,918.945 2053.67,913.214 2055.87,907.426 2058.06,901.579 2060.26,895.673 2062.46,889.708 2064.66,883.682 2066.86,877.596 2069.06,871.449 2071.26,865.24 2073.46,858.969 2075.66,852.634 2077.86,846.236 2080.06,839.773 2082.26,833.245 2084.45,826.652 2086.65,819.992 2088.85,813.265 2091.05,806.471 2093.25,799.608 2095.45,792.677 2097.65,785.675 2099.85,778.603 2102.05,771.46 2104.25,764.245 2106.45,756.958 2108.65,749.597 2110.84,742.162 2113.04,734.652 2115.24,727.067 2117.44,719.406 2119.64,711.667 2121.84,703.851 2124.04,695.956 2126.24,687.982 2128.44,679.927 2130.64,671.792 2132.84,663.575 2135.04,655.275 2137.24,646.892 2139.43,638.425 2141.63,629.872 2143.83,621.233 2146.03,612.508 2148.23,603.694 2150.43,594.792 2152.63,585.801 2154.83,576.719 2157.03,567.545 2159.23,558.279 2161.43,548.921 2163.63,539.467 2165.82,529.919 2168.02,520.275 2170.22,510.533 2172.42,500.693 2174.62,490.755 2176.82,480.716 2179.02,470.576 2181.22,460.334 2183.42,449.989 2185.62,439.54 2187.82,428.986 2190.02,418.325 2192.22,407.557 2194.41,396.681 2196.61,385.695 2198.81,374.599 2201.01,363.391 2203.21,352.07 2205.41,340.636 2207.61,329.086 2209.81,317.42 2212.01,305.637 2214.21,293.736 2216.41,281.715 2218.61,269.573 2220.8,257.309 2223,244.921 2225.2,232.409 2227.4,219.772 2229.6,207.007 2231.8,194.113 2234,181.09 2236.2,167.936 2238.4,154.65 2240.6,141.23 2242.8,127.675 2245,113.983 2247.19,100.154 2249.39,86.1857 2251.59,780.345 2253.79,773.22 2255.99,766.023 2258.19,758.753 2260.39,751.41 2262.59,743.994 2264.79,736.503 2266.99,728.936 2269.19,721.294 2271.39,713.574 2273.59,705.777 2275.78,697.902 2277.98,689.947 2280.18,681.912 2282.38,673.796 2284.58,665.599 2286.78,657.319 2288.98,648.956 2291.18,640.509 2293.38,631.977 2295.58,623.359 2297.78,614.655 2299.98,605.862 2302.17,596.982 2304.37,588.012 2306.57,578.951 2308.77,569.8 2310.97,560.556 2313.17,551.22 2315.37,541.789 2317.57,532.264 2319.77,522.643 2321.97,512.924 2324.17,503.109 2326.37,493.194 2328.56,483.18 2330.76,473.065 2332.96,462.848 2335.16,970.573 2337.36,965.362 2339.56,960.098 2341.76,954.781 2343.96,949.41 2346.16,943.986 2348.36,938.506 2350.56,932.972 2352.76,927.382 "/>
<path clip-path="url(#clip670)" d="M228.998 196.789 L537.794 196.789 L537.794 93.1086 L228.998 93.1086  Z" fill="#ffffff" fill-rule="evenodd" fill-opacity="1"/>
<polyline clip-path="url(#clip670)" style="stroke:#000000; stroke-linecap:round; stroke-linejoin:round; stroke-width:4; stroke-opacity:1; fill:none" points="228.998,196.789 537.794,196.789 537.794,93.1086 228.998,93.1086 228.998,196.789 "/>
<polyline clip-path="url(#clip670)" style="stroke:#009af9; stroke-linecap:round; stroke-linejoin:round; stroke-width:8; stroke-opacity:1; fill:none" points="253.409,144.949 399.875,144.949 "/>
<path clip-path="url(#clip670)" d="M424.286 151.997 L424.286 136.303 L428.545 136.303 L428.545 151.835 Q428.545 155.516 429.98 157.368 Q431.416 159.196 434.286 159.196 Q437.735 159.196 439.726 156.997 Q441.74 154.798 441.74 151.002 L441.74 136.303 L445.999 136.303 L445.999 162.229 L441.74 162.229 L441.74 158.247 Q440.189 160.608 438.129 161.766 Q436.092 162.9 433.383 162.9 Q428.916 162.9 426.601 160.122 Q424.286 157.344 424.286 151.997 M435.004 135.678 L435.004 135.678 Z" fill="#000000" fill-rule="nonzero" fill-opacity="1" /><path clip-path="url(#clip670)" d="M454.378 126.21 L464.193 126.21 L464.193 129.52 L458.638 129.52 L458.638 165.168 L464.193 165.168 L464.193 168.479 L454.378 168.479 L454.378 126.21 Z" fill="#000000" fill-rule="nonzero" fill-opacity="1" /><path clip-path="url(#clip670)" d="M474.679 158.293 L482.318 158.293 L482.318 131.928 L474.008 133.595 L474.008 129.335 L482.272 127.669 L486.948 127.669 L486.948 158.293 L494.587 158.293 L494.587 162.229 L474.679 162.229 L474.679 158.293 Z" fill="#000000" fill-rule="nonzero" fill-opacity="1" /><path clip-path="url(#clip670)" d="M513.383 126.21 L513.383 168.479 L503.568 168.479 L503.568 165.168 L509.1 165.168 L509.1 129.52 L503.568 129.52 L503.568 126.21 L513.383 126.21 Z" fill="#000000" fill-rule="nonzero" fill-opacity="1" /></svg>
