<?xml version="1.0" encoding="utf-8"?>
<svg xmlns="http://www.w3.org/2000/svg" xmlns:xlink="http://www.w3.org/1999/xlink" width="600" height="400" viewBox="0 0 2400 1600">
<defs>
  <clipPath id="clip280">
    <rect x="0" y="0" width="2400" height="1600"/>
  </clipPath>
</defs>
<path clip-path="url(#clip280)" d="M0 1600 L2400 1600 L2400 0 L0 0  Z" fill="#ffffff" fill-rule="evenodd" fill-opacity="1"/>
<defs>
  <clipPath id="clip281">
    <rect x="480" y="0" width="1681" height="1600"/>
  </clipPath>
</defs>
<path clip-path="url(#clip280)" d="M112.177 1423.18 L2352.76 1423.18 L2352.76 47.2441 L112.177 47.2441  Z" fill="#ffffff" fill-rule="evenodd" fill-opacity="1"/>
<defs>
  <clipPath id="clip282">
    <rect x="112" y="47" width="2242" height="1377"/>
  </clipPath>
</defs>
<polyline clip-path="url(#clip282)" style="stroke:#000000; stroke-linecap:round; stroke-linejoin:round; stroke-width:2; stroke-opacity:0.1; fill:none" points="112.177,1423.18 112.177,47.2441 "/>
<polyline clip-path="url(#clip282)" style="stroke:#000000; stroke-linecap:round; stroke-linejoin:round; stroke-width:2; stroke-opacity:0.1; fill:none" points="560.293,1423.18 560.293,47.2441 "/>
<polyline clip-path="url(#clip282)" style="stroke:#000000; stroke-linecap:round; stroke-linejoin:round; stroke-width:2; stroke-opacity:0.1; fill:none" points="1008.41,1423.18 1008.41,47.2441 "/>
<polyline clip-path="url(#clip282)" style="stroke:#000000; stroke-linecap:round; stroke-linejoin:round; stroke-width:2; stroke-opacity:0.1; fill:none" points="1456.52,1423.18 1456.52,47.2441 "/>
<polyline clip-path="url(#clip282)" style="stroke:#000000; stroke-linecap:round; stroke-linejoin:round; stroke-width:2; stroke-opacity:0.1; fill:none" points="1904.64,1423.18 1904.64,47.2441 "/>
<polyline clip-path="url(#clip282)" style="stroke:#000000; stroke-linecap:round; stroke-linejoin:round; stroke-width:2; stroke-opacity:0.1; fill:none" points="2352.76,1423.18 2352.76,47.2441 "/>
<polyline clip-path="url(#clip282)" style="stroke:#000000; stroke-linecap:round; stroke-linejoin:round; stroke-width:2; stroke-opacity:0.1; fill:none" points="112.177,1384.24 2352.76,1384.24 "/>
<polyline clip-path="url(#clip282)" style="stroke:#000000; stroke-linecap:round; stroke-linejoin:round; stroke-width:2; stroke-opacity:0.1; fill:none" points="112.177,1095.78 2352.76,1095.78 "/>
<polyline clip-path="url(#clip282)" style="stroke:#000000; stroke-linecap:round; stroke-linejoin:round; stroke-width:2; stroke-opacity:0.1; fill:none" points="112.177,807.326 2352.76,807.326 "/>
<polyline clip-path="url(#clip282)" style="stroke:#000000; stroke-linecap:round; stroke-linejoin:round; stroke-width:2; stroke-opacity:0.1; fill:none" points="112.177,518.87 2352.76,518.87 "/>
<polyline clip-path="url(#clip282)" style="stroke:#000000; stroke-linecap:round; stroke-linejoin:round; stroke-width:2; stroke-opacity:0.1; fill:none" points="112.177,230.414 2352.76,230.414 "/>
<polyline clip-path="url(#clip280)" style="stroke:#000000; stroke-linecap:round; stroke-linejoin:round; stroke-width:4; stroke-opacity:1; fill:none" points="112.177,1423.18 2352.76,1423.18 "/>
<polyline clip-path="url(#clip280)" style="stroke:#000000; stroke-linecap:round; stroke-linejoin:round; stroke-width:4; stroke-opacity:1; fill:none" points="112.177,1423.18 112.177,1404.28 "/>
<polyline clip-path="url(#clip280)" style="stroke:#000000; stroke-linecap:round; stroke-linejoin:round; stroke-width:4; stroke-opacity:1; fill:none" points="560.293,1423.18 560.293,1404.28 "/>
<polyline clip-path="url(#clip280)" style="stroke:#000000; stroke-linecap:round; stroke-linejoin:round; stroke-width:4; stroke-opacity:1; fill:none" points="1008.41,1423.18 1008.41,1404.28 "/>
<polyline clip-path="url(#clip280)" style="stroke:#000000; stroke-linecap:round; stroke-linejoin:round; stroke-width:4; stroke-opacity:1; fill:none" points="1456.52,1423.18 1456.52,1404.28 "/>
<polyline clip-path="url(#clip280)" style="stroke:#000000; stroke-linecap:round; stroke-linejoin:round; stroke-width:4; stroke-opacity:1; fill:none" points="1904.64,1423.18 1904.64,1404.28 "/>
<polyline clip-path="url(#clip280)" style="stroke:#000000; stroke-linecap:round; stroke-linejoin:round; stroke-width:4; stroke-opacity:1; fill:none" points="2352.76,1423.18 2352.76,1404.28 "/>
<path clip-path="url(#clip280)" d="M112.177 1454.1 Q108.566 1454.1 106.737 1457.66 Q104.932 1461.2 104.932 1468.33 Q104.932 1475.44 106.737 1479.01 Q108.566 1482.55 112.177 1482.55 Q115.811 1482.55 117.617 1479.01 Q119.446 1475.44 119.446 1468.33 Q119.446 1461.2 117.617 1457.66 Q115.811 1454.1 112.177 1454.1 M112.177 1450.39 Q117.987 1450.39 121.043 1455 Q124.122 1459.58 124.122 1468.33 Q124.122 1477.06 121.043 1481.67 Q117.987 1486.25 112.177 1486.25 Q106.367 1486.25 103.288 1481.67 Q100.233 1477.06 100.233 1468.33 Q100.233 1459.58 103.288 1455 Q106.367 1450.39 112.177 1450.39 Z" fill="#000000" fill-rule="nonzero" fill-opacity="1" /><path clip-path="url(#clip280)" d="M554.946 1481.64 L571.265 1481.64 L571.265 1485.58 L549.321 1485.58 L549.321 1481.64 Q551.983 1478.89 556.566 1474.26 Q561.173 1469.61 562.353 1468.27 Q564.598 1465.74 565.478 1464.01 Q566.381 1462.25 566.381 1460.56 Q566.381 1457.8 564.436 1456.07 Q562.515 1454.33 559.413 1454.33 Q557.214 1454.33 554.761 1455.09 Q552.33 1455.86 549.552 1457.41 L549.552 1452.69 Q552.376 1451.55 554.83 1450.97 Q557.284 1450.39 559.321 1450.39 Q564.691 1450.39 567.885 1453.08 Q571.08 1455.77 571.08 1460.26 Q571.08 1462.39 570.27 1464.31 Q569.483 1466.2 567.376 1468.8 Q566.798 1469.47 563.696 1472.69 Q560.594 1475.88 554.946 1481.64 Z" fill="#000000" fill-rule="nonzero" fill-opacity="1" /><path clip-path="url(#clip280)" d="M1011.42 1455.09 L999.612 1473.54 L1011.42 1473.54 L1011.42 1455.09 M1010.19 1451.02 L1016.07 1451.02 L1016.07 1473.54 L1021 1473.54 L1021 1477.43 L1016.07 1477.43 L1016.07 1485.58 L1011.42 1485.58 L1011.42 1477.43 L995.816 1477.43 L995.816 1472.92 L1010.19 1451.02 Z" fill="#000000" fill-rule="nonzero" fill-opacity="1" /><path clip-path="url(#clip280)" d="M1456.93 1466.44 Q1453.78 1466.44 1451.93 1468.59 Q1450.1 1470.74 1450.1 1474.49 Q1450.1 1478.22 1451.93 1480.39 Q1453.78 1482.55 1456.93 1482.55 Q1460.08 1482.55 1461.91 1480.39 Q1463.76 1478.22 1463.76 1474.49 Q1463.76 1470.74 1461.91 1468.59 Q1460.08 1466.44 1456.93 1466.44 M1466.21 1451.78 L1466.21 1456.04 Q1464.45 1455.21 1462.65 1454.77 Q1460.86 1454.33 1459.11 1454.33 Q1454.48 1454.33 1452.02 1457.45 Q1449.59 1460.58 1449.24 1466.9 Q1450.61 1464.89 1452.67 1463.82 Q1454.73 1462.73 1457.21 1462.73 Q1462.42 1462.73 1465.42 1465.9 Q1468.46 1469.05 1468.46 1474.49 Q1468.46 1479.82 1465.31 1483.03 Q1462.16 1486.25 1456.93 1486.25 Q1450.93 1486.25 1447.76 1481.67 Q1444.59 1477.06 1444.59 1468.33 Q1444.59 1460.14 1448.48 1455.28 Q1452.37 1450.39 1458.92 1450.39 Q1460.68 1450.39 1462.46 1450.74 Q1464.27 1451.09 1466.21 1451.78 Z" fill="#000000" fill-rule="nonzero" fill-opacity="1" /><path clip-path="url(#clip280)" d="M1904.64 1469.17 Q1901.31 1469.17 1899.39 1470.95 Q1897.49 1472.73 1897.49 1475.86 Q1897.49 1478.98 1899.39 1480.77 Q1901.31 1482.55 1904.64 1482.55 Q1907.97 1482.55 1909.89 1480.77 Q1911.82 1478.96 1911.82 1475.86 Q1911.82 1472.73 1909.89 1470.95 Q1908 1469.17 1904.64 1469.17 M1899.96 1467.18 Q1896.96 1466.44 1895.27 1464.38 Q1893.6 1462.32 1893.6 1459.35 Q1893.6 1455.21 1896.54 1452.8 Q1899.5 1450.39 1904.64 1450.39 Q1909.8 1450.39 1912.74 1452.8 Q1915.68 1455.21 1915.68 1459.35 Q1915.68 1462.32 1913.99 1464.38 Q1912.33 1466.44 1909.34 1467.18 Q1912.72 1467.96 1914.59 1470.26 Q1916.49 1472.55 1916.49 1475.86 Q1916.49 1480.88 1913.41 1483.57 Q1910.36 1486.25 1904.64 1486.25 Q1898.92 1486.25 1895.84 1483.57 Q1892.79 1480.88 1892.79 1475.86 Q1892.79 1472.55 1894.69 1470.26 Q1896.58 1467.96 1899.96 1467.18 M1898.25 1459.79 Q1898.25 1462.48 1899.92 1463.98 Q1901.61 1465.49 1904.64 1465.49 Q1907.65 1465.49 1909.34 1463.98 Q1911.05 1462.48 1911.05 1459.79 Q1911.05 1457.11 1909.34 1455.6 Q1907.65 1454.1 1904.64 1454.1 Q1901.61 1454.1 1899.92 1455.6 Q1898.25 1457.11 1898.25 1459.79 Z" fill="#000000" fill-rule="nonzero" fill-opacity="1" /><path clip-path="url(#clip280)" d="M2327.44 1481.64 L2335.08 1481.64 L2335.08 1455.28 L2326.77 1456.95 L2326.77 1452.69 L2335.04 1451.02 L2339.71 1451.02 L2339.71 1481.64 L2347.35 1481.64 L2347.35 1485.58 L2327.44 1485.58 L2327.44 1481.64 Z" fill="#000000" fill-rule="nonzero" fill-opacity="1" /><path clip-path="url(#clip280)" d="M2366.8 1454.1 Q2363.18 1454.1 2361.36 1457.66 Q2359.55 1461.2 2359.55 1468.33 Q2359.55 1475.44 2361.36 1479.01 Q2363.18 1482.55 2366.8 1482.55 Q2370.43 1482.55 2372.23 1479.01 Q2374.06 1475.44 2374.06 1468.33 Q2374.06 1461.2 2372.23 1457.66 Q2370.43 1454.1 2366.8 1454.1 M2366.8 1450.39 Q2372.61 1450.39 2375.66 1455 Q2378.74 1459.58 2378.74 1468.33 Q2378.74 1477.06 2375.66 1481.67 Q2372.61 1486.25 2366.8 1486.25 Q2360.99 1486.25 2357.91 1481.67 Q2354.85 1477.06 2354.85 1468.33 Q2354.85 1459.58 2357.91 1455 Q2360.99 1450.39 2366.8 1450.39 Z" fill="#000000" fill-rule="nonzero" fill-opacity="1" /><path clip-path="url(#clip280)" d="M1231.53 1522.27 L1231.53 1532.4 L1243.59 1532.4 L1243.59 1536.95 L1231.53 1536.95 L1231.53 1556.3 Q1231.53 1560.66 1232.71 1561.9 Q1233.91 1563.14 1237.58 1563.14 L1243.59 1563.14 L1243.59 1568.04 L1237.58 1568.04 Q1230.8 1568.04 1228.22 1565.53 Q1225.64 1562.98 1225.64 1556.3 L1225.64 1536.95 L1221.34 1536.95 L1221.34 1532.4 L1225.64 1532.4 L1225.64 1522.27 L1231.53 1522.27 Z" fill="#000000" fill-rule="nonzero" fill-opacity="1" /><polyline clip-path="url(#clip280)" style="stroke:#000000; stroke-linecap:round; stroke-linejoin:round; stroke-width:4; stroke-opacity:1; fill:none" points="112.177,1423.18 112.177,47.2441 "/>
<polyline clip-path="url(#clip280)" style="stroke:#000000; stroke-linecap:round; stroke-linejoin:round; stroke-width:4; stroke-opacity:1; fill:none" points="112.177,1384.24 131.075,1384.24 "/>
<polyline clip-path="url(#clip280)" style="stroke:#000000; stroke-linecap:round; stroke-linejoin:round; stroke-width:4; stroke-opacity:1; fill:none" points="112.177,1095.78 131.075,1095.78 "/>
<polyline clip-path="url(#clip280)" style="stroke:#000000; stroke-linecap:round; stroke-linejoin:round; stroke-width:4; stroke-opacity:1; fill:none" points="112.177,807.326 131.075,807.326 "/>
<polyline clip-path="url(#clip280)" style="stroke:#000000; stroke-linecap:round; stroke-linejoin:round; stroke-width:4; stroke-opacity:1; fill:none" points="112.177,518.87 131.075,518.87 "/>
<polyline clip-path="url(#clip280)" style="stroke:#000000; stroke-linecap:round; stroke-linejoin:round; stroke-width:4; stroke-opacity:1; fill:none" points="112.177,230.414 131.075,230.414 "/>
<path clip-path="url(#clip280)" d="M64.2328 1370.04 Q60.6217 1370.04 58.793 1373.6 Q56.9875 1377.14 56.9875 1384.27 Q56.9875 1391.38 58.793 1394.94 Q60.6217 1398.49 64.2328 1398.49 Q67.867 1398.49 69.6726 1394.94 Q71.5013 1391.38 71.5013 1384.27 Q71.5013 1377.14 69.6726 1373.6 Q67.867 1370.04 64.2328 1370.04 M64.2328 1366.33 Q70.0429 1366.33 73.0985 1370.94 Q76.1772 1375.52 76.1772 1384.27 Q76.1772 1393 73.0985 1397.61 Q70.0429 1402.19 64.2328 1402.19 Q58.4226 1402.19 55.344 1397.61 Q52.2884 1393 52.2884 1384.27 Q52.2884 1375.52 55.344 1370.94 Q58.4226 1366.33 64.2328 1366.33 Z" fill="#000000" fill-rule="nonzero" fill-opacity="1" /><path clip-path="url(#clip280)" d="M59.8578 1109.13 L76.1772 1109.13 L76.1772 1113.06 L54.2328 1113.06 L54.2328 1109.13 Q56.8949 1106.37 61.4782 1101.74 Q66.0846 1097.09 67.2652 1095.75 Q69.5105 1093.22 70.3902 1091.49 Q71.2929 1089.73 71.2929 1088.04 Q71.2929 1085.28 69.3485 1083.55 Q67.4272 1081.81 64.3254 1081.81 Q62.1263 1081.81 59.6726 1082.58 Q57.2421 1083.34 54.4643 1084.89 L54.4643 1080.17 Q57.2884 1079.03 59.7421 1078.46 Q62.1958 1077.88 64.2328 1077.88 Q69.6031 1077.88 72.7976 1080.56 Q75.992 1083.25 75.992 1087.74 Q75.992 1089.87 75.1818 1091.79 Q74.3948 1093.69 72.2883 1096.28 Q71.7096 1096.95 68.6078 1100.17 Q65.5059 1103.36 59.8578 1109.13 Z" fill="#000000" fill-rule="nonzero" fill-opacity="1" /><path clip-path="url(#clip280)" d="M66.5939 794.12 L54.7884 812.569 L66.5939 812.569 L66.5939 794.12 M65.367 790.046 L71.2466 790.046 L71.2466 812.569 L76.1772 812.569 L76.1772 816.458 L71.2466 816.458 L71.2466 824.606 L66.5939 824.606 L66.5939 816.458 L50.9921 816.458 L50.9921 811.944 L65.367 790.046 Z" fill="#000000" fill-rule="nonzero" fill-opacity="1" /><path clip-path="url(#clip280)" d="M64.6495 517.006 Q61.5013 517.006 59.6495 519.159 Q57.8208 521.312 57.8208 525.062 Q57.8208 528.789 59.6495 530.965 Q61.5013 533.117 64.6495 533.117 Q67.7976 533.117 69.6263 530.965 Q71.4781 528.789 71.4781 525.062 Q71.4781 521.312 69.6263 519.159 Q67.7976 517.006 64.6495 517.006 M73.9318 502.354 L73.9318 506.613 Q72.1726 505.78 70.367 505.34 Q68.5846 504.9 66.8254 504.9 Q62.1958 504.9 59.7421 508.025 Q57.3115 511.15 56.9643 517.469 Q58.33 515.456 60.3902 514.391 Q62.4504 513.303 64.9272 513.303 Q70.1355 513.303 73.1448 516.474 Q76.1772 519.622 76.1772 525.062 Q76.1772 530.386 73.029 533.604 Q69.8809 536.821 64.6495 536.821 Q58.6541 536.821 55.4828 532.238 Q52.3116 527.631 52.3116 518.905 Q52.3116 510.71 56.2004 505.849 Q60.0893 500.965 66.6402 500.965 Q68.3994 500.965 70.1818 501.312 Q71.9874 501.659 73.9318 502.354 Z" fill="#000000" fill-rule="nonzero" fill-opacity="1" /><path clip-path="url(#clip280)" d="M64.3254 231.282 Q60.9921 231.282 59.0708 233.064 Q57.1726 234.847 57.1726 237.972 Q57.1726 241.097 59.0708 242.879 Q60.9921 244.661 64.3254 244.661 Q67.6587 244.661 69.58 242.879 Q71.5013 241.073 71.5013 237.972 Q71.5013 234.847 69.58 233.064 Q67.6819 231.282 64.3254 231.282 M59.6495 229.291 Q56.6402 228.55 54.9504 226.49 Q53.2838 224.43 53.2838 221.467 Q53.2838 217.324 56.2236 214.916 Q59.1865 212.509 64.3254 212.509 Q69.4874 212.509 72.4272 214.916 Q75.367 217.324 75.367 221.467 Q75.367 224.43 73.6772 226.49 Q72.0105 228.55 69.0244 229.291 Q72.404 230.078 74.279 232.37 Q76.1772 234.661 76.1772 237.972 Q76.1772 242.995 73.0985 245.68 Q70.0429 248.365 64.3254 248.365 Q58.6078 248.365 55.5291 245.68 Q52.4736 242.995 52.4736 237.972 Q52.4736 234.661 54.3717 232.37 Q56.2699 230.078 59.6495 229.291 M57.9365 221.907 Q57.9365 224.592 59.6032 226.097 Q61.293 227.601 64.3254 227.601 Q67.3346 227.601 69.0244 226.097 Q70.7374 224.592 70.7374 221.907 Q70.7374 219.222 69.0244 217.717 Q67.3346 216.212 64.3254 216.212 Q61.293 216.212 59.6032 217.717 Q57.9365 219.222 57.9365 221.907 Z" fill="#000000" fill-rule="nonzero" fill-opacity="1" /><polyline clip-path="url(#clip282)" style="stroke:#009af9; stroke-linecap:round; stroke-linejoin:round; stroke-width:8; stroke-opacity:1; fill:none" points="112.177,1384.24 114.216,1384.24 116.255,1384.24 118.293,1384.24 120.332,1384.24 122.371,1384.24 124.41,1384.24 126.448,1384.24 128.487,1384.24 130.526,1384.24 132.565,1384.24 134.603,1384.24 136.642,1384.24 138.681,1384.24 140.72,1384.24 142.758,1384.24 144.797,1384.24 146.836,1384.24 148.875,1384.24 150.913,1384.24 152.952,1384.24 154.991,1384.24 157.03,1384.24 159.068,1384.24 161.107,1384.24 163.146,1384.24 165.184,1384.24 167.223,1384.24 169.262,1384.24 171.301,1384.24 173.339,1384.24 175.378,1384.24 177.417,1384.24 179.456,1384.24 181.494,1384.24 183.533,1384.24 185.572,1384.24 187.611,1384.24 189.649,1384.24 191.688,1384.24 193.727,1384.24 195.766,1384.24 197.804,1384.24 199.843,1384.24 201.882,1384.24 203.921,1384.24 205.959,1384.24 207.998,1384.24 210.037,1384.24 212.076,1384.24 214.114,1384.24 216.153,1384.24 218.192,1384.24 220.231,1384.24 222.269,1384.24 224.308,1384.24 226.347,1384.24 228.386,1384.24 230.424,1384.24 232.463,1384.24 234.502,1384.24 236.541,1384.24 238.579,1384.24 240.618,1384.24 242.657,1384.24 244.695,1384.24 246.734,1384.24 248.773,1384.24 250.812,1384.24 252.85,1384.24 254.889,1384.24 256.928,1384.24 258.967,1384.24 261.005,1384.24 263.044,1384.24 265.083,1384.24 267.122,1384.24 269.16,1384.24 271.199,1384.24 273.238,1384.24 275.277,1384.24 277.315,1384.24 279.354,1384.24 281.393,1384.24 283.432,1384.24 285.47,1384.24 287.509,1384.24 289.548,1384.24 291.587,1384.24 293.625,1384.24 295.664,1384.24 297.703,1384.24 299.742,1384.24 301.78,1384.24 303.819,1384.24 305.858,1384.24 307.897,1384.24 309.935,1384.24 311.974,1384.24 314.013,1384.24 316.051,1384.24 318.09,1384.24 320.129,1384.24 322.168,1384.24 324.206,1384.24 326.245,1384.24 328.284,1384.24 330.323,1384.24 332.361,1384.24 334.4,1384.24 336.439,1384.24 338.478,1384.24 340.516,1384.24 342.555,1384.24 344.594,1384.24 346.633,1384.24 348.671,1384.24 350.71,1384.24 352.749,1384.24 354.788,1384.24 356.826,1384.24 358.865,1384.24 360.904,1384.24 362.943,1384.24 364.981,1384.24 367.02,1384.24 369.059,1384.24 371.098,1384.24 373.136,1384.24 375.175,1384.24 377.214,1384.24 379.253,1384.24 381.291,1384.24 383.33,1384.24 385.369,1384.24 387.408,1384.24 389.446,1384.24 391.485,1384.24 393.524,1384.24 395.562,1384.24 397.601,1384.24 399.64,1384.24 401.679,1384.24 403.717,1384.24 405.756,1384.24 407.795,1384.24 409.834,1384.24 411.872,1384.24 413.911,1384.24 415.95,1384.24 417.989,1384.24 420.027,1384.24 422.066,1384.24 424.105,1384.24 426.144,1384.24 428.182,1384.24 430.221,1384.24 432.26,1384.24 434.299,1384.24 436.337,1384.24 438.376,1384.24 440.415,1384.24 442.454,1384.24 444.492,1384.24 446.531,1384.24 448.57,1384.24 450.609,1384.24 452.647,1384.24 454.686,1384.24 456.725,1384.24 458.764,1384.24 460.802,1384.24 462.841,1384.24 464.88,1384.24 466.918,1384.24 468.957,1384.24 470.996,1384.24 473.035,1384.24 475.073,1384.24 477.112,1384.24 479.151,1384.24 481.19,1384.24 483.228,1384.24 485.267,1384.24 487.306,1384.24 489.345,1384.24 491.383,1384.24 493.422,1384.24 495.461,1384.24 497.5,1384.24 499.538,1384.24 501.577,1384.24 503.616,1384.24 505.655,1384.24 507.693,1384.24 509.732,1384.24 511.771,1384.24 513.81,1384.24 515.848,1384.24 517.887,1384.24 519.926,1384.24 521.965,1384.24 524.003,1384.24 526.042,1384.24 528.081,1384.24 530.12,1384.24 532.158,1384.24 534.197,1384.24 536.236,1384.24 538.274,1384.24 540.313,1384.24 542.352,1384.24 544.391,1384.24 546.429,1384.24 548.468,1384.24 550.507,1384.24 552.546,1384.24 554.584,1384.24 556.623,1384.24 558.662,1384.24 560.701,1384.24 562.739,1384.24 564.778,1384.24 566.817,1384.24 568.856,1384.24 570.894,1384.24 572.933,1384.24 574.972,1384.24 577.011,1384.24 579.049,1384.24 581.088,1384.24 583.127,1384.24 585.166,1384.24 587.204,1384.24 589.243,1384.24 591.282,1384.24 593.321,1384.24 595.359,1384.24 597.398,1384.24 599.437,1384.24 601.476,1384.24 603.514,1384.24 605.553,1384.24 607.592,1384.24 609.631,1384.24 611.669,1384.24 613.708,1384.24 615.747,1384.24 617.785,1384.24 619.824,1384.24 621.863,1384.24 623.902,1384.24 625.94,1384.24 627.979,1384.24 630.018,1384.24 632.057,1384.24 634.095,1384.24 636.134,1384.24 638.173,1384.24 640.212,1384.24 642.25,1384.24 644.289,1384.24 646.328,1384.24 648.367,1384.24 650.405,1384.24 652.444,1384.24 654.483,1384.24 656.522,1384.24 658.56,1384.24 660.599,1384.24 662.638,1384.24 664.677,1384.24 666.715,1384.24 668.754,1384.24 670.793,1384.24 672.832,1384.24 674.87,1384.24 676.909,1384.24 678.948,1384.24 680.987,1384.24 683.025,1384.24 685.064,1384.24 687.103,1384.24 689.141,1384.24 691.18,1384.24 693.219,1384.24 695.258,1384.24 697.296,1384.24 699.335,1384.24 701.374,1384.24 703.413,1384.24 705.451,1384.24 707.49,1384.24 709.529,1384.24 711.568,1384.24 713.606,1384.24 715.645,1384.24 717.684,1384.24 719.723,1384.24 721.761,1384.24 723.8,1384.24 725.839,1384.24 727.878,1384.24 729.916,1384.24 731.955,1384.24 733.994,1384.24 736.033,1384.24 738.071,1384.24 740.11,1384.24 742.149,1384.24 744.188,1384.24 746.226,1384.24 748.265,1384.24 750.304,1384.24 752.343,1384.24 754.381,1384.24 756.42,1384.24 758.459,1384.24 760.498,1384.24 762.536,1384.24 764.575,1384.24 766.614,1384.24 768.652,1384.24 770.691,1384.24 772.73,1384.24 774.769,1384.24 776.807,1384.24 778.846,1384.24 780.885,1384.24 782.924,1384.24 784.962,1384.24 787.001,1384.24 789.04,1384.24 791.079,1384.24 793.117,1384.24 795.156,1384.24 797.195,1384.24 799.234,1384.24 801.272,1384.24 803.311,1384.24 805.35,1384.24 807.389,1384.24 809.427,1384.24 811.466,1384.24 813.505,1384.24 815.544,1384.24 817.582,1384.24 819.621,1384.24 821.66,1384.24 823.699,1384.24 825.737,1384.24 827.776,1384.24 829.815,1384.24 831.854,1384.24 833.892,1384.24 835.931,1384.24 837.97,1384.24 840.008,1384.24 842.047,1384.24 844.086,1384.24 846.125,1384.24 848.163,1384.24 850.202,1384.24 852.241,1384.24 854.28,1384.24 856.318,1384.24 858.357,1384.24 860.396,1384.24 862.435,1384.24 864.473,1384.24 866.512,1384.24 868.551,1384.24 870.59,1384.24 872.628,1384.24 874.667,1384.24 876.706,1384.24 878.745,1384.24 880.783,1384.24 882.822,1384.24 884.861,1384.24 886.9,1384.24 888.938,1384.24 890.977,1384.24 893.016,1384.24 895.055,1384.24 897.093,1384.24 899.132,1384.24 901.171,1384.24 903.21,1384.24 905.248,1384.24 907.287,1384.24 909.326,1384.24 911.364,1384.24 913.403,1384.24 915.442,1384.24 917.481,1384.24 919.519,1384.24 921.558,1384.24 923.597,1384.24 925.636,1384.24 927.674,1384.24 929.713,1384.24 931.752,1384.24 933.791,1384.24 935.829,1384.24 937.868,1384.24 939.907,1384.24 941.946,1384.24 943.984,1384.24 946.023,1384.24 948.062,1384.24 950.101,1384.24 952.139,1384.24 954.178,1384.24 956.217,1384.24 958.256,1384.24 960.294,1384.24 962.333,1384.24 964.372,1384.24 966.411,1384.24 968.449,1384.24 970.488,1384.24 972.527,1384.24 974.566,1384.24 976.604,1384.24 978.643,1384.24 980.682,1384.24 982.721,1384.24 984.759,1384.24 986.798,1384.24 988.837,1384.24 990.875,1384.24 992.914,1384.24 994.953,1384.24 996.992,1384.24 999.03,1384.24 1001.07,1384.24 1003.11,1384.24 1005.15,1384.24 1007.19,1384.24 1009.22,1384.24 1011.26,1384.24 1013.3,1384.24 1015.34,1384.24 1017.38,1384.24 1019.42,1384.24 1021.46,1384.24 1023.5,1384.24 1025.53,1384.24 1027.57,1384.24 1029.61,1384.24 1031.65,1384.24 1033.69,1384.24 1035.73,1384.24 1037.77,1384.24 1039.81,1384.24 1041.84,1384.24 1043.88,1384.24 1045.92,1384.24 1047.96,1384.24 1050,1384.24 1052.04,1384.24 1054.08,1384.24 1056.12,1384.24 1058.15,1384.24 1060.19,1384.24 1062.23,1384.24 1064.27,1384.24 1066.31,1384.24 1068.35,1384.24 1070.39,1384.24 1072.43,1384.24 1074.46,1384.24 1076.5,1384.24 1078.54,1384.24 1080.58,1384.24 1082.62,1384.24 1084.66,1384.24 1086.7,1384.24 1088.74,1384.24 1090.77,1384.24 1092.81,1384.24 1094.85,1384.24 1096.89,1384.24 1098.93,1384.24 1100.97,1384.24 1103.01,1384.24 1105.05,1384.24 1107.08,1384.24 1109.12,1384.24 1111.16,1384.24 1113.2,1384.24 1115.24,1384.24 1117.28,1384.24 1119.32,1384.24 1121.36,1384.24 1123.39,1384.24 1125.43,1384.24 1127.47,1384.24 1129.51,1384.24 1131.55,1384.24 1133.59,1384.24 1135.63,1384.24 1137.66,1384.24 1139.7,1384.24 1141.74,1384.24 1143.78,1384.24 1145.82,1384.24 1147.86,1384.24 1149.9,1384.24 1151.94,1384.24 1153.97,1384.24 1156.01,1384.24 1158.05,1384.24 1160.09,1384.24 1162.13,1384.24 1164.17,1384.24 1166.21,1384.24 1168.25,1384.24 1170.28,1384.24 1172.32,1384.24 1174.36,1384.24 1176.4,1384.24 1178.44,1384.24 1180.48,1384.24 1182.52,1384.24 1184.56,1384.24 1186.59,1384.24 1188.63,1384.24 1190.67,1384.24 1192.71,1384.24 1194.75,1384.24 1196.79,1384.24 1198.83,1240.01 1200.87,1240.01 1202.9,1240.01 1204.94,1240.01 1206.98,1240.01 1209.02,1240.01 1211.06,1240.01 1213.1,1240.01 1215.14,1240.01 1217.18,1240.01 1219.21,1240.01 1221.25,1240.01 1223.29,1240.01 1225.33,1240.01 1227.37,1240.01 1229.41,1240.01 1231.45,1240.01 1233.49,1240.01 1235.52,1240.01 1237.56,1240.01 1239.6,1240.01 1241.64,1240.01 1243.68,1240.01 1245.72,1240.01 1247.76,1240.01 1249.8,1240.01 1251.83,1240.01 1253.87,1240.01 1255.91,1240.01 1257.95,1240.01 1259.99,1240.01 1262.03,1240.01 1264.07,1240.01 1266.11,1240.01 1268.14,1240.01 1270.18,1240.01 1272.22,1240.01 1274.26,1240.01 1276.3,1240.01 1278.34,1240.01 1280.38,1240.01 1282.42,1240.01 1284.45,1240.01 1286.49,1240.01 1288.53,1240.01 1290.57,1240.01 1292.61,1240.01 1294.65,1240.01 1296.69,1240.01 1298.73,1240.01 1300.76,1240.01 1302.8,1240.01 1304.84,1240.01 1306.88,1240.01 1308.92,1240.01 1310.96,1240.01 1313,1240.01 1315.04,1240.01 1317.07,1240.01 1319.11,1240.01 1321.15,1240.01 1323.19,1240.01 1325.23,1240.01 1327.27,1240.01 1329.31,1095.78 1331.35,1095.78 1333.38,1095.78 1335.42,1095.78 1337.46,1095.78 1339.5,1095.78 1341.54,1095.78 1343.58,1095.78 1345.62,1095.78 1347.66,1095.78 1349.69,1095.78 1351.73,1095.78 1353.77,1095.78 1355.81,1095.78 1357.85,1095.78 1359.89,1095.78 1361.93,1095.78 1363.97,1095.78 1366,1095.78 1368.04,1095.78 1370.08,1095.78 1372.12,1095.78 1374.16,1095.78 1376.2,1095.78 1378.24,1095.78 1380.28,1095.78 1382.31,1095.78 1384.35,1095.78 1386.39,1095.78 1388.43,1095.78 1390.47,1095.78 1392.51,1095.78 1394.55,1095.78 1396.59,1095.78 1398.62,1095.78 1400.66,1095.78 1402.7,1095.78 1404.74,1095.78 1406.78,1095.78 1408.82,1095.78 1410.86,1095.78 1412.9,1095.78 1414.93,1095.78 1416.97,1095.78 1419.01,1095.78 1421.05,1095.78 1423.09,1095.78 1425.13,1095.78 1427.17,1095.78 1429.21,1095.78 1431.24,1095.78 1433.28,1095.78 1435.32,1095.78 1437.36,1095.78 1439.4,1095.78 1441.44,1095.78 1443.48,1095.78 1445.52,1095.78 1447.55,1095.78 1449.59,1095.78 1451.63,1095.78 1453.67,1095.78 1455.71,1095.78 1457.75,1095.78 1459.79,1095.78 1461.83,1095.78 1463.86,1095.78 1465.9,1095.78 1467.94,1095.78 1469.98,1095.78 1472.02,1095.78 1474.06,1095.78 1476.1,951.554 1478.14,951.554 1480.17,951.554 1482.21,951.554 1484.25,951.554 1486.29,951.554 1488.33,951.554 1490.37,951.554 1492.41,951.554 1494.45,951.554 1496.48,951.554 1498.52,951.554 1500.56,951.554 1502.6,951.554 1504.64,951.554 1506.68,951.554 1508.72,951.554 1510.75,951.554 1512.79,951.554 1514.83,951.554 1516.87,951.554 1518.91,951.554 1520.95,951.554 1522.99,951.554 1525.03,951.554 1527.06,951.554 1529.1,951.554 1531.14,951.554 1533.18,951.554 1535.22,951.554 1537.26,951.554 1539.3,951.554 1541.34,951.554 1543.37,951.554 1545.41,951.554 1547.45,951.554 1549.49,951.554 1551.53,951.554 1553.57,951.554 1555.61,951.554 1557.65,951.554 1559.68,951.554 1561.72,951.554 1563.76,951.554 1565.8,951.554 1567.84,951.554 1569.88,951.554 1571.92,951.554 1573.96,951.554 1575.99,951.554 1578.03,951.554 1580.07,951.554 1582.11,951.554 1584.15,951.554 1586.19,951.554 1588.23,951.554 1590.27,951.554 1592.3,951.554 1594.34,951.554 1596.38,951.554 1598.42,951.554 1600.46,951.554 1602.5,951.554 1604.54,951.554 1606.58,951.554 1608.61,951.554 1610.65,951.554 1612.69,951.554 1614.73,951.554 1616.77,951.554 1618.81,951.554 1620.85,951.554 1622.89,951.554 1624.92,951.554 1626.96,951.554 1629,951.554 1631.04,951.554 1633.08,951.554 1635.12,951.554 1637.16,951.554 1639.2,951.554 1641.23,951.554 1643.27,951.554 1645.31,951.554 1647.35,951.554 1649.39,951.554 1651.43,951.554 1653.47,951.554 1655.51,951.554 1657.54,951.554 1659.58,951.554 1661.62,951.554 1663.66,951.554 1665.7,951.554 1667.74,951.554 1669.78,951.554 1671.82,951.554 1673.85,951.554 1675.89,951.554 1677.93,951.554 1679.97,951.554 1682.01,951.554 1684.05,951.554 1686.09,951.554 1688.13,951.554 1690.16,951.554 1692.2,951.554 1694.24,951.554 1696.28,951.554 1698.32,951.554 1700.36,951.554 1702.4,951.554 1704.44,951.554 1706.47,951.554 1708.51,951.554 1710.55,951.554 1712.59,951.554 1714.63,951.554 1716.67,951.554 1718.71,951.554 1720.75,951.554 1722.78,951.554 1724.82,951.554 1726.86,951.554 1728.9,951.554 1730.94,951.554 1732.98,951.554 1735.02,951.554 1737.06,951.554 1739.09,951.554 1741.13,951.554 1743.17,951.554 1745.21,951.554 1747.25,951.554 1749.29,951.554 1751.33,951.554 1753.37,951.554 1755.4,951.554 1757.44,951.554 1759.48,951.554 1761.52,951.554 1763.56,951.554 1765.6,951.554 1767.64,951.554 1769.68,951.554 1771.71,951.554 1773.75,951.554 1775.79,951.554 1777.83,951.554 1779.87,951.554 1781.91,951.554 1783.95,951.554 1785.99,951.554 1788.02,951.554 1790.06,951.554 1792.1,951.554 1794.14,951.554 1796.18,951.554 1798.22,951.554 1800.26,951.554 1802.3,951.554 1804.33,951.554 1806.37,951.554 1808.41,951.554 1810.45,951.554 1812.49,951.554 1814.53,951.554 1816.57,951.554 1818.61,951.554 1820.64,951.554 1822.68,951.554 1824.72,951.554 1826.76,951.554 1828.8,951.554 1830.84,951.554 1832.88,951.554 1834.92,951.554 1836.95,951.554 1838.99,951.554 1841.03,951.554 1843.07,951.554 1845.11,951.554 1847.15,951.554 1849.19,951.554 1851.23,951.554 1853.26,951.554 1855.3,951.554 1857.34,951.554 1859.38,951.554 1861.42,951.554 1863.46,951.554 1865.5,951.554 1867.54,951.554 1869.57,951.554 1871.61,951.554 1873.65,951.554 1875.69,951.554 1877.73,951.554 1879.77,951.554 1881.81,951.554 1883.84,951.554 1885.88,951.554 1887.92,951.554 1889.96,951.554 1892,951.554 1894.04,951.554 1896.08,951.554 1898.12,951.554 1900.15,951.554 1902.19,951.554 1904.23,951.554 1906.27,951.554 1908.31,951.554 1910.35,951.554 1912.39,951.554 1914.43,951.554 1916.46,951.554 1918.5,951.554 1920.54,951.554 1922.58,951.554 1924.62,951.554 1926.66,951.554 1928.7,951.554 1930.74,951.554 1932.77,951.554 1934.81,951.554 1936.85,951.554 1938.89,951.554 1940.93,951.554 1942.97,951.554 1945.01,951.554 1947.05,951.554 1949.08,951.554 1951.12,951.554 1953.16,951.554 1955.2,951.554 1957.24,951.554 1959.28,951.554 1961.32,951.554 1963.36,951.554 1965.39,951.554 1967.43,951.554 1969.47,951.554 1971.51,951.554 1973.55,951.554 1975.59,951.554 1977.63,951.554 1979.67,951.554 1981.7,951.554 1983.74,951.554 1985.78,951.554 1987.82,951.554 1989.86,951.554 1991.9,951.554 1993.94,951.554 1995.98,951.554 1998.01,951.554 2000.05,951.554 2002.09,951.554 2004.13,951.554 2006.17,951.554 2008.21,951.554 2010.25,951.554 2012.29,951.554 2014.32,951.554 2016.36,951.554 2018.4,951.554 2020.44,951.554 2022.48,951.554 2024.52,951.554 2026.56,951.554 2028.6,951.554 2030.63,951.554 2032.67,951.554 2034.71,951.554 2036.75,951.554 2038.79,951.554 2040.83,951.554 2042.87,951.554 2044.91,951.554 2046.94,951.554 2048.98,951.554 2051.02,951.554 2053.06,951.554 2055.1,951.554 2057.14,951.554 2059.18,951.554 2061.22,951.554 2063.25,951.554 2065.29,951.554 2067.33,951.554 2069.37,951.554 2071.41,951.554 2073.45,951.554 2075.49,951.554 2077.53,951.554 2079.56,951.554 2081.6,951.554 2083.64,807.326 2085.68,807.326 2087.72,807.326 2089.76,807.326 2091.8,807.326 2093.84,807.326 2095.87,807.326 2097.91,807.326 2099.95,807.326 2101.99,807.326 2104.03,807.326 2106.07,807.326 2108.11,807.326 2110.15,807.326 2112.18,807.326 2114.22,807.326 2116.26,807.326 2118.3,807.326 2120.34,807.326 2122.38,807.326 2124.42,807.326 2126.46,807.326 2128.49,807.326 2130.53,807.326 2132.57,807.326 2134.61,807.326 2136.65,807.326 2138.69,807.326 2140.73,807.326 2142.77,807.326 2144.8,807.326 2146.84,807.326 2148.88,807.326 2150.92,807.326 2152.96,807.326 2155,807.326 2157.04,807.326 2159.08,807.326 2161.11,807.326 2163.15,807.326 2165.19,807.326 2167.23,807.326 2169.27,807.326 2171.31,807.326 2173.35,807.326 2175.39,807.326 2177.42,807.326 2179.46,807.326 2181.5,807.326 2183.54,807.326 2185.58,807.326 2187.62,807.326 2189.66,807.326 2191.7,807.326 2193.73,807.326 2195.77,807.326 2197.81,807.326 2199.85,807.326 2201.89,807.326 2203.93,807.326 2205.97,807.326 2208.01,807.326 2210.04,807.326 2212.08,807.326 2214.12,807.326 2216.16,807.326 2218.2,807.326 2220.24,807.326 2222.28,807.326 2224.32,807.326 2226.35,663.098 2228.39,663.098 2230.43,663.098 2232.47,663.098 2234.51,663.098 2236.55,663.098 2238.59,518.87 2240.63,518.87 2242.66,518.87 2244.7,518.87 2246.74,518.87 2248.78,518.87 2250.82,518.87 2252.86,518.87 2254.9,518.87 2256.93,374.642 2258.97,374.642 2261.01,374.642 2263.05,374.642 2265.09,374.642 2267.13,374.642 2269.17,374.642 2271.21,374.642 2273.24,374.642 2275.28,374.642 2277.32,374.642 2279.36,374.642 2281.4,374.642 2283.44,374.642 2285.48,374.642 2287.52,374.642 2289.55,374.642 2291.59,374.642 2293.63,374.642 2295.67,374.642 2297.71,374.642 2299.75,374.642 2301.79,374.642 2303.83,374.642 2305.86,374.642 2307.9,374.642 2309.94,374.642 2311.98,374.642 2314.02,374.642 2316.06,374.642 2318.1,374.642 2320.14,374.642 2322.17,374.642 2324.21,374.642 2326.25,374.642 2328.29,374.642 2330.33,230.414 2332.37,230.414 2334.41,230.414 2336.45,230.414 2338.48,230.414 2340.52,230.414 2342.56,230.414 2344.6,230.414 2346.64,230.414 2348.68,230.414 2350.72,230.414 2352.76,86.1857 "/>
<path clip-path="url(#clip280)" d="M186.863 196.789 L500.018 196.789 L500.018 93.1086 L186.863 93.1086  Z" fill="#ffffff" fill-rule="evenodd" fill-opacity="1"/>
<polyline clip-path="url(#clip280)" style="stroke:#000000; stroke-linecap:round; stroke-linejoin:round; stroke-width:4; stroke-opacity:1; fill:none" points="186.863,196.789 500.018,196.789 500.018,93.1086 186.863,93.1086 186.863,196.789 "/>
<polyline clip-path="url(#clip280)" style="stroke:#009af9; stroke-linecap:round; stroke-linejoin:round; stroke-width:8; stroke-opacity:1; fill:none" points="211.758,144.949 361.13,144.949 "/>
<path clip-path="url(#clip280)" d="M386.026 151.997 L386.026 136.303 L390.285 136.303 L390.285 151.835 Q390.285 155.516 391.72 157.368 Q393.155 159.196 396.026 159.196 Q399.475 159.196 401.465 156.997 Q403.479 154.798 403.479 151.002 L403.479 136.303 L407.739 136.303 L407.739 162.229 L403.479 162.229 L403.479 158.247 Q401.928 160.608 399.868 161.766 Q397.831 162.9 395.123 162.9 Q390.655 162.9 388.34 160.122 Q386.026 157.344 386.026 151.997 M396.743 135.678 L396.743 135.678 Z" fill="#000000" fill-rule="nonzero" fill-opacity="1" /><path clip-path="url(#clip280)" d="M416.118 126.21 L425.933 126.21 L425.933 129.52 L420.377 129.52 L420.377 165.168 L425.933 165.168 L425.933 168.479 L416.118 168.479 L416.118 126.21 Z" fill="#000000" fill-rule="nonzero" fill-opacity="1" /><path clip-path="url(#clip280)" d="M436.419 158.293 L444.058 158.293 L444.058 131.928 L435.748 133.595 L435.748 129.335 L444.011 127.669 L448.687 127.669 L448.687 158.293 L456.326 158.293 L456.326 162.229 L436.419 162.229 L436.419 158.293 Z" fill="#000000" fill-rule="nonzero" fill-opacity="1" /><path clip-path="url(#clip280)" d="M475.122 126.21 L475.122 168.479 L465.308 168.479 L465.308 165.168 L470.84 165.168 L470.84 129.52 L465.308 129.52 L465.308 126.21 L475.122 126.21 Z" fill="#000000" fill-rule="nonzero" fill-opacity="1" /></svg>
