<?xml version="1.0" encoding="utf-8"?>
<svg xmlns="http://www.w3.org/2000/svg" xmlns:xlink="http://www.w3.org/1999/xlink" width="600" height="400" viewBox="0 0 2400 1600">
<defs>
  <clipPath id="clip210">
    <rect x="0" y="0" width="2400" height="1600"/>
  </clipPath>
</defs>
<path clip-path="url(#clip210)" d="M0 1600 L2400 1600 L2400 0 L0 0  Z" fill="#ffffff" fill-rule="evenodd" fill-opacity="1"/>
<defs>
  <clipPath id="clip211">
    <rect x="480" y="0" width="1681" height="1600"/>
  </clipPath>
</defs>
<path clip-path="url(#clip210)" d="M156.112 1423.18 L2352.76 1423.18 L2352.76 47.2441 L156.112 47.2441  Z" fill="#ffffff" fill-rule="evenodd" fill-opacity="1"/>
<defs>
  <clipPath id="clip212">
    <rect x="156" y="47" width="2198" height="1377"/>
  </clipPath>
</defs>
<polyline clip-path="url(#clip212)" style="stroke:#000000; stroke-linecap:round; stroke-linejoin:round; stroke-width:2; stroke-opacity:0.1; fill:none" points="156.112,1423.18 156.112,47.2441 "/>
<polyline clip-path="url(#clip212)" style="stroke:#000000; stroke-linecap:round; stroke-linejoin:round; stroke-width:2; stroke-opacity:0.1; fill:none" points="595.441,1423.18 595.441,47.2441 "/>
<polyline clip-path="url(#clip212)" style="stroke:#000000; stroke-linecap:round; stroke-linejoin:round; stroke-width:2; stroke-opacity:0.1; fill:none" points="1034.77,1423.18 1034.77,47.2441 "/>
<polyline clip-path="url(#clip212)" style="stroke:#000000; stroke-linecap:round; stroke-linejoin:round; stroke-width:2; stroke-opacity:0.1; fill:none" points="1474.1,1423.18 1474.1,47.2441 "/>
<polyline clip-path="url(#clip212)" style="stroke:#000000; stroke-linecap:round; stroke-linejoin:round; stroke-width:2; stroke-opacity:0.1; fill:none" points="1913.43,1423.18 1913.43,47.2441 "/>
<polyline clip-path="url(#clip212)" style="stroke:#000000; stroke-linecap:round; stroke-linejoin:round; stroke-width:2; stroke-opacity:0.1; fill:none" points="2352.76,1423.18 2352.76,47.2441 "/>
<polyline clip-path="url(#clip212)" style="stroke:#000000; stroke-linecap:round; stroke-linejoin:round; stroke-width:2; stroke-opacity:0.1; fill:none" points="156.112,1422.7 2352.76,1422.7 "/>
<polyline clip-path="url(#clip212)" style="stroke:#000000; stroke-linecap:round; stroke-linejoin:round; stroke-width:2; stroke-opacity:0.1; fill:none" points="156.112,1005.19 2352.76,1005.19 "/>
<polyline clip-path="url(#clip212)" style="stroke:#000000; stroke-linecap:round; stroke-linejoin:round; stroke-width:2; stroke-opacity:0.1; fill:none" points="156.112,587.681 2352.76,587.681 "/>
<polyline clip-path="url(#clip212)" style="stroke:#000000; stroke-linecap:round; stroke-linejoin:round; stroke-width:2; stroke-opacity:0.1; fill:none" points="156.112,170.174 2352.76,170.174 "/>
<polyline clip-path="url(#clip210)" style="stroke:#000000; stroke-linecap:round; stroke-linejoin:round; stroke-width:4; stroke-opacity:1; fill:none" points="156.112,1423.18 2352.76,1423.18 "/>
<polyline clip-path="url(#clip210)" style="stroke:#000000; stroke-linecap:round; stroke-linejoin:round; stroke-width:4; stroke-opacity:1; fill:none" points="156.112,1423.18 156.112,1404.28 "/>
<polyline clip-path="url(#clip210)" style="stroke:#000000; stroke-linecap:round; stroke-linejoin:round; stroke-width:4; stroke-opacity:1; fill:none" points="595.441,1423.18 595.441,1404.28 "/>
<polyline clip-path="url(#clip210)" style="stroke:#000000; stroke-linecap:round; stroke-linejoin:round; stroke-width:4; stroke-opacity:1; fill:none" points="1034.77,1423.18 1034.77,1404.28 "/>
<polyline clip-path="url(#clip210)" style="stroke:#000000; stroke-linecap:round; stroke-linejoin:round; stroke-width:4; stroke-opacity:1; fill:none" points="1474.1,1423.18 1474.1,1404.28 "/>
<polyline clip-path="url(#clip210)" style="stroke:#000000; stroke-linecap:round; stroke-linejoin:round; stroke-width:4; stroke-opacity:1; fill:none" points="1913.43,1423.18 1913.43,1404.28 "/>
<polyline clip-path="url(#clip210)" style="stroke:#000000; stroke-linecap:round; stroke-linejoin:round; stroke-width:4; stroke-opacity:1; fill:none" points="2352.76,1423.18 2352.76,1404.28 "/>
<path clip-path="url(#clip210)" d="M156.112 1454.1 Q152.501 1454.1 150.672 1457.66 Q148.867 1461.2 148.867 1468.33 Q148.867 1475.44 150.672 1479.01 Q152.501 1482.55 156.112 1482.55 Q159.746 1482.55 161.552 1479.01 Q163.381 1475.44 163.381 1468.33 Q163.381 1461.2 161.552 1457.66 Q159.746 1454.1 156.112 1454.1 M156.112 1450.39 Q161.922 1450.39 164.978 1455 Q168.057 1459.58 168.057 1468.33 Q168.057 1477.06 164.978 1481.67 Q161.922 1486.25 156.112 1486.25 Q150.302 1486.25 147.223 1481.67 Q144.168 1477.06 144.168 1468.33 Q144.168 1459.58 147.223 1455 Q150.302 1450.39 156.112 1450.39 Z" fill="#000000" fill-rule="nonzero" fill-opacity="1" /><path clip-path="url(#clip210)" d="M590.094 1481.64 L606.413 1481.64 L606.413 1485.58 L584.469 1485.58 L584.469 1481.64 Q587.131 1478.89 591.714 1474.26 Q596.321 1469.61 597.501 1468.27 Q599.746 1465.74 600.626 1464.01 Q601.529 1462.25 601.529 1460.56 Q601.529 1457.8 599.584 1456.07 Q597.663 1454.33 594.561 1454.33 Q592.362 1454.33 589.909 1455.09 Q587.478 1455.86 584.7 1457.41 L584.7 1452.69 Q587.524 1451.55 589.978 1450.97 Q592.432 1450.39 594.469 1450.39 Q599.839 1450.39 603.033 1453.08 Q606.228 1455.77 606.228 1460.26 Q606.228 1462.39 605.418 1464.31 Q604.631 1466.2 602.524 1468.8 Q601.945 1469.47 598.844 1472.69 Q595.742 1475.88 590.094 1481.64 Z" fill="#000000" fill-rule="nonzero" fill-opacity="1" /><path clip-path="url(#clip210)" d="M1037.78 1455.09 L1025.97 1473.54 L1037.78 1473.54 L1037.78 1455.09 M1036.55 1451.02 L1042.43 1451.02 L1042.43 1473.54 L1047.36 1473.54 L1047.36 1477.43 L1042.43 1477.43 L1042.43 1485.58 L1037.78 1485.58 L1037.78 1477.43 L1022.18 1477.43 L1022.18 1472.92 L1036.55 1451.02 Z" fill="#000000" fill-rule="nonzero" fill-opacity="1" /><path clip-path="url(#clip210)" d="M1474.5 1466.44 Q1471.36 1466.44 1469.5 1468.59 Q1467.67 1470.74 1467.67 1474.49 Q1467.67 1478.22 1469.5 1480.39 Q1471.36 1482.55 1474.5 1482.55 Q1477.65 1482.55 1479.48 1480.39 Q1481.33 1478.22 1481.33 1474.49 Q1481.33 1470.74 1479.48 1468.59 Q1477.65 1466.44 1474.5 1466.44 M1483.79 1451.78 L1483.79 1456.04 Q1482.03 1455.21 1480.22 1454.77 Q1478.44 1454.33 1476.68 1454.33 Q1472.05 1454.33 1469.6 1457.45 Q1467.17 1460.58 1466.82 1466.9 Q1468.18 1464.89 1470.24 1463.82 Q1472.3 1462.73 1474.78 1462.73 Q1479.99 1462.73 1483 1465.9 Q1486.03 1469.05 1486.03 1474.49 Q1486.03 1479.82 1482.88 1483.03 Q1479.73 1486.25 1474.5 1486.25 Q1468.51 1486.25 1465.34 1481.67 Q1462.17 1477.06 1462.17 1468.33 Q1462.17 1460.14 1466.05 1455.28 Q1469.94 1450.39 1476.49 1450.39 Q1478.25 1450.39 1480.04 1450.74 Q1481.84 1451.09 1483.79 1451.78 Z" fill="#000000" fill-rule="nonzero" fill-opacity="1" /><path clip-path="url(#clip210)" d="M1913.43 1469.17 Q1910.09 1469.17 1908.17 1470.95 Q1906.27 1472.73 1906.27 1475.86 Q1906.27 1478.98 1908.17 1480.77 Q1910.09 1482.55 1913.43 1482.55 Q1916.76 1482.55 1918.68 1480.77 Q1920.6 1478.96 1920.6 1475.86 Q1920.6 1472.73 1918.68 1470.95 Q1916.78 1469.17 1913.43 1469.17 M1908.75 1467.18 Q1905.74 1466.44 1904.05 1464.38 Q1902.39 1462.32 1902.39 1459.35 Q1902.39 1455.21 1905.33 1452.8 Q1908.29 1450.39 1913.43 1450.39 Q1918.59 1450.39 1921.53 1452.8 Q1924.47 1455.21 1924.47 1459.35 Q1924.47 1462.32 1922.78 1464.38 Q1921.11 1466.44 1918.13 1467.18 Q1921.51 1467.96 1923.38 1470.26 Q1925.28 1472.55 1925.28 1475.86 Q1925.28 1480.88 1922.2 1483.57 Q1919.14 1486.25 1913.43 1486.25 Q1907.71 1486.25 1904.63 1483.57 Q1901.58 1480.88 1901.58 1475.86 Q1901.58 1472.55 1903.47 1470.26 Q1905.37 1467.96 1908.75 1467.18 M1907.04 1459.79 Q1907.04 1462.48 1908.7 1463.98 Q1910.39 1465.49 1913.43 1465.49 Q1916.44 1465.49 1918.13 1463.98 Q1919.84 1462.48 1919.84 1459.79 Q1919.84 1457.11 1918.13 1455.6 Q1916.44 1454.1 1913.43 1454.1 Q1910.39 1454.1 1908.7 1455.6 Q1907.04 1457.11 1907.04 1459.79 Z" fill="#000000" fill-rule="nonzero" fill-opacity="1" /><path clip-path="url(#clip210)" d="M2327.44 1481.64 L2335.08 1481.64 L2335.08 1455.28 L2326.77 1456.95 L2326.77 1452.69 L2335.04 1451.02 L2339.71 1451.02 L2339.71 1481.64 L2347.35 1481.64 L2347.35 1485.58 L2327.44 1485.58 L2327.44 1481.64 Z" fill="#000000" fill-rule="nonzero" fill-opacity="1" /><path clip-path="url(#clip210)" d="M2366.8 1454.1 Q2363.18 1454.1 2361.36 1457.66 Q2359.55 1461.2 2359.55 1468.33 Q2359.55 1475.44 2361.36 1479.01 Q2363.18 1482.55 2366.8 1482.55 Q2370.43 1482.55 2372.23 1479.01 Q2374.06 1475.44 2374.06 1468.33 Q2374.06 1461.2 2372.23 1457.66 Q2370.43 1454.1 2366.8 1454.1 M2366.8 1450.39 Q2372.61 1450.39 2375.66 1455 Q2378.74 1459.58 2378.74 1468.33 Q2378.74 1477.06 2375.66 1481.67 Q2372.61 1486.25 2366.8 1486.25 Q2360.99 1486.25 2357.91 1481.67 Q2354.85 1477.06 2354.85 1468.33 Q2354.85 1459.58 2357.91 1455 Q2360.99 1450.39 2366.8 1450.39 Z" fill="#000000" fill-rule="nonzero" fill-opacity="1" /><path clip-path="url(#clip210)" d="M1253.5 1522.27 L1253.5 1532.4 L1265.56 1532.4 L1265.56 1536.95 L1253.5 1536.95 L1253.5 1556.3 Q1253.5 1560.66 1254.67 1561.9 Q1255.88 1563.14 1259.54 1563.14 L1265.56 1563.14 L1265.56 1568.04 L1259.54 1568.04 Q1252.76 1568.04 1250.18 1565.53 Q1247.61 1562.98 1247.61 1556.3 L1247.61 1536.95 L1243.31 1536.95 L1243.31 1532.4 L1247.61 1532.4 L1247.61 1522.27 L1253.5 1522.27 Z" fill="#000000" fill-rule="nonzero" fill-opacity="1" /><polyline clip-path="url(#clip210)" style="stroke:#000000; stroke-linecap:round; stroke-linejoin:round; stroke-width:4; stroke-opacity:1; fill:none" points="156.112,1423.18 156.112,47.2441 "/>
<polyline clip-path="url(#clip210)" style="stroke:#000000; stroke-linecap:round; stroke-linejoin:round; stroke-width:4; stroke-opacity:1; fill:none" points="156.112,1422.7 175.01,1422.7 "/>
<polyline clip-path="url(#clip210)" style="stroke:#000000; stroke-linecap:round; stroke-linejoin:round; stroke-width:4; stroke-opacity:1; fill:none" points="156.112,1005.19 175.01,1005.19 "/>
<polyline clip-path="url(#clip210)" style="stroke:#000000; stroke-linecap:round; stroke-linejoin:round; stroke-width:4; stroke-opacity:1; fill:none" points="156.112,587.681 175.01,587.681 "/>
<polyline clip-path="url(#clip210)" style="stroke:#000000; stroke-linecap:round; stroke-linejoin:round; stroke-width:4; stroke-opacity:1; fill:none" points="156.112,170.174 175.01,170.174 "/>
<path clip-path="url(#clip210)" d="M62.9365 1408.49 Q59.3254 1408.49 57.4967 1412.06 Q55.6912 1415.6 55.6912 1422.73 Q55.6912 1429.84 57.4967 1433.4 Q59.3254 1436.94 62.9365 1436.94 Q66.5707 1436.94 68.3763 1433.4 Q70.205 1429.84 70.205 1422.73 Q70.205 1415.6 68.3763 1412.06 Q66.5707 1408.49 62.9365 1408.49 M62.9365 1404.79 Q68.7467 1404.79 71.8022 1409.4 Q74.8809 1413.98 74.8809 1422.73 Q74.8809 1431.46 71.8022 1436.06 Q68.7467 1440.65 62.9365 1440.65 Q57.1264 1440.65 54.0477 1436.06 Q50.9921 1431.46 50.9921 1422.73 Q50.9921 1413.98 54.0477 1409.4 Q57.1264 1404.79 62.9365 1404.79 Z" fill="#000000" fill-rule="nonzero" fill-opacity="1" /><path clip-path="url(#clip210)" d="M83.0984 1434.1 L87.9827 1434.1 L87.9827 1439.98 L83.0984 1439.98 L83.0984 1434.1 Z" fill="#000000" fill-rule="nonzero" fill-opacity="1" /><path clip-path="url(#clip210)" d="M108.168 1408.49 Q104.557 1408.49 102.728 1412.06 Q100.922 1415.6 100.922 1422.73 Q100.922 1429.84 102.728 1433.4 Q104.557 1436.94 108.168 1436.94 Q111.802 1436.94 113.608 1433.4 Q115.436 1429.84 115.436 1422.73 Q115.436 1415.6 113.608 1412.06 Q111.802 1408.49 108.168 1408.49 M108.168 1404.79 Q113.978 1404.79 117.033 1409.4 Q120.112 1413.98 120.112 1422.73 Q120.112 1431.46 117.033 1436.06 Q113.978 1440.65 108.168 1440.65 Q102.358 1440.65 99.2789 1436.06 Q96.2234 1431.46 96.2234 1422.73 Q96.2234 1413.98 99.2789 1409.4 Q102.358 1404.79 108.168 1404.79 Z" fill="#000000" fill-rule="nonzero" fill-opacity="1" /><path clip-path="url(#clip210)" d="M63.9319 990.987 Q60.3208 990.987 58.4921 994.552 Q56.6865 998.094 56.6865 1005.22 Q56.6865 1012.33 58.4921 1015.89 Q60.3208 1019.44 63.9319 1019.44 Q67.5661 1019.44 69.3717 1015.89 Q71.2004 1012.33 71.2004 1005.22 Q71.2004 998.094 69.3717 994.552 Q67.5661 990.987 63.9319 990.987 M63.9319 987.283 Q69.742 987.283 72.7976 991.89 Q75.8763 996.473 75.8763 1005.22 Q75.8763 1013.95 72.7976 1018.56 Q69.742 1023.14 63.9319 1023.14 Q58.1217 1023.14 55.043 1018.56 Q51.9875 1013.95 51.9875 1005.22 Q51.9875 996.473 55.043 991.89 Q58.1217 987.283 63.9319 987.283 Z" fill="#000000" fill-rule="nonzero" fill-opacity="1" /><path clip-path="url(#clip210)" d="M84.0938 1016.59 L88.978 1016.59 L88.978 1022.47 L84.0938 1022.47 L84.0938 1016.59 Z" fill="#000000" fill-rule="nonzero" fill-opacity="1" /><path clip-path="url(#clip210)" d="M99.2095 987.908 L117.566 987.908 L117.566 991.844 L103.492 991.844 L103.492 1000.32 Q104.51 999.969 105.529 999.807 Q106.547 999.621 107.566 999.621 Q113.353 999.621 116.733 1002.79 Q120.112 1005.96 120.112 1011.38 Q120.112 1016.96 116.64 1020.06 Q113.168 1023.14 106.848 1023.14 Q104.672 1023.14 102.404 1022.77 Q100.159 1022.4 97.7511 1021.66 L97.7511 1016.96 Q99.8345 1018.09 102.057 1018.65 Q104.279 1019.2 106.756 1019.2 Q110.76 1019.2 113.098 1017.1 Q115.436 1014.99 115.436 1011.38 Q115.436 1007.77 113.098 1005.66 Q110.76 1003.56 106.756 1003.56 Q104.881 1003.56 103.006 1003.97 Q101.154 1004.39 99.2095 1005.27 L99.2095 987.908 Z" fill="#000000" fill-rule="nonzero" fill-opacity="1" /><path clip-path="url(#clip210)" d="M53.7467 601.026 L61.3856 601.026 L61.3856 574.661 L53.0754 576.327 L53.0754 572.068 L61.3393 570.401 L66.0152 570.401 L66.0152 601.026 L73.654 601.026 L73.654 604.961 L53.7467 604.961 L53.7467 601.026 Z" fill="#000000" fill-rule="nonzero" fill-opacity="1" /><path clip-path="url(#clip210)" d="M83.0984 599.082 L87.9827 599.082 L87.9827 604.961 L83.0984 604.961 L83.0984 599.082 Z" fill="#000000" fill-rule="nonzero" fill-opacity="1" /><path clip-path="url(#clip210)" d="M108.168 573.48 Q104.557 573.48 102.728 577.045 Q100.922 580.587 100.922 587.716 Q100.922 594.823 102.728 598.387 Q104.557 601.929 108.168 601.929 Q111.802 601.929 113.608 598.387 Q115.436 594.823 115.436 587.716 Q115.436 580.587 113.608 577.045 Q111.802 573.48 108.168 573.48 M108.168 569.776 Q113.978 569.776 117.033 574.383 Q120.112 578.966 120.112 587.716 Q120.112 596.443 117.033 601.049 Q113.978 605.633 108.168 605.633 Q102.358 605.633 99.2789 601.049 Q96.2234 596.443 96.2234 587.716 Q96.2234 578.966 99.2789 574.383 Q102.358 569.776 108.168 569.776 Z" fill="#000000" fill-rule="nonzero" fill-opacity="1" /><path clip-path="url(#clip210)" d="M54.7421 183.519 L62.381 183.519 L62.381 157.154 L54.0708 158.82 L54.0708 154.561 L62.3347 152.894 L67.0106 152.894 L67.0106 183.519 L74.6494 183.519 L74.6494 187.454 L54.7421 187.454 L54.7421 183.519 Z" fill="#000000" fill-rule="nonzero" fill-opacity="1" /><path clip-path="url(#clip210)" d="M84.0938 181.575 L88.978 181.575 L88.978 187.454 L84.0938 187.454 L84.0938 181.575 Z" fill="#000000" fill-rule="nonzero" fill-opacity="1" /><path clip-path="url(#clip210)" d="M99.2095 152.894 L117.566 152.894 L117.566 156.83 L103.492 156.83 L103.492 165.302 Q104.51 164.955 105.529 164.793 Q106.547 164.607 107.566 164.607 Q113.353 164.607 116.733 167.779 Q120.112 170.95 120.112 176.367 Q120.112 181.945 116.64 185.047 Q113.168 188.126 106.848 188.126 Q104.672 188.126 102.404 187.755 Q100.159 187.385 97.7511 186.644 L97.7511 181.945 Q99.8345 183.079 102.057 183.635 Q104.279 184.191 106.756 184.191 Q110.76 184.191 113.098 182.084 Q115.436 179.978 115.436 176.367 Q115.436 172.755 113.098 170.649 Q110.76 168.543 106.756 168.543 Q104.881 168.543 103.006 168.959 Q101.154 169.376 99.2095 170.255 L99.2095 152.894 Z" fill="#000000" fill-rule="nonzero" fill-opacity="1" /><polyline clip-path="url(#clip212)" style="stroke:#009af9; stroke-linecap:round; stroke-linejoin:round; stroke-width:8; stroke-opacity:1; fill:none" points="156.112,1255.69 158.311,1254.01 160.51,1252.32 162.709,1250.6 164.907,1248.87 167.106,1247.12 169.305,1245.36 171.504,1243.57 173.703,1241.77 175.902,1239.95 178.101,1238.11 180.299,1236.25 182.498,1234.38 184.697,1232.48 186.896,1230.57 189.095,1228.64 191.294,1226.68 193.492,1224.71 195.691,1222.72 197.89,1220.71 200.089,1218.68 202.288,1216.62 204.487,1214.55 206.686,1212.46 208.884,1210.34 211.083,1208.21 213.282,1206.05 215.481,1203.87 217.68,1201.67 219.879,1199.44 222.077,1197.2 224.276,1194.93 226.475,1192.64 228.674,1190.32 230.873,1187.99 233.072,1185.62 235.27,1183.24 237.469,1180.83 239.668,1178.4 241.867,1175.94 244.066,1173.46 246.265,1170.95 248.464,1168.42 250.662,1165.86 252.861,1163.27 255.06,1160.66 257.259,1158.03 259.458,1155.37 261.657,1152.68 263.855,1149.96 266.054,1147.22 268.253,1144.45 270.452,1141.65 272.651,1138.82 274.85,1135.96 277.048,1133.08 279.247,1130.16 281.446,1127.22 283.645,1124.25 285.844,1121.25 288.043,1118.21 290.242,1115.15 292.44,1112.06 294.639,1108.93 296.838,1105.77 299.037,1102.59 301.236,1099.37 303.435,1096.11 305.633,1092.83 307.832,1089.51 310.031,1086.16 312.23,1082.77 314.429,1079.35 316.628,1075.9 318.826,1072.41 321.025,1068.88 323.224,1065.33 325.423,1061.73 327.622,1058.1 329.821,1054.43 332.02,1050.73 334.218,1046.98 336.417,1043.2 338.616,1231.04 340.815,1229.11 343.014,1227.17 345.213,1225.2 347.411,1223.21 349.61,1221.2 351.809,1219.18 354.008,1217.13 356.207,1215.06 358.406,1212.97 360.604,1210.86 362.803,1208.73 365.002,1206.58 367.201,1204.41 369.4,1202.21 371.599,1199.99 373.798,1197.75 375.996,1195.49 378.195,1193.2 380.394,1190.89 382.593,1188.56 384.792,1186.21 386.991,1183.83 389.189,1181.42 391.388,1179 393.587,1176.54 395.786,1174.07 397.985,1171.57 400.184,1169.04 402.382,1166.49 404.581,1163.91 406.78,1161.31 408.979,1158.68 411.178,1156.02 413.377,1153.34 415.576,1150.63 417.774,1147.89 419.973,1145.13 422.172,1142.34 424.371,1139.51 426.57,1136.67 428.769,1133.79 430.967,1130.88 433.166,1127.95 435.365,1124.98 437.564,1121.99 439.763,1118.96 441.962,1115.91 444.161,1112.82 446.359,1109.7 448.558,1106.55 450.757,1103.37 452.956,1100.16 455.155,1096.91 457.354,1093.64 459.552,1090.33 461.751,1086.98 463.95,1083.61 466.149,1080.19 468.348,1076.75 470.547,1073.27 472.745,1069.75 474.944,1244.45 477.143,1242.66 479.342,1240.84 481.541,1239.01 483.74,1237.17 485.939,1235.3 488.137,1233.42 490.336,1231.51 492.535,1229.59 494.734,1227.64 496.933,1225.68 499.132,1223.7 501.33,1221.7 503.529,1219.68 505.728,1217.63 507.927,1215.57 510.126,1213.49 512.325,1211.38 514.523,1209.26 516.722,1207.11 518.921,1204.94 521.12,1202.75 523.319,1200.54 525.518,1198.3 527.717,1196.05 529.915,1193.77 532.114,1191.46 534.313,1189.14 536.512,1186.79 538.711,1184.41 540.91,1182.02 543.108,1179.59 545.307,1177.15 547.506,1174.68 549.705,1172.18 551.904,1169.66 554.103,1167.12 556.301,1164.55 558.5,1161.95 560.699,1159.33 562.898,1156.68 565.097,1154 567.296,1151.3 569.495,1148.57 571.693,1145.81 573.892,1143.02 576.091,1140.21 578.29,1137.37 580.489,1134.5 582.688,1131.6 584.886,1128.67 587.085,1125.71 589.284,1122.72 591.483,1119.71 593.682,1116.66 595.881,1113.58 598.079,1110.47 600.278,1107.33 602.477,1104.16 604.676,1100.95 606.875,1097.71 609.074,1094.44 611.273,1091.14 613.471,1087.81 615.67,1084.44 617.869,1081.04 620.068,1077.6 622.267,1074.13 624.466,1070.62 626.664,1067.08 628.863,1063.5 631.062,1059.89 633.261,1056.24 635.46,1052.55 637.659,1048.83 639.858,1045.07 642.056,1041.27 644.255,1037.43 646.454,1033.55 648.653,1029.64 650.852,1025.68 653.051,1021.69 655.249,1017.66 657.448,1013.58 659.647,1009.46 661.846,1005.31 664.045,1001.11 666.244,996.866 668.442,992.582 670.641,988.255 672.84,983.885 675.039,979.47 677.238,975.011 679.437,970.507 681.636,965.958 683.834,961.363 686.033,956.722 688.232,952.034 690.431,947.299 692.63,942.517 694.829,937.686 697.027,932.807 699.226,927.878 701.425,922.9 703.624,917.872 705.823,912.794 708.022,907.664 710.22,902.483 712.419,897.249 714.618,891.963 716.817,886.624 719.016,881.231 721.215,875.783 723.414,870.281 725.612,864.724 727.811,859.11 730.01,853.441 732.209,847.714 734.408,1132.31 736.607,1129.39 738.805,1126.44 741.004,1123.46 743.203,1120.45 745.402,1117.41 747.601,1114.34 749.8,1111.24 751.998,1108.1 754.197,1104.94 756.396,1101.74 758.595,1098.51 760.794,1258.97 762.993,1257.33 765.192,1255.66 767.39,1253.98 769.589,1252.28 771.788,1250.57 773.987,1248.84 776.186,1247.09 778.385,1245.32 780.583,1243.54 782.782,1241.74 784.981,1239.92 787.18,1238.08 789.379,1236.22 791.578,1234.34 793.776,1232.45 795.975,1230.53 798.174,1228.6 800.373,1226.65 802.572,1224.68 804.771,1222.68 806.97,1220.67 809.168,1218.64 811.367,1216.59 813.566,1214.51 815.765,1212.42 817.964,1210.3 820.163,1208.17 822.361,1206.01 824.56,1203.83 826.759,1201.63 828.958,1199.4 831.157,1197.16 833.356,1194.89 835.554,1192.6 837.753,1190.28 839.952,1187.94 842.151,1185.58 844.35,1183.2 846.549,1180.79 848.748,1178.35 850.946,1175.89 853.145,1173.41 855.344,1170.9 857.543,1168.37 859.742,1165.81 861.941,1163.23 864.139,1160.62 866.338,1157.98 868.537,1155.32 870.736,1152.63 872.935,1149.91 875.134,1147.17 877.333,1144.39 879.531,1141.59 881.73,1138.77 883.929,1135.91 886.128,1133.02 888.327,1130.11 890.526,1127.17 892.724,1124.19 894.923,1121.19 897.122,1118.16 899.321,1115.09 901.52,1112 903.719,1108.87 905.917,1105.72 908.116,1102.53 910.315,1099.31 912.514,1096.05 914.713,1092.77 916.912,1089.45 919.111,1086.1 921.309,1082.71 923.508,1079.29 925.707,1075.83 927.906,1072.34 930.105,1068.82 932.304,1065.26 934.502,1061.66 936.701,1058.03 938.9,1054.36 941.099,1050.66 943.298,1046.92 945.497,1043.13 947.695,1039.32 949.894,1035.46 952.093,1031.56 954.292,1225.16 956.491,1223.17 958.69,1221.17 960.889,1219.14 963.087,1217.09 965.286,1215.02 967.485,1212.93 969.684,1210.82 971.883,1208.69 974.082,1206.54 976.28,1204.37 978.479,1202.17 980.678,1199.95 982.877,1197.71 985.076,1195.45 987.275,1193.16 989.473,1190.85 991.672,1188.52 993.871,1186.16 996.07,1183.78 998.269,1181.38 1000.47,1178.95 1002.67,1176.5 1004.87,1174.02 1007.06,1171.52 1009.26,1168.99 1011.46,1166.44 1013.66,1163.86 1015.86,1161.26 1018.06,1158.63 1020.26,1155.97 1022.46,1153.29 1024.65,1150.58 1026.85,1147.84 1029.05,1145.08 1031.25,1142.28 1033.45,1139.46 1035.65,1136.61 1037.85,1133.74 1040.05,1130.83 1042.25,1127.89 1044.44,1124.93 1046.64,1121.93 1048.84,1118.9 1051.04,1115.85 1053.24,1112.76 1055.44,1109.64 1057.64,1106.49 1059.84,1103.31 1062.04,1100.1 1064.23,1096.85 1066.43,1093.58 1068.63,1090.27 1070.83,1086.92 1073.03,1083.54 1075.23,1080.13 1077.43,1076.69 1079.63,1073.2 1081.82,1069.69 1084.02,1066.14 1086.22,1062.55 1088.42,1058.93 1090.62,1055.27 1092.82,1051.57 1095.02,1047.84 1097.22,1044.07 1099.42,1040.26 1101.61,1036.41 1103.81,1032.52 1106.01,1028.6 1108.21,1024.63 1110.41,1020.63 1112.61,1016.58 1114.81,1012.5 1117.01,1008.37 1119.21,1004.2 1121.4,999.993 1123.6,995.741 1125.8,991.445 1128,987.107 1130.2,982.725 1132.4,978.298 1134.6,973.828 1136.8,969.312 1138.99,964.751 1141.19,960.144 1143.39,955.49 1145.59,950.79 1147.79,946.042 1149.99,941.247 1152.19,936.403 1154.39,931.511 1156.59,926.57 1158.78,921.578 1160.98,916.537 1163.18,911.445 1165.38,906.302 1167.58,901.107 1169.78,895.86 1171.98,890.56 1174.18,885.206 1176.38,879.799 1178.57,874.338 1180.77,868.822 1182.97,863.25 1185.17,857.622 1187.37,851.937 1189.57,846.195 1191.77,840.396 1193.97,834.538 1196.16,828.621 1198.36,822.645 1200.56,816.608 1202.76,810.511 1204.96,804.352 1207.16,798.132 1209.36,791.848 1211.56,785.502 1213.76,779.092 1215.95,772.617 1218.15,766.077 1220.35,759.471 1222.55,752.798 1224.75,746.059 1226.95,739.251 1229.15,732.375 1231.35,725.43 1233.55,718.415 1235.74,711.33 1237.94,704.173 1240.14,696.944 1242.34,689.643 1244.54,682.268 1246.74,674.819 1248.94,667.295 1251.14,659.695 1253.33,652.019 1255.53,644.266 1257.73,636.435 1259.93,628.524 1262.13,620.535 1264.33,612.464 1266.53,604.313 1268.73,596.08 1270.93,587.764 1273.12,579.364 1275.32,570.88 1277.52,562.311 1279.72,553.655 1281.92,544.912 1284.12,536.082 1286.32,527.163 1288.52,518.154 1290.71,509.054 1292.91,499.863 1295.11,490.58 1297.31,481.203 1299.51,471.732 1301.71,462.166 1303.91,452.503 1306.11,442.743 1308.31,432.885 1310.5,422.928 1312.7,412.871 1314.9,402.712 1317.1,392.451 1319.3,382.087 1321.5,371.619 1323.7,361.045 1325.9,350.365 1328.1,339.577 1330.29,328.681 1332.49,317.675 1334.69,306.558 1336.89,295.329 1339.09,283.987 1341.29,272.531 1343.49,260.96 1345.69,249.272 1347.88,237.466 1350.08,225.542 1352.28,213.498 1354.48,201.332 1356.68,189.044 1358.88,176.633 1361.08,164.096 1363.28,151.434 1365.48,138.644 1367.67,125.725 1369.87,112.677 1372.07,99.4975 1374.27,86.1857 1376.47,747.718 1378.67,740.927 1380.87,734.068 1383.07,727.141 1385.27,720.143 1387.46,713.075 1389.66,705.936 1391.86,1060.71 1394.06,1057.07 1396.26,1053.39 1398.46,1049.68 1400.66,1045.92 1402.86,1042.13 1405.05,1038.3 1407.25,1034.44 1409.45,1030.53 1411.65,1026.59 1413.85,1022.6 1416.05,1018.58 1418.25,1014.51 1420.45,1010.4 1422.65,1006.26 1424.84,1002.07 1427.04,997.834 1429.24,993.56 1431.44,989.243 1433.64,984.882 1435.84,980.478 1438.04,976.029 1440.24,971.535 1442.44,966.996 1444.63,962.412 1446.83,1306.47 1449.03,1305.3 1451.23,1304.12 1453.43,1302.92 1455.63,1301.72 1457.83,1300.5 1460.03,1299.27 1462.22,1298.03 1464.42,1296.78 1466.62,1295.51 1468.82,1294.23 1471.02,1292.94 1473.22,1291.63 1475.42,1290.31 1477.62,1288.98 1479.82,1287.64 1482.01,1286.28 1484.21,1284.91 1486.41,1283.52 1488.61,1282.12 1490.81,1280.71 1493.01,1279.28 1495.21,1350.26 1497.41,1349.54 1499.6,1348.8 1501.8,1348.06 1504,1347.31 1506.2,1346.55 1508.4,1384.24 1510.6,1383.85 1512.8,1383.46 1515,1383.07 1517.2,1382.67 1519.39,1382.26 1521.59,1381.86 1523.79,1381.45 1525.99,1381.03 1528.19,1380.61 1530.39,1380.19 1532.59,1379.76 1534.79,1379.33 1536.99,1378.89 1539.18,1378.45 1541.38,1378.01 1543.58,1377.56 1545.78,1377.1 1547.98,1376.65 1550.18,1376.18 1552.38,1375.71 1554.58,1375.24 1556.77,1374.76 1558.97,1374.28 1561.17,1373.8 1563.37,1373.3 1565.57,1372.81 1567.77,1372.3 1569.97,1371.8 1572.17,1371.29 1574.37,1370.77 1576.56,1370.25 1578.76,1369.72 1580.96,1369.19 1583.16,1368.65 1585.36,1368.1 1587.56,1367.55 1589.76,1367 1591.96,1366.44 1594.16,1365.87 1596.35,1365.3 1598.55,1364.72 1600.75,1364.14 1602.95,1363.55 1605.15,1362.96 1607.35,1362.36 1609.55,1361.75 1611.75,1361.14 1613.94,1360.52 1616.14,1359.89 1618.34,1359.26 1620.54,1358.62 1622.74,1357.98 1624.94,1357.32 1627.14,1356.67 1629.34,1356 1631.54,1355.33 1633.73,1354.65 1635.93,1353.97 1638.13,1353.28 1640.33,1352.58 1642.53,1351.87 1644.73,1351.16 1646.93,1350.44 1649.13,1349.72 1651.33,1348.98 1653.52,1348.24 1655.72,1347.49 1657.92,1346.73 1660.12,1345.97 1662.32,1345.2 1664.52,1344.42 1666.72,1343.63 1668.92,1342.84 1671.11,1342.03 1673.31,1341.22 1675.51,1340.4 1677.71,1339.57 1679.91,1338.74 1682.11,1337.89 1684.31,1337.04 1686.51,1336.18 1688.71,1335.31 1690.9,1334.43 1693.1,1333.54 1695.3,1332.64 1697.5,1331.74 1699.7,1330.82 1701.9,1329.9 1704.1,1328.96 1706.3,1328.02 1708.5,1327.07 1710.69,1326.11 1712.89,1325.13 1715.09,1324.15 1717.29,1323.16 1719.49,1322.16 1721.69,1321.15 1723.89,1320.13 1726.09,1319.1 1728.28,1318.05 1730.48,1317 1732.68,1315.94 1734.88,1314.86 1737.08,1313.78 1739.28,1312.68 1741.48,1311.58 1743.68,1310.46 1745.88,1309.33 1748.07,1308.19 1750.27,1307.04 1752.47,1305.87 1754.67,1304.7 1756.87,1303.51 1759.07,1302.31 1761.27,1301.1 1763.47,1299.88 1765.66,1298.64 1767.86,1297.39 1770.06,1296.13 1772.26,1294.86 1774.46,1293.57 1776.66,1292.28 1778.86,1290.96 1781.06,1289.64 1783.26,1288.3 1785.45,1286.95 1787.65,1285.58 1789.85,1284.2 1792.05,1282.81 1794.25,1281.4 1796.45,1279.98 1798.65,1278.54 1800.85,1277.09 1803.05,1275.63 1805.24,1274.15 1807.44,1272.65 1809.64,1271.15 1811.84,1269.62 1814.04,1268.08 1816.24,1266.53 1818.44,1264.95 1820.64,1263.37 1822.83,1261.76 1825.03,1260.15 1827.23,1258.51 1829.43,1256.86 1831.63,1255.19 1833.83,1253.5 1836.03,1251.8 1838.23,1250.08 1840.43,1248.35 1842.62,1246.59 1844.82,1244.82 1847.02,1243.03 1849.22,1241.22 1851.42,1239.4 1853.62,1237.56 1855.82,1235.69 1858.02,1233.81 1860.22,1231.91 1862.41,1229.99 1864.61,1228.05 1866.81,1226.1 1869.01,1224.12 1871.21,1222.12 1873.41,1220.1 1875.61,1218.06 1877.81,1216.01 1880,1213.93 1882.2,1211.83 1884.4,1209.7 1886.6,1207.56 1888.8,1205.4 1891,1203.21 1893.2,1201 1895.4,1198.77 1897.6,1196.52 1899.79,1194.24 1901.99,1191.95 1904.19,1189.62 1906.39,1187.28 1908.59,1184.91 1910.79,1182.52 1912.99,1180.1 1915.19,1177.66 1917.39,1175.2 1919.58,1172.71 1921.78,1170.19 1923.98,1167.65 1926.18,1165.09 1928.38,1162.49 1930.58,1159.88 1932.78,1157.23 1934.98,1154.56 1937.17,1151.86 1939.37,1149.14 1941.57,1146.39 1943.77,1143.61 1945.97,1140.8 1948.17,1137.96 1950.37,1135.1 1952.57,1132.21 1954.77,1129.28 1956.96,1126.33 1959.16,1123.35 1961.36,1120.34 1963.56,1117.3 1965.76,1114.23 1967.96,1111.12 1970.16,1107.99 1972.36,1104.82 1974.55,1101.62 1976.75,1098.39 1978.95,1095.13 1981.15,1091.84 1983.35,1088.51 1985.55,1085.15 1987.75,1081.75 1989.95,1078.32 1992.15,1074.86 1994.34,1071.36 1996.54,1067.82 1998.74,1064.25 2000.94,1060.65 2003.14,1057.01 2005.34,1053.33 2007.54,1049.61 2009.74,1045.86 2011.94,1042.07 2014.13,1038.24 2016.33,1034.37 2018.53,1030.46 2020.73,1026.52 2022.93,1022.53 2025.13,1018.51 2027.33,1014.44 2029.53,1010.33 2031.72,1006.18 2033.92,1001.99 2036.12,997.76 2038.32,993.484 2040.52,989.166 2042.72,984.804 2044.92,980.399 2047.12,975.949 2049.32,971.454 2051.51,966.914 2053.71,962.329 2055.91,957.697 2058.11,953.019 2060.31,948.294 2062.51,943.521 2064.71,938.701 2066.91,933.831 2069.11,928.913 2071.3,923.945 2073.5,918.927 2075.7,913.859 2077.9,908.74 2080.1,903.569 2082.3,898.347 2084.5,893.072 2086.7,887.744 2088.89,882.362 2091.09,876.926 2093.29,871.436 2095.49,865.891 2097.69,860.289 2099.89,854.632 2102.09,848.917 2104.29,843.146 2106.49,837.316 2108.68,831.427 2110.88,825.48 2113.08,819.472 2115.28,813.404 2117.48,807.276 2119.68,801.085 2121.88,794.832 2124.08,788.516 2126.28,782.137 2128.47,775.694 2130.67,769.185 2132.87,762.612 2135.07,755.972 2137.27,749.265 2139.47,742.49 2141.67,735.648 2143.87,728.736 2146.06,721.755 2148.26,714.704 2150.46,707.581 2152.66,700.387 2154.86,693.12 2157.06,685.781 2159.26,678.367 2161.46,670.878 2163.66,663.314 2165.85,655.674 2168.05,647.957 2170.25,640.163 2172.45,632.29 2174.65,624.337 2176.85,616.305 2179.05,608.191 2181.25,599.996 2183.45,591.719 2185.64,583.358 2187.84,574.913 2190.04,566.383 2192.24,557.768 2194.44,549.065 2196.64,540.276 2198.84,531.398 2201.04,522.431 2203.23,513.374 2205.43,504.226 2207.63,494.986 2209.83,485.652 2212.03,476.226 2214.23,466.704 2216.43,457.086 2218.63,447.372 2220.83,437.56 2223.02,427.649 2225.22,417.639 2227.42,407.528 2229.62,397.315 2231.82,386.999 2234.02,376.58 2236.22,366.056 2238.42,355.425 2240.61,344.688 2242.81,333.843 2245.01,322.889 2247.21,867.26 2249.41,861.672 2251.61,856.028 2253.81,850.327 2256.01,844.569 2258.21,838.753 2260.4,832.878 2262.6,826.944 2264.8,820.951 2267,814.897 2269.2,808.782 2271.4,802.606 2273.6,796.368 2275.8,790.067 2278,783.703 2280.19,777.275 2282.39,770.782 2284.59,764.223 2286.79,757.599 2288.99,750.908 2291.19,744.15 2293.39,737.324 2295.59,730.429 2297.78,723.465 2299.98,716.431 2302.18,709.325 2304.38,702.149 2306.58,694.9 2308.78,687.578 2310.98,680.183 2313.18,672.713 2315.38,665.168 2317.57,657.547 2319.77,649.85 2321.97,642.075 2324.17,634.221 2326.37,626.289 2328.57,618.277 2330.77,610.184 2332.97,602.009 2335.17,593.753 2337.36,585.413 2339.56,576.99 2341.76,568.482 2343.96,559.888 2346.16,551.208 2348.36,542.44 2350.56,533.584 2352.76,524.64 "/>
<path clip-path="url(#clip210)" d="M229.334 196.789 L538.095 196.789 L538.095 93.1086 L229.334 93.1086  Z" fill="#ffffff" fill-rule="evenodd" fill-opacity="1"/>
<polyline clip-path="url(#clip210)" style="stroke:#000000; stroke-linecap:round; stroke-linejoin:round; stroke-width:4; stroke-opacity:1; fill:none" points="229.334,196.789 538.095,196.789 538.095,93.1086 229.334,93.1086 229.334,196.789 "/>
<polyline clip-path="url(#clip210)" style="stroke:#009af9; stroke-linecap:round; stroke-linejoin:round; stroke-width:8; stroke-opacity:1; fill:none" points="253.741,144.949 400.184,144.949 "/>
<path clip-path="url(#clip210)" d="M424.591 151.997 L424.591 136.303 L428.85 136.303 L428.85 151.835 Q428.85 155.516 430.285 157.368 Q431.72 159.196 434.591 159.196 Q438.04 159.196 440.031 156.997 Q442.044 154.798 442.044 151.002 L442.044 136.303 L446.304 136.303 L446.304 162.229 L442.044 162.229 L442.044 158.247 Q440.494 160.608 438.433 161.766 Q436.396 162.9 433.688 162.9 Q429.22 162.9 426.906 160.122 Q424.591 157.344 424.591 151.997 M435.308 135.678 L435.308 135.678 Z" fill="#000000" fill-rule="nonzero" fill-opacity="1" /><path clip-path="url(#clip210)" d="M454.683 126.21 L464.498 126.21 L464.498 129.52 L458.942 129.52 L458.942 165.168 L464.498 165.168 L464.498 168.479 L454.683 168.479 L454.683 126.21 Z" fill="#000000" fill-rule="nonzero" fill-opacity="1" /><path clip-path="url(#clip210)" d="M474.984 158.293 L482.623 158.293 L482.623 131.928 L474.313 133.595 L474.313 129.335 L482.577 127.669 L487.253 127.669 L487.253 158.293 L494.891 158.293 L494.891 162.229 L474.984 162.229 L474.984 158.293 Z" fill="#000000" fill-rule="nonzero" fill-opacity="1" /><path clip-path="url(#clip210)" d="M513.688 126.21 L513.688 168.479 L503.873 168.479 L503.873 165.168 L509.405 165.168 L509.405 129.52 L503.873 129.52 L503.873 126.21 L513.688 126.21 Z" fill="#000000" fill-rule="nonzero" fill-opacity="1" /></svg>
