<?xml version="1.0" encoding="utf-8"?>
<svg xmlns="http://www.w3.org/2000/svg" xmlns:xlink="http://www.w3.org/1999/xlink" width="600" height="400" viewBox="0 0 2400 1600">
<defs>
  <clipPath id="clip990">
    <rect x="0" y="0" width="2400" height="1600"/>
  </clipPath>
</defs>
<path clip-path="url(#clip990)" d="M0 1600 L2400 1600 L2400 0 L0 0  Z" fill="#ffffff" fill-rule="evenodd" fill-opacity="1"/>
<defs>
  <clipPath id="clip991">
    <rect x="112" y="47" width="2242" height="1377"/>
  </clipPath>
</defs>
<path clip-path="url(#clip990)" d="M112.177 1423.18 L2352.76 1423.18 L2352.76 47.2441 L112.177 47.2441  Z" fill="#ffffff" fill-rule="evenodd" fill-opacity="1"/>
<polyline clip-path="url(#clip991)" style="stroke:#000000; stroke-linecap:round; stroke-linejoin:round; stroke-width:2; stroke-opacity:0.1; fill:none" points="112.177,1423.18 112.177,47.2441 "/>
<polyline clip-path="url(#clip991)" style="stroke:#000000; stroke-linecap:round; stroke-linejoin:round; stroke-width:2; stroke-opacity:0.1; fill:none" points="560.293,1423.18 560.293,47.2441 "/>
<polyline clip-path="url(#clip991)" style="stroke:#000000; stroke-linecap:round; stroke-linejoin:round; stroke-width:2; stroke-opacity:0.1; fill:none" points="1008.41,1423.18 1008.41,47.2441 "/>
<polyline clip-path="url(#clip991)" style="stroke:#000000; stroke-linecap:round; stroke-linejoin:round; stroke-width:2; stroke-opacity:0.1; fill:none" points="1456.52,1423.18 1456.52,47.2441 "/>
<polyline clip-path="url(#clip991)" style="stroke:#000000; stroke-linecap:round; stroke-linejoin:round; stroke-width:2; stroke-opacity:0.1; fill:none" points="1904.64,1423.18 1904.64,47.2441 "/>
<polyline clip-path="url(#clip991)" style="stroke:#000000; stroke-linecap:round; stroke-linejoin:round; stroke-width:2; stroke-opacity:0.1; fill:none" points="2352.76,1423.18 2352.76,47.2441 "/>
<polyline clip-path="url(#clip991)" style="stroke:#000000; stroke-linecap:round; stroke-linejoin:round; stroke-width:2; stroke-opacity:0.1; fill:none" points="112.177,1137.54 2352.76,1137.54 "/>
<polyline clip-path="url(#clip991)" style="stroke:#000000; stroke-linecap:round; stroke-linejoin:round; stroke-width:2; stroke-opacity:0.1; fill:none" points="112.177,829.169 2352.76,829.169 "/>
<polyline clip-path="url(#clip991)" style="stroke:#000000; stroke-linecap:round; stroke-linejoin:round; stroke-width:2; stroke-opacity:0.1; fill:none" points="112.177,520.797 2352.76,520.797 "/>
<polyline clip-path="url(#clip991)" style="stroke:#000000; stroke-linecap:round; stroke-linejoin:round; stroke-width:2; stroke-opacity:0.1; fill:none" points="112.177,212.425 2352.76,212.425 "/>
<polyline clip-path="url(#clip990)" style="stroke:#000000; stroke-linecap:round; stroke-linejoin:round; stroke-width:4; stroke-opacity:1; fill:none" points="112.177,1423.18 2352.76,1423.18 "/>
<polyline clip-path="url(#clip990)" style="stroke:#000000; stroke-linecap:round; stroke-linejoin:round; stroke-width:4; stroke-opacity:1; fill:none" points="112.177,1423.18 112.177,1404.28 "/>
<polyline clip-path="url(#clip990)" style="stroke:#000000; stroke-linecap:round; stroke-linejoin:round; stroke-width:4; stroke-opacity:1; fill:none" points="560.293,1423.18 560.293,1404.28 "/>
<polyline clip-path="url(#clip990)" style="stroke:#000000; stroke-linecap:round; stroke-linejoin:round; stroke-width:4; stroke-opacity:1; fill:none" points="1008.41,1423.18 1008.41,1404.28 "/>
<polyline clip-path="url(#clip990)" style="stroke:#000000; stroke-linecap:round; stroke-linejoin:round; stroke-width:4; stroke-opacity:1; fill:none" points="1456.52,1423.18 1456.52,1404.28 "/>
<polyline clip-path="url(#clip990)" style="stroke:#000000; stroke-linecap:round; stroke-linejoin:round; stroke-width:4; stroke-opacity:1; fill:none" points="1904.64,1423.18 1904.64,1404.28 "/>
<polyline clip-path="url(#clip990)" style="stroke:#000000; stroke-linecap:round; stroke-linejoin:round; stroke-width:4; stroke-opacity:1; fill:none" points="2352.76,1423.18 2352.76,1404.28 "/>
<path clip-path="url(#clip990)" d="M112.177 1454.1 Q108.566 1454.1 106.737 1457.66 Q104.932 1461.2 104.932 1468.33 Q104.932 1475.44 106.737 1479.01 Q108.566 1482.55 112.177 1482.55 Q115.811 1482.55 117.617 1479.01 Q119.446 1475.44 119.446 1468.33 Q119.446 1461.2 117.617 1457.66 Q115.811 1454.1 112.177 1454.1 M112.177 1450.39 Q117.987 1450.39 121.043 1455 Q124.122 1459.58 124.122 1468.33 Q124.122 1477.06 121.043 1481.67 Q117.987 1486.25 112.177 1486.25 Q106.367 1486.25 103.288 1481.67 Q100.233 1477.06 100.233 1468.33 Q100.233 1459.58 103.288 1455 Q106.367 1450.39 112.177 1450.39 Z" fill="#000000" fill-rule="nonzero" fill-opacity="1" /><path clip-path="url(#clip990)" d="M554.946 1481.64 L571.265 1481.64 L571.265 1485.58 L549.321 1485.58 L549.321 1481.64 Q551.983 1478.89 556.566 1474.26 Q561.173 1469.61 562.353 1468.27 Q564.598 1465.74 565.478 1464.01 Q566.381 1462.25 566.381 1460.56 Q566.381 1457.8 564.436 1456.07 Q562.515 1454.33 559.413 1454.33 Q557.214 1454.33 554.761 1455.09 Q552.33 1455.86 549.552 1457.41 L549.552 1452.69 Q552.376 1451.55 554.83 1450.97 Q557.284 1450.39 559.321 1450.39 Q564.691 1450.39 567.885 1453.08 Q571.08 1455.77 571.08 1460.26 Q571.08 1462.39 570.27 1464.31 Q569.483 1466.2 567.376 1468.8 Q566.798 1469.47 563.696 1472.69 Q560.594 1475.88 554.946 1481.64 Z" fill="#000000" fill-rule="nonzero" fill-opacity="1" /><path clip-path="url(#clip990)" d="M1011.42 1455.09 L999.612 1473.54 L1011.42 1473.54 L1011.42 1455.09 M1010.19 1451.02 L1016.07 1451.02 L1016.07 1473.54 L1021 1473.54 L1021 1477.43 L1016.07 1477.43 L1016.07 1485.58 L1011.42 1485.58 L1011.42 1477.43 L995.816 1477.43 L995.816 1472.92 L1010.19 1451.02 Z" fill="#000000" fill-rule="nonzero" fill-opacity="1" /><path clip-path="url(#clip990)" d="M1456.93 1466.44 Q1453.78 1466.44 1451.93 1468.59 Q1450.1 1470.74 1450.1 1474.49 Q1450.1 1478.22 1451.93 1480.39 Q1453.78 1482.55 1456.93 1482.55 Q1460.08 1482.55 1461.91 1480.39 Q1463.76 1478.22 1463.76 1474.49 Q1463.76 1470.74 1461.91 1468.59 Q1460.08 1466.44 1456.93 1466.44 M1466.21 1451.78 L1466.21 1456.04 Q1464.45 1455.21 1462.65 1454.77 Q1460.86 1454.33 1459.11 1454.33 Q1454.48 1454.33 1452.02 1457.45 Q1449.59 1460.58 1449.24 1466.9 Q1450.61 1464.89 1452.67 1463.82 Q1454.73 1462.73 1457.21 1462.73 Q1462.42 1462.73 1465.42 1465.9 Q1468.46 1469.05 1468.46 1474.49 Q1468.46 1479.82 1465.31 1483.03 Q1462.16 1486.25 1456.93 1486.25 Q1450.93 1486.25 1447.76 1481.67 Q1444.59 1477.06 1444.59 1468.33 Q1444.59 1460.14 1448.48 1455.28 Q1452.37 1450.39 1458.92 1450.39 Q1460.68 1450.39 1462.46 1450.74 Q1464.27 1451.09 1466.21 1451.78 Z" fill="#000000" fill-rule="nonzero" fill-opacity="1" /><path clip-path="url(#clip990)" d="M1904.64 1469.17 Q1901.31 1469.17 1899.39 1470.95 Q1897.49 1472.73 1897.49 1475.86 Q1897.49 1478.98 1899.39 1480.77 Q1901.31 1482.55 1904.64 1482.55 Q1907.97 1482.55 1909.89 1480.77 Q1911.82 1478.96 1911.82 1475.86 Q1911.82 1472.73 1909.89 1470.95 Q1908 1469.17 1904.64 1469.17 M1899.96 1467.18 Q1896.96 1466.44 1895.27 1464.38 Q1893.6 1462.32 1893.6 1459.35 Q1893.6 1455.21 1896.54 1452.8 Q1899.5 1450.39 1904.64 1450.39 Q1909.8 1450.39 1912.74 1452.8 Q1915.68 1455.21 1915.68 1459.35 Q1915.68 1462.32 1913.99 1464.38 Q1912.33 1466.44 1909.34 1467.18 Q1912.72 1467.96 1914.59 1470.26 Q1916.49 1472.55 1916.49 1475.86 Q1916.49 1480.88 1913.41 1483.57 Q1910.36 1486.25 1904.64 1486.25 Q1898.92 1486.25 1895.84 1483.57 Q1892.79 1480.88 1892.79 1475.86 Q1892.79 1472.55 1894.69 1470.26 Q1896.58 1467.96 1899.96 1467.18 M1898.25 1459.79 Q1898.25 1462.48 1899.92 1463.98 Q1901.61 1465.49 1904.64 1465.49 Q1907.65 1465.49 1909.34 1463.98 Q1911.05 1462.48 1911.05 1459.79 Q1911.05 1457.11 1909.34 1455.6 Q1907.65 1454.1 1904.64 1454.1 Q1901.61 1454.1 1899.92 1455.6 Q1898.25 1457.11 1898.25 1459.79 Z" fill="#000000" fill-rule="nonzero" fill-opacity="1" /><path clip-path="url(#clip990)" d="M2327.44 1481.64 L2335.08 1481.64 L2335.08 1455.28 L2326.77 1456.95 L2326.77 1452.69 L2335.04 1451.02 L2339.71 1451.02 L2339.71 1481.64 L2347.35 1481.64 L2347.35 1485.58 L2327.44 1485.58 L2327.44 1481.64 Z" fill="#000000" fill-rule="nonzero" fill-opacity="1" /><path clip-path="url(#clip990)" d="M2366.8 1454.1 Q2363.18 1454.1 2361.36 1457.66 Q2359.55 1461.2 2359.55 1468.33 Q2359.55 1475.44 2361.36 1479.01 Q2363.18 1482.55 2366.8 1482.55 Q2370.43 1482.55 2372.23 1479.01 Q2374.06 1475.44 2374.06 1468.33 Q2374.06 1461.2 2372.23 1457.66 Q2370.43 1454.1 2366.8 1454.1 M2366.8 1450.39 Q2372.61 1450.39 2375.66 1455 Q2378.74 1459.58 2378.74 1468.33 Q2378.74 1477.06 2375.66 1481.67 Q2372.61 1486.25 2366.8 1486.25 Q2360.99 1486.25 2357.91 1481.67 Q2354.85 1477.06 2354.85 1468.33 Q2354.85 1459.58 2357.91 1455 Q2360.99 1450.39 2366.8 1450.39 Z" fill="#000000" fill-rule="nonzero" fill-opacity="1" /><path clip-path="url(#clip990)" d="M1231.53 1522.27 L1231.53 1532.4 L1243.59 1532.4 L1243.59 1536.95 L1231.53 1536.95 L1231.53 1556.3 Q1231.53 1560.66 1232.71 1561.9 Q1233.91 1563.14 1237.58 1563.14 L1243.59 1563.14 L1243.59 1568.04 L1237.58 1568.04 Q1230.8 1568.04 1228.22 1565.53 Q1225.64 1562.98 1225.64 1556.3 L1225.64 1536.95 L1221.34 1536.95 L1221.34 1532.4 L1225.64 1532.4 L1225.64 1522.27 L1231.53 1522.27 Z" fill="#000000" fill-rule="nonzero" fill-opacity="1" /><polyline clip-path="url(#clip990)" style="stroke:#000000; stroke-linecap:round; stroke-linejoin:round; stroke-width:4; stroke-opacity:1; fill:none" points="112.177,1423.18 112.177,47.2441 "/>
<polyline clip-path="url(#clip990)" style="stroke:#000000; stroke-linecap:round; stroke-linejoin:round; stroke-width:4; stroke-opacity:1; fill:none" points="112.177,1137.54 131.075,1137.54 "/>
<polyline clip-path="url(#clip990)" style="stroke:#000000; stroke-linecap:round; stroke-linejoin:round; stroke-width:4; stroke-opacity:1; fill:none" points="112.177,829.169 131.075,829.169 "/>
<polyline clip-path="url(#clip990)" style="stroke:#000000; stroke-linecap:round; stroke-linejoin:round; stroke-width:4; stroke-opacity:1; fill:none" points="112.177,520.797 131.075,520.797 "/>
<polyline clip-path="url(#clip990)" style="stroke:#000000; stroke-linecap:round; stroke-linejoin:round; stroke-width:4; stroke-opacity:1; fill:none" points="112.177,212.425 131.075,212.425 "/>
<path clip-path="url(#clip990)" d="M56.2699 1150.89 L63.9087 1150.89 L63.9087 1124.52 L55.5986 1126.19 L55.5986 1121.93 L63.8624 1120.26 L68.5383 1120.26 L68.5383 1150.89 L76.1772 1150.89 L76.1772 1154.82 L56.2699 1154.82 L56.2699 1150.89 Z" fill="#000000" fill-rule="nonzero" fill-opacity="1" /><path clip-path="url(#clip990)" d="M59.8578 842.514 L76.1772 842.514 L76.1772 846.449 L54.2328 846.449 L54.2328 842.514 Q56.8949 839.759 61.4782 835.129 Q66.0846 830.477 67.2652 829.134 Q69.5105 826.611 70.3902 824.875 Q71.2929 823.116 71.2929 821.426 Q71.2929 818.671 69.3485 816.935 Q67.4272 815.199 64.3254 815.199 Q62.1263 815.199 59.6726 815.963 Q57.2421 816.727 54.4643 818.278 L54.4643 813.555 Q57.2884 812.421 59.7421 811.843 Q62.1958 811.264 64.2328 811.264 Q69.6031 811.264 72.7976 813.949 Q75.992 816.634 75.992 821.125 Q75.992 823.254 75.1818 825.176 Q74.3948 827.074 72.2883 829.667 Q71.7096 830.338 68.6078 833.555 Q65.5059 836.75 59.8578 842.514 Z" fill="#000000" fill-rule="nonzero" fill-opacity="1" /><path clip-path="url(#clip990)" d="M69.0476 519.443 Q72.404 520.16 74.279 522.429 Q76.1772 524.697 76.1772 528.031 Q76.1772 533.146 72.6587 535.947 Q69.1402 538.748 62.6587 538.748 Q60.4828 538.748 58.168 538.308 Q55.8764 537.892 53.4227 537.035 L53.4227 532.521 Q55.3671 533.656 57.6819 534.234 Q59.9967 534.813 62.5198 534.813 Q66.918 534.813 69.2096 533.077 Q71.5244 531.341 71.5244 528.031 Q71.5244 524.975 69.3717 523.262 Q67.242 521.526 63.4226 521.526 L59.3949 521.526 L59.3949 517.683 L63.6078 517.683 Q67.0569 517.683 68.8855 516.318 Q70.7142 514.929 70.7142 512.336 Q70.7142 509.674 68.8161 508.262 Q66.9411 506.827 63.4226 506.827 Q61.5013 506.827 59.3023 507.244 Q57.1032 507.66 54.4643 508.54 L54.4643 504.373 Q57.1264 503.633 59.4412 503.262 Q61.7791 502.892 63.8393 502.892 Q69.1633 502.892 72.2652 505.322 Q75.367 507.73 75.367 511.85 Q75.367 514.721 73.7235 516.711 Q72.08 518.679 69.0476 519.443 Z" fill="#000000" fill-rule="nonzero" fill-opacity="1" /><path clip-path="url(#clip990)" d="M66.5939 199.219 L54.7884 217.668 L66.5939 217.668 L66.5939 199.219 M65.367 195.145 L71.2466 195.145 L71.2466 217.668 L76.1772 217.668 L76.1772 221.557 L71.2466 221.557 L71.2466 229.705 L66.5939 229.705 L66.5939 221.557 L50.9921 221.557 L50.9921 217.043 L65.367 195.145 Z" fill="#000000" fill-rule="nonzero" fill-opacity="1" /><polyline clip-path="url(#clip991)" style="stroke:#009af9; stroke-linecap:round; stroke-linejoin:round; stroke-width:8; stroke-opacity:1; fill:none" points="112.177,1384.24 114.42,1383.62 116.663,1382.99 118.906,1382.36 121.148,1381.72 123.391,1381.07 125.634,1380.42 127.877,1379.76 130.12,1379.1 132.363,1378.42 134.605,1377.75 136.848,1377.06 139.091,1376.37 141.334,1375.67 143.577,1374.96 145.819,1374.25 148.062,1373.53 150.305,1372.8 152.548,1372.06 154.791,1371.32 157.034,1370.57 159.276,1369.81 161.519,1369.04 163.762,1368.27 166.005,1367.49 168.248,1366.7 170.491,1365.9 172.733,1365.1 174.976,1364.29 177.219,1363.47 179.462,1362.64 181.705,1361.8 183.947,1360.95 186.19,1360.1 188.433,1359.23 190.676,1358.36 192.919,1357.48 195.162,1356.59 197.404,1355.69 199.647,1354.79 201.89,1353.87 204.133,1352.94 206.376,1352.01 208.619,1351.06 210.861,1350.11 213.104,1349.14 215.347,1348.17 217.59,1347.19 219.833,1346.19 222.075,1345.19 224.318,1344.18 226.561,1343.15 228.804,1342.12 231.047,1341.08 233.29,1340.02 235.532,1338.96 237.775,1337.88 240.018,1336.79 242.261,1335.7 244.504,1334.59 246.746,1333.47 248.989,1332.34 251.232,1331.19 253.475,1330.04 255.718,1328.87 257.961,1327.7 260.203,1326.51 262.446,1325.31 264.689,1324.09 266.932,1322.87 269.175,1321.63 271.418,1320.38 273.66,1319.12 275.903,1317.84 278.146,1316.55 280.389,1315.25 282.632,1313.94 284.874,1312.61 287.117,1311.27 289.36,1309.91 291.603,1308.54 293.846,1307.16 296.089,1305.77 298.331,1304.36 300.574,1302.93 302.817,1301.49 305.06,1300.04 307.303,1298.57 309.545,1297.09 311.788,1295.59 314.031,1294.08 316.274,1292.55 318.517,1291.01 320.76,1289.45 323.002,1287.88 325.245,1286.29 327.488,1284.68 329.731,1283.06 331.974,1281.42 334.217,1279.77 336.459,1278.1 338.702,1276.41 340.945,1274.7 343.188,1272.98 345.431,1271.24 347.673,1269.48 349.916,1267.71 352.159,1265.92 354.402,1264.11 356.645,1262.28 358.888,1260.43 361.13,1258.56 363.373,1256.68 365.616,1254.77 367.859,1252.85 370.102,1250.91 372.344,1248.95 374.587,1246.97 376.83,1244.96 379.073,1242.94 381.316,1240.9 383.559,1238.84 385.801,1236.75 388.044,1234.65 390.287,1232.53 392.53,1230.38 394.773,1228.21 397.016,1226.02 399.258,1223.81 401.501,1221.57 403.744,1219.32 405.987,1217.04 408.23,1214.73 410.472,1212.41 412.715,1210.06 414.958,1207.69 417.201,1205.29 419.444,1202.87 421.687,1200.42 423.929,1197.95 426.172,1195.46 428.415,1192.94 430.658,1318.15 432.901,1316.87 435.143,1315.57 437.386,1314.26 439.629,1312.94 441.872,1311.6 444.115,1310.25 446.358,1308.88 448.6,1307.5 450.843,1306.11 453.086,1304.7 455.329,1303.28 457.572,1301.85 459.815,1300.4 462.057,1298.93 464.3,1297.46 466.543,1295.96 468.786,1294.45 471.029,1292.93 473.271,1291.39 475.514,1289.84 477.757,1288.27 480,1286.68 482.243,1285.08 484.486,1283.46 486.728,1281.83 488.971,1280.18 491.214,1278.51 493.457,1276.82 495.7,1275.12 497.942,1273.41 500.185,1271.67 502.428,1269.92 504.671,1268.15 506.914,1266.36 509.157,1264.55 511.399,1262.73 513.642,1260.88 515.885,1259.02 518.128,1257.14 520.371,1255.24 522.614,1253.33 524.856,1251.39 527.099,1249.43 529.342,1247.45 531.585,1245.46 533.828,1243.44 536.07,1241.4 538.313,1239.35 540.556,1237.27 542.799,1235.17 545.042,1233.05 547.285,1230.91 549.527,1228.74 551.77,1226.56 554.013,1224.35 556.256,1222.12 558.499,1219.87 560.741,1217.6 562.984,1215.3 565.227,1212.98 567.47,1210.64 569.713,1208.27 571.956,1205.88 574.198,1203.47 576.441,1201.03 578.684,1198.56 580.927,1196.08 583.17,1193.56 585.413,1191.02 587.655,1188.46 589.898,1185.87 592.141,1183.25 594.384,1180.61 596.627,1177.94 598.869,1175.25 601.112,1172.52 603.355,1169.77 605.598,1167 607.841,1164.19 610.084,1161.36 612.326,1158.5 614.569,1155.6 616.812,1152.68 619.055,1149.73 621.298,1146.75 623.54,1143.75 625.783,1140.71 628.026,1137.64 630.269,1134.53 632.512,1131.4 634.755,1128.24 636.997,1125.04 639.24,1121.81 641.483,1118.55 643.726,1115.26 645.969,1111.93 648.212,1108.57 650.454,1105.18 652.697,1101.75 654.94,1098.29 657.183,1094.79 659.426,1091.26 661.668,1087.69 663.911,1084.09 666.154,1080.45 668.397,1076.77 670.64,1073.05 672.883,1069.3 675.125,1065.51 677.368,1061.69 679.611,1057.82 681.854,1053.92 684.097,1049.97 686.339,1045.99 688.582,1041.96 690.825,1037.9 693.068,1033.8 695.311,1029.65 697.554,1025.46 699.796,1021.23 702.039,1016.96 704.282,1012.64 706.525,1008.29 708.768,1003.88 711.011,999.437 713.253,994.945 715.496,990.408 717.739,985.826 719.982,981.197 722.225,976.522 724.467,971.8 726.71,967.03 728.953,962.212 731.196,957.346 733.439,952.431 735.682,947.466 737.924,942.452 740.167,937.387 742.41,932.271 744.653,1186.51 746.896,1183.9 749.138,1181.26 751.381,1178.6 753.624,1175.91 755.867,1173.2 758.11,1170.45 760.353,1167.68 762.595,1164.88 764.838,1162.05 767.081,1159.2 769.324,1156.31 771.567,1153.4 773.81,1150.46 776.052,1147.48 778.295,1144.48 780.538,1141.45 782.781,1138.39 785.024,1135.29 787.266,1132.17 789.509,1129.01 791.752,1125.83 793.995,1122.61 796.238,1119.35 798.481,1116.07 800.723,1112.75 802.966,1109.4 805.209,1106.01 807.452,1102.6 809.695,1099.14 811.938,1095.65 814.18,1092.13 816.423,1088.57 818.666,1084.98 820.909,1081.35 823.152,1077.68 825.394,1073.97 827.637,1070.23 829.88,1066.45 832.123,1062.64 834.366,1058.78 836.609,1054.89 838.851,1050.95 841.094,1046.98 843.337,1042.96 845.58,1038.91 847.823,1034.82 850.065,1030.68 852.308,1026.5 854.551,1022.28 856.794,1018.02 859.037,1013.72 861.28,1009.37 863.522,1004.98 865.765,1000.54 868.008,996.058 870.251,991.532 872.494,986.96 874.737,982.342 876.979,977.678 879.222,972.967 881.465,968.209 883.708,963.403 885.951,958.549 888.193,953.645 890.436,948.693 892.679,943.691 894.922,938.638 897.165,933.535 899.408,928.38 901.65,923.173 903.893,917.914 906.136,912.602 908.379,907.237 910.622,901.817 912.864,896.343 915.107,890.815 917.35,885.23 919.593,879.59 921.836,873.892 924.079,868.138 926.321,862.326 928.564,856.455 930.807,850.525 933.05,844.536 935.293,838.486 937.536,832.376 939.778,826.204 942.021,819.97 944.264,813.674 946.507,807.314 948.75,800.89 950.992,794.402 953.235,787.848 955.478,781.228 957.721,774.542 959.964,767.789 962.207,760.967 964.449,754.077 966.692,747.117 968.935,740.088 971.178,732.987 973.421,725.816 975.663,718.572 977.906,711.255 980.149,703.864 982.392,696.399 984.635,688.858 986.878,681.242 989.12,673.549 991.363,665.779 993.606,657.93 995.849,650.002 998.092,641.995 1000.33,633.907 1002.58,625.737 1004.82,617.485 1007.06,609.15 1009.31,600.732 1011.55,592.228 1013.79,583.639 1016.03,574.963 1018.28,566.201 1020.52,557.35 1022.76,548.41 1025.01,539.38 1027.25,530.259 1029.49,521.047 1031.73,511.743 1033.98,974.148 1036.22,969.402 1038.46,964.608 1040.71,959.766 1042.95,954.875 1045.19,949.935 1047.43,944.945 1049.68,1192.91 1051.92,1190.36 1054.16,1187.79 1056.41,1185.19 1058.65,1182.57 1060.89,1179.92 1063.13,1177.25 1065.38,1174.54 1067.62,1171.81 1069.86,1169.06 1072.1,1166.27 1074.35,1163.46 1076.59,1160.61 1078.83,1157.74 1081.08,1154.85 1083.32,1151.92 1085.56,1148.96 1087.8,1145.97 1090.05,1142.96 1092.29,1139.91 1094.53,1136.83 1096.78,1133.72 1099.02,1130.58 1101.26,1127.41 1103.5,1124.21 1105.75,1120.97 1107.99,1117.7 1110.23,1114.4 1112.48,1111.07 1114.72,1107.7 1116.96,1104.3 1119.2,1100.86 1121.45,1097.39 1123.69,1093.89 1125.93,1090.35 1128.18,1086.77 1130.42,1083.16 1132.66,1079.51 1134.9,1075.82 1137.15,1072.1 1139.39,1068.34 1141.63,1064.54 1143.88,1060.71 1146.12,1056.83 1148.36,1052.92 1150.6,1048.97 1152.85,1044.97 1155.09,1040.94 1157.33,1036.87 1159.57,1032.75 1161.82,1028.59 1164.06,1024.4 1166.3,1020.16 1168.55,1015.87 1170.79,1011.55 1173.03,1007.18 1175.27,1002.76 1177.52,998.303 1179.76,993.799 1182,989.25 1184.25,984.655 1186.49,980.014 1188.73,975.326 1190.97,970.591 1193.22,965.808 1195.46,960.977 1197.7,956.097 1199.95,951.168 1202.19,946.19 1204.43,941.161 1206.67,936.082 1208.92,930.952 1211.16,925.77 1213.4,920.537 1215.65,915.25 1217.89,909.911 1220.13,904.518 1222.37,899.07 1224.62,893.569 1226.86,888.012 1229.1,882.399 1231.35,876.73 1233.59,871.003 1235.83,865.219 1238.07,859.376 1240.32,853.475 1242.56,847.514 1244.8,841.493 1247.04,835.412 1249.29,829.27 1251.53,823.066 1253.77,816.8 1256.02,810.47 1258.26,804.078 1260.5,797.621 1262.74,791.099 1264.99,784.512 1267.23,777.859 1269.47,771.139 1271.72,764.352 1273.96,757.496 1276.2,750.572 1278.44,743.578 1280.69,736.514 1282.93,729.38 1285.17,722.173 1287.42,714.895 1289.66,707.543 1291.9,700.118 1294.14,692.618 1296.39,685.042 1298.63,677.391 1300.87,669.662 1303.12,661.856 1305.36,653.972 1307.6,646.008 1309.84,637.964 1312.09,629.839 1314.33,621.633 1316.57,613.344 1318.82,604.971 1321.06,596.514 1323.3,587.972 1325.54,579.344 1327.79,570.629 1330.03,561.827 1332.27,552.935 1334.51,543.954 1336.76,534.883 1339,525.719 1341.24,516.464 1343.49,507.115 1345.73,497.672 1347.97,488.134 1350.21,478.499 1352.46,468.768 1354.7,458.938 1356.94,449.008 1359.19,438.979 1361.43,428.849 1363.67,418.616 1365.91,408.28 1368.16,397.84 1370.4,387.294 1372.64,376.642 1374.89,365.883 1377.13,355.015 1379.37,344.037 1381.61,332.949 1383.86,321.749 1386.1,310.436 1388.34,299.009 1390.59,287.467 1392.83,275.809 1395.07,264.033 1397.31,252.139 1399.56,240.125 1401.8,227.99 1404.04,215.733 1406.29,203.353 1408.53,190.848 1410.77,178.218 1413.01,165.461 1415.26,152.576 1417.5,139.561 1419.74,126.416 1421.98,113.139 1424.23,99.7297 1426.47,86.1857 1428.71,759.218 1430.96,752.31 1433.2,745.332 1435.44,738.284 1437.68,731.165 1439.93,723.974 1442.17,716.711 1444.41,709.375 1446.66,701.966 1448.9,694.481 1451.14,686.922 1453.38,679.286 1455.63,671.573 1457.87,1054.84 1460.11,1050.91 1462.36,1046.94 1464.6,1042.92 1466.84,1038.87 1469.08,1034.77 1471.33,1030.64 1473.57,1026.46 1475.81,1022.24 1478.06,1017.98 1480.3,1013.67 1482.54,1009.32 1484.78,1004.93 1487.03,1000.49 1489.27,996.012 1491.51,991.486 1493.76,986.915 1496,982.297 1498.24,977.634 1500.48,972.923 1502.73,968.165 1504.97,963.359 1507.21,958.505 1509.46,953.601 1511.7,948.649 1513.94,943.647 1516.18,938.594 1518.43,933.491 1520.67,928.336 1522.91,923.13 1525.15,917.871 1527.4,912.559 1529.64,907.194 1531.88,901.774 1534.13,896.3 1536.37,890.771 1538.61,885.187 1540.85,879.546 1543.1,873.848 1545.34,868.093 1547.58,862.28 1549.83,856.409 1552.07,850.478 1554.31,844.488 1556.55,838.437 1558.8,832.325 1561.04,826.152 1563.28,819.917 1565.53,813.619 1567.77,807.257 1570.01,800.832 1572.25,794.342 1574.5,787.786 1576.74,781.165 1578.98,774.477 1581.23,767.721 1583.47,760.898 1585.71,754.006 1587.95,747.045 1590.2,740.014 1592.44,732.912 1594.68,1085.86 1596.93,1082.24 1599.17,1078.58 1601.41,1074.88 1603.65,1071.15 1605.9,1067.38 1608.14,1063.57 1610.38,1059.72 1612.62,1055.84 1614.87,1051.91 1617.11,1047.95 1619.35,1043.95 1621.6,1039.9 1623.84,1035.82 1626.08,1031.69 1628.32,1027.53 1630.57,1023.32 1632.81,1019.07 1635.05,1014.77 1637.3,1010.43 1639.54,1006.05 1641.78,1001.63 1644.02,997.158 1646.27,992.643 1648.51,988.083 1650.75,983.477 1653,1212.37 1655.24,1210.02 1657.48,1207.65 1659.72,1205.25 1661.97,1202.83 1664.21,1200.38 1666.45,1197.91 1668.7,1195.42 1670.94,1192.9 1673.18,1190.35 1675.42,1187.78 1677.67,1185.18 1679.91,1182.56 1682.15,1179.91 1684.4,1177.24 1686.64,1174.53 1688.88,1171.8 1691.12,1169.04 1693.37,1166.26 1695.61,1163.45 1697.85,1160.6 1700.09,1157.73 1702.34,1154.84 1704.58,1151.91 1706.82,1148.95 1709.07,1145.96 1711.31,1142.94 1713.55,1139.9 1715.79,1136.82 1718.04,1133.71 1720.28,1130.57 1722.52,1127.39 1724.77,1124.19 1727.01,1120.95 1729.25,1117.68 1731.49,1280.15 1733.74,1278.48 1735.98,1276.8 1738.22,1275.1 1740.47,1273.38 1742.71,1271.64 1744.95,1269.89 1747.19,1268.12 1749.44,1266.33 1751.68,1264.52 1753.92,1262.7 1756.17,1260.85 1758.41,1258.99 1760.65,1257.11 1762.89,1255.21 1765.14,1253.29 1767.38,1251.36 1769.62,1249.4 1771.87,1247.42 1774.11,1245.42 1776.35,1243.41 1778.59,1241.37 1780.84,1239.31 1783.08,1237.23 1785.32,1235.14 1787.56,1233.01 1789.81,1230.87 1792.05,1228.71 1794.29,1226.53 1796.54,1224.32 1798.78,1222.09 1801.02,1219.84 1803.26,1217.56 1805.51,1215.27 1807.75,1212.95 1809.99,1210.6 1812.24,1208.23 1814.48,1205.84 1816.72,1203.43 1818.96,1200.99 1821.21,1198.52 1823.45,1196.04 1825.69,1193.52 1827.94,1190.98 1830.18,1188.42 1832.42,1185.83 1834.66,1183.21 1836.91,1180.57 1839.15,1177.9 1841.39,1175.2 1843.64,1172.48 1845.88,1169.73 1848.12,1166.95 1850.36,1164.14 1852.61,1161.31 1854.85,1158.44 1857.09,1155.55 1859.34,1152.63 1861.58,1149.68 1863.82,1146.7 1866.06,1143.69 1868.31,1140.65 1870.55,1137.58 1872.79,1134.48 1875.03,1131.34 1877.28,1128.18 1879.52,1124.98 1881.76,1121.75 1884.01,1118.49 1886.25,1115.2 1888.49,1111.87 1890.73,1108.51 1892.98,1105.12 1895.22,1101.69 1897.46,1098.23 1899.71,1094.73 1901.95,1091.19 1904.19,1087.63 1906.43,1084.02 1908.68,1080.38 1910.92,1076.7 1913.16,1072.99 1915.41,1069.24 1917.65,1065.45 1919.89,1061.62 1922.13,1057.75 1924.38,1053.85 1926.62,1049.9 1928.86,1045.92 1931.11,1041.9 1933.35,1037.83 1935.59,1033.73 1937.83,1237.75 1940.08,1235.65 1942.32,1233.54 1944.56,1231.4 1946.81,1229.24 1949.05,1227.06 1951.29,1224.86 1953.53,1222.64 1955.78,1220.39 1958.02,1218.12 1960.26,1215.83 1962.5,1213.52 1964.75,1211.18 1966.99,1208.82 1969.23,1206.43 1971.48,1204.02 1973.72,1201.59 1975.96,1199.13 1978.2,1196.65 1980.45,1194.14 1982.69,1191.61 1984.93,1189.05 1987.18,1186.46 1989.42,1183.85 1991.66,1181.22 1993.9,1178.56 1996.15,1175.87 1998.39,1173.15 2000.63,1170.41 2002.88,1167.63 2005.12,1164.83 2007.36,1162.01 2009.6,1159.15 2011.85,1156.27 2014.09,1153.35 2016.33,1150.41 2018.58,1147.44 2020.82,1144.43 2023.06,1141.4 2025.3,1138.34 2027.55,1135.24 2029.79,1132.12 2032.03,1128.96 2034.28,1125.77 2036.52,1122.55 2038.76,1119.3 2041,1116.01 2043.25,1112.69 2045.49,1109.34 2047.73,1105.95 2049.97,1102.53 2052.22,1099.08 2054.46,1095.59 2056.7,1092.07 2058.95,1088.51 2061.19,1084.91 2063.43,1081.28 2065.67,1077.61 2067.92,1073.9 2070.16,1070.16 2072.4,1066.38 2074.65,1062.56 2076.89,1058.71 2079.13,1054.81 2081.37,1050.88 2083.62,1046.9 2085.86,1042.89 2088.1,1038.83 2090.35,1240.33 2092.59,1238.26 2094.83,1236.17 2097.07,1234.06 2099.32,1231.93 2101.56,1229.77 2103.8,1227.6 2106.05,1225.4 2108.29,1223.18 2110.53,1220.94 2112.77,1218.68 2115.02,1216.39 2117.26,1214.09 2119.5,1211.75 2121.75,1209.4 2123.99,1207.02 2126.23,1204.62 2128.47,1202.19 2130.72,1199.74 2132.96,1197.26 2135.2,1194.76 2137.45,1192.23 2139.69,1189.68 2141.93,1187.1 2144.17,1184.5 2146.42,1181.87 2148.66,1179.21 2150.9,1176.53 2153.14,1173.82 2155.39,1171.08 2157.63,1168.32 2159.87,1165.52 2162.12,1162.7 2164.36,1159.85 2166.6,1156.98 2168.84,1154.07 2171.09,1151.13 2173.33,1148.17 2175.57,1145.17 2177.82,1142.15 2180.06,1139.09 2182.3,1136 2184.54,1132.89 2186.79,1129.74 2189.03,1126.56 2191.27,1123.34 2193.52,1120.1 2195.76,1116.82 2198,1113.51 2200.24,1110.16 2202.49,1106.79 2204.73,1103.38 2206.97,1099.93 2209.22,1096.45 2211.46,1092.93 2213.7,1089.38 2215.94,1085.8 2218.19,1082.17 2220.43,1078.51 2222.67,1074.82 2224.92,1071.08 2227.16,1067.31 2229.4,1063.5 2231.64,1059.66 2233.89,1055.77 2236.13,1051.85 2238.37,1047.88 2240.61,1043.88 2242.86,1039.83 2245.1,1035.75 2247.34,1031.62 2249.59,1027.45 2251.83,1023.24 2254.07,1018.99 2256.31,1014.7 2258.56,1010.36 2260.8,1005.98 2263.04,1001.55 2265.29,997.08 2267.53,992.564 2269.77,988.004 2272.01,983.397 2274.26,978.744 2276.5,974.044 2278.74,969.297 2280.99,964.502 2283.23,959.659 2285.47,1200.34 2287.71,1197.87 2289.96,1195.37 2292.2,1192.85 2294.44,1190.31 2296.69,1187.74 2298.93,1185.14 2301.17,1182.52 2303.41,1179.87 2305.66,1177.19 2307.9,1174.49 2310.14,1171.75 2312.39,1169 2314.63,1166.21 2316.87,1163.4 2319.11,1160.55 2321.36,1157.68 2323.6,1154.78 2325.84,1151.86 2328.08,1148.9 2330.33,1145.91 2332.57,1142.89 2334.81,1139.84 2337.06,1136.76 2339.3,1133.65 2341.54,1130.51 2343.78,1127.34 2346.03,1124.13 2348.27,1120.9 2350.51,1117.63 2352.76,1114.32 "/>
<path clip-path="url(#clip990)" d="M1964.92 196.789 L2278.07 196.789 L2278.07 93.1086 L1964.92 93.1086  Z" fill="#ffffff" fill-rule="evenodd" fill-opacity="1"/>
<polyline clip-path="url(#clip990)" style="stroke:#000000; stroke-linecap:round; stroke-linejoin:round; stroke-width:4; stroke-opacity:1; fill:none" points="1964.92,196.789 2278.07,196.789 2278.07,93.1086 1964.92,93.1086 1964.92,196.789 "/>
<polyline clip-path="url(#clip990)" style="stroke:#009af9; stroke-linecap:round; stroke-linejoin:round; stroke-width:8; stroke-opacity:1; fill:none" points="1989.81,144.949 2139.18,144.949 "/>
<path clip-path="url(#clip990)" d="M2164.08 151.997 L2164.08 136.303 L2168.34 136.303 L2168.34 151.835 Q2168.34 155.516 2169.77 157.368 Q2171.21 159.196 2174.08 159.196 Q2177.53 159.196 2179.52 156.997 Q2181.53 154.798 2181.53 151.002 L2181.53 136.303 L2185.79 136.303 L2185.79 162.229 L2181.53 162.229 L2181.53 158.247 Q2179.98 160.608 2177.92 161.766 Q2175.88 162.9 2173.18 162.9 Q2168.71 162.9 2166.39 160.122 Q2164.08 157.344 2164.08 151.997 M2174.8 135.678 L2174.8 135.678 Z" fill="#000000" fill-rule="nonzero" fill-opacity="1" /><path clip-path="url(#clip990)" d="M2194.17 126.21 L2203.99 126.21 L2203.99 129.52 L2198.43 129.52 L2198.43 165.168 L2203.99 165.168 L2203.99 168.479 L2194.17 168.479 L2194.17 126.21 Z" fill="#000000" fill-rule="nonzero" fill-opacity="1" /><path clip-path="url(#clip990)" d="M2214.47 158.293 L2222.11 158.293 L2222.11 131.928 L2213.8 133.595 L2213.8 129.335 L2222.06 127.669 L2226.74 127.669 L2226.74 158.293 L2234.38 158.293 L2234.38 162.229 L2214.47 162.229 L2214.47 158.293 Z" fill="#000000" fill-rule="nonzero" fill-opacity="1" /><path clip-path="url(#clip990)" d="M2253.17 126.21 L2253.17 168.479 L2243.36 168.479 L2243.36 165.168 L2248.89 165.168 L2248.89 129.52 L2243.36 129.52 L2243.36 126.21 L2253.17 126.21 Z" fill="#000000" fill-rule="nonzero" fill-opacity="1" /></svg>
