<?xml version="1.0" encoding="utf-8"?>
<svg xmlns="http://www.w3.org/2000/svg" xmlns:xlink="http://www.w3.org/1999/xlink" width="600" height="400" viewBox="0 0 2400 1600">
<defs>
  <clipPath id="clip020">
    <rect x="0" y="0" width="2400" height="1600"/>
  </clipPath>
</defs>
<path clip-path="url(#clip020)" d="M0 1600 L2400 1600 L2400 0 L0 0  Z" fill="#ffffff" fill-rule="evenodd" fill-opacity="1"/>
<defs>
  <clipPath id="clip021">
    <rect x="155" y="47" width="2198" height="1377"/>
  </clipPath>
</defs>
<path clip-path="url(#clip020)" d="M155.765 1423.18 L2352.76 1423.18 L2352.76 47.2441 L155.765 47.2441  Z" fill="#ffffff" fill-rule="evenodd" fill-opacity="1"/>
<polyline clip-path="url(#clip021)" style="stroke:#000000; stroke-linecap:round; stroke-linejoin:round; stroke-width:2; stroke-opacity:0.1; fill:none" points="155.765,1423.18 155.765,47.2441 "/>
<polyline clip-path="url(#clip021)" style="stroke:#000000; stroke-linecap:round; stroke-linejoin:round; stroke-width:2; stroke-opacity:0.1; fill:none" points="595.163,1423.18 595.163,47.2441 "/>
<polyline clip-path="url(#clip021)" style="stroke:#000000; stroke-linecap:round; stroke-linejoin:round; stroke-width:2; stroke-opacity:0.1; fill:none" points="1034.56,1423.18 1034.56,47.2441 "/>
<polyline clip-path="url(#clip021)" style="stroke:#000000; stroke-linecap:round; stroke-linejoin:round; stroke-width:2; stroke-opacity:0.1; fill:none" points="1473.96,1423.18 1473.96,47.2441 "/>
<polyline clip-path="url(#clip021)" style="stroke:#000000; stroke-linecap:round; stroke-linejoin:round; stroke-width:2; stroke-opacity:0.1; fill:none" points="1913.36,1423.18 1913.36,47.2441 "/>
<polyline clip-path="url(#clip021)" style="stroke:#000000; stroke-linecap:round; stroke-linejoin:round; stroke-width:2; stroke-opacity:0.1; fill:none" points="2352.76,1423.18 2352.76,47.2441 "/>
<polyline clip-path="url(#clip021)" style="stroke:#000000; stroke-linecap:round; stroke-linejoin:round; stroke-width:2; stroke-opacity:0.1; fill:none" points="155.765,1170.14 2352.76,1170.14 "/>
<polyline clip-path="url(#clip021)" style="stroke:#000000; stroke-linecap:round; stroke-linejoin:round; stroke-width:2; stroke-opacity:0.1; fill:none" points="155.765,905.582 2352.76,905.582 "/>
<polyline clip-path="url(#clip021)" style="stroke:#000000; stroke-linecap:round; stroke-linejoin:round; stroke-width:2; stroke-opacity:0.1; fill:none" points="155.765,641.029 2352.76,641.029 "/>
<polyline clip-path="url(#clip021)" style="stroke:#000000; stroke-linecap:round; stroke-linejoin:round; stroke-width:2; stroke-opacity:0.1; fill:none" points="155.765,376.475 2352.76,376.475 "/>
<polyline clip-path="url(#clip021)" style="stroke:#000000; stroke-linecap:round; stroke-linejoin:round; stroke-width:2; stroke-opacity:0.1; fill:none" points="155.765,111.921 2352.76,111.921 "/>
<polyline clip-path="url(#clip020)" style="stroke:#000000; stroke-linecap:round; stroke-linejoin:round; stroke-width:4; stroke-opacity:1; fill:none" points="155.765,1423.18 2352.76,1423.18 "/>
<polyline clip-path="url(#clip020)" style="stroke:#000000; stroke-linecap:round; stroke-linejoin:round; stroke-width:4; stroke-opacity:1; fill:none" points="155.765,1423.18 155.765,1404.28 "/>
<polyline clip-path="url(#clip020)" style="stroke:#000000; stroke-linecap:round; stroke-linejoin:round; stroke-width:4; stroke-opacity:1; fill:none" points="595.163,1423.18 595.163,1404.28 "/>
<polyline clip-path="url(#clip020)" style="stroke:#000000; stroke-linecap:round; stroke-linejoin:round; stroke-width:4; stroke-opacity:1; fill:none" points="1034.56,1423.18 1034.56,1404.28 "/>
<polyline clip-path="url(#clip020)" style="stroke:#000000; stroke-linecap:round; stroke-linejoin:round; stroke-width:4; stroke-opacity:1; fill:none" points="1473.96,1423.18 1473.96,1404.28 "/>
<polyline clip-path="url(#clip020)" style="stroke:#000000; stroke-linecap:round; stroke-linejoin:round; stroke-width:4; stroke-opacity:1; fill:none" points="1913.36,1423.18 1913.36,1404.28 "/>
<polyline clip-path="url(#clip020)" style="stroke:#000000; stroke-linecap:round; stroke-linejoin:round; stroke-width:4; stroke-opacity:1; fill:none" points="2352.76,1423.18 2352.76,1404.28 "/>
<path clip-path="url(#clip020)" d="M155.765 1454.1 Q152.154 1454.1 150.325 1457.66 Q148.52 1461.2 148.52 1468.33 Q148.52 1475.44 150.325 1479.01 Q152.154 1482.55 155.765 1482.55 Q159.399 1482.55 161.205 1479.01 Q163.033 1475.44 163.033 1468.33 Q163.033 1461.2 161.205 1457.66 Q159.399 1454.1 155.765 1454.1 M155.765 1450.39 Q161.575 1450.39 164.631 1455 Q167.709 1459.58 167.709 1468.33 Q167.709 1477.06 164.631 1481.67 Q161.575 1486.25 155.765 1486.25 Q149.955 1486.25 146.876 1481.67 Q143.821 1477.06 143.821 1468.33 Q143.821 1459.58 146.876 1455 Q149.955 1450.39 155.765 1450.39 Z" fill="#000000" fill-rule="nonzero" fill-opacity="1" /><path clip-path="url(#clip020)" d="M589.816 1481.64 L606.135 1481.64 L606.135 1485.58 L584.191 1485.58 L584.191 1481.64 Q586.853 1478.89 591.436 1474.26 Q596.043 1469.61 597.223 1468.27 Q599.469 1465.74 600.348 1464.01 Q601.251 1462.25 601.251 1460.56 Q601.251 1457.8 599.307 1456.07 Q597.385 1454.33 594.283 1454.33 Q592.084 1454.33 589.631 1455.09 Q587.2 1455.86 584.422 1457.41 L584.422 1452.69 Q587.246 1451.55 589.7 1450.97 Q592.154 1450.39 594.191 1450.39 Q599.561 1450.39 602.756 1453.08 Q605.95 1455.77 605.95 1460.26 Q605.95 1462.39 605.14 1464.31 Q604.353 1466.2 602.246 1468.8 Q601.668 1469.47 598.566 1472.69 Q595.464 1475.88 589.816 1481.64 Z" fill="#000000" fill-rule="nonzero" fill-opacity="1" /><path clip-path="url(#clip020)" d="M1037.57 1455.09 L1025.77 1473.54 L1037.57 1473.54 L1037.57 1455.09 M1036.34 1451.02 L1042.22 1451.02 L1042.22 1473.54 L1047.15 1473.54 L1047.15 1477.43 L1042.22 1477.43 L1042.22 1485.58 L1037.57 1485.58 L1037.57 1477.43 L1021.97 1477.43 L1021.97 1472.92 L1036.34 1451.02 Z" fill="#000000" fill-rule="nonzero" fill-opacity="1" /><path clip-path="url(#clip020)" d="M1474.36 1466.44 Q1471.22 1466.44 1469.36 1468.59 Q1467.54 1470.74 1467.54 1474.49 Q1467.54 1478.22 1469.36 1480.39 Q1471.22 1482.55 1474.36 1482.55 Q1477.51 1482.55 1479.34 1480.39 Q1481.19 1478.22 1481.19 1474.49 Q1481.19 1470.74 1479.34 1468.59 Q1477.51 1466.44 1474.36 1466.44 M1483.65 1451.78 L1483.65 1456.04 Q1481.89 1455.21 1480.08 1454.77 Q1478.3 1454.33 1476.54 1454.33 Q1471.91 1454.33 1469.46 1457.45 Q1467.03 1460.58 1466.68 1466.9 Q1468.05 1464.89 1470.11 1463.82 Q1472.17 1462.73 1474.64 1462.73 Q1479.85 1462.73 1482.86 1465.9 Q1485.89 1469.05 1485.89 1474.49 Q1485.89 1479.82 1482.74 1483.03 Q1479.6 1486.25 1474.36 1486.25 Q1468.37 1486.25 1465.2 1481.67 Q1462.03 1477.06 1462.03 1468.33 Q1462.03 1460.14 1465.92 1455.28 Q1469.8 1450.39 1476.36 1450.39 Q1478.11 1450.39 1479.9 1450.74 Q1481.7 1451.09 1483.65 1451.78 Z" fill="#000000" fill-rule="nonzero" fill-opacity="1" /><path clip-path="url(#clip020)" d="M1913.36 1469.17 Q1910.02 1469.17 1908.1 1470.95 Q1906.2 1472.73 1906.2 1475.86 Q1906.2 1478.98 1908.1 1480.77 Q1910.02 1482.55 1913.36 1482.55 Q1916.69 1482.55 1918.61 1480.77 Q1920.53 1478.96 1920.53 1475.86 Q1920.53 1472.73 1918.61 1470.95 Q1916.71 1469.17 1913.36 1469.17 M1908.68 1467.18 Q1905.67 1466.44 1903.98 1464.38 Q1902.32 1462.32 1902.32 1459.35 Q1902.32 1455.21 1905.26 1452.8 Q1908.22 1450.39 1913.36 1450.39 Q1918.52 1450.39 1921.46 1452.8 Q1924.4 1455.21 1924.4 1459.35 Q1924.4 1462.32 1922.71 1464.38 Q1921.04 1466.44 1918.06 1467.18 Q1921.44 1467.96 1923.31 1470.26 Q1925.21 1472.55 1925.21 1475.86 Q1925.21 1480.88 1922.13 1483.57 Q1919.08 1486.25 1913.36 1486.25 Q1907.64 1486.25 1904.56 1483.57 Q1901.51 1480.88 1901.51 1475.86 Q1901.51 1472.55 1903.4 1470.26 Q1905.3 1467.96 1908.68 1467.18 M1906.97 1459.79 Q1906.97 1462.48 1908.64 1463.98 Q1910.33 1465.49 1913.36 1465.49 Q1916.37 1465.49 1918.06 1463.98 Q1919.77 1462.48 1919.77 1459.79 Q1919.77 1457.11 1918.06 1455.6 Q1916.37 1454.1 1913.36 1454.1 Q1910.33 1454.1 1908.64 1455.6 Q1906.97 1457.11 1906.97 1459.79 Z" fill="#000000" fill-rule="nonzero" fill-opacity="1" /><path clip-path="url(#clip020)" d="M2327.44 1481.64 L2335.08 1481.64 L2335.08 1455.28 L2326.77 1456.95 L2326.77 1452.69 L2335.04 1451.02 L2339.71 1451.02 L2339.71 1481.64 L2347.35 1481.64 L2347.35 1485.58 L2327.44 1485.58 L2327.44 1481.64 Z" fill="#000000" fill-rule="nonzero" fill-opacity="1" /><path clip-path="url(#clip020)" d="M2366.8 1454.1 Q2363.18 1454.1 2361.36 1457.66 Q2359.55 1461.2 2359.55 1468.33 Q2359.55 1475.44 2361.36 1479.01 Q2363.18 1482.55 2366.8 1482.55 Q2370.43 1482.55 2372.23 1479.01 Q2374.06 1475.44 2374.06 1468.33 Q2374.06 1461.2 2372.23 1457.66 Q2370.43 1454.1 2366.8 1454.1 M2366.8 1450.39 Q2372.61 1450.39 2375.66 1455 Q2378.74 1459.58 2378.74 1468.33 Q2378.74 1477.06 2375.66 1481.67 Q2372.61 1486.25 2366.8 1486.25 Q2360.99 1486.25 2357.91 1481.67 Q2354.85 1477.06 2354.85 1468.33 Q2354.85 1459.58 2357.91 1455 Q2360.99 1450.39 2366.8 1450.39 Z" fill="#000000" fill-rule="nonzero" fill-opacity="1" /><path clip-path="url(#clip020)" d="M1253.32 1522.27 L1253.32 1532.4 L1265.38 1532.4 L1265.38 1536.95 L1253.32 1536.95 L1253.32 1556.3 Q1253.32 1560.66 1254.5 1561.9 Q1255.71 1563.14 1259.37 1563.14 L1265.38 1563.14 L1265.38 1568.04 L1259.37 1568.04 Q1252.59 1568.04 1250.01 1565.53 Q1247.43 1562.98 1247.43 1556.3 L1247.43 1536.95 L1243.14 1536.95 L1243.14 1532.4 L1247.43 1532.4 L1247.43 1522.27 L1253.32 1522.27 Z" fill="#000000" fill-rule="nonzero" fill-opacity="1" /><polyline clip-path="url(#clip020)" style="stroke:#000000; stroke-linecap:round; stroke-linejoin:round; stroke-width:4; stroke-opacity:1; fill:none" points="155.765,1423.18 155.765,47.2441 "/>
<polyline clip-path="url(#clip020)" style="stroke:#000000; stroke-linecap:round; stroke-linejoin:round; stroke-width:4; stroke-opacity:1; fill:none" points="155.765,1170.14 174.663,1170.14 "/>
<polyline clip-path="url(#clip020)" style="stroke:#000000; stroke-linecap:round; stroke-linejoin:round; stroke-width:4; stroke-opacity:1; fill:none" points="155.765,905.582 174.663,905.582 "/>
<polyline clip-path="url(#clip020)" style="stroke:#000000; stroke-linecap:round; stroke-linejoin:round; stroke-width:4; stroke-opacity:1; fill:none" points="155.765,641.029 174.663,641.029 "/>
<polyline clip-path="url(#clip020)" style="stroke:#000000; stroke-linecap:round; stroke-linejoin:round; stroke-width:4; stroke-opacity:1; fill:none" points="155.765,376.475 174.663,376.475 "/>
<polyline clip-path="url(#clip020)" style="stroke:#000000; stroke-linecap:round; stroke-linejoin:round; stroke-width:4; stroke-opacity:1; fill:none" points="155.765,111.921 174.663,111.921 "/>
<path clip-path="url(#clip020)" d="M63.5847 1155.93 Q59.9736 1155.93 58.1449 1159.5 Q56.3393 1163.04 56.3393 1170.17 Q56.3393 1177.28 58.1449 1180.84 Q59.9736 1184.38 63.5847 1184.38 Q67.2189 1184.38 69.0244 1180.84 Q70.8531 1177.28 70.8531 1170.17 Q70.8531 1163.04 69.0244 1159.5 Q67.2189 1155.93 63.5847 1155.93 M63.5847 1152.23 Q69.3948 1152.23 72.4503 1156.84 Q75.529 1161.42 75.529 1170.17 Q75.529 1178.9 72.4503 1183.5 Q69.3948 1188.09 63.5847 1188.09 Q57.7745 1188.09 54.6958 1183.5 Q51.6403 1178.9 51.6403 1170.17 Q51.6403 1161.42 54.6958 1156.84 Q57.7745 1152.23 63.5847 1152.23 Z" fill="#000000" fill-rule="nonzero" fill-opacity="1" /><path clip-path="url(#clip020)" d="M83.7466 1181.54 L88.6308 1181.54 L88.6308 1187.42 L83.7466 1187.42 L83.7466 1181.54 Z" fill="#000000" fill-rule="nonzero" fill-opacity="1" /><path clip-path="url(#clip020)" d="M98.8622 1152.86 L117.219 1152.86 L117.219 1156.79 L103.145 1156.79 L103.145 1165.26 Q104.163 1164.92 105.182 1164.75 Q106.2 1164.57 107.219 1164.57 Q113.006 1164.57 116.385 1167.74 Q119.765 1170.91 119.765 1176.33 Q119.765 1181.91 116.293 1185.01 Q112.82 1188.09 106.501 1188.09 Q104.325 1188.09 102.057 1187.72 Q99.8113 1187.35 97.4039 1186.61 L97.4039 1181.91 Q99.4872 1183.04 101.709 1183.6 Q103.932 1184.15 106.408 1184.15 Q110.413 1184.15 112.751 1182.05 Q115.089 1179.94 115.089 1176.33 Q115.089 1172.72 112.751 1170.61 Q110.413 1168.5 106.408 1168.5 Q104.534 1168.5 102.659 1168.92 Q100.807 1169.34 98.8622 1170.22 L98.8622 1152.86 Z" fill="#000000" fill-rule="nonzero" fill-opacity="1" /><path clip-path="url(#clip020)" d="M53.3995 918.927 L61.0384 918.927 L61.0384 892.562 L52.7282 894.228 L52.7282 889.969 L60.9921 888.302 L65.668 888.302 L65.668 918.927 L73.3068 918.927 L73.3068 922.862 L53.3995 922.862 L53.3995 918.927 Z" fill="#000000" fill-rule="nonzero" fill-opacity="1" /><path clip-path="url(#clip020)" d="M82.7512 916.983 L87.6354 916.983 L87.6354 922.862 L82.7512 922.862 L82.7512 916.983 Z" fill="#000000" fill-rule="nonzero" fill-opacity="1" /><path clip-path="url(#clip020)" d="M107.821 891.381 Q104.209 891.381 102.381 894.946 Q100.575 898.487 100.575 905.617 Q100.575 912.724 102.381 916.288 Q104.209 919.83 107.821 919.83 Q111.455 919.83 113.26 916.288 Q115.089 912.724 115.089 905.617 Q115.089 898.487 113.26 894.946 Q111.455 891.381 107.821 891.381 M107.821 887.677 Q113.631 887.677 116.686 892.284 Q119.765 896.867 119.765 905.617 Q119.765 914.344 116.686 918.95 Q113.631 923.534 107.821 923.534 Q102.01 923.534 98.9317 918.95 Q95.8761 914.344 95.8761 905.617 Q95.8761 896.867 98.9317 892.284 Q102.01 887.677 107.821 887.677 Z" fill="#000000" fill-rule="nonzero" fill-opacity="1" /><path clip-path="url(#clip020)" d="M54.3949 654.373 L62.0337 654.373 L62.0337 628.008 L53.7236 629.674 L53.7236 625.415 L61.9874 623.749 L66.6633 623.749 L66.6633 654.373 L74.3022 654.373 L74.3022 658.309 L54.3949 658.309 L54.3949 654.373 Z" fill="#000000" fill-rule="nonzero" fill-opacity="1" /><path clip-path="url(#clip020)" d="M83.7466 652.429 L88.6308 652.429 L88.6308 658.309 L83.7466 658.309 L83.7466 652.429 Z" fill="#000000" fill-rule="nonzero" fill-opacity="1" /><path clip-path="url(#clip020)" d="M98.8622 623.749 L117.219 623.749 L117.219 627.684 L103.145 627.684 L103.145 636.156 Q104.163 635.809 105.182 635.647 Q106.2 635.461 107.219 635.461 Q113.006 635.461 116.385 638.633 Q119.765 641.804 119.765 647.221 Q119.765 652.799 116.293 655.901 Q112.82 658.98 106.501 658.98 Q104.325 658.98 102.057 658.609 Q99.8113 658.239 97.4039 657.498 L97.4039 652.799 Q99.4872 653.934 101.709 654.489 Q103.932 655.045 106.408 655.045 Q110.413 655.045 112.751 652.938 Q115.089 650.832 115.089 647.221 Q115.089 643.61 112.751 641.503 Q110.413 639.397 106.408 639.397 Q104.534 639.397 102.659 639.813 Q100.807 640.23 98.8622 641.11 L98.8622 623.749 Z" fill="#000000" fill-rule="nonzero" fill-opacity="1" /><path clip-path="url(#clip020)" d="M56.6171 389.82 L72.9365 389.82 L72.9365 393.755 L50.9921 393.755 L50.9921 389.82 Q53.6541 387.065 58.2375 382.435 Q62.8439 377.783 64.0245 376.44 Q66.2698 373.917 67.1494 372.181 Q68.0522 370.421 68.0522 368.732 Q68.0522 365.977 66.1078 364.241 Q64.1865 362.505 61.0847 362.505 Q58.8856 362.505 56.4319 363.269 Q54.0014 364.033 51.2236 365.584 L51.2236 360.861 Q54.0477 359.727 56.5014 359.148 Q58.955 358.57 60.9921 358.57 Q66.3624 358.57 69.5568 361.255 Q72.7513 363.94 72.7513 368.431 Q72.7513 370.56 71.9411 372.482 Q71.1541 374.38 69.0476 376.972 Q68.4689 377.644 65.367 380.861 Q62.2652 384.056 56.6171 389.82 Z" fill="#000000" fill-rule="nonzero" fill-opacity="1" /><path clip-path="url(#clip020)" d="M82.7512 387.875 L87.6354 387.875 L87.6354 393.755 L82.7512 393.755 L82.7512 387.875 Z" fill="#000000" fill-rule="nonzero" fill-opacity="1" /><path clip-path="url(#clip020)" d="M107.821 362.273 Q104.209 362.273 102.381 365.838 Q100.575 369.38 100.575 376.509 Q100.575 383.616 102.381 387.181 Q104.209 390.722 107.821 390.722 Q111.455 390.722 113.26 387.181 Q115.089 383.616 115.089 376.509 Q115.089 369.38 113.26 365.838 Q111.455 362.273 107.821 362.273 M107.821 358.57 Q113.631 358.57 116.686 363.176 Q119.765 367.759 119.765 376.509 Q119.765 385.236 116.686 389.843 Q113.631 394.426 107.821 394.426 Q102.01 394.426 98.9317 389.843 Q95.8761 385.236 95.8761 376.509 Q95.8761 367.759 98.9317 363.176 Q102.01 358.57 107.821 358.57 Z" fill="#000000" fill-rule="nonzero" fill-opacity="1" /><path clip-path="url(#clip020)" d="M57.6125 125.266 L73.9318 125.266 L73.9318 129.201 L51.9875 129.201 L51.9875 125.266 Q54.6495 122.511 59.2328 117.881 Q63.8393 113.229 65.0198 111.886 Q67.2652 109.363 68.1448 107.627 Q69.0476 105.868 69.0476 104.178 Q69.0476 101.423 67.1032 99.6871 Q65.1819 97.951 62.08 97.951 Q59.881 97.951 57.4273 98.7149 Q54.9967 99.4788 52.219 101.03 L52.219 96.3075 Q55.043 95.1732 57.4967 94.5945 Q59.9504 94.0158 61.9874 94.0158 Q67.3578 94.0158 70.5522 96.701 Q73.7466 99.3862 73.7466 103.877 Q73.7466 106.007 72.9365 107.928 Q72.1494 109.826 70.0429 112.419 Q69.4642 113.09 66.3624 116.307 Q63.2606 119.502 57.6125 125.266 Z" fill="#000000" fill-rule="nonzero" fill-opacity="1" /><path clip-path="url(#clip020)" d="M83.7466 123.321 L88.6308 123.321 L88.6308 129.201 L83.7466 129.201 L83.7466 123.321 Z" fill="#000000" fill-rule="nonzero" fill-opacity="1" /><path clip-path="url(#clip020)" d="M98.8622 94.6408 L117.219 94.6408 L117.219 98.576 L103.145 98.576 L103.145 107.048 Q104.163 106.701 105.182 106.539 Q106.2 106.354 107.219 106.354 Q113.006 106.354 116.385 109.525 Q119.765 112.696 119.765 118.113 Q119.765 123.692 116.293 126.793 Q112.82 129.872 106.501 129.872 Q104.325 129.872 102.057 129.502 Q99.8113 129.131 97.4039 128.391 L97.4039 123.692 Q99.4872 124.826 101.709 125.381 Q103.932 125.937 106.408 125.937 Q110.413 125.937 112.751 123.83 Q115.089 121.724 115.089 118.113 Q115.089 114.502 112.751 112.395 Q110.413 110.289 106.408 110.289 Q104.534 110.289 102.659 110.706 Q100.807 111.122 98.8622 112.002 L98.8622 94.6408 Z" fill="#000000" fill-rule="nonzero" fill-opacity="1" /><polyline clip-path="url(#clip021)" style="stroke:#009af9; stroke-linecap:round; stroke-linejoin:round; stroke-width:8; stroke-opacity:1; fill:none" points="155.765,1328.87 155.945,1326.16 156.126,1323.96 156.329,1325.55 156.558,1323.63 156.815,1317.88 157.104,1319.78 157.43,1330.52 157.796,1336.55 158.208,1336.42 158.672,1332.94 159.193,1329.69 159.78,1326.89 160.44,1328.14 161.183,1324.01 162.018,1322.73 162.958,1314.33 164.015,1315.45 165.204,1307.46 166.543,1287.69 168.048,1288.13 169.741,1276.03 171.647,1279.06 173.79,1260.49 176.201,1269.17 178.914,1255.64 181.966,1274.04 185.399,1314.93 189.261,1310.39 193.607,1315.65 198.495,1326.44 203.994,1337.98 210.181,1317.43 217.141,1297.31 224.972,1326.61 232.585,1287.09 241.15,1277.47 249.907,1310.57 258.576,1296.12 268.328,1296.03 278.532,1279.71 289.903,1271.69 301.429,1291.71 312.332,1277.23 324.596,1288.91 335.671,1268.74 348.129,1229.74 360.642,1214.86 372.22,1206.16 383.755,1284.11 394.883,1290.47 407.403,1234.38 421.15,1212 433.011,1210.26 438.678,1223.74 450.101,1330.59 462.952,1342.15 476.934,1362.03 491.154,1370.27 507.152,1384.24 524.088,1380.28 543.142,1377.2 564.577,1342.77 588.691,1348.37 606.838,1315.87 627.253,1323.08 642.193,1335.28 659.001,1324.84 677.91,1351.75 692.107,1337.57 708.08,1341.77 721.669,1326.19 736.956,1342.72 750.502,1344.86 765.741,1328.62 782.885,1304.58 800.708,1262.58 808.524,1306.91 817.318,1369.71 827.21,1367.47 838.339,1349.27 850.86,1308.43 864.933,1269.06 879.039,1288.42 890.115,1300.23 902.576,1296.81 915.989,1278.82 931.054,1264.14 945.575,1204.91 960.995,1159.88 974.419,1069.27 987.263,1020.77 996.577,1100.28 1005.07,1006.82 1014.58,1056.38 1022.19,1007.97 1026.65,1041.69 1034.99,1225.28 1044.37,1279.07 1052.77,1317.57 1062.22,1319.44 1072.86,1323.07 1084.82,1286.11 1098.28,1233.35 1113.42,1184.35 1127.79,1136.63 1141.24,1084.4 1155.22,1113.39 1166.05,1195.37 1176.91,1103.7 1189.13,1004.61 1200.94,829.872 1212.51,820.801 1221.64,760.928 1231.58,642.935 1240.91,692.255 1248.72,785.839 1256.15,621.692 1264.52,446.619 1271.79,528.019 1278.05,411.803 1284.72,565.847 1290.27,605.733 1296.2,749.94 1301.74,634.253 1307.96,629.477 1313.46,745.833 1318.82,932.992 1324.62,845.873 1331.15,956.668 1336.62,1007.23 1342.77,838.455 1349.6,876.854 1355.32,709.472 1361.76,708.811 1367.2,857.309 1372.59,896.332 1378.35,932.117 1384.13,918.859 1390.23,891.426 1396.29,966.34 1401.92,946.248 1408.26,939.76 1414.27,907.889 1420.43,806.502 1426.49,652.436 1432.05,562.529 1437.12,493.399 1441.73,361.935 1446.04,356.885 1448.06,353.85 1451.86,829.899 1456.13,839.195 1460.33,917.588 1464.71,967.591 1469.44,910.779 1474.77,1021.86 1479.65,1051.48 1485.14,1025.86 1491.21,1041.61 1497.05,1096.27 1503.13,1175.09 1509.72,1240.9 1517.07,1228.66 1525.34,1285.73 1533.51,1314.25 1542.71,1205.06 1551.41,1223.01 1560.36,1271.11 1569.59,1259.13 1579.97,1191.99 1591.11,1114.79 1601.38,884.023 1608.87,959.601 1615.53,894.527 1622.08,705.037 1629.08,1072.59 1636.86,1186.08 1644.46,1143.29 1653,885.874 1659.01,857.669 1665.23,1165.19 1665.3,1165.06 1672.31,1293.71 1680.18,1280.24 1689.04,1275.78 1699.01,1274.22 1709.66,1304.74 1719.22,1274.7 1729.97,1271.43 1740.52,1308.6 1750.49,1272.44 1761.7,1263.01 1771.85,1270.49 1782.27,1274.13 1794,1270.22 1807.2,1230.33 1822.04,1196.11 1832.46,984.858 1841.61,647.594 1849.82,876.856 1857.07,793.893 1865.21,813.556 1872.09,742.597 1879.56,888.477 1885.77,975.861 1892.38,803.496 1899.82,674.851 1906.37,839.512 1912.16,755.664 1918.67,661.904 1924.52,767.785 1929.88,627.677 1935.72,326.483 1940.69,86.1857 1944.68,150.896 1948.35,210.889 1951.9,364.933 1955.28,601.472 1958.81,809.544 1962.62,673.343 1966.66,692.031 1970.35,722.667 1974.14,772.456 1977.07,697.013 1980.86,1028.2 1985.13,1073.13 1989.43,895.241 1994.17,948.546 1998.78,719.355 2003.74,724.097 2008.33,778.376 2013.03,738.34 2018.01,678.644 2022.85,799.071 2027.43,811.445 2032.36,969.883 2037.36,874.351 2042.98,883.907 2048.03,884.013 2053.34,818.78 2058.71,788.57 2063.8,845.638 2068.67,876.053 2073.68,854.522 2078.77,788.9 2083.75,779.615 2088.42,773.993 2089.7,737.205 2094.33,1034.92 2099.53,954.418 2104.67,914.692 2106.27,908.069 2111.22,1195.44 2116.78,1245.07 2122.75,1193.04 2129.47,1199.65 2135.91,1155.17 2143.15,1070.46 2151.3,1017.62 2159.08,906.518 2167.51,862.599 2174.77,894.748 2181.75,916.501 2188.99,987.343 2195.71,1061.18 2202.95,1058.53 2210.97,965.546 2219.81,899.203 2227.97,905.731 2235.32,860.156 2243.24,719.243 2250.77,812.673 2257.08,855.882 2263.76,855.785 2270.33,992.771 2276.57,1015 2283.42,1033.18 2290.43,1042.25 2297.57,1053.92 2304.58,1139.83 2311.7,1125.82 2319.71,1083.17 2327.99,1055.51 2330.47,1070.25 2333.26,1247.14 2336.41,1245.61 2339.94,1249.97 2343.92,1245.98 2348.39,1190.92 2352.76,1248.57 "/>
<path clip-path="url(#clip020)" d="M228.998 196.789 L537.794 196.789 L537.794 93.1086 L228.998 93.1086  Z" fill="#ffffff" fill-rule="evenodd" fill-opacity="1"/>
<polyline clip-path="url(#clip020)" style="stroke:#000000; stroke-linecap:round; stroke-linejoin:round; stroke-width:4; stroke-opacity:1; fill:none" points="228.998,196.789 537.794,196.789 537.794,93.1086 228.998,93.1086 228.998,196.789 "/>
<polyline clip-path="url(#clip020)" style="stroke:#009af9; stroke-linecap:round; stroke-linejoin:round; stroke-width:8; stroke-opacity:1; fill:none" points="253.409,144.949 399.875,144.949 "/>
<path clip-path="url(#clip020)" d="M424.286 151.997 L424.286 136.303 L428.545 136.303 L428.545 151.835 Q428.545 155.516 429.98 157.368 Q431.416 159.196 434.286 159.196 Q437.735 159.196 439.726 156.997 Q441.74 154.798 441.74 151.002 L441.74 136.303 L445.999 136.303 L445.999 162.229 L441.74 162.229 L441.74 158.247 Q440.189 160.608 438.129 161.766 Q436.092 162.9 433.383 162.9 Q428.916 162.9 426.601 160.122 Q424.286 157.344 424.286 151.997 M435.004 135.678 L435.004 135.678 Z" fill="#000000" fill-rule="nonzero" fill-opacity="1" /><path clip-path="url(#clip020)" d="M454.378 126.21 L464.193 126.21 L464.193 129.52 L458.638 129.52 L458.638 165.168 L464.193 165.168 L464.193 168.479 L454.378 168.479 L454.378 126.21 Z" fill="#000000" fill-rule="nonzero" fill-opacity="1" /><path clip-path="url(#clip020)" d="M474.679 158.293 L482.318 158.293 L482.318 131.928 L474.008 133.595 L474.008 129.335 L482.272 127.669 L486.948 127.669 L486.948 158.293 L494.587 158.293 L494.587 162.229 L474.679 162.229 L474.679 158.293 Z" fill="#000000" fill-rule="nonzero" fill-opacity="1" /><path clip-path="url(#clip020)" d="M513.383 126.21 L513.383 168.479 L503.568 168.479 L503.568 165.168 L509.1 165.168 L509.1 129.52 L503.568 129.52 L503.568 126.21 L513.383 126.21 Z" fill="#000000" fill-rule="nonzero" fill-opacity="1" /></svg>
