<?xml version="1.0" encoding="utf-8"?>
<svg xmlns="http://www.w3.org/2000/svg" xmlns:xlink="http://www.w3.org/1999/xlink" width="600" height="400" viewBox="0 0 2400 1600">
<defs>
  <clipPath id="clip590">
    <rect x="0" y="0" width="2400" height="1600"/>
  </clipPath>
</defs>
<path clip-path="url(#clip590)" d="M0 1600 L2400 1600 L2400 0 L0 0  Z" fill="#ffffff" fill-rule="evenodd" fill-opacity="1"/>
<defs>
  <clipPath id="clip591">
    <rect x="480" y="0" width="1681" height="1600"/>
  </clipPath>
</defs>
<path clip-path="url(#clip590)" d="M156.598 1423.18 L2352.76 1423.18 L2352.76 47.2441 L156.598 47.2441  Z" fill="#ffffff" fill-rule="evenodd" fill-opacity="1"/>
<defs>
  <clipPath id="clip592">
    <rect x="156" y="47" width="2197" height="1377"/>
  </clipPath>
</defs>
<polyline clip-path="url(#clip592)" style="stroke:#000000; stroke-linecap:round; stroke-linejoin:round; stroke-width:2; stroke-opacity:0.1; fill:none" points="156.598,1423.18 156.598,47.2441 "/>
<polyline clip-path="url(#clip592)" style="stroke:#000000; stroke-linecap:round; stroke-linejoin:round; stroke-width:2; stroke-opacity:0.1; fill:none" points="595.83,1423.18 595.83,47.2441 "/>
<polyline clip-path="url(#clip592)" style="stroke:#000000; stroke-linecap:round; stroke-linejoin:round; stroke-width:2; stroke-opacity:0.1; fill:none" points="1035.06,1423.18 1035.06,47.2441 "/>
<polyline clip-path="url(#clip592)" style="stroke:#000000; stroke-linecap:round; stroke-linejoin:round; stroke-width:2; stroke-opacity:0.1; fill:none" points="1474.29,1423.18 1474.29,47.2441 "/>
<polyline clip-path="url(#clip592)" style="stroke:#000000; stroke-linecap:round; stroke-linejoin:round; stroke-width:2; stroke-opacity:0.1; fill:none" points="1913.52,1423.18 1913.52,47.2441 "/>
<polyline clip-path="url(#clip592)" style="stroke:#000000; stroke-linecap:round; stroke-linejoin:round; stroke-width:2; stroke-opacity:0.1; fill:none" points="2352.76,1423.18 2352.76,47.2441 "/>
<polyline clip-path="url(#clip592)" style="stroke:#000000; stroke-linecap:round; stroke-linejoin:round; stroke-width:2; stroke-opacity:0.1; fill:none" points="156.598,1370.85 2352.76,1370.85 "/>
<polyline clip-path="url(#clip592)" style="stroke:#000000; stroke-linecap:round; stroke-linejoin:round; stroke-width:2; stroke-opacity:0.1; fill:none" points="156.598,1171.46 2352.76,1171.46 "/>
<polyline clip-path="url(#clip592)" style="stroke:#000000; stroke-linecap:round; stroke-linejoin:round; stroke-width:2; stroke-opacity:0.1; fill:none" points="156.598,972.07 2352.76,972.07 "/>
<polyline clip-path="url(#clip592)" style="stroke:#000000; stroke-linecap:round; stroke-linejoin:round; stroke-width:2; stroke-opacity:0.1; fill:none" points="156.598,772.682 2352.76,772.682 "/>
<polyline clip-path="url(#clip592)" style="stroke:#000000; stroke-linecap:round; stroke-linejoin:round; stroke-width:2; stroke-opacity:0.1; fill:none" points="156.598,573.294 2352.76,573.294 "/>
<polyline clip-path="url(#clip592)" style="stroke:#000000; stroke-linecap:round; stroke-linejoin:round; stroke-width:2; stroke-opacity:0.1; fill:none" points="156.598,373.906 2352.76,373.906 "/>
<polyline clip-path="url(#clip592)" style="stroke:#000000; stroke-linecap:round; stroke-linejoin:round; stroke-width:2; stroke-opacity:0.1; fill:none" points="156.598,174.518 2352.76,174.518 "/>
<polyline clip-path="url(#clip590)" style="stroke:#000000; stroke-linecap:round; stroke-linejoin:round; stroke-width:4; stroke-opacity:1; fill:none" points="156.598,1423.18 2352.76,1423.18 "/>
<polyline clip-path="url(#clip590)" style="stroke:#000000; stroke-linecap:round; stroke-linejoin:round; stroke-width:4; stroke-opacity:1; fill:none" points="156.598,1423.18 156.598,1404.28 "/>
<polyline clip-path="url(#clip590)" style="stroke:#000000; stroke-linecap:round; stroke-linejoin:round; stroke-width:4; stroke-opacity:1; fill:none" points="595.83,1423.18 595.83,1404.28 "/>
<polyline clip-path="url(#clip590)" style="stroke:#000000; stroke-linecap:round; stroke-linejoin:round; stroke-width:4; stroke-opacity:1; fill:none" points="1035.06,1423.18 1035.06,1404.28 "/>
<polyline clip-path="url(#clip590)" style="stroke:#000000; stroke-linecap:round; stroke-linejoin:round; stroke-width:4; stroke-opacity:1; fill:none" points="1474.29,1423.18 1474.29,1404.28 "/>
<polyline clip-path="url(#clip590)" style="stroke:#000000; stroke-linecap:round; stroke-linejoin:round; stroke-width:4; stroke-opacity:1; fill:none" points="1913.52,1423.18 1913.52,1404.28 "/>
<polyline clip-path="url(#clip590)" style="stroke:#000000; stroke-linecap:round; stroke-linejoin:round; stroke-width:4; stroke-opacity:1; fill:none" points="2352.76,1423.18 2352.76,1404.28 "/>
<path clip-path="url(#clip590)" d="M156.598 1454.1 Q152.987 1454.1 151.158 1457.66 Q149.353 1461.2 149.353 1468.33 Q149.353 1475.44 151.158 1479.01 Q152.987 1482.55 156.598 1482.55 Q160.232 1482.55 162.038 1479.01 Q163.867 1475.44 163.867 1468.33 Q163.867 1461.2 162.038 1457.66 Q160.232 1454.1 156.598 1454.1 M156.598 1450.39 Q162.408 1450.39 165.464 1455 Q168.543 1459.58 168.543 1468.33 Q168.543 1477.06 165.464 1481.67 Q162.408 1486.25 156.598 1486.25 Q150.788 1486.25 147.709 1481.67 Q144.654 1477.06 144.654 1468.33 Q144.654 1459.58 147.709 1455 Q150.788 1450.39 156.598 1450.39 Z" fill="#000000" fill-rule="nonzero" fill-opacity="1" /><path clip-path="url(#clip590)" d="M590.483 1481.64 L606.802 1481.64 L606.802 1485.58 L584.858 1485.58 L584.858 1481.64 Q587.52 1478.89 592.103 1474.26 Q596.709 1469.61 597.89 1468.27 Q600.135 1465.74 601.015 1464.01 Q601.918 1462.25 601.918 1460.56 Q601.918 1457.8 599.973 1456.07 Q598.052 1454.33 594.95 1454.33 Q592.751 1454.33 590.297 1455.09 Q587.867 1455.86 585.089 1457.41 L585.089 1452.69 Q587.913 1451.55 590.367 1450.97 Q592.821 1450.39 594.858 1450.39 Q600.228 1450.39 603.422 1453.08 Q606.617 1455.77 606.617 1460.26 Q606.617 1462.39 605.807 1464.31 Q605.02 1466.2 602.913 1468.8 Q602.334 1469.47 599.233 1472.69 Q596.131 1475.88 590.483 1481.64 Z" fill="#000000" fill-rule="nonzero" fill-opacity="1" /><path clip-path="url(#clip590)" d="M1038.07 1455.09 L1026.27 1473.54 L1038.07 1473.54 L1038.07 1455.09 M1036.84 1451.02 L1042.72 1451.02 L1042.72 1473.54 L1047.65 1473.54 L1047.65 1477.43 L1042.72 1477.43 L1042.72 1485.58 L1038.07 1485.58 L1038.07 1477.43 L1022.47 1477.43 L1022.47 1472.92 L1036.84 1451.02 Z" fill="#000000" fill-rule="nonzero" fill-opacity="1" /><path clip-path="url(#clip590)" d="M1474.7 1466.44 Q1471.55 1466.44 1469.7 1468.59 Q1467.87 1470.74 1467.87 1474.49 Q1467.87 1478.22 1469.7 1480.39 Q1471.55 1482.55 1474.7 1482.55 Q1477.85 1482.55 1479.67 1480.39 Q1481.53 1478.22 1481.53 1474.49 Q1481.53 1470.74 1479.67 1468.59 Q1477.85 1466.44 1474.7 1466.44 M1483.98 1451.78 L1483.98 1456.04 Q1482.22 1455.21 1480.42 1454.77 Q1478.63 1454.33 1476.87 1454.33 Q1472.24 1454.33 1469.79 1457.45 Q1467.36 1460.58 1467.01 1466.9 Q1468.38 1464.89 1470.44 1463.82 Q1472.5 1462.73 1474.98 1462.73 Q1480.18 1462.73 1483.19 1465.9 Q1486.23 1469.05 1486.23 1474.49 Q1486.23 1479.82 1483.08 1483.03 Q1479.93 1486.25 1474.7 1486.25 Q1468.7 1486.25 1465.53 1481.67 Q1462.36 1477.06 1462.36 1468.33 Q1462.36 1460.14 1466.25 1455.28 Q1470.14 1450.39 1476.69 1450.39 Q1478.45 1450.39 1480.23 1450.74 Q1482.04 1451.09 1483.98 1451.78 Z" fill="#000000" fill-rule="nonzero" fill-opacity="1" /><path clip-path="url(#clip590)" d="M1913.52 1469.17 Q1910.19 1469.17 1908.27 1470.95 Q1906.37 1472.73 1906.37 1475.86 Q1906.37 1478.98 1908.27 1480.77 Q1910.19 1482.55 1913.52 1482.55 Q1916.86 1482.55 1918.78 1480.77 Q1920.7 1478.96 1920.7 1475.86 Q1920.7 1472.73 1918.78 1470.95 Q1916.88 1469.17 1913.52 1469.17 M1908.85 1467.18 Q1905.84 1466.44 1904.15 1464.38 Q1902.48 1462.32 1902.48 1459.35 Q1902.48 1455.21 1905.42 1452.8 Q1908.39 1450.39 1913.52 1450.39 Q1918.69 1450.39 1921.63 1452.8 Q1924.57 1455.21 1924.57 1459.35 Q1924.57 1462.32 1922.88 1464.38 Q1921.21 1466.44 1918.22 1467.18 Q1921.6 1467.96 1923.48 1470.26 Q1925.38 1472.55 1925.38 1475.86 Q1925.38 1480.88 1922.3 1483.57 Q1919.24 1486.25 1913.52 1486.25 Q1907.81 1486.25 1904.73 1483.57 Q1901.67 1480.88 1901.67 1475.86 Q1901.67 1472.55 1903.57 1470.26 Q1905.47 1467.96 1908.85 1467.18 M1907.14 1459.79 Q1907.14 1462.48 1908.8 1463.98 Q1910.49 1465.49 1913.52 1465.49 Q1916.53 1465.49 1918.22 1463.98 Q1919.94 1462.48 1919.94 1459.79 Q1919.94 1457.11 1918.22 1455.6 Q1916.53 1454.1 1913.52 1454.1 Q1910.49 1454.1 1908.8 1455.6 Q1907.14 1457.11 1907.14 1459.79 Z" fill="#000000" fill-rule="nonzero" fill-opacity="1" /><path clip-path="url(#clip590)" d="M2327.44 1481.64 L2335.08 1481.64 L2335.08 1455.28 L2326.77 1456.95 L2326.77 1452.69 L2335.04 1451.02 L2339.71 1451.02 L2339.71 1481.64 L2347.35 1481.64 L2347.35 1485.58 L2327.44 1485.58 L2327.44 1481.64 Z" fill="#000000" fill-rule="nonzero" fill-opacity="1" /><path clip-path="url(#clip590)" d="M2366.8 1454.1 Q2363.18 1454.1 2361.36 1457.66 Q2359.55 1461.2 2359.55 1468.33 Q2359.55 1475.44 2361.36 1479.01 Q2363.18 1482.55 2366.8 1482.55 Q2370.43 1482.55 2372.23 1479.01 Q2374.06 1475.44 2374.06 1468.33 Q2374.06 1461.2 2372.23 1457.66 Q2370.43 1454.1 2366.8 1454.1 M2366.8 1450.39 Q2372.61 1450.39 2375.66 1455 Q2378.74 1459.58 2378.74 1468.33 Q2378.74 1477.06 2375.66 1481.67 Q2372.61 1486.25 2366.8 1486.25 Q2360.99 1486.25 2357.91 1481.67 Q2354.85 1477.06 2354.85 1468.33 Q2354.85 1459.58 2357.91 1455 Q2360.99 1450.39 2366.8 1450.39 Z" fill="#000000" fill-rule="nonzero" fill-opacity="1" /><path clip-path="url(#clip590)" d="M1253.74 1522.27 L1253.74 1532.4 L1265.8 1532.4 L1265.8 1536.95 L1253.74 1536.95 L1253.74 1556.3 Q1253.74 1560.66 1254.92 1561.9 Q1256.13 1563.14 1259.79 1563.14 L1265.8 1563.14 L1265.8 1568.04 L1259.79 1568.04 Q1253.01 1568.04 1250.43 1565.53 Q1247.85 1562.98 1247.85 1556.3 L1247.85 1536.95 L1243.55 1536.95 L1243.55 1532.4 L1247.85 1532.4 L1247.85 1522.27 L1253.74 1522.27 Z" fill="#000000" fill-rule="nonzero" fill-opacity="1" /><polyline clip-path="url(#clip590)" style="stroke:#000000; stroke-linecap:round; stroke-linejoin:round; stroke-width:4; stroke-opacity:1; fill:none" points="156.598,1423.18 156.598,47.2441 "/>
<polyline clip-path="url(#clip590)" style="stroke:#000000; stroke-linecap:round; stroke-linejoin:round; stroke-width:4; stroke-opacity:1; fill:none" points="156.598,1370.85 175.496,1370.85 "/>
<polyline clip-path="url(#clip590)" style="stroke:#000000; stroke-linecap:round; stroke-linejoin:round; stroke-width:4; stroke-opacity:1; fill:none" points="156.598,1171.46 175.496,1171.46 "/>
<polyline clip-path="url(#clip590)" style="stroke:#000000; stroke-linecap:round; stroke-linejoin:round; stroke-width:4; stroke-opacity:1; fill:none" points="156.598,972.07 175.496,972.07 "/>
<polyline clip-path="url(#clip590)" style="stroke:#000000; stroke-linecap:round; stroke-linejoin:round; stroke-width:4; stroke-opacity:1; fill:none" points="156.598,772.682 175.496,772.682 "/>
<polyline clip-path="url(#clip590)" style="stroke:#000000; stroke-linecap:round; stroke-linejoin:round; stroke-width:4; stroke-opacity:1; fill:none" points="156.598,573.294 175.496,573.294 "/>
<polyline clip-path="url(#clip590)" style="stroke:#000000; stroke-linecap:round; stroke-linejoin:round; stroke-width:4; stroke-opacity:1; fill:none" points="156.598,373.906 175.496,373.906 "/>
<polyline clip-path="url(#clip590)" style="stroke:#000000; stroke-linecap:round; stroke-linejoin:round; stroke-width:4; stroke-opacity:1; fill:none" points="156.598,174.518 175.496,174.518 "/>
<path clip-path="url(#clip590)" d="M65.0198 1356.65 Q61.4087 1356.65 59.58 1360.21 Q57.7745 1363.75 57.7745 1370.88 Q57.7745 1377.99 59.58 1381.55 Q61.4087 1385.09 65.0198 1385.09 Q68.6541 1385.09 70.4596 1381.55 Q72.2883 1377.99 72.2883 1370.88 Q72.2883 1363.75 70.4596 1360.21 Q68.6541 1356.65 65.0198 1356.65 M65.0198 1352.94 Q70.83 1352.94 73.8855 1357.55 Q76.9642 1362.13 76.9642 1370.88 Q76.9642 1379.61 73.8855 1384.21 Q70.83 1388.8 65.0198 1388.8 Q59.2097 1388.8 56.131 1384.21 Q53.0754 1379.61 53.0754 1370.88 Q53.0754 1362.13 56.131 1357.55 Q59.2097 1352.94 65.0198 1352.94 Z" fill="#000000" fill-rule="nonzero" fill-opacity="1" /><path clip-path="url(#clip590)" d="M85.1818 1382.25 L90.066 1382.25 L90.066 1388.13 L85.1818 1388.13 L85.1818 1382.25 Z" fill="#000000" fill-rule="nonzero" fill-opacity="1" /><path clip-path="url(#clip590)" d="M104.279 1384.19 L120.598 1384.19 L120.598 1388.13 L98.6539 1388.13 L98.6539 1384.19 Q101.316 1381.44 105.899 1376.81 Q110.506 1372.15 111.686 1370.81 Q113.932 1368.29 114.811 1366.55 Q115.714 1364.79 115.714 1363.1 Q115.714 1360.35 113.77 1358.61 Q111.848 1356.88 108.746 1356.88 Q106.547 1356.88 104.094 1357.64 Q101.663 1358.4 98.8854 1359.96 L98.8854 1355.23 Q101.709 1354.1 104.163 1353.52 Q106.617 1352.94 108.654 1352.94 Q114.024 1352.94 117.219 1355.63 Q120.413 1358.31 120.413 1362.8 Q120.413 1364.93 119.603 1366.85 Q118.816 1368.75 116.709 1371.34 Q116.131 1372.02 113.029 1375.23 Q109.927 1378.43 104.279 1384.19 Z" fill="#000000" fill-rule="nonzero" fill-opacity="1" /><path clip-path="url(#clip590)" d="M62.9365 1157.26 Q59.3254 1157.26 57.4967 1160.82 Q55.6912 1164.36 55.6912 1171.49 Q55.6912 1178.6 57.4967 1182.16 Q59.3254 1185.71 62.9365 1185.71 Q66.5707 1185.71 68.3763 1182.16 Q70.205 1178.6 70.205 1171.49 Q70.205 1164.36 68.3763 1160.82 Q66.5707 1157.26 62.9365 1157.26 M62.9365 1153.55 Q68.7467 1153.55 71.8022 1158.16 Q74.8809 1162.74 74.8809 1171.49 Q74.8809 1180.22 71.8022 1184.83 Q68.7467 1189.41 62.9365 1189.41 Q57.1264 1189.41 54.0477 1184.83 Q50.9921 1180.22 50.9921 1171.49 Q50.9921 1162.74 54.0477 1158.16 Q57.1264 1153.55 62.9365 1153.55 Z" fill="#000000" fill-rule="nonzero" fill-opacity="1" /><path clip-path="url(#clip590)" d="M83.0984 1182.86 L87.9827 1182.86 L87.9827 1188.74 L83.0984 1188.74 L83.0984 1182.86 Z" fill="#000000" fill-rule="nonzero" fill-opacity="1" /><path clip-path="url(#clip590)" d="M111.015 1158.25 L99.2095 1176.7 L111.015 1176.7 L111.015 1158.25 M109.788 1154.18 L115.668 1154.18 L115.668 1176.7 L120.598 1176.7 L120.598 1180.59 L115.668 1180.59 L115.668 1188.74 L111.015 1188.74 L111.015 1180.59 L95.4132 1180.59 L95.4132 1176.08 L109.788 1154.18 Z" fill="#000000" fill-rule="nonzero" fill-opacity="1" /><path clip-path="url(#clip590)" d="M63.2606 957.869 Q59.6495 957.869 57.8208 961.434 Q56.0152 964.975 56.0152 972.105 Q56.0152 979.211 57.8208 982.776 Q59.6495 986.318 63.2606 986.318 Q66.8948 986.318 68.7004 982.776 Q70.5291 979.211 70.5291 972.105 Q70.5291 964.975 68.7004 961.434 Q66.8948 957.869 63.2606 957.869 M63.2606 954.165 Q69.0707 954.165 72.1263 958.772 Q75.205 963.355 75.205 972.105 Q75.205 980.832 72.1263 985.438 Q69.0707 990.022 63.2606 990.022 Q57.4504 990.022 54.3717 985.438 Q51.3162 980.832 51.3162 972.105 Q51.3162 963.355 54.3717 958.772 Q57.4504 954.165 63.2606 954.165 Z" fill="#000000" fill-rule="nonzero" fill-opacity="1" /><path clip-path="url(#clip590)" d="M83.4225 983.471 L88.3067 983.471 L88.3067 989.35 L83.4225 989.35 L83.4225 983.471 Z" fill="#000000" fill-rule="nonzero" fill-opacity="1" /><path clip-path="url(#clip590)" d="M109.071 970.207 Q105.922 970.207 104.071 972.36 Q102.242 974.512 102.242 978.262 Q102.242 981.989 104.071 984.165 Q105.922 986.318 109.071 986.318 Q112.219 986.318 114.047 984.165 Q115.899 981.989 115.899 978.262 Q115.899 974.512 114.047 972.36 Q112.219 970.207 109.071 970.207 M118.353 955.554 L118.353 959.813 Q116.594 958.98 114.788 958.54 Q113.006 958.1 111.246 958.1 Q106.617 958.1 104.163 961.225 Q101.733 964.35 101.385 970.67 Q102.751 968.656 104.811 967.591 Q106.871 966.503 109.348 966.503 Q114.557 966.503 117.566 969.674 Q120.598 972.823 120.598 978.262 Q120.598 983.586 117.45 986.804 Q114.302 990.022 109.071 990.022 Q103.075 990.022 99.9039 985.438 Q96.7326 980.832 96.7326 972.105 Q96.7326 963.911 100.621 959.049 Q104.51 954.165 111.061 954.165 Q112.82 954.165 114.603 954.512 Q116.408 954.86 118.353 955.554 Z" fill="#000000" fill-rule="nonzero" fill-opacity="1" /><path clip-path="url(#clip590)" d="M63.5152 758.481 Q59.9041 758.481 58.0754 762.046 Q56.2699 765.587 56.2699 772.717 Q56.2699 779.823 58.0754 783.388 Q59.9041 786.93 63.5152 786.93 Q67.1494 786.93 68.955 783.388 Q70.7837 779.823 70.7837 772.717 Q70.7837 765.587 68.955 762.046 Q67.1494 758.481 63.5152 758.481 M63.5152 754.777 Q69.3254 754.777 72.3809 759.384 Q75.4596 763.967 75.4596 772.717 Q75.4596 781.444 72.3809 786.05 Q69.3254 790.633 63.5152 790.633 Q57.7051 790.633 54.6264 786.05 Q51.5708 781.444 51.5708 772.717 Q51.5708 763.967 54.6264 759.384 Q57.7051 754.777 63.5152 754.777 Z" fill="#000000" fill-rule="nonzero" fill-opacity="1" /><path clip-path="url(#clip590)" d="M83.6771 784.083 L88.5614 784.083 L88.5614 789.962 L83.6771 789.962 L83.6771 784.083 Z" fill="#000000" fill-rule="nonzero" fill-opacity="1" /><path clip-path="url(#clip590)" d="M108.746 773.55 Q105.413 773.55 103.492 775.333 Q101.594 777.115 101.594 780.24 Q101.594 783.365 103.492 785.147 Q105.413 786.93 108.746 786.93 Q112.08 786.93 114.001 785.147 Q115.922 783.342 115.922 780.24 Q115.922 777.115 114.001 775.333 Q112.103 773.55 108.746 773.55 M104.071 771.559 Q101.061 770.819 99.3715 768.759 Q97.7048 766.698 97.7048 763.735 Q97.7048 759.592 100.645 757.184 Q103.608 754.777 108.746 754.777 Q113.908 754.777 116.848 757.184 Q119.788 759.592 119.788 763.735 Q119.788 766.698 118.098 768.759 Q116.432 770.819 113.445 771.559 Q116.825 772.346 118.7 774.638 Q120.598 776.93 120.598 780.24 Q120.598 785.263 117.52 787.948 Q114.464 790.633 108.746 790.633 Q103.029 790.633 99.9502 787.948 Q96.8947 785.263 96.8947 780.24 Q96.8947 776.93 98.7928 774.638 Q100.691 772.346 104.071 771.559 M102.358 764.175 Q102.358 766.86 104.024 768.365 Q105.714 769.87 108.746 769.87 Q111.756 769.87 113.445 768.365 Q115.158 766.86 115.158 764.175 Q115.158 761.49 113.445 759.985 Q111.756 758.481 108.746 758.481 Q105.714 758.481 104.024 759.985 Q102.358 761.49 102.358 764.175 Z" fill="#000000" fill-rule="nonzero" fill-opacity="1" /><path clip-path="url(#clip590)" d="M54.2328 586.639 L61.8717 586.639 L61.8717 560.273 L53.5616 561.94 L53.5616 557.681 L61.8254 556.014 L66.5013 556.014 L66.5013 586.639 L74.1402 586.639 L74.1402 590.574 L54.2328 590.574 L54.2328 586.639 Z" fill="#000000" fill-rule="nonzero" fill-opacity="1" /><path clip-path="url(#clip590)" d="M83.5845 584.694 L88.4688 584.694 L88.4688 590.574 L83.5845 590.574 L83.5845 584.694 Z" fill="#000000" fill-rule="nonzero" fill-opacity="1" /><path clip-path="url(#clip590)" d="M108.654 559.093 Q105.043 559.093 103.214 562.657 Q101.409 566.199 101.409 573.329 Q101.409 580.435 103.214 584 Q105.043 587.542 108.654 587.542 Q112.288 587.542 114.094 584 Q115.922 580.435 115.922 573.329 Q115.922 566.199 114.094 562.657 Q112.288 559.093 108.654 559.093 M108.654 555.389 Q114.464 555.389 117.52 559.995 Q120.598 564.579 120.598 573.329 Q120.598 582.055 117.52 586.662 Q114.464 591.245 108.654 591.245 Q102.844 591.245 99.765 586.662 Q96.7095 582.055 96.7095 573.329 Q96.7095 564.579 99.765 559.995 Q102.844 555.389 108.654 555.389 Z" fill="#000000" fill-rule="nonzero" fill-opacity="1" /><path clip-path="url(#clip590)" d="M55.8301 387.251 L63.4689 387.251 L63.4689 360.885 L55.1588 362.552 L55.1588 358.292 L63.4226 356.626 L68.0985 356.626 L68.0985 387.251 L75.7374 387.251 L75.7374 391.186 L55.8301 391.186 L55.8301 387.251 Z" fill="#000000" fill-rule="nonzero" fill-opacity="1" /><path clip-path="url(#clip590)" d="M85.1818 385.306 L90.066 385.306 L90.066 391.186 L85.1818 391.186 L85.1818 385.306 Z" fill="#000000" fill-rule="nonzero" fill-opacity="1" /><path clip-path="url(#clip590)" d="M104.279 387.251 L120.598 387.251 L120.598 391.186 L98.6539 391.186 L98.6539 387.251 Q101.316 384.496 105.899 379.866 Q110.506 375.214 111.686 373.871 Q113.932 371.348 114.811 369.612 Q115.714 367.853 115.714 366.163 Q115.714 363.408 113.77 361.672 Q111.848 359.936 108.746 359.936 Q106.547 359.936 104.094 360.7 Q101.663 361.464 98.8854 363.015 L98.8854 358.292 Q101.709 357.158 104.163 356.579 Q106.617 356.001 108.654 356.001 Q114.024 356.001 117.219 358.686 Q120.413 361.371 120.413 365.862 Q120.413 367.991 119.603 369.913 Q118.816 371.811 116.709 374.403 Q116.131 375.075 113.029 378.292 Q109.927 381.487 104.279 387.251 Z" fill="#000000" fill-rule="nonzero" fill-opacity="1" /><path clip-path="url(#clip590)" d="M53.7467 187.862 L61.3856 187.862 L61.3856 161.497 L53.0754 163.164 L53.0754 158.904 L61.3393 157.238 L66.0152 157.238 L66.0152 187.862 L73.654 187.862 L73.654 191.798 L53.7467 191.798 L53.7467 187.862 Z" fill="#000000" fill-rule="nonzero" fill-opacity="1" /><path clip-path="url(#clip590)" d="M83.0984 185.918 L87.9827 185.918 L87.9827 191.798 L83.0984 191.798 L83.0984 185.918 Z" fill="#000000" fill-rule="nonzero" fill-opacity="1" /><path clip-path="url(#clip590)" d="M111.015 161.312 L99.2095 179.761 L111.015 179.761 L111.015 161.312 M109.788 157.238 L115.668 157.238 L115.668 179.761 L120.598 179.761 L120.598 183.65 L115.668 183.65 L115.668 191.798 L111.015 191.798 L111.015 183.65 L95.4132 183.65 L95.4132 179.136 L109.788 157.238 Z" fill="#000000" fill-rule="nonzero" fill-opacity="1" /><polyline clip-path="url(#clip592)" style="stroke:#009af9; stroke-linecap:round; stroke-linejoin:round; stroke-width:8; stroke-opacity:1; fill:none" points="156.598,1370.85 158.797,1368.84 160.995,1366.81 163.193,1364.77 165.392,1362.7 167.59,1360.61 169.788,1358.5 171.987,1356.37 174.185,1354.22 176.383,1352.05 178.582,1349.85 180.78,1347.64 182.979,1345.4 185.177,1343.14 187.375,1340.85 189.574,1338.54 191.772,1336.21 193.97,1333.86 196.169,1331.48 198.367,1329.08 200.565,1326.65 202.764,1324.2 204.962,1321.73 207.16,1319.23 209.359,1316.7 211.557,1314.15 213.755,1311.57 215.954,1308.97 218.152,1306.34 220.351,1303.69 222.549,1301.01 224.747,1298.3 226.946,1295.56 229.144,1292.8 231.342,1290.01 233.541,1287.19 235.739,1284.34 237.937,1281.47 240.136,1278.56 242.334,1275.63 244.532,1272.66 246.731,1269.67 248.929,1266.65 251.128,1263.59 253.326,1260.51 255.524,1257.39 257.723,1254.24 259.921,1251.06 262.119,1247.85 264.318,1244.61 266.516,1241.33 268.714,1238.03 270.913,1234.68 273.111,1231.31 275.309,1227.9 277.508,1224.45 279.706,1220.98 281.905,1217.46 284.103,1213.91 286.301,1210.33 288.5,1206.71 290.698,1203.05 292.896,1199.36 295.095,1195.63 297.293,1191.86 299.491,1188.05 301.69,1184.21 303.888,1180.32 306.086,1176.4 308.285,1172.44 310.483,1168.43 312.682,1164.39 314.88,1160.31 317.078,1156.19 319.277,1152.02 321.475,1147.81 323.673,1143.56 325.872,1139.27 328.07,1134.94 330.268,1130.56 332.467,1126.13 334.665,1121.66 336.863,1117.15 339.062,1112.59 341.26,1107.99 343.458,1103.34 345.657,1098.64 347.855,1093.9 350.054,1089.11 352.252,1084.27 354.45,1079.38 356.649,1074.44 358.847,1069.45 361.045,1064.41 363.244,1059.32 365.442,1054.18 367.64,1048.99 369.839,1043.75 372.037,1038.45 374.235,1033.1 376.434,1027.7 378.632,1022.24 380.831,1016.73 383.029,1011.16 385.227,1005.54 387.426,999.855 389.624,994.116 391.822,988.321 394.021,982.466 396.219,976.553 398.417,970.58 400.616,964.548 402.814,958.454 405.012,952.299 407.211,946.083 409.409,939.803 411.608,933.461 413.806,927.055 416.004,920.584 418.203,914.048 420.401,907.447 422.599,900.779 424.798,894.044 426.996,887.241 429.194,880.37 431.393,873.43 433.591,866.42 435.789,859.339 437.988,852.187 440.186,844.964 442.385,837.667 444.583,830.297 446.781,822.854 448.98,815.335 451.178,807.741 453.376,800.07 455.575,792.322 457.773,784.497 459.971,776.592 462.17,768.608 464.368,760.544 466.566,752.399 468.765,744.171 470.963,735.861 473.162,727.467 475.36,718.989 477.558,710.425 479.757,701.776 481.955,693.039 484.153,684.214 486.352,675.301 488.55,666.297 490.748,657.203 492.947,648.018 495.145,638.74 497.343,629.369 499.542,619.903 501.74,610.342 503.938,600.685 506.137,590.931 508.335,581.079 510.534,571.127 512.732,561.075 514.93,550.923 517.129,540.668 519.327,530.31 521.525,519.848 523.724,509.28 525.922,498.607 528.12,487.826 530.319,476.937 532.517,465.938 534.715,454.828 536.914,443.607 539.112,432.273 541.311,420.824 543.509,409.261 545.707,397.581 547.906,385.784 550.104,373.868 552.302,361.832 554.501,349.676 556.699,337.396 558.897,324.994 561.096,941.351 563.294,935.024 565.492,928.633 567.691,922.179 569.889,915.659 572.088,909.074 574.286,902.422 576.484,895.704 578.683,888.918 580.881,882.064 583.079,875.141 585.278,868.148 587.476,861.085 589.674,853.95 591.873,846.744 594.071,839.466 596.269,832.114 598.468,824.688 600.666,817.188 602.865,809.612 605.063,801.96 607.261,794.231 609.46,786.424 611.658,778.539 613.856,770.574 616.055,762.529 618.253,1162.32 620.451,1158.22 622.65,1154.07 624.848,1149.88 627.046,1145.66 629.245,1141.38 631.443,1137.07 633.641,1132.71 635.84,1128.31 638.038,1123.86 640.237,1119.37 642.435,1114.84 644.633,1110.26 646.832,1105.63 649.03,1100.95 651.228,1096.23 653.427,1091.47 655.625,1086.65 657.823,1081.78 660.022,1076.87 662.22,1071.91 664.418,1066.89 666.617,1061.83 668.815,1056.71 671.014,1051.55 673.212,1046.33 675.41,1041.06 677.609,1035.74 679.807,1030.36 682.005,1024.93 684.204,1019.44 686.402,1013.9 688.6,1008.3 690.799,1002.65 692.997,996.94 695.195,991.173 697.394,985.347 699.592,979.463 701.791,973.519 703.989,967.516 706.187,961.453 708.386,955.328 710.584,949.142 712.782,942.893 714.981,936.582 717.179,930.207 719.377,923.768 721.576,917.264 723.774,910.695 725.972,904.06 728.171,897.358 730.369,890.589 732.568,883.752 734.766,876.846 736.964,869.871 739.163,862.825 741.361,855.709 743.559,848.521 745.758,841.26 747.956,833.927 750.154,826.52 752.353,819.038 754.551,811.482 756.749,803.849 758.948,796.139 761.146,788.352 763.344,780.486 765.543,772.541 767.741,764.517 769.94,756.411 772.138,748.224 774.336,739.955 776.535,731.602 778.733,723.165 780.931,714.643 783.13,706.036 785.328,697.342 787.526,688.56 789.725,679.69 791.923,670.73 794.121,661.681 796.32,652.54 798.518,643.307 800.717,633.982 802.915,624.562 805.113,615.048 807.312,605.438 809.51,595.731 811.708,585.927 813.907,576.025 816.105,566.022 818.303,555.919 820.502,545.715 822.7,535.408 824.898,524.997 827.097,514.482 829.295,503.861 831.494,493.133 833.692,482.297 835.89,471.352 838.089,460.297 840.287,449.131 842.485,437.852 844.684,426.46 846.882,414.953 849.08,403.331 851.279,391.591 853.477,379.734 855.675,367.757 857.874,355.66 860.072,343.441 862.271,950.667 864.469,944.434 866.667,938.138 868.866,931.779 871.064,925.356 873.262,918.868 875.461,912.315 877.659,905.697 879.857,899.011 882.056,892.258 884.254,885.438 886.452,878.549 888.651,871.59 890.849,864.561 893.048,857.462 895.246,850.292 897.444,843.049 899.643,835.733 901.841,828.344 904.039,820.88 906.238,813.341 908.436,805.727 910.634,798.036 912.833,1180.25 915.031,1176.33 917.229,1172.36 919.428,1168.36 921.626,1164.32 923.824,1160.24 926.023,1156.11 928.221,1151.94 930.42,1147.74 932.618,1143.49 934.816,1139.19 937.015,1134.86 939.213,1130.48 941.411,1126.05 943.61,1121.58 945.808,1117.07 948.006,1112.51 950.205,1107.91 952.403,1103.26 954.601,1098.56 956.8,1093.81 958.998,1089.02 961.197,1084.18 963.395,1079.29 965.593,1074.35 967.792,1069.36 969.99,1064.32 972.188,1059.23 974.387,1054.09 976.585,1048.9 978.783,1043.65 980.982,1038.36 983.18,1033.01 985.378,1027.6 987.577,1022.14 989.775,1016.63 991.974,1011.06 994.172,1005.43 996.37,999.75 998.569,994.011 1000.77,988.214 1002.97,982.359 1005.16,976.444 1007.36,970.471 1009.56,964.437 1011.76,958.343 1013.96,952.187 1016.16,945.969 1018.35,939.689 1020.55,933.346 1022.75,926.938 1024.95,920.467 1027.15,913.93 1029.35,907.327 1031.54,900.659 1033.74,893.922 1035.94,887.119 1038.14,880.246 1040.34,873.305 1042.54,866.294 1044.73,859.212 1046.93,852.059 1049.13,844.834 1051.33,837.536 1053.53,830.164 1055.73,822.719 1057.92,815.199 1060.12,807.603 1062.32,799.93 1064.52,792.181 1066.72,784.353 1068.92,776.447 1071.11,768.461 1073.31,760.395 1075.51,752.248 1077.71,744.019 1079.91,735.707 1082.11,727.311 1084.3,718.831 1086.5,710.266 1088.7,701.614 1090.9,692.876 1093.1,684.049 1095.3,675.134 1097.49,666.129 1099.69,657.034 1101.89,647.847 1104.09,638.567 1106.29,629.194 1108.49,619.727 1110.68,610.165 1112.88,600.506 1115.08,590.751 1117.28,580.897 1119.48,570.944 1121.68,560.891 1123.87,550.736 1126.07,540.48 1128.27,530.12 1130.47,1044.95 1132.67,1039.66 1134.87,1034.32 1137.07,1028.93 1139.26,1023.49 1141.46,1017.99 1143.66,1012.43 1145.86,1006.82 1148.06,1001.15 1150.26,995.425 1152.45,989.642 1154.65,983.801 1156.85,977.902 1159.05,1271.09 1161.25,1268.08 1163.45,1265.04 1165.64,1261.97 1167.84,1258.87 1170.04,1255.74 1172.24,1252.57 1174.44,1249.38 1176.64,1246.15 1178.83,1242.89 1181.03,1239.59 1183.23,1236.27 1185.43,1232.91 1187.63,1229.51 1189.83,1226.09 1192.02,1222.62 1194.22,1219.13 1196.42,1215.6 1198.62,1212.03 1200.82,1208.42 1203.02,1204.78 1205.21,1201.11 1207.41,1197.39 1209.61,1193.64 1211.81,1189.85 1214.01,1186.03 1216.21,1182.16 1218.4,1178.26 1220.6,1174.32 1222.8,1170.33 1225,1166.31 1227.2,1162.25 1229.4,1158.14 1231.59,1153.99 1233.79,1149.81 1235.99,1145.58 1238.19,1141.31 1240.39,1136.99 1242.59,1132.63 1244.78,1128.23 1246.98,1123.78 1249.18,1119.29 1251.38,1114.75 1253.58,1110.17 1255.78,1105.54 1257.97,1100.87 1260.17,1096.15 1262.37,1091.38 1264.57,1086.56 1266.77,1081.69 1268.97,1076.78 1271.16,1071.81 1273.36,1066.8 1275.56,1061.74 1277.76,1056.62 1279.96,1051.45 1282.16,1046.23 1284.35,1040.96 1286.55,1035.64 1288.75,1030.26 1290.95,1024.83 1293.15,1019.34 1295.35,1013.8 1297.55,1008.2 1299.74,1002.55 1301.94,996.838 1304.14,991.07 1306.34,985.243 1308.54,979.359 1310.74,973.415 1312.93,967.411 1315.13,961.347 1317.33,955.221 1319.53,949.034 1321.73,942.785 1323.93,936.473 1326.12,930.097 1328.32,923.657 1330.52,917.153 1332.72,910.583 1334.92,903.946 1337.12,897.243 1339.31,890.472 1341.51,883.634 1343.71,876.726 1345.91,869.749 1348.11,862.701 1350.31,855.583 1352.5,848.393 1354.7,841.13 1356.9,833.795 1359.1,826.386 1361.3,818.902 1363.5,811.343 1365.69,803.708 1367.89,795.996 1370.09,788.207 1372.29,780.339 1374.49,772.392 1376.69,764.366 1378.88,756.258 1381.08,748.069 1383.28,739.798 1385.48,731.443 1387.68,723.004 1389.88,714.481 1392.07,705.871 1394.27,697.176 1396.47,688.392 1398.67,679.521 1400.87,670.56 1403.07,661.509 1405.26,652.367 1407.46,643.133 1409.66,633.807 1411.86,624.386 1414.06,614.871 1416.26,605.261 1418.45,595.553 1420.65,585.748 1422.85,575.845 1425.05,565.842 1427.25,555.738 1429.45,545.533 1431.64,535.225 1433.84,524.813 1436.04,514.297 1438.24,503.674 1440.44,492.945 1442.64,482.108 1444.83,471.162 1447.03,460.106 1449.23,448.938 1451.43,437.658 1453.63,426.264 1455.83,414.756 1458.03,403.132 1460.22,391.391 1462.42,379.531 1464.62,367.552 1466.82,355.453 1469.02,343.231 1471.22,330.887 1473.41,318.418 1475.61,305.824 1477.81,293.103 1480.01,280.254 1482.21,267.276 1484.41,254.167 1486.6,240.926 1488.8,227.552 1491,214.043 1493.2,200.398 1495.4,186.616 1497.6,172.696 1499.79,158.636 1501.99,144.434 1504.19,130.089 1506.39,115.601 1508.59,100.967 1510.79,86.1857 1512.98,820.745 1515.18,813.205 1517.38,805.589 1519.58,797.897 1521.78,790.127 1523.98,782.279 1526.17,774.352 1528.37,766.345 1530.57,758.257 1532.77,750.089 1534.97,741.838 1537.17,733.504 1539.36,725.086 1541.56,716.584 1543.76,707.996 1545.96,699.321 1548.16,690.56 1550.36,681.71 1552.55,672.771 1554.75,663.742 1556.95,654.623 1559.15,645.412 1561.35,636.108 1563.55,626.71 1565.74,617.218 1567.94,607.63 1570.14,597.946 1572.34,588.165 1574.54,578.285 1576.74,568.305 1578.93,558.226 1581.13,548.045 1583.33,537.761 1585.53,527.374 1587.73,516.883 1589.93,506.286 1592.12,495.582 1594.32,484.771 1596.52,473.851 1598.72,462.821 1600.92,451.68 1603.12,440.427 1605.31,429.061 1607.51,417.581 1609.71,405.984 1611.91,394.272 1614.11,382.441 1616.31,370.492 1618.5,358.422 1620.7,346.231 1622.9,952.076 1625.1,945.857 1627.3,939.576 1629.5,933.231 1631.7,926.822 1633.89,920.35 1636.09,913.812 1638.29,907.208 1640.49,900.538 1642.69,893.8 1644.89,886.995 1647.08,880.121 1649.28,873.179 1651.48,866.166 1653.68,859.083 1655.88,1211.08 1658.08,1207.47 1660.27,1203.82 1662.47,1200.13 1664.67,1196.41 1666.87,1192.65 1669.07,1188.85 1671.27,1185.01 1673.46,1181.14 1675.66,1177.22 1677.86,1173.27 1680.06,1169.28 1682.26,1165.24 1684.46,1161.17 1686.65,1157.05 1688.85,1152.9 1691.05,1148.7 1693.25,1144.46 1695.45,1140.17 1697.65,1135.85 1699.84,1131.48 1702.04,1127.06 1704.24,1122.6 1706.44,1118.1 1708.64,1113.55 1710.84,1108.96 1713.03,1104.32 1715.23,1099.63 1717.43,1094.9 1719.63,1090.11 1721.83,1085.28 1724.03,1080.4 1726.22,1075.48 1728.42,1070.5 1730.62,1065.47 1732.82,1060.39 1735.02,1055.26 1737.22,1050.08 1739.41,1044.85 1741.61,1039.57 1743.81,1034.23 1746.01,1028.83 1748.21,1023.39 1750.41,1017.89 1752.6,1012.33 1754.8,1006.72 1757,1001.05 1759.2,995.321 1761.4,989.538 1763.6,983.696 1765.79,977.795 1767.99,971.835 1770.19,965.815 1772.39,959.735 1774.59,953.593 1776.79,947.39 1778.98,941.124 1781.18,934.795 1783.38,928.402 1785.58,921.945 1787.78,915.423 1789.98,908.836 1792.18,902.182 1794.37,895.461 1796.57,888.673 1798.77,881.816 1800.97,874.89 1803.17,867.895 1805.37,860.829 1807.56,853.692 1809.76,846.483 1811.96,839.202 1814.16,831.847 1816.36,824.419 1818.56,816.916 1820.75,809.337 1822.95,801.682 1825.15,1182.09 1827.35,1178.19 1829.55,1174.24 1831.75,1170.26 1833.94,1166.24 1836.14,1162.17 1838.34,1158.07 1840.54,1153.92 1842.74,1149.73 1844.94,1145.5 1847.13,1141.23 1849.33,1136.91 1851.53,1132.55 1853.73,1128.15 1855.93,1123.7 1858.13,1119.21 1860.32,1114.67 1862.52,1110.09 1864.72,1105.46 1866.92,1100.78 1869.12,1096.06 1871.32,1091.29 1873.51,1086.47 1875.71,1081.61 1877.91,1076.69 1880.11,1071.73 1882.31,1066.71 1884.51,1061.65 1886.7,1056.53 1888.9,1051.36 1891.1,1046.14 1893.3,1040.87 1895.5,1035.54 1897.7,1030.16 1899.89,1024.73 1902.09,1019.24 1904.29,1013.7 1906.49,1008.1 1908.69,1002.45 1910.89,996.734 1913.08,990.964 1915.28,985.136 1917.48,979.25 1919.68,973.304 1921.88,967.299 1924.08,961.233 1926.27,955.106 1928.47,948.917 1930.67,942.667 1932.87,936.353 1935.07,929.976 1937.27,923.535 1939.46,917.029 1941.66,910.458 1943.86,903.82 1946.06,897.116 1948.26,890.344 1950.46,883.504 1952.66,876.596 1954.85,869.617 1957.05,862.569 1959.25,855.45 1961.45,848.259 1963.65,840.995 1965.85,1201.95 1968.04,1384.24 1970.24,1382.37 1972.44,1380.48 1974.64,1378.57 1976.84,1376.64 1979.04,1374.69 1981.23,1372.73 1983.43,1370.74 1985.63,1368.73 1987.83,1366.7 1990.03,1364.66 1992.23,1362.59 1994.42,1360.5 1996.62,1358.39 1998.82,1356.26 2001.02,1354.11 2003.22,1351.93 2005.42,1349.73 2007.61,1347.52 2009.81,1345.28 2012.01,1343.01 2014.21,1340.73 2016.41,1338.42 2018.61,1336.09 2020.8,1333.73 2023,1331.35 2025.2,1328.95 2027.4,1326.52 2029.6,1324.07 2031.8,1321.59 2033.99,1319.09 2036.19,1316.56 2038.39,1314.01 2040.59,1311.43 2042.79,1308.83 2044.99,1306.2 2047.18,1303.54 2049.38,1300.86 2051.58,1298.15 2053.78,1295.41 2055.98,1292.65 2058.18,1289.86 2060.37,1287.04 2062.57,1284.19 2064.77,1281.31 2066.97,1278.4 2069.17,1275.47 2071.37,1272.5 2073.56,1269.51 2075.76,1266.48 2077.96,1263.42 2080.16,1260.34 2082.36,1257.22 2084.56,1254.07 2086.75,1250.89 2088.95,1247.68 2091.15,1244.43 2093.35,1241.16 2095.55,1237.85 2097.75,1234.5 2099.94,1231.12 2102.14,1227.71 2104.34,1224.27 2106.54,1220.79 2108.74,1217.27 2110.94,1213.72 2113.14,1210.13 2115.33,1206.51 2117.53,1202.85 2119.73,1199.15 2121.93,1195.42 2124.13,1191.65 2126.33,1187.84 2128.52,1183.99 2130.72,1180.11 2132.92,1176.18 2135.12,1172.22 2137.32,1168.22 2139.52,1164.17 2141.71,1160.09 2143.91,1155.96 2146.11,1151.79 2148.31,1147.58 2150.51,1143.33 2152.71,1139.04 2154.9,1134.7 2157.1,1130.32 2159.3,1125.89 2161.5,1121.42 2163.7,1116.91 2165.9,1112.34 2168.09,1107.74 2170.29,1103.09 2172.49,1098.39 2174.69,1093.64 2176.89,1088.84 2179.09,1084 2181.28,1079.11 2183.48,1074.17 2185.68,1069.18 2187.88,1064.14 2190.08,1059.05 2192.28,1053.9 2194.47,1048.71 2196.67,1043.46 2198.87,1038.16 2201.07,1032.81 2203.27,1027.4 2205.47,1021.94 2207.66,1293.33 2209.86,1290.54 2212.06,1287.73 2214.26,1284.89 2216.46,1282.02 2218.66,1279.12 2220.85,1276.19 2223.05,1273.23 2225.25,1270.24 2227.45,1267.23 2229.65,1264.18 2231.85,1261.1 2234.04,1257.99 2236.24,1254.85 2238.44,1251.67 2240.64,1248.47 2242.84,1245.23 2245.04,1241.96 2247.23,1238.66 2249.43,1235.33 2251.63,1231.96 2253.83,1228.55 2256.03,1225.12 2258.23,1221.64 2260.42,1218.14 2262.62,1214.59 2264.82,1211.02 2267.02,1207.4 2269.22,1203.75 2271.42,1200.07 2273.62,1196.34 2275.81,1192.58 2278.01,1188.78 2280.21,1184.94 2282.41,1181.07 2284.61,1177.15 2286.81,1173.2 2289,1169.2 2291.2,1165.17 2293.4,1161.09 2295.6,1156.98 2297.8,1152.82 2300,1148.62 2302.19,1144.38 2304.39,1140.09 2306.59,1135.77 2308.79,1131.4 2310.99,1126.98 2313.19,1122.52 2315.38,1118.02 2317.58,1113.47 2319.78,1108.87 2321.98,1104.23 2324.18,1099.54 2326.38,1094.81 2328.57,1090.03 2330.77,1085.19 2332.97,1080.32 2335.17,1075.39 2337.37,1070.41 2339.57,1065.38 2341.76,1060.3 2343.96,1055.17 2346.16,1049.99 2348.36,1044.76 2350.56,1039.47 2352.76,1034.13 "/>
<path clip-path="url(#clip590)" d="M1970.84 196.789 L2279.55 196.789 L2279.55 93.1086 L1970.84 93.1086  Z" fill="#ffffff" fill-rule="evenodd" fill-opacity="1"/>
<polyline clip-path="url(#clip590)" style="stroke:#000000; stroke-linecap:round; stroke-linejoin:round; stroke-width:4; stroke-opacity:1; fill:none" points="1970.84,196.789 2279.55,196.789 2279.55,93.1086 1970.84,93.1086 1970.84,196.789 "/>
<polyline clip-path="url(#clip590)" style="stroke:#009af9; stroke-linecap:round; stroke-linejoin:round; stroke-width:8; stroke-opacity:1; fill:none" points="1995.24,144.949 2141.65,144.949 "/>
<path clip-path="url(#clip590)" d="M2166.05 151.997 L2166.05 136.303 L2170.31 136.303 L2170.31 151.835 Q2170.31 155.516 2171.75 157.368 Q2173.18 159.196 2176.05 159.196 Q2179.5 159.196 2181.49 156.997 Q2183.51 154.798 2183.51 151.002 L2183.51 136.303 L2187.76 136.303 L2187.76 162.229 L2183.51 162.229 L2183.51 158.247 Q2181.95 160.608 2179.89 161.766 Q2177.86 162.9 2175.15 162.9 Q2170.68 162.9 2168.37 160.122 Q2166.05 157.344 2166.05 151.997 M2176.77 135.678 L2176.77 135.678 Z" fill="#000000" fill-rule="nonzero" fill-opacity="1" /><path clip-path="url(#clip590)" d="M2196.14 126.21 L2205.96 126.21 L2205.96 129.52 L2200.4 129.52 L2200.4 165.168 L2205.96 165.168 L2205.96 168.479 L2196.14 168.479 L2196.14 126.21 Z" fill="#000000" fill-rule="nonzero" fill-opacity="1" /><path clip-path="url(#clip590)" d="M2216.45 158.293 L2224.08 158.293 L2224.08 131.928 L2215.77 133.595 L2215.77 129.335 L2224.04 127.669 L2228.71 127.669 L2228.71 158.293 L2236.35 158.293 L2236.35 162.229 L2216.45 162.229 L2216.45 158.293 Z" fill="#000000" fill-rule="nonzero" fill-opacity="1" /><path clip-path="url(#clip590)" d="M2255.15 126.21 L2255.15 168.479 L2245.33 168.479 L2245.33 165.168 L2250.87 165.168 L2250.87 129.52 L2245.33 129.52 L2245.33 126.21 L2255.15 126.21 Z" fill="#000000" fill-rule="nonzero" fill-opacity="1" /></svg>
