<?xml version="1.0" encoding="utf-8"?>
<svg xmlns="http://www.w3.org/2000/svg" xmlns:xlink="http://www.w3.org/1999/xlink" width="600" height="400" viewBox="0 0 2400 1600">
<defs>
  <clipPath id="clip120">
    <rect x="0" y="0" width="2400" height="1600"/>
  </clipPath>
</defs>
<path clip-path="url(#clip120)" d="M0 1600 L2400 1600 L2400 0 L0 0  Z" fill="#ffffff" fill-rule="evenodd" fill-opacity="1"/>
<defs>
  <clipPath id="clip121">
    <rect x="480" y="0" width="1681" height="1600"/>
  </clipPath>
</defs>
<path clip-path="url(#clip120)" d="M112.177 1423.18 L2352.76 1423.18 L2352.76 47.2441 L112.177 47.2441  Z" fill="#ffffff" fill-rule="evenodd" fill-opacity="1"/>
<defs>
  <clipPath id="clip122">
    <rect x="112" y="47" width="2242" height="1377"/>
  </clipPath>
</defs>
<polyline clip-path="url(#clip122)" style="stroke:#000000; stroke-linecap:round; stroke-linejoin:round; stroke-width:2; stroke-opacity:0.1; fill:none" points="112.177,1423.18 112.177,47.2441 "/>
<polyline clip-path="url(#clip122)" style="stroke:#000000; stroke-linecap:round; stroke-linejoin:round; stroke-width:2; stroke-opacity:0.1; fill:none" points="560.293,1423.18 560.293,47.2441 "/>
<polyline clip-path="url(#clip122)" style="stroke:#000000; stroke-linecap:round; stroke-linejoin:round; stroke-width:2; stroke-opacity:0.1; fill:none" points="1008.41,1423.18 1008.41,47.2441 "/>
<polyline clip-path="url(#clip122)" style="stroke:#000000; stroke-linecap:round; stroke-linejoin:round; stroke-width:2; stroke-opacity:0.1; fill:none" points="1456.52,1423.18 1456.52,47.2441 "/>
<polyline clip-path="url(#clip122)" style="stroke:#000000; stroke-linecap:round; stroke-linejoin:round; stroke-width:2; stroke-opacity:0.1; fill:none" points="1904.64,1423.18 1904.64,47.2441 "/>
<polyline clip-path="url(#clip122)" style="stroke:#000000; stroke-linecap:round; stroke-linejoin:round; stroke-width:2; stroke-opacity:0.1; fill:none" points="2352.76,1423.18 2352.76,47.2441 "/>
<polyline clip-path="url(#clip122)" style="stroke:#000000; stroke-linecap:round; stroke-linejoin:round; stroke-width:2; stroke-opacity:0.1; fill:none" points="112.177,1397.07 2352.76,1397.07 "/>
<polyline clip-path="url(#clip122)" style="stroke:#000000; stroke-linecap:round; stroke-linejoin:round; stroke-width:2; stroke-opacity:0.1; fill:none" points="112.177,1170.87 2352.76,1170.87 "/>
<polyline clip-path="url(#clip122)" style="stroke:#000000; stroke-linecap:round; stroke-linejoin:round; stroke-width:2; stroke-opacity:0.1; fill:none" points="112.177,944.668 2352.76,944.668 "/>
<polyline clip-path="url(#clip122)" style="stroke:#000000; stroke-linecap:round; stroke-linejoin:round; stroke-width:2; stroke-opacity:0.1; fill:none" points="112.177,718.469 2352.76,718.469 "/>
<polyline clip-path="url(#clip122)" style="stroke:#000000; stroke-linecap:round; stroke-linejoin:round; stroke-width:2; stroke-opacity:0.1; fill:none" points="112.177,492.27 2352.76,492.27 "/>
<polyline clip-path="url(#clip122)" style="stroke:#000000; stroke-linecap:round; stroke-linejoin:round; stroke-width:2; stroke-opacity:0.1; fill:none" points="112.177,266.071 2352.76,266.071 "/>
<polyline clip-path="url(#clip120)" style="stroke:#000000; stroke-linecap:round; stroke-linejoin:round; stroke-width:4; stroke-opacity:1; fill:none" points="112.177,1423.18 2352.76,1423.18 "/>
<polyline clip-path="url(#clip120)" style="stroke:#000000; stroke-linecap:round; stroke-linejoin:round; stroke-width:4; stroke-opacity:1; fill:none" points="112.177,1423.18 112.177,1404.28 "/>
<polyline clip-path="url(#clip120)" style="stroke:#000000; stroke-linecap:round; stroke-linejoin:round; stroke-width:4; stroke-opacity:1; fill:none" points="560.293,1423.18 560.293,1404.28 "/>
<polyline clip-path="url(#clip120)" style="stroke:#000000; stroke-linecap:round; stroke-linejoin:round; stroke-width:4; stroke-opacity:1; fill:none" points="1008.41,1423.18 1008.41,1404.28 "/>
<polyline clip-path="url(#clip120)" style="stroke:#000000; stroke-linecap:round; stroke-linejoin:round; stroke-width:4; stroke-opacity:1; fill:none" points="1456.52,1423.18 1456.52,1404.28 "/>
<polyline clip-path="url(#clip120)" style="stroke:#000000; stroke-linecap:round; stroke-linejoin:round; stroke-width:4; stroke-opacity:1; fill:none" points="1904.64,1423.18 1904.64,1404.28 "/>
<polyline clip-path="url(#clip120)" style="stroke:#000000; stroke-linecap:round; stroke-linejoin:round; stroke-width:4; stroke-opacity:1; fill:none" points="2352.76,1423.18 2352.76,1404.28 "/>
<path clip-path="url(#clip120)" d="M112.177 1454.1 Q108.566 1454.1 106.737 1457.66 Q104.932 1461.2 104.932 1468.33 Q104.932 1475.44 106.737 1479.01 Q108.566 1482.55 112.177 1482.55 Q115.811 1482.55 117.617 1479.01 Q119.446 1475.44 119.446 1468.33 Q119.446 1461.2 117.617 1457.66 Q115.811 1454.1 112.177 1454.1 M112.177 1450.39 Q117.987 1450.39 121.043 1455 Q124.122 1459.58 124.122 1468.33 Q124.122 1477.06 121.043 1481.67 Q117.987 1486.25 112.177 1486.25 Q106.367 1486.25 103.288 1481.67 Q100.233 1477.06 100.233 1468.33 Q100.233 1459.58 103.288 1455 Q106.367 1450.39 112.177 1450.39 Z" fill="#000000" fill-rule="nonzero" fill-opacity="1" /><path clip-path="url(#clip120)" d="M554.946 1481.64 L571.265 1481.64 L571.265 1485.58 L549.321 1485.58 L549.321 1481.64 Q551.983 1478.89 556.566 1474.26 Q561.173 1469.61 562.353 1468.27 Q564.598 1465.74 565.478 1464.01 Q566.381 1462.25 566.381 1460.56 Q566.381 1457.8 564.436 1456.07 Q562.515 1454.33 559.413 1454.33 Q557.214 1454.33 554.761 1455.09 Q552.33 1455.86 549.552 1457.41 L549.552 1452.69 Q552.376 1451.55 554.83 1450.97 Q557.284 1450.39 559.321 1450.39 Q564.691 1450.39 567.885 1453.08 Q571.08 1455.77 571.08 1460.26 Q571.08 1462.39 570.27 1464.31 Q569.483 1466.2 567.376 1468.8 Q566.798 1469.47 563.696 1472.69 Q560.594 1475.88 554.946 1481.64 Z" fill="#000000" fill-rule="nonzero" fill-opacity="1" /><path clip-path="url(#clip120)" d="M1011.42 1455.09 L999.612 1473.54 L1011.42 1473.54 L1011.42 1455.09 M1010.19 1451.02 L1016.07 1451.02 L1016.07 1473.54 L1021 1473.54 L1021 1477.43 L1016.07 1477.43 L1016.07 1485.58 L1011.42 1485.58 L1011.42 1477.43 L995.816 1477.43 L995.816 1472.92 L1010.19 1451.02 Z" fill="#000000" fill-rule="nonzero" fill-opacity="1" /><path clip-path="url(#clip120)" d="M1456.93 1466.44 Q1453.78 1466.44 1451.93 1468.59 Q1450.1 1470.74 1450.1 1474.49 Q1450.1 1478.22 1451.93 1480.39 Q1453.78 1482.55 1456.93 1482.55 Q1460.08 1482.55 1461.91 1480.39 Q1463.76 1478.22 1463.76 1474.49 Q1463.76 1470.74 1461.91 1468.59 Q1460.08 1466.44 1456.93 1466.44 M1466.21 1451.78 L1466.21 1456.04 Q1464.45 1455.21 1462.65 1454.77 Q1460.86 1454.33 1459.11 1454.33 Q1454.48 1454.33 1452.02 1457.45 Q1449.59 1460.58 1449.24 1466.9 Q1450.61 1464.89 1452.67 1463.82 Q1454.73 1462.73 1457.21 1462.73 Q1462.42 1462.73 1465.42 1465.9 Q1468.46 1469.05 1468.46 1474.49 Q1468.46 1479.82 1465.31 1483.03 Q1462.16 1486.25 1456.93 1486.25 Q1450.93 1486.25 1447.76 1481.67 Q1444.59 1477.06 1444.59 1468.33 Q1444.59 1460.14 1448.48 1455.28 Q1452.37 1450.39 1458.92 1450.39 Q1460.68 1450.39 1462.46 1450.74 Q1464.27 1451.09 1466.21 1451.78 Z" fill="#000000" fill-rule="nonzero" fill-opacity="1" /><path clip-path="url(#clip120)" d="M1904.64 1469.17 Q1901.31 1469.17 1899.39 1470.95 Q1897.49 1472.73 1897.49 1475.86 Q1897.49 1478.98 1899.39 1480.77 Q1901.31 1482.55 1904.64 1482.55 Q1907.97 1482.55 1909.89 1480.77 Q1911.82 1478.96 1911.82 1475.86 Q1911.82 1472.73 1909.89 1470.95 Q1908 1469.17 1904.64 1469.17 M1899.96 1467.18 Q1896.96 1466.44 1895.27 1464.38 Q1893.6 1462.32 1893.6 1459.35 Q1893.6 1455.21 1896.54 1452.8 Q1899.5 1450.39 1904.64 1450.39 Q1909.8 1450.39 1912.74 1452.8 Q1915.68 1455.21 1915.68 1459.35 Q1915.68 1462.32 1913.99 1464.38 Q1912.33 1466.44 1909.34 1467.18 Q1912.72 1467.96 1914.59 1470.26 Q1916.49 1472.55 1916.49 1475.86 Q1916.49 1480.88 1913.41 1483.57 Q1910.36 1486.25 1904.64 1486.25 Q1898.92 1486.25 1895.84 1483.57 Q1892.79 1480.88 1892.79 1475.86 Q1892.79 1472.55 1894.69 1470.26 Q1896.58 1467.96 1899.96 1467.18 M1898.25 1459.79 Q1898.25 1462.48 1899.92 1463.98 Q1901.61 1465.49 1904.64 1465.49 Q1907.65 1465.49 1909.34 1463.98 Q1911.05 1462.48 1911.05 1459.79 Q1911.05 1457.11 1909.34 1455.6 Q1907.65 1454.1 1904.64 1454.1 Q1901.61 1454.1 1899.92 1455.6 Q1898.25 1457.11 1898.25 1459.79 Z" fill="#000000" fill-rule="nonzero" fill-opacity="1" /><path clip-path="url(#clip120)" d="M2327.44 1481.64 L2335.08 1481.64 L2335.08 1455.28 L2326.77 1456.95 L2326.77 1452.69 L2335.04 1451.02 L2339.71 1451.02 L2339.71 1481.64 L2347.35 1481.64 L2347.35 1485.58 L2327.44 1485.58 L2327.44 1481.64 Z" fill="#000000" fill-rule="nonzero" fill-opacity="1" /><path clip-path="url(#clip120)" d="M2366.8 1454.1 Q2363.18 1454.1 2361.36 1457.66 Q2359.55 1461.2 2359.55 1468.33 Q2359.55 1475.44 2361.36 1479.01 Q2363.18 1482.55 2366.8 1482.55 Q2370.43 1482.55 2372.23 1479.01 Q2374.06 1475.44 2374.06 1468.33 Q2374.06 1461.2 2372.23 1457.66 Q2370.43 1454.1 2366.8 1454.1 M2366.8 1450.39 Q2372.61 1450.39 2375.66 1455 Q2378.74 1459.58 2378.74 1468.33 Q2378.74 1477.06 2375.66 1481.67 Q2372.61 1486.25 2366.8 1486.25 Q2360.99 1486.25 2357.91 1481.67 Q2354.85 1477.06 2354.85 1468.33 Q2354.85 1459.58 2357.91 1455 Q2360.99 1450.39 2366.8 1450.39 Z" fill="#000000" fill-rule="nonzero" fill-opacity="1" /><path clip-path="url(#clip120)" d="M1231.53 1522.27 L1231.53 1532.4 L1243.59 1532.4 L1243.59 1536.95 L1231.53 1536.95 L1231.53 1556.3 Q1231.53 1560.66 1232.71 1561.9 Q1233.91 1563.14 1237.58 1563.14 L1243.59 1563.14 L1243.59 1568.04 L1237.58 1568.04 Q1230.8 1568.04 1228.22 1565.53 Q1225.64 1562.98 1225.64 1556.3 L1225.64 1536.95 L1221.34 1536.95 L1221.34 1532.4 L1225.64 1532.4 L1225.64 1522.27 L1231.53 1522.27 Z" fill="#000000" fill-rule="nonzero" fill-opacity="1" /><polyline clip-path="url(#clip120)" style="stroke:#000000; stroke-linecap:round; stroke-linejoin:round; stroke-width:4; stroke-opacity:1; fill:none" points="112.177,1423.18 112.177,47.2441 "/>
<polyline clip-path="url(#clip120)" style="stroke:#000000; stroke-linecap:round; stroke-linejoin:round; stroke-width:4; stroke-opacity:1; fill:none" points="112.177,1397.07 131.075,1397.07 "/>
<polyline clip-path="url(#clip120)" style="stroke:#000000; stroke-linecap:round; stroke-linejoin:round; stroke-width:4; stroke-opacity:1; fill:none" points="112.177,1170.87 131.075,1170.87 "/>
<polyline clip-path="url(#clip120)" style="stroke:#000000; stroke-linecap:round; stroke-linejoin:round; stroke-width:4; stroke-opacity:1; fill:none" points="112.177,944.668 131.075,944.668 "/>
<polyline clip-path="url(#clip120)" style="stroke:#000000; stroke-linecap:round; stroke-linejoin:round; stroke-width:4; stroke-opacity:1; fill:none" points="112.177,718.469 131.075,718.469 "/>
<polyline clip-path="url(#clip120)" style="stroke:#000000; stroke-linecap:round; stroke-linejoin:round; stroke-width:4; stroke-opacity:1; fill:none" points="112.177,492.27 131.075,492.27 "/>
<polyline clip-path="url(#clip120)" style="stroke:#000000; stroke-linecap:round; stroke-linejoin:round; stroke-width:4; stroke-opacity:1; fill:none" points="112.177,266.071 131.075,266.071 "/>
<path clip-path="url(#clip120)" d="M64.2328 1382.86 Q60.6217 1382.86 58.793 1386.43 Q56.9875 1389.97 56.9875 1397.1 Q56.9875 1404.21 58.793 1407.77 Q60.6217 1411.31 64.2328 1411.31 Q67.867 1411.31 69.6726 1407.77 Q71.5013 1404.21 71.5013 1397.1 Q71.5013 1389.97 69.6726 1386.43 Q67.867 1382.86 64.2328 1382.86 M64.2328 1379.16 Q70.0429 1379.16 73.0985 1383.77 Q76.1772 1388.35 76.1772 1397.1 Q76.1772 1405.83 73.0985 1410.43 Q70.0429 1415.02 64.2328 1415.02 Q58.4226 1415.02 55.344 1410.43 Q52.2884 1405.83 52.2884 1397.1 Q52.2884 1388.35 55.344 1383.77 Q58.4226 1379.16 64.2328 1379.16 Z" fill="#000000" fill-rule="nonzero" fill-opacity="1" /><path clip-path="url(#clip120)" d="M56.2699 1184.21 L63.9087 1184.21 L63.9087 1157.85 L55.5986 1159.51 L55.5986 1155.25 L63.8624 1153.59 L68.5383 1153.59 L68.5383 1184.21 L76.1772 1184.21 L76.1772 1188.15 L56.2699 1188.15 L56.2699 1184.21 Z" fill="#000000" fill-rule="nonzero" fill-opacity="1" /><path clip-path="url(#clip120)" d="M59.8578 958.012 L76.1772 958.012 L76.1772 961.948 L54.2328 961.948 L54.2328 958.012 Q56.8949 955.258 61.4782 950.628 Q66.0846 945.975 67.2652 944.633 Q69.5105 942.11 70.3902 940.374 Q71.2929 938.614 71.2929 936.925 Q71.2929 934.17 69.3485 932.434 Q67.4272 930.698 64.3254 930.698 Q62.1263 930.698 59.6726 931.462 Q57.2421 932.226 54.4643 933.776 L54.4643 929.054 Q57.2884 927.92 59.7421 927.341 Q62.1958 926.763 64.2328 926.763 Q69.6031 926.763 72.7976 929.448 Q75.992 932.133 75.992 936.624 Q75.992 938.753 75.1818 940.675 Q74.3948 942.573 72.2883 945.165 Q71.7096 945.837 68.6078 949.054 Q65.5059 952.249 59.8578 958.012 Z" fill="#000000" fill-rule="nonzero" fill-opacity="1" /><path clip-path="url(#clip120)" d="M69.0476 717.115 Q72.404 717.832 74.279 720.101 Q76.1772 722.369 76.1772 725.703 Q76.1772 730.818 72.6587 733.619 Q69.1402 736.42 62.6587 736.42 Q60.4828 736.42 58.168 735.98 Q55.8764 735.564 53.4227 734.707 L53.4227 730.193 Q55.3671 731.328 57.6819 731.906 Q59.9967 732.485 62.5198 732.485 Q66.918 732.485 69.2096 730.749 Q71.5244 729.013 71.5244 725.703 Q71.5244 722.647 69.3717 720.934 Q67.242 719.198 63.4226 719.198 L59.3949 719.198 L59.3949 715.355 L63.6078 715.355 Q67.0569 715.355 68.8855 713.99 Q70.7142 712.601 70.7142 710.008 Q70.7142 707.346 68.8161 705.934 Q66.9411 704.499 63.4226 704.499 Q61.5013 704.499 59.3023 704.916 Q57.1032 705.332 54.4643 706.212 L54.4643 702.045 Q57.1264 701.305 59.4412 700.934 Q61.7791 700.564 63.8393 700.564 Q69.1633 700.564 72.2652 702.994 Q75.367 705.402 75.367 709.522 Q75.367 712.392 73.7235 714.383 Q72.08 716.351 69.0476 717.115 Z" fill="#000000" fill-rule="nonzero" fill-opacity="1" /><path clip-path="url(#clip120)" d="M66.5939 479.064 L54.7884 497.513 L66.5939 497.513 L66.5939 479.064 M65.367 474.99 L71.2466 474.99 L71.2466 497.513 L76.1772 497.513 L76.1772 501.402 L71.2466 501.402 L71.2466 509.55 L66.5939 509.55 L66.5939 501.402 L50.9921 501.402 L50.9921 496.888 L65.367 474.99 Z" fill="#000000" fill-rule="nonzero" fill-opacity="1" /><path clip-path="url(#clip120)" d="M55.2745 248.791 L73.6309 248.791 L73.6309 252.726 L59.5569 252.726 L59.5569 261.199 Q60.5754 260.851 61.5939 260.689 Q62.6124 260.504 63.6309 260.504 Q69.418 260.504 72.7976 263.675 Q76.1772 266.847 76.1772 272.263 Q76.1772 277.842 72.705 280.944 Q69.2328 284.023 62.9134 284.023 Q60.7374 284.023 58.4689 283.652 Q56.2236 283.282 53.8162 282.541 L53.8162 277.842 Q55.8995 278.976 58.1217 279.532 Q60.3439 280.087 62.8208 280.087 Q66.8254 280.087 69.1633 277.981 Q71.5013 275.874 71.5013 272.263 Q71.5013 268.652 69.1633 266.546 Q66.8254 264.439 62.8208 264.439 Q60.9458 264.439 59.0708 264.856 Q57.2189 265.273 55.2745 266.152 L55.2745 248.791 Z" fill="#000000" fill-rule="nonzero" fill-opacity="1" /><polyline clip-path="url(#clip122)" style="stroke:#009af9; stroke-linecap:round; stroke-linejoin:round; stroke-width:8; stroke-opacity:1; fill:none" points="112.177,1351.83 112.47,1349.46 112.743,1353.51 113.049,1351.82 113.394,1352.07 113.782,1351.48 114.218,1349.67 114.709,1347.67 115.261,1347.23 115.882,1344.49 116.581,1345.51 117.367,1349.07 118.252,1348.78 119.247,1350.34 120.367,1345.34 121.626,1342.52 123.043,1333.33 124.637,1331.12 126.43,1327.43 128.447,1324.41 130.717,1321.44 133.27,1326.61 136.143,1329.7 139.374,1323.99 143.009,1321.07 147.099,1315.2 151.7,1312.26 156.876,1296.87 162.7,1313.08 168.064,1303.37 174.1,1315.18 179.924,1302.99 186.476,1262.12 193.847,1236.68 202.14,1199.61 211.425,1189.53 219.401,1175.73 228.301,1191.3 236.883,1224.73 244.562,1246.32 253.2,1219.68 262.918,1234.48 270.485,1229.66 278.997,1209.01 288.573,1201.67 297.017,1196.47 305.485,1216.65 314.102,1243.28 322.557,1285.17 331.583,1313.18 340.521,1326.12 350.504,1352.55 361.735,1361.69 372.75,1357.03 385.141,1354.8 398.687,1353.56 413.631,1365.88 426.533,1373.66 441.047,1367.18 457.375,1358.78 475.744,1355.39 491.845,1349.56 509.958,1364.08 519.856,1355.65 530.991,1384.24 543.518,1379.47 557.612,1380.26 570.477,1376.44 584.951,1374.86 601.234,1376.51 617.092,1376.42 634.932,1376.27 655.002,1380.1 675.231,1378.03 697.988,1376.09 721.702,1370.36 748.38,1363.64 778.393,1340.81 812.158,1318.86 832.807,1231.61 846.381,1228.54 860.624,1227.43 874.993,1204.14 889.706,1235.25 901.225,1221.36 914.184,1064.45 925.478,1008.23 934.62,1168.16 944.905,1150.25 954.147,1076.92 964.544,1017.64 974.158,1036.15 981.838,1060.83 989.684,971.576 998.51,1001.18 1005.15,1035.09 1011.76,1116.21 1018.27,1151.18 1025.2,1153.86 1032.67,1128.05 1040.82,1088.15 1049.01,1031.17 1057.23,991.001 1064.71,1072.87 1071.04,1104.33 1077.98,1176.67 1084.54,1195.41 1091.92,1238.4 1098.96,1252.17 1106.88,1266.98 1114.72,1257.45 1123.53,1266.44 1131.94,1267.41 1141.03,1254.47 1151.26,1270.44 1160.36,1224.67 1170.59,1230.88 1178.9,1261.46 1187.2,1286.02 1196.37,1293.79 1206.14,1307.44 1216.24,1340.33 1227.6,1353.23 1239.72,1334.08 1253.36,1344.39 1263.18,1341.94 1274.23,1318.25 1286.66,1319.43 1296.98,1277.83 1308.59,1223.13 1319.79,1270.64 1328.61,1261.48 1338.54,1276.1 1347.2,1266.7 1356.94,1264.97 1366.12,1244.45 1376.45,1133.06 1385.23,1141.28 1393.16,1166 1400.54,1125.76 1408.84,1084.55 1416.22,1109.72 1422.79,1098.24 1429.6,1123.66 1435.78,1184.58 1442.04,1169.69 1448.95,1167.92 1455.4,1189.13 1461.68,1236.48 1468.07,1199.78 1475.25,1241.19 1481.29,1256.79 1488.09,1210.47 1495.67,1063.92 1501.18,953.315 1506.02,948.005 1510.38,857.36 1514.33,892.944 1517.92,913.574 1521.42,924.906 1521.61,917.42 1522.7,1137.44 1525.97,1261.21 1529.64,1281.38 1533.7,1264.9 1538.26,1247.5 1543.4,1269.3 1548.08,1233.8 1553.36,1218.51 1559.03,1202.03 1565.34,1168.06 1572.13,1223.26 1578.06,1198.89 1584.73,1150.33 1591.54,1097.35 1598.26,1104.64 1604.32,1002.95 1610.88,1030.28 1616.31,1130.47 1622.32,1175.13 1628.12,1175.49 1634.62,1164.18 1641.25,1043.86 1647.58,1001.11 1653.37,1040.03 1658.64,1036.41 1664.09,935.321 1669.23,1004.49 1673.76,989.505 1678.56,969.403 1683.06,877.506 1687.38,905.598 1691.15,992.415 1694.98,1011.04 1698.88,1053.67 1702.69,1095.84 1706.62,1103.75 1710.72,1060.99 1714.86,1057.18 1718.76,1085.14 1722.63,1068.96 1726.62,1087.46 1728.92,1092.5 1732.71,1195.4 1736.98,1176.91 1741.4,1195.89 1745.85,1126.76 1750.86,1183.86 1755.34,1138.13 1760.38,1126.08 1765.16,1140.82 1769.95,1133.32 1775,1139.02 1779.93,1112.16 1785.11,1026.4 1790.01,1001.49 1794.43,1057.83 1798.61,1083.13 1802.9,1141.02 1807.19,1153.42 1811.74,1132.27 1816.38,1151.76 1820.78,1190.91 1823.07,1200.74 1827.64,1288.62 1832.79,1284.76 1838.58,1256.68 1845.09,1218.32 1852.42,1165.75 1860.42,1161.18 1866.89,1052.9 1874.17,919.532 1881.94,964.022 1887.9,1076.17 1894.44,1028.78 1901.8,984.708 1908.64,974.892 1915.07,941.498 1922.25,941.617 1928.5,818.182 1935.53,910.693 1941.1,933.107 1947.24,921.023 1953.63,928.099 1959.83,1035.45 1965.78,958.143 1972.48,909.631 1978.87,924.517 1984.93,914.41 1991.08,997.397 1996.58,998.4 2002.77,922.215 2009.4,921.287 2012.12,816.962 2015.18,1086.18 2018.62,1118.53 2022.06,1033.06 2025.94,950.099 2030.24,701.784 2033.75,803.067 2037.5,720.345 2041.73,698.326 2045.74,552.231 2049.97,561.333 2053.79,531.34 2057.75,578.755 2061.48,645.693 2065.24,629.84 2069.14,670.368 2072.9,595.053 2076.85,467.692 2080.58,349.009 2084.06,298.318 2087.31,226.414 2090.38,221.008 2093.23,136.532 2096.02,287.889 2098.63,205.933 2101.2,86.2004 2103.6,127.502 2105.83,178.297 2108.01,86.1857 2110.13,207.947 2112.16,196.157 2114.17,230.129 2116.11,236.603 2118.01,214.344 2119.87,317.689 2121.66,363.715 2123.48,345.35 2125.29,419.39 2127.05,417.623 2128.84,330.165 2130.57,322.757 2132.23,388.165 2133.87,409.423 2135.49,524.46 2137.12,523.277 2138.78,511.734 2140.41,545.533 2142.03,540.685 2143.65,534.516 2145.22,578.403 2146.26,639.609 2147.84,1021.73 2149.61,1016.9 2151.57,990.959 2153.71,931.626 2155.89,959.422 2158.08,957.424 2160.16,1029.75 2162.49,1215.31 2165.12,1191.27 2168.08,1189.42 2171.4,1178.38 2175.14,1183.32 2179.13,1190.33 2183.62,1192.64 2188.53,1152.36 2194.06,1130.18 2199.63,1137.62 2205.13,1101.09 2211.31,981.413 2217.12,960.048 2222.44,909.622 2227.76,825.301 2232.71,784.627 2237.21,780.718 2241.44,891.894 2245.46,913.385 2249.61,891.501 2253.72,915.728 2257.61,995.965 2261.52,982.336 2265.67,965.716 2269.68,1006.89 2273.57,909.11 2277.65,861.615 2281.26,794.12 2284.82,744.813 2287.99,830.363 2291.02,823.501 2294.06,865.216 2296.94,889.337 2299.84,892.618 2302.68,917.055 2305.48,927.524 2308.27,892.194 2309.65,915.91 2312.43,1196.74 2315.54,1170.84 2319.05,1156.7 2323,1107.38 2327.44,1099.23 2331.72,1128.96 2336.11,1177.08 2341.02,1185.97 2346.53,1165.39 2352.73,1200 2352.76,1200.09 "/>
<path clip-path="url(#clip120)" d="M186.863 196.789 L500.018 196.789 L500.018 93.1086 L186.863 93.1086  Z" fill="#ffffff" fill-rule="evenodd" fill-opacity="1"/>
<polyline clip-path="url(#clip120)" style="stroke:#000000; stroke-linecap:round; stroke-linejoin:round; stroke-width:4; stroke-opacity:1; fill:none" points="186.863,196.789 500.018,196.789 500.018,93.1086 186.863,93.1086 186.863,196.789 "/>
<polyline clip-path="url(#clip120)" style="stroke:#009af9; stroke-linecap:round; stroke-linejoin:round; stroke-width:8; stroke-opacity:1; fill:none" points="211.758,144.949 361.13,144.949 "/>
<path clip-path="url(#clip120)" d="M386.026 151.997 L386.026 136.303 L390.285 136.303 L390.285 151.835 Q390.285 155.516 391.72 157.368 Q393.155 159.196 396.026 159.196 Q399.475 159.196 401.465 156.997 Q403.479 154.798 403.479 151.002 L403.479 136.303 L407.739 136.303 L407.739 162.229 L403.479 162.229 L403.479 158.247 Q401.928 160.608 399.868 161.766 Q397.831 162.9 395.123 162.9 Q390.655 162.9 388.34 160.122 Q386.026 157.344 386.026 151.997 M396.743 135.678 L396.743 135.678 Z" fill="#000000" fill-rule="nonzero" fill-opacity="1" /><path clip-path="url(#clip120)" d="M416.118 126.21 L425.933 126.21 L425.933 129.52 L420.377 129.52 L420.377 165.168 L425.933 165.168 L425.933 168.479 L416.118 168.479 L416.118 126.21 Z" fill="#000000" fill-rule="nonzero" fill-opacity="1" /><path clip-path="url(#clip120)" d="M436.419 158.293 L444.058 158.293 L444.058 131.928 L435.748 133.595 L435.748 129.335 L444.011 127.669 L448.687 127.669 L448.687 158.293 L456.326 158.293 L456.326 162.229 L436.419 162.229 L436.419 158.293 Z" fill="#000000" fill-rule="nonzero" fill-opacity="1" /><path clip-path="url(#clip120)" d="M475.122 126.21 L475.122 168.479 L465.308 168.479 L465.308 165.168 L470.84 165.168 L470.84 129.52 L465.308 129.52 L465.308 126.21 L475.122 126.21 Z" fill="#000000" fill-rule="nonzero" fill-opacity="1" /></svg>
