<?xml version="1.0" encoding="utf-8"?>
<svg xmlns="http://www.w3.org/2000/svg" xmlns:xlink="http://www.w3.org/1999/xlink" width="600" height="400" viewBox="0 0 2400 1600">
<defs>
  <clipPath id="clip060">
    <rect x="0" y="0" width="2400" height="1600"/>
  </clipPath>
</defs>
<path clip-path="url(#clip060)" d="M0 1600 L2400 1600 L2400 0 L0 0  Z" fill="#ffffff" fill-rule="evenodd" fill-opacity="1"/>
<defs>
  <clipPath id="clip061">
    <rect x="480" y="0" width="1681" height="1600"/>
  </clipPath>
</defs>
<path clip-path="url(#clip060)" d="M155.765 1423.18 L2352.76 1423.18 L2352.76 47.2441 L155.765 47.2441  Z" fill="#ffffff" fill-rule="evenodd" fill-opacity="1"/>
<defs>
  <clipPath id="clip062">
    <rect x="155" y="47" width="2198" height="1377"/>
  </clipPath>
</defs>
<polyline clip-path="url(#clip062)" style="stroke:#000000; stroke-linecap:round; stroke-linejoin:round; stroke-width:2; stroke-opacity:0.1; fill:none" points="155.765,1423.18 155.765,47.2441 "/>
<polyline clip-path="url(#clip062)" style="stroke:#000000; stroke-linecap:round; stroke-linejoin:round; stroke-width:2; stroke-opacity:0.1; fill:none" points="595.163,1423.18 595.163,47.2441 "/>
<polyline clip-path="url(#clip062)" style="stroke:#000000; stroke-linecap:round; stroke-linejoin:round; stroke-width:2; stroke-opacity:0.1; fill:none" points="1034.56,1423.18 1034.56,47.2441 "/>
<polyline clip-path="url(#clip062)" style="stroke:#000000; stroke-linecap:round; stroke-linejoin:round; stroke-width:2; stroke-opacity:0.1; fill:none" points="1473.96,1423.18 1473.96,47.2441 "/>
<polyline clip-path="url(#clip062)" style="stroke:#000000; stroke-linecap:round; stroke-linejoin:round; stroke-width:2; stroke-opacity:0.1; fill:none" points="1913.36,1423.18 1913.36,47.2441 "/>
<polyline clip-path="url(#clip062)" style="stroke:#000000; stroke-linecap:round; stroke-linejoin:round; stroke-width:2; stroke-opacity:0.1; fill:none" points="2352.76,1423.18 2352.76,47.2441 "/>
<polyline clip-path="url(#clip062)" style="stroke:#000000; stroke-linecap:round; stroke-linejoin:round; stroke-width:2; stroke-opacity:0.1; fill:none" points="155.765,1251.35 2352.76,1251.35 "/>
<polyline clip-path="url(#clip062)" style="stroke:#000000; stroke-linecap:round; stroke-linejoin:round; stroke-width:2; stroke-opacity:0.1; fill:none" points="155.765,1029.87 2352.76,1029.87 "/>
<polyline clip-path="url(#clip062)" style="stroke:#000000; stroke-linecap:round; stroke-linejoin:round; stroke-width:2; stroke-opacity:0.1; fill:none" points="155.765,808.398 2352.76,808.398 "/>
<polyline clip-path="url(#clip062)" style="stroke:#000000; stroke-linecap:round; stroke-linejoin:round; stroke-width:2; stroke-opacity:0.1; fill:none" points="155.765,586.921 2352.76,586.921 "/>
<polyline clip-path="url(#clip062)" style="stroke:#000000; stroke-linecap:round; stroke-linejoin:round; stroke-width:2; stroke-opacity:0.1; fill:none" points="155.765,365.444 2352.76,365.444 "/>
<polyline clip-path="url(#clip062)" style="stroke:#000000; stroke-linecap:round; stroke-linejoin:round; stroke-width:2; stroke-opacity:0.1; fill:none" points="155.765,143.967 2352.76,143.967 "/>
<polyline clip-path="url(#clip060)" style="stroke:#000000; stroke-linecap:round; stroke-linejoin:round; stroke-width:4; stroke-opacity:1; fill:none" points="155.765,1423.18 2352.76,1423.18 "/>
<polyline clip-path="url(#clip060)" style="stroke:#000000; stroke-linecap:round; stroke-linejoin:round; stroke-width:4; stroke-opacity:1; fill:none" points="155.765,1423.18 155.765,1404.28 "/>
<polyline clip-path="url(#clip060)" style="stroke:#000000; stroke-linecap:round; stroke-linejoin:round; stroke-width:4; stroke-opacity:1; fill:none" points="595.163,1423.18 595.163,1404.28 "/>
<polyline clip-path="url(#clip060)" style="stroke:#000000; stroke-linecap:round; stroke-linejoin:round; stroke-width:4; stroke-opacity:1; fill:none" points="1034.56,1423.18 1034.56,1404.28 "/>
<polyline clip-path="url(#clip060)" style="stroke:#000000; stroke-linecap:round; stroke-linejoin:round; stroke-width:4; stroke-opacity:1; fill:none" points="1473.96,1423.18 1473.96,1404.28 "/>
<polyline clip-path="url(#clip060)" style="stroke:#000000; stroke-linecap:round; stroke-linejoin:round; stroke-width:4; stroke-opacity:1; fill:none" points="1913.36,1423.18 1913.36,1404.28 "/>
<polyline clip-path="url(#clip060)" style="stroke:#000000; stroke-linecap:round; stroke-linejoin:round; stroke-width:4; stroke-opacity:1; fill:none" points="2352.76,1423.18 2352.76,1404.28 "/>
<path clip-path="url(#clip060)" d="M155.765 1454.1 Q152.154 1454.1 150.325 1457.66 Q148.52 1461.2 148.52 1468.33 Q148.52 1475.44 150.325 1479.01 Q152.154 1482.55 155.765 1482.55 Q159.399 1482.55 161.205 1479.01 Q163.033 1475.44 163.033 1468.33 Q163.033 1461.2 161.205 1457.66 Q159.399 1454.1 155.765 1454.1 M155.765 1450.39 Q161.575 1450.39 164.631 1455 Q167.709 1459.58 167.709 1468.33 Q167.709 1477.06 164.631 1481.67 Q161.575 1486.25 155.765 1486.25 Q149.955 1486.25 146.876 1481.67 Q143.821 1477.06 143.821 1468.33 Q143.821 1459.58 146.876 1455 Q149.955 1450.39 155.765 1450.39 Z" fill="#000000" fill-rule="nonzero" fill-opacity="1" /><path clip-path="url(#clip060)" d="M589.816 1481.64 L606.135 1481.64 L606.135 1485.58 L584.191 1485.58 L584.191 1481.64 Q586.853 1478.89 591.436 1474.26 Q596.043 1469.61 597.223 1468.27 Q599.469 1465.74 600.348 1464.01 Q601.251 1462.25 601.251 1460.56 Q601.251 1457.8 599.307 1456.07 Q597.385 1454.33 594.283 1454.33 Q592.084 1454.33 589.631 1455.09 Q587.2 1455.86 584.422 1457.41 L584.422 1452.69 Q587.246 1451.55 589.7 1450.97 Q592.154 1450.39 594.191 1450.39 Q599.561 1450.39 602.756 1453.08 Q605.95 1455.77 605.95 1460.26 Q605.95 1462.39 605.14 1464.31 Q604.353 1466.2 602.246 1468.8 Q601.668 1469.47 598.566 1472.69 Q595.464 1475.88 589.816 1481.64 Z" fill="#000000" fill-rule="nonzero" fill-opacity="1" /><path clip-path="url(#clip060)" d="M1037.57 1455.09 L1025.77 1473.54 L1037.57 1473.54 L1037.57 1455.09 M1036.34 1451.02 L1042.22 1451.02 L1042.22 1473.54 L1047.15 1473.54 L1047.15 1477.43 L1042.22 1477.43 L1042.22 1485.58 L1037.57 1485.58 L1037.57 1477.43 L1021.97 1477.43 L1021.97 1472.92 L1036.34 1451.02 Z" fill="#000000" fill-rule="nonzero" fill-opacity="1" /><path clip-path="url(#clip060)" d="M1474.36 1466.44 Q1471.22 1466.44 1469.36 1468.59 Q1467.54 1470.74 1467.54 1474.49 Q1467.54 1478.22 1469.36 1480.39 Q1471.22 1482.55 1474.36 1482.55 Q1477.51 1482.55 1479.34 1480.39 Q1481.19 1478.22 1481.19 1474.49 Q1481.19 1470.74 1479.34 1468.59 Q1477.51 1466.44 1474.36 1466.44 M1483.65 1451.78 L1483.65 1456.04 Q1481.89 1455.21 1480.08 1454.77 Q1478.3 1454.33 1476.54 1454.33 Q1471.91 1454.33 1469.46 1457.45 Q1467.03 1460.58 1466.68 1466.9 Q1468.05 1464.89 1470.11 1463.82 Q1472.17 1462.73 1474.64 1462.73 Q1479.85 1462.73 1482.86 1465.9 Q1485.89 1469.05 1485.89 1474.49 Q1485.89 1479.82 1482.74 1483.03 Q1479.6 1486.25 1474.36 1486.25 Q1468.37 1486.25 1465.2 1481.67 Q1462.03 1477.06 1462.03 1468.33 Q1462.03 1460.14 1465.92 1455.28 Q1469.8 1450.39 1476.36 1450.39 Q1478.11 1450.39 1479.9 1450.74 Q1481.7 1451.09 1483.65 1451.78 Z" fill="#000000" fill-rule="nonzero" fill-opacity="1" /><path clip-path="url(#clip060)" d="M1913.36 1469.17 Q1910.02 1469.17 1908.1 1470.95 Q1906.2 1472.73 1906.2 1475.86 Q1906.2 1478.98 1908.1 1480.77 Q1910.02 1482.55 1913.36 1482.55 Q1916.69 1482.55 1918.61 1480.77 Q1920.53 1478.96 1920.53 1475.86 Q1920.53 1472.73 1918.61 1470.95 Q1916.71 1469.17 1913.36 1469.17 M1908.68 1467.18 Q1905.67 1466.44 1903.98 1464.38 Q1902.32 1462.32 1902.32 1459.35 Q1902.32 1455.21 1905.26 1452.8 Q1908.22 1450.39 1913.36 1450.39 Q1918.52 1450.39 1921.46 1452.8 Q1924.4 1455.21 1924.4 1459.35 Q1924.4 1462.32 1922.71 1464.38 Q1921.04 1466.44 1918.06 1467.18 Q1921.44 1467.96 1923.31 1470.26 Q1925.21 1472.55 1925.21 1475.86 Q1925.21 1480.88 1922.13 1483.57 Q1919.08 1486.25 1913.36 1486.25 Q1907.64 1486.25 1904.56 1483.57 Q1901.51 1480.88 1901.51 1475.86 Q1901.51 1472.55 1903.4 1470.26 Q1905.3 1467.96 1908.68 1467.18 M1906.97 1459.79 Q1906.97 1462.48 1908.64 1463.98 Q1910.33 1465.49 1913.36 1465.49 Q1916.37 1465.49 1918.06 1463.98 Q1919.77 1462.48 1919.77 1459.79 Q1919.77 1457.11 1918.06 1455.6 Q1916.37 1454.1 1913.36 1454.1 Q1910.33 1454.1 1908.64 1455.6 Q1906.97 1457.11 1906.97 1459.79 Z" fill="#000000" fill-rule="nonzero" fill-opacity="1" /><path clip-path="url(#clip060)" d="M2327.44 1481.64 L2335.08 1481.64 L2335.08 1455.28 L2326.77 1456.95 L2326.77 1452.69 L2335.04 1451.02 L2339.71 1451.02 L2339.71 1481.64 L2347.35 1481.64 L2347.35 1485.58 L2327.44 1485.58 L2327.44 1481.64 Z" fill="#000000" fill-rule="nonzero" fill-opacity="1" /><path clip-path="url(#clip060)" d="M2366.8 1454.1 Q2363.18 1454.1 2361.36 1457.66 Q2359.55 1461.2 2359.55 1468.33 Q2359.55 1475.44 2361.36 1479.01 Q2363.18 1482.55 2366.8 1482.55 Q2370.43 1482.55 2372.23 1479.01 Q2374.06 1475.44 2374.06 1468.33 Q2374.06 1461.2 2372.23 1457.66 Q2370.43 1454.1 2366.8 1454.1 M2366.8 1450.39 Q2372.61 1450.39 2375.66 1455 Q2378.74 1459.58 2378.74 1468.33 Q2378.74 1477.06 2375.66 1481.67 Q2372.61 1486.25 2366.8 1486.25 Q2360.99 1486.25 2357.91 1481.67 Q2354.85 1477.06 2354.85 1468.33 Q2354.85 1459.58 2357.91 1455 Q2360.99 1450.39 2366.8 1450.39 Z" fill="#000000" fill-rule="nonzero" fill-opacity="1" /><path clip-path="url(#clip060)" d="M1253.32 1522.27 L1253.32 1532.4 L1265.38 1532.4 L1265.38 1536.95 L1253.32 1536.95 L1253.32 1556.3 Q1253.32 1560.66 1254.5 1561.9 Q1255.71 1563.14 1259.37 1563.14 L1265.38 1563.14 L1265.38 1568.04 L1259.37 1568.04 Q1252.59 1568.04 1250.01 1565.53 Q1247.43 1562.98 1247.43 1556.3 L1247.43 1536.95 L1243.14 1536.95 L1243.14 1532.4 L1247.43 1532.4 L1247.43 1522.27 L1253.32 1522.27 Z" fill="#000000" fill-rule="nonzero" fill-opacity="1" /><polyline clip-path="url(#clip060)" style="stroke:#000000; stroke-linecap:round; stroke-linejoin:round; stroke-width:4; stroke-opacity:1; fill:none" points="155.765,1423.18 155.765,47.2441 "/>
<polyline clip-path="url(#clip060)" style="stroke:#000000; stroke-linecap:round; stroke-linejoin:round; stroke-width:4; stroke-opacity:1; fill:none" points="155.765,1251.35 174.663,1251.35 "/>
<polyline clip-path="url(#clip060)" style="stroke:#000000; stroke-linecap:round; stroke-linejoin:round; stroke-width:4; stroke-opacity:1; fill:none" points="155.765,1029.87 174.663,1029.87 "/>
<polyline clip-path="url(#clip060)" style="stroke:#000000; stroke-linecap:round; stroke-linejoin:round; stroke-width:4; stroke-opacity:1; fill:none" points="155.765,808.398 174.663,808.398 "/>
<polyline clip-path="url(#clip060)" style="stroke:#000000; stroke-linecap:round; stroke-linejoin:round; stroke-width:4; stroke-opacity:1; fill:none" points="155.765,586.921 174.663,586.921 "/>
<polyline clip-path="url(#clip060)" style="stroke:#000000; stroke-linecap:round; stroke-linejoin:round; stroke-width:4; stroke-opacity:1; fill:none" points="155.765,365.444 174.663,365.444 "/>
<polyline clip-path="url(#clip060)" style="stroke:#000000; stroke-linecap:round; stroke-linejoin:round; stroke-width:4; stroke-opacity:1; fill:none" points="155.765,143.967 174.663,143.967 "/>
<path clip-path="url(#clip060)" d="M63.5847 1237.15 Q59.9736 1237.15 58.1449 1240.72 Q56.3393 1244.26 56.3393 1251.39 Q56.3393 1258.49 58.1449 1262.06 Q59.9736 1265.6 63.5847 1265.6 Q67.2189 1265.6 69.0244 1262.06 Q70.8531 1258.49 70.8531 1251.39 Q70.8531 1244.26 69.0244 1240.72 Q67.2189 1237.15 63.5847 1237.15 M63.5847 1233.45 Q69.3948 1233.45 72.4503 1238.05 Q75.529 1242.64 75.529 1251.39 Q75.529 1260.11 72.4503 1264.72 Q69.3948 1269.3 63.5847 1269.3 Q57.7745 1269.3 54.6958 1264.72 Q51.6403 1260.11 51.6403 1251.39 Q51.6403 1242.64 54.6958 1238.05 Q57.7745 1233.45 63.5847 1233.45 Z" fill="#000000" fill-rule="nonzero" fill-opacity="1" /><path clip-path="url(#clip060)" d="M83.7466 1262.75 L88.6308 1262.75 L88.6308 1268.63 L83.7466 1268.63 L83.7466 1262.75 Z" fill="#000000" fill-rule="nonzero" fill-opacity="1" /><path clip-path="url(#clip060)" d="M98.8622 1234.07 L117.219 1234.07 L117.219 1238.01 L103.145 1238.01 L103.145 1246.48 Q104.163 1246.13 105.182 1245.97 Q106.2 1245.78 107.219 1245.78 Q113.006 1245.78 116.385 1248.96 Q119.765 1252.13 119.765 1257.54 Q119.765 1263.12 116.293 1266.22 Q112.82 1269.3 106.501 1269.3 Q104.325 1269.3 102.057 1268.93 Q99.8113 1268.56 97.4039 1267.82 L97.4039 1263.12 Q99.4872 1264.26 101.709 1264.81 Q103.932 1265.37 106.408 1265.37 Q110.413 1265.37 112.751 1263.26 Q115.089 1261.16 115.089 1257.54 Q115.089 1253.93 112.751 1251.83 Q110.413 1249.72 106.408 1249.72 Q104.534 1249.72 102.659 1250.14 Q100.807 1250.55 98.8622 1251.43 L98.8622 1234.07 Z" fill="#000000" fill-rule="nonzero" fill-opacity="1" /><path clip-path="url(#clip060)" d="M53.3995 1043.22 L61.0384 1043.22 L61.0384 1016.85 L52.7282 1018.52 L52.7282 1014.26 L60.9921 1012.59 L65.668 1012.59 L65.668 1043.22 L73.3068 1043.22 L73.3068 1047.15 L53.3995 1047.15 L53.3995 1043.22 Z" fill="#000000" fill-rule="nonzero" fill-opacity="1" /><path clip-path="url(#clip060)" d="M82.7512 1041.28 L87.6354 1041.28 L87.6354 1047.15 L82.7512 1047.15 L82.7512 1041.28 Z" fill="#000000" fill-rule="nonzero" fill-opacity="1" /><path clip-path="url(#clip060)" d="M107.821 1015.67 Q104.209 1015.67 102.381 1019.24 Q100.575 1022.78 100.575 1029.91 Q100.575 1037.02 102.381 1040.58 Q104.209 1044.12 107.821 1044.12 Q111.455 1044.12 113.26 1040.58 Q115.089 1037.02 115.089 1029.91 Q115.089 1022.78 113.26 1019.24 Q111.455 1015.67 107.821 1015.67 M107.821 1011.97 Q113.631 1011.97 116.686 1016.58 Q119.765 1021.16 119.765 1029.91 Q119.765 1038.64 116.686 1043.24 Q113.631 1047.83 107.821 1047.83 Q102.01 1047.83 98.9317 1043.24 Q95.8761 1038.64 95.8761 1029.91 Q95.8761 1021.16 98.9317 1016.58 Q102.01 1011.97 107.821 1011.97 Z" fill="#000000" fill-rule="nonzero" fill-opacity="1" /><path clip-path="url(#clip060)" d="M54.3949 821.743 L62.0337 821.743 L62.0337 795.377 L53.7236 797.044 L53.7236 792.784 L61.9874 791.118 L66.6633 791.118 L66.6633 821.743 L74.3022 821.743 L74.3022 825.678 L54.3949 825.678 L54.3949 821.743 Z" fill="#000000" fill-rule="nonzero" fill-opacity="1" /><path clip-path="url(#clip060)" d="M83.7466 819.798 L88.6308 819.798 L88.6308 825.678 L83.7466 825.678 L83.7466 819.798 Z" fill="#000000" fill-rule="nonzero" fill-opacity="1" /><path clip-path="url(#clip060)" d="M98.8622 791.118 L117.219 791.118 L117.219 795.053 L103.145 795.053 L103.145 803.525 Q104.163 803.178 105.182 803.016 Q106.2 802.831 107.219 802.831 Q113.006 802.831 116.385 806.002 Q119.765 809.173 119.765 814.59 Q119.765 820.169 116.293 823.27 Q112.82 826.349 106.501 826.349 Q104.325 826.349 102.057 825.979 Q99.8113 825.608 97.4039 824.868 L97.4039 820.169 Q99.4872 821.303 101.709 821.858 Q103.932 822.414 106.408 822.414 Q110.413 822.414 112.751 820.307 Q115.089 818.201 115.089 814.59 Q115.089 810.979 112.751 808.872 Q110.413 806.766 106.408 806.766 Q104.534 806.766 102.659 807.183 Q100.807 807.599 98.8622 808.479 L98.8622 791.118 Z" fill="#000000" fill-rule="nonzero" fill-opacity="1" /><path clip-path="url(#clip060)" d="M56.6171 600.266 L72.9365 600.266 L72.9365 604.201 L50.9921 604.201 L50.9921 600.266 Q53.6541 597.511 58.2375 592.881 Q62.8439 588.229 64.0245 586.886 Q66.2698 584.363 67.1494 582.627 Q68.0522 580.868 68.0522 579.178 Q68.0522 576.423 66.1078 574.687 Q64.1865 572.951 61.0847 572.951 Q58.8856 572.951 56.4319 573.715 Q54.0014 574.479 51.2236 576.03 L51.2236 571.307 Q54.0477 570.173 56.5014 569.594 Q58.955 569.016 60.9921 569.016 Q66.3624 569.016 69.5568 571.701 Q72.7513 574.386 72.7513 578.877 Q72.7513 581.006 71.9411 582.928 Q71.1541 584.826 69.0476 587.418 Q68.4689 588.09 65.367 591.307 Q62.2652 594.502 56.6171 600.266 Z" fill="#000000" fill-rule="nonzero" fill-opacity="1" /><path clip-path="url(#clip060)" d="M82.7512 598.321 L87.6354 598.321 L87.6354 604.201 L82.7512 604.201 L82.7512 598.321 Z" fill="#000000" fill-rule="nonzero" fill-opacity="1" /><path clip-path="url(#clip060)" d="M107.821 572.719 Q104.209 572.719 102.381 576.284 Q100.575 579.826 100.575 586.955 Q100.575 594.062 102.381 597.627 Q104.209 601.168 107.821 601.168 Q111.455 601.168 113.26 597.627 Q115.089 594.062 115.089 586.955 Q115.089 579.826 113.26 576.284 Q111.455 572.719 107.821 572.719 M107.821 569.016 Q113.631 569.016 116.686 573.622 Q119.765 578.205 119.765 586.955 Q119.765 595.682 116.686 600.289 Q113.631 604.872 107.821 604.872 Q102.01 604.872 98.9317 600.289 Q95.8761 595.682 95.8761 586.955 Q95.8761 578.205 98.9317 573.622 Q102.01 569.016 107.821 569.016 Z" fill="#000000" fill-rule="nonzero" fill-opacity="1" /><path clip-path="url(#clip060)" d="M57.6125 378.788 L73.9318 378.788 L73.9318 382.724 L51.9875 382.724 L51.9875 378.788 Q54.6495 376.034 59.2328 371.404 Q63.8393 366.751 65.0198 365.409 Q67.2652 362.886 68.1448 361.15 Q69.0476 359.39 69.0476 357.701 Q69.0476 354.946 67.1032 353.21 Q65.1819 351.474 62.08 351.474 Q59.881 351.474 57.4273 352.238 Q54.9967 353.002 52.219 354.552 L52.219 349.83 Q55.043 348.696 57.4967 348.117 Q59.9504 347.539 61.9874 347.539 Q67.3578 347.539 70.5522 350.224 Q73.7466 352.909 73.7466 357.4 Q73.7466 359.529 72.9365 361.451 Q72.1494 363.349 70.0429 365.941 Q69.4642 366.613 66.3624 369.83 Q63.2606 373.025 57.6125 378.788 Z" fill="#000000" fill-rule="nonzero" fill-opacity="1" /><path clip-path="url(#clip060)" d="M83.7466 376.844 L88.6308 376.844 L88.6308 382.724 L83.7466 382.724 L83.7466 376.844 Z" fill="#000000" fill-rule="nonzero" fill-opacity="1" /><path clip-path="url(#clip060)" d="M98.8622 348.164 L117.219 348.164 L117.219 352.099 L103.145 352.099 L103.145 360.571 Q104.163 360.224 105.182 360.062 Q106.2 359.877 107.219 359.877 Q113.006 359.877 116.385 363.048 Q119.765 366.219 119.765 371.636 Q119.765 377.214 116.293 380.316 Q112.82 383.395 106.501 383.395 Q104.325 383.395 102.057 383.025 Q99.8113 382.654 97.4039 381.913 L97.4039 377.214 Q99.4872 378.349 101.709 378.904 Q103.932 379.46 106.408 379.46 Q110.413 379.46 112.751 377.353 Q115.089 375.247 115.089 371.636 Q115.089 368.025 112.751 365.918 Q110.413 363.812 106.408 363.812 Q104.534 363.812 102.659 364.228 Q100.807 364.645 98.8622 365.525 L98.8622 348.164 Z" fill="#000000" fill-rule="nonzero" fill-opacity="1" /><path clip-path="url(#clip060)" d="M66.7559 142.612 Q70.1124 143.33 71.9874 145.598 Q73.8855 147.867 73.8855 151.2 Q73.8855 156.316 70.367 159.117 Q66.8485 161.918 60.3671 161.918 Q58.1912 161.918 55.8764 161.478 Q53.5847 161.061 51.131 160.205 L51.131 155.691 Q53.0754 156.825 55.3903 157.404 Q57.7051 157.983 60.2282 157.983 Q64.6263 157.983 66.918 156.247 Q69.2328 154.51 69.2328 151.2 Q69.2328 148.145 67.08 146.432 Q64.9504 144.696 61.131 144.696 L57.1032 144.696 L57.1032 140.853 L61.3161 140.853 Q64.7652 140.853 66.5939 139.487 Q68.4226 138.099 68.4226 135.506 Q68.4226 132.844 66.5245 131.432 Q64.6495 129.997 61.131 129.997 Q59.2097 129.997 57.0106 130.413 Q54.8115 130.83 52.1727 131.71 L52.1727 127.543 Q54.8347 126.802 57.1495 126.432 Q59.4875 126.062 61.5476 126.062 Q66.8717 126.062 69.9735 128.492 Q73.0753 130.899 73.0753 135.02 Q73.0753 137.89 71.4318 139.881 Q69.7883 141.848 66.7559 142.612 Z" fill="#000000" fill-rule="nonzero" fill-opacity="1" /><path clip-path="url(#clip060)" d="M82.7512 155.367 L87.6354 155.367 L87.6354 161.247 L82.7512 161.247 L82.7512 155.367 Z" fill="#000000" fill-rule="nonzero" fill-opacity="1" /><path clip-path="url(#clip060)" d="M107.821 129.765 Q104.209 129.765 102.381 133.33 Q100.575 136.872 100.575 144.001 Q100.575 151.108 102.381 154.672 Q104.209 158.214 107.821 158.214 Q111.455 158.214 113.26 154.672 Q115.089 151.108 115.089 144.001 Q115.089 136.872 113.26 133.33 Q111.455 129.765 107.821 129.765 M107.821 126.062 Q113.631 126.062 116.686 130.668 Q119.765 135.251 119.765 144.001 Q119.765 152.728 116.686 157.335 Q113.631 161.918 107.821 161.918 Q102.01 161.918 98.9317 157.335 Q95.8761 152.728 95.8761 144.001 Q95.8761 135.251 98.9317 130.668 Q102.01 126.062 107.821 126.062 Z" fill="#000000" fill-rule="nonzero" fill-opacity="1" /><polyline clip-path="url(#clip062)" style="stroke:#009af9; stroke-linecap:round; stroke-linejoin:round; stroke-width:8; stroke-opacity:1; fill:none" points="155.765,1384.24 157.964,1383.35 160.163,1382.45 162.362,1381.54 164.562,1380.62 166.761,1379.69 168.96,1378.75 171.159,1377.81 173.358,1376.85 175.558,1375.89 177.757,1374.91 179.956,1373.93 182.155,1372.93 184.354,1371.93 186.554,1370.91 188.753,1369.89 190.952,1368.85 193.151,1367.8 195.35,1366.75 197.55,1365.68 199.749,1364.6 201.948,1363.51 204.147,1362.41 206.346,1361.3 208.545,1360.18 210.745,1359.05 212.944,1357.9 215.143,1356.75 217.342,1355.58 219.541,1354.4 221.741,1353.21 223.94,1352 226.139,1350.79 228.338,1349.56 230.537,1348.32 232.737,1347.07 234.936,1345.8 237.135,1344.53 239.334,1343.23 241.533,1341.93 243.733,1340.61 245.932,1339.28 248.131,1337.94 250.33,1336.58 252.529,1335.21 254.728,1333.83 256.928,1332.43 259.127,1331.02 261.326,1329.59 263.525,1328.15 265.724,1326.69 267.924,1325.22 270.123,1323.74 272.322,1322.24 274.521,1320.72 276.72,1319.19 278.92,1317.65 281.119,1316.09 283.318,1314.51 285.517,1312.92 287.716,1311.31 289.916,1309.68 292.115,1308.04 294.314,1306.39 296.513,1304.71 298.712,1303.02 300.911,1301.31 303.111,1299.59 305.31,1297.84 307.509,1296.08 309.708,1294.3 311.907,1292.51 314.107,1290.69 316.306,1288.86 318.505,1287.01 320.704,1285.14 322.903,1283.25 325.103,1281.35 327.302,1279.42 329.501,1277.47 331.7,1275.51 333.899,1273.52 336.099,1271.52 338.298,1269.49 340.497,1267.45 342.696,1265.38 344.895,1263.29 347.094,1261.19 349.294,1259.06 351.493,1256.91 353.692,1254.73 355.891,1252.54 358.09,1250.32 360.29,1248.09 362.489,1245.82 364.688,1243.54 366.887,1241.23 369.086,1238.9 371.286,1236.55 373.485,1234.17 375.684,1231.77 377.883,1229.35 380.082,1226.9 382.281,1224.42 384.481,1221.93 386.68,1219.4 388.879,1216.85 391.078,1214.28 393.277,1211.68 395.477,1209.05 397.676,1206.39 399.875,1203.71 402.074,1201.01 404.273,1198.27 406.473,1195.51 408.672,1192.72 410.871,1189.9 413.07,1187.06 415.269,1184.18 417.469,1181.28 419.668,1325.59 421.867,1324.1 424.066,1322.61 426.265,1321.1 428.464,1319.57 430.664,1318.03 432.863,1316.47 435.062,1314.9 437.261,1313.31 439.46,1311.71 441.66,1310.08 443.859,1308.45 446.058,1306.79 448.257,1305.12 450.456,1303.44 452.656,1301.73 454.855,1300.01 457.054,1298.27 459.253,1296.52 461.452,1294.74 463.652,1292.95 465.851,1291.14 468.05,1289.31 470.249,1287.47 472.448,1285.6 474.647,1283.72 476.847,1281.82 479.046,1279.89 481.245,1277.95 483.444,1275.99 485.643,1274.01 487.843,1272.01 490.042,1269.99 492.241,1267.95 494.44,1265.89 496.639,1263.81 498.839,1261.71 501.038,1259.58 503.237,1257.44 505.436,1255.27 507.635,1253.08 509.835,1250.87 512.034,1248.64 514.233,1246.38 516.432,1244.1 518.631,1241.8 520.83,1239.48 523.03,1237.13 525.229,1234.76 527.428,1232.36 529.627,1229.95 531.826,1227.5 534.026,1225.03 536.225,1222.54 538.424,1220.02 540.623,1217.48 542.822,1214.91 545.022,1212.32 547.221,1209.69 549.42,1207.05 551.619,1204.37 553.818,1201.67 556.018,1198.95 558.217,1196.19 560.416,1193.41 562.615,1190.6 564.814,1187.76 567.013,1184.89 569.213,1181.99 571.412,1179.07 573.611,1176.11 575.81,1173.13 578.009,1170.11 580.209,1167.07 582.408,1163.99 584.607,1160.88 586.806,1157.75 589.005,1154.58 591.205,1151.38 593.404,1148.14 595.603,1144.88 597.802,1141.58 600.001,1138.24 602.201,1134.88 604.4,1131.48 606.599,1128.05 608.798,1124.58 610.997,1121.07 613.196,1117.53 615.396,1113.96 617.595,1110.35 619.794,1106.7 621.993,1103.02 624.192,1099.3 626.392,1095.54 628.591,1091.74 630.79,1087.91 632.989,1084.04 635.188,1080.13 637.388,1076.17 639.587,1072.18 641.786,1068.15 643.985,1064.08 646.184,1059.97 648.384,1055.82 650.583,1051.62 652.782,1047.38 654.981,1043.1 657.18,1038.78 659.379,1034.41 661.579,1030 663.778,1025.55 665.977,1021.05 668.176,1016.5 670.375,1011.91 672.575,1007.27 674.774,1002.59 676.973,997.859 679.172,993.08 681.371,988.254 683.571,983.379 685.77,978.455 687.969,973.482 690.168,968.458 692.367,963.384 694.567,958.259 696.766,953.083 698.965,947.854 701.164,942.573 703.363,937.239 705.562,931.851 707.762,926.409 709.961,920.912 712.16,915.36 714.359,909.752 716.558,904.087 718.758,898.366 720.957,892.587 723.156,886.75 725.355,880.854 727.554,874.899 729.754,868.883 731.953,862.808 734.152,856.671 736.351,850.472 738.55,844.211 740.749,837.887 742.949,831.499 745.148,825.047 747.347,818.53 749.546,811.947 751.745,805.299 753.945,798.583 756.144,791.799 758.343,784.948 760.542,778.027 762.741,771.037 764.941,763.976 767.14,756.845 769.339,749.641 771.538,742.366 773.737,735.017 775.937,727.594 778.136,720.097 780.335,1092.68 782.534,1088.86 784.733,1084.99 786.932,1081.09 789.132,1077.15 791.331,1073.17 793.53,1069.15 795.729,1065.09 797.928,1060.98 800.128,1056.84 802.327,1052.66 804.526,1048.43 806.725,1044.16 808.924,1039.85 811.124,1035.49 813.323,1031.09 815.522,1026.65 817.721,1022.16 819.92,1017.63 822.12,1013.05 824.319,1008.42 826.518,1003.75 828.717,999.03 830.916,994.263 833.115,989.449 835.315,984.586 837.514,979.674 839.713,974.713 841.912,969.702 844.111,964.64 846.311,959.528 848.51,954.364 850.709,949.148 852.908,943.879 855.107,938.558 857.307,933.183 859.506,927.754 861.705,922.27 863.904,916.731 866.103,911.137 868.303,905.486 870.502,899.778 872.701,894.013 874.9,888.19 877.099,882.308 879.298,1174.6 881.498,1171.6 883.697,1168.57 885.896,1165.51 888.095,1162.42 890.294,1159.3 892.494,1156.14 894.693,1152.96 896.892,1149.74 899.091,1146.49 901.29,1143.2 903.49,1139.89 905.689,1136.54 907.888,1133.16 910.087,1129.74 912.286,1126.29 914.486,1122.8 916.685,1119.28 918.884,1115.72 921.083,1112.13 923.282,1108.5 925.481,1104.84 927.681,1101.14 929.88,1097.4 932.079,1093.62 934.278,1089.8 936.477,1085.95 938.677,1082.06 940.876,1078.13 943.075,1074.16 945.274,1070.15 947.473,1066.1 949.673,1062 951.872,1057.87 954.071,1053.7 956.27,1049.48 958.469,1045.22 960.669,1040.92 962.868,1036.57 965.067,1032.18 967.266,1027.75 969.465,1023.27 971.664,1018.75 973.864,1014.18 976.063,1009.57 978.262,1004.91 980.461,1000.2 982.66,995.445 984.86,990.642 987.059,985.791 989.258,980.892 991.457,975.942 993.656,1221.89 995.856,1346.1 998.055,1344.82 1000.25,1343.53 1002.45,1342.23 1004.65,1340.92 1006.85,1339.59 1009.05,1338.25 1011.25,1336.9 1013.45,1335.53 1015.65,1334.15 1017.85,1332.75 1020.05,1331.34 1022.25,1329.92 1024.45,1328.48 1026.64,1327.03 1028.84,1325.56 1031.04,1324.08 1033.24,1322.59 1035.44,1321.07 1037.64,1319.55 1039.84,1318.01 1042.04,1316.45 1044.24,1314.87 1046.44,1313.29 1048.64,1311.68 1050.84,1310.06 1053.03,1308.42 1055.23,1306.77 1057.43,1305.1 1059.63,1303.41 1061.83,1301.71 1064.03,1299.98 1066.23,1298.24 1068.43,1296.49 1070.63,1294.71 1072.83,1292.92 1075.03,1291.11 1077.23,1289.28 1079.42,1287.44 1081.62,1285.57 1083.82,1283.69 1086.02,1281.79 1088.22,1279.86 1090.42,1277.92 1092.62,1275.96 1094.82,1273.98 1097.02,1271.98 1099.22,1269.96 1101.42,1267.92 1103.62,1265.86 1105.82,1263.78 1108.01,1261.67 1110.21,1259.55 1112.41,1257.4 1114.61,1255.24 1116.81,1253.05 1119.01,1250.84 1121.21,1248.6 1123.41,1246.35 1125.61,1244.07 1127.81,1241.77 1130.01,1239.44 1132.21,1237.09 1134.4,1234.72 1136.6,1232.33 1138.8,1229.91 1141,1227.46 1143.2,1225 1145.4,1222.5 1147.6,1219.98 1149.8,1217.44 1152,1214.87 1154.2,1212.28 1156.4,1209.65 1158.6,1207.01 1160.79,1204.33 1162.99,1201.63 1165.19,1198.9 1167.39,1196.15 1169.59,1193.36 1171.79,1190.55 1173.99,1187.71 1176.19,1184.84 1178.39,1181.95 1180.59,1179.02 1182.79,1176.06 1184.99,1173.08 1187.19,1170.06 1189.38,1167.02 1191.58,1163.94 1193.78,1160.83 1195.98,1157.69 1198.18,1154.52 1200.38,1151.32 1202.58,1148.09 1204.78,1144.82 1206.98,1141.52 1209.18,1138.19 1211.38,1134.82 1213.58,1131.42 1215.77,1127.99 1217.97,1124.52 1220.17,1121.01 1222.37,1117.47 1224.57,1113.9 1226.77,1110.29 1228.97,1106.64 1231.17,1102.96 1233.37,1099.24 1235.57,1095.48 1237.77,1091.68 1239.97,1087.85 1242.16,1083.97 1244.36,1080.06 1246.56,1076.11 1248.76,1072.12 1250.96,1068.09 1253.16,1064.02 1255.36,1059.9 1257.56,1055.75 1259.76,1051.55 1261.96,1047.31 1264.16,1043.03 1266.36,1038.71 1268.56,1034.34 1270.75,1029.93 1272.95,1025.48 1275.15,1020.97 1277.35,1016.43 1279.55,1011.84 1281.75,1007.2 1283.95,1002.52 1286.15,997.784 1288.35,993.005 1290.55,988.178 1292.75,983.302 1294.95,978.378 1297.14,973.404 1299.34,968.379 1301.54,963.305 1303.74,958.179 1305.94,953.002 1308.14,947.772 1310.34,942.49 1312.54,937.155 1314.74,931.766 1316.94,926.323 1319.14,920.826 1321.34,915.272 1323.53,909.663 1325.73,903.998 1327.93,898.275 1330.13,892.495 1332.33,886.657 1334.53,880.76 1336.73,874.804 1338.93,868.787 1341.13,862.71 1343.33,856.572 1345.53,850.372 1347.73,844.11 1349.93,837.785 1352.12,831.396 1354.32,824.943 1356.52,818.425 1358.72,811.841 1360.92,805.191 1363.12,798.474 1365.32,791.689 1367.52,784.837 1369.72,777.915 1371.92,770.924 1374.12,763.863 1376.32,756.73 1378.51,749.526 1380.71,742.249 1382.91,734.899 1385.11,727.475 1387.31,719.977 1389.51,712.402 1391.71,704.752 1393.91,697.025 1396.11,689.22 1398.31,681.337 1400.51,673.374 1402.71,665.332 1404.9,657.208 1407.1,649.003 1409.3,640.715 1411.5,632.344 1413.7,623.889 1415.9,615.349 1418.1,606.723 1420.3,598.011 1422.5,589.21 1424.7,580.321 1426.9,571.343 1429.1,562.275 1431.3,553.115 1433.49,543.863 1435.69,534.518 1437.89,525.079 1440.09,515.545 1442.29,505.915 1444.49,496.188 1446.69,486.363 1448.89,476.439 1451.09,466.415 1453.29,456.291 1455.49,446.064 1457.69,435.735 1459.88,425.301 1462.08,414.763 1464.28,404.118 1466.48,393.366 1468.68,382.506 1470.88,371.537 1473.08,360.457 1475.28,349.266 1477.48,337.962 1479.68,326.544 1481.88,315.011 1484.08,303.363 1486.27,291.597 1488.47,279.712 1490.67,267.709 1492.87,255.584 1495.07,243.338 1497.27,230.968 1499.47,218.474 1501.67,205.855 1503.87,193.109 1506.07,180.235 1508.27,167.231 1510.47,813.462 1512.67,806.829 1514.86,800.129 1517.06,793.361 1519.26,1129.68 1521.46,1126.22 1523.66,1122.74 1525.86,1119.22 1528.06,1115.66 1530.26,1112.06 1532.46,1108.44 1534.66,1104.77 1536.86,1101.07 1539.06,1097.33 1541.25,1093.55 1543.45,1089.73 1545.65,1085.88 1547.85,1081.99 1550.05,1078.05 1552.25,1074.08 1554.45,1070.07 1556.65,1066.02 1558.85,1061.93 1561.05,1057.79 1563.25,1053.62 1565.45,1049.4 1567.65,1045.14 1569.84,1040.84 1572.04,1036.49 1574.24,1032.1 1576.44,1027.67 1578.64,1023.19 1580.84,1018.67 1583.04,1014.1 1585.24,1009.49 1587.44,1004.83 1589.64,1000.12 1591.84,995.363 1594.04,990.56 1596.23,985.708 1598.43,980.808 1600.63,975.858 1602.83,970.858 1605.03,965.808 1607.23,960.708 1609.43,955.556 1611.63,950.352 1613.83,945.095 1616.03,939.786 1618.23,934.423 1620.43,929.006 1622.62,923.535 1624.82,918.009 1627.02,912.427 1629.22,906.788 1631.42,901.094 1633.62,895.341 1635.82,889.531 1638.02,883.663 1640.22,877.735 1642.42,871.748 1644.62,865.7 1646.82,859.592 1649.02,853.423 1651.21,847.191 1653.41,840.897 1655.61,834.54 1657.81,828.118 1660.01,821.632 1662.21,815.081 1664.41,808.464 1666.61,801.78 1668.81,795.029 1671.01,788.21 1673.21,781.323 1675.41,774.366 1677.6,767.339 1679.8,760.242 1682,753.073 1684.2,745.832 1686.4,738.518 1688.6,731.131 1690.8,723.669 1693,716.133 1695.2,708.52 1697.4,1086.83 1699.6,1082.95 1701.8,1079.02 1703.99,1075.06 1706.19,1071.06 1708.39,1067.02 1710.59,1062.94 1712.79,1058.81 1714.99,1054.65 1717.19,1050.44 1719.39,1046.19 1721.59,1041.9 1723.79,1037.56 1725.99,1033.18 1728.19,1028.76 1730.39,1024.29 1732.58,1019.78 1734.78,1015.22 1736.98,1010.62 1739.18,1005.97 1741.38,1001.27 1743.58,996.531 1745.78,991.74 1747.98,986.901 1750.18,982.013 1752.38,977.076 1754.58,972.089 1756.78,967.052 1758.97,961.965 1761.17,956.826 1763.37,951.636 1765.57,946.393 1767.77,941.098 1769.97,935.749 1772.17,930.347 1774.37,924.89 1776.57,919.379 1778.77,913.811 1780.97,908.188 1783.17,902.508 1785.36,896.771 1787.56,890.977 1789.76,885.123 1791.96,879.211 1794.16,873.239 1796.36,867.208 1798.56,861.115 1800.76,854.961 1802.96,848.745 1805.16,842.466 1807.36,836.124 1809.56,829.719 1811.76,823.248 1813.95,816.713 1816.15,810.111 1818.35,803.443 1820.55,796.708 1822.75,789.906 1824.95,783.034 1827.15,776.094 1829.35,769.083 1831.55,762.003 1833.75,754.85 1835.95,747.626 1838.15,740.33 1840.34,732.959 1842.54,725.515 1844.74,717.996 1846.94,710.402 1849.14,702.731 1851.34,694.983 1853.54,687.158 1855.74,679.254 1857.94,671.27 1860.14,663.206 1862.34,655.061 1864.54,646.834 1866.73,638.524 1868.93,630.131 1871.13,1047.24 1873.33,1042.96 1875.53,1038.63 1877.73,1034.26 1879.93,1029.85 1882.13,1025.4 1884.33,1020.89 1886.53,1016.35 1888.73,1011.75 1890.93,1007.12 1893.13,1002.43 1895.32,997.697 1897.52,992.917 1899.72,988.089 1901.92,983.213 1904.12,978.288 1906.32,973.313 1908.52,968.288 1910.72,963.213 1912.92,958.086 1915.12,952.909 1917.32,947.679 1919.52,942.397 1921.71,937.061 1923.91,931.673 1926.11,926.23 1928.31,920.732 1930.51,915.179 1932.71,909.57 1934.91,903.905 1937.11,898.183 1939.31,892.403 1941.51,886.566 1943.71,880.669 1945.91,874.713 1948.1,868.698 1950.3,862.621 1952.5,856.484 1954.7,850.285 1956.9,844.023 1959.1,837.698 1961.3,831.31 1963.5,824.857 1965.7,818.34 1967.9,811.756 1970.1,805.106 1972.3,798.39 1974.5,791.605 1976.69,784.752 1978.89,777.83 1981.09,770.839 1983.29,763.777 1985.49,756.643 1987.69,749.438 1989.89,742.16 1992.09,734.809 1994.29,727.383 1996.49,719.883 1998.69,712.307 2000.89,704.655 2003.08,696.926 2005.28,689.119 2007.48,681.233 2009.68,673.267 2011.88,665.222 2014.08,657.095 2016.28,648.887 2018.48,640.596 2020.68,632.222 2022.88,623.763 2025.08,615.219 2027.28,606.59 2029.47,597.873 2031.67,589.07 2033.87,580.177 2036.07,571.196 2038.27,562.124 2040.47,552.961 2042.67,543.706 2044.87,534.359 2047.07,524.918 2049.27,515.381 2051.47,505.749 2053.67,496.02 2055.87,486.193 2058.06,476.267 2060.26,466.241 2062.46,456.115 2064.66,445.886 2066.86,435.555 2069.06,425.12 2071.26,414.58 2073.46,403.933 2075.66,393.18 2077.86,382.319 2080.06,371.348 2082.26,360.267 2084.45,349.074 2086.65,337.769 2088.85,326.35 2091.05,314.816 2093.25,303.167 2095.45,291.4 2097.65,279.514 2099.85,267.509 2102.05,255.383 2104.25,243.136 2106.45,230.764 2108.65,218.269 2110.84,205.648 2113.04,192.899 2115.24,180.023 2117.44,167.017 2119.64,153.88 2121.84,140.61 2124.04,127.208 2126.24,113.67 2128.44,99.9968 2130.64,86.1857 2132.84,772.578 2135.04,765.533 2137.24,758.418 2139.43,751.23 2141.63,743.971 2143.83,736.638 2146.03,729.232 2148.23,721.751 2150.43,714.195 2152.63,706.563 2154.83,698.854 2157.03,691.068 2159.23,683.203 2161.43,675.26 2163.63,667.236 2165.82,659.131 2168.02,650.945 2170.22,642.677 2172.42,634.325 2174.62,625.89 2176.82,617.369 2179.02,608.763 2181.22,600.07 2183.42,591.29 2185.62,582.422 2187.82,573.464 2190.02,564.416 2192.22,1014.06 2194.41,1009.45 2196.61,1004.78 2198.81,1000.08 2201.01,995.319 2203.21,990.515 2205.41,985.663 2207.61,980.761 2209.81,975.811 2212.01,970.811 2214.21,965.76 2216.41,960.659 2218.61,955.506 2220.8,950.302 2223,945.045 2225.2,939.736 2227.4,934.373 2229.6,928.956 2231.8,923.485 2234,917.959 2236.2,912.377 2238.4,906.739 2240.6,901.045 2242.8,895.293 2245,889.483 2247.19,883.615 2249.39,877.688 2251.59,871.702 2253.79,865.655 2255.99,859.547 2258.19,853.378 2260.39,847.147 2262.59,840.853 2264.79,834.496 2266.99,828.074 2269.19,821.589 2271.39,815.037 2273.59,808.42 2275.78,801.736 2277.98,794.985 2280.18,788.166 2282.38,781.279 2284.58,774.322 2286.78,767.294 2288.98,760.196 2291.18,753.027 2293.38,745.785 2295.58,738.471 2297.78,731.083 2299.98,723.62 2302.17,716.082 2304.37,708.468 2306.57,700.778 2308.77,693.01 2310.97,685.164 2313.17,677.24 2315.37,669.235 2317.57,661.15 2319.77,652.983 2321.97,644.735 2324.17,636.403 2326.37,627.988 2328.56,619.488 2330.76,610.902 2332.96,602.231 2335.16,593.472 2337.36,1028.73 2339.56,1024.26 2341.76,1019.75 2343.96,1015.19 2346.16,1010.59 2348.36,1005.94 2350.56,1001.24 2352.76,996.499 "/>
<path clip-path="url(#clip060)" d="M228.998 196.789 L537.794 196.789 L537.794 93.1086 L228.998 93.1086  Z" fill="#ffffff" fill-rule="evenodd" fill-opacity="1"/>
<polyline clip-path="url(#clip060)" style="stroke:#000000; stroke-linecap:round; stroke-linejoin:round; stroke-width:4; stroke-opacity:1; fill:none" points="228.998,196.789 537.794,196.789 537.794,93.1086 228.998,93.1086 228.998,196.789 "/>
<polyline clip-path="url(#clip060)" style="stroke:#009af9; stroke-linecap:round; stroke-linejoin:round; stroke-width:8; stroke-opacity:1; fill:none" points="253.409,144.949 399.875,144.949 "/>
<path clip-path="url(#clip060)" d="M424.286 151.997 L424.286 136.303 L428.545 136.303 L428.545 151.835 Q428.545 155.516 429.98 157.368 Q431.416 159.196 434.286 159.196 Q437.735 159.196 439.726 156.997 Q441.74 154.798 441.74 151.002 L441.74 136.303 L445.999 136.303 L445.999 162.229 L441.74 162.229 L441.74 158.247 Q440.189 160.608 438.129 161.766 Q436.092 162.9 433.383 162.9 Q428.916 162.9 426.601 160.122 Q424.286 157.344 424.286 151.997 M435.004 135.678 L435.004 135.678 Z" fill="#000000" fill-rule="nonzero" fill-opacity="1" /><path clip-path="url(#clip060)" d="M454.378 126.21 L464.193 126.21 L464.193 129.52 L458.638 129.52 L458.638 165.168 L464.193 165.168 L464.193 168.479 L454.378 168.479 L454.378 126.21 Z" fill="#000000" fill-rule="nonzero" fill-opacity="1" /><path clip-path="url(#clip060)" d="M474.679 158.293 L482.318 158.293 L482.318 131.928 L474.008 133.595 L474.008 129.335 L482.272 127.669 L486.948 127.669 L486.948 158.293 L494.587 158.293 L494.587 162.229 L474.679 162.229 L474.679 158.293 Z" fill="#000000" fill-rule="nonzero" fill-opacity="1" /><path clip-path="url(#clip060)" d="M513.383 126.21 L513.383 168.479 L503.568 168.479 L503.568 165.168 L509.1 165.168 L509.1 129.52 L503.568 129.52 L503.568 126.21 L513.383 126.21 Z" fill="#000000" fill-rule="nonzero" fill-opacity="1" /></svg>
