<?xml version="1.0" encoding="utf-8"?>
<svg xmlns="http://www.w3.org/2000/svg" xmlns:xlink="http://www.w3.org/1999/xlink" width="600" height="400" viewBox="0 0 2400 1600">
<defs>
  <clipPath id="clip000">
    <rect x="0" y="0" width="2400" height="1600"/>
  </clipPath>
</defs>
<path clip-path="url(#clip000)" d="M0 1600 L2400 1600 L2400 0 L0 0  Z" fill="#ffffff" fill-rule="evenodd" fill-opacity="1"/>
<defs>
  <clipPath id="clip001">
    <rect x="480" y="0" width="1681" height="1600"/>
  </clipPath>
</defs>
<path clip-path="url(#clip000)" d="M155.765 1423.18 L2352.76 1423.18 L2352.76 47.2441 L155.765 47.2441  Z" fill="#ffffff" fill-rule="evenodd" fill-opacity="1"/>
<defs>
  <clipPath id="clip002">
    <rect x="155" y="47" width="2198" height="1377"/>
  </clipPath>
</defs>
<polyline clip-path="url(#clip002)" style="stroke:#000000; stroke-linecap:round; stroke-linejoin:round; stroke-width:2; stroke-opacity:0.1; fill:none" points="155.765,1423.18 155.765,47.2441 "/>
<polyline clip-path="url(#clip002)" style="stroke:#000000; stroke-linecap:round; stroke-linejoin:round; stroke-width:2; stroke-opacity:0.1; fill:none" points="595.163,1423.18 595.163,47.2441 "/>
<polyline clip-path="url(#clip002)" style="stroke:#000000; stroke-linecap:round; stroke-linejoin:round; stroke-width:2; stroke-opacity:0.1; fill:none" points="1034.56,1423.18 1034.56,47.2441 "/>
<polyline clip-path="url(#clip002)" style="stroke:#000000; stroke-linecap:round; stroke-linejoin:round; stroke-width:2; stroke-opacity:0.1; fill:none" points="1473.96,1423.18 1473.96,47.2441 "/>
<polyline clip-path="url(#clip002)" style="stroke:#000000; stroke-linecap:round; stroke-linejoin:round; stroke-width:2; stroke-opacity:0.1; fill:none" points="1913.36,1423.18 1913.36,47.2441 "/>
<polyline clip-path="url(#clip002)" style="stroke:#000000; stroke-linecap:round; stroke-linejoin:round; stroke-width:2; stroke-opacity:0.1; fill:none" points="2352.76,1423.18 2352.76,47.2441 "/>
<polyline clip-path="url(#clip002)" style="stroke:#000000; stroke-linecap:round; stroke-linejoin:round; stroke-width:2; stroke-opacity:0.1; fill:none" points="155.765,1238.54 2352.76,1238.54 "/>
<polyline clip-path="url(#clip002)" style="stroke:#000000; stroke-linecap:round; stroke-linejoin:round; stroke-width:2; stroke-opacity:0.1; fill:none" points="155.765,1043.81 2352.76,1043.81 "/>
<polyline clip-path="url(#clip002)" style="stroke:#000000; stroke-linecap:round; stroke-linejoin:round; stroke-width:2; stroke-opacity:0.1; fill:none" points="155.765,849.085 2352.76,849.085 "/>
<polyline clip-path="url(#clip002)" style="stroke:#000000; stroke-linecap:round; stroke-linejoin:round; stroke-width:2; stroke-opacity:0.1; fill:none" points="155.765,654.358 2352.76,654.358 "/>
<polyline clip-path="url(#clip002)" style="stroke:#000000; stroke-linecap:round; stroke-linejoin:round; stroke-width:2; stroke-opacity:0.1; fill:none" points="155.765,459.632 2352.76,459.632 "/>
<polyline clip-path="url(#clip002)" style="stroke:#000000; stroke-linecap:round; stroke-linejoin:round; stroke-width:2; stroke-opacity:0.1; fill:none" points="155.765,264.905 2352.76,264.905 "/>
<polyline clip-path="url(#clip002)" style="stroke:#000000; stroke-linecap:round; stroke-linejoin:round; stroke-width:2; stroke-opacity:0.1; fill:none" points="155.765,70.1777 2352.76,70.1777 "/>
<polyline clip-path="url(#clip000)" style="stroke:#000000; stroke-linecap:round; stroke-linejoin:round; stroke-width:4; stroke-opacity:1; fill:none" points="155.765,1423.18 2352.76,1423.18 "/>
<polyline clip-path="url(#clip000)" style="stroke:#000000; stroke-linecap:round; stroke-linejoin:round; stroke-width:4; stroke-opacity:1; fill:none" points="155.765,1423.18 155.765,1404.28 "/>
<polyline clip-path="url(#clip000)" style="stroke:#000000; stroke-linecap:round; stroke-linejoin:round; stroke-width:4; stroke-opacity:1; fill:none" points="595.163,1423.18 595.163,1404.28 "/>
<polyline clip-path="url(#clip000)" style="stroke:#000000; stroke-linecap:round; stroke-linejoin:round; stroke-width:4; stroke-opacity:1; fill:none" points="1034.56,1423.18 1034.56,1404.28 "/>
<polyline clip-path="url(#clip000)" style="stroke:#000000; stroke-linecap:round; stroke-linejoin:round; stroke-width:4; stroke-opacity:1; fill:none" points="1473.96,1423.18 1473.96,1404.28 "/>
<polyline clip-path="url(#clip000)" style="stroke:#000000; stroke-linecap:round; stroke-linejoin:round; stroke-width:4; stroke-opacity:1; fill:none" points="1913.36,1423.18 1913.36,1404.28 "/>
<polyline clip-path="url(#clip000)" style="stroke:#000000; stroke-linecap:round; stroke-linejoin:round; stroke-width:4; stroke-opacity:1; fill:none" points="2352.76,1423.18 2352.76,1404.28 "/>
<path clip-path="url(#clip000)" d="M155.765 1454.1 Q152.154 1454.1 150.325 1457.66 Q148.52 1461.2 148.52 1468.33 Q148.52 1475.44 150.325 1479.01 Q152.154 1482.55 155.765 1482.55 Q159.399 1482.55 161.205 1479.01 Q163.033 1475.44 163.033 1468.33 Q163.033 1461.2 161.205 1457.66 Q159.399 1454.1 155.765 1454.1 M155.765 1450.39 Q161.575 1450.39 164.631 1455 Q167.709 1459.58 167.709 1468.33 Q167.709 1477.06 164.631 1481.67 Q161.575 1486.25 155.765 1486.25 Q149.955 1486.25 146.876 1481.67 Q143.821 1477.06 143.821 1468.33 Q143.821 1459.58 146.876 1455 Q149.955 1450.39 155.765 1450.39 Z" fill="#000000" fill-rule="nonzero" fill-opacity="1" /><path clip-path="url(#clip000)" d="M589.816 1481.64 L606.135 1481.64 L606.135 1485.58 L584.191 1485.58 L584.191 1481.64 Q586.853 1478.89 591.436 1474.26 Q596.043 1469.61 597.223 1468.27 Q599.469 1465.74 600.348 1464.01 Q601.251 1462.25 601.251 1460.56 Q601.251 1457.8 599.307 1456.07 Q597.385 1454.33 594.283 1454.33 Q592.084 1454.33 589.631 1455.09 Q587.2 1455.86 584.422 1457.41 L584.422 1452.69 Q587.246 1451.55 589.7 1450.97 Q592.154 1450.39 594.191 1450.39 Q599.561 1450.39 602.756 1453.08 Q605.95 1455.77 605.95 1460.26 Q605.95 1462.39 605.14 1464.31 Q604.353 1466.2 602.246 1468.8 Q601.668 1469.47 598.566 1472.69 Q595.464 1475.88 589.816 1481.64 Z" fill="#000000" fill-rule="nonzero" fill-opacity="1" /><path clip-path="url(#clip000)" d="M1037.57 1455.09 L1025.77 1473.54 L1037.57 1473.54 L1037.57 1455.09 M1036.34 1451.02 L1042.22 1451.02 L1042.22 1473.54 L1047.15 1473.54 L1047.15 1477.43 L1042.22 1477.43 L1042.22 1485.58 L1037.57 1485.58 L1037.57 1477.43 L1021.97 1477.43 L1021.97 1472.92 L1036.34 1451.02 Z" fill="#000000" fill-rule="nonzero" fill-opacity="1" /><path clip-path="url(#clip000)" d="M1474.36 1466.44 Q1471.22 1466.44 1469.36 1468.59 Q1467.54 1470.74 1467.54 1474.49 Q1467.54 1478.22 1469.36 1480.39 Q1471.22 1482.55 1474.36 1482.55 Q1477.51 1482.55 1479.34 1480.39 Q1481.19 1478.22 1481.19 1474.49 Q1481.19 1470.74 1479.34 1468.59 Q1477.51 1466.44 1474.36 1466.44 M1483.65 1451.78 L1483.65 1456.04 Q1481.89 1455.21 1480.08 1454.77 Q1478.3 1454.33 1476.54 1454.33 Q1471.91 1454.33 1469.46 1457.45 Q1467.03 1460.58 1466.68 1466.9 Q1468.05 1464.89 1470.11 1463.82 Q1472.17 1462.73 1474.64 1462.73 Q1479.85 1462.73 1482.86 1465.9 Q1485.89 1469.05 1485.89 1474.49 Q1485.89 1479.82 1482.74 1483.03 Q1479.6 1486.25 1474.36 1486.25 Q1468.37 1486.25 1465.2 1481.67 Q1462.03 1477.06 1462.03 1468.33 Q1462.03 1460.14 1465.92 1455.28 Q1469.8 1450.39 1476.36 1450.39 Q1478.11 1450.39 1479.9 1450.74 Q1481.7 1451.09 1483.65 1451.78 Z" fill="#000000" fill-rule="nonzero" fill-opacity="1" /><path clip-path="url(#clip000)" d="M1913.36 1469.17 Q1910.02 1469.17 1908.1 1470.95 Q1906.2 1472.73 1906.2 1475.86 Q1906.2 1478.98 1908.1 1480.77 Q1910.02 1482.55 1913.36 1482.55 Q1916.69 1482.55 1918.61 1480.77 Q1920.53 1478.96 1920.53 1475.86 Q1920.53 1472.73 1918.61 1470.95 Q1916.71 1469.17 1913.36 1469.17 M1908.68 1467.18 Q1905.67 1466.44 1903.98 1464.38 Q1902.32 1462.32 1902.32 1459.35 Q1902.32 1455.21 1905.26 1452.8 Q1908.22 1450.39 1913.36 1450.39 Q1918.52 1450.39 1921.46 1452.8 Q1924.4 1455.21 1924.4 1459.35 Q1924.4 1462.32 1922.71 1464.38 Q1921.04 1466.44 1918.06 1467.18 Q1921.44 1467.96 1923.31 1470.26 Q1925.21 1472.55 1925.21 1475.86 Q1925.21 1480.88 1922.13 1483.57 Q1919.08 1486.25 1913.36 1486.25 Q1907.64 1486.25 1904.56 1483.57 Q1901.51 1480.88 1901.51 1475.86 Q1901.51 1472.55 1903.4 1470.26 Q1905.3 1467.96 1908.68 1467.18 M1906.97 1459.79 Q1906.97 1462.48 1908.64 1463.98 Q1910.33 1465.49 1913.36 1465.49 Q1916.37 1465.49 1918.06 1463.98 Q1919.77 1462.48 1919.77 1459.79 Q1919.77 1457.11 1918.06 1455.6 Q1916.37 1454.1 1913.36 1454.1 Q1910.33 1454.1 1908.64 1455.6 Q1906.97 1457.11 1906.97 1459.79 Z" fill="#000000" fill-rule="nonzero" fill-opacity="1" /><path clip-path="url(#clip000)" d="M2327.44 1481.64 L2335.08 1481.64 L2335.08 1455.28 L2326.77 1456.95 L2326.77 1452.69 L2335.04 1451.02 L2339.71 1451.02 L2339.71 1481.64 L2347.35 1481.64 L2347.35 1485.58 L2327.44 1485.58 L2327.44 1481.64 Z" fill="#000000" fill-rule="nonzero" fill-opacity="1" /><path clip-path="url(#clip000)" d="M2366.8 1454.1 Q2363.18 1454.1 2361.36 1457.66 Q2359.55 1461.2 2359.55 1468.33 Q2359.55 1475.44 2361.36 1479.01 Q2363.18 1482.55 2366.8 1482.55 Q2370.43 1482.55 2372.23 1479.01 Q2374.06 1475.44 2374.06 1468.33 Q2374.06 1461.2 2372.23 1457.66 Q2370.43 1454.1 2366.8 1454.1 M2366.8 1450.39 Q2372.61 1450.39 2375.66 1455 Q2378.74 1459.58 2378.74 1468.33 Q2378.74 1477.06 2375.66 1481.67 Q2372.61 1486.25 2366.8 1486.25 Q2360.99 1486.25 2357.91 1481.67 Q2354.85 1477.06 2354.85 1468.33 Q2354.85 1459.58 2357.91 1455 Q2360.99 1450.39 2366.8 1450.39 Z" fill="#000000" fill-rule="nonzero" fill-opacity="1" /><path clip-path="url(#clip000)" d="M1253.32 1522.27 L1253.32 1532.4 L1265.38 1532.4 L1265.38 1536.95 L1253.32 1536.95 L1253.32 1556.3 Q1253.32 1560.66 1254.5 1561.9 Q1255.71 1563.14 1259.37 1563.14 L1265.38 1563.14 L1265.38 1568.04 L1259.37 1568.04 Q1252.59 1568.04 1250.01 1565.53 Q1247.43 1562.98 1247.43 1556.3 L1247.43 1536.95 L1243.14 1536.95 L1243.14 1532.4 L1247.43 1532.4 L1247.43 1522.27 L1253.32 1522.27 Z" fill="#000000" fill-rule="nonzero" fill-opacity="1" /><polyline clip-path="url(#clip000)" style="stroke:#000000; stroke-linecap:round; stroke-linejoin:round; stroke-width:4; stroke-opacity:1; fill:none" points="155.765,1423.18 155.765,47.2441 "/>
<polyline clip-path="url(#clip000)" style="stroke:#000000; stroke-linecap:round; stroke-linejoin:round; stroke-width:4; stroke-opacity:1; fill:none" points="155.765,1238.54 174.663,1238.54 "/>
<polyline clip-path="url(#clip000)" style="stroke:#000000; stroke-linecap:round; stroke-linejoin:round; stroke-width:4; stroke-opacity:1; fill:none" points="155.765,1043.81 174.663,1043.81 "/>
<polyline clip-path="url(#clip000)" style="stroke:#000000; stroke-linecap:round; stroke-linejoin:round; stroke-width:4; stroke-opacity:1; fill:none" points="155.765,849.085 174.663,849.085 "/>
<polyline clip-path="url(#clip000)" style="stroke:#000000; stroke-linecap:round; stroke-linejoin:round; stroke-width:4; stroke-opacity:1; fill:none" points="155.765,654.358 174.663,654.358 "/>
<polyline clip-path="url(#clip000)" style="stroke:#000000; stroke-linecap:round; stroke-linejoin:round; stroke-width:4; stroke-opacity:1; fill:none" points="155.765,459.632 174.663,459.632 "/>
<polyline clip-path="url(#clip000)" style="stroke:#000000; stroke-linecap:round; stroke-linejoin:round; stroke-width:4; stroke-opacity:1; fill:none" points="155.765,264.905 174.663,264.905 "/>
<polyline clip-path="url(#clip000)" style="stroke:#000000; stroke-linecap:round; stroke-linejoin:round; stroke-width:4; stroke-opacity:1; fill:none" points="155.765,70.1777 174.663,70.1777 "/>
<path clip-path="url(#clip000)" d="M63.5847 1224.34 Q59.9736 1224.34 58.1449 1227.9 Q56.3393 1231.44 56.3393 1238.57 Q56.3393 1245.68 58.1449 1249.25 Q59.9736 1252.79 63.5847 1252.79 Q67.2189 1252.79 69.0244 1249.25 Q70.8531 1245.68 70.8531 1238.57 Q70.8531 1231.44 69.0244 1227.9 Q67.2189 1224.34 63.5847 1224.34 M63.5847 1220.63 Q69.3948 1220.63 72.4503 1225.24 Q75.529 1229.82 75.529 1238.57 Q75.529 1247.3 72.4503 1251.91 Q69.3948 1256.49 63.5847 1256.49 Q57.7745 1256.49 54.6958 1251.91 Q51.6403 1247.3 51.6403 1238.57 Q51.6403 1229.82 54.6958 1225.24 Q57.7745 1220.63 63.5847 1220.63 Z" fill="#000000" fill-rule="nonzero" fill-opacity="1" /><path clip-path="url(#clip000)" d="M83.7466 1249.94 L88.6308 1249.94 L88.6308 1255.82 L83.7466 1255.82 L83.7466 1249.94 Z" fill="#000000" fill-rule="nonzero" fill-opacity="1" /><path clip-path="url(#clip000)" d="M98.8622 1221.26 L117.219 1221.26 L117.219 1225.19 L103.145 1225.19 L103.145 1233.67 Q104.163 1233.32 105.182 1233.16 Q106.2 1232.97 107.219 1232.97 Q113.006 1232.97 116.385 1236.14 Q119.765 1239.31 119.765 1244.73 Q119.765 1250.31 116.293 1253.41 Q112.82 1256.49 106.501 1256.49 Q104.325 1256.49 102.057 1256.12 Q99.8113 1255.75 97.4039 1255.01 L97.4039 1250.31 Q99.4872 1251.44 101.709 1252 Q103.932 1252.56 106.408 1252.56 Q110.413 1252.56 112.751 1250.45 Q115.089 1248.34 115.089 1244.73 Q115.089 1241.12 112.751 1239.01 Q110.413 1236.91 106.408 1236.91 Q104.534 1236.91 102.659 1237.32 Q100.807 1237.74 98.8622 1238.62 L98.8622 1221.26 Z" fill="#000000" fill-rule="nonzero" fill-opacity="1" /><path clip-path="url(#clip000)" d="M53.3995 1057.16 L61.0384 1057.16 L61.0384 1030.79 L52.7282 1032.46 L52.7282 1028.2 L60.9921 1026.53 L65.668 1026.53 L65.668 1057.16 L73.3068 1057.16 L73.3068 1061.09 L53.3995 1061.09 L53.3995 1057.16 Z" fill="#000000" fill-rule="nonzero" fill-opacity="1" /><path clip-path="url(#clip000)" d="M82.7512 1055.21 L87.6354 1055.21 L87.6354 1061.09 L82.7512 1061.09 L82.7512 1055.21 Z" fill="#000000" fill-rule="nonzero" fill-opacity="1" /><path clip-path="url(#clip000)" d="M107.821 1029.61 Q104.209 1029.61 102.381 1033.18 Q100.575 1036.72 100.575 1043.85 Q100.575 1050.95 102.381 1054.52 Q104.209 1058.06 107.821 1058.06 Q111.455 1058.06 113.26 1054.52 Q115.089 1050.95 115.089 1043.85 Q115.089 1036.72 113.26 1033.18 Q111.455 1029.61 107.821 1029.61 M107.821 1025.91 Q113.631 1025.91 116.686 1030.51 Q119.765 1035.1 119.765 1043.85 Q119.765 1052.57 116.686 1057.18 Q113.631 1061.76 107.821 1061.76 Q102.01 1061.76 98.9317 1057.18 Q95.8761 1052.57 95.8761 1043.85 Q95.8761 1035.1 98.9317 1030.51 Q102.01 1025.91 107.821 1025.91 Z" fill="#000000" fill-rule="nonzero" fill-opacity="1" /><path clip-path="url(#clip000)" d="M54.3949 862.43 L62.0337 862.43 L62.0337 836.065 L53.7236 837.731 L53.7236 833.472 L61.9874 831.805 L66.6633 831.805 L66.6633 862.43 L74.3022 862.43 L74.3022 866.365 L54.3949 866.365 L54.3949 862.43 Z" fill="#000000" fill-rule="nonzero" fill-opacity="1" /><path clip-path="url(#clip000)" d="M83.7466 860.486 L88.6308 860.486 L88.6308 866.365 L83.7466 866.365 L83.7466 860.486 Z" fill="#000000" fill-rule="nonzero" fill-opacity="1" /><path clip-path="url(#clip000)" d="M98.8622 831.805 L117.219 831.805 L117.219 835.741 L103.145 835.741 L103.145 844.213 Q104.163 843.866 105.182 843.704 Q106.2 843.518 107.219 843.518 Q113.006 843.518 116.385 846.69 Q119.765 849.861 119.765 855.278 Q119.765 860.856 116.293 863.958 Q112.82 867.037 106.501 867.037 Q104.325 867.037 102.057 866.666 Q99.8113 866.296 97.4039 865.555 L97.4039 860.856 Q99.4872 861.99 101.709 862.546 Q103.932 863.102 106.408 863.102 Q110.413 863.102 112.751 860.995 Q115.089 858.889 115.089 855.278 Q115.089 851.666 112.751 849.56 Q110.413 847.453 106.408 847.453 Q104.534 847.453 102.659 847.87 Q100.807 848.287 98.8622 849.166 L98.8622 831.805 Z" fill="#000000" fill-rule="nonzero" fill-opacity="1" /><path clip-path="url(#clip000)" d="M56.6171 667.703 L72.9365 667.703 L72.9365 671.638 L50.9921 671.638 L50.9921 667.703 Q53.6541 664.949 58.2375 660.319 Q62.8439 655.666 64.0245 654.324 Q66.2698 651.801 67.1494 650.065 Q68.0522 648.305 68.0522 646.615 Q68.0522 643.861 66.1078 642.125 Q64.1865 640.389 61.0847 640.389 Q58.8856 640.389 56.4319 641.153 Q54.0014 641.916 51.2236 643.467 L51.2236 638.745 Q54.0477 637.611 56.5014 637.032 Q58.955 636.453 60.9921 636.453 Q66.3624 636.453 69.5568 639.139 Q72.7513 641.824 72.7513 646.315 Q72.7513 648.444 71.9411 650.365 Q71.1541 652.264 69.0476 654.856 Q68.4689 655.527 65.367 658.745 Q62.2652 661.939 56.6171 667.703 Z" fill="#000000" fill-rule="nonzero" fill-opacity="1" /><path clip-path="url(#clip000)" d="M82.7512 665.759 L87.6354 665.759 L87.6354 671.638 L82.7512 671.638 L82.7512 665.759 Z" fill="#000000" fill-rule="nonzero" fill-opacity="1" /><path clip-path="url(#clip000)" d="M107.821 640.157 Q104.209 640.157 102.381 643.722 Q100.575 647.264 100.575 654.393 Q100.575 661.5 102.381 665.064 Q104.209 668.606 107.821 668.606 Q111.455 668.606 113.26 665.064 Q115.089 661.5 115.089 654.393 Q115.089 647.264 113.26 643.722 Q111.455 640.157 107.821 640.157 M107.821 636.453 Q113.631 636.453 116.686 641.06 Q119.765 645.643 119.765 654.393 Q119.765 663.12 116.686 667.726 Q113.631 672.31 107.821 672.31 Q102.01 672.31 98.9317 667.726 Q95.8761 663.12 95.8761 654.393 Q95.8761 645.643 98.9317 641.06 Q102.01 636.453 107.821 636.453 Z" fill="#000000" fill-rule="nonzero" fill-opacity="1" /><path clip-path="url(#clip000)" d="M57.6125 472.976 L73.9318 472.976 L73.9318 476.912 L51.9875 476.912 L51.9875 472.976 Q54.6495 470.222 59.2328 465.592 Q63.8393 460.939 65.0198 459.597 Q67.2652 457.074 68.1448 455.338 Q69.0476 453.578 69.0476 451.889 Q69.0476 449.134 67.1032 447.398 Q65.1819 445.662 62.08 445.662 Q59.881 445.662 57.4273 446.426 Q54.9967 447.189 52.219 448.74 L52.219 444.018 Q55.043 442.884 57.4967 442.305 Q59.9504 441.727 61.9874 441.727 Q67.3578 441.727 70.5522 444.412 Q73.7466 447.097 73.7466 451.588 Q73.7466 453.717 72.9365 455.639 Q72.1494 457.537 70.0429 460.129 Q69.4642 460.801 66.3624 464.018 Q63.2606 467.213 57.6125 472.976 Z" fill="#000000" fill-rule="nonzero" fill-opacity="1" /><path clip-path="url(#clip000)" d="M83.7466 471.032 L88.6308 471.032 L88.6308 476.912 L83.7466 476.912 L83.7466 471.032 Z" fill="#000000" fill-rule="nonzero" fill-opacity="1" /><path clip-path="url(#clip000)" d="M98.8622 442.352 L117.219 442.352 L117.219 446.287 L103.145 446.287 L103.145 454.759 Q104.163 454.412 105.182 454.25 Q106.2 454.064 107.219 454.064 Q113.006 454.064 116.385 457.236 Q119.765 460.407 119.765 465.824 Q119.765 471.402 116.293 474.504 Q112.82 477.583 106.501 477.583 Q104.325 477.583 102.057 477.212 Q99.8113 476.842 97.4039 476.101 L97.4039 471.402 Q99.4872 472.537 101.709 473.092 Q103.932 473.648 106.408 473.648 Q110.413 473.648 112.751 471.541 Q115.089 469.435 115.089 465.824 Q115.089 462.213 112.751 460.106 Q110.413 458 106.408 458 Q104.534 458 102.659 458.416 Q100.807 458.833 98.8622 459.713 L98.8622 442.352 Z" fill="#000000" fill-rule="nonzero" fill-opacity="1" /><path clip-path="url(#clip000)" d="M66.7559 263.55 Q70.1124 264.268 71.9874 266.537 Q73.8855 268.805 73.8855 272.138 Q73.8855 277.254 70.367 280.055 Q66.8485 282.856 60.3671 282.856 Q58.1912 282.856 55.8764 282.416 Q53.5847 281.999 51.131 281.143 L51.131 276.629 Q53.0754 277.763 55.3903 278.342 Q57.7051 278.921 60.2282 278.921 Q64.6263 278.921 66.918 277.185 Q69.2328 275.449 69.2328 272.138 Q69.2328 269.083 67.08 267.37 Q64.9504 265.634 61.131 265.634 L57.1032 265.634 L57.1032 261.791 L61.3161 261.791 Q64.7652 261.791 66.5939 260.425 Q68.4226 259.037 68.4226 256.444 Q68.4226 253.782 66.5245 252.37 Q64.6495 250.935 61.131 250.935 Q59.2097 250.935 57.0106 251.351 Q54.8115 251.768 52.1727 252.648 L52.1727 248.481 Q54.8347 247.74 57.1495 247.37 Q59.4875 247 61.5476 247 Q66.8717 247 69.9735 249.43 Q73.0753 251.838 73.0753 255.958 Q73.0753 258.828 71.4318 260.819 Q69.7883 262.787 66.7559 263.55 Z" fill="#000000" fill-rule="nonzero" fill-opacity="1" /><path clip-path="url(#clip000)" d="M82.7512 276.305 L87.6354 276.305 L87.6354 282.185 L82.7512 282.185 L82.7512 276.305 Z" fill="#000000" fill-rule="nonzero" fill-opacity="1" /><path clip-path="url(#clip000)" d="M107.821 250.703 Q104.209 250.703 102.381 254.268 Q100.575 257.81 100.575 264.939 Q100.575 272.046 102.381 275.611 Q104.209 279.152 107.821 279.152 Q111.455 279.152 113.26 275.611 Q115.089 272.046 115.089 264.939 Q115.089 257.81 113.26 254.268 Q111.455 250.703 107.821 250.703 M107.821 247 Q113.631 247 116.686 251.606 Q119.765 256.189 119.765 264.939 Q119.765 273.666 116.686 278.273 Q113.631 282.856 107.821 282.856 Q102.01 282.856 98.9317 278.273 Q95.8761 273.666 95.8761 264.939 Q95.8761 256.189 98.9317 251.606 Q102.01 247 107.821 247 Z" fill="#000000" fill-rule="nonzero" fill-opacity="1" /><path clip-path="url(#clip000)" d="M67.7513 68.8235 Q71.1078 69.5411 72.9827 71.8096 Q74.8809 74.0781 74.8809 77.4115 Q74.8809 82.5272 71.3624 85.3281 Q67.8439 88.129 61.3624 88.129 Q59.1865 88.129 56.8717 87.6892 Q54.5801 87.2725 52.1264 86.416 L52.1264 81.9022 Q54.0708 83.0364 56.3856 83.6151 Q58.7004 84.1938 61.2236 84.1938 Q65.6217 84.1938 67.9133 82.4577 Q70.2281 80.7216 70.2281 77.4115 Q70.2281 74.3559 68.0754 72.643 Q65.9457 70.9069 62.1263 70.9069 L58.0986 70.9069 L58.0986 67.0643 L62.3115 67.0643 Q65.7606 67.0643 67.5893 65.6986 Q69.418 64.3097 69.418 61.7171 Q69.418 59.0551 67.5198 57.643 Q65.6448 56.2079 62.1263 56.2079 Q60.205 56.2079 58.006 56.6245 Q55.8069 57.0412 53.168 57.9208 L53.168 53.7542 Q55.8301 53.0134 58.1449 52.6431 Q60.4828 52.2727 62.543 52.2727 Q67.867 52.2727 70.9689 54.7032 Q74.0707 57.1106 74.0707 61.231 Q74.0707 64.1013 72.4272 66.0921 Q70.7837 68.0597 67.7513 68.8235 Z" fill="#000000" fill-rule="nonzero" fill-opacity="1" /><path clip-path="url(#clip000)" d="M83.7466 81.5781 L88.6308 81.5781 L88.6308 87.4577 L83.7466 87.4577 L83.7466 81.5781 Z" fill="#000000" fill-rule="nonzero" fill-opacity="1" /><path clip-path="url(#clip000)" d="M98.8622 52.8977 L117.219 52.8977 L117.219 56.8329 L103.145 56.8329 L103.145 65.305 Q104.163 64.9578 105.182 64.7958 Q106.2 64.6106 107.219 64.6106 Q113.006 64.6106 116.385 67.7819 Q119.765 70.9532 119.765 76.3698 Q119.765 81.9485 116.293 85.0503 Q112.82 88.129 106.501 88.129 Q104.325 88.129 102.057 87.7586 Q99.8113 87.3883 97.4039 86.6475 L97.4039 81.9485 Q99.4872 83.0827 101.709 83.6383 Q103.932 84.1938 106.408 84.1938 Q110.413 84.1938 112.751 82.0874 Q115.089 79.9809 115.089 76.3698 Q115.089 72.7587 112.751 70.6522 Q110.413 68.5458 106.408 68.5458 Q104.534 68.5458 102.659 68.9624 Q100.807 69.3791 98.8622 70.2587 L98.8622 52.8977 Z" fill="#000000" fill-rule="nonzero" fill-opacity="1" /><polyline clip-path="url(#clip002)" style="stroke:#009af9; stroke-linecap:round; stroke-linejoin:round; stroke-width:8; stroke-opacity:1; fill:none" points="155.765,1355.38 157.964,1354.59 160.163,1353.8 162.362,1353 164.562,1352.19 166.761,1351.38 168.96,1350.55 171.159,1349.72 173.358,1348.88 175.558,1348.03 177.757,1347.17 179.956,1346.31 182.155,1345.43 184.354,1344.55 186.554,1343.66 188.753,1342.76 190.952,1341.85 193.151,1340.93 195.35,1340 197.55,1339.06 199.749,1338.11 201.948,1337.15 204.147,1336.19 206.346,1384.24 208.545,1383.75 210.745,1383.25 212.944,1382.74 215.143,1382.24 217.342,1381.72 219.541,1381.2 221.741,1380.68 223.94,1380.15 226.139,1379.62 228.338,1379.08 230.537,1378.53 232.737,1377.98 234.936,1377.42 237.135,1376.86 239.334,1376.3 241.533,1375.72 243.733,1375.14 245.932,1374.56 248.131,1373.97 250.33,1373.37 252.529,1372.77 254.728,1372.16 256.928,1371.55 259.127,1370.92 261.326,1370.3 263.525,1369.66 265.724,1369.02 267.924,1368.38 270.123,1367.72 272.322,1367.07 274.521,1366.4 276.72,1365.73 278.92,1365.05 281.119,1364.36 283.318,1363.67 285.517,1362.97 287.716,1362.26 289.916,1361.55 292.115,1360.82 294.314,1360.1 296.513,1359.36 298.712,1358.62 300.911,1357.87 303.111,1357.11 305.31,1356.34 307.509,1355.57 309.708,1354.78 311.907,1354 314.107,1353.2 316.306,1352.39 318.505,1351.58 320.704,1350.76 322.903,1349.93 325.103,1349.09 327.302,1348.24 329.501,1347.39 331.7,1346.52 333.899,1345.65 336.099,1344.77 338.298,1343.88 340.497,1342.98 342.696,1342.07 344.895,1341.15 347.094,1340.23 349.294,1339.29 351.493,1338.34 353.692,1337.39 355.891,1336.43 358.09,1335.45 360.29,1334.47 362.489,1333.47 364.688,1332.47 366.887,1331.45 369.086,1330.43 371.286,1329.4 373.485,1328.35 375.684,1327.3 377.883,1326.23 380.082,1325.15 382.281,1324.07 384.481,1322.97 386.68,1321.86 388.879,1320.74 391.078,1319.6 393.277,1318.46 395.477,1317.31 397.676,1316.14 399.875,1314.96 402.074,1313.77 404.273,1312.57 406.473,1311.35 408.672,1310.13 410.871,1308.89 413.07,1307.64 415.269,1306.37 417.469,1305.1 419.668,1303.81 421.867,1302.51 424.066,1301.19 426.265,1299.86 428.464,1298.52 430.664,1297.16 432.863,1295.79 435.062,1294.41 437.261,1293.01 439.46,1291.6 441.66,1290.18 443.859,1288.74 446.058,1287.28 448.257,1285.82 450.456,1284.33 452.656,1282.83 454.855,1281.32 457.054,1279.79 459.253,1278.25 461.452,1276.69 463.652,1275.11 465.851,1273.52 468.05,1271.92 470.249,1270.29 472.448,1268.65 474.647,1267 476.847,1265.32 479.046,1263.63 481.245,1261.93 483.444,1260.2 485.643,1258.46 487.843,1256.71 490.042,1254.93 492.241,1253.13 494.44,1251.32 496.639,1249.49 498.839,1247.64 501.038,1245.78 503.237,1243.89 505.436,1241.98 507.635,1240.06 509.835,1238.12 512.034,1236.15 514.233,1234.17 516.432,1232.17 518.631,1230.14 520.83,1228.1 523.03,1226.04 525.229,1223.95 527.428,1221.85 529.627,1219.72 531.826,1217.57 534.026,1215.4 536.225,1213.21 538.424,1210.99 540.623,1208.76 542.822,1206.5 545.022,1204.22 547.221,1201.91 549.42,1199.59 551.619,1197.24 553.818,1194.86 556.018,1192.46 558.217,1190.04 560.416,1187.59 562.615,1185.12 564.814,1182.62 567.013,1180.1 569.213,1177.56 571.412,1174.98 573.611,1172.39 575.81,1169.76 578.009,1167.11 580.209,1164.43 582.408,1161.73 584.607,1159 586.806,1156.24 589.005,1153.45 591.205,1150.64 593.404,1147.79 595.603,1144.92 597.802,1142.02 600.001,1139.09 602.201,1136.13 604.4,1133.14 606.599,1130.12 608.798,1127.07 610.997,1123.99 613.196,1120.88 615.396,1117.74 617.595,1114.57 619.794,1111.36 621.993,1108.12 624.192,1104.85 626.392,1101.55 628.591,1098.21 630.79,1094.84 632.989,1091.43 635.188,1087.99 637.388,1084.52 639.587,1081.01 641.786,1077.47 643.985,1073.89 646.184,1070.27 648.384,1066.62 650.583,1062.93 652.782,1059.21 654.981,1055.44 657.18,1051.64 659.379,1047.8 661.579,1043.92 663.778,1040.01 665.977,1036.05 668.176,1032.05 670.375,1028.02 672.575,1023.94 674.774,1019.82 676.973,1015.66 679.172,1011.46 681.371,1007.22 683.571,1002.93 685.77,998.602 687.969,994.229 690.168,989.813 692.367,985.351 694.567,980.845 696.766,976.294 698.965,971.697 701.164,967.054 703.363,962.364 705.562,957.627 707.762,952.842 709.961,948.009 712.16,943.128 714.359,938.198 716.558,933.218 718.758,928.188 720.957,923.107 723.156,917.975 725.355,912.792 727.554,907.556 729.754,902.268 731.953,896.927 734.152,891.532 736.351,886.082 738.55,880.578 740.749,875.018 742.949,869.402 745.148,863.73 747.347,858.001 749.546,852.214 751.745,846.369 753.945,840.464 756.144,834.501 758.343,828.477 760.542,822.393 762.741,816.247 764.941,810.039 767.14,803.769 769.339,797.436 771.538,791.039 773.737,784.577 775.937,778.051 778.136,771.459 780.335,764.8 782.534,758.074 784.733,751.281 786.932,744.419 789.132,737.489 791.331,730.488 793.53,723.417 795.729,716.275 797.928,709.062 800.128,701.775 802.327,694.416 804.526,686.983 806.725,679.475 808.924,671.891 811.124,664.231 813.323,656.495 815.522,648.68 817.721,640.786 819.92,632.814 822.12,624.761 824.319,616.627 826.518,608.411 828.717,600.113 830.916,591.731 833.115,583.265 835.315,574.713 837.514,566.076 839.713,557.352 841.912,548.541 844.111,539.64 846.311,530.651 848.51,521.57 850.709,512.399 852.908,503.135 855.107,493.778 857.307,484.328 859.506,474.782 861.705,465.14 863.904,455.401 866.103,445.564 868.303,435.628 870.502,425.592 872.701,415.455 874.9,405.216 877.099,394.874 879.298,384.428 881.498,373.877 883.697,363.219 885.896,352.455 888.095,341.582 890.294,330.599 892.494,319.506 894.693,308.301 896.892,296.984 899.091,285.552 901.29,274.005 903.49,262.342 905.689,250.562 907.888,238.663 910.087,226.645 912.286,214.505 914.486,202.243 916.685,189.858 918.884,177.348 921.083,164.713 923.282,151.95 925.481,139.059 927.681,126.038 929.88,112.887 932.079,99.6029 934.278,86.1857 936.477,752.964 938.677,746.12 940.876,739.207 943.075,732.224 945.274,725.172 947.473,718.048 949.673,710.853 951.872,703.585 954.071,696.244 956.27,688.83 958.469,681.34 960.669,673.776 962.868,666.135 965.067,658.417 967.266,650.622 969.465,642.749 971.664,634.796 973.864,626.763 976.063,618.649 978.262,610.454 980.461,602.176 982.66,1013.54 984.86,1009.32 987.059,1005.05 989.258,1000.75 991.457,996.394 993.656,991.999 995.856,987.56 998.055,983.076 1000.25,978.547 1002.45,973.973 1004.65,969.352 1006.85,1198.97 1009.05,1196.62 1011.25,1313.75 1013.45,1312.55 1015.65,1311.33 1017.85,1310.11 1020.05,1308.87 1022.25,1307.62 1024.45,1306.35 1026.64,1305.08 1028.84,1303.79 1031.04,1302.48 1033.24,1301.17 1035.44,1299.84 1037.64,1298.5 1039.84,1297.14 1042.04,1295.77 1044.24,1294.39 1046.44,1292.99 1048.64,1291.58 1050.84,1290.16 1053.03,1288.72 1055.23,1287.26 1057.43,1285.79 1059.63,1284.31 1061.83,1282.81 1064.03,1281.3 1066.23,1279.77 1068.43,1278.22 1070.63,1276.67 1072.83,1275.09 1075.03,1273.5 1077.23,1271.89 1079.42,1270.27 1081.62,1268.63 1083.82,1266.97 1086.02,1265.3 1088.22,1263.61 1090.42,1261.9 1092.62,1260.18 1094.82,1258.44 1097.02,1256.68 1099.22,1254.9 1101.42,1253.11 1103.62,1251.3 1105.82,1249.47 1108.01,1247.62 1110.21,1245.75 1112.41,1243.86 1114.61,1241.96 1116.81,1240.03 1119.01,1238.09 1121.21,1236.13 1123.41,1234.14 1125.61,1232.14 1127.81,1230.12 1130.01,1228.07 1132.21,1226.01 1134.4,1223.92 1136.6,1221.82 1138.8,1219.69 1141,1217.54 1143.2,1215.37 1145.4,1213.18 1147.6,1210.96 1149.8,1208.73 1152,1206.47 1154.2,1204.18 1156.4,1201.88 1158.6,1199.55 1160.79,1197.2 1162.99,1194.82 1165.19,1192.43 1167.39,1190 1169.59,1187.56 1171.79,1185.08 1173.99,1182.59 1176.19,1180.06 1178.39,1177.52 1180.59,1174.94 1182.79,1172.34 1184.99,1169.72 1187.19,1167.07 1189.38,1164.39 1191.58,1161.68 1193.78,1158.95 1195.98,1156.19 1198.18,1153.41 1200.38,1150.59 1202.58,1147.75 1204.78,1144.87 1206.98,1141.97 1209.18,1139.04 1211.38,1136.08 1213.58,1133.09 1215.77,1130.08 1217.97,1127.03 1220.17,1123.95 1222.37,1120.83 1224.57,1117.69 1226.77,1114.52 1228.97,1111.31 1231.17,1108.08 1233.37,1104.8 1235.57,1101.5 1237.77,1098.16 1239.97,1094.79 1242.16,1091.39 1244.36,1087.95 1246.56,1084.48 1248.76,1080.97 1250.96,1077.43 1253.16,1073.85 1255.36,1070.24 1257.56,1066.59 1259.76,1062.9 1261.96,1059.17 1264.16,1055.41 1266.36,1051.61 1268.56,1047.77 1270.75,1043.89 1272.95,1039.98 1275.15,1036.02 1277.35,1032.03 1279.55,1027.99 1281.75,1023.91 1283.95,1019.79 1286.15,1015.63 1288.35,1011.43 1290.55,1007.19 1292.75,1002.9 1294.95,998.573 1297.14,994.2 1299.34,989.782 1301.54,985.32 1303.74,980.813 1305.94,976.26 1308.14,971.662 1310.34,967.017 1312.54,962.325 1314.74,957.586 1316.94,952.799 1319.14,947.964 1321.34,943.08 1323.53,938.148 1325.73,933.165 1327.93,928.132 1330.13,923.049 1332.33,917.915 1334.53,912.728 1336.73,907.49 1338.93,902.199 1341.13,896.855 1343.33,891.458 1345.53,886.006 1347.73,880.499 1349.93,874.938 1352.12,869.32 1354.32,863.646 1356.52,857.916 1358.72,852.127 1360.92,846.281 1363.12,840.376 1365.32,834.411 1367.52,828.386 1369.72,822.301 1371.92,816.154 1374.12,809.946 1376.32,803.675 1378.51,797.341 1380.71,790.944 1382.91,784.482 1385.11,777.955 1387.31,771.362 1389.51,764.704 1391.71,757.978 1393.91,751.184 1396.11,744.323 1398.31,737.392 1400.51,730.391 1402.71,723.32 1404.9,716.178 1407.1,708.964 1409.3,701.678 1411.5,694.318 1413.7,686.884 1415.9,679.376 1418.1,671.791 1420.3,664.131 1422.5,656.393 1424.7,648.578 1426.9,640.684 1429.1,632.71 1431.3,624.656 1433.49,616.521 1435.69,608.304 1437.89,600.005 1440.09,591.622 1442.29,583.154 1444.49,574.602 1446.69,565.963 1448.89,557.238 1451.09,548.424 1453.29,539.522 1455.49,530.531 1457.69,521.449 1459.88,512.276 1462.08,968.173 1464.28,963.494 1466.48,958.768 1468.68,953.994 1470.88,949.172 1473.08,944.302 1475.28,939.382 1477.48,934.414 1479.68,929.395 1481.88,924.326 1484.08,919.206 1486.27,914.034 1488.47,908.81 1490.67,903.534 1492.87,898.205 1495.07,892.823 1497.27,887.386 1499.47,881.894 1501.67,876.348 1503.87,870.745 1506.07,865.087 1508.27,859.371 1510.47,853.598 1512.67,847.767 1514.86,841.878 1517.06,835.929 1519.26,829.92 1521.46,823.851 1523.66,817.72 1525.86,811.528 1528.06,805.274 1530.26,798.957 1532.46,792.576 1534.66,786.131 1536.86,779.622 1539.06,773.046 1541.25,766.405 1543.45,759.696 1545.65,752.92 1547.85,746.076 1550.05,739.163 1552.25,732.18 1554.45,725.127 1556.65,718.003 1558.85,710.807 1561.05,703.538 1563.25,696.197 1565.45,688.781 1567.65,681.291 1569.84,673.725 1572.04,666.084 1574.24,658.365 1576.44,650.569 1578.64,642.694 1580.84,634.74 1583.04,626.705 1585.24,618.59 1587.44,610.394 1589.64,602.115 1591.84,593.752 1594.04,585.306 1596.23,576.775 1598.43,568.158 1600.63,559.454 1602.83,991.994 1605.03,987.554 1607.23,983.07 1609.43,978.541 1611.63,973.966 1613.83,969.345 1616.03,964.678 1618.23,959.963 1620.43,955.201 1622.62,950.392 1624.82,945.534 1627.02,940.627 1629.22,935.671 1631.42,930.665 1633.62,925.608 1635.82,920.501 1638.02,915.343 1640.22,910.133 1642.42,904.871 1644.62,899.555 1646.82,894.187 1649.02,888.764 1651.21,883.287 1653.41,877.755 1655.61,872.167 1657.81,866.524 1660.01,860.823 1662.21,855.065 1664.41,849.249 1666.61,843.375 1668.81,837.442 1671.01,831.449 1673.21,825.396 1675.41,819.282 1677.6,813.106 1679.8,806.868 1682,800.568 1684.2,794.204 1686.4,787.776 1688.6,781.283 1690.8,774.725 1693,768.1 1695.2,761.41 1697.4,754.651 1699.6,747.825 1701.8,740.93 1703.99,733.965 1706.19,726.93 1708.39,719.824 1710.59,712.647 1712.79,705.397 1714.99,698.074 1717.19,690.678 1719.39,683.207 1721.59,675.66 1723.79,668.038 1725.99,660.338 1728.19,652.562 1730.39,644.706 1732.58,636.772 1734.78,628.758 1736.98,620.663 1739.18,612.487 1741.38,604.228 1743.58,595.886 1745.78,587.46 1747.98,578.95 1750.18,570.353 1752.38,561.671 1754.58,552.901 1756.78,544.043 1758.97,535.096 1761.17,526.059 1763.37,516.932 1765.57,507.712 1767.77,498.401 1769.97,961.145 1772.17,956.395 1774.37,951.598 1776.57,946.752 1778.77,941.857 1780.97,936.914 1783.17,1182.59 1785.36,1180.07 1787.56,1177.52 1789.76,1174.95 1791.96,1172.35 1794.16,1169.73 1796.36,1167.07 1798.56,1164.4 1800.76,1161.69 1802.96,1158.96 1805.16,1156.2 1807.36,1153.41 1809.56,1150.6 1811.76,1147.75 1813.95,1144.88 1816.15,1141.98 1818.35,1139.05 1820.55,1136.09 1822.75,1133.1 1824.95,1130.08 1827.15,1127.03 1829.35,1123.95 1831.55,1120.84 1833.75,1117.7 1835.95,1114.52 1838.15,1111.32 1840.34,1108.08 1842.54,1104.81 1844.74,1101.5 1846.94,1098.17 1849.14,1094.8 1851.34,1091.39 1853.54,1087.95 1855.74,1084.48 1857.94,1080.97 1860.14,1077.43 1862.34,1073.85 1864.54,1070.24 1866.73,1066.58 1868.93,1062.9 1871.13,1059.17 1873.33,1055.41 1875.53,1051.61 1877.73,1047.77 1879.93,1043.89 1882.13,1039.97 1884.33,1036.02 1886.53,1032.02 1888.73,1027.98 1890.93,1023.91 1893.13,1019.79 1895.32,1015.63 1897.52,1011.43 1899.72,1007.18 1901.92,1002.9 1904.12,998.566 1906.32,994.192 1908.52,989.775 1910.72,985.312 1912.92,980.805 1915.12,976.252 1917.32,971.654 1919.52,967.009 1921.71,962.318 1923.91,957.579 1926.11,952.792 1928.31,947.958 1930.51,943.074 1932.71,938.142 1934.91,933.16 1937.11,928.128 1939.31,923.045 1941.51,917.911 1943.71,912.726 1945.91,907.488 1948.1,902.198 1950.3,896.855 1952.5,891.459 1954.7,1159.64 1956.9,1156.89 1959.1,1154.11 1961.3,1151.3 1963.5,1148.46 1965.7,1145.6 1967.9,1142.7 1970.1,1139.78 1972.3,1136.83 1974.5,1133.85 1976.69,1130.83 1978.89,1127.79 1981.09,1124.72 1983.29,1121.61 1985.49,1118.48 1987.69,1115.31 1989.89,1112.11 1992.09,1108.88 1994.29,1105.62 1996.49,1102.32 1998.69,1098.99 2000.89,1095.63 2003.08,1092.24 2005.28,1088.81 2007.48,1085.34 2009.68,1081.84 2011.88,1078.31 2014.08,1074.74 2016.28,1071.13 2018.48,1067.49 2020.68,1063.81 2022.88,1060.1 2025.08,1056.34 2027.28,1052.55 2029.47,1048.72 2031.67,1044.86 2033.87,1040.95 2036.07,1037 2038.27,1033.02 2040.47,1028.99 2042.67,1024.93 2044.87,1020.82 2047.07,1016.67 2049.27,1012.48 2051.47,1008.25 2053.67,1003.98 2055.87,999.658 2058.06,995.296 2060.26,990.891 2062.46,986.441 2064.66,981.946 2066.86,977.406 2069.06,972.82 2071.26,968.188 2073.46,963.509 2075.66,958.783 2077.86,954.01 2080.06,949.188 2082.26,944.317 2084.45,939.398 2086.65,934.429 2088.85,929.409 2091.05,924.34 2093.25,919.219 2095.45,914.046 2097.65,908.821 2099.85,903.544 2102.05,898.213 2104.25,892.829 2106.45,887.391 2108.65,881.897 2110.84,876.349 2113.04,870.745 2115.24,865.084 2117.44,859.366 2119.64,853.591 2121.84,847.758 2124.04,841.866 2126.24,835.915 2128.44,829.905 2130.64,823.834 2132.84,817.702 2135.04,811.508 2137.24,805.253 2139.43,1116.1 2141.63,1112.91 2143.83,1109.69 2146.03,1106.43 2148.23,1103.14 2150.43,1099.82 2152.63,1096.47 2154.83,1093.08 2157.03,1261.46 2159.23,1259.73 2161.43,1257.99 2163.63,1256.22 2165.82,1254.44 2168.02,1252.64 2170.22,1250.83 2172.42,1248.99 2174.62,1247.14 2176.82,1245.26 2179.02,1243.37 2181.22,1241.46 2183.42,1239.53 2185.62,1237.58 2187.82,1235.62 2190.02,1233.63 2192.22,1231.62 2194.41,1229.59 2196.61,1227.54 2198.81,1225.47 2201.01,1223.38 2203.21,1221.27 2205.41,1219.14 2207.61,1216.98 2209.81,1214.81 2212.01,1212.61 2214.21,1210.39 2216.41,1320.71 2218.61,1319.58 2220.8,1318.43 2223,1317.28 2225.2,1316.11 2227.4,1314.93 2229.6,1313.74 2231.8,1312.54 2234,1311.32 2236.2,1310.1 2238.4,1308.86 2240.6,1307.61 2242.8,1306.34 2245,1305.06 2247.19,1303.77 2249.39,1302.47 2251.59,1301.16 2253.79,1299.83 2255.99,1298.49 2258.19,1297.13 2260.39,1295.76 2262.59,1294.38 2264.79,1292.98 2266.99,1291.57 2269.19,1290.14 2271.39,1288.7 2273.59,1287.25 2275.78,1285.78 2277.98,1284.3 2280.18,1282.8 2282.38,1281.28 2284.58,1279.76 2286.78,1278.21 2288.98,1276.65 2291.18,1275.08 2293.38,1273.48 2295.58,1271.88 2297.78,1270.25 2299.98,1268.61 2302.17,1266.96 2304.37,1265.28 2306.57,1263.59 2308.77,1261.89 2310.97,1260.16 2313.17,1258.42 2315.37,1256.66 2317.57,1254.89 2319.77,1253.09 2321.97,1251.28 2324.17,1249.45 2326.37,1247.6 2328.56,1245.73 2330.76,1243.84 2332.96,1241.94 2335.16,1240.01 2337.36,1238.07 2339.56,1236.1 2341.76,1234.12 2343.96,1232.12 2346.16,1230.09 2348.36,1228.05 2350.56,1225.98 2352.76,1223.9 "/>
<path clip-path="url(#clip000)" d="M1970.73 196.789 L2279.52 196.789 L2279.52 93.1086 L1970.73 93.1086  Z" fill="#ffffff" fill-rule="evenodd" fill-opacity="1"/>
<polyline clip-path="url(#clip000)" style="stroke:#000000; stroke-linecap:round; stroke-linejoin:round; stroke-width:4; stroke-opacity:1; fill:none" points="1970.73,196.789 2279.52,196.789 2279.52,93.1086 1970.73,93.1086 1970.73,196.789 "/>
<polyline clip-path="url(#clip000)" style="stroke:#009af9; stroke-linecap:round; stroke-linejoin:round; stroke-width:8; stroke-opacity:1; fill:none" points="1995.14,144.949 2141.6,144.949 "/>
<path clip-path="url(#clip000)" d="M2166.02 151.997 L2166.02 136.303 L2170.27 136.303 L2170.27 151.835 Q2170.27 155.516 2171.71 157.368 Q2173.14 159.196 2176.02 159.196 Q2179.46 159.196 2181.45 156.997 Q2183.47 154.798 2183.47 151.002 L2183.47 136.303 L2187.73 136.303 L2187.73 162.229 L2183.47 162.229 L2183.47 158.247 Q2181.92 160.608 2179.86 161.766 Q2177.82 162.9 2175.11 162.9 Q2170.64 162.9 2168.33 160.122 Q2166.02 157.344 2166.02 151.997 M2176.73 135.678 L2176.73 135.678 Z" fill="#000000" fill-rule="nonzero" fill-opacity="1" /><path clip-path="url(#clip000)" d="M2196.11 126.21 L2205.92 126.21 L2205.92 129.52 L2200.37 129.52 L2200.37 165.168 L2205.92 165.168 L2205.92 168.479 L2196.11 168.479 L2196.11 126.21 Z" fill="#000000" fill-rule="nonzero" fill-opacity="1" /><path clip-path="url(#clip000)" d="M2216.41 158.293 L2224.05 158.293 L2224.05 131.928 L2215.74 133.595 L2215.74 129.335 L2224 127.669 L2228.68 127.669 L2228.68 158.293 L2236.32 158.293 L2236.32 162.229 L2216.41 162.229 L2216.41 158.293 Z" fill="#000000" fill-rule="nonzero" fill-opacity="1" /><path clip-path="url(#clip000)" d="M2255.11 126.21 L2255.11 168.479 L2245.3 168.479 L2245.3 165.168 L2250.83 165.168 L2250.83 129.52 L2245.3 129.52 L2245.3 126.21 L2255.11 126.21 Z" fill="#000000" fill-rule="nonzero" fill-opacity="1" /></svg>
