<?xml version="1.0" encoding="utf-8"?>
<svg xmlns="http://www.w3.org/2000/svg" xmlns:xlink="http://www.w3.org/1999/xlink" width="600" height="400" viewBox="0 0 2400 1600">
<defs>
  <clipPath id="clip650">
    <rect x="0" y="0" width="2400" height="1600"/>
  </clipPath>
</defs>
<path clip-path="url(#clip650)" d="M0 1600 L2400 1600 L2400 0 L0 0  Z" fill="#ffffff" fill-rule="evenodd" fill-opacity="1"/>
<defs>
  <clipPath id="clip651">
    <rect x="480" y="0" width="1681" height="1600"/>
  </clipPath>
</defs>
<path clip-path="url(#clip650)" d="M155.765 1423.18 L2352.76 1423.18 L2352.76 47.2441 L155.765 47.2441  Z" fill="#ffffff" fill-rule="evenodd" fill-opacity="1"/>
<defs>
  <clipPath id="clip652">
    <rect x="155" y="47" width="2198" height="1377"/>
  </clipPath>
</defs>
<polyline clip-path="url(#clip652)" style="stroke:#000000; stroke-linecap:round; stroke-linejoin:round; stroke-width:2; stroke-opacity:0.1; fill:none" points="155.765,1423.18 155.765,47.2441 "/>
<polyline clip-path="url(#clip652)" style="stroke:#000000; stroke-linecap:round; stroke-linejoin:round; stroke-width:2; stroke-opacity:0.1; fill:none" points="595.163,1423.18 595.163,47.2441 "/>
<polyline clip-path="url(#clip652)" style="stroke:#000000; stroke-linecap:round; stroke-linejoin:round; stroke-width:2; stroke-opacity:0.1; fill:none" points="1034.56,1423.18 1034.56,47.2441 "/>
<polyline clip-path="url(#clip652)" style="stroke:#000000; stroke-linecap:round; stroke-linejoin:round; stroke-width:2; stroke-opacity:0.1; fill:none" points="1473.96,1423.18 1473.96,47.2441 "/>
<polyline clip-path="url(#clip652)" style="stroke:#000000; stroke-linecap:round; stroke-linejoin:round; stroke-width:2; stroke-opacity:0.1; fill:none" points="1913.36,1423.18 1913.36,47.2441 "/>
<polyline clip-path="url(#clip652)" style="stroke:#000000; stroke-linecap:round; stroke-linejoin:round; stroke-width:2; stroke-opacity:0.1; fill:none" points="2352.76,1423.18 2352.76,47.2441 "/>
<polyline clip-path="url(#clip652)" style="stroke:#000000; stroke-linecap:round; stroke-linejoin:round; stroke-width:2; stroke-opacity:0.1; fill:none" points="155.765,1127.12 2352.76,1127.12 "/>
<polyline clip-path="url(#clip652)" style="stroke:#000000; stroke-linecap:round; stroke-linejoin:round; stroke-width:2; stroke-opacity:0.1; fill:none" points="155.765,829.71 2352.76,829.71 "/>
<polyline clip-path="url(#clip652)" style="stroke:#000000; stroke-linecap:round; stroke-linejoin:round; stroke-width:2; stroke-opacity:0.1; fill:none" points="155.765,532.301 2352.76,532.301 "/>
<polyline clip-path="url(#clip652)" style="stroke:#000000; stroke-linecap:round; stroke-linejoin:round; stroke-width:2; stroke-opacity:0.1; fill:none" points="155.765,234.893 2352.76,234.893 "/>
<polyline clip-path="url(#clip650)" style="stroke:#000000; stroke-linecap:round; stroke-linejoin:round; stroke-width:4; stroke-opacity:1; fill:none" points="155.765,1423.18 2352.76,1423.18 "/>
<polyline clip-path="url(#clip650)" style="stroke:#000000; stroke-linecap:round; stroke-linejoin:round; stroke-width:4; stroke-opacity:1; fill:none" points="155.765,1423.18 155.765,1404.28 "/>
<polyline clip-path="url(#clip650)" style="stroke:#000000; stroke-linecap:round; stroke-linejoin:round; stroke-width:4; stroke-opacity:1; fill:none" points="595.163,1423.18 595.163,1404.28 "/>
<polyline clip-path="url(#clip650)" style="stroke:#000000; stroke-linecap:round; stroke-linejoin:round; stroke-width:4; stroke-opacity:1; fill:none" points="1034.56,1423.18 1034.56,1404.28 "/>
<polyline clip-path="url(#clip650)" style="stroke:#000000; stroke-linecap:round; stroke-linejoin:round; stroke-width:4; stroke-opacity:1; fill:none" points="1473.96,1423.18 1473.96,1404.28 "/>
<polyline clip-path="url(#clip650)" style="stroke:#000000; stroke-linecap:round; stroke-linejoin:round; stroke-width:4; stroke-opacity:1; fill:none" points="1913.36,1423.18 1913.36,1404.28 "/>
<polyline clip-path="url(#clip650)" style="stroke:#000000; stroke-linecap:round; stroke-linejoin:round; stroke-width:4; stroke-opacity:1; fill:none" points="2352.76,1423.18 2352.76,1404.28 "/>
<path clip-path="url(#clip650)" d="M155.765 1454.1 Q152.154 1454.1 150.325 1457.66 Q148.52 1461.2 148.52 1468.33 Q148.52 1475.44 150.325 1479.01 Q152.154 1482.55 155.765 1482.55 Q159.399 1482.55 161.205 1479.01 Q163.033 1475.44 163.033 1468.33 Q163.033 1461.2 161.205 1457.66 Q159.399 1454.1 155.765 1454.1 M155.765 1450.39 Q161.575 1450.39 164.631 1455 Q167.709 1459.58 167.709 1468.33 Q167.709 1477.06 164.631 1481.67 Q161.575 1486.25 155.765 1486.25 Q149.955 1486.25 146.876 1481.67 Q143.821 1477.06 143.821 1468.33 Q143.821 1459.58 146.876 1455 Q149.955 1450.39 155.765 1450.39 Z" fill="#000000" fill-rule="nonzero" fill-opacity="1" /><path clip-path="url(#clip650)" d="M589.816 1481.64 L606.135 1481.64 L606.135 1485.58 L584.191 1485.58 L584.191 1481.64 Q586.853 1478.89 591.436 1474.26 Q596.043 1469.61 597.223 1468.27 Q599.469 1465.74 600.348 1464.01 Q601.251 1462.25 601.251 1460.56 Q601.251 1457.8 599.307 1456.07 Q597.385 1454.33 594.283 1454.33 Q592.084 1454.33 589.631 1455.09 Q587.2 1455.86 584.422 1457.41 L584.422 1452.69 Q587.246 1451.55 589.7 1450.97 Q592.154 1450.39 594.191 1450.39 Q599.561 1450.39 602.756 1453.08 Q605.95 1455.77 605.95 1460.26 Q605.95 1462.39 605.14 1464.31 Q604.353 1466.2 602.246 1468.8 Q601.668 1469.47 598.566 1472.69 Q595.464 1475.88 589.816 1481.64 Z" fill="#000000" fill-rule="nonzero" fill-opacity="1" /><path clip-path="url(#clip650)" d="M1037.57 1455.09 L1025.77 1473.54 L1037.57 1473.54 L1037.57 1455.09 M1036.34 1451.02 L1042.22 1451.02 L1042.22 1473.54 L1047.15 1473.54 L1047.15 1477.43 L1042.22 1477.43 L1042.22 1485.58 L1037.57 1485.58 L1037.57 1477.43 L1021.97 1477.43 L1021.97 1472.92 L1036.34 1451.02 Z" fill="#000000" fill-rule="nonzero" fill-opacity="1" /><path clip-path="url(#clip650)" d="M1474.36 1466.44 Q1471.22 1466.44 1469.36 1468.59 Q1467.54 1470.74 1467.54 1474.49 Q1467.54 1478.22 1469.36 1480.39 Q1471.22 1482.55 1474.36 1482.55 Q1477.51 1482.55 1479.34 1480.39 Q1481.19 1478.22 1481.19 1474.49 Q1481.19 1470.74 1479.34 1468.59 Q1477.51 1466.44 1474.36 1466.44 M1483.65 1451.78 L1483.65 1456.04 Q1481.89 1455.21 1480.08 1454.77 Q1478.3 1454.33 1476.54 1454.33 Q1471.91 1454.33 1469.46 1457.45 Q1467.03 1460.58 1466.68 1466.9 Q1468.05 1464.89 1470.11 1463.82 Q1472.17 1462.73 1474.64 1462.73 Q1479.85 1462.73 1482.86 1465.9 Q1485.89 1469.05 1485.89 1474.49 Q1485.89 1479.82 1482.74 1483.03 Q1479.6 1486.25 1474.36 1486.25 Q1468.37 1486.25 1465.2 1481.67 Q1462.03 1477.06 1462.03 1468.33 Q1462.03 1460.14 1465.92 1455.28 Q1469.8 1450.39 1476.36 1450.39 Q1478.11 1450.39 1479.9 1450.74 Q1481.7 1451.09 1483.65 1451.78 Z" fill="#000000" fill-rule="nonzero" fill-opacity="1" /><path clip-path="url(#clip650)" d="M1913.36 1469.17 Q1910.02 1469.17 1908.1 1470.95 Q1906.2 1472.73 1906.2 1475.86 Q1906.2 1478.98 1908.1 1480.77 Q1910.02 1482.55 1913.36 1482.55 Q1916.69 1482.55 1918.61 1480.77 Q1920.53 1478.96 1920.53 1475.86 Q1920.53 1472.73 1918.61 1470.95 Q1916.71 1469.17 1913.36 1469.17 M1908.68 1467.18 Q1905.67 1466.44 1903.98 1464.38 Q1902.32 1462.32 1902.32 1459.35 Q1902.32 1455.21 1905.26 1452.8 Q1908.22 1450.39 1913.36 1450.39 Q1918.52 1450.39 1921.46 1452.8 Q1924.4 1455.21 1924.4 1459.35 Q1924.4 1462.32 1922.71 1464.38 Q1921.04 1466.44 1918.06 1467.18 Q1921.44 1467.96 1923.31 1470.26 Q1925.21 1472.55 1925.21 1475.86 Q1925.21 1480.88 1922.13 1483.57 Q1919.08 1486.25 1913.36 1486.25 Q1907.64 1486.25 1904.56 1483.57 Q1901.51 1480.88 1901.51 1475.86 Q1901.51 1472.55 1903.4 1470.26 Q1905.3 1467.96 1908.68 1467.18 M1906.97 1459.79 Q1906.97 1462.48 1908.64 1463.98 Q1910.33 1465.49 1913.36 1465.49 Q1916.37 1465.49 1918.06 1463.98 Q1919.77 1462.48 1919.77 1459.79 Q1919.77 1457.11 1918.06 1455.6 Q1916.37 1454.1 1913.36 1454.1 Q1910.33 1454.1 1908.64 1455.6 Q1906.97 1457.11 1906.97 1459.79 Z" fill="#000000" fill-rule="nonzero" fill-opacity="1" /><path clip-path="url(#clip650)" d="M2327.44 1481.64 L2335.08 1481.64 L2335.08 1455.28 L2326.77 1456.95 L2326.77 1452.69 L2335.04 1451.02 L2339.71 1451.02 L2339.71 1481.64 L2347.35 1481.64 L2347.35 1485.58 L2327.44 1485.58 L2327.44 1481.64 Z" fill="#000000" fill-rule="nonzero" fill-opacity="1" /><path clip-path="url(#clip650)" d="M2366.8 1454.1 Q2363.18 1454.1 2361.36 1457.66 Q2359.55 1461.2 2359.55 1468.33 Q2359.55 1475.44 2361.36 1479.01 Q2363.18 1482.55 2366.8 1482.55 Q2370.43 1482.55 2372.23 1479.01 Q2374.06 1475.44 2374.06 1468.33 Q2374.06 1461.2 2372.23 1457.66 Q2370.43 1454.1 2366.8 1454.1 M2366.8 1450.39 Q2372.61 1450.39 2375.66 1455 Q2378.74 1459.58 2378.74 1468.33 Q2378.74 1477.06 2375.66 1481.67 Q2372.61 1486.25 2366.8 1486.25 Q2360.99 1486.25 2357.91 1481.67 Q2354.85 1477.06 2354.85 1468.33 Q2354.85 1459.58 2357.91 1455 Q2360.99 1450.39 2366.8 1450.39 Z" fill="#000000" fill-rule="nonzero" fill-opacity="1" /><path clip-path="url(#clip650)" d="M1253.32 1522.27 L1253.32 1532.4 L1265.38 1532.4 L1265.38 1536.95 L1253.32 1536.95 L1253.32 1556.3 Q1253.32 1560.66 1254.5 1561.9 Q1255.71 1563.14 1259.37 1563.14 L1265.38 1563.14 L1265.38 1568.04 L1259.37 1568.04 Q1252.59 1568.04 1250.01 1565.53 Q1247.43 1562.98 1247.43 1556.3 L1247.43 1536.95 L1243.14 1536.95 L1243.14 1532.4 L1247.43 1532.4 L1247.43 1522.27 L1253.32 1522.27 Z" fill="#000000" fill-rule="nonzero" fill-opacity="1" /><polyline clip-path="url(#clip650)" style="stroke:#000000; stroke-linecap:round; stroke-linejoin:round; stroke-width:4; stroke-opacity:1; fill:none" points="155.765,1423.18 155.765,47.2441 "/>
<polyline clip-path="url(#clip650)" style="stroke:#000000; stroke-linecap:round; stroke-linejoin:round; stroke-width:4; stroke-opacity:1; fill:none" points="155.765,1127.12 174.663,1127.12 "/>
<polyline clip-path="url(#clip650)" style="stroke:#000000; stroke-linecap:round; stroke-linejoin:round; stroke-width:4; stroke-opacity:1; fill:none" points="155.765,829.71 174.663,829.71 "/>
<polyline clip-path="url(#clip650)" style="stroke:#000000; stroke-linecap:round; stroke-linejoin:round; stroke-width:4; stroke-opacity:1; fill:none" points="155.765,532.301 174.663,532.301 "/>
<polyline clip-path="url(#clip650)" style="stroke:#000000; stroke-linecap:round; stroke-linejoin:round; stroke-width:4; stroke-opacity:1; fill:none" points="155.765,234.893 174.663,234.893 "/>
<path clip-path="url(#clip650)" d="M63.5847 1112.92 Q59.9736 1112.92 58.1449 1116.48 Q56.3393 1120.02 56.3393 1127.15 Q56.3393 1134.26 58.1449 1137.82 Q59.9736 1141.37 63.5847 1141.37 Q67.2189 1141.37 69.0244 1137.82 Q70.8531 1134.26 70.8531 1127.15 Q70.8531 1120.02 69.0244 1116.48 Q67.2189 1112.92 63.5847 1112.92 M63.5847 1109.21 Q69.3948 1109.21 72.4503 1113.82 Q75.529 1118.4 75.529 1127.15 Q75.529 1135.88 72.4503 1140.49 Q69.3948 1145.07 63.5847 1145.07 Q57.7745 1145.07 54.6958 1140.49 Q51.6403 1135.88 51.6403 1127.15 Q51.6403 1118.4 54.6958 1113.82 Q57.7745 1109.21 63.5847 1109.21 Z" fill="#000000" fill-rule="nonzero" fill-opacity="1" /><path clip-path="url(#clip650)" d="M83.7466 1138.52 L88.6308 1138.52 L88.6308 1144.4 L83.7466 1144.4 L83.7466 1138.52 Z" fill="#000000" fill-rule="nonzero" fill-opacity="1" /><path clip-path="url(#clip650)" d="M98.8622 1109.84 L117.219 1109.84 L117.219 1113.77 L103.145 1113.77 L103.145 1122.25 Q104.163 1121.9 105.182 1121.74 Q106.2 1121.55 107.219 1121.55 Q113.006 1121.55 116.385 1124.72 Q119.765 1127.89 119.765 1133.31 Q119.765 1138.89 116.293 1141.99 Q112.82 1145.07 106.501 1145.07 Q104.325 1145.07 102.057 1144.7 Q99.8113 1144.33 97.4039 1143.59 L97.4039 1138.89 Q99.4872 1140.02 101.709 1140.58 Q103.932 1141.13 106.408 1141.13 Q110.413 1141.13 112.751 1139.03 Q115.089 1136.92 115.089 1133.31 Q115.089 1129.7 112.751 1127.59 Q110.413 1125.49 106.408 1125.49 Q104.534 1125.49 102.659 1125.9 Q100.807 1126.32 98.8622 1127.2 L98.8622 1109.84 Z" fill="#000000" fill-rule="nonzero" fill-opacity="1" /><path clip-path="url(#clip650)" d="M53.3995 843.054 L61.0384 843.054 L61.0384 816.689 L52.7282 818.356 L52.7282 814.096 L60.9921 812.43 L65.668 812.43 L65.668 843.054 L73.3068 843.054 L73.3068 846.99 L53.3995 846.99 L53.3995 843.054 Z" fill="#000000" fill-rule="nonzero" fill-opacity="1" /><path clip-path="url(#clip650)" d="M82.7512 841.11 L87.6354 841.11 L87.6354 846.99 L82.7512 846.99 L82.7512 841.11 Z" fill="#000000" fill-rule="nonzero" fill-opacity="1" /><path clip-path="url(#clip650)" d="M107.821 815.508 Q104.209 815.508 102.381 819.073 Q100.575 822.615 100.575 829.744 Q100.575 836.851 102.381 840.416 Q104.209 843.957 107.821 843.957 Q111.455 843.957 113.26 840.416 Q115.089 836.851 115.089 829.744 Q115.089 822.615 113.26 819.073 Q111.455 815.508 107.821 815.508 M107.821 811.805 Q113.631 811.805 116.686 816.411 Q119.765 820.994 119.765 829.744 Q119.765 838.471 116.686 843.078 Q113.631 847.661 107.821 847.661 Q102.01 847.661 98.9317 843.078 Q95.8761 838.471 95.8761 829.744 Q95.8761 820.994 98.9317 816.411 Q102.01 811.805 107.821 811.805 Z" fill="#000000" fill-rule="nonzero" fill-opacity="1" /><path clip-path="url(#clip650)" d="M54.3949 545.646 L62.0337 545.646 L62.0337 519.281 L53.7236 520.947 L53.7236 516.688 L61.9874 515.021 L66.6633 515.021 L66.6633 545.646 L74.3022 545.646 L74.3022 549.581 L54.3949 549.581 L54.3949 545.646 Z" fill="#000000" fill-rule="nonzero" fill-opacity="1" /><path clip-path="url(#clip650)" d="M83.7466 543.702 L88.6308 543.702 L88.6308 549.581 L83.7466 549.581 L83.7466 543.702 Z" fill="#000000" fill-rule="nonzero" fill-opacity="1" /><path clip-path="url(#clip650)" d="M98.8622 515.021 L117.219 515.021 L117.219 518.956 L103.145 518.956 L103.145 527.429 Q104.163 527.081 105.182 526.919 Q106.2 526.734 107.219 526.734 Q113.006 526.734 116.385 529.905 Q119.765 533.077 119.765 538.493 Q119.765 544.072 116.293 547.174 Q112.82 550.253 106.501 550.253 Q104.325 550.253 102.057 549.882 Q99.8113 549.512 97.4039 548.771 L97.4039 544.072 Q99.4872 545.206 101.709 545.762 Q103.932 546.317 106.408 546.317 Q110.413 546.317 112.751 544.211 Q115.089 542.104 115.089 538.493 Q115.089 534.882 112.751 532.776 Q110.413 530.669 106.408 530.669 Q104.534 530.669 102.659 531.086 Q100.807 531.503 98.8622 532.382 L98.8622 515.021 Z" fill="#000000" fill-rule="nonzero" fill-opacity="1" /><path clip-path="url(#clip650)" d="M56.6171 248.238 L72.9365 248.238 L72.9365 252.173 L50.9921 252.173 L50.9921 248.238 Q53.6541 245.483 58.2375 240.854 Q62.8439 236.201 64.0245 234.858 Q66.2698 232.335 67.1494 230.599 Q68.0522 228.84 68.0522 227.15 Q68.0522 224.395 66.1078 222.659 Q64.1865 220.923 61.0847 220.923 Q58.8856 220.923 56.4319 221.687 Q54.0014 222.451 51.2236 224.002 L51.2236 219.28 Q54.0477 218.145 56.5014 217.567 Q58.955 216.988 60.9921 216.988 Q66.3624 216.988 69.5568 219.673 Q72.7513 222.358 72.7513 226.849 Q72.7513 228.979 71.9411 230.9 Q71.1541 232.798 69.0476 235.391 Q68.4689 236.062 65.367 239.28 Q62.2652 242.474 56.6171 248.238 Z" fill="#000000" fill-rule="nonzero" fill-opacity="1" /><path clip-path="url(#clip650)" d="M82.7512 246.293 L87.6354 246.293 L87.6354 252.173 L82.7512 252.173 L82.7512 246.293 Z" fill="#000000" fill-rule="nonzero" fill-opacity="1" /><path clip-path="url(#clip650)" d="M107.821 220.692 Q104.209 220.692 102.381 224.256 Q100.575 227.798 100.575 234.928 Q100.575 242.034 102.381 245.599 Q104.209 249.141 107.821 249.141 Q111.455 249.141 113.26 245.599 Q115.089 242.034 115.089 234.928 Q115.089 227.798 113.26 224.256 Q111.455 220.692 107.821 220.692 M107.821 216.988 Q113.631 216.988 116.686 221.594 Q119.765 226.178 119.765 234.928 Q119.765 243.655 116.686 248.261 Q113.631 252.844 107.821 252.844 Q102.01 252.844 98.9317 248.261 Q95.8761 243.655 95.8761 234.928 Q95.8761 226.178 98.9317 221.594 Q102.01 216.988 107.821 216.988 Z" fill="#000000" fill-rule="nonzero" fill-opacity="1" /><polyline clip-path="url(#clip652)" style="stroke:#009af9; stroke-linecap:round; stroke-linejoin:round; stroke-width:8; stroke-opacity:1; fill:none" points="155.765,1305.56 156.013,1311.38 156.235,1315.88 156.484,1313.82 156.765,1310.95 157.081,1314.3 157.436,1317.93 157.836,1317.38 158.285,1313.88 158.791,1304.34 159.36,1308.73 160,1317.69 160.72,1321.9 161.53,1324.56 162.442,1331.37 163.467,1321.11 164.621,1305.97 165.918,1317.25 167.378,1316.47 169.021,1315.71 170.868,1306.35 172.947,1301.19 175.285,1283.55 177.916,1287.47 180.876,1301.67 184.205,1291.69 187.951,1300.84 192.165,1318.02 196.906,1335.25 202.239,1339.11 208.239,1338.77 214.989,1307.01 222.583,1331.8 229.583,1330.42 237.458,1320.74 246.317,1295.13 256.283,1289.39 266.474,1269.24 277.939,1287.05 289.441,1280.02 302.38,1299.88 314.462,1250.92 328.054,1259.54 338.907,1176.58 351.116,1244.89 360.682,1235.66 371.444,1203.12 383.55,1121.01 397.171,1133.58 407.528,1103.72 419.179,1143.87 429.777,1083.07 441.7,1149.04 450.689,1144.28 460.801,1132.26 471.087,1189.37 480.82,1144.88 491.769,1115.36 502.311,1213.5 511.865,1219.49 522.612,1260.42 532.23,1258.17 543.05,1196.76 555.223,1164.79 566.684,997.948 578.326,1191.06 591.014,1164.58 604.739,1149.09 617.936,1134.35 630.477,1078.78 644.006,962.654 655.026,995.05 664.389,913.139 674.921,742.79 684.205,727.845 692.055,883.705 699.423,916.177 707.104,862.225 714.874,790.275 722.196,841.892 728.746,900.588 735.201,844.457 742.075,845.115 748.269,859.762 754.429,1013.36 760.624,1142.26 767.594,1063.67 775.409,846.918 782.063,734.648 782.513,733.544 788.683,1069.37 795.624,1088.29 802.713,1065.25 810.687,984.827 819.145,1071.96 826.079,1084.05 833.881,1218.35 842.657,1256.55 850.903,1121.58 859.4,1239.55 868.96,1230.34 879.383,1167.27 891.11,1036.5 901.974,1047.07 911.233,987.839 921.395,895.006 930.631,813.193 939.052,594.368 945.784,516.713 951.773,410.451 956.706,284.165 961.279,197.942 963.758,86.1857 967.878,612.103 972.512,522.199 976.984,391.931 978.51,363.463 980.227,887.973 982.158,900.099 984.331,908.164 986.775,891.015 989.525,850.829 992.619,834.167 996.041,822.77 999.815,750.713 1004.04,847.526 1008.04,765.848 1012.54,843.432 1016.74,877.235 1021.47,977.63 1026.35,996.702 1031.83,1027 1037.51,933.214 1043.9,816.607 1050.02,901.294 1055.52,979.989 1061.48,1007.32 1064.48,971.342 1067.86,1173.06 1071.66,1140.01 1075.94,1134.37 1080.73,1171.95 1085.92,1105.76 1091.77,1166.63 1097.19,1193.84 1103.29,1223.09 1110.15,1170.12 1117.87,1129.22 1125.65,1226.12 1133.65,1255.45 1142.59,1224.49 1152.64,1288.88 1162,1335.14 1172.53,1297.98 1184.38,1325.54 1194.61,1308.58 1198.93,1312.7 1203.78,1357.73 1209.24,1356.24 1215.38,1349.57 1222.29,1327.42 1230.06,1349.41 1238.02,1355.94 1246.96,1338.39 1257.03,1333.51 1268.35,1314.41 1281.09,1319.79 1289.8,1334.56 1302.32,1384.24 1316.42,1372.63 1332.27,1364.7 1350.11,1358.4 1370.17,1332.33 1392.75,1355.11 1407.21,1360.15 1423.48,1315.45 1441.78,1325.57 1455.61,1336.65 1471.17,1326.85 1488.68,1295.91 1508.37,1308.54 1522.6,1319.16 1538.6,1309.44 1556.61,1328.51 1572.25,1324.29 1589.85,1303.2 1609.65,1253.84 1631.92,1202.9 1652.92,1046.71 1673.72,970.885 1687.22,968.235 1698.88,1107.53 1709.85,1101.12 1722.19,1129.21 1733.27,1173.33 1744.63,1200.8 1756.74,1175.18 1770.37,1200.65 1781.78,1262.18 1794.58,1255.18 1808.99,1261.35 1822.31,1281.16 1835.23,1239.94 1849.75,1218.43 1862.98,1215.34 1875.93,1154.23 1890.51,1168.45 1902.09,1233.43 1913.74,1196.47 1926.85,1146.83 1940.56,1197.51 1950.78,1215.55 1962.27,1218.79 1973.92,1229.88 1985.61,1263.58 1997.44,1272.37 2010.75,1312.73 2023.3,1320.58 2037.42,1312.92 2053.31,1259.89 2071.18,1196.86 2088.1,1128.54 2101.91,1179.64 2112.77,1218.77 2124.98,1215.57 2138.71,1158.97 2153.42,1242.35 2164.12,1254.54 2176.15,1187.27 2189.69,1242.43 2200.13,1261.17 2211.87,1148.82 2224.86,1204.49 2234.67,1156.36 2245.7,1089.84 2256.08,1145.49 2265.02,1153.22 2275.07,1143.53 2285.01,1098.04 2295.48,985.333 2305.31,863.717 2314.01,836.069 2321.61,984.446 2324.66,943.53 2331.7,1056.01 2339.62,1087.4 2347.29,1133.95 2352.76,1140.83 "/>
<path clip-path="url(#clip650)" d="M1970.73 196.789 L2279.52 196.789 L2279.52 93.1086 L1970.73 93.1086  Z" fill="#ffffff" fill-rule="evenodd" fill-opacity="1"/>
<polyline clip-path="url(#clip650)" style="stroke:#000000; stroke-linecap:round; stroke-linejoin:round; stroke-width:4; stroke-opacity:1; fill:none" points="1970.73,196.789 2279.52,196.789 2279.52,93.1086 1970.73,93.1086 1970.73,196.789 "/>
<polyline clip-path="url(#clip650)" style="stroke:#009af9; stroke-linecap:round; stroke-linejoin:round; stroke-width:8; stroke-opacity:1; fill:none" points="1995.14,144.949 2141.6,144.949 "/>
<path clip-path="url(#clip650)" d="M2166.02 151.997 L2166.02 136.303 L2170.27 136.303 L2170.27 151.835 Q2170.27 155.516 2171.71 157.368 Q2173.14 159.196 2176.02 159.196 Q2179.46 159.196 2181.45 156.997 Q2183.47 154.798 2183.47 151.002 L2183.47 136.303 L2187.73 136.303 L2187.73 162.229 L2183.47 162.229 L2183.47 158.247 Q2181.92 160.608 2179.86 161.766 Q2177.82 162.9 2175.11 162.9 Q2170.64 162.9 2168.33 160.122 Q2166.02 157.344 2166.02 151.997 M2176.73 135.678 L2176.73 135.678 Z" fill="#000000" fill-rule="nonzero" fill-opacity="1" /><path clip-path="url(#clip650)" d="M2196.11 126.21 L2205.92 126.21 L2205.92 129.52 L2200.37 129.52 L2200.37 165.168 L2205.92 165.168 L2205.92 168.479 L2196.11 168.479 L2196.11 126.21 Z" fill="#000000" fill-rule="nonzero" fill-opacity="1" /><path clip-path="url(#clip650)" d="M2216.41 158.293 L2224.05 158.293 L2224.05 131.928 L2215.74 133.595 L2215.74 129.335 L2224 127.669 L2228.68 127.669 L2228.68 158.293 L2236.32 158.293 L2236.32 162.229 L2216.41 162.229 L2216.41 158.293 Z" fill="#000000" fill-rule="nonzero" fill-opacity="1" /><path clip-path="url(#clip650)" d="M2255.11 126.21 L2255.11 168.479 L2245.3 168.479 L2245.3 165.168 L2250.83 165.168 L2250.83 129.52 L2245.3 129.52 L2245.3 126.21 L2255.11 126.21 Z" fill="#000000" fill-rule="nonzero" fill-opacity="1" /></svg>
