<?xml version="1.0" encoding="utf-8"?>
<svg xmlns="http://www.w3.org/2000/svg" xmlns:xlink="http://www.w3.org/1999/xlink" width="600" height="400" viewBox="0 0 2400 1600">
<defs>
  <clipPath id="clip380">
    <rect x="0" y="0" width="2400" height="1600"/>
  </clipPath>
</defs>
<path clip-path="url(#clip380)" d="M0 1600 L2400 1600 L2400 0 L0 0  Z" fill="#ffffff" fill-rule="evenodd" fill-opacity="1"/>
<defs>
  <clipPath id="clip381">
    <rect x="480" y="0" width="1681" height="1600"/>
  </clipPath>
</defs>
<path clip-path="url(#clip380)" d="M155.765 1423.18 L2352.76 1423.18 L2352.76 47.2441 L155.765 47.2441  Z" fill="#ffffff" fill-rule="evenodd" fill-opacity="1"/>
<defs>
  <clipPath id="clip382">
    <rect x="155" y="47" width="2198" height="1377"/>
  </clipPath>
</defs>
<polyline clip-path="url(#clip382)" style="stroke:#000000; stroke-linecap:round; stroke-linejoin:round; stroke-width:2; stroke-opacity:0.1; fill:none" points="155.765,1423.18 155.765,47.2441 "/>
<polyline clip-path="url(#clip382)" style="stroke:#000000; stroke-linecap:round; stroke-linejoin:round; stroke-width:2; stroke-opacity:0.1; fill:none" points="595.163,1423.18 595.163,47.2441 "/>
<polyline clip-path="url(#clip382)" style="stroke:#000000; stroke-linecap:round; stroke-linejoin:round; stroke-width:2; stroke-opacity:0.1; fill:none" points="1034.56,1423.18 1034.56,47.2441 "/>
<polyline clip-path="url(#clip382)" style="stroke:#000000; stroke-linecap:round; stroke-linejoin:round; stroke-width:2; stroke-opacity:0.1; fill:none" points="1473.96,1423.18 1473.96,47.2441 "/>
<polyline clip-path="url(#clip382)" style="stroke:#000000; stroke-linecap:round; stroke-linejoin:round; stroke-width:2; stroke-opacity:0.1; fill:none" points="1913.36,1423.18 1913.36,47.2441 "/>
<polyline clip-path="url(#clip382)" style="stroke:#000000; stroke-linecap:round; stroke-linejoin:round; stroke-width:2; stroke-opacity:0.1; fill:none" points="2352.76,1423.18 2352.76,47.2441 "/>
<polyline clip-path="url(#clip382)" style="stroke:#000000; stroke-linecap:round; stroke-linejoin:round; stroke-width:2; stroke-opacity:0.1; fill:none" points="155.765,1196.71 2352.76,1196.71 "/>
<polyline clip-path="url(#clip382)" style="stroke:#000000; stroke-linecap:round; stroke-linejoin:round; stroke-width:2; stroke-opacity:0.1; fill:none" points="155.765,933.233 2352.76,933.233 "/>
<polyline clip-path="url(#clip382)" style="stroke:#000000; stroke-linecap:round; stroke-linejoin:round; stroke-width:2; stroke-opacity:0.1; fill:none" points="155.765,669.759 2352.76,669.759 "/>
<polyline clip-path="url(#clip382)" style="stroke:#000000; stroke-linecap:round; stroke-linejoin:round; stroke-width:2; stroke-opacity:0.1; fill:none" points="155.765,406.285 2352.76,406.285 "/>
<polyline clip-path="url(#clip382)" style="stroke:#000000; stroke-linecap:round; stroke-linejoin:round; stroke-width:2; stroke-opacity:0.1; fill:none" points="155.765,142.812 2352.76,142.812 "/>
<polyline clip-path="url(#clip380)" style="stroke:#000000; stroke-linecap:round; stroke-linejoin:round; stroke-width:4; stroke-opacity:1; fill:none" points="155.765,1423.18 2352.76,1423.18 "/>
<polyline clip-path="url(#clip380)" style="stroke:#000000; stroke-linecap:round; stroke-linejoin:round; stroke-width:4; stroke-opacity:1; fill:none" points="155.765,1423.18 155.765,1404.28 "/>
<polyline clip-path="url(#clip380)" style="stroke:#000000; stroke-linecap:round; stroke-linejoin:round; stroke-width:4; stroke-opacity:1; fill:none" points="595.163,1423.18 595.163,1404.28 "/>
<polyline clip-path="url(#clip380)" style="stroke:#000000; stroke-linecap:round; stroke-linejoin:round; stroke-width:4; stroke-opacity:1; fill:none" points="1034.56,1423.18 1034.56,1404.28 "/>
<polyline clip-path="url(#clip380)" style="stroke:#000000; stroke-linecap:round; stroke-linejoin:round; stroke-width:4; stroke-opacity:1; fill:none" points="1473.96,1423.18 1473.96,1404.28 "/>
<polyline clip-path="url(#clip380)" style="stroke:#000000; stroke-linecap:round; stroke-linejoin:round; stroke-width:4; stroke-opacity:1; fill:none" points="1913.36,1423.18 1913.36,1404.28 "/>
<polyline clip-path="url(#clip380)" style="stroke:#000000; stroke-linecap:round; stroke-linejoin:round; stroke-width:4; stroke-opacity:1; fill:none" points="2352.76,1423.18 2352.76,1404.28 "/>
<path clip-path="url(#clip380)" d="M155.765 1454.1 Q152.154 1454.1 150.325 1457.66 Q148.52 1461.2 148.52 1468.33 Q148.52 1475.44 150.325 1479.01 Q152.154 1482.55 155.765 1482.55 Q159.399 1482.55 161.205 1479.01 Q163.033 1475.44 163.033 1468.33 Q163.033 1461.2 161.205 1457.66 Q159.399 1454.1 155.765 1454.1 M155.765 1450.39 Q161.575 1450.39 164.631 1455 Q167.709 1459.58 167.709 1468.33 Q167.709 1477.06 164.631 1481.67 Q161.575 1486.25 155.765 1486.25 Q149.955 1486.25 146.876 1481.67 Q143.821 1477.06 143.821 1468.33 Q143.821 1459.58 146.876 1455 Q149.955 1450.39 155.765 1450.39 Z" fill="#000000" fill-rule="nonzero" fill-opacity="1" /><path clip-path="url(#clip380)" d="M589.816 1481.64 L606.135 1481.64 L606.135 1485.58 L584.191 1485.58 L584.191 1481.64 Q586.853 1478.89 591.436 1474.26 Q596.043 1469.61 597.223 1468.27 Q599.469 1465.74 600.348 1464.01 Q601.251 1462.25 601.251 1460.56 Q601.251 1457.8 599.307 1456.07 Q597.385 1454.33 594.283 1454.33 Q592.084 1454.33 589.631 1455.09 Q587.2 1455.86 584.422 1457.41 L584.422 1452.69 Q587.246 1451.55 589.7 1450.97 Q592.154 1450.39 594.191 1450.39 Q599.561 1450.39 602.756 1453.08 Q605.95 1455.77 605.95 1460.26 Q605.95 1462.39 605.14 1464.31 Q604.353 1466.2 602.246 1468.8 Q601.668 1469.47 598.566 1472.69 Q595.464 1475.88 589.816 1481.64 Z" fill="#000000" fill-rule="nonzero" fill-opacity="1" /><path clip-path="url(#clip380)" d="M1037.57 1455.09 L1025.77 1473.54 L1037.57 1473.54 L1037.57 1455.09 M1036.34 1451.02 L1042.22 1451.02 L1042.22 1473.54 L1047.15 1473.54 L1047.15 1477.43 L1042.22 1477.43 L1042.22 1485.58 L1037.57 1485.58 L1037.57 1477.43 L1021.97 1477.43 L1021.97 1472.92 L1036.34 1451.02 Z" fill="#000000" fill-rule="nonzero" fill-opacity="1" /><path clip-path="url(#clip380)" d="M1474.36 1466.44 Q1471.22 1466.44 1469.36 1468.59 Q1467.54 1470.74 1467.54 1474.49 Q1467.54 1478.22 1469.36 1480.39 Q1471.22 1482.55 1474.36 1482.55 Q1477.51 1482.55 1479.34 1480.39 Q1481.19 1478.22 1481.19 1474.49 Q1481.19 1470.74 1479.34 1468.59 Q1477.51 1466.44 1474.36 1466.44 M1483.65 1451.78 L1483.65 1456.04 Q1481.89 1455.21 1480.08 1454.77 Q1478.3 1454.33 1476.54 1454.33 Q1471.91 1454.33 1469.46 1457.45 Q1467.03 1460.58 1466.68 1466.9 Q1468.05 1464.89 1470.11 1463.82 Q1472.17 1462.73 1474.64 1462.73 Q1479.85 1462.73 1482.86 1465.9 Q1485.89 1469.05 1485.89 1474.49 Q1485.89 1479.82 1482.74 1483.03 Q1479.6 1486.25 1474.36 1486.25 Q1468.37 1486.25 1465.2 1481.67 Q1462.03 1477.06 1462.03 1468.33 Q1462.03 1460.14 1465.92 1455.28 Q1469.8 1450.39 1476.36 1450.39 Q1478.11 1450.39 1479.9 1450.74 Q1481.7 1451.09 1483.65 1451.78 Z" fill="#000000" fill-rule="nonzero" fill-opacity="1" /><path clip-path="url(#clip380)" d="M1913.36 1469.17 Q1910.02 1469.17 1908.1 1470.95 Q1906.2 1472.73 1906.2 1475.86 Q1906.2 1478.98 1908.1 1480.77 Q1910.02 1482.55 1913.36 1482.55 Q1916.69 1482.55 1918.61 1480.77 Q1920.53 1478.96 1920.53 1475.86 Q1920.53 1472.73 1918.61 1470.95 Q1916.71 1469.17 1913.36 1469.17 M1908.68 1467.18 Q1905.67 1466.44 1903.98 1464.38 Q1902.32 1462.32 1902.32 1459.35 Q1902.32 1455.21 1905.26 1452.8 Q1908.22 1450.39 1913.36 1450.39 Q1918.52 1450.39 1921.46 1452.8 Q1924.4 1455.21 1924.4 1459.35 Q1924.4 1462.32 1922.71 1464.38 Q1921.04 1466.44 1918.06 1467.18 Q1921.44 1467.96 1923.31 1470.26 Q1925.21 1472.55 1925.21 1475.86 Q1925.21 1480.88 1922.13 1483.57 Q1919.08 1486.25 1913.36 1486.25 Q1907.64 1486.25 1904.56 1483.57 Q1901.51 1480.88 1901.51 1475.86 Q1901.51 1472.55 1903.4 1470.26 Q1905.3 1467.96 1908.68 1467.18 M1906.97 1459.79 Q1906.97 1462.48 1908.64 1463.98 Q1910.33 1465.49 1913.36 1465.49 Q1916.37 1465.49 1918.06 1463.98 Q1919.77 1462.48 1919.77 1459.79 Q1919.77 1457.11 1918.06 1455.6 Q1916.37 1454.1 1913.36 1454.1 Q1910.33 1454.1 1908.64 1455.6 Q1906.97 1457.11 1906.97 1459.79 Z" fill="#000000" fill-rule="nonzero" fill-opacity="1" /><path clip-path="url(#clip380)" d="M2327.44 1481.64 L2335.08 1481.64 L2335.08 1455.28 L2326.77 1456.95 L2326.77 1452.69 L2335.04 1451.02 L2339.71 1451.02 L2339.71 1481.64 L2347.35 1481.64 L2347.35 1485.58 L2327.44 1485.58 L2327.44 1481.64 Z" fill="#000000" fill-rule="nonzero" fill-opacity="1" /><path clip-path="url(#clip380)" d="M2366.8 1454.1 Q2363.18 1454.1 2361.36 1457.66 Q2359.55 1461.2 2359.55 1468.33 Q2359.55 1475.44 2361.36 1479.01 Q2363.18 1482.55 2366.8 1482.55 Q2370.43 1482.55 2372.23 1479.01 Q2374.06 1475.44 2374.06 1468.33 Q2374.06 1461.2 2372.23 1457.66 Q2370.43 1454.1 2366.8 1454.1 M2366.8 1450.39 Q2372.61 1450.39 2375.66 1455 Q2378.74 1459.58 2378.74 1468.33 Q2378.74 1477.06 2375.66 1481.67 Q2372.61 1486.25 2366.8 1486.25 Q2360.99 1486.25 2357.91 1481.67 Q2354.85 1477.06 2354.85 1468.33 Q2354.85 1459.58 2357.91 1455 Q2360.99 1450.39 2366.8 1450.39 Z" fill="#000000" fill-rule="nonzero" fill-opacity="1" /><path clip-path="url(#clip380)" d="M1253.32 1522.27 L1253.32 1532.4 L1265.38 1532.4 L1265.38 1536.95 L1253.32 1536.95 L1253.32 1556.3 Q1253.32 1560.66 1254.5 1561.9 Q1255.71 1563.14 1259.37 1563.14 L1265.38 1563.14 L1265.38 1568.04 L1259.37 1568.04 Q1252.59 1568.04 1250.01 1565.53 Q1247.43 1562.98 1247.43 1556.3 L1247.43 1536.95 L1243.14 1536.95 L1243.14 1532.4 L1247.43 1532.4 L1247.43 1522.27 L1253.32 1522.27 Z" fill="#000000" fill-rule="nonzero" fill-opacity="1" /><polyline clip-path="url(#clip380)" style="stroke:#000000; stroke-linecap:round; stroke-linejoin:round; stroke-width:4; stroke-opacity:1; fill:none" points="155.765,1423.18 155.765,47.2441 "/>
<polyline clip-path="url(#clip380)" style="stroke:#000000; stroke-linecap:round; stroke-linejoin:round; stroke-width:4; stroke-opacity:1; fill:none" points="155.765,1196.71 174.663,1196.71 "/>
<polyline clip-path="url(#clip380)" style="stroke:#000000; stroke-linecap:round; stroke-linejoin:round; stroke-width:4; stroke-opacity:1; fill:none" points="155.765,933.233 174.663,933.233 "/>
<polyline clip-path="url(#clip380)" style="stroke:#000000; stroke-linecap:round; stroke-linejoin:round; stroke-width:4; stroke-opacity:1; fill:none" points="155.765,669.759 174.663,669.759 "/>
<polyline clip-path="url(#clip380)" style="stroke:#000000; stroke-linecap:round; stroke-linejoin:round; stroke-width:4; stroke-opacity:1; fill:none" points="155.765,406.285 174.663,406.285 "/>
<polyline clip-path="url(#clip380)" style="stroke:#000000; stroke-linecap:round; stroke-linejoin:round; stroke-width:4; stroke-opacity:1; fill:none" points="155.765,142.812 174.663,142.812 "/>
<path clip-path="url(#clip380)" d="M63.5847 1182.51 Q59.9736 1182.51 58.1449 1186.07 Q56.3393 1189.61 56.3393 1196.74 Q56.3393 1203.85 58.1449 1207.41 Q59.9736 1210.95 63.5847 1210.95 Q67.2189 1210.95 69.0244 1207.41 Q70.8531 1203.85 70.8531 1196.74 Q70.8531 1189.61 69.0244 1186.07 Q67.2189 1182.51 63.5847 1182.51 M63.5847 1178.8 Q69.3948 1178.8 72.4503 1183.41 Q75.529 1187.99 75.529 1196.74 Q75.529 1205.47 72.4503 1210.07 Q69.3948 1214.66 63.5847 1214.66 Q57.7745 1214.66 54.6958 1210.07 Q51.6403 1205.47 51.6403 1196.74 Q51.6403 1187.99 54.6958 1183.41 Q57.7745 1178.8 63.5847 1178.8 Z" fill="#000000" fill-rule="nonzero" fill-opacity="1" /><path clip-path="url(#clip380)" d="M83.7466 1208.11 L88.6308 1208.11 L88.6308 1213.99 L83.7466 1213.99 L83.7466 1208.11 Z" fill="#000000" fill-rule="nonzero" fill-opacity="1" /><path clip-path="url(#clip380)" d="M98.8622 1179.43 L117.219 1179.43 L117.219 1183.36 L103.145 1183.36 L103.145 1191.83 Q104.163 1191.49 105.182 1191.32 Q106.2 1191.14 107.219 1191.14 Q113.006 1191.14 116.385 1194.31 Q119.765 1197.48 119.765 1202.9 Q119.765 1208.48 116.293 1211.58 Q112.82 1214.66 106.501 1214.66 Q104.325 1214.66 102.057 1214.29 Q99.8113 1213.92 97.4039 1213.18 L97.4039 1208.48 Q99.4872 1209.61 101.709 1210.17 Q103.932 1210.72 106.408 1210.72 Q110.413 1210.72 112.751 1208.62 Q115.089 1206.51 115.089 1202.9 Q115.089 1199.29 112.751 1197.18 Q110.413 1195.07 106.408 1195.07 Q104.534 1195.07 102.659 1195.49 Q100.807 1195.91 98.8622 1196.79 L98.8622 1179.43 Z" fill="#000000" fill-rule="nonzero" fill-opacity="1" /><path clip-path="url(#clip380)" d="M53.3995 946.578 L61.0384 946.578 L61.0384 920.212 L52.7282 921.879 L52.7282 917.62 L60.9921 915.953 L65.668 915.953 L65.668 946.578 L73.3068 946.578 L73.3068 950.513 L53.3995 950.513 L53.3995 946.578 Z" fill="#000000" fill-rule="nonzero" fill-opacity="1" /><path clip-path="url(#clip380)" d="M82.7512 944.633 L87.6354 944.633 L87.6354 950.513 L82.7512 950.513 L82.7512 944.633 Z" fill="#000000" fill-rule="nonzero" fill-opacity="1" /><path clip-path="url(#clip380)" d="M107.821 919.032 Q104.209 919.032 102.381 922.596 Q100.575 926.138 100.575 933.268 Q100.575 940.374 102.381 943.939 Q104.209 947.481 107.821 947.481 Q111.455 947.481 113.26 943.939 Q115.089 940.374 115.089 933.268 Q115.089 926.138 113.26 922.596 Q111.455 919.032 107.821 919.032 M107.821 915.328 Q113.631 915.328 116.686 919.934 Q119.765 924.518 119.765 933.268 Q119.765 941.994 116.686 946.601 Q113.631 951.184 107.821 951.184 Q102.01 951.184 98.9317 946.601 Q95.8761 941.994 95.8761 933.268 Q95.8761 924.518 98.9317 919.934 Q102.01 915.328 107.821 915.328 Z" fill="#000000" fill-rule="nonzero" fill-opacity="1" /><path clip-path="url(#clip380)" d="M54.3949 683.104 L62.0337 683.104 L62.0337 656.738 L53.7236 658.405 L53.7236 654.146 L61.9874 652.479 L66.6633 652.479 L66.6633 683.104 L74.3022 683.104 L74.3022 687.039 L54.3949 687.039 L54.3949 683.104 Z" fill="#000000" fill-rule="nonzero" fill-opacity="1" /><path clip-path="url(#clip380)" d="M83.7466 681.16 L88.6308 681.16 L88.6308 687.039 L83.7466 687.039 L83.7466 681.16 Z" fill="#000000" fill-rule="nonzero" fill-opacity="1" /><path clip-path="url(#clip380)" d="M98.8622 652.479 L117.219 652.479 L117.219 656.414 L103.145 656.414 L103.145 664.886 Q104.163 664.539 105.182 664.377 Q106.2 664.192 107.219 664.192 Q113.006 664.192 116.385 667.363 Q119.765 670.535 119.765 675.951 Q119.765 681.53 116.293 684.632 Q112.82 687.71 106.501 687.71 Q104.325 687.71 102.057 687.34 Q99.8113 686.97 97.4039 686.229 L97.4039 681.53 Q99.4872 682.664 101.709 683.22 Q103.932 683.775 106.408 683.775 Q110.413 683.775 112.751 681.669 Q115.089 679.562 115.089 675.951 Q115.089 672.34 112.751 670.234 Q110.413 668.127 106.408 668.127 Q104.534 668.127 102.659 668.544 Q100.807 668.961 98.8622 669.84 L98.8622 652.479 Z" fill="#000000" fill-rule="nonzero" fill-opacity="1" /><path clip-path="url(#clip380)" d="M56.6171 419.63 L72.9365 419.63 L72.9365 423.565 L50.9921 423.565 L50.9921 419.63 Q53.6541 416.876 58.2375 412.246 Q62.8439 407.593 64.0245 406.251 Q66.2698 403.727 67.1494 401.991 Q68.0522 400.232 68.0522 398.542 Q68.0522 395.788 66.1078 394.052 Q64.1865 392.316 61.0847 392.316 Q58.8856 392.316 56.4319 393.079 Q54.0014 393.843 51.2236 395.394 L51.2236 390.672 Q54.0477 389.538 56.5014 388.959 Q58.955 388.38 60.9921 388.38 Q66.3624 388.38 69.5568 391.066 Q72.7513 393.751 72.7513 398.241 Q72.7513 400.371 71.9411 402.292 Q71.1541 404.19 69.0476 406.783 Q68.4689 407.454 65.367 410.672 Q62.2652 413.866 56.6171 419.63 Z" fill="#000000" fill-rule="nonzero" fill-opacity="1" /><path clip-path="url(#clip380)" d="M82.7512 417.686 L87.6354 417.686 L87.6354 423.565 L82.7512 423.565 L82.7512 417.686 Z" fill="#000000" fill-rule="nonzero" fill-opacity="1" /><path clip-path="url(#clip380)" d="M107.821 392.084 Q104.209 392.084 102.381 395.649 Q100.575 399.19 100.575 406.32 Q100.575 413.427 102.381 416.991 Q104.209 420.533 107.821 420.533 Q111.455 420.533 113.26 416.991 Q115.089 413.427 115.089 406.32 Q115.089 399.19 113.26 395.649 Q111.455 392.084 107.821 392.084 M107.821 388.38 Q113.631 388.38 116.686 392.987 Q119.765 397.57 119.765 406.32 Q119.765 415.047 116.686 419.653 Q113.631 424.237 107.821 424.237 Q102.01 424.237 98.9317 419.653 Q95.8761 415.047 95.8761 406.32 Q95.8761 397.57 98.9317 392.987 Q102.01 388.38 107.821 388.38 Z" fill="#000000" fill-rule="nonzero" fill-opacity="1" /><path clip-path="url(#clip380)" d="M57.6125 156.156 L73.9318 156.156 L73.9318 160.092 L51.9875 160.092 L51.9875 156.156 Q54.6495 153.402 59.2328 148.772 Q63.8393 144.119 65.0198 142.777 Q67.2652 140.254 68.1448 138.518 Q69.0476 136.758 69.0476 135.069 Q69.0476 132.314 67.1032 130.578 Q65.1819 128.842 62.08 128.842 Q59.881 128.842 57.4273 129.606 Q54.9967 130.369 52.219 131.92 L52.219 127.198 Q55.043 126.064 57.4967 125.485 Q59.9504 124.907 61.9874 124.907 Q67.3578 124.907 70.5522 127.592 Q73.7466 130.277 73.7466 134.768 Q73.7466 136.897 72.9365 138.819 Q72.1494 140.717 70.0429 143.309 Q69.4642 143.981 66.3624 147.198 Q63.2606 150.393 57.6125 156.156 Z" fill="#000000" fill-rule="nonzero" fill-opacity="1" /><path clip-path="url(#clip380)" d="M83.7466 154.212 L88.6308 154.212 L88.6308 160.092 L83.7466 160.092 L83.7466 154.212 Z" fill="#000000" fill-rule="nonzero" fill-opacity="1" /><path clip-path="url(#clip380)" d="M98.8622 125.532 L117.219 125.532 L117.219 129.467 L103.145 129.467 L103.145 137.939 Q104.163 137.592 105.182 137.43 Q106.2 137.244 107.219 137.244 Q113.006 137.244 116.385 140.416 Q119.765 143.587 119.765 149.004 Q119.765 154.582 116.293 157.684 Q112.82 160.763 106.501 160.763 Q104.325 160.763 102.057 160.392 Q99.8113 160.022 97.4039 159.281 L97.4039 154.582 Q99.4872 155.717 101.709 156.272 Q103.932 156.828 106.408 156.828 Q110.413 156.828 112.751 154.721 Q115.089 152.615 115.089 149.004 Q115.089 145.393 112.751 143.286 Q110.413 141.18 106.408 141.18 Q104.534 141.18 102.659 141.596 Q100.807 142.013 98.8622 142.893 L98.8622 125.532 Z" fill="#000000" fill-rule="nonzero" fill-opacity="1" /><polyline clip-path="url(#clip382)" style="stroke:#009af9; stroke-linecap:round; stroke-linejoin:round; stroke-width:8; stroke-opacity:1; fill:none" points="155.765,1354.79 157.964,1353.73 160.163,1352.66 162.362,1351.58 164.562,1350.49 166.761,1349.38 168.96,1348.27 171.159,1347.14 173.358,1346 175.558,1344.86 177.757,1343.7 179.956,1342.52 182.155,1341.34 184.354,1340.14 186.554,1338.94 188.753,1337.72 190.952,1336.48 193.151,1335.24 195.35,1333.98 197.55,1332.71 199.749,1331.43 201.948,1330.14 204.147,1328.83 206.346,1327.51 208.545,1326.17 210.745,1324.82 212.944,1323.46 215.143,1322.09 217.342,1320.7 219.541,1319.29 221.741,1317.88 223.94,1316.45 226.139,1315 228.338,1313.54 230.537,1312.06 232.737,1310.57 234.936,1309.07 237.135,1307.55 239.334,1306.01 241.533,1304.46 243.733,1302.89 245.932,1301.31 248.131,1299.71 250.33,1298.1 252.529,1296.47 254.728,1294.82 256.928,1293.16 259.127,1291.48 261.326,1289.78 263.525,1288.07 265.724,1286.34 267.924,1284.59 270.123,1282.82 272.322,1281.04 274.521,1279.23 276.72,1277.41 278.92,1275.57 281.119,1273.72 283.318,1271.84 285.517,1269.95 287.716,1268.03 289.916,1266.1 292.115,1264.15 294.314,1262.18 296.513,1260.18 298.712,1258.17 300.911,1256.14 303.111,1254.09 305.31,1252.01 307.509,1249.92 309.708,1247.8 311.907,1245.67 314.107,1243.51 316.306,1241.33 318.505,1239.13 320.704,1236.9 322.903,1234.66 325.103,1232.39 327.302,1230.1 329.501,1227.78 331.7,1225.44 333.899,1223.08 336.099,1220.7 338.298,1218.29 340.497,1215.85 342.696,1213.4 344.895,1210.91 347.094,1208.41 349.294,1205.87 351.493,1203.31 353.692,1200.73 355.891,1198.12 358.09,1195.48 360.29,1192.82 362.489,1190.13 364.688,1187.41 366.887,1184.67 369.086,1181.9 371.286,1179.1 373.485,1176.27 375.684,1173.42 377.883,1170.53 380.082,1167.62 382.281,1164.67 384.481,1161.7 386.68,1158.7 388.879,1155.66 391.078,1152.6 393.277,1149.51 395.477,1146.38 397.676,1143.22 399.875,1140.04 402.074,1136.81 404.273,1133.56 406.473,1130.28 408.672,1126.96 410.871,1123.6 413.07,1120.22 415.269,1116.8 417.469,1113.34 419.668,1285.02 421.867,1283.26 424.066,1281.48 426.265,1279.68 428.464,1277.86 430.664,1276.03 432.863,1274.17 435.062,1272.3 437.261,1270.41 439.46,1268.5 441.66,1266.58 443.859,1264.63 446.058,1262.66 448.257,1260.67 450.456,1258.67 452.656,1256.64 454.855,1254.59 457.054,1252.52 459.253,1250.43 461.452,1248.32 463.652,1246.19 465.851,1244.04 468.05,1241.87 470.249,1239.67 472.448,1237.45 474.647,1235.21 476.847,1232.95 479.046,1230.66 481.245,1228.35 483.444,1226.02 485.643,1223.66 487.843,1221.28 490.042,1218.88 492.241,1216.45 494.44,1214 496.639,1211.53 498.839,1209.02 501.038,1206.5 503.237,1203.94 505.436,1201.37 507.635,1198.76 509.835,1196.13 512.034,1193.48 514.233,1190.79 516.432,1188.08 518.631,1185.35 520.83,1182.58 523.03,1179.79 525.229,1176.97 527.428,1174.12 529.627,1315.71 531.826,1314.26 534.026,1312.79 536.225,1311.31 538.424,1309.81 540.623,1384.24 542.822,1383.47 545.022,1382.7 547.221,1381.92 549.42,1381.14 551.619,1380.34 553.818,1379.54 556.018,1378.73 558.217,1377.91 560.416,1377.08 562.615,1376.24 564.814,1375.4 567.013,1374.55 569.213,1373.68 571.412,1372.81 573.611,1371.93 575.81,1371.05 578.009,1370.15 580.209,1369.24 582.408,1368.33 584.607,1367.41 586.806,1366.47 589.005,1365.53 591.205,1364.58 593.404,1363.62 595.603,1362.64 597.802,1361.66 600.001,1360.67 602.201,1359.67 604.4,1358.66 606.599,1357.64 608.798,1356.61 610.997,1355.56 613.196,1354.51 615.396,1353.45 617.595,1352.38 619.794,1351.29 621.993,1350.2 624.192,1349.09 626.392,1347.97 628.591,1346.84 630.79,1345.7 632.989,1344.55 635.188,1343.39 637.388,1342.21 639.587,1341.03 641.786,1339.83 643.985,1338.62 646.184,1337.39 648.384,1336.16 650.583,1334.91 652.782,1333.65 654.981,1332.38 657.18,1331.09 659.379,1329.79 661.579,1328.48 663.778,1327.16 665.977,1325.82 668.176,1324.47 670.375,1323.1 672.575,1321.72 674.774,1320.33 676.973,1318.92 679.172,1317.5 681.371,1316.07 683.571,1314.62 685.77,1313.15 687.969,1311.67 690.168,1310.18 692.367,1308.67 694.567,1307.14 696.766,1305.61 698.965,1304.05 701.164,1302.48 703.363,1300.89 705.562,1299.29 707.762,1297.67 709.961,1296.04 712.16,1294.39 714.359,1292.72 716.558,1291.03 718.758,1289.33 720.957,1287.61 723.156,1285.88 725.355,1284.12 727.554,1282.35 729.754,1280.56 731.953,1278.76 734.152,1276.93 736.351,1275.09 738.55,1273.22 740.749,1271.34 742.949,1269.44 745.148,1267.52 747.347,1265.59 749.546,1263.63 751.745,1261.65 753.945,1259.65 756.144,1257.64 758.343,1255.6 760.542,1253.54 762.741,1251.46 764.941,1249.36 767.14,1247.24 769.339,1245.1 771.538,1242.94 773.737,1240.75 775.937,1238.54 778.136,1236.31 780.335,1234.06 782.534,1231.79 784.733,1229.49 786.932,1227.17 789.132,1224.82 791.331,1222.46 793.53,1220.07 795.729,1217.65 797.928,1215.21 800.128,1212.75 802.327,1210.26 804.526,1207.74 806.725,1205.2 808.924,1202.64 811.124,1200.05 813.323,1197.43 815.522,1194.79 817.721,1192.12 819.92,1189.42 822.12,1186.69 824.319,1183.94 826.518,1181.16 828.717,1178.36 830.916,1175.52 833.115,1172.66 835.315,1169.76 837.514,1166.84 839.713,1163.89 841.912,1160.91 844.111,1157.9 846.311,1154.86 848.51,1151.79 850.709,1148.69 852.908,1145.55 855.107,1142.39 857.307,1139.19 859.506,1135.96 861.705,1132.7 863.904,1129.4 866.103,1126.08 868.303,1122.72 870.502,1119.32 872.701,1115.89 874.9,1112.43 877.099,1108.93 879.298,1105.4 881.498,1101.83 883.697,1098.22 885.896,1094.58 888.095,1090.9 890.294,1087.19 892.494,1083.43 894.693,1269.91 896.892,1268 899.091,1266.06 901.29,1264.11 903.49,1262.14 905.689,1260.15 907.888,1258.13 910.087,1256.1 912.286,1254.05 914.486,1251.97 916.685,1249.88 918.884,1247.76 921.083,1245.63 923.282,1243.47 925.481,1241.29 927.681,1239.09 929.88,1236.86 932.079,1234.62 934.278,1232.35 936.477,1230.05 938.677,1227.74 940.876,1225.4 943.075,1223.04 945.274,1220.65 947.473,1218.24 949.673,1215.81 951.872,1213.35 954.071,1210.87 956.27,1208.36 958.469,1205.83 960.669,1203.27 962.868,1200.68 965.067,1198.07 967.266,1195.44 969.465,1192.77 971.664,1190.08 973.864,1187.37 976.063,1184.62 978.262,1181.85 980.461,1179.05 982.66,1176.22 984.86,1173.36 987.059,1170.48 989.258,1167.56 991.457,1164.62 993.656,1161.65 995.856,1158.64 998.055,1155.61 1000.25,1152.54 1002.45,1149.45 1004.65,1146.32 1006.85,1143.17 1009.05,1139.98 1011.25,1136.76 1013.45,1133.5 1015.65,1130.22 1017.85,1126.9 1020.05,1123.54 1022.25,1120.16 1024.45,1116.74 1026.64,1113.28 1028.84,1109.79 1031.04,1106.27 1033.24,1102.7 1035.44,1099.11 1037.64,1095.48 1039.84,1091.81 1042.04,1088.1 1044.24,1084.36 1046.44,1080.58 1048.64,1076.76 1050.84,1072.9 1053.03,1069.01 1055.23,1065.07 1057.43,1061.1 1059.63,1057.08 1061.83,1053.03 1064.03,1048.93 1066.23,1044.79 1068.43,1040.61 1070.63,1036.39 1072.83,1032.13 1075.03,1027.82 1077.23,1023.47 1079.42,1019.08 1081.62,1014.64 1083.82,1010.16 1086.02,1005.63 1088.22,1001.06 1090.42,996.44 1092.62,991.775 1094.82,987.062 1097.02,982.303 1099.22,977.495 1101.42,972.639 1103.62,967.734 1105.82,962.78 1108.01,957.776 1110.21,952.721 1112.41,947.616 1114.61,942.459 1116.81,937.251 1119.01,931.99 1121.21,926.676 1123.41,921.309 1125.61,915.888 1127.81,910.412 1130.01,904.881 1132.21,899.294 1134.4,893.652 1136.6,887.952 1138.8,882.196 1141,876.381 1143.2,870.508 1145.4,864.576 1147.6,858.584 1149.8,852.532 1152,846.42 1154.2,840.245 1156.4,834.009 1158.6,827.71 1160.79,821.347 1162.99,814.921 1165.19,808.429 1167.39,801.873 1169.59,795.25 1171.79,788.561 1173.99,781.805 1176.19,774.98 1178.39,768.087 1180.59,761.125 1182.79,754.092 1184.99,746.989 1187.19,739.814 1189.38,732.567 1191.58,725.247 1193.78,717.853 1195.98,710.385 1198.18,702.841 1200.38,695.222 1202.58,687.526 1204.78,679.753 1206.98,671.901 1209.18,663.97 1211.38,655.96 1213.58,647.869 1215.77,639.696 1217.97,631.442 1220.17,623.104 1222.37,614.683 1224.57,606.177 1226.77,1028.88 1228.97,1024.54 1231.17,1020.16 1233.37,1015.74 1235.57,1011.26 1237.77,1006.75 1239.97,1002.19 1242.16,997.579 1244.36,992.925 1246.56,988.224 1248.76,983.476 1250.96,978.68 1253.16,973.836 1255.36,968.943 1257.56,964.002 1259.76,959.01 1261.96,953.968 1264.16,948.875 1266.36,943.732 1268.56,938.536 1270.75,933.288 1272.95,927.988 1275.15,922.634 1277.35,917.226 1279.55,911.764 1281.75,906.246 1283.95,900.674 1286.15,895.045 1288.35,889.359 1290.55,883.617 1292.75,877.816 1294.95,871.958 1297.14,866.04 1299.34,860.063 1301.54,854.025 1303.74,847.927 1305.94,841.767 1308.14,835.546 1310.34,829.262 1312.54,1141.55 1314.74,1138.35 1316.94,1135.11 1319.14,1131.84 1321.34,1128.53 1323.53,1125.2 1325.73,1121.83 1327.93,1118.42 1330.13,1114.98 1332.33,1111.51 1334.53,1108 1336.73,1104.46 1338.93,1100.88 1341.13,1097.27 1343.33,1093.62 1345.53,1089.93 1347.73,1086.2 1349.93,1082.44 1352.12,1078.64 1354.32,1074.8 1356.52,1070.93 1358.72,1067.01 1360.92,1063.06 1363.12,1059.06 1365.32,1055.03 1367.52,1050.95 1369.72,1046.83 1371.92,1042.68 1374.12,1038.48 1376.32,1034.23 1378.51,1029.95 1380.71,1025.62 1382.91,1021.25 1385.11,1016.83 1387.31,1012.37 1389.51,1007.87 1391.71,1003.32 1393.91,998.723 1396.11,994.081 1398.31,989.391 1400.51,984.655 1402.71,979.871 1404.9,975.039 1407.1,970.158 1409.3,965.228 1411.5,960.249 1413.7,955.219 1415.9,950.138 1418.1,945.007 1420.3,939.824 1422.5,934.589 1424.7,929.301 1426.9,923.96 1429.1,918.565 1431.3,913.116 1433.49,907.612 1435.69,902.053 1437.89,896.438 1440.09,890.766 1442.29,885.038 1444.49,879.251 1446.69,873.407 1448.89,867.503 1451.09,861.54 1453.29,855.517 1455.49,849.434 1457.69,843.289 1459.88,837.083 1462.08,830.814 1464.28,824.482 1466.48,818.087 1468.68,811.627 1470.88,805.103 1473.08,798.513 1475.28,791.857 1477.48,785.134 1479.68,778.343 1481.88,771.484 1484.08,764.557 1486.27,757.559 1488.47,750.492 1490.67,743.353 1492.87,736.143 1495.07,728.86 1497.27,721.505 1499.47,714.075 1501.67,706.57 1503.87,698.99 1506.07,691.334 1508.27,683.601 1510.47,675.79 1512.67,667.901 1514.86,659.932 1517.06,651.883 1519.26,643.753 1521.46,635.541 1523.66,627.246 1525.86,618.868 1528.06,610.405 1530.26,601.858 1532.46,593.224 1534.66,584.503 1536.86,575.695 1539.06,566.797 1541.25,557.81 1543.45,548.732 1545.65,539.563 1547.85,530.302 1550.05,520.947 1552.25,511.498 1554.45,501.954 1556.65,492.313 1558.85,482.575 1561.05,472.739 1563.25,462.804 1565.45,452.769 1567.65,442.633 1569.84,432.395 1572.04,422.053 1574.24,411.608 1576.44,401.057 1578.64,390.4 1580.84,379.636 1583.04,368.763 1585.24,357.781 1587.44,346.688 1589.64,335.484 1591.84,324.167 1594.04,312.737 1596.23,301.192 1598.43,289.53 1600.63,277.752 1602.83,265.855 1605.03,253.839 1607.23,241.703 1609.43,229.445 1611.63,217.063 1613.83,204.557 1616.03,191.925 1618.23,179.166 1620.43,166.279 1622.62,153.262 1624.82,140.114 1627.02,126.833 1629.22,113.42 1631.42,99.8708 1633.62,86.1857 1635.82,766.269 1638.02,759.288 1640.22,752.236 1642.42,745.114 1644.62,737.92 1646.82,730.654 1649.02,723.315 1651.21,715.902 1653.41,708.414 1655.61,700.851 1657.81,693.212 1660.01,685.496 1662.21,677.703 1664.41,669.831 1666.61,661.88 1668.81,653.849 1671.01,645.737 1673.21,637.543 1675.41,629.267 1677.6,620.908 1679.8,612.465 1682,603.937 1684.2,595.323 1686.4,586.622 1688.6,577.834 1690.8,568.957 1693,559.991 1695.2,550.935 1697.4,1000.99 1699.6,996.369 1701.8,991.703 1703.99,986.99 1706.19,982.23 1708.39,977.421 1710.59,972.564 1712.79,967.659 1714.99,962.704 1717.19,957.699 1719.39,952.644 1721.59,947.538 1723.79,942.38 1725.99,937.171 1728.19,931.91 1730.39,926.595 1732.58,921.227 1734.78,915.806 1736.98,910.329 1739.18,904.798 1741.38,899.211 1743.58,893.568 1745.78,887.868 1747.98,882.111 1750.18,876.295 1752.38,870.422 1754.58,864.489 1756.78,858.497 1758.97,852.444 1761.17,846.33 1763.37,840.155 1765.57,833.918 1767.77,827.618 1769.97,821.254 1772.17,814.826 1774.37,808.334 1776.57,801.776 1778.77,795.153 1780.97,788.462 1783.17,781.705 1785.36,774.879 1787.56,767.984 1789.76,761.021 1791.96,753.987 1794.16,746.882 1796.36,739.705 1798.56,732.457 1800.76,725.135 1802.96,717.74 1805.16,710.271 1807.36,702.726 1809.56,695.105 1811.76,687.408 1813.95,679.633 1816.15,671.78 1818.35,663.849 1820.55,655.837 1822.75,647.745 1824.95,1049.89 1827.15,1045.76 1829.35,1250.88 1831.55,1248.78 1833.75,1246.65 1835.95,1244.5 1838.15,1242.33 1840.34,1240.14 1842.54,1237.93 1844.74,1235.69 1846.94,1233.43 1849.14,1231.15 1851.34,1228.85 1853.54,1226.52 1855.74,1224.17 1857.94,1221.8 1860.14,1219.4 1862.34,1216.98 1864.54,1214.53 1866.73,1212.06 1868.93,1209.56 1871.13,1207.04 1873.33,1204.5 1875.53,1201.92 1877.73,1199.33 1879.93,1196.7 1882.13,1194.05 1884.33,1191.37 1886.53,1188.67 1888.73,1185.94 1890.93,1183.18 1893.13,1180.39 1895.32,1177.58 1897.52,1174.74 1899.72,1171.87 1901.92,1168.97 1904.12,1166.04 1906.32,1163.08 1908.52,1160.09 1910.72,1157.07 1912.92,1154.02 1915.12,1150.94 1917.32,1147.83 1919.52,1144.69 1921.71,1141.52 1923.91,1138.31 1926.11,1135.07 1928.31,1131.8 1930.51,1128.5 1932.71,1125.16 1934.91,1121.79 1937.11,1118.39 1939.31,1114.95 1941.51,1111.48 1943.71,1107.97 1945.91,1104.42 1948.1,1100.84 1950.3,1097.23 1952.5,1093.58 1954.7,1089.89 1956.9,1086.16 1959.1,1082.4 1961.3,1078.6 1963.5,1074.76 1965.7,1070.88 1967.9,1066.96 1970.1,1063.01 1972.3,1059.01 1974.5,1054.97 1976.69,1050.9 1978.89,1046.78 1981.09,1042.62 1983.29,1038.42 1985.49,1034.18 1987.69,1029.89 1989.89,1025.56 1992.09,1021.19 1994.29,1016.77 1996.49,1012.31 1998.69,1007.81 2000.89,1003.25 2003.08,998.656 2005.28,994.013 2007.48,989.323 2009.68,984.586 2011.88,979.801 2014.08,974.968 2016.28,970.086 2018.48,965.156 2020.68,960.176 2022.88,955.146 2025.08,950.065 2027.28,944.934 2029.47,939.751 2031.67,934.516 2033.87,929.228 2036.07,923.888 2038.27,918.494 2040.47,913.045 2042.67,907.542 2044.87,901.984 2047.07,896.37 2049.27,890.699 2051.47,884.972 2053.67,879.187 2055.87,873.343 2058.06,867.441 2060.26,861.48 2062.46,855.459 2064.66,849.377 2066.86,843.234 2069.06,837.029 2071.26,830.762 2073.46,824.432 2075.66,818.038 2077.86,811.579 2080.06,805.056 2082.26,798.467 2084.45,791.811 2086.65,785.089 2088.85,778.298 2091.05,771.44 2093.25,764.512 2095.45,757.514 2097.65,750.446 2099.85,743.306 2102.05,736.095 2104.25,728.811 2106.45,721.453 2108.65,714.021 2110.84,706.514 2113.04,698.932 2115.24,691.273 2117.44,683.537 2119.64,675.723 2121.84,667.83 2124.04,659.857 2126.24,651.804 2128.44,643.67 2130.64,635.454 2132.84,627.155 2135.04,618.773 2137.24,610.306 2139.43,601.754 2141.63,593.115 2143.83,584.39 2146.03,575.577 2148.23,566.675 2150.43,557.684 2152.63,548.602 2154.83,539.429 2157.03,530.164 2159.23,520.806 2161.43,511.354 2163.63,501.807 2165.82,492.164 2168.02,482.425 2170.22,472.588 2172.42,961.42 2174.62,956.402 2176.82,951.334 2179.02,946.214 2181.22,941.043 2183.42,935.82 2185.62,930.544 2187.82,925.216 2190.02,919.833 2192.22,914.397 2194.41,908.906 2196.61,903.36 2198.81,897.758 2201.01,892.1 2203.21,886.385 2205.41,880.612 2207.61,874.782 2209.81,868.893 2212.01,862.946 2214.21,856.938 2216.41,850.87 2218.61,844.741 2220.8,838.551 2223,832.298 2225.2,825.983 2227.4,819.604 2229.6,813.161 2231.8,806.654 2234,800.081 2236.2,793.442 2238.4,786.736 2240.6,779.963 2242.8,773.122 2245,766.212 2247.19,759.233 2249.39,752.183 2251.59,745.062 2253.79,737.87 2255.99,730.605 2258.19,723.268 2260.39,715.856 2262.59,708.37 2264.79,700.808 2266.99,693.17 2269.19,685.455 2271.39,677.663 2273.59,669.792 2275.78,661.841 2277.98,653.811 2280.18,645.699 2282.38,637.506 2284.58,629.23 2286.78,620.87 2288.98,612.427 2291.18,603.898 2293.38,595.283 2295.58,586.582 2297.78,577.792 2299.98,568.914 2302.17,559.947 2304.37,550.889 2306.57,541.74 2308.77,532.498 2310.97,523.164 2313.17,513.735 2315.37,504.211 2317.57,494.592 2319.77,484.875 2321.97,475.061 2324.17,465.148 2326.37,455.135 2328.56,445.022 2330.76,434.806 2332.96,424.488 2335.16,414.066 2337.36,403.54 2339.56,392.908 2341.76,382.169 2343.96,371.322 2346.16,360.366 2348.36,349.301 2350.56,338.124 2352.76,326.836 "/>
<path clip-path="url(#clip380)" d="M228.998 196.789 L537.794 196.789 L537.794 93.1086 L228.998 93.1086  Z" fill="#ffffff" fill-rule="evenodd" fill-opacity="1"/>
<polyline clip-path="url(#clip380)" style="stroke:#000000; stroke-linecap:round; stroke-linejoin:round; stroke-width:4; stroke-opacity:1; fill:none" points="228.998,196.789 537.794,196.789 537.794,93.1086 228.998,93.1086 228.998,196.789 "/>
<polyline clip-path="url(#clip380)" style="stroke:#009af9; stroke-linecap:round; stroke-linejoin:round; stroke-width:8; stroke-opacity:1; fill:none" points="253.409,144.949 399.875,144.949 "/>
<path clip-path="url(#clip380)" d="M424.286 151.997 L424.286 136.303 L428.545 136.303 L428.545 151.835 Q428.545 155.516 429.98 157.368 Q431.416 159.196 434.286 159.196 Q437.735 159.196 439.726 156.997 Q441.74 154.798 441.74 151.002 L441.74 136.303 L445.999 136.303 L445.999 162.229 L441.74 162.229 L441.74 158.247 Q440.189 160.608 438.129 161.766 Q436.092 162.9 433.383 162.9 Q428.916 162.9 426.601 160.122 Q424.286 157.344 424.286 151.997 M435.004 135.678 L435.004 135.678 Z" fill="#000000" fill-rule="nonzero" fill-opacity="1" /><path clip-path="url(#clip380)" d="M454.378 126.21 L464.193 126.21 L464.193 129.52 L458.638 129.52 L458.638 165.168 L464.193 165.168 L464.193 168.479 L454.378 168.479 L454.378 126.21 Z" fill="#000000" fill-rule="nonzero" fill-opacity="1" /><path clip-path="url(#clip380)" d="M474.679 158.293 L482.318 158.293 L482.318 131.928 L474.008 133.595 L474.008 129.335 L482.272 127.669 L486.948 127.669 L486.948 158.293 L494.587 158.293 L494.587 162.229 L474.679 162.229 L474.679 158.293 Z" fill="#000000" fill-rule="nonzero" fill-opacity="1" /><path clip-path="url(#clip380)" d="M513.383 126.21 L513.383 168.479 L503.568 168.479 L503.568 165.168 L509.1 165.168 L509.1 129.52 L503.568 129.52 L503.568 126.21 L513.383 126.21 Z" fill="#000000" fill-rule="nonzero" fill-opacity="1" /></svg>
