<?xml version="1.0" encoding="utf-8"?>
<svg xmlns="http://www.w3.org/2000/svg" xmlns:xlink="http://www.w3.org/1999/xlink" width="600" height="400" viewBox="0 0 2400 1600">
<defs>
  <clipPath id="clip160">
    <rect x="0" y="0" width="2400" height="1600"/>
  </clipPath>
</defs>
<path clip-path="url(#clip160)" d="M0 1600 L2400 1600 L2400 0 L0 0  Z" fill="#ffffff" fill-rule="evenodd" fill-opacity="1"/>
<defs>
  <clipPath id="clip161">
    <rect x="156" y="47" width="2198" height="1377"/>
  </clipPath>
</defs>
<path clip-path="url(#clip160)" d="M156.112 1423.18 L2352.76 1423.18 L2352.76 47.2441 L156.112 47.2441  Z" fill="#ffffff" fill-rule="evenodd" fill-opacity="1"/>
<polyline clip-path="url(#clip161)" style="stroke:#000000; stroke-linecap:round; stroke-linejoin:round; stroke-width:2; stroke-opacity:0.1; fill:none" points="156.112,1423.18 156.112,47.2441 "/>
<polyline clip-path="url(#clip161)" style="stroke:#000000; stroke-linecap:round; stroke-linejoin:round; stroke-width:2; stroke-opacity:0.1; fill:none" points="595.441,1423.18 595.441,47.2441 "/>
<polyline clip-path="url(#clip161)" style="stroke:#000000; stroke-linecap:round; stroke-linejoin:round; stroke-width:2; stroke-opacity:0.1; fill:none" points="1034.77,1423.18 1034.77,47.2441 "/>
<polyline clip-path="url(#clip161)" style="stroke:#000000; stroke-linecap:round; stroke-linejoin:round; stroke-width:2; stroke-opacity:0.1; fill:none" points="1474.1,1423.18 1474.1,47.2441 "/>
<polyline clip-path="url(#clip161)" style="stroke:#000000; stroke-linecap:round; stroke-linejoin:round; stroke-width:2; stroke-opacity:0.1; fill:none" points="1913.43,1423.18 1913.43,47.2441 "/>
<polyline clip-path="url(#clip161)" style="stroke:#000000; stroke-linecap:round; stroke-linejoin:round; stroke-width:2; stroke-opacity:0.1; fill:none" points="2352.76,1423.18 2352.76,47.2441 "/>
<polyline clip-path="url(#clip161)" style="stroke:#000000; stroke-linecap:round; stroke-linejoin:round; stroke-width:2; stroke-opacity:0.1; fill:none" points="156.112,1391.05 2352.76,1391.05 "/>
<polyline clip-path="url(#clip161)" style="stroke:#000000; stroke-linecap:round; stroke-linejoin:round; stroke-width:2; stroke-opacity:0.1; fill:none" points="156.112,1029.23 2352.76,1029.23 "/>
<polyline clip-path="url(#clip161)" style="stroke:#000000; stroke-linecap:round; stroke-linejoin:round; stroke-width:2; stroke-opacity:0.1; fill:none" points="156.112,667.415 2352.76,667.415 "/>
<polyline clip-path="url(#clip161)" style="stroke:#000000; stroke-linecap:round; stroke-linejoin:round; stroke-width:2; stroke-opacity:0.1; fill:none" points="156.112,305.598 2352.76,305.598 "/>
<polyline clip-path="url(#clip160)" style="stroke:#000000; stroke-linecap:round; stroke-linejoin:round; stroke-width:4; stroke-opacity:1; fill:none" points="156.112,1423.18 2352.76,1423.18 "/>
<polyline clip-path="url(#clip160)" style="stroke:#000000; stroke-linecap:round; stroke-linejoin:round; stroke-width:4; stroke-opacity:1; fill:none" points="156.112,1423.18 156.112,1404.28 "/>
<polyline clip-path="url(#clip160)" style="stroke:#000000; stroke-linecap:round; stroke-linejoin:round; stroke-width:4; stroke-opacity:1; fill:none" points="595.441,1423.18 595.441,1404.28 "/>
<polyline clip-path="url(#clip160)" style="stroke:#000000; stroke-linecap:round; stroke-linejoin:round; stroke-width:4; stroke-opacity:1; fill:none" points="1034.77,1423.18 1034.77,1404.28 "/>
<polyline clip-path="url(#clip160)" style="stroke:#000000; stroke-linecap:round; stroke-linejoin:round; stroke-width:4; stroke-opacity:1; fill:none" points="1474.1,1423.18 1474.1,1404.28 "/>
<polyline clip-path="url(#clip160)" style="stroke:#000000; stroke-linecap:round; stroke-linejoin:round; stroke-width:4; stroke-opacity:1; fill:none" points="1913.43,1423.18 1913.43,1404.28 "/>
<polyline clip-path="url(#clip160)" style="stroke:#000000; stroke-linecap:round; stroke-linejoin:round; stroke-width:4; stroke-opacity:1; fill:none" points="2352.76,1423.18 2352.76,1404.28 "/>
<path clip-path="url(#clip160)" d="M156.112 1454.1 Q152.501 1454.1 150.672 1457.66 Q148.867 1461.2 148.867 1468.33 Q148.867 1475.44 150.672 1479.01 Q152.501 1482.55 156.112 1482.55 Q159.746 1482.55 161.552 1479.01 Q163.381 1475.44 163.381 1468.33 Q163.381 1461.2 161.552 1457.66 Q159.746 1454.1 156.112 1454.1 M156.112 1450.39 Q161.922 1450.39 164.978 1455 Q168.057 1459.58 168.057 1468.33 Q168.057 1477.06 164.978 1481.67 Q161.922 1486.25 156.112 1486.25 Q150.302 1486.25 147.223 1481.67 Q144.168 1477.06 144.168 1468.33 Q144.168 1459.58 147.223 1455 Q150.302 1450.39 156.112 1450.39 Z" fill="#000000" fill-rule="nonzero" fill-opacity="1" /><path clip-path="url(#clip160)" d="M590.094 1481.64 L606.413 1481.64 L606.413 1485.58 L584.469 1485.58 L584.469 1481.64 Q587.131 1478.89 591.714 1474.26 Q596.321 1469.61 597.501 1468.27 Q599.746 1465.74 600.626 1464.01 Q601.529 1462.25 601.529 1460.56 Q601.529 1457.8 599.584 1456.07 Q597.663 1454.33 594.561 1454.33 Q592.362 1454.33 589.909 1455.09 Q587.478 1455.86 584.7 1457.41 L584.7 1452.69 Q587.524 1451.55 589.978 1450.97 Q592.432 1450.39 594.469 1450.39 Q599.839 1450.39 603.033 1453.08 Q606.228 1455.77 606.228 1460.26 Q606.228 1462.39 605.418 1464.31 Q604.631 1466.2 602.524 1468.8 Q601.945 1469.47 598.844 1472.69 Q595.742 1475.88 590.094 1481.64 Z" fill="#000000" fill-rule="nonzero" fill-opacity="1" /><path clip-path="url(#clip160)" d="M1037.78 1455.09 L1025.97 1473.54 L1037.78 1473.54 L1037.78 1455.09 M1036.55 1451.02 L1042.43 1451.02 L1042.43 1473.54 L1047.36 1473.54 L1047.36 1477.43 L1042.43 1477.43 L1042.43 1485.58 L1037.78 1485.58 L1037.78 1477.43 L1022.18 1477.43 L1022.18 1472.92 L1036.55 1451.02 Z" fill="#000000" fill-rule="nonzero" fill-opacity="1" /><path clip-path="url(#clip160)" d="M1474.5 1466.44 Q1471.36 1466.44 1469.5 1468.59 Q1467.67 1470.74 1467.67 1474.49 Q1467.67 1478.22 1469.5 1480.39 Q1471.36 1482.55 1474.5 1482.55 Q1477.65 1482.55 1479.48 1480.39 Q1481.33 1478.22 1481.33 1474.49 Q1481.33 1470.74 1479.48 1468.59 Q1477.65 1466.44 1474.5 1466.44 M1483.79 1451.78 L1483.79 1456.04 Q1482.03 1455.21 1480.22 1454.77 Q1478.44 1454.33 1476.68 1454.33 Q1472.05 1454.33 1469.6 1457.45 Q1467.17 1460.58 1466.82 1466.9 Q1468.18 1464.89 1470.24 1463.82 Q1472.3 1462.73 1474.78 1462.73 Q1479.99 1462.73 1483 1465.9 Q1486.03 1469.05 1486.03 1474.49 Q1486.03 1479.82 1482.88 1483.03 Q1479.73 1486.25 1474.5 1486.25 Q1468.51 1486.25 1465.34 1481.67 Q1462.17 1477.06 1462.17 1468.33 Q1462.17 1460.14 1466.05 1455.28 Q1469.94 1450.39 1476.49 1450.39 Q1478.25 1450.39 1480.04 1450.74 Q1481.84 1451.09 1483.79 1451.78 Z" fill="#000000" fill-rule="nonzero" fill-opacity="1" /><path clip-path="url(#clip160)" d="M1913.43 1469.17 Q1910.09 1469.17 1908.17 1470.95 Q1906.27 1472.73 1906.27 1475.86 Q1906.27 1478.98 1908.17 1480.77 Q1910.09 1482.55 1913.43 1482.55 Q1916.76 1482.55 1918.68 1480.77 Q1920.6 1478.96 1920.6 1475.86 Q1920.6 1472.73 1918.68 1470.95 Q1916.78 1469.17 1913.43 1469.17 M1908.75 1467.18 Q1905.74 1466.44 1904.05 1464.38 Q1902.39 1462.32 1902.39 1459.35 Q1902.39 1455.21 1905.33 1452.8 Q1908.29 1450.39 1913.43 1450.39 Q1918.59 1450.39 1921.53 1452.8 Q1924.47 1455.21 1924.47 1459.35 Q1924.47 1462.32 1922.78 1464.38 Q1921.11 1466.44 1918.13 1467.18 Q1921.51 1467.96 1923.38 1470.26 Q1925.28 1472.55 1925.28 1475.86 Q1925.28 1480.88 1922.2 1483.57 Q1919.14 1486.25 1913.43 1486.25 Q1907.71 1486.25 1904.63 1483.57 Q1901.58 1480.88 1901.58 1475.86 Q1901.58 1472.55 1903.47 1470.26 Q1905.37 1467.96 1908.75 1467.18 M1907.04 1459.79 Q1907.04 1462.48 1908.7 1463.98 Q1910.39 1465.49 1913.43 1465.49 Q1916.44 1465.49 1918.13 1463.98 Q1919.84 1462.48 1919.84 1459.79 Q1919.84 1457.11 1918.13 1455.6 Q1916.44 1454.1 1913.43 1454.1 Q1910.39 1454.1 1908.7 1455.6 Q1907.04 1457.11 1907.04 1459.79 Z" fill="#000000" fill-rule="nonzero" fill-opacity="1" /><path clip-path="url(#clip160)" d="M2327.44 1481.64 L2335.08 1481.64 L2335.08 1455.28 L2326.77 1456.95 L2326.77 1452.69 L2335.04 1451.02 L2339.71 1451.02 L2339.71 1481.64 L2347.35 1481.64 L2347.35 1485.58 L2327.44 1485.58 L2327.44 1481.64 Z" fill="#000000" fill-rule="nonzero" fill-opacity="1" /><path clip-path="url(#clip160)" d="M2366.8 1454.1 Q2363.18 1454.1 2361.36 1457.66 Q2359.55 1461.2 2359.55 1468.33 Q2359.55 1475.44 2361.36 1479.01 Q2363.18 1482.55 2366.8 1482.55 Q2370.43 1482.55 2372.23 1479.01 Q2374.06 1475.44 2374.06 1468.33 Q2374.06 1461.2 2372.23 1457.66 Q2370.43 1454.1 2366.8 1454.1 M2366.8 1450.39 Q2372.61 1450.39 2375.66 1455 Q2378.74 1459.58 2378.74 1468.33 Q2378.74 1477.06 2375.66 1481.67 Q2372.61 1486.25 2366.8 1486.25 Q2360.99 1486.25 2357.91 1481.67 Q2354.85 1477.06 2354.85 1468.33 Q2354.85 1459.58 2357.91 1455 Q2360.99 1450.39 2366.8 1450.39 Z" fill="#000000" fill-rule="nonzero" fill-opacity="1" /><path clip-path="url(#clip160)" d="M1253.5 1522.27 L1253.5 1532.4 L1265.56 1532.4 L1265.56 1536.95 L1253.5 1536.95 L1253.5 1556.3 Q1253.5 1560.66 1254.67 1561.9 Q1255.88 1563.14 1259.54 1563.14 L1265.56 1563.14 L1265.56 1568.04 L1259.54 1568.04 Q1252.76 1568.04 1250.18 1565.53 Q1247.61 1562.98 1247.61 1556.3 L1247.61 1536.95 L1243.31 1536.95 L1243.31 1532.4 L1247.61 1532.4 L1247.61 1522.27 L1253.5 1522.27 Z" fill="#000000" fill-rule="nonzero" fill-opacity="1" /><polyline clip-path="url(#clip160)" style="stroke:#000000; stroke-linecap:round; stroke-linejoin:round; stroke-width:4; stroke-opacity:1; fill:none" points="156.112,1423.18 156.112,47.2441 "/>
<polyline clip-path="url(#clip160)" style="stroke:#000000; stroke-linecap:round; stroke-linejoin:round; stroke-width:4; stroke-opacity:1; fill:none" points="156.112,1391.05 175.01,1391.05 "/>
<polyline clip-path="url(#clip160)" style="stroke:#000000; stroke-linecap:round; stroke-linejoin:round; stroke-width:4; stroke-opacity:1; fill:none" points="156.112,1029.23 175.01,1029.23 "/>
<polyline clip-path="url(#clip160)" style="stroke:#000000; stroke-linecap:round; stroke-linejoin:round; stroke-width:4; stroke-opacity:1; fill:none" points="156.112,667.415 175.01,667.415 "/>
<polyline clip-path="url(#clip160)" style="stroke:#000000; stroke-linecap:round; stroke-linejoin:round; stroke-width:4; stroke-opacity:1; fill:none" points="156.112,305.598 175.01,305.598 "/>
<path clip-path="url(#clip160)" d="M62.9365 1376.85 Q59.3254 1376.85 57.4967 1380.41 Q55.6912 1383.95 55.6912 1391.08 Q55.6912 1398.19 57.4967 1401.75 Q59.3254 1405.3 62.9365 1405.3 Q66.5707 1405.3 68.3763 1401.75 Q70.205 1398.19 70.205 1391.08 Q70.205 1383.95 68.3763 1380.41 Q66.5707 1376.85 62.9365 1376.85 M62.9365 1373.14 Q68.7467 1373.14 71.8022 1377.75 Q74.8809 1382.33 74.8809 1391.08 Q74.8809 1399.81 71.8022 1404.42 Q68.7467 1409 62.9365 1409 Q57.1264 1409 54.0477 1404.42 Q50.9921 1399.81 50.9921 1391.08 Q50.9921 1382.33 54.0477 1377.75 Q57.1264 1373.14 62.9365 1373.14 Z" fill="#000000" fill-rule="nonzero" fill-opacity="1" /><path clip-path="url(#clip160)" d="M83.0984 1402.45 L87.9827 1402.45 L87.9827 1408.33 L83.0984 1408.33 L83.0984 1402.45 Z" fill="#000000" fill-rule="nonzero" fill-opacity="1" /><path clip-path="url(#clip160)" d="M108.168 1376.85 Q104.557 1376.85 102.728 1380.41 Q100.922 1383.95 100.922 1391.08 Q100.922 1398.19 102.728 1401.75 Q104.557 1405.3 108.168 1405.3 Q111.802 1405.3 113.608 1401.75 Q115.436 1398.19 115.436 1391.08 Q115.436 1383.95 113.608 1380.41 Q111.802 1376.85 108.168 1376.85 M108.168 1373.14 Q113.978 1373.14 117.033 1377.75 Q120.112 1382.33 120.112 1391.08 Q120.112 1399.81 117.033 1404.42 Q113.978 1409 108.168 1409 Q102.358 1409 99.2789 1404.42 Q96.2234 1399.81 96.2234 1391.08 Q96.2234 1382.33 99.2789 1377.75 Q102.358 1373.14 108.168 1373.14 Z" fill="#000000" fill-rule="nonzero" fill-opacity="1" /><path clip-path="url(#clip160)" d="M63.9319 1015.03 Q60.3208 1015.03 58.4921 1018.6 Q56.6865 1022.14 56.6865 1029.27 Q56.6865 1036.37 58.4921 1039.94 Q60.3208 1043.48 63.9319 1043.48 Q67.5661 1043.48 69.3717 1039.94 Q71.2004 1036.37 71.2004 1029.27 Q71.2004 1022.14 69.3717 1018.6 Q67.5661 1015.03 63.9319 1015.03 M63.9319 1011.33 Q69.742 1011.33 72.7976 1015.93 Q75.8763 1020.52 75.8763 1029.27 Q75.8763 1037.99 72.7976 1042.6 Q69.742 1047.18 63.9319 1047.18 Q58.1217 1047.18 55.043 1042.6 Q51.9875 1037.99 51.9875 1029.27 Q51.9875 1020.52 55.043 1015.93 Q58.1217 1011.33 63.9319 1011.33 Z" fill="#000000" fill-rule="nonzero" fill-opacity="1" /><path clip-path="url(#clip160)" d="M84.0938 1040.63 L88.978 1040.63 L88.978 1046.51 L84.0938 1046.51 L84.0938 1040.63 Z" fill="#000000" fill-rule="nonzero" fill-opacity="1" /><path clip-path="url(#clip160)" d="M99.2095 1011.95 L117.566 1011.95 L117.566 1015.89 L103.492 1015.89 L103.492 1024.36 Q104.51 1024.01 105.529 1023.85 Q106.547 1023.66 107.566 1023.66 Q113.353 1023.66 116.733 1026.84 Q120.112 1030.01 120.112 1035.42 Q120.112 1041 116.64 1044.1 Q113.168 1047.18 106.848 1047.18 Q104.672 1047.18 102.404 1046.81 Q100.159 1046.44 97.7511 1045.7 L97.7511 1041 Q99.8345 1042.14 102.057 1042.69 Q104.279 1043.25 106.756 1043.25 Q110.76 1043.25 113.098 1041.14 Q115.436 1039.03 115.436 1035.42 Q115.436 1031.81 113.098 1029.71 Q110.76 1027.6 106.756 1027.6 Q104.881 1027.6 103.006 1028.02 Q101.154 1028.43 99.2095 1029.31 L99.2095 1011.95 Z" fill="#000000" fill-rule="nonzero" fill-opacity="1" /><path clip-path="url(#clip160)" d="M53.7467 680.76 L61.3856 680.76 L61.3856 654.394 L53.0754 656.061 L53.0754 651.801 L61.3393 650.135 L66.0152 650.135 L66.0152 680.76 L73.654 680.76 L73.654 684.695 L53.7467 684.695 L53.7467 680.76 Z" fill="#000000" fill-rule="nonzero" fill-opacity="1" /><path clip-path="url(#clip160)" d="M83.0984 678.815 L87.9827 678.815 L87.9827 684.695 L83.0984 684.695 L83.0984 678.815 Z" fill="#000000" fill-rule="nonzero" fill-opacity="1" /><path clip-path="url(#clip160)" d="M108.168 653.213 Q104.557 653.213 102.728 656.778 Q100.922 660.32 100.922 667.449 Q100.922 674.556 102.728 678.121 Q104.557 681.662 108.168 681.662 Q111.802 681.662 113.608 678.121 Q115.436 674.556 115.436 667.449 Q115.436 660.32 113.608 656.778 Q111.802 653.213 108.168 653.213 M108.168 649.51 Q113.978 649.51 117.033 654.116 Q120.112 658.699 120.112 667.449 Q120.112 676.176 117.033 680.783 Q113.978 685.366 108.168 685.366 Q102.358 685.366 99.2789 680.783 Q96.2234 676.176 96.2234 667.449 Q96.2234 658.699 99.2789 654.116 Q102.358 649.51 108.168 649.51 Z" fill="#000000" fill-rule="nonzero" fill-opacity="1" /><path clip-path="url(#clip160)" d="M54.7421 318.942 L62.381 318.942 L62.381 292.577 L54.0708 294.244 L54.0708 289.984 L62.3347 288.318 L67.0106 288.318 L67.0106 318.942 L74.6494 318.942 L74.6494 322.878 L54.7421 322.878 L54.7421 318.942 Z" fill="#000000" fill-rule="nonzero" fill-opacity="1" /><path clip-path="url(#clip160)" d="M84.0938 316.998 L88.978 316.998 L88.978 322.878 L84.0938 322.878 L84.0938 316.998 Z" fill="#000000" fill-rule="nonzero" fill-opacity="1" /><path clip-path="url(#clip160)" d="M99.2095 288.318 L117.566 288.318 L117.566 292.253 L103.492 292.253 L103.492 300.725 Q104.51 300.378 105.529 300.216 Q106.547 300.031 107.566 300.031 Q113.353 300.031 116.733 303.202 Q120.112 306.373 120.112 311.79 Q120.112 317.368 116.64 320.47 Q113.168 323.549 106.848 323.549 Q104.672 323.549 102.404 323.179 Q100.159 322.808 97.7511 322.067 L97.7511 317.368 Q99.8345 318.503 102.057 319.058 Q104.279 319.614 106.756 319.614 Q110.76 319.614 113.098 317.507 Q115.436 315.401 115.436 311.79 Q115.436 308.179 113.098 306.072 Q110.76 303.966 106.756 303.966 Q104.881 303.966 103.006 304.382 Q101.154 304.799 99.2095 305.679 L99.2095 288.318 Z" fill="#000000" fill-rule="nonzero" fill-opacity="1" /><polyline clip-path="url(#clip161)" style="stroke:#009af9; stroke-linecap:round; stroke-linejoin:round; stroke-width:8; stroke-opacity:1; fill:none" points="156.112,1246.32 156.338,1242.97 156.554,1247.87 156.797,1243.99 157.07,1249.63 157.378,1249.49 157.724,1250.37 158.113,1241.9 158.551,1231.83 159.044,1226.33 159.598,1236.51 160.222,1222.82 160.924,1217.67 161.713,1217.15 162.601,1238.1 163.6,1233.86 164.723,1227.25 165.988,1243.14 167.41,1253.67 169.01,1261.76 170.81,1262.64 172.835,1279.46 175.113,1281.18 177.676,1283.74 180.56,1269.84 183.803,1259.29 187.453,1271.86 191.558,1293.68 196.176,1290.93 201.372,1286.36 207.218,1295 213.794,1319.59 221.192,1298.19 229.515,1263.8 238.878,1238.22 249.411,1238.92 260.112,1210.22 272.15,1200.6 284.163,1161.81 297.679,988.308 309.675,896.095 321.927,885.417 331.726,1042.13 341.823,1028.49 353.182,927.546 365.269,763.752 376.348,706.169 385.676,639.348 393.836,688.272 401.151,640.04 408.996,532.975 416.307,678.705 422.639,645.172 429.711,499.231 436.314,480.698 442.287,509.025 448.021,224.597 453.58,86.1857 458.446,124.375 462.889,216.433 467.055,259.092 469.492,243.179 473.605,774.181 478.232,695.388 483.081,752.127 487.763,807.36 492.802,894.907 498.054,892.049 503.963,955.601 509.76,939.912 516.281,1049.69 522.812,1046.02 530.159,1117.74 537.31,1103.99 545.354,1123.77 553.274,1113.51 562.184,1048.08 571.698,1081.66 580.096,1168.67 589.327,1113.7 599.712,1193.43 608.507,1195.23 618.401,1246.9 624.979,1245.04 634.959,1321.95 646.186,1322.25 658.817,1340.58 672.606,1341.16 688.119,1344.7 705.571,1356.64 724.511,1344.72 745.819,1331.94 769.79,1307.42 796.758,1241.66 824.525,1239.95 843.653,1276.45 863.784,1193.76 886.431,1214.7 903.147,1149.94 921.952,1104.97 938.99,1139.35 952.68,933.073 956.07,906.545 959.885,891.141 964.176,898.561 968.885,917.662 973.963,915.544 979.618,1055.39 985.877,1065.66 992.919,1085.35 1000.28,1081.75 1008.55,1122.42 1016.52,1245.07 1025.49,1221.54 1035.58,1182.84 1046.84,1097.87 1058.49,1021.92 1069.5,1037.55 1078.93,1084.61 1088.79,1158.21 1098.88,1136.45 1110.23,1200.78 1120.33,1226.85 1131.69,1184.72 1144.48,1149.02 1151.64,1120.06 1159.7,1240.36 1168.77,1266.42 1177.61,1230.31 1187.54,1236.28 1197.28,1236 1208.24,1216.13 1220.57,1231.8 1231.81,1250.26 1244.45,1216.55 1249.36,1213.63 1263.59,1290.86 1279.58,1319.61 1294.1,1314.67 1310.43,1339.03 1326.53,1331.19 1344.65,1323.64 1365.03,1306.78 1387.66,1316.52 1407.11,1303.44 1428.99,1324.17 1447.69,1303.48 1468.73,1326.22 1486.07,1318.54 1505.57,1311.16 1527.08,1310.61 1542.54,1332.12 1563.2,1362.06 1586.45,1354.79 1612.6,1366.38 1636.92,1368.99 1664.27,1374.4 1695.05,1377.72 1729.68,1362.12 1768.63,1366.32 1798.81,1381.66 1832.76,1381.12 1870.95,1377.85 1877.44,1377.65 1884.74,1382.63 1892.95,1379.89 1902.19,1376.08 1912.58,1376.1 1924.27,1376.87 1937.43,1379.78 1952.22,1380.86 1968.87,1379.82 1987.6,1383.22 2008.67,1380.55 2032.37,1382.88 2059.04,1384.24 2089.04,1383.5 2122.79,1378.44 2160.76,1369.41 2203.47,1356.19 2251.52,1327.56 2296.89,1322.37 2336.88,1369.3 2352.76,1368.23 "/>
<path clip-path="url(#clip160)" d="M1970.77 196.789 L2279.53 196.789 L2279.53 93.1086 L1970.77 93.1086  Z" fill="#ffffff" fill-rule="evenodd" fill-opacity="1"/>
<polyline clip-path="url(#clip160)" style="stroke:#000000; stroke-linecap:round; stroke-linejoin:round; stroke-width:4; stroke-opacity:1; fill:none" points="1970.77,196.789 2279.53,196.789 2279.53,93.1086 1970.77,93.1086 1970.77,196.789 "/>
<polyline clip-path="url(#clip160)" style="stroke:#009af9; stroke-linecap:round; stroke-linejoin:round; stroke-width:8; stroke-opacity:1; fill:none" points="1995.18,144.949 2141.62,144.949 "/>
<path clip-path="url(#clip160)" d="M2166.03 151.997 L2166.03 136.303 L2170.29 136.303 L2170.29 151.835 Q2170.29 155.516 2171.72 157.368 Q2173.16 159.196 2176.03 159.196 Q2179.48 159.196 2181.47 156.997 Q2183.48 154.798 2183.48 151.002 L2183.48 136.303 L2187.74 136.303 L2187.74 162.229 L2183.48 162.229 L2183.48 158.247 Q2181.93 160.608 2179.87 161.766 Q2177.84 162.9 2175.13 162.9 Q2170.66 162.9 2168.35 160.122 Q2166.03 157.344 2166.03 151.997 M2176.75 135.678 L2176.75 135.678 Z" fill="#000000" fill-rule="nonzero" fill-opacity="1" /><path clip-path="url(#clip160)" d="M2196.12 126.21 L2205.94 126.21 L2205.94 129.52 L2200.38 129.52 L2200.38 165.168 L2205.94 165.168 L2205.94 168.479 L2196.12 168.479 L2196.12 126.21 Z" fill="#000000" fill-rule="nonzero" fill-opacity="1" /><path clip-path="url(#clip160)" d="M2216.42 158.293 L2224.06 158.293 L2224.06 131.928 L2215.75 133.595 L2215.75 129.335 L2224.02 127.669 L2228.69 127.669 L2228.69 158.293 L2236.33 158.293 L2236.33 162.229 L2216.42 162.229 L2216.42 158.293 Z" fill="#000000" fill-rule="nonzero" fill-opacity="1" /><path clip-path="url(#clip160)" d="M2255.13 126.21 L2255.13 168.479 L2245.31 168.479 L2245.31 165.168 L2250.84 165.168 L2250.84 129.52 L2245.31 129.52 L2245.31 126.21 L2255.13 126.21 Z" fill="#000000" fill-rule="nonzero" fill-opacity="1" /></svg>
