<?xml version="1.0" encoding="utf-8"?>
<svg xmlns="http://www.w3.org/2000/svg" xmlns:xlink="http://www.w3.org/1999/xlink" width="600" height="400" viewBox="0 0 2400 1600">
<defs>
  <clipPath id="clip850">
    <rect x="0" y="0" width="2400" height="1600"/>
  </clipPath>
</defs>
<path clip-path="url(#clip850)" d="M0 1600 L2400 1600 L2400 0 L0 0  Z" fill="#ffffff" fill-rule="evenodd" fill-opacity="1"/>
<defs>
  <clipPath id="clip851">
    <rect x="480" y="0" width="1681" height="1600"/>
  </clipPath>
</defs>
<path clip-path="url(#clip850)" d="M140.696 1423.18 L2352.76 1423.18 L2352.76 47.2441 L140.696 47.2441  Z" fill="#ffffff" fill-rule="evenodd" fill-opacity="1"/>
<defs>
  <clipPath id="clip852">
    <rect x="140" y="47" width="2213" height="1377"/>
  </clipPath>
</defs>
<polyline clip-path="url(#clip852)" style="stroke:#000000; stroke-linecap:round; stroke-linejoin:round; stroke-width:2; stroke-opacity:0.1; fill:none" points="574.947,1423.18 574.947,47.2441 "/>
<polyline clip-path="url(#clip852)" style="stroke:#000000; stroke-linecap:round; stroke-linejoin:round; stroke-width:2; stroke-opacity:0.1; fill:none" points="1020.18,1423.18 1020.18,47.2441 "/>
<polyline clip-path="url(#clip852)" style="stroke:#000000; stroke-linecap:round; stroke-linejoin:round; stroke-width:2; stroke-opacity:0.1; fill:none" points="1465.42,1423.18 1465.42,47.2441 "/>
<polyline clip-path="url(#clip852)" style="stroke:#000000; stroke-linecap:round; stroke-linejoin:round; stroke-width:2; stroke-opacity:0.1; fill:none" points="1910.65,1423.18 1910.65,47.2441 "/>
<polyline clip-path="url(#clip852)" style="stroke:#000000; stroke-linecap:round; stroke-linejoin:round; stroke-width:2; stroke-opacity:0.1; fill:none" points="140.696,1389.72 2352.76,1389.72 "/>
<polyline clip-path="url(#clip852)" style="stroke:#000000; stroke-linecap:round; stroke-linejoin:round; stroke-width:2; stroke-opacity:0.1; fill:none" points="140.696,945.436 2352.76,945.436 "/>
<polyline clip-path="url(#clip852)" style="stroke:#000000; stroke-linecap:round; stroke-linejoin:round; stroke-width:2; stroke-opacity:0.1; fill:none" points="140.696,501.153 2352.76,501.153 "/>
<polyline clip-path="url(#clip852)" style="stroke:#000000; stroke-linecap:round; stroke-linejoin:round; stroke-width:2; stroke-opacity:0.1; fill:none" points="140.696,56.8706 2352.76,56.8706 "/>
<polyline clip-path="url(#clip850)" style="stroke:#000000; stroke-linecap:round; stroke-linejoin:round; stroke-width:4; stroke-opacity:1; fill:none" points="140.696,1423.18 2352.76,1423.18 "/>
<polyline clip-path="url(#clip850)" style="stroke:#000000; stroke-linecap:round; stroke-linejoin:round; stroke-width:4; stroke-opacity:1; fill:none" points="574.947,1423.18 574.947,1404.28 "/>
<polyline clip-path="url(#clip850)" style="stroke:#000000; stroke-linecap:round; stroke-linejoin:round; stroke-width:4; stroke-opacity:1; fill:none" points="1020.18,1423.18 1020.18,1404.28 "/>
<polyline clip-path="url(#clip850)" style="stroke:#000000; stroke-linecap:round; stroke-linejoin:round; stroke-width:4; stroke-opacity:1; fill:none" points="1465.42,1423.18 1465.42,1404.28 "/>
<polyline clip-path="url(#clip850)" style="stroke:#000000; stroke-linecap:round; stroke-linejoin:round; stroke-width:4; stroke-opacity:1; fill:none" points="1910.65,1423.18 1910.65,1404.28 "/>
<path clip-path="url(#clip850)" d="M549.634 1481.64 L557.273 1481.64 L557.273 1455.28 L548.963 1456.95 L548.963 1452.69 L557.227 1451.02 L561.903 1451.02 L561.903 1481.64 L569.542 1481.64 L569.542 1485.58 L549.634 1485.58 L549.634 1481.64 Z" fill="#000000" fill-rule="nonzero" fill-opacity="1" /><path clip-path="url(#clip850)" d="M588.986 1454.1 Q585.375 1454.1 583.546 1457.66 Q581.741 1461.2 581.741 1468.33 Q581.741 1475.44 583.546 1479.01 Q585.375 1482.55 588.986 1482.55 Q592.62 1482.55 594.426 1479.01 Q596.254 1475.44 596.254 1468.33 Q596.254 1461.2 594.426 1457.66 Q592.62 1454.1 588.986 1454.1 M588.986 1450.39 Q594.796 1450.39 597.852 1455 Q600.93 1459.58 600.93 1468.33 Q600.93 1477.06 597.852 1481.67 Q594.796 1486.25 588.986 1486.25 Q583.176 1486.25 580.097 1481.67 Q577.041 1477.06 577.041 1468.33 Q577.041 1459.58 580.097 1455 Q583.176 1450.39 588.986 1450.39 Z" fill="#000000" fill-rule="nonzero" fill-opacity="1" /><path clip-path="url(#clip850)" d="M998.954 1481.64 L1015.27 1481.64 L1015.27 1485.58 L993.329 1485.58 L993.329 1481.64 Q995.991 1478.89 1000.57 1474.26 Q1005.18 1469.61 1006.36 1468.27 Q1008.61 1465.74 1009.49 1464.01 Q1010.39 1462.25 1010.39 1460.56 Q1010.39 1457.8 1008.44 1456.07 Q1006.52 1454.33 1003.42 1454.33 Q1001.22 1454.33 998.769 1455.09 Q996.339 1455.86 993.561 1457.41 L993.561 1452.69 Q996.385 1451.55 998.839 1450.97 Q1001.29 1450.39 1003.33 1450.39 Q1008.7 1450.39 1011.89 1453.08 Q1015.09 1455.77 1015.09 1460.26 Q1015.09 1462.39 1014.28 1464.31 Q1013.49 1466.2 1011.38 1468.8 Q1010.81 1469.47 1007.7 1472.69 Q1004.6 1475.88 998.954 1481.64 Z" fill="#000000" fill-rule="nonzero" fill-opacity="1" /><path clip-path="url(#clip850)" d="M1035.09 1454.1 Q1031.48 1454.1 1029.65 1457.66 Q1027.84 1461.2 1027.84 1468.33 Q1027.84 1475.44 1029.65 1479.01 Q1031.48 1482.55 1035.09 1482.55 Q1038.72 1482.55 1040.53 1479.01 Q1042.36 1475.44 1042.36 1468.33 Q1042.36 1461.2 1040.53 1457.66 Q1038.72 1454.1 1035.09 1454.1 M1035.09 1450.39 Q1040.9 1450.39 1043.95 1455 Q1047.03 1459.58 1047.03 1468.33 Q1047.03 1477.06 1043.95 1481.67 Q1040.9 1486.25 1035.09 1486.25 Q1029.28 1486.25 1026.2 1481.67 Q1023.14 1477.06 1023.14 1468.33 Q1023.14 1459.58 1026.2 1455 Q1029.28 1450.39 1035.09 1450.39 Z" fill="#000000" fill-rule="nonzero" fill-opacity="1" /><path clip-path="url(#clip850)" d="M1454.26 1466.95 Q1457.61 1467.66 1459.49 1469.93 Q1461.39 1472.2 1461.39 1475.53 Q1461.39 1480.65 1457.87 1483.45 Q1454.35 1486.25 1447.87 1486.25 Q1445.69 1486.25 1443.38 1485.81 Q1441.09 1485.39 1438.63 1484.54 L1438.63 1480.02 Q1440.58 1481.16 1442.89 1481.74 Q1445.21 1482.32 1447.73 1482.32 Q1452.13 1482.32 1454.42 1480.58 Q1456.74 1478.84 1456.74 1475.53 Q1456.74 1472.48 1454.58 1470.77 Q1452.45 1469.03 1448.63 1469.03 L1444.61 1469.03 L1444.61 1465.19 L1448.82 1465.19 Q1452.27 1465.19 1454.1 1463.82 Q1455.92 1462.43 1455.92 1459.84 Q1455.92 1457.18 1454.03 1455.77 Q1452.15 1454.33 1448.63 1454.33 Q1446.71 1454.33 1444.51 1454.75 Q1442.31 1455.16 1439.67 1456.04 L1439.67 1451.88 Q1442.34 1451.14 1444.65 1450.77 Q1446.99 1450.39 1449.05 1450.39 Q1454.37 1450.39 1457.48 1452.83 Q1460.58 1455.23 1460.58 1459.35 Q1460.58 1462.22 1458.93 1464.21 Q1457.29 1466.18 1454.26 1466.95 Z" fill="#000000" fill-rule="nonzero" fill-opacity="1" /><path clip-path="url(#clip850)" d="M1480.25 1454.1 Q1476.64 1454.1 1474.81 1457.66 Q1473.01 1461.2 1473.01 1468.33 Q1473.01 1475.44 1474.81 1479.01 Q1476.64 1482.55 1480.25 1482.55 Q1483.89 1482.55 1485.69 1479.01 Q1487.52 1475.44 1487.52 1468.33 Q1487.52 1461.2 1485.69 1457.66 Q1483.89 1454.1 1480.25 1454.1 M1480.25 1450.39 Q1486.06 1450.39 1489.12 1455 Q1492.2 1459.58 1492.2 1468.33 Q1492.2 1477.06 1489.12 1481.67 Q1486.06 1486.25 1480.25 1486.25 Q1474.44 1486.25 1471.36 1481.67 Q1468.31 1477.06 1468.31 1468.33 Q1468.31 1459.58 1471.36 1455 Q1474.44 1450.39 1480.25 1450.39 Z" fill="#000000" fill-rule="nonzero" fill-opacity="1" /><path clip-path="url(#clip850)" d="M1898.82 1455.09 L1887.02 1473.54 L1898.82 1473.54 L1898.82 1455.09 M1897.59 1451.02 L1903.47 1451.02 L1903.47 1473.54 L1908.4 1473.54 L1908.4 1477.43 L1903.47 1477.43 L1903.47 1485.58 L1898.82 1485.58 L1898.82 1477.43 L1883.22 1477.43 L1883.22 1472.92 L1897.59 1451.02 Z" fill="#000000" fill-rule="nonzero" fill-opacity="1" /><path clip-path="url(#clip850)" d="M1926.14 1454.1 Q1922.52 1454.1 1920.7 1457.66 Q1918.89 1461.2 1918.89 1468.33 Q1918.89 1475.44 1920.7 1479.01 Q1922.52 1482.55 1926.14 1482.55 Q1929.77 1482.55 1931.58 1479.01 Q1933.4 1475.44 1933.4 1468.33 Q1933.4 1461.2 1931.58 1457.66 Q1929.77 1454.1 1926.14 1454.1 M1926.14 1450.39 Q1931.95 1450.39 1935 1455 Q1938.08 1459.58 1938.08 1468.33 Q1938.08 1477.06 1935 1481.67 Q1931.95 1486.25 1926.14 1486.25 Q1920.33 1486.25 1917.25 1481.67 Q1914.19 1477.06 1914.19 1468.33 Q1914.19 1459.58 1917.25 1455 Q1920.33 1450.39 1926.14 1450.39 Z" fill="#000000" fill-rule="nonzero" fill-opacity="1" /><path clip-path="url(#clip850)" d="M1245.79 1522.27 L1245.79 1532.4 L1257.85 1532.4 L1257.85 1536.95 L1245.79 1536.95 L1245.79 1556.3 Q1245.79 1560.66 1246.96 1561.9 Q1248.17 1563.14 1251.83 1563.14 L1257.85 1563.14 L1257.85 1568.04 L1251.83 1568.04 Q1245.05 1568.04 1242.48 1565.53 Q1239.9 1562.98 1239.9 1556.3 L1239.9 1536.95 L1235.6 1536.95 L1235.6 1532.4 L1239.9 1532.4 L1239.9 1522.27 L1245.79 1522.27 Z" fill="#000000" fill-rule="nonzero" fill-opacity="1" /><polyline clip-path="url(#clip850)" style="stroke:#000000; stroke-linecap:round; stroke-linejoin:round; stroke-width:4; stroke-opacity:1; fill:none" points="140.696,1423.18 140.696,47.2441 "/>
<polyline clip-path="url(#clip850)" style="stroke:#000000; stroke-linecap:round; stroke-linejoin:round; stroke-width:4; stroke-opacity:1; fill:none" points="140.696,1389.72 159.593,1389.72 "/>
<polyline clip-path="url(#clip850)" style="stroke:#000000; stroke-linecap:round; stroke-linejoin:round; stroke-width:4; stroke-opacity:1; fill:none" points="140.696,945.436 159.593,945.436 "/>
<polyline clip-path="url(#clip850)" style="stroke:#000000; stroke-linecap:round; stroke-linejoin:round; stroke-width:4; stroke-opacity:1; fill:none" points="140.696,501.153 159.593,501.153 "/>
<polyline clip-path="url(#clip850)" style="stroke:#000000; stroke-linecap:round; stroke-linejoin:round; stroke-width:4; stroke-opacity:1; fill:none" points="140.696,56.8706 159.593,56.8706 "/>
<path clip-path="url(#clip850)" d="M92.7512 1375.52 Q89.1401 1375.52 87.3114 1379.08 Q85.5058 1382.62 85.5058 1389.75 Q85.5058 1396.86 87.3114 1400.42 Q89.1401 1403.97 92.7512 1403.97 Q96.3854 1403.97 98.1909 1400.42 Q100.02 1396.86 100.02 1389.75 Q100.02 1382.62 98.1909 1379.08 Q96.3854 1375.52 92.7512 1375.52 M92.7512 1371.81 Q98.5613 1371.81 101.617 1376.42 Q104.696 1381 104.696 1389.75 Q104.696 1398.48 101.617 1403.09 Q98.5613 1407.67 92.7512 1407.67 Q86.941 1407.67 83.8623 1403.09 Q80.8068 1398.48 80.8068 1389.75 Q80.8068 1381 83.8623 1376.42 Q86.941 1371.81 92.7512 1371.81 Z" fill="#000000" fill-rule="nonzero" fill-opacity="1" /><path clip-path="url(#clip850)" d="M53.3995 958.781 L61.0384 958.781 L61.0384 932.415 L52.7282 934.082 L52.7282 929.822 L60.9921 928.156 L65.668 928.156 L65.668 958.781 L73.3068 958.781 L73.3068 962.716 L53.3995 962.716 L53.3995 958.781 Z" fill="#000000" fill-rule="nonzero" fill-opacity="1" /><path clip-path="url(#clip850)" d="M92.7512 931.234 Q89.1401 931.234 87.3114 934.799 Q85.5058 938.341 85.5058 945.47 Q85.5058 952.577 87.3114 956.142 Q89.1401 959.683 92.7512 959.683 Q96.3854 959.683 98.1909 956.142 Q100.02 952.577 100.02 945.47 Q100.02 938.341 98.1909 934.799 Q96.3854 931.234 92.7512 931.234 M92.7512 927.531 Q98.5613 927.531 101.617 932.137 Q104.696 936.72 104.696 945.47 Q104.696 954.197 101.617 958.804 Q98.5613 963.387 92.7512 963.387 Q86.941 963.387 83.8623 958.804 Q80.8068 954.197 80.8068 945.47 Q80.8068 936.72 83.8623 932.137 Q86.941 927.531 92.7512 927.531 Z" fill="#000000" fill-rule="nonzero" fill-opacity="1" /><path clip-path="url(#clip850)" d="M56.6171 514.498 L72.9365 514.498 L72.9365 518.433 L50.9921 518.433 L50.9921 514.498 Q53.6541 511.743 58.2375 507.114 Q62.8439 502.461 64.0245 501.118 Q66.2698 498.595 67.1494 496.859 Q68.0522 495.1 68.0522 493.41 Q68.0522 490.656 66.1078 488.919 Q64.1865 487.183 61.0847 487.183 Q58.8856 487.183 56.4319 487.947 Q54.0014 488.711 51.2236 490.262 L51.2236 485.54 Q54.0477 484.406 56.5014 483.827 Q58.955 483.248 60.9921 483.248 Q66.3624 483.248 69.5568 485.933 Q72.7513 488.619 72.7513 493.109 Q72.7513 495.239 71.9411 497.16 Q71.1541 499.058 69.0476 501.651 Q68.4689 502.322 65.367 505.54 Q62.2652 508.734 56.6171 514.498 Z" fill="#000000" fill-rule="nonzero" fill-opacity="1" /><path clip-path="url(#clip850)" d="M92.7512 486.952 Q89.1401 486.952 87.3114 490.517 Q85.5058 494.058 85.5058 501.188 Q85.5058 508.294 87.3114 511.859 Q89.1401 515.401 92.7512 515.401 Q96.3854 515.401 98.1909 511.859 Q100.02 508.294 100.02 501.188 Q100.02 494.058 98.1909 490.517 Q96.3854 486.952 92.7512 486.952 M92.7512 483.248 Q98.5613 483.248 101.617 487.855 Q104.696 492.438 104.696 501.188 Q104.696 509.915 101.617 514.521 Q98.5613 519.104 92.7512 519.104 Q86.941 519.104 83.8623 514.521 Q80.8068 509.915 80.8068 501.188 Q80.8068 492.438 83.8623 487.855 Q86.941 483.248 92.7512 483.248 Z" fill="#000000" fill-rule="nonzero" fill-opacity="1" /><path clip-path="url(#clip850)" d="M66.7559 55.5165 Q70.1124 56.2341 71.9874 58.5026 Q73.8855 60.7711 73.8855 64.1044 Q73.8855 69.2201 70.367 72.021 Q66.8485 74.8219 60.3671 74.8219 Q58.1912 74.8219 55.8764 74.3821 Q53.5847 73.9654 51.131 73.109 L51.131 68.5951 Q53.0754 69.7294 55.3903 70.3081 Q57.7051 70.8868 60.2282 70.8868 Q64.6263 70.8868 66.918 69.1507 Q69.2328 67.4146 69.2328 64.1044 Q69.2328 61.0489 67.08 59.3359 Q64.9504 57.5998 61.131 57.5998 L57.1032 57.5998 L57.1032 53.7572 L61.3161 53.7572 Q64.7652 53.7572 66.5939 52.3915 Q68.4226 51.0026 68.4226 48.41 Q68.4226 45.748 66.5245 44.336 Q64.6495 42.9008 61.131 42.9008 Q59.2097 42.9008 57.0106 43.3175 Q54.8115 43.7341 52.1727 44.6138 L52.1727 40.4471 Q54.8347 39.7064 57.1495 39.336 Q59.4875 38.9656 61.5476 38.9656 Q66.8717 38.9656 69.9735 41.3962 Q73.0753 43.8036 73.0753 47.9239 Q73.0753 50.7943 71.4318 52.785 Q69.7883 54.7526 66.7559 55.5165 Z" fill="#000000" fill-rule="nonzero" fill-opacity="1" /><path clip-path="url(#clip850)" d="M92.7512 42.6693 Q89.1401 42.6693 87.3114 46.2341 Q85.5058 49.7758 85.5058 56.9054 Q85.5058 64.0118 87.3114 67.5766 Q89.1401 71.1182 92.7512 71.1182 Q96.3854 71.1182 98.1909 67.5766 Q100.02 64.0118 100.02 56.9054 Q100.02 49.7758 98.1909 46.2341 Q96.3854 42.6693 92.7512 42.6693 M92.7512 38.9656 Q98.5613 38.9656 101.617 43.5721 Q104.696 48.1554 104.696 56.9054 Q104.696 65.6322 101.617 70.2386 Q98.5613 74.8219 92.7512 74.8219 Q86.941 74.8219 83.8623 70.2386 Q80.8068 65.6322 80.8068 56.9054 Q80.8068 48.1554 83.8623 43.5721 Q86.941 38.9656 92.7512 38.9656 Z" fill="#000000" fill-rule="nonzero" fill-opacity="1" /><polyline clip-path="url(#clip852)" style="stroke:#009af9; stroke-linecap:round; stroke-linejoin:round; stroke-width:4; stroke-opacity:1; fill:none" points="140.696,1384.24 140.696,1384.24 146.038,1381.57 147.553,1380.82 152.632,1378.28 162.297,1373.46 175.886,1366.68 175.927,1366.66 200.13,1354.58 212.211,1348.56 212.286,1348.52 215.211,1347.06 217.916,1345.71 234.198,1337.59 254.608,1327.4 257.958,1325.73 268.93,1320.26 278.043,1314.97 281.009,1313.3 289.696,1308.55 297.128,1304.59 303.602,1301.21 305.183,1300.38 318.687,1292.44 325.854,1288.46 343.633,1279.02 354.115,1273.61 355.206,1273.05 355.775,1272.76 361.27,1269.96 379.944,1260.52 397.817,1251.55 402.112,1249.4 404.357,1248.28 405.896,1247.51 421.094,1239.91 427.392,1236.76 429.855,1235.53 437.602,1231.67 444.128,1228.41 454.887,1223.04 478.081,1211.46 478.63,1211.19 498.02,1201.52 502.432,1199.31 509.892,1195.59 510.232,1195.42 514.14,1193.47 518.909,1191.09 526.811,1187.15 529.766,1185.68 532.559,1184.28 547.424,1176.87 554.353,1172.81 564.408,1167.21 566.546,1165.84 569.192,1164.19 576.646,1159.72 578.428,1158.69 579.921,1157.83 580.222,1157.66 581.171,1157.12 583.9,1155.58 587.696,1153.47 590.103,1152.16 608.665,1142.31 609.421,1141.92 612.587,1140.29 647.975,1122.33 657.473,1117.57 659.332,1116.63 675.462,1108.56 679.037,1106.45 692.305,1098.97 697.401,1095.76 707.906,1089.54 717.492,1084.18 728.206,1077.59 728.222,1077.58 738.134,1071.9 739.74,1071.01 740.269,1070.72 742.416,1069.54 757.833,1061.31 772.314,1053.83 772.385,1053.8 776.471,1051.71 777.753,1051.06 787.931,1045.9 805.321,1037.15 818.825,1030.38 820.431,1029.58 836.742,1021.42 837.336,1021.13 842.387,1018.6 845.015,1017.29 848.43,1015.59 864.331,1007.65 888.588,995.543 890.066,994.806 897.19,991.251 919.975,979.882 922.011,978.866 963.19,958.32 966.572,956.633 969.729,955.058 994.685,942.606 996.505,941.698 1001.6,939.157 1013.31,933.313 1022.9,928.53 1025.61,927.179 1029.74,925.115 1035.97,921.466 1038.94,919.775 1039.82,919.278 1046.68,915.481 1072.35,901.961 1073.16,901.547 1084.29,895.869 1085.35,895.226 1096.81,888.584 1097.79,888.038 1103.21,885.047 1108.67,881.619 1135.16,866.63 1141.95,863.038 1143.09,862.44 1156.61,855.446 1167.95,849.673 1172.89,847.175 1177.65,844.772 1178.29,844.447 1179.95,843.609 1185.76,840.688 1186.76,840.188 1189.32,838.901 1205.09,830.996 1212.89,827.098 1216.83,825.129 1217.04,825.02 1219.03,824.025 1219.66,823.711 1241.83,812.64 1259.18,803.981 1265.88,800.636 1268.43,799.365 1285.51,790.844 1286.15,790.52 1286.88,790.156 1292.02,787.595 1294.56,786.324 1302.95,782.138 1307.48,779.879 1311.81,777.718 1323.48,771.895 1327.11,770.087 1328.15,769.566 1333.58,766.856 1341.41,762.953 1342.75,762.283 1344.23,761.542 1344.88,761.221 1347.78,759.771 1362.23,752.56 1367.57,749.901 1378.18,744.603 1398.67,734.383 1412.68,727.39 1414.22,726.624 1415.12,726.175 1420.89,723.296 1427.69,719.902 1427.89,719.802 1428.45,719.521 1430.9,718.303 1451.08,708.234 1457.9,704.83 1462.97,702.3 1468.86,699.362 1469.44,699.072 1473.89,696.85 1490.77,688.43 1494.78,686.427 1513.3,677.188 1520.94,673.379 1526.86,669.907 1526.95,669.854 1527.8,669.368 1537.15,664.14 1550.01,657.254 1565.66,649.143 1572.71,644.938 1591.87,634.319 1611.67,623.987 1615.19,622.182 1618.51,620.488 1629.31,615.007 1634.85,612.216 1642.17,608.529 1644.97,607.123 1663.84,597.67 1666.79,596.193 1667.4,595.885 1677.82,590.678 1682.35,588.414 1687.97,585.607 1697.78,580.712 1700.8,579.203 1711.34,573.944 1711.84,573.643 1730.11,563.309 1732.38,561.867 1737.69,558.608 1738.11,558.318 1759.95,544.668 1774.41,536.669 1778.48,534.495 1795.35,525.693 1805.77,520.368 1836.06,503.449 1848.36,497.046 1855.39,493.445 1859.54,491.325 1860.03,491.081 1861.7,490.068 1867.05,486.92 1895.57,469.803 1929.47,452.018 1932.42,450.516 1941.51,445.909 1943.64,444.836 1949.07,442.097 1951.11,441.073 1979.85,426.668 1984.43,424.377 2005.12,414.043 2009.02,412.096 2011.25,410.98 2012.54,410.339 2016.92,408.15 2039.91,396.678 2043.1,394.791 2056.93,386.998 2058.6,386.09 2068.85,380.619 2075.12,377.343 2090.46,369.464 2096.47,366.411 2112.51,358.315 2116.53,356.299 2132.1,348.492 2138.05,345.517 2139.16,344.962 2139.78,344.653 2160.52,334.285 2176.45,326.335 2192.39,318.38 2197.81,315.676 2199.63,314.764 2200.2,314.481 2203.61,312.778 2208.96,310.108 2233.19,298.022 2250.06,289.604 2253.21,288.03 2262.45,283.421 2266.05,281.627 2274.27,276.838 2283.48,271.722 2288.85,268.35 2290.92,267.091 2297.53,263.201 2299.53,262.055 2306.42,258.195 2308.43,257.096 2314.59,253.765 2340.06,240.513 2352.76,234.067 "/>
<polyline clip-path="url(#clip852)" style="stroke:#e26f46; stroke-linecap:round; stroke-linejoin:round; stroke-width:4; stroke-opacity:1; fill:none" points="140.696,1384.24 140.696,1384.24 146.038,1381.57 147.553,1380.82 152.632,1378.28 162.297,1373.46 175.886,1366.68 175.927,1366.66 200.13,1354.58 212.211,1347.63 212.286,1347.58 215.211,1345.69 217.916,1343.99 234.198,1334.45 254.608,1322.15 257.958,1319.97 268.93,1313.28 278.043,1308.09 281.009,1306.46 289.696,1301.76 297.128,1297.84 303.602,1294.48 305.183,1293.66 318.687,1286.75 325.854,1282.51 343.633,1272.67 354.115,1267.14 355.206,1266.58 355.775,1266.28 361.27,1262.95 379.944,1252.45 397.817,1243.03 402.112,1240.82 404.357,1239.66 405.896,1238.73 421.094,1229.98 427.392,1226.54 429.855,1224.99 437.602,1219.65 444.128,1215.49 454.887,1209.11 478.081,1196.49 478.63,1196.2 498.02,1186.2 502.432,1183.56 509.892,1179.26 510.232,1179.07 514.14,1176.89 518.909,1174.28 526.811,1170.05 529.766,1168.49 532.559,1167.03 547.424,1159.36 554.353,1155.83 564.408,1150.75 566.546,1149.67 569.192,1148.09 576.646,1143.14 578.428,1142.02 579.921,1141.09 580.222,1140.9 581.171,1140.32 583.9,1138.67 587.696,1136.08 590.103,1134.27 608.665,1120.72 609.421,1120.24 612.587,1118.23 647.975,1098.38 657.473,1093.45 659.332,1092.49 675.462,1084.27 679.037,1082.46 692.305,1075.78 697.401,1073.22 707.906,1067.96 717.492,1063.16 728.206,1057.81 728.222,1057.8 738.134,1052.85 739.74,1052.04 740.269,1051.78 742.416,1050.71 757.833,1041.9 772.314,1034.14 772.385,1034.11 776.471,1031.97 777.753,1031.18 787.931,1025.16 805.321,1015.61 818.825,1008.54 820.431,1007.55 836.742,998.147 837.336,997.82 842.387,995.068 845.015,993.655 848.43,991.836 864.331,983.548 888.588,971.22 890.066,970.475 897.19,966.892 919.975,955.474 922.011,954.455 963.19,932.017 966.572,930.279 969.729,928.664 994.685,916.035 996.505,915.12 1001.6,912.563 1013.31,905.785 1022.9,900.529 1025.61,899.078 1029.74,896.882 1035.97,893.618 1038.94,892.075 1039.82,891.619 1046.68,888.087 1072.35,875.072 1073.16,874.666 1084.29,869.076 1085.35,868.543 1096.81,862.805 1097.79,862.316 1103.21,859.603 1108.67,856.877 1135.16,843.647 1141.95,840.257 1143.09,839.687 1156.61,832.938 1167.95,827.282 1172.89,824.819 1177.65,822.444 1178.29,822.121 1179.95,821.292 1185.76,818.394 1186.76,817.898 1189.32,816.62 1205.09,808.749 1212.89,804.86 1216.83,802.895 1217.04,802.786 1219.03,801.793 1219.66,801.48 1241.83,790.42 1259.18,780.562 1265.88,776.952 1268.43,775.599 1285.51,766.719 1286.15,766.386 1286.88,766.013 1292.02,763.391 1294.56,761.855 1302.95,756.982 1307.48,754.447 1311.81,752.069 1323.48,745.835 1327.11,743.937 1328.15,743.393 1333.58,740.578 1341.41,736.562 1342.75,735.877 1344.23,735.12 1344.88,734.792 1347.78,733.314 1362.23,726.008 1367.57,723.326 1378.18,717.997 1398.67,707.746 1412.68,700.744 1414.22,699.977 1415.12,699.528 1420.89,696.646 1427.69,693.25 1427.89,693.151 1428.45,692.869 1430.9,691.65 1451.08,681.579 1457.9,678.175 1462.97,675.644 1468.86,672.706 1469.44,672.415 1473.89,670.194 1490.77,661.773 1494.78,659.77 1513.3,650.531 1520.94,646.722 1526.86,643.769 1526.95,643.722 1527.8,643.3 1537.15,638.632 1550.01,632.217 1565.66,624.409 1572.71,620.889 1591.87,611.329 1611.67,600.145 1615.19,598.253 1618.51,596.489 1629.31,590.84 1634.85,587.99 1642.17,584.244 1644.97,582.82 1663.84,572.021 1666.79,570.419 1667.4,570.087 1677.82,564.559 1682.35,562.196 1687.97,559.291 1697.78,554.274 1700.8,552.737 1711.34,547.406 1711.84,547.152 1730.11,537.968 1732.38,536.83 1737.69,534.17 1738.11,533.962 1759.95,521.651 1774.41,514.035 1778.48,511.931 1795.35,503.315 1805.77,498.051 1836.06,482.859 1848.36,476.71 1855.39,473.202 1859.54,471.125 1860.03,470.885 1861.7,470.048 1867.05,467.38 1895.57,453.145 1929.47,436.226 1932.42,434.478 1941.51,429.29 1943.64,428.112 1949.07,425.146 1951.11,424.05 1979.85,407.492 1984.43,405.049 2005.12,394.312 2009.02,391.966 2011.25,390.652 2012.54,389.78 2016.92,386.898 2039.91,373.376 2043.1,371.634 2056.93,364.277 2058.6,363.406 2068.85,358.109 2075.12,354.905 2090.46,347.137 2096.47,344.111 2112.51,336.06 2116.53,334.05 2132.1,326.26 2138.05,323.29 2139.16,322.735 2139.78,322.366 2160.52,310.696 2176.45,302.313 2192.39,294.146 2197.81,291.399 2199.63,290.475 2200.2,290.188 2203.61,288.465 2208.96,285.769 2233.19,273.618 2250.06,265.183 2253.21,263.607 2262.45,258.994 2266.05,257.199 2274.27,253.093 2283.48,248.496 2288.85,245.817 2290.92,244.784 2297.53,241.488 2299.53,240.49 2306.42,237.048 2308.43,236.049 2314.59,232.436 2340.06,218.581 2352.76,212.012 "/>
<polyline clip-path="url(#clip852)" style="stroke:#3da44d; stroke-linecap:round; stroke-linejoin:round; stroke-width:4; stroke-opacity:1; fill:none" points="140.696,1384.24 140.696,1384.24 146.038,1381.1 147.553,1380.23 152.632,1377.36 162.297,1372.08 175.886,1364.92 175.927,1364.9 200.13,1351.04 212.211,1344.64 212.286,1344.6 215.211,1343.08 217.916,1341.42 234.198,1330.91 254.608,1319.4 257.958,1317.61 268.93,1311.84 278.043,1307.13 281.009,1305.34 289.696,1299.57 297.128,1294.38 303.602,1290.21 305.183,1289.07 318.687,1280.21 325.854,1275.93 343.633,1264.82 354.115,1258.91 355.206,1258.31 355.775,1258 361.27,1255.02 379.944,1245.24 397.817,1236.12 402.112,1233.95 404.357,1232.6 405.896,1231.69 421.094,1223.13 427.392,1219.74 429.855,1218.43 437.602,1214.37 444.128,1210.99 454.887,1205.48 478.081,1193.77 478.63,1193.44 498.02,1181.17 502.432,1178.63 509.892,1173.84 510.232,1173.63 514.14,1171.26 518.909,1168.45 526.811,1163.97 529.766,1162.34 532.559,1160.82 547.424,1152.93 554.353,1149.34 564.408,1143.38 566.546,1142.16 569.192,1140.68 576.646,1136.58 578.428,1135.45 579.921,1134.37 580.222,1134.15 581.171,1133.39 583.9,1131.26 587.696,1128.44 590.103,1126.72 608.665,1114.93 609.421,1114.49 612.587,1112.66 647.975,1093.71 657.473,1088.85 659.332,1087.91 675.462,1079.76 679.037,1077.96 692.305,1071.3 697.401,1068.75 707.906,1062.66 717.492,1056.61 728.206,1050.36 728.222,1050.35 738.134,1044.09 739.74,1043.12 740.269,1042.81 742.416,1041.54 757.833,1032.87 772.314,1025.18 772.385,1025.14 776.471,1022.64 777.753,1021.88 787.931,1015.2 805.321,1003.82 818.825,995.039 820.431,994.067 836.742,984.742 837.336,984.417 842.387,981.68 845.015,980.027 848.43,977.934 864.331,968.805 888.588,955.942 890.066,955.037 897.19,950.814 919.975,938.311 922.011,937.239 963.19,916.205 966.572,914.191 969.729,912.06 994.685,897.147 996.505,895.971 1001.6,892.333 1013.31,884.743 1022.9,879.077 1025.61,877.538 1029.74,874.851 1035.97,871 1038.94,868.953 1039.82,868.36 1046.68,863.337 1072.35,847.496 1073.16,846.965 1084.29,839.164 1085.35,838.472 1096.81,831.426 1097.79,830.854 1103.21,827.739 1108.67,824.697 1135.16,810.673 1141.95,806.607 1143.09,805.943 1156.61,797.364 1167.95,790.834 1172.89,787.667 1177.65,784.319 1178.29,783.88 1179.95,782.765 1185.76,779.022 1186.76,778.305 1189.32,776.26 1205.09,765.195 1212.89,760.392 1216.83,757.713 1217.04,757.568 1219.03,756.263 1219.66,755.856 1241.83,742.748 1259.18,733.443 1265.88,729.378 1268.43,727.885 1285.51,717.195 1286.15,716.754 1286.88,716.19 1292.02,712.392 1294.56,710.605 1302.95,705.085 1307.48,701.88 1311.81,698.977 1323.48,690.84 1327.11,688.527 1328.15,687.875 1333.58,684.575 1341.41,680.04 1342.75,679.282 1344.23,678.45 1344.88,678.092 1347.78,676.485 1362.23,667.674 1367.57,664.169 1378.18,656.844 1398.67,644.627 1412.68,637.016 1414.22,636.055 1415.12,635.41 1420.89,630.937 1427.69,626.126 1427.89,625.991 1428.45,625.556 1430.9,623.714 1451.08,610.441 1457.9,606.464 1462.97,603.608 1468.86,600.375 1469.44,600.002 1473.89,596.813 1490.77,584.89 1494.78,582.377 1513.3,571.682 1520.94,566.902 1526.86,563.395 1526.95,563.341 1527.8,562.768 1537.15,556.006 1550.01,547.832 1565.66,538.888 1572.71,535.065 1591.87,523.754 1611.67,513.124 1615.19,511.288 1618.51,509.57 1629.31,504.03 1634.85,500.729 1642.17,496.536 1644.97,494.714 1663.84,483.486 1666.79,481.844 1667.4,481.504 1677.82,475.873 1682.35,473.479 1687.97,470.543 1697.78,465.487 1700.8,463.941 1711.34,458.587 1711.84,458.333 1730.11,449.128 1732.38,447.988 1737.69,445.325 1738.11,445.117 1759.95,434.187 1774.41,425.906 1778.48,423.309 1795.35,412.207 1805.77,405.293 1836.06,388.047 1848.36,381.596 1855.39,377.377 1859.54,374.595 1860.03,374.281 1861.7,373.201 1867.05,369.393 1895.57,352.125 1929.47,334.295 1932.42,332.791 1941.51,328.181 1943.64,326.905 1949.07,323.245 1951.11,321.737 1979.85,303.661 1984.43,301.111 2005.12,290.09 2009.02,288.071 2011.25,286.92 2012.54,286.26 2016.92,283.616 2039.91,270.8 2043.1,269.11 2056.93,260.881 2058.6,259.938 2068.85,253.474 2075.12,249.236 2090.46,238.778 2096.47,235.11 2112.51,225.995 2116.53,223.819 2132.1,215.606 2138.05,212.538 2139.16,211.86 2139.78,211.485 2160.52,199.699 2176.45,191.278 2192.39,183.092 2197.81,180.342 2199.63,179.416 2200.2,179.129 2203.61,177.088 2208.96,173.508 2233.19,159.2 2250.06,150.183 2253.21,148.245 2262.45,142.826 2266.05,140.797 2274.27,136.279 2283.48,130.617 2288.85,127.493 2290.92,126.117 2297.53,121.919 2299.53,120.697 2306.42,116.028 2308.43,114.547 2314.59,110.233 2340.06,93.3665 2352.76,86.1857 "/>
<polyline clip-path="url(#clip852)" style="stroke:#c271d2; stroke-linecap:round; stroke-linejoin:round; stroke-width:4; stroke-opacity:1; fill:none" points="140.696,1384.24 140.696,1384.24 146.038,1381.57 147.553,1380.82 152.632,1378.28 162.297,1373.46 175.886,1365.67 175.927,1365.64 200.13,1352.77 212.211,1346.57 212.286,1346.53 215.211,1344.77 217.916,1343.18 234.198,1334.06 254.608,1323.33 257.958,1321.61 268.93,1315.14 278.043,1310.08 281.009,1308.47 289.696,1303.84 297.128,1299.96 303.602,1296.62 305.183,1295.81 318.687,1288.93 325.854,1285.31 343.633,1276.38 354.115,1271.13 355.206,1270.58 355.775,1270.24 361.27,1267.02 379.944,1256.73 397.817,1247.4 402.112,1245.2 404.357,1244.05 405.896,1243.27 421.094,1234.47 427.392,1230.48 429.855,1228.97 437.602,1224.42 444.128,1220.75 454.887,1214.91 478.081,1202.85 478.63,1202.56 498.02,1192.74 502.432,1190.52 509.892,1186.77 510.232,1186.57 514.14,1183.9 518.909,1180.79 526.811,1175.95 529.766,1173.93 532.559,1172.09 547.424,1163.04 554.353,1159.12 564.408,1153.64 566.546,1152.5 569.192,1151.1 576.646,1147.2 578.428,1146.27 579.921,1145.5 580.222,1145.35 581.171,1144.86 583.9,1143.45 587.696,1141.51 590.103,1140.28 608.665,1130.87 609.421,1130.42 612.587,1128.24 647.975,1107.5 657.473,1102.48 659.332,1101.51 675.462,1093.22 679.037,1091.4 692.305,1084.7 697.401,1082.13 707.906,1076.86 717.492,1072.06 728.206,1066.7 728.222,1066.69 738.134,1061.74 739.74,1060.93 740.269,1060.67 742.416,1059.6 757.833,1051.9 772.314,1044.67 772.385,1044.64 776.471,1042.6 777.753,1041.96 787.931,1036.88 805.321,1028.2 818.825,1021.46 820.431,1020.66 836.742,1012.52 837.336,1012.23 842.387,1009.71 845.015,1008.4 848.43,1006.69 864.331,998.758 888.588,986.656 890.066,985.918 897.19,982.364 919.975,970.996 922.011,969.98 963.19,949.435 966.572,947.747 969.729,946.172 994.685,933.721 996.505,932.813 1001.6,930.272 1013.31,924.428 1022.9,919.644 1025.61,918.039 1029.74,915.642 1035.97,912.136 1038.94,910.5 1039.82,910.019 1046.68,906.32 1072.35,892.989 1073.16,892.578 1084.29,886.933 1085.35,886.396 1096.81,879.731 1097.79,879.184 1103.21,876.186 1108.67,873.235 1135.16,859.443 1141.95,855.988 1143.09,855.409 1156.61,848.582 1167.95,842.889 1172.89,840.414 1177.65,838.03 1178.29,837.707 1179.95,836.875 1185.76,833.969 1186.76,833.472 1189.32,832.191 1205.09,824.309 1212.89,819.762 1216.83,817.541 1217.04,817.419 1219.03,816.125 1219.66,815.722 1241.83,802.685 1259.18,793.403 1265.88,789.92 1268.43,788.606 1285.51,779.898 1286.15,779.57 1286.88,779.201 1292.02,776.608 1294.56,775.324 1302.95,771.105 1307.48,768.832 1311.81,766.66 1323.48,760.818 1327.11,759.005 1328.15,758.483 1333.58,755.767 1341.41,751.859 1342.75,751.188 1344.23,750.446 1344.88,750.125 1347.78,748.674 1362.23,741.458 1367.57,738.798 1378.18,733.499 1398.67,723.277 1412.68,716.284 1414.22,715.518 1415.12,715.068 1420.89,712.189 1427.69,708.795 1427.89,708.696 1428.45,708.414 1430.9,706.965 1451.08,695.71 1457.9,692.094 1462.97,689.443 1468.86,686.396 1469.44,686.095 1473.89,683.81 1490.77,675.237 1494.78,673.211 1513.3,662.654 1520.94,658.55 1526.86,655.429 1526.95,655.38 1527.8,654.937 1537.15,650.087 1550.01,643.519 1565.66,635.613 1572.71,632.066 1591.87,622.466 1611.67,612.573 1615.19,610.488 1618.51,608.568 1629.31,602.545 1634.85,599.563 1642.17,595.064 1644.97,593.411 1663.84,582.907 1666.79,581.333 1667.4,581.006 1677.82,574.718 1682.35,571.712 1687.97,568.171 1697.78,562.365 1700.8,560.647 1711.34,554.846 1711.84,554.575 1730.11,544.967 1732.38,543.796 1737.69,541.072 1738.11,540.86 1759.95,529.792 1774.41,522.532 1778.48,520.492 1795.35,512.049 1805.77,506.842 1836.06,491.721 1848.36,484.638 1855.39,480.789 1859.54,478.555 1860.03,478.298 1861.7,477.407 1867.05,474.59 1895.57,459.961 1929.47,442.924 1932.42,441.447 1941.51,436.902 1943.64,435.84 1949.07,433.125 1951.11,432.108 1979.85,417.761 1984.43,415.474 2005.12,405.15 2009.02,403.205 2011.25,402.09 2012.54,401.449 2016.92,399.261 2039.91,387.791 2043.1,386.2 2056.93,379.299 2058.6,378.466 2068.85,373.35 2075.12,370.222 2090.46,362.57 2096.47,359.046 2112.51,349.029 2116.53,346.346 2132.1,336.84 2138.05,333.472 2139.16,332.855 2139.78,332.512 2160.52,321.425 2176.45,313.235 2192.39,305.163 2197.81,302.436 2199.63,301.517 2200.2,301.231 2203.61,299.517 2208.96,296.833 2233.19,284.711 2250.06,276.284 2253.21,274.709 2262.45,270.098 2266.05,268.303 2274.27,264.198 2283.48,259.602 2288.85,256.923 2290.92,255.89 2297.53,252.594 2299.53,251.596 2306.42,248.155 2308.43,247.156 2314.59,244.08 2340.06,231.373 2352.76,225.037 "/>
<polyline clip-path="url(#clip852)" style="stroke:#ac8d18; stroke-linecap:round; stroke-linejoin:round; stroke-width:4; stroke-opacity:1; fill:none" points="140.696,1384.24 140.696,1384.24 146.038,1381.1 147.553,1380.23 152.632,1377.36 162.297,1372.08 175.886,1364.92 175.927,1364.9 200.13,1351.04 212.211,1344.64 212.286,1344.6 215.211,1343.08 217.916,1341.42 234.198,1330.91 254.608,1319.4 257.958,1317.61 268.93,1311.84 278.043,1307.13 281.009,1305.34 289.696,1299.57 297.128,1294.38 303.602,1290.21 305.183,1289.07 318.687,1280.21 325.854,1275.93 343.633,1264.82 354.115,1258.91 355.206,1258.31 355.775,1258 361.27,1255.02 379.944,1245.24 397.817,1236.12 402.112,1233.95 404.357,1232.6 405.896,1231.69 421.094,1223.13 427.392,1219.74 429.855,1218.43 437.602,1214.37 444.128,1210.99 454.887,1205.48 478.081,1193.77 478.63,1193.44 498.02,1181.17 502.432,1178.63 509.892,1173.84 510.232,1173.63 514.14,1171.26 518.909,1168.45 526.811,1163.97 529.766,1162.34 532.559,1160.82 547.424,1152.93 554.353,1149.34 564.408,1143.38 566.546,1142.16 569.192,1140.68 576.646,1136.58 578.428,1135.45 579.921,1134.37 580.222,1134.15 581.171,1133.39 583.9,1131.26 587.696,1128.44 590.103,1126.72 608.665,1114.93 609.421,1114.49 612.587,1112.66 647.975,1093.71 657.473,1088.85 659.332,1087.91 675.462,1079.76 679.037,1077.96 692.305,1071.3 697.401,1068.75 707.906,1062.66 717.492,1056.61 728.206,1050.36 728.222,1050.35 738.134,1044.09 739.74,1043.12 740.269,1042.81 742.416,1041.54 757.833,1032.87 772.314,1025.18 772.385,1025.14 776.471,1022.64 777.753,1021.88 787.931,1015.2 805.321,1003.82 818.825,995.039 820.431,994.067 836.742,984.742 837.336,984.417 842.387,981.68 845.015,980.027 848.43,977.934 864.331,968.805 888.588,955.942 890.066,955.037 897.19,950.814 919.975,938.311 922.011,937.239 963.19,916.205 966.572,914.191 969.729,912.06 994.685,897.147 996.505,895.971 1001.6,892.333 1013.31,884.743 1022.9,879.077 1025.61,877.538 1029.74,874.851 1035.97,871 1038.94,868.953 1039.82,868.36 1046.68,863.337 1072.35,847.496 1073.16,846.965 1084.29,839.164 1085.35,838.472 1096.81,831.426 1097.79,830.854 1103.21,827.739 1108.67,824.697 1135.16,810.673 1141.95,806.607 1143.09,805.943 1156.61,797.364 1167.95,790.834 1172.89,787.667 1177.65,784.319 1178.29,783.88 1179.95,782.765 1185.76,779.022 1186.76,778.305 1189.32,776.26 1205.09,765.195 1212.89,760.392 1216.83,757.713 1217.04,757.568 1219.03,756.263 1219.66,755.856 1241.83,742.748 1259.18,733.443 1265.88,729.378 1268.43,727.885 1285.51,717.195 1286.15,716.754 1286.88,716.19 1292.02,712.392 1294.56,710.605 1302.95,705.085 1307.48,701.88 1311.81,698.977 1323.48,690.84 1327.11,688.527 1328.15,687.875 1333.58,684.575 1341.41,680.04 1342.75,679.282 1344.23,678.45 1344.88,678.092 1347.78,676.485 1362.23,667.674 1367.57,664.169 1378.18,656.844 1398.67,644.627 1412.68,637.016 1414.22,636.055 1415.12,635.41 1420.89,630.937 1427.69,626.126 1427.89,625.991 1428.45,625.556 1430.9,623.714 1451.08,610.441 1457.9,606.464 1462.97,603.608 1468.86,600.375 1469.44,600.002 1473.89,596.813 1490.77,584.89 1494.78,582.377 1513.3,571.682 1520.94,566.902 1526.86,563.395 1526.95,563.341 1527.8,562.768 1537.15,556.006 1550.01,547.832 1565.66,538.888 1572.71,535.065 1591.87,523.754 1611.67,513.124 1615.19,511.288 1618.51,509.57 1629.31,504.03 1634.85,500.729 1642.17,496.536 1644.97,494.714 1663.84,483.486 1666.79,481.844 1667.4,481.504 1677.82,475.873 1682.35,473.479 1687.97,470.543 1697.78,465.487 1700.8,463.941 1711.34,458.587 1711.84,458.333 1730.11,449.128 1732.38,447.988 1737.69,445.325 1738.11,445.117 1759.95,434.187 1774.41,425.906 1778.48,423.309 1795.35,412.207 1805.77,405.293 1836.06,388.047 1848.36,381.596 1855.39,377.377 1859.54,374.595 1860.03,374.281 1861.7,373.201 1867.05,369.393 1895.57,352.125 1929.47,334.295 1932.42,332.791 1941.51,328.181 1943.64,326.905 1949.07,323.245 1951.11,321.737 1979.85,303.661 1984.43,301.111 2005.12,290.09 2009.02,288.071 2011.25,286.92 2012.54,286.26 2016.92,283.616 2039.91,270.8 2043.1,269.11 2056.93,260.881 2058.6,259.938 2068.85,253.474 2075.12,249.236 2090.46,238.778 2096.47,235.11 2112.51,225.995 2116.53,223.819 2132.1,215.606 2138.05,212.538 2139.16,211.86 2139.78,211.485 2160.52,199.699 2176.45,191.278 2192.39,183.092 2197.81,180.342 2199.63,179.416 2200.2,179.129 2203.61,177.088 2208.96,173.508 2233.19,159.2 2250.06,150.183 2253.21,148.245 2262.45,142.826 2266.05,140.797 2274.27,136.279 2283.48,130.617 2288.85,127.493 2290.92,126.117 2297.53,121.919 2299.53,120.697 2306.42,116.028 2308.43,114.547 2314.59,110.233 2340.06,93.3665 2352.76,86.1857 "/>
<polyline clip-path="url(#clip852)" style="stroke:#00a9ad; stroke-linecap:round; stroke-linejoin:round; stroke-width:4; stroke-opacity:1; fill:none" points="140.696,1384.24 140.696,1384.24 146.038,1381.57 147.553,1380.67 152.632,1377.26 162.297,1371.23 175.886,1363.44 175.927,1363.41 200.13,1349.07 212.211,1342.56 212.286,1342.52 215.211,1340.98 217.916,1339.56 234.198,1331.17 254.608,1320.84 257.958,1319.15 268.93,1313.65 278.043,1309.08 281.009,1307.6 289.696,1303.25 297.128,1299.54 303.602,1296.31 305.183,1295.52 318.687,1288.77 325.854,1285.2 343.633,1276.32 354.115,1270.26 355.206,1269.65 355.775,1269.33 361.27,1266.31 379.944,1256.42 397.817,1247.26 402.112,1244.69 404.357,1243.38 405.896,1242.5 421.094,1234.08 427.392,1230.73 429.855,1229.43 437.602,1225.4 444.128,1221.48 454.887,1215.36 478.081,1203 478.63,1202.72 498.02,1192.8 502.432,1190.57 509.892,1186.81 510.232,1186.64 514.14,1184.67 518.909,1182.28 526.811,1178.31 529.766,1176.83 532.559,1175.17 547.424,1166.78 554.353,1163.05 564.408,1157.76 566.546,1156.65 569.192,1155.28 576.646,1151.45 578.428,1150.54 579.921,1149.78 580.222,1149.63 581.171,1149.15 583.9,1147.76 587.696,1145.83 590.103,1144.62 608.665,1135.27 609.421,1134.89 612.587,1133.3 647.975,1115.6 657.473,1110.86 659.332,1109.93 675.462,1101.88 679.037,1100.1 692.305,1093.47 697.401,1090.93 707.906,1085.69 717.492,1080.91 728.206,1075.56 728.222,1075.55 738.134,1069.81 739.74,1068.91 740.269,1068.61 742.416,1067.42 757.833,1059.14 772.314,1051.64 772.385,1051.6 776.471,1049.14 777.753,1048.38 787.931,1042.58 805.321,1033.22 818.825,1026.22 820.431,1025.4 836.742,1017.11 837.336,1016.81 842.387,1014.26 845.015,1012.94 848.43,1011.22 864.331,1002.11 888.588,989.257 890.066,988.495 897.19,984.843 919.975,973.31 922.011,972.286 963.19,951.669 966.572,949.98 969.729,948.403 994.685,935.945 996.505,935.037 1001.6,932.495 1013.31,926.651 1022.9,921.089 1025.61,919.573 1029.74,917.292 1035.97,913.926 1038.94,912.344 1039.82,911.877 1046.68,908.275 1072.35,895.126 1073.16,894.718 1084.29,889.105 1085.35,888.57 1096.81,882.818 1097.79,882.329 1103.21,879.612 1108.67,876.882 1135.16,863.643 1141.95,860.252 1143.09,859.682 1156.61,852.932 1167.95,847.276 1172.89,844.813 1177.65,842.437 1178.29,842.115 1179.95,841.126 1185.76,837.754 1186.76,837.188 1189.32,835.745 1205.09,827.187 1212.89,823.101 1216.83,821.06 1217.04,820.947 1219.03,819.921 1219.66,819.597 1241.83,806.918 1259.18,797.749 1265.88,794.292 1268.43,792.986 1285.51,784.312 1286.15,783.984 1286.88,783.616 1292.02,781.029 1294.56,779.747 1302.95,775.534 1307.48,773.264 1311.81,771.094 1323.48,765.255 1327.11,763.443 1328.15,762.921 1333.58,760.207 1341.41,756.299 1342.75,755.629 1344.23,754.887 1344.88,754.566 1347.78,753.115 1362.23,745.9 1367.57,743.24 1378.18,737.941 1398.67,726.383 1412.68,717.939 1414.22,717.062 1415.12,716.552 1420.89,713.334 1427.69,709.638 1427.89,709.531 1428.45,709.229 1430.9,707.926 1451.08,697.422 1457.9,693.94 1462.97,691.366 1468.86,687.872 1469.44,687.533 1473.89,684.987 1490.77,675.788 1494.78,673.305 1513.3,662.695 1520.94,658.579 1526.86,655.451 1526.95,655.402 1527.8,654.958 1537.15,650.101 1550.01,643.527 1565.66,635.617 1572.71,632.069 1591.87,622.467 1611.67,612.574 1615.19,610.813 1618.51,609.156 1629.31,603.762 1634.85,601.001 1642.17,597.344 1644.97,595.947 1663.84,586.533 1666.79,585.06 1667.4,584.753 1677.82,579.555 1682.35,577.294 1687.97,574.49 1697.78,569.598 1700.8,568.09 1711.34,562.833 1711.84,562.582 1730.11,553.466 1732.38,552.333 1737.69,549.211 1738.11,548.971 1759.95,536.999 1774.41,529.479 1778.48,527.393 1795.35,518.824 1805.77,513.575 1836.06,498.403 1848.36,492.256 1855.39,488.749 1859.54,486.673 1860.03,486.432 1861.7,485.596 1867.05,482.928 1895.57,468.695 1929.47,451.776 1932.42,450.304 1941.51,445.768 1943.64,444.708 1949.07,441.997 1951.11,440.981 1979.85,426.643 1984.43,423.944 2005.12,412.527 2009.02,410.467 2011.25,409.295 2012.54,408.624 2016.92,406.344 2039.91,394.605 2043.1,392.994 2056.93,386.033 2058.6,385.195 2068.85,380.055 2075.12,376.917 2090.46,369.25 2096.47,366.247 2112.51,358.236 2116.53,356.233 2132.1,347.341 2138.05,344.116 2139.16,343.521 2139.78,343.19 2160.52,332.363 2176.45,324.259 2192.39,315.094 2197.81,312.141 2199.63,310.982 2200.2,310.626 2203.61,308.524 2208.96,305.339 2233.19,291.996 2250.06,283.239 2253.21,281.625 2262.45,276.174 2266.05,273.804 2274.27,268.687 2283.48,263.322 2288.85,260.322 2290.92,259.184 2297.53,255.613 2299.53,254.356 2306.42,250.18 2308.43,249.006 2314.59,245.482 2340.06,231.82 2352.76,224.324 "/>
<polyline clip-path="url(#clip852)" style="stroke:#ed5d92; stroke-linecap:round; stroke-linejoin:round; stroke-width:4; stroke-opacity:1; fill:none" points="140.696,1384.24 140.696,1384.24 146.038,1381.1 147.553,1380.23 152.632,1377.36 162.297,1372.08 175.886,1364.92 175.927,1364.9 200.13,1351.04 212.211,1344.64 212.286,1344.6 215.211,1343.08 217.916,1341.42 234.198,1330.91 254.608,1319.4 257.958,1317.61 268.93,1311.84 278.043,1307.13 281.009,1305.34 289.696,1299.57 297.128,1294.38 303.602,1290.21 305.183,1289.07 318.687,1280.21 325.854,1275.93 343.633,1264.82 354.115,1258.91 355.206,1258.31 355.775,1258 361.27,1255.02 379.944,1245.24 397.817,1236.12 402.112,1233.95 404.357,1232.6 405.896,1231.69 421.094,1223.13 427.392,1219.74 429.855,1218.43 437.602,1214.37 444.128,1210.99 454.887,1205.48 478.081,1193.77 478.63,1193.44 498.02,1181.17 502.432,1178.63 509.892,1173.84 510.232,1173.63 514.14,1171.26 518.909,1168.45 526.811,1163.97 529.766,1162.34 532.559,1160.82 547.424,1152.93 554.353,1149.34 564.408,1143.38 566.546,1142.16 569.192,1140.68 576.646,1136.58 578.428,1135.45 579.921,1134.37 580.222,1134.15 581.171,1133.39 583.9,1131.26 587.696,1128.44 590.103,1126.72 608.665,1114.93 609.421,1114.49 612.587,1112.66 647.975,1093.71 657.473,1088.85 659.332,1087.91 675.462,1079.76 679.037,1077.96 692.305,1071.3 697.401,1068.75 707.906,1062.66 717.492,1056.61 728.206,1050.36 728.222,1050.35 738.134,1044.09 739.74,1043.12 740.269,1042.81 742.416,1041.54 757.833,1032.87 772.314,1025.18 772.385,1025.14 776.471,1022.64 777.753,1021.88 787.931,1015.2 805.321,1003.82 818.825,995.039 820.431,994.067 836.742,984.742 837.336,984.417 842.387,981.68 845.015,980.027 848.43,977.934 864.331,968.805 888.588,955.942 890.066,955.037 897.19,950.814 919.975,938.311 922.011,937.239 963.19,916.205 966.572,914.191 969.729,912.06 994.685,897.147 996.505,895.971 1001.6,892.333 1013.31,884.743 1022.9,879.077 1025.61,877.538 1029.74,874.851 1035.97,871 1038.94,868.953 1039.82,868.36 1046.68,863.337 1072.35,847.496 1073.16,846.965 1084.29,839.164 1085.35,838.472 1096.81,831.426 1097.79,830.854 1103.21,827.739 1108.67,824.697 1135.16,810.673 1141.95,806.607 1143.09,805.943 1156.61,797.364 1167.95,790.834 1172.89,787.667 1177.65,784.319 1178.29,783.88 1179.95,782.765 1185.76,779.022 1186.76,778.305 1189.32,776.26 1205.09,765.195 1212.89,760.392 1216.83,757.713 1217.04,757.568 1219.03,756.263 1219.66,755.856 1241.83,742.748 1259.18,733.443 1265.88,729.378 1268.43,727.885 1285.51,717.195 1286.15,716.754 1286.88,716.19 1292.02,712.392 1294.56,710.605 1302.95,705.085 1307.48,701.88 1311.81,698.977 1323.48,690.84 1327.11,688.527 1328.15,687.875 1333.58,684.575 1341.41,680.04 1342.75,679.282 1344.23,678.45 1344.88,678.092 1347.78,676.485 1362.23,667.674 1367.57,664.169 1378.18,656.844 1398.67,644.627 1412.68,637.016 1414.22,636.055 1415.12,635.41 1420.89,630.937 1427.69,626.126 1427.89,625.991 1428.45,625.556 1430.9,623.714 1451.08,610.441 1457.9,606.464 1462.97,603.608 1468.86,600.375 1469.44,600.002 1473.89,596.813 1490.77,584.89 1494.78,582.377 1513.3,571.682 1520.94,566.902 1526.86,563.395 1526.95,563.341 1527.8,562.768 1537.15,556.006 1550.01,547.832 1565.66,538.888 1572.71,535.065 1591.87,523.754 1611.67,513.124 1615.19,511.288 1618.51,509.57 1629.31,504.03 1634.85,500.729 1642.17,496.536 1644.97,494.714 1663.84,483.486 1666.79,481.844 1667.4,481.504 1677.82,475.873 1682.35,473.479 1687.97,470.543 1697.78,465.487 1700.8,463.941 1711.34,458.587 1711.84,458.333 1730.11,449.128 1732.38,447.988 1737.69,445.325 1738.11,445.117 1759.95,434.187 1774.41,425.906 1778.48,423.309 1795.35,412.207 1805.77,405.293 1836.06,388.047 1848.36,381.596 1855.39,377.377 1859.54,374.595 1860.03,374.281 1861.7,373.201 1867.05,369.393 1895.57,352.125 1929.47,334.295 1932.42,332.791 1941.51,328.181 1943.64,326.905 1949.07,323.245 1951.11,321.737 1979.85,303.661 1984.43,301.111 2005.12,290.09 2009.02,288.071 2011.25,286.92 2012.54,286.26 2016.92,283.616 2039.91,270.8 2043.1,269.11 2056.93,260.881 2058.6,259.938 2068.85,253.474 2075.12,249.236 2090.46,238.778 2096.47,235.11 2112.51,225.995 2116.53,223.819 2132.1,215.606 2138.05,212.538 2139.16,211.86 2139.78,211.485 2160.52,199.699 2176.45,191.278 2192.39,183.092 2197.81,180.342 2199.63,179.416 2200.2,179.129 2203.61,177.088 2208.96,173.508 2233.19,159.2 2250.06,150.183 2253.21,148.245 2262.45,142.826 2266.05,140.797 2274.27,136.279 2283.48,130.617 2288.85,127.493 2290.92,126.117 2297.53,121.919 2299.53,120.697 2306.42,116.028 2308.43,114.547 2314.59,110.233 2340.06,93.3665 2352.76,86.1857 "/>
<polyline clip-path="url(#clip852)" style="stroke:#c68125; stroke-linecap:round; stroke-linejoin:round; stroke-width:4; stroke-opacity:1; fill:none" points="140.696,1384.24 140.696,1384.24 146.038,1381.57 147.553,1380.82 152.632,1378.28 162.297,1373.46 175.886,1366.68 175.927,1366.66 200.13,1354.58 212.211,1348.56 212.286,1348.52 215.211,1347.06 217.916,1345.71 234.198,1337.59 254.608,1327.4 257.958,1325.73 268.93,1320.26 278.043,1315.71 281.009,1314.23 289.696,1309.9 297.128,1306.19 303.602,1302.96 305.183,1302.17 318.687,1295.43 325.854,1291.86 343.633,1282.99 354.115,1277.76 355.206,1277.11 355.775,1276.77 361.27,1273.58 379.944,1262.08 397.817,1252.25 402.112,1249.98 404.357,1248.8 405.896,1247.99 421.094,1240.16 427.392,1236.95 429.855,1235.7 437.602,1231.78 444.128,1228.5 454.887,1222.24 478.081,1208.31 478.63,1208 498.02,1197.6 502.432,1195.3 509.892,1191.46 510.232,1191.28 514.14,1189.28 518.909,1186.86 526.811,1182.19 529.766,1180.5 532.559,1178.93 547.424,1169.79 554.353,1165.85 564.408,1160.35 566.546,1159.21 569.192,1157.8 576.646,1153.89 578.428,1152.96 579.921,1152.19 580.222,1152 581.171,1151.42 583.9,1149.51 587.696,1146.97 590.103,1145.4 608.665,1134.36 609.421,1133.93 612.587,1132.18 647.975,1111.84 657.473,1106.86 659.332,1105.72 675.462,1096.4 679.037,1094.44 692.305,1087.37 697.401,1084.71 707.906,1079.3 717.492,1074.42 728.206,1069.01 728.222,1069 738.134,1064.01 739.74,1063.05 740.269,1062.69 742.416,1061.02 757.833,1050.39 772.314,1040.7 772.385,1040.65 776.471,1038.17 777.753,1037.4 787.931,1031.55 805.321,1022.15 818.825,1015.13 820.431,1014.31 836.742,1006.01 837.336,1005.65 842.387,1002.21 845.015,1000.5 848.43,998.337 864.331,988.998 888.588,974.527 890.066,973.713 897.19,969.851 919.975,956.537 922.011,955.231 963.19,932.138 966.572,930.384 969.729,928.755 994.685,914.567 996.505,913.593 1001.6,910.894 1013.31,904.798 1022.9,899.888 1025.61,898.51 1029.74,896.41 1035.97,893.261 1038.94,891.763 1039.82,891.233 1046.68,887.214 1072.35,871.756 1073.16,871.309 1084.29,865.292 1085.35,864.729 1096.81,858.737 1097.79,858.138 1103.21,854.407 1108.67,850.879 1135.16,834.094 1141.95,830.295 1143.09,829.557 1156.61,821.352 1167.95,815.001 1172.89,812.329 1177.65,809.792 1178.29,809.387 1179.95,808.356 1185.76,804.347 1186.76,803.688 1189.32,802.023 1205.09,792.54 1212.89,788.19 1216.83,786.046 1217.04,785.928 1219.03,784.857 1219.66,784.52 1241.83,772.948 1259.18,764.13 1265.88,760.75 1268.43,759.227 1285.51,749.597 1286.15,749.246 1286.88,748.852 1292.02,745.648 1294.56,744.108 1302.95,738.53 1307.48,735.712 1311.81,732.719 1323.48,725.316 1327.11,722.829 1328.15,722.133 1333.58,718.149 1341.41,712.222 1342.75,711.271 1344.23,710.238 1344.88,709.734 1347.78,707.245 1362.23,696.475 1367.57,692.986 1378.18,686.527 1398.67,675.162 1412.68,667.815 1414.22,667.022 1415.12,666.558 1420.89,663.596 1427.69,660.129 1427.89,660.008 1428.45,659.666 1430.9,658.205 1451.08,646.883 1457.9,642.669 1462.97,639.678 1468.86,636.322 1469.44,635.996 1473.89,633.53 1490.77,624.525 1494.78,622.437 1513.3,612.954 1520.94,609.09 1526.86,606.106 1526.95,606.05 1527.8,605.541 1537.15,600.11 1550.01,593.052 1565.66,583.708 1572.71,579.779 1591.87,569.586 1611.67,559.437 1615.19,557.651 1618.51,555.972 1629.31,549.674 1634.85,546.594 1642.17,542.621 1644.97,541.128 1663.84,531.304 1666.79,529.517 1667.4,529.089 1677.82,522.278 1682.35,519.52 1687.97,515.729 1697.78,508.821 1700.8,506.567 1711.34,499.38 1711.84,499.058 1730.11,486.951 1732.38,485.59 1737.69,482.49 1738.11,482.252 1759.95,470.327 1774.41,462.821 1778.48,460.737 1795.35,452.175 1805.77,446.928 1836.06,431.759 1848.36,425.612 1855.39,422.106 1859.54,420.029 1860.03,419.742 1861.7,418.747 1867.05,415.649 1895.57,400.27 1929.47,381.271 1932.42,379.726 1941.51,375.02 1943.64,373.929 1949.07,371.151 1951.11,370.115 1979.85,355.617 1984.43,353.32 2005.12,341.624 2009.02,339.534 2011.25,338.347 2012.54,337.668 2016.92,335.366 2039.91,322.126 2043.1,320.405 2056.93,313.111 2058.6,312.085 2068.85,306.052 2075.12,302.54 2090.46,294.299 2096.47,291.16 2112.51,282.922 2116.53,280.883 2132.1,273.019 2138.05,270.031 2139.16,269.474 2139.78,269.164 2160.52,257.426 2176.45,249.02 2192.39,240.842 2197.81,237.613 2199.63,236.551 2200.2,236.167 2203.61,233.913 2208.96,230.532 2233.19,215.237 2250.06,204.773 2253.21,202.96 2262.45,197.82 2266.05,195.871 2274.27,191.496 2283.48,186.695 2288.85,183.93 2290.92,182.869 2297.53,178.929 2299.53,177.771 2306.42,173.876 2308.43,172.769 2314.59,169.417 2340.06,156.12 2352.76,149.664 "/>
<polyline clip-path="url(#clip852)" style="stroke:#00a98d; stroke-linecap:round; stroke-linejoin:round; stroke-width:4; stroke-opacity:1; fill:none" points="140.696,1384.24 140.696,1384.24 146.038,1381.57 147.553,1380.82 152.632,1378.28 162.297,1373.46 175.886,1366.68 175.927,1366.66 200.13,1354.58 212.211,1348.56 212.286,1348.52 215.211,1347.06 217.916,1345.71 234.198,1337.59 254.608,1327.4 257.958,1325.73 268.93,1320.26 278.043,1315.71 281.009,1314.23 289.696,1309.9 297.128,1306.19 303.602,1302.96 305.183,1302.17 318.687,1295.43 325.854,1291.86 343.633,1282.99 354.115,1277.76 355.206,1277.11 355.775,1276.77 361.27,1273.58 379.944,1262.08 397.817,1252.25 402.112,1249.98 404.357,1248.8 405.896,1247.99 421.094,1240.16 427.392,1236.95 429.855,1235.7 437.602,1231.78 444.128,1228.5 454.887,1222.24 478.081,1208.31 478.63,1208 498.02,1197.6 502.432,1195.3 509.892,1191.46 510.232,1191.28 514.14,1189.28 518.909,1186.86 526.811,1182.19 529.766,1180.5 532.559,1178.93 547.424,1169.79 554.353,1165.85 564.408,1160.35 566.546,1159.21 569.192,1157.8 576.646,1153.89 578.428,1152.96 579.921,1152.19 580.222,1152 581.171,1151.42 583.9,1149.51 587.696,1146.97 590.103,1145.4 608.665,1134.36 609.421,1133.93 612.587,1132.18 647.975,1111.84 657.473,1106.86 659.332,1105.72 675.462,1096.4 679.037,1094.44 692.305,1087.37 697.401,1084.71 707.906,1079.3 717.492,1074.42 728.206,1069.01 728.222,1069 738.134,1064.01 739.74,1063.05 740.269,1062.69 742.416,1061.02 757.833,1050.39 772.314,1040.7 772.385,1040.65 776.471,1038.17 777.753,1037.4 787.931,1031.55 805.321,1022.15 818.825,1015.13 820.431,1014.31 836.742,1006.01 837.336,1005.65 842.387,1002.21 845.015,1000.5 848.43,998.337 864.331,988.998 888.588,974.527 890.066,973.713 897.19,969.851 919.975,956.537 922.011,955.231 963.19,932.138 966.572,930.384 969.729,928.755 994.685,914.567 996.505,913.593 1001.6,910.894 1013.31,904.798 1022.9,899.888 1025.61,898.51 1029.74,896.41 1035.97,893.261 1038.94,891.763 1039.82,891.233 1046.68,887.214 1072.35,871.756 1073.16,871.309 1084.29,865.292 1085.35,864.729 1096.81,858.737 1097.79,858.138 1103.21,854.407 1108.67,850.879 1135.16,834.094 1141.95,830.295 1143.09,829.557 1156.61,821.352 1167.95,815.001 1172.89,812.329 1177.65,809.792 1178.29,809.387 1179.95,808.356 1185.76,804.347 1186.76,803.688 1189.32,802.023 1205.09,792.54 1212.89,788.19 1216.83,786.046 1217.04,785.928 1219.03,784.857 1219.66,784.52 1241.83,772.948 1259.18,764.13 1265.88,760.75 1268.43,759.227 1285.51,749.597 1286.15,749.246 1286.88,748.852 1292.02,745.648 1294.56,744.108 1302.95,738.53 1307.48,735.712 1311.81,732.719 1323.48,725.316 1327.11,722.829 1328.15,722.133 1333.58,718.149 1341.41,712.222 1342.75,711.271 1344.23,710.238 1344.88,709.734 1347.78,707.245 1362.23,696.475 1367.57,692.986 1378.18,686.527 1398.67,675.162 1412.68,667.815 1414.22,667.022 1415.12,666.558 1420.89,663.596 1427.69,660.129 1427.89,660.008 1428.45,659.666 1430.9,658.205 1451.08,646.883 1457.9,642.669 1462.97,639.678 1468.86,636.322 1469.44,635.996 1473.89,633.53 1490.77,624.525 1494.78,622.437 1513.3,612.954 1520.94,609.09 1526.86,606.106 1526.95,606.05 1527.8,605.541 1537.15,600.11 1550.01,593.052 1565.66,583.708 1572.71,579.779 1591.87,569.586 1611.67,559.437 1615.19,557.651 1618.51,555.972 1629.31,549.674 1634.85,546.594 1642.17,542.621 1644.97,541.128 1663.84,531.304 1666.79,529.517 1667.4,529.089 1677.82,522.278 1682.35,519.52 1687.97,515.729 1697.78,508.821 1700.8,506.567 1711.34,499.38 1711.84,499.058 1730.11,486.951 1732.38,485.59 1737.69,482.49 1738.11,482.252 1759.95,470.327 1774.41,462.821 1778.48,460.737 1795.35,452.175 1805.77,446.928 1836.06,431.759 1848.36,425.612 1855.39,422.106 1859.54,420.029 1860.03,419.742 1861.7,418.747 1867.05,415.649 1895.57,400.27 1929.47,381.271 1932.42,379.726 1941.51,375.02 1943.64,373.929 1949.07,371.151 1951.11,370.115 1979.85,355.617 1984.43,353.32 2005.12,341.624 2009.02,339.534 2011.25,338.347 2012.54,337.668 2016.92,335.366 2039.91,322.126 2043.1,320.405 2056.93,313.111 2058.6,312.085 2068.85,306.052 2075.12,302.54 2090.46,294.299 2096.47,291.16 2112.51,282.922 2116.53,280.883 2132.1,273.019 2138.05,270.031 2139.16,269.474 2139.78,269.164 2160.52,257.426 2176.45,249.02 2192.39,240.842 2197.81,237.613 2199.63,236.551 2200.2,236.167 2203.61,233.913 2208.96,230.532 2233.19,215.237 2250.06,204.773 2253.21,202.96 2262.45,197.82 2266.05,195.871 2274.27,191.496 2283.48,186.695 2288.85,183.93 2290.92,182.869 2297.53,178.929 2299.53,177.771 2306.42,173.876 2308.43,172.769 2314.59,169.417 2340.06,156.12 2352.76,149.664 "/>
<polyline clip-path="url(#clip852)" style="stroke:#8e971d; stroke-linecap:round; stroke-linejoin:round; stroke-width:4; stroke-opacity:1; fill:none" points="140.696,1384.24 140.696,1384.24 146.038,1381.57 147.553,1380.82 152.632,1378.28 162.297,1372.68 175.886,1365.24 175.927,1365.22 200.13,1352.63 212.211,1346.49 212.286,1346.45 215.211,1344.97 217.916,1343.61 234.198,1335.42 254.608,1325.21 257.958,1323.53 268.93,1318.05 278.043,1313.5 281.009,1312.02 289.696,1307.68 297.128,1303.97 303.602,1300.18 305.183,1299.28 318.687,1291.83 325.854,1288.03 343.633,1278.82 354.115,1273.49 355.206,1272.93 355.775,1272.65 361.27,1269.87 379.944,1260.48 397.817,1250.31 402.112,1247.99 404.357,1246.79 405.896,1245.97 421.094,1238.03 427.392,1234.8 429.855,1233.54 437.602,1229.61 444.128,1226.31 454.887,1220.89 478.081,1209.27 478.63,1209 498.02,1199.31 502.432,1197.1 509.892,1193.38 510.232,1193.21 514.14,1191.26 518.909,1188.45 526.811,1183.97 529.766,1182.34 532.559,1180.81 547.424,1172.92 554.353,1169.33 564.408,1164.18 566.546,1163.09 569.192,1161.75 576.646,1157.98 578.428,1157.08 579.921,1156.33 580.222,1156.17 581.171,1155.7 583.9,1154.32 587.696,1152.41 590.103,1151.2 608.665,1141.9 609.421,1141.52 612.587,1139.94 647.975,1122.26 657.473,1116.75 659.332,1115.7 675.462,1105.82 679.037,1103.78 692.305,1095.51 697.401,1092.55 707.906,1086.7 717.492,1081.56 728.206,1075.97 728.222,1075.96 738.134,1070.87 739.74,1070.05 740.269,1069.78 742.416,1068.69 757.833,1060.89 772.314,1053.61 772.385,1053.57 776.471,1051.53 777.753,1050.88 787.931,1045.79 805.321,1037.1 818.825,1030.36 820.431,1029.55 836.742,1020.26 837.336,1019.93 842.387,1017.2 845.015,1015.8 848.43,1013.67 864.331,1004.44 888.588,991.517 890.066,990.752 897.19,986.482 919.975,973.899 922.011,972.823 963.19,951.754 966.572,950.052 969.729,948.466 994.685,935.966 996.505,935.056 1001.6,932.51 1013.31,926.659 1022.9,921.872 1025.61,920.521 1029.74,918.456 1035.97,915.348 1038.94,913.865 1039.82,913.426 1046.68,910.002 1072.35,897.192 1073.16,896.789 1084.29,891.235 1085.35,890.705 1096.81,884.987 1097.79,884.501 1103.21,881.794 1108.67,879.073 1135.16,865.856 1141.95,862.467 1143.09,861.897 1156.61,855.15 1167.95,848.609 1172.89,845.88 1177.65,843.299 1178.29,842.952 1179.95,842.063 1185.76,838.986 1186.76,838.464 1189.32,837.123 1205.09,827.865 1212.89,823.58 1216.83,821.46 1217.04,821.322 1219.03,820.074 1219.66,819.622 1241.83,805.527 1259.18,795.909 1265.88,792.352 1268.43,791.015 1285.51,782.207 1286.15,781.876 1286.88,781.504 1292.02,778.895 1294.56,777.604 1302.95,773.366 1307.48,771.086 1311.81,768.909 1323.48,763.055 1327.11,761.24 1328.15,760.615 1333.58,757.438 1341.41,753.034 1342.75,752.165 1344.23,751.073 1344.88,750.608 1347.78,748.554 1362.23,739.274 1367.57,736.132 1378.18,730.159 1398.67,719.273 1412.68,712.075 1414.22,711.293 1415.12,710.835 1420.89,707.908 1427.69,703.887 1427.89,703.771 1428.45,703.447 1430.9,702.052 1451.08,689.753 1457.9,685.95 1462.97,682.74 1468.86,679.186 1469.44,678.842 1473.89,676.261 1490.77,666.977 1494.78,664.849 1513.3,655.251 1520.94,651.361 1526.86,648.362 1526.95,648.315 1527.8,647.887 1537.15,643.17 1550.01,635.738 1565.66,627.274 1572.71,623.579 1591.87,613.748 1611.67,603.757 1615.19,601.986 1618.51,600.013 1629.31,593.863 1634.85,590.836 1642.17,586.915 1644.97,585.438 1663.84,575.682 1666.79,574.177 1667.4,573.864 1677.82,568.584 1682.35,566.299 1687.97,563.47 1697.78,558.547 1700.8,557.032 1711.34,550.919 1711.84,550.636 1730.11,540.746 1732.38,539.553 1737.69,536.787 1738.11,536.572 1759.95,525.407 1774.41,518.119 1778.48,516.075 1795.35,507.618 1805.77,502.406 1836.06,487.28 1848.36,481.14 1855.39,477.636 1859.54,475.56 1860.03,475.32 1861.7,474.484 1867.05,471.817 1895.57,457.586 1929.47,440.669 1932.42,439.197 1941.51,433.916 1943.64,432.722 1949.07,429.719 1951.11,428.612 1979.85,413.578 1984.43,411.243 2005.12,400.791 2009.02,398.832 2011.25,397.498 2012.54,396.741 2016.92,394.203 2039.91,381.699 2043.1,380.032 2056.93,372.901 2058.6,372.049 2068.85,366.841 2075.12,363.676 2090.46,355.965 2096.47,352.952 2112.51,344.924 2116.53,342.918 2132.1,335.137 2138.05,331.648 2139.16,331.011 2139.78,330.658 2160.52,319.348 2176.45,309.949 2192.39,301.285 2197.81,298.436 2199.63,297.482 2200.2,297.186 2203.61,295.416 2208.96,292.659 2233.19,280.359 2250.06,271.883 2253.21,270.303 2262.45,265.679 2266.05,263.88 2274.27,259.77 2283.48,255.168 2288.85,252.488 2290.92,251.454 2297.53,248.156 2299.53,247.158 2306.42,243.716 2308.43,242.716 2314.59,239.639 2340.06,226.931 2352.76,220.595 "/>
<path clip-path="url(#clip850)" d="M214.431 663.349 L554.896 663.349 L554.896 93.1086 L214.431 93.1086  Z" fill="#ffffff" fill-rule="evenodd" fill-opacity="1"/>
<polyline clip-path="url(#clip850)" style="stroke:#000000; stroke-linecap:round; stroke-linejoin:round; stroke-width:4; stroke-opacity:1; fill:none" points="214.431,663.349 554.896,663.349 554.896,93.1086 214.431,93.1086 214.431,663.349 "/>
<polyline clip-path="url(#clip850)" style="stroke:#009af9; stroke-linecap:round; stroke-linejoin:round; stroke-width:4; stroke-opacity:1; fill:none" points="239.009,144.949 386.48,144.949 "/>
<path clip-path="url(#clip850)" d="M411.058 151.997 L411.058 136.303 L415.318 136.303 L415.318 151.835 Q415.318 155.516 416.753 157.368 Q418.188 159.196 421.058 159.196 Q424.507 159.196 426.498 156.997 Q428.512 154.798 428.512 151.002 L428.512 136.303 L432.771 136.303 L432.771 162.229 L428.512 162.229 L428.512 158.247 Q426.961 160.608 424.901 161.766 Q422.864 162.9 420.156 162.9 Q415.688 162.9 413.373 160.122 Q411.058 157.344 411.058 151.997 M421.776 135.678 L421.776 135.678 Z" fill="#000000" fill-rule="nonzero" fill-opacity="1" /><path clip-path="url(#clip850)" d="M441.151 126.21 L450.966 126.21 L450.966 129.52 L445.41 129.52 L445.41 165.168 L450.966 165.168 L450.966 168.479 L441.151 168.479 L441.151 126.21 Z" fill="#000000" fill-rule="nonzero" fill-opacity="1" /><path clip-path="url(#clip850)" d="M461.452 158.293 L469.091 158.293 L469.091 131.928 L460.78 133.595 L460.78 129.335 L469.044 127.669 L473.72 127.669 L473.72 158.293 L481.359 158.293 L481.359 162.229 L461.452 162.229 L461.452 158.293 Z" fill="#000000" fill-rule="nonzero" fill-opacity="1" /><path clip-path="url(#clip850)" d="M500.155 126.21 L500.155 168.479 L490.34 168.479 L490.34 165.168 L495.873 165.168 L495.873 129.52 L490.34 129.52 L490.34 126.21 L500.155 126.21 Z" fill="#000000" fill-rule="nonzero" fill-opacity="1" /><polyline clip-path="url(#clip850)" style="stroke:#e26f46; stroke-linecap:round; stroke-linejoin:round; stroke-width:4; stroke-opacity:1; fill:none" points="239.009,196.789 386.48,196.789 "/>
<path clip-path="url(#clip850)" d="M411.058 203.837 L411.058 188.143 L415.318 188.143 L415.318 203.675 Q415.318 207.356 416.753 209.208 Q418.188 211.036 421.058 211.036 Q424.507 211.036 426.498 208.837 Q428.512 206.638 428.512 202.842 L428.512 188.143 L432.771 188.143 L432.771 214.069 L428.512 214.069 L428.512 210.087 Q426.961 212.448 424.901 213.606 Q422.864 214.74 420.156 214.74 Q415.688 214.74 413.373 211.962 Q411.058 209.184 411.058 203.837 M421.776 187.518 L421.776 187.518 Z" fill="#000000" fill-rule="nonzero" fill-opacity="1" /><path clip-path="url(#clip850)" d="M441.151 178.05 L450.966 178.05 L450.966 181.36 L445.41 181.36 L445.41 217.008 L450.966 217.008 L450.966 220.319 L441.151 220.319 L441.151 178.05 Z" fill="#000000" fill-rule="nonzero" fill-opacity="1" /><path clip-path="url(#clip850)" d="M464.669 210.133 L480.989 210.133 L480.989 214.069 L459.044 214.069 L459.044 210.133 Q461.706 207.379 466.29 202.749 Q470.896 198.096 472.077 196.754 Q474.322 194.231 475.202 192.495 Q476.104 190.735 476.104 189.046 Q476.104 186.291 474.16 184.555 Q472.239 182.819 469.137 182.819 Q466.938 182.819 464.484 183.583 Q462.054 184.347 459.276 185.897 L459.276 181.175 Q462.1 180.041 464.554 179.462 Q467.007 178.884 469.044 178.884 Q474.415 178.884 477.609 181.569 Q480.803 184.254 480.803 188.745 Q480.803 190.874 479.993 192.796 Q479.206 194.694 477.1 197.286 Q476.521 197.958 473.419 201.175 Q470.317 204.37 464.669 210.133 Z" fill="#000000" fill-rule="nonzero" fill-opacity="1" /><path clip-path="url(#clip850)" d="M500.155 178.05 L500.155 220.319 L490.34 220.319 L490.34 217.008 L495.873 217.008 L495.873 181.36 L490.34 181.36 L490.34 178.05 L500.155 178.05 Z" fill="#000000" fill-rule="nonzero" fill-opacity="1" /><polyline clip-path="url(#clip850)" style="stroke:#3da44d; stroke-linecap:round; stroke-linejoin:round; stroke-width:4; stroke-opacity:1; fill:none" points="239.009,248.629 386.48,248.629 "/>
<path clip-path="url(#clip850)" d="M411.058 255.677 L411.058 239.983 L415.318 239.983 L415.318 255.515 Q415.318 259.196 416.753 261.048 Q418.188 262.876 421.058 262.876 Q424.507 262.876 426.498 260.677 Q428.512 258.478 428.512 254.682 L428.512 239.983 L432.771 239.983 L432.771 265.909 L428.512 265.909 L428.512 261.927 Q426.961 264.288 424.901 265.446 Q422.864 266.58 420.156 266.58 Q415.688 266.58 413.373 263.802 Q411.058 261.024 411.058 255.677 M421.776 239.358 L421.776 239.358 Z" fill="#000000" fill-rule="nonzero" fill-opacity="1" /><path clip-path="url(#clip850)" d="M441.151 229.89 L450.966 229.89 L450.966 233.2 L445.41 233.2 L445.41 268.848 L450.966 268.848 L450.966 272.159 L441.151 272.159 L441.151 229.89 Z" fill="#000000" fill-rule="nonzero" fill-opacity="1" /><path clip-path="url(#clip850)" d="M474.808 247.274 Q478.165 247.992 480.04 250.261 Q481.938 252.529 481.938 255.862 Q481.938 260.978 478.419 263.779 Q474.901 266.58 468.419 266.58 Q466.243 266.58 463.929 266.14 Q461.637 265.723 459.183 264.867 L459.183 260.353 Q461.128 261.487 463.442 262.066 Q465.757 262.645 468.28 262.645 Q472.679 262.645 474.97 260.909 Q477.285 259.173 477.285 255.862 Q477.285 252.807 475.132 251.094 Q473.003 249.358 469.183 249.358 L465.155 249.358 L465.155 245.515 L469.368 245.515 Q472.817 245.515 474.646 244.149 Q476.475 242.761 476.475 240.168 Q476.475 237.506 474.577 236.094 Q472.702 234.659 469.183 234.659 Q467.262 234.659 465.063 235.075 Q462.864 235.492 460.225 236.372 L460.225 232.205 Q462.887 231.464 465.202 231.094 Q467.54 230.724 469.6 230.724 Q474.924 230.724 478.026 233.154 Q481.128 235.562 481.128 239.682 Q481.128 242.552 479.484 244.543 Q477.841 246.511 474.808 247.274 Z" fill="#000000" fill-rule="nonzero" fill-opacity="1" /><path clip-path="url(#clip850)" d="M500.155 229.89 L500.155 272.159 L490.34 272.159 L490.34 268.848 L495.873 268.848 L495.873 233.2 L490.34 233.2 L490.34 229.89 L500.155 229.89 Z" fill="#000000" fill-rule="nonzero" fill-opacity="1" /><polyline clip-path="url(#clip850)" style="stroke:#c271d2; stroke-linecap:round; stroke-linejoin:round; stroke-width:4; stroke-opacity:1; fill:none" points="239.009,300.469 386.48,300.469 "/>
<path clip-path="url(#clip850)" d="M411.058 307.517 L411.058 291.823 L415.318 291.823 L415.318 307.355 Q415.318 311.036 416.753 312.888 Q418.188 314.716 421.058 314.716 Q424.507 314.716 426.498 312.517 Q428.512 310.318 428.512 306.522 L428.512 291.823 L432.771 291.823 L432.771 317.749 L428.512 317.749 L428.512 313.767 Q426.961 316.128 424.901 317.286 Q422.864 318.42 420.156 318.42 Q415.688 318.42 413.373 315.642 Q411.058 312.864 411.058 307.517 M421.776 291.198 L421.776 291.198 Z" fill="#000000" fill-rule="nonzero" fill-opacity="1" /><path clip-path="url(#clip850)" d="M441.151 281.73 L450.966 281.73 L450.966 285.04 L445.41 285.04 L445.41 320.688 L450.966 320.688 L450.966 323.999 L441.151 323.999 L441.151 281.73 Z" fill="#000000" fill-rule="nonzero" fill-opacity="1" /><path clip-path="url(#clip850)" d="M473.489 287.263 L461.683 305.712 L473.489 305.712 L473.489 287.263 M472.262 283.189 L478.141 283.189 L478.141 305.712 L483.072 305.712 L483.072 309.601 L478.141 309.601 L478.141 317.749 L473.489 317.749 L473.489 309.601 L457.887 309.601 L457.887 305.087 L472.262 283.189 Z" fill="#000000" fill-rule="nonzero" fill-opacity="1" /><path clip-path="url(#clip850)" d="M500.155 281.73 L500.155 323.999 L490.34 323.999 L490.34 320.688 L495.873 320.688 L495.873 285.04 L490.34 285.04 L490.34 281.73 L500.155 281.73 Z" fill="#000000" fill-rule="nonzero" fill-opacity="1" /><polyline clip-path="url(#clip850)" style="stroke:#ac8d18; stroke-linecap:round; stroke-linejoin:round; stroke-width:4; stroke-opacity:1; fill:none" points="239.009,352.309 386.48,352.309 "/>
<path clip-path="url(#clip850)" d="M411.058 359.357 L411.058 343.663 L415.318 343.663 L415.318 359.195 Q415.318 362.876 416.753 364.728 Q418.188 366.556 421.058 366.556 Q424.507 366.556 426.498 364.357 Q428.512 362.158 428.512 358.362 L428.512 343.663 L432.771 343.663 L432.771 369.589 L428.512 369.589 L428.512 365.607 Q426.961 367.968 424.901 369.126 Q422.864 370.26 420.156 370.26 Q415.688 370.26 413.373 367.482 Q411.058 364.704 411.058 359.357 M421.776 343.038 L421.776 343.038 Z" fill="#000000" fill-rule="nonzero" fill-opacity="1" /><path clip-path="url(#clip850)" d="M441.151 333.57 L450.966 333.57 L450.966 336.88 L445.41 336.88 L445.41 372.528 L450.966 372.528 L450.966 375.839 L441.151 375.839 L441.151 333.57 Z" fill="#000000" fill-rule="nonzero" fill-opacity="1" /><path clip-path="url(#clip850)" d="M460.688 335.029 L479.044 335.029 L479.044 338.964 L464.97 338.964 L464.97 347.436 Q465.989 347.089 467.007 346.927 Q468.026 346.742 469.044 346.742 Q474.831 346.742 478.211 349.913 Q481.591 353.084 481.591 358.501 Q481.591 364.079 478.118 367.181 Q474.646 370.26 468.327 370.26 Q466.151 370.26 463.882 369.89 Q461.637 369.519 459.23 368.778 L459.23 364.079 Q461.313 365.214 463.535 365.769 Q465.757 366.325 468.234 366.325 Q472.239 366.325 474.577 364.218 Q476.915 362.112 476.915 358.501 Q476.915 354.89 474.577 352.783 Q472.239 350.677 468.234 350.677 Q466.359 350.677 464.484 351.093 Q462.632 351.51 460.688 352.39 L460.688 335.029 Z" fill="#000000" fill-rule="nonzero" fill-opacity="1" /><path clip-path="url(#clip850)" d="M500.155 333.57 L500.155 375.839 L490.34 375.839 L490.34 372.528 L495.873 372.528 L495.873 336.88 L490.34 336.88 L490.34 333.57 L500.155 333.57 Z" fill="#000000" fill-rule="nonzero" fill-opacity="1" /><polyline clip-path="url(#clip850)" style="stroke:#00a9ad; stroke-linecap:round; stroke-linejoin:round; stroke-width:4; stroke-opacity:1; fill:none" points="239.009,404.149 386.48,404.149 "/>
<path clip-path="url(#clip850)" d="M411.058 411.197 L411.058 395.503 L415.318 395.503 L415.318 411.035 Q415.318 414.716 416.753 416.568 Q418.188 418.396 421.058 418.396 Q424.507 418.396 426.498 416.197 Q428.512 413.998 428.512 410.202 L428.512 395.503 L432.771 395.503 L432.771 421.429 L428.512 421.429 L428.512 417.447 Q426.961 419.808 424.901 420.966 Q422.864 422.1 420.156 422.1 Q415.688 422.1 413.373 419.322 Q411.058 416.544 411.058 411.197 M421.776 394.878 L421.776 394.878 Z" fill="#000000" fill-rule="nonzero" fill-opacity="1" /><path clip-path="url(#clip850)" d="M441.151 385.41 L450.966 385.41 L450.966 388.72 L445.41 388.72 L445.41 424.368 L450.966 424.368 L450.966 427.679 L441.151 427.679 L441.151 385.41 Z" fill="#000000" fill-rule="nonzero" fill-opacity="1" /><path clip-path="url(#clip850)" d="M471.22 402.285 Q468.072 402.285 466.22 404.438 Q464.392 406.591 464.392 410.341 Q464.392 414.068 466.22 416.243 Q468.072 418.396 471.22 418.396 Q474.368 418.396 476.197 416.243 Q478.049 414.068 478.049 410.341 Q478.049 406.591 476.197 404.438 Q474.368 402.285 471.22 402.285 M480.503 387.633 L480.503 391.892 Q478.743 391.058 476.938 390.619 Q475.155 390.179 473.396 390.179 Q468.766 390.179 466.313 393.304 Q463.882 396.429 463.535 402.748 Q464.901 400.734 466.961 399.669 Q469.021 398.582 471.498 398.582 Q476.706 398.582 479.716 401.753 Q482.748 404.901 482.748 410.341 Q482.748 415.665 479.6 418.882 Q476.452 422.1 471.22 422.1 Q465.225 422.1 462.054 417.517 Q458.882 412.91 458.882 404.183 Q458.882 395.989 462.771 391.128 Q466.66 386.244 473.211 386.244 Q474.97 386.244 476.753 386.591 Q478.558 386.938 480.503 387.633 Z" fill="#000000" fill-rule="nonzero" fill-opacity="1" /><path clip-path="url(#clip850)" d="M500.155 385.41 L500.155 427.679 L490.34 427.679 L490.34 424.368 L495.873 424.368 L495.873 388.72 L490.34 388.72 L490.34 385.41 L500.155 385.41 Z" fill="#000000" fill-rule="nonzero" fill-opacity="1" /><polyline clip-path="url(#clip850)" style="stroke:#ed5d92; stroke-linecap:round; stroke-linejoin:round; stroke-width:4; stroke-opacity:1; fill:none" points="239.009,455.989 386.48,455.989 "/>
<path clip-path="url(#clip850)" d="M411.058 463.037 L411.058 447.343 L415.318 447.343 L415.318 462.875 Q415.318 466.556 416.753 468.408 Q418.188 470.236 421.058 470.236 Q424.507 470.236 426.498 468.037 Q428.512 465.838 428.512 462.042 L428.512 447.343 L432.771 447.343 L432.771 473.269 L428.512 473.269 L428.512 469.287 Q426.961 471.648 424.901 472.806 Q422.864 473.94 420.156 473.94 Q415.688 473.94 413.373 471.162 Q411.058 468.384 411.058 463.037 M421.776 446.718 L421.776 446.718 Z" fill="#000000" fill-rule="nonzero" fill-opacity="1" /><path clip-path="url(#clip850)" d="M441.151 437.25 L450.966 437.25 L450.966 440.56 L445.41 440.56 L445.41 476.208 L450.966 476.208 L450.966 479.519 L441.151 479.519 L441.151 437.25 Z" fill="#000000" fill-rule="nonzero" fill-opacity="1" /><path clip-path="url(#clip850)" d="M459.461 438.709 L481.683 438.709 L481.683 440.699 L469.137 473.269 L464.253 473.269 L476.058 442.644 L459.461 442.644 L459.461 438.709 Z" fill="#000000" fill-rule="nonzero" fill-opacity="1" /><path clip-path="url(#clip850)" d="M500.155 437.25 L500.155 479.519 L490.34 479.519 L490.34 476.208 L495.873 476.208 L495.873 440.56 L490.34 440.56 L490.34 437.25 L500.155 437.25 Z" fill="#000000" fill-rule="nonzero" fill-opacity="1" /><polyline clip-path="url(#clip850)" style="stroke:#c68125; stroke-linecap:round; stroke-linejoin:round; stroke-width:4; stroke-opacity:1; fill:none" points="239.009,507.829 386.48,507.829 "/>
<path clip-path="url(#clip850)" d="M411.058 514.877 L411.058 499.183 L415.318 499.183 L415.318 514.715 Q415.318 518.396 416.753 520.248 Q418.188 522.076 421.058 522.076 Q424.507 522.076 426.498 519.877 Q428.512 517.678 428.512 513.882 L428.512 499.183 L432.771 499.183 L432.771 525.109 L428.512 525.109 L428.512 521.127 Q426.961 523.488 424.901 524.646 Q422.864 525.78 420.156 525.78 Q415.688 525.78 413.373 523.002 Q411.058 520.224 411.058 514.877 M421.776 498.558 L421.776 498.558 Z" fill="#000000" fill-rule="nonzero" fill-opacity="1" /><path clip-path="url(#clip850)" d="M441.151 489.09 L450.966 489.09 L450.966 492.4 L445.41 492.4 L445.41 528.048 L450.966 528.048 L450.966 531.359 L441.151 531.359 L441.151 489.09 Z" fill="#000000" fill-rule="nonzero" fill-opacity="1" /><path clip-path="url(#clip850)" d="M470.641 508.697 Q467.308 508.697 465.387 510.479 Q463.489 512.261 463.489 515.386 Q463.489 518.511 465.387 520.294 Q467.308 522.076 470.641 522.076 Q473.975 522.076 475.896 520.294 Q477.817 518.488 477.817 515.386 Q477.817 512.261 475.896 510.479 Q473.998 508.697 470.641 508.697 M465.966 506.706 Q462.956 505.965 461.267 503.905 Q459.6 501.845 459.6 498.882 Q459.6 494.738 462.54 492.331 Q465.503 489.924 470.641 489.924 Q475.803 489.924 478.743 492.331 Q481.683 494.738 481.683 498.882 Q481.683 501.845 479.993 503.905 Q478.327 505.965 475.341 506.706 Q478.72 507.493 480.595 509.785 Q482.493 512.076 482.493 515.386 Q482.493 520.41 479.415 523.095 Q476.359 525.78 470.641 525.78 Q464.924 525.78 461.845 523.095 Q458.79 520.41 458.79 515.386 Q458.79 512.076 460.688 509.785 Q462.586 507.493 465.966 506.706 M464.253 499.322 Q464.253 502.007 465.919 503.512 Q467.609 505.016 470.641 505.016 Q473.651 505.016 475.341 503.512 Q477.053 502.007 477.053 499.322 Q477.053 496.637 475.341 495.132 Q473.651 493.627 470.641 493.627 Q467.609 493.627 465.919 495.132 Q464.253 496.637 464.253 499.322 Z" fill="#000000" fill-rule="nonzero" fill-opacity="1" /><path clip-path="url(#clip850)" d="M500.155 489.09 L500.155 531.359 L490.34 531.359 L490.34 528.048 L495.873 528.048 L495.873 492.4 L490.34 492.4 L490.34 489.09 L500.155 489.09 Z" fill="#000000" fill-rule="nonzero" fill-opacity="1" /><polyline clip-path="url(#clip850)" style="stroke:#00a98d; stroke-linecap:round; stroke-linejoin:round; stroke-width:4; stroke-opacity:1; fill:none" points="239.009,559.669 386.48,559.669 "/>
<path clip-path="url(#clip850)" d="M411.058 566.717 L411.058 551.023 L415.318 551.023 L415.318 566.555 Q415.318 570.236 416.753 572.088 Q418.188 573.916 421.058 573.916 Q424.507 573.916 426.498 571.717 Q428.512 569.518 428.512 565.722 L428.512 551.023 L432.771 551.023 L432.771 576.949 L428.512 576.949 L428.512 572.967 Q426.961 575.328 424.901 576.486 Q422.864 577.62 420.156 577.62 Q415.688 577.62 413.373 574.842 Q411.058 572.064 411.058 566.717 M421.776 550.398 L421.776 550.398 Z" fill="#000000" fill-rule="nonzero" fill-opacity="1" /><path clip-path="url(#clip850)" d="M441.151 540.93 L450.966 540.93 L450.966 544.24 L445.41 544.24 L445.41 579.888 L450.966 579.888 L450.966 583.199 L441.151 583.199 L441.151 540.93 Z" fill="#000000" fill-rule="nonzero" fill-opacity="1" /><path clip-path="url(#clip850)" d="M460.78 576.231 L460.78 571.972 Q462.54 572.805 464.345 573.245 Q466.151 573.685 467.887 573.685 Q472.516 573.685 474.947 570.583 Q477.401 567.458 477.748 561.115 Q476.405 563.106 474.345 564.171 Q472.285 565.236 469.785 565.236 Q464.6 565.236 461.567 562.111 Q458.558 558.963 458.558 553.523 Q458.558 548.199 461.706 544.981 Q464.854 541.764 470.086 541.764 Q476.081 541.764 479.229 546.37 Q482.401 550.953 482.401 559.703 Q482.401 567.875 478.512 572.759 Q474.646 577.62 468.095 577.62 Q466.336 577.62 464.53 577.273 Q462.725 576.925 460.78 576.231 M470.086 561.578 Q473.234 561.578 475.063 559.426 Q476.915 557.273 476.915 553.523 Q476.915 549.796 475.063 547.643 Q473.234 545.467 470.086 545.467 Q466.938 545.467 465.086 547.643 Q463.257 549.796 463.257 553.523 Q463.257 557.273 465.086 559.426 Q466.938 561.578 470.086 561.578 Z" fill="#000000" fill-rule="nonzero" fill-opacity="1" /><path clip-path="url(#clip850)" d="M500.155 540.93 L500.155 583.199 L490.34 583.199 L490.34 579.888 L495.873 579.888 L495.873 544.24 L490.34 544.24 L490.34 540.93 L500.155 540.93 Z" fill="#000000" fill-rule="nonzero" fill-opacity="1" /><polyline clip-path="url(#clip850)" style="stroke:#8e971d; stroke-linecap:round; stroke-linejoin:round; stroke-width:4; stroke-opacity:1; fill:none" points="239.009,611.509 386.48,611.509 "/>
<path clip-path="url(#clip850)" d="M411.058 618.557 L411.058 602.863 L415.318 602.863 L415.318 618.395 Q415.318 622.076 416.753 623.928 Q418.188 625.756 421.058 625.756 Q424.507 625.756 426.498 623.557 Q428.512 621.358 428.512 617.562 L428.512 602.863 L432.771 602.863 L432.771 628.789 L428.512 628.789 L428.512 624.807 Q426.961 627.168 424.901 628.326 Q422.864 629.46 420.156 629.46 Q415.688 629.46 413.373 626.682 Q411.058 623.904 411.058 618.557 M421.776 602.238 L421.776 602.238 Z" fill="#000000" fill-rule="nonzero" fill-opacity="1" /><path clip-path="url(#clip850)" d="M441.151 592.77 L450.966 592.77 L450.966 596.08 L445.41 596.08 L445.41 631.728 L450.966 631.728 L450.966 635.039 L441.151 635.039 L441.151 592.77 Z" fill="#000000" fill-rule="nonzero" fill-opacity="1" /><path clip-path="url(#clip850)" d="M461.452 624.853 L469.091 624.853 L469.091 598.488 L460.78 600.155 L460.78 595.895 L469.044 594.229 L473.72 594.229 L473.72 624.853 L481.359 624.853 L481.359 628.789 L461.452 628.789 L461.452 624.853 Z" fill="#000000" fill-rule="nonzero" fill-opacity="1" /><path clip-path="url(#clip850)" d="M500.803 597.307 Q497.192 597.307 495.364 600.872 Q493.558 604.414 493.558 611.543 Q493.558 618.65 495.364 622.215 Q497.192 625.756 500.803 625.756 Q504.438 625.756 506.243 622.215 Q508.072 618.65 508.072 611.543 Q508.072 604.414 506.243 600.872 Q504.438 597.307 500.803 597.307 M500.803 593.604 Q506.614 593.604 509.669 598.21 Q512.748 602.793 512.748 611.543 Q512.748 620.27 509.669 624.877 Q506.614 629.46 500.803 629.46 Q494.993 629.46 491.915 624.877 Q488.859 620.27 488.859 611.543 Q488.859 602.793 491.915 598.21 Q494.993 593.604 500.803 593.604 Z" fill="#000000" fill-rule="nonzero" fill-opacity="1" /><path clip-path="url(#clip850)" d="M530.317 592.77 L530.317 635.039 L520.502 635.039 L520.502 631.728 L526.035 631.728 L526.035 596.08 L520.502 596.08 L520.502 592.77 L530.317 592.77 Z" fill="#000000" fill-rule="nonzero" fill-opacity="1" /></svg>
