<?xml version="1.0" encoding="utf-8"?>
<svg xmlns="http://www.w3.org/2000/svg" xmlns:xlink="http://www.w3.org/1999/xlink" width="600" height="400" viewBox="0 0 2400 1600">
<defs>
  <clipPath id="clip380">
    <rect x="0" y="0" width="2400" height="1600"/>
  </clipPath>
</defs>
<path clip-path="url(#clip380)" d="M0 1600 L2400 1600 L2400 0 L0 0  Z" fill="#ffffff" fill-rule="evenodd" fill-opacity="1"/>
<defs>
  <clipPath id="clip381">
    <rect x="480" y="0" width="1681" height="1600"/>
  </clipPath>
</defs>
<path clip-path="url(#clip380)" d="M110.858 1486.45 L2352.76 1486.45 L2352.76 47.2441 L110.858 47.2441  Z" fill="#ffffff" fill-rule="evenodd" fill-opacity="1"/>
<defs>
  <clipPath id="clip382">
    <rect x="110" y="47" width="2243" height="1440"/>
  </clipPath>
</defs>
<polyline clip-path="url(#clip382)" style="stroke:#000000; stroke-linecap:round; stroke-linejoin:round; stroke-width:2; stroke-opacity:0.1; fill:none" points="172.588,1486.45 172.588,47.2441 "/>
<polyline clip-path="url(#clip382)" style="stroke:#000000; stroke-linecap:round; stroke-linejoin:round; stroke-width:2; stroke-opacity:0.1; fill:none" points="516.49,1486.45 516.49,47.2441 "/>
<polyline clip-path="url(#clip382)" style="stroke:#000000; stroke-linecap:round; stroke-linejoin:round; stroke-width:2; stroke-opacity:0.1; fill:none" points="860.392,1486.45 860.392,47.2441 "/>
<polyline clip-path="url(#clip382)" style="stroke:#000000; stroke-linecap:round; stroke-linejoin:round; stroke-width:2; stroke-opacity:0.1; fill:none" points="1204.29,1486.45 1204.29,47.2441 "/>
<polyline clip-path="url(#clip382)" style="stroke:#000000; stroke-linecap:round; stroke-linejoin:round; stroke-width:2; stroke-opacity:0.1; fill:none" points="1548.2,1486.45 1548.2,47.2441 "/>
<polyline clip-path="url(#clip382)" style="stroke:#000000; stroke-linecap:round; stroke-linejoin:round; stroke-width:2; stroke-opacity:0.1; fill:none" points="1892.1,1486.45 1892.1,47.2441 "/>
<polyline clip-path="url(#clip382)" style="stroke:#000000; stroke-linecap:round; stroke-linejoin:round; stroke-width:2; stroke-opacity:0.1; fill:none" points="2236,1486.45 2236,47.2441 "/>
<polyline clip-path="url(#clip382)" style="stroke:#000000; stroke-linecap:round; stroke-linejoin:round; stroke-width:2; stroke-opacity:0.1; fill:none" points="110.858,1445.72 2352.76,1445.72 "/>
<polyline clip-path="url(#clip382)" style="stroke:#000000; stroke-linecap:round; stroke-linejoin:round; stroke-width:2; stroke-opacity:0.1; fill:none" points="110.858,1100.68 2352.76,1100.68 "/>
<polyline clip-path="url(#clip382)" style="stroke:#000000; stroke-linecap:round; stroke-linejoin:round; stroke-width:2; stroke-opacity:0.1; fill:none" points="110.858,755.641 2352.76,755.641 "/>
<polyline clip-path="url(#clip382)" style="stroke:#000000; stroke-linecap:round; stroke-linejoin:round; stroke-width:2; stroke-opacity:0.1; fill:none" points="110.858,410.603 2352.76,410.603 "/>
<polyline clip-path="url(#clip382)" style="stroke:#000000; stroke-linecap:round; stroke-linejoin:round; stroke-width:2; stroke-opacity:0.1; fill:none" points="110.858,65.5659 2352.76,65.5659 "/>
<polyline clip-path="url(#clip380)" style="stroke:#000000; stroke-linecap:round; stroke-linejoin:round; stroke-width:4; stroke-opacity:1; fill:none" points="110.858,1486.45 2352.76,1486.45 "/>
<polyline clip-path="url(#clip380)" style="stroke:#000000; stroke-linecap:round; stroke-linejoin:round; stroke-width:4; stroke-opacity:1; fill:none" points="172.588,1486.45 172.588,1467.55 "/>
<polyline clip-path="url(#clip380)" style="stroke:#000000; stroke-linecap:round; stroke-linejoin:round; stroke-width:4; stroke-opacity:1; fill:none" points="516.49,1486.45 516.49,1467.55 "/>
<polyline clip-path="url(#clip380)" style="stroke:#000000; stroke-linecap:round; stroke-linejoin:round; stroke-width:4; stroke-opacity:1; fill:none" points="860.392,1486.45 860.392,1467.55 "/>
<polyline clip-path="url(#clip380)" style="stroke:#000000; stroke-linecap:round; stroke-linejoin:round; stroke-width:4; stroke-opacity:1; fill:none" points="1204.29,1486.45 1204.29,1467.55 "/>
<polyline clip-path="url(#clip380)" style="stroke:#000000; stroke-linecap:round; stroke-linejoin:round; stroke-width:4; stroke-opacity:1; fill:none" points="1548.2,1486.45 1548.2,1467.55 "/>
<polyline clip-path="url(#clip380)" style="stroke:#000000; stroke-linecap:round; stroke-linejoin:round; stroke-width:4; stroke-opacity:1; fill:none" points="1892.1,1486.45 1892.1,1467.55 "/>
<polyline clip-path="url(#clip380)" style="stroke:#000000; stroke-linecap:round; stroke-linejoin:round; stroke-width:4; stroke-opacity:1; fill:none" points="2236,1486.45 2236,1467.55 "/>
<path clip-path="url(#clip380)" d="M172.588 1517.37 Q168.977 1517.37 167.148 1520.93 Q165.343 1524.47 165.343 1531.6 Q165.343 1538.71 167.148 1542.27 Q168.977 1545.82 172.588 1545.82 Q176.222 1545.82 178.028 1542.27 Q179.857 1538.71 179.857 1531.6 Q179.857 1524.47 178.028 1520.93 Q176.222 1517.37 172.588 1517.37 M172.588 1513.66 Q178.398 1513.66 181.454 1518.27 Q184.533 1522.85 184.533 1531.6 Q184.533 1540.33 181.454 1544.94 Q178.398 1549.52 172.588 1549.52 Q166.778 1549.52 163.699 1544.94 Q160.644 1540.33 160.644 1531.6 Q160.644 1522.85 163.699 1518.27 Q166.778 1513.66 172.588 1513.66 Z" fill="#000000" fill-rule="nonzero" fill-opacity="1" /><path clip-path="url(#clip380)" d="M480.183 1544.91 L496.502 1544.91 L496.502 1548.85 L474.558 1548.85 L474.558 1544.91 Q477.22 1542.16 481.803 1537.53 Q486.409 1532.88 487.59 1531.53 Q489.835 1529.01 490.715 1527.27 Q491.618 1525.51 491.618 1523.82 Q491.618 1521.07 489.673 1519.33 Q487.752 1517.6 484.65 1517.6 Q482.451 1517.6 479.997 1518.36 Q477.567 1519.13 474.789 1520.68 L474.789 1515.95 Q477.613 1514.82 480.067 1514.24 Q482.521 1513.66 484.558 1513.66 Q489.928 1513.66 493.122 1516.35 Q496.317 1519.03 496.317 1523.52 Q496.317 1525.65 495.507 1527.57 Q494.72 1529.47 492.613 1532.07 Q492.034 1532.74 488.933 1535.95 Q485.831 1539.15 480.183 1544.91 Z" fill="#000000" fill-rule="nonzero" fill-opacity="1" /><path clip-path="url(#clip380)" d="M516.317 1517.37 Q512.706 1517.37 510.877 1520.93 Q509.071 1524.47 509.071 1531.6 Q509.071 1538.71 510.877 1542.27 Q512.706 1545.82 516.317 1545.82 Q519.951 1545.82 521.757 1542.27 Q523.585 1538.71 523.585 1531.6 Q523.585 1524.47 521.757 1520.93 Q519.951 1517.37 516.317 1517.37 M516.317 1513.66 Q522.127 1513.66 525.182 1518.27 Q528.261 1522.85 528.261 1531.6 Q528.261 1540.33 525.182 1544.94 Q522.127 1549.52 516.317 1549.52 Q510.507 1549.52 507.428 1544.94 Q504.372 1540.33 504.372 1531.6 Q504.372 1522.85 507.428 1518.27 Q510.507 1513.66 516.317 1513.66 Z" fill="#000000" fill-rule="nonzero" fill-opacity="1" /><path clip-path="url(#clip380)" d="M546.479 1517.37 Q542.868 1517.37 541.039 1520.93 Q539.233 1524.47 539.233 1531.6 Q539.233 1538.71 541.039 1542.27 Q542.868 1545.82 546.479 1545.82 Q550.113 1545.82 551.918 1542.27 Q553.747 1538.71 553.747 1531.6 Q553.747 1524.47 551.918 1520.93 Q550.113 1517.37 546.479 1517.37 M546.479 1513.66 Q552.289 1513.66 555.344 1518.27 Q558.423 1522.85 558.423 1531.6 Q558.423 1540.33 555.344 1544.94 Q552.289 1549.52 546.479 1549.52 Q540.668 1549.52 537.59 1544.94 Q534.534 1540.33 534.534 1531.6 Q534.534 1522.85 537.59 1518.27 Q540.668 1513.66 546.479 1513.66 Z" fill="#000000" fill-rule="nonzero" fill-opacity="1" /><path clip-path="url(#clip380)" d="M833.483 1518.36 L821.677 1536.81 L833.483 1536.81 L833.483 1518.36 M832.256 1514.29 L838.136 1514.29 L838.136 1536.81 L843.066 1536.81 L843.066 1540.7 L838.136 1540.7 L838.136 1548.85 L833.483 1548.85 L833.483 1540.7 L817.881 1540.7 L817.881 1536.19 L832.256 1514.29 Z" fill="#000000" fill-rule="nonzero" fill-opacity="1" /><path clip-path="url(#clip380)" d="M860.798 1517.37 Q857.186 1517.37 855.358 1520.93 Q853.552 1524.47 853.552 1531.6 Q853.552 1538.71 855.358 1542.27 Q857.186 1545.82 860.798 1545.82 Q864.432 1545.82 866.237 1542.27 Q868.066 1538.71 868.066 1531.6 Q868.066 1524.47 866.237 1520.93 Q864.432 1517.37 860.798 1517.37 M860.798 1513.66 Q866.608 1513.66 869.663 1518.27 Q872.742 1522.85 872.742 1531.6 Q872.742 1540.33 869.663 1544.94 Q866.608 1549.52 860.798 1549.52 Q854.987 1549.52 851.909 1544.94 Q848.853 1540.33 848.853 1531.6 Q848.853 1522.85 851.909 1518.27 Q854.987 1513.66 860.798 1513.66 Z" fill="#000000" fill-rule="nonzero" fill-opacity="1" /><path clip-path="url(#clip380)" d="M890.959 1517.37 Q887.348 1517.37 885.52 1520.93 Q883.714 1524.47 883.714 1531.6 Q883.714 1538.71 885.52 1542.27 Q887.348 1545.82 890.959 1545.82 Q894.594 1545.82 896.399 1542.27 Q898.228 1538.71 898.228 1531.6 Q898.228 1524.47 896.399 1520.93 Q894.594 1517.37 890.959 1517.37 M890.959 1513.66 Q896.77 1513.66 899.825 1518.27 Q902.904 1522.85 902.904 1531.6 Q902.904 1540.33 899.825 1544.94 Q896.77 1549.52 890.959 1549.52 Q885.149 1549.52 882.071 1544.94 Q879.015 1540.33 879.015 1531.6 Q879.015 1522.85 882.071 1518.27 Q885.149 1513.66 890.959 1513.66 Z" fill="#000000" fill-rule="nonzero" fill-opacity="1" /><path clip-path="url(#clip380)" d="M1174.62 1529.7 Q1171.47 1529.7 1169.62 1531.86 Q1167.79 1534.01 1167.79 1537.76 Q1167.79 1541.49 1169.62 1543.66 Q1171.47 1545.82 1174.62 1545.82 Q1177.77 1545.82 1179.6 1543.66 Q1181.45 1541.49 1181.45 1537.76 Q1181.45 1534.01 1179.6 1531.86 Q1177.77 1529.7 1174.62 1529.7 M1183.9 1515.05 L1183.9 1519.31 Q1182.14 1518.48 1180.34 1518.04 Q1178.55 1517.6 1176.79 1517.6 Q1172.17 1517.6 1169.71 1520.72 Q1167.28 1523.85 1166.93 1530.17 Q1168.3 1528.15 1170.36 1527.09 Q1172.42 1526 1174.9 1526 Q1180.1 1526 1183.11 1529.17 Q1186.15 1532.32 1186.15 1537.76 Q1186.15 1543.08 1183 1546.3 Q1179.85 1549.52 1174.62 1549.52 Q1168.62 1549.52 1165.45 1544.94 Q1162.28 1540.33 1162.28 1531.6 Q1162.28 1523.41 1166.17 1518.55 Q1170.06 1513.66 1176.61 1513.66 Q1178.37 1513.66 1180.15 1514.01 Q1181.96 1514.36 1183.9 1515.05 Z" fill="#000000" fill-rule="nonzero" fill-opacity="1" /><path clip-path="url(#clip380)" d="M1204.2 1517.37 Q1200.59 1517.37 1198.76 1520.93 Q1196.96 1524.47 1196.96 1531.6 Q1196.96 1538.71 1198.76 1542.27 Q1200.59 1545.82 1204.2 1545.82 Q1207.84 1545.82 1209.64 1542.27 Q1211.47 1538.71 1211.47 1531.6 Q1211.47 1524.47 1209.64 1520.93 Q1207.84 1517.37 1204.2 1517.37 M1204.2 1513.66 Q1210.01 1513.66 1213.07 1518.27 Q1216.15 1522.85 1216.15 1531.6 Q1216.15 1540.33 1213.07 1544.94 Q1210.01 1549.52 1204.2 1549.52 Q1198.39 1549.52 1195.31 1544.94 Q1192.26 1540.33 1192.26 1531.6 Q1192.26 1522.85 1195.31 1518.27 Q1198.39 1513.66 1204.2 1513.66 Z" fill="#000000" fill-rule="nonzero" fill-opacity="1" /><path clip-path="url(#clip380)" d="M1234.36 1517.37 Q1230.75 1517.37 1228.92 1520.93 Q1227.12 1524.47 1227.12 1531.6 Q1227.12 1538.71 1228.92 1542.27 Q1230.75 1545.82 1234.36 1545.82 Q1238 1545.82 1239.8 1542.27 Q1241.63 1538.71 1241.63 1531.6 Q1241.63 1524.47 1239.8 1520.93 Q1238 1517.37 1234.36 1517.37 M1234.36 1513.66 Q1240.17 1513.66 1243.23 1518.27 Q1246.31 1522.85 1246.31 1531.6 Q1246.31 1540.33 1243.23 1544.94 Q1240.17 1549.52 1234.36 1549.52 Q1228.55 1549.52 1225.48 1544.94 Q1222.42 1540.33 1222.42 1531.6 Q1222.42 1522.85 1225.48 1518.27 Q1228.55 1513.66 1234.36 1513.66 Z" fill="#000000" fill-rule="nonzero" fill-opacity="1" /><path clip-path="url(#clip380)" d="M1517.99 1532.44 Q1514.66 1532.44 1512.73 1534.22 Q1510.84 1536 1510.84 1539.13 Q1510.84 1542.25 1512.73 1544.03 Q1514.66 1545.82 1517.99 1545.82 Q1521.32 1545.82 1523.24 1544.03 Q1525.16 1542.23 1525.16 1539.13 Q1525.16 1536 1523.24 1534.22 Q1521.35 1532.44 1517.99 1532.44 M1513.31 1530.45 Q1510.3 1529.7 1508.61 1527.64 Q1506.95 1525.58 1506.95 1522.62 Q1506.95 1518.48 1509.89 1516.07 Q1512.85 1513.66 1517.99 1513.66 Q1523.15 1513.66 1526.09 1516.07 Q1529.03 1518.48 1529.03 1522.62 Q1529.03 1525.58 1527.34 1527.64 Q1525.67 1529.7 1522.69 1530.45 Q1526.07 1531.23 1527.94 1533.52 Q1529.84 1535.82 1529.84 1539.13 Q1529.84 1544.15 1526.76 1546.83 Q1523.71 1549.52 1517.99 1549.52 Q1512.27 1549.52 1509.19 1546.83 Q1506.14 1544.15 1506.14 1539.13 Q1506.14 1535.82 1508.03 1533.52 Q1509.93 1531.23 1513.31 1530.45 M1511.6 1523.06 Q1511.6 1525.75 1513.27 1527.25 Q1514.96 1528.76 1517.99 1528.76 Q1521 1528.76 1522.69 1527.25 Q1524.4 1525.75 1524.4 1523.06 Q1524.4 1520.38 1522.69 1518.87 Q1521 1517.37 1517.99 1517.37 Q1514.96 1517.37 1513.27 1518.87 Q1511.6 1520.38 1511.6 1523.06 Z" fill="#000000" fill-rule="nonzero" fill-opacity="1" /><path clip-path="url(#clip380)" d="M1548.15 1517.37 Q1544.54 1517.37 1542.71 1520.93 Q1540.91 1524.47 1540.91 1531.6 Q1540.91 1538.71 1542.71 1542.27 Q1544.54 1545.82 1548.15 1545.82 Q1551.78 1545.82 1553.59 1542.27 Q1555.42 1538.71 1555.42 1531.6 Q1555.42 1524.47 1553.59 1520.93 Q1551.78 1517.37 1548.15 1517.37 M1548.15 1513.66 Q1553.96 1513.66 1557.02 1518.27 Q1560.09 1522.85 1560.09 1531.6 Q1560.09 1540.33 1557.02 1544.94 Q1553.96 1549.52 1548.15 1549.52 Q1542.34 1549.52 1539.26 1544.94 Q1536.21 1540.33 1536.21 1531.6 Q1536.21 1522.85 1539.26 1518.27 Q1542.34 1513.66 1548.15 1513.66 Z" fill="#000000" fill-rule="nonzero" fill-opacity="1" /><path clip-path="url(#clip380)" d="M1578.31 1517.37 Q1574.7 1517.37 1572.87 1520.93 Q1571.07 1524.47 1571.07 1531.6 Q1571.07 1538.71 1572.87 1542.27 Q1574.7 1545.82 1578.31 1545.82 Q1581.95 1545.82 1583.75 1542.27 Q1585.58 1538.71 1585.58 1531.6 Q1585.58 1524.47 1583.75 1520.93 Q1581.95 1517.37 1578.31 1517.37 M1578.31 1513.66 Q1584.12 1513.66 1587.18 1518.27 Q1590.26 1522.85 1590.26 1531.6 Q1590.26 1540.33 1587.18 1544.94 Q1584.12 1549.52 1578.31 1549.52 Q1572.5 1549.52 1569.42 1544.94 Q1566.37 1540.33 1566.37 1531.6 Q1566.37 1522.85 1569.42 1518.27 Q1572.5 1513.66 1578.31 1513.66 Z" fill="#000000" fill-rule="nonzero" fill-opacity="1" /><path clip-path="url(#clip380)" d="M1836.62 1544.91 L1844.26 1544.91 L1844.26 1518.55 L1835.95 1520.21 L1835.95 1515.95 L1844.22 1514.29 L1848.89 1514.29 L1848.89 1544.91 L1856.53 1544.91 L1856.53 1548.85 L1836.62 1548.85 L1836.62 1544.91 Z" fill="#000000" fill-rule="nonzero" fill-opacity="1" /><path clip-path="url(#clip380)" d="M1875.98 1517.37 Q1872.37 1517.37 1870.54 1520.93 Q1868.73 1524.47 1868.73 1531.6 Q1868.73 1538.71 1870.54 1542.27 Q1872.37 1545.82 1875.98 1545.82 Q1879.61 1545.82 1881.42 1542.27 Q1883.24 1538.71 1883.24 1531.6 Q1883.24 1524.47 1881.42 1520.93 Q1879.61 1517.37 1875.98 1517.37 M1875.98 1513.66 Q1881.79 1513.66 1884.84 1518.27 Q1887.92 1522.85 1887.92 1531.6 Q1887.92 1540.33 1884.84 1544.94 Q1881.79 1549.52 1875.98 1549.52 Q1870.17 1549.52 1867.09 1544.94 Q1864.03 1540.33 1864.03 1531.6 Q1864.03 1522.85 1867.09 1518.27 Q1870.17 1513.66 1875.98 1513.66 Z" fill="#000000" fill-rule="nonzero" fill-opacity="1" /><path clip-path="url(#clip380)" d="M1906.14 1517.37 Q1902.53 1517.37 1900.7 1520.93 Q1898.89 1524.47 1898.89 1531.6 Q1898.89 1538.71 1900.7 1542.27 Q1902.53 1545.82 1906.14 1545.82 Q1909.77 1545.82 1911.58 1542.27 Q1913.41 1538.71 1913.41 1531.6 Q1913.41 1524.47 1911.58 1520.93 Q1909.77 1517.37 1906.14 1517.37 M1906.14 1513.66 Q1911.95 1513.66 1915 1518.27 Q1918.08 1522.85 1918.08 1531.6 Q1918.08 1540.33 1915 1544.94 Q1911.95 1549.52 1906.14 1549.52 Q1900.33 1549.52 1897.25 1544.94 Q1894.19 1540.33 1894.19 1531.6 Q1894.19 1522.85 1897.25 1518.27 Q1900.33 1513.66 1906.14 1513.66 Z" fill="#000000" fill-rule="nonzero" fill-opacity="1" /><path clip-path="url(#clip380)" d="M1936.3 1517.37 Q1932.69 1517.37 1930.86 1520.93 Q1929.05 1524.47 1929.05 1531.6 Q1929.05 1538.71 1930.86 1542.27 Q1932.69 1545.82 1936.3 1545.82 Q1939.93 1545.82 1941.74 1542.27 Q1943.57 1538.71 1943.57 1531.6 Q1943.57 1524.47 1941.74 1520.93 Q1939.93 1517.37 1936.3 1517.37 M1936.3 1513.66 Q1942.11 1513.66 1945.17 1518.27 Q1948.24 1522.85 1948.24 1531.6 Q1948.24 1540.33 1945.17 1544.94 Q1942.11 1549.52 1936.3 1549.52 Q1930.49 1549.52 1927.41 1544.94 Q1924.36 1540.33 1924.36 1531.6 Q1924.36 1522.85 1927.41 1518.27 Q1930.49 1513.66 1936.3 1513.66 Z" fill="#000000" fill-rule="nonzero" fill-opacity="1" /><path clip-path="url(#clip380)" d="M2180.53 1544.91 L2188.17 1544.91 L2188.17 1518.55 L2179.86 1520.21 L2179.86 1515.95 L2188.12 1514.29 L2192.8 1514.29 L2192.8 1544.91 L2200.43 1544.91 L2200.43 1548.85 L2180.53 1548.85 L2180.53 1544.91 Z" fill="#000000" fill-rule="nonzero" fill-opacity="1" /><path clip-path="url(#clip380)" d="M2213.91 1544.91 L2230.23 1544.91 L2230.23 1548.85 L2208.28 1548.85 L2208.28 1544.91 Q2210.94 1542.16 2215.53 1537.53 Q2220.13 1532.88 2221.31 1531.53 Q2223.56 1529.01 2224.44 1527.27 Q2225.34 1525.51 2225.34 1523.82 Q2225.34 1521.07 2223.4 1519.33 Q2221.48 1517.6 2218.37 1517.6 Q2216.17 1517.6 2213.72 1518.36 Q2211.29 1519.13 2208.51 1520.68 L2208.51 1515.95 Q2211.34 1514.82 2213.79 1514.24 Q2216.24 1513.66 2218.28 1513.66 Q2223.65 1513.66 2226.85 1516.35 Q2230.04 1519.03 2230.04 1523.52 Q2230.04 1525.65 2229.23 1527.57 Q2228.44 1529.47 2226.34 1532.07 Q2225.76 1532.74 2222.66 1535.95 Q2219.55 1539.15 2213.91 1544.91 Z" fill="#000000" fill-rule="nonzero" fill-opacity="1" /><path clip-path="url(#clip380)" d="M2250.04 1517.37 Q2246.43 1517.37 2244.6 1520.93 Q2242.8 1524.47 2242.8 1531.6 Q2242.8 1538.71 2244.6 1542.27 Q2246.43 1545.82 2250.04 1545.82 Q2253.67 1545.82 2255.48 1542.27 Q2257.31 1538.71 2257.31 1531.6 Q2257.31 1524.47 2255.48 1520.93 Q2253.67 1517.37 2250.04 1517.37 M2250.04 1513.66 Q2255.85 1513.66 2258.91 1518.27 Q2261.98 1522.85 2261.98 1531.6 Q2261.98 1540.33 2258.91 1544.94 Q2255.85 1549.52 2250.04 1549.52 Q2244.23 1549.52 2241.15 1544.94 Q2238.1 1540.33 2238.1 1531.6 Q2238.1 1522.85 2241.15 1518.27 Q2244.23 1513.66 2250.04 1513.66 Z" fill="#000000" fill-rule="nonzero" fill-opacity="1" /><path clip-path="url(#clip380)" d="M2280.2 1517.37 Q2276.59 1517.37 2274.76 1520.93 Q2272.96 1524.47 2272.96 1531.6 Q2272.96 1538.71 2274.76 1542.27 Q2276.59 1545.82 2280.2 1545.82 Q2283.84 1545.82 2285.64 1542.27 Q2287.47 1538.71 2287.47 1531.6 Q2287.47 1524.47 2285.64 1520.93 Q2283.84 1517.37 2280.2 1517.37 M2280.2 1513.66 Q2286.01 1513.66 2289.07 1518.27 Q2292.15 1522.85 2292.15 1531.6 Q2292.15 1540.33 2289.07 1544.94 Q2286.01 1549.52 2280.2 1549.52 Q2274.39 1549.52 2271.31 1544.94 Q2268.26 1540.33 2268.26 1531.6 Q2268.26 1522.85 2271.31 1518.27 Q2274.39 1513.66 2280.2 1513.66 Z" fill="#000000" fill-rule="nonzero" fill-opacity="1" /><polyline clip-path="url(#clip380)" style="stroke:#000000; stroke-linecap:round; stroke-linejoin:round; stroke-width:4; stroke-opacity:1; fill:none" points="110.858,1486.45 110.858,47.2441 "/>
<polyline clip-path="url(#clip380)" style="stroke:#000000; stroke-linecap:round; stroke-linejoin:round; stroke-width:4; stroke-opacity:1; fill:none" points="110.858,1445.72 129.755,1445.72 "/>
<polyline clip-path="url(#clip380)" style="stroke:#000000; stroke-linecap:round; stroke-linejoin:round; stroke-width:4; stroke-opacity:1; fill:none" points="110.858,1100.68 129.755,1100.68 "/>
<polyline clip-path="url(#clip380)" style="stroke:#000000; stroke-linecap:round; stroke-linejoin:round; stroke-width:4; stroke-opacity:1; fill:none" points="110.858,755.641 129.755,755.641 "/>
<polyline clip-path="url(#clip380)" style="stroke:#000000; stroke-linecap:round; stroke-linejoin:round; stroke-width:4; stroke-opacity:1; fill:none" points="110.858,410.603 129.755,410.603 "/>
<polyline clip-path="url(#clip380)" style="stroke:#000000; stroke-linecap:round; stroke-linejoin:round; stroke-width:4; stroke-opacity:1; fill:none" points="110.858,65.5659 129.755,65.5659 "/>
<path clip-path="url(#clip380)" d="M53.9551 1428.44 L72.3115 1428.44 L72.3115 1432.37 L58.2375 1432.37 L58.2375 1440.84 Q59.256 1440.5 60.2745 1440.33 Q61.293 1440.15 62.3115 1440.15 Q68.0985 1440.15 71.4781 1443.32 Q74.8577 1446.49 74.8577 1451.91 Q74.8577 1457.49 71.3855 1460.59 Q67.9133 1463.67 61.5939 1463.67 Q59.418 1463.67 57.1495 1463.3 Q54.9041 1462.93 52.4967 1462.19 L52.4967 1457.49 Q54.5801 1458.62 56.8023 1459.18 Q59.0245 1459.73 61.5013 1459.73 Q65.5059 1459.73 67.8439 1457.63 Q70.1818 1455.52 70.1818 1451.91 Q70.1818 1448.3 67.8439 1446.19 Q65.5059 1444.08 61.5013 1444.08 Q59.6263 1444.08 57.7513 1444.5 Q55.8995 1444.92 53.9551 1445.8 L53.9551 1428.44 Z" fill="#000000" fill-rule="nonzero" fill-opacity="1" /><path clip-path="url(#clip380)" d="M63.33 1098.81 Q60.1819 1098.81 58.33 1100.97 Q56.5014 1103.12 56.5014 1106.87 Q56.5014 1110.6 58.33 1112.77 Q60.1819 1114.93 63.33 1114.93 Q66.4782 1114.93 68.3068 1112.77 Q70.1587 1110.6 70.1587 1106.87 Q70.1587 1103.12 68.3068 1100.97 Q66.4782 1098.81 63.33 1098.81 M72.6124 1084.16 L72.6124 1088.42 Q70.8531 1087.59 69.0476 1087.15 Q67.2652 1086.71 65.5059 1086.71 Q60.8763 1086.71 58.4226 1089.83 Q55.9921 1092.96 55.6449 1099.28 Q57.0106 1097.26 59.0708 1096.2 Q61.131 1095.11 63.6078 1095.11 Q68.8161 1095.11 71.8253 1098.28 Q74.8577 1101.43 74.8577 1106.87 Q74.8577 1112.19 71.7096 1115.41 Q68.5615 1118.63 63.33 1118.63 Q57.3347 1118.63 54.1634 1114.05 Q50.9921 1109.44 50.9921 1100.71 Q50.9921 1092.52 54.881 1087.66 Q58.7699 1082.77 65.3208 1082.77 Q67.08 1082.77 68.8624 1083.12 Q70.6679 1083.47 72.6124 1084.16 Z" fill="#000000" fill-rule="nonzero" fill-opacity="1" /><path clip-path="url(#clip380)" d="M52.6356 738.361 L74.8577 738.361 L74.8577 740.352 L62.3115 772.921 L57.4273 772.921 L69.2328 742.296 L52.6356 742.296 L52.6356 738.361 Z" fill="#000000" fill-rule="nonzero" fill-opacity="1" /><path clip-path="url(#clip380)" d="M63.006 411.471 Q59.6726 411.471 57.7513 413.254 Q55.8532 415.036 55.8532 418.161 Q55.8532 421.286 57.7513 423.069 Q59.6726 424.851 63.006 424.851 Q66.3393 424.851 68.2606 423.069 Q70.1818 421.263 70.1818 418.161 Q70.1818 415.036 68.2606 413.254 Q66.3624 411.471 63.006 411.471 M58.33 409.481 Q55.3208 408.74 53.631 406.68 Q51.9643 404.62 51.9643 401.657 Q51.9643 397.513 54.9041 395.106 Q57.8671 392.698 63.006 392.698 Q68.168 392.698 71.1078 395.106 Q74.0476 397.513 74.0476 401.657 Q74.0476 404.62 72.3578 406.68 Q70.6911 408.74 67.705 409.481 Q71.0846 410.268 72.9596 412.559 Q74.8577 414.851 74.8577 418.161 Q74.8577 423.184 71.7791 425.869 Q68.7235 428.555 63.006 428.555 Q57.2884 428.555 54.2097 425.869 Q51.1542 423.184 51.1542 418.161 Q51.1542 414.851 53.0523 412.559 Q54.9504 410.268 58.33 409.481 M56.6171 402.096 Q56.6171 404.782 58.2838 406.286 Q59.9736 407.791 63.006 407.791 Q66.0152 407.791 67.705 406.286 Q69.418 404.782 69.418 402.096 Q69.418 399.411 67.705 397.907 Q66.0152 396.402 63.006 396.402 Q59.9736 396.402 58.2838 397.907 Q56.6171 399.411 56.6171 402.096 Z" fill="#000000" fill-rule="nonzero" fill-opacity="1" /><path clip-path="url(#clip380)" d="M53.2375 82.1283 L53.2375 77.8691 Q54.9967 78.7024 56.8023 79.1422 Q58.6078 79.582 60.3439 79.582 Q64.9735 79.582 67.4041 76.4802 Q69.8578 73.3552 70.205 67.0126 Q68.8624 69.0034 66.8022 70.0682 Q64.7421 71.133 62.2421 71.133 Q57.0569 71.133 54.0245 68.008 Q51.0153 64.8599 51.0153 59.4201 Q51.0153 54.096 54.1634 50.8785 Q57.3115 47.6609 62.543 47.6609 Q68.5383 47.6609 71.6865 52.2674 Q74.8577 56.8507 74.8577 65.6006 Q74.8577 73.7719 70.9689 78.6561 Q67.1032 83.5172 60.5523 83.5172 Q58.793 83.5172 56.9875 83.17 Q55.1819 82.8227 53.2375 82.1283 M62.543 67.4756 Q65.6911 67.4756 67.5198 65.3228 Q69.3717 63.1701 69.3717 59.4201 Q69.3717 55.6933 67.5198 53.5405 Q65.6911 51.3646 62.543 51.3646 Q59.3949 51.3646 57.543 53.5405 Q55.7143 55.6933 55.7143 59.4201 Q55.7143 63.1701 57.543 65.3228 Q59.3949 67.4756 62.543 67.4756 Z" fill="#000000" fill-rule="nonzero" fill-opacity="1" /><polyline clip-path="url(#clip382)" style="stroke:#009af9; stroke-linecap:round; stroke-linejoin:round; stroke-width:4; stroke-opacity:1; fill:none" points="174.308,1445.72 176.027,1445.72 177.747,1445.72 179.466,1445.72 181.186,1273.2 182.905,1292.96 184.625,1320.65 186.344,1320.65 188.064,1194.35 189.783,1194.35 191.503,1067.59 193.222,1088.14 194.942,1152.96 196.661,1152.96 198.381,1053.83 200.1,1075.72 201.82,1075.72 203.539,1056.07 205.259,1077.6 206.978,1077.6 208.698,938.285 210.417,938.285 212.137,849.612 213.856,851.493 215.576,959.207 217.295,1047.4 219.015,1047.4 220.734,929.771 222.454,1000.51 224.173,1081.21 225.893,1081.21 227.613,1029.47 229.332,1029.47 231.052,903.492 232.771,903.492 234.491,885.859 236.21,898.359 237.93,898.359 239.649,904.298 241.369,932.116 243.088,1025.22 244.808,1101.44 246.527,1101.44 248.247,975.031 249.966,1046.91 251.686,1119.2 253.405,1178.39 255.125,1226.84 256.844,1266.52 258.564,1266.52 260.283,1221.34 262.003,1233.84 263.722,1272.25 265.442,1272.25 267.161,1142.75 268.881,1184.85 270.6,1232.14 272.32,1270.86 274.039,1270.86 275.759,1141.99 277.478,1183.32 279.198,1183.32 280.917,1121.3 282.637,1121.3 284.356,1004.55 286.076,1048.6 287.795,1048.6 289.515,917.464 291.234,917.464 292.954,797.933 294.673,797.933 296.393,741.991 298.112,749.998 299.832,876.11 301.551,876.11 303.271,881.922 304.991,881.922 306.71,813.537 308.43,849.206 310.149,849.206 311.869,806.442 313.588,806.442 315.308,636.979 317.027,636.979 318.747,592.46 320.466,615.49 322.186,765.985 323.905,765.985 325.625,663.374 327.344,663.374 329.064,514.502 330.783,514.502 332.503,447.947 334.222,447.947 335.942,282.426 337.661,315.604 339.381,315.604 341.1,218.823 342.82,218.823 344.539,214.689 346.259,214.689 347.978,87.9763 349.698,216.3 351.417,439.155 353.137,439.155 354.856,383.891 356.576,564.333 358.295,724.101 360.015,724.101 361.734,656.266 363.454,656.266 365.173,639.336 366.893,737.73 368.612,737.73 370.332,655.163 372.051,655.163 373.771,538.715 375.49,617.429 377.21,617.429 378.929,590.035 380.649,590.035 382.368,488.065 384.088,583.879 385.808,740.103 387.527,868.009 389.247,868.009 390.966,856.775 392.686,909.953 394.405,909.953 396.125,818.755 397.844,818.755 399.564,778.611 401.283,778.611 403.003,666.601 404.722,683.301 406.442,683.301 408.161,749.632 409.881,752.811 411.6,878.413 413.32,878.413 415.039,864.285 416.759,864.285 418.478,703.426 420.198,703.426 421.917,680.671 423.637,691.054 425.356,691.054 427.076,609.71 428.795,667.195 430.515,667.195 432.234,659.668 433.954,672.566 435.673,672.566 437.393,732.07 439.112,744.953 440.832,744.953 442.551,761.354 444.271,841.517 445.99,951.04 447.71,951.04 449.429,859.865 451.149,915.894 452.868,915.894 454.588,930.867 456.307,944.793 458.027,1035.59 459.746,1109.94 461.466,1109.94 463.185,939.333 464.905,1028.75 466.625,1028.75 468.344,890.194 470.064,890.194 471.783,759.521 473.503,784.259 475.222,784.259 476.942,662.282 478.661,788.356 480.381,788.356 482.1,659.266 483.82,659.266 485.539,631.953 487.259,659.644 488.978,802.135 490.698,918.796 492.417,1014.31 494.137,1092.51 495.856,1092.51 497.576,995.428 499.295,1028.73 501.015,1104.31 502.734,1166.2 504.454,1166.2 506.173,1035.33 507.893,1100.9 509.612,1163.41 511.332,1214.58 513.051,1256.48 514.771,1256.48 516.49,1199.71 518.21,1199.71 519.929,1151.99 521.649,1164.25 523.368,1164.25 525.088,1022.45 526.807,1056.72 528.527,1056.72 530.246,911.324 531.966,911.324 533.685,780.96 535.405,852.17 537.124,959.762 538.844,959.762 540.563,793.324 542.283,793.324 544.003,852.366 545.722,871.418 547.442,871.418 549.161,822.787 550.881,916.944 552.6,916.944 554.32,817.403 556.039,890.93 557.759,991.495 559.478,991.495 561.198,979.17 562.917,1009.28 564.637,1088.39 566.356,1153.16 568.076,1206.19 569.795,1249.61 571.515,1249.61 573.234,1208.33 574.954,1219.36 576.673,1260.39 578.393,1293.98 580.112,1293.98 581.832,1231.34 583.551,1231.34 585.271,1163.79 586.99,1203.14 588.71,1247.11 590.429,1247.11 592.149,1137.97 593.868,1150.89 595.588,1150.89 597.307,1137.3 599.027,1173.92 600.746,1223.19 602.466,1263.53 604.185,1296.55 605.905,1323.59 607.624,1345.73 609.344,1345.73 611.063,1176.58 612.783,1176.58 614.502,1041.94 616.222,1099.26 617.941,1162.06 619.661,1162.06 621.38,1032.76 623.1,1096.9 624.82,1096.9 626.539,968.465 628.259,1043.94 629.978,1116.77 631.698,1176.4 633.417,1176.4 635.137,1072.07 636.856,1096.07 638.576,1159.45 640.295,1211.34 642.015,1211.34 643.734,1100.84 645.454,1125.8 647.173,1183.79 648.893,1183.79 650.612,1152.42 652.332,1165.29 654.051,1216.12 655.771,1257.74 657.49,1291.81 659.21,1319.71 660.929,1342.55 662.649,1342.55 664.368,1216.65 666.088,1216.65 667.807,1088.59 669.527,1099.39 671.246,1099.39 672.966,1031.19 674.685,1105.53 676.405,1105.53 678.124,936.119 679.844,936.119 681.563,925.357 683.283,994.749 685.002,994.749 686.722,845.931 688.441,845.931 690.161,770.636 691.88,794.22 693.6,794.22 695.319,839.735 697.039,843.768 698.758,843.768 700.478,788.509 702.197,788.509 703.917,736.131 705.637,762.1 707.356,762.1 709.076,795.003 710.795,795.003 712.515,674.567 714.234,725.84 715.954,725.84 717.673,622.819 719.393,622.819 721.112,648.34 722.832,670.468 724.551,670.468 726.271,620.921 727.99,620.921 729.71,573.859 731.429,582.169 733.149,738.704 734.868,738.704 736.588,664.058 738.307,664.058 740.027,707.167 741.746,708.29 743.466,708.29 745.185,587.168 746.905,690.134 748.624,690.134 750.344,655.028 752.063,696.284 753.783,832.133 755.502,943.357 757.222,1034.42 758.941,1034.42 760.661,947.016 762.38,980.121 764.1,980.121 765.819,934.612 767.539,934.612 769.258,860.692 770.978,868.951 772.697,868.951 774.417,868.345 776.136,909.4 777.856,1006.62 779.575,1086.21 781.295,1151.38 783.015,1151.38 784.734,1090.54 786.454,1146.62 788.173,1146.62 789.893,1145.96 791.612,1145.96 793.332,1014.71 795.051,1038.63 796.771,1112.42 798.49,1172.84 800.21,1222.3 801.929,1222.3 803.649,1113 805.368,1133.14 807.088,1189.8 808.807,1189.8 810.527,1157.94 812.246,1157.94 813.966,1159.6 815.685,1175 817.405,1224.07 819.124,1224.07 820.844,1080.61 822.563,1101.69 824.283,1101.69 826.002,1019.68 827.722,1029.08 829.441,1029.08 831.161,921.385 832.88,921.385 834.6,867.224 836.319,867.224 838.039,732.702 839.758,752.241 841.478,752.241 843.197,754.556 844.917,754.556 846.636,633.882 848.356,685.779 850.075,823.532 851.795,936.315 853.514,936.315 855.234,833.898 856.953,833.898 858.673,707.959 860.392,707.959 862.112,641.364 863.832,641.364 865.551,543.096 867.271,543.096 868.99,423.588 870.71,456.719 872.429,635.994 874.149,782.772 875.868,782.772 877.588,709.78 879.307,709.78 881.027,704.877 882.746,709.037 884.466,709.037 886.185,731.569 887.905,731.569 889.624,692.12 891.344,710.759 893.063,710.759 894.783,752.718 896.502,752.718 898.222,694.73 899.941,694.73 901.661,562.346 903.38,573.552 905.1,731.649 906.819,731.649 908.539,764.809 910.258,795.155 911.978,795.155 913.697,772.808 915.417,775.65 917.136,775.65 918.856,765.883 920.575,765.883 922.295,690.752 924.014,698.543 925.734,833.983 927.453,944.871 929.173,1035.66 930.892,1109.99 932.612,1109.99 934.331,1028.37 936.051,1035.03 937.77,1109.48 939.49,1109.48 941.209,979.822 942.929,1054.55 944.649,1125.46 946.368,1183.51 948.088,1183.51 949.807,1155.61 951.527,1164.04 953.246,1164.04 954.966,1019.74 956.685,1019.74 958.405,978.948 960.124,990.877 961.844,1073.32 963.563,1140.83 965.283,1196.09 967.002,1196.09 968.722,1189.35 970.441,1209.56 972.161,1252.37 973.88,1287.42 975.6,1316.11 977.319,1316.11 979.039,1252.04 980.758,1280.87 982.478,1310.75 984.197,1335.21 985.917,1355.24 987.636,1371.64 989.356,1385.07 991.075,1385.07 992.795,1215.58 994.514,1215.58 996.234,1070.11 997.953,1078.93 999.673,1078.93 1001.39,980.597 1003.11,1018.71 1004.83,1096.11 1006.55,1096.11 1008.27,1012.67 1009.99,1025.59 1011.71,1025.59 1013.43,918.812 1015.15,918.812 1016.87,759.533 1018.59,759.533 1020.31,650.228 1022.03,650.228 1023.75,619.908 1025.47,659.607 1027.19,802.104 1028.9,802.104 1030.62,672.324 1032.34,804.309 1034.06,804.309 1035.78,741.148 1037.5,792.65 1039.22,911.031 1040.94,911.031 1042.66,918.946 1044.38,977.269 1046.1,1062.18 1047.82,1062.18 1049.54,1038.03 1051.26,1067.73 1052.98,1067.73 1054.7,1031.96 1056.42,1031.96 1058.14,991.744 1059.86,1007.72 1061.58,1087.11 1063.29,1087.11 1065.01,1020.57 1066.73,1095.23 1068.45,1095.23 1070.17,969.275 1071.89,995.872 1073.61,995.872 1075.33,984.737 1077.05,1012.57 1078.77,1012.57 1080.49,986.435 1082.21,1028.39 1083.93,1028.39 1085.65,1007.49 1087.37,1007.49 1089.09,899.814 1090.81,902.953 1092.53,902.953 1094.25,880.343 1095.97,880.343 1097.68,757.154 1099.4,770.346 1101.12,770.346 1102.84,733.516 1104.56,833.445 1106.28,944.431 1108,1035.3 1109.72,1109.69 1111.44,1109.69 1113.16,993.595 1114.88,993.595 1116.6,880.456 1118.32,921.804 1120.04,921.804 1121.76,793.596 1123.48,862.477 1125.2,862.477 1126.92,749.439 1128.64,810.913 1130.36,810.913 1132.08,765.086 1133.79,765.086 1135.51,707.509 1137.23,707.509 1138.95,575.54 1140.67,649.932 1142.39,649.932 1144.11,591.527 1145.83,591.527 1147.55,489.966 1149.27,580.799 1150.99,580.799 1152.71,654.646 1154.43,669.905 1156.15,810.536 1157.87,925.674 1159.59,925.674 1161.31,856.093 1163.03,889.822 1164.75,889.822 1166.47,743.705 1168.18,743.705 1169.9,721.773 1171.62,721.773 1173.34,703.63 1175.06,746.195 1176.78,872.997 1178.5,872.997 1180.22,789.866 1181.94,789.866 1183.66,671.005 1185.38,681.704 1187.1,681.704 1188.82,648.421 1190.54,648.421 1192.26,536.674 1193.98,536.674 1195.7,554.329 1197.42,554.329 1199.14,491.991 1200.86,502.341 1202.58,502.341 1204.29,535.668 1206.01,642.908 1207.73,788.432 1209.45,907.577 1211.17,1005.13 1212.89,1005.13 1214.61,929.939 1216.33,953.2 1218.05,1042.48 1219.77,1042.48 1221.49,950.579 1223.21,987.984 1224.93,987.984 1226.65,892.316 1228.37,946.44 1230.09,1036.94 1231.81,1111.04 1233.53,1111.04 1235.25,977.751 1236.97,977.751 1238.68,852.302 1240.4,939.314 1242.12,939.314 1243.84,821.443 1245.56,913.431 1247.28,1009.92 1249,1009.92 1250.72,924.874 1252.44,960.282 1254.16,960.282 1255.88,921.255 1257.6,988.059 1259.32,988.059 1261.04,925.208 1262.76,935.815 1264.48,1028.24 1266.2,1103.92 1267.92,1103.92 1269.64,1089.62 1271.36,1098.61 1273.08,1098.61 1274.79,981.728 1276.51,1041.21 1278.23,1041.21 1279.95,931.726 1281.67,992.96 1283.39,992.96 1285.11,997.862 1286.83,1007.51 1288.55,1007.51 1290.27,887.782 1291.99,969.025 1293.71,1055.43 1295.43,1126.18 1297.15,1126.18 1298.87,1128.65 1300.59,1152.16 1302.31,1152.16 1304.03,1031.67 1305.75,1031.67 1307.47,902.937 1309.18,962.269 1310.9,1049.9 1312.62,1049.9 1314.34,1029.18 1316.06,1029.18 1317.78,1006.52 1319.5,1026.52 1321.22,1102.5 1322.94,1164.72 1324.66,1164.72 1326.38,1046.64 1328.1,1094.03 1329.82,1157.78 1331.54,1209.97 1333.26,1252.71 1334.98,1287.69 1336.7,1287.69 1338.42,1225.06 1340.14,1257.46 1341.86,1291.59 1343.58,1291.59 1345.29,1175.93 1347.01,1187.36 1348.73,1187.36 1350.45,1191.84 1352.17,1200.92 1353.89,1245.3 1355.61,1281.63 1357.33,1311.37 1359.05,1311.37 1360.77,1197.66 1362.49,1197.77 1364.21,1197.77 1365.93,1164.5 1367.65,1176.7 1369.37,1176.7 1371.09,1148.54 1372.81,1158.86 1374.53,1158.86 1376.25,1119.06 1377.97,1147.95 1379.68,1201.93 1381.4,1246.12 1383.12,1282.3 1384.84,1311.92 1386.56,1336.17 1388.28,1336.17 1390,1216.01 1391.72,1221.04 1393.44,1261.77 1395.16,1261.77 1396.88,1128.77 1398.6,1128.77 1400.32,1011.63 1402.04,1011.63 1403.76,914.457 1405.48,917.322 1407.2,917.322 1408.92,779.862 1410.64,861.82 1412.36,861.82 1414.07,701.902 1415.79,823.301 1417.51,823.301 1419.23,719.201 1420.95,719.201 1422.67,596.149 1424.39,694.594 1426.11,830.749 1427.83,942.224 1429.55,1033.49 1431.27,1108.21 1432.99,1169.39 1434.71,1169.39 1436.43,1138.51 1438.15,1153.94 1439.87,1206.83 1441.59,1206.83 1443.31,1099.67 1445.03,1099.67 1446.75,978.886 1448.47,983.822 1450.18,1067.55 1451.9,1136.1 1453.62,1136.1 1455.34,1006.91 1457.06,1006.91 1458.78,916.84 1460.5,945.332 1462.22,945.332 1463.94,850.977 1465.66,850.977 1467.38,787.406 1469.1,801.065 1470.82,917.921 1472.54,1013.59 1474.26,1091.92 1475.98,1091.92 1477.7,1059.05 1479.42,1093.13 1481.14,1157.04 1482.86,1157.04 1484.57,1122.49 1486.29,1145.21 1488.01,1145.21 1489.73,1124.86 1491.45,1132.27 1493.17,1132.27 1494.89,1069.87 1496.61,1131.37 1498.33,1131.37 1500.05,1064.71 1501.77,1131.43 1503.49,1188.4 1505.21,1188.4 1506.93,1046.37 1508.65,1046.37 1510.37,992.373 1512.09,1008.22 1513.81,1008.22 1515.53,930.362 1517.25,956.511 1518.97,1045.19 1520.68,1045.19 1522.4,924.497 1524.12,924.497 1525.84,818.28 1527.56,873.909 1529.28,977.56 1531,1062.42 1532.72,1131.9 1534.44,1131.9 1536.16,980.968 1537.88,1037.11 1539.6,1111.17 1541.32,1111.17 1543.04,1096.27 1544.76,1104.42 1546.48,1104.42 1548.2,1002.75 1549.92,1039.82 1551.64,1113.4 1553.36,1173.64 1555.07,1222.96 1556.79,1222.96 1558.51,1164.71 1560.23,1203.97 1561.95,1203.97 1563.67,1136.79 1565.39,1136.79 1567.11,1003.57 1568.83,1075.21 1570.55,1075.21 1572.27,943.045 1573.99,1027.56 1575.71,1027.56 1577.43,968.33 1579.15,1045.51 1580.87,1045.51 1582.59,958.886 1584.31,988.408 1586.03,1071.3 1587.75,1071.3 1589.47,1015.71 1591.18,1080.58 1592.9,1146.76 1594.62,1200.95 1596.34,1245.32 1598.06,1281.65 1599.78,1281.65 1601.5,1214.62 1603.22,1254.2 1604.94,1288.92 1606.66,1317.34 1608.38,1340.61 1610.1,1359.66 1611.82,1375.26 1613.54,1388.03 1615.26,1398.49 1616.98,1398.49 1618.7,1335.67 1620.42,1342.04 1622.14,1342.04 1623.86,1218.67 1625.57,1218.67 1627.29,1052.57 1629.01,1059.96 1630.73,1129.89 1632.45,1129.89 1634.17,1088.5 1635.89,1125.22 1637.61,1183.32 1639.33,1230.88 1641.05,1269.83 1642.77,1301.71 1644.49,1327.81 1646.21,1349.19 1647.93,1366.68 1649.65,1366.68 1651.37,1231.14 1653.09,1264.36 1654.81,1297.24 1656.53,1297.24 1658.25,1231.68 1659.97,1266.31 1661.68,1266.31 1663.4,1202.73 1665.12,1202.73 1666.84,1142.09 1668.56,1180.23 1670.28,1180.23 1672,1063.84 1673.72,1105.33 1675.44,1167.04 1677.16,1217.55 1678.88,1258.91 1680.6,1258.91 1682.32,1133.59 1684.04,1171.54 1685.76,1171.54 1687.48,1076.53 1689.2,1087.22 1690.92,1152.21 1692.64,1205.41 1694.36,1248.97 1696.07,1248.97 1697.79,1226.36 1699.51,1254.57 1701.23,1289.22 1702.95,1317.58 1704.67,1340.81 1706.39,1359.83 1708.11,1359.83 1709.83,1332.9 1711.55,1344.41 1713.27,1344.41 1714.99,1283.29 1716.71,1283.29 1718.43,1257.1 1720.15,1269.22 1721.87,1269.22 1723.59,1219.57 1725.31,1237.76 1727.03,1275.45 1728.75,1275.45 1730.46,1159.46 1732.18,1159.46 1733.9,1034.92 1735.62,1040.34 1737.34,1040.34 1739.06,868.347 1740.78,868.347 1742.5,719.269 1744.22,824.974 1745.94,937.495 1747.66,937.495 1749.38,766.954 1751.1,887.822 1752.82,988.951 1754.54,988.951 1756.26,881.984 1757.98,950.51 1759.7,1040.28 1761.42,1113.77 1763.14,1113.77 1764.86,996.919 1766.57,1053.25 1768.29,1124.39 1770.01,1124.39 1771.73,1018.01 1773.45,1018.01 1775.17,883.046 1776.89,885.548 1778.61,987.089 1780.33,1070.22 1782.05,1070.22 1783.77,962.141 1785.49,1015.5 1787.21,1015.5 1788.93,889.306 1790.65,889.306 1792.37,735.517 1794.09,827.005 1795.81,827.005 1797.53,784.972 1799.25,880.084 1800.96,982.616 1802.68,982.616 1804.4,896.969 1806.12,939.157 1807.84,939.157 1809.56,909.888 1811.28,969.672 1813,1055.96 1814.72,1055.96 1816.44,949.173 1818.16,949.173 1819.88,900.35 1821.6,900.35 1823.32,780.921 1825.04,807.195 1826.76,922.939 1828.48,1017.7 1830.2,1095.29 1831.92,1158.81 1833.64,1210.82 1835.36,1210.82 1837.07,1100.42 1838.79,1125.35 1840.51,1125.35 1842.23,1001.4 1843.95,1001.4 1845.67,979.738 1847.39,999.09 1849.11,999.09 1850.83,840.932 1852.55,840.932 1854.27,779.181 1855.99,800.513 1857.71,800.513 1859.43,772.484 1861.15,772.484 1862.87,695.342 1864.59,724.483 1866.31,855.22 1868.03,962.259 1869.75,962.259 1871.46,843.121 1873.18,932.306 1874.9,1025.37 1876.62,1101.57 1878.34,1163.95 1880.06,1163.95 1881.78,1046.33 1883.5,1093.21 1885.22,1093.21 1886.94,1001.91 1888.66,1026.85 1890.38,1026.85 1892.1,1013.09 1893.82,1037.7 1895.54,1037.7 1897.26,938.301 1898.98,938.301 1900.7,845.155 1902.42,849.93 1904.14,957.927 1905.86,1046.35 1907.57,1046.35 1909.29,981.161 1911.01,1061.7 1912.73,1131.31 1914.45,1188.3 1916.17,1188.3 1917.89,1183.24 1919.61,1203.06 1921.33,1247.05 1923.05,1247.05 1924.77,1082.24 1926.49,1082.24 1928.21,1034.38 1929.93,1073.7 1931.65,1141.14 1933.37,1141.14 1935.09,1007.7 1936.81,1007.7 1938.53,872.024 1940.25,872.024 1941.96,806.33 1943.68,834.314 1945.4,945.142 1947.12,1035.88 1948.84,1035.88 1950.56,975.607 1952.28,1052.44 1954,1052.44 1955.72,932.58 1957.44,932.58 1959.16,834.437 1960.88,876.82 1962.6,876.82 1964.32,781.638 1966.04,857.746 1967.76,857.746 1969.48,737.414 1971.2,847.825 1972.92,847.825 1974.64,780.385 1976.35,780.385 1978.07,651.67 1979.79,651.67 1981.51,546.128 1983.23,562.671 1984.95,562.671 1986.67,564.1 1988.39,693.292 1990.11,693.292 1991.83,681.736 1993.55,693.858 1995.27,830.147 1996.99,941.73 1998.71,941.73 2000.43,907.541 2002.15,972.396 2003.87,972.396 2005.59,896.472 2007.31,928.136 2009.03,1021.96 2010.75,1021.96 2012.46,921.609 2014.18,921.609 2015.9,800.634 2017.62,846.562 2019.34,846.562 2021.06,796.31 2022.78,822.781 2024.5,822.781 2026.22,693.862 2027.94,693.862 2029.66,739.479 2031.38,753.379 2033.1,878.878 2034.82,878.878 2036.54,911.179 2038.26,912.835 2039.98,912.835 2041.7,806.278 2043.42,806.278 2045.14,771.814 2046.85,825.871 2048.57,825.871 2050.29,678.338 2052.01,678.338 2053.73,587.245 2055.45,626.401 2057.17,774.917 2058.89,774.917 2060.61,745.249 2062.33,761.748 2064.05,761.748 2065.77,793.242 2067.49,854.464 2069.21,854.464 2070.93,817.354 2072.65,817.354 2074.37,839.718 2076.09,869.088 2077.81,973.613 2079.53,1059.19 2081.25,1059.19 2082.96,1021.11 2084.68,1067.84 2086.4,1067.84 2088.12,954.15 2089.84,1015.57 2091.56,1015.57 2093.28,886.139 2095,936.572 2096.72,936.572 2098.44,954.193 2100.16,954.193 2101.88,817.415 2103.6,824.274 2105.32,936.922 2107.04,936.922 2108.76,781.81 2110.48,781.81 2112.2,741.731 2113.92,745.655 2115.64,872.554 2117.35,872.554 2119.07,855.267 2120.79,914.349 2122.51,914.349 2124.23,796.162 2125.95,796.162 2127.67,797.734 2129.39,862.222 2131.11,967.992 2132.83,1054.59 2134.55,1054.59 2136.27,925.282 2137.99,925.282 2139.71,895.493 2141.43,895.493 2143.15,841.806 2144.87,883.138 2146.59,883.138 2148.31,902.462 2150.03,918.094 2151.75,1013.74 2153.46,1092.04 2155.18,1156.15 2156.9,1208.64 2158.62,1251.61 2160.34,1251.61 2162.06,1127.79 2163.78,1127.79 2165.5,1060.49 2167.22,1060.49 2168.94,1023.73 2170.66,1036.72 2172.38,1036.72 2174.1,996.776 2175.82,996.776 2177.54,935.577 2179.26,935.577 2180.98,836.75 2182.7,854.046 2184.42,854.046 2186.14,847.837 2187.85,898.09 2189.57,898.09 2191.29,744.082 2193.01,851.17 2194.73,958.943 2196.45,1047.18 2198.17,1119.42 2199.89,1119.42 2201.61,1088.49 2203.33,1114.61 2205.05,1174.63 2206.77,1223.77 2208.49,1264 2210.21,1264 2211.93,1234.13 2213.65,1234.13 2215.37,1105.05 2217.09,1105.05 2218.81,1061.48 2220.53,1081.47 2222.25,1147.49 2223.96,1147.49 2225.68,1126.87 2227.4,1134.11 2229.12,1190.6 2230.84,1190.6 2232.56,1151.08 2234.28,1172.96 2236,1172.96 2237.72,1043.18 2239.44,1105.89 2241.16,1167.49 2242.88,1167.49 2244.6,1052.25 2246.32,1094.85 2248.04,1094.85 2249.76,971.807 2251.48,1040.41 2253.2,1113.88 2254.92,1113.88 2256.64,1035.47 2258.35,1036.29 2260.07,1110.51 2261.79,1171.27 2263.51,1221.02 2265.23,1261.75 2266.95,1295.1 2268.67,1322.4 2270.39,1344.75 2272.11,1363.05 2273.83,1378.04 2275.55,1390.31 2277.27,1390.31 2278.99,1361.62 2280.71,1368.79 2282.43,1368.79 2284.15,1244.04 2285.87,1246.19 2287.59,1282.36 2289.31,1311.97 "/>
<path clip-path="url(#clip380)" d="M2001.41 198.898 L2278.03 198.898 L2278.03 95.2176 L2001.41 95.2176  Z" fill="#ffffff" fill-rule="evenodd" fill-opacity="1"/>
<polyline clip-path="url(#clip380)" style="stroke:#000000; stroke-linecap:round; stroke-linejoin:round; stroke-width:4; stroke-opacity:1; fill:none" points="2001.41,198.898 2278.03,198.898 2278.03,95.2176 2001.41,95.2176 2001.41,198.898 "/>
<polyline clip-path="url(#clip380)" style="stroke:#009af9; stroke-linecap:round; stroke-linejoin:round; stroke-width:4; stroke-opacity:1; fill:none" points="2026.32,147.058 2175.78,147.058 "/>
<path clip-path="url(#clip380)" d="M2214.53 166.745 Q2212.72 171.375 2211.01 172.787 Q2209.3 174.199 2206.43 174.199 L2203.02 174.199 L2203.02 170.634 L2205.52 170.634 Q2207.28 170.634 2208.26 169.8 Q2209.23 168.967 2210.41 165.865 L2211.17 163.921 L2200.69 138.412 L2205.2 138.412 L2213.3 158.689 L2221.4 138.412 L2225.92 138.412 L2214.53 166.745 Z" fill="#000000" fill-rule="nonzero" fill-opacity="1" /><path clip-path="url(#clip380)" d="M2233.21 160.402 L2240.85 160.402 L2240.85 134.037 L2232.54 135.703 L2232.54 131.444 L2240.8 129.778 L2245.48 129.778 L2245.48 160.402 L2253.12 160.402 L2253.12 164.338 L2233.21 164.338 L2233.21 160.402 Z" fill="#000000" fill-rule="nonzero" fill-opacity="1" /></svg>
