<?xml version="1.0" encoding="utf-8"?>
<svg xmlns="http://www.w3.org/2000/svg" xmlns:xlink="http://www.w3.org/1999/xlink" width="600" height="400" viewBox="0 0 2400 1600">
<defs>
  <clipPath id="clip110">
    <rect x="0" y="0" width="2400" height="1600"/>
  </clipPath>
</defs>
<path clip-path="url(#clip110)" d="M0 1600 L2400 1600 L2400 0 L0 0  Z" fill="#ffffff" fill-rule="evenodd" fill-opacity="1"/>
<defs>
  <clipPath id="clip111">
    <rect x="110" y="47" width="2243" height="1377"/>
  </clipPath>
</defs>
<path clip-path="url(#clip110)" d="M110.881 1423.18 L2352.76 1423.18 L2352.76 47.2441 L110.881 47.2441  Z" fill="#ffffff" fill-rule="evenodd" fill-opacity="1"/>
<polyline clip-path="url(#clip111)" style="stroke:#000000; stroke-linecap:round; stroke-linejoin:round; stroke-width:2; stroke-opacity:0.1; fill:none" points="110.881,1423.18 110.881,47.2441 "/>
<polyline clip-path="url(#clip111)" style="stroke:#000000; stroke-linecap:round; stroke-linejoin:round; stroke-width:2; stroke-opacity:0.1; fill:none" points="559.256,1423.18 559.256,47.2441 "/>
<polyline clip-path="url(#clip111)" style="stroke:#000000; stroke-linecap:round; stroke-linejoin:round; stroke-width:2; stroke-opacity:0.1; fill:none" points="1007.63,1423.18 1007.63,47.2441 "/>
<polyline clip-path="url(#clip111)" style="stroke:#000000; stroke-linecap:round; stroke-linejoin:round; stroke-width:2; stroke-opacity:0.1; fill:none" points="1456.01,1423.18 1456.01,47.2441 "/>
<polyline clip-path="url(#clip111)" style="stroke:#000000; stroke-linecap:round; stroke-linejoin:round; stroke-width:2; stroke-opacity:0.1; fill:none" points="1904.38,1423.18 1904.38,47.2441 "/>
<polyline clip-path="url(#clip111)" style="stroke:#000000; stroke-linecap:round; stroke-linejoin:round; stroke-width:2; stroke-opacity:0.1; fill:none" points="2352.76,1423.18 2352.76,47.2441 "/>
<polyline clip-path="url(#clip111)" style="stroke:#000000; stroke-linecap:round; stroke-linejoin:round; stroke-width:2; stroke-opacity:0.1; fill:none" points="110.881,1398.57 2352.76,1398.57 "/>
<polyline clip-path="url(#clip111)" style="stroke:#000000; stroke-linecap:round; stroke-linejoin:round; stroke-width:2; stroke-opacity:0.1; fill:none" points="110.881,1016.17 2352.76,1016.17 "/>
<polyline clip-path="url(#clip111)" style="stroke:#000000; stroke-linecap:round; stroke-linejoin:round; stroke-width:2; stroke-opacity:0.1; fill:none" points="110.881,633.772 2352.76,633.772 "/>
<polyline clip-path="url(#clip111)" style="stroke:#000000; stroke-linecap:round; stroke-linejoin:round; stroke-width:2; stroke-opacity:0.1; fill:none" points="110.881,251.374 2352.76,251.374 "/>
<polyline clip-path="url(#clip110)" style="stroke:#000000; stroke-linecap:round; stroke-linejoin:round; stroke-width:4; stroke-opacity:1; fill:none" points="110.881,1423.18 2352.76,1423.18 "/>
<polyline clip-path="url(#clip110)" style="stroke:#000000; stroke-linecap:round; stroke-linejoin:round; stroke-width:4; stroke-opacity:1; fill:none" points="110.881,1423.18 110.881,1404.28 "/>
<polyline clip-path="url(#clip110)" style="stroke:#000000; stroke-linecap:round; stroke-linejoin:round; stroke-width:4; stroke-opacity:1; fill:none" points="559.256,1423.18 559.256,1404.28 "/>
<polyline clip-path="url(#clip110)" style="stroke:#000000; stroke-linecap:round; stroke-linejoin:round; stroke-width:4; stroke-opacity:1; fill:none" points="1007.63,1423.18 1007.63,1404.28 "/>
<polyline clip-path="url(#clip110)" style="stroke:#000000; stroke-linecap:round; stroke-linejoin:round; stroke-width:4; stroke-opacity:1; fill:none" points="1456.01,1423.18 1456.01,1404.28 "/>
<polyline clip-path="url(#clip110)" style="stroke:#000000; stroke-linecap:round; stroke-linejoin:round; stroke-width:4; stroke-opacity:1; fill:none" points="1904.38,1423.18 1904.38,1404.28 "/>
<polyline clip-path="url(#clip110)" style="stroke:#000000; stroke-linecap:round; stroke-linejoin:round; stroke-width:4; stroke-opacity:1; fill:none" points="2352.76,1423.18 2352.76,1404.28 "/>
<path clip-path="url(#clip110)" d="M110.881 1454.1 Q107.27 1454.1 105.441 1457.66 Q103.636 1461.2 103.636 1468.33 Q103.636 1475.44 105.441 1479.01 Q107.27 1482.55 110.881 1482.55 Q114.515 1482.55 116.321 1479.01 Q118.149 1475.44 118.149 1468.33 Q118.149 1461.2 116.321 1457.66 Q114.515 1454.1 110.881 1454.1 M110.881 1450.39 Q116.691 1450.39 119.747 1455 Q122.825 1459.58 122.825 1468.33 Q122.825 1477.06 119.747 1481.67 Q116.691 1486.25 110.881 1486.25 Q105.071 1486.25 101.992 1481.67 Q98.9365 1477.06 98.9365 1468.33 Q98.9365 1459.58 101.992 1455 Q105.071 1450.39 110.881 1450.39 Z" fill="#000000" fill-rule="nonzero" fill-opacity="1" /><path clip-path="url(#clip110)" d="M553.909 1481.64 L570.228 1481.64 L570.228 1485.58 L548.284 1485.58 L548.284 1481.64 Q550.946 1478.89 555.529 1474.26 Q560.136 1469.61 561.316 1468.27 Q563.561 1465.74 564.441 1464.01 Q565.344 1462.25 565.344 1460.56 Q565.344 1457.8 563.399 1456.07 Q561.478 1454.33 558.376 1454.33 Q556.177 1454.33 553.724 1455.09 Q551.293 1455.86 548.515 1457.41 L548.515 1452.69 Q551.339 1451.55 553.793 1450.97 Q556.247 1450.39 558.284 1450.39 Q563.654 1450.39 566.848 1453.08 Q570.043 1455.77 570.043 1460.26 Q570.043 1462.39 569.233 1464.31 Q568.446 1466.2 566.339 1468.8 Q565.76 1469.47 562.659 1472.69 Q559.557 1475.88 553.909 1481.64 Z" fill="#000000" fill-rule="nonzero" fill-opacity="1" /><path clip-path="url(#clip110)" d="M1010.64 1455.09 L998.835 1473.54 L1010.64 1473.54 L1010.64 1455.09 M1009.41 1451.02 L1015.29 1451.02 L1015.29 1473.54 L1020.22 1473.54 L1020.22 1477.43 L1015.29 1477.43 L1015.29 1485.58 L1010.64 1485.58 L1010.64 1477.43 L995.038 1477.43 L995.038 1472.92 L1009.41 1451.02 Z" fill="#000000" fill-rule="nonzero" fill-opacity="1" /><path clip-path="url(#clip110)" d="M1456.41 1466.44 Q1453.26 1466.44 1451.41 1468.59 Q1449.58 1470.74 1449.58 1474.49 Q1449.58 1478.22 1451.41 1480.39 Q1453.26 1482.55 1456.41 1482.55 Q1459.56 1482.55 1461.39 1480.39 Q1463.24 1478.22 1463.24 1474.49 Q1463.24 1470.74 1461.39 1468.59 Q1459.56 1466.44 1456.41 1466.44 M1465.69 1451.78 L1465.69 1456.04 Q1463.93 1455.21 1462.13 1454.77 Q1460.35 1454.33 1458.59 1454.33 Q1453.96 1454.33 1451.5 1457.45 Q1449.07 1460.58 1448.73 1466.9 Q1450.09 1464.89 1452.15 1463.82 Q1454.21 1462.73 1456.69 1462.73 Q1461.9 1462.73 1464.91 1465.9 Q1467.94 1469.05 1467.94 1474.49 Q1467.94 1479.82 1464.79 1483.03 Q1461.64 1486.25 1456.41 1486.25 Q1450.42 1486.25 1447.24 1481.67 Q1444.07 1477.06 1444.07 1468.33 Q1444.07 1460.14 1447.96 1455.28 Q1451.85 1450.39 1458.4 1450.39 Q1460.16 1450.39 1461.94 1450.74 Q1463.75 1451.09 1465.69 1451.78 Z" fill="#000000" fill-rule="nonzero" fill-opacity="1" /><path clip-path="url(#clip110)" d="M1904.38 1469.17 Q1901.05 1469.17 1899.13 1470.95 Q1897.23 1472.73 1897.23 1475.86 Q1897.23 1478.98 1899.13 1480.77 Q1901.05 1482.55 1904.38 1482.55 Q1907.71 1482.55 1909.64 1480.77 Q1911.56 1478.96 1911.56 1475.86 Q1911.56 1472.73 1909.64 1470.95 Q1907.74 1469.17 1904.38 1469.17 M1899.71 1467.18 Q1896.7 1466.44 1895.01 1464.38 Q1893.34 1462.32 1893.34 1459.35 Q1893.34 1455.21 1896.28 1452.8 Q1899.24 1450.39 1904.38 1450.39 Q1909.54 1450.39 1912.48 1452.8 Q1915.42 1455.21 1915.42 1459.35 Q1915.42 1462.32 1913.73 1464.38 Q1912.07 1466.44 1909.08 1467.18 Q1912.46 1467.96 1914.33 1470.26 Q1916.23 1472.55 1916.23 1475.86 Q1916.23 1480.88 1913.15 1483.57 Q1910.1 1486.25 1904.38 1486.25 Q1898.66 1486.25 1895.58 1483.57 Q1892.53 1480.88 1892.53 1475.86 Q1892.53 1472.55 1894.43 1470.26 Q1896.33 1467.96 1899.71 1467.18 M1897.99 1459.79 Q1897.99 1462.48 1899.66 1463.98 Q1901.35 1465.49 1904.38 1465.49 Q1907.39 1465.49 1909.08 1463.98 Q1910.79 1462.48 1910.79 1459.79 Q1910.79 1457.11 1909.08 1455.6 Q1907.39 1454.1 1904.38 1454.1 Q1901.35 1454.1 1899.66 1455.6 Q1897.99 1457.11 1897.99 1459.79 Z" fill="#000000" fill-rule="nonzero" fill-opacity="1" /><path clip-path="url(#clip110)" d="M2327.44 1481.64 L2335.08 1481.64 L2335.08 1455.28 L2326.77 1456.95 L2326.77 1452.69 L2335.04 1451.02 L2339.71 1451.02 L2339.71 1481.64 L2347.35 1481.64 L2347.35 1485.58 L2327.44 1485.58 L2327.44 1481.64 Z" fill="#000000" fill-rule="nonzero" fill-opacity="1" /><path clip-path="url(#clip110)" d="M2366.8 1454.1 Q2363.18 1454.1 2361.36 1457.66 Q2359.55 1461.2 2359.55 1468.33 Q2359.55 1475.44 2361.36 1479.01 Q2363.18 1482.55 2366.8 1482.55 Q2370.43 1482.55 2372.23 1479.01 Q2374.06 1475.44 2374.06 1468.33 Q2374.06 1461.2 2372.23 1457.66 Q2370.43 1454.1 2366.8 1454.1 M2366.8 1450.39 Q2372.61 1450.39 2375.66 1455 Q2378.74 1459.58 2378.74 1468.33 Q2378.74 1477.06 2375.66 1481.67 Q2372.61 1486.25 2366.8 1486.25 Q2360.99 1486.25 2357.91 1481.67 Q2354.85 1477.06 2354.85 1468.33 Q2354.85 1459.58 2357.91 1455 Q2360.99 1450.39 2366.8 1450.39 Z" fill="#000000" fill-rule="nonzero" fill-opacity="1" /><path clip-path="url(#clip110)" d="M1230.88 1522.27 L1230.88 1532.4 L1242.94 1532.4 L1242.94 1536.95 L1230.88 1536.95 L1230.88 1556.3 Q1230.88 1560.66 1232.06 1561.9 Q1233.27 1563.14 1236.93 1563.14 L1242.94 1563.14 L1242.94 1568.04 L1236.93 1568.04 Q1230.15 1568.04 1227.57 1565.53 Q1224.99 1562.98 1224.99 1556.3 L1224.99 1536.95 L1220.69 1536.95 L1220.69 1532.4 L1224.99 1532.4 L1224.99 1522.27 L1230.88 1522.27 Z" fill="#000000" fill-rule="nonzero" fill-opacity="1" /><polyline clip-path="url(#clip110)" style="stroke:#000000; stroke-linecap:round; stroke-linejoin:round; stroke-width:4; stroke-opacity:1; fill:none" points="110.881,1423.18 110.881,47.2441 "/>
<polyline clip-path="url(#clip110)" style="stroke:#000000; stroke-linecap:round; stroke-linejoin:round; stroke-width:4; stroke-opacity:1; fill:none" points="110.881,1398.57 129.779,1398.57 "/>
<polyline clip-path="url(#clip110)" style="stroke:#000000; stroke-linecap:round; stroke-linejoin:round; stroke-width:4; stroke-opacity:1; fill:none" points="110.881,1016.17 129.779,1016.17 "/>
<polyline clip-path="url(#clip110)" style="stroke:#000000; stroke-linecap:round; stroke-linejoin:round; stroke-width:4; stroke-opacity:1; fill:none" points="110.881,633.772 129.779,633.772 "/>
<polyline clip-path="url(#clip110)" style="stroke:#000000; stroke-linecap:round; stroke-linejoin:round; stroke-width:4; stroke-opacity:1; fill:none" points="110.881,251.374 129.779,251.374 "/>
<path clip-path="url(#clip110)" d="M62.9365 1384.36 Q59.3254 1384.36 57.4967 1387.93 Q55.6912 1391.47 55.6912 1398.6 Q55.6912 1405.71 57.4967 1409.27 Q59.3254 1412.81 62.9365 1412.81 Q66.5707 1412.81 68.3763 1409.27 Q70.205 1405.71 70.205 1398.6 Q70.205 1391.47 68.3763 1387.93 Q66.5707 1384.36 62.9365 1384.36 M62.9365 1380.66 Q68.7467 1380.66 71.8022 1385.27 Q74.8809 1389.85 74.8809 1398.6 Q74.8809 1407.33 71.8022 1411.93 Q68.7467 1416.52 62.9365 1416.52 Q57.1264 1416.52 54.0477 1411.93 Q50.9921 1407.33 50.9921 1398.6 Q50.9921 1389.85 54.0477 1385.27 Q57.1264 1380.66 62.9365 1380.66 Z" fill="#000000" fill-rule="nonzero" fill-opacity="1" /><path clip-path="url(#clip110)" d="M54.9736 1029.51 L62.6124 1029.51 L62.6124 1003.15 L54.3023 1004.81 L54.3023 1000.56 L62.5661 998.889 L67.242 998.889 L67.242 1029.51 L74.8809 1029.51 L74.8809 1033.45 L54.9736 1033.45 L54.9736 1029.51 Z" fill="#000000" fill-rule="nonzero" fill-opacity="1" /><path clip-path="url(#clip110)" d="M58.5615 647.116 L74.8809 647.116 L74.8809 651.052 L52.9366 651.052 L52.9366 647.116 Q55.5986 644.362 60.1819 639.732 Q64.7883 635.079 65.9689 633.737 Q68.2143 631.214 69.0939 629.478 Q69.9967 627.718 69.9967 626.029 Q69.9967 623.274 68.0522 621.538 Q66.1309 619.802 63.0291 619.802 Q60.83 619.802 58.3763 620.566 Q55.9458 621.329 53.168 622.88 L53.168 618.158 Q55.9921 617.024 58.4458 616.445 Q60.8995 615.867 62.9365 615.867 Q68.3068 615.867 71.5013 618.552 Q74.6957 621.237 74.6957 625.728 Q74.6957 627.857 73.8855 629.778 Q73.0985 631.677 70.992 634.269 Q70.4133 634.94 67.3115 638.158 Q64.2096 641.352 58.5615 647.116 Z" fill="#000000" fill-rule="nonzero" fill-opacity="1" /><path clip-path="url(#clip110)" d="M67.7513 250.02 Q71.1078 250.738 72.9827 253.006 Q74.8809 255.275 74.8809 258.608 Q74.8809 263.724 71.3624 266.525 Q67.8439 269.326 61.3624 269.326 Q59.1865 269.326 56.8717 268.886 Q54.5801 268.469 52.1264 267.613 L52.1264 263.099 Q54.0708 264.233 56.3856 264.812 Q58.7004 265.391 61.2236 265.391 Q65.6217 265.391 67.9133 263.654 Q70.2281 261.918 70.2281 258.608 Q70.2281 255.553 68.0754 253.84 Q65.9457 252.104 62.1263 252.104 L58.0986 252.104 L58.0986 248.261 L62.3115 248.261 Q65.7606 248.261 67.5893 246.895 Q69.418 245.506 69.418 242.914 Q69.418 240.252 67.5198 238.84 Q65.6448 237.405 62.1263 237.405 Q60.205 237.405 58.006 237.821 Q55.8069 238.238 53.168 239.118 L53.168 234.951 Q55.8301 234.21 58.1449 233.84 Q60.4828 233.469 62.543 233.469 Q67.867 233.469 70.9689 235.9 Q74.0707 238.307 74.0707 242.428 Q74.0707 245.298 72.4272 247.289 Q70.7837 249.256 67.7513 250.02 Z" fill="#000000" fill-rule="nonzero" fill-opacity="1" /><polyline clip-path="url(#clip111)" style="stroke:#009af9; stroke-linecap:round; stroke-linejoin:round; stroke-width:8; stroke-opacity:1; fill:none" points="110.881,1322.09 111.15,1319.36 111.401,1322.25 111.684,1321.82 112.001,1321.99 112.358,1322.45 112.76,1323.31 113.212,1319.08 113.721,1316.7 114.293,1317.2 114.937,1308.73 115.661,1306.68 116.476,1297.06 117.393,1292.31 118.424,1286.09 119.584,1301.19 120.889,1294.87 122.357,1297.24 124.009,1305.94 125.867,1308.33 127.958,1296.2 130.31,1283 132.956,1291.74 135.932,1300.93 139.281,1308.12 143.048,1295.25 147.286,1304.73 151.998,1300.95 157.299,1319.43 163.116,1333.74 169.66,1337.78 177.023,1330.69 185.305,1337.96 193.606,1356.42 202.945,1359.24 213.45,1356.91 225.269,1348.42 238.566,1339.52 253.524,1327.76 269.595,1334.87 284.241,1346.3 300.717,1353.42 319.252,1349.8 340.105,1341.44 363.564,1340.61 386.186,1342.76 407.442,1350.59 429.45,1371.67 454.208,1377.81 482.062,1372.72 513.397,1365.18 547.957,1344.64 586.836,1301.56 622.031,1293.33 645.867,1239.12 651.815,1285.36 658.506,1308.64 665.782,1283.71 673.968,1265.49 683.176,1291.93 690.892,1311 699.572,1309.9 709.338,1305.67 720.324,1267.56 732.683,1228.42 745.806,1059.98 754.703,1038.48 764.711,1102.54 772.141,1061.72 780.499,965.951 788.968,808.945 796.973,852.47 803.485,843.115 810.682,808.106 817.573,675.438 824.534,485.734 830.756,357.849 836.353,330.634 841.332,86.1857 845.513,232.771 849.31,307.579 853.072,289.011 856.742,286.497 860.191,273.98 863.577,435.47 866.805,275.028 869.73,202.34 872.552,840.18 875.728,879.223 879.071,869.552 882.728,790.706 886.518,737.131 890.249,740.065 893.884,758.242 897.563,749.491 901.261,789.995 904.893,767.801 908.649,790.211 912.295,722.961 916.051,865.042 917.555,863.545 919.246,1128.53 921.148,1075.68 923.289,1060.16 925.697,1079.84 928.406,1043.02 931.453,1059.44 934.635,1013.74 938.215,977.784 940.626,975.914 944.22,1212.48 948.264,1252.79 952.813,1200.64 957.93,1092.27 962.563,1121.91 967.774,1159.85 973.62,1167.99 980.198,1181.29 987.241,1149.61 995.165,1178.66 1002.33,1238.04 1010.39,1268.34 1019.02,1250.32 1028.74,1261.06 1037.13,1250.36 1046.57,1220.47 1057.18,1214.36 1066.47,1236.63 1076.08,1206.68 1086.88,1206.96 1096.82,1152.34 1108.01,1171.41 1117.38,1063.17 1127.92,947.757 1137.75,890.961 1146.27,853.169 1154.68,755.677 1162.95,449.188 1169.2,459.716 1174.77,374.864 1180.23,353.41 1185.12,347.554 1189.74,361.195 1194.08,349.344 1198.28,312.225 1202.24,622.263 1206.31,506.898 1210.53,282.19 1214.3,191.33 1217.76,114.152 1220.94,275.205 1223.97,355.34 1226.98,540.067 1229.99,582.071 1233.09,473.04 1236.25,470.097 1239.19,439.507 1242.11,483.608 1244.88,533.588 1247.68,593.361 1250.46,491.741 1253.27,522.498 1255.91,641.071 1258.56,727.26 1259.33,697.384 1262.12,994.11 1265.25,1032.5 1268.47,1010.7 1272.1,1038.48 1275.82,1038.16 1280.01,1079.24 1284.26,1070.8 1289.04,1060.75 1294.1,1066.84 1299.41,1079.16 1304.92,1073.25 1310.78,1019.91 1317.01,1001.71 1322.8,980.501 1328.74,958.389 1334.5,943.228 1340.12,879.003 1345.67,933.075 1350.66,944.212 1355.86,822.745 1361.02,914.194 1365.51,893.792 1370.33,977.25 1374.81,930.928 1378.28,1013.75 1383.17,1171.1 1388.68,1174.09 1394.13,1214.71 1400.01,1220.63 1406.61,1152.79 1414.05,1109.45 1421.19,1015.89 1428.27,1007.82 1434.54,1009.45 1440.79,929.324 1446.96,871.569 1452.48,929.277 1457.58,895.942 1462.81,884.801 1464.43,886.176 1466.26,1166.45 1468.32,1169.17 1469.75,1181.44 1472.07,1297.97 1474.67,1303.28 1477.61,1294.44 1480.9,1294.96 1484.61,1274.21 1488.79,1277.75 1493.45,1269.33 1498.69,1296.17 1501.58,1281.39 1504.84,1328.9 1508.5,1342.11 1512.62,1320.72 1517.26,1312.77 1522.47,1325.87 1528.04,1317.32 1534.31,1313.7 1541.36,1328.59 1549.02,1317.9 1557.63,1332.29 1566.22,1329.38 1575.89,1331.54 1586.76,1300.27 1598.99,1285.59 1611.36,1295.12 1622.72,1245.94 1635.49,1203.85 1647.2,1241.18 1656.88,1239.45 1667.77,1227.86 1679.22,1235.97 1689.75,1233.82 1700.88,1181.73 1712.71,1205.22 1722,1273.35 1732.45,1237.26 1744.21,1205.33 1754.9,1201.78 1764.88,1212.15 1774.52,1248.32 1778.99,1235.05 1788.09,1300.62 1798.32,1286.56 1809.39,1307.34 1818.91,1301.83 1829.63,1330.6 1840.23,1338.66 1852.16,1342.94 1865.57,1328.34 1880.67,1301.37 1897.19,1335.2 1909.11,1334.14 1922.53,1323.6 1937.62,1307.81 1954,1301.41 1969.25,1312.26 1983.04,1296.74 1998.56,1273.14 2014.13,1303.94 2026.49,1282.11 2040.39,1285.28 2052.12,1310.46 2064.42,1306.72 2078.26,1310.28 2092.04,1294.51 2107.54,1290.05 2121.52,1310.61 2134.4,1292.36 2148.88,1284.93 2154.61,1280.14 2161.06,1343.78 2168.31,1335.4 2176.47,1325.29 2185.65,1334.84 2195.33,1340.25 2206.22,1344 2218.47,1343.66 2221.8,1345.59 2235.59,1373.18 2251.09,1375.56 2268.53,1369.47 2288.16,1371.2 2307.6,1365.54 2329.48,1380.98 2352.76,1384.24 "/>
<path clip-path="url(#clip110)" d="M1964.74 196.789 L2278.03 196.789 L2278.03 93.1086 L1964.74 93.1086  Z" fill="#ffffff" fill-rule="evenodd" fill-opacity="1"/>
<polyline clip-path="url(#clip110)" style="stroke:#000000; stroke-linecap:round; stroke-linejoin:round; stroke-width:4; stroke-opacity:1; fill:none" points="1964.74,196.789 2278.03,196.789 2278.03,93.1086 1964.74,93.1086 1964.74,196.789 "/>
<polyline clip-path="url(#clip110)" style="stroke:#009af9; stroke-linecap:round; stroke-linejoin:round; stroke-width:8; stroke-opacity:1; fill:none" points="1989.65,144.949 2139.11,144.949 "/>
<path clip-path="url(#clip110)" d="M2164.02 151.997 L2164.02 136.303 L2168.28 136.303 L2168.28 151.835 Q2168.28 155.516 2169.71 157.368 Q2171.15 159.196 2174.02 159.196 Q2177.47 159.196 2179.46 156.997 Q2181.47 154.798 2181.47 151.002 L2181.47 136.303 L2185.73 136.303 L2185.73 162.229 L2181.47 162.229 L2181.47 158.247 Q2179.92 160.608 2177.86 161.766 Q2175.83 162.9 2173.12 162.9 Q2168.65 162.9 2166.34 160.122 Q2164.02 157.344 2164.02 151.997 M2174.74 135.678 L2174.74 135.678 Z" fill="#000000" fill-rule="nonzero" fill-opacity="1" /><path clip-path="url(#clip110)" d="M2194.11 126.21 L2203.93 126.21 L2203.93 129.52 L2198.37 129.52 L2198.37 165.168 L2203.93 165.168 L2203.93 168.479 L2194.11 168.479 L2194.11 126.21 Z" fill="#000000" fill-rule="nonzero" fill-opacity="1" /><path clip-path="url(#clip110)" d="M2214.41 158.293 L2222.05 158.293 L2222.05 131.928 L2213.74 133.595 L2213.74 129.335 L2222.01 127.669 L2226.68 127.669 L2226.68 158.293 L2234.32 158.293 L2234.32 162.229 L2214.41 162.229 L2214.41 158.293 Z" fill="#000000" fill-rule="nonzero" fill-opacity="1" /><path clip-path="url(#clip110)" d="M2253.12 126.21 L2253.12 168.479 L2243.3 168.479 L2243.3 165.168 L2248.83 165.168 L2248.83 129.52 L2243.3 129.52 L2243.3 126.21 L2253.12 126.21 Z" fill="#000000" fill-rule="nonzero" fill-opacity="1" /></svg>
