<?xml version="1.0" encoding="utf-8"?>
<svg xmlns="http://www.w3.org/2000/svg" xmlns:xlink="http://www.w3.org/1999/xlink" width="600" height="400" viewBox="0 0 2400 1600">
<defs>
  <clipPath id="clip300">
    <rect x="0" y="0" width="2400" height="1600"/>
  </clipPath>
</defs>
<path clip-path="url(#clip300)" d="M0 1600 L2400 1600 L2400 0 L0 0  Z" fill="#ffffff" fill-rule="evenodd" fill-opacity="1"/>
<defs>
  <clipPath id="clip301">
    <rect x="480" y="0" width="1681" height="1600"/>
  </clipPath>
</defs>
<path clip-path="url(#clip300)" d="M184.191 1423.18 L2352.76 1423.18 L2352.76 47.2441 L184.191 47.2441  Z" fill="#ffffff" fill-rule="evenodd" fill-opacity="1"/>
<defs>
  <clipPath id="clip302">
    <rect x="184" y="47" width="2170" height="1377"/>
  </clipPath>
</defs>
<polyline clip-path="url(#clip302)" style="stroke:#000000; stroke-linecap:round; stroke-linejoin:round; stroke-width:2; stroke-opacity:0.1; fill:none" points="184.191,1423.18 184.191,47.2441 "/>
<polyline clip-path="url(#clip302)" style="stroke:#000000; stroke-linecap:round; stroke-linejoin:round; stroke-width:2; stroke-opacity:0.1; fill:none" points="617.904,1423.18 617.904,47.2441 "/>
<polyline clip-path="url(#clip302)" style="stroke:#000000; stroke-linecap:round; stroke-linejoin:round; stroke-width:2; stroke-opacity:0.1; fill:none" points="1051.62,1423.18 1051.62,47.2441 "/>
<polyline clip-path="url(#clip302)" style="stroke:#000000; stroke-linecap:round; stroke-linejoin:round; stroke-width:2; stroke-opacity:0.1; fill:none" points="1485.33,1423.18 1485.33,47.2441 "/>
<polyline clip-path="url(#clip302)" style="stroke:#000000; stroke-linecap:round; stroke-linejoin:round; stroke-width:2; stroke-opacity:0.1; fill:none" points="1919.04,1423.18 1919.04,47.2441 "/>
<polyline clip-path="url(#clip302)" style="stroke:#000000; stroke-linecap:round; stroke-linejoin:round; stroke-width:2; stroke-opacity:0.1; fill:none" points="2352.76,1423.18 2352.76,47.2441 "/>
<polyline clip-path="url(#clip302)" style="stroke:#000000; stroke-linecap:round; stroke-linejoin:round; stroke-width:2; stroke-opacity:0.1; fill:none" points="184.191,1384.24 2352.76,1384.24 "/>
<polyline clip-path="url(#clip302)" style="stroke:#000000; stroke-linecap:round; stroke-linejoin:round; stroke-width:2; stroke-opacity:0.1; fill:none" points="184.191,1059.73 2352.76,1059.73 "/>
<polyline clip-path="url(#clip302)" style="stroke:#000000; stroke-linecap:round; stroke-linejoin:round; stroke-width:2; stroke-opacity:0.1; fill:none" points="184.191,735.212 2352.76,735.212 "/>
<polyline clip-path="url(#clip302)" style="stroke:#000000; stroke-linecap:round; stroke-linejoin:round; stroke-width:2; stroke-opacity:0.1; fill:none" points="184.191,410.699 2352.76,410.699 "/>
<polyline clip-path="url(#clip302)" style="stroke:#000000; stroke-linecap:round; stroke-linejoin:round; stroke-width:2; stroke-opacity:0.1; fill:none" points="184.191,86.1857 2352.76,86.1857 "/>
<polyline clip-path="url(#clip300)" style="stroke:#000000; stroke-linecap:round; stroke-linejoin:round; stroke-width:4; stroke-opacity:1; fill:none" points="184.191,1423.18 2352.76,1423.18 "/>
<polyline clip-path="url(#clip300)" style="stroke:#000000; stroke-linecap:round; stroke-linejoin:round; stroke-width:4; stroke-opacity:1; fill:none" points="184.191,1423.18 184.191,1404.28 "/>
<polyline clip-path="url(#clip300)" style="stroke:#000000; stroke-linecap:round; stroke-linejoin:round; stroke-width:4; stroke-opacity:1; fill:none" points="617.904,1423.18 617.904,1404.28 "/>
<polyline clip-path="url(#clip300)" style="stroke:#000000; stroke-linecap:round; stroke-linejoin:round; stroke-width:4; stroke-opacity:1; fill:none" points="1051.62,1423.18 1051.62,1404.28 "/>
<polyline clip-path="url(#clip300)" style="stroke:#000000; stroke-linecap:round; stroke-linejoin:round; stroke-width:4; stroke-opacity:1; fill:none" points="1485.33,1423.18 1485.33,1404.28 "/>
<polyline clip-path="url(#clip300)" style="stroke:#000000; stroke-linecap:round; stroke-linejoin:round; stroke-width:4; stroke-opacity:1; fill:none" points="1919.04,1423.18 1919.04,1404.28 "/>
<polyline clip-path="url(#clip300)" style="stroke:#000000; stroke-linecap:round; stroke-linejoin:round; stroke-width:4; stroke-opacity:1; fill:none" points="2352.76,1423.18 2352.76,1404.28 "/>
<path clip-path="url(#clip300)" d="M184.191 1454.1 Q180.58 1454.1 178.751 1457.66 Q176.945 1461.2 176.945 1468.33 Q176.945 1475.44 178.751 1479.01 Q180.58 1482.55 184.191 1482.55 Q187.825 1482.55 189.63 1479.01 Q191.459 1475.44 191.459 1468.33 Q191.459 1461.2 189.63 1457.66 Q187.825 1454.1 184.191 1454.1 M184.191 1450.39 Q190.001 1450.39 193.056 1455 Q196.135 1459.58 196.135 1468.33 Q196.135 1477.06 193.056 1481.67 Q190.001 1486.25 184.191 1486.25 Q178.381 1486.25 175.302 1481.67 Q172.246 1477.06 172.246 1468.33 Q172.246 1459.58 175.302 1455 Q178.381 1450.39 184.191 1450.39 Z" fill="#000000" fill-rule="nonzero" fill-opacity="1" /><path clip-path="url(#clip300)" d="M612.557 1481.64 L628.876 1481.64 L628.876 1485.58 L606.932 1485.58 L606.932 1481.64 Q609.594 1478.89 614.177 1474.26 Q618.783 1469.61 619.964 1468.27 Q622.209 1465.74 623.089 1464.01 Q623.992 1462.25 623.992 1460.56 Q623.992 1457.8 622.047 1456.07 Q620.126 1454.33 617.024 1454.33 Q614.825 1454.33 612.371 1455.09 Q609.941 1455.86 607.163 1457.41 L607.163 1452.69 Q609.987 1451.55 612.441 1450.97 Q614.894 1450.39 616.932 1450.39 Q622.302 1450.39 625.496 1453.08 Q628.691 1455.77 628.691 1460.26 Q628.691 1462.39 627.881 1464.31 Q627.093 1466.2 624.987 1468.8 Q624.408 1469.47 621.306 1472.69 Q618.205 1475.88 612.557 1481.64 Z" fill="#000000" fill-rule="nonzero" fill-opacity="1" /><path clip-path="url(#clip300)" d="M1054.63 1455.09 L1042.82 1473.54 L1054.63 1473.54 L1054.63 1455.09 M1053.4 1451.02 L1059.28 1451.02 L1059.28 1473.54 L1064.21 1473.54 L1064.21 1477.43 L1059.28 1477.43 L1059.28 1485.58 L1054.63 1485.58 L1054.63 1477.43 L1039.02 1477.43 L1039.02 1472.92 L1053.4 1451.02 Z" fill="#000000" fill-rule="nonzero" fill-opacity="1" /><path clip-path="url(#clip300)" d="M1485.73 1466.44 Q1482.59 1466.44 1480.73 1468.59 Q1478.91 1470.74 1478.91 1474.49 Q1478.91 1478.22 1480.73 1480.39 Q1482.59 1482.55 1485.73 1482.55 Q1488.88 1482.55 1490.71 1480.39 Q1492.56 1478.22 1492.56 1474.49 Q1492.56 1470.74 1490.71 1468.59 Q1488.88 1466.44 1485.73 1466.44 M1495.02 1451.78 L1495.02 1456.04 Q1493.26 1455.21 1491.45 1454.77 Q1489.67 1454.33 1487.91 1454.33 Q1483.28 1454.33 1480.83 1457.45 Q1478.4 1460.58 1478.05 1466.9 Q1479.42 1464.89 1481.48 1463.82 Q1483.54 1462.73 1486.01 1462.73 Q1491.22 1462.73 1494.23 1465.9 Q1497.26 1469.05 1497.26 1474.49 Q1497.26 1479.82 1494.11 1483.03 Q1490.97 1486.25 1485.73 1486.25 Q1479.74 1486.25 1476.57 1481.67 Q1473.4 1477.06 1473.4 1468.33 Q1473.4 1460.14 1477.29 1455.28 Q1481.17 1450.39 1487.73 1450.39 Q1489.48 1450.39 1491.27 1450.74 Q1493.07 1451.09 1495.02 1451.78 Z" fill="#000000" fill-rule="nonzero" fill-opacity="1" /><path clip-path="url(#clip300)" d="M1919.04 1469.17 Q1915.71 1469.17 1913.79 1470.95 Q1911.89 1472.73 1911.89 1475.86 Q1911.89 1478.98 1913.79 1480.77 Q1915.71 1482.55 1919.04 1482.55 Q1922.38 1482.55 1924.3 1480.77 Q1926.22 1478.96 1926.22 1475.86 Q1926.22 1472.73 1924.3 1470.95 Q1922.4 1469.17 1919.04 1469.17 M1914.37 1467.18 Q1911.36 1466.44 1909.67 1464.38 Q1908 1462.32 1908 1459.35 Q1908 1455.21 1910.94 1452.8 Q1913.9 1450.39 1919.04 1450.39 Q1924.2 1450.39 1927.14 1452.8 Q1930.08 1455.21 1930.08 1459.35 Q1930.08 1462.32 1928.39 1464.38 Q1926.73 1466.44 1923.74 1467.18 Q1927.12 1467.96 1929 1470.26 Q1930.89 1472.55 1930.89 1475.86 Q1930.89 1480.88 1927.82 1483.57 Q1924.76 1486.25 1919.04 1486.25 Q1913.33 1486.25 1910.25 1483.57 Q1907.19 1480.88 1907.19 1475.86 Q1907.19 1472.55 1909.09 1470.26 Q1910.99 1467.96 1914.37 1467.18 M1912.65 1459.79 Q1912.65 1462.48 1914.32 1463.98 Q1916.01 1465.49 1919.04 1465.49 Q1922.05 1465.49 1923.74 1463.98 Q1925.45 1462.48 1925.45 1459.79 Q1925.45 1457.11 1923.74 1455.6 Q1922.05 1454.1 1919.04 1454.1 Q1916.01 1454.1 1914.32 1455.6 Q1912.65 1457.11 1912.65 1459.79 Z" fill="#000000" fill-rule="nonzero" fill-opacity="1" /><path clip-path="url(#clip300)" d="M2327.44 1481.64 L2335.08 1481.64 L2335.08 1455.28 L2326.77 1456.95 L2326.77 1452.69 L2335.04 1451.02 L2339.71 1451.02 L2339.71 1481.64 L2347.35 1481.64 L2347.35 1485.58 L2327.44 1485.58 L2327.44 1481.64 Z" fill="#000000" fill-rule="nonzero" fill-opacity="1" /><path clip-path="url(#clip300)" d="M2366.8 1454.1 Q2363.18 1454.1 2361.36 1457.66 Q2359.55 1461.2 2359.55 1468.33 Q2359.55 1475.44 2361.36 1479.01 Q2363.18 1482.55 2366.8 1482.55 Q2370.43 1482.55 2372.23 1479.01 Q2374.06 1475.44 2374.06 1468.33 Q2374.06 1461.2 2372.23 1457.66 Q2370.43 1454.1 2366.8 1454.1 M2366.8 1450.39 Q2372.61 1450.39 2375.66 1455 Q2378.74 1459.58 2378.74 1468.33 Q2378.74 1477.06 2375.66 1481.67 Q2372.61 1486.25 2366.8 1486.25 Q2360.99 1486.25 2357.91 1481.67 Q2354.85 1477.06 2354.85 1468.33 Q2354.85 1459.58 2357.91 1455 Q2360.99 1450.39 2366.8 1450.39 Z" fill="#000000" fill-rule="nonzero" fill-opacity="1" /><path clip-path="url(#clip300)" d="M1267.53 1522.27 L1267.53 1532.4 L1279.6 1532.4 L1279.6 1536.95 L1267.53 1536.95 L1267.53 1556.3 Q1267.53 1560.66 1268.71 1561.9 Q1269.92 1563.14 1273.58 1563.14 L1279.6 1563.14 L1279.6 1568.04 L1273.58 1568.04 Q1266.8 1568.04 1264.22 1565.53 Q1261.65 1562.98 1261.65 1556.3 L1261.65 1536.95 L1257.35 1536.95 L1257.35 1532.4 L1261.65 1532.4 L1261.65 1522.27 L1267.53 1522.27 Z" fill="#000000" fill-rule="nonzero" fill-opacity="1" /><polyline clip-path="url(#clip300)" style="stroke:#000000; stroke-linecap:round; stroke-linejoin:round; stroke-width:4; stroke-opacity:1; fill:none" points="184.191,1423.18 184.191,47.2441 "/>
<polyline clip-path="url(#clip300)" style="stroke:#000000; stroke-linecap:round; stroke-linejoin:round; stroke-width:4; stroke-opacity:1; fill:none" points="184.191,1384.24 203.088,1384.24 "/>
<polyline clip-path="url(#clip300)" style="stroke:#000000; stroke-linecap:round; stroke-linejoin:round; stroke-width:4; stroke-opacity:1; fill:none" points="184.191,1059.73 203.088,1059.73 "/>
<polyline clip-path="url(#clip300)" style="stroke:#000000; stroke-linecap:round; stroke-linejoin:round; stroke-width:4; stroke-opacity:1; fill:none" points="184.191,735.212 203.088,735.212 "/>
<polyline clip-path="url(#clip300)" style="stroke:#000000; stroke-linecap:round; stroke-linejoin:round; stroke-width:4; stroke-opacity:1; fill:none" points="184.191,410.699 203.088,410.699 "/>
<polyline clip-path="url(#clip300)" style="stroke:#000000; stroke-linecap:round; stroke-linejoin:round; stroke-width:4; stroke-opacity:1; fill:none" points="184.191,86.1857 203.088,86.1857 "/>
<path clip-path="url(#clip300)" d="M91.0151 1370.04 Q87.404 1370.04 85.5753 1373.6 Q83.7697 1377.14 83.7697 1384.27 Q83.7697 1391.38 85.5753 1394.94 Q87.404 1398.49 91.0151 1398.49 Q94.6493 1398.49 96.4548 1394.94 Q98.2835 1391.38 98.2835 1384.27 Q98.2835 1377.14 96.4548 1373.6 Q94.6493 1370.04 91.0151 1370.04 M91.0151 1366.33 Q96.8252 1366.33 99.8808 1370.94 Q102.959 1375.52 102.959 1384.27 Q102.959 1393 99.8808 1397.61 Q96.8252 1402.19 91.0151 1402.19 Q85.2049 1402.19 82.1262 1397.61 Q79.0707 1393 79.0707 1384.27 Q79.0707 1375.52 82.1262 1370.94 Q85.2049 1366.33 91.0151 1366.33 Z" fill="#000000" fill-rule="nonzero" fill-opacity="1" /><path clip-path="url(#clip300)" d="M111.177 1395.64 L116.061 1395.64 L116.061 1401.52 L111.177 1401.52 L111.177 1395.64 Z" fill="#000000" fill-rule="nonzero" fill-opacity="1" /><path clip-path="url(#clip300)" d="M136.246 1370.04 Q132.635 1370.04 130.807 1373.6 Q129.001 1377.14 129.001 1384.27 Q129.001 1391.38 130.807 1394.94 Q132.635 1398.49 136.246 1398.49 Q139.881 1398.49 141.686 1394.94 Q143.515 1391.38 143.515 1384.27 Q143.515 1377.14 141.686 1373.6 Q139.881 1370.04 136.246 1370.04 M136.246 1366.33 Q142.056 1366.33 145.112 1370.94 Q148.191 1375.52 148.191 1384.27 Q148.191 1393 145.112 1397.61 Q142.056 1402.19 136.246 1402.19 Q130.436 1402.19 127.357 1397.61 Q124.302 1393 124.302 1384.27 Q124.302 1375.52 127.357 1370.94 Q130.436 1366.33 136.246 1366.33 Z" fill="#000000" fill-rule="nonzero" fill-opacity="1" /><path clip-path="url(#clip300)" d="M86.0382 1073.07 L102.358 1073.07 L102.358 1077.01 L80.4133 1077.01 L80.4133 1073.07 Q83.0753 1070.32 87.6586 1065.69 Q92.2651 1061.03 93.4456 1059.69 Q95.691 1057.17 96.5706 1055.43 Q97.4734 1053.67 97.4734 1051.98 Q97.4734 1049.23 95.5289 1047.49 Q93.6076 1045.76 90.5058 1045.76 Q88.3067 1045.76 85.8531 1046.52 Q83.4225 1047.28 80.6447 1048.83 L80.6447 1044.11 Q83.4688 1042.98 85.9225 1042.4 Q88.3762 1041.82 90.4132 1041.82 Q95.7836 1041.82 98.978 1044.51 Q102.172 1047.19 102.172 1051.68 Q102.172 1053.81 101.362 1055.73 Q100.575 1057.63 98.4687 1060.22 Q97.89 1060.89 94.7882 1064.11 Q91.6864 1067.31 86.0382 1073.07 Z" fill="#000000" fill-rule="nonzero" fill-opacity="1" /><path clip-path="url(#clip300)" d="M112.172 1071.13 L117.057 1071.13 L117.057 1077.01 L112.172 1077.01 L112.172 1071.13 Z" fill="#000000" fill-rule="nonzero" fill-opacity="1" /><path clip-path="url(#clip300)" d="M127.288 1042.45 L145.644 1042.45 L145.644 1046.38 L131.57 1046.38 L131.57 1054.85 Q132.589 1054.51 133.607 1054.34 Q134.626 1054.16 135.644 1054.16 Q141.431 1054.16 144.811 1057.33 Q148.191 1060.5 148.191 1065.92 Q148.191 1071.5 144.718 1074.6 Q141.246 1077.68 134.927 1077.68 Q132.751 1077.68 130.482 1077.31 Q128.237 1076.94 125.83 1076.19 L125.83 1071.5 Q127.913 1072.63 130.135 1073.19 Q132.357 1073.74 134.834 1073.74 Q138.839 1073.74 141.177 1071.63 Q143.515 1069.53 143.515 1065.92 Q143.515 1062.31 141.177 1060.2 Q138.839 1058.09 134.834 1058.09 Q132.959 1058.09 131.084 1058.51 Q129.232 1058.93 127.288 1059.81 L127.288 1042.45 Z" fill="#000000" fill-rule="nonzero" fill-opacity="1" /><path clip-path="url(#clip300)" d="M81.0614 717.932 L99.4178 717.932 L99.4178 721.867 L85.3438 721.867 L85.3438 730.339 Q86.3623 729.992 87.3808 729.83 Q88.3993 729.645 89.4178 729.645 Q95.2049 729.645 98.5845 732.816 Q101.964 735.987 101.964 741.404 Q101.964 746.983 98.4919 750.085 Q95.0197 753.163 88.7003 753.163 Q86.5243 753.163 84.2558 752.793 Q82.0105 752.423 79.6031 751.682 L79.6031 746.983 Q81.6864 748.117 83.9086 748.673 Q86.1308 749.228 88.6077 749.228 Q92.6123 749.228 94.9502 747.122 Q97.2882 745.015 97.2882 741.404 Q97.2882 737.793 94.9502 735.687 Q92.6123 733.58 88.6077 733.58 Q86.7327 733.58 84.8577 733.997 Q83.0058 734.413 81.0614 735.293 L81.0614 717.932 Z" fill="#000000" fill-rule="nonzero" fill-opacity="1" /><path clip-path="url(#clip300)" d="M111.177 746.612 L116.061 746.612 L116.061 752.492 L111.177 752.492 L111.177 746.612 Z" fill="#000000" fill-rule="nonzero" fill-opacity="1" /><path clip-path="url(#clip300)" d="M136.246 721.011 Q132.635 721.011 130.807 724.575 Q129.001 728.117 129.001 735.247 Q129.001 742.353 130.807 745.918 Q132.635 749.46 136.246 749.46 Q139.881 749.46 141.686 745.918 Q143.515 742.353 143.515 735.247 Q143.515 728.117 141.686 724.575 Q139.881 721.011 136.246 721.011 M136.246 717.307 Q142.056 717.307 145.112 721.913 Q148.191 726.497 148.191 735.247 Q148.191 743.973 145.112 748.58 Q142.056 753.163 136.246 753.163 Q130.436 753.163 127.357 748.58 Q124.302 743.973 124.302 735.247 Q124.302 726.497 127.357 721.913 Q130.436 717.307 136.246 717.307 Z" fill="#000000" fill-rule="nonzero" fill-opacity="1" /><path clip-path="url(#clip300)" d="M80.8299 393.419 L103.052 393.419 L103.052 395.41 L90.5058 427.979 L85.6216 427.979 L97.4271 397.354 L80.8299 397.354 L80.8299 393.419 Z" fill="#000000" fill-rule="nonzero" fill-opacity="1" /><path clip-path="url(#clip300)" d="M112.172 422.099 L117.057 422.099 L117.057 427.979 L112.172 427.979 L112.172 422.099 Z" fill="#000000" fill-rule="nonzero" fill-opacity="1" /><path clip-path="url(#clip300)" d="M127.288 393.419 L145.644 393.419 L145.644 397.354 L131.57 397.354 L131.57 405.826 Q132.589 405.479 133.607 405.317 Q134.626 405.132 135.644 405.132 Q141.431 405.132 144.811 408.303 Q148.191 411.474 148.191 416.891 Q148.191 422.47 144.718 425.571 Q141.246 428.65 134.927 428.65 Q132.751 428.65 130.482 428.28 Q128.237 427.909 125.83 427.169 L125.83 422.47 Q127.913 423.604 130.135 424.159 Q132.357 424.715 134.834 424.715 Q138.839 424.715 141.177 422.608 Q143.515 420.502 143.515 416.891 Q143.515 413.28 141.177 411.173 Q138.839 409.067 134.834 409.067 Q132.959 409.067 131.084 409.484 Q129.232 409.9 127.288 410.78 L127.288 393.419 Z" fill="#000000" fill-rule="nonzero" fill-opacity="1" /><path clip-path="url(#clip300)" d="M51.6634 99.5305 L59.3023 99.5305 L59.3023 73.1649 L50.9921 74.8316 L50.9921 70.5723 L59.256 68.9057 L63.9319 68.9057 L63.9319 99.5305 L71.5707 99.5305 L71.5707 103.466 L51.6634 103.466 L51.6634 99.5305 Z" fill="#000000" fill-rule="nonzero" fill-opacity="1" /><path clip-path="url(#clip300)" d="M91.0151 71.9844 Q87.404 71.9844 85.5753 75.5492 Q83.7697 79.0908 83.7697 86.2204 Q83.7697 93.3268 85.5753 96.8916 Q87.404 100.433 91.0151 100.433 Q94.6493 100.433 96.4548 96.8916 Q98.2835 93.3268 98.2835 86.2204 Q98.2835 79.0908 96.4548 75.5492 Q94.6493 71.9844 91.0151 71.9844 M91.0151 68.2807 Q96.8252 68.2807 99.8808 72.8871 Q102.959 77.4704 102.959 86.2204 Q102.959 94.9472 99.8808 99.5537 Q96.8252 104.137 91.0151 104.137 Q85.2049 104.137 82.1262 99.5537 Q79.0707 94.9472 79.0707 86.2204 Q79.0707 77.4704 82.1262 72.8871 Q85.2049 68.2807 91.0151 68.2807 Z" fill="#000000" fill-rule="nonzero" fill-opacity="1" /><path clip-path="url(#clip300)" d="M111.177 97.5861 L116.061 97.5861 L116.061 103.466 L111.177 103.466 L111.177 97.5861 Z" fill="#000000" fill-rule="nonzero" fill-opacity="1" /><path clip-path="url(#clip300)" d="M136.246 71.9844 Q132.635 71.9844 130.807 75.5492 Q129.001 79.0908 129.001 86.2204 Q129.001 93.3268 130.807 96.8916 Q132.635 100.433 136.246 100.433 Q139.881 100.433 141.686 96.8916 Q143.515 93.3268 143.515 86.2204 Q143.515 79.0908 141.686 75.5492 Q139.881 71.9844 136.246 71.9844 M136.246 68.2807 Q142.056 68.2807 145.112 72.8871 Q148.191 77.4704 148.191 86.2204 Q148.191 94.9472 145.112 99.5537 Q142.056 104.137 136.246 104.137 Q130.436 104.137 127.357 99.5537 Q124.302 94.9472 124.302 86.2204 Q124.302 77.4704 127.357 72.8871 Q130.436 68.2807 136.246 68.2807 Z" fill="#000000" fill-rule="nonzero" fill-opacity="1" /><polyline clip-path="url(#clip302)" style="stroke:#009af9; stroke-linecap:round; stroke-linejoin:round; stroke-width:8; stroke-opacity:1; fill:none" points="184.191,1384.24 185.999,1384.24 187.808,1384.24 189.617,1384.24 191.425,1384.24 193.234,1384.24 195.043,1384.24 196.851,1384.24 198.66,1384.24 200.468,1384.24 202.277,1384.24 204.086,1384.24 205.894,1384.24 207.703,1384.24 209.512,1384.24 211.32,1384.24 213.129,1384.24 214.938,1384.24 216.746,1384.24 218.555,1384.24 220.364,1384.24 222.172,1384.24 223.981,1384.24 225.79,1384.24 227.598,1384.24 229.407,1384.24 231.215,1384.24 233.024,1384.24 234.833,1384.24 236.641,1384.24 238.45,1384.24 240.259,1384.24 242.067,1384.24 243.876,1384.24 245.685,1384.24 247.493,1384.24 249.302,1254.43 251.111,1254.43 252.919,1254.43 254.728,1254.43 256.536,1254.43 258.345,1254.43 260.154,1254.43 261.962,1254.43 263.771,1254.43 265.58,1254.43 267.388,1254.43 269.197,1254.43 271.006,1254.43 272.814,1254.43 274.623,1254.43 276.432,1254.43 278.24,1254.43 280.049,1254.43 281.858,1254.43 283.666,1254.43 285.475,1254.43 287.283,1254.43 289.092,1254.43 290.901,1254.43 292.709,1254.43 294.518,1254.43 296.327,1254.43 298.135,1254.43 299.944,1254.43 301.753,1254.43 303.561,1254.43 305.37,1254.43 307.179,1254.43 308.987,1254.43 310.796,1254.43 312.604,1254.43 314.413,1254.43 316.222,1254.43 318.03,1254.43 319.839,1254.43 321.648,1254.43 323.456,1254.43 325.265,1254.43 327.074,1254.43 328.882,1254.43 330.691,1254.43 332.5,1254.43 334.308,1254.43 336.117,1254.43 337.925,1254.43 339.734,1254.43 341.543,1254.43 343.351,1254.43 345.16,1254.43 346.969,1254.43 348.777,1254.43 350.586,1254.43 352.395,1254.43 354.203,1254.43 356.012,1254.43 357.821,1254.43 359.629,1254.43 361.438,1254.43 363.247,1254.43 365.055,1254.43 366.864,1254.43 368.672,1254.43 370.481,1254.43 372.29,1254.43 374.098,1254.43 375.907,1254.43 377.716,1254.43 379.524,1254.43 381.333,1254.43 383.142,1254.43 384.95,1254.43 386.759,1254.43 388.568,1254.43 390.376,1254.43 392.185,1254.43 393.993,1254.43 395.802,1254.43 397.611,1254.43 399.419,1254.43 401.228,1254.43 403.037,1254.43 404.845,1254.43 406.654,1254.43 408.463,1254.43 410.271,1254.43 412.08,1254.43 413.889,1254.43 415.697,1254.43 417.506,1254.43 419.315,1254.43 421.123,1254.43 422.932,1254.43 424.74,1254.43 426.549,1254.43 428.358,1254.43 430.166,1254.43 431.975,1254.43 433.784,1254.43 435.592,1254.43 437.401,1254.43 439.21,1254.43 441.018,1254.43 442.827,1254.43 444.636,1254.43 446.444,1254.43 448.253,1254.43 450.061,1254.43 451.87,1254.43 453.679,1254.43 455.487,1254.43 457.296,1254.43 459.105,1254.43 460.913,1254.43 462.722,1254.43 464.531,1254.43 466.339,1254.43 468.148,1254.43 469.957,1254.43 471.765,1254.43 473.574,1254.43 475.383,1254.43 477.191,1254.43 479,1254.43 480.808,1254.43 482.617,1254.43 484.426,1254.43 486.234,1254.43 488.043,1254.43 489.852,1254.43 491.66,1254.43 493.469,1254.43 495.278,1254.43 497.086,1254.43 498.895,1254.43 500.704,1254.43 502.512,1254.43 504.321,1254.43 506.129,1254.43 507.938,1254.43 509.747,1254.43 511.555,1254.43 513.364,1254.43 515.173,1254.43 516.981,1254.43 518.79,1254.43 520.599,1254.43 522.407,1254.43 524.216,1254.43 526.025,1254.43 527.833,1254.43 529.642,1254.43 531.45,1254.43 533.259,1254.43 535.068,1124.63 536.876,1124.63 538.685,1124.63 540.494,1124.63 542.302,1124.63 544.111,1124.63 545.92,1124.63 547.728,1124.63 549.537,1124.63 551.346,1124.63 553.154,1124.63 554.963,1124.63 556.772,1124.63 558.58,1124.63 560.389,1124.63 562.197,1124.63 564.006,1124.63 565.815,1124.63 567.623,1124.63 569.432,1124.63 571.241,1124.63 573.049,1124.63 574.858,1124.63 576.667,1124.63 578.475,1124.63 580.284,1124.63 582.093,1124.63 583.901,1124.63 585.71,1124.63 587.518,1124.63 589.327,1124.63 591.136,1124.63 592.944,1124.63 594.753,1124.63 596.562,1124.63 598.37,1124.63 600.179,1124.63 601.988,1124.63 603.796,1124.63 605.605,1124.63 607.414,1124.63 609.222,1124.63 611.031,1124.63 612.84,1124.63 614.648,1124.63 616.457,1124.63 618.265,1124.63 620.074,1124.63 621.883,1124.63 623.691,1124.63 625.5,1124.63 627.309,1124.63 629.117,1124.63 630.926,1124.63 632.735,1124.63 634.543,1124.63 636.352,1124.63 638.161,1124.63 639.969,1124.63 641.778,1124.63 643.586,1124.63 645.395,1124.63 647.204,1124.63 649.012,1124.63 650.821,1124.63 652.63,1124.63 654.438,1124.63 656.247,1124.63 658.056,1124.63 659.864,1124.63 661.673,1124.63 663.482,1124.63 665.29,1124.63 667.099,1124.63 668.908,1124.63 670.716,1124.63 672.525,1124.63 674.333,1124.63 676.142,1124.63 677.951,1124.63 679.759,1124.63 681.568,1124.63 683.377,1124.63 685.185,1124.63 686.994,994.822 688.803,994.822 690.611,994.822 692.42,994.822 694.229,994.822 696.037,994.822 697.846,994.822 699.654,994.822 701.463,994.822 703.272,994.822 705.08,994.822 706.889,994.822 708.698,994.822 710.506,994.822 712.315,994.822 714.124,994.822 715.932,994.822 717.741,994.822 719.55,994.822 721.358,994.822 723.167,994.822 724.976,994.822 726.784,994.822 728.593,994.822 730.401,994.822 732.21,994.822 734.019,994.822 735.827,994.822 737.636,994.822 739.445,994.822 741.253,994.822 743.062,994.822 744.871,994.822 746.679,994.822 748.488,994.822 750.297,994.822 752.105,994.822 753.914,994.822 755.722,994.822 757.531,994.822 759.34,994.822 761.148,994.822 762.957,994.822 764.766,994.822 766.574,994.822 768.383,994.822 770.192,994.822 772,994.822 773.809,994.822 775.618,994.822 777.426,994.822 779.235,994.822 781.043,994.822 782.852,994.822 784.661,994.822 786.469,994.822 788.278,994.822 790.087,994.822 791.895,994.822 793.704,994.822 795.513,994.822 797.321,994.822 799.13,994.822 800.939,994.822 802.747,994.822 804.556,994.822 806.365,994.822 808.173,994.822 809.982,994.822 811.79,994.822 813.599,994.822 815.408,994.822 817.216,994.822 819.025,994.822 820.834,994.822 822.642,994.822 824.451,994.822 826.26,994.822 828.068,994.822 829.877,994.822 831.686,994.822 833.494,994.822 835.303,994.822 837.111,994.822 838.92,994.822 840.729,994.822 842.537,994.822 844.346,994.822 846.155,994.822 847.963,994.822 849.772,994.822 851.581,994.822 853.389,994.822 855.198,994.822 857.007,994.822 858.815,994.822 860.624,994.822 862.433,994.822 864.241,994.822 866.05,994.822 867.858,994.822 869.667,994.822 871.476,994.822 873.284,994.822 875.093,994.822 876.902,994.822 878.71,994.822 880.519,994.822 882.328,994.822 884.136,994.822 885.945,994.822 887.754,994.822 889.562,994.822 891.371,994.822 893.179,994.822 894.988,994.822 896.797,994.822 898.605,994.822 900.414,994.822 902.223,994.822 904.031,994.822 905.84,994.822 907.649,994.822 909.457,994.822 911.266,994.822 913.075,994.822 914.883,994.822 916.692,994.822 918.501,994.822 920.309,994.822 922.118,994.822 923.926,994.822 925.735,994.822 927.544,994.822 929.352,994.822 931.161,994.822 932.97,994.822 934.778,994.822 936.587,994.822 938.396,994.822 940.204,994.822 942.013,994.822 943.822,994.822 945.63,994.822 947.439,994.822 949.247,994.822 951.056,994.822 952.865,994.822 954.673,994.822 956.482,994.822 958.291,994.822 960.099,994.822 961.908,994.822 963.717,994.822 965.525,994.822 967.334,994.822 969.143,994.822 970.951,994.822 972.76,994.822 974.568,994.822 976.377,994.822 978.186,865.017 979.994,865.017 981.803,865.017 983.612,865.017 985.42,865.017 987.229,865.017 989.038,865.017 990.846,865.017 992.655,865.017 994.464,865.017 996.272,865.017 998.081,865.017 999.89,865.017 1001.7,865.017 1003.51,865.017 1005.32,865.017 1007.12,865.017 1008.93,865.017 1010.74,865.017 1012.55,865.017 1014.36,865.017 1016.17,865.017 1017.98,865.017 1019.78,865.017 1021.59,865.017 1023.4,865.017 1025.21,865.017 1027.02,865.017 1028.83,865.017 1030.64,865.017 1032.45,865.017 1034.25,865.017 1036.06,865.017 1037.87,865.017 1039.68,865.017 1041.49,865.017 1043.3,865.017 1045.11,865.017 1046.91,865.017 1048.72,865.017 1050.53,865.017 1052.34,865.017 1054.15,865.017 1055.96,865.017 1057.77,865.017 1059.57,865.017 1061.38,865.017 1063.19,865.017 1065,865.017 1066.81,865.017 1068.62,865.017 1070.43,865.017 1072.24,865.017 1074.04,865.017 1075.85,865.017 1077.66,865.017 1079.47,865.017 1081.28,865.017 1083.09,865.017 1084.9,865.017 1086.7,865.017 1088.51,865.017 1090.32,865.017 1092.13,865.017 1093.94,865.017 1095.75,865.017 1097.56,865.017 1099.36,865.017 1101.17,865.017 1102.98,865.017 1104.79,865.017 1106.6,865.017 1108.41,865.017 1110.22,865.017 1112.03,865.017 1113.83,865.017 1115.64,865.017 1117.45,865.017 1119.26,865.017 1121.07,865.017 1122.88,865.017 1124.69,865.017 1126.49,865.017 1128.3,865.017 1130.11,865.017 1131.92,865.017 1133.73,865.017 1135.54,865.017 1137.35,865.017 1139.16,865.017 1140.96,735.212 1142.77,735.212 1144.58,735.212 1146.39,735.212 1148.2,735.212 1150.01,735.212 1151.82,735.212 1153.62,735.212 1155.43,735.212 1157.24,735.212 1159.05,735.212 1160.86,735.212 1162.67,735.212 1164.48,735.212 1166.28,735.212 1168.09,735.212 1169.9,735.212 1171.71,735.212 1173.52,735.212 1175.33,735.212 1177.14,735.212 1178.95,735.212 1180.75,735.212 1182.56,735.212 1184.37,735.212 1186.18,735.212 1187.99,735.212 1189.8,735.212 1191.61,735.212 1193.41,735.212 1195.22,735.212 1197.03,735.212 1198.84,735.212 1200.65,735.212 1202.46,735.212 1204.27,605.407 1206.08,605.407 1207.88,605.407 1209.69,605.407 1211.5,605.407 1213.31,605.407 1215.12,605.407 1216.93,605.407 1218.74,605.407 1220.54,475.601 1222.35,475.601 1224.16,475.601 1225.97,475.601 1227.78,475.601 1229.59,475.601 1231.4,345.796 1233.2,345.796 1235.01,345.796 1236.82,345.796 1238.63,345.796 1240.44,345.796 1242.25,345.796 1244.06,345.796 1245.87,345.796 1247.67,345.796 1249.48,345.796 1251.29,345.796 1253.1,345.796 1254.91,345.796 1256.72,345.796 1258.53,345.796 1260.33,345.796 1262.14,345.796 1263.95,345.796 1265.76,345.796 1267.57,345.796 1269.38,345.796 1271.19,345.796 1272.99,345.796 1274.8,345.796 1276.61,345.796 1278.42,345.796 1280.23,345.796 1282.04,345.796 1283.85,345.796 1285.66,345.796 1287.46,345.796 1289.27,345.796 1291.08,345.796 1292.89,345.796 1294.7,345.796 1296.51,345.796 1298.32,345.796 1300.12,345.796 1301.93,345.796 1303.74,345.796 1305.55,345.796 1307.36,345.796 1309.17,345.796 1310.98,345.796 1312.79,345.796 1314.59,345.796 1316.4,345.796 1318.21,345.796 1320.02,345.796 1321.83,345.796 1323.64,345.796 1325.45,345.796 1327.25,345.796 1329.06,345.796 1330.87,345.796 1332.68,345.796 1334.49,345.796 1336.3,345.796 1338.11,345.796 1339.91,345.796 1341.72,345.796 1343.53,345.796 1345.34,345.796 1347.15,345.796 1348.96,345.796 1350.77,345.796 1352.58,345.796 1354.38,345.796 1356.19,345.796 1358,345.796 1359.81,345.796 1361.62,345.796 1363.43,345.796 1365.24,345.796 1367.04,345.796 1368.85,345.796 1370.66,345.796 1372.47,345.796 1374.28,345.796 1376.09,345.796 1377.9,345.796 1379.7,345.796 1381.51,345.796 1383.32,345.796 1385.13,345.796 1386.94,345.796 1388.75,345.796 1390.56,345.796 1392.37,345.796 1394.17,345.796 1395.98,345.796 1397.79,345.796 1399.6,345.796 1401.41,345.796 1403.22,215.991 1405.03,215.991 1406.83,215.991 1408.64,215.991 1410.45,215.991 1412.26,215.991 1414.07,215.991 1415.88,215.991 1417.69,215.991 1419.5,215.991 1421.3,215.991 1423.11,215.991 1424.92,215.991 1426.73,215.991 1428.54,215.991 1430.35,215.991 1432.16,215.991 1433.96,215.991 1435.77,215.991 1437.58,215.991 1439.39,215.991 1441.2,215.991 1443.01,215.991 1444.82,215.991 1446.62,215.991 1448.43,215.991 1450.24,215.991 1452.05,215.991 1453.86,215.991 1455.67,215.991 1457.48,215.991 1459.29,215.991 1461.09,215.991 1462.9,215.991 1464.71,215.991 1466.52,215.991 1468.33,215.991 1470.14,215.991 1471.95,215.991 1473.75,215.991 1475.56,215.991 1477.37,215.991 1479.18,215.991 1480.99,215.991 1482.8,215.991 1484.61,215.991 1486.42,215.991 1488.22,215.991 1490.03,215.991 1491.84,215.991 1493.65,215.991 1495.46,215.991 1497.27,215.991 1499.08,215.991 1500.88,215.991 1502.69,215.991 1504.5,215.991 1506.31,215.991 1508.12,215.991 1509.93,215.991 1511.74,215.991 1513.54,215.991 1515.35,215.991 1517.16,215.991 1518.97,215.991 1520.78,215.991 1522.59,215.991 1524.4,86.1857 1526.21,86.1857 1528.01,86.1857 1529.82,86.1857 1531.63,86.1857 1533.44,86.1857 1535.25,86.1857 1537.06,86.1857 1538.87,86.1857 1540.67,86.1857 1542.48,86.1857 1544.29,86.1857 1546.1,86.1857 1547.91,86.1857 1549.72,86.1857 1551.53,86.1857 1553.33,86.1857 1555.14,86.1857 1556.95,86.1857 1558.76,86.1857 1560.57,86.1857 1562.38,86.1857 1564.19,86.1857 1566,86.1857 1567.8,86.1857 1569.61,86.1857 1571.42,86.1857 1573.23,86.1857 1575.04,86.1857 1576.85,86.1857 1578.66,86.1857 1580.46,86.1857 1582.27,86.1857 1584.08,86.1857 1585.89,86.1857 1587.7,86.1857 1589.51,86.1857 1591.32,86.1857 1593.13,86.1857 1594.93,86.1857 1596.74,86.1857 1598.55,86.1857 1600.36,86.1857 1602.17,86.1857 1603.98,86.1857 1605.79,86.1857 1607.59,86.1857 1609.4,86.1857 1611.21,86.1857 1613.02,86.1857 1614.83,86.1857 1616.64,86.1857 1618.45,86.1857 1620.25,86.1857 1622.06,86.1857 1623.87,86.1857 1625.68,86.1857 1627.49,86.1857 1629.3,86.1857 1631.11,86.1857 1632.92,86.1857 1634.72,86.1857 1636.53,86.1857 1638.34,86.1857 1640.15,86.1857 1641.96,86.1857 1643.77,86.1857 1645.58,86.1857 1647.38,86.1857 1649.19,86.1857 1651,86.1857 1652.81,86.1857 1654.62,86.1857 1656.43,86.1857 1658.24,86.1857 1660.04,86.1857 1661.85,86.1857 1663.66,86.1857 1665.47,86.1857 1667.28,86.1857 1669.09,86.1857 1670.9,86.1857 1672.71,86.1857 1674.51,86.1857 1676.32,86.1857 1678.13,86.1857 1679.94,86.1857 1681.75,86.1857 1683.56,86.1857 1685.37,86.1857 1687.17,86.1857 1688.98,86.1857 1690.79,86.1857 1692.6,86.1857 1694.41,86.1857 1696.22,86.1857 1698.03,86.1857 1699.84,86.1857 1701.64,86.1857 1703.45,86.1857 1705.26,86.1857 1707.07,86.1857 1708.88,86.1857 1710.69,86.1857 1712.5,86.1857 1714.3,86.1857 1716.11,86.1857 1717.92,86.1857 1719.73,86.1857 1721.54,86.1857 1723.35,86.1857 1725.16,86.1857 1726.96,86.1857 1728.77,86.1857 1730.58,86.1857 1732.39,86.1857 1734.2,86.1857 1736.01,86.1857 1737.82,86.1857 1739.63,86.1857 1741.43,86.1857 1743.24,86.1857 1745.05,86.1857 1746.86,86.1857 1748.67,86.1857 1750.48,86.1857 1752.29,86.1857 1754.09,86.1857 1755.9,86.1857 1757.71,86.1857 1759.52,86.1857 1761.33,86.1857 1763.14,86.1857 1764.95,86.1857 1766.75,86.1857 1768.56,86.1857 1770.37,86.1857 1772.18,86.1857 1773.99,86.1857 1775.8,86.1857 1777.61,86.1857 1779.42,86.1857 1781.22,86.1857 1783.03,86.1857 1784.84,86.1857 1786.65,86.1857 1788.46,86.1857 1790.27,86.1857 1792.08,86.1857 1793.88,86.1857 1795.69,86.1857 1797.5,86.1857 1799.31,86.1857 1801.12,86.1857 1802.93,86.1857 1804.74,86.1857 1806.55,86.1857 1808.35,86.1857 1810.16,86.1857 1811.97,86.1857 1813.78,86.1857 1815.59,86.1857 1817.4,86.1857 1819.21,86.1857 1821.01,86.1857 1822.82,86.1857 1824.63,86.1857 1826.44,86.1857 1828.25,86.1857 1830.06,86.1857 1831.87,86.1857 1833.67,86.1857 1835.48,86.1857 1837.29,86.1857 1839.1,86.1857 1840.91,86.1857 1842.72,86.1857 1844.53,86.1857 1846.34,86.1857 1848.14,86.1857 1849.95,86.1857 1851.76,86.1857 1853.57,86.1857 1855.38,86.1857 1857.19,86.1857 1859,86.1857 1860.8,86.1857 1862.61,86.1857 1864.42,86.1857 1866.23,86.1857 1868.04,86.1857 1869.85,86.1857 1871.66,86.1857 1873.47,86.1857 1875.27,86.1857 1877.08,86.1857 1878.89,86.1857 1880.7,86.1857 1882.51,86.1857 1884.32,86.1857 1886.13,86.1857 1887.93,86.1857 1889.74,86.1857 1891.55,86.1857 1893.36,86.1857 1895.17,86.1857 1896.98,86.1857 1898.79,86.1857 1900.59,86.1857 1902.4,86.1857 1904.21,86.1857 1906.02,86.1857 1907.83,86.1857 1909.64,86.1857 1911.45,86.1857 1913.26,86.1857 1915.06,86.1857 1916.87,86.1857 1918.68,86.1857 1920.49,86.1857 1922.3,86.1857 1924.11,86.1857 1925.92,86.1857 1927.72,86.1857 1929.53,86.1857 1931.34,86.1857 1933.15,86.1857 1934.96,86.1857 1936.77,86.1857 1938.58,86.1857 1940.38,86.1857 1942.19,86.1857 1944,86.1857 1945.81,86.1857 1947.62,86.1857 1949.43,86.1857 1951.24,86.1857 1953.05,86.1857 1954.85,86.1857 1956.66,86.1857 1958.47,86.1857 1960.28,86.1857 1962.09,86.1857 1963.9,86.1857 1965.71,86.1857 1967.51,86.1857 1969.32,86.1857 1971.13,86.1857 1972.94,86.1857 1974.75,86.1857 1976.56,86.1857 1978.37,86.1857 1980.18,86.1857 1981.98,86.1857 1983.79,86.1857 1985.6,86.1857 1987.41,86.1857 1989.22,86.1857 1991.03,86.1857 1992.84,86.1857 1994.64,86.1857 1996.45,86.1857 1998.26,86.1857 2000.07,86.1857 2001.88,86.1857 2003.69,86.1857 2005.5,86.1857 2007.3,86.1857 2009.11,86.1857 2010.92,86.1857 2012.73,86.1857 2014.54,86.1857 2016.35,86.1857 2018.16,86.1857 2019.97,86.1857 2021.77,86.1857 2023.58,86.1857 2025.39,86.1857 2027.2,86.1857 2029.01,86.1857 2030.82,86.1857 2032.63,86.1857 2034.43,86.1857 2036.24,86.1857 2038.05,86.1857 2039.86,86.1857 2041.67,86.1857 2043.48,86.1857 2045.29,86.1857 2047.09,86.1857 2048.9,86.1857 2050.71,86.1857 2052.52,86.1857 2054.33,86.1857 2056.14,86.1857 2057.95,86.1857 2059.76,86.1857 2061.56,86.1857 2063.37,86.1857 2065.18,86.1857 2066.99,86.1857 2068.8,86.1857 2070.61,86.1857 2072.42,86.1857 2074.22,86.1857 2076.03,86.1857 2077.84,86.1857 2079.65,86.1857 2081.46,86.1857 2083.27,86.1857 2085.08,86.1857 2086.89,86.1857 2088.69,86.1857 2090.5,86.1857 2092.31,86.1857 2094.12,86.1857 2095.93,86.1857 2097.74,86.1857 2099.55,86.1857 2101.35,86.1857 2103.16,86.1857 2104.97,86.1857 2106.78,86.1857 2108.59,86.1857 2110.4,86.1857 2112.21,86.1857 2114.01,86.1857 2115.82,86.1857 2117.63,86.1857 2119.44,86.1857 2121.25,86.1857 2123.06,86.1857 2124.87,86.1857 2126.68,86.1857 2128.48,86.1857 2130.29,86.1857 2132.1,86.1857 2133.91,86.1857 2135.72,86.1857 2137.53,86.1857 2139.34,86.1857 2141.14,86.1857 2142.95,86.1857 2144.76,86.1857 2146.57,86.1857 2148.38,86.1857 2150.19,86.1857 2152,86.1857 2153.8,86.1857 2155.61,86.1857 2157.42,86.1857 2159.23,86.1857 2161.04,86.1857 2162.85,86.1857 2164.66,86.1857 2166.47,86.1857 2168.27,86.1857 2170.08,86.1857 2171.89,86.1857 2173.7,86.1857 2175.51,86.1857 2177.32,86.1857 2179.13,86.1857 2180.93,86.1857 2182.74,86.1857 2184.55,86.1857 2186.36,86.1857 2188.17,86.1857 2189.98,86.1857 2191.79,86.1857 2193.6,86.1857 2195.4,86.1857 2197.21,86.1857 2199.02,86.1857 2200.83,86.1857 2202.64,86.1857 2204.45,86.1857 2206.26,86.1857 2208.06,86.1857 2209.87,86.1857 2211.68,86.1857 2213.49,86.1857 2215.3,86.1857 2217.11,86.1857 2218.92,86.1857 2220.72,86.1857 2222.53,86.1857 2224.34,86.1857 2226.15,86.1857 2227.96,86.1857 2229.77,86.1857 2231.58,86.1857 2233.39,86.1857 2235.19,86.1857 2237,86.1857 2238.81,86.1857 2240.62,86.1857 2242.43,86.1857 2244.24,86.1857 2246.05,86.1857 2247.85,86.1857 2249.66,86.1857 2251.47,86.1857 2253.28,86.1857 2255.09,86.1857 2256.9,86.1857 2258.71,86.1857 2260.52,86.1857 2262.32,86.1857 2264.13,86.1857 2265.94,86.1857 2267.75,86.1857 2269.56,86.1857 2271.37,86.1857 2273.18,86.1857 2274.98,86.1857 2276.79,86.1857 2278.6,86.1857 2280.41,86.1857 2282.22,86.1857 2284.03,86.1857 2285.84,86.1857 2287.64,86.1857 2289.45,86.1857 2291.26,86.1857 2293.07,86.1857 2294.88,86.1857 2296.69,86.1857 2298.5,86.1857 2300.31,86.1857 2302.11,86.1857 2303.92,86.1857 2305.73,86.1857 2307.54,86.1857 2309.35,86.1857 2311.16,86.1857 2312.97,86.1857 2314.77,86.1857 2316.58,86.1857 2318.39,86.1857 2320.2,86.1857 2322.01,86.1857 2323.82,86.1857 2325.63,86.1857 2327.43,86.1857 2329.24,86.1857 2331.05,86.1857 2332.86,86.1857 2334.67,86.1857 2336.48,86.1857 2338.29,86.1857 2340.1,86.1857 2341.9,86.1857 2343.71,86.1857 2345.52,86.1857 2347.33,86.1857 2349.14,86.1857 2350.95,86.1857 2352.76,86.1857 "/>
<path clip-path="url(#clip300)" d="M256.476 196.789 L562.429 196.789 L562.429 93.1086 L256.476 93.1086  Z" fill="#ffffff" fill-rule="evenodd" fill-opacity="1"/>
<polyline clip-path="url(#clip300)" style="stroke:#000000; stroke-linecap:round; stroke-linejoin:round; stroke-width:4; stroke-opacity:1; fill:none" points="256.476,196.789 562.429,196.789 562.429,93.1086 256.476,93.1086 256.476,196.789 "/>
<polyline clip-path="url(#clip300)" style="stroke:#009af9; stroke-linecap:round; stroke-linejoin:round; stroke-width:8; stroke-opacity:1; fill:none" points="280.571,144.949 425.142,144.949 "/>
<path clip-path="url(#clip300)" d="M449.238 151.997 L449.238 136.303 L453.497 136.303 L453.497 151.835 Q453.497 155.516 454.932 157.368 Q456.367 159.196 459.237 159.196 Q462.687 159.196 464.677 156.997 Q466.691 154.798 466.691 151.002 L466.691 136.303 L470.95 136.303 L470.95 162.229 L466.691 162.229 L466.691 158.247 Q465.14 160.608 463.08 161.766 Q461.043 162.9 458.335 162.9 Q453.867 162.9 451.552 160.122 Q449.238 157.344 449.238 151.997 M459.955 135.678 L459.955 135.678 Z" fill="#000000" fill-rule="nonzero" fill-opacity="1" /><path clip-path="url(#clip300)" d="M479.33 126.21 L489.145 126.21 L489.145 129.52 L483.589 129.52 L483.589 165.168 L489.145 165.168 L489.145 168.479 L479.33 168.479 L479.33 126.21 Z" fill="#000000" fill-rule="nonzero" fill-opacity="1" /><path clip-path="url(#clip300)" d="M499.631 158.293 L507.27 158.293 L507.27 131.928 L498.959 133.595 L498.959 129.335 L507.223 127.669 L511.899 127.669 L511.899 158.293 L519.538 158.293 L519.538 162.229 L499.631 162.229 L499.631 158.293 Z" fill="#000000" fill-rule="nonzero" fill-opacity="1" /><path clip-path="url(#clip300)" d="M538.334 126.21 L538.334 168.479 L528.52 168.479 L528.52 165.168 L534.052 165.168 L534.052 129.52 L528.52 129.52 L528.52 126.21 L538.334 126.21 Z" fill="#000000" fill-rule="nonzero" fill-opacity="1" /></svg>
