<?xml version="1.0" encoding="utf-8"?>
<svg xmlns="http://www.w3.org/2000/svg" xmlns:xlink="http://www.w3.org/1999/xlink" width="600" height="400" viewBox="0 0 2400 1600">
<defs>
  <clipPath id="clip030">
    <rect x="0" y="0" width="2400" height="1600"/>
  </clipPath>
</defs>
<path clip-path="url(#clip030)" d="M0 1600 L2400 1600 L2400 0 L0 0  Z" fill="#ffffff" fill-rule="evenodd" fill-opacity="1"/>
<defs>
  <clipPath id="clip031">
    <rect x="156" y="47" width="2198" height="1377"/>
  </clipPath>
</defs>
<path clip-path="url(#clip030)" d="M156.112 1423.18 L2352.76 1423.18 L2352.76 47.2441 L156.112 47.2441  Z" fill="#ffffff" fill-rule="evenodd" fill-opacity="1"/>
<polyline clip-path="url(#clip031)" style="stroke:#000000; stroke-linecap:round; stroke-linejoin:round; stroke-width:2; stroke-opacity:0.1; fill:none" points="156.112,1423.18 156.112,47.2441 "/>
<polyline clip-path="url(#clip031)" style="stroke:#000000; stroke-linecap:round; stroke-linejoin:round; stroke-width:2; stroke-opacity:0.1; fill:none" points="595.441,1423.18 595.441,47.2441 "/>
<polyline clip-path="url(#clip031)" style="stroke:#000000; stroke-linecap:round; stroke-linejoin:round; stroke-width:2; stroke-opacity:0.1; fill:none" points="1034.77,1423.18 1034.77,47.2441 "/>
<polyline clip-path="url(#clip031)" style="stroke:#000000; stroke-linecap:round; stroke-linejoin:round; stroke-width:2; stroke-opacity:0.1; fill:none" points="1474.1,1423.18 1474.1,47.2441 "/>
<polyline clip-path="url(#clip031)" style="stroke:#000000; stroke-linecap:round; stroke-linejoin:round; stroke-width:2; stroke-opacity:0.1; fill:none" points="1913.43,1423.18 1913.43,47.2441 "/>
<polyline clip-path="url(#clip031)" style="stroke:#000000; stroke-linecap:round; stroke-linejoin:round; stroke-width:2; stroke-opacity:0.1; fill:none" points="2352.76,1423.18 2352.76,47.2441 "/>
<polyline clip-path="url(#clip031)" style="stroke:#000000; stroke-linecap:round; stroke-linejoin:round; stroke-width:2; stroke-opacity:0.1; fill:none" points="156.112,1404.28 2352.76,1404.28 "/>
<polyline clip-path="url(#clip031)" style="stroke:#000000; stroke-linecap:round; stroke-linejoin:round; stroke-width:2; stroke-opacity:0.1; fill:none" points="156.112,1038.27 2352.76,1038.27 "/>
<polyline clip-path="url(#clip031)" style="stroke:#000000; stroke-linecap:round; stroke-linejoin:round; stroke-width:2; stroke-opacity:0.1; fill:none" points="156.112,672.26 2352.76,672.26 "/>
<polyline clip-path="url(#clip031)" style="stroke:#000000; stroke-linecap:round; stroke-linejoin:round; stroke-width:2; stroke-opacity:0.1; fill:none" points="156.112,306.25 2352.76,306.25 "/>
<polyline clip-path="url(#clip030)" style="stroke:#000000; stroke-linecap:round; stroke-linejoin:round; stroke-width:4; stroke-opacity:1; fill:none" points="156.112,1423.18 2352.76,1423.18 "/>
<polyline clip-path="url(#clip030)" style="stroke:#000000; stroke-linecap:round; stroke-linejoin:round; stroke-width:4; stroke-opacity:1; fill:none" points="156.112,1423.18 156.112,1404.28 "/>
<polyline clip-path="url(#clip030)" style="stroke:#000000; stroke-linecap:round; stroke-linejoin:round; stroke-width:4; stroke-opacity:1; fill:none" points="595.441,1423.18 595.441,1404.28 "/>
<polyline clip-path="url(#clip030)" style="stroke:#000000; stroke-linecap:round; stroke-linejoin:round; stroke-width:4; stroke-opacity:1; fill:none" points="1034.77,1423.18 1034.77,1404.28 "/>
<polyline clip-path="url(#clip030)" style="stroke:#000000; stroke-linecap:round; stroke-linejoin:round; stroke-width:4; stroke-opacity:1; fill:none" points="1474.1,1423.18 1474.1,1404.28 "/>
<polyline clip-path="url(#clip030)" style="stroke:#000000; stroke-linecap:round; stroke-linejoin:round; stroke-width:4; stroke-opacity:1; fill:none" points="1913.43,1423.18 1913.43,1404.28 "/>
<polyline clip-path="url(#clip030)" style="stroke:#000000; stroke-linecap:round; stroke-linejoin:round; stroke-width:4; stroke-opacity:1; fill:none" points="2352.76,1423.18 2352.76,1404.28 "/>
<path clip-path="url(#clip030)" d="M156.112 1454.1 Q152.501 1454.1 150.672 1457.66 Q148.867 1461.2 148.867 1468.33 Q148.867 1475.44 150.672 1479.01 Q152.501 1482.55 156.112 1482.55 Q159.746 1482.55 161.552 1479.01 Q163.381 1475.44 163.381 1468.33 Q163.381 1461.2 161.552 1457.66 Q159.746 1454.1 156.112 1454.1 M156.112 1450.39 Q161.922 1450.39 164.978 1455 Q168.057 1459.58 168.057 1468.33 Q168.057 1477.06 164.978 1481.67 Q161.922 1486.25 156.112 1486.25 Q150.302 1486.25 147.223 1481.67 Q144.168 1477.06 144.168 1468.33 Q144.168 1459.58 147.223 1455 Q150.302 1450.39 156.112 1450.39 Z" fill="#000000" fill-rule="nonzero" fill-opacity="1" /><path clip-path="url(#clip030)" d="M590.094 1481.64 L606.413 1481.64 L606.413 1485.58 L584.469 1485.58 L584.469 1481.64 Q587.131 1478.89 591.714 1474.26 Q596.321 1469.61 597.501 1468.27 Q599.746 1465.74 600.626 1464.01 Q601.529 1462.25 601.529 1460.56 Q601.529 1457.8 599.584 1456.07 Q597.663 1454.33 594.561 1454.33 Q592.362 1454.33 589.909 1455.09 Q587.478 1455.86 584.7 1457.41 L584.7 1452.69 Q587.524 1451.55 589.978 1450.97 Q592.432 1450.39 594.469 1450.39 Q599.839 1450.39 603.033 1453.08 Q606.228 1455.77 606.228 1460.26 Q606.228 1462.39 605.418 1464.31 Q604.631 1466.2 602.524 1468.8 Q601.945 1469.47 598.844 1472.69 Q595.742 1475.88 590.094 1481.64 Z" fill="#000000" fill-rule="nonzero" fill-opacity="1" /><path clip-path="url(#clip030)" d="M1037.78 1455.09 L1025.97 1473.54 L1037.78 1473.54 L1037.78 1455.09 M1036.55 1451.02 L1042.43 1451.02 L1042.43 1473.54 L1047.36 1473.54 L1047.36 1477.43 L1042.43 1477.43 L1042.43 1485.58 L1037.78 1485.58 L1037.78 1477.43 L1022.18 1477.43 L1022.18 1472.92 L1036.55 1451.02 Z" fill="#000000" fill-rule="nonzero" fill-opacity="1" /><path clip-path="url(#clip030)" d="M1474.5 1466.44 Q1471.36 1466.44 1469.5 1468.59 Q1467.67 1470.74 1467.67 1474.49 Q1467.67 1478.22 1469.5 1480.39 Q1471.36 1482.55 1474.5 1482.55 Q1477.65 1482.55 1479.48 1480.39 Q1481.33 1478.22 1481.33 1474.49 Q1481.33 1470.74 1479.48 1468.59 Q1477.65 1466.44 1474.5 1466.44 M1483.79 1451.78 L1483.79 1456.04 Q1482.03 1455.21 1480.22 1454.77 Q1478.44 1454.33 1476.68 1454.33 Q1472.05 1454.33 1469.6 1457.45 Q1467.17 1460.58 1466.82 1466.9 Q1468.18 1464.89 1470.24 1463.82 Q1472.3 1462.73 1474.78 1462.73 Q1479.99 1462.73 1483 1465.9 Q1486.03 1469.05 1486.03 1474.49 Q1486.03 1479.82 1482.88 1483.03 Q1479.73 1486.25 1474.5 1486.25 Q1468.51 1486.25 1465.34 1481.67 Q1462.17 1477.06 1462.17 1468.33 Q1462.17 1460.14 1466.05 1455.28 Q1469.94 1450.39 1476.49 1450.39 Q1478.25 1450.39 1480.04 1450.74 Q1481.84 1451.09 1483.79 1451.78 Z" fill="#000000" fill-rule="nonzero" fill-opacity="1" /><path clip-path="url(#clip030)" d="M1913.43 1469.17 Q1910.09 1469.17 1908.17 1470.95 Q1906.27 1472.73 1906.27 1475.86 Q1906.27 1478.98 1908.17 1480.77 Q1910.09 1482.55 1913.43 1482.55 Q1916.76 1482.55 1918.68 1480.77 Q1920.6 1478.96 1920.6 1475.86 Q1920.6 1472.73 1918.68 1470.95 Q1916.78 1469.17 1913.43 1469.17 M1908.75 1467.18 Q1905.74 1466.44 1904.05 1464.38 Q1902.39 1462.32 1902.39 1459.35 Q1902.39 1455.21 1905.33 1452.8 Q1908.29 1450.39 1913.43 1450.39 Q1918.59 1450.39 1921.53 1452.8 Q1924.47 1455.21 1924.47 1459.35 Q1924.47 1462.32 1922.78 1464.38 Q1921.11 1466.44 1918.13 1467.18 Q1921.51 1467.96 1923.38 1470.26 Q1925.28 1472.55 1925.28 1475.86 Q1925.28 1480.88 1922.2 1483.57 Q1919.14 1486.25 1913.43 1486.25 Q1907.71 1486.25 1904.63 1483.57 Q1901.58 1480.88 1901.58 1475.86 Q1901.58 1472.55 1903.47 1470.26 Q1905.37 1467.96 1908.75 1467.18 M1907.04 1459.79 Q1907.04 1462.48 1908.7 1463.98 Q1910.39 1465.49 1913.43 1465.49 Q1916.44 1465.49 1918.13 1463.98 Q1919.84 1462.48 1919.84 1459.79 Q1919.84 1457.11 1918.13 1455.6 Q1916.44 1454.1 1913.43 1454.1 Q1910.39 1454.1 1908.7 1455.6 Q1907.04 1457.11 1907.04 1459.79 Z" fill="#000000" fill-rule="nonzero" fill-opacity="1" /><path clip-path="url(#clip030)" d="M2327.44 1481.64 L2335.08 1481.64 L2335.08 1455.28 L2326.77 1456.95 L2326.77 1452.69 L2335.04 1451.02 L2339.71 1451.02 L2339.71 1481.64 L2347.35 1481.64 L2347.35 1485.58 L2327.44 1485.58 L2327.44 1481.64 Z" fill="#000000" fill-rule="nonzero" fill-opacity="1" /><path clip-path="url(#clip030)" d="M2366.8 1454.1 Q2363.18 1454.1 2361.36 1457.66 Q2359.55 1461.2 2359.55 1468.33 Q2359.55 1475.44 2361.36 1479.01 Q2363.18 1482.55 2366.8 1482.55 Q2370.43 1482.55 2372.23 1479.01 Q2374.06 1475.44 2374.06 1468.33 Q2374.06 1461.2 2372.23 1457.66 Q2370.43 1454.1 2366.8 1454.1 M2366.8 1450.39 Q2372.61 1450.39 2375.66 1455 Q2378.74 1459.58 2378.74 1468.33 Q2378.74 1477.06 2375.66 1481.67 Q2372.61 1486.25 2366.8 1486.25 Q2360.99 1486.25 2357.91 1481.67 Q2354.85 1477.06 2354.85 1468.33 Q2354.85 1459.58 2357.91 1455 Q2360.99 1450.39 2366.8 1450.39 Z" fill="#000000" fill-rule="nonzero" fill-opacity="1" /><path clip-path="url(#clip030)" d="M1253.5 1522.27 L1253.5 1532.4 L1265.56 1532.4 L1265.56 1536.95 L1253.5 1536.95 L1253.5 1556.3 Q1253.5 1560.66 1254.67 1561.9 Q1255.88 1563.14 1259.54 1563.14 L1265.56 1563.14 L1265.56 1568.04 L1259.54 1568.04 Q1252.76 1568.04 1250.18 1565.53 Q1247.61 1562.98 1247.61 1556.3 L1247.61 1536.95 L1243.31 1536.95 L1243.31 1532.4 L1247.61 1532.4 L1247.61 1522.27 L1253.5 1522.27 Z" fill="#000000" fill-rule="nonzero" fill-opacity="1" /><polyline clip-path="url(#clip030)" style="stroke:#000000; stroke-linecap:round; stroke-linejoin:round; stroke-width:4; stroke-opacity:1; fill:none" points="156.112,1423.18 156.112,47.2441 "/>
<polyline clip-path="url(#clip030)" style="stroke:#000000; stroke-linecap:round; stroke-linejoin:round; stroke-width:4; stroke-opacity:1; fill:none" points="156.112,1404.28 175.01,1404.28 "/>
<polyline clip-path="url(#clip030)" style="stroke:#000000; stroke-linecap:round; stroke-linejoin:round; stroke-width:4; stroke-opacity:1; fill:none" points="156.112,1038.27 175.01,1038.27 "/>
<polyline clip-path="url(#clip030)" style="stroke:#000000; stroke-linecap:round; stroke-linejoin:round; stroke-width:4; stroke-opacity:1; fill:none" points="156.112,672.26 175.01,672.26 "/>
<polyline clip-path="url(#clip030)" style="stroke:#000000; stroke-linecap:round; stroke-linejoin:round; stroke-width:4; stroke-opacity:1; fill:none" points="156.112,306.25 175.01,306.25 "/>
<path clip-path="url(#clip030)" d="M62.9365 1390.08 Q59.3254 1390.08 57.4967 1393.64 Q55.6912 1397.19 55.6912 1404.32 Q55.6912 1411.42 57.4967 1414.99 Q59.3254 1418.53 62.9365 1418.53 Q66.5707 1418.53 68.3763 1414.99 Q70.205 1411.42 70.205 1404.32 Q70.205 1397.19 68.3763 1393.64 Q66.5707 1390.08 62.9365 1390.08 M62.9365 1386.38 Q68.7467 1386.38 71.8022 1390.98 Q74.8809 1395.57 74.8809 1404.32 Q74.8809 1413.04 71.8022 1417.65 Q68.7467 1422.23 62.9365 1422.23 Q57.1264 1422.23 54.0477 1417.65 Q50.9921 1413.04 50.9921 1404.32 Q50.9921 1395.57 54.0477 1390.98 Q57.1264 1386.38 62.9365 1386.38 Z" fill="#000000" fill-rule="nonzero" fill-opacity="1" /><path clip-path="url(#clip030)" d="M83.0984 1415.68 L87.9827 1415.68 L87.9827 1421.56 L83.0984 1421.56 L83.0984 1415.68 Z" fill="#000000" fill-rule="nonzero" fill-opacity="1" /><path clip-path="url(#clip030)" d="M108.168 1390.08 Q104.557 1390.08 102.728 1393.64 Q100.922 1397.19 100.922 1404.32 Q100.922 1411.42 102.728 1414.99 Q104.557 1418.53 108.168 1418.53 Q111.802 1418.53 113.608 1414.99 Q115.436 1411.42 115.436 1404.32 Q115.436 1397.19 113.608 1393.64 Q111.802 1390.08 108.168 1390.08 M108.168 1386.38 Q113.978 1386.38 117.033 1390.98 Q120.112 1395.57 120.112 1404.32 Q120.112 1413.04 117.033 1417.65 Q113.978 1422.23 108.168 1422.23 Q102.358 1422.23 99.2789 1417.65 Q96.2234 1413.04 96.2234 1404.32 Q96.2234 1395.57 99.2789 1390.98 Q102.358 1386.38 108.168 1386.38 Z" fill="#000000" fill-rule="nonzero" fill-opacity="1" /><path clip-path="url(#clip030)" d="M64.1634 1024.07 Q60.5523 1024.07 58.7236 1027.63 Q56.918 1031.18 56.918 1038.31 Q56.918 1045.41 58.7236 1048.98 Q60.5523 1052.52 64.1634 1052.52 Q67.7976 1052.52 69.6031 1048.98 Q71.4318 1045.41 71.4318 1038.31 Q71.4318 1031.18 69.6031 1027.63 Q67.7976 1024.07 64.1634 1024.07 M64.1634 1020.37 Q69.9735 1020.37 73.029 1024.97 Q76.1077 1029.56 76.1077 1038.31 Q76.1077 1047.03 73.029 1051.64 Q69.9735 1056.22 64.1634 1056.22 Q58.3532 1056.22 55.2745 1051.64 Q52.219 1047.03 52.219 1038.31 Q52.219 1029.56 55.2745 1024.97 Q58.3532 1020.37 64.1634 1020.37 Z" fill="#000000" fill-rule="nonzero" fill-opacity="1" /><path clip-path="url(#clip030)" d="M84.3253 1049.67 L89.2095 1049.67 L89.2095 1055.55 L84.3253 1055.55 L84.3253 1049.67 Z" fill="#000000" fill-rule="nonzero" fill-opacity="1" /><path clip-path="url(#clip030)" d="M100.205 1051.62 L107.844 1051.62 L107.844 1025.25 L99.5335 1026.92 L99.5335 1022.66 L107.797 1020.99 L112.473 1020.99 L112.473 1051.62 L120.112 1051.62 L120.112 1055.55 L100.205 1055.55 L100.205 1051.62 Z" fill="#000000" fill-rule="nonzero" fill-opacity="1" /><path clip-path="url(#clip030)" d="M64.5337 658.059 Q60.9226 658.059 59.0939 661.623 Q57.2884 665.165 57.2884 672.295 Q57.2884 679.401 59.0939 682.966 Q60.9226 686.508 64.5337 686.508 Q68.168 686.508 69.9735 682.966 Q71.8022 679.401 71.8022 672.295 Q71.8022 665.165 69.9735 661.623 Q68.168 658.059 64.5337 658.059 M64.5337 654.355 Q70.3439 654.355 73.3994 658.961 Q76.4781 663.545 76.4781 672.295 Q76.4781 681.021 73.3994 685.628 Q70.3439 690.211 64.5337 690.211 Q58.7236 690.211 55.6449 685.628 Q52.5893 681.021 52.5893 672.295 Q52.5893 663.545 55.6449 658.961 Q58.7236 654.355 64.5337 654.355 Z" fill="#000000" fill-rule="nonzero" fill-opacity="1" /><path clip-path="url(#clip030)" d="M84.6956 683.66 L89.5799 683.66 L89.5799 689.54 L84.6956 689.54 L84.6956 683.66 Z" fill="#000000" fill-rule="nonzero" fill-opacity="1" /><path clip-path="url(#clip030)" d="M103.793 685.605 L120.112 685.605 L120.112 689.54 L98.1678 689.54 L98.1678 685.605 Q100.83 682.85 105.413 678.221 Q110.02 673.568 111.2 672.225 Q113.445 669.702 114.325 667.966 Q115.228 666.207 115.228 664.517 Q115.228 661.762 113.283 660.026 Q111.362 658.29 108.26 658.29 Q106.061 658.29 103.608 659.054 Q101.177 659.818 98.3993 661.369 L98.3993 656.647 Q101.223 655.512 103.677 654.934 Q106.131 654.355 108.168 654.355 Q113.538 654.355 116.733 657.04 Q119.927 659.725 119.927 664.216 Q119.927 666.346 119.117 668.267 Q118.33 670.165 116.223 672.758 Q115.645 673.429 112.543 676.647 Q109.441 679.841 103.793 685.605 Z" fill="#000000" fill-rule="nonzero" fill-opacity="1" /><path clip-path="url(#clip030)" d="M63.5847 292.048 Q59.9736 292.048 58.1449 295.613 Q56.3393 299.155 56.3393 306.284 Q56.3393 313.391 58.1449 316.956 Q59.9736 320.497 63.5847 320.497 Q67.2189 320.497 69.0244 316.956 Q70.8531 313.391 70.8531 306.284 Q70.8531 299.155 69.0244 295.613 Q67.2189 292.048 63.5847 292.048 M63.5847 288.345 Q69.3948 288.345 72.4503 292.951 Q75.529 297.534 75.529 306.284 Q75.529 315.011 72.4503 319.618 Q69.3948 324.201 63.5847 324.201 Q57.7745 324.201 54.6958 319.618 Q51.6403 315.011 51.6403 306.284 Q51.6403 297.534 54.6958 292.951 Q57.7745 288.345 63.5847 288.345 Z" fill="#000000" fill-rule="nonzero" fill-opacity="1" /><path clip-path="url(#clip030)" d="M83.7466 317.65 L88.6308 317.65 L88.6308 323.53 L83.7466 323.53 L83.7466 317.65 Z" fill="#000000" fill-rule="nonzero" fill-opacity="1" /><path clip-path="url(#clip030)" d="M112.983 304.895 Q116.339 305.613 118.214 307.881 Q120.112 310.15 120.112 313.483 Q120.112 318.599 116.594 321.4 Q113.075 324.201 106.594 324.201 Q104.418 324.201 102.103 323.761 Q99.8113 323.344 97.3576 322.488 L97.3576 317.974 Q99.3021 319.108 101.617 319.687 Q103.932 320.266 106.455 320.266 Q110.853 320.266 113.145 318.53 Q115.459 316.793 115.459 313.483 Q115.459 310.428 113.307 308.715 Q111.177 306.979 107.358 306.979 L103.33 306.979 L103.33 303.136 L107.543 303.136 Q110.992 303.136 112.82 301.77 Q114.649 300.382 114.649 297.789 Q114.649 295.127 112.751 293.715 Q110.876 292.28 107.358 292.28 Q105.436 292.28 103.237 292.696 Q101.038 293.113 98.3993 293.993 L98.3993 289.826 Q101.061 289.085 103.376 288.715 Q105.714 288.345 107.774 288.345 Q113.098 288.345 116.2 290.775 Q119.302 293.182 119.302 297.303 Q119.302 300.173 117.658 302.164 Q116.015 304.132 112.983 304.895 Z" fill="#000000" fill-rule="nonzero" fill-opacity="1" /><polyline clip-path="url(#clip031)" style="stroke:#009af9; stroke-linecap:round; stroke-linejoin:round; stroke-width:8; stroke-opacity:1; fill:none" points="156.112,672.26 158.311,664.896 160.51,657.457 162.709,649.944 164.907,642.355 167.106,634.69 169.305,626.948 171.504,619.127 173.703,611.229 175.902,603.25 178.101,999.736 180.299,995.666 182.498,991.556 184.697,987.403 186.896,983.21 189.095,978.973 191.294,974.695 193.492,970.373 195.691,966.008 197.89,961.599 200.089,957.145 202.288,952.647 204.487,948.103 206.686,943.514 208.884,938.879 211.083,934.196 213.282,929.467 215.481,924.691 217.68,919.866 219.879,914.992 222.077,910.07 224.276,905.098 226.475,900.076 228.674,895.004 230.873,889.88 233.072,884.705 235.27,879.478 237.469,874.199 239.668,868.866 241.867,863.479 244.066,858.039 246.265,852.543 248.464,846.993 250.662,841.386 252.861,835.723 255.06,830.003 257.259,824.226 259.458,818.391 261.657,812.496 263.855,806.543 266.054,800.53 268.253,794.456 270.452,788.321 272.651,782.124 274.85,775.865 277.048,769.543 279.247,763.157 281.446,756.708 283.645,750.193 285.844,743.612 288.043,736.966 290.242,730.253 292.44,723.472 294.639,716.622 296.838,709.704 299.037,702.717 301.236,695.659 303.435,688.53 305.633,681.329 307.832,674.056 310.031,666.71 312.23,659.289 314.429,651.795 316.628,644.224 318.826,636.578 321.025,628.854 323.224,621.053 325.423,613.174 327.622,605.215 329.821,597.176 332.02,589.057 334.218,580.855 336.417,572.572 338.616,564.204 340.815,555.753 343.014,547.217 345.213,538.595 347.411,529.886 349.61,521.089 351.809,512.204 354.008,503.23 356.207,494.165 358.406,485.009 360.604,475.761 362.803,466.42 365.002,456.985 367.201,447.455 369.4,437.829 371.599,428.106 373.798,418.286 375.996,408.366 378.195,398.347 380.394,388.227 382.593,378.005 384.792,367.68 386.991,357.252 389.189,346.718 391.388,336.078 393.587,325.332 395.786,314.477 397.985,303.514 400.184,292.44 402.382,281.254 404.581,269.956 406.78,258.544 408.979,247.018 411.178,235.376 413.377,223.616 415.576,211.738 417.774,199.741 419.973,187.623 422.172,175.383 424.371,163.02 426.57,150.533 428.769,137.92 430.967,125.18 433.166,112.312 435.365,99.314 437.564,86.1857 439.763,738.603 441.962,731.906 444.161,725.142 446.359,718.309 448.558,711.408 450.757,704.438 452.956,697.397 455.155,690.286 457.354,1043.69 459.552,1040.06 461.751,1036.4 463.95,1032.7 466.149,1028.96 468.348,1025.19 470.547,1021.37 472.745,1017.52 474.944,1013.63 477.143,1009.7 479.342,1005.73 481.541,1203 483.74,1200.97 485.939,1198.93 488.137,1196.86 490.336,1194.78 492.535,1192.67 494.734,1190.54 496.933,1188.39 499.132,1186.22 501.33,1184.02 503.529,1181.81 505.728,1179.57 507.927,1177.31 510.126,1175.03 512.325,1172.72 514.523,1170.39 516.722,1168.04 518.921,1165.66 521.12,1163.26 523.319,1160.84 525.518,1158.39 527.717,1155.91 529.915,1153.41 532.114,1150.89 534.313,1276.31 536.512,1275.02 538.711,1273.72 540.91,1272.41 543.108,1271.08 545.307,1269.74 547.506,1268.39 549.705,1267.02 551.904,1265.64 554.103,1264.25 556.301,1262.84 558.5,1261.42 560.699,1259.98 562.898,1258.53 565.097,1257.06 567.296,1255.58 569.495,1254.08 571.693,1252.57 573.892,1251.05 576.091,1249.5 578.29,1247.95 580.489,1246.37 582.688,1244.79 584.886,1243.18 587.085,1241.56 589.284,1239.92 591.483,1238.27 593.682,1236.6 595.881,1234.91 598.079,1233.21 600.278,1231.49 602.477,1229.75 604.676,1227.99 606.875,1226.22 609.074,1224.43 611.273,1222.62 613.471,1220.79 615.67,1218.95 617.869,1217.08 620.068,1215.2 622.267,1213.3 624.466,1211.37 626.664,1209.43 628.863,1207.47 631.062,1205.49 633.261,1203.49 635.46,1201.47 637.659,1199.43 639.858,1197.37 642.056,1195.29 644.255,1193.19 646.454,1191.06 648.653,1188.92 650.852,1186.75 653.051,1184.57 655.249,1182.35 657.448,1180.12 659.647,1177.87 661.846,1175.59 664.045,1173.29 666.244,1170.96 668.442,1168.62 670.641,1166.25 672.84,1163.85 675.039,1161.43 677.238,1158.99 679.437,1156.52 681.636,1154.03 683.834,1151.51 686.033,1148.97 688.232,1146.4 690.431,1143.81 692.63,1141.19 694.829,1138.54 697.027,1135.87 699.226,1133.17 701.425,1130.44 703.624,1127.68 705.823,1124.9 708.022,1122.09 710.22,1119.25 712.419,1116.38 714.618,1113.49 716.817,1110.56 719.016,1107.61 721.215,1104.62 723.414,1101.61 725.612,1098.56 727.811,1095.49 730.01,1092.38 732.209,1089.24 734.408,1086.07 736.607,1082.87 738.805,1079.64 741.004,1076.37 743.203,1073.07 745.402,1069.74 747.601,1066.38 749.8,1062.98 751.998,1059.54 754.197,1056.08 756.396,1052.57 758.595,1049.03 760.794,1045.46 762.993,1041.85 765.192,1038.2 767.39,1034.52 769.589,1030.8 771.788,1027.04 773.987,1023.25 776.186,1019.42 778.385,1015.54 780.583,1011.63 782.782,1007.68 784.981,1003.69 787.18,999.662 789.379,995.592 791.578,991.48 793.776,987.327 795.975,983.132 798.174,978.896 800.373,974.616 802.572,970.293 804.771,965.927 806.97,961.517 809.168,957.063 811.367,952.564 813.566,948.02 815.765,943.43 817.964,938.793 820.163,934.11 822.361,1166.83 824.56,1164.44 826.759,1162.03 828.958,1159.59 831.157,1157.13 833.356,1154.64 835.554,1152.13 837.753,1149.6 839.952,1147.03 842.151,1144.45 844.35,1141.83 846.549,1139.19 848.748,1136.52 850.946,1133.83 853.145,1131.11 855.344,1128.36 857.543,1125.59 859.742,1122.78 861.941,1119.95 864.139,1260.69 866.338,1259.24 868.537,1257.78 870.736,1256.31 872.935,1254.82 875.134,1253.32 877.333,1251.8 879.531,1250.26 881.73,1248.71 883.929,1247.15 886.128,1245.57 888.327,1243.97 890.526,1242.36 892.724,1240.73 894.923,1239.08 897.122,1237.42 899.321,1235.74 901.52,1234.05 903.719,1232.33 905.917,1230.6 908.116,1228.86 910.315,1227.09 912.514,1225.31 914.713,1223.51 916.912,1221.69 919.111,1219.85 921.309,1218 923.508,1216.12 925.707,1214.23 927.906,1212.32 930.105,1210.39 932.304,1208.44 934.502,1206.47 936.701,1204.48 938.9,1202.47 941.099,1200.44 943.298,1198.39 945.497,1196.32 947.695,1194.22 949.894,1192.11 952.093,1189.98 954.292,1187.82 956.491,1185.64 958.69,1183.44 960.889,1181.22 963.087,1178.98 965.286,1176.71 967.485,1174.42 969.684,1172.11 971.883,1169.77 974.082,1167.41 976.28,1165.03 978.479,1162.62 980.678,1160.19 982.877,1157.74 985.076,1155.26 987.275,1152.75 989.473,1150.22 991.672,1147.66 993.871,1145.08 996.07,1142.48 998.269,1139.84 1000.47,1137.18 1002.67,1134.49 1004.87,1131.78 1007.06,1129.04 1009.26,1126.27 1011.46,1123.47 1013.66,1262.46 1015.86,1261.04 1018.06,1259.6 1020.26,1258.14 1022.46,1256.67 1024.65,1255.19 1026.85,1253.69 1029.05,1252.17 1031.25,1250.64 1033.45,1249.09 1035.65,1247.53 1037.85,1245.96 1040.05,1244.36 1042.25,1242.75 1044.44,1241.13 1046.64,1239.49 1048.84,1237.83 1051.04,1236.16 1053.24,1234.46 1055.44,1232.76 1057.64,1231.03 1059.84,1229.29 1062.04,1227.53 1064.23,1225.75 1066.43,1223.95 1068.63,1222.14 1070.83,1220.31 1073.03,1218.46 1075.23,1216.59 1077.43,1214.7 1079.63,1212.79 1081.82,1210.86 1084.02,1208.92 1086.22,1206.95 1088.42,1204.97 1090.62,1202.96 1092.82,1200.94 1095.02,1198.89 1097.22,1196.83 1099.42,1194.74 1101.61,1192.63 1103.81,1190.5 1106.01,1188.35 1108.21,1186.18 1110.41,1183.98 1112.61,1181.77 1114.81,1179.53 1117.01,1177.27 1119.21,1174.98 1121.4,1172.68 1123.6,1170.35 1125.8,1167.99 1128,1165.62 1130.2,1163.22 1132.4,1160.79 1134.6,1158.34 1136.8,1155.87 1138.99,1153.37 1141.19,1150.84 1143.39,1148.29 1145.59,1145.72 1147.79,1143.12 1149.99,1140.49 1152.19,1137.84 1154.39,1135.16 1156.59,1132.45 1158.78,1129.71 1160.98,1126.95 1163.18,1124.16 1165.38,1121.34 1167.58,1118.5 1169.78,1115.62 1171.98,1112.72 1174.18,1109.78 1176.38,1106.82 1178.57,1103.83 1180.77,1100.81 1182.97,1097.75 1185.17,1094.67 1187.37,1091.56 1189.57,1088.41 1191.77,1085.23 1193.97,1082.02 1196.16,1078.78 1198.36,1075.51 1200.56,1072.2 1202.76,1068.86 1204.96,1065.48 1207.16,1062.07 1209.36,1058.63 1211.56,1055.15 1213.76,1051.64 1215.95,1048.09 1218.15,1044.51 1220.35,1040.89 1222.55,1037.24 1224.75,1033.54 1226.95,1029.81 1229.15,1026.05 1231.35,1022.24 1233.55,1018.4 1235.74,1014.52 1237.94,1010.59 1240.14,1006.63 1242.34,1002.63 1244.54,998.593 1246.74,994.511 1248.94,990.389 1251.14,986.225 1253.33,982.019 1255.53,977.771 1257.73,973.48 1259.93,969.146 1262.13,1184.52 1264.33,1182.31 1266.53,1180.08 1268.73,1177.83 1270.93,1175.55 1273.12,1173.25 1275.32,1170.92 1277.52,1168.57 1279.72,1166.2 1281.92,1163.81 1284.12,1161.39 1286.32,1158.94 1288.52,1156.48 1290.71,1153.98 1292.91,1151.47 1295.11,1148.92 1297.31,1146.35 1299.51,1143.76 1301.71,1272.71 1303.91,1271.39 1306.11,1270.05 1308.31,1268.7 1310.5,1267.33 1312.7,1335.12 1314.9,1334.42 1317.1,1333.72 1319.3,1333.01 1321.5,1332.29 1323.7,1331.57 1325.9,1330.84 1328.1,1330.1 1330.29,1329.35 1332.49,1328.6 1334.69,1327.84 1336.89,1365.67 1339.09,1365.29 1341.29,1364.89 1343.49,1364.5 1345.69,1364.1 1347.88,1363.69 1350.08,1363.28 1352.28,1362.87 1354.48,1362.46 1356.68,1362.03 1358.88,1361.61 1361.08,1361.18 1363.28,1360.75 1365.48,1360.31 1367.67,1359.87 1369.87,1359.42 1372.07,1358.97 1374.27,1358.51 1376.47,1358.05 1378.67,1357.59 1380.87,1357.12 1383.07,1356.64 1385.27,1356.16 1387.46,1355.68 1389.66,1379.74 1391.86,1379.49 1394.06,1379.24 1396.26,1378.99 1398.46,1378.73 1400.66,1378.48 1402.86,1378.22 1405.05,1377.95 1407.25,1377.69 1409.45,1377.42 1411.65,1377.15 1413.85,1376.88 1416.05,1376.6 1418.25,1376.32 1420.45,1376.04 1422.65,1375.76 1424.84,1375.47 1427.04,1375.18 1429.24,1374.89 1431.44,1374.59 1433.64,1374.3 1435.84,1373.99 1438.04,1373.69 1440.24,1373.38 1442.44,1373.07 1444.63,1372.76 1446.83,1372.44 1449.03,1372.12 1451.23,1371.8 1453.43,1371.47 1455.63,1371.14 1457.83,1370.81 1460.03,1370.47 1462.22,1370.13 1464.42,1369.78 1466.62,1369.44 1468.82,1369.09 1471.02,1368.73 1473.22,1368.38 1475.42,1368.01 1477.62,1367.65 1479.82,1367.28 1482.01,1366.91 1484.21,1366.53 1486.41,1366.15 1488.61,1365.77 1490.81,1365.38 1493.01,1364.99 1495.21,1364.6 1497.41,1384.24 1499.6,1384.04 1501.8,1383.83 1504,1383.63 1506.2,1383.42 1508.4,1383.21 1510.6,1383 1512.8,1382.78 1515,1382.57 1517.2,1382.35 1519.39,1382.13 1521.59,1381.91 1523.79,1381.68 1525.99,1381.45 1528.19,1381.22 1530.39,1380.99 1532.59,1380.76 1534.79,1380.52 1536.99,1380.28 1539.18,1380.04 1541.38,1379.8 1543.58,1379.55 1545.78,1379.3 1547.98,1379.05 1550.18,1378.8 1552.38,1378.54 1554.58,1378.28 1556.77,1378.02 1558.97,1377.75 1561.17,1377.49 1563.37,1377.22 1565.57,1376.95 1567.77,1376.67 1569.97,1376.39 1572.17,1376.11 1574.37,1375.83 1576.56,1375.54 1578.76,1375.25 1580.96,1374.96 1583.16,1374.67 1585.36,1374.37 1587.56,1374.07 1589.76,1373.76 1591.96,1373.46 1594.16,1373.15 1596.35,1372.83 1598.55,1372.52 1600.75,1372.2 1602.95,1371.88 1605.15,1371.55 1607.35,1371.22 1609.55,1370.89 1611.75,1370.55 1613.94,1370.21 1616.14,1369.87 1618.34,1369.52 1620.54,1369.17 1622.74,1368.82 1624.94,1368.46 1627.14,1368.1 1629.34,1367.74 1631.54,1367.37 1633.73,1367 1635.93,1366.63 1638.13,1366.25 1640.33,1365.86 1642.53,1365.48 1644.73,1365.09 1646.93,1364.69 1649.13,1364.29 1651.33,1363.89 1653.52,1363.49 1655.72,1363.08 1657.92,1362.66 1660.12,1362.24 1662.32,1361.82 1664.52,1361.39 1666.72,1360.96 1668.92,1360.52 1671.11,1360.08 1673.31,1359.64 1675.51,1359.19 1677.71,1358.74 1679.91,1358.28 1682.11,1357.82 1684.31,1357.35 1686.51,1356.88 1688.71,1356.4 1690.9,1355.92 1693.1,1355.43 1695.3,1354.94 1697.5,1354.44 1699.7,1353.94 1701.9,1353.44 1704.1,1352.92 1706.3,1352.41 1708.5,1351.89 1710.69,1351.36 1712.89,1350.83 1715.09,1350.29 1717.29,1349.75 1719.49,1349.2 1721.69,1348.64 1723.89,1348.08 1726.09,1347.52 1728.28,1346.95 1730.48,1346.37 1732.68,1345.79 1734.88,1345.2 1737.08,1344.6 1739.28,1344 1741.48,1343.4 1743.68,1342.78 1745.88,1342.17 1748.07,1341.54 1750.27,1340.91 1752.47,1340.27 1754.67,1339.63 1756.87,1338.98 1759.07,1338.32 1761.27,1337.66 1763.47,1336.99 1765.66,1370.3 1767.86,1369.95 1770.06,1369.61 1772.26,1369.26 1774.46,1368.91 1776.66,1368.55 1778.86,1368.19 1781.06,1367.83 1783.26,1367.46 1785.45,1367.09 1787.65,1366.72 1789.85,1366.34 1792.05,1365.96 1794.25,1365.57 1796.45,1365.18 1798.65,1364.79 1800.85,1364.39 1803.05,1363.99 1805.24,1363.59 1807.44,1363.18 1809.64,1362.76 1811.84,1362.35 1814.04,1361.92 1816.24,1361.5 1818.44,1361.07 1820.64,1360.63 1822.83,1360.19 1825.03,1359.75 1827.23,1359.3 1829.43,1358.85 1831.63,1358.39 1833.83,1357.93 1836.03,1357.46 1838.23,1356.99 1840.43,1356.52 1842.62,1356.04 1844.82,1355.55 1847.02,1355.06 1849.22,1354.57 1851.42,1354.07 1853.62,1353.56 1855.82,1353.05 1858.02,1352.53 1860.22,1352.01 1862.41,1351.49 1864.61,1350.96 1866.81,1350.42 1869.01,1349.88 1871.21,1349.33 1873.41,1348.78 1875.61,1348.22 1877.81,1347.66 1880,1347.09 1882.2,1346.51 1884.4,1345.93 1886.6,1345.34 1888.8,1344.75 1891,1344.15 1893.2,1343.55 1895.4,1342.94 1897.6,1342.32 1899.79,1341.69 1901.99,1341.07 1904.19,1340.43 1906.39,1339.79 1908.59,1339.14 1910.79,1338.48 1912.99,1337.82 1915.19,1337.15 1917.39,1336.48 1919.58,1335.79 1921.78,1335.11 1923.98,1334.41 1926.18,1333.71 1928.38,1333 1930.58,1332.28 1932.78,1331.56 1934.98,1330.82 1937.17,1330.08 1939.37,1329.34 1941.57,1328.58 1943.77,1327.82 1945.97,1327.05 1948.17,1326.28 1950.37,1325.49 1952.57,1324.7 1954.77,1323.9 1956.96,1323.09 1959.16,1322.27 1961.36,1321.45 1963.56,1320.62 1965.76,1319.77 1967.96,1318.92 1970.16,1318.06 1972.36,1317.2 1974.55,1316.32 1976.75,1315.44 1978.95,1314.54 1981.15,1313.64 1983.35,1358.5 1985.55,1358.04 1987.75,1357.58 1989.95,1357.11 1992.15,1380.46 1994.34,1380.22 1996.54,1379.98 1998.74,1379.73 2000.94,1379.48 2003.14,1379.23 2005.34,1378.98 2007.54,1378.73 2009.74,1378.47 2011.94,1378.21 2014.13,1377.95 2016.33,1377.68 2018.53,1377.42 2020.73,1377.15 2022.93,1376.87 2025.13,1376.6 2027.33,1376.32 2029.53,1376.04 2031.72,1375.75 2033.92,1375.47 2036.12,1375.18 2038.32,1374.88 2040.52,1374.59 2042.72,1374.29 2044.92,1373.99 2047.12,1373.68 2049.32,1373.38 2051.51,1373.06 2053.71,1372.75 2055.91,1372.43 2058.11,1372.11 2060.31,1371.79 2062.51,1371.46 2064.71,1371.13 2066.91,1370.8 2069.11,1370.46 2071.3,1370.12 2073.5,1369.78 2075.7,1369.43 2077.9,1369.08 2080.1,1368.73 2082.3,1368.37 2084.5,1368.01 2086.7,1367.64 2088.89,1367.27 2091.09,1366.9 2093.29,1366.53 2095.49,1366.15 2097.69,1365.76 2099.89,1365.37 2102.09,1364.98 2104.29,1364.59 2106.49,1364.19 2108.68,1363.79 2110.88,1363.38 2113.08,1362.97 2115.28,1362.55 2117.48,1362.13 2119.68,1361.71 2121.88,1361.28 2124.08,1360.85 2126.28,1360.41 2128.47,1359.97 2130.67,1359.52 2132.87,1359.07 2135.07,1358.62 2137.27,1358.16 2139.47,1357.69 2141.67,1357.22 2143.87,1356.75 2146.06,1356.27 2148.26,1355.79 2150.46,1355.3 2152.66,1354.81 2154.86,1354.31 2157.06,1353.81 2159.26,1378.79 2161.46,1378.53 2163.66,1378.28 2165.85,1378.01 2168.05,1377.75 2170.25,1377.48 2172.45,1377.21 2174.65,1376.94 2176.85,1376.67 2179.05,1376.39 2181.25,1376.11 2183.45,1375.82 2185.64,1375.54 2187.84,1375.25 2190.04,1374.96 2192.24,1374.66 2194.44,1374.36 2196.64,1374.06 2198.84,1373.76 2201.04,1373.45 2203.23,1373.14 2205.43,1372.83 2207.63,1372.51 2209.83,1372.19 2212.03,1371.87 2214.23,1371.54 2216.43,1371.21 2218.63,1370.88 2220.83,1370.55 2223.02,1370.21 2225.22,1369.86 2227.42,1369.52 2229.62,1369.17 2231.82,1368.81 2234.02,1368.46 2236.22,1368.1 2238.42,1367.73 2240.61,1367.36 2242.81,1366.99 2245.01,1366.62 2247.21,1366.24 2249.41,1365.86 2251.61,1365.47 2253.81,1365.08 2256.01,1364.69 2258.21,1364.29 2260.4,1363.88 2262.6,1363.48 2264.8,1363.07 2267,1362.65 2269.2,1362.23 2271.4,1361.81 2273.6,1361.38 2275.8,1360.95 2278,1360.52 2280.19,1360.08 2282.39,1359.63 2284.59,1359.18 2286.79,1358.73 2288.99,1358.27 2291.19,1357.81 2293.39,1357.34 2295.59,1356.87 2297.78,1356.39 2299.98,1355.91 2302.18,1355.42 2304.38,1354.93 2306.58,1354.43 2308.78,1353.93 2310.98,1353.43 2313.18,1352.91 2315.38,1352.4 2317.57,1351.88 2319.77,1351.35 2321.97,1350.82 2324.17,1350.28 2326.37,1349.74 2328.57,1349.19 2330.77,1348.63 2332.97,1348.07 2335.17,1347.51 2337.36,1346.94 2339.56,1346.36 2341.76,1345.78 2343.96,1345.19 2346.16,1344.59 2348.36,1343.99 2350.56,1343.39 2352.76,1342.77 "/>
<path clip-path="url(#clip030)" d="M1970.77 196.789 L2279.53 196.789 L2279.53 93.1086 L1970.77 93.1086  Z" fill="#ffffff" fill-rule="evenodd" fill-opacity="1"/>
<polyline clip-path="url(#clip030)" style="stroke:#000000; stroke-linecap:round; stroke-linejoin:round; stroke-width:4; stroke-opacity:1; fill:none" points="1970.77,196.789 2279.53,196.789 2279.53,93.1086 1970.77,93.1086 1970.77,196.789 "/>
<polyline clip-path="url(#clip030)" style="stroke:#009af9; stroke-linecap:round; stroke-linejoin:round; stroke-width:8; stroke-opacity:1; fill:none" points="1995.18,144.949 2141.62,144.949 "/>
<path clip-path="url(#clip030)" d="M2166.03 151.997 L2166.03 136.303 L2170.29 136.303 L2170.29 151.835 Q2170.29 155.516 2171.72 157.368 Q2173.16 159.196 2176.03 159.196 Q2179.48 159.196 2181.47 156.997 Q2183.48 154.798 2183.48 151.002 L2183.48 136.303 L2187.74 136.303 L2187.74 162.229 L2183.48 162.229 L2183.48 158.247 Q2181.93 160.608 2179.87 161.766 Q2177.84 162.9 2175.13 162.9 Q2170.66 162.9 2168.35 160.122 Q2166.03 157.344 2166.03 151.997 M2176.75 135.678 L2176.75 135.678 Z" fill="#000000" fill-rule="nonzero" fill-opacity="1" /><path clip-path="url(#clip030)" d="M2196.12 126.21 L2205.94 126.21 L2205.94 129.52 L2200.38 129.52 L2200.38 165.168 L2205.94 165.168 L2205.94 168.479 L2196.12 168.479 L2196.12 126.21 Z" fill="#000000" fill-rule="nonzero" fill-opacity="1" /><path clip-path="url(#clip030)" d="M2216.42 158.293 L2224.06 158.293 L2224.06 131.928 L2215.75 133.595 L2215.75 129.335 L2224.02 127.669 L2228.69 127.669 L2228.69 158.293 L2236.33 158.293 L2236.33 162.229 L2216.42 162.229 L2216.42 158.293 Z" fill="#000000" fill-rule="nonzero" fill-opacity="1" /><path clip-path="url(#clip030)" d="M2255.13 126.21 L2255.13 168.479 L2245.31 168.479 L2245.31 165.168 L2250.84 165.168 L2250.84 129.52 L2245.31 129.52 L2245.31 126.21 L2255.13 126.21 Z" fill="#000000" fill-rule="nonzero" fill-opacity="1" /></svg>
