<?xml version="1.0" encoding="utf-8"?>
<svg xmlns="http://www.w3.org/2000/svg" xmlns:xlink="http://www.w3.org/1999/xlink" width="600" height="400" viewBox="0 0 2400 1600">
<defs>
  <clipPath id="clip980">
    <rect x="0" y="0" width="2400" height="1600"/>
  </clipPath>
</defs>
<path clip-path="url(#clip980)" d="M0 1600 L2400 1600 L2400 0 L0 0  Z" fill="#ffffff" fill-rule="evenodd" fill-opacity="1"/>
<defs>
  <clipPath id="clip981">
    <rect x="480" y="0" width="1681" height="1600"/>
  </clipPath>
</defs>
<path clip-path="url(#clip980)" d="M155.927 1486.45 L2352.76 1486.45 L2352.76 47.2441 L155.927 47.2441  Z" fill="#ffffff" fill-rule="evenodd" fill-opacity="1"/>
<defs>
  <clipPath id="clip982">
    <rect x="155" y="47" width="2198" height="1440"/>
  </clipPath>
</defs>
<polyline clip-path="url(#clip982)" style="stroke:#000000; stroke-linecap:round; stroke-linejoin:round; stroke-width:2; stroke-opacity:0.1; fill:none" points="216.287,1486.45 216.287,47.2441 "/>
<polyline clip-path="url(#clip982)" style="stroke:#000000; stroke-linecap:round; stroke-linejoin:round; stroke-width:2; stroke-opacity:0.1; fill:none" points="669.982,1486.45 669.982,47.2441 "/>
<polyline clip-path="url(#clip982)" style="stroke:#000000; stroke-linecap:round; stroke-linejoin:round; stroke-width:2; stroke-opacity:0.1; fill:none" points="1123.68,1486.45 1123.68,47.2441 "/>
<polyline clip-path="url(#clip982)" style="stroke:#000000; stroke-linecap:round; stroke-linejoin:round; stroke-width:2; stroke-opacity:0.1; fill:none" points="1577.37,1486.45 1577.37,47.2441 "/>
<polyline clip-path="url(#clip982)" style="stroke:#000000; stroke-linecap:round; stroke-linejoin:round; stroke-width:2; stroke-opacity:0.1; fill:none" points="2031.07,1486.45 2031.07,47.2441 "/>
<polyline clip-path="url(#clip982)" style="stroke:#000000; stroke-linecap:round; stroke-linejoin:round; stroke-width:2; stroke-opacity:0.1; fill:none" points="155.927,1445.72 2352.76,1445.72 "/>
<polyline clip-path="url(#clip982)" style="stroke:#000000; stroke-linecap:round; stroke-linejoin:round; stroke-width:2; stroke-opacity:0.1; fill:none" points="155.927,1167.92 2352.76,1167.92 "/>
<polyline clip-path="url(#clip982)" style="stroke:#000000; stroke-linecap:round; stroke-linejoin:round; stroke-width:2; stroke-opacity:0.1; fill:none" points="155.927,890.127 2352.76,890.127 "/>
<polyline clip-path="url(#clip982)" style="stroke:#000000; stroke-linecap:round; stroke-linejoin:round; stroke-width:2; stroke-opacity:0.1; fill:none" points="155.927,612.333 2352.76,612.333 "/>
<polyline clip-path="url(#clip982)" style="stroke:#000000; stroke-linecap:round; stroke-linejoin:round; stroke-width:2; stroke-opacity:0.1; fill:none" points="155.927,334.539 2352.76,334.539 "/>
<polyline clip-path="url(#clip982)" style="stroke:#000000; stroke-linecap:round; stroke-linejoin:round; stroke-width:2; stroke-opacity:0.1; fill:none" points="155.927,56.7443 2352.76,56.7443 "/>
<polyline clip-path="url(#clip980)" style="stroke:#000000; stroke-linecap:round; stroke-linejoin:round; stroke-width:4; stroke-opacity:1; fill:none" points="155.927,1486.45 2352.76,1486.45 "/>
<polyline clip-path="url(#clip980)" style="stroke:#000000; stroke-linecap:round; stroke-linejoin:round; stroke-width:4; stroke-opacity:1; fill:none" points="216.287,1486.45 216.287,1467.55 "/>
<polyline clip-path="url(#clip980)" style="stroke:#000000; stroke-linecap:round; stroke-linejoin:round; stroke-width:4; stroke-opacity:1; fill:none" points="669.982,1486.45 669.982,1467.55 "/>
<polyline clip-path="url(#clip980)" style="stroke:#000000; stroke-linecap:round; stroke-linejoin:round; stroke-width:4; stroke-opacity:1; fill:none" points="1123.68,1486.45 1123.68,1467.55 "/>
<polyline clip-path="url(#clip980)" style="stroke:#000000; stroke-linecap:round; stroke-linejoin:round; stroke-width:4; stroke-opacity:1; fill:none" points="1577.37,1486.45 1577.37,1467.55 "/>
<polyline clip-path="url(#clip980)" style="stroke:#000000; stroke-linecap:round; stroke-linejoin:round; stroke-width:4; stroke-opacity:1; fill:none" points="2031.07,1486.45 2031.07,1467.55 "/>
<path clip-path="url(#clip980)" d="M216.287 1517.37 Q212.675 1517.37 210.847 1520.93 Q209.041 1524.47 209.041 1531.6 Q209.041 1538.71 210.847 1542.27 Q212.675 1545.82 216.287 1545.82 Q219.921 1545.82 221.726 1542.27 Q223.555 1538.71 223.555 1531.6 Q223.555 1524.47 221.726 1520.93 Q219.921 1517.37 216.287 1517.37 M216.287 1513.66 Q222.097 1513.66 225.152 1518.27 Q228.231 1522.85 228.231 1531.6 Q228.231 1540.33 225.152 1544.94 Q222.097 1549.52 216.287 1549.52 Q210.476 1549.52 207.398 1544.94 Q204.342 1540.33 204.342 1531.6 Q204.342 1522.85 207.398 1518.27 Q210.476 1513.66 216.287 1513.66 Z" fill="#000000" fill-rule="nonzero" fill-opacity="1" /><path clip-path="url(#clip980)" d="M633.674 1544.91 L649.994 1544.91 L649.994 1548.85 L628.049 1548.85 L628.049 1544.91 Q630.711 1542.16 635.295 1537.53 Q639.901 1532.88 641.082 1531.53 Q643.327 1529.01 644.207 1527.27 Q645.109 1525.51 645.109 1523.82 Q645.109 1521.07 643.165 1519.33 Q641.244 1517.6 638.142 1517.6 Q635.943 1517.6 633.489 1518.36 Q631.058 1519.13 628.281 1520.68 L628.281 1515.95 Q631.105 1514.82 633.558 1514.24 Q636.012 1513.66 638.049 1513.66 Q643.42 1513.66 646.614 1516.35 Q649.808 1519.03 649.808 1523.52 Q649.808 1525.65 648.998 1527.57 Q648.211 1529.47 646.105 1532.07 Q645.526 1532.74 642.424 1535.95 Q639.322 1539.15 633.674 1544.91 Z" fill="#000000" fill-rule="nonzero" fill-opacity="1" /><path clip-path="url(#clip980)" d="M659.855 1514.29 L678.211 1514.29 L678.211 1518.22 L664.137 1518.22 L664.137 1526.7 Q665.156 1526.35 666.174 1526.19 Q667.193 1526 668.211 1526 Q673.998 1526 677.378 1529.17 Q680.757 1532.34 680.757 1537.76 Q680.757 1543.34 677.285 1546.44 Q673.813 1549.52 667.493 1549.52 Q665.318 1549.52 663.049 1549.15 Q660.804 1548.78 658.396 1548.04 L658.396 1543.34 Q660.48 1544.47 662.702 1545.03 Q664.924 1545.58 667.401 1545.58 Q671.405 1545.58 673.743 1543.48 Q676.081 1541.37 676.081 1537.76 Q676.081 1534.15 673.743 1532.04 Q671.405 1529.94 667.401 1529.94 Q665.526 1529.94 663.651 1530.35 Q661.799 1530.77 659.855 1531.65 L659.855 1514.29 Z" fill="#000000" fill-rule="nonzero" fill-opacity="1" /><path clip-path="url(#clip980)" d="M699.97 1517.37 Q696.359 1517.37 694.53 1520.93 Q692.725 1524.47 692.725 1531.6 Q692.725 1538.71 694.53 1542.27 Q696.359 1545.82 699.97 1545.82 Q703.604 1545.82 705.41 1542.27 Q707.239 1538.71 707.239 1531.6 Q707.239 1524.47 705.41 1520.93 Q703.604 1517.37 699.97 1517.37 M699.97 1513.66 Q705.78 1513.66 708.836 1518.27 Q711.915 1522.85 711.915 1531.6 Q711.915 1540.33 708.836 1544.94 Q705.78 1549.52 699.97 1549.52 Q694.16 1549.52 691.081 1544.94 Q688.026 1540.33 688.026 1531.6 Q688.026 1522.85 691.081 1518.27 Q694.16 1513.66 699.97 1513.66 Z" fill="#000000" fill-rule="nonzero" fill-opacity="1" /><path clip-path="url(#clip980)" d="M1083.3 1514.29 L1101.65 1514.29 L1101.65 1518.22 L1087.58 1518.22 L1087.58 1526.7 Q1088.6 1526.35 1089.61 1526.19 Q1090.63 1526 1091.65 1526 Q1097.44 1526 1100.82 1529.17 Q1104.2 1532.34 1104.2 1537.76 Q1104.2 1543.34 1100.73 1546.44 Q1097.25 1549.52 1090.93 1549.52 Q1088.76 1549.52 1086.49 1549.15 Q1084.24 1548.78 1081.84 1548.04 L1081.84 1543.34 Q1083.92 1544.47 1086.14 1545.03 Q1088.36 1545.58 1090.84 1545.58 Q1094.85 1545.58 1097.18 1543.48 Q1099.52 1541.37 1099.52 1537.76 Q1099.52 1534.15 1097.18 1532.04 Q1094.85 1529.94 1090.84 1529.94 Q1088.97 1529.94 1087.09 1530.35 Q1085.24 1530.77 1083.3 1531.65 L1083.3 1514.29 Z" fill="#000000" fill-rule="nonzero" fill-opacity="1" /><path clip-path="url(#clip980)" d="M1123.41 1517.37 Q1119.8 1517.37 1117.97 1520.93 Q1116.17 1524.47 1116.17 1531.6 Q1116.17 1538.71 1117.97 1542.27 Q1119.8 1545.82 1123.41 1545.82 Q1127.05 1545.82 1128.85 1542.27 Q1130.68 1538.71 1130.68 1531.6 Q1130.68 1524.47 1128.85 1520.93 Q1127.05 1517.37 1123.41 1517.37 M1123.41 1513.66 Q1129.22 1513.66 1132.28 1518.27 Q1135.36 1522.85 1135.36 1531.6 Q1135.36 1540.33 1132.28 1544.94 Q1129.22 1549.52 1123.41 1549.52 Q1117.6 1549.52 1114.52 1544.94 Q1111.47 1540.33 1111.47 1531.6 Q1111.47 1522.85 1114.52 1518.27 Q1117.6 1513.66 1123.41 1513.66 Z" fill="#000000" fill-rule="nonzero" fill-opacity="1" /><path clip-path="url(#clip980)" d="M1153.57 1517.37 Q1149.96 1517.37 1148.13 1520.93 Q1146.33 1524.47 1146.33 1531.6 Q1146.33 1538.71 1148.13 1542.27 Q1149.96 1545.82 1153.57 1545.82 Q1157.21 1545.82 1159.01 1542.27 Q1160.84 1538.71 1160.84 1531.6 Q1160.84 1524.47 1159.01 1520.93 Q1157.21 1517.37 1153.57 1517.37 M1153.57 1513.66 Q1159.38 1513.66 1162.44 1518.27 Q1165.52 1522.85 1165.52 1531.6 Q1165.52 1540.33 1162.44 1544.94 Q1159.38 1549.52 1153.57 1549.52 Q1147.76 1549.52 1144.68 1544.94 Q1141.63 1540.33 1141.63 1531.6 Q1141.63 1522.85 1144.68 1518.27 Q1147.76 1513.66 1153.57 1513.66 Z" fill="#000000" fill-rule="nonzero" fill-opacity="1" /><path clip-path="url(#clip980)" d="M1535.65 1514.29 L1557.87 1514.29 L1557.87 1516.28 L1545.32 1548.85 L1540.44 1548.85 L1552.25 1518.22 L1535.65 1518.22 L1535.65 1514.29 Z" fill="#000000" fill-rule="nonzero" fill-opacity="1" /><path clip-path="url(#clip980)" d="M1567.04 1514.29 L1585.39 1514.29 L1585.39 1518.22 L1571.32 1518.22 L1571.32 1526.7 Q1572.34 1526.35 1573.36 1526.19 Q1574.37 1526 1575.39 1526 Q1581.18 1526 1584.56 1529.17 Q1587.94 1532.34 1587.94 1537.76 Q1587.94 1543.34 1584.47 1546.44 Q1581 1549.52 1574.68 1549.52 Q1572.5 1549.52 1570.23 1549.15 Q1567.99 1548.78 1565.58 1548.04 L1565.58 1543.34 Q1567.66 1544.47 1569.88 1545.03 Q1572.11 1545.58 1574.58 1545.58 Q1578.59 1545.58 1580.93 1543.48 Q1583.26 1541.37 1583.26 1537.76 Q1583.26 1534.15 1580.93 1532.04 Q1578.59 1529.94 1574.58 1529.94 Q1572.71 1529.94 1570.83 1530.35 Q1568.98 1530.77 1567.04 1531.65 L1567.04 1514.29 Z" fill="#000000" fill-rule="nonzero" fill-opacity="1" /><path clip-path="url(#clip980)" d="M1607.15 1517.37 Q1603.54 1517.37 1601.71 1520.93 Q1599.91 1524.47 1599.91 1531.6 Q1599.91 1538.71 1601.71 1542.27 Q1603.54 1545.82 1607.15 1545.82 Q1610.79 1545.82 1612.59 1542.27 Q1614.42 1538.71 1614.42 1531.6 Q1614.42 1524.47 1612.59 1520.93 Q1610.79 1517.37 1607.15 1517.37 M1607.15 1513.66 Q1612.96 1513.66 1616.02 1518.27 Q1619.1 1522.85 1619.1 1531.6 Q1619.1 1540.33 1616.02 1544.94 Q1612.96 1549.52 1607.15 1549.52 Q1601.34 1549.52 1598.26 1544.94 Q1595.21 1540.33 1595.21 1531.6 Q1595.21 1522.85 1598.26 1518.27 Q1601.34 1513.66 1607.15 1513.66 Z" fill="#000000" fill-rule="nonzero" fill-opacity="1" /><path clip-path="url(#clip980)" d="M1975.59 1544.91 L1983.23 1544.91 L1983.23 1518.55 L1974.92 1520.21 L1974.92 1515.95 L1983.19 1514.29 L1987.86 1514.29 L1987.86 1544.91 L1995.5 1544.91 L1995.5 1548.85 L1975.59 1548.85 L1975.59 1544.91 Z" fill="#000000" fill-rule="nonzero" fill-opacity="1" /><path clip-path="url(#clip980)" d="M2014.95 1517.37 Q2011.33 1517.37 2009.51 1520.93 Q2007.7 1524.47 2007.7 1531.6 Q2007.7 1538.71 2009.51 1542.27 Q2011.33 1545.82 2014.95 1545.82 Q2018.58 1545.82 2020.38 1542.27 Q2022.21 1538.71 2022.21 1531.6 Q2022.21 1524.47 2020.38 1520.93 Q2018.58 1517.37 2014.95 1517.37 M2014.95 1513.66 Q2020.76 1513.66 2023.81 1518.27 Q2026.89 1522.85 2026.89 1531.6 Q2026.89 1540.33 2023.81 1544.94 Q2020.76 1549.52 2014.95 1549.52 Q2009.14 1549.52 2006.06 1544.94 Q2003 1540.33 2003 1531.6 Q2003 1522.85 2006.06 1518.27 Q2009.14 1513.66 2014.95 1513.66 Z" fill="#000000" fill-rule="nonzero" fill-opacity="1" /><path clip-path="url(#clip980)" d="M2045.11 1517.37 Q2041.5 1517.37 2039.67 1520.93 Q2037.86 1524.47 2037.86 1531.6 Q2037.86 1538.71 2039.67 1542.27 Q2041.5 1545.82 2045.11 1545.82 Q2048.74 1545.82 2050.55 1542.27 Q2052.38 1538.71 2052.38 1531.6 Q2052.38 1524.47 2050.55 1520.93 Q2048.74 1517.37 2045.11 1517.37 M2045.11 1513.66 Q2050.92 1513.66 2053.97 1518.27 Q2057.05 1522.85 2057.05 1531.6 Q2057.05 1540.33 2053.97 1544.94 Q2050.92 1549.52 2045.11 1549.52 Q2039.3 1549.52 2036.22 1544.94 Q2033.16 1540.33 2033.16 1531.6 Q2033.16 1522.85 2036.22 1518.27 Q2039.3 1513.66 2045.11 1513.66 Z" fill="#000000" fill-rule="nonzero" fill-opacity="1" /><path clip-path="url(#clip980)" d="M2075.27 1517.37 Q2071.66 1517.37 2069.83 1520.93 Q2068.02 1524.47 2068.02 1531.6 Q2068.02 1538.71 2069.83 1542.27 Q2071.66 1545.82 2075.27 1545.82 Q2078.9 1545.82 2080.71 1542.27 Q2082.54 1538.71 2082.54 1531.6 Q2082.54 1524.47 2080.71 1520.93 Q2078.9 1517.37 2075.27 1517.37 M2075.27 1513.66 Q2081.08 1513.66 2084.13 1518.27 Q2087.21 1522.85 2087.21 1531.6 Q2087.21 1540.33 2084.13 1544.94 Q2081.08 1549.52 2075.27 1549.52 Q2069.46 1549.52 2066.38 1544.94 Q2063.32 1540.33 2063.32 1531.6 Q2063.32 1522.85 2066.38 1518.27 Q2069.46 1513.66 2075.27 1513.66 Z" fill="#000000" fill-rule="nonzero" fill-opacity="1" /><polyline clip-path="url(#clip980)" style="stroke:#000000; stroke-linecap:round; stroke-linejoin:round; stroke-width:4; stroke-opacity:1; fill:none" points="155.927,1486.45 155.927,47.2441 "/>
<polyline clip-path="url(#clip980)" style="stroke:#000000; stroke-linecap:round; stroke-linejoin:round; stroke-width:4; stroke-opacity:1; fill:none" points="155.927,1445.72 174.825,1445.72 "/>
<polyline clip-path="url(#clip980)" style="stroke:#000000; stroke-linecap:round; stroke-linejoin:round; stroke-width:4; stroke-opacity:1; fill:none" points="155.927,1167.92 174.825,1167.92 "/>
<polyline clip-path="url(#clip980)" style="stroke:#000000; stroke-linecap:round; stroke-linejoin:round; stroke-width:4; stroke-opacity:1; fill:none" points="155.927,890.127 174.825,890.127 "/>
<polyline clip-path="url(#clip980)" style="stroke:#000000; stroke-linecap:round; stroke-linejoin:round; stroke-width:4; stroke-opacity:1; fill:none" points="155.927,612.333 174.825,612.333 "/>
<polyline clip-path="url(#clip980)" style="stroke:#000000; stroke-linecap:round; stroke-linejoin:round; stroke-width:4; stroke-opacity:1; fill:none" points="155.927,334.539 174.825,334.539 "/>
<polyline clip-path="url(#clip980)" style="stroke:#000000; stroke-linecap:round; stroke-linejoin:round; stroke-width:4; stroke-opacity:1; fill:none" points="155.927,56.7443 174.825,56.7443 "/>
<path clip-path="url(#clip980)" d="M52.7977 1428.44 L71.1541 1428.44 L71.1541 1432.37 L57.0801 1432.37 L57.0801 1440.84 Q58.0986 1440.5 59.1171 1440.33 Q60.1356 1440.15 61.1541 1440.15 Q66.9411 1440.15 70.3207 1443.32 Q73.7003 1446.49 73.7003 1451.91 Q73.7003 1457.49 70.2281 1460.59 Q66.7559 1463.67 60.4365 1463.67 Q58.2606 1463.67 55.9921 1463.3 Q53.7467 1462.93 51.3393 1462.19 L51.3393 1457.49 Q53.4227 1458.62 55.6449 1459.18 Q57.8671 1459.73 60.3439 1459.73 Q64.3485 1459.73 66.6865 1457.63 Q69.0244 1455.52 69.0244 1451.91 Q69.0244 1448.3 66.6865 1446.19 Q64.3485 1444.08 60.3439 1444.08 Q58.4689 1444.08 56.5939 1444.5 Q54.7421 1444.92 52.7977 1445.8 L52.7977 1428.44 Z" fill="#000000" fill-rule="nonzero" fill-opacity="1" /><path clip-path="url(#clip980)" d="M82.9133 1457.12 L87.7975 1457.12 L87.7975 1463 L82.9133 1463 L82.9133 1457.12 Z" fill="#000000" fill-rule="nonzero" fill-opacity="1" /><path clip-path="url(#clip980)" d="M107.983 1431.51 Q104.371 1431.51 102.543 1435.08 Q100.737 1438.62 100.737 1445.75 Q100.737 1452.86 102.543 1456.42 Q104.371 1459.96 107.983 1459.96 Q111.617 1459.96 113.422 1456.42 Q115.251 1452.86 115.251 1445.75 Q115.251 1438.62 113.422 1435.08 Q111.617 1431.51 107.983 1431.51 M107.983 1427.81 Q113.793 1427.81 116.848 1432.42 Q119.927 1437 119.927 1445.75 Q119.927 1454.48 116.848 1459.08 Q113.793 1463.67 107.983 1463.67 Q102.172 1463.67 99.0937 1459.08 Q96.0382 1454.48 96.0382 1445.75 Q96.0382 1437 99.0937 1432.42 Q102.172 1427.81 107.983 1427.81 Z" fill="#000000" fill-rule="nonzero" fill-opacity="1" /><path clip-path="url(#clip980)" d="M53.793 1150.64 L72.1494 1150.64 L72.1494 1154.58 L58.0754 1154.58 L58.0754 1163.05 Q59.0939 1162.7 60.1124 1162.54 Q61.131 1162.35 62.1495 1162.35 Q67.9365 1162.35 71.3161 1165.53 Q74.6957 1168.7 74.6957 1174.11 Q74.6957 1179.69 71.2235 1182.79 Q67.7513 1185.87 61.4319 1185.87 Q59.256 1185.87 56.9875 1185.5 Q54.7421 1185.13 52.3347 1184.39 L52.3347 1179.69 Q54.418 1180.83 56.6402 1181.38 Q58.8625 1181.94 61.3393 1181.94 Q65.3439 1181.94 67.6819 1179.83 Q70.0198 1177.72 70.0198 1174.11 Q70.0198 1170.5 67.6819 1168.4 Q65.3439 1166.29 61.3393 1166.29 Q59.4643 1166.29 57.5893 1166.71 Q55.7375 1167.12 53.793 1168 L53.793 1150.64 Z" fill="#000000" fill-rule="nonzero" fill-opacity="1" /><path clip-path="url(#clip980)" d="M83.9086 1179.32 L88.7928 1179.32 L88.7928 1185.2 L83.9086 1185.2 L83.9086 1179.32 Z" fill="#000000" fill-rule="nonzero" fill-opacity="1" /><path clip-path="url(#clip980)" d="M99.0243 1150.64 L117.381 1150.64 L117.381 1154.58 L103.307 1154.58 L103.307 1163.05 Q104.325 1162.7 105.344 1162.54 Q106.362 1162.35 107.381 1162.35 Q113.168 1162.35 116.547 1165.53 Q119.927 1168.7 119.927 1174.11 Q119.927 1179.69 116.455 1182.79 Q112.983 1185.87 106.663 1185.87 Q104.487 1185.87 102.219 1185.5 Q99.9733 1185.13 97.566 1184.39 L97.566 1179.69 Q99.6493 1180.83 101.871 1181.38 Q104.094 1181.94 106.571 1181.94 Q110.575 1181.94 112.913 1179.83 Q115.251 1177.72 115.251 1174.11 Q115.251 1170.5 112.913 1168.4 Q110.575 1166.29 106.571 1166.29 Q104.696 1166.29 102.821 1166.71 Q100.969 1167.12 99.0243 1168 L99.0243 1150.64 Z" fill="#000000" fill-rule="nonzero" fill-opacity="1" /><path clip-path="url(#clip980)" d="M63.33 888.264 Q60.1819 888.264 58.33 890.416 Q56.5014 892.569 56.5014 896.319 Q56.5014 900.046 58.33 902.222 Q60.1819 904.375 63.33 904.375 Q66.4782 904.375 68.3068 902.222 Q70.1587 900.046 70.1587 896.319 Q70.1587 892.569 68.3068 890.416 Q66.4782 888.264 63.33 888.264 M72.6124 873.611 L72.6124 877.87 Q70.8531 877.037 69.0476 876.597 Q67.2652 876.157 65.5059 876.157 Q60.8763 876.157 58.4226 879.282 Q55.9921 882.407 55.6449 888.727 Q57.0106 886.713 59.0708 885.648 Q61.131 884.56 63.6078 884.56 Q68.8161 884.56 71.8253 887.731 Q74.8577 890.879 74.8577 896.319 Q74.8577 901.643 71.7096 904.861 Q68.5615 908.078 63.33 908.078 Q57.3347 908.078 54.1634 903.495 Q50.9921 898.889 50.9921 890.162 Q50.9921 881.967 54.881 877.106 Q58.7699 872.222 65.3208 872.222 Q67.08 872.222 68.8624 872.569 Q70.6679 872.917 72.6124 873.611 Z" fill="#000000" fill-rule="nonzero" fill-opacity="1" /><path clip-path="url(#clip980)" d="M82.9133 901.528 L87.7975 901.528 L87.7975 907.407 L82.9133 907.407 L82.9133 901.528 Z" fill="#000000" fill-rule="nonzero" fill-opacity="1" /><path clip-path="url(#clip980)" d="M107.983 875.926 Q104.371 875.926 102.543 879.491 Q100.737 883.032 100.737 890.162 Q100.737 897.268 102.543 900.833 Q104.371 904.375 107.983 904.375 Q111.617 904.375 113.422 900.833 Q115.251 897.268 115.251 890.162 Q115.251 883.032 113.422 879.491 Q111.617 875.926 107.983 875.926 M107.983 872.222 Q113.793 872.222 116.848 876.829 Q119.927 881.412 119.927 890.162 Q119.927 898.889 116.848 903.495 Q113.793 908.078 107.983 908.078 Q102.172 908.078 99.0937 903.495 Q96.0382 898.889 96.0382 890.162 Q96.0382 881.412 99.0937 876.829 Q102.172 872.222 107.983 872.222 Z" fill="#000000" fill-rule="nonzero" fill-opacity="1" /><path clip-path="url(#clip980)" d="M64.3254 610.469 Q61.1773 610.469 59.3254 612.622 Q57.4967 614.775 57.4967 618.525 Q57.4967 622.252 59.3254 624.428 Q61.1773 626.58 64.3254 626.58 Q67.4735 626.58 69.3022 624.428 Q71.1541 622.252 71.1541 618.525 Q71.1541 614.775 69.3022 612.622 Q67.4735 610.469 64.3254 610.469 M73.6077 595.817 L73.6077 600.076 Q71.8485 599.243 70.0429 598.803 Q68.2606 598.363 66.5013 598.363 Q61.8717 598.363 59.418 601.488 Q56.9875 604.613 56.6402 610.932 Q58.006 608.919 60.0662 607.854 Q62.1263 606.766 64.6032 606.766 Q69.8115 606.766 72.8207 609.937 Q75.8531 613.085 75.8531 618.525 Q75.8531 623.849 72.705 627.067 Q69.5568 630.284 64.3254 630.284 Q58.33 630.284 55.1588 625.701 Q51.9875 621.094 51.9875 612.368 Q51.9875 604.173 55.8764 599.312 Q59.7652 594.428 66.3161 594.428 Q68.0754 594.428 69.8578 594.775 Q71.6633 595.122 73.6077 595.817 Z" fill="#000000" fill-rule="nonzero" fill-opacity="1" /><path clip-path="url(#clip980)" d="M83.9086 623.733 L88.7928 623.733 L88.7928 629.613 L83.9086 629.613 L83.9086 623.733 Z" fill="#000000" fill-rule="nonzero" fill-opacity="1" /><path clip-path="url(#clip980)" d="M99.0243 595.053 L117.381 595.053 L117.381 598.988 L103.307 598.988 L103.307 607.46 Q104.325 607.113 105.344 606.951 Q106.362 606.766 107.381 606.766 Q113.168 606.766 116.547 609.937 Q119.927 613.108 119.927 618.525 Q119.927 624.104 116.455 627.205 Q112.983 630.284 106.663 630.284 Q104.487 630.284 102.219 629.914 Q99.9733 629.543 97.566 628.803 L97.566 624.104 Q99.6493 625.238 101.871 625.793 Q104.094 626.349 106.571 626.349 Q110.575 626.349 112.913 624.243 Q115.251 622.136 115.251 618.525 Q115.251 614.914 112.913 612.807 Q110.575 610.701 106.571 610.701 Q104.696 610.701 102.821 611.118 Q100.969 611.534 99.0243 612.414 L99.0243 595.053 Z" fill="#000000" fill-rule="nonzero" fill-opacity="1" /><path clip-path="url(#clip980)" d="M51.5708 317.259 L73.7929 317.259 L73.7929 319.249 L61.2467 351.819 L56.3625 351.819 L68.168 321.194 L51.5708 321.194 L51.5708 317.259 Z" fill="#000000" fill-rule="nonzero" fill-opacity="1" /><path clip-path="url(#clip980)" d="M82.9133 345.939 L87.7975 345.939 L87.7975 351.819 L82.9133 351.819 L82.9133 345.939 Z" fill="#000000" fill-rule="nonzero" fill-opacity="1" /><path clip-path="url(#clip980)" d="M107.983 320.337 Q104.371 320.337 102.543 323.902 Q100.737 327.444 100.737 334.573 Q100.737 341.68 102.543 345.245 Q104.371 348.786 107.983 348.786 Q111.617 348.786 113.422 345.245 Q115.251 341.68 115.251 334.573 Q115.251 327.444 113.422 323.902 Q111.617 320.337 107.983 320.337 M107.983 316.634 Q113.793 316.634 116.848 321.24 Q119.927 325.823 119.927 334.573 Q119.927 343.3 116.848 347.907 Q113.793 352.49 107.983 352.49 Q102.172 352.49 99.0937 347.907 Q96.0382 343.3 96.0382 334.573 Q96.0382 325.823 99.0937 321.24 Q102.172 316.634 107.983 316.634 Z" fill="#000000" fill-rule="nonzero" fill-opacity="1" /><path clip-path="url(#clip980)" d="M52.5662 39.4643 L74.7883 39.4643 L74.7883 41.455 L62.2421 74.0243 L57.3578 74.0243 L69.1633 43.3994 L52.5662 43.3994 L52.5662 39.4643 Z" fill="#000000" fill-rule="nonzero" fill-opacity="1" /><path clip-path="url(#clip980)" d="M83.9086 68.1447 L88.7928 68.1447 L88.7928 74.0243 L83.9086 74.0243 L83.9086 68.1447 Z" fill="#000000" fill-rule="nonzero" fill-opacity="1" /><path clip-path="url(#clip980)" d="M99.0243 39.4643 L117.381 39.4643 L117.381 43.3994 L103.307 43.3994 L103.307 51.8716 Q104.325 51.5244 105.344 51.3624 Q106.362 51.1772 107.381 51.1772 Q113.168 51.1772 116.547 54.3485 Q119.927 57.5197 119.927 62.9364 Q119.927 68.515 116.455 71.6169 Q112.983 74.6956 106.663 74.6956 Q104.487 74.6956 102.219 74.3252 Q99.9733 73.9548 97.566 73.2141 L97.566 68.515 Q99.6493 69.6493 101.871 70.2049 Q104.094 70.7604 106.571 70.7604 Q110.575 70.7604 112.913 68.6539 Q115.251 66.5475 115.251 62.9364 Q115.251 59.3253 112.913 57.2188 Q110.575 55.1123 106.571 55.1123 Q104.696 55.1123 102.821 55.529 Q100.969 55.9457 99.0243 56.8253 L99.0243 39.4643 Z" fill="#000000" fill-rule="nonzero" fill-opacity="1" /><polyline clip-path="url(#clip982)" style="stroke:#009af9; stroke-linecap:round; stroke-linejoin:round; stroke-width:4; stroke-opacity:1; fill:none" points="218.101,1445.72 219.916,1445.72 221.731,1445.72 223.546,1445.72 225.36,1279.04 227.175,1299.17 228.99,1299.17 230.805,1139.02 232.62,1182.91 234.434,1230.55 236.249,1269.55 238.064,1269.55 239.879,1126.08 241.694,1144.31 243.508,1144.31 245.323,957.099 247.138,957.099 248.953,805.987 250.767,833.589 252.582,833.589 254.397,624.465 256.212,624.465 258.027,439.067 259.841,563.95 261.656,723.787 263.471,723.787 265.286,592.271 267.1,711.2 268.915,711.2 270.73,604.804 272.545,628.327 274.36,776.494 276.174,897.803 277.989,897.803 279.804,746.172 281.619,746.172 283.433,580.338 285.248,580.338 287.063,361.762 288.878,528.212 290.693,694.527 292.507,694.527 294.322,648.094 296.137,648.094 297.952,487.136 299.767,504.582 301.581,504.582 303.396,478.621 305.211,514.726 307.026,683.486 308.84,821.655 310.655,821.655 312.47,719.749 314.285,719.749 316.1,574.271 317.914,625.664 319.729,625.664 321.544,592.367 323.359,611.344 325.173,762.59 326.988,886.42 328.803,987.803 330.618,1070.81 332.433,1138.77 334.247,1194.41 336.062,1194.41 337.877,1054.28 339.692,1087.38 341.506,1152.33 343.321,1152.33 345.136,1025.61 346.951,1047.54 348.766,1047.54 350.58,880.01 352.395,908.788 354.21,1006.12 356.025,1085.8 357.84,1151.04 359.654,1151.04 361.469,999.252 363.284,1060.73 365.099,1130.52 366.913,1130.52 368.728,972.897 370.543,1047.16 372.358,1047.16 374.173,913.75 375.987,913.75 377.802,780.674 379.617,811.58 381.432,811.58 383.246,758.182 385.061,760.387 386.876,884.616 388.691,884.616 390.506,731.301 392.32,846.534 394.135,846.534 395.95,859.811 397.765,859.811 399.579,639.453 401.394,697.527 403.209,833.151 405.024,944.19 406.839,944.19 408.653,819.775 410.468,886.081 412.283,987.525 414.098,987.525 415.912,861.408 417.727,920.865 419.542,920.865 421.357,799.233 423.172,866.73 424.986,866.73 426.801,683.928 428.616,776.433 430.431,776.433 432.246,789.754 434.06,847.048 435.875,847.048 437.69,776.466 439.505,793.012 441.319,911.327 443.134,911.327 444.949,732.035 446.764,732.035 448.579,582.929 450.393,658.212 452.208,800.962 454.023,917.836 455.838,1013.52 457.652,1091.87 459.467,1091.87 461.282,970.053 463.097,999.733 464.912,1080.58 466.726,1080.58 468.541,943.282 470.356,998.359 472.171,1079.45 473.985,1145.84 475.8,1200.2 477.615,1200.2 479.43,992.782 481.245,1051.07 483.059,1122.61 484.874,1181.18 486.689,1181.18 488.504,980.045 490.319,980.045 492.133,964.145 493.948,977.371 495.763,1062.27 497.578,1131.77 499.392,1188.68 501.207,1188.68 503.022,1035.28 504.837,1091.38 506.652,1155.61 508.466,1208.2 510.281,1251.25 512.096,1251.25 513.911,1091.73 515.725,1091.73 517.54,975.251 519.355,979.741 521.17,979.741 522.985,813.032 524.799,857.642 526.614,857.642 528.429,735.014 530.244,816.729 532.058,930.745 533.873,1024.09 535.688,1100.52 537.503,1163.09 539.318,1163.09 541.132,1023.15 542.947,1023.15 544.762,836.776 546.577,844.008 548.392,844.008 550.206,630.365 552.021,630.365 553.836,534.669 555.651,549.996 557.465,549.996 559.28,402.875 561.095,402.875 562.91,330.708 564.725,355.574 566.539,553.183 568.354,714.972 570.169,714.972 571.984,548.346 573.798,548.346 575.613,465.332 577.428,560.456 579.243,720.927 581.058,720.927 582.872,624.796 584.687,701.131 586.502,836.101 588.317,836.101 590.131,683.034 591.946,807.026 593.761,922.801 595.576,922.801 597.391,773.931 599.205,773.931 601.02,612.658 602.835,733.896 604.65,733.896 606.465,525.675 608.279,525.675 610.094,407.928 611.909,530.299 613.724,530.299 615.538,434.039 617.353,434.039 619.168,273.156 620.983,399.714 622.798,589.322 624.612,744.56 626.427,744.56 628.242,780.093 630.057,780.093 631.871,571.166 633.686,605.993 635.501,605.993 637.316,504.389 639.131,610.282 640.945,610.282 642.76,564.813 644.575,564.813 646.39,423.098 648.204,512.973 650.019,512.973 651.834,347.392 653.649,347.392 655.464,150.102 657.278,290.113 659.093,499.589 660.908,499.589 662.723,388.248 664.538,464.984 666.352,642.76 668.167,788.311 669.982,907.478 671.797,907.478 673.611,867.511 675.426,958.2 677.241,958.2 679.056,821.423 680.871,825.946 682.685,825.946 684.5,719.703 686.315,719.703 688.13,526.826 689.944,576.977 691.759,576.977 693.574,411.003 695.389,597.879 697.204,751.566 699.018,877.394 700.833,980.413 702.648,980.413 704.463,839.272 706.277,920.371 708.092,1015.6 709.907,1015.6 711.722,911.526 713.537,933.858 715.351,933.858 717.166,712.206 718.981,712.206 720.796,607.648 722.611,627.517 724.425,775.831 726.24,897.261 728.055,996.679 729.87,996.679 731.684,800.139 733.499,885.081 735.314,986.706 737.129,986.706 738.944,841.693 740.758,926.688 742.573,1020.77 744.388,1097.8 746.203,1097.8 748.017,1097.79 749.832,1106.74 751.647,1168.18 753.462,1168.18 755.277,1026.4 757.091,1068.58 758.906,1136.95 760.721,1192.92 762.536,1192.92 764.35,1062.17 766.165,1079.67 767.98,1079.67 769.795,937.053 771.61,999.962 773.424,1080.76 775.239,1146.92 777.054,1146.92 778.869,1033.12 780.684,1035.27 782.498,1035.27 784.313,844.876 786.128,912.424 787.943,912.424 789.757,815.603 791.572,815.603 793.387,676.644 795.202,687.802 797.017,825.189 798.831,937.671 800.646,1029.76 802.461,1029.76 804.276,909.127 806.09,909.127 807.905,782.778 809.72,785.799 811.535,785.799 813.35,641.179 815.164,764.239 816.979,764.239 818.794,641.229 820.609,741.964 822.423,741.964 824.238,667.382 826.053,712.523 827.868,845.428 829.683,954.242 831.497,1043.33 833.312,1116.27 835.127,1116.27 836.942,993.253 838.757,1018.68 840.571,1096.09 842.386,1159.46 844.201,1159.46 846.016,1039.45 847.83,1048.31 849.645,1120.35 851.46,1120.35 853.275,957.176 855.09,1041.38 856.904,1041.38 858.719,1051.31 860.534,1060.39 862.349,1130.24 864.163,1187.43 865.978,1234.25 867.793,1272.58 869.608,1272.58 871.423,1120.76 873.237,1154.69 875.052,1207.45 876.867,1250.64 878.682,1250.64 880.496,1114.14 882.311,1124.56 884.126,1124.56 885.941,997.347 887.756,1027.19 889.57,1103.06 891.385,1165.17 893.2,1216.03 895.015,1257.66 896.83,1257.66 898.644,1103.34 900.459,1145.69 902.274,1145.69 904.089,987.836 905.903,987.836 907.718,847.055 909.533,847.055 911.348,682.012 913.163,690.762 914.977,827.612 916.792,939.655 918.607,1031.39 920.422,1106.49 922.236,1106.49 924.051,1096.34 925.866,1115.47 927.681,1175.33 929.496,1224.34 931.31,1224.34 933.125,1085.33 934.94,1108.52 936.755,1108.52 938.569,982.213 940.384,1014.63 942.199,1014.63 944.014,793.503 945.829,793.503 947.643,718.173 949.458,751.247 951.273,751.247 953.088,594.325 954.903,676.294 956.717,676.294 958.532,546.221 960.347,672.487 962.162,672.487 963.976,527.295 965.791,610.562 967.606,761.95 969.421,885.896 971.236,885.896 973.05,761.787 974.865,761.787 976.68,614.452 978.495,618.537 980.309,618.537 982.124,484.697 983.939,564.757 985.754,724.448 987.569,724.448 989.383,528.885 991.198,666.254 993.013,666.254 994.828,593.916 996.642,652.293 998.457,652.293 1000.27,703.518 1002.09,743.554 1003.9,870.834 1005.72,870.834 1007.53,652.351 1009.35,791.896 1011.16,910.414 1012.98,910.414 1014.79,692.909 1016.61,823.874 1018.42,823.874 1020.23,702.026 1022.05,789.53 1023.86,908.476 1025.68,1005.86 1027.49,1005.86 1029.31,860.241 1031.12,942.269 1032.94,1033.53 1034.75,1033.53 1036.57,870.344 1038.38,895.869 1040.2,995.539 1042.01,995.539 1043.83,898.581 1045.64,915.672 1047.46,1011.75 1049.27,1090.42 1051.09,1090.42 1052.9,959.426 1054.72,1003.12 1056.53,1083.35 1058.35,1149.04 1060.16,1202.82 1061.97,1246.85 1063.79,1246.85 1065.6,1089.45 1067.42,1089.45 1069.23,959.83 1071.05,979.984 1072.86,979.984 1074.68,865.696 1076.49,865.696 1078.31,736.616 1080.12,746.232 1081.94,746.232 1083.75,645.517 1085.57,722.355 1087.38,722.355 1089.2,670.282 1091.01,691.324 1092.83,691.324 1094.64,642.891 1096.46,666.244 1098.27,807.538 1100.09,923.22 1101.9,923.22 1103.71,750.981 1105.53,816.729 1107.34,816.729 1109.16,738.925 1110.97,771.828 1112.79,893.983 1114.6,993.995 1116.42,993.995 1118.23,870.333 1120.05,925.053 1121.86,1019.43 1123.68,1096.7 1125.49,1096.7 1127.31,942.55 1129.12,1018.43 1130.94,1095.88 1132.75,1159.3 1134.57,1211.22 1136.38,1253.72 1138.2,1288.53 1140.01,1317.02 1141.82,1340.35 1143.64,1340.35 1145.45,1123.47 1147.27,1167.75 1149.08,1218.14 1150.9,1259.39 1152.71,1259.39 1154.53,1110.36 1156.34,1110.36 1158.16,960.378 1159.97,983.795 1161.79,1067.53 1163.6,1136.08 1165.42,1192.21 1167.23,1238.16 1169.05,1238.16 1170.86,1101.1 1172.68,1116.61 1174.49,1176.26 1176.31,1225.11 1178.12,1225.11 1179.94,1078.99 1181.75,1114.61 1183.56,1114.61 1185.38,1109.41 1187.19,1120.98 1189.01,1179.84 1190.82,1179.84 1192.64,1125.59 1194.45,1125.59 1196.27,964.527 1198.08,1042.74 1199.9,1042.74 1201.71,882.296 1203.53,900.887 1205.34,999.647 1207.16,999.647 1208.97,888.079 1210.79,888.079 1212.6,742.479 1214.42,762.992 1216.23,762.992 1218.05,770.34 1219.86,770.34 1221.68,625.016 1223.49,681.424 1225.3,681.424 1227.12,578.548 1228.93,671.074 1230.75,811.493 1232.56,926.458 1234.38,1020.58 1236.19,1020.58 1238.01,857.042 1239.82,886.552 1241.64,886.552 1243.45,680.201 1245.27,800.641 1247.08,917.573 1248.9,1013.31 1250.71,1013.31 1252.53,912.886 1254.34,930.535 1256.16,1023.92 1257.97,1100.38 1259.79,1100.38 1261.6,892.63 1263.42,973.061 1265.23,1058.74 1267.04,1058.74 1268.86,943.308 1270.67,971.593 1272.49,1057.54 1274.3,1057.54 1276.12,910.562 1277.93,910.562 1279.75,760.05 1281.56,835.905 1283.38,946.445 1285.19,1036.95 1287.01,1111.04 1288.82,1111.04 1290.64,1000.45 1292.45,1000.45 1294.27,834.701 1296.08,843.496 1297.9,843.496 1299.71,776.41 1301.53,776.41 1303.34,554.375 1305.16,571.09 1306.97,729.633 1308.78,729.633 1310.6,583.107 1312.41,583.107 1314.23,404.466 1316.04,441.681 1317.86,623.682 1319.67,623.682 1321.49,495.395 1323.3,495.395 1325.12,363.906 1326.93,363.906 1328.75,149.061 1330.56,149.061 1332.38,87.9763 1334.19,118.379 1336.01,358.985 1337.82,555.975 1339.64,555.975 1341.45,415.784 1343.27,516.825 1345.08,516.825 1346.9,318.852 1348.71,498.373 1350.52,670.097 1352.34,810.693 1354.15,925.803 1355.97,1020.05 1357.78,1097.21 1359.6,1160.38 1361.41,1212.1 1363.23,1212.1 1365.04,1049.72 1366.86,1115.43 1368.67,1115.43 1370.49,900.775 1372.3,900.775 1374.12,747.436 1375.93,775.902 1377.75,897.318 1379.56,897.318 1381.38,735.955 1383.19,858.928 1385.01,965.294 1386.82,965.294 1388.64,810.963 1390.45,912.318 1392.26,1009.01 1394.08,1088.17 1395.89,1152.98 1397.71,1206.04 1399.52,1249.49 1401.34,1249.49 1403.15,1105.59 1404.97,1130.68 1406.78,1130.68 1408.6,1116.77 1410.41,1135.37 1412.23,1135.37 1414.04,988.456 1415.86,1045.88 1417.67,1045.88 1419.49,930.924 1421.3,961.618 1423.12,961.618 1424.93,774.007 1426.75,853.402 1428.56,853.402 1430.38,826.852 1432.19,826.852 1434,710.161 1435.82,756.841 1437.63,756.841 1439.45,645.471 1441.26,733.338 1443.08,733.338 1444.89,784.443 1446.71,808.972 1448.52,808.972 1450.34,606.057 1452.15,606.057 1453.97,451.367 1455.78,451.367 1457.6,441.823 1459.41,479.199 1461.23,479.199 1463.04,435.814 1464.86,497.983 1466.67,669.777 1468.49,669.777 1470.3,701.18 1472.12,701.18 1473.93,545.511 1475.74,603.208 1477.56,755.929 1479.37,755.929 1481.19,653.468 1483,653.468 1484.82,550.506 1486.63,566.864 1488.45,726.172 1490.26,856.604 1492.08,856.604 1493.89,667.066 1495.71,667.066 1497.52,509.053 1499.34,624.64 1501.15,624.64 1502.97,546.016 1504.78,620.62 1506.6,620.62 1508.41,590.001 1510.23,606.775 1512.04,758.849 1513.86,758.849 1515.67,669.099 1517.48,669.099 1519.3,542.168 1521.11,567.72 1522.93,567.72 1524.74,504.593 1526.56,572.164 1528.37,572.164 1530.19,423.807 1532,591.126 1533.82,591.126 1535.63,650.91 1537.45,693.452 1539.26,829.814 1541.08,829.814 1542.89,671.64 1544.71,803.085 1546.52,919.574 1548.34,919.574 1550.15,770.462 1551.97,770.462 1553.78,677.206 1555.6,715.372 1557.41,847.761 1559.22,847.761 1561.04,735.884 1562.85,805.92 1564.67,921.896 1566.48,921.896 1568.3,776.655 1570.11,776.655 1571.93,590.344 1573.74,674.083 1575.56,813.956 1577.37,813.956 1579.19,658.587 1581,658.587 1582.82,554.417 1584.63,638.589 1586.45,638.589 1588.26,558.316 1590.08,558.316 1591.89,458.357 1593.71,466.826 1595.52,466.826 1597.34,350.997 1599.15,350.997 1600.96,301.72 1602.78,339.098 1604.59,339.098 1606.41,284.436 1608.22,387.861 1610.04,579.618 1611.85,579.618 1613.67,423.807 1615.48,598.418 1617.3,598.418 1619.11,678.677 1620.93,697.836 1622.74,697.836 1624.56,532.676 1626.37,532.676 1628.19,330.511 1630,435.008 1631.82,435.008 1633.63,323.642 1635.45,323.642 1637.26,400.678 1639.08,419.285 1640.89,419.285 1642.7,254.592 1644.52,254.592 1646.33,395.823 1648.15,414.022 1649.96,601.036 1651.78,601.036 1653.59,439.751 1655.41,439.751 1657.22,347.961 1659.04,406.408 1660.85,406.408 1662.67,379.66 1664.48,548.017 1666.3,548.017 1668.11,393.421 1669.93,393.421 1671.74,255.918 1673.56,430.149 1675.37,430.149 1677.19,317.123 1679,410.365 1680.82,598.043 1682.63,598.043 1684.44,586.221 1686.26,703.737 1688.07,703.737 1689.89,619.055 1691.7,619.055 1693.52,476.171 1695.33,526.855 1697.15,526.855 1698.96,501.368 1700.78,532.177 1702.59,697.774 1704.41,697.774 1706.22,542.991 1708.04,694.684 1709.85,830.823 1711.67,942.284 1713.48,1033.54 1715.3,1108.26 1717.11,1169.43 1718.93,1169.43 1720.74,1020.44 1722.55,1073.71 1724.37,1141.15 1726.18,1196.35 1728,1196.35 1729.81,1035.58 1731.63,1101.79 1733.44,1164.13 1735.26,1215.17 1737.07,1256.96 1738.89,1256.96 1740.7,1103.97 1742.52,1144.05 1744.33,1198.73 1746.15,1243.5 1747.96,1280.16 1749.78,1310.17 1751.59,1334.74 1753.41,1354.86 1755.22,1354.86 1757.04,1146.53 1758.85,1156.5 1760.67,1156.5 1762.48,1040.03 1764.29,1043.79 1766.11,1043.79 1767.92,908.542 1769.74,968.606 1771.55,968.606 1773.37,803.216 1775.18,803.216 1777,649.059 1778.81,778.707 1780.63,899.616 1782.44,899.616 1784.26,780.534 1786.07,849.114 1787.89,849.114 1789.7,705.582 1791.52,747.659 1793.33,874.195 1795.15,977.794 1796.96,977.794 1798.78,926.999 1800.59,926.999 1802.41,730.391 1804.22,823.282 1806.03,823.282 1807.85,754.109 1809.66,774.299 1811.48,896.006 1813.29,896.006 1815.11,762.054 1816.92,762.054 1818.74,670.405 1820.55,687.563 1822.37,687.563 1824.18,649.623 1826,660.618 1827.81,660.618 1829.63,550.665 1831.44,655.841 1833.26,799.021 1835.07,799.021 1836.89,646.588 1838.7,712.28 1840.52,712.28 1842.33,575.466 1844.15,575.466 1845.96,510.638 1847.77,510.638 1849.59,466.718 1851.4,487.483 1853.22,661.181 1855.03,803.393 1856.85,803.393 1858.66,658.257 1860.48,658.257 1862.29,633.783 1864.11,729.628 1865.92,729.628 1867.74,592.703 1869.55,652.873 1871.37,796.591 1873.18,796.591 1875,708.086 1876.81,759.111 1878.63,883.571 1880.44,883.571 1882.26,750.317 1884.07,750.317 1885.89,637.385 1887.7,683.139 1889.51,821.371 1891.33,821.371 1893.14,799.092 1894.96,799.092 1896.77,690.754 1898.59,728.055 1900.4,858.145 1902.22,858.145 1904.03,738.415 1905.85,816.34 1907.66,816.34 1909.48,666.365 1911.29,790.243 1913.11,909.06 1914.92,909.06 1916.74,820.801 1918.55,846.523 1920.37,955.138 1922.18,1044.07 1924,1044.07 1925.81,916.52 1927.63,965.678 1929.44,1052.69 1931.25,1052.69 1933.07,851.982 1934.88,931.444 1936.7,931.444 1938.51,814.567 1940.33,814.567 1942.14,639.266 1943.96,655.928 1945.77,799.092 1947.59,916.305 1949.4,1012.27 1951.22,1090.84 1953.03,1090.84 1954.85,929.213 1956.66,929.213 1958.48,809.839 1960.29,864.348 1962.11,969.732 1963.92,969.732 1965.74,828.025 1967.55,911.995 1969.37,911.995 1971.18,809.686 1972.99,853.564 1974.81,960.903 1976.62,960.903 1978.44,800.548 1980.25,910.518 1982.07,910.518 1983.88,758.831 1985.7,797.956 1987.51,797.956 1989.33,741.067 1991.14,751.063 1992.96,751.063 1994.77,612.303 1996.59,734.805 1998.4,863.671 2000.22,969.178 2002.03,969.178 2003.85,834.513 2005.66,909.27 2007.48,1006.51 2009.29,1006.51 2011.11,849.541 2012.92,946.578 2014.73,1037.06 2016.55,1111.13 2018.36,1171.78 2020.18,1221.44 2021.99,1262.09 2023.81,1262.09 2025.62,1095.6 2027.44,1095.6 2029.25,958.01 2031.07,1009.8 2032.88,1009.8 2034.7,873.704 2036.51,873.704 2038.33,745.899 2040.14,784.604 2041.96,904.443 2043.77,904.443 2045.59,785.048 2047.4,853.034 2049.22,853.034 2051.03,685.216 2052.85,760.123 2054.66,884.4 2056.47,884.4 2058.29,793.344 2060.1,828.44 2061.92,828.44 2063.73,714.704 2065.55,791.068 2067.36,909.735 2069.18,909.735 2070.99,780.981 2072.81,860.038 2074.62,966.204 2076.44,966.204 2078.25,836.771 2080.07,905.169 2081.88,905.169 2083.7,813.408 2085.51,844.735 2087.33,844.735 2089.14,753.401 2090.96,797.651 2092.77,915.125 2094.59,1011.3 2096.4,1090.05 2098.21,1154.52 2100.03,1207.31 2101.84,1250.52 2103.66,1285.9 2105.47,1314.87 2107.29,1314.87 2109.1,1161.98 2110.92,1161.98 2112.73,998.523 2114.55,1031.77 2116.36,1031.77 2118.18,840.315 2119.99,910.242 2121.81,910.242 2123.62,891.202 2125.44,891.202 2127.25,724.845 2129.07,811.954 2130.88,926.835 2132.7,1020.89 2134.51,1020.89 2136.33,924.348 2138.14,934.454 2139.95,1027.13 2141.77,1027.13 2143.58,880.797 2145.4,959.573 2147.21,959.573 2149.03,738.296 2150.84,865.385 2152.66,970.581 2154.47,1056.71 2156.29,1127.22 2158.1,1184.96 2159.92,1232.22 2161.73,1270.92 2163.55,1302.61 2165.36,1328.55 2167.18,1349.79 2168.99,1349.79 2170.81,1190.47 2172.62,1219.38 2174.44,1260.4 2176.25,1260.4 2178.07,1121.96 2179.88,1133.01 2181.69,1189.69 2183.51,1189.69 2185.32,1041.59 2187.14,1088.96 2188.95,1153.63 2190.77,1153.63 2192.58,1014.13 2194.4,1014.13 2196.21,883.676 2198.03,891.869 2199.84,891.869 2201.66,728.158 2203.47,855.067 2205.29,962.133 2207.1,962.133 2208.92,847.563 2210.73,896.849 2212.55,996.342 2214.36,996.342 2216.18,877.142 2217.99,925.216 2219.81,1019.57 2221.62,1019.57 2223.43,900.08 2225.25,943.358 2227.06,1034.42 2228.88,1034.42 2230.69,901.542 2232.51,901.542 2234.32,755.229 2236.14,805.832 2237.95,805.832 2239.77,630.605 2241.58,725.446 2243.4,725.446 2245.21,681.816 2247.03,691.43 2248.84,691.43 2250.66,525.214 2252.47,631.61 2254.29,779.183 2256.1,779.183 2257.92,716.567 2259.73,716.567 2261.55,559.823 2263.36,574.352 2265.17,574.352 2266.99,438.131 2268.8,590.898 2270.62,590.898 2272.43,497.756 2274.25,531.533 2276.06,531.533 2277.88,434.815 2279.69,486.337 2281.51,660.243 2283.32,660.243 2285.14,606.386 2286.95,606.386 2288.77,446.997 2290.58,482.527 "/>
<path clip-path="url(#clip980)" d="M2007.42 198.898 L2279.53 198.898 L2279.53 95.2176 L2007.42 95.2176  Z" fill="#ffffff" fill-rule="evenodd" fill-opacity="1"/>
<polyline clip-path="url(#clip980)" style="stroke:#000000; stroke-linecap:round; stroke-linejoin:round; stroke-width:4; stroke-opacity:1; fill:none" points="2007.42,198.898 2279.53,198.898 2279.53,95.2176 2007.42,95.2176 2007.42,198.898 "/>
<polyline clip-path="url(#clip980)" style="stroke:#009af9; stroke-linecap:round; stroke-linejoin:round; stroke-width:4; stroke-opacity:1; fill:none" points="2031.82,147.058 2178.28,147.058 "/>
<path clip-path="url(#clip980)" d="M2216.53 166.745 Q2214.73 171.375 2213.01 172.787 Q2211.3 174.199 2208.43 174.199 L2205.03 174.199 L2205.03 170.634 L2207.53 170.634 Q2209.29 170.634 2210.26 169.8 Q2211.23 168.967 2212.41 165.865 L2213.17 163.921 L2202.69 138.412 L2207.2 138.412 L2215.3 158.689 L2223.41 138.412 L2227.92 138.412 L2216.53 166.745 Z" fill="#000000" fill-rule="nonzero" fill-opacity="1" /><path clip-path="url(#clip980)" d="M2235.21 160.402 L2242.85 160.402 L2242.85 134.037 L2234.54 135.703 L2234.54 131.444 L2242.8 129.778 L2247.48 129.778 L2247.48 160.402 L2255.12 160.402 L2255.12 164.338 L2235.21 164.338 L2235.21 160.402 Z" fill="#000000" fill-rule="nonzero" fill-opacity="1" /></svg>
