<?xml version="1.0" encoding="utf-8"?>
<svg xmlns="http://www.w3.org/2000/svg" xmlns:xlink="http://www.w3.org/1999/xlink" width="600" height="400" viewBox="0 0 2400 1600">
<defs>
  <clipPath id="clip040">
    <rect x="0" y="0" width="2400" height="1600"/>
  </clipPath>
</defs>
<path clip-path="url(#clip040)" d="M0 1600 L2400 1600 L2400 0 L0 0  Z" fill="#ffffff" fill-rule="evenodd" fill-opacity="1"/>
<defs>
  <clipPath id="clip041">
    <rect x="480" y="0" width="1681" height="1600"/>
  </clipPath>
</defs>
<path clip-path="url(#clip040)" d="M140.696 1423.18 L2352.76 1423.18 L2352.76 47.2441 L140.696 47.2441  Z" fill="#ffffff" fill-rule="evenodd" fill-opacity="1"/>
<defs>
  <clipPath id="clip042">
    <rect x="140" y="47" width="2213" height="1377"/>
  </clipPath>
</defs>
<polyline clip-path="url(#clip042)" style="stroke:#000000; stroke-linecap:round; stroke-linejoin:round; stroke-width:2; stroke-opacity:0.1; fill:none" points="579.333,1423.18 579.333,47.2441 "/>
<polyline clip-path="url(#clip042)" style="stroke:#000000; stroke-linecap:round; stroke-linejoin:round; stroke-width:2; stroke-opacity:0.1; fill:none" points="1024,1423.18 1024,47.2441 "/>
<polyline clip-path="url(#clip042)" style="stroke:#000000; stroke-linecap:round; stroke-linejoin:round; stroke-width:2; stroke-opacity:0.1; fill:none" points="1468.67,1423.18 1468.67,47.2441 "/>
<polyline clip-path="url(#clip042)" style="stroke:#000000; stroke-linecap:round; stroke-linejoin:round; stroke-width:2; stroke-opacity:0.1; fill:none" points="1913.34,1423.18 1913.34,47.2441 "/>
<polyline clip-path="url(#clip042)" style="stroke:#000000; stroke-linecap:round; stroke-linejoin:round; stroke-width:2; stroke-opacity:0.1; fill:none" points="140.696,1386.96 2352.76,1386.96 "/>
<polyline clip-path="url(#clip042)" style="stroke:#000000; stroke-linecap:round; stroke-linejoin:round; stroke-width:2; stroke-opacity:0.1; fill:none" points="140.696,985.918 2352.76,985.918 "/>
<polyline clip-path="url(#clip042)" style="stroke:#000000; stroke-linecap:round; stroke-linejoin:round; stroke-width:2; stroke-opacity:0.1; fill:none" points="140.696,584.878 2352.76,584.878 "/>
<polyline clip-path="url(#clip042)" style="stroke:#000000; stroke-linecap:round; stroke-linejoin:round; stroke-width:2; stroke-opacity:0.1; fill:none" points="140.696,183.838 2352.76,183.838 "/>
<polyline clip-path="url(#clip040)" style="stroke:#000000; stroke-linecap:round; stroke-linejoin:round; stroke-width:4; stroke-opacity:1; fill:none" points="140.696,1423.18 2352.76,1423.18 "/>
<polyline clip-path="url(#clip040)" style="stroke:#000000; stroke-linecap:round; stroke-linejoin:round; stroke-width:4; stroke-opacity:1; fill:none" points="579.333,1423.18 579.333,1404.28 "/>
<polyline clip-path="url(#clip040)" style="stroke:#000000; stroke-linecap:round; stroke-linejoin:round; stroke-width:4; stroke-opacity:1; fill:none" points="1024,1423.18 1024,1404.28 "/>
<polyline clip-path="url(#clip040)" style="stroke:#000000; stroke-linecap:round; stroke-linejoin:round; stroke-width:4; stroke-opacity:1; fill:none" points="1468.67,1423.18 1468.67,1404.28 "/>
<polyline clip-path="url(#clip040)" style="stroke:#000000; stroke-linecap:round; stroke-linejoin:round; stroke-width:4; stroke-opacity:1; fill:none" points="1913.34,1423.18 1913.34,1404.28 "/>
<path clip-path="url(#clip040)" d="M554.02 1481.64 L561.659 1481.64 L561.659 1455.28 L553.349 1456.95 L553.349 1452.69 L561.613 1451.02 L566.289 1451.02 L566.289 1481.64 L573.928 1481.64 L573.928 1485.58 L554.02 1485.58 L554.02 1481.64 Z" fill="#000000" fill-rule="nonzero" fill-opacity="1" /><path clip-path="url(#clip040)" d="M593.372 1454.1 Q589.761 1454.1 587.932 1457.66 Q586.127 1461.2 586.127 1468.33 Q586.127 1475.44 587.932 1479.01 Q589.761 1482.55 593.372 1482.55 Q597.006 1482.55 598.812 1479.01 Q600.64 1475.44 600.64 1468.33 Q600.64 1461.2 598.812 1457.66 Q597.006 1454.1 593.372 1454.1 M593.372 1450.39 Q599.182 1450.39 602.238 1455 Q605.316 1459.58 605.316 1468.33 Q605.316 1477.06 602.238 1481.67 Q599.182 1486.25 593.372 1486.25 Q587.562 1486.25 584.483 1481.67 Q581.427 1477.06 581.427 1468.33 Q581.427 1459.58 584.483 1455 Q587.562 1450.39 593.372 1450.39 Z" fill="#000000" fill-rule="nonzero" fill-opacity="1" /><path clip-path="url(#clip040)" d="M1002.77 1481.64 L1019.09 1481.64 L1019.09 1485.58 L997.15 1485.58 L997.15 1481.64 Q999.812 1478.89 1004.4 1474.26 Q1009 1469.61 1010.18 1468.27 Q1012.43 1465.74 1013.31 1464.01 Q1014.21 1462.25 1014.21 1460.56 Q1014.21 1457.8 1012.27 1456.07 Q1010.34 1454.33 1007.24 1454.33 Q1005.04 1454.33 1002.59 1455.09 Q1000.16 1455.86 997.381 1457.41 L997.381 1452.69 Q1000.21 1451.55 1002.66 1450.97 Q1005.11 1450.39 1007.15 1450.39 Q1012.52 1450.39 1015.71 1453.08 Q1018.91 1455.77 1018.91 1460.26 Q1018.91 1462.39 1018.1 1464.31 Q1017.31 1466.2 1015.21 1468.8 Q1014.63 1469.47 1011.52 1472.69 Q1008.42 1475.88 1002.77 1481.64 Z" fill="#000000" fill-rule="nonzero" fill-opacity="1" /><path clip-path="url(#clip040)" d="M1038.91 1454.1 Q1035.3 1454.1 1033.47 1457.66 Q1031.66 1461.2 1031.66 1468.33 Q1031.66 1475.44 1033.47 1479.01 Q1035.3 1482.55 1038.91 1482.55 Q1042.54 1482.55 1044.35 1479.01 Q1046.18 1475.44 1046.18 1468.33 Q1046.18 1461.2 1044.35 1457.66 Q1042.54 1454.1 1038.91 1454.1 M1038.91 1450.39 Q1044.72 1450.39 1047.77 1455 Q1050.85 1459.58 1050.85 1468.33 Q1050.85 1477.06 1047.77 1481.67 Q1044.72 1486.25 1038.91 1486.25 Q1033.1 1486.25 1030.02 1481.67 Q1026.96 1477.06 1026.96 1468.33 Q1026.96 1459.58 1030.02 1455 Q1033.1 1450.39 1038.91 1450.39 Z" fill="#000000" fill-rule="nonzero" fill-opacity="1" /><path clip-path="url(#clip040)" d="M1457.51 1466.95 Q1460.87 1467.66 1462.74 1469.93 Q1464.64 1472.2 1464.64 1475.53 Q1464.64 1480.65 1461.12 1483.45 Q1457.61 1486.25 1451.12 1486.25 Q1448.95 1486.25 1446.63 1485.81 Q1444.34 1485.39 1441.89 1484.54 L1441.89 1480.02 Q1443.83 1481.16 1446.15 1481.74 Q1448.46 1482.32 1450.99 1482.32 Q1455.38 1482.32 1457.67 1480.58 Q1459.99 1478.84 1459.99 1475.53 Q1459.99 1472.48 1457.84 1470.77 Q1455.71 1469.03 1451.89 1469.03 L1447.86 1469.03 L1447.86 1465.19 L1452.07 1465.19 Q1455.52 1465.19 1457.35 1463.82 Q1459.18 1462.43 1459.18 1459.84 Q1459.18 1457.18 1457.28 1455.77 Q1455.41 1454.33 1451.89 1454.33 Q1449.97 1454.33 1447.77 1454.75 Q1445.57 1455.16 1442.93 1456.04 L1442.93 1451.88 Q1445.59 1451.14 1447.91 1450.77 Q1450.24 1450.39 1452.3 1450.39 Q1457.63 1450.39 1460.73 1452.83 Q1463.83 1455.23 1463.83 1459.35 Q1463.83 1462.22 1462.19 1464.21 Q1460.55 1466.18 1457.51 1466.95 Z" fill="#000000" fill-rule="nonzero" fill-opacity="1" /><path clip-path="url(#clip040)" d="M1483.51 1454.1 Q1479.9 1454.1 1478.07 1457.66 Q1476.26 1461.2 1476.26 1468.33 Q1476.26 1475.44 1478.07 1479.01 Q1479.9 1482.55 1483.51 1482.55 Q1487.14 1482.55 1488.95 1479.01 Q1490.78 1475.44 1490.78 1468.33 Q1490.78 1461.2 1488.95 1457.66 Q1487.14 1454.1 1483.51 1454.1 M1483.51 1450.39 Q1489.32 1450.39 1492.37 1455 Q1495.45 1459.58 1495.45 1468.33 Q1495.45 1477.06 1492.37 1481.67 Q1489.32 1486.25 1483.51 1486.25 Q1477.7 1486.25 1474.62 1481.67 Q1471.56 1477.06 1471.56 1468.33 Q1471.56 1459.58 1474.62 1455 Q1477.7 1450.39 1483.51 1450.39 Z" fill="#000000" fill-rule="nonzero" fill-opacity="1" /><path clip-path="url(#clip040)" d="M1901.51 1455.09 L1889.7 1473.54 L1901.51 1473.54 L1901.51 1455.09 M1900.28 1451.02 L1906.16 1451.02 L1906.16 1473.54 L1911.09 1473.54 L1911.09 1477.43 L1906.16 1477.43 L1906.16 1485.58 L1901.51 1485.58 L1901.51 1477.43 L1885.91 1477.43 L1885.91 1472.92 L1900.28 1451.02 Z" fill="#000000" fill-rule="nonzero" fill-opacity="1" /><path clip-path="url(#clip040)" d="M1928.83 1454.1 Q1925.21 1454.1 1923.39 1457.66 Q1921.58 1461.2 1921.58 1468.33 Q1921.58 1475.44 1923.39 1479.01 Q1925.21 1482.55 1928.83 1482.55 Q1932.46 1482.55 1934.26 1479.01 Q1936.09 1475.44 1936.09 1468.33 Q1936.09 1461.2 1934.26 1457.66 Q1932.46 1454.1 1928.83 1454.1 M1928.83 1450.39 Q1934.64 1450.39 1937.69 1455 Q1940.77 1459.58 1940.77 1468.33 Q1940.77 1477.06 1937.69 1481.67 Q1934.64 1486.25 1928.83 1486.25 Q1923.01 1486.25 1919.94 1481.67 Q1916.88 1477.06 1916.88 1468.33 Q1916.88 1459.58 1919.94 1455 Q1923.01 1450.39 1928.83 1450.39 Z" fill="#000000" fill-rule="nonzero" fill-opacity="1" /><path clip-path="url(#clip040)" d="M1245.79 1522.27 L1245.79 1532.4 L1257.85 1532.4 L1257.85 1536.95 L1245.79 1536.95 L1245.79 1556.3 Q1245.79 1560.66 1246.96 1561.9 Q1248.17 1563.14 1251.83 1563.14 L1257.85 1563.14 L1257.85 1568.04 L1251.83 1568.04 Q1245.05 1568.04 1242.48 1565.53 Q1239.9 1562.98 1239.9 1556.3 L1239.9 1536.95 L1235.6 1536.95 L1235.6 1532.4 L1239.9 1532.4 L1239.9 1522.27 L1245.79 1522.27 Z" fill="#000000" fill-rule="nonzero" fill-opacity="1" /><polyline clip-path="url(#clip040)" style="stroke:#000000; stroke-linecap:round; stroke-linejoin:round; stroke-width:4; stroke-opacity:1; fill:none" points="140.696,1423.18 140.696,47.2441 "/>
<polyline clip-path="url(#clip040)" style="stroke:#000000; stroke-linecap:round; stroke-linejoin:round; stroke-width:4; stroke-opacity:1; fill:none" points="140.696,1386.96 159.593,1386.96 "/>
<polyline clip-path="url(#clip040)" style="stroke:#000000; stroke-linecap:round; stroke-linejoin:round; stroke-width:4; stroke-opacity:1; fill:none" points="140.696,985.918 159.593,985.918 "/>
<polyline clip-path="url(#clip040)" style="stroke:#000000; stroke-linecap:round; stroke-linejoin:round; stroke-width:4; stroke-opacity:1; fill:none" points="140.696,584.878 159.593,584.878 "/>
<polyline clip-path="url(#clip040)" style="stroke:#000000; stroke-linecap:round; stroke-linejoin:round; stroke-width:4; stroke-opacity:1; fill:none" points="140.696,183.838 159.593,183.838 "/>
<path clip-path="url(#clip040)" d="M92.7512 1372.76 Q89.1401 1372.76 87.3114 1376.32 Q85.5058 1379.86 85.5058 1386.99 Q85.5058 1394.1 87.3114 1397.66 Q89.1401 1401.21 92.7512 1401.21 Q96.3854 1401.21 98.1909 1397.66 Q100.02 1394.1 100.02 1386.99 Q100.02 1379.86 98.1909 1376.32 Q96.3854 1372.76 92.7512 1372.76 M92.7512 1369.05 Q98.5613 1369.05 101.617 1373.66 Q104.696 1378.24 104.696 1386.99 Q104.696 1395.72 101.617 1400.33 Q98.5613 1404.91 92.7512 1404.91 Q86.941 1404.91 83.8623 1400.33 Q80.8068 1395.72 80.8068 1386.99 Q80.8068 1378.24 83.8623 1373.66 Q86.941 1369.05 92.7512 1369.05 Z" fill="#000000" fill-rule="nonzero" fill-opacity="1" /><path clip-path="url(#clip040)" d="M53.3995 999.263 L61.0384 999.263 L61.0384 972.897 L52.7282 974.564 L52.7282 970.305 L60.9921 968.638 L65.668 968.638 L65.668 999.263 L73.3068 999.263 L73.3068 1003.2 L53.3995 1003.2 L53.3995 999.263 Z" fill="#000000" fill-rule="nonzero" fill-opacity="1" /><path clip-path="url(#clip040)" d="M92.7512 971.717 Q89.1401 971.717 87.3114 975.282 Q85.5058 978.823 85.5058 985.953 Q85.5058 993.059 87.3114 996.624 Q89.1401 1000.17 92.7512 1000.17 Q96.3854 1000.17 98.1909 996.624 Q100.02 993.059 100.02 985.953 Q100.02 978.823 98.1909 975.282 Q96.3854 971.717 92.7512 971.717 M92.7512 968.013 Q98.5613 968.013 101.617 972.62 Q104.696 977.203 104.696 985.953 Q104.696 994.68 101.617 999.286 Q98.5613 1003.87 92.7512 1003.87 Q86.941 1003.87 83.8623 999.286 Q80.8068 994.68 80.8068 985.953 Q80.8068 977.203 83.8623 972.62 Q86.941 968.013 92.7512 968.013 Z" fill="#000000" fill-rule="nonzero" fill-opacity="1" /><path clip-path="url(#clip040)" d="M56.6171 598.223 L72.9365 598.223 L72.9365 602.158 L50.9921 602.158 L50.9921 598.223 Q53.6541 595.468 58.2375 590.839 Q62.8439 586.186 64.0245 584.843 Q66.2698 582.32 67.1494 580.584 Q68.0522 578.825 68.0522 577.135 Q68.0522 574.38 66.1078 572.644 Q64.1865 570.908 61.0847 570.908 Q58.8856 570.908 56.4319 571.672 Q54.0014 572.436 51.2236 573.987 L51.2236 569.265 Q54.0477 568.13 56.5014 567.552 Q58.955 566.973 60.9921 566.973 Q66.3624 566.973 69.5568 569.658 Q72.7513 572.343 72.7513 576.834 Q72.7513 578.964 71.9411 580.885 Q71.1541 582.783 69.0476 585.376 Q68.4689 586.047 65.367 589.264 Q62.2652 592.459 56.6171 598.223 Z" fill="#000000" fill-rule="nonzero" fill-opacity="1" /><path clip-path="url(#clip040)" d="M92.7512 570.677 Q89.1401 570.677 87.3114 574.241 Q85.5058 577.783 85.5058 584.913 Q85.5058 592.019 87.3114 595.584 Q89.1401 599.126 92.7512 599.126 Q96.3854 599.126 98.1909 595.584 Q100.02 592.019 100.02 584.913 Q100.02 577.783 98.1909 574.241 Q96.3854 570.677 92.7512 570.677 M92.7512 566.973 Q98.5613 566.973 101.617 571.579 Q104.696 576.163 104.696 584.913 Q104.696 593.639 101.617 598.246 Q98.5613 602.829 92.7512 602.829 Q86.941 602.829 83.8623 598.246 Q80.8068 593.639 80.8068 584.913 Q80.8068 576.163 83.8623 571.579 Q86.941 566.973 92.7512 566.973 Z" fill="#000000" fill-rule="nonzero" fill-opacity="1" /><path clip-path="url(#clip040)" d="M66.7559 182.484 Q70.1124 183.201 71.9874 185.47 Q73.8855 187.738 73.8855 191.071 Q73.8855 196.187 70.367 198.988 Q66.8485 201.789 60.3671 201.789 Q58.1912 201.789 55.8764 201.349 Q53.5847 200.933 51.131 200.076 L51.131 195.562 Q53.0754 196.696 55.3903 197.275 Q57.7051 197.854 60.2282 197.854 Q64.6263 197.854 66.918 196.118 Q69.2328 194.382 69.2328 191.071 Q69.2328 188.016 67.08 186.303 Q64.9504 184.567 61.131 184.567 L57.1032 184.567 L57.1032 180.724 L61.3161 180.724 Q64.7652 180.724 66.5939 179.359 Q68.4226 177.97 68.4226 175.377 Q68.4226 172.715 66.5245 171.303 Q64.6495 169.868 61.131 169.868 Q59.2097 169.868 57.0106 170.285 Q54.8115 170.701 52.1727 171.581 L52.1727 167.414 Q54.8347 166.673 57.1495 166.303 Q59.4875 165.933 61.5476 165.933 Q66.8717 165.933 69.9735 168.363 Q73.0753 170.771 73.0753 174.891 Q73.0753 177.761 71.4318 179.752 Q69.7883 181.72 66.7559 182.484 Z" fill="#000000" fill-rule="nonzero" fill-opacity="1" /><path clip-path="url(#clip040)" d="M92.7512 169.636 Q89.1401 169.636 87.3114 173.201 Q85.5058 176.743 85.5058 183.872 Q85.5058 190.979 87.3114 194.544 Q89.1401 198.085 92.7512 198.085 Q96.3854 198.085 98.1909 194.544 Q100.02 190.979 100.02 183.872 Q100.02 176.743 98.1909 173.201 Q96.3854 169.636 92.7512 169.636 M92.7512 165.933 Q98.5613 165.933 101.617 170.539 Q104.696 175.123 104.696 183.872 Q104.696 192.599 101.617 197.206 Q98.5613 201.789 92.7512 201.789 Q86.941 201.789 83.8623 197.206 Q80.8068 192.599 80.8068 183.872 Q80.8068 175.123 83.8623 170.539 Q86.941 165.933 92.7512 165.933 Z" fill="#000000" fill-rule="nonzero" fill-opacity="1" /><polyline clip-path="url(#clip042)" style="stroke:#009af9; stroke-linecap:round; stroke-linejoin:round; stroke-width:4; stroke-opacity:1; fill:none" points="140.696,1384.24 140.696,1384.24 144.57,1382.49 160.038,1374.51 164.09,1372.52 164.81,1372.17 166.272,1371.46 167.292,1370.96 175.794,1366.9 182.946,1363.54 193.09,1358.83 193.117,1358.82 193.211,1358.76 205.242,1351.57 205.402,1351.48 209.411,1349.27 221.587,1342.92 222.246,1342.59 227.544,1339.96 257.207,1325.92 266.872,1321.48 271.35,1319.06 287.004,1311.11 295.393,1307.06 301.129,1303.88 302.58,1303.1 308.013,1299.8 313.067,1296.9 319.691,1293.29 319.763,1293.25 332.275,1286.84 341.272,1282.44 345.653,1280.34 349.673,1278.44 354.966,1275.95 360.888,1273.2 367.754,1270.02 368.308,1269.77 391.139,1258.06 398.884,1253.74 416.189,1244.87 429.994,1238.23 431.973,1237.29 447.111,1230.25 464.552,1222.26 467.952,1220.71 470.986,1219.33 474.343,1217.81 497.055,1207.52 499.027,1206.63 499.612,1206.37 503.362,1204.67 504.23,1204.28 507.684,1202.43 517.08,1197.6 519.256,1196.51 528.249,1191.45 535.368,1187.13 544.529,1182.01 544.709,1181.9 548.648,1179.16 549.863,1178.35 554.432,1175.42 554.56,1175.33 569.087,1166 569.536,1165.74 572.233,1164.18 575.156,1162.54 577.287,1161.37 580.726,1159.52 581.237,1159.25 590.998,1154.23 606.666,1146.6 614.744,1142.78 617.187,1141.64 618.105,1141.21 619.371,1140.62 638.394,1131.87 649.53,1126 650.505,1125.51 654.393,1123.55 669.576,1116.19 678.235,1112.12 694.367,1104.66 701.482,1101.4 716.141,1094.73 718.691,1093.58 734.85,1086.26 736.762,1085.39 742.535,1082.78 743.535,1082.33 759.808,1073.94 761.545,1072.94 762.403,1072.45 767.566,1069.57 773.658,1065.84 795.934,1052.55 810.07,1045.29 815.248,1042.33 823.382,1037.93 843.682,1027.79 858.764,1019.67 862.389,1017.53 883.218,1006.41 886.818,1004.32 888.112,1003.58 890.345,1002.15 911.582,990.057 924.695,983.445 929.009,980.992 930.678,979.923 934.033,977.842 937.264,975.914 940.598,973.99 946.295,970.834 959.059,964.2 961.638,962.913 964.261,961.618 971.479,958.115 977.956,955.03 982.748,952.775 988.574,950.059 997.519,945.926 1003.43,943.212 1016.2,937.388 1027.44,932.285 1036.64,928.12 1048.59,922.716 1069.53,912.035 1071.97,910.852 1075.57,908.826 1077.06,907.875 1079.56,906.101 1085.64,902.069 1090.05,898.987 1101.83,891.609 1107.43,888.429 1119.61,881.97 1131.53,876.041 1167.46,859.221 1181.85,852.658 1182.98,852.142 1205.29,840.763 1217.38,834.99 1223.32,831.737 1228.66,828.932 1229.05,828.729 1236.7,824.86 1244.82,820.882 1245.68,820.393 1248.49,818.579 1249.2,818.128 1252.72,815.669 1271.87,804.1 1273.66,803.13 1290.05,794.703 1300.65,789.566 1311.75,784.33 1318.64,781.127 1319.32,780.751 1339.35,770.415 1339.39,770.389 1343.74,767.918 1343.74,767.914 1351.09,763.929 1352.25,763.323 1358.57,760.072 1359.41,759.648 1359.56,759.571 1361.45,758.625 1372.99,752.983 1375.88,751.604 1411.28,735.196 1415.83,733.123 1418.83,731.756 1424.42,729.217 1433.68,725.022 1462.52,711.985 1467.38,709.399 1470.13,707.967 1476.2,704.891 1479.21,703.392 1483.13,701.474 1485,700.565 1488.32,698.689 1494.51,694.835 1496.04,693.929 1497.9,692.84 1498.95,692.233 1502.83,690.052 1511.33,684.859 1511.66,684.666 1519.76,679.528 1521.62,678.415 1532.19,672.467 1532.44,672.333 1537.89,669.459 1543.82,666.433 1551.35,662.708 1552.52,662.037 1555.95,660.108 1558.08,658.756 1565.27,654.429 1571.25,651.066 1580.59,645.425 1583.15,643.755 1590.87,638.448 1598.55,633.695 1599.78,632.975 1606.92,628.945 1608.76,627.946 1613.48,625.055 1615.22,623.879 1616.6,622.968 1619.12,621.129 1622.23,618.702 1629.03,613.837 1637.08,608.681 1639.41,607.283 1639.9,606.991 1643.34,604.999 1646.14,603.19 1646.58,602.909 1650.6,600.435 1655.57,597.518 1658.66,595.779 1660.5,594.763 1664.63,592.54 1665.25,592.153 1671.3,588.07 1678.84,583.423 1684.71,580.058 1685.36,579.639 1690.27,576.19 1695.81,572.143 1723.6,554.273 1736,547.765 1754.93,537.377 1788.08,519.807 1793.07,517.402 1795.09,516.44 1797.79,514.931 1798.22,514.69 1808.65,509.157 1814.21,506.34 1824.63,501.234 1825.76,500.693 1832.64,497.418 1839.11,493.875 1841.69,492.286 1846.33,489.172 1848.31,487.905 1858.07,482.066 1860.9,480.477 1863.67,478.961 1863.95,478.81 1874.08,473.511 1874.97,472.978 1880.59,469.746 1889.51,464.913 1896.92,461.112 1898.7,460.215 1905.66,456.247 1907.77,455.095 1915.19,451.164 1918.38,449.527 1930.19,443.678 1942.3,437.062 1950.16,433.039 1955.62,430.333 1957.34,429.493 1975.91,420.659 1978.05,419.48 1985.68,414.831 1991.79,410.889 1998.12,407.105 2005.42,403.023 2010.85,400.131 2012.08,399.491 2026.05,392.485 2033.9,388.113 2060.1,374.928 2062.03,374.008 2066.14,371.721 2067.71,370.87 2075.45,366.205 2080.01,363.257 2089.98,357.342 2093.2,355.55 2101.73,351.011 2110.79,345.76 2116.76,342.524 2120.86,340.035 2160.38,319.605 2160.64,319.485 2164.07,317.86 2168.37,315.842 2168.38,315.836 2184.15,308.538 2190.14,305.794 2193.52,303.965 2239.72,281.522 2250.52,276.566 2257.41,273.419 2266.8,269.149 2268.75,268.265 2269.19,268.023 2280.5,261.315 2289.34,256.533 2298.36,251.922 2306.55,247.894 2307.4,247.484 2310.79,245.854 2317.71,242.569 2319.7,241.629 2330.66,236.529 2330.96,236.361 2332.12,235.725 2339.41,231.283 2343.5,228.939 2352.56,224.029 2352.76,223.91 "/>
<polyline clip-path="url(#clip042)" style="stroke:#e26f46; stroke-linecap:round; stroke-linejoin:round; stroke-width:4; stroke-opacity:1; fill:none" points="140.696,1384.24 140.696,1384.24 144.57,1382.17 160.038,1374.35 164.09,1372.05 164.81,1371.65 166.272,1370.84 167.292,1370.29 175.794,1365.8 182.946,1361.64 193.09,1356.16 193.117,1356.15 193.211,1356.09 205.242,1349.18 205.402,1349.08 209.411,1346.6 221.587,1339.69 222.246,1339.33 227.544,1336.12 257.207,1319 266.872,1313.46 271.35,1310.68 287.004,1301.9 295.393,1296.96 301.129,1293.34 302.58,1292.34 308.013,1288.77 313.067,1285.26 319.691,1280.51 319.763,1280.47 332.275,1272.65 341.272,1267.64 345.653,1264.96 349.673,1262.61 354.966,1259.66 360.888,1256.49 367.754,1252.96 368.308,1252.68 391.139,1241.64 398.884,1238.03 416.189,1230.06 429.994,1223.78 431.973,1222.88 447.111,1216.02 464.552,1208.13 467.952,1206.6 470.986,1204.97 474.343,1203.21 497.055,1192 499.027,1191.07 499.612,1190.79 503.362,1189.02 504.23,1188.62 507.684,1187 517.08,1182.65 519.256,1181.65 528.249,1176.86 535.368,1173.24 544.529,1168.75 544.709,1168.67 548.648,1166.45 549.863,1165.78 554.432,1162.95 554.56,1162.86 569.087,1152.78 569.536,1152.5 572.233,1150.85 575.156,1149.13 577.287,1147.9 580.726,1145.97 581.237,1145.69 590.998,1140.5 606.666,1132.71 614.744,1128.85 617.187,1127.7 618.105,1127.27 619.371,1126.67 638.394,1116.71 649.53,1110.5 650.505,1109.89 654.393,1107.55 669.576,1099.18 678.235,1094.77 694.367,1086.95 701.482,1083.6 716.141,1076.81 718.691,1075.64 734.85,1068.27 736.762,1067.4 742.535,1064.78 743.535,1064.24 759.808,1055.87 761.545,1054.87 762.403,1054.3 767.566,1051.03 773.658,1047.42 795.934,1035.63 810.07,1028.78 815.248,1025.92 823.382,1021.02 843.682,1010.2 858.764,1002.85 862.389,1001.13 883.218,990.222 886.818,988.453 888.112,987.709 890.345,986.447 911.582,975.382 924.695,969.054 929.009,966.664 930.678,965.761 934.033,963.978 937.264,962.026 940.598,960.082 946.295,956.444 959.059,949.088 961.638,947.699 964.261,946.313 971.479,942.605 977.956,939.386 982.748,937.054 988.574,934.264 997.519,930.049 1003.43,927.297 1016.2,921.417 1027.44,915.49 1036.64,910.901 1048.59,905.152 1069.53,894.177 1071.97,892.975 1075.57,891.222 1077.06,890.502 1079.56,889.298 1085.64,885.928 1090.05,883.584 1101.83,876.769 1107.43,873.767 1119.61,866.726 1131.53,859.633 1167.46,839.893 1181.85,832.985 1182.98,832.45 1205.29,822.113 1217.38,816.593 1223.32,813.893 1228.66,811.472 1229.05,811.293 1236.7,807.247 1244.82,803.136 1245.68,802.635 1248.49,801.025 1249.2,800.622 1252.72,798.377 1271.87,786.373 1273.66,785.378 1290.05,776.797 1300.65,771.607 1311.75,766.336 1318.64,763.119 1319.32,762.802 1339.35,752.408 1339.39,752.382 1343.74,749.904 1343.74,749.899 1351.09,745.341 1352.25,744.66 1358.57,741.065 1359.41,740.603 1359.56,740.506 1361.45,739.315 1372.99,731.748 1375.88,730.025 1411.28,711.638 1415.83,709.101 1418.83,707.475 1424.42,704.54 1433.68,699.871 1462.52,684.71 1467.38,682.361 1470.13,681.042 1476.2,677.692 1479.21,675.828 1483.13,673.504 1485,672.425 1488.32,670.558 1494.51,667.206 1496.04,666.403 1497.9,665.431 1498.95,664.887 1502.83,662.91 1511.33,658.695 1511.66,658.534 1519.76,654.027 1521.62,653.03 1532.19,646.823 1532.44,646.685 1537.89,643.719 1543.82,640.616 1551.35,636.244 1552.52,635.49 1555.95,633.057 1558.08,631.612 1565.27,626.472 1571.25,622.609 1580.59,617.1 1583.15,615.676 1590.87,610.959 1598.55,606.621 1599.78,605.847 1606.92,601.558 1608.76,600.345 1613.48,596.98 1615.22,595.804 1616.6,594.773 1619.12,592.947 1622.23,590.795 1629.03,585.887 1637.08,580.693 1639.41,579.287 1639.9,578.994 1643.34,576.991 1646.14,575.41 1646.58,575.164 1650.6,572.636 1655.57,569.664 1658.66,567.896 1660.5,566.865 1664.63,564.613 1665.25,564.222 1671.3,560.105 1678.84,555.426 1684.71,552.044 1685.36,551.681 1690.27,549.003 1695.81,546.087 1723.6,532.501 1736,526.728 1754.93,516.905 1788.08,499.661 1793.07,497.275 1795.09,496.145 1797.79,494.664 1798.22,494.388 1808.65,487.448 1814.21,484.109 1824.63,478.318 1825.76,477.72 1832.64,474.156 1839.11,470.917 1841.69,469.647 1846.33,467.397 1848.31,466.447 1858.07,461.107 1860.9,459.627 1863.67,458.205 1863.95,458.063 1874.08,453.018 1874.97,452.503 1880.59,449.365 1889.51,444.641 1896.92,440.902 1898.7,439.862 1905.66,435.975 1907.77,434.843 1915.19,430.969 1918.38,429.083 1930.19,422.569 1942.3,416.397 1950.16,412.556 1955.62,409.944 1957.34,409.129 1975.91,400.472 1978.05,399.489 1985.68,395.988 1991.79,393.201 1998.12,390.321 2005.42,386.447 2010.85,383.671 2012.08,382.945 2026.05,374.304 2033.9,369.375 2060.1,355.281 2062.03,354.327 2066.14,352.315 2067.71,351.557 2075.45,347.854 2080.01,345.706 2089.98,341.061 2093.2,339.301 2101.73,334.828 2110.79,329.624 2116.76,325.939 2120.86,323.541 2160.38,301.821 2160.64,301.675 2164.07,299.729 2168.37,297.374 2168.38,297.367 2184.15,289.264 2190.14,285.863 2193.52,284.017 2239.72,261.483 2250.52,256.522 2257.41,253.373 2266.8,248.41 2268.75,247.415 2269.19,247.189 2280.5,241.593 2289.34,237.36 2298.36,233.125 2306.55,229.328 2307.4,228.862 2310.79,227.03 2317.71,223.417 2319.7,222.4 2330.66,216.98 2330.96,216.832 2332.12,216.271 2339.41,212.222 2343.5,210.049 2352.56,205.421 2352.76,205.324 "/>
<polyline clip-path="url(#clip042)" style="stroke:#3da44d; stroke-linecap:round; stroke-linejoin:round; stroke-width:4; stroke-opacity:1; fill:none" points="140.696,1384.24 140.696,1384.24 144.57,1382.49 160.038,1375.52 164.09,1373.69 164.81,1373.36 166.272,1372.58 167.292,1371.94 175.794,1366.93 182.946,1363.01 193.09,1357.76 193.117,1357.75 193.211,1357.7 205.242,1350.96 205.402,1350.87 209.411,1348.43 221.587,1340.74 222.246,1340.3 227.544,1336.88 257.207,1320.68 266.872,1315.96 271.35,1313.82 287.004,1306.5 295.393,1302.63 301.129,1300 302.58,1299.34 308.013,1296.86 313.067,1294.56 319.691,1291.55 319.763,1291.52 332.275,1284.99 341.272,1279.87 345.653,1277.52 349.673,1275.08 354.966,1271.61 360.888,1267.99 367.754,1263.54 368.308,1263.2 391.139,1250.55 398.884,1246.68 416.189,1237.29 429.994,1229.51 431.973,1228.47 447.111,1220.83 464.552,1211.42 467.952,1209.42 470.986,1207.69 474.343,1205.55 497.055,1191.56 499.027,1190.32 499.612,1189.91 503.362,1187.35 504.23,1186.7 507.684,1184.2 517.08,1178.05 519.256,1176.54 528.249,1170.78 535.368,1166.64 544.529,1160.99 544.709,1160.88 548.648,1158.63 549.863,1157.95 554.432,1155.46 554.56,1155.39 569.087,1147.93 569.536,1147.71 572.233,1146.15 575.156,1144.26 577.287,1142.93 580.726,1140.56 581.237,1140.18 590.998,1132.67 606.666,1122.76 614.744,1118.26 617.187,1116.75 618.105,1116.12 619.371,1115.14 638.394,1102.59 649.53,1096.41 650.505,1095.89 654.393,1093.54 669.576,1085.16 678.235,1080.1 694.367,1070.54 701.482,1066.74 716.141,1058.41 718.691,1056.84 734.85,1046.75 736.762,1045.51 742.535,1041.93 743.535,1041.33 759.808,1032.37 761.545,1031.47 762.403,1031.03 767.566,1028.01 773.658,1024.63 795.934,1013.31 810.07,1005.64 815.248,1003 823.382,998.982 843.682,989.35 858.764,982.39 862.389,980.731 883.218,971.254 886.818,969.623 888.112,969.037 890.345,968.026 911.582,957.191 924.695,950.927 929.009,948.905 930.678,948.126 934.033,946.286 937.264,944.557 940.598,942.532 946.295,939.235 959.059,931.513 961.638,929.853 964.261,928.221 971.479,923.414 977.956,918.964 982.748,915.538 988.574,911.698 997.519,905.659 1003.43,902.047 1016.2,894.058 1027.44,887.848 1036.64,883.113 1048.59,876.412 1069.53,865.844 1071.97,864.46 1075.57,862.474 1077.06,861.668 1079.56,860.331 1085.64,857.175 1090.05,854.953 1101.83,849.193 1107.43,846.527 1119.61,840.826 1131.53,835.329 1167.46,818.996 1181.85,811.535 1182.98,810.87 1205.29,798.96 1217.38,792.217 1223.32,789.12 1228.66,786.423 1229.05,786.227 1236.7,782.472 1244.82,778.579 1245.68,778.174 1248.49,776.848 1249.2,776.512 1252.72,774.862 1271.87,766.015 1273.66,765.044 1290.05,756.61 1300.65,750.711 1311.75,744.196 1318.64,739.931 1319.32,739.528 1339.35,728.666 1339.39,728.643 1343.74,726.107 1343.74,726.104 1351.09,722.034 1352.25,721.316 1358.57,717.543 1359.41,716.987 1359.56,716.886 1361.45,715.497 1372.99,707.83 1375.88,706.09 1411.28,686.005 1415.83,683.758 1418.83,682.294 1424.42,679.162 1433.68,673.575 1462.52,658.58 1467.38,656.243 1470.13,654.93 1476.2,652.069 1479.21,650.657 1483.13,648.836 1485,647.968 1488.32,646.433 1494.51,643.584 1496.04,642.885 1497.9,642.03 1498.95,641.456 1502.83,639.378 1511.33,634.994 1511.66,634.828 1519.76,630.824 1521.62,629.757 1532.19,624.011 1532.44,623.858 1537.89,620.188 1543.82,616.022 1551.35,611.226 1552.52,610.521 1555.95,608.504 1558.08,607.287 1565.27,603.329 1571.25,600.195 1580.59,595.496 1583.15,594.241 1590.87,590.517 1598.55,586.293 1599.78,585.642 1606.92,581.945 1608.76,581.016 1613.48,578.664 1615.22,577.81 1616.6,577.137 1619.12,575.912 1622.23,574.414 1629.03,571.18 1637.08,566.799 1639.41,565.579 1639.9,565.278 1643.34,563.229 1646.14,561.616 1646.58,561.365 1650.6,559.129 1655.57,556.453 1658.66,554.578 1660.5,553.49 1664.63,551.126 1665.25,550.775 1671.3,547.473 1678.84,542.967 1684.71,539.684 1685.36,539.331 1690.27,536.716 1695.81,533.857 1723.6,520.413 1736,513.807 1754.93,504.494 1788.08,489.098 1793.07,486.416 1795.09,485.359 1797.79,483.965 1798.22,483.741 1808.65,478.534 1814.21,475.393 1824.63,469.862 1825.76,469.286 1832.64,465.831 1839.11,462.669 1841.69,461.424 1846.33,459.212 1848.31,458.106 1858.07,452.88 1860.9,451.185 1863.67,449.342 1863.95,449.136 1874.08,442.222 1874.97,441.657 1880.59,438.255 1889.51,432.563 1896.92,427.701 1898.7,426.597 1905.66,422.502 1907.77,421.32 1915.19,416.73 1918.38,414.872 1930.19,407.604 1942.3,400.98 1950.16,396.355 1955.62,392.905 1957.34,391.717 1975.91,379.294 1978.05,378.047 1985.68,373.784 1991.79,370.55 1998.12,366.824 2005.42,362.792 2010.85,359.493 2012.08,358.774 2026.05,351.118 2033.9,347.121 2060.1,333.163 2062.03,332.048 2066.14,329.735 2067.71,328.74 2075.45,324.081 2080.01,321.507 2089.98,315.462 2093.2,313.639 2101.73,308.398 2110.79,303.316 2116.76,300.159 2120.86,298.05 2160.38,279.183 2160.64,279.066 2164.07,277.2 2168.37,274.575 2168.38,274.567 2184.15,264.804 2190.14,261.497 2193.52,259.694 2239.72,237.388 2250.52,231.668 2257.41,227.661 2266.8,222.576 2268.75,221.393 2269.19,221.126 2280.5,214.729 2289.34,209.442 2298.36,203.817 2306.55,198.547 2307.4,198.033 2310.79,195.739 2317.71,191.379 2319.7,190.013 2330.66,183.151 2330.96,182.972 2332.12,182.197 2339.41,177.583 2343.5,174.829 2352.56,169.237 2352.76,169.124 "/>
<polyline clip-path="url(#clip042)" style="stroke:#c271d2; stroke-linecap:round; stroke-linejoin:round; stroke-width:4; stroke-opacity:1; fill:none" points="140.696,1384.24 140.696,1384.24 144.57,1382.49 160.038,1374.51 164.09,1372.52 164.81,1372.1 166.272,1371.27 167.292,1370.69 175.794,1365.44 182.946,1361.38 193.09,1355.26 193.117,1355.24 193.211,1355.18 205.242,1347.81 205.402,1347.72 209.411,1345.47 221.587,1339.03 222.246,1338.7 227.544,1336.04 257.207,1321.93 266.872,1317.48 271.35,1315.43 287.004,1307.29 295.393,1303.17 301.129,1300.42 302.58,1299.73 308.013,1296.73 313.067,1294.05 319.691,1290.66 319.763,1290.62 332.275,1284.48 341.272,1280.2 345.653,1278.14 349.673,1276.27 354.966,1273.82 360.888,1271.09 367.754,1267.95 368.308,1267.64 391.139,1254.72 398.884,1250.21 416.189,1241.08 429.994,1234.33 431.973,1233.22 447.111,1225.21 464.552,1216.69 467.952,1215.08 470.986,1213.65 474.343,1212.08 497.055,1201.61 499.027,1200.71 499.612,1200.44 503.362,1198.42 504.23,1197.96 507.684,1195.87 517.08,1189.84 519.256,1188.54 528.249,1183.46 535.368,1179.14 544.529,1174.01 544.709,1173.9 548.648,1171.48 549.863,1170.65 554.432,1167.66 554.56,1167.58 569.087,1159.08 569.536,1158.84 572.233,1157.38 575.156,1155.84 577.287,1154.73 580.726,1152.97 581.237,1152.71 590.998,1147.88 606.666,1139.4 614.744,1135.34 617.187,1134.13 618.105,1133.69 619.371,1133.07 638.394,1124.04 649.53,1118.89 650.505,1118.44 654.393,1116.66 669.576,1108.74 678.235,1104.48 694.367,1096.82 701.482,1093.52 716.141,1086.78 718.691,1085.62 734.85,1078.27 736.762,1077.4 742.535,1074.33 743.535,1073.81 759.808,1064.64 761.545,1063.73 762.403,1063.28 767.566,1060.64 773.658,1057.13 795.934,1044.27 810.07,1037.13 815.248,1034.62 823.382,1030.74 843.682,1021.3 858.764,1013.42 862.389,1011.32 883.218,1000.31 886.818,998.233 888.112,997.503 890.345,996.072 911.582,984.02 924.695,977.417 929.009,975.32 930.678,974.371 934.033,972.506 937.264,970.757 940.598,968.993 946.295,966.06 959.059,959.759 961.638,958.519 964.261,957.044 971.479,953.141 977.956,949.793 982.748,947.388 988.574,944.526 997.519,940.233 1003.43,936.976 1016.2,930.372 1027.44,924.87 1036.64,919.82 1048.59,913.698 1069.53,903.626 1071.97,902.483 1075.57,900.509 1077.06,899.577 1079.56,897.833 1085.64,893.86 1090.05,890.811 1101.83,883.498 1107.43,879.891 1119.61,872.805 1131.53,866.518 1167.46,849.295 1181.85,842.684 1182.98,842.165 1205.29,830.755 1217.38,824.974 1223.32,821.719 1228.66,818.912 1229.05,818.709 1236.7,814.838 1244.82,810.245 1245.68,809.779 1248.49,808.035 1249.2,807.6 1252.72,805.508 1271.87,795.175 1273.66,794.275 1290.05,785.237 1300.65,779.888 1311.75,774.515 1318.64,771.256 1319.32,770.875 1339.35,760.45 1339.39,760.428 1343.74,758.301 1343.74,758.298 1351.09,754.197 1352.25,753.576 1358.57,749.76 1359.41,749.273 1359.56,749.184 1361.45,748.104 1372.99,741.85 1375.88,740.118 1411.28,721.678 1415.83,719.509 1418.83,717.835 1424.42,714.826 1433.68,710.068 1462.52,696.24 1467.38,693.596 1470.13,692.136 1476.2,689.01 1479.21,687.491 1483.13,685.226 1485,684.172 1488.32,682.066 1494.51,677.867 1496.04,676.888 1497.9,675.557 1498.95,674.823 1502.83,672.218 1511.33,666.32 1511.66,666.105 1519.76,661.124 1521.62,660.04 1532.19,654.216 1532.44,654.084 1537.89,651.254 1543.82,648.265 1551.35,644.575 1552.52,644.011 1555.95,642.366 1558.08,641.169 1565.27,637.269 1571.25,634.169 1580.59,628.822 1583.15,627.213 1590.87,622.641 1598.55,618.406 1599.78,617.752 1606.92,613.498 1608.76,612.451 1613.48,609.84 1615.22,608.752 1616.6,607.907 1619.12,606.178 1622.23,603.869 1629.03,599.214 1637.08,594.236 1639.41,592.88 1639.9,592.596 1643.34,590.368 1646.14,588.391 1646.58,588.087 1650.6,585.411 1655.57,582.29 1658.66,580.445 1660.5,579.213 1664.63,576.568 1665.25,576.179 1671.3,572.558 1678.84,568.335 1684.71,565.214 1685.36,564.819 1690.27,561.525 1695.81,557.616 1723.6,540.096 1736,533.648 1754.93,524.456 1788.08,509.129 1793.07,506.855 1795.09,505.938 1797.79,504.484 1798.22,504.251 1808.65,498.873 1814.21,496.112 1824.63,490.332 1825.76,489.735 1832.64,485.641 1839.11,481.527 1841.69,479.753 1846.33,476.356 1848.31,474.986 1858.07,468.749 1860.9,467.075 1863.67,465.484 1863.95,465.327 1874.08,459.825 1874.97,459.358 1880.59,456.48 1889.51,452.055 1896.92,448.488 1898.7,447.637 1905.66,443.816 1907.77,442.7 1915.19,438.872 1918.38,437.271 1930.19,431.514 1942.3,424.954 1950.16,420.953 1955.62,418.259 1957.34,417.423 1975.91,408.611 1978.05,407.434 1985.68,402.789 1991.79,398.85 1998.12,395.068 2005.42,390.987 2010.85,388.097 2012.08,387.457 2026.05,380.453 2033.9,376.676 2060.1,364.469 2062.03,363.585 2066.14,361.364 2067.71,360.536 2075.45,355.961 2080.01,353.054 2089.98,347.203 2093.2,345.426 2101.73,340.919 2110.79,336.361 2116.76,333.449 2120.86,331.138 2160.38,311.436 2160.64,311.318 2164.07,309.714 2168.37,307.718 2168.38,307.712 2184.15,300.466 2190.14,297.734 2193.52,295.911 2239.72,271.743 2250.52,266.692 2257.41,263.505 2266.8,259.196 2268.75,258.306 2269.19,258.062 2280.5,251.329 2289.34,246.534 2298.36,241.914 2306.55,237.881 2307.4,237.47 2310.79,235.838 2317.71,232.015 2319.7,230.948 2330.66,224.543 2330.96,224.347 2332.12,223.608 2339.41,219.19 2343.5,216.857 2352.56,211.293 2352.76,211.162 "/>
<polyline clip-path="url(#clip042)" style="stroke:#ac8d18; stroke-linecap:round; stroke-linejoin:round; stroke-width:4; stroke-opacity:1; fill:none" points="140.696,1384.24 140.696,1384.24 144.57,1382.17 160.038,1374.35 164.09,1372.05 164.81,1371.59 166.272,1370.66 167.292,1369.93 175.794,1363.64 182.946,1358.42 193.09,1351.18 193.117,1351.16 193.211,1351.09 205.242,1342.08 205.402,1341.96 209.411,1339 221.587,1331.07 222.246,1330.67 227.544,1327.59 257.207,1312.32 266.872,1307.02 271.35,1304.68 287.004,1295.89 295.393,1291.58 301.129,1288.73 302.58,1288.02 308.013,1284.95 313.067,1282.22 319.691,1278.26 319.763,1278.21 332.275,1270.5 341.272,1265.54 345.653,1262.88 349.673,1260.54 354.966,1257.18 360.888,1253.65 367.754,1249.81 368.308,1249.46 391.139,1235.34 398.884,1231.22 416.189,1222.6 429.994,1215.13 431.973,1213.94 447.111,1205.55 464.552,1196.82 467.952,1195.18 470.986,1193.73 474.343,1191.86 497.055,1180.22 499.027,1179.26 499.612,1178.93 503.362,1176.51 504.23,1175.89 507.684,1173.51 517.08,1166.9 519.256,1165.49 528.249,1160.07 535.368,1156.11 544.529,1151.31 544.709,1151.2 548.648,1148.89 549.863,1148.09 554.432,1144.82 554.56,1144.73 569.087,1134.69 569.536,1134.41 572.233,1132.54 575.156,1130.6 577.287,1129.23 580.726,1126.82 581.237,1126.42 590.998,1118.82 606.666,1107.8 614.744,1102.98 617.187,1101.39 618.105,1100.8 619.371,1099.9 638.394,1086.88 649.53,1080.57 650.505,1079.96 654.393,1077.27 669.576,1067.01 678.235,1061.34 694.367,1052.15 701.482,1048.44 716.141,1041.2 718.691,1039.98 734.85,1032.38 736.762,1031.5 742.535,1028.37 743.535,1027.76 759.808,1017.51 761.545,1016.53 762.403,1015.97 767.566,1012.75 773.658,1008.7 795.934,994.767 810.07,987.332 815.248,984.749 823.382,980.177 843.682,969.798 858.764,962.592 862.389,960.593 883.218,949.949 886.818,948.205 888.112,947.47 890.345,946.029 911.582,932.689 924.695,925.728 929.009,923.552 930.678,922.722 934.033,920.789 937.264,918.712 940.598,916.376 946.295,912.193 959.059,903.145 961.638,901.517 964.261,899.691 971.479,894.455 977.956,889.722 982.748,886.522 988.574,882.9 997.519,877.101 1003.43,873.134 1016.2,865.512 1027.44,858.694 1036.64,852.966 1048.59,846.294 1069.53,835.75 1071.97,834.576 1075.57,832.562 1077.06,831.745 1079.56,830.178 1085.64,826.08 1090.05,822.96 1101.83,814.687 1107.43,810.775 1119.61,802.393 1131.53,795.369 1167.46,775.707 1181.85,767.852 1182.98,767.266 1205.29,755.033 1217.38,749.053 1223.32,746.203 1228.66,743.678 1229.05,743.493 1236.7,739.337 1244.82,734.53 1245.68,734.046 1248.49,732.247 1249.2,731.799 1252.72,729.649 1271.87,717.963 1273.66,716.831 1290.05,706.351 1300.65,700.501 1311.75,694.017 1318.64,690.3 1319.32,689.881 1339.35,678.732 1339.39,678.709 1343.74,676.494 1343.74,676.491 1351.09,672.276 1352.25,671.539 1358.57,667.183 1359.41,666.635 1359.56,666.522 1361.45,664.988 1372.99,655.85 1375.88,653.603 1411.28,630.603 1415.83,627.848 1418.83,625.847 1424.42,621.89 1433.68,616.004 1462.52,599.13 1467.38,596.261 1470.13,594.694 1476.2,591.373 1479.21,589.776 1483.13,587.424 1485,586.333 1488.32,584.17 1494.51,579.883 1496.04,578.887 1497.9,577.535 1498.95,576.697 1502.83,573.751 1511.33,567.283 1511.66,567.05 1519.76,561.701 1521.62,560.549 1532.19,553.675 1532.44,553.502 1537.89,549.869 1543.82,546.205 1551.35,541.304 1552.52,540.586 1555.95,538.533 1558.08,537.296 1565.27,532.731 1571.25,529.222 1580.59,524.107 1583.15,522.764 1590.87,518.832 1598.55,515.048 1599.78,514.453 1606.92,510.482 1608.76,509.336 1613.48,506.503 1615.22,505.346 1616.6,504.448 1619.12,502.632 1622.23,500.491 1629.03,496.129 1637.08,491.4 1639.41,490.1 1639.9,489.783 1643.34,487.346 1646.14,485.222 1646.58,484.896 1650.6,482.042 1655.57,478.74 1658.66,476.801 1660.5,475.52 1664.63,472.777 1665.25,472.375 1671.3,468.642 1678.84,463.74 1684.71,460.229 1685.36,459.854 1690.27,456.698 1695.81,452.912 1723.6,435.701 1736,429.306 1754.93,420.154 1788.08,404.851 1793.07,402.176 1795.09,401.12 1797.79,399.499 1798.22,399.241 1808.65,392.638 1814.21,389.425 1824.63,383.048 1825.76,382.401 1832.64,378.055 1839.11,373.766 1841.69,371.935 1846.33,368.828 1848.31,367.564 1858.07,361.021 1860.9,359.041 1863.67,357.187 1863.95,357.005 1874.08,350.785 1874.97,350.268 1880.59,347.123 1889.51,341.728 1896.92,337.604 1898.7,336.644 1905.66,333.013 1907.77,331.944 1915.19,328.249 1918.38,326.693 1930.19,321.056 1942.3,314.568 1950.16,310.597 1955.62,307.482 1957.34,306.532 1975.91,295.792 1978.05,294.663 1985.68,290.157 1991.79,286.3 1998.12,282.581 2005.42,278.555 2010.85,275.261 2012.08,274.434 2026.05,264.964 2033.9,260.35 2060.1,246.77 2062.03,245.836 2066.14,243.521 2067.71,242.662 2075.45,238.549 2080.01,236.219 2089.98,230.56 2093.2,228.559 2101.73,223.592 2110.79,218.706 2116.76,215.641 2120.86,213.245 2160.38,193.199 2160.64,193.079 2164.07,191.466 2168.37,189.107 2168.38,189.1 2184.15,180.99 2190.14,177.587 2193.52,175.458 2239.72,149.658 2250.52,144.518 2257.41,141.292 2266.8,136.257 2268.75,135.25 2269.19,135.021 2280.5,128.576 2289.34,123.923 2298.36,119.401 2306.55,115.428 2307.4,114.947 2310.79,113.06 2317.71,108.824 2319.7,107.66 2330.66,100.852 2330.96,100.647 2332.12,99.8773 2339.41,95.293 2343.5,92.5515 2352.56,86.3103 2352.76,86.1857 "/>
<polyline clip-path="url(#clip042)" style="stroke:#00a9ad; stroke-linecap:round; stroke-linejoin:round; stroke-width:4; stroke-opacity:1; fill:none" points="140.696,1384.24 140.696,1384.24 144.57,1382.49 160.038,1375.52 164.09,1373.69 164.81,1373.36 166.272,1372.58 167.292,1371.94 175.794,1366.93 182.946,1363.01 193.09,1357.76 193.117,1357.75 193.211,1357.7 205.242,1350.96 205.402,1350.87 209.411,1348.43 221.587,1340.74 222.246,1340.3 227.544,1336.88 257.207,1320.68 266.872,1315.96 271.35,1313.82 287.004,1306.5 295.393,1302.63 301.129,1300 302.58,1299.34 308.013,1296.86 313.067,1294.56 319.691,1291.55 319.763,1291.52 332.275,1284.99 341.272,1279.87 345.653,1277.52 349.673,1275.08 354.966,1271.61 360.888,1267.99 367.754,1263.54 368.308,1263.2 391.139,1250.55 398.884,1246.68 416.189,1237.29 429.994,1229.51 431.973,1228.47 447.111,1220.83 464.552,1211.42 467.952,1209.42 470.986,1207.69 474.343,1205.55 497.055,1191.56 499.027,1190.32 499.612,1189.91 503.362,1187.35 504.23,1186.7 507.684,1184.2 517.08,1178.05 519.256,1176.54 528.249,1170.78 535.368,1166.64 544.529,1160.99 544.709,1160.88 548.648,1158.63 549.863,1157.95 554.432,1155.46 554.56,1155.39 569.087,1147.93 569.536,1147.71 572.233,1146.15 575.156,1144.26 577.287,1142.93 580.726,1140.56 581.237,1140.18 590.998,1132.67 606.666,1122.76 614.744,1118.26 617.187,1116.75 618.105,1116.12 619.371,1115.14 638.394,1102.59 649.53,1096.41 650.505,1095.89 654.393,1093.54 669.576,1085.16 678.235,1080.1 694.367,1070.54 701.482,1066.74 716.141,1058.41 718.691,1056.84 734.85,1046.75 736.762,1045.51 742.535,1041.93 743.535,1041.33 759.808,1032.37 761.545,1031.47 762.403,1031.03 767.566,1028.01 773.658,1024.63 795.934,1013.31 810.07,1005.64 815.248,1003 823.382,998.982 843.682,989.35 858.764,982.39 862.389,980.731 883.218,971.254 886.818,969.623 888.112,969.037 890.345,968.026 911.582,957.191 924.695,950.927 929.009,948.905 930.678,948.126 934.033,946.286 937.264,944.557 940.598,942.532 946.295,939.235 959.059,931.513 961.638,929.853 964.261,928.221 971.479,923.414 977.956,918.964 982.748,915.538 988.574,911.698 997.519,905.659 1003.43,902.047 1016.2,894.058 1027.44,887.848 1036.64,883.113 1048.59,876.412 1069.53,865.844 1071.97,864.46 1075.57,862.474 1077.06,861.668 1079.56,860.331 1085.64,857.175 1090.05,854.953 1101.83,849.193 1107.43,846.527 1119.61,840.826 1131.53,835.329 1167.46,818.996 1181.85,811.535 1182.98,810.87 1205.29,798.96 1217.38,792.217 1223.32,789.12 1228.66,786.423 1229.05,786.227 1236.7,782.472 1244.82,778.579 1245.68,778.174 1248.49,776.848 1249.2,776.512 1252.72,774.862 1271.87,766.015 1273.66,765.044 1290.05,756.61 1300.65,750.711 1311.75,744.196 1318.64,739.931 1319.32,739.528 1339.35,728.666 1339.39,728.643 1343.74,726.107 1343.74,726.104 1351.09,722.034 1352.25,721.316 1358.57,717.543 1359.41,716.987 1359.56,716.886 1361.45,715.497 1372.99,707.83 1375.88,706.09 1411.28,686.005 1415.83,683.758 1418.83,682.294 1424.42,679.162 1433.68,673.575 1462.52,658.58 1467.38,656.243 1470.13,654.93 1476.2,652.069 1479.21,650.657 1483.13,648.836 1485,647.968 1488.32,646.433 1494.51,643.584 1496.04,642.885 1497.9,642.03 1498.95,641.456 1502.83,639.378 1511.33,634.994 1511.66,634.828 1519.76,630.824 1521.62,629.757 1532.19,624.011 1532.44,623.858 1537.89,620.188 1543.82,616.022 1551.35,611.226 1552.52,610.521 1555.95,608.504 1558.08,607.287 1565.27,603.329 1571.25,600.195 1580.59,595.496 1583.15,594.241 1590.87,590.517 1598.55,586.293 1599.78,585.642 1606.92,581.945 1608.76,581.016 1613.48,578.664 1615.22,577.81 1616.6,577.137 1619.12,575.912 1622.23,574.414 1629.03,571.18 1637.08,566.799 1639.41,565.579 1639.9,565.278 1643.34,563.229 1646.14,561.616 1646.58,561.365 1650.6,559.129 1655.57,556.453 1658.66,554.578 1660.5,553.49 1664.63,551.126 1665.25,550.775 1671.3,547.473 1678.84,542.967 1684.71,539.684 1685.36,539.331 1690.27,536.716 1695.81,533.857 1723.6,520.413 1736,513.807 1754.93,504.494 1788.08,489.098 1793.07,486.416 1795.09,485.359 1797.79,483.965 1798.22,483.741 1808.65,478.534 1814.21,475.393 1824.63,469.862 1825.76,469.286 1832.64,465.831 1839.11,462.669 1841.69,461.424 1846.33,459.212 1848.31,458.106 1858.07,452.88 1860.9,451.185 1863.67,449.342 1863.95,449.136 1874.08,442.222 1874.97,441.657 1880.59,438.255 1889.51,432.563 1896.92,427.701 1898.7,426.597 1905.66,422.502 1907.77,421.32 1915.19,416.73 1918.38,414.872 1930.19,407.604 1942.3,400.98 1950.16,396.355 1955.62,392.905 1957.34,391.717 1975.91,379.294 1978.05,378.047 1985.68,373.784 1991.79,370.55 1998.12,366.824 2005.42,362.792 2010.85,359.493 2012.08,358.774 2026.05,351.118 2033.9,347.121 2060.1,333.163 2062.03,332.048 2066.14,329.735 2067.71,328.74 2075.45,324.081 2080.01,321.507 2089.98,315.462 2093.2,313.639 2101.73,308.398 2110.79,303.316 2116.76,300.159 2120.86,298.05 2160.38,279.183 2160.64,279.066 2164.07,277.2 2168.37,274.575 2168.38,274.567 2184.15,264.804 2190.14,261.497 2193.52,259.694 2239.72,237.388 2250.52,231.668 2257.41,227.661 2266.8,222.576 2268.75,221.393 2269.19,221.126 2280.5,214.729 2289.34,209.442 2298.36,203.817 2306.55,198.547 2307.4,198.033 2310.79,195.739 2317.71,191.379 2319.7,190.013 2330.66,183.151 2330.96,182.972 2332.12,182.197 2339.41,177.583 2343.5,174.829 2352.56,169.237 2352.76,169.124 "/>
<polyline clip-path="url(#clip042)" style="stroke:#ed5d92; stroke-linecap:round; stroke-linejoin:round; stroke-width:4; stroke-opacity:1; fill:none" points="140.696,1384.24 140.696,1384.24 144.57,1382.49 160.038,1374.51 164.09,1372.52 164.81,1372.17 166.272,1371.46 167.292,1370.96 175.794,1366.9 182.946,1363.54 193.09,1358.83 193.117,1358.82 193.211,1358.77 205.242,1352.41 205.402,1352.33 209.411,1350.31 221.587,1344.37 222.246,1344.06 227.544,1341.11 257.207,1324.75 266.872,1320.01 271.35,1317.5 287.004,1309.33 295.393,1304.57 301.129,1301.04 302.58,1300.06 308.013,1296.56 313.067,1293.1 319.691,1288.91 319.763,1288.87 332.275,1281.75 341.272,1277.05 345.653,1274.84 349.673,1272.85 354.966,1270.27 360.888,1267.44 367.754,1264.2 368.308,1263.94 391.139,1253.39 398.884,1249.27 416.189,1240.65 429.994,1234.1 431.973,1233.18 447.111,1226.18 464.552,1218.22 467.952,1216.68 470.986,1215.05 474.343,1213.28 497.055,1202.04 499.027,1201.11 499.612,1200.83 503.362,1199.06 504.23,1198.65 507.684,1196.75 517.08,1191.8 519.256,1190.69 528.249,1185.56 535.368,1181.21 544.529,1176.06 544.709,1175.96 548.648,1173.54 549.863,1172.81 554.432,1170.17 554.56,1170.08 569.087,1161.35 569.536,1161.1 572.233,1159.61 575.156,1158.04 577.287,1156.92 580.726,1155.13 581.237,1154.87 590.998,1149.98 606.666,1142.47 614.744,1138.69 617.187,1137.56 618.105,1137.13 619.371,1136.55 638.394,1127.83 649.53,1121.97 650.505,1121.48 654.393,1119.53 669.576,1112.17 678.235,1108.1 694.367,1100.65 701.482,1097.39 716.141,1090.72 718.691,1089.56 734.85,1082.25 736.762,1081.38 742.535,1078.77 743.535,1078.32 759.808,1070.97 761.545,1070.04 762.403,1069.58 767.566,1066.88 773.658,1063.79 795.934,1053.07 810.07,1046.51 815.248,1043.71 823.382,1039.5 843.682,1029.62 858.764,1021.59 862.389,1019.77 883.218,1008.5 886.818,1006.4 888.112,1005.66 890.345,1004.41 911.582,993.395 924.695,987.082 929.009,984.695 930.678,983.649 934.033,981.607 937.264,979.712 940.598,977.818 946.295,974.703 959.059,968.131 961.638,966.852 964.261,965.566 971.479,962.08 977.956,959.007 982.748,956.758 988.574,954.048 997.519,949.922 1003.43,947.212 1016.2,941.392 1027.44,936.291 1036.64,932.128 1048.59,926.725 1069.53,916.045 1071.97,914.862 1075.57,913.136 1077.06,912.295 1079.56,910.905 1085.64,907.642 1090.05,905.36 1101.83,899.486 1107.43,896.784 1119.61,891.03 1131.53,884.669 1167.46,867.363 1181.85,860.742 1182.98,860.223 1205.29,850.076 1217.38,844.602 1223.32,841.446 1228.66,838.709 1229.05,838.51 1236.7,834.712 1244.82,830.787 1245.68,830.303 1248.49,828.74 1249.2,828.349 1252.72,826.155 1271.87,815.479 1273.66,814.559 1290.05,806.446 1300.65,801.419 1311.75,796.253 1318.64,793.078 1319.32,792.765 1339.35,782.44 1339.39,782.413 1343.74,779.943 1343.74,779.939 1351.09,775.391 1352.25,774.712 1358.57,771.124 1359.41,770.662 1359.56,770.579 1361.45,769.552 1372.99,763.545 1375.88,762.101 1411.28,745.317 1415.83,743.227 1418.83,741.85 1424.42,739.297 1433.68,735.083 1462.52,722.02 1467.38,719.826 1470.13,718.581 1476.2,715.365 1479.21,713.555 1483.13,711.291 1485,710.237 1488.32,708.41 1494.51,705.118 1496.04,704.327 1497.9,703.369 1498.95,702.833 1502.83,700.88 1511.33,696.707 1511.66,696.546 1519.76,692.066 1521.62,691.074 1532.19,685.647 1532.44,685.523 1537.89,682.832 1543.82,679.962 1551.35,676.383 1552.52,675.73 1555.95,673.564 1558.08,672.082 1565.27,667.396 1571.25,663.813 1580.59,657.927 1583.15,656.206 1590.87,650.776 1598.55,645.936 1599.78,645.097 1606.92,640.492 1608.76,639.371 1613.48,636.213 1615.22,635.103 1616.6,634.12 1619.12,632.375 1622.23,630.05 1629.03,624.837 1637.08,619.385 1639.41,617.92 1639.9,617.615 1643.34,615.537 1646.14,613.904 1646.58,613.649 1650.6,611.058 1655.57,608.021 1658.66,606.219 1660.5,605.171 1664.63,602.884 1665.25,602.488 1671.3,598.331 1678.84,593.616 1684.71,590.213 1685.36,589.79 1690.27,586.713 1695.81,583.441 1723.6,568.956 1736,563.029 1754.93,553.087 1788.08,535.774 1793.07,533.384 1795.09,532.253 1797.79,530.771 1798.22,530.494 1808.65,524.3 1814.21,521.237 1824.63,515.81 1825.76,515.242 1832.64,511.831 1839.11,508.699 1841.69,507.464 1846.33,504.89 1848.31,503.821 1858.07,498.739 1860.9,497.315 1863.67,495.94 1863.95,495.803 1874.08,490.89 1874.97,490.383 1880.59,487.294 1889.51,482.626 1896.92,478.919 1898.7,477.886 1905.66,473.48 1907.77,472.221 1915.19,467.982 1918.38,465.973 1930.19,459.131 1942.3,452.762 1950.16,448.841 1955.62,446.187 1957.34,445.361 1975.91,436.626 1978.05,435.454 1985.68,431.407 1991.79,428.3 1998.12,425.17 2005.42,421.083 2010.85,418.189 2012.08,417.548 2026.05,410.538 2033.9,406.163 2060.1,392.976 2062.03,392.056 2066.14,390.107 2067.71,389.37 2075.45,385.161 2080.01,382.417 2089.98,376.824 2093.2,375.109 2101.73,370.727 2110.79,365.589 2116.76,361.934 2120.86,359.552 2160.38,337.901 2160.64,337.755 2164.07,335.811 2168.37,333.458 2168.38,333.451 2184.15,325.353 2190.14,322.426 2193.52,320.798 2239.72,299.417 2250.52,294.519 2257.41,291.398 2266.8,287.151 2268.75,286.271 2269.19,286.029 2280.5,280.138 2289.34,275.759 2298.36,271.424 2306.55,267.565 2307.4,267.169 2310.79,265.591 2317.71,262.391 2319.7,261.471 2330.66,256.452 2330.96,256.313 2332.12,255.784 2339.41,251.901 2343.5,249.799 2352.56,245.29 2352.76,245.177 "/>
<polyline clip-path="url(#clip042)" style="stroke:#c68125; stroke-linecap:round; stroke-linejoin:round; stroke-width:4; stroke-opacity:1; fill:none" points="140.696,1384.24 140.696,1384.24 144.57,1382.49 160.038,1375.52 164.09,1373.69 164.81,1373.36 166.272,1372.7 167.292,1372.24 175.794,1368.41 182.946,1365.19 193.09,1360.61 193.117,1360.6 193.211,1360.56 205.242,1355.13 205.402,1355.06 209.411,1353.25 221.587,1347.76 222.246,1347.46 227.544,1345.07 257.207,1331.7 266.872,1327.34 271.35,1325.32 287.004,1318.26 295.393,1314.48 301.129,1311.89 302.58,1311.24 308.013,1308.79 313.067,1306.51 319.691,1303.52 319.763,1303.48 332.275,1296.98 341.272,1292.54 345.653,1290.43 349.673,1288.52 354.966,1286.02 360.888,1282.78 367.754,1279.2 368.308,1278.91 391.139,1267.77 398.884,1264.13 416.189,1256.15 429.994,1249.85 431.973,1248.95 447.111,1241.1 464.552,1232.66 467.952,1231.06 470.986,1229.64 474.343,1228.08 497.055,1217.64 499.027,1216.74 499.612,1216.47 503.362,1214.76 504.23,1214.37 507.684,1212.8 517.08,1208.54 519.256,1207.55 528.249,1203.49 535.368,1200.27 544.529,1196.13 544.709,1196.05 548.648,1194.27 549.863,1193.72 554.432,1191.66 554.56,1191.6 569.087,1185.05 569.536,1184.8 572.233,1183.36 575.156,1181.83 577.287,1180.55 580.726,1178.54 581.237,1178.24 590.998,1172.89 606.666,1164.94 614.744,1160.43 617.187,1159.12 618.105,1158.63 619.371,1157.97 638.394,1148.46 649.53,1143.17 650.505,1142.71 654.393,1140.89 669.576,1133.88 678.235,1129.92 694.367,1122.59 701.482,1118.82 716.141,1111.48 718.691,1110.25 734.85,1102.61 736.762,1101.72 742.535,1099.04 743.535,1098.58 759.808,1091.13 761.545,1090.33 762.403,1089.94 767.566,1087.6 773.658,1084.83 795.934,1074.75 810.07,1068.36 815.248,1066.03 823.382,1062.36 843.682,1052 858.764,1044.8 862.389,1043.1 883.218,1033.5 886.818,1031.85 888.112,1031.26 890.345,1030.25 911.582,1020.61 924.695,1013.79 929.009,1011.64 930.678,1010.82 934.033,1009.19 937.264,1007.63 940.598,1006.04 946.295,1003.34 959.059,997.398 961.638,996.208 964.261,995.002 971.479,991.694 977.956,988.738 982.748,986.557 988.574,983.449 997.519,978.883 1003.43,975.966 1016.2,969.848 1027.44,964.596 1036.64,960.354 1048.59,954.887 1069.53,945.377 1071.97,944.271 1075.57,942.644 1077.06,941.97 1079.56,940.837 1085.64,938.089 1090.05,936.101 1101.83,930.779 1107.43,928.253 1119.61,922.758 1131.53,917.377 1167.46,901.177 1181.85,894.687 1182.98,894.175 1205.29,884.114 1217.38,878.661 1223.32,875.983 1228.66,873.15 1229.05,872.909 1236.7,868.438 1244.82,864.01 1245.68,863.559 1248.49,862.095 1249.2,861.663 1252.72,859.582 1271.87,849.288 1273.66,848.39 1290.05,840.412 1300.65,835.431 1311.75,830.295 1318.64,827.133 1319.32,826.821 1339.35,817.706 1339.39,817.685 1343.74,815.717 1343.74,815.714 1351.09,812.385 1352.25,811.863 1358.57,809.005 1359.41,808.626 1359.56,808.557 1361.45,807.704 1372.99,802.488 1375.88,801.185 1411.28,785.214 1415.83,783.162 1418.83,781.806 1424.42,779.286 1433.68,775.112 1462.52,762.104 1467.38,759.914 1470.13,758.437 1476.2,755.28 1479.21,753.748 1483.13,751.793 1485,750.707 1488.32,748.83 1494.51,745.461 1496.04,744.521 1497.9,743.395 1498.95,742.769 1502.83,740.202 1511.33,735.002 1511.66,734.78 1519.76,729.647 1521.62,728.535 1532.19,722.591 1532.44,722.457 1537.89,719.584 1543.82,716.559 1551.35,712.836 1552.52,712.267 1555.95,710.611 1558.08,709.591 1565.27,706.178 1571.25,702.906 1580.59,698.054 1583.15,696.767 1590.87,692.967 1598.55,689.276 1599.78,688.693 1606.92,685.332 1608.76,684.472 1613.48,682.277 1615.22,681.472 1616.6,680.835 1619.12,679.672 1622.23,678.241 1629.03,675.124 1637.08,671.452 1639.41,670.193 1639.9,669.929 1643.34,668.113 1646.14,666.664 1646.58,666.398 1650.6,664.036 1655.57,660.83 1658.66,658.941 1660.5,657.846 1664.63,655.128 1665.25,654.729 1671.3,651.025 1678.84,646.726 1684.71,643.096 1685.36,642.71 1690.27,639.875 1695.81,636.819 1723.6,622.878 1736,617.044 1754.93,608.324 1788.08,593.269 1793.07,591.011 1795.09,590.1 1797.79,588.881 1798.22,588.683 1808.65,583.976 1814.21,581.464 1824.63,576.76 1825.76,576.153 1832.64,572.541 1839.11,569.269 1841.69,567.989 1846.33,565.723 1848.31,564.767 1858.07,560.117 1860.9,558.787 1863.67,557.493 1863.95,557.363 1874.08,551.936 1874.97,551.474 1880.59,548.176 1889.51,543.268 1896.92,539.424 1898.7,538.519 1905.66,535.062 1907.77,533.856 1915.19,529.766 1918.38,528.076 1930.19,522.085 1942.3,516.225 1950.16,512.513 1955.62,509.967 1957.34,509.17 1975.91,500.637 1978.05,499.663 1985.68,496.187 1991.79,493.415 1998.12,490.546 2005.42,487.243 2010.85,484.786 2012.08,484.23 2026.05,477.918 2033.9,474.377 2060.1,462.553 2062.03,461.683 2066.14,459.828 2067.71,459.122 2075.45,455.63 2080.01,453.575 2089.98,449.079 2093.2,447.626 2101.73,443.778 2110.79,439.693 2116.76,437.002 2120.86,435.15 2160.38,417.33 2160.64,417.215 2164.07,415.666 2168.37,413.727 2168.38,413.72 2184.15,405.592 2190.14,402.658 2193.52,401.026 2239.72,379.628 2250.52,374.73 2257.41,371.608 2266.8,367.361 2268.75,366.48 2269.19,366.278 2280.5,361.17 2289.34,357.179 2298.36,353.109 2306.55,349.413 2307.4,349.031 2310.79,347.502 2317.71,344.383 2319.7,343.482 2330.66,338.543 2330.96,338.405 2332.12,337.882 2339.41,334.592 2343.5,332.748 2352.56,328.663 2352.76,328.576 "/>
<polyline clip-path="url(#clip042)" style="stroke:#00a98d; stroke-linecap:round; stroke-linejoin:round; stroke-width:4; stroke-opacity:1; fill:none" points="140.696,1384.24 140.696,1384.24 144.57,1382.17 160.038,1374.35 164.09,1372.05 164.81,1371.59 166.272,1370.66 167.292,1370.02 175.794,1364.34 182.946,1359.48 193.09,1352.59 193.117,1352.57 193.211,1352.51 205.242,1345.42 205.402,1345.32 209.411,1342.8 221.587,1335.8 222.246,1335.44 227.544,1332.2 257.207,1315.01 266.872,1309.47 271.35,1307.05 287.004,1298.08 295.393,1293.08 301.129,1289.88 302.58,1288.97 308.013,1285.7 313.067,1282.41 319.691,1277.88 319.763,1277.83 332.275,1270.29 341.272,1265.39 345.653,1262.76 349.673,1260.44 354.966,1257.52 360.888,1254.39 367.754,1250.88 368.308,1250.56 391.139,1238.31 398.884,1234.49 416.189,1226.27 429.994,1219.88 431.973,1218.8 447.111,1210.99 464.552,1202.57 467.952,1200.97 470.986,1199.29 474.343,1197.49 497.055,1186.09 499.027,1185.15 499.612,1184.87 503.362,1182.78 504.23,1182.3 507.684,1180.44 517.08,1174.89 519.256,1173.68 528.249,1168.87 535.368,1165.25 544.529,1160.75 544.709,1160.66 548.648,1158.77 549.863,1158.08 554.432,1155.19 554.56,1155.11 569.087,1145.86 569.536,1145.6 572.233,1144.06 575.156,1142.42 577.287,1141.26 580.726,1139.42 581.237,1139.15 590.998,1134.15 606.666,1125.51 614.744,1121.4 617.187,1120.19 618.105,1119.74 619.371,1119.12 638.394,1108.89 649.53,1103.39 650.505,1102.83 654.393,1100.66 669.576,1091.72 678.235,1087.13 694.367,1079.12 701.482,1075.72 716.141,1068.86 718.691,1067.68 734.85,1060.28 736.762,1059.4 742.535,1056.32 743.535,1055.71 759.808,1046.57 761.545,1045.66 762.403,1045.14 767.566,1042.1 773.658,1038.71 795.934,1027.36 810.07,1020.63 815.248,1018.21 823.382,1013.83 843.682,1003.71 858.764,996.592 862.389,994.908 883.218,984.126 886.818,982.369 888.112,981.629 890.345,980.373 911.582,969.344 924.695,963.026 929.009,960.992 930.678,960.209 934.033,958.642 937.264,956.87 940.598,955.085 946.295,951.67 959.059,944.648 961.638,943.306 964.261,941.739 971.479,937.632 977.956,934.149 982.748,931.666 988.574,928.731 997.519,924.356 1003.43,921.061 1016.2,914.402 1027.44,908.075 1036.64,902.602 1048.59,896.135 1069.53,885.768 1071.97,884.606 1075.57,882.906 1077.06,882.205 1079.56,881.03 1085.64,877.719 1090.05,875.408 1101.83,868.657 1107.43,865.229 1119.61,857.561 1131.53,850.111 1167.46,829.967 1181.85,823.011 1182.98,822.474 1205.29,812.105 1217.38,806.577 1223.32,803.875 1228.66,801.452 1229.05,801.274 1236.7,797.225 1244.82,792.499 1245.68,792.022 1248.49,790.481 1249.2,790.094 1252.72,788.217 1271.87,777.448 1273.66,776.523 1290.05,767.331 1300.65,761.929 1311.75,756.522 1318.64,753.248 1319.32,752.926 1339.35,742.443 1339.39,742.421 1343.74,740.287 1343.74,740.283 1351.09,735.609 1352.25,734.914 1358.57,730.754 1359.41,730.228 1359.56,730.119 1361.45,728.795 1372.99,720.615 1375.88,718.54 1411.28,698.121 1415.83,695.487 1418.83,693.555 1424.42,690.148 1433.68,684.917 1462.52,668.966 1467.38,666.558 1470.13,665.211 1476.2,661.811 1479.21,659.926 1483.13,657.256 1485,656.032 1488.32,653.936 1494.51,650.237 1496.04,649.363 1497.9,648.149 1498.95,647.476 1502.83,645.077 1511.33,640.157 1511.66,639.973 1519.76,635.623 1521.62,634.654 1532.19,628.572 1532.44,628.436 1537.89,625.514 1543.82,622.448 1551.35,618.111 1552.52,617.464 1555.95,615.314 1558.08,614.024 1565.27,609.313 1571.25,605.713 1580.59,600.497 1583.15,599.134 1590.87,595.151 1598.55,591.332 1599.78,590.624 1606.92,586.11 1608.76,584.85 1613.48,581.765 1615.22,580.677 1616.6,579.711 1619.12,577.995 1622.23,575.963 1629.03,571.264 1637.08,566.249 1639.41,564.884 1639.9,564.598 1643.34,562.359 1646.14,560.612 1646.58,560.341 1650.6,557.612 1655.57,554.436 1658.66,552.562 1660.5,551.316 1664.63,548.641 1665.25,548.248 1671.3,544.592 1678.84,540.339 1684.71,537.2 1685.36,536.861 1690.27,534.338 1695.81,531.561 1723.6,518.324 1736,512.611 1754.93,503.984 1788.08,488.983 1793.07,486.728 1795.09,485.643 1797.79,484.217 1798.22,483.949 1808.65,477.163 1814.21,473.882 1824.63,467.416 1825.76,466.762 1832.64,462.378 1839.11,458.569 1841.69,457.114 1846.33,454.581 1848.31,453.528 1858.07,447.791 1860.9,446.225 1863.67,444.728 1863.95,444.579 1874.08,439.332 1874.97,438.882 1880.59,436.099 1889.51,431.783 1896.92,428.278 1898.7,427.284 1905.66,423.544 1907.77,422.448 1915.19,418.677 1918.38,416.826 1930.19,410.405 1942.3,404.289 1950.16,400.471 1955.62,397.871 1957.34,397.059 1975.91,388.424 1978.05,387.442 1985.68,383.946 1991.79,381.161 1998.12,378.283 2005.42,374.411 2010.85,371.636 2012.08,370.911 2026.05,362.271 2033.9,357.939 2060.1,344.821 2062.03,343.903 2066.14,341.959 2067.71,341.223 2075.45,337.611 2080.01,335.503 2089.98,330.922 2093.2,329.177 2101.73,324.736 2110.79,320.225 2116.76,316.864 2120.86,314.644 2160.38,293.652 2160.64,293.507 2164.07,291.583 2168.37,289.249 2168.38,289.243 2184.15,281.193 2190.14,277.803 2193.52,275.963 2239.72,251.704 2250.52,246.648 2257.41,243.459 2266.8,238.457 2268.75,237.456 2269.19,237.228 2280.5,231.606 2289.34,227.361 2298.36,223.117 2306.55,219.314 2307.4,218.848 2310.79,217.014 2317.71,212.862 2319.7,211.718 2330.66,204.993 2330.96,204.818 2332.12,204.154 2339.41,200.129 2343.5,197.967 2352.56,192.685 2352.76,192.577 "/>
<polyline clip-path="url(#clip042)" style="stroke:#8e971d; stroke-linecap:round; stroke-linejoin:round; stroke-width:4; stroke-opacity:1; fill:none" points="140.696,1384.24 140.696,1384.24 144.57,1382.49 160.038,1375.52 164.09,1373.69 164.81,1373.3 166.272,1372.39 167.292,1371.67 175.794,1365.47 182.946,1360.85 193.09,1354.19 193.117,1354.17 193.211,1354.12 205.242,1346.35 205.402,1346.26 209.411,1343.59 221.587,1335.41 222.246,1334.94 227.544,1331.38 257.207,1314.8 266.872,1310.04 271.35,1307.88 287.004,1299.5 295.393,1295.31 301.129,1292.52 302.58,1291.83 308.013,1289.24 313.067,1286.86 319.691,1283.77 319.763,1283.73 332.275,1277.1 341.272,1271.94 345.653,1269.57 349.673,1267.12 354.966,1263.64 360.888,1260.01 367.754,1255.55 368.308,1255.15 391.139,1241.24 398.884,1237.15 416.189,1227.49 429.994,1219.61 431.973,1218.39 447.111,1209.78 464.552,1199.84 467.952,1197.77 470.986,1195.99 474.343,1193.81 497.055,1179.63 499.027,1178.39 499.612,1177.97 503.362,1175.08 504.23,1174.36 507.684,1171.63 517.08,1164.28 519.256,1162.56 528.249,1156.11 535.368,1151.59 544.529,1145.61 544.709,1145.5 548.648,1143.14 549.863,1142.32 554.432,1139.38 554.56,1139.3 569.087,1130.9 569.536,1130.66 572.233,1128.99 575.156,1126.99 577.287,1125.59 580.726,1123.12 581.237,1122.72 590.998,1115 606.666,1103.88 614.744,1099.03 617.187,1097.44 618.105,1096.77 619.371,1095.75 638.394,1082.82 649.53,1076.53 650.505,1076 654.393,1073.63 669.576,1064.18 678.235,1058.77 694.367,1048.83 701.482,1044.94 716.141,1036.49 718.691,1034.91 734.85,1024.75 736.762,1023.5 742.535,1019.45 743.535,1018.79 759.808,1009.04 761.545,1008.09 762.403,1007.62 767.566,1004.46 773.658,1000.96 795.934,989.387 810.07,981.653 815.248,979.001 823.382,974.961 843.682,965.304 858.764,958.336 862.389,956.676 883.218,947.195 886.818,945.563 888.112,944.976 890.345,943.965 911.582,933.129 924.695,926.865 929.009,924.843 930.678,924.064 934.033,922.224 937.264,920.495 940.598,918.47 946.295,915.173 959.059,907.451 961.638,905.791 964.261,903.936 971.479,898.635 977.956,893.859 982.748,890.246 988.574,886.227 997.519,879.991 1003.43,875.817 1016.2,867.023 1027.44,860.401 1036.64,854.775 1048.59,847.35 1069.53,836.162 1071.97,834.737 1075.57,832.698 1077.06,831.872 1079.56,830.505 1085.64,827.289 1090.05,825.032 1101.83,819.207 1107.43,816.074 1119.61,809.686 1131.53,803.797 1167.46,787.022 1181.85,779.509 1182.98,778.841 1205.29,766.897 1217.38,760.146 1223.32,757.046 1228.66,754.347 1229.05,754.151 1236.7,750.394 1244.82,745.886 1245.68,745.427 1248.49,743.942 1249.2,743.569 1252.72,741.751 1271.87,732.34 1273.66,731.337 1290.05,721.658 1300.65,715.326 1311.75,708.533 1318.64,704.153 1319.32,703.74 1339.35,692.697 1339.39,692.673 1343.74,690.116 1343.74,690.112 1351.09,685.449 1352.25,684.654 1358.57,680.03 1359.41,679.378 1359.56,679.26 1361.45,677.669 1372.99,669.08 1375.88,666.931 1411.28,644.496 1415.83,642.138 1418.83,640.359 1424.42,636.742 1433.68,630.578 1462.52,614.771 1467.38,612.374 1470.13,611.032 1476.2,608.12 1479.21,606.687 1483.13,604.519 1485,603.505 1488.32,601.741 1494.51,598.545 1496.04,597.773 1497.9,596.677 1498.95,595.974 1502.83,593.473 1511.33,588.384 1511.66,588.195 1519.76,583.736 1521.62,582.586 1532.19,576.478 1532.44,576.319 1537.89,572.522 1543.82,568.248 1551.35,563.351 1552.52,562.634 1555.95,560.583 1558.08,559.346 1565.27,555.338 1571.25,552.172 1580.59,547.438 1583.15,546.175 1590.87,542.434 1598.55,538.198 1599.78,537.545 1606.92,533.29 1608.76,532.243 1613.48,529.632 1615.22,528.695 1616.6,527.961 1619.12,526.634 1622.23,525.024 1629.03,521.595 1637.08,517.049 1639.41,515.79 1639.9,515.482 1643.34,513.098 1646.14,511.248 1646.58,510.962 1650.6,508.44 1655.57,505.474 1658.66,503.449 1660.5,502.121 1664.63,499.288 1665.25,498.874 1671.3,495.038 1678.84,490.042 1684.71,486.476 1685.36,486.096 1690.27,483.302 1695.81,480.282 1723.6,466.434 1736,459.759 1754.93,450.393 1788.08,434.966 1793.07,432.283 1795.09,431.224 1797.79,429.83 1798.22,429.606 1808.65,424.397 1814.21,421.255 1824.63,414.973 1825.76,414.334 1832.64,410.028 1839.11,406.273 1841.69,404.835 1846.33,402.33 1848.31,401.115 1858.07,395.477 1860.9,393.692 1863.67,391.772 1863.95,391.559 1874.08,384.435 1874.97,383.856 1880.59,380.375 1889.51,374.594 1896.92,369.681 1898.7,368.566 1905.66,364.439 1907.77,363.249 1915.19,358.637 1918.38,356.77 1930.19,349.482 1942.3,342.845 1950.16,338.216 1955.62,334.763 1957.34,333.574 1975.91,321.147 1978.05,319.899 1985.68,315.635 1991.79,312.401 1998.12,308.674 2005.42,304.641 2010.85,301.343 2012.08,300.623 2026.05,292.968 2033.9,288.97 2060.1,275.012 2062.03,273.897 2066.14,271.584 2067.71,270.589 2075.45,265.93 2080.01,263.356 2089.98,257.311 2093.2,255.488 2101.73,250.247 2110.79,245.164 2116.76,242.007 2120.86,239.899 2160.38,221.032 2160.64,220.915 2164.07,219.049 2168.37,216.423 2168.38,216.416 2184.15,206.653 2190.14,203.346 2193.52,201.543 2239.72,177.482 2250.52,171.666 2257.41,167.618 2266.8,162.494 2268.75,161.304 2269.19,161.036 2280.5,154.612 2289.34,149.312 2298.36,143.679 2306.55,138.403 2307.4,137.888 2310.79,135.593 2317.71,130.694 2319.7,129.201 2330.66,121.034 2330.96,120.828 2332.12,119.949 2339.41,114.799 2343.5,111.812 2352.56,105.165 2352.76,105.033 "/>
<path clip-path="url(#clip040)" d="M214.431 663.349 L554.896 663.349 L554.896 93.1086 L214.431 93.1086  Z" fill="#ffffff" fill-rule="evenodd" fill-opacity="1"/>
<polyline clip-path="url(#clip040)" style="stroke:#000000; stroke-linecap:round; stroke-linejoin:round; stroke-width:4; stroke-opacity:1; fill:none" points="214.431,663.349 554.896,663.349 554.896,93.1086 214.431,93.1086 214.431,663.349 "/>
<polyline clip-path="url(#clip040)" style="stroke:#009af9; stroke-linecap:round; stroke-linejoin:round; stroke-width:4; stroke-opacity:1; fill:none" points="239.009,144.949 386.48,144.949 "/>
<path clip-path="url(#clip040)" d="M411.058 151.997 L411.058 136.303 L415.318 136.303 L415.318 151.835 Q415.318 155.516 416.753 157.368 Q418.188 159.196 421.058 159.196 Q424.507 159.196 426.498 156.997 Q428.512 154.798 428.512 151.002 L428.512 136.303 L432.771 136.303 L432.771 162.229 L428.512 162.229 L428.512 158.247 Q426.961 160.608 424.901 161.766 Q422.864 162.9 420.156 162.9 Q415.688 162.9 413.373 160.122 Q411.058 157.344 411.058 151.997 M421.776 135.678 L421.776 135.678 Z" fill="#000000" fill-rule="nonzero" fill-opacity="1" /><path clip-path="url(#clip040)" d="M441.151 126.21 L450.966 126.21 L450.966 129.52 L445.41 129.52 L445.41 165.168 L450.966 165.168 L450.966 168.479 L441.151 168.479 L441.151 126.21 Z" fill="#000000" fill-rule="nonzero" fill-opacity="1" /><path clip-path="url(#clip040)" d="M461.452 158.293 L469.091 158.293 L469.091 131.928 L460.78 133.595 L460.78 129.335 L469.044 127.669 L473.72 127.669 L473.72 158.293 L481.359 158.293 L481.359 162.229 L461.452 162.229 L461.452 158.293 Z" fill="#000000" fill-rule="nonzero" fill-opacity="1" /><path clip-path="url(#clip040)" d="M500.155 126.21 L500.155 168.479 L490.34 168.479 L490.34 165.168 L495.873 165.168 L495.873 129.52 L490.34 129.52 L490.34 126.21 L500.155 126.21 Z" fill="#000000" fill-rule="nonzero" fill-opacity="1" /><polyline clip-path="url(#clip040)" style="stroke:#e26f46; stroke-linecap:round; stroke-linejoin:round; stroke-width:4; stroke-opacity:1; fill:none" points="239.009,196.789 386.48,196.789 "/>
<path clip-path="url(#clip040)" d="M411.058 203.837 L411.058 188.143 L415.318 188.143 L415.318 203.675 Q415.318 207.356 416.753 209.208 Q418.188 211.036 421.058 211.036 Q424.507 211.036 426.498 208.837 Q428.512 206.638 428.512 202.842 L428.512 188.143 L432.771 188.143 L432.771 214.069 L428.512 214.069 L428.512 210.087 Q426.961 212.448 424.901 213.606 Q422.864 214.74 420.156 214.74 Q415.688 214.74 413.373 211.962 Q411.058 209.184 411.058 203.837 M421.776 187.518 L421.776 187.518 Z" fill="#000000" fill-rule="nonzero" fill-opacity="1" /><path clip-path="url(#clip040)" d="M441.151 178.05 L450.966 178.05 L450.966 181.36 L445.41 181.36 L445.41 217.008 L450.966 217.008 L450.966 220.319 L441.151 220.319 L441.151 178.05 Z" fill="#000000" fill-rule="nonzero" fill-opacity="1" /><path clip-path="url(#clip040)" d="M464.669 210.133 L480.989 210.133 L480.989 214.069 L459.044 214.069 L459.044 210.133 Q461.706 207.379 466.29 202.749 Q470.896 198.096 472.077 196.754 Q474.322 194.231 475.202 192.495 Q476.104 190.735 476.104 189.046 Q476.104 186.291 474.16 184.555 Q472.239 182.819 469.137 182.819 Q466.938 182.819 464.484 183.583 Q462.054 184.347 459.276 185.897 L459.276 181.175 Q462.1 180.041 464.554 179.462 Q467.007 178.884 469.044 178.884 Q474.415 178.884 477.609 181.569 Q480.803 184.254 480.803 188.745 Q480.803 190.874 479.993 192.796 Q479.206 194.694 477.1 197.286 Q476.521 197.958 473.419 201.175 Q470.317 204.37 464.669 210.133 Z" fill="#000000" fill-rule="nonzero" fill-opacity="1" /><path clip-path="url(#clip040)" d="M500.155 178.05 L500.155 220.319 L490.34 220.319 L490.34 217.008 L495.873 217.008 L495.873 181.36 L490.34 181.36 L490.34 178.05 L500.155 178.05 Z" fill="#000000" fill-rule="nonzero" fill-opacity="1" /><polyline clip-path="url(#clip040)" style="stroke:#3da44d; stroke-linecap:round; stroke-linejoin:round; stroke-width:4; stroke-opacity:1; fill:none" points="239.009,248.629 386.48,248.629 "/>
<path clip-path="url(#clip040)" d="M411.058 255.677 L411.058 239.983 L415.318 239.983 L415.318 255.515 Q415.318 259.196 416.753 261.048 Q418.188 262.876 421.058 262.876 Q424.507 262.876 426.498 260.677 Q428.512 258.478 428.512 254.682 L428.512 239.983 L432.771 239.983 L432.771 265.909 L428.512 265.909 L428.512 261.927 Q426.961 264.288 424.901 265.446 Q422.864 266.58 420.156 266.58 Q415.688 266.58 413.373 263.802 Q411.058 261.024 411.058 255.677 M421.776 239.358 L421.776 239.358 Z" fill="#000000" fill-rule="nonzero" fill-opacity="1" /><path clip-path="url(#clip040)" d="M441.151 229.89 L450.966 229.89 L450.966 233.2 L445.41 233.2 L445.41 268.848 L450.966 268.848 L450.966 272.159 L441.151 272.159 L441.151 229.89 Z" fill="#000000" fill-rule="nonzero" fill-opacity="1" /><path clip-path="url(#clip040)" d="M474.808 247.274 Q478.165 247.992 480.04 250.261 Q481.938 252.529 481.938 255.862 Q481.938 260.978 478.419 263.779 Q474.901 266.58 468.419 266.58 Q466.243 266.58 463.929 266.14 Q461.637 265.723 459.183 264.867 L459.183 260.353 Q461.128 261.487 463.442 262.066 Q465.757 262.645 468.28 262.645 Q472.679 262.645 474.97 260.909 Q477.285 259.173 477.285 255.862 Q477.285 252.807 475.132 251.094 Q473.003 249.358 469.183 249.358 L465.155 249.358 L465.155 245.515 L469.368 245.515 Q472.817 245.515 474.646 244.149 Q476.475 242.761 476.475 240.168 Q476.475 237.506 474.577 236.094 Q472.702 234.659 469.183 234.659 Q467.262 234.659 465.063 235.075 Q462.864 235.492 460.225 236.372 L460.225 232.205 Q462.887 231.464 465.202 231.094 Q467.54 230.724 469.6 230.724 Q474.924 230.724 478.026 233.154 Q481.128 235.562 481.128 239.682 Q481.128 242.552 479.484 244.543 Q477.841 246.511 474.808 247.274 Z" fill="#000000" fill-rule="nonzero" fill-opacity="1" /><path clip-path="url(#clip040)" d="M500.155 229.89 L500.155 272.159 L490.34 272.159 L490.34 268.848 L495.873 268.848 L495.873 233.2 L490.34 233.2 L490.34 229.89 L500.155 229.89 Z" fill="#000000" fill-rule="nonzero" fill-opacity="1" /><polyline clip-path="url(#clip040)" style="stroke:#c271d2; stroke-linecap:round; stroke-linejoin:round; stroke-width:4; stroke-opacity:1; fill:none" points="239.009,300.469 386.48,300.469 "/>
<path clip-path="url(#clip040)" d="M411.058 307.517 L411.058 291.823 L415.318 291.823 L415.318 307.355 Q415.318 311.036 416.753 312.888 Q418.188 314.716 421.058 314.716 Q424.507 314.716 426.498 312.517 Q428.512 310.318 428.512 306.522 L428.512 291.823 L432.771 291.823 L432.771 317.749 L428.512 317.749 L428.512 313.767 Q426.961 316.128 424.901 317.286 Q422.864 318.42 420.156 318.42 Q415.688 318.42 413.373 315.642 Q411.058 312.864 411.058 307.517 M421.776 291.198 L421.776 291.198 Z" fill="#000000" fill-rule="nonzero" fill-opacity="1" /><path clip-path="url(#clip040)" d="M441.151 281.73 L450.966 281.73 L450.966 285.04 L445.41 285.04 L445.41 320.688 L450.966 320.688 L450.966 323.999 L441.151 323.999 L441.151 281.73 Z" fill="#000000" fill-rule="nonzero" fill-opacity="1" /><path clip-path="url(#clip040)" d="M473.489 287.263 L461.683 305.712 L473.489 305.712 L473.489 287.263 M472.262 283.189 L478.141 283.189 L478.141 305.712 L483.072 305.712 L483.072 309.601 L478.141 309.601 L478.141 317.749 L473.489 317.749 L473.489 309.601 L457.887 309.601 L457.887 305.087 L472.262 283.189 Z" fill="#000000" fill-rule="nonzero" fill-opacity="1" /><path clip-path="url(#clip040)" d="M500.155 281.73 L500.155 323.999 L490.34 323.999 L490.34 320.688 L495.873 320.688 L495.873 285.04 L490.34 285.04 L490.34 281.73 L500.155 281.73 Z" fill="#000000" fill-rule="nonzero" fill-opacity="1" /><polyline clip-path="url(#clip040)" style="stroke:#ac8d18; stroke-linecap:round; stroke-linejoin:round; stroke-width:4; stroke-opacity:1; fill:none" points="239.009,352.309 386.48,352.309 "/>
<path clip-path="url(#clip040)" d="M411.058 359.357 L411.058 343.663 L415.318 343.663 L415.318 359.195 Q415.318 362.876 416.753 364.728 Q418.188 366.556 421.058 366.556 Q424.507 366.556 426.498 364.357 Q428.512 362.158 428.512 358.362 L428.512 343.663 L432.771 343.663 L432.771 369.589 L428.512 369.589 L428.512 365.607 Q426.961 367.968 424.901 369.126 Q422.864 370.26 420.156 370.26 Q415.688 370.26 413.373 367.482 Q411.058 364.704 411.058 359.357 M421.776 343.038 L421.776 343.038 Z" fill="#000000" fill-rule="nonzero" fill-opacity="1" /><path clip-path="url(#clip040)" d="M441.151 333.57 L450.966 333.57 L450.966 336.88 L445.41 336.88 L445.41 372.528 L450.966 372.528 L450.966 375.839 L441.151 375.839 L441.151 333.57 Z" fill="#000000" fill-rule="nonzero" fill-opacity="1" /><path clip-path="url(#clip040)" d="M460.688 335.029 L479.044 335.029 L479.044 338.964 L464.97 338.964 L464.97 347.436 Q465.989 347.089 467.007 346.927 Q468.026 346.742 469.044 346.742 Q474.831 346.742 478.211 349.913 Q481.591 353.084 481.591 358.501 Q481.591 364.079 478.118 367.181 Q474.646 370.26 468.327 370.26 Q466.151 370.26 463.882 369.89 Q461.637 369.519 459.23 368.778 L459.23 364.079 Q461.313 365.214 463.535 365.769 Q465.757 366.325 468.234 366.325 Q472.239 366.325 474.577 364.218 Q476.915 362.112 476.915 358.501 Q476.915 354.89 474.577 352.783 Q472.239 350.677 468.234 350.677 Q466.359 350.677 464.484 351.093 Q462.632 351.51 460.688 352.39 L460.688 335.029 Z" fill="#000000" fill-rule="nonzero" fill-opacity="1" /><path clip-path="url(#clip040)" d="M500.155 333.57 L500.155 375.839 L490.34 375.839 L490.34 372.528 L495.873 372.528 L495.873 336.88 L490.34 336.88 L490.34 333.57 L500.155 333.57 Z" fill="#000000" fill-rule="nonzero" fill-opacity="1" /><polyline clip-path="url(#clip040)" style="stroke:#00a9ad; stroke-linecap:round; stroke-linejoin:round; stroke-width:4; stroke-opacity:1; fill:none" points="239.009,404.149 386.48,404.149 "/>
<path clip-path="url(#clip040)" d="M411.058 411.197 L411.058 395.503 L415.318 395.503 L415.318 411.035 Q415.318 414.716 416.753 416.568 Q418.188 418.396 421.058 418.396 Q424.507 418.396 426.498 416.197 Q428.512 413.998 428.512 410.202 L428.512 395.503 L432.771 395.503 L432.771 421.429 L428.512 421.429 L428.512 417.447 Q426.961 419.808 424.901 420.966 Q422.864 422.1 420.156 422.1 Q415.688 422.1 413.373 419.322 Q411.058 416.544 411.058 411.197 M421.776 394.878 L421.776 394.878 Z" fill="#000000" fill-rule="nonzero" fill-opacity="1" /><path clip-path="url(#clip040)" d="M441.151 385.41 L450.966 385.41 L450.966 388.72 L445.41 388.72 L445.41 424.368 L450.966 424.368 L450.966 427.679 L441.151 427.679 L441.151 385.41 Z" fill="#000000" fill-rule="nonzero" fill-opacity="1" /><path clip-path="url(#clip040)" d="M471.22 402.285 Q468.072 402.285 466.22 404.438 Q464.392 406.591 464.392 410.341 Q464.392 414.068 466.22 416.243 Q468.072 418.396 471.22 418.396 Q474.368 418.396 476.197 416.243 Q478.049 414.068 478.049 410.341 Q478.049 406.591 476.197 404.438 Q474.368 402.285 471.22 402.285 M480.503 387.633 L480.503 391.892 Q478.743 391.058 476.938 390.619 Q475.155 390.179 473.396 390.179 Q468.766 390.179 466.313 393.304 Q463.882 396.429 463.535 402.748 Q464.901 400.734 466.961 399.669 Q469.021 398.582 471.498 398.582 Q476.706 398.582 479.716 401.753 Q482.748 404.901 482.748 410.341 Q482.748 415.665 479.6 418.882 Q476.452 422.1 471.22 422.1 Q465.225 422.1 462.054 417.517 Q458.882 412.91 458.882 404.183 Q458.882 395.989 462.771 391.128 Q466.66 386.244 473.211 386.244 Q474.97 386.244 476.753 386.591 Q478.558 386.938 480.503 387.633 Z" fill="#000000" fill-rule="nonzero" fill-opacity="1" /><path clip-path="url(#clip040)" d="M500.155 385.41 L500.155 427.679 L490.34 427.679 L490.34 424.368 L495.873 424.368 L495.873 388.72 L490.34 388.72 L490.34 385.41 L500.155 385.41 Z" fill="#000000" fill-rule="nonzero" fill-opacity="1" /><polyline clip-path="url(#clip040)" style="stroke:#ed5d92; stroke-linecap:round; stroke-linejoin:round; stroke-width:4; stroke-opacity:1; fill:none" points="239.009,455.989 386.48,455.989 "/>
<path clip-path="url(#clip040)" d="M411.058 463.037 L411.058 447.343 L415.318 447.343 L415.318 462.875 Q415.318 466.556 416.753 468.408 Q418.188 470.236 421.058 470.236 Q424.507 470.236 426.498 468.037 Q428.512 465.838 428.512 462.042 L428.512 447.343 L432.771 447.343 L432.771 473.269 L428.512 473.269 L428.512 469.287 Q426.961 471.648 424.901 472.806 Q422.864 473.94 420.156 473.94 Q415.688 473.94 413.373 471.162 Q411.058 468.384 411.058 463.037 M421.776 446.718 L421.776 446.718 Z" fill="#000000" fill-rule="nonzero" fill-opacity="1" /><path clip-path="url(#clip040)" d="M441.151 437.25 L450.966 437.25 L450.966 440.56 L445.41 440.56 L445.41 476.208 L450.966 476.208 L450.966 479.519 L441.151 479.519 L441.151 437.25 Z" fill="#000000" fill-rule="nonzero" fill-opacity="1" /><path clip-path="url(#clip040)" d="M459.461 438.709 L481.683 438.709 L481.683 440.699 L469.137 473.269 L464.253 473.269 L476.058 442.644 L459.461 442.644 L459.461 438.709 Z" fill="#000000" fill-rule="nonzero" fill-opacity="1" /><path clip-path="url(#clip040)" d="M500.155 437.25 L500.155 479.519 L490.34 479.519 L490.34 476.208 L495.873 476.208 L495.873 440.56 L490.34 440.56 L490.34 437.25 L500.155 437.25 Z" fill="#000000" fill-rule="nonzero" fill-opacity="1" /><polyline clip-path="url(#clip040)" style="stroke:#c68125; stroke-linecap:round; stroke-linejoin:round; stroke-width:4; stroke-opacity:1; fill:none" points="239.009,507.829 386.48,507.829 "/>
<path clip-path="url(#clip040)" d="M411.058 514.877 L411.058 499.183 L415.318 499.183 L415.318 514.715 Q415.318 518.396 416.753 520.248 Q418.188 522.076 421.058 522.076 Q424.507 522.076 426.498 519.877 Q428.512 517.678 428.512 513.882 L428.512 499.183 L432.771 499.183 L432.771 525.109 L428.512 525.109 L428.512 521.127 Q426.961 523.488 424.901 524.646 Q422.864 525.78 420.156 525.78 Q415.688 525.78 413.373 523.002 Q411.058 520.224 411.058 514.877 M421.776 498.558 L421.776 498.558 Z" fill="#000000" fill-rule="nonzero" fill-opacity="1" /><path clip-path="url(#clip040)" d="M441.151 489.09 L450.966 489.09 L450.966 492.4 L445.41 492.4 L445.41 528.048 L450.966 528.048 L450.966 531.359 L441.151 531.359 L441.151 489.09 Z" fill="#000000" fill-rule="nonzero" fill-opacity="1" /><path clip-path="url(#clip040)" d="M470.641 508.697 Q467.308 508.697 465.387 510.479 Q463.489 512.261 463.489 515.386 Q463.489 518.511 465.387 520.294 Q467.308 522.076 470.641 522.076 Q473.975 522.076 475.896 520.294 Q477.817 518.488 477.817 515.386 Q477.817 512.261 475.896 510.479 Q473.998 508.697 470.641 508.697 M465.966 506.706 Q462.956 505.965 461.267 503.905 Q459.6 501.845 459.6 498.882 Q459.6 494.738 462.54 492.331 Q465.503 489.924 470.641 489.924 Q475.803 489.924 478.743 492.331 Q481.683 494.738 481.683 498.882 Q481.683 501.845 479.993 503.905 Q478.327 505.965 475.341 506.706 Q478.72 507.493 480.595 509.785 Q482.493 512.076 482.493 515.386 Q482.493 520.41 479.415 523.095 Q476.359 525.78 470.641 525.78 Q464.924 525.78 461.845 523.095 Q458.79 520.41 458.79 515.386 Q458.79 512.076 460.688 509.785 Q462.586 507.493 465.966 506.706 M464.253 499.322 Q464.253 502.007 465.919 503.512 Q467.609 505.016 470.641 505.016 Q473.651 505.016 475.341 503.512 Q477.053 502.007 477.053 499.322 Q477.053 496.637 475.341 495.132 Q473.651 493.627 470.641 493.627 Q467.609 493.627 465.919 495.132 Q464.253 496.637 464.253 499.322 Z" fill="#000000" fill-rule="nonzero" fill-opacity="1" /><path clip-path="url(#clip040)" d="M500.155 489.09 L500.155 531.359 L490.34 531.359 L490.34 528.048 L495.873 528.048 L495.873 492.4 L490.34 492.4 L490.34 489.09 L500.155 489.09 Z" fill="#000000" fill-rule="nonzero" fill-opacity="1" /><polyline clip-path="url(#clip040)" style="stroke:#00a98d; stroke-linecap:round; stroke-linejoin:round; stroke-width:4; stroke-opacity:1; fill:none" points="239.009,559.669 386.48,559.669 "/>
<path clip-path="url(#clip040)" d="M411.058 566.717 L411.058 551.023 L415.318 551.023 L415.318 566.555 Q415.318 570.236 416.753 572.088 Q418.188 573.916 421.058 573.916 Q424.507 573.916 426.498 571.717 Q428.512 569.518 428.512 565.722 L428.512 551.023 L432.771 551.023 L432.771 576.949 L428.512 576.949 L428.512 572.967 Q426.961 575.328 424.901 576.486 Q422.864 577.62 420.156 577.62 Q415.688 577.62 413.373 574.842 Q411.058 572.064 411.058 566.717 M421.776 550.398 L421.776 550.398 Z" fill="#000000" fill-rule="nonzero" fill-opacity="1" /><path clip-path="url(#clip040)" d="M441.151 540.93 L450.966 540.93 L450.966 544.24 L445.41 544.24 L445.41 579.888 L450.966 579.888 L450.966 583.199 L441.151 583.199 L441.151 540.93 Z" fill="#000000" fill-rule="nonzero" fill-opacity="1" /><path clip-path="url(#clip040)" d="M460.78 576.231 L460.78 571.972 Q462.54 572.805 464.345 573.245 Q466.151 573.685 467.887 573.685 Q472.516 573.685 474.947 570.583 Q477.401 567.458 477.748 561.115 Q476.405 563.106 474.345 564.171 Q472.285 565.236 469.785 565.236 Q464.6 565.236 461.567 562.111 Q458.558 558.963 458.558 553.523 Q458.558 548.199 461.706 544.981 Q464.854 541.764 470.086 541.764 Q476.081 541.764 479.229 546.37 Q482.401 550.953 482.401 559.703 Q482.401 567.875 478.512 572.759 Q474.646 577.62 468.095 577.62 Q466.336 577.62 464.53 577.273 Q462.725 576.925 460.78 576.231 M470.086 561.578 Q473.234 561.578 475.063 559.426 Q476.915 557.273 476.915 553.523 Q476.915 549.796 475.063 547.643 Q473.234 545.467 470.086 545.467 Q466.938 545.467 465.086 547.643 Q463.257 549.796 463.257 553.523 Q463.257 557.273 465.086 559.426 Q466.938 561.578 470.086 561.578 Z" fill="#000000" fill-rule="nonzero" fill-opacity="1" /><path clip-path="url(#clip040)" d="M500.155 540.93 L500.155 583.199 L490.34 583.199 L490.34 579.888 L495.873 579.888 L495.873 544.24 L490.34 544.24 L490.34 540.93 L500.155 540.93 Z" fill="#000000" fill-rule="nonzero" fill-opacity="1" /><polyline clip-path="url(#clip040)" style="stroke:#8e971d; stroke-linecap:round; stroke-linejoin:round; stroke-width:4; stroke-opacity:1; fill:none" points="239.009,611.509 386.48,611.509 "/>
<path clip-path="url(#clip040)" d="M411.058 618.557 L411.058 602.863 L415.318 602.863 L415.318 618.395 Q415.318 622.076 416.753 623.928 Q418.188 625.756 421.058 625.756 Q424.507 625.756 426.498 623.557 Q428.512 621.358 428.512 617.562 L428.512 602.863 L432.771 602.863 L432.771 628.789 L428.512 628.789 L428.512 624.807 Q426.961 627.168 424.901 628.326 Q422.864 629.46 420.156 629.46 Q415.688 629.46 413.373 626.682 Q411.058 623.904 411.058 618.557 M421.776 602.238 L421.776 602.238 Z" fill="#000000" fill-rule="nonzero" fill-opacity="1" /><path clip-path="url(#clip040)" d="M441.151 592.77 L450.966 592.77 L450.966 596.08 L445.41 596.08 L445.41 631.728 L450.966 631.728 L450.966 635.039 L441.151 635.039 L441.151 592.77 Z" fill="#000000" fill-rule="nonzero" fill-opacity="1" /><path clip-path="url(#clip040)" d="M461.452 624.853 L469.091 624.853 L469.091 598.488 L460.78 600.155 L460.78 595.895 L469.044 594.229 L473.72 594.229 L473.72 624.853 L481.359 624.853 L481.359 628.789 L461.452 628.789 L461.452 624.853 Z" fill="#000000" fill-rule="nonzero" fill-opacity="1" /><path clip-path="url(#clip040)" d="M500.803 597.307 Q497.192 597.307 495.364 600.872 Q493.558 604.414 493.558 611.543 Q493.558 618.65 495.364 622.215 Q497.192 625.756 500.803 625.756 Q504.438 625.756 506.243 622.215 Q508.072 618.65 508.072 611.543 Q508.072 604.414 506.243 600.872 Q504.438 597.307 500.803 597.307 M500.803 593.604 Q506.614 593.604 509.669 598.21 Q512.748 602.793 512.748 611.543 Q512.748 620.27 509.669 624.877 Q506.614 629.46 500.803 629.46 Q494.993 629.46 491.915 624.877 Q488.859 620.27 488.859 611.543 Q488.859 602.793 491.915 598.21 Q494.993 593.604 500.803 593.604 Z" fill="#000000" fill-rule="nonzero" fill-opacity="1" /><path clip-path="url(#clip040)" d="M530.317 592.77 L530.317 635.039 L520.502 635.039 L520.502 631.728 L526.035 631.728 L526.035 596.08 L520.502 596.08 L520.502 592.77 L530.317 592.77 Z" fill="#000000" fill-rule="nonzero" fill-opacity="1" /></svg>
