<?xml version="1.0" encoding="utf-8"?>
<svg xmlns="http://www.w3.org/2000/svg" xmlns:xlink="http://www.w3.org/1999/xlink" width="600" height="400" viewBox="0 0 2400 1600">
<defs>
  <clipPath id="clip220">
    <rect x="0" y="0" width="2400" height="1600"/>
  </clipPath>
</defs>
<path clip-path="url(#clip220)" d="M0 1600 L2400 1600 L2400 0 L0 0  Z" fill="#ffffff" fill-rule="evenodd" fill-opacity="1"/>
<defs>
  <clipPath id="clip221">
    <rect x="138" y="47" width="2215" height="1377"/>
  </clipPath>
</defs>
<path clip-path="url(#clip220)" d="M138.959 1423.18 L2352.76 1423.18 L2352.76 47.2441 L138.959 47.2441  Z" fill="#ffffff" fill-rule="evenodd" fill-opacity="1"/>
<polyline clip-path="url(#clip221)" style="stroke:#000000; stroke-linecap:round; stroke-linejoin:round; stroke-width:2; stroke-opacity:0.1; fill:none" points="138.959,1423.18 138.959,47.2441 "/>
<polyline clip-path="url(#clip221)" style="stroke:#000000; stroke-linecap:round; stroke-linejoin:round; stroke-width:2; stroke-opacity:0.1; fill:none" points="581.719,1423.18 581.719,47.2441 "/>
<polyline clip-path="url(#clip221)" style="stroke:#000000; stroke-linecap:round; stroke-linejoin:round; stroke-width:2; stroke-opacity:0.1; fill:none" points="1024.48,1423.18 1024.48,47.2441 "/>
<polyline clip-path="url(#clip221)" style="stroke:#000000; stroke-linecap:round; stroke-linejoin:round; stroke-width:2; stroke-opacity:0.1; fill:none" points="1467.24,1423.18 1467.24,47.2441 "/>
<polyline clip-path="url(#clip221)" style="stroke:#000000; stroke-linecap:round; stroke-linejoin:round; stroke-width:2; stroke-opacity:0.1; fill:none" points="1910,1423.18 1910,47.2441 "/>
<polyline clip-path="url(#clip221)" style="stroke:#000000; stroke-linecap:round; stroke-linejoin:round; stroke-width:2; stroke-opacity:0.1; fill:none" points="2352.76,1423.18 2352.76,47.2441 "/>
<polyline clip-path="url(#clip221)" style="stroke:#000000; stroke-linecap:round; stroke-linejoin:round; stroke-width:2; stroke-opacity:0.1; fill:none" points="138.959,1384.24 2352.76,1384.24 "/>
<polyline clip-path="url(#clip221)" style="stroke:#000000; stroke-linecap:round; stroke-linejoin:round; stroke-width:2; stroke-opacity:0.1; fill:none" points="138.959,1002.46 2352.76,1002.46 "/>
<polyline clip-path="url(#clip221)" style="stroke:#000000; stroke-linecap:round; stroke-linejoin:round; stroke-width:2; stroke-opacity:0.1; fill:none" points="138.959,620.678 2352.76,620.678 "/>
<polyline clip-path="url(#clip221)" style="stroke:#000000; stroke-linecap:round; stroke-linejoin:round; stroke-width:2; stroke-opacity:0.1; fill:none" points="138.959,238.898 2352.76,238.898 "/>
<polyline clip-path="url(#clip220)" style="stroke:#000000; stroke-linecap:round; stroke-linejoin:round; stroke-width:4; stroke-opacity:1; fill:none" points="138.959,1423.18 2352.76,1423.18 "/>
<polyline clip-path="url(#clip220)" style="stroke:#000000; stroke-linecap:round; stroke-linejoin:round; stroke-width:4; stroke-opacity:1; fill:none" points="138.959,1423.18 138.959,1404.28 "/>
<polyline clip-path="url(#clip220)" style="stroke:#000000; stroke-linecap:round; stroke-linejoin:round; stroke-width:4; stroke-opacity:1; fill:none" points="581.719,1423.18 581.719,1404.28 "/>
<polyline clip-path="url(#clip220)" style="stroke:#000000; stroke-linecap:round; stroke-linejoin:round; stroke-width:4; stroke-opacity:1; fill:none" points="1024.48,1423.18 1024.48,1404.28 "/>
<polyline clip-path="url(#clip220)" style="stroke:#000000; stroke-linecap:round; stroke-linejoin:round; stroke-width:4; stroke-opacity:1; fill:none" points="1467.24,1423.18 1467.24,1404.28 "/>
<polyline clip-path="url(#clip220)" style="stroke:#000000; stroke-linecap:round; stroke-linejoin:round; stroke-width:4; stroke-opacity:1; fill:none" points="1910,1423.18 1910,1404.28 "/>
<polyline clip-path="url(#clip220)" style="stroke:#000000; stroke-linecap:round; stroke-linejoin:round; stroke-width:4; stroke-opacity:1; fill:none" points="2352.76,1423.18 2352.76,1404.28 "/>
<path clip-path="url(#clip220)" d="M138.959 1454.1 Q135.348 1454.1 133.52 1457.66 Q131.714 1461.2 131.714 1468.33 Q131.714 1475.44 133.52 1479.01 Q135.348 1482.55 138.959 1482.55 Q142.594 1482.55 144.399 1479.01 Q146.228 1475.44 146.228 1468.33 Q146.228 1461.2 144.399 1457.66 Q142.594 1454.1 138.959 1454.1 M138.959 1450.39 Q144.77 1450.39 147.825 1455 Q150.904 1459.58 150.904 1468.33 Q150.904 1477.06 147.825 1481.67 Q144.77 1486.25 138.959 1486.25 Q133.149 1486.25 130.071 1481.67 Q127.015 1477.06 127.015 1468.33 Q127.015 1459.58 130.071 1455 Q133.149 1450.39 138.959 1450.39 Z" fill="#000000" fill-rule="nonzero" fill-opacity="1" /><path clip-path="url(#clip220)" d="M576.372 1481.64 L592.691 1481.64 L592.691 1485.58 L570.747 1485.58 L570.747 1481.64 Q573.409 1478.89 577.992 1474.26 Q582.598 1469.61 583.779 1468.27 Q586.024 1465.74 586.904 1464.01 Q587.807 1462.25 587.807 1460.56 Q587.807 1457.8 585.862 1456.07 Q583.941 1454.33 580.839 1454.33 Q578.64 1454.33 576.186 1455.09 Q573.756 1455.86 570.978 1457.41 L570.978 1452.69 Q573.802 1451.55 576.256 1450.97 Q578.709 1450.39 580.747 1450.39 Q586.117 1450.39 589.311 1453.08 Q592.506 1455.77 592.506 1460.26 Q592.506 1462.39 591.696 1464.31 Q590.908 1466.2 588.802 1468.8 Q588.223 1469.47 585.121 1472.69 Q582.02 1475.88 576.372 1481.64 Z" fill="#000000" fill-rule="nonzero" fill-opacity="1" /><path clip-path="url(#clip220)" d="M1027.49 1455.09 L1015.68 1473.54 L1027.49 1473.54 L1027.49 1455.09 M1026.26 1451.02 L1032.14 1451.02 L1032.14 1473.54 L1037.07 1473.54 L1037.07 1477.43 L1032.14 1477.43 L1032.14 1485.58 L1027.49 1485.58 L1027.49 1477.43 L1011.89 1477.43 L1011.89 1472.92 L1026.26 1451.02 Z" fill="#000000" fill-rule="nonzero" fill-opacity="1" /><path clip-path="url(#clip220)" d="M1467.64 1466.44 Q1464.49 1466.44 1462.64 1468.59 Q1460.81 1470.74 1460.81 1474.49 Q1460.81 1478.22 1462.64 1480.39 Q1464.49 1482.55 1467.64 1482.55 Q1470.79 1482.55 1472.62 1480.39 Q1474.47 1478.22 1474.47 1474.49 Q1474.47 1470.74 1472.62 1468.59 Q1470.79 1466.44 1467.64 1466.44 M1476.92 1451.78 L1476.92 1456.04 Q1475.17 1455.21 1473.36 1454.77 Q1471.58 1454.33 1469.82 1454.33 Q1465.19 1454.33 1462.74 1457.45 Q1460.3 1460.58 1459.96 1466.9 Q1461.32 1464.89 1463.38 1463.82 Q1465.44 1462.73 1467.92 1462.73 Q1473.13 1462.73 1476.14 1465.9 Q1479.17 1469.05 1479.17 1474.49 Q1479.17 1479.82 1476.02 1483.03 Q1472.87 1486.25 1467.64 1486.25 Q1461.65 1486.25 1458.48 1481.67 Q1455.3 1477.06 1455.3 1468.33 Q1455.3 1460.14 1459.19 1455.28 Q1463.08 1450.39 1469.63 1450.39 Q1471.39 1450.39 1473.17 1450.74 Q1474.98 1451.09 1476.92 1451.78 Z" fill="#000000" fill-rule="nonzero" fill-opacity="1" /><path clip-path="url(#clip220)" d="M1910 1469.17 Q1906.66 1469.17 1904.74 1470.95 Q1902.84 1472.73 1902.84 1475.86 Q1902.84 1478.98 1904.74 1480.77 Q1906.66 1482.55 1910 1482.55 Q1913.33 1482.55 1915.25 1480.77 Q1917.17 1478.96 1917.17 1475.86 Q1917.17 1472.73 1915.25 1470.95 Q1913.35 1469.17 1910 1469.17 M1905.32 1467.18 Q1902.31 1466.44 1900.62 1464.38 Q1898.96 1462.32 1898.96 1459.35 Q1898.96 1455.21 1901.89 1452.8 Q1904.86 1450.39 1910 1450.39 Q1915.16 1450.39 1918.1 1452.8 Q1921.04 1455.21 1921.04 1459.35 Q1921.04 1462.32 1919.35 1464.38 Q1917.68 1466.44 1914.7 1467.18 Q1918.08 1467.96 1919.95 1470.26 Q1921.85 1472.55 1921.85 1475.86 Q1921.85 1480.88 1918.77 1483.57 Q1915.71 1486.25 1910 1486.25 Q1904.28 1486.25 1901.2 1483.57 Q1898.14 1480.88 1898.14 1475.86 Q1898.14 1472.55 1900.04 1470.26 Q1901.94 1467.96 1905.32 1467.18 M1903.61 1459.79 Q1903.61 1462.48 1905.27 1463.98 Q1906.96 1465.49 1910 1465.49 Q1913.01 1465.49 1914.7 1463.98 Q1916.41 1462.48 1916.41 1459.79 Q1916.41 1457.11 1914.7 1455.6 Q1913.01 1454.1 1910 1454.1 Q1906.96 1454.1 1905.27 1455.6 Q1903.61 1457.11 1903.61 1459.79 Z" fill="#000000" fill-rule="nonzero" fill-opacity="1" /><path clip-path="url(#clip220)" d="M2327.44 1481.64 L2335.08 1481.64 L2335.08 1455.28 L2326.77 1456.95 L2326.77 1452.69 L2335.04 1451.02 L2339.71 1451.02 L2339.71 1481.64 L2347.35 1481.64 L2347.35 1485.58 L2327.44 1485.58 L2327.44 1481.64 Z" fill="#000000" fill-rule="nonzero" fill-opacity="1" /><path clip-path="url(#clip220)" d="M2366.8 1454.1 Q2363.18 1454.1 2361.36 1457.66 Q2359.55 1461.2 2359.55 1468.33 Q2359.55 1475.44 2361.36 1479.01 Q2363.18 1482.55 2366.8 1482.55 Q2370.43 1482.55 2372.23 1479.01 Q2374.06 1475.44 2374.06 1468.33 Q2374.06 1461.2 2372.23 1457.66 Q2370.43 1454.1 2366.8 1454.1 M2366.8 1450.39 Q2372.61 1450.39 2375.66 1455 Q2378.74 1459.58 2378.74 1468.33 Q2378.74 1477.06 2375.66 1481.67 Q2372.61 1486.25 2366.8 1486.25 Q2360.99 1486.25 2357.91 1481.67 Q2354.85 1477.06 2354.85 1468.33 Q2354.85 1459.58 2357.91 1455 Q2360.99 1450.39 2366.8 1450.39 Z" fill="#000000" fill-rule="nonzero" fill-opacity="1" /><path clip-path="url(#clip220)" d="M1244.92 1522.27 L1244.92 1532.4 L1256.98 1532.4 L1256.98 1536.95 L1244.92 1536.95 L1244.92 1556.3 Q1244.92 1560.66 1246.1 1561.9 Q1247.31 1563.14 1250.97 1563.14 L1256.98 1563.14 L1256.98 1568.04 L1250.97 1568.04 Q1244.19 1568.04 1241.61 1565.53 Q1239.03 1562.98 1239.03 1556.3 L1239.03 1536.95 L1234.73 1536.95 L1234.73 1532.4 L1239.03 1532.4 L1239.03 1522.27 L1244.92 1522.27 Z" fill="#000000" fill-rule="nonzero" fill-opacity="1" /><polyline clip-path="url(#clip220)" style="stroke:#000000; stroke-linecap:round; stroke-linejoin:round; stroke-width:4; stroke-opacity:1; fill:none" points="138.959,1423.18 138.959,47.2441 "/>
<polyline clip-path="url(#clip220)" style="stroke:#000000; stroke-linecap:round; stroke-linejoin:round; stroke-width:4; stroke-opacity:1; fill:none" points="138.959,1384.24 157.857,1384.24 "/>
<polyline clip-path="url(#clip220)" style="stroke:#000000; stroke-linecap:round; stroke-linejoin:round; stroke-width:4; stroke-opacity:1; fill:none" points="138.959,1002.46 157.857,1002.46 "/>
<polyline clip-path="url(#clip220)" style="stroke:#000000; stroke-linecap:round; stroke-linejoin:round; stroke-width:4; stroke-opacity:1; fill:none" points="138.959,620.678 157.857,620.678 "/>
<polyline clip-path="url(#clip220)" style="stroke:#000000; stroke-linecap:round; stroke-linejoin:round; stroke-width:4; stroke-opacity:1; fill:none" points="138.959,238.898 157.857,238.898 "/>
<path clip-path="url(#clip220)" d="M91.0151 1370.04 Q87.404 1370.04 85.5753 1373.6 Q83.7697 1377.14 83.7697 1384.27 Q83.7697 1391.38 85.5753 1394.94 Q87.404 1398.49 91.0151 1398.49 Q94.6493 1398.49 96.4548 1394.94 Q98.2835 1391.38 98.2835 1384.27 Q98.2835 1377.14 96.4548 1373.6 Q94.6493 1370.04 91.0151 1370.04 M91.0151 1366.33 Q96.8252 1366.33 99.8808 1370.94 Q102.959 1375.52 102.959 1384.27 Q102.959 1393 99.8808 1397.61 Q96.8252 1402.19 91.0151 1402.19 Q85.2049 1402.19 82.1262 1397.61 Q79.0707 1393 79.0707 1384.27 Q79.0707 1375.52 82.1262 1370.94 Q85.2049 1366.33 91.0151 1366.33 Z" fill="#000000" fill-rule="nonzero" fill-opacity="1" /><path clip-path="url(#clip220)" d="M82.0568 985.178 L100.413 985.178 L100.413 989.113 L86.3392 989.113 L86.3392 997.585 Q87.3577 997.238 88.3762 997.076 Q89.3947 996.891 90.4132 996.891 Q96.2002 996.891 99.5798 1000.06 Q102.959 1003.23 102.959 1008.65 Q102.959 1014.23 99.4872 1017.33 Q96.015 1020.41 89.6956 1020.41 Q87.5197 1020.41 85.2512 1020.04 Q83.0058 1019.67 80.5984 1018.93 L80.5984 1014.23 Q82.6818 1015.36 84.904 1015.92 Q87.1262 1016.47 89.603 1016.47 Q93.6076 1016.47 95.9456 1014.37 Q98.2835 1012.26 98.2835 1008.65 Q98.2835 1005.04 95.9456 1002.93 Q93.6076 1000.83 89.603 1000.83 Q87.728 1000.83 85.8531 1001.24 Q84.0012 1001.66 82.0568 1002.54 L82.0568 985.178 Z" fill="#000000" fill-rule="nonzero" fill-opacity="1" /><path clip-path="url(#clip220)" d="M51.6634 634.023 L59.3023 634.023 L59.3023 607.657 L50.9921 609.324 L50.9921 605.065 L59.256 603.398 L63.9319 603.398 L63.9319 634.023 L71.5707 634.023 L71.5707 637.958 L51.6634 637.958 L51.6634 634.023 Z" fill="#000000" fill-rule="nonzero" fill-opacity="1" /><path clip-path="url(#clip220)" d="M91.0151 606.477 Q87.404 606.477 85.5753 610.041 Q83.7697 613.583 83.7697 620.713 Q83.7697 627.819 85.5753 631.384 Q87.404 634.926 91.0151 634.926 Q94.6493 634.926 96.4548 631.384 Q98.2835 627.819 98.2835 620.713 Q98.2835 613.583 96.4548 610.041 Q94.6493 606.477 91.0151 606.477 M91.0151 602.773 Q96.8252 602.773 99.8808 607.379 Q102.959 611.963 102.959 620.713 Q102.959 629.439 99.8808 634.046 Q96.8252 638.629 91.0151 638.629 Q85.2049 638.629 82.1262 634.046 Q79.0707 629.439 79.0707 620.713 Q79.0707 611.963 82.1262 607.379 Q85.2049 602.773 91.0151 602.773 Z" fill="#000000" fill-rule="nonzero" fill-opacity="1" /><path clip-path="url(#clip220)" d="M52.6588 252.243 L60.2976 252.243 L60.2976 225.877 L51.9875 227.544 L51.9875 223.284 L60.2513 221.618 L64.9272 221.618 L64.9272 252.243 L72.5661 252.243 L72.5661 256.178 L52.6588 256.178 L52.6588 252.243 Z" fill="#000000" fill-rule="nonzero" fill-opacity="1" /><path clip-path="url(#clip220)" d="M82.0568 221.618 L100.413 221.618 L100.413 225.553 L86.3392 225.553 L86.3392 234.025 Q87.3577 233.678 88.3762 233.516 Q89.3947 233.331 90.4132 233.331 Q96.2002 233.331 99.5798 236.502 Q102.959 239.673 102.959 245.09 Q102.959 250.669 99.4872 253.77 Q96.015 256.849 89.6956 256.849 Q87.5197 256.849 85.2512 256.479 Q83.0058 256.108 80.5984 255.368 L80.5984 250.669 Q82.6818 251.803 84.904 252.358 Q87.1262 252.914 89.603 252.914 Q93.6076 252.914 95.9456 250.807 Q98.2835 248.701 98.2835 245.09 Q98.2835 241.479 95.9456 239.372 Q93.6076 237.266 89.603 237.266 Q87.728 237.266 85.8531 237.682 Q84.0012 238.099 82.0568 238.979 L82.0568 221.618 Z" fill="#000000" fill-rule="nonzero" fill-opacity="1" /><polyline clip-path="url(#clip221)" style="stroke:#009af9; stroke-linecap:round; stroke-linejoin:round; stroke-width:8; stroke-opacity:1; fill:none" points="138.959,1384.24 141.175,1384.24 143.391,1384.24 145.607,1384.24 147.823,1384.24 150.04,1384.24 152.256,1384.24 154.472,1384.24 156.688,1384.24 158.904,1384.24 161.12,1384.24 163.336,1384.24 165.552,1384.24 167.768,1384.24 169.984,1384.24 172.2,1384.24 174.416,1384.24 176.632,1384.24 178.848,1384.24 181.064,1384.24 183.28,1384.24 185.496,1384.24 187.712,1384.24 189.928,1384.24 192.144,1384.24 194.36,1384.24 196.576,1384.24 198.792,1384.24 201.008,1384.24 203.224,1384.24 205.44,1384.24 207.656,1384.24 209.872,1384.24 212.088,1384.24 214.304,1384.24 216.52,1384.24 218.736,1384.24 220.952,1384.24 223.168,1384.24 225.384,1384.24 227.6,1384.24 229.816,1384.24 232.032,1307.88 234.248,1307.88 236.464,1307.88 238.68,1307.88 240.896,1307.88 243.112,1307.88 245.328,1307.88 247.544,1307.88 249.76,1307.88 251.976,1307.88 254.192,1307.88 256.408,1307.88 258.624,1307.88 260.84,1307.88 263.056,1307.88 265.272,1307.88 267.488,1307.88 269.704,1307.88 271.92,1307.88 274.136,1307.88 276.352,1307.88 278.568,1307.88 280.784,1307.88 283,1307.88 285.216,1307.88 287.432,1307.88 289.648,1307.88 291.864,1307.88 294.08,1307.88 296.296,1307.88 298.512,1307.88 300.728,1307.88 302.944,1307.88 305.16,1307.88 307.376,1307.88 309.592,1307.88 311.808,1307.88 314.024,1307.88 316.24,1231.53 318.456,1231.53 320.672,1231.53 322.888,1231.53 325.104,1231.53 327.321,1231.53 329.537,1231.53 331.753,1231.53 333.969,1231.53 336.185,1231.53 338.401,1231.53 340.617,1231.53 342.833,1231.53 345.049,1231.53 347.265,1231.53 349.481,1231.53 351.697,1231.53 353.913,1231.53 356.129,1231.53 358.345,1231.53 360.561,1231.53 362.777,1231.53 364.993,1231.53 367.209,1307.88 369.425,1307.88 371.641,1307.88 373.857,1307.88 376.073,1307.88 378.289,1307.88 380.505,1307.88 382.721,1307.88 384.937,1307.88 387.153,1307.88 389.369,1307.88 391.585,1307.88 393.801,1307.88 396.017,1307.88 398.233,1307.88 400.449,1307.88 402.665,1307.88 404.881,1307.88 407.097,1307.88 409.313,1307.88 411.529,1307.88 413.745,1307.88 415.961,1307.88 418.177,1307.88 420.393,1307.88 422.609,1307.88 424.825,1384.24 427.041,1384.24 429.257,1384.24 431.473,1307.88 433.689,1307.88 435.905,1307.88 438.121,1307.88 440.337,1307.88 442.553,1307.88 444.769,1307.88 446.985,1307.88 449.201,1307.88 451.417,1307.88 453.633,1307.88 455.849,1307.88 458.065,1307.88 460.281,1307.88 462.497,1307.88 464.713,1307.88 466.929,1307.88 469.145,1307.88 471.361,1307.88 473.577,1307.88 475.793,1307.88 478.009,1307.88 480.225,1307.88 482.441,1307.88 484.657,1307.88 486.873,1307.88 489.089,1307.88 491.305,1307.88 493.521,1307.88 495.737,1307.88 497.953,1231.53 500.169,1231.53 502.385,1231.53 504.601,1155.17 506.818,1078.81 509.034,1078.81 511.25,1155.17 513.466,1155.17 515.682,1155.17 517.898,1155.17 520.114,1155.17 522.33,1155.17 524.546,1155.17 526.762,1155.17 528.978,1155.17 531.194,1155.17 533.41,1155.17 535.626,1155.17 537.842,1155.17 540.058,1231.53 542.274,1231.53 544.49,1231.53 546.706,1231.53 548.922,1231.53 551.138,1231.53 553.354,1231.53 555.57,1231.53 557.786,1231.53 560.002,1231.53 562.218,1231.53 564.434,1231.53 566.65,1231.53 568.866,1231.53 571.082,1231.53 573.298,1231.53 575.514,1231.53 577.73,1231.53 579.946,1231.53 582.162,1231.53 584.378,1231.53 586.594,1231.53 588.81,1231.53 591.026,1231.53 593.242,1231.53 595.458,1231.53 597.674,1231.53 599.89,1231.53 602.106,1231.53 604.322,1231.53 606.538,1231.53 608.754,1231.53 610.97,1231.53 613.186,1231.53 615.402,1231.53 617.618,1231.53 619.834,1231.53 622.05,1231.53 624.266,1231.53 626.482,1231.53 628.698,1231.53 630.914,1231.53 633.13,1231.53 635.346,1231.53 637.562,1231.53 639.778,1307.88 641.994,1384.24 644.21,1384.24 646.426,1384.24 648.642,1384.24 650.858,1384.24 653.074,1384.24 655.29,1384.24 657.506,1384.24 659.722,1384.24 661.938,1384.24 664.154,1384.24 666.37,1384.24 668.586,1384.24 670.802,1384.24 673.018,1384.24 675.234,1384.24 677.45,1384.24 679.666,1384.24 681.882,1384.24 684.099,1384.24 686.315,1384.24 688.531,1384.24 690.747,1384.24 692.963,1384.24 695.179,1384.24 697.395,1384.24 699.611,1384.24 701.827,1384.24 704.043,1384.24 706.259,1384.24 708.475,1384.24 710.691,1384.24 712.907,1384.24 715.123,1384.24 717.339,1384.24 719.555,1384.24 721.771,1384.24 723.987,1384.24 726.203,1384.24 728.419,1384.24 730.635,1384.24 732.851,1384.24 735.067,1384.24 737.283,1384.24 739.499,1384.24 741.715,1384.24 743.931,1384.24 746.147,1384.24 748.363,1384.24 750.579,1384.24 752.795,1384.24 755.011,1384.24 757.227,1384.24 759.443,1384.24 761.659,1384.24 763.875,1384.24 766.091,1384.24 768.307,1384.24 770.523,1384.24 772.739,1384.24 774.955,1384.24 777.171,1384.24 779.387,1384.24 781.603,1384.24 783.819,1384.24 786.035,1384.24 788.251,1384.24 790.467,1384.24 792.683,1384.24 794.899,1384.24 797.115,1384.24 799.331,1384.24 801.547,1384.24 803.763,1384.24 805.979,1384.24 808.195,1384.24 810.411,1384.24 812.627,1384.24 814.843,1384.24 817.059,1384.24 819.275,1384.24 821.491,1384.24 823.707,1384.24 825.923,1384.24 828.139,1384.24 830.355,1384.24 832.571,1384.24 834.787,1384.24 837.003,1384.24 839.219,1384.24 841.435,1384.24 843.651,1384.24 845.867,1384.24 848.083,1384.24 850.299,1384.24 852.515,1384.24 854.731,1384.24 856.947,1384.24 859.163,1384.24 861.38,1384.24 863.596,1384.24 865.812,1384.24 868.028,1384.24 870.244,1384.24 872.46,1384.24 874.676,1384.24 876.892,1384.24 879.108,1384.24 881.324,1384.24 883.54,1384.24 885.756,1384.24 887.972,1384.24 890.188,1384.24 892.404,1384.24 894.62,1384.24 896.836,1384.24 899.052,1384.24 901.268,1384.24 903.484,1384.24 905.7,1384.24 907.916,1384.24 910.132,1384.24 912.348,1384.24 914.564,1384.24 916.78,1307.88 918.996,1307.88 921.212,1307.88 923.428,1307.88 925.644,1307.88 927.86,1307.88 930.076,1307.88 932.292,1307.88 934.508,1384.24 936.724,1384.24 938.94,1384.24 941.156,1384.24 943.372,1384.24 945.588,1384.24 947.804,1384.24 950.02,1384.24 952.236,1384.24 954.452,1384.24 956.668,1384.24 958.884,1384.24 961.1,1384.24 963.316,1384.24 965.532,1384.24 967.748,1384.24 969.964,1384.24 972.18,1384.24 974.396,1384.24 976.612,1384.24 978.828,1384.24 981.044,1384.24 983.26,1307.88 985.476,1307.88 987.692,1307.88 989.908,1307.88 992.124,1307.88 994.34,1307.88 996.556,1307.88 998.772,1307.88 1000.99,1307.88 1003.2,1384.24 1005.42,1384.24 1007.64,1384.24 1009.85,1384.24 1012.07,1384.24 1014.28,1384.24 1016.5,1384.24 1018.72,1384.24 1020.93,1384.24 1023.15,1384.24 1025.36,1384.24 1027.58,1384.24 1029.8,1384.24 1032.01,1384.24 1034.23,1384.24 1036.44,1384.24 1038.66,1384.24 1040.88,1384.24 1043.09,1384.24 1045.31,1384.24 1047.52,1384.24 1049.74,1384.24 1051.96,1384.24 1054.17,1384.24 1056.39,1384.24 1058.6,1384.24 1060.82,1384.24 1063.04,1384.24 1065.25,1384.24 1067.47,1384.24 1069.68,1384.24 1071.9,1384.24 1074.12,1384.24 1076.33,1384.24 1078.55,1384.24 1080.76,1384.24 1082.98,1384.24 1085.2,1384.24 1087.41,1384.24 1089.63,1384.24 1091.84,1384.24 1094.06,1384.24 1096.28,1384.24 1098.49,1384.24 1100.71,1384.24 1102.92,1384.24 1105.14,1384.24 1107.36,1384.24 1109.57,1384.24 1111.79,1384.24 1114,1384.24 1116.22,1384.24 1118.44,1384.24 1120.65,1384.24 1122.87,1384.24 1125.08,1384.24 1127.3,1384.24 1129.52,1384.24 1131.73,1384.24 1133.95,1384.24 1136.17,1307.88 1138.38,1307.88 1140.6,1307.88 1142.81,1307.88 1145.03,1307.88 1147.25,1307.88 1149.46,1307.88 1151.68,1307.88 1153.89,1307.88 1156.11,1307.88 1158.33,1307.88 1160.54,1307.88 1162.76,1307.88 1164.97,1307.88 1167.19,1307.88 1169.41,1307.88 1171.62,1307.88 1173.84,1307.88 1176.05,1307.88 1178.27,1307.88 1180.49,1307.88 1182.7,1307.88 1184.92,1307.88 1187.13,1307.88 1189.35,1307.88 1191.57,1307.88 1193.78,1307.88 1196,1307.88 1198.21,1307.88 1200.43,1307.88 1202.65,1307.88 1204.86,1307.88 1207.08,1307.88 1209.29,1307.88 1211.51,1307.88 1213.73,1307.88 1215.94,1307.88 1218.16,1307.88 1220.37,1307.88 1222.59,1307.88 1224.81,1307.88 1227.02,1307.88 1229.24,1307.88 1231.45,1307.88 1233.67,1307.88 1235.89,1307.88 1238.1,1307.88 1240.32,1307.88 1242.53,1307.88 1244.75,1231.53 1246.97,1231.53 1249.18,1231.53 1251.4,1307.88 1253.61,1307.88 1255.83,1307.88 1258.05,1307.88 1260.26,1307.88 1262.48,1307.88 1264.69,1307.88 1266.91,1307.88 1269.13,1307.88 1271.34,1307.88 1273.56,1307.88 1275.77,1307.88 1277.99,1307.88 1280.21,1307.88 1282.42,1307.88 1284.64,1307.88 1286.85,1307.88 1289.07,1307.88 1291.29,1307.88 1293.5,1307.88 1295.72,1307.88 1297.93,1307.88 1300.15,1307.88 1302.37,1307.88 1304.58,1307.88 1306.8,1307.88 1309.01,1307.88 1311.23,1307.88 1313.45,1307.88 1315.66,1307.88 1317.88,1307.88 1320.09,1307.88 1322.31,1307.88 1324.53,1307.88 1326.74,1307.88 1328.96,1307.88 1331.17,1307.88 1333.39,1307.88 1335.61,1307.88 1337.82,1384.24 1340.04,1384.24 1342.25,1384.24 1344.47,1384.24 1346.69,1384.24 1348.9,1384.24 1351.12,1384.24 1353.33,1384.24 1355.55,1384.24 1357.77,1384.24 1359.98,1384.24 1362.2,1384.24 1364.41,1384.24 1366.63,1384.24 1368.85,1384.24 1371.06,1384.24 1373.28,1384.24 1375.49,1384.24 1377.71,1384.24 1379.93,1384.24 1382.14,1384.24 1384.36,1384.24 1386.57,1384.24 1388.79,1384.24 1391.01,1384.24 1393.22,1384.24 1395.44,1384.24 1397.65,1384.24 1399.87,1384.24 1402.09,1384.24 1404.3,1384.24 1406.52,1384.24 1408.73,1384.24 1410.95,1384.24 1413.17,1384.24 1415.38,1384.24 1417.6,1384.24 1419.81,1384.24 1422.03,1384.24 1424.25,1384.24 1426.46,1384.24 1428.68,1384.24 1430.89,1384.24 1433.11,1384.24 1435.33,1384.24 1437.54,1384.24 1439.76,1384.24 1441.97,1384.24 1444.19,1384.24 1446.41,1384.24 1448.62,1384.24 1450.84,1384.24 1453.05,1384.24 1455.27,1384.24 1457.49,1384.24 1459.7,1384.24 1461.92,1384.24 1464.13,1384.24 1466.35,1384.24 1468.57,1384.24 1470.78,1384.24 1473,1384.24 1475.21,1384.24 1477.43,1384.24 1479.65,1384.24 1481.86,1307.88 1484.08,1307.88 1486.3,1307.88 1488.51,1307.88 1490.73,1307.88 1492.94,1307.88 1495.16,1307.88 1497.38,1307.88 1499.59,1307.88 1501.81,1307.88 1504.02,1307.88 1506.24,1307.88 1508.46,1307.88 1510.67,1307.88 1512.89,1307.88 1515.1,1307.88 1517.32,1307.88 1519.54,1307.88 1521.75,1307.88 1523.97,1307.88 1526.18,1307.88 1528.4,1307.88 1530.62,1307.88 1532.83,1307.88 1535.05,1307.88 1537.26,1307.88 1539.48,1307.88 1541.7,1307.88 1543.91,1307.88 1546.13,1307.88 1548.34,1307.88 1550.56,1307.88 1552.78,1307.88 1554.99,1307.88 1557.21,1307.88 1559.42,1307.88 1561.64,1307.88 1563.86,1307.88 1566.07,1307.88 1568.29,1307.88 1570.5,1307.88 1572.72,1307.88 1574.94,1307.88 1577.15,1307.88 1579.37,1307.88 1581.58,1307.88 1583.8,1307.88 1586.02,1307.88 1588.23,1307.88 1590.45,1307.88 1592.66,1307.88 1594.88,1307.88 1597.1,1307.88 1599.31,1307.88 1601.53,1307.88 1603.74,1307.88 1605.96,1307.88 1608.18,1307.88 1610.39,1307.88 1612.61,1307.88 1614.82,1307.88 1617.04,1307.88 1619.26,1307.88 1621.47,1307.88 1623.69,1307.88 1625.9,1307.88 1628.12,1307.88 1630.34,1307.88 1632.55,1307.88 1634.77,1307.88 1636.98,1307.88 1639.2,1307.88 1641.42,1307.88 1643.63,1307.88 1645.85,1307.88 1648.06,1307.88 1650.28,1307.88 1652.5,1307.88 1654.71,1307.88 1656.93,1307.88 1659.14,1307.88 1661.36,1307.88 1663.58,1307.88 1665.79,1307.88 1668.01,1307.88 1670.22,1307.88 1672.44,1307.88 1674.66,1307.88 1676.87,1307.88 1679.09,1307.88 1681.3,1307.88 1683.52,1307.88 1685.74,1307.88 1687.95,1307.88 1690.17,1307.88 1692.38,1307.88 1694.6,1307.88 1696.82,1307.88 1699.03,1307.88 1701.25,1307.88 1703.46,1307.88 1705.68,1307.88 1707.9,1307.88 1710.11,1307.88 1712.33,1307.88 1714.54,1307.88 1716.76,1307.88 1718.98,1307.88 1721.19,1307.88 1723.41,1307.88 1725.62,1307.88 1727.84,1307.88 1730.06,1307.88 1732.27,1307.88 1734.49,1307.88 1736.7,1307.88 1738.92,1307.88 1741.14,1307.88 1743.35,1307.88 1745.57,1307.88 1747.78,1307.88 1750,1307.88 1752.22,1307.88 1754.43,1307.88 1756.65,1307.88 1758.86,1307.88 1761.08,1307.88 1763.3,1307.88 1765.51,1307.88 1767.73,1307.88 1769.94,1307.88 1772.16,1307.88 1774.38,1307.88 1776.59,1307.88 1778.81,1384.24 1781.02,1384.24 1783.24,1384.24 1785.46,1384.24 1787.67,1384.24 1789.89,1384.24 1792.1,1384.24 1794.32,1384.24 1796.54,1384.24 1798.75,1384.24 1800.97,1384.24 1803.18,1384.24 1805.4,1384.24 1807.62,1384.24 1809.83,1384.24 1812.05,1384.24 1814.26,1384.24 1816.48,1384.24 1818.7,1384.24 1820.91,1384.24 1823.13,1384.24 1825.34,1384.24 1827.56,1384.24 1829.78,1384.24 1831.99,1384.24 1834.21,1384.24 1836.42,1384.24 1838.64,1384.24 1840.86,1384.24 1843.07,1384.24 1845.29,1384.24 1847.51,1384.24 1849.72,1384.24 1851.94,1384.24 1854.15,1384.24 1856.37,1384.24 1858.59,1384.24 1860.8,1384.24 1863.02,1384.24 1865.23,1384.24 1867.45,1384.24 1869.67,1384.24 1871.88,1384.24 1874.1,1384.24 1876.31,1384.24 1878.53,1384.24 1880.75,1384.24 1882.96,1384.24 1885.18,1384.24 1887.39,1384.24 1889.61,1384.24 1891.83,1384.24 1894.04,1384.24 1896.26,1384.24 1898.47,1384.24 1900.69,1384.24 1902.91,1384.24 1905.12,1384.24 1907.34,1384.24 1909.55,1384.24 1911.77,1384.24 1913.99,1384.24 1916.2,1384.24 1918.42,1384.24 1920.63,1384.24 1922.85,1384.24 1925.07,1384.24 1927.28,1384.24 1929.5,1384.24 1931.71,1384.24 1933.93,1384.24 1936.15,1384.24 1938.36,1384.24 1940.58,1384.24 1942.79,1384.24 1945.01,1384.24 1947.23,1384.24 1949.44,1384.24 1951.66,1384.24 1953.87,1384.24 1956.09,1384.24 1958.31,1384.24 1960.52,1384.24 1962.74,1384.24 1964.95,1384.24 1967.17,1384.24 1969.39,1384.24 1971.6,1384.24 1973.82,1384.24 1976.03,1384.24 1978.25,1384.24 1980.47,1384.24 1982.68,1384.24 1984.9,1384.24 1987.11,1384.24 1989.33,1384.24 1991.55,1384.24 1993.76,1384.24 1995.98,1384.24 1998.19,1384.24 2000.41,1384.24 2002.63,1384.24 2004.84,1384.24 2007.06,1384.24 2009.27,1384.24 2011.49,1384.24 2013.71,1384.24 2015.92,1384.24 2018.14,1384.24 2020.35,1384.24 2022.57,1384.24 2024.79,1384.24 2027,1307.88 2029.22,1307.88 2031.43,1307.88 2033.65,1307.88 2035.87,1307.88 2038.08,1307.88 2040.3,1307.88 2042.51,1307.88 2044.73,1307.88 2046.95,1307.88 2049.16,1307.88 2051.38,1307.88 2053.59,1307.88 2055.81,1231.53 2058.03,1231.53 2060.24,1231.53 2062.46,1231.53 2064.67,1231.53 2066.89,1231.53 2069.11,1231.53 2071.32,1231.53 2073.54,1231.53 2075.75,1231.53 2077.97,1231.53 2080.19,1231.53 2082.4,1231.53 2084.62,1231.53 2086.83,1231.53 2089.05,1231.53 2091.27,1231.53 2093.48,1231.53 2095.7,1231.53 2097.91,1231.53 2100.13,1231.53 2102.35,1231.53 2104.56,1231.53 2106.78,1155.17 2108.99,1155.17 2111.21,1155.17 2113.43,1155.17 2115.64,1155.17 2117.86,1155.17 2120.07,1155.17 2122.29,1078.81 2124.51,1078.81 2126.72,1078.81 2128.94,1078.81 2131.15,1078.81 2133.37,1078.81 2135.59,1078.81 2137.8,1078.81 2140.02,1078.81 2142.23,1078.81 2144.45,1078.81 2146.67,1078.81 2148.88,1078.81 2151.1,1078.81 2153.31,1078.81 2155.53,1002.46 2157.75,1002.46 2159.96,1002.46 2162.18,1002.46 2164.39,1002.46 2166.61,1002.46 2168.83,1002.46 2171.04,1002.46 2173.26,1002.46 2175.47,1002.46 2177.69,1002.46 2179.91,1002.46 2182.12,1002.46 2184.34,1002.46 2186.55,1002.46 2188.77,1002.46 2190.99,1002.46 2193.2,1002.46 2195.42,1002.46 2197.64,1002.46 2199.85,1002.46 2202.07,926.102 2204.28,926.102 2206.5,926.102 2208.72,926.102 2210.93,926.102 2213.15,926.102 2215.36,926.102 2217.58,926.102 2219.8,926.102 2222.01,926.102 2224.23,926.102 2226.44,926.102 2228.66,1002.46 2230.88,1002.46 2233.09,1078.81 2235.31,1078.81 2237.52,1078.81 2239.74,1078.81 2241.96,1078.81 2244.17,1078.81 2246.39,1078.81 2248.6,1078.81 2250.82,1078.81 2253.04,1078.81 2255.25,1078.81 2257.47,1078.81 2259.68,1078.81 2261.9,1078.81 2264.12,1078.81 2266.33,1078.81 2268.55,1078.81 2270.76,1002.46 2272.98,1002.46 2275.2,1002.46 2277.41,1002.46 2279.63,1002.46 2281.84,1002.46 2284.06,1002.46 2286.28,1002.46 2288.49,1002.46 2290.71,1002.46 2292.92,1002.46 2295.14,1002.46 2297.36,1002.46 2299.57,1002.46 2301.79,1002.46 2304,1002.46 2306.22,926.102 2308.44,926.102 2310.65,926.102 2312.87,926.102 2315.08,926.102 2317.3,926.102 2319.52,926.102 2321.73,1002.46 2323.95,1002.46 2326.16,1002.46 2328.38,1002.46 2330.6,1002.46 2332.81,1002.46 2335.03,1078.81 2337.24,1078.81 2339.46,1078.81 2341.68,1078.81 2343.89,1078.81 2346.11,1078.81 2348.32,1078.81 2350.54,1155.17 2352.76,1155.17 "/>
<polyline clip-path="url(#clip221)" style="stroke:#e26f46; stroke-linecap:round; stroke-linejoin:round; stroke-width:8; stroke-opacity:1; fill:none" points="138.959,1384.24 141.175,1384.24 143.391,1384.24 145.607,1384.24 147.823,1384.24 150.04,1384.24 152.256,1384.24 154.472,1384.24 156.688,1384.24 158.904,1384.24 161.12,1384.24 163.336,1384.24 165.552,1384.24 167.768,1384.24 169.984,1384.24 172.2,1384.24 174.416,1384.24 176.632,1384.24 178.848,1384.24 181.064,1384.24 183.28,1384.24 185.496,1384.24 187.712,1384.24 189.928,1384.24 192.144,1384.24 194.36,1384.24 196.576,1384.24 198.792,1384.24 201.008,1384.24 203.224,1384.24 205.44,1384.24 207.656,1384.24 209.872,1384.24 212.088,1384.24 214.304,1384.24 216.52,1384.24 218.736,1384.24 220.952,1384.24 223.168,1384.24 225.384,1384.24 227.6,1384.24 229.816,1384.24 232.032,1384.24 234.248,1384.24 236.464,1384.24 238.68,1384.24 240.896,1384.24 243.112,1384.24 245.328,1384.24 247.544,1384.24 249.76,1384.24 251.976,1384.24 254.192,1384.24 256.408,1384.24 258.624,1384.24 260.84,1384.24 263.056,1384.24 265.272,1384.24 267.488,1384.24 269.704,1384.24 271.92,1384.24 274.136,1384.24 276.352,1384.24 278.568,1384.24 280.784,1384.24 283,1384.24 285.216,1384.24 287.432,1384.24 289.648,1384.24 291.864,1384.24 294.08,1384.24 296.296,1384.24 298.512,1384.24 300.728,1384.24 302.944,1384.24 305.16,1384.24 307.376,1384.24 309.592,1384.24 311.808,1384.24 314.024,1384.24 316.24,1384.24 318.456,1384.24 320.672,1384.24 322.888,1384.24 325.104,1384.24 327.321,1384.24 329.537,1384.24 331.753,1384.24 333.969,1384.24 336.185,1384.24 338.401,1384.24 340.617,1384.24 342.833,1384.24 345.049,1384.24 347.265,1384.24 349.481,1384.24 351.697,1384.24 353.913,1384.24 356.129,1384.24 358.345,1384.24 360.561,1384.24 362.777,1384.24 364.993,1384.24 367.209,1307.88 369.425,1307.88 371.641,1307.88 373.857,1307.88 376.073,1307.88 378.289,1307.88 380.505,1307.88 382.721,1307.88 384.937,1307.88 387.153,1307.88 389.369,1307.88 391.585,1307.88 393.801,1307.88 396.017,1307.88 398.233,1307.88 400.449,1307.88 402.665,1307.88 404.881,1307.88 407.097,1307.88 409.313,1307.88 411.529,1307.88 413.745,1307.88 415.961,1307.88 418.177,1307.88 420.393,1307.88 422.609,1307.88 424.825,1231.53 427.041,1231.53 429.257,1231.53 431.473,1231.53 433.689,1231.53 435.905,1231.53 438.121,1231.53 440.337,1231.53 442.553,1231.53 444.769,1231.53 446.985,1231.53 449.201,1231.53 451.417,1231.53 453.633,1231.53 455.849,1231.53 458.065,1231.53 460.281,1231.53 462.497,1231.53 464.713,1231.53 466.929,1231.53 469.145,1231.53 471.361,1231.53 473.577,1231.53 475.793,1231.53 478.009,1231.53 480.225,1231.53 482.441,1231.53 484.657,1231.53 486.873,1231.53 489.089,1231.53 491.305,1231.53 493.521,1231.53 495.737,1231.53 497.953,1231.53 500.169,1231.53 502.385,1231.53 504.601,1231.53 506.818,1231.53 509.034,1231.53 511.25,1155.17 513.466,1155.17 515.682,1155.17 517.898,1155.17 520.114,1155.17 522.33,1155.17 524.546,1155.17 526.762,1155.17 528.978,1155.17 531.194,1155.17 533.41,1155.17 535.626,1155.17 537.842,1155.17 540.058,1078.81 542.274,1078.81 544.49,1078.81 546.706,1078.81 548.922,1078.81 551.138,1078.81 553.354,1078.81 555.57,1078.81 557.786,1078.81 560.002,1078.81 562.218,1078.81 564.434,1078.81 566.65,1078.81 568.866,1078.81 571.082,1078.81 573.298,1078.81 575.514,1078.81 577.73,1078.81 579.946,1078.81 582.162,1078.81 584.378,1078.81 586.594,1078.81 588.81,1078.81 591.026,1078.81 593.242,1078.81 595.458,1078.81 597.674,1078.81 599.89,1078.81 602.106,1078.81 604.322,1078.81 606.538,1078.81 608.754,1078.81 610.97,1078.81 613.186,1078.81 615.402,1078.81 617.618,1078.81 619.834,1078.81 622.05,1078.81 624.266,1078.81 626.482,1078.81 628.698,1078.81 630.914,1078.81 633.13,1078.81 635.346,1078.81 637.562,1078.81 639.778,1002.46 641.994,926.102 644.21,926.102 646.426,926.102 648.642,926.102 650.858,926.102 653.074,926.102 655.29,926.102 657.506,926.102 659.722,926.102 661.938,926.102 664.154,926.102 666.37,926.102 668.586,926.102 670.802,926.102 673.018,926.102 675.234,926.102 677.45,926.102 679.666,926.102 681.882,926.102 684.099,926.102 686.315,926.102 688.531,926.102 690.747,926.102 692.963,926.102 695.179,926.102 697.395,926.102 699.611,926.102 701.827,926.102 704.043,926.102 706.259,926.102 708.475,926.102 710.691,926.102 712.907,926.102 715.123,926.102 717.339,926.102 719.555,926.102 721.771,926.102 723.987,926.102 726.203,926.102 728.419,926.102 730.635,926.102 732.851,926.102 735.067,926.102 737.283,926.102 739.499,926.102 741.715,926.102 743.931,926.102 746.147,926.102 748.363,926.102 750.579,926.102 752.795,926.102 755.011,926.102 757.227,926.102 759.443,926.102 761.659,926.102 763.875,926.102 766.091,926.102 768.307,926.102 770.523,926.102 772.739,926.102 774.955,926.102 777.171,926.102 779.387,926.102 781.603,926.102 783.819,926.102 786.035,926.102 788.251,926.102 790.467,926.102 792.683,926.102 794.899,926.102 797.115,926.102 799.331,926.102 801.547,926.102 803.763,926.102 805.979,926.102 808.195,926.102 810.411,926.102 812.627,926.102 814.843,926.102 817.059,926.102 819.275,926.102 821.491,926.102 823.707,926.102 825.923,926.102 828.139,926.102 830.355,926.102 832.571,926.102 834.787,926.102 837.003,926.102 839.219,926.102 841.435,926.102 843.651,926.102 845.867,926.102 848.083,926.102 850.299,926.102 852.515,926.102 854.731,926.102 856.947,926.102 859.163,926.102 861.38,926.102 863.596,926.102 865.812,926.102 868.028,926.102 870.244,926.102 872.46,926.102 874.676,926.102 876.892,926.102 879.108,926.102 881.324,926.102 883.54,926.102 885.756,926.102 887.972,926.102 890.188,926.102 892.404,926.102 894.62,926.102 896.836,926.102 899.052,926.102 901.268,926.102 903.484,926.102 905.7,926.102 907.916,926.102 910.132,926.102 912.348,926.102 914.564,926.102 916.78,926.102 918.996,926.102 921.212,926.102 923.428,926.102 925.644,926.102 927.86,926.102 930.076,926.102 932.292,926.102 934.508,849.746 936.724,849.746 938.94,849.746 941.156,849.746 943.372,849.746 945.588,849.746 947.804,849.746 950.02,849.746 952.236,849.746 954.452,849.746 956.668,849.746 958.884,849.746 961.1,849.746 963.316,849.746 965.532,849.746 967.748,849.746 969.964,849.746 972.18,849.746 974.396,849.746 976.612,849.746 978.828,849.746 981.044,849.746 983.26,849.746 985.476,849.746 987.692,849.746 989.908,849.746 992.124,849.746 994.34,849.746 996.556,849.746 998.772,849.746 1000.99,849.746 1003.2,773.39 1005.42,773.39 1007.64,773.39 1009.85,773.39 1012.07,773.39 1014.28,773.39 1016.5,773.39 1018.72,773.39 1020.93,773.39 1023.15,773.39 1025.36,773.39 1027.58,773.39 1029.8,773.39 1032.01,773.39 1034.23,773.39 1036.44,773.39 1038.66,773.39 1040.88,773.39 1043.09,773.39 1045.31,773.39 1047.52,773.39 1049.74,773.39 1051.96,773.39 1054.17,773.39 1056.39,773.39 1058.6,773.39 1060.82,773.39 1063.04,773.39 1065.25,773.39 1067.47,773.39 1069.68,773.39 1071.9,773.39 1074.12,773.39 1076.33,773.39 1078.55,773.39 1080.76,773.39 1082.98,773.39 1085.2,773.39 1087.41,773.39 1089.63,773.39 1091.84,773.39 1094.06,773.39 1096.28,773.39 1098.49,773.39 1100.71,773.39 1102.92,773.39 1105.14,773.39 1107.36,697.034 1109.57,697.034 1111.79,697.034 1114,697.034 1116.22,697.034 1118.44,697.034 1120.65,697.034 1122.87,697.034 1125.08,697.034 1127.3,697.034 1129.52,697.034 1131.73,697.034 1133.95,697.034 1136.17,697.034 1138.38,697.034 1140.6,697.034 1142.81,697.034 1145.03,697.034 1147.25,697.034 1149.46,697.034 1151.68,697.034 1153.89,697.034 1156.11,697.034 1158.33,697.034 1160.54,697.034 1162.76,697.034 1164.97,697.034 1167.19,697.034 1169.41,697.034 1171.62,697.034 1173.84,697.034 1176.05,697.034 1178.27,697.034 1180.49,697.034 1182.7,697.034 1184.92,697.034 1187.13,697.034 1189.35,697.034 1191.57,697.034 1193.78,697.034 1196,697.034 1198.21,697.034 1200.43,697.034 1202.65,697.034 1204.86,697.034 1207.08,697.034 1209.29,697.034 1211.51,697.034 1213.73,697.034 1215.94,697.034 1218.16,697.034 1220.37,697.034 1222.59,697.034 1224.81,697.034 1227.02,697.034 1229.24,697.034 1231.45,697.034 1233.67,697.034 1235.89,697.034 1238.1,697.034 1240.32,697.034 1242.53,697.034 1244.75,697.034 1246.97,697.034 1249.18,697.034 1251.4,620.678 1253.61,620.678 1255.83,620.678 1258.05,620.678 1260.26,620.678 1262.48,620.678 1264.69,620.678 1266.91,620.678 1269.13,620.678 1271.34,620.678 1273.56,620.678 1275.77,620.678 1277.99,620.678 1280.21,620.678 1282.42,620.678 1284.64,620.678 1286.85,620.678 1289.07,620.678 1291.29,620.678 1293.5,620.678 1295.72,620.678 1297.93,620.678 1300.15,620.678 1302.37,620.678 1304.58,620.678 1306.8,620.678 1309.01,620.678 1311.23,620.678 1313.45,620.678 1315.66,620.678 1317.88,620.678 1320.09,620.678 1322.31,620.678 1324.53,620.678 1326.74,620.678 1328.96,620.678 1331.17,620.678 1333.39,620.678 1335.61,620.678 1337.82,544.322 1340.04,544.322 1342.25,544.322 1344.47,544.322 1346.69,544.322 1348.9,544.322 1351.12,544.322 1353.33,544.322 1355.55,544.322 1357.77,544.322 1359.98,544.322 1362.2,544.322 1364.41,544.322 1366.63,544.322 1368.85,544.322 1371.06,544.322 1373.28,544.322 1375.49,544.322 1377.71,544.322 1379.93,544.322 1382.14,544.322 1384.36,544.322 1386.57,544.322 1388.79,544.322 1391.01,544.322 1393.22,544.322 1395.44,544.322 1397.65,544.322 1399.87,544.322 1402.09,544.322 1404.3,544.322 1406.52,544.322 1408.73,544.322 1410.95,544.322 1413.17,544.322 1415.38,544.322 1417.6,544.322 1419.81,544.322 1422.03,544.322 1424.25,544.322 1426.46,544.322 1428.68,544.322 1430.89,544.322 1433.11,544.322 1435.33,544.322 1437.54,544.322 1439.76,544.322 1441.97,544.322 1444.19,544.322 1446.41,544.322 1448.62,544.322 1450.84,544.322 1453.05,544.322 1455.27,544.322 1457.49,544.322 1459.7,544.322 1461.92,544.322 1464.13,544.322 1466.35,544.322 1468.57,544.322 1470.78,544.322 1473,544.322 1475.21,544.322 1477.43,544.322 1479.65,544.322 1481.86,544.322 1484.08,544.322 1486.3,544.322 1488.51,544.322 1490.73,544.322 1492.94,544.322 1495.16,544.322 1497.38,544.322 1499.59,544.322 1501.81,544.322 1504.02,544.322 1506.24,544.322 1508.46,544.322 1510.67,544.322 1512.89,544.322 1515.1,544.322 1517.32,544.322 1519.54,544.322 1521.75,544.322 1523.97,544.322 1526.18,544.322 1528.4,544.322 1530.62,544.322 1532.83,544.322 1535.05,544.322 1537.26,544.322 1539.48,544.322 1541.7,544.322 1543.91,544.322 1546.13,544.322 1548.34,544.322 1550.56,544.322 1552.78,544.322 1554.99,544.322 1557.21,544.322 1559.42,544.322 1561.64,544.322 1563.86,544.322 1566.07,544.322 1568.29,544.322 1570.5,544.322 1572.72,544.322 1574.94,544.322 1577.15,544.322 1579.37,544.322 1581.58,544.322 1583.8,544.322 1586.02,544.322 1588.23,544.322 1590.45,544.322 1592.66,544.322 1594.88,544.322 1597.1,544.322 1599.31,544.322 1601.53,544.322 1603.74,544.322 1605.96,544.322 1608.18,544.322 1610.39,544.322 1612.61,544.322 1614.82,544.322 1617.04,544.322 1619.26,544.322 1621.47,544.322 1623.69,544.322 1625.9,544.322 1628.12,544.322 1630.34,544.322 1632.55,544.322 1634.77,544.322 1636.98,544.322 1639.2,544.322 1641.42,544.322 1643.63,544.322 1645.85,544.322 1648.06,544.322 1650.28,544.322 1652.5,544.322 1654.71,544.322 1656.93,544.322 1659.14,544.322 1661.36,544.322 1663.58,544.322 1665.79,544.322 1668.01,544.322 1670.22,544.322 1672.44,544.322 1674.66,544.322 1676.87,544.322 1679.09,544.322 1681.3,544.322 1683.52,544.322 1685.74,544.322 1687.95,544.322 1690.17,544.322 1692.38,544.322 1694.6,544.322 1696.82,544.322 1699.03,544.322 1701.25,544.322 1703.46,544.322 1705.68,544.322 1707.9,544.322 1710.11,544.322 1712.33,544.322 1714.54,544.322 1716.76,544.322 1718.98,544.322 1721.19,544.322 1723.41,544.322 1725.62,544.322 1727.84,544.322 1730.06,544.322 1732.27,544.322 1734.49,544.322 1736.7,544.322 1738.92,544.322 1741.14,544.322 1743.35,544.322 1745.57,544.322 1747.78,544.322 1750,544.322 1752.22,544.322 1754.43,544.322 1756.65,544.322 1758.86,544.322 1761.08,544.322 1763.3,544.322 1765.51,544.322 1767.73,544.322 1769.94,544.322 1772.16,544.322 1774.38,544.322 1776.59,544.322 1778.81,467.966 1781.02,467.966 1783.24,467.966 1785.46,467.966 1787.67,467.966 1789.89,467.966 1792.1,467.966 1794.32,467.966 1796.54,467.966 1798.75,467.966 1800.97,467.966 1803.18,467.966 1805.4,467.966 1807.62,467.966 1809.83,467.966 1812.05,467.966 1814.26,467.966 1816.48,467.966 1818.7,467.966 1820.91,467.966 1823.13,467.966 1825.34,467.966 1827.56,467.966 1829.78,467.966 1831.99,467.966 1834.21,467.966 1836.42,467.966 1838.64,467.966 1840.86,467.966 1843.07,467.966 1845.29,467.966 1847.51,467.966 1849.72,467.966 1851.94,467.966 1854.15,467.966 1856.37,467.966 1858.59,467.966 1860.8,467.966 1863.02,467.966 1865.23,467.966 1867.45,467.966 1869.67,467.966 1871.88,467.966 1874.1,467.966 1876.31,467.966 1878.53,467.966 1880.75,467.966 1882.96,467.966 1885.18,467.966 1887.39,467.966 1889.61,467.966 1891.83,467.966 1894.04,467.966 1896.26,467.966 1898.47,467.966 1900.69,467.966 1902.91,467.966 1905.12,467.966 1907.34,467.966 1909.55,467.966 1911.77,467.966 1913.99,467.966 1916.2,467.966 1918.42,467.966 1920.63,467.966 1922.85,467.966 1925.07,467.966 1927.28,467.966 1929.5,467.966 1931.71,467.966 1933.93,467.966 1936.15,467.966 1938.36,467.966 1940.58,467.966 1942.79,467.966 1945.01,467.966 1947.23,467.966 1949.44,467.966 1951.66,467.966 1953.87,467.966 1956.09,467.966 1958.31,467.966 1960.52,467.966 1962.74,467.966 1964.95,467.966 1967.17,467.966 1969.39,467.966 1971.6,467.966 1973.82,467.966 1976.03,467.966 1978.25,467.966 1980.47,467.966 1982.68,467.966 1984.9,467.966 1987.11,467.966 1989.33,467.966 1991.55,467.966 1993.76,467.966 1995.98,467.966 1998.19,467.966 2000.41,467.966 2002.63,467.966 2004.84,467.966 2007.06,467.966 2009.27,467.966 2011.49,467.966 2013.71,467.966 2015.92,467.966 2018.14,467.966 2020.35,467.966 2022.57,467.966 2024.79,467.966 2027,467.966 2029.22,467.966 2031.43,467.966 2033.65,467.966 2035.87,467.966 2038.08,467.966 2040.3,467.966 2042.51,467.966 2044.73,467.966 2046.95,467.966 2049.16,467.966 2051.38,467.966 2053.59,467.966 2055.81,467.966 2058.03,467.966 2060.24,467.966 2062.46,467.966 2064.67,467.966 2066.89,467.966 2069.11,467.966 2071.32,467.966 2073.54,467.966 2075.75,467.966 2077.97,467.966 2080.19,467.966 2082.4,467.966 2084.62,467.966 2086.83,467.966 2089.05,467.966 2091.27,467.966 2093.48,467.966 2095.7,467.966 2097.91,467.966 2100.13,467.966 2102.35,467.966 2104.56,467.966 2106.78,467.966 2108.99,467.966 2111.21,467.966 2113.43,467.966 2115.64,467.966 2117.86,467.966 2120.07,467.966 2122.29,467.966 2124.51,467.966 2126.72,467.966 2128.94,467.966 2131.15,467.966 2133.37,467.966 2135.59,467.966 2137.8,467.966 2140.02,467.966 2142.23,467.966 2144.45,467.966 2146.67,467.966 2148.88,467.966 2151.1,467.966 2153.31,467.966 2155.53,467.966 2157.75,467.966 2159.96,467.966 2162.18,467.966 2164.39,467.966 2166.61,467.966 2168.83,467.966 2171.04,467.966 2173.26,467.966 2175.47,467.966 2177.69,467.966 2179.91,467.966 2182.12,467.966 2184.34,467.966 2186.55,467.966 2188.77,467.966 2190.99,467.966 2193.2,467.966 2195.42,467.966 2197.64,467.966 2199.85,467.966 2202.07,467.966 2204.28,467.966 2206.5,467.966 2208.72,467.966 2210.93,467.966 2213.15,467.966 2215.36,467.966 2217.58,467.966 2219.8,467.966 2222.01,467.966 2224.23,467.966 2226.44,467.966 2228.66,391.61 2230.88,391.61 2233.09,315.254 2235.31,315.254 2237.52,315.254 2239.74,315.254 2241.96,315.254 2244.17,315.254 2246.39,315.254 2248.6,315.254 2250.82,315.254 2253.04,315.254 2255.25,315.254 2257.47,315.254 2259.68,315.254 2261.9,315.254 2264.12,315.254 2266.33,315.254 2268.55,315.254 2270.76,315.254 2272.98,315.254 2275.2,315.254 2277.41,315.254 2279.63,315.254 2281.84,315.254 2284.06,315.254 2286.28,315.254 2288.49,315.254 2290.71,315.254 2292.92,315.254 2295.14,315.254 2297.36,315.254 2299.57,315.254 2301.79,315.254 2304,315.254 2306.22,315.254 2308.44,315.254 2310.65,315.254 2312.87,315.254 2315.08,315.254 2317.3,315.254 2319.52,315.254 2321.73,238.898 2323.95,238.898 2326.16,238.898 2328.38,238.898 2330.6,238.898 2332.81,238.898 2335.03,162.542 2337.24,162.542 2339.46,162.542 2341.68,162.542 2343.89,162.542 2346.11,162.542 2348.32,162.542 2350.54,86.1857 2352.76,86.1857 "/>
<path clip-path="url(#clip220)" d="M212.753 248.629 L517.488 248.629 L517.488 93.1086 L212.753 93.1086  Z" fill="#ffffff" fill-rule="evenodd" fill-opacity="1"/>
<polyline clip-path="url(#clip220)" style="stroke:#000000; stroke-linecap:round; stroke-linejoin:round; stroke-width:4; stroke-opacity:1; fill:none" points="212.753,248.629 517.488,248.629 517.488,93.1086 212.753,93.1086 212.753,248.629 "/>
<polyline clip-path="url(#clip220)" style="stroke:#009af9; stroke-linecap:round; stroke-linejoin:round; stroke-width:8; stroke-opacity:1; fill:none" points="237.35,144.949 384.937,144.949 "/>
<path clip-path="url(#clip220)" d="M409.535 127.669 L415.831 127.669 L431.155 156.581 L431.155 127.669 L435.692 127.669 L435.692 162.229 L429.396 162.229 L414.072 133.317 L414.072 162.229 L409.535 162.229 L409.535 127.669 Z" fill="#000000" fill-rule="nonzero" fill-opacity="1" /><path clip-path="url(#clip220)" d="M455.044 126.257 Q451.942 131.581 450.437 136.789 Q448.933 141.997 448.933 147.344 Q448.933 152.692 450.437 157.946 Q451.965 163.178 455.044 168.479 L451.34 168.479 Q447.868 163.039 446.132 157.784 Q444.419 152.53 444.419 147.344 Q444.419 142.182 446.132 136.951 Q447.845 131.72 451.34 126.257 L455.044 126.257 Z" fill="#000000" fill-rule="nonzero" fill-opacity="1" /><path clip-path="url(#clip220)" d="M467.52 128.942 L467.52 136.303 L476.293 136.303 L476.293 139.613 L467.52 139.613 L467.52 153.687 Q467.52 156.858 468.377 157.761 Q469.256 158.664 471.918 158.664 L476.293 158.664 L476.293 162.229 L471.918 162.229 Q466.988 162.229 465.113 160.4 Q463.238 158.548 463.238 153.687 L463.238 139.613 L460.113 139.613 L460.113 136.303 L463.238 136.303 L463.238 128.942 L467.52 128.942 Z" fill="#000000" fill-rule="nonzero" fill-opacity="1" /><path clip-path="url(#clip220)" d="M481.224 126.257 L484.928 126.257 Q488.4 131.72 490.113 136.951 Q491.849 142.182 491.849 147.344 Q491.849 152.53 490.113 157.784 Q488.4 163.039 484.928 168.479 L481.224 168.479 Q484.303 163.178 485.807 157.946 Q487.335 152.692 487.335 147.344 Q487.335 141.997 485.807 136.789 Q484.303 131.581 481.224 126.257 Z" fill="#000000" fill-rule="nonzero" fill-opacity="1" /><polyline clip-path="url(#clip220)" style="stroke:#e26f46; stroke-linecap:round; stroke-linejoin:round; stroke-width:8; stroke-opacity:1; fill:none" points="237.35,196.789 384.937,196.789 "/>
<path clip-path="url(#clip220)" d="M414.21 183.351 L414.21 210.226 L419.859 210.226 Q427.011 210.226 430.321 206.985 Q433.655 203.745 433.655 196.754 Q433.655 189.809 430.321 186.592 Q427.011 183.351 419.859 183.351 L414.21 183.351 M409.535 179.509 L419.141 179.509 Q429.187 179.509 433.886 183.698 Q438.585 187.865 438.585 196.754 Q438.585 205.689 433.863 209.879 Q429.141 214.069 419.141 214.069 L409.535 214.069 L409.535 179.509 Z" fill="#000000" fill-rule="nonzero" fill-opacity="1" /><path clip-path="url(#clip220)" d="M456.085 178.097 Q452.983 183.421 451.479 188.629 Q449.974 193.837 449.974 199.184 Q449.974 204.532 451.479 209.786 Q453.007 215.018 456.085 220.319 L452.382 220.319 Q448.909 214.879 447.173 209.624 Q445.46 204.37 445.46 199.184 Q445.46 194.022 447.173 188.791 Q448.886 183.56 452.382 178.097 L456.085 178.097 Z" fill="#000000" fill-rule="nonzero" fill-opacity="1" /><path clip-path="url(#clip220)" d="M468.562 180.782 L468.562 188.143 L477.335 188.143 L477.335 191.453 L468.562 191.453 L468.562 205.527 Q468.562 208.698 469.419 209.601 Q470.298 210.504 472.96 210.504 L477.335 210.504 L477.335 214.069 L472.96 214.069 Q468.03 214.069 466.155 212.24 Q464.28 210.388 464.28 205.527 L464.28 191.453 L461.155 191.453 L461.155 188.143 L464.28 188.143 L464.28 180.782 L468.562 180.782 Z" fill="#000000" fill-rule="nonzero" fill-opacity="1" /><path clip-path="url(#clip220)" d="M482.266 178.097 L485.969 178.097 Q489.442 183.56 491.154 188.791 Q492.891 194.022 492.891 199.184 Q492.891 204.37 491.154 209.624 Q489.442 214.879 485.969 220.319 L482.266 220.319 Q485.344 215.018 486.849 209.786 Q488.377 204.532 488.377 199.184 Q488.377 193.837 486.849 188.629 Q485.344 183.421 482.266 178.097 Z" fill="#000000" fill-rule="nonzero" fill-opacity="1" /></svg>
