<?xml version="1.0" encoding="utf-8"?>
<svg xmlns="http://www.w3.org/2000/svg" xmlns:xlink="http://www.w3.org/1999/xlink" width="600" height="400" viewBox="0 0 2400 1600">
<defs>
  <clipPath id="clip240">
    <rect x="0" y="0" width="2400" height="1600"/>
  </clipPath>
</defs>
<path clip-path="url(#clip240)" d="M0 1600 L2400 1600 L2400 0 L0 0  Z" fill="#ffffff" fill-rule="evenodd" fill-opacity="1"/>
<defs>
  <clipPath id="clip241">
    <rect x="138" y="47" width="2215" height="1377"/>
  </clipPath>
</defs>
<path clip-path="url(#clip240)" d="M138.959 1423.18 L2352.76 1423.18 L2352.76 47.2441 L138.959 47.2441  Z" fill="#ffffff" fill-rule="evenodd" fill-opacity="1"/>
<polyline clip-path="url(#clip241)" style="stroke:#000000; stroke-linecap:round; stroke-linejoin:round; stroke-width:2; stroke-opacity:0.1; fill:none" points="138.959,1423.18 138.959,47.2441 "/>
<polyline clip-path="url(#clip241)" style="stroke:#000000; stroke-linecap:round; stroke-linejoin:round; stroke-width:2; stroke-opacity:0.1; fill:none" points="581.719,1423.18 581.719,47.2441 "/>
<polyline clip-path="url(#clip241)" style="stroke:#000000; stroke-linecap:round; stroke-linejoin:round; stroke-width:2; stroke-opacity:0.1; fill:none" points="1024.48,1423.18 1024.48,47.2441 "/>
<polyline clip-path="url(#clip241)" style="stroke:#000000; stroke-linecap:round; stroke-linejoin:round; stroke-width:2; stroke-opacity:0.1; fill:none" points="1467.24,1423.18 1467.24,47.2441 "/>
<polyline clip-path="url(#clip241)" style="stroke:#000000; stroke-linecap:round; stroke-linejoin:round; stroke-width:2; stroke-opacity:0.1; fill:none" points="1910,1423.18 1910,47.2441 "/>
<polyline clip-path="url(#clip241)" style="stroke:#000000; stroke-linecap:round; stroke-linejoin:round; stroke-width:2; stroke-opacity:0.1; fill:none" points="2352.76,1423.18 2352.76,47.2441 "/>
<polyline clip-path="url(#clip241)" style="stroke:#000000; stroke-linecap:round; stroke-linejoin:round; stroke-width:2; stroke-opacity:0.1; fill:none" points="138.959,1384.24 2352.76,1384.24 "/>
<polyline clip-path="url(#clip241)" style="stroke:#000000; stroke-linecap:round; stroke-linejoin:round; stroke-width:2; stroke-opacity:0.1; fill:none" points="138.959,951.554 2352.76,951.554 "/>
<polyline clip-path="url(#clip241)" style="stroke:#000000; stroke-linecap:round; stroke-linejoin:round; stroke-width:2; stroke-opacity:0.1; fill:none" points="138.959,518.87 2352.76,518.87 "/>
<polyline clip-path="url(#clip241)" style="stroke:#000000; stroke-linecap:round; stroke-linejoin:round; stroke-width:2; stroke-opacity:0.1; fill:none" points="138.959,86.1857 2352.76,86.1857 "/>
<polyline clip-path="url(#clip240)" style="stroke:#000000; stroke-linecap:round; stroke-linejoin:round; stroke-width:4; stroke-opacity:1; fill:none" points="138.959,1423.18 2352.76,1423.18 "/>
<polyline clip-path="url(#clip240)" style="stroke:#000000; stroke-linecap:round; stroke-linejoin:round; stroke-width:4; stroke-opacity:1; fill:none" points="138.959,1423.18 138.959,1404.28 "/>
<polyline clip-path="url(#clip240)" style="stroke:#000000; stroke-linecap:round; stroke-linejoin:round; stroke-width:4; stroke-opacity:1; fill:none" points="581.719,1423.18 581.719,1404.28 "/>
<polyline clip-path="url(#clip240)" style="stroke:#000000; stroke-linecap:round; stroke-linejoin:round; stroke-width:4; stroke-opacity:1; fill:none" points="1024.48,1423.18 1024.48,1404.28 "/>
<polyline clip-path="url(#clip240)" style="stroke:#000000; stroke-linecap:round; stroke-linejoin:round; stroke-width:4; stroke-opacity:1; fill:none" points="1467.24,1423.18 1467.24,1404.28 "/>
<polyline clip-path="url(#clip240)" style="stroke:#000000; stroke-linecap:round; stroke-linejoin:round; stroke-width:4; stroke-opacity:1; fill:none" points="1910,1423.18 1910,1404.28 "/>
<polyline clip-path="url(#clip240)" style="stroke:#000000; stroke-linecap:round; stroke-linejoin:round; stroke-width:4; stroke-opacity:1; fill:none" points="2352.76,1423.18 2352.76,1404.28 "/>
<path clip-path="url(#clip240)" d="M138.959 1454.1 Q135.348 1454.1 133.52 1457.66 Q131.714 1461.2 131.714 1468.33 Q131.714 1475.44 133.52 1479.01 Q135.348 1482.55 138.959 1482.55 Q142.594 1482.55 144.399 1479.01 Q146.228 1475.44 146.228 1468.33 Q146.228 1461.2 144.399 1457.66 Q142.594 1454.1 138.959 1454.1 M138.959 1450.39 Q144.77 1450.39 147.825 1455 Q150.904 1459.58 150.904 1468.33 Q150.904 1477.06 147.825 1481.67 Q144.77 1486.25 138.959 1486.25 Q133.149 1486.25 130.071 1481.67 Q127.015 1477.06 127.015 1468.33 Q127.015 1459.58 130.071 1455 Q133.149 1450.39 138.959 1450.39 Z" fill="#000000" fill-rule="nonzero" fill-opacity="1" /><path clip-path="url(#clip240)" d="M576.372 1481.64 L592.691 1481.64 L592.691 1485.58 L570.747 1485.58 L570.747 1481.64 Q573.409 1478.89 577.992 1474.26 Q582.598 1469.61 583.779 1468.27 Q586.024 1465.74 586.904 1464.01 Q587.807 1462.25 587.807 1460.56 Q587.807 1457.8 585.862 1456.07 Q583.941 1454.33 580.839 1454.33 Q578.64 1454.33 576.186 1455.09 Q573.756 1455.86 570.978 1457.41 L570.978 1452.69 Q573.802 1451.55 576.256 1450.97 Q578.709 1450.39 580.747 1450.39 Q586.117 1450.39 589.311 1453.08 Q592.506 1455.77 592.506 1460.26 Q592.506 1462.39 591.696 1464.31 Q590.908 1466.2 588.802 1468.8 Q588.223 1469.47 585.121 1472.69 Q582.02 1475.88 576.372 1481.64 Z" fill="#000000" fill-rule="nonzero" fill-opacity="1" /><path clip-path="url(#clip240)" d="M1027.49 1455.09 L1015.68 1473.54 L1027.49 1473.54 L1027.49 1455.09 M1026.26 1451.02 L1032.14 1451.02 L1032.14 1473.54 L1037.07 1473.54 L1037.07 1477.43 L1032.14 1477.43 L1032.14 1485.58 L1027.49 1485.58 L1027.49 1477.43 L1011.89 1477.43 L1011.89 1472.92 L1026.26 1451.02 Z" fill="#000000" fill-rule="nonzero" fill-opacity="1" /><path clip-path="url(#clip240)" d="M1467.64 1466.44 Q1464.49 1466.44 1462.64 1468.59 Q1460.81 1470.74 1460.81 1474.49 Q1460.81 1478.22 1462.64 1480.39 Q1464.49 1482.55 1467.64 1482.55 Q1470.79 1482.55 1472.62 1480.39 Q1474.47 1478.22 1474.47 1474.49 Q1474.47 1470.74 1472.62 1468.59 Q1470.79 1466.44 1467.64 1466.44 M1476.92 1451.78 L1476.92 1456.04 Q1475.17 1455.21 1473.36 1454.77 Q1471.58 1454.33 1469.82 1454.33 Q1465.19 1454.33 1462.74 1457.45 Q1460.3 1460.58 1459.96 1466.9 Q1461.32 1464.89 1463.38 1463.82 Q1465.44 1462.73 1467.92 1462.73 Q1473.13 1462.73 1476.14 1465.9 Q1479.17 1469.05 1479.17 1474.49 Q1479.17 1479.82 1476.02 1483.03 Q1472.87 1486.25 1467.64 1486.25 Q1461.65 1486.25 1458.48 1481.67 Q1455.3 1477.06 1455.3 1468.33 Q1455.3 1460.14 1459.19 1455.28 Q1463.08 1450.39 1469.63 1450.39 Q1471.39 1450.39 1473.17 1450.74 Q1474.98 1451.09 1476.92 1451.78 Z" fill="#000000" fill-rule="nonzero" fill-opacity="1" /><path clip-path="url(#clip240)" d="M1910 1469.17 Q1906.66 1469.17 1904.74 1470.95 Q1902.84 1472.73 1902.84 1475.86 Q1902.84 1478.98 1904.74 1480.77 Q1906.66 1482.55 1910 1482.55 Q1913.33 1482.55 1915.25 1480.77 Q1917.17 1478.96 1917.17 1475.86 Q1917.17 1472.73 1915.25 1470.95 Q1913.35 1469.17 1910 1469.17 M1905.32 1467.18 Q1902.31 1466.44 1900.62 1464.38 Q1898.96 1462.32 1898.96 1459.35 Q1898.96 1455.21 1901.89 1452.8 Q1904.86 1450.39 1910 1450.39 Q1915.16 1450.39 1918.1 1452.8 Q1921.04 1455.21 1921.04 1459.35 Q1921.04 1462.32 1919.35 1464.38 Q1917.68 1466.44 1914.7 1467.18 Q1918.08 1467.96 1919.95 1470.26 Q1921.85 1472.55 1921.85 1475.86 Q1921.85 1480.88 1918.77 1483.57 Q1915.71 1486.25 1910 1486.25 Q1904.28 1486.25 1901.2 1483.57 Q1898.14 1480.88 1898.14 1475.86 Q1898.14 1472.55 1900.04 1470.26 Q1901.94 1467.96 1905.32 1467.18 M1903.61 1459.79 Q1903.61 1462.48 1905.27 1463.98 Q1906.96 1465.49 1910 1465.49 Q1913.01 1465.49 1914.7 1463.98 Q1916.41 1462.48 1916.41 1459.79 Q1916.41 1457.11 1914.7 1455.6 Q1913.01 1454.1 1910 1454.1 Q1906.96 1454.1 1905.27 1455.6 Q1903.61 1457.11 1903.61 1459.79 Z" fill="#000000" fill-rule="nonzero" fill-opacity="1" /><path clip-path="url(#clip240)" d="M2327.44 1481.64 L2335.08 1481.64 L2335.08 1455.28 L2326.77 1456.95 L2326.77 1452.69 L2335.04 1451.02 L2339.71 1451.02 L2339.71 1481.64 L2347.35 1481.64 L2347.35 1485.58 L2327.44 1485.58 L2327.44 1481.64 Z" fill="#000000" fill-rule="nonzero" fill-opacity="1" /><path clip-path="url(#clip240)" d="M2366.8 1454.1 Q2363.18 1454.1 2361.36 1457.66 Q2359.55 1461.2 2359.55 1468.33 Q2359.55 1475.44 2361.36 1479.01 Q2363.18 1482.55 2366.8 1482.55 Q2370.43 1482.55 2372.23 1479.01 Q2374.06 1475.44 2374.06 1468.33 Q2374.06 1461.2 2372.23 1457.66 Q2370.43 1454.1 2366.8 1454.1 M2366.8 1450.39 Q2372.61 1450.39 2375.66 1455 Q2378.74 1459.58 2378.74 1468.33 Q2378.74 1477.06 2375.66 1481.67 Q2372.61 1486.25 2366.8 1486.25 Q2360.99 1486.25 2357.91 1481.67 Q2354.85 1477.06 2354.85 1468.33 Q2354.85 1459.58 2357.91 1455 Q2360.99 1450.39 2366.8 1450.39 Z" fill="#000000" fill-rule="nonzero" fill-opacity="1" /><path clip-path="url(#clip240)" d="M1244.92 1522.27 L1244.92 1532.4 L1256.98 1532.4 L1256.98 1536.95 L1244.92 1536.95 L1244.92 1556.3 Q1244.92 1560.66 1246.1 1561.9 Q1247.31 1563.14 1250.97 1563.14 L1256.98 1563.14 L1256.98 1568.04 L1250.97 1568.04 Q1244.19 1568.04 1241.61 1565.53 Q1239.03 1562.98 1239.03 1556.3 L1239.03 1536.95 L1234.73 1536.95 L1234.73 1532.4 L1239.03 1532.4 L1239.03 1522.27 L1244.92 1522.27 Z" fill="#000000" fill-rule="nonzero" fill-opacity="1" /><polyline clip-path="url(#clip240)" style="stroke:#000000; stroke-linecap:round; stroke-linejoin:round; stroke-width:4; stroke-opacity:1; fill:none" points="138.959,1423.18 138.959,47.2441 "/>
<polyline clip-path="url(#clip240)" style="stroke:#000000; stroke-linecap:round; stroke-linejoin:round; stroke-width:4; stroke-opacity:1; fill:none" points="138.959,1384.24 157.857,1384.24 "/>
<polyline clip-path="url(#clip240)" style="stroke:#000000; stroke-linecap:round; stroke-linejoin:round; stroke-width:4; stroke-opacity:1; fill:none" points="138.959,951.554 157.857,951.554 "/>
<polyline clip-path="url(#clip240)" style="stroke:#000000; stroke-linecap:round; stroke-linejoin:round; stroke-width:4; stroke-opacity:1; fill:none" points="138.959,518.87 157.857,518.87 "/>
<polyline clip-path="url(#clip240)" style="stroke:#000000; stroke-linecap:round; stroke-linejoin:round; stroke-width:4; stroke-opacity:1; fill:none" points="138.959,86.1857 157.857,86.1857 "/>
<path clip-path="url(#clip240)" d="M91.0151 1370.04 Q87.404 1370.04 85.5753 1373.6 Q83.7697 1377.14 83.7697 1384.27 Q83.7697 1391.38 85.5753 1394.94 Q87.404 1398.49 91.0151 1398.49 Q94.6493 1398.49 96.4548 1394.94 Q98.2835 1391.38 98.2835 1384.27 Q98.2835 1377.14 96.4548 1373.6 Q94.6493 1370.04 91.0151 1370.04 M91.0151 1366.33 Q96.8252 1366.33 99.8808 1370.94 Q102.959 1375.52 102.959 1384.27 Q102.959 1393 99.8808 1397.61 Q96.8252 1402.19 91.0151 1402.19 Q85.2049 1402.19 82.1262 1397.61 Q79.0707 1393 79.0707 1384.27 Q79.0707 1375.52 82.1262 1370.94 Q85.2049 1366.33 91.0151 1366.33 Z" fill="#000000" fill-rule="nonzero" fill-opacity="1" /><path clip-path="url(#clip240)" d="M82.0568 934.274 L100.413 934.274 L100.413 938.209 L86.3392 938.209 L86.3392 946.681 Q87.3577 946.334 88.3762 946.172 Q89.3947 945.987 90.4132 945.987 Q96.2002 945.987 99.5798 949.158 Q102.959 952.33 102.959 957.746 Q102.959 963.325 99.4872 966.427 Q96.015 969.505 89.6956 969.505 Q87.5197 969.505 85.2512 969.135 Q83.0058 968.765 80.5984 968.024 L80.5984 963.325 Q82.6818 964.459 84.904 965.015 Q87.1262 965.57 89.603 965.57 Q93.6076 965.57 95.9456 963.464 Q98.2835 961.357 98.2835 957.746 Q98.2835 954.135 95.9456 952.029 Q93.6076 949.922 89.603 949.922 Q87.728 949.922 85.8531 950.339 Q84.0012 950.755 82.0568 951.635 L82.0568 934.274 Z" fill="#000000" fill-rule="nonzero" fill-opacity="1" /><path clip-path="url(#clip240)" d="M51.6634 532.215 L59.3023 532.215 L59.3023 505.849 L50.9921 507.516 L50.9921 503.257 L59.256 501.59 L63.9319 501.59 L63.9319 532.215 L71.5707 532.215 L71.5707 536.15 L51.6634 536.15 L51.6634 532.215 Z" fill="#000000" fill-rule="nonzero" fill-opacity="1" /><path clip-path="url(#clip240)" d="M91.0151 504.669 Q87.404 504.669 85.5753 508.233 Q83.7697 511.775 83.7697 518.905 Q83.7697 526.011 85.5753 529.576 Q87.404 533.117 91.0151 533.117 Q94.6493 533.117 96.4548 529.576 Q98.2835 526.011 98.2835 518.905 Q98.2835 511.775 96.4548 508.233 Q94.6493 504.669 91.0151 504.669 M91.0151 500.965 Q96.8252 500.965 99.8808 505.571 Q102.959 510.155 102.959 518.905 Q102.959 527.631 99.8808 532.238 Q96.8252 536.821 91.0151 536.821 Q85.2049 536.821 82.1262 532.238 Q79.0707 527.631 79.0707 518.905 Q79.0707 510.155 82.1262 505.571 Q85.2049 500.965 91.0151 500.965 Z" fill="#000000" fill-rule="nonzero" fill-opacity="1" /><path clip-path="url(#clip240)" d="M52.6588 99.5305 L60.2976 99.5305 L60.2976 73.1649 L51.9875 74.8316 L51.9875 70.5723 L60.2513 68.9057 L64.9272 68.9057 L64.9272 99.5305 L72.5661 99.5305 L72.5661 103.466 L52.6588 103.466 L52.6588 99.5305 Z" fill="#000000" fill-rule="nonzero" fill-opacity="1" /><path clip-path="url(#clip240)" d="M82.0568 68.9057 L100.413 68.9057 L100.413 72.8408 L86.3392 72.8408 L86.3392 81.313 Q87.3577 80.9658 88.3762 80.8038 Q89.3947 80.6186 90.4132 80.6186 Q96.2002 80.6186 99.5798 83.7899 Q102.959 86.9611 102.959 92.3778 Q102.959 97.9564 99.4872 101.058 Q96.015 104.137 89.6956 104.137 Q87.5197 104.137 85.2512 103.767 Q83.0058 103.396 80.5984 102.655 L80.5984 97.9564 Q82.6818 99.0907 84.904 99.6462 Q87.1262 100.202 89.603 100.202 Q93.6076 100.202 95.9456 98.0953 Q98.2835 95.9889 98.2835 92.3778 Q98.2835 88.7667 95.9456 86.6602 Q93.6076 84.5537 89.603 84.5537 Q87.728 84.5537 85.8531 84.9704 Q84.0012 85.3871 82.0568 86.2667 L82.0568 68.9057 Z" fill="#000000" fill-rule="nonzero" fill-opacity="1" /><polyline clip-path="url(#clip241)" style="stroke:#009af9; stroke-linecap:round; stroke-linejoin:round; stroke-width:8; stroke-opacity:1; fill:none" points="138.959,1384.24 141.175,1384.24 143.391,1384.24 145.607,1384.24 147.823,1384.24 150.04,1384.24 152.256,1384.24 154.472,1384.24 156.688,1384.24 158.904,1384.24 161.12,1384.24 163.336,1384.24 165.552,1384.24 167.768,1384.24 169.984,1384.24 172.2,1384.24 174.416,1384.24 176.632,1384.24 178.848,1384.24 181.064,1384.24 183.28,1384.24 185.496,1384.24 187.712,1384.24 189.928,1384.24 192.144,1384.24 194.36,1384.24 196.576,1384.24 198.792,1384.24 201.008,1384.24 203.224,1384.24 205.44,1384.24 207.656,1384.24 209.872,1384.24 212.088,1384.24 214.304,1384.24 216.52,1384.24 218.736,1384.24 220.952,1384.24 223.168,1384.24 225.384,1384.24 227.6,1384.24 229.816,1384.24 232.032,1384.24 234.248,1384.24 236.464,1384.24 238.68,1384.24 240.896,1384.24 243.112,1297.7 245.328,1297.7 247.544,1297.7 249.76,1297.7 251.976,1297.7 254.192,1297.7 256.408,1297.7 258.624,1297.7 260.84,1297.7 263.056,1297.7 265.272,1297.7 267.488,1211.16 269.704,1211.16 271.92,1211.16 274.136,1211.16 276.352,1124.63 278.568,1124.63 280.784,1124.63 283,1124.63 285.216,1124.63 287.432,1124.63 289.648,1124.63 291.864,1124.63 294.08,1124.63 296.296,1124.63 298.512,1124.63 300.728,1124.63 302.944,1124.63 305.16,1124.63 307.376,1124.63 309.592,1124.63 311.808,1124.63 314.024,1124.63 316.24,1124.63 318.456,1124.63 320.672,1124.63 322.888,1124.63 325.104,1124.63 327.321,1124.63 329.537,1124.63 331.753,1124.63 333.969,1124.63 336.185,1124.63 338.401,1124.63 340.617,1124.63 342.833,1124.63 345.049,1124.63 347.265,1124.63 349.481,1124.63 351.697,1124.63 353.913,1124.63 356.129,1211.16 358.345,1211.16 360.561,1211.16 362.777,1211.16 364.993,1211.16 367.209,1211.16 369.425,1211.16 371.641,1211.16 373.857,1211.16 376.073,1211.16 378.289,1211.16 380.505,1211.16 382.721,1211.16 384.937,1211.16 387.153,1211.16 389.369,1211.16 391.585,1211.16 393.801,1124.63 396.017,1124.63 398.233,1124.63 400.449,1124.63 402.665,1124.63 404.881,1124.63 407.097,1038.09 409.313,1038.09 411.529,1038.09 413.745,1038.09 415.961,1038.09 418.177,1038.09 420.393,1038.09 422.609,1124.63 424.825,1124.63 427.041,1211.16 429.257,1211.16 431.473,1211.16 433.689,1211.16 435.905,1211.16 438.121,1211.16 440.337,1211.16 442.553,1211.16 444.769,1124.63 446.985,1211.16 449.201,1211.16 451.417,1211.16 453.633,1211.16 455.849,1211.16 458.065,1211.16 460.281,1211.16 462.497,1211.16 464.713,1211.16 466.929,1211.16 469.145,1211.16 471.361,1211.16 473.577,1211.16 475.793,1211.16 478.009,1211.16 480.225,1211.16 482.441,1211.16 484.657,1211.16 486.873,1211.16 489.089,1211.16 491.305,1211.16 493.521,1211.16 495.737,1211.16 497.953,1211.16 500.169,1211.16 502.385,1211.16 504.601,1211.16 506.818,1211.16 509.034,1211.16 511.25,1211.16 513.466,1211.16 515.682,1211.16 517.898,1211.16 520.114,1211.16 522.33,1211.16 524.546,1211.16 526.762,1211.16 528.978,1211.16 531.194,1211.16 533.41,1211.16 535.626,1211.16 537.842,1211.16 540.058,1211.16 542.274,1211.16 544.49,1211.16 546.706,1211.16 548.922,1211.16 551.138,1211.16 553.354,1211.16 555.57,1211.16 557.786,1211.16 560.002,1211.16 562.218,1211.16 564.434,1211.16 566.65,1211.16 568.866,1211.16 571.082,1211.16 573.298,1211.16 575.514,1211.16 577.73,1211.16 579.946,1124.63 582.162,1124.63 584.378,1124.63 586.594,1124.63 588.81,1124.63 591.026,1124.63 593.242,1124.63 595.458,1124.63 597.674,1124.63 599.89,1124.63 602.106,1124.63 604.322,1124.63 606.538,1124.63 608.754,1124.63 610.97,1124.63 613.186,1124.63 615.402,1124.63 617.618,1124.63 619.834,1124.63 622.05,1124.63 624.266,1124.63 626.482,1124.63 628.698,1124.63 630.914,1124.63 633.13,1124.63 635.346,1124.63 637.562,1124.63 639.778,1124.63 641.994,1124.63 644.21,1124.63 646.426,1124.63 648.642,1124.63 650.858,1124.63 653.074,1124.63 655.29,1124.63 657.506,1038.09 659.722,1038.09 661.938,1038.09 664.154,1038.09 666.37,1038.09 668.586,1038.09 670.802,1038.09 673.018,1038.09 675.234,1038.09 677.45,1038.09 679.666,1038.09 681.882,1038.09 684.099,1038.09 686.315,1038.09 688.531,1124.63 690.747,1124.63 692.963,1124.63 695.179,1124.63 697.395,1124.63 699.611,1124.63 701.827,1124.63 704.043,1124.63 706.259,1124.63 708.475,1124.63 710.691,1124.63 712.907,1124.63 715.123,1124.63 717.339,1124.63 719.555,1124.63 721.771,1124.63 723.987,1124.63 726.203,1124.63 728.419,1124.63 730.635,1124.63 732.851,1124.63 735.067,1124.63 737.283,1124.63 739.499,1124.63 741.715,1124.63 743.931,1124.63 746.147,1124.63 748.363,1124.63 750.579,1124.63 752.795,1124.63 755.011,1124.63 757.227,1124.63 759.443,1124.63 761.659,1124.63 763.875,1124.63 766.091,1124.63 768.307,1124.63 770.523,1124.63 772.739,1124.63 774.955,1124.63 777.171,1124.63 779.387,1124.63 781.603,1124.63 783.819,1124.63 786.035,1124.63 788.251,1124.63 790.467,1124.63 792.683,1124.63 794.899,1124.63 797.115,1124.63 799.331,1124.63 801.547,1124.63 803.763,1124.63 805.979,1124.63 808.195,1124.63 810.411,1124.63 812.627,1124.63 814.843,1124.63 817.059,1124.63 819.275,1124.63 821.491,1124.63 823.707,1124.63 825.923,1124.63 828.139,1124.63 830.355,1124.63 832.571,1124.63 834.787,1211.16 837.003,1211.16 839.219,1211.16 841.435,1211.16 843.651,1211.16 845.867,1211.16 848.083,1211.16 850.299,1211.16 852.515,1211.16 854.731,1211.16 856.947,1211.16 859.163,1211.16 861.38,1211.16 863.596,1211.16 865.812,1211.16 868.028,1211.16 870.244,1211.16 872.46,1211.16 874.676,1211.16 876.892,1211.16 879.108,1211.16 881.324,1211.16 883.54,1211.16 885.756,1211.16 887.972,1211.16 890.188,1211.16 892.404,1211.16 894.62,1211.16 896.836,1211.16 899.052,1211.16 901.268,1211.16 903.484,1211.16 905.7,1211.16 907.916,1211.16 910.132,1211.16 912.348,1211.16 914.564,1211.16 916.78,1211.16 918.996,1211.16 921.212,1211.16 923.428,1211.16 925.644,1211.16 927.86,1211.16 930.076,1211.16 932.292,1211.16 934.508,1211.16 936.724,1211.16 938.94,1211.16 941.156,1211.16 943.372,1211.16 945.588,1211.16 947.804,1211.16 950.02,1211.16 952.236,1211.16 954.452,1211.16 956.668,1211.16 958.884,1211.16 961.1,1211.16 963.316,1211.16 965.532,1211.16 967.748,1211.16 969.964,1211.16 972.18,1211.16 974.396,1211.16 976.612,1211.16 978.828,1211.16 981.044,1211.16 983.26,1211.16 985.476,1211.16 987.692,1211.16 989.908,1211.16 992.124,1211.16 994.34,1211.16 996.556,1211.16 998.772,1211.16 1000.99,1211.16 1003.2,1211.16 1005.42,1211.16 1007.64,1211.16 1009.85,1211.16 1012.07,1211.16 1014.28,1211.16 1016.5,1211.16 1018.72,1211.16 1020.93,1211.16 1023.15,1211.16 1025.36,1211.16 1027.58,1211.16 1029.8,1211.16 1032.01,1211.16 1034.23,1211.16 1036.44,1211.16 1038.66,1211.16 1040.88,1211.16 1043.09,1211.16 1045.31,1211.16 1047.52,1211.16 1049.74,1211.16 1051.96,1211.16 1054.17,1211.16 1056.39,1211.16 1058.6,1211.16 1060.82,1211.16 1063.04,1211.16 1065.25,1211.16 1067.47,1211.16 1069.68,1211.16 1071.9,1211.16 1074.12,1124.63 1076.33,1124.63 1078.55,1124.63 1080.76,1124.63 1082.98,1124.63 1085.2,1124.63 1087.41,1124.63 1089.63,1124.63 1091.84,1124.63 1094.06,1124.63 1096.28,1124.63 1098.49,1211.16 1100.71,1211.16 1102.92,1211.16 1105.14,1211.16 1107.36,1211.16 1109.57,1211.16 1111.79,1211.16 1114,1211.16 1116.22,1124.63 1118.44,1124.63 1120.65,1124.63 1122.87,1124.63 1125.08,1124.63 1127.3,1124.63 1129.52,1124.63 1131.73,1124.63 1133.95,1124.63 1136.17,1124.63 1138.38,1124.63 1140.6,1124.63 1142.81,1124.63 1145.03,1124.63 1147.25,1124.63 1149.46,1124.63 1151.68,1124.63 1153.89,1124.63 1156.11,1124.63 1158.33,1211.16 1160.54,1211.16 1162.76,1211.16 1164.97,1211.16 1167.19,1211.16 1169.41,1211.16 1171.62,1211.16 1173.84,1211.16 1176.05,1211.16 1178.27,1211.16 1180.49,1211.16 1182.7,1211.16 1184.92,1211.16 1187.13,1211.16 1189.35,1211.16 1191.57,1211.16 1193.78,1211.16 1196,1211.16 1198.21,1211.16 1200.43,1211.16 1202.65,1211.16 1204.86,1211.16 1207.08,1211.16 1209.29,1211.16 1211.51,1211.16 1213.73,1211.16 1215.94,1211.16 1218.16,1211.16 1220.37,1211.16 1222.59,1211.16 1224.81,1211.16 1227.02,1211.16 1229.24,1211.16 1231.45,1211.16 1233.67,1211.16 1235.89,1211.16 1238.1,1211.16 1240.32,1211.16 1242.53,1211.16 1244.75,1211.16 1246.97,1211.16 1249.18,1211.16 1251.4,1211.16 1253.61,1211.16 1255.83,1211.16 1258.05,1211.16 1260.26,1211.16 1262.48,1211.16 1264.69,1211.16 1266.91,1211.16 1269.13,1211.16 1271.34,1211.16 1273.56,1211.16 1275.77,1211.16 1277.99,1211.16 1280.21,1211.16 1282.42,1211.16 1284.64,1211.16 1286.85,1211.16 1289.07,1211.16 1291.29,1211.16 1293.5,1211.16 1295.72,1211.16 1297.93,1211.16 1300.15,1211.16 1302.37,1211.16 1304.58,1211.16 1306.8,1211.16 1309.01,1211.16 1311.23,1211.16 1313.45,1211.16 1315.66,1211.16 1317.88,1211.16 1320.09,1211.16 1322.31,1211.16 1324.53,1211.16 1326.74,1211.16 1328.96,1211.16 1331.17,1211.16 1333.39,1211.16 1335.61,1211.16 1337.82,1211.16 1340.04,1211.16 1342.25,1211.16 1344.47,1211.16 1346.69,1211.16 1348.9,1211.16 1351.12,1211.16 1353.33,1211.16 1355.55,1211.16 1357.77,1211.16 1359.98,1211.16 1362.2,1211.16 1364.41,1211.16 1366.63,1211.16 1368.85,1211.16 1371.06,1211.16 1373.28,1211.16 1375.49,1211.16 1377.71,1211.16 1379.93,1211.16 1382.14,1211.16 1384.36,1211.16 1386.57,1211.16 1388.79,1211.16 1391.01,1211.16 1393.22,1211.16 1395.44,1211.16 1397.65,1211.16 1399.87,1211.16 1402.09,1211.16 1404.3,1211.16 1406.52,1211.16 1408.73,1211.16 1410.95,1211.16 1413.17,1211.16 1415.38,1211.16 1417.6,1297.7 1419.81,1297.7 1422.03,1297.7 1424.25,1297.7 1426.46,1297.7 1428.68,1297.7 1430.89,1297.7 1433.11,1297.7 1435.33,1297.7 1437.54,1297.7 1439.76,1297.7 1441.97,1297.7 1444.19,1297.7 1446.41,1297.7 1448.62,1297.7 1450.84,1297.7 1453.05,1297.7 1455.27,1297.7 1457.49,1297.7 1459.7,1384.24 1461.92,1384.24 1464.13,1384.24 1466.35,1384.24 1468.57,1384.24 1470.78,1384.24 1473,1384.24 1475.21,1384.24 1477.43,1384.24 1479.65,1384.24 1481.86,1384.24 1484.08,1384.24 1486.3,1384.24 1488.51,1384.24 1490.73,1384.24 1492.94,1384.24 1495.16,1384.24 1497.38,1384.24 1499.59,1384.24 1501.81,1384.24 1504.02,1384.24 1506.24,1384.24 1508.46,1384.24 1510.67,1384.24 1512.89,1384.24 1515.1,1384.24 1517.32,1384.24 1519.54,1384.24 1521.75,1384.24 1523.97,1384.24 1526.18,1384.24 1528.4,1384.24 1530.62,1384.24 1532.83,1384.24 1535.05,1384.24 1537.26,1384.24 1539.48,1384.24 1541.7,1384.24 1543.91,1384.24 1546.13,1384.24 1548.34,1384.24 1550.56,1384.24 1552.78,1384.24 1554.99,1384.24 1557.21,1384.24 1559.42,1384.24 1561.64,1384.24 1563.86,1384.24 1566.07,1384.24 1568.29,1384.24 1570.5,1384.24 1572.72,1384.24 1574.94,1384.24 1577.15,1384.24 1579.37,1384.24 1581.58,1384.24 1583.8,1384.24 1586.02,1384.24 1588.23,1384.24 1590.45,1384.24 1592.66,1384.24 1594.88,1384.24 1597.1,1384.24 1599.31,1384.24 1601.53,1384.24 1603.74,1384.24 1605.96,1384.24 1608.18,1297.7 1610.39,1297.7 1612.61,1297.7 1614.82,1297.7 1617.04,1297.7 1619.26,1297.7 1621.47,1297.7 1623.69,1297.7 1625.9,1297.7 1628.12,1297.7 1630.34,1297.7 1632.55,1297.7 1634.77,1297.7 1636.98,1297.7 1639.2,1297.7 1641.42,1384.24 1643.63,1384.24 1645.85,1384.24 1648.06,1384.24 1650.28,1384.24 1652.5,1384.24 1654.71,1384.24 1656.93,1384.24 1659.14,1384.24 1661.36,1384.24 1663.58,1384.24 1665.79,1384.24 1668.01,1384.24 1670.22,1384.24 1672.44,1384.24 1674.66,1384.24 1676.87,1384.24 1679.09,1384.24 1681.3,1384.24 1683.52,1384.24 1685.74,1384.24 1687.95,1384.24 1690.17,1384.24 1692.38,1384.24 1694.6,1384.24 1696.82,1384.24 1699.03,1384.24 1701.25,1384.24 1703.46,1384.24 1705.68,1384.24 1707.9,1384.24 1710.11,1384.24 1712.33,1384.24 1714.54,1384.24 1716.76,1384.24 1718.98,1384.24 1721.19,1384.24 1723.41,1384.24 1725.62,1384.24 1727.84,1384.24 1730.06,1384.24 1732.27,1384.24 1734.49,1384.24 1736.7,1384.24 1738.92,1384.24 1741.14,1384.24 1743.35,1384.24 1745.57,1384.24 1747.78,1384.24 1750,1384.24 1752.22,1384.24 1754.43,1384.24 1756.65,1384.24 1758.86,1384.24 1761.08,1384.24 1763.3,1384.24 1765.51,1384.24 1767.73,1384.24 1769.94,1384.24 1772.16,1384.24 1774.38,1384.24 1776.59,1384.24 1778.81,1384.24 1781.02,1384.24 1783.24,1384.24 1785.46,1384.24 1787.67,1384.24 1789.89,1384.24 1792.1,1384.24 1794.32,1384.24 1796.54,1384.24 1798.75,1384.24 1800.97,1384.24 1803.18,1384.24 1805.4,1384.24 1807.62,1384.24 1809.83,1384.24 1812.05,1384.24 1814.26,1384.24 1816.48,1384.24 1818.7,1384.24 1820.91,1384.24 1823.13,1384.24 1825.34,1384.24 1827.56,1384.24 1829.78,1384.24 1831.99,1384.24 1834.21,1384.24 1836.42,1384.24 1838.64,1384.24 1840.86,1384.24 1843.07,1384.24 1845.29,1384.24 1847.51,1384.24 1849.72,1384.24 1851.94,1384.24 1854.15,1384.24 1856.37,1384.24 1858.59,1384.24 1860.8,1384.24 1863.02,1384.24 1865.23,1384.24 1867.45,1384.24 1869.67,1384.24 1871.88,1384.24 1874.1,1384.24 1876.31,1384.24 1878.53,1384.24 1880.75,1384.24 1882.96,1384.24 1885.18,1384.24 1887.39,1384.24 1889.61,1384.24 1891.83,1384.24 1894.04,1384.24 1896.26,1384.24 1898.47,1384.24 1900.69,1384.24 1902.91,1384.24 1905.12,1384.24 1907.34,1384.24 1909.55,1384.24 1911.77,1384.24 1913.99,1384.24 1916.2,1384.24 1918.42,1384.24 1920.63,1384.24 1922.85,1384.24 1925.07,1384.24 1927.28,1384.24 1929.5,1384.24 1931.71,1384.24 1933.93,1384.24 1936.15,1384.24 1938.36,1384.24 1940.58,1384.24 1942.79,1384.24 1945.01,1384.24 1947.23,1384.24 1949.44,1384.24 1951.66,1384.24 1953.87,1384.24 1956.09,1384.24 1958.31,1384.24 1960.52,1384.24 1962.74,1384.24 1964.95,1384.24 1967.17,1384.24 1969.39,1384.24 1971.6,1384.24 1973.82,1384.24 1976.03,1384.24 1978.25,1384.24 1980.47,1384.24 1982.68,1384.24 1984.9,1384.24 1987.11,1384.24 1989.33,1384.24 1991.55,1384.24 1993.76,1384.24 1995.98,1384.24 1998.19,1384.24 2000.41,1384.24 2002.63,1297.7 2004.84,1297.7 2007.06,1297.7 2009.27,1297.7 2011.49,1297.7 2013.71,1297.7 2015.92,1297.7 2018.14,1297.7 2020.35,1297.7 2022.57,1297.7 2024.79,1297.7 2027,1211.16 2029.22,1211.16 2031.43,1211.16 2033.65,1211.16 2035.87,1211.16 2038.08,1211.16 2040.3,1211.16 2042.51,1211.16 2044.73,1211.16 2046.95,1211.16 2049.16,1211.16 2051.38,1211.16 2053.59,1211.16 2055.81,1211.16 2058.03,1211.16 2060.24,1211.16 2062.46,1211.16 2064.67,1211.16 2066.89,1211.16 2069.11,1211.16 2071.32,1211.16 2073.54,1211.16 2075.75,1211.16 2077.97,1211.16 2080.19,1211.16 2082.4,1211.16 2084.62,1211.16 2086.83,1211.16 2089.05,1211.16 2091.27,1211.16 2093.48,1124.63 2095.7,1124.63 2097.91,1124.63 2100.13,1124.63 2102.35,1124.63 2104.56,1211.16 2106.78,1211.16 2108.99,1211.16 2111.21,1211.16 2113.43,1211.16 2115.64,1211.16 2117.86,1211.16 2120.07,1211.16 2122.29,1211.16 2124.51,1211.16 2126.72,1211.16 2128.94,1211.16 2131.15,1211.16 2133.37,1211.16 2135.59,1211.16 2137.8,1211.16 2140.02,1211.16 2142.23,1211.16 2144.45,1211.16 2146.67,1297.7 2148.88,1297.7 2151.1,1297.7 2153.31,1297.7 2155.53,1297.7 2157.75,1297.7 2159.96,1297.7 2162.18,1297.7 2164.39,1297.7 2166.61,1297.7 2168.83,1297.7 2171.04,1297.7 2173.26,1297.7 2175.47,1297.7 2177.69,1297.7 2179.91,1297.7 2182.12,1297.7 2184.34,1297.7 2186.55,1297.7 2188.77,1297.7 2190.99,1297.7 2193.2,1297.7 2195.42,1297.7 2197.64,1297.7 2199.85,1297.7 2202.07,1297.7 2204.28,1297.7 2206.5,1297.7 2208.72,1297.7 2210.93,1297.7 2213.15,1384.24 2215.36,1384.24 2217.58,1384.24 2219.8,1384.24 2222.01,1384.24 2224.23,1384.24 2226.44,1384.24 2228.66,1384.24 2230.88,1384.24 2233.09,1384.24 2235.31,1384.24 2237.52,1384.24 2239.74,1384.24 2241.96,1384.24 2244.17,1384.24 2246.39,1384.24 2248.6,1384.24 2250.82,1384.24 2253.04,1384.24 2255.25,1384.24 2257.47,1384.24 2259.68,1384.24 2261.9,1384.24 2264.12,1384.24 2266.33,1384.24 2268.55,1384.24 2270.76,1384.24 2272.98,1384.24 2275.2,1384.24 2277.41,1384.24 2279.63,1384.24 2281.84,1384.24 2284.06,1384.24 2286.28,1384.24 2288.49,1384.24 2290.71,1384.24 2292.92,1384.24 2295.14,1384.24 2297.36,1384.24 2299.57,1384.24 2301.79,1384.24 2304,1384.24 2306.22,1384.24 2308.44,1384.24 2310.65,1384.24 2312.87,1384.24 2315.08,1384.24 2317.3,1384.24 2319.52,1384.24 2321.73,1384.24 2323.95,1384.24 2326.16,1384.24 2328.38,1384.24 2330.6,1384.24 2332.81,1384.24 2335.03,1384.24 2337.24,1384.24 2339.46,1384.24 2341.68,1384.24 2343.89,1384.24 2346.11,1384.24 2348.32,1384.24 2350.54,1384.24 2352.76,1384.24 "/>
<polyline clip-path="url(#clip241)" style="stroke:#e26f46; stroke-linecap:round; stroke-linejoin:round; stroke-width:8; stroke-opacity:1; fill:none" points="138.959,1384.24 141.175,1384.24 143.391,1384.24 145.607,1384.24 147.823,1384.24 150.04,1384.24 152.256,1384.24 154.472,1384.24 156.688,1384.24 158.904,1384.24 161.12,1384.24 163.336,1384.24 165.552,1384.24 167.768,1384.24 169.984,1384.24 172.2,1384.24 174.416,1384.24 176.632,1384.24 178.848,1384.24 181.064,1384.24 183.28,1384.24 185.496,1384.24 187.712,1384.24 189.928,1384.24 192.144,1384.24 194.36,1384.24 196.576,1384.24 198.792,1384.24 201.008,1384.24 203.224,1384.24 205.44,1384.24 207.656,1384.24 209.872,1384.24 212.088,1384.24 214.304,1384.24 216.52,1384.24 218.736,1384.24 220.952,1384.24 223.168,1384.24 225.384,1384.24 227.6,1384.24 229.816,1384.24 232.032,1384.24 234.248,1384.24 236.464,1384.24 238.68,1384.24 240.896,1384.24 243.112,1384.24 245.328,1384.24 247.544,1384.24 249.76,1384.24 251.976,1384.24 254.192,1384.24 256.408,1384.24 258.624,1384.24 260.84,1384.24 263.056,1384.24 265.272,1384.24 267.488,1384.24 269.704,1384.24 271.92,1384.24 274.136,1384.24 276.352,1384.24 278.568,1384.24 280.784,1384.24 283,1384.24 285.216,1384.24 287.432,1384.24 289.648,1384.24 291.864,1384.24 294.08,1384.24 296.296,1384.24 298.512,1384.24 300.728,1384.24 302.944,1384.24 305.16,1384.24 307.376,1384.24 309.592,1384.24 311.808,1384.24 314.024,1384.24 316.24,1384.24 318.456,1384.24 320.672,1384.24 322.888,1384.24 325.104,1384.24 327.321,1384.24 329.537,1384.24 331.753,1384.24 333.969,1384.24 336.185,1384.24 338.401,1384.24 340.617,1384.24 342.833,1384.24 345.049,1384.24 347.265,1384.24 349.481,1384.24 351.697,1384.24 353.913,1384.24 356.129,1297.7 358.345,1297.7 360.561,1297.7 362.777,1297.7 364.993,1297.7 367.209,1297.7 369.425,1297.7 371.641,1297.7 373.857,1297.7 376.073,1297.7 378.289,1297.7 380.505,1297.7 382.721,1297.7 384.937,1297.7 387.153,1297.7 389.369,1297.7 391.585,1297.7 393.801,1297.7 396.017,1297.7 398.233,1297.7 400.449,1297.7 402.665,1297.7 404.881,1297.7 407.097,1297.7 409.313,1297.7 411.529,1297.7 413.745,1297.7 415.961,1297.7 418.177,1297.7 420.393,1297.7 422.609,1211.16 424.825,1211.16 427.041,1124.63 429.257,1124.63 431.473,1124.63 433.689,1124.63 435.905,1124.63 438.121,1124.63 440.337,1124.63 442.553,1124.63 444.769,1124.63 446.985,1038.09 449.201,1038.09 451.417,1038.09 453.633,1038.09 455.849,1038.09 458.065,1038.09 460.281,1038.09 462.497,1038.09 464.713,1038.09 466.929,1038.09 469.145,1038.09 471.361,1038.09 473.577,1038.09 475.793,1038.09 478.009,1038.09 480.225,1038.09 482.441,1038.09 484.657,1038.09 486.873,1038.09 489.089,1038.09 491.305,1038.09 493.521,1038.09 495.737,1038.09 497.953,1038.09 500.169,1038.09 502.385,1038.09 504.601,1038.09 506.818,1038.09 509.034,1038.09 511.25,1038.09 513.466,1038.09 515.682,1038.09 517.898,1038.09 520.114,1038.09 522.33,1038.09 524.546,1038.09 526.762,1038.09 528.978,1038.09 531.194,1038.09 533.41,1038.09 535.626,1038.09 537.842,1038.09 540.058,1038.09 542.274,1038.09 544.49,1038.09 546.706,1038.09 548.922,1038.09 551.138,1038.09 553.354,1038.09 555.57,1038.09 557.786,1038.09 560.002,1038.09 562.218,1038.09 564.434,1038.09 566.65,1038.09 568.866,1038.09 571.082,1038.09 573.298,1038.09 575.514,1038.09 577.73,1038.09 579.946,1038.09 582.162,1038.09 584.378,1038.09 586.594,1038.09 588.81,1038.09 591.026,1038.09 593.242,1038.09 595.458,1038.09 597.674,1038.09 599.89,1038.09 602.106,1038.09 604.322,1038.09 606.538,1038.09 608.754,1038.09 610.97,1038.09 613.186,1038.09 615.402,1038.09 617.618,1038.09 619.834,1038.09 622.05,1038.09 624.266,1038.09 626.482,1038.09 628.698,1038.09 630.914,1038.09 633.13,1038.09 635.346,1038.09 637.562,1038.09 639.778,1038.09 641.994,1038.09 644.21,1038.09 646.426,1038.09 648.642,1038.09 650.858,1038.09 653.074,1038.09 655.29,1038.09 657.506,1038.09 659.722,1038.09 661.938,1038.09 664.154,1038.09 666.37,1038.09 668.586,1038.09 670.802,1038.09 673.018,1038.09 675.234,1038.09 677.45,1038.09 679.666,1038.09 681.882,1038.09 684.099,1038.09 686.315,1038.09 688.531,951.554 690.747,951.554 692.963,951.554 695.179,951.554 697.395,951.554 699.611,951.554 701.827,951.554 704.043,951.554 706.259,951.554 708.475,951.554 710.691,951.554 712.907,951.554 715.123,951.554 717.339,951.554 719.555,951.554 721.771,951.554 723.987,951.554 726.203,951.554 728.419,951.554 730.635,951.554 732.851,951.554 735.067,951.554 737.283,951.554 739.499,951.554 741.715,951.554 743.931,951.554 746.147,951.554 748.363,951.554 750.579,951.554 752.795,951.554 755.011,951.554 757.227,951.554 759.443,951.554 761.659,951.554 763.875,951.554 766.091,951.554 768.307,951.554 770.523,951.554 772.739,951.554 774.955,951.554 777.171,951.554 779.387,951.554 781.603,951.554 783.819,951.554 786.035,951.554 788.251,951.554 790.467,951.554 792.683,951.554 794.899,951.554 797.115,951.554 799.331,951.554 801.547,951.554 803.763,951.554 805.979,951.554 808.195,951.554 810.411,951.554 812.627,951.554 814.843,951.554 817.059,951.554 819.275,951.554 821.491,951.554 823.707,951.554 825.923,951.554 828.139,951.554 830.355,951.554 832.571,951.554 834.787,865.017 837.003,865.017 839.219,865.017 841.435,865.017 843.651,865.017 845.867,865.017 848.083,865.017 850.299,865.017 852.515,865.017 854.731,865.017 856.947,865.017 859.163,865.017 861.38,865.017 863.596,865.017 865.812,865.017 868.028,865.017 870.244,865.017 872.46,865.017 874.676,865.017 876.892,865.017 879.108,865.017 881.324,865.017 883.54,865.017 885.756,865.017 887.972,865.017 890.188,865.017 892.404,865.017 894.62,865.017 896.836,865.017 899.052,865.017 901.268,865.017 903.484,865.017 905.7,865.017 907.916,865.017 910.132,865.017 912.348,865.017 914.564,865.017 916.78,865.017 918.996,865.017 921.212,865.017 923.428,865.017 925.644,865.017 927.86,865.017 930.076,865.017 932.292,865.017 934.508,865.017 936.724,865.017 938.94,865.017 941.156,865.017 943.372,865.017 945.588,865.017 947.804,865.017 950.02,865.017 952.236,865.017 954.452,865.017 956.668,865.017 958.884,865.017 961.1,865.017 963.316,865.017 965.532,865.017 967.748,865.017 969.964,865.017 972.18,865.017 974.396,865.017 976.612,865.017 978.828,865.017 981.044,865.017 983.26,865.017 985.476,865.017 987.692,865.017 989.908,865.017 992.124,865.017 994.34,865.017 996.556,865.017 998.772,865.017 1000.99,865.017 1003.2,865.017 1005.42,865.017 1007.64,865.017 1009.85,865.017 1012.07,865.017 1014.28,865.017 1016.5,865.017 1018.72,865.017 1020.93,865.017 1023.15,865.017 1025.36,865.017 1027.58,865.017 1029.8,865.017 1032.01,865.017 1034.23,865.017 1036.44,865.017 1038.66,865.017 1040.88,865.017 1043.09,865.017 1045.31,865.017 1047.52,865.017 1049.74,865.017 1051.96,865.017 1054.17,865.017 1056.39,865.017 1058.6,865.017 1060.82,865.017 1063.04,865.017 1065.25,865.017 1067.47,865.017 1069.68,865.017 1071.9,865.017 1074.12,865.017 1076.33,865.017 1078.55,865.017 1080.76,865.017 1082.98,865.017 1085.2,865.017 1087.41,865.017 1089.63,865.017 1091.84,865.017 1094.06,865.017 1096.28,778.48 1098.49,691.944 1100.71,691.944 1102.92,691.944 1105.14,691.944 1107.36,691.944 1109.57,691.944 1111.79,691.944 1114,691.944 1116.22,691.944 1118.44,691.944 1120.65,691.944 1122.87,691.944 1125.08,691.944 1127.3,691.944 1129.52,691.944 1131.73,691.944 1133.95,691.944 1136.17,691.944 1138.38,691.944 1140.6,691.944 1142.81,691.944 1145.03,691.944 1147.25,691.944 1149.46,691.944 1151.68,691.944 1153.89,691.944 1156.11,691.944 1158.33,605.407 1160.54,605.407 1162.76,605.407 1164.97,605.407 1167.19,605.407 1169.41,605.407 1171.62,605.407 1173.84,605.407 1176.05,605.407 1178.27,605.407 1180.49,605.407 1182.7,605.407 1184.92,605.407 1187.13,605.407 1189.35,605.407 1191.57,605.407 1193.78,605.407 1196,605.407 1198.21,605.407 1200.43,605.407 1202.65,605.407 1204.86,605.407 1207.08,605.407 1209.29,605.407 1211.51,605.407 1213.73,605.407 1215.94,605.407 1218.16,605.407 1220.37,605.407 1222.59,605.407 1224.81,605.407 1227.02,605.407 1229.24,605.407 1231.45,605.407 1233.67,605.407 1235.89,605.407 1238.1,605.407 1240.32,605.407 1242.53,605.407 1244.75,605.407 1246.97,605.407 1249.18,605.407 1251.4,605.407 1253.61,605.407 1255.83,605.407 1258.05,605.407 1260.26,605.407 1262.48,605.407 1264.69,605.407 1266.91,605.407 1269.13,605.407 1271.34,605.407 1273.56,605.407 1275.77,605.407 1277.99,605.407 1280.21,605.407 1282.42,605.407 1284.64,605.407 1286.85,605.407 1289.07,605.407 1291.29,605.407 1293.5,605.407 1295.72,605.407 1297.93,605.407 1300.15,605.407 1302.37,605.407 1304.58,605.407 1306.8,605.407 1309.01,605.407 1311.23,605.407 1313.45,605.407 1315.66,605.407 1317.88,605.407 1320.09,605.407 1322.31,605.407 1324.53,605.407 1326.74,605.407 1328.96,605.407 1331.17,605.407 1333.39,605.407 1335.61,605.407 1337.82,605.407 1340.04,605.407 1342.25,605.407 1344.47,605.407 1346.69,605.407 1348.9,605.407 1351.12,605.407 1353.33,605.407 1355.55,605.407 1357.77,605.407 1359.98,605.407 1362.2,605.407 1364.41,605.407 1366.63,605.407 1368.85,605.407 1371.06,605.407 1373.28,605.407 1375.49,605.407 1377.71,605.407 1379.93,605.407 1382.14,605.407 1384.36,605.407 1386.57,605.407 1388.79,605.407 1391.01,605.407 1393.22,605.407 1395.44,605.407 1397.65,605.407 1399.87,605.407 1402.09,605.407 1404.3,605.407 1406.52,605.407 1408.73,605.407 1410.95,605.407 1413.17,605.407 1415.38,605.407 1417.6,518.87 1419.81,518.87 1422.03,518.87 1424.25,518.87 1426.46,518.87 1428.68,518.87 1430.89,518.87 1433.11,518.87 1435.33,518.87 1437.54,518.87 1439.76,518.87 1441.97,518.87 1444.19,518.87 1446.41,518.87 1448.62,518.87 1450.84,518.87 1453.05,518.87 1455.27,518.87 1457.49,518.87 1459.7,432.333 1461.92,432.333 1464.13,432.333 1466.35,432.333 1468.57,432.333 1470.78,432.333 1473,432.333 1475.21,432.333 1477.43,432.333 1479.65,432.333 1481.86,432.333 1484.08,432.333 1486.3,432.333 1488.51,432.333 1490.73,432.333 1492.94,432.333 1495.16,432.333 1497.38,432.333 1499.59,432.333 1501.81,432.333 1504.02,432.333 1506.24,432.333 1508.46,432.333 1510.67,432.333 1512.89,432.333 1515.1,432.333 1517.32,432.333 1519.54,432.333 1521.75,432.333 1523.97,432.333 1526.18,432.333 1528.4,432.333 1530.62,432.333 1532.83,432.333 1535.05,432.333 1537.26,432.333 1539.48,432.333 1541.7,432.333 1543.91,432.333 1546.13,432.333 1548.34,432.333 1550.56,432.333 1552.78,432.333 1554.99,432.333 1557.21,432.333 1559.42,432.333 1561.64,432.333 1563.86,432.333 1566.07,432.333 1568.29,432.333 1570.5,432.333 1572.72,432.333 1574.94,432.333 1577.15,432.333 1579.37,432.333 1581.58,432.333 1583.8,432.333 1586.02,432.333 1588.23,432.333 1590.45,432.333 1592.66,432.333 1594.88,432.333 1597.1,432.333 1599.31,432.333 1601.53,432.333 1603.74,432.333 1605.96,432.333 1608.18,432.333 1610.39,432.333 1612.61,432.333 1614.82,432.333 1617.04,432.333 1619.26,432.333 1621.47,432.333 1623.69,432.333 1625.9,432.333 1628.12,432.333 1630.34,432.333 1632.55,432.333 1634.77,432.333 1636.98,432.333 1639.2,432.333 1641.42,345.796 1643.63,345.796 1645.85,345.796 1648.06,345.796 1650.28,345.796 1652.5,345.796 1654.71,345.796 1656.93,345.796 1659.14,345.796 1661.36,345.796 1663.58,345.796 1665.79,345.796 1668.01,345.796 1670.22,345.796 1672.44,345.796 1674.66,345.796 1676.87,345.796 1679.09,345.796 1681.3,345.796 1683.52,345.796 1685.74,345.796 1687.95,345.796 1690.17,345.796 1692.38,345.796 1694.6,345.796 1696.82,345.796 1699.03,345.796 1701.25,345.796 1703.46,345.796 1705.68,345.796 1707.9,345.796 1710.11,345.796 1712.33,345.796 1714.54,345.796 1716.76,345.796 1718.98,345.796 1721.19,345.796 1723.41,345.796 1725.62,345.796 1727.84,345.796 1730.06,345.796 1732.27,345.796 1734.49,345.796 1736.7,345.796 1738.92,345.796 1741.14,345.796 1743.35,345.796 1745.57,345.796 1747.78,345.796 1750,345.796 1752.22,345.796 1754.43,345.796 1756.65,345.796 1758.86,345.796 1761.08,345.796 1763.3,345.796 1765.51,345.796 1767.73,345.796 1769.94,345.796 1772.16,345.796 1774.38,345.796 1776.59,345.796 1778.81,345.796 1781.02,345.796 1783.24,345.796 1785.46,345.796 1787.67,345.796 1789.89,345.796 1792.1,345.796 1794.32,345.796 1796.54,345.796 1798.75,345.796 1800.97,345.796 1803.18,345.796 1805.4,345.796 1807.62,345.796 1809.83,345.796 1812.05,345.796 1814.26,345.796 1816.48,345.796 1818.7,345.796 1820.91,345.796 1823.13,345.796 1825.34,345.796 1827.56,345.796 1829.78,345.796 1831.99,345.796 1834.21,345.796 1836.42,345.796 1838.64,345.796 1840.86,345.796 1843.07,345.796 1845.29,345.796 1847.51,345.796 1849.72,345.796 1851.94,345.796 1854.15,345.796 1856.37,345.796 1858.59,345.796 1860.8,345.796 1863.02,345.796 1865.23,345.796 1867.45,345.796 1869.67,345.796 1871.88,345.796 1874.1,345.796 1876.31,345.796 1878.53,345.796 1880.75,345.796 1882.96,345.796 1885.18,345.796 1887.39,345.796 1889.61,345.796 1891.83,345.796 1894.04,345.796 1896.26,345.796 1898.47,345.796 1900.69,345.796 1902.91,345.796 1905.12,345.796 1907.34,345.796 1909.55,345.796 1911.77,345.796 1913.99,345.796 1916.2,345.796 1918.42,345.796 1920.63,345.796 1922.85,345.796 1925.07,345.796 1927.28,345.796 1929.5,345.796 1931.71,345.796 1933.93,345.796 1936.15,345.796 1938.36,345.796 1940.58,345.796 1942.79,345.796 1945.01,345.796 1947.23,345.796 1949.44,345.796 1951.66,345.796 1953.87,345.796 1956.09,345.796 1958.31,345.796 1960.52,345.796 1962.74,345.796 1964.95,345.796 1967.17,345.796 1969.39,345.796 1971.6,345.796 1973.82,345.796 1976.03,345.796 1978.25,345.796 1980.47,345.796 1982.68,345.796 1984.9,345.796 1987.11,345.796 1989.33,345.796 1991.55,345.796 1993.76,345.796 1995.98,345.796 1998.19,345.796 2000.41,345.796 2002.63,345.796 2004.84,345.796 2007.06,345.796 2009.27,345.796 2011.49,345.796 2013.71,345.796 2015.92,345.796 2018.14,345.796 2020.35,345.796 2022.57,345.796 2024.79,345.796 2027,345.796 2029.22,345.796 2031.43,345.796 2033.65,345.796 2035.87,345.796 2038.08,345.796 2040.3,345.796 2042.51,345.796 2044.73,345.796 2046.95,345.796 2049.16,345.796 2051.38,345.796 2053.59,345.796 2055.81,345.796 2058.03,345.796 2060.24,345.796 2062.46,345.796 2064.67,345.796 2066.89,345.796 2069.11,345.796 2071.32,345.796 2073.54,345.796 2075.75,345.796 2077.97,345.796 2080.19,345.796 2082.4,345.796 2084.62,345.796 2086.83,345.796 2089.05,345.796 2091.27,345.796 2093.48,345.796 2095.7,345.796 2097.91,345.796 2100.13,345.796 2102.35,345.796 2104.56,259.259 2106.78,259.259 2108.99,259.259 2111.21,259.259 2113.43,259.259 2115.64,259.259 2117.86,259.259 2120.07,259.259 2122.29,259.259 2124.51,259.259 2126.72,259.259 2128.94,259.259 2131.15,259.259 2133.37,259.259 2135.59,259.259 2137.8,259.259 2140.02,259.259 2142.23,259.259 2144.45,259.259 2146.67,172.723 2148.88,172.723 2151.1,172.723 2153.31,172.723 2155.53,172.723 2157.75,172.723 2159.96,172.723 2162.18,172.723 2164.39,172.723 2166.61,172.723 2168.83,172.723 2171.04,172.723 2173.26,172.723 2175.47,172.723 2177.69,172.723 2179.91,172.723 2182.12,172.723 2184.34,172.723 2186.55,172.723 2188.77,172.723 2190.99,172.723 2193.2,172.723 2195.42,172.723 2197.64,172.723 2199.85,172.723 2202.07,172.723 2204.28,172.723 2206.5,172.723 2208.72,172.723 2210.93,172.723 2213.15,86.1857 2215.36,86.1857 2217.58,86.1857 2219.8,86.1857 2222.01,86.1857 2224.23,86.1857 2226.44,86.1857 2228.66,86.1857 2230.88,86.1857 2233.09,86.1857 2235.31,86.1857 2237.52,86.1857 2239.74,86.1857 2241.96,86.1857 2244.17,86.1857 2246.39,86.1857 2248.6,86.1857 2250.82,86.1857 2253.04,86.1857 2255.25,86.1857 2257.47,86.1857 2259.68,86.1857 2261.9,86.1857 2264.12,86.1857 2266.33,86.1857 2268.55,86.1857 2270.76,86.1857 2272.98,86.1857 2275.2,86.1857 2277.41,86.1857 2279.63,86.1857 2281.84,86.1857 2284.06,86.1857 2286.28,86.1857 2288.49,86.1857 2290.71,86.1857 2292.92,86.1857 2295.14,86.1857 2297.36,86.1857 2299.57,86.1857 2301.79,86.1857 2304,86.1857 2306.22,86.1857 2308.44,86.1857 2310.65,86.1857 2312.87,86.1857 2315.08,86.1857 2317.3,86.1857 2319.52,86.1857 2321.73,86.1857 2323.95,86.1857 2326.16,86.1857 2328.38,86.1857 2330.6,86.1857 2332.81,86.1857 2335.03,86.1857 2337.24,86.1857 2339.46,86.1857 2341.68,86.1857 2343.89,86.1857 2346.11,86.1857 2348.32,86.1857 2350.54,86.1857 2352.76,86.1857 "/>
<path clip-path="url(#clip240)" d="M212.753 248.629 L517.488 248.629 L517.488 93.1086 L212.753 93.1086  Z" fill="#ffffff" fill-rule="evenodd" fill-opacity="1"/>
<polyline clip-path="url(#clip240)" style="stroke:#000000; stroke-linecap:round; stroke-linejoin:round; stroke-width:4; stroke-opacity:1; fill:none" points="212.753,248.629 517.488,248.629 517.488,93.1086 212.753,93.1086 212.753,248.629 "/>
<polyline clip-path="url(#clip240)" style="stroke:#009af9; stroke-linecap:round; stroke-linejoin:round; stroke-width:8; stroke-opacity:1; fill:none" points="237.35,144.949 384.937,144.949 "/>
<path clip-path="url(#clip240)" d="M409.535 127.669 L415.831 127.669 L431.155 156.581 L431.155 127.669 L435.692 127.669 L435.692 162.229 L429.396 162.229 L414.072 133.317 L414.072 162.229 L409.535 162.229 L409.535 127.669 Z" fill="#000000" fill-rule="nonzero" fill-opacity="1" /><path clip-path="url(#clip240)" d="M455.044 126.257 Q451.942 131.581 450.437 136.789 Q448.933 141.997 448.933 147.344 Q448.933 152.692 450.437 157.946 Q451.965 163.178 455.044 168.479 L451.34 168.479 Q447.868 163.039 446.132 157.784 Q444.419 152.53 444.419 147.344 Q444.419 142.182 446.132 136.951 Q447.845 131.72 451.34 126.257 L455.044 126.257 Z" fill="#000000" fill-rule="nonzero" fill-opacity="1" /><path clip-path="url(#clip240)" d="M467.52 128.942 L467.52 136.303 L476.293 136.303 L476.293 139.613 L467.52 139.613 L467.52 153.687 Q467.52 156.858 468.377 157.761 Q469.256 158.664 471.918 158.664 L476.293 158.664 L476.293 162.229 L471.918 162.229 Q466.988 162.229 465.113 160.4 Q463.238 158.548 463.238 153.687 L463.238 139.613 L460.113 139.613 L460.113 136.303 L463.238 136.303 L463.238 128.942 L467.52 128.942 Z" fill="#000000" fill-rule="nonzero" fill-opacity="1" /><path clip-path="url(#clip240)" d="M481.224 126.257 L484.928 126.257 Q488.4 131.72 490.113 136.951 Q491.849 142.182 491.849 147.344 Q491.849 152.53 490.113 157.784 Q488.4 163.039 484.928 168.479 L481.224 168.479 Q484.303 163.178 485.807 157.946 Q487.335 152.692 487.335 147.344 Q487.335 141.997 485.807 136.789 Q484.303 131.581 481.224 126.257 Z" fill="#000000" fill-rule="nonzero" fill-opacity="1" /><polyline clip-path="url(#clip240)" style="stroke:#e26f46; stroke-linecap:round; stroke-linejoin:round; stroke-width:8; stroke-opacity:1; fill:none" points="237.35,196.789 384.937,196.789 "/>
<path clip-path="url(#clip240)" d="M414.21 183.351 L414.21 210.226 L419.859 210.226 Q427.011 210.226 430.321 206.985 Q433.655 203.745 433.655 196.754 Q433.655 189.809 430.321 186.592 Q427.011 183.351 419.859 183.351 L414.21 183.351 M409.535 179.509 L419.141 179.509 Q429.187 179.509 433.886 183.698 Q438.585 187.865 438.585 196.754 Q438.585 205.689 433.863 209.879 Q429.141 214.069 419.141 214.069 L409.535 214.069 L409.535 179.509 Z" fill="#000000" fill-rule="nonzero" fill-opacity="1" /><path clip-path="url(#clip240)" d="M456.085 178.097 Q452.983 183.421 451.479 188.629 Q449.974 193.837 449.974 199.184 Q449.974 204.532 451.479 209.786 Q453.007 215.018 456.085 220.319 L452.382 220.319 Q448.909 214.879 447.173 209.624 Q445.46 204.37 445.46 199.184 Q445.46 194.022 447.173 188.791 Q448.886 183.56 452.382 178.097 L456.085 178.097 Z" fill="#000000" fill-rule="nonzero" fill-opacity="1" /><path clip-path="url(#clip240)" d="M468.562 180.782 L468.562 188.143 L477.335 188.143 L477.335 191.453 L468.562 191.453 L468.562 205.527 Q468.562 208.698 469.419 209.601 Q470.298 210.504 472.96 210.504 L477.335 210.504 L477.335 214.069 L472.96 214.069 Q468.03 214.069 466.155 212.24 Q464.28 210.388 464.28 205.527 L464.28 191.453 L461.155 191.453 L461.155 188.143 L464.28 188.143 L464.28 180.782 L468.562 180.782 Z" fill="#000000" fill-rule="nonzero" fill-opacity="1" /><path clip-path="url(#clip240)" d="M482.266 178.097 L485.969 178.097 Q489.442 183.56 491.154 188.791 Q492.891 194.022 492.891 199.184 Q492.891 204.37 491.154 209.624 Q489.442 214.879 485.969 220.319 L482.266 220.319 Q485.344 215.018 486.849 209.786 Q488.377 204.532 488.377 199.184 Q488.377 193.837 486.849 188.629 Q485.344 183.421 482.266 178.097 Z" fill="#000000" fill-rule="nonzero" fill-opacity="1" /></svg>
