<?xml version="1.0" encoding="utf-8"?>
<svg xmlns="http://www.w3.org/2000/svg" xmlns:xlink="http://www.w3.org/1999/xlink" width="600" height="400" viewBox="0 0 2400 1600">
<defs>
  <clipPath id="clip040">
    <rect x="0" y="0" width="2400" height="1600"/>
  </clipPath>
</defs>
<path clip-path="url(#clip040)" d="M0 1600 L2400 1600 L2400 0 L0 0  Z" fill="#ffffff" fill-rule="evenodd" fill-opacity="1"/>
<defs>
  <clipPath id="clip041">
    <rect x="140" y="47" width="2213" height="1377"/>
  </clipPath>
</defs>
<path clip-path="url(#clip040)" d="M140.696 1423.18 L2352.76 1423.18 L2352.76 47.2441 L140.696 47.2441  Z" fill="#ffffff" fill-rule="evenodd" fill-opacity="1"/>
<polyline clip-path="url(#clip041)" style="stroke:#000000; stroke-linecap:round; stroke-linejoin:round; stroke-width:2; stroke-opacity:0.1; fill:none" points="140.696,1423.18 140.696,47.2441 "/>
<polyline clip-path="url(#clip041)" style="stroke:#000000; stroke-linecap:round; stroke-linejoin:round; stroke-width:2; stroke-opacity:0.1; fill:none" points="583.108,1423.18 583.108,47.2441 "/>
<polyline clip-path="url(#clip041)" style="stroke:#000000; stroke-linecap:round; stroke-linejoin:round; stroke-width:2; stroke-opacity:0.1; fill:none" points="1025.52,1423.18 1025.52,47.2441 "/>
<polyline clip-path="url(#clip041)" style="stroke:#000000; stroke-linecap:round; stroke-linejoin:round; stroke-width:2; stroke-opacity:0.1; fill:none" points="1467.93,1423.18 1467.93,47.2441 "/>
<polyline clip-path="url(#clip041)" style="stroke:#000000; stroke-linecap:round; stroke-linejoin:round; stroke-width:2; stroke-opacity:0.1; fill:none" points="1910.34,1423.18 1910.34,47.2441 "/>
<polyline clip-path="url(#clip041)" style="stroke:#000000; stroke-linecap:round; stroke-linejoin:round; stroke-width:2; stroke-opacity:0.1; fill:none" points="2352.76,1423.18 2352.76,47.2441 "/>
<polyline clip-path="url(#clip041)" style="stroke:#000000; stroke-linecap:round; stroke-linejoin:round; stroke-width:2; stroke-opacity:0.1; fill:none" points="140.696,1384.24 2352.76,1384.24 "/>
<polyline clip-path="url(#clip041)" style="stroke:#000000; stroke-linecap:round; stroke-linejoin:round; stroke-width:2; stroke-opacity:0.1; fill:none" points="140.696,1059.73 2352.76,1059.73 "/>
<polyline clip-path="url(#clip041)" style="stroke:#000000; stroke-linecap:round; stroke-linejoin:round; stroke-width:2; stroke-opacity:0.1; fill:none" points="140.696,735.212 2352.76,735.212 "/>
<polyline clip-path="url(#clip041)" style="stroke:#000000; stroke-linecap:round; stroke-linejoin:round; stroke-width:2; stroke-opacity:0.1; fill:none" points="140.696,410.699 2352.76,410.699 "/>
<polyline clip-path="url(#clip041)" style="stroke:#000000; stroke-linecap:round; stroke-linejoin:round; stroke-width:2; stroke-opacity:0.1; fill:none" points="140.696,86.1857 2352.76,86.1857 "/>
<polyline clip-path="url(#clip040)" style="stroke:#000000; stroke-linecap:round; stroke-linejoin:round; stroke-width:4; stroke-opacity:1; fill:none" points="140.696,1423.18 2352.76,1423.18 "/>
<polyline clip-path="url(#clip040)" style="stroke:#000000; stroke-linecap:round; stroke-linejoin:round; stroke-width:4; stroke-opacity:1; fill:none" points="140.696,1423.18 140.696,1404.28 "/>
<polyline clip-path="url(#clip040)" style="stroke:#000000; stroke-linecap:round; stroke-linejoin:round; stroke-width:4; stroke-opacity:1; fill:none" points="583.108,1423.18 583.108,1404.28 "/>
<polyline clip-path="url(#clip040)" style="stroke:#000000; stroke-linecap:round; stroke-linejoin:round; stroke-width:4; stroke-opacity:1; fill:none" points="1025.52,1423.18 1025.52,1404.28 "/>
<polyline clip-path="url(#clip040)" style="stroke:#000000; stroke-linecap:round; stroke-linejoin:round; stroke-width:4; stroke-opacity:1; fill:none" points="1467.93,1423.18 1467.93,1404.28 "/>
<polyline clip-path="url(#clip040)" style="stroke:#000000; stroke-linecap:round; stroke-linejoin:round; stroke-width:4; stroke-opacity:1; fill:none" points="1910.34,1423.18 1910.34,1404.28 "/>
<polyline clip-path="url(#clip040)" style="stroke:#000000; stroke-linecap:round; stroke-linejoin:round; stroke-width:4; stroke-opacity:1; fill:none" points="2352.76,1423.18 2352.76,1404.28 "/>
<path clip-path="url(#clip040)" d="M140.696 1454.1 Q137.084 1454.1 135.256 1457.66 Q133.45 1461.2 133.45 1468.33 Q133.45 1475.44 135.256 1479.01 Q137.084 1482.55 140.696 1482.55 Q144.33 1482.55 146.135 1479.01 Q147.964 1475.44 147.964 1468.33 Q147.964 1461.2 146.135 1457.66 Q144.33 1454.1 140.696 1454.1 M140.696 1450.39 Q146.506 1450.39 149.561 1455 Q152.64 1459.58 152.64 1468.33 Q152.64 1477.06 149.561 1481.67 Q146.506 1486.25 140.696 1486.25 Q134.885 1486.25 131.807 1481.67 Q128.751 1477.06 128.751 1468.33 Q128.751 1459.58 131.807 1455 Q134.885 1450.39 140.696 1450.39 Z" fill="#000000" fill-rule="nonzero" fill-opacity="1" /><path clip-path="url(#clip040)" d="M577.76 1481.64 L594.08 1481.64 L594.08 1485.58 L572.135 1485.58 L572.135 1481.64 Q574.797 1478.89 579.381 1474.26 Q583.987 1469.61 585.168 1468.27 Q587.413 1465.74 588.293 1464.01 Q589.196 1462.25 589.196 1460.56 Q589.196 1457.8 587.251 1456.07 Q585.33 1454.33 582.228 1454.33 Q580.029 1454.33 577.575 1455.09 Q575.145 1455.86 572.367 1457.41 L572.367 1452.69 Q575.191 1451.55 577.645 1450.97 Q580.098 1450.39 582.135 1450.39 Q587.506 1450.39 590.7 1453.08 Q593.895 1455.77 593.895 1460.26 Q593.895 1462.39 593.084 1464.31 Q592.297 1466.2 590.191 1468.8 Q589.612 1469.47 586.51 1472.69 Q583.409 1475.88 577.76 1481.64 Z" fill="#000000" fill-rule="nonzero" fill-opacity="1" /><path clip-path="url(#clip040)" d="M1028.53 1455.09 L1016.72 1473.54 L1028.53 1473.54 L1028.53 1455.09 M1027.3 1451.02 L1033.18 1451.02 L1033.18 1473.54 L1038.11 1473.54 L1038.11 1477.43 L1033.18 1477.43 L1033.18 1485.58 L1028.53 1485.58 L1028.53 1477.43 L1012.93 1477.43 L1012.93 1472.92 L1027.3 1451.02 Z" fill="#000000" fill-rule="nonzero" fill-opacity="1" /><path clip-path="url(#clip040)" d="M1468.34 1466.44 Q1465.19 1466.44 1463.34 1468.59 Q1461.51 1470.74 1461.51 1474.49 Q1461.51 1478.22 1463.34 1480.39 Q1465.19 1482.55 1468.34 1482.55 Q1471.48 1482.55 1473.31 1480.39 Q1475.17 1478.22 1475.17 1474.49 Q1475.17 1470.74 1473.31 1468.59 Q1471.48 1466.44 1468.34 1466.44 M1477.62 1451.78 L1477.62 1456.04 Q1475.86 1455.21 1474.05 1454.77 Q1472.27 1454.33 1470.51 1454.33 Q1465.88 1454.33 1463.43 1457.45 Q1461 1460.58 1460.65 1466.9 Q1462.02 1464.89 1464.08 1463.82 Q1466.14 1462.73 1468.61 1462.73 Q1473.82 1462.73 1476.83 1465.9 Q1479.86 1469.05 1479.86 1474.49 Q1479.86 1479.82 1476.72 1483.03 Q1473.57 1486.25 1468.34 1486.25 Q1462.34 1486.25 1459.17 1481.67 Q1456 1477.06 1456 1468.33 Q1456 1460.14 1459.89 1455.28 Q1463.78 1450.39 1470.33 1450.39 Q1472.09 1450.39 1473.87 1450.74 Q1475.67 1451.09 1477.62 1451.78 Z" fill="#000000" fill-rule="nonzero" fill-opacity="1" /><path clip-path="url(#clip040)" d="M1910.34 1469.17 Q1907.01 1469.17 1905.09 1470.95 Q1903.19 1472.73 1903.19 1475.86 Q1903.19 1478.98 1905.09 1480.77 Q1907.01 1482.55 1910.34 1482.55 Q1913.68 1482.55 1915.6 1480.77 Q1917.52 1478.96 1917.52 1475.86 Q1917.52 1472.73 1915.6 1470.95 Q1913.7 1469.17 1910.34 1469.17 M1905.67 1467.18 Q1902.66 1466.44 1900.97 1464.38 Q1899.3 1462.32 1899.3 1459.35 Q1899.3 1455.21 1902.24 1452.8 Q1905.2 1450.39 1910.34 1450.39 Q1915.51 1450.39 1918.45 1452.8 Q1921.39 1455.21 1921.39 1459.35 Q1921.39 1462.32 1919.7 1464.38 Q1918.03 1466.44 1915.04 1467.18 Q1918.42 1467.96 1920.3 1470.26 Q1922.2 1472.55 1922.2 1475.86 Q1922.2 1480.88 1919.12 1483.57 Q1916.06 1486.25 1910.34 1486.25 Q1904.63 1486.25 1901.55 1483.57 Q1898.49 1480.88 1898.49 1475.86 Q1898.49 1472.55 1900.39 1470.26 Q1902.29 1467.96 1905.67 1467.18 M1903.95 1459.79 Q1903.95 1462.48 1905.62 1463.98 Q1907.31 1465.49 1910.34 1465.49 Q1913.35 1465.49 1915.04 1463.98 Q1916.76 1462.48 1916.76 1459.79 Q1916.76 1457.11 1915.04 1455.6 Q1913.35 1454.1 1910.34 1454.1 Q1907.31 1454.1 1905.62 1455.6 Q1903.95 1457.11 1903.95 1459.79 Z" fill="#000000" fill-rule="nonzero" fill-opacity="1" /><path clip-path="url(#clip040)" d="M2327.44 1481.64 L2335.08 1481.64 L2335.08 1455.28 L2326.77 1456.95 L2326.77 1452.69 L2335.04 1451.02 L2339.71 1451.02 L2339.71 1481.64 L2347.35 1481.64 L2347.35 1485.58 L2327.44 1485.58 L2327.44 1481.64 Z" fill="#000000" fill-rule="nonzero" fill-opacity="1" /><path clip-path="url(#clip040)" d="M2366.8 1454.1 Q2363.18 1454.1 2361.36 1457.66 Q2359.55 1461.2 2359.55 1468.33 Q2359.55 1475.44 2361.36 1479.01 Q2363.18 1482.55 2366.8 1482.55 Q2370.43 1482.55 2372.23 1479.01 Q2374.06 1475.44 2374.06 1468.33 Q2374.06 1461.2 2372.23 1457.66 Q2370.43 1454.1 2366.8 1454.1 M2366.8 1450.39 Q2372.61 1450.39 2375.66 1455 Q2378.74 1459.58 2378.74 1468.33 Q2378.74 1477.06 2375.66 1481.67 Q2372.61 1486.25 2366.8 1486.25 Q2360.99 1486.25 2357.91 1481.67 Q2354.85 1477.06 2354.85 1468.33 Q2354.85 1459.58 2357.91 1455 Q2360.99 1450.39 2366.8 1450.39 Z" fill="#000000" fill-rule="nonzero" fill-opacity="1" /><path clip-path="url(#clip040)" d="M1245.79 1522.27 L1245.79 1532.4 L1257.85 1532.4 L1257.85 1536.95 L1245.79 1536.95 L1245.79 1556.3 Q1245.79 1560.66 1246.96 1561.9 Q1248.17 1563.14 1251.83 1563.14 L1257.85 1563.14 L1257.85 1568.04 L1251.83 1568.04 Q1245.05 1568.04 1242.48 1565.53 Q1239.9 1562.98 1239.9 1556.3 L1239.9 1536.95 L1235.6 1536.95 L1235.6 1532.4 L1239.9 1532.4 L1239.9 1522.27 L1245.79 1522.27 Z" fill="#000000" fill-rule="nonzero" fill-opacity="1" /><polyline clip-path="url(#clip040)" style="stroke:#000000; stroke-linecap:round; stroke-linejoin:round; stroke-width:4; stroke-opacity:1; fill:none" points="140.696,1423.18 140.696,47.2441 "/>
<polyline clip-path="url(#clip040)" style="stroke:#000000; stroke-linecap:round; stroke-linejoin:round; stroke-width:4; stroke-opacity:1; fill:none" points="140.696,1384.24 159.593,1384.24 "/>
<polyline clip-path="url(#clip040)" style="stroke:#000000; stroke-linecap:round; stroke-linejoin:round; stroke-width:4; stroke-opacity:1; fill:none" points="140.696,1059.73 159.593,1059.73 "/>
<polyline clip-path="url(#clip040)" style="stroke:#000000; stroke-linecap:round; stroke-linejoin:round; stroke-width:4; stroke-opacity:1; fill:none" points="140.696,735.212 159.593,735.212 "/>
<polyline clip-path="url(#clip040)" style="stroke:#000000; stroke-linecap:round; stroke-linejoin:round; stroke-width:4; stroke-opacity:1; fill:none" points="140.696,410.699 159.593,410.699 "/>
<polyline clip-path="url(#clip040)" style="stroke:#000000; stroke-linecap:round; stroke-linejoin:round; stroke-width:4; stroke-opacity:1; fill:none" points="140.696,86.1857 159.593,86.1857 "/>
<path clip-path="url(#clip040)" d="M92.7512 1370.04 Q89.1401 1370.04 87.3114 1373.6 Q85.5058 1377.14 85.5058 1384.27 Q85.5058 1391.38 87.3114 1394.94 Q89.1401 1398.49 92.7512 1398.49 Q96.3854 1398.49 98.1909 1394.94 Q100.02 1391.38 100.02 1384.27 Q100.02 1377.14 98.1909 1373.6 Q96.3854 1370.04 92.7512 1370.04 M92.7512 1366.33 Q98.5613 1366.33 101.617 1370.94 Q104.696 1375.52 104.696 1384.27 Q104.696 1393 101.617 1397.61 Q98.5613 1402.19 92.7512 1402.19 Q86.941 1402.19 83.8623 1397.61 Q80.8068 1393 80.8068 1384.27 Q80.8068 1375.52 83.8623 1370.94 Q86.941 1366.33 92.7512 1366.33 Z" fill="#000000" fill-rule="nonzero" fill-opacity="1" /><path clip-path="url(#clip040)" d="M83.7929 1042.45 L102.149 1042.45 L102.149 1046.38 L88.0753 1046.38 L88.0753 1054.85 Q89.0938 1054.51 90.1123 1054.34 Q91.1308 1054.16 92.1493 1054.16 Q97.9363 1054.16 101.316 1057.33 Q104.696 1060.5 104.696 1065.92 Q104.696 1071.5 101.223 1074.6 Q97.7511 1077.68 91.4317 1077.68 Q89.2558 1077.68 86.9873 1077.31 Q84.7419 1076.94 82.3346 1076.19 L82.3346 1071.5 Q84.4179 1072.63 86.6401 1073.19 Q88.8623 1073.74 91.3391 1073.74 Q95.3437 1073.74 97.6817 1071.63 Q100.02 1069.53 100.02 1065.92 Q100.02 1062.31 97.6817 1060.2 Q95.3437 1058.09 91.3391 1058.09 Q89.4641 1058.09 87.5892 1058.51 Q85.7373 1058.93 83.7929 1059.81 L83.7929 1042.45 Z" fill="#000000" fill-rule="nonzero" fill-opacity="1" /><path clip-path="url(#clip040)" d="M53.3995 748.557 L61.0384 748.557 L61.0384 722.191 L52.7282 723.858 L52.7282 719.599 L60.9921 717.932 L65.668 717.932 L65.668 748.557 L73.3068 748.557 L73.3068 752.492 L53.3995 752.492 L53.3995 748.557 Z" fill="#000000" fill-rule="nonzero" fill-opacity="1" /><path clip-path="url(#clip040)" d="M92.7512 721.011 Q89.1401 721.011 87.3114 724.575 Q85.5058 728.117 85.5058 735.247 Q85.5058 742.353 87.3114 745.918 Q89.1401 749.46 92.7512 749.46 Q96.3854 749.46 98.1909 745.918 Q100.02 742.353 100.02 735.247 Q100.02 728.117 98.1909 724.575 Q96.3854 721.011 92.7512 721.011 M92.7512 717.307 Q98.5613 717.307 101.617 721.913 Q104.696 726.497 104.696 735.247 Q104.696 743.973 101.617 748.58 Q98.5613 753.163 92.7512 753.163 Q86.941 753.163 83.8623 748.58 Q80.8068 743.973 80.8068 735.247 Q80.8068 726.497 83.8623 721.913 Q86.941 717.307 92.7512 717.307 Z" fill="#000000" fill-rule="nonzero" fill-opacity="1" /><path clip-path="url(#clip040)" d="M54.3949 424.044 L62.0337 424.044 L62.0337 397.678 L53.7236 399.345 L53.7236 395.085 L61.9874 393.419 L66.6633 393.419 L66.6633 424.044 L74.3022 424.044 L74.3022 427.979 L54.3949 427.979 L54.3949 424.044 Z" fill="#000000" fill-rule="nonzero" fill-opacity="1" /><path clip-path="url(#clip040)" d="M83.7929 393.419 L102.149 393.419 L102.149 397.354 L88.0753 397.354 L88.0753 405.826 Q89.0938 405.479 90.1123 405.317 Q91.1308 405.132 92.1493 405.132 Q97.9363 405.132 101.316 408.303 Q104.696 411.474 104.696 416.891 Q104.696 422.47 101.223 425.571 Q97.7511 428.65 91.4317 428.65 Q89.2558 428.65 86.9873 428.28 Q84.7419 427.909 82.3346 427.169 L82.3346 422.47 Q84.4179 423.604 86.6401 424.159 Q88.8623 424.715 91.3391 424.715 Q95.3437 424.715 97.6817 422.608 Q100.02 420.502 100.02 416.891 Q100.02 413.28 97.6817 411.173 Q95.3437 409.067 91.3391 409.067 Q89.4641 409.067 87.5892 409.484 Q85.7373 409.9 83.7929 410.78 L83.7929 393.419 Z" fill="#000000" fill-rule="nonzero" fill-opacity="1" /><path clip-path="url(#clip040)" d="M56.6171 99.5305 L72.9365 99.5305 L72.9365 103.466 L50.9921 103.466 L50.9921 99.5305 Q53.6541 96.7759 58.2375 92.1463 Q62.8439 87.4935 64.0245 86.151 Q66.2698 83.6278 67.1494 81.8917 Q68.0522 80.1325 68.0522 78.4427 Q68.0522 75.688 66.1078 73.9519 Q64.1865 72.2158 61.0847 72.2158 Q58.8856 72.2158 56.4319 72.9797 Q54.0014 73.7436 51.2236 75.2945 L51.2236 70.5723 Q54.0477 69.4381 56.5014 68.8594 Q58.955 68.2807 60.9921 68.2807 Q66.3624 68.2807 69.5568 70.9658 Q72.7513 73.651 72.7513 78.1417 Q72.7513 80.2714 71.9411 82.1926 Q71.1541 84.0908 69.0476 86.6834 Q68.4689 87.3546 65.367 90.5722 Q62.2652 93.7667 56.6171 99.5305 Z" fill="#000000" fill-rule="nonzero" fill-opacity="1" /><path clip-path="url(#clip040)" d="M92.7512 71.9844 Q89.1401 71.9844 87.3114 75.5492 Q85.5058 79.0908 85.5058 86.2204 Q85.5058 93.3268 87.3114 96.8916 Q89.1401 100.433 92.7512 100.433 Q96.3854 100.433 98.1909 96.8916 Q100.02 93.3268 100.02 86.2204 Q100.02 79.0908 98.1909 75.5492 Q96.3854 71.9844 92.7512 71.9844 M92.7512 68.2807 Q98.5613 68.2807 101.617 72.8871 Q104.696 77.4704 104.696 86.2204 Q104.696 94.9472 101.617 99.5537 Q98.5613 104.137 92.7512 104.137 Q86.941 104.137 83.8623 99.5537 Q80.8068 94.9472 80.8068 86.2204 Q80.8068 77.4704 83.8623 72.8871 Q86.941 68.2807 92.7512 68.2807 Z" fill="#000000" fill-rule="nonzero" fill-opacity="1" /><polyline clip-path="url(#clip041)" style="stroke:#009af9; stroke-linecap:round; stroke-linejoin:round; stroke-width:8; stroke-opacity:1; fill:none" points="140.696,1384.24 141.701,1384.24 142.707,1384.24 143.713,1384.24 144.719,1384.24 145.725,1384.24 146.731,1384.24 147.737,1384.24 148.743,1384.24 149.749,1384.24 150.755,1384.24 151.761,1384.24 152.767,1384.24 153.773,1384.24 154.779,1384.24 155.785,1384.24 156.791,1384.24 157.797,1384.24 158.802,1384.24 159.808,1384.24 160.814,1384.24 161.82,1384.24 162.826,1384.24 163.832,1384.24 164.838,1384.24 165.844,1384.24 166.85,1384.24 167.856,1384.24 168.862,1384.24 169.868,1384.24 170.874,1384.24 171.88,1384.24 172.886,1384.24 173.892,1384.24 174.897,1384.24 175.903,1384.24 176.909,1384.24 177.915,1384.24 178.921,1384.24 179.927,1384.24 180.933,1384.24 181.939,1384.24 182.945,1384.24 183.951,1384.24 184.957,1384.24 185.963,1384.24 186.969,1384.24 187.975,1384.24 188.981,1384.24 189.987,1384.24 190.993,1384.24 191.998,1384.24 193.004,1384.24 194.01,1384.24 195.016,1384.24 196.022,1384.24 197.028,1384.24 198.034,1384.24 199.04,1384.24 200.046,1384.24 201.052,1384.24 202.058,1384.24 203.064,1384.24 204.07,1384.24 205.076,1384.24 206.082,1384.24 207.088,1384.24 208.093,1384.24 209.099,1384.24 210.105,1384.24 211.111,1384.24 212.117,1384.24 213.123,1384.24 214.129,1384.24 215.135,1384.24 216.141,1384.24 217.147,1384.24 218.153,1384.24 219.159,1384.24 220.165,1384.24 221.171,1384.24 222.177,1384.24 223.183,1384.24 224.188,1384.24 225.194,1384.24 226.2,1384.24 227.206,1384.24 228.212,1384.24 229.218,1384.24 230.224,1384.24 231.23,1384.24 232.236,1384.24 233.242,1384.24 234.248,1384.24 235.254,1384.24 236.26,1384.24 237.266,1384.24 238.272,1384.24 239.278,1384.24 240.284,1384.24 241.289,1384.24 242.295,1384.24 243.301,1384.24 244.307,1384.24 245.313,1384.24 246.319,1384.24 247.325,1384.24 248.331,1384.24 249.337,1384.24 250.343,1384.24 251.349,1384.24 252.355,1384.24 253.361,1384.24 254.367,1384.24 255.373,1384.24 256.379,1384.24 257.384,1384.24 258.39,1384.24 259.396,1384.24 260.402,1384.24 261.408,1384.24 262.414,1384.24 263.42,1384.24 264.426,1384.24 265.432,1384.24 266.438,1384.24 267.444,1319.34 268.45,1319.34 269.456,1319.34 270.462,1319.34 271.468,1319.34 272.474,1319.34 273.48,1319.34 274.485,1319.34 275.491,1319.34 276.497,1319.34 277.503,1319.34 278.509,1319.34 279.515,1319.34 280.521,1319.34 281.527,1319.34 282.533,1319.34 283.539,1319.34 284.545,1319.34 285.551,1319.34 286.557,1319.34 287.563,1319.34 288.569,1254.43 289.575,1254.43 290.58,1254.43 291.586,1254.43 292.592,1254.43 293.598,1254.43 294.604,1254.43 295.61,1254.43 296.616,1254.43 297.622,1254.43 298.628,1254.43 299.634,1254.43 300.64,1254.43 301.646,1254.43 302.652,1254.43 303.658,1254.43 304.664,1254.43 305.67,1254.43 306.676,1254.43 307.681,1254.43 308.687,1254.43 309.693,1254.43 310.699,1254.43 311.705,1254.43 312.711,1254.43 313.717,1254.43 314.723,1254.43 315.729,1254.43 316.735,1254.43 317.741,1254.43 318.747,1254.43 319.753,1254.43 320.759,1254.43 321.765,1254.43 322.771,1254.43 323.776,1254.43 324.782,1254.43 325.788,1254.43 326.794,1254.43 327.8,1254.43 328.806,1254.43 329.812,1254.43 330.818,1254.43 331.824,1254.43 332.83,1254.43 333.836,1254.43 334.842,1254.43 335.848,1254.43 336.854,1254.43 337.86,1254.43 338.866,1254.43 339.872,1254.43 340.877,1254.43 341.883,1254.43 342.889,1254.43 343.895,1254.43 344.901,1254.43 345.907,1254.43 346.913,1254.43 347.919,1254.43 348.925,1254.43 349.931,1254.43 350.937,1254.43 351.943,1254.43 352.949,1254.43 353.955,1254.43 354.961,1254.43 355.967,1254.43 356.972,1254.43 357.978,1254.43 358.984,1254.43 359.99,1254.43 360.996,1254.43 362.002,1254.43 363.008,1254.43 364.014,1254.43 365.02,1254.43 366.026,1254.43 367.032,1254.43 368.038,1254.43 369.044,1254.43 370.05,1254.43 371.056,1254.43 372.062,1254.43 373.068,1254.43 374.073,1254.43 375.079,1254.43 376.085,1254.43 377.091,1254.43 378.097,1254.43 379.103,1254.43 380.109,1254.43 381.115,1254.43 382.121,1254.43 383.127,1254.43 384.133,1254.43 385.139,1254.43 386.145,1254.43 387.151,1254.43 388.157,1254.43 389.163,1254.43 390.168,1254.43 391.174,1254.43 392.18,1254.43 393.186,1254.43 394.192,1254.43 395.198,1254.43 396.204,1254.43 397.21,1254.43 398.216,1254.43 399.222,1254.43 400.228,1254.43 401.234,1254.43 402.24,1254.43 403.246,1254.43 404.252,1254.43 405.258,1254.43 406.263,1254.43 407.269,1254.43 408.275,1254.43 409.281,1254.43 410.287,1254.43 411.293,1254.43 412.299,1254.43 413.305,1254.43 414.311,1254.43 415.317,1254.43 416.323,1254.43 417.329,1254.43 418.335,1254.43 419.341,1254.43 420.347,1254.43 421.353,1254.43 422.359,1254.43 423.364,1254.43 424.37,1254.43 425.376,1254.43 426.382,1254.43 427.388,1254.43 428.394,1254.43 429.4,1254.43 430.406,1254.43 431.412,1254.43 432.418,1254.43 433.424,1254.43 434.43,1254.43 435.436,1254.43 436.442,1254.43 437.448,1254.43 438.454,1254.43 439.459,1254.43 440.465,1189.53 441.471,1189.53 442.477,1189.53 443.483,1189.53 444.489,1189.53 445.495,1124.63 446.501,1124.63 447.507,1124.63 448.513,1124.63 449.519,1124.63 450.525,1124.63 451.531,1124.63 452.537,1124.63 453.543,1124.63 454.549,1124.63 455.555,1124.63 456.56,1124.63 457.566,1124.63 458.572,1124.63 459.578,1124.63 460.584,1124.63 461.59,1124.63 462.596,1124.63 463.602,1124.63 464.608,1124.63 465.614,1124.63 466.62,1124.63 467.626,1124.63 468.632,1124.63 469.638,1124.63 470.644,1124.63 471.65,1124.63 472.655,1124.63 473.661,1124.63 474.667,1124.63 475.673,1124.63 476.679,1124.63 477.685,1124.63 478.691,1124.63 479.697,1124.63 480.703,1124.63 481.709,1124.63 482.715,1124.63 483.721,1124.63 484.727,1124.63 485.733,1124.63 486.739,1124.63 487.745,1124.63 488.751,1124.63 489.756,1059.73 490.762,1059.73 491.768,1059.73 492.774,1059.73 493.78,1059.73 494.786,1059.73 495.792,1059.73 496.798,1059.73 497.804,1059.73 498.81,1059.73 499.816,1059.73 500.822,1059.73 501.828,1059.73 502.834,1059.73 503.84,1059.73 504.846,1059.73 505.851,1059.73 506.857,1059.73 507.863,1059.73 508.869,1059.73 509.875,1059.73 510.881,1059.73 511.887,1059.73 512.893,1059.73 513.899,1059.73 514.905,1059.73 515.911,1059.73 516.917,1059.73 517.923,1059.73 518.929,1059.73 519.935,1059.73 520.941,1059.73 521.947,1059.73 522.952,1059.73 523.958,1059.73 524.964,1059.73 525.97,1059.73 526.976,1059.73 527.982,1059.73 528.988,1059.73 529.994,1059.73 531,1059.73 532.006,1059.73 533.012,1059.73 534.018,1059.73 535.024,1059.73 536.03,1059.73 537.036,1059.73 538.042,1059.73 539.047,1059.73 540.053,1059.73 541.059,1059.73 542.065,1059.73 543.071,1059.73 544.077,1059.73 545.083,1059.73 546.089,1059.73 547.095,1059.73 548.101,1059.73 549.107,994.822 550.113,994.822 551.119,994.822 552.125,994.822 553.131,994.822 554.137,994.822 555.143,994.822 556.148,994.822 557.154,994.822 558.16,994.822 559.166,994.822 560.172,994.822 561.178,994.822 562.184,994.822 563.19,994.822 564.196,994.822 565.202,994.822 566.208,994.822 567.214,994.822 568.22,994.822 569.226,994.822 570.232,994.822 571.238,994.822 572.243,994.822 573.249,994.822 574.255,994.822 575.261,994.822 576.267,994.822 577.273,994.822 578.279,994.822 579.285,994.822 580.291,994.822 581.297,994.822 582.303,994.822 583.309,994.822 584.315,994.822 585.321,994.822 586.327,994.822 587.333,994.822 588.338,994.822 589.344,994.822 590.35,994.822 591.356,994.822 592.362,994.822 593.368,994.822 594.374,994.822 595.38,994.822 596.386,994.822 597.392,994.822 598.398,994.822 599.404,994.822 600.41,994.822 601.416,994.822 602.422,994.822 603.428,994.822 604.434,994.822 605.439,994.822 606.445,994.822 607.451,994.822 608.457,994.822 609.463,994.822 610.469,994.822 611.475,994.822 612.481,994.822 613.487,994.822 614.493,994.822 615.499,994.822 616.505,994.822 617.511,994.822 618.517,994.822 619.523,994.822 620.529,994.822 621.534,994.822 622.54,994.822 623.546,994.822 624.552,994.822 625.558,994.822 626.564,994.822 627.57,994.822 628.576,994.822 629.582,994.822 630.588,994.822 631.594,994.822 632.6,994.822 633.606,994.822 634.612,994.822 635.618,994.822 636.624,994.822 637.63,994.822 638.635,994.822 639.641,994.822 640.647,994.822 641.653,994.822 642.659,994.822 643.665,994.822 644.671,994.822 645.677,994.822 646.683,994.822 647.689,994.822 648.695,994.822 649.701,994.822 650.707,994.822 651.713,994.822 652.719,994.822 653.725,994.822 654.73,994.822 655.736,994.822 656.742,994.822 657.748,994.822 658.754,994.822 659.76,994.822 660.766,994.822 661.772,994.822 662.778,994.822 663.784,994.822 664.79,994.822 665.796,994.822 666.802,994.822 667.808,994.822 668.814,994.822 669.82,994.822 670.826,994.822 671.831,994.822 672.837,994.822 673.843,994.822 674.849,994.822 675.855,994.822 676.861,994.822 677.867,994.822 678.873,994.822 679.879,994.822 680.885,994.822 681.891,994.822 682.897,994.822 683.903,994.822 684.909,994.822 685.915,994.822 686.921,994.822 687.926,994.822 688.932,994.822 689.938,994.822 690.944,994.822 691.95,994.822 692.956,994.822 693.962,994.822 694.968,994.822 695.974,994.822 696.98,994.822 697.986,994.822 698.992,994.822 699.998,994.822 701.004,994.822 702.01,994.822 703.016,994.822 704.022,994.822 705.027,994.822 706.033,994.822 707.039,994.822 708.045,994.822 709.051,994.822 710.057,994.822 711.063,994.822 712.069,994.822 713.075,994.822 714.081,994.822 715.087,994.822 716.093,994.822 717.099,994.822 718.105,994.822 719.111,994.822 720.117,994.822 721.122,994.822 722.128,994.822 723.134,994.822 724.14,994.822 725.146,994.822 726.152,929.92 727.158,929.92 728.164,929.92 729.17,929.92 730.176,929.92 731.182,929.92 732.188,929.92 733.194,929.92 734.2,929.92 735.206,929.92 736.212,929.92 737.218,929.92 738.223,929.92 739.229,929.92 740.235,929.92 741.241,929.92 742.247,929.92 743.253,929.92 744.259,929.92 745.265,929.92 746.271,929.92 747.277,929.92 748.283,929.92 749.289,929.92 750.295,929.92 751.301,929.92 752.307,929.92 753.313,929.92 754.318,929.92 755.324,929.92 756.33,929.92 757.336,929.92 758.342,929.92 759.348,929.92 760.354,929.92 761.36,929.92 762.366,929.92 763.372,929.92 764.378,929.92 765.384,929.92 766.39,929.92 767.396,929.92 768.402,929.92 769.408,929.92 770.413,929.92 771.419,929.92 772.425,929.92 773.431,929.92 774.437,929.92 775.443,929.92 776.449,929.92 777.455,929.92 778.461,929.92 779.467,929.92 780.473,929.92 781.479,929.92 782.485,929.92 783.491,929.92 784.497,929.92 785.503,929.92 786.509,929.92 787.514,929.92 788.52,929.92 789.526,929.92 790.532,929.92 791.538,929.92 792.544,929.92 793.55,929.92 794.556,929.92 795.562,929.92 796.568,929.92 797.574,929.92 798.58,929.92 799.586,929.92 800.592,929.92 801.598,929.92 802.604,929.92 803.609,929.92 804.615,929.92 805.621,929.92 806.627,929.92 807.633,929.92 808.639,929.92 809.645,929.92 810.651,929.92 811.657,929.92 812.663,929.92 813.669,929.92 814.675,929.92 815.681,929.92 816.687,929.92 817.693,929.92 818.699,929.92 819.705,929.92 820.71,929.92 821.716,929.92 822.722,929.92 823.728,929.92 824.734,929.92 825.74,929.92 826.746,929.92 827.752,929.92 828.758,929.92 829.764,929.92 830.77,929.92 831.776,929.92 832.782,929.92 833.788,929.92 834.794,929.92 835.8,929.92 836.805,929.92 837.811,929.92 838.817,929.92 839.823,929.92 840.829,929.92 841.835,929.92 842.841,929.92 843.847,929.92 844.853,929.92 845.859,929.92 846.865,929.92 847.871,929.92 848.877,929.92 849.883,929.92 850.889,929.92 851.895,929.92 852.901,929.92 853.906,929.92 854.912,929.92 855.918,929.92 856.924,929.92 857.93,929.92 858.936,929.92 859.942,929.92 860.948,929.92 861.954,929.92 862.96,929.92 863.966,929.92 864.972,929.92 865.978,929.92 866.984,929.92 867.99,929.92 868.996,929.92 870.001,929.92 871.007,929.92 872.013,929.92 873.019,929.92 874.025,929.92 875.031,929.92 876.037,929.92 877.043,929.92 878.049,865.017 879.055,865.017 880.061,865.017 881.067,865.017 882.073,865.017 883.079,865.017 884.085,865.017 885.091,865.017 886.097,865.017 887.102,865.017 888.108,865.017 889.114,865.017 890.12,865.017 891.126,865.017 892.132,865.017 893.138,865.017 894.144,865.017 895.15,865.017 896.156,865.017 897.162,865.017 898.168,865.017 899.174,865.017 900.18,865.017 901.186,865.017 902.192,865.017 903.197,865.017 904.203,865.017 905.209,865.017 906.215,865.017 907.221,865.017 908.227,865.017 909.233,865.017 910.239,865.017 911.245,865.017 912.251,865.017 913.257,865.017 914.263,865.017 915.269,865.017 916.275,865.017 917.281,865.017 918.287,865.017 919.293,865.017 920.298,865.017 921.304,865.017 922.31,865.017 923.316,865.017 924.322,865.017 925.328,865.017 926.334,865.017 927.34,865.017 928.346,865.017 929.352,865.017 930.358,865.017 931.364,865.017 932.37,865.017 933.376,865.017 934.382,865.017 935.388,865.017 936.393,865.017 937.399,865.017 938.405,865.017 939.411,865.017 940.417,865.017 941.423,865.017 942.429,865.017 943.435,865.017 944.441,865.017 945.447,865.017 946.453,865.017 947.459,865.017 948.465,865.017 949.471,865.017 950.477,865.017 951.483,865.017 952.488,865.017 953.494,865.017 954.5,865.017 955.506,865.017 956.512,865.017 957.518,865.017 958.524,865.017 959.53,865.017 960.536,865.017 961.542,865.017 962.548,865.017 963.554,865.017 964.56,865.017 965.566,865.017 966.572,865.017 967.578,865.017 968.584,865.017 969.589,865.017 970.595,865.017 971.601,865.017 972.607,865.017 973.613,865.017 974.619,865.017 975.625,865.017 976.631,865.017 977.637,865.017 978.643,865.017 979.649,865.017 980.655,865.017 981.661,865.017 982.667,865.017 983.673,865.017 984.679,865.017 985.684,865.017 986.69,865.017 987.696,865.017 988.702,865.017 989.708,865.017 990.714,865.017 991.72,865.017 992.726,865.017 993.732,865.017 994.738,865.017 995.744,865.017 996.75,865.017 997.756,865.017 998.762,865.017 999.768,865.017 1000.77,865.017 1001.78,865.017 1002.79,865.017 1003.79,865.017 1004.8,865.017 1005.8,865.017 1006.81,865.017 1007.82,865.017 1008.82,865.017 1009.83,865.017 1010.83,865.017 1011.84,865.017 1012.84,865.017 1013.85,865.017 1014.86,865.017 1015.86,865.017 1016.87,865.017 1017.87,865.017 1018.88,865.017 1019.89,865.017 1020.89,865.017 1021.9,865.017 1022.9,865.017 1023.91,865.017 1024.92,865.017 1025.92,800.115 1026.93,800.115 1027.93,800.115 1028.94,800.115 1029.95,800.115 1030.95,800.115 1031.96,800.115 1032.96,800.115 1033.97,800.115 1034.98,800.115 1035.98,800.115 1036.99,800.115 1037.99,800.115 1039,800.115 1040.01,800.115 1041.01,800.115 1042.02,800.115 1043.02,800.115 1044.03,800.115 1045.03,800.115 1046.04,800.115 1047.05,800.115 1048.05,800.115 1049.06,800.115 1050.06,800.115 1051.07,800.115 1052.08,800.115 1053.08,800.115 1054.09,800.115 1055.09,800.115 1056.1,800.115 1057.11,800.115 1058.11,800.115 1059.12,800.115 1060.12,800.115 1061.13,800.115 1062.14,800.115 1063.14,800.115 1064.15,800.115 1065.15,800.115 1066.16,800.115 1067.17,800.115 1068.17,800.115 1069.18,800.115 1070.18,800.115 1071.19,800.115 1072.2,800.115 1073.2,800.115 1074.21,800.115 1075.21,800.115 1076.22,800.115 1077.22,800.115 1078.23,800.115 1079.24,800.115 1080.24,800.115 1081.25,800.115 1082.25,800.115 1083.26,800.115 1084.27,800.115 1085.27,800.115 1086.28,800.115 1087.28,800.115 1088.29,800.115 1089.3,800.115 1090.3,800.115 1091.31,800.115 1092.31,800.115 1093.32,800.115 1094.33,800.115 1095.33,800.115 1096.34,800.115 1097.34,800.115 1098.35,800.115 1099.36,800.115 1100.36,800.115 1101.37,800.115 1102.37,800.115 1103.38,800.115 1104.39,800.115 1105.39,800.115 1106.4,800.115 1107.4,800.115 1108.41,800.115 1109.42,800.115 1110.42,800.115 1111.43,800.115 1112.43,800.115 1113.44,800.115 1114.44,800.115 1115.45,800.115 1116.46,800.115 1117.46,800.115 1118.47,800.115 1119.47,800.115 1120.48,800.115 1121.49,800.115 1122.49,800.115 1123.5,800.115 1124.5,800.115 1125.51,800.115 1126.52,800.115 1127.52,800.115 1128.53,800.115 1129.53,800.115 1130.54,800.115 1131.55,800.115 1132.55,800.115 1133.56,800.115 1134.56,800.115 1135.57,800.115 1136.58,800.115 1137.58,800.115 1138.59,800.115 1139.59,800.115 1140.6,800.115 1141.61,800.115 1142.61,800.115 1143.62,800.115 1144.62,800.115 1145.63,800.115 1146.63,800.115 1147.64,800.115 1148.65,800.115 1149.65,800.115 1150.66,800.115 1151.66,800.115 1152.67,800.115 1153.68,800.115 1154.68,800.115 1155.69,800.115 1156.69,800.115 1157.7,800.115 1158.71,800.115 1159.71,800.115 1160.72,800.115 1161.72,800.115 1162.73,800.115 1163.74,800.115 1164.74,800.115 1165.75,800.115 1166.75,800.115 1167.76,800.115 1168.77,800.115 1169.77,800.115 1170.78,800.115 1171.78,800.115 1172.79,800.115 1173.8,800.115 1174.8,800.115 1175.81,800.115 1176.81,800.115 1177.82,800.115 1178.82,800.115 1179.83,800.115 1180.84,800.115 1181.84,800.115 1182.85,800.115 1183.85,800.115 1184.86,800.115 1185.87,800.115 1186.87,800.115 1187.88,800.115 1188.88,800.115 1189.89,800.115 1190.9,800.115 1191.9,800.115 1192.91,800.115 1193.91,800.115 1194.92,800.115 1195.93,800.115 1196.93,800.115 1197.94,800.115 1198.94,800.115 1199.95,800.115 1200.96,800.115 1201.96,800.115 1202.97,800.115 1203.97,800.115 1204.98,800.115 1205.99,800.115 1206.99,800.115 1208,800.115 1209,800.115 1210.01,800.115 1211.01,800.115 1212.02,800.115 1213.03,800.115 1214.03,800.115 1215.04,800.115 1216.04,800.115 1217.05,800.115 1218.06,800.115 1219.06,800.115 1220.07,800.115 1221.07,800.115 1222.08,800.115 1223.09,800.115 1224.09,800.115 1225.1,800.115 1226.1,800.115 1227.11,800.115 1228.12,800.115 1229.12,800.115 1230.13,800.115 1231.13,800.115 1232.14,800.115 1233.15,800.115 1234.15,800.115 1235.16,800.115 1236.16,800.115 1237.17,800.115 1238.18,800.115 1239.18,800.115 1240.19,800.115 1241.19,800.115 1242.2,800.115 1243.2,800.115 1244.21,800.115 1245.22,800.115 1246.22,800.115 1247.23,800.115 1248.23,800.115 1249.24,800.115 1250.25,800.115 1251.25,800.115 1252.26,800.115 1253.26,800.115 1254.27,800.115 1255.28,800.115 1256.28,800.115 1257.29,800.115 1258.29,800.115 1259.3,800.115 1260.31,800.115 1261.31,800.115 1262.32,800.115 1263.32,800.115 1264.33,800.115 1265.34,800.115 1266.34,800.115 1267.35,800.115 1268.35,800.115 1269.36,800.115 1270.37,800.115 1271.37,800.115 1272.38,800.115 1273.38,800.115 1274.39,800.115 1275.39,800.115 1276.4,800.115 1277.41,800.115 1278.41,800.115 1279.42,800.115 1280.42,800.115 1281.43,800.115 1282.44,800.115 1283.44,800.115 1284.45,800.115 1285.45,800.115 1286.46,800.115 1287.47,800.115 1288.47,800.115 1289.48,800.115 1290.48,800.115 1291.49,800.115 1292.5,800.115 1293.5,800.115 1294.51,735.212 1295.51,735.212 1296.52,735.212 1297.53,735.212 1298.53,735.212 1299.54,735.212 1300.54,735.212 1301.55,735.212 1302.56,735.212 1303.56,735.212 1304.57,735.212 1305.57,735.212 1306.58,735.212 1307.59,735.212 1308.59,735.212 1309.6,735.212 1310.6,735.212 1311.61,735.212 1312.61,735.212 1313.62,735.212 1314.63,735.212 1315.63,735.212 1316.64,735.212 1317.64,735.212 1318.65,735.212 1319.66,735.212 1320.66,735.212 1321.67,735.212 1322.67,735.212 1323.68,735.212 1324.69,735.212 1325.69,735.212 1326.7,735.212 1327.7,735.212 1328.71,735.212 1329.72,735.212 1330.72,735.212 1331.73,735.212 1332.73,735.212 1333.74,735.212 1334.75,735.212 1335.75,735.212 1336.76,735.212 1337.76,735.212 1338.77,735.212 1339.78,735.212 1340.78,735.212 1341.79,735.212 1342.79,735.212 1343.8,735.212 1344.8,735.212 1345.81,735.212 1346.82,735.212 1347.82,735.212 1348.83,735.212 1349.83,735.212 1350.84,735.212 1351.85,735.212 1352.85,735.212 1353.86,735.212 1354.86,735.212 1355.87,735.212 1356.88,735.212 1357.88,735.212 1358.89,735.212 1359.89,735.212 1360.9,735.212 1361.91,735.212 1362.91,735.212 1363.92,735.212 1364.92,735.212 1365.93,735.212 1366.94,735.212 1367.94,735.212 1368.95,735.212 1369.95,735.212 1370.96,735.212 1371.97,735.212 1372.97,735.212 1373.98,735.212 1374.98,735.212 1375.99,735.212 1376.99,735.212 1378,735.212 1379.01,735.212 1380.01,735.212 1381.02,735.212 1382.02,735.212 1383.03,735.212 1384.04,735.212 1385.04,735.212 1386.05,670.309 1387.05,670.309 1388.06,670.309 1389.07,670.309 1390.07,670.309 1391.08,670.309 1392.08,670.309 1393.09,670.309 1394.1,670.309 1395.1,670.309 1396.11,670.309 1397.11,670.309 1398.12,670.309 1399.13,670.309 1400.13,670.309 1401.14,670.309 1402.14,670.309 1403.15,670.309 1404.16,670.309 1405.16,670.309 1406.17,670.309 1407.17,670.309 1408.18,670.309 1409.18,670.309 1410.19,670.309 1411.2,670.309 1412.2,670.309 1413.21,670.309 1414.21,670.309 1415.22,670.309 1416.23,670.309 1417.23,670.309 1418.24,670.309 1419.24,670.309 1420.25,670.309 1421.26,670.309 1422.26,670.309 1423.27,670.309 1424.27,670.309 1425.28,670.309 1426.29,670.309 1427.29,670.309 1428.3,670.309 1429.3,670.309 1430.31,670.309 1431.32,670.309 1432.32,670.309 1433.33,670.309 1434.33,670.309 1435.34,670.309 1436.35,670.309 1437.35,670.309 1438.36,670.309 1439.36,670.309 1440.37,670.309 1441.37,670.309 1442.38,670.309 1443.39,670.309 1444.39,670.309 1445.4,670.309 1446.4,670.309 1447.41,670.309 1448.42,670.309 1449.42,670.309 1450.43,670.309 1451.43,670.309 1452.44,670.309 1453.45,670.309 1454.45,670.309 1455.46,670.309 1456.46,670.309 1457.47,670.309 1458.48,670.309 1459.48,670.309 1460.49,670.309 1461.49,670.309 1462.5,670.309 1463.51,670.309 1464.51,670.309 1465.52,670.309 1466.52,670.309 1467.53,670.309 1468.54,670.309 1469.54,670.309 1470.55,670.309 1471.55,670.309 1472.56,670.309 1473.57,670.309 1474.57,670.309 1475.58,670.309 1476.58,670.309 1477.59,670.309 1478.59,670.309 1479.6,670.309 1480.61,670.309 1481.61,670.309 1482.62,670.309 1483.62,670.309 1484.63,670.309 1485.64,670.309 1486.64,670.309 1487.65,670.309 1488.65,670.309 1489.66,670.309 1490.67,670.309 1491.67,670.309 1492.68,670.309 1493.68,670.309 1494.69,670.309 1495.7,670.309 1496.7,670.309 1497.71,670.309 1498.71,670.309 1499.72,670.309 1500.73,670.309 1501.73,670.309 1502.74,670.309 1503.74,670.309 1504.75,670.309 1505.76,670.309 1506.76,670.309 1507.77,670.309 1508.77,670.309 1509.78,670.309 1510.78,670.309 1511.79,670.309 1512.8,670.309 1513.8,670.309 1514.81,670.309 1515.81,670.309 1516.82,670.309 1517.83,670.309 1518.83,670.309 1519.84,670.309 1520.84,670.309 1521.85,670.309 1522.86,670.309 1523.86,670.309 1524.87,670.309 1525.87,670.309 1526.88,670.309 1527.89,670.309 1528.89,670.309 1529.9,670.309 1530.9,670.309 1531.91,670.309 1532.92,670.309 1533.92,670.309 1534.93,670.309 1535.93,670.309 1536.94,670.309 1537.95,670.309 1538.95,670.309 1539.96,670.309 1540.96,670.309 1541.97,670.309 1542.97,670.309 1543.98,670.309 1544.99,670.309 1545.99,670.309 1547,670.309 1548,670.309 1549.01,670.309 1550.02,670.309 1551.02,670.309 1552.03,670.309 1553.03,670.309 1554.04,670.309 1555.05,670.309 1556.05,670.309 1557.06,670.309 1558.06,670.309 1559.07,670.309 1560.08,670.309 1561.08,670.309 1562.09,670.309 1563.09,670.309 1564.1,670.309 1565.11,670.309 1566.11,670.309 1567.12,670.309 1568.12,670.309 1569.13,670.309 1570.14,670.309 1571.14,670.309 1572.15,670.309 1573.15,670.309 1574.16,670.309 1575.16,670.309 1576.17,670.309 1577.18,670.309 1578.18,670.309 1579.19,670.309 1580.19,670.309 1581.2,670.309 1582.21,670.309 1583.21,670.309 1584.22,670.309 1585.22,670.309 1586.23,670.309 1587.24,670.309 1588.24,670.309 1589.25,670.309 1590.25,670.309 1591.26,670.309 1592.27,670.309 1593.27,670.309 1594.28,670.309 1595.28,670.309 1596.29,670.309 1597.3,670.309 1598.3,670.309 1599.31,670.309 1600.31,670.309 1601.32,670.309 1602.33,670.309 1603.33,670.309 1604.34,670.309 1605.34,670.309 1606.35,670.309 1607.35,670.309 1608.36,670.309 1609.37,670.309 1610.37,670.309 1611.38,670.309 1612.38,670.309 1613.39,670.309 1614.4,670.309 1615.4,670.309 1616.41,670.309 1617.41,670.309 1618.42,670.309 1619.43,670.309 1620.43,605.407 1621.44,605.407 1622.44,605.407 1623.45,605.407 1624.46,605.407 1625.46,605.407 1626.47,605.407 1627.47,605.407 1628.48,605.407 1629.49,605.407 1630.49,605.407 1631.5,605.407 1632.5,605.407 1633.51,605.407 1634.52,605.407 1635.52,605.407 1636.53,605.407 1637.53,605.407 1638.54,605.407 1639.54,605.407 1640.55,605.407 1641.56,605.407 1642.56,605.407 1643.57,605.407 1644.57,605.407 1645.58,605.407 1646.59,605.407 1647.59,605.407 1648.6,605.407 1649.6,605.407 1650.61,605.407 1651.62,605.407 1652.62,605.407 1653.63,605.407 1654.63,605.407 1655.64,605.407 1656.65,605.407 1657.65,605.407 1658.66,605.407 1659.66,605.407 1660.67,605.407 1661.68,605.407 1662.68,605.407 1663.69,605.407 1664.69,605.407 1665.7,605.407 1666.71,605.407 1667.71,605.407 1668.72,605.407 1669.72,605.407 1670.73,605.407 1671.74,605.407 1672.74,605.407 1673.75,605.407 1674.75,605.407 1675.76,605.407 1676.76,605.407 1677.77,605.407 1678.78,605.407 1679.78,605.407 1680.79,605.407 1681.79,605.407 1682.8,605.407 1683.81,605.407 1684.81,605.407 1685.82,605.407 1686.82,605.407 1687.83,605.407 1688.84,605.407 1689.84,605.407 1690.85,605.407 1691.85,540.504 1692.86,540.504 1693.87,540.504 1694.87,540.504 1695.88,540.504 1696.88,540.504 1697.89,540.504 1698.9,540.504 1699.9,540.504 1700.91,540.504 1701.91,540.504 1702.92,540.504 1703.93,540.504 1704.93,540.504 1705.94,540.504 1706.94,540.504 1707.95,540.504 1708.95,540.504 1709.96,540.504 1710.97,540.504 1711.97,540.504 1712.98,540.504 1713.98,540.504 1714.99,540.504 1716,540.504 1717,540.504 1718.01,540.504 1719.01,540.504 1720.02,540.504 1721.03,540.504 1722.03,540.504 1723.04,540.504 1724.04,540.504 1725.05,540.504 1726.06,540.504 1727.06,540.504 1728.07,540.504 1729.07,540.504 1730.08,540.504 1731.09,540.504 1732.09,540.504 1733.1,540.504 1734.1,540.504 1735.11,540.504 1736.12,540.504 1737.12,540.504 1738.13,540.504 1739.13,540.504 1740.14,540.504 1741.14,540.504 1742.15,540.504 1743.16,540.504 1744.16,540.504 1745.17,540.504 1746.17,540.504 1747.18,540.504 1748.19,540.504 1749.19,540.504 1750.2,540.504 1751.2,540.504 1752.21,540.504 1753.22,540.504 1754.22,540.504 1755.23,540.504 1756.23,540.504 1757.24,540.504 1758.25,540.504 1759.25,540.504 1760.26,540.504 1761.26,540.504 1762.27,540.504 1763.28,540.504 1764.28,540.504 1765.29,540.504 1766.29,540.504 1767.3,540.504 1768.31,540.504 1769.31,540.504 1770.32,540.504 1771.32,540.504 1772.33,540.504 1773.33,540.504 1774.34,540.504 1775.35,540.504 1776.35,540.504 1777.36,540.504 1778.36,540.504 1779.37,540.504 1780.38,540.504 1781.38,540.504 1782.39,540.504 1783.39,540.504 1784.4,540.504 1785.41,540.504 1786.41,540.504 1787.42,540.504 1788.42,540.504 1789.43,540.504 1790.44,540.504 1791.44,540.504 1792.45,540.504 1793.45,540.504 1794.46,540.504 1795.47,540.504 1796.47,475.601 1797.48,475.601 1798.48,475.601 1799.49,475.601 1800.5,475.601 1801.5,475.601 1802.51,475.601 1803.51,475.601 1804.52,475.601 1805.52,475.601 1806.53,475.601 1807.54,475.601 1808.54,475.601 1809.55,475.601 1810.55,475.601 1811.56,475.601 1812.57,475.601 1813.57,475.601 1814.58,475.601 1815.58,475.601 1816.59,475.601 1817.6,475.601 1818.6,475.601 1819.61,475.601 1820.61,475.601 1821.62,475.601 1822.63,475.601 1823.63,475.601 1824.64,475.601 1825.64,475.601 1826.65,475.601 1827.66,475.601 1828.66,475.601 1829.67,475.601 1830.67,475.601 1831.68,475.601 1832.69,475.601 1833.69,475.601 1834.7,475.601 1835.7,475.601 1836.71,475.601 1837.72,410.699 1838.72,410.699 1839.73,345.796 1840.73,345.796 1841.74,345.796 1842.74,345.796 1843.75,345.796 1844.76,345.796 1845.76,345.796 1846.77,345.796 1847.77,345.796 1848.78,345.796 1849.79,345.796 1850.79,345.796 1851.8,345.796 1852.8,345.796 1853.81,345.796 1854.82,345.796 1855.82,345.796 1856.83,345.796 1857.83,345.796 1858.84,345.796 1859.85,345.796 1860.85,345.796 1861.86,345.796 1862.86,345.796 1863.87,345.796 1864.88,345.796 1865.88,345.796 1866.89,345.796 1867.89,345.796 1868.9,345.796 1869.91,345.796 1870.91,345.796 1871.92,280.894 1872.92,280.894 1873.93,280.894 1874.93,280.894 1875.94,280.894 1876.95,280.894 1877.95,280.894 1878.96,280.894 1879.96,280.894 1880.97,280.894 1881.98,280.894 1882.98,280.894 1883.99,280.894 1884.99,280.894 1886,280.894 1887.01,280.894 1888.01,280.894 1889.02,280.894 1890.02,280.894 1891.03,280.894 1892.04,280.894 1893.04,280.894 1894.05,280.894 1895.05,280.894 1896.06,280.894 1897.07,280.894 1898.07,280.894 1899.08,215.991 1900.08,215.991 1901.09,215.991 1902.1,215.991 1903.1,215.991 1904.11,215.991 1905.11,215.991 1906.12,215.991 1907.12,215.991 1908.13,215.991 1909.14,215.991 1910.14,215.991 1911.15,215.991 1912.15,215.991 1913.16,215.991 1914.17,215.991 1915.17,215.991 1916.18,215.991 1917.18,215.991 1918.19,215.991 1919.2,215.991 1920.2,215.991 1921.21,215.991 1922.21,215.991 1923.22,215.991 1924.23,215.991 1925.23,215.991 1926.24,215.991 1927.24,215.991 1928.25,215.991 1929.26,215.991 1930.26,215.991 1931.27,215.991 1932.27,215.991 1933.28,215.991 1934.29,215.991 1935.29,215.991 1936.3,215.991 1937.3,215.991 1938.31,215.991 1939.31,215.991 1940.32,215.991 1941.33,215.991 1942.33,215.991 1943.34,215.991 1944.34,215.991 1945.35,215.991 1946.36,215.991 1947.36,215.991 1948.37,215.991 1949.37,215.991 1950.38,215.991 1951.39,215.991 1952.39,215.991 1953.4,215.991 1954.4,215.991 1955.41,215.991 1956.42,215.991 1957.42,215.991 1958.43,215.991 1959.43,215.991 1960.44,215.991 1961.45,215.991 1962.45,215.991 1963.46,215.991 1964.46,215.991 1965.47,215.991 1966.48,215.991 1967.48,215.991 1968.49,215.991 1969.49,215.991 1970.5,215.991 1971.5,215.991 1972.51,215.991 1973.52,215.991 1974.52,215.991 1975.53,215.991 1976.53,215.991 1977.54,215.991 1978.55,215.991 1979.55,215.991 1980.56,215.991 1981.56,215.991 1982.57,215.991 1983.58,215.991 1984.58,215.991 1985.59,215.991 1986.59,215.991 1987.6,215.991 1988.61,215.991 1989.61,215.991 1990.62,215.991 1991.62,215.991 1992.63,215.991 1993.64,215.991 1994.64,215.991 1995.65,215.991 1996.65,215.991 1997.66,215.991 1998.67,215.991 1999.67,215.991 2000.68,215.991 2001.68,215.991 2002.69,215.991 2003.69,215.991 2004.7,215.991 2005.71,215.991 2006.71,215.991 2007.72,215.991 2008.72,215.991 2009.73,215.991 2010.74,215.991 2011.74,215.991 2012.75,215.991 2013.75,215.991 2014.76,215.991 2015.77,215.991 2016.77,215.991 2017.78,215.991 2018.78,215.991 2019.79,215.991 2020.8,215.991 2021.8,215.991 2022.81,215.991 2023.81,215.991 2024.82,215.991 2025.83,215.991 2026.83,215.991 2027.84,215.991 2028.84,215.991 2029.85,215.991 2030.86,215.991 2031.86,215.991 2032.87,215.991 2033.87,215.991 2034.88,215.991 2035.89,215.991 2036.89,215.991 2037.9,215.991 2038.9,215.991 2039.91,215.991 2040.91,215.991 2041.92,215.991 2042.93,215.991 2043.93,215.991 2044.94,215.991 2045.94,215.991 2046.95,215.991 2047.96,215.991 2048.96,215.991 2049.97,215.991 2050.97,215.991 2051.98,151.088 2052.99,151.088 2053.99,151.088 2055,151.088 2056,151.088 2057.01,151.088 2058.02,151.088 2059.02,151.088 2060.03,151.088 2061.03,151.088 2062.04,151.088 2063.05,151.088 2064.05,151.088 2065.06,151.088 2066.06,151.088 2067.07,151.088 2068.08,151.088 2069.08,151.088 2070.09,151.088 2071.09,151.088 2072.1,151.088 2073.1,151.088 2074.11,151.088 2075.12,151.088 2076.12,151.088 2077.13,151.088 2078.13,151.088 2079.14,151.088 2080.15,151.088 2081.15,151.088 2082.16,151.088 2083.16,151.088 2084.17,151.088 2085.18,151.088 2086.18,151.088 2087.19,151.088 2088.19,151.088 2089.2,151.088 2090.21,151.088 2091.21,151.088 2092.22,151.088 2093.22,151.088 2094.23,151.088 2095.24,151.088 2096.24,151.088 2097.25,151.088 2098.25,151.088 2099.26,151.088 2100.27,151.088 2101.27,151.088 2102.28,151.088 2103.28,151.088 2104.29,151.088 2105.29,151.088 2106.3,151.088 2107.31,151.088 2108.31,151.088 2109.32,151.088 2110.32,151.088 2111.33,151.088 2112.34,151.088 2113.34,151.088 2114.35,151.088 2115.35,151.088 2116.36,151.088 2117.37,151.088 2118.37,151.088 2119.38,151.088 2120.38,86.1857 2121.39,86.1857 2122.4,86.1857 2123.4,86.1857 2124.41,86.1857 2125.41,86.1857 2126.42,86.1857 2127.43,86.1857 2128.43,86.1857 2129.44,86.1857 2130.44,86.1857 2131.45,86.1857 2132.46,86.1857 2133.46,86.1857 2134.47,86.1857 2135.47,86.1857 2136.48,86.1857 2137.48,86.1857 2138.49,86.1857 2139.5,86.1857 2140.5,86.1857 2141.51,86.1857 2142.51,86.1857 2143.52,86.1857 2144.53,86.1857 2145.53,86.1857 2146.54,86.1857 2147.54,86.1857 2148.55,86.1857 2149.56,86.1857 2150.56,86.1857 2151.57,86.1857 2152.57,86.1857 2153.58,86.1857 2154.59,86.1857 2155.59,86.1857 2156.6,86.1857 2157.6,86.1857 2158.61,86.1857 2159.62,86.1857 2160.62,86.1857 2161.63,86.1857 2162.63,86.1857 2163.64,86.1857 2164.65,86.1857 2165.65,86.1857 2166.66,86.1857 2167.66,86.1857 2168.67,86.1857 2169.67,86.1857 2170.68,86.1857 2171.69,86.1857 2172.69,86.1857 2173.7,86.1857 2174.7,86.1857 2175.71,86.1857 2176.72,86.1857 2177.72,86.1857 2178.73,86.1857 2179.73,86.1857 2180.74,86.1857 2181.75,86.1857 2182.75,86.1857 2183.76,86.1857 2184.76,86.1857 2185.77,86.1857 2186.78,86.1857 2187.78,86.1857 2188.79,86.1857 2189.79,86.1857 2190.8,86.1857 2191.81,86.1857 2192.81,86.1857 2193.82,86.1857 2194.82,86.1857 2195.83,86.1857 2196.84,86.1857 2197.84,86.1857 2198.85,86.1857 2199.85,86.1857 2200.86,86.1857 2201.87,86.1857 2202.87,86.1857 2203.88,86.1857 2204.88,86.1857 2205.89,86.1857 2206.89,86.1857 2207.9,86.1857 2208.91,86.1857 2209.91,86.1857 2210.92,86.1857 2211.92,86.1857 2212.93,86.1857 2213.94,86.1857 2214.94,86.1857 2215.95,86.1857 2216.95,86.1857 2217.96,86.1857 2218.97,86.1857 2219.97,86.1857 2220.98,86.1857 2221.98,86.1857 2222.99,86.1857 2224,86.1857 2225,86.1857 2226.01,86.1857 2227.01,86.1857 2228.02,86.1857 2229.03,86.1857 2230.03,86.1857 2231.04,86.1857 2232.04,86.1857 2233.05,86.1857 2234.06,86.1857 2235.06,86.1857 2236.07,86.1857 2237.07,86.1857 2238.08,86.1857 2239.08,86.1857 2240.09,86.1857 2241.1,86.1857 2242.1,86.1857 2243.11,86.1857 2244.11,86.1857 2245.12,86.1857 2246.13,86.1857 2247.13,86.1857 2248.14,86.1857 2249.14,86.1857 2250.15,86.1857 2251.16,86.1857 2252.16,86.1857 2253.17,86.1857 2254.17,86.1857 2255.18,86.1857 2256.19,86.1857 2257.19,86.1857 2258.2,86.1857 2259.2,86.1857 2260.21,86.1857 2261.22,86.1857 2262.22,86.1857 2263.23,86.1857 2264.23,86.1857 2265.24,86.1857 2266.25,86.1857 2267.25,86.1857 2268.26,86.1857 2269.26,86.1857 2270.27,86.1857 2271.27,86.1857 2272.28,86.1857 2273.29,86.1857 2274.29,86.1857 2275.3,86.1857 2276.3,86.1857 2277.31,86.1857 2278.32,86.1857 2279.32,86.1857 2280.33,86.1857 2281.33,86.1857 2282.34,86.1857 2283.35,86.1857 2284.35,86.1857 2285.36,86.1857 2286.36,86.1857 2287.37,86.1857 2288.38,86.1857 2289.38,86.1857 2290.39,86.1857 2291.39,86.1857 2292.4,86.1857 2293.41,86.1857 2294.41,86.1857 2295.42,86.1857 2296.42,86.1857 2297.43,86.1857 2298.44,86.1857 2299.44,86.1857 2300.45,86.1857 2301.45,86.1857 2302.46,86.1857 2303.46,86.1857 2304.47,86.1857 2305.48,86.1857 2306.48,86.1857 2307.49,86.1857 2308.49,86.1857 2309.5,86.1857 2310.51,86.1857 2311.51,86.1857 2312.52,86.1857 2313.52,86.1857 2314.53,86.1857 2315.54,86.1857 2316.54,86.1857 2317.55,86.1857 2318.55,86.1857 2319.56,86.1857 2320.57,86.1857 2321.57,86.1857 2322.58,86.1857 2323.58,86.1857 2324.59,86.1857 2325.6,86.1857 2326.6,86.1857 2327.61,86.1857 2328.61,86.1857 2329.62,86.1857 2330.63,86.1857 2331.63,86.1857 2332.64,86.1857 2333.64,86.1857 2334.65,86.1857 2335.65,86.1857 2336.66,86.1857 2337.67,86.1857 2338.67,86.1857 2339.68,86.1857 2340.68,86.1857 2341.69,86.1857 2342.7,86.1857 2343.7,86.1857 2344.71,86.1857 2345.71,86.1857 2346.72,86.1857 2347.73,86.1857 2348.73,86.1857 2349.74,86.1857 2350.74,86.1857 2351.75,86.1857 2352.76,86.1857 "/>
<path clip-path="url(#clip040)" d="M1975.5 1377.32 L2279.02 1377.32 L2279.02 1273.64 L1975.5 1273.64  Z" fill="#ffffff" fill-rule="evenodd" fill-opacity="1"/>
<polyline clip-path="url(#clip040)" style="stroke:#000000; stroke-linecap:round; stroke-linejoin:round; stroke-width:4; stroke-opacity:1; fill:none" points="1975.5,1377.32 2279.02,1377.32 2279.02,1273.64 1975.5,1273.64 1975.5,1377.32 "/>
<polyline clip-path="url(#clip040)" style="stroke:#009af9; stroke-linecap:round; stroke-linejoin:round; stroke-width:8; stroke-opacity:1; fill:none" points="2000.08,1325.48 2147.55,1325.48 "/>
<path clip-path="url(#clip040)" d="M2172.13 1308.2 L2178.42 1308.2 L2193.75 1337.11 L2193.75 1308.2 L2198.29 1308.2 L2198.29 1342.76 L2191.99 1342.76 L2176.66 1313.84 L2176.66 1342.76 L2172.13 1342.76 L2172.13 1308.2 Z" fill="#000000" fill-rule="nonzero" fill-opacity="1" /><path clip-path="url(#clip040)" d="M2217.64 1306.78 Q2214.53 1312.11 2213.03 1317.32 Q2211.53 1322.52 2211.53 1327.87 Q2211.53 1333.22 2213.03 1338.47 Q2214.56 1343.7 2217.64 1349.01 L2213.93 1349.01 Q2210.46 1343.57 2208.72 1338.31 Q2207.01 1333.06 2207.01 1327.87 Q2207.01 1322.71 2208.72 1317.48 Q2210.44 1312.25 2213.93 1306.78 L2217.64 1306.78 Z" fill="#000000" fill-rule="nonzero" fill-opacity="1" /><path clip-path="url(#clip040)" d="M2230.11 1309.47 L2230.11 1316.83 L2238.89 1316.83 L2238.89 1320.14 L2230.11 1320.14 L2230.11 1334.21 Q2230.11 1337.38 2230.97 1338.29 Q2231.85 1339.19 2234.51 1339.19 L2238.89 1339.19 L2238.89 1342.76 L2234.51 1342.76 Q2229.58 1342.76 2227.71 1340.93 Q2225.83 1339.07 2225.83 1334.21 L2225.83 1320.14 L2222.71 1320.14 L2222.71 1316.83 L2225.83 1316.83 L2225.83 1309.47 L2230.11 1309.47 Z" fill="#000000" fill-rule="nonzero" fill-opacity="1" /><path clip-path="url(#clip040)" d="M2243.82 1306.78 L2247.52 1306.78 Q2250.99 1312.25 2252.71 1317.48 Q2254.44 1322.71 2254.44 1327.87 Q2254.44 1333.06 2252.71 1338.31 Q2250.99 1343.57 2247.52 1349.01 L2243.82 1349.01 Q2246.9 1343.7 2248.4 1338.47 Q2249.93 1333.22 2249.93 1327.87 Q2249.93 1322.52 2248.4 1317.32 Q2246.9 1312.11 2243.82 1306.78 Z" fill="#000000" fill-rule="nonzero" fill-opacity="1" /></svg>
