<?xml version="1.0" encoding="utf-8"?>
<svg xmlns="http://www.w3.org/2000/svg" xmlns:xlink="http://www.w3.org/1999/xlink" width="600" height="400" viewBox="0 0 2400 1600">
<defs>
  <clipPath id="clip970">
    <rect x="0" y="0" width="2400" height="1600"/>
  </clipPath>
</defs>
<path clip-path="url(#clip970)" d="M0 1600 L2400 1600 L2400 0 L0 0  Z" fill="#ffffff" fill-rule="evenodd" fill-opacity="1"/>
<defs>
  <clipPath id="clip971">
    <rect x="186" y="47" width="2167" height="1377"/>
  </clipPath>
</defs>
<path clip-path="url(#clip970)" d="M186.274 1423.18 L2352.76 1423.18 L2352.76 47.2441 L186.274 47.2441  Z" fill="#ffffff" fill-rule="evenodd" fill-opacity="1"/>
<polyline clip-path="url(#clip971)" style="stroke:#000000; stroke-linecap:round; stroke-linejoin:round; stroke-width:2; stroke-opacity:0.1; fill:none" points="186.274,1423.18 186.274,47.2441 "/>
<polyline clip-path="url(#clip971)" style="stroke:#000000; stroke-linecap:round; stroke-linejoin:round; stroke-width:2; stroke-opacity:0.1; fill:none" points="619.57,1423.18 619.57,47.2441 "/>
<polyline clip-path="url(#clip971)" style="stroke:#000000; stroke-linecap:round; stroke-linejoin:round; stroke-width:2; stroke-opacity:0.1; fill:none" points="1052.87,1423.18 1052.87,47.2441 "/>
<polyline clip-path="url(#clip971)" style="stroke:#000000; stroke-linecap:round; stroke-linejoin:round; stroke-width:2; stroke-opacity:0.1; fill:none" points="1486.16,1423.18 1486.16,47.2441 "/>
<polyline clip-path="url(#clip971)" style="stroke:#000000; stroke-linecap:round; stroke-linejoin:round; stroke-width:2; stroke-opacity:0.1; fill:none" points="1919.46,1423.18 1919.46,47.2441 "/>
<polyline clip-path="url(#clip971)" style="stroke:#000000; stroke-linecap:round; stroke-linejoin:round; stroke-width:2; stroke-opacity:0.1; fill:none" points="2352.76,1423.18 2352.76,47.2441 "/>
<polyline clip-path="url(#clip971)" style="stroke:#000000; stroke-linecap:round; stroke-linejoin:round; stroke-width:2; stroke-opacity:0.1; fill:none" points="186.274,1384.3 2352.76,1384.3 "/>
<polyline clip-path="url(#clip971)" style="stroke:#000000; stroke-linecap:round; stroke-linejoin:round; stroke-width:2; stroke-opacity:0.1; fill:none" points="186.274,1078.69 2352.76,1078.69 "/>
<polyline clip-path="url(#clip971)" style="stroke:#000000; stroke-linecap:round; stroke-linejoin:round; stroke-width:2; stroke-opacity:0.1; fill:none" points="186.274,773.078 2352.76,773.078 "/>
<polyline clip-path="url(#clip971)" style="stroke:#000000; stroke-linecap:round; stroke-linejoin:round; stroke-width:2; stroke-opacity:0.1; fill:none" points="186.274,467.467 2352.76,467.467 "/>
<polyline clip-path="url(#clip971)" style="stroke:#000000; stroke-linecap:round; stroke-linejoin:round; stroke-width:2; stroke-opacity:0.1; fill:none" points="186.274,161.855 2352.76,161.855 "/>
<polyline clip-path="url(#clip970)" style="stroke:#000000; stroke-linecap:round; stroke-linejoin:round; stroke-width:4; stroke-opacity:1; fill:none" points="186.274,1423.18 2352.76,1423.18 "/>
<polyline clip-path="url(#clip970)" style="stroke:#000000; stroke-linecap:round; stroke-linejoin:round; stroke-width:4; stroke-opacity:1; fill:none" points="186.274,1423.18 186.274,1404.28 "/>
<polyline clip-path="url(#clip970)" style="stroke:#000000; stroke-linecap:round; stroke-linejoin:round; stroke-width:4; stroke-opacity:1; fill:none" points="619.57,1423.18 619.57,1404.28 "/>
<polyline clip-path="url(#clip970)" style="stroke:#000000; stroke-linecap:round; stroke-linejoin:round; stroke-width:4; stroke-opacity:1; fill:none" points="1052.87,1423.18 1052.87,1404.28 "/>
<polyline clip-path="url(#clip970)" style="stroke:#000000; stroke-linecap:round; stroke-linejoin:round; stroke-width:4; stroke-opacity:1; fill:none" points="1486.16,1423.18 1486.16,1404.28 "/>
<polyline clip-path="url(#clip970)" style="stroke:#000000; stroke-linecap:round; stroke-linejoin:round; stroke-width:4; stroke-opacity:1; fill:none" points="1919.46,1423.18 1919.46,1404.28 "/>
<polyline clip-path="url(#clip970)" style="stroke:#000000; stroke-linecap:round; stroke-linejoin:round; stroke-width:4; stroke-opacity:1; fill:none" points="2352.76,1423.18 2352.76,1404.28 "/>
<path clip-path="url(#clip970)" d="M186.274 1454.1 Q182.663 1454.1 180.834 1457.66 Q179.029 1461.2 179.029 1468.33 Q179.029 1475.44 180.834 1479.01 Q182.663 1482.55 186.274 1482.55 Q189.908 1482.55 191.714 1479.01 Q193.542 1475.44 193.542 1468.33 Q193.542 1461.2 191.714 1457.66 Q189.908 1454.1 186.274 1454.1 M186.274 1450.39 Q192.084 1450.39 195.14 1455 Q198.218 1459.58 198.218 1468.33 Q198.218 1477.06 195.14 1481.67 Q192.084 1486.25 186.274 1486.25 Q180.464 1486.25 177.385 1481.67 Q174.33 1477.06 174.33 1468.33 Q174.33 1459.58 177.385 1455 Q180.464 1450.39 186.274 1450.39 Z" fill="#000000" fill-rule="nonzero" fill-opacity="1" /><path clip-path="url(#clip970)" d="M614.223 1481.64 L630.543 1481.64 L630.543 1485.58 L608.598 1485.58 L608.598 1481.64 Q611.26 1478.89 615.844 1474.26 Q620.45 1469.61 621.631 1468.27 Q623.876 1465.74 624.756 1464.01 Q625.658 1462.25 625.658 1460.56 Q625.658 1457.8 623.714 1456.07 Q621.793 1454.33 618.691 1454.33 Q616.492 1454.33 614.038 1455.09 Q611.607 1455.86 608.83 1457.41 L608.83 1452.69 Q611.654 1451.55 614.107 1450.97 Q616.561 1450.39 618.598 1450.39 Q623.969 1450.39 627.163 1453.08 Q630.357 1455.77 630.357 1460.26 Q630.357 1462.39 629.547 1464.31 Q628.76 1466.2 626.654 1468.8 Q626.075 1469.47 622.973 1472.69 Q619.871 1475.88 614.223 1481.64 Z" fill="#000000" fill-rule="nonzero" fill-opacity="1" /><path clip-path="url(#clip970)" d="M1055.88 1455.09 L1044.07 1473.54 L1055.88 1473.54 L1055.88 1455.09 M1054.65 1451.02 L1060.53 1451.02 L1060.53 1473.54 L1065.46 1473.54 L1065.46 1477.43 L1060.53 1477.43 L1060.53 1485.58 L1055.88 1485.58 L1055.88 1477.43 L1040.27 1477.43 L1040.27 1472.92 L1054.65 1451.02 Z" fill="#000000" fill-rule="nonzero" fill-opacity="1" /><path clip-path="url(#clip970)" d="M1486.57 1466.44 Q1483.42 1466.44 1481.57 1468.59 Q1479.74 1470.74 1479.74 1474.49 Q1479.74 1478.22 1481.57 1480.39 Q1483.42 1482.55 1486.57 1482.55 Q1489.72 1482.55 1491.55 1480.39 Q1493.4 1478.22 1493.4 1474.49 Q1493.4 1470.74 1491.55 1468.59 Q1489.72 1466.44 1486.57 1466.44 M1495.85 1451.78 L1495.85 1456.04 Q1494.09 1455.21 1492.29 1454.77 Q1490.5 1454.33 1488.74 1454.33 Q1484.11 1454.33 1481.66 1457.45 Q1479.23 1460.58 1478.88 1466.9 Q1480.25 1464.89 1482.31 1463.82 Q1484.37 1462.73 1486.85 1462.73 Q1492.05 1462.73 1495.06 1465.9 Q1498.1 1469.05 1498.1 1474.49 Q1498.1 1479.82 1494.95 1483.03 Q1491.8 1486.25 1486.57 1486.25 Q1480.57 1486.25 1477.4 1481.67 Q1474.23 1477.06 1474.23 1468.33 Q1474.23 1460.14 1478.12 1455.28 Q1482.01 1450.39 1488.56 1450.39 Q1490.32 1450.39 1492.1 1450.74 Q1493.91 1451.09 1495.85 1451.78 Z" fill="#000000" fill-rule="nonzero" fill-opacity="1" /><path clip-path="url(#clip970)" d="M1919.46 1469.17 Q1916.13 1469.17 1914.2 1470.95 Q1912.31 1472.73 1912.31 1475.86 Q1912.31 1478.98 1914.2 1480.77 Q1916.13 1482.55 1919.46 1482.55 Q1922.79 1482.55 1924.71 1480.77 Q1926.64 1478.96 1926.64 1475.86 Q1926.64 1472.73 1924.71 1470.95 Q1922.82 1469.17 1919.46 1469.17 M1914.78 1467.18 Q1911.77 1466.44 1910.08 1464.38 Q1908.42 1462.32 1908.42 1459.35 Q1908.42 1455.21 1911.36 1452.8 Q1914.32 1450.39 1919.46 1450.39 Q1924.62 1450.39 1927.56 1452.8 Q1930.5 1455.21 1930.5 1459.35 Q1930.5 1462.32 1928.81 1464.38 Q1927.14 1466.44 1924.16 1467.18 Q1927.54 1467.96 1929.41 1470.26 Q1931.31 1472.55 1931.31 1475.86 Q1931.31 1480.88 1928.23 1483.57 Q1925.18 1486.25 1919.46 1486.25 Q1913.74 1486.25 1910.66 1483.57 Q1907.61 1480.88 1907.61 1475.86 Q1907.61 1472.55 1909.51 1470.26 Q1911.4 1467.96 1914.78 1467.18 M1913.07 1459.79 Q1913.07 1462.48 1914.74 1463.98 Q1916.43 1465.49 1919.46 1465.49 Q1922.47 1465.49 1924.16 1463.98 Q1925.87 1462.48 1925.87 1459.79 Q1925.87 1457.11 1924.16 1455.6 Q1922.47 1454.1 1919.46 1454.1 Q1916.43 1454.1 1914.74 1455.6 Q1913.07 1457.11 1913.07 1459.79 Z" fill="#000000" fill-rule="nonzero" fill-opacity="1" /><path clip-path="url(#clip970)" d="M2327.44 1481.64 L2335.08 1481.64 L2335.08 1455.28 L2326.77 1456.95 L2326.77 1452.69 L2335.04 1451.02 L2339.71 1451.02 L2339.71 1481.64 L2347.35 1481.64 L2347.35 1485.58 L2327.44 1485.58 L2327.44 1481.64 Z" fill="#000000" fill-rule="nonzero" fill-opacity="1" /><path clip-path="url(#clip970)" d="M2366.8 1454.1 Q2363.18 1454.1 2361.36 1457.66 Q2359.55 1461.2 2359.55 1468.33 Q2359.55 1475.44 2361.36 1479.01 Q2363.18 1482.55 2366.8 1482.55 Q2370.43 1482.55 2372.23 1479.01 Q2374.06 1475.44 2374.06 1468.33 Q2374.06 1461.2 2372.23 1457.66 Q2370.43 1454.1 2366.8 1454.1 M2366.8 1450.39 Q2372.61 1450.39 2375.66 1455 Q2378.74 1459.58 2378.74 1468.33 Q2378.74 1477.06 2375.66 1481.67 Q2372.61 1486.25 2366.8 1486.25 Q2360.99 1486.25 2357.91 1481.67 Q2354.85 1477.06 2354.85 1468.33 Q2354.85 1459.58 2357.91 1455 Q2360.99 1450.39 2366.8 1450.39 Z" fill="#000000" fill-rule="nonzero" fill-opacity="1" /><path clip-path="url(#clip970)" d="M1268.58 1522.27 L1268.58 1532.4 L1280.64 1532.4 L1280.64 1536.95 L1268.58 1536.95 L1268.58 1556.3 Q1268.58 1560.66 1269.75 1561.9 Q1270.96 1563.14 1274.62 1563.14 L1280.64 1563.14 L1280.64 1568.04 L1274.62 1568.04 Q1267.84 1568.04 1265.27 1565.53 Q1262.69 1562.98 1262.69 1556.3 L1262.69 1536.95 L1258.39 1536.95 L1258.39 1532.4 L1262.69 1532.4 L1262.69 1522.27 L1268.58 1522.27 Z" fill="#000000" fill-rule="nonzero" fill-opacity="1" /><polyline clip-path="url(#clip970)" style="stroke:#000000; stroke-linecap:round; stroke-linejoin:round; stroke-width:4; stroke-opacity:1; fill:none" points="186.274,1423.18 186.274,47.2441 "/>
<polyline clip-path="url(#clip970)" style="stroke:#000000; stroke-linecap:round; stroke-linejoin:round; stroke-width:4; stroke-opacity:1; fill:none" points="186.274,1384.3 205.172,1384.3 "/>
<polyline clip-path="url(#clip970)" style="stroke:#000000; stroke-linecap:round; stroke-linejoin:round; stroke-width:4; stroke-opacity:1; fill:none" points="186.274,1078.69 205.172,1078.69 "/>
<polyline clip-path="url(#clip970)" style="stroke:#000000; stroke-linecap:round; stroke-linejoin:round; stroke-width:4; stroke-opacity:1; fill:none" points="186.274,773.078 205.172,773.078 "/>
<polyline clip-path="url(#clip970)" style="stroke:#000000; stroke-linecap:round; stroke-linejoin:round; stroke-width:4; stroke-opacity:1; fill:none" points="186.274,467.467 205.172,467.467 "/>
<polyline clip-path="url(#clip970)" style="stroke:#000000; stroke-linecap:round; stroke-linejoin:round; stroke-width:4; stroke-opacity:1; fill:none" points="186.274,161.855 205.172,161.855 "/>
<path clip-path="url(#clip970)" d="M62.9365 1370.1 Q59.3254 1370.1 57.4967 1373.66 Q55.6912 1377.21 55.6912 1384.34 Q55.6912 1391.44 57.4967 1395.01 Q59.3254 1398.55 62.9365 1398.55 Q66.5707 1398.55 68.3763 1395.01 Q70.205 1391.44 70.205 1384.34 Q70.205 1377.21 68.3763 1373.66 Q66.5707 1370.1 62.9365 1370.1 M62.9365 1366.4 Q68.7467 1366.4 71.8022 1371 Q74.8809 1375.59 74.8809 1384.34 Q74.8809 1393.06 71.8022 1397.67 Q68.7467 1402.25 62.9365 1402.25 Q57.1264 1402.25 54.0477 1397.67 Q50.9921 1393.06 50.9921 1384.34 Q50.9921 1375.59 54.0477 1371 Q57.1264 1366.4 62.9365 1366.4 Z" fill="#000000" fill-rule="nonzero" fill-opacity="1" /><path clip-path="url(#clip970)" d="M83.0984 1395.7 L87.9827 1395.7 L87.9827 1401.58 L83.0984 1401.58 L83.0984 1395.7 Z" fill="#000000" fill-rule="nonzero" fill-opacity="1" /><path clip-path="url(#clip970)" d="M108.168 1370.1 Q104.557 1370.1 102.728 1373.66 Q100.922 1377.21 100.922 1384.34 Q100.922 1391.44 102.728 1395.01 Q104.557 1398.55 108.168 1398.55 Q111.802 1398.55 113.608 1395.01 Q115.436 1391.44 115.436 1384.34 Q115.436 1377.21 113.608 1373.66 Q111.802 1370.1 108.168 1370.1 M108.168 1366.4 Q113.978 1366.4 117.033 1371 Q120.112 1375.59 120.112 1384.34 Q120.112 1393.06 117.033 1397.67 Q113.978 1402.25 108.168 1402.25 Q102.358 1402.25 99.2789 1397.67 Q96.2234 1393.06 96.2234 1384.34 Q96.2234 1375.59 99.2789 1371 Q102.358 1366.4 108.168 1366.4 Z" fill="#000000" fill-rule="nonzero" fill-opacity="1" /><path clip-path="url(#clip970)" d="M138.33 1370.1 Q134.719 1370.1 132.89 1373.66 Q131.084 1377.21 131.084 1384.34 Q131.084 1391.44 132.89 1395.01 Q134.719 1398.55 138.33 1398.55 Q141.964 1398.55 143.769 1395.01 Q145.598 1391.44 145.598 1384.34 Q145.598 1377.21 143.769 1373.66 Q141.964 1370.1 138.33 1370.1 M138.33 1366.4 Q144.14 1366.4 147.195 1371 Q150.274 1375.59 150.274 1384.34 Q150.274 1393.06 147.195 1397.67 Q144.14 1402.25 138.33 1402.25 Q132.519 1402.25 129.441 1397.67 Q126.385 1393.06 126.385 1384.34 Q126.385 1375.59 129.441 1371 Q132.519 1366.4 138.33 1366.4 Z" fill="#000000" fill-rule="nonzero" fill-opacity="1" /><path clip-path="url(#clip970)" d="M63.9319 1064.49 Q60.3208 1064.49 58.4921 1068.05 Q56.6865 1071.59 56.6865 1078.72 Q56.6865 1085.83 58.4921 1089.4 Q60.3208 1092.94 63.9319 1092.94 Q67.5661 1092.94 69.3717 1089.4 Q71.2004 1085.83 71.2004 1078.72 Q71.2004 1071.59 69.3717 1068.05 Q67.5661 1064.49 63.9319 1064.49 M63.9319 1060.78 Q69.742 1060.78 72.7976 1065.39 Q75.8763 1069.97 75.8763 1078.72 Q75.8763 1087.45 72.7976 1092.06 Q69.742 1096.64 63.9319 1096.64 Q58.1217 1096.64 55.043 1092.06 Q51.9875 1087.45 51.9875 1078.72 Q51.9875 1069.97 55.043 1065.39 Q58.1217 1060.78 63.9319 1060.78 Z" fill="#000000" fill-rule="nonzero" fill-opacity="1" /><path clip-path="url(#clip970)" d="M84.0938 1090.09 L88.978 1090.09 L88.978 1095.97 L84.0938 1095.97 L84.0938 1090.09 Z" fill="#000000" fill-rule="nonzero" fill-opacity="1" /><path clip-path="url(#clip970)" d="M109.163 1064.49 Q105.552 1064.49 103.723 1068.05 Q101.918 1071.59 101.918 1078.72 Q101.918 1085.83 103.723 1089.4 Q105.552 1092.94 109.163 1092.94 Q112.797 1092.94 114.603 1089.4 Q116.432 1085.83 116.432 1078.72 Q116.432 1071.59 114.603 1068.05 Q112.797 1064.49 109.163 1064.49 M109.163 1060.78 Q114.973 1060.78 118.029 1065.39 Q121.107 1069.97 121.107 1078.72 Q121.107 1087.45 118.029 1092.06 Q114.973 1096.64 109.163 1096.64 Q103.353 1096.64 100.274 1092.06 Q97.2187 1087.45 97.2187 1078.72 Q97.2187 1069.97 100.274 1065.39 Q103.353 1060.78 109.163 1060.78 Z" fill="#000000" fill-rule="nonzero" fill-opacity="1" /><path clip-path="url(#clip970)" d="M129.371 1061.41 L147.728 1061.41 L147.728 1065.34 L133.654 1065.34 L133.654 1073.82 Q134.672 1073.47 135.691 1073.31 Q136.709 1073.12 137.728 1073.12 Q143.515 1073.12 146.894 1076.29 Q150.274 1079.46 150.274 1084.88 Q150.274 1090.46 146.802 1093.56 Q143.33 1096.64 137.01 1096.64 Q134.834 1096.64 132.566 1096.27 Q130.32 1095.9 127.913 1095.16 L127.913 1090.46 Q129.996 1091.59 132.219 1092.15 Q134.441 1092.71 136.918 1092.71 Q140.922 1092.71 143.26 1090.6 Q145.598 1088.49 145.598 1084.88 Q145.598 1081.27 143.26 1079.16 Q140.922 1077.06 136.918 1077.06 Q135.043 1077.06 133.168 1077.47 Q131.316 1077.89 129.371 1078.77 L129.371 1061.41 Z" fill="#000000" fill-rule="nonzero" fill-opacity="1" /><path clip-path="url(#clip970)" d="M62.9365 758.877 Q59.3254 758.877 57.4967 762.441 Q55.6912 765.983 55.6912 773.113 Q55.6912 780.219 57.4967 783.784 Q59.3254 787.326 62.9365 787.326 Q66.5707 787.326 68.3763 783.784 Q70.205 780.219 70.205 773.113 Q70.205 765.983 68.3763 762.441 Q66.5707 758.877 62.9365 758.877 M62.9365 755.173 Q68.7467 755.173 71.8022 759.779 Q74.8809 764.363 74.8809 773.113 Q74.8809 781.839 71.8022 786.446 Q68.7467 791.029 62.9365 791.029 Q57.1264 791.029 54.0477 786.446 Q50.9921 781.839 50.9921 773.113 Q50.9921 764.363 54.0477 759.779 Q57.1264 755.173 62.9365 755.173 Z" fill="#000000" fill-rule="nonzero" fill-opacity="1" /><path clip-path="url(#clip970)" d="M83.0984 784.478 L87.9827 784.478 L87.9827 790.358 L83.0984 790.358 L83.0984 784.478 Z" fill="#000000" fill-rule="nonzero" fill-opacity="1" /><path clip-path="url(#clip970)" d="M98.978 786.423 L106.617 786.423 L106.617 760.057 L98.3067 761.724 L98.3067 757.465 L106.571 755.798 L111.246 755.798 L111.246 786.423 L118.885 786.423 L118.885 790.358 L98.978 790.358 L98.978 786.423 Z" fill="#000000" fill-rule="nonzero" fill-opacity="1" /><path clip-path="url(#clip970)" d="M138.33 758.877 Q134.719 758.877 132.89 762.441 Q131.084 765.983 131.084 773.113 Q131.084 780.219 132.89 783.784 Q134.719 787.326 138.33 787.326 Q141.964 787.326 143.769 783.784 Q145.598 780.219 145.598 773.113 Q145.598 765.983 143.769 762.441 Q141.964 758.877 138.33 758.877 M138.33 755.173 Q144.14 755.173 147.195 759.779 Q150.274 764.363 150.274 773.113 Q150.274 781.839 147.195 786.446 Q144.14 791.029 138.33 791.029 Q132.519 791.029 129.441 786.446 Q126.385 781.839 126.385 773.113 Q126.385 764.363 129.441 759.779 Q132.519 755.173 138.33 755.173 Z" fill="#000000" fill-rule="nonzero" fill-opacity="1" /><path clip-path="url(#clip970)" d="M63.9319 453.265 Q60.3208 453.265 58.4921 456.83 Q56.6865 460.372 56.6865 467.501 Q56.6865 474.608 58.4921 478.173 Q60.3208 481.714 63.9319 481.714 Q67.5661 481.714 69.3717 478.173 Q71.2004 474.608 71.2004 467.501 Q71.2004 460.372 69.3717 456.83 Q67.5661 453.265 63.9319 453.265 M63.9319 449.562 Q69.742 449.562 72.7976 454.168 Q75.8763 458.751 75.8763 467.501 Q75.8763 476.228 72.7976 480.835 Q69.742 485.418 63.9319 485.418 Q58.1217 485.418 55.043 480.835 Q51.9875 476.228 51.9875 467.501 Q51.9875 458.751 55.043 454.168 Q58.1217 449.562 63.9319 449.562 Z" fill="#000000" fill-rule="nonzero" fill-opacity="1" /><path clip-path="url(#clip970)" d="M84.0938 478.867 L88.978 478.867 L88.978 484.747 L84.0938 484.747 L84.0938 478.867 Z" fill="#000000" fill-rule="nonzero" fill-opacity="1" /><path clip-path="url(#clip970)" d="M99.9733 480.812 L107.612 480.812 L107.612 454.446 L99.3021 456.113 L99.3021 451.853 L107.566 450.187 L112.242 450.187 L112.242 480.812 L119.881 480.812 L119.881 484.747 L99.9733 484.747 L99.9733 480.812 Z" fill="#000000" fill-rule="nonzero" fill-opacity="1" /><path clip-path="url(#clip970)" d="M129.371 450.187 L147.728 450.187 L147.728 454.122 L133.654 454.122 L133.654 462.594 Q134.672 462.247 135.691 462.085 Q136.709 461.9 137.728 461.9 Q143.515 461.9 146.894 465.071 Q150.274 468.242 150.274 473.659 Q150.274 479.237 146.802 482.339 Q143.33 485.418 137.01 485.418 Q134.834 485.418 132.566 485.048 Q130.32 484.677 127.913 483.936 L127.913 479.237 Q129.996 480.372 132.219 480.927 Q134.441 481.483 136.918 481.483 Q140.922 481.483 143.26 479.376 Q145.598 477.27 145.598 473.659 Q145.598 470.048 143.26 467.941 Q140.922 465.835 136.918 465.835 Q135.043 465.835 133.168 466.251 Q131.316 466.668 129.371 467.548 L129.371 450.187 Z" fill="#000000" fill-rule="nonzero" fill-opacity="1" /><path clip-path="url(#clip970)" d="M62.9365 147.654 Q59.3254 147.654 57.4967 151.219 Q55.6912 154.761 55.6912 161.89 Q55.6912 168.997 57.4967 172.561 Q59.3254 176.103 62.9365 176.103 Q66.5707 176.103 68.3763 172.561 Q70.205 168.997 70.205 161.89 Q70.205 154.761 68.3763 151.219 Q66.5707 147.654 62.9365 147.654 M62.9365 143.95 Q68.7467 143.95 71.8022 148.557 Q74.8809 153.14 74.8809 161.89 Q74.8809 170.617 71.8022 175.223 Q68.7467 179.807 62.9365 179.807 Q57.1264 179.807 54.0477 175.223 Q50.9921 170.617 50.9921 161.89 Q50.9921 153.14 54.0477 148.557 Q57.1264 143.95 62.9365 143.95 Z" fill="#000000" fill-rule="nonzero" fill-opacity="1" /><path clip-path="url(#clip970)" d="M83.0984 173.256 L87.9827 173.256 L87.9827 179.135 L83.0984 179.135 L83.0984 173.256 Z" fill="#000000" fill-rule="nonzero" fill-opacity="1" /><path clip-path="url(#clip970)" d="M102.196 175.2 L118.515 175.2 L118.515 179.135 L96.5706 179.135 L96.5706 175.2 Q99.2326 172.446 103.816 167.816 Q108.422 163.163 109.603 161.821 Q111.848 159.298 112.728 157.561 Q113.631 155.802 113.631 154.112 Q113.631 151.358 111.686 149.622 Q109.765 147.886 106.663 147.886 Q104.464 147.886 102.01 148.649 Q99.5798 149.413 96.8021 150.964 L96.8021 146.242 Q99.6261 145.108 102.08 144.529 Q104.534 143.95 106.571 143.95 Q111.941 143.95 115.135 146.636 Q118.33 149.321 118.33 153.811 Q118.33 155.941 117.52 157.862 Q116.733 159.761 114.626 162.353 Q114.047 163.024 110.946 166.242 Q107.844 169.436 102.196 175.2 Z" fill="#000000" fill-rule="nonzero" fill-opacity="1" /><path clip-path="url(#clip970)" d="M138.33 147.654 Q134.719 147.654 132.89 151.219 Q131.084 154.761 131.084 161.89 Q131.084 168.997 132.89 172.561 Q134.719 176.103 138.33 176.103 Q141.964 176.103 143.769 172.561 Q145.598 168.997 145.598 161.89 Q145.598 154.761 143.769 151.219 Q141.964 147.654 138.33 147.654 M138.33 143.95 Q144.14 143.95 147.195 148.557 Q150.274 153.14 150.274 161.89 Q150.274 170.617 147.195 175.223 Q144.14 179.807 138.33 179.807 Q132.519 179.807 129.441 175.223 Q126.385 170.617 126.385 161.89 Q126.385 153.14 129.441 148.557 Q132.519 143.95 138.33 143.95 Z" fill="#000000" fill-rule="nonzero" fill-opacity="1" /><polyline clip-path="url(#clip971)" style="stroke:#009af9; stroke-linecap:round; stroke-linejoin:round; stroke-width:8; stroke-opacity:1; fill:none" points="186.274,161.855 188.443,149.557 190.611,137.135 192.78,124.589 194.949,111.916 197.117,99.115 199.286,86.1857 201.455,728.713 203.623,722.118 205.792,715.456 207.961,708.727 210.129,701.931 212.298,695.066 214.466,688.132 216.635,681.129 218.804,674.055 220.972,666.909 223.141,659.692 225.31,652.402 227.478,645.039 229.647,637.602 231.816,630.09 233.984,622.503 236.153,614.839 238.322,607.098 240.49,599.279 242.659,591.381 244.828,583.404 246.996,575.347 249.165,567.209 251.334,558.989 253.502,550.686 255.671,542.299 257.839,533.829 260.008,954.786 262.177,950.465 264.345,946.101 266.514,941.693 268.683,937.24 270.851,932.742 273.02,1156.25 275.189,1153.96 277.357,1151.64 279.526,1149.3 281.695,1146.93 283.863,1144.55 286.032,1142.13 288.201,1139.7 290.369,1137.24 292.538,1134.75 294.707,1132.24 296.875,1129.7 299.044,1127.14 301.212,1124.56 303.381,1121.94 305.55,1119.3 307.718,1116.64 309.887,1113.95 312.056,1111.23 314.224,1108.48 316.393,1105.7 318.562,1102.9 320.73,1100.07 322.899,1097.21 325.068,1094.32 327.236,1091.4 329.405,1088.46 331.574,1085.48 333.742,1082.48 335.911,1079.44 338.08,1076.37 340.248,1073.27 342.417,1070.15 344.585,1225.64 346.754,1224.05 348.923,1222.43 351.091,1220.81 353.26,1219.16 355.429,1217.5 357.597,1215.82 359.766,1214.13 361.935,1212.41 364.103,1210.69 366.272,1208.94 368.441,1207.17 370.609,1205.39 372.778,1203.59 374.947,1201.77 377.115,1199.94 379.284,1198.08 381.453,1196.21 383.621,1194.32 385.79,1192.41 387.959,1190.48 390.127,1188.53 392.296,1186.56 394.464,1184.57 396.633,1182.56 398.802,1180.53 400.97,1178.48 403.139,1176.41 405.308,1174.32 407.476,1172.2 409.645,1170.07 411.814,1167.92 413.982,1165.74 416.151,1163.54 418.32,1161.32 420.488,1159.08 422.657,1156.81 424.826,1154.52 426.994,1152.21 429.163,1149.87 431.332,1147.52 433.5,1145.13 435.669,1142.73 437.837,1140.3 440.006,1137.84 442.175,1135.36 444.343,1132.86 446.512,1130.33 448.681,1127.77 450.849,1125.19 453.018,1122.59 455.187,1119.95 457.355,1117.29 459.524,1114.61 461.693,1111.9 463.861,1109.15 466.03,1106.39 468.199,1103.59 470.367,1100.77 472.536,1097.91 474.705,1095.03 476.873,1092.12 479.042,1089.18 481.21,1086.21 483.379,1083.22 485.548,1080.19 487.716,1077.13 489.885,1074.04 492.054,1070.92 494.222,1067.76 496.391,1064.58 498.56,1061.36 500.728,1058.11 502.897,1054.83 505.066,1051.52 507.234,1048.17 509.403,1044.79 511.572,1041.37 513.74,1037.92 515.909,1034.44 518.078,1030.92 520.246,1027.36 522.415,1023.77 524.583,1020.15 526.752,1016.48 528.921,1012.78 531.089,1009.04 533.258,1005.27 535.427,1001.46 537.595,997.604 539.764,993.714 541.933,989.784 544.101,985.816 546.27,981.807 548.439,977.757 550.607,973.667 552.776,969.536 554.945,965.364 557.113,961.149 559.282,956.892 561.451,952.592 563.619,948.249 565.788,943.862 567.956,939.431 570.125,934.955 572.294,930.435 574.462,925.869 576.631,921.257 578.8,916.599 580.968,911.893 583.137,907.141 585.306,902.34 587.474,897.492 589.643,892.594 591.812,887.648 593.98,882.651 596.149,877.604 598.318,1128.4 600.486,1125.83 602.655,1123.23 604.824,1252.45 606.992,1251.13 609.161,1249.79 611.33,1248.43 613.498,1247.07 615.667,1245.68 617.835,1244.29 620.004,1242.88 622.173,1241.46 624.341,1240.02 626.51,1311.44 628.679,1310.7 630.847,1309.96 633.016,1346.76 635.185,1346.38 637.353,1346 639.522,1345.61 641.691,1345.22 643.859,1344.83 646.028,1344.43 648.197,1344.03 650.365,1343.63 652.534,1363.76 654.703,1363.55 656.871,1363.34 659.04,1363.13 661.208,1362.92 663.377,1362.7 665.546,1362.49 667.714,1362.27 669.883,1373.17 672.052,1373.06 674.22,1372.95 676.389,1372.83 678.558,1372.72 680.726,1372.6 682.895,1372.48 685.064,1372.37 687.232,1372.25 689.401,1372.12 691.57,1372 693.738,1371.88 695.907,1371.75 698.076,1371.63 700.244,1371.5 702.413,1371.37 704.581,1371.24 706.75,1371.11 708.919,1370.98 711.087,1370.84 713.256,1370.71 715.425,1370.57 717.593,1370.43 719.762,1370.29 721.931,1370.15 724.099,1370.01 726.268,1369.87 728.437,1369.72 730.605,1369.57 732.774,1369.43 734.943,1369.28 737.111,1369.13 739.28,1368.97 741.449,1368.82 743.617,1368.66 745.786,1368.51 747.954,1368.35 750.123,1368.19 752.292,1368.02 754.46,1367.86 756.629,1367.69 758.798,1367.53 760.966,1367.36 763.135,1367.19 765.304,1367.02 767.472,1366.84 769.641,1366.67 771.81,1366.49 773.978,1366.31 776.147,1366.13 778.316,1365.95 780.484,1365.76 782.653,1365.57 784.822,1365.39 786.99,1365.2 789.159,1365 791.328,1364.81 793.496,1364.61 795.665,1364.42 797.833,1364.22 800.002,1364.01 802.171,1363.81 804.339,1363.6 806.508,1363.4 808.677,1363.18 810.845,1362.97 813.014,1362.76 815.183,1362.54 817.351,1362.32 819.52,1362.1 821.689,1361.88 823.857,1361.65 826.026,1361.42 828.195,1361.19 830.363,1360.96 832.532,1360.73 834.701,1360.49 836.869,1360.25 839.038,1360.01 841.206,1372.03 843.375,1371.91 845.544,1371.78 847.712,1371.66 849.881,1371.53 852.05,1371.4 854.218,1371.27 856.387,1371.14 858.556,1371.01 860.724,1370.88 862.893,1370.74 865.062,1370.6 867.23,1370.47 869.399,1370.33 871.568,1370.19 873.736,1370.04 875.905,1369.9 878.074,1369.76 880.242,1369.61 882.411,1369.46 884.579,1369.31 886.748,1369.16 888.917,1369.01 891.085,1368.86 893.254,1376.5 895.423,1376.42 897.591,1376.34 899.76,1376.26 901.929,1376.18 904.097,1376.1 906.266,1376.02 908.435,1375.93 910.603,1375.85 912.772,1375.77 914.941,1375.68 917.109,1375.59 919.278,1375.51 921.447,1375.42 923.615,1379.81 925.784,1379.77 927.952,1379.72 930.121,1379.68 932.29,1379.63 934.458,1379.58 936.627,1379.54 938.796,1379.49 940.964,1379.44 943.133,1379.39 945.302,1379.34 947.47,1379.29 949.639,1379.24 951.808,1379.19 953.976,1379.14 956.145,1379.09 958.314,1379.03 960.482,1378.98 962.651,1378.93 964.82,1378.87 966.988,1378.82 969.157,1381.53 971.326,1381.5 973.494,1381.48 975.663,1381.45 977.831,1381.42 980,1381.39 982.169,1381.36 984.337,1381.33 986.506,1381.3 988.675,1381.27 990.843,1381.24 993.012,1381.21 995.181,1381.18 997.349,1381.15 999.518,1381.12 1001.69,1381.08 1003.86,1381.05 1006.02,1381.02 1008.19,1380.99 1010.36,1380.95 1012.53,1380.92 1014.7,1380.88 1016.87,1380.85 1019.04,1380.82 1021.2,1380.78 1023.37,1380.75 1025.54,1380.71 1027.71,1380.67 1029.88,1380.64 1032.05,1380.6 1034.22,1380.56 1036.39,1380.53 1038.55,1380.49 1040.72,1380.45 1042.89,1380.41 1045.06,1380.37 1047.23,1380.33 1049.4,1380.29 1051.57,1380.25 1053.73,1380.21 1055.9,1380.17 1058.07,1380.13 1060.24,1380.09 1062.41,1380.04 1064.58,1380 1066.75,1379.96 1068.91,1379.91 1071.08,1379.87 1073.25,1379.82 1075.42,1379.78 1077.59,1379.73 1079.76,1379.69 1081.93,1379.64 1084.1,1379.6 1086.26,1379.55 1088.43,1379.5 1090.6,1379.45 1092.77,1379.4 1094.94,1379.35 1097.11,1379.3 1099.28,1379.25 1101.44,1379.2 1103.61,1379.15 1105.78,1379.1 1107.95,1379.05 1110.12,1378.99 1112.29,1378.94 1114.46,1378.89 1116.63,1381.57 1118.79,1381.54 1120.96,1381.51 1123.13,1381.48 1125.3,1381.45 1127.47,1381.43 1129.64,1381.4 1131.81,1381.37 1133.97,1381.34 1136.14,1381.31 1138.31,1381.28 1140.48,1381.25 1142.65,1381.22 1144.82,1381.19 1146.99,1381.16 1149.15,1381.12 1151.32,1381.09 1153.49,1381.06 1155.66,1381.03 1157.83,1380.99 1160,1380.96 1162.17,1380.93 1164.34,1380.89 1166.5,1380.86 1168.67,1380.82 1170.84,1380.79 1173.01,1380.75 1175.18,1380.72 1177.35,1380.68 1179.52,1380.65 1181.68,1380.61 1183.85,1380.57 1186.02,1380.53 1188.19,1380.5 1190.36,1380.46 1192.53,1380.42 1194.7,1380.38 1196.87,1380.34 1199.03,1380.3 1201.2,1380.26 1203.37,1382.26 1205.54,1382.24 1207.71,1383.26 1209.88,1383.25 1212.05,1383.24 1214.21,1383.23 1216.38,1383.22 1218.55,1383.21 1220.72,1383.2 1222.89,1383.18 1225.06,1383.17 1227.23,1383.16 1229.39,1383.15 1231.56,1383.14 1233.73,1383.13 1235.9,1383.12 1238.07,1383.1 1240.24,1383.09 1242.41,1383.08 1244.58,1383.07 1246.74,1383.05 1248.91,1383.04 1251.08,1383.03 1253.25,1383.02 1255.42,1383.65 1257.59,1383.65 1259.76,1383.64 1261.92,1383.63 1264.09,1383.63 1266.26,1383.62 1268.43,1383.61 1270.6,1383.6 1272.77,1383.6 1274.94,1383.59 1277.11,1383.58 1279.27,1383.58 1281.44,1383.57 1283.61,1383.56 1285.78,1383.55 1287.95,1383.55 1290.12,1383.54 1292.29,1383.53 1294.45,1383.52 1296.62,1383.52 1298.79,1383.51 1300.96,1383.5 1303.13,1383.49 1305.3,1383.48 1307.47,1383.48 1309.63,1383.47 1311.8,1383.46 1313.97,1383.45 1316.14,1383.44 1318.31,1383.43 1320.48,1383.42 1322.65,1383.42 1324.82,1383.41 1326.98,1383.4 1329.15,1383.39 1331.32,1383.38 1333.49,1383.37 1335.66,1383.36 1337.83,1383.35 1340,1383.34 1342.16,1383.33 1344.33,1383.81 1346.5,1383.81 1348.67,1383.8 1350.84,1383.8 1353.01,1383.79 1355.18,1383.79 1357.35,1383.78 1359.51,1383.78 1361.68,1383.77 1363.85,1383.77 1366.02,1383.76 1368.19,1383.75 1370.36,1383.75 1372.53,1383.74 1374.69,1383.74 1376.86,1383.73 1379.03,1383.73 1381.2,1383.72 1383.37,1383.72 1385.54,1383.71 1387.71,1383.7 1389.88,1383.7 1392.04,1383.69 1394.21,1383.69 1396.38,1383.68 1398.55,1383.67 1400.72,1383.67 1402.89,1383.66 1405.06,1383.65 1407.22,1383.65 1409.39,1383.64 1411.56,1383.63 1413.73,1383.63 1415.9,1383.62 1418.07,1383.61 1420.24,1383.61 1422.4,1383.6 1424.57,1383.59 1426.74,1383.59 1428.91,1383.58 1431.08,1383.57 1433.25,1383.56 1435.42,1383.56 1437.59,1383.55 1439.75,1383.54 1441.92,1383.53 1444.09,1383.53 1446.26,1383.52 1448.43,1383.51 1450.6,1383.5 1452.77,1383.49 1454.93,1383.49 1457.1,1383.48 1459.27,1383.47 1461.44,1383.46 1463.61,1383.45 1465.78,1383.44 1467.95,1383.44 1470.12,1383.43 1472.28,1383.42 1474.45,1383.41 1476.62,1383.4 1478.79,1383.39 1480.96,1383.38 1483.13,1383.37 1485.3,1383.36 1487.46,1383.35 1489.63,1383.34 1491.8,1383.34 1493.97,1383.33 1496.14,1383.32 1498.31,1383.31 1500.48,1383.3 1502.64,1383.29 1504.81,1383.28 1506.98,1383.26 1509.15,1383.25 1511.32,1383.24 1513.49,1383.23 1515.66,1383.22 1517.83,1383.21 1519.99,1383.2 1522.16,1383.19 1524.33,1383.18 1526.5,1383.17 1528.67,1383.16 1530.84,1383.14 1533.01,1383.13 1535.17,1383.12 1537.34,1383.11 1539.51,1383.1 1541.68,1383.09 1543.85,1383.07 1546.02,1383.06 1548.19,1383.05 1550.36,1383.04 1552.52,1383.02 1554.69,1383.01 1556.86,1383 1559.03,1382.98 1561.2,1382.97 1563.37,1382.96 1565.54,1382.94 1567.7,1382.93 1569.87,1382.92 1572.04,1382.9 1574.21,1382.89 1576.38,1382.87 1578.55,1382.86 1580.72,1382.85 1582.88,1382.83 1585.05,1382.82 1587.22,1382.8 1589.39,1382.79 1591.56,1382.77 1593.73,1382.76 1595.9,1382.74 1598.07,1382.72 1600.23,1382.71 1602.4,1382.69 1604.57,1382.68 1606.74,1382.66 1608.91,1382.64 1611.08,1382.63 1613.25,1382.61 1615.41,1382.59 1617.58,1382.58 1619.75,1382.56 1621.92,1382.54 1624.09,1382.52 1626.26,1382.5 1628.43,1382.49 1630.6,1382.47 1632.76,1382.45 1634.93,1382.43 1637.1,1382.41 1639.27,1382.39 1641.44,1382.37 1643.61,1382.35 1645.78,1382.34 1647.94,1382.32 1650.11,1382.3 1652.28,1382.28 1654.45,1382.26 1656.62,1382.23 1658.79,1382.21 1660.96,1382.19 1663.13,1382.17 1665.29,1382.15 1667.46,1382.13 1669.63,1382.11 1671.8,1382.08 1673.97,1382.06 1676.14,1382.04 1678.31,1382.02 1680.47,1383.15 1682.64,1383.14 1684.81,1383.12 1686.98,1383.11 1689.15,1383.1 1691.32,1383.09 1693.49,1383.08 1695.65,1383.06 1697.82,1383.05 1699.99,1383.04 1702.16,1383.03 1704.33,1383.01 1706.5,1383 1708.67,1382.99 1710.84,1382.97 1713,1382.96 1715.17,1382.95 1717.34,1382.93 1719.51,1382.92 1721.68,1382.91 1723.85,1382.89 1726.02,1382.88 1728.18,1382.86 1730.35,1382.85 1732.52,1382.83 1734.69,1383.56 1736.86,1383.55 1739.03,1383.54 1741.2,1383.54 1743.37,1383.53 1745.53,1383.52 1747.7,1383.51 1749.87,1383.51 1752.04,1383.5 1754.21,1383.49 1756.38,1383.48 1758.55,1383.47 1760.71,1383.47 1762.88,1383.46 1765.05,1383.45 1767.22,1383.44 1769.39,1383.43 1771.56,1383.42 1773.73,1383.41 1775.89,1383.4 1778.06,1383.4 1780.23,1383.39 1782.4,1383.38 1784.57,1383.37 1786.74,1383.36 1788.91,1383.35 1791.08,1383.34 1793.24,1383.33 1795.41,1383.32 1797.58,1383.31 1799.75,1383.3 1801.92,1383.29 1804.09,1383.28 1806.26,1383.27 1808.42,1383.26 1810.59,1383.25 1812.76,1383.24 1814.93,1383.23 1817.1,1383.22 1819.27,1383.21 1821.44,1383.2 1823.61,1383.18 1825.77,1383.17 1827.94,1383.16 1830.11,1383.15 1832.28,1383.14 1834.45,1383.13 1836.62,1383.11 1838.79,1383.1 1840.95,1383.09 1843.12,1383.08 1845.29,1383.07 1847.46,1383.05 1849.63,1383.04 1851.8,1383.03 1853.97,1383.02 1856.13,1383 1858.3,1382.99 1860.47,1382.98 1862.64,1382.96 1864.81,1382.95 1866.98,1382.94 1869.15,1382.92 1871.32,1382.91 1873.48,1382.9 1875.65,1382.88 1877.82,1382.87 1879.99,1382.85 1882.16,1382.84 1884.33,1382.82 1886.5,1382.81 1888.66,1382.79 1890.83,1382.78 1893,1382.76 1895.17,1382.75 1897.34,1382.73 1899.51,1382.72 1901.68,1382.7 1903.85,1382.68 1906.01,1382.67 1908.18,1382.65 1910.35,1382.63 1912.52,1382.62 1914.69,1382.6 1916.86,1383.44 1919.03,1383.43 1921.19,1383.42 1923.36,1383.42 1925.53,1383.41 1927.7,1383.4 1929.87,1383.39 1932.04,1383.38 1934.21,1383.37 1936.37,1383.36 1938.54,1383.35 1940.71,1383.82 1942.88,1383.82 1945.05,1383.81 1947.22,1383.81 1949.39,1383.8 1951.56,1383.8 1953.72,1383.79 1955.89,1383.79 1958.06,1383.78 1960.23,1383.78 1962.4,1383.77 1964.57,1384.03 1966.74,1384.03 1968.9,1384.03 1971.07,1384.02 1973.24,1384.16 1975.41,1384.16 1977.58,1384.16 1979.75,1384.16 1981.92,1384.16 1984.09,1384.15 1986.25,1384.15 1988.42,1384.15 1990.59,1384.15 1992.76,1384.15 1994.93,1384.15 1997.1,1384.15 1999.27,1384.14 2001.43,1384.22 2003.6,1384.22 2005.77,1384.22 2007.94,1384.22 2010.11,1384.22 2012.28,1384.22 2014.45,1384.22 2016.62,1384.22 2018.78,1384.21 2020.95,1384.21 2023.12,1384.21 2025.29,1384.21 2027.46,1384.21 2029.63,1384.21 2031.8,1384.21 2033.96,1384.21 2036.13,1384.21 2038.3,1384.21 2040.47,1384.21 2042.64,1384.2 2044.81,1384.2 2046.98,1384.2 2049.14,1384.2 2051.31,1384.2 2053.48,1384.2 2055.65,1384.2 2057.82,1384.2 2059.99,1384.2 2062.16,1384.2 2064.33,1384.19 2066.49,1384.19 2068.66,1384.19 2070.83,1384.19 2073,1384.19 2075.17,1384.19 2077.34,1384.19 2079.51,1384.19 2081.67,1384.19 2083.84,1384.18 2086.01,1384.18 2088.18,1384.18 2090.35,1384.18 2092.52,1384.18 2094.69,1384.18 2096.86,1384.18 2099.02,1384.24 2101.19,1384.24 2103.36,1384.24 2105.53,1384.24 2107.7,1384.24 2109.87,1384.24 2112.04,1384.23 2114.2,1384.23 2116.37,1384.23 2118.54,1384.23 2120.71,1384.23 2122.88,1384.23 2125.05,1384.23 2127.22,1384.23 2129.38,1384.23 2131.55,1384.23 2133.72,1384.23 2135.89,1384.23 2138.06,1384.23 2140.23,1384.23 2142.4,1384.22 2144.57,1384.22 2146.73,1384.22 2148.9,1384.22 2151.07,1384.22 2153.24,1384.22 2155.41,1384.22 2157.58,1384.22 2159.75,1384.22 2161.91,1384.22 2164.08,1384.22 2166.25,1384.22 2168.42,1384.21 2170.59,1384.21 2172.76,1384.21 2174.93,1384.21 2177.1,1384.21 2179.26,1384.21 2181.43,1384.21 2183.6,1384.21 2185.77,1384.21 2187.94,1384.21 2190.11,1384.21 2192.28,1384.2 2194.44,1384.2 2196.61,1384.2 2198.78,1384.2 2200.95,1384.2 2203.12,1384.2 2205.29,1384.2 2207.46,1384.2 2209.62,1384.2 2211.79,1384.2 2213.96,1384.19 2216.13,1384.19 2218.3,1384.19 2220.47,1384.19 2222.64,1384.19 2224.81,1384.19 2226.97,1384.19 2229.14,1384.19 2231.31,1384.19 2233.48,1384.18 2235.65,1384.18 2237.82,1384.18 2239.99,1384.18 2242.15,1384.18 2244.32,1384.18 2246.49,1384.18 2248.66,1384.18 2250.83,1384.18 2253,1384.17 2255.17,1384.17 2257.34,1384.17 2259.5,1384.17 2261.67,1384.17 2263.84,1384.17 2266.01,1384.17 2268.18,1384.16 2270.35,1384.16 2272.52,1384.16 2274.68,1384.16 2276.85,1384.16 2279.02,1384.16 2281.19,1384.16 2283.36,1384.15 2285.53,1384.15 2287.7,1384.15 2289.87,1384.15 2292.03,1384.15 2294.2,1384.15 2296.37,1384.15 2298.54,1384.14 2300.71,1384.14 2302.88,1384.14 2305.05,1384.14 2307.21,1384.14 2309.38,1384.14 2311.55,1384.13 2313.72,1384.13 2315.89,1384.13 2318.06,1384.13 2320.23,1384.13 2322.39,1384.13 2324.56,1384.12 2326.73,1384.12 2328.9,1384.12 2331.07,1384.12 2333.24,1384.12 2335.41,1384.12 2337.58,1384.11 2339.74,1384.11 2341.91,1384.11 2344.08,1384.11 2346.25,1384.11 2348.42,1384.1 2350.59,1384.1 2352.76,1384.1 "/>
<path clip-path="url(#clip970)" d="M1974.79 196.789 L2280.54 196.789 L2280.54 93.1086 L1974.79 93.1086  Z" fill="#ffffff" fill-rule="evenodd" fill-opacity="1"/>
<polyline clip-path="url(#clip970)" style="stroke:#000000; stroke-linecap:round; stroke-linejoin:round; stroke-width:4; stroke-opacity:1; fill:none" points="1974.79,196.789 2280.54,196.789 2280.54,93.1086 1974.79,93.1086 1974.79,196.789 "/>
<polyline clip-path="url(#clip970)" style="stroke:#009af9; stroke-linecap:round; stroke-linejoin:round; stroke-width:8; stroke-opacity:1; fill:none" points="1998.87,144.949 2143.3,144.949 "/>
<path clip-path="url(#clip970)" d="M2167.37 151.997 L2167.37 136.303 L2171.63 136.303 L2171.63 151.835 Q2171.63 155.516 2173.07 157.368 Q2174.5 159.196 2177.37 159.196 Q2180.82 159.196 2182.81 156.997 Q2184.82 154.798 2184.82 151.002 L2184.82 136.303 L2189.08 136.303 L2189.08 162.229 L2184.82 162.229 L2184.82 158.247 Q2183.27 160.608 2181.21 161.766 Q2179.18 162.9 2176.47 162.9 Q2172 162.9 2169.69 160.122 Q2167.37 157.344 2167.37 151.997 M2178.09 135.678 L2178.09 135.678 Z" fill="#000000" fill-rule="nonzero" fill-opacity="1" /><path clip-path="url(#clip970)" d="M2197.46 126.21 L2207.28 126.21 L2207.28 129.52 L2201.72 129.52 L2201.72 165.168 L2207.28 165.168 L2207.28 168.479 L2197.46 168.479 L2197.46 126.21 Z" fill="#000000" fill-rule="nonzero" fill-opacity="1" /><path clip-path="url(#clip970)" d="M2217.76 158.293 L2225.4 158.293 L2225.4 131.928 L2217.09 133.595 L2217.09 129.335 L2225.36 127.669 L2230.03 127.669 L2230.03 158.293 L2237.67 158.293 L2237.67 162.229 L2217.76 162.229 L2217.76 158.293 Z" fill="#000000" fill-rule="nonzero" fill-opacity="1" /><path clip-path="url(#clip970)" d="M2256.47 126.21 L2256.47 168.479 L2246.65 168.479 L2246.65 165.168 L2252.19 165.168 L2252.19 129.52 L2246.65 129.52 L2246.65 126.21 L2256.47 126.21 Z" fill="#000000" fill-rule="nonzero" fill-opacity="1" /></svg>
