<?xml version="1.0" encoding="utf-8"?>
<svg xmlns="http://www.w3.org/2000/svg" xmlns:xlink="http://www.w3.org/1999/xlink" width="600" height="400" viewBox="0 0 2400 1600">
<defs>
  <clipPath id="clip000">
    <rect x="0" y="0" width="2400" height="1600"/>
  </clipPath>
</defs>
<path clip-path="url(#clip000)" d="M0 1600 L2400 1600 L2400 0 L0 0  Z" fill="#ffffff" fill-rule="evenodd" fill-opacity="1"/>
<defs>
  <clipPath id="clip001">
    <rect x="112" y="47" width="2242" height="1377"/>
  </clipPath>
</defs>
<path clip-path="url(#clip000)" d="M112.177 1423.18 L2352.76 1423.18 L2352.76 47.2441 L112.177 47.2441  Z" fill="#ffffff" fill-rule="evenodd" fill-opacity="1"/>
<polyline clip-path="url(#clip001)" style="stroke:#000000; stroke-linecap:round; stroke-linejoin:round; stroke-width:2; stroke-opacity:0.1; fill:none" points="112.177,1423.18 112.177,47.2441 "/>
<polyline clip-path="url(#clip001)" style="stroke:#000000; stroke-linecap:round; stroke-linejoin:round; stroke-width:2; stroke-opacity:0.1; fill:none" points="560.293,1423.18 560.293,47.2441 "/>
<polyline clip-path="url(#clip001)" style="stroke:#000000; stroke-linecap:round; stroke-linejoin:round; stroke-width:2; stroke-opacity:0.1; fill:none" points="1008.41,1423.18 1008.41,47.2441 "/>
<polyline clip-path="url(#clip001)" style="stroke:#000000; stroke-linecap:round; stroke-linejoin:round; stroke-width:2; stroke-opacity:0.1; fill:none" points="1456.52,1423.18 1456.52,47.2441 "/>
<polyline clip-path="url(#clip001)" style="stroke:#000000; stroke-linecap:round; stroke-linejoin:round; stroke-width:2; stroke-opacity:0.1; fill:none" points="1904.64,1423.18 1904.64,47.2441 "/>
<polyline clip-path="url(#clip001)" style="stroke:#000000; stroke-linecap:round; stroke-linejoin:round; stroke-width:2; stroke-opacity:0.1; fill:none" points="2352.76,1423.18 2352.76,47.2441 "/>
<polyline clip-path="url(#clip001)" style="stroke:#000000; stroke-linecap:round; stroke-linejoin:round; stroke-width:2; stroke-opacity:0.1; fill:none" points="112.177,1421.52 2352.76,1421.52 "/>
<polyline clip-path="url(#clip001)" style="stroke:#000000; stroke-linecap:round; stroke-linejoin:round; stroke-width:2; stroke-opacity:0.1; fill:none" points="112.177,1114.83 2352.76,1114.83 "/>
<polyline clip-path="url(#clip001)" style="stroke:#000000; stroke-linecap:round; stroke-linejoin:round; stroke-width:2; stroke-opacity:0.1; fill:none" points="112.177,808.136 2352.76,808.136 "/>
<polyline clip-path="url(#clip001)" style="stroke:#000000; stroke-linecap:round; stroke-linejoin:round; stroke-width:2; stroke-opacity:0.1; fill:none" points="112.177,501.443 2352.76,501.443 "/>
<polyline clip-path="url(#clip001)" style="stroke:#000000; stroke-linecap:round; stroke-linejoin:round; stroke-width:2; stroke-opacity:0.1; fill:none" points="112.177,194.75 2352.76,194.75 "/>
<polyline clip-path="url(#clip000)" style="stroke:#000000; stroke-linecap:round; stroke-linejoin:round; stroke-width:4; stroke-opacity:1; fill:none" points="112.177,1423.18 2352.76,1423.18 "/>
<polyline clip-path="url(#clip000)" style="stroke:#000000; stroke-linecap:round; stroke-linejoin:round; stroke-width:4; stroke-opacity:1; fill:none" points="112.177,1423.18 112.177,1404.28 "/>
<polyline clip-path="url(#clip000)" style="stroke:#000000; stroke-linecap:round; stroke-linejoin:round; stroke-width:4; stroke-opacity:1; fill:none" points="560.293,1423.18 560.293,1404.28 "/>
<polyline clip-path="url(#clip000)" style="stroke:#000000; stroke-linecap:round; stroke-linejoin:round; stroke-width:4; stroke-opacity:1; fill:none" points="1008.41,1423.18 1008.41,1404.28 "/>
<polyline clip-path="url(#clip000)" style="stroke:#000000; stroke-linecap:round; stroke-linejoin:round; stroke-width:4; stroke-opacity:1; fill:none" points="1456.52,1423.18 1456.52,1404.28 "/>
<polyline clip-path="url(#clip000)" style="stroke:#000000; stroke-linecap:round; stroke-linejoin:round; stroke-width:4; stroke-opacity:1; fill:none" points="1904.64,1423.18 1904.64,1404.28 "/>
<polyline clip-path="url(#clip000)" style="stroke:#000000; stroke-linecap:round; stroke-linejoin:round; stroke-width:4; stroke-opacity:1; fill:none" points="2352.76,1423.18 2352.76,1404.28 "/>
<path clip-path="url(#clip000)" d="M112.177 1454.1 Q108.566 1454.1 106.737 1457.66 Q104.932 1461.2 104.932 1468.33 Q104.932 1475.44 106.737 1479.01 Q108.566 1482.55 112.177 1482.55 Q115.811 1482.55 117.617 1479.01 Q119.446 1475.44 119.446 1468.33 Q119.446 1461.2 117.617 1457.66 Q115.811 1454.1 112.177 1454.1 M112.177 1450.39 Q117.987 1450.39 121.043 1455 Q124.122 1459.58 124.122 1468.33 Q124.122 1477.06 121.043 1481.67 Q117.987 1486.25 112.177 1486.25 Q106.367 1486.25 103.288 1481.67 Q100.233 1477.06 100.233 1468.33 Q100.233 1459.58 103.288 1455 Q106.367 1450.39 112.177 1450.39 Z" fill="#000000" fill-rule="nonzero" fill-opacity="1" /><path clip-path="url(#clip000)" d="M554.946 1481.64 L571.265 1481.64 L571.265 1485.58 L549.321 1485.58 L549.321 1481.64 Q551.983 1478.89 556.566 1474.26 Q561.173 1469.61 562.353 1468.27 Q564.598 1465.74 565.478 1464.01 Q566.381 1462.25 566.381 1460.56 Q566.381 1457.8 564.436 1456.07 Q562.515 1454.33 559.413 1454.33 Q557.214 1454.33 554.761 1455.09 Q552.33 1455.86 549.552 1457.41 L549.552 1452.69 Q552.376 1451.55 554.83 1450.97 Q557.284 1450.39 559.321 1450.39 Q564.691 1450.39 567.885 1453.08 Q571.08 1455.77 571.08 1460.26 Q571.08 1462.39 570.27 1464.31 Q569.483 1466.2 567.376 1468.8 Q566.798 1469.47 563.696 1472.69 Q560.594 1475.88 554.946 1481.64 Z" fill="#000000" fill-rule="nonzero" fill-opacity="1" /><path clip-path="url(#clip000)" d="M1011.42 1455.09 L999.612 1473.54 L1011.42 1473.54 L1011.42 1455.09 M1010.19 1451.02 L1016.07 1451.02 L1016.07 1473.54 L1021 1473.54 L1021 1477.43 L1016.07 1477.43 L1016.07 1485.58 L1011.42 1485.58 L1011.42 1477.43 L995.816 1477.43 L995.816 1472.92 L1010.19 1451.02 Z" fill="#000000" fill-rule="nonzero" fill-opacity="1" /><path clip-path="url(#clip000)" d="M1456.93 1466.44 Q1453.78 1466.44 1451.93 1468.59 Q1450.1 1470.74 1450.1 1474.49 Q1450.1 1478.22 1451.93 1480.39 Q1453.78 1482.55 1456.93 1482.55 Q1460.08 1482.55 1461.91 1480.39 Q1463.76 1478.22 1463.76 1474.49 Q1463.76 1470.74 1461.91 1468.59 Q1460.08 1466.44 1456.93 1466.44 M1466.21 1451.78 L1466.21 1456.04 Q1464.45 1455.21 1462.65 1454.77 Q1460.86 1454.33 1459.11 1454.33 Q1454.48 1454.33 1452.02 1457.45 Q1449.59 1460.58 1449.24 1466.9 Q1450.61 1464.89 1452.67 1463.82 Q1454.73 1462.73 1457.21 1462.73 Q1462.42 1462.73 1465.42 1465.9 Q1468.46 1469.05 1468.46 1474.49 Q1468.46 1479.82 1465.31 1483.03 Q1462.16 1486.25 1456.93 1486.25 Q1450.93 1486.25 1447.76 1481.67 Q1444.59 1477.06 1444.59 1468.33 Q1444.59 1460.14 1448.48 1455.28 Q1452.37 1450.39 1458.92 1450.39 Q1460.68 1450.39 1462.46 1450.74 Q1464.27 1451.09 1466.21 1451.78 Z" fill="#000000" fill-rule="nonzero" fill-opacity="1" /><path clip-path="url(#clip000)" d="M1904.64 1469.17 Q1901.31 1469.17 1899.39 1470.95 Q1897.49 1472.73 1897.49 1475.86 Q1897.49 1478.98 1899.39 1480.77 Q1901.31 1482.55 1904.64 1482.55 Q1907.97 1482.55 1909.89 1480.77 Q1911.82 1478.96 1911.82 1475.86 Q1911.82 1472.73 1909.89 1470.95 Q1908 1469.17 1904.64 1469.17 M1899.96 1467.18 Q1896.96 1466.44 1895.27 1464.38 Q1893.6 1462.32 1893.6 1459.35 Q1893.6 1455.21 1896.54 1452.8 Q1899.5 1450.39 1904.64 1450.39 Q1909.8 1450.39 1912.74 1452.8 Q1915.68 1455.21 1915.68 1459.35 Q1915.68 1462.32 1913.99 1464.38 Q1912.33 1466.44 1909.34 1467.18 Q1912.72 1467.96 1914.59 1470.26 Q1916.49 1472.55 1916.49 1475.86 Q1916.49 1480.88 1913.41 1483.57 Q1910.36 1486.25 1904.64 1486.25 Q1898.92 1486.25 1895.84 1483.57 Q1892.79 1480.88 1892.79 1475.86 Q1892.79 1472.55 1894.69 1470.26 Q1896.58 1467.96 1899.96 1467.18 M1898.25 1459.79 Q1898.25 1462.48 1899.92 1463.98 Q1901.61 1465.49 1904.64 1465.49 Q1907.65 1465.49 1909.34 1463.98 Q1911.05 1462.48 1911.05 1459.79 Q1911.05 1457.11 1909.34 1455.6 Q1907.65 1454.1 1904.64 1454.1 Q1901.61 1454.1 1899.92 1455.6 Q1898.25 1457.11 1898.25 1459.79 Z" fill="#000000" fill-rule="nonzero" fill-opacity="1" /><path clip-path="url(#clip000)" d="M2327.44 1481.64 L2335.08 1481.64 L2335.08 1455.28 L2326.77 1456.95 L2326.77 1452.69 L2335.04 1451.02 L2339.71 1451.02 L2339.71 1481.64 L2347.35 1481.64 L2347.35 1485.58 L2327.44 1485.58 L2327.44 1481.64 Z" fill="#000000" fill-rule="nonzero" fill-opacity="1" /><path clip-path="url(#clip000)" d="M2366.8 1454.1 Q2363.18 1454.1 2361.36 1457.66 Q2359.55 1461.2 2359.55 1468.33 Q2359.55 1475.44 2361.36 1479.01 Q2363.18 1482.55 2366.8 1482.55 Q2370.43 1482.55 2372.23 1479.01 Q2374.06 1475.44 2374.06 1468.33 Q2374.06 1461.2 2372.23 1457.66 Q2370.43 1454.1 2366.8 1454.1 M2366.8 1450.39 Q2372.61 1450.39 2375.66 1455 Q2378.74 1459.58 2378.74 1468.33 Q2378.74 1477.06 2375.66 1481.67 Q2372.61 1486.25 2366.8 1486.25 Q2360.99 1486.25 2357.91 1481.67 Q2354.85 1477.06 2354.85 1468.33 Q2354.85 1459.58 2357.91 1455 Q2360.99 1450.39 2366.8 1450.39 Z" fill="#000000" fill-rule="nonzero" fill-opacity="1" /><path clip-path="url(#clip000)" d="M1231.53 1522.27 L1231.53 1532.4 L1243.59 1532.4 L1243.59 1536.95 L1231.53 1536.95 L1231.53 1556.3 Q1231.53 1560.66 1232.71 1561.9 Q1233.91 1563.14 1237.58 1563.14 L1243.59 1563.14 L1243.59 1568.04 L1237.58 1568.04 Q1230.8 1568.04 1228.22 1565.53 Q1225.64 1562.98 1225.64 1556.3 L1225.64 1536.95 L1221.34 1536.95 L1221.34 1532.4 L1225.64 1532.4 L1225.64 1522.27 L1231.53 1522.27 Z" fill="#000000" fill-rule="nonzero" fill-opacity="1" /><polyline clip-path="url(#clip000)" style="stroke:#000000; stroke-linecap:round; stroke-linejoin:round; stroke-width:4; stroke-opacity:1; fill:none" points="112.177,1423.18 112.177,47.2441 "/>
<polyline clip-path="url(#clip000)" style="stroke:#000000; stroke-linecap:round; stroke-linejoin:round; stroke-width:4; stroke-opacity:1; fill:none" points="112.177,1421.52 131.075,1421.52 "/>
<polyline clip-path="url(#clip000)" style="stroke:#000000; stroke-linecap:round; stroke-linejoin:round; stroke-width:4; stroke-opacity:1; fill:none" points="112.177,1114.83 131.075,1114.83 "/>
<polyline clip-path="url(#clip000)" style="stroke:#000000; stroke-linecap:round; stroke-linejoin:round; stroke-width:4; stroke-opacity:1; fill:none" points="112.177,808.136 131.075,808.136 "/>
<polyline clip-path="url(#clip000)" style="stroke:#000000; stroke-linecap:round; stroke-linejoin:round; stroke-width:4; stroke-opacity:1; fill:none" points="112.177,501.443 131.075,501.443 "/>
<polyline clip-path="url(#clip000)" style="stroke:#000000; stroke-linecap:round; stroke-linejoin:round; stroke-width:4; stroke-opacity:1; fill:none" points="112.177,194.75 131.075,194.75 "/>
<path clip-path="url(#clip000)" d="M64.2328 1407.32 Q60.6217 1407.32 58.793 1410.89 Q56.9875 1414.43 56.9875 1421.56 Q56.9875 1428.66 58.793 1432.23 Q60.6217 1435.77 64.2328 1435.77 Q67.867 1435.77 69.6726 1432.23 Q71.5013 1428.66 71.5013 1421.56 Q71.5013 1414.43 69.6726 1410.89 Q67.867 1407.32 64.2328 1407.32 M64.2328 1403.62 Q70.0429 1403.62 73.0985 1408.22 Q76.1772 1412.81 76.1772 1421.56 Q76.1772 1430.28 73.0985 1434.89 Q70.0429 1439.47 64.2328 1439.47 Q58.4226 1439.47 55.344 1434.89 Q52.2884 1430.28 52.2884 1421.56 Q52.2884 1412.81 55.344 1408.22 Q58.4226 1403.62 64.2328 1403.62 Z" fill="#000000" fill-rule="nonzero" fill-opacity="1" /><path clip-path="url(#clip000)" d="M56.2699 1128.17 L63.9087 1128.17 L63.9087 1101.81 L55.5986 1103.47 L55.5986 1099.22 L63.8624 1097.55 L68.5383 1097.55 L68.5383 1128.17 L76.1772 1128.17 L76.1772 1132.11 L56.2699 1132.11 L56.2699 1128.17 Z" fill="#000000" fill-rule="nonzero" fill-opacity="1" /><path clip-path="url(#clip000)" d="M59.8578 821.48 L76.1772 821.48 L76.1772 825.416 L54.2328 825.416 L54.2328 821.48 Q56.8949 818.726 61.4782 814.096 Q66.0846 809.443 67.2652 808.101 Q69.5105 805.578 70.3902 803.842 Q71.2929 802.082 71.2929 800.393 Q71.2929 797.638 69.3485 795.902 Q67.4272 794.166 64.3254 794.166 Q62.1263 794.166 59.6726 794.93 Q57.2421 795.694 54.4643 797.244 L54.4643 792.522 Q57.2884 791.388 59.7421 790.809 Q62.1958 790.231 64.2328 790.231 Q69.6031 790.231 72.7976 792.916 Q75.992 795.601 75.992 800.092 Q75.992 802.221 75.1818 804.143 Q74.3948 806.041 72.2883 808.633 Q71.7096 809.305 68.6078 812.522 Q65.5059 815.717 59.8578 821.48 Z" fill="#000000" fill-rule="nonzero" fill-opacity="1" /><path clip-path="url(#clip000)" d="M69.0476 500.088 Q72.404 500.806 74.279 503.074 Q76.1772 505.343 76.1772 508.676 Q76.1772 513.792 72.6587 516.593 Q69.1402 519.394 62.6587 519.394 Q60.4828 519.394 58.168 518.954 Q55.8764 518.537 53.4227 517.681 L53.4227 513.167 Q55.3671 514.301 57.6819 514.88 Q59.9967 515.459 62.5198 515.459 Q66.918 515.459 69.2096 513.723 Q71.5244 511.986 71.5244 508.676 Q71.5244 505.621 69.3717 503.908 Q67.242 502.172 63.4226 502.172 L59.3949 502.172 L59.3949 498.329 L63.6078 498.329 Q67.0569 498.329 68.8855 496.963 Q70.7142 495.575 70.7142 492.982 Q70.7142 490.32 68.8161 488.908 Q66.9411 487.473 63.4226 487.473 Q61.5013 487.473 59.3023 487.889 Q57.1032 488.306 54.4643 489.186 L54.4643 485.019 Q57.1264 484.278 59.4412 483.908 Q61.7791 483.538 63.8393 483.538 Q69.1633 483.538 72.2652 485.968 Q75.367 488.375 75.367 492.496 Q75.367 495.366 73.7235 497.357 Q72.08 499.325 69.0476 500.088 Z" fill="#000000" fill-rule="nonzero" fill-opacity="1" /><path clip-path="url(#clip000)" d="M66.5939 181.544 L54.7884 199.993 L66.5939 199.993 L66.5939 181.544 M65.367 177.47 L71.2466 177.47 L71.2466 199.993 L76.1772 199.993 L76.1772 203.881 L71.2466 203.881 L71.2466 212.03 L66.5939 212.03 L66.5939 203.881 L50.9921 203.881 L50.9921 199.368 L65.367 177.47 Z" fill="#000000" fill-rule="nonzero" fill-opacity="1" /><polyline clip-path="url(#clip001)" style="stroke:#009af9; stroke-linecap:round; stroke-linejoin:round; stroke-width:8; stroke-opacity:1; fill:none" points="112.177,1360.18 114.42,1359.57 116.663,1358.94 118.906,1358.31 121.148,1357.68 123.391,1357.03 125.634,1356.39 127.877,1355.73 130.12,1355.07 132.363,1354.4 134.605,1353.73 136.848,1353.04 139.091,1352.35 141.334,1351.66 143.577,1350.96 145.819,1350.25 148.062,1349.53 150.305,1348.8 152.548,1348.07 154.791,1347.33 157.034,1346.59 159.276,1345.83 161.519,1345.07 163.762,1344.3 166.005,1343.53 168.248,1342.74 170.491,1341.95 172.733,1341.15 174.976,1340.34 177.219,1339.52 179.462,1338.7 181.705,1337.87 183.947,1337.02 186.19,1336.17 188.433,1335.31 190.676,1334.45 192.919,1333.57 195.162,1332.69 197.404,1331.79 199.647,1330.89 201.89,1329.98 204.133,1329.06 206.376,1328.13 208.619,1327.19 210.861,1326.24 213.104,1325.28 215.347,1324.31 217.59,1323.33 219.833,1322.35 222.075,1321.35 224.318,1320.34 226.561,1319.32 228.804,1318.29 231.047,1317.26 233.29,1316.21 235.532,1368.33 237.775,1367.8 240.018,1367.26 242.261,1366.71 244.504,1366.16 246.746,1365.61 248.989,1365.04 251.232,1364.47 253.475,1363.9 255.718,1363.32 257.961,1362.74 260.203,1362.14 262.446,1361.55 264.689,1360.94 266.932,1360.33 269.175,1359.72 271.418,1359.1 273.66,1358.47 275.903,1357.83 278.146,1357.19 280.389,1356.55 282.632,1355.89 284.874,1355.23 287.117,1354.57 289.36,1353.89 291.603,1353.21 293.846,1352.52 296.089,1351.83 298.331,1351.13 300.574,1350.42 302.817,1349.71 305.06,1348.98 307.303,1348.25 309.545,1347.52 311.788,1346.77 314.031,1346.02 316.274,1345.26 318.517,1344.49 320.76,1343.72 323.002,1342.93 325.245,1342.14 327.488,1341.35 329.731,1340.54 331.974,1339.72 334.217,1338.9 336.459,1338.07 338.702,1337.23 340.945,1336.38 343.188,1335.53 345.431,1334.66 347.673,1333.79 349.916,1332.9 352.159,1332.01 354.402,1331.11 356.645,1330.2 358.888,1329.28 361.13,1328.36 363.373,1327.42 365.616,1326.47 367.859,1325.52 370.102,1324.55 372.344,1323.58 374.587,1322.59 376.83,1321.59 379.073,1320.59 381.316,1319.57 383.559,1318.55 385.801,1317.51 388.044,1316.47 390.287,1315.41 392.53,1314.34 394.773,1313.26 397.016,1312.17 399.258,1311.07 401.501,1309.96 403.744,1308.84 405.987,1307.71 408.23,1306.56 410.472,1305.41 412.715,1304.24 414.958,1303.06 417.201,1301.87 419.444,1300.66 421.687,1299.45 423.929,1298.22 426.172,1296.98 428.415,1295.72 430.658,1357.99 432.901,1357.35 435.143,1356.71 437.386,1356.05 439.629,1355.39 441.872,1354.73 444.115,1354.06 446.358,1353.38 448.6,1352.69 450.843,1352 453.086,1351.3 455.329,1350.6 457.572,1349.88 459.815,1349.16 462.057,1348.43 464.3,1347.7 466.543,1384.24 468.786,1383.86 471.029,1383.48 473.271,1383.1 475.514,1382.72 477.757,1382.32 480,1381.93 482.243,1381.53 484.486,1381.13 486.728,1380.72 488.971,1380.31 491.214,1379.9 493.457,1379.48 495.7,1379.06 497.942,1378.63 500.185,1378.2 502.428,1377.76 504.671,1377.32 506.914,1376.88 509.157,1376.43 511.399,1375.97 513.642,1375.52 515.885,1375.05 518.128,1374.59 520.371,1374.11 522.614,1373.64 524.856,1373.16 527.099,1372.67 529.342,1372.18 531.585,1371.68 533.828,1371.18 536.07,1370.67 538.313,1370.16 540.556,1369.64 542.799,1369.12 545.042,1368.6 547.285,1368.06 549.527,1367.53 551.77,1366.98 554.013,1366.43 556.256,1365.88 558.499,1365.32 560.741,1364.75 562.984,1364.18 565.227,1363.61 567.47,1363.02 569.713,1362.43 571.956,1361.84 574.198,1361.24 576.441,1360.63 578.684,1360.02 580.927,1359.4 583.17,1358.78 585.413,1358.15 587.655,1357.51 589.898,1356.86 592.141,1356.21 594.384,1355.56 596.627,1354.89 598.869,1354.22 601.112,1353.55 603.355,1352.86 605.598,1352.17 607.841,1351.47 610.084,1350.77 612.326,1350.06 614.569,1349.34 616.812,1348.61 619.055,1347.88 621.298,1347.14 623.54,1346.39 625.783,1345.63 628.026,1344.87 630.269,1344.1 632.512,1343.32 634.755,1342.53 636.997,1341.74 639.24,1340.94 641.483,1340.13 643.726,1339.31 645.969,1338.48 648.212,1337.65 650.454,1336.8 652.697,1335.95 654.94,1335.09 657.183,1334.22 659.426,1333.34 661.668,1332.45 663.911,1331.56 666.154,1330.65 668.397,1329.74 670.64,1328.81 672.883,1327.88 675.125,1326.94 677.368,1325.99 679.611,1325.03 681.854,1324.06 684.097,1323.08 686.339,1322.09 688.582,1321.09 690.825,1320.07 693.068,1319.05 695.311,1318.02 697.554,1316.98 699.796,1315.93 702.039,1314.87 704.282,1313.79 706.525,1312.71 708.768,1311.62 711.011,1310.51 713.253,1309.39 715.496,1308.27 717.739,1307.13 719.982,1305.97 722.225,1304.81 724.467,1303.64 726.71,1302.45 728.953,1301.25 731.196,1300.04 733.439,1298.82 735.682,1297.59 737.924,1296.34 740.167,1295.08 742.41,1293.81 744.653,1292.52 746.896,1291.23 749.138,1289.92 751.381,1288.59 753.624,1287.25 755.867,1285.9 758.11,1284.54 760.353,1283.16 762.595,1281.77 764.838,1280.36 767.081,1278.94 769.324,1277.51 771.567,1276.06 773.81,1274.6 776.052,1273.12 778.295,1271.63 780.538,1270.12 782.781,1268.6 785.024,1267.06 787.266,1265.5 789.509,1263.94 791.752,1262.35 793.995,1260.75 796.238,1259.13 798.481,1257.5 800.723,1255.85 802.966,1254.18 805.209,1252.5 807.452,1250.8 809.695,1249.08 811.938,1247.35 814.18,1245.59 816.423,1243.82 818.666,1242.04 820.909,1240.23 823.152,1238.41 825.394,1236.56 827.637,1234.7 829.88,1232.82 832.123,1230.93 834.366,1229.01 836.609,1227.07 838.851,1225.11 841.094,1223.14 843.337,1221.14 845.58,1219.13 847.823,1217.09 850.065,1215.03 852.308,1212.96 854.551,1210.86 856.794,1208.74 859.037,1206.6 861.28,1204.43 863.522,1202.25 865.765,1200.04 868.008,1197.82 870.251,1195.57 872.494,1193.29 874.737,1191 876.979,1188.68 879.222,1186.33 881.465,1183.97 883.708,1181.58 885.951,1179.16 888.193,1176.73 890.436,1174.26 892.679,1171.77 894.922,1169.26 897.165,1166.72 899.408,1164.16 901.65,1161.57 903.893,1158.96 906.136,1156.32 908.379,1153.65 910.622,1150.95 912.864,1148.23 915.107,1145.48 917.35,1142.71 919.593,1139.9 921.836,1137.07 924.079,1134.21 926.321,1131.32 928.564,1128.4 930.807,1125.45 933.05,1122.47 935.293,1119.46 937.536,1116.43 939.778,1113.36 942.021,1110.26 944.264,1107.13 946.507,1103.97 948.75,1100.77 950.992,1097.55 953.235,1094.29 955.478,1091 957.721,1087.67 959.964,1084.31 962.207,1080.92 964.449,1077.49 966.692,1074.03 968.935,1070.54 971.178,1067.01 973.421,1063.44 975.663,1059.84 977.906,1056.2 980.149,1052.53 982.392,1048.81 984.635,1045.06 986.878,1041.28 989.12,1037.45 991.363,1033.59 993.606,1029.68 995.849,1025.74 998.092,1021.76 1000.33,1017.74 1002.58,1013.67 1004.82,1009.57 1007.06,1005.42 1009.31,1001.24 1011.55,997.008 1013.79,992.737 1016.03,988.422 1018.28,984.064 1020.52,979.663 1022.76,975.217 1025.01,970.726 1027.25,966.19 1029.49,961.609 1031.73,956.981 1033.98,952.307 1036.22,947.587 1038.46,942.818 1040.71,938.002 1042.95,933.138 1045.19,928.225 1047.43,923.262 1049.68,918.249 1051.92,913.185 1054.16,908.071 1056.41,902.905 1058.65,897.687 1060.89,892.417 1063.13,887.094 1065.38,881.717 1067.62,876.286 1069.86,870.801 1072.1,865.261 1074.35,859.665 1076.59,854.013 1078.83,848.304 1081.08,842.538 1083.32,836.714 1085.56,830.831 1087.8,824.89 1090.05,818.888 1092.29,812.827 1094.53,806.704 1096.78,800.521 1099.02,794.275 1101.26,787.966 1103.5,781.594 1105.75,775.158 1107.99,768.657 1110.23,762.091 1112.48,755.458 1114.72,748.759 1116.96,741.993 1119.2,735.159 1121.45,728.256 1123.69,721.283 1125.93,714.24 1128.18,707.126 1130.42,699.941 1132.66,692.683 1134.9,685.352 1137.15,677.948 1139.39,670.469 1141.63,662.914 1143.88,655.283 1146.12,647.576 1148.36,639.79 1150.6,631.926 1152.85,623.983 1155.09,615.96 1157.33,607.856 1159.57,599.67 1161.82,591.402 1164.06,583.05 1166.3,574.614 1168.55,566.093 1170.79,557.487 1173.03,548.793 1175.27,540.012 1177.52,531.142 1179.76,522.183 1182,513.134 1184.25,503.993 1186.49,494.76 1188.73,485.435 1190.97,476.015 1193.22,466.501 1195.46,456.891 1197.7,447.184 1199.95,437.38 1202.19,427.477 1204.43,417.474 1206.67,407.371 1208.92,397.166 1211.16,386.859 1213.4,376.449 1215.65,365.934 1217.89,355.313 1220.13,344.586 1222.37,333.752 1224.62,322.809 1226.86,311.755 1229.1,300.591 1231.35,289.314 1233.59,277.924 1235.83,266.419 1238.07,254.798 1240.32,243.06 1242.56,231.205 1244.8,820.372 1247.04,814.324 1249.29,808.216 1251.53,802.046 1253.77,795.814 1256.02,789.519 1258.26,783.161 1260.5,776.739 1262.74,770.252 1264.99,763.7 1267.23,757.082 1269.47,750.398 1271.72,743.646 1273.96,736.826 1276.2,729.938 1278.44,1072.25 1280.69,1068.74 1282.93,1065.19 1285.17,1061.6 1287.42,1239.75 1289.66,1237.92 1291.9,1236.07 1294.14,1234.21 1296.39,1232.32 1298.63,1230.42 1300.87,1228.5 1303.12,1226.56 1305.36,1224.59 1307.6,1222.61 1309.84,1220.61 1312.09,1218.59 1314.33,1216.55 1316.57,1214.49 1318.82,1212.4 1321.06,1210.3 1323.3,1208.18 1325.54,1206.03 1327.79,1203.86 1330.03,1201.67 1332.27,1199.46 1334.51,1197.23 1336.76,1194.97 1339,1192.69 1341.24,1190.39 1343.49,1188.07 1345.73,1185.72 1347.97,1183.35 1350.21,1180.95 1352.46,1178.53 1354.7,1176.09 1356.94,1173.62 1359.19,1171.13 1361.43,1168.61 1363.67,1166.06 1365.91,1163.5 1368.16,1160.9 1370.4,1158.28 1372.64,1155.63 1374.89,1152.96 1377.13,1150.26 1379.37,1147.53 1381.61,1144.77 1383.86,1141.99 1386.1,1139.18 1388.34,1136.34 1390.59,1133.47 1392.83,1130.57 1395.07,1127.64 1397.31,1124.69 1399.56,1121.7 1401.8,1118.68 1404.04,1115.64 1406.29,1112.56 1408.53,1109.45 1410.77,1106.31 1413.01,1103.14 1415.26,1099.94 1417.5,1096.7 1419.74,1093.43 1421.98,1090.13 1424.23,1086.8 1426.47,1083.43 1428.71,1080.03 1430.96,1076.59 1433.2,1073.12 1435.44,1069.62 1437.68,1066.07 1439.93,1062.5 1442.17,1058.88 1444.41,1055.24 1446.66,1051.55 1448.9,1047.83 1451.14,1044.07 1453.38,1040.27 1455.63,1036.43 1457.87,1032.56 1460.11,1028.64 1462.36,1024.69 1464.6,1020.7 1466.84,1016.67 1469.08,1012.59 1471.33,1008.48 1473.57,1004.32 1475.81,1000.13 1478.06,995.887 1480.3,991.605 1482.54,987.28 1484.78,982.911 1487.03,978.499 1489.27,974.042 1491.51,969.54 1493.76,964.993 1496,960.4 1498.24,955.761 1500.48,951.076 1502.73,946.343 1504.97,941.563 1507.21,936.734 1509.46,931.857 1511.7,926.931 1513.94,921.955 1516.18,916.93 1518.43,911.853 1520.67,906.726 1522.91,901.547 1525.15,896.316 1527.4,891.032 1529.64,885.695 1531.88,880.305 1534.13,874.86 1536.37,869.36 1538.61,863.805 1540.85,858.194 1543.1,852.527 1545.34,846.803 1547.58,841.021 1549.83,1128.37 1552.07,1125.42 1554.31,1122.44 1556.55,1119.43 1558.8,1116.39 1561.04,1113.32 1563.28,1110.22 1565.53,1107.09 1567.77,1103.92 1570.01,1100.73 1572.25,1097.5 1574.5,1094.24 1576.74,1090.95 1578.98,1087.62 1581.23,1084.27 1583.47,1080.87 1585.71,1077.45 1587.95,1073.98 1590.2,1070.49 1592.44,1066.96 1594.68,1063.39 1596.93,1059.79 1599.17,1056.15 1601.41,1052.47 1603.65,1048.76 1605.9,1045.01 1608.14,1041.22 1610.38,1037.4 1612.62,1033.53 1614.87,1029.63 1617.11,1025.69 1619.35,1021.7 1621.6,1017.68 1623.84,1013.62 1626.08,1009.51 1628.32,1005.37 1630.57,1001.18 1632.81,996.954 1635.05,992.682 1637.3,988.368 1639.54,1202.78 1641.78,1200.58 1644.02,1198.36 1646.27,1196.11 1648.51,1193.85 1650.75,1191.55 1653,1189.24 1655.24,1186.9 1657.48,1184.54 1659.72,1182.16 1661.97,1179.75 1664.21,1177.32 1666.45,1174.86 1668.7,1172.38 1670.94,1169.87 1673.18,1167.34 1675.42,1164.78 1677.67,1162.2 1679.91,1159.59 1682.15,1156.96 1684.4,1154.3 1686.64,1151.61 1688.88,1148.9 1691.12,1146.15 1693.37,1143.38 1695.61,1140.59 1697.85,1137.76 1700.09,1134.91 1702.34,1132.03 1704.58,1129.11 1706.82,1126.17 1709.07,1123.2 1711.31,1120.2 1713.55,1117.17 1715.79,1114.11 1718.04,1111.02 1720.28,1107.9 1722.52,1104.75 1724.77,1101.56 1727.01,1098.34 1729.25,1095.09 1731.49,1091.81 1733.74,1088.49 1735.98,1085.15 1738.22,1081.76 1740.47,1078.35 1742.71,1074.89 1744.95,1071.41 1747.19,1067.89 1749.44,1064.33 1751.68,1060.74 1753.92,1057.11 1756.17,1053.44 1758.41,1049.74 1760.65,1046 1762.89,1042.22 1765.14,1038.41 1767.38,1034.55 1769.62,1030.66 1771.87,1026.73 1774.11,1022.76 1776.35,1018.75 1778.59,1014.69 1780.84,1010.6 1783.08,1006.46 1785.32,1002.29 1787.56,998.07 1789.81,993.808 1792.05,989.504 1794.29,985.157 1796.54,980.766 1798.78,976.33 1801.02,971.85 1803.26,967.324 1805.51,962.753 1807.75,958.136 1809.99,953.473 1812.24,948.762 1814.48,944.004 1816.72,939.199 1818.96,934.345 1821.21,929.442 1823.45,924.49 1825.69,919.488 1827.94,914.436 1830.18,909.333 1832.42,904.179 1834.66,898.974 1836.91,893.716 1839.15,888.406 1841.39,883.042 1843.64,877.625 1845.88,872.153 1848.12,866.626 1850.36,861.044 1852.61,855.405 1854.85,849.709 1857.09,843.956 1859.34,838.146 1861.58,832.276 1863.82,826.348 1866.06,820.361 1868.31,814.313 1870.55,808.204 1872.79,802.034 1875.03,795.802 1877.28,789.507 1879.52,783.15 1881.76,776.728 1884.01,770.241 1886.25,763.69 1888.49,757.073 1890.73,750.389 1892.98,743.638 1895.22,736.819 1897.46,729.932 1899.71,722.975 1901.95,715.948 1904.19,708.851 1906.43,701.682 1908.68,694.442 1910.92,687.128 1913.16,679.741 1915.41,672.279 1917.65,664.743 1919.89,657.13 1922.13,649.441 1924.38,641.674 1926.62,633.83 1928.86,625.906 1931.11,617.902 1933.35,609.818 1935.59,601.653 1937.83,593.405 1940.08,585.074 1942.32,576.659 1944.56,568.16 1946.81,559.574 1949.05,550.903 1951.29,542.144 1953.53,533.296 1955.78,524.36 1958.02,515.333 1960.26,506.216 1962.5,497.007 1964.75,487.705 1966.99,478.31 1969.23,468.82 1971.48,459.234 1973.72,449.552 1975.96,439.772 1978.2,429.894 1980.45,419.917 1982.69,409.84 1984.93,399.661 1987.18,389.379 1989.42,378.995 1991.66,368.506 1993.9,357.912 1996.15,347.212 1998.39,879.083 2000.63,873.625 2002.88,868.113 2005.12,862.545 2007.36,856.921 2009.6,851.24 2011.85,845.502 2014.09,839.707 2016.33,833.853 2018.58,827.94 2020.82,821.968 2023.06,815.936 2025.3,809.844 2027.55,803.69 2029.79,797.475 2032.03,791.197 2034.28,784.857 2036.52,778.452 2038.76,771.984 2041,765.45 2043.25,758.851 2045.49,752.186 2047.73,745.454 2049.97,738.655 2052.22,731.787 2054.46,724.851 2056.7,717.844 2058.95,710.768 2061.19,703.62 2063.43,696.401 2065.67,689.109 2067.92,681.744 2070.16,674.305 2072.4,666.791 2074.65,659.202 2076.89,651.537 2079.13,643.794 2081.37,635.973 2083.62,628.074 2085.86,620.095 2088.1,612.036 2090.35,603.896 2092.59,595.674 2094.83,587.369 2097.07,578.98 2099.32,570.507 2101.56,561.949 2103.8,553.304 2106.05,544.572 2108.29,535.752 2110.53,526.843 2112.77,517.845 2115.02,508.755 2117.26,499.574 2119.5,490.3 2121.75,480.933 2123.99,471.471 2126.23,461.913 2128.47,452.259 2130.72,442.508 2132.96,432.658 2135.2,422.709 2137.45,412.66 2139.69,402.509 2141.93,392.256 2144.17,381.899 2146.42,371.438 2148.66,360.871 2150.9,350.197 2153.14,339.416 2155.39,328.527 2157.63,317.527 2159.87,306.417 2162.12,295.194 2164.36,283.859 2166.6,272.409 2168.84,260.844 2171.09,249.163 2173.33,237.364 2175.57,225.447 2177.82,213.409 2180.06,201.251 2182.3,188.971 2184.54,176.567 2186.79,164.038 2189.03,151.384 2191.27,138.603 2193.52,125.694 2195.76,112.656 2198,99.4865 2200.24,86.1857 2202.49,1084.36 2204.73,1080.97 2206.97,1077.54 2209.22,1074.08 2211.46,1070.58 2213.7,1067.05 2215.94,1063.49 2218.19,1059.88 2220.43,1056.25 2222.67,1052.57 2224.92,1048.86 2227.16,1045.11 2229.4,1041.32 2231.64,1037.5 2233.89,1033.63 2236.13,1029.73 2238.37,1025.79 2240.61,1021.81 2242.86,1017.79 2245.1,1013.73 2247.34,1009.63 2249.59,1005.48 2251.83,1001.3 2254.07,997.07 2256.31,992.8 2258.56,988.488 2260.8,984.132 2263.04,979.732 2265.29,975.288 2267.53,970.8 2269.77,966.266 2272.01,961.686 2274.26,957.061 2276.5,952.389 2278.74,947.669 2280.99,942.903 2283.23,938.088 2285.47,933.225 2287.71,928.313 2289.96,923.352 2292.2,918.34 2294.44,913.278 2296.69,908.165 2298.93,903.001 2301.17,897.784 2303.41,892.515 2305.66,887.193 2307.9,881.818 2310.14,876.388 2312.39,870.903 2314.63,865.364 2316.87,859.768 2319.11,854.116 2321.36,848.407 2323.6,842.641 2325.84,836.817 2328.08,830.934 2330.33,824.992 2332.57,818.99 2334.81,812.928 2337.06,806.804 2339.3,800.619 2341.54,794.372 2343.78,788.063 2346.03,781.689 2348.27,775.252 2350.51,768.75 2352.76,762.183 "/>
<path clip-path="url(#clip000)" d="M186.863 196.789 L500.018 196.789 L500.018 93.1086 L186.863 93.1086  Z" fill="#ffffff" fill-rule="evenodd" fill-opacity="1"/>
<polyline clip-path="url(#clip000)" style="stroke:#000000; stroke-linecap:round; stroke-linejoin:round; stroke-width:4; stroke-opacity:1; fill:none" points="186.863,196.789 500.018,196.789 500.018,93.1086 186.863,93.1086 186.863,196.789 "/>
<polyline clip-path="url(#clip000)" style="stroke:#009af9; stroke-linecap:round; stroke-linejoin:round; stroke-width:8; stroke-opacity:1; fill:none" points="211.758,144.949 361.13,144.949 "/>
<path clip-path="url(#clip000)" d="M386.026 151.997 L386.026 136.303 L390.285 136.303 L390.285 151.835 Q390.285 155.516 391.72 157.368 Q393.155 159.196 396.026 159.196 Q399.475 159.196 401.465 156.997 Q403.479 154.798 403.479 151.002 L403.479 136.303 L407.739 136.303 L407.739 162.229 L403.479 162.229 L403.479 158.247 Q401.928 160.608 399.868 161.766 Q397.831 162.9 395.123 162.9 Q390.655 162.9 388.34 160.122 Q386.026 157.344 386.026 151.997 M396.743 135.678 L396.743 135.678 Z" fill="#000000" fill-rule="nonzero" fill-opacity="1" /><path clip-path="url(#clip000)" d="M416.118 126.21 L425.933 126.21 L425.933 129.52 L420.377 129.52 L420.377 165.168 L425.933 165.168 L425.933 168.479 L416.118 168.479 L416.118 126.21 Z" fill="#000000" fill-rule="nonzero" fill-opacity="1" /><path clip-path="url(#clip000)" d="M436.419 158.293 L444.058 158.293 L444.058 131.928 L435.748 133.595 L435.748 129.335 L444.011 127.669 L448.687 127.669 L448.687 158.293 L456.326 158.293 L456.326 162.229 L436.419 162.229 L436.419 158.293 Z" fill="#000000" fill-rule="nonzero" fill-opacity="1" /><path clip-path="url(#clip000)" d="M475.122 126.21 L475.122 168.479 L465.308 168.479 L465.308 165.168 L470.84 165.168 L470.84 129.52 L465.308 129.52 L465.308 126.21 L475.122 126.21 Z" fill="#000000" fill-rule="nonzero" fill-opacity="1" /></svg>
