<?xml version="1.0" encoding="utf-8"?>
<svg xmlns="http://www.w3.org/2000/svg" xmlns:xlink="http://www.w3.org/1999/xlink" width="600" height="400" viewBox="0 0 2400 1600">
<defs>
  <clipPath id="clip540">
    <rect x="0" y="0" width="2400" height="1600"/>
  </clipPath>
</defs>
<path clip-path="url(#clip540)" d="M0 1600 L2400 1600 L2400 0 L0 0  Z" fill="#ffffff" fill-rule="evenodd" fill-opacity="1"/>
<defs>
  <clipPath id="clip541">
    <rect x="110" y="47" width="2243" height="1440"/>
  </clipPath>
</defs>
<path clip-path="url(#clip540)" d="M110.858 1486.45 L2352.76 1486.45 L2352.76 47.2441 L110.858 47.2441  Z" fill="#ffffff" fill-rule="evenodd" fill-opacity="1"/>
<polyline clip-path="url(#clip541)" style="stroke:#000000; stroke-linecap:round; stroke-linejoin:round; stroke-width:2; stroke-opacity:0.1; fill:none" points="172.462,1486.45 172.462,47.2441 "/>
<polyline clip-path="url(#clip541)" style="stroke:#000000; stroke-linecap:round; stroke-linejoin:round; stroke-width:2; stroke-opacity:0.1; fill:none" points="633.849,1486.45 633.849,47.2441 "/>
<polyline clip-path="url(#clip541)" style="stroke:#000000; stroke-linecap:round; stroke-linejoin:round; stroke-width:2; stroke-opacity:0.1; fill:none" points="1095.24,1486.45 1095.24,47.2441 "/>
<polyline clip-path="url(#clip541)" style="stroke:#000000; stroke-linecap:round; stroke-linejoin:round; stroke-width:2; stroke-opacity:0.1; fill:none" points="1556.62,1486.45 1556.62,47.2441 "/>
<polyline clip-path="url(#clip541)" style="stroke:#000000; stroke-linecap:round; stroke-linejoin:round; stroke-width:2; stroke-opacity:0.1; fill:none" points="2018.01,1486.45 2018.01,47.2441 "/>
<polyline clip-path="url(#clip541)" style="stroke:#000000; stroke-linecap:round; stroke-linejoin:round; stroke-width:2; stroke-opacity:0.1; fill:none" points="110.858,1445.72 2352.76,1445.72 "/>
<polyline clip-path="url(#clip541)" style="stroke:#000000; stroke-linecap:round; stroke-linejoin:round; stroke-width:2; stroke-opacity:0.1; fill:none" points="110.858,1107.39 2352.76,1107.39 "/>
<polyline clip-path="url(#clip541)" style="stroke:#000000; stroke-linecap:round; stroke-linejoin:round; stroke-width:2; stroke-opacity:0.1; fill:none" points="110.858,769.057 2352.76,769.057 "/>
<polyline clip-path="url(#clip541)" style="stroke:#000000; stroke-linecap:round; stroke-linejoin:round; stroke-width:2; stroke-opacity:0.1; fill:none" points="110.858,430.728 2352.76,430.728 "/>
<polyline clip-path="url(#clip541)" style="stroke:#000000; stroke-linecap:round; stroke-linejoin:round; stroke-width:2; stroke-opacity:0.1; fill:none" points="110.858,92.3985 2352.76,92.3985 "/>
<polyline clip-path="url(#clip540)" style="stroke:#000000; stroke-linecap:round; stroke-linejoin:round; stroke-width:4; stroke-opacity:1; fill:none" points="110.858,1486.45 2352.76,1486.45 "/>
<polyline clip-path="url(#clip540)" style="stroke:#000000; stroke-linecap:round; stroke-linejoin:round; stroke-width:4; stroke-opacity:1; fill:none" points="172.462,1486.45 172.462,1467.55 "/>
<polyline clip-path="url(#clip540)" style="stroke:#000000; stroke-linecap:round; stroke-linejoin:round; stroke-width:4; stroke-opacity:1; fill:none" points="633.849,1486.45 633.849,1467.55 "/>
<polyline clip-path="url(#clip540)" style="stroke:#000000; stroke-linecap:round; stroke-linejoin:round; stroke-width:4; stroke-opacity:1; fill:none" points="1095.24,1486.45 1095.24,1467.55 "/>
<polyline clip-path="url(#clip540)" style="stroke:#000000; stroke-linecap:round; stroke-linejoin:round; stroke-width:4; stroke-opacity:1; fill:none" points="1556.62,1486.45 1556.62,1467.55 "/>
<polyline clip-path="url(#clip540)" style="stroke:#000000; stroke-linecap:round; stroke-linejoin:round; stroke-width:4; stroke-opacity:1; fill:none" points="2018.01,1486.45 2018.01,1467.55 "/>
<path clip-path="url(#clip540)" d="M172.462 1517.37 Q168.851 1517.37 167.022 1520.93 Q165.217 1524.47 165.217 1531.6 Q165.217 1538.71 167.022 1542.27 Q168.851 1545.82 172.462 1545.82 Q176.096 1545.82 177.902 1542.27 Q179.731 1538.71 179.731 1531.6 Q179.731 1524.47 177.902 1520.93 Q176.096 1517.37 172.462 1517.37 M172.462 1513.66 Q178.272 1513.66 181.328 1518.27 Q184.407 1522.85 184.407 1531.6 Q184.407 1540.33 181.328 1544.94 Q178.272 1549.52 172.462 1549.52 Q166.652 1549.52 163.573 1544.94 Q160.518 1540.33 160.518 1531.6 Q160.518 1522.85 163.573 1518.27 Q166.652 1513.66 172.462 1513.66 Z" fill="#000000" fill-rule="nonzero" fill-opacity="1" /><path clip-path="url(#clip540)" d="M597.542 1544.91 L613.861 1544.91 L613.861 1548.85 L591.917 1548.85 L591.917 1544.91 Q594.579 1542.16 599.162 1537.53 Q603.768 1532.88 604.949 1531.53 Q607.194 1529.01 608.074 1527.27 Q608.977 1525.51 608.977 1523.82 Q608.977 1521.07 607.032 1519.33 Q605.111 1517.6 602.009 1517.6 Q599.81 1517.6 597.356 1518.36 Q594.926 1519.13 592.148 1520.68 L592.148 1515.95 Q594.972 1514.82 597.426 1514.24 Q599.879 1513.66 601.916 1513.66 Q607.287 1513.66 610.481 1516.35 Q613.676 1519.03 613.676 1523.52 Q613.676 1525.65 612.866 1527.57 Q612.078 1529.47 609.972 1532.07 Q609.393 1532.74 606.291 1535.95 Q603.19 1539.15 597.542 1544.91 Z" fill="#000000" fill-rule="nonzero" fill-opacity="1" /><path clip-path="url(#clip540)" d="M623.722 1514.29 L642.078 1514.29 L642.078 1518.22 L628.004 1518.22 L628.004 1526.7 Q629.023 1526.35 630.041 1526.19 Q631.06 1526 632.078 1526 Q637.865 1526 641.245 1529.17 Q644.625 1532.34 644.625 1537.76 Q644.625 1543.34 641.152 1546.44 Q637.68 1549.52 631.361 1549.52 Q629.185 1549.52 626.916 1549.15 Q624.671 1548.78 622.264 1548.04 L622.264 1543.34 Q624.347 1544.47 626.569 1545.03 Q628.791 1545.58 631.268 1545.58 Q635.273 1545.58 637.611 1543.48 Q639.949 1541.37 639.949 1537.76 Q639.949 1534.15 637.611 1532.04 Q635.273 1529.94 631.268 1529.94 Q629.393 1529.94 627.518 1530.35 Q625.666 1530.77 623.722 1531.65 L623.722 1514.29 Z" fill="#000000" fill-rule="nonzero" fill-opacity="1" /><path clip-path="url(#clip540)" d="M663.837 1517.37 Q660.226 1517.37 658.398 1520.93 Q656.592 1524.47 656.592 1531.6 Q656.592 1538.71 658.398 1542.27 Q660.226 1545.82 663.837 1545.82 Q667.472 1545.82 669.277 1542.27 Q671.106 1538.71 671.106 1531.6 Q671.106 1524.47 669.277 1520.93 Q667.472 1517.37 663.837 1517.37 M663.837 1513.66 Q669.648 1513.66 672.703 1518.27 Q675.782 1522.85 675.782 1531.6 Q675.782 1540.33 672.703 1544.94 Q669.648 1549.52 663.837 1549.52 Q658.027 1549.52 654.949 1544.94 Q651.893 1540.33 651.893 1531.6 Q651.893 1522.85 654.949 1518.27 Q658.027 1513.66 663.837 1513.66 Z" fill="#000000" fill-rule="nonzero" fill-opacity="1" /><path clip-path="url(#clip540)" d="M1054.85 1514.29 L1073.21 1514.29 L1073.21 1518.22 L1059.14 1518.22 L1059.14 1526.7 Q1060.16 1526.35 1061.17 1526.19 Q1062.19 1526 1063.21 1526 Q1069 1526 1072.38 1529.17 Q1075.76 1532.34 1075.76 1537.76 Q1075.76 1543.34 1072.28 1546.44 Q1068.81 1549.52 1062.49 1549.52 Q1060.32 1549.52 1058.05 1549.15 Q1055.8 1548.78 1053.4 1548.04 L1053.4 1543.34 Q1055.48 1544.47 1057.7 1545.03 Q1059.92 1545.58 1062.4 1545.58 Q1066.41 1545.58 1068.74 1543.48 Q1071.08 1541.37 1071.08 1537.76 Q1071.08 1534.15 1068.74 1532.04 Q1066.41 1529.94 1062.4 1529.94 Q1060.53 1529.94 1058.65 1530.35 Q1056.8 1530.77 1054.85 1531.65 L1054.85 1514.29 Z" fill="#000000" fill-rule="nonzero" fill-opacity="1" /><path clip-path="url(#clip540)" d="M1094.97 1517.37 Q1091.36 1517.37 1089.53 1520.93 Q1087.72 1524.47 1087.72 1531.6 Q1087.72 1538.71 1089.53 1542.27 Q1091.36 1545.82 1094.97 1545.82 Q1098.6 1545.82 1100.41 1542.27 Q1102.24 1538.71 1102.24 1531.6 Q1102.24 1524.47 1100.41 1520.93 Q1098.6 1517.37 1094.97 1517.37 M1094.97 1513.66 Q1100.78 1513.66 1103.84 1518.27 Q1106.91 1522.85 1106.91 1531.6 Q1106.91 1540.33 1103.84 1544.94 Q1100.78 1549.52 1094.97 1549.52 Q1089.16 1549.52 1086.08 1544.94 Q1083.03 1540.33 1083.03 1531.6 Q1083.03 1522.85 1086.08 1518.27 Q1089.16 1513.66 1094.97 1513.66 Z" fill="#000000" fill-rule="nonzero" fill-opacity="1" /><path clip-path="url(#clip540)" d="M1125.13 1517.37 Q1121.52 1517.37 1119.69 1520.93 Q1117.89 1524.47 1117.89 1531.6 Q1117.89 1538.71 1119.69 1542.27 Q1121.52 1545.82 1125.13 1545.82 Q1128.77 1545.82 1130.57 1542.27 Q1132.4 1538.71 1132.4 1531.6 Q1132.4 1524.47 1130.57 1520.93 Q1128.77 1517.37 1125.13 1517.37 M1125.13 1513.66 Q1130.94 1513.66 1134 1518.27 Q1137.08 1522.85 1137.08 1531.6 Q1137.08 1540.33 1134 1544.94 Q1130.94 1549.52 1125.13 1549.52 Q1119.32 1549.52 1116.24 1544.94 Q1113.19 1540.33 1113.19 1531.6 Q1113.19 1522.85 1116.24 1518.27 Q1119.32 1513.66 1125.13 1513.66 Z" fill="#000000" fill-rule="nonzero" fill-opacity="1" /><path clip-path="url(#clip540)" d="M1514.9 1514.29 L1537.12 1514.29 L1537.12 1516.28 L1524.57 1548.85 L1519.69 1548.85 L1531.5 1518.22 L1514.9 1518.22 L1514.9 1514.29 Z" fill="#000000" fill-rule="nonzero" fill-opacity="1" /><path clip-path="url(#clip540)" d="M1546.29 1514.29 L1564.64 1514.29 L1564.64 1518.22 L1550.57 1518.22 L1550.57 1526.7 Q1551.59 1526.35 1552.61 1526.19 Q1553.63 1526 1554.64 1526 Q1560.43 1526 1563.81 1529.17 Q1567.19 1532.34 1567.19 1537.76 Q1567.19 1543.34 1563.72 1546.44 Q1560.25 1549.52 1553.93 1549.52 Q1551.75 1549.52 1549.48 1549.15 Q1547.24 1548.78 1544.83 1548.04 L1544.83 1543.34 Q1546.91 1544.47 1549.13 1545.03 Q1551.36 1545.58 1553.83 1545.58 Q1557.84 1545.58 1560.18 1543.48 Q1562.51 1541.37 1562.51 1537.76 Q1562.51 1534.15 1560.18 1532.04 Q1557.84 1529.94 1553.83 1529.94 Q1551.96 1529.94 1550.08 1530.35 Q1548.23 1530.77 1546.29 1531.65 L1546.29 1514.29 Z" fill="#000000" fill-rule="nonzero" fill-opacity="1" /><path clip-path="url(#clip540)" d="M1586.4 1517.37 Q1582.79 1517.37 1580.96 1520.93 Q1579.16 1524.47 1579.16 1531.6 Q1579.16 1538.71 1580.96 1542.27 Q1582.79 1545.82 1586.4 1545.82 Q1590.04 1545.82 1591.84 1542.27 Q1593.67 1538.71 1593.67 1531.6 Q1593.67 1524.47 1591.84 1520.93 Q1590.04 1517.37 1586.4 1517.37 M1586.4 1513.66 Q1592.21 1513.66 1595.27 1518.27 Q1598.35 1522.85 1598.35 1531.6 Q1598.35 1540.33 1595.27 1544.94 Q1592.21 1549.52 1586.4 1549.52 Q1580.59 1549.52 1577.51 1544.94 Q1574.46 1540.33 1574.46 1531.6 Q1574.46 1522.85 1577.51 1518.27 Q1580.59 1513.66 1586.4 1513.66 Z" fill="#000000" fill-rule="nonzero" fill-opacity="1" /><path clip-path="url(#clip540)" d="M1962.54 1544.91 L1970.17 1544.91 L1970.17 1518.55 L1961.86 1520.21 L1961.86 1515.95 L1970.13 1514.29 L1974.8 1514.29 L1974.8 1544.91 L1982.44 1544.91 L1982.44 1548.85 L1962.54 1548.85 L1962.54 1544.91 Z" fill="#000000" fill-rule="nonzero" fill-opacity="1" /><path clip-path="url(#clip540)" d="M2001.89 1517.37 Q1998.28 1517.37 1996.45 1520.93 Q1994.64 1524.47 1994.64 1531.6 Q1994.64 1538.71 1996.45 1542.27 Q1998.28 1545.82 2001.89 1545.82 Q2005.52 1545.82 2007.33 1542.27 Q2009.16 1538.71 2009.16 1531.6 Q2009.16 1524.47 2007.33 1520.93 Q2005.52 1517.37 2001.89 1517.37 M2001.89 1513.66 Q2007.7 1513.66 2010.75 1518.27 Q2013.83 1522.85 2013.83 1531.6 Q2013.83 1540.33 2010.75 1544.94 Q2007.7 1549.52 2001.89 1549.52 Q1996.08 1549.52 1993 1544.94 Q1989.94 1540.33 1989.94 1531.6 Q1989.94 1522.85 1993 1518.27 Q1996.08 1513.66 2001.89 1513.66 Z" fill="#000000" fill-rule="nonzero" fill-opacity="1" /><path clip-path="url(#clip540)" d="M2032.05 1517.37 Q2028.44 1517.37 2026.61 1520.93 Q2024.8 1524.47 2024.8 1531.6 Q2024.8 1538.71 2026.61 1542.27 Q2028.44 1545.82 2032.05 1545.82 Q2035.68 1545.82 2037.49 1542.27 Q2039.32 1538.71 2039.32 1531.6 Q2039.32 1524.47 2037.49 1520.93 Q2035.68 1517.37 2032.05 1517.37 M2032.05 1513.66 Q2037.86 1513.66 2040.92 1518.27 Q2043.99 1522.85 2043.99 1531.6 Q2043.99 1540.33 2040.92 1544.94 Q2037.86 1549.52 2032.05 1549.52 Q2026.24 1549.52 2023.16 1544.94 Q2020.11 1540.33 2020.11 1531.6 Q2020.11 1522.85 2023.16 1518.27 Q2026.24 1513.66 2032.05 1513.66 Z" fill="#000000" fill-rule="nonzero" fill-opacity="1" /><path clip-path="url(#clip540)" d="M2062.21 1517.37 Q2058.6 1517.37 2056.77 1520.93 Q2054.97 1524.47 2054.97 1531.6 Q2054.97 1538.71 2056.77 1542.27 Q2058.6 1545.82 2062.21 1545.82 Q2065.85 1545.82 2067.65 1542.27 Q2069.48 1538.71 2069.48 1531.6 Q2069.48 1524.47 2067.65 1520.93 Q2065.85 1517.37 2062.21 1517.37 M2062.21 1513.66 Q2068.02 1513.66 2071.08 1518.27 Q2074.16 1522.85 2074.16 1531.6 Q2074.16 1540.33 2071.08 1544.94 Q2068.02 1549.52 2062.21 1549.52 Q2056.4 1549.52 2053.32 1544.94 Q2050.27 1540.33 2050.27 1531.6 Q2050.27 1522.85 2053.32 1518.27 Q2056.4 1513.66 2062.21 1513.66 Z" fill="#000000" fill-rule="nonzero" fill-opacity="1" /><polyline clip-path="url(#clip540)" style="stroke:#000000; stroke-linecap:round; stroke-linejoin:round; stroke-width:4; stroke-opacity:1; fill:none" points="110.858,1486.45 110.858,47.2441 "/>
<polyline clip-path="url(#clip540)" style="stroke:#000000; stroke-linecap:round; stroke-linejoin:round; stroke-width:4; stroke-opacity:1; fill:none" points="110.858,1445.72 129.755,1445.72 "/>
<polyline clip-path="url(#clip540)" style="stroke:#000000; stroke-linecap:round; stroke-linejoin:round; stroke-width:4; stroke-opacity:1; fill:none" points="110.858,1107.39 129.755,1107.39 "/>
<polyline clip-path="url(#clip540)" style="stroke:#000000; stroke-linecap:round; stroke-linejoin:round; stroke-width:4; stroke-opacity:1; fill:none" points="110.858,769.057 129.755,769.057 "/>
<polyline clip-path="url(#clip540)" style="stroke:#000000; stroke-linecap:round; stroke-linejoin:round; stroke-width:4; stroke-opacity:1; fill:none" points="110.858,430.728 129.755,430.728 "/>
<polyline clip-path="url(#clip540)" style="stroke:#000000; stroke-linecap:round; stroke-linejoin:round; stroke-width:4; stroke-opacity:1; fill:none" points="110.858,92.3985 129.755,92.3985 "/>
<path clip-path="url(#clip540)" d="M53.9551 1428.44 L72.3115 1428.44 L72.3115 1432.37 L58.2375 1432.37 L58.2375 1440.84 Q59.256 1440.5 60.2745 1440.33 Q61.293 1440.15 62.3115 1440.15 Q68.0985 1440.15 71.4781 1443.32 Q74.8577 1446.49 74.8577 1451.91 Q74.8577 1457.49 71.3855 1460.59 Q67.9133 1463.67 61.5939 1463.67 Q59.418 1463.67 57.1495 1463.3 Q54.9041 1462.93 52.4967 1462.19 L52.4967 1457.49 Q54.5801 1458.62 56.8023 1459.18 Q59.0245 1459.73 61.5013 1459.73 Q65.5059 1459.73 67.8439 1457.63 Q70.1818 1455.52 70.1818 1451.91 Q70.1818 1448.3 67.8439 1446.19 Q65.5059 1444.08 61.5013 1444.08 Q59.6263 1444.08 57.7513 1444.5 Q55.8995 1444.92 53.9551 1445.8 L53.9551 1428.44 Z" fill="#000000" fill-rule="nonzero" fill-opacity="1" /><path clip-path="url(#clip540)" d="M63.33 1105.52 Q60.1819 1105.52 58.33 1107.68 Q56.5014 1109.83 56.5014 1113.58 Q56.5014 1117.31 58.33 1119.48 Q60.1819 1121.63 63.33 1121.63 Q66.4782 1121.63 68.3068 1119.48 Q70.1587 1117.31 70.1587 1113.58 Q70.1587 1109.83 68.3068 1107.68 Q66.4782 1105.52 63.33 1105.52 M72.6124 1090.87 L72.6124 1095.13 Q70.8531 1094.3 69.0476 1093.86 Q67.2652 1093.42 65.5059 1093.42 Q60.8763 1093.42 58.4226 1096.54 Q55.9921 1099.67 55.6449 1105.99 Q57.0106 1103.97 59.0708 1102.91 Q61.131 1101.82 63.6078 1101.82 Q68.8161 1101.82 71.8253 1104.99 Q74.8577 1108.14 74.8577 1113.58 Q74.8577 1118.9 71.7096 1122.12 Q68.5615 1125.34 63.33 1125.34 Q57.3347 1125.34 54.1634 1120.75 Q50.9921 1116.15 50.9921 1107.42 Q50.9921 1099.23 54.881 1094.37 Q58.7699 1089.48 65.3208 1089.48 Q67.08 1089.48 68.8624 1089.83 Q70.6679 1090.18 72.6124 1090.87 Z" fill="#000000" fill-rule="nonzero" fill-opacity="1" /><path clip-path="url(#clip540)" d="M52.6356 751.777 L74.8577 751.777 L74.8577 753.768 L62.3115 786.337 L57.4273 786.337 L69.2328 755.712 L52.6356 755.712 L52.6356 751.777 Z" fill="#000000" fill-rule="nonzero" fill-opacity="1" /><path clip-path="url(#clip540)" d="M63.006 431.596 Q59.6726 431.596 57.7513 433.378 Q55.8532 435.161 55.8532 438.286 Q55.8532 441.411 57.7513 443.193 Q59.6726 444.975 63.006 444.975 Q66.3393 444.975 68.2606 443.193 Q70.1818 441.387 70.1818 438.286 Q70.1818 435.161 68.2606 433.378 Q66.3624 431.596 63.006 431.596 M58.33 429.605 Q55.3208 428.864 53.631 426.804 Q51.9643 424.744 51.9643 421.781 Q51.9643 417.638 54.9041 415.23 Q57.8671 412.823 63.006 412.823 Q68.168 412.823 71.1078 415.23 Q74.0476 417.638 74.0476 421.781 Q74.0476 424.744 72.3578 426.804 Q70.6911 428.864 67.705 429.605 Q71.0846 430.392 72.9596 432.684 Q74.8577 434.975 74.8577 438.286 Q74.8577 443.309 71.7791 445.994 Q68.7235 448.679 63.006 448.679 Q57.2884 448.679 54.2097 445.994 Q51.1542 443.309 51.1542 438.286 Q51.1542 434.975 53.0523 432.684 Q54.9504 430.392 58.33 429.605 M56.6171 422.221 Q56.6171 424.906 58.2838 426.411 Q59.9736 427.915 63.006 427.915 Q66.0152 427.915 67.705 426.411 Q69.418 424.906 69.418 422.221 Q69.418 419.536 67.705 418.031 Q66.0152 416.527 63.006 416.527 Q59.9736 416.527 58.2838 418.031 Q56.6171 419.536 56.6171 422.221 Z" fill="#000000" fill-rule="nonzero" fill-opacity="1" /><path clip-path="url(#clip540)" d="M53.2375 108.961 L53.2375 104.702 Q54.9967 105.535 56.8023 105.975 Q58.6078 106.415 60.3439 106.415 Q64.9735 106.415 67.4041 103.313 Q69.8578 100.188 70.205 93.8453 Q68.8624 95.836 66.8022 96.9008 Q64.7421 97.9656 62.2421 97.9656 Q57.0569 97.9656 54.0245 94.8406 Q51.0153 91.6925 51.0153 86.2527 Q51.0153 80.9287 54.1634 77.7111 Q57.3115 74.4935 62.543 74.4935 Q68.5383 74.4935 71.6865 79.1 Q74.8577 83.6833 74.8577 92.4333 Q74.8577 100.605 70.9689 105.489 Q67.1032 110.35 60.5523 110.35 Q58.793 110.35 56.9875 110.003 Q55.1819 109.655 53.2375 108.961 M62.543 94.3082 Q65.6911 94.3082 67.5198 92.1555 Q69.3717 90.0027 69.3717 86.2527 Q69.3717 82.5259 67.5198 80.3731 Q65.6911 78.1972 62.543 78.1972 Q59.3949 78.1972 57.543 80.3731 Q55.7143 82.5259 55.7143 86.2527 Q55.7143 90.0027 57.543 92.1555 Q59.3949 94.3082 62.543 94.3082 Z" fill="#000000" fill-rule="nonzero" fill-opacity="1" /><polyline clip-path="url(#clip541)" style="stroke:#009af9; stroke-linecap:round; stroke-linejoin:round; stroke-width:4; stroke-opacity:1; fill:none" points="174.308,1445.72 176.153,1445.72 177.999,1445.72 179.844,1276.55 181.69,1302.91 183.535,1302.91 185.381,1257.56 187.227,1263.14 189.072,1296.23 190.918,1296.23 192.763,1164.67 194.609,1164.67 196.454,1026.57 198.3,1049.92 200.145,1121.67 201.991,1180.41 203.836,1228.5 205.682,1267.87 207.528,1300.11 209.373,1326.51 211.219,1348.11 213.064,1365.81 214.91,1365.81 216.755,1275.96 218.601,1283 220.446,1283 222.292,1118.03 224.137,1170.33 225.983,1220.25 227.829,1261.12 229.674,1294.58 231.52,1294.58 233.365,1180.47 235.211,1193.08 237.056,1193.08 238.902,1039.82 240.747,1091.06 242.593,1091.06 244.439,957.597 246.284,1043.97 248.13,1043.97 249.975,959.342 251.821,959.342 253.666,837.739 255.512,837.739 257.357,729.711 259.203,729.711 261.048,570.759 262.894,628.393 264.74,776.548 266.585,897.848 268.431,997.159 270.276,1078.47 272.122,1078.47 273.967,930.564 275.813,930.564 277.658,783.381 279.504,783.381 281.349,675.289 283.195,716.346 285.041,848.558 286.886,848.558 288.732,749.111 290.577,838.921 292.423,838.921 294.268,678.003 296.114,808.505 297.959,808.505 299.805,747.527 301.651,868.024 303.496,972.742 305.342,972.742 307.187,911.073 309.033,927.237 310.878,1021.22 312.724,1098.17 314.569,1161.17 316.415,1212.75 318.26,1212.75 320.106,1113.58 321.952,1171.04 323.797,1220.83 325.643,1220.83 327.488,1106.27 329.334,1139.52 331.179,1195.02 333.025,1195.02 334.87,1048.54 336.716,1088.19 338.561,1153 340.407,1206.06 342.253,1206.06 344.098,1075.86 345.944,1084.11 347.789,1149.66 349.635,1149.66 351.48,1028.24 353.326,1028.24 355.171,934.316 357.017,998.249 358.863,1079.36 360.708,1079.36 362.554,1071.56 364.399,1079.55 366.245,1145.92 368.09,1200.27 369.936,1200.27 371.781,1192.53 373.627,1213.76 375.472,1213.76 377.318,1180.31 379.164,1180.31 381.009,1017.55 382.855,1085.91 384.7,1151.13 386.546,1204.53 388.391,1204.53 390.237,1102.08 392.082,1119.96 393.928,1179.01 395.773,1227.35 397.619,1266.94 399.465,1266.94 401.31,1190.86 403.156,1202.47 405.001,1246.56 406.847,1246.56 408.692,1219.76 410.538,1253.95 412.383,1253.95 414.229,1185.62 416.075,1188.23 417.92,1234.9 419.766,1273.12 421.611,1304.4 423.457,1304.4 425.302,1190.03 427.148,1199.92 428.993,1244.48 430.839,1280.96 432.684,1280.96 434.53,1128.97 436.376,1128.97 438.221,965.226 440.067,998.879 441.912,998.879 443.758,914.142 445.603,993.538 447.449,1075.5 449.294,1142.61 451.14,1197.56 452.985,1197.56 454.831,1042.89 456.677,1095.44 458.522,1158.94 460.368,1158.94 462.213,1094.18 464.059,1115.61 465.904,1175.45 467.75,1224.44 469.595,1264.55 471.441,1297.39 473.287,1324.28 475.132,1324.28 476.978,1197.23 478.823,1227.37 480.669,1266.95 482.514,1299.35 484.36,1325.88 486.205,1325.88 488.051,1210.43 489.896,1214.77 491.742,1256.63 493.588,1256.63 495.433,1252.56 497.279,1258.03 499.124,1292.05 500.97,1319.91 502.815,1342.71 504.661,1342.71 506.506,1320.05 508.352,1330.31 510.197,1330.31 512.043,1199.23 513.889,1236.2 515.734,1274.18 517.58,1274.18 519.425,1121.45 521.271,1152.1 523.116,1205.32 524.962,1205.32 526.807,1069.73 528.653,1087.91 530.498,1087.91 532.344,1006.61 534.19,1064.7 536.035,1064.7 537.881,952.654 539.726,952.654 541.572,818.781 543.417,897.394 545.263,897.394 547.108,783.372 548.954,783.372 550.8,678.607 552.645,760.65 554.491,760.65 556.336,600.918 558.182,600.918 560.027,524.708 561.873,524.708 563.718,442.148 565.564,534.683 567.409,699.826 569.255,699.826 571.101,603.137 572.946,603.137 574.792,478.707 576.637,599.792 578.483,599.792 580.328,475.801 582.174,475.801 584.019,415.14 585.865,515.171 587.71,683.851 589.556,821.953 591.402,821.953 593.247,832.395 595.093,833.747 596.938,833.747 598.784,696.746 600.629,696.746 602.475,649.828 604.32,665.895 606.166,807.253 608.012,807.253 609.857,764.444 611.703,793.408 613.548,911.652 615.394,1008.46 617.239,1087.72 619.085,1152.62 620.93,1152.62 622.776,1091.41 624.621,1109.4 626.467,1109.4 628.313,950.325 630.158,1027.58 632.004,1103.38 633.849,1103.38 635.695,960.236 637.54,1015.54 639.386,1015.54 641.231,864.624 643.077,948.878 644.922,948.878 646.768,931.021 648.614,939.018 650.459,1030.87 652.305,1106.07 654.15,1106.07 655.996,1053.13 657.841,1109.72 659.687,1170.63 661.532,1220.49 663.378,1220.49 665.224,1065.04 667.069,1065.04 668.915,1003.72 670.76,1014.91 672.606,1014.91 674.451,899.459 676.297,976.845 678.142,976.845 679.988,952.191 681.833,1033.58 683.679,1033.58 685.525,912.21 687.37,912.21 689.216,825.875 691.061,867.324 692.907,867.324 694.752,701.357 696.598,701.357 698.443,577.288 700.289,684.647 702.134,684.647 703.98,742.347 705.826,756.28 707.671,881.253 709.517,881.253 711.362,839.034 713.208,925.557 715.053,1019.85 716.899,1097.04 718.744,1160.25 720.59,1211.99 722.436,1211.99 724.281,1192.69 726.127,1224.82 727.972,1224.82 729.818,1127.8 731.663,1127.8 733.509,1049.71 735.354,1088.48 737.2,1153.24 739.045,1206.26 740.891,1249.66 742.737,1285.2 744.582,1314.3 746.428,1338.12 748.273,1357.62 750.119,1357.62 751.964,1201.82 753.81,1210.33 755.655,1253 757.501,1287.93 759.346,1287.93 761.192,1198.81 763.038,1226.36 764.883,1226.36 766.729,1160.18 768.574,1167.07 770.42,1217.58 772.265,1217.58 774.111,1103.58 775.956,1136.71 777.802,1136.71 779.648,1019.72 781.493,1026.08 783.339,1026.08 785.184,985.379 787.03,985.379 788.875,910.592 790.721,948.666 792.566,1038.77 794.412,1112.53 796.257,1112.53 798.103,1010.4 799.949,1049.87 801.794,1049.87 803.64,895.314 805.485,895.314 807.331,891.086 809.176,912.799 811.022,912.799 812.867,873.912 814.713,950.838 816.558,1040.54 818.404,1040.54 820.25,981.372 822.095,1057.4 823.941,1057.4 825.786,901.199 827.632,984.509 829.477,984.509 831.323,874.771 833.168,874.771 835.014,811.969 836.86,856.422 838.705,963.243 840.551,1050.7 842.396,1122.3 844.242,1122.3 846.087,1111.24 847.933,1113.78 849.778,1113.78 851.624,986.631 853.469,1015.37 855.315,1093.38 857.161,1157.25 859.006,1157.25 860.852,1103.9 862.697,1109.79 864.543,1109.79 866.388,960.97 868.234,1023.25 870.079,1099.83 871.925,1099.83 873.77,932.619 875.616,932.619 877.462,889.824 879.307,928.874 881.153,928.874 882.998,931.703 884.844,931.703 886.689,911.861 888.535,962.097 890.38,1049.76 892.226,1049.76 894.071,968.619 895.917,993.168 897.763,1075.2 899.608,1142.36 901.454,1142.36 903.299,1042.96 905.145,1113.68 906.99,1113.68 908.836,1043.17 910.681,1082.21 912.527,1148.1 914.373,1148.1 916.218,1087.8 918.064,1145.25 919.909,1199.71 921.755,1199.71 923.6,1104.68 925.446,1111.8 927.291,1111.8 929.137,987.054 930.982,1012.58 932.828,1012.58 934.674,924.89 936.519,924.89 938.365,811.196 940.21,811.196 942.056,800.505 943.901,800.505 945.747,641.005 947.592,643.2 949.438,788.672 951.283,788.672 953.129,769.583 954.975,879.438 956.82,982.086 958.666,982.086 960.511,842.86 962.357,918.067 964.202,1013.71 966.048,1092.02 967.893,1156.14 969.739,1208.63 971.585,1208.63 973.43,1191.88 975.276,1221.75 977.121,1221.75 978.967,1126.45 980.812,1127.44 982.658,1185.13 984.503,1232.37 986.349,1271.04 988.194,1302.71 990.04,1302.71 991.886,1179.49 993.731,1207.57 995.577,1250.74 997.422,1250.74 999.268,1112.54 1001.11,1121.43 1002.96,1180.21 1004.8,1180.21 1006.65,1187.13 1008.5,1195.62 1010.34,1240.95 1012.19,1278.07 1014.03,1308.46 1015.88,1333.34 1017.72,1333.34 1019.57,1300.88 1021.41,1325.67 1023.26,1347.43 1025.11,1365.25 1026.95,1365.25 1028.8,1209.54 1030.64,1213.53 1032.49,1213.53 1034.33,1209.8 1036.18,1223.79 1038.02,1264.02 1039.87,1264.02 1041.72,1118.68 1043.56,1137.55 1045.41,1193.41 1047.25,1239.14 1049.1,1276.59 1050.94,1307.25 1052.79,1307.25 1054.63,1146.44 1056.48,1184.95 1058.33,1184.95 1060.17,1095.87 1062.02,1144.96 1063.86,1144.96 1065.71,1029.69 1067.55,1030.74 1069.4,1030.74 1071.24,873.74 1073.09,873.74 1074.94,758.703 1076.78,758.703 1078.63,615.065 1080.47,691.298 1082.32,691.298 1084.16,618.807 1086.01,618.807 1087.85,579.229 1089.7,648.209 1091.55,648.209 1093.39,665.772 1095.24,665.772 1097.08,550.194 1098.93,561.459 1100.77,721.748 1102.62,721.748 1104.46,675.73 1106.31,726.588 1108.16,726.588 1110,638.193 1111.85,638.193 1113.69,555.034 1115.54,614.414 1117.38,614.414 1119.23,611.939 1121.07,611.939 1122.92,530.895 1124.77,576.388 1126.61,576.388 1128.46,448.36 1130.3,622.231 1132.15,771.503 1133.99,771.503 1135.84,631.128 1137.68,749.039 1139.53,875.325 1141.37,875.325 1143.22,709.958 1145.07,709.958 1146.91,601.943 1148.76,723.447 1150.6,854.372 1152.45,961.565 1154.29,961.565 1156.14,867.015 1157.98,867.015 1159.83,727.769 1161.68,727.769 1163.52,600.706 1165.37,600.706 1167.21,534.619 1169.06,534.619 1170.9,435.626 1172.75,435.626 1174.59,312.126 1176.44,340.755 1178.29,340.755 1180.13,381.072 1181.98,445.715 1183.82,445.715 1185.67,432.471 1187.51,432.471 1189.36,301.662 1191.2,301.662 1193.05,238.167 1194.9,238.167 1196.74,87.9763 1198.59,169.565 1200.43,400.892 1202.28,590.286 1204.12,590.286 1205.97,564.886 1207.81,654.134 1209.66,797.624 1211.51,915.103 1213.35,1011.29 1215.2,1011.29 1217.04,922.896 1218.89,1004.35 1220.73,1004.35 1222.58,1015.82 1224.42,1016.85 1226.27,1016.85 1228.12,1036.19 1229.96,1036.19 1231.81,926.883 1233.65,927.907 1235.5,1021.77 1237.34,1021.77 1239.19,902.922 1241.03,902.922 1242.88,806.55 1244.73,806.55 1246.57,706.385 1248.42,706.385 1250.26,616.123 1252.11,633.26 1253.95,780.533 1255.8,901.11 1257.64,999.83 1259.49,1080.66 1261.34,1146.83 1263.18,1201.01 1265.03,1245.37 1266.87,1245.37 1268.72,1198.61 1270.56,1219.83 1272.41,1219.83 1274.25,1090.01 1276.1,1090.01 1277.95,956.2 1279.79,958.313 1281.64,1046.66 1283.48,1119 1285.33,1119 1287.17,987.803 1289.02,1021.51 1290.86,1098.41 1292.71,1161.36 1294.56,1161.36 1296.4,1061.29 1298.25,1061.29 1300.09,900.976 1301.94,900.976 1303.78,747.15 1305.63,758.077 1307.47,882.724 1309.32,984.777 1311.17,1068.33 1313.01,1136.74 1314.86,1136.74 1316.7,1043.5 1318.55,1064.47 1320.39,1064.47 1322.24,905.98 1324.08,905.98 1325.93,820.416 1327.78,865.524 1329.62,970.695 1331.47,970.695 1333.31,900.736 1335.16,928.32 1337,1022.11 1338.85,1022.11 1340.69,949.589 1342.54,968.805 1344.39,968.805 1346.23,919.097 1348.08,920.207 1349.92,1015.47 1351.77,1093.46 1353.61,1093.46 1355.46,994.158 1357.3,1033.89 1359.15,1108.54 1361,1169.66 1362.84,1169.66 1364.69,1037.89 1366.53,1059.49 1368.38,1059.49 1370.22,981.287 1372.07,999.47 1373.91,999.47 1375.76,891.346 1377.61,962.366 1379.45,962.366 1381.3,839.551 1383.14,936.237 1384.99,1028.59 1386.83,1104.2 1388.68,1166.11 1390.52,1216.79 1392.37,1258.29 1394.22,1258.29 1396.06,1164.41 1397.91,1164.41 1399.75,1056.28 1401.6,1077.78 1403.44,1077.78 1405.29,934.34 1407.13,995.563 1408.98,995.563 1410.83,891.276 1412.67,915.339 1414.52,915.339 1416.36,791.281 1418.21,791.281 1420.05,678.876 1421.9,743.327 1423.74,743.327 1425.59,574.337 1427.43,574.337 1429.28,473.813 1431.13,648.9 1432.97,648.9 1434.82,610.358 1436.66,667.218 1438.51,808.336 1440.35,808.336 1442.2,860.944 1444.04,891.827 1445.89,992.23 1447.74,992.23 1449.58,903.151 1451.43,906.228 1453.27,1004.02 1455.12,1084.09 1456.96,1149.64 1458.81,1203.31 1460.65,1203.31 1462.5,1082.98 1464.35,1082.98 1466.19,943.83 1468.04,968.183 1469.88,1054.75 1471.73,1125.62 1473.57,1183.64 1475.42,1231.15 1477.26,1270.04 1479.11,1301.89 1480.96,1301.89 1482.8,1247.59 1484.65,1266.88 1486.49,1266.88 1488.34,1208.17 1490.18,1240.98 1492.03,1278.09 1493.87,1278.09 1495.72,1168.39 1497.57,1177.68 1499.41,1226.26 1501.26,1266.04 1503.1,1298.61 1504.95,1298.61 1506.79,1149.32 1508.64,1165.14 1510.48,1216 1512.33,1216 1514.18,1050.22 1516.02,1050.22 1517.87,882.264 1519.71,882.264 1521.56,811.026 1523.4,848.78 1525.25,956.986 1527.09,956.986 1528.94,851.589 1530.79,927.548 1532.63,1021.48 1534.48,1098.38 1536.32,1161.34 1538.17,1212.89 1540.01,1212.89 1541.86,1133.17 1543.7,1163.42 1545.55,1214.59 1547.4,1256.48 1549.24,1290.79 1551.09,1290.79 1552.93,1237.71 1554.78,1237.71 1556.62,1153.9 1558.47,1157.44 1560.31,1157.44 1562.16,990.866 1564.01,1069.94 1565.85,1069.94 1567.7,999.994 1569.54,1003.92 1571.39,1003.92 1573.23,838.299 1575.08,838.299 1576.92,744.43 1578.77,824.5 1580.62,937.107 1582.46,1029.3 1584.31,1104.79 1586.15,1166.59 1588,1217.18 1589.84,1258.61 1591.69,1258.61 1593.53,1164.62 1595.38,1205.95 1597.23,1205.95 1599.07,1039.5 1600.92,1039.5 1602.76,925.638 1604.61,947.161 1606.45,947.161 1608.3,889.159 1610.14,889.159 1611.99,772.772 1613.84,820.822 1615.68,820.822 1617.53,673.369 1619.37,790.61 1621.22,790.61 1623.06,682.471 1624.91,793.762 1626.75,793.762 1628.6,716.926 1630.45,716.926 1632.29,573 1634.14,632.61 1635.98,632.61 1637.83,590.996 1639.67,654.766 1641.52,654.766 1643.36,529.759 1645.21,529.759 1647.06,517.069 1648.9,553.987 1650.75,553.987 1652.59,506.996 1654.44,506.996 1656.28,391.052 1658.13,470.736 1659.97,470.736 1661.82,338.118 1663.67,503.576 1665.51,674.357 1667.36,674.357 1669.2,673.557 1671.05,673.557 1672.89,546.426 1674.74,550.137 1676.58,550.137 1678.43,482.411 1680.28,592.63 1682.12,747.268 1683.97,747.268 1685.81,730.443 1687.66,740.434 1689.5,740.434 1691.35,604.52 1693.19,722.927 1695.04,722.927 1696.88,715.36 1698.73,793.522 1700.58,911.745 1702.42,911.745 1704.27,832.529 1706.11,921.818 1707.96,1016.78 1709.8,1016.78 1711.65,988.835 1713.49,1066.45 1715.34,1066.45 1717.19,928.004 1719.03,928.004 1720.88,844.73 1722.72,850.451 1724.57,958.354 1726.41,1046.7 1728.26,1046.7 1730.1,946.751 1731.95,951.458 1733.8,1041.05 1735.64,1041.05 1737.49,928.592 1739.33,953.334 1741.18,953.334 1743.02,873.681 1744.87,873.681 1746.71,788.1 1748.56,821.284 1750.41,821.284 1752.25,794.752 1754.1,840.036 1755.94,840.036 1757.79,716.117 1759.63,716.117 1761.48,587.235 1763.32,679.332 1765.17,679.332 1767.02,614.036 1768.86,696.31 1770.71,696.31 1772.55,534.278 1774.4,692.323 1776.24,828.89 1778.09,940.701 1779.93,1032.24 1781.78,1032.24 1783.63,898.136 1785.47,996.066 1787.32,1077.57 1789.16,1144.31 1791.01,1144.31 1792.85,1057.48 1794.7,1111.59 1796.54,1172.16 1798.39,1221.75 1800.24,1262.34 1802.08,1262.34 1803.93,1120.07 1805.77,1133.28 1807.62,1189.92 1809.46,1189.92 1811.31,1026.81 1813.15,1094.42 1815,1094.42 1816.85,939.263 1818.69,1013.85 1820.54,1092.14 1822.38,1156.23 1824.23,1208.7 1826.07,1251.67 1827.92,1251.67 1829.76,1107.4 1831.61,1127.96 1833.46,1185.56 1835.3,1185.56 1837.15,1052.69 1838.99,1120.85 1840.84,1120.85 1842.68,952.513 1844.53,952.513 1846.37,800.618 1848.22,896.995 1850.07,896.995 1851.91,834.878 1853.76,868.601 1855.6,868.601 1857.45,916.473 1859.29,916.473 1861.14,755.258 1862.98,777.143 1864.83,777.143 1866.68,696.763 1868.52,738.625 1870.37,738.625 1872.21,574.218 1874.06,574.218 1875.9,552.974 1877.75,552.974 1879.59,441.927 1881.44,467.065 1883.29,467.065 1885.13,479.74 1886.98,550.388 1888.82,712.684 1890.67,712.684 1892.51,636.545 1894.36,636.545 1896.2,610.754 1898.05,664.519 1899.9,664.519 1901.74,623.619 1903.59,623.619 1905.43,607.525 1907.28,614.565 1909.12,614.565 1910.97,598.667 1912.81,635.833 1914.66,635.833 1916.51,569.113 1918.35,624.084 1920.2,624.084 1922.04,533.683 1923.89,619.835 1925.73,619.835 1927.58,613.659 1929.42,675.599 1931.27,675.599 1933.12,613.286 1934.96,613.286 1936.81,569.36 1938.65,588.171 1940.5,743.618 1942.34,870.887 1944.19,870.887 1946.03,829.244 1947.88,882.326 1949.73,882.326 1951.57,763.154 1953.42,832.465 1955.26,943.628 1957.11,943.628 1958.95,860.233 1960.8,860.233 1962.64,759.827 1964.49,767.199 1966.34,890.194 1968.18,990.893 1970.03,990.893 1971.87,869.287 1973.72,918.664 1975.56,1014.2 1977.41,1014.2 1979.25,852.515 1981.1,852.515 1982.94,814.833 1984.79,816.507 1986.64,930.563 1988.48,1023.94 1990.33,1100.4 1992.17,1162.99 1994.02,1214.24 1995.86,1256.2 1997.71,1290.55 1999.55,1290.55 2001.4,1223.57 2003.25,1263.04 2005.09,1263.04 2006.94,1110.11 2008.78,1144.14 2010.63,1198.81 2012.47,1198.81 2014.32,1136.51 2016.16,1144.78 2018.01,1199.33 2019.86,1243.99 2021.7,1280.56 2023.55,1310.5 2025.39,1335.01 2027.24,1335.01 2029.08,1175.1 2030.93,1203.94 2032.77,1247.76 2034.62,1283.65 2036.47,1283.65 2038.31,1124.77 2040.16,1124.77 2042,981.138 2043.85,981.138 2045.69,889.902 2047.54,889.902 2049.38,762.976 2051.23,772.433 2053.08,772.433 2054.92,643.118 2056.77,747.265 2058.61,747.265 2060.46,671.884 2062.3,713.891 2064.15,846.549 2065.99,846.549 2067.84,699.504 2069.69,699.504 2071.53,574.694 2073.38,574.694 2075.22,579.568 2077.07,594.962 2078.91,594.962 2080.76,466.007 2082.6,466.007 2084.45,398.437 2086.3,441.616 2088.14,441.616 2089.99,580.135 2091.83,590.189 2093.68,590.189 2095.52,551.198 2097.37,620.408 2099.21,770.011 2101.06,770.011 2102.91,805.308 2104.75,805.308 2106.6,650.406 2108.44,660.016 2110.29,802.439 2112.13,919.045 2113.98,919.045 2115.82,860.776 2117.67,860.776 2119.52,781.665 2121.36,829.849 2123.21,941.487 2125.05,1032.89 2126.9,1107.72 2128.74,1168.99 2130.59,1219.15 2132.43,1260.22 2134.28,1293.84 2136.13,1293.84 2137.97,1272.95 2139.82,1291.09 2141.66,1291.09 2143.51,1239.27 2145.35,1239.27 2147.2,1143.93 2149.04,1161.97 2150.89,1213.4 2152.74,1213.4 2154.58,1187.38 2156.43,1226.85 2158.27,1226.85 2160.12,1099.91 2161.96,1099.91 2163.81,1096.02 2165.65,1119.77 2167.5,1119.77 2169.35,1119.68 2171.19,1119.68 2173.04,1022.01 2174.88,1022.01 2176.73,855.032 2178.57,897.019 2180.42,897.019 2182.26,897.883 2184.11,933.174 2185.96,933.174 2187.8,915.277 2189.65,926.785 2191.49,926.785 2193.34,909.805 2195.18,921.583 2197.03,921.583 2198.87,823.825 2200.72,823.825 2202.57,727.747 2204.41,759.194 2206.26,759.194 2208.1,646.178 2209.95,732.802 2211.79,862.032 2213.64,967.836 2215.48,1054.46 2217.33,1054.46 2219.18,953.922 2221.02,953.922 2222.87,813.012 2224.71,842.483 2226.56,951.83 2228.4,951.83 2230.25,951.983 2232.09,1011.61 2233.94,1090.3 2235.79,1154.73 2237.63,1207.47 2239.48,1250.66 2241.32,1286.02 2243.17,1314.97 2245.01,1338.67 2246.86,1358.07 2248.7,1373.96 2250.55,1373.96 2252.39,1341.45 2254.24,1358.74 2256.09,1358.74 2257.93,1336.55 2259.78,1342.53 2261.62,1342.53 2263.47,1220.96 2265.31,1233.39 2267.16,1271.88 2269,1303.39 2270.85,1329.19 2272.7,1329.19 2274.54,1304.33 2276.39,1320.3 2278.23,1343.03 2280.08,1361.65 2281.92,1361.65 2283.77,1265.26 2285.61,1288.41 2287.46,1316.92 2289.31,1340.27 "/>
<path clip-path="url(#clip540)" d="M185.588 198.898 L462.208 198.898 L462.208 95.2176 L185.588 95.2176  Z" fill="#ffffff" fill-rule="evenodd" fill-opacity="1"/>
<polyline clip-path="url(#clip540)" style="stroke:#000000; stroke-linecap:round; stroke-linejoin:round; stroke-width:4; stroke-opacity:1; fill:none" points="185.588,198.898 462.208,198.898 462.208,95.2176 185.588,95.2176 185.588,198.898 "/>
<polyline clip-path="url(#clip540)" style="stroke:#009af9; stroke-linecap:round; stroke-linejoin:round; stroke-width:4; stroke-opacity:1; fill:none" points="210.498,147.058 359.958,147.058 "/>
<path clip-path="url(#clip540)" d="M398.71 166.745 Q396.904 171.375 395.192 172.787 Q393.479 174.199 390.608 174.199 L387.205 174.199 L387.205 170.634 L389.705 170.634 Q391.465 170.634 392.437 169.8 Q393.409 168.967 394.59 165.865 L395.354 163.921 L384.868 138.412 L389.381 138.412 L397.483 158.689 L405.585 138.412 L410.099 138.412 L398.71 166.745 Z" fill="#000000" fill-rule="nonzero" fill-opacity="1" /><path clip-path="url(#clip540)" d="M417.39 160.402 L425.029 160.402 L425.029 134.037 L416.719 135.703 L416.719 131.444 L424.983 129.778 L429.659 129.778 L429.659 160.402 L437.298 160.402 L437.298 164.338 L417.39 164.338 L417.39 160.402 Z" fill="#000000" fill-rule="nonzero" fill-opacity="1" /></svg>
