<?xml version="1.0" encoding="utf-8"?>
<svg xmlns="http://www.w3.org/2000/svg" xmlns:xlink="http://www.w3.org/1999/xlink" width="600" height="400" viewBox="0 0 2400 1600">
<defs>
  <clipPath id="clip570">
    <rect x="0" y="0" width="2400" height="1600"/>
  </clipPath>
</defs>
<path clip-path="url(#clip570)" d="M0 1600 L2400 1600 L2400 0 L0 0  Z" fill="#ffffff" fill-rule="evenodd" fill-opacity="1"/>
<defs>
  <clipPath id="clip571">
    <rect x="140" y="47" width="2213" height="1377"/>
  </clipPath>
</defs>
<path clip-path="url(#clip570)" d="M140.696 1423.18 L2352.76 1423.18 L2352.76 47.2441 L140.696 47.2441  Z" fill="#ffffff" fill-rule="evenodd" fill-opacity="1"/>
<polyline clip-path="url(#clip571)" style="stroke:#000000; stroke-linecap:round; stroke-linejoin:round; stroke-width:2; stroke-opacity:0.1; fill:none" points="585.849,1423.18 585.849,47.2441 "/>
<polyline clip-path="url(#clip571)" style="stroke:#000000; stroke-linecap:round; stroke-linejoin:round; stroke-width:2; stroke-opacity:0.1; fill:none" points="1031.68,1423.18 1031.68,47.2441 "/>
<polyline clip-path="url(#clip571)" style="stroke:#000000; stroke-linecap:round; stroke-linejoin:round; stroke-width:2; stroke-opacity:0.1; fill:none" points="1477.52,1423.18 1477.52,47.2441 "/>
<polyline clip-path="url(#clip571)" style="stroke:#000000; stroke-linecap:round; stroke-linejoin:round; stroke-width:2; stroke-opacity:0.1; fill:none" points="1923.36,1423.18 1923.36,47.2441 "/>
<polyline clip-path="url(#clip571)" style="stroke:#000000; stroke-linecap:round; stroke-linejoin:round; stroke-width:2; stroke-opacity:0.1; fill:none" points="140.696,1384.53 2352.76,1384.53 "/>
<polyline clip-path="url(#clip571)" style="stroke:#000000; stroke-linecap:round; stroke-linejoin:round; stroke-width:2; stroke-opacity:0.1; fill:none" points="140.696,998.693 2352.76,998.693 "/>
<polyline clip-path="url(#clip571)" style="stroke:#000000; stroke-linecap:round; stroke-linejoin:round; stroke-width:2; stroke-opacity:0.1; fill:none" points="140.696,612.853 2352.76,612.853 "/>
<polyline clip-path="url(#clip571)" style="stroke:#000000; stroke-linecap:round; stroke-linejoin:round; stroke-width:2; stroke-opacity:0.1; fill:none" points="140.696,227.013 2352.76,227.013 "/>
<polyline clip-path="url(#clip570)" style="stroke:#000000; stroke-linecap:round; stroke-linejoin:round; stroke-width:4; stroke-opacity:1; fill:none" points="140.696,1423.18 2352.76,1423.18 "/>
<polyline clip-path="url(#clip570)" style="stroke:#000000; stroke-linecap:round; stroke-linejoin:round; stroke-width:4; stroke-opacity:1; fill:none" points="585.849,1423.18 585.849,1404.28 "/>
<polyline clip-path="url(#clip570)" style="stroke:#000000; stroke-linecap:round; stroke-linejoin:round; stroke-width:4; stroke-opacity:1; fill:none" points="1031.68,1423.18 1031.68,1404.28 "/>
<polyline clip-path="url(#clip570)" style="stroke:#000000; stroke-linecap:round; stroke-linejoin:round; stroke-width:4; stroke-opacity:1; fill:none" points="1477.52,1423.18 1477.52,1404.28 "/>
<polyline clip-path="url(#clip570)" style="stroke:#000000; stroke-linecap:round; stroke-linejoin:round; stroke-width:4; stroke-opacity:1; fill:none" points="1923.36,1423.18 1923.36,1404.28 "/>
<path clip-path="url(#clip570)" d="M560.537 1481.64 L568.175 1481.64 L568.175 1455.28 L559.865 1456.95 L559.865 1452.69 L568.129 1451.02 L572.805 1451.02 L572.805 1481.64 L580.444 1481.64 L580.444 1485.58 L560.537 1485.58 L560.537 1481.64 Z" fill="#000000" fill-rule="nonzero" fill-opacity="1" /><path clip-path="url(#clip570)" d="M599.888 1454.1 Q596.277 1454.1 594.448 1457.66 Q592.643 1461.2 592.643 1468.33 Q592.643 1475.44 594.448 1479.01 Q596.277 1482.55 599.888 1482.55 Q603.523 1482.55 605.328 1479.01 Q607.157 1475.44 607.157 1468.33 Q607.157 1461.2 605.328 1457.66 Q603.523 1454.1 599.888 1454.1 M599.888 1450.39 Q605.698 1450.39 608.754 1455 Q611.833 1459.58 611.833 1468.33 Q611.833 1477.06 608.754 1481.67 Q605.698 1486.25 599.888 1486.25 Q594.078 1486.25 590.999 1481.67 Q587.944 1477.06 587.944 1468.33 Q587.944 1459.58 590.999 1455 Q594.078 1450.39 599.888 1450.39 Z" fill="#000000" fill-rule="nonzero" fill-opacity="1" /><path clip-path="url(#clip570)" d="M1010.46 1481.64 L1026.78 1481.64 L1026.78 1485.58 L1004.83 1485.58 L1004.83 1481.64 Q1007.49 1478.89 1012.08 1474.26 Q1016.68 1469.61 1017.87 1468.27 Q1020.11 1465.74 1020.99 1464.01 Q1021.89 1462.25 1021.89 1460.56 Q1021.89 1457.8 1019.95 1456.07 Q1018.03 1454.33 1014.93 1454.33 Q1012.73 1454.33 1010.27 1455.09 Q1007.84 1455.86 1005.06 1457.41 L1005.06 1452.69 Q1007.89 1451.55 1010.34 1450.97 Q1012.8 1450.39 1014.83 1450.39 Q1020.2 1450.39 1023.4 1453.08 Q1026.59 1455.77 1026.59 1460.26 Q1026.59 1462.39 1025.78 1464.31 Q1024.99 1466.2 1022.89 1468.8 Q1022.31 1469.47 1019.21 1472.69 Q1016.11 1475.88 1010.46 1481.64 Z" fill="#000000" fill-rule="nonzero" fill-opacity="1" /><path clip-path="url(#clip570)" d="M1046.59 1454.1 Q1042.98 1454.1 1041.15 1457.66 Q1039.35 1461.2 1039.35 1468.33 Q1039.35 1475.44 1041.15 1479.01 Q1042.98 1482.55 1046.59 1482.55 Q1050.23 1482.55 1052.03 1479.01 Q1053.86 1475.44 1053.86 1468.33 Q1053.86 1461.2 1052.03 1457.66 Q1050.23 1454.1 1046.59 1454.1 M1046.59 1450.39 Q1052.4 1450.39 1055.46 1455 Q1058.54 1459.58 1058.54 1468.33 Q1058.54 1477.06 1055.46 1481.67 Q1052.4 1486.25 1046.59 1486.25 Q1040.78 1486.25 1037.7 1481.67 Q1034.65 1477.06 1034.65 1468.33 Q1034.65 1459.58 1037.7 1455 Q1040.78 1450.39 1046.59 1450.39 Z" fill="#000000" fill-rule="nonzero" fill-opacity="1" /><path clip-path="url(#clip570)" d="M1466.36 1466.95 Q1469.72 1467.66 1471.59 1469.93 Q1473.49 1472.2 1473.49 1475.53 Q1473.49 1480.65 1469.97 1483.45 Q1466.46 1486.25 1459.97 1486.25 Q1457.8 1486.25 1455.48 1485.81 Q1453.19 1485.39 1450.74 1484.54 L1450.74 1480.02 Q1452.68 1481.16 1455 1481.74 Q1457.31 1482.32 1459.83 1482.32 Q1464.23 1482.32 1466.52 1480.58 Q1468.84 1478.84 1468.84 1475.53 Q1468.84 1472.48 1466.69 1470.77 Q1464.56 1469.03 1460.74 1469.03 L1456.71 1469.03 L1456.71 1465.19 L1460.92 1465.19 Q1464.37 1465.19 1466.2 1463.82 Q1468.03 1462.43 1468.03 1459.84 Q1468.03 1457.18 1466.13 1455.77 Q1464.26 1454.33 1460.74 1454.33 Q1458.82 1454.33 1456.62 1454.75 Q1454.42 1455.16 1451.78 1456.04 L1451.78 1451.88 Q1454.44 1451.14 1456.76 1450.77 Q1459.09 1450.39 1461.15 1450.39 Q1466.48 1450.39 1469.58 1452.83 Q1472.68 1455.23 1472.68 1459.35 Q1472.68 1462.22 1471.04 1464.21 Q1469.4 1466.18 1466.36 1466.95 Z" fill="#000000" fill-rule="nonzero" fill-opacity="1" /><path clip-path="url(#clip570)" d="M1492.36 1454.1 Q1488.75 1454.1 1486.92 1457.66 Q1485.11 1461.2 1485.11 1468.33 Q1485.11 1475.44 1486.92 1479.01 Q1488.75 1482.55 1492.36 1482.55 Q1495.99 1482.55 1497.8 1479.01 Q1499.63 1475.44 1499.63 1468.33 Q1499.63 1461.2 1497.8 1457.66 Q1495.99 1454.1 1492.36 1454.1 M1492.36 1450.39 Q1498.17 1450.39 1501.22 1455 Q1504.3 1459.58 1504.3 1468.33 Q1504.3 1477.06 1501.22 1481.67 Q1498.17 1486.25 1492.36 1486.25 Q1486.55 1486.25 1483.47 1481.67 Q1480.41 1477.06 1480.41 1468.33 Q1480.41 1459.58 1483.47 1455 Q1486.55 1450.39 1492.36 1450.39 Z" fill="#000000" fill-rule="nonzero" fill-opacity="1" /><path clip-path="url(#clip570)" d="M1911.53 1455.09 L1899.72 1473.54 L1911.53 1473.54 L1911.53 1455.09 M1910.3 1451.02 L1916.18 1451.02 L1916.18 1473.54 L1921.11 1473.54 L1921.11 1477.43 L1916.18 1477.43 L1916.18 1485.58 L1911.53 1485.58 L1911.53 1477.43 L1895.93 1477.43 L1895.93 1472.92 L1910.3 1451.02 Z" fill="#000000" fill-rule="nonzero" fill-opacity="1" /><path clip-path="url(#clip570)" d="M1938.84 1454.1 Q1935.23 1454.1 1933.4 1457.66 Q1931.6 1461.2 1931.6 1468.33 Q1931.6 1475.44 1933.4 1479.01 Q1935.23 1482.55 1938.84 1482.55 Q1942.48 1482.55 1944.28 1479.01 Q1946.11 1475.44 1946.11 1468.33 Q1946.11 1461.2 1944.28 1457.66 Q1942.48 1454.1 1938.84 1454.1 M1938.84 1450.39 Q1944.65 1450.39 1947.71 1455 Q1950.79 1459.58 1950.79 1468.33 Q1950.79 1477.06 1947.71 1481.67 Q1944.65 1486.25 1938.84 1486.25 Q1933.03 1486.25 1929.95 1481.67 Q1926.9 1477.06 1926.9 1468.33 Q1926.9 1459.58 1929.95 1455 Q1933.03 1450.39 1938.84 1450.39 Z" fill="#000000" fill-rule="nonzero" fill-opacity="1" /><path clip-path="url(#clip570)" d="M1245.79 1522.27 L1245.79 1532.4 L1257.85 1532.4 L1257.85 1536.95 L1245.79 1536.95 L1245.79 1556.3 Q1245.79 1560.66 1246.96 1561.9 Q1248.17 1563.14 1251.83 1563.14 L1257.85 1563.14 L1257.85 1568.04 L1251.83 1568.04 Q1245.05 1568.04 1242.48 1565.53 Q1239.9 1562.98 1239.9 1556.3 L1239.9 1536.95 L1235.6 1536.95 L1235.6 1532.4 L1239.9 1532.4 L1239.9 1522.27 L1245.79 1522.27 Z" fill="#000000" fill-rule="nonzero" fill-opacity="1" /><polyline clip-path="url(#clip570)" style="stroke:#000000; stroke-linecap:round; stroke-linejoin:round; stroke-width:4; stroke-opacity:1; fill:none" points="140.696,1423.18 140.696,47.2441 "/>
<polyline clip-path="url(#clip570)" style="stroke:#000000; stroke-linecap:round; stroke-linejoin:round; stroke-width:4; stroke-opacity:1; fill:none" points="140.696,1384.53 159.593,1384.53 "/>
<polyline clip-path="url(#clip570)" style="stroke:#000000; stroke-linecap:round; stroke-linejoin:round; stroke-width:4; stroke-opacity:1; fill:none" points="140.696,998.693 159.593,998.693 "/>
<polyline clip-path="url(#clip570)" style="stroke:#000000; stroke-linecap:round; stroke-linejoin:round; stroke-width:4; stroke-opacity:1; fill:none" points="140.696,612.853 159.593,612.853 "/>
<polyline clip-path="url(#clip570)" style="stroke:#000000; stroke-linecap:round; stroke-linejoin:round; stroke-width:4; stroke-opacity:1; fill:none" points="140.696,227.013 159.593,227.013 "/>
<path clip-path="url(#clip570)" d="M92.7512 1370.33 Q89.1401 1370.33 87.3114 1373.9 Q85.5058 1377.44 85.5058 1384.57 Q85.5058 1391.67 87.3114 1395.24 Q89.1401 1398.78 92.7512 1398.78 Q96.3854 1398.78 98.1909 1395.24 Q100.02 1391.67 100.02 1384.57 Q100.02 1377.44 98.1909 1373.9 Q96.3854 1370.33 92.7512 1370.33 M92.7512 1366.63 Q98.5613 1366.63 101.617 1371.23 Q104.696 1375.82 104.696 1384.57 Q104.696 1393.29 101.617 1397.9 Q98.5613 1402.48 92.7512 1402.48 Q86.941 1402.48 83.8623 1397.9 Q80.8068 1393.29 80.8068 1384.57 Q80.8068 1375.82 83.8623 1371.23 Q86.941 1366.63 92.7512 1366.63 Z" fill="#000000" fill-rule="nonzero" fill-opacity="1" /><path clip-path="url(#clip570)" d="M53.3995 1012.04 L61.0384 1012.04 L61.0384 985.673 L52.7282 987.339 L52.7282 983.08 L60.9921 981.413 L65.668 981.413 L65.668 1012.04 L73.3068 1012.04 L73.3068 1015.97 L53.3995 1015.97 L53.3995 1012.04 Z" fill="#000000" fill-rule="nonzero" fill-opacity="1" /><path clip-path="url(#clip570)" d="M92.7512 984.492 Q89.1401 984.492 87.3114 988.057 Q85.5058 991.598 85.5058 998.728 Q85.5058 1005.83 87.3114 1009.4 Q89.1401 1012.94 92.7512 1012.94 Q96.3854 1012.94 98.1909 1009.4 Q100.02 1005.83 100.02 998.728 Q100.02 991.598 98.1909 988.057 Q96.3854 984.492 92.7512 984.492 M92.7512 980.788 Q98.5613 980.788 101.617 985.395 Q104.696 989.978 104.696 998.728 Q104.696 1007.45 101.617 1012.06 Q98.5613 1016.64 92.7512 1016.64 Q86.941 1016.64 83.8623 1012.06 Q80.8068 1007.45 80.8068 998.728 Q80.8068 989.978 83.8623 985.395 Q86.941 980.788 92.7512 980.788 Z" fill="#000000" fill-rule="nonzero" fill-opacity="1" /><path clip-path="url(#clip570)" d="M56.6171 626.198 L72.9365 626.198 L72.9365 630.133 L50.9921 630.133 L50.9921 626.198 Q53.6541 623.443 58.2375 618.814 Q62.8439 614.161 64.0245 612.818 Q66.2698 610.295 67.1494 608.559 Q68.0522 606.8 68.0522 605.11 Q68.0522 602.356 66.1078 600.619 Q64.1865 598.883 61.0847 598.883 Q58.8856 598.883 56.4319 599.647 Q54.0014 600.411 51.2236 601.962 L51.2236 597.24 Q54.0477 596.106 56.5014 595.527 Q58.955 594.948 60.9921 594.948 Q66.3624 594.948 69.5568 597.633 Q72.7513 600.319 72.7513 604.809 Q72.7513 606.939 71.9411 608.86 Q71.1541 610.758 69.0476 613.351 Q68.4689 614.022 65.367 617.24 Q62.2652 620.434 56.6171 626.198 Z" fill="#000000" fill-rule="nonzero" fill-opacity="1" /><path clip-path="url(#clip570)" d="M92.7512 598.652 Q89.1401 598.652 87.3114 602.217 Q85.5058 605.758 85.5058 612.888 Q85.5058 619.994 87.3114 623.559 Q89.1401 627.101 92.7512 627.101 Q96.3854 627.101 98.1909 623.559 Q100.02 619.994 100.02 612.888 Q100.02 605.758 98.1909 602.217 Q96.3854 598.652 92.7512 598.652 M92.7512 594.948 Q98.5613 594.948 101.617 599.555 Q104.696 604.138 104.696 612.888 Q104.696 621.615 101.617 626.221 Q98.5613 630.805 92.7512 630.805 Q86.941 630.805 83.8623 626.221 Q80.8068 621.615 80.8068 612.888 Q80.8068 604.138 83.8623 599.555 Q86.941 594.948 92.7512 594.948 Z" fill="#000000" fill-rule="nonzero" fill-opacity="1" /><path clip-path="url(#clip570)" d="M66.7559 225.659 Q70.1124 226.377 71.9874 228.645 Q73.8855 230.914 73.8855 234.247 Q73.8855 239.363 70.367 242.163 Q66.8485 244.964 60.3671 244.964 Q58.1912 244.964 55.8764 244.525 Q53.5847 244.108 51.131 243.251 L51.131 238.738 Q53.0754 239.872 55.3903 240.451 Q57.7051 241.029 60.2282 241.029 Q64.6263 241.029 66.918 239.293 Q69.2328 237.557 69.2328 234.247 Q69.2328 231.191 67.08 229.478 Q64.9504 227.742 61.131 227.742 L57.1032 227.742 L57.1032 223.9 L61.3161 223.9 Q64.7652 223.9 66.5939 222.534 Q68.4226 221.145 68.4226 218.553 Q68.4226 215.89 66.5245 214.478 Q64.6495 213.043 61.131 213.043 Q59.2097 213.043 57.0106 213.46 Q54.8115 213.877 52.1727 214.756 L52.1727 210.59 Q54.8347 209.849 57.1495 209.478 Q59.4875 209.108 61.5476 209.108 Q66.8717 209.108 69.9735 211.539 Q73.0753 213.946 73.0753 218.066 Q73.0753 220.937 71.4318 222.927 Q69.7883 224.895 66.7559 225.659 Z" fill="#000000" fill-rule="nonzero" fill-opacity="1" /><path clip-path="url(#clip570)" d="M92.7512 212.812 Q89.1401 212.812 87.3114 216.377 Q85.5058 219.918 85.5058 227.048 Q85.5058 234.154 87.3114 237.719 Q89.1401 241.261 92.7512 241.261 Q96.3854 241.261 98.1909 237.719 Q100.02 234.154 100.02 227.048 Q100.02 219.918 98.1909 216.377 Q96.3854 212.812 92.7512 212.812 M92.7512 209.108 Q98.5613 209.108 101.617 213.715 Q104.696 218.298 104.696 227.048 Q104.696 235.775 101.617 240.381 Q98.5613 244.964 92.7512 244.964 Q86.941 244.964 83.8623 240.381 Q80.8068 235.775 80.8068 227.048 Q80.8068 218.298 83.8623 213.715 Q86.941 209.108 92.7512 209.108 Z" fill="#000000" fill-rule="nonzero" fill-opacity="1" /><polyline clip-path="url(#clip571)" style="stroke:#009af9; stroke-linecap:round; stroke-linejoin:round; stroke-width:4; stroke-opacity:1; fill:none" points="140.696,1384.24 140.696,1384.24 148.26,1380.41 153.958,1377.2 156.569,1375.79 197.029,1354.76 198.555,1354.05 219.178,1343.58 221.714,1342.37 224.84,1340.65 230.137,1337.83 230.775,1337.45 231.8,1336.75 232.12,1336.53 252.802,1323.18 253.774,1322.55 254.71,1321.88 261.771,1316.6 265.152,1314.02 269.541,1310.91 281.996,1302.31 300.738,1291.76 311.592,1286.35 320.462,1281.5 335.678,1272.94 341.713,1269.85 342.121,1269.62 353.534,1263.31 365.437,1256.52 367.426,1255.46 367.97,1255.17 384.032,1246.17 402.018,1236.24 408.316,1232.61 416.206,1228.37 433.386,1219.9 445.637,1214.22 446.021,1214.04 448.492,1212.92 466.816,1204.74 477.447,1199.33 502.717,1186.19 523.017,1175.63 531.708,1171.48 548.283,1163.88 551.018,1162.65 561.344,1157.34 571.369,1151.79 573.769,1150.53 578.338,1148.2 578.404,1148.17 582.274,1146.24 583.328,1145.73 586.158,1144.12 586.836,1143.69 588.151,1142.86 595.952,1138.2 596.242,1138.04 600.447,1135.37 601.406,1134.7 617.008,1124.08 618.261,1123.32 621.061,1121.69 629.464,1116.44 651.562,1104.67 653.403,1103.78 663.403,1098.32 667.066,1096.14 674.667,1091.33 684.921,1084.8 698.708,1076.29 701.194,1074.7 702.819,1073.69 706.665,1071.38 711.451,1068.65 713.598,1067.46 715.265,1066.56 716.658,1065.7 723.612,1061.1 729.545,1057.07 752.239,1042.95 755.723,1041.09 757.428,1040.2 794.6,1022.55 806.129,1016.63 812.68,1013.45 819.872,1009.53 826.265,1005.75 828.081,1004.57 829.413,1003.62 842.315,994.488 845.272,992.646 848.002,990.786 850.13,989.215 858.281,983.109 863.024,979.567 867.998,975.773 869.563,974.651 888.847,962.76 892.034,960.781 906.463,951.756 908.243,950.751 915.894,946.061 918.602,944.283 921.866,942.232 922.481,941.855 932.423,936.134 942.672,930.769 949.16,927.559 956.451,923.533 968.797,916.414 972.45,914.47 974.448,913.265 976.959,911.792 977.787,911.316 978.123,911.123 983.149,907.939 993.047,902.223 1015.52,889.646 1022.7,886.088 1042.57,875.648 1053.37,870.484 1062.15,865.803 1081,856.6 1098.18,848.743 1101.66,847.187 1110.61,843.209 1131.16,834.193 1135.31,832.051 1143.09,827.629 1143.81,827.175 1144.61,826.605 1145.46,825.944 1148.48,823.421 1150.21,821.898 1155.66,817.05 1156.24,816.526 1163.91,810.108 1165.85,808.645 1168.36,806.823 1171.71,804.507 1173.21,803.386 1174.54,802.422 1184.24,795.974 1192.33,790.628 1193.18,790.035 1205.88,781.969 1207.07,781.184 1207.32,780.992 1208.28,780.212 1209.19,779.407 1209.45,779.177 1213.08,776.13 1214.94,774.503 1215.04,774.418 1217.2,772.614 1217.55,772.297 1229.93,762.555 1246.37,752.358 1254.55,747.357 1257.55,745.398 1259.02,744.475 1264.4,741.226 1266.06,740.267 1266.11,740.236 1267.51,739.205 1301.64,719.31 1307.91,715.778 1308.01,715.718 1319.77,708.807 1333.35,700.862 1333.86,700.536 1334.5,700.085 1355.95,687.063 1357.78,686.09 1359.93,684.783 1369.36,678.766 1378.56,673.545 1383.85,670.333 1395.22,664.038 1409.43,656.912 1414.21,654.632 1416.51,653.366 1420.15,651.408 1447.24,638.17 1449.5,637.128 1452.39,635.577 1458.7,632.303 1460.17,631.439 1462.19,630.272 1464.15,629.002 1464.18,628.984 1471.49,624.001 1480.77,618.392 1490.77,612.949 1510.15,603.416 1512.08,602.355 1542.11,586.061 1545.54,584.137 1557.01,577.333 1574.38,567.291 1580.39,563.728 1580.46,563.683 1583.15,561.728 1590.39,556.89 1613.46,542.791 1631.31,532.755 1633.29,531.574 1633.76,531.255 1642.28,525.272 1642.66,525.026 1644.23,523.881 1674.6,506.04 1678.4,504.143 1681.66,502.545 1684.64,500.868 1685.41,500.376 1687.85,498.855 1692.47,496.105 1698.08,492.95 1698.86,492.455 1703.17,489.494 1706.18,487.541 1708.45,485.934 1710.76,484.173 1712.06,483.215 1714.66,481.363 1725.85,474.215 1727.1,473.377 1728.94,472.017 1740.25,463.751 1741.64,462.841 1746.96,459.114 1754.89,453.519 1763.16,448.37 1769.2,444.931 1771.56,443.447 1784.94,435.795 1792.97,431.048 1796.74,428.662 1797.37,428.276 1801.37,425.57 1804.71,423.438 1804.91,423.298 1809.57,420.121 1812.11,418.49 1829.8,407.349 1844.22,398.818 1864.47,388.55 1870.39,385.303 1875.22,382.397 1899.67,368.289 1905.73,364.781 1910.04,362.086 1910.83,361.538 1917.63,356.606 1922.3,353.532 1922.64,353.318 1926.53,350.609 1927.96,349.656 1931.09,347.644 1931.71,347.259 1935.04,345.228 1941.97,341.248 1944.16,340.049 1946.42,338.836 1949.92,336.726 1953.56,334.616 1957.58,332.067 1961.27,329.843 1966.21,326.626 1971.27,323.559 1971.91,323.181 1983.77,315.872 1987.84,313.588 1998.87,307.057 1998.91,307.03 2010.53,300.103 2017.37,295.897 2021.38,293.275 2052.75,274.845 2059.18,271.181 2069.88,264.817 2094.72,250.877 2107.61,243.768 2109.46,242.659 2109.96,242.322 2110.3,242.094 2111.97,240.849 2118.28,235.987 2124.82,231.501 2125.14,231.269 2128.04,228.96 2129.52,227.711 2131.96,225.533 2137.1,220.919 2140.02,218.52 2149.96,211.307 2150.46,210.932 2161.56,203.403 2162.43,202.791 2197.3,183.019 2202.18,180.663 2202.86,180.283 2209.45,176.209 2214.02,173.576 2216.04,172.285 2220.04,169.829 2220.31,169.672 2220.42,169.593 2225.04,166.199 2230.49,162.103 2234.95,159.043 2238.71,156.62 2238.9,156.481 2241.8,154.469 2259.81,142.588 2261.13,141.828 2268.24,137.378 2311.65,115.459 2318.89,112.179 2323.34,110.187 2339.77,102.917 2352.76,97.2319 "/>
<polyline clip-path="url(#clip571)" style="stroke:#e26f46; stroke-linecap:round; stroke-linejoin:round; stroke-width:4; stroke-opacity:1; fill:none" points="140.696,1384.24 140.696,1384.24 148.26,1380.97 153.958,1378.5 156.569,1377.16 197.029,1358.21 198.555,1357.41 219.178,1347.24 221.714,1345.84 224.84,1344.17 230.137,1341.43 230.775,1341.1 231.8,1340.59 232.12,1340.43 252.802,1330.55 253.774,1330.1 254.71,1329.67 261.771,1326.47 265.152,1324.95 269.541,1322.64 281.996,1316.45 300.738,1307.73 311.592,1302.11 320.462,1297.79 335.678,1290.72 341.713,1287.53 342.121,1287.32 353.534,1280.88 365.437,1274.8 367.426,1273.83 367.97,1273.56 384.032,1266.01 402.018,1257.91 408.316,1255.12 416.206,1251.65 433.386,1243.11 445.637,1236.59 446.021,1236.36 448.492,1234.72 466.816,1222.97 477.447,1217.23 502.717,1205.03 523.017,1195.89 531.708,1191.43 548.283,1183.49 551.018,1182.22 561.344,1177.53 571.369,1173.05 573.769,1171.79 578.338,1169.09 578.404,1169.05 582.274,1166.56 583.328,1165.82 586.158,1163.89 586.836,1163.44 588.151,1162.47 595.952,1156.58 596.242,1156.36 600.447,1153.19 601.406,1152.5 617.008,1142.63 618.261,1141.81 621.061,1139.81 629.464,1134.33 651.562,1122.23 653.403,1121.16 663.403,1115.7 667.066,1113.81 674.667,1110.02 684.921,1105.14 698.708,1098.82 701.194,1097.7 702.819,1096.83 706.665,1094.53 711.451,1091.79 713.598,1090.43 715.265,1089.41 716.658,1088.56 723.612,1084.56 729.545,1081.36 752.239,1070.21 755.723,1068.59 757.428,1067.66 794.6,1048.08 806.129,1042.76 812.68,1039.31 819.872,1035.7 826.265,1032.61 828.081,1031.75 829.413,1031.12 842.315,1025.17 845.272,1023.59 848.002,1022.16 850.13,1021.07 858.281,1017.03 863.024,1014.75 867.998,1012.41 869.563,1011.55 888.847,1000.63 892.034,999.006 906.463,991.991 908.243,991.008 915.894,986.953 918.602,985.573 921.866,983.678 922.481,983.329 932.423,977.956 942.672,972.109 949.16,968.203 956.451,964.141 968.797,957.802 972.45,956.017 974.448,955.054 976.959,953.651 977.787,953.126 978.123,952.914 983.149,949.861 993.047,944.331 1015.52,933.192 1022.7,929.861 1042.57,920.913 1053.37,915.406 1062.15,911.174 1081,902.502 1098.18,894.86 1101.66,893.051 1110.61,888.58 1131.16,877.801 1135.31,875.789 1143.09,872.121 1143.81,871.786 1144.61,871.413 1145.46,871.022 1148.48,869.632 1150.21,868.838 1155.66,866.363 1156.24,866.105 1163.91,862.104 1165.85,860.97 1168.36,859.328 1171.71,856.953 1173.21,855.935 1174.54,855.056 1184.24,849.096 1192.33,844.61 1193.18,844.162 1205.88,837.724 1207.07,837.149 1207.32,837.024 1208.28,836.563 1209.19,836.126 1209.45,836 1213.08,834.272 1214.94,833.396 1215.04,833.349 1217.2,832.34 1217.55,832.175 1229.93,825.69 1246.37,816.775 1254.55,812.728 1257.55,811.284 1259.02,810.587 1264.4,807.641 1266.06,806.622 1266.11,806.594 1267.51,805.751 1301.64,786.621 1307.91,783.614 1308.01,783.569 1319.77,778.106 1333.35,771.99 1333.86,771.758 1334.5,771.475 1355.95,760.831 1357.78,759.822 1359.93,758.654 1369.36,753.775 1378.56,749.283 1383.85,746.781 1395.22,741.544 1409.43,734.259 1414.21,731.573 1416.51,730.328 1420.15,728.111 1447.24,713.844 1449.5,712.572 1452.39,710.997 1458.7,707.202 1460.17,706.36 1462.19,705.053 1464.15,703.822 1464.18,703.806 1471.49,698.94 1480.77,692.776 1490.77,686.945 1510.15,675.893 1512.08,674.901 1542.11,660.6 1545.54,659.051 1557.01,653.929 1574.38,646.286 1580.39,643.659 1580.46,643.629 1583.15,642.455 1590.39,639.304 1613.46,629.287 1631.31,621.553 1633.29,620.695 1633.76,620.49 1642.28,616.801 1642.66,616.638 1644.23,615.956 1674.6,602.812 1678.4,600.866 1681.66,598.97 1684.64,597.298 1685.41,596.872 1687.85,595.547 1692.47,592.754 1698.08,589.128 1698.86,588.643 1703.17,586.069 1706.18,584.345 1708.45,583.079 1710.76,581.82 1712.06,581.013 1714.66,579.227 1725.85,571.525 1727.1,570.746 1728.94,569.62 1740.25,563.203 1741.64,562.462 1746.96,559.702 1754.89,555.76 1763.16,551.211 1769.2,548.089 1771.56,546.901 1784.94,539.575 1792.97,535.532 1796.74,533.699 1797.37,533.396 1801.37,531.487 1804.71,529.65 1804.91,529.543 1809.57,526.704 1812.11,525.229 1829.8,515.856 1844.22,508.938 1864.47,498.577 1870.39,495.766 1875.22,493.515 1899.67,482.494 1905.73,479.815 1910.04,477.923 1910.83,477.575 1917.63,474.597 1922.3,472.558 1922.64,472.411 1926.53,470.713 1927.96,469.969 1931.09,468.118 1931.71,467.762 1935.04,465.875 1941.97,461.617 1944.16,460.167 1946.42,458.534 1949.92,456.131 1953.56,453.47 1957.58,450.728 1961.27,448.06 1966.21,444.736 1971.27,441.191 1971.91,440.705 1983.77,432.666 1987.84,429.885 1998.87,423.142 1998.91,423.118 2010.53,416.054 2017.37,412.306 2021.38,410.211 2052.75,395.258 2059.18,392.361 2069.88,387.605 2094.72,376.716 2107.61,371.108 2109.46,370.305 2109.96,370.089 2110.3,369.912 2111.97,369.05 2118.28,365.876 2124.82,362.211 2125.14,362.039 2128.04,360.488 2129.52,359.712 2131.96,358.451 2137.1,355.863 2140.02,354.424 2149.96,348.985 2150.46,348.722 2161.56,342.387 2162.43,341.919 2197.3,323.495 2202.18,321.209 2202.86,320.896 2209.45,317.866 2214.02,315.795 2216.04,314.885 2220.04,313.09 2220.31,312.973 2220.42,312.921 2225.04,310.864 2230.49,308.449 2234.95,306.137 2238.71,303.94 2238.9,303.829 2241.8,301.963 2259.81,291.736 2261.13,291.053 2268.24,287.472 2311.65,267.537 2318.89,264.349 2323.34,262.4 2339.77,254.226 2352.76,248.174 "/>
<polyline clip-path="url(#clip571)" style="stroke:#3da44d; stroke-linecap:round; stroke-linejoin:round; stroke-width:4; stroke-opacity:1; fill:none" points="140.696,1384.24 140.696,1384.24 148.26,1380.97 153.958,1378.5 156.569,1377.16 197.029,1358.21 198.555,1357.41 219.178,1347.24 221.714,1345.84 224.84,1344.17 230.137,1341.02 230.775,1340.6 231.8,1339.93 232.12,1339.7 252.802,1326.76 253.774,1326.23 254.71,1325.72 261.771,1322.02 265.152,1320.31 269.541,1317.8 281.996,1311.2 300.738,1301.08 311.592,1295.05 320.462,1290.51 335.678,1283.22 341.713,1279.98 342.121,1279.77 353.534,1273.26 365.437,1267.14 367.426,1266.16 367.97,1265.9 384.032,1258.32 402.018,1250.21 408.316,1246.94 416.206,1243.03 433.386,1233.94 445.637,1227.22 446.021,1226.98 448.492,1225.31 466.816,1213.43 477.447,1207.65 502.717,1194.1 523.017,1184.58 531.708,1180.03 548.283,1172 551.018,1170.72 561.344,1166 571.369,1161.5 573.769,1160.24 578.338,1157.54 578.404,1157.49 582.274,1154.7 583.328,1153.88 586.158,1151.76 586.836,1151.27 588.151,1150.23 595.952,1143.97 596.242,1143.73 600.447,1140.41 601.406,1139.69 617.008,1128.5 618.261,1127.61 621.061,1125.47 629.464,1119.64 651.562,1105.86 653.403,1104.72 663.403,1098.92 667.066,1096.94 674.667,1093.01 684.921,1087.29 698.708,1080.3 701.194,1079.1 702.819,1078.19 706.665,1075.78 711.451,1072.94 713.598,1071.54 715.265,1070.34 716.658,1069.37 723.612,1064.82 729.545,1061.27 752.239,1049.4 755.723,1047.72 757.428,1046.77 794.6,1026.92 806.129,1021.58 812.68,1018.12 819.872,1013.97 826.265,1010.53 828.081,1009.58 829.413,1008.89 842.315,1001.69 845.272,999.908 848.002,998.323 850.13,997.12 858.281,992.728 863.024,990.301 867.998,987.832 869.563,986.939 888.847,975.753 892.034,974.099 906.463,967.001 908.243,966.011 915.894,961.932 918.602,960.545 921.866,958.644 922.481,958.293 932.423,952.905 942.672,947.047 949.16,943.136 956.451,938.533 968.797,931.598 972.45,929.4 974.448,928.238 976.959,926.609 977.787,926.014 978.123,925.775 983.149,922.359 993.047,916.314 1015.52,904.59 1022.7,901.167 1042.57,892.074 1053.37,886.53 1062.15,882.277 1081,873.582 1098.18,865.93 1101.66,864.12 1110.61,859.646 1131.16,848.864 1135.31,846.852 1143.09,842.616 1143.81,842.238 1144.61,841.818 1145.46,841.38 1148.48,839.835 1150.21,838.816 1155.66,835.32 1156.24,834.92 1163.91,829.326 1165.85,827.869 1168.36,825.849 1171.71,823.03 1173.21,821.834 1174.54,820.696 1184.24,812.565 1192.33,806.867 1193.18,806.316 1205.88,797.881 1207.07,797.072 1207.32,796.897 1208.28,796.258 1209.19,795.583 1209.45,795.367 1213.08,792.206 1214.94,790.528 1215.04,790.44 1217.2,788.404 1217.55,788.081 1229.93,777.368 1246.37,765.482 1254.55,760.005 1257.55,758.155 1259.02,757.278 1264.4,753.766 1266.06,752.599 1266.11,752.567 1267.51,751.489 1301.64,729.527 1307.91,726.328 1308.01,726.28 1319.77,719.785 1333.35,712.992 1333.86,712.742 1334.5,712.436 1355.95,701.319 1357.78,700.287 1359.93,699.093 1369.36,694.13 1378.56,688.932 1383.85,686.137 1395.22,679.694 1409.43,671.554 1414.21,668.682 1416.51,667.362 1420.15,665.04 1447.24,648.999 1449.5,647.655 1452.39,645.997 1458.7,642.056 1460.17,641.186 1462.19,639.843 1464.15,638.579 1464.18,638.563 1471.49,633.599 1480.77,627.349 1490.77,621.458 1510.15,610.345 1512.08,609.349 1542.11,595.017 1545.54,593.467 1557.01,588.342 1574.38,580.695 1580.39,578.068 1580.46,578.038 1583.15,576.864 1590.39,573.178 1613.46,562.26 1631.31,553.19 1633.29,552.239 1633.76,551.973 1642.28,547.375 1642.66,547.147 1644.23,546.204 1674.6,528.978 1678.4,526.812 1681.66,524.755 1684.64,522.954 1685.41,522.433 1687.85,520.625 1692.47,517.051 1698.08,512.67 1698.86,512.093 1703.17,509.071 1706.18,506.839 1708.45,505.231 1710.76,503.47 1712.06,502.402 1714.66,500.137 1725.85,490.91 1727.1,489.898 1728.94,488.452 1740.25,480.555 1741.64,479.563 1746.96,475.972 1754.89,471.106 1763.16,465.887 1769.2,462.412 1771.56,461.11 1784.94,453.322 1792.97,449.109 1796.74,447.215 1797.37,446.85 1801.37,444.262 1804.71,441.945 1804.91,441.812 1809.57,438.418 1812.11,436.478 1829.8,424.996 1844.22,417.249 1864.47,406.343 1870.39,403.446 1875.22,401.14 1899.67,389.967 1905.73,387.27 1910.04,385.369 1910.83,385.018 1917.63,382.029 1922.3,379.619 1922.64,379.448 1926.53,377.498 1927.96,376.672 1931.09,374.66 1931.71,374.222 1935.04,371.662 1941.97,366.288 1944.16,364.551 1946.42,362.65 1949.92,359.884 1953.56,356.9 1957.58,353.858 1961.27,350.958 1966.21,347.378 1971.27,343.624 1971.91,343.114 1983.77,334.745 1987.84,331.886 1998.87,324.99 1998.91,324.966 2010.53,317.806 2017.37,314.02 2021.38,311.908 2052.75,296.889 2059.18,293.987 2069.88,289.225 2094.72,277.033 2107.61,271.146 2109.46,270.315 2109.96,270.091 2110.3,269.91 2111.97,269.024 2118.28,265.778 2124.82,262.057 2125.14,261.883 2128.04,260.312 2129.52,259.403 2131.96,257.941 2137.1,254.995 2140.02,253.387 2149.96,247.511 2150.46,247.232 2161.56,240.599 2162.43,240.04 2197.3,219.799 2202.18,217.418 2202.86,217.093 2209.45,213.474 2214.02,211.085 2216.04,210.054 2220.04,208.049 2220.31,207.919 2220.42,207.852 2225.04,205.24 2230.49,202.302 2234.95,199.648 2238.71,197.211 2238.9,197.088 2241.8,195.065 2259.81,184.207 2261.13,183.384 2268.24,179.176 2311.65,157.81 2318.89,154.556 2323.34,152.576 2339.77,144.328 2352.76,138.247 "/>
<polyline clip-path="url(#clip571)" style="stroke:#c271d2; stroke-linecap:round; stroke-linejoin:round; stroke-width:4; stroke-opacity:1; fill:none" points="140.696,1384.24 140.696,1384.24 148.26,1380.97 153.958,1378.5 156.569,1377.37 197.029,1358.25 198.555,1357.57 219.178,1347.3 221.714,1346.11 224.84,1344.4 230.137,1341.2 230.775,1340.83 231.8,1340.15 232.12,1339.91 252.802,1326.85 253.774,1326.31 254.71,1325.8 261.771,1321.55 265.152,1319.36 269.541,1316.33 281.996,1308.71 300.738,1297.81 311.592,1292.3 320.462,1287.4 335.678,1278.79 341.713,1275.23 342.121,1274.96 353.534,1268.06 365.437,1261.7 367.426,1260.69 367.97,1260.42 384.032,1252.68 402.018,1243.42 408.316,1240.4 416.206,1236.71 433.386,1228.94 445.637,1223.52 446.021,1223.31 448.492,1221.83 466.816,1211.89 477.447,1206.7 502.717,1195.1 523.017,1184.98 531.708,1180.93 548.283,1173.43 551.018,1172.22 561.344,1166.94 571.369,1161.4 573.769,1159.95 578.338,1157.3 578.404,1157.27 582.274,1154.81 583.328,1154.17 586.158,1152.25 586.836,1151.8 588.151,1150.95 595.952,1146.18 596.242,1146.01 600.447,1143.3 601.406,1142.62 617.008,1132.87 618.261,1132.16 621.061,1130.39 629.464,1124.84 651.562,1111.43 653.403,1110.45 663.403,1104.67 667.066,1102.41 674.667,1097.46 684.921,1091.52 698.708,1084.36 701.194,1082.93 702.819,1082.02 706.665,1079.92 711.451,1077.4 713.598,1076.3 715.265,1075.32 716.658,1074.51 723.612,1070.65 729.545,1067.55 752.239,1056.59 755.723,1054.99 757.428,1054.21 794.6,1037.72 806.129,1032.69 812.68,1029.84 819.872,1026.71 826.265,1023.46 828.081,1022.41 829.413,1021.65 842.315,1014.77 845.272,1013.28 848.002,1011.71 850.13,1010.52 858.281,1006.16 863.024,1003.75 867.998,1000.9 869.563,1000.04 888.847,990.205 892.034,988.681 906.463,981.99 908.243,981.182 915.894,977.179 918.602,975.814 921.866,974.197 922.481,973.896 932.423,969.141 942.672,964.409 949.16,961.473 956.451,958.212 968.797,952.753 972.45,950.857 974.448,949.841 976.959,948.582 977.787,948.1 978.123,947.906 983.149,944.696 993.047,938.943 1015.52,926.325 1022.7,922.76 1042.57,912.31 1053.37,907.144 1062.15,902.461 1081,893.257 1098.18,885.399 1101.66,883.564 1110.61,879.04 1131.16,868.197 1135.31,865.849 1143.09,861.7 1143.81,861.267 1144.61,860.788 1145.46,860.219 1148.48,858.242 1150.21,857.145 1155.66,853.859 1156.24,853.526 1163.91,849.255 1165.85,848.227 1168.36,846.915 1171.71,844.927 1173.21,844.064 1174.54,843.202 1184.24,836.66 1192.33,831.849 1193.18,831.301 1205.88,822.908 1207.07,822.201 1207.32,822.026 1208.28,821.304 1209.19,820.63 1209.45,820.414 1213.08,817.258 1214.94,815.736 1215.04,815.657 1217.2,813.786 1217.55,813.489 1229.93,803.458 1246.37,793.057 1254.55,788.592 1257.55,787.029 1259.02,786.279 1264.4,783.582 1266.06,782.767 1266.11,782.74 1267.51,781.94 1301.64,764.84 1307.91,761.97 1308.01,761.927 1319.77,755.845 1333.35,749.323 1333.86,749.036 1334.5,748.686 1355.95,736.627 1357.78,735.701 1359.93,734.444 1369.36,728.6 1378.56,722.836 1383.85,719.4 1395.22,712 1409.43,704.091 1414.21,701.269 1416.51,699.781 1420.15,697.516 1447.24,681.7 1449.5,680.552 1452.39,678.882 1458.7,674.92 1460.17,674.044 1462.19,672.864 1464.15,671.743 1464.18,671.729 1471.49,667.741 1480.77,663.004 1490.77,658.172 1510.15,648.145 1512.08,647.054 1542.11,630.518 1545.54,628.857 1557.01,623.464 1574.38,614.559 1580.39,611.679 1580.46,611.641 1583.15,609.936 1590.39,605.104 1613.46,591.016 1631.31,582.046 1633.29,581.103 1633.76,580.878 1642.28,576.903 1642.66,576.698 1644.23,575.844 1674.6,559.531 1678.4,557.717 1681.66,555.917 1684.64,554.321 1685.41,553.913 1687.85,552.442 1692.47,549.412 1698.08,545.986 1698.86,545.458 1703.17,542.675 1706.18,540.585 1708.45,539.072 1710.76,537.587 1712.06,536.773 1714.66,534.972 1725.85,527.224 1727.1,526.441 1728.94,525.156 1740.25,517.24 1741.64,516.246 1746.96,512.649 1754.89,507.776 1763.16,503.151 1769.2,499.989 1771.56,498.594 1784.94,491.303 1792.97,486.689 1796.74,484.351 1797.37,483.918 1801.37,481.262 1804.71,479.166 1804.91,479.027 1809.57,475.892 1812.11,474.072 1829.8,463.131 1844.22,454.679 1864.47,444.462 1870.39,441.224 1875.22,438.699 1899.67,425.639 1905.73,422.717 1910.04,420.35 1910.83,419.923 1917.63,415.872 1922.3,412.9 1922.64,412.692 1926.53,410.362 1927.96,409.412 1931.09,407.154 1931.71,406.672 1935.04,403.892 1941.97,398.669 1944.16,397.152 1946.42,395.642 1949.92,393.407 1953.56,391.187 1957.58,388.535 1961.27,385.937 1966.21,382.69 1971.27,379.6 1971.91,379.164 1983.77,371.84 1987.84,369.553 1998.87,363.767 1998.91,363.743 2010.53,357.288 2017.37,353.775 2021.38,351.788 2052.75,335.791 2059.18,332.809 2069.88,327.956 2094.72,316.961 2107.61,311.331 2109.46,310.373 2109.96,310.117 2110.3,309.942 2111.97,308.952 2118.28,305.374 2124.82,301.396 2125.14,301.211 2128.04,299.314 2129.52,298.378 2131.96,296.675 2137.1,292.904 2140.02,290.905 2149.96,284.719 2150.46,284.427 2161.56,277.582 2162.43,277.085 2197.3,259.586 2202.18,257.348 2202.86,257.041 2209.45,254.06 2214.02,252.015 2216.04,250.948 2220.04,248.881 2220.31,248.747 2220.42,248.688 2225.04,246.377 2230.49,243.722 2234.95,241.603 2238.71,239.84 2238.9,239.733 2241.8,238.155 2259.81,228.008 2261.13,227.217 2268.24,222.629 2311.65,200.397 2318.89,197.103 2323.34,195.104 2339.77,187.817 2352.76,182.126 "/>
<polyline clip-path="url(#clip571)" style="stroke:#ac8d18; stroke-linecap:round; stroke-linejoin:round; stroke-width:4; stroke-opacity:1; fill:none" points="140.696,1384.24 140.696,1384.24 148.26,1380.41 153.958,1377.2 156.569,1375.79 197.029,1356.37 198.555,1355.69 219.178,1346.56 221.714,1345.44 224.84,1344.08 230.137,1341.76 230.775,1341.48 231.8,1341.04 232.12,1340.9 252.802,1330.73 253.774,1330.2 254.71,1329.61 261.771,1325.37 265.152,1323.46 269.541,1321.07 281.996,1313.9 300.738,1304.44 311.592,1299.35 320.462,1295.3 335.678,1288.51 341.713,1285.84 342.121,1285.66 353.534,1280.66 365.437,1274.67 367.426,1273.71 367.97,1273.45 384.032,1264.96 402.018,1256.38 408.316,1253.49 416.206,1249.93 433.386,1242.31 445.637,1236.94 446.021,1236.78 448.492,1235.7 466.816,1227.72 477.447,1222.38 502.717,1210.62 523.017,1201.6 531.708,1197.78 548.283,1190.56 551.018,1189.37 561.344,1184.88 571.369,1180.53 573.769,1179.49 578.338,1177.51 578.404,1177.49 582.274,1175.81 583.328,1175.35 586.158,1174.13 586.836,1173.77 588.151,1173.1 595.952,1169.2 596.242,1169.06 600.447,1167.03 601.406,1166.57 617.008,1159.32 618.261,1158.76 621.061,1157.49 629.464,1153.73 651.562,1143.99 653.403,1143.18 663.403,1138.82 667.066,1137.23 674.667,1133.92 684.921,1129.47 698.708,1122.61 701.194,1121.42 702.819,1120.65 706.665,1118.85 711.451,1116.64 713.598,1115.65 715.265,1114.89 716.658,1114.14 723.612,1110 729.545,1106.27 752.239,1092.76 755.723,1090.95 757.428,1090.08 794.6,1072.66 806.129,1066.76 812.68,1063.59 819.872,1060.2 826.265,1057.26 828.081,1056.43 829.413,1055.71 842.315,1049.12 845.272,1047.68 848.002,1046.37 850.13,1045.19 858.281,1040.25 863.024,1037.22 867.998,1034.24 869.563,1033.34 888.847,1023.21 892.034,1021.41 906.463,1012.91 908.243,1011.95 915.894,1007.98 918.602,1006.4 921.866,1004.56 922.481,1004.22 932.423,998.965 942.672,993.907 949.16,990.829 956.451,987.452 968.797,981.044 972.45,979.246 974.448,978.111 976.959,976.718 977.787,976.266 978.123,976.083 983.149,973.415 993.047,968.433 1015.52,957.915 1022.7,954.682 1042.57,945.886 1053.37,941.161 1062.15,937.337 1081,929.148 1098.18,921.701 1101.66,920.195 1110.61,916.317 1131.16,907.423 1135.31,905.623 1143.09,902.259 1143.81,901.948 1144.61,901.531 1145.46,901.096 1148.48,899.318 1150.21,898.324 1155.66,895.311 1156.24,895.004 1163.91,891.014 1165.85,890.043 1168.36,888.797 1171.71,887.158 1173.21,886.308 1174.54,885.569 1184.24,880.415 1192.33,875.792 1193.18,875.332 1205.88,868.763 1207.07,868.179 1207.32,868.052 1208.28,867.584 1209.19,867.141 1209.45,867.014 1213.08,865.263 1214.94,864.377 1215.04,864.33 1217.2,863.31 1217.55,863.114 1229.93,856.598 1246.37,848.668 1254.55,844.899 1257.55,843.29 1259.02,842.521 1264.4,839.76 1266.06,838.929 1266.11,838.905 1267.51,838.21 1301.64,822.369 1307.91,819.111 1308.01,819.054 1319.77,812.489 1333.35,804.769 1333.86,804.494 1334.5,804.104 1355.95,792.371 1357.78,791.462 1359.93,790.4 1369.36,785.883 1378.56,781.624 1383.85,779.218 1395.22,774.125 1409.43,767.851 1414.21,765.756 1416.51,764.753 1420.15,763.163 1447.24,751.38 1449.5,750.397 1452.39,749.147 1458.7,746.411 1460.17,745.652 1462.19,744.619 1464.15,743.467 1464.18,743.45 1471.49,738.827 1480.77,733.534 1490.77,728.312 1510.15,719.005 1512.08,718.117 1542.11,704.671 1545.54,702.89 1557.01,696.431 1574.38,687.711 1580.39,684.413 1580.46,684.376 1583.15,682.956 1590.39,679.274 1613.46,668.363 1631.31,660.358 1633.29,659.317 1633.76,659.071 1642.28,654.158 1642.66,653.951 1644.23,652.96 1674.6,636.687 1678.4,634.874 1681.66,633.338 1684.64,631.711 1685.41,631.296 1687.85,630.002 1692.47,627.62 1698.08,624.821 1698.86,624.436 1703.17,622.013 1706.18,620.38 1708.45,618.987 1710.76,617.611 1712.06,616.854 1714.66,615.37 1725.85,609.392 1727.1,608.757 1728.94,607.829 1740.25,602.329 1741.64,601.672 1746.96,598.779 1754.89,594.112 1763.16,589.635 1769.2,586.551 1771.56,585.376 1784.94,578.97 1792.97,575.265 1796.74,573.554 1797.37,573.269 1801.37,571.465 1804.71,569.971 1804.91,569.882 1809.57,567.805 1812.11,566.682 1829.8,557.85 1844.22,551.147 1864.47,542.077 1870.39,539.469 1875.22,536.972 1899.67,525.275 1905.73,522.056 1910.04,519.861 1910.83,519.395 1917.63,515.567 1922.3,513.077 1922.64,512.901 1926.53,510.588 1927.96,509.764 1931.09,508.007 1931.71,507.668 1935.04,505.865 1941.97,502.263 1944.16,501.162 1946.42,500.04 1949.92,498.053 1953.56,496.053 1957.58,493.924 1961.27,492.024 1966.21,489.165 1971.27,486.391 1971.91,486.046 1983.77,479.198 1987.84,477.024 1998.87,470.706 1998.91,470.684 2010.53,464.674 2017.37,460.823 2021.38,458.363 2052.75,442.012 2059.18,438.518 2069.88,432.346 2094.72,419.912 2107.61,413.126 2109.46,412.204 2109.96,411.915 2110.3,411.718 2111.97,410.762 2118.28,406.816 2124.82,403.043 2125.14,402.84 2128.04,401.018 2129.52,400.117 2131.96,398.667 2137.1,395.743 2140.02,394.145 2149.96,388.991 2150.46,388.696 2161.56,382.572 2162.43,382.117 2197.3,365.468 2202.18,363.274 2202.86,362.915 2209.45,359.5 2214.02,357.221 2216.04,356.232 2220.04,354.3 2220.31,354.174 2220.42,354.119 2225.04,351.573 2230.49,348.278 2234.95,345.741 2238.71,343.685 2238.9,343.581 2241.8,342.043 2259.81,333.126 2261.13,332.503 2268.24,329.193 2311.65,309.877 2318.89,306.717 2323.34,304.782 2339.77,297.645 2352.76,292.014 "/>
<polyline clip-path="url(#clip571)" style="stroke:#00a9ad; stroke-linecap:round; stroke-linejoin:round; stroke-width:4; stroke-opacity:1; fill:none" points="140.696,1384.24 140.696,1384.24 148.26,1380.41 153.958,1377.63 156.569,1376.39 197.029,1356.47 198.555,1355.78 219.178,1345.43 221.714,1344.23 224.84,1342.52 230.137,1339.31 230.775,1338.93 231.8,1338.25 232.12,1338.02 252.802,1323.76 253.774,1323.11 254.71,1322.42 261.771,1316.99 265.152,1314.36 269.541,1311.19 281.996,1303.29 300.738,1292.18 311.592,1286.61 320.462,1281.68 335.678,1273.03 341.713,1269.92 342.121,1269.68 353.534,1263.35 365.437,1257.34 367.426,1256.38 367.97,1256.11 384.032,1247.61 402.018,1237.95 408.316,1234.85 416.206,1231.1 433.386,1223.23 445.637,1217.77 446.021,1217.6 448.492,1216.51 466.816,1208.48 477.447,1203.11 502.717,1191.33 523.017,1181.16 531.708,1177.09 548.283,1169.59 551.018,1168.37 561.344,1163.09 571.369,1157.55 573.769,1156.29 578.338,1153.97 578.404,1153.93 582.274,1151.7 583.328,1151.11 586.158,1149.33 586.836,1148.85 588.151,1147.95 595.952,1142.93 596.242,1142.75 600.447,1139.94 601.406,1139.24 617.008,1129.24 618.261,1128.53 621.061,1126.96 629.464,1121.88 651.562,1109.12 653.403,1108.17 663.403,1102.52 667.066,1100.29 674.667,1095.39 684.921,1089.5 698.708,1082.39 701.194,1080.96 702.819,1080.06 706.665,1077.96 711.451,1075.45 713.598,1074.35 715.265,1073.37 716.658,1072.44 723.612,1067.59 729.545,1063.85 752.239,1051.56 755.723,1049.85 757.428,1049.02 794.6,1032.04 806.129,1026.19 812.68,1023.03 819.872,1019.66 826.265,1016.24 828.081,1015.15 829.413,1014.36 842.315,1007.29 845.272,1005.78 848.002,1004.18 850.13,1002.97 858.281,998.562 863.024,996.126 867.998,993.264 869.563,992.394 888.847,982.518 892.034,980.99 906.463,973.367 908.243,972.48 915.894,968.203 918.602,966.54 921.866,964.611 922.481,964.255 932.423,958.804 942.672,953.616 949.16,950.483 956.451,947.059 968.797,941.42 972.45,939.488 974.448,938.288 976.959,936.821 977.787,936.347 978.123,936.155 983.149,932.98 993.047,927.278 1015.52,914.717 1022.7,911.161 1042.57,900.725 1053.37,895.563 1062.15,890.882 1081,881.68 1098.18,873.823 1101.66,872.267 1110.61,868.289 1131.16,859.273 1135.31,857.131 1143.09,853.276 1143.81,852.866 1144.61,852.342 1145.46,851.729 1148.48,849.361 1150.21,848.063 1155.66,844.235 1156.24,843.853 1163.91,839.028 1165.85,837.888 1168.36,836.444 1171.71,834.572 1173.21,833.755 1174.54,832.931 1184.24,826.609 1192.33,821.334 1193.18,820.747 1205.88,811.91 1207.07,811.173 1207.32,810.992 1208.28,810.247 1209.19,809.552 1209.45,809.331 1213.08,806.101 1214.94,804.546 1215.04,804.464 1217.2,802.559 1217.55,802.226 1229.93,792.062 1246.37,781.568 1254.55,777.076 1257.55,775.505 1259.02,774.753 1264.4,772.045 1266.06,771.227 1266.11,771.2 1267.51,770.398 1301.64,753.272 1307.91,750.4 1308.01,750.348 1319.77,743.477 1333.35,735.557 1333.86,735.232 1334.5,734.782 1355.95,721.777 1357.78,720.806 1359.93,719.499 1369.36,713.486 1378.56,707.615 1383.85,704.133 1395.22,696.666 1409.43,688.71 1414.21,686.251 1416.51,684.911 1420.15,682.851 1447.24,667.852 1449.5,666.737 1452.39,665.105 1458.7,661.685 1460.17,660.793 1462.19,659.59 1464.15,658.288 1464.18,658.269 1471.49,653.189 1480.77,647.495 1490.77,641.993 1510.15,632.399 1512.08,631.334 1542.11,615.01 1545.54,613.359 1557.01,607.993 1574.38,599.108 1580.39,595.776 1580.46,595.733 1583.15,593.863 1590.39,588.674 1613.46,573.984 1631.31,564.832 1633.29,563.876 1633.76,563.649 1642.28,559.019 1642.66,558.789 1644.23,557.71 1674.6,539.101 1678.4,537.162 1681.66,535.534 1684.64,533.833 1685.41,533.401 1687.85,531.856 1692.47,529.068 1698.08,525.876 1698.86,525.377 1703.17,522.393 1706.18,520.184 1708.45,518.405 1710.76,516.676 1712.06,515.734 1714.66,513.913 1725.85,506.862 1727.1,506.138 1728.94,504.933 1740.25,497.387 1741.64,496.427 1746.96,492.533 1754.89,487.329 1763.16,482.464 1769.2,479.175 1771.56,477.739 1784.94,470.282 1792.97,465.608 1796.74,463.248 1797.37,462.812 1801.37,460.137 1804.71,458.027 1804.91,457.888 1809.57,454.737 1812.11,452.91 1829.8,440.88 1844.22,431.999 1864.47,421.501 1870.39,418.219 1875.22,415.29 1899.67,401.117 1905.73,397.602 1910.04,394.903 1910.83,394.354 1917.63,389.417 1922.3,385.975 1922.64,385.738 1926.53,382.78 1927.96,381.746 1931.09,379.574 1931.71,379.108 1935.04,376.405 1941.97,371.31 1944.16,369.826 1946.42,368.346 1949.92,366.153 1953.56,363.969 1957.58,361.352 1961.27,359.075 1966.21,355.799 1971.27,352.684 1971.91,352.301 1983.77,345.713 1987.84,343.6 1998.87,337.403 1998.91,337.377 2010.53,330.661 2017.37,326.537 2021.38,323.952 2052.75,305.666 2059.18,302.498 2069.88,296.698 2094.72,284.669 2107.61,277.97 2109.46,276.903 2109.96,276.577 2110.3,276.356 2111.97,275.144 2118.28,270.388 2124.82,265.985 2125.14,265.756 2128.04,263.477 2129.52,262.364 2131.96,260.395 2137.1,256.15 2140.02,253.925 2149.96,247.162 2150.46,246.847 2161.56,240.365 2162.43,239.889 2197.3,222.818 2202.18,220.602 2202.86,220.298 2209.45,217.339 2214.02,215.307 2216.04,214.244 2220.04,212.185 2220.31,212.052 2220.42,211.993 2225.04,209.329 2230.49,206.34 2234.95,204.003 2238.71,202.088 2238.9,201.973 2241.8,200.295 2259.81,189.746 2261.13,188.937 2268.24,184.266 2311.65,161.844 2318.89,158.541 2323.34,156.538 2339.77,149.242 2352.76,143.546 "/>
<polyline clip-path="url(#clip571)" style="stroke:#ed5d92; stroke-linecap:round; stroke-linejoin:round; stroke-width:4; stroke-opacity:1; fill:none" points="140.696,1384.24 140.696,1384.24 148.26,1380.41 153.958,1377.63 156.569,1376.39 197.029,1358.09 198.555,1357.42 219.178,1348.41 221.714,1347.3 224.84,1345.94 230.137,1343.64 230.775,1343.31 231.8,1342.78 232.12,1342.62 252.802,1331.41 253.774,1330.85 254.71,1330.23 261.771,1325.82 265.152,1323.85 269.541,1321.05 281.996,1313.89 300.738,1304.43 311.592,1299.34 320.462,1295.3 335.678,1288.5 341.713,1285.38 342.121,1285.18 353.534,1279.6 365.437,1274.05 367.426,1273.14 367.97,1272.89 384.032,1264.69 402.018,1256.25 408.316,1252.92 416.206,1248.96 433.386,1240.83 445.637,1235.27 446.021,1235.06 448.492,1233.56 466.816,1223.54 477.447,1217.59 502.717,1203.84 523.017,1194.26 531.708,1190.32 548.283,1182.96 551.018,1181.76 561.344,1177.23 571.369,1172.86 573.769,1171.62 578.338,1169.31 578.404,1169.28 582.274,1167.37 583.328,1166.86 586.158,1165.5 586.836,1165.11 588.151,1164.38 595.952,1160.21 596.242,1160.06 600.447,1157.91 601.406,1157.43 617.008,1148.96 618.261,1148.33 621.061,1146.7 629.464,1142.08 651.562,1131.18 653.403,1130.32 663.403,1125.72 667.066,1124.07 674.667,1120.67 684.921,1115.41 698.708,1108.8 701.194,1107.65 702.819,1106.9 706.665,1105.13 711.451,1102.96 713.598,1101.99 715.265,1101.25 716.658,1100.5 723.612,1096.4 729.545,1093.14 752.239,1081.86 755.723,1080.23 757.428,1079.44 794.6,1062.82 806.129,1057.01 812.68,1053.86 819.872,1049.96 826.265,1046.68 828.081,1045.78 829.413,1045.12 842.315,1038.1 845.272,1036.59 848.002,1035.22 850.13,1034.17 858.281,1030.25 863.024,1028.03 867.998,1025.73 869.563,1025.01 888.847,1016.36 892.034,1014.95 906.463,1007.69 908.243,1006.83 915.894,1003.23 918.602,1001.75 921.866,1000.02 922.481,999.695 932.423,994.681 942.672,989.78 949.16,986.771 956.451,982.911 968.797,976.794 972.45,975.055 974.448,973.948 976.959,972.587 977.787,972.075 978.123,971.868 983.149,968.883 993.047,963.45 1015.52,952.421 1022.7,949.108 1042.57,940.186 1053.37,935.428 1062.15,931.586 1081,923.376 1098.18,915.92 1101.66,914.135 1110.61,909.709 1131.16,898.985 1135.31,896.98 1143.09,892.753 1143.81,892.376 1144.61,891.888 1145.46,891.381 1148.48,889.367 1150.21,888.107 1155.66,883.962 1156.24,883.503 1163.91,877.806 1165.85,876.489 1168.36,874.838 1171.71,872.453 1173.21,871.43 1174.54,870.547 1184.24,864.567 1192.33,859.483 1193.18,858.984 1205.88,851.974 1207.07,851.26 1207.32,851.106 1208.28,850.54 1209.19,849.931 1209.45,849.756 1213.08,847.41 1214.94,846.1 1215.04,846.031 1217.2,844.562 1217.55,844.297 1229.93,835.113 1246.37,825.308 1254.55,820.418 1257.55,818.734 1259.02,817.931 1264.4,815.065 1266.06,814.206 1266.11,814.182 1267.51,813.347 1301.64,795.824 1307.91,792.925 1308.01,792.873 1319.77,786.759 1333.35,779.336 1333.86,779.069 1334.5,778.688 1355.95,765.971 1357.78,765.014 1359.93,763.9 1369.36,759.208 1378.56,754.836 1383.85,752.383 1395.22,747.221 1409.43,740.898 1414.21,738.419 1416.51,737.26 1420.15,735.452 1447.24,722.806 1449.5,721.787 1452.39,720.498 1458.7,717.215 1460.17,716.349 1462.19,715.18 1464.15,713.908 1464.18,713.89 1471.49,708.901 1480.77,703.287 1490.77,697.841 1510.15,687.184 1512.08,686.215 1542.11,672.107 1545.54,670.568 1557.01,665.47 1574.38,657.845 1580.39,654.766 1580.46,654.732 1583.15,653.392 1590.39,649.884 1613.46,639.264 1631.31,630.285 1633.29,629.34 1633.76,629.075 1642.28,623.886 1642.66,623.668 1644.23,622.638 1674.6,605.959 1678.4,604.124 1681.66,602.31 1684.64,600.461 1685.41,599.928 1687.85,598.286 1692.47,594.981 1698.08,591.289 1698.86,590.796 1703.17,587.843 1706.18,585.896 1708.45,584.292 1710.76,582.534 1712.06,581.577 1714.66,579.516 1725.85,570.939 1727.1,569.982 1728.94,568.61 1740.25,561.059 1741.64,560.215 1746.96,556.704 1754.89,551.926 1763.16,547.369 1769.2,544.244 1771.56,543.055 1784.94,536.594 1792.97,532.869 1796.74,531.15 1797.37,530.865 1801.37,528.737 1804.71,527.014 1804.91,526.913 1809.57,524.571 1812.11,523.325 1829.8,513.938 1844.22,507.015 1864.47,497.802 1870.39,495.172 1875.22,492.661 1899.67,480.923 1905.73,477.699 1910.04,475.502 1910.83,475.035 1917.63,471.204 1922.3,468.712 1922.64,468.536 1926.53,466.222 1927.96,465.277 1931.09,463.03 1931.71,462.603 1935.04,460.361 1941.97,456.03 1944.16,454.742 1946.42,453.445 1949.92,451.501 1953.56,449.539 1957.58,447.445 1961.27,445.278 1966.21,442.124 1971.27,439.109 1971.91,438.682 1983.77,431.477 1987.84,429.217 1998.87,422.734 1998.91,422.711 2010.53,416.597 2017.37,412.705 2021.38,410.227 2052.75,393.805 2059.18,390.789 2069.88,385.161 2094.72,372.025 2107.61,365.089 2109.46,364.151 2109.96,363.857 2110.3,363.658 2111.97,362.69 2118.28,358.705 2124.82,354.411 2125.14,354.186 2128.04,352.181 2129.52,351.071 2131.96,349.305 2137.1,345.82 2140.02,343.956 2149.96,338.118 2150.46,337.84 2161.56,331.233 2162.43,330.675 2197.3,311.989 2202.18,309.689 2202.86,309.374 2209.45,305.837 2214.02,303.492 2216.04,302.479 2220.04,300.503 2220.31,300.375 2220.42,300.308 2225.04,297.363 2230.49,294.11 2234.95,291.6 2238.71,289.563 2238.9,289.459 2241.8,287.935 2259.81,279.067 2261.13,278.447 2268.24,275.147 2311.65,255.855 2318.89,252.696 2323.34,250.761 2339.77,243.626 2352.76,237.996 "/>
<polyline clip-path="url(#clip571)" style="stroke:#c68125; stroke-linecap:round; stroke-linejoin:round; stroke-width:4; stroke-opacity:1; fill:none" points="140.696,1384.24 140.696,1384.24 148.26,1380.41 153.958,1377.63 156.569,1376.17 197.029,1354.82 198.555,1354.11 219.178,1343.6 221.714,1342.19 224.84,1340.23 230.137,1336.69 230.775,1336.28 231.8,1335.55 232.12,1335.3 252.802,1320.36 253.774,1319.69 254.71,1318.97 261.771,1313.43 265.152,1310.76 269.541,1307.54 281.996,1299.55 300.738,1288.38 311.592,1282.78 320.462,1277.84 335.678,1269.18 341.713,1266.07 342.121,1265.83 353.534,1259.5 365.437,1253.49 367.426,1252.52 367.97,1252.26 384.032,1243.76 402.018,1234.09 408.316,1230.99 416.206,1227.24 433.386,1219.37 445.637,1213.1 446.021,1212.91 448.492,1211.7 466.816,1203.12 477.447,1197.59 502.717,1185.63 523.017,1175.4 531.708,1170.7 548.283,1162.5 551.018,1161.21 561.344,1155.72 571.369,1150.06 573.769,1148.78 578.338,1146.41 578.404,1146.37 582.274,1143.81 583.328,1143.05 586.158,1140.85 586.836,1140.28 588.151,1139.2 595.952,1132.78 596.242,1132.53 600.447,1128.82 601.406,1127.94 617.008,1115.86 618.261,1115.03 621.061,1113.24 629.464,1107.62 651.562,1094.12 653.403,1093.14 663.403,1087.34 667.066,1085.07 674.667,1080.11 684.921,1074.16 698.708,1067 701.194,1065.58 702.819,1064.67 706.665,1062.26 711.451,1059.42 713.598,1058.02 715.265,1056.83 716.658,1055.74 723.612,1050.19 729.545,1046 752.239,1032.79 755.723,1031 757.428,1030.15 794.6,1012.83 806.129,1006.94 812.68,1003.77 819.872,1000.39 826.265,996.963 828.081,995.871 829.413,995.086 842.315,988.01 845.272,986.254 848.002,984.464 850.13,983.117 858.281,978.288 863.024,975.67 867.998,972.655 869.563,971.613 888.847,960.365 892.034,958.704 906.463,950.669 908.243,949.748 915.894,945.349 918.602,943.653 921.866,941.687 922.481,941.325 932.423,935.795 942.672,929.844 949.16,926.38 956.451,922.684 968.797,916.746 972.45,914.752 974.448,913.523 976.959,912.022 977.787,911.537 978.123,911.342 983.149,908.113 993.047,902.334 1015.52,889.687 1022.7,886.118 1042.57,875.66 1053.37,869.751 1062.15,864.681 1081,855.018 1098.18,846.974 1101.66,845.395 1110.61,841.372 1131.16,832.3 1135.31,830.152 1143.09,826.289 1143.81,825.878 1144.61,825.353 1145.46,824.739 1148.48,822.369 1150.21,821.069 1155.66,817.238 1156.24,816.856 1163.91,811.466 1165.85,810.051 1168.36,808.285 1171.71,806.033 1173.21,805.064 1174.54,804.115 1184.24,797.069 1192.33,791.39 1193.18,790.769 1205.88,781.546 1207.07,780.783 1207.32,780.596 1208.28,779.832 1209.19,779.119 1209.45,778.892 1213.08,775.598 1214.94,774.014 1215.04,773.93 1217.2,771.994 1217.55,771.656 1229.93,761.365 1246.37,750.782 1254.55,746.265 1257.55,744.688 1259.02,743.932 1264.4,740.8 1266.06,739.732 1266.11,739.699 1267.51,738.7 1301.64,717.689 1307.91,714.555 1308.01,714.499 1319.77,707.297 1333.35,699.161 1333.86,698.829 1334.5,698.372 1355.95,685.216 1357.78,684.085 1359.93,682.607 1369.36,676.01 1378.56,669.764 1383.85,666.128 1395.22,658.43 1409.43,649.4 1414.21,646.709 1416.51,645.274 1420.15,642.791 1447.24,626.116 1449.5,624.933 1452.39,623.223 1458.7,619.665 1460.17,618.746 1462.19,617.342 1464.15,615.86 1464.18,615.84 1471.49,610.216 1480.77,603.389 1490.77,597.093 1510.15,586.685 1512.08,585.572 1542.11,568.849 1545.54,567.178 1557.01,561.763 1574.38,552.84 1580.39,549.5 1580.46,549.457 1583.15,547.584 1590.39,542.389 1613.46,527.689 1631.31,518.534 1633.29,517.577 1633.76,517.35 1642.28,512.719 1642.66,512.49 1644.23,511.41 1674.6,492.8 1678.4,490.861 1681.66,489.233 1684.64,487.532 1685.41,487.1 1687.85,485.555 1692.47,482.767 1698.08,479.146 1698.86,478.595 1703.17,475.357 1706.18,472.997 1708.45,471.117 1710.76,469.295 1712.06,468.305 1714.66,466.396 1725.85,459.064 1727.1,458.315 1728.94,457.079 1740.25,449.383 1741.64,448.409 1746.96,444.47 1754.89,439.216 1763.16,434.314 1769.2,431.006 1771.56,429.565 1784.94,421.212 1792.97,416.208 1796.74,413.73 1797.37,413.276 1801.37,410.499 1804.71,408.316 1804.91,408.173 1809.57,404.574 1812.11,402.54 1829.8,389.569 1844.22,380.318 1864.47,369.577 1870.39,366.256 1875.22,363.302 1899.67,349.063 1905.73,345.539 1910.04,342.836 1910.83,342.286 1917.63,337.344 1922.3,333.899 1922.64,333.661 1926.53,330.702 1927.96,329.666 1931.09,327.493 1931.71,327.027 1935.04,324.323 1941.97,319.226 1944.16,317.742 1946.42,316.261 1949.92,314.068 1953.56,311.593 1957.58,308.705 1961.27,306.219 1966.21,302.712 1971.27,299.408 1971.91,299.004 1983.77,292.118 1987.84,289.935 1998.87,283.6 1998.91,283.574 2010.53,276.771 2017.37,272.613 2021.38,270.013 2052.75,251.667 2059.18,248.494 2069.88,242.689 2094.72,230.654 2107.61,223.954 2109.46,222.887 2109.96,222.56 2110.3,222.339 2111.97,221.127 2118.28,216.371 2124.82,211.968 2125.14,211.739 2128.04,209.459 2129.52,208.347 2131.96,206.377 2137.1,202.132 2140.02,199.908 2149.96,192.451 2150.46,192.108 2161.56,185.152 2162.43,184.648 2197.3,167.019 2202.18,164.774 2202.86,164.466 2209.45,161.478 2214.02,159.429 2216.04,158.361 2220.04,156.291 2220.31,156.157 2220.42,156.098 2225.04,153.424 2230.49,150.426 2234.95,148.083 2238.71,146.164 2238.9,146.049 2241.8,144.368 2259.81,133.808 2261.13,132.999 2268.24,128.325 2311.65,105.898 2318.89,102.595 2323.34,100.591 2339.77,92.2891 2352.76,86.1857 "/>
<polyline clip-path="url(#clip571)" style="stroke:#00a98d; stroke-linecap:round; stroke-linejoin:round; stroke-width:4; stroke-opacity:1; fill:none" points="140.696,1384.24 140.696,1384.24 148.26,1380.97 153.958,1378.5 156.569,1377.16 197.029,1356.6 198.555,1355.77 219.178,1344.26 221.714,1342.77 224.84,1340.74 230.137,1337.5 230.775,1337.13 231.8,1336.53 232.12,1336.34 252.802,1325.43 253.774,1324.96 254.71,1324.5 261.771,1321.13 265.152,1319.54 269.541,1317.17 281.996,1310.84 300.738,1302.02 311.592,1296.37 320.462,1292.04 335.678,1283.99 341.713,1280.57 342.121,1280.35 353.534,1273.61 365.437,1267.35 367.426,1266.35 367.97,1266.08 384.032,1258.41 402.018,1250.24 408.316,1247.44 416.206,1243.96 433.386,1235.4 445.637,1228.88 446.021,1228.65 448.492,1227.01 466.816,1215.25 477.447,1209.52 502.717,1197.32 523.017,1188.18 531.708,1183.71 548.283,1175.77 551.018,1174.51 561.344,1169.81 571.369,1164.63 573.769,1163.25 578.338,1160.34 578.404,1160.3 582.274,1157.67 583.328,1156.89 586.158,1154.88 586.836,1154.41 588.151,1153.41 595.952,1147.35 596.242,1147.11 600.447,1143.88 601.406,1143.1 617.008,1132.13 618.261,1131.25 621.061,1129.14 629.464,1123.37 651.562,1110.89 653.403,1109.8 663.403,1103.56 667.066,1101.17 674.667,1096.02 684.921,1089.9 698.708,1082.6 701.194,1081.16 702.819,1080.1 706.665,1077.38 711.451,1074.24 713.598,1072.72 715.265,1071.58 716.658,1070.65 723.612,1066.27 729.545,1062.84 752.239,1051.19 755.723,1049.54 757.428,1048.59 794.6,1028.83 806.129,1023.49 812.68,1020.04 819.872,1016.43 826.265,1013.33 828.081,1012.32 829.413,1011.58 842.315,1004.89 845.272,1003.19 848.002,1001.45 850.13,1000.14 858.281,995.414 863.024,992.842 867.998,989.865 869.563,988.833 888.847,976.55 892.034,974.79 906.463,967.363 908.243,966.345 915.894,961.609 918.602,960.038 921.866,957.943 922.481,957.559 932.423,951.741 942.672,945.601 949.16,941.568 956.451,937.402 968.797,930.948 972.45,929.14 974.448,928.166 976.959,926.75 977.787,926.22 978.123,926.007 983.149,922.544 993.047,916.433 1015.52,903.408 1022.7,899.779 1042.57,890.367 1053.37,884.737 1062.15,879.813 1081,870.322 1098.18,862.348 1101.66,860.499 1110.61,855.946 1131.16,845.069 1135.31,842.718 1143.09,838.563 1143.81,838.13 1144.61,837.65 1145.46,837.152 1148.48,835.409 1150.21,834.433 1155.66,831.47 1156.24,831.167 1163.91,826.666 1165.85,825.43 1168.36,823.67 1171.71,821.156 1173.21,820.081 1174.54,819.156 1184.24,812.93 1192.33,808.295 1193.18,807.763 1205.88,800.376 1207.07,799.737 1207.32,799.576 1208.28,798.986 1209.19,798.433 1209.45,798.274 1213.08,796.126 1214.94,795.061 1215.04,795.004 1217.2,793.794 1217.55,793.599 1229.93,786.288 1246.37,776.793 1254.55,772.583 1257.55,771.092 1259.02,770.375 1264.4,767.364 1266.06,766.329 1266.11,766.3 1267.51,765.444 1301.64,746.152 1307.91,743.134 1308.01,743.089 1319.77,737.612 1333.35,731.487 1333.86,731.255 1334.5,730.972 1355.95,720.322 1357.78,719.313 1359.93,717.966 1369.36,712.482 1378.56,707.602 1383.85,704.938 1395.22,699.462 1409.43,692.007 1414.21,689.284 1416.51,688.024 1420.15,685.786 1447.24,671.436 1449.5,670.161 1452.39,668.582 1458.7,664.78 1460.17,663.937 1462.19,662.629 1464.15,661.395 1464.18,661.38 1471.49,656.509 1480.77,650.341 1490.77,644.508 1510.15,633.453 1512.08,632.46 1542.11,616.73 1545.54,615.109 1557.01,609.815 1574.38,602.032 1580.39,599.377 1580.46,599.341 1583.15,597.719 1590.39,593.6 1613.46,581.954 1631.31,573.725 1633.29,572.833 1633.76,572.62 1642.28,568.817 1642.66,568.65 1644.23,567.951 1674.6,554.64 1678.4,552.685 1681.66,550.782 1684.64,549.104 1685.41,548.678 1687.85,547.349 1692.47,544.55 1698.08,540.918 1698.86,540.432 1703.17,537.854 1706.18,536.129 1708.45,534.861 1710.76,533.601 1712.06,532.794 1714.66,531.006 1725.85,523.301 1727.1,522.521 1728.94,521.242 1740.25,514.116 1741.64,513.31 1746.96,510.336 1754.89,506.156 1763.16,501.435 1769.2,498.222 1771.56,496.811 1784.94,488.583 1792.97,483.625 1796.74,481.163 1797.37,480.765 1801.37,478.311 1804.71,476.088 1804.91,475.943 1809.57,472.297 1812.11,470.449 1829.8,459.379 1844.22,451.795 1864.47,440.996 1870.39,437.667 1875.22,435.083 1899.67,421.862 1905.73,418.92 1910.04,416.881 1910.83,416.508 1917.63,412.848 1922.3,410.447 1922.64,410.276 1926.53,408.333 1927.96,407.509 1931.09,405.501 1931.71,405.116 1935.04,403.088 1941.97,398.596 1944.16,397.086 1946.42,395.396 1949.92,392.917 1953.56,390.188 1957.58,387.383 1961.27,384.667 1966.21,381.289 1971.27,377.7 1971.91,377.209 1983.77,369.1 1987.84,366.303 1998.87,359.528 1998.91,359.5 2010.53,351.634 2017.37,347.576 2021.38,345.339 2052.75,329.841 2059.18,326.9 2069.88,322.093 2094.72,311.149 2107.61,305.53 2109.46,304.572 2109.96,304.317 2110.3,304.113 2111.97,303.126 2118.28,299.558 2124.82,295.587 2125.14,295.403 2128.04,293.743 2129.52,292.918 2131.96,291.381 2137.1,287.905 2140.02,286.046 2149.96,279.526 2150.46,279.221 2161.56,272.148 2162.43,271.637 2197.3,252.344 2202.18,250.013 2202.86,249.694 2209.45,246.619 2214.02,244.523 2216.04,243.603 2220.04,241.792 2220.31,241.674 2220.42,241.621 2225.04,239.55 2230.49,237.12 2234.95,234.799 2238.71,232.595 2238.9,232.467 2241.8,230.363 2259.81,218.12 2261.13,217.343 2268.24,212.817 2311.65,190.727 2318.89,187.439 2323.34,185.444 2339.77,177.159 2352.76,171.062 "/>
<polyline clip-path="url(#clip571)" style="stroke:#8e971d; stroke-linecap:round; stroke-linejoin:round; stroke-width:4; stroke-opacity:1; fill:none" points="140.696,1384.24 140.696,1384.24 148.26,1380.97 153.958,1378.5 156.569,1377.37 197.029,1359.86 198.555,1359.2 219.178,1350.28 221.714,1349.18 224.84,1347.83 230.137,1345.54 230.775,1345.26 231.8,1344.82 232.12,1344.68 252.802,1335.73 253.774,1335.31 254.71,1334.9 261.771,1331.85 265.152,1330.38 269.541,1328.48 281.996,1323.1 300.738,1314.99 311.592,1310.29 320.462,1306.45 335.678,1299.87 341.713,1297.26 342.121,1297.08 353.534,1292.14 365.437,1286.99 367.426,1285.96 367.97,1285.64 384.032,1276.84 402.018,1268.08 408.316,1265.17 416.206,1261 433.386,1252.62 445.637,1246.97 446.021,1246.8 448.492,1245.68 466.816,1237.52 477.447,1232.85 502.717,1221.83 523.017,1213.03 531.708,1209.26 548.283,1201.07 551.018,1199.56 561.344,1194.16 571.369,1189.25 573.769,1188.1 578.338,1185.96 578.404,1185.93 582.274,1184.13 583.328,1183.65 586.158,1182.35 586.836,1182.05 588.151,1181.45 595.952,1177.93 596.242,1177.8 600.447,1175.92 601.406,1175.5 617.008,1168.61 618.261,1168.07 621.061,1166.84 629.464,1163.17 651.562,1153.56 653.403,1152.76 663.403,1148.42 667.066,1146.84 674.667,1143.54 684.921,1139.1 698.708,1133.13 701.194,1132.06 702.819,1131.36 706.665,1129.69 711.451,1127.25 713.598,1126.17 715.265,1125.35 716.658,1124.67 723.612,1121.33 729.545,1118.55 752.239,1108.29 755.723,1106.47 757.428,1105.59 794.6,1088.1 806.129,1082.98 812.68,1080.1 819.872,1076.95 826.265,1074.16 828.081,1073.36 829.413,1072.78 842.315,1067.17 845.272,1065.89 848.002,1064.7 850.13,1063.78 858.281,1060.24 863.024,1058.19 867.998,1056.03 869.563,1055.35 888.847,1047 892.034,1045.62 906.463,1039.38 908.243,1038.61 915.894,1035.29 918.602,1034.12 921.866,1032.71 922.481,1032.39 932.423,1026.72 942.672,1021.39 949.16,1018.19 956.451,1014.71 968.797,1009.02 972.45,1007.37 974.448,1006.47 976.959,1005.34 977.787,1004.97 978.123,1004.79 983.149,1002.17 993.047,996.562 1015.52,985.333 1022.7,981.456 1042.57,971.661 1053.37,966.669 1062.15,962.706 1081,953.25 1098.18,944.255 1101.66,942.557 1110.61,937.663 1131.16,927.532 1135.31,925.593 1143.09,922.029 1143.81,921.703 1144.61,921.338 1145.46,920.956 1148.48,919.595 1150.21,918.816 1155.66,916.38 1156.24,916.126 1163.91,912.727 1165.85,911.875 1168.36,910.77 1171.71,909.295 1173.21,908.637 1174.54,908.056 1184.24,903.817 1192.33,900.292 1193.18,899.925 1205.88,894.405 1207.07,893.892 1207.32,893.78 1208.28,893.366 1209.19,892.972 1209.45,892.858 1213.08,891.283 1214.94,890.476 1215.04,890.424 1217.2,889.31 1217.55,889.13 1229.93,883.037 1246.37,875.404 1254.55,871.719 1257.55,870.377 1259.02,869.603 1264.4,866.826 1266.06,865.991 1266.11,865.967 1267.51,865.269 1301.64,849.388 1307.91,846.601 1308.01,846.558 1319.77,841.372 1333.35,835.437 1333.86,835.211 1334.5,834.933 1355.95,825.608 1357.78,824.816 1359.93,823.88 1369.36,819.793 1378.56,815.81 1383.85,813.518 1395.22,808.595 1409.43,802.442 1414.21,800.373 1416.51,799.38 1420.15,797.805 1447.24,786.081 1449.5,785.1 1452.39,783.853 1458.7,781.122 1460.17,780.486 1462.19,779.611 1464.15,778.762 1464.18,778.751 1471.49,775.586 1480.77,771.571 1490.77,766.547 1510.15,757.443 1512.08,756.567 1542.11,743.221 1545.54,741.719 1557.01,736.713 1574.38,729.163 1580.39,726.554 1580.46,726.525 1583.15,725.358 1590.39,722.222 1613.46,712.229 1631.31,704.503 1633.29,703.645 1633.76,703.44 1642.28,699.754 1642.66,699.59 1644.23,698.908 1674.6,685.767 1678.4,684.124 1681.66,682.712 1684.64,681.424 1685.41,681.09 1687.85,680.034 1692.47,678.037 1698.08,675.61 1698.86,675.27 1703.17,673.406 1706.18,672.104 1708.45,671.12 1710.76,670.121 1712.06,669.558 1714.66,668.431 1725.85,663.592 1727.1,663.052 1728.94,662.255 1740.25,657.36 1741.64,656.759 1746.96,654.458 1754.89,651.026 1763.16,647.445 1769.2,644.377 1771.56,643.207 1784.94,636.821 1792.97,633.124 1796.74,631.415 1797.37,631.131 1801.37,629.329 1804.71,627.837 1804.91,627.748 1809.57,625.673 1812.11,624.55 1829.8,616.78 1844.22,610.493 1864.47,601.698 1870.39,599.133 1875.22,597.04 1899.67,586.453 1905.73,583.826 1910.04,581.964 1910.83,581.62 1917.63,578.677 1922.3,576.656 1922.64,576.481 1926.53,574.491 1927.96,573.772 1931.09,572.223 1931.71,571.921 1935.04,570.304 1941.97,567.011 1944.16,565.989 1946.42,564.941 1949.92,563.334 1953.56,561.672 1957.58,559.857 1961.27,558.199 1966.21,555.992 1971.27,553.751 1971.91,553.465 1983.77,548.251 1987.84,546.466 1998.87,541.657 1998.91,541.639 2010.53,536.586 2017.37,533.614 2021.38,531.875 2052.75,518.285 2059.18,515.499 2069.88,510.869 2094.72,500.118 2107.61,494.54 2109.46,493.74 2109.96,493.524 2110.3,493.377 2111.97,492.654 2118.28,489.923 2124.82,487.092 2125.14,486.955 2128.04,485.699 2129.52,485.059 2131.96,484.003 2137.1,481.78 2140.02,480.278 2149.96,475.368 2150.46,475.127 2161.56,469.91 2162.43,469.509 2197.3,453.929 2202.18,451.411 2202.86,451.07 2209.45,447.805 2214.02,445.25 2216.04,444.156 2220.04,441.725 2220.31,441.546 2220.42,441.468 2225.04,438.462 2230.49,435.151 2234.95,432.603 2238.71,430.54 2238.9,430.435 2241.8,428.893 2259.81,419.956 2261.13,419.332 2268.24,416.018 2311.65,395.039 2318.89,391.267 2323.34,388.694 2339.77,380.053 2352.76,372.96 "/>
<path clip-path="url(#clip570)" d="M214.431 663.349 L554.896 663.349 L554.896 93.1086 L214.431 93.1086  Z" fill="#ffffff" fill-rule="evenodd" fill-opacity="1"/>
<polyline clip-path="url(#clip570)" style="stroke:#000000; stroke-linecap:round; stroke-linejoin:round; stroke-width:4; stroke-opacity:1; fill:none" points="214.431,663.349 554.896,663.349 554.896,93.1086 214.431,93.1086 214.431,663.349 "/>
<polyline clip-path="url(#clip570)" style="stroke:#009af9; stroke-linecap:round; stroke-linejoin:round; stroke-width:4; stroke-opacity:1; fill:none" points="239.009,144.949 386.48,144.949 "/>
<path clip-path="url(#clip570)" d="M411.058 151.997 L411.058 136.303 L415.318 136.303 L415.318 151.835 Q415.318 155.516 416.753 157.368 Q418.188 159.196 421.058 159.196 Q424.507 159.196 426.498 156.997 Q428.512 154.798 428.512 151.002 L428.512 136.303 L432.771 136.303 L432.771 162.229 L428.512 162.229 L428.512 158.247 Q426.961 160.608 424.901 161.766 Q422.864 162.9 420.156 162.9 Q415.688 162.9 413.373 160.122 Q411.058 157.344 411.058 151.997 M421.776 135.678 L421.776 135.678 Z" fill="#000000" fill-rule="nonzero" fill-opacity="1" /><path clip-path="url(#clip570)" d="M441.151 126.21 L450.966 126.21 L450.966 129.52 L445.41 129.52 L445.41 165.168 L450.966 165.168 L450.966 168.479 L441.151 168.479 L441.151 126.21 Z" fill="#000000" fill-rule="nonzero" fill-opacity="1" /><path clip-path="url(#clip570)" d="M461.452 158.293 L469.091 158.293 L469.091 131.928 L460.78 133.595 L460.78 129.335 L469.044 127.669 L473.72 127.669 L473.72 158.293 L481.359 158.293 L481.359 162.229 L461.452 162.229 L461.452 158.293 Z" fill="#000000" fill-rule="nonzero" fill-opacity="1" /><path clip-path="url(#clip570)" d="M500.155 126.21 L500.155 168.479 L490.34 168.479 L490.34 165.168 L495.873 165.168 L495.873 129.52 L490.34 129.52 L490.34 126.21 L500.155 126.21 Z" fill="#000000" fill-rule="nonzero" fill-opacity="1" /><polyline clip-path="url(#clip570)" style="stroke:#e26f46; stroke-linecap:round; stroke-linejoin:round; stroke-width:4; stroke-opacity:1; fill:none" points="239.009,196.789 386.48,196.789 "/>
<path clip-path="url(#clip570)" d="M411.058 203.837 L411.058 188.143 L415.318 188.143 L415.318 203.675 Q415.318 207.356 416.753 209.208 Q418.188 211.036 421.058 211.036 Q424.507 211.036 426.498 208.837 Q428.512 206.638 428.512 202.842 L428.512 188.143 L432.771 188.143 L432.771 214.069 L428.512 214.069 L428.512 210.087 Q426.961 212.448 424.901 213.606 Q422.864 214.74 420.156 214.74 Q415.688 214.74 413.373 211.962 Q411.058 209.184 411.058 203.837 M421.776 187.518 L421.776 187.518 Z" fill="#000000" fill-rule="nonzero" fill-opacity="1" /><path clip-path="url(#clip570)" d="M441.151 178.05 L450.966 178.05 L450.966 181.36 L445.41 181.36 L445.41 217.008 L450.966 217.008 L450.966 220.319 L441.151 220.319 L441.151 178.05 Z" fill="#000000" fill-rule="nonzero" fill-opacity="1" /><path clip-path="url(#clip570)" d="M464.669 210.133 L480.989 210.133 L480.989 214.069 L459.044 214.069 L459.044 210.133 Q461.706 207.379 466.29 202.749 Q470.896 198.096 472.077 196.754 Q474.322 194.231 475.202 192.495 Q476.104 190.735 476.104 189.046 Q476.104 186.291 474.16 184.555 Q472.239 182.819 469.137 182.819 Q466.938 182.819 464.484 183.583 Q462.054 184.347 459.276 185.897 L459.276 181.175 Q462.1 180.041 464.554 179.462 Q467.007 178.884 469.044 178.884 Q474.415 178.884 477.609 181.569 Q480.803 184.254 480.803 188.745 Q480.803 190.874 479.993 192.796 Q479.206 194.694 477.1 197.286 Q476.521 197.958 473.419 201.175 Q470.317 204.37 464.669 210.133 Z" fill="#000000" fill-rule="nonzero" fill-opacity="1" /><path clip-path="url(#clip570)" d="M500.155 178.05 L500.155 220.319 L490.34 220.319 L490.34 217.008 L495.873 217.008 L495.873 181.36 L490.34 181.36 L490.34 178.05 L500.155 178.05 Z" fill="#000000" fill-rule="nonzero" fill-opacity="1" /><polyline clip-path="url(#clip570)" style="stroke:#3da44d; stroke-linecap:round; stroke-linejoin:round; stroke-width:4; stroke-opacity:1; fill:none" points="239.009,248.629 386.48,248.629 "/>
<path clip-path="url(#clip570)" d="M411.058 255.677 L411.058 239.983 L415.318 239.983 L415.318 255.515 Q415.318 259.196 416.753 261.048 Q418.188 262.876 421.058 262.876 Q424.507 262.876 426.498 260.677 Q428.512 258.478 428.512 254.682 L428.512 239.983 L432.771 239.983 L432.771 265.909 L428.512 265.909 L428.512 261.927 Q426.961 264.288 424.901 265.446 Q422.864 266.58 420.156 266.58 Q415.688 266.58 413.373 263.802 Q411.058 261.024 411.058 255.677 M421.776 239.358 L421.776 239.358 Z" fill="#000000" fill-rule="nonzero" fill-opacity="1" /><path clip-path="url(#clip570)" d="M441.151 229.89 L450.966 229.89 L450.966 233.2 L445.41 233.2 L445.41 268.848 L450.966 268.848 L450.966 272.159 L441.151 272.159 L441.151 229.89 Z" fill="#000000" fill-rule="nonzero" fill-opacity="1" /><path clip-path="url(#clip570)" d="M474.808 247.274 Q478.165 247.992 480.04 250.261 Q481.938 252.529 481.938 255.862 Q481.938 260.978 478.419 263.779 Q474.901 266.58 468.419 266.58 Q466.243 266.58 463.929 266.14 Q461.637 265.723 459.183 264.867 L459.183 260.353 Q461.128 261.487 463.442 262.066 Q465.757 262.645 468.28 262.645 Q472.679 262.645 474.97 260.909 Q477.285 259.173 477.285 255.862 Q477.285 252.807 475.132 251.094 Q473.003 249.358 469.183 249.358 L465.155 249.358 L465.155 245.515 L469.368 245.515 Q472.817 245.515 474.646 244.149 Q476.475 242.761 476.475 240.168 Q476.475 237.506 474.577 236.094 Q472.702 234.659 469.183 234.659 Q467.262 234.659 465.063 235.075 Q462.864 235.492 460.225 236.372 L460.225 232.205 Q462.887 231.464 465.202 231.094 Q467.54 230.724 469.6 230.724 Q474.924 230.724 478.026 233.154 Q481.128 235.562 481.128 239.682 Q481.128 242.552 479.484 244.543 Q477.841 246.511 474.808 247.274 Z" fill="#000000" fill-rule="nonzero" fill-opacity="1" /><path clip-path="url(#clip570)" d="M500.155 229.89 L500.155 272.159 L490.34 272.159 L490.34 268.848 L495.873 268.848 L495.873 233.2 L490.34 233.2 L490.34 229.89 L500.155 229.89 Z" fill="#000000" fill-rule="nonzero" fill-opacity="1" /><polyline clip-path="url(#clip570)" style="stroke:#c271d2; stroke-linecap:round; stroke-linejoin:round; stroke-width:4; stroke-opacity:1; fill:none" points="239.009,300.469 386.48,300.469 "/>
<path clip-path="url(#clip570)" d="M411.058 307.517 L411.058 291.823 L415.318 291.823 L415.318 307.355 Q415.318 311.036 416.753 312.888 Q418.188 314.716 421.058 314.716 Q424.507 314.716 426.498 312.517 Q428.512 310.318 428.512 306.522 L428.512 291.823 L432.771 291.823 L432.771 317.749 L428.512 317.749 L428.512 313.767 Q426.961 316.128 424.901 317.286 Q422.864 318.42 420.156 318.42 Q415.688 318.42 413.373 315.642 Q411.058 312.864 411.058 307.517 M421.776 291.198 L421.776 291.198 Z" fill="#000000" fill-rule="nonzero" fill-opacity="1" /><path clip-path="url(#clip570)" d="M441.151 281.73 L450.966 281.73 L450.966 285.04 L445.41 285.04 L445.41 320.688 L450.966 320.688 L450.966 323.999 L441.151 323.999 L441.151 281.73 Z" fill="#000000" fill-rule="nonzero" fill-opacity="1" /><path clip-path="url(#clip570)" d="M473.489 287.263 L461.683 305.712 L473.489 305.712 L473.489 287.263 M472.262 283.189 L478.141 283.189 L478.141 305.712 L483.072 305.712 L483.072 309.601 L478.141 309.601 L478.141 317.749 L473.489 317.749 L473.489 309.601 L457.887 309.601 L457.887 305.087 L472.262 283.189 Z" fill="#000000" fill-rule="nonzero" fill-opacity="1" /><path clip-path="url(#clip570)" d="M500.155 281.73 L500.155 323.999 L490.34 323.999 L490.34 320.688 L495.873 320.688 L495.873 285.04 L490.34 285.04 L490.34 281.73 L500.155 281.73 Z" fill="#000000" fill-rule="nonzero" fill-opacity="1" /><polyline clip-path="url(#clip570)" style="stroke:#ac8d18; stroke-linecap:round; stroke-linejoin:round; stroke-width:4; stroke-opacity:1; fill:none" points="239.009,352.309 386.48,352.309 "/>
<path clip-path="url(#clip570)" d="M411.058 359.357 L411.058 343.663 L415.318 343.663 L415.318 359.195 Q415.318 362.876 416.753 364.728 Q418.188 366.556 421.058 366.556 Q424.507 366.556 426.498 364.357 Q428.512 362.158 428.512 358.362 L428.512 343.663 L432.771 343.663 L432.771 369.589 L428.512 369.589 L428.512 365.607 Q426.961 367.968 424.901 369.126 Q422.864 370.26 420.156 370.26 Q415.688 370.26 413.373 367.482 Q411.058 364.704 411.058 359.357 M421.776 343.038 L421.776 343.038 Z" fill="#000000" fill-rule="nonzero" fill-opacity="1" /><path clip-path="url(#clip570)" d="M441.151 333.57 L450.966 333.57 L450.966 336.88 L445.41 336.88 L445.41 372.528 L450.966 372.528 L450.966 375.839 L441.151 375.839 L441.151 333.57 Z" fill="#000000" fill-rule="nonzero" fill-opacity="1" /><path clip-path="url(#clip570)" d="M460.688 335.029 L479.044 335.029 L479.044 338.964 L464.97 338.964 L464.97 347.436 Q465.989 347.089 467.007 346.927 Q468.026 346.742 469.044 346.742 Q474.831 346.742 478.211 349.913 Q481.591 353.084 481.591 358.501 Q481.591 364.079 478.118 367.181 Q474.646 370.26 468.327 370.26 Q466.151 370.26 463.882 369.89 Q461.637 369.519 459.23 368.778 L459.23 364.079 Q461.313 365.214 463.535 365.769 Q465.757 366.325 468.234 366.325 Q472.239 366.325 474.577 364.218 Q476.915 362.112 476.915 358.501 Q476.915 354.89 474.577 352.783 Q472.239 350.677 468.234 350.677 Q466.359 350.677 464.484 351.093 Q462.632 351.51 460.688 352.39 L460.688 335.029 Z" fill="#000000" fill-rule="nonzero" fill-opacity="1" /><path clip-path="url(#clip570)" d="M500.155 333.57 L500.155 375.839 L490.34 375.839 L490.34 372.528 L495.873 372.528 L495.873 336.88 L490.34 336.88 L490.34 333.57 L500.155 333.57 Z" fill="#000000" fill-rule="nonzero" fill-opacity="1" /><polyline clip-path="url(#clip570)" style="stroke:#00a9ad; stroke-linecap:round; stroke-linejoin:round; stroke-width:4; stroke-opacity:1; fill:none" points="239.009,404.149 386.48,404.149 "/>
<path clip-path="url(#clip570)" d="M411.058 411.197 L411.058 395.503 L415.318 395.503 L415.318 411.035 Q415.318 414.716 416.753 416.568 Q418.188 418.396 421.058 418.396 Q424.507 418.396 426.498 416.197 Q428.512 413.998 428.512 410.202 L428.512 395.503 L432.771 395.503 L432.771 421.429 L428.512 421.429 L428.512 417.447 Q426.961 419.808 424.901 420.966 Q422.864 422.1 420.156 422.1 Q415.688 422.1 413.373 419.322 Q411.058 416.544 411.058 411.197 M421.776 394.878 L421.776 394.878 Z" fill="#000000" fill-rule="nonzero" fill-opacity="1" /><path clip-path="url(#clip570)" d="M441.151 385.41 L450.966 385.41 L450.966 388.72 L445.41 388.72 L445.41 424.368 L450.966 424.368 L450.966 427.679 L441.151 427.679 L441.151 385.41 Z" fill="#000000" fill-rule="nonzero" fill-opacity="1" /><path clip-path="url(#clip570)" d="M471.22 402.285 Q468.072 402.285 466.22 404.438 Q464.392 406.591 464.392 410.341 Q464.392 414.068 466.22 416.243 Q468.072 418.396 471.22 418.396 Q474.368 418.396 476.197 416.243 Q478.049 414.068 478.049 410.341 Q478.049 406.591 476.197 404.438 Q474.368 402.285 471.22 402.285 M480.503 387.633 L480.503 391.892 Q478.743 391.058 476.938 390.619 Q475.155 390.179 473.396 390.179 Q468.766 390.179 466.313 393.304 Q463.882 396.429 463.535 402.748 Q464.901 400.734 466.961 399.669 Q469.021 398.582 471.498 398.582 Q476.706 398.582 479.716 401.753 Q482.748 404.901 482.748 410.341 Q482.748 415.665 479.6 418.882 Q476.452 422.1 471.22 422.1 Q465.225 422.1 462.054 417.517 Q458.882 412.91 458.882 404.183 Q458.882 395.989 462.771 391.128 Q466.66 386.244 473.211 386.244 Q474.97 386.244 476.753 386.591 Q478.558 386.938 480.503 387.633 Z" fill="#000000" fill-rule="nonzero" fill-opacity="1" /><path clip-path="url(#clip570)" d="M500.155 385.41 L500.155 427.679 L490.34 427.679 L490.34 424.368 L495.873 424.368 L495.873 388.72 L490.34 388.72 L490.34 385.41 L500.155 385.41 Z" fill="#000000" fill-rule="nonzero" fill-opacity="1" /><polyline clip-path="url(#clip570)" style="stroke:#ed5d92; stroke-linecap:round; stroke-linejoin:round; stroke-width:4; stroke-opacity:1; fill:none" points="239.009,455.989 386.48,455.989 "/>
<path clip-path="url(#clip570)" d="M411.058 463.037 L411.058 447.343 L415.318 447.343 L415.318 462.875 Q415.318 466.556 416.753 468.408 Q418.188 470.236 421.058 470.236 Q424.507 470.236 426.498 468.037 Q428.512 465.838 428.512 462.042 L428.512 447.343 L432.771 447.343 L432.771 473.269 L428.512 473.269 L428.512 469.287 Q426.961 471.648 424.901 472.806 Q422.864 473.94 420.156 473.94 Q415.688 473.94 413.373 471.162 Q411.058 468.384 411.058 463.037 M421.776 446.718 L421.776 446.718 Z" fill="#000000" fill-rule="nonzero" fill-opacity="1" /><path clip-path="url(#clip570)" d="M441.151 437.25 L450.966 437.25 L450.966 440.56 L445.41 440.56 L445.41 476.208 L450.966 476.208 L450.966 479.519 L441.151 479.519 L441.151 437.25 Z" fill="#000000" fill-rule="nonzero" fill-opacity="1" /><path clip-path="url(#clip570)" d="M459.461 438.709 L481.683 438.709 L481.683 440.699 L469.137 473.269 L464.253 473.269 L476.058 442.644 L459.461 442.644 L459.461 438.709 Z" fill="#000000" fill-rule="nonzero" fill-opacity="1" /><path clip-path="url(#clip570)" d="M500.155 437.25 L500.155 479.519 L490.34 479.519 L490.34 476.208 L495.873 476.208 L495.873 440.56 L490.34 440.56 L490.34 437.25 L500.155 437.25 Z" fill="#000000" fill-rule="nonzero" fill-opacity="1" /><polyline clip-path="url(#clip570)" style="stroke:#c68125; stroke-linecap:round; stroke-linejoin:round; stroke-width:4; stroke-opacity:1; fill:none" points="239.009,507.829 386.48,507.829 "/>
<path clip-path="url(#clip570)" d="M411.058 514.877 L411.058 499.183 L415.318 499.183 L415.318 514.715 Q415.318 518.396 416.753 520.248 Q418.188 522.076 421.058 522.076 Q424.507 522.076 426.498 519.877 Q428.512 517.678 428.512 513.882 L428.512 499.183 L432.771 499.183 L432.771 525.109 L428.512 525.109 L428.512 521.127 Q426.961 523.488 424.901 524.646 Q422.864 525.78 420.156 525.78 Q415.688 525.78 413.373 523.002 Q411.058 520.224 411.058 514.877 M421.776 498.558 L421.776 498.558 Z" fill="#000000" fill-rule="nonzero" fill-opacity="1" /><path clip-path="url(#clip570)" d="M441.151 489.09 L450.966 489.09 L450.966 492.4 L445.41 492.4 L445.41 528.048 L450.966 528.048 L450.966 531.359 L441.151 531.359 L441.151 489.09 Z" fill="#000000" fill-rule="nonzero" fill-opacity="1" /><path clip-path="url(#clip570)" d="M470.641 508.697 Q467.308 508.697 465.387 510.479 Q463.489 512.261 463.489 515.386 Q463.489 518.511 465.387 520.294 Q467.308 522.076 470.641 522.076 Q473.975 522.076 475.896 520.294 Q477.817 518.488 477.817 515.386 Q477.817 512.261 475.896 510.479 Q473.998 508.697 470.641 508.697 M465.966 506.706 Q462.956 505.965 461.267 503.905 Q459.6 501.845 459.6 498.882 Q459.6 494.738 462.54 492.331 Q465.503 489.924 470.641 489.924 Q475.803 489.924 478.743 492.331 Q481.683 494.738 481.683 498.882 Q481.683 501.845 479.993 503.905 Q478.327 505.965 475.341 506.706 Q478.72 507.493 480.595 509.785 Q482.493 512.076 482.493 515.386 Q482.493 520.41 479.415 523.095 Q476.359 525.78 470.641 525.78 Q464.924 525.78 461.845 523.095 Q458.79 520.41 458.79 515.386 Q458.79 512.076 460.688 509.785 Q462.586 507.493 465.966 506.706 M464.253 499.322 Q464.253 502.007 465.919 503.512 Q467.609 505.016 470.641 505.016 Q473.651 505.016 475.341 503.512 Q477.053 502.007 477.053 499.322 Q477.053 496.637 475.341 495.132 Q473.651 493.627 470.641 493.627 Q467.609 493.627 465.919 495.132 Q464.253 496.637 464.253 499.322 Z" fill="#000000" fill-rule="nonzero" fill-opacity="1" /><path clip-path="url(#clip570)" d="M500.155 489.09 L500.155 531.359 L490.34 531.359 L490.34 528.048 L495.873 528.048 L495.873 492.4 L490.34 492.4 L490.34 489.09 L500.155 489.09 Z" fill="#000000" fill-rule="nonzero" fill-opacity="1" /><polyline clip-path="url(#clip570)" style="stroke:#00a98d; stroke-linecap:round; stroke-linejoin:round; stroke-width:4; stroke-opacity:1; fill:none" points="239.009,559.669 386.48,559.669 "/>
<path clip-path="url(#clip570)" d="M411.058 566.717 L411.058 551.023 L415.318 551.023 L415.318 566.555 Q415.318 570.236 416.753 572.088 Q418.188 573.916 421.058 573.916 Q424.507 573.916 426.498 571.717 Q428.512 569.518 428.512 565.722 L428.512 551.023 L432.771 551.023 L432.771 576.949 L428.512 576.949 L428.512 572.967 Q426.961 575.328 424.901 576.486 Q422.864 577.62 420.156 577.62 Q415.688 577.62 413.373 574.842 Q411.058 572.064 411.058 566.717 M421.776 550.398 L421.776 550.398 Z" fill="#000000" fill-rule="nonzero" fill-opacity="1" /><path clip-path="url(#clip570)" d="M441.151 540.93 L450.966 540.93 L450.966 544.24 L445.41 544.24 L445.41 579.888 L450.966 579.888 L450.966 583.199 L441.151 583.199 L441.151 540.93 Z" fill="#000000" fill-rule="nonzero" fill-opacity="1" /><path clip-path="url(#clip570)" d="M460.78 576.231 L460.78 571.972 Q462.54 572.805 464.345 573.245 Q466.151 573.685 467.887 573.685 Q472.516 573.685 474.947 570.583 Q477.401 567.458 477.748 561.115 Q476.405 563.106 474.345 564.171 Q472.285 565.236 469.785 565.236 Q464.6 565.236 461.567 562.111 Q458.558 558.963 458.558 553.523 Q458.558 548.199 461.706 544.981 Q464.854 541.764 470.086 541.764 Q476.081 541.764 479.229 546.37 Q482.401 550.953 482.401 559.703 Q482.401 567.875 478.512 572.759 Q474.646 577.62 468.095 577.62 Q466.336 577.62 464.53 577.273 Q462.725 576.925 460.78 576.231 M470.086 561.578 Q473.234 561.578 475.063 559.426 Q476.915 557.273 476.915 553.523 Q476.915 549.796 475.063 547.643 Q473.234 545.467 470.086 545.467 Q466.938 545.467 465.086 547.643 Q463.257 549.796 463.257 553.523 Q463.257 557.273 465.086 559.426 Q466.938 561.578 470.086 561.578 Z" fill="#000000" fill-rule="nonzero" fill-opacity="1" /><path clip-path="url(#clip570)" d="M500.155 540.93 L500.155 583.199 L490.34 583.199 L490.34 579.888 L495.873 579.888 L495.873 544.24 L490.34 544.24 L490.34 540.93 L500.155 540.93 Z" fill="#000000" fill-rule="nonzero" fill-opacity="1" /><polyline clip-path="url(#clip570)" style="stroke:#8e971d; stroke-linecap:round; stroke-linejoin:round; stroke-width:4; stroke-opacity:1; fill:none" points="239.009,611.509 386.48,611.509 "/>
<path clip-path="url(#clip570)" d="M411.058 618.557 L411.058 602.863 L415.318 602.863 L415.318 618.395 Q415.318 622.076 416.753 623.928 Q418.188 625.756 421.058 625.756 Q424.507 625.756 426.498 623.557 Q428.512 621.358 428.512 617.562 L428.512 602.863 L432.771 602.863 L432.771 628.789 L428.512 628.789 L428.512 624.807 Q426.961 627.168 424.901 628.326 Q422.864 629.46 420.156 629.46 Q415.688 629.46 413.373 626.682 Q411.058 623.904 411.058 618.557 M421.776 602.238 L421.776 602.238 Z" fill="#000000" fill-rule="nonzero" fill-opacity="1" /><path clip-path="url(#clip570)" d="M441.151 592.77 L450.966 592.77 L450.966 596.08 L445.41 596.08 L445.41 631.728 L450.966 631.728 L450.966 635.039 L441.151 635.039 L441.151 592.77 Z" fill="#000000" fill-rule="nonzero" fill-opacity="1" /><path clip-path="url(#clip570)" d="M461.452 624.853 L469.091 624.853 L469.091 598.488 L460.78 600.155 L460.78 595.895 L469.044 594.229 L473.72 594.229 L473.72 624.853 L481.359 624.853 L481.359 628.789 L461.452 628.789 L461.452 624.853 Z" fill="#000000" fill-rule="nonzero" fill-opacity="1" /><path clip-path="url(#clip570)" d="M500.803 597.307 Q497.192 597.307 495.364 600.872 Q493.558 604.414 493.558 611.543 Q493.558 618.65 495.364 622.215 Q497.192 625.756 500.803 625.756 Q504.438 625.756 506.243 622.215 Q508.072 618.65 508.072 611.543 Q508.072 604.414 506.243 600.872 Q504.438 597.307 500.803 597.307 M500.803 593.604 Q506.614 593.604 509.669 598.21 Q512.748 602.793 512.748 611.543 Q512.748 620.27 509.669 624.877 Q506.614 629.46 500.803 629.46 Q494.993 629.46 491.915 624.877 Q488.859 620.27 488.859 611.543 Q488.859 602.793 491.915 598.21 Q494.993 593.604 500.803 593.604 Z" fill="#000000" fill-rule="nonzero" fill-opacity="1" /><path clip-path="url(#clip570)" d="M530.317 592.77 L530.317 635.039 L520.502 635.039 L520.502 631.728 L526.035 631.728 L526.035 596.08 L520.502 596.08 L520.502 592.77 L530.317 592.77 Z" fill="#000000" fill-rule="nonzero" fill-opacity="1" /></svg>
