<?xml version="1.0" encoding="utf-8"?>
<svg xmlns="http://www.w3.org/2000/svg" xmlns:xlink="http://www.w3.org/1999/xlink" width="600" height="400" viewBox="0 0 2400 1600">
<defs>
  <clipPath id="clip420">
    <rect x="0" y="0" width="2400" height="1600"/>
  </clipPath>
</defs>
<path clip-path="url(#clip420)" d="M0 1600 L2400 1600 L2400 0 L0 0  Z" fill="#ffffff" fill-rule="evenodd" fill-opacity="1"/>
<defs>
  <clipPath id="clip421">
    <rect x="140" y="47" width="2213" height="1377"/>
  </clipPath>
</defs>
<path clip-path="url(#clip420)" d="M140.696 1423.18 L2352.76 1423.18 L2352.76 47.2441 L140.696 47.2441  Z" fill="#ffffff" fill-rule="evenodd" fill-opacity="1"/>
<polyline clip-path="url(#clip421)" style="stroke:#000000; stroke-linecap:round; stroke-linejoin:round; stroke-width:2; stroke-opacity:0.1; fill:none" points="140.696,1423.18 140.696,47.2441 "/>
<polyline clip-path="url(#clip421)" style="stroke:#000000; stroke-linecap:round; stroke-linejoin:round; stroke-width:2; stroke-opacity:0.1; fill:none" points="583.108,1423.18 583.108,47.2441 "/>
<polyline clip-path="url(#clip421)" style="stroke:#000000; stroke-linecap:round; stroke-linejoin:round; stroke-width:2; stroke-opacity:0.1; fill:none" points="1025.52,1423.18 1025.52,47.2441 "/>
<polyline clip-path="url(#clip421)" style="stroke:#000000; stroke-linecap:round; stroke-linejoin:round; stroke-width:2; stroke-opacity:0.1; fill:none" points="1467.93,1423.18 1467.93,47.2441 "/>
<polyline clip-path="url(#clip421)" style="stroke:#000000; stroke-linecap:round; stroke-linejoin:round; stroke-width:2; stroke-opacity:0.1; fill:none" points="1910.34,1423.18 1910.34,47.2441 "/>
<polyline clip-path="url(#clip421)" style="stroke:#000000; stroke-linecap:round; stroke-linejoin:round; stroke-width:2; stroke-opacity:0.1; fill:none" points="2352.76,1423.18 2352.76,47.2441 "/>
<polyline clip-path="url(#clip421)" style="stroke:#000000; stroke-linecap:round; stroke-linejoin:round; stroke-width:2; stroke-opacity:0.1; fill:none" points="140.696,1384.24 2352.76,1384.24 "/>
<polyline clip-path="url(#clip421)" style="stroke:#000000; stroke-linecap:round; stroke-linejoin:round; stroke-width:2; stroke-opacity:0.1; fill:none" points="140.696,1143.86 2352.76,1143.86 "/>
<polyline clip-path="url(#clip421)" style="stroke:#000000; stroke-linecap:round; stroke-linejoin:round; stroke-width:2; stroke-opacity:0.1; fill:none" points="140.696,903.478 2352.76,903.478 "/>
<polyline clip-path="url(#clip421)" style="stroke:#000000; stroke-linecap:round; stroke-linejoin:round; stroke-width:2; stroke-opacity:0.1; fill:none" points="140.696,663.098 2352.76,663.098 "/>
<polyline clip-path="url(#clip421)" style="stroke:#000000; stroke-linecap:round; stroke-linejoin:round; stroke-width:2; stroke-opacity:0.1; fill:none" points="140.696,422.718 2352.76,422.718 "/>
<polyline clip-path="url(#clip421)" style="stroke:#000000; stroke-linecap:round; stroke-linejoin:round; stroke-width:2; stroke-opacity:0.1; fill:none" points="140.696,182.338 2352.76,182.338 "/>
<polyline clip-path="url(#clip420)" style="stroke:#000000; stroke-linecap:round; stroke-linejoin:round; stroke-width:4; stroke-opacity:1; fill:none" points="140.696,1423.18 2352.76,1423.18 "/>
<polyline clip-path="url(#clip420)" style="stroke:#000000; stroke-linecap:round; stroke-linejoin:round; stroke-width:4; stroke-opacity:1; fill:none" points="140.696,1423.18 140.696,1404.28 "/>
<polyline clip-path="url(#clip420)" style="stroke:#000000; stroke-linecap:round; stroke-linejoin:round; stroke-width:4; stroke-opacity:1; fill:none" points="583.108,1423.18 583.108,1404.28 "/>
<polyline clip-path="url(#clip420)" style="stroke:#000000; stroke-linecap:round; stroke-linejoin:round; stroke-width:4; stroke-opacity:1; fill:none" points="1025.52,1423.18 1025.52,1404.28 "/>
<polyline clip-path="url(#clip420)" style="stroke:#000000; stroke-linecap:round; stroke-linejoin:round; stroke-width:4; stroke-opacity:1; fill:none" points="1467.93,1423.18 1467.93,1404.28 "/>
<polyline clip-path="url(#clip420)" style="stroke:#000000; stroke-linecap:round; stroke-linejoin:round; stroke-width:4; stroke-opacity:1; fill:none" points="1910.34,1423.18 1910.34,1404.28 "/>
<polyline clip-path="url(#clip420)" style="stroke:#000000; stroke-linecap:round; stroke-linejoin:round; stroke-width:4; stroke-opacity:1; fill:none" points="2352.76,1423.18 2352.76,1404.28 "/>
<path clip-path="url(#clip420)" d="M140.696 1454.1 Q137.084 1454.1 135.256 1457.66 Q133.45 1461.2 133.45 1468.33 Q133.45 1475.44 135.256 1479.01 Q137.084 1482.55 140.696 1482.55 Q144.33 1482.55 146.135 1479.01 Q147.964 1475.44 147.964 1468.33 Q147.964 1461.2 146.135 1457.66 Q144.33 1454.1 140.696 1454.1 M140.696 1450.39 Q146.506 1450.39 149.561 1455 Q152.64 1459.58 152.64 1468.33 Q152.64 1477.06 149.561 1481.67 Q146.506 1486.25 140.696 1486.25 Q134.885 1486.25 131.807 1481.67 Q128.751 1477.06 128.751 1468.33 Q128.751 1459.58 131.807 1455 Q134.885 1450.39 140.696 1450.39 Z" fill="#000000" fill-rule="nonzero" fill-opacity="1" /><path clip-path="url(#clip420)" d="M577.76 1481.64 L594.08 1481.64 L594.08 1485.58 L572.135 1485.58 L572.135 1481.64 Q574.797 1478.89 579.381 1474.26 Q583.987 1469.61 585.168 1468.27 Q587.413 1465.74 588.293 1464.01 Q589.196 1462.25 589.196 1460.56 Q589.196 1457.8 587.251 1456.07 Q585.33 1454.33 582.228 1454.33 Q580.029 1454.33 577.575 1455.09 Q575.145 1455.86 572.367 1457.41 L572.367 1452.69 Q575.191 1451.55 577.645 1450.97 Q580.098 1450.39 582.135 1450.39 Q587.506 1450.39 590.7 1453.08 Q593.895 1455.77 593.895 1460.26 Q593.895 1462.39 593.084 1464.31 Q592.297 1466.2 590.191 1468.8 Q589.612 1469.47 586.51 1472.69 Q583.409 1475.88 577.76 1481.64 Z" fill="#000000" fill-rule="nonzero" fill-opacity="1" /><path clip-path="url(#clip420)" d="M1028.53 1455.09 L1016.72 1473.54 L1028.53 1473.54 L1028.53 1455.09 M1027.3 1451.02 L1033.18 1451.02 L1033.18 1473.54 L1038.11 1473.54 L1038.11 1477.43 L1033.18 1477.43 L1033.18 1485.58 L1028.53 1485.58 L1028.53 1477.43 L1012.93 1477.43 L1012.93 1472.92 L1027.3 1451.02 Z" fill="#000000" fill-rule="nonzero" fill-opacity="1" /><path clip-path="url(#clip420)" d="M1468.34 1466.44 Q1465.19 1466.44 1463.34 1468.59 Q1461.51 1470.74 1461.51 1474.49 Q1461.51 1478.22 1463.34 1480.39 Q1465.19 1482.55 1468.34 1482.55 Q1471.48 1482.55 1473.31 1480.39 Q1475.17 1478.22 1475.17 1474.49 Q1475.17 1470.74 1473.31 1468.59 Q1471.48 1466.44 1468.34 1466.44 M1477.62 1451.78 L1477.62 1456.04 Q1475.86 1455.21 1474.05 1454.77 Q1472.27 1454.33 1470.51 1454.33 Q1465.88 1454.33 1463.43 1457.45 Q1461 1460.58 1460.65 1466.9 Q1462.02 1464.89 1464.08 1463.82 Q1466.14 1462.73 1468.61 1462.73 Q1473.82 1462.73 1476.83 1465.9 Q1479.86 1469.05 1479.86 1474.49 Q1479.86 1479.82 1476.72 1483.03 Q1473.57 1486.25 1468.34 1486.25 Q1462.34 1486.25 1459.17 1481.67 Q1456 1477.06 1456 1468.33 Q1456 1460.14 1459.89 1455.28 Q1463.78 1450.39 1470.33 1450.39 Q1472.09 1450.39 1473.87 1450.74 Q1475.67 1451.09 1477.62 1451.78 Z" fill="#000000" fill-rule="nonzero" fill-opacity="1" /><path clip-path="url(#clip420)" d="M1910.34 1469.17 Q1907.01 1469.17 1905.09 1470.95 Q1903.19 1472.73 1903.19 1475.86 Q1903.19 1478.98 1905.09 1480.77 Q1907.01 1482.55 1910.34 1482.55 Q1913.68 1482.55 1915.6 1480.77 Q1917.52 1478.96 1917.52 1475.86 Q1917.52 1472.73 1915.6 1470.95 Q1913.7 1469.17 1910.34 1469.17 M1905.67 1467.18 Q1902.66 1466.44 1900.97 1464.38 Q1899.3 1462.32 1899.3 1459.35 Q1899.3 1455.21 1902.24 1452.8 Q1905.2 1450.39 1910.34 1450.39 Q1915.51 1450.39 1918.45 1452.8 Q1921.39 1455.21 1921.39 1459.35 Q1921.39 1462.32 1919.7 1464.38 Q1918.03 1466.44 1915.04 1467.18 Q1918.42 1467.96 1920.3 1470.26 Q1922.2 1472.55 1922.2 1475.86 Q1922.2 1480.88 1919.12 1483.57 Q1916.06 1486.25 1910.34 1486.25 Q1904.63 1486.25 1901.55 1483.57 Q1898.49 1480.88 1898.49 1475.86 Q1898.49 1472.55 1900.39 1470.26 Q1902.29 1467.96 1905.67 1467.18 M1903.95 1459.79 Q1903.95 1462.48 1905.62 1463.98 Q1907.31 1465.49 1910.34 1465.49 Q1913.35 1465.49 1915.04 1463.98 Q1916.76 1462.48 1916.76 1459.79 Q1916.76 1457.11 1915.04 1455.6 Q1913.35 1454.1 1910.34 1454.1 Q1907.31 1454.1 1905.62 1455.6 Q1903.95 1457.11 1903.95 1459.79 Z" fill="#000000" fill-rule="nonzero" fill-opacity="1" /><path clip-path="url(#clip420)" d="M2327.44 1481.64 L2335.08 1481.64 L2335.08 1455.28 L2326.77 1456.95 L2326.77 1452.69 L2335.04 1451.02 L2339.71 1451.02 L2339.71 1481.64 L2347.35 1481.64 L2347.35 1485.58 L2327.44 1485.58 L2327.44 1481.64 Z" fill="#000000" fill-rule="nonzero" fill-opacity="1" /><path clip-path="url(#clip420)" d="M2366.8 1454.1 Q2363.18 1454.1 2361.36 1457.66 Q2359.55 1461.2 2359.55 1468.33 Q2359.55 1475.44 2361.36 1479.01 Q2363.18 1482.55 2366.8 1482.55 Q2370.43 1482.55 2372.23 1479.01 Q2374.06 1475.44 2374.06 1468.33 Q2374.06 1461.2 2372.23 1457.66 Q2370.43 1454.1 2366.8 1454.1 M2366.8 1450.39 Q2372.61 1450.39 2375.66 1455 Q2378.74 1459.58 2378.74 1468.33 Q2378.74 1477.06 2375.66 1481.67 Q2372.61 1486.25 2366.8 1486.25 Q2360.99 1486.25 2357.91 1481.67 Q2354.85 1477.06 2354.85 1468.33 Q2354.85 1459.58 2357.91 1455 Q2360.99 1450.39 2366.8 1450.39 Z" fill="#000000" fill-rule="nonzero" fill-opacity="1" /><path clip-path="url(#clip420)" d="M1245.79 1522.27 L1245.79 1532.4 L1257.85 1532.4 L1257.85 1536.95 L1245.79 1536.95 L1245.79 1556.3 Q1245.79 1560.66 1246.96 1561.9 Q1248.17 1563.14 1251.83 1563.14 L1257.85 1563.14 L1257.85 1568.04 L1251.83 1568.04 Q1245.05 1568.04 1242.48 1565.53 Q1239.9 1562.98 1239.9 1556.3 L1239.9 1536.95 L1235.6 1536.95 L1235.6 1532.4 L1239.9 1532.4 L1239.9 1522.27 L1245.79 1522.27 Z" fill="#000000" fill-rule="nonzero" fill-opacity="1" /><polyline clip-path="url(#clip420)" style="stroke:#000000; stroke-linecap:round; stroke-linejoin:round; stroke-width:4; stroke-opacity:1; fill:none" points="140.696,1423.18 140.696,47.2441 "/>
<polyline clip-path="url(#clip420)" style="stroke:#000000; stroke-linecap:round; stroke-linejoin:round; stroke-width:4; stroke-opacity:1; fill:none" points="140.696,1384.24 159.593,1384.24 "/>
<polyline clip-path="url(#clip420)" style="stroke:#000000; stroke-linecap:round; stroke-linejoin:round; stroke-width:4; stroke-opacity:1; fill:none" points="140.696,1143.86 159.593,1143.86 "/>
<polyline clip-path="url(#clip420)" style="stroke:#000000; stroke-linecap:round; stroke-linejoin:round; stroke-width:4; stroke-opacity:1; fill:none" points="140.696,903.478 159.593,903.478 "/>
<polyline clip-path="url(#clip420)" style="stroke:#000000; stroke-linecap:round; stroke-linejoin:round; stroke-width:4; stroke-opacity:1; fill:none" points="140.696,663.098 159.593,663.098 "/>
<polyline clip-path="url(#clip420)" style="stroke:#000000; stroke-linecap:round; stroke-linejoin:round; stroke-width:4; stroke-opacity:1; fill:none" points="140.696,422.718 159.593,422.718 "/>
<polyline clip-path="url(#clip420)" style="stroke:#000000; stroke-linecap:round; stroke-linejoin:round; stroke-width:4; stroke-opacity:1; fill:none" points="140.696,182.338 159.593,182.338 "/>
<path clip-path="url(#clip420)" d="M92.7512 1370.04 Q89.1401 1370.04 87.3114 1373.6 Q85.5058 1377.14 85.5058 1384.27 Q85.5058 1391.38 87.3114 1394.94 Q89.1401 1398.49 92.7512 1398.49 Q96.3854 1398.49 98.1909 1394.94 Q100.02 1391.38 100.02 1384.27 Q100.02 1377.14 98.1909 1373.6 Q96.3854 1370.04 92.7512 1370.04 M92.7512 1366.33 Q98.5613 1366.33 101.617 1370.94 Q104.696 1375.52 104.696 1384.27 Q104.696 1393 101.617 1397.61 Q98.5613 1402.19 92.7512 1402.19 Q86.941 1402.19 83.8623 1397.61 Q80.8068 1393 80.8068 1384.27 Q80.8068 1375.52 83.8623 1370.94 Q86.941 1366.33 92.7512 1366.33 Z" fill="#000000" fill-rule="nonzero" fill-opacity="1" /><path clip-path="url(#clip420)" d="M83.7929 1126.58 L102.149 1126.58 L102.149 1130.51 L88.0753 1130.51 L88.0753 1138.99 Q89.0938 1138.64 90.1123 1138.48 Q91.1308 1138.29 92.1493 1138.29 Q97.9363 1138.29 101.316 1141.46 Q104.696 1144.63 104.696 1150.05 Q104.696 1155.63 101.223 1158.73 Q97.7511 1161.81 91.4317 1161.81 Q89.2558 1161.81 86.9873 1161.44 Q84.7419 1161.07 82.3346 1160.33 L82.3346 1155.63 Q84.4179 1156.76 86.6401 1157.32 Q88.8623 1157.87 91.3391 1157.87 Q95.3437 1157.87 97.6817 1155.77 Q100.02 1153.66 100.02 1150.05 Q100.02 1146.44 97.6817 1144.33 Q95.3437 1142.23 91.3391 1142.23 Q89.4641 1142.23 87.5892 1142.64 Q85.7373 1143.06 83.7929 1143.94 L83.7929 1126.58 Z" fill="#000000" fill-rule="nonzero" fill-opacity="1" /><path clip-path="url(#clip420)" d="M53.3995 916.823 L61.0384 916.823 L61.0384 890.457 L52.7282 892.124 L52.7282 887.865 L60.9921 886.198 L65.668 886.198 L65.668 916.823 L73.3068 916.823 L73.3068 920.758 L53.3995 920.758 L53.3995 916.823 Z" fill="#000000" fill-rule="nonzero" fill-opacity="1" /><path clip-path="url(#clip420)" d="M92.7512 889.277 Q89.1401 889.277 87.3114 892.842 Q85.5058 896.383 85.5058 903.513 Q85.5058 910.619 87.3114 914.184 Q89.1401 917.726 92.7512 917.726 Q96.3854 917.726 98.1909 914.184 Q100.02 910.619 100.02 903.513 Q100.02 896.383 98.1909 892.842 Q96.3854 889.277 92.7512 889.277 M92.7512 885.573 Q98.5613 885.573 101.617 890.18 Q104.696 894.763 104.696 903.513 Q104.696 912.24 101.617 916.846 Q98.5613 921.429 92.7512 921.429 Q86.941 921.429 83.8623 916.846 Q80.8068 912.24 80.8068 903.513 Q80.8068 894.763 83.8623 890.18 Q86.941 885.573 92.7512 885.573 Z" fill="#000000" fill-rule="nonzero" fill-opacity="1" /><path clip-path="url(#clip420)" d="M54.3949 676.443 L62.0337 676.443 L62.0337 650.077 L53.7236 651.744 L53.7236 647.485 L61.9874 645.818 L66.6633 645.818 L66.6633 676.443 L74.3022 676.443 L74.3022 680.378 L54.3949 680.378 L54.3949 676.443 Z" fill="#000000" fill-rule="nonzero" fill-opacity="1" /><path clip-path="url(#clip420)" d="M83.7929 645.818 L102.149 645.818 L102.149 649.753 L88.0753 649.753 L88.0753 658.225 Q89.0938 657.878 90.1123 657.716 Q91.1308 657.531 92.1493 657.531 Q97.9363 657.531 101.316 660.702 Q104.696 663.873 104.696 669.29 Q104.696 674.869 101.223 677.971 Q97.7511 681.049 91.4317 681.049 Q89.2558 681.049 86.9873 680.679 Q84.7419 680.308 82.3346 679.568 L82.3346 674.869 Q84.4179 676.003 86.6401 676.559 Q88.8623 677.114 91.3391 677.114 Q95.3437 677.114 97.6817 675.008 Q100.02 672.901 100.02 669.29 Q100.02 665.679 97.6817 663.572 Q95.3437 661.466 91.3391 661.466 Q89.4641 661.466 87.5892 661.883 Q85.7373 662.299 83.7929 663.179 L83.7929 645.818 Z" fill="#000000" fill-rule="nonzero" fill-opacity="1" /><path clip-path="url(#clip420)" d="M56.6171 436.063 L72.9365 436.063 L72.9365 439.998 L50.9921 439.998 L50.9921 436.063 Q53.6541 433.308 58.2375 428.678 Q62.8439 424.026 64.0245 422.683 Q66.2698 420.16 67.1494 418.424 Q68.0522 416.665 68.0522 414.975 Q68.0522 412.22 66.1078 410.484 Q64.1865 408.748 61.0847 408.748 Q58.8856 408.748 56.4319 409.512 Q54.0014 410.276 51.2236 411.827 L51.2236 407.104 Q54.0477 405.97 56.5014 405.392 Q58.955 404.813 60.9921 404.813 Q66.3624 404.813 69.5568 407.498 Q72.7513 410.183 72.7513 414.674 Q72.7513 416.804 71.9411 418.725 Q71.1541 420.623 69.0476 423.216 Q68.4689 423.887 65.367 427.104 Q62.2652 430.299 56.6171 436.063 Z" fill="#000000" fill-rule="nonzero" fill-opacity="1" /><path clip-path="url(#clip420)" d="M92.7512 408.517 Q89.1401 408.517 87.3114 412.081 Q85.5058 415.623 85.5058 422.753 Q85.5058 429.859 87.3114 433.424 Q89.1401 436.965 92.7512 436.965 Q96.3854 436.965 98.1909 433.424 Q100.02 429.859 100.02 422.753 Q100.02 415.623 98.1909 412.081 Q96.3854 408.517 92.7512 408.517 M92.7512 404.813 Q98.5613 404.813 101.617 409.419 Q104.696 414.003 104.696 422.753 Q104.696 431.479 101.617 436.086 Q98.5613 440.669 92.7512 440.669 Q86.941 440.669 83.8623 436.086 Q80.8068 431.479 80.8068 422.753 Q80.8068 414.003 83.8623 409.419 Q86.941 404.813 92.7512 404.813 Z" fill="#000000" fill-rule="nonzero" fill-opacity="1" /><path clip-path="url(#clip420)" d="M57.6125 195.683 L73.9318 195.683 L73.9318 199.618 L51.9875 199.618 L51.9875 195.683 Q54.6495 192.928 59.2328 188.298 Q63.8393 183.646 65.0198 182.303 Q67.2652 179.78 68.1448 178.044 Q69.0476 176.285 69.0476 174.595 Q69.0476 171.84 67.1032 170.104 Q65.1819 168.368 62.08 168.368 Q59.881 168.368 57.4273 169.132 Q54.9967 169.896 52.219 171.447 L52.219 166.724 Q55.043 165.59 57.4967 165.011 Q59.9504 164.433 61.9874 164.433 Q67.3578 164.433 70.5522 167.118 Q73.7466 169.803 73.7466 174.294 Q73.7466 176.423 72.9365 178.345 Q72.1494 180.243 70.0429 182.835 Q69.4642 183.507 66.3624 186.724 Q63.2606 189.919 57.6125 195.683 Z" fill="#000000" fill-rule="nonzero" fill-opacity="1" /><path clip-path="url(#clip420)" d="M83.7929 165.058 L102.149 165.058 L102.149 168.993 L88.0753 168.993 L88.0753 177.465 Q89.0938 177.118 90.1123 176.956 Q91.1308 176.771 92.1493 176.771 Q97.9363 176.771 101.316 179.942 Q104.696 183.113 104.696 188.53 Q104.696 194.108 101.223 197.21 Q97.7511 200.289 91.4317 200.289 Q89.2558 200.289 86.9873 199.919 Q84.7419 199.548 82.3346 198.808 L82.3346 194.108 Q84.4179 195.243 86.6401 195.798 Q88.8623 196.354 91.3391 196.354 Q95.3437 196.354 97.6817 194.247 Q100.02 192.141 100.02 188.53 Q100.02 184.919 97.6817 182.812 Q95.3437 180.706 91.3391 180.706 Q89.4641 180.706 87.5892 181.122 Q85.7373 181.539 83.7929 182.419 L83.7929 165.058 Z" fill="#000000" fill-rule="nonzero" fill-opacity="1" /><polyline clip-path="url(#clip421)" style="stroke:#009af9; stroke-linecap:round; stroke-linejoin:round; stroke-width:8; stroke-opacity:1; fill:none" points="140.696,1384.24 141.459,1384.24 142.222,1384.24 142.985,1384.24 143.748,1384.24 144.511,1384.24 145.274,1384.24 146.037,1384.24 146.8,1384.24 147.563,1384.24 148.326,1384.24 149.089,1384.24 149.852,1384.24 150.615,1384.24 151.378,1384.24 152.141,1384.24 152.904,1384.24 153.667,1384.24 154.43,1384.24 155.193,1384.24 155.956,1384.24 156.719,1384.24 157.482,1384.24 158.246,1384.24 159.009,1384.24 159.772,1384.24 160.535,1384.24 161.298,1384.24 162.061,1384.24 162.824,1384.24 163.587,1384.24 164.35,1384.24 165.113,1384.24 165.876,1384.24 166.639,1384.24 167.402,1384.24 168.165,1384.24 168.928,1384.24 169.691,1384.24 170.454,1384.24 171.217,1384.24 171.98,1384.24 172.743,1384.24 173.506,1384.24 174.269,1384.24 175.032,1384.24 175.795,1384.24 176.559,1384.24 177.322,1384.24 178.085,1384.24 178.848,1384.24 179.611,1384.24 180.374,1384.24 181.137,1384.24 181.9,1384.24 182.663,1336.16 183.426,1336.16 184.189,1336.16 184.952,1336.16 185.715,1336.16 186.478,1336.16 187.241,1336.16 188.004,1336.16 188.767,1336.16 189.53,1336.16 190.293,1336.16 191.056,1336.16 191.819,1336.16 192.582,1336.16 193.345,1336.16 194.109,1336.16 194.872,1336.16 195.635,1336.16 196.398,1336.16 197.161,1336.16 197.924,1336.16 198.687,1336.16 199.45,1336.16 200.213,1336.16 200.976,1336.16 201.739,1336.16 202.502,1336.16 203.265,1336.16 204.028,1336.16 204.791,1336.16 205.554,1336.16 206.317,1336.16 207.08,1336.16 207.843,1336.16 208.606,1336.16 209.369,1336.16 210.132,1336.16 210.895,1336.16 211.658,1336.16 212.422,1336.16 213.185,1336.16 213.948,1336.16 214.711,1336.16 215.474,1336.16 216.237,1336.16 217,1336.16 217.763,1336.16 218.526,1336.16 219.289,1336.16 220.052,1336.16 220.815,1336.16 221.578,1336.16 222.341,1336.16 223.104,1336.16 223.867,1336.16 224.63,1336.16 225.393,1336.16 226.156,1336.16 226.919,1336.16 227.682,1336.16 228.445,1336.16 229.208,1336.16 229.972,1336.16 230.735,1336.16 231.498,1336.16 232.261,1336.16 233.024,1336.16 233.787,1336.16 234.55,1336.16 235.313,1336.16 236.076,1336.16 236.839,1336.16 237.602,1336.16 238.365,1336.16 239.128,1336.16 239.891,1336.16 240.654,1336.16 241.417,1336.16 242.18,1336.16 242.943,1336.16 243.706,1336.16 244.469,1336.16 245.232,1336.16 245.995,1336.16 246.758,1336.16 247.521,1336.16 248.285,1336.16 249.048,1336.16 249.811,1336.16 250.574,1336.16 251.337,1336.16 252.1,1336.16 252.863,1336.16 253.626,1336.16 254.389,1336.16 255.152,1336.16 255.915,1336.16 256.678,1336.16 257.441,1336.16 258.204,1336.16 258.967,1336.16 259.73,1336.16 260.493,1336.16 261.256,1336.16 262.019,1336.16 262.782,1336.16 263.545,1336.16 264.308,1288.09 265.071,1288.09 265.835,1288.09 266.598,1288.09 267.361,1288.09 268.124,1288.09 268.887,1288.09 269.65,1288.09 270.413,1288.09 271.176,1288.09 271.939,1288.09 272.702,1288.09 273.465,1288.09 274.228,1288.09 274.991,1288.09 275.754,1288.09 276.517,1288.09 277.28,1288.09 278.043,1288.09 278.806,1288.09 279.569,1288.09 280.332,1288.09 281.095,1288.09 281.858,1288.09 282.621,1288.09 283.384,1288.09 284.148,1288.09 284.911,1288.09 285.674,1288.09 286.437,1288.09 287.2,1288.09 287.963,1288.09 288.726,1288.09 289.489,1288.09 290.252,1288.09 291.015,1288.09 291.778,1288.09 292.541,1288.09 293.304,1288.09 294.067,1288.09 294.83,1288.09 295.593,1288.09 296.356,1288.09 297.119,1288.09 297.882,1288.09 298.645,1288.09 299.408,1288.09 300.171,1288.09 300.934,1288.09 301.698,1288.09 302.461,1240.01 303.224,1240.01 303.987,1240.01 304.75,1240.01 305.513,1240.01 306.276,1240.01 307.039,1240.01 307.802,1240.01 308.565,1240.01 309.328,1240.01 310.091,1240.01 310.854,1240.01 311.617,1240.01 312.38,1240.01 313.143,1240.01 313.906,1240.01 314.669,1240.01 315.432,1240.01 316.195,1240.01 316.958,1240.01 317.721,1240.01 318.484,1240.01 319.247,1240.01 320.011,1240.01 320.774,1240.01 321.537,1240.01 322.3,1240.01 323.063,1240.01 323.826,1240.01 324.589,1240.01 325.352,1240.01 326.115,1240.01 326.878,1240.01 327.641,1240.01 328.404,1240.01 329.167,1240.01 329.93,1240.01 330.693,1240.01 331.456,1240.01 332.219,1240.01 332.982,1240.01 333.745,1240.01 334.508,1240.01 335.271,1240.01 336.034,1240.01 336.797,1240.01 337.561,1240.01 338.324,1240.01 339.087,1240.01 339.85,1240.01 340.613,1240.01 341.376,1240.01 342.139,1240.01 342.902,1240.01 343.665,1240.01 344.428,1240.01 345.191,1191.93 345.954,1191.93 346.717,1191.93 347.48,1191.93 348.243,1191.93 349.006,1191.93 349.769,1191.93 350.532,1191.93 351.295,1191.93 352.058,1191.93 352.821,1191.93 353.584,1191.93 354.347,1191.93 355.11,1191.93 355.874,1191.93 356.637,1191.93 357.4,1191.93 358.163,1191.93 358.926,1191.93 359.689,1191.93 360.452,1191.93 361.215,1191.93 361.978,1191.93 362.741,1191.93 363.504,1191.93 364.267,1191.93 365.03,1191.93 365.793,1191.93 366.556,1191.93 367.319,1191.93 368.082,1191.93 368.845,1191.93 369.608,1191.93 370.371,1191.93 371.134,1191.93 371.897,1191.93 372.66,1191.93 373.424,1191.93 374.187,1191.93 374.95,1191.93 375.713,1191.93 376.476,1191.93 377.239,1191.93 378.002,1191.93 378.765,1191.93 379.528,1191.93 380.291,1191.93 381.054,1191.93 381.817,1191.93 382.58,1191.93 383.343,1191.93 384.106,1191.93 384.869,1191.93 385.632,1191.93 386.395,1191.93 387.158,1191.93 387.921,1191.93 388.684,1191.93 389.447,1191.93 390.21,1191.93 390.973,1191.93 391.737,1191.93 392.5,1191.93 393.263,1191.93 394.026,1191.93 394.789,1143.86 395.552,1143.86 396.315,1143.86 397.078,1143.86 397.841,1143.86 398.604,1143.86 399.367,1143.86 400.13,1143.86 400.893,1143.86 401.656,1143.86 402.419,1143.86 403.182,1143.86 403.945,1143.86 404.708,1143.86 405.471,1143.86 406.234,1143.86 406.997,1143.86 407.76,1143.86 408.523,1143.86 409.287,1143.86 410.05,1143.86 410.813,1143.86 411.576,1143.86 412.339,1143.86 413.102,1143.86 413.865,1143.86 414.628,1143.86 415.391,1143.86 416.154,1143.86 416.917,1143.86 417.68,1143.86 418.443,1143.86 419.206,1143.86 419.969,1143.86 420.732,1143.86 421.495,1143.86 422.258,1143.86 423.021,1143.86 423.784,1143.86 424.547,1143.86 425.31,1143.86 426.073,1143.86 426.836,1143.86 427.6,1143.86 428.363,1143.86 429.126,1143.86 429.889,1143.86 430.652,1143.86 431.415,1143.86 432.178,1143.86 432.941,1143.86 433.704,1143.86 434.467,1143.86 435.23,1143.86 435.993,1143.86 436.756,1143.86 437.519,1143.86 438.282,1143.86 439.045,1143.86 439.808,1143.86 440.571,1143.86 441.334,1143.86 442.097,1143.86 442.86,1143.86 443.623,1143.86 444.386,1143.86 445.15,1143.86 445.913,1143.86 446.676,1143.86 447.439,1143.86 448.202,1143.86 448.965,1143.86 449.728,1143.86 450.491,1143.86 451.254,1143.86 452.017,1143.86 452.78,1143.86 453.543,1143.86 454.306,1143.86 455.069,1143.86 455.832,1143.86 456.595,1143.86 457.358,1143.86 458.121,1143.86 458.884,1143.86 459.647,1143.86 460.41,1143.86 461.173,1143.86 461.936,1143.86 462.699,1143.86 463.463,1143.86 464.226,1143.86 464.989,1143.86 465.752,1143.86 466.515,1143.86 467.278,1143.86 468.041,1143.86 468.804,1143.86 469.567,1143.86 470.33,1143.86 471.093,1143.86 471.856,1143.86 472.619,1143.86 473.382,1143.86 474.145,1143.86 474.908,1143.86 475.671,1143.86 476.434,1143.86 477.197,1143.86 477.96,1143.86 478.723,1143.86 479.486,1143.86 480.249,1143.86 481.013,1143.86 481.776,1143.86 482.539,1143.86 483.302,1143.86 484.065,1143.86 484.828,1143.86 485.591,1143.86 486.354,1143.86 487.117,1143.86 487.88,1143.86 488.643,1143.86 489.406,1143.86 490.169,1143.86 490.932,1143.86 491.695,1143.86 492.458,1143.86 493.221,1143.86 493.984,1143.86 494.747,1143.86 495.51,1143.86 496.273,1143.86 497.036,1143.86 497.799,1143.86 498.562,1143.86 499.326,1143.86 500.089,1143.86 500.852,1143.86 501.615,1143.86 502.378,1143.86 503.141,1143.86 503.904,1143.86 504.667,1143.86 505.43,1143.86 506.193,1143.86 506.956,1143.86 507.719,1143.86 508.482,1143.86 509.245,1143.86 510.008,1143.86 510.771,1143.86 511.534,1143.86 512.297,1143.86 513.06,1143.86 513.823,1143.86 514.586,1143.86 515.349,1143.86 516.112,1143.86 516.876,1143.86 517.639,1143.86 518.402,1143.86 519.165,1143.86 519.928,1143.86 520.691,1143.86 521.454,1143.86 522.217,1143.86 522.98,1143.86 523.743,1143.86 524.506,1143.86 525.269,1143.86 526.032,1143.86 526.795,1143.86 527.558,1143.86 528.321,1143.86 529.084,1143.86 529.847,1143.86 530.61,1143.86 531.373,1143.86 532.136,1143.86 532.899,1095.78 533.662,1095.78 534.425,1095.78 535.189,1095.78 535.952,1095.78 536.715,1095.78 537.478,1095.78 538.241,1095.78 539.004,1095.78 539.767,1095.78 540.53,1095.78 541.293,1095.78 542.056,1095.78 542.819,1095.78 543.582,1095.78 544.345,1095.78 545.108,1095.78 545.871,1095.78 546.634,1095.78 547.397,1095.78 548.16,1095.78 548.923,1095.78 549.686,1095.78 550.449,1095.78 551.212,1095.78 551.975,1095.78 552.739,1095.78 553.502,1095.78 554.265,1095.78 555.028,1095.78 555.791,1095.78 556.554,1095.78 557.317,1095.78 558.08,1095.78 558.843,1095.78 559.606,1095.78 560.369,1095.78 561.132,1095.78 561.895,1095.78 562.658,1095.78 563.421,1095.78 564.184,1095.78 564.947,1095.78 565.71,1095.78 566.473,1095.78 567.236,1095.78 567.999,1095.78 568.762,1095.78 569.525,1095.78 570.288,1095.78 571.052,1095.78 571.815,1095.78 572.578,1095.78 573.341,1095.78 574.104,1095.78 574.867,1095.78 575.63,1095.78 576.393,1095.78 577.156,1095.78 577.919,1095.78 578.682,1095.78 579.445,1095.78 580.208,1095.78 580.971,1095.78 581.734,1095.78 582.497,1095.78 583.26,1095.78 584.023,1095.78 584.786,1095.78 585.549,1095.78 586.312,1095.78 587.075,1095.78 587.838,1095.78 588.602,1095.78 589.365,1095.78 590.128,1095.78 590.891,1095.78 591.654,1095.78 592.417,1095.78 593.18,1095.78 593.943,1095.78 594.706,1095.78 595.469,1095.78 596.232,1095.78 596.995,1095.78 597.758,1095.78 598.521,1095.78 599.284,1095.78 600.047,1095.78 600.81,1095.78 601.573,1095.78 602.336,1095.78 603.099,1095.78 603.862,1095.78 604.625,1095.78 605.388,1095.78 606.151,1095.78 606.915,1095.78 607.678,1095.78 608.441,1095.78 609.204,1095.78 609.967,1095.78 610.73,1095.78 611.493,1095.78 612.256,1095.78 613.019,1095.78 613.782,1095.78 614.545,1095.78 615.308,1095.78 616.071,1095.78 616.834,1095.78 617.597,1095.78 618.36,1095.78 619.123,1095.78 619.886,1095.78 620.649,1095.78 621.412,1095.78 622.175,1095.78 622.938,1095.78 623.701,1095.78 624.465,1095.78 625.228,1095.78 625.991,1095.78 626.754,1095.78 627.517,1095.78 628.28,1095.78 629.043,1095.78 629.806,1095.78 630.569,1095.78 631.332,1095.78 632.095,1095.78 632.858,1095.78 633.621,1095.78 634.384,1095.78 635.147,1095.78 635.91,1095.78 636.673,1095.78 637.436,1095.78 638.199,1095.78 638.962,1095.78 639.725,1095.78 640.488,1095.78 641.251,1095.78 642.014,1095.78 642.778,1095.78 643.541,1095.78 644.304,1095.78 645.067,1095.78 645.83,1095.78 646.593,1095.78 647.356,1095.78 648.119,1095.78 648.882,1095.78 649.645,1095.78 650.408,1095.78 651.171,1095.78 651.934,1095.78 652.697,1095.78 653.46,1095.78 654.223,1095.78 654.986,1095.78 655.749,1095.78 656.512,1095.78 657.275,1095.78 658.038,1095.78 658.801,1095.78 659.564,1095.78 660.328,1095.78 661.091,1095.78 661.854,1095.78 662.617,1095.78 663.38,1095.78 664.143,1095.78 664.906,1095.78 665.669,1095.78 666.432,1095.78 667.195,1095.78 667.958,1095.78 668.721,1095.78 669.484,1095.78 670.247,1095.78 671.01,1095.78 671.773,1095.78 672.536,1095.78 673.299,1095.78 674.062,1095.78 674.825,1095.78 675.588,1095.78 676.351,1095.78 677.114,1095.78 677.877,1095.78 678.641,1095.78 679.404,1095.78 680.167,1095.78 680.93,1095.78 681.693,1095.78 682.456,1095.78 683.219,1095.78 683.982,1095.78 684.745,1095.78 685.508,1095.78 686.271,1095.78 687.034,1095.78 687.797,1095.78 688.56,1095.78 689.323,1095.78 690.086,1095.78 690.849,1095.78 691.612,1095.78 692.375,1095.78 693.138,1095.78 693.901,1095.78 694.664,1095.78 695.427,1095.78 696.191,1095.78 696.954,1095.78 697.717,1095.78 698.48,1095.78 699.243,1095.78 700.006,1095.78 700.769,1095.78 701.532,1095.78 702.295,1095.78 703.058,1095.78 703.821,1095.78 704.584,1095.78 705.347,1095.78 706.11,1095.78 706.873,1095.78 707.636,1095.78 708.399,1095.78 709.162,1095.78 709.925,1095.78 710.688,1095.78 711.451,1095.78 712.214,1095.78 712.977,1095.78 713.74,1095.78 714.504,1095.78 715.267,1095.78 716.03,1095.78 716.793,1095.78 717.556,1095.78 718.319,1095.78 719.082,1095.78 719.845,1095.78 720.608,1095.78 721.371,1095.78 722.134,1095.78 722.897,1095.78 723.66,1095.78 724.423,1095.78 725.186,1095.78 725.949,1095.78 726.712,1095.78 727.475,1095.78 728.238,1095.78 729.001,1095.78 729.764,1095.78 730.527,1095.78 731.29,1095.78 732.054,1095.78 732.817,1095.78 733.58,1095.78 734.343,1095.78 735.106,1047.71 735.869,1047.71 736.632,1047.71 737.395,1047.71 738.158,1047.71 738.921,1047.71 739.684,1047.71 740.447,1047.71 741.21,1047.71 741.973,1047.71 742.736,1047.71 743.499,1047.71 744.262,1047.71 745.025,1047.71 745.788,1047.71 746.551,1047.71 747.314,1047.71 748.077,1047.71 748.84,1047.71 749.603,1047.71 750.367,1047.71 751.13,1047.71 751.893,1047.71 752.656,1047.71 753.419,1047.71 754.182,1047.71 754.945,1047.71 755.708,1047.71 756.471,1047.71 757.234,1047.71 757.997,1047.71 758.76,1047.71 759.523,1047.71 760.286,1047.71 761.049,1047.71 761.812,1047.71 762.575,1047.71 763.338,1047.71 764.101,1047.71 764.864,1047.71 765.627,1047.71 766.39,1047.71 767.153,1047.71 767.917,1047.71 768.68,1047.71 769.443,1047.71 770.206,1047.71 770.969,1047.71 771.732,1047.71 772.495,1047.71 773.258,1047.71 774.021,1047.71 774.784,1047.71 775.547,1047.71 776.31,1047.71 777.073,1047.71 777.836,1047.71 778.599,1047.71 779.362,1047.71 780.125,1047.71 780.888,1047.71 781.651,1047.71 782.414,1047.71 783.177,999.63 783.94,999.63 784.703,999.63 785.466,999.63 786.23,999.63 786.993,999.63 787.756,999.63 788.519,999.63 789.282,999.63 790.045,999.63 790.808,999.63 791.571,999.63 792.334,999.63 793.097,999.63 793.86,999.63 794.623,999.63 795.386,999.63 796.149,999.63 796.912,999.63 797.675,999.63 798.438,999.63 799.201,999.63 799.964,999.63 800.727,999.63 801.49,999.63 802.253,999.63 803.016,999.63 803.78,999.63 804.543,999.63 805.306,999.63 806.069,999.63 806.832,999.63 807.595,999.63 808.358,999.63 809.121,999.63 809.884,999.63 810.647,999.63 811.41,999.63 812.173,999.63 812.936,999.63 813.699,999.63 814.462,999.63 815.225,999.63 815.988,999.63 816.751,999.63 817.514,999.63 818.277,999.63 819.04,999.63 819.803,999.63 820.566,999.63 821.329,999.63 822.093,999.63 822.856,999.63 823.619,999.63 824.382,999.63 825.145,999.63 825.908,999.63 826.671,999.63 827.434,999.63 828.197,999.63 828.96,999.63 829.723,999.63 830.486,999.63 831.249,999.63 832.012,999.63 832.775,999.63 833.538,999.63 834.301,999.63 835.064,999.63 835.827,999.63 836.59,999.63 837.353,999.63 838.116,999.63 838.879,999.63 839.643,999.63 840.406,999.63 841.169,999.63 841.932,999.63 842.695,999.63 843.458,999.63 844.221,999.63 844.984,999.63 845.747,999.63 846.51,999.63 847.273,999.63 848.036,999.63 848.799,999.63 849.562,999.63 850.325,999.63 851.088,999.63 851.851,999.63 852.614,999.63 853.377,999.63 854.14,999.63 854.903,999.63 855.666,999.63 856.429,951.554 857.192,951.554 857.956,951.554 858.719,951.554 859.482,951.554 860.245,951.554 861.008,951.554 861.771,951.554 862.534,951.554 863.297,951.554 864.06,951.554 864.823,951.554 865.586,951.554 866.349,951.554 867.112,951.554 867.875,951.554 868.638,951.554 869.401,951.554 870.164,951.554 870.927,951.554 871.69,951.554 872.453,951.554 873.216,951.554 873.979,951.554 874.742,951.554 875.506,951.554 876.269,951.554 877.032,951.554 877.795,951.554 878.558,951.554 879.321,951.554 880.084,951.554 880.847,951.554 881.61,951.554 882.373,951.554 883.136,951.554 883.899,951.554 884.662,951.554 885.425,951.554 886.188,951.554 886.951,951.554 887.714,951.554 888.477,951.554 889.24,951.554 890.003,951.554 890.766,951.554 891.529,951.554 892.292,951.554 893.056,951.554 893.819,951.554 894.582,951.554 895.345,951.554 896.108,951.554 896.871,951.554 897.634,951.554 898.397,951.554 899.16,951.554 899.923,951.554 900.686,951.554 901.449,951.554 902.212,951.554 902.975,951.554 903.738,951.554 904.501,951.554 905.264,951.554 906.027,951.554 906.79,951.554 907.553,951.554 908.316,951.554 909.079,951.554 909.842,951.554 910.605,951.554 911.369,951.554 912.132,951.554 912.895,951.554 913.658,951.554 914.421,951.554 915.184,951.554 915.947,951.554 916.71,951.554 917.473,951.554 918.236,951.554 918.999,951.554 919.762,951.554 920.525,951.554 921.288,951.554 922.051,951.554 922.814,951.554 923.577,951.554 924.34,951.554 925.103,951.554 925.866,951.554 926.629,951.554 927.392,951.554 928.155,951.554 928.919,951.554 929.682,951.554 930.445,951.554 931.208,951.554 931.971,951.554 932.734,951.554 933.497,951.554 934.26,951.554 935.023,951.554 935.786,951.554 936.549,951.554 937.312,951.554 938.075,951.554 938.838,951.554 939.601,951.554 940.364,951.554 941.127,951.554 941.89,951.554 942.653,951.554 943.416,951.554 944.179,951.554 944.942,951.554 945.705,951.554 946.468,951.554 947.232,951.554 947.995,951.554 948.758,951.554 949.521,951.554 950.284,951.554 951.047,951.554 951.81,951.554 952.573,951.554 953.336,951.554 954.099,951.554 954.862,951.554 955.625,951.554 956.388,951.554 957.151,951.554 957.914,951.554 958.677,951.554 959.44,951.554 960.203,951.554 960.966,951.554 961.729,951.554 962.492,951.554 963.255,951.554 964.018,951.554 964.782,951.554 965.545,951.554 966.308,951.554 967.071,951.554 967.834,951.554 968.597,951.554 969.36,951.554 970.123,951.554 970.886,951.554 971.649,951.554 972.412,951.554 973.175,951.554 973.938,951.554 974.701,951.554 975.464,951.554 976.227,951.554 976.99,951.554 977.753,951.554 978.516,951.554 979.279,951.554 980.042,951.554 980.805,951.554 981.568,951.554 982.331,951.554 983.095,951.554 983.858,951.554 984.621,951.554 985.384,951.554 986.147,951.554 986.91,951.554 987.673,951.554 988.436,951.554 989.199,951.554 989.962,951.554 990.725,951.554 991.488,951.554 992.251,951.554 993.014,951.554 993.777,951.554 994.54,951.554 995.303,951.554 996.066,951.554 996.829,951.554 997.592,951.554 998.355,951.554 999.118,951.554 999.881,951.554 1000.64,951.554 1001.41,951.554 1002.17,951.554 1002.93,951.554 1003.7,951.554 1004.46,951.554 1005.22,951.554 1005.99,951.554 1006.75,951.554 1007.51,951.554 1008.27,951.554 1009.04,951.554 1009.8,951.554 1010.56,951.554 1011.33,951.554 1012.09,951.554 1012.85,951.554 1013.62,951.554 1014.38,951.554 1015.14,951.554 1015.91,951.554 1016.67,951.554 1017.43,951.554 1018.19,951.554 1018.96,951.554 1019.72,951.554 1020.48,951.554 1021.25,951.554 1022.01,951.554 1022.77,951.554 1023.54,951.554 1024.3,951.554 1025.06,951.554 1025.82,951.554 1026.59,951.554 1027.35,951.554 1028.11,951.554 1028.88,951.554 1029.64,951.554 1030.4,951.554 1031.17,951.554 1031.93,951.554 1032.69,951.554 1033.46,951.554 1034.22,951.554 1034.98,951.554 1035.74,951.554 1036.51,951.554 1037.27,951.554 1038.03,951.554 1038.8,951.554 1039.56,951.554 1040.32,951.554 1041.09,951.554 1041.85,951.554 1042.61,951.554 1043.37,951.554 1044.14,951.554 1044.9,951.554 1045.66,951.554 1046.43,951.554 1047.19,951.554 1047.95,951.554 1048.72,951.554 1049.48,951.554 1050.24,951.554 1051.01,951.554 1051.77,951.554 1052.53,951.554 1053.29,951.554 1054.06,951.554 1054.82,951.554 1055.58,951.554 1056.35,951.554 1057.11,951.554 1057.87,951.554 1058.64,951.554 1059.4,951.554 1060.16,951.554 1060.92,951.554 1061.69,951.554 1062.45,951.554 1063.21,951.554 1063.98,951.554 1064.74,951.554 1065.5,903.478 1066.27,903.478 1067.03,903.478 1067.79,903.478 1068.56,903.478 1069.32,903.478 1070.08,903.478 1070.84,903.478 1071.61,903.478 1072.37,903.478 1073.13,903.478 1073.9,903.478 1074.66,903.478 1075.42,903.478 1076.19,903.478 1076.95,903.478 1077.71,903.478 1078.47,903.478 1079.24,903.478 1080,903.478 1080.76,903.478 1081.53,903.478 1082.29,903.478 1083.05,903.478 1083.82,903.478 1084.58,903.478 1085.34,903.478 1086.11,903.478 1086.87,903.478 1087.63,903.478 1088.39,903.478 1089.16,903.478 1089.92,903.478 1090.68,903.478 1091.45,903.478 1092.21,903.478 1092.97,903.478 1093.74,903.478 1094.5,903.478 1095.26,903.478 1096.02,903.478 1096.79,903.478 1097.55,903.478 1098.31,903.478 1099.08,903.478 1099.84,903.478 1100.6,903.478 1101.37,903.478 1102.13,903.478 1102.89,903.478 1103.66,903.478 1104.42,903.478 1105.18,903.478 1105.94,903.478 1106.71,903.478 1107.47,903.478 1108.23,903.478 1109,903.478 1109.76,903.478 1110.52,903.478 1111.29,903.478 1112.05,903.478 1112.81,855.402 1113.57,855.402 1114.34,855.402 1115.1,855.402 1115.86,855.402 1116.63,855.402 1117.39,855.402 1118.15,855.402 1118.92,855.402 1119.68,855.402 1120.44,855.402 1121.21,855.402 1121.97,855.402 1122.73,855.402 1123.49,855.402 1124.26,855.402 1125.02,855.402 1125.78,855.402 1126.55,855.402 1127.31,855.402 1128.07,855.402 1128.84,855.402 1129.6,855.402 1130.36,855.402 1131.12,855.402 1131.89,855.402 1132.65,855.402 1133.41,855.402 1134.18,855.402 1134.94,855.402 1135.7,855.402 1136.47,855.402 1137.23,855.402 1137.99,855.402 1138.76,855.402 1139.52,855.402 1140.28,855.402 1141.04,855.402 1141.81,855.402 1142.57,855.402 1143.33,855.402 1144.1,855.402 1144.86,855.402 1145.62,855.402 1146.39,855.402 1147.15,855.402 1147.91,855.402 1148.67,855.402 1149.44,855.402 1150.2,855.402 1150.96,855.402 1151.73,855.402 1152.49,855.402 1153.25,855.402 1154.02,855.402 1154.78,855.402 1155.54,855.402 1156.31,855.402 1157.07,855.402 1157.83,855.402 1158.59,855.402 1159.36,855.402 1160.12,855.402 1160.88,855.402 1161.65,855.402 1162.41,855.402 1163.17,855.402 1163.94,855.402 1164.7,855.402 1165.46,855.402 1166.22,855.402 1166.99,855.402 1167.75,855.402 1168.51,855.402 1169.28,855.402 1170.04,855.402 1170.8,855.402 1171.57,855.402 1172.33,855.402 1173.09,855.402 1173.86,855.402 1174.62,855.402 1175.38,855.402 1176.14,855.402 1176.91,855.402 1177.67,855.402 1178.43,855.402 1179.2,855.402 1179.96,855.402 1180.72,855.402 1181.49,855.402 1182.25,855.402 1183.01,855.402 1183.77,855.402 1184.54,855.402 1185.3,855.402 1186.06,855.402 1186.83,807.326 1187.59,807.326 1188.35,807.326 1189.12,807.326 1189.88,807.326 1190.64,807.326 1191.41,807.326 1192.17,807.326 1192.93,807.326 1193.69,807.326 1194.46,807.326 1195.22,807.326 1195.98,807.326 1196.75,807.326 1197.51,807.326 1198.27,807.326 1199.04,807.326 1199.8,807.326 1200.56,807.326 1201.32,807.326 1202.09,807.326 1202.85,807.326 1203.61,807.326 1204.38,807.326 1205.14,807.326 1205.9,807.326 1206.67,807.326 1207.43,807.326 1208.19,807.326 1208.96,807.326 1209.72,807.326 1210.48,807.326 1211.24,807.326 1212.01,807.326 1212.77,807.326 1213.53,807.326 1214.3,807.326 1215.06,807.326 1215.82,807.326 1216.59,807.326 1217.35,807.326 1218.11,807.326 1218.87,807.326 1219.64,807.326 1220.4,807.326 1221.16,807.326 1221.93,807.326 1222.69,807.326 1223.45,807.326 1224.22,807.326 1224.98,807.326 1225.74,807.326 1226.51,807.326 1227.27,807.326 1228.03,807.326 1228.79,807.326 1229.56,807.326 1230.32,807.326 1231.08,807.326 1231.85,807.326 1232.61,807.326 1233.37,807.326 1234.14,807.326 1234.9,807.326 1235.66,807.326 1236.42,807.326 1237.19,807.326 1237.95,807.326 1238.71,807.326 1239.48,807.326 1240.24,807.326 1241,807.326 1241.77,807.326 1242.53,807.326 1243.29,807.326 1244.06,807.326 1244.82,807.326 1245.58,807.326 1246.34,807.326 1247.11,807.326 1247.87,807.326 1248.63,807.326 1249.4,807.326 1250.16,759.25 1250.92,759.25 1251.69,759.25 1252.45,759.25 1253.21,759.25 1253.97,759.25 1254.74,759.25 1255.5,759.25 1256.26,759.25 1257.03,759.25 1257.79,759.25 1258.55,759.25 1259.32,759.25 1260.08,759.25 1260.84,759.25 1261.61,759.25 1262.37,759.25 1263.13,759.25 1263.89,759.25 1264.66,759.25 1265.42,759.25 1266.18,759.25 1266.95,759.25 1267.71,759.25 1268.47,711.174 1269.24,711.174 1270,711.174 1270.76,711.174 1271.52,711.174 1272.29,711.174 1273.05,711.174 1273.81,711.174 1274.58,711.174 1275.34,711.174 1276.1,711.174 1276.87,711.174 1277.63,711.174 1278.39,711.174 1279.16,711.174 1279.92,711.174 1280.68,711.174 1281.44,711.174 1282.21,711.174 1282.97,711.174 1283.73,711.174 1284.5,711.174 1285.26,711.174 1286.02,711.174 1286.79,711.174 1287.55,711.174 1288.31,711.174 1289.07,711.174 1289.84,711.174 1290.6,711.174 1291.36,711.174 1292.13,711.174 1292.89,711.174 1293.65,711.174 1294.42,711.174 1295.18,711.174 1295.94,711.174 1296.71,711.174 1297.47,663.098 1298.23,663.098 1298.99,663.098 1299.76,663.098 1300.52,663.098 1301.28,663.098 1302.05,663.098 1302.81,663.098 1303.57,663.098 1304.34,663.098 1305.1,663.098 1305.86,663.098 1306.62,663.098 1307.39,663.098 1308.15,663.098 1308.91,663.098 1309.68,663.098 1310.44,663.098 1311.2,663.098 1311.97,663.098 1312.73,663.098 1313.49,663.098 1314.25,663.098 1315.02,663.098 1315.78,663.098 1316.54,663.098 1317.31,663.098 1318.07,663.098 1318.83,663.098 1319.6,615.022 1320.36,615.022 1321.12,615.022 1321.89,615.022 1322.65,615.022 1323.41,615.022 1324.17,615.022 1324.94,615.022 1325.7,615.022 1326.46,615.022 1327.23,615.022 1327.99,615.022 1328.75,615.022 1329.52,615.022 1330.28,615.022 1331.04,615.022 1331.8,615.022 1332.57,615.022 1333.33,615.022 1334.09,615.022 1334.86,615.022 1335.62,615.022 1336.38,615.022 1337.15,615.022 1337.91,615.022 1338.67,615.022 1339.44,615.022 1340.2,615.022 1340.96,615.022 1341.72,615.022 1342.49,615.022 1343.25,615.022 1344.01,615.022 1344.78,615.022 1345.54,615.022 1346.3,615.022 1347.07,615.022 1347.83,615.022 1348.59,615.022 1349.35,615.022 1350.12,615.022 1350.88,615.022 1351.64,615.022 1352.41,615.022 1353.17,615.022 1353.93,615.022 1354.7,615.022 1355.46,615.022 1356.22,615.022 1356.99,615.022 1357.75,615.022 1358.51,615.022 1359.27,615.022 1360.04,615.022 1360.8,615.022 1361.56,615.022 1362.33,615.022 1363.09,615.022 1363.85,615.022 1364.62,615.022 1365.38,615.022 1366.14,615.022 1366.9,615.022 1367.67,615.022 1368.43,615.022 1369.19,615.022 1369.96,615.022 1370.72,615.022 1371.48,615.022 1372.25,615.022 1373.01,615.022 1373.77,615.022 1374.54,615.022 1375.3,615.022 1376.06,615.022 1376.82,615.022 1377.59,615.022 1378.35,615.022 1379.11,615.022 1379.88,615.022 1380.64,615.022 1381.4,615.022 1382.17,615.022 1382.93,615.022 1383.69,615.022 1384.45,615.022 1385.22,615.022 1385.98,615.022 1386.74,615.022 1387.51,615.022 1388.27,615.022 1389.03,615.022 1389.8,615.022 1390.56,615.022 1391.32,615.022 1392.09,615.022 1392.85,615.022 1393.61,615.022 1394.37,615.022 1395.14,615.022 1395.9,615.022 1396.66,615.022 1397.43,615.022 1398.19,615.022 1398.95,615.022 1399.72,615.022 1400.48,615.022 1401.24,615.022 1402,615.022 1402.77,615.022 1403.53,615.022 1404.29,615.022 1405.06,615.022 1405.82,615.022 1406.58,615.022 1407.35,615.022 1408.11,615.022 1408.87,615.022 1409.64,615.022 1410.4,615.022 1411.16,615.022 1411.92,615.022 1412.69,615.022 1413.45,615.022 1414.21,615.022 1414.98,566.946 1415.74,566.946 1416.5,566.946 1417.27,566.946 1418.03,566.946 1418.79,566.946 1419.55,566.946 1420.32,566.946 1421.08,566.946 1421.84,566.946 1422.61,566.946 1423.37,566.946 1424.13,566.946 1424.9,566.946 1425.66,566.946 1426.42,566.946 1427.19,566.946 1427.95,566.946 1428.71,566.946 1429.47,566.946 1430.24,566.946 1431,566.946 1431.76,566.946 1432.53,566.946 1433.29,566.946 1434.05,566.946 1434.82,566.946 1435.58,566.946 1436.34,566.946 1437.1,566.946 1437.87,566.946 1438.63,566.946 1439.39,566.946 1440.16,566.946 1440.92,566.946 1441.68,566.946 1442.45,566.946 1443.21,566.946 1443.97,566.946 1444.74,566.946 1445.5,566.946 1446.26,566.946 1447.02,566.946 1447.79,566.946 1448.55,566.946 1449.31,566.946 1450.08,566.946 1450.84,566.946 1451.6,566.946 1452.37,566.946 1453.13,566.946 1453.89,566.946 1454.65,566.946 1455.42,566.946 1456.18,566.946 1456.94,566.946 1457.71,566.946 1458.47,566.946 1459.23,518.87 1460,518.87 1460.76,518.87 1461.52,518.87 1462.29,518.87 1463.05,518.87 1463.81,518.87 1464.57,470.794 1465.34,470.794 1466.1,470.794 1466.86,470.794 1467.63,470.794 1468.39,470.794 1469.15,470.794 1469.92,470.794 1470.68,470.794 1471.44,470.794 1472.2,470.794 1472.97,470.794 1473.73,470.794 1474.49,470.794 1475.26,470.794 1476.02,470.794 1476.78,470.794 1477.55,470.794 1478.31,470.794 1479.07,470.794 1479.84,470.794 1480.6,470.794 1481.36,470.794 1482.12,470.794 1482.89,470.794 1483.65,470.794 1484.41,470.794 1485.18,470.794 1485.94,470.794 1486.7,470.794 1487.47,470.794 1488.23,470.794 1488.99,470.794 1489.75,470.794 1490.52,470.794 1491.28,470.794 1492.04,470.794 1492.81,470.794 1493.57,470.794 1494.33,470.794 1495.1,470.794 1495.86,470.794 1496.62,470.794 1497.39,470.794 1498.15,470.794 1498.91,470.794 1499.67,470.794 1500.44,470.794 1501.2,470.794 1501.96,470.794 1502.73,470.794 1503.49,470.794 1504.25,470.794 1505.02,470.794 1505.78,470.794 1506.54,470.794 1507.3,470.794 1508.07,470.794 1508.83,470.794 1509.59,470.794 1510.36,470.794 1511.12,470.794 1511.88,470.794 1512.65,470.794 1513.41,470.794 1514.17,470.794 1514.94,470.794 1515.7,470.794 1516.46,470.794 1517.22,470.794 1517.99,470.794 1518.75,470.794 1519.51,470.794 1520.28,470.794 1521.04,470.794 1521.8,470.794 1522.57,470.794 1523.33,470.794 1524.09,470.794 1524.85,470.794 1525.62,470.794 1526.38,470.794 1527.14,470.794 1527.91,470.794 1528.67,470.794 1529.43,470.794 1530.2,470.794 1530.96,470.794 1531.72,470.794 1532.49,470.794 1533.25,470.794 1534.01,470.794 1534.77,470.794 1535.54,470.794 1536.3,470.794 1537.06,470.794 1537.83,470.794 1538.59,470.794 1539.35,470.794 1540.12,470.794 1540.88,470.794 1541.64,470.794 1542.4,470.794 1543.17,470.794 1543.93,470.794 1544.69,470.794 1545.46,470.794 1546.22,470.794 1546.98,470.794 1547.75,470.794 1548.51,470.794 1549.27,470.794 1550.04,470.794 1550.8,470.794 1551.56,470.794 1552.32,470.794 1553.09,470.794 1553.85,470.794 1554.61,470.794 1555.38,470.794 1556.14,470.794 1556.9,470.794 1557.67,470.794 1558.43,470.794 1559.19,470.794 1559.95,470.794 1560.72,470.794 1561.48,470.794 1562.24,470.794 1563.01,470.794 1563.77,470.794 1564.53,470.794 1565.3,470.794 1566.06,470.794 1566.82,470.794 1567.59,470.794 1568.35,470.794 1569.11,470.794 1569.87,470.794 1570.64,470.794 1571.4,422.718 1572.16,422.718 1572.93,422.718 1573.69,422.718 1574.45,422.718 1575.22,422.718 1575.98,422.718 1576.74,422.718 1577.5,422.718 1578.27,422.718 1579.03,422.718 1579.79,422.718 1580.56,422.718 1581.32,422.718 1582.08,422.718 1582.85,422.718 1583.61,422.718 1584.37,422.718 1585.14,422.718 1585.9,422.718 1586.66,422.718 1587.42,422.718 1588.19,422.718 1588.95,422.718 1589.71,422.718 1590.48,422.718 1591.24,422.718 1592,422.718 1592.77,422.718 1593.53,422.718 1594.29,422.718 1595.05,422.718 1595.82,422.718 1596.58,422.718 1597.34,422.718 1598.11,422.718 1598.87,422.718 1599.63,422.718 1600.4,422.718 1601.16,422.718 1601.92,422.718 1602.69,422.718 1603.45,422.718 1604.21,422.718 1604.97,422.718 1605.74,422.718 1606.5,422.718 1607.26,422.718 1608.03,422.718 1608.79,422.718 1609.55,422.718 1610.32,422.718 1611.08,422.718 1611.84,422.718 1612.6,422.718 1613.37,422.718 1614.13,422.718 1614.89,422.718 1615.66,422.718 1616.42,422.718 1617.18,422.718 1617.95,422.718 1618.71,422.718 1619.47,422.718 1620.24,422.718 1621,422.718 1621.76,422.718 1622.52,422.718 1623.29,422.718 1624.05,422.718 1624.81,422.718 1625.58,422.718 1626.34,422.718 1627.1,422.718 1627.87,422.718 1628.63,422.718 1629.39,422.718 1630.15,422.718 1630.92,422.718 1631.68,422.718 1632.44,422.718 1633.21,422.718 1633.97,422.718 1634.73,422.718 1635.5,422.718 1636.26,422.718 1637.02,422.718 1637.79,422.718 1638.55,422.718 1639.31,422.718 1640.07,422.718 1640.84,422.718 1641.6,422.718 1642.36,422.718 1643.13,422.718 1643.89,422.718 1644.65,422.718 1645.42,422.718 1646.18,422.718 1646.94,422.718 1647.7,422.718 1648.47,422.718 1649.23,422.718 1649.99,422.718 1650.76,422.718 1651.52,422.718 1652.28,422.718 1653.05,422.718 1653.81,422.718 1654.57,422.718 1655.34,422.718 1656.1,422.718 1656.86,422.718 1657.62,422.718 1658.39,422.718 1659.15,422.718 1659.91,422.718 1660.68,422.718 1661.44,422.718 1662.2,422.718 1662.97,422.718 1663.73,422.718 1664.49,422.718 1665.25,422.718 1666.02,422.718 1666.78,422.718 1667.54,422.718 1668.31,422.718 1669.07,422.718 1669.83,422.718 1670.6,422.718 1671.36,422.718 1672.12,422.718 1672.88,422.718 1673.65,422.718 1674.41,422.718 1675.17,422.718 1675.94,422.718 1676.7,422.718 1677.46,422.718 1678.23,422.718 1678.99,422.718 1679.75,422.718 1680.52,422.718 1681.28,422.718 1682.04,422.718 1682.8,422.718 1683.57,422.718 1684.33,422.718 1685.09,422.718 1685.86,422.718 1686.62,422.718 1687.38,422.718 1688.15,422.718 1688.91,422.718 1689.67,422.718 1690.43,422.718 1691.2,422.718 1691.96,422.718 1692.72,422.718 1693.49,422.718 1694.25,422.718 1695.01,422.718 1695.78,422.718 1696.54,422.718 1697.3,422.718 1698.07,422.718 1698.83,422.718 1699.59,422.718 1700.35,422.718 1701.12,422.718 1701.88,422.718 1702.64,422.718 1703.41,422.718 1704.17,422.718 1704.93,422.718 1705.7,422.718 1706.46,422.718 1707.22,422.718 1707.98,422.718 1708.75,422.718 1709.51,422.718 1710.27,422.718 1711.04,422.718 1711.8,422.718 1712.56,422.718 1713.33,422.718 1714.09,422.718 1714.85,422.718 1715.62,422.718 1716.38,422.718 1717.14,422.718 1717.9,422.718 1718.67,422.718 1719.43,422.718 1720.19,422.718 1720.96,422.718 1721.72,422.718 1722.48,422.718 1723.25,422.718 1724.01,422.718 1724.77,422.718 1725.53,422.718 1726.3,422.718 1727.06,422.718 1727.82,422.718 1728.59,422.718 1729.35,422.718 1730.11,422.718 1730.88,422.718 1731.64,422.718 1732.4,422.718 1733.17,422.718 1733.93,422.718 1734.69,422.718 1735.45,422.718 1736.22,422.718 1736.98,422.718 1737.74,422.718 1738.51,422.718 1739.27,422.718 1740.03,422.718 1740.8,422.718 1741.56,422.718 1742.32,422.718 1743.08,422.718 1743.85,422.718 1744.61,422.718 1745.37,422.718 1746.14,422.718 1746.9,422.718 1747.66,422.718 1748.43,422.718 1749.19,422.718 1749.95,422.718 1750.72,422.718 1751.48,422.718 1752.24,422.718 1753,422.718 1753.77,422.718 1754.53,422.718 1755.29,422.718 1756.06,422.718 1756.82,422.718 1757.58,422.718 1758.35,422.718 1759.11,422.718 1759.87,422.718 1760.63,422.718 1761.4,422.718 1762.16,422.718 1762.92,422.718 1763.69,422.718 1764.45,422.718 1765.21,422.718 1765.98,422.718 1766.74,422.718 1767.5,422.718 1768.27,422.718 1769.03,422.718 1769.79,422.718 1770.55,422.718 1771.32,422.718 1772.08,422.718 1772.84,422.718 1773.61,422.718 1774.37,422.718 1775.13,422.718 1775.9,422.718 1776.66,422.718 1777.42,422.718 1778.18,422.718 1778.95,422.718 1779.71,422.718 1780.47,422.718 1781.24,422.718 1782,422.718 1782.76,422.718 1783.53,422.718 1784.29,422.718 1785.05,422.718 1785.82,422.718 1786.58,422.718 1787.34,422.718 1788.1,422.718 1788.87,422.718 1789.63,422.718 1790.39,422.718 1791.16,422.718 1791.92,422.718 1792.68,422.718 1793.45,422.718 1794.21,422.718 1794.97,422.718 1795.73,422.718 1796.5,422.718 1797.26,422.718 1798.02,422.718 1798.79,422.718 1799.55,422.718 1800.31,422.718 1801.08,422.718 1801.84,422.718 1802.6,422.718 1803.37,422.718 1804.13,422.718 1804.89,422.718 1805.65,422.718 1806.42,422.718 1807.18,422.718 1807.94,422.718 1808.71,422.718 1809.47,422.718 1810.23,422.718 1811,422.718 1811.76,422.718 1812.52,422.718 1813.28,422.718 1814.05,374.642 1814.81,374.642 1815.57,374.642 1816.34,374.642 1817.1,374.642 1817.86,374.642 1818.63,374.642 1819.39,374.642 1820.15,374.642 1820.92,374.642 1821.68,374.642 1822.44,374.642 1823.2,374.642 1823.97,374.642 1824.73,374.642 1825.49,374.642 1826.26,374.642 1827.02,374.642 1827.78,374.642 1828.55,374.642 1829.31,374.642 1830.07,374.642 1830.83,374.642 1831.6,374.642 1832.36,374.642 1833.12,374.642 1833.89,374.642 1834.65,374.642 1835.41,374.642 1836.18,374.642 1836.94,374.642 1837.7,374.642 1838.47,374.642 1839.23,374.642 1839.99,374.642 1840.75,374.642 1841.52,374.642 1842.28,374.642 1843.04,374.642 1843.81,374.642 1844.57,374.642 1845.33,374.642 1846.1,374.642 1846.86,374.642 1847.62,374.642 1848.38,374.642 1849.15,374.642 1849.91,374.642 1850.67,374.642 1851.44,374.642 1852.2,374.642 1852.96,374.642 1853.73,374.642 1854.49,374.642 1855.25,374.642 1856.02,374.642 1856.78,374.642 1857.54,374.642 1858.3,374.642 1859.07,374.642 1859.83,374.642 1860.59,374.642 1861.36,374.642 1862.12,374.642 1862.88,374.642 1863.65,374.642 1864.41,374.642 1865.17,374.642 1865.93,374.642 1866.7,374.642 1867.46,374.642 1868.22,374.642 1868.99,374.642 1869.75,374.642 1870.51,374.642 1871.28,374.642 1872.04,374.642 1872.8,374.642 1873.57,374.642 1874.33,374.642 1875.09,374.642 1875.85,374.642 1876.62,374.642 1877.38,374.642 1878.14,374.642 1878.91,374.642 1879.67,374.642 1880.43,374.642 1881.2,374.642 1881.96,374.642 1882.72,374.642 1883.48,374.642 1884.25,374.642 1885.01,374.642 1885.77,374.642 1886.54,374.642 1887.3,374.642 1888.06,374.642 1888.83,374.642 1889.59,374.642 1890.35,374.642 1891.12,374.642 1891.88,374.642 1892.64,374.642 1893.4,374.642 1894.17,374.642 1894.93,374.642 1895.69,374.642 1896.46,374.642 1897.22,374.642 1897.98,374.642 1898.75,374.642 1899.51,374.642 1900.27,374.642 1901.03,374.642 1901.8,374.642 1902.56,374.642 1903.32,374.642 1904.09,374.642 1904.85,374.642 1905.61,374.642 1906.38,374.642 1907.14,374.642 1907.9,374.642 1908.67,374.642 1909.43,374.642 1910.19,374.642 1910.95,374.642 1911.72,374.642 1912.48,374.642 1913.24,374.642 1914.01,374.642 1914.77,374.642 1915.53,374.642 1916.3,374.642 1917.06,374.642 1917.82,374.642 1918.58,374.642 1919.35,374.642 1920.11,374.642 1920.87,374.642 1921.64,374.642 1922.4,326.566 1923.16,326.566 1923.93,326.566 1924.69,326.566 1925.45,326.566 1926.22,326.566 1926.98,326.566 1927.74,326.566 1928.5,326.566 1929.27,326.566 1930.03,326.566 1930.79,326.566 1931.56,326.566 1932.32,326.566 1933.08,326.566 1933.85,326.566 1934.61,326.566 1935.37,326.566 1936.13,326.566 1936.9,326.566 1937.66,326.566 1938.42,326.566 1939.19,326.566 1939.95,326.566 1940.71,326.566 1941.48,326.566 1942.24,326.566 1943,326.566 1943.77,326.566 1944.53,326.566 1945.29,326.566 1946.05,326.566 1946.82,326.566 1947.58,278.49 1948.34,278.49 1949.11,278.49 1949.87,278.49 1950.63,278.49 1951.4,278.49 1952.16,278.49 1952.92,278.49 1953.68,278.49 1954.45,278.49 1955.21,278.49 1955.97,278.49 1956.74,278.49 1957.5,278.49 1958.26,278.49 1959.03,278.49 1959.79,278.49 1960.55,278.49 1961.32,278.49 1962.08,278.49 1962.84,278.49 1963.6,278.49 1964.37,278.49 1965.13,278.49 1965.89,278.49 1966.66,278.49 1967.42,278.49 1968.18,278.49 1968.95,278.49 1969.71,278.49 1970.47,278.49 1971.23,278.49 1972,278.49 1972.76,278.49 1973.52,278.49 1974.29,278.49 1975.05,278.49 1975.81,278.49 1976.58,278.49 1977.34,278.49 1978.1,278.49 1978.87,278.49 1979.63,278.49 1980.39,278.49 1981.15,278.49 1981.92,278.49 1982.68,278.49 1983.44,278.49 1984.21,278.49 1984.97,278.49 1985.73,278.49 1986.5,278.49 1987.26,278.49 1988.02,278.49 1988.78,278.49 1989.55,278.49 1990.31,278.49 1991.07,278.49 1991.84,278.49 1992.6,278.49 1993.36,278.49 1994.13,278.49 1994.89,278.49 1995.65,278.49 1996.42,278.49 1997.18,278.49 1997.94,278.49 1998.7,278.49 1999.47,278.49 2000.23,278.49 2000.99,278.49 2001.76,278.49 2002.52,278.49 2003.28,278.49 2004.05,278.49 2004.81,278.49 2005.57,278.49 2006.33,278.49 2007.1,278.49 2007.86,278.49 2008.62,278.49 2009.39,278.49 2010.15,278.49 2010.91,278.49 2011.68,278.49 2012.44,278.49 2013.2,278.49 2013.97,278.49 2014.73,278.49 2015.49,278.49 2016.25,278.49 2017.02,278.49 2017.78,278.49 2018.54,278.49 2019.31,278.49 2020.07,278.49 2020.83,278.49 2021.6,278.49 2022.36,278.49 2023.12,278.49 2023.88,278.49 2024.65,278.49 2025.41,278.49 2026.17,278.49 2026.94,278.49 2027.7,278.49 2028.46,278.49 2029.23,278.49 2029.99,278.49 2030.75,278.49 2031.51,278.49 2032.28,278.49 2033.04,278.49 2033.8,278.49 2034.57,278.49 2035.33,278.49 2036.09,278.49 2036.86,278.49 2037.62,278.49 2038.38,278.49 2039.15,278.49 2039.91,278.49 2040.67,278.49 2041.43,278.49 2042.2,278.49 2042.96,278.49 2043.72,278.49 2044.49,278.49 2045.25,278.49 2046.01,278.49 2046.78,278.49 2047.54,278.49 2048.3,278.49 2049.06,278.49 2049.83,278.49 2050.59,278.49 2051.35,278.49 2052.12,278.49 2052.88,278.49 2053.64,278.49 2054.41,278.49 2055.17,278.49 2055.93,278.49 2056.7,278.49 2057.46,278.49 2058.22,278.49 2058.98,278.49 2059.75,278.49 2060.51,278.49 2061.27,278.49 2062.04,278.49 2062.8,278.49 2063.56,278.49 2064.33,278.49 2065.09,278.49 2065.85,278.49 2066.61,278.49 2067.38,278.49 2068.14,278.49 2068.9,278.49 2069.67,278.49 2070.43,278.49 2071.19,278.49 2071.96,278.49 2072.72,278.49 2073.48,278.49 2074.25,278.49 2075.01,278.49 2075.77,278.49 2076.53,278.49 2077.3,278.49 2078.06,278.49 2078.82,278.49 2079.59,278.49 2080.35,278.49 2081.11,278.49 2081.88,278.49 2082.64,278.49 2083.4,278.49 2084.16,278.49 2084.93,278.49 2085.69,278.49 2086.45,278.49 2087.22,278.49 2087.98,278.49 2088.74,278.49 2089.51,278.49 2090.27,278.49 2091.03,278.49 2091.8,278.49 2092.56,278.49 2093.32,278.49 2094.08,278.49 2094.85,278.49 2095.61,278.49 2096.37,278.49 2097.14,278.49 2097.9,278.49 2098.66,278.49 2099.43,278.49 2100.19,230.414 2100.95,230.414 2101.71,230.414 2102.48,230.414 2103.24,230.414 2104,230.414 2104.77,230.414 2105.53,230.414 2106.29,230.414 2107.06,230.414 2107.82,230.414 2108.58,230.414 2109.35,230.414 2110.11,182.338 2110.87,182.338 2111.63,182.338 2112.4,182.338 2113.16,182.338 2113.92,182.338 2114.69,182.338 2115.45,182.338 2116.21,182.338 2116.98,182.338 2117.74,182.338 2118.5,182.338 2119.26,182.338 2120.03,182.338 2120.79,182.338 2121.55,182.338 2122.32,182.338 2123.08,182.338 2123.84,182.338 2124.61,182.338 2125.37,182.338 2126.13,182.338 2126.9,182.338 2127.66,182.338 2128.42,182.338 2129.18,182.338 2129.95,182.338 2130.71,182.338 2131.47,182.338 2132.24,182.338 2133,182.338 2133.76,182.338 2134.53,182.338 2135.29,182.338 2136.05,182.338 2136.81,182.338 2137.58,182.338 2138.34,182.338 2139.1,182.338 2139.87,182.338 2140.63,182.338 2141.39,182.338 2142.16,182.338 2142.92,182.338 2143.68,182.338 2144.45,182.338 2145.21,182.338 2145.97,182.338 2146.73,182.338 2147.5,182.338 2148.26,182.338 2149.02,182.338 2149.79,182.338 2150.55,182.338 2151.31,182.338 2152.08,182.338 2152.84,182.338 2153.6,182.338 2154.36,182.338 2155.13,182.338 2155.89,182.338 2156.65,182.338 2157.42,182.338 2158.18,182.338 2158.94,182.338 2159.71,182.338 2160.47,182.338 2161.23,182.338 2162,182.338 2162.76,182.338 2163.52,182.338 2164.28,182.338 2165.05,182.338 2165.81,182.338 2166.57,182.338 2167.34,182.338 2168.1,182.338 2168.86,182.338 2169.63,182.338 2170.39,182.338 2171.15,182.338 2171.91,182.338 2172.68,182.338 2173.44,182.338 2174.2,182.338 2174.97,182.338 2175.73,182.338 2176.49,182.338 2177.26,182.338 2178.02,182.338 2178.78,182.338 2179.55,182.338 2180.31,182.338 2181.07,182.338 2181.83,182.338 2182.6,182.338 2183.36,182.338 2184.12,182.338 2184.89,182.338 2185.65,182.338 2186.41,182.338 2187.18,182.338 2187.94,182.338 2188.7,182.338 2189.46,182.338 2190.23,182.338 2190.99,182.338 2191.75,182.338 2192.52,182.338 2193.28,182.338 2194.04,182.338 2194.81,182.338 2195.57,182.338 2196.33,182.338 2197.1,182.338 2197.86,182.338 2198.62,182.338 2199.38,182.338 2200.15,182.338 2200.91,182.338 2201.67,182.338 2202.44,182.338 2203.2,182.338 2203.96,182.338 2204.73,134.262 2205.49,134.262 2206.25,134.262 2207.01,134.262 2207.78,134.262 2208.54,134.262 2209.3,134.262 2210.07,134.262 2210.83,134.262 2211.59,134.262 2212.36,134.262 2213.12,134.262 2213.88,134.262 2214.65,134.262 2215.41,134.262 2216.17,134.262 2216.93,134.262 2217.7,134.262 2218.46,134.262 2219.22,134.262 2219.99,134.262 2220.75,134.262 2221.51,134.262 2222.28,134.262 2223.04,134.262 2223.8,134.262 2224.56,134.262 2225.33,134.262 2226.09,134.262 2226.85,134.262 2227.62,134.262 2228.38,134.262 2229.14,134.262 2229.91,134.262 2230.67,134.262 2231.43,134.262 2232.2,134.262 2232.96,134.262 2233.72,134.262 2234.48,134.262 2235.25,134.262 2236.01,134.262 2236.77,134.262 2237.54,134.262 2238.3,134.262 2239.06,134.262 2239.83,134.262 2240.59,134.262 2241.35,134.262 2242.11,134.262 2242.88,134.262 2243.64,134.262 2244.4,134.262 2245.17,134.262 2245.93,134.262 2246.69,134.262 2247.46,134.262 2248.22,134.262 2248.98,134.262 2249.75,134.262 2250.51,134.262 2251.27,134.262 2252.03,134.262 2252.8,134.262 2253.56,134.262 2254.32,134.262 2255.09,134.262 2255.85,134.262 2256.61,134.262 2257.38,134.262 2258.14,134.262 2258.9,134.262 2259.66,134.262 2260.43,134.262 2261.19,134.262 2261.95,134.262 2262.72,134.262 2263.48,134.262 2264.24,134.262 2265.01,134.262 2265.77,134.262 2266.53,134.262 2267.3,134.262 2268.06,134.262 2268.82,134.262 2269.58,134.262 2270.35,134.262 2271.11,134.262 2271.87,134.262 2272.64,134.262 2273.4,134.262 2274.16,134.262 2274.93,134.262 2275.69,134.262 2276.45,134.262 2277.21,134.262 2277.98,134.262 2278.74,134.262 2279.5,134.262 2280.27,134.262 2281.03,134.262 2281.79,134.262 2282.56,134.262 2283.32,134.262 2284.08,134.262 2284.85,134.262 2285.61,134.262 2286.37,134.262 2287.13,134.262 2287.9,134.262 2288.66,134.262 2289.42,134.262 2290.19,134.262 2290.95,134.262 2291.71,134.262 2292.48,134.262 2293.24,134.262 2294,134.262 2294.76,134.262 2295.53,134.262 2296.29,134.262 2297.05,134.262 2297.82,134.262 2298.58,134.262 2299.34,134.262 2300.11,134.262 2300.87,134.262 2301.63,134.262 2302.4,134.262 2303.16,134.262 2303.92,134.262 2304.68,134.262 2305.45,134.262 2306.21,134.262 2306.97,134.262 2307.74,134.262 2308.5,134.262 2309.26,134.262 2310.03,134.262 2310.79,134.262 2311.55,134.262 2312.31,134.262 2313.08,134.262 2313.84,134.262 2314.6,134.262 2315.37,134.262 2316.13,134.262 2316.89,134.262 2317.66,134.262 2318.42,134.262 2319.18,134.262 2319.95,134.262 2320.71,134.262 2321.47,134.262 2322.23,134.262 2323,134.262 2323.76,134.262 2324.52,134.262 2325.29,134.262 2326.05,134.262 2326.81,134.262 2327.58,134.262 2328.34,134.262 2329.1,134.262 2329.86,134.262 2330.63,134.262 2331.39,134.262 2332.15,134.262 2332.92,134.262 2333.68,134.262 2334.44,134.262 2335.21,134.262 2335.97,134.262 2336.73,134.262 2337.5,134.262 2338.26,134.262 2339.02,134.262 2339.78,134.262 2340.55,134.262 2341.31,134.262 2342.07,134.262 2342.84,134.262 2343.6,134.262 2344.36,134.262 2345.13,134.262 2345.89,86.1857 2346.65,86.1857 2347.41,86.1857 2348.18,86.1857 2348.94,86.1857 2349.7,86.1857 2350.47,86.1857 2351.23,86.1857 2351.99,86.1857 2352.76,86.1857 "/>
<path clip-path="url(#clip420)" d="M1975.5 1377.32 L2279.02 1377.32 L2279.02 1273.64 L1975.5 1273.64  Z" fill="#ffffff" fill-rule="evenodd" fill-opacity="1"/>
<polyline clip-path="url(#clip420)" style="stroke:#000000; stroke-linecap:round; stroke-linejoin:round; stroke-width:4; stroke-opacity:1; fill:none" points="1975.5,1377.32 2279.02,1377.32 2279.02,1273.64 1975.5,1273.64 1975.5,1377.32 "/>
<polyline clip-path="url(#clip420)" style="stroke:#009af9; stroke-linecap:round; stroke-linejoin:round; stroke-width:8; stroke-opacity:1; fill:none" points="2000.08,1325.48 2147.55,1325.48 "/>
<path clip-path="url(#clip420)" d="M2172.13 1308.2 L2178.42 1308.2 L2193.75 1337.11 L2193.75 1308.2 L2198.29 1308.2 L2198.29 1342.76 L2191.99 1342.76 L2176.66 1313.84 L2176.66 1342.76 L2172.13 1342.76 L2172.13 1308.2 Z" fill="#000000" fill-rule="nonzero" fill-opacity="1" /><path clip-path="url(#clip420)" d="M2217.64 1306.78 Q2214.53 1312.11 2213.03 1317.32 Q2211.53 1322.52 2211.53 1327.87 Q2211.53 1333.22 2213.03 1338.47 Q2214.56 1343.7 2217.64 1349.01 L2213.93 1349.01 Q2210.46 1343.57 2208.72 1338.31 Q2207.01 1333.06 2207.01 1327.87 Q2207.01 1322.71 2208.72 1317.48 Q2210.44 1312.25 2213.93 1306.78 L2217.64 1306.78 Z" fill="#000000" fill-rule="nonzero" fill-opacity="1" /><path clip-path="url(#clip420)" d="M2230.11 1309.47 L2230.11 1316.83 L2238.89 1316.83 L2238.89 1320.14 L2230.11 1320.14 L2230.11 1334.21 Q2230.11 1337.38 2230.97 1338.29 Q2231.85 1339.19 2234.51 1339.19 L2238.89 1339.19 L2238.89 1342.76 L2234.51 1342.76 Q2229.58 1342.76 2227.71 1340.93 Q2225.83 1339.07 2225.83 1334.21 L2225.83 1320.14 L2222.71 1320.14 L2222.71 1316.83 L2225.83 1316.83 L2225.83 1309.47 L2230.11 1309.47 Z" fill="#000000" fill-rule="nonzero" fill-opacity="1" /><path clip-path="url(#clip420)" d="M2243.82 1306.78 L2247.52 1306.78 Q2250.99 1312.25 2252.71 1317.48 Q2254.44 1322.71 2254.44 1327.87 Q2254.44 1333.06 2252.71 1338.31 Q2250.99 1343.57 2247.52 1349.01 L2243.82 1349.01 Q2246.9 1343.7 2248.4 1338.47 Q2249.93 1333.22 2249.93 1327.87 Q2249.93 1322.52 2248.4 1317.32 Q2246.9 1312.11 2243.82 1306.78 Z" fill="#000000" fill-rule="nonzero" fill-opacity="1" /></svg>
