<?xml version="1.0" encoding="utf-8"?>
<svg xmlns="http://www.w3.org/2000/svg" xmlns:xlink="http://www.w3.org/1999/xlink" width="600" height="400" viewBox="0 0 2400 1600">
<defs>
  <clipPath id="clip510">
    <rect x="0" y="0" width="2400" height="1600"/>
  </clipPath>
</defs>
<path clip-path="url(#clip510)" d="M0 1600 L2400 1600 L2400 0 L0 0  Z" fill="#ffffff" fill-rule="evenodd" fill-opacity="1"/>
<defs>
  <clipPath id="clip511">
    <rect x="138" y="47" width="2215" height="1377"/>
  </clipPath>
</defs>
<path clip-path="url(#clip510)" d="M138.959 1423.18 L2352.76 1423.18 L2352.76 47.2441 L138.959 47.2441  Z" fill="#ffffff" fill-rule="evenodd" fill-opacity="1"/>
<polyline clip-path="url(#clip511)" style="stroke:#000000; stroke-linecap:round; stroke-linejoin:round; stroke-width:2; stroke-opacity:0.1; fill:none" points="138.959,1423.18 138.959,47.2441 "/>
<polyline clip-path="url(#clip511)" style="stroke:#000000; stroke-linecap:round; stroke-linejoin:round; stroke-width:2; stroke-opacity:0.1; fill:none" points="581.719,1423.18 581.719,47.2441 "/>
<polyline clip-path="url(#clip511)" style="stroke:#000000; stroke-linecap:round; stroke-linejoin:round; stroke-width:2; stroke-opacity:0.1; fill:none" points="1024.48,1423.18 1024.48,47.2441 "/>
<polyline clip-path="url(#clip511)" style="stroke:#000000; stroke-linecap:round; stroke-linejoin:round; stroke-width:2; stroke-opacity:0.1; fill:none" points="1467.24,1423.18 1467.24,47.2441 "/>
<polyline clip-path="url(#clip511)" style="stroke:#000000; stroke-linecap:round; stroke-linejoin:round; stroke-width:2; stroke-opacity:0.1; fill:none" points="1910,1423.18 1910,47.2441 "/>
<polyline clip-path="url(#clip511)" style="stroke:#000000; stroke-linecap:round; stroke-linejoin:round; stroke-width:2; stroke-opacity:0.1; fill:none" points="2352.76,1423.18 2352.76,47.2441 "/>
<polyline clip-path="url(#clip511)" style="stroke:#000000; stroke-linecap:round; stroke-linejoin:round; stroke-width:2; stroke-opacity:0.1; fill:none" points="138.959,1384.24 2352.76,1384.24 "/>
<polyline clip-path="url(#clip511)" style="stroke:#000000; stroke-linecap:round; stroke-linejoin:round; stroke-width:2; stroke-opacity:0.1; fill:none" points="138.959,1184.54 2352.76,1184.54 "/>
<polyline clip-path="url(#clip511)" style="stroke:#000000; stroke-linecap:round; stroke-linejoin:round; stroke-width:2; stroke-opacity:0.1; fill:none" points="138.959,984.837 2352.76,984.837 "/>
<polyline clip-path="url(#clip511)" style="stroke:#000000; stroke-linecap:round; stroke-linejoin:round; stroke-width:2; stroke-opacity:0.1; fill:none" points="138.959,785.137 2352.76,785.137 "/>
<polyline clip-path="url(#clip511)" style="stroke:#000000; stroke-linecap:round; stroke-linejoin:round; stroke-width:2; stroke-opacity:0.1; fill:none" points="138.959,585.437 2352.76,585.437 "/>
<polyline clip-path="url(#clip511)" style="stroke:#000000; stroke-linecap:round; stroke-linejoin:round; stroke-width:2; stroke-opacity:0.1; fill:none" points="138.959,385.736 2352.76,385.736 "/>
<polyline clip-path="url(#clip511)" style="stroke:#000000; stroke-linecap:round; stroke-linejoin:round; stroke-width:2; stroke-opacity:0.1; fill:none" points="138.959,186.036 2352.76,186.036 "/>
<polyline clip-path="url(#clip510)" style="stroke:#000000; stroke-linecap:round; stroke-linejoin:round; stroke-width:4; stroke-opacity:1; fill:none" points="138.959,1423.18 2352.76,1423.18 "/>
<polyline clip-path="url(#clip510)" style="stroke:#000000; stroke-linecap:round; stroke-linejoin:round; stroke-width:4; stroke-opacity:1; fill:none" points="138.959,1423.18 138.959,1404.28 "/>
<polyline clip-path="url(#clip510)" style="stroke:#000000; stroke-linecap:round; stroke-linejoin:round; stroke-width:4; stroke-opacity:1; fill:none" points="581.719,1423.18 581.719,1404.28 "/>
<polyline clip-path="url(#clip510)" style="stroke:#000000; stroke-linecap:round; stroke-linejoin:round; stroke-width:4; stroke-opacity:1; fill:none" points="1024.48,1423.18 1024.48,1404.28 "/>
<polyline clip-path="url(#clip510)" style="stroke:#000000; stroke-linecap:round; stroke-linejoin:round; stroke-width:4; stroke-opacity:1; fill:none" points="1467.24,1423.18 1467.24,1404.28 "/>
<polyline clip-path="url(#clip510)" style="stroke:#000000; stroke-linecap:round; stroke-linejoin:round; stroke-width:4; stroke-opacity:1; fill:none" points="1910,1423.18 1910,1404.28 "/>
<polyline clip-path="url(#clip510)" style="stroke:#000000; stroke-linecap:round; stroke-linejoin:round; stroke-width:4; stroke-opacity:1; fill:none" points="2352.76,1423.18 2352.76,1404.28 "/>
<path clip-path="url(#clip510)" d="M138.959 1454.1 Q135.348 1454.1 133.52 1457.66 Q131.714 1461.2 131.714 1468.33 Q131.714 1475.44 133.52 1479.01 Q135.348 1482.55 138.959 1482.55 Q142.594 1482.55 144.399 1479.01 Q146.228 1475.44 146.228 1468.33 Q146.228 1461.2 144.399 1457.66 Q142.594 1454.1 138.959 1454.1 M138.959 1450.39 Q144.77 1450.39 147.825 1455 Q150.904 1459.58 150.904 1468.33 Q150.904 1477.06 147.825 1481.67 Q144.77 1486.25 138.959 1486.25 Q133.149 1486.25 130.071 1481.67 Q127.015 1477.06 127.015 1468.33 Q127.015 1459.58 130.071 1455 Q133.149 1450.39 138.959 1450.39 Z" fill="#000000" fill-rule="nonzero" fill-opacity="1" /><path clip-path="url(#clip510)" d="M576.372 1481.64 L592.691 1481.64 L592.691 1485.58 L570.747 1485.58 L570.747 1481.64 Q573.409 1478.89 577.992 1474.26 Q582.598 1469.61 583.779 1468.27 Q586.024 1465.74 586.904 1464.01 Q587.807 1462.25 587.807 1460.56 Q587.807 1457.8 585.862 1456.07 Q583.941 1454.33 580.839 1454.33 Q578.64 1454.33 576.186 1455.09 Q573.756 1455.86 570.978 1457.41 L570.978 1452.69 Q573.802 1451.55 576.256 1450.97 Q578.709 1450.39 580.747 1450.39 Q586.117 1450.39 589.311 1453.08 Q592.506 1455.77 592.506 1460.26 Q592.506 1462.39 591.696 1464.31 Q590.908 1466.2 588.802 1468.8 Q588.223 1469.47 585.121 1472.69 Q582.02 1475.88 576.372 1481.64 Z" fill="#000000" fill-rule="nonzero" fill-opacity="1" /><path clip-path="url(#clip510)" d="M1027.49 1455.09 L1015.68 1473.54 L1027.49 1473.54 L1027.49 1455.09 M1026.26 1451.02 L1032.14 1451.02 L1032.14 1473.54 L1037.07 1473.54 L1037.07 1477.43 L1032.14 1477.43 L1032.14 1485.58 L1027.49 1485.58 L1027.49 1477.43 L1011.89 1477.43 L1011.89 1472.92 L1026.26 1451.02 Z" fill="#000000" fill-rule="nonzero" fill-opacity="1" /><path clip-path="url(#clip510)" d="M1467.64 1466.44 Q1464.49 1466.44 1462.64 1468.59 Q1460.81 1470.74 1460.81 1474.49 Q1460.81 1478.22 1462.64 1480.39 Q1464.49 1482.55 1467.64 1482.55 Q1470.79 1482.55 1472.62 1480.39 Q1474.47 1478.22 1474.47 1474.49 Q1474.47 1470.74 1472.62 1468.59 Q1470.79 1466.44 1467.64 1466.44 M1476.92 1451.78 L1476.92 1456.04 Q1475.17 1455.21 1473.36 1454.77 Q1471.58 1454.33 1469.82 1454.33 Q1465.19 1454.33 1462.74 1457.45 Q1460.3 1460.58 1459.96 1466.9 Q1461.32 1464.89 1463.38 1463.82 Q1465.44 1462.73 1467.92 1462.73 Q1473.13 1462.73 1476.14 1465.9 Q1479.17 1469.05 1479.17 1474.49 Q1479.17 1479.82 1476.02 1483.03 Q1472.87 1486.25 1467.64 1486.25 Q1461.65 1486.25 1458.48 1481.67 Q1455.3 1477.06 1455.3 1468.33 Q1455.3 1460.14 1459.19 1455.28 Q1463.08 1450.39 1469.63 1450.39 Q1471.39 1450.39 1473.17 1450.74 Q1474.98 1451.09 1476.92 1451.78 Z" fill="#000000" fill-rule="nonzero" fill-opacity="1" /><path clip-path="url(#clip510)" d="M1910 1469.17 Q1906.66 1469.17 1904.74 1470.95 Q1902.84 1472.73 1902.84 1475.86 Q1902.84 1478.98 1904.74 1480.77 Q1906.66 1482.55 1910 1482.55 Q1913.33 1482.55 1915.25 1480.77 Q1917.17 1478.96 1917.17 1475.86 Q1917.17 1472.73 1915.25 1470.95 Q1913.35 1469.17 1910 1469.17 M1905.32 1467.18 Q1902.31 1466.44 1900.62 1464.38 Q1898.96 1462.32 1898.96 1459.35 Q1898.96 1455.21 1901.89 1452.8 Q1904.86 1450.39 1910 1450.39 Q1915.16 1450.39 1918.1 1452.8 Q1921.04 1455.21 1921.04 1459.35 Q1921.04 1462.32 1919.35 1464.38 Q1917.68 1466.44 1914.7 1467.18 Q1918.08 1467.96 1919.95 1470.26 Q1921.85 1472.55 1921.85 1475.86 Q1921.85 1480.88 1918.77 1483.57 Q1915.71 1486.25 1910 1486.25 Q1904.28 1486.25 1901.2 1483.57 Q1898.14 1480.88 1898.14 1475.86 Q1898.14 1472.55 1900.04 1470.26 Q1901.94 1467.96 1905.32 1467.18 M1903.61 1459.79 Q1903.61 1462.48 1905.27 1463.98 Q1906.96 1465.49 1910 1465.49 Q1913.01 1465.49 1914.7 1463.98 Q1916.41 1462.48 1916.41 1459.79 Q1916.41 1457.11 1914.7 1455.6 Q1913.01 1454.1 1910 1454.1 Q1906.96 1454.1 1905.27 1455.6 Q1903.61 1457.11 1903.61 1459.79 Z" fill="#000000" fill-rule="nonzero" fill-opacity="1" /><path clip-path="url(#clip510)" d="M2327.44 1481.64 L2335.08 1481.64 L2335.08 1455.28 L2326.77 1456.95 L2326.77 1452.69 L2335.04 1451.02 L2339.71 1451.02 L2339.71 1481.64 L2347.35 1481.64 L2347.35 1485.58 L2327.44 1485.58 L2327.44 1481.64 Z" fill="#000000" fill-rule="nonzero" fill-opacity="1" /><path clip-path="url(#clip510)" d="M2366.8 1454.1 Q2363.18 1454.1 2361.36 1457.66 Q2359.55 1461.2 2359.55 1468.33 Q2359.55 1475.44 2361.36 1479.01 Q2363.18 1482.55 2366.8 1482.55 Q2370.43 1482.55 2372.23 1479.01 Q2374.06 1475.44 2374.06 1468.33 Q2374.06 1461.2 2372.23 1457.66 Q2370.43 1454.1 2366.8 1454.1 M2366.8 1450.39 Q2372.61 1450.39 2375.66 1455 Q2378.74 1459.58 2378.74 1468.33 Q2378.74 1477.06 2375.66 1481.67 Q2372.61 1486.25 2366.8 1486.25 Q2360.99 1486.25 2357.91 1481.67 Q2354.85 1477.06 2354.85 1468.33 Q2354.85 1459.58 2357.91 1455 Q2360.99 1450.39 2366.8 1450.39 Z" fill="#000000" fill-rule="nonzero" fill-opacity="1" /><path clip-path="url(#clip510)" d="M1244.92 1522.27 L1244.92 1532.4 L1256.98 1532.4 L1256.98 1536.95 L1244.92 1536.95 L1244.92 1556.3 Q1244.92 1560.66 1246.1 1561.9 Q1247.31 1563.14 1250.97 1563.14 L1256.98 1563.14 L1256.98 1568.04 L1250.97 1568.04 Q1244.19 1568.04 1241.61 1565.53 Q1239.03 1562.98 1239.03 1556.3 L1239.03 1536.95 L1234.73 1536.95 L1234.73 1532.4 L1239.03 1532.4 L1239.03 1522.27 L1244.92 1522.27 Z" fill="#000000" fill-rule="nonzero" fill-opacity="1" /><polyline clip-path="url(#clip510)" style="stroke:#000000; stroke-linecap:round; stroke-linejoin:round; stroke-width:4; stroke-opacity:1; fill:none" points="138.959,1423.18 138.959,47.2441 "/>
<polyline clip-path="url(#clip510)" style="stroke:#000000; stroke-linecap:round; stroke-linejoin:round; stroke-width:4; stroke-opacity:1; fill:none" points="138.959,1384.24 157.857,1384.24 "/>
<polyline clip-path="url(#clip510)" style="stroke:#000000; stroke-linecap:round; stroke-linejoin:round; stroke-width:4; stroke-opacity:1; fill:none" points="138.959,1184.54 157.857,1184.54 "/>
<polyline clip-path="url(#clip510)" style="stroke:#000000; stroke-linecap:round; stroke-linejoin:round; stroke-width:4; stroke-opacity:1; fill:none" points="138.959,984.837 157.857,984.837 "/>
<polyline clip-path="url(#clip510)" style="stroke:#000000; stroke-linecap:round; stroke-linejoin:round; stroke-width:4; stroke-opacity:1; fill:none" points="138.959,785.137 157.857,785.137 "/>
<polyline clip-path="url(#clip510)" style="stroke:#000000; stroke-linecap:round; stroke-linejoin:round; stroke-width:4; stroke-opacity:1; fill:none" points="138.959,585.437 157.857,585.437 "/>
<polyline clip-path="url(#clip510)" style="stroke:#000000; stroke-linecap:round; stroke-linejoin:round; stroke-width:4; stroke-opacity:1; fill:none" points="138.959,385.736 157.857,385.736 "/>
<polyline clip-path="url(#clip510)" style="stroke:#000000; stroke-linecap:round; stroke-linejoin:round; stroke-width:4; stroke-opacity:1; fill:none" points="138.959,186.036 157.857,186.036 "/>
<path clip-path="url(#clip510)" d="M91.0151 1370.04 Q87.404 1370.04 85.5753 1373.6 Q83.7697 1377.14 83.7697 1384.27 Q83.7697 1391.38 85.5753 1394.94 Q87.404 1398.49 91.0151 1398.49 Q94.6493 1398.49 96.4548 1394.94 Q98.2835 1391.38 98.2835 1384.27 Q98.2835 1377.14 96.4548 1373.6 Q94.6493 1370.04 91.0151 1370.04 M91.0151 1366.33 Q96.8252 1366.33 99.8808 1370.94 Q102.959 1375.52 102.959 1384.27 Q102.959 1393 99.8808 1397.61 Q96.8252 1402.19 91.0151 1402.19 Q85.2049 1402.19 82.1262 1397.61 Q79.0707 1393 79.0707 1384.27 Q79.0707 1375.52 82.1262 1370.94 Q85.2049 1366.33 91.0151 1366.33 Z" fill="#000000" fill-rule="nonzero" fill-opacity="1" /><path clip-path="url(#clip510)" d="M86.6401 1197.88 L102.959 1197.88 L102.959 1201.82 L81.0151 1201.82 L81.0151 1197.88 Q83.6771 1195.13 88.2604 1190.5 Q92.8669 1185.85 94.0475 1184.5 Q96.2928 1181.98 97.1724 1180.24 Q98.0752 1178.48 98.0752 1176.79 Q98.0752 1174.04 96.1308 1172.3 Q94.2095 1170.57 91.1077 1170.57 Q88.9086 1170.57 86.4549 1171.33 Q84.0244 1172.1 81.2466 1173.65 L81.2466 1168.92 Q84.0707 1167.79 86.5243 1167.21 Q88.978 1166.63 91.0151 1166.63 Q96.3854 1166.63 99.5798 1169.32 Q102.774 1172 102.774 1176.49 Q102.774 1178.62 101.964 1180.54 Q101.177 1182.44 99.0706 1185.04 Q98.4919 1185.71 95.39 1188.92 Q92.2882 1192.12 86.6401 1197.88 Z" fill="#000000" fill-rule="nonzero" fill-opacity="1" /><path clip-path="url(#clip510)" d="M93.3762 971.632 L81.5707 990.08 L93.3762 990.08 L93.3762 971.632 M92.1493 967.557 L98.0289 967.557 L98.0289 990.08 L102.959 990.08 L102.959 993.969 L98.0289 993.969 L98.0289 1002.12 L93.3762 1002.12 L93.3762 993.969 L77.7744 993.969 L77.7744 989.455 L92.1493 967.557 Z" fill="#000000" fill-rule="nonzero" fill-opacity="1" /><path clip-path="url(#clip510)" d="M91.4317 783.274 Q88.2836 783.274 86.4318 785.426 Q84.6031 787.579 84.6031 791.329 Q84.6031 795.056 86.4318 797.232 Q88.2836 799.385 91.4317 799.385 Q94.5799 799.385 96.4085 797.232 Q98.2604 795.056 98.2604 791.329 Q98.2604 787.579 96.4085 785.426 Q94.5799 783.274 91.4317 783.274 M100.714 768.621 L100.714 772.88 Q98.9548 772.047 97.1493 771.607 Q95.3669 771.167 93.6076 771.167 Q88.978 771.167 86.5243 774.292 Q84.0938 777.417 83.7466 783.737 Q85.1123 781.723 87.1725 780.658 Q89.2327 779.57 91.7095 779.57 Q96.9178 779.57 99.927 782.741 Q102.959 785.889 102.959 791.329 Q102.959 796.653 99.8113 799.871 Q96.6632 803.088 91.4317 803.088 Q85.4364 803.088 82.2651 798.505 Q79.0938 793.899 79.0938 785.172 Q79.0938 776.977 82.9827 772.116 Q86.8716 767.232 93.4225 767.232 Q95.1817 767.232 96.9641 767.579 Q98.7696 767.927 100.714 768.621 Z" fill="#000000" fill-rule="nonzero" fill-opacity="1" /><path clip-path="url(#clip510)" d="M91.1077 586.305 Q87.7743 586.305 85.8531 588.087 Q83.9549 589.87 83.9549 592.994 Q83.9549 596.119 85.8531 597.902 Q87.7743 599.684 91.1077 599.684 Q94.441 599.684 96.3623 597.902 Q98.2835 596.096 98.2835 592.994 Q98.2835 589.87 96.3623 588.087 Q94.4641 586.305 91.1077 586.305 M86.4318 584.314 Q83.4225 583.573 81.7327 581.513 Q80.066 579.453 80.066 576.49 Q80.066 572.346 83.0058 569.939 Q85.9688 567.532 91.1077 567.532 Q96.2697 567.532 99.2095 569.939 Q102.149 572.346 102.149 576.49 Q102.149 579.453 100.459 581.513 Q98.7928 583.573 95.8067 584.314 Q99.1863 585.101 101.061 587.393 Q102.959 589.684 102.959 592.994 Q102.959 598.018 99.8808 600.703 Q96.8252 603.388 91.1077 603.388 Q85.3901 603.388 82.3114 600.703 Q79.2559 598.018 79.2559 592.994 Q79.2559 589.684 81.154 587.393 Q83.0521 585.101 86.4318 584.314 M84.7188 576.93 Q84.7188 579.615 86.3855 581.12 Q88.0753 582.624 91.1077 582.624 Q94.1169 582.624 95.8067 581.12 Q97.5197 579.615 97.5197 576.93 Q97.5197 574.245 95.8067 572.74 Q94.1169 571.235 91.1077 571.235 Q88.0753 571.235 86.3855 572.74 Q84.7188 574.245 84.7188 576.93 Z" fill="#000000" fill-rule="nonzero" fill-opacity="1" /><path clip-path="url(#clip510)" d="M51.6634 399.081 L59.3023 399.081 L59.3023 372.716 L50.9921 374.382 L50.9921 370.123 L59.256 368.456 L63.9319 368.456 L63.9319 399.081 L71.5707 399.081 L71.5707 403.016 L51.6634 403.016 L51.6634 399.081 Z" fill="#000000" fill-rule="nonzero" fill-opacity="1" /><path clip-path="url(#clip510)" d="M91.0151 371.535 Q87.404 371.535 85.5753 375.1 Q83.7697 378.641 83.7697 385.771 Q83.7697 392.877 85.5753 396.442 Q87.404 399.984 91.0151 399.984 Q94.6493 399.984 96.4548 396.442 Q98.2835 392.877 98.2835 385.771 Q98.2835 378.641 96.4548 375.1 Q94.6493 371.535 91.0151 371.535 M91.0151 367.831 Q96.8252 367.831 99.8808 372.438 Q102.959 377.021 102.959 385.771 Q102.959 394.498 99.8808 399.104 Q96.8252 403.688 91.0151 403.688 Q85.2049 403.688 82.1262 399.104 Q79.0707 394.498 79.0707 385.771 Q79.0707 377.021 82.1262 372.438 Q85.2049 367.831 91.0151 367.831 Z" fill="#000000" fill-rule="nonzero" fill-opacity="1" /><path clip-path="url(#clip510)" d="M53.2606 199.381 L60.8995 199.381 L60.8995 173.015 L52.5893 174.682 L52.5893 170.423 L60.8532 168.756 L65.5291 168.756 L65.5291 199.381 L73.1679 199.381 L73.1679 203.316 L53.2606 203.316 L53.2606 199.381 Z" fill="#000000" fill-rule="nonzero" fill-opacity="1" /><path clip-path="url(#clip510)" d="M86.6401 199.381 L102.959 199.381 L102.959 203.316 L81.0151 203.316 L81.0151 199.381 Q83.6771 196.626 88.2604 191.996 Q92.8669 187.344 94.0475 186.001 Q96.2928 183.478 97.1724 181.742 Q98.0752 179.983 98.0752 178.293 Q98.0752 175.538 96.1308 173.802 Q94.2095 172.066 91.1077 172.066 Q88.9086 172.066 86.4549 172.83 Q84.0244 173.594 81.2466 175.145 L81.2466 170.423 Q84.0707 169.288 86.5243 168.71 Q88.978 168.131 91.0151 168.131 Q96.3854 168.131 99.5798 170.816 Q102.774 173.501 102.774 177.992 Q102.774 180.122 101.964 182.043 Q101.177 183.941 99.0706 186.534 Q98.4919 187.205 95.39 190.422 Q92.2882 193.617 86.6401 199.381 Z" fill="#000000" fill-rule="nonzero" fill-opacity="1" /><polyline clip-path="url(#clip511)" style="stroke:#009af9; stroke-linecap:round; stroke-linejoin:round; stroke-width:8; stroke-opacity:1; fill:none" points="138.959,1384.24 141.175,1384.24 143.391,1384.24 145.607,1384.24 147.823,1384.24 150.04,1384.24 152.256,1384.24 154.472,1384.24 156.688,1384.24 158.904,1384.24 161.12,1384.24 163.336,1384.24 165.552,1384.24 167.768,1384.24 169.984,1384.24 172.2,1384.24 174.416,1384.24 176.632,1384.24 178.848,1384.24 181.064,1384.24 183.28,1384.24 185.496,1384.24 187.712,1384.24 189.928,1384.24 192.144,1384.24 194.36,1384.24 196.576,1384.24 198.792,1384.24 201.008,1384.24 203.224,1384.24 205.44,1384.24 207.656,1384.24 209.872,1384.24 212.088,1384.24 214.304,1384.24 216.52,1384.24 218.736,1384.24 220.952,1384.24 223.168,1384.24 225.384,1384.24 227.6,1384.24 229.816,1384.24 232.032,1384.24 234.248,1384.24 236.464,1384.24 238.68,1384.24 240.896,1384.24 243.112,1384.24 245.328,1384.24 247.544,1384.24 249.76,1384.24 251.976,1384.24 254.192,1384.24 256.408,1384.24 258.624,1384.24 260.84,1384.24 263.056,1384.24 265.272,1384.24 267.488,1384.24 269.704,1384.24 271.92,1284.39 274.136,1284.39 276.352,1284.39 278.568,1284.39 280.784,1284.39 283,1284.39 285.216,1284.39 287.432,1284.39 289.648,1284.39 291.864,1284.39 294.08,1284.39 296.296,1284.39 298.512,1284.39 300.728,1284.39 302.944,1284.39 305.16,1284.39 307.376,1284.39 309.592,1284.39 311.808,1284.39 314.024,1284.39 316.24,1284.39 318.456,1284.39 320.672,1284.39 322.888,1284.39 325.104,1384.24 327.321,1384.24 329.537,1284.39 331.753,1284.39 333.969,1284.39 336.185,1284.39 338.401,1284.39 340.617,1284.39 342.833,1284.39 345.049,1284.39 347.265,1284.39 349.481,1284.39 351.697,1284.39 353.913,1284.39 356.129,1284.39 358.345,1284.39 360.561,1284.39 362.777,1284.39 364.993,1284.39 367.209,1284.39 369.425,1284.39 371.641,1284.39 373.857,1284.39 376.073,1284.39 378.289,1284.39 380.505,1284.39 382.721,1284.39 384.937,1184.54 387.153,1184.54 389.369,1184.54 391.585,1184.54 393.801,1184.54 396.017,1184.54 398.233,1184.54 400.449,1284.39 402.665,1284.39 404.881,1284.39 407.097,1284.39 409.313,1284.39 411.529,1284.39 413.745,1284.39 415.961,1284.39 418.177,1284.39 420.393,1284.39 422.609,1284.39 424.825,1284.39 427.041,1284.39 429.257,1284.39 431.473,1284.39 433.689,1284.39 435.905,1284.39 438.121,1284.39 440.337,1284.39 442.553,1284.39 444.769,1284.39 446.985,1284.39 449.201,1284.39 451.417,1284.39 453.633,1284.39 455.849,1284.39 458.065,1284.39 460.281,1284.39 462.497,1284.39 464.713,1284.39 466.929,1284.39 469.145,1284.39 471.361,1284.39 473.577,1284.39 475.793,1284.39 478.009,1284.39 480.225,1284.39 482.441,1284.39 484.657,1284.39 486.873,1284.39 489.089,1284.39 491.305,1284.39 493.521,1284.39 495.737,1284.39 497.953,1284.39 500.169,1284.39 502.385,1284.39 504.601,1284.39 506.818,1284.39 509.034,1284.39 511.25,1284.39 513.466,1284.39 515.682,1284.39 517.898,1284.39 520.114,1284.39 522.33,1284.39 524.546,1284.39 526.762,1284.39 528.978,1284.39 531.194,1284.39 533.41,1284.39 535.626,1284.39 537.842,1384.24 540.058,1384.24 542.274,1284.39 544.49,1284.39 546.706,1284.39 548.922,1284.39 551.138,1284.39 553.354,1284.39 555.57,1284.39 557.786,1284.39 560.002,1284.39 562.218,1284.39 564.434,1284.39 566.65,1284.39 568.866,1284.39 571.082,1284.39 573.298,1284.39 575.514,1284.39 577.73,1284.39 579.946,1284.39 582.162,1284.39 584.378,1284.39 586.594,1284.39 588.81,1284.39 591.026,1284.39 593.242,1284.39 595.458,1284.39 597.674,1284.39 599.89,1284.39 602.106,1284.39 604.322,1284.39 606.538,1284.39 608.754,1284.39 610.97,1284.39 613.186,1384.24 615.402,1384.24 617.618,1384.24 619.834,1384.24 622.05,1384.24 624.266,1384.24 626.482,1384.24 628.698,1384.24 630.914,1384.24 633.13,1384.24 635.346,1384.24 637.562,1384.24 639.778,1384.24 641.994,1384.24 644.21,1384.24 646.426,1384.24 648.642,1384.24 650.858,1384.24 653.074,1384.24 655.29,1384.24 657.506,1384.24 659.722,1384.24 661.938,1384.24 664.154,1384.24 666.37,1384.24 668.586,1384.24 670.802,1384.24 673.018,1384.24 675.234,1384.24 677.45,1384.24 679.666,1384.24 681.882,1384.24 684.099,1384.24 686.315,1384.24 688.531,1384.24 690.747,1384.24 692.963,1384.24 695.179,1384.24 697.395,1384.24 699.611,1384.24 701.827,1384.24 704.043,1384.24 706.259,1384.24 708.475,1384.24 710.691,1384.24 712.907,1384.24 715.123,1384.24 717.339,1384.24 719.555,1384.24 721.771,1384.24 723.987,1384.24 726.203,1384.24 728.419,1384.24 730.635,1384.24 732.851,1384.24 735.067,1384.24 737.283,1384.24 739.499,1384.24 741.715,1384.24 743.931,1384.24 746.147,1384.24 748.363,1384.24 750.579,1384.24 752.795,1384.24 755.011,1384.24 757.227,1384.24 759.443,1384.24 761.659,1384.24 763.875,1384.24 766.091,1384.24 768.307,1384.24 770.523,1384.24 772.739,1384.24 774.955,1384.24 777.171,1384.24 779.387,1384.24 781.603,1384.24 783.819,1384.24 786.035,1384.24 788.251,1384.24 790.467,1384.24 792.683,1384.24 794.899,1384.24 797.115,1384.24 799.331,1384.24 801.547,1384.24 803.763,1384.24 805.979,1384.24 808.195,1384.24 810.411,1384.24 812.627,1384.24 814.843,1384.24 817.059,1384.24 819.275,1384.24 821.491,1384.24 823.707,1384.24 825.923,1384.24 828.139,1384.24 830.355,1384.24 832.571,1384.24 834.787,1384.24 837.003,1384.24 839.219,1384.24 841.435,1384.24 843.651,1384.24 845.867,1384.24 848.083,1384.24 850.299,1384.24 852.515,1384.24 854.731,1384.24 856.947,1384.24 859.163,1384.24 861.38,1384.24 863.596,1384.24 865.812,1384.24 868.028,1384.24 870.244,1384.24 872.46,1384.24 874.676,1384.24 876.892,1384.24 879.108,1384.24 881.324,1384.24 883.54,1384.24 885.756,1384.24 887.972,1384.24 890.188,1384.24 892.404,1384.24 894.62,1384.24 896.836,1384.24 899.052,1384.24 901.268,1384.24 903.484,1384.24 905.7,1384.24 907.916,1384.24 910.132,1384.24 912.348,1384.24 914.564,1384.24 916.78,1384.24 918.996,1384.24 921.212,1384.24 923.428,1384.24 925.644,1384.24 927.86,1384.24 930.076,1384.24 932.292,1384.24 934.508,1384.24 936.724,1384.24 938.94,1384.24 941.156,1384.24 943.372,1384.24 945.588,1384.24 947.804,1384.24 950.02,1384.24 952.236,1384.24 954.452,1384.24 956.668,1384.24 958.884,1384.24 961.1,1384.24 963.316,1384.24 965.532,1384.24 967.748,1384.24 969.964,1384.24 972.18,1384.24 974.396,1384.24 976.612,1384.24 978.828,1384.24 981.044,1384.24 983.26,1384.24 985.476,1384.24 987.692,1384.24 989.908,1384.24 992.124,1384.24 994.34,1384.24 996.556,1384.24 998.772,1384.24 1000.99,1384.24 1003.2,1384.24 1005.42,1384.24 1007.64,1384.24 1009.85,1384.24 1012.07,1384.24 1014.28,1384.24 1016.5,1384.24 1018.72,1384.24 1020.93,1384.24 1023.15,1384.24 1025.36,1384.24 1027.58,1384.24 1029.8,1384.24 1032.01,1384.24 1034.23,1384.24 1036.44,1384.24 1038.66,1384.24 1040.88,1384.24 1043.09,1384.24 1045.31,1384.24 1047.52,1384.24 1049.74,1384.24 1051.96,1384.24 1054.17,1384.24 1056.39,1384.24 1058.6,1384.24 1060.82,1384.24 1063.04,1384.24 1065.25,1384.24 1067.47,1384.24 1069.68,1384.24 1071.9,1384.24 1074.12,1384.24 1076.33,1384.24 1078.55,1384.24 1080.76,1384.24 1082.98,1384.24 1085.2,1384.24 1087.41,1384.24 1089.63,1384.24 1091.84,1384.24 1094.06,1384.24 1096.28,1384.24 1098.49,1384.24 1100.71,1384.24 1102.92,1384.24 1105.14,1384.24 1107.36,1384.24 1109.57,1384.24 1111.79,1384.24 1114,1384.24 1116.22,1384.24 1118.44,1384.24 1120.65,1384.24 1122.87,1384.24 1125.08,1384.24 1127.3,1384.24 1129.52,1384.24 1131.73,1384.24 1133.95,1384.24 1136.17,1384.24 1138.38,1384.24 1140.6,1384.24 1142.81,1384.24 1145.03,1384.24 1147.25,1384.24 1149.46,1384.24 1151.68,1384.24 1153.89,1384.24 1156.11,1384.24 1158.33,1384.24 1160.54,1384.24 1162.76,1384.24 1164.97,1384.24 1167.19,1384.24 1169.41,1384.24 1171.62,1384.24 1173.84,1384.24 1176.05,1384.24 1178.27,1384.24 1180.49,1384.24 1182.7,1384.24 1184.92,1384.24 1187.13,1284.39 1189.35,1284.39 1191.57,1284.39 1193.78,1284.39 1196,1284.39 1198.21,1284.39 1200.43,1284.39 1202.65,1284.39 1204.86,1284.39 1207.08,1284.39 1209.29,1284.39 1211.51,1284.39 1213.73,1284.39 1215.94,1284.39 1218.16,1284.39 1220.37,1284.39 1222.59,1284.39 1224.81,1284.39 1227.02,1284.39 1229.24,1284.39 1231.45,1284.39 1233.67,1284.39 1235.89,1284.39 1238.1,1284.39 1240.32,1284.39 1242.53,1284.39 1244.75,1284.39 1246.97,1284.39 1249.18,1284.39 1251.4,1284.39 1253.61,1284.39 1255.83,1284.39 1258.05,1284.39 1260.26,1284.39 1262.48,1184.54 1264.69,1184.54 1266.91,1184.54 1269.13,1184.54 1271.34,1184.54 1273.56,1184.54 1275.77,1184.54 1277.99,1184.54 1280.21,1184.54 1282.42,1184.54 1284.64,1184.54 1286.85,1184.54 1289.07,1184.54 1291.29,1184.54 1293.5,1184.54 1295.72,1184.54 1297.93,1184.54 1300.15,1284.39 1302.37,1284.39 1304.58,1284.39 1306.8,1284.39 1309.01,1284.39 1311.23,1184.54 1313.45,1284.39 1315.66,1284.39 1317.88,1284.39 1320.09,1284.39 1322.31,1284.39 1324.53,1284.39 1326.74,1384.24 1328.96,1384.24 1331.17,1384.24 1333.39,1384.24 1335.61,1384.24 1337.82,1384.24 1340.04,1384.24 1342.25,1384.24 1344.47,1384.24 1346.69,1384.24 1348.9,1384.24 1351.12,1384.24 1353.33,1384.24 1355.55,1384.24 1357.77,1384.24 1359.98,1384.24 1362.2,1384.24 1364.41,1384.24 1366.63,1384.24 1368.85,1384.24 1371.06,1384.24 1373.28,1384.24 1375.49,1384.24 1377.71,1384.24 1379.93,1384.24 1382.14,1384.24 1384.36,1384.24 1386.57,1384.24 1388.79,1384.24 1391.01,1384.24 1393.22,1384.24 1395.44,1384.24 1397.65,1384.24 1399.87,1384.24 1402.09,1384.24 1404.3,1384.24 1406.52,1384.24 1408.73,1384.24 1410.95,1384.24 1413.17,1384.24 1415.38,1384.24 1417.6,1284.39 1419.81,1284.39 1422.03,1284.39 1424.25,1284.39 1426.46,1284.39 1428.68,1284.39 1430.89,1284.39 1433.11,1284.39 1435.33,1284.39 1437.54,1284.39 1439.76,1284.39 1441.97,1284.39 1444.19,1284.39 1446.41,1284.39 1448.62,1284.39 1450.84,1284.39 1453.05,1284.39 1455.27,1284.39 1457.49,1284.39 1459.7,1284.39 1461.92,1284.39 1464.13,1384.24 1466.35,1384.24 1468.57,1384.24 1470.78,1384.24 1473,1384.24 1475.21,1384.24 1477.43,1384.24 1479.65,1384.24 1481.86,1384.24 1484.08,1384.24 1486.3,1384.24 1488.51,1384.24 1490.73,1384.24 1492.94,1384.24 1495.16,1384.24 1497.38,1384.24 1499.59,1384.24 1501.81,1384.24 1504.02,1384.24 1506.24,1384.24 1508.46,1384.24 1510.67,1384.24 1512.89,1384.24 1515.1,1384.24 1517.32,1384.24 1519.54,1384.24 1521.75,1384.24 1523.97,1384.24 1526.18,1384.24 1528.4,1384.24 1530.62,1384.24 1532.83,1384.24 1535.05,1384.24 1537.26,1384.24 1539.48,1384.24 1541.7,1384.24 1543.91,1384.24 1546.13,1384.24 1548.34,1384.24 1550.56,1384.24 1552.78,1384.24 1554.99,1384.24 1557.21,1384.24 1559.42,1384.24 1561.64,1384.24 1563.86,1384.24 1566.07,1384.24 1568.29,1384.24 1570.5,1384.24 1572.72,1384.24 1574.94,1384.24 1577.15,1384.24 1579.37,1384.24 1581.58,1384.24 1583.8,1384.24 1586.02,1384.24 1588.23,1384.24 1590.45,1384.24 1592.66,1384.24 1594.88,1384.24 1597.1,1384.24 1599.31,1384.24 1601.53,1384.24 1603.74,1384.24 1605.96,1384.24 1608.18,1384.24 1610.39,1384.24 1612.61,1384.24 1614.82,1384.24 1617.04,1384.24 1619.26,1384.24 1621.47,1384.24 1623.69,1384.24 1625.9,1384.24 1628.12,1384.24 1630.34,1384.24 1632.55,1384.24 1634.77,1384.24 1636.98,1384.24 1639.2,1384.24 1641.42,1384.24 1643.63,1384.24 1645.85,1384.24 1648.06,1384.24 1650.28,1384.24 1652.5,1384.24 1654.71,1384.24 1656.93,1384.24 1659.14,1384.24 1661.36,1384.24 1663.58,1384.24 1665.79,1384.24 1668.01,1384.24 1670.22,1384.24 1672.44,1384.24 1674.66,1384.24 1676.87,1384.24 1679.09,1384.24 1681.3,1384.24 1683.52,1384.24 1685.74,1384.24 1687.95,1384.24 1690.17,1384.24 1692.38,1384.24 1694.6,1384.24 1696.82,1384.24 1699.03,1384.24 1701.25,1384.24 1703.46,1384.24 1705.68,1384.24 1707.9,1384.24 1710.11,1384.24 1712.33,1384.24 1714.54,1384.24 1716.76,1384.24 1718.98,1384.24 1721.19,1384.24 1723.41,1384.24 1725.62,1384.24 1727.84,1384.24 1730.06,1384.24 1732.27,1384.24 1734.49,1384.24 1736.7,1384.24 1738.92,1384.24 1741.14,1384.24 1743.35,1384.24 1745.57,1384.24 1747.78,1384.24 1750,1384.24 1752.22,1384.24 1754.43,1384.24 1756.65,1384.24 1758.86,1384.24 1761.08,1384.24 1763.3,1384.24 1765.51,1384.24 1767.73,1384.24 1769.94,1384.24 1772.16,1384.24 1774.38,1384.24 1776.59,1384.24 1778.81,1384.24 1781.02,1384.24 1783.24,1384.24 1785.46,1384.24 1787.67,1384.24 1789.89,1384.24 1792.1,1384.24 1794.32,1384.24 1796.54,1384.24 1798.75,1384.24 1800.97,1384.24 1803.18,1384.24 1805.4,1384.24 1807.62,1384.24 1809.83,1384.24 1812.05,1384.24 1814.26,1384.24 1816.48,1384.24 1818.7,1384.24 1820.91,1384.24 1823.13,1384.24 1825.34,1384.24 1827.56,1384.24 1829.78,1384.24 1831.99,1384.24 1834.21,1384.24 1836.42,1384.24 1838.64,1384.24 1840.86,1384.24 1843.07,1384.24 1845.29,1384.24 1847.51,1384.24 1849.72,1384.24 1851.94,1384.24 1854.15,1384.24 1856.37,1384.24 1858.59,1384.24 1860.8,1384.24 1863.02,1384.24 1865.23,1384.24 1867.45,1384.24 1869.67,1384.24 1871.88,1384.24 1874.1,1384.24 1876.31,1384.24 1878.53,1384.24 1880.75,1284.39 1882.96,1284.39 1885.18,1284.39 1887.39,1284.39 1889.61,1284.39 1891.83,1284.39 1894.04,1284.39 1896.26,1284.39 1898.47,1284.39 1900.69,1284.39 1902.91,1284.39 1905.12,1284.39 1907.34,1284.39 1909.55,1284.39 1911.77,1284.39 1913.99,1284.39 1916.2,1284.39 1918.42,1284.39 1920.63,1384.24 1922.85,1384.24 1925.07,1384.24 1927.28,1384.24 1929.5,1384.24 1931.71,1384.24 1933.93,1384.24 1936.15,1384.24 1938.36,1384.24 1940.58,1384.24 1942.79,1384.24 1945.01,1384.24 1947.23,1384.24 1949.44,1384.24 1951.66,1384.24 1953.87,1384.24 1956.09,1384.24 1958.31,1384.24 1960.52,1384.24 1962.74,1384.24 1964.95,1384.24 1967.17,1384.24 1969.39,1384.24 1971.6,1384.24 1973.82,1384.24 1976.03,1384.24 1978.25,1384.24 1980.47,1384.24 1982.68,1384.24 1984.9,1384.24 1987.11,1384.24 1989.33,1384.24 1991.55,1384.24 1993.76,1384.24 1995.98,1384.24 1998.19,1384.24 2000.41,1384.24 2002.63,1284.39 2004.84,1284.39 2007.06,1284.39 2009.27,1284.39 2011.49,1284.39 2013.71,1184.54 2015.92,1184.54 2018.14,1184.54 2020.35,1184.54 2022.57,1184.54 2024.79,1184.54 2027,1184.54 2029.22,1184.54 2031.43,1184.54 2033.65,1184.54 2035.87,1184.54 2038.08,1184.54 2040.3,1184.54 2042.51,1184.54 2044.73,1084.69 2046.95,1084.69 2049.16,1084.69 2051.38,1084.69 2053.59,1084.69 2055.81,1084.69 2058.03,1084.69 2060.24,1184.54 2062.46,1184.54 2064.67,1184.54 2066.89,1184.54 2069.11,1184.54 2071.32,1184.54 2073.54,1184.54 2075.75,1184.54 2077.97,1184.54 2080.19,1184.54 2082.4,1184.54 2084.62,1184.54 2086.83,1184.54 2089.05,1184.54 2091.27,1184.54 2093.48,1184.54 2095.7,1184.54 2097.91,1184.54 2100.13,1184.54 2102.35,1184.54 2104.56,1184.54 2106.78,1284.39 2108.99,1284.39 2111.21,1284.39 2113.43,1284.39 2115.64,1284.39 2117.86,1284.39 2120.07,1284.39 2122.29,1384.24 2124.51,1384.24 2126.72,1384.24 2128.94,1384.24 2131.15,1384.24 2133.37,1384.24 2135.59,1384.24 2137.8,1384.24 2140.02,1384.24 2142.23,1384.24 2144.45,1384.24 2146.67,1384.24 2148.88,1384.24 2151.1,1384.24 2153.31,1384.24 2155.53,1384.24 2157.75,1384.24 2159.96,1384.24 2162.18,1384.24 2164.39,1384.24 2166.61,1384.24 2168.83,1384.24 2171.04,1384.24 2173.26,1384.24 2175.47,1384.24 2177.69,1384.24 2179.91,1384.24 2182.12,1384.24 2184.34,1384.24 2186.55,1384.24 2188.77,1384.24 2190.99,1384.24 2193.2,1384.24 2195.42,1384.24 2197.64,1384.24 2199.85,1384.24 2202.07,1384.24 2204.28,1384.24 2206.5,1284.39 2208.72,1284.39 2210.93,1284.39 2213.15,1284.39 2215.36,1284.39 2217.58,1284.39 2219.8,1284.39 2222.01,1284.39 2224.23,1284.39 2226.44,1384.24 2228.66,1284.39 2230.88,1284.39 2233.09,1284.39 2235.31,1284.39 2237.52,1284.39 2239.74,1284.39 2241.96,1284.39 2244.17,1284.39 2246.39,1284.39 2248.6,1284.39 2250.82,1284.39 2253.04,1284.39 2255.25,1284.39 2257.47,1284.39 2259.68,1284.39 2261.9,1284.39 2264.12,1284.39 2266.33,1284.39 2268.55,1284.39 2270.76,1284.39 2272.98,1284.39 2275.2,1284.39 2277.41,1284.39 2279.63,1284.39 2281.84,1284.39 2284.06,1284.39 2286.28,1284.39 2288.49,1284.39 2290.71,1284.39 2292.92,1284.39 2295.14,1284.39 2297.36,1284.39 2299.57,1284.39 2301.79,1284.39 2304,1284.39 2306.22,1284.39 2308.44,1284.39 2310.65,1284.39 2312.87,1284.39 2315.08,1284.39 2317.3,1284.39 2319.52,1284.39 2321.73,1284.39 2323.95,1284.39 2326.16,1284.39 2328.38,1284.39 2330.6,1284.39 2332.81,1284.39 2335.03,1284.39 2337.24,1284.39 2339.46,1284.39 2341.68,1284.39 2343.89,1284.39 2346.11,1284.39 2348.32,1284.39 2350.54,1284.39 2352.76,1284.39 "/>
<polyline clip-path="url(#clip511)" style="stroke:#e26f46; stroke-linecap:round; stroke-linejoin:round; stroke-width:8; stroke-opacity:1; fill:none" points="138.959,1384.24 141.175,1384.24 143.391,1384.24 145.607,1384.24 147.823,1384.24 150.04,1384.24 152.256,1384.24 154.472,1384.24 156.688,1384.24 158.904,1384.24 161.12,1384.24 163.336,1384.24 165.552,1384.24 167.768,1384.24 169.984,1384.24 172.2,1384.24 174.416,1384.24 176.632,1384.24 178.848,1384.24 181.064,1384.24 183.28,1384.24 185.496,1384.24 187.712,1384.24 189.928,1384.24 192.144,1384.24 194.36,1384.24 196.576,1384.24 198.792,1384.24 201.008,1384.24 203.224,1384.24 205.44,1384.24 207.656,1384.24 209.872,1384.24 212.088,1384.24 214.304,1384.24 216.52,1384.24 218.736,1384.24 220.952,1384.24 223.168,1384.24 225.384,1384.24 227.6,1384.24 229.816,1384.24 232.032,1384.24 234.248,1384.24 236.464,1384.24 238.68,1384.24 240.896,1384.24 243.112,1384.24 245.328,1384.24 247.544,1384.24 249.76,1384.24 251.976,1384.24 254.192,1384.24 256.408,1384.24 258.624,1384.24 260.84,1384.24 263.056,1384.24 265.272,1384.24 267.488,1384.24 269.704,1384.24 271.92,1384.24 274.136,1384.24 276.352,1384.24 278.568,1384.24 280.784,1384.24 283,1384.24 285.216,1384.24 287.432,1384.24 289.648,1384.24 291.864,1384.24 294.08,1384.24 296.296,1384.24 298.512,1384.24 300.728,1384.24 302.944,1384.24 305.16,1384.24 307.376,1384.24 309.592,1384.24 311.808,1384.24 314.024,1384.24 316.24,1384.24 318.456,1384.24 320.672,1384.24 322.888,1384.24 325.104,1284.39 327.321,1284.39 329.537,1284.39 331.753,1284.39 333.969,1284.39 336.185,1284.39 338.401,1284.39 340.617,1284.39 342.833,1284.39 345.049,1284.39 347.265,1284.39 349.481,1284.39 351.697,1284.39 353.913,1284.39 356.129,1284.39 358.345,1284.39 360.561,1284.39 362.777,1284.39 364.993,1284.39 367.209,1284.39 369.425,1284.39 371.641,1284.39 373.857,1284.39 376.073,1284.39 378.289,1284.39 380.505,1284.39 382.721,1284.39 384.937,1284.39 387.153,1284.39 389.369,1284.39 391.585,1284.39 393.801,1284.39 396.017,1284.39 398.233,1284.39 400.449,1184.54 402.665,1184.54 404.881,1184.54 407.097,1184.54 409.313,1184.54 411.529,1184.54 413.745,1184.54 415.961,1184.54 418.177,1184.54 420.393,1184.54 422.609,1184.54 424.825,1184.54 427.041,1184.54 429.257,1184.54 431.473,1184.54 433.689,1184.54 435.905,1184.54 438.121,1184.54 440.337,1184.54 442.553,1184.54 444.769,1184.54 446.985,1184.54 449.201,1184.54 451.417,1184.54 453.633,1184.54 455.849,1184.54 458.065,1184.54 460.281,1184.54 462.497,1184.54 464.713,1184.54 466.929,1184.54 469.145,1184.54 471.361,1184.54 473.577,1184.54 475.793,1184.54 478.009,1184.54 480.225,1184.54 482.441,1184.54 484.657,1184.54 486.873,1184.54 489.089,1184.54 491.305,1184.54 493.521,1184.54 495.737,1184.54 497.953,1184.54 500.169,1184.54 502.385,1184.54 504.601,1184.54 506.818,1184.54 509.034,1184.54 511.25,1184.54 513.466,1184.54 515.682,1184.54 517.898,1184.54 520.114,1184.54 522.33,1184.54 524.546,1184.54 526.762,1184.54 528.978,1184.54 531.194,1184.54 533.41,1184.54 535.626,1184.54 537.842,1084.69 540.058,1084.69 542.274,1084.69 544.49,1084.69 546.706,1084.69 548.922,1084.69 551.138,1084.69 553.354,1084.69 555.57,1084.69 557.786,1084.69 560.002,1084.69 562.218,1084.69 564.434,1084.69 566.65,1084.69 568.866,1084.69 571.082,1084.69 573.298,1084.69 575.514,1084.69 577.73,1084.69 579.946,1084.69 582.162,1084.69 584.378,1084.69 586.594,1084.69 588.81,1084.69 591.026,1084.69 593.242,1084.69 595.458,1084.69 597.674,1084.69 599.89,1084.69 602.106,1084.69 604.322,1084.69 606.538,1084.69 608.754,1084.69 610.97,1084.69 613.186,984.837 615.402,984.837 617.618,984.837 619.834,984.837 622.05,984.837 624.266,984.837 626.482,984.837 628.698,984.837 630.914,984.837 633.13,984.837 635.346,984.837 637.562,984.837 639.778,984.837 641.994,984.837 644.21,984.837 646.426,984.837 648.642,984.837 650.858,984.837 653.074,984.837 655.29,984.837 657.506,984.837 659.722,984.837 661.938,984.837 664.154,984.837 666.37,984.837 668.586,984.837 670.802,984.837 673.018,984.837 675.234,984.837 677.45,984.837 679.666,984.837 681.882,984.837 684.099,984.837 686.315,984.837 688.531,984.837 690.747,984.837 692.963,984.837 695.179,984.837 697.395,984.837 699.611,984.837 701.827,984.837 704.043,984.837 706.259,984.837 708.475,984.837 710.691,984.837 712.907,984.837 715.123,984.837 717.339,984.837 719.555,984.837 721.771,984.837 723.987,984.837 726.203,984.837 728.419,984.837 730.635,984.837 732.851,984.837 735.067,984.837 737.283,984.837 739.499,984.837 741.715,984.837 743.931,984.837 746.147,984.837 748.363,984.837 750.579,984.837 752.795,984.837 755.011,984.837 757.227,984.837 759.443,984.837 761.659,984.837 763.875,984.837 766.091,984.837 768.307,984.837 770.523,984.837 772.739,984.837 774.955,984.837 777.171,984.837 779.387,984.837 781.603,984.837 783.819,984.837 786.035,984.837 788.251,984.837 790.467,984.837 792.683,984.837 794.899,984.837 797.115,984.837 799.331,984.837 801.547,984.837 803.763,984.837 805.979,984.837 808.195,984.837 810.411,984.837 812.627,984.837 814.843,984.837 817.059,984.837 819.275,984.837 821.491,984.837 823.707,984.837 825.923,984.837 828.139,984.837 830.355,984.837 832.571,984.837 834.787,984.837 837.003,984.837 839.219,984.837 841.435,984.837 843.651,984.837 845.867,984.837 848.083,984.837 850.299,984.837 852.515,984.837 854.731,984.837 856.947,984.837 859.163,984.837 861.38,984.837 863.596,984.837 865.812,984.837 868.028,984.837 870.244,984.837 872.46,984.837 874.676,984.837 876.892,984.837 879.108,984.837 881.324,984.837 883.54,984.837 885.756,984.837 887.972,984.837 890.188,984.837 892.404,984.837 894.62,984.837 896.836,984.837 899.052,984.837 901.268,984.837 903.484,984.837 905.7,984.837 907.916,984.837 910.132,984.837 912.348,984.837 914.564,984.837 916.78,984.837 918.996,984.837 921.212,984.837 923.428,984.837 925.644,984.837 927.86,984.837 930.076,984.837 932.292,984.837 934.508,984.837 936.724,984.837 938.94,984.837 941.156,984.837 943.372,984.837 945.588,984.837 947.804,984.837 950.02,984.837 952.236,984.837 954.452,984.837 956.668,984.837 958.884,984.837 961.1,984.837 963.316,984.837 965.532,984.837 967.748,984.837 969.964,984.837 972.18,984.837 974.396,984.837 976.612,984.837 978.828,984.837 981.044,984.837 983.26,984.837 985.476,984.837 987.692,984.837 989.908,984.837 992.124,984.837 994.34,984.837 996.556,984.837 998.772,984.837 1000.99,984.837 1003.2,984.837 1005.42,984.837 1007.64,984.837 1009.85,984.837 1012.07,984.837 1014.28,984.837 1016.5,984.837 1018.72,984.837 1020.93,984.837 1023.15,984.837 1025.36,984.837 1027.58,984.837 1029.8,984.837 1032.01,984.837 1034.23,984.837 1036.44,984.837 1038.66,984.837 1040.88,984.837 1043.09,984.837 1045.31,984.837 1047.52,984.837 1049.74,984.837 1051.96,984.837 1054.17,984.837 1056.39,984.837 1058.6,984.837 1060.82,984.837 1063.04,984.837 1065.25,984.837 1067.47,984.837 1069.68,984.837 1071.9,984.837 1074.12,984.837 1076.33,984.837 1078.55,984.837 1080.76,984.837 1082.98,984.837 1085.2,984.837 1087.41,984.837 1089.63,984.837 1091.84,984.837 1094.06,984.837 1096.28,984.837 1098.49,984.837 1100.71,984.837 1102.92,984.837 1105.14,984.837 1107.36,984.837 1109.57,984.837 1111.79,984.837 1114,984.837 1116.22,984.837 1118.44,984.837 1120.65,984.837 1122.87,984.837 1125.08,984.837 1127.3,984.837 1129.52,984.837 1131.73,984.837 1133.95,984.837 1136.17,984.837 1138.38,984.837 1140.6,984.837 1142.81,984.837 1145.03,984.837 1147.25,984.837 1149.46,984.837 1151.68,984.837 1153.89,984.837 1156.11,984.837 1158.33,984.837 1160.54,984.837 1162.76,984.837 1164.97,984.837 1167.19,984.837 1169.41,984.837 1171.62,984.837 1173.84,984.837 1176.05,984.837 1178.27,984.837 1180.49,984.837 1182.7,984.837 1184.92,984.837 1187.13,984.837 1189.35,984.837 1191.57,984.837 1193.78,984.837 1196,984.837 1198.21,984.837 1200.43,984.837 1202.65,984.837 1204.86,984.837 1207.08,984.837 1209.29,984.837 1211.51,984.837 1213.73,984.837 1215.94,984.837 1218.16,984.837 1220.37,984.837 1222.59,984.837 1224.81,984.837 1227.02,984.837 1229.24,984.837 1231.45,984.837 1233.67,984.837 1235.89,984.837 1238.1,984.837 1240.32,984.837 1242.53,984.837 1244.75,984.837 1246.97,984.837 1249.18,984.837 1251.4,984.837 1253.61,984.837 1255.83,984.837 1258.05,984.837 1260.26,984.837 1262.48,984.837 1264.69,984.837 1266.91,984.837 1269.13,984.837 1271.34,984.837 1273.56,984.837 1275.77,984.837 1277.99,984.837 1280.21,984.837 1282.42,984.837 1284.64,984.837 1286.85,984.837 1289.07,984.837 1291.29,984.837 1293.5,984.837 1295.72,984.837 1297.93,984.837 1300.15,884.987 1302.37,884.987 1304.58,884.987 1306.8,884.987 1309.01,884.987 1311.23,884.987 1313.45,785.137 1315.66,785.137 1317.88,785.137 1320.09,785.137 1322.31,785.137 1324.53,785.137 1326.74,685.287 1328.96,685.287 1331.17,685.287 1333.39,685.287 1335.61,685.287 1337.82,685.287 1340.04,685.287 1342.25,685.287 1344.47,685.287 1346.69,685.287 1348.9,685.287 1351.12,685.287 1353.33,685.287 1355.55,685.287 1357.77,685.287 1359.98,685.287 1362.2,685.287 1364.41,685.287 1366.63,685.287 1368.85,685.287 1371.06,685.287 1373.28,685.287 1375.49,685.287 1377.71,685.287 1379.93,685.287 1382.14,685.287 1384.36,685.287 1386.57,685.287 1388.79,685.287 1391.01,685.287 1393.22,685.287 1395.44,685.287 1397.65,685.287 1399.87,685.287 1402.09,685.287 1404.3,685.287 1406.52,685.287 1408.73,685.287 1410.95,685.287 1413.17,685.287 1415.38,685.287 1417.6,685.287 1419.81,685.287 1422.03,685.287 1424.25,685.287 1426.46,685.287 1428.68,685.287 1430.89,685.287 1433.11,685.287 1435.33,685.287 1437.54,685.287 1439.76,685.287 1441.97,685.287 1444.19,685.287 1446.41,685.287 1448.62,685.287 1450.84,685.287 1453.05,685.287 1455.27,685.287 1457.49,685.287 1459.7,685.287 1461.92,685.287 1464.13,585.437 1466.35,585.437 1468.57,585.437 1470.78,585.437 1473,585.437 1475.21,585.437 1477.43,585.437 1479.65,585.437 1481.86,585.437 1484.08,585.437 1486.3,585.437 1488.51,585.437 1490.73,585.437 1492.94,585.437 1495.16,585.437 1497.38,585.437 1499.59,585.437 1501.81,585.437 1504.02,585.437 1506.24,585.437 1508.46,585.437 1510.67,585.437 1512.89,585.437 1515.1,585.437 1517.32,585.437 1519.54,585.437 1521.75,585.437 1523.97,585.437 1526.18,585.437 1528.4,585.437 1530.62,585.437 1532.83,585.437 1535.05,585.437 1537.26,585.437 1539.48,585.437 1541.7,585.437 1543.91,585.437 1546.13,585.437 1548.34,585.437 1550.56,585.437 1552.78,585.437 1554.99,585.437 1557.21,585.437 1559.42,585.437 1561.64,585.437 1563.86,585.437 1566.07,585.437 1568.29,585.437 1570.5,585.437 1572.72,585.437 1574.94,585.437 1577.15,585.437 1579.37,585.437 1581.58,585.437 1583.8,585.437 1586.02,585.437 1588.23,585.437 1590.45,585.437 1592.66,585.437 1594.88,585.437 1597.1,585.437 1599.31,585.437 1601.53,585.437 1603.74,585.437 1605.96,585.437 1608.18,585.437 1610.39,585.437 1612.61,585.437 1614.82,585.437 1617.04,585.437 1619.26,585.437 1621.47,585.437 1623.69,585.437 1625.9,585.437 1628.12,585.437 1630.34,585.437 1632.55,585.437 1634.77,585.437 1636.98,585.437 1639.2,585.437 1641.42,585.437 1643.63,585.437 1645.85,585.437 1648.06,585.437 1650.28,585.437 1652.5,585.437 1654.71,585.437 1656.93,585.437 1659.14,585.437 1661.36,585.437 1663.58,585.437 1665.79,585.437 1668.01,585.437 1670.22,585.437 1672.44,585.437 1674.66,585.437 1676.87,585.437 1679.09,585.437 1681.3,585.437 1683.52,585.437 1685.74,585.437 1687.95,585.437 1690.17,585.437 1692.38,585.437 1694.6,585.437 1696.82,585.437 1699.03,585.437 1701.25,585.437 1703.46,585.437 1705.68,585.437 1707.9,585.437 1710.11,585.437 1712.33,585.437 1714.54,585.437 1716.76,585.437 1718.98,585.437 1721.19,585.437 1723.41,585.437 1725.62,585.437 1727.84,585.437 1730.06,585.437 1732.27,585.437 1734.49,585.437 1736.7,585.437 1738.92,585.437 1741.14,585.437 1743.35,585.437 1745.57,585.437 1747.78,585.437 1750,585.437 1752.22,585.437 1754.43,585.437 1756.65,585.437 1758.86,585.437 1761.08,585.437 1763.3,585.437 1765.51,585.437 1767.73,585.437 1769.94,585.437 1772.16,585.437 1774.38,585.437 1776.59,585.437 1778.81,585.437 1781.02,585.437 1783.24,585.437 1785.46,585.437 1787.67,585.437 1789.89,585.437 1792.1,585.437 1794.32,585.437 1796.54,585.437 1798.75,585.437 1800.97,585.437 1803.18,585.437 1805.4,585.437 1807.62,585.437 1809.83,585.437 1812.05,585.437 1814.26,585.437 1816.48,585.437 1818.7,585.437 1820.91,585.437 1823.13,585.437 1825.34,585.437 1827.56,585.437 1829.78,585.437 1831.99,585.437 1834.21,585.437 1836.42,585.437 1838.64,585.437 1840.86,585.437 1843.07,585.437 1845.29,585.437 1847.51,585.437 1849.72,585.437 1851.94,585.437 1854.15,585.437 1856.37,585.437 1858.59,585.437 1860.8,585.437 1863.02,585.437 1865.23,585.437 1867.45,585.437 1869.67,585.437 1871.88,585.437 1874.1,585.437 1876.31,585.437 1878.53,585.437 1880.75,585.437 1882.96,585.437 1885.18,585.437 1887.39,585.437 1889.61,585.437 1891.83,585.437 1894.04,585.437 1896.26,585.437 1898.47,585.437 1900.69,585.437 1902.91,585.437 1905.12,585.437 1907.34,585.437 1909.55,585.437 1911.77,585.437 1913.99,585.437 1916.2,585.437 1918.42,585.437 1920.63,485.586 1922.85,485.586 1925.07,485.586 1927.28,485.586 1929.5,485.586 1931.71,485.586 1933.93,485.586 1936.15,485.586 1938.36,485.586 1940.58,485.586 1942.79,485.586 1945.01,485.586 1947.23,485.586 1949.44,485.586 1951.66,485.586 1953.87,485.586 1956.09,485.586 1958.31,485.586 1960.52,485.586 1962.74,485.586 1964.95,485.586 1967.17,485.586 1969.39,485.586 1971.6,485.586 1973.82,485.586 1976.03,485.586 1978.25,485.586 1980.47,485.586 1982.68,485.586 1984.9,485.586 1987.11,485.586 1989.33,485.586 1991.55,485.586 1993.76,485.586 1995.98,485.586 1998.19,485.586 2000.41,485.586 2002.63,485.586 2004.84,485.586 2007.06,485.586 2009.27,485.586 2011.49,485.586 2013.71,485.586 2015.92,485.586 2018.14,485.586 2020.35,485.586 2022.57,485.586 2024.79,485.586 2027,485.586 2029.22,485.586 2031.43,485.586 2033.65,485.586 2035.87,485.586 2038.08,485.586 2040.3,485.586 2042.51,485.586 2044.73,485.586 2046.95,485.586 2049.16,485.586 2051.38,485.586 2053.59,485.586 2055.81,485.586 2058.03,485.586 2060.24,385.736 2062.46,385.736 2064.67,385.736 2066.89,385.736 2069.11,385.736 2071.32,385.736 2073.54,385.736 2075.75,385.736 2077.97,385.736 2080.19,385.736 2082.4,385.736 2084.62,385.736 2086.83,385.736 2089.05,385.736 2091.27,385.736 2093.48,385.736 2095.7,385.736 2097.91,385.736 2100.13,385.736 2102.35,385.736 2104.56,385.736 2106.78,285.886 2108.99,285.886 2111.21,285.886 2113.43,285.886 2115.64,285.886 2117.86,285.886 2120.07,285.886 2122.29,186.036 2124.51,186.036 2126.72,186.036 2128.94,186.036 2131.15,186.036 2133.37,186.036 2135.59,186.036 2137.8,186.036 2140.02,186.036 2142.23,186.036 2144.45,186.036 2146.67,186.036 2148.88,186.036 2151.1,186.036 2153.31,186.036 2155.53,186.036 2157.75,186.036 2159.96,186.036 2162.18,186.036 2164.39,186.036 2166.61,186.036 2168.83,186.036 2171.04,186.036 2173.26,186.036 2175.47,186.036 2177.69,186.036 2179.91,186.036 2182.12,186.036 2184.34,186.036 2186.55,186.036 2188.77,186.036 2190.99,186.036 2193.2,186.036 2195.42,186.036 2197.64,186.036 2199.85,186.036 2202.07,186.036 2204.28,186.036 2206.5,186.036 2208.72,186.036 2210.93,186.036 2213.15,186.036 2215.36,186.036 2217.58,186.036 2219.8,186.036 2222.01,186.036 2224.23,186.036 2226.44,86.1857 2228.66,86.1857 2230.88,86.1857 2233.09,86.1857 2235.31,86.1857 2237.52,86.1857 2239.74,86.1857 2241.96,86.1857 2244.17,86.1857 2246.39,86.1857 2248.6,86.1857 2250.82,86.1857 2253.04,86.1857 2255.25,86.1857 2257.47,86.1857 2259.68,86.1857 2261.9,86.1857 2264.12,86.1857 2266.33,86.1857 2268.55,86.1857 2270.76,86.1857 2272.98,86.1857 2275.2,86.1857 2277.41,86.1857 2279.63,86.1857 2281.84,86.1857 2284.06,86.1857 2286.28,86.1857 2288.49,86.1857 2290.71,86.1857 2292.92,86.1857 2295.14,86.1857 2297.36,86.1857 2299.57,86.1857 2301.79,86.1857 2304,86.1857 2306.22,86.1857 2308.44,86.1857 2310.65,86.1857 2312.87,86.1857 2315.08,86.1857 2317.3,86.1857 2319.52,86.1857 2321.73,86.1857 2323.95,86.1857 2326.16,86.1857 2328.38,86.1857 2330.6,86.1857 2332.81,86.1857 2335.03,86.1857 2337.24,86.1857 2339.46,86.1857 2341.68,86.1857 2343.89,86.1857 2346.11,86.1857 2348.32,86.1857 2350.54,86.1857 2352.76,86.1857 "/>
<path clip-path="url(#clip510)" d="M212.753 248.629 L517.488 248.629 L517.488 93.1086 L212.753 93.1086  Z" fill="#ffffff" fill-rule="evenodd" fill-opacity="1"/>
<polyline clip-path="url(#clip510)" style="stroke:#000000; stroke-linecap:round; stroke-linejoin:round; stroke-width:4; stroke-opacity:1; fill:none" points="212.753,248.629 517.488,248.629 517.488,93.1086 212.753,93.1086 212.753,248.629 "/>
<polyline clip-path="url(#clip510)" style="stroke:#009af9; stroke-linecap:round; stroke-linejoin:round; stroke-width:8; stroke-opacity:1; fill:none" points="237.35,144.949 384.937,144.949 "/>
<path clip-path="url(#clip510)" d="M409.535 127.669 L415.831 127.669 L431.155 156.581 L431.155 127.669 L435.692 127.669 L435.692 162.229 L429.396 162.229 L414.072 133.317 L414.072 162.229 L409.535 162.229 L409.535 127.669 Z" fill="#000000" fill-rule="nonzero" fill-opacity="1" /><path clip-path="url(#clip510)" d="M455.044 126.257 Q451.942 131.581 450.437 136.789 Q448.933 141.997 448.933 147.344 Q448.933 152.692 450.437 157.946 Q451.965 163.178 455.044 168.479 L451.34 168.479 Q447.868 163.039 446.132 157.784 Q444.419 152.53 444.419 147.344 Q444.419 142.182 446.132 136.951 Q447.845 131.72 451.34 126.257 L455.044 126.257 Z" fill="#000000" fill-rule="nonzero" fill-opacity="1" /><path clip-path="url(#clip510)" d="M467.52 128.942 L467.52 136.303 L476.293 136.303 L476.293 139.613 L467.52 139.613 L467.52 153.687 Q467.52 156.858 468.377 157.761 Q469.256 158.664 471.918 158.664 L476.293 158.664 L476.293 162.229 L471.918 162.229 Q466.988 162.229 465.113 160.4 Q463.238 158.548 463.238 153.687 L463.238 139.613 L460.113 139.613 L460.113 136.303 L463.238 136.303 L463.238 128.942 L467.52 128.942 Z" fill="#000000" fill-rule="nonzero" fill-opacity="1" /><path clip-path="url(#clip510)" d="M481.224 126.257 L484.928 126.257 Q488.4 131.72 490.113 136.951 Q491.849 142.182 491.849 147.344 Q491.849 152.53 490.113 157.784 Q488.4 163.039 484.928 168.479 L481.224 168.479 Q484.303 163.178 485.807 157.946 Q487.335 152.692 487.335 147.344 Q487.335 141.997 485.807 136.789 Q484.303 131.581 481.224 126.257 Z" fill="#000000" fill-rule="nonzero" fill-opacity="1" /><polyline clip-path="url(#clip510)" style="stroke:#e26f46; stroke-linecap:round; stroke-linejoin:round; stroke-width:8; stroke-opacity:1; fill:none" points="237.35,196.789 384.937,196.789 "/>
<path clip-path="url(#clip510)" d="M414.21 183.351 L414.21 210.226 L419.859 210.226 Q427.011 210.226 430.321 206.985 Q433.655 203.745 433.655 196.754 Q433.655 189.809 430.321 186.592 Q427.011 183.351 419.859 183.351 L414.21 183.351 M409.535 179.509 L419.141 179.509 Q429.187 179.509 433.886 183.698 Q438.585 187.865 438.585 196.754 Q438.585 205.689 433.863 209.879 Q429.141 214.069 419.141 214.069 L409.535 214.069 L409.535 179.509 Z" fill="#000000" fill-rule="nonzero" fill-opacity="1" /><path clip-path="url(#clip510)" d="M456.085 178.097 Q452.983 183.421 451.479 188.629 Q449.974 193.837 449.974 199.184 Q449.974 204.532 451.479 209.786 Q453.007 215.018 456.085 220.319 L452.382 220.319 Q448.909 214.879 447.173 209.624 Q445.46 204.37 445.46 199.184 Q445.46 194.022 447.173 188.791 Q448.886 183.56 452.382 178.097 L456.085 178.097 Z" fill="#000000" fill-rule="nonzero" fill-opacity="1" /><path clip-path="url(#clip510)" d="M468.562 180.782 L468.562 188.143 L477.335 188.143 L477.335 191.453 L468.562 191.453 L468.562 205.527 Q468.562 208.698 469.419 209.601 Q470.298 210.504 472.96 210.504 L477.335 210.504 L477.335 214.069 L472.96 214.069 Q468.03 214.069 466.155 212.24 Q464.28 210.388 464.28 205.527 L464.28 191.453 L461.155 191.453 L461.155 188.143 L464.28 188.143 L464.28 180.782 L468.562 180.782 Z" fill="#000000" fill-rule="nonzero" fill-opacity="1" /><path clip-path="url(#clip510)" d="M482.266 178.097 L485.969 178.097 Q489.442 183.56 491.154 188.791 Q492.891 194.022 492.891 199.184 Q492.891 204.37 491.154 209.624 Q489.442 214.879 485.969 220.319 L482.266 220.319 Q485.344 215.018 486.849 209.786 Q488.377 204.532 488.377 199.184 Q488.377 193.837 486.849 188.629 Q485.344 183.421 482.266 178.097 Z" fill="#000000" fill-rule="nonzero" fill-opacity="1" /></svg>
