<?xml version="1.0" encoding="utf-8"?>
<svg xmlns="http://www.w3.org/2000/svg" xmlns:xlink="http://www.w3.org/1999/xlink" width="600" height="400" viewBox="0 0 2400 1600">
<defs>
  <clipPath id="clip930">
    <rect x="0" y="0" width="2400" height="1600"/>
  </clipPath>
</defs>
<path clip-path="url(#clip930)" d="M0 1600 L2400 1600 L2400 0 L0 0  Z" fill="#ffffff" fill-rule="evenodd" fill-opacity="1"/>
<defs>
  <clipPath id="clip931">
    <rect x="155" y="47" width="2198" height="1377"/>
  </clipPath>
</defs>
<path clip-path="url(#clip930)" d="M155.765 1423.18 L2352.76 1423.18 L2352.76 47.2441 L155.765 47.2441  Z" fill="#ffffff" fill-rule="evenodd" fill-opacity="1"/>
<polyline clip-path="url(#clip931)" style="stroke:#000000; stroke-linecap:round; stroke-linejoin:round; stroke-width:2; stroke-opacity:0.1; fill:none" points="155.765,1423.18 155.765,47.2441 "/>
<polyline clip-path="url(#clip931)" style="stroke:#000000; stroke-linecap:round; stroke-linejoin:round; stroke-width:2; stroke-opacity:0.1; fill:none" points="595.163,1423.18 595.163,47.2441 "/>
<polyline clip-path="url(#clip931)" style="stroke:#000000; stroke-linecap:round; stroke-linejoin:round; stroke-width:2; stroke-opacity:0.1; fill:none" points="1034.56,1423.18 1034.56,47.2441 "/>
<polyline clip-path="url(#clip931)" style="stroke:#000000; stroke-linecap:round; stroke-linejoin:round; stroke-width:2; stroke-opacity:0.1; fill:none" points="1473.96,1423.18 1473.96,47.2441 "/>
<polyline clip-path="url(#clip931)" style="stroke:#000000; stroke-linecap:round; stroke-linejoin:round; stroke-width:2; stroke-opacity:0.1; fill:none" points="1913.36,1423.18 1913.36,47.2441 "/>
<polyline clip-path="url(#clip931)" style="stroke:#000000; stroke-linecap:round; stroke-linejoin:round; stroke-width:2; stroke-opacity:0.1; fill:none" points="2352.76,1423.18 2352.76,47.2441 "/>
<polyline clip-path="url(#clip931)" style="stroke:#000000; stroke-linecap:round; stroke-linejoin:round; stroke-width:2; stroke-opacity:0.1; fill:none" points="155.765,1140.93 2352.76,1140.93 "/>
<polyline clip-path="url(#clip931)" style="stroke:#000000; stroke-linecap:round; stroke-linejoin:round; stroke-width:2; stroke-opacity:0.1; fill:none" points="155.765,821.508 2352.76,821.508 "/>
<polyline clip-path="url(#clip931)" style="stroke:#000000; stroke-linecap:round; stroke-linejoin:round; stroke-width:2; stroke-opacity:0.1; fill:none" points="155.765,502.08 2352.76,502.08 "/>
<polyline clip-path="url(#clip931)" style="stroke:#000000; stroke-linecap:round; stroke-linejoin:round; stroke-width:2; stroke-opacity:0.1; fill:none" points="155.765,182.653 2352.76,182.653 "/>
<polyline clip-path="url(#clip930)" style="stroke:#000000; stroke-linecap:round; stroke-linejoin:round; stroke-width:4; stroke-opacity:1; fill:none" points="155.765,1423.18 2352.76,1423.18 "/>
<polyline clip-path="url(#clip930)" style="stroke:#000000; stroke-linecap:round; stroke-linejoin:round; stroke-width:4; stroke-opacity:1; fill:none" points="155.765,1423.18 155.765,1404.28 "/>
<polyline clip-path="url(#clip930)" style="stroke:#000000; stroke-linecap:round; stroke-linejoin:round; stroke-width:4; stroke-opacity:1; fill:none" points="595.163,1423.18 595.163,1404.28 "/>
<polyline clip-path="url(#clip930)" style="stroke:#000000; stroke-linecap:round; stroke-linejoin:round; stroke-width:4; stroke-opacity:1; fill:none" points="1034.56,1423.18 1034.56,1404.28 "/>
<polyline clip-path="url(#clip930)" style="stroke:#000000; stroke-linecap:round; stroke-linejoin:round; stroke-width:4; stroke-opacity:1; fill:none" points="1473.96,1423.18 1473.96,1404.28 "/>
<polyline clip-path="url(#clip930)" style="stroke:#000000; stroke-linecap:round; stroke-linejoin:round; stroke-width:4; stroke-opacity:1; fill:none" points="1913.36,1423.18 1913.36,1404.28 "/>
<polyline clip-path="url(#clip930)" style="stroke:#000000; stroke-linecap:round; stroke-linejoin:round; stroke-width:4; stroke-opacity:1; fill:none" points="2352.76,1423.18 2352.76,1404.28 "/>
<path clip-path="url(#clip930)" d="M155.765 1454.1 Q152.154 1454.1 150.325 1457.66 Q148.52 1461.2 148.52 1468.33 Q148.52 1475.44 150.325 1479.01 Q152.154 1482.55 155.765 1482.55 Q159.399 1482.55 161.205 1479.01 Q163.033 1475.44 163.033 1468.33 Q163.033 1461.2 161.205 1457.66 Q159.399 1454.1 155.765 1454.1 M155.765 1450.39 Q161.575 1450.39 164.631 1455 Q167.709 1459.58 167.709 1468.33 Q167.709 1477.06 164.631 1481.67 Q161.575 1486.25 155.765 1486.25 Q149.955 1486.25 146.876 1481.67 Q143.821 1477.06 143.821 1468.33 Q143.821 1459.58 146.876 1455 Q149.955 1450.39 155.765 1450.39 Z" fill="#000000" fill-rule="nonzero" fill-opacity="1" /><path clip-path="url(#clip930)" d="M589.816 1481.64 L606.135 1481.64 L606.135 1485.58 L584.191 1485.58 L584.191 1481.64 Q586.853 1478.89 591.436 1474.26 Q596.043 1469.61 597.223 1468.27 Q599.469 1465.74 600.348 1464.01 Q601.251 1462.25 601.251 1460.56 Q601.251 1457.8 599.307 1456.07 Q597.385 1454.33 594.283 1454.33 Q592.084 1454.33 589.631 1455.09 Q587.2 1455.86 584.422 1457.41 L584.422 1452.69 Q587.246 1451.55 589.7 1450.97 Q592.154 1450.39 594.191 1450.39 Q599.561 1450.39 602.756 1453.08 Q605.95 1455.77 605.95 1460.26 Q605.95 1462.39 605.14 1464.31 Q604.353 1466.2 602.246 1468.8 Q601.668 1469.47 598.566 1472.69 Q595.464 1475.88 589.816 1481.64 Z" fill="#000000" fill-rule="nonzero" fill-opacity="1" /><path clip-path="url(#clip930)" d="M1037.57 1455.09 L1025.77 1473.54 L1037.57 1473.54 L1037.57 1455.09 M1036.34 1451.02 L1042.22 1451.02 L1042.22 1473.54 L1047.15 1473.54 L1047.15 1477.43 L1042.22 1477.43 L1042.22 1485.58 L1037.57 1485.58 L1037.57 1477.43 L1021.97 1477.43 L1021.97 1472.92 L1036.34 1451.02 Z" fill="#000000" fill-rule="nonzero" fill-opacity="1" /><path clip-path="url(#clip930)" d="M1474.36 1466.44 Q1471.22 1466.44 1469.36 1468.59 Q1467.54 1470.74 1467.54 1474.49 Q1467.54 1478.22 1469.36 1480.39 Q1471.22 1482.55 1474.36 1482.55 Q1477.51 1482.55 1479.34 1480.39 Q1481.19 1478.22 1481.19 1474.49 Q1481.19 1470.74 1479.34 1468.59 Q1477.51 1466.44 1474.36 1466.44 M1483.65 1451.78 L1483.65 1456.04 Q1481.89 1455.21 1480.08 1454.77 Q1478.3 1454.33 1476.54 1454.33 Q1471.91 1454.33 1469.46 1457.45 Q1467.03 1460.58 1466.68 1466.9 Q1468.05 1464.89 1470.11 1463.82 Q1472.17 1462.73 1474.64 1462.73 Q1479.85 1462.73 1482.86 1465.9 Q1485.89 1469.05 1485.89 1474.49 Q1485.89 1479.82 1482.74 1483.03 Q1479.6 1486.25 1474.36 1486.25 Q1468.37 1486.25 1465.2 1481.67 Q1462.03 1477.06 1462.03 1468.33 Q1462.03 1460.14 1465.92 1455.28 Q1469.8 1450.39 1476.36 1450.39 Q1478.11 1450.39 1479.9 1450.74 Q1481.7 1451.09 1483.65 1451.78 Z" fill="#000000" fill-rule="nonzero" fill-opacity="1" /><path clip-path="url(#clip930)" d="M1913.36 1469.17 Q1910.02 1469.17 1908.1 1470.95 Q1906.2 1472.73 1906.2 1475.86 Q1906.2 1478.98 1908.1 1480.77 Q1910.02 1482.55 1913.36 1482.55 Q1916.69 1482.55 1918.61 1480.77 Q1920.53 1478.96 1920.53 1475.86 Q1920.53 1472.73 1918.61 1470.95 Q1916.71 1469.17 1913.36 1469.17 M1908.68 1467.18 Q1905.67 1466.44 1903.98 1464.38 Q1902.32 1462.32 1902.32 1459.35 Q1902.32 1455.21 1905.26 1452.8 Q1908.22 1450.39 1913.36 1450.39 Q1918.52 1450.39 1921.46 1452.8 Q1924.4 1455.21 1924.4 1459.35 Q1924.4 1462.32 1922.71 1464.38 Q1921.04 1466.44 1918.06 1467.18 Q1921.44 1467.96 1923.31 1470.26 Q1925.21 1472.55 1925.21 1475.86 Q1925.21 1480.88 1922.13 1483.57 Q1919.08 1486.25 1913.36 1486.25 Q1907.64 1486.25 1904.56 1483.57 Q1901.51 1480.88 1901.51 1475.86 Q1901.51 1472.55 1903.4 1470.26 Q1905.3 1467.96 1908.68 1467.18 M1906.97 1459.79 Q1906.97 1462.48 1908.64 1463.98 Q1910.33 1465.49 1913.36 1465.49 Q1916.37 1465.49 1918.06 1463.98 Q1919.77 1462.48 1919.77 1459.79 Q1919.77 1457.11 1918.06 1455.6 Q1916.37 1454.1 1913.36 1454.1 Q1910.33 1454.1 1908.64 1455.6 Q1906.97 1457.11 1906.97 1459.79 Z" fill="#000000" fill-rule="nonzero" fill-opacity="1" /><path clip-path="url(#clip930)" d="M2327.44 1481.64 L2335.08 1481.64 L2335.08 1455.28 L2326.77 1456.95 L2326.77 1452.69 L2335.04 1451.02 L2339.71 1451.02 L2339.71 1481.64 L2347.35 1481.64 L2347.35 1485.58 L2327.44 1485.58 L2327.44 1481.64 Z" fill="#000000" fill-rule="nonzero" fill-opacity="1" /><path clip-path="url(#clip930)" d="M2366.8 1454.1 Q2363.18 1454.1 2361.36 1457.66 Q2359.55 1461.2 2359.55 1468.33 Q2359.55 1475.44 2361.36 1479.01 Q2363.18 1482.55 2366.8 1482.55 Q2370.43 1482.55 2372.23 1479.01 Q2374.06 1475.44 2374.06 1468.33 Q2374.06 1461.2 2372.23 1457.66 Q2370.43 1454.1 2366.8 1454.1 M2366.8 1450.39 Q2372.61 1450.39 2375.66 1455 Q2378.74 1459.58 2378.74 1468.33 Q2378.74 1477.06 2375.66 1481.67 Q2372.61 1486.25 2366.8 1486.25 Q2360.99 1486.25 2357.91 1481.67 Q2354.85 1477.06 2354.85 1468.33 Q2354.85 1459.58 2357.91 1455 Q2360.99 1450.39 2366.8 1450.39 Z" fill="#000000" fill-rule="nonzero" fill-opacity="1" /><path clip-path="url(#clip930)" d="M1253.32 1522.27 L1253.32 1532.4 L1265.38 1532.4 L1265.38 1536.95 L1253.32 1536.95 L1253.32 1556.3 Q1253.32 1560.66 1254.5 1561.9 Q1255.71 1563.14 1259.37 1563.14 L1265.38 1563.14 L1265.38 1568.04 L1259.37 1568.04 Q1252.59 1568.04 1250.01 1565.53 Q1247.43 1562.98 1247.43 1556.3 L1247.43 1536.95 L1243.14 1536.95 L1243.14 1532.4 L1247.43 1532.4 L1247.43 1522.27 L1253.32 1522.27 Z" fill="#000000" fill-rule="nonzero" fill-opacity="1" /><polyline clip-path="url(#clip930)" style="stroke:#000000; stroke-linecap:round; stroke-linejoin:round; stroke-width:4; stroke-opacity:1; fill:none" points="155.765,1423.18 155.765,47.2441 "/>
<polyline clip-path="url(#clip930)" style="stroke:#000000; stroke-linecap:round; stroke-linejoin:round; stroke-width:4; stroke-opacity:1; fill:none" points="155.765,1140.93 174.663,1140.93 "/>
<polyline clip-path="url(#clip930)" style="stroke:#000000; stroke-linecap:round; stroke-linejoin:round; stroke-width:4; stroke-opacity:1; fill:none" points="155.765,821.508 174.663,821.508 "/>
<polyline clip-path="url(#clip930)" style="stroke:#000000; stroke-linecap:round; stroke-linejoin:round; stroke-width:4; stroke-opacity:1; fill:none" points="155.765,502.08 174.663,502.08 "/>
<polyline clip-path="url(#clip930)" style="stroke:#000000; stroke-linecap:round; stroke-linejoin:round; stroke-width:4; stroke-opacity:1; fill:none" points="155.765,182.653 174.663,182.653 "/>
<path clip-path="url(#clip930)" d="M63.5847 1126.73 Q59.9736 1126.73 58.1449 1130.3 Q56.3393 1133.84 56.3393 1140.97 Q56.3393 1148.08 58.1449 1151.64 Q59.9736 1155.18 63.5847 1155.18 Q67.2189 1155.18 69.0244 1151.64 Q70.8531 1148.08 70.8531 1140.97 Q70.8531 1133.84 69.0244 1130.3 Q67.2189 1126.73 63.5847 1126.73 M63.5847 1123.03 Q69.3948 1123.03 72.4503 1127.64 Q75.529 1132.22 75.529 1140.97 Q75.529 1149.7 72.4503 1154.3 Q69.3948 1158.89 63.5847 1158.89 Q57.7745 1158.89 54.6958 1154.3 Q51.6403 1149.7 51.6403 1140.97 Q51.6403 1132.22 54.6958 1127.64 Q57.7745 1123.03 63.5847 1123.03 Z" fill="#000000" fill-rule="nonzero" fill-opacity="1" /><path clip-path="url(#clip930)" d="M83.7466 1152.34 L88.6308 1152.34 L88.6308 1158.21 L83.7466 1158.21 L83.7466 1152.34 Z" fill="#000000" fill-rule="nonzero" fill-opacity="1" /><path clip-path="url(#clip930)" d="M98.8622 1123.65 L117.219 1123.65 L117.219 1127.59 L103.145 1127.59 L103.145 1136.06 Q104.163 1135.71 105.182 1135.55 Q106.2 1135.37 107.219 1135.37 Q113.006 1135.37 116.385 1138.54 Q119.765 1141.71 119.765 1147.13 Q119.765 1152.71 116.293 1155.81 Q112.82 1158.89 106.501 1158.89 Q104.325 1158.89 102.057 1158.52 Q99.8113 1158.15 97.4039 1157.4 L97.4039 1152.71 Q99.4872 1153.84 101.709 1154.4 Q103.932 1154.95 106.408 1154.95 Q110.413 1154.95 112.751 1152.84 Q115.089 1150.74 115.089 1147.13 Q115.089 1143.52 112.751 1141.41 Q110.413 1139.3 106.408 1139.3 Q104.534 1139.3 102.659 1139.72 Q100.807 1140.14 98.8622 1141.02 L98.8622 1123.65 Z" fill="#000000" fill-rule="nonzero" fill-opacity="1" /><path clip-path="url(#clip930)" d="M53.3995 834.852 L61.0384 834.852 L61.0384 808.487 L52.7282 810.153 L52.7282 805.894 L60.9921 804.228 L65.668 804.228 L65.668 834.852 L73.3068 834.852 L73.3068 838.788 L53.3995 838.788 L53.3995 834.852 Z" fill="#000000" fill-rule="nonzero" fill-opacity="1" /><path clip-path="url(#clip930)" d="M82.7512 832.908 L87.6354 832.908 L87.6354 838.788 L82.7512 838.788 L82.7512 832.908 Z" fill="#000000" fill-rule="nonzero" fill-opacity="1" /><path clip-path="url(#clip930)" d="M107.821 807.306 Q104.209 807.306 102.381 810.871 Q100.575 814.413 100.575 821.542 Q100.575 828.649 102.381 832.214 Q104.209 835.755 107.821 835.755 Q111.455 835.755 113.26 832.214 Q115.089 828.649 115.089 821.542 Q115.089 814.413 113.26 810.871 Q111.455 807.306 107.821 807.306 M107.821 803.603 Q113.631 803.603 116.686 808.209 Q119.765 812.792 119.765 821.542 Q119.765 830.269 116.686 834.876 Q113.631 839.459 107.821 839.459 Q102.01 839.459 98.9317 834.876 Q95.8761 830.269 95.8761 821.542 Q95.8761 812.792 98.9317 808.209 Q102.01 803.603 107.821 803.603 Z" fill="#000000" fill-rule="nonzero" fill-opacity="1" /><path clip-path="url(#clip930)" d="M54.3949 515.425 L62.0337 515.425 L62.0337 489.06 L53.7236 490.726 L53.7236 486.467 L61.9874 484.8 L66.6633 484.8 L66.6633 515.425 L74.3022 515.425 L74.3022 519.36 L54.3949 519.36 L54.3949 515.425 Z" fill="#000000" fill-rule="nonzero" fill-opacity="1" /><path clip-path="url(#clip930)" d="M83.7466 513.481 L88.6308 513.481 L88.6308 519.36 L83.7466 519.36 L83.7466 513.481 Z" fill="#000000" fill-rule="nonzero" fill-opacity="1" /><path clip-path="url(#clip930)" d="M98.8622 484.8 L117.219 484.8 L117.219 488.736 L103.145 488.736 L103.145 497.208 Q104.163 496.861 105.182 496.698 Q106.2 496.513 107.219 496.513 Q113.006 496.513 116.385 499.685 Q119.765 502.856 119.765 508.272 Q119.765 513.851 116.293 516.953 Q112.82 520.032 106.501 520.032 Q104.325 520.032 102.057 519.661 Q99.8113 519.291 97.4039 518.55 L97.4039 513.851 Q99.4872 514.985 101.709 515.541 Q103.932 516.097 106.408 516.097 Q110.413 516.097 112.751 513.99 Q115.089 511.884 115.089 508.272 Q115.089 504.661 112.751 502.555 Q110.413 500.448 106.408 500.448 Q104.534 500.448 102.659 500.865 Q100.807 501.282 98.8622 502.161 L98.8622 484.8 Z" fill="#000000" fill-rule="nonzero" fill-opacity="1" /><path clip-path="url(#clip930)" d="M56.6171 195.998 L72.9365 195.998 L72.9365 199.933 L50.9921 199.933 L50.9921 195.998 Q53.6541 193.243 58.2375 188.614 Q62.8439 183.961 64.0245 182.619 Q66.2698 180.095 67.1494 178.359 Q68.0522 176.6 68.0522 174.91 Q68.0522 172.156 66.1078 170.42 Q64.1865 168.683 61.0847 168.683 Q58.8856 168.683 56.4319 169.447 Q54.0014 170.211 51.2236 171.762 L51.2236 167.04 Q54.0477 165.906 56.5014 165.327 Q58.955 164.748 60.9921 164.748 Q66.3624 164.748 69.5568 167.433 Q72.7513 170.119 72.7513 174.609 Q72.7513 176.739 71.9411 178.66 Q71.1541 180.558 69.0476 183.151 Q68.4689 183.822 65.367 187.04 Q62.2652 190.234 56.6171 195.998 Z" fill="#000000" fill-rule="nonzero" fill-opacity="1" /><path clip-path="url(#clip930)" d="M82.7512 194.054 L87.6354 194.054 L87.6354 199.933 L82.7512 199.933 L82.7512 194.054 Z" fill="#000000" fill-rule="nonzero" fill-opacity="1" /><path clip-path="url(#clip930)" d="M107.821 168.452 Q104.209 168.452 102.381 172.017 Q100.575 175.558 100.575 182.688 Q100.575 189.794 102.381 193.359 Q104.209 196.901 107.821 196.901 Q111.455 196.901 113.26 193.359 Q115.089 189.794 115.089 182.688 Q115.089 175.558 113.26 172.017 Q111.455 168.452 107.821 168.452 M107.821 164.748 Q113.631 164.748 116.686 169.355 Q119.765 173.938 119.765 182.688 Q119.765 191.415 116.686 196.021 Q113.631 200.605 107.821 200.605 Q102.01 200.605 98.9317 196.021 Q95.8761 191.415 95.8761 182.688 Q95.8761 173.938 98.9317 169.355 Q102.01 164.748 107.821 164.748 Z" fill="#000000" fill-rule="nonzero" fill-opacity="1" /><polyline clip-path="url(#clip931)" style="stroke:#009af9; stroke-linecap:round; stroke-linejoin:round; stroke-width:8; stroke-opacity:1; fill:none" points="155.765,1332.59 157.964,1331.31 160.163,1330.01 162.362,1328.7 164.562,1327.37 166.761,1326.03 168.96,1324.68 171.159,1323.32 173.358,1321.94 175.558,1320.55 177.757,1319.14 179.956,1317.72 182.155,1316.28 184.354,1314.83 186.554,1313.37 188.753,1311.89 190.952,1310.4 193.151,1308.89 195.35,1307.36 197.55,1305.83 199.749,1304.27 201.948,1302.7 204.147,1301.11 206.346,1299.51 208.545,1297.89 210.745,1296.26 212.944,1294.61 215.143,1292.94 217.342,1291.26 219.541,1289.56 221.741,1287.84 223.94,1286.1 226.139,1284.35 228.338,1282.58 230.537,1280.79 232.737,1278.98 234.936,1277.16 237.135,1275.32 239.334,1273.45 241.533,1271.57 243.733,1269.67 245.932,1267.76 248.131,1265.82 250.33,1263.86 252.529,1261.88 254.728,1259.89 256.928,1257.87 259.127,1255.83 261.326,1253.78 263.525,1251.7 265.724,1249.6 267.924,1247.48 270.123,1245.34 272.322,1243.17 274.521,1240.99 276.72,1238.78 278.92,1236.55 281.119,1234.3 283.318,1232.03 285.517,1229.73 287.716,1227.41 289.916,1225.06 292.115,1222.7 294.314,1220.31 296.513,1217.89 298.712,1215.45 300.911,1212.99 303.111,1210.5 305.31,1207.99 307.509,1205.45 309.708,1202.88 311.907,1200.29 314.107,1197.68 316.306,1195.03 318.505,1192.36 320.704,1189.67 322.903,1186.94 325.103,1184.19 327.302,1181.42 329.501,1178.61 331.7,1175.77 333.899,1172.91 336.099,1170.02 338.298,1167.1 340.497,1164.15 342.696,1161.17 344.895,1158.16 347.094,1155.12 349.294,1152.05 351.493,1148.95 353.692,1145.81 355.891,1142.65 358.09,1139.45 360.29,1136.22 362.489,1132.96 364.688,1129.67 366.887,1126.34 369.086,1122.98 371.286,1119.59 373.485,1116.16 375.684,1112.7 377.883,1109.2 380.082,1105.67 382.281,1102.1 384.481,1098.49 386.68,1094.85 388.879,1275.77 391.078,1273.91 393.277,1272.04 395.477,1270.14 397.676,1268.23 399.875,1266.3 402.074,1264.34 404.273,1262.37 406.473,1260.38 408.672,1258.37 410.871,1358.35 413.07,1357.32 415.269,1356.29 417.469,1355.24 419.668,1354.18 421.867,1353.11 424.066,1352.03 426.265,1350.94 428.464,1349.84 430.664,1348.73 432.863,1347.61 435.062,1346.47 437.261,1345.33 439.46,1344.17 441.66,1343 443.859,1341.82 446.058,1340.63 448.257,1339.42 450.456,1338.21 452.656,1336.98 454.855,1335.74 457.054,1334.48 459.253,1333.22 461.452,1331.94 463.652,1330.65 465.851,1329.34 468.05,1328.02 470.249,1326.69 472.448,1325.35 474.647,1323.99 476.847,1322.62 479.046,1321.23 481.245,1319.83 483.444,1318.42 485.643,1316.99 487.843,1315.55 490.042,1314.09 492.241,1312.62 494.44,1311.13 496.639,1309.63 498.839,1384.24 501.038,1383.47 503.237,1382.7 505.436,1381.92 507.635,1381.13 509.835,1380.33 512.034,1379.53 514.233,1378.71 516.432,1377.89 518.631,1377.06 520.83,1376.22 523.03,1375.38 525.229,1374.52 527.428,1373.66 529.627,1372.79 531.826,1371.91 534.026,1371.02 536.225,1370.12 538.424,1369.21 540.623,1368.29 542.822,1367.37 545.022,1366.43 547.221,1365.49 549.42,1364.53 551.619,1363.57 553.818,1362.59 556.018,1361.61 558.217,1360.62 560.416,1359.61 562.615,1358.6 564.814,1357.57 567.013,1356.54 569.213,1355.5 571.412,1354.44 573.611,1353.38 575.81,1352.3 578.009,1351.21 580.209,1350.11 582.408,1349.01 584.607,1347.88 586.806,1346.75 589.005,1345.61 591.205,1344.46 593.404,1343.29 595.603,1342.11 597.802,1340.92 600.001,1339.72 602.201,1338.51 604.4,1337.28 606.599,1336.04 608.798,1334.79 610.997,1333.53 613.196,1332.25 615.396,1330.96 617.595,1329.66 619.794,1328.35 621.993,1327.02 624.192,1325.68 626.392,1324.32 628.591,1322.95 630.79,1321.57 632.989,1320.18 635.188,1318.77 637.388,1317.34 639.587,1315.9 641.786,1314.45 643.985,1312.98 646.184,1311.5 648.384,1310 650.583,1308.49 652.782,1306.96 654.981,1305.42 657.18,1303.86 659.379,1302.28 661.579,1300.69 663.778,1299.09 665.977,1297.46 668.176,1295.83 670.375,1294.17 672.575,1292.5 674.774,1290.81 676.973,1289.1 679.172,1287.38 681.371,1285.64 683.571,1283.88 685.77,1282.11 687.969,1280.31 690.168,1278.5 692.367,1276.67 694.567,1274.83 696.766,1272.96 698.965,1271.07 701.164,1269.17 703.363,1267.25 705.562,1265.3 707.762,1263.34 709.961,1261.36 712.16,1259.36 714.359,1257.33 716.558,1255.29 718.758,1253.23 720.957,1251.15 723.156,1249.04 725.355,1246.91 727.554,1244.77 729.754,1242.6 731.953,1240.41 734.152,1238.19 736.351,1235.96 738.55,1233.7 740.749,1231.42 742.949,1229.12 745.148,1226.79 747.347,1224.44 749.546,1222.07 751.745,1219.67 753.945,1217.25 756.144,1214.81 758.343,1212.34 760.542,1209.84 762.741,1207.32 764.941,1204.77 767.14,1202.2 769.339,1199.61 771.538,1196.98 773.737,1194.33 775.937,1191.66 778.136,1188.95 780.335,1186.22 782.534,1183.46 784.733,1180.68 786.932,1177.86 789.132,1175.02 791.331,1172.15 793.53,1169.25 795.729,1166.32 797.928,1163.37 800.128,1160.38 802.327,1157.36 804.526,1154.31 806.725,1151.23 808.924,1148.12 811.124,1144.98 813.323,1141.81 815.522,1138.6 817.721,1135.37 819.92,1132.1 822.12,1128.79 824.319,1125.46 826.518,1122.09 828.717,1118.69 830.916,1115.25 833.115,1111.78 835.315,1108.27 837.514,1104.73 839.713,1101.15 841.912,1097.54 844.111,1093.89 846.311,1090.2 848.51,1086.48 850.709,1082.72 852.908,1078.92 855.107,1075.08 857.307,1071.2 859.506,1067.29 861.705,1063.33 863.904,1059.34 866.103,1055.31 868.303,1051.23 870.502,1047.12 872.701,1042.96 874.9,1038.76 877.099,1034.52 879.298,1030.23 881.498,1025.91 883.697,1021.54 885.896,1017.12 888.095,1012.66 890.294,1008.16 892.494,1003.61 894.693,999.013 896.892,994.371 899.091,989.683 901.29,984.948 903.49,980.165 905.689,975.334 907.888,970.454 910.087,965.525 912.286,960.547 914.486,955.518 916.685,950.439 918.884,945.309 921.083,940.128 923.282,934.894 925.481,929.608 927.681,924.268 929.88,918.875 932.079,913.428 934.278,1184.14 936.477,1181.36 938.677,1178.56 940.876,1175.72 943.075,1172.86 945.274,1169.97 947.473,1167.05 949.673,1164.09 951.872,1161.11 954.071,1158.1 956.27,1155.06 958.469,1151.99 960.669,1148.89 962.868,1145.76 965.067,1142.59 967.266,1139.39 969.465,1136.16 971.664,1132.9 973.864,1129.61 976.063,1126.28 978.262,1122.92 980.461,1119.53 982.66,1116.1 984.86,1286.5 987.059,1284.75 989.258,1282.98 991.457,1281.2 993.656,1279.39 995.856,1277.57 998.055,1275.74 1000.25,1273.88 1002.45,1272 1004.65,1270.11 1006.85,1268.19 1009.05,1266.26 1011.25,1264.31 1013.45,1262.33 1015.65,1260.34 1017.85,1258.33 1020.05,1256.3 1022.25,1254.24 1024.45,1252.17 1026.64,1250.08 1028.84,1247.96 1031.04,1245.82 1033.24,1243.67 1035.44,1241.49 1037.64,1239.28 1039.84,1237.06 1042.04,1234.81 1044.24,1232.54 1046.44,1230.25 1048.64,1227.94 1050.84,1225.6 1053.03,1223.24 1055.23,1340.61 1057.43,1339.4 1059.63,1338.19 1061.83,1336.96 1064.03,1335.71 1066.23,1334.46 1068.43,1333.19 1070.63,1331.91 1072.83,1330.62 1075.03,1329.32 1077.23,1328 1079.42,1326.67 1081.62,1325.32 1083.82,1323.96 1086.02,1322.59 1088.22,1321.21 1090.42,1319.81 1092.62,1318.39 1094.82,1316.96 1097.02,1315.52 1099.22,1314.06 1101.42,1312.59 1103.62,1311.11 1105.82,1309.6 1108.01,1308.09 1110.21,1306.56 1112.41,1305.01 1114.61,1303.44 1116.81,1301.87 1119.01,1300.27 1121.21,1298.66 1123.41,1297.03 1125.61,1295.39 1127.81,1293.73 1130.01,1292.06 1132.21,1290.36 1134.4,1288.65 1136.6,1286.92 1138.8,1285.18 1141,1283.42 1143.2,1281.64 1145.4,1279.84 1147.6,1278.02 1149.8,1276.19 1152,1274.34 1154.2,1272.46 1156.4,1270.57 1158.6,1268.66 1160.79,1266.74 1162.99,1264.79 1165.19,1262.82 1167.39,1260.83 1169.59,1258.83 1171.79,1256.8 1173.99,1254.75 1176.19,1252.68 1178.39,1250.59 1180.59,1248.48 1182.79,1246.35 1184.99,1244.2 1187.19,1242.02 1189.38,1239.83 1191.58,1237.61 1193.78,1235.37 1195.98,1233.1 1198.18,1230.82 1200.38,1228.51 1202.58,1226.18 1204.78,1223.82 1206.98,1221.44 1209.18,1219.04 1211.38,1216.61 1213.58,1214.16 1215.77,1211.68 1217.97,1209.18 1220.17,1206.65 1222.37,1204.1 1224.57,1201.52 1226.77,1198.92 1228.97,1196.29 1231.17,1193.63 1233.37,1190.95 1235.57,1188.24 1237.77,1185.5 1239.97,1182.73 1242.16,1179.94 1244.36,1177.12 1246.56,1174.27 1248.76,1171.39 1250.96,1168.48 1253.16,1165.55 1255.36,1162.58 1257.56,1159.59 1259.76,1156.56 1261.96,1153.5 1264.16,1150.42 1266.36,1147.3 1268.56,1144.15 1270.75,1140.97 1272.95,1137.75 1275.15,1134.51 1277.35,1131.23 1279.55,1127.92 1281.75,1124.57 1283.95,1121.2 1286.15,1117.78 1288.35,1114.34 1290.55,1110.86 1292.75,1107.34 1294.95,1103.79 1297.14,1100.2 1299.34,1096.58 1301.54,1092.92 1303.74,1089.22 1305.94,1085.49 1308.14,1081.72 1310.34,1077.91 1312.54,1074.06 1314.74,1070.18 1316.94,1066.25 1319.14,1062.29 1321.34,1058.28 1323.53,1054.24 1325.73,1050.15 1327.93,1046.02 1330.13,1041.86 1332.33,1037.65 1334.53,1033.39 1336.73,1029.1 1338.93,1024.76 1341.13,1020.38 1343.33,1015.95 1345.53,1011.48 1347.73,1006.96 1349.93,1002.4 1352.12,997.794 1354.32,993.14 1356.52,988.439 1358.72,983.691 1360.92,978.896 1363.12,974.052 1365.32,969.159 1367.52,964.217 1369.72,959.226 1371.92,954.184 1374.12,949.092 1376.32,943.948 1378.51,938.753 1380.71,933.505 1382.91,928.205 1385.11,922.851 1387.31,917.443 1389.51,911.981 1391.71,906.464 1393.91,900.892 1396.11,895.263 1398.31,889.578 1400.51,883.836 1402.71,878.036 1404.9,872.178 1407.1,866.261 1409.3,860.285 1411.5,854.248 1413.7,848.151 1415.9,841.993 1418.1,835.772 1420.3,829.489 1422.5,823.143 1424.7,816.733 1426.9,810.259 1429.1,803.719 1431.3,797.114 1433.49,790.442 1435.69,783.703 1437.89,776.897 1440.09,770.021 1442.29,763.077 1444.49,756.063 1446.69,748.978 1448.89,741.821 1451.09,734.593 1453.29,727.292 1455.49,719.917 1457.69,712.469 1459.88,704.945 1462.08,697.345 1464.28,689.669 1466.48,681.915 1468.68,674.084 1470.88,666.173 1473.08,658.183 1475.28,650.113 1477.48,641.961 1479.68,633.727 1481.88,625.41 1484.08,617.009 1486.27,608.524 1488.47,599.954 1490.67,591.297 1492.87,582.553 1495.07,573.721 1497.27,564.801 1499.47,555.79 1501.67,546.689 1503.87,537.497 1506.07,528.212 1508.27,518.834 1510.47,509.362 1512.67,499.795 1514.86,490.131 1517.06,480.37 1519.26,470.511 1521.46,460.553 1523.66,450.495 1525.86,440.335 1528.06,945.218 1530.26,1200.2 1532.46,1197.58 1534.66,1194.94 1536.86,1192.27 1539.06,1189.57 1541.25,1186.85 1543.45,1184.09 1545.65,1181.31 1547.85,1178.51 1550.05,1175.67 1552.25,1172.81 1554.45,1169.92 1556.65,1166.99 1558.85,1164.04 1561.05,1161.06 1563.25,1158.05 1565.45,1155.01 1567.65,1151.94 1569.84,1148.83 1572.04,1145.7 1574.24,1142.53 1576.44,1139.34 1578.64,1136.11 1580.84,1132.84 1583.04,1129.55 1585.24,1126.22 1587.44,1122.86 1589.64,1119.46 1591.84,1116.04 1594.04,1112.57 1596.23,1109.07 1598.43,1105.54 1600.63,1101.97 1602.83,1098.36 1605.03,1094.72 1607.23,1091.04 1609.43,1087.33 1611.63,1083.57 1613.83,1079.78 1616.03,1075.96 1618.23,1072.09 1620.43,1068.18 1622.62,1064.24 1624.82,1060.25 1627.02,1056.23 1629.22,1052.16 1631.42,1048.05 1633.62,1043.91 1635.82,1039.72 1638.02,1035.49 1640.22,1031.21 1642.42,1026.89 1644.62,1022.53 1646.82,1018.13 1649.02,1013.68 1651.21,1009.19 1653.41,1004.65 1655.61,1000.06 1657.81,995.431 1660.01,990.753 1662.21,986.029 1664.41,981.257 1666.61,976.437 1668.81,971.568 1671.01,966.651 1673.21,961.684 1675.41,956.667 1677.6,951.6 1679.8,946.482 1682,941.312 1684.2,936.09 1686.4,930.816 1688.6,925.488 1690.8,920.107 1693,914.672 1695.2,909.182 1697.4,903.637 1699.6,898.036 1701.8,892.379 1703.99,886.665 1706.19,880.894 1708.39,875.064 1710.59,869.176 1712.79,863.229 1714.99,857.221 1717.19,851.154 1719.39,845.025 1721.59,838.835 1723.79,832.582 1725.99,826.267 1728.19,819.888 1730.39,813.444 1732.58,806.936 1734.78,800.363 1736.98,793.723 1739.18,787.016 1741.38,780.242 1743.58,773.4 1745.78,766.489 1747.98,759.509 1750.18,752.458 1752.38,745.336 1754.58,738.142 1756.78,730.877 1758.97,723.538 1761.17,716.125 1763.37,708.637 1765.57,701.075 1767.77,693.436 1769.97,685.72 1772.17,677.927 1774.37,670.056 1776.57,662.105 1778.77,654.074 1780.97,645.963 1783.17,637.769 1785.36,629.494 1787.56,621.135 1789.76,612.692 1791.96,604.164 1794.16,595.55 1796.36,586.85 1798.56,578.062 1800.76,569.186 1802.96,560.221 1805.16,551.165 1807.36,542.019 1809.56,532.78 1811.76,523.449 1813.95,514.023 1816.15,504.503 1818.35,494.887 1820.55,485.175 1822.75,475.365 1824.95,465.456 1827.15,455.447 1829.35,445.338 1831.55,435.126 1833.75,424.813 1835.95,414.395 1838.15,403.873 1840.34,393.244 1842.54,382.509 1844.74,371.666 1846.94,360.713 1849.14,349.65 1851.34,338.476 1853.54,327.19 1855.74,315.789 1857.94,304.275 1860.14,292.644 1862.34,280.896 1864.54,269.03 1866.73,257.044 1868.93,244.938 1871.13,232.71 1873.33,220.359 1875.53,207.884 1877.73,195.283 1879.93,182.556 1882.13,169.701 1884.33,156.716 1886.53,801.981 1888.73,1127.86 1890.93,1124.51 1893.13,1121.14 1895.32,1117.72 1897.52,1114.28 1899.72,1110.79 1901.92,1107.28 1904.12,1103.73 1906.32,1100.14 1908.52,1096.51 1910.72,1092.85 1912.92,1089.16 1915.12,1085.42 1917.32,1081.65 1919.52,1077.84 1921.71,1073.99 1923.91,1070.1 1926.11,1066.18 1928.31,1062.21 1930.51,1058.21 1932.71,1054.16 1934.91,1050.08 1937.11,1045.95 1939.31,1041.78 1941.51,1037.57 1943.71,1033.31 1945.91,1029.02 1948.1,1024.68 1950.3,1020.3 1952.5,1015.87 1954.7,1011.4 1956.9,1006.88 1959.1,1002.32 1961.3,997.709 1963.5,993.055 1965.7,988.354 1967.9,983.605 1970.1,978.809 1972.3,973.964 1974.5,969.071 1976.69,964.129 1978.89,959.136 1981.09,954.094 1983.29,949.001 1985.49,943.856 1987.69,938.66 1989.89,933.412 1992.09,928.11 1994.29,922.756 1996.49,917.347 1998.69,911.884 2000.89,1183.36 2003.08,1180.58 2005.28,1177.76 2007.48,1174.92 2009.68,1172.05 2011.88,1169.15 2014.08,1166.22 2016.28,1163.26 2018.48,1160.27 2020.68,1157.25 2022.88,1154.2 2025.08,1151.12 2027.28,1148.01 2029.47,1144.87 2031.67,1141.69 2033.87,1138.49 2036.07,1135.25 2038.27,1131.98 2040.47,1128.68 2042.67,1125.34 2044.87,1121.97 2047.07,1118.56 2049.27,1115.13 2051.47,1111.65 2053.67,1108.14 2055.87,1104.6 2058.06,1101.02 2060.26,1097.41 2062.46,1093.76 2064.66,1090.07 2066.86,1086.34 2069.06,1082.58 2071.26,1078.78 2073.46,1074.94 2075.66,1071.06 2077.86,1067.15 2080.06,1063.19 2082.26,1059.19 2084.45,1055.16 2086.65,1051.08 2088.85,1046.96 2091.05,1042.8 2093.25,1038.6 2095.45,1034.36 2097.65,1030.08 2099.85,1025.75 2102.05,1021.37 2104.25,1016.96 2106.45,1012.5 2108.65,1007.99 2110.84,1003.44 2113.04,998.845 2115.24,994.202 2117.44,989.513 2119.64,984.776 2121.84,979.991 2124.04,975.159 2126.24,970.278 2128.44,965.347 2130.64,960.368 2132.84,955.338 2135.04,950.257 2137.24,945.125 2139.43,939.942 2141.63,934.706 2143.83,929.418 2146.03,924.076 2148.23,918.681 2150.43,913.232 2152.63,907.727 2154.83,902.167 2157.03,896.552 2159.23,890.879 2161.43,885.15 2163.63,879.363 2165.82,873.518 2168.02,867.614 2170.22,861.651 2172.42,855.627 2174.62,849.544 2176.82,843.398 2179.02,837.192 2181.22,830.922 2183.42,824.59 2185.62,818.194 2187.82,811.733 2190.02,805.208 2192.22,798.616 2194.41,791.959 2196.61,785.235 2198.81,778.443 2201.01,771.583 2203.21,764.653 2205.41,757.654 2207.61,750.585 2209.81,743.445 2212.01,736.233 2214.21,728.948 2216.41,721.59 2218.61,714.158 2220.8,706.651 2223,699.069 2225.2,691.41 2227.4,683.675 2229.6,675.861 2231.8,667.969 2234,659.998 2236.2,651.946 2238.4,643.814 2240.6,635.599 2242.8,627.302 2245,618.921 2247.19,610.456 2249.39,601.906 2251.59,593.27 2253.79,584.546 2255.99,575.735 2258.19,566.836 2260.39,557.846 2262.59,548.767 2264.79,539.595 2266.99,530.332 2269.19,520.975 2271.39,511.524 2273.59,501.978 2275.78,492.337 2277.98,482.598 2280.18,472.761 2282.38,462.825 2284.58,452.789 2286.78,442.653 2288.98,432.414 2291.18,422.073 2293.38,411.627 2295.58,401.077 2297.78,390.42 2299.98,379.656 2302.17,368.784 2304.37,357.802 2306.57,346.71 2308.77,335.507 2310.97,324.19 2313.17,312.76 2315.37,301.215 2317.57,289.554 2319.77,277.775 2321.97,265.878 2324.17,253.861 2326.37,241.723 2328.56,229.464 2330.76,217.081 2332.96,204.573 2335.16,191.939 2337.36,179.178 2339.56,166.289 2341.76,153.271 2343.96,140.121 2346.16,126.839 2348.36,113.423 2350.56,99.8726 2352.76,86.1857 "/>
<path clip-path="url(#clip930)" d="M228.998 196.789 L537.794 196.789 L537.794 93.1086 L228.998 93.1086  Z" fill="#ffffff" fill-rule="evenodd" fill-opacity="1"/>
<polyline clip-path="url(#clip930)" style="stroke:#000000; stroke-linecap:round; stroke-linejoin:round; stroke-width:4; stroke-opacity:1; fill:none" points="228.998,196.789 537.794,196.789 537.794,93.1086 228.998,93.1086 228.998,196.789 "/>
<polyline clip-path="url(#clip930)" style="stroke:#009af9; stroke-linecap:round; stroke-linejoin:round; stroke-width:8; stroke-opacity:1; fill:none" points="253.409,144.949 399.875,144.949 "/>
<path clip-path="url(#clip930)" d="M424.286 151.997 L424.286 136.303 L428.545 136.303 L428.545 151.835 Q428.545 155.516 429.98 157.368 Q431.416 159.196 434.286 159.196 Q437.735 159.196 439.726 156.997 Q441.74 154.798 441.74 151.002 L441.74 136.303 L445.999 136.303 L445.999 162.229 L441.74 162.229 L441.74 158.247 Q440.189 160.608 438.129 161.766 Q436.092 162.9 433.383 162.9 Q428.916 162.9 426.601 160.122 Q424.286 157.344 424.286 151.997 M435.004 135.678 L435.004 135.678 Z" fill="#000000" fill-rule="nonzero" fill-opacity="1" /><path clip-path="url(#clip930)" d="M454.378 126.21 L464.193 126.21 L464.193 129.52 L458.638 129.52 L458.638 165.168 L464.193 165.168 L464.193 168.479 L454.378 168.479 L454.378 126.21 Z" fill="#000000" fill-rule="nonzero" fill-opacity="1" /><path clip-path="url(#clip930)" d="M474.679 158.293 L482.318 158.293 L482.318 131.928 L474.008 133.595 L474.008 129.335 L482.272 127.669 L486.948 127.669 L486.948 158.293 L494.587 158.293 L494.587 162.229 L474.679 162.229 L474.679 158.293 Z" fill="#000000" fill-rule="nonzero" fill-opacity="1" /><path clip-path="url(#clip930)" d="M513.383 126.21 L513.383 168.479 L503.568 168.479 L503.568 165.168 L509.1 165.168 L509.1 129.52 L503.568 129.52 L503.568 126.21 L513.383 126.21 Z" fill="#000000" fill-rule="nonzero" fill-opacity="1" /></svg>
