<?xml version="1.0" encoding="utf-8"?>
<svg xmlns="http://www.w3.org/2000/svg" xmlns:xlink="http://www.w3.org/1999/xlink" width="600" height="400" viewBox="0 0 2400 1600">
<defs>
  <clipPath id="clip900">
    <rect x="0" y="0" width="2400" height="1600"/>
  </clipPath>
</defs>
<path clip-path="url(#clip900)" d="M0 1600 L2400 1600 L2400 0 L0 0  Z" fill="#ffffff" fill-rule="evenodd" fill-opacity="1"/>
<defs>
  <clipPath id="clip901">
    <rect x="155" y="47" width="2198" height="1377"/>
  </clipPath>
</defs>
<path clip-path="url(#clip900)" d="M155.765 1423.18 L2352.76 1423.18 L2352.76 47.2441 L155.765 47.2441  Z" fill="#ffffff" fill-rule="evenodd" fill-opacity="1"/>
<polyline clip-path="url(#clip901)" style="stroke:#000000; stroke-linecap:round; stroke-linejoin:round; stroke-width:2; stroke-opacity:0.1; fill:none" points="155.765,1423.18 155.765,47.2441 "/>
<polyline clip-path="url(#clip901)" style="stroke:#000000; stroke-linecap:round; stroke-linejoin:round; stroke-width:2; stroke-opacity:0.1; fill:none" points="595.163,1423.18 595.163,47.2441 "/>
<polyline clip-path="url(#clip901)" style="stroke:#000000; stroke-linecap:round; stroke-linejoin:round; stroke-width:2; stroke-opacity:0.1; fill:none" points="1034.56,1423.18 1034.56,47.2441 "/>
<polyline clip-path="url(#clip901)" style="stroke:#000000; stroke-linecap:round; stroke-linejoin:round; stroke-width:2; stroke-opacity:0.1; fill:none" points="1473.96,1423.18 1473.96,47.2441 "/>
<polyline clip-path="url(#clip901)" style="stroke:#000000; stroke-linecap:round; stroke-linejoin:round; stroke-width:2; stroke-opacity:0.1; fill:none" points="1913.36,1423.18 1913.36,47.2441 "/>
<polyline clip-path="url(#clip901)" style="stroke:#000000; stroke-linecap:round; stroke-linejoin:round; stroke-width:2; stroke-opacity:0.1; fill:none" points="2352.76,1423.18 2352.76,47.2441 "/>
<polyline clip-path="url(#clip901)" style="stroke:#000000; stroke-linecap:round; stroke-linejoin:round; stroke-width:2; stroke-opacity:0.1; fill:none" points="155.765,1247.71 2352.76,1247.71 "/>
<polyline clip-path="url(#clip901)" style="stroke:#000000; stroke-linecap:round; stroke-linejoin:round; stroke-width:2; stroke-opacity:0.1; fill:none" points="155.765,1020.17 2352.76,1020.17 "/>
<polyline clip-path="url(#clip901)" style="stroke:#000000; stroke-linecap:round; stroke-linejoin:round; stroke-width:2; stroke-opacity:0.1; fill:none" points="155.765,792.632 2352.76,792.632 "/>
<polyline clip-path="url(#clip901)" style="stroke:#000000; stroke-linecap:round; stroke-linejoin:round; stroke-width:2; stroke-opacity:0.1; fill:none" points="155.765,565.091 2352.76,565.091 "/>
<polyline clip-path="url(#clip901)" style="stroke:#000000; stroke-linecap:round; stroke-linejoin:round; stroke-width:2; stroke-opacity:0.1; fill:none" points="155.765,337.55 2352.76,337.55 "/>
<polyline clip-path="url(#clip901)" style="stroke:#000000; stroke-linecap:round; stroke-linejoin:round; stroke-width:2; stroke-opacity:0.1; fill:none" points="155.765,110.009 2352.76,110.009 "/>
<polyline clip-path="url(#clip900)" style="stroke:#000000; stroke-linecap:round; stroke-linejoin:round; stroke-width:4; stroke-opacity:1; fill:none" points="155.765,1423.18 2352.76,1423.18 "/>
<polyline clip-path="url(#clip900)" style="stroke:#000000; stroke-linecap:round; stroke-linejoin:round; stroke-width:4; stroke-opacity:1; fill:none" points="155.765,1423.18 155.765,1404.28 "/>
<polyline clip-path="url(#clip900)" style="stroke:#000000; stroke-linecap:round; stroke-linejoin:round; stroke-width:4; stroke-opacity:1; fill:none" points="595.163,1423.18 595.163,1404.28 "/>
<polyline clip-path="url(#clip900)" style="stroke:#000000; stroke-linecap:round; stroke-linejoin:round; stroke-width:4; stroke-opacity:1; fill:none" points="1034.56,1423.18 1034.56,1404.28 "/>
<polyline clip-path="url(#clip900)" style="stroke:#000000; stroke-linecap:round; stroke-linejoin:round; stroke-width:4; stroke-opacity:1; fill:none" points="1473.96,1423.18 1473.96,1404.28 "/>
<polyline clip-path="url(#clip900)" style="stroke:#000000; stroke-linecap:round; stroke-linejoin:round; stroke-width:4; stroke-opacity:1; fill:none" points="1913.36,1423.18 1913.36,1404.28 "/>
<polyline clip-path="url(#clip900)" style="stroke:#000000; stroke-linecap:round; stroke-linejoin:round; stroke-width:4; stroke-opacity:1; fill:none" points="2352.76,1423.18 2352.76,1404.28 "/>
<path clip-path="url(#clip900)" d="M155.765 1454.1 Q152.154 1454.1 150.325 1457.66 Q148.52 1461.2 148.52 1468.33 Q148.52 1475.44 150.325 1479.01 Q152.154 1482.55 155.765 1482.55 Q159.399 1482.55 161.205 1479.01 Q163.033 1475.44 163.033 1468.33 Q163.033 1461.2 161.205 1457.66 Q159.399 1454.1 155.765 1454.1 M155.765 1450.39 Q161.575 1450.39 164.631 1455 Q167.709 1459.58 167.709 1468.33 Q167.709 1477.06 164.631 1481.67 Q161.575 1486.25 155.765 1486.25 Q149.955 1486.25 146.876 1481.67 Q143.821 1477.06 143.821 1468.33 Q143.821 1459.58 146.876 1455 Q149.955 1450.39 155.765 1450.39 Z" fill="#000000" fill-rule="nonzero" fill-opacity="1" /><path clip-path="url(#clip900)" d="M589.816 1481.64 L606.135 1481.64 L606.135 1485.58 L584.191 1485.58 L584.191 1481.64 Q586.853 1478.89 591.436 1474.26 Q596.043 1469.61 597.223 1468.27 Q599.469 1465.74 600.348 1464.01 Q601.251 1462.25 601.251 1460.56 Q601.251 1457.8 599.307 1456.07 Q597.385 1454.33 594.283 1454.33 Q592.084 1454.33 589.631 1455.09 Q587.2 1455.86 584.422 1457.41 L584.422 1452.69 Q587.246 1451.55 589.7 1450.97 Q592.154 1450.39 594.191 1450.39 Q599.561 1450.39 602.756 1453.08 Q605.95 1455.77 605.95 1460.26 Q605.95 1462.39 605.14 1464.31 Q604.353 1466.2 602.246 1468.8 Q601.668 1469.47 598.566 1472.69 Q595.464 1475.88 589.816 1481.64 Z" fill="#000000" fill-rule="nonzero" fill-opacity="1" /><path clip-path="url(#clip900)" d="M1037.57 1455.09 L1025.77 1473.54 L1037.57 1473.54 L1037.57 1455.09 M1036.34 1451.02 L1042.22 1451.02 L1042.22 1473.54 L1047.15 1473.54 L1047.15 1477.43 L1042.22 1477.43 L1042.22 1485.58 L1037.57 1485.58 L1037.57 1477.43 L1021.97 1477.43 L1021.97 1472.92 L1036.34 1451.02 Z" fill="#000000" fill-rule="nonzero" fill-opacity="1" /><path clip-path="url(#clip900)" d="M1474.36 1466.44 Q1471.22 1466.44 1469.36 1468.59 Q1467.54 1470.74 1467.54 1474.49 Q1467.54 1478.22 1469.36 1480.39 Q1471.22 1482.55 1474.36 1482.55 Q1477.51 1482.55 1479.34 1480.39 Q1481.19 1478.22 1481.19 1474.49 Q1481.19 1470.74 1479.34 1468.59 Q1477.51 1466.44 1474.36 1466.44 M1483.65 1451.78 L1483.65 1456.04 Q1481.89 1455.21 1480.08 1454.77 Q1478.3 1454.33 1476.54 1454.33 Q1471.91 1454.33 1469.46 1457.45 Q1467.03 1460.58 1466.68 1466.9 Q1468.05 1464.89 1470.11 1463.82 Q1472.17 1462.73 1474.64 1462.73 Q1479.85 1462.73 1482.86 1465.9 Q1485.89 1469.05 1485.89 1474.49 Q1485.89 1479.82 1482.74 1483.03 Q1479.6 1486.25 1474.36 1486.25 Q1468.37 1486.25 1465.2 1481.67 Q1462.03 1477.06 1462.03 1468.33 Q1462.03 1460.14 1465.92 1455.28 Q1469.8 1450.39 1476.36 1450.39 Q1478.11 1450.39 1479.9 1450.74 Q1481.7 1451.09 1483.65 1451.78 Z" fill="#000000" fill-rule="nonzero" fill-opacity="1" /><path clip-path="url(#clip900)" d="M1913.36 1469.17 Q1910.02 1469.17 1908.1 1470.95 Q1906.2 1472.73 1906.2 1475.86 Q1906.2 1478.98 1908.1 1480.77 Q1910.02 1482.55 1913.36 1482.55 Q1916.69 1482.55 1918.61 1480.77 Q1920.53 1478.96 1920.53 1475.86 Q1920.53 1472.73 1918.61 1470.95 Q1916.71 1469.17 1913.36 1469.17 M1908.68 1467.18 Q1905.67 1466.44 1903.98 1464.38 Q1902.32 1462.32 1902.32 1459.35 Q1902.32 1455.21 1905.26 1452.8 Q1908.22 1450.39 1913.36 1450.39 Q1918.52 1450.39 1921.46 1452.8 Q1924.4 1455.21 1924.4 1459.35 Q1924.4 1462.32 1922.71 1464.38 Q1921.04 1466.44 1918.06 1467.18 Q1921.44 1467.96 1923.31 1470.26 Q1925.21 1472.55 1925.21 1475.86 Q1925.21 1480.88 1922.13 1483.57 Q1919.08 1486.25 1913.36 1486.25 Q1907.64 1486.25 1904.56 1483.57 Q1901.51 1480.88 1901.51 1475.86 Q1901.51 1472.55 1903.4 1470.26 Q1905.3 1467.96 1908.68 1467.18 M1906.97 1459.79 Q1906.97 1462.48 1908.64 1463.98 Q1910.33 1465.49 1913.36 1465.49 Q1916.37 1465.49 1918.06 1463.98 Q1919.77 1462.48 1919.77 1459.79 Q1919.77 1457.11 1918.06 1455.6 Q1916.37 1454.1 1913.36 1454.1 Q1910.33 1454.1 1908.64 1455.6 Q1906.97 1457.11 1906.97 1459.79 Z" fill="#000000" fill-rule="nonzero" fill-opacity="1" /><path clip-path="url(#clip900)" d="M2327.44 1481.64 L2335.08 1481.64 L2335.08 1455.28 L2326.77 1456.95 L2326.77 1452.69 L2335.04 1451.02 L2339.71 1451.02 L2339.71 1481.64 L2347.35 1481.64 L2347.35 1485.58 L2327.44 1485.58 L2327.44 1481.64 Z" fill="#000000" fill-rule="nonzero" fill-opacity="1" /><path clip-path="url(#clip900)" d="M2366.8 1454.1 Q2363.18 1454.1 2361.36 1457.66 Q2359.55 1461.2 2359.55 1468.33 Q2359.55 1475.44 2361.36 1479.01 Q2363.18 1482.55 2366.8 1482.55 Q2370.43 1482.55 2372.23 1479.01 Q2374.06 1475.44 2374.06 1468.33 Q2374.06 1461.2 2372.23 1457.66 Q2370.43 1454.1 2366.8 1454.1 M2366.8 1450.39 Q2372.61 1450.39 2375.66 1455 Q2378.74 1459.58 2378.74 1468.33 Q2378.74 1477.06 2375.66 1481.67 Q2372.61 1486.25 2366.8 1486.25 Q2360.99 1486.25 2357.91 1481.67 Q2354.85 1477.06 2354.85 1468.33 Q2354.85 1459.58 2357.91 1455 Q2360.99 1450.39 2366.8 1450.39 Z" fill="#000000" fill-rule="nonzero" fill-opacity="1" /><path clip-path="url(#clip900)" d="M1253.32 1522.27 L1253.32 1532.4 L1265.38 1532.4 L1265.38 1536.95 L1253.32 1536.95 L1253.32 1556.3 Q1253.32 1560.66 1254.5 1561.9 Q1255.71 1563.14 1259.37 1563.14 L1265.38 1563.14 L1265.38 1568.04 L1259.37 1568.04 Q1252.59 1568.04 1250.01 1565.53 Q1247.43 1562.98 1247.43 1556.3 L1247.43 1536.95 L1243.14 1536.95 L1243.14 1532.4 L1247.43 1532.4 L1247.43 1522.27 L1253.32 1522.27 Z" fill="#000000" fill-rule="nonzero" fill-opacity="1" /><polyline clip-path="url(#clip900)" style="stroke:#000000; stroke-linecap:round; stroke-linejoin:round; stroke-width:4; stroke-opacity:1; fill:none" points="155.765,1423.18 155.765,47.2441 "/>
<polyline clip-path="url(#clip900)" style="stroke:#000000; stroke-linecap:round; stroke-linejoin:round; stroke-width:4; stroke-opacity:1; fill:none" points="155.765,1247.71 174.663,1247.71 "/>
<polyline clip-path="url(#clip900)" style="stroke:#000000; stroke-linecap:round; stroke-linejoin:round; stroke-width:4; stroke-opacity:1; fill:none" points="155.765,1020.17 174.663,1020.17 "/>
<polyline clip-path="url(#clip900)" style="stroke:#000000; stroke-linecap:round; stroke-linejoin:round; stroke-width:4; stroke-opacity:1; fill:none" points="155.765,792.632 174.663,792.632 "/>
<polyline clip-path="url(#clip900)" style="stroke:#000000; stroke-linecap:round; stroke-linejoin:round; stroke-width:4; stroke-opacity:1; fill:none" points="155.765,565.091 174.663,565.091 "/>
<polyline clip-path="url(#clip900)" style="stroke:#000000; stroke-linecap:round; stroke-linejoin:round; stroke-width:4; stroke-opacity:1; fill:none" points="155.765,337.55 174.663,337.55 "/>
<polyline clip-path="url(#clip900)" style="stroke:#000000; stroke-linecap:round; stroke-linejoin:round; stroke-width:4; stroke-opacity:1; fill:none" points="155.765,110.009 174.663,110.009 "/>
<path clip-path="url(#clip900)" d="M63.5847 1233.51 Q59.9736 1233.51 58.1449 1237.08 Q56.3393 1240.62 56.3393 1247.75 Q56.3393 1254.85 58.1449 1258.42 Q59.9736 1261.96 63.5847 1261.96 Q67.2189 1261.96 69.0244 1258.42 Q70.8531 1254.85 70.8531 1247.75 Q70.8531 1240.62 69.0244 1237.08 Q67.2189 1233.51 63.5847 1233.51 M63.5847 1229.81 Q69.3948 1229.81 72.4503 1234.42 Q75.529 1239 75.529 1247.75 Q75.529 1256.48 72.4503 1261.08 Q69.3948 1265.66 63.5847 1265.66 Q57.7745 1265.66 54.6958 1261.08 Q51.6403 1256.48 51.6403 1247.75 Q51.6403 1239 54.6958 1234.42 Q57.7745 1229.81 63.5847 1229.81 Z" fill="#000000" fill-rule="nonzero" fill-opacity="1" /><path clip-path="url(#clip900)" d="M83.7466 1259.11 L88.6308 1259.11 L88.6308 1264.99 L83.7466 1264.99 L83.7466 1259.11 Z" fill="#000000" fill-rule="nonzero" fill-opacity="1" /><path clip-path="url(#clip900)" d="M98.8622 1230.43 L117.219 1230.43 L117.219 1234.37 L103.145 1234.37 L103.145 1242.84 Q104.163 1242.49 105.182 1242.33 Q106.2 1242.15 107.219 1242.15 Q113.006 1242.15 116.385 1245.32 Q119.765 1248.49 119.765 1253.91 Q119.765 1259.48 116.293 1262.59 Q112.82 1265.66 106.501 1265.66 Q104.325 1265.66 102.057 1265.29 Q99.8113 1264.92 97.4039 1264.18 L97.4039 1259.48 Q99.4872 1260.62 101.709 1261.17 Q103.932 1261.73 106.408 1261.73 Q110.413 1261.73 112.751 1259.62 Q115.089 1257.52 115.089 1253.91 Q115.089 1250.29 112.751 1248.19 Q110.413 1246.08 106.408 1246.08 Q104.534 1246.08 102.659 1246.5 Q100.807 1246.92 98.8622 1247.79 L98.8622 1230.43 Z" fill="#000000" fill-rule="nonzero" fill-opacity="1" /><path clip-path="url(#clip900)" d="M53.3995 1033.52 L61.0384 1033.52 L61.0384 1007.15 L52.7282 1008.82 L52.7282 1004.56 L60.9921 1002.89 L65.668 1002.89 L65.668 1033.52 L73.3068 1033.52 L73.3068 1037.45 L53.3995 1037.45 L53.3995 1033.52 Z" fill="#000000" fill-rule="nonzero" fill-opacity="1" /><path clip-path="url(#clip900)" d="M82.7512 1031.57 L87.6354 1031.57 L87.6354 1037.45 L82.7512 1037.45 L82.7512 1031.57 Z" fill="#000000" fill-rule="nonzero" fill-opacity="1" /><path clip-path="url(#clip900)" d="M107.821 1005.97 Q104.209 1005.97 102.381 1009.54 Q100.575 1013.08 100.575 1020.21 Q100.575 1027.31 102.381 1030.88 Q104.209 1034.42 107.821 1034.42 Q111.455 1034.42 113.26 1030.88 Q115.089 1027.31 115.089 1020.21 Q115.089 1013.08 113.26 1009.54 Q111.455 1005.97 107.821 1005.97 M107.821 1002.27 Q113.631 1002.27 116.686 1006.87 Q119.765 1011.46 119.765 1020.21 Q119.765 1028.93 116.686 1033.54 Q113.631 1038.12 107.821 1038.12 Q102.01 1038.12 98.9317 1033.54 Q95.8761 1028.93 95.8761 1020.21 Q95.8761 1011.46 98.9317 1006.87 Q102.01 1002.27 107.821 1002.27 Z" fill="#000000" fill-rule="nonzero" fill-opacity="1" /><path clip-path="url(#clip900)" d="M54.3949 805.976 L62.0337 805.976 L62.0337 779.611 L53.7236 781.278 L53.7236 777.018 L61.9874 775.352 L66.6633 775.352 L66.6633 805.976 L74.3022 805.976 L74.3022 809.912 L54.3949 809.912 L54.3949 805.976 Z" fill="#000000" fill-rule="nonzero" fill-opacity="1" /><path clip-path="url(#clip900)" d="M83.7466 804.032 L88.6308 804.032 L88.6308 809.912 L83.7466 809.912 L83.7466 804.032 Z" fill="#000000" fill-rule="nonzero" fill-opacity="1" /><path clip-path="url(#clip900)" d="M98.8622 775.352 L117.219 775.352 L117.219 779.287 L103.145 779.287 L103.145 787.759 Q104.163 787.412 105.182 787.25 Q106.2 787.065 107.219 787.065 Q113.006 787.065 116.385 790.236 Q119.765 793.407 119.765 798.824 Q119.765 804.402 116.293 807.504 Q112.82 810.583 106.501 810.583 Q104.325 810.583 102.057 810.213 Q99.8113 809.842 97.4039 809.101 L97.4039 804.402 Q99.4872 805.537 101.709 806.092 Q103.932 806.648 106.408 806.648 Q110.413 806.648 112.751 804.541 Q115.089 802.435 115.089 798.824 Q115.089 795.213 112.751 793.106 Q110.413 791 106.408 791 Q104.534 791 102.659 791.416 Q100.807 791.833 98.8622 792.713 L98.8622 775.352 Z" fill="#000000" fill-rule="nonzero" fill-opacity="1" /><path clip-path="url(#clip900)" d="M56.6171 578.435 L72.9365 578.435 L72.9365 582.371 L50.9921 582.371 L50.9921 578.435 Q53.6541 575.681 58.2375 571.051 Q62.8439 566.399 64.0245 565.056 Q66.2698 562.533 67.1494 560.797 Q68.0522 559.037 68.0522 557.348 Q68.0522 554.593 66.1078 552.857 Q64.1865 551.121 61.0847 551.121 Q58.8856 551.121 56.4319 551.885 Q54.0014 552.649 51.2236 554.2 L51.2236 549.477 Q54.0477 548.343 56.5014 547.764 Q58.955 547.186 60.9921 547.186 Q66.3624 547.186 69.5568 549.871 Q72.7513 552.556 72.7513 557.047 Q72.7513 559.176 71.9411 561.098 Q71.1541 562.996 69.0476 565.588 Q68.4689 566.26 65.367 569.477 Q62.2652 572.672 56.6171 578.435 Z" fill="#000000" fill-rule="nonzero" fill-opacity="1" /><path clip-path="url(#clip900)" d="M82.7512 576.491 L87.6354 576.491 L87.6354 582.371 L82.7512 582.371 L82.7512 576.491 Z" fill="#000000" fill-rule="nonzero" fill-opacity="1" /><path clip-path="url(#clip900)" d="M107.821 550.889 Q104.209 550.889 102.381 554.454 Q100.575 557.996 100.575 565.125 Q100.575 572.232 102.381 575.797 Q104.209 579.338 107.821 579.338 Q111.455 579.338 113.26 575.797 Q115.089 572.232 115.089 565.125 Q115.089 557.996 113.26 554.454 Q111.455 550.889 107.821 550.889 M107.821 547.186 Q113.631 547.186 116.686 551.792 Q119.765 556.375 119.765 565.125 Q119.765 573.852 116.686 578.459 Q113.631 583.042 107.821 583.042 Q102.01 583.042 98.9317 578.459 Q95.8761 573.852 95.8761 565.125 Q95.8761 556.375 98.9317 551.792 Q102.01 547.186 107.821 547.186 Z" fill="#000000" fill-rule="nonzero" fill-opacity="1" /><path clip-path="url(#clip900)" d="M57.6125 350.894 L73.9318 350.894 L73.9318 354.83 L51.9875 354.83 L51.9875 350.894 Q54.6495 348.14 59.2328 343.51 Q63.8393 338.858 65.0198 337.515 Q67.2652 334.992 68.1448 333.256 Q69.0476 331.496 69.0476 329.807 Q69.0476 327.052 67.1032 325.316 Q65.1819 323.58 62.08 323.58 Q59.881 323.58 57.4273 324.344 Q54.9967 325.108 52.219 326.658 L52.219 321.936 Q55.043 320.802 57.4967 320.223 Q59.9504 319.645 61.9874 319.645 Q67.3578 319.645 70.5522 322.33 Q73.7466 325.015 73.7466 329.506 Q73.7466 331.635 72.9365 333.557 Q72.1494 335.455 70.0429 338.047 Q69.4642 338.719 66.3624 341.936 Q63.2606 345.131 57.6125 350.894 Z" fill="#000000" fill-rule="nonzero" fill-opacity="1" /><path clip-path="url(#clip900)" d="M83.7466 348.95 L88.6308 348.95 L88.6308 354.83 L83.7466 354.83 L83.7466 348.95 Z" fill="#000000" fill-rule="nonzero" fill-opacity="1" /><path clip-path="url(#clip900)" d="M98.8622 320.27 L117.219 320.27 L117.219 324.205 L103.145 324.205 L103.145 332.677 Q104.163 332.33 105.182 332.168 Q106.2 331.983 107.219 331.983 Q113.006 331.983 116.385 335.154 Q119.765 338.325 119.765 343.742 Q119.765 349.32 116.293 352.422 Q112.82 355.501 106.501 355.501 Q104.325 355.501 102.057 355.131 Q99.8113 354.76 97.4039 354.019 L97.4039 349.32 Q99.4872 350.455 101.709 351.01 Q103.932 351.566 106.408 351.566 Q110.413 351.566 112.751 349.459 Q115.089 347.353 115.089 343.742 Q115.089 340.131 112.751 338.024 Q110.413 335.918 106.408 335.918 Q104.534 335.918 102.659 336.334 Q100.807 336.751 98.8622 337.631 L98.8622 320.27 Z" fill="#000000" fill-rule="nonzero" fill-opacity="1" /><path clip-path="url(#clip900)" d="M66.7559 108.654 Q70.1124 109.372 71.9874 111.641 Q73.8855 113.909 73.8855 117.242 Q73.8855 122.358 70.367 125.159 Q66.8485 127.96 60.3671 127.96 Q58.1912 127.96 55.8764 127.52 Q53.5847 127.103 51.131 126.247 L51.131 121.733 Q53.0754 122.867 55.3903 123.446 Q57.7051 124.025 60.2282 124.025 Q64.6263 124.025 66.918 122.289 Q69.2328 120.553 69.2328 117.242 Q69.2328 114.187 67.08 112.474 Q64.9504 110.738 61.131 110.738 L57.1032 110.738 L57.1032 106.895 L61.3161 106.895 Q64.7652 106.895 66.5939 105.529 Q68.4226 104.141 68.4226 101.548 Q68.4226 98.886 66.5245 97.474 Q64.6495 96.0388 61.131 96.0388 Q59.2097 96.0388 57.0106 96.4555 Q54.8115 96.8721 52.1727 97.7518 L52.1727 93.5851 Q54.8347 92.8444 57.1495 92.474 Q59.4875 92.1036 61.5476 92.1036 Q66.8717 92.1036 69.9735 94.5342 Q73.0753 96.9416 73.0753 101.062 Q73.0753 103.932 71.4318 105.923 Q69.7883 107.891 66.7559 108.654 Z" fill="#000000" fill-rule="nonzero" fill-opacity="1" /><path clip-path="url(#clip900)" d="M82.7512 121.409 L87.6354 121.409 L87.6354 127.289 L82.7512 127.289 L82.7512 121.409 Z" fill="#000000" fill-rule="nonzero" fill-opacity="1" /><path clip-path="url(#clip900)" d="M107.821 95.8073 Q104.209 95.8073 102.381 99.3721 Q100.575 102.914 100.575 110.043 Q100.575 117.15 102.381 120.715 Q104.209 124.256 107.821 124.256 Q111.455 124.256 113.26 120.715 Q115.089 117.15 115.089 110.043 Q115.089 102.914 113.26 99.3721 Q111.455 95.8073 107.821 95.8073 M107.821 92.1036 Q113.631 92.1036 116.686 96.7101 Q119.765 101.293 119.765 110.043 Q119.765 118.77 116.686 123.377 Q113.631 127.96 107.821 127.96 Q102.01 127.96 98.9317 123.377 Q95.8761 118.77 95.8761 110.043 Q95.8761 101.293 98.9317 96.7101 Q102.01 92.1036 107.821 92.1036 Z" fill="#000000" fill-rule="nonzero" fill-opacity="1" /><polyline clip-path="url(#clip901)" style="stroke:#009af9; stroke-linecap:round; stroke-linejoin:round; stroke-width:8; stroke-opacity:1; fill:none" points="155.765,1384.24 157.964,1383.32 160.163,1382.4 162.362,1381.46 164.562,1380.52 166.761,1379.57 168.96,1378.6 171.159,1377.63 173.358,1376.65 175.558,1375.66 177.757,1374.66 179.956,1373.64 182.155,1372.62 184.354,1371.59 186.554,1370.55 188.753,1369.49 190.952,1368.43 193.151,1367.35 195.35,1366.27 197.55,1365.17 199.749,1364.06 201.948,1362.95 204.147,1361.82 206.346,1360.68 208.545,1359.52 210.745,1358.36 212.944,1357.18 215.143,1355.99 217.342,1354.79 219.541,1353.58 221.741,1352.36 223.94,1351.12 226.139,1349.87 228.338,1348.61 230.537,1347.34 232.737,1346.05 234.936,1344.75 237.135,1343.44 239.334,1342.11 241.533,1340.77 243.733,1339.42 245.932,1338.05 248.131,1336.67 250.33,1335.28 252.529,1333.87 254.728,1332.45 256.928,1331.01 259.127,1329.56 261.326,1328.09 263.525,1326.61 265.724,1325.12 267.924,1323.61 270.123,1322.08 272.322,1320.54 274.521,1318.99 276.72,1317.41 278.92,1315.83 281.119,1314.22 283.318,1312.6 285.517,1310.97 287.716,1309.31 289.916,1307.64 292.115,1305.96 294.314,1304.25 296.513,1302.53 298.712,1300.8 300.911,1299.04 303.111,1297.27 305.31,1295.48 307.509,1293.67 309.708,1291.84 311.907,1290 314.107,1288.13 316.306,1286.25 318.505,1284.35 320.704,1282.43 322.903,1280.49 325.103,1278.53 327.302,1276.55 329.501,1274.55 331.7,1272.53 333.899,1270.49 336.099,1268.43 338.298,1266.35 340.497,1264.25 342.696,1262.13 344.895,1259.98 347.094,1257.82 349.294,1255.63 351.493,1253.42 353.692,1251.19 355.891,1248.93 358.09,1246.66 360.29,1244.36 362.489,1242.04 364.688,1239.69 366.887,1237.32 369.086,1234.93 371.286,1232.51 373.485,1230.07 375.684,1227.6 377.883,1225.11 380.082,1222.59 382.281,1220.05 384.481,1217.48 386.68,1214.89 388.879,1212.27 391.078,1209.62 393.277,1206.95 395.477,1204.25 397.676,1201.53 399.875,1198.77 402.074,1195.99 404.273,1193.18 406.473,1190.34 408.672,1187.48 410.871,1184.58 413.07,1181.66 415.269,1178.7 417.469,1175.72 419.668,1172.71 421.867,1169.66 424.066,1166.59 426.265,1163.48 428.464,1160.35 430.664,1157.18 432.863,1153.98 435.062,1150.75 437.261,1147.48 439.46,1144.18 441.66,1140.85 443.859,1137.49 446.058,1134.09 448.257,1130.66 450.456,1127.19 452.656,1123.69 454.855,1120.15 457.054,1116.58 459.253,1112.97 461.452,1109.33 463.652,1105.65 465.851,1101.93 468.05,1098.17 470.249,1094.38 472.448,1090.55 474.647,1086.68 476.847,1082.77 479.046,1078.82 481.245,1074.83 483.444,1070.81 485.643,1066.74 487.843,1062.63 490.042,1058.48 492.241,1054.28 494.44,1050.05 496.639,1045.77 498.839,1041.45 501.038,1037.08 503.237,1032.68 505.436,1028.22 507.635,1023.73 509.835,1019.18 512.034,1014.6 514.233,1009.96 516.432,1005.28 518.631,1000.55 520.83,995.776 523.03,990.952 525.229,986.08 527.428,981.158 529.627,976.188 531.826,971.167 534.026,966.095 536.225,960.973 538.424,955.799 540.623,950.573 542.822,945.294 545.022,939.963 547.221,934.577 549.42,929.138 551.619,923.644 553.818,918.095 556.018,912.489 558.217,906.828 560.416,901.11 562.615,895.334 564.814,889.5 567.013,883.607 569.213,877.655 571.412,871.644 573.611,865.572 575.81,859.439 578.009,853.244 580.209,846.986 582.408,840.666 584.607,834.283 586.806,827.835 589.005,821.322 591.205,814.744 593.404,808.099 595.603,801.388 597.802,794.609 600.001,787.762 602.201,780.845 604.4,773.86 606.599,766.804 608.798,759.676 610.997,752.478 613.196,745.206 615.396,737.862 617.595,730.443 619.794,722.95 621.993,715.381 624.192,707.737 626.392,700.015 628.591,692.215 630.79,684.337 632.989,676.38 635.188,668.342 637.388,660.224 639.587,652.024 641.786,643.742 643.985,635.376 646.184,626.926 648.384,618.391 650.583,609.771 652.782,601.064 654.981,592.269 657.18,583.386 659.379,574.413 661.579,565.351 663.778,556.197 665.977,546.951 668.176,537.612 670.375,528.179 672.575,518.651 674.774,509.027 676.973,499.307 679.172,982.37 681.371,977.412 683.571,972.403 685.77,967.344 687.969,962.234 690.168,957.073 692.367,951.86 694.567,946.595 696.766,941.276 698.965,935.904 701.164,930.478 703.363,924.997 705.562,919.462 707.762,913.87 709.961,908.223 712.16,902.518 714.359,896.757 716.558,890.937 718.758,885.059 720.957,879.122 723.156,873.125 725.355,867.067 727.554,860.949 729.754,854.769 731.953,848.527 734.152,842.222 736.351,835.854 738.55,829.422 740.749,822.925 742.949,816.362 745.148,809.734 747.347,803.039 749.546,796.276 751.745,789.445 753.945,782.546 756.144,775.577 758.343,768.538 760.542,761.428 762.741,754.247 764.941,746.993 767.14,739.666 769.339,732.266 771.538,724.791 773.737,717.241 775.937,709.615 778.136,701.912 780.335,694.132 782.534,686.273 784.733,678.335 786.932,670.318 789.132,662.22 791.331,654.04 793.53,1060.52 795.729,1056.35 797.928,1052.13 800.128,1047.88 802.327,1043.58 804.526,1039.23 806.725,1034.85 808.924,1030.42 811.124,1025.94 813.323,1021.42 815.522,1016.85 817.721,1012.24 819.92,1007.58 822.12,1002.88 824.319,998.128 826.518,993.328 828.717,988.48 830.916,983.583 833.115,978.637 835.315,973.641 837.514,968.595 839.713,963.498 841.912,958.35 844.111,953.15 846.311,947.898 848.51,942.593 850.709,937.235 852.908,931.823 855.107,926.356 857.307,920.835 859.506,915.257 861.705,909.624 863.904,903.934 866.103,898.187 868.303,892.382 870.502,886.518 872.701,880.596 874.9,874.613 877.099,868.571 879.298,862.467 881.498,856.303 883.697,850.076 885.896,843.786 888.095,837.433 890.294,831.017 892.494,824.535 894.693,817.988 896.892,811.376 899.091,804.696 901.29,797.95 903.49,791.136 905.689,784.253 907.888,777.3 910.087,770.278 912.286,763.186 914.486,756.021 916.685,748.785 918.884,741.476 921.083,734.094 923.282,726.637 925.481,719.106 927.681,711.499 929.88,703.815 932.079,696.054 934.278,688.215 936.477,680.297 938.677,672.3 940.876,664.222 943.075,656.063 945.274,647.821 947.473,639.497 949.673,631.089 951.872,1048.92 954.071,1044.63 956.27,1040.3 958.469,1035.93 960.669,1031.51 962.868,1027.04 965.067,1022.53 967.266,1017.98 969.465,1013.38 971.664,1008.73 973.864,1004.04 976.063,999.297 978.262,994.508 980.461,989.672 982.66,984.787 984.86,979.853 987.059,974.869 989.258,969.835 991.457,964.751 993.656,959.616 995.856,954.429 998.055,949.19 1000.25,943.898 1002.45,938.553 1004.65,933.155 1006.85,927.702 1009.05,922.194 1011.25,916.631 1013.45,911.012 1015.65,905.336 1017.85,899.604 1020.05,893.814 1022.25,887.965 1024.45,882.058 1026.64,876.091 1028.84,870.064 1031.04,863.976 1033.24,857.827 1035.44,851.617 1037.64,845.343 1039.84,839.007 1042.04,832.606 1044.24,826.142 1046.44,819.612 1048.64,813.016 1050.84,806.354 1053.03,799.625 1055.23,792.828 1057.43,785.962 1059.63,779.027 1061.83,772.023 1064.03,764.948 1066.23,757.801 1068.43,750.583 1070.63,743.292 1072.83,735.927 1075.03,728.488 1077.23,720.975 1079.42,713.386 1081.62,705.72 1083.82,697.977 1086.02,690.156 1088.22,682.257 1090.42,674.278 1092.62,666.219 1094.82,658.079 1097.02,649.857 1099.22,641.552 1101.42,633.164 1103.62,624.692 1105.82,616.135 1108.01,607.491 1110.21,598.761 1112.41,589.944 1114.61,581.037 1116.81,572.041 1119.01,562.954 1121.21,553.776 1123.41,544.506 1125.61,535.142 1127.81,525.684 1130.01,516.131 1132.21,506.482 1134.4,496.736 1136.6,486.892 1138.8,476.949 1141,466.906 1143.2,456.762 1145.4,446.516 1147.6,436.166 1149.8,425.713 1152,415.155 1154.2,404.49 1156.4,393.718 1158.6,382.838 1160.79,371.848 1162.99,360.748 1165.19,349.536 1167.39,338.211 1169.59,326.772 1171.79,315.218 1173.99,303.548 1176.19,291.761 1178.39,279.854 1180.59,267.828 1182.79,255.681 1184.99,243.412 1187.19,231.019 1189.38,218.501 1191.58,205.858 1193.78,193.087 1195.98,180.188 1198.18,167.159 1200.38,153.999 1202.58,140.706 1204.78,127.28 1206.98,113.719 1209.18,100.021 1211.38,86.1857 1213.58,773.78 1215.77,766.723 1217.97,759.595 1220.17,752.395 1222.37,745.123 1224.57,737.778 1226.77,730.358 1228.97,722.865 1231.17,715.295 1233.37,707.65 1235.57,699.928 1237.77,692.128 1239.97,684.249 1242.16,676.291 1244.36,668.254 1246.56,660.135 1248.76,651.935 1250.96,1059.45 1253.16,1055.27 1255.36,1051.04 1257.56,1046.77 1259.76,1042.46 1261.96,1038.11 1264.16,1033.71 1266.36,1029.27 1268.56,1024.78 1270.75,1020.25 1272.95,1015.67 1275.15,1011.05 1277.35,1006.38 1279.55,1001.66 1281.75,996.897 1283.95,992.085 1286.15,987.225 1288.35,982.315 1290.55,977.357 1292.75,972.348 1294.95,967.289 1297.14,962.18 1299.34,957.019 1301.54,951.806 1303.74,946.541 1305.94,941.223 1308.14,935.851 1310.34,930.426 1312.54,924.946 1314.74,919.411 1316.94,913.82 1319.14,908.173 1321.34,902.469 1323.53,896.708 1325.73,890.889 1327.93,885.011 1330.13,879.074 1332.33,873.078 1334.53,867.021 1336.73,860.903 1338.93,854.723 1341.13,848.481 1343.33,842.176 1345.53,835.808 1347.73,829.376 1349.93,822.878 1352.12,816.316 1354.32,809.687 1356.52,802.991 1358.72,796.228 1360.92,789.397 1363.12,782.497 1365.32,775.527 1367.52,768.487 1369.72,761.376 1371.92,754.194 1374.12,746.939 1376.32,739.611 1378.51,732.209 1380.71,724.733 1382.91,717.181 1385.11,709.553 1387.31,701.849 1389.51,694.067 1391.71,686.206 1393.91,678.267 1396.11,670.247 1398.31,662.147 1400.51,653.966 1402.71,645.702 1404.9,637.355 1407.1,628.925 1409.3,620.409 1411.5,611.809 1413.7,603.121 1415.9,594.347 1418.1,1030.38 1420.3,1025.9 1422.5,1021.38 1424.7,1016.82 1426.9,1012.2 1429.1,1007.55 1431.3,1002.84 1433.49,998.087 1435.69,993.286 1437.89,988.437 1440.09,983.54 1442.29,978.593 1444.49,973.596 1446.69,968.55 1448.89,963.452 1451.09,958.304 1453.29,953.103 1455.49,947.85 1457.69,942.545 1459.88,937.186 1462.08,931.773 1464.28,926.306 1466.48,920.784 1468.68,915.207 1470.88,909.573 1473.08,903.883 1475.28,898.135 1477.48,892.33 1479.68,886.466 1481.88,880.544 1484.08,874.561 1486.27,868.519 1488.47,862.416 1490.67,856.251 1492.87,850.024 1495.07,843.735 1497.27,837.382 1499.47,830.965 1501.67,824.484 1503.87,817.937 1506.07,811.324 1508.27,804.645 1510.47,797.899 1512.67,791.085 1514.86,784.202 1517.06,777.249 1519.26,770.227 1521.46,763.134 1523.66,755.969 1525.86,748.733 1528.06,741.423 1530.26,734.04 1532.46,726.582 1534.66,719.05 1536.86,711.441 1539.06,703.756 1541.25,695.994 1543.45,688.154 1545.65,680.235 1547.85,672.236 1550.05,664.156 1552.25,655.996 1554.45,647.753 1556.65,639.428 1558.85,631.019 1561.05,622.525 1563.25,1044.62 1565.45,1040.29 1567.65,1035.91 1569.84,1031.5 1572.04,1027.03 1574.24,1022.52 1576.44,1017.97 1578.64,1013.37 1580.84,1008.72 1583.04,1004.03 1585.24,999.285 1587.44,994.497 1589.64,989.66 1591.84,984.775 1594.04,979.841 1596.23,974.857 1598.43,969.823 1600.63,964.738 1602.83,959.602 1605.03,954.415 1607.23,949.175 1609.43,943.883 1611.63,938.537 1613.83,933.138 1616.03,927.684 1618.23,922.176 1620.43,916.612 1622.62,910.992 1624.82,905.315 1627.02,899.582 1629.22,893.79 1631.42,887.94 1633.62,882.032 1635.82,876.064 1638.02,870.036 1640.22,863.947 1642.42,857.797 1644.62,851.585 1646.82,845.311 1649.02,838.973 1651.21,832.572 1653.41,826.106 1655.61,819.575 1657.81,812.979 1660.01,806.316 1662.21,799.586 1664.41,792.789 1666.61,785.923 1668.81,1127.14 1671.01,1123.64 1673.21,1120.11 1675.41,1116.53 1677.6,1112.92 1679.8,1109.28 1682,1105.6 1684.2,1101.88 1686.4,1098.12 1688.6,1094.33 1690.8,1282.87 1693,1280.94 1695.2,1278.98 1697.4,1277.01 1699.6,1275.01 1701.8,1273 1703.99,1270.96 1706.19,1268.91 1708.39,1266.83 1710.59,1264.74 1712.79,1262.62 1714.99,1260.48 1717.19,1258.32 1719.39,1256.14 1721.59,1253.93 1723.79,1251.7 1725.99,1249.46 1728.19,1247.18 1730.39,1244.89 1732.58,1242.57 1734.78,1240.23 1736.98,1237.87 1739.18,1235.48 1741.38,1233.07 1743.58,1230.63 1745.78,1228.17 1747.98,1225.69 1750.18,1223.18 1752.38,1220.64 1754.58,1218.08 1756.78,1215.5 1758.97,1212.88 1761.17,1210.25 1763.37,1207.58 1765.57,1204.89 1767.77,1202.17 1769.97,1199.42 1772.17,1196.65 1774.37,1193.85 1776.57,1191.02 1778.77,1188.16 1780.97,1185.27 1783.17,1182.35 1785.36,1179.41 1787.56,1176.43 1789.76,1173.43 1791.96,1170.39 1794.16,1167.32 1796.36,1164.23 1798.56,1161.1 1800.76,1157.94 1802.96,1154.74 1805.16,1151.52 1807.36,1148.26 1809.56,1144.97 1811.76,1141.65 1813.95,1138.29 1816.15,1134.9 1818.35,1131.48 1820.55,1128.02 1822.75,1124.53 1824.95,1121 1827.15,1117.43 1829.35,1113.83 1831.55,1110.2 1833.75,1106.52 1835.95,1102.81 1838.15,1099.06 1840.34,1095.28 1842.54,1091.45 1844.74,1087.59 1846.94,1083.69 1849.14,1079.75 1851.34,1075.77 1853.54,1071.75 1855.74,1067.69 1857.94,1063.59 1860.14,1059.45 1862.34,1055.26 1864.54,1051.04 1866.73,1046.77 1868.93,1042.46 1871.13,1038.1 1873.33,1033.71 1875.53,1029.26 1877.73,1024.78 1879.93,1020.25 1882.13,1015.67 1884.33,1011.04 1886.53,1006.37 1888.73,1001.66 1890.93,996.893 1893.13,1233.67 1895.32,1231.24 1897.52,1228.78 1899.72,1226.3 1901.92,1223.8 1904.12,1221.27 1906.32,1218.71 1908.52,1216.13 1910.72,1213.52 1912.92,1210.89 1915.12,1208.23 1917.32,1205.54 1919.52,1202.83 1921.71,1200.09 1923.91,1197.32 1926.11,1194.52 1928.31,1191.7 1930.51,1188.85 1932.71,1185.97 1934.91,1183.06 1937.11,1180.12 1939.31,1177.15 1941.51,1174.15 1943.71,1171.12 1945.91,1168.06 1948.1,1164.97 1950.3,1161.85 1952.5,1158.7 1954.7,1155.52 1956.9,1152.3 1959.1,1149.06 1961.3,1145.77 1963.5,1142.46 1965.7,1139.12 1967.9,1135.73 1970.1,1132.32 1972.3,1128.87 1974.5,1125.39 1976.69,1121.87 1978.89,1118.32 1981.09,1114.73 1983.29,1111.1 1985.49,1107.44 1987.69,1103.74 1989.89,1100 1992.09,1096.23 1994.29,1092.42 1996.49,1088.57 1998.69,1084.68 2000.89,1080.75 2003.08,1076.78 2005.28,1072.77 2007.48,1068.73 2009.68,1064.64 2011.88,1060.51 2014.08,1056.33 2016.28,1052.12 2018.48,1047.86 2020.68,1043.56 2022.88,1039.22 2025.08,1034.83 2027.28,1030.4 2029.47,1025.93 2031.67,1021.4 2033.87,1016.84 2036.07,1012.22 2038.27,1007.57 2040.47,1002.86 2042.67,998.105 2044.87,993.303 2047.07,988.453 2049.27,983.554 2051.47,978.606 2053.67,973.608 2055.87,968.559 2058.06,963.46 2060.26,958.309 2062.46,953.107 2064.66,947.852 2066.86,942.545 2069.06,937.184 2071.26,931.769 2073.46,926.3 2075.66,920.776 2077.86,915.196 2080.06,909.561 2082.26,903.869 2084.45,898.12 2086.65,892.314 2088.85,886.449 2091.05,880.525 2093.25,874.542 2095.45,868.499 2097.65,862.395 2099.85,856.229 2102.05,850.002 2104.25,843.711 2106.45,837.358 2108.65,830.941 2110.84,824.459 2113.04,817.911 2115.24,811.298 2117.44,1139.93 2119.64,1136.56 2121.84,1133.15 2124.04,1129.71 2126.24,1126.23 2128.44,1122.72 2130.64,1119.18 2132.84,1115.59 2135.04,1111.98 2137.24,1108.32 2139.43,1104.63 2141.63,1100.9 2143.83,1097.13 2146.03,1093.33 2148.23,1089.49 2150.43,1085.61 2152.63,1081.69 2154.83,1077.73 2157.03,1073.73 2159.23,1069.69 2161.43,1065.61 2163.63,1061.49 2165.82,1057.33 2168.02,1053.12 2170.22,1048.88 2172.42,1044.59 2174.62,1040.25 2176.82,1035.88 2179.02,1031.46 2181.22,1026.99 2183.42,1022.48 2185.62,1017.93 2187.82,1013.33 2190.02,1008.68 2192.22,1003.99 2194.41,999.246 2196.61,994.457 2198.81,989.62 2201.01,984.734 2203.21,979.799 2205.41,974.815 2207.61,969.78 2209.81,964.695 2212.01,959.558 2214.21,954.37 2216.41,949.129 2218.61,943.836 2220.8,938.49 2223,933.09 2225.2,927.635 2227.4,922.126 2229.6,916.561 2231.8,1193.13 2234,1190.3 2236.2,1187.43 2238.4,1184.53 2240.6,1181.61 2242.8,1178.66 2245,1175.67 2247.19,1172.66 2249.39,1169.61 2251.59,1166.54 2253.79,1163.43 2255.99,1160.3 2258.19,1157.13 2260.39,1153.93 2262.59,1150.69 2264.79,1147.43 2266.99,1144.13 2269.19,1140.8 2271.39,1137.44 2273.59,1134.04 2275.78,1130.6 2277.98,1127.14 2280.18,1123.64 2282.38,1120.1 2284.58,1116.53 2286.78,1112.92 2288.98,1109.27 2291.18,1105.59 2293.38,1101.87 2295.58,1098.11 2297.78,1094.32 2299.98,1090.49 2302.17,1086.62 2304.37,1082.71 2306.57,1078.76 2308.77,1074.77 2310.97,1070.74 2313.17,1066.67 2315.37,1062.56 2317.57,1058.41 2319.77,1054.22 2321.97,1049.98 2324.17,1045.7 2326.37,1041.38 2328.56,1037.01 2330.76,1032.61 2332.96,1028.15 2335.16,1023.65 2337.36,1019.11 2339.56,1014.52 2341.76,1009.89 2343.96,1005.2 2346.16,1000.48 2348.36,995.699 2350.56,990.874 2352.76,986.001 "/>
<path clip-path="url(#clip900)" d="M1970.73 196.789 L2279.52 196.789 L2279.52 93.1086 L1970.73 93.1086  Z" fill="#ffffff" fill-rule="evenodd" fill-opacity="1"/>
<polyline clip-path="url(#clip900)" style="stroke:#000000; stroke-linecap:round; stroke-linejoin:round; stroke-width:4; stroke-opacity:1; fill:none" points="1970.73,196.789 2279.52,196.789 2279.52,93.1086 1970.73,93.1086 1970.73,196.789 "/>
<polyline clip-path="url(#clip900)" style="stroke:#009af9; stroke-linecap:round; stroke-linejoin:round; stroke-width:8; stroke-opacity:1; fill:none" points="1995.14,144.949 2141.6,144.949 "/>
<path clip-path="url(#clip900)" d="M2166.02 151.997 L2166.02 136.303 L2170.27 136.303 L2170.27 151.835 Q2170.27 155.516 2171.71 157.368 Q2173.14 159.196 2176.02 159.196 Q2179.46 159.196 2181.45 156.997 Q2183.47 154.798 2183.47 151.002 L2183.47 136.303 L2187.73 136.303 L2187.73 162.229 L2183.47 162.229 L2183.47 158.247 Q2181.92 160.608 2179.86 161.766 Q2177.82 162.9 2175.11 162.9 Q2170.64 162.9 2168.33 160.122 Q2166.02 157.344 2166.02 151.997 M2176.73 135.678 L2176.73 135.678 Z" fill="#000000" fill-rule="nonzero" fill-opacity="1" /><path clip-path="url(#clip900)" d="M2196.11 126.21 L2205.92 126.21 L2205.92 129.52 L2200.37 129.52 L2200.37 165.168 L2205.92 165.168 L2205.92 168.479 L2196.11 168.479 L2196.11 126.21 Z" fill="#000000" fill-rule="nonzero" fill-opacity="1" /><path clip-path="url(#clip900)" d="M2216.41 158.293 L2224.05 158.293 L2224.05 131.928 L2215.74 133.595 L2215.74 129.335 L2224 127.669 L2228.68 127.669 L2228.68 158.293 L2236.32 158.293 L2236.32 162.229 L2216.41 162.229 L2216.41 158.293 Z" fill="#000000" fill-rule="nonzero" fill-opacity="1" /><path clip-path="url(#clip900)" d="M2255.11 126.21 L2255.11 168.479 L2245.3 168.479 L2245.3 165.168 L2250.83 165.168 L2250.83 129.52 L2245.3 129.52 L2245.3 126.21 L2255.11 126.21 Z" fill="#000000" fill-rule="nonzero" fill-opacity="1" /></svg>
